<svg width="102" height="102" viewBox="0 0 102 102" fill="none" xmlns="http://www.w3.org/2000/svg">
<path d="M50.9999 97.351C25.4033 97.351 4.6488 76.6064 4.6488 50.9999C4.6488 25.3935 25.4033 4.64886 50.9999 4.64886C76.5964 4.64886 97.351 25.4034 97.351 50.9999C97.351 76.5965 76.5964 97.351 50.9999 97.351Z" fill="url(#paint0_linear_2181_3236)"/>
<path fill-rule="evenodd" clip-rule="evenodd" d="M96.4501 51.0003C96.4501 76.1018 76.1016 96.4503 51.0001 96.4503C25.8987 96.4503 5.55013 76.1018 5.55013 51.0003C5.55013 25.8989 25.8987 5.55035 51.0001 5.55035C76.1016 5.55035 96.4501 25.8989 96.4501 51.0003ZM51.0001 1.84702C78.1513 1.84702 100.153 23.8492 100.153 51.0003C100.153 78.1515 78.1414 100.154 51.0001 100.154C23.849 100.154 1.8468 78.1416 1.8468 51.0003C1.8468 23.8492 23.849 1.84702 51.0001 1.84702Z" fill="#F2F1F0"/>
<path d="M93.4175 50.9999C93.4175 74.4285 74.4285 93.4175 50.9999 93.4175C27.5713 93.4175 8.58236 74.4285 8.58236 50.9999C8.58236 27.5713 27.5713 8.58238 50.9999 8.58238C74.4285 8.58238 93.4175 27.5713 93.4175 50.9999ZM97.6208 50.9999C97.6208 25.2554 76.7445 4.37904 50.9999 4.37904C25.2454 4.37904 4.37903 25.2554 4.37903 50.9999C4.37903 76.7445 25.2554 97.6208 50.9999 97.6208C76.7445 97.6208 97.6208 76.7445 97.6208 50.9999Z" fill="url(#paint1_linear_2181_3236)" stroke="white" stroke-width="0.5"/>
<rect x="27.0508" y="28.7043" width="57.5" height="44.59" rx="1.5" fill="#D9D9D9"/>
<rect x="16.8252" y="28.7043" width="48.8442" height="44.59" rx="1.5" fill="white"/>
<rect x="16.8252" y="28.7043" width="67.73" height="44.59" rx="1.5" stroke="black" stroke-width="0.3" stroke-linejoin="round"/>
<g filter="url(#filter0_dddd_2181_3236)">
<path d="M63.734 78.7594C65.263 78.7594 66.7296 78.1519 67.8108 77.0707C68.892 75.9895 69.4992 74.5232 69.4992 72.9942C69.4992 71.4652 68.892 69.9989 67.8108 68.9177C66.7296 67.8365 65.263 67.229 63.734 67.229C62.206 67.2324 60.7413 67.841 59.6609 68.9214C58.5804 70.0019 57.9721 71.4662 57.9688 72.9942C57.9687 73.7513 58.1181 74.501 58.4078 75.2005C58.6975 75.8999 59.1218 76.5354 59.6571 77.0707C60.1925 77.6061 60.8286 78.0309 61.528 78.3207C62.2275 78.6104 62.9769 78.7594 63.734 78.7594V78.7594Z" fill="#092D4C"/>
</g>
<path d="M64.2695 69.8499C64.2695 69.5646 64.0383 69.3333 63.7529 69.3333V69.3333C63.4676 69.3333 63.2363 69.5646 63.2363 69.8499V76.1379C63.2363 76.4233 63.4676 76.6545 63.7529 76.6545V76.6545C64.0383 76.6545 64.2695 76.4233 64.2695 76.1379V69.8499Z" fill="white"/>
<path d="M67.4203 73.0448C67.4203 72.763 67.1919 72.5345 66.9101 72.5345H60.609C60.3272 72.5345 60.0988 72.763 60.0988 73.0448V73.0448C60.0988 73.3265 60.3272 73.555 60.609 73.555H66.9101C67.1919 73.555 67.4203 73.3265 67.4203 73.0448V73.0448Z" fill="white"/>
<path d="M82.8146 39.4326H71.6074C71.0551 39.4326 70.6074 39.8803 70.6074 40.4326V62.6479C70.6074 63.2002 71.0551 63.6479 71.6074 63.6479H82.8146" stroke="#013E69" stroke-width="1.5" stroke-linejoin="round"/>
<line x1="96.4766" y1="52.2903" x2="39.0386" y2="52.2903" stroke="#013E69" stroke-width="1.5" stroke-linejoin="round"/>
<path d="M73.3833 52.2085C73.3833 54.0725 71.8723 55.5835 70.0083 55.5835C68.1443 55.5835 66.6333 54.0725 66.6333 52.2085C66.6333 50.3445 68.1443 48.8335 70.0083 48.8335C71.8723 48.8335 73.3833 50.3445 73.3833 52.2085Z" fill="#013E69"/>
<circle cx="70.0083" cy="52.2085" r="2" fill="white"/>
<path d="M42.5084 42.619C47.037 42.619 50.7033 46.2894 50.7033 50.8139C50.7033 55.3424 47.0329 59.0087 42.5084 59.0087C37.984 59.0087 34.3136 55.3424 34.3136 50.8179C34.3136 46.2894 37.984 42.619 42.5084 42.619Z" fill="white"/>
<path d="M42.5091 32.9708C52.3692 32.9708 60.3521 40.9624 60.3521 50.8138C60.3521 60.674 52.3604 68.6569 42.5091 68.6569C32.6577 68.6569 24.666 60.674 24.666 50.8226C24.666 40.9624 32.6577 32.9708 42.5091 32.9708Z" stroke="#959595" stroke-width="0.5" stroke-miterlimit="10"/>
<path d="M42.509 33.2145L42.509 67.7502" stroke="#959595" stroke-width="0.8" stroke-miterlimit="10"/>
<path d="M57.8573 43.1676L27.7584 59.1764" stroke="#959595" stroke-width="0.8" stroke-miterlimit="10"/>
<path d="M26.9187 43.1676L57.6771 59.4162" stroke="#959595" stroke-width="0.8" stroke-miterlimit="10"/>
<path d="M42.5194 31.2194C41.4953 31.2194 40.6593 32.0319 40.641 33.0481C40.6228 34.0749 41.4509 34.9239 42.4881 34.9422C42.4985 34.9422 42.5116 34.9422 42.522 34.9422C43.5461 34.9422 44.3821 34.1297 44.4004 33.1135C44.4187 32.0841 43.5905 31.2377 42.5534 31.2194C42.5429 31.2194 42.5299 31.2194 42.5194 31.2194Z" fill="#959595"/>
<path d="M42.5195 66.3438C41.4955 66.3438 40.6595 67.1563 40.6412 68.1726C40.6229 69.1993 41.451 70.0483 42.4882 70.0666C42.4986 70.0666 42.5117 70.0666 42.5222 70.0666C43.5463 70.0666 44.3823 69.2541 44.4005 68.2379C44.4188 67.2085 43.5907 66.3621 42.5535 66.3438C42.5431 66.3438 42.53 66.3438 42.5195 66.3438Z" fill="#959595"/>
<path d="M59.8794 41.9277C59.42 41.0124 58.3188 40.6298 57.4024 41.0693C56.4766 41.5136 56.0893 42.6346 56.5382 43.5698C56.5429 43.5791 56.5488 43.5908 56.5534 43.6001C57.0129 44.5154 58.114 44.8981 59.0305 44.4585C59.9586 44.0131 60.3436 42.8932 59.8947 41.958C59.89 41.9487 59.8841 41.937 59.8794 41.9277Z" fill="#959595"/>
<path d="M28.9079 58.5246C28.4484 57.6094 27.3473 57.2267 26.4308 57.6663C25.505 58.1106 25.1177 59.2316 25.5666 60.1667C25.5713 60.1761 25.5772 60.1878 25.5819 60.1971C26.0413 61.1124 27.1425 61.495 28.059 61.0554C28.9871 60.61 29.372 59.4901 28.9231 58.555C28.9184 58.5457 28.9126 58.534 28.9079 58.5246Z" fill="#959595"/>
<path d="M59.485 60.1023C59.9838 59.2079 59.6814 58.082 58.8027 57.5711C57.9149 57.0551 56.77 57.3648 56.2489 58.2617C56.2438 58.2709 56.2374 58.2823 56.2323 58.2914C55.7336 59.1858 56.036 60.3117 56.9147 60.8226C57.8047 61.3399 58.9474 61.0289 59.4685 60.132C59.4736 60.1228 59.4799 60.1114 59.485 60.1023Z" fill="#959595"/>
<path d="M28.3282 43.7747C28.8269 42.8803 28.5245 41.7544 27.6458 41.2435C26.758 40.7275 25.6131 41.0372 25.092 41.9342C25.0869 41.9433 25.0806 41.9547 25.0755 41.9638C24.5767 42.8582 24.8791 43.9841 25.7578 44.495C26.6479 45.0123 27.7905 44.7013 28.3116 43.8044C28.3167 43.7953 28.3231 43.7838 28.3282 43.7747Z" fill="#959595"/>
<g filter="url(#filter1_dddd_2181_3236)">
<circle cx="42.6525" cy="50.6199" r="12.699" fill="white"/>
<circle cx="42.6525" cy="50.6199" r="12.449" stroke="#959595" stroke-width="0.5"/>
</g>
<g style="mix-blend-mode:multiply" filter="url(#filter2_f_2181_3236)">
<path d="M49.8528 47.7714C49.8544 47.7714 49.8557 47.7701 49.8557 47.7686C49.8553 47.7133 49.844 47.6633 49.8218 47.6134C49.7992 47.5626 49.771 47.5174 49.7315 47.4779C49.692 47.4384 49.6468 47.4102 49.596 47.3876C49.5452 47.365 49.4888 47.3538 49.438 47.3594L48.9696 47.3594C48.202 47.3594 47.44 47.207 46.7289 46.9248C45.8428 46.6144 45.0526 45.796 44.5051 45.4969C43.989 45.1715 43.3949 45.0134 42.7891 45.0226C42.783 45.0227 42.778 45.0277 42.778 45.0338V45.0338C42.778 45.0402 42.7729 45.0452 42.7666 45.0452C42.1327 45.036 41.5105 45.194 40.9663 45.5138C40.4132 45.8129 39.5722 46.5636 38.6861 46.8797C37.975 47.1619 37.213 47.3086 36.4511 47.3142L35.977 47.3142C35.8641 47.3142 35.7625 47.3594 35.6835 47.4384C35.6045 47.5174 35.5593 47.6247 35.5593 47.7319L35.5593 51.5191C35.5593 51.9245 35.6155 52.3356 35.7335 52.7243C35.734 52.7258 35.7354 52.7269 35.737 52.7269V52.7269C35.7387 52.7269 35.7402 52.728 35.7406 52.7297C35.7632 52.8249 35.7967 52.9312 35.8302 53.0486C35.9996 53.6864 36.2705 54.2903 36.6317 54.8377C37.0098 55.5037 37.4783 56.1189 38.0145 56.6721C38.7426 57.4509 39.5384 58.1621 40.3906 58.7999C40.4026 58.8087 40.4152 58.818 40.4284 58.8276C40.7924 59.0917 44.7457 59.0648 45.109 58.7999V58.7999C45.9331 58.179 46.7007 57.4848 47.4062 56.7341C47.9423 56.1867 48.4052 55.5715 48.7833 54.9055C49.1502 54.358 49.4211 53.7541 49.5904 53.1163C49.6349 52.9607 49.6684 52.8269 49.7017 52.7097C49.7025 52.707 49.7005 52.7043 49.6976 52.7043V52.7043C49.6948 52.7043 49.6928 52.7016 49.6936 52.6989C49.7998 52.3281 49.8556 51.9461 49.85 51.5642L49.85 47.7742C49.85 47.7727 49.8513 47.7714 49.8528 47.7714V47.7714Z" fill="#C1BEBE"/>
</g>
<path d="M48.9223 46.1348C48.1547 46.1284 47.395 45.9796 46.6817 45.696C45.7917 45.3848 44.9982 44.5664 44.4505 44.2645C43.9334 43.9449 43.3341 43.7837 42.7265 43.8008C42.0893 43.7832 41.4599 43.9438 40.9091 44.2645C40.3614 44.5757 39.515 45.3195 38.6249 45.6338C37.9104 45.9162 37.1496 46.0639 36.3812 46.0694C36.1945 46.0694 36.0389 46.0694 35.9113 46.0694C35.8004 46.0694 35.6941 46.1133 35.6154 46.1914C35.5367 46.2695 35.492 46.3755 35.4912 46.4864V50.2674C35.4969 50.7976 35.5894 51.3232 35.7651 51.8234C35.9365 52.4606 36.2097 53.0658 36.5742 53.6159C36.9556 54.2827 37.4198 54.8985 37.9559 55.4488C38.6861 56.2259 39.4815 56.9391 40.3334 57.5805C40.8686 57.9788 42.742 59.1147 42.7265 59.0711C42.7265 59.1147 44.5189 57.9788 45.0542 57.5805C45.8797 56.9603 46.6483 56.2677 47.3508 55.511C47.8873 54.9612 48.3516 54.3452 48.7325 53.6781C49.0953 53.1287 49.3674 52.5245 49.5385 51.8887C49.7139 51.3885 49.8065 50.8629 49.8123 50.3328V46.5393C49.8127 46.4844 49.8023 46.43 49.7814 46.3793C49.7606 46.3285 49.7299 46.2823 49.6911 46.2435C49.6523 46.2047 49.6062 46.174 49.5554 46.1532C49.5046 46.1324 49.4502 46.1219 49.3953 46.1223C49.2678 46.1223 49.109 46.1254 48.9223 46.1348Z" fill="white"/>
<g opacity="0.15" filter="url(#filter3_d_2181_3236)">
<path d="M48.8653 46.0459C48.1048 46.0395 47.352 45.8921 46.6452 45.6111C45.7633 45.3028 44.9771 44.4918 44.4344 44.1927C43.922 43.876 43.3282 43.7163 42.7261 43.7333C42.0948 43.7158 41.4711 43.8749 40.9254 44.1927C40.3827 44.501 39.544 45.238 38.6621 45.5494C37.954 45.8293 37.2002 45.9757 36.4389 45.9811C36.2539 45.9811 36.0997 45.9811 35.9733 45.9811C35.8634 45.9811 35.758 46.0245 35.68 46.1019C35.602 46.1793 35.5578 46.2844 35.557 46.3943V50.1407C35.5626 50.666 35.6543 51.1868 35.8284 51.6825C35.9982 52.3138 36.2689 52.9135 36.6301 53.4586C37.008 54.1193 37.468 54.7295 37.9991 55.2747C38.7226 56.0448 39.5108 56.7514 40.3549 57.3869C40.8853 57.7816 42.7415 58.9071 42.7261 58.8639C42.7261 58.9071 44.5022 57.7816 45.0325 57.3869C45.8505 56.7724 46.6121 56.0862 47.3082 55.3364C47.8398 54.7916 48.2998 54.1813 48.6772 53.5202C49.0367 52.9758 49.3063 52.3772 49.4759 51.7472C49.6497 51.2515 49.7414 50.7307 49.7472 50.2055V46.4467C49.7476 46.3923 49.7372 46.3384 49.7166 46.2881C49.696 46.2378 49.6655 46.1921 49.6271 46.1536C49.5886 46.1152 49.5429 46.0848 49.4926 46.0641C49.4423 46.0435 49.3884 46.0331 49.334 46.0335C49.2076 46.0335 49.0503 46.0366 48.8653 46.0459Z" fill="#1F1D20"/>
</g>
<path d="M49.8826 51.3436C49.9962 50.9602 50.0521 50.562 50.0484 50.1622V46.244C50.0484 46.1872 50.0371 46.1309 50.0153 46.0784C49.9934 46.0259 49.9614 45.9782 49.9211 45.9382C49.8807 45.8981 49.8328 45.8664 49.7802 45.8449C49.7276 45.8235 49.6712 45.8126 49.6143 45.813C49.4817 45.813 49.3129 45.813 49.1291 45.813C48.3351 45.8078 47.5491 45.6544 46.8114 45.3609C45.8921 45.0384 45.0753 44.1945 44.5087 43.8841C43.974 43.5545 43.3553 43.387 42.7274 43.4018L40.9974 52.3744L49.8826 51.3436Z" fill="#0883D9"/>
<path d="M38.4903 45.3217C37.7527 45.6122 36.9682 45.7654 36.1755 45.7737C35.9826 45.7737 35.8199 45.7737 35.6873 45.7737C35.573 45.7737 35.4633 45.8192 35.3825 45.9C35.3017 45.9808 35.2562 46.0904 35.2562 46.2047V50.1229C35.2527 50.5458 35.3147 50.9667 35.4401 51.3707H42.7279V43.4259C42.0697 43.4127 41.4205 43.5795 40.8502 43.9081C40.2805 44.2185 39.4095 44.9961 38.4903 45.3217Z" fill="#33BFF0"/>
<path d="M42.7283 59.1949C42.7283 59.2371 44.5819 58.0647 45.1394 57.6548C45.9925 57.0128 46.7873 56.2967 47.5144 55.5149C48.0678 54.9468 48.5468 54.3108 48.94 53.6221C49.3174 53.0549 49.5994 52.4298 49.7749 51.7716C49.8201 51.6088 49.8593 51.4702 49.8925 51.3436H42.7373L42.7283 59.1949Z" fill="#0F5094"/>
<path d="M35.4406 51.3436C35.4677 51.4521 35.5009 51.5696 35.54 51.7053C35.716 52.3628 35.9969 52.9877 36.3719 53.5558C36.7659 54.2457 37.246 54.8827 37.8005 55.4516C38.5547 56.255 39.3766 56.9921 40.2569 57.6548C40.8084 58.0647 42.7434 59.2371 42.7283 59.1949V51.3586L35.4406 51.3436Z" fill="#0370C8"/>
<path d="M80.8833 63.8621C80.8833 65.726 82.3943 67.2371 84.2583 67.2371C86.1223 67.2371 87.6333 65.726 87.6333 63.8621C87.6333 61.9981 86.1223 60.4871 84.2583 60.4871C82.3943 60.4871 80.8833 61.9981 80.8833 63.8621Z" fill="#01375D"/>
<circle cx="2" cy="2" r="2" transform="matrix(-1 0 0 1 86.2583 61.8621)" fill="white"/>
<path d="M80.8833 39.6797C80.8833 41.5436 82.3943 43.0547 84.2583 43.0547C86.1223 43.0547 87.6333 41.5436 87.6333 39.6797C87.6333 37.8157 86.1223 36.3047 84.2583 36.3047C82.3943 36.3047 80.8833 37.8157 80.8833 39.6797Z" fill="#014677"/>
<circle cx="2" cy="2" r="2" transform="matrix(-1 0 0 1 86.2583 37.6797)" fill="white"/>
<defs>
<filter id="filter0_dddd_2181_3236" x="55.9688" y="66.229" width="15.5304" height="18.5304" filterUnits="userSpaceOnUse" color-interpolation-filters="sRGB">
<feFlood flood-opacity="0" result="BackgroundImageFix"/>
<feColorMatrix in="SourceAlpha" type="matrix" values="0 0 0 0 0 0 0 0 0 0 0 0 0 0 0 0 0 0 127 0" result="hardAlpha"/>
<feOffset/>
<feGaussianBlur stdDeviation="0.5"/>
<feColorMatrix type="matrix" values="0 0 0 0 0 0 0 0 0 0 0 0 0 0 0 0 0 0 0.1 0"/>
<feBlend mode="normal" in2="BackgroundImageFix" result="effect1_dropShadow_2181_3236"/>
<feColorMatrix in="SourceAlpha" type="matrix" values="0 0 0 0 0 0 0 0 0 0 0 0 0 0 0 0 0 0 127 0" result="hardAlpha"/>
<feOffset dy="1"/>
<feGaussianBlur stdDeviation="0.5"/>
<feColorMatrix type="matrix" values="0 0 0 0 0 0 0 0 0 0 0 0 0 0 0 0 0 0 0.09 0"/>
<feBlend mode="normal" in2="effect1_dropShadow_2181_3236" result="effect2_dropShadow_2181_3236"/>
<feColorMatrix in="SourceAlpha" type="matrix" values="0 0 0 0 0 0 0 0 0 0 0 0 0 0 0 0 0 0 127 0" result="hardAlpha"/>
<feOffset dy="2"/>
<feGaussianBlur stdDeviation="0.5"/>
<feColorMatrix type="matrix" values="0 0 0 0 0 0 0 0 0 0 0 0 0 0 0 0 0 0 0.05 0"/>
<feBlend mode="normal" in2="effect2_dropShadow_2181_3236" result="effect3_dropShadow_2181_3236"/>
<feColorMatrix in="SourceAlpha" type="matrix" values="0 0 0 0 0 0 0 0 0 0 0 0 0 0 0 0 0 0 127 0" result="hardAlpha"/>
<feOffset dy="4"/>
<feGaussianBlur stdDeviation="1"/>
<feColorMatrix type="matrix" values="0 0 0 0 0 0 0 0 0 0 0 0 0 0 0 0 0 0 0.01 0"/>
<feBlend mode="normal" in2="effect3_dropShadow_2181_3236" result="effect4_dropShadow_2181_3236"/>
<feBlend mode="normal" in="SourceGraphic" in2="effect4_dropShadow_2181_3236" result="shape"/>
</filter>
<filter id="filter1_dddd_2181_3236" x="26.9535" y="37.9209" width="31.3981" height="36.398" filterUnits="userSpaceOnUse" color-interpolation-filters="sRGB">
<feFlood flood-opacity="0" result="BackgroundImageFix"/>
<feColorMatrix in="SourceAlpha" type="matrix" values="0 0 0 0 0 0 0 0 0 0 0 0 0 0 0 0 0 0 127 0" result="hardAlpha"/>
<feOffset dy="1"/>
<feGaussianBlur stdDeviation="0.5"/>
<feColorMatrix type="matrix" values="0 0 0 0 0 0 0 0 0 0 0 0 0 0 0 0 0 0 0.1 0"/>
<feBlend mode="normal" in2="BackgroundImageFix" result="effect1_dropShadow_2181_3236"/>
<feColorMatrix in="SourceAlpha" type="matrix" values="0 0 0 0 0 0 0 0 0 0 0 0 0 0 0 0 0 0 127 0" result="hardAlpha"/>
<feOffset dy="2"/>
<feGaussianBlur stdDeviation="1"/>
<feColorMatrix type="matrix" values="0 0 0 0 0 0 0 0 0 0 0 0 0 0 0 0 0 0 0.09 0"/>
<feBlend mode="normal" in2="effect1_dropShadow_2181_3236" result="effect2_dropShadow_2181_3236"/>
<feColorMatrix in="SourceAlpha" type="matrix" values="0 0 0 0 0 0 0 0 0 0 0 0 0 0 0 0 0 0 127 0" result="hardAlpha"/>
<feOffset dy="5"/>
<feGaussianBlur stdDeviation="1.5"/>
<feColorMatrix type="matrix" values="0 0 0 0 0 0 0 0 0 0 0 0 0 0 0 0 0 0 0.05 0"/>
<feBlend mode="normal" in2="effect2_dropShadow_2181_3236" result="effect3_dropShadow_2181_3236"/>
<feColorMatrix in="SourceAlpha" type="matrix" values="0 0 0 0 0 0 0 0 0 0 0 0 0 0 0 0 0 0 127 0" result="hardAlpha"/>
<feOffset dy="8"/>
<feGaussianBlur stdDeviation="1.5"/>
<feColorMatrix type="matrix" values="0 0 0 0 0 0 0 0 0 0 0 0 0 0 0 0 0 0 0.01 0"/>
<feBlend mode="normal" in2="effect3_dropShadow_2181_3236" result="effect4_dropShadow_2181_3236"/>
<feBlend mode="normal" in="SourceGraphic" in2="effect4_dropShadow_2181_3236" result="shape"/>
</filter>
<filter id="filter2_f_2181_3236" x="27.5593" y="37.0222" width="30.2964" height="29.9904" filterUnits="userSpaceOnUse" color-interpolation-filters="sRGB">
<feFlood flood-opacity="0" result="BackgroundImageFix"/>
<feBlend mode="normal" in="SourceGraphic" in2="BackgroundImageFix" result="shape"/>
<feGaussianBlur stdDeviation="4" result="effect1_foregroundBlur_2181_3236"/>
</filter>
<filter id="filter3_d_2181_3236" x="31.557" y="43.7319" width="22.1902" height="23.1332" filterUnits="userSpaceOnUse" color-interpolation-filters="sRGB">
<feFlood flood-opacity="0" result="BackgroundImageFix"/>
<feColorMatrix in="SourceAlpha" type="matrix" values="0 0 0 0 0 0 0 0 0 0 0 0 0 0 0 0 0 0 127 0" result="hardAlpha"/>
<feOffset dy="4"/>
<feGaussianBlur stdDeviation="2"/>
<feComposite in2="hardAlpha" operator="out"/>
<feColorMatrix type="matrix" values="0 0 0 0 0 0 0 0 0 0 0 0 0 0 0 0 0 0 0.25 0"/>
<feBlend mode="normal" in2="BackgroundImageFix" result="effect1_dropShadow_2181_3236"/>
<feBlend mode="normal" in="SourceGraphic" in2="effect1_dropShadow_2181_3236" result="shape"/>
</filter>
<linearGradient id="paint0_linear_2181_3236" x1="25.2852" y1="9.49703" x2="100.192" y2="148.693" gradientUnits="userSpaceOnUse">
<stop offset="0.0001" stop-color="#50E6FF"/>
<stop offset="0.623265" stop-color="#0078D4"/>
</linearGradient>
<linearGradient id="paint1_linear_2181_3236" x1="15.5867" y1="11.2231" x2="83.1292" y2="98.6208" gradientUnits="userSpaceOnUse">
<stop stop-color="#007ED8"/>
<stop offset="0.915361" stop-color="#002D4C"/>
</linearGradient>
</defs>
</svg>
