<svg xmlns="http://www.w3.org/2000/svg" xmlns:xlink="http://www.w3.org/1999/xlink" viewBox="0 0 501 265.48">
  <defs>
    <symbol id="IZ_VirtualNetwork" data-name="IZ_VirtualNetwork" viewBox="0 0 50.08 28.71">
      <path d="M49.74,15.08a1.37,1.37,0,0,0,0-1.8l-2.4-2.4L36.54.38a1.14,1.14,0,0,0-1.7,0h0a1.19,1.19,0,0,0,0,1.8l11.3,11.1a1.27,1.27,0,0,1,0,1.8l-11.5,11.5a1.27,1.27,0,0,0,0,1.8h0a1.24,1.24,0,0,0,1.7,0L47,17.77l.1-.1Z" fill="#6197c2"/>
      <path d="M.34,15.08a1.37,1.37,0,0,1,0-1.8l2.4-2.4L13.54.38a1.14,1.14,0,0,1,1.7,0h0a1.19,1.19,0,0,1,0,1.8L4.14,13.27a1.27,1.27,0,0,0,0,1.8l11.3,11.5a1.27,1.27,0,0,1,0,1.8h0a1.24,1.24,0,0,1-1.7,0L2.84,17.88l-.1-.11Z" fill="#6197c2"/>
      <path d="M18.24,14.17a3.33,3.33,0,0,1-3.3,3.3,3.66,3.66,0,0,1-3.5-3.3,3.37,3.37,0,0,1,3.5-3.29A3.26,3.26,0,0,1,18.24,14.17Z" fill="#91b82b"/>
      <path d="M28.34,14.17a3.33,3.33,0,0,1-3.3,3.3,3.66,3.66,0,0,1-3.5-3.3A3.51,3.51,0,0,1,25,10.88,3.33,3.33,0,0,1,28.34,14.17Z" fill="#91b82b"/>
      <circle cx="35.24" cy="14.17" r="3.3" fill="#91b82b"/>
    </symbol>
  </defs>
  <title>2-vnet-gateway</title>
  <g id="Shapes">
    <rect width="504.62" height="265.48" fill="#fff"/>
    <g>
      <rect x="11.7" y="116.32" width="205" height="112.41" fill="#fff"/>
      <rect x="11.7" y="116.32" width="205" height="112.41" fill="#3c3c41" opacity="0.15"/>
    </g>
    <g>
      <g>
        <rect x="295.5" y="5.82" width="205" height="82" rx="5" fill="#fff"/>
        <rect x="295.5" y="5.82" width="205" height="82" rx="5" fill="#0072c6" opacity="0.05"/>
      </g>
      <path d="M494.33,88.32h-1v-1h1Zm-3,0h-1v-1h1Zm-3,0h-1v-1h1Zm-3,0h-1v-1h1Zm-3,0h-1v-1h1Zm-3,0h-1v-1h1Zm-3,0h-1v-1h1Zm-3,0h-1v-1h1Zm-3,0h-1v-1h1Zm-3,0h-1v-1h1Zm-3,0h-1v-1h1Zm-3,0h-1v-1h1Zm-3,0h-1v-1h1Zm-3,0h-1v-1h1Zm-3,0h-1v-1h1Zm-3,0h-1v-1h1Zm-3,0h-1v-1h1Zm-3,0h-1v-1h1Zm-3,0h-1v-1h1Zm-3,0h-1v-1h1Zm-3,0h-1v-1h1Zm-3,0h-1v-1h1Zm-3,0h-1v-1h1Zm-3,0h-1v-1h1Zm-3,0h-1v-1h1Zm-3,0h-1v-1h1Zm-3,0h-1v-1h1Zm-3,0h-1v-1h1Zm-3,0h-1v-1h1Zm-3,0h-1v-1h1Zm-3,0h-1v-1h1Zm-3,0h-1v-1h1Zm-3,0h-1v-1h1Zm-3,0h-1v-1h1Zm-3,0h-1v-1h1Zm-3,0h-1v-1h1Zm-3,0h-1v-1h1Zm-3,0h-1v-1h1Zm-3,0h-1v-1h1Zm-3,0h-1v-1h1Zm-3,0h-1v-1h1Zm-3,0h-1v-1h1Zm-3,0h-1v-1h1Zm-3,0h-1v-1h1Zm-3,0h-1v-1h1Zm-3,0h-1v-1h1Zm-3,0h-1v-1h1Zm-3,0h-1v-1h1Zm-3,0h-1v-1h1Zm-3,0h-1v-1h1Zm-3,0h-1v-1h1Zm-3,0h-1v-1h1Zm-3,0h-1v-1h1Zm-36.09,0h-1v-1h1Zm194.55-.08-.17-1a4.7,4.7,0,0,0,.87-.24l.36.93A5.75,5.75,0,0,1,496.42,88.24ZM298.73,88a5.28,5.28,0,0,1-1-.45l.51-.87a4.71,4.71,0,0,0,.82.38Zm200.59-1.25-.7-.72a4.3,4.3,0,0,0,.59-.69l.82.57A6.31,6.31,0,0,1,499.32,86.77ZM296.1,86.11a5.6,5.6,0,0,1-.57-.94l.9-.43a4.66,4.66,0,0,0,.47.77Zm204.79-2.2-1-.2a4.41,4.41,0,0,0,.09-.89l1-.06v.06A5.6,5.6,0,0,1,500.89,83.91ZM295,83V82h1v1Zm206-2.28h-1v-1h1ZM296,80h-1V79h1Zm205-2.26h-1v-1h1ZM296,77h-1V76h1Zm205-2.27h-1v-1h1ZM296,74h-1V73h1Zm205-2.27h-1v-1h1ZM296,71h-1V70h1Zm205-2.26h-1v-1h1ZM296,68h-1V67h1Zm205-2.26h-1v-1h1ZM296,65h-1V64h1Zm205-2.27h-1v-1h1ZM296,62h-1V61h1Zm205-2.26h-1v-1h1ZM296,59h-1V58h1ZM501,56.7h-1v-1h1ZM296,56h-1V55h1Zm205-2.27h-1v-1h1ZM296,53h-1V52h1Zm205-2.27h-1v-1h1Zm-205-.74h-1v-1h1Zm205-2.26h-1v-1h1Zm-205-.75h-1v-1h1Zm205-2.26h-1v-1h1Zm-205-.74h-1v-1h1Zm205-2.27h-1v-1h1Zm-205-.74h-1v-1h1Zm205-2.26h-1v-1h1Zm-205-.75h-1v-1h1Zm205-2.26h-1v-1h1ZM296,34.9h-1v-1h1Zm205-2.26h-1v-1h1ZM296,31.9h-1v-1h1Zm205-2.27h-1v-1h1Zm-205-.74h-1v-1h1Zm205-2.26h-1v-1h1Zm-205-.75h-1v-1h1Zm205-2.26h-1v-1h1Zm-205-.74h-1v-1h1Zm205-2.27h-1v-1h1Zm-205-.74h-1v-1h1ZM501,17.6h-1v-1h1Zm-205-.74h-1v-1h1ZM501,14.6h-1v-1h1Zm-205-.75h-1v-1h1Zm205-2.26h-1v-1l1,0a2.35,2.35,0,0,1,0,.26Zm-206-.74v0a6.36,6.36,0,0,1,.1-1.07l1,.2a4.94,4.94,0,0,0-.08.87Zm204.56-2a4.12,4.12,0,0,0-.48-.77l.8-.61a6.1,6.1,0,0,1,.58.94ZM296.78,8.3,296,7.73a5.64,5.64,0,0,1,.71-.84l.7.72A4.24,4.24,0,0,0,296.78,8.3Zm201-1.38a4.3,4.3,0,0,0-.82-.37l.32-1a6.38,6.38,0,0,1,1,.45ZM298.86,6.63l-.37-.93a4.92,4.92,0,0,1,1.06-.3l.18,1A4.31,4.31,0,0,0,298.86,6.63ZM495.1,6.32h-1v-1h1Zm-3,0h-1v-1h1Zm-3,0h-1v-1h1Zm-3,0h-1v-1h1Zm-3,0h-1v-1h1Zm-3,0h-1v-1h1Zm-3,0h-1v-1h1Zm-3,0h-1v-1h1Zm-3,0h-1v-1h1Zm-3,0h-1v-1h1Zm-3,0h-1v-1h1Zm-3,0h-1v-1h1Zm-3,0h-1v-1h1Zm-3,0h-1v-1h1Zm-3,0h-1v-1h1Zm-3,0h-1v-1h1Zm-3,0h-1v-1h1Zm-3,0h-1v-1h1Zm-3,0h-1v-1h1Zm-3,0h-1v-1h1Zm-3,0h-1v-1h1Zm-3,0h-1v-1h1Zm-3,0h-1v-1h1Zm-3,0h-1v-1h1Zm-3,0h-1v-1h1Zm-3,0h-1v-1h1Zm-3,0h-1v-1h1Zm-3,0h-1v-1h1Zm-3,0h-1v-1h1Zm-3,0h-1v-1h1Zm-3,0h-1v-1h1Zm-3,0h-1v-1h1Zm-3,0h-1v-1h1Zm-3,0h-1v-1h1Zm-3,0h-1v-1h1Zm-3,0h-1v-1h1Zm-3,0h-1v-1h1Zm-3,0h-1v-1h1Zm-3,0h-1v-1h1Zm-3,0h-1v-1h1Zm-3,0h-1v-1h1Zm-3,0h-1v-1h1Zm-3,0h-1v-1h1Zm-3,0h-1v-1h1Zm-3,0h-1v-1h1Zm-3,0h-1v-1h1Zm-3,0h-1v-1h1Zm-3,0h-1v-1h1Zm-3,0h-1v-1h1Zm-3,0h-1v-1h1Zm-3,0h-1v-1h1Zm-3,0h-1v-1h1Zm-3,0h-1v-1h1Zm-3,0h-1v-1h1Zm-3,0h-1v-1h1Zm-3,0h-1v-1h1Zm-3,0h-1v-1h1Zm-3,0h-1v-1h1Zm-3,0h-1v-1h1Zm-3,0h-1v-1h1Zm-3,0h-1v-1h1Zm-3,0h-1v-1h1Zm-3,0h-1v-1h1Zm-3,0h-1v-1h1Zm-3,0h-1v-1h1Z" fill="#0072c6"/>
    </g>
    <g>
      <rect x="11.55" y="214.67" width="3.6" height="4.2" fill="#7a7a7a"/>
      <rect x="11.55" y="214.67" width="3.6" height="4.2" fill="#7a7a7a"/>
      <rect x="11.55" y="214.67" width="3.6" height="4.2" fill="#7a7a7a"/>
      <g>
        <path d="M18,240.17a1.49,1.49,0,0,1-1.5,1.5H1.5a1.49,1.49,0,0,1-1.5-1.5v-27a1.49,1.49,0,0,1,1.5-1.5H16.44a1.49,1.49,0,0,1,1.5,1.5v27Z" fill="#a0a1a2"/>
        <rect x="2.4" y="221.27" width="3.6" height="4.2" fill="#7a7a7a"/>
        <rect x="7.2" y="221.27" width="3.6" height="4.2" fill="#7a7a7a"/>
        <rect x="12" y="221.27" width="3.6" height="4.2" fill="#7a7a7a"/>
        <rect x="2.4" y="227.87" width="3.6" height="4.2" fill="#7a7a7a"/>
        <rect x="7.2" y="227.87" width="3.6" height="4.2" fill="#7a7a7a"/>
        <rect x="12" y="227.87" width="3.6" height="4.2" fill="#7a7a7a"/>
        <path d="M17.88,241.13l1.26.54.12-.18,1-1.2h1l1.2,1.38,1.26-.54V241l-.12-1.56.72-.72,1.8.12.54-1.32-.12-.18-1.2-1v-1.08L26.7,234l-.48-1.32H26l-1.56.12-.72-.72.12-1.8-1.32-.6-.12.18-1,1.2h-1l-1.2-1.38-1.26.54v.24l.12,1.56-.72.72-1.8-.12L15,233.93l.18.12,1.2,1v1.08l-1.32,1.2.54,1.32h.18l1.56-.12.72.78Zm.42-6.6A2.82,2.82,0,0,1,22,233a2.91,2.91,0,0,1,1.5,3.78,2.84,2.84,0,1,1-5.22-2.22" fill="#3e3e3e"/>
      </g>
    </g>
    <g>
      <path d="M117.15,152.81h-7.69c.91,3.22-.34,3.73-5.76,3.73v1.69h18.42v-1.69C116.75,156.54,116.24,156.08,117.15,152.81Z" fill="#7a7a7a"/>
      <path d="M125.4,132.23h-25a1.56,1.56,0,0,0-1.52,1.58v17.41a1.57,1.57,0,0,0,1.52,1.59h25a1.73,1.73,0,0,0,1.7-1.59V133.81A1.73,1.73,0,0,0,125.4,132.23Zm-.45,2.15V150.6H101V134.38l24-.06Z" fill="#3e3e3e"/>
      <polygon points="124.89 134.38 124.89 150.66 100.98 150.66 100.98 134.38 124.95 134.38 124.89 134.38" fill="#00bbf1"/>
      <path d="M101,150.66h0V134.38h21.88l2.54-2.15h-25a1.56,1.56,0,0,0-1.52,1.58v17.41a1.57,1.57,0,0,0,1.52,1.59H101l2.6-2.15Z" fill="#7a7a7a"/>
      <polygon points="100.98 150.66 100.98 150.66 100.98 134.38 122.86 134.38 122.86 134.38 100.98 134.38 100.98 150.66" fill="#59b4d9"/>
      <rect x="103.75" y="156.54" width="18.48" height="1.7" fill="#b0b0b0"/>
      <circle cx="112.85" cy="133.42" r="0.4" fill="#bac84a"/>
      <path d="M113,142.24h-.06l-5-2.89c-.06,0-.06,0-.06-.11a.17.17,0,0,1,.06-.11l4.91-2.83H113l5,2.88s0,.06,0,.12,0,.11,0,.11l-4.92,2.83Z" fill="#fff" opacity="0.9" style="isolation: isolate"/>
      <path d="M112.23,149.19h-.06l-5-2.83c-.06,0-.06-.05-.06-.11v-5.77s0-.11.06-.11h.17l5,2.83c.06,0,.06.05.06.11V149a.17.17,0,0,1-.06.11C112.29,149.19,112.29,149.19,112.23,149.19Z" fill="#fff" opacity="0.8" style="isolation: isolate"/>
      <path d="M113.64,149.19h0c-.06,0-.06-.06-.06-.11v-5.71a.21.21,0,0,1,.06-.12l5-2.82h.17c.06,0,.06,0,.06.11v5.71a.17.17,0,0,1-.06.11l-5,2.83Z" fill="#fff" opacity="0.5" style="isolation: isolate"/>
    </g>
    <g>
      <path d="M181.75,152.81h-7.68c.9,3.22-.34,3.73-5.77,3.73v1.69h18.43v-1.69C181.36,156.54,180.85,156.08,181.75,152.81Z" fill="#7a7a7a"/>
      <path d="M190,132.23H165a1.57,1.57,0,0,0-1.53,1.58v17.41a1.58,1.58,0,0,0,1.53,1.59h25a1.73,1.73,0,0,0,1.7-1.59V133.81A1.73,1.73,0,0,0,190,132.23Zm-.45,2.15V150.6h-24V134.38l24-.06Z" fill="#3e3e3e"/>
      <polygon points="189.5 134.38 189.5 150.66 165.59 150.66 165.59 134.38 189.55 134.38 189.5 134.38" fill="#00bbf1"/>
      <path d="M165.59,150.66h0V134.38h21.87l2.54-2.15H165a1.57,1.57,0,0,0-1.53,1.58v17.41a1.58,1.58,0,0,0,1.53,1.59h.62l2.6-2.15Z" fill="#7a7a7a"/>
      <polygon points="165.59 150.66 165.59 150.66 165.59 134.38 187.46 134.38 187.46 134.38 165.59 134.38 165.59 150.66" fill="#59b4d9"/>
      <rect x="168.36" y="156.54" width="18.48" height="1.7" fill="#b0b0b0"/>
      <circle cx="177.46" cy="133.42" r="0.4" fill="#bac84a"/>
      <path d="M177.57,142.24h-.06l-5-2.89c-.06,0-.06,0-.06-.11a.17.17,0,0,1,.06-.11l4.92-2.83h.17l5,2.88c.06,0,.06.06.06.12s0,.11-.06.11l-4.92,2.83Z" fill="#fff" opacity="0.9" style="isolation: isolate"/>
      <path d="M176.83,149.19h-.05l-5-2.83c-.05,0-.05-.05-.05-.11v-5.77s0-.11.05-.11H172l5,2.83c.05,0,.05.05.05.11V149a.18.18,0,0,1-.05.11C176.89,149.19,176.89,149.19,176.83,149.19Z" fill="#fff" opacity="0.8" style="isolation: isolate"/>
      <path d="M178.25,149.19h-.06c-.06,0-.06-.06-.06-.11v-5.71a.21.21,0,0,1,.06-.12l5-2.82h.16c.06,0,.06,0,.06.11v5.71a.17.17,0,0,1-.06.11l-5,2.83Z" fill="#fff" opacity="0.5" style="isolation: isolate"/>
    </g>
    <g>
      <path d="M52.55,152.81H44.86c.9,3.22-.34,3.73-5.77,3.73v1.69H57.52v-1.69C52.15,156.54,51.64,156.08,52.55,152.81Z" fill="#7a7a7a"/>
      <path d="M60.8,132.23h-25a1.57,1.57,0,0,0-1.53,1.58v17.41a1.58,1.58,0,0,0,1.53,1.59h25a1.72,1.72,0,0,0,1.69-1.59V133.81A1.72,1.72,0,0,0,60.8,132.23Zm-.45,2.15V150.6h-24V134.38l24-.06Z" fill="#3e3e3e"/>
      <polygon points="60.29 134.38 60.29 150.66 36.38 150.66 36.38 134.38 60.34 134.38 60.29 134.38" fill="#00bbf1"/>
      <path d="M36.38,150.66h0V134.38H58.25l2.55-2.15h-25a1.57,1.57,0,0,0-1.53,1.58v17.41a1.58,1.58,0,0,0,1.53,1.59h.62l2.6-2.15Z" fill="#7a7a7a"/>
      <polygon points="36.38 150.66 36.38 150.66 36.38 134.38 58.25 134.38 58.25 134.38 36.38 134.38 36.38 150.66" fill="#59b4d9"/>
      <rect x="39.15" y="156.54" width="18.48" height="1.7" fill="#b0b0b0"/>
      <circle cx="48.25" cy="133.42" r="0.4" fill="#bac84a"/>
      <path d="M48.36,142.24h0l-5-2.89s0,0,0-.11a.18.18,0,0,1,0-.11l4.92-2.83h.17l5,2.88c.06,0,.06.06.06.12s0,.11-.06.11l-4.91,2.83Z" fill="#fff" opacity="0.9" style="isolation: isolate"/>
      <path d="M47.63,149.19h-.06l-5-2.83c-.06,0-.06-.05-.06-.11v-5.77s0-.11.06-.11h.17l5,2.83c.06,0,.06.05.06.11V149a.17.17,0,0,1-.06.11C47.68,149.19,47.68,149.19,47.63,149.19Z" fill="#fff" opacity="0.8" style="isolation: isolate"/>
      <path d="M49,149.19H49s0-.06,0-.11v-5.71a.22.22,0,0,1,0-.12l5-2.82h.17s0,0,0,.11v5.71a.18.18,0,0,1,0,.11l-5,2.83Z" fill="#fff" opacity="0.5" style="isolation: isolate"/>
    </g>
    <g>
      <path d="M387.78,46.89h-7.69c.91,3.22-.33,3.73-5.76,3.73v1.7h18.43v-1.7C387.39,50.62,386.88,50.17,387.78,46.89Z" fill="#7a7a7a"/>
      <path d="M396,26.32H371a1.57,1.57,0,0,0-1.52,1.58V45.31A1.57,1.57,0,0,0,371,46.89h25a1.72,1.72,0,0,0,1.7-1.58V27.9A1.72,1.72,0,0,0,396,26.32Zm-.45,2.15V44.69h-24V28.47l24-.06Z" fill="#3e3e3e"/>
      <polygon points="395.52 28.47 395.52 44.74 371.62 44.74 371.62 28.47 395.58 28.47 395.52 28.47" fill="#00bbf1"/>
      <path d="M371.62,44.74h0V28.47h21.87L396,26.32H371a1.57,1.57,0,0,0-1.52,1.58V45.31A1.57,1.57,0,0,0,371,46.89h.63l2.6-2.15Z" fill="#7a7a7a"/>
      <polygon points="371.62 44.74 371.62 44.74 371.62 28.47 393.49 28.47 393.49 28.47 371.62 28.47 371.62 44.74" fill="#59b4d9"/>
      <rect x="374.39" y="50.62" width="18.48" height="1.7" fill="#b0b0b0"/>
      <circle cx="383.49" cy="27.51" r="0.4" fill="#bac84a"/>
      <path d="M383.6,36.32h-.06l-5-2.88c-.06,0-.06-.06-.06-.11a.21.21,0,0,1,.06-.12l4.92-2.82h.17l5,2.88c.06,0,.06.06.06.11s0,.12-.06.12l-4.92,2.82Z" fill="#fff" opacity="0.9" style="isolation: isolate"/>
      <path d="M382.86,43.27h-.05l-5-2.82c-.05,0-.05-.06-.05-.11V34.57c0-.06,0-.11.05-.11H378l5,2.82s0,.06,0,.12v5.71a.22.22,0,0,1,0,.11C382.92,43.27,382.92,43.27,382.86,43.27Z" fill="#fff" opacity="0.8" style="isolation: isolate"/>
      <path d="M384.28,43.27h-.06c-.06,0-.06-.05-.06-.11V37.45a.21.21,0,0,1,.06-.11l5-2.83h.17c.06,0,.06.06.06.12v5.71a.21.21,0,0,1-.06.11l-5,2.82Z" fill="#fff" opacity="0.5" style="isolation: isolate"/>
    </g>
    <g>
      <path d="M429.18,46.89H421.5c.9,3.22-.34,3.73-5.77,3.73v1.7h18.43v-1.7C428.79,50.62,428.28,50.17,429.18,46.89Z" fill="#7a7a7a"/>
      <path d="M437.44,26.32h-25a1.57,1.57,0,0,0-1.53,1.58V45.31a1.57,1.57,0,0,0,1.53,1.58h25a1.72,1.72,0,0,0,1.69-1.58V27.9A1.72,1.72,0,0,0,437.44,26.32ZM437,28.47V44.69H413V28.47l24-.06Z" fill="#3e3e3e"/>
      <polygon points="436.93 28.47 436.93 44.74 413.02 44.74 413.02 28.47 436.98 28.47 436.93 28.47" fill="#00bbf1"/>
      <path d="M413,44.74h0V28.47h21.87l2.55-2.15h-25a1.57,1.57,0,0,0-1.53,1.58V45.31a1.57,1.57,0,0,0,1.53,1.58H413l2.6-2.15Z" fill="#7a7a7a"/>
      <polygon points="413.02 44.74 413.02 44.74 413.02 28.47 434.89 28.47 434.89 28.47 413.02 28.47 413.02 44.74" fill="#59b4d9"/>
      <rect x="415.79" y="50.62" width="18.48" height="1.7" fill="#b0b0b0"/>
      <circle cx="424.89" cy="27.51" r="0.4" fill="#bac84a"/>
      <path d="M425,36.32h-.06l-5-2.88c-.06,0-.06-.06-.06-.11a.21.21,0,0,1,.06-.12l4.92-2.82h.17l5,2.88c.06,0,.06.06.06.11s0,.12-.06.12l-4.92,2.82Z" fill="#fff" opacity="0.9" style="isolation: isolate"/>
      <path d="M424.27,43.27h-.06l-5-2.82c-.06,0-.06-.06-.06-.11V34.57c0-.06,0-.11.06-.11h.17l5,2.82c.06,0,.06.06.06.12v5.71a.21.21,0,0,1-.06.11C424.32,43.27,424.32,43.27,424.27,43.27Z" fill="#fff" opacity="0.8" style="isolation: isolate"/>
      <path d="M425.68,43.27h-.06c-.05,0-.05-.05-.05-.11V37.45a.22.22,0,0,1,.05-.11l5-2.83h.17c.05,0,.05.06.05.12v5.71a.22.22,0,0,1-.05.11l-5,2.82Z" fill="#fff" opacity="0.5" style="isolation: isolate"/>
    </g>
    <g>
      <path d="M470.59,46.89H462.9c.9,3.22-.34,3.73-5.77,3.73v1.7h18.43v-1.7C470.19,50.62,469.68,50.17,470.59,46.89Z" fill="#7a7a7a"/>
      <path d="M478.84,26.32h-25a1.57,1.57,0,0,0-1.53,1.58V45.31a1.57,1.57,0,0,0,1.53,1.58h25a1.71,1.71,0,0,0,1.69-1.58V27.9A1.71,1.71,0,0,0,478.84,26.32Zm-.45,2.15V44.69h-24V28.47l24-.06Z" fill="#3e3e3e"/>
      <polygon points="478.33 28.47 478.33 44.74 454.42 44.74 454.42 28.47 478.39 28.47 478.33 28.47" fill="#00bbf1"/>
      <path d="M454.42,44.74h0V28.47h21.87l2.55-2.15h-25a1.57,1.57,0,0,0-1.53,1.58V45.31a1.57,1.57,0,0,0,1.53,1.58h.62l2.6-2.15Z" fill="#7a7a7a"/>
      <polygon points="454.42 44.74 454.42 44.74 454.42 28.47 476.3 28.47 476.3 28.47 454.42 28.47 454.42 44.74" fill="#59b4d9"/>
      <rect x="457.19" y="50.62" width="18.48" height="1.7" fill="#b0b0b0"/>
      <circle cx="466.29" cy="27.51" r="0.4" fill="#bac84a"/>
      <path d="M466.4,36.32h0l-5-2.88c-.05,0-.05-.06-.05-.11a.22.22,0,0,1,.05-.12l4.92-2.82h.17l5,2.88c.06,0,.06.06.06.11s0,.12-.06.12l-4.91,2.82Z" fill="#fff" opacity="0.9" style="isolation: isolate"/>
      <path d="M465.67,43.27h-.06l-5-2.82c-.06,0-.06-.06-.06-.11V34.57c0-.06,0-.11.06-.11h.17l5,2.82c.06,0,.06.06.06.12v5.71a.21.21,0,0,1-.06.11C465.73,43.27,465.73,43.27,465.67,43.27Z" fill="#fff" opacity="0.8" style="isolation: isolate"/>
      <path d="M467.08,43.27H467c-.06,0-.06-.05-.06-.11V37.45a.21.21,0,0,1,.06-.11l5-2.83h.17c.06,0,.06.06.06.12v5.71a.21.21,0,0,1-.06.11l-5,2.82Z" fill="#fff" opacity="0.5" style="isolation: isolate"/>
    </g>
    <g>
      <path d="M346.38,46.89h-7.69c.91,3.22-.34,3.73-5.76,3.73v1.7h18.42v-1.7C346,50.62,345.47,50.17,346.38,46.89Z" fill="#7a7a7a"/>
      <path d="M354.63,26.32h-25a1.56,1.56,0,0,0-1.52,1.58V45.31a1.56,1.56,0,0,0,1.52,1.58h25a1.72,1.72,0,0,0,1.7-1.58V27.9A1.72,1.72,0,0,0,354.63,26.32Zm-.45,2.15V44.69h-24V28.47l24-.06Z" fill="#3e3e3e"/>
      <polygon points="354.12 28.47 354.12 44.74 330.21 44.74 330.21 28.47 354.18 28.47 354.12 28.47" fill="#00bbf1"/>
      <path d="M330.21,44.74h0V28.47h21.88l2.54-2.15h-25a1.56,1.56,0,0,0-1.52,1.58V45.31a1.56,1.56,0,0,0,1.52,1.58h.62l2.6-2.15Z" fill="#7a7a7a"/>
      <polygon points="330.21 44.74 330.21 44.74 330.21 28.47 352.09 28.47 352.09 28.47 330.21 28.47 330.21 44.74" fill="#59b4d9"/>
      <rect x="332.98" y="50.62" width="18.48" height="1.7" fill="#b0b0b0"/>
      <circle cx="342.08" cy="27.51" r="0.4" fill="#bac84a"/>
      <path d="M342.2,36.32h-.06l-5-2.88c-.06,0-.06-.06-.06-.11a.21.21,0,0,1,.06-.12l4.91-2.82h.17l5,2.88s0,.06,0,.11,0,.12,0,.12l-4.92,2.82Z" fill="#fff" opacity="0.9" style="isolation: isolate"/>
      <path d="M341.46,43.27h0l-5-2.82c-.06,0-.06-.06-.06-.11V34.57c0-.06,0-.11.06-.11h.17l5,2.82c.06,0,.06.06.06.12v5.71a.21.21,0,0,1-.06.11C341.52,43.27,341.52,43.27,341.46,43.27Z" fill="#fff" opacity="0.8" style="isolation: isolate"/>
      <path d="M342.87,43.27h-.05c-.06,0-.06-.05-.06-.11V37.45a.21.21,0,0,1,.06-.11l5-2.83H348c.06,0,.06.06.06.12v5.71a.21.21,0,0,1-.06.11l-5,2.82Z" fill="#fff" opacity="0.5" style="isolation: isolate"/>
    </g>
    <g>
      <path d="M68,187.13v23.21c0,2.39,5.35,4.4,12,4.4V187.13Z" fill="#0078d4"/>
      <path d="M79.89,214.74h.19c6.65,0,12-1.94,12-4.4V187.13H79.89Z" fill="#0072c5"/>
      <path d="M79.76,214.74H80c6.71,0,12.19-1.94,12.19-4.4V187.07H79.82Z" fill="#0078d4"/>
      <path d="M92.08,187.13c0,2.4-5.36,4.4-12,4.4s-12-1.94-12-4.4,5.35-4.39,12-4.39S92.08,184.74,92.08,187.13Z" fill="#fff"/>
      <path d="M89.63,186.87c0,1.62-4.26,2.91-9.55,2.91s-9.55-1.29-9.55-2.91,4.26-2.9,9.55-2.9S89.63,185.26,89.63,186.87Z" fill="#50e6ff"/>
      <path d="M87.63,188.62c1.22-.52,2-1.1,2-1.75,0-1.61-4.26-2.9-9.55-2.9s-9.55,1.29-9.55,2.9c0,.65.78,1.3,2,1.75a21.72,21.72,0,0,1,7.55-1.1A23.24,23.24,0,0,1,87.63,188.62Z" fill="#50e6ff"/>
      <g>
        <path d="M76.21,203.23a2,2,0,0,1-.78,1.68,3.51,3.51,0,0,1-2.19.58,3.59,3.59,0,0,1-1.93-.45v-1.68a3,3,0,0,0,2,.77,1.57,1.57,0,0,0,.83-.19.78.78,0,0,0,0-1.16,4.1,4.1,0,0,0-1.16-.65,2.47,2.47,0,0,1-1.74-2.2,1.86,1.86,0,0,1,.78-1.61,3.18,3.18,0,0,1,2-.65,5.55,5.55,0,0,1,1.88.32v1.62a3.3,3.3,0,0,0-1.75-.52,1.35,1.35,0,0,0-.77.2.78.78,0,0,0,0,1.16,4.49,4.49,0,0,0,1,.58,4.3,4.3,0,0,1,1.55,1A1.91,1.91,0,0,1,76.21,203.23Z" fill="#fff"/>
        <path d="M82.6,201.61a3.06,3.06,0,0,0-.52-1.81,1.53,1.53,0,0,0-1.35-.64,1.65,1.65,0,0,0-1.42.64,2.64,2.64,0,0,0-.52,1.81,3.1,3.1,0,0,0,.52,1.81,1.63,1.63,0,0,0,1.42.65,1.7,1.7,0,0,0,1.41-.65A3.52,3.52,0,0,0,82.6,201.61Zm1.8-.06a4.45,4.45,0,0,1-.58,2.33,3.09,3.09,0,0,1-1.74,1.35l2.19,2.07H82.08l-1.55-1.74a3.47,3.47,0,0,1-1.8-.52,3.12,3.12,0,0,1-1.23-1.36,3.94,3.94,0,0,1-.45-1.94,4.74,4.74,0,0,1,.45-2.13,3.15,3.15,0,0,1,1.35-1.42,3.94,3.94,0,0,1,2-.52,3.56,3.56,0,0,1,1.88.45A3.38,3.38,0,0,1,84,199.48,5.53,5.53,0,0,1,84.4,201.55Z" fill="#fff"/>
        <path d="M90.21,205.36H85.63V197.8h1.74V204h2.84Z" fill="#fff"/>
      </g>
    </g>
    <g>
      <path d="M135,187.13v23.21c0,2.39,5.35,4.4,12,4.4V187.13Z" fill="#0078d4"/>
      <path d="M146.87,214.74h.19c6.65,0,12-1.94,12-4.4V187.13H146.87Z" fill="#0072c5"/>
      <path d="M146.74,214.74h.19c6.71,0,12.2-1.94,12.2-4.4V187.07H146.81Z" fill="#0078d4"/>
      <path d="M159.06,187.13c0,2.4-5.35,4.4-12,4.4s-12-1.94-12-4.4,5.36-4.39,12-4.39S159.06,184.74,159.06,187.13Z" fill="#fff"/>
      <path d="M156.61,186.87c0,1.62-4.26,2.91-9.55,2.91s-9.54-1.29-9.54-2.91,4.25-2.9,9.54-2.9S156.61,185.26,156.61,186.87Z" fill="#50e6ff"/>
      <path d="M154.61,188.62c1.23-.52,2-1.1,2-1.75,0-1.61-4.26-2.9-9.55-2.9s-9.54,1.29-9.54,2.9c0,.65.77,1.3,2,1.75a21.66,21.66,0,0,1,7.54-1.1A23.2,23.2,0,0,1,154.61,188.62Z" fill="#50e6ff"/>
      <g>
        <path d="M143.19,203.23a2,2,0,0,1-.77,1.68,3.56,3.56,0,0,1-2.2.58,3.61,3.61,0,0,1-1.93-.45v-1.68a3,3,0,0,0,2,.77,1.63,1.63,0,0,0,.84-.19.78.78,0,0,0,0-1.16,4.26,4.26,0,0,0-1.16-.65,2.48,2.48,0,0,1-1.75-2.2,1.86,1.86,0,0,1,.78-1.61,3.21,3.21,0,0,1,2-.65,5.49,5.49,0,0,1,1.87.32v1.62a3.29,3.29,0,0,0-1.74-.52,1.41,1.41,0,0,0-.78.2.8.8,0,0,0,0,1.16,4.77,4.77,0,0,0,1,.58,4.21,4.21,0,0,1,1.55,1A1.91,1.91,0,0,1,143.19,203.23Z" fill="#fff"/>
        <path d="M149.58,201.61a3,3,0,0,0-.52-1.81,1.53,1.53,0,0,0-1.35-.64,1.66,1.66,0,0,0-1.42.64,2.64,2.64,0,0,0-.52,1.81,3.18,3.18,0,0,0,.52,1.81,1.64,1.64,0,0,0,1.42.65,1.73,1.73,0,0,0,1.42-.65A3.52,3.52,0,0,0,149.58,201.61Zm1.81-.06a4.55,4.55,0,0,1-.58,2.33,3.08,3.08,0,0,1-1.75,1.35l2.2,2.07h-2.2l-1.54-1.74a3.51,3.51,0,0,1-1.81-.52,3.12,3.12,0,0,1-1.23-1.36,3.94,3.94,0,0,1-.45-1.94,4.74,4.74,0,0,1,.45-2.13,3.23,3.23,0,0,1,1.36-1.42,3.91,3.91,0,0,1,2-.52,3.53,3.53,0,0,1,1.87.45,3.31,3.31,0,0,1,1.29,1.36A5.34,5.34,0,0,1,151.39,201.55Z" fill="#fff"/>
        <path d="M157.19,205.36h-4.58V197.8h1.74V204h2.84Z" fill="#fff"/>
      </g>
    </g>
    <g>
      <path d="M306.18,24.65h0V23.06a11.79,11.79,0,0,0-3.16-8.2c-1.88-2.16-6-3.53-9.15-3.53s-7.27,1.37-9.14,3.53a12.07,12.07,0,0,0-3.17,8.2v1.59h0l5.69.65V23.86A9.2,9.2,0,0,1,289,18.38c1.08-1.22,3.38-1.8,4.89-1.87a7.33,7.33,0,0,1,4.9,1.87A6.89,6.89,0,0,1,300.5,23V25.3Z" fill="#a0a1a2"/>
      <path d="M281.56,24.65h0c-2.81,0-3.82,1.65-3.82,3.81v15c0,1.87,1.16,3.82,3.32,3.82h25.63c2.45,0,3.31-1.95,3.31-3.82v-15c0-1.94-.79-3.81-3.82-3.81H281.56Z" fill="#59b4d9"/>
      <path d="M300.42,24.65H281.56c-2.81,0-3.82,1.65-3.82,3.81v15c0,1.87,1.16,3.82,3.32,3.82h4.82Z" fill="#fff" opacity="0.15" style="isolation: isolate"/>
      <path d="M289.55,30.84l4.18-4.18,4.17,4.18H295v3h-2.52v-3Zm-7.7,6.34V34.73h4.32V31.85l4,4-4,4V37.1h-4.32Zm11.88,8.13-4.25-4.25h2.95v-3H295v3h3Zm11.88-8.13h-4.32v2.88L297.18,36l4.11-4.1v2.88h4.32Z" fill="#fff"/>
    </g>
    <g>
      <rect x="102.21" y="92.42" width="22.55" height="22.55" transform="translate(106.56 -49.87) rotate(45)" fill="#fff"/>
      <path d="M129.92,100.91,115.34,86.32a3.32,3.32,0,0,0-4.75,0L96,100.91a3.29,3.29,0,0,0,0,4.74l14.65,14.66a3.26,3.26,0,0,0,2.38,1,3.38,3.38,0,0,0,2.37-1l14.66-14.66a3.26,3.26,0,0,0,1-2.37A4.3,4.3,0,0,0,129.92,100.91ZM113,88.77l4.75,4.74H114.4v6.9h-2.8v-6.9h-3.38ZM99.6,105V102.2h6.47V98.83l4.74,4.74-4.74,4.74V105ZM113,118.37l-4.74-4.74h3.31v-6.75h2.8v6.75h3.38ZM126.33,105h-6.4v3.37l-4.74-4.74,4.74-4.74v3.3h6.4Z" fill="#0072c6"/>
    </g>
    <g>
      <path d="M113,75.94V41.32a5,5,0,0,1,5-5H269.62" fill="none" stroke="#000" stroke-miterlimit="10"/>
      <polygon points="116.74 74.84 113 81.32 109.26 74.84 116.74 74.84"/>
      <polygon points="268.52 40.06 275 36.32 268.52 32.58 268.52 40.06"/>
    </g>
    <use width="50.08" height="28.71" transform="translate(307.32 80.28) scale(0.52)" xlink:href="#IZ_VirtualNetwork"/>
  </g>
  <g id="Text">
    <g>
      <path d="M36.21,246.06a3.92,3.92,0,0,1-2.94-1.17,4.23,4.23,0,0,1-1.14-3.06,4.54,4.54,0,0,1,1.16-3.23,4,4,0,0,1,3.06-1.23,3.83,3.83,0,0,1,2.91,1.18,4.35,4.35,0,0,1,1.11,3.11,4.44,4.44,0,0,1-1.16,3.19A3.92,3.92,0,0,1,36.21,246.06Zm.08-7.06a1.9,1.9,0,0,0-1.58.75,3.13,3.13,0,0,0-.58,2,3,3,0,0,0,.58,2,1.86,1.86,0,0,0,1.54.73,1.9,1.9,0,0,0,1.55-.71,3,3,0,0,0,.57-2,3.27,3.27,0,0,0-.55-2A1.81,1.81,0,0,0,36.29,239Z" fill="#1e1e1e"/>
      <path d="M47.43,245.92H45.58v-3.34c0-.93-.33-1.39-1-1.39a1,1,0,0,0-.79.37,1.43,1.43,0,0,0-.31.93v3.43H41.63v-6h1.85v1h0a2.1,2.1,0,0,1,1.92-1.1c1.33,0,2,.82,2,2.47Z" fill="#1e1e1e"/>
      <path d="M52.07,243.36h-3.2v-1.29h3.2Z" fill="#1e1e1e"/>
      <path d="M55.42,245.22h0v3.46H53.55v-8.76H55.4v.9h0a2.36,2.36,0,0,1,3.73-.25,3.37,3.37,0,0,1,.64,2.18,3.68,3.68,0,0,1-.74,2.4,2.41,2.41,0,0,1-2,.91A1.88,1.88,0,0,1,55.42,245.22Zm-.05-2.46v.48a1.52,1.52,0,0,0,.33,1,1.08,1.08,0,0,0,.86.39,1.14,1.14,0,0,0,1-.48,2.4,2.4,0,0,0,.35-1.39c0-1.06-.41-1.58-1.23-1.58a1.15,1.15,0,0,0-.93.43A1.73,1.73,0,0,0,55.37,242.76Z" fill="#1e1e1e"/>
      <path d="M64.93,241.59a1.55,1.55,0,0,0-.78-.19,1.14,1.14,0,0,0-1,.45,1.94,1.94,0,0,0-.34,1.2v2.87H61v-6h1.85V241h0a1.6,1.6,0,0,1,1.58-1.22,1.14,1.14,0,0,1,.46.07Z" fill="#1e1e1e"/>
      <path d="M71.25,243.44H67.34c.06.87.61,1.31,1.65,1.31a3.24,3.24,0,0,0,1.74-.47v1.34a4.68,4.68,0,0,1-2.16.44,3.07,3.07,0,0,1-2.26-.8,3,3,0,0,1-.8-2.25,3.24,3.24,0,0,1,.86-2.37,2.9,2.9,0,0,1,2.14-.87,2.63,2.63,0,0,1,2,.78,3,3,0,0,1,.71,2.11Zm-1.71-1.13c0-.86-.35-1.29-1-1.29a1,1,0,0,0-.78.37,1.71,1.71,0,0,0-.39.92Z" fill="#1e1e1e"/>
      <path d="M82,245.92H80.11v-3.43c0-.87-.32-1.3-1-1.3a.88.88,0,0,0-.74.39,1.63,1.63,0,0,0-.29,1v3.36H76.27v-3.46c0-.85-.31-1.27-.94-1.27a.9.9,0,0,0-.76.37,1.65,1.65,0,0,0-.29,1v3.34H72.43v-6h1.85v.93h0a2.22,2.22,0,0,1,.8-.78,2.26,2.26,0,0,1,1.14-.3A1.74,1.74,0,0,1,78,240.89a2.2,2.2,0,0,1,2-1.12c1.31,0,2,.8,2,2.41Z" fill="#1e1e1e"/>
      <path d="M84.34,239a1.08,1.08,0,0,1-.76-.28.9.9,0,0,1-.3-.68.85.85,0,0,1,.3-.68,1.22,1.22,0,0,1,1.53,0,.85.85,0,0,1,.3.68.89.89,0,0,1-.3.69A1.08,1.08,0,0,1,84.34,239Zm.92,6.95H83.41v-6h1.85Z" fill="#1e1e1e"/>
      <path d="M86.5,245.76v-1.5a4.27,4.27,0,0,0,.91.41,3,3,0,0,0,.86.13,1.86,1.86,0,0,0,.78-.13.43.43,0,0,0,.28-.41.38.38,0,0,0-.13-.3,1.25,1.25,0,0,0-.33-.2,3.72,3.72,0,0,0-.44-.16c-.16,0-.32-.1-.46-.16a3.71,3.71,0,0,1-.63-.29,1.54,1.54,0,0,1-.46-.36,1.31,1.31,0,0,1-.28-.47,1.76,1.76,0,0,1-.1-.64,1.61,1.61,0,0,1,.22-.87,1.75,1.75,0,0,1,.59-.59,2.46,2.46,0,0,1,.83-.34,4.62,4.62,0,0,1,1-.11,5.49,5.49,0,0,1,.8.06,5.3,5.3,0,0,1,.81.18v1.43a2.76,2.76,0,0,0-.75-.31,3.11,3.11,0,0,0-.79-.1,1.87,1.87,0,0,0-.34,0,.91.91,0,0,0-.29.1.58.58,0,0,0-.19.15.36.36,0,0,0-.07.22.39.39,0,0,0,.11.28,1,1,0,0,0,.27.21l.38.15.41.14a4.66,4.66,0,0,1,.67.28,1.94,1.94,0,0,1,.51.36,1.15,1.15,0,0,1,.33.48,1.6,1.6,0,0,1,.12.65,1.65,1.65,0,0,1-.24.91,1.73,1.73,0,0,1-.61.62,2.7,2.7,0,0,1-.89.34,4.42,4.42,0,0,1-1,.11A5.4,5.4,0,0,1,86.5,245.76Z" fill="#1e1e1e"/>
      <path d="M97.61,243.44H93.69c.07.87.62,1.31,1.65,1.31a3.24,3.24,0,0,0,1.74-.47v1.34a4.63,4.63,0,0,1-2.16.44A2.78,2.78,0,0,1,91.86,243a3.2,3.2,0,0,1,.87-2.37,2.9,2.9,0,0,1,2.13-.87,2.62,2.62,0,0,1,2,.78,3,3,0,0,1,.72,2.11Zm-1.72-1.13c0-.86-.35-1.29-1-1.29a1,1,0,0,0-.77.37,1.65,1.65,0,0,0-.4.92Z" fill="#1e1e1e"/>
      <path d="M98.46,245.76v-1.5a4.13,4.13,0,0,0,.92.41,2.93,2.93,0,0,0,.85.13,1.86,1.86,0,0,0,.78-.13.43.43,0,0,0,.28-.41.41.41,0,0,0-.12-.3,1.53,1.53,0,0,0-.34-.2,3.72,3.72,0,0,0-.44-.16l-.46-.16a3.71,3.71,0,0,1-.63-.29,1.67,1.67,0,0,1-.46-.36,1.47,1.47,0,0,1-.28-.47,2,2,0,0,1-.1-.64,1.7,1.7,0,0,1,.22-.87,1.85,1.85,0,0,1,.59-.59,2.43,2.43,0,0,1,.84-.34,4.46,4.46,0,0,1,1-.11,5.73,5.73,0,0,1,.81.06,5.88,5.88,0,0,1,.81.18v1.43a3,3,0,0,0-.76-.31,3,3,0,0,0-.78-.1,1.9,1.9,0,0,0-.35,0,.77.77,0,0,0-.28.1.62.62,0,0,0-.2.15.44.44,0,0,0-.07.22.39.39,0,0,0,.11.28.89.89,0,0,0,.28.21l.37.15.42.14a4.52,4.52,0,0,1,.66.28,2.18,2.18,0,0,1,.52.36,1.37,1.37,0,0,1,.33.48,1.8,1.8,0,0,1,.11.65,1.73,1.73,0,0,1-.23.91,1.84,1.84,0,0,1-.62.62,2.65,2.65,0,0,1-.88.34,4.48,4.48,0,0,1-1,.11A5.5,5.5,0,0,1,98.46,245.76Z" fill="#1e1e1e"/>
      <path d="M36.39,256a1.61,1.61,0,0,0-.78-.19,1.12,1.12,0,0,0-.94.45,1.88,1.88,0,0,0-.34,1.2v2.87H32.48v-6h1.85v1.11h0a1.61,1.61,0,0,1,1.59-1.22,1.12,1.12,0,0,1,.45.07Z" fill="#1e1e1e"/>
      <path d="M42.72,257.84H38.81c.06.87.61,1.31,1.64,1.31a3.24,3.24,0,0,0,1.74-.47V260a4.63,4.63,0,0,1-2.16.44,2.79,2.79,0,0,1-3.06-3,3.22,3.22,0,0,1,.87-2.37,2.9,2.9,0,0,1,2.13-.87,2.62,2.62,0,0,1,2,.78,3,3,0,0,1,.72,2.11ZM41,256.71c0-.86-.34-1.29-1-1.29a1,1,0,0,0-.77.37,1.58,1.58,0,0,0-.39.92Z" fill="#1e1e1e"/>
      <path d="M43.58,260.16v-1.5a4.06,4.06,0,0,0,.91.41,3,3,0,0,0,.86.13,1.84,1.84,0,0,0,.77-.13.44.44,0,0,0,.29-.41.38.38,0,0,0-.13-.29,1.33,1.33,0,0,0-.33-.21,4.72,4.72,0,0,0-.45-.16,3.57,3.57,0,0,1-.46-.16,3.71,3.71,0,0,1-.63-.29,1.84,1.84,0,0,1-.46-.36,1.47,1.47,0,0,1-.28-.47,2,2,0,0,1-.09-.64,1.63,1.63,0,0,1,.22-.87,1.72,1.72,0,0,1,.58-.59,2.6,2.6,0,0,1,.84-.34,4.46,4.46,0,0,1,1-.11,5.52,5.52,0,0,1,.81.06,5.88,5.88,0,0,1,.81.18v1.43a3,3,0,0,0-.75-.31,3.11,3.11,0,0,0-.79-.1,1.79,1.79,0,0,0-.34,0,.83.83,0,0,0-.29.1.49.49,0,0,0-.19.15.36.36,0,0,0-.07.22.39.39,0,0,0,.1.28.89.89,0,0,0,.28.21l.38.15.41.14a4.66,4.66,0,0,1,.67.28,1.94,1.94,0,0,1,.51.36,1.37,1.37,0,0,1,.33.48,1.8,1.8,0,0,1,.11.65,1.73,1.73,0,0,1-.23.91,1.81,1.81,0,0,1-.61.62,2.79,2.79,0,0,1-.89.34,4.42,4.42,0,0,1-1,.11A5.4,5.4,0,0,1,43.58,260.16Z" fill="#1e1e1e"/>
      <path d="M52.15,260.46a3.23,3.23,0,0,1-2.36-.84,3.47,3.47,0,0,1,0-4.61,3.38,3.38,0,0,1,2.41-.84,3.16,3.16,0,0,1,2.34.84,3,3,0,0,1,.85,2.22,3.2,3.2,0,0,1-.87,2.37A3.31,3.31,0,0,1,52.15,260.46Zm.05-4.87a1.23,1.23,0,0,0-1,.45,2,2,0,0,0-.37,1.28c0,1.15.47,1.72,1.4,1.72s1.33-.59,1.33-1.77S53.09,255.59,52.2,255.59Z" fill="#1e1e1e"/>
      <path d="M62.32,260.32H60.47v-.92h0a2.07,2.07,0,0,1-1.83,1.06c-1.39,0-2.09-.84-2.09-2.52v-3.62h1.85v3.45c0,.85.34,1.27,1,1.27a1,1,0,0,0,.79-.34,1.42,1.42,0,0,0,.3-.95v-3.43h1.85Z" fill="#1e1e1e"/>
      <path d="M67.76,256a1.61,1.61,0,0,0-.78-.19,1.1,1.1,0,0,0-.94.45,1.88,1.88,0,0,0-.34,1.2v2.87H63.85v-6H65.7v1.11h0a1.6,1.6,0,0,1,1.58-1.22,1.14,1.14,0,0,1,.46.07Z" fill="#1e1e1e"/>
      <path d="M73.23,260.1a3.69,3.69,0,0,1-1.81.36,3.1,3.1,0,0,1-2.24-.83,2.9,2.9,0,0,1-.85-2.17,3.19,3.19,0,0,1,.91-2.41,3.39,3.39,0,0,1,2.46-.88,3.12,3.12,0,0,1,1.53.28V256a2.11,2.11,0,0,0-1.29-.43,1.71,1.71,0,0,0-1.27.46,2,2,0,0,0,0,2.54,1.66,1.66,0,0,0,1.23.45,2.42,2.42,0,0,0,1.35-.43Z" fill="#1e1e1e"/>
      <path d="M79.85,257.84H75.94c.06.87.61,1.31,1.65,1.31a3.24,3.24,0,0,0,1.74-.47V260a4.7,4.7,0,0,1-2.17.44,2.78,2.78,0,0,1-3-3A3.25,3.25,0,0,1,75,255a2.9,2.9,0,0,1,2.14-.87,2.63,2.63,0,0,1,2,.78,3,3,0,0,1,.71,2.11Zm-1.71-1.13q0-1.29-1-1.29a1,1,0,0,0-.77.37,1.71,1.71,0,0,0-.39.92Z" fill="#1e1e1e"/>
      <path d="M80.71,260.16v-1.5a4.06,4.06,0,0,0,.91.41,3,3,0,0,0,.86.13,1.86,1.86,0,0,0,.78-.13.45.45,0,0,0,.28-.41.35.35,0,0,0-.13-.29,1.33,1.33,0,0,0-.33-.21l-.44-.16a3.71,3.71,0,0,1-.47-.16,4.6,4.6,0,0,1-.63-.29,1.62,1.62,0,0,1-.45-.36,1.18,1.18,0,0,1-.28-.47,1.76,1.76,0,0,1-.1-.64,1.63,1.63,0,0,1,.22-.87,1.75,1.75,0,0,1,.59-.59,2.46,2.46,0,0,1,.83-.34,4.53,4.53,0,0,1,1-.11,5.52,5.52,0,0,1,.81.06,5.3,5.3,0,0,1,.81.18v1.43a2.76,2.76,0,0,0-.75-.31,3.11,3.11,0,0,0-.79-.1,1.87,1.87,0,0,0-.34,0,.91.91,0,0,0-.29.1.58.58,0,0,0-.19.15.36.36,0,0,0-.07.22.39.39,0,0,0,.11.28,1,1,0,0,0,.27.21l.38.15.41.14a4.66,4.66,0,0,1,.67.28,1.94,1.94,0,0,1,.51.36,1.25,1.25,0,0,1,.33.48,1.61,1.61,0,0,1,.11.65,1.64,1.64,0,0,1-.23.91,1.81,1.81,0,0,1-.61.62,2.7,2.7,0,0,1-.89.34,4.42,4.42,0,0,1-1,.11A5.4,5.4,0,0,1,80.71,260.16Z" fill="#1e1e1e"/>
    </g>
    <g>
      <path d="M318.35,110.31h-2.06l-.6-1.87h-3l-.59,1.87h-2.05l3.06-8.4h2.24ZM315.26,107l-.91-2.83a4.38,4.38,0,0,1-.14-.75h0a3.16,3.16,0,0,1-.15.73l-.91,2.85Z" fill="#1e1e1e"/>
      <path d="M324.28,110.31h-5.39v-.77l3-3.86h-2.71v-1.37h5.06v.91l-2.85,3.72h2.88Z" fill="#1e1e1e"/>
      <path d="M331,110.31H329.2v-.91h0a2.12,2.12,0,0,1-1.84,1.06c-1.39,0-2.08-.85-2.08-2.53v-3.62h1.84v3.46c0,.84.34,1.27,1,1.27a1,1,0,0,0,.8-.35,1.41,1.41,0,0,0,.3-1v-3.43H331Z" fill="#1e1e1e"/>
      <path d="M336.48,106a1.61,1.61,0,0,0-.78-.18,1.14,1.14,0,0,0-.94.44,1.92,1.92,0,0,0-.34,1.2v2.87h-1.85v-6h1.85v1.11h0A1.61,1.61,0,0,1,336,104.2a1.35,1.35,0,0,1,.46.07Z" fill="#1e1e1e"/>
      <path d="M342.81,107.84H338.9c.06.87.61,1.3,1.64,1.3a3.23,3.23,0,0,0,1.74-.46V110a4.5,4.5,0,0,1-2.16.45,2.8,2.8,0,0,1-3.06-3.06,3.19,3.19,0,0,1,.87-2.36,2.87,2.87,0,0,1,2.13-.88,2.62,2.62,0,0,1,2,.78,3,3,0,0,1,.72,2.12Zm-1.72-1.14c0-.86-.34-1.29-1-1.29a1,1,0,0,0-.77.37,1.68,1.68,0,0,0-.4.92Z" fill="#1e1e1e"/>
      <path d="M352.93,104.31l-2.23,6h-2.11l-2.12-6h2l1,3.7a5.19,5.19,0,0,1,.2,1.06h0a7.23,7.23,0,0,1,.21-1l1.07-3.73Z" fill="#1e1e1e"/>
      <path d="M354.7,103.36a1.06,1.06,0,0,1-.77-.28.88.88,0,0,1-.3-.68.87.87,0,0,1,.3-.68,1.09,1.09,0,0,1,.77-.26,1.11,1.11,0,0,1,.77.26.89.89,0,0,1,.29.68.91.91,0,0,1-.29.69A1.11,1.11,0,0,1,354.7,103.36Zm.91,7h-1.85v-6h1.85Z" fill="#1e1e1e"/>
      <path d="M361.06,106a1.61,1.61,0,0,0-.78-.18,1.14,1.14,0,0,0-.94.44,1.92,1.92,0,0,0-.34,1.2v2.87h-1.85v-6H359v1.11h0a1.61,1.61,0,0,1,1.58-1.22,1.35,1.35,0,0,1,.46.07Z" fill="#1e1e1e"/>
      <path d="M365.81,110.24a2.75,2.75,0,0,1-1.23.22c-1.31,0-2-.68-2-2v-2.74h-1v-1.37h1V103l1.84-.53v1.82h1.35v1.37h-1.35v2.42c0,.63.25.94.75.94a1.31,1.31,0,0,0,.6-.17Z" fill="#1e1e1e"/>
      <path d="M372.65,110.31H370.8v-.91h0a2.1,2.1,0,0,1-1.83,1.06c-1.39,0-2.09-.85-2.09-2.53v-3.62h1.85v3.46c0,.84.33,1.27,1,1.27a1,1,0,0,0,.79-.35,1.41,1.41,0,0,0,.3-1v-3.43h1.85Z" fill="#1e1e1e"/>
      <path d="M379.21,110.31h-1.75v-.86h0a2,2,0,0,1-1.79,1,1.86,1.86,0,0,1-1.37-.5,1.75,1.75,0,0,1-.5-1.32c0-1.16.69-1.84,2.06-2l1.63-.21c0-.66-.35-1-1.06-1a3.67,3.67,0,0,0-2,.64v-1.39a4.22,4.22,0,0,1,1.06-.35,5.05,5.05,0,0,1,1.22-.16,2.26,2.26,0,0,1,2.56,2.56Zm-1.74-2.44v-.4l-1.09.14q-.9.12-.9.81a.66.66,0,0,0,.22.52.84.84,0,0,0,.6.2,1.11,1.11,0,0,0,.85-.36A1.33,1.33,0,0,0,377.47,107.87Z" fill="#1e1e1e"/>
      <path d="M382.53,110.31h-1.85v-8.88h1.85Z" fill="#1e1e1e"/>
      <path d="M316.57,124.71h-1.84v-3.33c0-.93-.33-1.4-1-1.4a1,1,0,0,0-.79.37,1.4,1.4,0,0,0-.31.94v3.42h-1.85v-6h1.85v1h0a2.14,2.14,0,0,1,1.93-1.1c1.33,0,2,.83,2,2.48Z" fill="#1e1e1e"/>
      <path d="M323.46,122.24h-3.92c.07.87.62,1.3,1.65,1.3a3.23,3.23,0,0,0,1.74-.46v1.33a4.5,4.5,0,0,1-2.16.45,2.8,2.8,0,0,1-3.06-3.06,3.19,3.19,0,0,1,.87-2.36,2.87,2.87,0,0,1,2.13-.88,2.62,2.62,0,0,1,2,.78,3,3,0,0,1,.72,2.12Zm-1.72-1.14c0-.86-.35-1.29-1-1.29a1,1,0,0,0-.77.37,1.68,1.68,0,0,0-.4.92Z" fill="#1e1e1e"/>
      <path d="M328.24,124.64a2.83,2.83,0,0,1-1.24.22c-1.3,0-2-.68-2-2v-2.74h-1v-1.37h1v-1.29l1.85-.53v1.82h1.35v1.37h-1.35v2.42c0,.63.25.94.74.94a1.31,1.31,0,0,0,.61-.17Z" fill="#1e1e1e"/>
      <path d="M338.22,118.71l-1.73,6h-1.95l-.88-3.52a3.58,3.58,0,0,1-.1-.76h0a5,5,0,0,1-.12.74l-1,3.54h-1.92l-1.7-6h1.89l.83,3.91a4,4,0,0,1,.08.67h0a3.11,3.11,0,0,1,.11-.69l1-3.89h1.76l.93,3.91c0,.1.05.33.08.68h0c0-.22.05-.45.09-.68l.78-3.91Z" fill="#1e1e1e"/>
      <path d="M341.82,124.86a3.24,3.24,0,0,1-2.36-.84,3.07,3.07,0,0,1-.85-2.29,3,3,0,0,1,.89-2.33,3.35,3.35,0,0,1,2.41-.84,3.19,3.19,0,0,1,2.34.84,3,3,0,0,1,.85,2.23,3.16,3.16,0,0,1-.88,2.36A3.24,3.24,0,0,1,341.82,124.86Zm.05-4.88a1.23,1.23,0,0,0-1,.45,2,2,0,0,0-.36,1.28c0,1.15.46,1.73,1.39,1.73s1.33-.59,1.33-1.78S342.76,120,341.87,120Z" fill="#1e1e1e"/>
      <path d="M350.21,120.38a1.66,1.66,0,0,0-.78-.18,1.14,1.14,0,0,0-.95.44,2,2,0,0,0-.34,1.2v2.87h-1.85v-6h1.85v1.11h0a1.6,1.6,0,0,1,1.58-1.22,1.39,1.39,0,0,1,.46.07Z" fill="#1e1e1e"/>
      <path d="M357.08,124.71h-2.22l-1.92-3h0v3h-1.85v-8.88h1.85v5.65h0l1.79-2.77h2.2l-2.15,2.82Z" fill="#1e1e1e"/>
    </g>
    <g>
      <path d="M110.43,165.9l-3.11,8.4h-1.08l-3-8.4h1.1l2.32,6.66a3.62,3.62,0,0,1,.17.75h0a3.38,3.38,0,0,1,.19-.76l2.37-6.65Z" fill="#1e1e1e"/>
      <path d="M120.21,174.3h-1v-5.64c0-.44,0-1,.08-1.63h0a6.37,6.37,0,0,1-.25.81l-2.88,6.46h-.48l-2.86-6.41a4.68,4.68,0,0,1-.25-.86h0c0,.34,0,.88,0,1.65v5.62h-1v-8.4h1.3l2.58,5.86a7.38,7.38,0,0,1,.39,1h0c.17-.46.3-.81.41-1L119,165.9h1.23Z" fill="#1e1e1e"/>
    </g>
    <g>
      <path d="M175.27,165.9l-3.11,8.4h-1.08L168,165.9h1.09l2.33,6.66a4.4,4.4,0,0,1,.17.75h0a4.09,4.09,0,0,1,.2-.76l2.37-6.65Z" fill="#1e1e1e"/>
      <path d="M185,174.3h-1v-5.64c0-.44,0-1,.08-1.63h0a4.19,4.19,0,0,1-.25.81L181,174.3h-.48l-2.86-6.41a4.54,4.54,0,0,1-.26-.86h0c0,.34.05.88.05,1.65v5.62h-1v-8.4h1.3l2.58,5.86a6,6,0,0,1,.38,1h0c.17-.46.3-.81.4-1l2.63-5.83H185Z" fill="#1e1e1e"/>
    </g>
    <g>
      <path d="M46.06,165.9,43,174.3H41.87l-3-8.4h1.1l2.32,6.66a3.07,3.07,0,0,1,.17.75h0a3.38,3.38,0,0,1,.19-.76L45,165.9Z" fill="#1e1e1e"/>
      <path d="M55.84,174.3h-1v-5.64c0-.44,0-1,.08-1.63h0a6.37,6.37,0,0,1-.25.81l-2.88,6.46h-.48l-2.86-6.41a4.68,4.68,0,0,1-.25-.86h0a16.5,16.5,0,0,1,0,1.65v5.62h-.95v-8.4h1.3l2.58,5.86a7.38,7.38,0,0,1,.39,1h0c.17-.46.31-.81.41-1l2.63-5.83h1.23Z" fill="#1e1e1e"/>
    </g>
    <g>
      <path d="M382.19,60l-3.11,8.41H378L375,60H376l2.33,6.67a4.27,4.27,0,0,1,.17.74h0a3.36,3.36,0,0,1,.2-.75L381.13,60Z" fill="#1e1e1e"/>
      <path d="M392,68.39h-1V62.75c0-.44,0-1,.08-1.63h0a4.44,4.44,0,0,1-.25.81l-2.87,6.46h-.48L384.58,62a4.79,4.79,0,0,1-.26-.86h0c0,.33.05.88.05,1.64v5.63h-1V60h1.3l2.58,5.86a7.5,7.5,0,0,1,.38,1h0c.17-.46.3-.8.4-1L390.73,60H392Z" fill="#1e1e1e"/>
    </g>
    <g>
      <path d="M423.65,60l-3.11,8.41h-1.09l-3-8.41h1.09l2.33,6.67a4.27,4.27,0,0,1,.17.74h0a3.93,3.93,0,0,1,.19-.75L422.59,60Z" fill="#1e1e1e"/>
      <path d="M433.42,68.39h-1V62.75c0-.44,0-1,.08-1.63h0a5.42,5.42,0,0,1-.25.81l-2.87,6.46h-.48L426,62a6,6,0,0,1-.25-.86h0c0,.33,0,.88,0,1.64v5.63h-.95V60h1.31l2.57,5.86a7.92,7.92,0,0,1,.39,1h0c.16-.46.3-.8.4-1L432.19,60h1.23Z" fill="#1e1e1e"/>
    </g>
    <g>
      <path d="M465.1,60,462,68.39h-1.08L457.86,60H459l2.32,6.67a3,3,0,0,1,.17.74h0a3.3,3.3,0,0,1,.19-.75L464,60Z" fill="#1e1e1e"/>
      <path d="M474.88,68.39h-1V62.75c0-.44,0-1,.08-1.63h0a7,7,0,0,1-.25.81l-2.88,6.46h-.48L467.49,62a4.93,4.93,0,0,1-.25-.86h0a16.27,16.27,0,0,1,.05,1.64v5.63h-.95V60h1.3l2.58,5.86a7.92,7.92,0,0,1,.39,1h0c.17-.46.31-.8.41-1L473.65,60h1.23Z" fill="#1e1e1e"/>
    </g>
    <g>
      <path d="M340.73,60l-3.11,8.41h-1.08L333.49,60h1.1l2.32,6.67a3.51,3.51,0,0,1,.17.74h0a3.3,3.3,0,0,1,.19-.75L339.67,60Z" fill="#1e1e1e"/>
      <path d="M350.51,68.39h-1V62.75c0-.44,0-1,.08-1.63h0a5.18,5.18,0,0,1-.26.81l-2.87,6.46H346L343.12,62a4.93,4.93,0,0,1-.25-.86h0c0,.33.05.88.05,1.64v5.63h-.95V60h1.3l2.58,5.86a7.92,7.92,0,0,1,.39,1h0c.17-.46.3-.8.41-1L349.28,60h1.23Z" fill="#1e1e1e"/>
    </g>
    <g>
      <path d="M21.9,95.2H17.54V86.8h1v7.51H21.9Z" fill="#1e1e1e"/>
      <path d="M25.5,95.34a2.76,2.76,0,0,1-2.12-.84,3.11,3.11,0,0,1-.8-2.23,3.25,3.25,0,0,1,.83-2.36,3,3,0,0,1,2.23-.85,2.69,2.69,0,0,1,2.09.83,3.75,3.75,0,0,1-.05,4.59A2.88,2.88,0,0,1,25.5,95.34Zm.07-5.47a1.84,1.84,0,0,0-1.47.63,2.64,2.64,0,0,0-.53,1.74,2.46,2.46,0,0,0,.54,1.68,1.85,1.85,0,0,0,1.46.61,1.75,1.75,0,0,0,1.43-.6,2.58,2.58,0,0,0,.5-1.72,2.61,2.61,0,0,0-.5-1.73A1.73,1.73,0,0,0,25.57,89.87Z" fill="#1e1e1e"/>
      <path d="M34.11,94.93a3.19,3.19,0,0,1-1.64.41,2.75,2.75,0,0,1-2.07-.83,3.06,3.06,0,0,1-.79-2.17A3.35,3.35,0,0,1,30.46,90a3,3,0,0,1,2.27-.9,3.2,3.2,0,0,1,1.39.29v1a2.45,2.45,0,0,0-1.43-.47,1.91,1.91,0,0,0-1.5.66,2.46,2.46,0,0,0-.59,1.73,2.36,2.36,0,0,0,.55,1.66,1.89,1.89,0,0,0,1.49.61A2.38,2.38,0,0,0,34.11,94Z" fill="#1e1e1e"/>
      <path d="M39.9,95.2h-1v-.94h0a2,2,0,0,1-1.85,1.08,2,2,0,0,1-1.4-.47,1.65,1.65,0,0,1-.51-1.26c0-1.12.66-1.78,2-2l1.8-.25q0-1.53-1.23-1.53a3,3,0,0,0-2,.74v-1a3.76,3.76,0,0,1,2-.56c1.41,0,2.11.75,2.11,2.24Zm-1-3-1.45.2a2.25,2.25,0,0,0-1,.33.93.93,0,0,0-.34.84.89.89,0,0,0,.31.71,1.19,1.19,0,0,0,.83.28,1.54,1.54,0,0,0,1.19-.5,1.77,1.77,0,0,0,.46-1.27Z" fill="#1e1e1e"/>
      <path d="M42.61,95.2h-1V86.32h1Z" fill="#1e1e1e"/>
      <path d="M52.82,95.2h-1V91.78c0-1.27-.47-1.91-1.4-1.91a1.5,1.5,0,0,0-1.19.54,2,2,0,0,0-.47,1.37V95.2h-1v-6h1v1h0a2.17,2.17,0,0,1,2-1.14,1.83,1.83,0,0,1,1.51.64,2.85,2.85,0,0,1,.52,1.83Z" fill="#1e1e1e"/>
      <path d="M59.43,92.44H55.19A2.28,2.28,0,0,0,55.73,94a1.88,1.88,0,0,0,1.42.54A2.94,2.94,0,0,0,59,93.87v.9a3.47,3.47,0,0,1-2.09.57,2.54,2.54,0,0,1-2-.82,3.35,3.35,0,0,1-.72-2.3A3.28,3.28,0,0,1,55,89.94a2.54,2.54,0,0,1,2-.88,2.26,2.26,0,0,1,1.83.76,3.19,3.19,0,0,1,.64,2.12Zm-1-.81a2,2,0,0,0-.41-1.3A1.34,1.34,0,0,0,57,89.87a1.54,1.54,0,0,0-1.16.49,2.18,2.18,0,0,0-.58,1.27Z" fill="#1e1e1e"/>
      <path d="M63.66,95.14a1.8,1.8,0,0,1-.9.19c-1,0-1.57-.59-1.57-1.76V90h-1V89.2h1V87.74l1-.31V89.2h1.51V90H62.15V93.4a1.45,1.45,0,0,0,.2.86.81.81,0,0,0,.68.26,1,1,0,0,0,.63-.2Z" fill="#1e1e1e"/>
      <path d="M72.83,89.2l-1.8,6H70L68.8,90.91a2.34,2.34,0,0,1-.09-.56h0a2.44,2.44,0,0,1-.12.54L67.22,95.2h-1l-1.82-6h1l1.24,4.51a2.38,2.38,0,0,1,.08.54h0a2.43,2.43,0,0,1,.11-.55l1.38-4.5h.88l1.24,4.52a3.36,3.36,0,0,1,.09.54h0a2.08,2.08,0,0,1,.1-.54l1.21-4.52Z" fill="#1e1e1e"/>
      <path d="M76.33,95.34a2.79,2.79,0,0,1-2.12-.84,3.1,3.1,0,0,1-.79-2.23,3.24,3.24,0,0,1,.82-2.36,3,3,0,0,1,2.24-.85,2.69,2.69,0,0,1,2.09.83,3.77,3.77,0,0,1-.06,4.59A2.85,2.85,0,0,1,76.33,95.34Zm.08-5.47a1.84,1.84,0,0,0-1.47.63,2.59,2.59,0,0,0-.54,1.74A2.41,2.41,0,0,0,75,93.92a1.85,1.85,0,0,0,1.46.61,1.77,1.77,0,0,0,1.43-.6,2.63,2.63,0,0,0,.5-1.72,2.66,2.66,0,0,0-.5-1.73A1.74,1.74,0,0,0,76.41,89.87Z" fill="#1e1e1e"/>
      <path d="M83.93,90.17a1.14,1.14,0,0,0-.72-.19,1.21,1.21,0,0,0-1,.58,2.64,2.64,0,0,0-.41,1.58V95.2h-1v-6h1v1.24h0a2.09,2.09,0,0,1,.63-1,1.39,1.39,0,0,1,.94-.35,1.44,1.44,0,0,1,.57.08Z" fill="#1e1e1e"/>
      <path d="M90,95.2H88.64L86,92.32h0V95.2H85V86.32h1V92h0l2.52-2.75h1.26L87,92.1Z" fill="#1e1e1e"/>
      <path d="M52.54,109.12c0,2.2-1.06,3.31-3.17,3.31a4.24,4.24,0,0,1-1.94-.43v-1a3.92,3.92,0,0,0,1.93.56c1.48,0,2.22-.78,2.22-2.35v-.66h0a2.42,2.42,0,0,1-3.86.35,3.17,3.17,0,0,1-.68-2.15,3.73,3.73,0,0,1,.73-2.43,2.46,2.46,0,0,1,2-.9,2,2,0,0,1,1.79,1h0v-.83h1Zm-1-2.23V106a1.69,1.69,0,0,0-.49-1.22,1.58,1.58,0,0,0-1.2-.51,1.64,1.64,0,0,0-1.39.65,2.85,2.85,0,0,0-.51,1.81,2.43,2.43,0,0,0,.49,1.6,1.55,1.55,0,0,0,1.28.6,1.68,1.68,0,0,0,1.31-.57A2.12,2.12,0,0,0,51.58,106.89Z" fill="#1e1e1e"/>
      <path d="M58.68,109.6h-1v-.94h0a2,2,0,0,1-1.85,1.08,2,2,0,0,1-1.4-.47,1.65,1.65,0,0,1-.51-1.26c0-1.12.66-1.78,2-2l1.8-.25q0-1.53-1.23-1.53a3,3,0,0,0-2,.74v-1a3.76,3.76,0,0,1,2-.56c1.41,0,2.11.75,2.11,2.24Zm-1-3-1.45.2a2.25,2.25,0,0,0-1,.33.93.93,0,0,0-.34.84.89.89,0,0,0,.31.71,1.2,1.2,0,0,0,.84.28,1.53,1.53,0,0,0,1.18-.5,1.77,1.77,0,0,0,.46-1.27Z" fill="#1e1e1e"/>
      <path d="M63.2,109.54a1.82,1.82,0,0,1-.9.19c-1,0-1.57-.59-1.57-1.76v-3.55h-1v-.82h1v-1.46l1-.31v1.77H63.2v.82H61.69v3.38a1.45,1.45,0,0,0,.2.86.81.81,0,0,0,.68.26,1.05,1.05,0,0,0,.63-.2Z" fill="#1e1e1e"/>
      <path d="M69.2,106.84H65a2.21,2.21,0,0,0,.54,1.55,1.85,1.85,0,0,0,1.41.54,3,3,0,0,0,1.87-.66v.9a3.52,3.52,0,0,1-2.09.57,2.52,2.52,0,0,1-2-.82,3.83,3.83,0,0,1,.06-4.58,2.55,2.55,0,0,1,2-.88,2.25,2.25,0,0,1,1.82.76,3.19,3.19,0,0,1,.64,2.12Zm-1-.81a2,2,0,0,0-.4-1.3,1.37,1.37,0,0,0-1.1-.46,1.56,1.56,0,0,0-1.16.49A2.18,2.18,0,0,0,65,106Z" fill="#1e1e1e"/>
      <path d="M78.19,103.6l-1.8,6h-1l-1.24-4.29a2.34,2.34,0,0,1-.09-.56h0a2.44,2.44,0,0,1-.12.54l-1.34,4.31h-1l-1.82-6h1l1.24,4.51a2.38,2.38,0,0,1,.08.54h.05a3.06,3.06,0,0,1,.1-.55l1.39-4.5h.88l1.24,4.52a3.36,3.36,0,0,1,.09.54h0a2.61,2.61,0,0,1,.1-.54l1.22-4.52Z" fill="#1e1e1e"/>
      <path d="M83.49,109.6h-1v-.94h0a2,2,0,0,1-1.85,1.08,2,2,0,0,1-1.4-.47,1.65,1.65,0,0,1-.51-1.26c0-1.12.66-1.78,2-2l1.8-.25c0-1-.41-1.53-1.24-1.53a3,3,0,0,0-2,.74v-1a3.76,3.76,0,0,1,2-.56c1.41,0,2.11.75,2.11,2.24Zm-1-3-1.45.2a2.25,2.25,0,0,0-1,.33.93.93,0,0,0-.34.84.89.89,0,0,0,.31.71,1.19,1.19,0,0,0,.83.28,1.55,1.55,0,0,0,1.19-.5,1.77,1.77,0,0,0,.46-1.27Z" fill="#1e1e1e"/>
      <path d="M89.94,103.6l-2.76,7c-.49,1.24-1.18,1.87-2.07,1.87a2.25,2.25,0,0,1-.63-.08v-.86a1.8,1.8,0,0,0,.57.1,1.18,1.18,0,0,0,1.09-.86l.48-1.14-2.34-6h1.06L87,108.22c0,.06.07.21.13.46h0q0-.15.12-.45L89,103.6Z" fill="#1e1e1e"/>
    </g>
    <g>
      <path d="M201.35,1.8l-3.11,8.4h-1.08l-3-8.4h1.1l2.32,6.66a3.62,3.62,0,0,1,.17.75h0a3.38,3.38,0,0,1,.19-.76l2.37-6.65Z" fill="#1e1e1e"/>
      <path d="M203,2.68a.6.6,0,0,1-.44-.18.59.59,0,0,1-.18-.44.61.61,0,0,1,.18-.45.6.6,0,0,1,.44-.18.63.63,0,0,1,.45.18.61.61,0,0,1,.18.45.6.6,0,0,1-.18.44A.63.63,0,0,1,203,2.68Zm.47,7.52h-1v-6h1Z" fill="#1e1e1e"/>
      <path d="M208.42,5.17A1.14,1.14,0,0,0,207.7,5a1.21,1.21,0,0,0-1,.58,2.64,2.64,0,0,0-.41,1.58V10.2h-1v-6h1V5.44h0a2.17,2.17,0,0,1,.63-1,1.39,1.39,0,0,1,.94-.35,1.44,1.44,0,0,1,.57.08Z" fill="#1e1e1e"/>
      <path d="M212.65,10.14a1.82,1.82,0,0,1-.9.19c-1.05,0-1.58-.59-1.58-1.76V5h-1V4.2h1V2.74l1-.31V4.2h1.51V5h-1.51V8.4a1.38,1.38,0,0,0,.2.86.8.8,0,0,0,.68.26,1,1,0,0,0,.63-.2Z" fill="#1e1e1e"/>
      <path d="M218.76,10.2h-1V9.25h0a2,2,0,0,1-1.85,1.09c-1.43,0-2.14-.85-2.14-2.55V4.2h.95V7.63c0,1.27.49,1.9,1.46,1.9A1.45,1.45,0,0,0,217.34,9a1.92,1.92,0,0,0,.46-1.35V4.2h1Z" fill="#1e1e1e"/>
      <path d="M224.9,10.2h-1V9.26h0a2,2,0,0,1-1.85,1.08,2,2,0,0,1-1.4-.47,1.65,1.65,0,0,1-.51-1.26c0-1.12.66-1.78,2-2l1.8-.25q0-1.53-1.23-1.53a3,3,0,0,0-2,.74v-1a3.76,3.76,0,0,1,2-.56c1.41,0,2.11.75,2.11,2.24Zm-1-3-1.45.2a2.25,2.25,0,0,0-1,.33.93.93,0,0,0-.34.84.89.89,0,0,0,.31.71,1.19,1.19,0,0,0,.83.28,1.54,1.54,0,0,0,1.19-.5,1.77,1.77,0,0,0,.46-1.27Z" fill="#1e1e1e"/>
      <path d="M227.61,10.2h-1V1.32h1Z" fill="#1e1e1e"/>
      <path d="M237.82,10.2h-1V6.78c0-1.27-.47-1.91-1.4-1.91a1.5,1.5,0,0,0-1.19.54,2,2,0,0,0-.47,1.37V10.2h-1v-6h1v1h0a2.17,2.17,0,0,1,2-1.14,1.83,1.83,0,0,1,1.51.64,2.85,2.85,0,0,1,.52,1.83Z" fill="#1e1e1e"/>
      <path d="M244.43,7.44h-4.24A2.28,2.28,0,0,0,240.73,9a1.88,1.88,0,0,0,1.42.54A2.94,2.94,0,0,0,244,8.87v.9a3.47,3.47,0,0,1-2.09.57,2.54,2.54,0,0,1-2-.82,3.35,3.35,0,0,1-.72-2.3A3.28,3.28,0,0,1,240,4.94a2.54,2.54,0,0,1,2-.88,2.26,2.26,0,0,1,1.83.76,3.19,3.19,0,0,1,.64,2.12Zm-1-.81a2,2,0,0,0-.41-1.3A1.34,1.34,0,0,0,242,4.87a1.54,1.54,0,0,0-1.16.49,2.18,2.18,0,0,0-.58,1.27Z" fill="#1e1e1e"/>
      <path d="M248.66,10.14a1.8,1.8,0,0,1-.9.19c-1,0-1.57-.59-1.57-1.76V5h-1V4.2h1V2.74l1-.31V4.2h1.51V5h-1.51V8.4a1.45,1.45,0,0,0,.2.86.81.81,0,0,0,.68.26,1,1,0,0,0,.63-.2Z" fill="#1e1e1e"/>
      <path d="M257.83,4.2l-1.8,6h-1L253.8,5.91a2.34,2.34,0,0,1-.09-.56h0a2.44,2.44,0,0,1-.12.54l-1.34,4.31h-1l-1.82-6h1l1.24,4.51a2.38,2.38,0,0,1,.08.54h0a2.43,2.43,0,0,1,.11-.55l1.38-4.5h.88l1.24,4.52a3.36,3.36,0,0,1,.09.54h0a2.08,2.08,0,0,1,.1-.54l1.21-4.52Z" fill="#1e1e1e"/>
      <path d="M261.33,10.34a2.79,2.79,0,0,1-2.12-.84,3.1,3.1,0,0,1-.79-2.23,3.24,3.24,0,0,1,.82-2.36,3,3,0,0,1,2.24-.85,2.69,2.69,0,0,1,2.09.83,3.27,3.27,0,0,1,.75,2.29,3.25,3.25,0,0,1-.81,2.3A2.85,2.85,0,0,1,261.33,10.34Zm.08-5.47a1.84,1.84,0,0,0-1.47.63,2.59,2.59,0,0,0-.54,1.74A2.41,2.41,0,0,0,260,8.92a1.85,1.85,0,0,0,1.46.61,1.77,1.77,0,0,0,1.43-.6,2.63,2.63,0,0,0,.5-1.72,2.66,2.66,0,0,0-.5-1.73A1.74,1.74,0,0,0,261.41,4.87Z" fill="#1e1e1e"/>
      <path d="M268.93,5.17a1.14,1.14,0,0,0-.72-.19,1.21,1.21,0,0,0-1,.58,2.64,2.64,0,0,0-.41,1.58V10.2h-1v-6h1V5.44h0a2.09,2.09,0,0,1,.63-1,1.39,1.39,0,0,1,.94-.35,1.44,1.44,0,0,1,.57.08Z" fill="#1e1e1e"/>
      <path d="M275,10.2h-1.35L271,7.32h0V10.2h-1V1.32h1V7h0l2.52-2.75h1.26L272,7.1Z" fill="#1e1e1e"/>
      <path d="M237.54,24.12c0,2.2-1.06,3.31-3.17,3.31a4.24,4.24,0,0,1-1.94-.43V26a3.92,3.92,0,0,0,1.93.56c1.48,0,2.22-.78,2.22-2.35v-.66h0a2.42,2.42,0,0,1-3.86.35,3.17,3.17,0,0,1-.68-2.15,3.73,3.73,0,0,1,.73-2.43,2.46,2.46,0,0,1,2-.9,2,2,0,0,1,1.79,1h0V18.6h1Zm-1-2.23V21a1.69,1.69,0,0,0-.49-1.22,1.58,1.58,0,0,0-1.2-.51,1.64,1.64,0,0,0-1.39.65,2.85,2.85,0,0,0-.51,1.81,2.43,2.43,0,0,0,.49,1.6,1.55,1.55,0,0,0,1.28.6,1.68,1.68,0,0,0,1.31-.57A2.12,2.12,0,0,0,236.58,21.89Z" fill="#1e1e1e"/>
      <path d="M243.68,24.6h-1v-.94h0a2,2,0,0,1-1.85,1.08,2,2,0,0,1-1.4-.47,1.65,1.65,0,0,1-.51-1.26c0-1.12.66-1.78,2-2l1.8-.25q0-1.53-1.23-1.53a3,3,0,0,0-2,.74V19a3.76,3.76,0,0,1,2-.56c1.41,0,2.11.75,2.11,2.24Zm-1-3-1.45.2a2.25,2.25,0,0,0-1,.33.93.93,0,0,0-.34.84.89.89,0,0,0,.31.71,1.2,1.2,0,0,0,.84.28,1.53,1.53,0,0,0,1.18-.5,1.77,1.77,0,0,0,.46-1.27Z" fill="#1e1e1e"/>
      <path d="M248.2,24.54a1.82,1.82,0,0,1-.9.19c-1.05,0-1.57-.59-1.57-1.76V19.42h-1V18.6h1V17.14l1-.31V18.6h1.51v.82h-1.51V22.8a1.45,1.45,0,0,0,.2.86.81.81,0,0,0,.68.26,1.05,1.05,0,0,0,.63-.2Z" fill="#1e1e1e"/>
      <path d="M254.2,21.84H250a2.21,2.21,0,0,0,.54,1.55,1.85,1.85,0,0,0,1.41.54,3,3,0,0,0,1.87-.66v.9a3.52,3.52,0,0,1-2.09.57,2.52,2.52,0,0,1-2-.82,3.31,3.31,0,0,1-.73-2.3,3.33,3.33,0,0,1,.79-2.28,2.55,2.55,0,0,1,2-.88,2.25,2.25,0,0,1,1.82.76,3.19,3.19,0,0,1,.64,2.12Zm-1-.81a2,2,0,0,0-.4-1.3,1.37,1.37,0,0,0-1.1-.46,1.56,1.56,0,0,0-1.16.49A2.18,2.18,0,0,0,250,21Z" fill="#1e1e1e"/>
      <path d="M263.19,18.6l-1.8,6h-1l-1.24-4.29a2.34,2.34,0,0,1-.09-.56h0a2.44,2.44,0,0,1-.12.54l-1.34,4.31h-1l-1.82-6h1l1.24,4.51a2.38,2.38,0,0,1,.08.54h.05a3.06,3.06,0,0,1,.1-.55l1.39-4.5h.88l1.24,4.52a3.36,3.36,0,0,1,.09.54h0a2.61,2.61,0,0,1,.1-.54l1.22-4.52Z" fill="#1e1e1e"/>
      <path d="M268.49,24.6h-1v-.94h0a2,2,0,0,1-1.85,1.08,2,2,0,0,1-1.4-.47,1.65,1.65,0,0,1-.51-1.26c0-1.12.66-1.78,2-2l1.8-.25c0-1-.41-1.53-1.24-1.53a3,3,0,0,0-2,.74V19a3.76,3.76,0,0,1,2-.56c1.41,0,2.11.75,2.11,2.24Zm-1-3-1.45.2a2.25,2.25,0,0,0-1,.33.93.93,0,0,0-.34.84.89.89,0,0,0,.31.71,1.19,1.19,0,0,0,.83.28,1.55,1.55,0,0,0,1.19-.5,1.77,1.77,0,0,0,.46-1.27Z" fill="#1e1e1e"/>
      <path d="M274.94,18.6l-2.76,7c-.49,1.24-1.18,1.87-2.07,1.87a2.25,2.25,0,0,1-.63-.08v-.86a1.8,1.8,0,0,0,.57.1,1.18,1.18,0,0,0,1.09-.86l.48-1.14-2.34-6h1.06L272,23.22c0,.06.07.21.13.46h0q0-.15.12-.45L274,18.6Z" fill="#1e1e1e"/>
    </g>
    <g>
      <path d="M160.92,52.36V51.2a2.23,2.23,0,0,0,.48.32,3.69,3.69,0,0,0,.58.23,3.5,3.5,0,0,0,.62.15,3.07,3.07,0,0,0,.57.06,2.29,2.29,0,0,0,1.36-.34,1.26,1.26,0,0,0,.3-1.56,1.76,1.76,0,0,0-.41-.46,4.57,4.57,0,0,0-.63-.4l-.77-.4c-.3-.15-.57-.3-.82-.45a3.2,3.2,0,0,1-.67-.51,2.26,2.26,0,0,1-.44-.62,1.91,1.91,0,0,1-.16-.82,1.93,1.93,0,0,1,.25-1,2.32,2.32,0,0,1,.66-.7,3.19,3.19,0,0,1,.94-.41,4.24,4.24,0,0,1,1.07-.13,4.08,4.08,0,0,1,1.81.3v1.1a3.31,3.31,0,0,0-1.91-.51,2.88,2.88,0,0,0-.65.07,1.58,1.58,0,0,0-.57.22,1.18,1.18,0,0,0-.41.39,1,1,0,0,0-.16.58,1.22,1.22,0,0,0,.12.56,1.31,1.31,0,0,0,.36.43,3,3,0,0,0,.57.37c.22.12.48.26.77.4s.59.31.86.47a4.46,4.46,0,0,1,.71.55,2.53,2.53,0,0,1,.48.66,1.84,1.84,0,0,1,.18.83,2.14,2.14,0,0,1-.24,1.05,2,2,0,0,1-.66.7,2.88,2.88,0,0,1-1,.39,5.24,5.24,0,0,1-1.14.12l-.49,0-.6-.09-.58-.16A1.57,1.57,0,0,1,160.92,52.36Z" fill="#1e1e1e"/>
      <path d="M167.88,45.18a.6.6,0,0,1-.44-.18.59.59,0,0,1-.18-.44.61.61,0,0,1,.18-.45.6.6,0,0,1,.44-.18.64.64,0,0,1,.45.18.61.61,0,0,1,.18.45.6.6,0,0,1-.18.44A.64.64,0,0,1,167.88,45.18Zm.47,7.52h-1v-6h1Z" fill="#1e1e1e"/>
      <path d="M173,52.64a1.82,1.82,0,0,1-.9.19c-1,0-1.58-.59-1.58-1.76V47.52h-1V46.7h1V45.24l1-.31V46.7H173v.82h-1.52V50.9a1.37,1.37,0,0,0,.21.86.8.8,0,0,0,.68.26,1,1,0,0,0,.63-.2Z" fill="#1e1e1e"/>
      <path d="M179,49.94h-4.24a2.28,2.28,0,0,0,.54,1.55,1.88,1.88,0,0,0,1.42.54,2.94,2.94,0,0,0,1.86-.66v.9a3.47,3.47,0,0,1-2.09.57,2.53,2.53,0,0,1-2-.82,3.35,3.35,0,0,1-.72-2.3,3.28,3.28,0,0,1,.79-2.28,2.54,2.54,0,0,1,2-.88,2.26,2.26,0,0,1,1.83.76,3.25,3.25,0,0,1,.64,2.12Zm-1-.81a2,2,0,0,0-.41-1.3,1.35,1.35,0,0,0-1.09-.46,1.54,1.54,0,0,0-1.16.49,2.12,2.12,0,0,0-.58,1.27Z" fill="#1e1e1e"/>
      <path d="M183.62,49.74h-3.2V49h3.2Z" fill="#1e1e1e"/>
      <path d="M187.89,52.64a1.82,1.82,0,0,1-.9.19c-1.05,0-1.57-.59-1.57-1.76V47.52h-1V46.7h1V45.24l1-.31V46.7h1.51v.82h-1.51V50.9a1.45,1.45,0,0,0,.2.86.81.81,0,0,0,.68.26,1,1,0,0,0,.63-.2Z" fill="#1e1e1e"/>
      <path d="M191.55,52.84a2.79,2.79,0,0,1-2.13-.84,3.15,3.15,0,0,1-.79-2.23,3.25,3.25,0,0,1,.83-2.36,3,3,0,0,1,2.23-.85,2.69,2.69,0,0,1,2.09.83,3.75,3.75,0,0,1-.05,4.59A2.88,2.88,0,0,1,191.55,52.84Zm.07-5.47a1.84,1.84,0,0,0-1.47.63,2.59,2.59,0,0,0-.53,1.74,2.46,2.46,0,0,0,.54,1.68,1.85,1.85,0,0,0,1.46.61,1.75,1.75,0,0,0,1.43-.6,2.58,2.58,0,0,0,.5-1.72,2.61,2.61,0,0,0-.5-1.73A1.73,1.73,0,0,0,191.62,47.37Z" fill="#1e1e1e"/>
      <path d="M199.18,49.74H196V49h3.2Z" fill="#1e1e1e"/>
      <path d="M200.3,52.36V51.2a2.5,2.5,0,0,0,.48.32,3.8,3.8,0,0,0,.59.23,3.39,3.39,0,0,0,.61.15,3.09,3.09,0,0,0,.58.06,2.31,2.31,0,0,0,1.36-.34,1.15,1.15,0,0,0,.44-1,1.13,1.13,0,0,0-.15-.59,1.6,1.6,0,0,0-.41-.46,3.91,3.91,0,0,0-.62-.4l-.78-.4c-.29-.15-.57-.3-.82-.45a3.4,3.4,0,0,1-.66-.51,1.95,1.95,0,0,1-.61-1.44,1.93,1.93,0,0,1,.26-1,2.2,2.2,0,0,1,.66-.7,3,3,0,0,1,.93-.41,4.29,4.29,0,0,1,1.07-.13,4.08,4.08,0,0,1,1.81.3v1.1a3.29,3.29,0,0,0-1.91-.51,2.79,2.79,0,0,0-.64.07,1.56,1.56,0,0,0-.58.22,1.38,1.38,0,0,0-.41.39,1.06,1.06,0,0,0-.15.58,1.22,1.22,0,0,0,.12.56,1.28,1.28,0,0,0,.35.43,3.75,3.75,0,0,0,.57.37l.78.4c.3.15.58.31.85.47a4,4,0,0,1,.71.55,2.36,2.36,0,0,1,.49.66,2,2,0,0,1,.17.83,2.14,2.14,0,0,1-.24,1.05,2,2,0,0,1-.65.7,2.94,2.94,0,0,1-1,.39,5.22,5.22,0,0,1-1.13.12l-.5,0-.59-.09c-.21,0-.4-.1-.58-.16A1.65,1.65,0,0,1,200.3,52.36Z" fill="#1e1e1e"/>
      <path d="M207.26,45.18a.6.6,0,0,1-.44-.18.59.59,0,0,1-.18-.44.61.61,0,0,1,.18-.45.6.6,0,0,1,.44-.18.61.61,0,0,1,.45.18.62.62,0,0,1,0,.89A.61.61,0,0,1,207.26,45.18Zm.47,7.52h-1v-6h1Z" fill="#1e1e1e"/>
      <path d="M212.41,52.64a1.8,1.8,0,0,1-.9.19c-1,0-1.57-.59-1.57-1.76V47.52h-1V46.7h1V45.24l1-.31V46.7h1.51v.82H210.9V50.9a1.45,1.45,0,0,0,.2.86.81.81,0,0,0,.68.26,1,1,0,0,0,.63-.2Z" fill="#1e1e1e"/>
      <path d="M218.41,49.94h-4.23a2.19,2.19,0,0,0,.54,1.55,1.85,1.85,0,0,0,1.42.54,3,3,0,0,0,1.86-.66v.9a3.52,3.52,0,0,1-2.09.57,2.52,2.52,0,0,1-2-.82,3.81,3.81,0,0,1,.07-4.58,2.53,2.53,0,0,1,2-.88,2.25,2.25,0,0,1,1.82.76,3.19,3.19,0,0,1,.64,2.12Zm-1-.81a2,2,0,0,0-.4-1.3,1.36,1.36,0,0,0-1.1-.46,1.52,1.52,0,0,0-1.15.49,2.13,2.13,0,0,0-.59,1.27Z" fill="#1e1e1e"/>
      <path d="M185.47,58.7l-3.11,8.4h-1.08l-3.05-8.4h1.1l2.32,6.66a3.67,3.67,0,0,1,.17.74h0a3.44,3.44,0,0,1,.19-.75l2.37-6.65Z" fill="#1e1e1e"/>
      <path d="M187.61,63.93V67.1h-1V58.7h2.3a3.08,3.08,0,0,1,2.09.65,2.34,2.34,0,0,1,.74,1.86,2.52,2.52,0,0,1-.82,1.95,3.14,3.14,0,0,1-2.22.77Zm0-4.34V63h1a2.32,2.32,0,0,0,1.56-.46,1.67,1.67,0,0,0,.53-1.32c0-1.11-.65-1.66-2-1.66Z" fill="#1e1e1e"/>
      <path d="M199.88,67.1h-1.21l-4.32-6.7a2.57,2.57,0,0,1-.27-.52h0a8.6,8.6,0,0,1,.05,1.15V67.1h-1V58.7h1.28l4.21,6.59c.17.27.29.46.34.56h0a8.58,8.58,0,0,1-.06-1.23V58.7h1Z" fill="#1e1e1e"/>
    </g>
  </g>
</svg>
