<svg width="103" height="102" viewBox="0 0 103 102" fill="none" xmlns="http://www.w3.org/2000/svg">
<g clip-path="url(#clip0_1642_3852)">
<path d="M51.0793 97.3499C41.9125 97.3479 32.9521 94.6279 25.3312 89.5337C17.7103 84.4395 11.7709 77.2 8.26433 68.7305C4.75774 60.261 3.84147 50.9418 5.63103 41.9514C7.42058 32.9611 11.836 24.7031 18.3185 18.2219C24.8011 11.7408 33.0597 7.32743 42.0505 5.53982C51.0412 3.75221 60.36 4.67081 68.8288 8.17922C77.2976 11.6876 84.536 17.6283 89.6286 25.2503C94.7211 32.8723 97.4391 41.8333 97.4391 51C97.4391 57.0876 96.2398 63.1157 93.9098 68.7398C91.5799 74.3639 88.1651 79.4737 83.86 83.7779C79.555 88.082 74.4441 91.496 68.8195 93.8247C63.1949 96.1534 57.1669 97.3512 51.0793 97.3499Z" fill="url(#paint0_linear_1642_3852)"/>
<path fill-rule="evenodd" clip-rule="evenodd" d="M96.5394 51.0001C96.5394 59.9892 93.8739 68.7763 88.8798 76.2506C83.8857 83.7248 76.7872 89.5503 68.4823 92.9903C60.1774 96.4303 51.039 97.3304 42.2225 95.5767C33.4061 93.823 25.3078 89.4943 18.9515 83.138C12.5952 76.7817 8.26627 68.6832 6.51257 59.8668C4.75888 51.0503 5.659 41.9119 9.099 33.607C12.539 25.3021 18.3645 18.2039 25.8387 13.2098C33.313 8.21567 42.1001 5.55011 51.0892 5.55011C63.1433 5.55011 74.7039 10.3384 83.2274 18.8619C91.7509 27.3854 96.5394 38.946 96.5394 51.0001ZM51.0892 1.84992C60.8126 1.84992 70.3177 4.73335 78.4022 10.1356C86.4868 15.5378 92.7877 23.2161 96.5082 32.1995C100.229 41.1829 101.202 51.0679 99.3041 60.6043C97.4064 70.1407 92.7232 78.9002 85.847 85.775C78.9709 92.6497 70.2105 97.3309 60.6737 99.2266C51.1369 101.122 41.2525 100.147 32.2699 96.4251C23.2873 92.7028 15.6099 86.4002 10.2094 78.3145C4.80878 70.2289 1.92759 60.7234 1.92957 51.0001C1.92825 44.5444 3.19865 38.1517 5.66882 32.1873C8.139 26.2229 11.7602 20.8037 16.3256 16.2393C20.8909 11.6749 26.3109 8.05472 32.2758 5.58576C38.2407 3.11679 44.6336 1.84729 51.0892 1.84992Z" fill="#F2F1F0"/>
<path d="M96.1797 48.6899L96.3296 48.4399L90.4497 45.04L95.3496 42.22L95.1997 41.96L90.3096 44.78V36.3101L93.2593 38.01L93.4097 37.75L90.4097 36.04L92.4097 34.8799L92.2593 34.6199L90.2593 35.78V30.78H89.9595V35.78L82.6094 31.53L89.6094 27.53L89.4595 27.27L82.4595 31.27V22.77L86.1597 24.9099L86.3096 24.6499L82.6196 22.52L85.1196 21.0798L84.9692 20.8198L82.4595 22.27V19.1099H82.1597V22.25L74.8296 18.02L78.8296 15.6899L78.6797 15.4299L74.6797 17.76V12.29H74.3794V17.76L67.0293 13.52L71.5596 10.9099L71.4097 10.6499L66.8794 13.26V8.91992H66.5796V13.26L59.2393 9.02002L61.6196 7.6499L61.4692 7.38989L59.0796 8.77002V5.77002H58.7793V8.77002L53.5293 5.77002L53.3794 6.03003L58.6396 9.03003L51.2896 13.27V5.98999H50.9893V13.27L43.6494 9.03003L45.8096 7.78003L45.6597 7.52002L43.4995 8.77002V6.56006H43.1997V8.77002L40.6494 7.30005L40.4995 7.56006L43.0493 9.03003L35.6997 13.27V9.36987H35.3994V13.27L31.3994 10.9399L31.2495 11.2L35.2495 13.53L27.9097 17.77V12.9299H27.6094V17.77L23.4395 15.3599L23.2896 15.6199L27.4595 18.03L20.1196 22.27V18.0601H19.8193V22.27L17.5894 20.99L17.4395 21.25L19.6597 22.53L13.0293 26.3599L13.1797 26.6199L19.8193 22.79V31.27L12.4995 27.05L12.3496 27.3101L19.6597 31.53L12.3193 35.77V28.6899H12.0195V35.78L10.1196 34.6899L9.96924 34.9399L11.8696 36.04L9.08936 37.6399L9.24951 37.8999L12.0195 36.3V44.78L7.08936 41.9399L6.93945 42.1899L11.8696 45.04L6.58936 48.0898L6.74951 48.3499L12.0195 45.3499V53.8298L6.75928 50.8298L6.60938 51.0898L11.8696 54.0898L6.86963 56.99L7.0293 57.25L12.0293 54.3499V62.8298L7.96924 60.49L7.80957 60.74L11.8794 63.0898L9.17969 64.6499L9.32959 64.9099L12.0293 63.3499V71.8298L10.1294 70.74L9.97949 70.99L12.0293 72.1799V73.55H12.3296V72.3499L19.6694 76.5898L16.3496 78.51L16.5093 78.77L19.8296 76.8499V82.49H20.1294V76.8499L27.4692 81.0898L21.2295 84.6899L21.3794 84.95L27.6196 81.3499V88.9299H27.9194V81.3499L35.2593 85.5898L29.0996 89.1499L29.2593 89.4099L35.4097 85.8499V92.49H35.7095V85.8499L43.0596 90.0898L37.2295 93.46L37.3794 93.72L43.2095 90.3499V94.3499H43.5093V90.3499L50.8496 94.5898L49.2896 95.49L49.4395 95.75L51.1494 94.75L52.5996 95.5798L52.7593 95.3198L51.4497 94.5698L58.7896 90.3398V94.3398H59.0894V90.3398L63.8896 93.1099L64.0396 92.8499L59.2495 90.0798L66.5894 85.8398V92.48H66.8896V85.8398L73.4194 89.6099L73.5693 89.3499L67.0396 85.5798L74.3896 81.3398V88.3398H74.6895V81.3398L80.9995 84.98L81.1494 84.73L74.8394 81.0798L82.1694 76.8499V82.6699H82.4692V76.8298L85.9795 78.8298L86.1294 78.5698L82.6294 76.5698L89.1797 72.79L89.0293 72.53L82.4692 76.3198V67.8198L89.9795 72.1599V73.4099H90.2793V63.3398L93.4497 65.1599L93.5996 64.8999L90.4194 63.0698L94.4194 60.79L94.2695 60.53L90.3193 62.8101V54.3398L95.4297 57.3398L95.5796 57.0798L90.4595 54.0798L95.1797 51.3599L95.0293 51.0999L90.3193 53.8198V45.3499L96.1797 48.6899ZM43.6895 90.04L51.0293 85.8V94.28L43.6895 90.04ZM51.0293 49.8V58.28L43.6895 54.04L51.0293 49.8ZM43.5396 53.8V45.3198L50.8794 49.5601L43.5396 53.8ZM51.3296 49.8L58.6797 54.04L51.3296 58.28V49.8ZM58.8193 45.3101V53.78L51.4795 49.54L58.8193 45.3101ZM51.3296 49.3101V40.8298L58.6797 45.0698L51.3296 49.3101ZM51.4795 40.5698L58.8193 36.3398V44.8101L51.4795 40.5698ZM51.0293 49.3101L43.6895 45.0698L51.0293 40.8298V49.3101ZM43.5396 44.8101V36.3298L50.8794 40.5698L43.5396 44.8101ZM43.2393 53.8101L35.8896 49.5698L43.2393 45.3298V53.8101ZM50.8794 58.5698L43.5396 62.8101V54.3298L50.8794 58.5698ZM51.0293 58.8298V67.3101L43.6895 63.0698L51.0293 58.8298ZM51.4795 58.5698L58.8193 54.3398V62.8101L51.4795 58.5698ZM58.6797 63.0698L51.3296 67.3101V58.8298L58.6797 63.0698ZM59.1196 45.3298L66.4692 49.5698L59.1196 53.8198V45.3298ZM59.2793 45.0698L66.6196 40.8298V49.3101L59.2793 45.0698ZM59.1196 36.3298L66.4692 40.5698L59.1196 44.8198V36.3298ZM51.3296 40.3298V31.8499L58.6797 36.0898L51.3296 40.3298ZM43.6895 36.0898L51.0293 31.8499V40.3298L43.6895 36.0898ZM43.2393 44.8298L35.8896 40.5898L43.2393 36.3499V44.8298ZM35.7393 49.3298V40.8499L43.0894 45.0898L35.7393 49.3298ZM43.0894 54.0898L35.7393 58.3298V49.8499L43.0894 54.0898ZM43.2393 54.3499V62.8298L35.8896 58.5898L43.2393 54.3499ZM50.8794 67.5898L43.5396 71.8298V63.3499L50.8794 67.5898ZM58.8193 63.3599V71.8298L51.4795 67.5898L58.8193 63.3599ZM59.1196 54.3599L66.4692 58.5999L59.1196 62.8499V54.3599ZM66.6196 49.8599V58.3398L59.2793 54.0999L66.6196 49.8599ZM66.9194 40.8599L74.2695 45.0999L66.9194 49.3398V40.8599ZM59.2793 36.0999L66.6196 31.8599V40.3398L59.2793 36.0999ZM59.1196 35.8499V27.3599L66.4692 31.5999L59.1196 35.8499ZM58.8193 35.8499L51.4795 31.6099L58.8193 27.3799V35.8499ZM43.5396 35.8499V27.3699L50.8794 31.6099L43.5396 35.8499ZM43.2393 35.8499L35.8896 31.6099L43.2393 27.3699V35.8499ZM43.0894 36.1099L35.7393 40.3499V31.8699L43.0894 36.1099ZM35.4395 49.3499L28.0996 45.1099L35.4395 40.8699V49.3499ZM35.2896 49.6099L27.9497 53.8499V45.3699L35.2896 49.6099ZM35.4395 49.8699V58.3499L28.0996 54.1099L35.4395 49.8699ZM43.0894 63.1099L35.7393 67.3499V58.8699L43.0894 63.1099ZM43.2393 63.3699V71.8499L35.8896 67.6099L43.2393 63.3699ZM51.0293 67.8699V76.3499L43.6895 72.1099L51.0293 67.8699ZM58.6797 72.1099L51.3296 76.3499V67.8699L58.6797 72.1099ZM59.1196 63.3699L66.4692 67.6099L59.1196 71.8599V63.3699ZM59.2793 63.1099L66.6196 58.8699V67.3499L59.2793 63.1099ZM66.9194 49.8699L74.2695 54.1099L66.9194 58.3499V49.8699ZM67.0693 49.6099L74.4194 45.3699V53.8499L67.0693 49.6099ZM67.0693 40.6099L74.4194 36.3699V44.8499L67.0693 40.6099ZM66.9194 31.8699L74.2695 36.1099L66.9194 40.3499V31.8699ZM59.2793 27.1099L66.6196 22.8699V31.3499L59.2793 27.1099ZM51.3296 31.3499V22.8699L58.6797 27.1099L51.3296 31.3499ZM43.6895 27.1099L51.0293 22.8699V31.3499L43.6895 27.1099ZM35.7393 31.3499V22.8699L43.0894 27.1099L35.7393 31.3499ZM35.4395 40.3499L28.0996 36.1099L35.4395 31.8699V40.3499ZM27.9497 44.8499V36.3699L35.2896 40.6099L27.9497 44.8499ZM27.6494 53.8499L20.2993 49.6099L27.6494 45.3699V53.8499ZM35.2896 58.6099L27.9497 62.8499V54.3699L35.2896 58.6099ZM35.4395 58.8699V67.3499L28.0996 63.1099L35.4395 58.8699ZM43.0894 72.1099L35.7393 76.3499V67.8699L43.0894 72.1099ZM50.8794 76.6099L43.5396 80.8499V72.3699L50.8794 76.6099ZM58.8193 72.3799V80.8499L51.4795 76.6099L58.8193 72.3799ZM66.6196 67.8699V76.3499L59.2793 72.1099L66.6196 67.8699ZM66.9194 58.8699L74.2695 63.1099L66.9194 67.3499V58.8699ZM74.4194 54.3699V62.8499L67.0693 58.6099L74.4194 54.3699ZM74.7192 45.3699L82.0596 49.6099L74.7192 53.8499V45.3699ZM74.7192 36.3699L82.0596 40.6099L74.7192 44.8499V36.3699ZM67.0693 31.6099L74.4194 27.3699V35.8499L67.0693 31.6099ZM66.9194 31.3499V22.8699L74.2695 27.1099L66.9194 31.3499ZM59.1196 26.8599V18.3699L66.4692 22.6099L59.1196 26.8599ZM58.8193 26.8599L51.4795 22.6199L58.8193 18.3899V26.8599ZM43.5396 26.8599V18.3799L50.8794 22.6199L43.5396 26.8599ZM43.2393 26.8599L35.8896 22.6199L43.2393 18.3799V26.8599ZM35.4395 31.3599L28.0996 27.1199L35.4395 22.8799V31.3599ZM35.2896 31.6199L27.9497 35.8599V27.3799L35.2896 31.6199ZM27.6494 44.8599L20.2993 40.6199L27.6494 36.3799V44.8599ZM27.4995 45.1199L20.1597 49.3599V40.8799L27.4995 45.1199ZM27.4995 54.1199L20.1597 58.3599V49.8799L27.4995 54.1199ZM27.6494 54.3799V62.8599L20.2993 58.6199L27.6494 54.3799ZM35.2896 67.6199L27.9497 71.8599V63.3799L35.2896 67.6199ZM35.4395 67.8799V76.3599L28.0996 72.1199L35.4395 67.8799ZM43.2393 72.3799V80.8599L35.8896 76.6199L43.2393 72.3799ZM51.0293 76.8799V85.3599L43.6895 81.1199L51.0293 76.8799ZM58.6797 81.1199L51.3296 85.3599V76.8799L58.6797 81.1199ZM59.1196 72.3799L66.4692 76.6199L59.1196 80.8699V72.3799ZM66.9194 67.8799L74.2695 72.1199L66.9194 76.3599V67.8799ZM67.0693 67.6199L74.4194 63.3799V71.8599L67.0693 67.6199ZM74.7192 54.3799L82.0596 58.6199L74.7192 62.8599V54.3799ZM74.8696 54.1199L82.1997 49.8899V58.3499L74.8696 54.1199ZM74.8696 45.1199L82.1997 40.8899V49.3499L74.8696 45.1199ZM74.8696 36.1199L82.1997 31.8899V40.3499L74.8696 36.1199ZM74.7192 27.3799L82.0596 31.6199L74.7192 35.8599V27.3799ZM67.0693 22.6199L74.4194 18.3799V26.8599L67.0693 22.6199ZM59.2793 18.1199L66.6196 13.8799V22.3599L59.2793 18.1199ZM51.3296 22.3599V13.8799L58.6797 18.1199L51.3296 22.3599ZM43.6895 18.1199L51.0293 13.8799V22.3599L43.6895 18.1199ZM35.7393 22.3599V13.8799L43.0894 18.1199L35.7393 22.3599ZM27.9497 26.8599V18.3799L35.2896 22.6199L27.9497 26.8599ZM27.6494 35.8599L20.2993 31.6199L27.6494 27.3799V35.8599ZM20.1597 40.3599V31.8799L27.4995 36.1199L20.1597 40.3599ZM19.8594 49.3599L12.5093 45.1199L19.8594 40.8799V49.3599ZM19.8594 58.3599L12.5093 54.1199L19.8594 49.8799V58.3599ZM27.4995 63.1199L20.1597 67.3599V58.8799L27.4995 63.1199ZM27.6494 63.3799V71.8599L20.2993 67.6199L27.6494 63.3799ZM35.2896 76.6199L27.9497 80.8599V72.3799L35.2896 76.6199ZM43.0894 81.1199L35.7393 85.3599V76.8799L43.0894 81.1199ZM50.8794 85.6199L43.5396 89.8599V81.3799L50.8794 85.6199ZM58.8193 81.3899V89.8599L51.4795 85.6199L58.8193 81.3899ZM66.6196 76.8799V85.3599L59.2793 81.1199L66.6196 76.8799ZM74.4194 72.3799V80.8599L67.0693 76.6199L74.4194 72.3799ZM74.7192 63.3799L82.0596 67.6199L74.7192 71.8599V63.3799ZM82.1997 58.8899V67.3499L74.8696 63.1199L82.1997 58.8899ZM82.4995 49.8899L89.8496 54.1399L82.4995 58.3899V49.8899ZM82.4995 40.8899L89.8496 45.1399L82.4995 49.3899V40.8899ZM82.4995 40.3899V31.8899L89.8496 36.1399L82.4995 40.3899ZM90.0093 36.3899V44.8799L82.6597 40.6299L90.0093 36.3899ZM74.8696 27.1299L82.1997 22.8999V31.3599L74.8696 27.1299ZM74.7192 26.8699V18.3899L82.0596 22.6299L74.7192 26.8699ZM66.9194 22.3699V13.8899L74.2695 18.1299L66.9194 22.3699ZM59.1196 17.8799V9.38989L66.4692 13.6299L59.1196 17.8799ZM58.8193 17.8799L51.4795 13.6399L58.8193 9.40991V17.8799ZM43.5396 17.8799V9.3999L50.8794 13.6399L43.5396 17.8799ZM43.2393 17.8799L35.8896 13.6399L43.2393 9.3999V17.8799ZM35.4395 22.3799L28.0996 18.1399L35.4395 13.8999V22.3799ZM27.6494 26.8799L20.2993 22.6399L27.6494 18.3999V26.8799ZM27.4995 27.1399L20.1597 31.3799V22.8999L27.4995 27.1399ZM19.8594 40.3799L12.5093 36.1399L19.8594 31.8999V40.3799ZM19.6997 40.6399L12.3594 44.8799V36.3999L19.6997 40.6399ZM19.6997 49.6399L12.3594 53.8799V45.3999L19.6997 49.6399ZM19.6997 58.6399L12.3594 62.8799V54.3999L19.6997 58.6399ZM19.8594 58.8999V67.3799L12.5093 63.1399L19.8594 58.8999ZM27.4995 72.1399L20.1597 76.3799V67.8999L27.4995 72.1399ZM27.6494 72.3999V80.8799L20.2993 76.6399L27.6494 72.3999ZM35.4395 76.8999V85.3799L28.0996 81.1399L35.4395 76.8999ZM43.2393 81.3999V89.8799L35.8896 85.6399L43.2393 81.3999ZM58.6797 90.1399L51.3296 94.3799V85.8999L58.6797 90.1399ZM59.1196 81.3999L66.4692 85.6399L59.1196 89.8899V81.3999ZM66.9194 76.8999L74.2695 81.1399L66.9194 85.3799V76.8999ZM74.7192 72.3999L82.0596 76.6399L74.7192 80.8799V72.3999ZM74.8696 72.1399L82.1997 67.9099V76.3699L74.8696 72.1399ZM82.4995 58.8899L89.8496 63.1399L82.4995 67.3899V58.8899ZM82.6597 58.6399L90.0093 54.3999V62.8899L82.6597 58.6399ZM82.6597 49.6399L90.0093 45.3999V53.8899L82.6597 49.6399ZM12.3594 63.3999L19.6997 67.6399L12.9595 71.54L13.1094 71.79L19.8594 67.8999V76.3799L12.3594 72.0601V63.3999ZM82.6597 67.5898L90.0093 63.3499V71.8398L82.6597 67.5898Z" fill="url(#paint1_linear_1642_3852)"/>
<path fill-rule="evenodd" clip-rule="evenodd" d="M93.7495 51C93.7515 59.4398 91.2504 67.6904 86.563 74.7087C81.8756 81.7271 75.2123 87.1978 67.4155 90.429C59.6188 93.6601 51.0391 94.5066 42.7612 92.8613C34.4834 91.216 26.8792 87.1529 20.9106 81.1858C14.9421 75.2187 10.8772 67.6156 9.22998 59.3381C7.58274 51.0607 8.42744 42.4806 11.6567 34.6831C14.886 26.8856 20.3548 20.2208 27.3721 15.5317C34.3893 10.8427 42.6398 8.33984 51.0796 8.33984C56.6826 8.33853 62.2308 9.4412 67.4077 11.5845C72.5846 13.7278 77.2886 16.8698 81.251 20.8313C85.2134 24.7928 88.3565 29.496 90.501 34.6724C92.6455 39.8488 93.7495 45.397 93.7495 51ZM51.0796 4.62988C60.2507 4.62988 69.2158 7.34938 76.8413 12.4446C84.4668 17.5398 90.4103 24.7819 93.9199 33.2549C97.4296 41.7279 98.3478 51.0515 96.5586 60.0464C94.7694 69.0413 90.3531 77.3036 83.8682 83.7886C77.3832 90.2735 69.1209 94.6898 60.126 96.479C51.1311 98.2682 41.8075 97.35 33.3345 93.8403C24.8615 90.3307 17.6196 84.3872 12.5244 76.7617C7.42921 69.1362 4.70947 60.1711 4.70947 51C4.71212 38.7027 9.59846 26.9098 18.2939 18.2144C26.9894 9.51887 38.7823 4.63253 51.0796 4.62988Z" fill="url(#paint2_linear_1642_3852)"/>
<path d="M25.5067 68.7633C20.1067 68.7633 15.7212 64.3855 15.7212 58.992C15.7212 54.0607 19.3661 50.0042 24.1209 49.3595C23.7516 47.8381 23.5214 46.2254 23.5214 44.5672C23.567 33.7823 32.2904 25.0723 43.0903 25.0723C50.5212 25.0723 56.9834 29.2656 60.3067 35.3949C61.9228 34.6114 63.767 34.1512 65.7067 34.1512C72.4468 34.1512 77.9381 39.6359 77.9381 46.3643C77.9381 47.3779 77.7991 48.3915 77.5688 49.3595C77.9381 49.3139 78.3073 49.3139 78.6766 49.3139C84.0309 49.2683 88.4144 53.6005 88.4144 58.992C88.4144 64.3834 84.0309 68.7633 78.6309 68.7633H25.5067V68.7633Z" fill="url(#paint3_linear_1642_3852)" stroke="#A4DEF5" stroke-width="0.5" stroke-linejoin="round"/>
<g filter="url(#filter0_ddddd_1642_3852)">
<path d="M63.1617 43.5493V57.6103L51.0546 64.6997V50.6054L63.1617 43.5493Z" fill="#2FBFDF"/>
<path d="M63.1616 43.5486L51.0545 50.6073L38.8911 43.5486L51.0238 36.4951L63.1616 43.5486Z" fill="#A4DEF5"/>
<path d="M51.0545 50.6054V64.6997L38.8911 57.6078V43.5493L51.0545 50.6054Z" fill="#73CFEC"/>
<path d="M38.8911 57.6077L51.0545 50.6053V64.6996L38.8911 57.6077Z" fill="#A4DEF5"/>
<path d="M63.1617 57.6103L51.0546 50.6053V64.6996L63.1617 57.6103Z" fill="#73CFEC"/>
</g>
</g>
<defs>
<filter id="filter0_ddddd_1642_3852" x="26.8911" y="34.4951" width="48.2705" height="71.2045" filterUnits="userSpaceOnUse" color-interpolation-filters="sRGB">
<feFlood flood-opacity="0" result="BackgroundImageFix"/>
<feColorMatrix in="SourceAlpha" type="matrix" values="0 0 0 0 0 0 0 0 0 0 0 0 0 0 0 0 0 0 127 0" result="hardAlpha"/>
<feOffset/>
<feColorMatrix type="matrix" values="0 0 0 0 0 0 0 0 0 0 0 0 0 0 0 0 0 0 0.1 0"/>
<feBlend mode="normal" in2="BackgroundImageFix" result="effect1_dropShadow_1642_3852"/>
<feColorMatrix in="SourceAlpha" type="matrix" values="0 0 0 0 0 0 0 0 0 0 0 0 0 0 0 0 0 0 127 0" result="hardAlpha"/>
<feOffset dy="2"/>
<feGaussianBlur stdDeviation="2"/>
<feColorMatrix type="matrix" values="0 0 0 0 0 0 0 0 0 0 0 0 0 0 0 0 0 0 0.1 0"/>
<feBlend mode="normal" in2="effect1_dropShadow_1642_3852" result="effect2_dropShadow_1642_3852"/>
<feColorMatrix in="SourceAlpha" type="matrix" values="0 0 0 0 0 0 0 0 0 0 0 0 0 0 0 0 0 0 127 0" result="hardAlpha"/>
<feOffset dy="7"/>
<feGaussianBlur stdDeviation="3.5"/>
<feColorMatrix type="matrix" values="0 0 0 0 0 0 0 0 0 0 0 0 0 0 0 0 0 0 0.09 0"/>
<feBlend mode="normal" in2="effect2_dropShadow_1642_3852" result="effect3_dropShadow_1642_3852"/>
<feColorMatrix in="SourceAlpha" type="matrix" values="0 0 0 0 0 0 0 0 0 0 0 0 0 0 0 0 0 0 127 0" result="hardAlpha"/>
<feOffset dy="16"/>
<feGaussianBlur stdDeviation="5"/>
<feColorMatrix type="matrix" values="0 0 0 0 0 0 0 0 0 0 0 0 0 0 0 0 0 0 0.05 0"/>
<feBlend mode="normal" in2="effect3_dropShadow_1642_3852" result="effect4_dropShadow_1642_3852"/>
<feColorMatrix in="SourceAlpha" type="matrix" values="0 0 0 0 0 0 0 0 0 0 0 0 0 0 0 0 0 0 127 0" result="hardAlpha"/>
<feOffset dy="29"/>
<feGaussianBlur stdDeviation="6"/>
<feColorMatrix type="matrix" values="0 0 0 0 0 0 0 0 0 0 0 0 0 0 0 0 0 0 0.01 0"/>
<feBlend mode="normal" in2="effect4_dropShadow_1642_3852" result="effect5_dropShadow_1642_3852"/>
<feBlend mode="normal" in="SourceGraphic" in2="effect5_dropShadow_1642_3852" result="shape"/>
</filter>
<linearGradient id="paint0_linear_1642_3852" x1="27.9891" y1="8.08998" x2="102.899" y2="147.29" gradientUnits="userSpaceOnUse">
<stop stop-color="#50E6FF"/>
<stop offset="0.62" stop-color="#0078D4"/>
</linearGradient>
<linearGradient id="paint1_linear_1642_3852" x1="51.7386" y1="-8.2686" x2="41.9695" y2="142.95" gradientUnits="userSpaceOnUse">
<stop offset="0.0833333" stop-color="#D2F6FF"/>
<stop offset="0.3876" stop-color="#7CDAF3"/>
<stop offset="0.643824" stop-color="#4DC1EA"/>
<stop offset="0.84" stop-color="#0078D4"/>
</linearGradient>
<linearGradient id="paint2_linear_1642_3852" x1="18.5995" y1="8.95989" x2="86.1396" y2="96.36" gradientUnits="userSpaceOnUse">
<stop stop-color="#007ED8"/>
<stop offset="0.92" stop-color="#002D4C"/>
</linearGradient>
<linearGradient id="paint3_linear_1642_3852" x1="52.0678" y1="25.0723" x2="52.0678" y2="68.7633" gradientUnits="userSpaceOnUse">
<stop stop-color="#659BD3"/>
<stop offset="1" stop-color="#2378BD"/>
</linearGradient>
<clipPath id="clip0_1642_3852">
<rect width="102" height="102" fill="white" transform="translate(0.0893555)"/>
</clipPath>
</defs>
</svg>
