<svg width="181" height="191" viewBox="0 0 181 191" fill="none" xmlns="http://www.w3.org/2000/svg">
<path d="M90.4252 189.304C93.4852 189.304 96.4952 188.454 99.1552 186.834L161.125 149.174C166.665 145.804 170.095 139.474 170.095 132.634V57.9238C170.095 51.1038 166.665 44.7638 161.125 41.3838L99.1552 3.72378C93.8252 0.483775 87.0052 0.503775 81.7052 3.72378L19.7352 41.4038C14.1952 44.7738 10.7452 51.1038 10.7452 57.9438V132.644C10.7452 138.404 13.1952 143.824 17.2952 147.394V147.424L81.7052 186.854C84.3452 188.454 87.3652 189.304 90.4252 189.304ZM91.0752 8.25378C93.0252 8.25378 95.5052 9.46377 97.2152 10.5138L157.975 47.7038C161.725 49.9838 163.845 56.5838 163.845 61.3338L163.215 132.634C163.215 137.384 160.015 141.654 156.265 143.934L95.8652 180.314C92.4352 182.404 89.6452 182.404 86.2052 180.314L24.9952 143.844C21.2452 141.564 18.2252 137.364 18.2252 132.634V58.9938C18.2252 54.2538 20.9552 49.3638 24.7252 47.0738L85.3052 10.5138C87.0052 9.47377 89.1252 8.25378 91.0752 8.25378Z" fill="#F2F1F0"/>
<path fill-rule="evenodd" clip-rule="evenodd" d="M98.3252 11.8337C95.8752 10.3337 93.1552 9.58374 90.4252 9.58374C87.6952 9.58374 84.9752 10.3437 82.5252 11.8337L26.3952 46.1637C21.3752 49.2337 18.2652 54.9837 18.2652 61.2337V129.334C18.2652 135.564 21.3652 141.334 26.3952 144.404L82.5252 178.734C84.9752 180.234 87.6952 180.984 90.4252 180.984C93.1552 180.984 95.8752 180.244 98.3252 178.734L154.455 144.404C159.475 141.334 162.585 135.564 162.585 129.334V61.2337C162.585 55.0037 159.485 49.2537 154.455 46.1637L98.3252 11.8337Z" fill="url(#paint0_linear)"/>
<path d="M91.4551 9.82373H91.3651V45.6537C91.3651 45.8237 91.2751 45.9837 91.1251 46.0737L90.9451 46.1737L133.685 70.8537V70.7037C133.685 70.5337 133.775 70.3737 133.925 70.2837L161.535 54.3437L161.505 54.2937L156.335 57.2837V48.3737L155.365 47.7937V57.2937L146.015 51.8937L154.265 47.1337L153.315 46.5637L145.535 51.0537V41.8837L144.565 41.3037V51.0537L135.215 45.6537L143.675 40.7637L142.725 40.1937L134.725 44.8137V35.3937L133.755 34.8137V44.8237L124.405 39.4237L133.085 34.4137L132.135 33.8437L123.915 38.5837V28.9037L122.945 28.3237V38.5837L113.595 33.1837L122.495 28.0437L121.545 27.4737L113.085 32.3037V22.3737L112.115 21.7937V32.3037L102.765 26.9037L111.875 21.6437L110.925 21.0737L102.275 26.0637V15.8737L101.305 15.2937V26.0637L91.9551 20.6637L101.285 15.2737L100.325 14.7037L91.4651 19.8237V9.82373H91.4551ZM145.525 52.7237L154.875 58.1237L145.525 63.5237V52.7237ZM144.555 63.5237L135.205 58.1237L144.555 52.7237V63.5237ZM134.715 46.4837L144.065 51.8837L134.715 57.2837V46.4837ZM134.715 58.9637L144.065 64.3637L134.715 69.7637V58.9637ZM133.735 69.7637L124.385 64.3637L133.735 58.9637V69.7637ZM133.735 57.2837L124.385 51.8837L133.735 46.4837V57.2837ZM123.895 40.2337L133.245 45.6337L123.895 51.0337V40.2337ZM123.895 52.7237L133.245 58.1237L123.895 63.5237V52.7237ZM122.925 63.5237L113.575 58.1237L122.925 52.7237V63.5237ZM122.925 51.0337L113.575 45.6337L122.925 40.2337V51.0337ZM113.085 33.9937L122.435 39.3937L113.085 44.7937V33.9937ZM113.085 46.4837L122.435 51.8837L113.085 57.2837V46.4837ZM112.115 57.2837L102.765 51.8837L112.115 46.4837V57.2837ZM112.115 44.7937L102.765 39.3937L112.115 33.9937V44.7937ZM102.275 27.7537L111.625 33.1537L102.275 38.5537V27.7537ZM102.275 40.2337L111.625 45.6337L102.275 51.0337V40.2337ZM91.4551 33.9937L100.805 39.3937L91.4551 44.7937V33.9937ZM101.295 51.0337L91.9451 45.6337L101.295 40.2337V51.0337ZM101.295 38.5537L91.9451 33.1537L101.295 27.7537V38.5537ZM100.815 26.9037L91.4551 32.3037V21.5037L100.815 26.9037Z" fill="url(#paint1_linear)"/>
<path d="M133.985 71.0336L133.685 70.8636V120.274L133.825 120.194C133.975 120.104 134.165 120.104 134.315 120.194L161.675 135.994L161.685 135.984L156.775 133.154L162.515 129.844L162.525 128.714L156.295 132.314V121.514L162.545 125.124L162.555 124.004L156.785 120.674L162.595 117.324L162.605 116.194L156.305 119.834V109.034L162.625 112.684L162.635 111.564L156.795 108.194L162.675 104.804L162.685 103.674L156.315 107.354V96.5536L162.705 100.244L162.715 99.1236L156.805 95.7136L162.755 92.2836L162.765 91.1536L156.325 94.8736V84.0736L162.785 87.8036L162.795 86.6836L156.815 83.2336L162.835 79.7636L162.845 78.6336L156.335 82.3936V71.5936L162.865 75.3636L162.875 74.2436L156.825 70.7536L162.915 67.2436L162.925 66.1136L156.345 69.9136V59.1136L162.945 62.9236L162.955 61.8036L156.835 58.2736L162.045 55.2636L162.015 55.2136L134.525 71.0836C134.315 71.1136 134.135 71.1136 133.985 71.0336ZM144.495 126.054L135.145 120.654L144.495 115.254V126.054ZM144.495 113.564L135.145 108.164L144.495 102.764V113.564ZM144.495 101.084L135.145 95.6836L144.495 90.2836V101.084ZM144.495 88.5936L135.145 83.1936L144.495 77.7936V88.5936ZM155.315 132.294L145.965 126.894L155.315 121.494V132.294ZM155.315 119.814L145.965 114.414L155.315 109.014V119.814ZM155.315 107.324L145.965 101.924L155.315 96.5236V107.324ZM155.315 94.8336L145.965 89.4336L155.315 84.0336V94.8336ZM155.315 82.3536L145.965 76.9536L155.315 71.5536V82.3536ZM155.315 59.0636V69.8636L145.965 64.4636L155.315 59.0636ZM145.475 65.3036L154.825 70.7036L145.475 76.1036V65.3036ZM145.475 77.7936L154.825 83.1936L145.475 88.5936V77.7936ZM145.475 90.2836L154.825 95.6836L145.475 101.084V90.2836ZM145.475 102.764L154.825 108.164L145.475 113.564V102.764ZM145.475 115.254L154.825 120.654L145.475 126.054V115.254ZM144.495 65.3036V76.1036L135.145 70.7036L144.495 65.3036ZM134.655 71.5536L144.005 76.9536L134.655 82.3536V71.5536ZM134.655 84.0336L144.005 89.4336L134.655 94.8336V84.0336ZM134.655 96.5236L144.005 101.924L134.655 107.324V96.5236ZM134.655 109.014L144.005 114.414L134.655 119.814V109.014Z" fill="url(#paint2_linear)"/>
<path d="M133.925 70.2838C133.775 70.3738 133.685 70.5338 133.685 70.7038V70.8538L133.985 71.0238C134.135 71.1138 134.325 71.1138 134.475 71.0238L161.965 55.1537L161.545 54.3438L133.925 70.2838Z" fill="url(#paint3_linear)"/>
<path d="M133.685 120.654V120.264L90.7952 145.034L91.0152 145.164C91.1652 145.254 91.2552 145.414 91.2552 145.584V180.754L91.3052 180.744V171.394L99.9052 176.354L100.865 175.784L91.7952 170.544L101.145 165.144V175.614L102.115 175.034V165.134L110.585 170.024L111.545 169.454L102.595 164.294L111.945 158.894V169.214L112.915 168.634V158.884L121.255 163.704L122.215 163.134L113.395 158.044L122.745 152.644V162.814L123.715 162.234V152.634L131.935 157.374L132.895 156.804L124.205 151.784L133.555 146.384V156.414L134.525 155.834V146.384L142.615 151.054L143.575 150.484L135.015 145.544L144.365 140.144V150.024L145.335 149.444V140.144L153.295 144.744L154.255 144.174L145.815 139.304L155.165 133.904V143.634L156.135 143.054V133.904L161.265 136.864V136.854L133.875 121.044C133.775 120.984 133.685 120.824 133.685 120.654ZM91.3052 146.424L100.655 151.824L91.3052 157.224V146.424ZM91.3052 169.714V158.914L100.655 164.314L91.3052 169.714ZM101.145 163.464L91.7952 158.064L101.145 152.664V163.464ZM101.145 150.984L91.7952 145.584L101.145 140.184V150.984ZM102.115 140.184L111.465 145.584L102.115 150.984V140.184ZM102.115 163.464V152.664L111.465 158.064L102.115 163.464ZM111.955 157.224L102.605 151.824L111.955 146.424V157.224ZM111.955 144.734L102.605 139.334L111.955 133.934V144.734ZM112.925 133.934L122.275 139.334L112.925 144.734V133.934ZM112.925 157.224V146.424L122.275 151.824L112.925 157.224ZM122.765 150.984L113.415 145.584L122.765 140.184V150.984ZM122.765 138.494L113.415 133.094L122.765 127.694V138.494ZM123.745 127.694L133.095 133.094L123.745 138.494V127.694ZM123.745 150.984V140.184L133.095 145.584L123.745 150.984ZM133.585 144.734L124.235 139.334L133.585 133.934V144.734ZM133.585 132.254L124.235 126.854L133.585 121.454V132.254ZM145.365 127.694L154.715 133.094L145.365 138.494V127.694ZM144.395 138.494L135.045 133.094L144.395 127.694V138.494ZM134.555 121.454L143.905 126.854L134.555 132.254V121.454ZM134.555 133.934L143.905 139.334L134.555 144.734V133.934Z" fill="url(#paint4_linear)"/>
<path d="M133.825 120.184L133.685 120.264V120.654C133.685 120.824 133.775 120.984 133.925 121.074L161.315 136.884L161.675 135.984L134.315 120.184C134.165 120.104 133.975 120.104 133.825 120.184Z" fill="url(#paint5_linear)"/>
<path d="M25.0151 133.034L19.8351 136.034L25.0251 133.044L25.0151 133.034Z" fill="url(#paint6_linear)"/>
<path d="M90.5751 145.164L90.7951 145.034L48.1151 120.394V120.564C48.1151 120.734 48.0251 120.894 47.8751 120.984L47.0351 121.464V132.254L37.6851 126.854L36.2151 127.704V138.494L26.8651 133.094L25.3951 133.944V141.904L26.3651 142.504V133.944L35.7151 139.344L28.2351 143.664L29.1751 144.244L36.1951 140.184V148.564L37.1651 149.164V140.184L46.5151 145.584L38.6951 150.104L39.6351 150.684L47.0051 146.434V155.224L47.9751 155.824V146.434L57.3251 151.834L49.1551 156.554L50.0951 157.134L57.8151 152.684V161.884L58.7851 162.484V152.684L68.1351 158.084L59.6151 163.004L60.5551 163.584L68.6151 158.934V168.554L69.5851 169.154V158.934L78.9351 164.334L70.0751 169.454L71.0151 170.034L79.4251 165.184V175.214L80.3951 175.814V165.184L89.7451 170.584L80.5351 175.904L81.4751 176.484L90.2251 171.434V180.894L90.2751 180.884V145.614C90.3251 145.404 90.4251 145.244 90.5751 145.164ZM37.1851 127.694L46.5351 133.094L37.1851 138.494V127.694ZM47.0251 144.734L37.6751 139.334L47.0251 133.934V144.734ZM48.0051 121.454L57.3551 126.854L48.0051 132.254V121.454ZM48.0051 133.934L57.3551 139.334L48.0051 144.734V133.934ZM57.8451 150.984L48.4951 145.584L57.8451 140.184V150.984ZM57.8451 138.494L48.4951 133.094L57.8451 127.694V138.494ZM58.8151 127.694L68.1651 133.094L58.8151 138.494V127.694ZM58.8151 140.184L68.1651 145.584L58.8151 150.984V140.184ZM68.6551 157.224L59.3051 151.824L68.6551 146.424V157.224ZM68.6551 144.734L59.3051 139.334L68.6551 133.934V144.734ZM69.6251 133.934L78.9751 139.334L69.6251 144.734V133.934ZM69.6251 146.424L78.9751 151.824L69.6251 157.224V146.424ZM79.4651 163.464L70.1151 158.064L79.4651 152.664V163.464ZM79.4651 150.984L70.1151 145.584L79.4651 140.184V150.984ZM80.4451 140.184L89.7951 145.584L80.4451 150.984V140.184ZM80.4451 152.664L89.7951 158.064L80.4451 163.464V152.664ZM90.2851 169.714L80.9351 164.314L90.2851 158.914V169.714ZM90.2851 157.224L80.9351 151.824L90.2851 146.424V157.224Z" fill="url(#paint7_linear)"/>
<path d="M35.8352 126.804L35.8252 126.794L26.4852 132.194V132.204L35.8352 126.804Z" fill="url(#paint8_linear)"/>
<path d="M46.6452 120.554H46.6352L37.2952 125.944V125.954L46.6452 120.554Z" fill="url(#paint9_linear)"/>
<path d="M91.0151 145.164L90.7951 145.034L90.5751 145.164C90.4251 145.254 90.3351 145.414 90.3351 145.584V180.854L91.2651 180.754V145.584C91.2551 145.404 91.1651 145.244 91.0151 145.164Z" fill="url(#paint10_linear)"/>
<path d="M26.8652 133.094V133.104L36.2152 127.704V127.694L26.8652 133.094Z" fill="url(#paint11_linear)"/>
<path d="M20.2452 136.914L20.2552 136.924L25.4052 133.944V133.934L20.2452 136.914Z" fill="url(#paint12_linear)"/>
<path d="M47.1352 69.7838V69.7738L37.7952 64.3838H37.7852L47.1352 69.7838Z" fill="url(#paint13_linear)"/>
<path d="M37.6752 126.854H37.6852L47.0252 121.464V121.454L37.6752 126.854Z" fill="url(#paint14_linear)"/>
<path d="M36.3252 63.5438V63.5238L26.9852 58.1338L26.9752 58.1438L36.3252 63.5438Z" fill="url(#paint15_linear)"/>
<path d="M26.4852 132.194V121.404L35.8352 126.804L37.3052 125.954V115.164L46.6552 120.564L47.2852 120.204C47.4352 120.114 47.6252 120.114 47.7752 120.204L48.1252 120.404V70.9138L47.8852 71.0538C47.7352 71.1438 47.5452 71.1438 47.3952 71.0538L46.6452 70.6238L37.3052 76.0138V65.2238L35.8352 64.3738L26.4952 69.7638V58.9838L25.0252 58.1338L19.3452 61.4138L19.3352 62.5438L25.5252 58.9738V69.7738L19.3152 66.1938L19.2952 67.3038L25.0252 70.6138L19.2652 73.9438L19.2552 75.0738L25.5152 71.4638V82.2638L19.2352 78.6438L19.2252 79.7638L25.0252 83.1138L19.1852 86.4838L19.1752 87.6138L25.5052 83.9638V94.7638L19.1552 91.0938L19.1452 92.2138L25.0152 95.6038L19.1052 99.0138L19.0952 100.144L25.4952 96.4538V107.254L19.0752 103.544L19.0652 104.664L25.0052 108.094L19.0252 111.544L19.0152 112.674L25.4852 108.934V119.734L18.9952 115.984L18.9852 117.104L24.9952 120.574L18.9452 124.064L18.9352 125.194L25.4752 121.414V132.214L18.9152 128.424L18.9052 129.544L24.9752 133.054L26.4852 132.194ZM47.1352 119.714L37.7852 114.314L47.1352 108.914V119.714ZM47.1352 107.224L37.7852 101.824L47.1352 96.4238V107.224ZM47.1352 94.7438L37.7852 89.3438L47.1352 83.9438V94.7438ZM47.1352 71.4538V82.2538L37.7852 76.8538L47.1352 71.4538ZM37.2952 77.6938L46.6452 83.0938L37.2952 88.4938V77.6938ZM37.2952 90.1838L46.6452 95.5838L37.2952 100.984V90.1838ZM37.2952 102.674L46.6452 108.074L37.2952 113.474V102.674ZM36.3252 125.954L26.9752 120.554L36.3252 115.154V125.954ZM36.3252 113.474L26.9752 108.074L36.3252 102.674V113.474ZM36.3252 100.984L26.9752 95.5838L36.3252 90.1838V100.984ZM36.3252 88.4938L26.9752 83.0938L36.3252 77.6938V88.4938ZM36.3252 65.2138V76.0138L26.9752 70.6138L36.3252 65.2138ZM26.4852 71.4538L35.8352 76.8538L26.4852 82.2538V71.4538ZM26.4852 83.9438L35.8352 89.3438L26.4852 94.7438V83.9438ZM26.4852 96.4238L35.8352 101.824L26.4852 107.224V96.4238ZM26.4852 108.914L35.8352 114.314L26.4852 119.714V108.914Z" fill="url(#paint16_linear)"/>
<path d="M25.5151 57.2836L19.3351 53.7236V53.7336L25.5151 57.3036V57.2836Z" fill="url(#paint17_linear)"/>
<path d="M47.2752 120.184L46.6452 120.544H46.6552L37.3052 125.944V125.934L35.8352 126.784H35.8452L26.4952 132.184V132.174L25.0252 133.024H25.0352L19.8452 136.014L20.2552 136.894L25.4052 133.924V133.934L26.8752 133.084H26.8652L36.2152 127.684V127.694L37.6852 126.844H37.6752L47.0252 121.444V121.454L47.8652 120.974C48.0152 120.884 48.1052 120.724 48.1052 120.554V120.384L47.7552 120.184C47.6052 120.104 47.4252 120.104 47.2752 120.184Z" fill="url(#paint18_linear)"/>
<path d="M37.2952 65.2136V65.2236L46.6352 70.6236L46.6452 70.6136L37.2952 65.2136Z" fill="url(#paint19_linear)"/>
<path d="M26.4852 58.9636V58.9836L35.8252 64.3736L35.8352 64.3636L26.4852 58.9636Z" fill="url(#paint20_linear)"/>
<path d="M19.3351 54.8438V54.8638L25.0051 58.1338L25.0251 58.1237L19.3351 54.8438Z" fill="url(#paint21_linear)"/>
<path d="M90.7251 46.0537C90.5751 45.9637 90.4851 45.8037 90.4851 45.6337V9.80371H90.3951V19.8437L81.4751 14.6937L79.5851 15.8137V26.0937L70.7751 21.0037L69.8151 21.5737L79.0951 26.9337L69.7451 32.3337V21.6037L68.7751 22.1737V32.3237L60.0751 27.3037L59.1151 27.8737L68.2851 33.1737L58.9351 38.5737V27.9837L57.9651 28.5537V38.5737L49.3851 33.6137L48.4251 34.1837L57.4851 39.4137L48.1351 44.8137V34.3537L47.1651 34.9237V44.8137L38.6951 39.9237L37.7351 40.4937L46.6851 45.6637L37.3351 51.0637V40.7337L36.3251 41.3037V51.0537L27.9651 46.2237L27.0051 46.7937L35.8451 51.8937L26.4851 57.3037V47.1037L25.5151 47.6737V57.2837L26.9851 58.1337L36.3251 52.7437V63.5337L37.7951 64.3837L47.1351 58.9937V69.7737L47.8551 70.1937C48.0051 70.2837 48.0951 70.4437 48.0951 70.6137V70.9137L90.9351 46.1837L90.7251 46.0537ZM37.2951 63.5437V52.7437L46.6451 58.1437L37.2951 63.5437ZM47.1351 57.3037L37.7851 51.9037L47.1351 46.5037V57.3037ZM48.1151 46.5037L57.4651 51.9037L48.1151 57.3037V46.5037ZM48.1151 69.7837V58.9837L57.4651 64.3837L48.1151 69.7837ZM57.9551 63.5437L48.6051 58.1437L57.9551 52.7437V63.5437ZM57.9551 51.0537L48.6051 45.6537L57.9551 40.2537V51.0537ZM58.9251 40.2537L68.2751 45.6537L58.9251 51.0537V40.2537ZM58.9251 63.5437V52.7437L68.2751 58.1437L58.9251 63.5437ZM68.7651 57.3037L59.4151 51.9037L68.7651 46.5037V57.3037ZM68.7651 44.8137L59.4151 39.4137L68.7651 34.0137V44.8137ZM69.7351 34.0137L79.0851 39.4137L69.7351 44.8137V34.0137ZM69.7351 57.3037V46.5037L79.0851 51.9037L69.7351 57.3037ZM79.5751 51.0537L70.2251 45.6537L79.5751 40.2537V51.0537ZM79.5751 38.5737L70.2251 33.1737L79.5751 27.7737V38.5737ZM80.5551 15.2837L89.9051 20.6837L80.5551 26.0837V15.2837ZM80.5551 27.7737L89.9051 33.1737L80.5551 38.5737V27.7737ZM80.5551 51.0537V40.2537L89.9051 45.6537L80.5551 51.0537ZM90.3951 44.8137L81.0451 39.4137L90.3951 34.0137V44.8137ZM90.3951 32.3237L81.0451 26.9237L90.3951 21.5237V32.3237Z" fill="url(#paint22_linear)"/>
<path d="M90.7252 46.0537L90.9452 46.1737L91.1252 46.0737C91.2752 45.9837 91.3652 45.8237 91.3652 45.6537V9.82371L90.4852 9.80371V45.6337C90.4852 45.8137 90.5752 45.9737 90.7252 46.0537Z" fill="url(#paint23_linear)"/>
<path d="M47.8652 70.1937L47.1452 69.7737V69.7937L37.7952 64.3937L37.8052 64.3837L36.3352 63.5337V63.5537L26.9852 58.1537L26.9952 58.1437L25.5252 57.2937V57.3037L19.3552 53.7437V54.8537L25.0352 58.1337L25.0252 58.1437L26.4952 58.9937V58.9837L35.8452 64.3837L35.8352 64.3937L37.3052 65.2437V65.2337L46.6552 70.6337L46.6452 70.6437L47.3952 71.0737C47.5452 71.1637 47.7352 71.1637 47.8852 71.0737L48.1252 70.9337V70.6337C48.1052 70.4337 48.0152 70.2737 47.8652 70.1937Z" fill="url(#paint24_linear)"/>
<path d="M91.4551 9.82373H91.3651V45.6537C91.3651 45.8237 91.2751 45.9837 91.1251 46.0737L90.9451 46.1737L133.685 70.8537V70.7037C133.685 70.5337 133.775 70.3737 133.925 70.2837L161.535 54.3437L161.505 54.2937L156.335 57.2837V48.3737L155.365 47.7937V57.2937L146.015 51.8937L154.265 47.1337L153.315 46.5637L145.535 51.0537V41.8837L144.565 41.3037V51.0537L135.215 45.6537L143.675 40.7637L142.725 40.1937L134.725 44.8137V35.3937L133.755 34.8137V44.8237L124.405 39.4237L133.085 34.4137L132.135 33.8437L123.915 38.5837V28.9037L122.945 28.3237V38.5837L113.595 33.1837L122.495 28.0437L121.545 27.4737L113.085 32.3037V22.3737L112.115 21.7937V32.3037L102.765 26.9037L111.875 21.6437L110.925 21.0737L102.275 26.0637V15.8737L101.305 15.2937V26.0637L91.9551 20.6637L101.285 15.2737L100.325 14.7037L91.4651 19.8237V9.82373H91.4551ZM145.525 52.7237L154.875 58.1237L145.525 63.5237V52.7237ZM144.555 63.5237L135.205 58.1237L144.555 52.7237V63.5237ZM134.715 46.4837L144.065 51.8837L134.715 57.2837V46.4837ZM134.715 58.9637L144.065 64.3637L134.715 69.7637V58.9637ZM133.735 69.7637L124.385 64.3637L133.735 58.9637V69.7637ZM133.735 57.2837L124.385 51.8837L133.735 46.4837V57.2837ZM123.895 40.2337L133.245 45.6337L123.895 51.0337V40.2337ZM123.895 52.7237L133.245 58.1237L123.895 63.5237V52.7237ZM122.925 63.5237L113.575 58.1237L122.925 52.7237V63.5237ZM122.925 51.0337L113.575 45.6337L122.925 40.2337V51.0337ZM113.085 33.9937L122.435 39.3937L113.085 44.7937V33.9937ZM113.085 46.4837L122.435 51.8837L113.085 57.2837V46.4837ZM112.115 57.2837L102.765 51.8837L112.115 46.4837V57.2837ZM112.115 44.7937L102.765 39.3937L112.115 33.9937V44.7937ZM102.275 27.7537L111.625 33.1537L102.275 38.5537V27.7537ZM102.275 40.2337L111.625 45.6337L102.275 51.0337V40.2337ZM91.4551 33.9937L100.805 39.3937L91.4551 44.7937V33.9937ZM101.295 51.0337L91.9451 45.6337L101.295 40.2337V51.0337ZM101.295 38.5537L91.9451 33.1537L101.295 27.7537V38.5537ZM100.815 26.9037L91.4551 32.3037V21.5037L100.815 26.9037Z" fill="url(#paint25_linear)"/>
<path d="M133.985 71.0336L133.685 70.8636V120.274L133.825 120.194C133.975 120.104 134.165 120.104 134.315 120.194L161.675 135.994L161.685 135.984L156.775 133.154L162.515 129.844L162.525 128.714L156.295 132.314V121.514L162.545 125.124L162.555 124.004L156.785 120.674L162.595 117.324L162.605 116.194L156.305 119.834V109.034L162.625 112.684L162.635 111.564L156.795 108.194L162.675 104.804L162.685 103.674L156.315 107.354V96.5536L162.705 100.244L162.715 99.1236L156.805 95.7136L162.755 92.2836L162.765 91.1536L156.325 94.8736V84.0736L162.785 87.8036L162.795 86.6836L156.815 83.2336L162.835 79.7636L162.845 78.6336L156.335 82.3936V71.5936L162.865 75.3636L162.875 74.2436L156.825 70.7536L162.915 67.2436L162.925 66.1136L156.345 69.9136V59.1136L162.945 62.9236L162.955 61.8036L156.835 58.2736L162.045 55.2636L162.015 55.2136L134.525 71.0836C134.315 71.1136 134.135 71.1136 133.985 71.0336ZM144.495 126.054L135.145 120.654L144.495 115.254V126.054ZM144.495 113.564L135.145 108.164L144.495 102.764V113.564ZM144.495 101.084L135.145 95.6836L144.495 90.2836V101.084ZM144.495 88.5936L135.145 83.1936L144.495 77.7936V88.5936ZM155.315 132.294L145.965 126.894L155.315 121.494V132.294ZM155.315 119.814L145.965 114.414L155.315 109.014V119.814ZM155.315 107.324L145.965 101.924L155.315 96.5236V107.324ZM155.315 94.8336L145.965 89.4336L155.315 84.0336V94.8336ZM155.315 82.3536L145.965 76.9536L155.315 71.5536V82.3536ZM155.315 59.0636V69.8636L145.965 64.4636L155.315 59.0636ZM145.475 65.3036L154.825 70.7036L145.475 76.1036V65.3036ZM145.475 77.7936L154.825 83.1936L145.475 88.5936V77.7936ZM145.475 90.2836L154.825 95.6836L145.475 101.084V90.2836ZM145.475 102.764L154.825 108.164L145.475 113.564V102.764ZM145.475 115.254L154.825 120.654L145.475 126.054V115.254ZM144.495 65.3036V76.1036L135.145 70.7036L144.495 65.3036ZM134.655 71.5536L144.005 76.9536L134.655 82.3536V71.5536ZM134.655 84.0336L144.005 89.4336L134.655 94.8336V84.0336ZM134.655 96.5236L144.005 101.924L134.655 107.324V96.5236ZM134.655 109.014L144.005 114.414L134.655 119.814V109.014Z" fill="url(#paint26_linear)"/>
<path d="M133.925 70.2838C133.775 70.3738 133.685 70.5338 133.685 70.7038V70.8538L133.985 71.0238C134.135 71.1138 134.325 71.1138 134.475 71.0238L161.965 55.1537L161.545 54.3438L133.925 70.2838Z" fill="url(#paint27_linear)"/>
<path d="M133.685 120.654V120.264L90.7952 145.034L91.0152 145.164C91.1652 145.254 91.2552 145.414 91.2552 145.584V180.754L91.3052 180.744V171.394L99.9052 176.354L100.865 175.784L91.7952 170.544L101.145 165.144V175.614L102.115 175.034V165.134L110.585 170.024L111.545 169.454L102.595 164.294L111.945 158.894V169.214L112.915 168.634V158.884L121.255 163.704L122.215 163.134L113.395 158.044L122.745 152.644V162.814L123.715 162.234V152.634L131.935 157.374L132.895 156.804L124.205 151.784L133.555 146.384V156.414L134.525 155.834V146.384L142.615 151.054L143.575 150.484L135.015 145.544L144.365 140.144V150.024L145.335 149.444V140.144L153.295 144.744L154.255 144.174L145.815 139.304L155.165 133.904V143.634L156.135 143.054V133.904L161.265 136.864V136.854L133.875 121.044C133.775 120.984 133.685 120.824 133.685 120.654ZM91.3052 146.424L100.655 151.824L91.3052 157.224V146.424ZM91.3052 169.714V158.914L100.655 164.314L91.3052 169.714ZM101.145 163.464L91.7952 158.064L101.145 152.664V163.464ZM101.145 150.984L91.7952 145.584L101.145 140.184V150.984ZM102.115 140.184L111.465 145.584L102.115 150.984V140.184ZM102.115 163.464V152.664L111.465 158.064L102.115 163.464ZM111.955 157.224L102.605 151.824L111.955 146.424V157.224ZM111.955 144.734L102.605 139.334L111.955 133.934V144.734ZM112.925 133.934L122.275 139.334L112.925 144.734V133.934ZM112.925 157.224V146.424L122.275 151.824L112.925 157.224ZM122.765 150.984L113.415 145.584L122.765 140.184V150.984ZM122.765 138.494L113.415 133.094L122.765 127.694V138.494ZM123.745 127.694L133.095 133.094L123.745 138.494V127.694ZM123.745 150.984V140.184L133.095 145.584L123.745 150.984ZM133.585 144.734L124.235 139.334L133.585 133.934V144.734ZM133.585 132.254L124.235 126.854L133.585 121.454V132.254ZM145.365 127.694L154.715 133.094L145.365 138.494V127.694ZM144.395 138.494L135.045 133.094L144.395 127.694V138.494ZM134.555 121.454L143.905 126.854L134.555 132.254V121.454ZM134.555 133.934L143.905 139.334L134.555 144.734V133.934Z" fill="url(#paint28_linear)"/>
<path d="M133.825 120.184L133.685 120.264V120.654C133.685 120.824 133.775 120.984 133.925 121.074L161.315 136.884L161.675 135.984L134.315 120.184C134.165 120.104 133.975 120.104 133.825 120.184Z" fill="url(#paint29_linear)"/>
<path d="M25.0151 133.034L19.8351 136.034L25.0251 133.044L25.0151 133.034Z" fill="url(#paint30_linear)"/>
<path d="M90.5751 145.164L90.7951 145.034L48.1151 120.394V120.564C48.1151 120.734 48.0251 120.894 47.8751 120.984L47.0351 121.464V132.254L37.6851 126.854L36.2151 127.704V138.494L26.8651 133.094L25.3951 133.944V141.904L26.3651 142.504V133.944L35.7151 139.344L28.2351 143.664L29.1751 144.244L36.1951 140.184V148.564L37.1651 149.164V140.184L46.5151 145.584L38.6951 150.104L39.6351 150.684L47.0051 146.434V155.224L47.9751 155.824V146.434L57.3251 151.834L49.1551 156.554L50.0951 157.134L57.8151 152.684V161.884L58.7851 162.484V152.684L68.1351 158.084L59.6151 163.004L60.5551 163.584L68.6151 158.934V168.554L69.5851 169.154V158.934L78.9351 164.334L70.0751 169.454L71.0151 170.034L79.4251 165.184V175.214L80.3951 175.814V165.184L89.7451 170.584L80.5351 175.904L81.4751 176.484L90.2251 171.434V180.894L90.2751 180.884V145.614C90.3251 145.404 90.4251 145.244 90.5751 145.164ZM37.1851 127.694L46.5351 133.094L37.1851 138.494V127.694ZM47.0251 144.734L37.6751 139.334L47.0251 133.934V144.734ZM48.0051 121.454L57.3551 126.854L48.0051 132.254V121.454ZM48.0051 133.934L57.3551 139.334L48.0051 144.734V133.934ZM57.8451 150.984L48.4951 145.584L57.8451 140.184V150.984ZM57.8451 138.494L48.4951 133.094L57.8451 127.694V138.494ZM58.8151 127.694L68.1651 133.094L58.8151 138.494V127.694ZM58.8151 140.184L68.1651 145.584L58.8151 150.984V140.184ZM68.6551 157.224L59.3051 151.824L68.6551 146.424V157.224ZM68.6551 144.734L59.3051 139.334L68.6551 133.934V144.734ZM69.6251 133.934L78.9751 139.334L69.6251 144.734V133.934ZM69.6251 146.424L78.9751 151.824L69.6251 157.224V146.424ZM79.4651 163.464L70.1151 158.064L79.4651 152.664V163.464ZM79.4651 150.984L70.1151 145.584L79.4651 140.184V150.984ZM80.4451 140.184L89.7951 145.584L80.4451 150.984V140.184ZM80.4451 152.664L89.7951 158.064L80.4451 163.464V152.664ZM90.2851 169.714L80.9351 164.314L90.2851 158.914V169.714ZM90.2851 157.224L80.9351 151.824L90.2851 146.424V157.224Z" fill="url(#paint31_linear)"/>
<path d="M35.8352 126.804L35.8252 126.794L26.4852 132.194V132.204L35.8352 126.804Z" fill="url(#paint32_linear)"/>
<path d="M46.6452 120.554H46.6352L37.2952 125.944V125.954L46.6452 120.554Z" fill="url(#paint33_linear)"/>
<path d="M91.0151 145.164L90.7951 145.034L90.5751 145.164C90.4251 145.254 90.3351 145.414 90.3351 145.584V180.854L91.2651 180.754V145.584C91.2551 145.404 91.1651 145.244 91.0151 145.164Z" fill="url(#paint34_linear)"/>
<path d="M26.8652 133.094V133.104L36.2152 127.704V127.694L26.8652 133.094Z" fill="url(#paint35_linear)"/>
<path d="M20.2452 136.914L20.2552 136.924L25.4052 133.944V133.934L20.2452 136.914Z" fill="url(#paint36_linear)"/>
<path d="M47.1352 69.7838V69.7738L37.7952 64.3838H37.7852L47.1352 69.7838Z" fill="url(#paint37_linear)"/>
<path d="M37.6752 126.854H37.6852L47.0252 121.464V121.454L37.6752 126.854Z" fill="url(#paint38_linear)"/>
<path d="M36.3252 63.5438V63.5238L26.9852 58.1338L26.9752 58.1438L36.3252 63.5438Z" fill="url(#paint39_linear)"/>
<path d="M26.4852 132.194V121.404L35.8352 126.804L37.3052 125.954V115.164L46.6552 120.564L47.2852 120.204C47.4352 120.114 47.6252 120.114 47.7752 120.204L48.1252 120.404V70.9138L47.8852 71.0538C47.7352 71.1438 47.5452 71.1438 47.3952 71.0538L46.6452 70.6238L37.3052 76.0138V65.2238L35.8352 64.3738L26.4952 69.7638V58.9838L25.0252 58.1338L19.3452 61.4138L19.3352 62.5438L25.5252 58.9738V69.7738L19.3152 66.1938L19.2952 67.3038L25.0252 70.6138L19.2652 73.9438L19.2552 75.0738L25.5152 71.4638V82.2638L19.2352 78.6438L19.2252 79.7638L25.0252 83.1138L19.1852 86.4838L19.1752 87.6138L25.5052 83.9638V94.7638L19.1552 91.0938L19.1452 92.2138L25.0152 95.6038L19.1052 99.0138L19.0952 100.144L25.4952 96.4538V107.254L19.0752 103.544L19.0652 104.664L25.0052 108.094L19.0252 111.544L19.0152 112.674L25.4852 108.934V119.734L18.9952 115.984L18.9852 117.104L24.9952 120.574L18.9452 124.064L18.9352 125.194L25.4752 121.414V132.214L18.9152 128.424L18.9052 129.544L24.9752 133.054L26.4852 132.194ZM47.1352 119.714L37.7852 114.314L47.1352 108.914V119.714ZM47.1352 107.224L37.7852 101.824L47.1352 96.4238V107.224ZM47.1352 94.7438L37.7852 89.3438L47.1352 83.9438V94.7438ZM47.1352 71.4538V82.2538L37.7852 76.8538L47.1352 71.4538ZM37.2952 77.6938L46.6452 83.0938L37.2952 88.4938V77.6938ZM37.2952 90.1838L46.6452 95.5838L37.2952 100.984V90.1838ZM37.2952 102.674L46.6452 108.074L37.2952 113.474V102.674ZM36.3252 125.954L26.9752 120.554L36.3252 115.154V125.954ZM36.3252 113.474L26.9752 108.074L36.3252 102.674V113.474ZM36.3252 100.984L26.9752 95.5838L36.3252 90.1838V100.984ZM36.3252 88.4938L26.9752 83.0938L36.3252 77.6938V88.4938ZM36.3252 65.2138V76.0138L26.9752 70.6138L36.3252 65.2138ZM26.4852 71.4538L35.8352 76.8538L26.4852 82.2538V71.4538ZM26.4852 83.9438L35.8352 89.3438L26.4852 94.7438V83.9438ZM26.4852 96.4238L35.8352 101.824L26.4852 107.224V96.4238ZM26.4852 108.914L35.8352 114.314L26.4852 119.714V108.914Z" fill="url(#paint40_linear)"/>
<path d="M25.5151 57.2836L19.3351 53.7236V53.7336L25.5151 57.3036V57.2836Z" fill="url(#paint41_linear)"/>
<path d="M47.2752 120.184L46.6452 120.544H46.6552L37.3052 125.944V125.934L35.8352 126.784H35.8452L26.4952 132.184V132.174L25.0252 133.024H25.0352L19.8452 136.014L20.2552 136.894L25.4052 133.924V133.934L26.8752 133.084H26.8652L36.2152 127.684V127.694L37.6852 126.844H37.6752L47.0252 121.444V121.454L47.8652 120.974C48.0152 120.884 48.1052 120.724 48.1052 120.554V120.384L47.7552 120.184C47.6052 120.104 47.4252 120.104 47.2752 120.184Z" fill="url(#paint42_linear)"/>
<path d="M37.2952 65.2136V65.2236L46.6352 70.6236L46.6452 70.6136L37.2952 65.2136Z" fill="url(#paint43_linear)"/>
<path d="M26.4852 58.9636V58.9836L35.8252 64.3736L35.8352 64.3636L26.4852 58.9636Z" fill="url(#paint44_linear)"/>
<path d="M19.3351 54.8438V54.8638L25.0051 58.1338L25.0251 58.1237L19.3351 54.8438Z" fill="url(#paint45_linear)"/>
<path d="M90.7251 46.0537C90.5751 45.9637 90.4851 45.8037 90.4851 45.6337V9.80371H90.3951V19.8437L81.4751 14.6937L79.5851 15.8137V26.0937L70.7751 21.0037L69.8151 21.5737L79.0951 26.9337L69.7451 32.3337V21.6037L68.7751 22.1737V32.3237L60.0751 27.3037L59.1151 27.8737L68.2851 33.1737L58.9351 38.5737V27.9837L57.9651 28.5537V38.5737L49.3851 33.6137L48.4251 34.1837L57.4851 39.4137L48.1351 44.8137V34.3537L47.1651 34.9237V44.8137L38.6951 39.9237L37.7351 40.4937L46.6851 45.6637L37.3351 51.0637V40.7337L36.3251 41.3037V51.0537L27.9651 46.2237L27.0051 46.7937L35.8451 51.8937L26.4851 57.3037V47.1037L25.5151 47.6737V57.2837L26.9851 58.1337L36.3251 52.7437V63.5337L37.7951 64.3837L47.1351 58.9937V69.7737L47.8551 70.1937C48.0051 70.2837 48.0951 70.4437 48.0951 70.6137V70.9137L90.9351 46.1837L90.7251 46.0537ZM37.2951 63.5437V52.7437L46.6451 58.1437L37.2951 63.5437ZM47.1351 57.3037L37.7851 51.9037L47.1351 46.5037V57.3037ZM48.1151 46.5037L57.4651 51.9037L48.1151 57.3037V46.5037ZM48.1151 69.7837V58.9837L57.4651 64.3837L48.1151 69.7837ZM57.9551 63.5437L48.6051 58.1437L57.9551 52.7437V63.5437ZM57.9551 51.0537L48.6051 45.6537L57.9551 40.2537V51.0537ZM58.9251 40.2537L68.2751 45.6537L58.9251 51.0537V40.2537ZM58.9251 63.5437V52.7437L68.2751 58.1437L58.9251 63.5437ZM68.7651 57.3037L59.4151 51.9037L68.7651 46.5037V57.3037ZM68.7651 44.8137L59.4151 39.4137L68.7651 34.0137V44.8137ZM69.7351 34.0137L79.0851 39.4137L69.7351 44.8137V34.0137ZM69.7351 57.3037V46.5037L79.0851 51.9037L69.7351 57.3037ZM79.5751 51.0537L70.2251 45.6537L79.5751 40.2537V51.0537ZM79.5751 38.5737L70.2251 33.1737L79.5751 27.7737V38.5737ZM80.5551 15.2837L89.9051 20.6837L80.5551 26.0837V15.2837ZM80.5551 27.7737L89.9051 33.1737L80.5551 38.5737V27.7737ZM80.5551 51.0537V40.2537L89.9051 45.6537L80.5551 51.0537ZM90.3951 44.8137L81.0451 39.4137L90.3951 34.0137V44.8137ZM90.3951 32.3237L81.0451 26.9237L90.3951 21.5237V32.3237Z" fill="url(#paint46_linear)"/>
<path d="M90.7252 46.0537L90.9452 46.1737L91.1252 46.0737C91.2752 45.9837 91.3652 45.8237 91.3652 45.6537V9.82371L90.4852 9.80371V45.6337C90.4852 45.8137 90.5752 45.9737 90.7252 46.0537Z" fill="url(#paint47_linear)"/>
<path d="M47.8652 70.1937L47.1452 69.7737V69.7937L37.7952 64.3937L37.8052 64.3837L36.3352 63.5337V63.5537L26.9852 58.1537L26.9952 58.1437L25.5252 57.2937V57.3037L19.3552 53.7437V54.8537L25.0352 58.1337L25.0252 58.1437L26.4952 58.9937V58.9837L35.8452 64.3837L35.8352 64.3937L37.3052 65.2437V65.2337L46.6552 70.6337L46.6452 70.6437L47.3952 71.0737C47.5452 71.1637 47.7352 71.1637 47.8852 71.0737L48.1252 70.9337V70.6337C48.1052 70.4337 48.0152 70.2737 47.8652 70.1937Z" fill="url(#paint48_linear)"/>
<path d="M90.9152 45.8137L47.6652 70.8737L47.7352 120.254L90.9152 145.314L101.945 138.884L123.135 151.674L134.015 145.464L133.795 133.114L123.495 126.764L133.875 120.624L133.945 70.7237L90.9152 45.8137Z" fill="#F2F1F0"/>
<path d="M134.605 120.554V70.6037C134.605 70.4337 134.515 70.2737 134.365 70.1837L91.1051 45.2137C90.9551 45.1237 90.7651 45.1237 90.6151 45.2137L47.3651 70.1837C47.2151 70.2737 47.1251 70.4337 47.1251 70.6037V120.544C47.1251 120.714 47.2151 120.874 47.3651 120.964L90.6151 145.934C90.6951 145.974 90.7751 145.994 90.8551 145.994C90.9351 145.994 91.0251 145.974 91.0951 145.934L101.665 139.834L112.235 145.934L123.045 152.174C123.125 152.214 123.205 152.234 123.285 152.234C123.365 152.234 123.455 152.214 123.525 152.174L134.335 145.934C134.485 145.844 134.575 145.684 134.575 145.514V133.024C134.575 132.854 134.485 132.694 134.335 132.604L124.255 126.784L134.335 120.964C134.505 120.884 134.605 120.724 134.605 120.554ZM112.975 132.194V121.394L122.325 126.794L112.975 132.194ZM90.3751 94.7337L81.0251 89.3337L90.3751 83.9337V94.7337ZM91.3451 83.9337L100.695 89.3337L91.3451 94.7337V83.9337ZM89.8851 95.5737L80.5351 100.974V90.1737L89.8851 95.5737ZM90.3751 96.4237V107.224L81.0251 101.824L90.3751 96.4237ZM91.3451 96.4237L100.695 101.824L91.3451 107.224V96.4237ZM91.8351 95.5737L101.185 90.1737V100.974L91.8351 95.5737ZM91.8351 83.0937L101.185 77.6937V88.4937L91.8351 83.0937ZM80.5351 88.4937V77.6937L89.8851 83.0937L80.5351 88.4937ZM79.5651 100.974L70.2151 95.5737L79.5651 90.1737V100.974ZM89.8851 108.064L80.5351 113.464V102.664L89.8851 108.064ZM101.185 102.664V113.464L91.8351 108.064L101.185 102.664ZM102.165 90.1737L111.515 95.5737L102.165 100.974V90.1737ZM102.645 89.3337L111.995 83.9337V94.7337L102.645 89.3337ZM102.165 88.4937V77.6937L111.515 83.0937L102.165 88.4937ZM91.3451 82.2437V71.4437L100.695 76.8437L91.3451 82.2437ZM90.3751 82.2437L81.0251 76.8437L90.3751 71.4437V82.2437ZM79.5651 88.4937L70.2151 83.0937L79.5651 77.6937V88.4937ZM79.0751 89.3337L69.7251 94.7337V83.9337L79.0751 89.3337ZM79.0751 101.824L69.7251 107.224V96.4237L79.0751 101.824ZM79.5651 102.664V113.464L70.2151 108.064L79.5651 102.664ZM90.3751 108.904V119.704L81.0251 114.304L90.3751 108.904ZM91.3451 108.904L100.695 114.304L91.3451 119.704V108.904ZM102.165 102.664L111.515 108.064L102.165 113.464V102.664ZM102.645 101.824L111.995 96.4237V107.224L102.645 101.824ZM112.975 83.9337L122.325 89.3337L112.975 94.7337V83.9337ZM102.645 76.8437L111.995 71.4437V82.2437L102.645 76.8437ZM91.8351 70.6037L101.185 65.2037V76.0037L91.8351 70.6037ZM80.5351 76.0037V65.2037L89.8851 70.6037L80.5351 76.0037ZM69.7251 82.2437V71.4437L79.0751 76.8437L69.7251 82.2437ZM68.7451 94.7337L59.3951 89.3337L68.7451 83.9337V94.7337ZM68.7451 107.224L59.3951 101.824L68.7451 96.4237V107.224ZM79.0751 114.304L69.7251 119.704V108.904L79.0751 114.304ZM89.8851 120.554L80.5351 125.954V115.154L89.8851 120.554ZM101.185 115.154V125.954L91.8351 120.554L101.185 115.154ZM112.005 108.904V119.704L102.655 114.304L112.005 108.904ZM112.975 96.4237L122.325 101.824L112.975 107.224V96.4237ZM113.465 95.5737L122.815 90.1737V100.974L113.465 95.5737ZM113.465 83.0937L122.815 77.6937V88.4937L113.465 83.0937ZM112.975 82.2437V71.4437L122.325 76.8437L112.975 82.2437ZM102.165 76.0037V65.2037L111.515 70.6037L102.165 76.0037ZM91.3451 69.7637V58.9637L100.695 64.3637L91.3451 69.7637ZM90.3751 69.7637L81.0251 64.3637L90.3751 58.9637V69.7637ZM79.5651 76.0037L70.2151 70.6037L79.5651 65.2037V76.0037ZM68.7451 82.2437L59.3951 76.8437L68.7451 71.4437V82.2437ZM68.2651 83.0937L58.9151 88.4937V77.6937L68.2651 83.0937ZM68.2651 95.5737L58.9151 100.974V90.1737L68.2651 95.5737ZM68.2651 108.064L58.9151 113.464V102.664L68.2651 108.064ZM68.7451 108.904V119.704L59.3951 114.304L68.7451 108.904ZM79.5651 115.154V125.954L70.2151 120.554L79.5651 115.154ZM90.3751 121.394V132.194L81.0251 126.794L90.3751 121.394ZM91.3451 121.394L100.695 126.794L91.3451 132.194V121.394ZM102.165 115.154L111.515 120.554L102.165 125.954V115.154ZM112.975 108.904L122.325 114.304L112.975 119.704V108.904ZM113.465 108.064L122.815 102.664V113.464L113.465 108.064ZM123.785 90.1737L133.135 95.5737L123.785 100.974V90.1737ZM123.785 77.6937L133.135 83.0937L123.785 88.4937V77.6937ZM113.465 70.6037L122.815 65.2037V76.0037L113.465 70.6037ZM102.645 64.3637L111.995 58.9637V69.7637L102.645 64.3637ZM91.8351 58.1137L101.185 52.7137V63.5137L91.8351 58.1137ZM80.5351 63.5137V52.7137L89.8851 58.1137L80.5351 63.5137ZM69.7251 69.7637V58.9637L79.0751 64.3637L69.7251 69.7637ZM58.9051 76.0037V65.2037L68.2551 70.6037L58.9051 76.0037ZM57.9351 88.4937L48.5851 83.0937L57.9351 77.6937V88.4937ZM57.9351 100.974L48.5851 95.5737L57.9351 90.1737V100.974ZM57.9351 113.464L48.5851 108.064L57.9351 102.664V113.464ZM68.2651 120.554L58.9151 125.954V115.154L68.2651 120.554ZM79.0751 126.794L69.7251 132.194V121.394L79.0751 126.794ZM89.8851 133.034L80.5351 138.434V127.634L89.8851 133.034ZM101.185 127.634V138.434L91.8351 133.034L101.185 127.634ZM112.005 121.394V132.194L102.655 126.794L112.005 121.394ZM122.815 127.634V138.434L113.465 133.034L122.815 127.634ZM113.465 120.554L122.815 115.154V125.954L113.465 120.554ZM123.785 102.664L133.135 108.064L123.785 113.464V102.664ZM124.275 101.824L133.625 96.4237V107.224L124.275 101.824ZM124.275 89.3337L133.625 83.9337V94.7337L124.275 89.3337ZM124.275 76.8437L133.625 71.4437V82.2437L124.275 76.8437ZM123.785 76.0037V65.2037L133.135 70.6037L123.785 76.0037ZM112.975 69.7637V58.9637L122.325 64.3637L112.975 69.7637ZM102.165 63.5137V52.7137L111.515 58.1137L102.165 63.5137ZM91.3451 57.2737V46.4737L100.695 51.8737L91.3451 57.2737ZM90.3751 57.2737L81.0251 51.8737L90.3751 46.4737V57.2737ZM79.5651 63.5137L70.2151 58.1137L79.5651 52.7137V63.5137ZM68.7451 69.7637L59.3951 64.3637L68.7451 58.9637V69.7637ZM57.9351 76.0037L48.5851 70.6037L57.9351 65.2037V76.0037ZM57.4451 76.8437L48.0951 82.2437V71.4437L57.4451 76.8437ZM57.4451 89.3337L48.0951 94.7337V83.9337L57.4451 89.3337ZM57.4451 101.824L48.0951 107.224V96.4237L57.4451 101.824ZM57.4451 114.304L48.0951 119.704V108.904L57.4451 114.304ZM57.9351 115.154V125.954L48.5851 120.554L57.9351 115.154ZM68.7451 121.394V132.194L59.3951 126.794L68.7451 121.394ZM79.5651 127.634V138.434L70.2151 133.034L79.5651 127.634ZM90.3751 133.874V144.674L81.0251 139.274L90.3751 133.874ZM91.3451 133.874L100.695 139.274L91.3451 144.674V133.874ZM102.165 127.634L111.515 133.034L102.165 138.434V127.634ZM122.325 139.274L112.975 144.674V133.874L122.325 139.274ZM122.815 140.124V150.924L113.465 145.524L122.815 140.124ZM123.785 140.124L133.135 145.524L123.785 150.924V140.124ZM124.275 139.274L133.625 133.874V144.674L124.275 139.274ZM123.785 138.434V127.634L133.135 133.034L123.785 138.434ZM123.785 115.154L133.135 120.554L123.785 125.954V115.154ZM124.275 114.304L133.625 108.904V119.704L124.275 114.304ZM112.005 133.874V144.674L102.655 139.274L112.005 133.874Z" fill="#2F2F2F"/>
<path fill-rule="evenodd" clip-rule="evenodd" d="M90.4251 11.0537C92.1051 11.0537 93.9951 11.9237 96.0551 13.1737L154.525 48.7137C158.175 50.9337 160.585 55.2037 160.585 60.0337V130.514C160.585 135.334 158.175 139.614 154.525 141.834L96.0651 177.374C94.1051 178.564 92.1851 179.314 90.4351 179.314C88.6851 179.314 86.7651 178.564 84.8051 177.374L26.3251 141.844C24.3151 140.614 22.8651 139.414 21.8851 137.804C20.9051 136.204 20.2651 133.984 20.2651 130.524V60.0437C20.2651 55.2137 22.6751 50.9437 26.3251 48.7237L84.7851 13.1837C86.8751 11.9337 88.7351 11.0537 90.4251 11.0537ZM98.1351 180.804L156.595 145.264C161.515 142.274 164.575 136.654 164.575 130.524V60.0437C164.575 53.9137 161.515 48.2937 156.595 45.3037L98.1351 9.76371C96.0251 8.48371 93.3151 7.05371 90.4251 7.05371C87.5251 7.05371 84.8151 8.49371 82.7251 9.75371H82.7151L24.2451 45.3037C19.3251 48.2937 16.2651 53.9137 16.2651 60.0437V130.524C16.2651 134.484 17.0051 137.474 18.4651 139.884C19.9251 142.284 21.9851 143.884 24.2451 145.254L82.7051 180.794C84.9251 182.144 87.5951 183.324 90.4151 183.324C93.2351 183.324 95.9151 182.154 98.1351 180.804Z" fill="#0078D4"/>
<defs>
<linearGradient id="paint0_linear" x1="90.4248" y1="9.58384" x2="90.4248" y2="180.984" gradientUnits="userSpaceOnUse">
<stop stop-color="#00ABDE"/>
<stop offset="1" stop-color="#007ED8"/>
</linearGradient>
<linearGradient id="paint1_linear" x1="82.4446" y1="-26.1408" x2="185.626" y2="153.859" gradientUnits="userSpaceOnUse">
<stop stop-color="#7CDAF3"/>
<stop offset="0.3575" stop-color="#4DC1EA"/>
<stop offset="0.842" stop-color="#0078D4"/>
</linearGradient>
<linearGradient id="paint2_linear" x1="82.5308" y1="-26.1903" x2="185.712" y2="153.81" gradientUnits="userSpaceOnUse">
<stop stop-color="#7CDAF3"/>
<stop offset="0.3575" stop-color="#4DC1EA"/>
<stop offset="0.842" stop-color="#0078D4"/>
</linearGradient>
<linearGradient id="paint3_linear" x1="93.2054" y1="-32.3091" x2="196.386" y2="147.691" gradientUnits="userSpaceOnUse">
<stop stop-color="#7CDAF3"/>
<stop offset="0.3575" stop-color="#4DC1EA"/>
<stop offset="0.842" stop-color="#0078D4"/>
</linearGradient>
<linearGradient id="paint4_linear" x1="35.6412" y1="0.688175" x2="138.822" y2="180.688" gradientUnits="userSpaceOnUse">
<stop stop-color="#7CDAF3"/>
<stop offset="0.3575" stop-color="#4DC1EA"/>
<stop offset="0.842" stop-color="#0078D4"/>
</linearGradient>
<linearGradient id="paint5_linear" x1="64.8757" y1="-16.0698" x2="168.057" y2="163.93" gradientUnits="userSpaceOnUse">
<stop stop-color="#7CDAF3"/>
<stop offset="0.3575" stop-color="#4DC1EA"/>
<stop offset="0.842" stop-color="#0078D4"/>
</linearGradient>
<linearGradient id="paint6_linear" x1="-32.0553" y1="39.4938" x2="71.1258" y2="219.494" gradientUnits="userSpaceOnUse">
<stop stop-color="#7CDAF3"/>
<stop offset="0.3575" stop-color="#4DC1EA"/>
<stop offset="0.842" stop-color="#0078D4"/>
</linearGradient>
<linearGradient id="paint7_linear" x1="-9.06006" y1="26.3123" x2="94.121" y2="206.312" gradientUnits="userSpaceOnUse">
<stop stop-color="#7CDAF3"/>
<stop offset="0.3575" stop-color="#4DC1EA"/>
<stop offset="0.842" stop-color="#0078D4"/>
</linearGradient>
<linearGradient id="paint8_linear" x1="-23.3104" y1="34.4811" x2="79.8705" y2="214.481" gradientUnits="userSpaceOnUse">
<stop stop-color="#7CDAF3"/>
<stop offset="0.3575" stop-color="#4DC1EA"/>
<stop offset="0.842" stop-color="#0078D4"/>
</linearGradient>
<linearGradient id="paint9_linear" x1="-12.4777" y1="28.2714" x2="90.7034" y2="208.271" gradientUnits="userSpaceOnUse">
<stop stop-color="#7CDAF3"/>
<stop offset="0.3575" stop-color="#4DC1EA"/>
<stop offset="0.842" stop-color="#0078D4"/>
</linearGradient>
<linearGradient id="paint10_linear" x1="7.0567" y1="17.074" x2="110.238" y2="197.073" gradientUnits="userSpaceOnUse">
<stop stop-color="#7CDAF3"/>
<stop offset="0.3575" stop-color="#4DC1EA"/>
<stop offset="0.842" stop-color="#0078D4"/>
</linearGradient>
<linearGradient id="paint11_linear" x1="-23.4095" y1="34.5376" x2="79.7717" y2="214.538" gradientUnits="userSpaceOnUse">
<stop stop-color="#7CDAF3"/>
<stop offset="0.3575" stop-color="#4DC1EA"/>
<stop offset="0.842" stop-color="#0078D4"/>
</linearGradient>
<linearGradient id="paint12_linear" x1="-32.1379" y1="39.5413" x2="71.0427" y2="219.541" gradientUnits="userSpaceOnUse">
<stop stop-color="#7CDAF3"/>
<stop offset="0.3575" stop-color="#4DC1EA"/>
<stop offset="0.842" stop-color="#0078D4"/>
</linearGradient>
<linearGradient id="paint13_linear" x1="12.1312" y1="14.1649" x2="115.312" y2="194.165" gradientUnits="userSpaceOnUse">
<stop stop-color="#7CDAF3"/>
<stop offset="0.3575" stop-color="#4DC1EA"/>
<stop offset="0.842" stop-color="#0078D4"/>
</linearGradient>
<linearGradient id="paint14_linear" x1="-12.5769" y1="28.3281" x2="90.6042" y2="208.328" gradientUnits="userSpaceOnUse">
<stop stop-color="#7CDAF3"/>
<stop offset="0.3575" stop-color="#4DC1EA"/>
<stop offset="0.842" stop-color="#0078D4"/>
</linearGradient>
<linearGradient id="paint15_linear" x1="6.68565" y1="17.2864" x2="109.867" y2="197.286" gradientUnits="userSpaceOnUse">
<stop stop-color="#7CDAF3"/>
<stop offset="0.3575" stop-color="#4DC1EA"/>
<stop offset="0.842" stop-color="#0078D4"/>
</linearGradient>
<linearGradient id="paint16_linear" x1="-8.89765" y1="26.2193" x2="94.2834" y2="206.219" gradientUnits="userSpaceOnUse">
<stop stop-color="#7CDAF3"/>
<stop offset="0.3575" stop-color="#4DC1EA"/>
<stop offset="0.842" stop-color="#0078D4"/>
</linearGradient>
<linearGradient id="paint17_linear" x1="2.04095" y1="19.9487" x2="105.222" y2="199.949" gradientUnits="userSpaceOnUse">
<stop stop-color="#7CDAF3"/>
<stop offset="0.3575" stop-color="#4DC1EA"/>
<stop offset="0.842" stop-color="#0078D4"/>
</linearGradient>
<linearGradient id="paint18_linear" x1="-20.6698" y1="32.9674" x2="82.5112" y2="212.967" gradientUnits="userSpaceOnUse">
<stop stop-color="#7CDAF3"/>
<stop offset="0.3575" stop-color="#4DC1EA"/>
<stop offset="0.842" stop-color="#0078D4"/>
</linearGradient>
<linearGradient id="paint19_linear" x1="11.3982" y1="14.585" x2="114.579" y2="194.585" gradientUnits="userSpaceOnUse">
<stop stop-color="#7CDAF3"/>
<stop offset="0.3575" stop-color="#4DC1EA"/>
<stop offset="0.842" stop-color="#0078D4"/>
</linearGradient>
<linearGradient id="paint20_linear" x1="5.95277" y1="17.7064" x2="109.134" y2="197.706" gradientUnits="userSpaceOnUse">
<stop stop-color="#7CDAF3"/>
<stop offset="0.3575" stop-color="#4DC1EA"/>
<stop offset="0.842" stop-color="#0078D4"/>
</linearGradient>
<linearGradient id="paint21_linear" x1="1.43204" y1="20.2979" x2="104.613" y2="200.298" gradientUnits="userSpaceOnUse">
<stop stop-color="#7CDAF3"/>
<stop offset="0.3575" stop-color="#4DC1EA"/>
<stop offset="0.842" stop-color="#0078D4"/>
</linearGradient>
<linearGradient id="paint22_linear" x1="38.2925" y1="-0.83159" x2="141.474" y2="179.168" gradientUnits="userSpaceOnUse">
<stop stop-color="#7CDAF3"/>
<stop offset="0.3575" stop-color="#4DC1EA"/>
<stop offset="0.842" stop-color="#0078D4"/>
</linearGradient>
<linearGradient id="paint23_linear" x1="65.5569" y1="-16.4604" x2="168.738" y2="163.54" gradientUnits="userSpaceOnUse">
<stop stop-color="#7CDAF3"/>
<stop offset="0.3575" stop-color="#4DC1EA"/>
<stop offset="0.842" stop-color="#0078D4"/>
</linearGradient>
<linearGradient id="paint24_linear" x1="7.45807" y1="16.8436" x2="110.639" y2="196.844" gradientUnits="userSpaceOnUse">
<stop stop-color="#7CDAF3"/>
<stop offset="0.3575" stop-color="#4DC1EA"/>
<stop offset="0.842" stop-color="#0078D4"/>
</linearGradient>
<linearGradient id="paint25_linear" x1="82.4446" y1="-26.1408" x2="185.626" y2="153.859" gradientUnits="userSpaceOnUse">
<stop stop-color="#7CDAF3"/>
<stop offset="0.3575" stop-color="#4DC1EA"/>
<stop offset="0.842" stop-color="#0078D4"/>
</linearGradient>
<linearGradient id="paint26_linear" x1="82.5308" y1="-26.1903" x2="185.712" y2="153.81" gradientUnits="userSpaceOnUse">
<stop stop-color="#7CDAF3"/>
<stop offset="0.3575" stop-color="#4DC1EA"/>
<stop offset="0.842" stop-color="#0078D4"/>
</linearGradient>
<linearGradient id="paint27_linear" x1="93.2054" y1="-32.3091" x2="196.386" y2="147.691" gradientUnits="userSpaceOnUse">
<stop stop-color="#7CDAF3"/>
<stop offset="0.3575" stop-color="#4DC1EA"/>
<stop offset="0.842" stop-color="#0078D4"/>
</linearGradient>
<linearGradient id="paint28_linear" x1="35.6412" y1="0.688175" x2="138.822" y2="180.688" gradientUnits="userSpaceOnUse">
<stop stop-color="#7CDAF3"/>
<stop offset="0.3575" stop-color="#4DC1EA"/>
<stop offset="0.842" stop-color="#0078D4"/>
</linearGradient>
<linearGradient id="paint29_linear" x1="64.8757" y1="-16.0698" x2="168.057" y2="163.93" gradientUnits="userSpaceOnUse">
<stop stop-color="#7CDAF3"/>
<stop offset="0.3575" stop-color="#4DC1EA"/>
<stop offset="0.842" stop-color="#0078D4"/>
</linearGradient>
<linearGradient id="paint30_linear" x1="-32.0553" y1="39.4938" x2="71.1258" y2="219.494" gradientUnits="userSpaceOnUse">
<stop stop-color="#7CDAF3"/>
<stop offset="0.3575" stop-color="#4DC1EA"/>
<stop offset="0.842" stop-color="#0078D4"/>
</linearGradient>
<linearGradient id="paint31_linear" x1="-9.06006" y1="26.3123" x2="94.121" y2="206.312" gradientUnits="userSpaceOnUse">
<stop stop-color="#7CDAF3"/>
<stop offset="0.3575" stop-color="#4DC1EA"/>
<stop offset="0.842" stop-color="#0078D4"/>
</linearGradient>
<linearGradient id="paint32_linear" x1="-23.3104" y1="34.4811" x2="79.8705" y2="214.481" gradientUnits="userSpaceOnUse">
<stop stop-color="#7CDAF3"/>
<stop offset="0.3575" stop-color="#4DC1EA"/>
<stop offset="0.842" stop-color="#0078D4"/>
</linearGradient>
<linearGradient id="paint33_linear" x1="-12.4777" y1="28.2714" x2="90.7034" y2="208.271" gradientUnits="userSpaceOnUse">
<stop stop-color="#7CDAF3"/>
<stop offset="0.3575" stop-color="#4DC1EA"/>
<stop offset="0.842" stop-color="#0078D4"/>
</linearGradient>
<linearGradient id="paint34_linear" x1="7.0567" y1="17.074" x2="110.238" y2="197.073" gradientUnits="userSpaceOnUse">
<stop stop-color="#7CDAF3"/>
<stop offset="0.3575" stop-color="#4DC1EA"/>
<stop offset="0.842" stop-color="#0078D4"/>
</linearGradient>
<linearGradient id="paint35_linear" x1="-23.4095" y1="34.5376" x2="79.7717" y2="214.538" gradientUnits="userSpaceOnUse">
<stop stop-color="#7CDAF3"/>
<stop offset="0.3575" stop-color="#4DC1EA"/>
<stop offset="0.842" stop-color="#0078D4"/>
</linearGradient>
<linearGradient id="paint36_linear" x1="-32.1379" y1="39.5413" x2="71.0427" y2="219.541" gradientUnits="userSpaceOnUse">
<stop stop-color="#7CDAF3"/>
<stop offset="0.3575" stop-color="#4DC1EA"/>
<stop offset="0.842" stop-color="#0078D4"/>
</linearGradient>
<linearGradient id="paint37_linear" x1="12.1312" y1="14.1649" x2="115.312" y2="194.165" gradientUnits="userSpaceOnUse">
<stop stop-color="#7CDAF3"/>
<stop offset="0.3575" stop-color="#4DC1EA"/>
<stop offset="0.842" stop-color="#0078D4"/>
</linearGradient>
<linearGradient id="paint38_linear" x1="-12.5769" y1="28.3281" x2="90.6042" y2="208.328" gradientUnits="userSpaceOnUse">
<stop stop-color="#7CDAF3"/>
<stop offset="0.3575" stop-color="#4DC1EA"/>
<stop offset="0.842" stop-color="#0078D4"/>
</linearGradient>
<linearGradient id="paint39_linear" x1="6.68565" y1="17.2864" x2="109.867" y2="197.286" gradientUnits="userSpaceOnUse">
<stop stop-color="#7CDAF3"/>
<stop offset="0.3575" stop-color="#4DC1EA"/>
<stop offset="0.842" stop-color="#0078D4"/>
</linearGradient>
<linearGradient id="paint40_linear" x1="-8.89765" y1="26.2193" x2="94.2834" y2="206.219" gradientUnits="userSpaceOnUse">
<stop stop-color="#7CDAF3"/>
<stop offset="0.3575" stop-color="#4DC1EA"/>
<stop offset="0.842" stop-color="#0078D4"/>
</linearGradient>
<linearGradient id="paint41_linear" x1="2.04095" y1="19.9487" x2="105.222" y2="199.949" gradientUnits="userSpaceOnUse">
<stop stop-color="#7CDAF3"/>
<stop offset="0.3575" stop-color="#4DC1EA"/>
<stop offset="0.842" stop-color="#0078D4"/>
</linearGradient>
<linearGradient id="paint42_linear" x1="-20.6698" y1="32.9674" x2="82.5112" y2="212.967" gradientUnits="userSpaceOnUse">
<stop stop-color="#7CDAF3"/>
<stop offset="0.3575" stop-color="#4DC1EA"/>
<stop offset="0.842" stop-color="#0078D4"/>
</linearGradient>
<linearGradient id="paint43_linear" x1="11.3982" y1="14.585" x2="114.579" y2="194.585" gradientUnits="userSpaceOnUse">
<stop stop-color="#7CDAF3"/>
<stop offset="0.3575" stop-color="#4DC1EA"/>
<stop offset="0.842" stop-color="#0078D4"/>
</linearGradient>
<linearGradient id="paint44_linear" x1="5.95277" y1="17.7064" x2="109.134" y2="197.706" gradientUnits="userSpaceOnUse">
<stop stop-color="#7CDAF3"/>
<stop offset="0.3575" stop-color="#4DC1EA"/>
<stop offset="0.842" stop-color="#0078D4"/>
</linearGradient>
<linearGradient id="paint45_linear" x1="1.43204" y1="20.2979" x2="104.613" y2="200.298" gradientUnits="userSpaceOnUse">
<stop stop-color="#7CDAF3"/>
<stop offset="0.3575" stop-color="#4DC1EA"/>
<stop offset="0.842" stop-color="#0078D4"/>
</linearGradient>
<linearGradient id="paint46_linear" x1="38.2925" y1="-0.83159" x2="141.474" y2="179.168" gradientUnits="userSpaceOnUse">
<stop stop-color="#7CDAF3"/>
<stop offset="0.3575" stop-color="#4DC1EA"/>
<stop offset="0.842" stop-color="#0078D4"/>
</linearGradient>
<linearGradient id="paint47_linear" x1="65.5569" y1="-16.4604" x2="168.738" y2="163.54" gradientUnits="userSpaceOnUse">
<stop stop-color="#7CDAF3"/>
<stop offset="0.3575" stop-color="#4DC1EA"/>
<stop offset="0.842" stop-color="#0078D4"/>
</linearGradient>
<linearGradient id="paint48_linear" x1="7.45807" y1="16.8436" x2="110.639" y2="196.844" gradientUnits="userSpaceOnUse">
<stop stop-color="#7CDAF3"/>
<stop offset="0.3575" stop-color="#4DC1EA"/>
<stop offset="0.842" stop-color="#0078D4"/>
</linearGradient>
</defs>
</svg>
