<svg xmlns="http://www.w3.org/2000/svg" xmlns:xlink="http://www.w3.org/1999/xlink" viewBox="0 0 600 400"><defs><style>.cls-1{fill:none;}.cls-2{fill:#13569c;}.cls-3{fill:#37add5;}.cls-4{fill:#aeffff;}.cls-5{fill:#cecece;}.cls-6{fill:#282727;}.cls-7{clip-path:url(#clip-path);}.cls-8{opacity:0.44;}.cls-9{fill:#fff;}.cls-10{fill:#00fff2;}.cls-11{fill:#8bdaf8;}.cls-12{fill:#e6720d;}.cls-13{fill:#5a86a3;}.cls-14{fill:#4e1a5b;}.cls-15{opacity:0.1;}.cls-16{clip-path:url(#clip-path-2);}.cls-17{fill:#ad8457;}.cls-18{fill:#ac8356;}.cls-19{fill:#ab8256;}.cls-20{fill:#aa8255;}.cls-21{fill:#a98155;}.cls-22{fill:#a88054;}.cls-23{fill:#a77f53;}.cls-24{fill:#a67f53;}.cls-25{fill:#a57e52;}.cls-26{fill:#a47d52;}.cls-27{fill:#a37c51;}.cls-28{fill:#a27c50;}.cls-29{fill:#a17b50;}.cls-30{fill:#a07a4f;}.cls-31{fill:#9f794f;}.cls-32{fill:#9e784e;}.cls-33{fill:#9d784d;}.cls-34{fill:#9c774d;}.cls-35{fill:#9b764c;}.cls-36{fill:#9a754c;}.cls-37{fill:#99754b;}.cls-38{fill:#98744a;}.cls-39{fill:#97734a;}.cls-40{fill:#967249;}.cls-41{fill:#957249;}.cls-42{fill:#947148;}.cls-43{fill:#937047;}.cls-44{fill:#926f47;}.cls-45{fill:#916e46;}.cls-46{fill:#906e46;}.cls-47{fill:#8f6d45;}.cls-48{fill:#8e6c44;}.cls-49{fill:#8d6b44;}.cls-50{fill:#8c6b43;}.cls-51{fill:#8b6a43;}.cls-52{fill:#8a6942;}.cls-53{fill:#896841;}.cls-54{fill:#886841;}.cls-55{fill:#876740;}.cls-56{fill:#866640;}.cls-57{fill:#85653f;}.cls-58{fill:#84643e;}.cls-59{fill:#83643e;}.cls-60{fill:#82633d;}.cls-61{fill:#81623d;}.cls-62{fill:#80613c;}.cls-63{fill:#7f613b;}.cls-64{fill:#7e603b;}.cls-65{fill:#7d5f3a;}.cls-66{fill:#7c5e3a;}.cls-67{fill:#7b5e39;}.cls-68{fill:#7a5d38;}.cls-69{fill:#795c38;}.cls-70{fill:#785b37;}.cls-71{fill:#775a37;}.cls-72{fill:#765a36;}.cls-73{fill:#755935;}.cls-74{fill:#745835;}.cls-75{fill:#735734;}.cls-76{fill:#715734;}.cls-77{fill:#705633;}.cls-78{fill:#6f5533;}.cls-79{fill:#6e5432;}.cls-80{fill:#6d5431;}.cls-81{fill:#6c5331;}.cls-82{fill:#6b5230;}.cls-83{fill:#6a5130;}.cls-84{fill:#69502f;}.cls-85{fill:#68502e;}.cls-86{fill:#674f2e;}.cls-87{fill:#664e2d;}.cls-88{fill:#654d2d;}.cls-89{fill:#644d2c;}.cls-90{fill:#634c2b;}.cls-91{fill:#624b2b;}.cls-92{fill:#614a2a;}.cls-93{fill:#604a2a;}.cls-94{fill:#5f4929;}.cls-95{fill:#5e4828;}.cls-96{fill:#5d4728;}.cls-97{fill:#5c4627;}.cls-98{fill:#5b4627;}.cls-99{fill:#5a4526;}.cls-100{fill:#594425;}.cls-101{fill:#584325;}.cls-102{fill:#574324;}.cls-103{fill:#564224;}.cls-104{fill:#554123;}.cls-105{fill:#544022;}.cls-106{fill:#534022;}.cls-107{fill:#523f21;}.cls-108{fill:#513e21;}.cls-109{fill:#503d20;}.cls-110{fill:#4f3c1f;}.cls-111{fill:#4e3c1f;}.cls-112{fill:#4d3b1e;}.cls-113{fill:#4c3a1e;}.cls-114{fill:#4b391d;}.cls-115{fill:#4a391c;}.cls-116{fill:#49381c;}.cls-117{fill:#48371b;}.cls-118{fill:#47361b;}.cls-119{fill:#46361a;}.cls-120{fill:#453519;}.cls-121{fill:#443419;}.cls-122{fill:#433318;}.cls-123{fill:#423218;}.cls-124{fill:#413217;}.cls-125{fill:#403116;}.cls-126{fill:#3f3016;}.cls-127{fill:#3e2f15;}.cls-128{fill:#3d2f15;}.cls-129{fill:#3c2e14;}.cls-130{fill:#3b2d13;}.cls-131{fill:#3a2c13;}.cls-132{fill:#392c12;}.cls-133{fill:#382b12;}.cls-134{fill:#372a11;}.cls-135{opacity:0.32;}.cls-136{clip-path:url(#clip-path-4);}.cls-137{fill:#fed142;}.cls-138{clip-path:url(#clip-path-5);}.cls-139{fill:#ff8c00;}</style><clipPath id="clip-path"><path class="cls-1" d="M417.32,294.66H293.94a8.64,8.64,0,0,1-8.65-10.2l22-110.21a8.75,8.75,0,0,1,8.66-6.94H438.19a8.64,8.64,0,0,1,8.67,10.12L426,287.64A8.76,8.76,0,0,1,417.32,294.66Z"/></clipPath><clipPath id="clip-path-2"><path class="cls-1" d="M161.4,167.19A64,64,0,0,0,160,201.46c-10.78,2.6-22,5.2-32.84,2.82A77.91,77.91,0,0,1,143,150.8"/></clipPath><clipPath id="clip-path-4"><rect class="cls-1" x="50" y="182.27" width="159.3" height="152.84" rx="4.5"/></clipPath><clipPath id="clip-path-5"><path class="cls-1" d="M257.71,284.44c5.54,2.07,11.49,2.72,17.38,3.3,10.08,1,20.43,1.8,30.19-.89a50,50,0,0,1,6.56-1.65,23.46,23.46,0,0,1,7.51.5A101.11,101.11,0,0,1,335.72,291a12.23,12.23,0,0,1,4.67,2.68c1.23,1.32,1.79,3.47.77,5a5.64,5.64,0,0,1-3.19,1.91c-6.92,2.12-14.28,2.15-21.5,2.69-18.56,1.38-36.71,6.23-55.25,7.84a52,52,0,0,1-10.44.09"/></clipPath></defs><title>Artboard 1 copy</title><g id="LAPTOP"><path class="cls-2" d="M432.72,308H293.61a10,10,0,0,1-9.77-11.84L308.67,168.3a9.93,9.93,0,0,1,9.76-8.05H456.24A9.94,9.94,0,0,1,466,172L442.5,299.89A10,10,0,0,1,432.72,308Z"/><path class="cls-3" d="M425.46,308H286.34a9.94,9.94,0,0,1-9.76-11.84L301.4,168.3a9.94,9.94,0,0,1,9.76-8.05H449A9.94,9.94,0,0,1,458.76,172l-23.52,127.9A10,10,0,0,1,425.46,308Z"/><path class="cls-4" d="M417.32,294.66H293.94a8.64,8.64,0,0,1-8.65-10.2l22-110.21a8.75,8.75,0,0,1,8.66-6.94H438.19a8.64,8.64,0,0,1,8.67,10.12L426,287.64A8.76,8.76,0,0,1,417.32,294.66Z"/><rect class="cls-5" x="346.9" y="298" width="13.66" height="4.9" rx="2.45"/><rect class="cls-5" x="359.96" y="298" width="13.66" height="4.9" rx="2.45"/><rect class="cls-5" x="373.02" y="298" width="13.66" height="4.9" rx="2.45"/><rect class="cls-5" x="386.08" y="298" width="13.66" height="4.9" rx="2.45"/><rect class="cls-5" x="333.83" y="298" width="13.66" height="4.9" rx="2.45"/><rect class="cls-2" x="254.17" y="300.65" width="187.51" height="14.98" rx="5.01"/><circle class="cls-6" cx="366.85" cy="308.03" r="1.69"/><circle class="cls-6" cx="383.37" cy="308.03" r="1.69"/><rect class="cls-6" x="390.58" y="306.18" width="26.11" height="3.92" rx="1.96"/><circle class="cls-6" cx="374.74" cy="308.03" r="1.69"/><g class="cls-7"><g class="cls-8"><polygon class="cls-9" points="386.08 296.36 351.5 296.36 395.17 166.19 418.3 166.19 386.08 296.36"/></g><g class="cls-8"><polygon class="cls-9" points="410.13 293.67 389.3 293.67 427.94 167.31 444.07 167.31 410.13 293.67"/></g></g><path class="cls-10" d="M417.32,295.55H293.94a9.74,9.74,0,0,1-7.58-3.56,9.28,9.28,0,0,1-1.95-7.71l22-110.21a9.66,9.66,0,0,1,9.53-7.65H438.19a9.74,9.74,0,0,1,7.55,3.52,9.24,9.24,0,0,1,2,7.65L426.87,287.81A9.65,9.65,0,0,1,417.32,295.55ZM316,168.2a7.89,7.89,0,0,0-7.79,6.22l-22,110.21a7.47,7.47,0,0,0,1.57,6.23,8,8,0,0,0,6.21,2.91H417.32a7.87,7.87,0,0,0,7.8-6.29L446,177.26a7.46,7.46,0,0,0-1.61-6.18,8,8,0,0,0-6.18-2.88Z"/><rect class="cls-11" x="215.03" y="315.45" width="294.85" height="19.66" rx="4.01"/></g><g id="BUBBLES"><circle class="cls-9" cx="358.23" cy="162.07" r="33.82"/><path class="cls-12" d="M358.23,198.11a36,36,0,1,1,36-36A36.08,36.08,0,0,1,358.23,198.11Zm0-67.64a31.6,31.6,0,1,0,31.6,31.6A31.63,31.63,0,0,0,358.23,130.47Z"/><path class="cls-12" d="M360.77,196.34a193.92,193.92,0,0,0,15.13,18.81c2.21-8.6,1.28-17.75,3.3-26.39"/></g><g id="Layer_6" data-name="Layer 6"><circle class="cls-12" cx="514.85" cy="234.14" r="4.68"/><circle class="cls-12" cx="442.21" cy="132.1" r="4.68"/><circle class="cls-12" cx="320.03" cy="75.25" r="4.68"/><circle class="cls-12" cx="244.86" cy="144.85" r="4.68"/><circle class="cls-12" cx="279.96" cy="161.1" r="4.68"/><circle class="cls-12" cx="472.02" cy="74.85" r="4.68"/><circle class="cls-12" cx="496.58" cy="297.91" r="4.68"/><circle class="cls-12" cx="324.41" cy="120.2" r="7.51"/><circle class="cls-12" cx="353.72" cy="90.09" r="7.51"/><circle class="cls-12" cx="193.67" cy="211.56" r="7.51"/><circle class="cls-12" cx="480.45" cy="195.89" r="7.51"/></g><g id="LOGOS"><path class="cls-12" d="M369.65,178.84v2.52c0,.43,0,.43-.44.43H369c-.52,0-.53,0-.64-.51-.07-.31-.2-.17-.34-.06a3.43,3.43,0,0,1-2.48.7,1.92,1.92,0,0,1-1.81-1.87,2.34,2.34,0,0,1,1.81-2.51,7,7,0,0,1,1.93-.26c.63,0,.63,0,.64-.65a1.47,1.47,0,0,0-.2-.82,1.2,1.2,0,0,0-1-.52,5.52,5.52,0,0,0-2.28.32c-.25.09-.34,0-.39-.21-.13-.65-.14-.67.5-.9a5.6,5.6,0,0,1,3.31-.25,2,2,0,0,1,1.59,2.11c0,.83,0,1.66,0,2.48Zm-1.57.37v-.73c0-.13,0-.21-.18-.21a5.61,5.61,0,0,0-1.78.16,1.24,1.24,0,0,0-.73,1.8,1.09,1.09,0,0,0,1.24.53,2.28,2.28,0,0,0,1.37-.66c.21-.2,0-.55.08-.83Z"/><path class="cls-12" d="M355.61,178.83v2.52c0,.44,0,.44-.43.43H355c-.53,0-.54,0-.64-.51-.05-.24-.15-.19-.29-.09a3.33,3.33,0,0,1-1.28.66c-1.22.27-2.47,0-2.89-1.06a2.31,2.31,0,0,1,1.28-3.1,5.73,5.73,0,0,1,2.39-.4c.58,0,.51.06.52-.54a1.37,1.37,0,0,0-.38-1.15,1.23,1.23,0,0,0-.74-.29,5.19,5.19,0,0,0-2.31.31c-.25.09-.33,0-.39-.2-.17-.66-.17-.67.48-.9a5.62,5.62,0,0,1,3.34-.25,2,2,0,0,1,1.56,2c0,.44,0,.88,0,1.32Zm-1.54.36h0c0-.23,0-.46,0-.69s0-.25-.2-.25a4.75,4.75,0,0,0-2,.26,1.09,1.09,0,0,0-.66,1.06,1,1,0,0,0,.57,1.09,2,2,0,0,0,1.88-.31c.45-.25.39-.63.39-1Z"/><path class="cls-12" d="M358.11,154.45a2,2,0,0,1-.86-.64,16.14,16.14,0,0,1-2.69-3,4.23,4.23,0,0,1-.74-2,3,3,0,0,1,.78-2.15,16.87,16.87,0,0,1,2.79-2.55,14.85,14.85,0,0,0,3.19-3,4.9,4.9,0,0,0,.93-3.9c0-.14-.16-.36,0-.43s.14.2.21.31a4.27,4.27,0,0,1-.2,4.57,14.31,14.31,0,0,1-3.69,3.91,7.3,7.3,0,0,0-1.89,2.17,3.47,3.47,0,0,0,0,3.27,24.78,24.78,0,0,0,1.63,2.53Z"/><path class="cls-12" d="M359.79,181.78c-.32,0-.7.12-.94-.05s-.23-.58-.32-.88c-.66-2.1-1.31-4.21-2-6.31-.07-.21,0-.3.21-.29h1.16a.28.28,0,0,1,.33.24c.52,1.8,1.17,3.56,1.59,5.38,0,.06,0,.15.09.15s.12-.09.14-.16c.19-.63.39-1.26.56-1.9a20.43,20.43,0,0,0,.71-3.46.25.25,0,0,1,.3-.26c.38,0,.75,0,1.13,0,.21,0,.27,0,.23.26-.2,1.05-.44,2.09-.74,3.11a30.21,30.21,0,0,1-1,2.91c-.15.36-.33.72-.48,1.08a.24.24,0,0,1-.29.18Z"/><path class="cls-13" d="M351.26,164.59a8.15,8.15,0,0,0-1.61.28,5,5,0,0,0-1.22.51c-.14.09-.31.2-.28.41s.21.25.36.31a11.57,11.57,0,0,0,2.74.61,51.43,51.43,0,0,0,8.23.24,40.19,40.19,0,0,0,6.84-.72,5.56,5.56,0,0,0,1.54-.5c.45-.25.54-.46.42-.93.52.14.66.53.31.92a2.61,2.61,0,0,1-1.06.66,17.49,17.49,0,0,1-4.23,1.06,44.66,44.66,0,0,1-7.49.46,55,55,0,0,1-7.58-.63,6.77,6.77,0,0,1-1.67-.39c-.64-.27-.71-.65-.19-1.11a5.09,5.09,0,0,1,1.94-1,6.7,6.7,0,0,1,2.27-.4A1.26,1.26,0,0,1,351.26,164.59Z"/><path class="cls-12" d="M359.27,155.7a2.29,2.29,0,0,0,.48-3.21,6.33,6.33,0,0,1-1.3-2,3.5,3.5,0,0,1,0-2.66,6.28,6.28,0,0,1,2.74-2.75,15.09,15.09,0,0,1,3.5-1.52c.22-.07.39-.26.71-.14l-1.08.64a20.29,20.29,0,0,0-3.11,2.27,4.46,4.46,0,0,0-.92,1.2,2.06,2.06,0,0,0,.12,2.05c.3.54.71,1,1,1.51a2.29,2.29,0,0,1,0,2.79,8.07,8.07,0,0,1-1.18,1.23c-.22.21-.49.31-.71.51A.36.36,0,0,1,359.27,155.7Z"/><path class="cls-12" d="M348.55,176.71c0,1.54,0,3.09,0,4.64a3.22,3.22,0,0,1-1.85,2.86c-.6.32-.6.3-1-.21l-.09-.1c-.22-.2-.23-.33.06-.51a2.61,2.61,0,0,0,1.28-2.31c.06-1.83,0-3.67,0-5.5,0-1.24,0-2.49,0-3.74,0-.18.05-.26.24-.25a7.08,7.08,0,0,0,1,0c.29,0,.38,0,.38.35,0,1.59,0,3.18,0,4.77Z"/><path class="cls-13" d="M354.22,154.77l-1.38.41a6.79,6.79,0,0,0-1.41.56c-.17.09-.39.19-.37.42s.26.26.43.3a11.18,11.18,0,0,0,2.7.3,53.56,53.56,0,0,0,6.58-.27,33.08,33.08,0,0,0,4-.55c.06,0,.13-.05.19,0a1.13,1.13,0,0,1-.31.21,8.2,8.2,0,0,1-3.58,1,40,40,0,0,1-4.09.35,37.39,37.39,0,0,1-5.89-.21,7.86,7.86,0,0,1-1.59-.32,2.23,2.23,0,0,1-.43-.16c-.16-.09-.36-.17-.36-.39s.17-.35.35-.45a11.75,11.75,0,0,1,4.05-1.27A2.78,2.78,0,0,1,354.22,154.77Z"/><path class="cls-13" d="M353.65,162.09c-.24.51-.16.66.41.78a14.82,14.82,0,0,0,2.49.27,18.38,18.38,0,0,0,4.57-.37,1,1,0,0,1,.7.1c.38.22.79.39,1.18.59.08,0,.21,0,.2.14s-.12.11-.2.14a14.78,14.78,0,0,1-3.75.91,13.74,13.74,0,0,1-5.38-.38,3.05,3.05,0,0,1-1.4-.73.54.54,0,0,1,0-.9A2.55,2.55,0,0,1,353.65,162.09Z"/><path class="cls-13" d="M363.88,160.09a11.8,11.8,0,0,1-2,.51,25.14,25.14,0,0,1-6.36.47,11,11,0,0,1-3.4-.62,4.16,4.16,0,0,1-.47-.24c-.51-.32-.53-.71-.08-1.09a3.4,3.4,0,0,1,1.31-.6s0,.07,0,.08c-.45.4-.32.83.33,1a11.73,11.73,0,0,0,1.67.21,24.29,24.29,0,0,0,5.84-.22c.54-.09,1.07-.17,1.6-.27a.33.33,0,0,1,.32,0A4.37,4.37,0,0,0,363.88,160.09Z"/><path class="cls-13" d="M370.18,166.48a1.33,1.33,0,0,1-.57,1,6.3,6.3,0,0,1-2.51,1.14,29.06,29.06,0,0,1-5.5.79,54.19,54.19,0,0,1-5.7,0,19.72,19.72,0,0,1-5.06-.69.75.75,0,0,1-.34-.18c0-.1.11-.09.17-.08a28.32,28.32,0,0,0,4.11.4c1,0,1.9.07,2.85,0a48.62,48.62,0,0,0,6.14-.44,23.63,23.63,0,0,0,4.76-1.09A4.7,4.7,0,0,0,370.18,166.48Z"/><path class="cls-13" d="M365.08,160.86c0-.21.13-.23.22-.27a9.79,9.79,0,0,0,2.7-2,2.85,2.85,0,0,0,.84-1.89,2,2,0,0,0-2.16-1.89,6.57,6.57,0,0,0-.82.16c0-.18.11-.22.2-.27a3.08,3.08,0,0,1,3.71.7,2.27,2.27,0,0,1-.08,2.83,6.27,6.27,0,0,1-2.54,1.9A13,13,0,0,1,365.08,160.86Z"/><path class="cls-12" d="M370.35,174.78v-.26c0-.09,0-.2.09-.22s.08.11.12.17.18.2.25,0,0-.18.13-.17.1.11.09.18,0,.31,0,.28-.29.23-.41,0S370.48,174.8,370.35,174.78Z"/><path class="cls-12" d="M370,174.89c-.13-.61-.13-.61.18-.59C370.05,174.45,370.09,174.64,370,174.89Z"/></g><g id="GIRL"><path class="cls-14" d="M165.05,188.75a197.72,197.72,0,0,0,23,.38,195.8,195.8,0,0,0,21.79-3,2.25,2.25,0,0,0,2.36-2c6.34-25.66.94-52.59-4.47-78.46-2.68-12.8-6-25.08-15.84-34.23-7.15-6.62-15.88-11.21-25-14.62-8.92-3.36-17.33-5.49-27-4.88a78.29,78.29,0,0,0-15.54,2.77A59.93,59.93,0,0,0,97.23,70.8c-15.17,15.94-20,39.58-24,60.58A167.8,167.8,0,0,0,70,153.87c-.36,6.88.45,14.54,5.52,19.2a26.36,26.36,0,0,0,5.37,3.53c7.9,4.28,16.1,8.32,24.94,9.91a95.34,95.34,0,0,0,12.29,1.15C133.78,188.43,149.44,187.88,165.05,188.75Z"/><g class="cls-15"><g class="cls-16"><rect class="cls-17" x="125.56" y="150.8" width="1.31" height="55.86"/><rect class="cls-17" x="126.87" y="150.8" width="0.29" height="55.86"/><rect class="cls-18" x="127.16" y="150.8" width="0.29" height="55.86"/><rect class="cls-19" x="127.46" y="150.8" width="0.29" height="55.86"/><rect class="cls-20" x="127.75" y="150.8" width="0.29" height="55.86"/><rect class="cls-21" x="128.04" y="150.8" width="0.29" height="55.86"/><rect class="cls-22" x="128.33" y="150.8" width="0.29" height="55.86"/><rect class="cls-23" x="128.63" y="150.8" width="0.29" height="55.86"/><rect class="cls-24" x="128.92" y="150.8" width="0.29" height="55.86"/><rect class="cls-25" x="129.21" y="150.8" width="0.29" height="55.86"/><rect class="cls-26" x="129.51" y="150.8" width="0.29" height="55.86"/><rect class="cls-27" x="129.8" y="150.8" width="0.29" height="55.86"/><rect class="cls-28" x="130.09" y="150.8" width="0.29" height="55.86"/><rect class="cls-29" x="130.38" y="150.8" width="0.29" height="55.86"/><rect class="cls-30" x="130.68" y="150.8" width="0.29" height="55.86"/><rect class="cls-31" x="130.97" y="150.8" width="0.29" height="55.86"/><rect class="cls-32" x="131.26" y="150.8" width="0.29" height="55.86"/><rect class="cls-33" x="131.55" y="150.8" width="0.29" height="55.86"/><rect class="cls-34" x="131.85" y="150.8" width="0.29" height="55.86"/><rect class="cls-35" x="132.14" y="150.8" width="0.29" height="55.86"/><rect class="cls-36" x="132.43" y="150.8" width="0.29" height="55.86"/><rect class="cls-37" x="132.72" y="150.8" width="0.29" height="55.86"/><rect class="cls-38" x="133.02" y="150.8" width="0.29" height="55.86"/><rect class="cls-39" x="133.31" y="150.8" width="0.29" height="55.86"/><rect class="cls-40" x="133.6" y="150.8" width="0.29" height="55.86"/><rect class="cls-41" x="133.89" y="150.8" width="0.29" height="55.86"/><rect class="cls-42" x="134.19" y="150.8" width="0.29" height="55.86"/><rect class="cls-43" x="134.48" y="150.8" width="0.29" height="55.86"/><rect class="cls-44" x="134.77" y="150.8" width="0.29" height="55.86"/><rect class="cls-45" x="135.07" y="150.8" width="0.29" height="55.86"/><rect class="cls-46" x="135.36" y="150.8" width="0.29" height="55.86"/><rect class="cls-47" x="135.65" y="150.8" width="0.29" height="55.86"/><rect class="cls-48" x="135.94" y="150.8" width="0.29" height="55.86"/><rect class="cls-49" x="136.24" y="150.8" width="0.29" height="55.86"/><rect class="cls-50" x="136.53" y="150.8" width="0.29" height="55.86"/><rect class="cls-51" x="136.82" y="150.8" width="0.29" height="55.86"/><rect class="cls-52" x="137.11" y="150.8" width="0.29" height="55.86"/><rect class="cls-53" x="137.41" y="150.8" width="0.29" height="55.86"/><rect class="cls-54" x="137.7" y="150.8" width="0.29" height="55.86"/><rect class="cls-55" x="137.99" y="150.8" width="0.29" height="55.86"/><rect class="cls-56" x="138.28" y="150.8" width="0.29" height="55.86"/><rect class="cls-57" x="138.58" y="150.8" width="0.29" height="55.86"/><rect class="cls-58" x="138.87" y="150.8" width="0.29" height="55.86"/><rect class="cls-59" x="139.16" y="150.8" width="0.29" height="55.86"/><rect class="cls-60" x="139.45" y="150.8" width="0.29" height="55.86"/><rect class="cls-61" x="139.75" y="150.8" width="0.29" height="55.86"/><rect class="cls-62" x="140.04" y="150.8" width="0.29" height="55.86"/><rect class="cls-63" x="140.33" y="150.8" width="0.29" height="55.86"/><rect class="cls-64" x="140.63" y="150.8" width="0.29" height="55.86"/><rect class="cls-65" x="140.92" y="150.8" width="0.29" height="55.86"/><rect class="cls-66" x="141.21" y="150.8" width="0.29" height="55.86"/><rect class="cls-67" x="141.5" y="150.8" width="0.29" height="55.86"/><rect class="cls-68" x="141.8" y="150.8" width="0.29" height="55.86"/><rect class="cls-69" x="142.09" y="150.8" width="0.29" height="55.86"/><rect class="cls-70" x="142.38" y="150.8" width="0.29" height="55.86"/><rect class="cls-71" x="142.67" y="150.8" width="0.29" height="55.86"/><rect class="cls-72" x="142.97" y="150.8" width="0.29" height="55.86"/><rect class="cls-73" x="143.26" y="150.8" width="0.29" height="55.86"/><rect class="cls-74" x="143.55" y="150.8" width="0.29" height="55.86"/><rect class="cls-75" x="143.84" y="150.8" width="0.29" height="55.86"/><rect class="cls-76" x="144.14" y="150.8" width="0.29" height="55.86"/><rect class="cls-77" x="144.43" y="150.8" width="0.29" height="55.86"/><rect class="cls-78" x="144.72" y="150.8" width="0.29" height="55.86"/><rect class="cls-79" x="145.02" y="150.8" width="0.29" height="55.86"/><rect class="cls-80" x="145.31" y="150.8" width="0.29" height="55.86"/><rect class="cls-81" x="145.6" y="150.8" width="0.29" height="55.86"/><rect class="cls-82" x="145.89" y="150.8" width="0.29" height="55.86"/><rect class="cls-83" x="146.19" y="150.8" width="0.29" height="55.86"/><rect class="cls-84" x="146.48" y="150.8" width="0.29" height="55.86"/><rect class="cls-85" x="146.77" y="150.8" width="0.29" height="55.86"/><rect class="cls-86" x="147.06" y="150.8" width="0.29" height="55.86"/><rect class="cls-87" x="147.36" y="150.8" width="0.29" height="55.86"/><rect class="cls-88" x="147.65" y="150.8" width="0.29" height="55.86"/><rect class="cls-89" x="147.94" y="150.8" width="0.29" height="55.86"/><rect class="cls-90" x="148.23" y="150.8" width="0.29" height="55.86"/><rect class="cls-91" x="148.53" y="150.8" width="0.29" height="55.86"/><rect class="cls-92" x="148.82" y="150.8" width="0.29" height="55.86"/><rect class="cls-93" x="149.11" y="150.8" width="0.29" height="55.86"/><rect class="cls-94" x="149.4" y="150.8" width="0.29" height="55.86"/><rect class="cls-95" x="149.7" y="150.8" width="0.29" height="55.86"/><rect class="cls-96" x="149.99" y="150.8" width="0.29" height="55.86"/><rect class="cls-97" x="150.28" y="150.8" width="0.29" height="55.86"/><rect class="cls-98" x="150.58" y="150.8" width="0.29" height="55.86"/><rect class="cls-99" x="150.87" y="150.8" width="0.29" height="55.86"/><rect class="cls-100" x="151.16" y="150.8" width="0.29" height="55.86"/><rect class="cls-101" x="151.45" y="150.8" width="0.29" height="55.86"/><rect class="cls-102" x="151.75" y="150.8" width="0.29" height="55.86"/><rect class="cls-103" x="152.04" y="150.8" width="0.29" height="55.86"/><rect class="cls-104" x="152.33" y="150.8" width="0.29" height="55.86"/><rect class="cls-105" x="152.62" y="150.8" width="0.29" height="55.86"/><rect class="cls-106" x="152.92" y="150.8" width="0.29" height="55.86"/><rect class="cls-107" x="153.21" y="150.8" width="0.29" height="55.86"/><rect class="cls-108" x="153.5" y="150.8" width="0.29" height="55.86"/><rect class="cls-109" x="153.79" y="150.8" width="0.29" height="55.86"/><rect class="cls-110" x="154.09" y="150.8" width="0.29" height="55.86"/><rect class="cls-111" x="154.38" y="150.8" width="0.29" height="55.86"/><rect class="cls-112" x="154.67" y="150.8" width="0.29" height="55.86"/><rect class="cls-113" x="154.96" y="150.8" width="0.29" height="55.86"/><rect class="cls-114" x="155.26" y="150.8" width="0.29" height="55.86"/><rect class="cls-115" x="155.55" y="150.8" width="0.29" height="55.86"/><rect class="cls-116" x="155.84" y="150.8" width="0.29" height="55.86"/><rect class="cls-117" x="156.14" y="150.8" width="0.29" height="55.86"/><rect class="cls-118" x="156.43" y="150.8" width="0.29" height="55.86"/><rect class="cls-119" x="156.72" y="150.8" width="0.29" height="55.86"/><rect class="cls-120" x="157.01" y="150.8" width="0.29" height="55.86"/><rect class="cls-121" x="157.31" y="150.8" width="0.29" height="55.86"/><rect class="cls-122" x="157.6" y="150.8" width="0.29" height="55.86"/><rect class="cls-123" x="157.89" y="150.8" width="0.29" height="55.86"/><rect class="cls-124" x="158.18" y="150.8" width="0.29" height="55.86"/><rect class="cls-125" x="158.48" y="150.8" width="0.29" height="55.86"/><rect class="cls-126" x="158.77" y="150.8" width="0.29" height="55.86"/><rect class="cls-127" x="159.06" y="150.8" width="0.29" height="55.86"/><rect class="cls-128" x="159.35" y="150.8" width="0.29" height="55.86"/><rect class="cls-129" x="159.65" y="150.8" width="0.29" height="55.86"/><rect class="cls-130" x="159.94" y="150.8" width="0.29" height="55.86"/><rect class="cls-131" x="160.23" y="150.8" width="0.29" height="55.86"/><rect class="cls-132" x="160.53" y="150.8" width="0.29" height="55.86"/><rect class="cls-133" x="160.82" y="150.8" width="0.29" height="55.86"/><rect class="cls-134" x="161.11" y="150.8" width="0.29" height="55.86"/></g></g><path class="cls-17" d="M161.4,167.19A64,64,0,0,0,160,201.46c-10.78,2.6-22,5.2-32.84,2.82A77.91,77.91,0,0,1,143,150.8"/><g class="cls-135"><g class="cls-16"><polygon class="cls-134" points="126.72 150.8 125.56 151.02 125.56 150.8 126.72 150.8"/><polygon class="cls-134" points="129.94 150.8 125.56 151.61 125.56 151.02 126.72 150.8 129.94 150.8"/><polygon class="cls-133" points="133.16 150.8 125.56 152.2 125.56 151.61 129.94 150.8 133.16 150.8"/><polygon class="cls-132" points="136.38 150.8 125.56 152.8 125.56 152.2 133.16 150.8 136.38 150.8"/><polygon class="cls-131" points="139.6 150.8 125.56 153.39 125.56 152.8 136.38 150.8 139.6 150.8"/><polygon class="cls-130" points="142.82 150.8 125.56 153.98 125.56 153.39 139.6 150.8 142.82 150.8"/><polygon class="cls-129" points="146.04 150.8 125.56 154.58 125.56 153.98 142.82 150.8 146.04 150.8"/><polygon class="cls-128" points="149.26 150.8 125.56 155.17 125.56 154.58 146.04 150.8 149.26 150.8"/><polygon class="cls-127" points="152.48 150.8 125.56 155.76 125.56 155.17 149.26 150.8 152.48 150.8"/><polygon class="cls-126" points="155.7 150.8 125.56 156.35 125.56 155.76 152.48 150.8 155.7 150.8"/><polygon class="cls-125" points="158.92 150.8 125.56 156.95 125.56 156.35 155.7 150.8 158.92 150.8"/><polygon class="cls-124" points="160.19 150.8 160.26 151.15 125.56 157.54 125.56 156.95 158.92 150.8 160.19 150.8"/><polygon class="cls-123" points="160.26 151.15 160.37 151.72 125.56 158.13 125.56 157.54 160.26 151.15"/><polygon class="cls-122" points="160.37 151.72 160.47 152.3 125.56 158.73 125.56 158.13 160.37 151.72"/><polygon class="cls-121" points="160.47 152.3 160.58 152.87 125.56 159.32 125.56 158.73 160.47 152.3"/><polygon class="cls-120" points="160.58 152.87 160.68 153.44 125.56 159.91 125.56 159.32 160.58 152.87"/><polygon class="cls-119" points="160.68 153.44 160.79 154.02 125.56 160.51 125.56 159.91 160.68 153.44"/><polygon class="cls-118" points="160.79 154.02 160.89 154.59 125.56 161.1 125.56 160.51 160.79 154.02"/><polygon class="cls-117" points="160.89 154.59 161 155.16 125.56 161.69 125.56 161.1 160.89 154.59"/><polygon class="cls-116" points="161 155.16 161.1 155.74 125.56 162.29 125.56 161.69 161 155.16"/><polygon class="cls-115" points="161.1 155.74 161.21 156.31 125.56 162.88 125.56 162.29 161.1 155.74"/><polygon class="cls-114" points="161.21 156.31 161.32 156.88 125.56 163.47 125.56 162.88 161.21 156.31"/><polygon class="cls-113" points="161.32 156.88 161.4 157.36 161.4 157.46 125.56 164.06 125.56 163.47 161.32 156.88"/><polygon class="cls-112" points="161.4 158.06 125.56 164.66 125.56 164.06 161.4 157.46 161.4 158.06"/><polygon class="cls-111" points="161.4 158.65 125.56 165.25 125.56 164.66 161.4 158.06 161.4 158.65"/><polygon class="cls-110" points="161.4 159.24 125.56 165.84 125.56 165.25 161.4 158.65 161.4 159.24"/><polygon class="cls-109" points="161.4 159.84 125.56 166.44 125.56 165.84 161.4 159.24 161.4 159.84"/><polygon class="cls-108" points="161.4 160.43 125.56 167.03 125.56 166.44 161.4 159.84 161.4 160.43"/><polygon class="cls-107" points="161.4 161.02 125.56 167.62 125.56 167.03 161.4 160.43 161.4 161.02"/><polygon class="cls-106" points="161.4 161.61 125.56 168.22 125.56 167.62 161.4 161.02 161.4 161.61"/><polygon class="cls-105" points="161.4 162.21 125.56 168.81 125.56 168.22 161.4 161.61 161.4 162.21"/><polygon class="cls-104" points="161.4 162.8 125.56 169.4 125.56 168.81 161.4 162.21 161.4 162.8"/><polygon class="cls-103" points="161.4 163.39 125.56 170 125.56 169.4 161.4 162.8 161.4 163.39"/><polygon class="cls-102" points="161.4 163.99 125.56 170.59 125.56 170 161.4 163.39 161.4 163.99"/><polygon class="cls-101" points="161.4 164.58 125.56 171.18 125.56 170.59 161.4 163.99 161.4 164.58"/><polygon class="cls-100" points="161.4 165.17 125.56 171.78 125.56 171.18 161.4 164.58 161.4 165.17"/><polygon class="cls-99" points="161.4 165.77 125.56 172.37 125.56 171.78 161.4 165.17 161.4 165.77"/><polygon class="cls-98" points="161.4 166.36 125.56 172.96 125.56 172.37 161.4 165.77 161.4 166.36"/><polygon class="cls-97" points="161.4 166.95 125.56 173.56 125.56 172.96 161.4 166.36 161.4 166.95"/><polygon class="cls-96" points="161.4 167.54 125.56 174.15 125.56 173.56 161.4 166.95 161.4 167.54"/><polygon class="cls-95" points="161.4 168.14 125.56 174.74 125.56 174.15 161.4 167.54 161.4 168.14"/><polygon class="cls-94" points="161.4 168.73 125.56 175.33 125.56 174.74 161.4 168.14 161.4 168.73"/><polygon class="cls-93" points="161.4 169.32 125.56 175.93 125.56 175.33 161.4 168.73 161.4 169.32"/><polygon class="cls-92" points="161.4 169.92 125.56 176.52 125.56 175.93 161.4 169.32 161.4 169.92"/><polygon class="cls-91" points="161.4 170.51 125.56 177.11 125.56 176.52 161.4 169.92 161.4 170.51"/><polygon class="cls-90" points="161.4 171.1 125.56 177.71 125.56 177.11 161.4 170.51 161.4 171.1"/><polygon class="cls-89" points="161.4 171.7 125.56 178.3 125.56 177.71 161.4 171.1 161.4 171.7"/><polygon class="cls-88" points="161.4 172.29 125.56 178.89 125.56 178.3 161.4 171.7 161.4 172.29"/><polygon class="cls-87" points="161.4 172.88 125.56 179.49 125.56 178.89 161.4 172.29 161.4 172.88"/><polygon class="cls-86" points="161.4 173.48 125.56 180.08 125.56 179.49 161.4 172.88 161.4 173.48"/><polygon class="cls-85" points="161.4 174.07 125.56 180.67 125.56 180.08 161.4 173.48 161.4 174.07"/><polygon class="cls-84" points="161.4 174.66 125.56 181.26 125.56 180.67 161.4 174.07 161.4 174.66"/><polygon class="cls-83" points="161.4 175.25 125.56 181.86 125.56 181.26 161.4 174.66 161.4 175.25"/><polygon class="cls-82" points="161.4 175.85 125.56 182.45 125.56 181.86 161.4 175.25 161.4 175.85"/><polygon class="cls-81" points="161.4 176.44 125.56 183.04 125.56 182.45 161.4 175.85 161.4 176.44"/><polygon class="cls-80" points="161.4 177.03 125.56 183.64 125.56 183.04 161.4 176.44 161.4 177.03"/><polygon class="cls-79" points="161.4 177.63 125.56 184.23 125.56 183.64 161.4 177.03 161.4 177.63"/><polygon class="cls-78" points="161.4 178.22 125.56 184.82 125.56 184.23 161.4 177.63 161.4 178.22"/><polygon class="cls-77" points="161.4 178.81 125.56 185.42 125.56 184.82 161.4 178.22 161.4 178.81"/><polygon class="cls-76" points="161.4 179.41 125.56 186.01 125.56 185.42 161.4 178.81 161.4 179.41"/><polygon class="cls-75" points="161.4 180 125.56 186.6 125.56 186.01 161.4 179.41 161.4 180"/><polygon class="cls-74" points="161.4 180.59 125.56 187.19 125.56 186.6 161.4 180 161.4 180.59"/><polygon class="cls-73" points="161.4 181.19 125.56 187.79 125.56 187.19 161.4 180.59 161.4 181.19"/><polygon class="cls-72" points="161.4 181.78 125.56 188.38 125.56 187.79 161.4 181.19 161.4 181.78"/><polygon class="cls-71" points="161.4 182.37 125.56 188.97 125.56 188.38 161.4 181.78 161.4 182.37"/><polygon class="cls-70" points="161.4 182.97 125.56 189.57 125.56 188.97 161.4 182.37 161.4 182.97"/><polygon class="cls-69" points="161.4 183.56 125.56 190.16 125.56 189.57 161.4 182.97 161.4 183.56"/><polygon class="cls-68" points="161.4 184.15 125.56 190.75 125.56 190.16 161.4 183.56 161.4 184.15"/><polygon class="cls-67" points="161.4 184.74 125.56 191.35 125.56 190.75 161.4 184.15 161.4 184.74"/><polygon class="cls-66" points="161.4 185.34 125.56 191.94 125.56 191.35 161.4 184.74 161.4 185.34"/><polygon class="cls-65" points="161.4 185.93 125.56 192.53 125.56 191.94 161.4 185.34 161.4 185.93"/><polygon class="cls-64" points="161.4 186.52 125.56 193.13 125.56 192.53 161.4 185.93 161.4 186.52"/><polygon class="cls-63" points="161.4 187.12 125.56 193.72 125.56 193.13 161.4 186.52 161.4 187.12"/><polygon class="cls-62" points="161.4 187.71 125.56 194.31 125.56 193.72 161.4 187.12 161.4 187.71"/><polygon class="cls-61" points="161.4 188.3 125.56 194.91 125.56 194.31 161.4 187.71 161.4 188.3"/><polygon class="cls-60" points="161.4 188.9 125.56 195.5 125.56 194.91 161.4 188.3 161.4 188.9"/><polygon class="cls-59" points="161.4 189.49 125.56 196.09 125.56 195.5 161.4 188.9 161.4 189.49"/><polygon class="cls-58" points="161.4 190.08 125.56 196.69 125.56 196.09 161.4 189.49 161.4 190.08"/><polygon class="cls-57" points="161.4 190.68 125.56 197.28 125.56 196.69 161.4 190.08 161.4 190.68"/><polygon class="cls-56" points="161.4 191.27 125.56 197.87 125.56 197.28 161.4 190.68 161.4 191.27"/><polygon class="cls-55" points="161.4 191.86 125.56 198.46 125.56 197.87 161.4 191.27 161.4 191.86"/><polygon class="cls-54" points="161.4 192.45 125.56 199.06 125.56 198.46 161.4 191.86 161.4 192.45"/><polygon class="cls-53" points="161.4 193.05 125.56 199.65 125.56 199.06 161.4 192.45 161.4 193.05"/><polygon class="cls-52" points="161.4 193.64 125.56 200.24 125.56 199.65 161.4 193.05 161.4 193.64"/><polygon class="cls-51" points="161.4 194.23 125.56 200.84 125.56 200.24 161.4 193.64 161.4 194.23"/><polygon class="cls-50" points="161.4 194.83 125.56 201.43 125.56 200.84 161.4 194.23 161.4 194.83"/><polygon class="cls-49" points="161.4 195.42 125.56 202.02 125.56 201.43 161.4 194.83 161.4 195.42"/><polygon class="cls-48" points="161.4 196.01 125.56 202.62 125.56 202.02 161.4 195.42 161.4 196.01"/><polygon class="cls-47" points="161.4 196.61 125.56 203.21 125.56 202.62 161.4 196.01 161.4 196.61"/><polygon class="cls-46" points="161.4 197.2 125.56 203.8 125.56 203.21 161.4 196.61 161.4 197.2"/><polygon class="cls-45" points="161.4 197.79 125.56 204.4 125.56 203.8 161.4 197.2 161.4 197.79"/><polygon class="cls-44" points="161.4 198.38 125.56 204.99 125.56 204.4 161.4 197.79 161.4 198.38"/><polygon class="cls-43" points="161.4 198.98 125.56 205.58 125.56 204.99 161.4 198.38 161.4 198.98"/><polygon class="cls-42" points="161.4 199.57 125.66 206.16 125.56 205.62 125.56 205.58 161.4 198.98 161.4 199.57"/><polygon class="cls-41" points="161.4 200.16 126.12 206.66 125.75 206.66 125.66 206.16 161.4 199.57 161.4 200.16"/><polygon class="cls-40" points="161.4 200.76 129.34 206.66 126.12 206.66 161.4 200.16 161.4 200.76"/><polygon class="cls-39" points="161.4 201.35 132.56 206.66 129.34 206.66 161.4 200.76 161.4 201.35"/><polygon class="cls-38" points="161.4 201.94 135.78 206.66 132.56 206.66 161.4 201.35 161.4 201.94"/><polygon class="cls-37" points="161.4 202.54 139 206.66 135.78 206.66 161.4 201.94 161.4 202.54"/><polygon class="cls-36" points="161.4 203.13 142.22 206.66 139 206.66 161.4 202.54 161.4 203.13"/><polygon class="cls-35" points="161.4 203.72 145.44 206.66 142.22 206.66 161.4 203.13 161.4 203.72"/><polygon class="cls-34" points="161.4 204.32 148.66 206.66 145.44 206.66 161.4 203.72 161.4 204.32"/><polygon class="cls-33" points="161.4 204.91 151.88 206.66 148.66 206.66 161.4 204.32 161.4 204.91"/><polygon class="cls-32" points="161.4 205.5 155.1 206.66 151.88 206.66 161.4 204.91 161.4 205.5"/><polygon class="cls-31" points="161.4 206.09 158.32 206.66 155.1 206.66 161.4 205.5 161.4 206.09"/><polygon class="cls-30" points="158.32 206.66 161.4 206.09 161.4 206.66 158.32 206.66"/></g></g><g class="cls-136"><path class="cls-137" d="M211.72,359.28q-8.28-16.45-15.41-33.45A536.31,536.31,0,0,1,174,261.44q-4.57-16.42-8.09-33.13-1.76-8.34-3.25-16.74c-.8-4.55-.6-9-3.33-12.83s-8.09-3.39-12.48-3.5a121.92,121.92,0,0,0-19.56,1.12c-5.14.71-8.51,6.91-11.37,10.78-5,6.71-7.06,14.91-9.39,22.92a187.79,187.79,0,0,0-5.82,29c-2.48,19.79-2.49,39.78-2.46,59.69l.09,49.16"/></g><path class="cls-17" d="M257.71,284.44c5.54,2.07,11.49,2.72,17.38,3.3,10.08,1,20.43,1.8,30.19-.89a50,50,0,0,1,6.56-1.65,23.46,23.46,0,0,1,7.51.5A101.11,101.11,0,0,1,335.72,291a12.23,12.23,0,0,1,4.67,2.68c1.23,1.32,1.79,3.47.77,5a5.64,5.64,0,0,1-3.19,1.91c-6.92,2.12-14.28,2.15-21.5,2.69-18.56,1.38-36.71,6.23-55.25,7.84a52,52,0,0,1-10.44.09"/><g class="cls-135"><g class="cls-138"><polygon class="cls-125" points="250.78 297.99 251.32 311.56 250.78 311.56 250.78 297.99"/><polygon class="cls-124" points="251.25 284.44 252.33 311.56 251.32 311.56 250.78 297.99 250.78 284.44 251.25 284.44"/><polygon class="cls-123" points="252.25 284.44 253.34 311.56 252.33 311.56 251.25 284.44 252.25 284.44"/><polygon class="cls-122" points="253.26 284.44 254.35 311.56 253.34 311.56 252.25 284.44 253.26 284.44"/><polygon class="cls-121" points="254.27 284.44 255.35 311.56 254.35 311.56 253.26 284.44 254.27 284.44"/><polygon class="cls-120" points="255.28 284.44 256.36 311.56 255.35 311.56 254.27 284.44 255.28 284.44"/><polygon class="cls-119" points="256.29 284.44 257.37 311.56 256.36 311.56 255.28 284.44 256.29 284.44"/><polygon class="cls-118" points="257.29 284.44 258.38 311.56 257.37 311.56 256.29 284.44 257.29 284.44"/><polygon class="cls-117" points="258.3 284.44 259.38 311.56 258.38 311.56 257.29 284.44 258.3 284.44"/><polygon class="cls-116" points="259.31 284.44 260.39 311.56 259.38 311.56 258.3 284.44 259.31 284.44"/><polygon class="cls-115" points="260.32 284.44 261.4 311.56 260.39 311.56 259.31 284.44 260.32 284.44"/><polygon class="cls-114" points="261.32 284.44 262.41 311.56 261.4 311.56 260.32 284.44 261.32 284.44"/><polygon class="cls-113" points="262.33 284.44 263.42 311.56 262.41 311.56 261.32 284.44 262.33 284.44"/><polygon class="cls-112" points="263.34 284.44 264.43 311.56 263.42 311.56 262.33 284.44 263.34 284.44"/><polygon class="cls-111" points="264.35 284.44 265.43 311.56 264.43 311.56 263.34 284.44 264.35 284.44"/><polygon class="cls-110" points="265.36 284.44 266.44 311.56 265.43 311.56 264.35 284.44 265.36 284.44"/><polygon class="cls-109" points="266.36 284.44 267.45 311.56 266.44 311.56 265.36 284.44 266.36 284.44"/><polygon class="cls-108" points="267.37 284.44 268.46 311.56 267.45 311.56 266.36 284.44 267.37 284.44"/><polygon class="cls-107" points="268.38 284.44 269.46 311.56 268.46 311.56 267.37 284.44 268.38 284.44"/><polygon class="cls-106" points="269.39 284.44 270.47 311.56 269.46 311.56 268.38 284.44 269.39 284.44"/><polygon class="cls-105" points="270.4 284.44 271.48 311.56 270.47 311.56 269.39 284.44 270.4 284.44"/><polygon class="cls-104" points="271.4 284.44 272.49 311.56 271.48 311.56 270.4 284.44 271.4 284.44"/><polygon class="cls-103" points="272.41 284.44 273.5 311.56 272.49 311.56 271.4 284.44 272.41 284.44"/><polygon class="cls-102" points="273.42 284.44 274.5 311.56 273.5 311.56 272.41 284.44 273.42 284.44"/><polygon class="cls-101" points="274.43 284.44 275.51 311.56 274.5 311.56 273.42 284.44 274.43 284.44"/><polygon class="cls-100" points="275.44 284.44 276.52 311.56 275.51 311.56 274.43 284.44 275.44 284.44"/><polygon class="cls-99" points="276.44 284.44 277.53 311.56 276.52 311.56 275.44 284.44 276.44 284.44"/><polygon class="cls-98" points="277.45 284.44 278.54 311.56 277.53 311.56 276.44 284.44 277.45 284.44"/><polygon class="cls-97" points="278.46 284.44 279.54 311.56 278.54 311.56 277.45 284.44 278.46 284.44"/><polygon class="cls-96" points="279.47 284.44 280.55 311.56 279.54 311.56 278.46 284.44 279.47 284.44"/><polygon class="cls-95" points="280.48 284.44 281.56 311.56 280.55 311.56 279.47 284.44 280.48 284.44"/><polygon class="cls-94" points="281.48 284.44 282.57 311.56 281.56 311.56 280.48 284.44 281.48 284.44"/><polygon class="cls-93" points="282.49 284.44 283.58 311.56 282.57 311.56 281.48 284.44 282.49 284.44"/><polygon class="cls-92" points="283.5 284.44 284.58 311.56 283.58 311.56 282.49 284.44 283.5 284.44"/><polygon class="cls-91" points="284.51 284.44 285.59 311.56 284.58 311.56 283.5 284.44 284.51 284.44"/><polygon class="cls-90" points="285.52 284.44 286.6 311.56 285.59 311.56 284.51 284.44 285.52 284.44"/><polygon class="cls-89" points="286.52 284.44 287.61 311.56 286.6 311.56 285.52 284.44 286.52 284.44"/><polygon class="cls-88" points="287.53 284.44 288.62 311.56 287.61 311.56 286.52 284.44 287.53 284.44"/><polygon class="cls-87" points="288.54 284.44 289.62 311.56 288.62 311.56 287.53 284.44 288.54 284.44"/><polygon class="cls-86" points="289.55 284.44 290.63 311.56 289.62 311.56 288.54 284.44 289.55 284.44"/><polygon class="cls-85" points="290.56 284.44 291.64 311.56 290.63 311.56 289.55 284.44 290.56 284.44"/><polygon class="cls-84" points="291.56 284.44 292.65 311.56 291.64 311.56 290.56 284.44 291.56 284.44"/><polygon class="cls-83" points="292.57 284.44 293.66 311.56 292.65 311.56 291.56 284.44 292.57 284.44"/><polygon class="cls-82" points="293.58 284.44 294.66 311.56 293.66 311.56 292.57 284.44 293.58 284.44"/><polygon class="cls-81" points="294.59 284.44 295.67 311.56 294.66 311.56 293.58 284.44 294.59 284.44"/><polygon class="cls-80" points="295.6 284.44 296.68 311.56 295.67 311.56 294.59 284.44 295.6 284.44"/><polygon class="cls-79" points="296.6 284.44 297.69 311.56 296.68 311.56 295.6 284.44 296.6 284.44"/><polygon class="cls-78" points="297.61 284.44 298.7 311.56 297.69 311.56 296.6 284.44 297.61 284.44"/><polygon class="cls-77" points="298.62 284.44 299.7 311.52 298.81 311.56 298.7 311.56 297.61 284.44 298.62 284.44"/><polygon class="cls-76" points="299.63 284.44 300.71 311.48 299.7 311.52 298.62 284.44 299.63 284.44"/><polygon class="cls-75" points="300.63 284.44 301.71 311.44 300.71 311.48 299.63 284.44 300.63 284.44"/><polygon class="cls-74" points="301.64 284.44 302.72 311.4 301.71 311.44 300.63 284.44 301.64 284.44"/><polygon class="cls-73" points="302.65 284.44 303.73 311.36 302.72 311.4 301.64 284.44 302.65 284.44"/><polygon class="cls-72" points="303.66 284.44 304.73 311.32 303.73 311.36 302.65 284.44 303.66 284.44"/><polygon class="cls-71" points="304.67 284.44 305.74 311.28 304.73 311.32 303.66 284.44 304.67 284.44"/><polygon class="cls-70" points="305.68 284.44 306.75 311.24 305.74 311.28 304.67 284.44 305.68 284.44"/><polygon class="cls-69" points="306.68 284.44 307.75 311.2 306.75 311.24 305.68 284.44 306.68 284.44"/><polygon class="cls-68" points="307.69 284.44 308.76 311.16 307.75 311.2 306.68 284.44 307.69 284.44"/><polygon class="cls-67" points="308.7 284.44 309.77 311.12 308.76 311.16 307.69 284.44 308.7 284.44"/><polygon class="cls-66" points="309.71 284.44 310.77 311.08 309.77 311.12 308.7 284.44 309.71 284.44"/><polygon class="cls-65" points="310.71 284.44 311.78 311.04 310.77 311.08 309.71 284.44 310.71 284.44"/><polygon class="cls-64" points="311.72 284.44 312.79 311 311.78 311.04 310.71 284.44 311.72 284.44"/><polygon class="cls-63" points="312.73 284.44 313.79 310.96 312.79 311 311.72 284.44 312.73 284.44"/><polygon class="cls-62" points="313.74 284.44 314.8 310.92 313.79 310.96 312.73 284.44 313.74 284.44"/><polygon class="cls-61" points="314.75 284.44 315.8 310.88 314.8 310.92 313.74 284.44 314.75 284.44"/><polygon class="cls-60" points="315.75 284.44 316.81 310.84 315.8 310.88 314.75 284.44 315.75 284.44"/><polygon class="cls-59" points="316.76 284.44 317.82 310.8 316.81 310.84 315.75 284.44 316.76 284.44"/><polygon class="cls-58" points="317.77 284.44 318.82 310.76 317.82 310.8 316.76 284.44 317.77 284.44"/><polygon class="cls-57" points="318.78 284.44 319.83 310.71 318.82 310.76 317.77 284.44 318.78 284.44"/><polygon class="cls-56" points="319.79 284.44 320.83 310.68 319.83 310.71 318.78 284.44 319.79 284.44"/><polygon class="cls-55" points="320.79 284.44 321.84 310.63 320.83 310.68 319.79 284.44 320.79 284.44"/><polygon class="cls-54" points="321.8 284.44 322.85 310.6 321.84 310.63 320.79 284.44 321.8 284.44"/><polygon class="cls-53" points="322.81 284.44 323.85 310.55 322.85 310.6 321.8 284.44 322.81 284.44"/><polygon class="cls-52" points="323.82 284.44 324.86 310.51 323.85 310.55 322.81 284.44 323.82 284.44"/><polygon class="cls-51" points="324.83 284.44 325.87 310.47 324.86 310.51 323.82 284.44 324.83 284.44"/><polygon class="cls-50" points="325.83 284.44 326.87 310.43 325.87 310.47 324.83 284.44 325.83 284.44"/><polygon class="cls-49" points="326.84 284.44 327.88 310.39 326.87 310.43 325.83 284.44 326.84 284.44"/><polygon class="cls-48" points="327.85 284.44 328.89 310.35 327.88 310.39 326.84 284.44 327.85 284.44"/><polygon class="cls-47" points="328.86 284.44 329.89 310.31 328.89 310.35 327.85 284.44 328.86 284.44"/><polygon class="cls-46" points="329.87 284.44 330.9 310.27 329.89 310.31 328.86 284.44 329.87 284.44"/><polygon class="cls-45" points="330.87 284.44 331.9 310.23 330.9 310.27 329.87 284.44 330.87 284.44"/><polygon class="cls-44" points="331.88 284.44 332.91 310.19 331.9 310.23 330.87 284.44 331.88 284.44"/><polygon class="cls-43" points="332.89 284.44 333.92 310.15 332.91 310.19 331.88 284.44 332.89 284.44"/><polygon class="cls-42" points="333.9 284.44 334.92 310.11 333.92 310.15 332.89 284.44 333.9 284.44"/><polygon class="cls-41" points="334.9 284.44 335.93 310.07 334.92 310.11 333.9 284.44 334.9 284.44"/><polygon class="cls-40" points="335.91 284.44 336.94 310.03 335.93 310.07 334.9 284.44 335.91 284.44"/><polygon class="cls-39" points="336.92 284.44 337.94 309.99 336.94 310.03 335.91 284.44 336.92 284.44"/><polygon class="cls-38" points="337.93 284.44 338.95 309.95 337.94 309.99 336.92 284.44 337.93 284.44"/><polygon class="cls-37" points="338.94 284.44 339.96 309.91 338.95 309.95 337.93 284.44 338.94 284.44"/><polygon class="cls-36" points="339.94 284.44 340.96 309.87 339.96 309.91 338.94 284.44 339.94 284.44"/><polygon class="cls-35" points="340.95 284.44 341.97 309.83 340.96 309.87 339.94 284.44 340.95 284.44"/><polygon class="cls-34" points="341.96 284.44 342.18 289.83 342.18 309.82 341.97 309.83 340.95 284.44 341.96 284.44"/><polygon class="cls-33" points="342.18 289.83 341.96 284.44 342.18 284.44 342.18 289.83"/></g></g><path class="cls-139" d="M185.14,306.75a97.42,97.42,0,0,0,9,5.87c16.63,9.56,35.6,14.12,54.34,18.22a11.91,11.91,0,0,0,5.16.35,9.33,9.33,0,0,0,4-2.4c4.61-4.24,7.17-10.36,8.13-16.55s.42-12.51-.32-18.73c-.62-5.12-1.44-10.38-4.11-14.8a4.65,4.65,0,0,0-1.44-1.64,5.3,5.3,0,0,0-2.68-.52,360.28,360.28,0,0,1-38.69-2.87c-6.38-.81-13-1.89-18.29-5.49a39.12,39.12,0,0,1-6.2-5.52,188.86,188.86,0,0,1-20.49-25.42c-5.44-8.08-9.7-17.47-18.23-22.88-3.54-2.24-9.93-4.18-13.93-1.8-4.29,2.55-3.85,9.63-3.42,13.8a101.54,101.54,0,0,0,7.5,28.81c3.25,7.69,8.14,14.34,12.37,21.5A101.26,101.26,0,0,0,185.14,306.75Z"/><path class="cls-17" d="M173.66,71.67c7.84,2.4,12.24,9.38,15.54,16.4a88.7,88.7,0,0,1,2.7,68.12c-2.88,7.66-6.91,13.58-14.45,17.06-6.67,3.08-15.92.46-22-3.32-5.19-3.23-8.87-8.39-11.85-13.73-1.72-3.09-3.29-6.67-2.29-10.06"/><path class="cls-14" d="M171.92,68c1.81,5.17.06,9.64-.36,14.7-.44,5.24.5,10.16-.65,15.45a43.18,43.18,0,0,1-16,25.34,4.09,4.09,0,0,1-2.49,1.06,4.54,4.54,0,0,1-2.11-.84,25.18,25.18,0,0,0-7.59-3.22,18.17,18.17,0,0,0-21.9,15.41,11.26,11.26,0,0,1-3.37-4.37c-.94-2.78,1.58-4.85,1.83-7.49.37-3.89.37-7.7,1.13-11.56a60.07,60.07,0,0,1,37.69-44.75"/><path class="cls-17" d="M153,125c-.91-1.55-2.58-2.46-4.16-3.31a18.14,18.14,0,0,0-2-1c-6.8-2.61-14.77,4.31-15.36,11a17.62,17.62,0,0,0,11.29,17.63,5.62,5.62,0,0,0,2.1.42c.57,0,1.12-.17,1.69-.23a5,5,0,0,1,3.84,1.22"/><path class="cls-14" d="M140.67,149.13a51.37,51.37,0,0,0,15.73,23.36,66.09,66.09,0,0,1-23.11,9c-4.27.79-8.73,1.14-12.91,0-3.29-.91-6.25-2.71-9.42-4-7.8-3.13-17.31-3.38-23-9.59a52.16,52.16,0,0,0,12.42-26.81"/><path class="cls-137" d="M184.25,303.71a97.42,97.42,0,0,0,9,5.87c16.63,9.56,35.6,14.12,54.34,18.22a11.91,11.91,0,0,0,5.16.35,9.33,9.33,0,0,0,4-2.4c4.61-4.24,7.17-10.36,8.12-16.55s.43-12.51-.32-18.73c-.61-5.12-1.43-10.38-4.1-14.8a4.65,4.65,0,0,0-1.44-1.64,5.3,5.3,0,0,0-2.68-.52,360.66,360.66,0,0,1-38.7-2.87c-6.37-.81-13-1.89-18.28-5.49a39.12,39.12,0,0,1-6.2-5.52,188.86,188.86,0,0,1-20.49-25.42c-5.44-8.08-9.7-17.47-18.23-22.88-3.54-2.24-9.94-4.18-13.93-1.8-4.29,2.55-3.85,9.63-3.42,13.8a101.54,101.54,0,0,0,7.5,28.81c3.25,7.69,8.14,14.34,12.37,21.5A101.12,101.12,0,0,0,184.25,303.71Z"/></g><g id="LIGHT"><path class="cls-10" d="M331.43,289.35c-2.69-1-5.4-1.85-8.15-2.56a42.23,42.23,0,0,0-8.37-1.42,17.2,17.2,0,0,0-4.18.34c-1.38.29-2.72.73-4.09,1.15a51.3,51.3,0,0,1-8.41,1.85A86.65,86.65,0,0,1,281,289c-2.86-.2-5.69-.45-8.54-.73s-5.71-.62-8.55-1.18l-.55-.11-.09-.57a36.36,36.36,0,0,0-2.05-7.73,19.9,19.9,0,0,0-1.81-3.46,2.52,2.52,0,0,0-1.11-1,4.85,4.85,0,0,0-1.68-.24c-5.48-.07-11-.25-16.46-.57s-10.95-.77-16.41-1.36c-2.74-.3-5.45-.62-8.19-1a62.2,62.2,0,0,1-8.21-1.58,30,30,0,0,1-7.86-3.3,34.11,34.11,0,0,1-6.5-5.45q-5.78-5.94-11-12.33t-9.9-13.24c-3.17-4.56-5.77-9.41-8.88-13.78l-.17-.24-.05-.27-1-5.5c-.32-1.83-.71-3.65-.95-5.56s-.42-3.69-.78-5.41a13,13,0,0,0-1.88-4.7l-.14-.22-.05-.25a65.17,65.17,0,0,1,.64-27.21l.33-1.35,1.28.54a30.09,30.09,0,0,0,7.4,2.07,18,18,0,0,0,7.47-.41,13.21,13.21,0,0,0,1.72-.65c.57-.29,1.16-.54,1.71-.87a23.61,23.61,0,0,0,6-4.71,29,29,0,0,0,2.36-3c2.87-4.3,4.6-9.38,6.12-14.43a87.7,87.7,0,0,0,3-15.58A89.75,89.75,0,0,0,193.79,102a88.09,88.09,0,0,0-5.42-15A47,47,0,0,0,184.43,80a24.7,24.7,0,0,0-5.5-5.77,24.56,24.56,0,0,1,5.72,5.61,44.56,44.56,0,0,1,4.19,6.87,87.4,87.4,0,0,1,9,47A88.84,88.84,0,0,1,195,149.62c-1.47,5.18-3.13,10.4-6.14,15.09a29.72,29.72,0,0,1-2.5,3.32,26.78,26.78,0,0,1-3,2.9,25.08,25.08,0,0,1-3.46,2.35c-.6.36-1.24.64-1.86,1a14.49,14.49,0,0,1-2,.77,20.44,20.44,0,0,1-8.43.54,32.23,32.23,0,0,1-8-2.2l1.6-.82a62.83,62.83,0,0,0-.48,26.19l-.2-.47a15.77,15.77,0,0,1,2.29,5.57c.41,1.92.59,3.81.84,5.62s.62,3.6,1,5.42l1,5.47-.22-.51c3.26,4.54,5.9,9.36,8.93,13.82s6.28,8.88,9.7,13.1,7,8.31,10.81,12.22a31.7,31.7,0,0,0,6,5.11,27.56,27.56,0,0,0,7.22,3.07,62,62,0,0,0,7.9,1.56c2.68.38,5.4.71,8.11,1,5.42.61,10.86,1.1,16.3,1.5s10.89.67,16.37.82a6.57,6.57,0,0,1,2.35.42,4.4,4.4,0,0,1,1.91,1.68A21.57,21.57,0,0,1,262.9,278a37,37,0,0,1,2,8.14l-.64-.68c2.74.59,5.55,1,8.37,1.29s5.66.62,8.49.86a88.19,88.19,0,0,0,17,.15,50.31,50.31,0,0,0,8.32-1.61c1.37-.38,2.75-.79,4.17-1.05a17.49,17.49,0,0,1,4.33-.25,39.89,39.89,0,0,1,8.42,1.68C326.09,287.32,328.77,288.31,331.43,289.35Z"/><path class="cls-10" d="M188,189.13a214.62,214.62,0,0,0,21.2-3.58c.9-.18,1.72-.34,1.94-.77a3.13,3.13,0,0,0,.32-1l.26-1.31c.34-1.75.72-3.48.94-5.25l.38-2.64c.12-.88.18-1.77.28-2.65l.25-2.65.14-2.67c.71-14.22-1.13-28.44-3.72-42.49-1.26-7-2.71-14.07-4.16-21.06s-3.3-13.87-6.5-20.13a42.66,42.66,0,0,0-5.9-8.67,53.14,53.14,0,0,0-7.86-7.1,86.94,86.94,0,0,0-18.69-10.38,79.65,79.65,0,0,1,19.45,9.32,53.54,53.54,0,0,1,8.39,7,43.08,43.08,0,0,1,6.45,8.88A57.19,57.19,0,0,1,205.47,92c1.13,3.46,2,7,2.84,10.49,1.54,7,3,14,4.32,21.13s2.36,14.23,3,21.43a134.12,134.12,0,0,1,.19,21.68l-.23,2.7-.33,2.7c-.13.9-.22,1.8-.36,2.69l-.49,2.67c-.29,1.79-.75,3.54-1.17,5.3l-.31,1.32a4.55,4.55,0,0,1-.59,1.48,2.7,2.7,0,0,1-1.48,1,12.59,12.59,0,0,1-1.41.26C202.34,187.86,195.2,189,188,189.13Z"/></g></svg>