<?xml version="1.0" encoding="UTF-8"?>
<svg width="100px" height="100px" viewBox="0 0 100 100" version="1.1" xmlns="http://www.w3.org/2000/svg" xmlns:xlink="http://www.w3.org/1999/xlink">
    <!-- Generator: Sketch 54.1 (76490) - https://sketchapp.com -->
    <title>NA/create-a-web-ui-with-asp.net-core</title>
    <desc>Created with Sketch.</desc>
    <defs>
        <rect id="path-1" x="0" y="0" width="96" height="96" rx="48"></rect>
        <filter x="-6.7%" y="-6.7%" width="113.3%" height="113.3%" filterUnits="objectBoundingBox" id="filter-3">
            <feOffset dx="0" dy="2" in="SourceAlpha" result="shadowOffsetOuter1"></feOffset>
            <feColorMatrix values="0 0 0 0 0   0 0 0 0 0   0 0 0 0 0  0 0 0 0.1 0" type="matrix" in="shadowOffsetOuter1" result="shadowMatrixOuter1"></feColorMatrix>
            <feMerge>
                <feMergeNode in="shadowMatrixOuter1"></feMergeNode>
                <feMergeNode in="SourceGraphic"></feMergeNode>
            </feMerge>
        </filter>
        <path d="M2,15.5283173 C4.0000556,18.1646274 6.83455818,19.8351331 9.94993271,19.8351331 C13.7081619,19.8351331 17.0247181,17.5235292 19,14 C18.7191197,19.3331326 15.3491675,22.8655928 10.3329313,22.9974639 C7.6349277,23.0683913 5.14499218,21.647202 3.45247665,19.2864978 C2.73137304,18.2807095 2.27378166,16.9557149 2,15.5283173 Z" id="path-4"></path>
        <filter x="-5.9%" y="-11.1%" width="111.8%" height="144.4%" filterUnits="objectBoundingBox" id="filter-5">
            <feOffset dx="0" dy="2" in="SourceAlpha" result="shadowOffsetOuter1"></feOffset>
            <feColorMatrix values="0 0 0 0 0   0 0 0 0 0   0 0 0 0 0  0 0 0 0.1 0" type="matrix" in="shadowOffsetOuter1"></feColorMatrix>
        </filter>
    </defs>
    <g id="Badges" stroke="none" stroke-width="1" fill="none" fill-rule="evenodd">
        <g id="N/A-23" transform="translate(-50.000000, -260.000000)">
            <g id="NA/create-a-web-ui-with-asp.net-core" transform="translate(50.000000, 260.000000)">
                <g id="Mask" transform="translate(2.000000, 2.000000)">
                    <mask id="mask-2" fill="white">
                        <use xlink:href="#path-1"></use>
                    </mask>
                    <use id="BG" fill="#55A2FF" xlink:href="#path-1"></use>
                    <g id="WebApp" filter="url(#filter-3)" mask="url(#mask-2)">
                        <g transform="translate(17.000000, 17.000000)" id="Path">
                            <path d="M30.0312,59.988 C21.0072,59.988 12.084,55.9368 6.1872,48.2244 C-3.888,35.07 -1.4016,16.2576 11.7768,6.1776 C17.2116,1.9956 23.6232,0 29.9748,0 C38.9988,0 47.9244,4.0512 53.8188,11.7708 C63.8964,24.9216 61.3848,43.7376 48.2316,53.8068 C42.7956,57.9636 36.3912,59.988 30.0312,59.988 Z" fill="#546670"></path>
                            <path d="M42.72,35.2536 C44.8992,38.0952 48.9432,38.6088 51.7692,36.4584 C51.9168,36.3456 52.0308,36.2088 52.1652,36.0876 C55.056,38.124 57.0636,39.468 58.1952,40.2384 C58.53,39.3708 58.7616,38.538 58.9992,37.668 C57.804,36.7788 56.1876,35.5344 53.8512,33.6408 C54.618,31.6248 54.3756,29.2728 52.9752,27.4356 C50.9724,24.8436 47.424,24.1848 44.652,25.7832 C41.5968,23.0424 38.2404,19.9008 34.7004,16.3836 C45.6984,10.4688 53.5116,11.3352 53.5116,11.3352 C52.2072,9.672 50.7456,8.2152 49.1844,6.8988 C44.5464,6.1824 37.3416,6.2628 29.1096,10.6416 L29.1072,10.638 L29.106,10.638 C26.3628,7.7664 23.5704,4.6884 20.7264,1.3836 C19.3656,1.8192 18.036,2.358 16.752,3 C18.8508,6.4344 21.6744,9.8988 24.8568,13.278 L24.8568,13.278 C24.8628,13.2852 24.87,13.2912 24.8772,13.2984 C22.224,15.1536 19.2696,17.634 16.5444,20.5164 C16.1964,20.8872 15.8616,21.2604 15.534,21.6336 C13.9056,21.2928 12.1932,21.3924 10.5936,21.972 C7.8768,16.11 8.0952,11.4012 8.5248,8.9736 C7.3452,10.2096 6.2436,11.5092 5.2944,12.894 C4.5852,15.792 4.3836,19.9716 6.4764,25.008 C4.0536,28.1784 3.9396,32.6748 6.4704,35.9916 C6.6816,36.2664 6.9072,36.522 7.1412,36.7656 C6.036,40.53 5.5416,44.1612 5.3892,47.2788 C5.6736,47.6652 5.6736,47.9772 5.9556,48.354 C7.3944,50.1996 9.2016,51.7548 10.9476,53.1636 C10.7316,49.8636 10.9644,44.9964 13.0044,39.5172 C14.412,39.624 15.8436,39.402 17.184,38.838 C17.952,39.5136 18.756,40.1964 19.614,40.8912 C22.5576,43.2216 25.494,45.0348 28.356,46.4628 C28.2072,47.9184 28.572,49.4316 29.5176,50.6844 C31.5396,53.2956 35.2836,53.7828 37.8972,51.7872 C38.4408,51.3708 38.8704,50.868 39.2268,50.328 C43.8936,51.3672 47.9712,51.5508 50.994,51.5508 C51.4572,51.5508 53.6064,48.6276 54.8376,46.8156 C52.9968,47.2008 47.538,47.9508 40.0776,45.8076 C39.8976,44.97 39.5532,44.1564 39,43.4316 C37.1052,40.9476 33.6408,40.41 31.0584,42.072 C28.4652,40.6656 25.7496,38.9028 22.9488,36.684 C22.3836,36.2364 21.8412,35.79 21.318,35.3424 C23.0292,32.646 23.2116,29.19 21.6996,26.2824 C22.0428,25.9392 22.38,25.5948 22.7448,25.254 C25.518,22.6632 28.1268,20.5896 30.5676,18.9252 C30.4692,18.834 30.3804,18.738 30.2844,18.6456 C30.3816,18.7356 30.4728,18.828 30.5712,18.918 C30.57,18.918 30.57,18.9192 30.5688,18.9192 C34.314,22.3824 38.2848,25.6644 42.0456,28.5972 C41.0508,30.7068 41.2068,33.276 42.72,35.2536 Z" fill="#30404D"></path>
                        </g>
                    </g>
                    <g id="Icon" mask="url(#mask-2)" fill="#A684D3" stroke="#55A2FF" stroke-width="1.5">
                        <g transform="translate(48.000000, 51.000000)" id="Fill-41">
                            <path d="M16,32 C7.16307692,32 0,24.8356923 0,16 C0,7.16430769 7.16307692,0 16,0 C24.8356923,0 32,7.16430769 32,16 C32,24.8356923 24.8356923,32 16,32 Z"></path>
                        </g>
                    </g>
                    <g id="ASP.NET-Robot" mask="url(#mask-2)">
                        <g transform="translate(54.000000, 55.000000)">
                            <path d="M9.98224197,23 C14.9626122,23 19,18.9705627 19,14 C19,9.02943725 14.9626122,5 9.98224197,5 C6.28964486,5 3.1720503,7.12955416 1.77741555,10.3009406 C1.71639589,10.4396987 2.17414302,10.6111671 2.17545982,10.6118059 C2.17677662,10.6124446 2.64799425,10.7945678 2.70384599,10.8365275 C3.19696727,11.206995 2.33021574,13.3733929 1.94358475,14.1227763 C1.75713912,14.4841525 1.00882982,13.4485033 1.00207809,13.7614515 C0.894185692,18.7623515 5.00187173,23 9.98224197,23 Z" id="Oval" stroke="#3F365D" stroke-width="0.72" fill="#8066C0" fill-rule="nonzero"></path>
                            <g id="Combined-Shape" stroke="none" fill="none" fill-rule="nonzero">
                                <use fill="black" fill-opacity="1" filter="url(#filter-5)" xlink:href="#path-4"></use>
                                <use fill="#6D56A6" xlink:href="#path-4"></use>
                            </g>
                            <path d="M2.73640389,9.3639231 C5.27897519,10.7118581 7.91484483,11.1218933 10.6440128,10.5940285 C13.3731807,10.0661638 15.2821093,9.53482097 16.3707985,9 C16.9824896,10.9679695 17.1481797,12.3750463 16.8678689,13.2212302 C16.587558,14.0674141 15.4267299,14.7406731 13.3853845,15.2410071 L9.61692119,15.9595178 C9.46892401,15.9877356 9.31838063,16.0003915 9.16774956,15.9972788 C3.81108782,15.2787508 2.11444509,14.3816808 2.02005574,13.263547 C1.92566639,12.1454133 2.1644491,10.8455387 2.73640389,9.3639231 Z" id="Path-20" stroke="#3F365D" stroke-width="0.72" fill="#FFFFFF" fill-rule="nonzero"></path>
                            <path d="M6.0655008,16.0130536 C5.92896308,16.183342 6.00588706,16.0371944 6.29627274,15.5746108 C6.4811821,15.2800507 6.59035706,14.8295384 6.62379761,14.223074 L6.62380434,14.2230743 C6.6618887,13.5323915 7.18569996,12.9663729 7.87136849,12.8749846 C8.5645219,12.7825986 9.3366443,12.6716066 10.1877357,12.5420083 C11.598152,12.32724 13.1846674,11.8132372 14.9472817,11 L15,14.9064504 L9.3832374,17 L6.0655008,16.0130536 Z" id="Path-41" stroke="none" fill="#E6E6E6" fill-rule="nonzero"></path>
                            <path d="M6,15.8203976 L8.10705901,14.1715105 C8.38389564,13.9548709 8.77669996,13.9698081 9.03628461,14.2068461 L11,16 L6,15.8203976 Z" id="Path-34" stroke="#3F365D" stroke-width="0.5" fill="#A684D3" fill-rule="nonzero"></path>
                            <path d="M16.3238995,9 C16.9346133,10.6014892 17.131589,12.0943162 16.9148268,13.4784809 C16.7879708,14.2885367 15.4738476,15.4663379 14.4419704,15.9243209 C13.4100933,16.3823039 11.3894216,16.9683963 9.2252657,16.9984012 C4.56168869,17.0630594 1.33008195,15.1539189 1.00884771,13.5636527 C0.961206857,13.3278073 1.12148464,12.4121894 1.12141612,12.4054741 C1.12137689,12.4016302 2.12568689,12.5848063 2.12147835,12.5984719 C2.1172698,12.6121376 2.13609493,13.0542723 2.24523583,13.2401353 C2.58940362,13.8262406 3.43211578,14.4580416 6.056915,15.0979033 C6.55136948,15.2184392 8.97436482,15.5989699 11.6585108,15.1937131 C13.8280863,14.8661471 15.2295654,13.5524487 15.3203412,13.4476666 C16.3583969,12.2494433 15.2480009,9.42049047 15.263066,9.42082347 C15.2725332,9.42103272 15.6261444,9.28075824 16.3238995,9 Z" id="Path-20" stroke="#3F365D" stroke-width="0.5" fill="#6D56A6" fill-rule="nonzero"></path>
                            <path d="" id="Path-27" stroke="#979797" stroke-width="0.72" fill="none" fill-rule="nonzero"></path>
                            <g id="Group-32" stroke="none" stroke-width="1" fill="none" fill-rule="evenodd" transform="translate(4.000000, 11.000000)">
                                <ellipse id="Oval" fill="#3F365D" fill-rule="nonzero" cx="1" cy="1.5" rx="1" ry="1.5"></ellipse>
                            </g>
                            <g id="Group-32" stroke="none" stroke-width="1" fill="none" fill-rule="evenodd" transform="translate(10.000000, 11.000000)">
                                <ellipse id="Oval" fill="#3F365D" fill-rule="nonzero" cx="1" cy="1.5" rx="1" ry="1.5"></ellipse>
                            </g>
                            <g id="Group-37" stroke="none" stroke-width="1" fill="none" fill-rule="evenodd" transform="translate(7.000000, 0.000000)">
                                <g id="Group-42" transform="translate(0.833333, 2.271429)" fill="#DDDDDD" fill-rule="nonzero" stroke="#3F365D" stroke-width="0.72">
                                    <path d="M2.08721929e-13,5.01470362 C0.418694628,4.18585359 1.02022403,3.77142857 1.8045882,3.77142857 C2.58895237,3.77142857 3.19499591,4.23567302 3.6227188,5.16416191 C3.19876914,5.38436956 2.57046691,5.49992108 1.73781212,5.51081646 C0.905157321,5.52171184 0.325886615,5.3563409 2.08721929e-13,5.01470362 Z" id="Path-38"></path>
                                    <polygon id="Path-39" transform="translate(2.045803, 2.058246) rotate(-2.000000) translate(-2.045803, -2.058246) " points="1.21431879 3.86040967 1.26261944 0.193971883 2.87728767 0.199314549 2.41360218 3.92251986"></polygon>
                                </g>
                                <ellipse id="Oval" stroke="#3F365D" stroke-width="0.72" fill="#8066C0" fill-rule="nonzero" transform="translate(2.890161, 1.861723) rotate(-2.000000) translate(-2.890161, -1.861723) " cx="2.89016068" cy="1.86172258" rx="2.34841773" ry="2.16024204"></ellipse>
                                <path d="M0.956877645,2.28497157 C1.30459034,2.51599098 1.73746004,2.64673755 2.20198733,2.63205464 C3.29961182,2.59736061 4.15833976,1.76383902 4.12000986,0.77033206 C4.11523011,0.646441185 4.0967266,0.525912821 4.06586796,0.409902163 C4.53976031,0.724754996 4.85547738,1.22586009 4.87758562,1.79890349 C4.91591551,2.79241045 4.05718758,3.62593204 2.95956309,3.66062607 C1.99881299,3.69099373 1.17348091,3.09927476 0.956877645,2.28497157 Z" id="Combined-Shape" fill="#6D56A6" fill-rule="nonzero"></path>
                            </g>
                        </g>
                    </g>
                </g>
                <g id="Azure-Border" stroke="#0078D4" stroke-width="4">
                    <rect x="2" y="2" width="96" height="96" rx="48"></rect>
                </g>
            </g>
        </g>
    </g>
</svg>