<svg xmlns="http://www.w3.org/2000/svg" overflow="hidden" viewBox="0 0 1729 1558" width="300">
  <defs>
    <clipPath id="a">
      <path d="M2150 484h1729v1558H2150z"/>
    </clipPath>
  </defs>
  <g clip-path="url(#a)" transform="translate(-2150 -484)">
    <path fill="#7F7F7F" d="M2352.063 700.5v342.789h164.623v-6.875H2355.5l3.438 3.438V700.5Zm160.039 353.102 27.5-13.75-27.5-13.75Zm225.961 92.898v342.789h218.077v-6.875H2741.5l3.438 3.438V1146.5Zm213.493 353.102 27.5-13.75-27.5-13.75Z"/>
    <path fill="#F2F2F2" stroke="#000" stroke-miterlimit="8" stroke-width="6.875" d="M2153.5 487.5h404v213h-404z"/>
    <text fill="#0078D7" font-family="Segoe UI Semilight,Segoe UI Semilight_MSFontService,sans-serif" font-size="73" font-weight="300" transform="translate(2225.66 620)">Account</text>
    <path fill="#7F7F7F" d="M3177.063 1592.5v342.79h218.077v-6.875H3180.5l3.438 3.437V1592.5Zm213.494 353.102 27.5-13.75-27.5-13.75Z"/>
    <path fill="#F2F2F2" stroke="#000" stroke-miterlimit="8" stroke-width="6.875" d="M2593.5 876.5h403v213h-403z"/>
    <text fill="#0078D7" font-family="Segoe UI Semilight,Segoe UI Semilight_MSFontService,sans-serif" font-size="73" font-weight="300" transform="translate(2648.32 1010)">Database</text>
    <path fill="#F2F2F2" stroke="#000" stroke-miterlimit="8" stroke-width="6.875" d="M2566.5 904.5h404v214h-404z"/>
    <text fill="#0078D7" font-family="Segoe UI Semilight,Segoe UI Semilight_MSFontService,sans-serif" font-size="73" font-weight="300" transform="translate(2621.59 1038)">Database</text>
    <path fill="#F2F2F2" stroke="#000" stroke-miterlimit="8" stroke-width="6.875" d="M2539.5 933.5h404v213h-404z"/>
    <text fill="#0078D7" font-family="Segoe UI Semilight,Segoe UI Semilight_MSFontService,sans-serif" font-size="73" font-weight="300" transform="translate(2594.86 1066)">Database</text>
    <path fill="#F2F2F2" stroke="#000" stroke-miterlimit="8" stroke-width="6.875" d="M3032.5 1322.5h404v213h-404z"/>
    <text fill="#0078D7" font-family="Segoe UI Semilight,Segoe UI Semilight_MSFontService,sans-serif" font-size="73" font-weight="300" transform="translate(3087.68 1456)">Database</text>
    <path fill="#F2F2F2" stroke="#000" stroke-miterlimit="8" stroke-width="6.875" d="M3005.5 1350.5h404v214h-404z"/>
    <text fill="#0078D7" font-family="Segoe UI Semilight,Segoe UI Semilight_MSFontService,sans-serif" font-size="73" font-weight="300" transform="translate(3060.95 1484)">Database</text>
    <path fill="#F2F2F2" stroke="#000" stroke-miterlimit="8" stroke-width="6.875" d="M2979.5 1379.5h403v213h-403z"/>
    <text fill="#0078D7" font-family="Segoe UI Semilight,Segoe UI Semilight_MSFontService,sans-serif" font-size="73" font-weight="300" transform="translate(3027.15 1512)">Container</text>
    <path fill="#F2F2F2" stroke="#000" stroke-miterlimit="8" stroke-width="6.875" d="M3471.5 1768.5h404v213h-404z"/>
    <text fill="#0078D7" font-family="Segoe UI Semilight,Segoe UI Semilight_MSFontService,sans-serif" font-size="73" font-weight="300" transform="translate(3527.03 1902)">Database</text>
    <path fill="#F2F2F2" stroke="#000" stroke-miterlimit="8" stroke-width="6.875" d="M3445.5 1796.5h403v213h-403z"/>
    <text fill="#0078D7" font-family="Segoe UI Semilight,Segoe UI Semilight_MSFontService,sans-serif" font-size="73" font-weight="300" transform="translate(3500.31 1930)">Database</text>
    <path fill="#F2F2F2" stroke="#000" stroke-miterlimit="8" stroke-width="6.875" d="M3418.5 1824.5h404v214h-404z"/>
    <text fill="#0078D7" font-family="Segoe UI Semilight,Segoe UI Semilight_MSFontService,sans-serif" font-size="73" font-weight="300" transform="translate(3549.3 1958)">Item</text>
  </g>
</svg>