<?xml version="1.0" encoding="UTF-8"?>
<svg width="100px" height="100px" viewBox="0 0 100 100" version="1.1" xmlns="http://www.w3.org/2000/svg" xmlns:xlink="http://www.w3.org/1999/xlink">
    <!-- Generator: Sketch 52.5 (67469) - http://www.bohemiancoding.com/sketch -->
    <title>SQL Server 2017 on Linux/run-sql-server-2017-on-linux-containers</title>
    <desc>Created with Sketch.</desc>
    <defs>
        <rect id="path-1" x="0" y="0" width="96" height="96" rx="48"></rect>
    </defs>
    <g id="Badges" stroke="none" stroke-width="1" fill="none" fill-rule="evenodd">
        <g id="SQL-Server-2017-on-Linux" transform="translate(-50.000000, -860.000000)">
            <g id="SQL-Server-2017-on-Linux/run-sql-server-2017-on-linux-containers" transform="translate(50.000000, 860.000000)">
                <g id="Mask" transform="translate(2.000000, 2.000000)">
                    <mask id="mask-2" fill="white">
                        <use xlink:href="#path-1"></use>
                    </mask>
                    <use id="BG" fill="#C0DDF4" xlink:href="#path-1"></use>
                    <g id="Group-4" mask="url(#mask-2)">
                        <g transform="translate(5.100000, 24.600000)">
                            <ellipse id="Shadow" fill="#000000" opacity="0.100000001" cx="42.9" cy="38.9647057" rx="42.7473599" ry="9.37071244"></ellipse>
                            <g id="Group-2" stroke-width="1" fill="none" transform="translate(8.400000, 0.900000)">
                                <path d="M0.425767836,10.6988155 L0.451191718,34.0659228 L44.2985724,42.2010313 L44.2985724,0.938336238 L2.06293551,8.72982639 C1.11350275,8.9049746 0.424717405,9.73336307 0.425767836,10.6988155 Z" id="Path-16" fill="#30404D"></path>
                                <g id="Path-16" transform="translate(0.000000, 2.000000)">
                                    <g id="path-3-link" fill="#000000">
                                        <path d="M0.423954503,9.0321802 L0.449384271,32.404697 C0.450432081,33.3677396 1.13766044,34.193285 2.0845445,34.3689626 L44.2985724,42.2010313 L44.2985724,0.93833624 L0.423954503,9.0321802 Z" id="path-3"></path>
                                    </g>
                                    <g id="path-3-link" fill="#546670">
                                        <path d="M0.423954503,9.0321802 L0.449384271,32.404697 C0.450432081,33.3677396 1.13766044,34.193285 2.0845445,34.3689626 L44.2985724,42.2010313 L44.2985724,0.93833624 L0.423954503,9.0321802 Z" id="path-3"></path>
                                    </g>
                                </g>
                                <g id="Path-17" transform="translate(44.000000, 0.000000)">
                                    <g id="path-5-link" fill="#000000">
                                        <path d="M24.6940788,5.2424272 L24.6940788,38.4759786 L0.2985724,42.2010313 L0.2985724,0.938336238 L22.8978424,3.25283418 C23.9181785,3.35733162 24.6940788,4.21675395 24.6940788,5.2424272 Z" id="path-5"></path>
                                    </g>
                                    <g id="path-5-link" fill="#182A37">
                                        <path d="M24.6940788,5.2424272 L24.6940788,38.4759786 L0.2985724,42.2010313 L0.2985724,0.938336238 L22.8978424,3.25283418 C23.9181785,3.35733162 24.6940788,4.21675395 24.6940788,5.2424272 Z" id="path-5"></path>
                                    </g>
                                </g>
                                <g id="Path-17" transform="translate(44.000000, 2.000000)">
                                    <g id="path-7-link" fill="#000000">
                                        <path d="M24.6940788,3.43679523 L24.6940788,36.7581858 C24.6940788,37.7461812 23.9726433,38.5861376 22.9959681,38.7352703 L0.2985724,42.2010313 L0.2985724,0.93833624 L24.6940788,3.43679523 Z" id="path-7"></path>
                                    </g>
                                    <g id="path-7-link" fill="#30404D">
                                        <path d="M24.6940788,3.43679523 L24.6940788,36.7581858 C24.6940788,37.7461812 23.9726433,38.5861376 22.9959681,38.7352703 L0.2985724,42.2010313 L0.2985724,0.93833624 L24.6940788,3.43679523 Z" id="path-7"></path>
                                    </g>
                                </g>
                                <path d="M40.3653104,5.93387154 L40.6584126,5.87764092 C41.1872515,5.77618506 41.6982063,6.12264741 41.7996621,6.65148624 C41.8112773,6.71203051 41.8171242,6.77353994 41.8171242,6.83518832 L41.8171242,40.337688 C41.8171242,40.8641402 41.3903504,41.2909141 40.8638982,41.2909141 C40.8040088,41.2909141 40.7442528,41.28527 40.6854226,41.2740567 L40.3664877,41.2132665 C39.8948915,41.1233784 39.553721,40.7110373 39.553721,40.230951 L39.553721,6.91596189 C39.553721,6.4363269 39.8942655,6.02423984 40.3653104,5.93387154 Z" id="Rectangle" fill="#30404D"></path>
                                <path d="M40.3653104,5.93387154 L40.6584126,5.87764092 L40.6518195,41.2676519 L40.3664877,41.2132665 C39.8948915,41.1233784 39.553721,40.7110373 39.553721,40.230951 L39.553721,6.91596189 C39.553721,6.4363269 39.8942655,6.02423984 40.3653104,5.93387154 Z" id="Rectangle" fill="#182A37"></path>
                                <path d="M47.4404618,5.51367327 L47.703865,5.53921917 C48.2163557,5.58892259 48.6073339,6.01965388 48.6073339,6.53454914 L48.6073339,40.4238258 C48.6073339,40.9144922 48.2513409,41.3326758 47.7669666,41.4110022 L47.4756322,41.4581129 C46.9435616,41.5441521 46.4424845,41.1825722 46.3564453,40.6505015 C46.3481156,40.5989903 46.3439306,40.546894 46.3439306,40.4947137 L46.3439306,6.50900323 C46.3439306,5.95671848 46.7916459,5.50900323 47.3439306,5.50900323 C47.3761641,5.50900323 47.4083788,5.51056173 47.4404618,5.51367327 Z" id="Rectangle" fill="#182A37"></path>
                                <path d="M51.9733934,5.98605778 L52.2367967,6.01324141 C52.7466276,6.06585676 53.1341403,6.49541958 53.1341403,7.00795829 L53.1341403,39.7304288 C53.1341403,40.2246477 52.7731079,40.6447443 52.2845083,40.7190589 L52.0024387,40.761961 C51.4652931,40.8436594 50.9636209,40.4744464 50.8819225,39.9373008 C50.8744762,39.8883433 50.8707371,39.8388934 50.8707371,39.7893728 L50.8707371,6.98077466 C50.8707371,6.42848992 51.3184523,5.98077466 51.8707371,5.98077466 C51.9050238,5.98077466 51.9392878,5.98253803 51.9733934,5.98605778 Z" id="Rectangle" fill="#182A37"></path>
                                <path d="M56.4910544,6.42231076 L56.7544576,6.44705021 C57.2682541,6.4953072 57.6609468,6.92661071 57.6609468,7.44266847 L57.6609468,39.0451621 C57.6609468,39.5405111 57.2983047,39.9612109 56.808368,40.0342359 L56.5292452,40.0758391 C55.9904784,40.1561421 55.4886231,39.7844838 55.40832,39.2457171 C55.4011455,39.1975821 55.3975435,39.1489822 55.3975435,39.1003155 L55.3975435,7.41792902 C55.3975435,6.86564427 55.8452588,6.41792902 56.3975435,6.41792902 C56.4287651,6.41792902 56.4599696,6.4193912 56.4910544,6.42231076 Z" id="Rectangle" fill="#182A37"></path>
                                <path d="M61.0301572,6.91574291 L61.2935605,6.94377021 C61.8020172,6.99787232 62.1877532,7.4268299 62.1877532,7.93815687 L62.1877532,38.3543556 C62.1877532,38.8473885 61.8284067,39.2668492 61.341214,39.3425104 L61.0560516,39.3867962 C60.5206038,39.4699514 60.019127,39.1032958 59.9359718,38.567848 C59.9282354,38.5180325 59.92435,38.4676948 59.92435,38.4172822 L59.92435,7.91012957 C59.92435,7.35784482 60.3720652,6.91012957 60.92435,6.91012957 C60.9596935,6.91012957 60.9950121,6.91200332 61.0301572,6.91574291 Z" id="Rectangle" fill="#182A37"></path>
                                <path d="M65.5552806,7.39005184 L65.8186838,7.41762837 C66.3278751,7.47093724 66.7145597,7.90021848 66.7145597,8.41219268 L66.7145597,37.6404959 C66.7145597,38.1307237 66.3591867,38.5486695 65.8753363,38.6274867 L65.5828581,38.6751302 C65.0514117,38.7617006 64.5504102,38.4010574 64.4638398,37.869611 C64.455398,37.817788 64.4511564,37.7653676 64.4511564,37.7128615 L64.4511564,8.38461615 C64.4511564,7.8323314 64.8988717,7.38461615 65.4511564,7.38461615 C65.4859354,7.38461615 65.5206907,7.38643051 65.5552806,7.39005184 Z" id="Rectangle" fill="#182A37"></path>
                                <path d="M31.3279645,7.58581778 L31.6318097,7.53272013 C32.1570791,7.44092809 32.6573062,7.79233092 32.7490982,8.3176003 C32.7586889,8.37248208 32.7635113,8.42809101 32.7635113,8.48380449 L32.7635113,38.64662 C32.7635113,39.1731227 32.3366965,39.5999375 31.8101937,39.5999375 C31.7503356,39.5999375 31.6906105,39.5942999 31.6318097,39.5830993 L31.3129888,39.5223691 C30.8413393,39.4325275 30.5001081,39.0201619 30.5001081,38.5400319 L30.5001081,8.57088965 C30.5001081,8.08501927 30.8493472,7.66945725 31.3279645,7.58581778 Z" id="Rectangle" fill="#30404D"></path>
                                <path d="M31.3270895,7.58371595 L31.516287,7.55065325 L31.5476011,39.5651238 L31.3121138,39.5202673 C30.8404643,39.4304257 30.4992331,39.0180601 30.4992331,38.5379301 L30.4992331,8.56878782 C30.4992331,8.08291744 30.8484723,7.66735542 31.3270895,7.58371595 Z" id="Rectangle" fill="#182A37"></path>
                                <path d="M35.8540685,6.76111667 L36.1586161,6.70767245 C36.6835054,6.61556108 37.1836832,6.96639688 37.2757946,7.49128615 C37.2854584,7.54635454 37.2903177,7.60215865 37.2903177,7.65806854 L37.2903177,39.4872355 C37.2903177,40.0154677 36.8621009,40.4436846 36.3338687,40.4436846 C36.2750776,40.4436846 36.2164118,40.438264 36.1586161,40.4274915 L35.843682,40.3687916 C35.3702162,40.2805432 35.0269145,39.8673418 35.0269145,39.3857219 L35.0269145,7.74606554 C35.0269145,7.26046439 35.3757762,6.84505087 35.8540685,6.76111667 Z" id="Rectangle" fill="#30404D"></path>
                                <path d="M35.8540685,6.76111667 L36.1586161,6.70767245 L36.1586161,40.4274915 L35.843682,40.3687916 C35.3702162,40.2805432 35.0269145,39.8673418 35.0269145,39.3857219 L35.0269145,7.74606554 C35.0269145,7.26046439 35.3757762,6.84505087 35.8540685,6.76111667 Z" id="Rectangle" fill="#182A37"></path>
                                <path d="M26.7880137,8.43090642 L27.1050032,8.37113714 C27.6231886,8.27343182 28.1224666,8.61429824 28.2201719,9.1324836 C28.2311699,9.19081188 28.2367048,9.25003865 28.2367048,9.30939473 L28.2367048,37.7889948 C28.2367048,38.3214883 27.8050336,38.7531595 27.2725402,38.7531595 C27.2163739,38.7531595 27.160315,38.7482517 27.1050032,38.738492 L26.7995378,38.6845932 C26.3216704,38.6002744 25.9733016,38.1850552 25.9733016,37.6998059 L25.9733016,9.41359069 C25.9733016,8.9327587 26.3155077,8.51999877 26.7880137,8.43090642 Z" id="Rectangle" fill="#30404D"></path>
                                <path d="M26.724114,8.4498839 L27.0353684,8.36660699 L27.038935,38.7256815 L26.8065739,38.6846818 C26.3286771,38.6003579 25.9802993,38.1850945 25.9803377,37.6998154 L25.9825756,9.41582633 C25.9826114,8.96311248 26.2867827,8.56689302 26.724114,8.4498839 Z" id="Rectangle" fill="#182A37"></path>
                                <path d="M22.2674175,9.26375023 L22.5781968,9.20718217 C23.0997214,9.11225424 23.5994549,9.45807918 23.6943828,9.97960379 C23.7047055,10.0363157 23.7098984,10.0938423 23.7098984,10.151486 L23.7098984,36.9598871 C23.7098984,37.49232 23.2782763,37.9239421 22.7458435,37.9239421 C22.6896399,37.9239421 22.633544,37.9190272 22.5781968,37.9092535 L22.2725977,37.8552884 C21.7947922,37.7709137 21.4464952,37.3557227 21.4464952,36.8705246 L21.4464952,10.2475852 C21.4464952,9.76437271 21.7920162,9.3502828 22.2674175,9.26375023 Z" id="Rectangle" fill="#30404D"></path>
                                <path d="M22.2674175,9.26375023 L22.5519944,9.21195153 L22.4874027,37.8932203 L22.2725977,37.8552884 C21.7947922,37.7709137 21.4464952,37.3557227 21.4464952,36.8705246 L21.4464952,10.2475852 C21.4464952,9.76437271 21.7920162,9.3502828 22.2674175,9.26375023 Z" id="Rectangle" fill="#182A37"></path>
                                <path d="M17.7378137,10.0925393 L18.0182019,10.0406787 C18.5534708,9.9416755 19.06765,10.2953387 19.1666533,10.8306077 C19.1775894,10.8897349 19.1830919,10.9497388 19.1830919,11.0098689 L19.1830919,36.1335608 C19.1830919,36.6620157 18.7546946,37.090413 18.2262397,37.090413 C18.167586,37.090413 18.1090565,37.08502 18.0513903,37.0743019 L17.7369547,37.0158598 C17.2632563,36.9278166 16.9196887,36.5145084 16.9196887,36.0326974 L16.9196887,11.0758609 C16.9196887,10.5937207 17.2637148,10.1802285 17.7378137,10.0925393 Z" id="Rectangle" fill="#30404D"></path>
                                <path d="M17.7378137,10.0925393 L18.0182019,10.0406787 L18.0513903,37.0743019 L17.7369547,37.0158598 C17.2632563,36.9278166 16.9196887,36.5145084 16.9196887,36.0326974 L16.9196887,11.0758609 C16.9196887,10.5937207 17.2637148,10.1802285 17.7378137,10.0925393 Z" id="Rectangle" fill="#182A37"></path>
                                <path d="M13.2108002,10.9325107 L13.5245839,10.8744051 C14.0444913,10.7781299 14.5440061,11.1215517 14.6402813,11.6414591 C14.6509284,11.6989557 14.6562855,11.7573068 14.6562855,11.8157808 L14.6562855,35.2862786 C14.6562855,35.8147335 14.2278882,36.2431308 13.6994333,36.2431308 C13.6407795,36.2431308 13.58225,36.2377377 13.5245839,36.2270197 L13.2101483,36.1685776 C12.7364499,36.0805343 12.3928822,35.6672261 12.3928822,35.1854152 L12.3928822,11.9157941 C12.3928822,11.4337332 12.7367978,11.0202854 13.2108002,10.9325107 Z" id="Rectangle" fill="#30404D"></path>
                                <path d="M13.2108002,10.9325107 L13.5245839,10.8744051 L13.5026029,36.2229342 L13.2101483,36.1685776 C12.7364499,36.0805343 12.3928822,35.6672261 12.3928822,35.1854152 L12.3928822,11.9157941 C12.3928822,11.4337332 12.7367978,11.0202854 13.2108002,10.9325107 Z" id="Rectangle" fill="#182A37"></path>
                                <path d="M8.68533993,11.748334 L8.99777741,11.6909198 C9.51840908,11.5952474 10.0180222,11.939745 10.1136946,12.4603766 C10.1241958,12.5175222 10.129479,12.5755043 10.129479,12.6336068 L10.129479,34.4458199 C10.129479,34.9733128 9.70186156,35.4009303 9.17436868,35.4009303 C9.1151216,35.4009303 9.05600302,35.3954175 8.99777741,35.3844632 L8.68118483,35.3249012 C8.20849331,35.2359716 7.8660758,34.8231263 7.8660758,34.3421422 L7.8660758,12.7318656 C7.8660758,12.2492888 8.21071031,11.8355529 8.68533993,11.748334 Z" id="Rectangle" fill="#30404D"></path>
                                <path d="M8.68533993,11.748334 L8.99777741,11.6909198 L8.99188024,35.3833538 L8.68118483,35.3249012 C8.20849331,35.2359716 7.8660758,34.8231263 7.8660758,34.3421422 L7.8660758,12.7318656 C7.8660758,12.2492888 8.21071031,11.8355529 8.68533993,11.748334 Z" id="Rectangle" fill="#182A37"></path>
                                <path d="M4.1610732,12.5940522 L4.47097096,12.5379314 C4.99297069,12.4434 5.49276784,12.7899317 5.58729916,13.3119314 C5.59752751,13.3684121 5.60267257,13.425696 5.60267257,13.4830955 L5.60267257,33.6074745 C5.60267257,34.1357648 5.17440869,34.5640287 4.64611842,34.5640287 C4.58736317,34.5640287 4.52873288,34.5586152 4.47097096,34.547857 L4.15616684,34.4892243 C3.68264034,34.4010294 3.33926935,33.9878002 3.33926935,33.5061305 L3.33926935,13.5780471 C3.33926935,13.0944968 3.68526207,12.680219 4.1610732,12.5940522 Z" id="Rectangle" fill="#30404D"></path>
                                <path d="M4.1610732,12.5940522 L4.47097096,12.5379314 L4.46355635,34.546476 L4.15616684,34.4892243 C3.68264034,34.4010294 3.33926935,33.9878002 3.33926935,33.5061305 L3.33926935,13.5780471 C3.33926935,13.0944968 3.68526207,12.680219 4.1610732,12.5940522 Z" id="Rectangle" fill="#182A37"></path>
                            </g>
                            <g id="Group-31" stroke-width="1" fill="none" transform="translate(16.224670, 9.932184)">
                                <circle id="Oval" stroke="#30404D" stroke-width="1.42956" fill="#E1E4E1" cx="13.69995" cy="13.7570916" r="13.2457073"></circle>
                                <g id="linux" transform="translate(4.646070, 1.987048)" fill-rule="nonzero">
                                    <path d="M8.51221484,4.37940831 C9.44044616,4.15287891 11.1689399,5.78897787 12.1396752,7.61897062 C13.0519898,9.52376811 13.6691189,11.5691936 13.9678019,13.678152 C14.1679817,15.1779493 14.5678845,18.4683848 13.5966922,19.2228428 C12.6254999,19.9773009 10.3252595,20.3972442 8.79009009,20.4270002 C7.25492072,20.4567561 5.28420016,20.3674882 4.59865265,18.3277638 C3.91310515,16.2880394 3.71338231,14.6677783 3.97069114,13.3182006 C4.22799997,11.9686229 5.48438003,9.56894716 5.9414117,8.87880041 C6.39844337,8.18865365 6.41169729,8.2712025 6.58125604,7.10879955 C6.75081478,5.9463966 7.46287013,4.63521375 8.51221484,4.37940831 Z" id="Shape" fill="#FFFFFF"></path>
                                    <path d="M6.3527402,21.3225592 C7.65573749,20.6645681 10.4107244,20.7336787 12.2909527,21.3225592 C14.171181,21.9114396 13.1483441,15.668923 12.4477145,17.3822915 C11.8469014,18.9076233 10.4399524,19.9117729 8.86824251,19.9369864 C5.85183349,19.9369864 4.90120762,17.6678529 4.90120762,17.6678529 L6.3527402,21.3225592 Z" id="Shape" fill="#020204"></path>
                                    <path d="M12.5459763,21.8480882 C13.3439536,22.4072126 14.2369935,21.8250513 14.7008807,21.3518352 C15.179014,20.8359938 15.7322287,20.4032872 16.3397962,20.0699284 C16.8882495,19.8612505 17.3871783,19.5303547 17.8022976,19.0999794 C17.9782548,18.7880216 17.9558602,18.4280702 17.4942582,18.1530674 C17.0134075,17.9222006 16.6326895,17.5100704 16.4275463,16.9983434 C16.3283704,16.5361658 16.4165776,16.1090235 16.0756319,15.831621 C15.7346863,15.5542185 14.1204504,15.5412603 13.6565633,15.5201431 C13.1926762,15.499026 12.5016443,15.3353681 12.3037496,15.5201431 C12.1058549,15.7049181 12.2159995,16.4209814 12.2269682,16.815968 C12.2136644,17.6037499 12.158583,18.3901419 12.0619798,19.1714898 C11.9847415,19.6192693 11.3910573,21.0398774 12.5459763,21.8480882 Z" id="Shape" fill="#F5BD0C"></path>
                                    <path d="M6.30703703,7.39628071 L6.30703703,3.19588821 C6.30703673,1.43159732 7.66848778,0.00105979329 9.34858279,0 C11.0293918,1.27880415e-15 12.3919567,1.43084789 12.3919567,3.19588821 L12.3919567,6.07981857 C12.3919567,7.11935812 13.6620477,8.48765325 14.4865328,9.43936467 C15.3770388,10.5775325 15.9380532,11.9599948 16.1030538,13.4228265 C16.2186828,14.7392886 16.0157608,16.2544439 14.9485918,16.7655748 C14.0084777,17.216234 13.089844,16.6988639 13.1360042,15.4697499 C13.1515433,15.0632448 13.3156177,12.819068 12.7877461,11.2079257 C12.1748595,9.607195 11.4769421,8.04382976 10.6972832,6.5251984 C10.6972832,6.5251984 6.91534619,5.69970993 6.91534619,6.68693654 C7.02445484,7.66208968 6.80957733,8.64689535 6.30703703,9.47487987 C5.59772388,10.8086197 4.228457,13.181899 4.40989858,15.1045193 C4.98164519,15.9976786 5.97706017,16.6316729 6.38930273,16.9762664 C6.8015453,17.3208598 7.11506902,17.9625331 6.86781489,18.3436016 C6.62056076,18.7246702 5.45101672,18.4645453 5.10275859,18.3436016 C4.75450045,18.222658 3.15351852,15.8666563 2.95653787,15.4855878 C2.73181414,14.9636508 2.72584569,14.3666666 2.94008473,13.8398901 C3.17134275,13.1641414 3.74857375,12.2810607 4.01228102,11.4493331 C4.31819126,10.5683333 4.74615943,9.73952698 5.28237203,8.98966543 C5.82669675,8.19297307 6.17312675,8.1238624 6.30703703,7.39628071 Z" id="Shape" fill="#020204"></path>
                                    <ellipse id="Oval" fill="#FFFFFF" cx="9.89016532" cy="4.53250762" rx="1" ry="1.49547795"></ellipse>
                                    <path d="M8.16258561,4.45955748 C8.21788644,5.15402365 7.89202286,5.74914325 7.43407713,5.7894578 C6.9761314,5.82977235 6.64432641,5.29320485 6.58902557,4.59873868 C6.53372474,3.9042725 6.77595153,3.31539207 7.23344023,3.27507751 C7.69092893,3.23476296 8.10682775,3.76509131 8.16258561,4.45955748 Z" id="Shape" fill="#FFFFFF"></path>
                                    <circle id="Oval" fill="#020204" transform="translate(9.887019, 4.635164) rotate(-87.895000) translate(-9.887019, -4.635164) " cx="9.88701896" cy="4.63516413" r="1"></circle>
                                    <circle id="Oval" fill="#020204" transform="translate(7.414510, 4.664613) rotate(-9.083000) translate(-7.414510, -4.664613) " cx="7.41450983" cy="4.66461343" r="1"></circle>
                                    <path d="M8.50992968,4.80367099 C9.10407085,4.80367099 9.62600101,5.30328349 9.94226693,5.39543104 C10.2585328,5.48757859 10.7091661,5.53125269 10.8851233,5.87536619 C11.0610805,6.2194797 10.8394201,6.66054011 10.3572517,6.91442581 C9.87508327,7.16831151 9.29053977,7.8848547 8.4221796,7.8848547 C7.55381943,7.8848547 7.23389726,7.053607 6.91397509,6.78772293 C6.77415969,6.70942279 6.67477803,6.56984538 6.64280264,6.40687251 C6.61082725,6.24389963 6.649575,6.07443682 6.74852963,5.94447686 C6.9400259,5.60324296 7.86094471,4.80367099 8.50992968,4.80367099 Z" id="Shape" fill="#F5BD0C"></path>
                                    <path d="M6.75035775,21.397909 C7.29879576,20.4596357 6.93728371,19.5962324 6.33263081,18.8691306 C5.66783332,17.9168881 5.05474081,16.9260063 4.49627756,15.9012116 C4.19920698,15.4275156 3.79244879,15.0003733 3.3856906,15.069484 C2.97893242,15.1385947 2.69283059,15.9127301 2.42866629,16.1435789 C2.16450198,16.3744277 1.1530909,16.1666158 0.845508588,16.513129 C0.537926275,16.8596421 0.823571068,18.096915 0.768270236,18.6843556 C0.712969404,19.2717962 0.416355851,19.584714 0.38344957,19.8621165 C0.35054329,20.139519 0.438293371,20.4509969 0.931887573,20.635772 C1.42548178,20.820547 3.27417488,21.3076812 3.91219109,21.4555012 C4.5502073,21.6033212 6.04698601,22.5987067 6.75035775,21.397909 Z" id="Shape" fill="#F5BD0C"></path>
                                </g>
                            </g>
                        </g>
                    </g>
                </g>
                <g id="Azure-Border" stroke="#0078D4" stroke-width="4">
                    <rect x="2" y="2" width="96" height="96" rx="48"></rect>
                </g>
            </g>
        </g>
    </g>
</svg>