<svg xmlns="http://www.w3.org/2000/svg" xmlns:xlink="http://www.w3.org/1999/xlink" viewBox="0 0 360 305">
  <defs>
    <symbol id="AzureLoadBalancerAutomatic" data-name="AzureLoadBalancerAutomatic" viewBox="0 0 52 34.5">
      <g id="Layer_1" data-name="Layer 1">
        <path d="M51.9,31,47.2,1.4A1.44,1.44,0,0,0,45.8,0H6.6A1.31,1.31,0,0,0,5.2,1.4L0,31H0v.3H0v.5a2.52,2.52,0,0,0,2.2,2.7H49.8A2.52,2.52,0,0,0,52,31.8,2.49,2.49,0,0,1,51.9,31ZM35.5,23.4H29.7a.8.8,0,1,1,0-1.6h2.7l-6.5-6.5v13l2-2a.85.85,0,1,1,1.2,1.2l-4,4L21,27.4a.73.73,0,0,1-.2-.6,1.42,1.42,0,0,1,.2-.6.91.91,0,0,1,1.2,0l2.1,2.1v-13l-6.5,6.5h2.9a.8.8,0,1,1,0,1.6H14.9V17.6a.8.8,0,0,1,1.6,0v2.9l7.7-7.7v-4a2.71,2.71,0,0,1-1.8-2.5,2.6,2.6,0,0,1,5.2,0,2.71,2.71,0,0,1-1.8,2.5v4l7.9,7.9V17.6a.8.8,0,0,1,1.6,0v5.8Z" fill="#0078d7"/>
      </g>
    </symbol>
    <symbol id="AzureCloudServices" data-name="AzureCloudServices" viewBox="0 0 42.9 35.9">
      <g id="paths">
        <g id="Cloud_service" data-name="Cloud service">
          <g>
            <g id="shape37-71">
              <circle cx="27.58" cy="14.27" r="2.1" fill="#0078d7"/>
            </g>
            <g id="shape38-73">
              <path d="M16.86,19.24a2.1,2.1,0,1,0,2.1,2.1A2.18,2.18,0,0,0,16.86,19.24Z" fill="#0078d7"/>
            </g>
            <g id="shape39-75">
              <path d="M34.3,15l-1.9.6-.5,1,.7,1.5.1.2-1,1L30,18.6,29,19l-.5,1.6-.1.2H26.9L26.3,19l-1-.4-1.5.7-.2.1-1-1,.8-1.7-.4-1-1.3-.5V13.6l1.5-.6.3-1-.8-1.5-.1-.2,1-1,1.7.8,1-.4.5-1.5.1-.1h1.5L29,9.8l1,.3,1.5-.8.2-.1,1,1-.8,1.7.4,1,1.7.5.3.1ZM10.4,20.6l1.8-.6.4-1-.7-1.5-.1-.2,1-1,1.7.8,1-.4.5-1.4.1-.1h1.5l.6,1.6,1,.4,1.5-.8.2-.1,1,1L21.1,19l.4,1,1.4.5.1.1v1.5l-1.6.5-.4,1,.8,1.5.1.2-1,1-1.7-.7-1,.4-.5,1.6-.1.2H16.1L15.4,26l-1-.4-1.5.7-.2.1-1-1,.8-1.7-.4-1-1.6-.5-.2-.1V20.6Zm27.1-7.5-.8-.3.2-.8a9.86,9.86,0,0,0,.3-2.4A9.63,9.63,0,0,0,18.7,5.9l-.6,1.3-.9-1.1A6.6,6.6,0,0,0,5.6,10.4a11,11,0,0,0,.2,1.8L6,13l-.8.3a7.44,7.44,0,0,0-5.2,7,7.65,7.65,0,0,0,7.9,7.5h2c-.1,0-.1.7-.1,1.1a7,7,0,0,0,7,7,7.1,7.1,0,0,0,6.5-4.3l.4-1,.7.8A4.75,4.75,0,0,0,28,33.1a4.87,4.87,0,0,0,4.8-4.8v-.5H35a7.65,7.65,0,0,0,7.9-7.5A7.24,7.24,0,0,0,37.5,13.1Z" fill="#0078d7"/>
            </g>
          </g>
        </g>
      </g>
    </symbol>
  </defs>
  <title>3-load-balancer-session-affinity</title>
  <g id="Shapes">
    <rect width="360" height="305" fill="#fff"/>
    <g>
      <rect x="260" y="23.39" width="100" height="281.61" fill="#fff"/>
      <rect x="260" y="23.39" width="100" height="281.61" fill="#3c3c41" opacity="0.08"/>
    </g>
    <use width="52" height="34.5" transform="translate(123.89 67.97) scale(0.87)" xlink:href="#AzureLoadBalancerAutomatic"/>
    <g>
      <rect x="270" y="33.39" width="81.12" height="81.61" fill="#fff"/>
      <rect x="270" y="33.39" width="81.12" height="81.61" fill="#3c3c41" opacity="0.25"/>
    </g>
    <g>
      <path d="M314.74,90.57h-7.69c.91,3.23-.34,3.73-5.76,3.73V96h18.42V94.3C314.34,94.3,313.84,93.85,314.74,90.57Z" fill="#7a7a7a"/>
      <path d="M323,70H298a1.57,1.57,0,0,0-1.52,1.58V89A1.57,1.57,0,0,0,298,90.57h25a1.72,1.72,0,0,0,1.7-1.58V71.58A1.72,1.72,0,0,0,323,70Zm-.45,2.15V88.37h-24V72.15l24-.06Z" fill="#3e3e3e"/>
      <polygon points="322.48 72.15 322.48 88.43 298.57 88.43 298.57 72.15 322.54 72.15 322.48 72.15" fill="#00bbf1"/>
      <path d="M298.58,88.43h0V72.15h21.87L323,70H298a1.57,1.57,0,0,0-1.52,1.58V89A1.57,1.57,0,0,0,298,90.57h.63l2.6-2.14Z" fill="#7a7a7a"/>
      <polygon points="298.57 88.43 298.57 88.43 298.57 72.15 320.45 72.15 320.45 72.15 298.57 72.15 298.57 88.43" fill="#59b4d9"/>
      <rect x="301.34" y="94.3" width="18.48" height="1.7" fill="#b0b0b0"/>
      <circle cx="310.44" cy="71.19" r="0.4" fill="#bac84a"/>
      <path d="M310.56,80h-.06l-5-2.88c-.06,0-.06-.05-.06-.11a.17.17,0,0,1,.06-.11l4.91-2.83h.17l5,2.88c.05,0,.05.06.05.12s0,.11-.05.11L310.67,80Z" fill="#fff" opacity="0.9" style="isolation: isolate"/>
      <path d="M309.82,87h-.05l-5-2.83c-.05,0-.05-.06-.05-.11V78.25s0-.11.05-.11H305l5,2.83c.05,0,.05,0,.05.11v5.71a.22.22,0,0,1-.05.11C309.88,87,309.88,87,309.82,87Z" fill="#fff" opacity="0.8" style="isolation: isolate"/>
      <path d="M311.24,87h-.06c-.06,0-.06-.06-.06-.12V81.13a.21.21,0,0,1,.06-.11l5-2.82h.17c.06,0,.06,0,.06.11V84a.21.21,0,0,1-.06.11l-5,2.83Z" fill="#fff" opacity="0.5" style="isolation: isolate"/>
    </g>
    <g>
      <rect x="270" y="125" width="81.12" height="81.61" fill="#fff"/>
      <rect x="270" y="125" width="81.12" height="81.61" fill="#3c3c41" opacity="0.25"/>
    </g>
    <g>
      <path d="M314.74,182.19h-7.69c.91,3.22-.34,3.73-5.76,3.73v1.69h18.42v-1.69C314.34,185.92,313.84,185.47,314.74,182.19Z" fill="#7a7a7a"/>
      <path d="M323,161.61H298a1.57,1.57,0,0,0-1.52,1.59v17.41a1.57,1.57,0,0,0,1.52,1.58h25a1.73,1.73,0,0,0,1.7-1.58V163.2A1.73,1.73,0,0,0,323,161.61Zm-.45,2.15V180h-24V163.76l24,0Z" fill="#3e3e3e"/>
      <polygon points="322.48 163.76 322.48 180.04 298.57 180.04 298.57 163.76 322.54 163.76 322.48 163.76" fill="#00bbf1"/>
      <path d="M298.58,180h0V163.76h21.87l2.54-2.15H298a1.57,1.57,0,0,0-1.52,1.59v17.41a1.57,1.57,0,0,0,1.52,1.58h.63l2.6-2.15Z" fill="#7a7a7a"/>
      <polygon points="298.57 180.04 298.57 180.04 298.57 163.76 320.45 163.76 320.45 163.76 298.57 163.76 298.57 180.04" fill="#59b4d9"/>
      <rect x="301.34" y="185.92" width="18.48" height="1.7" fill="#b0b0b0"/>
      <circle cx="310.44" cy="162.8" r="0.4" fill="#bac84a"/>
      <path d="M310.56,171.62h-.06l-5-2.88c-.06,0-.06-.06-.06-.12a.21.21,0,0,1,.06-.11l4.91-2.83h.17l5,2.89c.05,0,.05.05.05.11s0,.11-.05.11l-4.92,2.83Z" fill="#fff" opacity="0.9" style="isolation: isolate"/>
      <path d="M309.82,178.57h-.05l-5-2.83c-.05,0-.05-.05-.05-.11v-5.76c0-.06,0-.12.05-.12H305l5,2.83c.05,0,.05.06.05.11v5.71a.18.18,0,0,1-.05.11C309.88,178.57,309.88,178.57,309.82,178.57Z" fill="#fff" opacity="0.8" style="isolation: isolate"/>
      <path d="M311.24,178.57h-.06c-.06,0-.06-.06-.06-.11v-5.71a.17.17,0,0,1,.06-.11l5-2.83h.17c.06,0,.06.06.06.11v5.71a.17.17,0,0,1-.06.11l-5,2.83Z" fill="#fff" opacity="0.5" style="isolation: isolate"/>
    </g>
    <g>
      <rect x="270" y="215" width="81.12" height="81.61" fill="#fff"/>
      <rect x="270" y="215" width="81.12" height="81.61" fill="#3c3c41" opacity="0.25"/>
    </g>
    <g>
      <path d="M314.74,272.19h-7.69c.91,3.22-.34,3.73-5.76,3.73v1.69h18.42v-1.69C314.34,275.92,313.84,275.47,314.74,272.19Z" fill="#7a7a7a"/>
      <path d="M323,251.61H298a1.57,1.57,0,0,0-1.52,1.59v17.41a1.57,1.57,0,0,0,1.52,1.58h25a1.73,1.73,0,0,0,1.7-1.58V253.2A1.73,1.73,0,0,0,323,251.61Zm-.45,2.15V270h-24V253.76l24,0Z" fill="#3e3e3e"/>
      <polygon points="322.48 253.76 322.48 270.04 298.57 270.04 298.57 253.76 322.54 253.76 322.48 253.76" fill="#00bbf1"/>
      <path d="M298.58,270h0V253.76h21.87l2.54-2.15H298a1.57,1.57,0,0,0-1.52,1.59v17.41a1.57,1.57,0,0,0,1.52,1.58h.63l2.6-2.15Z" fill="#7a7a7a"/>
      <polygon points="298.57 270.04 298.57 270.04 298.57 253.76 320.45 253.76 320.45 253.76 298.57 253.76 298.57 270.04" fill="#59b4d9"/>
      <rect x="301.34" y="275.92" width="18.48" height="1.7" fill="#b0b0b0"/>
      <circle cx="310.44" cy="252.8" r="0.4" fill="#bac84a"/>
      <path d="M310.56,261.62h-.06l-5-2.88c-.06,0-.06-.06-.06-.12a.21.21,0,0,1,.06-.11l4.91-2.83h.17l5,2.89c.05,0,.05.05.05.11s0,.11-.05.11l-4.92,2.83Z" fill="#fff" opacity="0.9" style="isolation: isolate"/>
      <path d="M309.82,268.57h-.05l-5-2.83c-.05,0-.05-.05-.05-.11v-5.76c0-.06,0-.12.05-.12H305l5,2.83c.05,0,.05.06.05.11v5.71a.18.18,0,0,1-.05.11C309.88,268.57,309.88,268.57,309.82,268.57Z" fill="#fff" opacity="0.8" style="isolation: isolate"/>
      <path d="M311.24,268.57h-.06c-.06,0-.06-.06-.06-.11v-5.71a.17.17,0,0,1,.06-.11l5-2.83h.17c.06,0,.06.06.06.11v5.71a.17.17,0,0,1-.06.11l-5,2.83Z" fill="#fff" opacity="0.5" style="isolation: isolate"/>
    </g>
    <use width="42.9" height="35.9" transform="translate(240) scale(0.89)" xlink:href="#AzureCloudServices"/>
    <line x1="45" y1="81.3" x2="120" y2="81.3" fill="none" stroke="#1e1e1e" stroke-miterlimit="10"/>
    <line x1="45" y1="89.03" x2="120" y2="89.03" fill="none" stroke="#1e1e1e" stroke-miterlimit="10"/>
    <line x1="45" y1="74.03" x2="120" y2="74.03" fill="none" stroke="#1e1e1e" stroke-miterlimit="10"/>
    <line x1="171" y1="81.3" x2="292.27" y2="81.3" fill="none" stroke="#1e1e1e" stroke-miterlimit="10"/>
    <line x1="171" y1="89.03" x2="292.27" y2="89.03" fill="none" stroke="#1e1e1e" stroke-miterlimit="10"/>
    <line x1="171" y1="74.03" x2="292.27" y2="74.03" fill="none" stroke="#1e1e1e" stroke-miterlimit="10"/>
    <path d="M42.61,92.29a2.61,2.61,0,0,1,.45.61,4.31,4.31,0,0,1,.32.77,4.64,4.64,0,0,1,.19.82,4.29,4.29,0,0,1,.07.76,2.48,2.48,0,0,1-.22,1.06,2.71,2.71,0,0,1-.58.87,2.88,2.88,0,0,1-.87.58,2.64,2.64,0,0,1-1.06.21H2.73a2.69,2.69,0,0,1-1.07-.21,3,3,0,0,1-.86-.58,2.91,2.91,0,0,1-.59-.87A2.64,2.64,0,0,1,0,95.25a5.38,5.38,0,0,1,.06-.76,5.77,5.77,0,0,1,.2-.82,4.31,4.31,0,0,1,.32-.77A2.33,2.33,0,0,1,1,92.29l4.43-4.44V68H38.18V87.85ZM8.18,87.07H35.45V70.7H8.18Zm32.73,8.18a2.71,2.71,0,0,0-.09-.61,1,1,0,0,0-.25-.54l-4.33-4.31H7.39L3.07,94.1a1,1,0,0,0-.26.54,3.29,3.29,0,0,0-.08.61Z"/>
  </g>
  <g id="Text">
    <g>
      <path d="M286.75,46.33v3.18h-1v-8.4h2.31a3,3,0,0,1,2.09.65,2.37,2.37,0,0,1,.74,1.85,2.54,2.54,0,0,1-.82,2,3.14,3.14,0,0,1-2.23.76Zm0-4.33v3.44h1a2.3,2.3,0,0,0,1.55-.46,1.65,1.65,0,0,0,.54-1.32c0-1.11-.66-1.66-2-1.66Z" fill="#1e1e1e"/>
      <path d="M295.48,44.48a1.18,1.18,0,0,0-.73-.19,1.2,1.2,0,0,0-1,.58,2.62,2.62,0,0,0-.42,1.58v3.06h-1v-6h1v1.23h0a2,2,0,0,1,.62-1,1.45,1.45,0,0,1,1-.36,1.65,1.65,0,0,1,.57.08Z" fill="#1e1e1e"/>
      <path d="M297,42a.58.58,0,0,1-.44-.17.61.61,0,0,1-.18-.45.57.57,0,0,1,.18-.44.59.59,0,0,1,.44-.18.6.6,0,0,1,.44.18.55.55,0,0,1,.19.44.56.56,0,0,1-.19.44A.6.6,0,0,1,297,42Zm.47,7.53h-1v-6h1Z" fill="#1e1e1e"/>
      <path d="M304.15,43.51l-2.39,6h-.95l-2.27-6h1l1.53,4.36a4.27,4.27,0,0,1,.21.84h0a3.66,3.66,0,0,1,.19-.82l1.59-4.38Z" fill="#1e1e1e"/>
      <path d="M309.47,49.51h-1v-.94h0a2,2,0,0,1-1.85,1.08,2,2,0,0,1-1.4-.48,1.62,1.62,0,0,1-.51-1.26q0-1.68,2-1.95l1.8-.25q0-1.53-1.23-1.53a3,3,0,0,0-2,.73v-1a3.76,3.76,0,0,1,2-.56c1.41,0,2.11.74,2.11,2.24Zm-1-3-1.44.2a2.38,2.38,0,0,0-1,.33,1,1,0,0,0-.34.84.9.9,0,0,0,.31.72,1.2,1.2,0,0,0,.84.28,1.56,1.56,0,0,0,1.18-.5,1.79,1.79,0,0,0,.46-1.27Z" fill="#1e1e1e"/>
      <path d="M314.07,49.45a1.94,1.94,0,0,1-.9.19c-1.05,0-1.58-.59-1.58-1.76V44.33h-1v-.82h1V42l1-.31v1.78h1.51v.82h-1.51v3.38a1.38,1.38,0,0,0,.2.86.83.83,0,0,0,.68.26,1.05,1.05,0,0,0,.63-.2Z" fill="#1e1e1e"/>
      <path d="M320.17,46.75h-4.23a2.21,2.21,0,0,0,.54,1.55,1.85,1.85,0,0,0,1.41.54,2.94,2.94,0,0,0,1.87-.67v.9a3.45,3.45,0,0,1-2.09.58,2.52,2.52,0,0,1-2-.82,3.83,3.83,0,0,1,.06-4.58,2.55,2.55,0,0,1,2-.88,2.25,2.25,0,0,1,1.82.76,3.17,3.17,0,0,1,.64,2.11Zm-1-.82a2,2,0,0,0-.4-1.29,1.37,1.37,0,0,0-1.1-.46,1.59,1.59,0,0,0-1.16.48,2.24,2.24,0,0,0-.58,1.27Z" fill="#1e1e1e"/>
      <path d="M326,49.51h-1v-8.4h1Z" fill="#1e1e1e"/>
      <path d="M329.22,46.33v3.18h-1v-8.4h2.3a3,3,0,0,1,2.09.65,2.33,2.33,0,0,1,.74,1.85,2.54,2.54,0,0,1-.82,2,3.13,3.13,0,0,1-2.22.76Zm0-4.33v3.44h1a2.32,2.32,0,0,0,1.56-.46,1.67,1.67,0,0,0,.53-1.32c0-1.11-.65-1.66-2-1.66Z" fill="#1e1e1e"/>
      <path d="M335.71,48.17l-.94,2.89h-.69l.69-2.89Z" fill="#1e1e1e"/>
      <path d="M301.35,61.84h0v3.63h-1V56.71h1v1h0a2.3,2.3,0,0,1,2.08-1.19,2.23,2.23,0,0,1,1.81.8,3.37,3.37,0,0,1,.65,2.16,3.74,3.74,0,0,1-.73,2.41,2.44,2.44,0,0,1-2,.91A2,2,0,0,1,301.35,61.84Zm0-2.42v.84a1.77,1.77,0,0,0,.48,1.26A1.59,1.59,0,0,0,303,62a1.6,1.6,0,0,0,1.37-.67,3,3,0,0,0,.49-1.85,2.44,2.44,0,0,0-.46-1.58,1.56,1.56,0,0,0-1.25-.56,1.7,1.7,0,0,0-1.35.58A2.15,2.15,0,0,0,301.33,59.42Z" fill="#1e1e1e"/>
      <path d="M309.93,62.85a2.77,2.77,0,0,1-2.12-.84,3.12,3.12,0,0,1-.8-2.23,3.23,3.23,0,0,1,.83-2.36,3,3,0,0,1,2.23-.85,2.71,2.71,0,0,1,2.1.82,3.3,3.3,0,0,1,.75,2.3,3.2,3.2,0,0,1-.81,2.29A2.84,2.84,0,0,1,309.93,62.85Zm.07-5.47a1.81,1.81,0,0,0-1.46.63,2.58,2.58,0,0,0-.54,1.73,2.49,2.49,0,0,0,.54,1.69A1.86,1.86,0,0,0,310,62a1.75,1.75,0,0,0,1.43-.6,3.23,3.23,0,0,0,0-3.45A1.73,1.73,0,0,0,310,57.38Z" fill="#1e1e1e"/>
      <path d="M317.58,57.68a1.14,1.14,0,0,0-.72-.19,1.21,1.21,0,0,0-1,.58,2.62,2.62,0,0,0-.41,1.58v3.06h-1v-6h1v1.23h0a2,2,0,0,1,.63-1,1.54,1.54,0,0,1,1.51-.27Z" fill="#1e1e1e"/>
      <path d="M321.41,62.65a1.94,1.94,0,0,1-.9.19c-1.05,0-1.57-.59-1.57-1.76V57.53h-1v-.82h1V55.24l1-.31v1.78h1.51v.82H319.9v3.38a1.45,1.45,0,0,0,.2.86.84.84,0,0,0,.68.26,1.05,1.05,0,0,0,.63-.2Z" fill="#1e1e1e"/>
    </g>
    <g>
      <path d="M308.68,99.81l-3.11,8.4h-1.09l-3-8.4h1.09l2.33,6.66a4.63,4.63,0,0,1,.17.75h0a4,4,0,0,1,.19-.76l2.38-6.65Z" fill="#1e1e1e"/>
      <path d="M318.45,108.21h-1v-5.63c0-.45,0-1,.08-1.64h0a5.64,5.64,0,0,1-.25.82l-2.87,6.45h-.48l-2.87-6.41a5.3,5.3,0,0,1-.25-.86h0c0,.34,0,.89,0,1.65v5.62h-.95v-8.4h1.31l2.57,5.86a7.92,7.92,0,0,1,.39,1h0c.16-.46.3-.81.4-1l2.63-5.84h1.23Z" fill="#1e1e1e"/>
    </g>
    <g>
      <path d="M286.75,138v3.17h-1v-8.4h2.31a3,3,0,0,1,2.09.66,2.34,2.34,0,0,1,.74,1.85,2.52,2.52,0,0,1-.82,2,3.15,3.15,0,0,1-2.23.77Zm0-4.34v3.45h1a2.3,2.3,0,0,0,1.55-.47,1.65,1.65,0,0,0,.54-1.32c0-1.1-.66-1.66-2-1.66Z" fill="#1e1e1e"/>
      <path d="M295.48,136.09a1.25,1.25,0,0,0-.73-.19,1.2,1.2,0,0,0-1,.58,2.67,2.67,0,0,0-.42,1.58v3.06h-1v-6h1v1.24h0a2.08,2.08,0,0,1,.62-1,1.63,1.63,0,0,1,1.52-.27Z" fill="#1e1e1e"/>
      <path d="M297,133.6a.59.59,0,0,1-.44-.18.57.57,0,0,1-.18-.44.61.61,0,0,1,.18-.45.59.59,0,0,1,.44-.18.6.6,0,0,1,.44.18.58.58,0,0,1,.19.45.58.58,0,0,1-.19.44A.6.6,0,0,1,297,133.6Zm.47,7.52h-1v-6h1Z" fill="#1e1e1e"/>
      <path d="M304.15,135.12l-2.39,6h-.95l-2.27-6h1l1.53,4.36a4.27,4.27,0,0,1,.21.84h0a3.94,3.94,0,0,1,.19-.82l1.59-4.38Z" fill="#1e1e1e"/>
      <path d="M309.47,141.12h-1v-.94h0a2.2,2.2,0,0,1-3.25.61,1.65,1.65,0,0,1-.51-1.26c0-1.12.66-1.78,2-2l1.8-.25q0-1.53-1.23-1.53a3,3,0,0,0-2,.74v-1a3.76,3.76,0,0,1,2-.56c1.41,0,2.11.75,2.11,2.24Zm-1-3-1.44.2a2.25,2.25,0,0,0-1,.33,1,1,0,0,0-.34.84.92.92,0,0,0,.31.72,1.25,1.25,0,0,0,.84.27,1.53,1.53,0,0,0,1.18-.5,1.77,1.77,0,0,0,.46-1.27Z" fill="#1e1e1e"/>
      <path d="M314.07,141.06a1.82,1.82,0,0,1-.9.19c-1.05,0-1.58-.58-1.58-1.76v-3.55h-1v-.82h1v-1.46l1-.31v1.77h1.51v.82h-1.51v3.38a1.36,1.36,0,0,0,.2.86.8.8,0,0,0,.68.26,1,1,0,0,0,.63-.2Z" fill="#1e1e1e"/>
      <path d="M320.17,138.36h-4.23a2.19,2.19,0,0,0,.54,1.55,1.85,1.85,0,0,0,1.41.54,3,3,0,0,0,1.87-.66v.9a3.52,3.52,0,0,1-2.09.57,2.54,2.54,0,0,1-2-.81,3.85,3.85,0,0,1,.06-4.59,2.58,2.58,0,0,1,2-.88,2.28,2.28,0,0,1,1.82.76,3.19,3.19,0,0,1,.64,2.12Zm-1-.81a2,2,0,0,0-.4-1.3,1.37,1.37,0,0,0-1.1-.46,1.56,1.56,0,0,0-1.16.49,2.18,2.18,0,0,0-.58,1.27Z" fill="#1e1e1e"/>
      <path d="M326,141.12h-1v-8.4h1Z" fill="#1e1e1e"/>
      <path d="M329.22,138v3.17h-1v-8.4h2.3a3,3,0,0,1,2.09.66,2.31,2.31,0,0,1,.74,1.85,2.52,2.52,0,0,1-.82,2,3.14,3.14,0,0,1-2.22.77Zm0-4.34v3.45h1a2.33,2.33,0,0,0,1.56-.47,1.67,1.67,0,0,0,.53-1.32c0-1.1-.65-1.66-2-1.66Z" fill="#1e1e1e"/>
      <path d="M335.71,139.79l-.94,2.88h-.69l.69-2.88Z" fill="#1e1e1e"/>
      <path d="M301.35,153.46h0v3.62h-1v-8.76h1v1.06h0a2.29,2.29,0,0,1,2.08-1.2,2.2,2.2,0,0,1,1.81.81,3.33,3.33,0,0,1,.65,2.16,3.78,3.78,0,0,1-.73,2.41,2.46,2.46,0,0,1-2,.9A2,2,0,0,1,301.35,153.46Zm0-2.42v.83a1.81,1.81,0,0,0,.48,1.27,1.75,1.75,0,0,0,2.6-.15,3.09,3.09,0,0,0,.49-1.86,2.41,2.41,0,0,0-.46-1.57,1.53,1.53,0,0,0-1.25-.57,1.7,1.7,0,0,0-1.35.58A2.16,2.16,0,0,0,301.33,151Z" fill="#1e1e1e"/>
      <path d="M309.93,154.46a2.77,2.77,0,0,1-2.12-.84,3.11,3.11,0,0,1-.8-2.23,3.25,3.25,0,0,1,.83-2.36,3,3,0,0,1,2.23-.85,2.71,2.71,0,0,1,2.1.83,3.27,3.27,0,0,1,.75,2.29,3.23,3.23,0,0,1-.81,2.3A2.87,2.87,0,0,1,309.93,154.46ZM310,149a1.81,1.81,0,0,0-1.46.63,2.59,2.59,0,0,0-.54,1.74,2.46,2.46,0,0,0,.54,1.68,1.86,1.86,0,0,0,1.46.61,1.75,1.75,0,0,0,1.43-.6,2.58,2.58,0,0,0,.5-1.72,2.62,2.62,0,0,0-.5-1.73A1.73,1.73,0,0,0,310,149Z" fill="#1e1e1e"/>
      <path d="M317.58,149.29a1.29,1.29,0,0,0-1.75.39,2.67,2.67,0,0,0-.41,1.58v3.06h-1v-6h1v1.24h0a2.09,2.09,0,0,1,.63-1,1.39,1.39,0,0,1,.94-.35,1.44,1.44,0,0,1,.57.08Z" fill="#1e1e1e"/>
      <path d="M321.41,154.26a1.82,1.82,0,0,1-.9.19c-1.05,0-1.57-.58-1.57-1.76v-3.55h-1v-.82h1v-1.46l1-.31v1.77h1.51v.82H319.9v3.38a1.43,1.43,0,0,0,.2.86.81.81,0,0,0,.68.26,1,1,0,0,0,.63-.2Z" fill="#1e1e1e"/>
    </g>
    <g>
      <path d="M308.68,191.43l-3.11,8.4h-1.09l-3-8.4h1.09l2.33,6.66a4.27,4.27,0,0,1,.17.74h0a4.13,4.13,0,0,1,.19-.75l2.38-6.65Z" fill="#1e1e1e"/>
      <path d="M318.45,199.83h-1v-5.64c0-.44,0-1,.08-1.63h0a5.05,5.05,0,0,1-.25.81l-2.87,6.46h-.48l-2.87-6.41a6,6,0,0,1-.25-.86h0c0,.33,0,.88,0,1.64v5.63h-.95v-8.4h1.31l2.57,5.86a7.37,7.37,0,0,1,.39,1h0c.16-.46.3-.8.4-1l2.63-5.83h1.23Z" fill="#1e1e1e"/>
    </g>
    <g>
      <path d="M286.75,228v3.17h-1v-8.4h2.31a3,3,0,0,1,2.09.66,2.34,2.34,0,0,1,.74,1.85,2.52,2.52,0,0,1-.82,2,3.15,3.15,0,0,1-2.23.77Zm0-4.34v3.45h1a2.3,2.3,0,0,0,1.55-.47,1.65,1.65,0,0,0,.54-1.32c0-1.1-.66-1.66-2-1.66Z" fill="#1e1e1e"/>
      <path d="M295.48,226.09a1.25,1.25,0,0,0-.73-.19,1.2,1.2,0,0,0-1,.58,2.67,2.67,0,0,0-.42,1.58v3.06h-1v-6h1v1.24h0a2.08,2.08,0,0,1,.62-1,1.63,1.63,0,0,1,1.52-.27Z" fill="#1e1e1e"/>
      <path d="M297,223.6a.59.59,0,0,1-.44-.18.57.57,0,0,1-.18-.44.61.61,0,0,1,.18-.45.59.59,0,0,1,.44-.18.6.6,0,0,1,.44.18.58.58,0,0,1,.19.45.58.58,0,0,1-.19.44A.6.6,0,0,1,297,223.6Zm.47,7.52h-1v-6h1Z" fill="#1e1e1e"/>
      <path d="M304.15,225.12l-2.39,6h-.95l-2.27-6h1l1.53,4.36a4.27,4.27,0,0,1,.21.84h0a3.94,3.94,0,0,1,.19-.82l1.59-4.38Z" fill="#1e1e1e"/>
      <path d="M309.47,231.12h-1v-.94h0a2.2,2.2,0,0,1-3.25.61,1.65,1.65,0,0,1-.51-1.26c0-1.12.66-1.78,2-2l1.8-.25q0-1.53-1.23-1.53a3,3,0,0,0-2,.74v-1a3.76,3.76,0,0,1,2-.56c1.41,0,2.11.75,2.11,2.24Zm-1-3-1.44.2a2.25,2.25,0,0,0-1,.33,1,1,0,0,0-.34.84.92.92,0,0,0,.31.72,1.25,1.25,0,0,0,.84.27,1.53,1.53,0,0,0,1.18-.5,1.77,1.77,0,0,0,.46-1.27Z" fill="#1e1e1e"/>
      <path d="M314.07,231.06a1.82,1.82,0,0,1-.9.19c-1.05,0-1.58-.58-1.58-1.76v-3.55h-1v-.82h1v-1.46l1-.31v1.77h1.51v.82h-1.51v3.38a1.36,1.36,0,0,0,.2.86.8.8,0,0,0,.68.26,1,1,0,0,0,.63-.2Z" fill="#1e1e1e"/>
      <path d="M320.17,228.36h-4.23a2.19,2.19,0,0,0,.54,1.55,1.85,1.85,0,0,0,1.41.54,3,3,0,0,0,1.87-.66v.9a3.52,3.52,0,0,1-2.09.57,2.54,2.54,0,0,1-2-.81,3.85,3.85,0,0,1,.06-4.59,2.58,2.58,0,0,1,2-.88,2.28,2.28,0,0,1,1.82.76,3.19,3.19,0,0,1,.64,2.12Zm-1-.81a2,2,0,0,0-.4-1.3,1.37,1.37,0,0,0-1.1-.46,1.56,1.56,0,0,0-1.16.49,2.18,2.18,0,0,0-.58,1.27Z" fill="#1e1e1e"/>
      <path d="M326,231.12h-1v-8.4h1Z" fill="#1e1e1e"/>
      <path d="M329.22,228v3.17h-1v-8.4h2.3a3,3,0,0,1,2.09.66,2.31,2.31,0,0,1,.74,1.85,2.52,2.52,0,0,1-.82,2,3.14,3.14,0,0,1-2.22.77Zm0-4.34v3.45h1a2.33,2.33,0,0,0,1.56-.47,1.67,1.67,0,0,0,.53-1.32c0-1.1-.65-1.66-2-1.66Z" fill="#1e1e1e"/>
      <path d="M335.71,229.79l-.94,2.88h-.69l.69-2.88Z" fill="#1e1e1e"/>
      <path d="M301.35,243.46h0v3.62h-1v-8.76h1v1.06h0a2.29,2.29,0,0,1,2.08-1.2,2.2,2.2,0,0,1,1.81.81,3.33,3.33,0,0,1,.65,2.16,3.78,3.78,0,0,1-.73,2.41,2.46,2.46,0,0,1-2,.9A2,2,0,0,1,301.35,243.46Zm0-2.42v.83a1.81,1.81,0,0,0,.48,1.27,1.75,1.75,0,0,0,2.6-.15,3.09,3.09,0,0,0,.49-1.86,2.41,2.41,0,0,0-.46-1.57,1.53,1.53,0,0,0-1.25-.57,1.7,1.7,0,0,0-1.35.58A2.16,2.16,0,0,0,301.33,241Z" fill="#1e1e1e"/>
      <path d="M309.93,244.46a2.77,2.77,0,0,1-2.12-.84,3.11,3.11,0,0,1-.8-2.23,3.25,3.25,0,0,1,.83-2.36,3,3,0,0,1,2.23-.85,2.71,2.71,0,0,1,2.1.83,3.27,3.27,0,0,1,.75,2.29,3.23,3.23,0,0,1-.81,2.3A2.87,2.87,0,0,1,309.93,244.46ZM310,239a1.81,1.81,0,0,0-1.46.63,2.59,2.59,0,0,0-.54,1.74,2.46,2.46,0,0,0,.54,1.68,1.86,1.86,0,0,0,1.46.61,1.75,1.75,0,0,0,1.43-.6,2.58,2.58,0,0,0,.5-1.72,2.62,2.62,0,0,0-.5-1.73A1.73,1.73,0,0,0,310,239Z" fill="#1e1e1e"/>
      <path d="M317.58,239.29a1.29,1.29,0,0,0-1.75.39,2.67,2.67,0,0,0-.41,1.58v3.06h-1v-6h1v1.24h0a2.09,2.09,0,0,1,.63-1,1.39,1.39,0,0,1,.94-.35,1.44,1.44,0,0,1,.57.08Z" fill="#1e1e1e"/>
      <path d="M321.41,244.26a1.82,1.82,0,0,1-.9.19c-1.05,0-1.57-.58-1.57-1.76v-3.55h-1v-.82h1v-1.46l1-.31v1.77h1.51v.82H319.9v3.38a1.43,1.43,0,0,0,.2.86.81.81,0,0,0,.68.26,1,1,0,0,0,.63-.2Z" fill="#1e1e1e"/>
    </g>
    <g>
      <path d="M308.68,281.43l-3.11,8.4h-1.09l-3-8.4h1.09l2.33,6.66a4.27,4.27,0,0,1,.17.74h0a4.13,4.13,0,0,1,.19-.75l2.38-6.65Z" fill="#1e1e1e"/>
      <path d="M318.45,289.83h-1v-5.64c0-.44,0-1,.08-1.63h0a5.05,5.05,0,0,1-.25.81l-2.87,6.46h-.48l-2.87-6.41a6,6,0,0,1-.25-.86h0c0,.33,0,.88,0,1.64v5.63h-.95v-8.4h1.31l2.57,5.86a7.37,7.37,0,0,1,.39,1h0c.16-.46.3-.8.4-1l2.63-5.83h1.23Z" fill="#1e1e1e"/>
    </g>
    <g>
      <path d="M128.41,111.71a1.71,1.71,0,0,0-.12-.67,1.3,1.3,0,0,0-.32-.48,1.51,1.51,0,0,0-.49-.29,2,2,0,0,0-.61-.09,2,2,0,0,0-.55.08,2.66,2.66,0,0,0-.53.21,2.94,2.94,0,0,0-.49.32,2.49,2.49,0,0,0-.44.42v-1a3,3,0,0,1,.9-.6,3.18,3.18,0,0,1,1.22-.2,3.22,3.22,0,0,1,1,.14,2.2,2.2,0,0,1,.76.44,1.93,1.93,0,0,1,.51.71,2.43,2.43,0,0,1,.18,1,3.58,3.58,0,0,1-.11.9,2.75,2.75,0,0,1-.35.76,3.67,3.67,0,0,1-.58.69,6.69,6.69,0,0,1-.83.66c-.39.29-.72.53-1,.73a3.81,3.81,0,0,0-.61.55,1.67,1.67,0,0,0-.32.53,1.8,1.8,0,0,0-.09.6h4.19v.86h-5.19v-.42a3.43,3.43,0,0,1,.12-.95,2.56,2.56,0,0,1,.38-.78,4.38,4.38,0,0,1,.71-.73c.29-.25.65-.53,1.07-.84a6.7,6.7,0,0,0,.76-.62,3.31,3.31,0,0,0,.5-.6,2.53,2.53,0,0,0,.27-.61A2.7,2.7,0,0,0,128.41,111.71Z" fill="#1e1e1e"/>
      <path d="M134.4,114.94h-3.2v-.75h3.2Z" fill="#1e1e1e"/>
      <path d="M138.91,117.85a1.87,1.87,0,0,1-.89.19c-1.05,0-1.58-.59-1.58-1.76v-3.55h-1v-.82h1v-1.47l1-.31v1.78h1.51v.82H137.4v3.38a1.37,1.37,0,0,0,.21.86.81.81,0,0,0,.68.26,1,1,0,0,0,.62-.2Z" fill="#1e1e1e"/>
      <path d="M145.05,117.91h-1v-1h0a2,2,0,0,1-1.85,1.09c-1.43,0-2.14-.85-2.14-2.56v-3.58h1v3.43c0,1.27.49,1.9,1.46,1.9a1.44,1.44,0,0,0,1.15-.52,1.94,1.94,0,0,0,.46-1.35v-3.46h1Z" fill="#1e1e1e"/>
      <path d="M148,117h0v3.63h-1v-8.76h1v1h0a2.3,2.3,0,0,1,2.08-1.19,2.23,2.23,0,0,1,1.81.8,3.37,3.37,0,0,1,.65,2.16,3.74,3.74,0,0,1-.73,2.41,2.44,2.44,0,0,1-2,.91A2,2,0,0,1,148,117Zm0-2.42v.84a1.77,1.77,0,0,0,.48,1.26,1.73,1.73,0,0,0,2.6-.15,3,3,0,0,0,.49-1.86,2.43,2.43,0,0,0-.46-1.57,1.56,1.56,0,0,0-1.25-.56,1.7,1.7,0,0,0-1.35.58A2.15,2.15,0,0,0,148,114.62Z" fill="#1e1e1e"/>
      <path d="M155,117.91h-1V109h1Z" fill="#1e1e1e"/>
      <path d="M161.77,115.15h-4.23a2.25,2.25,0,0,0,.53,1.55,1.88,1.88,0,0,0,1.42.54,2.94,2.94,0,0,0,1.87-.67v.9a3.46,3.46,0,0,1-2.1.58,2.51,2.51,0,0,1-2-.82,3.83,3.83,0,0,1,.06-4.58,2.55,2.55,0,0,1,2-.88,2.25,2.25,0,0,1,1.82.76,3.17,3.17,0,0,1,.64,2.11Zm-1-.82a2,2,0,0,0-.4-1.29,1.37,1.37,0,0,0-1.1-.46,1.57,1.57,0,0,0-1.16.48,2.24,2.24,0,0,0-.58,1.27Z" fill="#1e1e1e"/>
      <path d="M171.49,117.91h-1v-3.46c0-1.25-.46-1.87-1.39-1.87a1.53,1.53,0,0,0-1.19.54,2,2,0,0,0-.48,1.39v3.4h-1V109h1v3.87h0a2.18,2.18,0,0,1,2-1.13c1.35,0,2,.81,2,2.44Z" fill="#1e1e1e"/>
      <path d="M177.6,117.91h-1V117h0a2,2,0,0,1-1.84,1.08,2,2,0,0,1-1.41-.48,1.65,1.65,0,0,1-.5-1.26q0-1.68,2-2l1.8-.25c0-1-.41-1.53-1.24-1.53a3,3,0,0,0-2,.73v-1a3.76,3.76,0,0,1,2-.56c1.41,0,2.12.74,2.12,2.24Zm-1-3-1.45.2a2.44,2.44,0,0,0-1,.33,1,1,0,0,0-.34.84.9.9,0,0,0,.32.72,1.16,1.16,0,0,0,.83.28,1.55,1.55,0,0,0,1.18-.5,1.8,1.8,0,0,0,.47-1.27Z" fill="#1e1e1e"/>
      <path d="M179.05,117.69v-1a2.81,2.81,0,0,0,1.72.58c.85,0,1.27-.28,1.27-.84a.76.76,0,0,0-.11-.41,1.17,1.17,0,0,0-.29-.3,2.56,2.56,0,0,0-.44-.23l-.53-.21a6.76,6.76,0,0,1-.7-.32,2.55,2.55,0,0,1-.51-.36,1.52,1.52,0,0,1-.3-.46,1.66,1.66,0,0,1-.1-.61,1.44,1.44,0,0,1,.19-.75,1.78,1.78,0,0,1,.52-.54,2.21,2.21,0,0,1,.73-.33,3.05,3.05,0,0,1,.85-.11,3.46,3.46,0,0,1,1.4.27v1a2.7,2.7,0,0,0-1.52-.43,1.83,1.83,0,0,0-.49.06,1.15,1.15,0,0,0-.37.17.62.62,0,0,0-.24.27.64.64,0,0,0-.09.34.75.75,0,0,0,.09.39.74.74,0,0,0,.25.28,1.61,1.61,0,0,0,.39.23l.54.21a6.81,6.81,0,0,1,.71.32,2.42,2.42,0,0,1,.54.36,1.32,1.32,0,0,1,.34.47,1.46,1.46,0,0,1,.12.62,1.5,1.5,0,0,1-.19.78,1.71,1.71,0,0,1-.53.54,2.3,2.3,0,0,1-.75.32,3.82,3.82,0,0,1-.9.11A3.34,3.34,0,0,1,179.05,117.69Z" fill="#1e1e1e"/>
      <path d="M189.48,117.91h-1v-3.46c0-1.25-.46-1.87-1.39-1.87a1.53,1.53,0,0,0-1.19.54,2,2,0,0,0-.48,1.39v3.4h-1V109h1v3.87h0a2.2,2.2,0,0,1,2-1.13c1.36,0,2,.81,2,2.44Z" fill="#1e1e1e"/>
      <path d="M126.34,128.72a1.46,1.46,0,0,1-1-2.51,1.45,1.45,0,0,1,2.09,0,1.5,1.5,0,0,1,.43,1,1.44,1.44,0,0,1-.43,1A1.4,1.4,0,0,1,126.34,128.72Z" fill="#1e1e1e"/>
      <path d="M136.05,130.77v-1.16a1.89,1.89,0,0,0,.48.31,3,3,0,0,0,.58.24,3.5,3.5,0,0,0,.62.15,3,3,0,0,0,.58.05,2.28,2.28,0,0,0,1.35-.33,1.15,1.15,0,0,0,.45-1,1.1,1.1,0,0,0-.15-.59,1.62,1.62,0,0,0-.41-.46,3.79,3.79,0,0,0-.63-.4l-.77-.4a8.88,8.88,0,0,1-.82-.46,3.54,3.54,0,0,1-.67-.5,2.26,2.26,0,0,1-.44-.62,1.94,1.94,0,0,1-.16-.82,2,2,0,0,1,.25-1,2.13,2.13,0,0,1,.67-.7,3,3,0,0,1,.93-.41,5.22,5.22,0,0,1,2.88.16V124a3.31,3.31,0,0,0-1.91-.51,3.57,3.57,0,0,0-.65.06,2,2,0,0,0-.57.22,1.3,1.3,0,0,0-.41.4,1.07,1.07,0,0,0-.16.58,1.22,1.22,0,0,0,.12.56,1.42,1.42,0,0,0,.36.43,3.52,3.52,0,0,0,.57.37l.77.4a8.72,8.72,0,0,1,.86.47,3.59,3.59,0,0,1,.71.54,2.42,2.42,0,0,1,.48.67,1.81,1.81,0,0,1,.18.83,2.14,2.14,0,0,1-.24,1,1.93,1.93,0,0,1-.66.7,2.8,2.8,0,0,1-1,.39,5.24,5.24,0,0,1-1.14.12l-.49,0c-.19,0-.39-.06-.6-.1a4.74,4.74,0,0,1-.57-.15A1.83,1.83,0,0,1,136.05,130.77Z" fill="#1e1e1e"/>
      <path d="M145.2,131.25a2.79,2.79,0,0,1-2.13-.84,3.12,3.12,0,0,1-.79-2.23,3.23,3.23,0,0,1,.82-2.36,3,3,0,0,1,2.24-.85,2.68,2.68,0,0,1,2.09.82,3.29,3.29,0,0,1,.75,2.29,3.21,3.21,0,0,1-.81,2.3A2.82,2.82,0,0,1,145.2,131.25Zm.07-5.47a1.84,1.84,0,0,0-1.47.63,2.58,2.58,0,0,0-.54,1.73,2.44,2.44,0,0,0,.55,1.69,1.85,1.85,0,0,0,1.46.61,1.77,1.77,0,0,0,1.43-.6,3.23,3.23,0,0,0,0-3.45A1.74,1.74,0,0,0,145.27,125.78Z" fill="#1e1e1e"/>
      <path d="M154.57,131.11h-1v-1h0a2,2,0,0,1-1.86,1.09c-1.42,0-2.14-.85-2.14-2.56v-3.58h1v3.43c0,1.27.48,1.9,1.45,1.9a1.47,1.47,0,0,0,1.16-.52,2,2,0,0,0,.45-1.35v-3.46h1Z" fill="#1e1e1e"/>
      <path d="M159.64,126.08a1.18,1.18,0,0,0-.73-.19,1.23,1.23,0,0,0-1,.58,2.7,2.7,0,0,0-.41,1.58v3.06h-1v-6h1v1.23h0a2.09,2.09,0,0,1,.63-1,1.42,1.42,0,0,1,.94-.36,1.71,1.71,0,0,1,.58.08Z" fill="#1e1e1e"/>
      <path d="M164.77,130.83a3.1,3.1,0,0,1-1.64.42,2.72,2.72,0,0,1-2.07-.84,3,3,0,0,1-.79-2.16,3.35,3.35,0,0,1,.85-2.38,3,3,0,0,1,2.27-.9,3.2,3.2,0,0,1,1.39.29v1a2.38,2.38,0,0,0-1.43-.47,1.91,1.91,0,0,0-1.5.66,2.46,2.46,0,0,0-.59,1.73,2.38,2.38,0,0,0,.55,1.66,1.89,1.89,0,0,0,1.49.61,2.38,2.38,0,0,0,1.47-.52Z" fill="#1e1e1e"/>
      <path d="M171.05,128.35h-4.24a2.3,2.3,0,0,0,.54,1.55,1.87,1.87,0,0,0,1.42.54,2.93,2.93,0,0,0,1.86-.67v.9a3.43,3.43,0,0,1-2.09.58,2.53,2.53,0,0,1-2-.82,3.36,3.36,0,0,1-.73-2.3,3.29,3.29,0,0,1,.8-2.28,2.54,2.54,0,0,1,2-.88,2.24,2.24,0,0,1,1.82.76,3.17,3.17,0,0,1,.65,2.11Zm-1-.82a1.9,1.9,0,0,0-.4-1.29,1.36,1.36,0,0,0-1.1-.46,1.56,1.56,0,0,0-1.15.48,2.25,2.25,0,0,0-.59,1.27Z" fill="#1e1e1e"/>
      <path d="M176.9,131.11h-1v-8.4h1Z" fill="#1e1e1e"/>
      <path d="M180.09,127.93v3.18h-1v-8.4h2.31a3,3,0,0,1,2.09.65,2.37,2.37,0,0,1,.74,1.85,2.58,2.58,0,0,1-.82,2,3.14,3.14,0,0,1-2.23.76Zm0-4.33V127h1a2.3,2.3,0,0,0,1.55-.46,1.65,1.65,0,0,0,.54-1.32c0-1.11-.66-1.66-2-1.66Z" fill="#1e1e1e"/>
      <path d="M126.34,141.92a1.43,1.43,0,0,1-1-.43,1.4,1.4,0,0,1-.44-1,1.43,1.43,0,0,1,.44-1,1.45,1.45,0,0,1,2.09,0,1.5,1.5,0,0,1,.43,1,1.43,1.43,0,0,1-.43,1A1.4,1.4,0,0,1,126.34,141.92Z" fill="#1e1e1e"/>
      <path d="M136.44,144.31v-8.4h2.32q4.44,0,4.44,4.09a4.14,4.14,0,0,1-1.23,3.13,4.55,4.55,0,0,1-3.3,1.18Zm1-7.51v6.62h1.25a3.55,3.55,0,0,0,2.57-.89,3.28,3.28,0,0,0,.92-2.5c0-2.16-1.14-3.23-3.43-3.23Z" fill="#1e1e1e"/>
      <path d="M149.55,141.55h-4.24a2.3,2.3,0,0,0,.54,1.55,1.88,1.88,0,0,0,1.42.54,2.89,2.89,0,0,0,1.86-.67v.91a3.47,3.47,0,0,1-2.09.57,2.53,2.53,0,0,1-2-.82,3.35,3.35,0,0,1-.72-2.3,3.28,3.28,0,0,1,.79-2.28,2.54,2.54,0,0,1,2-.88,2.22,2.22,0,0,1,1.82.76,3.17,3.17,0,0,1,.65,2.11Zm-1-.82a1.9,1.9,0,0,0-.4-1.29,1.36,1.36,0,0,0-1.1-.46,1.56,1.56,0,0,0-1.15.48,2.25,2.25,0,0,0-.59,1.27Z" fill="#1e1e1e"/>
      <path d="M150.64,144.09v-1a2.82,2.82,0,0,0,1.73.58q1.26,0,1.26-.84a.68.68,0,0,0-.11-.41,1.17,1.17,0,0,0-.29-.3,2.86,2.86,0,0,0-.43-.23l-.54-.21c-.26-.11-.5-.21-.7-.32a2.22,2.22,0,0,1-.5-.36,1.38,1.38,0,0,1-.31-.46,1.9,1.9,0,0,1-.1-.61,1.48,1.48,0,0,1,.19-.74,1.82,1.82,0,0,1,.52-.55,2.17,2.17,0,0,1,.74-.33,3.35,3.35,0,0,1,.85-.11,3.41,3.41,0,0,1,1.39.27v1a2.7,2.7,0,0,0-1.52-.43,1.88,1.88,0,0,0-.49.06,1.26,1.26,0,0,0-.37.17.88.88,0,0,0-.24.27.66.66,0,0,0-.08.34.75.75,0,0,0,.08.39.83.83,0,0,0,.25.28,1.68,1.68,0,0,0,.4.23l.53.21c.27.11.5.21.72.32a2.14,2.14,0,0,1,.53.36,1.37,1.37,0,0,1,.47,1.09,1.51,1.51,0,0,1-.2.78,1.58,1.58,0,0,1-.52.54,2.26,2.26,0,0,1-.76.32,3.7,3.7,0,0,1-.9.11A3.37,3.37,0,0,1,150.64,144.09Z" fill="#1e1e1e"/>
      <path d="M158.88,144.25a1.82,1.82,0,0,1-.9.19c-1,0-1.58-.59-1.58-1.76v-3.55h-1v-.82h1v-1.47l1-.31v1.78h1.51v.82h-1.51v3.38a1.38,1.38,0,0,0,.2.86.83.83,0,0,0,.68.26,1.05,1.05,0,0,0,.63-.2Z" fill="#1e1e1e"/>
      <path d="M160.65,136.79a.6.6,0,0,1-.44-.18.61.61,0,0,1-.18-.45.57.57,0,0,1,.18-.44.6.6,0,0,1,.44-.18.61.61,0,0,1,.45.18.58.58,0,0,1,.19.44.6.6,0,0,1-.19.44A.62.62,0,0,1,160.65,136.79Zm.47,7.52h-1v-6h1Z" fill="#1e1e1e"/>
      <path d="M168.05,144.31h-1v-3.42c0-1.28-.47-1.91-1.4-1.91a1.5,1.5,0,0,0-1.19.54,2,2,0,0,0-.47,1.37v3.42h-1v-6h1v1h0a2.17,2.17,0,0,1,2-1.13,1.85,1.85,0,0,1,1.51.63,2.9,2.9,0,0,1,.52,1.84Z" fill="#1e1e1e"/>
      <path d="M174.15,144.31h-1v-.94h0a2,2,0,0,1-1.85,1.08,2,2,0,0,1-1.4-.48,1.62,1.62,0,0,1-.51-1.26q0-1.68,2-2l1.8-.25q0-1.53-1.23-1.53a3,3,0,0,0-2,.73v-1a3.76,3.76,0,0,1,2-.56c1.41,0,2.11.74,2.11,2.24Zm-1-3-1.45.2a2.54,2.54,0,0,0-1,.33,1,1,0,0,0-.34.84.9.9,0,0,0,.31.72,1.2,1.2,0,0,0,.84.28,1.56,1.56,0,0,0,1.18-.5,1.79,1.79,0,0,0,.46-1.27Z" fill="#1e1e1e"/>
      <path d="M178.75,144.25a1.82,1.82,0,0,1-.9.19c-1,0-1.58-.59-1.58-1.76v-3.55h-1v-.82h1v-1.47l1-.31v1.78h1.52v.82h-1.52v3.38a1.37,1.37,0,0,0,.21.86.83.83,0,0,0,.68.26,1.05,1.05,0,0,0,.63-.2Z" fill="#1e1e1e"/>
      <path d="M180.52,136.79a.6.6,0,0,1-.44-.18.61.61,0,0,1-.18-.45.57.57,0,0,1,.18-.44.6.6,0,0,1,.44-.18.61.61,0,0,1,.45.18.57.57,0,0,1,.18.44.59.59,0,0,1-.18.44A.62.62,0,0,1,180.52,136.79Zm.47,7.52h-1v-6h1Z" fill="#1e1e1e"/>
      <path d="M185.44,144.45a2.79,2.79,0,0,1-2.12-.84,3.12,3.12,0,0,1-.79-2.23,3.23,3.23,0,0,1,.82-2.36,3,3,0,0,1,2.23-.85,2.69,2.69,0,0,1,2.1.82,3.3,3.3,0,0,1,.75,2.3,3.2,3.2,0,0,1-.81,2.29A2.84,2.84,0,0,1,185.44,144.45Zm.07-5.47a1.83,1.83,0,0,0-1.46.63,2.58,2.58,0,0,0-.54,1.73,2.44,2.44,0,0,0,.55,1.69,1.82,1.82,0,0,0,1.45.61A1.77,1.77,0,0,0,187,143a3.23,3.23,0,0,0,0-3.45A1.75,1.75,0,0,0,185.51,139Z" fill="#1e1e1e"/>
      <path d="M195,144.31h-1v-3.42c0-1.28-.47-1.91-1.4-1.91a1.5,1.5,0,0,0-1.19.54,2,2,0,0,0-.47,1.37v3.42h-1v-6h1v1h0a2.17,2.17,0,0,1,2-1.13,1.85,1.85,0,0,1,1.51.63,2.9,2.9,0,0,1,.52,1.84Z" fill="#1e1e1e"/>
      <path d="M201.16,144.31h-1v-8.4h1Z" fill="#1e1e1e"/>
      <path d="M204.35,141.13v3.18h-1v-8.4h2.31a3.11,3.11,0,0,1,2.09.65,2.37,2.37,0,0,1,.74,1.85,2.55,2.55,0,0,1-.83,2,3.13,3.13,0,0,1-2.22.76Zm0-4.33v3.44h1a2.32,2.32,0,0,0,1.56-.46,1.65,1.65,0,0,0,.54-1.32c0-1.11-.66-1.66-2-1.66Z" fill="#1e1e1e"/>
    </g>
  </g>
</svg>
