<svg xmlns="http://www.w3.org/2000/svg" xmlns:xlink="http://www.w3.org/1999/xlink" viewBox="0 0 360 305">
  <defs>
    <symbol id="AzureLoadBalancerAutomatic" data-name="AzureLoadBalancerAutomatic" viewBox="0 0 52 34.5">
      <g id="Layer_1" data-name="Layer 1">
        <path d="M51.9,31,47.2,1.4A1.44,1.44,0,0,0,45.8,0H6.6A1.31,1.31,0,0,0,5.2,1.4L0,31H0v.3H0v.5a2.52,2.52,0,0,0,2.2,2.7H49.8A2.52,2.52,0,0,0,52,31.8,2.49,2.49,0,0,1,51.9,31ZM35.5,23.4H29.7a.8.8,0,1,1,0-1.6h2.7l-6.5-6.5v13l2-2a.85.85,0,1,1,1.2,1.2l-4,4L21,27.4a.73.73,0,0,1-.2-.6,1.42,1.42,0,0,1,.2-.6.91.91,0,0,1,1.2,0l2.1,2.1v-13l-6.5,6.5h2.9a.8.8,0,1,1,0,1.6H14.9V17.6a.8.8,0,0,1,1.6,0v2.9l7.7-7.7v-4a2.71,2.71,0,0,1-1.8-2.5,2.6,2.6,0,0,1,5.2,0,2.71,2.71,0,0,1-1.8,2.5v4l7.9,7.9V17.6a.8.8,0,0,1,1.6,0v5.8Z" fill="#0078d7"/>
      </g>
    </symbol>
    <symbol id="AzureCloudServices" data-name="AzureCloudServices" viewBox="0 0 42.9 35.9">
      <g id="paths">
        <g id="Cloud_service" data-name="Cloud service">
          <g>
            <g id="shape37-71">
              <circle cx="27.58" cy="14.27" r="2.1" fill="#0078d7"/>
            </g>
            <g id="shape38-73">
              <path d="M16.86,19.24a2.1,2.1,0,1,0,2.1,2.1A2.18,2.18,0,0,0,16.86,19.24Z" fill="#0078d7"/>
            </g>
            <g id="shape39-75">
              <path d="M34.3,15l-1.9.6-.5,1,.7,1.5.1.2-1,1L30,18.6,29,19l-.5,1.6-.1.2H26.9L26.3,19l-1-.4-1.5.7-.2.1-1-1,.8-1.7-.4-1-1.3-.5V13.6l1.5-.6.3-1-.8-1.5-.1-.2,1-1,1.7.8,1-.4.5-1.5.1-.1h1.5L29,9.8l1,.3,1.5-.8.2-.1,1,1-.8,1.7.4,1,1.7.5.3.1ZM10.4,20.6l1.8-.6.4-1-.7-1.5-.1-.2,1-1,1.7.8,1-.4.5-1.4.1-.1h1.5l.6,1.6,1,.4,1.5-.8.2-.1,1,1L21.1,19l.4,1,1.4.5.1.1v1.5l-1.6.5-.4,1,.8,1.5.1.2-1,1-1.7-.7-1,.4-.5,1.6-.1.2H16.1L15.4,26l-1-.4-1.5.7-.2.1-1-1,.8-1.7-.4-1-1.6-.5-.2-.1V20.6Zm27.1-7.5-.8-.3.2-.8a9.86,9.86,0,0,0,.3-2.4A9.63,9.63,0,0,0,18.7,5.9l-.6,1.3-.9-1.1A6.6,6.6,0,0,0,5.6,10.4a11,11,0,0,0,.2,1.8L6,13l-.8.3a7.44,7.44,0,0,0-5.2,7,7.65,7.65,0,0,0,7.9,7.5h2c-.1,0-.1.7-.1,1.1a7,7,0,0,0,7,7,7.1,7.1,0,0,0,6.5-4.3l.4-1,.7.8A4.75,4.75,0,0,0,28,33.1a4.87,4.87,0,0,0,4.8-4.8v-.5H35a7.65,7.65,0,0,0,7.9-7.5A7.24,7.24,0,0,0,37.5,13.1Z" fill="#0078d7"/>
            </g>
          </g>
        </g>
      </g>
    </symbol>
  </defs>
  <title>2-load-balancer-distribution</title>
  <g id="Shapes">
    <rect width="360" height="305" fill="#fff"/>
    <g>
      <rect x="260" y="23.39" width="100" height="281.61" fill="#fff"/>
      <rect x="260" y="23.39" width="100" height="281.61" fill="#3c3c41" opacity="0.08"/>
    </g>
    <use width="52" height="34.5" transform="translate(123.89 158.95) scale(0.87)" xlink:href="#AzureLoadBalancerAutomatic"/>
    <g>
      <rect x="270" y="33.39" width="81.12" height="81.61" fill="#fff"/>
      <rect x="270" y="33.39" width="81.12" height="81.61" fill="#3c3c41" opacity="0.25"/>
    </g>
    <g>
      <path d="M314.74,90.57h-7.69c.91,3.23-.34,3.73-5.76,3.73V96h18.42V94.3C314.34,94.3,313.84,93.85,314.74,90.57Z" fill="#7a7a7a"/>
      <path d="M323,70H298a1.57,1.57,0,0,0-1.52,1.58V89A1.57,1.57,0,0,0,298,90.57h25a1.72,1.72,0,0,0,1.7-1.58V71.58A1.72,1.72,0,0,0,323,70Zm-.45,2.15V88.37h-24V72.15l24-.06Z" fill="#3e3e3e"/>
      <polygon points="322.48 72.15 322.48 88.43 298.57 88.43 298.57 72.15 322.54 72.15 322.48 72.15" fill="#00bbf1"/>
      <path d="M298.58,88.43h0V72.15h21.87L323,70H298a1.57,1.57,0,0,0-1.52,1.58V89A1.57,1.57,0,0,0,298,90.57h.63l2.6-2.14Z" fill="#7a7a7a"/>
      <polygon points="298.57 88.43 298.57 88.43 298.57 72.15 320.45 72.15 320.45 72.15 298.57 72.15 298.57 88.43" fill="#59b4d9"/>
      <rect x="301.34" y="94.3" width="18.48" height="1.7" fill="#b0b0b0"/>
      <circle cx="310.44" cy="71.19" r="0.4" fill="#bac84a"/>
      <path d="M310.56,80h-.06l-5-2.88c-.06,0-.06-.05-.06-.11a.17.17,0,0,1,.06-.11l4.91-2.83h.17l5,2.88c.05,0,.05.06.05.12s0,.11-.05.11L310.67,80Z" fill="#fff" opacity="0.9" style="isolation: isolate"/>
      <path d="M309.82,87h-.05l-5-2.83c-.05,0-.05-.06-.05-.11V78.25s0-.11.05-.11H305l5,2.83c.05,0,.05,0,.05.11v5.71a.22.22,0,0,1-.05.11C309.88,87,309.88,87,309.82,87Z" fill="#fff" opacity="0.8" style="isolation: isolate"/>
      <path d="M311.24,87h-.06c-.06,0-.06-.06-.06-.12V81.13a.21.21,0,0,1,.06-.11l5-2.82h.17c.06,0,.06,0,.06.11V84a.21.21,0,0,1-.06.11l-5,2.83Z" fill="#fff" opacity="0.5" style="isolation: isolate"/>
    </g>
    <g>
      <rect x="270" y="125" width="81.12" height="81.61" fill="#fff"/>
      <rect x="270" y="125" width="81.12" height="81.61" fill="#3c3c41" opacity="0.25"/>
    </g>
    <g>
      <path d="M314.74,182.19h-7.69c.91,3.22-.34,3.73-5.76,3.73v1.69h18.42v-1.69C314.34,185.92,313.84,185.47,314.74,182.19Z" fill="#7a7a7a"/>
      <path d="M323,161.61H298a1.57,1.57,0,0,0-1.52,1.59v17.41a1.57,1.57,0,0,0,1.52,1.58h25a1.73,1.73,0,0,0,1.7-1.58V163.2A1.73,1.73,0,0,0,323,161.61Zm-.45,2.15V180h-24V163.76l24,0Z" fill="#3e3e3e"/>
      <polygon points="322.48 163.76 322.48 180.04 298.57 180.04 298.57 163.76 322.54 163.76 322.48 163.76" fill="#00bbf1"/>
      <path d="M298.58,180h0V163.76h21.87l2.54-2.15H298a1.57,1.57,0,0,0-1.52,1.59v17.41a1.57,1.57,0,0,0,1.52,1.58h.63l2.6-2.15Z" fill="#7a7a7a"/>
      <polygon points="298.57 180.04 298.57 180.04 298.57 163.76 320.45 163.76 320.45 163.76 298.57 163.76 298.57 180.04" fill="#59b4d9"/>
      <rect x="301.34" y="185.92" width="18.48" height="1.7" fill="#b0b0b0"/>
      <circle cx="310.44" cy="162.8" r="0.4" fill="#bac84a"/>
      <path d="M310.56,171.62h-.06l-5-2.88c-.06,0-.06-.06-.06-.12a.21.21,0,0,1,.06-.11l4.91-2.83h.17l5,2.89c.05,0,.05.05.05.11s0,.11-.05.11l-4.92,2.83Z" fill="#fff" opacity="0.9" style="isolation: isolate"/>
      <path d="M309.82,178.57h-.05l-5-2.83c-.05,0-.05-.05-.05-.11v-5.76c0-.06,0-.12.05-.12H305l5,2.83c.05,0,.05.06.05.11v5.71a.18.18,0,0,1-.05.11C309.88,178.57,309.88,178.57,309.82,178.57Z" fill="#fff" opacity="0.8" style="isolation: isolate"/>
      <path d="M311.24,178.57h-.06c-.06,0-.06-.06-.06-.11v-5.71a.17.17,0,0,1,.06-.11l5-2.83h.17c.06,0,.06.06.06.11v5.71a.17.17,0,0,1-.06.11l-5,2.83Z" fill="#fff" opacity="0.5" style="isolation: isolate"/>
    </g>
    <g>
      <rect x="270" y="215" width="81.12" height="81.61" fill="#fff"/>
      <rect x="270" y="215" width="81.12" height="81.61" fill="#3c3c41" opacity="0.25"/>
    </g>
    <g>
      <path d="M314.74,272.19h-7.69c.91,3.22-.34,3.73-5.76,3.73v1.69h18.42v-1.69C314.34,275.92,313.84,275.47,314.74,272.19Z" fill="#7a7a7a"/>
      <path d="M323,251.61H298a1.57,1.57,0,0,0-1.52,1.59v17.41a1.57,1.57,0,0,0,1.52,1.58h25a1.73,1.73,0,0,0,1.7-1.58V253.2A1.73,1.73,0,0,0,323,251.61Zm-.45,2.15V270h-24V253.76l24,0Z" fill="#3e3e3e"/>
      <polygon points="322.48 253.76 322.48 270.04 298.57 270.04 298.57 253.76 322.54 253.76 322.48 253.76" fill="#00bbf1"/>
      <path d="M298.58,270h0V253.76h21.87l2.54-2.15H298a1.57,1.57,0,0,0-1.52,1.59v17.41a1.57,1.57,0,0,0,1.52,1.58h.63l2.6-2.15Z" fill="#7a7a7a"/>
      <polygon points="298.57 270.04 298.57 270.04 298.57 253.76 320.45 253.76 320.45 253.76 298.57 253.76 298.57 270.04" fill="#59b4d9"/>
      <rect x="301.34" y="275.92" width="18.48" height="1.7" fill="#b0b0b0"/>
      <circle cx="310.44" cy="252.8" r="0.4" fill="#bac84a"/>
      <path d="M310.56,261.62h-.06l-5-2.88c-.06,0-.06-.06-.06-.12a.21.21,0,0,1,.06-.11l4.91-2.83h.17l5,2.89c.05,0,.05.05.05.11s0,.11-.05.11l-4.92,2.83Z" fill="#fff" opacity="0.9" style="isolation: isolate"/>
      <path d="M309.82,268.57h-.05l-5-2.83c-.05,0-.05-.05-.05-.11v-5.76c0-.06,0-.12.05-.12H305l5,2.83c.05,0,.05.06.05.11v5.71a.18.18,0,0,1-.05.11C309.88,268.57,309.88,268.57,309.82,268.57Z" fill="#fff" opacity="0.8" style="isolation: isolate"/>
      <path d="M311.24,268.57h-.06c-.06,0-.06-.06-.06-.11v-5.71a.17.17,0,0,1,.06-.11l5-2.83h.17c.06,0,.06.06.06.11v5.71a.17.17,0,0,1-.06.11l-5,2.83Z" fill="#fff" opacity="0.5" style="isolation: isolate"/>
    </g>
    <use width="42.9" height="35.9" transform="translate(240) scale(0.89)" xlink:href="#AzureCloudServices"/>
    <line x1="170" y1="172.27" x2="280" y2="172.27" fill="none" stroke="#1e1e1e" stroke-miterlimit="10"/>
    <line x1="45" y1="172.27" x2="120" y2="172.27" fill="none" stroke="#1e1e1e" stroke-miterlimit="10"/>
    <line x1="45" y1="180" x2="120" y2="180" fill="none" stroke="#1e1e1e" stroke-miterlimit="10"/>
    <line x1="45" y1="165" x2="120" y2="165" fill="none" stroke="#1e1e1e" stroke-miterlimit="10"/>
    <polyline points="290 85 205 165 170 165" fill="none" stroke="#1e1e1e" stroke-miterlimit="10"/>
    <polyline points="290 260 205 180 170 180" fill="none" stroke="#1e1e1e" stroke-miterlimit="10"/>
    <path d="M42.61,183.26a2.67,2.67,0,0,1,.45.62,4,4,0,0,1,.32.77,4.64,4.64,0,0,1,.19.82,4.11,4.11,0,0,1,.07.75,2.53,2.53,0,0,1-.22,1.07,2.78,2.78,0,0,1-.58.86,2.91,2.91,0,0,1-.87.59,2.64,2.64,0,0,1-1.06.21H2.73a2.69,2.69,0,0,1-1.07-.21,3,3,0,0,1-.86-.59,3,3,0,0,1-.59-.86A2.69,2.69,0,0,1,0,186.22a5.14,5.14,0,0,1,.06-.75,5.77,5.77,0,0,1,.2-.82,4,4,0,0,1,.32-.77,2.38,2.38,0,0,1,.44-.62l4.43-4.43V159H38.18v19.88ZM8.18,178H35.45V161.68H8.18Zm32.73,8.18a2.64,2.64,0,0,0-.09-.6,1.13,1.13,0,0,0-.25-.55l-4.33-4.3H7.39l-4.32,4.3a1.13,1.13,0,0,0-.26.55,3.2,3.2,0,0,0-.08.6Z"/>
  </g>
  <g id="Text">
    <g>
      <path d="M286.75,46.33v3.18h-1v-8.4h2.31a3,3,0,0,1,2.09.65,2.37,2.37,0,0,1,.74,1.85,2.54,2.54,0,0,1-.82,2,3.14,3.14,0,0,1-2.23.76Zm0-4.33v3.44h1a2.3,2.3,0,0,0,1.55-.46,1.65,1.65,0,0,0,.54-1.32c0-1.11-.66-1.66-2-1.66Z" fill="#1e1e1e"/>
      <path d="M295.48,44.48a1.18,1.18,0,0,0-.73-.19,1.2,1.2,0,0,0-1,.58,2.62,2.62,0,0,0-.42,1.58v3.06h-1v-6h1v1.23h0a2,2,0,0,1,.62-1,1.45,1.45,0,0,1,1-.36,1.65,1.65,0,0,1,.57.08Z" fill="#1e1e1e"/>
      <path d="M297,42a.58.58,0,0,1-.44-.17.61.61,0,0,1-.18-.45.57.57,0,0,1,.18-.44.59.59,0,0,1,.44-.18.6.6,0,0,1,.44.18.55.55,0,0,1,.19.44.56.56,0,0,1-.19.44A.6.6,0,0,1,297,42Zm.47,7.53h-1v-6h1Z" fill="#1e1e1e"/>
      <path d="M304.15,43.51l-2.39,6h-.95l-2.27-6h1l1.53,4.36a4.27,4.27,0,0,1,.21.84h0a3.66,3.66,0,0,1,.19-.82l1.59-4.38Z" fill="#1e1e1e"/>
      <path d="M309.47,49.51h-1v-.94h0a2,2,0,0,1-1.85,1.08,2,2,0,0,1-1.4-.48,1.62,1.62,0,0,1-.51-1.26q0-1.68,2-1.95l1.8-.25q0-1.53-1.23-1.53a3,3,0,0,0-2,.73v-1a3.76,3.76,0,0,1,2-.56c1.41,0,2.11.74,2.11,2.24Zm-1-3-1.44.2a2.38,2.38,0,0,0-1,.33,1,1,0,0,0-.34.84.9.9,0,0,0,.31.72,1.2,1.2,0,0,0,.84.28,1.56,1.56,0,0,0,1.18-.5,1.79,1.79,0,0,0,.46-1.27Z" fill="#1e1e1e"/>
      <path d="M314.07,49.45a1.94,1.94,0,0,1-.9.19c-1.05,0-1.58-.59-1.58-1.76V44.33h-1v-.82h1V42l1-.31v1.78h1.51v.82h-1.51v3.38a1.38,1.38,0,0,0,.2.86.83.83,0,0,0,.68.26,1.05,1.05,0,0,0,.63-.2Z" fill="#1e1e1e"/>
      <path d="M320.17,46.75h-4.23a2.21,2.21,0,0,0,.54,1.55,1.85,1.85,0,0,0,1.41.54,2.94,2.94,0,0,0,1.87-.67v.9a3.45,3.45,0,0,1-2.09.58,2.52,2.52,0,0,1-2-.82,3.83,3.83,0,0,1,.06-4.58,2.55,2.55,0,0,1,2-.88,2.25,2.25,0,0,1,1.82.76,3.17,3.17,0,0,1,.64,2.11Zm-1-.82a2,2,0,0,0-.4-1.29,1.37,1.37,0,0,0-1.1-.46,1.59,1.59,0,0,0-1.16.48,2.24,2.24,0,0,0-.58,1.27Z" fill="#1e1e1e"/>
      <path d="M326,49.51h-1v-8.4h1Z" fill="#1e1e1e"/>
      <path d="M329.22,46.33v3.18h-1v-8.4h2.3a3,3,0,0,1,2.09.65,2.33,2.33,0,0,1,.74,1.85,2.54,2.54,0,0,1-.82,2,3.13,3.13,0,0,1-2.22.76Zm0-4.33v3.44h1a2.32,2.32,0,0,0,1.56-.46,1.67,1.67,0,0,0,.53-1.32c0-1.11-.65-1.66-2-1.66Z" fill="#1e1e1e"/>
      <path d="M335.71,48.17l-.94,2.89h-.69l.69-2.89Z" fill="#1e1e1e"/>
      <path d="M301.35,61.84h0v3.63h-1V56.71h1v1h0a2.3,2.3,0,0,1,2.08-1.19,2.23,2.23,0,0,1,1.81.8,3.37,3.37,0,0,1,.65,2.16,3.74,3.74,0,0,1-.73,2.41,2.44,2.44,0,0,1-2,.91A2,2,0,0,1,301.35,61.84Zm0-2.42v.84a1.77,1.77,0,0,0,.48,1.26A1.59,1.59,0,0,0,303,62a1.6,1.6,0,0,0,1.37-.67,3,3,0,0,0,.49-1.85,2.44,2.44,0,0,0-.46-1.58,1.56,1.56,0,0,0-1.25-.56,1.7,1.7,0,0,0-1.35.58A2.15,2.15,0,0,0,301.33,59.42Z" fill="#1e1e1e"/>
      <path d="M309.93,62.85a2.77,2.77,0,0,1-2.12-.84,3.12,3.12,0,0,1-.8-2.23,3.23,3.23,0,0,1,.83-2.36,3,3,0,0,1,2.23-.85,2.71,2.71,0,0,1,2.1.82,3.3,3.3,0,0,1,.75,2.3,3.2,3.2,0,0,1-.81,2.29A2.84,2.84,0,0,1,309.93,62.85Zm.07-5.47a1.81,1.81,0,0,0-1.46.63,2.58,2.58,0,0,0-.54,1.73,2.49,2.49,0,0,0,.54,1.69A1.86,1.86,0,0,0,310,62a1.75,1.75,0,0,0,1.43-.6,3.23,3.23,0,0,0,0-3.45A1.73,1.73,0,0,0,310,57.38Z" fill="#1e1e1e"/>
      <path d="M317.58,57.68a1.14,1.14,0,0,0-.72-.19,1.21,1.21,0,0,0-1,.58,2.62,2.62,0,0,0-.41,1.58v3.06h-1v-6h1v1.23h0a2,2,0,0,1,.63-1,1.54,1.54,0,0,1,1.51-.27Z" fill="#1e1e1e"/>
      <path d="M321.41,62.65a1.94,1.94,0,0,1-.9.19c-1.05,0-1.57-.59-1.57-1.76V57.53h-1v-.82h1V55.24l1-.31v1.78h1.51v.82H319.9v3.38a1.45,1.45,0,0,0,.2.86.84.84,0,0,0,.68.26,1.05,1.05,0,0,0,.63-.2Z" fill="#1e1e1e"/>
    </g>
    <g>
      <path d="M308.68,99.81l-3.11,8.4h-1.09l-3-8.4h1.09l2.33,6.66a4.63,4.63,0,0,1,.17.75h0a4,4,0,0,1,.19-.76l2.38-6.65Z" fill="#1e1e1e"/>
      <path d="M318.45,108.21h-1v-5.63c0-.45,0-1,.08-1.64h0a5.64,5.64,0,0,1-.25.82l-2.87,6.45h-.48l-2.87-6.41a5.3,5.3,0,0,1-.25-.86h0c0,.34,0,.89,0,1.65v5.62h-.95v-8.4h1.31l2.57,5.86a7.92,7.92,0,0,1,.39,1h0c.16-.46.3-.81.4-1l2.63-5.84h1.23Z" fill="#1e1e1e"/>
    </g>
    <g>
      <path d="M286.75,138v3.17h-1v-8.4h2.31a3,3,0,0,1,2.09.66,2.34,2.34,0,0,1,.74,1.85,2.52,2.52,0,0,1-.82,2,3.15,3.15,0,0,1-2.23.77Zm0-4.34v3.45h1a2.3,2.3,0,0,0,1.55-.47,1.65,1.65,0,0,0,.54-1.32c0-1.1-.66-1.66-2-1.66Z" fill="#1e1e1e"/>
      <path d="M295.48,136.09a1.25,1.25,0,0,0-.73-.19,1.2,1.2,0,0,0-1,.58,2.67,2.67,0,0,0-.42,1.58v3.06h-1v-6h1v1.24h0a2.08,2.08,0,0,1,.62-1,1.63,1.63,0,0,1,1.52-.27Z" fill="#1e1e1e"/>
      <path d="M297,133.6a.59.59,0,0,1-.44-.18.57.57,0,0,1-.18-.44.61.61,0,0,1,.18-.45.59.59,0,0,1,.44-.18.6.6,0,0,1,.44.18.58.58,0,0,1,.19.45.58.58,0,0,1-.19.44A.6.6,0,0,1,297,133.6Zm.47,7.52h-1v-6h1Z" fill="#1e1e1e"/>
      <path d="M304.15,135.12l-2.39,6h-.95l-2.27-6h1l1.53,4.36a4.27,4.27,0,0,1,.21.84h0a3.94,3.94,0,0,1,.19-.82l1.59-4.38Z" fill="#1e1e1e"/>
      <path d="M309.47,141.12h-1v-.94h0a2.2,2.2,0,0,1-3.25.61,1.65,1.65,0,0,1-.51-1.26c0-1.12.66-1.78,2-2l1.8-.25q0-1.53-1.23-1.53a3,3,0,0,0-2,.74v-1a3.76,3.76,0,0,1,2-.56c1.41,0,2.11.75,2.11,2.24Zm-1-3-1.44.2a2.25,2.25,0,0,0-1,.33,1,1,0,0,0-.34.84.92.92,0,0,0,.31.72,1.25,1.25,0,0,0,.84.27,1.53,1.53,0,0,0,1.18-.5,1.77,1.77,0,0,0,.46-1.27Z" fill="#1e1e1e"/>
      <path d="M314.07,141.06a1.82,1.82,0,0,1-.9.19c-1.05,0-1.58-.58-1.58-1.76v-3.55h-1v-.82h1v-1.46l1-.31v1.77h1.51v.82h-1.51v3.38a1.36,1.36,0,0,0,.2.86.8.8,0,0,0,.68.26,1,1,0,0,0,.63-.2Z" fill="#1e1e1e"/>
      <path d="M320.17,138.36h-4.23a2.19,2.19,0,0,0,.54,1.55,1.85,1.85,0,0,0,1.41.54,3,3,0,0,0,1.87-.66v.9a3.52,3.52,0,0,1-2.09.57,2.54,2.54,0,0,1-2-.81,3.85,3.85,0,0,1,.06-4.59,2.58,2.58,0,0,1,2-.88,2.28,2.28,0,0,1,1.82.76,3.19,3.19,0,0,1,.64,2.12Zm-1-.81a2,2,0,0,0-.4-1.3,1.37,1.37,0,0,0-1.1-.46,1.56,1.56,0,0,0-1.16.49,2.18,2.18,0,0,0-.58,1.27Z" fill="#1e1e1e"/>
      <path d="M326,141.12h-1v-8.4h1Z" fill="#1e1e1e"/>
      <path d="M329.22,138v3.17h-1v-8.4h2.3a3,3,0,0,1,2.09.66,2.31,2.31,0,0,1,.74,1.85,2.52,2.52,0,0,1-.82,2,3.14,3.14,0,0,1-2.22.77Zm0-4.34v3.45h1a2.33,2.33,0,0,0,1.56-.47,1.67,1.67,0,0,0,.53-1.32c0-1.1-.65-1.66-2-1.66Z" fill="#1e1e1e"/>
      <path d="M335.71,139.79l-.94,2.88h-.69l.69-2.88Z" fill="#1e1e1e"/>
      <path d="M301.35,153.46h0v3.62h-1v-8.76h1v1.06h0a2.29,2.29,0,0,1,2.08-1.2,2.2,2.2,0,0,1,1.81.81,3.33,3.33,0,0,1,.65,2.16,3.78,3.78,0,0,1-.73,2.41,2.46,2.46,0,0,1-2,.9A2,2,0,0,1,301.35,153.46Zm0-2.42v.83a1.81,1.81,0,0,0,.48,1.27,1.75,1.75,0,0,0,2.6-.15,3.09,3.09,0,0,0,.49-1.86,2.41,2.41,0,0,0-.46-1.57,1.53,1.53,0,0,0-1.25-.57,1.7,1.7,0,0,0-1.35.58A2.16,2.16,0,0,0,301.33,151Z" fill="#1e1e1e"/>
      <path d="M309.93,154.46a2.77,2.77,0,0,1-2.12-.84,3.11,3.11,0,0,1-.8-2.23,3.25,3.25,0,0,1,.83-2.36,3,3,0,0,1,2.23-.85,2.71,2.71,0,0,1,2.1.83,3.27,3.27,0,0,1,.75,2.29,3.23,3.23,0,0,1-.81,2.3A2.87,2.87,0,0,1,309.93,154.46ZM310,149a1.81,1.81,0,0,0-1.46.63,2.59,2.59,0,0,0-.54,1.74,2.46,2.46,0,0,0,.54,1.68,1.86,1.86,0,0,0,1.46.61,1.75,1.75,0,0,0,1.43-.6,2.58,2.58,0,0,0,.5-1.72,2.62,2.62,0,0,0-.5-1.73A1.73,1.73,0,0,0,310,149Z" fill="#1e1e1e"/>
      <path d="M317.58,149.29a1.29,1.29,0,0,0-1.75.39,2.67,2.67,0,0,0-.41,1.58v3.06h-1v-6h1v1.24h0a2.09,2.09,0,0,1,.63-1,1.39,1.39,0,0,1,.94-.35,1.44,1.44,0,0,1,.57.08Z" fill="#1e1e1e"/>
      <path d="M321.41,154.26a1.82,1.82,0,0,1-.9.19c-1.05,0-1.57-.58-1.57-1.76v-3.55h-1v-.82h1v-1.46l1-.31v1.77h1.51v.82H319.9v3.38a1.43,1.43,0,0,0,.2.86.81.81,0,0,0,.68.26,1,1,0,0,0,.63-.2Z" fill="#1e1e1e"/>
    </g>
    <g>
      <path d="M308.68,191.43l-3.11,8.4h-1.09l-3-8.4h1.09l2.33,6.66a4.27,4.27,0,0,1,.17.74h0a4.13,4.13,0,0,1,.19-.75l2.38-6.65Z" fill="#1e1e1e"/>
      <path d="M318.45,199.83h-1v-5.64c0-.44,0-1,.08-1.63h0a5.05,5.05,0,0,1-.25.81l-2.87,6.46h-.48l-2.87-6.41a6,6,0,0,1-.25-.86h0c0,.33,0,.88,0,1.64v5.63h-.95v-8.4h1.31l2.57,5.86a7.37,7.37,0,0,1,.39,1h0c.16-.46.3-.8.4-1l2.63-5.83h1.23Z" fill="#1e1e1e"/>
    </g>
    <g>
      <path d="M286.75,228v3.17h-1v-8.4h2.31a3,3,0,0,1,2.09.66,2.34,2.34,0,0,1,.74,1.85,2.52,2.52,0,0,1-.82,2,3.15,3.15,0,0,1-2.23.77Zm0-4.34v3.45h1a2.3,2.3,0,0,0,1.55-.47,1.65,1.65,0,0,0,.54-1.32c0-1.1-.66-1.66-2-1.66Z" fill="#1e1e1e"/>
      <path d="M295.48,226.09a1.25,1.25,0,0,0-.73-.19,1.2,1.2,0,0,0-1,.58,2.67,2.67,0,0,0-.42,1.58v3.06h-1v-6h1v1.24h0a2.08,2.08,0,0,1,.62-1,1.63,1.63,0,0,1,1.52-.27Z" fill="#1e1e1e"/>
      <path d="M297,223.6a.59.59,0,0,1-.44-.18.57.57,0,0,1-.18-.44.61.61,0,0,1,.18-.45.59.59,0,0,1,.44-.18.6.6,0,0,1,.44.18.58.58,0,0,1,.19.45.58.58,0,0,1-.19.44A.6.6,0,0,1,297,223.6Zm.47,7.52h-1v-6h1Z" fill="#1e1e1e"/>
      <path d="M304.15,225.12l-2.39,6h-.95l-2.27-6h1l1.53,4.36a4.27,4.27,0,0,1,.21.84h0a3.94,3.94,0,0,1,.19-.82l1.59-4.38Z" fill="#1e1e1e"/>
      <path d="M309.47,231.12h-1v-.94h0a2.2,2.2,0,0,1-3.25.61,1.65,1.65,0,0,1-.51-1.26c0-1.12.66-1.78,2-2l1.8-.25q0-1.53-1.23-1.53a3,3,0,0,0-2,.74v-1a3.76,3.76,0,0,1,2-.56c1.41,0,2.11.75,2.11,2.24Zm-1-3-1.44.2a2.25,2.25,0,0,0-1,.33,1,1,0,0,0-.34.84.92.92,0,0,0,.31.72,1.25,1.25,0,0,0,.84.27,1.53,1.53,0,0,0,1.18-.5,1.77,1.77,0,0,0,.46-1.27Z" fill="#1e1e1e"/>
      <path d="M314.07,231.06a1.82,1.82,0,0,1-.9.19c-1.05,0-1.58-.58-1.58-1.76v-3.55h-1v-.82h1v-1.46l1-.31v1.77h1.51v.82h-1.51v3.38a1.36,1.36,0,0,0,.2.86.8.8,0,0,0,.68.26,1,1,0,0,0,.63-.2Z" fill="#1e1e1e"/>
      <path d="M320.17,228.36h-4.23a2.19,2.19,0,0,0,.54,1.55,1.85,1.85,0,0,0,1.41.54,3,3,0,0,0,1.87-.66v.9a3.52,3.52,0,0,1-2.09.57,2.54,2.54,0,0,1-2-.81,3.85,3.85,0,0,1,.06-4.59,2.58,2.58,0,0,1,2-.88,2.28,2.28,0,0,1,1.82.76,3.19,3.19,0,0,1,.64,2.12Zm-1-.81a2,2,0,0,0-.4-1.3,1.37,1.37,0,0,0-1.1-.46,1.56,1.56,0,0,0-1.16.49,2.18,2.18,0,0,0-.58,1.27Z" fill="#1e1e1e"/>
      <path d="M326,231.12h-1v-8.4h1Z" fill="#1e1e1e"/>
      <path d="M329.22,228v3.17h-1v-8.4h2.3a3,3,0,0,1,2.09.66,2.31,2.31,0,0,1,.74,1.85,2.52,2.52,0,0,1-.82,2,3.14,3.14,0,0,1-2.22.77Zm0-4.34v3.45h1a2.33,2.33,0,0,0,1.56-.47,1.67,1.67,0,0,0,.53-1.32c0-1.1-.65-1.66-2-1.66Z" fill="#1e1e1e"/>
      <path d="M335.71,229.79l-.94,2.88h-.69l.69-2.88Z" fill="#1e1e1e"/>
      <path d="M301.35,243.46h0v3.62h-1v-8.76h1v1.06h0a2.29,2.29,0,0,1,2.08-1.2,2.2,2.2,0,0,1,1.81.81,3.33,3.33,0,0,1,.65,2.16,3.78,3.78,0,0,1-.73,2.41,2.46,2.46,0,0,1-2,.9A2,2,0,0,1,301.35,243.46Zm0-2.42v.83a1.81,1.81,0,0,0,.48,1.27,1.75,1.75,0,0,0,2.6-.15,3.09,3.09,0,0,0,.49-1.86,2.41,2.41,0,0,0-.46-1.57,1.53,1.53,0,0,0-1.25-.57,1.7,1.7,0,0,0-1.35.58A2.16,2.16,0,0,0,301.33,241Z" fill="#1e1e1e"/>
      <path d="M309.93,244.46a2.77,2.77,0,0,1-2.12-.84,3.11,3.11,0,0,1-.8-2.23,3.25,3.25,0,0,1,.83-2.36,3,3,0,0,1,2.23-.85,2.71,2.71,0,0,1,2.1.83,3.27,3.27,0,0,1,.75,2.29,3.23,3.23,0,0,1-.81,2.3A2.87,2.87,0,0,1,309.93,244.46ZM310,239a1.81,1.81,0,0,0-1.46.63,2.59,2.59,0,0,0-.54,1.74,2.46,2.46,0,0,0,.54,1.68,1.86,1.86,0,0,0,1.46.61,1.75,1.75,0,0,0,1.43-.6,2.58,2.58,0,0,0,.5-1.72,2.62,2.62,0,0,0-.5-1.73A1.73,1.73,0,0,0,310,239Z" fill="#1e1e1e"/>
      <path d="M317.58,239.29a1.29,1.29,0,0,0-1.75.39,2.67,2.67,0,0,0-.41,1.58v3.06h-1v-6h1v1.24h0a2.09,2.09,0,0,1,.63-1,1.39,1.39,0,0,1,.94-.35,1.44,1.44,0,0,1,.57.08Z" fill="#1e1e1e"/>
      <path d="M321.41,244.26a1.82,1.82,0,0,1-.9.19c-1.05,0-1.57-.58-1.57-1.76v-3.55h-1v-.82h1v-1.46l1-.31v1.77h1.51v.82H319.9v3.38a1.43,1.43,0,0,0,.2.86.81.81,0,0,0,.68.26,1,1,0,0,0,.63-.2Z" fill="#1e1e1e"/>
    </g>
    <g>
      <path d="M308.68,281.43l-3.11,8.4h-1.09l-3-8.4h1.09l2.33,6.66a4.27,4.27,0,0,1,.17.74h0a4.13,4.13,0,0,1,.19-.75l2.38-6.65Z" fill="#1e1e1e"/>
      <path d="M318.45,289.83h-1v-5.64c0-.44,0-1,.08-1.63h0a5.05,5.05,0,0,1-.25.81l-2.87,6.46h-.48l-2.87-6.41a6,6,0,0,1-.25-.86h0c0,.33,0,.88,0,1.64v5.63h-.95v-8.4h1.31l2.57,5.86a7.37,7.37,0,0,1,.39,1h0c.16-.46.3-.8.4-1l2.63-5.83h1.23Z" fill="#1e1e1e"/>
    </g>
    <g>
      <path d="M125.68,206.32a2.82,2.82,0,0,1-.21,1.11,2.47,2.47,0,0,1-.6.86,2.91,2.91,0,0,1-.94.55,4,4,0,0,1-1.23.19,3.44,3.44,0,0,1-1.74-.35v-1a3.19,3.19,0,0,0,1.75.55,2.41,2.41,0,0,0,.83-.14,1.83,1.83,0,0,0,.62-.37,1.72,1.72,0,0,0,.4-.58,2,2,0,0,0,.13-.74,1.59,1.59,0,0,0-.55-1.29,2.41,2.41,0,0,0-1.6-.47h-.73l-.37,0-.32,0,.29-4.21h3.88v.87h-3.05l-.17,2.46.4,0h.37a3.7,3.7,0,0,1,1.2.17,2.65,2.65,0,0,1,.89.5,2.18,2.18,0,0,1,.56.8A2.94,2.94,0,0,1,125.68,206.32Z" fill="#1e1e1e"/>
      <path d="M130.51,205.92h-3.2v-.76h3.2Z" fill="#1e1e1e"/>
      <path d="M135,208.82a1.76,1.76,0,0,1-.89.19c-1,0-1.58-.58-1.58-1.76V203.7h-1v-.82h1v-1.46l1-.31v1.77H135v.82h-1.51v3.38a1.41,1.41,0,0,0,.21.87.81.81,0,0,0,.68.25.94.94,0,0,0,.62-.2Z" fill="#1e1e1e"/>
      <path d="M141.16,208.88h-1v-.95h0a2,2,0,0,1-1.85,1.09c-1.43,0-2.14-.85-2.14-2.55v-3.59h.95v3.44c0,1.26.49,1.89,1.46,1.89a1.47,1.47,0,0,0,1.15-.51,2,2,0,0,0,.46-1.36v-3.46h1Z" fill="#1e1e1e"/>
      <path d="M144.08,208h0v3.62h-1v-8.76h1v1.06h0a2.28,2.28,0,0,1,2.08-1.2,2.2,2.2,0,0,1,1.81.81,3.33,3.33,0,0,1,.65,2.16,3.73,3.73,0,0,1-.74,2.41,2.42,2.42,0,0,1-2,.9A2,2,0,0,1,144.08,208Zm0-2.42v.83a1.81,1.81,0,0,0,.48,1.27,1.75,1.75,0,0,0,2.6-.15,3.09,3.09,0,0,0,.49-1.86,2.41,2.41,0,0,0-.46-1.57,1.53,1.53,0,0,0-1.25-.57,1.73,1.73,0,0,0-1.35.58A2.16,2.16,0,0,0,144.06,205.6Z" fill="#1e1e1e"/>
      <path d="M151.11,208.88h-1V200h1Z" fill="#1e1e1e"/>
      <path d="M157.88,206.12h-4.24a2.28,2.28,0,0,0,.54,1.55,1.88,1.88,0,0,0,1.42.54,2.94,2.94,0,0,0,1.86-.66v.9a3.47,3.47,0,0,1-2.09.57,2.53,2.53,0,0,1-2-.81,3.34,3.34,0,0,1-.73-2.3,3.29,3.29,0,0,1,.79-2.29,2.58,2.58,0,0,1,2-.88,2.29,2.29,0,0,1,1.83.76,3.19,3.19,0,0,1,.64,2.12Zm-1-.81a2,2,0,0,0-.4-1.3,1.4,1.4,0,0,0-1.1-.46,1.54,1.54,0,0,0-1.16.49,2.21,2.21,0,0,0-.58,1.27Z" fill="#1e1e1e"/>
      <path d="M167.6,208.88h-1v-3.45c0-1.25-.46-1.88-1.39-1.88a1.53,1.53,0,0,0-1.19.54,2,2,0,0,0-.48,1.39v3.4h-1V200h1v3.88h0a2.17,2.17,0,0,1,2-1.14c1.36,0,2,.82,2,2.45Z" fill="#1e1e1e"/>
      <path d="M173.71,208.88h-1V208h0a2,2,0,0,1-1.84,1.07,2,2,0,0,1-1.41-.47,1.68,1.68,0,0,1-.5-1.26c0-1.12.66-1.77,2-2l1.8-.25c0-1-.42-1.53-1.24-1.53a3,3,0,0,0-2,.74v-1a3.76,3.76,0,0,1,2-.56c1.41,0,2.12.75,2.12,2.24Zm-1-3-1.45.2a2.3,2.3,0,0,0-1,.33,1,1,0,0,0-.34.84,1,1,0,0,0,.31.72,1.25,1.25,0,0,0,.84.27,1.51,1.51,0,0,0,1.18-.5,1.77,1.77,0,0,0,.47-1.26Z" fill="#1e1e1e"/>
      <path d="M175.15,208.67v-1a2.84,2.84,0,0,0,1.73.58c.85,0,1.27-.28,1.27-.84A.78.78,0,0,0,178,207a1,1,0,0,0-.29-.29,1.83,1.83,0,0,0-.44-.23l-.53-.22a5.16,5.16,0,0,1-.7-.32,2.21,2.21,0,0,1-.51-.36,1.41,1.41,0,0,1-.3-.46,1.57,1.57,0,0,1-.1-.6,1.44,1.44,0,0,1,.19-.75,1.7,1.7,0,0,1,.52-.55,2.57,2.57,0,0,1,.73-.33,3.59,3.59,0,0,1,2.25.16v1a2.79,2.79,0,0,0-1.53-.43,1.75,1.75,0,0,0-.48.06,1,1,0,0,0-.37.18.66.66,0,0,0-.24.26.69.69,0,0,0-.09.34.82.82,0,0,0,.09.4.9.9,0,0,0,.24.28,2.48,2.48,0,0,0,.4.22l.54.22a6.85,6.85,0,0,1,.71.31,2.82,2.82,0,0,1,.54.36,1.41,1.41,0,0,1,.34.47,1.54,1.54,0,0,1,.12.63,1.49,1.49,0,0,1-.19.77,1.74,1.74,0,0,1-.53.55,2.54,2.54,0,0,1-.75.32,3.82,3.82,0,0,1-.9.1A3.54,3.54,0,0,1,175.15,208.67Z" fill="#1e1e1e"/>
      <path d="M185.59,208.88h-1v-3.45c0-1.25-.47-1.88-1.4-1.88a1.53,1.53,0,0,0-1.18.54,2,2,0,0,0-.48,1.39v3.4h-1V200h1v3.88h0a2.18,2.18,0,0,1,2-1.14c1.35,0,2,.82,2,2.45Z" fill="#1e1e1e"/>
      <path d="M122.45,219.69a1.43,1.43,0,0,1-1-.43,1.39,1.39,0,0,1-.44-1,1.47,1.47,0,0,1,.44-1,1.44,1.44,0,0,1,1-.44,1.41,1.41,0,0,1,1,.44,1.46,1.46,0,0,1,.42,1,1.45,1.45,0,0,1-1.46,1.46Z" fill="#1e1e1e"/>
      <path d="M132.16,221.74v-1.16a1.91,1.91,0,0,0,.48.32,5,5,0,0,0,.58.24c.21.06.41.11.62.15a4.13,4.13,0,0,0,.57.05,2.22,2.22,0,0,0,1.36-.34,1.14,1.14,0,0,0,.45-1,1.15,1.15,0,0,0-.15-.59,1.76,1.76,0,0,0-.41-.46,4.57,4.57,0,0,0-.63-.4l-.77-.4c-.3-.15-.57-.3-.82-.45a3.54,3.54,0,0,1-.67-.5,2.47,2.47,0,0,1-.44-.63,2.13,2.13,0,0,1,.09-1.81,2.24,2.24,0,0,1,.66-.71,3.19,3.19,0,0,1,.94-.41,4.24,4.24,0,0,1,1.07-.13,4.08,4.08,0,0,1,1.81.3V215a3.24,3.24,0,0,0-1.91-.52,2.88,2.88,0,0,0-.65.07,1.78,1.78,0,0,0-.57.22,1.18,1.18,0,0,0-.41.39,1,1,0,0,0-.16.59,1.18,1.18,0,0,0,.12.55,1.31,1.31,0,0,0,.36.43,3.51,3.51,0,0,0,.57.38l.77.39c.3.15.59.31.86.47a4.46,4.46,0,0,1,.71.55,2.53,2.53,0,0,1,.48.66,1.84,1.84,0,0,1,.18.83,2.09,2.09,0,0,1-.24,1,2,2,0,0,1-.66.7,2.8,2.8,0,0,1-.95.39,5.24,5.24,0,0,1-1.14.12l-.49,0-.6-.09a5.47,5.47,0,0,1-.58-.15A1.91,1.91,0,0,1,132.16,221.74Z" fill="#1e1e1e"/>
      <path d="M141.3,222.22a2.79,2.79,0,0,1-2.12-.84,3.1,3.1,0,0,1-.79-2.23,3.26,3.26,0,0,1,.82-2.36,3,3,0,0,1,2.24-.85,2.69,2.69,0,0,1,2.09.83,3.27,3.27,0,0,1,.75,2.29,3.23,3.23,0,0,1-.81,2.3A2.83,2.83,0,0,1,141.3,222.22Zm.08-5.47a1.84,1.84,0,0,0-1.47.63,2.59,2.59,0,0,0-.54,1.74,2.41,2.41,0,0,0,.55,1.68,1.85,1.85,0,0,0,1.46.62,1.77,1.77,0,0,0,1.43-.61,2.63,2.63,0,0,0,.5-1.72,2.68,2.68,0,0,0-.5-1.73A1.74,1.74,0,0,0,141.38,216.75Z" fill="#1e1e1e"/>
      <path d="M150.68,222.08h-1v-1h0a2,2,0,0,1-1.86,1.09c-1.43,0-2.14-.85-2.14-2.55v-3.59h1v3.44c0,1.26.49,1.9,1.46,1.9a1.47,1.47,0,0,0,1.15-.52,2,2,0,0,0,.46-1.36v-3.46h1Z" fill="#1e1e1e"/>
      <path d="M155.75,217.06a1.18,1.18,0,0,0-.73-.2,1.25,1.25,0,0,0-1,.58,2.74,2.74,0,0,0-.41,1.58v3.06h-1v-6h1v1.24h0a2.17,2.17,0,0,1,.63-1,1.46,1.46,0,0,1,.94-.35,1.49,1.49,0,0,1,.58.08Z" fill="#1e1e1e"/>
      <path d="M160.88,221.81a3.19,3.19,0,0,1-1.64.41,2.68,2.68,0,0,1-2.07-.83,3,3,0,0,1-.79-2.17,3.32,3.32,0,0,1,.85-2.38,3,3,0,0,1,2.27-.9,3.06,3.06,0,0,1,1.39.3v1a2.45,2.45,0,0,0-1.43-.47,2,2,0,0,0-1.51.66,2.51,2.51,0,0,0-.58,1.73,2.4,2.4,0,0,0,.55,1.67,1.92,1.92,0,0,0,1.48.61,2.4,2.4,0,0,0,1.48-.53Z" fill="#1e1e1e"/>
      <path d="M167.16,219.32h-4.24a2.28,2.28,0,0,0,.54,1.55,1.87,1.87,0,0,0,1.42.55,3,3,0,0,0,1.86-.67v.9a3.5,3.5,0,0,1-2.09.57,2.54,2.54,0,0,1-2-.81,3.39,3.39,0,0,1-.73-2.3,3.29,3.29,0,0,1,.8-2.29,2.56,2.56,0,0,1,2-.88,2.28,2.28,0,0,1,1.82.76,3.2,3.2,0,0,1,.65,2.12Zm-1-.81a2,2,0,0,0-.4-1.3,1.39,1.39,0,0,0-1.1-.46,1.52,1.52,0,0,0-1.15.49,2.22,2.22,0,0,0-.59,1.27Z" fill="#1e1e1e"/>
      <path d="M173,222.08h-1v-8.4h1Z" fill="#1e1e1e"/>
      <path d="M176.2,218.91v3.17h-1v-8.4h2.31a3,3,0,0,1,2.09.66,2.34,2.34,0,0,1,.74,1.85,2.55,2.55,0,0,1-.83,2,3.16,3.16,0,0,1-2.22.76Zm0-4.34V218h1a2.33,2.33,0,0,0,1.56-.47,1.64,1.64,0,0,0,.54-1.31c0-1.11-.66-1.67-2-1.67Z" fill="#1e1e1e"/>
      <path d="M122.45,232.89a1.43,1.43,0,0,1-1-.43,1.39,1.39,0,0,1-.44-1,1.47,1.47,0,0,1,.44-1.05,1.44,1.44,0,0,1,1-.44,1.41,1.41,0,0,1,1,.44,1.46,1.46,0,0,1,.42,1.05,1.45,1.45,0,0,1-1.46,1.46Z" fill="#1e1e1e"/>
      <path d="M132.16,234.94v-1.16a1.91,1.91,0,0,0,.48.32,5,5,0,0,0,.58.24c.21.06.41.11.62.15a4.13,4.13,0,0,0,.57,0,2.22,2.22,0,0,0,1.36-.34,1.14,1.14,0,0,0,.45-1,1.15,1.15,0,0,0-.15-.59,1.76,1.76,0,0,0-.41-.46,4.57,4.57,0,0,0-.63-.4l-.77-.4c-.3-.15-.57-.3-.82-.45a3.54,3.54,0,0,1-.67-.5,2.47,2.47,0,0,1-.44-.63,2.13,2.13,0,0,1,.09-1.81,2.11,2.11,0,0,1,.66-.7,2.75,2.75,0,0,1,.94-.41,4.24,4.24,0,0,1,1.07-.14,4.08,4.08,0,0,1,1.81.3v1.11a3.24,3.24,0,0,0-1.91-.52,2.88,2.88,0,0,0-.65.07,1.78,1.78,0,0,0-.57.22,1.18,1.18,0,0,0-.41.39,1,1,0,0,0-.16.59,1.18,1.18,0,0,0,.12.55,1.31,1.31,0,0,0,.36.43,3.51,3.51,0,0,0,.57.38l.77.39c.3.15.59.31.86.47a4.46,4.46,0,0,1,.71.55,2.53,2.53,0,0,1,.48.66,1.84,1.84,0,0,1,.18.83,2.09,2.09,0,0,1-.24,1.05,2,2,0,0,1-.66.7,2.8,2.8,0,0,1-.95.39,5.24,5.24,0,0,1-1.14.12l-.49,0c-.2,0-.39,0-.6-.09a5.47,5.47,0,0,1-.58-.15A1.91,1.91,0,0,1,132.16,234.94Z" fill="#1e1e1e"/>
      <path d="M141.3,235.42a2.79,2.79,0,0,1-2.12-.84,3.1,3.1,0,0,1-.79-2.23,3.26,3.26,0,0,1,.82-2.36,3,3,0,0,1,2.24-.85,2.69,2.69,0,0,1,2.09.83,3.27,3.27,0,0,1,.75,2.29,3.23,3.23,0,0,1-.81,2.3A2.83,2.83,0,0,1,141.3,235.42Zm.08-5.47a1.84,1.84,0,0,0-1.47.63,2.59,2.59,0,0,0-.54,1.74,2.41,2.41,0,0,0,.55,1.68,1.85,1.85,0,0,0,1.46.62,1.77,1.77,0,0,0,1.43-.61,2.63,2.63,0,0,0,.5-1.72,2.68,2.68,0,0,0-.5-1.73A1.74,1.74,0,0,0,141.38,230Z" fill="#1e1e1e"/>
      <path d="M150.68,235.28h-1v-.95h0a2,2,0,0,1-1.86,1.09c-1.43,0-2.14-.85-2.14-2.55v-3.59h1v3.44c0,1.26.49,1.9,1.46,1.9a1.47,1.47,0,0,0,1.15-.52,2,2,0,0,0,.46-1.36v-3.46h1Z" fill="#1e1e1e"/>
      <path d="M155.75,230.26a1.18,1.18,0,0,0-.73-.2,1.25,1.25,0,0,0-1,.58,2.74,2.74,0,0,0-.41,1.58v3.06h-1v-6h1v1.24h0a2.17,2.17,0,0,1,.63-1,1.46,1.46,0,0,1,.94-.35,1.71,1.71,0,0,1,.58.08Z" fill="#1e1e1e"/>
      <path d="M160.88,235a3.1,3.1,0,0,1-1.64.41,2.68,2.68,0,0,1-2.07-.83,3,3,0,0,1-.79-2.17,3.32,3.32,0,0,1,.85-2.38,3,3,0,0,1,2.27-.9,3.06,3.06,0,0,1,1.39.3v1a2.45,2.45,0,0,0-1.43-.47,2,2,0,0,0-1.51.66,2.51,2.51,0,0,0-.58,1.73,2.4,2.4,0,0,0,.55,1.67,1.92,1.92,0,0,0,1.48.61,2.4,2.4,0,0,0,1.48-.53Z" fill="#1e1e1e"/>
      <path d="M167.16,232.52h-4.24a2.28,2.28,0,0,0,.54,1.55,1.87,1.87,0,0,0,1.42.55,3,3,0,0,0,1.86-.67v.9a3.5,3.5,0,0,1-2.09.57,2.54,2.54,0,0,1-2-.81,3.39,3.39,0,0,1-.73-2.3,3.29,3.29,0,0,1,.8-2.29,2.56,2.56,0,0,1,2-.88,2.28,2.28,0,0,1,1.82.76,3.2,3.2,0,0,1,.65,2.12Zm-1-.81a2,2,0,0,0-.4-1.3,1.39,1.39,0,0,0-1.1-.46,1.52,1.52,0,0,0-1.15.49,2.22,2.22,0,0,0-.59,1.27Z" fill="#1e1e1e"/>
      <path d="M173,232.11v3.17h-1v-8.4h2.3a3,3,0,0,1,2.09.66,2.31,2.31,0,0,1,.74,1.85,2.54,2.54,0,0,1-.82,2,3.18,3.18,0,0,1-2.22.76Zm0-4.34v3.45h1a2.33,2.33,0,0,0,1.56-.47,1.67,1.67,0,0,0,.53-1.31c0-1.11-.65-1.67-2-1.67Z" fill="#1e1e1e"/>
      <path d="M180.68,235.42a2.76,2.76,0,0,1-2.12-.84,3.11,3.11,0,0,1-.8-2.23,3.26,3.26,0,0,1,.83-2.36,3,3,0,0,1,2.23-.85,2.73,2.73,0,0,1,2.1.83,3.27,3.27,0,0,1,.75,2.29,3.23,3.23,0,0,1-.81,2.3A2.83,2.83,0,0,1,180.68,235.42Zm.07-5.47a1.8,1.8,0,0,0-1.46.63,2.59,2.59,0,0,0-.54,1.74,2.46,2.46,0,0,0,.54,1.68,1.85,1.85,0,0,0,1.46.62,1.76,1.76,0,0,0,1.43-.61,2.58,2.58,0,0,0,.5-1.72,2.62,2.62,0,0,0-.5-1.73A1.73,1.73,0,0,0,180.75,230Z" fill="#1e1e1e"/>
      <path d="M188.33,230.26a1.16,1.16,0,0,0-.72-.2,1.24,1.24,0,0,0-1,.58,2.67,2.67,0,0,0-.42,1.58v3.06h-1v-6h1v1.24h0a2.08,2.08,0,0,1,.62-1,1.49,1.49,0,0,1,.95-.35,1.65,1.65,0,0,1,.57.08Z" fill="#1e1e1e"/>
      <path d="M192.16,235.22a1.82,1.82,0,0,1-.9.19c-1,0-1.57-.58-1.57-1.76V230.1h-1v-.82h1v-1.46l1-.31v1.77h1.51v.82h-1.51v3.38a1.41,1.41,0,0,0,.2.87.82.82,0,0,0,.68.25,1,1,0,0,0,.63-.2Z" fill="#1e1e1e"/>
      <path d="M122.45,246.09a1.43,1.43,0,0,1-1-.43,1.39,1.39,0,0,1-.44-1,1.45,1.45,0,0,1,.44-1,1.44,1.44,0,0,1,1-.44,1.41,1.41,0,0,1,1,.44,1.46,1.46,0,0,1,.42,1,1.45,1.45,0,0,1-1.46,1.46Z" fill="#1e1e1e"/>
      <path d="M132.55,248.48v-8.4h2.32q4.44,0,4.44,4.1a4.13,4.13,0,0,1-1.23,3.12,4.55,4.55,0,0,1-3.3,1.18Zm1-7.51v6.62h1.25a3.55,3.55,0,0,0,2.57-.88,3.34,3.34,0,0,0,.92-2.51q0-3.22-3.43-3.23Z" fill="#1e1e1e"/>
      <path d="M145.66,245.72h-4.24a2.28,2.28,0,0,0,.54,1.55,1.87,1.87,0,0,0,1.42.54,3,3,0,0,0,1.86-.66v.9a3.5,3.5,0,0,1-2.09.57,2.56,2.56,0,0,1-2-.81,3.39,3.39,0,0,1-.72-2.3,3.29,3.29,0,0,1,.79-2.29,2.58,2.58,0,0,1,2-.88,2.27,2.27,0,0,1,1.82.76,3.2,3.2,0,0,1,.65,2.12Zm-1-.81a1.91,1.91,0,0,0-.4-1.3,1.36,1.36,0,0,0-1.1-.46,1.54,1.54,0,0,0-1.15.49,2.19,2.19,0,0,0-.59,1.27Z" fill="#1e1e1e"/>
      <path d="M146.75,248.27v-1a2.82,2.82,0,0,0,1.73.58q1.26,0,1.26-.84a.68.68,0,0,0-.11-.41,1,1,0,0,0-.29-.29,1.76,1.76,0,0,0-.43-.23l-.54-.22a5.79,5.79,0,0,1-.7-.32,2,2,0,0,1-.5-.36,1.38,1.38,0,0,1-.31-.46,1.57,1.57,0,0,1-.1-.6,1.42,1.42,0,0,1,.19-.75,1.7,1.7,0,0,1,.52-.55,2.71,2.71,0,0,1,.73-.33,3.49,3.49,0,0,1,.86-.11,3.41,3.41,0,0,1,1.39.27v1a2.7,2.7,0,0,0-1.52-.43,1.88,1.88,0,0,0-.49.06,1.26,1.26,0,0,0-.37.17,1,1,0,0,0-.24.27.67.67,0,0,0-.09.34.82.82,0,0,0,.09.4.94.94,0,0,0,.25.28,2.11,2.11,0,0,0,.4.22l.53.22a6,6,0,0,1,.71.31,2.3,2.3,0,0,1,.54.36,1.45,1.45,0,0,1,.35.47,1.64,1.64,0,0,1-.08,1.4,1.82,1.82,0,0,1-.52.55,2.49,2.49,0,0,1-.76.32,3.76,3.76,0,0,1-.9.1A3.49,3.49,0,0,1,146.75,248.27Z" fill="#1e1e1e"/>
      <path d="M155,248.42a1.82,1.82,0,0,1-.9.19c-1.05,0-1.58-.58-1.58-1.76V243.3h-1v-.82h1V241l1-.31v1.77H155v.82h-1.52v3.38a1.35,1.35,0,0,0,.21.86.8.8,0,0,0,.68.26,1,1,0,0,0,.63-.2Z" fill="#1e1e1e"/>
      <path d="M156.76,241a.6.6,0,0,1-.44-.18.57.57,0,0,1-.18-.44.61.61,0,0,1,.18-.45.6.6,0,0,1,.44-.18.62.62,0,0,1,.63.63.6.6,0,0,1-.18.44A.61.61,0,0,1,156.76,241Zm.47,7.52h-1v-6h1Z" fill="#1e1e1e"/>
      <path d="M164.16,248.48h-1v-3.42c0-1.27-.47-1.91-1.4-1.91a1.5,1.5,0,0,0-1.19.54,2,2,0,0,0-.47,1.37v3.42h-1v-6h1v1h0a2.16,2.16,0,0,1,2-1.14,1.79,1.79,0,0,1,1.5.64,2.79,2.79,0,0,1,.53,1.83Z" fill="#1e1e1e"/>
      <path d="M170.26,248.48h-1v-.94h0a2,2,0,0,1-1.85,1.08,2,2,0,0,1-1.4-.47,1.65,1.65,0,0,1-.51-1.26c0-1.12.66-1.77,2-2l1.8-.25c0-1-.41-1.53-1.24-1.53a3,3,0,0,0-1.95.74v-1a3.76,3.76,0,0,1,2-.56c1.41,0,2.11.75,2.11,2.24Zm-1-3-1.45.2a2.25,2.25,0,0,0-1,.33,1,1,0,0,0-.34.84.92.92,0,0,0,.31.72,1.24,1.24,0,0,0,.83.27,1.51,1.51,0,0,0,1.18-.5,1.74,1.74,0,0,0,.47-1.27Z" fill="#1e1e1e"/>
      <path d="M174.86,248.42a1.82,1.82,0,0,1-.9.19c-1.05,0-1.58-.58-1.58-1.76V243.3h-1v-.82h1V241l1-.31v1.77h1.52v.82h-1.52v3.38a1.35,1.35,0,0,0,.21.86.8.8,0,0,0,.68.26,1,1,0,0,0,.63-.2Z" fill="#1e1e1e"/>
      <path d="M176.63,241a.6.6,0,0,1-.44-.18.57.57,0,0,1-.18-.44.61.61,0,0,1,.18-.45.6.6,0,0,1,.44-.18.62.62,0,0,1,.63.63.6.6,0,0,1-.18.44A.61.61,0,0,1,176.63,241Zm.47,7.52h-1v-6h1Z" fill="#1e1e1e"/>
      <path d="M181.55,248.62a2.79,2.79,0,0,1-2.12-.84,3.11,3.11,0,0,1-.8-2.23,3.25,3.25,0,0,1,.83-2.36,3,3,0,0,1,2.23-.85,2.7,2.7,0,0,1,2.1.83,3.27,3.27,0,0,1,.75,2.29,3.23,3.23,0,0,1-.81,2.3A2.87,2.87,0,0,1,181.55,248.62Zm.07-5.47a1.83,1.83,0,0,0-1.46.63,2.59,2.59,0,0,0-.54,1.74,2.46,2.46,0,0,0,.54,1.68,1.86,1.86,0,0,0,1.46.61,1.79,1.79,0,0,0,1.44-.6,2.63,2.63,0,0,0,.5-1.72,2.68,2.68,0,0,0-.5-1.73A1.76,1.76,0,0,0,181.62,243.15Z" fill="#1e1e1e"/>
      <path d="M191.06,248.48h-1v-3.42c0-1.27-.47-1.91-1.4-1.91a1.5,1.5,0,0,0-1.19.54,2,2,0,0,0-.47,1.37v3.42h-1v-6h1v1h0a2.16,2.16,0,0,1,2-1.14,1.83,1.83,0,0,1,1.51.64,2.85,2.85,0,0,1,.52,1.83Z" fill="#1e1e1e"/>
      <path d="M197.27,248.48h-1v-8.4h1Z" fill="#1e1e1e"/>
      <path d="M200.46,245.31v3.17h-1v-8.4h2.31a3,3,0,0,1,2.08.66,2.31,2.31,0,0,1,.75,1.85,2.53,2.53,0,0,1-.83,1.95,3.14,3.14,0,0,1-2.22.77Zm0-4.34v3.45h1a2.33,2.33,0,0,0,1.56-.47,1.64,1.64,0,0,0,.53-1.32c0-1.1-.65-1.66-2-1.66Z" fill="#1e1e1e"/>
      <path d="M122.45,259.29a1.43,1.43,0,0,1-1-.43,1.39,1.39,0,0,1-.44-1,1.45,1.45,0,0,1,.44-1.05,1.44,1.44,0,0,1,1-.44,1.41,1.41,0,0,1,1,.44,1.46,1.46,0,0,1,.42,1.05,1.45,1.45,0,0,1-1.46,1.46Z" fill="#1e1e1e"/>
      <path d="M132.55,261.68v-8.4h2.32q4.44,0,4.44,4.1a4.13,4.13,0,0,1-1.23,3.12,4.55,4.55,0,0,1-3.3,1.18Zm1-7.51v6.62h1.25a3.55,3.55,0,0,0,2.57-.88,3.34,3.34,0,0,0,.92-2.51q0-3.22-3.43-3.23Z" fill="#1e1e1e"/>
      <path d="M145.66,258.92h-4.24a2.28,2.28,0,0,0,.54,1.55,1.87,1.87,0,0,0,1.42.54,3,3,0,0,0,1.86-.66v.9a3.5,3.5,0,0,1-2.09.57,2.56,2.56,0,0,1-2-.81,3.39,3.39,0,0,1-.72-2.3,3.29,3.29,0,0,1,.79-2.29,2.58,2.58,0,0,1,2-.88,2.27,2.27,0,0,1,1.82.76,3.2,3.2,0,0,1,.65,2.12Zm-1-.81a1.91,1.91,0,0,0-.4-1.3,1.36,1.36,0,0,0-1.1-.46,1.54,1.54,0,0,0-1.15.49,2.19,2.19,0,0,0-.59,1.27Z" fill="#1e1e1e"/>
      <path d="M146.75,261.47v-1a2.82,2.82,0,0,0,1.73.58q1.26,0,1.26-.84a.7.7,0,0,0-.11-.41,1,1,0,0,0-.29-.29,1.76,1.76,0,0,0-.43-.23l-.54-.22a5.79,5.79,0,0,1-.7-.32,2,2,0,0,1-.5-.36,1.29,1.29,0,0,1-.31-.46,1.57,1.57,0,0,1-.1-.6,1.44,1.44,0,0,1,.19-.75,1.7,1.7,0,0,1,.52-.55,2.71,2.71,0,0,1,.73-.33,3.49,3.49,0,0,1,.86-.11,3.41,3.41,0,0,1,1.39.27v1a2.78,2.78,0,0,0-1.52-.43,1.88,1.88,0,0,0-.49.06,1.26,1.26,0,0,0-.37.17,1,1,0,0,0-.24.27.69.69,0,0,0-.09.34.82.82,0,0,0,.09.4.94.94,0,0,0,.25.28,2.11,2.11,0,0,0,.4.22l.53.22a6,6,0,0,1,.71.31,2.3,2.3,0,0,1,.54.36,1.45,1.45,0,0,1,.35.47,1.64,1.64,0,0,1-.08,1.4,1.82,1.82,0,0,1-.52.55,2.49,2.49,0,0,1-.76.32,3.76,3.76,0,0,1-.9.1A3.49,3.49,0,0,1,146.75,261.47Z" fill="#1e1e1e"/>
      <path d="M155,261.62a1.82,1.82,0,0,1-.9.19c-1.05,0-1.58-.58-1.58-1.76V256.5h-1v-.82h1v-1.46l1-.31v1.77H155v.82h-1.52v3.38a1.41,1.41,0,0,0,.21.87.82.82,0,0,0,.68.25,1,1,0,0,0,.63-.2Z" fill="#1e1e1e"/>
      <path d="M156.76,254.16a.6.6,0,0,1-.44-.18.57.57,0,0,1-.18-.44.61.61,0,0,1,.18-.45.6.6,0,0,1,.44-.18.62.62,0,0,1,.63.63.6.6,0,0,1-.18.44A.61.61,0,0,1,156.76,254.16Zm.47,7.52h-1v-6h1Z" fill="#1e1e1e"/>
      <path d="M164.16,261.68h-1v-3.42c0-1.27-.47-1.91-1.4-1.91a1.5,1.5,0,0,0-1.19.54,2,2,0,0,0-.47,1.37v3.42h-1v-6h1v1h0a2.16,2.16,0,0,1,2-1.14,1.79,1.79,0,0,1,1.5.64,2.79,2.79,0,0,1,.53,1.83Z" fill="#1e1e1e"/>
      <path d="M170.26,261.68h-1v-.93h0a2,2,0,0,1-1.85,1.07,2,2,0,0,1-1.4-.47,1.65,1.65,0,0,1-.51-1.26c0-1.12.66-1.77,2-2l1.8-.25c0-1-.41-1.53-1.24-1.53a3,3,0,0,0-1.95.74v-1a3.76,3.76,0,0,1,2-.56c1.41,0,2.11.75,2.11,2.24Zm-1-3-1.45.2a2.25,2.25,0,0,0-1,.33,1,1,0,0,0-.34.84.92.92,0,0,0,.31.72,1.24,1.24,0,0,0,.83.27,1.51,1.51,0,0,0,1.18-.5,1.73,1.73,0,0,0,.47-1.26Z" fill="#1e1e1e"/>
      <path d="M174.86,261.62a1.82,1.82,0,0,1-.9.19c-1.05,0-1.58-.58-1.58-1.76V256.5h-1v-.82h1v-1.46l1-.31v1.77h1.52v.82h-1.52v3.38a1.41,1.41,0,0,0,.21.87.82.82,0,0,0,.68.25,1,1,0,0,0,.63-.2Z" fill="#1e1e1e"/>
      <path d="M176.63,254.16a.6.6,0,0,1-.44-.18.57.57,0,0,1-.18-.44.61.61,0,0,1,.18-.45.6.6,0,0,1,.44-.18.62.62,0,0,1,.63.63.6.6,0,0,1-.18.44A.61.61,0,0,1,176.63,254.16Zm.47,7.52h-1v-6h1Z" fill="#1e1e1e"/>
      <path d="M181.55,261.82a2.79,2.79,0,0,1-2.12-.84,3.11,3.11,0,0,1-.8-2.23,3.26,3.26,0,0,1,.83-2.36,3,3,0,0,1,2.23-.85,2.7,2.7,0,0,1,2.1.83,3.27,3.27,0,0,1,.75,2.29,3.23,3.23,0,0,1-.81,2.3A2.83,2.83,0,0,1,181.55,261.82Zm.07-5.47a1.83,1.83,0,0,0-1.46.63,2.59,2.59,0,0,0-.54,1.74,2.46,2.46,0,0,0,.54,1.68,1.86,1.86,0,0,0,1.46.61,1.79,1.79,0,0,0,1.44-.6,2.63,2.63,0,0,0,.5-1.72,2.68,2.68,0,0,0-.5-1.73A1.76,1.76,0,0,0,181.62,256.35Z" fill="#1e1e1e"/>
      <path d="M191.06,261.68h-1v-3.42c0-1.27-.47-1.91-1.4-1.91a1.5,1.5,0,0,0-1.19.54,2,2,0,0,0-.47,1.37v3.42h-1v-6h1v1h0a2.16,2.16,0,0,1,2-1.14,1.83,1.83,0,0,1,1.51.64,2.85,2.85,0,0,1,.52,1.83Z" fill="#1e1e1e"/>
      <path d="M197.27,258.51v3.17h-1v-8.4h2.31a3,3,0,0,1,2.09.66,2.34,2.34,0,0,1,.74,1.85,2.56,2.56,0,0,1-.82,2,3.18,3.18,0,0,1-2.22.76Zm0-4.34v3.45h1a2.28,2.28,0,0,0,1.55-.47,1.65,1.65,0,0,0,.54-1.32c0-1.1-.66-1.66-2-1.66Z" fill="#1e1e1e"/>
      <path d="M204.94,261.82a2.79,2.79,0,0,1-2.13-.84,3.1,3.1,0,0,1-.79-2.23,3.22,3.22,0,0,1,.83-2.36,3,3,0,0,1,2.23-.85,2.69,2.69,0,0,1,2.09.83,3.28,3.28,0,0,1,.76,2.29,3.19,3.19,0,0,1-.82,2.3A2.81,2.81,0,0,1,204.94,261.82Zm.07-5.47a1.84,1.84,0,0,0-1.47.63,2.59,2.59,0,0,0-.54,1.74,2.46,2.46,0,0,0,.55,1.68A1.85,1.85,0,0,0,205,261a1.75,1.75,0,0,0,1.43-.6,2.63,2.63,0,0,0,.5-1.72,2.68,2.68,0,0,0-.5-1.73A1.73,1.73,0,0,0,205,256.35Z" fill="#1e1e1e"/>
      <path d="M212.59,256.66a1.18,1.18,0,0,0-.73-.2,1.25,1.25,0,0,0-1,.58,2.74,2.74,0,0,0-.41,1.58v3.06h-1v-6h1v1.24h0a2.08,2.08,0,0,1,.62-1,1.47,1.47,0,0,1,1-.35,1.44,1.44,0,0,1,.57.08Z" fill="#1e1e1e"/>
      <path d="M216.42,261.62a1.82,1.82,0,0,1-.9.19c-1.05,0-1.58-.58-1.58-1.76V256.5h-1v-.82h1v-1.46l1-.31v1.77h1.52v.82H214.9v3.38a1.41,1.41,0,0,0,.21.87.82.82,0,0,0,.68.25,1,1,0,0,0,.63-.2Z" fill="#1e1e1e"/>
      <path d="M122.45,272.49a1.43,1.43,0,0,1-1-.43,1.39,1.39,0,0,1-.44-1,1.47,1.47,0,0,1,.44-1,1.44,1.44,0,0,1,1-.44,1.41,1.41,0,0,1,1,.44,1.46,1.46,0,0,1,.42,1,1.45,1.45,0,0,1-1.46,1.46Z" fill="#1e1e1e"/>
      <path d="M133.54,271.71v3.17h-1v-8.4h2.31a3,3,0,0,1,2.09.66,2.34,2.34,0,0,1,.74,1.85,2.54,2.54,0,0,1-.82,2,3.19,3.19,0,0,1-2.23.76Zm0-4.34v3.45h1a2.3,2.3,0,0,0,1.55-.47,1.64,1.64,0,0,0,.54-1.31c0-1.11-.66-1.67-2-1.67Z" fill="#1e1e1e"/>
      <path d="M142.27,269.86a1.18,1.18,0,0,0-.73-.2,1.22,1.22,0,0,0-1,.58,2.67,2.67,0,0,0-.42,1.58v3.06h-1v-6h1v1.24h0a2.08,2.08,0,0,1,.62-1,1.49,1.49,0,0,1,.95-.35,1.44,1.44,0,0,1,.57.08Z" fill="#1e1e1e"/>
      <path d="M145.82,275a2.79,2.79,0,0,1-2.12-.84,3.11,3.11,0,0,1-.8-2.23,3.26,3.26,0,0,1,.83-2.36,3,3,0,0,1,2.23-.85,2.7,2.7,0,0,1,2.1.83,3.27,3.27,0,0,1,.75,2.29,3.23,3.23,0,0,1-.81,2.3A2.83,2.83,0,0,1,145.82,275Zm.07-5.47a1.83,1.83,0,0,0-1.46.63,2.59,2.59,0,0,0-.54,1.74,2.46,2.46,0,0,0,.54,1.68,1.86,1.86,0,0,0,1.46.61,1.79,1.79,0,0,0,1.44-.6,2.63,2.63,0,0,0,.5-1.72,2.68,2.68,0,0,0-.5-1.73A1.76,1.76,0,0,0,145.89,269.55Z" fill="#1e1e1e"/>
      <path d="M153.13,274.82a1.82,1.82,0,0,1-.9.19c-1,0-1.57-.58-1.57-1.76V269.7h-1v-.82h1v-1.46l1-.31v1.77h1.51v.82h-1.51v3.38a1.49,1.49,0,0,0,.2.87.83.83,0,0,0,.68.25,1,1,0,0,0,.63-.2Z" fill="#1e1e1e"/>
      <path d="M156.92,275a2.77,2.77,0,0,1-2.12-.84A3.11,3.11,0,0,1,154,272a3.26,3.26,0,0,1,.83-2.36,3,3,0,0,1,2.23-.85,2.71,2.71,0,0,1,2.1.83,3.27,3.27,0,0,1,.75,2.29,3.23,3.23,0,0,1-.81,2.3A2.83,2.83,0,0,1,156.92,275Zm.07-5.47a1.8,1.8,0,0,0-1.46.63,2.59,2.59,0,0,0-.54,1.74,2.46,2.46,0,0,0,.54,1.68,1.85,1.85,0,0,0,1.46.61,1.75,1.75,0,0,0,1.43-.6,2.58,2.58,0,0,0,.5-1.72,2.62,2.62,0,0,0-.5-1.73A1.73,1.73,0,0,0,157,269.55Z" fill="#1e1e1e"/>
      <path d="M165.53,274.61a3.17,3.17,0,0,1-1.64.41,2.71,2.71,0,0,1-2.07-.83A3.06,3.06,0,0,1,161,272a3.36,3.36,0,0,1,.85-2.38,3,3,0,0,1,2.27-.9,3.06,3.06,0,0,1,1.39.3v1a2.44,2.44,0,0,0-1.42-.47,1.92,1.92,0,0,0-1.51.66,2.47,2.47,0,0,0-.59,1.73,2.4,2.4,0,0,0,.55,1.67,1.94,1.94,0,0,0,1.49.6,2.38,2.38,0,0,0,1.47-.52Z" fill="#1e1e1e"/>
      <path d="M169.49,275a2.79,2.79,0,0,1-2.12-.84,3.1,3.1,0,0,1-.79-2.23,3.26,3.26,0,0,1,.82-2.36,3,3,0,0,1,2.23-.85,2.7,2.7,0,0,1,2.1.83,3.27,3.27,0,0,1,.75,2.29,3.23,3.23,0,0,1-.81,2.3A2.83,2.83,0,0,1,169.49,275Zm.07-5.47a1.83,1.83,0,0,0-1.46.63,2.59,2.59,0,0,0-.54,1.74,2.41,2.41,0,0,0,.55,1.68,1.84,1.84,0,0,0,1.45.61,1.77,1.77,0,0,0,1.44-.6,2.63,2.63,0,0,0,.5-1.72,2.68,2.68,0,0,0-.5-1.73A1.75,1.75,0,0,0,169.56,269.55Z" fill="#1e1e1e"/>
      <path d="M175,274.88h-1V266h1Z" fill="#1e1e1e"/>
    </g>
  </g>
</svg>
