<svg width="103" height="103" viewBox="0 0 103 103" fill="none" xmlns="http://www.w3.org/2000/svg">
<path d="M51.1401 98.7723C25.2901 98.7723 4.33014 77.8223 4.33014 51.9623C4.33014 26.1023 25.2901 5.15234 51.1401 5.15234C76.9901 5.15234 97.9501 26.1123 97.9501 51.9623C97.9501 77.8123 76.9901 98.7723 51.1401 98.7723Z" fill="url(#paint0_linear_222_7475)"/>
<path fill-rule="evenodd" clip-rule="evenodd" d="M97.0401 51.9623C97.0401 77.3123 76.4901 97.8623 51.1401 97.8623C25.7901 97.8623 5.24012 77.3123 5.24012 51.9623C5.24012 26.6123 25.7901 6.06227 51.1401 6.06227C76.4901 6.06227 97.0401 26.6123 97.0401 51.9623ZM51.1401 2.32227C78.5601 2.32227 100.78 24.5423 100.78 51.9623C100.78 79.3823 78.5501 101.602 51.1401 101.602C23.7201 101.602 1.50012 79.3723 1.50012 51.9623C1.50012 24.5423 23.7201 2.32227 51.1401 2.32227Z" fill="#F2F1F0"/>
<path fill-rule="evenodd" clip-rule="evenodd" d="M94.2301 51.9618C94.2301 75.7618 74.9401 95.0518 51.1401 95.0518C27.3401 95.0518 8.05012 75.7618 8.05012 51.9618C8.05012 28.1618 27.3401 8.87184 51.1401 8.87184C74.9401 8.87184 94.2301 28.1618 94.2301 51.9618ZM51.1401 5.13184C77.0001 5.13184 97.9701 26.1018 97.9701 51.9618C97.9701 77.8218 77.0001 98.7919 51.1401 98.7919C25.2801 98.7919 4.31012 77.8218 4.31012 51.9618C4.31012 26.1018 25.2701 5.13184 51.1401 5.13184Z" fill="url(#paint1_linear_222_7475)"/>
<g filter="url(#filter0_d_222_7475)">
<path d="M58.4075 38.4023H21.6893V69.0568H58.4075V38.4023Z" fill="url(#paint2_linear_222_7475)"/>
<path fill-rule="evenodd" clip-rule="evenodd" d="M19.8248 64.1116L20.5344 43.3457H24.198L24.7596 64.1116H19.8248Z" fill="url(#paint3_linear_222_7475)"/>
<path fill-rule="evenodd" clip-rule="evenodd" d="M31.7596 64.1116L32.4693 43.3457H36.1329L36.6944 64.1116H31.7596Z" fill="url(#paint4_linear_222_7475)"/>
<path fill-rule="evenodd" clip-rule="evenodd" d="M43.6031 64.1116L44.3128 43.3457H47.9764L48.5379 64.1116H43.6031Z" fill="url(#paint5_linear_222_7475)"/>
<path fill-rule="evenodd" clip-rule="evenodd" d="M55.4467 64.1116L56.1563 43.3457H59.8199L60.3814 64.1116H55.4467Z" fill="url(#paint6_linear_222_7475)"/>
<path d="M66.3032 69.0566H13.0074V73.0121H66.3032V69.0566Z" fill="url(#paint7_linear_222_7475)"/>
<path d="M65.3162 66.0898H13.9944V69.0564H65.3162V66.0898Z" fill="url(#paint8_linear_222_7475)"/>
<path d="M26.7335 63.123H17.8508V66.0896H26.7335V63.123Z" fill="url(#paint9_linear_222_7475)"/>
<path d="M26.7335 39.3906H17.8508V41.3683H26.7335V39.3906Z" fill="url(#paint10_linear_222_7475)"/>
<path d="M25.7465 41.3682H18.8378V43.3459H25.7465V41.3682Z" fill="url(#paint11_linear_222_7475)"/>
<path d="M38.6684 39.3906H29.7858V41.3683H38.6684V39.3906Z" fill="url(#paint12_linear_222_7475)"/>
<path d="M37.6814 41.3682H30.7727V43.3459H37.6814V41.3682Z" fill="url(#paint13_linear_222_7475)"/>
<path d="M50.5119 39.3906H41.6293V41.3683H50.5119V39.3906Z" fill="url(#paint14_linear_222_7475)"/>
<path d="M49.5249 41.3682H42.6162V43.3459H49.5249V41.3682Z" fill="url(#paint15_linear_222_7475)"/>
<path d="M62.3554 39.3906H53.4728V41.3683H62.3554V39.3906Z" fill="url(#paint16_linear_222_7475)"/>
<path d="M61.3684 41.3682H54.4597V43.3459H61.3684V41.3682Z" fill="url(#paint17_linear_222_7475)"/>
<path d="M38.6684 63.123H29.7858V66.0896H38.6684V63.123Z" fill="url(#paint18_linear_222_7475)"/>
<path d="M50.5119 63.123H41.6293V66.0896H50.5119V63.123Z" fill="url(#paint19_linear_222_7475)"/>
<path d="M62.3554 63.123H53.4728V66.0896H62.3554V63.123Z" fill="url(#paint20_linear_222_7475)"/>
<path fill-rule="evenodd" clip-rule="evenodd" d="M13.9944 35.3189L39.6432 25.5469L65.3162 35.3189V40.3797H13.9944V35.3189Z" fill="url(#paint21_linear_222_7475)"/>
</g>
<g opacity="0.3">
<path opacity="0.3" d="M85.4655 46.6113H53.3061C53.0008 46.6124 52.7084 46.7346 52.4931 46.951C52.2778 47.1675 52.1571 47.4605 52.1576 47.7658V74.3187C52.1572 74.6239 52.2779 74.9169 52.4932 75.1333C52.7085 75.3497 53.0009 75.4719 53.3061 75.4731H85.4655C85.7708 75.4718 86.0631 75.3496 86.2783 75.1332C86.4936 74.9168 86.6143 74.6239 86.6141 74.3187V47.7658C86.6144 47.4605 86.4937 47.1676 86.2784 46.9511C86.0631 46.7347 85.7708 46.6125 85.4655 46.6113V46.6113Z" fill="white"/>
<path opacity="0.3" d="M85.4655 45.457H53.3061C52.6959 45.4604 52.1118 45.7051 51.6813 46.1377C51.2509 46.5704 51.0092 47.1557 51.009 47.766V74.3189C51.0092 74.9291 51.2509 75.5145 51.6814 75.9471C52.1118 76.3797 52.6959 76.6244 53.3061 76.6278H85.4655C86.0757 76.6244 86.6598 76.3797 87.0902 75.9471C87.5206 75.5145 87.7623 74.9291 87.7626 74.3189V47.766C87.7623 47.1557 87.5206 46.5704 87.0902 46.1377C86.6598 45.7051 86.0757 45.4604 85.4655 45.457V45.457ZM53.3061 75.4733C53.0009 75.4721 52.7085 75.3499 52.4932 75.1335C52.2779 74.9171 52.1572 74.6242 52.1576 74.3189V47.766C52.1571 47.4607 52.2778 47.1677 52.4931 46.9512C52.7084 46.7348 53.0008 46.6126 53.3061 46.6115H57.3261V75.4733H53.3061ZM86.6141 74.3189C86.6143 74.6241 86.4936 74.917 86.2783 75.1334C86.063 75.3498 85.7707 75.472 85.4655 75.4733H58.4746V46.6115H85.4655C85.7707 46.6127 86.0631 46.7349 86.2784 46.9513C86.4937 47.1677 86.6144 47.4607 86.6141 47.766V74.3189Z" fill="white"/>
</g>
<g opacity="0.6">
<path opacity="0.6" d="M85.4655 43.7061H53.3061C53.0008 43.7071 52.7084 43.8293 52.4931 44.0458C52.2778 44.2622 52.1571 44.5552 52.1576 44.8605V71.4134C52.1572 71.7187 52.2779 72.0116 52.4932 72.228C52.7085 72.4444 53.0009 72.5666 53.3061 72.5678H85.4655C85.7708 72.5665 86.0631 72.4443 86.2783 72.2279C86.4936 72.0115 86.6143 71.7186 86.6141 71.4134V44.8605C86.6144 44.5553 86.4937 44.2623 86.2784 44.0459C86.0631 43.8295 85.7708 43.7073 85.4655 43.7061V43.7061Z" fill="white"/>
<path opacity="0.6" d="M85.4655 42.5518H53.3061C52.6959 42.5551 52.1118 42.7998 51.6813 43.2325C51.2509 43.6651 51.0092 44.2505 51.009 44.8607V71.4136C51.0092 72.0239 51.2509 72.6092 51.6814 73.0418C52.1118 73.4745 52.6959 73.7192 53.3061 73.7225H85.4655C86.0757 73.7192 86.6598 73.4745 87.0902 73.0418C87.5206 72.6092 87.7623 72.0239 87.7626 71.4136V44.8607C87.7623 44.2505 87.5206 43.6651 87.0902 43.2325C86.6598 42.7998 86.0757 42.5551 85.4655 42.5518V42.5518ZM53.3061 72.568C53.0009 72.5668 52.7085 72.4446 52.4932 72.2282C52.2779 72.0118 52.1572 71.7189 52.1576 71.4136V44.8607C52.1571 44.5554 52.2778 44.2624 52.4931 44.046C52.7084 43.8295 53.0008 43.7074 53.3061 43.7063H57.3261V72.568H53.3061ZM86.6141 71.4136C86.6143 71.7189 86.4936 72.0118 86.2783 72.2281C86.063 72.4445 85.7707 72.5667 85.4655 72.568H58.4746V43.7062H85.4655C85.7707 43.7074 86.0631 43.8296 86.2784 44.046C86.4937 44.2625 86.6144 44.5554 86.6141 44.8607V71.4136Z" fill="white"/>
</g>
<path d="M85.4655 40.7998H53.3061C53.0008 40.8009 52.7084 40.9231 52.4931 41.1395C52.2778 41.3559 52.1571 41.649 52.1576 41.9543V68.5071C52.1572 68.8124 52.2779 69.1054 52.4932 69.3218C52.7085 69.5382 53.0009 69.6604 53.3061 69.6616H85.4655C85.7708 69.6603 86.0631 69.5381 86.2783 69.3217C86.4936 69.1053 86.6143 68.8124 86.6141 68.5071V41.9543C86.6144 41.649 86.4937 41.356 86.2784 41.1396C86.0631 40.9232 85.7708 40.801 85.4655 40.7998V40.7998Z" fill="url(#paint22_linear_222_7475)"/>
<path d="M85.4655 39.6455H53.3061C52.6959 39.6489 52.1118 39.8936 51.6813 40.3262C51.2509 40.7588 51.0092 41.3442 51.009 41.9545V68.5073C51.0092 69.1176 51.2509 69.703 51.6813 70.1356C52.1118 70.5682 52.6959 70.8129 53.3061 70.8163H85.4655C86.0757 70.8129 86.6598 70.5682 87.0902 70.1356C87.5207 69.703 87.7624 69.1176 87.7626 68.5073V41.9545C87.7623 41.3442 87.5206 40.7588 87.0902 40.3262C86.6598 39.8936 86.0757 39.6489 85.4655 39.6455V39.6455ZM53.3061 69.6618C53.0009 69.6606 52.7085 69.5384 52.4932 69.322C52.2779 69.1056 52.1572 68.8126 52.1576 68.5074V41.9545C52.1571 41.6492 52.2778 41.3561 52.4931 41.1397C52.7084 40.9233 53.0008 40.8011 53.3061 40.8H57.3261V69.6618H53.3061ZM86.6141 68.5073C86.6143 68.8126 86.4936 69.1055 86.2783 69.3219C86.063 69.5382 85.7707 69.6605 85.4655 69.6617H58.4746V40.8H85.4655C85.7707 40.8012 86.0631 40.9234 86.2784 41.1398C86.4937 41.3562 86.6144 41.6492 86.6141 41.9545V68.5073Z" fill="url(#paint23_linear_222_7475)"/>
<path fill-rule="evenodd" clip-rule="evenodd" d="M55.8504 50.6125C55.8493 50.8394 55.7809 51.0609 55.654 51.249C55.5271 51.4371 55.3473 51.5834 55.1373 51.6694C54.9274 51.7554 54.6966 51.7773 54.4742 51.7323C54.2518 51.6873 54.0477 51.5775 53.8877 51.4166C53.7276 51.2558 53.6188 51.0511 53.575 50.8285C53.5311 50.6058 53.5542 50.3752 53.6413 50.1657C53.7285 49.9561 53.8757 49.7771 54.0644 49.6512C54.2532 49.5252 54.475 49.458 54.7019 49.458C55.0073 49.4589 55.2998 49.581 55.5152 49.7975C55.7305 50.014 55.8511 50.3071 55.8504 50.6125V50.6125Z" fill="white"/>
<path fill-rule="evenodd" clip-rule="evenodd" d="M55.8504 54.6535C55.8493 54.8804 55.7809 55.1018 55.654 55.29C55.5271 55.4781 55.3473 55.6244 55.1374 55.7104C54.9274 55.7964 54.6966 55.8183 54.4742 55.7733C54.2518 55.7284 54.0477 55.6185 53.8877 55.4577C53.7276 55.2968 53.6188 55.0921 53.575 54.8695C53.5311 54.6468 53.5542 54.4162 53.6413 54.2067C53.7284 53.9972 53.8757 53.8181 54.0644 53.6922C54.2532 53.5662 54.475 53.499 54.7019 53.499C55.0073 53.4999 55.2998 53.622 55.5151 53.8385C55.7305 54.055 55.8511 54.3481 55.8504 54.6535V54.6535Z" fill="white"/>
<path fill-rule="evenodd" clip-rule="evenodd" d="M55.8504 58.6935C55.8493 58.9204 55.7809 59.1419 55.654 59.33C55.5271 59.5181 55.3473 59.6644 55.1373 59.7504C54.9274 59.8365 54.6966 59.8584 54.4742 59.8134C54.2518 59.7684 54.0477 59.6585 53.8877 59.4977C53.7276 59.3368 53.6188 59.1321 53.575 58.9095C53.5311 58.6869 53.5542 58.4562 53.6413 58.2467C53.7285 58.0372 53.8757 57.8582 54.0644 57.7322C54.2532 57.6063 54.475 57.5391 54.7019 57.5391C55.0073 57.54 55.2998 57.6621 55.5152 57.8786C55.7305 58.095 55.8511 58.3882 55.8504 58.6935V58.6935Z" fill="white"/>
<path fill-rule="evenodd" clip-rule="evenodd" d="M55.8504 62.7345C55.8493 62.9615 55.7809 63.1829 55.654 63.371C55.5271 63.5591 55.3473 63.7054 55.1373 63.7915C54.9274 63.8775 54.6966 63.8994 54.4742 63.8544C54.2518 63.8094 54.0477 63.6996 53.8877 63.5387C53.7276 63.3778 53.6188 63.1732 53.575 62.9505C53.5311 62.7279 53.5542 62.4973 53.6413 62.2877C53.7285 62.0782 53.8757 61.8992 54.0644 61.7732C54.2532 61.6473 54.475 61.5801 54.7019 61.5801C55.0073 61.581 55.2998 61.7031 55.5152 61.9196C55.7305 62.136 55.8511 62.4292 55.8504 62.7345V62.7345Z" fill="white"/>
<path fill-rule="evenodd" clip-rule="evenodd" d="M55.8504 66.7756C55.8493 67.0025 55.7809 67.2239 55.654 67.4121C55.5271 67.6002 55.3473 67.7464 55.1373 67.8325C54.9274 67.9185 54.6966 67.9404 54.4742 67.8954C54.2518 67.8504 54.0477 67.7406 53.8877 67.5797C53.7276 67.4188 53.6188 67.2142 53.575 66.9915C53.5311 66.7689 53.5542 66.5383 53.6413 66.3287C53.7285 66.1192 53.8757 65.9402 54.0644 65.8142C54.2532 65.6883 54.475 65.6211 54.7019 65.6211C55.0073 65.622 55.2998 65.7441 55.5152 65.9606C55.7305 66.1771 55.8511 66.4702 55.8504 66.7756V66.7756Z" fill="white"/>
<path fill-rule="evenodd" clip-rule="evenodd" d="M67.0887 67.3527H60.7717C60.6186 67.3527 60.4718 67.2919 60.3635 67.1836C60.2553 67.0754 60.1945 66.9286 60.1945 66.7755C60.1945 66.6224 60.2553 66.4756 60.3635 66.3673C60.4718 66.2591 60.6186 66.1982 60.7717 66.1982H67.0887C67.2418 66.1982 67.3887 66.2591 67.4969 66.3673C67.6052 66.4756 67.666 66.6224 67.666 66.7755C67.666 66.9286 67.6052 67.0754 67.4969 67.1836C67.3887 67.2919 67.2418 67.3527 67.0887 67.3527Z" fill="#FFFFFE"/>
<path fill-rule="evenodd" clip-rule="evenodd" d="M72.8315 67.3527H69.3858C69.2327 67.3527 69.0859 67.2919 68.9777 67.1836C68.8694 67.0754 68.8086 66.9286 68.8086 66.7755C68.8086 66.6224 68.8694 66.4756 68.9777 66.3673C69.0859 66.2591 69.2327 66.1982 69.3858 66.1982H72.8315C72.9846 66.1982 73.1314 66.2591 73.2397 66.3673C73.3479 66.4756 73.4087 66.6224 73.4087 66.7755C73.4087 66.9286 73.3479 67.0754 73.2397 67.1836C73.1314 67.2919 72.9846 67.3527 72.8315 67.3527H72.8315Z" fill="#50E6FF"/>
<path fill-rule="evenodd" clip-rule="evenodd" d="M63.0688 63.3117H60.7717C60.6186 63.3117 60.4718 63.2509 60.3635 63.1426C60.2553 63.0344 60.1945 62.8876 60.1945 62.7345C60.1945 62.5814 60.2553 62.4345 60.3635 62.3263C60.4718 62.218 60.6186 62.1572 60.7717 62.1572H63.0688C63.2219 62.1572 63.3687 62.218 63.477 62.3263C63.5852 62.4345 63.646 62.5814 63.646 62.7345C63.646 62.8876 63.5852 63.0344 63.477 63.1426C63.3687 63.2509 63.2219 63.3117 63.0688 63.3117V63.3117Z" fill="#003067"/>
<path fill-rule="evenodd" clip-rule="evenodd" d="M67.0887 59.2707H60.7717C60.6186 59.2707 60.4718 59.2099 60.3635 59.1016C60.2553 58.9934 60.1945 58.8465 60.1945 58.6934C60.1945 58.5404 60.2553 58.3935 60.3635 58.2853C60.4718 58.177 60.6186 58.1162 60.7717 58.1162H67.0887C67.2418 58.1162 67.3887 58.177 67.4969 58.2853C67.6052 58.3935 67.666 58.5404 67.666 58.6934C67.666 58.8465 67.6052 58.9934 67.4969 59.1016C67.3887 59.2099 67.2418 59.2707 67.0887 59.2707V59.2707Z" fill="#FFFFFE"/>
<path fill-rule="evenodd" clip-rule="evenodd" d="M75.7029 59.2707H69.3858C69.2327 59.2707 69.0859 59.2099 68.9777 59.1016C68.8694 58.9934 68.8086 58.8465 68.8086 58.6934C68.8086 58.5404 68.8694 58.3935 68.9777 58.2853C69.0859 58.177 69.2327 58.1162 69.3858 58.1162H75.7029C75.856 58.1162 76.0028 58.177 76.111 58.2853C76.2193 58.3935 76.2801 58.5404 76.2801 58.6934C76.2801 58.8465 76.2193 58.9934 76.111 59.1016C76.0028 59.2099 75.856 59.2707 75.7029 59.2707H75.7029Z" fill="#FFFFFE"/>
<path fill-rule="evenodd" clip-rule="evenodd" d="M79.7228 59.2707H78C77.8469 59.2707 77.7 59.2099 77.5918 59.1016C77.4835 58.9934 77.4227 58.8465 77.4227 58.6934C77.4227 58.5404 77.4835 58.3935 77.5918 58.2853C77.7 58.177 77.8469 58.1162 78 58.1162H79.7228C79.8759 58.1162 80.0227 58.177 80.1309 58.2853C80.2392 58.3935 80.3 58.5404 80.3 58.6934C80.3 58.8465 80.2392 58.9934 80.1309 59.1016C80.0227 59.2099 79.8759 59.2707 79.7228 59.2707V59.2707Z" fill="#C3F1FF"/>
<path fill-rule="evenodd" clip-rule="evenodd" d="M71.6829 63.3117H65.475C65.3219 63.3117 65.1751 63.2509 65.0668 63.1426C64.9586 63.0344 64.8978 62.8876 64.8978 62.7345C64.8978 62.5814 64.9586 62.4345 65.0668 62.3263C65.1751 62.218 65.3219 62.1572 65.475 62.1572H71.6829C71.836 62.1572 71.9828 62.218 72.0911 62.3263C72.1993 62.4345 72.2602 62.5814 72.2602 62.7345C72.2602 62.8876 72.1993 63.0344 72.0911 63.1426C71.9828 63.2509 71.836 63.3117 71.6829 63.3117V63.3117Z" fill="#C3F1FF"/>
<path fill-rule="evenodd" clip-rule="evenodd" d="M71.6829 55.2306H69.3858C69.2327 55.2306 69.0859 55.1698 68.9777 55.0616C68.8694 54.9533 68.8086 54.8065 68.8086 54.6534C68.8086 54.5003 68.8694 54.3535 68.9777 54.2452C69.0859 54.137 69.2327 54.0762 69.3858 54.0762H71.683C71.8361 54.0762 71.9829 54.137 72.0911 54.2452C72.1994 54.3535 72.2602 54.5003 72.2602 54.6534C72.2602 54.8065 72.1994 54.9533 72.0911 55.0616C71.9829 55.1698 71.8361 55.2306 71.683 55.2306H71.6829Z" fill="#003067"/>
<path fill-rule="evenodd" clip-rule="evenodd" d="M67.0887 55.2306H60.7717C60.6186 55.2306 60.4718 55.1698 60.3635 55.0616C60.2553 54.9533 60.1945 54.8065 60.1945 54.6534C60.1945 54.5003 60.2553 54.3535 60.3635 54.2452C60.4718 54.137 60.6186 54.0762 60.7717 54.0762H67.0887C67.2418 54.0762 67.3887 54.137 67.4969 54.2452C67.6052 54.3535 67.666 54.5003 67.666 54.6534C67.666 54.8065 67.6052 54.9533 67.4969 55.0616C67.3887 55.1698 67.2418 55.2306 67.0887 55.2306V55.2306Z" fill="#50E6FF"/>
<path fill-rule="evenodd" clip-rule="evenodd" d="M67.0887 51.1896H60.7717C60.6186 51.1896 60.4718 51.1288 60.3635 51.0206C60.2553 50.9123 60.1945 50.7655 60.1945 50.6124C60.1945 50.4593 60.2553 50.3125 60.3635 50.2042C60.4718 50.096 60.6186 50.0352 60.7717 50.0352H67.0887C67.2418 50.0352 67.3887 50.096 67.4969 50.2042C67.6052 50.3125 67.666 50.4593 67.666 50.6124C67.666 50.7655 67.6052 50.9123 67.4969 51.0206C67.3887 51.1288 67.2418 51.1896 67.0887 51.1896V51.1896Z" fill="#FFFFFE"/>
<path fill-rule="evenodd" clip-rule="evenodd" d="M60.7718 47.1493C60.6963 47.1493 60.6215 47.1344 60.5518 47.1054C60.4822 47.0763 60.4189 47.0338 60.3658 46.9801C60.2579 46.8717 60.1974 46.725 60.1974 46.572C60.1974 46.4191 60.2579 46.2724 60.3658 46.1639L61.6826 44.8403L60.3658 43.5167C60.2579 43.4083 60.1974 43.2616 60.1974 43.1086C60.1974 42.9557 60.2579 42.809 60.3658 42.7005C60.4189 42.6469 60.4822 42.6043 60.5519 42.5753C60.6216 42.5462 60.6963 42.5312 60.7718 42.5312C60.8473 42.5312 60.9221 42.5462 60.9918 42.5753C61.0614 42.6043 61.1247 42.6469 61.1778 42.7005L62.9007 44.4322C63.0085 44.5407 63.0691 44.6874 63.0691 44.8403C63.0691 44.9933 63.0085 45.14 62.9007 45.2484L61.1778 46.9801C61.1247 47.0338 61.0614 47.0763 60.9917 47.1054C60.9221 47.1344 60.8473 47.1493 60.7718 47.1493V47.1493Z" fill="#C3F1FF"/>
<path fill-rule="evenodd" clip-rule="evenodd" d="M66.5144 47.1486H64.2173C64.0642 47.1486 63.9174 47.0878 63.8091 46.9795C63.7009 46.8713 63.6401 46.7245 63.6401 46.5714C63.6401 46.4183 63.7009 46.2715 63.8091 46.1632C63.9174 46.055 64.0642 45.9941 64.2173 45.9941H66.5144C66.6675 45.9941 66.8143 46.055 66.9226 46.1632C67.0308 46.2715 67.0916 46.4183 67.0916 46.5714C67.0916 46.7245 67.0308 46.8713 66.9226 46.9795C66.8143 47.0878 66.6675 47.1486 66.5144 47.1486V47.1486Z" fill="#C3F1FF"/>
<path opacity="0.2" fill-rule="evenodd" clip-rule="evenodd" d="M63.4185 39.6455C63.4584 41.238 64.1191 42.7518 65.2595 43.864C66.3999 44.9762 67.9298 45.5987 69.5228 45.5987C71.1157 45.5987 72.6456 44.9762 73.786 43.864C74.9264 42.7518 75.5871 41.238 75.627 39.6455H63.4185Z" fill="#003067"/>
<path fill-rule="evenodd" clip-rule="evenodd" d="M69.5228 44.1452C68.6013 44.1452 67.7004 43.8719 66.9341 43.3599C66.1679 42.848 65.5706 42.1202 65.218 41.2688C64.8653 40.4174 64.773 39.4805 64.9528 38.5767C65.1326 37.6728 65.5764 36.8426 66.228 36.1909C66.8797 35.5393 67.7099 35.0955 68.6138 34.9157C69.5176 34.7359 70.4545 34.8282 71.3059 35.1809C72.1574 35.5335 72.8851 36.1308 73.3971 36.897C73.9091 37.6633 74.1823 38.5642 74.1823 39.4857C74.1823 40.7215 73.6914 41.9066 72.8176 42.7804C71.9437 43.6543 70.7586 44.1452 69.5228 44.1452V44.1452Z" fill="#0078D4"/>
<path fill-rule="evenodd" clip-rule="evenodd" d="M71.6634 38.1931C71.554 38.0838 71.4058 38.0225 71.2513 38.0225C71.0967 38.0225 70.9485 38.0838 70.8392 38.1931L68.918 40.1129L68.224 39.4256C68.2078 39.4015 68.1895 39.3789 68.1693 39.358C68.0607 39.2493 67.9135 39.1878 67.7598 39.1871C67.6062 39.1864 67.4584 39.2465 67.3489 39.3543C67.2393 39.462 67.1768 39.6087 67.1749 39.7624C67.173 39.9161 67.232 40.0642 67.3389 40.1746L67.3319 40.1816L68.5076 41.3465C68.617 41.4558 68.7653 41.5171 68.9199 41.5171C69.0744 41.5171 69.2227 41.4558 69.3321 41.3465L71.6616 39.0181L71.6634 39.0167C71.7175 38.9626 71.7604 38.8984 71.7897 38.8278C71.819 38.7571 71.8341 38.6814 71.8341 38.6049C71.8341 38.5284 71.819 38.4527 71.7897 38.382C71.7604 38.3113 71.7175 38.2471 71.6634 38.1931Z" fill="white"/>
<defs>
<filter id="filter0_d_222_7475" x="9.00745" y="23.5469" width="61.2958" height="55.4648" filterUnits="userSpaceOnUse" color-interpolation-filters="sRGB">
<feFlood flood-opacity="0" result="BackgroundImageFix"/>
<feColorMatrix in="SourceAlpha" type="matrix" values="0 0 0 0 0 0 0 0 0 0 0 0 0 0 0 0 0 0 127 0" result="hardAlpha"/>
<feOffset dy="2"/>
<feGaussianBlur stdDeviation="2"/>
<feColorMatrix type="matrix" values="0 0 0 0 0 0 0 0 0 0 0 0 0 0 0 0 0 0 0.1 0"/>
<feBlend mode="normal" in2="BackgroundImageFix" result="effect1_dropShadow_222_7475"/>
<feBlend mode="normal" in="SourceGraphic" in2="effect1_dropShadow_222_7475" result="shape"/>
</filter>
<linearGradient id="paint0_linear_222_7475" x1="49.3662" y1="-12.8272" x2="53.3482" y2="132.943" gradientUnits="userSpaceOnUse">
<stop stop-color="#00ABDE"/>
<stop offset="1" stop-color="#007ED8"/>
</linearGradient>
<linearGradient id="paint1_linear_222_7475" x1="2.57052" y1="-19.6608" x2="98.0981" y2="121.221" gradientUnits="userSpaceOnUse">
<stop stop-color="#007ED8"/>
<stop offset="0.7065" stop-color="#002D4C"/>
</linearGradient>
<linearGradient id="paint2_linear_222_7475" x1="40.0484" y1="38.4023" x2="40.0484" y2="69.0568" gradientUnits="userSpaceOnUse">
<stop stop-color="#434343"/>
<stop offset="1" stop-color="#131313"/>
</linearGradient>
<linearGradient id="paint3_linear_222_7475" x1="22.2922" y1="43.4937" x2="22.2922" y2="63.9555" gradientUnits="userSpaceOnUse">
<stop stop-color="#CACACA"/>
<stop offset="1" stop-color="#B0B0B0"/>
</linearGradient>
<linearGradient id="paint4_linear_222_7475" x1="34.227" y1="43.4937" x2="34.227" y2="63.9555" gradientUnits="userSpaceOnUse">
<stop stop-color="#CACACA"/>
<stop offset="1" stop-color="#B0B0B0"/>
</linearGradient>
<linearGradient id="paint5_linear_222_7475" x1="46.0705" y1="43.4937" x2="46.0705" y2="63.9555" gradientUnits="userSpaceOnUse">
<stop stop-color="#CACACA"/>
<stop offset="1" stop-color="#B0B0B0"/>
</linearGradient>
<linearGradient id="paint6_linear_222_7475" x1="57.9141" y1="43.4937" x2="57.9141" y2="63.9555" gradientUnits="userSpaceOnUse">
<stop stop-color="#CACACA"/>
<stop offset="1" stop-color="#B0B0B0"/>
</linearGradient>
<linearGradient id="paint7_linear_222_7475" x1="39.6553" y1="69.0566" x2="39.6553" y2="73.0121" gradientUnits="userSpaceOnUse">
<stop stop-color="#828282"/>
<stop offset="1" stop-color="#727272"/>
</linearGradient>
<linearGradient id="paint8_linear_222_7475" x1="39.6553" y1="66.111" x2="39.6553" y2="69.0341" gradientUnits="userSpaceOnUse">
<stop stop-color="#CACACA"/>
<stop offset="1" stop-color="#B0B0B0"/>
</linearGradient>
<linearGradient id="paint9_linear_222_7475" x1="22.2921" y1="63.123" x2="22.2921" y2="66.0896" gradientUnits="userSpaceOnUse">
<stop stop-color="#828282"/>
<stop offset="1" stop-color="#727272"/>
</linearGradient>
<linearGradient id="paint10_linear_222_7475" x1="22.2921" y1="39.3906" x2="22.2921" y2="41.3683" gradientUnits="userSpaceOnUse">
<stop stop-color="#828282"/>
<stop offset="1" stop-color="#727272"/>
</linearGradient>
<linearGradient id="paint11_linear_222_7475" x1="22.2921" y1="41.3682" x2="22.2921" y2="43.3459" gradientUnits="userSpaceOnUse">
<stop stop-color="#BFBFBF"/>
<stop offset="1" stop-color="#999999"/>
</linearGradient>
<linearGradient id="paint12_linear_222_7475" x1="34.2271" y1="39.3906" x2="34.2271" y2="41.3683" gradientUnits="userSpaceOnUse">
<stop stop-color="#828282"/>
<stop offset="1" stop-color="#727272"/>
</linearGradient>
<linearGradient id="paint13_linear_222_7475" x1="34.2271" y1="41.3682" x2="34.2271" y2="43.3459" gradientUnits="userSpaceOnUse">
<stop stop-color="#BFBFBF"/>
<stop offset="1" stop-color="#999999"/>
</linearGradient>
<linearGradient id="paint14_linear_222_7475" x1="46.0706" y1="39.3906" x2="46.0706" y2="41.3683" gradientUnits="userSpaceOnUse">
<stop stop-color="#828282"/>
<stop offset="1" stop-color="#727272"/>
</linearGradient>
<linearGradient id="paint15_linear_222_7475" x1="46.0706" y1="41.3682" x2="46.0706" y2="43.3459" gradientUnits="userSpaceOnUse">
<stop stop-color="#BFBFBF"/>
<stop offset="1" stop-color="#999999"/>
</linearGradient>
<linearGradient id="paint16_linear_222_7475" x1="57.9141" y1="39.3906" x2="57.9141" y2="41.3683" gradientUnits="userSpaceOnUse">
<stop stop-color="#828282"/>
<stop offset="1" stop-color="#727272"/>
</linearGradient>
<linearGradient id="paint17_linear_222_7475" x1="57.9141" y1="41.3682" x2="57.9141" y2="43.3459" gradientUnits="userSpaceOnUse">
<stop stop-color="#BFBFBF"/>
<stop offset="1" stop-color="#999999"/>
</linearGradient>
<linearGradient id="paint18_linear_222_7475" x1="34.2271" y1="63.123" x2="34.2271" y2="66.0896" gradientUnits="userSpaceOnUse">
<stop stop-color="#828282"/>
<stop offset="1" stop-color="#727272"/>
</linearGradient>
<linearGradient id="paint19_linear_222_7475" x1="46.0706" y1="63.123" x2="46.0706" y2="66.0896" gradientUnits="userSpaceOnUse">
<stop stop-color="#828282"/>
<stop offset="1" stop-color="#727272"/>
</linearGradient>
<linearGradient id="paint20_linear_222_7475" x1="57.9141" y1="63.123" x2="57.9141" y2="66.0896" gradientUnits="userSpaceOnUse">
<stop stop-color="#828282"/>
<stop offset="1" stop-color="#727272"/>
</linearGradient>
<linearGradient id="paint21_linear_222_7475" x1="39.6553" y1="25.6526" x2="39.6553" y2="40.2681" gradientUnits="userSpaceOnUse">
<stop stop-color="#CACACA"/>
<stop offset="1" stop-color="#B0B0B0"/>
</linearGradient>
<linearGradient id="paint22_linear_222_7475" x1="69.3858" y1="69.6616" x2="69.3858" y2="40.7481" gradientUnits="userSpaceOnUse">
<stop stop-color="#003067"/>
<stop offset="0.2" stop-color="#003F7C"/>
<stop offset="0.47" stop-color="#004F90"/>
<stop offset="0.74" stop-color="#00589D"/>
<stop offset="1" stop-color="#005BA1"/>
</linearGradient>
<linearGradient id="paint23_linear_222_7475" x1="69.3858" y1="70.8162" x2="69.3858" y2="39.6455" gradientUnits="userSpaceOnUse">
<stop stop-color="#004DAE"/>
<stop offset="0.21" stop-color="#0061C4"/>
<stop offset="0.51" stop-color="#0078DD"/>
<stop offset="0.78" stop-color="#0086EC"/>
<stop offset="1" stop-color="#008BF1"/>
</linearGradient>
</defs>
</svg>
