<?xml version="1.0" encoding="UTF-8" standalone="no"?><svg xmlns="http://www.w3.org/2000/svg" xmlns:xlink="http://www.w3.org/1999/xlink" contentStyleType="text/css" height="640px" preserveAspectRatio="none" style="width:595px;height:640px;background:#FFFFFF;" version="1.1" viewBox="0 0 595 640" width="595px" zoomAndPan="magnify"><defs/><g><rect fill="#FFFFFF" height="619.9063" style="stroke:#181818;stroke-width:1.5;" width="584" x="5" y="15"/><path d="M349,15 L349,40.5938 L339,50.5938 L5,50.5938 " fill="none" style="stroke:#181818;stroke-width:1.5;"/><text fill="#000000" font-family="sans-serif" font-size="14" lengthAdjust="spacing" textLength="334" x="8" y="28.9951">Example of how Project TCP Echo Client works</text><text fill="#000000" font-family="sans-serif" font-size="14" lengthAdjust="spacing" textLength="4" x="173" y="45.292"> </text><rect fill="none" height="167.9297" style="stroke:#000000;stroke-width:1.5;" width="543" x="30" y="388.0859"/><line style="stroke:#181818;stroke-width:0.5;stroke-dasharray:5.0,5.0;" x1="220" x2="220" y1="90.8906" y2="573.0156"/><line style="stroke:#181818;stroke-width:0.5;stroke-dasharray:5.0,5.0;" x1="422" x2="422" y1="90.8906" y2="573.0156"/><rect fill="#E2E2F0" height="30.2969" rx="2.5" ry="2.5" style="stroke:#181818;stroke-width:0.5;" width="178" x="131" y="59.5938"/><text fill="#000000" font-family="sans-serif" font-size="14" lengthAdjust="spacing" textLength="164" x="138" y="79.5889">TCP Echo Client (NetX)</text><rect fill="#E2E2F0" height="30.2969" rx="2.5" ry="2.5" style="stroke:#181818;stroke-width:0.5;" width="178" x="131" y="572.0156"/><text fill="#000000" font-family="sans-serif" font-size="14" lengthAdjust="spacing" textLength="164" x="138" y="592.0107">TCP Echo Client (NetX)</text><rect fill="#E2E2F0" height="30.2969" rx="2.5" ry="2.5" style="stroke:#181818;stroke-width:0.5;" width="178" x="333" y="59.5938"/><text fill="#000000" font-family="sans-serif" font-size="14" lengthAdjust="spacing" textLength="164" x="340" y="79.5889">TCP Echo Server (ncat)</text><rect fill="#E2E2F0" height="30.2969" rx="2.5" ry="2.5" style="stroke:#181818;stroke-width:0.5;" width="178" x="333" y="572.0156"/><text fill="#000000" font-family="sans-serif" font-size="14" lengthAdjust="spacing" textLength="164" x="340" y="592.0107">TCP Echo Server (ncat)</text><line style="stroke:#181818;stroke-width:1.0;" x1="422" x2="464" y1="146.1563" y2="146.1563"/><line style="stroke:#181818;stroke-width:1.0;" x1="464" x2="464" y1="146.1563" y2="159.1563"/><line style="stroke:#181818;stroke-width:1.0;" x1="423" x2="464" y1="159.1563" y2="159.1563"/><polygon fill="#181818" points="433,155.1563,423,159.1563,433,163.1563,429,159.1563" style="stroke:#181818;stroke-width:1.0;"/><text fill="#000000" font-family="sans-serif" font-size="13" lengthAdjust="spacing" textLength="129" x="429" y="141.0903">Listen on TCP port 7</text><line style="stroke:#181818;stroke-width:1.0;" x1="220" x2="262" y1="203.4219" y2="203.4219"/><line style="stroke:#181818;stroke-width:1.0;" x1="262" x2="262" y1="203.4219" y2="216.4219"/><line style="stroke:#181818;stroke-width:1.0;" x1="221" x2="262" y1="216.4219" y2="216.4219"/><polygon fill="#181818" points="231,212.4219,221,216.4219,231,220.4219,227,216.4219" style="stroke:#181818;stroke-width:1.0;"/><text fill="#000000" font-family="sans-serif" font-size="13" lengthAdjust="spacing" textLength="104" x="227" y="183.2231">Application start</text><text fill="#000000" font-family="sans-serif" font-size="13" lengthAdjust="spacing" textLength="100" x="227" y="198.356">and enable TCP</text><line style="stroke:#181818;stroke-width:1.0;" x1="220" x2="262" y1="260.6875" y2="260.6875"/><line style="stroke:#181818;stroke-width:1.0;" x1="262" x2="262" y1="260.6875" y2="273.6875"/><line style="stroke:#181818;stroke-width:1.0;" x1="221" x2="262" y1="273.6875" y2="273.6875"/><polygon fill="#181818" points="231,269.6875,221,273.6875,231,277.6875,227,273.6875" style="stroke:#181818;stroke-width:1.0;"/><text fill="#000000" font-family="sans-serif" font-size="13" lengthAdjust="spacing" textLength="188" x="227" y="240.4888">Set IPv6 address and wait for</text><text fill="#000000" font-family="sans-serif" font-size="13" lengthAdjust="spacing" textLength="188" x="227" y="255.6216">DAD to finish and enable TCP</text><line style="stroke:#181818;stroke-width:1.0;" x1="220" x2="262" y1="317.9531" y2="317.9531"/><line style="stroke:#181818;stroke-width:1.0;" x1="262" x2="262" y1="317.9531" y2="330.9531"/><line style="stroke:#181818;stroke-width:1.0;" x1="221" x2="262" y1="330.9531" y2="330.9531"/><polygon fill="#181818" points="231,326.9531,221,330.9531,231,334.9531,227,330.9531" style="stroke:#181818;stroke-width:1.0;"/><text fill="#000000" font-family="sans-serif" font-size="13" lengthAdjust="spacing" textLength="130" x="227" y="297.7544">Create a TCP socket</text><text fill="#000000" font-family="sans-serif" font-size="13" lengthAdjust="spacing" textLength="130" x="227" y="312.8872">and bind to any port</text><line style="stroke:#181818;stroke-width:1.0;" x1="220" x2="262" y1="360.0859" y2="360.0859"/><line style="stroke:#181818;stroke-width:1.0;" x1="262" x2="262" y1="360.0859" y2="373.0859"/><line style="stroke:#181818;stroke-width:1.0;" x1="221" x2="262" y1="373.0859" y2="373.0859"/><polygon fill="#181818" points="231,369.0859,221,373.0859,231,377.0859,227,373.0859" style="stroke:#181818;stroke-width:1.0;"/><text fill="#000000" font-family="sans-serif" font-size="13" lengthAdjust="spacing" textLength="160" x="227" y="355.02">Establish TCP connection</text><path d="M30,388.0859 L108,388.0859 L108,395.2188 L98,405.2188 L30,405.2188 L30,388.0859 " fill="#EEEEEE" style="stroke:#000000;stroke-width:1.5;"/><rect fill="none" height="167.9297" style="stroke:#000000;stroke-width:1.5;" width="543" x="30" y="388.0859"/><text fill="#000000" font-family="sans-serif" font-size="13" font-weight="bold" lengthAdjust="spacing" textLength="33" x="45" y="401.1528">loop</text><polygon fill="#181818" points="410,432.918,420,436.918,410,440.918,414,436.918" style="stroke:#181818;stroke-width:1.0;"/><line style="stroke:#181818;stroke-width:1.0;" x1="220" x2="416" y1="436.918" y2="436.918"/><text fill="#000000" font-family="sans-serif" font-size="13" lengthAdjust="spacing" textLength="176" x="227" y="431.8521">Send TCP message "ABC..."</text><path d="M40,410.2188 L40,450.2188 L215,450.2188 L215,420.2188 L205,410.2188 L40,410.2188 " fill="#FEFFDD" style="stroke:#181818;stroke-width:0.5;"/><path d="M205,410.2188 L205,420.2188 L215,420.2188 L205,410.2188 " fill="#FEFFDD" style="stroke:#181818;stroke-width:0.5;"/><text fill="#000000" font-family="sans-serif" font-size="13" lengthAdjust="spacing" textLength="146" x="46" y="427.2856">The message is stored</text><text fill="#000000" font-family="sans-serif" font-size="13" lengthAdjust="spacing" textLength="154" x="46" y="442.4185">in ECHO_DATA and sent</text><polygon fill="#181818" points="231,483.1836,221,487.1836,231,491.1836,227,487.1836" style="stroke:#181818;stroke-width:1.0;"/><line style="stroke:#181818;stroke-width:1.0;" x1="225" x2="421" y1="487.1836" y2="487.1836"/><text fill="#000000" font-family="sans-serif" font-size="13" lengthAdjust="spacing" textLength="175" x="237" y="482.1177">Echo TCP message "ABC..."</text><path d="M427,460.4844 L427,500.4844 L558,500.4844 L558,470.4844 L548,460.4844 L427,460.4844 " fill="#FEFFDD" style="stroke:#181818;stroke-width:0.5;"/><path d="M548,460.4844 L548,470.4844 L558,470.4844 L548,460.4844 " fill="#FEFFDD" style="stroke:#181818;stroke-width:0.5;"/><text fill="#000000" font-family="sans-serif" font-size="13" lengthAdjust="spacing" textLength="101" x="433" y="477.5513">The message is</text><text fill="#000000" font-family="sans-serif" font-size="13" lengthAdjust="spacing" textLength="110" x="433" y="492.6841">echoed to output</text><line style="stroke:#181818;stroke-width:1.0;" x1="220" x2="262" y1="530.9492" y2="530.9492"/><line style="stroke:#181818;stroke-width:1.0;" x1="262" x2="262" y1="530.9492" y2="543.9492"/><line style="stroke:#181818;stroke-width:1.0;" x1="221" x2="262" y1="543.9492" y2="543.9492"/><polygon fill="#181818" points="231,539.9492,221,543.9492,231,547.9492,227,543.9492" style="stroke:#181818;stroke-width:1.0;"/><text fill="#000000" font-family="sans-serif" font-size="13" lengthAdjust="spacing" textLength="97" x="227" y="525.8833">Sleep 1 second</text><path d="M336,510.75 L336,550.75 L496,550.75 L496,520.75 L486,510.75 L336,510.75 " fill="#FEFFDD" style="stroke:#181818;stroke-width:0.5;"/><path d="M486,510.75 L486,520.75 L496,520.75 L486,510.75 " fill="#FEFFDD" style="stroke:#181818;stroke-width:0.5;"/><text fill="#000000" font-family="sans-serif" font-size="13" lengthAdjust="spacing" textLength="110" x="342" y="527.8169">This loop repeats</text><text fill="#000000" font-family="sans-serif" font-size="13" lengthAdjust="spacing" textLength="139" x="342" y="542.9497">until you press Ctrl+C</text><!--SRC=[XL5DIyD04BtdLmmzAMB1Yu878QO11T52U_1Ga6qoQLQtCylknDf_xsnQMwmjvX2MuNtDcwMnr0IpH2Y_pD8x16wWvHMC0xzZ9J0jnb1MBKFXB9B0YiD7d56s2DpvKwZCco2sijueezeGJOJ1eTZPCyhh-U0NF6BunF0RFjdCpgWoel0jvF9k2xw59ni52PZw99w3m4ssDLROvdKBkVVEgePLO1GrXHaPgW79p7LrvHuXJL3WSVnv3QQk0yO8YR4oLg3XCADHFW9XQ2pPsCA_QaL08mYc3ngv-a3PP9XR_QcGeNM_m15kgPddBjaaSiL4shtkaZbcdu5-UyvFCnDKsGHVQdIpG1ZazyLmE1nan9h3OIFAdBQu0zYetN30MkUMe2mUNjv6-JJlTulfkaaoiNlB_J5sCTF9Jbi6ksZ_Uke0bOTz1zo9xmvyZXp68NguqWHQHNqehckaMY2WryQJVaTY7Qov0z_ViP3WBegzIteaoZS0]--></g></svg>