<?xml version="1.0" encoding="UTF-8" standalone="no"?>
<!-- Created with Inkscape (http://www.inkscape.org/) -->

<svg
   width="636.68372"
   height="99.804474"
   viewBox="0 0 168.45592 26.4066"
   version="1.1"
   id="svg1"
   inkscape:export-filename="classic-catalog.svg"
   inkscape:export-xdpi="96.285713"
   inkscape:export-ydpi="96.285713"
   xmlns:inkscape="http://www.inkscape.org/namespaces/inkscape"
   xmlns:sodipodi="http://sodipodi.sourceforge.net/DTD/sodipodi-0.dtd"
   xmlns="http://www.w3.org/2000/svg"
   xmlns:svg="http://www.w3.org/2000/svg">
  <sodipodi:namedview
     id="namedview1"
     pagecolor="#ffffff"
     bordercolor="#000000"
     borderopacity="0.25"
     inkscape:showpageshadow="2"
     inkscape:pageopacity="0.0"
     inkscape:pagecheckerboard="0"
     inkscape:deskcolor="#d1d1d1"
     inkscape:document-units="mm"
     inkscape:zoom="1.4378367"
     inkscape:cx="368.26157"
     inkscape:cy="134.57717"
     inkscape:window-width="1920"
     inkscape:window-height="1009"
     inkscape:window-x="2392"
     inkscape:window-y="-8"
     inkscape:window-maximized="1"
     inkscape:current-layer="layer1">
    <inkscape:page
       x="0"
       y="0"
       width="168.45592"
       height="26.406601"
       id="page2"
       margin="0"
       bleed="0" />
  </sodipodi:namedview>
  <defs
     id="defs1" />
  <g
     inkscape:label="Layer 1"
     inkscape:groupmode="layer"
     id="layer1"
     transform="translate(4.7624997,-30.427082)">
    <g
       transform="matrix(0.18211449,0,0,0.18211449,-26.980468,5.6595133)"
       id="g26">
      <path
         d="M 163.5,196.5 H 998.865"
         stroke="#358ee0"
         stroke-width="13.3333"
         stroke-linejoin="round"
         stroke-miterlimit="10"
         fill="none"
         fill-rule="evenodd"
         id="path1" />
      <path
         d="m 141,196 c 0,-32.033 25.967,-58 58,-58 32.033,0 58,25.967 58,58 0,32.033 -25.967,58 -58,58 -32.033,0 -58,-25.967 -58,-58 z"
         fill="#ffffff"
         fill-rule="evenodd"
         id="path2" />
      <g
         id="g5">
        <g
           id="g4">
          <g
             id="g3">
            <path
               d="m 199,165.6 c -8.395,0 -15.2,6.805 -15.2,15.2 0,8.395 6.805,15.2 15.2,15.2 8.395,0 15.2,-6.805 15.2,-15.2 0,-8.395 -6.805,-15.2 -15.2,-15.2 z m -18.967,34.2 c -4.201,0 -7.633,3.37 -7.633,7.6 0,6.427 3.165,11.272 8.113,14.427 3.983,2.54 9.1,3.984 14.687,4.426 V 222.6 c 0,-1.56 0.615,-2.961 1.677,-4.023 l 9.803,-9.803 c -0.053,-0.54 -0.08,-1.078 -0.08,-1.611 0,-2.064 0.414,-4.049 1.263,-5.911 0.227,-0.5 0.479,-0.984 0.753,-1.452 z m 19.531,29.836 c 0.376,0.376 0.821,0.564 1.336,0.564 h 7.6 c 0.435,-0.02 0.782,-0.109 1.039,-0.267 0.257,-0.159 0.445,-0.376 0.564,-0.653 0.119,-0.277 0.198,-0.574 0.238,-0.891 0.039,-0.317 0.059,-0.643 0.059,-0.98 V 226.4 c 0.91,-0.02 1.623,-0.049 2.138,-0.089 0.514,-0.04 0.9,-0.188 1.157,-0.445 0.258,-0.258 0.406,-0.634 0.446,-1.129 0.039,-0.494 0.059,-1.207 0.059,-2.137 h 1.9 c 0.416,0 0.752,-0.089 1.009,-0.267 0.258,-0.178 0.456,-0.396 0.594,-0.653 0.139,-0.258 0.228,-0.554 0.267,-0.891 0.04,-0.336 0.06,-0.683 0.06,-1.039 -0.02,-0.297 -0.03,-0.584 -0.03,-0.861 v -0.742 c 0.653,0.237 1.316,0.406 1.989,0.504 0.673,0.1 1.356,0.149 2.049,0.149 1.583,-0.02 3.038,-0.326 4.363,-0.92 1.327,-0.594 2.504,-1.425 3.533,-2.494 1.03,-1.069 1.831,-2.286 2.405,-3.652 0.574,-1.365 0.861,-2.81 0.861,-4.334 0,-1.583 -0.297,-3.068 -0.891,-4.453 -0.593,-1.386 -1.405,-2.593 -2.434,-3.622 -1.029,-1.029 -2.236,-1.841 -3.622,-2.434 -1.385,-0.594 -2.87,-0.891 -4.453,-0.891 -1.544,0.04 -2.999,0.336 -4.364,0.891 -1.366,0.554 -2.573,1.345 -3.622,2.375 -1.049,1.029 -1.88,2.216 -2.494,3.562 -0.613,1.346 -0.92,2.791 -0.92,4.335 0,0.93 0.109,1.909 0.326,2.938 l -11.162,11.163 C 199.188,221.64 199,222.085 199,222.6 v 5.7 c 0,0.515 0.188,0.96 0.564,1.336 z m 27.105,-27.105 c 0.554,0.554 0.831,1.227 0.831,2.019 0,0.792 -0.277,1.465 -0.831,2.019 -0.554,0.554 -1.227,0.831 -2.019,0.831 -0.792,0 -1.465,-0.277 -2.019,-0.831 -0.554,-0.554 -0.831,-1.227 -0.831,-2.019 0,-0.792 0.277,-1.465 0.831,-2.019 0.554,-0.554 1.227,-0.831 2.019,-0.831 0.792,0 1.465,0.277 2.019,0.831 z"
               fill="#106ebe"
               id="path3" />
          </g>
        </g>
      </g>
      <path
         d="m 139,196 c 0,-33.137 27.087,-60 60.5,-60 33.413,0 60.5,26.863 60.5,60 0,33.137 -27.087,60 -60.5,60 -33.413,0 -60.5,-26.863 -60.5,-60 z m 8.681,0 c 0,28.343 23.2,51.319 51.819,51.319 28.619,0 51.819,-22.976 51.819,-51.319 0,-28.343 -23.2,-51.319 -51.819,-51.319 -28.619,0 -51.819,22.976 -51.819,51.319 z"
         fill="#2886de"
         fill-rule="evenodd"
         id="path5" />
      <path
         d="m 911,196 c 0,-32.033 25.967,-58 58,-58 32.03,0 58,25.967 58,58 0,32.033 -25.97,58 -58,58 -32.033,0 -58,-25.967 -58,-58 z"
         fill="#ffffff"
         fill-rule="evenodd"
         id="path6" />
      <g
         id="g9">
        <g
           id="g8">
          <g
             id="g7">
            <path
               d="m 968.712,202.333 24.84,0.001 c 3.934,0 7.128,3.19 7.128,7.125 v 2.866 c 0,3.463 -1.516,6.754 -4.143,9.01 -4.958,4.256 -12.052,6.336 -21.204,6.336 l -0.567,-0.004 c 0.957,-1.927 0.723,-4.294 -0.701,-6.005 l -0.35,-0.383 -7.061,-7.042 c 1.521,-2.619 2.346,-5.617 2.346,-8.736 0,-1.082 -0.099,-2.141 -0.288,-3.168 z m -17.129,-11.082 c 7.87,0 14.25,6.38 14.25,14.25 0,3.464 -1.236,6.639 -3.29,9.108 l 8.936,8.912 c 0.928,0.926 0.93,2.43 0.004,3.359 -0.842,0.844 -2.162,0.922 -3.092,0.233 l -0.267,-0.229 -9.193,-9.171 c -2.146,1.293 -4.66,2.038 -7.348,2.038 -7.87,0 -14.25,-6.38 -14.25,-14.25 0,-7.87 6.38,-14.25 14.25,-14.25 z m 0,4.75 c -5.246,0 -9.5,4.253 -9.5,9.5 0,5.246 4.254,9.5 9.5,9.5 5.247,0 9.5,-4.254 9.5,-9.5 0,-5.247 -4.253,-9.5 -9.5,-9.5 z m 23.75,-31.652 c 8.745,0 15.834,7.089 15.834,15.833 0,8.745 -7.089,15.834 -15.834,15.834 -8.744,0 -15.833,-7.089 -15.833,-15.834 0,-8.744 7.089,-15.833 15.833,-15.833 z"
               fill="#106ebe"
               id="path7" />
          </g>
        </g>
      </g>
      <path
         d="m 909,196 c 0,-33.137 27.087,-60 60.5,-60 33.41,0 60.5,26.863 60.5,60 0,33.137 -27.09,60 -60.5,60 -33.413,0 -60.5,-26.863 -60.5,-60 z m 8.681,0 c 0,28.343 23.2,51.319 51.819,51.319 28.619,0 51.82,-22.976 51.82,-51.319 0,-28.343 -23.201,-51.319 -51.82,-51.319 -28.619,0 -51.819,22.976 -51.819,51.319 z"
         fill="#2886de"
         fill-rule="evenodd"
         id="path9" />
      <path
         d="m 719,196 c 0,-32.033 25.967,-58 58,-58 32.033,0 58,25.967 58,58 0,32.033 -25.967,58 -58,58 -32.033,0 -58,-25.967 -58,-58 z"
         fill="#ffffff"
         fill-rule="evenodd"
         id="path10" />
      <path
         d="m 717,196 c 0,-33.137 26.863,-60 60,-60 33.137,0 60,26.863 60,60 0,33.137 -26.863,60 -60,60 -33.137,0 -60,-26.863 -60,-60 z m 8.681,0 c 0,28.343 22.976,51.319 51.319,51.319 28.343,0 51.319,-22.976 51.319,-51.319 0,-28.343 -22.976,-51.319 -51.319,-51.319 -28.343,0 -51.319,22.976 -51.319,51.319 z"
         fill="#2886de"
         fill-rule="evenodd"
         id="path11" />
      <g
         id="g14">
        <g
           id="g13">
          <g
             id="g12">
            <path
               d="m 761.8,180.8 c 0,-8.395 6.805,-15.2 15.2,-15.2 8.395,0 15.2,6.805 15.2,15.2 0,4.567 -2.014,8.664 -5.204,11.451 -0.141,0.115 -0.282,0.233 -0.42,0.354 -2.614,2.123 -5.947,3.395 -9.576,3.395 -8.395,0 -15.2,-6.805 -15.2,-15.2 z m 19.86,19 h -23.627 c -4.201,0 -7.633,3.37 -7.633,7.6 0,6.427 3.165,11.272 8.113,14.427 3.083,1.966 6.846,3.275 10.979,3.971 -0.4,-2.859 0.5,-5.866 2.699,-8.065 l 8.806,-8.805 c -0.602,-3.029 -0.382,-6.192 0.663,-9.128 z m 17.728,-7.51 c 1.393,0.162 1.792,1.828 0.8,2.82 l -3.705,3.706 c -2.238,2.237 -2.238,5.864 0,8.101 2.237,2.238 5.864,2.238 8.101,0 l 3.706,-3.705 c 0.992,-0.992 2.658,-0.593 2.82,0.8 0.456,3.919 -0.819,8.001 -3.825,11.007 -3.77,3.771 -9.233,4.818 -13.944,3.141 l -10.361,10.362 c -2.238,2.237 -5.865,2.237 -8.102,0 -2.237,-2.237 -2.237,-5.864 0,-8.102 l 10.362,-10.361 c -1.677,-4.711 -0.63,-10.174 3.141,-13.944 3.006,-3.006 7.088,-4.281 11.007,-3.825 z"
               fill="#106ebe"
               id="path12" />
          </g>
        </g>
      </g>
      <path
         d="m 334,196 c 0,-32.033 25.967,-58 58,-58 32.033,0 58,25.967 58,58 0,32.033 -25.967,58 -58,58 -32.033,0 -58,-25.967 -58,-58 z"
         fill="#ffffff"
         fill-rule="evenodd"
         id="path14" />
      <path
         d="m 332,196 c 0,-33.137 26.863,-60 60,-60 33.137,0 60,26.863 60,60 0,33.137 -26.863,60 -60,60 -33.137,0 -60,-26.863 -60,-60 z m 8.681,0 c 0,28.343 22.976,51.319 51.319,51.319 28.343,0 51.319,-22.976 51.319,-51.319 0,-28.343 -22.976,-51.319 -51.319,-51.319 -28.343,0 -51.319,22.976 -51.319,51.319 z"
         fill="#2886de"
         fill-rule="evenodd"
         id="path15" />
      <g
         id="g18">
        <g
           id="g17">
          <g
             id="g16">
            <path
               d="m 401.5,207.098 c 0,-1.666 0.286,-3.266 0.811,-4.753 H 373.8 c -3.933,0 -7.121,3.19 -7.121,7.124 v 2.915 c 0,1.812 0.565,3.579 1.616,5.055 4.884,6.856 12.873,10.252 23.706,10.252 4.783,0 9.012,-0.662 12.666,-1.991 v -9.641 c -1.981,-2.449 -3.167,-5.566 -3.167,-8.961 z m -9.499,-42.751 c 8.745,0 15.834,7.092 15.834,15.839 0,8.748 -7.089,15.839 -15.834,15.839 -8.744,0 -15.833,-7.091 -15.833,-15.839 0,-8.747 7.089,-15.839 15.833,-15.839 z m 34.832,42.751 c 0,6.123 -4.962,11.087 -11.083,11.087 -6.121,0 -11.083,-4.964 -11.083,-11.087 0,-6.123 4.962,-11.087 11.083,-11.087 6.121,0 11.083,4.964 11.083,11.087 z m -3.166,11.854 c -2.265,1.517 -4.987,2.401 -7.917,2.401 -2.929,0 -5.652,-0.884 -7.917,-2.401 v 11.102 c 0,0.638 0.716,1.014 1.241,0.652 l 6.676,-4.601 6.676,4.601 c 0.525,0.362 1.241,-0.014 1.241,-0.652 z"
               fill="#106ebe"
               id="path16" />
          </g>
        </g>
      </g>
      <path
         d="m 527,196 c 0,-32.033 25.967,-58 58,-58 32.033,0 58,25.967 58,58 0,32.033 -25.967,58 -58,58 -32.033,0 -58,-25.967 -58,-58 z"
         fill="#ffffff"
         fill-rule="evenodd"
         id="path18" />
      <path
         d="m 524,196 c 0,-33.137 27.087,-60 60.5,-60 33.413,0 60.5,26.863 60.5,60 0,33.137 -27.087,60 -60.5,60 -33.413,0 -60.5,-26.863 -60.5,-60 z m 8.681,0 c 0,28.343 23.2,51.319 51.819,51.319 28.619,0 51.819,-22.976 51.819,-51.319 0,-28.343 -23.2,-51.319 -51.819,-51.319 -28.619,0 -51.819,22.976 -51.819,51.319 z"
         fill="#2886de"
         fill-rule="evenodd"
         id="path19" />
      <g
         id="g22">
        <g
           id="g21">
          <g
             id="g20">
            <path
               d="m 588.167,202.493 v -0.159 h -27.7 c -3.933,0 -7.121,3.188 -7.121,7.121 v 2.913 c 0,1.812 0.565,3.579 1.616,5.054 4.883,6.854 12.873,10.249 23.706,10.249 1.132,0 2.233,-0.037 3.302,-0.111 -0.09,-0.479 -0.137,-0.972 -0.137,-1.476 v -15.833 c 0,-3.83 2.72,-7.025 6.334,-7.758 z m -9.499,-38.144 c 8.744,0 15.833,7.089 15.833,15.833 0,8.745 -7.089,15.834 -15.833,15.834 -8.745,0 -15.834,-7.089 -15.834,-15.834 0,-8.744 7.089,-15.833 15.834,-15.833 z m 12.665,41.152 h -1.583 c -2.623,0 -4.75,2.127 -4.75,4.75 v 15.833 c 0,2.624 2.127,4.75 4.75,4.75 h 25.333 c 2.624,0 4.75,-2.126 4.75,-4.75 v -15.833 c 0,-2.623 -2.126,-4.75 -4.75,-4.75 H 613.5 v -3.959 c 0,-3.06 -2.481,-5.541 -5.542,-5.541 h -11.083 c -3.061,0 -5.542,2.481 -5.542,5.541 z m 4.75,-3.959 c 0,-0.437 0.355,-0.791 0.792,-0.791 h 11.083 c 0.438,0 0.792,0.354 0.792,0.791 v 3.959 h -12.667 z"
               fill="#106ebe"
               id="path20" />
          </g>
        </g>
      </g>
      <path
         d="m 124,258 c 0,-11.598 9.402,-21 21,-21 h 108 c 11.598,0 21,9.402 21,21 v 0 c 0,11.598 -9.402,21 -21,21 H 145 c -11.598,0 -21,-9.402 -21,-21 z"
         stroke="#2886de"
         stroke-width="4"
         stroke-linejoin="round"
         stroke-miterlimit="10"
         fill="#ffffff"
         fill-rule="evenodd"
         id="path22" />
      <text
         fill="#2886de"
         font-family="'Segoe UI Semibold', 'Segoe UI Semibold_MSFontService', sans-serif"
         font-weight="600"
         font-size="21px"
         transform="translate(167.001,266)"
         id="text22">Owner</text>
      <path
         d="m 894,258 c 0,-11.598 9.402,-21 21,-21 h 109 c 11.6,0 21,9.402 21,21 v 0 c 0,11.598 -9.4,21 -21,21 H 915 c -11.598,0 -21,-9.402 -21,-21 z"
         stroke="#2886de"
         stroke-width="4"
         stroke-linejoin="round"
         stroke-miterlimit="10"
         fill="#ffffff"
         fill-rule="evenodd"
         id="path23" />
      <text
         fill="#2886de"
         font-family="'Segoe UI Semibold', 'Segoe UI Semibold_MSFontService', sans-serif"
         font-weight="600"
         font-size="21px"
         transform="translate(920.463,266)"
         id="text23">Consumer</text>
      <path
         d="m 702,258 c 0,-11.598 9.402,-21 21,-21 h 108 c 11.598,0 21,9.402 21,21 v 0 c 0,11.598 -9.402,21 -21,21 H 723 c -11.598,0 -21,-9.402 -21,-21 z"
         stroke="#2886de"
         stroke-width="4"
         stroke-linejoin="round"
         stroke-miterlimit="10"
         fill="#ffffff"
         fill-rule="evenodd"
         id="path24" />
      <text
         fill="#2886de"
         font-family="'Segoe UI Semibold', 'Segoe UI Semibold_MSFontService', sans-serif"
         font-weight="600"
         font-size="21px"
         transform="translate(744.91,266)"
         id="text24">Admin</text>
      <path
         d="m 316,258 c 0,-11.598 9.402,-21 21,-21 h 109 c 11.598,0 21,9.402 21,21 v 0 c 0,11.598 -9.402,21 -21,21 H 337 c -11.598,0 -21,-9.402 -21,-21 z"
         stroke="#2886de"
         stroke-width="4"
         stroke-linejoin="round"
         stroke-miterlimit="10"
         fill="#ffffff"
         fill-rule="evenodd"
         id="path25" />
      <text
         fill="#2886de"
         font-family="'Segoe UI Semibold', 'Segoe UI Semibold_MSFontService', sans-serif"
         font-weight="600"
         font-size="21px"
         transform="translate(352.767,266)"
         id="text25">Steward</text>
      <path
         d="m 509,258 c 0,-11.598 9.402,-21 21,-21 h 109 c 11.598,0 21,9.402 21,21 v 0 c 0,11.598 -9.402,21 -21,21 H 530 c -11.598,0 -21,-9.402 -21,-21 z"
         stroke="#2886de"
         stroke-width="4"
         stroke-linejoin="round"
         stroke-miterlimit="10"
         fill="#ffffff"
         fill-rule="evenodd"
         id="path26" />
      <text
         fill="#2886de"
         font-family="'Segoe UI Semibold', 'Segoe UI Semibold_MSFontService', sans-serif"
         font-weight="600"
         font-size="21px"
         transform="translate(553.3,266)"
         id="text26">Expert</text>
    </g>
  </g>
</svg>
