<?xml version="1.0" encoding="UTF-8" standalone="no"?>
<svg
   xmlns:dc="http://purl.org/dc/elements/1.1/"
   xmlns:cc="http://creativecommons.org/ns#"
   xmlns:rdf="http://www.w3.org/1999/02/22-rdf-syntax-ns#"
   xmlns:svg="http://www.w3.org/2000/svg"
   xmlns="http://www.w3.org/2000/svg"
   xmlns:sodipodi="http://sodipodi.sourceforge.net/DTD/sodipodi-0.dtd"
   xmlns:inkscape="http://www.inkscape.org/namespaces/inkscape"
   viewBox="0 0 362.86 245"
   version="1.1"
   id="svg15458"
   sodipodi:docname="4-hpc-pack-hybrid.svg"
   inkscape:version="1.0.2-2 (e86c870879, 2021-01-15)">
  <metadata
     id="metadata15464">
    <rdf:RDF>
      <cc:Work
         rdf:about="">
        <dc:format>image/svg+xml</dc:format>
        <dc:type
           rdf:resource="http://purl.org/dc/dcmitype/StillImage" />
      </cc:Work>
    </rdf:RDF>
  </metadata>
  <defs
     id="defs15462">
    <linearGradient
       id="edb2ea05-4c60-42fb-9b9a-0edf2b99dad4"
       x1="-811.93542"
       y1="107.4208"
       x2="-816.85242"
       y2="92.894897"
       gradientTransform="matrix(1,0,0,-1,820,110)"
       gradientUnits="userSpaceOnUse">
      <stop
         offset="0"
         stop-color="#114a8b"
         id="stop19962" />
      <stop
         offset="1"
         stop-color="#0669bc"
         id="stop19964" />
    </linearGradient>
    <linearGradient
       id="ac228590-1978-4cad-a0d4-e155e1dae5a8"
       x1="-811.03491"
       y1="107.8446"
       x2="-805.63757"
       y2="93.464897"
       gradientTransform="matrix(1,0,0,-1,820,110)"
       gradientUnits="userSpaceOnUse">
      <stop
         offset="0"
         stop-color="#3ccbf4"
         id="stop19967" />
      <stop
         offset="1"
         stop-color="#2892df"
         id="stop19969" />
    </linearGradient>
  </defs>
  <sodipodi:namedview
     pagecolor="#ffffff"
     bordercolor="#666666"
     borderopacity="1"
     objecttolerance="10"
     gridtolerance="10"
     guidetolerance="10"
     inkscape:pageopacity="0"
     inkscape:pageshadow="2"
     inkscape:window-width="1920"
     inkscape:window-height="1017"
     id="namedview15460"
     showgrid="false"
     inkscape:zoom="2.871631"
     inkscape:cx="181.42999"
     inkscape:cy="122.5"
     inkscape:window-x="1912"
     inkscape:window-y="-8"
     inkscape:window-maximized="1"
     inkscape:current-layer="svg15458" />
  <title
     id="title15180">4-hpc-pack-hybrid</title>
  <g
     id="g20356">
    <rect
       width="362.85999"
       height="245"
       fill="#ffffff"
       id="rect15182"
       x="0"
       y="0" />
    <g
       id="g15188">
      <rect
         x="8.9200001"
         y="22.51"
         width="170.21001"
         height="222.49001"
         fill="#ffffff"
         id="rect15184" />
      <rect
         x="8.9200001"
         y="22.51"
         width="170.21001"
         height="222.49001"
         fill="#3c3c41"
         opacity="0.15"
         id="rect15186" />
    </g>
    <g
       id="g15214">
      <rect
         x="13.09"
         y="3.4000001"
         width="4.0799999"
         height="4.7600002"
         fill="#7a7a7a"
         id="rect15190" />
      <rect
         x="13.09"
         y="3.4000001"
         width="4.0799999"
         height="4.7600002"
         fill="#7a7a7a"
         id="rect15192" />
      <rect
         x="13.09"
         y="3.4000001"
         width="4.0799999"
         height="4.7600002"
         fill="#7a7a7a"
         id="rect15194" />
      <g
         id="g15212">
        <path
           d="M 20.4,32.3 A 1.69,1.69 0 0 1 18.7,34 H 1.7 A 1.69,1.69 0 0 1 0,32.3 V 1.7 A 1.69,1.69 0 0 1 1.7,0 h 16.93 a 1.69,1.69 0 0 1 1.7,1.7 v 30.6 z"
           fill="#a0a1a2"
           id="path15196" />
        <rect
           x="2.72"
           y="10.88"
           width="4.0799999"
           height="4.7600002"
           fill="#7a7a7a"
           id="rect15198" />
        <rect
           x="8.1599998"
           y="10.88"
           width="4.0799999"
           height="4.7600002"
           fill="#7a7a7a"
           id="rect15200" />
        <rect
           x="13.6"
           y="10.88"
           width="4.0799999"
           height="4.7600002"
           fill="#7a7a7a"
           id="rect15202" />
        <rect
           x="2.72"
           y="18.360001"
           width="4.0799999"
           height="4.7600002"
           fill="#7a7a7a"
           id="rect15204" />
        <rect
           x="8.1599998"
           y="18.360001"
           width="4.0799999"
           height="4.7600002"
           fill="#7a7a7a"
           id="rect15206" />
        <rect
           x="13.6"
           y="18.360001"
           width="4.0799999"
           height="4.7600002"
           fill="#7a7a7a"
           id="rect15208" />
        <path
           d="M 20.26,33.39 21.69,34 21.83,33.8 23,32.44 h 1.16 L 25.5,34 26.93,33.39 v -0.21 l -0.14,-1.76 0.82,-0.82 2,0.14 0.61,-1.5 -0.14,-0.2 -1.36,-1.16 v -1.22 l 1.5,-1.36 -0.54,-1.5 h -0.21 l -1.77,0.14 -0.81,-0.82 0.13,-2 -1.49,-0.68 -0.14,0.2 L 24.28,22 H 23.12 L 21.76,20.4 20.33,21 v 0.27 l 0.14,1.77 -0.82,0.82 -2,-0.14 -0.65,1.51 0.2,0.13 1.36,1.16 v 1.22 l -1.49,1.36 0.61,1.5 h 0.2 l 1.77,-0.14 0.82,0.89 z m 0.48,-7.48 a 3.2,3.2 0 0 1 4.26,-1.77 3.3,3.3 0 0 1 1.7,4.28 3.22,3.22 0 1 1 -5.92,-2.51"
           fill="#3e3e3e"
           id="path15210" />
      </g>
    </g>
    <g
       id="g15232">
      <path
         d="m 41.91,214.84 a 6.38,6.38 0 0 1 1.44,1.06 6.26,6.26 0 0 1 1.08,1.39 6.43,6.43 0 0 1 0.67,1.62 6.5,6.5 0 0 1 0.2,1.77 l -1.6,-0.05 a 4.56,4.56 0 0 0 -0.33,-1.87 4.93,4.93 0 0 0 -2.48,-2.63 4.68,4.68 0 0 0 -1.89,-0.43 4.58,4.58 0 0 0 -1.88,0.33 4.7,4.7 0 0 0 -1.55,1 4.77,4.77 0 0 0 -1.07,1.5 4.45,4.45 0 0 0 -0.44,1.85 4.79,4.79 0 0 1 -2.06,3.8 6.57,6.57 0 0 1 1.44,1.07 6.27,6.27 0 0 1 1.08,1.38 6.41,6.41 0 0 1 0.66,1.62 5.8,5.8 0 0 1 0.2,1.77 l -1.6,-0.05 a 4.55,4.55 0 0 0 -0.32,-1.87 4.93,4.93 0 0 0 -2.46,-2.65 4.83,4.83 0 0 0 -3.73,-0.11 4.89,4.89 0 0 0 -1.55,1 4.8,4.8 0 0 0 -1.08,1.5 4.61,4.61 0 0 0 -0.43,1.85 l -1.6,-0.05 a 6.49,6.49 0 0 1 0.3,-1.76 6.22,6.22 0 0 1 0.76,-1.58 6.8,6.8 0 0 1 1.17,-1.3 6.26,6.26 0 0 1 1.5,-1 4.79,4.79 0 0 1 -1.34,-1.74 4.7,4.7 0 0 1 -0.46,-2.18 4.65,4.65 0 0 1 0.44,-1.85 4.84,4.84 0 0 1 2.63,-2.48 4.53,4.53 0 0 1 1.87,-0.33 4.8,4.8 0 0 1 2.15,0.58 4.92,4.92 0 0 1 1.66,1.48 6.47,6.47 0 0 1 1.26,-1.64 6.53,6.53 0 0 1 1.71,-1.16 4.78,4.78 0 0 1 -1.84,-3.92 4.64,4.64 0 0 1 0.43,-1.85 4.93,4.93 0 0 1 2.63,-2.48 4.56,4.56 0 0 1 1.87,-0.33 4.61,4.61 0 0 1 1.85,0.44 4.93,4.93 0 0 1 1.5,1.07 5.06,5.06 0 0 1 1,1.56 4.8,4.8 0 0 1 -1.74,5.67 z m -12.7,8.58 a 3.06,3.06 0 0 0 1.24,-0.22 3.18,3.18 0 0 0 1,-0.66 3.23,3.23 0 0 0 0.72,-1 3.15,3.15 0 0 0 0.07,-2.48 3.25,3.25 0 0 0 -1.66,-1.76 3,3 0 0 0 -1.23,-0.29 3.11,3.11 0 0 0 -1.25,0.22 3.36,3.36 0 0 0 -1,0.66 3.3,3.3 0 0 0 -0.71,1 3.09,3.09 0 0 0 -0.08,2.48 3.36,3.36 0 0 0 0.66,1 3.32,3.32 0 0 0 1,0.72 3,3 0 0 0 1.24,0.33 z M 36,210.81 a 2.92,2.92 0 0 0 0.22,1.25 3.19,3.19 0 0 0 0.66,1 3.28,3.28 0 0 0 1,0.72 3,3 0 0 0 1.23,0.29 3.11,3.11 0 0 0 1.25,-0.22 3.22,3.22 0 0 0 1.75,-1.65 3,3 0 0 0 0.29,-1.24 2.93,2.93 0 0 0 -0.22,-1.24 3.27,3.27 0 0 0 -0.65,-1 3.45,3.45 0 0 0 -1,-0.72 3.14,3.14 0 0 0 -2.48,-0.07 3.19,3.19 0 0 0 -1.75,1.66 3,3 0 0 0 -0.3,1.22 z"
         id="path15216" />
      <path
         d="m 146.87,213.19 a 4.8,4.8 0 0 1 -0.26,-4 4.84,4.84 0 0 1 2.48,-2.63 4.7,4.7 0 0 1 1.86,-0.44 4.56,4.56 0 0 1 1.87,0.33 4.93,4.93 0 0 1 2.63,2.48 4.64,4.64 0 0 1 0.43,1.85 4.78,4.78 0 0 1 -1.84,3.92 6.7,6.7 0 0 1 1.71,1.16 6.47,6.47 0 0 1 1.26,1.64 4.83,4.83 0 0 1 1.66,-1.48 4.77,4.77 0 0 1 2.15,-0.58 4.53,4.53 0 0 1 1.87,0.33 4.93,4.93 0 0 1 2.63,2.48 4.64,4.64 0 0 1 0.43,1.85 4.69,4.69 0 0 1 -0.45,2.18 4.89,4.89 0 0 1 -1.38,1.74 6,6 0 0 1 1.49,1 6.35,6.35 0 0 1 2.22,4.65 l -1.6,0.05 a 4.61,4.61 0 0 0 -0.43,-1.85 5,5 0 0 0 -1.08,-1.5 4.89,4.89 0 0 0 -1.55,-1 4.74,4.74 0 0 0 -1.88,-0.32 4.68,4.68 0 0 0 -1.85,0.43 4.93,4.93 0 0 0 -2.48,2.63 4.56,4.56 0 0 0 -0.33,1.87 l -1.6,0.05 a 6.5,6.5 0 0 1 0.2,-1.77 6.43,6.43 0 0 1 0.67,-1.62 6,6 0 0 1 1.08,-1.38 6.13,6.13 0 0 1 1.44,-1.07 4.79,4.79 0 0 1 -2.06,-3.8 4.61,4.61 0 0 0 -0.44,-1.85 4.93,4.93 0 0 0 -1.07,-1.5 4.85,4.85 0 0 0 -1.56,-1 4.53,4.53 0 0 0 -1.87,-0.33 4.64,4.64 0 0 0 -1.85,0.43 4.93,4.93 0 0 0 -2.48,2.63 4.56,4.56 0 0 0 -0.33,1.87 l -1.6,0.05 a 6.13,6.13 0 0 1 0.2,-1.77 6.43,6.43 0 0 1 0.67,-1.62 6.26,6.26 0 0 1 1.08,-1.39 6.38,6.38 0 0 1 1.44,-1.06 4.7,4.7 0 0 1 -1.48,-1.66 z m 15.41,9.94 a 3.32,3.32 0 0 0 1,-0.72 3.16,3.16 0 0 0 0.65,-1 2.92,2.92 0 0 0 0.22,-1.25 2.89,2.89 0 0 0 -0.29,-1.23 3.19,3.19 0 0 0 -1.75,-1.66 3.14,3.14 0 0 0 -2.48,0.07 3.41,3.41 0 0 0 -1,0.72 3.29,3.29 0 0 0 -0.66,1 2.9,2.9 0 0 0 -0.22,1.24 3,3 0 0 0 0.29,1.24 3.31,3.31 0 0 0 1.75,1.65 3.11,3.11 0 0 0 1.25,0.22 3,3 0 0 0 1.24,-0.28 z M 154,209.58 a 3.28,3.28 0 0 0 -1.75,-1.66 3.14,3.14 0 0 0 -2.48,0.07 3.45,3.45 0 0 0 -1,0.72 3.33,3.33 0 0 0 -0.88,2.28 3.06,3.06 0 0 0 0.3,1.24 3.22,3.22 0 0 0 1.75,1.65 3.11,3.11 0 0 0 1.25,0.22 3,3 0 0 0 1.23,-0.29 3.41,3.41 0 0 0 1,-0.72 3.36,3.36 0 0 0 0.66,-1 3.08,3.08 0 0 0 0.22,-1.25 3,3 0 0 0 -0.3,-1.26 z"
         id="path15218" />
      <path
         d="m 126.87,223.19 a 4.8,4.8 0 0 1 -0.26,-4 4.84,4.84 0 0 1 2.48,-2.63 4.7,4.7 0 0 1 1.86,-0.44 4.56,4.56 0 0 1 1.87,0.33 4.93,4.93 0 0 1 2.63,2.48 4.64,4.64 0 0 1 0.43,1.85 4.78,4.78 0 0 1 -1.84,3.92 6.7,6.7 0 0 1 1.71,1.16 6.47,6.47 0 0 1 1.26,1.64 4.83,4.83 0 0 1 1.66,-1.48 4.77,4.77 0 0 1 2.15,-0.58 4.53,4.53 0 0 1 1.87,0.33 4.93,4.93 0 0 1 2.63,2.48 4.64,4.64 0 0 1 0.43,1.85 4.69,4.69 0 0 1 -0.45,2.18 4.89,4.89 0 0 1 -1.38,1.74 6,6 0 0 1 1.49,1 6.35,6.35 0 0 1 2.22,4.65 l -1.6,0.05 a 4.61,4.61 0 0 0 -0.43,-1.85 5,5 0 0 0 -1.08,-1.5 4.89,4.89 0 0 0 -1.55,-1 4.74,4.74 0 0 0 -1.88,-0.32 4.68,4.68 0 0 0 -1.85,0.43 4.93,4.93 0 0 0 -2.48,2.63 4.56,4.56 0 0 0 -0.33,1.87 l -1.6,0.05 a 6.5,6.5 0 0 1 0.2,-1.77 6.43,6.43 0 0 1 0.67,-1.62 6,6 0 0 1 1.08,-1.38 6.13,6.13 0 0 1 1.44,-1.07 4.79,4.79 0 0 1 -2.06,-3.8 4.61,4.61 0 0 0 -0.44,-1.85 4.93,4.93 0 0 0 -1.07,-1.5 4.85,4.85 0 0 0 -1.56,-1 4.53,4.53 0 0 0 -1.87,-0.33 4.64,4.64 0 0 0 -1.85,0.43 4.93,4.93 0 0 0 -2.48,2.63 4.56,4.56 0 0 0 -0.33,1.87 l -1.6,0.05 a 6.13,6.13 0 0 1 0.2,-1.77 6.43,6.43 0 0 1 0.67,-1.62 6.26,6.26 0 0 1 1.08,-1.39 6.38,6.38 0 0 1 1.44,-1.06 4.7,4.7 0 0 1 -1.48,-1.66 z m 15.41,9.94 a 3.32,3.32 0 0 0 1,-0.72 3.16,3.16 0 0 0 0.65,-1 2.92,2.92 0 0 0 0.22,-1.25 2.89,2.89 0 0 0 -0.29,-1.23 3.19,3.19 0 0 0 -1.75,-1.66 3.14,3.14 0 0 0 -2.48,0.07 3.41,3.41 0 0 0 -1,0.72 3.29,3.29 0 0 0 -0.66,1 2.9,2.9 0 0 0 -0.22,1.24 3,3 0 0 0 0.29,1.24 3.31,3.31 0 0 0 1.75,1.65 3.11,3.11 0 0 0 1.25,0.22 3,3 0 0 0 1.24,-0.28 z M 134,219.58 a 3.28,3.28 0 0 0 -1.75,-1.66 3.14,3.14 0 0 0 -2.48,0.07 3.45,3.45 0 0 0 -1,0.72 3.33,3.33 0 0 0 -0.88,2.28 3.06,3.06 0 0 0 0.3,1.24 3.22,3.22 0 0 0 1.75,1.65 3.11,3.11 0 0 0 1.25,0.22 3,3 0 0 0 1.23,-0.29 3.41,3.41 0 0 0 1,-0.72 3.36,3.36 0 0 0 0.66,-1 3.08,3.08 0 0 0 0.22,-1.25 3,3 0 0 0 -0.3,-1.26 z"
         id="path15220" />
      <path
         d="m 83.72,211.75 a 6,6 0 0 0 -1.28,1 6.08,6.08 0 0 0 -1,1.25 5.82,5.82 0 0 0 -0.62,1.45 5.7,5.7 0 0 0 -0.22,1.59 h 2 a 3.91,3.91 0 0 1 0.32,-1.55 4.06,4.06 0 0 1 2.13,-2.13 3.91,3.91 0 0 1 1.55,-0.32 3.84,3.84 0 0 1 1.55,0.32 4.06,4.06 0 0 1 2.13,2.13 3.91,3.91 0 0 1 0.32,1.55 6.06,6.06 0 0 0 2.44,4.83 8.15,8.15 0 0 0 -1.84,1.27 8,8 0 0 0 -2.29,3.69 7.76,7.76 0 0 0 -0.31,2.21 h 2 a 5.75,5.75 0 0 1 0.48,-2.33 5.82,5.82 0 0 1 1.29,-1.9 6.14,6.14 0 0 1 1.9,-1.29 5.9,5.9 0 0 1 4.66,0 6,6 0 0 1 1.9,1.29 5.82,5.82 0 0 1 1.29,1.9 5.75,5.75 0 0 1 0.48,2.33 h 2 a 7.76,7.76 0 0 0 -0.31,-2.21 8.36,8.36 0 0 0 -0.89,-2 8.68,8.68 0 0 0 -1.4,-1.69 8.15,8.15 0 0 0 -1.84,-1.27 6.06,6.06 0 0 0 2.44,-4.83 3.91,3.91 0 0 1 0.32,-1.55 4.06,4.06 0 0 1 2.13,-2.13 3.91,3.91 0 0 1 1.55,-0.32 3.84,3.84 0 0 1 1.55,0.32 4.06,4.06 0 0 1 2.13,2.13 3.91,3.91 0 0 1 0.32,1.55 h 2 a 5.7,5.7 0 0 0 -0.22,-1.59 6.21,6.21 0 0 0 -0.62,-1.45 6.08,6.08 0 0 0 -1,-1.25 6.21,6.21 0 0 0 -1.28,-1 4.1,4.1 0 0 0 1.09,-2.75 3.91,3.91 0 0 0 -0.32,-1.55 4.06,4.06 0 0 0 -2.13,-2.13 3.84,3.84 0 0 0 -1.55,-0.32 3.91,3.91 0 0 0 -1.55,0.32 4.06,4.06 0 0 0 -2.13,2.13 3.92,3.92 0 0 0 0,3 4,4 0 0 0 0.8,1.27 5.8,5.8 0 0 0 -2.09,1.94 6,6 0 0 0 -2.16,-2 6,6 0 0 0 -5.68,0 6,6 0 0 0 -2.16,2 5.8,5.8 0 0 0 -2.09,-1.94 4.1,4.1 0 0 0 1.12,-2.72 3.91,3.91 0 0 0 -0.32,-1.55 4.06,4.06 0 0 0 -2.13,-2.13 3.84,3.84 0 0 0 -1.55,-0.32 3.91,3.91 0 0 0 -1.55,0.32 4.06,4.06 0 0 0 -2.08,2.13 3.92,3.92 0 0 0 0,3 4,4 0 0 0 0.72,1.3 z M 108.63,209 a 1.85,1.85 0 0 1 -0.16,0.78 2.06,2.06 0 0 1 -1.06,1.06 2,2 0 0 1 -1.56,0 2.06,2.06 0 0 1 -1.06,-1.06 2,2 0 0 1 0,-1.56 2.06,2.06 0 0 1 1.06,-1.06 2,2 0 0 1 1.56,0 2.06,2.06 0 0 1 1.06,1.06 1.85,1.85 0 0 1 0.16,0.78 z m -12,12 a 3.91,3.91 0 0 1 -1.55,-0.32 4,4 0 0 1 -1.27,-0.86 4.09,4.09 0 0 1 -0.86,-1.26 3.94,3.94 0 0 1 0,-3.11 4.06,4.06 0 0 1 2.13,-2.13 3.91,3.91 0 0 1 1.55,-0.32 3.84,3.84 0 0 1 1.55,0.32 4.06,4.06 0 0 1 2.13,2.13 3.94,3.94 0 0 1 0,3.11 4.09,4.09 0 0 1 -0.86,1.26 4,4 0 0 1 -1.27,0.86 3.84,3.84 0 0 1 -1.55,0.32 z m -8,-12 a 1.85,1.85 0 0 1 -0.16,0.78 2.06,2.06 0 0 1 -1.06,1.06 2,2 0 0 1 -1.56,0 2.06,2.06 0 0 1 -1.06,-1.06 2,2 0 0 1 0,-1.56 2.06,2.06 0 0 1 1.06,-1.06 2,2 0 0 1 1.56,0 2.06,2.06 0 0 1 1.06,1.06 1.85,1.85 0 0 1 0.16,0.78 z"
         id="path15222" />
      <path
         d="m 118.72,191.75 a 6,6 0 0 0 -1.28,1 6.08,6.08 0 0 0 -1,1.25 5.82,5.82 0 0 0 -0.62,1.45 5.7,5.7 0 0 0 -0.22,1.59 h 2 a 3.91,3.91 0 0 1 0.32,-1.55 4.06,4.06 0 0 1 2.13,-2.13 3.91,3.91 0 0 1 1.55,-0.32 3.84,3.84 0 0 1 1.55,0.32 4.06,4.06 0 0 1 2.13,2.13 3.91,3.91 0 0 1 0.32,1.55 6.06,6.06 0 0 0 2.44,4.83 8.15,8.15 0 0 0 -1.84,1.27 8,8 0 0 0 -2.29,3.69 7.76,7.76 0 0 0 -0.31,2.21 h 2 a 5.75,5.75 0 0 1 0.48,-2.33 5.82,5.82 0 0 1 1.29,-1.9 6.14,6.14 0 0 1 1.9,-1.29 5.9,5.9 0 0 1 4.66,0 6,6 0 0 1 1.9,1.29 5.82,5.82 0 0 1 1.29,1.9 5.75,5.75 0 0 1 0.48,2.33 h 2 a 7.76,7.76 0 0 0 -0.31,-2.21 8.36,8.36 0 0 0 -0.89,-2 8.68,8.68 0 0 0 -1.4,-1.69 8.15,8.15 0 0 0 -1.84,-1.27 6.06,6.06 0 0 0 2.44,-4.83 3.91,3.91 0 0 1 0.32,-1.55 4.06,4.06 0 0 1 2.13,-2.13 3.91,3.91 0 0 1 1.55,-0.32 3.84,3.84 0 0 1 1.55,0.32 4.06,4.06 0 0 1 2.13,2.13 3.91,3.91 0 0 1 0.32,1.55 h 2 a 5.7,5.7 0 0 0 -0.22,-1.59 6.21,6.21 0 0 0 -0.62,-1.45 6.08,6.08 0 0 0 -1,-1.25 6.21,6.21 0 0 0 -1.28,-1 4.1,4.1 0 0 0 1.09,-2.75 3.91,3.91 0 0 0 -0.32,-1.55 4.06,4.06 0 0 0 -2.13,-2.13 3.84,3.84 0 0 0 -1.55,-0.32 3.91,3.91 0 0 0 -1.55,0.32 4.06,4.06 0 0 0 -2.13,2.13 3.92,3.92 0 0 0 0,3 4,4 0 0 0 0.8,1.27 5.8,5.8 0 0 0 -2.09,1.94 6,6 0 0 0 -2.16,-2 6,6 0 0 0 -5.68,0 6,6 0 0 0 -2.16,2 5.8,5.8 0 0 0 -2.09,-1.94 4.1,4.1 0 0 0 1.09,-2.75 3.91,3.91 0 0 0 -0.32,-1.55 4.06,4.06 0 0 0 -2.13,-2.13 3.84,3.84 0 0 0 -1.55,-0.32 3.91,3.91 0 0 0 -1.55,0.32 4.06,4.06 0 0 0 -2.13,2.13 3.92,3.92 0 0 0 0,3 4,4 0 0 0 0.8,1.33 z M 143.63,189 a 1.85,1.85 0 0 1 -0.16,0.78 2.06,2.06 0 0 1 -1.06,1.06 2,2 0 0 1 -1.56,0 2.06,2.06 0 0 1 -1.06,-1.06 2,2 0 0 1 0,-1.56 2.06,2.06 0 0 1 1.06,-1.06 2,2 0 0 1 1.56,0 2.06,2.06 0 0 1 1.06,1.06 1.85,1.85 0 0 1 0.16,0.78 z m -12,12 a 3.91,3.91 0 0 1 -1.55,-0.32 4,4 0 0 1 -1.27,-0.86 4.09,4.09 0 0 1 -0.86,-1.26 3.94,3.94 0 0 1 0,-3.11 4.06,4.06 0 0 1 2.13,-2.13 3.91,3.91 0 0 1 1.55,-0.32 3.84,3.84 0 0 1 1.55,0.32 4.06,4.06 0 0 1 2.13,2.13 3.94,3.94 0 0 1 0,3.11 4.09,4.09 0 0 1 -0.86,1.26 4,4 0 0 1 -1.27,0.86 3.84,3.84 0 0 1 -1.55,0.32 z m -8,-12 a 1.85,1.85 0 0 1 -0.16,0.78 2.06,2.06 0 0 1 -1.06,1.06 2,2 0 0 1 -1.56,0 2.06,2.06 0 0 1 -1.06,-1.06 2,2 0 0 1 0,-1.56 2.06,2.06 0 0 1 1.06,-1.06 2,2 0 0 1 1.56,0 2.06,2.06 0 0 1 1.06,1.06 1.85,1.85 0 0 1 0.16,0.78 z"
         id="path15224" />
      <path
         d="m 45.72,191.75 a 6,6 0 0 0 -1.28,1 6.08,6.08 0 0 0 -1,1.25 5.82,5.82 0 0 0 -0.62,1.45 5.7,5.7 0 0 0 -0.22,1.59 h 2 a 3.91,3.91 0 0 1 0.32,-1.55 4.06,4.06 0 0 1 2.13,-2.13 3.91,3.91 0 0 1 1.55,-0.32 3.84,3.84 0 0 1 1.55,0.32 4.06,4.06 0 0 1 2.13,2.13 3.91,3.91 0 0 1 0.32,1.55 6.06,6.06 0 0 0 2.44,4.83 8.15,8.15 0 0 0 -1.84,1.27 8,8 0 0 0 -2.29,3.69 7.76,7.76 0 0 0 -0.31,2.21 h 2 a 5.75,5.75 0 0 1 0.48,-2.33 5.82,5.82 0 0 1 1.29,-1.9 6.14,6.14 0 0 1 1.9,-1.29 5.9,5.9 0 0 1 4.66,0 6,6 0 0 1 1.9,1.29 5.82,5.82 0 0 1 1.29,1.9 5.75,5.75 0 0 1 0.48,2.33 h 2 a 7.76,7.76 0 0 0 -0.31,-2.21 8.36,8.36 0 0 0 -0.89,-2 8.68,8.68 0 0 0 -1.4,-1.73 8.15,8.15 0 0 0 -1.84,-1.27 6.06,6.06 0 0 0 2.47,-4.83 3.91,3.91 0 0 1 0.32,-1.55 4.06,4.06 0 0 1 2.13,-2.13 3.91,3.91 0 0 1 1.55,-0.32 3.84,3.84 0 0 1 1.55,0.32 4.06,4.06 0 0 1 2.13,2.13 3.91,3.91 0 0 1 0.32,1.55 h 2 a 5.7,5.7 0 0 0 -0.22,-1.59 6.21,6.21 0 0 0 -0.62,-1.45 6.08,6.08 0 0 0 -1,-1.25 6.21,6.21 0 0 0 -1.28,-1 4.1,4.1 0 0 0 1.12,-2.71 3.91,3.91 0 0 0 -0.32,-1.55 4.06,4.06 0 0 0 -2.13,-2.13 3.84,3.84 0 0 0 -1.55,-0.32 3.91,3.91 0 0 0 -1.55,0.32 4.06,4.06 0 0 0 -2.08,2.13 3.92,3.92 0 0 0 0,3 4,4 0 0 0 0.8,1.27 5.8,5.8 0 0 0 -2.09,1.94 6,6 0 0 0 -2.16,-2 6,6 0 0 0 -5.68,0 6,6 0 0 0 -2.16,2 5.8,5.8 0 0 0 -2.09,-1.94 4.1,4.1 0 0 0 1.01,-2.72 3.91,3.91 0 0 0 -0.32,-1.55 4.06,4.06 0 0 0 -2.13,-2.13 3.84,3.84 0 0 0 -1.55,-0.32 3.91,3.91 0 0 0 -1.55,0.32 4.06,4.06 0 0 0 -2.08,2.13 3.92,3.92 0 0 0 0,3 4,4 0 0 0 0.72,1.3 z M 70.63,189 a 1.85,1.85 0 0 1 -0.16,0.78 2.06,2.06 0 0 1 -1.06,1.06 2,2 0 0 1 -1.56,0 2.06,2.06 0 0 1 -1.06,-1.06 2,2 0 0 1 0,-1.56 2.06,2.06 0 0 1 1.06,-1.06 2,2 0 0 1 1.56,0 2.06,2.06 0 0 1 1.06,1.06 1.85,1.85 0 0 1 0.16,0.78 z m -12,12 a 3.91,3.91 0 0 1 -1.55,-0.32 4,4 0 0 1 -1.27,-0.86 4.09,4.09 0 0 1 -0.86,-1.26 3.94,3.94 0 0 1 0,-3.11 4.06,4.06 0 0 1 2.13,-2.13 3.91,3.91 0 0 1 1.55,-0.32 3.84,3.84 0 0 1 1.55,0.32 4.06,4.06 0 0 1 2.13,2.13 3.94,3.94 0 0 1 0,3.11 4.09,4.09 0 0 1 -0.86,1.26 4,4 0 0 1 -1.27,0.86 3.84,3.84 0 0 1 -1.55,0.32 z m -8,-12 a 1.85,1.85 0 0 1 -0.16,0.78 2.06,2.06 0 0 1 -1.06,1.06 2,2 0 0 1 -1.56,0 2.06,2.06 0 0 1 -1.06,-1.06 2,2 0 0 1 0,-1.56 2.06,2.06 0 0 1 1.06,-1.06 2,2 0 0 1 1.56,0 2.06,2.06 0 0 1 1.06,1.06 1.85,1.85 0 0 1 0.16,0.78 z"
         id="path15226" />
      <path
         d="m 71.9,221 a 5.79,5.79 0 0 1 -0.66,2.7 5.88,5.88 0 0 1 -1.83,2.13 8.11,8.11 0 0 1 4.21,5 7.77,7.77 0 0 1 0.32,2.21 h -2 a 5.6,5.6 0 0 0 -0.49,-2.33 6.16,6.16 0 0 0 -5.67,-3.71 5.91,5.91 0 0 0 -2.37,0.48 6,6 0 0 0 -1.94,1.29 6.23,6.23 0 0 0 -1.32,1.9 5.75,5.75 0 0 0 -0.48,2.33 h -2 a 7.85,7.85 0 0 1 1.23,-4.21 8.12,8.12 0 0 1 1.42,-1.69 8.33,8.33 0 0 1 1.87,-1.27 6,6 0 0 1 -1.82,-2.13 5.87,5.87 0 0 1 -0.18,-5 6.23,6.23 0 0 1 1.32,-1.9 6,6 0 0 1 1.94,-1.29 5.91,5.91 0 0 1 2.37,-0.48 6.15,6.15 0 0 1 2.76,0.65 6,6 0 0 1 2.16,1.79 7.45,7.45 0 0 1 1.16,3.53 z m -6.12,4 a 4.06,4.06 0 0 0 1.58,-0.32 4.15,4.15 0 0 0 1.3,-0.86 4,4 0 0 0 0.87,-1.27 3.69,3.69 0 0 0 0.33,-1.55 3.75,3.75 0 0 0 -0.33,-1.55 4,4 0 0 0 -0.87,-1.27 4.15,4.15 0 0 0 -1.3,-0.86 4.06,4.06 0 0 0 -1.58,-0.32 4.1,4.1 0 0 0 -2.87,1.18 4.07,4.07 0 0 0 -0.88,1.27 3.74,3.74 0 0 0 -0.32,1.55 3.68,3.68 0 0 0 0.32,1.55 4.07,4.07 0 0 0 0.88,1.27 4.1,4.1 0 0 0 2.87,1.18 z"
         id="path15228" />
      <path
         d="m 101.9,186 a 5.79,5.79 0 0 1 -0.66,2.7 5.88,5.88 0 0 1 -1.83,2.13 8.11,8.11 0 0 1 4.21,5 7.77,7.77 0 0 1 0.32,2.21 h -2 a 5.6,5.6 0 0 0 -0.49,-2.33 6.16,6.16 0 0 0 -5.67,-3.71 5.91,5.91 0 0 0 -2.37,0.48 6,6 0 0 0 -1.94,1.29 6.23,6.23 0 0 0 -1.32,1.9 5.75,5.75 0 0 0 -0.48,2.33 h -2 a 7.85,7.85 0 0 1 1.23,-4.21 8.12,8.12 0 0 1 1.42,-1.69 8.33,8.33 0 0 1 1.87,-1.27 6,6 0 0 1 -1.82,-2.13 5.87,5.87 0 0 1 -0.18,-5 6.23,6.23 0 0 1 1.32,-1.9 6,6 0 0 1 1.94,-1.29 5.91,5.91 0 0 1 2.37,-0.48 6.15,6.15 0 0 1 2.76,0.65 6,6 0 0 1 2.16,1.79 7.45,7.45 0 0 1 1.16,3.53 z m -6.12,4 a 4.06,4.06 0 0 0 1.58,-0.32 4.15,4.15 0 0 0 1.3,-0.86 4,4 0 0 0 0.87,-1.27 3.69,3.69 0 0 0 0.33,-1.55 3.75,3.75 0 0 0 -0.33,-1.55 4,4 0 0 0 -0.87,-1.27 4.15,4.15 0 0 0 -1.3,-0.86 4.06,4.06 0 0 0 -1.58,-0.32 4.1,4.1 0 0 0 -2.87,1.18 4.07,4.07 0 0 0 -0.88,1.27 3.74,3.74 0 0 0 -0.32,1.55 3.68,3.68 0 0 0 0.32,1.55 4.07,4.07 0 0 0 0.88,1.27 4.1,4.1 0 0 0 2.87,1.18 z"
         id="path15230" />
    </g>
    <g
       id="g15238">
      <rect
         x="214.36"
         y="20.1"
         width="148.5"
         height="94.900002"
         fill="#ffffff"
         id="rect15234" />
      <rect
         x="214.36"
         y="20.1"
         width="148.5"
         height="94.900002"
         fill="#0072c6"
         opacity="0.08"
         id="rect15236" />
    </g>
    <path
       d="m 231.59,14.77 a 7.52,7.52 0 0 0 -3.11,0.68 11.47,11.47 0 1 0 -21.93,-6.54 6.24,6.24 0 0 0 -10.72,4.32 v 0.15 a 8.28,8.28 0 0 0 1.62,16.41 h 34.14 a 7.51,7.51 0 1 0 0,-15"
       fill="#d2d2d2"
       fill-rule="evenodd"
       id="path15240" />
    <g
       id="g15252">
      <line
         x1="64.300003"
         y1="175"
         x2="64.300003"
         y2="130.38"
         fill="none"
         stroke="#3c3c41"
         stroke-miterlimit="10"
         id="line15248" />
      <polygon
         points="60.56,131.48 68.04,131.48 64.3,125 "
         fill="#3c3c41"
         id="polygon15250" />
    </g>
    <g
       id="g15302">
      <g
         id="g15264">
        <g
           id="g15260">
          <rect
             x="54.830002"
             y="75.699997"
             width="31.73"
             height="36.27"
             fill="#ffffff"
             id="rect15254" />
          <rect
             x="54.830002"
             y="75.699997"
             width="31.73"
             height="36.27"
             fill="#3c3c41"
             opacity="0.4"
             id="rect15256" />
          <rect
             x="54.830002"
             y="75.699997"
             width="31.73"
             height="36.27"
             fill="none"
             stroke="#3c3c41"
             stroke-width="0.25"
             id="rect15258" />
        </g>
        <path
           d="M 75.31,98.81 V 103 h 4.22 v -4.19 z m -10.52,-1.06 -3.16,3.16 3.16,3.16 3.15,-3.16 z m 2.1,-7.37 v -4.21 h -4.22 v 4.21 z m 7,9.83 v -2.8 h 7 v 7 h -7 v -2.81 h -4.55 l -4.55,4.57 -5.27,-5.27 4.56,-4.56 v -4.56 h -2.81 v -7 h 7 v 7 h -2.8 v 4.57 l 3.85,3.86 z"
           id="path15262" />
      </g>
      <g
         id="g15276">
        <g
           id="g15272">
          <rect
             x="27.629999"
             y="84.769997"
             width="31.73"
             height="36.27"
             fill="#ffffff"
             id="rect15266" />
          <rect
             x="27.629999"
             y="84.769997"
             width="31.73"
             height="36.27"
             fill="#3c3c41"
             opacity="0.4"
             id="rect15268" />
          <rect
             x="27.629999"
             y="84.769997"
             width="31.73"
             height="36.27"
             fill="none"
             stroke="#3c3c41"
             stroke-width="0.25"
             id="rect15270" />
        </g>
        <path
           d="m 48.11,107.87 v 4.22 h 4.22 v -4.22 z m -10.52,-1.05 -3.16,3.18 3.16,3.16 3.15,-3.16 z m 2.1,-7.37 v -4.22 h -4.22 v 4.22 z m 7,9.82 v -2.8 h 7 v 7 h -7 v -2.81 h -4.55 l -4.55,4.56 -5.27,-5.22 4.56,-4.55 v -4.57 h -2.81 v -7 h 7 v 7 h -2.8 v 4.57 l 3.85,3.85 z"
           id="path15274" />
      </g>
      <g
         id="g15288">
        <g
           id="g15284">
          <rect
             x="63.900002"
             y="43.970001"
             width="31.73"
             height="36.27"
             fill="#ffffff"
             id="rect15278" />
          <rect
             x="63.900002"
             y="43.970001"
             width="31.73"
             height="36.27"
             fill="#3c3c41"
             opacity="0.4"
             id="rect15280" />
          <rect
             x="63.900002"
             y="43.970001"
             width="31.73"
             height="36.27"
             fill="none"
             stroke="#3c3c41"
             stroke-width="0.25"
             id="rect15282" />
        </g>
        <path
           d="m 84.38,67.07 v 4.22 h 4.21 V 67.07 Z M 73.85,66 70.69,69.15 73.85,72.31 77,69.17 Z M 76,58.65 v -4.22 h -4.26 v 4.22 z m 7,9.82 v -2.8 h 7 v 7 h -7 v -2.79 h -4.59 l -4.56,4.56 -5.27,-5.27 4.57,-4.55 V 60.05 H 70.34 V 53 h 7 v 7 h -2.8 v 4.57 l 3.86,3.85 z"
           id="path15286" />
      </g>
      <g
         id="g15300">
        <g
           id="g15296">
          <rect
             x="36.700001"
             y="53.029999"
             width="31.73"
             height="36.27"
             fill="#ffffff"
             id="rect15290" />
          <rect
             x="36.700001"
             y="53.029999"
             width="31.73"
             height="36.27"
             fill="#3c3c41"
             opacity="0.4"
             id="rect15292" />
          <rect
             x="36.700001"
             y="53.029999"
             width="31.73"
             height="36.27"
             fill="none"
             stroke="#3c3c41"
             stroke-width="0.25"
             id="rect15294" />
        </g>
        <path
           d="m 57.18,76.14 v 4.21 h 4.21 v -4.21 z m -10.53,-1.06 -3.16,3.16 3.16,3.16 3.16,-3.16 z m 2.1,-7.37 V 63.5 h -4.21 v 4.21 z m 7,9.83 v -2.8 h 7 v 7 h -7 v -2.8 H 51.21 L 46.65,83.51 41.38,78.24 46,73.68 v -4.57 h -2.86 v -7 h 7 v 7 h -2.8 v 4.57 l 3.86,3.86 z"
           id="path15298" />
      </g>
    </g>
    <path
       d="m 147,93.3 v 6.7 h 6.68 v -6.7 z m -16.71,-1.68 -5,5 5,5 5,-5 z m 3.33,-11.7 v -6.7 h -6.69 v 6.7 z m 11.15,15.6 v -4.45 h 11.14 v 11.14 h -11.18 v -4.46 h -7.25 l -7.23,7.25 -8.37,-8.37 7.25,-7.24 v -7.25 h -4.46 V 71 h 11.14 v 11.14 h -4.45 v 7.25 l 6.12,6.13 z"
       fill="#0078d7"
       id="path15304" />
    <line
       x1="94.129997"
       y1="85"
       x2="119.13"
       y2="85"
       fill="none"
       stroke="#3c3c41"
       stroke-miterlimit="10"
       id="line15306" />
    <g
       id="g15312">
      <line
         x1="144.13"
         y1="85"
         x2="253.75"
         y2="85"
         fill="none"
         stroke="#3c3c41"
         stroke-miterlimit="10"
         id="line15308" />
      <polygon
         points="252.65,81.26 252.65,88.74 259.13,85 "
         fill="#3c3c41"
         id="polygon15310" />
    </g>
    <path
       d="m 287.71,83 v 7.28 l 6.3,3.63 6.3,-3.63 V 83 L 294,79.32 Z m 6.29,-1.6 3.6,2.08 -3.6,2.08 -3.6,-2.08 z m 4.5,7.8 -3.6,2.08 v -4.16 l 3.6,-2.08 z m -9,0 V 85 l 3.6,2.08 v 4.15 z m 19.8,-13.4 h -30.6 v 21.6 h 14.4 v 1.8 h -5.4 v 1.8 h 12.6 v -1.8 h -5.4 v -1.8 h 14.4 z m -1.8,19.8 h -27 v -18 h 27 z M 303.9,70.4 V 74 h -1.8 v -1.8 h -27 v 18 h 1.8 V 92 h -3.6 V 70.4 Z M 298.5,65 v 3.6 h -1.8 v -1.8 h -27 v 18 h 1.8 v 1.8 h -3.6 V 65 Z"
       id="path15314" />
    <g
       id="Text">
      <g
         id="g15339">
        <path
           d="M35.14,15.65a3.93,3.93,0,0,1-2.94-1.18,4.2,4.2,0,0,1-1.14-3.06,4.51,4.51,0,0,1,1.16-3.22A4,4,0,0,1,35.28,7a3.83,3.83,0,0,1,2.91,1.17,4.35,4.35,0,0,1,1.11,3.11,4.44,4.44,0,0,1-1.16,3.19A3.93,3.93,0,0,1,35.14,15.65Zm.08-7.06a1.89,1.89,0,0,0-1.58.74,3.13,3.13,0,0,0-.58,2,3,3,0,0,0,.58,2,1.86,1.86,0,0,0,1.54.73,1.89,1.89,0,0,0,1.55-.7,3.07,3.07,0,0,0,.57-2,3.3,3.3,0,0,0-.55-2A1.82,1.82,0,0,0,35.22,8.59Z"
           fill="#1e1e1e"
           id="path15317" />
        <path
           d="M46.36,15.5H44.51V12.17c0-.93-.33-1.4-1-1.4a1,1,0,0,0-.79.37,1.46,1.46,0,0,0-.31.94V15.5H40.56v-6h1.85v.95h0a2.12,2.12,0,0,1,1.92-1.1c1.33,0,2,.83,2,2.48Z"
           fill="#1e1e1e"
           id="path15319" />
        <path
           d="M51,12.94H47.8V11.65H51Z"
           fill="#1e1e1e"
           id="path15321" />
        <path
           d="M54.35,14.8h0v3.46H52.48V9.5h1.85v.9h0a2.36,2.36,0,0,1,3.73-.25,3.39,3.39,0,0,1,.64,2.18A3.73,3.73,0,0,1,58,14.74a2.44,2.44,0,0,1-2,.91A1.88,1.88,0,0,1,54.35,14.8Zm-.05-2.46v.48a1.54,1.54,0,0,0,.33,1,1.06,1.06,0,0,0,.86.39,1.15,1.15,0,0,0,1-.49,2.4,2.4,0,0,0,.35-1.39c0-1-.41-1.58-1.23-1.58a1.15,1.15,0,0,0-.93.43A1.73,1.73,0,0,0,54.3,12.34Z"
           fill="#1e1e1e"
           id="path15323" />
        <path
           d="M63.86,11.17a1.66,1.66,0,0,0-.78-.18,1.15,1.15,0,0,0-.95.44,2,2,0,0,0-.34,1.2V15.5H59.94v-6h1.85v1.11h0A1.6,1.6,0,0,1,63.4,9.39a1.35,1.35,0,0,1,.46.07Z"
           fill="#1e1e1e"
           id="path15325" />
        <path
           d="M70.18,13H66.27c.06.87.61,1.3,1.65,1.3a3.15,3.15,0,0,0,1.74-.47V15.2a4.57,4.57,0,0,1-2.17.45,3,3,0,0,1-2.25-.81,3,3,0,0,1-.8-2.25,3.23,3.23,0,0,1,.86-2.36,2.87,2.87,0,0,1,2.14-.88,2.63,2.63,0,0,1,2,.78,3,3,0,0,1,.71,2.12Zm-1.71-1.14q0-1.29-1-1.29a1,1,0,0,0-.77.37,1.75,1.75,0,0,0-.39.92Z"
           fill="#1e1e1e"
           id="path15327" />
        <path
           d="M80.89,15.5H79V12.08c0-.87-.32-1.31-1-1.31a.88.88,0,0,0-.74.39,1.65,1.65,0,0,0-.29,1V15.5H75.2V12c0-.85-.32-1.27-.94-1.27a.91.91,0,0,0-.76.38,1.65,1.65,0,0,0-.29,1V15.5H71.36v-6h1.85v.94h0a2.33,2.33,0,0,1,.8-.79,2.26,2.26,0,0,1,1.14-.3,1.75,1.75,0,0,1,1.74,1.12,2.21,2.21,0,0,1,2-1.12c1.31,0,2,.81,2,2.42Z"
           fill="#1e1e1e"
           id="path15329" />
        <path
           d="M83.27,8.55a1,1,0,0,1-.76-.28.88.88,0,0,1-.3-.68.87.87,0,0,1,.3-.68,1.26,1.26,0,0,1,1.53,0,.87.87,0,0,1,.3.68.89.89,0,0,1-.3.69A1.08,1.08,0,0,1,83.27,8.55Zm.92,7H82.34v-6h1.85Z"
           fill="#1e1e1e"
           id="path15331" />
        <path
           d="M85.43,15.34v-1.5a4.06,4.06,0,0,0,.91.41,3,3,0,0,0,.86.14,1.84,1.84,0,0,0,.78-.14.43.43,0,0,0,.28-.41.36.36,0,0,0-.13-.29,1.17,1.17,0,0,0-.33-.21,2.52,2.52,0,0,0-.44-.15L86.89,13a5.16,5.16,0,0,1-.62-.29,1.94,1.94,0,0,1-.46-.36,1.29,1.29,0,0,1-.28-.48,1.76,1.76,0,0,1-.1-.64,1.6,1.6,0,0,1,.22-.86,1.78,1.78,0,0,1,.59-.6,2.68,2.68,0,0,1,.83-.34,4.62,4.62,0,0,1,1-.11,5.49,5.49,0,0,1,.8.06q.42.08.81.18V11a2.74,2.74,0,0,0-.75-.3,3.13,3.13,0,0,0-.79-.11,1.27,1.27,0,0,0-.34,0,1.23,1.23,0,0,0-.29.09.49.49,0,0,0-.19.16.32.32,0,0,0-.07.22.41.41,0,0,0,.11.28,1,1,0,0,0,.27.2,1.88,1.88,0,0,0,.38.15l.41.14a6.16,6.16,0,0,1,.67.28,1.94,1.94,0,0,1,.51.36,1.29,1.29,0,0,1,.33.48,1.62,1.62,0,0,1,.12.66,1.69,1.69,0,0,1-.24.91,1.87,1.87,0,0,1-.61.61,2.72,2.72,0,0,1-.89.35,5,5,0,0,1-1,.11A5.41,5.41,0,0,1,85.43,15.34Z"
           fill="#1e1e1e"
           id="path15333" />
        <path
           d="M96.54,13H92.62c.07.87.62,1.3,1.65,1.3A3.15,3.15,0,0,0,96,13.86V15.2a4.5,4.5,0,0,1-2.16.45,3,3,0,0,1-2.26-.81,3.08,3.08,0,0,1-.8-2.25,3.19,3.19,0,0,1,.87-2.36,2.87,2.87,0,0,1,2.13-.88,2.63,2.63,0,0,1,2,.78,3,3,0,0,1,.72,2.12Zm-1.72-1.14c0-.86-.35-1.29-1-1.29A1,1,0,0,0,93,11a1.68,1.68,0,0,0-.4.92Z"
           fill="#1e1e1e"
           id="path15335" />
        <path
           d="M97.39,15.34v-1.5a4.27,4.27,0,0,0,.91.41,3.08,3.08,0,0,0,.86.14,1.84,1.84,0,0,0,.78-.14.43.43,0,0,0,.28-.41.36.36,0,0,0-.13-.29,1,1,0,0,0-.33-.21,2.52,2.52,0,0,0-.44-.15L98.86,13a4.68,4.68,0,0,1-.63-.29,2.16,2.16,0,0,1-.46-.36,1.44,1.44,0,0,1-.28-.48,2,2,0,0,1-.1-.64,1.69,1.69,0,0,1,.22-.86,1.78,1.78,0,0,1,.59-.6A2.64,2.64,0,0,1,99,9.46a4.46,4.46,0,0,1,1-.11,5.73,5.73,0,0,1,.81.06q.4.08.81.18V11a2.94,2.94,0,0,0-.76-.3,3.07,3.07,0,0,0-.79-.11,1.27,1.27,0,0,0-.34,0,1,1,0,0,0-.28.09.53.53,0,0,0-.2.16.38.38,0,0,0-.07.22.41.41,0,0,0,.11.28,1,1,0,0,0,.27.2,2.15,2.15,0,0,0,.38.15l.42.14a6.9,6.9,0,0,1,.66.28,2.18,2.18,0,0,1,.52.36,1.39,1.39,0,0,1,.32.48,1.62,1.62,0,0,1,.12.66,1.78,1.78,0,0,1-.23.91,1.9,1.9,0,0,1-.62.61,2.66,2.66,0,0,1-.88.35,5.1,5.1,0,0,1-1,.11A5.51,5.51,0,0,1,97.39,15.34Z"
           fill="#1e1e1e"
           id="path15337" />
      </g>
      <g
         id="g15351">
        <path
           d="M252.7,14.9h-2.06L250,13h-3l-.6,1.87h-2.05l3.06-8.41h2.25Zm-3.09-3.33-.9-2.82a3.57,3.57,0,0,1-.14-.76h0a3.24,3.24,0,0,1-.15.74l-.91,2.84Z"
           fill="#1e1e1e"
           id="path15341" />
        <path
           d="M258.63,14.9h-5.38v-.77l3-3.87h-2.71V8.9h5.06v.91l-2.85,3.72h2.87Z"
           fill="#1e1e1e"
           id="path15343" />
        <path
           d="M265.4,14.9h-1.85V14h0A2.09,2.09,0,0,1,261.69,15c-1.39,0-2.09-.84-2.09-2.52V8.9h1.85v3.45c0,.85.33,1.27,1,1.27a1,1,0,0,0,.8-.34,1.42,1.42,0,0,0,.3-.95V8.9h1.85Z"
           fill="#1e1e1e"
           id="path15345" />
        <path
           d="M270.84,10.57a1.55,1.55,0,0,0-.78-.19,1.14,1.14,0,0,0-.95.45,1.94,1.94,0,0,0-.34,1.2V14.9h-1.85v-6h1.85V10h0a1.6,1.6,0,0,1,1.58-1.22,1.14,1.14,0,0,1,.46.07Z"
           fill="#1e1e1e"
           id="path15347" />
        <path
           d="M277.16,12.42h-3.91c.06.87.61,1.31,1.65,1.31a3.24,3.24,0,0,0,1.74-.47V14.6a4.7,4.7,0,0,1-2.17.44,3.06,3.06,0,0,1-2.25-.8,3,3,0,0,1-.8-2.25,3.24,3.24,0,0,1,.86-2.37,2.9,2.9,0,0,1,2.14-.87,2.63,2.63,0,0,1,2,.78,3,3,0,0,1,.71,2.11Zm-1.71-1.13q0-1.29-1.05-1.29a1,1,0,0,0-.77.37,1.71,1.71,0,0,0-.39.92Z"
           fill="#1e1e1e"
           id="path15349" />
      </g>
      <g
         id="g15379">
        <path
           d="M74.2,153.88h-1v-8.4h1Z"
           fill="#1e1e1e"
           id="path15353" />
        <path
           d="M81.27,153.88h-1v-3.42c0-1.27-.46-1.91-1.39-1.91a1.5,1.5,0,0,0-1.19.54,2,2,0,0,0-.47,1.37v3.42h-1v-6h1v1h0a2.16,2.16,0,0,1,2-1.14,1.81,1.81,0,0,1,1.5.64,2.79,2.79,0,0,1,.53,1.83Z"
           fill="#1e1e1e"
           id="path15355" />
        <path
           d="M85.86,153.82a1.82,1.82,0,0,1-.9.19c-1,0-1.57-.58-1.57-1.76V148.7h-1v-.82h1v-1.46l1-.31v1.77h1.51v.82H84.35v3.38a1.49,1.49,0,0,0,.2.87.83.83,0,0,0,.68.25,1,1,0,0,0,.63-.2Z"
           fill="#1e1e1e"
           id="path15357" />
        <path
           d="M92,151.12H87.73a2.19,2.19,0,0,0,.54,1.55,1.85,1.85,0,0,0,1.42.54,3,3,0,0,0,1.86-.66v.9a3.52,3.52,0,0,1-2.09.57,2.54,2.54,0,0,1-2-.81,3.34,3.34,0,0,1-.73-2.3,3.29,3.29,0,0,1,.8-2.29,2.56,2.56,0,0,1,2-.88,2.28,2.28,0,0,1,1.82.76,3.19,3.19,0,0,1,.64,2.12Zm-1-.81a2,2,0,0,0-.4-1.3,1.39,1.39,0,0,0-1.1-.46,1.52,1.52,0,0,0-1.15.49,2.16,2.16,0,0,0-.59,1.27Z"
           fill="#1e1e1e"
           id="path15359" />
        <path
           d="M98.4,153.88h-1v-3.42c0-1.27-.47-1.91-1.4-1.91a1.5,1.5,0,0,0-1.19.54,2,2,0,0,0-.47,1.37v3.42h-1v-6h1v1h0a2.17,2.17,0,0,1,2-1.14,1.83,1.83,0,0,1,1.51.64,2.85,2.85,0,0,1,.52,1.83Z"
           fill="#1e1e1e"
           id="path15361" />
        <path
           d="M99.85,153.67v-1a2.81,2.81,0,0,0,1.72.58c.85,0,1.27-.28,1.27-.84a.78.78,0,0,0-.11-.41,1,1,0,0,0-.29-.29,1.66,1.66,0,0,0-.44-.23l-.53-.22a5.16,5.16,0,0,1-.7-.32,2.21,2.21,0,0,1-.51-.36,1.41,1.41,0,0,1-.3-.46,1.57,1.57,0,0,1-.1-.6,1.44,1.44,0,0,1,.19-.75,1.7,1.7,0,0,1,.52-.55,2.71,2.71,0,0,1,.73-.33,3.59,3.59,0,0,1,2.25.16v1a2.78,2.78,0,0,0-1.52-.43,1.83,1.83,0,0,0-.49.06,1,1,0,0,0-.37.18.66.66,0,0,0-.24.26.69.69,0,0,0-.09.34.78.78,0,0,0,.34.68,2.36,2.36,0,0,0,.39.22l.54.22a6.85,6.85,0,0,1,.71.31,2.82,2.82,0,0,1,.54.36,1.41,1.41,0,0,1,.34.47,1.54,1.54,0,0,1,.12.63,1.49,1.49,0,0,1-.19.77,1.74,1.74,0,0,1-.53.55,2.54,2.54,0,0,1-.75.32,3.82,3.82,0,0,1-.9.1A3.47,3.47,0,0,1,99.85,153.67Z"
           fill="#1e1e1e"
           id="path15363" />
        <path
           d="M110.12,151.12h-4.23a2.19,2.19,0,0,0,.54,1.55,1.85,1.85,0,0,0,1.41.54,3,3,0,0,0,1.87-.66v.9a3.52,3.52,0,0,1-2.09.57,2.54,2.54,0,0,1-2-.81,3.85,3.85,0,0,1,.06-4.59,2.58,2.58,0,0,1,2-.88,2.28,2.28,0,0,1,1.82.76,3.19,3.19,0,0,1,.64,2.12Zm-1-.81a2,2,0,0,0-.4-1.3,1.4,1.4,0,0,0-1.1-.46,1.56,1.56,0,0,0-1.16.49,2.21,2.21,0,0,0-.58,1.27Z"
           fill="#1e1e1e"
           id="path15365" />
        <path
           d="M120,153.88h-1v-1h0a2.21,2.21,0,0,1-2.06,1.16,2.25,2.25,0,0,1-1.81-.8,3.33,3.33,0,0,1-.68-2.2,3.59,3.59,0,0,1,.75-2.38,2.48,2.48,0,0,1,2-.9,1.94,1.94,0,0,1,1.8,1h0V145h1Zm-1-2.71v-.88a1.74,1.74,0,0,0-.48-1.24,1.62,1.62,0,0,0-1.22-.5,1.67,1.67,0,0,0-1.38.65,2.85,2.85,0,0,0-.5,1.78,2.53,2.53,0,0,0,.48,1.63,1.59,1.59,0,0,0,1.3.6,1.63,1.63,0,0,0,1.3-.58A2.11,2.11,0,0,0,119,151.17Z"
           fill="#1e1e1e"
           id="path15367" />
        <path
           d="M126.75,151.12h-4.23a2.23,2.23,0,0,0,.53,1.55,1.88,1.88,0,0,0,1.42.54,3,3,0,0,0,1.87-.66v.9a3.53,3.53,0,0,1-2.1.57,2.53,2.53,0,0,1-2-.81,3.34,3.34,0,0,1-.73-2.3,3.29,3.29,0,0,1,.79-2.29,2.58,2.58,0,0,1,2-.88,2.28,2.28,0,0,1,1.82.76,3.19,3.19,0,0,1,.64,2.12Zm-1-.81a2,2,0,0,0-.4-1.3,1.4,1.4,0,0,0-1.1-.46,1.54,1.54,0,0,0-1.16.49,2.21,2.21,0,0,0-.58,1.27Z"
           fill="#1e1e1e"
           id="path15369" />
        <path
           d="M136.72,153.88h-1v-3.44a2.62,2.62,0,0,0-.3-1.44,1.17,1.17,0,0,0-1-.45,1.27,1.27,0,0,0-1,.56,2.16,2.16,0,0,0-.43,1.35v3.42h-1v-3.56c0-1.18-.45-1.77-1.36-1.77a1.27,1.27,0,0,0-1,.53,2.14,2.14,0,0,0-.41,1.38v3.42h-1v-6h1v1h0a2.06,2.06,0,0,1,1.86-1.09,1.77,1.77,0,0,1,1.07.34,1.69,1.69,0,0,1,.63.9,2.16,2.16,0,0,1,2-1.24c1.32,0,2,.82,2,2.45Z"
           fill="#1e1e1e"
           id="path15371" />
        <path
           d="M142.84,153.88h-1V153h0A2,2,0,0,1,140,154a2,2,0,0,1-1.41-.47,1.64,1.64,0,0,1-.5-1.26c0-1.12.66-1.77,2-2l1.79-.25q0-1.53-1.23-1.53a3,3,0,0,0-2,.74v-1a3.76,3.76,0,0,1,2-.56c1.41,0,2.12.75,2.12,2.24Zm-1-3-1.44.2a2.3,2.3,0,0,0-1,.33,1,1,0,0,0-.34.84.92.92,0,0,0,.31.72,1.25,1.25,0,0,0,.84.27,1.53,1.53,0,0,0,1.18-.5,1.76,1.76,0,0,0,.46-1.26Z"
           fill="#1e1e1e"
           id="path15373" />
        <path
           d="M149.63,153.88h-1v-3.42c0-1.27-.47-1.91-1.4-1.91a1.5,1.5,0,0,0-1.19.54,2,2,0,0,0-.47,1.37v3.42h-1v-6h1v1h0a2.16,2.16,0,0,1,2-1.14,1.83,1.83,0,0,1,1.51.64,2.85,2.85,0,0,1,.52,1.83Z"
           fill="#1e1e1e"
           id="path15375" />
        <path
           d="M156.56,153.88h-1v-1h0a2.2,2.2,0,0,1-2.06,1.16,2.28,2.28,0,0,1-1.81-.8A3.32,3.32,0,0,1,151,151a3.59,3.59,0,0,1,.75-2.38,2.46,2.46,0,0,1,2-.9,1.92,1.92,0,0,1,1.79,1h0V145h1Zm-1-2.71v-.88a1.74,1.74,0,0,0-.48-1.24,1.77,1.77,0,0,0-2.6.15A2.79,2.79,0,0,0,152,151a2.53,2.53,0,0,0,.48,1.63,1.6,1.6,0,0,0,1.3.6,1.65,1.65,0,0,0,1.31-.58A2.16,2.16,0,0,0,155.6,151.17Z"
           fill="#1e1e1e"
           id="path15377" />
      </g>
      <g
         id="g15403">
        <path
           d="M135,43.88h-1V40.05h-4.34v3.83h-1v-8.4h1v3.69H134V35.48h1Z"
           fill="#1e1e1e"
           id="path15381" />
        <path
           d="M138.14,40.71v3.17h-1v-8.4h2.31a3,3,0,0,1,2.09.66A2.34,2.34,0,0,1,142.3,38a2.58,2.58,0,0,1-.82,2,3.19,3.19,0,0,1-2.23.76Zm0-4.34v3.45h1a2.3,2.3,0,0,0,1.55-.47,1.64,1.64,0,0,0,.54-1.31c0-1.11-.66-1.67-2-1.67Z"
           fill="#1e1e1e"
           id="path15383" />
        <path
           d="M149.6,43.53a4.89,4.89,0,0,1-2.32.49,3.73,3.73,0,0,1-2.87-1.15,4.26,4.26,0,0,1-1.08-3,4.47,4.47,0,0,1,1.21-3.26,4.12,4.12,0,0,1,3.08-1.24,4.91,4.91,0,0,1,2,.35v1a4.08,4.08,0,0,0-2-.5,3,3,0,0,0-2.35,1,3.62,3.62,0,0,0-.9,2.58,3.49,3.49,0,0,0,.84,2.45,2.89,2.89,0,0,0,2.21.91,4.2,4.2,0,0,0,2.19-.56Z"
           fill="#1e1e1e"
           id="path15385" />
        <path
           d="M116,57.08h-1V53.25h-4.35v3.83h-1v-8.4h1v3.69H115V48.68h1Z"
           fill="#1e1e1e"
           id="path15387" />
        <path
           d="M122.89,54.32h-4.24a2.28,2.28,0,0,0,.54,1.55,1.87,1.87,0,0,0,1.42.55,3,3,0,0,0,1.86-.67v.9a3.5,3.5,0,0,1-2.09.57,2.56,2.56,0,0,1-2-.81,3.39,3.39,0,0,1-.73-2.3,3.29,3.29,0,0,1,.8-2.29,2.58,2.58,0,0,1,2-.88,2.27,2.27,0,0,1,1.82.76,3.2,3.2,0,0,1,.65,2.12Zm-1-.81a1.91,1.91,0,0,0-.4-1.3,1.39,1.39,0,0,0-1.1-.46,1.52,1.52,0,0,0-1.15.49,2.22,2.22,0,0,0-.59,1.27Z"
           fill="#1e1e1e"
           id="path15389" />
        <path
           d="M128.64,57.08h-1v-.93h0a2,2,0,0,1-1.84,1.07,2,2,0,0,1-1.41-.47,1.65,1.65,0,0,1-.51-1.26c0-1.12.67-1.77,2-2l1.79-.25q0-1.53-1.23-1.53a3,3,0,0,0-2,.74v-1a3.76,3.76,0,0,1,2-.56c1.41,0,2.12.75,2.12,2.24Zm-1-3-1.44.2a2.3,2.3,0,0,0-1,.33,1,1,0,0,0-.34.84.92.92,0,0,0,.31.72,1.25,1.25,0,0,0,.84.28,1.54,1.54,0,0,0,1.18-.51,1.76,1.76,0,0,0,.46-1.26Z"
           fill="#1e1e1e"
           id="path15391" />
        <path
           d="M135.57,57.08h-1v-1h0a2.2,2.2,0,0,1-2.06,1.16,2.24,2.24,0,0,1-1.81-.8,3.32,3.32,0,0,1-.67-2.2,3.59,3.59,0,0,1,.75-2.38,2.46,2.46,0,0,1,2-.9,1.92,1.92,0,0,1,1.8,1h0V48.2h1Zm-1-2.71v-.88a1.74,1.74,0,0,0-.48-1.24,1.64,1.64,0,0,0-1.22-.5,1.68,1.68,0,0,0-1.39.65,2.85,2.85,0,0,0-.5,1.78,2.53,2.53,0,0,0,.48,1.63,1.71,1.71,0,0,0,2.6,0A2.11,2.11,0,0,0,134.61,54.37Z"
           fill="#1e1e1e"
           id="path15393" />
        <path
           d="M147.7,57.08h-1.21l-4.32-6.69a2.94,2.94,0,0,1-.27-.53h0a9.28,9.28,0,0,1,0,1.15v6.07h-1v-8.4h1.28l4.2,6.59c.18.28.29.46.34.56h0a8.58,8.58,0,0,1-.06-1.23V48.68h1Z"
           fill="#1e1e1e"
           id="path15395" />
        <path
           d="M152.28,57.22a2.79,2.79,0,0,1-2.12-.84,3.1,3.1,0,0,1-.79-2.23,3.26,3.26,0,0,1,.82-2.36,3,3,0,0,1,2.23-.85,2.7,2.7,0,0,1,2.1.83,3.27,3.27,0,0,1,.75,2.29,3.23,3.23,0,0,1-.81,2.3A2.83,2.83,0,0,1,152.28,57.22Zm.07-5.47a1.83,1.83,0,0,0-1.46.63,2.59,2.59,0,0,0-.54,1.74,2.46,2.46,0,0,0,.54,1.68,1.87,1.87,0,0,0,1.46.62,1.79,1.79,0,0,0,1.44-.61,2.63,2.63,0,0,0,.5-1.72,2.68,2.68,0,0,0-.5-1.73A1.76,1.76,0,0,0,152.35,51.75Z"
           fill="#1e1e1e"
           id="path15397" />
        <path
           d="M161.93,57.08h-1v-1h0a2.2,2.2,0,0,1-2.06,1.16,2.24,2.24,0,0,1-1.81-.8,3.32,3.32,0,0,1-.67-2.2,3.59,3.59,0,0,1,.75-2.38,2.46,2.46,0,0,1,2-.9,1.92,1.92,0,0,1,1.8,1h0V48.2h1Zm-1-2.71v-.88a1.74,1.74,0,0,0-.48-1.24,1.77,1.77,0,0,0-2.6.15,2.79,2.79,0,0,0-.51,1.78,2.53,2.53,0,0,0,.48,1.63,1.61,1.61,0,0,0,1.3.61,1.65,1.65,0,0,0,1.31-.59A2.16,2.16,0,0,0,161,54.37Z"
           fill="#1e1e1e"
           id="path15399" />
        <path
           d="M168.7,54.32h-4.24a2.19,2.19,0,0,0,.54,1.55,1.86,1.86,0,0,0,1.42.55,3,3,0,0,0,1.86-.67v.9a3.5,3.5,0,0,1-2.09.57,2.54,2.54,0,0,1-2-.81,3.39,3.39,0,0,1-.73-2.3,3.29,3.29,0,0,1,.8-2.29,2.56,2.56,0,0,1,2-.88,2.28,2.28,0,0,1,1.82.76,3.2,3.2,0,0,1,.65,2.12Zm-1-.81a2,2,0,0,0-.4-1.3,1.39,1.39,0,0,0-1.1-.46,1.52,1.52,0,0,0-1.15.49,2.22,2.22,0,0,0-.59,1.27Z"
           fill="#1e1e1e"
           id="path15401" />
      </g>
      <g
         id="g15455">
        <path
           d="M246.41,43.88h-1V40.05h-4.35v3.83h-1v-8.4h1v3.69h4.35V35.48h1Z"
           fill="#1e1e1e"
           id="path15405" />
        <path
           d="M253.3,41.12h-4.23a2.19,2.19,0,0,0,.54,1.55,1.85,1.85,0,0,0,1.41.54,3,3,0,0,0,1.87-.66v.9a3.53,3.53,0,0,1-2.1.57,2.53,2.53,0,0,1-2-.81,3.34,3.34,0,0,1-.73-2.3,3.29,3.29,0,0,1,.79-2.29,2.58,2.58,0,0,1,2-.88,2.28,2.28,0,0,1,1.82.76,3.19,3.19,0,0,1,.64,2.12Zm-1-.81a2,2,0,0,0-.4-1.3,1.4,1.4,0,0,0-1.1-.46,1.56,1.56,0,0,0-1.16.49,2.21,2.21,0,0,0-.58,1.27Z"
           fill="#1e1e1e"
           id="path15407" />
        <path
           d="M259.05,43.88h-1V43h0A2,2,0,0,1,256.22,44a2,2,0,0,1-1.4-.47,1.65,1.65,0,0,1-.51-1.26c0-1.12.66-1.77,2-2l1.8-.25c0-1-.41-1.53-1.24-1.53a3,3,0,0,0-2,.74v-1a3.76,3.76,0,0,1,2-.56c1.41,0,2.11.75,2.11,2.24Zm-1-3-1.45.2a2.35,2.35,0,0,0-1,.33,1,1,0,0,0-.34.84.93.93,0,0,0,.32.72,1.24,1.24,0,0,0,.83.27,1.51,1.51,0,0,0,1.18-.5,1.77,1.77,0,0,0,.47-1.26Z"
           fill="#1e1e1e"
           id="path15409" />
        <path
           d="M266,43.88h-1v-1h0A2.21,2.21,0,0,1,262.94,44a2.25,2.25,0,0,1-1.81-.8,3.33,3.33,0,0,1-.68-2.2,3.59,3.59,0,0,1,.75-2.38,2.48,2.48,0,0,1,2-.9,2,2,0,0,1,1.8,1h0V35h1Zm-1-2.71v-.88a1.74,1.74,0,0,0-.48-1.24,1.64,1.64,0,0,0-1.22-.5,1.67,1.67,0,0,0-1.38.65,2.79,2.79,0,0,0-.5,1.78,2.53,2.53,0,0,0,.48,1.63,1.57,1.57,0,0,0,1.3.6,1.63,1.63,0,0,0,1.3-.58A2.16,2.16,0,0,0,265,41.17Z"
           fill="#1e1e1e"
           id="path15411" />
        <path
           d="M276.2,43.88h-1V40.46c0-1.27-.46-1.91-1.39-1.91a1.5,1.5,0,0,0-1.19.54,2,2,0,0,0-.47,1.37v3.42h-1v-6h1v1h0a2.16,2.16,0,0,1,2-1.14,1.81,1.81,0,0,1,1.5.64,2.79,2.79,0,0,1,.53,1.83Z"
           fill="#1e1e1e"
           id="path15413" />
        <path
           d="M280.51,44a2.79,2.79,0,0,1-2.12-.84A3.1,3.1,0,0,1,277.6,41a3.26,3.26,0,0,1,.82-2.36,3,3,0,0,1,2.23-.85,2.7,2.7,0,0,1,2.1.83,3.27,3.27,0,0,1,.75,2.29,3.23,3.23,0,0,1-.81,2.3A2.83,2.83,0,0,1,280.51,44Zm.07-5.47a1.83,1.83,0,0,0-1.46.63,2.59,2.59,0,0,0-.54,1.74,2.46,2.46,0,0,0,.54,1.68,1.86,1.86,0,0,0,1.46.61,1.79,1.79,0,0,0,1.44-.6,2.63,2.63,0,0,0,.5-1.72,2.68,2.68,0,0,0-.5-1.73A1.76,1.76,0,0,0,280.58,38.55Z"
           fill="#1e1e1e"
           id="path15415" />
        <path
           d="M290.16,43.88h-1v-1h0A2.2,2.2,0,0,1,287.11,44a2.28,2.28,0,0,1-1.81-.8,3.32,3.32,0,0,1-.67-2.2,3.59,3.59,0,0,1,.75-2.38,2.46,2.46,0,0,1,2-.9,1.92,1.92,0,0,1,1.79,1h0V35h1Zm-1-2.71v-.88a1.74,1.74,0,0,0-.48-1.24,1.77,1.77,0,0,0-2.6.15,2.79,2.79,0,0,0-.51,1.78,2.48,2.48,0,0,0,.49,1.63,1.57,1.57,0,0,0,1.29.6,1.65,1.65,0,0,0,1.31-.58A2.16,2.16,0,0,0,289.2,41.17Z"
           fill="#1e1e1e"
           id="path15417" />
        <path
           d="M296.93,41.12h-4.24a2.28,2.28,0,0,0,.54,1.55,1.87,1.87,0,0,0,1.42.54,3,3,0,0,0,1.86-.66v.9a3.5,3.5,0,0,1-2.09.57,2.54,2.54,0,0,1-2-.81,3.39,3.39,0,0,1-.73-2.3,3.29,3.29,0,0,1,.8-2.29,2.56,2.56,0,0,1,2-.88,2.28,2.28,0,0,1,1.82.76,3.2,3.2,0,0,1,.65,2.12Zm-1-.81a2,2,0,0,0-.4-1.3,1.39,1.39,0,0,0-1.1-.46,1.52,1.52,0,0,0-1.15.49,2.22,2.22,0,0,0-.59,1.27Z"
           fill="#1e1e1e"
           id="path15419" />
        <path
           d="M305.76,43.61a3.19,3.19,0,0,1-1.64.41,2.72,2.72,0,0,1-2.08-.83,3.06,3.06,0,0,1-.78-2.17,3.32,3.32,0,0,1,.85-2.38,3,3,0,0,1,2.26-.9,3.1,3.1,0,0,1,1.4.3v1a2.47,2.47,0,0,0-1.43-.47,1.92,1.92,0,0,0-1.51.66,2.52,2.52,0,0,0-.59,1.73,2.45,2.45,0,0,0,.55,1.67,1.94,1.94,0,0,0,1.49.6,2.41,2.41,0,0,0,1.48-.52Z"
           fill="#1e1e1e"
           id="path15421" />
        <path
           d="M310.34,38.86a1.18,1.18,0,0,0-.73-.2,1.25,1.25,0,0,0-1,.58,2.74,2.74,0,0,0-.41,1.58v3.06h-1v-6h1v1.24h0a2.17,2.17,0,0,1,.63-1,1.46,1.46,0,0,1,.94-.35,1.49,1.49,0,0,1,.58.08Z"
           fill="#1e1e1e"
           id="path15423" />
        <path
           d="M316.2,41.12H312a2.19,2.19,0,0,0,.54,1.55,1.85,1.85,0,0,0,1.41.54,3,3,0,0,0,1.87-.66v.9a3.52,3.52,0,0,1-2.09.57,2.54,2.54,0,0,1-2-.81,3.34,3.34,0,0,1-.73-2.3,3.29,3.29,0,0,1,.8-2.29,2.55,2.55,0,0,1,2-.88,2.28,2.28,0,0,1,1.82.76,3.19,3.19,0,0,1,.64,2.12Zm-1-.81a2,2,0,0,0-.4-1.3,1.4,1.4,0,0,0-1.1-.46,1.56,1.56,0,0,0-1.16.49,2.21,2.21,0,0,0-.58,1.27Z"
           fill="#1e1e1e"
           id="path15425" />
        <path
           d="M322,43.88h-1V43h0A2,2,0,0,1,319.12,44a2,2,0,0,1-1.4-.47,1.65,1.65,0,0,1-.51-1.26c0-1.12.66-1.77,2-2l1.8-.25c0-1-.41-1.53-1.24-1.53a3,3,0,0,0-1.95.74v-1a3.76,3.76,0,0,1,2-.56c1.41,0,2.11.75,2.11,2.24Zm-1-3-1.45.2a2.25,2.25,0,0,0-1,.33,1,1,0,0,0-.34.84.92.92,0,0,0,.31.72,1.24,1.24,0,0,0,.83.27,1.51,1.51,0,0,0,1.18-.5,1.73,1.73,0,0,0,.47-1.26Z"
           fill="#1e1e1e"
           id="path15427" />
        <path
           d="M326.55,43.82a1.82,1.82,0,0,1-.9.19c-1,0-1.58-.58-1.58-1.76V38.7h-1v-.82h1V36.42l1-.31v1.77h1.52v.82H325v3.38a1.41,1.41,0,0,0,.21.87.82.82,0,0,0,.68.25,1,1,0,0,0,.63-.2Z"
           fill="#1e1e1e"
           id="path15429" />
        <path
           d="M332.65,41.12h-4.24a2.28,2.28,0,0,0,.54,1.55,1.88,1.88,0,0,0,1.42.54,2.94,2.94,0,0,0,1.86-.66v.9a3.47,3.47,0,0,1-2.09.57,2.57,2.57,0,0,1-2-.81,3.39,3.39,0,0,1-.72-2.3,3.29,3.29,0,0,1,.79-2.29,2.58,2.58,0,0,1,2-.88,2.29,2.29,0,0,1,1.83.76,3.19,3.19,0,0,1,.64,2.12Zm-1-.81a2,2,0,0,0-.4-1.3,1.4,1.4,0,0,0-1.1-.46A1.54,1.54,0,0,0,329,39a2.21,2.21,0,0,0-.58,1.27Z"
           fill="#1e1e1e"
           id="path15431" />
        <path
           d="M333.74,43.67v-1a2.82,2.82,0,0,0,1.73.58q1.26,0,1.26-.84a.78.78,0,0,0-.1-.41,1,1,0,0,0-.3-.29,1.59,1.59,0,0,0-.43-.23l-.54-.22a5.79,5.79,0,0,1-.7-.32,2,2,0,0,1-.5-.36,1.29,1.29,0,0,1-.31-.46,1.79,1.79,0,0,1-.1-.6,1.45,1.45,0,0,1,.2-.75,1.67,1.67,0,0,1,.51-.55,2.77,2.77,0,0,1,.74-.33,3.56,3.56,0,0,1,2.24.16v1a2.78,2.78,0,0,0-1.52-.43,1.88,1.88,0,0,0-.49.06,1.16,1.16,0,0,0-.37.18.85.85,0,0,0-.24.26.81.81,0,0,0-.08.34,1,1,0,0,0,.08.4.94.94,0,0,0,.25.28,2.11,2.11,0,0,0,.4.22l.53.22a6.21,6.21,0,0,1,.72.31,2.82,2.82,0,0,1,.54.36,1.57,1.57,0,0,1,.34.47,1.54,1.54,0,0,1,.12.63,1.5,1.5,0,0,1-.2.77,1.7,1.7,0,0,1-.52.55,2.49,2.49,0,0,1-.76.32,3.68,3.68,0,0,1-.89.1A3.51,3.51,0,0,1,333.74,43.67Z"
           fill="#1e1e1e"
           id="path15433" />
        <path
           d="M261,48.68l-3.11,8.4h-1.08l-3-8.4h1.1l2.32,6.66a3.18,3.18,0,0,1,.17.75h0a3.38,3.38,0,0,1,.19-.76l2.37-6.65Z"
           fill="#1e1e1e"
           id="path15435" />
        <path
           d="M270.73,57.08h-1V51.45c0-.45,0-1,.08-1.64h0a7.28,7.28,0,0,1-.25.82l-2.87,6.45h-.49l-2.86-6.41a4.44,4.44,0,0,1-.25-.86h0c0,.34.05.89.05,1.65v5.62h-.95v-8.4h1.3L266,54.54a7.92,7.92,0,0,1,.39,1h0c.17-.46.31-.81.41-1l2.63-5.84h1.23Z"
           fill="#1e1e1e"
           id="path15437" />
        <path
           d="M272.45,56.87v-1a2.8,2.8,0,0,0,1.72.59c.85,0,1.27-.29,1.27-.85a.78.78,0,0,0-.11-.41,1,1,0,0,0-.29-.29,2.27,2.27,0,0,0-.44-.23l-.53-.22a5.16,5.16,0,0,1-.7-.32,1.94,1.94,0,0,1-.51-.36,1.41,1.41,0,0,1-.3-.46,1.57,1.57,0,0,1-.1-.6,1.44,1.44,0,0,1,.19-.75,1.7,1.7,0,0,1,.52-.55,2.71,2.71,0,0,1,.73-.33,3.59,3.59,0,0,1,2.25.16v1a2.79,2.79,0,0,0-1.53-.43,1.8,1.8,0,0,0-.48.06,1,1,0,0,0-.37.18.66.66,0,0,0-.24.26.69.69,0,0,0-.09.34.78.78,0,0,0,.34.68,2,2,0,0,0,.39.22l.54.22a6.85,6.85,0,0,1,.71.31,2.82,2.82,0,0,1,.54.36,1.41,1.41,0,0,1,.34.47,1.54,1.54,0,0,1,.12.63,1.49,1.49,0,0,1-.19.77,1.74,1.74,0,0,1-.53.55,2.54,2.54,0,0,1-.75.32,3.82,3.82,0,0,1-.9.1A3.47,3.47,0,0,1,272.45,56.87Z"
           fill="#1e1e1e"
           id="path15439" />
        <path
           d="M281.68,49.56a.6.6,0,0,1-.44-.18.57.57,0,0,1-.18-.44.61.61,0,0,1,.18-.45.6.6,0,0,1,.44-.18.63.63,0,0,1,.45.18.61.61,0,0,1,.18.45.6.6,0,0,1-.18.44A.63.63,0,0,1,281.68,49.56Zm.47,7.52h-1v-6h1Z"
           fill="#1e1e1e"
           id="path15441" />
        <path
           d="M289.07,57.08h-1V53.66c0-1.27-.46-1.91-1.39-1.91a1.5,1.5,0,0,0-1.19.54,2,2,0,0,0-.48,1.37v3.42h-1v-6h1v1h0a2.16,2.16,0,0,1,2-1.14,1.81,1.81,0,0,1,1.5.64,2.8,2.8,0,0,1,.52,1.84Z"
           fill="#1e1e1e"
           id="path15443" />
        <path
           d="M300.81,57.08h-1.09l-.9-2.35h-3.56l-.84,2.35h-1.09l3.22-8.4h1Zm-2.31-3.24-1.32-3.58a3.36,3.36,0,0,1-.12-.56h0a3.13,3.13,0,0,1-.13.56l-1.31,3.58Z"
           fill="#1e1e1e"
           id="path15445" />
        <path
           d="M306.1,51.36l-3.55,4.9h3.51v.82h-4.93v-.3l3.55-4.88h-3.21v-.82h4.63Z"
           fill="#1e1e1e"
           id="path15447" />
        <path
           d="M312.19,57.08h-1v-.95h0a2,2,0,0,1-1.86,1.09c-1.43,0-2.14-.85-2.14-2.55V51.08h1v3.44c0,1.26.49,1.9,1.46,1.9a1.47,1.47,0,0,0,1.15-.52,2,2,0,0,0,.46-1.36V51.08h1Z"
           fill="#1e1e1e"
           id="path15449" />
        <path
           d="M317.26,52.06a1.18,1.18,0,0,0-.73-.2,1.25,1.25,0,0,0-1,.58,2.74,2.74,0,0,0-.41,1.58v3.06h-1v-6h1v1.24h0a2.17,2.17,0,0,1,.63-1,1.46,1.46,0,0,1,.94-.35,1.49,1.49,0,0,1,.58.08Z"
           fill="#1e1e1e"
           id="path15451" />
        <path
           d="M323.12,54.32h-4.23a2.19,2.19,0,0,0,.54,1.55,1.85,1.85,0,0,0,1.41.55,3,3,0,0,0,1.87-.67v.9a3.52,3.52,0,0,1-2.09.57,2.54,2.54,0,0,1-2-.81,3.85,3.85,0,0,1,.06-4.59,2.58,2.58,0,0,1,2-.88,2.28,2.28,0,0,1,1.82.76,3.19,3.19,0,0,1,.64,2.12Zm-1-.81a2,2,0,0,0-.4-1.3,1.4,1.4,0,0,0-1.1-.46,1.56,1.56,0,0,0-1.16.49,2.21,2.21,0,0,0-.58,1.27Z"
           fill="#1e1e1e"
           id="path15453" />
      </g>
    </g>
    <g
       id="g19992"
       transform="translate(206.622,9.1458004)">
      <path
         d="m 6.33,1.462 h 4.7434 L 6.1559,16.0328 A 0.7427,0.7427 0 0 1 5.4522,16.538 H 1.7432 A 0.7426,0.7426 0 0 1 1.0396,15.558 L 5.6265,1.9671 A 0.7426,0.7426 0 0 1 6.33,1.462 Z"
         fill="url(#edb2ea05-4c60-42fb-9b9a-0edf2b99dad4)"
         id="path19974"
         style="fill:url(#edb2ea05-4c60-42fb-9b9a-0edf2b99dad4)" />
      <path
         d="M 12.8793,10.9543 H 5.4035 a 0.3454,0.3454 0 0 0 -0.2357,0.5979 l 5.1264,4.7859 a 0.743,0.743 0 0 0 0.5069,0.2 h 4.2366 z"
         fill="#0078d4"
         id="path19976" />
      <g
         opacity="0.5"
         id="g19982">
        <path
           d="m 11.5483,16.538 h 3.4851 l -2.1585,-5.5837 h -2.8423 l 1.6444,4.8667 a 0.751,0.751 0 0 1 -0.1287,0.717 z"
           id="path19978" />
        <path
           d="M 8.951,7.7477 11.0724,1.462 H 6.7685 a 0.7538,0.7538 0 0 1 0.1437,0.2515 z"
           id="path19980" />
      </g>
      <g
         opacity="0.5"
         id="g19988">
        <path
           d="m 6.5,1.462 2.3127,6.7 0.32,-0.953 -1.9362,-5.747 z"
           fill-opacity="0.5"
           id="path19984" />
        <path
           d="m 10.8816,16.5379 h 4.1521 -3.1525 a 1.0256,1.0256 0 0 0 0.061,-0.8064 L 10.328,10.9542 h -0.59 l 1.6746,4.9563 a 0.4752,0.4752 0 0 1 -0.45,0.6274 z"
           fill-opacity="0.5"
           id="path19986" />
      </g>
      <path
         d="M 12.3736,1.9672 A 0.7427,0.7427 0 0 0 11.67,1.462 H 6.3854 A 0.7536,0.7536 0 0 1 7.1,1.9748 l 4.5794,13.5685 a 0.7536,0.7536 0 0 1 -0.714,0.9947 h 5.2919 a 0.7427,0.7427 0 0 0 0.7036,-0.98 z"
         fill="url(#ac228590-1978-4cad-a0d4-e155e1dae5a8)"
         id="path19990"
         style="fill:url(#ac228590-1978-4cad-a0d4-e155e1dae5a8)" />
    </g>
  </g>
</svg>
