<svg xmlns="http://www.w3.org/2000/svg" viewBox="0 0 447.41 215.78">
  <title>2-dual-redundancy</title>
  <g id="Shapes">
    <rect width="447.41" height="215.78" fill="#fff"/>
    <g>
      <rect x="16.41" y="30" width="145" height="60" fill="#fff"/>
      <rect x="16.41" y="30" width="145" height="60" fill="#0072c6" opacity="0.25"/>
    </g>
    <g>
      <rect x="287.41" y="29.57" width="145" height="60" fill="#fff"/>
      <rect x="287.41" y="29.57" width="145" height="60" fill="#3c3c41" opacity="0.15"/>
    </g>
    <g>
      <rect x="116.41" y="40" width="88" height="173.64" fill="#fff"/>
      <rect x="116.41" y="40" width="88" height="173.64" fill="#0072c6" opacity="0.05"/>
      <rect x="116.41" y="40" width="88" height="173.64" fill="none" stroke="#0072c6" stroke-width="0.25"/>
    </g>
    <g>
      <rect x="243.41" y="72.8" width="88" height="140.84" fill="#fff"/>
      <rect x="243.41" y="72.8" width="88" height="140.84" fill="none" stroke="#3c3c41" stroke-miterlimit="10" stroke-width="0.25"/>
    </g>
    <g>
      <path d="M27.67,39.9h-21V40l-.6,0A7,7,0,0,1,0,33.22a6.81,6.81,0,0,1,5.73-6.64c0-.21,0-.41,0-.61a9,9,0,0,1,4.83-7.88L10.41,18l.7-.32a9.71,9.71,0,0,1,12,3.15,5.47,5.47,0,0,1,7.56,2.13,5.37,5.37,0,0,1,.75,2.74v.22A7.42,7.42,0,0,1,33,27.34a7.54,7.54,0,0,1,2,5.12A7.39,7.39,0,0,1,28.23,40l-.56,0Z" fill="#fff"/>
      <path d="M31.86,27.71a6.66,6.66,0,0,0-1.69-1.44,3.57,3.57,0,0,0,0-.47,4.54,4.54,0,0,0-.66-2.37,4.67,4.67,0,0,0-6.89-1.56,8.54,8.54,0,0,0-7.34-4.05,8.81,8.81,0,0,0-3.68.8l.11.11a8.11,8.11,0,0,0-5,7.36,6.77,6.77,0,0,0,.07,1A6,6,0,0,0,1.36,33a6.2,6.2,0,0,0,5.35,5.88v0h21v.07a6.49,6.49,0,0,0,5.95-6.64A6.78,6.78,0,0,0,31.86,27.71Z" fill="#0078d7" stroke="#0072c6"/>
    </g>
    <g>
      <path d="M438.13,45.82a1.58,1.58,0,0,1-1.6,1.6h-16a1.59,1.59,0,0,1-1.6-1.6V17a1.59,1.59,0,0,1,1.6-1.6h15.94a1.59,1.59,0,0,1,1.6,1.6v28.8Z" fill="#a0a1a2"/>
      <rect x="421.49" y="25.66" width="3.84" height="4.48" fill="#7a7a7a"/>
      <rect x="426.61" y="25.66" width="3.84" height="4.48" fill="#7a7a7a"/>
      <rect x="431.73" y="25.66" width="3.84" height="4.48" fill="#7a7a7a"/>
      <rect x="421.49" y="32.7" width="3.84" height="4.48" fill="#7a7a7a"/>
      <rect x="426.61" y="32.7" width="3.84" height="4.48" fill="#7a7a7a"/>
      <rect x="431.73" y="32.7" width="3.84" height="4.48" fill="#7a7a7a"/>
      <path d="M438,46.85l1.34.57.13-.19L440.57,46h1.08l1.28,1.47,1.35-.57v-.2L444.15,45l.77-.77,1.92.13.57-1.41-.12-.19L446,41.66V40.51l1.4-1.28-.51-1.41h-.19l-1.66.13-.77-.77.13-1.92L443,34.62l-.13.19-1.09,1.28h-1.09l-1.28-1.47-1.34.58v.25l.13,1.67-.77.77-1.92-.13-.58,1.41.2.12,1.28,1.09v1.15L435,42.81l.57,1.41h.2l1.66-.13.77.84Zm.44-7a3,3,0,0,1,4-1.67,3.1,3.1,0,0,1,1.6,4,3,3,0,1,1-5.57-2.36" fill="#3e3e3e"/>
    </g>
    <g>
      <rect x="151.99" y="86.32" width="17.54" height="17.54" transform="translate(114.32 -85.82) rotate(45)" fill="#fff"/>
      <path d="M173.55,92.92,162.2,81.58a2.59,2.59,0,0,0-1.84-.79,2.63,2.63,0,0,0-1.85.79L147.17,92.92a2.57,2.57,0,0,0,0,3.69l11.4,11.4a2.54,2.54,0,0,0,1.84.78,2.65,2.65,0,0,0,1.85-.78l11.4-11.4a2.54,2.54,0,0,0,.78-1.84A3.38,3.38,0,0,0,173.55,92.92Zm-13.19-9.44,3.69,3.69h-2.57v5.36H159.3V87.17h-2.63ZM150,96.11V93.93h5V91.3L158.68,95,155,98.68V96.11Zm10.4,10.39-3.69-3.69h2.57V97.56h2.18v5.25h2.63Zm10.39-10.39h-5v2.62l-3.69-3.68,3.69-3.69v2.57h5Z" fill="#0072c6"/>
    </g>
    <g>
      <rect x="151.99" y="156.52" width="17.54" height="17.54" transform="translate(163.97 -65.26) rotate(45)" fill="#fff"/>
      <path d="M173.55,163.13,162.2,151.78a2.63,2.63,0,0,0-1.84-.78,2.67,2.67,0,0,0-1.85.78l-11.34,11.35a2.57,2.57,0,0,0,0,3.69l11.4,11.4a2.54,2.54,0,0,0,1.84.78,2.65,2.65,0,0,0,1.85-.78l11.4-11.4a2.55,2.55,0,0,0,.78-1.85A3.36,3.36,0,0,0,173.55,163.13Zm-13.19-9.45,3.69,3.69h-2.57v5.37H159.3v-5.37h-2.63ZM150,166.32v-2.18h5v-2.63l3.69,3.69L155,168.89v-2.57Zm10.4,10.39L156.67,173h2.57v-5.25h2.18V173h2.63Zm10.39-10.39h-5v2.62l-3.69-3.69,3.69-3.69v2.58h5Z" fill="#0072c6"/>
    </g>
    <g>
      <rect x="278.62" y="86.32" width="17.54" height="17.54" transform="translate(151.41 -175.36) rotate(45)" fill="#fff"/>
      <path d="M300.17,92.92,288.83,81.58a2.63,2.63,0,0,0-1.85-.79,2.59,2.59,0,0,0-1.84.79L273.79,92.92a2.57,2.57,0,0,0,0,3.69l11.4,11.4a2.56,2.56,0,0,0,1.85.78,2.63,2.63,0,0,0,1.84-.78l11.4-11.4a2.51,2.51,0,0,0,.79-1.84A3.47,3.47,0,0,0,300.17,92.92ZM287,83.48l3.69,3.69H288.1v5.36h-2.18V87.17h-2.63ZM276.59,96.11V93.93h5V91.3L285.3,95l-3.68,3.69V96.11ZM287,106.5l-3.69-3.69h2.57V97.56H288v5.25h2.63Zm10.4-10.39h-5v2.62l-3.69-3.68,3.69-3.69v2.57h5Z" fill="#3c3c41"/>
    </g>
    <g>
      <rect x="278.62" y="156.52" width="17.54" height="17.54" transform="translate(201.05 -154.8) rotate(45)" fill="#fff"/>
      <path d="M300.17,163.13l-11.34-11.35A2.67,2.67,0,0,0,287,151a2.63,2.63,0,0,0-1.84.78l-11.35,11.35a2.57,2.57,0,0,0,0,3.69l11.4,11.4A2.56,2.56,0,0,0,287,179a2.63,2.63,0,0,0,1.84-.78l11.4-11.4a2.52,2.52,0,0,0,.79-1.85A3.44,3.44,0,0,0,300.17,163.13ZM287,153.68l3.69,3.69H288.1v5.37h-2.18v-5.37h-2.63Zm-10.39,12.64v-2.18h5v-2.63l3.68,3.69-3.68,3.69v-2.57ZM287,176.71,283.29,173h2.57v-5.25H288V173h2.63Zm10.4-10.39h-5v2.62l-3.69-3.69,3.69-3.69v2.58h5Z" fill="#3c3c41"/>
    </g>
    <g>
      <line x1="266.28" y1="94.79" x2="181.8" y2="94.79" fill="none" stroke="#3c3c41" stroke-miterlimit="10"/>
      <polygon points="265.18 91.05 271.66 94.79 265.18 98.53 265.18 91.05" fill="#3c3c41"/>
      <polygon points="182.89 91.05 176.41 94.79 182.89 98.53 182.89 91.05" fill="#3c3c41"/>
    </g>
    <g>
      <line x1="270.46" y1="165.81" x2="177.62" y2="165.81" fill="none" stroke="#107c10" stroke-miterlimit="10"/>
      <path d="M263.62,161a.5.5,0,0,0,.16.69l6.45,4.11-6.45,4.11a.5.5,0,0,0-.16.69.51.51,0,0,0,.69.16l7.12-4.54a.5.5,0,0,0,0-.84l-7.12-4.53a.5.5,0,0,0-.26-.08A.51.51,0,0,0,263.62,161Z" fill="#107c10"/>
      <path d="M184.45,161a.5.5,0,0,1-.15.69l-6.46,4.11,6.46,4.11a.5.5,0,0,1,.15.69.51.51,0,0,1-.69.16l-7.11-4.54a.49.49,0,0,1,0-.84l7.11-4.53a.53.53,0,0,1,.27-.08A.49.49,0,0,1,184.45,161Z" fill="#107c10"/>
    </g>
    <g>
      <line x1="268.33" y1="103.4" x2="174.2" y2="156.55" fill="none" stroke="#107c10" stroke-miterlimit="10"/>
      <path d="M260,102.58a.51.51,0,0,0,.47.53l7.64.4-3.59,6.75a.5.5,0,0,0,.88.48l4-7.45a.51.51,0,0,0,0-.48.49.49,0,0,0-.41-.25l-8.42-.45a.5.5,0,0,0-.53.47Z" fill="#107c10"/>
      <path d="M177.79,149a.5.5,0,0,1,.21.68l-3.6,6.75,7.64.41a.5.5,0,1,1,0,1l-8.43-.44a.52.52,0,0,1-.41-.26.51.51,0,0,1,0-.48l4-7.44a.41.41,0,0,1,.19-.2A.51.51,0,0,1,177.79,149Z" fill="#107c10"/>
    </g>
    <g>
      <line x1="178.99" y1="105.46" x2="265.84" y2="154.5" fill="none" stroke="#3c3c41" stroke-miterlimit="10"/>
      <polygon points="178.1 109.25 174.3 102.81 181.78 102.74 178.1 109.25" fill="#3c3c41"/>
      <polygon points="263.05 157.22 270.53 157.14 266.73 150.7 263.05 157.22" fill="#3c3c41"/>
    </g>
  </g>
  <g id="Text">
    <g>
      <path d="M36.62,57.18h-1V49.92a2.11,2.11,0,0,1-.33.26,3.57,3.57,0,0,1-.48.28,4.83,4.83,0,0,1-.56.27,4.89,4.89,0,0,1-.58.19V50a5.46,5.46,0,0,0,.67-.24c.24-.1.47-.21.7-.33s.45-.25.65-.39a4.88,4.88,0,0,0,.53-.4h.36Z" fill="#1e1e1e"/>
      <path d="M44.82,53a8.15,8.15,0,0,1-.19,1.87,4.18,4.18,0,0,1-.55,1.37A2.34,2.34,0,0,1,42,57.33a2.19,2.19,0,0,1-1.12-.28,2.32,2.32,0,0,1-.84-.81,3.82,3.82,0,0,1-.51-1.31,7.93,7.93,0,0,1-.18-1.78,9.35,9.35,0,0,1,.18-1.94,4.63,4.63,0,0,1,.55-1.42,2.41,2.41,0,0,1,.88-.86,2.56,2.56,0,0,1,1.22-.29Q44.82,48.64,44.82,53Zm-1,.09c0-2.39-.57-3.58-1.71-3.58s-1.8,1.21-1.8,3.65c0,2.27.59,3.4,1.77,3.4S43.84,55.35,43.84,53Z" fill="#1e1e1e"/>
      <path d="M46.62,57.31a.65.65,0,0,1-.65-.65.64.64,0,0,1,.19-.47.62.62,0,0,1,.46-.19.65.65,0,0,1,.66.66.62.62,0,0,1-.19.46A.64.64,0,0,1,46.62,57.31Z" fill="#1e1e1e"/>
      <path d="M52.16,57.18h-1V49.92a2.72,2.72,0,0,1-.33.26,3.57,3.57,0,0,1-.48.28,4.83,4.83,0,0,1-.56.27,4.89,4.89,0,0,1-.58.19V50a5.46,5.46,0,0,0,.67-.24c.24-.1.47-.21.7-.33s.44-.25.65-.39a4.88,4.88,0,0,0,.53-.4h.36Z" fill="#1e1e1e"/>
      <path d="M58.63,57.18h-1V49.92a2.72,2.72,0,0,1-.33.26,3.57,3.57,0,0,1-.48.28,4.83,4.83,0,0,1-.56.27,4.89,4.89,0,0,1-.58.19V50a5.46,5.46,0,0,0,.67-.24c.24-.1.47-.21.7-.33s.44-.25.65-.39a3.92,3.92,0,0,0,.52-.4h.37Z" fill="#1e1e1e"/>
      <path d="M62.16,57.31a.65.65,0,0,1-.65-.65.64.64,0,0,1,.19-.47.62.62,0,0,1,.46-.19.65.65,0,0,1,.66.66.62.62,0,0,1-.19.46A.64.64,0,0,1,62.16,57.31Z" fill="#1e1e1e"/>
      <path d="M69.43,53a8.15,8.15,0,0,1-.19,1.87,4.41,4.41,0,0,1-.55,1.37,2.34,2.34,0,0,1-2.08,1.14,2.19,2.19,0,0,1-1.12-.28,2.32,2.32,0,0,1-.84-.81,4,4,0,0,1-.52-1.31A8.61,8.61,0,0,1,64,53.15a9.35,9.35,0,0,1,.18-1.94,4.63,4.63,0,0,1,.55-1.42,2.41,2.41,0,0,1,.88-.86,2.56,2.56,0,0,1,1.22-.29Q69.43,48.64,69.43,53Zm-1,.09c0-2.39-.57-3.58-1.71-3.58s-1.8,1.21-1.8,3.65c0,2.27.59,3.4,1.77,3.4S68.45,55.35,68.45,53Z" fill="#1e1e1e"/>
      <path d="M71.23,57.31a.65.65,0,0,1-.65-.65.64.64,0,0,1,.19-.47.62.62,0,0,1,.46-.19.65.65,0,0,1,.66.66.62.62,0,0,1-.19.46A.64.64,0,0,1,71.23,57.31Z" fill="#1e1e1e"/>
      <path d="M78.5,53a8.15,8.15,0,0,1-.19,1.87,4.41,4.41,0,0,1-.55,1.37,2.34,2.34,0,0,1-2.08,1.14,2.19,2.19,0,0,1-1.12-.28,2.32,2.32,0,0,1-.84-.81,3.82,3.82,0,0,1-.51-1.31A7.93,7.93,0,0,1,73,53.15a9.35,9.35,0,0,1,.18-1.94,4.63,4.63,0,0,1,.55-1.42,2.41,2.41,0,0,1,.88-.86,2.56,2.56,0,0,1,1.22-.29Q78.5,48.64,78.5,53Zm-1,.09c0-2.39-.57-3.58-1.71-3.58S74,50.67,74,53.11c0,2.27.59,3.4,1.77,3.4S77.52,55.35,77.52,53Z" fill="#1e1e1e"/>
      <path d="M83.76,48.78l-4,9.8h-.9l4-9.8Z" fill="#1e1e1e"/>
      <path d="M87.91,57.18H87V49.92a2,2,0,0,1-.32.26,5.5,5.5,0,0,1-.48.28,5,5,0,0,1-.57.27,4.76,4.76,0,0,1-.57.19V50a6.12,6.12,0,0,0,.67-.24c.23-.1.47-.21.69-.33s.45-.25.65-.39a4.88,4.88,0,0,0,.53-.4h.36Z" fill="#1e1e1e"/>
      <path d="M96.13,54.52a3.15,3.15,0,0,1-.2,1.13,2.78,2.78,0,0,1-.55.89,2.58,2.58,0,0,1-.84.58,2.67,2.67,0,0,1-1.06.21,2.31,2.31,0,0,1-2-1A3.63,3.63,0,0,1,91,55.1a6.61,6.61,0,0,1-.18-1.61,7.64,7.64,0,0,1,.24-2A4.68,4.68,0,0,1,91.72,50a3.24,3.24,0,0,1,1.08-1,3,3,0,0,1,1.42-.35,3.37,3.37,0,0,1,1.39.24v.91a3,3,0,0,0-1.37-.33,2,2,0,0,0-1,.25,2.38,2.38,0,0,0-.78.71A3.53,3.53,0,0,0,92,51.53,5.44,5.44,0,0,0,91.79,53h0a2,2,0,0,1,1.91-1,2.48,2.48,0,0,1,1,.19,2.09,2.09,0,0,1,.75.53,2.54,2.54,0,0,1,.49.81A3.23,3.23,0,0,1,96.13,54.52Zm-1,.12a2.48,2.48,0,0,0-.11-.79,1.73,1.73,0,0,0-.32-.6,1.34,1.34,0,0,0-.51-.37,1.67,1.67,0,0,0-.69-.14,1.59,1.59,0,0,0-.66.14,1.66,1.66,0,0,0-.53.36,1.73,1.73,0,0,0-.35.54,1.85,1.85,0,0,0-.13.66,2.37,2.37,0,0,0,.13.81,2.06,2.06,0,0,0,.34.66,1.86,1.86,0,0,0,.53.44,1.46,1.46,0,0,0,.69.16,1.59,1.59,0,0,0,.66-.14A1.48,1.48,0,0,0,94.7,56,1.77,1.77,0,0,0,95,55.4,2.58,2.58,0,0,0,95.14,54.64Z" fill="#1e1e1e"/>
      <path d="M36.62,70.38h-1V63.13a3.06,3.06,0,0,1-.33.25,3.57,3.57,0,0,1-.48.28,4.83,4.83,0,0,1-.56.27,4.89,4.89,0,0,1-.58.19v-1a5.46,5.46,0,0,0,.67-.24c.24-.1.47-.21.7-.33s.45-.25.65-.39.38-.27.53-.39h.36Z" fill="#1e1e1e"/>
      <path d="M44.82,66.15A8.15,8.15,0,0,1,44.63,68a4.18,4.18,0,0,1-.55,1.37A2.34,2.34,0,0,1,42,70.53a2.19,2.19,0,0,1-1.12-.28,2.32,2.32,0,0,1-.84-.81,3.82,3.82,0,0,1-.51-1.31,7.93,7.93,0,0,1-.18-1.78,9.35,9.35,0,0,1,.18-1.94A4.63,4.63,0,0,1,40.08,63a2.41,2.41,0,0,1,.88-.86,2.56,2.56,0,0,1,1.22-.29Q44.82,61.84,44.82,66.15Zm-1,.09c0-2.39-.57-3.58-1.71-3.58s-1.8,1.21-1.8,3.65c0,2.27.59,3.4,1.77,3.4S43.84,68.55,43.84,66.24Z" fill="#1e1e1e"/>
      <path d="M46.62,70.51a.65.65,0,0,1-.65-.65.64.64,0,0,1,.19-.47.62.62,0,0,1,.46-.19.65.65,0,0,1,.66.66.62.62,0,0,1-.19.46A.64.64,0,0,1,46.62,70.51Z" fill="#1e1e1e"/>
      <path d="M52.16,70.38h-1V63.13l-.33.25a3.57,3.57,0,0,1-.48.28,4.83,4.83,0,0,1-.56.27,4.89,4.89,0,0,1-.58.19v-1a5.46,5.46,0,0,0,.67-.24c.24-.1.47-.21.7-.33s.44-.25.65-.39.38-.27.53-.39h.36Z" fill="#1e1e1e"/>
      <path d="M58.91,64.19a1.76,1.76,0,0,0-.12-.68,1.37,1.37,0,0,0-.33-.48,1.39,1.39,0,0,0-.49-.28,2,2,0,0,0-.61-.09,2,2,0,0,0-.55.07,2.57,2.57,0,0,0-.52.21,3.08,3.08,0,0,0-.5.33,4.2,4.2,0,0,0-.44.41v-1a2.88,2.88,0,0,1,.91-.6,3.14,3.14,0,0,1,1.22-.21,2.91,2.91,0,0,1,1,.15,2.25,2.25,0,0,1,.77.44,2,2,0,0,1,.5.71,2.25,2.25,0,0,1,.19,1,3.18,3.18,0,0,1-.12.91,2.73,2.73,0,0,1-.34.76,3.68,3.68,0,0,1-.59.68,8.71,8.71,0,0,1-.82.67c-.4.28-.72.52-1,.72a5,5,0,0,0-.61.56,1.7,1.7,0,0,0-.31.52,1.89,1.89,0,0,0-.09.6h4.18v.86H55V70a3.38,3.38,0,0,1,.12-1,2.59,2.59,0,0,1,.39-.78,4.33,4.33,0,0,1,.7-.74c.29-.24.65-.52,1.07-.83a6.87,6.87,0,0,0,.77-.63,3.55,3.55,0,0,0,.49-.59,2,2,0,0,0,.27-.61A2.75,2.75,0,0,0,58.91,64.19Z" fill="#1e1e1e"/>
      <path d="M62.16,70.51a.65.65,0,0,1-.65-.65.64.64,0,0,1,.19-.47.62.62,0,0,1,.46-.19.65.65,0,0,1,.66.66.62.62,0,0,1-.19.46A.64.64,0,0,1,62.16,70.51Z" fill="#1e1e1e"/>
      <path d="M69.43,66.15A8.15,8.15,0,0,1,69.24,68a4.41,4.41,0,0,1-.55,1.37,2.34,2.34,0,0,1-2.08,1.14,2.19,2.19,0,0,1-1.12-.28,2.32,2.32,0,0,1-.84-.81,4,4,0,0,1-.52-1.31A8.61,8.61,0,0,1,64,66.35a9.35,9.35,0,0,1,.18-1.94A4.63,4.63,0,0,1,64.69,63a2.41,2.41,0,0,1,.88-.86,2.56,2.56,0,0,1,1.22-.29Q69.43,61.84,69.43,66.15Zm-1,.09c0-2.39-.57-3.58-1.71-3.58s-1.8,1.21-1.8,3.65c0,2.27.59,3.4,1.77,3.4S68.45,68.55,68.45,66.24Z" fill="#1e1e1e"/>
      <path d="M71.23,70.51a.65.65,0,0,1-.65-.65.64.64,0,0,1,.19-.47.62.62,0,0,1,.46-.19.65.65,0,0,1,.66.66.62.62,0,0,1-.19.46A.64.64,0,0,1,71.23,70.51Z" fill="#1e1e1e"/>
      <path d="M78.5,66.15A8.15,8.15,0,0,1,78.31,68a4.41,4.41,0,0,1-.55,1.37,2.34,2.34,0,0,1-2.08,1.14,2.19,2.19,0,0,1-1.12-.28,2.32,2.32,0,0,1-.84-.81,3.82,3.82,0,0,1-.51-1.31A7.93,7.93,0,0,1,73,66.35a9.35,9.35,0,0,1,.18-1.94A4.63,4.63,0,0,1,73.76,63a2.41,2.41,0,0,1,.88-.86,2.56,2.56,0,0,1,1.22-.29Q78.5,61.84,78.5,66.15Zm-1,.09c0-2.39-.57-3.58-1.71-3.58S74,63.87,74,66.31c0,2.27.59,3.4,1.77,3.4S77.52,68.55,77.52,66.24Z" fill="#1e1e1e"/>
      <path d="M83.76,62l-4,9.8h-.9l4-9.8Z" fill="#1e1e1e"/>
      <path d="M87.91,70.38H87V63.13a2.78,2.78,0,0,1-.32.25,5.5,5.5,0,0,1-.48.28,5,5,0,0,1-.57.27,4.76,4.76,0,0,1-.57.19v-1a6.12,6.12,0,0,0,.67-.24c.23-.1.47-.21.69-.33s.45-.25.65-.39.38-.27.53-.39h.36Z" fill="#1e1e1e"/>
      <path d="M96.13,67.72a3.15,3.15,0,0,1-.2,1.13,2.78,2.78,0,0,1-.55.89,2.58,2.58,0,0,1-.84.58,2.67,2.67,0,0,1-1.06.21,2.31,2.31,0,0,1-2-1A3.63,3.63,0,0,1,91,68.3a6.61,6.61,0,0,1-.18-1.61,7.64,7.64,0,0,1,.24-2,4.68,4.68,0,0,1,.69-1.53,3.24,3.24,0,0,1,1.08-1,3,3,0,0,1,1.42-.35,3.37,3.37,0,0,1,1.39.24V63a3,3,0,0,0-1.37-.33,2,2,0,0,0-1,.25,2.38,2.38,0,0,0-.78.71A3.53,3.53,0,0,0,92,64.73a5.44,5.44,0,0,0-.17,1.45h0a2,2,0,0,1,1.91-1.05,2.48,2.48,0,0,1,1,.19,2.09,2.09,0,0,1,.75.53,2.54,2.54,0,0,1,.49.81A3.23,3.23,0,0,1,96.13,67.72Zm-1,.12a2.48,2.48,0,0,0-.11-.79,1.73,1.73,0,0,0-.32-.6,1.34,1.34,0,0,0-.51-.37,1.67,1.67,0,0,0-.69-.14,1.59,1.59,0,0,0-.66.14,1.66,1.66,0,0,0-.53.36A1.73,1.73,0,0,0,92,67a1.85,1.85,0,0,0-.13.66,2.37,2.37,0,0,0,.13.81,2.06,2.06,0,0,0,.34.66,1.71,1.71,0,0,0,.53.44,1.6,1.6,0,0,0,1.35,0,1.48,1.48,0,0,0,.51-.38A1.77,1.77,0,0,0,95,68.6,2.58,2.58,0,0,0,95.14,67.84Z" fill="#1e1e1e"/>
    </g>
    <g>
      <path d="M326.15,23.34a3.68,3.68,0,0,1-2.86-1.18,4.33,4.33,0,0,1-1.08-3.06,4.62,4.62,0,0,1,1.1-3.23,3.82,3.82,0,0,1,3-1.21,3.62,3.62,0,0,1,2.81,1.17,4.37,4.37,0,0,1,1.06,3.06,4.64,4.64,0,0,1-1.09,3.26A3.78,3.78,0,0,1,326.15,23.34Zm.07-7.79a2.73,2.73,0,0,0-2.15.95,3.72,3.72,0,0,0-.82,2.51,3.7,3.7,0,0,0,.8,2.5,2.64,2.64,0,0,0,2.1.95,2.74,2.74,0,0,0,2.18-.91,3.68,3.68,0,0,0,.8-2.52,3.87,3.87,0,0,0-.77-2.57A2.66,2.66,0,0,0,326.22,15.55Z" fill="#1e1e1e"/>
      <path d="M336.66,23.2h-1V19.78c0-1.27-.46-1.91-1.39-1.91a1.5,1.5,0,0,0-1.19.54,2,2,0,0,0-.48,1.37V23.2h-1v-6h1v1h0a2.16,2.16,0,0,1,2-1.14,1.81,1.81,0,0,1,1.5.64,2.79,2.79,0,0,1,.52,1.83Z" fill="#1e1e1e"/>
      <path d="M341.55,20.24h-3.2v-.76h3.2Z" fill="#1e1e1e"/>
      <path d="M344.26,22.33h0V26h-1V17.2h1v1.06h0a2.26,2.26,0,0,1,2.07-1.2,2.18,2.18,0,0,1,1.81.81,3.28,3.28,0,0,1,.65,2.16,3.72,3.72,0,0,1-.73,2.41,2.45,2.45,0,0,1-2,.9A2,2,0,0,1,344.26,22.33Zm0-2.42v.84a1.78,1.78,0,0,0,.49,1.26,1.72,1.72,0,0,0,2.59-.14,3.09,3.09,0,0,0,.5-1.86,2.47,2.47,0,0,0-.46-1.57,1.54,1.54,0,0,0-1.26-.57,1.7,1.7,0,0,0-1.35.58A2.15,2.15,0,0,0,344.23,19.91Z" fill="#1e1e1e"/>
      <path d="M353.46,18.17a1.25,1.25,0,0,0-.73-.19,1.23,1.23,0,0,0-1,.58,2.72,2.72,0,0,0-.41,1.58V23.2h-1v-6h1v1.24h0a2.17,2.17,0,0,1,.63-1,1.41,1.41,0,0,1,.94-.35,1.52,1.52,0,0,1,.58.08Z" fill="#1e1e1e"/>
      <path d="M359.32,20.44h-4.23a2.19,2.19,0,0,0,.54,1.55,1.85,1.85,0,0,0,1.41.54,3,3,0,0,0,1.87-.66v.9a3.53,3.53,0,0,1-2.1.57,2.51,2.51,0,0,1-2-.82,3.31,3.31,0,0,1-.73-2.3,3.28,3.28,0,0,1,.79-2.28,2.55,2.55,0,0,1,2-.88,2.25,2.25,0,0,1,1.82.76,3.19,3.19,0,0,1,.64,2.12Zm-1-.81a2,2,0,0,0-.4-1.3,1.37,1.37,0,0,0-1.1-.46,1.54,1.54,0,0,0-1.16.49,2.18,2.18,0,0,0-.58,1.27Z" fill="#1e1e1e"/>
      <path d="M369.3,23.2h-1V19.76a2.68,2.68,0,0,0-.3-1.45,1.19,1.19,0,0,0-1-.44,1.27,1.27,0,0,0-1,.56,2.16,2.16,0,0,0-.43,1.35V23.2h-1V19.64c0-1.18-.45-1.77-1.36-1.77a1.27,1.27,0,0,0-1,.53,2.14,2.14,0,0,0-.41,1.38V23.2h-1v-6h1v.95h0a2,2,0,0,1,1.86-1.09,1.76,1.76,0,0,1,1.08.34,1.73,1.73,0,0,1,.62.9,2.14,2.14,0,0,1,2-1.24c1.32,0,2,.82,2,2.44Z" fill="#1e1e1e"/>
      <path d="M371.6,15.68a.62.62,0,0,1-.44-.18.59.59,0,0,1-.18-.44.61.61,0,0,1,.18-.45.62.62,0,0,1,.44-.18.61.61,0,0,1,.45.18.62.62,0,0,1,0,.89A.61.61,0,0,1,371.6,15.68Zm.47,7.52h-1v-6h1Z" fill="#1e1e1e"/>
      <path d="M373.65,23V22a2.84,2.84,0,0,0,1.73.58c.85,0,1.27-.28,1.27-.84a.76.76,0,0,0-.11-.41,1,1,0,0,0-.29-.29,2.28,2.28,0,0,0-.44-.24l-.53-.21a5.16,5.16,0,0,1-.7-.32,2.55,2.55,0,0,1-.51-.36,1.52,1.52,0,0,1-.3-.46,1.57,1.57,0,0,1-.1-.6,1.39,1.39,0,0,1,.19-.75,1.7,1.7,0,0,1,.52-.55,2.71,2.71,0,0,1,.73-.33,3.59,3.59,0,0,1,2.25.16v1a2.71,2.71,0,0,0-1.53-.43,1.75,1.75,0,0,0-.48.06,1.15,1.15,0,0,0-.37.17.76.76,0,0,0-.24.27.67.67,0,0,0-.09.34.82.82,0,0,0,.09.4,1,1,0,0,0,.24.28,2.48,2.48,0,0,0,.4.22l.54.22a6.85,6.85,0,0,1,.71.31,2.82,2.82,0,0,1,.54.36,1.41,1.41,0,0,1,.34.47,1.48,1.48,0,0,1,.12.63,1.49,1.49,0,0,1-.19.77,1.61,1.61,0,0,1-.53.54,2.32,2.32,0,0,1-.75.33,3.82,3.82,0,0,1-.9.1A3.41,3.41,0,0,1,373.65,23Z" fill="#1e1e1e"/>
      <path d="M383.93,20.44H379.7a2.23,2.23,0,0,0,.53,1.55,1.88,1.88,0,0,0,1.42.54,3,3,0,0,0,1.87-.66v.9a3.53,3.53,0,0,1-2.1.57,2.51,2.51,0,0,1-2-.82,3.31,3.31,0,0,1-.73-2.3,3.28,3.28,0,0,1,.79-2.28,2.54,2.54,0,0,1,2-.88,2.26,2.26,0,0,1,1.83.76,3.19,3.19,0,0,1,.64,2.12Zm-1-.81a2,2,0,0,0-.4-1.3,1.37,1.37,0,0,0-1.1-.46,1.54,1.54,0,0,0-1.16.49,2.18,2.18,0,0,0-.58,1.27Z" fill="#1e1e1e"/>
      <path d="M385,23V22a2.84,2.84,0,0,0,1.73.58c.84,0,1.27-.28,1.27-.84a.76.76,0,0,0-.11-.41.93.93,0,0,0-.3-.29,1.94,1.94,0,0,0-.43-.24l-.54-.21a6.6,6.6,0,0,1-.7-.32,2.47,2.47,0,0,1-.5-.36,1.35,1.35,0,0,1-.3-.46,1.57,1.57,0,0,1-.11-.6,1.4,1.4,0,0,1,.2-.75,1.78,1.78,0,0,1,.51-.55,2.77,2.77,0,0,1,.74-.33,3.56,3.56,0,0,1,2.24.16v1a2.68,2.68,0,0,0-1.52-.43,1.88,1.88,0,0,0-.49.06,1.4,1.4,0,0,0-.37.17,1,1,0,0,0-.24.27.77.77,0,0,0-.08.34,1,1,0,0,0,.08.4,1.07,1.07,0,0,0,.25.28,2.11,2.11,0,0,0,.4.22l.53.22a6.21,6.21,0,0,1,.72.31,2.82,2.82,0,0,1,.54.36,1.41,1.41,0,0,1,.34.47,1.48,1.48,0,0,1,.12.63,1.5,1.5,0,0,1-.2.77,1.58,1.58,0,0,1-.52.54,2.28,2.28,0,0,1-.76.33,3.68,3.68,0,0,1-.89.1A3.39,3.39,0,0,1,385,23Z" fill="#1e1e1e"/>
      <path d="M393.5,22.86V21.7A2.23,2.23,0,0,0,394,22a3.69,3.69,0,0,0,.58.23,3.5,3.5,0,0,0,.62.15,3.09,3.09,0,0,0,.58.06,2.27,2.27,0,0,0,1.35-.34,1.26,1.26,0,0,0,.3-1.56,1.76,1.76,0,0,0-.41-.46,4.57,4.57,0,0,0-.63-.4l-.77-.4c-.3-.15-.57-.3-.82-.45a2.89,2.89,0,0,1-.66-.51,2.1,2.1,0,0,1-.45-.62,2.07,2.07,0,0,1-.16-.82,2,2,0,0,1,.25-1,2.24,2.24,0,0,1,.67-.7,3,3,0,0,1,.93-.41,4.29,4.29,0,0,1,1.07-.13,4.08,4.08,0,0,1,1.81.3v1.1a3.31,3.31,0,0,0-1.91-.51,2.79,2.79,0,0,0-.64.07,1.56,1.56,0,0,0-.58.22,1.27,1.27,0,0,0-.41.39,1.07,1.07,0,0,0-.16.58,1.22,1.22,0,0,0,.12.56,1.31,1.31,0,0,0,.36.43,3,3,0,0,0,.57.37c.22.13.48.26.78.4s.58.31.85.47a4,4,0,0,1,.71.55,2.53,2.53,0,0,1,.48.66,1.84,1.84,0,0,1,.18.83,2.14,2.14,0,0,1-.24,1.05,1.93,1.93,0,0,1-.66.7,2.8,2.8,0,0,1-.95.39,5.24,5.24,0,0,1-1.14.12l-.49,0-.6-.09-.57-.16A1.65,1.65,0,0,1,393.5,22.86Z" fill="#1e1e1e"/>
      <path d="M400.63,15.68a.6.6,0,0,1-.44-.18.59.59,0,0,1-.18-.44.61.61,0,0,1,.18-.45.6.6,0,0,1,.44-.18.62.62,0,0,1,.63.63.6.6,0,0,1-.18.44A.61.61,0,0,1,400.63,15.68Zm.47,7.52h-1v-6h1Z" fill="#1e1e1e"/>
      <path d="M405.83,23.14a1.82,1.82,0,0,1-.9.19c-1.05,0-1.57-.59-1.57-1.76V18h-1V17.2h1V15.74l1-.31V17.2h1.51V18h-1.51V21.4a1.38,1.38,0,0,0,.2.86.8.8,0,0,0,.68.26,1,1,0,0,0,.63-.2Z" fill="#1e1e1e"/>
      <path d="M411.93,20.44H407.7a2.19,2.19,0,0,0,.54,1.55,1.85,1.85,0,0,0,1.41.54,3,3,0,0,0,1.87-.66v.9a3.52,3.52,0,0,1-2.09.57,2.52,2.52,0,0,1-2-.82,3.31,3.31,0,0,1-.73-2.3,3.29,3.29,0,0,1,.8-2.28,2.51,2.51,0,0,1,2-.88,2.25,2.25,0,0,1,1.82.76,3.19,3.19,0,0,1,.64,2.12Zm-1-.81a2,2,0,0,0-.4-1.3,1.37,1.37,0,0,0-1.1-.46,1.52,1.52,0,0,0-1.15.49,2.13,2.13,0,0,0-.59,1.27Z" fill="#1e1e1e"/>
    </g>
    <g>
      <path d="M44.21,1.8,41.1,10.2H40L37,1.8h1.1l2.32,6.66a3.62,3.62,0,0,1,.17.75h0a3.38,3.38,0,0,1,.19-.76L43.15,1.8Z" fill="#1e1e1e"/>
      <path d="M52.19,10.2H51L46.66,3.5A2.57,2.57,0,0,1,46.39,3h0a9.28,9.28,0,0,1,0,1.15V10.2h-1V1.8H46.7l4.2,6.59a5.88,5.88,0,0,1,.34.56h0a8.58,8.58,0,0,1-.06-1.23V1.8h1Z" fill="#1e1e1e"/>
      <path d="M59.09,7.44H54.85A2.28,2.28,0,0,0,55.39,9a1.88,1.88,0,0,0,1.42.54,2.94,2.94,0,0,0,1.86-.66v.9a3.47,3.47,0,0,1-2.09.57,2.53,2.53,0,0,1-2-.82,3.35,3.35,0,0,1-.72-2.3,3.28,3.28,0,0,1,.79-2.28,2.54,2.54,0,0,1,2-.88,2.22,2.22,0,0,1,1.82.76,3.2,3.2,0,0,1,.65,2.12Zm-1-.81a2,2,0,0,0-.41-1.3,1.35,1.35,0,0,0-1.09-.46,1.54,1.54,0,0,0-1.16.49,2.19,2.19,0,0,0-.59,1.27Z" fill="#1e1e1e"/>
      <path d="M63.33,10.14a1.82,1.82,0,0,1-.9.19c-1,0-1.58-.59-1.58-1.76V5h-1V4.2h1V2.74l1-.31V4.2h1.52V5H61.81V8.4a1.37,1.37,0,0,0,.21.86.8.8,0,0,0,.68.26,1,1,0,0,0,.63-.2Z" fill="#1e1e1e"/>
      <path d="M67.88,10.2h-1V2.94a2.72,2.72,0,0,1-.33.26,5.1,5.1,0,0,1-.48.28c-.18.09-.36.18-.56.26a3.63,3.63,0,0,1-.58.2V3a4.1,4.1,0,0,0,.67-.23,6.44,6.44,0,0,0,.7-.34c.23-.12.44-.25.65-.38a6.62,6.62,0,0,0,.53-.4h.36Z" fill="#1e1e1e"/>
      <path d="M42.42,23.4H38V15h4.26v.89H39v2.79h3v.89H39v2.94h3.47Z" fill="#1e1e1e"/>
      <path d="M48.2,23.4h-1v-.94h0a2.2,2.2,0,0,1-3.25.61,1.65,1.65,0,0,1-.51-1.26c0-1.12.66-1.78,2-2l1.8-.25q0-1.53-1.23-1.53a3,3,0,0,0-2,.74v-1a3.76,3.76,0,0,1,2-.56c1.41,0,2.11.75,2.11,2.24Zm-1-3-1.45.2a2.25,2.25,0,0,0-1,.33.94.94,0,0,0-.34.84.92.92,0,0,0,.31.72,1.25,1.25,0,0,0,.84.27,1.53,1.53,0,0,0,1.18-.5A1.77,1.77,0,0,0,47.24,21Z" fill="#1e1e1e"/>
      <path d="M49.65,23.18v-1a2.82,2.82,0,0,0,1.73.58q1.26,0,1.26-.84a.76.76,0,0,0-.1-.41,1,1,0,0,0-.3-.29,1.59,1.59,0,0,0-.43-.23l-.54-.22a5.79,5.79,0,0,1-.7-.32,2.22,2.22,0,0,1-.5-.36,1.38,1.38,0,0,1-.31-.46,1.79,1.79,0,0,1-.1-.6,1.4,1.4,0,0,1,.2-.75,1.67,1.67,0,0,1,.51-.55,2.77,2.77,0,0,1,.74-.33,3.56,3.56,0,0,1,2.24.16v1a2.7,2.7,0,0,0-1.52-.43,1.88,1.88,0,0,0-.49.06,1.26,1.26,0,0,0-.37.17,1,1,0,0,0-.24.27.66.66,0,0,0-.08.34.82.82,0,0,0,.08.4,1.07,1.07,0,0,0,.25.28,2.11,2.11,0,0,0,.4.22l.53.22a6.21,6.21,0,0,1,.72.31,2.82,2.82,0,0,1,.54.36,1.57,1.57,0,0,1,.34.47,1.48,1.48,0,0,1,.12.63,1.5,1.5,0,0,1-.2.77,1.58,1.58,0,0,1-.52.54,2.28,2.28,0,0,1-.76.33,3.68,3.68,0,0,1-.89.1A3.39,3.39,0,0,1,49.65,23.18Z" fill="#1e1e1e"/>
      <path d="M57.89,23.34a1.82,1.82,0,0,1-.9.19c-1.05,0-1.57-.59-1.57-1.76V18.22h-1V17.4h1V15.94l1-.31V17.4h1.51v.82H56.38V21.6a1.38,1.38,0,0,0,.2.86.8.8,0,0,0,.68.26,1,1,0,0,0,.63-.2Z" fill="#1e1e1e"/>
      <path d="M68.73,20q0,3.54-3.19,3.54t-3.06-3.4V15h1v5.07c0,1.73.72,2.59,2.18,2.59s2.1-.83,2.1-2.5V15h1Z" fill="#1e1e1e"/>
      <path d="M70.44,23.06V21.9a2.23,2.23,0,0,0,.48.32,5,5,0,0,0,.58.24,4.61,4.61,0,0,0,.62.14,3.07,3.07,0,0,0,.57.06,2.22,2.22,0,0,0,1.36-.34,1.26,1.26,0,0,0,.3-1.56,1.76,1.76,0,0,0-.41-.46,4.57,4.57,0,0,0-.63-.4l-.77-.4c-.3-.15-.57-.3-.82-.45a3.2,3.2,0,0,1-.67-.51,2.26,2.26,0,0,1-.44-.62,1.88,1.88,0,0,1-.16-.82,1.93,1.93,0,0,1,.25-1,2.32,2.32,0,0,1,.66-.7A3.19,3.19,0,0,1,72.3,15a4.29,4.29,0,0,1,1.07-.13,4.08,4.08,0,0,1,1.81.3v1.1a3.31,3.31,0,0,0-1.91-.51,2.88,2.88,0,0,0-.65.07,1.58,1.58,0,0,0-.57.22,1.27,1.27,0,0,0-.41.39,1,1,0,0,0-.16.58,1.19,1.19,0,0,0,.12.56A1.31,1.31,0,0,0,72,18a3,3,0,0,0,.57.37c.22.13.48.26.77.4s.59.31.86.47a4,4,0,0,1,.71.55,2.53,2.53,0,0,1,.48.66,1.84,1.84,0,0,1,.18.83,2.12,2.12,0,0,1-.24,1,1.93,1.93,0,0,1-.66.7,2.8,2.8,0,0,1-.95.39,5.24,5.24,0,0,1-1.14.12l-.49,0-.6-.09a4.74,4.74,0,0,1-.57-.16A1.51,1.51,0,0,1,70.44,23.06Z" fill="#1e1e1e"/>
    </g>
    <g>
      <path d="M346.69,57.18h-1V49.92a1.72,1.72,0,0,1-.33.26,3.57,3.57,0,0,1-.48.28,4.15,4.15,0,0,1-.56.27,4.89,4.89,0,0,1-.58.19V50a5.58,5.58,0,0,0,.68-.24q.35-.15.69-.33c.23-.13.45-.25.65-.39a4.88,4.88,0,0,0,.53-.4h.36Z" fill="#1e1e1e"/>
      <path d="M354.89,53a8.15,8.15,0,0,1-.19,1.87,4.18,4.18,0,0,1-.55,1.37,2.34,2.34,0,0,1-2.07,1.14,2.2,2.2,0,0,1-1.13-.28,2.32,2.32,0,0,1-.84-.81,4,4,0,0,1-.51-1.31,7.93,7.93,0,0,1-.18-1.78,8.67,8.67,0,0,1,.19-1.94,4.38,4.38,0,0,1,.54-1.42,2.44,2.44,0,0,1,.89-.86,2.49,2.49,0,0,1,1.21-.29Q354.89,48.64,354.89,53Zm-1,.09c0-2.39-.57-3.58-1.71-3.58s-1.79,1.21-1.79,3.65c0,2.27.58,3.4,1.76,3.4S353.91,55.35,353.91,53Z" fill="#1e1e1e"/>
      <path d="M356.69,57.31a.62.62,0,0,1-.46-.19.66.66,0,0,1-.19-.46.68.68,0,0,1,.19-.47.62.62,0,0,1,.46-.19.63.63,0,0,1,.47.19.64.64,0,0,1,.19.47.62.62,0,0,1-.19.46A.63.63,0,0,1,356.69,57.31Z" fill="#1e1e1e"/>
      <path d="M363.67,54.62a2.82,2.82,0,0,1-.22,1.11,2.47,2.47,0,0,1-.6.86,2.65,2.65,0,0,1-.94.55,3.59,3.59,0,0,1-1.22.19A3.44,3.44,0,0,1,359,57V56a3.16,3.16,0,0,0,1.75.55,2.31,2.31,0,0,0,.82-.13,1.8,1.8,0,0,0,.63-.38,1.56,1.56,0,0,0,.39-.58,2,2,0,0,0,.14-.74,1.59,1.59,0,0,0-.55-1.29,2.42,2.42,0,0,0-1.6-.47h-.36l-.37,0-.37,0a1.51,1.51,0,0,0-.32,0l.28-4.22h3.89v.87h-3l-.17,2.47.39,0h.38a4,4,0,0,1,1.19.17,2.7,2.7,0,0,1,.9.5,2.12,2.12,0,0,1,.55.8A2.78,2.78,0,0,1,363.67,54.62Z" fill="#1e1e1e"/>
      <path d="M368.7,57.18h-1V49.92a2.72,2.72,0,0,1-.33.26,3.57,3.57,0,0,1-.48.28,4.83,4.83,0,0,1-.56.27,4.89,4.89,0,0,1-.58.19V50a5.46,5.46,0,0,0,.67-.24c.24-.1.47-.21.7-.33s.44-.25.65-.39a4.88,4.88,0,0,0,.53-.4h.36Z" fill="#1e1e1e"/>
      <path d="M372.23,57.31a.65.65,0,0,1-.65-.65.64.64,0,0,1,.19-.47.62.62,0,0,1,.46-.19.63.63,0,0,1,.47.19.64.64,0,0,1,.19.47.62.62,0,0,1-.19.46A.63.63,0,0,1,372.23,57.31Z" fill="#1e1e1e"/>
      <path d="M379.5,53a8.15,8.15,0,0,1-.19,1.87,4.18,4.18,0,0,1-.55,1.37,2.34,2.34,0,0,1-2.08,1.14,2.19,2.19,0,0,1-1.12-.28,2.32,2.32,0,0,1-.84-.81,4,4,0,0,1-.51-1.31,7.93,7.93,0,0,1-.18-1.78,9.35,9.35,0,0,1,.18-1.94,4.63,4.63,0,0,1,.55-1.42,2.49,2.49,0,0,1,.88-.86,2.56,2.56,0,0,1,1.22-.29Q379.5,48.64,379.5,53Zm-1,.09c0-2.39-.57-3.58-1.71-3.58s-1.8,1.21-1.8,3.65c0,2.27.59,3.4,1.77,3.4S378.52,55.35,378.52,53Z" fill="#1e1e1e"/>
      <path d="M381.3,57.31a.65.65,0,0,1-.65-.65.64.64,0,0,1,.19-.47.62.62,0,0,1,.46-.19.63.63,0,0,1,.47.19.64.64,0,0,1,.19.47.62.62,0,0,1-.19.46A.63.63,0,0,1,381.3,57.31Z" fill="#1e1e1e"/>
      <path d="M388.57,53a8.15,8.15,0,0,1-.19,1.87,4.18,4.18,0,0,1-.55,1.37,2.34,2.34,0,0,1-2.07,1.14,2.2,2.2,0,0,1-1.13-.28,2.32,2.32,0,0,1-.84-.81,4,4,0,0,1-.51-1.31,7.93,7.93,0,0,1-.18-1.78,8.67,8.67,0,0,1,.19-1.94,4.38,4.38,0,0,1,.54-1.42,2.49,2.49,0,0,1,.88-.86,2.56,2.56,0,0,1,1.22-.29Q388.57,48.64,388.57,53Zm-1,.09c0-2.39-.57-3.58-1.71-3.58s-1.79,1.21-1.79,3.65c0,2.27.58,3.4,1.76,3.4S387.59,55.35,387.59,53Z" fill="#1e1e1e"/>
      <path d="M393.83,48.78l-4,9.8h-.9l4-9.8Z" fill="#1e1e1e"/>
      <path d="M398,57.18h-1V49.92a2,2,0,0,1-.32.26,5.5,5.5,0,0,1-.48.28,5,5,0,0,1-.57.27,4.76,4.76,0,0,1-.57.19V50a6.12,6.12,0,0,0,.67-.24c.23-.1.47-.21.7-.33s.44-.25.64-.39a4.06,4.06,0,0,0,.53-.4H398Z" fill="#1e1e1e"/>
      <path d="M406.2,54.52a3.15,3.15,0,0,1-.2,1.13,2.78,2.78,0,0,1-.55.89,2.58,2.58,0,0,1-.84.58,2.63,2.63,0,0,1-1.05.21,2.49,2.49,0,0,1-1.14-.26,2.46,2.46,0,0,1-.85-.76A3.63,3.63,0,0,1,401,55.1a6.61,6.61,0,0,1-.18-1.61,7.64,7.64,0,0,1,.24-2,4.91,4.91,0,0,1,.7-1.53,3.06,3.06,0,0,1,1.08-1,2.89,2.89,0,0,1,1.41-.35,3.37,3.37,0,0,1,1.39.24v.91a3,3,0,0,0-1.37-.33,2,2,0,0,0-1,.25,2.38,2.38,0,0,0-.78.71,3.53,3.53,0,0,0-.49,1.11,5.44,5.44,0,0,0-.17,1.45h0a2,2,0,0,1,1.92-1,2.46,2.46,0,0,1,1,.19,2.13,2.13,0,0,1,.76.53,2.52,2.52,0,0,1,.48.81A3.23,3.23,0,0,1,406.2,54.52Zm-1,.12a2.48,2.48,0,0,0-.11-.79,1.73,1.73,0,0,0-.32-.6,1.34,1.34,0,0,0-.51-.37,1.67,1.67,0,0,0-.69-.14,1.59,1.59,0,0,0-.66.14,1.66,1.66,0,0,0-.53.36,1.93,1.93,0,0,0-.35.54,1.84,1.84,0,0,0-.12.66,2.64,2.64,0,0,0,.12.81,2.29,2.29,0,0,0,.34.66,1.86,1.86,0,0,0,.53.44,1.46,1.46,0,0,0,.69.16,1.59,1.59,0,0,0,.66-.14,1.48,1.48,0,0,0,.51-.38,1.77,1.77,0,0,0,.33-.59A2.58,2.58,0,0,0,405.21,54.64Z" fill="#1e1e1e"/>
      <path d="M346.69,70.38h-1V63.13a2.3,2.3,0,0,1-.33.25,3.57,3.57,0,0,1-.48.28,4.15,4.15,0,0,1-.56.27,4.89,4.89,0,0,1-.58.19v-1a5.58,5.58,0,0,0,.68-.24q.35-.15.69-.33c.23-.13.45-.25.65-.39s.38-.27.53-.39h.36Z" fill="#1e1e1e"/>
      <path d="M354.89,66.15A8.15,8.15,0,0,1,354.7,68a4.18,4.18,0,0,1-.55,1.37,2.34,2.34,0,0,1-2.07,1.14,2.2,2.2,0,0,1-1.13-.28,2.32,2.32,0,0,1-.84-.81,4,4,0,0,1-.51-1.31,7.93,7.93,0,0,1-.18-1.78,8.67,8.67,0,0,1,.19-1.94,4.38,4.38,0,0,1,.54-1.42,2.44,2.44,0,0,1,.89-.86,2.49,2.49,0,0,1,1.21-.29Q354.89,61.84,354.89,66.15Zm-1,.09c0-2.39-.57-3.58-1.71-3.58s-1.79,1.21-1.79,3.65c0,2.27.58,3.4,1.76,3.4S353.91,68.55,353.91,66.24Z" fill="#1e1e1e"/>
      <path d="M356.69,70.51a.62.62,0,0,1-.46-.19.66.66,0,0,1-.19-.46.68.68,0,0,1,.19-.47.62.62,0,0,1,.46-.19.63.63,0,0,1,.47.19.64.64,0,0,1,.19.47.62.62,0,0,1-.19.46A.63.63,0,0,1,356.69,70.51Z" fill="#1e1e1e"/>
      <path d="M363.67,67.82a2.82,2.82,0,0,1-.22,1.11,2.47,2.47,0,0,1-.6.86,2.65,2.65,0,0,1-.94.55,3.59,3.59,0,0,1-1.22.19,3.44,3.44,0,0,1-1.74-.35v-1a3.16,3.16,0,0,0,1.75.55,2.31,2.31,0,0,0,.82-.13,1.8,1.8,0,0,0,.63-.38,1.56,1.56,0,0,0,.39-.58,2,2,0,0,0,.14-.74,1.59,1.59,0,0,0-.55-1.29,2.42,2.42,0,0,0-1.6-.46h-.36l-.37,0-.37,0a1.51,1.51,0,0,0-.32,0l.28-4.22h3.89v.87h-3l-.17,2.47.39,0h.38a4,4,0,0,1,1.19.17,2.7,2.7,0,0,1,.9.5,2.12,2.12,0,0,1,.55.8A2.78,2.78,0,0,1,363.67,67.82Z" fill="#1e1e1e"/>
      <path d="M369,64.19a1.76,1.76,0,0,0-.12-.68,1.37,1.37,0,0,0-.33-.48,1.39,1.39,0,0,0-.49-.28,2,2,0,0,0-.61-.09,2.08,2.08,0,0,0-.55.07,2.57,2.57,0,0,0-.52.21,2.63,2.63,0,0,0-.49.33,3.47,3.47,0,0,0-.45.41v-1a2.88,2.88,0,0,1,.91-.6,3.14,3.14,0,0,1,1.22-.21,3,3,0,0,1,1,.15,2.3,2.3,0,0,1,.76.44,2,2,0,0,1,.5.71,2.25,2.25,0,0,1,.19,1,3.18,3.18,0,0,1-.12.91,2.73,2.73,0,0,1-.34.76,4,4,0,0,1-.58.68,8.92,8.92,0,0,1-.83.67c-.4.28-.72.52-1,.72a5,5,0,0,0-.61.56,1.7,1.7,0,0,0-.31.52,1.89,1.89,0,0,0-.09.6h4.18v.86h-5.19V70a3.38,3.38,0,0,1,.12-1,2.59,2.59,0,0,1,.39-.78,4.33,4.33,0,0,1,.7-.74c.3-.24.65-.52,1.07-.83a6.87,6.87,0,0,0,.77-.63,3.55,3.55,0,0,0,.49-.59,2,2,0,0,0,.27-.61A2.75,2.75,0,0,0,369,64.19Z" fill="#1e1e1e"/>
      <path d="M372.23,70.51a.65.65,0,0,1-.65-.65.64.64,0,0,1,.19-.47.62.62,0,0,1,.46-.19.63.63,0,0,1,.47.19.64.64,0,0,1,.19.47.62.62,0,0,1-.19.46A.63.63,0,0,1,372.23,70.51Z" fill="#1e1e1e"/>
      <path d="M379.5,66.15a8.15,8.15,0,0,1-.19,1.87,4.18,4.18,0,0,1-.55,1.37,2.34,2.34,0,0,1-2.08,1.14,2.19,2.19,0,0,1-1.12-.28,2.32,2.32,0,0,1-.84-.81,4,4,0,0,1-.51-1.31,7.93,7.93,0,0,1-.18-1.78,9.35,9.35,0,0,1,.18-1.94,4.63,4.63,0,0,1,.55-1.42,2.49,2.49,0,0,1,.88-.86,2.56,2.56,0,0,1,1.22-.29Q379.5,61.84,379.5,66.15Zm-1,.09c0-2.39-.57-3.58-1.71-3.58s-1.8,1.21-1.8,3.65c0,2.27.59,3.4,1.77,3.4S378.52,68.55,378.52,66.24Z" fill="#1e1e1e"/>
      <path d="M381.3,70.51a.65.65,0,0,1-.65-.65.64.64,0,0,1,.19-.47.62.62,0,0,1,.46-.19.63.63,0,0,1,.47.19.64.64,0,0,1,.19.47.62.62,0,0,1-.19.46A.63.63,0,0,1,381.3,70.51Z" fill="#1e1e1e"/>
      <path d="M388.57,66.15a8.15,8.15,0,0,1-.19,1.87,4.18,4.18,0,0,1-.55,1.37,2.34,2.34,0,0,1-2.07,1.14,2.2,2.2,0,0,1-1.13-.28,2.32,2.32,0,0,1-.84-.81,4,4,0,0,1-.51-1.31,7.93,7.93,0,0,1-.18-1.78,8.67,8.67,0,0,1,.19-1.94,4.38,4.38,0,0,1,.54-1.42,2.49,2.49,0,0,1,.88-.86,2.56,2.56,0,0,1,1.22-.29Q388.57,61.84,388.57,66.15Zm-1,.09c0-2.39-.57-3.58-1.71-3.58s-1.79,1.21-1.79,3.65c0,2.27.58,3.4,1.76,3.4S387.59,68.55,387.59,66.24Z" fill="#1e1e1e"/>
      <path d="M393.83,62l-4,9.8h-.9l4-9.8Z" fill="#1e1e1e"/>
      <path d="M398,70.38h-1V63.13a2.78,2.78,0,0,1-.32.25,5.5,5.5,0,0,1-.48.28,5,5,0,0,1-.57.27,4.76,4.76,0,0,1-.57.19v-1a6.12,6.12,0,0,0,.67-.24c.23-.1.47-.21.7-.33s.44-.25.64-.39a5.23,5.23,0,0,0,.53-.39H398Z" fill="#1e1e1e"/>
      <path d="M406.2,67.72a3.15,3.15,0,0,1-.2,1.13,2.78,2.78,0,0,1-.55.89,2.58,2.58,0,0,1-.84.58,2.63,2.63,0,0,1-1.05.21,2.49,2.49,0,0,1-1.14-.26,2.46,2.46,0,0,1-.85-.76A3.63,3.63,0,0,1,401,68.3a6.61,6.61,0,0,1-.18-1.61,7.64,7.64,0,0,1,.24-2,4.91,4.91,0,0,1,.7-1.53,3.06,3.06,0,0,1,1.08-1,2.89,2.89,0,0,1,1.41-.35,3.37,3.37,0,0,1,1.39.24V63a3,3,0,0,0-1.37-.33,2,2,0,0,0-1,.25,2.38,2.38,0,0,0-.78.71,3.53,3.53,0,0,0-.49,1.11,5.44,5.44,0,0,0-.17,1.45h0a2,2,0,0,1,1.92-1.05,2.46,2.46,0,0,1,1,.19,2.13,2.13,0,0,1,.76.53,2.52,2.52,0,0,1,.48.81A3.23,3.23,0,0,1,406.2,67.72Zm-1,.12a2.48,2.48,0,0,0-.11-.79,1.73,1.73,0,0,0-.32-.6,1.34,1.34,0,0,0-.51-.37,1.67,1.67,0,0,0-.69-.14,1.59,1.59,0,0,0-.66.14,1.66,1.66,0,0,0-.53.36A1.93,1.93,0,0,0,402,67a1.84,1.84,0,0,0-.12.66,2.64,2.64,0,0,0,.12.81,2.29,2.29,0,0,0,.34.66,1.71,1.71,0,0,0,.53.44,1.6,1.6,0,0,0,1.35,0,1.48,1.48,0,0,0,.51-.38,1.77,1.77,0,0,0,.33-.59A2.58,2.58,0,0,0,405.21,67.84Z" fill="#1e1e1e"/>
    </g>
    <g>
      <path d="M139.6,58.34h-1.09L137.62,56h-3.56l-.84,2.36h-1.1l3.22-8.4h1Zm-2.3-3.24L136,51.52a2.75,2.75,0,0,1-.13-.56h0a3.49,3.49,0,0,1-.14.56l-1.31,3.58Z" fill="#1e1e1e"/>
      <path d="M144.89,52.61l-3.55,4.91h3.51v.82h-4.92V58l3.55-4.88h-3.22v-.82h4.63Z" fill="#1e1e1e"/>
      <path d="M151,58.34h-1v-1h0a2,2,0,0,1-1.85,1.09c-1.43,0-2.15-.85-2.15-2.56V52.34h1v3.43c0,1.27.48,1.9,1.45,1.9a1.46,1.46,0,0,0,1.16-.52A2,2,0,0,0,150,55.8V52.34h1Z" fill="#1e1e1e"/>
      <path d="M156.05,53.31a1.16,1.16,0,0,0-.72-.19,1.21,1.21,0,0,0-1,.58,2.62,2.62,0,0,0-.42,1.58v3.06h-1v-6h1v1.23h0a2,2,0,0,1,.62-1,1.45,1.45,0,0,1,.95-.36,1.41,1.41,0,0,1,.57.09Z" fill="#1e1e1e"/>
      <path d="M161.92,55.58h-4.24a2.3,2.3,0,0,0,.54,1.55,1.87,1.87,0,0,0,1.42.54A2.93,2.93,0,0,0,161.5,57v.9a3.43,3.43,0,0,1-2.09.58,2.53,2.53,0,0,1-2-.82,3.36,3.36,0,0,1-.73-2.3,3.29,3.29,0,0,1,.8-2.28,2.54,2.54,0,0,1,2-.88,2.24,2.24,0,0,1,1.82.76,3.17,3.17,0,0,1,.65,2.11Zm-1-.82a1.9,1.9,0,0,0-.4-1.29,1.36,1.36,0,0,0-1.1-.46,1.55,1.55,0,0,0-1.15.48,2.25,2.25,0,0,0-.59,1.27Z" fill="#1e1e1e"/>
      <path d="M173,49.94l-3.11,8.4h-1.08l-3.05-8.4h1.1l2.32,6.66a3.51,3.51,0,0,1,.17.74h0a3.44,3.44,0,0,1,.19-.75L172,49.94Z" fill="#1e1e1e"/>
      <path d="M175.22,55.16v3.18h-1v-8.4h2.31a3,3,0,0,1,2.09.65,2.37,2.37,0,0,1,.74,1.85,2.55,2.55,0,0,1-.83,2,3.12,3.12,0,0,1-2.22.76Zm0-4.33v3.44h1a2.31,2.31,0,0,0,1.55-.46,1.65,1.65,0,0,0,.54-1.32c0-1.11-.66-1.66-2-1.66Z" fill="#1e1e1e"/>
      <path d="M187.73,58.34h-1.2l-4.33-6.7a2.65,2.65,0,0,1-.27-.53h0a9.48,9.48,0,0,1,0,1.16v6.07h-1v-8.4h1.28l4.2,6.59a5.88,5.88,0,0,1,.34.56h0a8.65,8.65,0,0,1-.06-1.24V49.94h1Z" fill="#1e1e1e"/>
      <path d="M145.17,71a5.64,5.64,0,0,1-2.82.72,3.86,3.86,0,0,1-2.91-1.16,4.26,4.26,0,0,1-1.11-3.07,4.33,4.33,0,0,1,1.24-3.2A4.17,4.17,0,0,1,142.69,63a5.32,5.32,0,0,1,2.31.44v1.09a4.44,4.44,0,0,0-2.42-.64,3,3,0,0,0-2.31,1,3.57,3.57,0,0,0-.91,2.52,3.53,3.53,0,0,0,.84,2.5,2.94,2.94,0,0,0,2.28.91,3.53,3.53,0,0,0,1.7-.39V68.05h-1.84v-.89h2.83Z" fill="#1e1e1e"/>
      <path d="M151.28,71.54h-1V70.6h0a2,2,0,0,1-1.85,1.08,2,2,0,0,1-1.4-.48,1.62,1.62,0,0,1-.51-1.26q0-1.68,2-2l1.8-.25q0-1.53-1.23-1.53a3,3,0,0,0-2,.73V66a3.76,3.76,0,0,1,2-.56c1.41,0,2.11.74,2.11,2.24Zm-1-3-1.45.2a2.54,2.54,0,0,0-1,.33,1,1,0,0,0-.34.84.9.9,0,0,0,.31.72,1.19,1.19,0,0,0,.83.28,1.57,1.57,0,0,0,1.19-.5,1.79,1.79,0,0,0,.46-1.27Z" fill="#1e1e1e"/>
      <path d="M155.88,71.48a1.82,1.82,0,0,1-.9.19c-1,0-1.58-.59-1.58-1.76V66.36h-1v-.82h1V64.07l1-.31v1.78h1.52v.82h-1.52v3.38a1.37,1.37,0,0,0,.21.86.83.83,0,0,0,.68.26,1.05,1.05,0,0,0,.63-.2Z" fill="#1e1e1e"/>
      <path d="M162,68.78h-4.23a2.25,2.25,0,0,0,.53,1.55,1.88,1.88,0,0,0,1.42.54,2.94,2.94,0,0,0,1.87-.67v.91a3.53,3.53,0,0,1-2.1.57,2.51,2.51,0,0,1-2-.82,3.83,3.83,0,0,1,.06-4.58,2.54,2.54,0,0,1,2-.88,2.26,2.26,0,0,1,1.83.76,3.18,3.18,0,0,1,.64,2.12ZM161,68a2,2,0,0,0-.4-1.29,1.37,1.37,0,0,0-1.1-.46,1.57,1.57,0,0,0-1.16.48,2.24,2.24,0,0,0-.58,1.27Z" fill="#1e1e1e"/>
      <path d="M171,65.54l-1.8,6h-1L167,67.24a2.87,2.87,0,0,1-.09-.55h0a2.44,2.44,0,0,1-.12.54l-1.34,4.31h-1l-1.82-6h1l1.24,4.51a2.38,2.38,0,0,1,.08.54h0a2.33,2.33,0,0,1,.11-.55l1.38-4.5h.88l1.24,4.52a3.36,3.36,0,0,1,.09.54h0a2.08,2.08,0,0,1,.1-.54L170,65.54Z" fill="#1e1e1e"/>
      <path d="M176.4,71.54h-1V70.6h0a2,2,0,0,1-1.85,1.08,2,2,0,0,1-1.4-.48,1.62,1.62,0,0,1-.51-1.26q0-1.68,2-2l1.8-.25c0-1-.41-1.53-1.24-1.53a2.94,2.94,0,0,0-1.95.73V66a3.76,3.76,0,0,1,2-.56c1.41,0,2.11.74,2.11,2.24Zm-1-3-1.45.2a2.54,2.54,0,0,0-1,.33,1,1,0,0,0-.34.84.9.9,0,0,0,.31.72,1.19,1.19,0,0,0,.83.28,1.55,1.55,0,0,0,1.18-.5,1.75,1.75,0,0,0,.47-1.27Z" fill="#1e1e1e"/>
      <path d="M183,65.54l-2.76,7c-.49,1.24-1.19,1.86-2.08,1.86a2.16,2.16,0,0,1-.62-.07v-.86a1.7,1.7,0,0,0,.56.1,1.17,1.17,0,0,0,1.09-.87l.49-1.13-2.35-6h1.07L180,70.16s.06.21.12.45h0c0-.09.06-.24.12-.44l1.7-4.63Z" fill="#1e1e1e"/>
    </g>
    <g>
      <path d="M153.77,116.19l-3.11,8.4h-1.09l-3-8.4h1.09l2.33,6.66a4.63,4.63,0,0,1,.17.75h0a3.43,3.43,0,0,1,.2-.76l2.37-6.65Z" fill="#1e1e1e"/>
      <path d="M163.54,124.59h-1V119c0-.45,0-1,.09-1.64h0a4.6,4.6,0,0,1-.25.82l-2.87,6.45H159l-2.87-6.41a5.3,5.3,0,0,1-.25-.86h0c0,.34.05.89.05,1.65v5.62h-1v-8.4h1.3l2.58,5.86a9.24,9.24,0,0,1,.38,1h0c.17-.46.3-.81.4-1l2.63-5.84h1.23Z" fill="#1e1e1e"/>
      <path d="M172.18,124.59h-1v-7.26a2.11,2.11,0,0,1-.33.26,5.1,5.1,0,0,1-.48.28,5.85,5.85,0,0,1-.56.27,4.89,4.89,0,0,1-.58.19v-1a5.46,5.46,0,0,0,.67-.24c.24-.1.47-.21.7-.33s.45-.26.65-.39a6.62,6.62,0,0,0,.53-.4h.36Z" fill="#1e1e1e"/>
    </g>
    <g>
      <path d="M153.77,186.4l-3.11,8.4h-1.09l-3-8.4h1.09l2.33,6.66a4.4,4.4,0,0,1,.17.75h0a3.43,3.43,0,0,1,.2-.76l2.37-6.65Z" fill="#1e1e1e"/>
      <path d="M163.54,194.8h-1v-5.63c0-.45,0-1,.09-1.64h0a4.19,4.19,0,0,1-.25.81l-2.87,6.46H159l-2.87-6.41a5.64,5.64,0,0,1-.25-.86h0c0,.34.05.89.05,1.65v5.62h-1v-8.4h1.3l2.58,5.86a8.52,8.52,0,0,1,.38,1h0c.17-.46.3-.81.4-1l2.63-5.84h1.23Z" fill="#1e1e1e"/>
      <path d="M172.46,188.6a1.71,1.71,0,0,0-.12-.67,1.37,1.37,0,0,0-.33-.48,1.26,1.26,0,0,0-.49-.28,1.7,1.7,0,0,0-.61-.1,2.09,2.09,0,0,0-.55.08,2.57,2.57,0,0,0-.52.21,3.74,3.74,0,0,0-.49.32,4.47,4.47,0,0,0-.45.42v-1a3,3,0,0,1,.91-.6,3.14,3.14,0,0,1,1.22-.21,3,3,0,0,1,1,.15,2.27,2.27,0,0,1,.76.43,2.3,2.3,0,0,1,.51.71,2.5,2.5,0,0,1,.18,1,3.58,3.58,0,0,1-.11.9,2.92,2.92,0,0,1-.35.76,3.67,3.67,0,0,1-.58.69,8.92,8.92,0,0,1-.83.67l-1,.72a4.17,4.17,0,0,0-.6.56,1.63,1.63,0,0,0-.32.52,1.8,1.8,0,0,0-.09.6h4.18v.86h-5.18v-.41a3.82,3.82,0,0,1,.11-.95,2.38,2.38,0,0,1,.39-.78,4.42,4.42,0,0,1,.71-.74c.29-.25.64-.52,1.07-.83a6.69,6.69,0,0,0,.76-.63,3.31,3.31,0,0,0,.5-.6,2.23,2.23,0,0,0,.26-.6A2.84,2.84,0,0,0,172.46,188.6Z" fill="#1e1e1e"/>
    </g>
    <g>
      <path d="M269.86,123.42a3.72,3.72,0,0,1-2.87-1.18,4.42,4.42,0,0,1-1.07-3.07,4.61,4.61,0,0,1,1.09-3.23,3.82,3.82,0,0,1,3-1.21,3.6,3.6,0,0,1,2.8,1.17,4.41,4.41,0,0,1,1.06,3.07,4.63,4.63,0,0,1-1.09,3.25A3.73,3.73,0,0,1,269.86,123.42Zm.07-7.8a2.69,2.69,0,0,0-2.15,1,3.64,3.64,0,0,0-.83,2.51,3.79,3.79,0,0,0,.8,2.5,2.64,2.64,0,0,0,2.11.94,2.74,2.74,0,0,0,2.17-.9,3.64,3.64,0,0,0,.8-2.53,3.88,3.88,0,0,0-.77-2.57A2.68,2.68,0,0,0,269.93,115.62Z" fill="#1e1e1e"/>
      <path d="M280.37,123.28h-1v-3.43c0-1.27-.47-1.91-1.4-1.91a1.48,1.48,0,0,0-1.19.55,2,2,0,0,0-.47,1.36v3.43h-1v-6h1v1h0a2.16,2.16,0,0,1,2-1.14,1.86,1.86,0,0,1,1.51.64,2.88,2.88,0,0,1,.52,1.84Z" fill="#1e1e1e"/>
      <path d="M283.29,120.1v3.18h-1v-8.41h2.3a3,3,0,0,1,2.09.66,2.32,2.32,0,0,1,.74,1.85,2.54,2.54,0,0,1-.82,2,3.13,3.13,0,0,1-2.22.76Zm0-4.34v3.45h1a2.33,2.33,0,0,0,1.56-.47,1.67,1.67,0,0,0,.53-1.31c0-1.11-.65-1.67-2-1.67Z" fill="#1e1e1e"/>
      <path d="M292,118.25a1.18,1.18,0,0,0-.73-.2,1.25,1.25,0,0,0-1,.58,2.75,2.75,0,0,0-.41,1.59v3.06h-1v-6h1v1.23h0a2.17,2.17,0,0,1,.63-1,1.46,1.46,0,0,1,.94-.35,1.75,1.75,0,0,1,.58.08Z" fill="#1e1e1e"/>
      <path d="M297.89,120.52h-4.23a2.22,2.22,0,0,0,.53,1.54,1.85,1.85,0,0,0,1.42.55,3,3,0,0,0,1.87-.67v.9a3.53,3.53,0,0,1-2.1.58,2.54,2.54,0,0,1-2-.82,3.33,3.33,0,0,1-.73-2.3,3.26,3.26,0,0,1,.79-2.28,2.55,2.55,0,0,1,2-.89,2.26,2.26,0,0,1,1.83.77,3.15,3.15,0,0,1,.64,2.11Zm-1-.82a2,2,0,0,0-.4-1.29,1.38,1.38,0,0,0-1.1-.47,1.58,1.58,0,0,0-1.16.49,2.21,2.21,0,0,0-.58,1.27Z" fill="#1e1e1e"/>
      <path d="M307.86,123.28h-1v-3.45a2.66,2.66,0,0,0-.3-1.44,1.17,1.17,0,0,0-1-.45,1.26,1.26,0,0,0-1,.57,2.11,2.11,0,0,0-.43,1.34v3.43h-1v-3.57c0-1.18-.45-1.77-1.36-1.77a1.27,1.27,0,0,0-1,.53,2.18,2.18,0,0,0-.41,1.38v3.43h-1v-6h1v.94h0a2.06,2.06,0,0,1,1.86-1.09,1.72,1.72,0,0,1,1.07.35,1.69,1.69,0,0,1,.63.9,2.15,2.15,0,0,1,2-1.25c1.32,0,2,.82,2,2.45Z" fill="#1e1e1e"/>
      <path d="M277.93,128.07l-3.11,8.41h-1.08l-3.05-8.41h1.1l2.32,6.67a3.51,3.51,0,0,1,.17.74h0a3.52,3.52,0,0,1,.19-.76l2.37-6.65Z" fill="#1e1e1e"/>
      <path d="M280.12,133.3v3.18h-1v-8.41h2.31a3,3,0,0,1,2.09.66,2.35,2.35,0,0,1,.74,1.85,2.55,2.55,0,0,1-.83,2,3.12,3.12,0,0,1-2.22.76Zm0-4.34v3.45h1a2.33,2.33,0,0,0,1.56-.47,1.64,1.64,0,0,0,.54-1.31c0-1.11-.66-1.67-2-1.67Z" fill="#1e1e1e"/>
      <path d="M292.63,136.48h-1.2l-4.33-6.7a2.94,2.94,0,0,1-.27-.53h0a9.48,9.48,0,0,1,0,1.16v6.07h-1v-8.41h1.28l4.2,6.6a5.88,5.88,0,0,1,.34.56h0a8.74,8.74,0,0,1-.06-1.24v-5.92h1Z" fill="#1e1e1e"/>
      <path d="M301.26,136.48h-1v-7.26a2,2,0,0,1-.32.25,4.33,4.33,0,0,1-.48.28,5,5,0,0,1-.57.27,3.18,3.18,0,0,1-.57.19v-1A6.12,6.12,0,0,0,299,129c.23-.1.47-.21.7-.33a6.82,6.82,0,0,0,.64-.39,5.23,5.23,0,0,0,.53-.39h.36Z" fill="#1e1e1e"/>
    </g>
    <g>
      <path d="M269.86,193.62a3.71,3.71,0,0,1-2.87-1.17,4.42,4.42,0,0,1-1.07-3.07,4.61,4.61,0,0,1,1.09-3.23,3.82,3.82,0,0,1,3-1.21,3.6,3.6,0,0,1,2.8,1.17,4.39,4.39,0,0,1,1.06,3.07,4.63,4.63,0,0,1-1.09,3.25A3.73,3.73,0,0,1,269.86,193.62Zm.07-7.79a2.69,2.69,0,0,0-2.15,1,3.63,3.63,0,0,0-.83,2.5,3.75,3.75,0,0,0,.8,2.5,2.65,2.65,0,0,0,2.11,1,2.74,2.74,0,0,0,2.17-.9,3.66,3.66,0,0,0,.8-2.53,3.87,3.87,0,0,0-.77-2.57A2.65,2.65,0,0,0,269.93,185.83Z" fill="#1e1e1e"/>
      <path d="M280.37,193.48h-1v-3.42c0-1.27-.47-1.91-1.4-1.91a1.5,1.5,0,0,0-1.19.54,2,2,0,0,0-.47,1.37v3.42h-1v-6h1v1h0a2.16,2.16,0,0,1,2-1.14,1.83,1.83,0,0,1,1.51.64,2.86,2.86,0,0,1,.52,1.84Z" fill="#1e1e1e"/>
      <path d="M283.29,190.31v3.17h-1v-8.4h2.3a3,3,0,0,1,2.09.66,2.31,2.31,0,0,1,.74,1.85,2.54,2.54,0,0,1-.82,2,3.18,3.18,0,0,1-2.22.76Zm0-4.34v3.45h1a2.33,2.33,0,0,0,1.56-.47,1.67,1.67,0,0,0,.53-1.31c0-1.11-.65-1.67-2-1.67Z" fill="#1e1e1e"/>
      <path d="M292,188.46a1.18,1.18,0,0,0-.73-.2,1.25,1.25,0,0,0-1,.58,2.74,2.74,0,0,0-.41,1.58v3.06h-1v-6h1v1.24h0a2.17,2.17,0,0,1,.63-1,1.46,1.46,0,0,1,.94-.35,1.75,1.75,0,0,1,.58.08Z" fill="#1e1e1e"/>
      <path d="M297.89,190.72h-4.23a2.23,2.23,0,0,0,.53,1.55,1.89,1.89,0,0,0,1.42.55,3,3,0,0,0,1.87-.67v.9a3.53,3.53,0,0,1-2.1.57,2.53,2.53,0,0,1-2-.81,3.33,3.33,0,0,1-.73-2.3,3.29,3.29,0,0,1,.79-2.29,2.58,2.58,0,0,1,2-.88,2.29,2.29,0,0,1,1.83.76,3.19,3.19,0,0,1,.64,2.12Zm-1-.81a2,2,0,0,0-.4-1.3,1.4,1.4,0,0,0-1.1-.46,1.54,1.54,0,0,0-1.16.49,2.21,2.21,0,0,0-.58,1.27Z" fill="#1e1e1e"/>
      <path d="M307.86,193.48h-1V190a2.62,2.62,0,0,0-.3-1.44,1.17,1.17,0,0,0-1-.45,1.27,1.27,0,0,0-1,.56,2.16,2.16,0,0,0-.43,1.35v3.42h-1v-3.56c0-1.18-.45-1.77-1.36-1.77a1.27,1.27,0,0,0-1,.53,2.18,2.18,0,0,0-.41,1.38v3.42h-1v-6h1v1h0a2.06,2.06,0,0,1,1.86-1.09,1.72,1.72,0,0,1,1.07.35,1.62,1.62,0,0,1,.63.9,2.15,2.15,0,0,1,2-1.25c1.32,0,2,.82,2,2.45Z" fill="#1e1e1e"/>
      <path d="M277.93,198.28l-3.11,8.4h-1.08l-3.05-8.4h1.1l2.32,6.66a3.77,3.77,0,0,1,.17.75h0a3.38,3.38,0,0,1,.19-.76l2.37-6.65Z" fill="#1e1e1e"/>
      <path d="M280.12,203.51v3.17h-1v-8.4h2.31a3,3,0,0,1,2.09.66,2.35,2.35,0,0,1,.74,1.85,2.55,2.55,0,0,1-.83,2,3.16,3.16,0,0,1-2.22.76Zm0-4.34v3.45h1a2.33,2.33,0,0,0,1.56-.47,1.64,1.64,0,0,0,.54-1.31c0-1.11-.66-1.67-2-1.67Z" fill="#1e1e1e"/>
      <path d="M292.63,206.68h-1.2L287.1,200a2.94,2.94,0,0,1-.27-.53h0a9.28,9.28,0,0,1,0,1.15v6.07h-1v-8.4h1.28l4.2,6.59a5.64,5.64,0,0,1,.34.57h0a8.84,8.84,0,0,1-.06-1.24v-5.92h1Z" fill="#1e1e1e"/>
      <path d="M301.55,200.48a1.57,1.57,0,0,0-.13-.67,1.35,1.35,0,0,0-.32-.48,1.39,1.39,0,0,0-.49-.28A2,2,0,0,0,300,199a2,2,0,0,0-.55.07,2.66,2.66,0,0,0-.53.21,3.74,3.74,0,0,0-.49.32,4.37,4.37,0,0,0-.44.42v-1a3,3,0,0,1,.9-.6,3.19,3.19,0,0,1,1.23-.21,2.91,2.91,0,0,1,.95.15,2.2,2.2,0,0,1,.76.44,1.85,1.85,0,0,1,.51.71,2.42,2.42,0,0,1,.18,1,3.13,3.13,0,0,1-.11.9,2.81,2.81,0,0,1-.35.77,4,4,0,0,1-.58.68,7.77,7.77,0,0,1-.83.67c-.39.28-.72.52-1,.72a4.34,4.34,0,0,0-.61.56,1.63,1.63,0,0,0-.32.52,1.89,1.89,0,0,0-.09.6h4.19v.86h-5.19v-.41a3.38,3.38,0,0,1,.12-1,2.56,2.56,0,0,1,.38-.78,4.42,4.42,0,0,1,.71-.74c.29-.25.65-.52,1.07-.83a6.69,6.69,0,0,0,.76-.63,3.31,3.31,0,0,0,.5-.6,2.46,2.46,0,0,0,.27-.6A2.84,2.84,0,0,0,301.55,200.48Z" fill="#1e1e1e"/>
    </g>
  </g>
</svg>
