<?xml version="1.0" encoding="UTF-8"?>
<svg width="102px" height="102px" viewBox="0 0 102 102" version="1.1" xmlns="http://www.w3.org/2000/svg" xmlns:xlink="http://www.w3.org/1999/xlink">
    <title>NA/automate-python-deployments-with-azure-pipelines</title>
    <defs>
        <rect id="path-1" x="0" y="0" width="94.3396226" height="94.3396226" rx="47.1698113"></rect>
        <filter x="-2.9%" y="-2.9%" width="106.4%" height="106.4%" filterUnits="objectBoundingBox" id="filter-3">
            <feMorphology radius="2.5" operator="dilate" in="SourceAlpha" result="shadowSpreadOuter1"></feMorphology>
            <feOffset dx="0.5" dy="0.5" in="shadowSpreadOuter1" result="shadowOffsetOuter1"></feOffset>
            <feMorphology radius="1" operator="erode" in="SourceAlpha" result="shadowInner"></feMorphology>
            <feOffset dx="0.5" dy="0.5" in="shadowInner" result="shadowInner"></feOffset>
            <feComposite in="shadowOffsetOuter1" in2="shadowInner" operator="out" result="shadowOffsetOuter1"></feComposite>
            <feColorMatrix values="0 0 0 0 0.821822822   0 0 0 0 0.831640661   0 0 0 0 0.835737288  0 0 0 1 0" type="matrix" in="shadowOffsetOuter1"></feColorMatrix>
        </filter>
        <linearGradient x1="77.8299825%" y1="11.1997378%" x2="-99.6885927%" y2="253.807911%" id="linearGradient-4">
            <stop stop-color="#FFFFFF" offset="0%"></stop>
            <stop stop-color="#000000" stop-opacity="0.5" offset="100%"></stop>
        </linearGradient>
        <rect id="path-5" x="0" y="0" width="94.3396226" height="94.3396226"></rect>
        <path d="M47.1698113,0 C73.2209788,0 94.3396226,21.1186439 94.3396226,47.1698113 C94.3396226,73.2209788 73.2209788,94.3396226 47.1698113,94.3396226 C21.1186439,94.3396226 0,73.2209788 0,47.1698113 C0,21.1186439 21.1186439,0 47.1698113,0 Z M47.1698113,3.77358491 C23.2027373,3.77358491 3.77358491,23.2027373 3.77358491,47.1698113 C3.77358491,71.1368854 23.2027373,90.5660377 47.1698113,90.5660377 C71.1368854,90.5660377 90.5660377,71.1368854 90.5660377,47.1698113 C90.5660377,23.2027373 71.1368854,3.77358491 47.1698113,3.77358491 Z" id="path-6"></path>
        <filter x="-5.9%" y="-6.8%" width="111.8%" height="113.6%" filterUnits="objectBoundingBox" id="filter-8">
            <feOffset dx="0" dy="2" in="SourceAlpha" result="shadowOffsetOuter1"></feOffset>
            <feColorMatrix values="0 0 0 0 0   0 0 0 0 0   0 0 0 0 0  0 0 0 0.1 0" type="matrix" in="shadowOffsetOuter1" result="shadowMatrixOuter1"></feColorMatrix>
            <feMerge>
                <feMergeNode in="shadowMatrixOuter1"></feMergeNode>
                <feMergeNode in="SourceGraphic"></feMergeNode>
            </feMerge>
        </filter>
        <linearGradient x1="50%" y1="0%" x2="50%" y2="100%" id="linearGradient-9">
            <stop stop-color="#566D86" offset="0%"></stop>
            <stop stop-color="#2B3B4E" offset="100%"></stop>
        </linearGradient>
        <linearGradient x1="50%" y1="0%" x2="50%" y2="100%" id="linearGradient-10">
            <stop stop-color="#618197" offset="0%"></stop>
            <stop stop-color="#324A5E" offset="100%"></stop>
        </linearGradient>
        <linearGradient x1="50%" y1="0%" x2="50%" y2="100%" id="linearGradient-11">
            <stop stop-color="#566D86" offset="0%"></stop>
            <stop stop-color="#2B3B4E" offset="100%"></stop>
        </linearGradient>
        <linearGradient x1="50%" y1="-7.83969624%" x2="50%" y2="136.746848%" id="linearGradient-12">
            <stop stop-color="#FFD70F" offset="0%"></stop>
            <stop stop-color="#EEB309" offset="34%"></stop>
            <stop stop-color="#DC8C03" offset="77%"></stop>
            <stop stop-color="#D57D01" offset="100%"></stop>
        </linearGradient>
        <linearGradient x1="50%" y1="0%" x2="50%" y2="100%" id="linearGradient-13">
            <stop stop-color="#618197" offset="0%"></stop>
            <stop stop-color="#324A5E" offset="100%"></stop>
        </linearGradient>
        <linearGradient x1="50%" y1="0%" x2="50%" y2="100%" id="linearGradient-14">
            <stop stop-color="#618197" offset="0%"></stop>
            <stop stop-color="#324A5E" offset="100%"></stop>
        </linearGradient>
        <linearGradient x1="50%" y1="0%" x2="50%" y2="100%" id="linearGradient-15">
            <stop stop-color="#618197" offset="0%"></stop>
            <stop stop-color="#324A5E" offset="100%"></stop>
        </linearGradient>
        <linearGradient x1="50%" y1="0%" x2="50%" y2="100%" id="linearGradient-16">
            <stop stop-color="#626F7B" offset="0%"></stop>
            <stop stop-color="#8C8F99" offset="100%"></stop>
        </linearGradient>
        <linearGradient x1="50%" y1="0%" x2="50%" y2="100%" id="linearGradient-17">
            <stop stop-color="#626F7B" offset="0%"></stop>
            <stop stop-color="#8C8F99" offset="100%"></stop>
        </linearGradient>
        <linearGradient x1="50%" y1="-9.93901477%" x2="50%" y2="92.7254775%" id="linearGradient-18">
            <stop stop-color="#FFFFFF" offset="0%"></stop>
            <stop stop-color="#EFEFEF" offset="100%"></stop>
        </linearGradient>
        <linearGradient x1="50%" y1="100%" x2="50%" y2="0%" id="linearGradient-19">
            <stop stop-color="#F0FFFD" offset="0%"></stop>
            <stop stop-color="#D2EBFF" offset="100%"></stop>
        </linearGradient>
        <linearGradient x1="50%" y1="100%" x2="50%" y2="0%" id="linearGradient-20">
            <stop stop-color="#D2EBFF" offset="0%"></stop>
            <stop stop-color="#F0FFFD" offset="100%"></stop>
        </linearGradient>
    </defs>
    <g id="Badges" stroke="none" stroke-width="1" fill="none" fill-rule="evenodd">
        <g id="N/A-14" transform="translate(-159.000000, -509.000000)">
            <g id="NA/automate-python-deployments-with-azure-pipelines" transform="translate(160.000000, 510.000000)">
                <g id="Badge-Plates/Circle">
                    <g id="BG" transform="translate(2.830189, 2.830189)">
                        <mask id="mask-2" fill="white">
                            <use xlink:href="#path-1"></use>
                        </mask>
                        <g>
                            <use fill="black" fill-opacity="1" filter="url(#filter-3)" xlink:href="#path-1"></use>
                            <rect stroke="#F2F1F0" stroke-width="2.5" x="-1.25" y="-1.25" width="96.8396226" height="96.8396226" rx="48.4198113"></rect>
                        </g>
                        <g id="Colors/Microsoft-365/BG-Solid-Badge" mask="url(#mask-2)">
                            <g id="Rectangle">
                                <use fill="#0078D4" xlink:href="#path-5"></use>
                                <use fill-opacity="0.4" fill="url(#linearGradient-4)" xlink:href="#path-5"></use>
                            </g>
                        </g>
                    </g>
                    <g id="Border" transform="translate(2.830189, 2.830189)">
                        <mask id="mask-7" fill="white">
                            <use xlink:href="#path-6"></use>
                        </mask>
                        <use id="Boarder" fill="#0078D4" fill-rule="nonzero" xlink:href="#path-6"></use>
                        <g id="Colors/Microsoft-365/Border" mask="url(#mask-7)" fill="#0076D7">
                            <rect id="Microsoft-365/Border" x="0" y="0" width="94.3396226" height="94.3396226"></rect>
                        </g>
                    </g>
                </g>
                <g id="Manufacturing" filter="url(#filter-8)" transform="translate(18.000000, 20.000000)" fill-rule="nonzero">
                    <path d="M34.1057471,27.5896373 L28.7356322,22.9430052 L28.7356322,17.5875648 C28.7356322,17.1937824 28.4413793,16.8 28,16.8 C27.6321839,16.8 27.2643678,17.1150259 27.2643678,17.5875648 L27.2643678,22.9430052 L21.8942529,27.5896373 C21.6735632,27.7471503 21.6,27.9834197 21.6,28.2196891 L21.6,31.6849741 C21.6,31.842487 21.7471264,32 21.8942529,32 L23.291954,32 L23.291954,30.4248705 L23.0712644,30.4248705 L23.0712644,28.6134715 L28,24.3606218 L32.9287356,28.6134715 L32.9287356,30.4248705 L32.708046,30.4248705 L32.708046,32 L34.1057471,32 C34.2528736,32 34.4,31.842487 34.4,31.6849741 L34.4,28.2196891 C34.4,27.9834197 34.2528736,27.7471503 34.1057471,27.5896373 Z" id="Path" fill="url(#linearGradient-9)"></path>
                    <path d="M62.3826879,55.2 L22.4157872,55.2 C19.2796982,55.2 16.8,53.0181818 16.8,50.4 L16.8,50.4 C16.8,47.7194805 19.3526305,45.6 22.4157872,45.6 L62.3826879,45.6 C65.5187768,45.6 67.9984751,47.7818182 67.9984751,50.4 L67.9984751,50.4 C68.0714074,53.0181818 65.5187768,55.2 62.3826879,55.2 Z" id="Path" fill="url(#linearGradient-10)"></path>
                    <g id="Group" transform="translate(19.200000, 47.200000)">
                        <ellipse id="Oval" fill="#2B3B4E" cx="43.5675502" cy="2.73820034" rx="2.68337349" ry="2.73820034"></ellipse>
                        <ellipse id="Oval" fill="#2B3B4E" cx="2.72064257" cy="2.73820034" rx="2.68337349" ry="2.73820034"></ellipse>
                        <ellipse id="Oval" fill="#2B3B4E" cx="12.9323695" cy="2.73820034" rx="2.68337349" ry="2.73820034"></ellipse>
                        <ellipse id="Oval" fill="#2B3B4E" cx="23.1440964" cy="2.73820034" rx="2.68337349" ry="2.73820034"></ellipse>
                        <ellipse id="Oval" fill="#2B3B4E" cx="33.3558233" cy="2.73820034" rx="2.68337349" ry="2.73820034"></ellipse>
                        <rect id="Rectangle" fill="url(#linearGradient-11)" x="2.79518072" y="7.66315789" width="40.7723695" height="3.04244482"></rect>
                    </g>
                    <path d="M60.2,44 L51.8,44 C51.5,44 51.2,43.7 51.2,43.4 L51.2,35 C51.2,34.7 51.5,34.4 51.8,34.4 L60.2,34.4 C60.5,34.4 60.8,34.7 60.8,35 L60.8,43.4 C60.8,43.775 60.5,44 60.2,44 Z" id="Path" fill="url(#linearGradient-12)"></path>
                    <path d="M46.6,44 L38.2,44 C37.9,44 37.6,43.7 37.6,43.4 L37.6,35 C37.6,34.7 37.9,34.4 38.2,34.4 L46.6,34.4 C46.9,34.4 47.2,34.7 47.2,35 L47.2,43.4 C47.2,43.775 46.975,44 46.6,44 Z" id="Path" fill="url(#linearGradient-12)"></path>
                    <path d="M29.6,9.6 L29.6,17.76 C29.6,18.4 29.3428571,18.96 28.9142857,19.36 C28.4857143,19.76 27.8857143,20 27.2,20 C25.8285714,20 24.8,18.96 24.8,17.76 L24.8,9.6 C25.5714286,9.92 26.3428571,10.16 27.2,10.16 C28.0571429,10.16 28.8285714,9.92 29.6,9.6 Z" id="Path" fill="url(#linearGradient-13)"></path>
                    <path d="M32.2,38.4 L23.8,38.4 C23.5,38.4 23.2,38.1 23.2,37.8 L23.2,29.4 C23.2,29.1 23.5,28.8 23.8,28.8 L32.2,28.8 C32.5,28.8 32.8,29.1 32.8,29.4 L32.8,37.8 C32.8,38.175 32.5,38.4 32.2,38.4 Z" id="Path" fill="url(#linearGradient-12)"></path>
                    <g id="Group" transform="translate(3.200000, 3.200000)">
                        <path d="M5.20971963,6.76533333 L5.20971963,33.8266667 C4.43214953,33.4487151 3.57682243,33.2975345 2.64373832,33.2975345 C1.71065421,33.2975345 0.855327103,33.5243054 0.0777570093,33.8266667 L0.0777570093,6.76533333 C0.855327103,7.21887523 1.71065421,7.44564618 2.64373832,7.44564618 C3.57682243,7.44564618 4.43214953,7.21887523 5.20971963,6.76533333 Z" id="Path" fill="url(#linearGradient-14)"></path>
                        <path d="M19.9835514,2.53227561 C19.9835514,3.4393594 20.2168224,4.3464432 20.6833645,5.02675605 L6.99813084,5.02675605 C7.4646729,4.27085289 7.69794393,3.4393594 7.69794393,2.53227561 C7.69794393,1.62519181 7.4646729,0.793698324 6.99813084,0.0377951583 L20.7611215,0.0377951583 C20.2168224,0.793698324 19.9835514,1.62519181 19.9835514,2.53227561 Z" id="Path" fill="url(#linearGradient-15)"></path>
                    </g>
                    <path d="M11.2,57.6 L0,57.6 L0,41.7844068 C0,38.5627119 2.48101266,36 5.6,36 L5.6,36 C8.71898734,36 11.2,38.5627119 11.2,41.7844068 L11.2,57.6 Z" id="Path" fill="url(#linearGradient-16)"></path>
                    <circle id="Oval" fill="url(#linearGradient-17)" cx="6.4" cy="5.6" r="5.6"></circle>
                    <circle id="Oval" fill="url(#linearGradient-18)" cx="6.4" cy="5.6" r="3.2"></circle>
                    <circle id="Oval" fill="url(#linearGradient-17)" cx="28" cy="5.6" r="5.6"></circle>
                    <circle id="Oval" fill="url(#linearGradient-18)" cx="28" cy="5.6" r="3.2"></circle>
                </g>
                <g id="Group-7" transform="translate(42.000000, 49.500000)">
                    <circle id="Oval" fill="#27C0F5" cx="4" cy="4" r="4"></circle>
                    <g id="python" transform="translate(0.923077, 0.923077)" fill-rule="nonzero">
                        <path d="M2.94425616,0 C4.11838057,0 4.61541406,0.279896945 4.61541406,0.648091277 L4.61541406,2.2830357 C4.59737946,2.72105999 4.43160545,2.93992786 4.11838057,2.93992786 L2.30770703,2.93992786 C2.0009746,2.93992786 1.42660876,3.21910342 1.42660876,3.8063099 L1.42660876,4.59939934 L0.736965771,4.59939934 C0.580714023,4.59939934 0,4.36177549 0,3.21910342 C0,2.07643136 0.382910563,1.65701877 0.802467427,1.65701877 L3.15894001,1.65701877 L3.15894001,1.39010674 L1.66206846,1.39010674 L1.66206846,0.743025396 C1.66206846,0.466013986 1.77027604,0 2.94425616,0 Z M2.31809496,0.373388296 C2.16112169,0.373388296 2.03386971,0.500640274 2.03386971,0.657613544 C2.03386971,0.814586815 2.16112169,0.941838793 2.31809496,0.941838793 C2.47506823,0.941838793 2.6023202,0.814586813 2.6023202,0.657613544 C2.6023202,0.500640276 2.47506823,0.373388296 2.31809496,0.373388296 L2.31809496,0.373388296 Z" id="Combined-Shape" fill="url(#linearGradient-19)"></path>
                        <path d="M2.94425616,0 C4.11838057,0 4.61541406,0.279896945 4.61541406,0.648091277 L4.61541406,2.2830357 C4.59737946,2.72105999 4.43160545,2.93992786 4.11838057,2.93992786 L2.30770703,2.93992786 C2.0009746,2.93992786 1.42660876,3.21910342 1.42660876,3.8063099 L1.42660876,4.59939934 L0.926545455,4.59939934 C0.711573059,4.45497828 0.604086861,4.08433125 0.604086861,3.48731395 C0.604086861,3.03486198 0.684016194,2.29962753 1.25535223,2.29962753 L2.30770703,2.29962753 C2.5874597,2.29962753 2.87615753,2.29414501 3.17408907,2.2830357 L3.15894001,1.39010674 L1.66206846,1.39010674 L1.66206846,0.743025396 C1.66206846,0.466013986 1.77027604,0 2.94425616,0 Z M2.31809496,0.373388296 C2.16112169,0.373388296 2.03386971,0.500640274 2.03386971,0.657613544 C2.03386971,0.814586815 2.16112169,0.941838793 2.31809496,0.941838793 C2.47506823,0.941838793 2.6023202,0.814586813 2.6023202,0.657613544 C2.6023202,0.500640276 2.47506823,0.373388296 2.31809496,0.373388296 L2.31809496,0.373388296 Z" id="Combined-Shape" fill="url(#linearGradient-20)"></path>
                        <path d="M4.64975193,1.6108502 C5.82387633,1.6108502 6.32090983,1.89074715 6.32090983,2.25908576 L6.32090983,3.8938859 C6.30287523,4.3319102 6.13710121,4.55092234 5.82387633,4.55092234 L4.0132028,4.55092234 C3.70647037,4.55092234 3.13210453,4.82995363 3.13210453,5.4171601 L3.13210453,6.21024954 L2.44246154,6.21024954 C2.28620979,6.21024954 1.70549577,5.97262569 1.70549577,4.82995363 C1.70549577,3.68728156 2.08840633,3.26801325 2.50796319,3.26801325 L4.86443577,3.26801325 L4.86443577,3.00110121 L3.36756423,3.00110121 L3.36756423,2.35373132 C3.36756423,2.07671991 3.47548325,1.6108502 4.64975193,1.6108502 Z M4.02359073,1.98438278 C3.86661745,1.98438278 3.73936548,2.11163475 3.73936548,2.26860802 C3.73936548,2.42558129 3.86661745,2.55283327 4.02359073,2.55283327 C4.180564,2.55283327 4.30781597,2.42558129 4.30781597,2.26860802 C4.30781597,2.11163475 4.180564,1.98438278 4.02359073,1.98438278 L4.02359073,1.98438278 Z" id="Combined-Shape" fill="url(#linearGradient-19)" transform="translate(4.013203, 3.910550) rotate(180.000000) translate(-4.013203, -3.910550) "></path>
                        <path d="M4.04537652,1.6108502 C5.2196452,1.6108502 5.71667869,1.89074715 5.71667869,2.25908576 L5.71667869,3.8938859 C5.69849982,4.3319102 5.53287008,4.55092234 5.2196452,4.55092234 L3.40897166,4.55092234 C3.10223923,4.55092234 2.52787339,4.82995363 2.52787339,5.4171601 L2.52787339,6.21024954 L2.02766581,6.21024954 C1.81269341,6.06582849 1.70535149,5.69518145 1.70535149,5.09816415 C1.70535149,4.64571218 1.78513655,3.91062201 2.35661686,3.91062201 L3.40897166,3.91062201 C3.68872433,3.91062201 3.97742216,3.90499522 4.2753537,3.8938859 L4.26020464,3.00095694 L2.76333309,3.00095694 L2.76333309,2.35373132 C2.76333309,2.07671991 2.87125212,1.6108502 4.04552079,1.6108502 L4.04537652,1.6108502 Z M3.41935959,1.98438278 C3.26238632,1.98438278 3.13513434,2.11163475 3.13513434,2.26860802 C3.13513434,2.42558129 3.26238632,2.55283327 3.41935959,2.55283327 C3.57633286,2.55283327 3.70358484,2.42558129 3.70358484,2.26860802 C3.70358484,2.11163475 3.57633286,1.98438278 3.41935959,1.98438278 L3.41935959,1.98438278 Z" id="Combined-Shape" fill="url(#linearGradient-20)" transform="translate(3.711015, 3.910550) rotate(180.000000) translate(-3.711015, -3.910550) "></path>
                    </g>
                </g>
                <g id="Group-7" transform="translate(56.500000, 55.000000)">
                    <circle id="Oval" fill="#27C0F5" cx="4" cy="4" r="4"></circle>
                    <g id="python" transform="translate(0.923077, 0.923077)" fill-rule="nonzero">
                        <path d="M2.94425616,0 C4.11838057,0 4.61541406,0.279896945 4.61541406,0.648091277 L4.61541406,2.2830357 C4.59737946,2.72105999 4.43160545,2.93992786 4.11838057,2.93992786 L2.30770703,2.93992786 C2.0009746,2.93992786 1.42660876,3.21910342 1.42660876,3.8063099 L1.42660876,4.59939934 L0.736965771,4.59939934 C0.580714023,4.59939934 0,4.36177549 0,3.21910342 C0,2.07643136 0.382910563,1.65701877 0.802467427,1.65701877 L3.15894001,1.65701877 L3.15894001,1.39010674 L1.66206846,1.39010674 L1.66206846,0.743025396 C1.66206846,0.466013986 1.77027604,0 2.94425616,0 Z M2.31809496,0.373388296 C2.16112169,0.373388296 2.03386971,0.500640274 2.03386971,0.657613544 C2.03386971,0.814586815 2.16112169,0.941838793 2.31809496,0.941838793 C2.47506823,0.941838793 2.6023202,0.814586813 2.6023202,0.657613544 C2.6023202,0.500640276 2.47506823,0.373388296 2.31809496,0.373388296 L2.31809496,0.373388296 Z" id="Combined-Shape" fill="url(#linearGradient-19)"></path>
                        <path d="M2.94425616,0 C4.11838057,0 4.61541406,0.279896945 4.61541406,0.648091277 L4.61541406,2.2830357 C4.59737946,2.72105999 4.43160545,2.93992786 4.11838057,2.93992786 L2.30770703,2.93992786 C2.0009746,2.93992786 1.42660876,3.21910342 1.42660876,3.8063099 L1.42660876,4.59939934 L0.926545455,4.59939934 C0.711573059,4.45497828 0.604086861,4.08433125 0.604086861,3.48731395 C0.604086861,3.03486198 0.684016194,2.29962753 1.25535223,2.29962753 L2.30770703,2.29962753 C2.5874597,2.29962753 2.87615753,2.29414501 3.17408907,2.2830357 L3.15894001,1.39010674 L1.66206846,1.39010674 L1.66206846,0.743025396 C1.66206846,0.466013986 1.77027604,0 2.94425616,0 Z M2.31809496,0.373388296 C2.16112169,0.373388296 2.03386971,0.500640274 2.03386971,0.657613544 C2.03386971,0.814586815 2.16112169,0.941838793 2.31809496,0.941838793 C2.47506823,0.941838793 2.6023202,0.814586813 2.6023202,0.657613544 C2.6023202,0.500640276 2.47506823,0.373388296 2.31809496,0.373388296 L2.31809496,0.373388296 Z" id="Combined-Shape" fill="url(#linearGradient-20)"></path>
                        <path d="M4.64975193,1.6108502 C5.82387633,1.6108502 6.32090983,1.89074715 6.32090983,2.25908576 L6.32090983,3.8938859 C6.30287523,4.3319102 6.13710121,4.55092234 5.82387633,4.55092234 L4.0132028,4.55092234 C3.70647037,4.55092234 3.13210453,4.82995363 3.13210453,5.4171601 L3.13210453,6.21024954 L2.44246154,6.21024954 C2.28620979,6.21024954 1.70549577,5.97262569 1.70549577,4.82995363 C1.70549577,3.68728156 2.08840633,3.26801325 2.50796319,3.26801325 L4.86443577,3.26801325 L4.86443577,3.00110121 L3.36756423,3.00110121 L3.36756423,2.35373132 C3.36756423,2.07671991 3.47548325,1.6108502 4.64975193,1.6108502 Z M4.02359073,1.98438278 C3.86661745,1.98438278 3.73936548,2.11163475 3.73936548,2.26860802 C3.73936548,2.42558129 3.86661745,2.55283327 4.02359073,2.55283327 C4.180564,2.55283327 4.30781597,2.42558129 4.30781597,2.26860802 C4.30781597,2.11163475 4.180564,1.98438278 4.02359073,1.98438278 L4.02359073,1.98438278 Z" id="Combined-Shape" fill="url(#linearGradient-19)" transform="translate(4.013203, 3.910550) rotate(180.000000) translate(-4.013203, -3.910550) "></path>
                        <path d="M4.04537652,1.6108502 C5.2196452,1.6108502 5.71667869,1.89074715 5.71667869,2.25908576 L5.71667869,3.8938859 C5.69849982,4.3319102 5.53287008,4.55092234 5.2196452,4.55092234 L3.40897166,4.55092234 C3.10223923,4.55092234 2.52787339,4.82995363 2.52787339,5.4171601 L2.52787339,6.21024954 L2.02766581,6.21024954 C1.81269341,6.06582849 1.70535149,5.69518145 1.70535149,5.09816415 C1.70535149,4.64571218 1.78513655,3.91062201 2.35661686,3.91062201 L3.40897166,3.91062201 C3.68872433,3.91062201 3.97742216,3.90499522 4.2753537,3.8938859 L4.26020464,3.00095694 L2.76333309,3.00095694 L2.76333309,2.35373132 C2.76333309,2.07671991 2.87125212,1.6108502 4.04552079,1.6108502 L4.04537652,1.6108502 Z M3.41935959,1.98438278 C3.26238632,1.98438278 3.13513434,2.11163475 3.13513434,2.26860802 C3.13513434,2.42558129 3.26238632,2.55283327 3.41935959,2.55283327 C3.57633286,2.55283327 3.70358484,2.42558129 3.70358484,2.26860802 C3.70358484,2.11163475 3.57633286,1.98438278 3.41935959,1.98438278 L3.41935959,1.98438278 Z" id="Combined-Shape" fill="url(#linearGradient-20)" transform="translate(3.711015, 3.910550) rotate(180.000000) translate(-3.711015, -3.910550) "></path>
                    </g>
                </g>
                <g id="Group-7" transform="translate(70.000000, 55.000000)">
                    <circle id="Oval" fill="#27C0F5" cx="4" cy="4" r="4"></circle>
                    <g id="python" transform="translate(0.923077, 0.923077)" fill-rule="nonzero">
                        <path d="M2.94425616,0 C4.11838057,0 4.61541406,0.279896945 4.61541406,0.648091277 L4.61541406,2.2830357 C4.59737946,2.72105999 4.43160545,2.93992786 4.11838057,2.93992786 L2.30770703,2.93992786 C2.0009746,2.93992786 1.42660876,3.21910342 1.42660876,3.8063099 L1.42660876,4.59939934 L0.736965771,4.59939934 C0.580714023,4.59939934 0,4.36177549 0,3.21910342 C0,2.07643136 0.382910563,1.65701877 0.802467427,1.65701877 L3.15894001,1.65701877 L3.15894001,1.39010674 L1.66206846,1.39010674 L1.66206846,0.743025396 C1.66206846,0.466013986 1.77027604,0 2.94425616,0 Z M2.31809496,0.373388296 C2.16112169,0.373388296 2.03386971,0.500640274 2.03386971,0.657613544 C2.03386971,0.814586815 2.16112169,0.941838793 2.31809496,0.941838793 C2.47506823,0.941838793 2.6023202,0.814586813 2.6023202,0.657613544 C2.6023202,0.500640276 2.47506823,0.373388296 2.31809496,0.373388296 L2.31809496,0.373388296 Z" id="Combined-Shape" fill="url(#linearGradient-19)"></path>
                        <path d="M2.94425616,0 C4.11838057,0 4.61541406,0.279896945 4.61541406,0.648091277 L4.61541406,2.2830357 C4.59737946,2.72105999 4.43160545,2.93992786 4.11838057,2.93992786 L2.30770703,2.93992786 C2.0009746,2.93992786 1.42660876,3.21910342 1.42660876,3.8063099 L1.42660876,4.59939934 L0.926545455,4.59939934 C0.711573059,4.45497828 0.604086861,4.08433125 0.604086861,3.48731395 C0.604086861,3.03486198 0.684016194,2.29962753 1.25535223,2.29962753 L2.30770703,2.29962753 C2.5874597,2.29962753 2.87615753,2.29414501 3.17408907,2.2830357 L3.15894001,1.39010674 L1.66206846,1.39010674 L1.66206846,0.743025396 C1.66206846,0.466013986 1.77027604,0 2.94425616,0 Z M2.31809496,0.373388296 C2.16112169,0.373388296 2.03386971,0.500640274 2.03386971,0.657613544 C2.03386971,0.814586815 2.16112169,0.941838793 2.31809496,0.941838793 C2.47506823,0.941838793 2.6023202,0.814586813 2.6023202,0.657613544 C2.6023202,0.500640276 2.47506823,0.373388296 2.31809496,0.373388296 L2.31809496,0.373388296 Z" id="Combined-Shape" fill="url(#linearGradient-20)"></path>
                        <path d="M4.64975193,1.6108502 C5.82387633,1.6108502 6.32090983,1.89074715 6.32090983,2.25908576 L6.32090983,3.8938859 C6.30287523,4.3319102 6.13710121,4.55092234 5.82387633,4.55092234 L4.0132028,4.55092234 C3.70647037,4.55092234 3.13210453,4.82995363 3.13210453,5.4171601 L3.13210453,6.21024954 L2.44246154,6.21024954 C2.28620979,6.21024954 1.70549577,5.97262569 1.70549577,4.82995363 C1.70549577,3.68728156 2.08840633,3.26801325 2.50796319,3.26801325 L4.86443577,3.26801325 L4.86443577,3.00110121 L3.36756423,3.00110121 L3.36756423,2.35373132 C3.36756423,2.07671991 3.47548325,1.6108502 4.64975193,1.6108502 Z M4.02359073,1.98438278 C3.86661745,1.98438278 3.73936548,2.11163475 3.73936548,2.26860802 C3.73936548,2.42558129 3.86661745,2.55283327 4.02359073,2.55283327 C4.180564,2.55283327 4.30781597,2.42558129 4.30781597,2.26860802 C4.30781597,2.11163475 4.180564,1.98438278 4.02359073,1.98438278 L4.02359073,1.98438278 Z" id="Combined-Shape" fill="url(#linearGradient-19)" transform="translate(4.013203, 3.910550) rotate(180.000000) translate(-4.013203, -3.910550) "></path>
                        <path d="M4.04537652,1.6108502 C5.2196452,1.6108502 5.71667869,1.89074715 5.71667869,2.25908576 L5.71667869,3.8938859 C5.69849982,4.3319102 5.53287008,4.55092234 5.2196452,4.55092234 L3.40897166,4.55092234 C3.10223923,4.55092234 2.52787339,4.82995363 2.52787339,5.4171601 L2.52787339,6.21024954 L2.02766581,6.21024954 C1.81269341,6.06582849 1.70535149,5.69518145 1.70535149,5.09816415 C1.70535149,4.64571218 1.78513655,3.91062201 2.35661686,3.91062201 L3.40897166,3.91062201 C3.68872433,3.91062201 3.97742216,3.90499522 4.2753537,3.8938859 L4.26020464,3.00095694 L2.76333309,3.00095694 L2.76333309,2.35373132 C2.76333309,2.07671991 2.87125212,1.6108502 4.04552079,1.6108502 L4.04537652,1.6108502 Z M3.41935959,1.98438278 C3.26238632,1.98438278 3.13513434,2.11163475 3.13513434,2.26860802 C3.13513434,2.42558129 3.26238632,2.55283327 3.41935959,2.55283327 C3.57633286,2.55283327 3.70358484,2.42558129 3.70358484,2.26860802 C3.70358484,2.11163475 3.57633286,1.98438278 3.41935959,1.98438278 L3.41935959,1.98438278 Z" id="Combined-Shape" fill="url(#linearGradient-20)" transform="translate(3.711015, 3.910550) rotate(180.000000) translate(-3.711015, -3.910550) "></path>
                    </g>
                </g>
            </g>
        </g>
    </g>
</svg>