<svg xmlns="http://www.w3.org/2000/svg" xmlns:xlink="http://www.w3.org/1999/xlink" viewBox="0 0 472.89 180.22">
  <defs>
    <linearGradient id="linear-gradient" x1="244.21" y1="477.94" x2="244.21" y2="562.31" gradientTransform="matrix(1, 0, 0, -1, 0, 574)" gradientUnits="userSpaceOnUse">
      <stop offset="0" stop-color="#0078d4"/>
      <stop offset="0.17" stop-color="#1c84dc"/>
      <stop offset="0.38" stop-color="#3990e4"/>
      <stop offset="0.59" stop-color="#4d99ea"/>
      <stop offset="0.8" stop-color="#5a9eee"/>
      <stop offset="1" stop-color="#5ea0ef"/>
    </linearGradient>
    <linearGradient id="linear-gradient-2" x1="244.23" y1="500.72" x2="244.23" y2="548.96" gradientTransform="matrix(1, 0, 0, -1, 0, 574)" gradientUnits="userSpaceOnUse">
      <stop offset="0" stop-color="#d2ebff"/>
      <stop offset="1" stop-color="#f0fffd"/>
    </linearGradient>
    <linearGradient id="linear-gradient-3" x1="21.08" y1="546.24" x2="21.08" y2="571.76" xlink:href="#linear-gradient-2"/>
    <linearGradient id="linear-gradient-4" x1="326.7" y1="546.24" x2="326.7" y2="571.76" xlink:href="#linear-gradient-2"/>
  </defs>
  <title>nf-2-2-two-fa</title>
  <g id="Shapes">
    <rect width="472.89" height="180.22" fill="#fff"/>
    <g>
      <rect x="23.52" y="20" width="139.37" height="110" fill="#fff"/>
      <rect x="23.52" y="20" width="139.37" height="110" fill="none" stroke="#75757a" stroke-miterlimit="10" stroke-width="0.5" opacity="0.5"/>
    </g>
    <g>
      <rect x="226.23" y="20" width="35.95" height="60" rx="1.4" fill="url(#linear-gradient)"/>
      <rect x="240.1" y="22.01" width="8.26" height="1.12" rx="0.51" fill="#f2f2f2"/>
      <rect x="229.64" y="25.04" width="29.18" height="48.23" rx="0.65" opacity="0.9" fill="url(#linear-gradient-2)" style="isolation: isolate"/>
      <rect x="242.2" y="75.28" width="4.02" height="3.41" rx="0.93" fill="#f2f2f2"/>
    </g>
    <g>
      <rect x="39.87" y="38.38" width="106.68" height="20" rx="2" fill="#ebebeb"/>
      <rect x="39.87" y="38.38" width="106.68" height="20" rx="2" fill="none" stroke="#999" stroke-width="0.5"/>
    </g>
    <g>
      <rect x="328.21" y="20" width="139.37" height="110" fill="#fff"/>
      <rect x="328.21" y="20" width="139.37" height="110" fill="none" stroke="#75757a" stroke-miterlimit="10" stroke-width="0.5" opacity="0.5"/>
    </g>
    <rect x="51.97" y="95.65" width="82.48" height="20" rx="2" fill="#0072c6"/>
    <g>
      <rect x="39.87" y="65.65" width="106.68" height="20" rx="2" fill="#ebebeb"/>
      <rect x="39.87" y="65.65" width="106.68" height="20" rx="2" fill="none" stroke="#999" stroke-width="0.5"/>
    </g>
    <g>
      <circle cx="51.6" cy="75.65" r="3.19" fill="#3b3b3b"/>
      <circle cx="61.7" cy="75.65" r="3.19" fill="#3b3b3b"/>
      <circle cx="71.81" cy="75.65" r="3.19" fill="#3b3b3b"/>
      <circle cx="81.91" cy="75.65" r="3.19" fill="#3b3b3b"/>
      <circle cx="92.02" cy="75.65" r="3.19" fill="#3b3b3b"/>
      <circle cx="102.12" cy="75.65" r="3.19" fill="#3b3b3b"/>
      <circle cx="112.23" cy="75.65" r="3.19" fill="#3b3b3b"/>
    </g>
    <g>
      <rect x="344.7" y="67" width="106.68" height="20" rx="2" fill="#ebebeb"/>
      <rect x="344.7" y="67" width="106.68" height="20" rx="2" fill="none" stroke="#999" stroke-width="0.5"/>
    </g>
    <g>
      <circle cx="356.43" cy="77" r="3.19" fill="#3b3b3b"/>
      <circle cx="366.54" cy="77" r="3.19" fill="#3b3b3b"/>
      <circle cx="376.64" cy="77" r="3.19" fill="#3b3b3b"/>
      <circle cx="386.74" cy="77" r="3.19" fill="#3b3b3b"/>
      <circle cx="396.85" cy="77" r="3.19" fill="#3b3b3b"/>
      <circle cx="406.95" cy="77" r="3.19" fill="#3b3b3b"/>
    </g>
    <g>
      <line x1="167.89" y1="50" x2="212.51" y2="50" fill="none" stroke="#3c3c41" stroke-miterlimit="10"/>
      <polygon points="211.42 53.74 217.89 50 211.42 46.26 211.42 53.74" fill="#3c3c41"/>
    </g>
    <g>
      <line x1="272.89" y1="50" x2="317.51" y2="50" fill="none" stroke="#3c3c41" stroke-miterlimit="10"/>
      <polygon points="316.42 53.74 322.89 50 316.42 46.26 316.42 53.74" fill="#3c3c41"/>
    </g>
    <path d="M203.67,92.2v27.53h56.16l12.46,12.4v-12.4h12.46V92.2Z" fill="#005ba1"/>
    <g>
      <rect width="42.16" height="30" rx="1.52" fill="#0078d4"/>
      <rect x="2.45" y="2.24" width="37.25" height="25.53" rx="0.76" opacity="0.9" fill="url(#linear-gradient-3)" style="isolation: isolate"/>
      <rect x="34.26" y="1" width="4.47" height="0.61" rx="0.28" fill="#f2f2f2"/>
    </g>
    <g>
      <rect x="305.62" width="42.16" height="30" rx="1.52" fill="#0078d4"/>
      <rect x="308.07" y="2.24" width="37.25" height="25.53" rx="0.76" opacity="0.9" fill="url(#linear-gradient-4)" style="isolation: isolate"/>
      <rect x="339.88" y="1" width="4.47" height="0.61" rx="0.28" fill="#f2f2f2"/>
    </g>
    <g>
      <path d="M443.11,90a13,13,0,1,0-13-13A13,13,0,0,0,443.11,90Z" fill="#76bc2d"/>
      <path d="M449.29,70.73l-9.69,9.69-2.9-2.9-1.94,1.93,4.84,4.84,11.62-11.62Z" fill="#fff"/>
    </g>
  </g>
  <g id="Text">
    <g>
      <path d="M204.79,148.88H203.7l-.89-2.35h-3.56l-.84,2.35h-1.1l3.23-8.4h1Zm-2.3-3.24-1.32-3.58a2.44,2.44,0,0,1-.13-.56h0a3,3,0,0,1-.14.56l-1.31,3.58Z" fill="#1e1e1e"/>
      <path d="M210.88,148.88h-1v-3.42c0-1.27-.47-1.91-1.4-1.91a1.5,1.5,0,0,0-1.19.54,2,2,0,0,0-.47,1.37v3.42h-1v-6h1v1h0a2.16,2.16,0,0,1,2-1.14,1.83,1.83,0,0,1,1.51.64,2.85,2.85,0,0,1,.52,1.83Z" fill="#1e1e1e"/>
      <path d="M220.27,148.88h-1V148h0a2,2,0,0,1-1.85,1.07,1.93,1.93,0,0,1-1.4-.47,1.65,1.65,0,0,1-.51-1.26c0-1.12.66-1.77,2-2l1.8-.25c0-1-.41-1.53-1.24-1.53a3,3,0,0,0-1.95.74v-1a3.7,3.7,0,0,1,2-.56c1.41,0,2.12.75,2.12,2.24Zm-1-3-1.45.2a2.35,2.35,0,0,0-1,.33,1,1,0,0,0-.34.84.93.93,0,0,0,.32.72,1.22,1.22,0,0,0,.83.27,1.51,1.51,0,0,0,1.18-.5,1.77,1.77,0,0,0,.47-1.26Z" fill="#1e1e1e"/>
      <path d="M226.93,148.88h-1v-.95h0A2,2,0,0,1,224.1,149c-1.43,0-2.15-.85-2.15-2.55v-3.59h1v3.44c0,1.26.48,1.89,1.45,1.89a1.5,1.5,0,0,0,1.16-.51,2,2,0,0,0,.45-1.36v-3.46h1Z" fill="#1e1e1e"/>
      <path d="M231.65,148.82a1.76,1.76,0,0,1-.89.19c-1,0-1.58-.58-1.58-1.76V143.7h-1v-.82h1v-1.46l1-.31v1.77h1.51v.82h-1.51v3.38a1.41,1.41,0,0,0,.21.87.81.81,0,0,0,.68.25.94.94,0,0,0,.62-.2Z" fill="#1e1e1e"/>
      <path d="M237.92,148.88h-1v-3.45c0-1.25-.47-1.88-1.4-1.88a1.51,1.51,0,0,0-1.18.54,2,2,0,0,0-.48,1.39v3.4h-1V140h1v3.88h0a2.18,2.18,0,0,1,2-1.14c1.35,0,2,.82,2,2.45Z" fill="#1e1e1e"/>
      <path d="M244.55,146.12h-4.24a2.28,2.28,0,0,0,.54,1.55,1.88,1.88,0,0,0,1.42.54,2.94,2.94,0,0,0,1.86-.66v.9A3.47,3.47,0,0,1,242,149a2.57,2.57,0,0,1-2-.81,3.39,3.39,0,0,1-.72-2.3,3.29,3.29,0,0,1,.79-2.29,2.58,2.58,0,0,1,2-.88,2.29,2.29,0,0,1,1.83.76,3.19,3.19,0,0,1,.64,2.12Zm-1-.81a2,2,0,0,0-.41-1.3,1.37,1.37,0,0,0-1.09-.46,1.54,1.54,0,0,0-1.16.49,2.21,2.21,0,0,0-.58,1.27Z" fill="#1e1e1e"/>
      <path d="M251,148.88h-1v-3.42c0-1.27-.46-1.91-1.39-1.91a1.5,1.5,0,0,0-1.19.54,2,2,0,0,0-.48,1.37v3.42h-1v-6h1v1h0a2.16,2.16,0,0,1,2-1.14,1.81,1.81,0,0,1,1.5.64,2.79,2.79,0,0,1,.52,1.83Z" fill="#1e1e1e"/>
      <path d="M255.58,148.82a1.82,1.82,0,0,1-.9.19c-1.05,0-1.57-.58-1.57-1.76V143.7h-1v-.82h1v-1.46l1-.31v1.77h1.51v.82h-1.51v3.38a1.41,1.41,0,0,0,.2.87.82.82,0,0,0,.68.25,1,1,0,0,0,.63-.2Z" fill="#1e1e1e"/>
      <path d="M257.35,141.36a.62.62,0,0,1-.44-.18.57.57,0,0,1-.18-.44.61.61,0,0,1,.18-.45.62.62,0,0,1,.44-.18.61.61,0,0,1,.45.18.62.62,0,0,1,0,.89A.61.61,0,0,1,257.35,141.36Zm.47,7.52h-1v-6h1Z" fill="#1e1e1e"/>
      <path d="M263.86,148.61a3.19,3.19,0,0,1-1.64.41,2.68,2.68,0,0,1-2.07-.83,3,3,0,0,1-.79-2.17,3.32,3.32,0,0,1,.85-2.38,3,3,0,0,1,2.26-.9,3.1,3.1,0,0,1,1.4.3v1a2.47,2.47,0,0,0-1.43-.47,1.93,1.93,0,0,0-1.51.66,2.52,2.52,0,0,0-.59,1.73,2.41,2.41,0,0,0,.56,1.67,1.9,1.9,0,0,0,1.48.6,2.41,2.41,0,0,0,1.48-.52Z" fill="#1e1e1e"/>
      <path d="M269.61,148.88h-1V148h0a2,2,0,0,1-1.84,1.07,2,2,0,0,1-1.41-.47,1.64,1.64,0,0,1-.5-1.26c0-1.12.66-1.77,2-2l1.79-.25q0-1.53-1.23-1.53a3,3,0,0,0-2,.74v-1a3.76,3.76,0,0,1,2-.56c1.41,0,2.12.75,2.12,2.24Zm-1-3-1.44.2a2.3,2.3,0,0,0-1,.33,1,1,0,0,0-.34.84.92.92,0,0,0,.31.72,1.25,1.25,0,0,0,.84.27,1.53,1.53,0,0,0,1.18-.5,1.76,1.76,0,0,0,.46-1.26Z" fill="#1e1e1e"/>
      <path d="M274.2,148.82a1.82,1.82,0,0,1-.9.19c-1.05,0-1.57-.58-1.57-1.76V143.7h-1v-.82h1v-1.46l1-.31v1.77h1.51v.82h-1.51v3.38a1.49,1.49,0,0,0,.2.87.83.83,0,0,0,.68.25,1,1,0,0,0,.63-.2Z" fill="#1e1e1e"/>
      <path d="M276,141.36a.58.58,0,0,1-.43-.18.55.55,0,0,1-.19-.44.63.63,0,0,1,.62-.63.61.61,0,0,1,.45.18.58.58,0,0,1,.19.45.58.58,0,0,1-.19.44A.61.61,0,0,1,276,141.36Zm.47,7.52h-1v-6h1Z" fill="#1e1e1e"/>
      <path d="M280.9,149a2.79,2.79,0,0,1-2.13-.84A3.1,3.1,0,0,1,278,146a3.26,3.26,0,0,1,.82-2.36,3,3,0,0,1,2.24-.85,2.69,2.69,0,0,1,2.09.83,3.27,3.27,0,0,1,.75,2.29,3.23,3.23,0,0,1-.81,2.3A2.81,2.81,0,0,1,280.9,149Zm.07-5.47a1.84,1.84,0,0,0-1.47.63,2.59,2.59,0,0,0-.54,1.74,2.41,2.41,0,0,0,.55,1.68,1.85,1.85,0,0,0,1.46.61,1.75,1.75,0,0,0,1.43-.6,2.63,2.63,0,0,0,.5-1.72,2.68,2.68,0,0,0-.5-1.73A1.73,1.73,0,0,0,281,143.55Z" fill="#1e1e1e"/>
      <path d="M290.4,148.88h-1v-3.42c0-1.27-.47-1.91-1.4-1.91a1.52,1.52,0,0,0-1.19.54,2,2,0,0,0-.47,1.37v3.42h-1v-6h1v1h0a2.17,2.17,0,0,1,2-1.14,1.83,1.83,0,0,1,1.51.64,2.79,2.79,0,0,1,.52,1.83Z" fill="#1e1e1e"/>
      <path d="M200.51,161.81a3.17,3.17,0,0,1-1.64.41,2.71,2.71,0,0,1-2.07-.83,3.06,3.06,0,0,1-.79-2.17,3.36,3.36,0,0,1,.85-2.38,3,3,0,0,1,2.27-.9,3.13,3.13,0,0,1,1.4.3v1a2.49,2.49,0,0,0-1.43-.47,1.92,1.92,0,0,0-1.51.66,2.52,2.52,0,0,0-.59,1.73,2.4,2.4,0,0,0,.55,1.67,1.94,1.94,0,0,0,1.49.61,2.39,2.39,0,0,0,1.47-.53Z" fill="#1e1e1e"/>
      <path d="M204.48,162.22a2.79,2.79,0,0,1-2.13-.84,3.1,3.1,0,0,1-.79-2.23,3.26,3.26,0,0,1,.82-2.36,3,3,0,0,1,2.24-.85,2.69,2.69,0,0,1,2.09.83,3.27,3.27,0,0,1,.75,2.29,3.23,3.23,0,0,1-.81,2.3A2.81,2.81,0,0,1,204.48,162.22Zm.07-5.47a1.84,1.84,0,0,0-1.47.63,2.59,2.59,0,0,0-.54,1.74,2.41,2.41,0,0,0,.55,1.68,1.85,1.85,0,0,0,1.46.62,1.77,1.77,0,0,0,1.43-.61,2.63,2.63,0,0,0,.5-1.72,2.68,2.68,0,0,0-.5-1.73A1.74,1.74,0,0,0,204.55,156.75Z" fill="#1e1e1e"/>
      <path d="M214.12,162.08h-1v-1h0a2.43,2.43,0,0,1-3.87.36,3.27,3.27,0,0,1-.68-2.2,3.59,3.59,0,0,1,.75-2.38,2.46,2.46,0,0,1,2-.9,1.94,1.94,0,0,1,1.8,1h0V153.2h1Zm-1-2.71v-.88a1.74,1.74,0,0,0-.48-1.24,1.77,1.77,0,0,0-2.6.15,2.79,2.79,0,0,0-.51,1.78,2.48,2.48,0,0,0,.49,1.63,1.57,1.57,0,0,0,1.29.61,1.65,1.65,0,0,0,1.31-.59A2.16,2.16,0,0,0,213.16,159.37Z" fill="#1e1e1e"/>
      <path d="M220.89,159.32h-4.24a2.28,2.28,0,0,0,.54,1.55,1.87,1.87,0,0,0,1.42.55,3,3,0,0,0,1.86-.67v.9a3.5,3.5,0,0,1-2.09.57,2.56,2.56,0,0,1-2-.81,3.39,3.39,0,0,1-.72-2.3,3.29,3.29,0,0,1,.79-2.29,2.58,2.58,0,0,1,2-.88,2.27,2.27,0,0,1,1.82.76,3.2,3.2,0,0,1,.65,2.12Zm-1-.81a1.91,1.91,0,0,0-.4-1.3,1.39,1.39,0,0,0-1.1-.46,1.54,1.54,0,0,0-1.15.49,2.22,2.22,0,0,0-.59,1.27Z" fill="#1e1e1e"/>
      <path d="M226.12,154.56a.6.6,0,0,1-.44-.18.57.57,0,0,1-.18-.44.61.61,0,0,1,.18-.45.6.6,0,0,1,.44-.18.62.62,0,0,1,.63.63.6.6,0,0,1-.18.44A.61.61,0,0,1,226.12,154.56Zm.47,7.52h-1v-6h1Z" fill="#1e1e1e"/>
      <path d="M228.17,161.87v-1a2.83,2.83,0,0,0,1.73.59c.84,0,1.26-.29,1.26-.85a.78.78,0,0,0-.1-.41,1,1,0,0,0-.3-.29,1.93,1.93,0,0,0-.43-.23l-.54-.22a5.79,5.79,0,0,1-.7-.32,1.74,1.74,0,0,1-.5-.36,1.15,1.15,0,0,1-.3-.46,1.57,1.57,0,0,1-.11-.6,1.45,1.45,0,0,1,.2-.75,1.67,1.67,0,0,1,.51-.55,2.77,2.77,0,0,1,.74-.33,3.56,3.56,0,0,1,2.24.16v1a2.78,2.78,0,0,0-1.52-.43,1.88,1.88,0,0,0-.49.06,1.16,1.16,0,0,0-.37.18.85.85,0,0,0-.24.26.81.81,0,0,0-.08.34,1,1,0,0,0,.08.4.94.94,0,0,0,.25.28,2.11,2.11,0,0,0,.4.22l.53.22a6.21,6.21,0,0,1,.72.31,2.82,2.82,0,0,1,.54.36,1.57,1.57,0,0,1,.34.47,1.54,1.54,0,0,1,.12.63,1.5,1.5,0,0,1-.2.77,1.7,1.7,0,0,1-.52.55,2.49,2.49,0,0,1-.76.32,3.68,3.68,0,0,1-.89.1A3.51,3.51,0,0,1,228.17,161.87Z" fill="#1e1e1e"/>
      <path d="M236.55,161.87v-1a2.83,2.83,0,0,0,1.73.59c.84,0,1.26-.29,1.26-.85a.78.78,0,0,0-.1-.41,1,1,0,0,0-.3-.29,2.18,2.18,0,0,0-.43-.23l-.54-.22a5.79,5.79,0,0,1-.7-.32,1.74,1.74,0,0,1-.5-.36,1.29,1.29,0,0,1-.31-.46,1.79,1.79,0,0,1-.1-.6,1.55,1.55,0,0,1,.19-.75,1.82,1.82,0,0,1,.52-.55,2.77,2.77,0,0,1,.74-.33,3.56,3.56,0,0,1,2.24.16v1a2.78,2.78,0,0,0-1.52-.43,1.88,1.88,0,0,0-.49.06,1.06,1.06,0,0,0-.37.18.85.85,0,0,0-.24.26.68.68,0,0,0-.08.34.82.82,0,0,0,.08.4.94.94,0,0,0,.25.28,2.11,2.11,0,0,0,.4.22l.53.22a6.21,6.21,0,0,1,.72.31,2.82,2.82,0,0,1,.54.36,1.57,1.57,0,0,1,.34.47,1.54,1.54,0,0,1,.12.63,1.5,1.5,0,0,1-.2.77,1.7,1.7,0,0,1-.52.55,2.49,2.49,0,0,1-.76.32,3.68,3.68,0,0,1-.89.1A3.51,3.51,0,0,1,236.55,161.87Z" fill="#1e1e1e"/>
      <path d="M246.83,159.32h-4.24a2.28,2.28,0,0,0,.54,1.55,1.87,1.87,0,0,0,1.42.55,3,3,0,0,0,1.86-.67v.9a3.5,3.5,0,0,1-2.09.57,2.56,2.56,0,0,1-2-.81,3.39,3.39,0,0,1-.73-2.3,3.29,3.29,0,0,1,.8-2.29,2.58,2.58,0,0,1,2-.88,2.27,2.27,0,0,1,1.82.76,3.2,3.2,0,0,1,.65,2.12Zm-1-.81a2,2,0,0,0-.4-1.3,1.39,1.39,0,0,0-1.1-.46,1.52,1.52,0,0,0-1.15.49,2.22,2.22,0,0,0-.59,1.27Z" fill="#1e1e1e"/>
      <path d="M253.26,162.08h-1v-3.42c0-1.27-.47-1.91-1.39-1.91a1.52,1.52,0,0,0-1.2.54,2,2,0,0,0-.47,1.37v3.42h-1v-6h1v1h0a2.17,2.17,0,0,1,2-1.14,1.83,1.83,0,0,1,1.51.64,2.8,2.8,0,0,1,.52,1.84Z" fill="#1e1e1e"/>
      <path d="M257.85,162a1.76,1.76,0,0,1-.89.19c-1,0-1.58-.58-1.58-1.76V156.9h-1v-.82h1v-1.46l1-.31v1.77h1.51v.82h-1.51v3.38a1.41,1.41,0,0,0,.21.87.81.81,0,0,0,.68.25.94.94,0,0,0,.62-.2Z" fill="#1e1e1e"/>
      <path d="M265.21,162a1.82,1.82,0,0,1-.9.19c-1.05,0-1.57-.58-1.57-1.76V156.9h-1v-.82h1v-1.46l1-.31v1.77h1.51v.82H263.7v3.38a1.41,1.41,0,0,0,.2.87.82.82,0,0,0,.68.25,1,1,0,0,0,.63-.2Z" fill="#1e1e1e"/>
      <path d="M269,162.22a2.79,2.79,0,0,1-2.13-.84,3.15,3.15,0,0,1-.79-2.23,3.26,3.26,0,0,1,.83-2.36,3,3,0,0,1,2.23-.85,2.69,2.69,0,0,1,2.09.83,3.75,3.75,0,0,1-.05,4.59A2.85,2.85,0,0,1,269,162.22Zm.07-5.47a1.84,1.84,0,0,0-1.47.63,2.59,2.59,0,0,0-.53,1.74,2.46,2.46,0,0,0,.54,1.68,1.85,1.85,0,0,0,1.46.62,1.76,1.76,0,0,0,1.43-.61,2.58,2.58,0,0,0,.5-1.72,2.62,2.62,0,0,0-.5-1.73A1.73,1.73,0,0,0,269.07,156.75Z" fill="#1e1e1e"/>
      <path d="M279.59,162a1.76,1.76,0,0,1-.89.19c-1.05,0-1.58-.58-1.58-1.76V156.9h-1v-.82h1v-1.46l1-.31v1.77h1.51v.82h-1.51v3.38a1.41,1.41,0,0,0,.21.87.81.81,0,0,0,.68.25.94.94,0,0,0,.62-.2Z" fill="#1e1e1e"/>
      <path d="M285.86,162.08h-1v-3.45c0-1.25-.47-1.88-1.4-1.88a1.51,1.51,0,0,0-1.18.54,2,2,0,0,0-.48,1.39v3.4h-1V153.2h1v3.88h0a2.18,2.18,0,0,1,2-1.14c1.35,0,2,.82,2,2.45Z" fill="#1e1e1e"/>
      <path d="M292.49,159.32h-4.24a2.28,2.28,0,0,0,.54,1.55,1.89,1.89,0,0,0,1.42.55,3,3,0,0,0,1.86-.67v.9a3.47,3.47,0,0,1-2.09.57,2.56,2.56,0,0,1-2-.81,3.39,3.39,0,0,1-.72-2.3,3.29,3.29,0,0,1,.79-2.29,2.58,2.58,0,0,1,2-.88,2.27,2.27,0,0,1,1.82.76,3.2,3.2,0,0,1,.65,2.12Zm-1-.81a1.91,1.91,0,0,0-.4-1.3,1.39,1.39,0,0,0-1.1-.46,1.54,1.54,0,0,0-1.15.49,2.22,2.22,0,0,0-.59,1.27Z" fill="#1e1e1e"/>
      <path d="M195.19,175.28h-1v-.95h0a2,2,0,0,1-1.85,1.09c-1.43,0-2.15-.85-2.15-2.55v-3.59h1v3.44c0,1.26.48,1.89,1.45,1.89a1.48,1.48,0,0,0,1.16-.51,2,2,0,0,0,.45-1.36v-3.46h1Z" fill="#1e1e1e"/>
      <path d="M196.77,175.07v-1a2.82,2.82,0,0,0,1.73.58q1.26,0,1.26-.84a.78.78,0,0,0-.1-.41,1,1,0,0,0-.3-.29,1.59,1.59,0,0,0-.43-.23l-.54-.22a5.79,5.79,0,0,1-.7-.32,2,2,0,0,1-.5-.36,1.29,1.29,0,0,1-.31-.46,1.79,1.79,0,0,1-.1-.6,1.45,1.45,0,0,1,.2-.75,1.67,1.67,0,0,1,.51-.55,2.77,2.77,0,0,1,.74-.33,3.56,3.56,0,0,1,2.24.16v1A2.78,2.78,0,0,0,199,170a1.88,1.88,0,0,0-.49.06,1.16,1.16,0,0,0-.37.18.85.85,0,0,0-.24.26.68.68,0,0,0-.08.34.82.82,0,0,0,.08.4.94.94,0,0,0,.25.28,2.11,2.11,0,0,0,.4.22l.53.22a6.21,6.21,0,0,1,.72.31,2.82,2.82,0,0,1,.54.36,1.57,1.57,0,0,1,.34.47,1.54,1.54,0,0,1,.12.63,1.5,1.5,0,0,1-.2.77,1.7,1.7,0,0,1-.52.55,2.49,2.49,0,0,1-.76.32,3.68,3.68,0,0,1-.89.1A3.51,3.51,0,0,1,196.77,175.07Z" fill="#1e1e1e"/>
      <path d="M207.05,172.52h-4.24a2.28,2.28,0,0,0,.54,1.55,1.87,1.87,0,0,0,1.42.54,3,3,0,0,0,1.86-.66v.9a3.5,3.5,0,0,1-2.09.57,2.56,2.56,0,0,1-2-.81,3.39,3.39,0,0,1-.72-2.3,3.29,3.29,0,0,1,.79-2.29,2.58,2.58,0,0,1,2-.88,2.27,2.27,0,0,1,1.82.76,3.2,3.2,0,0,1,.65,2.12Zm-1-.81a1.91,1.91,0,0,0-.4-1.3,1.36,1.36,0,0,0-1.1-.46,1.54,1.54,0,0,0-1.15.49,2.22,2.22,0,0,0-.59,1.27Z" fill="#1e1e1e"/>
      <path d="M211.63,170.26a1.18,1.18,0,0,0-.73-.2,1.25,1.25,0,0,0-1,.58,2.74,2.74,0,0,0-.41,1.58v3.06h-1v-6h1v1.24h0a2.08,2.08,0,0,1,.62-1,1.47,1.47,0,0,1,.95-.35,1.44,1.44,0,0,1,.57.08Z" fill="#1e1e1e"/>
      <path d="M213.5,166.88v2.62h-.84v-2.62Z" fill="#1e1e1e"/>
      <path d="M215.07,175.07v-1a2.82,2.82,0,0,0,1.73.58q1.26,0,1.26-.84a.7.7,0,0,0-.11-.41.89.89,0,0,0-.29-.29,1.76,1.76,0,0,0-.43-.23l-.54-.22a5.79,5.79,0,0,1-.7-.32,2,2,0,0,1-.5-.36,1.29,1.29,0,0,1-.31-.46,1.79,1.79,0,0,1-.1-.6,1.55,1.55,0,0,1,.19-.75,1.82,1.82,0,0,1,.52-.55,2.64,2.64,0,0,1,.74-.33,3.35,3.35,0,0,1,.85-.11,3.41,3.41,0,0,1,1.39.27v1a2.78,2.78,0,0,0-1.52-.43,1.88,1.88,0,0,0-.49.06,1.06,1.06,0,0,0-.37.18.85.85,0,0,0-.24.26.68.68,0,0,0-.08.34.82.82,0,0,0,.08.4.94.94,0,0,0,.25.28,2.11,2.11,0,0,0,.4.22l.53.22a7.07,7.07,0,0,1,.72.31,2.45,2.45,0,0,1,.53.36,1.45,1.45,0,0,1,.35.47,1.54,1.54,0,0,1,.12.63,1.5,1.5,0,0,1-.2.77,1.7,1.7,0,0,1-.52.55,2.49,2.49,0,0,1-.76.32,3.71,3.71,0,0,1-.9.1A3.49,3.49,0,0,1,215.07,175.07Z" fill="#1e1e1e"/>
      <path d="M232.33,175.28h-1v-3.44a2.52,2.52,0,0,0-.31-1.44,1.15,1.15,0,0,0-1-.45,1.3,1.3,0,0,0-1.05.56,2.22,2.22,0,0,0-.43,1.35v3.42h-1v-3.56c0-1.18-.45-1.77-1.36-1.77a1.28,1.28,0,0,0-1,.53,2.2,2.2,0,0,0-.41,1.38v3.42h-1v-6h1v.95h0a2,2,0,0,1,1.86-1.09,1.77,1.77,0,0,1,1.07.34,1.75,1.75,0,0,1,.63.9,2.15,2.15,0,0,1,2-1.24c1.32,0,2,.82,2,2.45Z" fill="#1e1e1e"/>
      <path d="M236.66,175.42a2.79,2.79,0,0,1-2.13-.84,3.1,3.1,0,0,1-.79-2.23,3.26,3.26,0,0,1,.82-2.36,3,3,0,0,1,2.24-.85,2.69,2.69,0,0,1,2.09.83,3.27,3.27,0,0,1,.75,2.29,3.23,3.23,0,0,1-.81,2.3A2.81,2.81,0,0,1,236.66,175.42Zm.07-5.47a1.84,1.84,0,0,0-1.47.63,2.59,2.59,0,0,0-.54,1.74,2.41,2.41,0,0,0,.55,1.68,1.85,1.85,0,0,0,1.46.61,1.77,1.77,0,0,0,1.43-.6,2.63,2.63,0,0,0,.5-1.72,2.68,2.68,0,0,0-.5-1.73A1.74,1.74,0,0,0,236.73,170Z" fill="#1e1e1e"/>
      <path d="M242.16,174.42h0v.86h-1V166.4h1v3.94h0a2.29,2.29,0,0,1,2.08-1.2,2.17,2.17,0,0,1,1.8.81,3.28,3.28,0,0,1,.66,2.16,3.78,3.78,0,0,1-.73,2.41,2.46,2.46,0,0,1-2,.9A2,2,0,0,1,242.16,174.42Zm0-2.42v.83a1.81,1.81,0,0,0,.48,1.27,1.75,1.75,0,0,0,2.6-.15,3.09,3.09,0,0,0,.49-1.86,2.41,2.41,0,0,0-.46-1.57A1.53,1.53,0,0,0,244,170a1.73,1.73,0,0,0-1.35.58A2.16,2.16,0,0,0,242.14,172Z" fill="#1e1e1e"/>
      <path d="M248.73,167.76a.59.59,0,0,1-.44-.18.55.55,0,0,1-.19-.44.63.63,0,0,1,.63-.63.6.6,0,0,1,.44.18.58.58,0,0,1,.19.45.58.58,0,0,1-.19.44A.6.6,0,0,1,248.73,167.76Zm.46,7.52h-1v-6h1Z" fill="#1e1e1e"/>
      <path d="M252.1,175.28h-1V166.4h1Z" fill="#1e1e1e"/>
      <path d="M258.87,172.52h-4.24a2.28,2.28,0,0,0,.54,1.55,1.87,1.87,0,0,0,1.42.54,3,3,0,0,0,1.86-.66v.9a3.5,3.5,0,0,1-2.09.57,2.56,2.56,0,0,1-2-.81,3.39,3.39,0,0,1-.72-2.3,3.29,3.29,0,0,1,.79-2.29,2.58,2.58,0,0,1,2-.88,2.27,2.27,0,0,1,1.82.76,3.2,3.2,0,0,1,.65,2.12Zm-1-.81a1.91,1.91,0,0,0-.4-1.3,1.36,1.36,0,0,0-1.1-.46,1.54,1.54,0,0,0-1.15.49,2.22,2.22,0,0,0-.59,1.27Z" fill="#1e1e1e"/>
      <path d="M268.73,175.28h-1v-1h0a2.2,2.2,0,0,1-2.06,1.16,2.28,2.28,0,0,1-1.81-.8,3.32,3.32,0,0,1-.67-2.2A3.59,3.59,0,0,1,264,170a2.46,2.46,0,0,1,2-.9,1.92,1.92,0,0,1,1.79,1h0V166.4h1Zm-1-2.71v-.88a1.74,1.74,0,0,0-.48-1.24,1.77,1.77,0,0,0-2.6.15,2.77,2.77,0,0,0-.51,1.78,2.48,2.48,0,0,0,.49,1.63,1.57,1.57,0,0,0,1.29.6,1.65,1.65,0,0,0,1.31-.58A2.16,2.16,0,0,0,267.77,172.57Z" fill="#1e1e1e"/>
      <path d="M275.5,172.52h-4.24a2.28,2.28,0,0,0,.54,1.55,1.87,1.87,0,0,0,1.42.54,3,3,0,0,0,1.86-.66v.9a3.5,3.5,0,0,1-2.09.57,2.56,2.56,0,0,1-2-.81,3.39,3.39,0,0,1-.73-2.3,3.29,3.29,0,0,1,.8-2.29,2.56,2.56,0,0,1,2-.88,2.27,2.27,0,0,1,1.82.76,3.2,3.2,0,0,1,.65,2.12Zm-1-.81a2,2,0,0,0-.4-1.3A1.36,1.36,0,0,0,273,170a1.52,1.52,0,0,0-1.15.49,2.22,2.22,0,0,0-.59,1.27Z" fill="#1e1e1e"/>
      <path d="M281.67,169.28l-2.39,6h-.95l-2.27-6h1.05l1.53,4.36a4.27,4.27,0,0,1,.21.84h0a3.7,3.7,0,0,1,.19-.81l1.59-4.39Z" fill="#1e1e1e"/>
      <path d="M283.19,167.76a.6.6,0,0,1-.44-.18.57.57,0,0,1-.18-.44.61.61,0,0,1,.18-.45.6.6,0,0,1,.44-.18.62.62,0,0,1,.63.63.6.6,0,0,1-.18.44A.61.61,0,0,1,283.19,167.76Zm.47,7.52h-1v-6h1Z" fill="#1e1e1e"/>
      <path d="M289.69,175a3.17,3.17,0,0,1-1.64.41,2.71,2.71,0,0,1-2.07-.83,3.06,3.06,0,0,1-.79-2.17A3.36,3.36,0,0,1,286,170a3,3,0,0,1,2.27-.9,3.13,3.13,0,0,1,1.4.3v1a2.49,2.49,0,0,0-1.43-.47,1.92,1.92,0,0,0-1.51.66,2.47,2.47,0,0,0-.59,1.73,2.4,2.4,0,0,0,.55,1.67,1.94,1.94,0,0,0,1.49.6,2.38,2.38,0,0,0,1.47-.52Z" fill="#1e1e1e"/>
      <path d="M296,172.52h-4.24a2.28,2.28,0,0,0,.54,1.55,1.88,1.88,0,0,0,1.42.54,2.94,2.94,0,0,0,1.86-.66v.9a3.47,3.47,0,0,1-2.09.57,2.56,2.56,0,0,1-2-.81,3.39,3.39,0,0,1-.72-2.3,3.29,3.29,0,0,1,.79-2.29,2.58,2.58,0,0,1,2-.88,2.29,2.29,0,0,1,1.83.76A3.25,3.25,0,0,1,296,172Zm-1-.81a2,2,0,0,0-.41-1.3,1.35,1.35,0,0,0-1.09-.46,1.54,1.54,0,0,0-1.16.49,2.22,2.22,0,0,0-.59,1.27Z" fill="#1e1e1e"/>
      <path d="M297.76,175.41a.6.6,0,0,1-.46-.19.62.62,0,0,1-.19-.46.64.64,0,0,1,.19-.47.61.61,0,0,1,.46-.2.65.65,0,0,1,.47.2.68.68,0,0,1,.19.47.66.66,0,0,1-.19.46A.64.64,0,0,1,297.76,175.41Z" fill="#1e1e1e"/>
    </g>
    <g>
      <path d="M343.26,141.37h-2.43v7.51h-1v-7.51h-2.42v-.89h5.83Z" fill="#1e1e1e"/>
      <path d="M349.43,148.88h-1v-3.45c0-1.25-.47-1.88-1.4-1.88a1.51,1.51,0,0,0-1.18.54,2,2,0,0,0-.48,1.39v3.4h-1V140h1v3.88h0a2.18,2.18,0,0,1,2-1.14c1.35,0,2,.82,2,2.45Z" fill="#1e1e1e"/>
      <path d="M356.06,146.12h-4.24a2.28,2.28,0,0,0,.54,1.55,1.88,1.88,0,0,0,1.42.54,2.94,2.94,0,0,0,1.86-.66v.9a3.47,3.47,0,0,1-2.09.57,2.56,2.56,0,0,1-2-.81,3.39,3.39,0,0,1-.72-2.3,3.29,3.29,0,0,1,.79-2.29,2.58,2.58,0,0,1,2-.88,2.29,2.29,0,0,1,1.83.76,3.19,3.19,0,0,1,.64,2.12Zm-1-.81a2,2,0,0,0-.41-1.3,1.38,1.38,0,0,0-1.09-.46,1.54,1.54,0,0,0-1.16.49,2.21,2.21,0,0,0-.58,1.27Z" fill="#1e1e1e"/>
      <path d="M365.65,148.88h-1v-.95h0a2,2,0,0,1-1.85,1.09c-1.43,0-2.15-.85-2.15-2.55v-3.59h1v3.44c0,1.26.48,1.89,1.45,1.89a1.5,1.5,0,0,0,1.16-.51,2,2,0,0,0,.45-1.36v-3.46h1Z" fill="#1e1e1e"/>
      <path d="M367.23,148.67v-1a2.82,2.82,0,0,0,1.73.58q1.26,0,1.26-.84a.7.7,0,0,0-.11-.41,1,1,0,0,0-.29-.29,1.76,1.76,0,0,0-.43-.23l-.54-.22a5.79,5.79,0,0,1-.7-.32,2,2,0,0,1-.5-.36,1.29,1.29,0,0,1-.31-.46,1.57,1.57,0,0,1-.1-.6,1.44,1.44,0,0,1,.19-.75,1.7,1.7,0,0,1,.52-.55,2.71,2.71,0,0,1,.73-.33,3.49,3.49,0,0,1,.86-.11,3.41,3.41,0,0,1,1.39.27v1a2.78,2.78,0,0,0-1.52-.43,1.88,1.88,0,0,0-.49.06,1.06,1.06,0,0,0-.37.18.85.85,0,0,0-.24.26.69.69,0,0,0-.09.34.82.82,0,0,0,.09.4.94.94,0,0,0,.25.28,2.11,2.11,0,0,0,.4.22l.53.22a6,6,0,0,1,.71.31,2.3,2.3,0,0,1,.54.36,1.45,1.45,0,0,1,.35.47,1.54,1.54,0,0,1,.12.63,1.5,1.5,0,0,1-.2.77,1.82,1.82,0,0,1-.52.55,2.49,2.49,0,0,1-.76.32,3.71,3.71,0,0,1-.9.1A3.49,3.49,0,0,1,367.23,148.67Z" fill="#1e1e1e"/>
      <path d="M377.51,146.12h-4.24a2.23,2.23,0,0,0,.54,1.55,1.85,1.85,0,0,0,1.42.54,3,3,0,0,0,1.86-.66v.9A3.5,3.5,0,0,1,375,149a2.54,2.54,0,0,1-2-.81,3.39,3.39,0,0,1-.73-2.3,3.29,3.29,0,0,1,.8-2.29,2.56,2.56,0,0,1,2-.88,2.28,2.28,0,0,1,1.82.76,3.2,3.2,0,0,1,.65,2.12Zm-1-.81a2,2,0,0,0-.4-1.3,1.39,1.39,0,0,0-1.1-.46,1.52,1.52,0,0,0-1.15.49,2.22,2.22,0,0,0-.59,1.27Z" fill="#1e1e1e"/>
      <path d="M382.09,143.86a1.18,1.18,0,0,0-.73-.2,1.25,1.25,0,0,0-1,.58,2.74,2.74,0,0,0-.41,1.58v3.06h-1v-6h1v1.24h0a2.17,2.17,0,0,1,.63-1,1.46,1.46,0,0,1,.94-.35,1.52,1.52,0,0,1,.58.08Z" fill="#1e1e1e"/>
      <path d="M391.24,146.12H387a2.28,2.28,0,0,0,.54,1.55,1.88,1.88,0,0,0,1.42.54,2.94,2.94,0,0,0,1.86-.66v.9a3.47,3.47,0,0,1-2.09.57,2.56,2.56,0,0,1-2-.81,3.39,3.39,0,0,1-.72-2.3,3.29,3.29,0,0,1,.79-2.29,2.58,2.58,0,0,1,2-.88,2.29,2.29,0,0,1,1.83.76,3.19,3.19,0,0,1,.64,2.12Zm-1-.81a2,2,0,0,0-.41-1.3,1.38,1.38,0,0,0-1.09-.46,1.54,1.54,0,0,0-1.16.49,2.21,2.21,0,0,0-.58,1.27Z" fill="#1e1e1e"/>
      <path d="M397.67,148.88h-1v-3.42c0-1.27-.46-1.91-1.39-1.91a1.5,1.5,0,0,0-1.19.54,2,2,0,0,0-.48,1.37v3.42h-1v-6h1v1h0a2.16,2.16,0,0,1,2-1.14,1.82,1.82,0,0,1,1.5.64,2.79,2.79,0,0,1,.52,1.83Z" fill="#1e1e1e"/>
      <path d="M402.27,148.82a1.82,1.82,0,0,1-.9.19c-1.05,0-1.58-.58-1.58-1.76V143.7h-1v-.82h1v-1.46l1-.31v1.77h1.51v.82h-1.51v3.38a1.41,1.41,0,0,0,.2.87.82.82,0,0,0,.68.25,1,1,0,0,0,.63-.2Z" fill="#1e1e1e"/>
      <path d="M408.37,146.12h-4.23a2.19,2.19,0,0,0,.54,1.55,1.85,1.85,0,0,0,1.41.54,3,3,0,0,0,1.87-.66v.9a3.52,3.52,0,0,1-2.09.57,2.54,2.54,0,0,1-2-.81,3.85,3.85,0,0,1,.06-4.59,2.58,2.58,0,0,1,2-.88,2.28,2.28,0,0,1,1.82.76,3.19,3.19,0,0,1,.64,2.12Zm-1-.81a2,2,0,0,0-.4-1.3,1.4,1.4,0,0,0-1.1-.46,1.56,1.56,0,0,0-1.16.49,2.21,2.21,0,0,0-.58,1.27Z" fill="#1e1e1e"/>
      <path d="M413,143.86a1.14,1.14,0,0,0-.72-.2,1.25,1.25,0,0,0-1,.58,2.67,2.67,0,0,0-.41,1.58v3.06h-1v-6h1v1.24h0a2.17,2.17,0,0,1,.63-1,1.61,1.61,0,0,1,1.51-.27Z" fill="#1e1e1e"/>
      <path d="M413.63,148.67v-1a2.84,2.84,0,0,0,1.73.58c.85,0,1.27-.28,1.27-.84a.78.78,0,0,0-.11-.41,1,1,0,0,0-.29-.29,1.83,1.83,0,0,0-.44-.23l-.53-.22a5.16,5.16,0,0,1-.7-.32,2.21,2.21,0,0,1-.51-.36,1.41,1.41,0,0,1-.3-.46,1.57,1.57,0,0,1-.1-.6,1.44,1.44,0,0,1,.19-.75,1.7,1.7,0,0,1,.52-.55,2.71,2.71,0,0,1,.73-.33,3.59,3.59,0,0,1,2.25.16v1a2.79,2.79,0,0,0-1.53-.43,1.75,1.75,0,0,0-.48.06,1,1,0,0,0-.37.18.66.66,0,0,0-.24.26.69.69,0,0,0-.09.34.82.82,0,0,0,.09.4.9.9,0,0,0,.24.28,2.48,2.48,0,0,0,.4.22l.54.22a6.85,6.85,0,0,1,.71.31,2.82,2.82,0,0,1,.54.36,1.41,1.41,0,0,1,.34.47,1.54,1.54,0,0,1,.12.63,1.49,1.49,0,0,1-.19.77,1.74,1.74,0,0,1-.53.55,2.54,2.54,0,0,1-.75.32,3.82,3.82,0,0,1-.9.1A3.54,3.54,0,0,1,413.63,148.67Z" fill="#1e1e1e"/>
      <path d="M422.87,141.36a.6.6,0,0,1-.44-.18.57.57,0,0,1-.18-.44.61.61,0,0,1,.18-.45.6.6,0,0,1,.44-.18.64.64,0,0,1,.45.18.61.61,0,0,1,.18.45.6.6,0,0,1-.18.44A.64.64,0,0,1,422.87,141.36Zm.47,7.52h-1v-6h1Z" fill="#1e1e1e"/>
      <path d="M430.26,148.88h-1v-3.42c0-1.27-.46-1.91-1.39-1.91a1.5,1.5,0,0,0-1.19.54,2,2,0,0,0-.48,1.37v3.42h-1v-6h1v1h0a2.16,2.16,0,0,1,2-1.14,1.82,1.82,0,0,1,1.5.64,2.79,2.79,0,0,1,.52,1.83Z" fill="#1e1e1e"/>
      <path d="M438.14,148.82a1.76,1.76,0,0,1-.89.19c-1.05,0-1.58-.58-1.58-1.76V143.7h-1v-.82h1v-1.46l1-.31v1.77h1.51v.82h-1.51v3.38a1.41,1.41,0,0,0,.21.87.81.81,0,0,0,.68.25.94.94,0,0,0,.62-.2Z" fill="#1e1e1e"/>
      <path d="M444.41,148.88h-1v-3.45c0-1.25-.47-1.88-1.4-1.88a1.51,1.51,0,0,0-1.18.54,2,2,0,0,0-.48,1.39v3.4h-1V140h1v3.88h0a2.18,2.18,0,0,1,2-1.14c1.35,0,2,.82,2,2.45Z" fill="#1e1e1e"/>
      <path d="M451,146.12H446.8a2.28,2.28,0,0,0,.54,1.55,1.88,1.88,0,0,0,1.42.54,2.94,2.94,0,0,0,1.86-.66v.9a3.47,3.47,0,0,1-2.09.57,2.53,2.53,0,0,1-2-.81,3.34,3.34,0,0,1-.73-2.3,3.29,3.29,0,0,1,.79-2.29,2.58,2.58,0,0,1,2-.88,2.29,2.29,0,0,1,1.83.76,3.19,3.19,0,0,1,.64,2.12Zm-1-.81a2,2,0,0,0-.4-1.3,1.4,1.4,0,0,0-1.1-.46,1.54,1.54,0,0,0-1.16.49,2.21,2.21,0,0,0-.58,1.27Z" fill="#1e1e1e"/>
      <path d="M453,141.36a.59.59,0,0,1-.44-.18.57.57,0,0,1-.18-.44.61.61,0,0,1,.18-.45.59.59,0,0,1,.44-.18.6.6,0,0,1,.44.18.58.58,0,0,1,.19.45.58.58,0,0,1-.19.44A.6.6,0,0,1,453,141.36Zm.46,7.52h-1v-6h1Z" fill="#1e1e1e"/>
      <path d="M458.53,143.86a1.18,1.18,0,0,0-.73-.2,1.25,1.25,0,0,0-1,.58,2.74,2.74,0,0,0-.41,1.58v3.06h-1v-6h1v1.24h0a2.17,2.17,0,0,1,.63-1,1.46,1.46,0,0,1,.94-.35,1.49,1.49,0,0,1,.58.08Z" fill="#1e1e1e"/>
      <path d="M333.1,162.08h-1v-.93h0a2,2,0,0,1-1.85,1.07,2,2,0,0,1-1.4-.47,1.65,1.65,0,0,1-.51-1.26c0-1.12.66-1.77,2-2l1.8-.25q0-1.53-1.23-1.53a3,3,0,0,0-2,.74v-1a3.76,3.76,0,0,1,2-.56c1.41,0,2.11.75,2.11,2.24Zm-1-3-1.44.2a2.25,2.25,0,0,0-1,.33,1,1,0,0,0-.34.84.92.92,0,0,0,.31.72,1.25,1.25,0,0,0,.84.28,1.54,1.54,0,0,0,1.18-.51,1.76,1.76,0,0,0,.46-1.26Z" fill="#1e1e1e"/>
      <path d="M339.77,162.08h-1v-1h0a2,2,0,0,1-1.85,1.09c-1.43,0-2.14-.85-2.14-2.55v-3.59h.95v3.44c0,1.26.48,1.9,1.45,1.9a1.49,1.49,0,0,0,1.16-.52,2,2,0,0,0,.45-1.36v-3.46h1Z" fill="#1e1e1e"/>
      <path d="M344.49,162a1.82,1.82,0,0,1-.9.19c-1,0-1.57-.58-1.57-1.76V156.9h-1v-.82h1v-1.46l1-.31v1.77h1.51v.82H343v3.38a1.41,1.41,0,0,0,.2.87.82.82,0,0,0,.68.25,1,1,0,0,0,.63-.2Z" fill="#1e1e1e"/>
      <path d="M350.75,162.08h-1v-3.45c0-1.25-.46-1.88-1.39-1.88a1.53,1.53,0,0,0-1.19.54,2,2,0,0,0-.48,1.39v3.4h-1V153.2h1v3.88h0a2.17,2.17,0,0,1,2-1.14c1.36,0,2,.82,2,2.45Z" fill="#1e1e1e"/>
      <path d="M357.38,159.32h-4.23a2.19,2.19,0,0,0,.54,1.55,1.86,1.86,0,0,0,1.42.55,3,3,0,0,0,1.86-.67v.9a3.52,3.52,0,0,1-2.09.57,2.54,2.54,0,0,1-2-.81,3.34,3.34,0,0,1-.73-2.3,3.29,3.29,0,0,1,.8-2.29,2.56,2.56,0,0,1,2-.88,2.28,2.28,0,0,1,1.82.76,3.19,3.19,0,0,1,.64,2.12Zm-1-.81a2,2,0,0,0-.4-1.3,1.39,1.39,0,0,0-1.1-.46,1.52,1.52,0,0,0-1.15.49,2.16,2.16,0,0,0-.59,1.27Z" fill="#1e1e1e"/>
      <path d="M363.82,162.08h-1v-3.42c0-1.27-.47-1.91-1.4-1.91a1.5,1.5,0,0,0-1.19.54,2,2,0,0,0-.47,1.37v3.42h-1v-6h1v1h0a2.17,2.17,0,0,1,2-1.14,1.83,1.83,0,0,1,1.51.64,2.86,2.86,0,0,1,.52,1.84Z" fill="#1e1e1e"/>
      <path d="M368.41,162a1.76,1.76,0,0,1-.89.19c-1.06,0-1.58-.58-1.58-1.76V156.9h-1v-.82h1v-1.46l1-.31v1.77h1.51v.82H366.9v3.38a1.41,1.41,0,0,0,.21.87.81.81,0,0,0,.68.25.94.94,0,0,0,.62-.2Z" fill="#1e1e1e"/>
      <path d="M370.19,154.56a.6.6,0,0,1-.44-.18.57.57,0,0,1-.18-.44.61.61,0,0,1,.18-.45.6.6,0,0,1,.44-.18.64.64,0,0,1,.45.18.61.61,0,0,1,.18.45.6.6,0,0,1-.18.44A.64.64,0,0,1,370.19,154.56Zm.47,7.52h-1v-6h1Z" fill="#1e1e1e"/>
      <path d="M376.69,161.81a3.19,3.19,0,0,1-1.64.41,2.7,2.7,0,0,1-2.07-.83,3,3,0,0,1-.79-2.17,3.32,3.32,0,0,1,.85-2.38,3,3,0,0,1,2.27-.9,3.06,3.06,0,0,1,1.39.3v1a2.45,2.45,0,0,0-1.43-.47,2,2,0,0,0-1.51.66,2.51,2.51,0,0,0-.58,1.73,2.4,2.4,0,0,0,.55,1.67,1.92,1.92,0,0,0,1.48.61,2.4,2.4,0,0,0,1.48-.53Z" fill="#1e1e1e"/>
      <path d="M382.44,162.08h-1v-.93h0a2,2,0,0,1-1.84,1.07,1.93,1.93,0,0,1-1.4-.47,1.65,1.65,0,0,1-.51-1.26c0-1.12.66-1.77,2-2l1.8-.25c0-1-.41-1.53-1.24-1.53a3,3,0,0,0-1.95.74v-1a3.7,3.7,0,0,1,2-.56c1.41,0,2.12.75,2.12,2.24Zm-1-3-1.45.2a2.35,2.35,0,0,0-1,.33,1,1,0,0,0-.34.84.93.93,0,0,0,.32.72,1.22,1.22,0,0,0,.83.28,1.52,1.52,0,0,0,1.18-.51,1.77,1.77,0,0,0,.47-1.26Z" fill="#1e1e1e"/>
      <path d="M387,162a1.76,1.76,0,0,1-.89.19c-1.05,0-1.58-.58-1.58-1.76V156.9h-1v-.82h1v-1.46l1-.31v1.77H387v.82h-1.51v3.38a1.41,1.41,0,0,0,.21.87.81.81,0,0,0,.68.25.94.94,0,0,0,.62-.2Z" fill="#1e1e1e"/>
      <path d="M388.81,154.56a.6.6,0,0,1-.44-.18.57.57,0,0,1-.18-.44.61.61,0,0,1,.18-.45.6.6,0,0,1,.44-.18.64.64,0,0,1,.45.18.61.61,0,0,1,.18.45.6.6,0,0,1-.18.44A.64.64,0,0,1,388.81,154.56Zm.47,7.52h-1v-6h1Z" fill="#1e1e1e"/>
      <path d="M393.73,162.22a2.77,2.77,0,0,1-2.12-.84,3.11,3.11,0,0,1-.8-2.23,3.26,3.26,0,0,1,.83-2.36,3,3,0,0,1,2.23-.85,2.71,2.71,0,0,1,2.1.83,3.27,3.27,0,0,1,.75,2.29,3.23,3.23,0,0,1-.81,2.3A2.83,2.83,0,0,1,393.73,162.22Zm.07-5.47a1.81,1.81,0,0,0-1.46.63,2.59,2.59,0,0,0-.54,1.74,2.46,2.46,0,0,0,.54,1.68,1.85,1.85,0,0,0,1.46.62,1.76,1.76,0,0,0,1.43-.61,2.58,2.58,0,0,0,.5-1.72,2.62,2.62,0,0,0-.5-1.73A1.73,1.73,0,0,0,393.8,156.75Z" fill="#1e1e1e"/>
      <path d="M403.23,162.08h-1v-3.42c0-1.27-.46-1.91-1.39-1.91a1.5,1.5,0,0,0-1.19.54,2,2,0,0,0-.48,1.37v3.42h-1v-6h1v1h0a2.16,2.16,0,0,1,2-1.14,1.81,1.81,0,0,1,1.5.64,2.8,2.8,0,0,1,.52,1.84Z" fill="#1e1e1e"/>
      <path d="M412.42,161.81a3.19,3.19,0,0,1-1.64.41,2.71,2.71,0,0,1-2.07-.83,3,3,0,0,1-.79-2.17,3.32,3.32,0,0,1,.85-2.38,3,3,0,0,1,2.27-.9,3.06,3.06,0,0,1,1.39.3v1a2.45,2.45,0,0,0-1.43-.47,2,2,0,0,0-1.51.66,2.51,2.51,0,0,0-.58,1.73,2.4,2.4,0,0,0,.55,1.67,1.93,1.93,0,0,0,1.49.61,2.39,2.39,0,0,0,1.47-.53Z" fill="#1e1e1e"/>
      <path d="M416.38,162.22a2.79,2.79,0,0,1-2.12-.84,3.11,3.11,0,0,1-.8-2.23,3.26,3.26,0,0,1,.83-2.36,3,3,0,0,1,2.23-.85,2.7,2.7,0,0,1,2.1.83,3.27,3.27,0,0,1,.75,2.29,3.23,3.23,0,0,1-.81,2.3A2.83,2.83,0,0,1,416.38,162.22Zm.07-5.47a1.83,1.83,0,0,0-1.46.63,2.59,2.59,0,0,0-.54,1.74,2.46,2.46,0,0,0,.54,1.68,1.87,1.87,0,0,0,1.46.62,1.79,1.79,0,0,0,1.44-.61,2.63,2.63,0,0,0,.5-1.72,2.68,2.68,0,0,0-.5-1.73A1.76,1.76,0,0,0,416.45,156.75Z" fill="#1e1e1e"/>
      <path d="M426,162.08h-1v-1h0a2.2,2.2,0,0,1-2.06,1.16,2.24,2.24,0,0,1-1.81-.8,3.32,3.32,0,0,1-.67-2.2,3.59,3.59,0,0,1,.75-2.38,2.46,2.46,0,0,1,2-.9,1.92,1.92,0,0,1,1.8,1h0V153.2h1Zm-1-2.71v-.88a1.74,1.74,0,0,0-.48-1.24,1.64,1.64,0,0,0-1.22-.5,1.68,1.68,0,0,0-1.39.65,2.85,2.85,0,0,0-.5,1.78,2.53,2.53,0,0,0,.48,1.63,1.61,1.61,0,0,0,1.3.61,1.65,1.65,0,0,0,1.31-.59A2.16,2.16,0,0,0,425.07,159.37Z" fill="#1e1e1e"/>
      <path d="M432.79,159.32h-4.23a2.19,2.19,0,0,0,.54,1.55,1.86,1.86,0,0,0,1.42.55,3,3,0,0,0,1.86-.67v.9a3.52,3.52,0,0,1-2.09.57,2.54,2.54,0,0,1-2-.81,3.34,3.34,0,0,1-.73-2.3,3.29,3.29,0,0,1,.8-2.29,2.56,2.56,0,0,1,2-.88,2.28,2.28,0,0,1,1.82.76,3.19,3.19,0,0,1,.64,2.12Zm-1-.81a2,2,0,0,0-.4-1.3,1.39,1.39,0,0,0-1.1-.46,1.52,1.52,0,0,0-1.15.49,2.16,2.16,0,0,0-.59,1.27Z" fill="#1e1e1e"/>
      <path d="M440.32,162a1.82,1.82,0,0,1-.9.19c-1.05,0-1.57-.58-1.57-1.76V156.9h-1v-.82h1v-1.46l1-.31v1.77h1.51v.82h-1.51v3.38a1.41,1.41,0,0,0,.2.87.82.82,0,0,0,.68.25,1,1,0,0,0,.63-.2Z" fill="#1e1e1e"/>
      <path d="M444.11,162.22a2.76,2.76,0,0,1-2.12-.84,3.11,3.11,0,0,1-.8-2.23,3.26,3.26,0,0,1,.83-2.36,3,3,0,0,1,2.23-.85,2.69,2.69,0,0,1,2.09.83,3.75,3.75,0,0,1,0,4.59A2.85,2.85,0,0,1,444.11,162.22Zm.07-5.47a1.84,1.84,0,0,0-1.47.63,2.64,2.64,0,0,0-.53,1.74,2.46,2.46,0,0,0,.54,1.68,1.85,1.85,0,0,0,1.46.62,1.76,1.76,0,0,0,1.43-.61,2.58,2.58,0,0,0,.5-1.72,2.62,2.62,0,0,0-.5-1.73A1.73,1.73,0,0,0,444.18,156.75Z" fill="#1e1e1e"/>
      <path d="M452.88,162.08h-1V153.2h1Z" fill="#1e1e1e"/>
      <path d="M457.33,162.22a2.79,2.79,0,0,1-2.12-.84,3.1,3.1,0,0,1-.79-2.23,3.26,3.26,0,0,1,.82-2.36,3,3,0,0,1,2.23-.85,2.7,2.7,0,0,1,2.1.83,3.27,3.27,0,0,1,.75,2.29,3.23,3.23,0,0,1-.81,2.3A2.83,2.83,0,0,1,457.33,162.22Zm.07-5.47a1.83,1.83,0,0,0-1.46.63,2.59,2.59,0,0,0-.54,1.74,2.41,2.41,0,0,0,.55,1.68,1.83,1.83,0,0,0,1.45.62,1.78,1.78,0,0,0,1.44-.61,2.63,2.63,0,0,0,.5-1.72,2.68,2.68,0,0,0-.5-1.73A1.75,1.75,0,0,0,457.4,156.75Z" fill="#1e1e1e"/>
      <path d="M467,161.6q0,3.32-3.17,3.31a4.23,4.23,0,0,1-1.94-.42v-1a3.94,3.94,0,0,0,1.93.57c1.48,0,2.22-.79,2.22-2.36v-.65h0a2.43,2.43,0,0,1-3.86.34,3.16,3.16,0,0,1-.68-2.14,3.77,3.77,0,0,1,.73-2.44,2.46,2.46,0,0,1,2-.9,2,2,0,0,1,1.79,1h0v-.84h1Zm-1-2.23v-.88a1.7,1.7,0,0,0-.49-1.23,1.58,1.58,0,0,0-1.2-.51,1.66,1.66,0,0,0-1.39.65,2.85,2.85,0,0,0-.51,1.81,2.48,2.48,0,0,0,.48,1.6,1.59,1.59,0,0,0,1.29.61,1.69,1.69,0,0,0,1.31-.58A2.12,2.12,0,0,0,466,159.37Z" fill="#1e1e1e"/>
      <path d="M346.57,167.76a.6.6,0,0,1-.44-.18.57.57,0,0,1-.18-.44.61.61,0,0,1,.18-.45.6.6,0,0,1,.44-.18.62.62,0,0,1,.63.63.6.6,0,0,1-.18.44A.61.61,0,0,1,346.57,167.76Zm.47,7.52h-1v-6h1Z" fill="#1e1e1e"/>
      <path d="M354,175.28h-1v-3.42c0-1.27-.46-1.91-1.39-1.91a1.5,1.5,0,0,0-1.19.54,2,2,0,0,0-.47,1.37v3.42h-1v-6h1v1h0a2.16,2.16,0,0,1,2-1.14,1.81,1.81,0,0,1,1.5.64,2.79,2.79,0,0,1,.53,1.83Z" fill="#1e1e1e"/>
      <path d="M358.56,175.22a1.82,1.82,0,0,1-.9.19c-1.05,0-1.57-.58-1.57-1.76V170.1h-1v-.82h1v-1.46l1-.31v1.77h1.51v.82h-1.51v3.38a1.49,1.49,0,0,0,.2.87.83.83,0,0,0,.68.25,1,1,0,0,0,.63-.2Z" fill="#1e1e1e"/>
      <path d="M362.35,175.42a2.77,2.77,0,0,1-2.12-.84,3.11,3.11,0,0,1-.8-2.23,3.26,3.26,0,0,1,.83-2.36,3,3,0,0,1,2.23-.85,2.71,2.71,0,0,1,2.1.83,3.27,3.27,0,0,1,.75,2.29,3.23,3.23,0,0,1-.81,2.3A2.83,2.83,0,0,1,362.35,175.42Zm.07-5.47a1.81,1.81,0,0,0-1.46.63,2.59,2.59,0,0,0-.54,1.74A2.46,2.46,0,0,0,361,174a1.86,1.86,0,0,0,1.46.61,1.75,1.75,0,0,0,1.43-.6,2.58,2.58,0,0,0,.5-1.72,2.62,2.62,0,0,0-.5-1.73A1.73,1.73,0,0,0,362.42,170Z" fill="#1e1e1e"/>
      <path d="M372.94,175.22a1.76,1.76,0,0,1-.89.19c-1.05,0-1.58-.58-1.58-1.76V170.1h-1v-.82h1v-1.46l1-.31v1.77h1.51v.82h-1.51v3.38a1.41,1.41,0,0,0,.21.87.81.81,0,0,0,.68.25.94.94,0,0,0,.62-.2Z" fill="#1e1e1e"/>
      <path d="M379.21,175.28h-1v-3.45c0-1.25-.47-1.88-1.4-1.88a1.51,1.51,0,0,0-1.18.54,2,2,0,0,0-.48,1.39v3.4h-1V166.4h1v3.88h0a2.18,2.18,0,0,1,2-1.14c1.35,0,2,.82,2,2.45Z" fill="#1e1e1e"/>
      <path d="M385.84,172.52H381.6a2.28,2.28,0,0,0,.54,1.55,1.88,1.88,0,0,0,1.42.54,2.94,2.94,0,0,0,1.86-.66v.9a3.47,3.47,0,0,1-2.09.57,2.57,2.57,0,0,1-2-.81,3.39,3.39,0,0,1-.72-2.3,3.29,3.29,0,0,1,.79-2.29,2.58,2.58,0,0,1,2-.88,2.29,2.29,0,0,1,1.83.76,3.19,3.19,0,0,1,.64,2.12Zm-1-.81a2,2,0,0,0-.41-1.3,1.34,1.34,0,0,0-1.09-.46,1.54,1.54,0,0,0-1.16.49,2.21,2.21,0,0,0-.58,1.27Z" fill="#1e1e1e"/>
      <path d="M394.88,175.28h-1v-.93h0a2,2,0,0,1-1.84,1.07,2,2,0,0,1-1.41-.47,1.64,1.64,0,0,1-.5-1.26c0-1.12.66-1.77,2-2l1.79-.25q0-1.53-1.23-1.53a3,3,0,0,0-2,.74v-1a3.76,3.76,0,0,1,2-.56c1.41,0,2.12.75,2.12,2.24Zm-1-3-1.44.2a2.3,2.3,0,0,0-1,.33,1,1,0,0,0-.34.84.92.92,0,0,0,.31.72,1.25,1.25,0,0,0,.84.27,1.53,1.53,0,0,0,1.18-.5,1.76,1.76,0,0,0,.46-1.26Z" fill="#1e1e1e"/>
      <path d="M397.67,174.42h0V178h-1v-8.76h1v1.06h0a2.26,2.26,0,0,1,2.07-1.2,2.21,2.21,0,0,1,1.82.81,3.33,3.33,0,0,1,.65,2.16,3.73,3.73,0,0,1-.74,2.41,2.42,2.42,0,0,1-2,.9A2,2,0,0,1,397.67,174.42Zm0-2.42v.83a1.81,1.81,0,0,0,.48,1.27,1.75,1.75,0,0,0,2.6-.15,3.09,3.09,0,0,0,.49-1.86,2.41,2.41,0,0,0-.46-1.57,1.54,1.54,0,0,0-1.26-.57,1.72,1.72,0,0,0-1.34.58A2.16,2.16,0,0,0,397.65,172Z" fill="#1e1e1e"/>
      <path d="M404.73,174.42h0V178h-1v-8.76h1v1.06h0a2.26,2.26,0,0,1,2.07-1.2,2.19,2.19,0,0,1,1.81.81,3.33,3.33,0,0,1,.65,2.16,3.72,3.72,0,0,1-.73,2.41,2.46,2.46,0,0,1-2,.9A2,2,0,0,1,404.73,174.42Zm0-2.42v.83a1.77,1.77,0,0,0,.49,1.27,1.73,1.73,0,0,0,2.59-.15,3.09,3.09,0,0,0,.5-1.86,2.41,2.41,0,0,0-.47-1.57,1.52,1.52,0,0,0-1.25-.57,1.73,1.73,0,0,0-1.35.58A2.16,2.16,0,0,0,404.7,172Z" fill="#1e1e1e"/>
      <path d="M411.76,175.28h-1V166.4h1Z" fill="#1e1e1e"/>
      <path d="M414.19,167.76a.62.62,0,0,1-.44-.18.57.57,0,0,1-.18-.44.61.61,0,0,1,.18-.45.62.62,0,0,1,.44-.18.61.61,0,0,1,.45.18.58.58,0,0,1,.19.45.58.58,0,0,1-.19.44A.61.61,0,0,1,414.19,167.76Zm.47,7.52h-1v-6h1Z" fill="#1e1e1e"/>
      <path d="M420.7,175a3.19,3.19,0,0,1-1.64.41,2.68,2.68,0,0,1-2.07-.83,3,3,0,0,1-.79-2.17,3.32,3.32,0,0,1,.85-2.38,3,3,0,0,1,2.27-.9,3.09,3.09,0,0,1,1.39.3v1a2.47,2.47,0,0,0-1.43-.47,1.93,1.93,0,0,0-1.51.66,2.52,2.52,0,0,0-.59,1.73,2.41,2.41,0,0,0,.56,1.67,1.91,1.91,0,0,0,1.48.6,2.41,2.41,0,0,0,1.48-.52Z" fill="#1e1e1e"/>
      <path d="M426.45,175.28h-1v-.93h0a2,2,0,0,1-1.84,1.07,2,2,0,0,1-1.41-.47,1.64,1.64,0,0,1-.5-1.26c0-1.12.66-1.77,2-2l1.8-.25c0-1-.42-1.53-1.24-1.53a3,3,0,0,0-2,.74v-1a3.76,3.76,0,0,1,2-.56c1.41,0,2.12.75,2.12,2.24Zm-1-3-1.45.2a2.3,2.3,0,0,0-1,.33,1,1,0,0,0-.34.84.92.92,0,0,0,.31.72,1.25,1.25,0,0,0,.84.27,1.51,1.51,0,0,0,1.18-.5,1.77,1.77,0,0,0,.47-1.26Z" fill="#1e1e1e"/>
      <path d="M431,175.22a1.82,1.82,0,0,1-.9.19c-1.05,0-1.57-.58-1.57-1.76V170.1h-1v-.82h1v-1.46l1-.31v1.77H431v.82h-1.51v3.38a1.49,1.49,0,0,0,.2.87.83.83,0,0,0,.68.25,1,1,0,0,0,.63-.2Z" fill="#1e1e1e"/>
      <path d="M432.82,167.76a.59.59,0,0,1-.44-.18.55.55,0,0,1-.19-.44.63.63,0,0,1,.63-.63.6.6,0,0,1,.44.18.58.58,0,0,1,.19.45.58.58,0,0,1-.19.44A.6.6,0,0,1,432.82,167.76Zm.46,7.52h-1v-6h1Z" fill="#1e1e1e"/>
      <path d="M437.74,175.42a2.79,2.79,0,0,1-2.13-.84,3.1,3.1,0,0,1-.79-2.23,3.22,3.22,0,0,1,.83-2.36,3,3,0,0,1,2.23-.85A2.69,2.69,0,0,1,440,170a3.28,3.28,0,0,1,.76,2.29,3.23,3.23,0,0,1-.82,2.3A2.81,2.81,0,0,1,437.74,175.42Zm.07-5.47a1.84,1.84,0,0,0-1.47.63,2.59,2.59,0,0,0-.54,1.74,2.46,2.46,0,0,0,.55,1.68,1.85,1.85,0,0,0,1.46.61,1.75,1.75,0,0,0,1.43-.6,2.63,2.63,0,0,0,.5-1.72,2.68,2.68,0,0,0-.5-1.73A1.73,1.73,0,0,0,437.81,170Z" fill="#1e1e1e"/>
      <path d="M447.24,175.28h-1v-3.42c0-1.27-.46-1.91-1.39-1.91a1.54,1.54,0,0,0-1.2.54,2,2,0,0,0-.47,1.37v3.42h-1v-6h1v1h0a2.17,2.17,0,0,1,2-1.14,1.83,1.83,0,0,1,1.51.64,2.79,2.79,0,0,1,.52,1.83Z" fill="#1e1e1e"/>
      <path d="M449.39,175.41a.6.6,0,0,1-.46-.19.62.62,0,0,1-.19-.46.64.64,0,0,1,.19-.47.63.63,0,0,1,.92,0,.65.65,0,0,1,.2.47.63.63,0,0,1-.2.46A.6.6,0,0,1,449.39,175.41Z" fill="#1e1e1e"/>
    </g>
    <g>
      <path d="M38.57,141.37H36.15v7.51h-1v-7.51H32.74v-.89h5.83Z" fill="#1e1e1e"/>
      <path d="M44.74,148.88h-1v-3.45c0-1.25-.46-1.88-1.39-1.88a1.53,1.53,0,0,0-1.19.54,2,2,0,0,0-.48,1.39v3.4h-1V140h1v3.88h0a2.17,2.17,0,0,1,2-1.14c1.36,0,2,.82,2,2.45Z" fill="#1e1e1e"/>
      <path d="M51.37,146.12H47.14a2.19,2.19,0,0,0,.54,1.55,1.85,1.85,0,0,0,1.42.54,3,3,0,0,0,1.86-.66v.9a3.52,3.52,0,0,1-2.09.57,2.54,2.54,0,0,1-2-.81,3.34,3.34,0,0,1-.73-2.3,3.29,3.29,0,0,1,.8-2.29,2.56,2.56,0,0,1,2-.88,2.28,2.28,0,0,1,1.82.76,3.19,3.19,0,0,1,.64,2.12Zm-1-.81A2,2,0,0,0,50,144a1.4,1.4,0,0,0-1.1-.46,1.52,1.52,0,0,0-1.15.49,2.16,2.16,0,0,0-.59,1.27Z" fill="#1e1e1e"/>
      <path d="M61,148.88H60v-.95h0A2,2,0,0,1,58.13,149c-1.43,0-2.14-.85-2.14-2.55v-3.59h.95v3.44c0,1.26.49,1.89,1.45,1.89a1.48,1.48,0,0,0,1.16-.51,2,2,0,0,0,.46-1.36v-3.46h1Z" fill="#1e1e1e"/>
      <path d="M62.54,148.67v-1a2.84,2.84,0,0,0,1.73.58c.84,0,1.27-.28,1.27-.84a.78.78,0,0,0-.11-.41,1,1,0,0,0-.29-.29,1.83,1.83,0,0,0-.44-.23l-.53-.22a5.16,5.16,0,0,1-.7-.32,2,2,0,0,1-.51-.36,1.26,1.26,0,0,1-.3-.46,1.57,1.57,0,0,1-.11-.6,1.45,1.45,0,0,1,.2-.75,1.78,1.78,0,0,1,.51-.55,2.77,2.77,0,0,1,.74-.33,3.41,3.41,0,0,1,.85-.11,3.46,3.46,0,0,1,1.4.27v1a2.82,2.82,0,0,0-1.53-.43,1.75,1.75,0,0,0-.48.06,1.11,1.11,0,0,0-.38.18.85.85,0,0,0-.24.26.81.81,0,0,0-.08.34,1,1,0,0,0,.08.4.94.94,0,0,0,.25.28,2.11,2.11,0,0,0,.4.22l.53.22a6.21,6.21,0,0,1,.72.31,2.82,2.82,0,0,1,.54.36,1.41,1.41,0,0,1,.34.47,1.54,1.54,0,0,1,.12.63,1.41,1.41,0,0,1-.2.77,1.7,1.7,0,0,1-.52.55,2.49,2.49,0,0,1-.76.32,3.68,3.68,0,0,1-.89.1A3.54,3.54,0,0,1,62.54,148.67Z" fill="#1e1e1e"/>
      <path d="M72.82,146.12H68.58a2.28,2.28,0,0,0,.54,1.55,1.88,1.88,0,0,0,1.42.54,2.94,2.94,0,0,0,1.86-.66v.9a3.47,3.47,0,0,1-2.09.57,2.56,2.56,0,0,1-2-.81,3.39,3.39,0,0,1-.72-2.3,3.29,3.29,0,0,1,.79-2.29,2.58,2.58,0,0,1,2-.88,2.29,2.29,0,0,1,1.83.76,3.25,3.25,0,0,1,.64,2.12Zm-1-.81a2,2,0,0,0-.41-1.3,1.38,1.38,0,0,0-1.09-.46,1.54,1.54,0,0,0-1.16.49,2.15,2.15,0,0,0-.58,1.27Z" fill="#1e1e1e"/>
      <path d="M77.4,143.86a1.16,1.16,0,0,0-.72-.2,1.23,1.23,0,0,0-1,.58,2.67,2.67,0,0,0-.42,1.58v3.06h-1v-6h1v1.24h0a2.08,2.08,0,0,1,.62-1,1.49,1.49,0,0,1,1-.35,1.44,1.44,0,0,1,.57.08Z" fill="#1e1e1e"/>
      <path d="M86.55,146.12H82.32a2.19,2.19,0,0,0,.54,1.55,1.85,1.85,0,0,0,1.41.54,3,3,0,0,0,1.87-.66v.9a3.52,3.52,0,0,1-2.09.57,2.54,2.54,0,0,1-2-.81,3.34,3.34,0,0,1-.73-2.3,3.29,3.29,0,0,1,.8-2.29,2.55,2.55,0,0,1,2-.88,2.28,2.28,0,0,1,1.82.76,3.19,3.19,0,0,1,.64,2.12Zm-1-.81a2,2,0,0,0-.4-1.3,1.4,1.4,0,0,0-1.1-.46,1.52,1.52,0,0,0-1.15.49,2.16,2.16,0,0,0-.59,1.27Z" fill="#1e1e1e"/>
      <path d="M93,148.88H92v-3.42c0-1.27-.47-1.91-1.4-1.91a1.5,1.5,0,0,0-1.19.54,2,2,0,0,0-.47,1.37v3.42H88v-6h1v1h0a2.16,2.16,0,0,1,2-1.14,1.83,1.83,0,0,1,1.51.64,2.85,2.85,0,0,1,.52,1.83Z" fill="#1e1e1e"/>
      <path d="M97.58,148.82a1.8,1.8,0,0,1-.9.19c-1.05,0-1.57-.58-1.57-1.76V143.7h-1v-.82h1v-1.46l1-.31v1.77h1.51v.82H96.07v3.38a1.49,1.49,0,0,0,.2.87.83.83,0,0,0,.68.25,1,1,0,0,0,.63-.2Z" fill="#1e1e1e"/>
      <path d="M103.69,146.12H99.45a2.28,2.28,0,0,0,.54,1.55,1.87,1.87,0,0,0,1.42.54,3,3,0,0,0,1.86-.66v.9a3.5,3.5,0,0,1-2.09.57,2.56,2.56,0,0,1-2-.81,3.39,3.39,0,0,1-.73-2.3,3.29,3.29,0,0,1,.8-2.29,2.56,2.56,0,0,1,2-.88,2.27,2.27,0,0,1,1.82.76,3.2,3.2,0,0,1,.65,2.12Zm-1-.81a2,2,0,0,0-.4-1.3,1.39,1.39,0,0,0-1.1-.46,1.52,1.52,0,0,0-1.15.49,2.22,2.22,0,0,0-.59,1.27Z" fill="#1e1e1e"/>
      <path d="M108.27,143.86a1.18,1.18,0,0,0-.73-.2,1.25,1.25,0,0,0-1,.58,2.74,2.74,0,0,0-.41,1.58v3.06h-1v-6h1v1.24h0a2.17,2.17,0,0,1,.63-1,1.46,1.46,0,0,1,.94-.35,1.49,1.49,0,0,1,.58.08Z" fill="#1e1e1e"/>
      <path d="M109,148.67v-1a2.82,2.82,0,0,0,1.73.58q1.26,0,1.26-.84a.7.7,0,0,0-.11-.41,1,1,0,0,0-.29-.29,1.76,1.76,0,0,0-.43-.23l-.54-.22a5.79,5.79,0,0,1-.7-.32,2,2,0,0,1-.5-.36,1.29,1.29,0,0,1-.31-.46,1.57,1.57,0,0,1-.1-.6,1.44,1.44,0,0,1,.19-.75,1.7,1.7,0,0,1,.52-.55,2.71,2.71,0,0,1,.73-.33,3.49,3.49,0,0,1,.86-.11,3.41,3.41,0,0,1,1.39.27v1a2.78,2.78,0,0,0-1.52-.43,1.88,1.88,0,0,0-.49.06,1.06,1.06,0,0,0-.37.18.85.85,0,0,0-.24.26.69.69,0,0,0-.09.34.82.82,0,0,0,.09.4.94.94,0,0,0,.25.28,2.11,2.11,0,0,0,.4.22l.53.22a7.07,7.07,0,0,1,.72.31,2.45,2.45,0,0,1,.53.36,1.45,1.45,0,0,1,.35.47,1.54,1.54,0,0,1,.12.63,1.5,1.5,0,0,1-.2.77,1.7,1.7,0,0,1-.52.55,2.49,2.49,0,0,1-.76.32,3.71,3.71,0,0,1-.9.1A3.49,3.49,0,0,1,109,148.67Z" fill="#1e1e1e"/>
      <path d="M118.18,141.36a.6.6,0,0,1-.44-.18.57.57,0,0,1-.18-.44.61.61,0,0,1,.18-.45.6.6,0,0,1,.44-.18.61.61,0,0,1,.45.18.62.62,0,0,1,0,.89A.61.61,0,0,1,118.18,141.36Zm.47,7.52h-1v-6h1Z" fill="#1e1e1e"/>
      <path d="M125.58,148.88h-1v-3.42c0-1.27-.47-1.91-1.4-1.91a1.5,1.5,0,0,0-1.19.54,2,2,0,0,0-.47,1.37v3.42h-1v-6h1v1h0a2.16,2.16,0,0,1,2-1.14,1.83,1.83,0,0,1,1.51.64,2.85,2.85,0,0,1,.52,1.83Z" fill="#1e1e1e"/>
      <path d="M133.46,148.82a1.82,1.82,0,0,1-.9.19c-1.05,0-1.57-.58-1.57-1.76V143.7h-1v-.82h1v-1.46l1-.31v1.77h1.51v.82H132v3.38a1.41,1.41,0,0,0,.2.87.82.82,0,0,0,.68.25,1,1,0,0,0,.63-.2Z" fill="#1e1e1e"/>
      <path d="M139.72,148.88h-1v-3.45c0-1.25-.46-1.88-1.39-1.88a1.53,1.53,0,0,0-1.19.54,2,2,0,0,0-.48,1.39v3.4h-1V140h1v3.88h0a2.17,2.17,0,0,1,2-1.14c1.36,0,2,.82,2,2.45Z" fill="#1e1e1e"/>
      <path d="M146.35,146.12h-4.23a2.19,2.19,0,0,0,.54,1.55,1.85,1.85,0,0,0,1.42.54,3,3,0,0,0,1.86-.66v.9a3.52,3.52,0,0,1-2.09.57,2.54,2.54,0,0,1-2-.81,3.34,3.34,0,0,1-.73-2.3,3.29,3.29,0,0,1,.8-2.29,2.56,2.56,0,0,1,2-.88,2.28,2.28,0,0,1,1.82.76,3.19,3.19,0,0,1,.64,2.12Zm-1-.81a2,2,0,0,0-.4-1.3,1.39,1.39,0,0,0-1.1-.46,1.52,1.52,0,0,0-1.15.49,2.16,2.16,0,0,0-.59,1.27Z" fill="#1e1e1e"/>
      <path d="M148.3,141.36a.6.6,0,0,1-.44-.18.57.57,0,0,1-.18-.44.61.61,0,0,1,.18-.45.6.6,0,0,1,.44-.18.62.62,0,0,1,.63.63.6.6,0,0,1-.18.44A.61.61,0,0,1,148.3,141.36Zm.47,7.52h-1v-6h1Z" fill="#1e1e1e"/>
      <path d="M153.84,143.86a1.14,1.14,0,0,0-.72-.2,1.24,1.24,0,0,0-1,.58,2.67,2.67,0,0,0-.41,1.58v3.06h-1v-6h1v1.24h0a2.09,2.09,0,0,1,.63-1,1.61,1.61,0,0,1,1.51-.27Z" fill="#1e1e1e"/>
      <path d="M33.4,162.08h-1v-1h0a2,2,0,0,1-1.86,1.09c-1.42,0-2.14-.85-2.14-2.55v-3.59h1v3.44c0,1.26.48,1.9,1.45,1.9A1.5,1.5,0,0,0,32,160.9a2,2,0,0,0,.45-1.36v-3.46h1Z" fill="#1e1e1e"/>
      <path d="M35,161.87v-1a2.83,2.83,0,0,0,1.73.59c.84,0,1.26-.29,1.26-.85a.78.78,0,0,0-.11-.41,1,1,0,0,0-.29-.29,2.18,2.18,0,0,0-.43-.23l-.54-.22a5.16,5.16,0,0,1-.7-.32,1.74,1.74,0,0,1-.5-.36,1.29,1.29,0,0,1-.31-.46,1.57,1.57,0,0,1-.1-.6,1.44,1.44,0,0,1,.19-.75,1.7,1.7,0,0,1,.52-.55,2.71,2.71,0,0,1,.73-.33,3.49,3.49,0,0,1,.86-.11,3.41,3.41,0,0,1,1.39.27v1a2.78,2.78,0,0,0-1.52-.43,1.83,1.83,0,0,0-.49.06,1.06,1.06,0,0,0-.37.18.66.66,0,0,0-.24.26.69.69,0,0,0-.09.34.78.78,0,0,0,.34.68,2.11,2.11,0,0,0,.4.22l.53.22A6.85,6.85,0,0,1,38,159a2.82,2.82,0,0,1,.54.36,1.45,1.45,0,0,1,.35.47,1.54,1.54,0,0,1,.12.63,1.5,1.5,0,0,1-.2.77,1.74,1.74,0,0,1-.53.55,2.43,2.43,0,0,1-.75.32,3.82,3.82,0,0,1-.9.1A3.49,3.49,0,0,1,35,161.87Z" fill="#1e1e1e"/>
      <path d="M45.25,159.32H41a2.19,2.19,0,0,0,.54,1.55,1.85,1.85,0,0,0,1.41.55,3,3,0,0,0,1.87-.67v.9a3.52,3.52,0,0,1-2.09.57,2.54,2.54,0,0,1-2-.81,3.34,3.34,0,0,1-.73-2.3,3.29,3.29,0,0,1,.8-2.29,2.56,2.56,0,0,1,2-.88,2.28,2.28,0,0,1,1.82.76,3.19,3.19,0,0,1,.64,2.12Zm-1-.81a2,2,0,0,0-.4-1.3,1.4,1.4,0,0,0-1.1-.46,1.52,1.52,0,0,0-1.15.49,2.16,2.16,0,0,0-.59,1.27Z" fill="#1e1e1e"/>
      <path d="M49.84,157.06a1.18,1.18,0,0,0-.73-.2,1.25,1.25,0,0,0-1,.58,2.74,2.74,0,0,0-.41,1.58v3.06h-1v-6h1v1.24h0a2.17,2.17,0,0,1,.63-1,1.44,1.44,0,0,1,.94-.35,1.52,1.52,0,0,1,.58.08Z" fill="#1e1e1e"/>
      <path d="M55.86,162.08h-1v-3.42c0-1.27-.47-1.91-1.4-1.91a1.52,1.52,0,0,0-1.19.54,2,2,0,0,0-.47,1.37v3.42h-1v-6h1v1h0a2.17,2.17,0,0,1,2-1.14,1.83,1.83,0,0,1,1.51.64,2.8,2.8,0,0,1,.52,1.84Z" fill="#1e1e1e"/>
      <path d="M62,162.08H61v-.93h0a2,2,0,0,1-1.84,1.07,2,2,0,0,1-1.41-.47,1.65,1.65,0,0,1-.51-1.26c0-1.12.67-1.77,2-2l1.79-.25q0-1.53-1.23-1.53a3,3,0,0,0-2,.74v-1a3.76,3.76,0,0,1,2-.56c1.41,0,2.12.75,2.12,2.24Zm-1-3-1.44.2a2.3,2.3,0,0,0-1,.33,1,1,0,0,0-.34.84.92.92,0,0,0,.31.72,1.25,1.25,0,0,0,.84.28,1.54,1.54,0,0,0,1.18-.51,1.76,1.76,0,0,0,.46-1.26Z" fill="#1e1e1e"/>
      <path d="M72.3,162.08h-1v-3.44a2.62,2.62,0,0,0-.3-1.44,1.17,1.17,0,0,0-1-.45,1.27,1.27,0,0,0-1,.56,2.16,2.16,0,0,0-.43,1.35v3.42h-1v-3.56c0-1.18-.46-1.77-1.37-1.77a1.27,1.27,0,0,0-1,.53,2.14,2.14,0,0,0-.41,1.38v3.42h-1v-6h1V157h0a2.06,2.06,0,0,1,1.86-1.09,1.77,1.77,0,0,1,1.08.35,1.67,1.67,0,0,1,.62.89,2.16,2.16,0,0,1,2-1.24c1.33,0,2,.82,2,2.45Z" fill="#1e1e1e"/>
      <path d="M78.93,159.32H74.7a2.19,2.19,0,0,0,.54,1.55,1.85,1.85,0,0,0,1.41.55,3,3,0,0,0,1.87-.67v.9a3.52,3.52,0,0,1-2.09.57,2.54,2.54,0,0,1-2-.81,3.34,3.34,0,0,1-.73-2.3,3.29,3.29,0,0,1,.8-2.29,2.55,2.55,0,0,1,2-.88,2.28,2.28,0,0,1,1.82.76,3.19,3.19,0,0,1,.64,2.12Zm-1-.81a2,2,0,0,0-.4-1.3,1.4,1.4,0,0,0-1.1-.46,1.52,1.52,0,0,0-1.15.49,2.16,2.16,0,0,0-.59,1.27Z" fill="#1e1e1e"/>
      <path d="M88,162.08H87v-.93h0a2,2,0,0,1-1.84,1.07,1.93,1.93,0,0,1-1.4-.47,1.65,1.65,0,0,1-.51-1.26c0-1.12.66-1.77,2-2l1.8-.25c0-1-.41-1.53-1.24-1.53a3,3,0,0,0-2,.74v-1a3.76,3.76,0,0,1,2-.56c1.41,0,2.12.75,2.12,2.24Zm-1-3-1.45.2a2.35,2.35,0,0,0-1,.33,1,1,0,0,0-.34.84.93.93,0,0,0,.32.72,1.22,1.22,0,0,0,.83.28,1.52,1.52,0,0,0,1.18-.51,1.77,1.77,0,0,0,.47-1.26Z" fill="#1e1e1e"/>
      <path d="M94.76,162.08h-1v-3.42c0-1.27-.47-1.91-1.4-1.91a1.52,1.52,0,0,0-1.19.54,2,2,0,0,0-.47,1.37v3.42h-1v-6h1v1h0a2.17,2.17,0,0,1,2-1.14,1.83,1.83,0,0,1,1.51.64,2.8,2.8,0,0,1,.52,1.84Z" fill="#1e1e1e"/>
      <path d="M101.69,162.08h-1v-1h0a2.43,2.43,0,0,1-3.87.36,3.33,3.33,0,0,1-.68-2.2,3.59,3.59,0,0,1,.75-2.38,2.48,2.48,0,0,1,2-.9,1.94,1.94,0,0,1,1.8,1h0V153.2h1Zm-1-2.71v-.88a1.74,1.74,0,0,0-.48-1.24,1.64,1.64,0,0,0-1.22-.5,1.66,1.66,0,0,0-1.38.65,2.79,2.79,0,0,0-.51,1.78,2.53,2.53,0,0,0,.49,1.63,1.58,1.58,0,0,0,1.3.61,1.63,1.63,0,0,0,1.3-.59A2.16,2.16,0,0,0,100.73,159.37Z" fill="#1e1e1e"/>
      <path d="M107.91,161.22h0v3.62h-1v-8.76h1v1.06h0a2.26,2.26,0,0,1,2.07-1.2,2.18,2.18,0,0,1,1.81.81,3.29,3.29,0,0,1,.65,2.16,3.72,3.72,0,0,1-.73,2.41,2.44,2.44,0,0,1-2,.9A2,2,0,0,1,107.91,161.22Zm0-2.42v.83a1.81,1.81,0,0,0,.48,1.27,1.72,1.72,0,0,0,2.59-.15,3.09,3.09,0,0,0,.5-1.86,2.41,2.41,0,0,0-.46-1.57,1.54,1.54,0,0,0-1.26-.57,1.73,1.73,0,0,0-1.35.58A2.2,2.2,0,0,0,107.89,158.8Z" fill="#1e1e1e"/>
      <path d="M118.27,162.08h-1v-.93h0a2,2,0,0,1-1.85,1.07,2,2,0,0,1-1.4-.47,1.65,1.65,0,0,1-.51-1.26c0-1.12.66-1.77,2-2l1.8-.25q0-1.53-1.23-1.53a3,3,0,0,0-2,.74v-1a3.76,3.76,0,0,1,2-.56c1.41,0,2.11.75,2.11,2.24Zm-1-3-1.44.2a2.25,2.25,0,0,0-1,.33,1,1,0,0,0-.34.84.92.92,0,0,0,.31.72,1.25,1.25,0,0,0,.84.28,1.54,1.54,0,0,0,1.18-.51,1.76,1.76,0,0,0,.46-1.26Z" fill="#1e1e1e"/>
      <path d="M119.72,161.87v-1a2.83,2.83,0,0,0,1.73.59c.84,0,1.27-.29,1.27-.85a.78.78,0,0,0-.11-.41,1,1,0,0,0-.3-.29,1.93,1.93,0,0,0-.43-.23l-.54-.22a6.6,6.6,0,0,1-.7-.32,1.74,1.74,0,0,1-.5-.36,1.26,1.26,0,0,1-.3-.46,1.57,1.57,0,0,1-.11-.6,1.45,1.45,0,0,1,.2-.75,1.78,1.78,0,0,1,.51-.55,2.77,2.77,0,0,1,.74-.33,3.56,3.56,0,0,1,2.24.16v1a2.78,2.78,0,0,0-1.52-.43,1.88,1.88,0,0,0-.49.06,1.16,1.16,0,0,0-.37.18.85.85,0,0,0-.24.26.81.81,0,0,0-.08.34,1,1,0,0,0,.08.4.94.94,0,0,0,.25.28,2.11,2.11,0,0,0,.4.22l.53.22a6.21,6.21,0,0,1,.72.31,2.82,2.82,0,0,1,.54.36,1.41,1.41,0,0,1,.34.47,1.54,1.54,0,0,1,.12.63,1.5,1.5,0,0,1-.2.77,1.7,1.7,0,0,1-.52.55,2.49,2.49,0,0,1-.76.32,3.68,3.68,0,0,1-.89.1A3.51,3.51,0,0,1,119.72,161.87Z" fill="#1e1e1e"/>
      <path d="M124.81,161.87v-1a2.85,2.85,0,0,0,1.73.59c.85,0,1.27-.29,1.27-.85a.78.78,0,0,0-.11-.41,1,1,0,0,0-.29-.29,2.27,2.27,0,0,0-.44-.23l-.53-.22a5.16,5.16,0,0,1-.7-.32,1.79,1.79,0,0,1-.51-.36,1.41,1.41,0,0,1-.3-.46,1.57,1.57,0,0,1-.11-.6,1.45,1.45,0,0,1,.2-.75,1.78,1.78,0,0,1,.51-.55,2.77,2.77,0,0,1,.74-.33,3.41,3.41,0,0,1,.85-.11,3.46,3.46,0,0,1,1.4.27v1a2.82,2.82,0,0,0-1.53-.43,1.75,1.75,0,0,0-.48.06,1.11,1.11,0,0,0-.38.18.85.85,0,0,0-.24.26.81.81,0,0,0-.08.34,1,1,0,0,0,.08.4.94.94,0,0,0,.25.28,2.48,2.48,0,0,0,.4.22l.53.22a6.21,6.21,0,0,1,.72.31,2.82,2.82,0,0,1,.54.36,1.41,1.41,0,0,1,.34.47,1.54,1.54,0,0,1,.12.63,1.49,1.49,0,0,1-.19.77,1.85,1.85,0,0,1-.53.55,2.49,2.49,0,0,1-.76.32,3.68,3.68,0,0,1-.89.1A3.54,3.54,0,0,1,124.81,161.87Z" fill="#1e1e1e"/>
      <path d="M137.83,156.08l-1.8,6h-1l-1.23-4.29a3,3,0,0,1-.1-.56h0a2.64,2.64,0,0,1-.12.55l-1.35,4.3h-1l-1.81-6h1l1.25,4.51a4.55,4.55,0,0,1,.08.54h0a3.14,3.14,0,0,1,.11-.55l1.38-4.5h.88l1.24,4.53a3,3,0,0,1,.09.54h.05a2.4,2.4,0,0,1,.1-.54l1.22-4.53Z" fill="#1e1e1e"/>
      <path d="M141.45,162.22a2.79,2.79,0,0,1-2.13-.84,3.1,3.1,0,0,1-.79-2.23,3.26,3.26,0,0,1,.83-2.36,3,3,0,0,1,2.23-.85,2.69,2.69,0,0,1,2.09.83,3.28,3.28,0,0,1,.76,2.29,3.19,3.19,0,0,1-.82,2.3A2.81,2.81,0,0,1,141.45,162.22Zm.07-5.47a1.84,1.84,0,0,0-1.47.63,2.59,2.59,0,0,0-.54,1.74,2.46,2.46,0,0,0,.55,1.68,1.85,1.85,0,0,0,1.46.62,1.76,1.76,0,0,0,1.43-.61,2.63,2.63,0,0,0,.5-1.72,2.68,2.68,0,0,0-.5-1.73A1.73,1.73,0,0,0,141.52,156.75Z" fill="#1e1e1e"/>
      <path d="M149.1,157.06a1.18,1.18,0,0,0-.73-.2,1.22,1.22,0,0,0-1,.58,2.67,2.67,0,0,0-.42,1.58v3.06h-1v-6h1v1.24h0a2.08,2.08,0,0,1,.62-1,1.47,1.47,0,0,1,.95-.35,1.44,1.44,0,0,1,.57.08Z" fill="#1e1e1e"/>
      <path d="M155.26,162.08h-1v-1h0a2.43,2.43,0,0,1-3.87.36,3.33,3.33,0,0,1-.68-2.2,3.59,3.59,0,0,1,.75-2.38,2.48,2.48,0,0,1,2-.9,1.93,1.93,0,0,1,1.8,1h0V153.2h1Zm-1-2.71v-.88a1.74,1.74,0,0,0-.48-1.24,1.62,1.62,0,0,0-1.22-.5,1.67,1.67,0,0,0-1.38.65,2.85,2.85,0,0,0-.5,1.78,2.53,2.53,0,0,0,.48,1.63,1.59,1.59,0,0,0,1.3.61,1.63,1.63,0,0,0,1.3-.59A2.11,2.11,0,0,0,154.3,159.37Z" fill="#1e1e1e"/>
      <path d="M157.54,162.21a.62.62,0,0,1-.46-.19.66.66,0,0,1-.19-.46.68.68,0,0,1,.19-.47.64.64,0,0,1,.93,0,.65.65,0,0,1,.2.47.67.67,0,0,1-.67.65Z" fill="#1e1e1e"/>
    </g>
    <g>
      <path d="M55.66,49.25q0,3.54-3.19,3.54c-2,0-3.06-1.14-3.06-3.4V44.25h1v5.07c0,1.72.73,2.58,2.18,2.58s2.11-.83,2.11-2.49V44.25h1Z" fill="#3b3b3b"/>
      <path d="M57.27,52.43v-1A2.81,2.81,0,0,0,59,52c.85,0,1.27-.28,1.27-.84a.76.76,0,0,0-.11-.41,1.17,1.17,0,0,0-.29-.3,2.86,2.86,0,0,0-.43-.23L58.89,50a6.76,6.76,0,0,1-.7-.32,2.22,2.22,0,0,1-.5-.36,1.38,1.38,0,0,1-.31-.46,1.66,1.66,0,0,1-.1-.61,1.38,1.38,0,0,1,.19-.74A1.7,1.7,0,0,1,58,47a2.21,2.21,0,0,1,.73-.33,3.49,3.49,0,0,1,.86-.11,3.45,3.45,0,0,1,1.39.27v1a2.7,2.7,0,0,0-1.52-.43,1.83,1.83,0,0,0-.49.06,1.26,1.26,0,0,0-.37.17.68.68,0,0,0-.24.27.67.67,0,0,0-.09.34.75.75,0,0,0,.09.39.74.74,0,0,0,.25.28,1.82,1.82,0,0,0,.39.23l.54.21c.26.11.5.21.71.32a2.42,2.42,0,0,1,.54.36,1.41,1.41,0,0,1,.34.47,1.46,1.46,0,0,1,.12.62,1.5,1.5,0,0,1-.19.78,1.61,1.61,0,0,1-.53.54,2.21,2.21,0,0,1-.75.32,3.82,3.82,0,0,1-.9.11A3.34,3.34,0,0,1,57.27,52.43Z" fill="#3b3b3b"/>
      <path d="M67.54,49.89H63.31a2.21,2.21,0,0,0,.54,1.55,1.85,1.85,0,0,0,1.41.54,2.94,2.94,0,0,0,1.87-.67v.91a3.52,3.52,0,0,1-2.09.57A2.52,2.52,0,0,1,63,52a3.81,3.81,0,0,1,.07-4.58,2.51,2.51,0,0,1,2-.88,2.25,2.25,0,0,1,1.82.76,3.18,3.18,0,0,1,.64,2.12Zm-1-.82a2,2,0,0,0-.4-1.29,1.37,1.37,0,0,0-1.1-.46,1.55,1.55,0,0,0-1.15.48,2.19,2.19,0,0,0-.59,1.27Z" fill="#3b3b3b"/>
      <path d="M72.13,47.62a1.18,1.18,0,0,0-.73-.19,1.23,1.23,0,0,0-1,.58A2.72,2.72,0,0,0,70,49.59v3.06H69v-6h1v1.24h0a2.07,2.07,0,0,1,.63-1,1.4,1.4,0,0,1,.94-.36,1.5,1.5,0,0,1,.58.09Z" fill="#3b3b3b"/>
      <path d="M78.15,52.65h-1V49.23c0-1.28-.47-1.91-1.4-1.91a1.52,1.52,0,0,0-1.19.54,2,2,0,0,0-.47,1.37v3.42h-1v-6h1v1h0a2.17,2.17,0,0,1,2-1.14,1.85,1.85,0,0,1,1.51.63A2.84,2.84,0,0,1,78.15,49Z" fill="#3b3b3b"/>
      <path d="M84.25,52.65h-1v-.94h0a2,2,0,0,1-1.85,1.08,2,2,0,0,1-1.4-.48,1.61,1.61,0,0,1-.51-1.25c0-1.13.66-1.78,2-2l1.8-.25q0-1.53-1.23-1.53a2.91,2.91,0,0,0-2,.74v-1a3.76,3.76,0,0,1,2-.56c1.41,0,2.11.74,2.11,2.24Zm-1-3-1.44.2a2.59,2.59,0,0,0-1,.33,1,1,0,0,0-.34.84.9.9,0,0,0,.31.72,1.2,1.2,0,0,0,.84.28,1.56,1.56,0,0,0,1.18-.5,1.79,1.79,0,0,0,.46-1.27Z" fill="#3b3b3b"/>
      <path d="M94.58,52.65h-1V49.2a2.66,2.66,0,0,0-.3-1.44,1.19,1.19,0,0,0-1-.44,1.25,1.25,0,0,0-1,.56,2.12,2.12,0,0,0-.43,1.35v3.42h-1V49.09c0-1.18-.45-1.77-1.36-1.77a1.24,1.24,0,0,0-1,.53A2.14,2.14,0,0,0,87,49.23v3.42h-1v-6h1v1h0a2,2,0,0,1,1.86-1.09,1.76,1.76,0,0,1,1.08.34,1.73,1.73,0,0,1,.62.9,2.14,2.14,0,0,1,2-1.24c1.32,0,2,.81,2,2.44Z" fill="#3b3b3b"/>
      <path d="M101.22,49.89H97a2.21,2.21,0,0,0,.54,1.55,1.85,1.85,0,0,0,1.41.54,2.94,2.94,0,0,0,1.87-.67v.91a3.52,3.52,0,0,1-2.09.57,2.52,2.52,0,0,1-2-.82,3.81,3.81,0,0,1,.07-4.58,2.51,2.51,0,0,1,2-.88,2.25,2.25,0,0,1,1.82.76,3.18,3.18,0,0,1,.64,2.12Zm-1-.82a2,2,0,0,0-.4-1.29,1.37,1.37,0,0,0-1.1-.46,1.59,1.59,0,0,0-1.16.48A2.24,2.24,0,0,0,97,49.07Z" fill="#3b3b3b"/>
    </g>
    <g>
      <path d="M374.22,54h-4.46V45.6H374v.89h-3.28v2.79h3v.89h-3v2.94h3.47Z"/>
      <path d="M380.68,54h-1V50.58c0-1.28-.46-1.91-1.39-1.91a1.5,1.5,0,0,0-1.19.54,2,2,0,0,0-.48,1.37V54h-1V48h1v1h0a2.16,2.16,0,0,1,2-1.14,1.81,1.81,0,0,1,1.5.64,2.79,2.79,0,0,1,.52,1.83Z"/>
      <path d="M385.28,53.94a1.82,1.82,0,0,1-.9.19c-1.05,0-1.57-.59-1.57-1.76V48.82h-1V48h1V46.54l1-.32V48h1.51v.82h-1.51V52.2a1.38,1.38,0,0,0,.2.86.83.83,0,0,0,.68.26,1.05,1.05,0,0,0,.63-.2Z"/>
      <path d="M391.38,51.24h-4.23a2.21,2.21,0,0,0,.54,1.55,1.85,1.85,0,0,0,1.41.54,2.94,2.94,0,0,0,1.87-.67v.91a3.52,3.52,0,0,1-2.09.57,2.52,2.52,0,0,1-2-.82,3.81,3.81,0,0,1,.07-4.58,2.51,2.51,0,0,1,2-.88,2.25,2.25,0,0,1,1.82.76,3.18,3.18,0,0,1,.64,2.12Zm-1-.81a2,2,0,0,0-.4-1.3,1.37,1.37,0,0,0-1.1-.46,1.59,1.59,0,0,0-1.16.48,2.24,2.24,0,0,0-.58,1.28Z"/>
      <path d="M396,49a1.18,1.18,0,0,0-.73-.19,1.23,1.23,0,0,0-1,.58,2.72,2.72,0,0,0-.41,1.58V54h-1V48h1v1.24h0a2.12,2.12,0,0,1,.63-1,1.4,1.4,0,0,1,.94-.36A1.5,1.5,0,0,1,396,48Z"/>
      <path d="M406.14,53.65a4.89,4.89,0,0,1-2.32.49A3.74,3.74,0,0,1,401,53a4.26,4.26,0,0,1-1.08-3,4.46,4.46,0,0,1,1.22-3.26,4.1,4.1,0,0,1,3.07-1.24,4.92,4.92,0,0,1,2,.34v1.05a4.05,4.05,0,0,0-2-.5,3.08,3.08,0,0,0-2.35,1,3.66,3.66,0,0,0-.89,2.59,3.44,3.44,0,0,0,.84,2.44,2.85,2.85,0,0,0,2.2.92,4.06,4.06,0,0,0,2.19-.57Z"/>
      <path d="M410.23,54.14a2.79,2.79,0,0,1-2.12-.84,3.1,3.1,0,0,1-.79-2.23,3.24,3.24,0,0,1,.82-2.36,3,3,0,0,1,2.23-.85,2.66,2.66,0,0,1,2.1.83,3.77,3.77,0,0,1-.06,4.59A2.87,2.87,0,0,1,410.23,54.14Zm.07-5.47a1.83,1.83,0,0,0-1.46.63A2.59,2.59,0,0,0,408.3,51a2.46,2.46,0,0,0,.54,1.68,1.86,1.86,0,0,0,1.46.61,1.79,1.79,0,0,0,1.44-.6,3.23,3.23,0,0,0,0-3.45A1.76,1.76,0,0,0,410.3,48.67Z"/>
      <path d="M419.88,54h-1V53h0a2.21,2.21,0,0,1-2.06,1.16,2.24,2.24,0,0,1-1.81-.81,3.28,3.28,0,0,1-.67-2.19,3.57,3.57,0,0,1,.75-2.38,2.46,2.46,0,0,1,2-.9,1.91,1.91,0,0,1,1.8,1h0V45.12h1Zm-1-2.71V50.4a1.73,1.73,0,0,0-.48-1.23,1.64,1.64,0,0,0-1.22-.5,1.67,1.67,0,0,0-1.39.64,2.87,2.87,0,0,0-.5,1.78,2.54,2.54,0,0,0,.48,1.64,1.6,1.6,0,0,0,1.3.6,1.65,1.65,0,0,0,1.31-.58A2.16,2.16,0,0,0,418.92,51.29Z"/>
      <path d="M426.65,51.24h-4.24a2.21,2.21,0,0,0,.54,1.55,1.85,1.85,0,0,0,1.42.54,2.93,2.93,0,0,0,1.86-.67v.91a3.52,3.52,0,0,1-2.09.57,2.52,2.52,0,0,1-2-.82,3.36,3.36,0,0,1-.73-2.3,3.29,3.29,0,0,1,.8-2.28,2.53,2.53,0,0,1,2-.88,2.25,2.25,0,0,1,1.82.76,3.18,3.18,0,0,1,.65,2.12Zm-1-.81a2,2,0,0,0-.4-1.3,1.36,1.36,0,0,0-1.1-.46,1.55,1.55,0,0,0-1.15.48,2.19,2.19,0,0,0-.59,1.28Z"/>
    </g>
    <g>
      <path d="M81.32,110.2H77v-8.4h1v7.51h3.37Z" fill="#fff"/>
      <path d="M85.59,110.34a3.69,3.69,0,0,1-2.86-1.17,4.38,4.38,0,0,1-1.08-3.07,4.62,4.62,0,0,1,1.1-3.23,3.8,3.8,0,0,1,3-1.21,3.59,3.59,0,0,1,2.8,1.17,4.38,4.38,0,0,1,1.07,3.07,4.68,4.68,0,0,1-1.09,3.25A3.78,3.78,0,0,1,85.59,110.34Zm.07-7.79a2.7,2.7,0,0,0-2.15,1,4.22,4.22,0,0,0,0,5,2.64,2.64,0,0,0,2.1.95,2.76,2.76,0,0,0,2.18-.9,3.73,3.73,0,0,0,.8-2.53,3.81,3.81,0,0,0-.78-2.57A2.62,2.62,0,0,0,85.66,102.55Z" fill="#fff"/>
      <path d="M97.53,109.63a5.67,5.67,0,0,1-2.81.71,3.82,3.82,0,0,1-2.91-1.16,4.24,4.24,0,0,1-1.11-3.07,4.37,4.37,0,0,1,1.23-3.2,4.24,4.24,0,0,1,3.13-1.25,5.42,5.42,0,0,1,2.3.44v1.09a4.49,4.49,0,0,0-2.41-.64,3,3,0,0,0-2.32,1,4.07,4.07,0,0,0-.06,5,3,3,0,0,0,2.27.91,3.54,3.54,0,0,0,1.71-.39v-2.36H94.71v-.89h2.82Z" fill="#fff"/>
      <path d="M100.47,110.2h-1v-8.4h1Z" fill="#fff"/>
      <path d="M109.45,110.2h-1.21l-4.32-6.69a2.94,2.94,0,0,1-.27-.53h0a8.6,8.6,0,0,1,0,1.15v6.07h-1v-8.4H104l4.21,6.59c.18.28.29.46.34.56h0a9,9,0,0,1,0-1.23V101.8h1Z" fill="#fff"/>
    </g>
    <g>
      <path d="M231,107.49a2.87,2.87,0,0,1-.21,1.12,2.43,2.43,0,0,1-.6.85,2.65,2.65,0,0,1-.94.55,3.69,3.69,0,0,1-1.23.2,3.44,3.44,0,0,1-1.74-.35v-1a3.3,3.3,0,0,0,1.76.55,2.35,2.35,0,0,0,.82-.14,1.83,1.83,0,0,0,.62-.37,1.55,1.55,0,0,0,.4-.58,2,2,0,0,0,.14-.75,1.61,1.61,0,0,0-.55-1.28,2.42,2.42,0,0,0-1.6-.47h-.74l-.36,0-.33,0,.29-4.21h3.88v.87h-3.05l-.17,2.46.4,0h.38a3.67,3.67,0,0,1,1.19.18,2.49,2.49,0,0,1,.89.5,2.07,2.07,0,0,1,.56.8A2.69,2.69,0,0,1,231,107.49Z" fill="#fff"/>
      <path d="M237.75,107.39a3.25,3.25,0,0,1-.2,1.14,2.62,2.62,0,0,1-.55.89,2.38,2.38,0,0,1-.84.58,2.59,2.59,0,0,1-1,.21,2.4,2.4,0,0,1-1.14-.27,2.45,2.45,0,0,1-.85-.76,3.85,3.85,0,0,1-.53-1.21,6.55,6.55,0,0,1-.18-1.61,7.28,7.28,0,0,1,.25-2,4.88,4.88,0,0,1,.69-1.53,3.24,3.24,0,0,1,1.08-1,2.88,2.88,0,0,1,1.41-.34,3.45,3.45,0,0,1,1.4.24v.91a2.93,2.93,0,0,0-1.38-.34,2.13,2.13,0,0,0-1,.25,2.29,2.29,0,0,0-.77.72,3.34,3.34,0,0,0-.5,1.11,5.8,5.8,0,0,0-.17,1.44h0a2,2,0,0,1,1.92-1,2.57,2.57,0,0,1,1,.19,2.17,2.17,0,0,1,.76.53,2.31,2.31,0,0,1,.48.82A3.21,3.21,0,0,1,237.75,107.39Zm-1,.13a2.69,2.69,0,0,0-.11-.79,1.9,1.9,0,0,0-.32-.6,1.33,1.33,0,0,0-.52-.38,1.67,1.67,0,0,0-.69-.13,1.59,1.59,0,0,0-.66.13,1.8,1.8,0,0,0-.53.37,1.68,1.68,0,0,0-.35.54,1.75,1.75,0,0,0-.12.65,2.64,2.64,0,0,0,.12.81,1.89,1.89,0,0,0,.35.66,1.54,1.54,0,0,0,.53.45,1.51,1.51,0,0,0,.68.16,1.59,1.59,0,0,0,.66-.14,1.48,1.48,0,0,0,.51-.38,2,2,0,0,0,.33-.59A2.33,2.33,0,0,0,236.77,107.52Z" fill="#fff"/>
      <path d="M243.21,101.66v5.55h1.08v.88h-1.08v2h-1v-2h-3.95v-.84c.37-.41.74-.85,1.12-1.32s.73-1,1.07-1.44.66-1,.95-1.45a13.52,13.52,0,0,0,.74-1.38Zm-3.81,5.55h2.86v-4.12c-.29.52-.57,1-.83,1.37s-.51.77-.75,1.1-.46.63-.67.89Z" fill="#fff"/>
      <path d="M245.23,107.72a2.18,2.18,0,0,1,.1-.67,2.29,2.29,0,0,1,.3-.63,2.79,2.79,0,0,1,.49-.54,2.37,2.37,0,0,1,.66-.38,2.52,2.52,0,0,1-.87-.78,1.89,1.89,0,0,1-.32-1.06,2.07,2.07,0,0,1,.67-1.53,2.58,2.58,0,0,1,.75-.45,2.87,2.87,0,0,1,1.89,0,2.58,2.58,0,0,1,.75.45,2.08,2.08,0,0,1,.49.68,2.19,2.19,0,0,1,.17.85,1.81,1.81,0,0,1-.32,1.06,2.46,2.46,0,0,1-.85.78,2.64,2.64,0,0,1,.65.38,2.45,2.45,0,0,1,.48.54,2.29,2.29,0,0,1,.3.63,2.19,2.19,0,0,1,.11.67,2.51,2.51,0,0,1-.2,1,2.36,2.36,0,0,1-.56.79,2.7,2.7,0,0,1-.86.5,3.31,3.31,0,0,1-1.11.19,3.15,3.15,0,0,1-1.09-.19,2.75,2.75,0,0,1-.87-.5,2.23,2.23,0,0,1-.56-.79A2.35,2.35,0,0,1,245.23,107.72Zm1-.09a2,2,0,0,0,.12.71,1.5,1.5,0,0,0,.34.54,1.49,1.49,0,0,0,.53.35,1.94,1.94,0,0,0,.7.12,1.91,1.91,0,0,0,.68-.13,1.55,1.55,0,0,0,.53-.34,1.7,1.7,0,0,0,.36-.54,2,2,0,0,0,.12-.71,1.75,1.75,0,0,0-.12-.65,1.64,1.64,0,0,0-.34-.55,1.8,1.8,0,0,0-.53-.37,1.75,1.75,0,0,0-.7-.13,1.63,1.63,0,0,0-.67.13,1.53,1.53,0,0,0-.54.35,1.74,1.74,0,0,0-.48,1.22Zm.3-3.89a1.42,1.42,0,0,0,.11.55,1.37,1.37,0,0,0,.3.45,1.55,1.55,0,0,0,.44.3,1.4,1.4,0,0,0,.54.1,1.24,1.24,0,0,0,.54-.11,1.23,1.23,0,0,0,.44-.3,1.32,1.32,0,0,0,.3-.44,1.29,1.29,0,0,0,.11-.55,1.3,1.3,0,0,0-.11-.56,1.39,1.39,0,0,0-.29-.45,1.71,1.71,0,0,0-.44-.3,1.45,1.45,0,0,0-.55-.1,1.37,1.37,0,0,0-1,.41,1.48,1.48,0,0,0-.28.45A1.42,1.42,0,0,0,246.57,103.74Z" fill="#fff"/>
      <path d="M257.09,102.21c-.13.23-.29.5-.47.84s-.37.7-.58,1.12-.41.86-.62,1.33-.41,1-.59,1.48-.34,1-.48,1.54a11,11,0,0,0-.3,1.54h-1a11,11,0,0,1,.33-1.53c.15-.52.31-1,.5-1.54s.38-1,.59-1.45.4-.89.6-1.28.37-.74.54-1,.29-.54.39-.7h-4.22v-.87h5.35Z" fill="#fff"/>
      <path d="M262.16,103.86a1.71,1.71,0,0,0-.12-.67,1.37,1.37,0,0,0-.33-.48,1.26,1.26,0,0,0-.49-.28,1.7,1.7,0,0,0-.61-.1,2.09,2.09,0,0,0-.55.08,2.57,2.57,0,0,0-.52.21,3.17,3.17,0,0,0-.49.32,4.47,4.47,0,0,0-.45.42v-1a2.67,2.67,0,0,1,.91-.6,3.14,3.14,0,0,1,1.22-.21,3,3,0,0,1,1,.15,2.27,2.27,0,0,1,.76.43,2,2,0,0,1,.5.71,2.3,2.3,0,0,1,.19,1,3.58,3.58,0,0,1-.11.9,2.92,2.92,0,0,1-.35.76,3.67,3.67,0,0,1-.58.69,8.92,8.92,0,0,1-.83.67l-1,.72a4.17,4.17,0,0,0-.6.56,1.53,1.53,0,0,0-.32.52,1.8,1.8,0,0,0-.09.6h4.18v.86h-5.18v-.42a3.79,3.79,0,0,1,.11-.94,2.38,2.38,0,0,1,.39-.78,4.07,4.07,0,0,1,.71-.74,13.13,13.13,0,0,1,1.07-.83,6.69,6.69,0,0,0,.76-.63,3.31,3.31,0,0,0,.5-.6,2.16,2.16,0,0,0,.26-.61A2.69,2.69,0,0,0,262.16,103.86Z" fill="#fff"/>
    </g>
  </g>
</svg>
