<?xml version="1.0" encoding="UTF-8"?>
<svg width="399px" height="139px" viewBox="0 0 399 139" version="1.1" xmlns="http://www.w3.org/2000/svg" xmlns:xlink="http://www.w3.org/1999/xlink">
    <!-- Generator: Sketch 51.2 (57519) - http://www.bohemiancoding.com/sketch -->
    <title>4-network-security-zones</title>
    <desc>Created with Sketch.</desc>
    <defs>
        <linearGradient x1="50.0211506%" y1="100.007451%" x2="50.0211506%" y2="-0.00960254995%" id="linearGradient-1">
            <stop stop-color="#0078D4" offset="0%"></stop>
            <stop stop-color="#5EA0EF" offset="82%"></stop>
        </linearGradient>
        <linearGradient x1="49.980747%" y1="2589.37644%" x2="49.980747%" y2="2689.31871%" id="linearGradient-2">
            <stop stop-color="#0078D4" offset="0%"></stop>
            <stop stop-color="#5EA0EF" offset="82%"></stop>
        </linearGradient>
        <linearGradient x1="50%" y1="100.149701%" x2="50%" y2="2.12737346e-13%" id="linearGradient-3">
            <stop stop-color="#CCCCCC" offset="15%"></stop>
            <stop stop-color="#707070" offset="100%"></stop>
        </linearGradient>
        <linearGradient x1="49.9230769%" y1="6354.34132%" x2="49.9230769%" y2="6454.49102%" id="linearGradient-4">
            <stop stop-color="#CCCCCC" offset="15%"></stop>
            <stop stop-color="#707070" offset="100%"></stop>
        </linearGradient>
        <linearGradient x1="50.019253%" y1="2589.37644%" x2="50.019253%" y2="2689.31871%" id="linearGradient-5">
            <stop stop-color="#0078D4" offset="0%"></stop>
            <stop stop-color="#5EA0EF" offset="82%"></stop>
        </linearGradient>
        <linearGradient x1="50.2307692%" y1="6354.34132%" x2="50.2307692%" y2="6454.49102%" id="linearGradient-6">
            <stop stop-color="#CCCCCC" offset="15%"></stop>
            <stop stop-color="#707070" offset="100%"></stop>
        </linearGradient>
        <linearGradient x1="50.0295334%" y1="0.00782471365%" x2="50.0295334%" y2="99.9921753%" id="linearGradient-7">
            <stop stop-color="#B3B2B3" offset="0%"></stop>
            <stop stop-color="#AFAEAF" offset="38%"></stop>
            <stop stop-color="#A2A2A2" offset="76%"></stop>
            <stop stop-color="#979797" offset="100%"></stop>
        </linearGradient>
        <linearGradient x1="50%" y1="2238.00173%" x2="50%" y2="2138.02274%" id="linearGradient-8">
            <stop stop-color="#B3B2B3" offset="0%"></stop>
            <stop stop-color="#AFAEAF" offset="38%"></stop>
            <stop stop-color="#A2A2A2" offset="76%"></stop>
            <stop stop-color="#979797" offset="100%"></stop>
        </linearGradient>
        <linearGradient x1="50.0453858%" y1="-15.7445222%" x2="50.0453858%" y2="121.784831%" id="linearGradient-9">
            <stop stop-color="#5EA0EF" offset="18%"></stop>
            <stop stop-color="#0078D4" offset="100%"></stop>
        </linearGradient>
    </defs>
    <g id="Page-1" stroke="none" stroke-width="1" fill="none" fill-rule="evenodd">
        <g id="4-network-security-zones">
            <g id="Shapes">
                <rect id="Rectangle-path" fill="#FFFFFF" fill-rule="nonzero" x="0" y="0" width="398.796353" height="138.820669"></rect>
                <g id="Group" transform="translate(160.486322, 21.884498)" fill-rule="nonzero">
                    <rect id="Rectangle-path" fill="#FFFFFF" x="1.05775076" y="0.218844985" width="79.0273556" height="48.6322188"></rect>
                    <rect id="Rectangle-path" fill="#3C3C41" opacity="0.1" x="1.05775076" y="0.218844985" width="79.0273556" height="48.6322188"></rect>
                </g>
                <g id="Group" transform="translate(171.428571, 89.969605)" fill-rule="nonzero">
                    <path d="M58.3586626,28.2066869 C58.1395079,21.8995417 53.4132111,16.6652064 47.1610942,15.8054711 C46.7856499,6.89624766 39.3078341,-0.0501496806 30.3951368,0.23100304 C23.2823271,0.10165766 16.8690527,4.49431136 14.4194529,11.1732523 C6.86069403,12.0839295 1.10336523,18.383915 0.875379939,25.993921 C1.23116285,34.5770022 8.43520045,41.2711154 17.0212766,40.9969605 L44.656535,40.9969605 C44.8914334,41.0091194 45.1268036,41.0091194 45.3617021,40.9969605 C52.4359285,40.9399497 58.1882654,35.2790906 58.3586626,28.2066869 Z" id="Shape" fill="url(#linearGradient-1)"></path>
                    <path d="M46.5288754,31.6109422 C46.5026865,30.8846678 45.9060776,30.3095584 45.1793313,30.3100304 L14.0668693,30.3100304 C13.3396327,30.3032364 12.7427959,30.8837958 12.7294833,31.6109422 L12.7294833,47.5379939 C12.7427419,48.2670985 13.3376442,48.8511844 14.0668693,48.8510638 L45.1793313,48.8510638 C45.9106491,48.851331 46.5091101,48.2690447 46.5288754,47.5379939 L46.5288754,31.6109422 Z" id="Shape" fill="#821010"></path>
                    <rect id="Rectangle-path" fill="#E62323" x="14.6139818" y="32.1094225" width="9.16717325" height="4.06079027"></rect>
                    <rect id="Rectangle-path" fill="#FF7381" x="25.1550152" y="32.1094225" width="9.16717325" height="4.06079027"></rect>
                    <rect id="Rectangle-path" fill="#E62323" x="35.6960486" y="32.1094225" width="9.16717325" height="4.06079027"></rect>
                    <rect id="Rectangle-path" fill="#E62323" x="14.6139818" y="37.5440729" width="3.80547112" height="4.06079027"></rect>
                    <rect id="Rectangle-path" fill="#FF7381" x="41.0577508" y="37.5440729" width="3.80547112" height="4.06079027"></rect>
                    <rect id="Rectangle-path" fill="#FF7381" x="19.781155" y="37.5440729" width="9.16717325" height="4.06079027"></rect>
                    <rect id="Rectangle-path" fill="#E62323" x="30.3586626" y="37.5440729" width="9.16717325" height="4.06079027"></rect>
                    <rect id="Rectangle-path" fill="#E62323" x="14.6139818" y="42.9665653" width="9.16717325" height="4.06079027"></rect>
                    <rect id="Rectangle-path" fill="#FF7381" x="25.1550152" y="42.9665653" width="9.16717325" height="4.06079027"></rect>
                    <rect id="Rectangle-path" fill="#E62323" x="35.6960486" y="42.9665653" width="9.16717325" height="4.06079027"></rect>
                </g>
                <g id="Group" transform="translate(0.000000, 89.969605)" fill-rule="nonzero">
                    <rect id="Rectangle-path" fill="#FFFFFF" x="0" y="0.218844985" width="134.358663" height="48.6322188"></rect>
                    <rect id="Rectangle-path" fill="#3C3C41" opacity="0.1" x="0" y="0.218844985" width="134.358663" height="48.6322188"></rect>
                </g>
                <g id="Group" transform="translate(9.726444, 100.911854)" fill-rule="nonzero">
                    <g transform="translate(81.458967, 0.000000)">
                        <rect id="Rectangle-path" fill="url(#linearGradient-2)" x="1.16717325" y="0.340425532" width="31.5744681" height="21.0577508" rx="0.87"></rect>
                        <path d="M23.2948328,27.768997 C20.1702128,27.2826748 20.0486322,25.0212766 20.0486322,21.3981763 L13.8723404,21.3981763 C13.8723404,25.0455927 13.7507599,27.2826748 10.6261398,27.768997 C9.75885156,27.9150935 9.10794834,28.6416832 9.05775076,29.5197568 L24.8632219,29.5197568 C24.8130243,28.6416832 24.1621211,27.9150935 23.2948328,27.768997 Z" id="Shape" fill="url(#linearGradient-3)"></path>
                    </g>
                    <g transform="translate(41.337386, 0.000000)">
                        <rect id="Rectangle-path" fill="url(#linearGradient-2)" x="0.328267477" y="0.340425532" width="31.5744681" height="21.0577508" rx="0.87"></rect>
                        <path d="M22.4559271,27.768997 C19.331307,27.2826748 19.2097264,25.0212766 19.2097264,21.3981763 L13.0334347,21.3981763 C13.0334347,25.0455927 12.9240122,27.2826748 9.78723404,27.768997 C8.92241149,27.9159667 8.27556621,28.6436676 8.23100304,29.5197568 L24.0364742,29.5197568 C23.9851043,28.6378467 23.3280086,27.9099868 22.4559271,27.768997 Z" id="Shape" fill="url(#linearGradient-4)"></path>
                    </g>
                    <g>
                        <rect id="Rectangle-path" fill="url(#linearGradient-5)" x="0.705167173" y="0.340425532" width="31.5744681" height="21.0577508" rx="0.87"></rect>
                        <path d="M22.8328267,27.768997 C19.7082067,27.2826748 19.5987842,25.0212766 19.5987842,21.3981763 L13.3738602,21.3981763 C13.3738602,25.0455927 13.2644377,27.2826748 10.1398176,27.768997 C9.27019728,27.9108478 8.61715047,28.6398303 8.57142857,29.5197568 L24.3768997,29.5197568 C24.3335246,28.6474753 23.6928496,27.9210406 22.8328267,27.768997 Z" id="Shape" fill="url(#linearGradient-6)"></path>
                    </g>
                </g>
                <g id="Group" transform="translate(263.829787, 89.969605)" fill-rule="nonzero">
                    <rect id="Rectangle-path" fill="#FFFFFF" x="0.607902736" y="0.218844985" width="134.358663" height="48.6322188"></rect>
                    <rect id="Rectangle-path" fill="#3C3C41" opacity="0.1" x="0.607902736" y="0.218844985" width="134.358663" height="48.6322188"></rect>
                </g>
                <g id="Group" transform="translate(175.075988, 30.395137)" fill-rule="nonzero">
                    <g>
                        <path d="M21.106383,30.7598784 C21.0876417,31.0632114 20.9488546,31.3465878 20.7207043,31.5473601 C20.4925539,31.7481325 20.1938316,31.8497642 19.8905775,31.8297872 L1.76291793,31.8297872 C1.45966382,31.8497642 1.16094158,31.7481325 0.932791185,31.5473601 C0.704640793,31.3465878 0.565853776,31.0632114 0.547112462,30.7598784 L0.547112462,1.2887538 C0.565853776,0.985420815 0.704640793,0.70204445 0.932791185,0.501272105 C1.16094158,0.30049976 1.45966382,0.198867974 1.76291793,0.218844985 L19.9148936,0.218844985 C20.2181477,0.198867974 20.51687,0.30049976 20.7450204,0.501272105 C20.9731708,0.70204445 21.1119578,0.985420815 21.1306991,1.2887538 L21.106383,30.7598784 Z" id="Shape" fill="url(#linearGradient-7)"></path>
                        <path d="M3.64741641,13.7386018 C3.64113496,12.4851597 4.58868987,11.4323209 5.83586626,11.3069909 L16.0851064,11.3069909 C17.3371016,11.4264578 18.2914012,12.4809325 18.2857143,13.7386018 C18.4054828,15.0274874 17.4589004,16.1699143 16.1702128,16.2917933 L5.83586626,16.2917933 C4.56544628,16.2134495 3.59196835,15.1318074 3.64741641,13.8601824 L3.64741641,13.7386018 Z" id="Shape" fill="#003067"></path>
                        <path d="M3.64741641,6.41945289 C3.5985253,5.15019083 4.56848449,4.07245841 5.83586626,3.98784195 L16.0851064,3.98784195 C17.3573196,4.06616471 18.3343528,5.14575932 18.2857143,6.41945289 C18.3278677,7.69077955 17.3543193,8.76652367 16.0851064,8.85106383 L5.83586626,8.85106383 C4.56848449,8.76644737 3.5985253,7.68871494 3.64741641,6.41945289 Z" id="Shape" fill="#003067"></path>
                        <circle id="Oval" fill="#50E6FF" cx="6.46808511" cy="6.41945289" r="1.64133739"></circle>
                        <circle id="Oval" fill="#50E6FF" cx="6.46808511" cy="13.7386018" r="1.64133739"></circle>
                    </g>
                    <g transform="translate(30.395137, 0.000000)">
                        <path d="M20.9848024,30.7598784 C20.9693031,31.0644192 20.831455,31.3497894 20.6025362,31.551238 C20.3736174,31.7526865 20.0730369,31.8531335 19.768997,31.8297872 L1.64133739,31.8297872 C1.33729744,31.8531335 1.03671692,31.7526865 0.80779811,31.551238 C0.578879305,31.3497894 0.441031244,31.0644192 0.425531915,30.7598784 L0.425531915,1.2887538 C0.441031244,0.984212984 0.578879305,0.698842781 0.80779811,0.497394232 C1.03671692,0.295945684 1.33729744,0.195498733 1.64133739,0.218844985 L19.8054711,0.218844985 C20.1095111,0.195498733 20.4100916,0.295945684 20.6390104,0.497394232 C20.8679292,0.698842781 21.0057773,0.984212984 21.0212766,1.2887538 L20.9848024,30.7598784 Z" id="Shape" fill="url(#linearGradient-8)"></path>
                        <path d="M3.47720365,13.7386018 C3.47151672,12.4809325 4.42581633,11.4264578 5.67781155,11.3069909 L15.9270517,11.3069909 C17.1742281,11.4323209 18.121783,12.4851597 18.1155015,13.7386018 C18.23527,15.0274874 17.2886877,16.1699143 16,16.2917933 L5.71428571,16.2917933 C4.44386573,16.2134495 3.4703878,15.1318074 3.52583587,13.8601824 L3.47720365,13.7386018 Z" id="Shape" fill="#003067"></path>
                        <path d="M3.47720365,6.41945289 C3.43505023,5.14812623 4.40859867,4.07238211 5.67781155,3.98784195 L15.9270517,3.98784195 C17.1944334,4.07245841 18.1643926,5.15019083 18.1155015,6.41945289 C18.1579606,7.68637869 17.1914349,8.76029614 15.9270517,8.85106383 L5.71428571,8.85106383 C4.44990247,8.76029614 3.48337676,7.68637869 3.52583587,6.41945289 L3.47720365,6.41945289 Z" id="Shape" fill="#003067"></path>
                        <circle id="Oval" fill="#50E6FF" cx="6.34650456" cy="6.41945289" r="1.64133739"></circle>
                        <circle id="Oval" fill="#50E6FF" cx="6.34650456" cy="13.7386018" r="1.64133739"></circle>
                    </g>
                </g>
                <path d="M321.033435,119.93921 C320.947885,115.465359 317.632784,111.712706 313.203647,111.075988 C313.005306,104.791477 307.806762,99.8255416 301.519757,99.9148936 C296.523431,99.8957178 292.054922,103.020753 290.358663,107.720365 C284.988171,108.387137 280.93117,112.911056 280.851064,118.322188 C281.055835,124.398544 286.09117,129.190496 292.170213,129.094225 L312,129.094225 C316.98396,128.970244 320.976093,124.924381 321.033435,119.93921 Z" id="Shape" fill="url(#linearGradient-9)" fill-rule="nonzero"></path>
                <path d="M164,114.504559 L134.358663,114.504559" id="Shape" stroke="#1E1E1E"></path>
                <path d="M264.765957,114.504559 L235.12462,114.504559" id="Shape" stroke="#1E1E1E"></path>
                <path d="M201.057751,87.7568389 L201.057751,70.7355623" id="Shape" stroke="#1E1E1E"></path>
            </g>
            <g id="Text" transform="translate(14.589666, 4.863222)" fill="#1E1E1E" fill-rule="nonzero">
                <g id="Group" transform="translate(316.109422, 104.559271)">
                    <polygon id="Shape" points="1.64133739 10.8085106 0.425531915 10.8085106 0.425531915 0.583586626 1.64133739 0.583586626"></polygon>
                    <path d="M10.2370821,10.8085106 L9.0212766,10.8085106 L9.0212766,6.63829787 C9.0212766,5.09422492 8.46200608,4.31610942 7.33130699,4.31610942 C6.77123412,4.3016122 6.23636645,4.54881995 5.88449848,4.98480243 C5.49548126,5.44598704 5.29181227,6.0353271 5.31306991,6.63829787 L5.31306991,10.8085106 L4.09726444,10.8085106 L4.09726444,3.51367781 L5.31306991,3.51367781 L5.31306991,4.72948328 C5.7905253,3.8406148 6.73692169,3.30590084 7.74468085,3.3556231 C8.43889455,3.31182536 9.11364212,3.59521934 9.56838906,4.12158055 C10.0356689,4.77019861 10.2634135,5.56085893 10.212766,6.35866261 L10.2370821,10.8085106 Z" id="Shape"></path>
                    <path d="M15.8054711,10.7355623 C15.4645223,10.89917 15.0892324,10.9783979 14.7112462,10.9665653 C13.4346505,10.9665653 12.8024316,10.2492401 12.8024316,8.82674772 L12.8024316,4.5106383 L11.5866261,4.5106383 L11.5866261,3.51367781 L12.8024316,3.51367781 L12.8024316,1.72644377 L14.0182371,1.34954407 L14.0182371,3.51367781 L15.8054711,3.51367781 L15.8054711,4.5106383 L13.9817629,4.5106383 L13.9817629,8.62006079 C13.9521499,8.98539509 14.0371453,9.3508754 14.224924,9.6656535 C14.438157,9.89117418 14.7423727,10.007492 15.0516717,9.98176292 C15.3237253,9.97915515 15.5878307,9.88970009 15.8054711,9.72644377 L15.8054711,10.7355623 Z" id="Shape"></path>
                    <path d="M23.2340426,7.45288754 L18.0911854,7.45288754 C18.0593625,8.13846411 18.2947155,8.80965597 18.7477204,9.32522796 C19.1978126,9.78973626 19.8286102,10.0340593 20.4741641,9.99392097 C21.299572,9.99258097 22.0988999,9.70465104 22.7355623,9.17933131 L22.7355623,10.2735562 C21.9863878,10.7756777 21.0953239,11.0229586 20.1945289,10.9787234 C19.2762662,11.0233689 18.3855474,10.6581742 17.7629179,9.98176292 C17.1278718,9.19338795 16.8112169,8.19570821 16.8753799,7.18541033 C16.8362658,6.17147802 17.1839515,5.1805739 17.8480243,4.41337386 C18.4548357,3.70706809 19.3489367,3.31366366 20.2796353,3.34346505 C21.120114,3.29455714 21.9362977,3.6353811 22.4924012,4.2674772 C23.0503906,5.00193344 23.326475,5.91214942 23.2705167,6.83282675 L23.2340426,7.45288754 Z M22.0182371,6.45592705 C22.0428951,5.89255528 21.8709795,5.33812754 21.5319149,4.88753799 C21.1983154,4.50071049 20.7046574,4.28978391 20.1945289,4.31610942 C19.6658038,4.31111842 19.1589963,4.52706249 18.7963526,4.9118541 C18.3924089,5.33260446 18.1400312,5.87585816 18.0790274,6.45592705 L22.0182371,6.45592705 Z" id="Shape"></path>
                    <path d="M28.8145897,4.69300912 C28.5519868,4.52097463 28.2402037,4.4398256 27.9270517,4.46200608 C27.4296906,4.48010426 26.973924,4.74444889 26.7112462,5.16717325 C26.3508706,5.74073054 26.176751,6.41172778 26.212766,7.0881459 L26.212766,10.8085106 L24.9969605,10.8085106 L24.9969605,3.51367781 L26.212766,3.51367781 L26.212766,5.00911854 C26.3457898,4.53859542 26.6117448,4.11644465 26.9787234,3.79331307 C27.2922392,3.51077639 27.6995397,3.35478896 28.1215805,3.3556231 C28.3604305,3.34821465 28.5988219,3.38109623 28.8267477,3.45288754 L28.8145897,4.69300912 Z" id="Shape"></path>
                    <path d="M36.1337386,10.8085106 L34.9179331,10.8085106 L34.9179331,6.63829787 C34.9179331,5.09422492 34.3465046,4.31610942 33.2158055,4.31610942 C32.6565025,4.30531186 32.123184,4.55180363 31.768997,4.98480243 C31.3799797,5.44598704 31.1763108,6.0353271 31.1975684,6.63829787 L31.1975684,10.8085106 L29.9817629,10.8085106 L29.9817629,3.51367781 L31.1975684,3.51367781 L31.1975684,4.72948328 C31.677215,3.84276282 32.6221293,3.30888621 33.6291793,3.3556231 C34.3269175,3.31175235 35.0053848,3.59482148 35.4650456,4.12158055 C35.9280202,4.77178577 36.1514291,5.56230934 36.0972644,6.35866261 L36.1337386,10.8085106 Z" id="Shape"></path>
                    <path d="M44.1945289,7.45288754 L39.0516717,7.45288754 C39.0198488,8.13846411 39.2552018,8.80965597 39.7082067,9.32522796 C40.1554675,9.78641632 40.7810858,10.0304518 41.4224924,9.99392097 C42.2518998,9.99438869 43.0556559,9.70641193 43.6960486,9.17933131 L43.6960486,10.2735562 C42.9468741,10.7756777 42.0558102,11.0229586 41.1550152,10.9787234 C40.2367525,11.0233689 39.3460337,10.6581742 38.7234043,9.98176292 C37.5128669,8.31398312 37.5425409,6.04886961 38.7963526,4.41337386 C39.4052929,3.70994643 40.2979488,3.31717783 41.2279635,3.34346505 C42.0684423,3.29455714 42.884626,3.6353811 43.4407295,4.2674772 C43.9987188,5.00193344 44.2748033,5.91214942 44.218845,6.83282675 L44.1945289,7.45288754 Z M42.9787234,6.45592705 C43.0266662,5.89167169 42.8761676,5.32837676 42.5531915,4.86322188 C42.217407,4.47939293 41.7252775,4.2691194 41.2158055,4.29179331 C40.6840263,4.28925503 40.1743911,4.50453196 39.8054711,4.88753799 C39.4097408,5.3125076 39.1623342,5.85424289 39.100304,6.43161094 L42.9787234,6.45592705 Z" id="Shape"></path>
                    <path d="M49.3495441,10.7355623 C49.0085953,10.89917 48.6333053,10.9783979 48.2553191,10.9665653 C46.9787234,10.9665653 46.3465046,10.2492401 46.3465046,8.82674772 L46.3465046,4.5106383 L45.1306991,4.5106383 L45.1306991,3.51367781 L46.3465046,3.51367781 L46.3465046,1.72644377 L47.56231,1.34954407 L47.56231,3.51367781 L49.3981763,3.51367781 L49.3981763,4.5106383 L47.56231,4.5106383 L47.56231,8.62006079 C47.532697,8.98539509 47.6176924,9.3508754 47.8054711,9.6656535 C48.0187041,9.89117418 48.3229198,10.007492 48.6322188,9.98176292 C48.9070575,9.98528114 49.1756921,9.90000032 49.3981763,9.73860182 L49.3495441,10.7355623 Z" id="Shape"></path>
                </g>
                <g id="Group" transform="translate(126.443769, 0.000000)">
                    <path d="M2.24924012,7.29483283 L2.24924012,11.1610942 L1.03343465,11.1610942 L1.03343465,0.948328267 L3.84194529,0.948328267 C4.7570073,0.89289967 5.66075829,1.17397055 6.38297872,1.73860182 C7.0032609,2.31752946 7.33686114,3.14041006 7.29483283,3.98784195 C7.3363934,4.90804241 6.9666153,5.79907398 6.28571429,6.41945289 C5.54872615,7.03456551 4.6059328,7.34738174 3.64741641,7.29483283 L2.24924012,7.29483283 Z M2.24924012,2.03039514 L2.24924012,6.21276596 L3.46504559,6.21276596 C4.14403779,6.2613146 4.81768139,6.0626761 5.36170213,5.65349544 C5.834943,5.25736026 6.0995103,4.66544698 6.07902736,4.04863222 C6.07902736,2.69908815 5.27659574,2.03039514 3.64741641,2.03039514 L2.24924012,2.03039514 Z" id="Shape"></path>
                    <path d="M14.3951368,7.80547112 L9.24012158,7.80547112 C9.21974797,8.49300442 9.4534891,9.16392803 9.89665653,9.6899696 C10.3533105,10.1432506 10.9806442,10.3818141 11.6231003,10.3465046 C12.4488638,10.3471988 13.2488593,10.0590284 13.8844985,9.53191489 L13.8844985,10.6382979 C13.1320905,11.132214 12.2424508,11.374843 11.343465,11.331307 C10.4246144,11.3793917 9.53248797,11.0136199 8.9118541,10.3343465 C8.28326181,9.54310107 7.97126066,8.54643073 8.03647416,7.53799392 C7.99277615,6.52550444 8.33619966,5.53435812 8.99696049,4.76595745 C9.60484201,4.06109712 10.4982156,3.66801275 11.4285714,3.69604863 C12.2693653,3.64528466 13.0863323,3.98643571 13.6413374,4.62006079 C14.2054805,5.35658446 14.4859694,6.27140979 14.4316109,7.19756839 L14.3951368,7.80547112 Z M13.1793313,6.82066869 C13.2166607,6.25199317 13.0435694,5.68944644 12.6930091,5.24012158 C12.3570457,4.8578051 11.8637338,4.65151106 11.3556231,4.68085106 C10.8287307,4.67270308 10.3221991,4.88412496 9.95744681,5.26443769 C9.55784182,5.69297106 9.30639215,6.23848899 9.24012158,6.82066869 L13.1793313,6.82066869 Z" id="Shape"></path>
                    <path d="M19.9635258,5.04559271 C19.7009229,4.87355821 19.3891398,4.79240919 19.0759878,4.81458967 C18.5767441,4.82608184 18.118061,5.09211803 17.8601824,5.51975684 C17.4909964,6.08991913 17.312208,6.76250438 17.3495441,7.44072948 L17.3495441,11.1610942 L16.1337386,11.1610942 L16.1337386,3.8662614 L17.3495441,3.8662614 L17.3495441,5.37386018 C17.4732197,4.90217697 17.735854,4.47857335 18.1033435,4.15805471 C18.421799,3.87570531 18.8327591,3.71997307 19.2583587,3.72036474 C19.494435,3.70867282 19.7303786,3.74592706 19.9513678,3.82978723 L19.9635258,5.04559271 Z" id="Shape"></path>
                    <path d="M21.8844985,2.01823708 C21.4614719,2.01823708 21.118541,1.67530625 21.118541,1.25227964 C21.1148217,1.04899806 21.199024,0.854003415 21.3495441,0.717325228 C21.4892824,0.572585698 21.6833809,0.493181766 21.8844985,0.498480243 C22.0853426,0.494660835 22.2788729,0.573832342 22.4194529,0.717325228 C22.569973,0.854003415 22.6541752,1.04899806 22.6504559,1.25227964 C22.6575061,1.45620386 22.5727247,1.65253973 22.4194529,1.78723404 C22.2827747,1.93775415 22.0877801,2.02195639 21.8844985,2.01823708 Z M22.443769,11.1610942 L21.2279635,11.1610942 L21.2279635,3.8662614 L22.443769,3.8662614 L22.443769,11.1610942 Z" id="Shape"></path>
                    <path d="M35.1246201,11.1610942 L33.9088146,11.1610942 L33.9088146,6.96656535 C33.9566955,6.35870482 33.8256801,5.75011718 33.5319149,5.21580547 C33.2398931,4.84760296 32.7848632,4.64738982 32.3161094,4.68085106 C31.804535,4.68417593 31.3272695,4.93871753 31.0395137,5.36170213 C30.6821733,5.83266922 30.4975942,6.41216184 30.5167173,7.00303951 L30.5167173,11.1610942 L29.3009119,11.1610942 L29.3009119,6.83282675 C29.3009119,5.39817629 28.7416413,4.68085106 27.6352584,4.68085106 C27.1498848,4.68738481 26.6973496,4.92722843 26.4194529,5.32522796 C26.0698312,5.81276809 25.8942669,6.40369197 25.9209726,7.00303951 L25.9209726,11.1610942 L24.7051672,11.1610942 L24.7051672,3.8662614 L25.9209726,3.8662614 L25.9209726,5.08206687 C26.3266372,4.17775249 27.240569,3.61015273 28.231003,3.64741641 C28.6985367,3.63675443 29.1562903,3.78220883 29.5319149,4.06079027 C29.8944323,4.33736835 30.1620835,4.71972719 30.2978723,5.1550152 C30.7320509,4.20971746 31.6897191,3.61596317 32.7294833,3.64741641 C34.3343465,3.64741641 35.1610942,4.63221884 35.1610942,6.61398176 L35.1246201,11.1610942 Z" id="Shape"></path>
                    <path d="M43.1975684,7.80547112 L38.0425532,7.80547112 C38.0221796,8.49300442 38.2559207,9.16392803 38.6990881,9.6899696 C39.1557422,10.1432506 39.7830758,10.3818141 40.4255319,10.3465046 C41.2512954,10.3471988 42.0512909,10.0590284 42.6869301,9.53191489 L42.6869301,10.6382979 C41.9345221,11.132214 41.0448825,11.374843 40.1458967,11.331307 C39.227046,11.3793917 38.3349196,11.0136199 37.7142857,10.3343465 C37.0856934,9.54310107 36.7736923,8.54643073 36.8389058,7.53799392 C36.7952078,6.52550444 37.1386313,5.53435812 37.7993921,4.76595745 C38.4072736,4.06109712 39.3006472,3.66801275 40.231003,3.69604863 C41.071797,3.64528466 41.8887639,3.98643571 42.443769,4.62006079 C43.0079121,5.35658446 43.288401,6.27140979 43.2340426,7.19756839 L43.1975684,7.80547112 Z M41.9817629,6.82066869 C42.0190923,6.25199317 41.846001,5.68944644 41.4954407,5.24012158 C41.1594773,4.8578051 40.6661654,4.65151106 40.1580547,4.68085106 C39.6311623,4.67270308 39.1246307,4.88412496 38.7598784,5.26443769 C38.3602734,5.69297106 38.1088238,6.23848899 38.0425532,6.82066869 L41.9817629,6.82066869 Z" id="Shape"></path>
                    <path d="M48.3404255,11.0881459 C48.0062261,11.2586799 47.633062,11.3383441 47.2583587,11.3191489 C45.9817629,11.3191489 45.337386,10.6018237 45.337386,9.17933131 L45.337386,4.86322188 L44.1215805,4.86322188 L44.1215805,3.8662614 L45.337386,3.8662614 L45.337386,2.07902736 L46.5531915,1.70212766 L46.5531915,3.8662614 L48.3890578,3.8662614 L48.3890578,4.86322188 L46.5531915,4.86322188 L46.5531915,8.97264438 C46.5202428,9.3398263 46.6100394,9.70756467 46.8085106,10.0182371 C47.0185481,10.2484916 47.3251814,10.3657337 47.6352584,10.3343465 C47.9066228,10.3397044 48.1719768,10.2541063 48.3890578,10.0911854 L48.3404255,11.0881459 Z" id="Shape"></path>
                    <path d="M55.768997,7.80547112 L50.6139818,7.80547112 C50.5936082,8.49300442 50.8273493,9.16392803 51.2705167,9.6899696 C51.7280118,10.141944 52.354744,10.3802788 52.9969605,10.3465046 C53.8230825,10.3492649 54.6237608,10.0608485 55.2583587,9.53191489 L55.2583587,10.6382979 C54.5070071,11.1345526 53.6165882,11.3773941 52.7173252,11.331307 C51.7984745,11.3793917 50.9063482,11.0136199 50.2857143,10.3343465 C49.657122,9.54310107 49.3451208,8.54643073 49.4103343,7.53799392 C49.3666363,6.52550444 49.7100598,5.53435812 50.3708207,4.76595745 C50.9787022,4.06109712 51.8720758,3.66801275 52.8024316,3.69604863 C53.6438598,3.64151089 54.4624303,3.98333152 55.0151976,4.62006079 C55.5793407,5.35658446 55.8598296,6.27140979 55.8054711,7.19756839 L55.768997,7.80547112 Z M54.5531915,6.82066869 C54.5772367,6.25170289 54.4008239,5.69234528 54.0547112,5.24012158 C53.7225278,4.85975457 53.2337407,4.65347743 52.7294833,4.68085106 C52.1986706,4.67078342 51.6876458,4.88224195 51.3191489,5.26443769 C50.9195439,5.69297106 50.6680943,6.23848899 50.6018237,6.82066869 L54.5531915,6.82066869 Z" id="Shape"></path>
                    <path d="M61.337386,5.04559271 C61.0747831,4.87355821 60.763,4.79240919 60.449848,4.81458967 C59.9506043,4.82608184 59.4919212,5.09211803 59.2340426,5.51975684 C58.8648566,6.08991913 58.6860681,6.76250438 58.7234043,7.44072948 L58.7234043,11.1610942 L57.5075988,11.1610942 L57.5075988,3.8662614 L58.7234043,3.8662614 L58.7234043,5.37386018 C58.8470799,4.90217697 59.1097142,4.47857335 59.4772036,4.15805471 C59.7968281,3.87764438 60.207029,3.72219983 60.6322188,3.72036474 C60.8682952,3.70867282 61.1042388,3.74592706 61.325228,3.82978723 L61.337386,5.04559271 Z" id="Shape"></path>
                    <path d="M74.9908815,11.1610942 L73.5319149,11.1610942 L68.2674772,3.01519757 C68.1342193,2.81340513 68.0241033,2.59725157 67.9392097,2.37082067 C67.9679988,2.84049137 67.9679988,3.31148432 67.9392097,3.78115502 L67.9392097,11.1610942 L66.7234043,11.1610942 L66.7234043,0.948328267 L68.2796353,0.948328267 L73.3860182,8.96048632 C73.5363554,9.17957819 73.6743608,9.40688126 73.7993921,9.64133739 C73.738999,9.14120026 73.7146201,8.63737009 73.7264438,8.1337386 L73.7264438,0.948328267 L74.9422492,0.948328267 L74.9908815,11.1610942 Z" id="Shape"></path>
                    <path d="M83.3799392,7.80547112 L78.224924,7.80547112 C78.2045504,8.49300442 78.4382915,9.16392803 78.881459,9.6899696 C79.3389541,10.141944 79.9656863,10.3802788 80.6079027,10.3465046 C81.4340247,10.3492649 82.2347031,10.0608485 82.8693009,9.53191489 L82.8693009,10.6382979 C82.1179493,11.1345526 81.2275305,11.3773941 80.3282675,11.331307 C79.4094168,11.3793917 78.5172904,11.0136199 77.8966565,10.3343465 C77.2680642,9.54310107 76.9560631,8.54643073 77.0212766,7.53799392 C76.9775786,6.52550444 77.3210021,5.53435812 77.9817629,4.76595745 C78.5896444,4.06109712 79.483018,3.66801275 80.4133739,3.69604863 C81.2577059,3.6451717 82.0784155,3.98601283 82.6382979,4.62006079 C83.19811,5.35825181 83.4742367,6.27292137 83.4164134,7.19756839 L83.3799392,7.80547112 Z M82.1641337,6.82066869 C82.188179,6.25170289 82.0117662,5.69234528 81.6656535,5.24012158 C81.3334701,4.85975457 80.844683,4.65347743 80.3404255,4.68085106 C79.8096128,4.67078342 79.298588,4.88224195 78.9300912,5.26443769 C78.5341899,5.69411132 78.2869637,6.23971401 78.224924,6.82066869 L82.1641337,6.82066869 Z" id="Shape"></path>
                    <path d="M88.5349544,11.0881459 C88.1960087,11.2575683 87.8192338,11.3371096 87.4407295,11.3191489 C86.224924,11.3191489 85.5197568,10.6018237 85.5197568,9.17933131 L85.5197568,4.86322188 L84.3039514,4.86322188 L84.3039514,3.8662614 L85.5197568,3.8662614 L85.5197568,2.07902736 L86.7355623,1.70212766 L86.7355623,3.8662614 L88.5714286,3.8662614 L88.5714286,4.86322188 L86.7355623,4.86322188 L86.7355623,8.97264438 C86.6999217,9.33839973 86.7853499,9.70574082 86.9787234,10.0182371 C87.1909267,10.245293 87.4959148,10.3619061 87.8054711,10.3343465 C88.0803098,10.3378647 88.3489444,10.2525839 88.5714286,10.0911854 L88.5349544,11.0881459 Z" id="Shape"></path>
                    <path d="M99.2826748,3.8662614 L97.0942249,11.1610942 L95.8784195,11.1610942 L94.3829787,5.9331307 C94.3205599,5.71477371 94.2798358,5.49079127 94.2613982,5.26443769 C94.2378106,5.48810565 94.1888639,5.70836575 94.1155015,5.92097264 L92.4863222,11.1610942 L91.2705167,11.1610942 L89.0699088,3.8662614 L90.2857143,3.8662614 L91.7933131,9.34954407 C91.8448543,9.56512695 91.8774003,9.7848126 91.8905775,10.006079 L91.9513678,10.006079 C91.9644344,9.77905265 92.0052654,9.55448217 92.0729483,9.33738602 L93.7629179,3.8662614 L94.8328267,3.8662614 L96.3525836,9.36170213 C96.4022453,9.57764397 96.434768,9.79717203 96.449848,10.0182371 C96.467174,9.79572547 96.5079264,9.57566259 96.5714286,9.36170213 L98.0547112,3.8662614 L99.2826748,3.8662614 Z" id="Shape"></path>
                    <path d="M103.683891,11.331307 C102.717678,11.3783156 101.778183,11.0060627 101.106383,10.3100304 C100.437152,9.57000648 100.087541,8.59546404 100.133739,7.59878419 C100.071029,6.54562821 100.434715,5.51153472 101.142857,4.72948328 C101.856569,4.00709579 102.839128,3.61495329 103.854103,3.64741641 C104.809307,3.59479782 105.740494,3.95840405 106.407295,4.6443769 C107.052119,5.42863919 107.377706,6.42710369 107.319149,7.44072948 C107.366259,8.4653347 107.013108,9.46810978 106.334347,10.2370821 C105.648464,10.9647537 104.683352,11.3631945 103.683891,11.331307 Z M103.768997,4.68085106 C103.09049,4.64681216 102.434652,4.92981108 101.993921,5.44680851 C101.527926,6.04546185 101.29468,6.79271314 101.337386,7.55015198 C101.29421,8.29272894 101.52816,9.0249052 101.993921,9.60486322 C102.444707,10.1054085 103.096102,10.3775666 103.768997,10.3465046 C104.430518,10.387411 105.073318,10.1177046 105.507599,9.61702128 C105.952493,9.01444341 106.168026,8.27301224 106.115502,7.52583587 C106.168815,6.77480497 105.953347,6.02928559 105.507599,5.4224924 C105.078039,4.91413591 104.433228,4.63907649 103.768997,4.68085106 Z" id="Shape"></path>
                    <path d="M112.984802,5.04559271 C112.726325,4.87448255 112.418673,4.79329669 112.109422,4.81458967 C111.610814,4.82833077 111.153132,5.09378644 110.893617,5.51975684 C110.524431,6.08991913 110.345643,6.76250438 110.382979,7.44072948 L110.382979,11.1610942 L109.167173,11.1610942 L109.167173,3.8662614 L110.382979,3.8662614 L110.382979,5.37386018 C110.506654,4.90217697 110.769289,4.47857335 111.136778,4.15805471 C111.472042,3.86353562 111.906525,3.70712177 112.352584,3.72036474 C112.58866,3.70867282 112.824604,3.74592706 113.045593,3.82978723 L112.984802,5.04559271 Z" id="Shape"></path>
                    <polygon id="Shape" points="120.364742 11.1610942 118.723404 11.1610942 115.50152 7.65957447 115.50152 7.65957447 115.50152 11.1610942 114.285714 11.1610942 114.285714 0.364741641 115.50152 0.364741641 115.50152 7.20972644 115.50152 7.20972644 118.56535 3.8662614 120.097264 3.8662614 116.717325 7.37993921"></polygon>
                </g>
                <g id="Group" transform="translate(32.826748, 52.279635)">
                    <polygon id="Shape" points="2.75987842 11.8784195 0.462006079 11.8784195 0.462006079 1.6656535 2.75987842 1.6656535"></polygon>
                    <path d="M11.9027356,11.8784195 L9.72644377,11.8784195 L9.72644377,7.82978723 C9.72644377,6.69908815 9.32522796,6.13981763 8.5106383,6.13981763 C8.1405385,6.13188316 7.78698523,6.29299604 7.55015198,6.5775076 C7.28955101,6.89985879 7.15553565,7.30622796 7.17325228,7.72036474 L7.17325228,11.8784195 L4.86322188,11.8784195 L4.86322188,4.58358663 L7.11246201,4.58358663 L7.11246201,5.73860182 C7.58507766,4.8926264 8.49045681,4.38129828 9.45896657,4.41337386 C11.0759878,4.41337386 11.8905775,5.41033435 11.8905775,7.41641337 L11.9027356,11.8784195 Z" id="Shape"></path>
                    <path d="M13.2158055,11.6960486 L13.2158055,9.87234043 C13.5626943,10.0833723 13.9342959,10.2507972 14.3221884,10.3708207 C14.661191,10.4740177 15.0134229,10.5272621 15.3677812,10.5288754 C15.6875521,10.5437785 16.0067974,10.48988 16.3039514,10.3708207 C16.5140735,10.2946323 16.6546819,10.0958411 16.656535,9.87234043 C16.6552784,9.73440215 16.5982682,9.60284011 16.4984802,9.50759878 C16.3773749,9.40732924 16.2421922,9.32540035 16.0972644,9.26443769 C15.9182932,9.19040368 15.7356886,9.12547762 15.550152,9.06990881 L14.9908815,8.87537994 C14.7268417,8.77302919 14.470811,8.65110985 14.224924,8.5106383 C14.0178604,8.39861214 13.8325583,8.25037047 13.6778116,8.07294833 C13.5240192,7.9073825 13.4042262,7.71323514 13.325228,7.50151976 C13.2480404,7.24952077 13.2111118,6.98691779 13.2158055,6.72340426 C13.2029149,6.35259636 13.2956778,5.98576138 13.4832827,5.6656535 C13.6564734,5.37273192 13.8985314,5.1265005 14.1884498,4.94832827 C14.5020528,4.7518162 14.8477276,4.61190017 15.2097264,4.53495441 C15.6077515,4.43938531 16.0162501,4.39445047 16.4255319,4.40121581 C16.7551454,4.40131533 17.0843037,4.42569742 17.4103343,4.47416413 C17.7433457,4.52383073 18.0724324,4.5969611 18.3951368,4.69300912 L18.3951368,6.443769 C18.1096596,6.27741437 17.8029022,6.15062131 17.4832827,6.0668693 C17.1696531,5.98535239 16.8468455,5.94449067 16.5227964,5.94528875 C16.3853172,5.93217279 16.2469017,5.93217279 16.1094225,5.94528875 C15.9874014,5.96528832 15.8687433,6.00211324 15.7568389,6.05471125 C15.6649825,6.09952504 15.5856279,6.16634994 15.5258359,6.24924012 C15.4688723,6.32663834 15.4389649,6.42063287 15.4407295,6.51671733 C15.4360113,6.6415989 15.4795488,6.76350395 15.56231,6.85714286 C15.6577904,6.96081886 15.773697,7.04360929 15.9027356,7.10030395 C16.0515941,7.17674251 16.2060397,7.24177225 16.3647416,7.29483283 L16.8632219,7.45288754 C17.1435726,7.54888519 17.4159417,7.66677631 17.6778116,7.80547112 C17.9036734,7.9171227 18.1124615,8.06040864 18.2978723,8.23100304 C18.4666233,8.39898517 18.6026735,8.59687636 18.6990881,8.81458967 C18.7907849,9.0720495 18.8360664,9.34373871 18.8328267,9.61702128 C18.8493949,10.005183 18.7522019,10.3897294 18.5531915,10.7234043 C18.3675885,11.0286358 18.1137236,11.2866624 17.8115502,11.4772036 C17.4751833,11.6717543 17.1098889,11.8113049 16.7294833,11.8905775 C16.3297417,11.9759187 15.9224119,12.0207249 15.5136778,12.0243161 C14.7343029,12.0522402 13.9561866,11.9410808 13.2158055,11.6960486 Z" id="Shape"></path>
                    <path d="M21.2522796,3.42857143 C20.9096782,3.44321551 20.574541,3.32569988 20.3161094,3.10030395 C20.0805137,2.88543928 19.947818,2.58023919 19.9513678,2.26139818 C19.9448962,1.94547532 20.0784075,1.64284974 20.3161094,1.43465046 C20.5787344,1.21784815 20.9119851,1.10532193 21.2522796,1.11854103 C21.5922456,1.10757097 21.9247228,1.21983599 22.1884498,1.43465046 C22.6285016,1.90267478 22.6285016,2.63227963 22.1884498,3.10030395 C21.9293878,3.32461486 21.5946958,3.44197439 21.2522796,3.42857143 Z M22.3586626,11.9392097 L20.1094225,11.9392097 L20.1094225,4.6443769 L22.3586626,4.6443769 L22.3586626,11.9392097 Z" id="Shape"></path>
                    <path d="M31.3920973,11.8784195 L29.1793313,11.8784195 L29.1793313,10.9422492 C28.7007682,11.7265471 27.8361011,12.1914218 26.9179331,12.1580547 C26.0759205,12.1922883 25.2647628,11.8382471 24.7173252,11.1975684 C24.1175374,10.4304684 23.8191452,9.47042382 23.8784195,8.49848024 C23.8248739,7.45001591 24.1531493,6.41767612 24.8024316,5.59270517 C25.4001532,4.8729215 26.2991996,4.47284583 27.2340426,4.5106383 C28.0311181,4.4345091 28.7998165,4.82834842 29.2036474,5.51975684 L29.2036474,1.08206687 L31.4528875,1.08206687 L31.3920973,11.8784195 Z M29.1793313,8.34042553 L29.1793313,7.78115502 C29.2055645,7.33745925 29.0572032,6.90110245 28.7659574,6.56534954 C28.4987002,6.25588821 28.1045595,6.08569111 27.6960486,6.10334347 C27.216143,6.0694357 26.7539622,6.29128244 26.4802432,6.68693009 C26.172349,7.16798143 26.0234867,7.73365827 26.0547112,8.30395137 C26.018645,8.82733218 26.1646901,9.347081 26.4680851,9.77507599 C26.7320198,10.1229928 27.1504149,10.3185471 27.5866261,10.2978723 C28.0259042,10.306635 28.4424199,10.1029045 28.7051672,9.75075988 C29.018641,9.34805324 29.1858493,8.85071561 29.1793313,8.34042553 Z" id="Shape"></path>
                    <path d="M39.8419453,8.87537994 L35.0881459,8.87537994 C35.1610942,9.9331307 35.8297872,10.4680851 37.0820669,10.4680851 C37.8270868,10.4815269 38.5606399,10.2833832 39.1975684,9.89665653 L39.1975684,11.5136778 C38.3811533,11.9111501 37.4786467,12.0991723 36.5714286,12.0607903 C35.5547321,12.1721384 34.5420703,11.8188034 33.815328,11.0991398 C33.0885858,10.3794761 32.7253561,9.37032118 32.8267477,8.35258359 C32.7695316,7.28772444 33.1519157,6.24605758 33.8844985,5.47112462 C34.5649408,4.77654013 35.5020192,4.39378978 36.4741641,4.41337386 C37.3829455,4.36767261 38.2678889,4.71280053 38.9057751,5.36170213 C39.5162734,6.07262058 39.8297342,6.99123475 39.781155,7.92705167 L39.8419453,8.87537994 Z M37.7507599,7.4893617 C37.7507599,6.443769 37.325228,5.9331307 36.5349544,5.9331307 C36.1733347,5.93254343 35.8302207,6.09296037 35.5987842,6.37082067 C35.3291306,6.68705916 35.1598202,7.07647303 35.112462,7.4893617 L37.7507599,7.4893617 Z" id="Shape"></path>
                </g>
                <g id="Group" transform="translate(0.000000, 68.085106)">
                    <path d="M3.95136778,13.4832827 L2.91793313,13.4832827 C1.43675906,11.7672252 0.647887591,9.56098574 0.705167173,7.29483283 C0.648784107,4.99205797 1.43570829,2.74802693 2.91793313,0.984802432 L3.96352584,0.984802432 C2.48615302,2.75232642 1.69232384,4.99144243 1.72644377,7.29483283 C1.70080315,9.55791273 2.49058053,11.7546159 3.95136778,13.4832827 Z" id="Shape"></path>
                    <path d="M8.68085106,11.0881459 C8.3419054,11.2575683 7.96513045,11.3371096 7.58662614,11.3191489 C6.37082067,11.3191489 5.6656535,10.6018237 5.6656535,9.17933131 L5.6656535,4.86322188 L4.44984802,4.86322188 L4.44984802,3.8662614 L5.6656535,3.8662614 L5.6656535,2.07902736 L6.88145897,1.70212766 L6.88145897,3.8662614 L8.71732523,3.8662614 L8.71732523,4.86322188 L6.8449848,4.86322188 L6.8449848,8.97264438 C6.80934422,9.33839973 6.89477238,9.70574082 7.0881459,10.0182371 C7.30034924,10.245293 7.60533728,10.3619061 7.91489362,10.3343465 C8.1897323,10.3378647 8.4583669,10.2525839 8.68085106,10.0911854 L8.68085106,11.0881459 Z" id="Shape"></path>
                    <path d="M14.0425532,5.04559271 C13.7799503,4.87355821 13.4681672,4.79240919 13.1550152,4.81458967 C12.6576542,4.83268785 12.2018876,5.09703248 11.9392097,5.51975684 C11.580301,6.0939462 11.4063037,6.76447231 11.4407295,7.44072948 L11.4407295,11.1610942 L10.224924,11.1610942 L10.224924,3.8662614 L11.4407295,3.8662614 L11.4407295,5.37386018 C11.5644051,4.90217697 11.8270394,4.47857335 12.1945289,4.15805471 C12.5129844,3.87570531 12.9239445,3.71997307 13.3495441,3.72036474 C13.5856204,3.70867282 13.821564,3.74592706 14.0425532,3.82978723 L14.0425532,5.04559271 Z" id="Shape"></path>
                    <path d="M21.2036474,11.1610942 L19.9878419,11.1610942 L19.9878419,9.94528875 C19.5588861,10.786172 18.6820237,11.3028098 17.7386018,11.2705167 C16,11.2705167 15.1246201,10.2370821 15.1246201,8.17021277 L15.1246201,3.8662614 L16.3404255,3.8662614 L16.3404255,8.03647416 C16.3404255,9.58054711 16.9240122,10.3465046 18.1033435,10.3465046 C18.6221934,10.3469849 19.1152798,10.1204317 19.4528875,9.72644377 C19.8303119,9.26490646 20.0250171,8.68079084 20,8.08510638 L20,3.8662614 L21.2158055,3.8662614 L21.2036474,11.1610942 Z" id="Shape"></path>
                    <path d="M23.100304,10.9422492 L23.100304,9.72644377 C23.7038995,10.1880946 24.4437602,10.4361404 25.2036474,10.4316109 C26.224924,10.4316109 26.7355623,10.0911854 26.7355623,9.41033435 C26.7429065,9.23602847 26.7007544,9.06320465 26.6139818,8.9118541 C26.5146369,8.76990416 26.3911901,8.64645737 26.2492401,8.54711246 C26.0847497,8.43667693 25.9096098,8.34299745 25.7264438,8.2674772 L25.0699088,8.01215805 C24.7537994,7.87841945 24.4620061,7.75683891 24.218845,7.6231003 C23.9968519,7.50616806 23.7922478,7.35885304 23.6109422,7.18541033 C23.4487502,7.02641854 23.3205271,6.83615189 23.2340426,6.62613982 C23.1533038,6.3872201 23.1122335,6.13669152 23.112462,5.88449848 C23.1075856,5.56773647 23.1918436,5.25598178 23.3556231,4.98480243 C23.5089324,4.71777193 23.7209669,4.4891073 23.9756839,4.31610942 C24.2489644,4.12926457 24.5537605,3.993342 24.8753799,3.91489362 C25.7803933,3.68421117 26.7357461,3.75245066 27.5987842,4.10942249 L27.5987842,5.32522796 C27.0486678,4.97063013 26.4051111,4.78857131 25.7507599,4.80243161 C25.5498351,4.80045641 25.3495271,4.82498393 25.1550152,4.87537994 C24.9957946,4.92198476 24.8442427,4.99161672 24.7051672,5.08206687 C24.5862482,5.17013318 24.4868906,5.28191049 24.4133739,5.41033435 C24.3444182,5.53689061 24.3108201,5.67968251 24.3161094,5.82370821 C24.305223,5.98763905 24.3388285,6.15146597 24.4133739,6.29787234 C24.4873655,6.43306951 24.5913413,6.54952244 24.7173252,6.63829787 C24.8657999,6.75343328 25.0294504,6.84753232 25.2036474,6.91793313 L25.8480243,7.17325228 C26.1762918,7.30699088 26.4680851,7.42857143 26.7234043,7.56231003 C26.9583643,7.68245391 27.1786679,7.82932295 27.3799392,8 C27.5520285,8.16314599 27.6922122,8.35692926 27.7933131,8.57142857 C27.8963549,8.80904257 27.9461518,9.06632677 27.9392097,9.32522796 C27.9454893,9.65752004 27.8614472,9.98528421 27.6960486,10.2735562 C27.5410305,10.5399512 27.3241875,10.7651343 27.0638298,10.9300912 C26.7822921,11.1153469 26.4690751,11.2472277 26.1398176,11.3191489 C25.7859295,11.4076739 25.4225431,11.4525868 25.0577508,11.4528875 C24.3729795,11.44793 23.7002341,11.2724312 23.100304,10.9422492 Z" id="Shape"></path>
                    <path d="M33.1428571,11.0881459 C32.8039115,11.2575683 32.4271365,11.3371096 32.0486322,11.3191489 C30.8328267,11.3191489 30.1398176,10.6018237 30.1398176,9.17933131 L30.1398176,4.86322188 L28.9240122,4.86322188 L28.9240122,3.8662614 L30.1398176,3.8662614 L30.1398176,2.07902736 L31.3556231,1.70212766 L31.3556231,3.8662614 L33.1914894,3.8662614 L33.1914894,4.86322188 L31.3069909,4.86322188 L31.3069909,8.97264438 C31.2773779,9.33797868 31.3623733,9.70345899 31.550152,10.0182371 C31.7633849,10.2437578 32.0676007,10.3600756 32.3768997,10.3343465 C32.6517384,10.3378647 32.920373,10.2525839 33.1428571,10.0911854 L33.1428571,11.0881459 Z" id="Shape"></path>
                    <path d="M40.5592705,7.80547112 L35.4164134,7.80547112 C35.375638,8.50701203 35.6113231,9.1966094 36.0729483,9.72644377 C36.5250051,10.1791254 37.1484404,10.4178879 37.787234,10.3829787 C38.6420846,10.3875568 39.4702688,10.0856146 40.1215805,9.53191489 L40.1215805,10.6382979 C39.368481,11.1306782 38.479349,11.3731688 37.5805471,11.331307 C36.6614007,11.3811361 35.7685561,11.0150698 35.1489362,10.3343465 C33.9338287,8.66646111 33.9685311,6.39592946 35.2340426,4.76595745 C35.8386789,4.05672249 36.7342649,3.66266466 37.6656535,3.69604863 C38.5061323,3.64714072 39.322316,3.98796468 39.8784195,4.62006079 C40.4382316,5.35825181 40.7143583,6.27292137 40.656535,7.19756839 L40.5592705,7.80547112 Z M39.343465,6.82066869 C39.3709853,6.25318337 39.1989216,5.69397646 38.8571429,5.24012158 C38.5200974,4.85931401 38.0275533,4.65334099 37.5197568,4.68085106 C36.9925795,4.67121557 36.4854757,4.88287627 36.1215805,5.26443769 C35.7175186,5.6899645 35.465345,6.23705309 35.4042553,6.82066869 L39.343465,6.82066869 Z" id="Shape"></path>
                    <path d="M48.5592705,11.1610942 L47.4164134,11.1610942 L47.4164134,9.94528875 C46.9243167,10.8599615 45.9491225,11.4091 44.9118541,11.3556231 C44.0657792,11.3838758 43.2539128,11.0205543 42.7112462,10.3708207 C42.1286184,9.60998607 41.8394488,8.66479005 41.8966565,7.70820669 C41.8426382,6.66538294 42.166381,5.63803907 42.8085106,4.81458967 C43.402619,4.08872763 44.3028432,3.68362671 45.2401216,3.72036474 C46.1248482,3.65168896 46.9707103,4.09588471 47.4164134,4.86322188 L47.4164134,0.364741641 L48.6322188,0.364741641 L48.5592705,11.1610942 Z M47.343465,7.8662614 L47.343465,6.78419453 C47.354287,6.22816509 47.1444586,5.69047996 46.7598784,5.2887538 C46.3275346,4.87239045 45.7416876,4.65428823 45.1423229,4.68656172 C44.5429582,4.7188352 43.9839187,4.99858515 43.5987842,5.45896657 C43.1535351,6.08957466 42.9349766,6.85238664 42.9787234,7.6231003 C42.9391397,8.3349638 43.1451517,9.03883837 43.56231,9.61702128 C43.944899,10.0954968 44.5305327,10.3657893 45.1428571,10.3465046 C45.7534351,10.3662173 46.3397236,10.1066392 46.7355623,9.64133739 C47.1752226,9.15481852 47.4179457,8.52200484 47.4164134,7.8662614 L47.343465,7.8662614 Z" id="Shape"></path>
                    <polygon id="Shape" points="51.9878419 9.53191489 50.8571429 13.0455927 50.0182371 13.0455927 50.8571429 9.53191489"></polygon>
                    <path d="M59.2826748,10.1033435 L59.2826748,14.5167173 L58.0668693,14.5167173 L58.0668693,3.8662614 L59.2826748,3.8662614 L59.2826748,5.14285714 C59.7663079,4.20386176 60.7434427,3.62324539 61.7993921,3.64741641 C62.6452129,3.60675215 63.4607123,3.96719391 64,4.62006079 C64.5738413,5.38894446 64.8541095,6.33754452 64.7902736,7.29483283 C64.8471482,8.34538448 64.5329983,9.38250942 63.9027356,10.224924 C63.3147453,10.9600434 62.4116355,11.3709583 61.4711246,11.331307 C60.5704654,11.3590932 59.7282847,10.8865363 59.2826748,10.1033435 Z M59.2826748,7.16109422 L59.2826748,8.18237082 C59.2521664,8.75158208 59.4539936,9.30880072 59.8419453,9.72644377 C60.2628358,10.1626617 60.8531452,10.3934662 61.4582953,10.3584189 C62.0634453,10.3233716 62.6231632,10.0259632 62.9908815,9.54407295 C63.4339724,8.88095086 63.6475059,8.09087725 63.5987842,7.29483283 C63.6392267,6.61110007 63.4368447,5.93505808 63.0273556,5.38601824 C62.6612713,4.92459656 62.096023,4.66684332 61.5075988,4.69300912 C60.8819114,4.66728313 60.2782986,4.9266131 59.8662614,5.39817629 C59.4494022,5.88933302 59.2285926,6.51712489 59.2462006,7.16109422 L59.2826748,7.16109422 Z" id="Shape"></path>
                    <path d="M70.5167173,5.04559271 C70.2541144,4.87355821 69.9423313,4.79240919 69.6291793,4.81458967 C69.1318183,4.83268785 68.6760517,5.09703248 68.4133739,5.51975684 C68.0544651,6.0939462 67.8804678,6.76447231 67.9148936,7.44072948 L67.9148936,11.1610942 L66.6990881,11.1610942 L66.6990881,3.8662614 L67.9148936,3.8662614 L67.9148936,5.37386018 C68.0466307,4.90276529 68.3128011,4.48027248 68.6808511,4.15805471 C68.9943669,3.87551803 69.4016674,3.71953061 69.8237082,3.72036474 C70.0636762,3.71004635 70.3033188,3.74723228 70.5288754,3.82978723 L70.5167173,5.04559271 Z" id="Shape"></path>
                    <path d="M72.3282675,2.01823708 C72.1274234,2.02205649 71.933893,1.94288498 71.7933131,1.7993921 C71.6479364,1.65507112 71.568727,1.45704773 71.5744681,1.25227964 C71.5711464,1.05135972 71.6494972,0.85769188 71.7915885,0.71560063 C71.9336797,0.573509381 72.1273476,0.495158568 72.3282675,0.498480243 C72.5330356,0.492739163 72.731059,0.571948522 72.8753799,0.717325228 C73.0188728,0.857905196 73.0980443,1.05143555 73.0942249,1.25227964 C73.0942249,1.67530625 72.7512941,2.01823708 72.3282675,2.01823708 Z M72.9483283,11.1610942 L71.7325228,11.1610942 L71.7325228,3.8662614 L72.9483283,3.8662614 L72.9483283,11.1610942 Z" id="Shape"></path>
                    <path d="M80.9969605,3.8662614 L78.0911854,11.1610942 L76.9483283,11.1610942 L74.1762918,3.8662614 L75.4650456,3.8662614 L77.3130699,9.16717325 C77.4439089,9.49450571 77.5297964,9.83805579 77.5683891,10.1884498 C77.6102508,9.8500601 77.6835151,9.51630069 77.787234,9.19148936 L79.7325228,3.8662614 L80.9969605,3.8662614 Z" id="Shape"></path>
                    <path d="M87.5379939,11.1610942 L86.3221884,11.1610942 L86.3221884,10.0182371 C85.9297793,10.680544 85.271034,11.1416658 84.5144177,11.2836769 C83.7578014,11.425688 82.9766822,11.2348176 82.3708207,10.7598784 C81.962021,10.3572853 81.741399,9.80131796 81.7629179,9.22796353 C81.7629179,7.85410334 82.5653495,7.06382979 84.1945289,6.79635258 L86.3829787,6.49240122 C86.3829787,5.27659574 85.8844985,4.63221884 84.8753799,4.63221884 C83.9808095,4.61723036 83.1131439,4.93826662 82.443769,5.53191489 L82.443769,4.31610942 C83.1743063,3.86536119 84.0169951,3.62940832 84.8753799,3.63525836 C86.5896657,3.63525836 87.4528875,4.53495441 87.4528875,6.35866261 L87.5379939,11.1610942 Z M86.3221884,7.51367781 L84.5592705,7.75683891 C84.1308034,7.80591008 83.716983,7.9424708 83.343465,8.15805471 C83.0468249,8.41553208 82.8928534,8.80046079 82.9300912,9.19148936 C82.9221259,9.52334818 83.0652391,9.84088066 83.3191489,10.0547112 C83.5981034,10.2957098 83.9603308,10.417907 84.3282675,10.3951368 C84.8717863,10.4089446 85.3947843,10.1873353 85.7629179,9.78723404 C86.1548325,9.35248617 86.3562588,8.77885923 86.3221884,8.19452888 L86.3221884,7.51367781 Z" id="Shape"></path>
                    <path d="M93.0577508,11.0881459 C92.7235514,11.2586799 92.3503873,11.3383441 91.9756839,11.3191489 C90.6869301,11.3191489 90.0547112,10.6018237 90.0547112,9.17933131 L90.0547112,4.86322188 L88.7537994,4.86322188 L88.7537994,3.8662614 L89.9696049,3.8662614 L89.9696049,2.07902736 L91.1854103,1.70212766 L91.1854103,3.8662614 L93.0212766,3.8662614 L93.0212766,4.86322188 L91.1854103,4.86322188 L91.1854103,8.97264438 C91.1524617,9.3398263 91.2422583,9.70756467 91.4407295,10.0182371 C91.6469857,10.2465051 91.949077,10.3637345 92.2553191,10.3343465 C92.5308196,10.3424561 92.8009001,10.2567162 93.0212766,10.0911854 L93.0577508,11.0881459 Z" id="Shape"></path>
                    <path d="M100.486322,7.80547112 L95.331307,7.80547112 C95.3185486,8.51352572 95.5749089,9.20005005 96.0486322,9.72644377 C96.5052862,10.1797248 97.1326199,10.4182883 97.775076,10.3829787 C98.6004838,10.3816387 99.3998117,10.0937088 100.036474,9.56838906 L100.036474,10.674772 C99.2840662,11.1686881 98.3944265,11.4113171 97.4954407,11.3677812 C96.57659,11.4158659 95.6844637,11.0500941 95.0638298,10.3708207 C94.4319311,9.58075939 94.1156726,8.5843285 94.1762918,7.57446809 C94.1371777,6.56053577 94.4848633,5.56963165 95.1489362,4.80243161 C95.7568177,4.09757128 96.6501913,3.70448692 97.5805471,3.7325228 C98.3820002,3.70243874 99.1559673,4.02714909 99.6960486,4.62006079 C100.260192,5.35658446 100.540681,6.27140979 100.486322,7.19756839 L100.486322,7.80547112 Z M99.2705167,6.82066869 C99.3078461,6.25199317 99.1347548,5.68944644 98.7841945,5.24012158 C98.4482311,4.8578051 97.9549192,4.65151106 97.4468085,4.68085106 C96.9199161,4.67270308 96.4133845,4.88412496 96.0486322,5.26443769 C95.6490272,5.69297106 95.3975776,6.23848899 95.331307,6.82066869 L99.2705167,6.82066869 Z" id="Shape"></path>
                    <path d="M102.273556,13.4832827 L101.240122,13.4832827 C102.700909,11.7546159 103.490686,9.55791273 103.465046,7.29483283 C103.496245,4.99560625 102.702591,2.76129877 101.227964,0.996960486 L102.273556,0.996960486 C103.783276,2.74416903 104.596924,4.98602954 104.559271,7.29483283 C104.601176,9.57143136 103.78525,11.7805086 102.273556,13.4832827 Z" id="Shape"></path>
                </g>
                <g id="Group" transform="translate(290.577508, 52.279635)">
                    <path d="M5.39817629,12.0607903 C4.05974009,12.1099416 2.7623929,11.5936504 1.82370821,10.6382979 C0.883713605,9.62872335 0.388695126,8.28385014 0.449848024,6.90577508 C0.385310696,5.46807468 0.887327762,4.0624269 1.84802432,2.99088146 C2.8153824,1.98057482 4.17091539,1.43570372 5.56838906,1.49544073 C6.89939847,1.4412354 8.18902962,1.96417862 9.10638298,2.93009119 C10.0350041,3.95968762 10.5199564,5.31405879 10.4559271,6.69908815 C10.5166403,8.12889834 10.0147076,9.52558066 9.05775076,10.5896657 C8.10042233,11.5749013 6.77106167,12.1092955 5.39817629,12.0607903 Z M5.50759878,3.47720365 C4.75332151,3.44891764 4.03235499,3.78899619 3.57446809,4.38905775 C2.60713585,5.86582435 2.60713585,7.77551304 3.57446809,9.25227964 C4.03635494,9.81416829 4.72552358,10.1397817 5.45288754,10.1397817 C6.1802515,10.1397817 6.86942014,9.81416829 7.33130699,9.25227964 C7.84915713,8.55193901 8.09929252,7.68940318 8.03647416,6.82066869 C8.07979725,5.9576801 7.84078646,5.10407014 7.3556231,4.38905775 C6.93022072,3.79594656 6.23712447,3.45395828 5.50759878,3.47720365 Z" id="Shape"></path>
                    <path d="M18.8571429,11.8784195 L16.6200608,11.8784195 L16.6200608,10.7720365 C16.1644024,11.5766608 15.3076168,12.0702439 14.3829787,12.0607903 C12.6930091,12.0607903 11.8541033,11.0395137 11.8541033,8.98480243 L11.8541033,4.58358663 L14.0911854,4.58358663 L14.0911854,8.79027356 C14.0911854,9.82370821 14.5045593,10.3343465 15.3069909,10.3343465 C15.6792807,10.349027 16.0377481,10.1921975 16.2796353,9.90881459 C16.5379072,9.58583161 16.6677974,9.17884229 16.6443769,8.76595745 L16.6443769,4.58358663 L18.881459,4.58358663 L18.8571429,11.8784195 Z" id="Shape"></path>
                    <path d="M25.1671733,11.7933131 C24.6927498,12.0000627 24.1761659,12.0917147 23.6595745,12.0607903 C22.990132,12.1552774 22.3152017,11.9296704 21.8371425,11.4516113 C21.3590834,10.9735521 21.1334764,10.2986218 21.2279635,9.62917933 L21.2279635,6.24924012 L20.0121581,6.24924012 L20.0121581,4.58358663 L21.2279635,4.58358663 L21.2279635,3.01519757 L23.4772036,2.37082067 L23.4772036,4.58358663 L25.118541,4.58358663 L25.118541,6.24924012 L23.4772036,6.24924012 L23.4772036,9.19148936 C23.4772036,9.95744681 23.781155,10.3343465 24.3768997,10.3343465 C24.6381604,10.3330981 24.8942927,10.261717 25.118541,10.1276596 L25.1671733,11.7933131 Z" id="Shape"></path>
                    <path d="M25.9574468,11.6960486 L25.9574468,9.87234043 C26.3043356,10.0833723 26.6759372,10.2507972 27.0638298,10.3708207 C27.4028324,10.4740177 27.7550642,10.5272621 28.1094225,10.5288754 C28.4292623,10.544936 28.7487537,10.4909959 29.0455927,10.3708207 C29.2557148,10.2946323 29.3963233,10.0958411 29.3981763,9.87234043 C29.403163,9.73315118 29.3450916,9.5991401 29.2401216,9.50759878 C29.1190162,9.40732924 28.9838335,9.32540035 28.8389058,9.26443769 L28.3039514,9.06990881 L27.7325228,8.87537994 C27.4688347,8.77695809 27.2128127,8.65910671 26.9665653,8.52279635 C26.7595018,8.4107702 26.5741997,8.26252852 26.4194529,8.08510638 C26.2656606,7.91954056 26.1458675,7.7253932 26.0668693,7.51367781 C25.9896817,7.26167883 25.9527531,6.99907585 25.9574468,6.73556231 C25.9445562,6.36475441 26.0373191,5.99791944 26.224924,5.67781155 C26.3981147,5.38488998 26.6401727,5.13865856 26.9300912,4.96048632 C27.2436941,4.76397425 27.589369,4.62405823 27.9513678,4.54711246 C28.3493928,4.45154336 28.7578914,4.40660852 29.1671733,4.41337386 C29.4967867,4.41347338 29.825945,4.43785548 30.1519757,4.48632219 C30.4852195,4.53472853 30.8143969,4.60787905 31.1367781,4.70516717 L31.1367781,6.443769 C30.8519948,6.27601737 30.5450386,6.14914213 30.224924,6.0668693 C29.9112944,5.98535239 29.5884869,5.94449067 29.2644377,5.94528875 C29.1269585,5.93217279 28.988543,5.93217279 28.8510638,5.94528875 C28.7290427,5.96528832 28.6103846,6.00211324 28.4984802,6.05471125 C28.4087531,6.10273096 28.3300661,6.16899367 28.2674772,6.24924012 C28.2105136,6.32663834 28.1806062,6.42063287 28.1823708,6.51671733 C28.1776526,6.6415989 28.2211901,6.76350395 28.3039514,6.85714286 C28.3994318,6.96081886 28.5153384,7.04360929 28.6443769,7.10030395 C28.7932354,7.17674251 28.9476811,7.24177225 29.106383,7.29483283 L29.6048632,7.45288754 C29.8852139,7.54888519 30.1575831,7.66677631 30.4194529,7.80547112 C30.6453147,7.9171227 30.8541028,8.06040864 31.0395137,8.23100304 C31.2082646,8.39898517 31.3443148,8.59687636 31.4407295,8.81458967 C31.5383424,9.07048061 31.583813,9.34330404 31.5744681,9.61702128 C31.5910362,10.005183 31.4938432,10.3897294 31.2948328,10.7234043 C31.1092298,11.0286358 30.855365,11.2866624 30.5531915,11.4772036 C30.2168246,11.6717543 29.8515303,11.8113049 29.4711246,11.8905775 C29.071383,11.9759187 28.6640532,12.0207249 28.2553191,12.0243161 C27.4759442,12.0522402 26.697828,11.9410808 25.9574468,11.6960486 Z" id="Shape"></path>
                    <path d="M34.0425532,3.42857143 C33.6999517,3.44321551 33.3648146,3.32569988 33.106383,3.10030395 C32.8707872,2.88543928 32.7380915,2.58023919 32.7416413,2.26139818 C32.7351698,1.94547532 32.8686811,1.64284974 33.106383,1.43465046 C33.3690079,1.21784815 33.7022587,1.10532193 34.0425532,1.11854103 C34.3825192,1.10757097 34.7149963,1.21983599 34.9787234,1.43465046 C35.4187752,1.90267478 35.4187752,2.63227963 34.9787234,3.10030395 C34.7196614,3.32461486 34.3849694,3.44197439 34.0425532,3.42857143 Z M35.1489362,11.9392097 L32.8267477,11.9392097 L32.8267477,4.6443769 L35.0759878,4.6443769 L35.1489362,11.9392097 Z" id="Shape"></path>
                    <path d="M44.1337386,11.8784195 L41.8844985,11.8784195 L41.8844985,10.9422492 C41.4077814,11.728494 40.5418741,12.1940356 39.6231003,12.1580547 C38.7814296,12.1904715 37.9710297,11.8367611 37.4224924,11.1975684 C36.8227046,10.4304684 36.5243124,9.47042382 36.5835866,8.49848024 C36.5300411,7.45001591 36.8583165,6.41767612 37.5075988,5.59270517 C38.1053203,4.8729215 39.0043668,4.47284583 39.9392097,4.5106383 C40.7362852,4.4345091 41.5049837,4.82834842 41.9088146,5.51975684 L41.9088146,1.08206687 L44.1580547,1.08206687 L44.1337386,11.8784195 Z M41.9209726,8.34042553 L41.9209726,7.78115502 C41.9472059,7.33745925 41.7988446,6.90110245 41.5075988,6.56534954 C41.2403415,6.25588821 40.8462009,6.08569111 40.43769,6.10334347 C39.9577843,6.0694357 39.4956036,6.29128244 39.2218845,6.68693009 C38.9139904,7.16798143 38.765128,7.73365827 38.7963526,8.30395137 C38.7602863,8.82733218 38.9063314,9.347081 39.2097264,9.77507599 C39.4736612,10.1229928 39.8920563,10.3185471 40.3282675,10.2978723 C40.7675455,10.306635 41.1840612,10.1029045 41.4468085,9.75075988 C41.7602823,9.34805324 41.9274906,8.85071561 41.9209726,8.34042553 Z" id="Shape"></path>
                    <path d="M52.5835866,8.87537994 L47.8297872,8.87537994 C47.9027356,9.9331307 48.5714286,10.4680851 49.8237082,10.4680851 C50.5687281,10.4815269 51.3022813,10.2833832 51.9392097,9.89665653 L51.9392097,11.5136778 C51.1227946,11.9111501 50.220288,12.0991723 49.3130699,12.0607903 C48.3025408,12.1551817 47.3023571,11.7953908 46.583521,11.0789039 C45.8646849,10.3624169 45.501622,9.36341625 45.5927052,8.35258359 C45.5354891,7.28772444 45.9178731,6.24605758 46.6504559,5.47112462 C47.3308982,4.77654013 48.2679766,4.39378978 49.2401216,4.41337386 C50.1489029,4.36767261 51.0338463,4.71280053 51.6717325,5.36170213 C52.2822308,6.07262058 52.5956916,6.99123475 52.5471125,7.92705167 L52.5835866,8.87537994 Z M50.4924012,7.4893617 C50.4924012,6.443769 50.0790274,5.9331307 49.2765957,5.9331307 C48.914976,5.93254343 48.571862,6.09296037 48.3404255,6.37082067 C48.0707719,6.68705916 47.9014615,7.07647303 47.8541033,7.4893617 L50.4924012,7.4893617 Z" id="Shape"></path>
                </g>
                <g id="Group" transform="translate(258.966565, 68.085106)">
                    <path d="M3.64741641,13.4832827 L2.60182371,13.4832827 C1.12064963,11.7672252 0.331778168,9.56098574 0.389057751,7.29483283 C0.332674684,4.99205797 1.11959886,2.74802693 2.60182371,0.984802432 L3.64741641,0.984802432 C2.16962045,2.75131044 1.37951592,4.9920987 1.4224924,7.29483283 C1.39685178,9.55791273 2.18662916,11.7546159 3.64741641,13.4832827 Z" id="Shape"></path>
                    <path d="M10.9422492,11.1610942 L9.72644377,11.1610942 L9.72644377,9.94528875 C9.29748795,10.786172 8.4206255,11.3028098 7.47720365,11.2705167 C5.73860182,11.2705167 4.87537994,10.2370821 4.87537994,8.17021277 L4.87537994,3.8662614 L6.03039514,3.8662614 L6.03039514,8.03647416 C6.03039514,9.58054711 6.62613982,10.3465046 7.80547112,10.3465046 C8.34397794,10.3621083 8.85968301,10.12892 9.20364742,9.71428571 C9.5917124,9.25803102 9.79166064,8.67122639 9.76291793,8.07294833 L9.76291793,3.8662614 L10.9787234,3.8662614 L10.9422492,11.1610942 Z" id="Shape"></path>
                    <path d="M19.2948328,11.1610942 L18.0790274,11.1610942 L18.0790274,7.00303951 C18.0790274,5.44680851 17.5075988,4.68085106 16.3768997,4.68085106 C15.8203665,4.67063798 15.2888754,4.9118188 14.9300912,5.33738602 C14.5382026,5.80171136 14.334347,6.39592876 14.3586626,7.00303951 L14.3586626,11.1610942 L13.1428571,11.1610942 L13.1428571,3.8662614 L14.3586626,3.8662614 L14.3586626,5.08206687 C14.8371418,4.19276684 15.7812741,3.6546114 16.7902736,3.69604863 C17.4880117,3.65217788 18.166479,3.93524702 18.6261398,4.46200608 C19.083719,5.11478607 19.3065782,5.90336503 19.2583587,6.69908815 L19.2948328,11.1610942 Z" id="Shape"></path>
                    <path d="M24.8753799,11.0881459 C24.5411805,11.2586799 24.1680164,11.3383441 23.7933131,11.3191489 C22.5775076,11.3191489 21.8723404,10.6018237 21.8723404,9.17933131 L21.8723404,4.86322188 L20.656535,4.86322188 L20.656535,3.8662614 L21.8723404,3.8662614 L21.8723404,2.07902736 L23.0881459,1.70212766 L23.0881459,3.8662614 L24.9240122,3.8662614 L24.9240122,4.86322188 L23.100304,4.86322188 L23.100304,8.97264438 C23.0673553,9.3398263 23.1571519,9.70756467 23.3556231,10.0182371 C23.5656606,10.2484916 23.8722939,10.3657337 24.1823708,10.3343465 C24.4537353,10.3397044 24.7190892,10.2541063 24.9361702,10.0911854 L24.8753799,11.0881459 Z" id="Shape"></path>
                    <path d="M30.2370821,5.04559271 C29.9793724,4.87277618 29.6711268,4.7914336 29.3617021,4.81458967 C28.863094,4.82833077 28.4054118,5.09378644 28.1458967,5.51975684 C27.7809798,6.09134445 27.6064755,6.76382435 27.6474164,7.44072948 L27.6474164,11.1610942 L26.4316109,11.1610942 L26.4316109,3.8662614 L27.6474164,3.8662614 L27.6474164,5.37386018 C27.7791535,4.90276529 28.0453239,4.48027248 28.4133739,4.15805471 C28.9234167,3.72995788 29.6224502,3.60496514 30.2492401,3.82978723 L30.2370821,5.04559271 Z" id="Shape"></path>
                    <path d="M37.4103343,11.1610942 L36.1945289,11.1610942 L36.1945289,9.94528875 C35.7655731,10.786172 34.8887106,11.3028098 33.9452888,11.2705167 C32.2066869,11.2705167 31.343465,10.2370821 31.343465,8.17021277 L31.343465,3.8662614 L32.5592705,3.8662614 L32.5592705,8.03647416 C32.5592705,9.58054711 33.1550152,10.3465046 34.3343465,10.3465046 C34.8728533,10.3621083 35.3885584,10.12892 35.7325228,9.71428571 C36.1205878,9.25803102 36.320536,8.67122639 36.2917933,8.07294833 L36.2917933,3.8662614 L37.5075988,3.8662614 L37.4103343,11.1610942 Z" id="Shape"></path>
                    <path d="M39.331307,10.9422492 L39.331307,9.72644377 C39.9302825,10.1880196 40.666316,10.436217 41.4224924,10.4316109 C42.4559271,10.4316109 42.9665653,10.0911854 42.9665653,9.41033435 C42.9702372,9.23484434 42.9238479,9.06193868 42.8328267,8.9118541 C42.7381028,8.77012961 42.6186762,8.64658484 42.4802432,8.54711246 C42.3099577,8.43928001 42.1310269,8.34574804 41.9452888,8.2674772 L41.3009119,8.01215805 C41.0100653,7.89874046 40.7259169,7.76884405 40.449848,7.6231003 C40.2260154,7.50314901 40.0177684,7.35615113 39.8297872,7.18541033 C39.6752581,7.02267907 39.5516606,6.83316292 39.4650456,6.62613982 C39.3784421,6.38871861 39.3372004,6.13714398 39.343465,5.88449848 C39.3342616,5.56883639 39.4143315,5.25698533 39.5744681,4.98480243 C39.7322784,4.71722645 39.9483735,4.48866425 40.2066869,4.31610942 C40.4756199,4.12941781 40.7764069,3.99344561 41.0942249,3.91489362 C42.0032959,3.68414228 42.9625168,3.75235355 43.8297872,4.10942249 L43.8297872,5.32522796 C43.2759077,4.96897582 42.6279788,4.78687816 41.9696049,4.80243161 C41.7726798,4.80037886 41.5763788,4.82491649 41.3860182,4.87537994 C41.2249684,4.91696918 41.0726317,4.98696175 40.9361702,5.08206687 C40.811088,5.16317977 40.7102656,5.27660495 40.6443769,5.41033435 C40.5717421,5.53592286 40.5339664,5.6786313 40.5349544,5.82370821 C40.5278022,5.98875691 40.5656232,6.15264807 40.6443769,6.29787234 C40.7147515,6.43558525 40.8194365,6.55283246 40.9483283,6.63829787 C41.0924218,6.75337955 41.2520547,6.847522 41.4224924,6.91793313 L42.0790274,7.17325228 C42.3951368,7.30699088 42.6869301,7.42857143 42.9422492,7.56231003 C43.1772093,7.68245391 43.3975129,7.82932295 43.5987842,8 C43.7746914,8.15976681 43.9154614,8.35436052 44.0121581,8.57142857 C44.1151998,8.80904257 44.1649968,9.06632677 44.1580547,9.32522796 C44.1686468,9.65645436 44.0887854,9.98430662 43.9270517,10.2735562 C43.7674636,10.5404825 43.5465718,10.7655422 43.2826748,10.9300912 C43.0043215,11.1130517 42.6955182,11.2448078 42.3708207,11.3191489 C42.0126818,11.4070106 41.6453533,11.4519063 41.2765957,11.4528875 C40.5956066,11.4484821 39.926661,11.2728839 39.331307,10.9422492 Z" id="Shape"></path>
                    <path d="M49.337386,11.0881459 C49.0031866,11.2586799 48.6300225,11.3383441 48.2553191,11.3191489 C46.9787234,11.3191489 46.3343465,10.6018237 46.3343465,9.17933131 L46.3343465,4.86322188 L45.118541,4.86322188 L45.118541,3.8662614 L46.3343465,3.8662614 L46.3343465,2.07902736 L47.550152,1.70212766 L47.550152,3.8662614 L49.3860182,3.8662614 L49.3860182,4.86322188 L47.550152,4.86322188 L47.550152,8.97264438 C47.5172033,9.3398263 47.6069999,9.70756467 47.8054711,10.0182371 C48.0155086,10.2484916 48.3221419,10.3657337 48.6322188,10.3343465 C48.9035833,10.3397044 49.1689373,10.2541063 49.3860182,10.0911854 L49.337386,11.0881459 Z" id="Shape"></path>
                    <path d="M56.7659574,7.80547112 L51.6109422,7.80547112 C51.5847985,8.50703351 51.8235017,9.19276275 52.2796353,9.72644377 C52.7371304,10.1784182 53.3638626,10.416753 54.006079,10.3829787 C54.832201,10.3857391 55.6328794,10.0973227 56.2674772,9.56838906 L56.2674772,10.674772 C55.5161256,11.1710268 54.6257068,11.4138683 53.7264438,11.3677812 C52.8075931,11.4158659 51.9154667,11.0500941 51.2948328,10.3708207 C50.6662405,9.57957524 50.3542394,8.5829049 50.4194529,7.57446809 C50.3757549,6.5619786 50.7191784,5.57083228 51.3799392,4.80243161 C51.9878207,4.09757128 52.8811943,3.70448692 53.8115502,3.7325228 C54.6523441,3.68175883 55.469311,4.02290987 56.0243161,4.65653495 C56.5884593,5.39305862 56.8689482,6.30788395 56.8145897,7.23404255 L56.7659574,7.80547112 Z M55.550152,6.82066869 C55.5874814,6.25199317 55.4143901,5.68944644 55.0638298,5.24012158 C54.7278663,4.8578051 54.2345545,4.65151106 53.7264438,4.68085106 C53.1995514,4.67270308 52.6930198,4.88412496 52.3282675,5.26443769 C51.9286625,5.69297106 51.6772128,6.23848899 51.6109422,6.82066869 L55.550152,6.82066869 Z" id="Shape"></path>
                    <path d="M64.7537994,11.1610942 L63.5379939,11.1610942 L63.5379939,9.94528875 C63.0525144,10.7397234 62.2196733,11.2575023 61.2924278,11.3413617 C60.3651822,11.4252211 59.4529594,11.0652645 58.8328267,10.3708207 C58.2458633,9.61166243 57.9523286,8.66630802 58.006079,7.70820669 C57.9520607,6.66538294 58.2758035,5.63803907 58.9179331,4.81458967 C59.5143882,4.09179634 60.4130061,3.6874183 61.3495441,3.72036474 C62.2523469,3.67013665 63.103688,4.14310388 63.5379939,4.93617021 L63.5379939,0.364741641 L64.7537994,0.364741641 L64.7537994,11.1610942 Z M63.5379939,7.8662614 L63.5379939,6.78419453 C63.5488159,6.22816509 63.3389875,5.69047996 62.9544073,5.2887538 C62.568532,4.88498223 62.0293789,4.66401783 61.4711246,4.68085106 C60.818929,4.65363149 60.1938409,4.9435274 59.7933131,5.45896657 C59.3523638,6.09112007 59.138127,6.85380281 59.1854103,7.6231003 C59.1458266,8.3349638 59.3518387,9.03883837 59.768997,9.61702128 C60.1478488,10.1002454 60.7360306,10.3717139 61.3495441,10.3465046 C61.9566182,10.3660795 62.5391435,10.1061836 62.9300912,9.64133739 C63.3661102,9.1543059 63.6007907,8.51979914 63.5866261,7.8662614 L63.5379939,7.8662614 Z" id="Shape"></path>
                    <polygon id="Shape" points="68.1945289 9.53191489 67.0516717 13.0455927 66.212766 13.0455927 67.0516717 9.53191489"></polygon>
                    <path d="M75.4772036,10.1033435 L75.4772036,14.5167173 L74.2613982,14.5167173 L74.2613982,3.8662614 L75.4772036,3.8662614 L75.4772036,5.14285714 C75.9671524,4.20399389 76.9473141,3.62437906 78.006079,3.64741641 C78.8511817,3.61058544 79.6650479,3.97030531 80.2066869,4.62006079 C80.7639526,5.37867419 81.0430185,6.30603148 80.9969605,7.24620061 C81.0503542,8.29823336 80.7318551,9.33550735 80.0972644,10.1762918 C79.5130598,10.9162571 78.6073309,11.3283637 77.6656535,11.2826748 C76.7751626,11.3203525 75.93542,10.8678245 75.4772036,10.1033435 Z M75.4772036,7.16109422 L75.4772036,8.18237082 C75.4620021,8.750005 75.6717684,9.30064142 76.0607903,9.71428571 C76.4423258,10.1342878 76.9891225,10.3654539 77.556231,10.3465046 C78.2134657,10.3740659 78.8401087,10.0676054 79.2218845,9.53191489 C79.660697,8.86731354 79.8699294,8.07735463 79.8176292,7.28267477 C79.8615614,6.6004232 79.6635283,5.92452778 79.2583587,5.37386018 C78.8897939,4.91561935 78.3262509,4.65864373 77.7386018,4.68085106 C77.1129145,4.65512508 76.5093016,4.91445504 76.0972644,5.38601824 C75.6687816,5.87674084 75.4389804,6.50977801 75.4528875,7.16109422 L75.4772036,7.16109422 Z" id="Shape"></path>
                    <path d="M88.7537994,11.1610942 L87.5379939,11.1610942 L87.5379939,9.94528875 C87.1090381,10.786172 86.2321757,11.3028098 85.2887538,11.2705167 C83.550152,11.2705167 82.674772,10.2370821 82.674772,8.17021277 L82.674772,3.8662614 L83.8905775,3.8662614 L83.8905775,8.03647416 C83.8905775,9.58054711 84.4741641,10.3465046 85.6534954,10.3465046 C86.1954931,10.3622307 86.7149537,10.1293691 87.0638298,9.71428571 C87.4412541,9.25274841 87.6359593,8.66863278 87.6109422,8.07294833 L87.6109422,3.8662614 L88.8267477,3.8662614 L88.7537994,11.1610942 Z" id="Shape"></path>
                    <path d="M92.3161094,10.1033435 L92.3161094,11.1610942 L91.100304,11.1610942 L91.100304,0.364741641 L92.3161094,0.364741641 L92.3161094,5.14285714 C92.7997425,4.20386176 93.7768774,3.62324539 94.8328267,3.64741641 C95.6779294,3.61058544 96.4917956,3.97030531 97.0334347,4.62006079 C97.5907003,5.37867419 97.8697662,6.30603148 97.8237082,7.24620061 C97.8805829,8.29675226 97.566433,9.3338772 96.9361702,10.1762918 C96.34818,10.9114111 95.4450702,11.3223261 94.5045593,11.2826748 C93.6140684,11.3203525 92.7743258,10.8678245 92.3161094,10.1033435 Z M92.3161094,7.16109422 L92.3161094,8.18237082 C92.298691,8.75267594 92.5137121,9.30558743 92.9118541,9.71428571 C93.3327446,10.1505037 93.923054,10.3813082 94.5282041,10.3462609 C95.1333542,10.3112136 95.693072,10.0138052 96.0607903,9.53191489 C96.5038813,8.86879281 96.7174147,8.0787192 96.668693,7.28267477 C96.7064885,6.60111701 96.5090514,5.92725538 96.1094225,5.37386018 C95.7370499,4.91367558 95.1689868,4.65669468 94.5775076,4.68085106 C93.9518202,4.65512508 93.3482074,4.91445504 92.9361702,5.38601824 C92.5032871,5.87493305 92.2690773,6.50816694 92.2796353,7.16109422 L92.3161094,7.16109422 Z" id="Shape"></path>
                    <polygon id="Shape" points="100.911854 11.1610942 99.6960486 11.1610942 99.6960486 0.364741641 100.911854 0.364741641"></polygon>
                    <path d="M103.829787,2.01823708 C103.62867,2.02353556 103.434571,1.94413163 103.294833,1.7993921 C103.148498,1.65742729 103.065911,1.46224052 103.065911,1.25835866 C103.065911,1.05447681 103.148498,0.85929004 103.294833,0.717325228 C103.434571,0.572585698 103.62867,0.493181766 103.829787,0.498480243 C104.030631,0.494660835 104.224162,0.573832342 104.364742,0.717325228 C104.492557,0.851474676 104.562437,1.03054116 104.559271,1.21580547 C104.566321,1.4197297 104.481539,1.61606557 104.328267,1.75075988 C104.20672,1.90558205 104.025996,2.00255621 103.829787,2.01823708 Z M104.389058,11.1610942 L103.173252,11.1610942 L103.173252,3.8662614 L104.389058,3.8662614 L104.389058,11.1610942 Z" id="Shape"></path>
                    <path d="M111.732523,10.8206687 C111.128133,11.1725815 110.437746,11.3493878 109.738602,11.331307 C108.791318,11.3717833 107.873092,10.9991697 107.221884,10.3100304 C106.565558,9.59700986 106.219969,8.65210844 106.261398,7.68389058 C106.208261,6.62043313 106.580034,5.57946842 107.294833,4.79027356 C108.018013,4.05068562 109.021211,3.65294179 110.054711,3.69604863 C110.637214,3.68676846 111.214484,3.80720614 111.744681,4.04863222 L111.744681,5.26443769 C111.242229,4.89088503 110.632172,4.69037663 110.006079,4.69300912 C109.307243,4.68422571 108.638415,4.97656116 108.170213,5.49544073 C107.674183,6.08087753 107.417931,6.83225957 107.452888,7.59878419 C107.412481,8.33396817 107.656244,9.05655102 108.133739,9.61702128 C108.594062,10.1185768 109.253086,10.3902014 109.933131,10.3586626 C110.586975,10.3563719 111.220938,10.1336282 111.732523,9.72644377 L111.732523,10.8206687 Z" id="Shape"></path>
                    <path d="M113.531915,13.4832827 L112.486322,13.4832827 C113.947109,11.7546159 114.736887,9.55791273 114.711246,7.29483283 C114.747883,4.99471038 113.953576,2.75856358 112.474164,0.996960486 L113.531915,0.996960486 C115.016308,2.75418174 115.803734,4.99531962 115.744681,7.29483283 C115.80787,9.56192975 115.018257,11.770242 113.531915,13.4832827 Z" id="Shape"></path>
                </g>
            </g>
        </g>
    </g>
</svg>