<svg xmlns="http://www.w3.org/2000/svg" xmlns:xlink="http://www.w3.org/1999/xlink" viewBox="0 0 647.75 188.9">
  <defs>
    <symbol id="AzureLoadBalancerAutomatic" data-name="AzureLoadBalancerAutomatic" viewBox="0 0 52 34.5">
      <g id="Layer_1" data-name="Layer 1">
        <path d="M51.9,31,47.2,1.4A1.44,1.44,0,0,0,45.8,0H6.6A1.31,1.31,0,0,0,5.2,1.4L0,31H0v.3H0v.5a2.52,2.52,0,0,0,2.2,2.7H49.8A2.52,2.52,0,0,0,52,31.8,2.49,2.49,0,0,1,51.9,31ZM35.5,23.4H29.7a.8.8,0,1,1,0-1.6h2.7l-6.5-6.5v13l2-2a.85.85,0,1,1,1.2,1.2l-4,4L21,27.4a.73.73,0,0,1-.2-.6,1.42,1.42,0,0,1,.2-.6.91.91,0,0,1,1.2,0l2.1,2.1v-13l-6.5,6.5h2.9a.8.8,0,1,1,0,1.6H14.9V17.6a.8.8,0,0,1,1.6,0v2.9l7.7-7.7v-4a2.71,2.71,0,0,1-1.8-2.5,2.6,2.6,0,0,1,5.2,0,2.71,2.71,0,0,1-1.8,2.5v4l7.9,7.9V17.6a.8.8,0,0,1,1.6,0v5.8Z" fill="#0078d7"/>
      </g>
    </symbol>
  </defs>
  <title>1-components</title>
  <g id="Shapes">
    <rect width="647.75" height="188.9" fill="#fff"/>
    <path d="M244.75,48.42a11.53,11.53,0,0,1-2.44,7.28,9.62,9.62,0,0,0-1.49,2.8,9.85,9.85,0,0,0-.47,3.12,8.57,8.57,0,0,1-.69,3.42A8.72,8.72,0,0,1,235,69.73a8.87,8.87,0,0,1-6.86,0,8.9,8.9,0,0,1-2.8-1.88,8.74,8.74,0,0,1-2.57-6.23H225a6.51,6.51,0,0,0,.51,2.57,6.85,6.85,0,0,0,1.42,2.09A6.6,6.6,0,0,0,229,67.7a6.59,6.59,0,0,0,5.13,0,6.6,6.6,0,0,0,2.1-1.42,6.51,6.51,0,0,0,1.42-2.09,6.35,6.35,0,0,0,.52-2.57,11.59,11.59,0,0,1,2.44-7.29,9.59,9.59,0,0,0,2-5.91,8.34,8.34,0,0,0-.7-3.42A8.87,8.87,0,0,0,240,42.2a9.29,9.29,0,0,0-2.79-1.89,8.82,8.82,0,0,0-6.84,0A8.87,8.87,0,0,0,225.64,45a8.5,8.5,0,0,0-.69,3.42h-2.2a10.61,10.61,0,0,1,.86-4.29,10.93,10.93,0,0,1,5.85-5.85,11.13,11.13,0,0,1,8.58,0,10.9,10.9,0,0,1,3.49,2.35,11.13,11.13,0,0,1,2.36,3.5A10.78,10.78,0,0,1,244.75,48.42Zm-6.6,2.2v-1.1a4.25,4.25,0,0,0-.35-1.71,4.43,4.43,0,0,0-2.34-2.35,4.31,4.31,0,0,0-1.71-.34,4.37,4.37,0,0,0-1.45.24,4.22,4.22,0,0,0-1.25.68,4.37,4.37,0,0,0-1,1,4.62,4.62,0,0,0-.6,1.34A6.44,6.44,0,0,1,232,49a7,7,0,0,1,2.06,1.42,6.75,6.75,0,0,1,1.38,2.08,6.6,6.6,0,0,1,0,5.11A6.51,6.51,0,0,1,234,59.68a6.6,6.6,0,0,1-2.1,1.42,6.51,6.51,0,0,1-2.56.52v-2.2a4.32,4.32,0,0,0,1.71-.35,4.37,4.37,0,0,0,2.34-2.34,4.32,4.32,0,0,0,.35-1.71,4.18,4.18,0,0,0-.34-1.69A4.42,4.42,0,0,0,231.12,51a4.21,4.21,0,0,0-1.69-.37,7.48,7.48,0,0,0,.63,2,6.71,6.71,0,0,0,1.18,1.68l-1.58,1.51a8.65,8.65,0,0,1-1.88-2.88,9.13,9.13,0,0,1-.63-3.37,6.46,6.46,0,0,1,.51-2.56,6.7,6.7,0,0,1,1.42-2.11,6.77,6.77,0,0,1,2.1-1.42,6.71,6.71,0,0,1,5.13,0,6.77,6.77,0,0,1,2.1,1.42A6.38,6.38,0,0,1,239.83,47a6.3,6.3,0,0,1,.52,2.56v1.1Z" fill="#1e1e1e"/>
    <g>
      <path d="M252.5,140.15a5.57,5.57,0,0,1-.34,2,5.92,5.92,0,0,1-.91,1.75v10l-5-2.5-5,2.5v-10a5,5,0,0,1-.92-1.75,5.56,5.56,0,0,1-.33-2,5.85,5.85,0,0,1,.5-2.41,6.15,6.15,0,0,1,3.33-3.34,6.08,6.08,0,0,1,4.83,0,6.56,6.56,0,0,1,3.34,3.34A6.63,6.63,0,0,1,252.5,140.15Zm-6.25-3.75a3.28,3.28,0,0,0-1.5.34,3.83,3.83,0,0,0-2,2,3.52,3.52,0,0,0,0,2.91,3.83,3.83,0,0,0,2,2,3.52,3.52,0,0,0,2.91,0,3.83,3.83,0,0,0,2-2,3.52,3.52,0,0,0,0-2.91,4,4,0,0,0-3.41-2.34Zm0,12.25c.41.25.83.42,1.25.67a7.39,7.39,0,0,0,1.25.58v-4a6.47,6.47,0,0,1-5,0v4a8.26,8.26,0,0,1,1.25-.58C245.41,149.07,245.83,148.9,246.25,148.65Z"/>
      <path d="M237.83,141.32H216.25v-25h35v17a9.14,9.14,0,0,1,2.5,2.83V113.82h-40v30h24.83A14.84,14.84,0,0,1,237.83,141.32Z"/>
      <path d="M238.58,136.32H221.25v-15h25v10.33a12.73,12.73,0,0,1,2.5.34V118.82h-30v20h19.08A14.84,14.84,0,0,1,238.58,136.32Z"/>
    </g>
    <g>
      <path d="M512.83,140.15a5.56,5.56,0,0,1-.33,2,5.71,5.71,0,0,1-.92,1.75v10l-5-2.5-5,2.5v-10a5,5,0,0,1-.92-1.75,5.56,5.56,0,0,1-.33-2,6,6,0,0,1,.5-2.41,6.42,6.42,0,0,1,1.33-2,6.57,6.57,0,0,1,2-1.34,6.11,6.11,0,0,1,4.84,0,6.54,6.54,0,0,1,3.33,3.34A6.63,6.63,0,0,1,512.83,140.15Zm-6.25-3.75a3.28,3.28,0,0,0-1.5.34,3.87,3.87,0,0,0-2,2,3.52,3.52,0,0,0,0,2.91,3.87,3.87,0,0,0,2,2,3.54,3.54,0,0,0,2.92,0,3.9,3.9,0,0,0,2-2,3.6,3.6,0,0,0,0-2.91,4,4,0,0,0-3.42-2.34Zm0,12.25c.42.25.83.42,1.25.67a7.77,7.77,0,0,0,1.25.58v-4a6.47,6.47,0,0,1-5,0v4a8.73,8.73,0,0,1,1.25-.58C505.75,149.07,506.16,148.9,506.58,148.65Z"/>
      <path d="M498.16,141.32H476.58v-25h35v17a9,9,0,0,1,2.5,2.83V113.82h-40v30h24.83A14.84,14.84,0,0,1,498.16,141.32Z"/>
      <path d="M498.91,136.32H481.58v-15h25v10.33a12.63,12.63,0,0,1,2.5.34V118.82h-30v20h19.08A14.84,14.84,0,0,1,498.91,136.32Z"/>
    </g>
    <g>
      <rect x="391.58" y="28.92" width="50" height="50" fill="none" stroke="#fff" stroke-miterlimit="10"/>
      <rect x="400.69" y="38.03" width="31.77" height="31.77" transform="translate(83.89 310.36) rotate(-45)" fill="#50e6ff"/>
      <rect x="421.68" y="55.33" width="9.75" height="2.38" transform="translate(84.97 318.17) rotate(-45)"/>
      <rect x="425.24" y="46.15" width="2.38" height="10.08" transform="translate(88.7 316.53) rotate(-45)"/>
      <rect x="415.42" y="52.73" width="13.22" height="2.38"/>
      <rect x="415.4" y="52.94" width="2.38" height="23.52"/>
    </g>
    <g>
      <g>
        <rect x="602.17" y="35.12" width="40.11" height="37.6" rx="5" fill="#fff"/>
        <rect x="602.17" y="35.12" width="40.11" height="37.6" rx="5" fill="none" stroke="#0072c6" stroke-width="3"/>
      </g>
      <g>
        <path d="M621.84,41.67a6.64,6.64,0,0,0-5.29-2.62,6.78,6.78,0,0,0-4.07,1.38,6.68,6.68,0,1,0,9.36,1.24Zm.31,5.56-1-.78a1.33,1.33,0,0,0-.14-1.22,1.28,1.28,0,0,0-1.63-.3c-.59-.52-1.23-1.12-1.91-1.8a6.76,6.76,0,0,1,3.64-1l.06.08A5.72,5.72,0,0,1,622.15,47.23Zm-3.66,1.58a1.16,1.16,0,0,0-.21-.45,1.12,1.12,0,0,0-1.53-.27,10.56,10.56,0,0,1-1.56-1l-.13-.11a1.79,1.79,0,0,0-.25-1.72l0,0a3.06,3.06,0,0,1,.36-.36,10.64,10.64,0,0,1,1.52-1.24h0l0,0c.74.67,1.5,1.3,2.23,1.87a1.24,1.24,0,0,0,.11,1.27,1.27,1.27,0,0,0,1.76.25l.08-.08,1.17.82a5.86,5.86,0,0,1-.65,1.27A6.1,6.1,0,0,1,618.49,48.81Zm1.79-7.51a6.34,6.34,0,0,0-3.88.72h0c-.52-.56-1.08-1.18-1.64-1.81a5.71,5.71,0,0,1,1.78-.28A5.77,5.77,0,0,1,620.28,41.3ZM613,41.13a4.88,4.88,0,0,1,1-.6,11.64,11.64,0,0,0,1.57,2,10.1,10.1,0,0,0-1.61,1.39l-.54.64a1.72,1.72,0,0,0-.9.25,4.83,4.83,0,0,1-.7-2.42A5.68,5.68,0,0,1,613,41.13Zm-1.87,2.48a4.47,4.47,0,0,0,.66,2,1.76,1.76,0,0,0,.21,1.79h0a9.52,9.52,0,0,0-.26,1.65A5.79,5.79,0,0,1,611.14,43.61Zm8.93,6.74a5.79,5.79,0,0,1-7.26-.16,8.25,8.25,0,0,1,.3-2.15,1.8,1.8,0,0,0,1.3-.29l.15.11a10.43,10.43,0,0,0,1.66,1.06,1.11,1.11,0,0,0,.23.85,1.15,1.15,0,0,0,1.62.21,1,1,0,0,0,.28-.31,10,10,0,0,0,2.23.24C620.42,50.06,620.25,50.21,620.07,50.35Z"/>
        <path d="M635.21,51.69a6.68,6.68,0,1,0-5.3,10.74A6.73,6.73,0,0,0,634,61.05,6.65,6.65,0,0,0,635.21,51.69Zm.31,5.57c-.23-.18-.58-.44-1-.79a1.31,1.31,0,0,0-.15-1.22,1.25,1.25,0,0,0-1.62-.29c-.59-.52-1.23-1.13-1.91-1.81a6.69,6.69,0,0,1,3.64-1l.06.08A5.72,5.72,0,0,1,635.52,57.26Zm-3.66,1.57a1.23,1.23,0,0,0-.21-.45,1.13,1.13,0,0,0-1.53-.27,10.44,10.44,0,0,1-1.56-1l-.14-.12a1.74,1.74,0,0,0-.24-1.71l0,0,.37-.36A11.24,11.24,0,0,1,630,53.62h0c.73.67,1.5,1.31,2.23,1.88a1.24,1.24,0,0,0,.11,1.27,1.27,1.27,0,0,0,1.76.24l.08-.07c.52.37.93.65,1.17.81a5.71,5.71,0,0,1-.65,1.28A6.16,6.16,0,0,1,631.86,58.83Zm1.79-7.5a6.27,6.27,0,0,0-3.88.72h0c-.52-.56-1.08-1.18-1.64-1.81a5.79,5.79,0,0,1,5.52,1.09Zm-7.28-.17a5.26,5.26,0,0,1,1-.6,12,12,0,0,0,1.57,2,9.68,9.68,0,0,0-1.61,1.39q-.28.32-.54.63a1.74,1.74,0,0,0-.9.26,4.86,4.86,0,0,1-.7-2.42A5.86,5.86,0,0,1,626.37,51.16Zm-1.86,2.47a4.47,4.47,0,0,0,.66,2,1.77,1.77,0,0,0,.21,1.79h0a9.56,9.56,0,0,0-.26,1.64A5.76,5.76,0,0,1,624.51,53.63Zm8.93,6.75a5.79,5.79,0,0,1-7.26-.16,7.91,7.91,0,0,1,.3-2.16,1.71,1.71,0,0,0,1.3-.29l.15.12a9.31,9.31,0,0,0,1.66,1,1.16,1.16,0,0,0,.22.86,1.18,1.18,0,0,0,1.63.21,1.38,1.38,0,0,0,.28-.31,10.44,10.44,0,0,0,2.23.23A5.47,5.47,0,0,1,633.44,60.38Z"/>
        <path d="M619.84,58a6.68,6.68,0,1,0-1.24,9.36A6.65,6.65,0,0,0,619.84,58Zm.31,5.57c-.24-.18-.58-.44-1-.79A1.31,1.31,0,0,0,619,61.6a1.26,1.26,0,0,0-1.63-.29c-.58-.52-1.23-1.13-1.9-1.81a6.67,6.67,0,0,1,3.63-1l.07.08A5.79,5.79,0,0,1,620.15,63.61Zm-3.67,1.57a1.2,1.2,0,0,0-.2-.45,1.13,1.13,0,0,0-1.53-.27,10.44,10.44,0,0,1-1.56-1l-.14-.12a1.77,1.77,0,0,0-.25-1.71l0,0,.36-.36A11.9,11.9,0,0,1,614.65,60h0c.73.67,1.5,1.31,2.23,1.88a1.24,1.24,0,0,0,.1,1.27,1.29,1.29,0,0,0,1.77.25l.07-.08,1.17.81a5.71,5.71,0,0,1-.65,1.28A6.16,6.16,0,0,1,616.48,65.18Zm1.79-7.5a6.23,6.23,0,0,0-3.87.72h0c-.53-.56-1.08-1.18-1.65-1.81a5.79,5.79,0,0,1,5.52,1.09ZM611,57.51a5.53,5.53,0,0,1,1-.6,12.6,12.6,0,0,0,1.57,2,9.65,9.65,0,0,0-1.6,1.39q-.29.31-.54.63a1.68,1.68,0,0,0-.9.26,4.76,4.76,0,0,1-.7-2.42A5.86,5.86,0,0,1,611,57.51ZM609.13,60a4.47,4.47,0,0,0,.66,2,1.77,1.77,0,0,0,.22,1.79h0a10.65,10.65,0,0,0-.26,1.64A5.82,5.82,0,0,1,609.13,60Zm8.94,6.75a5.8,5.8,0,0,1-3.54,1.2,5.71,5.71,0,0,1-3.72-1.36,7.84,7.84,0,0,1,.29-2.16,1.73,1.73,0,0,0,1.31-.29l.15.12a9.25,9.25,0,0,0,1.65,1.05,1.13,1.13,0,0,0,.23.86,1.18,1.18,0,0,0,1.63.21,1.14,1.14,0,0,0,.27-.31,10.52,10.52,0,0,0,2.24.23A5.47,5.47,0,0,1,618.07,66.73Z"/>
      </g>
    </g>
    <use width="52" height="34.5" transform="translate(129.71 37.42) scale(0.96)" xlink:href="#AzureLoadBalancerAutomatic"/>
    <g>
      <line x1="233.75" y1="108.82" x2="233.75" y2="84.2" fill="none" stroke="#000" stroke-miterlimit="10"/>
      <polygon points="237.49 85.3 233.75 78.82 230.01 85.3 237.49 85.3"/>
    </g>
    <line x1="416.58" y1="112.32" x2="416.58" y2="78.32" fill="none" stroke="#000"/>
    <g>
      <line x1="80.08" y1="53.92" x2="119.7" y2="53.92" fill="none" stroke="#000" stroke-miterlimit="10"/>
      <polygon points="118.6 57.66 125.08 53.92 118.6 50.18 118.6 57.66"/>
    </g>
    <g>
      <line x1="183.75" y1="53.92" x2="213.37" y2="53.92" fill="none" stroke="#000" stroke-miterlimit="10"/>
      <polygon points="212.27 57.66 218.75 53.92 212.27 50.18 212.27 57.66"/>
    </g>
    <g>
      <line x1="248.75" y1="53.92" x2="278.37" y2="53.92" fill="none" stroke="#000" stroke-miterlimit="10"/>
      <polygon points="277.27 57.66 283.75 53.92 277.27 50.18 277.27 57.66"/>
    </g>
    <g>
      <line x1="343.75" y1="53.92" x2="383.37" y2="53.92" fill="none" stroke="#000" stroke-miterlimit="10"/>
      <polygon points="382.27 57.66 388.75 53.92 382.27 50.18 382.27 57.66"/>
    </g>
    <g>
      <line x1="444.08" y1="53.92" x2="483.7" y2="53.92" fill="none" stroke="#000" stroke-miterlimit="10"/>
      <polygon points="482.6 57.66 489.08 53.92 482.6 50.18 482.6 57.66"/>
    </g>
    <g>
      <line x1="550.21" y1="53.92" x2="589.83" y2="53.92" fill="none" stroke="#000" stroke-miterlimit="10"/>
      <polygon points="588.74 57.66 595.22 53.92 588.74 50.18 588.74 57.66"/>
    </g>
    <g>
      <path d="M436.59,136V131.8h-4.35a15.69,15.69,0,0,0-3.1-7.47l3.08-3.08-3-3-3.07,3.07a15.78,15.78,0,0,0-7.48-3.09V113.9h-4.21v4.35a15.65,15.65,0,0,0-7.47,3.1l-3.08-3.08-3,3,3.07,3.07a15.78,15.78,0,0,0-3.09,7.47h-4.37V136h4.35a15.65,15.65,0,0,0,3.1,7.47l-3.08,3.08,3,3,3.07-3.07a15.82,15.82,0,0,0,7.48,3.09v4.35h4.21v-4.35a15.74,15.74,0,0,0,7.47-3.09l3.08,3.07,3-3-3.07-3.08a15.85,15.85,0,0,0,3.1-7.47h4.36ZM405,133.91a11.57,11.57,0,1,1,3.39,8.18A11.5,11.5,0,0,1,405,133.91Z" fill="#0078d4"/>
      <path d="M416.58,143.93a10,10,0,1,0-10-10A10,10,0,0,0,416.58,143.93Z" fill="#50e6ff"/>
      <path d="M414.35,139.08l-3.65-3.65,1.49-1.5,2.16,2.17,6.63-6.63,1.49,1.49Z" fill="#0078d7"/>
    </g>
    <g>
      <line x1="469.08" y1="133.9" x2="449.46" y2="133.9" fill="none" stroke="#000" stroke-miterlimit="10"/>
      <polygon points="450.56 130.16 444.08 133.9 450.56 137.64 450.56 130.16"/>
    </g>
    <g>
      <path d="M302.39,41.92h-1.26v6.31h1.26Z"/>
      <path d="M306.8,48.23c-1.2,0-2.52-1.2-2.52-3.16a2.58,2.58,0,1,1,5,0C309.32,47,308,48.23,306.8,48.23Zm0-5c-.5,0-1.26.63-1.26,1.89s.76,1.9,1.26,1.9,1.26-.63,1.26-1.9S307.31,43.18,306.8,43.18Z"/>
      <path d="M312.48,41.92h-1.27v6.31h1.27Z"/>
      <path d="M316.89,48.23c-1.2,0-2.52-1.2-2.52-3.16a2.58,2.58,0,1,1,5,0C319.41,47,318.09,48.23,316.89,48.23Zm0-5c-.51,0-1.26.63-1.26,1.89s.75,1.9,1.26,1.9,1.26-.63,1.26-1.9S317.39,43.18,316.89,43.18Z"/>
      <path d="M322.56,41.92H321.3v6.31h1.26Z"/>
      <path d="M327,48.23a2.89,2.89,0,0,1-2.53-3.16,2.59,2.59,0,1,1,5.05,0A2.89,2.89,0,0,1,327,48.23Zm0-5c-.51,0-1.27.63-1.27,1.89S326.47,47,327,47s1.26-.63,1.26-1.9S327.48,43.18,327,43.18Z"/>
      <path d="M303,57.07a2.88,2.88,0,0,1-2.52-3.15c0-2,1.32-3.16,2.52-3.16s2.52,1.2,2.52,3.16A2.88,2.88,0,0,1,303,57.07Zm0-5c-.51,0-1.26.63-1.26,1.9s.75,1.89,1.26,1.89,1.26-.63,1.26-1.89S303.52,52,303,52Z"/>
      <path d="M308.69,50.76h-1.26v6.31h1.26Z"/>
      <path d="M313.11,57.07a2.89,2.89,0,0,1-2.53-3.15,2.59,2.59,0,1,1,5.05,0A2.89,2.89,0,0,1,313.11,57.07Zm0-5c-.51,0-1.26.63-1.26,1.9s.75,1.89,1.26,1.89,1.26-.63,1.26-1.89S313.61,52,313.11,52Z"/>
      <path d="M318.78,50.76h-1.26v6.31h1.26Z"/>
      <path d="M328.87,50.76h-1.26v6.31h1.26Z"/>
      <path d="M323.19,57.07a2.89,2.89,0,0,1-2.52-3.15,2.89,2.89,0,0,1,2.52-3.16c1.2,0,2.52,1.2,2.52,3.16A2.88,2.88,0,0,1,323.19,57.07Zm0-5c-.5,0-1.26.63-1.26,1.9s.76,1.89,1.26,1.89,1.26-.63,1.26-1.89S323.7,52,323.19,52Z"/>
      <path d="M302.39,59.6h-1.26v6.32h1.26Z"/>
      <path d="M306.8,65.92c-1.2,0-2.52-1.2-2.52-3.16s1.32-3.16,2.52-3.16,2.52,1.2,2.52,3.16S308,65.92,306.8,65.92Zm0-5.06c-.5,0-1.26.64-1.26,1.9s.76,1.89,1.26,1.89,1.26-.63,1.26-1.89S307.31,60.86,306.8,60.86Z"/>
      <path d="M312.48,59.6h-1.27v6.32h1.27Z"/>
      <path d="M316.89,65.92c-1.2,0-2.52-1.2-2.52-3.16s1.32-3.16,2.52-3.16,2.52,1.2,2.52,3.16S318.09,65.92,316.89,65.92Zm0-5.06c-.51,0-1.26.64-1.26,1.9s.75,1.89,1.26,1.89,1.26-.63,1.26-1.89S317.39,60.86,316.89,60.86Z"/>
      <path d="M322.56,59.6H321.3v6.32h1.26Z"/>
      <path d="M327,65.92a3.24,3.24,0,1,1,2.52-3.16A2.89,2.89,0,0,1,327,65.92Zm0-5.06c-.51,0-1.27.64-1.27,1.9s.76,1.89,1.27,1.89,1.26-.63,1.26-1.89S327.48,60.86,327,60.86Z"/>
    </g>
    <rect x="291.5" y="35.12" width="47" height="37.6" fill="none" stroke="#0072c6" stroke-width="3"/>
    <g>
      <path d="M36.64,41.3H35.38v6.32h1.26Z"/>
      <path d="M41.05,47.62c-1.2,0-2.52-1.2-2.52-3.16s1.32-3.16,2.52-3.16,2.52,1.2,2.52,3.16S42.25,47.62,41.05,47.62Zm0-5c-.5,0-1.26.63-1.26,1.89s.76,1.89,1.26,1.89,1.26-.63,1.26-1.89S41.56,42.57,41.05,42.57Z"/>
      <path d="M46.73,41.3H45.46v6.32h1.27Z"/>
      <path d="M51.14,47.62c-1.2,0-2.52-1.2-2.52-3.16s1.32-3.16,2.52-3.16,2.52,1.2,2.52,3.16S52.34,47.62,51.14,47.62Zm0-5c-.51,0-1.26.63-1.26,1.89s.75,1.89,1.26,1.89,1.26-.63,1.26-1.89S51.64,42.57,51.14,42.57Z"/>
      <path d="M56.81,41.3H55.55v6.32h1.26Z"/>
      <path d="M61.23,47.62a2.89,2.89,0,0,1-2.53-3.16,2.89,2.89,0,0,1,2.53-3.16,2.89,2.89,0,0,1,2.52,3.16A2.89,2.89,0,0,1,61.23,47.62Zm0-5c-.51,0-1.27.63-1.27,1.89s.76,1.89,1.27,1.89,1.26-.63,1.26-1.89S61.73,42.57,61.23,42.57Z"/>
      <path d="M37.27,56.46c-1.2,0-2.52-1.2-2.52-3.16s1.32-3.16,2.52-3.16,2.52,1.2,2.52,3.16S38.47,56.46,37.27,56.46Zm0-5.05c-.51,0-1.26.63-1.26,1.89s.75,1.9,1.26,1.9,1.26-.63,1.26-1.9S37.77,51.41,37.27,51.41Z"/>
      <path d="M42.94,50.14H41.68v6.32h1.26Z"/>
      <path d="M47.36,56.46a2.89,2.89,0,0,1-2.53-3.16,2.89,2.89,0,0,1,2.53-3.16,2.89,2.89,0,0,1,2.52,3.16A2.89,2.89,0,0,1,47.36,56.46Zm0-5.05c-.51,0-1.26.63-1.26,1.89s.75,1.9,1.26,1.9,1.26-.63,1.26-1.9S47.86,51.41,47.36,51.41Z"/>
      <path d="M53,50.14H51.77v6.32H53Z"/>
      <path d="M63.12,50.14H61.86v6.32h1.26Z"/>
      <path d="M57.44,56.46a2.89,2.89,0,0,1-2.52-3.16,2.89,2.89,0,0,1,2.52-3.16c1.2,0,2.52,1.2,2.52,3.16S58.64,56.46,57.44,56.46Zm0-5.05c-.5,0-1.26.63-1.26,1.89s.76,1.9,1.26,1.9,1.26-.63,1.26-1.9S58,51.41,57.44,51.41Z"/>
      <path d="M36.64,59H35.38V65.3h1.26Z"/>
      <path d="M41.05,65.3c-1.2,0-2.52-1.2-2.52-3.16A2.88,2.88,0,0,1,41.05,59a2.88,2.88,0,0,1,2.52,3.15C43.57,64.1,42.25,65.3,41.05,65.3Zm0-5c-.5,0-1.26.63-1.26,1.89s.76,1.9,1.26,1.9,1.26-.63,1.26-1.9S41.56,60.25,41.05,60.25Z"/>
      <path d="M46.73,59H45.46V65.3h1.27Z"/>
      <path d="M51.14,65.3c-1.2,0-2.52-1.2-2.52-3.16A2.88,2.88,0,0,1,51.14,59a2.88,2.88,0,0,1,2.52,3.15C53.66,64.1,52.34,65.3,51.14,65.3Zm0-5c-.51,0-1.26.63-1.26,1.89s.75,1.9,1.26,1.9,1.26-.63,1.26-1.9S51.64,60.25,51.14,60.25Z"/>
      <path d="M56.81,59H55.55V65.3h1.26Z"/>
      <path d="M61.23,65.3a3.23,3.23,0,0,1,0-6.31,3.24,3.24,0,0,1,0,6.31Zm0-5c-.51,0-1.27.63-1.27,1.89s.76,1.9,1.27,1.9,1.26-.63,1.26-1.9S61.73,60.25,61.23,60.25Z"/>
    </g>
    <rect x="25.75" y="34.5" width="47" height="37.6" fill="none" stroke="#0072c6" stroke-width="3"/>
    <g>
      <path d="M48.94,74.77h-.32a4.37,4.37,0,0,0-4.38,4.38v4.55H42.37V79.13a6.25,6.25,0,0,1,5.71-6.23h1a6.34,6.34,0,0,1,5.79,6.35v4.43H53V79.25A4.45,4.45,0,0,0,48.94,74.77Z" fill="#0078d4" fill-rule="evenodd"/>
      <path d="M56.74,92.9H40.49V81H56.74Z" fill="#0078d4"/>
      <path d="M46.74,86v0a1.85,1.85,0,0,0,1.86,1.85h0A1.85,1.85,0,0,0,50.49,86v0a1.85,1.85,0,0,0-1.85-1.86h0A1.86,1.86,0,0,0,46.74,86Z" fill="#50e6ff"/>
      <path d="M48.62,86h0a.93.93,0,0,0-.93.93v2.51a.93.93,0,0,0,.93.93h0a.92.92,0,0,0,.93-.93V87A.92.92,0,0,0,48.62,86Z" fill="#50e6ff"/>
    </g>
    <g>
      <path d="M505.22,41.3H504v6.32h1.26Z"/>
      <path d="M509.64,47.62a2.89,2.89,0,0,1-2.53-3.16,2.59,2.59,0,1,1,5,0A2.89,2.89,0,0,1,509.64,47.62Zm0-5c-.51,0-1.27.63-1.27,1.89s.76,1.89,1.27,1.89,1.26-.63,1.26-1.89S510.14,42.57,509.64,42.57Z"/>
      <path d="M515.31,41.3h-1.26v6.32h1.26Z"/>
      <path d="M519.72,47.62c-1.2,0-2.52-1.2-2.52-3.16s1.32-3.16,2.52-3.16,2.52,1.2,2.52,3.16S520.92,47.62,519.72,47.62Zm0-5c-.5,0-1.26.63-1.26,1.89s.76,1.89,1.26,1.89,1.26-.63,1.26-1.89S520.23,42.57,519.72,42.57Z"/>
      <path d="M525.4,41.3h-1.26v6.32h1.26Z"/>
      <path d="M529.81,47.62c-1.2,0-2.52-1.2-2.52-3.16s1.32-3.16,2.52-3.16,2.52,1.2,2.52,3.16S531,47.62,529.81,47.62Zm0-5c-.51,0-1.26.63-1.26,1.89s.75,1.89,1.26,1.89,1.26-.63,1.26-1.89S530.31,42.57,529.81,42.57Z"/>
      <path d="M505.85,56.46c-1.2,0-2.52-1.2-2.52-3.16s1.32-3.16,2.52-3.16,2.52,1.2,2.52,3.16S507.05,56.46,505.85,56.46Zm0-5.05c-.5,0-1.26.63-1.26,1.89s.76,1.9,1.26,1.9,1.26-.63,1.26-1.9S506.36,51.41,505.85,51.41Z"/>
      <path d="M511.53,50.14h-1.26v6.32h1.26Z"/>
      <path d="M515.94,56.46c-1.2,0-2.52-1.2-2.52-3.16s1.32-3.16,2.52-3.16,2.52,1.2,2.52,3.16S517.14,56.46,515.94,56.46Zm0-5.05c-.5,0-1.26.63-1.26,1.89s.76,1.9,1.26,1.9,1.26-.63,1.26-1.9S516.44,51.41,515.94,51.41Z"/>
      <path d="M521.61,50.14h-1.26v6.32h1.26Z"/>
      <path d="M531.7,50.14h-1.26v6.32h1.26Z"/>
      <path d="M526,56.46a2.89,2.89,0,0,1-2.53-3.16,2.59,2.59,0,1,1,5,0A2.89,2.89,0,0,1,526,56.46Zm0-5.05c-.51,0-1.26.63-1.26,1.89s.75,1.9,1.26,1.9,1.26-.63,1.26-1.9S526.53,51.41,526,51.41Z"/>
      <path d="M505.22,59H504V65.3h1.26Z"/>
      <path d="M509.64,65.3a3.24,3.24,0,1,1,2.52-3.16A2.89,2.89,0,0,1,509.64,65.3Zm0-5c-.51,0-1.27.63-1.27,1.89s.76,1.9,1.27,1.9,1.26-.63,1.26-1.9S510.14,60.25,509.64,60.25Z"/>
      <path d="M515.31,59h-1.26V65.3h1.26Z"/>
      <path d="M519.72,65.3c-1.2,0-2.52-1.2-2.52-3.16a2.58,2.58,0,1,1,5,0C522.24,64.1,520.92,65.3,519.72,65.3Zm0-5c-.5,0-1.26.63-1.26,1.89s.76,1.9,1.26,1.9,1.26-.63,1.26-1.9S520.23,60.25,519.72,60.25Z"/>
      <path d="M525.4,59h-1.26V65.3h1.26Z"/>
      <path d="M529.81,65.3c-1.2,0-2.52-1.2-2.52-3.16a2.58,2.58,0,1,1,5,0C532.33,64.1,531,65.3,529.81,65.3Zm0-5c-.51,0-1.26.63-1.26,1.89s.75,1.9,1.26,1.9,1.26-.63,1.26-1.9S530.31,60.25,529.81,60.25Z"/>
    </g>
    <rect x="494.33" y="34.5" width="47" height="37.6" fill="none" stroke="#0072c6" stroke-width="3"/>
    <g>
      <path d="M518.78,74.77h-.32a4.37,4.37,0,0,0-4.37,4.38v4.55h-1.88V79.13a6.25,6.25,0,0,1,5.71-6.23h1a6.33,6.33,0,0,1,5.78,6.35v4.43h-1.88V79.25A4.44,4.44,0,0,0,518.78,74.77Z" fill="#0078d4" fill-rule="evenodd"/>
      <path d="M526.58,92.9H510.34V81h16.25Z" fill="#0078d4"/>
      <path d="M516.59,86v0a1.85,1.85,0,0,0,1.85,1.85h0A1.85,1.85,0,0,0,520.34,86v0a1.86,1.86,0,0,0-1.86-1.86h0A1.85,1.85,0,0,0,516.59,86Z" fill="#50e6ff"/>
      <path d="M518.47,86h0a.93.93,0,0,0-.93.93v2.51a.93.93,0,0,0,.93.93h0a.93.93,0,0,0,.93-.93V87A.93.93,0,0,0,518.47,86Z" fill="#50e6ff"/>
    </g>
  </g>
  <g id="Text">
    <g>
      <path d="M3.88,10.2h-1V1.8h1Z" fill="#1e1e1e"/>
      <path d="M10.81,10.2h-1V6.78c0-1.27-.47-1.91-1.4-1.91a1.5,1.5,0,0,0-1.19.54,2,2,0,0,0-.47,1.37V10.2h-1v-6h1v1h0a2.17,2.17,0,0,1,2-1.14,1.83,1.83,0,0,1,1.51.64,2.85,2.85,0,0,1,.52,1.83Z" fill="#1e1e1e"/>
      <path d="M16.69,9.93a3.19,3.19,0,0,1-1.64.41A2.72,2.72,0,0,1,13,9.51a3,3,0,0,1-.79-2.17A3.3,3.3,0,0,1,13,5a3,3,0,0,1,2.27-.9,3.23,3.23,0,0,1,1.39.29v1a2.47,2.47,0,0,0-1.43-.47,1.93,1.93,0,0,0-1.51.66,2.5,2.5,0,0,0-.59,1.73,2.36,2.36,0,0,0,.56,1.66,1.89,1.89,0,0,0,1.48.61A2.39,2.39,0,0,0,16.69,9Z" fill="#1e1e1e"/>
      <path d="M20.51,10.34a2.79,2.79,0,0,1-2.13-.84,3.1,3.1,0,0,1-.79-2.23,3.24,3.24,0,0,1,.82-2.36,3,3,0,0,1,2.24-.85,2.69,2.69,0,0,1,2.09.83,3.27,3.27,0,0,1,.75,2.29,3.25,3.25,0,0,1-.81,2.3A2.85,2.85,0,0,1,20.51,10.34Zm.07-5.47a1.84,1.84,0,0,0-1.47.63,2.59,2.59,0,0,0-.54,1.74,2.41,2.41,0,0,0,.55,1.68,1.85,1.85,0,0,0,1.46.61A1.77,1.77,0,0,0,22,8.93a2.63,2.63,0,0,0,.5-1.72A2.66,2.66,0,0,0,22,5.48,1.74,1.74,0,0,0,20.58,4.87Z" fill="#1e1e1e"/>
      <path d="M33.49,10.2h-1V6.76a2.68,2.68,0,0,0-.3-1.45,1.19,1.19,0,0,0-1-.44,1.27,1.27,0,0,0-1,.56,2.16,2.16,0,0,0-.44,1.35V10.2h-1V6.64c0-1.18-.45-1.77-1.36-1.77a1.27,1.27,0,0,0-1,.53,2.14,2.14,0,0,0-.41,1.38V10.2H25v-6h1v1h0a2,2,0,0,1,1.86-1.09,1.73,1.73,0,0,1,1.7,1.24,2.14,2.14,0,0,1,2-1.24c1.32,0,2,.82,2,2.44Z" fill="#1e1e1e"/>
      <path d="M35.72,2.68a.6.6,0,0,1-.44-.18.59.59,0,0,1-.18-.44.61.61,0,0,1,.18-.45.6.6,0,0,1,.44-.18.61.61,0,0,1,.45.18.62.62,0,0,1,0,.89A.61.61,0,0,1,35.72,2.68Zm.47,7.52h-1v-6h1Z" fill="#1e1e1e"/>
      <path d="M43,10.2H42V6.78c0-1.27-.47-1.91-1.4-1.91a1.5,1.5,0,0,0-1.19.54A2,2,0,0,0,39,6.78V10.2H38v-6h1v1h0a2.16,2.16,0,0,1,2-1.14,1.83,1.83,0,0,1,1.51.64A2.85,2.85,0,0,1,43,6.53Z" fill="#1e1e1e"/>
      <path d="M49.93,9.72c0,2.2-1.06,3.31-3.16,3.31a4.25,4.25,0,0,1-2-.43v-1a4,4,0,0,0,1.93.57c1.48,0,2.22-.79,2.22-2.36V9.19h0a2.43,2.43,0,0,1-3.87.35,3.22,3.22,0,0,1-.68-2.15A3.75,3.75,0,0,1,45.13,5a2.46,2.46,0,0,1,2-.9A2,2,0,0,1,49,5h0V4.2h1ZM49,7.49V6.6a1.72,1.72,0,0,0-.48-1.22,1.62,1.62,0,0,0-1.21-.51,1.64,1.64,0,0,0-1.39.65,2.85,2.85,0,0,0-.51,1.81,2.43,2.43,0,0,0,.49,1.6,1.56,1.56,0,0,0,1.28.6A1.67,1.67,0,0,0,48.46,9,2.12,2.12,0,0,0,49,7.49Z" fill="#1e1e1e"/>
      <path d="M61.31,10.2H60.14l-1.4-2.35a4.9,4.9,0,0,0-.38-.56A1.92,1.92,0,0,0,58,6.91a1.36,1.36,0,0,0-.41-.22,1.9,1.9,0,0,0-.5-.06h-.8V10.2h-1V1.8H57.8a3.36,3.36,0,0,1,1,.14,2.11,2.11,0,0,1,.8.42,1.88,1.88,0,0,1,.54.7,2.26,2.26,0,0,1,.19,1,2.28,2.28,0,0,1-.13.8,2.25,2.25,0,0,1-.37.66,2.57,2.57,0,0,1-.59.49,3.35,3.35,0,0,1-.77.31v0a1.81,1.81,0,0,1,.66.5,2.75,2.75,0,0,1,.28.37l.31.49Zm-5-7.51V5.74h1.33a2.11,2.11,0,0,0,.68-.11,2,2,0,0,0,.55-.32,1.41,1.41,0,0,0,.35-.51,1.68,1.68,0,0,0,.13-.68,1.31,1.31,0,0,0-.43-1.05,1.92,1.92,0,0,0-1.27-.38Z" fill="#1e1e1e"/>
      <path d="M67,7.44H62.76A2.23,2.23,0,0,0,63.29,9a1.88,1.88,0,0,0,1.42.54,3,3,0,0,0,1.87-.66v.9a3.53,3.53,0,0,1-2.1.57,2.51,2.51,0,0,1-2-.82,3.31,3.31,0,0,1-.73-2.3,3.28,3.28,0,0,1,.79-2.28,2.54,2.54,0,0,1,2-.88,2.26,2.26,0,0,1,1.83.76A3.19,3.19,0,0,1,67,6.94Zm-1-.81a2,2,0,0,0-.4-1.3,1.37,1.37,0,0,0-1.1-.46,1.54,1.54,0,0,0-1.16.49,2.18,2.18,0,0,0-.58,1.27Z" fill="#1e1e1e"/>
      <path d="M73.6,13h-1V9.17h0a2.15,2.15,0,0,1-2.05,1.17,2.29,2.29,0,0,1-1.82-.8,3.33,3.33,0,0,1-.68-2.2A3.62,3.62,0,0,1,68.82,5a2.51,2.51,0,0,1,2-.89,1.89,1.89,0,0,1,1.78,1h0V4.2h1Zm-1-5.46V6.63a1.74,1.74,0,0,0-.48-1.25,1.61,1.61,0,0,0-1.23-.51,1.63,1.63,0,0,0-1.37.64,2.85,2.85,0,0,0-.51,1.81,2.49,2.49,0,0,0,.49,1.62,1.54,1.54,0,0,0,1.26.59A1.69,1.69,0,0,0,72.14,9,2.17,2.17,0,0,0,72.64,7.5Z" fill="#1e1e1e"/>
      <path d="M80.32,10.2h-1V9.25h0a2,2,0,0,1-1.86,1.09c-1.43,0-2.14-.85-2.14-2.55V4.2h1V7.63c0,1.27.48,1.9,1.45,1.9A1.47,1.47,0,0,0,78.91,9a2,2,0,0,0,.45-1.35V4.2h1Z" fill="#1e1e1e"/>
      <path d="M87,7.44H82.8A2.19,2.19,0,0,0,83.34,9a1.85,1.85,0,0,0,1.42.54,3,3,0,0,0,1.86-.66v.9a3.52,3.52,0,0,1-2.09.57,2.52,2.52,0,0,1-2-.82,3.31,3.31,0,0,1-.73-2.3,3.29,3.29,0,0,1,.8-2.28,2.53,2.53,0,0,1,2-.88,2.25,2.25,0,0,1,1.82.76A3.19,3.19,0,0,1,87,6.94Zm-1-.81a2,2,0,0,0-.4-1.3,1.36,1.36,0,0,0-1.1-.46,1.52,1.52,0,0,0-1.15.49,2.13,2.13,0,0,0-.59,1.27Z" fill="#1e1e1e"/>
      <path d="M88.11,10V9a2.82,2.82,0,0,0,1.73.58q1.26,0,1.26-.84A.68.68,0,0,0,91,8.28,1,1,0,0,0,90.7,8a2.19,2.19,0,0,0-.43-.24l-.54-.21a5.79,5.79,0,0,1-.7-.32,2.22,2.22,0,0,1-.5-.36,1.38,1.38,0,0,1-.31-.46,1.59,1.59,0,0,1-.1-.61,1.38,1.38,0,0,1,.19-.74,1.7,1.7,0,0,1,.52-.55,2.71,2.71,0,0,1,.73-.33,3.49,3.49,0,0,1,.86-.11,3.41,3.41,0,0,1,1.39.27v1a2.7,2.7,0,0,0-1.52-.43,1.88,1.88,0,0,0-.49.06,1.26,1.26,0,0,0-.37.17,1,1,0,0,0-.24.27.67.67,0,0,0-.09.34.82.82,0,0,0,.09.4,1.07,1.07,0,0,0,.25.28,2.11,2.11,0,0,0,.4.22l.53.22a7.07,7.07,0,0,1,.72.31,2.45,2.45,0,0,1,.53.36A1.45,1.45,0,0,1,92,8a1.48,1.48,0,0,1,.12.63,1.5,1.5,0,0,1-.2.77,1.58,1.58,0,0,1-.52.54,2.28,2.28,0,0,1-.76.33,3.71,3.71,0,0,1-.9.1A3.37,3.37,0,0,1,88.11,10Z" fill="#1e1e1e"/>
      <path d="M96.39,10.14a1.76,1.76,0,0,1-.89.19c-1,0-1.58-.59-1.58-1.76V5h-1V4.2h1V2.74l1-.31V4.2h1.51V5H94.88V8.4a1.37,1.37,0,0,0,.21.86.78.78,0,0,0,.68.26.94.94,0,0,0,.62-.2Z" fill="#1e1e1e"/>
      <path d="M22.74,26.51h-.86a7.49,7.49,0,0,1-1.82-5.11,7.78,7.78,0,0,1,1.82-5.2h.87a7.86,7.86,0,0,0-1.84,5.18A7.75,7.75,0,0,0,22.74,26.51Z" fill="#1e1e1e"/>
      <path d="M28.15,21.84H23.91a2.28,2.28,0,0,0,.54,1.55,1.88,1.88,0,0,0,1.42.54,3,3,0,0,0,1.87-.66v.9a3.53,3.53,0,0,1-2.1.57,2.51,2.51,0,0,1-2-.82,3.3,3.3,0,0,1-.73-2.29,3.29,3.29,0,0,1,.79-2.29,2.54,2.54,0,0,1,2-.88,2.26,2.26,0,0,1,1.83.76,3.19,3.19,0,0,1,.64,2.12Zm-1-.81a2,2,0,0,0-.4-1.3,1.37,1.37,0,0,0-1.1-.46,1.54,1.54,0,0,0-1.16.49A2.18,2.18,0,0,0,23.93,21Z" fill="#1e1e1e"/>
      <path d="M34.58,24.6h-1V21.18c0-1.27-.46-1.91-1.39-1.91a1.5,1.5,0,0,0-1.19.54,2,2,0,0,0-.47,1.37V24.6h-1v-6h1v1h0a2.16,2.16,0,0,1,2-1.14,1.81,1.81,0,0,1,1.5.64,2.79,2.79,0,0,1,.52,1.83Z" fill="#1e1e1e"/>
      <path d="M40.47,24.33a3.23,3.23,0,0,1-1.65.41,2.75,2.75,0,0,1-2.07-.83A3.06,3.06,0,0,1,36,21.74a3.34,3.34,0,0,1,.84-2.38,3,3,0,0,1,2.27-.9,3.27,3.27,0,0,1,1.4.29v1a2.49,2.49,0,0,0-1.43-.47,1.92,1.92,0,0,0-1.51.66A2.52,2.52,0,0,0,37,21.66a2.36,2.36,0,0,0,.55,1.66,1.91,1.91,0,0,0,1.49.61,2.43,2.43,0,0,0,1.48-.52Z" fill="#1e1e1e"/>
      <path d="M44.88,19.57a1.25,1.25,0,0,0-.73-.19,1.23,1.23,0,0,0-1,.58,2.74,2.74,0,0,0-.41,1.58V24.6h-1v-6h1v1.24h0a2.17,2.17,0,0,1,.63-1,1.41,1.41,0,0,1,.94-.35,1.49,1.49,0,0,1,.58.08Z" fill="#1e1e1e"/>
      <path d="M51.18,18.6l-2.76,7c-.49,1.24-1.18,1.87-2.08,1.87a2.17,2.17,0,0,1-.62-.08v-.86a1.71,1.71,0,0,0,.57.1,1.19,1.19,0,0,0,1.09-.86l.48-1.14-2.35-6h1.07l1.62,4.62c0,.06.06.21.12.46h0q0-.15.12-.45l1.7-4.63Z" fill="#1e1e1e"/>
      <path d="M53.24,23.73h0v3.63h-1V18.6h1v1.06h0a2.26,2.26,0,0,1,2.07-1.2,2.19,2.19,0,0,1,1.81.81,3.33,3.33,0,0,1,.65,2.16A3.72,3.72,0,0,1,57,23.84a2.46,2.46,0,0,1-2,.9A2,2,0,0,1,53.24,23.73Zm0-2.42v.84a1.77,1.77,0,0,0,.49,1.27,1.73,1.73,0,0,0,2.59-.15,3.09,3.09,0,0,0,.5-1.86,2.41,2.41,0,0,0-.47-1.57,1.51,1.51,0,0,0-1.25-.57,1.7,1.7,0,0,0-1.35.58A2.15,2.15,0,0,0,53.21,21.31Z" fill="#1e1e1e"/>
      <path d="M62,24.54a1.82,1.82,0,0,1-.9.19c-1,0-1.57-.59-1.57-1.76V19.42h-1V18.6h1V17.14l1-.31V18.6H62v.82H60.51V22.8a1.36,1.36,0,0,0,.2.86.8.8,0,0,0,.68.26,1,1,0,0,0,.63-.2Z" fill="#1e1e1e"/>
      <path d="M68,21.84H63.78a2.28,2.28,0,0,0,.54,1.55,1.88,1.88,0,0,0,1.42.54,3,3,0,0,0,1.87-.66v.9a3.53,3.53,0,0,1-2.1.57,2.51,2.51,0,0,1-2-.82,3.3,3.3,0,0,1-.73-2.29,3.29,3.29,0,0,1,.79-2.29,2.54,2.54,0,0,1,2-.88,2.26,2.26,0,0,1,1.83.76A3.19,3.19,0,0,1,68,21.34ZM67,21a2,2,0,0,0-.4-1.3,1.37,1.37,0,0,0-1.1-.46,1.54,1.54,0,0,0-1.16.49A2.18,2.18,0,0,0,63.8,21Z" fill="#1e1e1e"/>
      <path d="M74.66,24.6h-1v-1h0a2.2,2.2,0,0,1-2.06,1.16,2.27,2.27,0,0,1-1.81-.8,3.32,3.32,0,0,1-.67-2.2,3.59,3.59,0,0,1,.75-2.38,2.46,2.46,0,0,1,2-.9,1.93,1.93,0,0,1,1.8,1h0V15.72h1Zm-1-2.71V21a1.73,1.73,0,0,0-.48-1.23,1.78,1.78,0,0,0-2.6.14,2.82,2.82,0,0,0-.51,1.79,2.53,2.53,0,0,0,.48,1.63,1.6,1.6,0,0,0,1.3.6,1.65,1.65,0,0,0,1.31-.58A2.16,2.16,0,0,0,73.7,21.89Z" fill="#1e1e1e"/>
      <path d="M76.63,26.51h-.86a7.75,7.75,0,0,0,1.83-5.13,7.86,7.86,0,0,0-1.84-5.18h.87a7.73,7.73,0,0,1,1.82,5.2A7.44,7.44,0,0,1,76.63,26.51Z" fill="#1e1e1e"/>
    </g>
    <g>
      <path d="M288.63,10.2V1.8H291q4.44,0,4.44,4.09A4.14,4.14,0,0,1,294.16,9a4.59,4.59,0,0,1-3.3,1.18Zm1-7.51V9.31h1.26a3.55,3.55,0,0,0,2.57-.88,3.34,3.34,0,0,0,.92-2.51c0-2.15-1.15-3.23-3.43-3.23Z" fill="#1e1e1e"/>
      <path d="M301.72,7.44h-4.23A2.19,2.19,0,0,0,298,9a1.85,1.85,0,0,0,1.41.54,3,3,0,0,0,1.87-.66v.9a3.52,3.52,0,0,1-2.09.57,2.52,2.52,0,0,1-2-.82,3.31,3.31,0,0,1-.73-2.3,3.33,3.33,0,0,1,.79-2.28,2.55,2.55,0,0,1,2-.88,2.25,2.25,0,0,1,1.82.76,3.19,3.19,0,0,1,.64,2.12Zm-1-.81a2,2,0,0,0-.4-1.3,1.37,1.37,0,0,0-1.1-.46,1.56,1.56,0,0,0-1.16.49,2.18,2.18,0,0,0-.58,1.27Z" fill="#1e1e1e"/>
      <path d="M307.3,9.93a3.19,3.19,0,0,1-1.64.41,2.75,2.75,0,0,1-2.07-.83,3,3,0,0,1-.79-2.17A3.35,3.35,0,0,1,303.65,5a3,3,0,0,1,2.27-.9,3.2,3.2,0,0,1,1.39.29v1a2.45,2.45,0,0,0-1.43-.47,1.91,1.91,0,0,0-1.5.66,2.46,2.46,0,0,0-.59,1.73,2.36,2.36,0,0,0,.55,1.66,1.89,1.89,0,0,0,1.49.61A2.38,2.38,0,0,0,307.3,9Z" fill="#1e1e1e"/>
      <path d="M311.72,5.17A1.18,1.18,0,0,0,311,5a1.23,1.23,0,0,0-1,.58,2.72,2.72,0,0,0-.41,1.58V10.2h-1v-6h1V5.44h0a2.17,2.17,0,0,1,.63-1,1.39,1.39,0,0,1,.94-.35,1.52,1.52,0,0,1,.58.08Z" fill="#1e1e1e"/>
      <path d="M318,4.2l-2.76,7c-.5,1.24-1.19,1.87-2.08,1.87a2.25,2.25,0,0,1-.63-.08v-.86a1.8,1.8,0,0,0,.57.1,1.17,1.17,0,0,0,1.09-.86l.48-1.14-2.34-6h1.07L315,8.82c0,.06.06.21.12.46h0c0-.1.06-.25.11-.45L317,4.2Z" fill="#1e1e1e"/>
      <path d="M320.07,9.33h0V13h-1V4.2h1V5.26h0a2.29,2.29,0,0,1,2.08-1.2,2.2,2.2,0,0,1,1.81.81A3.33,3.33,0,0,1,324.61,7a3.78,3.78,0,0,1-.73,2.41,2.46,2.46,0,0,1-2,.9A2,2,0,0,1,320.07,9.33Zm0-2.42v.84A1.77,1.77,0,0,0,320.53,9a1.6,1.6,0,0,0,1.23.52,1.62,1.62,0,0,0,1.37-.66A3.09,3.09,0,0,0,323.62,7a2.41,2.41,0,0,0-.46-1.57,1.53,1.53,0,0,0-1.25-.57,1.7,1.7,0,0,0-1.35.58A2.15,2.15,0,0,0,320.05,6.91Z" fill="#1e1e1e"/>
      <path d="M328.85,10.14a1.76,1.76,0,0,1-.89.19c-1,0-1.58-.59-1.58-1.76V5h-1V4.2h1V2.74l1-.31V4.2h1.51V5h-1.51V8.4a1.37,1.37,0,0,0,.21.86.78.78,0,0,0,.68.26.94.94,0,0,0,.62-.2Z" fill="#1e1e1e"/>
      <path d="M334.86,7.44h-4.24A2.28,2.28,0,0,0,331.16,9a1.88,1.88,0,0,0,1.42.54,2.94,2.94,0,0,0,1.86-.66v.9a3.47,3.47,0,0,1-2.09.57,2.53,2.53,0,0,1-2-.82,3.35,3.35,0,0,1-.72-2.3,3.28,3.28,0,0,1,.79-2.28,2.54,2.54,0,0,1,2-.88,2.24,2.24,0,0,1,1.82.76,3.2,3.2,0,0,1,.65,2.12Zm-1-.81a1.91,1.91,0,0,0-.4-1.3,1.36,1.36,0,0,0-1.1-.46,1.54,1.54,0,0,0-1.15.49,2.19,2.19,0,0,0-.59,1.27Z" fill="#1e1e1e"/>
      <path d="M341.5,10.2h-1v-1h0a2.2,2.2,0,0,1-2.06,1.16,2.25,2.25,0,0,1-1.81-.8,3.33,3.33,0,0,1-.68-2.2A3.57,3.57,0,0,1,336.71,5a2.48,2.48,0,0,1,2-.9,1.91,1.91,0,0,1,1.8,1h0V1.32h1Zm-1-2.71V6.6a1.73,1.73,0,0,0-.48-1.23,1.61,1.61,0,0,0-1.21-.5,1.67,1.67,0,0,0-1.39.64,2.87,2.87,0,0,0-.5,1.78,2.54,2.54,0,0,0,.48,1.64,1.59,1.59,0,0,0,1.3.6A1.63,1.63,0,0,0,340,9,2.11,2.11,0,0,0,340.53,7.49Z" fill="#1e1e1e"/>
      <path d="M301.37,24.6h-1V19c0-.44,0-1,.08-1.63h0a4.83,4.83,0,0,1-.26.81l-2.87,6.46h-.48L294,18.19a4.68,4.68,0,0,1-.25-.86h0c0,.34.05.88.05,1.65V24.6h-.95V16.2h1.3l2.58,5.86a7.38,7.38,0,0,1,.39,1h0c.17-.46.3-.81.41-1l2.63-5.84h1.23Z" fill="#1e1e1e"/>
      <path d="M308.22,21.84H304a2.28,2.28,0,0,0,.54,1.55,1.87,1.87,0,0,0,1.42.54,3,3,0,0,0,1.86-.66v.9a3.5,3.5,0,0,1-2.09.57,2.52,2.52,0,0,1-2-.82,3.35,3.35,0,0,1-.73-2.29,3.29,3.29,0,0,1,.8-2.29,2.53,2.53,0,0,1,2-.88,2.25,2.25,0,0,1,1.82.76,3.2,3.2,0,0,1,.65,2.12Zm-1-.81a2,2,0,0,0-.4-1.3,1.36,1.36,0,0,0-1.1-.46,1.52,1.52,0,0,0-1.15.49A2.19,2.19,0,0,0,304,21Z" fill="#1e1e1e"/>
      <path d="M309.29,24.38v-1a2.82,2.82,0,0,0,1.73.58q1.26,0,1.26-.84a.76.76,0,0,0-.1-.41,1,1,0,0,0-.3-.29,1.59,1.59,0,0,0-.43-.23l-.54-.22a5.79,5.79,0,0,1-.7-.32,2.22,2.22,0,0,1-.5-.36,1.38,1.38,0,0,1-.31-.46,1.79,1.79,0,0,1-.1-.6,1.42,1.42,0,0,1,.2-.75,1.67,1.67,0,0,1,.51-.55,2.77,2.77,0,0,1,.74-.33,3.56,3.56,0,0,1,2.24.16v1a2.7,2.7,0,0,0-1.52-.43,1.88,1.88,0,0,0-.49.06,1.4,1.4,0,0,0-.37.17,1,1,0,0,0-.24.27.66.66,0,0,0-.08.34.82.82,0,0,0,.08.4.94.94,0,0,0,.25.28,2.11,2.11,0,0,0,.4.22l.53.22a6.21,6.21,0,0,1,.72.31,2.82,2.82,0,0,1,.54.36,1.57,1.57,0,0,1,.34.47,1.48,1.48,0,0,1,.12.63,1.5,1.5,0,0,1-.2.77,1.58,1.58,0,0,1-.52.54,2.28,2.28,0,0,1-.76.33,3.68,3.68,0,0,1-.89.1A3.39,3.39,0,0,1,309.29,24.38Z" fill="#1e1e1e"/>
      <path d="M314.38,24.38v-1a2.84,2.84,0,0,0,1.73.58c.84,0,1.27-.28,1.27-.84a.76.76,0,0,0-.11-.41.93.93,0,0,0-.3-.29,1.59,1.59,0,0,0-.43-.23l-.53-.22a6,6,0,0,1-.71-.32,2.47,2.47,0,0,1-.5-.36,1.35,1.35,0,0,1-.3-.46,1.57,1.57,0,0,1-.11-.6,1.42,1.42,0,0,1,.2-.75,1.78,1.78,0,0,1,.51-.55,2.77,2.77,0,0,1,.74-.33,3.41,3.41,0,0,1,.85-.11,3.46,3.46,0,0,1,1.4.27v1a2.74,2.74,0,0,0-1.53-.43,1.75,1.75,0,0,0-.48.06,1.33,1.33,0,0,0-.38.17,1,1,0,0,0-.24.27.77.77,0,0,0-.08.34,1,1,0,0,0,.08.4.94.94,0,0,0,.25.28,2.11,2.11,0,0,0,.4.22l.53.22a6.21,6.21,0,0,1,.72.31,2.82,2.82,0,0,1,.54.36,1.41,1.41,0,0,1,.34.47,1.48,1.48,0,0,1,.12.63,1.41,1.41,0,0,1-.2.77,1.58,1.58,0,0,1-.52.54,2.28,2.28,0,0,1-.76.33,3.68,3.68,0,0,1-.89.1A3.41,3.41,0,0,1,314.38,24.38Z" fill="#1e1e1e"/>
      <path d="M324.18,24.6h-1v-.94h0a2.2,2.2,0,0,1-3.25.61,1.68,1.68,0,0,1-.5-1.26c0-1.12.66-1.78,2-2l1.8-.25c0-1-.42-1.53-1.24-1.53a3,3,0,0,0-2,.74V19a3.76,3.76,0,0,1,2-.56c1.41,0,2.12.75,2.12,2.24Zm-1-3-1.45.2a2.3,2.3,0,0,0-1,.33.94.94,0,0,0-.34.84,1,1,0,0,0,.31.72,1.25,1.25,0,0,0,.84.27,1.51,1.51,0,0,0,1.18-.5,1.78,1.78,0,0,0,.47-1.27Z" fill="#1e1e1e"/>
      <path d="M331.1,24.12c0,2.2-1.05,3.31-3.16,3.31A4.18,4.18,0,0,1,326,27V26a4,4,0,0,0,1.94.57c1.47,0,2.21-.79,2.21-2.36v-.66h0a2.43,2.43,0,0,1-3.87.35,3.22,3.22,0,0,1-.68-2.15,3.75,3.75,0,0,1,.74-2.43,2.46,2.46,0,0,1,2-.9,2,2,0,0,1,1.8,1h0V18.6h1Zm-1-2.23V21a1.72,1.72,0,0,0-.48-1.22,1.6,1.6,0,0,0-1.21-.51,1.68,1.68,0,0,0-1.39.65,2.85,2.85,0,0,0-.5,1.81,2.48,2.48,0,0,0,.48,1.6,1.56,1.56,0,0,0,1.28.6,1.69,1.69,0,0,0,1.32-.57A2.16,2.16,0,0,0,330.14,21.89Z" fill="#1e1e1e"/>
      <path d="M337.82,21.84h-4.24a2.28,2.28,0,0,0,.54,1.55,1.87,1.87,0,0,0,1.42.54,3,3,0,0,0,1.86-.66v.9a3.5,3.5,0,0,1-2.09.57,2.53,2.53,0,0,1-2-.82,3.35,3.35,0,0,1-.73-2.29,3.29,3.29,0,0,1,.8-2.29,2.53,2.53,0,0,1,2-.88,2.24,2.24,0,0,1,1.82.76,3.2,3.2,0,0,1,.65,2.12Zm-1-.81a2,2,0,0,0-.4-1.3,1.36,1.36,0,0,0-1.1-.46,1.52,1.52,0,0,0-1.15.49,2.19,2.19,0,0,0-.59,1.27Z" fill="#1e1e1e"/>
    </g>
    <g>
      <path d="M489.58,10.2h-1.17L487,7.85a5,5,0,0,0-.37-.56,2.24,2.24,0,0,0-.37-.38,1.41,1.41,0,0,0-.42-.22,1.83,1.83,0,0,0-.49-.06h-.81V10.2h-1V1.8h2.5a3.31,3.31,0,0,1,1,.14,2.23,2.23,0,0,1,.81.42,1.88,1.88,0,0,1,.54.7,2.41,2.41,0,0,1,.19,1,2.19,2.19,0,0,1-.51,1.46,2.32,2.32,0,0,1-.58.49,3.54,3.54,0,0,1-.77.31v0a1.57,1.57,0,0,1,.36.22,2,2,0,0,1,.3.28l.28.37c.09.14.19.3.3.49Zm-5-7.51V5.74h1.34a2.15,2.15,0,0,0,.68-.11,1.8,1.8,0,0,0,.54-.32,1.57,1.57,0,0,0,.36-.51,1.68,1.68,0,0,0,.13-.68,1.32,1.32,0,0,0-.44-1.05,1.88,1.88,0,0,0-1.26-.38Z" fill="#1e1e1e"/>
      <path d="M495.26,7.44H491A2.28,2.28,0,0,0,491.56,9a1.87,1.87,0,0,0,1.42.54,3,3,0,0,0,1.86-.66v.9a3.5,3.5,0,0,1-2.09.57,2.53,2.53,0,0,1-2-.82,3.36,3.36,0,0,1-.73-2.3,3.29,3.29,0,0,1,.8-2.28,2.54,2.54,0,0,1,2-.88,2.24,2.24,0,0,1,1.82.76,3.2,3.2,0,0,1,.65,2.12Zm-1-.81a1.91,1.91,0,0,0-.4-1.3,1.36,1.36,0,0,0-1.1-.46,1.52,1.52,0,0,0-1.15.49A2.19,2.19,0,0,0,491,6.63Z" fill="#1e1e1e"/>
      <path d="M499.85,7.24h-3.2V6.48h3.2Z" fill="#1e1e1e"/>
      <path d="M506.48,7.44h-4.24A2.28,2.28,0,0,0,502.78,9a1.87,1.87,0,0,0,1.42.54,3,3,0,0,0,1.86-.66v.9a3.5,3.5,0,0,1-2.09.57,2.53,2.53,0,0,1-2-.82,3.36,3.36,0,0,1-.73-2.3,3.29,3.29,0,0,1,.8-2.28,2.53,2.53,0,0,1,2-.88,2.24,2.24,0,0,1,1.82.76,3.2,3.2,0,0,1,.65,2.12Zm-1-.81a2,2,0,0,0-.4-1.3,1.36,1.36,0,0,0-1.1-.46,1.52,1.52,0,0,0-1.15.49,2.19,2.19,0,0,0-.59,1.27Z" fill="#1e1e1e"/>
      <path d="M512.91,10.2h-1V6.78c0-1.27-.47-1.91-1.4-1.91a1.52,1.52,0,0,0-1.19.54,2,2,0,0,0-.47,1.37V10.2h-1v-6h1v1h0a2.17,2.17,0,0,1,2-1.14,1.83,1.83,0,0,1,1.51.64,2.79,2.79,0,0,1,.52,1.83Z" fill="#1e1e1e"/>
      <path d="M518.79,9.93a3.19,3.19,0,0,1-1.64.41,2.72,2.72,0,0,1-2.07-.83,3,3,0,0,1-.79-2.17A3.3,3.3,0,0,1,515.14,5a3,3,0,0,1,2.27-.9,3.23,3.23,0,0,1,1.39.29v1a2.45,2.45,0,0,0-1.43-.47,2,2,0,0,0-1.51.66,2.5,2.5,0,0,0-.59,1.73,2.36,2.36,0,0,0,.56,1.66,1.89,1.89,0,0,0,1.48.61A2.39,2.39,0,0,0,518.79,9Z" fill="#1e1e1e"/>
      <path d="M523.2,5.17a1.14,1.14,0,0,0-.72-.19,1.21,1.21,0,0,0-1,.58A2.64,2.64,0,0,0,521,7.14V10.2h-1v-6h1V5.44h0a2.17,2.17,0,0,1,.63-1,1.39,1.39,0,0,1,.94-.35,1.44,1.44,0,0,1,.57.08Z" fill="#1e1e1e"/>
      <path d="M529.5,4.2l-2.76,7c-.49,1.24-1.18,1.87-2.07,1.87A2.25,2.25,0,0,1,524,13v-.86a1.8,1.8,0,0,0,.57.1,1.17,1.17,0,0,0,1.09-.86l.48-1.14-2.34-6h1.06l1.63,4.62c0,.06.06.21.12.46h0a4.6,4.6,0,0,1,.11-.45l1.71-4.63Z" fill="#1e1e1e"/>
      <path d="M531.56,9.33h0V13h-1V4.2h1V5.26h0a2.28,2.28,0,0,1,2.08-1.2,2.2,2.2,0,0,1,1.81.81A3.33,3.33,0,0,1,536.1,7a3.73,3.73,0,0,1-.74,2.41,2.42,2.42,0,0,1-2,.9A2,2,0,0,1,531.56,9.33Zm0-2.42v.84A1.77,1.77,0,0,0,532,9a1.59,1.59,0,0,0,1.23.52,1.62,1.62,0,0,0,1.37-.66A3.09,3.09,0,0,0,535.11,7a2.41,2.41,0,0,0-.46-1.57,1.53,1.53,0,0,0-1.25-.57,1.7,1.7,0,0,0-1.35.58A2.15,2.15,0,0,0,531.54,6.91Z" fill="#1e1e1e"/>
      <path d="M540.34,10.14a1.76,1.76,0,0,1-.89.19c-1.05,0-1.58-.59-1.58-1.76V5h-1V4.2h1V2.74l1-.31V4.2h1.51V5h-1.51V8.4a1.37,1.37,0,0,0,.21.86.78.78,0,0,0,.68.26.94.94,0,0,0,.62-.2Z" fill="#1e1e1e"/>
      <path d="M546.35,7.44h-4.24A2.28,2.28,0,0,0,542.65,9a1.87,1.87,0,0,0,1.42.54,3,3,0,0,0,1.86-.66v.9a3.5,3.5,0,0,1-2.09.57,2.53,2.53,0,0,1-2-.82,3.36,3.36,0,0,1-.73-2.3,3.29,3.29,0,0,1,.8-2.28,2.53,2.53,0,0,1,2-.88,2.24,2.24,0,0,1,1.82.76,3.2,3.2,0,0,1,.65,2.12Zm-1-.81a2,2,0,0,0-.4-1.3,1.36,1.36,0,0,0-1.1-.46,1.52,1.52,0,0,0-1.15.49,2.19,2.19,0,0,0-.59,1.27Z" fill="#1e1e1e"/>
      <path d="M553,10.2h-1v-1h0a2.21,2.21,0,0,1-2.06,1.16,2.25,2.25,0,0,1-1.81-.8,3.33,3.33,0,0,1-.68-2.2A3.57,3.57,0,0,1,548.2,5a2.48,2.48,0,0,1,2-.9A1.93,1.93,0,0,1,552,5h0V1.32h1Zm-1-2.71V6.6a1.73,1.73,0,0,0-.48-1.23,1.62,1.62,0,0,0-1.22-.5,1.66,1.66,0,0,0-1.38.64,2.81,2.81,0,0,0-.5,1.78,2.54,2.54,0,0,0,.48,1.64,1.59,1.59,0,0,0,1.3.6,1.63,1.63,0,0,0,1.3-.58A2.11,2.11,0,0,0,552,7.49Z" fill="#1e1e1e"/>
      <path d="M504.57,24.6h-1V19c0-.44,0-1,.08-1.63h0a4.19,4.19,0,0,1-.25.81l-2.87,6.46h-.48l-2.86-6.41a4.54,4.54,0,0,1-.26-.86h0c0,.34,0,.88,0,1.65V24.6H496V16.2h1.3l2.58,5.86a6,6,0,0,1,.38,1h0c.17-.46.3-.81.4-1l2.63-5.84h1.23Z" fill="#1e1e1e"/>
      <path d="M511.42,21.84h-4.23a2.19,2.19,0,0,0,.54,1.55,1.85,1.85,0,0,0,1.41.54,3,3,0,0,0,1.87-.66v.9a3.52,3.52,0,0,1-2.09.57,2.52,2.52,0,0,1-2-.82,3.3,3.3,0,0,1-.73-2.29,3.29,3.29,0,0,1,.8-2.29,2.51,2.51,0,0,1,2-.88,2.25,2.25,0,0,1,1.82.76,3.19,3.19,0,0,1,.64,2.12Zm-1-.81a2,2,0,0,0-.4-1.3,1.37,1.37,0,0,0-1.1-.46,1.52,1.52,0,0,0-1.15.49A2.13,2.13,0,0,0,507.2,21Z" fill="#1e1e1e"/>
      <path d="M512.5,24.38v-1a2.82,2.82,0,0,0,1.73.58q1.26,0,1.26-.84a.68.68,0,0,0-.11-.41,1,1,0,0,0-.29-.29,1.76,1.76,0,0,0-.43-.23l-.54-.22a5.79,5.79,0,0,1-.7-.32,2.22,2.22,0,0,1-.5-.36,1.38,1.38,0,0,1-.31-.46,1.57,1.57,0,0,1-.1-.6,1.42,1.42,0,0,1,.19-.75,1.7,1.7,0,0,1,.52-.55,2.71,2.71,0,0,1,.73-.33,3.49,3.49,0,0,1,.86-.11,3.41,3.41,0,0,1,1.39.27v1a2.7,2.7,0,0,0-1.52-.43,1.88,1.88,0,0,0-.49.06,1.26,1.26,0,0,0-.37.17,1,1,0,0,0-.24.27.67.67,0,0,0-.09.34.82.82,0,0,0,.09.4.94.94,0,0,0,.25.28,2.11,2.11,0,0,0,.4.22l.53.22a6,6,0,0,1,.71.31,2.3,2.3,0,0,1,.54.36,1.45,1.45,0,0,1,.35.47,1.48,1.48,0,0,1,.12.63,1.5,1.5,0,0,1-.2.77,1.68,1.68,0,0,1-.52.54,2.28,2.28,0,0,1-.76.33,3.71,3.71,0,0,1-.9.1A3.37,3.37,0,0,1,512.5,24.38Z" fill="#1e1e1e"/>
      <path d="M517.59,24.38v-1a2.82,2.82,0,0,0,1.73.58q1.26,0,1.26-.84a.76.76,0,0,0-.1-.41,1,1,0,0,0-.3-.29,1.59,1.59,0,0,0-.43-.23l-.54-.22a5.79,5.79,0,0,1-.7-.32,2.22,2.22,0,0,1-.5-.36,1.38,1.38,0,0,1-.31-.46,1.79,1.79,0,0,1-.1-.6,1.42,1.42,0,0,1,.2-.75,1.67,1.67,0,0,1,.51-.55,2.77,2.77,0,0,1,.74-.33,3.56,3.56,0,0,1,2.24.16v1a2.7,2.7,0,0,0-1.52-.43,1.88,1.88,0,0,0-.49.06,1.26,1.26,0,0,0-.37.17,1,1,0,0,0-.24.27.66.66,0,0,0-.08.34.82.82,0,0,0,.08.4.94.94,0,0,0,.25.28,2.11,2.11,0,0,0,.4.22l.53.22a6.21,6.21,0,0,1,.72.31,2.82,2.82,0,0,1,.54.36,1.57,1.57,0,0,1,.34.47,1.48,1.48,0,0,1,.12.63,1.5,1.5,0,0,1-.2.77,1.58,1.58,0,0,1-.52.54,2.28,2.28,0,0,1-.76.33,3.68,3.68,0,0,1-.89.1A3.39,3.39,0,0,1,517.59,24.38Z" fill="#1e1e1e"/>
      <path d="M527.39,24.6h-1v-.94h0a2.2,2.2,0,0,1-3.25.61,1.65,1.65,0,0,1-.51-1.26c0-1.12.66-1.78,2-2l1.79-.25q0-1.53-1.23-1.53a3,3,0,0,0-2,.74V19a3.76,3.76,0,0,1,2-.56c1.41,0,2.12.75,2.12,2.24Zm-1-3-1.44.2a2.3,2.3,0,0,0-1,.33.94.94,0,0,0-.34.84.92.92,0,0,0,.31.72,1.25,1.25,0,0,0,.84.27,1.53,1.53,0,0,0,1.18-.5,1.77,1.77,0,0,0,.46-1.27Z" fill="#1e1e1e"/>
      <path d="M534.31,24.12c0,2.2-1,3.31-3.16,3.31A4.15,4.15,0,0,1,529.2,27V26a4,4,0,0,0,1.94.57c1.47,0,2.21-.79,2.21-2.36v-.66h0a2.43,2.43,0,0,1-3.87.35,3.22,3.22,0,0,1-.68-2.15,3.75,3.75,0,0,1,.73-2.43,2.49,2.49,0,0,1,2-.9,2,2,0,0,1,1.8,1h0V18.6h1Zm-1-2.23V21a1.72,1.72,0,0,0-.48-1.22,1.62,1.62,0,0,0-1.21-.51,1.66,1.66,0,0,0-1.39.65,2.85,2.85,0,0,0-.51,1.81,2.48,2.48,0,0,0,.49,1.6,1.56,1.56,0,0,0,1.28.6,1.65,1.65,0,0,0,1.31-.57A2.12,2.12,0,0,0,533.35,21.89Z" fill="#1e1e1e"/>
      <path d="M541,21.84h-4.23a2.19,2.19,0,0,0,.54,1.55,1.85,1.85,0,0,0,1.42.54,3,3,0,0,0,1.86-.66v.9a3.52,3.52,0,0,1-2.09.57,2.52,2.52,0,0,1-2-.82,3.3,3.3,0,0,1-.73-2.29,3.29,3.29,0,0,1,.8-2.29,2.53,2.53,0,0,1,2-.88,2.25,2.25,0,0,1,1.82.76,3.19,3.19,0,0,1,.64,2.12ZM540,21a2,2,0,0,0-.4-1.3,1.36,1.36,0,0,0-1.1-.46,1.52,1.52,0,0,0-1.15.49A2.13,2.13,0,0,0,536.8,21Z" fill="#1e1e1e"/>
    </g>
    <g>
      <path d="M601.27,10.2V1.8h2.39a2.65,2.65,0,0,1,1.73.53A1.75,1.75,0,0,1,606,3.72,2,2,0,0,1,605.64,5a2.09,2.09,0,0,1-1.07.75v0a2.1,2.1,0,0,1,1.36.64,2,2,0,0,1,.51,1.41,2.16,2.16,0,0,1-.77,1.74,2.87,2.87,0,0,1-1.95.67Zm1-7.51V5.4h1A1.91,1.91,0,0,0,604.53,5a1.35,1.35,0,0,0,.47-1.1c0-.81-.54-1.22-1.61-1.22Zm0,3.6v3h1.34a2,2,0,0,0,1.34-.41,1.4,1.4,0,0,0,.48-1.12c0-1-.67-1.49-2-1.49Z" fill="#1e1e1e"/>
      <path d="M612.29,10.2h-1V9.26h0a2.2,2.2,0,0,1-3.25.61,1.68,1.68,0,0,1-.5-1.26c0-1.12.66-1.78,2-2l1.8-.25c0-1-.41-1.53-1.24-1.53a3,3,0,0,0-2,.74v-1a3.76,3.76,0,0,1,2-.56c1.41,0,2.12.75,2.12,2.24Zm-1-3-1.45.2a2.3,2.3,0,0,0-1,.33,1,1,0,0,0-.34.84.9.9,0,0,0,.32.71,1.16,1.16,0,0,0,.83.28,1.51,1.51,0,0,0,1.18-.5,1.78,1.78,0,0,0,.47-1.27Z" fill="#1e1e1e"/>
      <path d="M618.16,9.93a3.19,3.19,0,0,1-1.64.41,2.75,2.75,0,0,1-2.07-.83,3.06,3.06,0,0,1-.79-2.17A3.35,3.35,0,0,1,614.51,5a3,3,0,0,1,2.27-.9,3.2,3.2,0,0,1,1.39.29v1a2.45,2.45,0,0,0-1.43-.47,1.91,1.91,0,0,0-1.5.66,2.46,2.46,0,0,0-.59,1.73,2.36,2.36,0,0,0,.55,1.66,1.89,1.89,0,0,0,1.49.61A2.38,2.38,0,0,0,618.16,9Z" fill="#1e1e1e"/>
      <path d="M624.43,10.2h-1.35l-2.65-2.88h0V10.2h-1V1.32h1V7h0L623,4.2h1.26l-2.78,2.9Z" fill="#1e1e1e"/>
      <path d="M630,7.44h-4.24A2.19,2.19,0,0,0,626.25,9a1.85,1.85,0,0,0,1.42.54,3,3,0,0,0,1.86-.66v.9a3.52,3.52,0,0,1-2.09.57,2.52,2.52,0,0,1-2-.82,3.36,3.36,0,0,1-.73-2.3,3.29,3.29,0,0,1,.8-2.28,2.53,2.53,0,0,1,2-.88,2.25,2.25,0,0,1,1.82.76A3.2,3.2,0,0,1,630,6.94Zm-1-.81a2,2,0,0,0-.4-1.3,1.36,1.36,0,0,0-1.1-.46,1.52,1.52,0,0,0-1.15.49,2.19,2.19,0,0,0-.59,1.27Z" fill="#1e1e1e"/>
      <path d="M636.38,10.2h-1V6.78c0-1.27-.47-1.91-1.4-1.91a1.52,1.52,0,0,0-1.19.54,2,2,0,0,0-.47,1.37V10.2h-1v-6h1v1h0a2.17,2.17,0,0,1,2-1.14,1.83,1.83,0,0,1,1.51.64,2.79,2.79,0,0,1,.52,1.83Z" fill="#1e1e1e"/>
      <path d="M643.31,10.2h-1v-1h0a2.22,2.22,0,0,1-2.07,1.16,2.25,2.25,0,0,1-1.8-.8,3.33,3.33,0,0,1-.68-2.2A3.57,3.57,0,0,1,638.53,5a2.48,2.48,0,0,1,2-.9,1.93,1.93,0,0,1,1.8,1h0V1.32h1Zm-1-2.71V6.6a1.73,1.73,0,0,0-.48-1.23,1.78,1.78,0,0,0-2.6.14,2.81,2.81,0,0,0-.51,1.78,2.54,2.54,0,0,0,.49,1.64,1.57,1.57,0,0,0,1.3.6,1.64,1.64,0,0,0,1.3-.58A2.16,2.16,0,0,0,642.35,7.49Z" fill="#1e1e1e"/>
      <path d="M612.61,21.43V24.6h-1V16.2h2.31a3,3,0,0,1,2.09.66,2.34,2.34,0,0,1,.74,1.85,2.56,2.56,0,0,1-.82,1.95,3.15,3.15,0,0,1-2.23.77Zm0-4.34v3.45h1a2.3,2.3,0,0,0,1.55-.47,1.65,1.65,0,0,0,.54-1.32c0-1.11-.66-1.66-2-1.66Z" fill="#1e1e1e"/>
      <path d="M620.49,24.74a2.79,2.79,0,0,1-2.12-.84,3.1,3.1,0,0,1-.79-2.23,3.24,3.24,0,0,1,.82-2.36,3,3,0,0,1,2.24-.85,2.69,2.69,0,0,1,2.09.83,3.27,3.27,0,0,1,.75,2.29,3.23,3.23,0,0,1-.81,2.3A2.87,2.87,0,0,1,620.49,24.74Zm.07-5.47a1.83,1.83,0,0,0-1.46.63,2.59,2.59,0,0,0-.54,1.74,2.41,2.41,0,0,0,.55,1.68,1.84,1.84,0,0,0,1.45.61,1.77,1.77,0,0,0,1.44-.6,2.63,2.63,0,0,0,.5-1.72,2.68,2.68,0,0,0-.5-1.73A1.75,1.75,0,0,0,620.56,19.27Z" fill="#1e1e1e"/>
      <path d="M627.53,24.74a2.79,2.79,0,0,1-2.13-.84,3.1,3.1,0,0,1-.79-2.23,3.24,3.24,0,0,1,.82-2.36,3,3,0,0,1,2.24-.85,2.69,2.69,0,0,1,2.09.83,3.27,3.27,0,0,1,.75,2.29,3.23,3.23,0,0,1-.81,2.3A2.85,2.85,0,0,1,627.53,24.74Zm.07-5.47a1.84,1.84,0,0,0-1.47.63,2.59,2.59,0,0,0-.54,1.74,2.41,2.41,0,0,0,.55,1.68,1.85,1.85,0,0,0,1.46.61,1.77,1.77,0,0,0,1.43-.6,2.63,2.63,0,0,0,.5-1.72,2.68,2.68,0,0,0-.5-1.73A1.74,1.74,0,0,0,627.6,19.27Z" fill="#1e1e1e"/>
      <path d="M633,24.6h-1V15.72h1Z" fill="#1e1e1e"/>
    </g>
    <g>
      <path d="M403,10.2h-1.18l-1.4-2.35a4.9,4.9,0,0,0-.38-.56,1.92,1.92,0,0,0-.37-.38,1.36,1.36,0,0,0-.41-.22,1.83,1.83,0,0,0-.49-.06H398V10.2h-1V1.8h2.51a3.31,3.31,0,0,1,1,.14,2.23,2.23,0,0,1,.81.42,2,2,0,0,1,.53.7,2.25,2.25,0,0,1,.2,1,2.28,2.28,0,0,1-.14.8,2,2,0,0,1-.37.66A2.37,2.37,0,0,1,401,6a3.35,3.35,0,0,1-.77.31v0a1.65,1.65,0,0,1,.37.22,1.9,1.9,0,0,1,.29.28,2.75,2.75,0,0,1,.28.37c.09.14.2.3.31.49Zm-5-7.51V5.74h1.33a2.17,2.17,0,0,0,.69-.11,1.8,1.8,0,0,0,.54-.32,1.57,1.57,0,0,0,.36-.51,1.87,1.87,0,0,0,.12-.68,1.31,1.31,0,0,0-.43-1.05,1.88,1.88,0,0,0-1.26-.38Z" fill="#1e1e1e"/>
      <path d="M406.38,10.34a2.77,2.77,0,0,1-2.12-.84,3.11,3.11,0,0,1-.8-2.23,3.25,3.25,0,0,1,.83-2.36,3,3,0,0,1,2.23-.85,2.71,2.71,0,0,1,2.1.83,3.27,3.27,0,0,1,.75,2.29,3.25,3.25,0,0,1-.81,2.3A2.87,2.87,0,0,1,406.38,10.34Zm.07-5.47A1.8,1.8,0,0,0,405,5.5a2.59,2.59,0,0,0-.54,1.74A2.46,2.46,0,0,0,405,8.92a1.85,1.85,0,0,0,1.46.61,1.75,1.75,0,0,0,1.43-.6,2.58,2.58,0,0,0,.5-1.72,2.61,2.61,0,0,0-.5-1.73A1.73,1.73,0,0,0,406.45,4.87Z" fill="#1e1e1e"/>
      <path d="M415.73,10.2h-1V9.25h0a2,2,0,0,1-1.85,1.09c-1.43,0-2.14-.85-2.14-2.55V4.2h.95V7.63c0,1.27.49,1.9,1.46,1.9A1.44,1.44,0,0,0,414.31,9a1.92,1.92,0,0,0,.46-1.35V4.2h1Z" fill="#1e1e1e"/>
      <path d="M420.4,10.14a1.76,1.76,0,0,1-.89.19c-1.05,0-1.58-.59-1.58-1.76V5h-1V4.2h1V2.74l1-.31V4.2h1.51V5h-1.51V8.4a1.37,1.37,0,0,0,.21.86.78.78,0,0,0,.68.26.94.94,0,0,0,.62-.2Z" fill="#1e1e1e"/>
      <path d="M422.09,2.68a.6.6,0,0,1-.44-.18.59.59,0,0,1-.18-.44.61.61,0,0,1,.18-.45.6.6,0,0,1,.44-.18.64.64,0,0,1,.45.18.61.61,0,0,1,.18.45.6.6,0,0,1-.18.44A.64.64,0,0,1,422.09,2.68Zm.47,7.52h-1v-6h1Z" fill="#1e1e1e"/>
      <path d="M429.36,10.2h-1V6.78c0-1.27-.46-1.91-1.39-1.91a1.5,1.5,0,0,0-1.19.54,2,2,0,0,0-.48,1.37V10.2h-1v-6h1v1h0a2.16,2.16,0,0,1,2-1.14,1.81,1.81,0,0,1,1.5.64,2.79,2.79,0,0,1,.52,1.83Z" fill="#1e1e1e"/>
      <path d="M436.3,9.72c0,2.2-1.06,3.31-3.17,3.31a4.24,4.24,0,0,1-1.94-.43v-1a3.94,3.94,0,0,0,1.93.57c1.48,0,2.22-.79,2.22-2.36V9.19h0a2.42,2.42,0,0,1-3.86.35,3.17,3.17,0,0,1-.69-2.15A3.75,3.75,0,0,1,431.5,5a2.46,2.46,0,0,1,2-.9,2,2,0,0,1,1.8,1h0V4.2h1Zm-1-2.23V6.6a1.73,1.73,0,0,0-.49-1.22,1.58,1.58,0,0,0-1.2-.51,1.66,1.66,0,0,0-1.4.65,2.91,2.91,0,0,0-.5,1.81,2.48,2.48,0,0,0,.48,1.6,1.56,1.56,0,0,0,1.28.6A1.69,1.69,0,0,0,434.83,9,2.12,2.12,0,0,0,435.34,7.49Z" fill="#1e1e1e"/>
      <path d="M412.29,24.6h-1.17l-1.41-2.35a3.88,3.88,0,0,0-.38-.56,1.92,1.92,0,0,0-.37-.38,1.25,1.25,0,0,0-.41-.22,1.83,1.83,0,0,0-.49-.06h-.81V24.6h-1V16.2h2.51a3.64,3.64,0,0,1,1,.14,2.23,2.23,0,0,1,.81.42,1.86,1.86,0,0,1,.53.7,2.43,2.43,0,0,1,.06,1.78,1.94,1.94,0,0,1-.37.66,2.37,2.37,0,0,1-.59.49,2.82,2.82,0,0,1-.77.31v0a2.13,2.13,0,0,1,.37.22,2.56,2.56,0,0,1,.3.28,4,4,0,0,1,.27.37c.1.14.2.3.31.49Zm-5-7.51v3.05h1.33a2.17,2.17,0,0,0,.69-.11,1.8,1.8,0,0,0,.54-.32,1.57,1.57,0,0,0,.36-.51,1.83,1.83,0,0,0,.13-.68,1.32,1.32,0,0,0-.44-1.05,1.88,1.88,0,0,0-1.26-.38Z" fill="#1e1e1e"/>
      <path d="M418,24.6h-1v-1h0a2,2,0,0,1-1.85,1.09c-1.43,0-2.15-.85-2.15-2.55V18.6h1V22c0,1.26.48,1.89,1.45,1.89a1.48,1.48,0,0,0,1.16-.51,2,2,0,0,0,.45-1.36V18.6h1Z" fill="#1e1e1e"/>
      <path d="M420.79,24.6h-1V15.72h1Z" fill="#1e1e1e"/>
      <path d="M427.52,21.84h-4.24a2.28,2.28,0,0,0,.54,1.55,1.88,1.88,0,0,0,1.42.54,2.94,2.94,0,0,0,1.86-.66v.9a3.47,3.47,0,0,1-2.09.57,2.53,2.53,0,0,1-2-.82,3.34,3.34,0,0,1-.72-2.29,3.29,3.29,0,0,1,.79-2.29,2.54,2.54,0,0,1,2-.88,2.24,2.24,0,0,1,1.82.76,3.2,3.2,0,0,1,.65,2.12Zm-1-.81a1.91,1.91,0,0,0-.4-1.3,1.36,1.36,0,0,0-1.1-.46,1.54,1.54,0,0,0-1.15.49,2.19,2.19,0,0,0-.59,1.27Z" fill="#1e1e1e"/>
    </g>
    <g>
      <path d="M123.51,2.69h-3.29V5.6h3v.88h-3V10.2h-1V1.8h4.27Z" fill="#1e1e1e"/>
      <path d="M127.79,5.17a1.18,1.18,0,0,0-.73-.19,1.2,1.2,0,0,0-1,.58,2.64,2.64,0,0,0-.42,1.58V10.2h-1v-6h1V5.44h0a2.08,2.08,0,0,1,.62-1,1.42,1.42,0,0,1,1-.35,1.44,1.44,0,0,1,.57.08Z" fill="#1e1e1e"/>
      <path d="M131.35,10.34a2.79,2.79,0,0,1-2.12-.84,3.1,3.1,0,0,1-.79-2.23,3.24,3.24,0,0,1,.82-2.36,3,3,0,0,1,2.24-.85,2.69,2.69,0,0,1,2.09.83,3.27,3.27,0,0,1,.75,2.29,3.25,3.25,0,0,1-.81,2.3A2.87,2.87,0,0,1,131.35,10.34Zm.08-5.47A1.84,1.84,0,0,0,130,5.5a2.59,2.59,0,0,0-.54,1.74A2.41,2.41,0,0,0,130,8.92a1.85,1.85,0,0,0,1.46.61,1.77,1.77,0,0,0,1.43-.6,2.63,2.63,0,0,0,.5-1.72,2.66,2.66,0,0,0-.5-1.73A1.74,1.74,0,0,0,131.43,4.87Z" fill="#1e1e1e"/>
      <path d="M140.8,10.2h-1V6.78c0-1.27-.46-1.91-1.39-1.91a1.5,1.5,0,0,0-1.19.54,2,2,0,0,0-.47,1.37V10.2h-1v-6h1v1h0a2.16,2.16,0,0,1,2-1.14,1.81,1.81,0,0,1,1.5.64,2.79,2.79,0,0,1,.52,1.83Z" fill="#1e1e1e"/>
      <path d="M145.3,10.14a1.82,1.82,0,0,1-.9.19c-1.05,0-1.58-.59-1.58-1.76V5h-1V4.2h1V2.74l1-.31V4.2h1.52V5h-1.52V8.4a1.37,1.37,0,0,0,.21.86.8.8,0,0,0,.68.26,1,1,0,0,0,.63-.2Z" fill="#1e1e1e"/>
      <path d="M151.3,7.44h-4.24A2.28,2.28,0,0,0,147.6,9a1.88,1.88,0,0,0,1.42.54,2.94,2.94,0,0,0,1.86-.66v.9a3.47,3.47,0,0,1-2.09.57,2.53,2.53,0,0,1-2-.82,3.35,3.35,0,0,1-.72-2.3,3.28,3.28,0,0,1,.79-2.28,2.54,2.54,0,0,1,2-.88,2.26,2.26,0,0,1,1.83.76,3.19,3.19,0,0,1,.64,2.12Zm-1-.81a2,2,0,0,0-.41-1.3,1.35,1.35,0,0,0-1.09-.46,1.54,1.54,0,0,0-1.16.49,2.12,2.12,0,0,0-.58,1.27Z" fill="#1e1e1e"/>
      <path d="M157.73,10.2h-1V6.78c0-1.27-.46-1.91-1.39-1.91a1.5,1.5,0,0,0-1.19.54,2,2,0,0,0-.48,1.37V10.2h-1v-6h1v1h0a2.16,2.16,0,0,1,2-1.14,1.82,1.82,0,0,1,1.5.64,2.79,2.79,0,0,1,.52,1.83Z" fill="#1e1e1e"/>
      <path d="M164.67,10.2h-1v-1h0a2.2,2.2,0,0,1-2.06,1.16,2.25,2.25,0,0,1-1.81-.8,3.33,3.33,0,0,1-.68-2.2A3.57,3.57,0,0,1,159.88,5a2.48,2.48,0,0,1,2-.9,1.91,1.91,0,0,1,1.8,1h0V1.32h1Zm-1-2.71V6.6a1.73,1.73,0,0,0-.48-1.23,1.61,1.61,0,0,0-1.21-.5,1.67,1.67,0,0,0-1.39.64,2.87,2.87,0,0,0-.5,1.78,2.54,2.54,0,0,0,.48,1.64,1.59,1.59,0,0,0,1.3.6A1.63,1.63,0,0,0,163.2,9,2.11,2.11,0,0,0,163.7,7.49Z" fill="#1e1e1e"/>
      <path d="M171,7V10.2h-1V1.8h2.31a3,3,0,0,1,2.08.66,2.31,2.31,0,0,1,.75,1.85,2.53,2.53,0,0,1-.83,2,3.14,3.14,0,0,1-2.22.77Zm0-4.34V6.13h1a2.32,2.32,0,0,0,1.56-.46,1.64,1.64,0,0,0,.53-1.32c0-1.11-.65-1.66-2-1.66Z" fill="#1e1e1e"/>
      <path d="M178.89,10.34a2.77,2.77,0,0,1-2.12-.84,3.11,3.11,0,0,1-.8-2.23,3.25,3.25,0,0,1,.83-2.36A3,3,0,0,1,179,4.06a2.71,2.71,0,0,1,2.1.83,3.27,3.27,0,0,1,.75,2.29,3.25,3.25,0,0,1-.81,2.3A2.87,2.87,0,0,1,178.89,10.34ZM179,4.87a1.81,1.81,0,0,0-1.46.63A2.59,2.59,0,0,0,177,7.24a2.46,2.46,0,0,0,.54,1.68,1.86,1.86,0,0,0,1.46.61,1.75,1.75,0,0,0,1.43-.6,2.58,2.58,0,0,0,.5-1.72,2.61,2.61,0,0,0-.5-1.73A1.73,1.73,0,0,0,179,4.87Z" fill="#1e1e1e"/>
      <path d="M186.49,5.17a1.18,1.18,0,0,0-.73-.19,1.23,1.23,0,0,0-1,.58,2.72,2.72,0,0,0-.41,1.58V10.2h-1v-6h1V5.44h0a2.17,2.17,0,0,1,.63-1,1.42,1.42,0,0,1,.95-.35,1.44,1.44,0,0,1,.57.08Z" fill="#1e1e1e"/>
      <path d="M190.71,10.14a1.76,1.76,0,0,1-.89.19c-1,0-1.58-.59-1.58-1.76V5h-1V4.2h1V2.74l1-.31V4.2h1.51V5H189.2V8.4a1.37,1.37,0,0,0,.21.86.78.78,0,0,0,.68.26.94.94,0,0,0,.62-.2Z" fill="#1e1e1e"/>
      <path d="M137.37,26.51h-.86a7.48,7.48,0,0,1-1.81-5.11,7.77,7.77,0,0,1,1.81-5.2h.87a7.91,7.91,0,0,0-1.84,5.18A7.75,7.75,0,0,0,137.37,26.51Z" fill="#1e1e1e"/>
      <path d="M144.85,24.6h-1V20.77h-4.35V24.6h-1V16.2h1v3.68h4.35V16.2h1Z" fill="#1e1e1e"/>
      <path d="M151.9,17.09h-2.43V24.6h-1V17.09h-2.42V16.2h5.83Z" fill="#1e1e1e"/>
      <path d="M158.5,17.09h-2.43V24.6h-1V17.09h-2.42V16.2h5.83Z" fill="#1e1e1e"/>
      <path d="M160.69,21.43V24.6h-1V16.2H162a3,3,0,0,1,2.09.66,2.34,2.34,0,0,1,.74,1.85,2.52,2.52,0,0,1-.82,1.95,3.15,3.15,0,0,1-2.23.77Zm0-4.34v3.45h1a2.28,2.28,0,0,0,1.55-.47,1.65,1.65,0,0,0,.54-1.32c0-1.11-.66-1.66-2-1.66Z" fill="#1e1e1e"/>
      <path d="M166,24.26V23.1a2.86,2.86,0,0,0,.48.32,5.19,5.19,0,0,0,.59.24,4.29,4.29,0,0,0,.62.14,2.91,2.91,0,0,0,.57.06,2.22,2.22,0,0,0,1.36-.34,1.26,1.26,0,0,0,.3-1.56,1.64,1.64,0,0,0-.42-.46,3.91,3.91,0,0,0-.62-.4l-.78-.4-.82-.45a3.4,3.4,0,0,1-.66-.51,2.06,2.06,0,0,1-.44-.62,1.88,1.88,0,0,1-.16-.82,1.93,1.93,0,0,1,.25-1,2.32,2.32,0,0,1,.66-.7,3.08,3.08,0,0,1,.94-.41,5.12,5.12,0,0,1,2.88.17v1.1A3.34,3.34,0,0,0,168.8,17a2.85,2.85,0,0,0-.64.07,1.51,1.51,0,0,0-.57.22,1.18,1.18,0,0,0-.41.39,1,1,0,0,0-.16.58,1.19,1.19,0,0,0,.12.56,1.41,1.41,0,0,0,.35.43,3.75,3.75,0,0,0,.57.37c.23.13.49.26.78.4s.59.31.86.47a4,4,0,0,1,.7.55,2.36,2.36,0,0,1,.49.66,1.84,1.84,0,0,1,.18.83,2,2,0,0,1-.25,1.05,2,2,0,0,1-.65.7,3,3,0,0,1-.95.39,5.24,5.24,0,0,1-1.14.12l-.49,0q-.3,0-.6-.09a4.91,4.91,0,0,1-.58-.16A1.65,1.65,0,0,1,166,24.26Z" fill="#1e1e1e"/>
      <path d="M172.66,26.51h-.86a7.75,7.75,0,0,0,1.83-5.13,7.86,7.86,0,0,0-1.84-5.18h.87a7.74,7.74,0,0,1,1.83,5.2A7.45,7.45,0,0,1,172.66,26.51Z" fill="#1e1e1e"/>
    </g>
    <g>
      <path d="M100.65,167.44v-1.16a1.91,1.91,0,0,0,.48.32,5,5,0,0,0,.58.24c.21.06.41.11.62.15a4.13,4.13,0,0,0,.58,0,2.2,2.2,0,0,0,1.35-.34,1.12,1.12,0,0,0,.45-1,1.15,1.15,0,0,0-.15-.59,1.76,1.76,0,0,0-.41-.46,4.57,4.57,0,0,0-.63-.4l-.77-.4c-.3-.15-.57-.3-.82-.45a3.54,3.54,0,0,1-.67-.5,2.3,2.3,0,0,1-.44-.63,2,2,0,0,1-.16-.81,2,2,0,0,1,.25-1,2,2,0,0,1,.67-.7,2.8,2.8,0,0,1,.93-.41,4.3,4.3,0,0,1,1.07-.14,4.08,4.08,0,0,1,1.81.3v1.11a3.24,3.24,0,0,0-1.91-.52,2.73,2.73,0,0,0-.64.07,1.75,1.75,0,0,0-.58.22,1.27,1.27,0,0,0-.41.39,1.1,1.1,0,0,0-.16.59,1.18,1.18,0,0,0,.12.55,1.31,1.31,0,0,0,.36.43,3,3,0,0,0,.57.38l.77.4a8.69,8.69,0,0,1,.86.46,4,4,0,0,1,.71.55,2.53,2.53,0,0,1,.48.66,1.84,1.84,0,0,1,.18.83,2.16,2.16,0,0,1-.24,1.06,2,2,0,0,1-.66.7,2.8,2.8,0,0,1-1,.39,5.24,5.24,0,0,1-1.14.12c-.13,0-.29,0-.49,0l-.6-.09a4.74,4.74,0,0,1-.57-.15A1.5,1.5,0,0,1,100.65,167.44Z" fill="#1e1e1e"/>
      <path d="M107,167.44v-1.16a2.36,2.36,0,0,0,.48.32,5.19,5.19,0,0,0,.59.24,6.23,6.23,0,0,0,.62.15,3.88,3.88,0,0,0,.57,0,2.22,2.22,0,0,0,1.36-.34,1.12,1.12,0,0,0,.45-1,1.15,1.15,0,0,0-.15-.59,1.64,1.64,0,0,0-.42-.46,3.91,3.91,0,0,0-.62-.4l-.78-.4-.82-.45a3.81,3.81,0,0,1-.66-.5,1.94,1.94,0,0,1-.44-.63,1.86,1.86,0,0,1-.16-.81,1.88,1.88,0,0,1,.25-1,2.11,2.11,0,0,1,.66-.7,2.86,2.86,0,0,1,.94-.41,4.17,4.17,0,0,1,1.06-.14,4,4,0,0,1,1.81.3v1.11a3.22,3.22,0,0,0-1.91-.52,2.85,2.85,0,0,0-.64.07,1.69,1.69,0,0,0-.57.22,1.18,1.18,0,0,0-.41.39,1,1,0,0,0-.16.59,1.18,1.18,0,0,0,.12.55,1.41,1.41,0,0,0,.35.43,3.76,3.76,0,0,0,.57.38l.78.4c.3.14.59.3.86.46a4.36,4.36,0,0,1,.7.55,2.36,2.36,0,0,1,.49.66,1.84,1.84,0,0,1,.18.83,2,2,0,0,1-.9,1.76,2.94,2.94,0,0,1-1,.39,5.09,5.09,0,0,1-1.13.12c-.13,0-.3,0-.49,0s-.4,0-.6-.09a4.91,4.91,0,0,1-.58-.15A1.64,1.64,0,0,1,107,167.44Z" fill="#1e1e1e"/>
      <path d="M118.15,167.78h-4.36v-8.4h1v7.51h3.37Z" fill="#1e1e1e"/>
      <path d="M126.69,167.51a3.1,3.1,0,0,1-1.64.42,2.69,2.69,0,0,1-2.07-.84,3,3,0,0,1-.79-2.16,3.33,3.33,0,0,1,.85-2.39,3,3,0,0,1,2.27-.9,3.09,3.09,0,0,1,1.39.3v1a2.45,2.45,0,0,0-1.43-.47,1.93,1.93,0,0,0-1.51.66,2.52,2.52,0,0,0-.59,1.73,2.39,2.39,0,0,0,.56,1.67,1.92,1.92,0,0,0,1.48.61,2.45,2.45,0,0,0,1.48-.52Z" fill="#1e1e1e"/>
      <path d="M133,165h-4.23a2.19,2.19,0,0,0,.54,1.55,1.82,1.82,0,0,0,1.41.55,3,3,0,0,0,1.87-.67v.9a3.52,3.52,0,0,1-2.09.58,2.55,2.55,0,0,1-2-.82,3.33,3.33,0,0,1-.73-2.3,3.25,3.25,0,0,1,.8-2.28,2.52,2.52,0,0,1,2-.89,2.26,2.26,0,0,1,1.82.77,3.15,3.15,0,0,1,.64,2.11Zm-1-.81a1.93,1.93,0,0,0-.4-1.29,1.38,1.38,0,0,0-1.1-.47,1.52,1.52,0,0,0-1.15.49,2.16,2.16,0,0,0-.59,1.27Z" fill="#1e1e1e"/>
      <path d="M137.55,162.76a1.18,1.18,0,0,0-.73-.2,1.25,1.25,0,0,0-1,.58,2.75,2.75,0,0,0-.41,1.59v3.05h-1v-6h1V163h0a2.17,2.17,0,0,1,.63-1,1.44,1.44,0,0,1,.94-.35,1.75,1.75,0,0,1,.58.08Z" fill="#1e1e1e"/>
      <path d="M141.37,167.73a1.87,1.87,0,0,1-.89.18c-1,0-1.58-.58-1.58-1.75V162.6h-1v-.82h1v-1.46l1-.31v1.77h1.51v.82h-1.51V166a1.37,1.37,0,0,0,.21.86.81.81,0,0,0,.68.25,1,1,0,0,0,.62-.19Z" fill="#1e1e1e"/>
      <path d="M143.15,160.26a.64.64,0,0,1-.44-.17.65.65,0,0,1,0-.9.6.6,0,0,1,.44-.18.64.64,0,0,1,.45.18.61.61,0,0,1,.18.45.6.6,0,0,1-.18.44A.64.64,0,0,1,143.15,160.26Zm.47,7.52h-1v-6h1Z" fill="#1e1e1e"/>
      <path d="M148.53,159.75a1.24,1.24,0,0,0-.64-.16c-.67,0-1,.42-1,1.27v.92h1.41v.82h-1.41v5.18h-.95V162.6h-1v-.82h1v-1a2,2,0,0,1,.54-1.49,1.86,1.86,0,0,1,1.36-.55,1.94,1.94,0,0,1,.7.11Z" fill="#1e1e1e"/>
      <path d="M149.81,160.26a.64.64,0,0,1-.44-.17.65.65,0,0,1,0-.9.6.6,0,0,1,.44-.18.62.62,0,0,1,.63.63.6.6,0,0,1-.18.44A.61.61,0,0,1,149.81,160.26Zm.47,7.52h-1v-6h1Z" fill="#1e1e1e"/>
      <path d="M156.31,167.51a3.08,3.08,0,0,1-1.64.42,2.72,2.72,0,0,1-2.07-.84,3.06,3.06,0,0,1-.79-2.16,3.37,3.37,0,0,1,.85-2.39,3,3,0,0,1,2.27-.9,3.13,3.13,0,0,1,1.4.3v1a2.49,2.49,0,0,0-1.43-.47,1.92,1.92,0,0,0-1.51.66,2.47,2.47,0,0,0-.59,1.73,2.39,2.39,0,0,0,.55,1.67,1.94,1.94,0,0,0,1.49.61,2.44,2.44,0,0,0,1.47-.52Z" fill="#1e1e1e"/>
      <path d="M162.06,167.78h-1v-.93h0a2,2,0,0,1-1.85,1.08,2,2,0,0,1-1.4-.48,1.65,1.65,0,0,1-.51-1.26c0-1.12.66-1.77,2-2l1.8-.25c0-1-.41-1.53-1.24-1.53a3,3,0,0,0-2,.74v-1a3.68,3.68,0,0,1,2-.57c1.41,0,2.11.75,2.11,2.24Zm-1-3-1.45.2a2.25,2.25,0,0,0-1,.33,1,1,0,0,0-.34.84.92.92,0,0,0,.31.72,1.24,1.24,0,0,0,.83.28,1.58,1.58,0,0,0,1.19-.5,1.8,1.8,0,0,0,.46-1.27Z" fill="#1e1e1e"/>
      <path d="M166.66,167.73a2,2,0,0,1-.9.18c-1,0-1.58-.58-1.58-1.75V162.6h-1v-.82h1v-1.46l1-.31v1.77h1.52v.82h-1.52V166a1.37,1.37,0,0,0,.21.86.82.82,0,0,0,.68.25,1,1,0,0,0,.63-.19Z" fill="#1e1e1e"/>
      <path d="M172.76,165h-4.24a2.28,2.28,0,0,0,.54,1.55,1.85,1.85,0,0,0,1.42.55,3,3,0,0,0,1.86-.67v.9a3.48,3.48,0,0,1-2.09.58,2.54,2.54,0,0,1-2-.82,3.33,3.33,0,0,1-.73-2.3,3.25,3.25,0,0,1,.79-2.28,2.55,2.55,0,0,1,2-.89,2.26,2.26,0,0,1,1.83.77,3.15,3.15,0,0,1,.64,2.11Zm-1-.81a2,2,0,0,0-.4-1.29,1.38,1.38,0,0,0-1.1-.47,1.54,1.54,0,0,0-1.16.49,2.21,2.21,0,0,0-.58,1.27Z" fill="#1e1e1e"/>
      <path d="M180.47,159.75a1.24,1.24,0,0,0-.64-.16c-.67,0-1,.42-1,1.27v.92h1.41v.82h-1.41v5.18h-1V162.6h-1v-.82h1v-1a2,2,0,0,1,.55-1.49,1.86,1.86,0,0,1,1.36-.55,1.94,1.94,0,0,1,.7.11Z" fill="#1e1e1e"/>
      <path d="M183.76,167.93a2.76,2.76,0,0,1-2.12-.85,3.1,3.1,0,0,1-.79-2.23,3.26,3.26,0,0,1,.82-2.36,3,3,0,0,1,2.24-.85,2.69,2.69,0,0,1,2.09.83,3.27,3.27,0,0,1,.75,2.29,3.23,3.23,0,0,1-.81,2.3A2.83,2.83,0,0,1,183.76,167.93Zm.08-5.48a1.84,1.84,0,0,0-1.47.63,2.59,2.59,0,0,0-.54,1.74,2.41,2.41,0,0,0,.55,1.68,1.85,1.85,0,0,0,1.46.62,1.74,1.74,0,0,0,1.43-.61,2.62,2.62,0,0,0,.5-1.71,2.71,2.71,0,0,0-.5-1.74A1.77,1.77,0,0,0,183.84,162.45Z" fill="#1e1e1e"/>
      <path d="M191.42,162.76a1.18,1.18,0,0,0-.73-.2,1.25,1.25,0,0,0-1,.58,2.75,2.75,0,0,0-.41,1.59v3.05h-1v-6h1V163h0a2.17,2.17,0,0,1,.63-1,1.46,1.46,0,0,1,.94-.35,1.75,1.75,0,0,1,.58.08Z" fill="#1e1e1e"/>
      <path d="M200.57,165h-4.24a2.28,2.28,0,0,0,.54,1.55,1.85,1.85,0,0,0,1.42.55,3,3,0,0,0,1.86-.67v.9a3.48,3.48,0,0,1-2.09.58,2.56,2.56,0,0,1-2-.82,3.37,3.37,0,0,1-.72-2.3,3.25,3.25,0,0,1,.79-2.28,2.55,2.55,0,0,1,2-.89,2.26,2.26,0,0,1,1.83.77,3.2,3.2,0,0,1,.64,2.11Zm-1-.81a1.93,1.93,0,0,0-.41-1.29,1.36,1.36,0,0,0-1.09-.47,1.54,1.54,0,0,0-1.16.49,2.22,2.22,0,0,0-.59,1.27Z" fill="#1e1e1e"/>
      <path d="M207,167.78h-1v-3.42c0-1.27-.46-1.91-1.39-1.91a1.5,1.5,0,0,0-1.19.54,2,2,0,0,0-.48,1.37v3.42h-1v-6h1v1h0a2.16,2.16,0,0,1,2-1.14,1.85,1.85,0,0,1,1.5.64,2.82,2.82,0,0,1,.52,1.84Z" fill="#1e1e1e"/>
      <path d="M212.9,167.51a3.08,3.08,0,0,1-1.64.42,2.72,2.72,0,0,1-2.07-.84,3.06,3.06,0,0,1-.79-2.16,3.37,3.37,0,0,1,.85-2.39,3,3,0,0,1,2.27-.9,3.13,3.13,0,0,1,1.4.3v1a2.49,2.49,0,0,0-1.43-.47,1.92,1.92,0,0,0-1.51.66,2.47,2.47,0,0,0-.59,1.73,2.39,2.39,0,0,0,.55,1.67,1.94,1.94,0,0,0,1.49.61,2.44,2.44,0,0,0,1.47-.52Z" fill="#1e1e1e"/>
      <path d="M217.49,162.76a1.18,1.18,0,0,0-.73-.2,1.25,1.25,0,0,0-1,.58,2.75,2.75,0,0,0-.41,1.59v3.05h-1v-6h1V163h0a2.17,2.17,0,0,1,.63-1,1.44,1.44,0,0,1,.94-.35,1.75,1.75,0,0,1,.58.08Z" fill="#1e1e1e"/>
      <path d="M223.3,161.78l-2.76,7q-.73,1.86-2.07,1.86a2.25,2.25,0,0,1-.63-.08v-.86a1.84,1.84,0,0,0,.57.11,1.17,1.17,0,0,0,1.09-.87l.48-1.14-2.34-6h1.06l1.63,4.62c0,.06.06.21.12.46h0c0-.09,0-.24.11-.45l1.71-4.63Z" fill="#1e1e1e"/>
      <path d="M225.32,166.92h0v3.62h-1v-8.76h1v1.06h0a2.26,2.26,0,0,1,2.07-1.2,2.18,2.18,0,0,1,1.81.81,3.31,3.31,0,0,1,.65,2.16,3.71,3.71,0,0,1-.73,2.41,2.44,2.44,0,0,1-2,.91A2,2,0,0,1,225.32,166.92Zm0-2.42v.84a1.8,1.8,0,0,0,.48,1.26,1.73,1.73,0,0,0,2.6-.15,3.09,3.09,0,0,0,.49-1.86,2.41,2.41,0,0,0-.46-1.57,1.54,1.54,0,0,0-1.26-.57,1.69,1.69,0,0,0-1.34.59A2.11,2.11,0,0,0,225.3,164.5Z" fill="#1e1e1e"/>
      <path d="M234.17,167.73a1.87,1.87,0,0,1-.89.18c-1.05,0-1.58-.58-1.58-1.75V162.6h-1v-.82h1v-1.46l1-.31v1.77h1.51v.82h-1.51V166a1.37,1.37,0,0,0,.21.86.81.81,0,0,0,.68.25,1,1,0,0,0,.62-.19Z" fill="#1e1e1e"/>
      <path d="M236,160.26a.64.64,0,0,1-.44-.17.65.65,0,0,1,0-.9A.6.6,0,0,1,236,159a.64.64,0,0,1,.45.18.61.61,0,0,1,.18.45.6.6,0,0,1-.18.44A.64.64,0,0,1,236,160.26Zm.47,7.52h-1v-6h1Z" fill="#1e1e1e"/>
      <path d="M243.34,167.78h-1v-3.42c0-1.27-.46-1.91-1.39-1.91a1.5,1.5,0,0,0-1.19.54,2,2,0,0,0-.48,1.37v3.42h-1v-6h1v1h0a2.16,2.16,0,0,1,2-1.14,1.85,1.85,0,0,1,1.5.64,2.82,2.82,0,0,1,.52,1.84Z" fill="#1e1e1e"/>
      <path d="M250.27,167.3q0,3.31-3.16,3.31a4.23,4.23,0,0,1-1.94-.42v-1a4,4,0,0,0,1.93.56c1.48,0,2.21-.79,2.21-2.36v-.65h0a2.42,2.42,0,0,1-3.86.35,3.19,3.19,0,0,1-.69-2.15,3.73,3.73,0,0,1,.74-2.43,2.44,2.44,0,0,1,2-.91,2,2,0,0,1,1.8,1h0v-.84h1Zm-1-2.23v-.88a1.73,1.73,0,0,0-.48-1.23,1.58,1.58,0,0,0-1.2-.51,1.68,1.68,0,0,0-1.4.65,2.93,2.93,0,0,0-.5,1.81,2.51,2.51,0,0,0,.48,1.61,1.56,1.56,0,0,0,1.28.6,1.67,1.67,0,0,0,1.32-.58A2.16,2.16,0,0,0,249.31,165.07Z" fill="#1e1e1e"/>
      <path d="M154.73,180.93a2,2,0,0,1-.9.18c-1.05,0-1.58-.58-1.58-1.75v-3.55h-1V175h1v-1.46l1-.31V175h1.52v.83h-1.52v3.38a1.37,1.37,0,0,0,.21.86.83.83,0,0,0,.68.26,1.05,1.05,0,0,0,.63-.2Z" fill="#1e1e1e"/>
      <path d="M159.14,176a1.18,1.18,0,0,0-.73-.2,1.25,1.25,0,0,0-1,.58,2.75,2.75,0,0,0-.41,1.59v3h-1v-6h1v1.24h0a2.17,2.17,0,0,1,.63-1,1.46,1.46,0,0,1,.94-.35,1.71,1.71,0,0,1,.58.08Z" fill="#1e1e1e"/>
      <path d="M164.48,181h-1v-.93h0a2,2,0,0,1-1.84,1.08,2,2,0,0,1-1.41-.48,1.64,1.64,0,0,1-.5-1.26c0-1.12.66-1.77,2-2l1.79-.25q0-1.53-1.23-1.53a3,3,0,0,0-2,.74v-1a3.68,3.68,0,0,1,2-.57c1.41,0,2.12.75,2.12,2.24Zm-1-3-1.44.2a2.3,2.3,0,0,0-1,.33,1,1,0,0,0-.34.84.92.92,0,0,0,.31.72,1.25,1.25,0,0,0,.84.28,1.56,1.56,0,0,0,1.18-.5,1.8,1.8,0,0,0,.46-1.27Z" fill="#1e1e1e"/>
      <path d="M169.25,173a1.24,1.24,0,0,0-.64-.16c-.67,0-1,.42-1,1.27V175H169v.83H167.6V181h-.95v-5.17h-1V175h1v-1a2,2,0,0,1,.54-1.49,2,2,0,0,1,2.06-.44Z" fill="#1e1e1e"/>
      <path d="M173,173a1.24,1.24,0,0,0-.64-.16c-.67,0-1,.42-1,1.27V175h1.41v.83h-1.41V181h-1v-5.17h-1V175h1v-1a2,2,0,0,1,.54-1.49,1.86,1.86,0,0,1,1.36-.55,1.9,1.9,0,0,1,.7.11Z" fill="#1e1e1e"/>
      <path d="M174.29,173.46a.64.64,0,0,1-.44-.17.65.65,0,0,1,0-.9.6.6,0,0,1,.44-.18.62.62,0,0,1,.63.63.6.6,0,0,1-.18.44A.61.61,0,0,1,174.29,173.46Zm.47,7.52h-1v-6h1Z" fill="#1e1e1e"/>
      <path d="M180.79,180.71a3.08,3.08,0,0,1-1.64.42,2.72,2.72,0,0,1-2.07-.84,3.06,3.06,0,0,1-.79-2.16,3.37,3.37,0,0,1,.85-2.39,3,3,0,0,1,2.27-.9,3.13,3.13,0,0,1,1.4.3v1a2.49,2.49,0,0,0-1.43-.47,1.92,1.92,0,0,0-1.51.66,2.47,2.47,0,0,0-.59,1.73,2.39,2.39,0,0,0,.55,1.67,1.94,1.94,0,0,0,1.49.61,2.44,2.44,0,0,0,1.47-.52Z" fill="#1e1e1e"/>
      <path d="M188.32,180.93a2,2,0,0,1-.9.18c-1,0-1.58-.58-1.58-1.75v-3.55h-1V175h1v-1.46l1-.31V175h1.51v.83h-1.51v3.38a1.38,1.38,0,0,0,.2.86.83.83,0,0,0,.68.26,1.05,1.05,0,0,0,.63-.2Z" fill="#1e1e1e"/>
      <path d="M192.11,181.13a2.77,2.77,0,0,1-2.13-.85,3.14,3.14,0,0,1-.79-2.22,3.27,3.27,0,0,1,.83-2.37,3,3,0,0,1,2.23-.85,2.69,2.69,0,0,1,2.09.83,3.75,3.75,0,0,1-.05,4.59A2.85,2.85,0,0,1,192.11,181.13Zm.07-5.48a1.84,1.84,0,0,0-1.47.63,2.59,2.59,0,0,0-.53,1.74,2.46,2.46,0,0,0,.54,1.68,1.85,1.85,0,0,0,1.46.62,1.73,1.73,0,0,0,1.43-.61,2.57,2.57,0,0,0,.5-1.71,2.65,2.65,0,0,0-.5-1.74A1.76,1.76,0,0,0,192.18,175.65Z" fill="#1e1e1e"/>
      <path d="M200.42,172.58l-4,9.8h-.89l4-9.8Z" fill="#1e1e1e"/>
      <path d="M204.27,173a1.22,1.22,0,0,0-.64-.16c-.67,0-1,.42-1,1.27V175H204v.83h-1.4V181h-1v-5.17h-1V175h1v-1a2,2,0,0,1,.55-1.49,2,2,0,0,1,2.05-.44Z" fill="#1e1e1e"/>
      <path d="M208.19,176a1.16,1.16,0,0,0-.72-.2,1.24,1.24,0,0,0-1,.58,2.68,2.68,0,0,0-.42,1.59v3h-1v-6h1v1.24h0a2,2,0,0,1,.63-1,1.44,1.44,0,0,1,.94-.35,1.65,1.65,0,0,1,.57.08Z" fill="#1e1e1e"/>
      <path d="M211.74,181.13a2.76,2.76,0,0,1-2.12-.85,3.09,3.09,0,0,1-.79-2.22,3.27,3.27,0,0,1,.82-2.37,3,3,0,0,1,2.23-.85,2.7,2.7,0,0,1,2.1.83,3.27,3.27,0,0,1,.75,2.29,3.21,3.21,0,0,1-.81,2.3A2.84,2.84,0,0,1,211.74,181.13Zm.07-5.48a1.83,1.83,0,0,0-1.46.63,2.59,2.59,0,0,0-.54,1.74,2.46,2.46,0,0,0,.54,1.68,1.87,1.87,0,0,0,1.46.62,1.76,1.76,0,0,0,1.44-.61,2.62,2.62,0,0,0,.5-1.71,2.71,2.71,0,0,0-.5-1.74A1.79,1.79,0,0,0,211.81,175.65Z" fill="#1e1e1e"/>
      <path d="M224.79,181h-1v-3.44a2.65,2.65,0,0,0-.31-1.44,1.17,1.17,0,0,0-1-.45,1.26,1.26,0,0,0-1,.57,2.11,2.11,0,0,0-.43,1.34V181h-1v-3.56c0-1.18-.46-1.77-1.37-1.77a1.27,1.27,0,0,0-1,.53,2.18,2.18,0,0,0-.41,1.38V181h-1v-6h1v1h0a2.06,2.06,0,0,1,1.86-1.09,1.77,1.77,0,0,1,1.08.35,1.73,1.73,0,0,1,.62.9,2.15,2.15,0,0,1,2-1.25c1.32,0,2,.82,2,2.45Z" fill="#1e1e1e"/>
      <path d="M234.74,181h-1V180h0a2,2,0,0,1-1.85,1.09c-1.43,0-2.15-.86-2.15-2.56V175h1v3.44c0,1.26.48,1.9,1.45,1.9a1.5,1.5,0,0,0,1.16-.52,2,2,0,0,0,.45-1.36V175h1Z" fill="#1e1e1e"/>
      <path d="M236.32,180.77v-1a2.88,2.88,0,0,0,1.73.58c.84,0,1.26-.28,1.26-.85a.65.65,0,0,0-.11-.4,1,1,0,0,0-.29-.3,2.18,2.18,0,0,0-.43-.23l-.54-.22c-.26-.1-.5-.21-.7-.31a2,2,0,0,1-.5-.37,1.29,1.29,0,0,1-.31-.46,1.57,1.57,0,0,1-.1-.6,1.44,1.44,0,0,1,.19-.75,1.58,1.58,0,0,1,.52-.54,2.21,2.21,0,0,1,.73-.33,3.08,3.08,0,0,1,.86-.12,3.41,3.41,0,0,1,1.39.27v1a2.71,2.71,0,0,0-1.52-.44,1.88,1.88,0,0,0-.49.06,1.28,1.28,0,0,0-.37.18.85.85,0,0,0-.24.26.7.7,0,0,0-.09.35.8.8,0,0,0,.09.39.94.94,0,0,0,.25.28,1.67,1.67,0,0,0,.4.22l.53.22c.26.1.5.21.71.31a2.23,2.23,0,0,1,.54.37,1.41,1.41,0,0,1,.35.46,1.54,1.54,0,0,1,.12.63,1.47,1.47,0,0,1-.2.77,1.82,1.82,0,0,1-.52.55,2.6,2.6,0,0,1-.76.32,3.76,3.76,0,0,1-.9.11A3.37,3.37,0,0,1,236.32,180.77Z" fill="#1e1e1e"/>
      <path d="M246.59,178.23h-4.23a2.18,2.18,0,0,0,.54,1.54,1.82,1.82,0,0,0,1.42.55,3,3,0,0,0,1.86-.67v.9a3.52,3.52,0,0,1-2.09.58,2.55,2.55,0,0,1-2-.82,3.33,3.33,0,0,1-.73-2.3,3.25,3.25,0,0,1,.8-2.28,2.54,2.54,0,0,1,2-.89,2.26,2.26,0,0,1,1.82.77,3.15,3.15,0,0,1,.64,2.11Zm-1-.82a1.93,1.93,0,0,0-.4-1.29,1.36,1.36,0,0,0-1.1-.47,1.52,1.52,0,0,0-1.15.49,2.16,2.16,0,0,0-.59,1.27Z" fill="#1e1e1e"/>
      <path d="M251.18,176a1.18,1.18,0,0,0-.73-.2,1.25,1.25,0,0,0-1,.58,2.75,2.75,0,0,0-.41,1.59v3h-1v-6h1v1.24h0a2.17,2.17,0,0,1,.63-1,1.46,1.46,0,0,1,.94-.35,1.75,1.75,0,0,1,.58.08Z" fill="#1e1e1e"/>
    </g>
    <g>
      <path d="M474.79,167.44v-1.16a1.91,1.91,0,0,0,.48.32,5,5,0,0,0,.58.24c.21.06.41.11.62.15a4.13,4.13,0,0,0,.58,0,2.2,2.2,0,0,0,1.35-.34,1.12,1.12,0,0,0,.45-1,1.15,1.15,0,0,0-.15-.59,1.76,1.76,0,0,0-.41-.46,4.57,4.57,0,0,0-.63-.4l-.77-.4c-.3-.15-.57-.3-.82-.45a3.54,3.54,0,0,1-.67-.5,2.3,2.3,0,0,1-.44-.63,1.86,1.86,0,0,1-.16-.81,2,2,0,0,1,.25-1,2,2,0,0,1,.67-.7,2.8,2.8,0,0,1,.93-.41,4.3,4.3,0,0,1,1.07-.14,4.08,4.08,0,0,1,1.81.3v1.11a3.24,3.24,0,0,0-1.91-.52,2.88,2.88,0,0,0-.65.07,1.78,1.78,0,0,0-.57.22,1.27,1.27,0,0,0-.41.39,1.1,1.1,0,0,0-.16.59,1.18,1.18,0,0,0,.12.55,1.31,1.31,0,0,0,.36.43,3,3,0,0,0,.57.38l.77.4a8.69,8.69,0,0,1,.86.46,4,4,0,0,1,.71.55,2.53,2.53,0,0,1,.48.66,1.84,1.84,0,0,1,.18.83,2.16,2.16,0,0,1-.24,1.06,2,2,0,0,1-.66.7,2.8,2.8,0,0,1-1,.39,5.24,5.24,0,0,1-1.14.12c-.13,0-.29,0-.49,0l-.6-.09a4.74,4.74,0,0,1-.57-.15A1.5,1.5,0,0,1,474.79,167.44Z" fill="#1e1e1e"/>
      <path d="M481.16,167.44v-1.16a2.36,2.36,0,0,0,.48.32,5.19,5.19,0,0,0,.59.24,6.23,6.23,0,0,0,.62.15,3.88,3.88,0,0,0,.57,0,2.22,2.22,0,0,0,1.36-.34,1.12,1.12,0,0,0,.44-1,1.15,1.15,0,0,0-.14-.59,1.64,1.64,0,0,0-.42-.46,3.91,3.91,0,0,0-.62-.4l-.78-.4-.82-.45a3.81,3.81,0,0,1-.66-.5,1.94,1.94,0,0,1-.44-.63,1.86,1.86,0,0,1-.16-.81,1.88,1.88,0,0,1,.25-1,2.11,2.11,0,0,1,.66-.7,2.9,2.9,0,0,1,.93-.41,4.3,4.3,0,0,1,1.07-.14,4,4,0,0,1,1.81.3v1.11a3.22,3.22,0,0,0-1.91-.52,2.79,2.79,0,0,0-.64.07,1.69,1.69,0,0,0-.57.22,1.18,1.18,0,0,0-.41.39,1,1,0,0,0-.16.59,1.18,1.18,0,0,0,.12.55,1.41,1.41,0,0,0,.35.43,3.76,3.76,0,0,0,.57.38l.78.4c.3.14.59.3.86.46a4.36,4.36,0,0,1,.7.55,2.36,2.36,0,0,1,.49.66,1.84,1.84,0,0,1,.18.83,2,2,0,0,1-.9,1.76,2.94,2.94,0,0,1-1,.39,5.09,5.09,0,0,1-1.13.12c-.13,0-.3,0-.49,0s-.4,0-.6-.09a4.45,4.45,0,0,1-.58-.15A1.64,1.64,0,0,1,481.16,167.44Z" fill="#1e1e1e"/>
      <path d="M492.29,167.78h-4.36v-8.4h1v7.51h3.37Z" fill="#1e1e1e"/>
      <path d="M500.83,167.51a3.1,3.1,0,0,1-1.64.42,2.69,2.69,0,0,1-2.07-.84,3,3,0,0,1-.79-2.16,3.33,3.33,0,0,1,.85-2.39,3,3,0,0,1,2.27-.9,3.09,3.09,0,0,1,1.39.3v1a2.47,2.47,0,0,0-1.43-.47,1.93,1.93,0,0,0-1.51.66,2.52,2.52,0,0,0-.59,1.73,2.39,2.39,0,0,0,.56,1.67,1.92,1.92,0,0,0,1.48.61,2.45,2.45,0,0,0,1.48-.52Z" fill="#1e1e1e"/>
      <path d="M507.1,165h-4.23a2.19,2.19,0,0,0,.54,1.55,1.82,1.82,0,0,0,1.41.55,3,3,0,0,0,1.87-.67v.9a3.52,3.52,0,0,1-2.09.58,2.55,2.55,0,0,1-2-.82,3.33,3.33,0,0,1-.73-2.3,3.25,3.25,0,0,1,.8-2.28,2.52,2.52,0,0,1,2-.89,2.26,2.26,0,0,1,1.82.77,3.15,3.15,0,0,1,.64,2.11Zm-1-.81a1.93,1.93,0,0,0-.4-1.29,1.38,1.38,0,0,0-1.1-.47,1.52,1.52,0,0,0-1.15.49,2.16,2.16,0,0,0-.59,1.27Z" fill="#1e1e1e"/>
      <path d="M511.69,162.76a1.18,1.18,0,0,0-.73-.2,1.25,1.25,0,0,0-1,.58,2.75,2.75,0,0,0-.41,1.59v3.05h-1v-6h1V163h0a2.17,2.17,0,0,1,.63-1,1.44,1.44,0,0,1,.94-.35,1.75,1.75,0,0,1,.58.08Z" fill="#1e1e1e"/>
      <path d="M515.51,167.73a1.87,1.87,0,0,1-.89.18c-1.06,0-1.58-.58-1.58-1.75V162.6h-1v-.82h1v-1.46l1-.31v1.77h1.51v.82H514V166a1.37,1.37,0,0,0,.21.86.81.81,0,0,0,.68.25,1,1,0,0,0,.62-.19Z" fill="#1e1e1e"/>
      <path d="M517.29,160.26a.64.64,0,0,1-.44-.17.65.65,0,0,1,0-.9.6.6,0,0,1,.44-.18.64.64,0,0,1,.45.18.61.61,0,0,1,.18.45.6.6,0,0,1-.18.44A.64.64,0,0,1,517.29,160.26Zm.47,7.52h-1v-6h1Z" fill="#1e1e1e"/>
      <path d="M522.67,159.75a1.24,1.24,0,0,0-.64-.16c-.67,0-1,.42-1,1.27v.92h1.41v.82H521v5.18h-1V162.6h-1v-.82h1v-1a2,2,0,0,1,.55-1.49,1.86,1.86,0,0,1,1.36-.55,1.94,1.94,0,0,1,.7.11Z" fill="#1e1e1e"/>
      <path d="M524,160.26a.64.64,0,0,1-.44-.17.65.65,0,0,1,0-.9A.6.6,0,0,1,524,159a.63.63,0,0,1,.45.18.61.61,0,0,1,.18.45.6.6,0,0,1-.18.44A.63.63,0,0,1,524,160.26Zm.47,7.52h-1v-6h1Z" fill="#1e1e1e"/>
      <path d="M530.45,167.51a3.08,3.08,0,0,1-1.64.42,2.72,2.72,0,0,1-2.07-.84,3.06,3.06,0,0,1-.79-2.16,3.37,3.37,0,0,1,.85-2.39,3,3,0,0,1,2.27-.9,3.13,3.13,0,0,1,1.4.3v1a2.49,2.49,0,0,0-1.43-.47,1.92,1.92,0,0,0-1.51.66,2.47,2.47,0,0,0-.59,1.73,2.39,2.39,0,0,0,.55,1.67,1.94,1.94,0,0,0,1.49.61,2.44,2.44,0,0,0,1.47-.52Z" fill="#1e1e1e"/>
      <path d="M536.2,167.78h-1v-.93h0a2,2,0,0,1-1.85,1.08,2,2,0,0,1-1.4-.48,1.65,1.65,0,0,1-.51-1.26c0-1.12.66-1.77,2-2l1.8-.25c0-1-.41-1.53-1.24-1.53a3,3,0,0,0-2,.74v-1a3.68,3.68,0,0,1,2-.57c1.41,0,2.11.75,2.11,2.24Zm-1-3-1.45.2a2.25,2.25,0,0,0-1,.33,1,1,0,0,0-.34.84.92.92,0,0,0,.31.72,1.24,1.24,0,0,0,.83.28,1.55,1.55,0,0,0,1.18-.5,1.77,1.77,0,0,0,.47-1.27Z" fill="#1e1e1e"/>
      <path d="M540.8,167.73a2,2,0,0,1-.9.18c-1,0-1.58-.58-1.58-1.75V162.6h-1v-.82h1v-1.46l1-.31v1.77h1.52v.82h-1.52V166a1.37,1.37,0,0,0,.21.86.82.82,0,0,0,.68.25,1,1,0,0,0,.63-.19Z" fill="#1e1e1e"/>
      <path d="M546.9,165h-4.24a2.28,2.28,0,0,0,.54,1.55,1.85,1.85,0,0,0,1.42.55,3,3,0,0,0,1.86-.67v.9a3.48,3.48,0,0,1-2.09.58,2.58,2.58,0,0,1-2-.82,3.37,3.37,0,0,1-.72-2.3,3.25,3.25,0,0,1,.79-2.28,2.55,2.55,0,0,1,2-.89,2.26,2.26,0,0,1,1.83.77,3.15,3.15,0,0,1,.64,2.11Zm-1-.81a1.93,1.93,0,0,0-.41-1.29,1.34,1.34,0,0,0-1.09-.47,1.54,1.54,0,0,0-1.16.49,2.21,2.21,0,0,0-.58,1.27Z" fill="#1e1e1e"/>
      <path d="M554.61,159.75a1.24,1.24,0,0,0-.64-.16c-.67,0-1,.42-1,1.27v.92h1.41v.82H553v5.18h-1V162.6h-1v-.82h1v-1a2,2,0,0,1,.55-1.49,1.86,1.86,0,0,1,1.36-.55,1.94,1.94,0,0,1,.7.11Z" fill="#1e1e1e"/>
      <path d="M557.9,167.93a2.76,2.76,0,0,1-2.12-.85,3.1,3.1,0,0,1-.79-2.23,3.26,3.26,0,0,1,.82-2.36,3,3,0,0,1,2.24-.85,2.69,2.69,0,0,1,2.09.83,3.27,3.27,0,0,1,.75,2.29,3.23,3.23,0,0,1-.81,2.3A2.84,2.84,0,0,1,557.9,167.93Zm.07-5.48a1.83,1.83,0,0,0-1.46.63,2.59,2.59,0,0,0-.54,1.74,2.41,2.41,0,0,0,.55,1.68,1.85,1.85,0,0,0,1.45.62,1.75,1.75,0,0,0,1.44-.61,2.62,2.62,0,0,0,.5-1.71,2.71,2.71,0,0,0-.5-1.74A1.78,1.78,0,0,0,558,162.45Z" fill="#1e1e1e"/>
      <path d="M565.56,162.76a1.18,1.18,0,0,0-.73-.2,1.25,1.25,0,0,0-1,.58,2.75,2.75,0,0,0-.41,1.59v3.05h-1v-6h1V163h0a2.17,2.17,0,0,1,.63-1,1.46,1.46,0,0,1,.94-.35,1.75,1.75,0,0,1,.58.08Z" fill="#1e1e1e"/>
      <path d="M574.71,165h-4.24a2.28,2.28,0,0,0,.54,1.55,1.85,1.85,0,0,0,1.42.55,3,3,0,0,0,1.86-.67v.9a3.48,3.48,0,0,1-2.09.58,2.56,2.56,0,0,1-2-.82,3.37,3.37,0,0,1-.72-2.3,3.25,3.25,0,0,1,.79-2.28,2.55,2.55,0,0,1,2-.89,2.23,2.23,0,0,1,1.82.77,3.15,3.15,0,0,1,.65,2.11Zm-1-.81a1.88,1.88,0,0,0-.4-1.29,1.36,1.36,0,0,0-1.1-.47,1.54,1.54,0,0,0-1.15.49,2.22,2.22,0,0,0-.59,1.27Z" fill="#1e1e1e"/>
      <path d="M581.14,167.78h-1v-3.42c0-1.27-.46-1.91-1.39-1.91a1.54,1.54,0,0,0-1.2.54,2.05,2.05,0,0,0-.47,1.37v3.42h-1v-6h1v1h0a2.16,2.16,0,0,1,2-1.14,1.85,1.85,0,0,1,1.5.64,2.82,2.82,0,0,1,.52,1.84Z" fill="#1e1e1e"/>
      <path d="M587,167.51a3.08,3.08,0,0,1-1.64.42,2.72,2.72,0,0,1-2.07-.84,3.06,3.06,0,0,1-.79-2.16,3.37,3.37,0,0,1,.85-2.39,3,3,0,0,1,2.27-.9,3.06,3.06,0,0,1,1.39.3v1a2.44,2.44,0,0,0-1.42-.47,1.92,1.92,0,0,0-1.51.66,2.47,2.47,0,0,0-.59,1.73,2.39,2.39,0,0,0,.55,1.67,1.94,1.94,0,0,0,1.49.61,2.44,2.44,0,0,0,1.47-.52Z" fill="#1e1e1e"/>
      <path d="M591.63,162.76a1.18,1.18,0,0,0-.73-.2,1.25,1.25,0,0,0-1,.58,2.68,2.68,0,0,0-.41,1.59v3.05h-1v-6h1V163h0a2.17,2.17,0,0,1,.63-1,1.44,1.44,0,0,1,.94-.35,1.75,1.75,0,0,1,.58.08Z" fill="#1e1e1e"/>
      <path d="M597.44,161.78l-2.76,7q-.73,1.86-2.07,1.86a2.25,2.25,0,0,1-.63-.08v-.86a1.84,1.84,0,0,0,.57.11,1.17,1.17,0,0,0,1.09-.87l.48-1.14-2.34-6h1.06l1.63,4.62c0,.06.06.21.12.46h0a3.41,3.41,0,0,1,.11-.45l1.71-4.63Z" fill="#1e1e1e"/>
      <path d="M599.46,166.92h0v3.62h-1v-8.76h1v1.06h0a2.26,2.26,0,0,1,2.07-1.2,2.18,2.18,0,0,1,1.81.81,3.31,3.31,0,0,1,.65,2.16,3.71,3.71,0,0,1-.73,2.41,2.44,2.44,0,0,1-2,.91A2,2,0,0,1,599.46,166.92Zm0-2.42v.84a1.8,1.8,0,0,0,.48,1.26,1.72,1.72,0,0,0,2.59-.15,3.09,3.09,0,0,0,.5-1.86,2.41,2.41,0,0,0-.46-1.57,1.54,1.54,0,0,0-1.26-.57A1.69,1.69,0,0,0,600,163,2.11,2.11,0,0,0,599.44,164.5Z" fill="#1e1e1e"/>
      <path d="M608.31,167.73a1.87,1.87,0,0,1-.89.18c-1,0-1.58-.58-1.58-1.75V162.6h-1v-.82h1v-1.46l1-.31v1.77h1.51v.82H606.8V166a1.37,1.37,0,0,0,.21.86.81.81,0,0,0,.68.25,1,1,0,0,0,.62-.19Z" fill="#1e1e1e"/>
      <path d="M610.09,160.26a.64.64,0,0,1-.44-.17.65.65,0,0,1,0-.9.6.6,0,0,1,.44-.18.64.64,0,0,1,.45.18.61.61,0,0,1,.18.45.6.6,0,0,1-.18.44A.64.64,0,0,1,610.09,160.26Zm.47,7.52h-1v-6h1Z" fill="#1e1e1e"/>
      <path d="M617.48,167.78h-1v-3.42c0-1.27-.46-1.91-1.39-1.91a1.54,1.54,0,0,0-1.2.54,2.05,2.05,0,0,0-.47,1.37v3.42h-1v-6h1v1h0a2.16,2.16,0,0,1,2-1.14,1.85,1.85,0,0,1,1.5.64,2.82,2.82,0,0,1,.52,1.84Z" fill="#1e1e1e"/>
      <path d="M624.41,167.3q0,3.31-3.16,3.31a4.31,4.31,0,0,1-2-.42v-1a4.09,4.09,0,0,0,1.94.56c1.48,0,2.21-.79,2.21-2.36v-.65h0a2.42,2.42,0,0,1-3.86.35,3.19,3.19,0,0,1-.69-2.15,3.73,3.73,0,0,1,.74-2.43,2.44,2.44,0,0,1,2-.91,2,2,0,0,1,1.8,1h0v-.84h1Zm-1-2.23v-.88A1.73,1.73,0,0,0,623,163a1.58,1.58,0,0,0-1.2-.51,1.68,1.68,0,0,0-1.4.65,2.93,2.93,0,0,0-.5,1.81,2.51,2.51,0,0,0,.48,1.61,1.56,1.56,0,0,0,1.28.6,1.67,1.67,0,0,0,1.32-.58A2.16,2.16,0,0,0,623.45,165.07Z" fill="#1e1e1e"/>
      <path d="M477.84,180.93a2,2,0,0,1-.9.18c-1.05,0-1.58-.58-1.58-1.75v-3.55h-1V175h1v-1.46l1-.31V175h1.52v.83h-1.52v3.38a1.37,1.37,0,0,0,.21.86.83.83,0,0,0,.68.26,1.05,1.05,0,0,0,.63-.2Z" fill="#1e1e1e"/>
      <path d="M482.25,176a1.18,1.18,0,0,0-.73-.2,1.25,1.25,0,0,0-1,.58,2.75,2.75,0,0,0-.41,1.59v3h-1v-6h1v1.24h0a2.17,2.17,0,0,1,.63-1,1.46,1.46,0,0,1,.94-.35,1.71,1.71,0,0,1,.58.08Z" fill="#1e1e1e"/>
      <path d="M487.59,181h-1v-.93h0a2,2,0,0,1-1.84,1.08,2,2,0,0,1-1.41-.48,1.64,1.64,0,0,1-.5-1.26c0-1.12.66-1.77,2-2l1.8-.25c0-1-.42-1.53-1.24-1.53a3,3,0,0,0-2,.74v-1a3.68,3.68,0,0,1,2-.57c1.41,0,2.12.75,2.12,2.24Zm-1-3-1.45.2a2.3,2.3,0,0,0-1,.33,1,1,0,0,0-.34.84.92.92,0,0,0,.31.72,1.25,1.25,0,0,0,.84.28,1.55,1.55,0,0,0,1.18-.5,1.81,1.81,0,0,0,.47-1.27Z" fill="#1e1e1e"/>
      <path d="M492.36,173a1.24,1.24,0,0,0-.64-.16c-.67,0-1,.42-1,1.27V175h1.4v.83h-1.4V181h-1v-5.17h-1V175h1v-1a2,2,0,0,1,.54-1.49,2,2,0,0,1,2.06-.44Z" fill="#1e1e1e"/>
      <path d="M496.12,173a1.24,1.24,0,0,0-.64-.16c-.67,0-1,.42-1,1.27V175h1.41v.83h-1.41V181h-1v-5.17h-1V175h1v-1a2,2,0,0,1,.54-1.49,1.86,1.86,0,0,1,1.36-.55,1.9,1.9,0,0,1,.7.11Z" fill="#1e1e1e"/>
      <path d="M497.4,173.46a.64.64,0,0,1-.44-.17.65.65,0,0,1,0-.9.6.6,0,0,1,.44-.18.62.62,0,0,1,.63.63.6.6,0,0,1-.18.44A.61.61,0,0,1,497.4,173.46Zm.47,7.52h-1v-6h1Z" fill="#1e1e1e"/>
      <path d="M503.9,180.71a3.08,3.08,0,0,1-1.64.42,2.72,2.72,0,0,1-2.07-.84,3.06,3.06,0,0,1-.79-2.16,3.37,3.37,0,0,1,.85-2.39,3,3,0,0,1,2.27-.9,3.13,3.13,0,0,1,1.4.3v1a2.49,2.49,0,0,0-1.43-.47,1.92,1.92,0,0,0-1.51.66,2.52,2.52,0,0,0-.59,1.73,2.39,2.39,0,0,0,.55,1.67,1.94,1.94,0,0,0,1.49.61,2.44,2.44,0,0,0,1.47-.52Z" fill="#1e1e1e"/>
      <path d="M511.43,180.93a2,2,0,0,1-.9.18c-1,0-1.57-.58-1.57-1.75v-3.55h-1V175h1v-1.46l1-.31V175h1.51v.83h-1.51v3.38a1.38,1.38,0,0,0,.2.86.83.83,0,0,0,.68.26,1.05,1.05,0,0,0,.63-.2Z" fill="#1e1e1e"/>
      <path d="M515.22,181.13a2.77,2.77,0,0,1-2.13-.85,3.14,3.14,0,0,1-.79-2.22,3.27,3.27,0,0,1,.83-2.37,3,3,0,0,1,2.23-.85,2.69,2.69,0,0,1,2.09.83,3.75,3.75,0,0,1-.05,4.59A2.85,2.85,0,0,1,515.22,181.13Zm.07-5.48a1.84,1.84,0,0,0-1.47.63,2.64,2.64,0,0,0-.53,1.74,2.46,2.46,0,0,0,.54,1.68,1.85,1.85,0,0,0,1.46.62,1.73,1.73,0,0,0,1.43-.61,2.57,2.57,0,0,0,.5-1.71,2.65,2.65,0,0,0-.5-1.74A1.76,1.76,0,0,0,515.29,175.65Z" fill="#1e1e1e"/>
      <path d="M523.53,172.58l-4,9.8h-.89l4-9.8Z" fill="#1e1e1e"/>
      <path d="M527.38,173a1.22,1.22,0,0,0-.64-.16c-.67,0-1,.42-1,1.27V175h1.4v.83h-1.4V181h-1v-5.17h-1V175h1v-1a2,2,0,0,1,.55-1.49,2,2,0,0,1,2-.44Z" fill="#1e1e1e"/>
      <path d="M531.3,176a1.14,1.14,0,0,0-.72-.2,1.24,1.24,0,0,0-1,.58,2.68,2.68,0,0,0-.41,1.59v3h-1v-6h1v1.24h0a2.09,2.09,0,0,1,.63-1,1.44,1.44,0,0,1,.94-.35,1.65,1.65,0,0,1,.57.08Z" fill="#1e1e1e"/>
      <path d="M534.85,181.13a2.76,2.76,0,0,1-2.12-.85,3.09,3.09,0,0,1-.79-2.22,3.27,3.27,0,0,1,.82-2.37,3,3,0,0,1,2.23-.85,2.7,2.7,0,0,1,2.1.83,3.27,3.27,0,0,1,.75,2.29,3.21,3.21,0,0,1-.81,2.3A2.84,2.84,0,0,1,534.85,181.13Zm.07-5.48a1.83,1.83,0,0,0-1.46.63,2.59,2.59,0,0,0-.54,1.74,2.41,2.41,0,0,0,.55,1.68,1.83,1.83,0,0,0,1.45.62,1.75,1.75,0,0,0,1.44-.61,2.62,2.62,0,0,0,.5-1.71,2.71,2.71,0,0,0-.5-1.74A1.78,1.78,0,0,0,534.92,175.65Z" fill="#1e1e1e"/>
      <path d="M547.9,181h-1v-3.44a2.65,2.65,0,0,0-.31-1.44,1.17,1.17,0,0,0-1-.45,1.27,1.27,0,0,0-1,.57,2.11,2.11,0,0,0-.43,1.34V181h-1v-3.56c0-1.18-.46-1.77-1.37-1.77a1.27,1.27,0,0,0-1,.53,2.18,2.18,0,0,0-.41,1.38V181h-1v-6h1v1h0a2.06,2.06,0,0,1,1.86-1.09,1.73,1.73,0,0,1,1.7,1.25,2.15,2.15,0,0,1,2-1.25c1.32,0,2,.82,2,2.45Z" fill="#1e1e1e"/>
      <path d="M554,180.12h0V181h-1V172.1h1V176h0a2.29,2.29,0,0,1,2.08-1.2,2.2,2.2,0,0,1,1.81.81,3.37,3.37,0,0,1,.65,2.16,3.71,3.71,0,0,1-.73,2.41,2.46,2.46,0,0,1-2,.91A2,2,0,0,1,554,180.12Zm0-2.42v.84a1.8,1.8,0,0,0,.48,1.26,1.65,1.65,0,0,0,1.23.52,1.63,1.63,0,0,0,1.37-.67,3.09,3.09,0,0,0,.5-1.86,2.41,2.41,0,0,0-.47-1.57,1.52,1.52,0,0,0-1.25-.57,1.71,1.71,0,0,0-1.35.59A2.11,2.11,0,0,0,554,177.7Z" fill="#1e1e1e"/>
      <path d="M564.35,181h-1v-.93h0a2,2,0,0,1-1.85,1.08,1.93,1.93,0,0,1-1.4-.48,1.65,1.65,0,0,1-.51-1.26c0-1.12.66-1.77,2-2l1.8-.25c0-1-.41-1.53-1.24-1.53a3,3,0,0,0-1.95.74v-1a3.67,3.67,0,0,1,2-.57c1.41,0,2.12.75,2.12,2.24Zm-1-3-1.45.2a2.35,2.35,0,0,0-1,.33,1,1,0,0,0-.34.84.93.93,0,0,0,.32.72,1.22,1.22,0,0,0,.83.28,1.55,1.55,0,0,0,1.18-.5,1.81,1.81,0,0,0,.47-1.27Z" fill="#1e1e1e"/>
      <path d="M570.25,180.71a3.1,3.1,0,0,1-1.64.42,2.69,2.69,0,0,1-2.07-.84,3,3,0,0,1-.79-2.16,3.33,3.33,0,0,1,.85-2.39,3,3,0,0,1,2.27-.9,3.09,3.09,0,0,1,1.39.3v1a2.45,2.45,0,0,0-1.43-.47,2,2,0,0,0-1.51.66,2.52,2.52,0,0,0-.59,1.73,2.39,2.39,0,0,0,.56,1.67,1.92,1.92,0,0,0,1.48.61,2.45,2.45,0,0,0,1.48-.52Z" fill="#1e1e1e"/>
      <path d="M576.68,181h-1.34l-2.65-2.88h0V181h-1V172.1h1v5.63h0l2.52-2.75h1.26l-2.79,2.9Z" fill="#1e1e1e"/>
      <path d="M582.49,178.23h-4.24a2.27,2.27,0,0,0,.54,1.54,1.85,1.85,0,0,0,1.42.55,3,3,0,0,0,1.86-.67v.9a3.48,3.48,0,0,1-2.09.58,2.58,2.58,0,0,1-2-.82,3.37,3.37,0,0,1-.72-2.3,3.25,3.25,0,0,1,.79-2.28,2.55,2.55,0,0,1,2-.89,2.26,2.26,0,0,1,1.83.77,3.15,3.15,0,0,1,.64,2.11Zm-1-.82a1.93,1.93,0,0,0-.41-1.29,1.36,1.36,0,0,0-1.09-.47,1.54,1.54,0,0,0-1.16.49,2.21,2.21,0,0,0-.58,1.27Z" fill="#1e1e1e"/>
      <path d="M588.92,181h-1v-3.42c0-1.27-.46-1.91-1.39-1.91a1.5,1.5,0,0,0-1.19.54,2,2,0,0,0-.48,1.37V181h-1v-6h1v1h0a2.16,2.16,0,0,1,2-1.14,1.85,1.85,0,0,1,1.5.64,2.82,2.82,0,0,1,.52,1.84Z" fill="#1e1e1e"/>
      <path d="M595.86,181h-1v-1h0a2.42,2.42,0,0,1-3.87.35,3.32,3.32,0,0,1-.68-2.19,3.6,3.6,0,0,1,.75-2.39,2.48,2.48,0,0,1,2-.9,1.92,1.92,0,0,1,1.8,1h0V172.1h1Zm-1-2.71v-.88a1.7,1.7,0,0,0-.48-1.23,1.59,1.59,0,0,0-1.21-.51,1.68,1.68,0,0,0-1.39.65,2.85,2.85,0,0,0-.5,1.78,2.56,2.56,0,0,0,.48,1.64,1.59,1.59,0,0,0,1.3.6,1.64,1.64,0,0,0,1.3-.58A2.15,2.15,0,0,0,594.89,178.27Z" fill="#1e1e1e"/>
    </g>
    <g>
      <path d="M410.05,167.78h-1V164h-4.35v3.83h-1v-8.4h1v3.69h4.35v-3.69h1Z" fill="#1e1e1e"/>
      <path d="M417.1,160.27h-2.42v7.51h-1v-7.51h-2.42v-.89h5.83Z" fill="#1e1e1e"/>
      <path d="M423.7,160.27h-2.43v7.51h-1v-7.51h-2.42v-.89h5.83Z" fill="#1e1e1e"/>
      <path d="M425.89,164.61v3.17h-1v-8.4h2.31a3,3,0,0,1,2.09.66,2.32,2.32,0,0,1,.74,1.85,2.54,2.54,0,0,1-.82,2,3.18,3.18,0,0,1-2.22.76Zm0-4.34v3.45h1a2.33,2.33,0,0,0,1.56-.47,1.67,1.67,0,0,0,.53-1.31c0-1.11-.65-1.67-2-1.67Z" fill="#1e1e1e"/>
      <path d="M396,181.85v-1.16a2.39,2.39,0,0,0,.47.31,3.83,3.83,0,0,0,.59.24c.21.06.41.11.62.15a4.13,4.13,0,0,0,.57.05,2.22,2.22,0,0,0,1.36-.34,1.12,1.12,0,0,0,.45-1,1.15,1.15,0,0,0-.15-.59,1.64,1.64,0,0,0-.42-.46,3.91,3.91,0,0,0-.62-.4l-.78-.4-.82-.45a3.81,3.81,0,0,1-.66-.5,2.11,2.11,0,0,1-.44-.63,1.86,1.86,0,0,1-.16-.81,1.88,1.88,0,0,1,.25-1,2.11,2.11,0,0,1,.66-.7,3,3,0,0,1,.94-.41,4.24,4.24,0,0,1,1.07-.14,4.11,4.11,0,0,1,1.81.3v1.11a3.26,3.26,0,0,0-1.91-.52,3.59,3.59,0,0,0-.65.07,2,2,0,0,0-.57.22,1.18,1.18,0,0,0-.41.39,1,1,0,0,0-.16.59,1.18,1.18,0,0,0,.12.55,1.41,1.41,0,0,0,.35.43,3.43,3.43,0,0,0,.58.38l.77.4c.3.14.59.3.86.46a4.46,4.46,0,0,1,.71.55,2.53,2.53,0,0,1,.48.66,1.84,1.84,0,0,1,.18.83,2.16,2.16,0,0,1-.24,1.06,2.21,2.21,0,0,1-.66.7,2.88,2.88,0,0,1-.95.39,5.24,5.24,0,0,1-1.14.12c-.13,0-.3,0-.49,0s-.4,0-.6-.09a4.91,4.91,0,0,1-.58-.15A1.93,1.93,0,0,1,396,181.85Z" fill="#1e1e1e"/>
      <path d="M407.42,179.43h-4.24a2.18,2.18,0,0,0,.54,1.54,1.82,1.82,0,0,0,1.42.55,3,3,0,0,0,1.86-.67v.9a3.52,3.52,0,0,1-2.09.58,2.55,2.55,0,0,1-2-.82,3.37,3.37,0,0,1-.73-2.3,3.25,3.25,0,0,1,.8-2.28,2.54,2.54,0,0,1,2-.89,2.26,2.26,0,0,1,1.82.77,3.15,3.15,0,0,1,.65,2.11Zm-1-.82a1.93,1.93,0,0,0-.4-1.29,1.36,1.36,0,0,0-1.1-.47,1.56,1.56,0,0,0-1.15.49,2.16,2.16,0,0,0-.59,1.27Z" fill="#1e1e1e"/>
      <path d="M411.64,182.13a1.87,1.87,0,0,1-.89.18c-1.05,0-1.58-.58-1.58-1.75V177h-1v-.82h1v-1.47l1-.31v1.78h1.51V177h-1.51v3.38a1.37,1.37,0,0,0,.21.86.81.81,0,0,0,.68.26,1,1,0,0,0,.62-.2Z" fill="#1e1e1e"/>
      <path d="M416,182.13a2,2,0,0,1-.9.18c-1,0-1.58-.58-1.58-1.75V177h-1v-.82h1v-1.47l1-.31v1.78H416V177h-1.51v3.38a1.38,1.38,0,0,0,.2.86.83.83,0,0,0,.68.26,1.05,1.05,0,0,0,.63-.2Z" fill="#1e1e1e"/>
      <path d="M417.67,174.66a.64.64,0,0,1-.44-.17.65.65,0,0,1,0-.9.6.6,0,0,1,.44-.18.61.61,0,0,1,.45.18.62.62,0,0,1,0,.89A.61.61,0,0,1,417.67,174.66Zm.47,7.53h-1v-6h1Z" fill="#1e1e1e"/>
      <path d="M425,182.19h-1v-3.43c0-1.27-.47-1.91-1.4-1.91a1.5,1.5,0,0,0-1.19.55,2,2,0,0,0-.47,1.36v3.43h-1v-6h1v1h0a2.17,2.17,0,0,1,2-1.14,1.86,1.86,0,0,1,1.51.64,2.88,2.88,0,0,1,.52,1.84Z" fill="#1e1e1e"/>
      <path d="M431.88,181.7q0,3.31-3.16,3.31a4.28,4.28,0,0,1-2-.42v-1a4.06,4.06,0,0,0,1.93.56c1.48,0,2.22-.79,2.22-2.36v-.65h0a2.43,2.43,0,0,1-3.87.35,3.24,3.24,0,0,1-.68-2.15,3.73,3.73,0,0,1,.73-2.43,2.48,2.48,0,0,1,2-.91,2,2,0,0,1,1.8,1h0v-.83h1Zm-1-2.23v-.88a1.73,1.73,0,0,0-.48-1.23,1.62,1.62,0,0,0-1.21-.51,1.66,1.66,0,0,0-1.39.65,2.87,2.87,0,0,0-.51,1.81,2.46,2.46,0,0,0,.49,1.61,1.56,1.56,0,0,0,1.28.6,1.65,1.65,0,0,0,1.31-.58A2.12,2.12,0,0,0,430.92,179.47Z" fill="#1e1e1e"/>
      <path d="M433.4,182v-1a2.9,2.9,0,0,0,1.73.58c.84,0,1.27-.28,1.27-.85a.72.72,0,0,0-.11-.4,1,1,0,0,0-.3-.3,1.93,1.93,0,0,0-.43-.23l-.54-.22c-.26-.1-.49-.21-.7-.31a2.16,2.16,0,0,1-.5-.37,1.26,1.26,0,0,1-.3-.46,1.57,1.57,0,0,1-.11-.6,1.45,1.45,0,0,1,.2-.75,1.65,1.65,0,0,1,.51-.54,2.26,2.26,0,0,1,.74-.33,3,3,0,0,1,.85-.12,3.41,3.41,0,0,1,1.39.27v1a2.69,2.69,0,0,0-1.52-.44,1.88,1.88,0,0,0-.49.06,1.41,1.41,0,0,0-.37.18.85.85,0,0,0-.24.26.82.82,0,0,0-.08.35.74.74,0,0,0,.33.67,1.67,1.67,0,0,0,.4.22l.53.22c.27.1.51.21.72.31a2.44,2.44,0,0,1,.54.37,1.38,1.38,0,0,1,.34.46,1.54,1.54,0,0,1,.12.63,1.47,1.47,0,0,1-.2.77,1.7,1.7,0,0,1-.52.55,2.49,2.49,0,0,1-.76.32,3.68,3.68,0,0,1-.89.11A3.39,3.39,0,0,1,433.4,182Z" fill="#1e1e1e"/>
    </g>
    <g>
      <path d="M218.7,24.82h-4.36v-8.4h1v7.51h3.38Z" fill="#1e1e1e"/>
      <path d="M220.32,17.29a.6.6,0,0,1-.44-.17.61.61,0,0,1-.18-.45.57.57,0,0,1,.18-.44.6.6,0,0,1,.44-.18.61.61,0,0,1,.45.18.57.57,0,0,1,.18.44.59.59,0,0,1-.18.44A.61.61,0,0,1,220.32,17.29Zm.47,7.53h-1v-6h1Z" fill="#1e1e1e"/>
      <path d="M222.27,24.6v-1a2.84,2.84,0,0,0,1.73.58c.84,0,1.27-.28,1.27-.84a.76.76,0,0,0-.11-.41,1.17,1.17,0,0,0-.29-.3,3,3,0,0,0-.44-.23l-.53-.21a6.76,6.76,0,0,1-.7-.32,2.29,2.29,0,0,1-.51-.36,1.35,1.35,0,0,1-.3-.46,1.66,1.66,0,0,1-.11-.61,1.39,1.39,0,0,1,.2-.74,1.78,1.78,0,0,1,.51-.55,2.26,2.26,0,0,1,.74-.33,3,3,0,0,1,.85-.11A3.46,3.46,0,0,1,226,19v1a2.74,2.74,0,0,0-1.53-.43,1.75,1.75,0,0,0-.48.06,1.33,1.33,0,0,0-.38.17.72.72,0,0,0-.32.61.87.87,0,0,0,.08.39.83.83,0,0,0,.25.28,1.68,1.68,0,0,0,.4.23l.53.21a6.17,6.17,0,0,1,.72.32,2.42,2.42,0,0,1,.54.36,1.32,1.32,0,0,1,.34.47,1.46,1.46,0,0,1,.12.62,1.42,1.42,0,0,1-.2.78,1.58,1.58,0,0,1-.52.54,2.26,2.26,0,0,1-.76.32,3.68,3.68,0,0,1-.89.11A3.41,3.41,0,0,1,222.27,24.6Z" fill="#1e1e1e"/>
      <path d="M230.56,24.76a1.94,1.94,0,0,1-.9.19c-1,0-1.58-.59-1.58-1.76V19.64h-1v-.82h1V17.35l1-.31v1.78h1.52v.82H229V23a1.37,1.37,0,0,0,.21.86.83.83,0,0,0,.68.26,1.05,1.05,0,0,0,.63-.2Z" fill="#1e1e1e"/>
      <path d="M236.56,22.06h-4.24a2.3,2.3,0,0,0,.54,1.55,1.88,1.88,0,0,0,1.42.54,2.89,2.89,0,0,0,1.86-.67v.9a3.41,3.41,0,0,1-2.09.58,2.53,2.53,0,0,1-2-.82,3.35,3.35,0,0,1-.72-2.3,3.28,3.28,0,0,1,.79-2.28,2.54,2.54,0,0,1,2-.88,2.22,2.22,0,0,1,1.82.76,3.17,3.17,0,0,1,.65,2.11Zm-1-.82a1.9,1.9,0,0,0-.4-1.29,1.36,1.36,0,0,0-1.1-.46,1.56,1.56,0,0,0-1.15.48,2.25,2.25,0,0,0-.59,1.27Z" fill="#1e1e1e"/>
      <path d="M243,24.82h-1V21.4c0-1.28-.46-1.91-1.39-1.91a1.5,1.5,0,0,0-1.19.54A2,2,0,0,0,239,21.4v3.42h-1v-6h1v1h0a2.17,2.17,0,0,1,2-1.13,1.84,1.84,0,0,1,1.5.63,2.84,2.84,0,0,1,.52,1.84Z" fill="#1e1e1e"/>
      <path d="M249.61,22.06h-4.24a2.21,2.21,0,0,0,.54,1.55,1.85,1.85,0,0,0,1.42.54,2.93,2.93,0,0,0,1.86-.67v.9a3.45,3.45,0,0,1-2.09.58,2.52,2.52,0,0,1-2-.82,3.36,3.36,0,0,1-.73-2.3,3.29,3.29,0,0,1,.8-2.28,2.53,2.53,0,0,1,2-.88,2.25,2.25,0,0,1,1.82.76,3.17,3.17,0,0,1,.65,2.11Zm-1-.82a2,2,0,0,0-.4-1.29,1.36,1.36,0,0,0-1.1-.46A1.55,1.55,0,0,0,246,20a2.19,2.19,0,0,0-.59,1.27Z" fill="#1e1e1e"/>
      <path d="M254.19,19.79a1.18,1.18,0,0,0-.73-.19,1.23,1.23,0,0,0-1,.58,2.7,2.7,0,0,0-.41,1.58v3.06h-1v-6h1v1.23h0a2.09,2.09,0,0,1,.63-1,1.42,1.42,0,0,1,.94-.36,1.75,1.75,0,0,1,.58.08Z" fill="#1e1e1e"/>
    </g>
  </g>
</svg>
