<svg xmlns="http://www.w3.org/2000/svg" viewBox="0 0 451.31 210.5">
  <g id="Shapes">
    <rect x="0.48" width="450.32" height="210" fill="#fff"/>
    <g>
      <rect x="15.4" y="21" width="435.4" height="189" rx="5" fill="#fff"/>
      <rect x="15.4" y="21" width="435.4" height="189" rx="5" fill="#3c3c41" opacity="0.05"/>
      <rect x="15.4" y="21" width="435.4" height="189" rx="5" fill="none" stroke="#3c3c41" stroke-dasharray="1 2"/>
    </g>
    <g>
      <rect x="35.15" y="50.75" width="125.5" height="110.5" fill="#fff"/>
      <rect x="35.15" y="50.75" width="125.5" height="110.5" fill="#0078d4" opacity="0.8"/>
      <path d="M160.4,51V161H35.4V51h125m.5-.5H34.9v111h126V50.5Z" fill="#005ba1"/>
    </g>
    <g>
      <rect x="40.4" y="61" width="115" height="20" fill="#fff"/>
      <rect x="40.4" y="61" width="115" height="20" fill="#3c3c41" opacity="0.15"/>
    </g>
    <g>
      <rect x="40.4" y="86" width="115" height="20" fill="#fff"/>
      <rect x="40.4" y="86" width="115" height="20" fill="#3c3c41" opacity="0.15"/>
    </g>
    <g>
      <rect x="40.4" y="111" width="115" height="20" fill="#fff"/>
      <rect x="40.4" y="111" width="115" height="20" fill="#3c3c41" opacity="0.15"/>
    </g>
    <g>
      <rect x="180.93" y="101.13" width="124.75" height="84.75" fill="#fff"/>
      <rect x="180.93" y="101.13" width="124.75" height="84.75" fill="#83b9f9" opacity="0.15"/>
      <path d="M305.56,101.25v84.5H181.06v-84.5h124.5m.25-.25h-125v85h125V101Z" fill="#fff"/>
      <path d="M305.81,101v85h-125V101h125m.25-.25H180.56v85.5h125.5v-85.5Z" fill="#0078d4"/>
    </g>
    <g>
      <rect x="185.81" y="106" width="115" height="20" fill="#fff"/>
      <rect x="185.81" y="106" width="115" height="20" fill="#3c3c41" opacity="0.25"/>
    </g>
    <g>
      <rect x="185.81" y="156" width="115" height="20" fill="#fff"/>
      <rect x="185.81" y="156" width="115" height="20" fill="#3c3c41" opacity="0.25"/>
    </g>
    <g>
      <rect x="315.93" y="101.13" width="124.75" height="84.75" fill="#fff"/>
      <rect x="315.93" y="101.13" width="124.75" height="84.75" fill="#83b9f9" opacity="0.15"/>
      <path d="M440.56,101.25v84.5H316.06v-84.5h124.5m.25-.25h-125v85h125V101Z" fill="#fff"/>
      <path d="M440.81,101v85h-125V101h125m.25-.25H315.56v85.5h125.5v-85.5Z" fill="#0078d4"/>
    </g>
    <g>
      <rect x="320.81" y="106" width="115" height="20" fill="#fff"/>
      <rect x="320.81" y="106" width="115" height="20" fill="#3c3c41" opacity="0.25"/>
    </g>
    <g>
      <rect x="320.81" y="156" width="115" height="20" fill="#fff"/>
      <rect x="320.81" y="156" width="115" height="20" fill="#3c3c41" opacity="0.25"/>
    </g>
    <g>
      <rect x="40.4" y="136" width="115" height="20" fill="#fff"/>
      <rect x="40.4" y="136" width="115" height="20" fill="#3c3c41" opacity="0.15"/>
    </g>
    <g>
      <path d="M9.84,29.52A2.38,2.38,0,0,1,8,28.63L1,20a2.33,2.33,0,0,1-.46-2L3,7.11A2.35,2.35,0,0,1,4.34,5.5L14.42.68a2.35,2.35,0,0,1,2.07,0l10.08,4.8a2.34,2.34,0,0,1,1.29,1.61l2.49,10.82a2.42,2.42,0,0,1-.45,2l-7,8.67a2.41,2.41,0,0,1-1.85.89l-11.23,0Z" fill="#326de6"/>
      <path d="M15.43.94a2,2,0,0,1,.82.18l10.08,4.8a1.93,1.93,0,0,1,1,1.29L29.86,18a1.85,1.85,0,0,1-.38,1.63l-7,8.67A1.93,1.93,0,0,1,21,29H9.84a1.93,1.93,0,0,1-1.5-.71l-7-8.67A2,2,0,0,1,1,18L3.48,7.21a1.89,1.89,0,0,1,1-1.29L14.6,1.1a2.4,2.4,0,0,1,.83-.16Zm0-.94h0A3,3,0,0,0,14.2.28L4.12,5.1A2.8,2.8,0,0,0,2.57,7L.08,17.85a2.84,2.84,0,0,0,.55,2.43l7,8.66A2.79,2.79,0,0,0,9.82,30H21a2.81,2.81,0,0,0,2.21-1.06l7-8.66a2.8,2.8,0,0,0,.56-2.43L28.24,7A2.82,2.82,0,0,0,26.69,5.1L16.65.28A2.87,2.87,0,0,0,15.43,0Z" fill="#fff"/>
      <path d="M25.53,17.17h0s0,0,0,0l-.12,0a2.6,2.6,0,0,0-.37,0,.75.75,0,0,1-.2,0h0a5.28,5.28,0,0,1-1.08-.18.39.39,0,0,1-.22-.22s0,0,0,0h0l-.26-.08a7.8,7.8,0,0,0-.14-2.8,8.07,8.07,0,0,0-1.11-2.61l.2-.18v0a.45.45,0,0,1,.1-.3,5.7,5.7,0,0,1,.89-.62h0l.18-.1a3,3,0,0,0,.34-.2l.1-.08s0,0,0,0h0a.66.66,0,0,0,.14-.89.57.57,0,0,0-.46-.22.74.74,0,0,0-.44.16h0l0,0s-.06.06-.1.08a1.57,1.57,0,0,0-.25.27.92.92,0,0,1-.14.14h0a5.08,5.08,0,0,1-.8.72.32.32,0,0,1-.18.06.25.25,0,0,1-.12,0h0l-.24.16a9.71,9.71,0,0,0-.82-.76,8,8,0,0,0-4.16-1.65l0-.26,0,0a.42.42,0,0,1-.16-.26A6.83,6.83,0,0,1,16,6V6a.71.71,0,0,1,0-.2c0-.12,0-.24.06-.38V5.26h0a.65.65,0,0,0-.62-.66.62.62,0,0,0-.43.2.63.63,0,0,0-.18.46h0v.16a1.16,1.16,0,0,0,.06.38c0,.06,0,.12,0,.2V6A5,5,0,0,1,15,7.09a.42.42,0,0,1-.16.26l0,0h0l0,.26a10,10,0,0,0-1.08.16A7.64,7.64,0,0,0,9.76,10l-.2-.14h0l-.12,0a.32.32,0,0,1-.18-.06,5.3,5.3,0,0,1-.8-.74h0A.92.92,0,0,0,8.28,9,2.2,2.2,0,0,0,8,8.71l-.1-.08s0,0,0,0h0a.67.67,0,0,0-.43-.16A.57.57,0,0,0,7,8.65a.66.66,0,0,0,.14.89h0s0,0,0,0,.06.06.1.08a3,3,0,0,0,.34.2l.17.1h0a5.83,5.83,0,0,1,.9.62.37.37,0,0,1,.1.3v0h0l.2.18a.7.7,0,0,0-.1.16,7.76,7.76,0,0,0-1.12,5.25l-.25.08s0,0,0,0a.47.47,0,0,1-.22.22A5.05,5.05,0,0,1,6.19,17h0A.68.68,0,0,0,6,17a2.73,2.73,0,0,0-.38,0l-.12,0a.07.07,0,0,0-.06,0h0a.66.66,0,0,0-.51.74.6.6,0,0,0,.63.46.44.44,0,0,0,.16,0h0s0,0,0,0l.12,0a1.92,1.92,0,0,0,.36-.14L6.39,18h0a4.91,4.91,0,0,1,1-.3h0a.41.41,0,0,1,.25.1s0,0,0,0h0l.28,0a7.9,7.9,0,0,0,2.61,3.74,8.1,8.1,0,0,0,.86.58l-.12.26s0,0,0,0a.41.41,0,0,1,0,.32,5.64,5.64,0,0,1-.52.94v0c0,.05-.08.09-.12.15s-.14.2-.22.32a.44.44,0,0,0-.06.1.07.07,0,0,1,0,0h0a.63.63,0,0,0,.26.86.53.53,0,0,0,.24.06.72.72,0,0,0,.6-.38h0a.07.07,0,0,1,0,0,.44.44,0,0,1,.06-.1,3.79,3.79,0,0,0,.12-.36l.06-.18h0a4.6,4.6,0,0,1,.42-1,.51.51,0,0,1,.26-.18s0,0,0,0h0l.13-.26a7.8,7.8,0,0,0,2.79.52,7.26,7.26,0,0,0,1.74-.2,8.73,8.73,0,0,0,1-.3l.12.22,0,0a.37.37,0,0,1,.26.18,6.7,6.7,0,0,1,.42,1v0l.06.18a2.53,2.53,0,0,0,.12.36l.06.1a.07.07,0,0,0,0,0h0a.68.68,0,0,0,.6.38.46.46,0,0,0,.23-.06.6.6,0,0,0,.3-.36.72.72,0,0,0,0-.5h0s0,0,0,0a.44.44,0,0,0-.06-.1,1.81,1.81,0,0,0-.22-.32.83.83,0,0,0-.11-.15v0a4.49,4.49,0,0,1-.52-.94.56.56,0,0,1,0-.32s0,0,0,0h0l-.1-.24a7.78,7.78,0,0,0,2.63-2.57A7.65,7.65,0,0,0,23,17.79l.24,0s0,0,0,0a.51.51,0,0,1,.26-.1h0a4.91,4.91,0,0,1,1,.3h0l.18.08a1.92,1.92,0,0,0,.36.14l.11,0a.07.07,0,0,1,.06,0h0a.44.44,0,0,0,.16,0,.67.67,0,0,0,.64-.46.77.77,0,0,0-.58-.66Zm-9.22-1-.88.41-.87-.41-.22-.94.6-.76h1l.6.76-.2.94Zm5.2-2.08a6.31,6.31,0,0,1,.14,2l-3-.88a.54.54,0,0,1-.38-.64.48.48,0,0,1,.12-.22l2.41-2.17a6.46,6.46,0,0,1,.76,1.89ZM19.8,11l-2.61,1.85a.53.53,0,0,1-.7-.12.44.44,0,0,1-.1-.22L16.21,9.3A6,6,0,0,1,19.8,11ZM14,9.4l.64-.12-.18,3.19a.55.55,0,0,1-.54.52.48.48,0,0,1-.24-.06L11.05,11A6.07,6.07,0,0,1,14,9.4ZM10.1,12.23l2.37,2.11a.55.55,0,0,1,.06.74.4.4,0,0,1-.24.16l-3.09.9a6.41,6.41,0,0,1,.9-3.91Zm-.54,5.4,3.16-.54a.54.54,0,0,1,.56.42.57.57,0,0,1,0,.32h0l-1.21,2.93a6.3,6.3,0,0,1-2.49-3.13Zm7.27,4a6.53,6.53,0,0,1-1.4.16,6.76,6.76,0,0,1-2-.32L15,18.59a.51.51,0,0,1,.63-.14.85.85,0,0,1,.24.22h0l1.54,2.76c-.18.06-.38.1-.58.16Zm3.88-2.77a6.32,6.32,0,0,1-1.91,1.94l-1.25-3a.54.54,0,0,1,.27-.62.64.64,0,0,1,.28-.06l3.19.54a3.86,3.86,0,0,1-.58,1.21Z" fill="#fff"/>
    </g>
    <g>
      <path d="M380.81,100.62V76a5,5,0,0,0-5-5h-215" fill="none" stroke="#3c3c41" stroke-miterlimit="10"/>
      <polygon points="384.55 99.52 380.81 106 377.07 99.52 384.55 99.52" fill="#3c3c41"/>
      <polygon points="161.88 67.26 155.4 71 161.88 74.74 161.88 67.26" fill="#3c3c41"/>
    </g>
    <g>
      <line x1="240.81" y1="71" x2="240.81" y2="100.62" fill="none" stroke="#3c3c41" stroke-miterlimit="10"/>
      <polygon points="237.07 99.52 240.81 106 244.55 99.52 237.07 99.52" fill="#3c3c41"/>
    </g>
  </g>
  <g id="Text">
    <g>
      <path d="M41.22,15H38.83l-2.45-3.65a3.68,3.68,0,0,1-.23-.46h0V15h-1.9V6.6h1.9v4h0c.05-.11.13-.27.24-.47l2.32-3.5H41l-2.93,4Z" fill="#1e1e1e"/>
      <path d="M47.36,15H45.51v-.91h0a2.11,2.11,0,0,1-1.83,1.06c-1.39,0-2.09-.85-2.09-2.53V9h1.85v3.46c0,.84.33,1.27,1,1.27a1,1,0,0,0,.79-.35,1.41,1.41,0,0,0,.3-1V9h1.85Z" fill="#1e1e1e"/>
      <path d="M50.76,14.3h0V15H48.88V6.12h1.85V9.9h0a2.2,2.2,0,0,1,2-1.05,2.16,2.16,0,0,1,1.79.8,3.49,3.49,0,0,1,.62,2.18,3.72,3.72,0,0,1-.73,2.41,2.41,2.41,0,0,1-2,.91A1.88,1.88,0,0,1,50.76,14.3Zm0-2.53v.62a1.44,1.44,0,0,0,.33,1,1.09,1.09,0,0,0,.85.38,1.14,1.14,0,0,0,1-.49,2.4,2.4,0,0,0,.34-1.39,1.9,1.9,0,0,0-.31-1.16,1.1,1.1,0,0,0-.92-.42,1.18,1.18,0,0,0-.92.42A1.58,1.58,0,0,0,50.71,11.77Z" fill="#1e1e1e"/>
      <path d="M61.76,12.53H57.85c.06.87.61,1.3,1.65,1.3a3.23,3.23,0,0,0,1.74-.46V14.7a4.57,4.57,0,0,1-2.17.45,3,3,0,0,1-2.25-.81,3,3,0,0,1-.8-2.25,3.19,3.19,0,0,1,.86-2.36A2.87,2.87,0,0,1,59,8.85a2.63,2.63,0,0,1,2,.78,3.05,3.05,0,0,1,.71,2.12Zm-1.71-1.14q0-1.29-1-1.29a1,1,0,0,0-.77.37,1.67,1.67,0,0,0-.39.92Z" fill="#1e1e1e"/>
      <path d="M66.86,10.67a1.66,1.66,0,0,0-.78-.18,1.15,1.15,0,0,0-1,.44,2,2,0,0,0-.34,1.2V15H62.94V9h1.85v1.11h0A1.6,1.6,0,0,1,66.4,8.89a1.39,1.39,0,0,1,.46.07Z" fill="#1e1e1e"/>
      <path d="M73.51,15H71.67V11.67c0-.93-.33-1.4-1-1.4a1,1,0,0,0-.79.37,1.4,1.4,0,0,0-.31.94V15H67.72V9h1.85V10h0a2.13,2.13,0,0,1,1.93-1.1c1.33,0,2,.83,2,2.48Z" fill="#1e1e1e"/>
      <path d="M80.4,12.53H76.48c.07.87.62,1.3,1.65,1.3a3.23,3.23,0,0,0,1.74-.46V14.7a4.5,4.5,0,0,1-2.16.45,3,3,0,0,1-2.26-.81,3.08,3.08,0,0,1-.8-2.25,3.19,3.19,0,0,1,.87-2.36,2.87,2.87,0,0,1,2.13-.88,2.62,2.62,0,0,1,2,.78,3,3,0,0,1,.72,2.12Zm-1.72-1.14c0-.86-.35-1.29-1-1.29a1,1,0,0,0-.77.37,1.68,1.68,0,0,0-.4.92Z" fill="#1e1e1e"/>
      <path d="M85.18,14.93a2.83,2.83,0,0,1-1.24.22c-1.3,0-2-.68-2-2V10.37H81V9h1V7.71l1.85-.53V9h1.35v1.37H83.83v2.42c0,.63.25.94.74.94a1.31,1.31,0,0,0,.61-.17Z" fill="#1e1e1e"/>
      <path d="M91.6,12.53H87.69c.06.87.61,1.3,1.65,1.3a3.23,3.23,0,0,0,1.74-.46V14.7a4.57,4.57,0,0,1-2.17.45,3,3,0,0,1-2.25-.81,3,3,0,0,1-.81-2.25,3.19,3.19,0,0,1,.87-2.36,2.87,2.87,0,0,1,2.13-.88,2.6,2.6,0,0,1,2,.78,3,3,0,0,1,.72,2.12Zm-1.71-1.14q0-1.29-1-1.29a1,1,0,0,0-.77.37,1.67,1.67,0,0,0-.39.92Z" fill="#1e1e1e"/>
      <path d="M92.46,14.84v-1.5a3.66,3.66,0,0,0,.91.41,3,3,0,0,0,.86.14,1.79,1.79,0,0,0,.77-.14.43.43,0,0,0,.29-.41.36.36,0,0,0-.13-.29,1.33,1.33,0,0,0-.33-.21,4.53,4.53,0,0,0-.44-.15l-.47-.16a4.68,4.68,0,0,1-.63-.29,2.09,2.09,0,0,1-.45-.36,1.47,1.47,0,0,1-.29-.48,2,2,0,0,1-.09-.64,1.6,1.6,0,0,1,.22-.86,1.75,1.75,0,0,1,.58-.6A2.85,2.85,0,0,1,94.1,9a4.53,4.53,0,0,1,1-.11,4.43,4.43,0,0,1,.81.07,7.27,7.27,0,0,1,.81.17v1.43a2.74,2.74,0,0,0-.75-.3,3.13,3.13,0,0,0-.79-.11,1.22,1.22,0,0,0-.34,0,1.1,1.1,0,0,0-.29.09.49.49,0,0,0-.19.16.34.34,0,0,0-.07.22.4.4,0,0,0,.1.28,1,1,0,0,0,.28.2,1.88,1.88,0,0,0,.38.15l.41.14a6.16,6.16,0,0,1,.67.28,1.94,1.94,0,0,1,.51.36,1.58,1.58,0,0,1,.33.48,1.63,1.63,0,0,1,.11.66,1.67,1.67,0,0,1-.23.91,1.87,1.87,0,0,1-.61.61,2.72,2.72,0,0,1-.89.35,5,5,0,0,1-1,.11A5.41,5.41,0,0,1,92.46,14.84Z" fill="#1e1e1e"/>
      <path d="M107.65,14.7a5.54,5.54,0,0,1-2.41.45,4,4,0,0,1-3-1.14,4.16,4.16,0,0,1-1.11-3,4.46,4.46,0,0,1,1.25-3.27,4.38,4.38,0,0,1,3.23-1.25,6,6,0,0,1,2.08.31V8.59a3.68,3.68,0,0,0-1.93-.5,2.54,2.54,0,0,0-1.91.74,2.79,2.79,0,0,0-.72,2,2.73,2.73,0,0,0,.68,1.94,2.43,2.43,0,0,0,1.85.72,4,4,0,0,0,2-.54Z" fill="#1e1e1e"/>
      <path d="M110.75,15H108.9V6.12h1.85Z" fill="#1e1e1e"/>
      <path d="M118,15h-1.85v-.91h0a2.09,2.09,0,0,1-1.83,1.06c-1.39,0-2.08-.85-2.08-2.53V9h1.84v3.46c0,.84.34,1.27,1,1.27a1,1,0,0,0,.8-.35,1.46,1.46,0,0,0,.29-1V9H118Z" fill="#1e1e1e"/>
      <path d="M119.28,14.84v-1.5a3.5,3.5,0,0,0,.91.41,3,3,0,0,0,.86.14,1.83,1.83,0,0,0,.77-.14.43.43,0,0,0,.29-.41.39.39,0,0,0-.13-.29,1.33,1.33,0,0,0-.33-.21c-.14-.05-.29-.11-.45-.15l-.46-.16a4.68,4.68,0,0,1-.63-.29,2.45,2.45,0,0,1-.46-.36,1.64,1.64,0,0,1-.28-.48,2,2,0,0,1-.09-.64,1.6,1.6,0,0,1,.22-.86,1.75,1.75,0,0,1,.58-.6,2.74,2.74,0,0,1,.84-.34,4.55,4.55,0,0,1,1.79,0,7.78,7.78,0,0,1,.81.17v1.43a2.94,2.94,0,0,0-.76-.3,3.06,3.06,0,0,0-.78-.11,1.34,1.34,0,0,0-.35,0,1.15,1.15,0,0,0-.28.09.43.43,0,0,0-.19.16.34.34,0,0,0-.07.22.4.4,0,0,0,.1.28.88.88,0,0,0,.28.2,2,2,0,0,0,.37.15l.42.14a7.13,7.13,0,0,1,.67.28,1.94,1.94,0,0,1,.51.36,1.58,1.58,0,0,1,.33.48,1.82,1.82,0,0,1,.11.66,1.76,1.76,0,0,1-.23.91,1.81,1.81,0,0,1-.62.61,2.66,2.66,0,0,1-.88.35,5,5,0,0,1-1,.11A5.41,5.41,0,0,1,119.28,14.84Z" fill="#1e1e1e"/>
      <path d="M128.55,14.93a2.83,2.83,0,0,1-1.24.22c-1.3,0-2-.68-2-2V10.37h-1V9h1V7.71l1.85-.53V9h1.35v1.37H127.2v2.42c0,.63.25.94.74.94a1.31,1.31,0,0,0,.61-.17Z" fill="#1e1e1e"/>
      <path d="M135,12.53h-3.91c.06.87.61,1.3,1.65,1.3a3.23,3.23,0,0,0,1.74-.46V14.7a4.57,4.57,0,0,1-2.17.45,3,3,0,0,1-2.25-.81,3,3,0,0,1-.81-2.25,3.19,3.19,0,0,1,.87-2.36,2.87,2.87,0,0,1,2.13-.88,2.64,2.64,0,0,1,2,.78,3.05,3.05,0,0,1,.71,2.12Zm-1.71-1.14q0-1.29-1-1.29a1,1,0,0,0-.77.37,1.67,1.67,0,0,0-.39.92Z" fill="#1e1e1e"/>
      <path d="M140.07,10.67a1.66,1.66,0,0,0-.78-.18,1.14,1.14,0,0,0-.95.44,2,2,0,0,0-.34,1.2V15h-1.85V9H138v1.11h0a1.6,1.6,0,0,1,1.58-1.22,1.39,1.39,0,0,1,.46.07Z" fill="#1e1e1e"/>
    </g>
    <g>
      <path d="M62.11,75H60.77l-2.65-2.88h0V75h-1V66.12h1v5.63h0L60.64,69H61.9l-2.79,2.89Z" fill="#1e1e1e"/>
      <path d="M68,75H67v-1h0a2,2,0,0,1-1.86,1.09c-1.42,0-2.14-.85-2.14-2.55V69h1v3.43c0,1.27.48,1.9,1.45,1.9a1.47,1.47,0,0,0,1.16-.52A2,2,0,0,0,67,72.46V69h1Z" fill="#1e1e1e"/>
      <path d="M70.87,74.13h0V75h-1V66.12h1v3.93h0A2.3,2.3,0,0,1,73,68.86a2.2,2.2,0,0,1,1.81.81,3.32,3.32,0,0,1,.65,2.15,3.73,3.73,0,0,1-.73,2.42,2.46,2.46,0,0,1-2,.9A2,2,0,0,1,70.87,74.13Zm0-2.42v.84a1.77,1.77,0,0,0,.48,1.26,1.73,1.73,0,0,0,2.6-.15,3,3,0,0,0,.5-1.85A2.41,2.41,0,0,0,74,70.24a1.52,1.52,0,0,0-1.25-.57,1.7,1.7,0,0,0-1.35.58A2.15,2.15,0,0,0,70.85,71.71Z" fill="#1e1e1e"/>
      <path d="M81.77,72.24H77.53a2.3,2.3,0,0,0,.54,1.55,1.87,1.87,0,0,0,1.42.54,2.93,2.93,0,0,0,1.86-.67v.91a3.5,3.5,0,0,1-2.09.57,2.53,2.53,0,0,1-2-.82,3.36,3.36,0,0,1-.73-2.3,3.29,3.29,0,0,1,.8-2.28,2.54,2.54,0,0,1,2-.88,2.24,2.24,0,0,1,1.82.76,3.18,3.18,0,0,1,.65,2.12Zm-1-.81a1.91,1.91,0,0,0-.4-1.3,1.36,1.36,0,0,0-1.1-.46,1.56,1.56,0,0,0-1.15.48,2.25,2.25,0,0,0-.59,1.28Z" fill="#1e1e1e"/>
      <path d="M86.29,72h-3.2v-.76h3.2Z" fill="#1e1e1e"/>
      <path d="M92.31,75h-1v-.94h0a2.2,2.2,0,0,1-3.25.61,1.65,1.65,0,0,1-.51-1.26c0-1.12.66-1.78,2-2l1.8-.25q0-1.53-1.23-1.53a2.91,2.91,0,0,0-2,.74v-1a3.76,3.76,0,0,1,2-.56c1.41,0,2.11.75,2.11,2.24Zm-1-3-1.44.2a2.37,2.37,0,0,0-1,.34.93.93,0,0,0-.34.84.89.89,0,0,0,.31.71,1.2,1.2,0,0,0,.84.28,1.53,1.53,0,0,0,1.18-.5,1.79,1.79,0,0,0,.46-1.27Z" fill="#1e1e1e"/>
      <path d="M95.11,74.13h0v3.63h-1V69h1v1h0a2.27,2.27,0,0,1,2.07-1.19,2.18,2.18,0,0,1,1.81.81,3.27,3.27,0,0,1,.65,2.15,3.73,3.73,0,0,1-.73,2.42,2.44,2.44,0,0,1-2,.9A2,2,0,0,1,95.11,74.13Zm0-2.42v.84a1.77,1.77,0,0,0,.48,1.26,1.72,1.72,0,0,0,2.59-.15,3,3,0,0,0,.5-1.85,2.41,2.41,0,0,0-.46-1.57,1.54,1.54,0,0,0-1.26-.57,1.68,1.68,0,0,0-1.34.58A2.15,2.15,0,0,0,95.09,71.71Z" fill="#1e1e1e"/>
      <path d="M101.67,67.48a.6.6,0,0,1-.44-.18.59.59,0,0,1-.18-.44.61.61,0,0,1,.18-.45.6.6,0,0,1,.44-.18.62.62,0,0,1,.63.63.63.63,0,0,1-.63.62Zm.47,7.52h-1V69h1Z" fill="#1e1e1e"/>
      <path d="M107.16,72H104v-.76h3.2Z" fill="#1e1e1e"/>
      <path d="M108.52,74.78v-1a2.82,2.82,0,0,0,1.73.58c.84,0,1.27-.28,1.27-.84a.76.76,0,0,0-.11-.41,1,1,0,0,0-.3-.29,1.94,1.94,0,0,0-.43-.24l-.54-.21c-.26-.11-.49-.21-.7-.32a2.22,2.22,0,0,1-.5-.36,1.35,1.35,0,0,1-.3-.46,1.62,1.62,0,0,1-.11-.61,1.39,1.39,0,0,1,.2-.74,1.78,1.78,0,0,1,.51-.55A2.49,2.49,0,0,1,110,69a3.56,3.56,0,0,1,2.24.16v1a2.68,2.68,0,0,0-1.52-.43,1.88,1.88,0,0,0-.49.06,1.4,1.4,0,0,0-.37.17,1,1,0,0,0-.24.27.77.77,0,0,0-.08.34.87.87,0,0,0,.08.39,1,1,0,0,0,.25.29,2.11,2.11,0,0,0,.4.22l.53.22a6.21,6.21,0,0,1,.72.31,2.82,2.82,0,0,1,.54.36,1.41,1.41,0,0,1,.34.47,1.46,1.46,0,0,1,.12.62,1.51,1.51,0,0,1-.2.78,1.58,1.58,0,0,1-.52.54A2.5,2.5,0,0,1,111,75a3.68,3.68,0,0,1-.89.1A3.39,3.39,0,0,1,108.52,74.78Z" fill="#1e1e1e"/>
      <path d="M118.8,72.24h-4.24a2.3,2.3,0,0,0,.54,1.55,1.88,1.88,0,0,0,1.42.54,2.89,2.89,0,0,0,1.86-.67v.91a3.47,3.47,0,0,1-2.09.57,2.53,2.53,0,0,1-2-.82,3.35,3.35,0,0,1-.72-2.3,3.28,3.28,0,0,1,.79-2.28,2.54,2.54,0,0,1,2-.88,2.24,2.24,0,0,1,1.82.76,3.18,3.18,0,0,1,.65,2.12Zm-1-.81a1.91,1.91,0,0,0-.4-1.3,1.36,1.36,0,0,0-1.1-.46,1.56,1.56,0,0,0-1.15.48,2.25,2.25,0,0,0-.59,1.28Z" fill="#1e1e1e"/>
      <path d="M123.38,70a1.18,1.18,0,0,0-.73-.19,1.2,1.2,0,0,0-1,.58,2.64,2.64,0,0,0-.42,1.58V75h-1V69h1v1.24h0a2,2,0,0,1,.62-1,1.43,1.43,0,0,1,1-.36,1.41,1.41,0,0,1,.57.09Z" fill="#1e1e1e"/>
      <path d="M129.14,69l-2.39,6h-.94l-2.28-6h1.06l1.52,4.36a4.27,4.27,0,0,1,.21.84h0a4,4,0,0,1,.18-.82l1.6-4.38Z" fill="#1e1e1e"/>
      <path d="M135,72.24h-4.23a2.21,2.21,0,0,0,.54,1.55,1.85,1.85,0,0,0,1.41.54,2.94,2.94,0,0,0,1.87-.67v.91a3.52,3.52,0,0,1-2.09.57,2.52,2.52,0,0,1-2-.82,3.81,3.81,0,0,1,.07-4.58,2.51,2.51,0,0,1,2-.88,2.25,2.25,0,0,1,1.82.76,3.18,3.18,0,0,1,.64,2.12Zm-1-.81a2,2,0,0,0-.4-1.3,1.37,1.37,0,0,0-1.1-.46,1.55,1.55,0,0,0-1.15.48,2.19,2.19,0,0,0-.59,1.28Z" fill="#1e1e1e"/>
      <path d="M139.58,70a1.18,1.18,0,0,0-.73-.19,1.23,1.23,0,0,0-1,.58,2.72,2.72,0,0,0-.41,1.58V75h-1V69h1v1.24h0a2.12,2.12,0,0,1,.63-1,1.4,1.4,0,0,1,.94-.36,1.5,1.5,0,0,1,.58.09Z" fill="#1e1e1e"/>
      <path d="M77.52,99.72a3.1,3.1,0,0,1-1.64.42,2.72,2.72,0,0,1-2.07-.83A3,3,0,0,1,73,97.14a3.3,3.3,0,0,1,.85-2.38,3,3,0,0,1,2.27-.9,3.23,3.23,0,0,1,1.39.29v1a2.38,2.38,0,0,0-1.43-.47,2,2,0,0,0-1.51.66A2.5,2.5,0,0,0,74,97.06a2.36,2.36,0,0,0,.56,1.66,1.89,1.89,0,0,0,1.48.61,2.39,2.39,0,0,0,1.48-.52Z" fill="#1e1e1e"/>
      <path d="M81.48,100.14a2.77,2.77,0,0,1-2.12-.84,3.11,3.11,0,0,1-.8-2.23,3.25,3.25,0,0,1,.83-2.36,3,3,0,0,1,2.23-.85,2.68,2.68,0,0,1,2.1.83,3.77,3.77,0,0,1-.06,4.59A2.87,2.87,0,0,1,81.48,100.14Zm.07-5.47a1.81,1.81,0,0,0-1.46.63A2.59,2.59,0,0,0,79.55,97a2.46,2.46,0,0,0,.54,1.68,1.85,1.85,0,0,0,1.46.61,1.75,1.75,0,0,0,1.43-.6,3.23,3.23,0,0,0,0-3.45A1.73,1.73,0,0,0,81.55,94.67Z" fill="#1e1e1e"/>
      <path d="M91,100H90V96.58c0-1.28-.46-1.91-1.39-1.91a1.5,1.5,0,0,0-1.19.54A2,2,0,0,0,87,96.58V100H86V94h1v1h0a2.16,2.16,0,0,1,2-1.14,1.82,1.82,0,0,1,1.5.64A2.79,2.79,0,0,1,91,96.33Z" fill="#1e1e1e"/>
      <path d="M95.58,99.94a1.82,1.82,0,0,1-.9.19c-1.05,0-1.57-.59-1.57-1.76V94.82h-1V94h1V92.54l1-.32V94h1.51v.82H94.07V98.2a1.38,1.38,0,0,0,.2.86.83.83,0,0,0,.68.26,1.05,1.05,0,0,0,.63-.2Z" fill="#1e1e1e"/>
      <path d="M100,95a1.18,1.18,0,0,0-.73-.19,1.2,1.2,0,0,0-1,.58,2.64,2.64,0,0,0-.42,1.58V100h-1V94h1v1.24h0a2,2,0,0,1,.62-1,1.43,1.43,0,0,1,1-.36A1.41,1.41,0,0,1,100,94Z" fill="#1e1e1e"/>
      <path d="M103.54,100.14a2.77,2.77,0,0,1-2.12-.84,3.11,3.11,0,0,1-.8-2.23,3.25,3.25,0,0,1,.83-2.36,3,3,0,0,1,2.23-.85,2.68,2.68,0,0,1,2.1.83,3.77,3.77,0,0,1-.06,4.59A2.87,2.87,0,0,1,103.54,100.14Zm.07-5.47a1.81,1.81,0,0,0-1.46.63,2.59,2.59,0,0,0-.54,1.74,2.46,2.46,0,0,0,.54,1.68,1.86,1.86,0,0,0,1.46.61,1.75,1.75,0,0,0,1.43-.6,3.23,3.23,0,0,0,0-3.45A1.73,1.73,0,0,0,103.61,94.67Z" fill="#1e1e1e"/>
      <path d="M109,100h-1V91.12h1Z" fill="#1e1e1e"/>
      <path d="M111.93,100h-1V91.12h1Z" fill="#1e1e1e"/>
      <path d="M118.7,97.24h-4.24a2.3,2.3,0,0,0,.54,1.55,1.88,1.88,0,0,0,1.42.54,2.89,2.89,0,0,0,1.86-.67v.91a3.47,3.47,0,0,1-2.09.57,2.53,2.53,0,0,1-2-.82,3.35,3.35,0,0,1-.72-2.3,3.28,3.28,0,0,1,.79-2.28,2.54,2.54,0,0,1,2-.88,2.24,2.24,0,0,1,1.82.76,3.18,3.18,0,0,1,.65,2.12Zm-1-.81a1.91,1.91,0,0,0-.4-1.3,1.36,1.36,0,0,0-1.1-.46,1.56,1.56,0,0,0-1.15.48,2.25,2.25,0,0,0-.59,1.28Z" fill="#1e1e1e"/>
      <path d="M123.28,95a1.18,1.18,0,0,0-.73-.19,1.2,1.2,0,0,0-1,.58,2.64,2.64,0,0,0-.42,1.58V100h-1V94h1v1.24h0a2,2,0,0,1,.62-1,1.43,1.43,0,0,1,.95-.36,1.41,1.41,0,0,1,.57.09Z" fill="#1e1e1e"/>
      <path d="M73.14,124.78v-1a2.84,2.84,0,0,0,1.73.58c.84,0,1.27-.28,1.27-.84a.76.76,0,0,0-.11-.41,1,1,0,0,0-.29-.29,2.28,2.28,0,0,0-.44-.24l-.53-.21a6.76,6.76,0,0,1-.7-.32,2.29,2.29,0,0,1-.51-.36,1.35,1.35,0,0,1-.3-.46,1.62,1.62,0,0,1-.11-.61,1.39,1.39,0,0,1,.2-.74,1.78,1.78,0,0,1,.51-.55,2.49,2.49,0,0,1,.74-.33,3.41,3.41,0,0,1,.85-.11,3.46,3.46,0,0,1,1.4.27v1a2.74,2.74,0,0,0-1.53-.43,1.75,1.75,0,0,0-.48.06,1.33,1.33,0,0,0-.38.17,1,1,0,0,0-.24.27.77.77,0,0,0-.08.34.87.87,0,0,0,.08.39,1,1,0,0,0,.25.29,2.11,2.11,0,0,0,.4.22l.53.22a6.21,6.21,0,0,1,.72.31,2.82,2.82,0,0,1,.54.36,1.41,1.41,0,0,1,.34.47,1.46,1.46,0,0,1,.12.62,1.42,1.42,0,0,1-.2.78,1.58,1.58,0,0,1-.52.54,2.5,2.5,0,0,1-.76.33,3.68,3.68,0,0,1-.89.1A3.41,3.41,0,0,1,73.14,124.78Z" fill="#1e1e1e"/>
      <path d="M82.69,124.72a3.1,3.1,0,0,1-1.64.42,2.72,2.72,0,0,1-2.07-.83,3,3,0,0,1-.79-2.17,3.3,3.3,0,0,1,.85-2.38,3,3,0,0,1,2.26-.9,3.24,3.24,0,0,1,1.4.29v1a2.4,2.4,0,0,0-1.43-.47,1.93,1.93,0,0,0-1.51.66,2.5,2.5,0,0,0-.59,1.73,2.36,2.36,0,0,0,.56,1.66,1.87,1.87,0,0,0,1.48.61,2.41,2.41,0,0,0,1.48-.52Z" fill="#1e1e1e"/>
      <path d="M89.12,125h-1v-3.46c0-1.25-.46-1.87-1.39-1.87a1.53,1.53,0,0,0-1.19.54,2,2,0,0,0-.48,1.39V125h-1v-8.88h1V120h0a2.19,2.19,0,0,1,2-1.14c1.36,0,2,.81,2,2.44Z" fill="#1e1e1e"/>
      <path d="M95.75,122.24H91.52a2.21,2.21,0,0,0,.54,1.55,1.85,1.85,0,0,0,1.41.54,2.94,2.94,0,0,0,1.87-.67v.91a3.52,3.52,0,0,1-2.09.57,2.52,2.52,0,0,1-2-.82,3.81,3.81,0,0,1,.07-4.58,2.51,2.51,0,0,1,2-.88,2.25,2.25,0,0,1,1.82.76,3.18,3.18,0,0,1,.64,2.12Zm-1-.81a2,2,0,0,0-.4-1.3,1.37,1.37,0,0,0-1.1-.46,1.59,1.59,0,0,0-1.16.48,2.24,2.24,0,0,0-.58,1.28Z" fill="#1e1e1e"/>
      <path d="M102.33,125h-1v-1h0a2.21,2.21,0,0,1-2.06,1.16,2.24,2.24,0,0,1-1.81-.81,3.28,3.28,0,0,1-.67-2.19,3.57,3.57,0,0,1,.75-2.38,2.46,2.46,0,0,1,2-.9,1.91,1.91,0,0,1,1.8,1h0v-3.71h1Zm-1-2.71v-.89a1.73,1.73,0,0,0-.48-1.23,1.64,1.64,0,0,0-1.22-.5,1.67,1.67,0,0,0-1.39.64,2.87,2.87,0,0,0-.5,1.78,2.54,2.54,0,0,0,.48,1.64,1.6,1.6,0,0,0,1.3.6,1.65,1.65,0,0,0,1.31-.58A2.16,2.16,0,0,0,101.37,122.29Z" fill="#1e1e1e"/>
      <path d="M109.12,125h-1v-1h0a2,2,0,0,1-1.85,1.09c-1.43,0-2.15-.85-2.15-2.55V119h1v3.43c0,1.27.48,1.9,1.45,1.9a1.46,1.46,0,0,0,1.16-.52,2,2,0,0,0,.45-1.35V119h1Z" fill="#1e1e1e"/>
      <path d="M112,125h-1v-8.88h1Z" fill="#1e1e1e"/>
      <path d="M118.27,125h-1v-.94h0a2.2,2.2,0,0,1-3.25.61,1.64,1.64,0,0,1-.5-1.26c0-1.12.66-1.78,2-2l1.79-.25q0-1.53-1.23-1.53a2.92,2.92,0,0,0-2,.74v-1a3.76,3.76,0,0,1,2-.56c1.41,0,2.12.75,2.12,2.24Zm-1-3-1.44.2a2.43,2.43,0,0,0-1,.34.93.93,0,0,0-.34.84.89.89,0,0,0,.31.71,1.2,1.2,0,0,0,.84.28,1.53,1.53,0,0,0,1.18-.5,1.79,1.79,0,0,0,.46-1.27Z" fill="#1e1e1e"/>
      <path d="M123.2,120a1.14,1.14,0,0,0-.72-.19,1.23,1.23,0,0,0-1,.58,2.64,2.64,0,0,0-.41,1.58V125h-1v-6h1v1.24h0a2.12,2.12,0,0,1,.63-1,1.54,1.54,0,0,1,1.51-.27Z" fill="#1e1e1e"/>
      <path d="M92.22,147.24H88a2.21,2.21,0,0,0,.54,1.55,1.85,1.85,0,0,0,1.41.54,2.94,2.94,0,0,0,1.87-.67v.91a3.52,3.52,0,0,1-2.09.57,2.52,2.52,0,0,1-2-.82,3.83,3.83,0,0,1,.06-4.58,2.55,2.55,0,0,1,2-.88,2.25,2.25,0,0,1,1.82.76,3.18,3.18,0,0,1,.64,2.12Zm-1-.81a2,2,0,0,0-.4-1.3,1.37,1.37,0,0,0-1.1-.46,1.59,1.59,0,0,0-1.16.48,2.24,2.24,0,0,0-.58,1.28Z" fill="#1e1e1e"/>
      <path d="M96.46,149.94a1.82,1.82,0,0,1-.9.19c-1,0-1.57-.59-1.57-1.76v-3.55H93V144h1v-1.46l1-.32V144h1.51v.82H95v3.38a1.45,1.45,0,0,0,.2.86.84.84,0,0,0,.68.26,1.05,1.05,0,0,0,.63-.2Z" fill="#1e1e1e"/>
      <path d="M101.83,149.72a3.1,3.1,0,0,1-1.64.42,2.75,2.75,0,0,1-2.07-.83,3.06,3.06,0,0,1-.79-2.17,3.35,3.35,0,0,1,.85-2.38,3,3,0,0,1,2.27-.9,3.2,3.2,0,0,1,1.39.29v1a2.38,2.38,0,0,0-1.43-.47,1.91,1.91,0,0,0-1.5.66,2.46,2.46,0,0,0-.59,1.73,2.36,2.36,0,0,0,.55,1.66,1.91,1.91,0,0,0,1.49.61,2.38,2.38,0,0,0,1.47-.52Z" fill="#1e1e1e"/>
      <path d="M108.41,150h-1v-1h0a2.21,2.21,0,0,1-2.06,1.16,2.24,2.24,0,0,1-1.81-.81,3.28,3.28,0,0,1-.67-2.19,3.57,3.57,0,0,1,.75-2.38,2.46,2.46,0,0,1,2-.9,1.91,1.91,0,0,1,1.8,1h0v-3.71h1Zm-1-2.71v-.89a1.73,1.73,0,0,0-.48-1.23,1.64,1.64,0,0,0-1.22-.5,1.67,1.67,0,0,0-1.39.64,2.87,2.87,0,0,0-.5,1.78,2.54,2.54,0,0,0,.48,1.64,1.6,1.6,0,0,0,1.3.6,1.65,1.65,0,0,0,1.31-.58A2.16,2.16,0,0,0,107.45,147.29Z" fill="#1e1e1e"/>
    </g>
    <g>
      <path d="M47.78,46h-1V40.36c0-.44,0-1,.08-1.63h0a5.05,5.05,0,0,1-.25.81L43.74,46h-.48l-2.87-6.41a5.64,5.64,0,0,1-.25-.86h0c0,.33,0,.88,0,1.65V46h-.95V37.6h1.3l2.58,5.86a7.92,7.92,0,0,1,.39,1h0c.17-.46.31-.8.41-1l2.63-5.83h1.23Z" fill="#1e1e1e"/>
      <path d="M54.15,46h-1v-.94h0a2.2,2.2,0,0,1-3.25.61,1.65,1.65,0,0,1-.51-1.26c0-1.12.66-1.78,2-2l1.79-.25q0-1.53-1.23-1.53a2.92,2.92,0,0,0-2,.74v-1a3.76,3.76,0,0,1,2-.56c1.41,0,2.11.75,2.11,2.24Zm-1-3-1.44.2a2.43,2.43,0,0,0-1,.34.93.93,0,0,0-.34.84.89.89,0,0,0,.31.71,1.2,1.2,0,0,0,.84.28,1.53,1.53,0,0,0,1.18-.5,1.79,1.79,0,0,0,.46-1.27Z" fill="#1e1e1e"/>
      <path d="M55.6,45.78v-1a2.84,2.84,0,0,0,1.73.58c.84,0,1.27-.28,1.27-.84a.76.76,0,0,0-.11-.41,1,1,0,0,0-.29-.29,2.28,2.28,0,0,0-.44-.24l-.53-.21a6.76,6.76,0,0,1-.7-.32,2.29,2.29,0,0,1-.51-.36,1.35,1.35,0,0,1-.3-.46,1.62,1.62,0,0,1-.11-.61,1.39,1.39,0,0,1,.2-.74,1.78,1.78,0,0,1,.51-.55,2.49,2.49,0,0,1,.74-.33,3.41,3.41,0,0,1,.85-.11,3.46,3.46,0,0,1,1.4.27v1a2.74,2.74,0,0,0-1.53-.43,1.75,1.75,0,0,0-.48.06,1.33,1.33,0,0,0-.38.17,1,1,0,0,0-.24.27.77.77,0,0,0-.08.34.87.87,0,0,0,.08.39,1,1,0,0,0,.25.29,2.11,2.11,0,0,0,.4.22l.53.22a6.21,6.21,0,0,1,.72.31,2.82,2.82,0,0,1,.54.36,1.41,1.41,0,0,1,.34.47,1.46,1.46,0,0,1,.12.62,1.42,1.42,0,0,1-.2.78,1.58,1.58,0,0,1-.52.54,2.5,2.5,0,0,1-.76.33,3.68,3.68,0,0,1-.89.1A3.41,3.41,0,0,1,55.6,45.78Z" fill="#1e1e1e"/>
      <path d="M63.84,45.94a1.8,1.8,0,0,1-.9.19c-1,0-1.57-.59-1.57-1.76V40.82h-1V40h1V38.54l1-.32V40h1.51v.82H62.33V44.2a1.45,1.45,0,0,0,.2.86.84.84,0,0,0,.68.26,1,1,0,0,0,.63-.2Z" fill="#1e1e1e"/>
      <path d="M70,43.24H65.71a2.25,2.25,0,0,0,.54,1.55,1.87,1.87,0,0,0,1.42.54,2.93,2.93,0,0,0,1.86-.67v.91a3.5,3.5,0,0,1-2.09.57,2.52,2.52,0,0,1-2-.82,3.36,3.36,0,0,1-.73-2.3,3.29,3.29,0,0,1,.8-2.28,2.53,2.53,0,0,1,2-.88,2.25,2.25,0,0,1,1.82.76A3.18,3.18,0,0,1,70,42.74Zm-1-.81a2,2,0,0,0-.4-1.3,1.36,1.36,0,0,0-1.1-.46,1.55,1.55,0,0,0-1.15.48,2.25,2.25,0,0,0-.59,1.28Z" fill="#1e1e1e"/>
      <path d="M74.53,41a1.18,1.18,0,0,0-.73-.19,1.23,1.23,0,0,0-1,.58,2.72,2.72,0,0,0-.41,1.58V46h-1V40h1v1.24h0a2.12,2.12,0,0,1,.63-1,1.42,1.42,0,0,1,.94-.36,1.46,1.46,0,0,1,.58.09Z" fill="#1e1e1e"/>
      <path d="M82.65,37.6l-4,9.79h-.9l4-9.79Z" fill="#1e1e1e"/>
      <path d="M92.67,45.65a4.92,4.92,0,0,1-2.32.49A3.73,3.73,0,0,1,87.48,45a4.26,4.26,0,0,1-1.08-3,4.45,4.45,0,0,1,1.21-3.26,4.12,4.12,0,0,1,3.08-1.24,4.92,4.92,0,0,1,2,.34v1.05a4.08,4.08,0,0,0-2-.5,3.07,3.07,0,0,0-2.35,1,3.66,3.66,0,0,0-.9,2.59,3.44,3.44,0,0,0,.84,2.44,2.87,2.87,0,0,0,2.21.92,4.11,4.11,0,0,0,2.19-.57Z" fill="#1e1e1e"/>
      <path d="M96.76,46.14a2.79,2.79,0,0,1-2.13-.84,3.15,3.15,0,0,1-.79-2.23,3.25,3.25,0,0,1,.83-2.36,3,3,0,0,1,2.23-.85,2.66,2.66,0,0,1,2.09.83,3.75,3.75,0,0,1,0,4.59A2.88,2.88,0,0,1,96.76,46.14Zm.07-5.47a1.84,1.84,0,0,0-1.47.63A2.59,2.59,0,0,0,94.82,43a2.46,2.46,0,0,0,.55,1.68,1.85,1.85,0,0,0,1.46.61,1.75,1.75,0,0,0,1.43-.6,3.23,3.23,0,0,0,0-3.45A1.73,1.73,0,0,0,96.83,40.67Z" fill="#1e1e1e"/>
      <path d="M106.26,46h-1V42.58c0-1.28-.46-1.91-1.39-1.91a1.54,1.54,0,0,0-1.2.54,2,2,0,0,0-.47,1.37V46h-1V40h1v1h0a2.16,2.16,0,0,1,2-1.14,1.82,1.82,0,0,1,1.5.64,2.79,2.79,0,0,1,.52,1.83Z" fill="#1e1e1e"/>
      <path d="M110.86,45.94a1.82,1.82,0,0,1-.9.19c-1,0-1.58-.59-1.58-1.76V40.82h-1V40h1V38.54l1-.32V40h1.52v.82h-1.52V44.2a1.37,1.37,0,0,0,.21.86.83.83,0,0,0,.68.26,1.05,1.05,0,0,0,.63-.2Z" fill="#1e1e1e"/>
      <path d="M115.27,41a1.18,1.18,0,0,0-.73-.19,1.23,1.23,0,0,0-1,.58,2.72,2.72,0,0,0-.41,1.58V46h-1V40h1v1.24h0a2.12,2.12,0,0,1,.63-1,1.42,1.42,0,0,1,.94-.36,1.46,1.46,0,0,1,.58.09Z" fill="#1e1e1e"/>
      <path d="M118.82,46.14a2.76,2.76,0,0,1-2.12-.84,3.11,3.11,0,0,1-.8-2.23,3.25,3.25,0,0,1,.83-2.36,3,3,0,0,1,2.23-.85,2.66,2.66,0,0,1,2.09.83,3.75,3.75,0,0,1,0,4.59A2.88,2.88,0,0,1,118.82,46.14Zm.07-5.47a1.84,1.84,0,0,0-1.47.63,2.64,2.64,0,0,0-.53,1.74,2.46,2.46,0,0,0,.54,1.68,1.85,1.85,0,0,0,1.46.61,1.75,1.75,0,0,0,1.43-.6,3.23,3.23,0,0,0,0-3.45A1.73,1.73,0,0,0,118.89,40.67Z" fill="#1e1e1e"/>
      <path d="M124.3,46h-1V37.12h1Z" fill="#1e1e1e"/>
      <path d="M130.52,45.13h0v3.63h-1V40h1v1h0a2.27,2.27,0,0,1,2.07-1.19,2.18,2.18,0,0,1,1.81.81,3.27,3.27,0,0,1,.66,2.15,3.74,3.74,0,0,1-.74,2.42,2.44,2.44,0,0,1-2,.9A2,2,0,0,1,130.52,45.13Zm0-2.42v.84a1.77,1.77,0,0,0,.48,1.26,1.59,1.59,0,0,0,1.23.52,1.6,1.6,0,0,0,1.37-.67,3,3,0,0,0,.49-1.85,2.41,2.41,0,0,0-.46-1.57,1.54,1.54,0,0,0-1.26-.57,1.69,1.69,0,0,0-1.34.58A2.15,2.15,0,0,0,130.5,42.71Z" fill="#1e1e1e"/>
      <path d="M137.55,46h-1V37.12h1Z" fill="#1e1e1e"/>
      <path d="M143.79,46h-1v-.94h0A2,2,0,0,1,141,46.14a2,2,0,0,1-1.4-.47,1.65,1.65,0,0,1-.51-1.26c0-1.12.66-1.78,2-2l1.8-.25c0-1-.41-1.53-1.24-1.53a2.9,2.9,0,0,0-2,.74v-1a3.76,3.76,0,0,1,2-.56c1.41,0,2.11.75,2.11,2.24Zm-1-3-1.45.2a2.37,2.37,0,0,0-1,.34.93.93,0,0,0-.34.84.89.89,0,0,0,.31.71,1.19,1.19,0,0,0,.83.28,1.51,1.51,0,0,0,1.18-.5,1.75,1.75,0,0,0,.47-1.27Z" fill="#1e1e1e"/>
      <path d="M150.58,46h-1V42.58c0-1.28-.46-1.91-1.39-1.91a1.54,1.54,0,0,0-1.2.54,2,2,0,0,0-.47,1.37V46h-1V40h1v1h0a2.16,2.16,0,0,1,2-1.14,1.82,1.82,0,0,1,1.5.64,2.79,2.79,0,0,1,.52,1.83Z" fill="#1e1e1e"/>
      <path d="M157.22,43.24H153a2.21,2.21,0,0,0,.54,1.55,1.85,1.85,0,0,0,1.42.54,2.93,2.93,0,0,0,1.86-.67v.91a3.52,3.52,0,0,1-2.09.57,2.52,2.52,0,0,1-2-.82A3.36,3.36,0,0,1,152,43a3.29,3.29,0,0,1,.8-2.28,2.53,2.53,0,0,1,2-.88,2.25,2.25,0,0,1,1.82.76,3.18,3.18,0,0,1,.65,2.12Zm-1-.81a2,2,0,0,0-.4-1.3,1.36,1.36,0,0,0-1.1-.46,1.55,1.55,0,0,0-1.15.48,2.25,2.25,0,0,0-.59,1.28Z" fill="#1e1e1e"/>
    </g>
    <g>
      <path d="M229.59,120h-1.34l-2.65-2.88h0V120h-1v-8.88h1v5.63h0l2.52-2.75h1.26l-2.79,2.89Z" fill="#1e1e1e"/>
      <path d="M235.43,120h-1v-1h0a2,2,0,0,1-1.86,1.09c-1.43,0-2.14-.85-2.14-2.55V114h1v3.43c0,1.27.49,1.9,1.46,1.9a1.44,1.44,0,0,0,1.15-.52,1.92,1.92,0,0,0,.46-1.35V114h1Z" fill="#1e1e1e"/>
      <path d="M238.35,119.13h0V120h-1v-8.88h1v3.93h0a2.3,2.3,0,0,1,2.08-1.19,2.2,2.2,0,0,1,1.81.81,3.32,3.32,0,0,1,.65,2.15,3.79,3.79,0,0,1-.73,2.42,2.46,2.46,0,0,1-2,.9A2,2,0,0,1,238.35,119.13Zm0-2.42v.84a1.77,1.77,0,0,0,.48,1.26,1.73,1.73,0,0,0,2.6-.15,3,3,0,0,0,.49-1.85,2.41,2.41,0,0,0-.46-1.57,1.52,1.52,0,0,0-1.25-.57,1.7,1.7,0,0,0-1.35.58A2.15,2.15,0,0,0,238.33,116.71Z" fill="#1e1e1e"/>
      <path d="M249.25,117.24H245a2.3,2.3,0,0,0,.54,1.55,1.87,1.87,0,0,0,1.42.54,2.93,2.93,0,0,0,1.86-.67v.91a3.5,3.5,0,0,1-2.09.57,2.52,2.52,0,0,1-2-.82A3.36,3.36,0,0,1,244,117a3.29,3.29,0,0,1,.8-2.28,2.53,2.53,0,0,1,2-.88,2.25,2.25,0,0,1,1.82.76,3.18,3.18,0,0,1,.65,2.12Zm-1-.81a2,2,0,0,0-.4-1.3,1.36,1.36,0,0,0-1.1-.46,1.55,1.55,0,0,0-1.15.48,2.25,2.25,0,0,0-.59,1.28Z" fill="#1e1e1e"/>
      <path d="M251.66,120h-1v-8.88h1Z" fill="#1e1e1e"/>
      <path d="M258.43,117.24h-4.24a2.3,2.3,0,0,0,.54,1.55,1.87,1.87,0,0,0,1.42.54,2.91,2.91,0,0,0,1.86-.67v.91a3.5,3.5,0,0,1-2.09.57,2.53,2.53,0,0,1-2-.82,3.35,3.35,0,0,1-.72-2.3,3.28,3.28,0,0,1,.79-2.28,2.54,2.54,0,0,1,2-.88,2.24,2.24,0,0,1,1.82.76,3.18,3.18,0,0,1,.65,2.12Zm-1-.81a1.91,1.91,0,0,0-.4-1.3,1.36,1.36,0,0,0-1.1-.46,1.56,1.56,0,0,0-1.15.48,2.25,2.25,0,0,0-.59,1.28Z" fill="#1e1e1e"/>
      <path d="M262.66,119.94a1.76,1.76,0,0,1-.89.19c-1,0-1.58-.59-1.58-1.76v-3.55h-1V114h1v-1.46l1-.32V114h1.51v.82h-1.51v3.38a1.37,1.37,0,0,0,.21.86.81.81,0,0,0,.68.26,1,1,0,0,0,.62-.2Z" fill="#1e1e1e"/>
      <path d="M200.53,169.65a4.92,4.92,0,0,1-2.32.49,3.73,3.73,0,0,1-2.87-1.15,4.26,4.26,0,0,1-1.08-3,4.45,4.45,0,0,1,1.21-3.26,4.12,4.12,0,0,1,3.08-1.24,5,5,0,0,1,2,.34v1a4.08,4.08,0,0,0-2-.5,3.07,3.07,0,0,0-2.35,1,3.66,3.66,0,0,0-.9,2.59,3.44,3.44,0,0,0,.84,2.44,2.87,2.87,0,0,0,2.21.92,4.11,4.11,0,0,0,2.19-.57Z" fill="#1e1e1e"/>
      <path d="M204.62,170.14a2.79,2.79,0,0,1-2.13-.84,3.15,3.15,0,0,1-.79-2.23,3.25,3.25,0,0,1,.83-2.36,3,3,0,0,1,2.23-.85,2.66,2.66,0,0,1,2.09.83,3.75,3.75,0,0,1,0,4.59A2.88,2.88,0,0,1,204.62,170.14Zm.07-5.47a1.84,1.84,0,0,0-1.47.63,2.59,2.59,0,0,0-.54,1.74,2.46,2.46,0,0,0,.55,1.68,1.85,1.85,0,0,0,1.46.61,1.75,1.75,0,0,0,1.43-.6,3.23,3.23,0,0,0,0-3.45A1.73,1.73,0,0,0,204.69,164.67Z" fill="#1e1e1e"/>
      <path d="M214.12,170h-1v-3.42c0-1.28-.46-1.91-1.39-1.91a1.54,1.54,0,0,0-1.2.54,2,2,0,0,0-.47,1.37V170h-1v-6h1v1h0a2.16,2.16,0,0,1,2-1.14,1.83,1.83,0,0,1,1.51.64,2.79,2.79,0,0,1,.52,1.83Z" fill="#1e1e1e"/>
      <path d="M218.72,169.94a1.82,1.82,0,0,1-.9.19c-1,0-1.58-.59-1.58-1.76v-3.55h-1V164h1v-1.46l1-.32V164h1.52v.82H217.2v3.38a1.37,1.37,0,0,0,.21.86.83.83,0,0,0,.68.26,1.05,1.05,0,0,0,.63-.2Z" fill="#1e1e1e"/>
      <path d="M224.29,170h-1v-.94h0a2.2,2.2,0,0,1-3.25.61,1.65,1.65,0,0,1-.51-1.26c0-1.12.66-1.78,2-2l1.8-.25q0-1.53-1.23-1.53a2.91,2.91,0,0,0-2,.74v-1a3.76,3.76,0,0,1,2-.56c1.41,0,2.11.75,2.11,2.24Zm-1-3-1.44.2a2.37,2.37,0,0,0-1,.34.93.93,0,0,0-.34.84.89.89,0,0,0,.31.71,1.2,1.2,0,0,0,.84.28,1.53,1.53,0,0,0,1.18-.5,1.79,1.79,0,0,0,.46-1.27Z" fill="#1e1e1e"/>
      <path d="M226.6,162.48a.6.6,0,0,1-.44-.18.59.59,0,0,1-.18-.44.61.61,0,0,1,.18-.45.6.6,0,0,1,.44-.18.64.64,0,0,1,.45.18.61.61,0,0,1,.18.45.58.58,0,0,1-.18.43A.61.61,0,0,1,226.6,162.48Zm.47,7.52h-1v-6h1Z" fill="#1e1e1e"/>
      <path d="M234,170h-1v-3.42c0-1.28-.46-1.91-1.39-1.91a1.54,1.54,0,0,0-1.2.54,2,2,0,0,0-.47,1.37V170h-1v-6h1v1h0a2.15,2.15,0,0,1,2-1.14,1.83,1.83,0,0,1,1.51.64,2.79,2.79,0,0,1,.52,1.83Z" fill="#1e1e1e"/>
      <path d="M240.62,167.24h-4.23a2.21,2.21,0,0,0,.54,1.55,1.85,1.85,0,0,0,1.41.54,2.94,2.94,0,0,0,1.87-.67v.91a3.52,3.52,0,0,1-2.09.57,2.52,2.52,0,0,1-2-.82,3.81,3.81,0,0,1,.07-4.58,2.53,2.53,0,0,1,2-.88,2.25,2.25,0,0,1,1.82.76,3.18,3.18,0,0,1,.64,2.12Zm-1-.81a2,2,0,0,0-.4-1.3,1.37,1.37,0,0,0-1.1-.46,1.55,1.55,0,0,0-1.15.48,2.19,2.19,0,0,0-.59,1.28Z" fill="#1e1e1e"/>
      <path d="M245.21,165a1.18,1.18,0,0,0-.73-.19,1.23,1.23,0,0,0-1,.58,2.72,2.72,0,0,0-.41,1.58V170h-1v-6h1v1.24h0a2.12,2.12,0,0,1,.63-1,1.4,1.4,0,0,1,.94-.36,1.5,1.5,0,0,1,.58.09Z" fill="#1e1e1e"/>
      <path d="M255.69,170h-1.17l-1.41-2.36c-.13-.21-.25-.4-.37-.56a2.18,2.18,0,0,0-.38-.37,1.25,1.25,0,0,0-.41-.22,1.83,1.83,0,0,0-.49-.06h-.81V170h-1v-8.4h2.5a3.31,3.31,0,0,1,1,.14,2.38,2.38,0,0,1,.81.41,1.92,1.92,0,0,1,.53.7,2.33,2.33,0,0,1,.2,1,2.53,2.53,0,0,1-.13.8,2.1,2.1,0,0,1-.38.65,2,2,0,0,1-.59.49,2.83,2.83,0,0,1-.77.32v0a1.44,1.44,0,0,1,.37.21,4,4,0,0,1,.3.29,4,4,0,0,1,.27.37c.1.14.2.3.31.48Zm-5-7.51v3H252a1.91,1.91,0,0,0,.68-.12,1.46,1.46,0,0,0,.54-.32,1.38,1.38,0,0,0,.36-.51,1.78,1.78,0,0,0,.13-.67,1.32,1.32,0,0,0-.44-1,1.83,1.83,0,0,0-1.26-.38Z" fill="#1e1e1e"/>
      <path d="M261.57,170h-1v-.95h0a2,2,0,0,1-1.85,1.09c-1.43,0-2.14-.85-2.14-2.55V164h1v3.43c0,1.27.48,1.9,1.45,1.9a1.46,1.46,0,0,0,1.16-.52,2,2,0,0,0,.45-1.35V164h1Z" fill="#1e1e1e"/>
      <path d="M268.49,170h-1v-3.42c0-1.28-.46-1.91-1.39-1.91a1.5,1.5,0,0,0-1.19.54,2,2,0,0,0-.47,1.37V170h-1v-6h1v1h0a2.16,2.16,0,0,1,2-1.14,1.81,1.81,0,0,1,1.5.64,2.79,2.79,0,0,1,.53,1.83Z" fill="#1e1e1e"/>
      <path d="M273.08,169.94a1.82,1.82,0,0,1-.9.19c-1.05,0-1.57-.59-1.57-1.76v-3.55h-1V164h1v-1.46l1-.32V164h1.51v.82h-1.51v3.38a1.45,1.45,0,0,0,.2.86.84.84,0,0,0,.68.26,1.05,1.05,0,0,0,.63-.2Z" fill="#1e1e1e"/>
      <path d="M274.85,162.48a.58.58,0,0,1-.43-.18.56.56,0,0,1-.19-.44.63.63,0,0,1,.62-.63.61.61,0,0,1,.45.18.58.58,0,0,1,.19.45.56.56,0,0,1-.19.43A.58.58,0,0,1,274.85,162.48Zm.47,7.52h-1v-6h1Z" fill="#1e1e1e"/>
      <path d="M285.79,170h-1v-3.45a2.65,2.65,0,0,0-.31-1.44,1.18,1.18,0,0,0-1-.44,1.3,1.3,0,0,0-1.05.56,2.14,2.14,0,0,0-.43,1.35V170h-1v-3.56c0-1.18-.46-1.77-1.37-1.77a1.24,1.24,0,0,0-1,.53,2.2,2.2,0,0,0-.41,1.38V170h-1v-6h1V165h0a2,2,0,0,1,1.87-1.09,1.73,1.73,0,0,1,1.07.34,1.81,1.81,0,0,1,.63.9,2.13,2.13,0,0,1,2-1.24c1.32,0,2,.81,2,2.44Z" fill="#1e1e1e"/>
      <path d="M292.43,167.24h-4.24a2.3,2.3,0,0,0,.54,1.55,1.87,1.87,0,0,0,1.42.54,2.93,2.93,0,0,0,1.86-.67v.91a3.5,3.5,0,0,1-2.09.57,2.53,2.53,0,0,1-2-.82,3.36,3.36,0,0,1-.73-2.3,3.29,3.29,0,0,1,.8-2.28,2.54,2.54,0,0,1,2-.88,2.24,2.24,0,0,1,1.82.76,3.18,3.18,0,0,1,.65,2.12Zm-1-.81a2,2,0,0,0-.4-1.3,1.36,1.36,0,0,0-1.1-.46,1.55,1.55,0,0,0-1.15.48,2.25,2.25,0,0,0-.59,1.28Z" fill="#1e1e1e"/>
    </g>
    <g>
      <path d="M218.87,192.6,216.5,201h-1.15l-1.73-6.14a3.77,3.77,0,0,1-.14-.86h0a4.09,4.09,0,0,1-.15.85L211.57,201h-1.14L208,192.6h1.09l1.79,6.44a4.57,4.57,0,0,1,.14.85h0a4.34,4.34,0,0,1,.18-.85L213,192.6h1l1.78,6.49a4.72,4.72,0,0,1,.14.79h0a4.94,4.94,0,0,1,.16-.81l1.72-6.47Z" fill="#1e1e1e"/>
      <path d="M222,201.14a2.79,2.79,0,0,1-2.12-.84,3.11,3.11,0,0,1-.8-2.23,3.25,3.25,0,0,1,.83-2.36,3,3,0,0,1,2.23-.85,2.66,2.66,0,0,1,2.1.83,3.77,3.77,0,0,1-.06,4.59A2.87,2.87,0,0,1,222,201.14Zm.07-5.47a1.83,1.83,0,0,0-1.46.63,2.59,2.59,0,0,0-.54,1.74,2.46,2.46,0,0,0,.54,1.68,1.86,1.86,0,0,0,1.46.61,1.79,1.79,0,0,0,1.44-.6,3.23,3.23,0,0,0,0-3.45A1.76,1.76,0,0,0,222.1,195.67Z" fill="#1e1e1e"/>
      <path d="M229.68,196a1.14,1.14,0,0,0-.72-.19,1.23,1.23,0,0,0-1,.58,2.64,2.64,0,0,0-.41,1.58V201h-1v-6h1v1.24h0a2.12,2.12,0,0,1,.63-1,1.54,1.54,0,0,1,1.51-.27Z" fill="#1e1e1e"/>
      <path d="M235.71,201h-1.35l-2.65-2.88h0V201h-1v-8.88h1v5.63h0l2.52-2.75h1.26l-2.78,2.89Z" fill="#1e1e1e"/>
      <path d="M241.51,198.24h-4.23a2.21,2.21,0,0,0,.54,1.55,1.85,1.85,0,0,0,1.42.54,2.93,2.93,0,0,0,1.86-.67v.91a3.52,3.52,0,0,1-2.09.57,2.52,2.52,0,0,1-2-.82,3.81,3.81,0,0,1,.07-4.58,2.53,2.53,0,0,1,2-.88,2.25,2.25,0,0,1,1.82.76,3.18,3.18,0,0,1,.64,2.12Zm-1-.81a2,2,0,0,0-.4-1.3,1.36,1.36,0,0,0-1.1-.46,1.55,1.55,0,0,0-1.15.48,2.19,2.19,0,0,0-.59,1.28Z" fill="#1e1e1e"/>
      <path d="M246.1,196a1.18,1.18,0,0,0-.73-.19,1.23,1.23,0,0,0-1,.58,2.72,2.72,0,0,0-.41,1.58V201h-1v-6h1v1.24h0a2.12,2.12,0,0,1,.63-1,1.42,1.42,0,0,1,.94-.36,1.5,1.5,0,0,1,.58.09Z" fill="#1e1e1e"/>
      <path d="M257.33,201h-1.21l-4.32-6.7a2.86,2.86,0,0,1-.27-.52h0a8.6,8.6,0,0,1,0,1.15V201h-1v-8.4h1.27l4.21,6.59a5.88,5.88,0,0,1,.34.56h0a8.58,8.58,0,0,1-.06-1.23V192.6h1Z" fill="#1e1e1e"/>
      <path d="M261.91,201.14a2.77,2.77,0,0,1-2.12-.84,3.11,3.11,0,0,1-.8-2.23,3.25,3.25,0,0,1,.83-2.36,3,3,0,0,1,2.23-.85,2.68,2.68,0,0,1,2.1.83,3.77,3.77,0,0,1-.06,4.59A2.87,2.87,0,0,1,261.91,201.14Zm.07-5.47a1.81,1.81,0,0,0-1.46.63A2.59,2.59,0,0,0,260,198a2.46,2.46,0,0,0,.54,1.68,1.86,1.86,0,0,0,1.46.61,1.75,1.75,0,0,0,1.43-.6,3.17,3.17,0,0,0,0-3.45A1.73,1.73,0,0,0,262,195.67Z" fill="#1e1e1e"/>
      <path d="M271.56,201h-1v-1h0a2.21,2.21,0,0,1-2.06,1.16,2.24,2.24,0,0,1-1.81-.81,3.28,3.28,0,0,1-.68-2.19,3.57,3.57,0,0,1,.75-2.38,2.48,2.48,0,0,1,2-.9,1.91,1.91,0,0,1,1.8,1h0v-3.71h1Zm-1-2.71v-.89a1.73,1.73,0,0,0-.48-1.23,1.61,1.61,0,0,0-1.21-.5,1.67,1.67,0,0,0-1.39.64,2.87,2.87,0,0,0-.5,1.78,2.54,2.54,0,0,0,.48,1.64,1.59,1.59,0,0,0,1.3.6,1.61,1.61,0,0,0,1.3-.58A2.11,2.11,0,0,0,270.59,198.29Z" fill="#1e1e1e"/>
      <path d="M278.32,198.24h-4.23a2.21,2.21,0,0,0,.54,1.55,1.85,1.85,0,0,0,1.41.54,2.94,2.94,0,0,0,1.87-.67v.91a3.52,3.52,0,0,1-2.09.57,2.52,2.52,0,0,1-2-.82,3.83,3.83,0,0,1,.06-4.58,2.55,2.55,0,0,1,2-.88,2.25,2.25,0,0,1,1.82.76,3.18,3.18,0,0,1,.64,2.12Zm-1-.81a2,2,0,0,0-.4-1.3,1.37,1.37,0,0,0-1.1-.46,1.59,1.59,0,0,0-1.16.48,2.24,2.24,0,0,0-.58,1.28Z" fill="#1e1e1e"/>
    </g>
    <g>
      <path d="M364.59,120h-1.34l-2.65-2.88h0V120h-1v-8.88h1v5.63h0l2.52-2.75h1.26l-2.79,2.89Z" fill="#1e1e1e"/>
      <path d="M370.43,120h-1v-1h0a2,2,0,0,1-1.86,1.09c-1.43,0-2.14-.85-2.14-2.55V114h.95v3.43c0,1.27.49,1.9,1.46,1.9a1.47,1.47,0,0,0,1.16-.52,2,2,0,0,0,.45-1.35V114h1Z" fill="#1e1e1e"/>
      <path d="M373.35,119.13h0V120h-1v-8.88h1v3.93h0a2.3,2.3,0,0,1,2.08-1.19,2.2,2.2,0,0,1,1.81.81,3.32,3.32,0,0,1,.65,2.15,3.73,3.73,0,0,1-.73,2.42,2.46,2.46,0,0,1-2,.9A2,2,0,0,1,373.35,119.13Zm0-2.42v.84a1.77,1.77,0,0,0,.48,1.26,1.73,1.73,0,0,0,2.6-.15,3,3,0,0,0,.49-1.85,2.41,2.41,0,0,0-.46-1.57,1.52,1.52,0,0,0-1.25-.57,1.7,1.7,0,0,0-1.35.58A2.15,2.15,0,0,0,373.33,116.71Z" fill="#1e1e1e"/>
      <path d="M384.25,117.24H380a2.3,2.3,0,0,0,.54,1.55,1.87,1.87,0,0,0,1.42.54,2.93,2.93,0,0,0,1.86-.67v.91a3.5,3.5,0,0,1-2.09.57,2.53,2.53,0,0,1-2-.82A3.36,3.36,0,0,1,379,117a3.29,3.29,0,0,1,.8-2.28,2.53,2.53,0,0,1,2-.88,2.24,2.24,0,0,1,1.82.76,3.18,3.18,0,0,1,.65,2.12Zm-1-.81a2,2,0,0,0-.4-1.3,1.36,1.36,0,0,0-1.1-.46,1.55,1.55,0,0,0-1.15.48,2.25,2.25,0,0,0-.59,1.28Z" fill="#1e1e1e"/>
      <path d="M386.66,120h-1v-8.88h1Z" fill="#1e1e1e"/>
      <path d="M393.43,117.24h-4.24a2.3,2.3,0,0,0,.54,1.55,1.87,1.87,0,0,0,1.42.54,2.91,2.91,0,0,0,1.86-.67v.91a3.47,3.47,0,0,1-2.09.57,2.53,2.53,0,0,1-2-.82,3.35,3.35,0,0,1-.72-2.3,3.28,3.28,0,0,1,.79-2.28,2.54,2.54,0,0,1,2-.88,2.24,2.24,0,0,1,1.82.76,3.18,3.18,0,0,1,.65,2.12Zm-1-.81a1.91,1.91,0,0,0-.4-1.3,1.36,1.36,0,0,0-1.1-.46,1.56,1.56,0,0,0-1.15.48,2.25,2.25,0,0,0-.59,1.28Z" fill="#1e1e1e"/>
      <path d="M397.66,119.94a1.76,1.76,0,0,1-.89.19c-1,0-1.58-.59-1.58-1.76v-3.55h-1V114h1v-1.46l1-.32V114h1.51v.82h-1.51v3.38a1.37,1.37,0,0,0,.21.86.81.81,0,0,0,.68.26,1,1,0,0,0,.62-.2Z" fill="#1e1e1e"/>
      <path d="M335.53,169.65a4.92,4.92,0,0,1-2.32.49,3.73,3.73,0,0,1-2.87-1.15,4.26,4.26,0,0,1-1.08-3,4.45,4.45,0,0,1,1.21-3.26,4.12,4.12,0,0,1,3.08-1.24,4.92,4.92,0,0,1,2,.34v1a4.08,4.08,0,0,0-2-.5,3.07,3.07,0,0,0-2.35,1,3.66,3.66,0,0,0-.9,2.59,3.44,3.44,0,0,0,.84,2.44,2.87,2.87,0,0,0,2.21.92,4.11,4.11,0,0,0,2.19-.57Z" fill="#1e1e1e"/>
      <path d="M339.62,170.14a2.79,2.79,0,0,1-2.13-.84,3.15,3.15,0,0,1-.79-2.23,3.25,3.25,0,0,1,.83-2.36,3,3,0,0,1,2.23-.85,2.66,2.66,0,0,1,2.09.83,3.75,3.75,0,0,1-.05,4.59A2.88,2.88,0,0,1,339.62,170.14Zm.07-5.47a1.84,1.84,0,0,0-1.47.63,2.59,2.59,0,0,0-.53,1.74,2.46,2.46,0,0,0,.54,1.68,1.85,1.85,0,0,0,1.46.61,1.75,1.75,0,0,0,1.43-.6,3.23,3.23,0,0,0,0-3.45A1.73,1.73,0,0,0,339.69,164.67Z" fill="#1e1e1e"/>
      <path d="M349.12,170h-1v-3.42c0-1.28-.46-1.91-1.39-1.91a1.54,1.54,0,0,0-1.2.54,2,2,0,0,0-.47,1.37V170h-1v-6h1v1h0a2.16,2.16,0,0,1,2-1.14,1.82,1.82,0,0,1,1.5.64,2.79,2.79,0,0,1,.52,1.83Z" fill="#1e1e1e"/>
      <path d="M353.72,169.94a1.82,1.82,0,0,1-.9.19c-1.05,0-1.58-.59-1.58-1.76v-3.55h-1V164h1v-1.46l1-.32V164h1.52v.82H352.2v3.38a1.37,1.37,0,0,0,.21.86.83.83,0,0,0,.68.26,1.05,1.05,0,0,0,.63-.2Z" fill="#1e1e1e"/>
      <path d="M359.29,170h-1v-.94h0a2.2,2.2,0,0,1-3.25.61,1.65,1.65,0,0,1-.51-1.26c0-1.12.66-1.78,2-2l1.8-.25q0-1.53-1.23-1.53a2.91,2.91,0,0,0-2,.74v-1a3.76,3.76,0,0,1,2-.56c1.41,0,2.11.75,2.11,2.24Zm-1-3-1.44.2a2.43,2.43,0,0,0-1,.34.93.93,0,0,0-.34.84.89.89,0,0,0,.31.71,1.2,1.2,0,0,0,.84.28,1.53,1.53,0,0,0,1.18-.5,1.79,1.79,0,0,0,.46-1.27Z" fill="#1e1e1e"/>
      <path d="M361.6,162.48a.6.6,0,0,1-.44-.18.59.59,0,0,1-.18-.44.61.61,0,0,1,.18-.45.6.6,0,0,1,.44-.18.64.64,0,0,1,.45.18.61.61,0,0,1,.18.45.58.58,0,0,1-.18.43A.61.61,0,0,1,361.6,162.48Zm.47,7.52h-1v-6h1Z" fill="#1e1e1e"/>
      <path d="M369,170h-1v-3.42c0-1.28-.46-1.91-1.39-1.91a1.54,1.54,0,0,0-1.2.54,2,2,0,0,0-.47,1.37V170h-1v-6h1v1h0a2.16,2.16,0,0,1,2-1.14,1.83,1.83,0,0,1,1.51.64,2.79,2.79,0,0,1,.52,1.83Z" fill="#1e1e1e"/>
      <path d="M375.62,167.24h-4.23a2.21,2.21,0,0,0,.54,1.55,1.85,1.85,0,0,0,1.42.54,2.93,2.93,0,0,0,1.86-.67v.91a3.52,3.52,0,0,1-2.09.57,2.52,2.52,0,0,1-2-.82,3.81,3.81,0,0,1,.07-4.58,2.53,2.53,0,0,1,2-.88,2.25,2.25,0,0,1,1.82.76,3.18,3.18,0,0,1,.64,2.12Zm-1-.81a2,2,0,0,0-.4-1.3,1.36,1.36,0,0,0-1.1-.46,1.55,1.55,0,0,0-1.15.48,2.19,2.19,0,0,0-.59,1.28Z" fill="#1e1e1e"/>
      <path d="M380.21,165a1.18,1.18,0,0,0-.73-.19,1.23,1.23,0,0,0-1,.58,2.72,2.72,0,0,0-.41,1.58V170h-1v-6h1v1.24h0a2.12,2.12,0,0,1,.63-1,1.4,1.4,0,0,1,.94-.36,1.5,1.5,0,0,1,.58.09Z" fill="#1e1e1e"/>
      <path d="M390.69,170h-1.17l-1.41-2.36c-.13-.21-.25-.4-.37-.56a2.18,2.18,0,0,0-.38-.37,1.25,1.25,0,0,0-.41-.22,1.83,1.83,0,0,0-.49-.06h-.81V170h-1v-8.4h2.5a3.31,3.31,0,0,1,1,.14,2.38,2.38,0,0,1,.81.41,1.92,1.92,0,0,1,.53.7,2.33,2.33,0,0,1,.2,1,2.53,2.53,0,0,1-.13.8,2.23,2.23,0,0,1-1,1.14,3,3,0,0,1-.78.32v0a1.44,1.44,0,0,1,.37.21,4,4,0,0,1,.3.29l.28.37.3.48Zm-5-7.51v3H387a1.91,1.91,0,0,0,.68-.12,1.46,1.46,0,0,0,.54-.32,1.38,1.38,0,0,0,.36-.51,1.78,1.78,0,0,0,.13-.67,1.32,1.32,0,0,0-.44-1,1.83,1.83,0,0,0-1.26-.38Z" fill="#1e1e1e"/>
      <path d="M396.57,170h-1v-.95h0a2,2,0,0,1-1.85,1.09c-1.43,0-2.14-.85-2.14-2.55V164h1v3.43c0,1.27.49,1.9,1.45,1.9a1.46,1.46,0,0,0,1.16-.52,2,2,0,0,0,.46-1.35V164h1Z" fill="#1e1e1e"/>
      <path d="M403.49,170h-1v-3.42c0-1.28-.47-1.91-1.4-1.91a1.5,1.5,0,0,0-1.19.54,2,2,0,0,0-.47,1.37V170h-1v-6h1v1h0a2.16,2.16,0,0,1,2-1.14,1.81,1.81,0,0,1,1.5.64,2.79,2.79,0,0,1,.53,1.83Z" fill="#1e1e1e"/>
      <path d="M408.08,169.94a1.82,1.82,0,0,1-.9.19c-1.05,0-1.57-.59-1.57-1.76v-3.55h-1V164h1v-1.46l1-.32V164h1.51v.82h-1.51v3.38a1.45,1.45,0,0,0,.2.86.84.84,0,0,0,.68.26,1,1,0,0,0,.63-.2Z" fill="#1e1e1e"/>
      <path d="M409.86,162.48a.59.59,0,0,1-.44-.18.56.56,0,0,1-.19-.44.63.63,0,0,1,.63-.63.6.6,0,0,1,.44.18.58.58,0,0,1,.19.45.56.56,0,0,1-.19.43A.58.58,0,0,1,409.86,162.48Zm.46,7.52h-1v-6h1Z" fill="#1e1e1e"/>
      <path d="M420.79,170h-1v-3.45a2.57,2.57,0,0,0-.31-1.44,1.17,1.17,0,0,0-1-.44,1.3,1.3,0,0,0-1.05.56,2.14,2.14,0,0,0-.43,1.35V170h-1v-3.56c0-1.18-.46-1.77-1.37-1.77a1.24,1.24,0,0,0-1,.53,2.2,2.2,0,0,0-.41,1.38V170h-1v-6h1V165h0a2,2,0,0,1,1.87-1.09,1.73,1.73,0,0,1,1.07.34,1.81,1.81,0,0,1,.63.9,2.13,2.13,0,0,1,2-1.24c1.32,0,2,.81,2,2.44Z" fill="#1e1e1e"/>
      <path d="M427.43,167.24h-4.24a2.3,2.3,0,0,0,.54,1.55,1.87,1.87,0,0,0,1.42.54,2.91,2.91,0,0,0,1.86-.67v.91a3.5,3.5,0,0,1-2.09.57,2.53,2.53,0,0,1-2-.82,3.35,3.35,0,0,1-.72-2.3,3.28,3.28,0,0,1,.79-2.28,2.54,2.54,0,0,1,2-.88,2.24,2.24,0,0,1,1.82.76,3.18,3.18,0,0,1,.65,2.12Zm-1-.81a1.91,1.91,0,0,0-.4-1.3,1.36,1.36,0,0,0-1.1-.46,1.56,1.56,0,0,0-1.15.48,2.25,2.25,0,0,0-.59,1.28Z" fill="#1e1e1e"/>
    </g>
    <g>
      <path d="M353.87,192.6,351.5,201h-1.15l-1.73-6.14a3.77,3.77,0,0,1-.14-.86h0a4.09,4.09,0,0,1-.15.85L346.57,201h-1.14L343,192.6h1.09l1.79,6.44a4.57,4.57,0,0,1,.14.85h0a5.24,5.24,0,0,1,.18-.85L348,192.6H349l1.78,6.49a4.72,4.72,0,0,1,.14.79h0a4.94,4.94,0,0,1,.16-.81l1.72-6.47Z" fill="#1e1e1e"/>
      <path d="M357,201.14a2.79,2.79,0,0,1-2.12-.84,3.11,3.11,0,0,1-.8-2.23,3.25,3.25,0,0,1,.83-2.36,3,3,0,0,1,2.23-.85,2.66,2.66,0,0,1,2.1.83,3.77,3.77,0,0,1-.06,4.59A2.87,2.87,0,0,1,357,201.14Zm.07-5.47a1.83,1.83,0,0,0-1.46.63,2.59,2.59,0,0,0-.54,1.74,2.46,2.46,0,0,0,.54,1.68,1.86,1.86,0,0,0,1.46.61,1.79,1.79,0,0,0,1.44-.6,3.23,3.23,0,0,0,0-3.45A1.76,1.76,0,0,0,357.1,195.67Z" fill="#1e1e1e"/>
      <path d="M364.69,196a1.18,1.18,0,0,0-.73-.19,1.23,1.23,0,0,0-1,.58,2.64,2.64,0,0,0-.41,1.58V201h-1v-6h1v1.24h0a2.12,2.12,0,0,1,.63-1,1.4,1.4,0,0,1,.94-.36,1.5,1.5,0,0,1,.58.09Z" fill="#1e1e1e"/>
      <path d="M370.71,201h-1.35l-2.65-2.88h0V201h-1v-8.88h1v5.63h0l2.52-2.75h1.26l-2.78,2.89Z" fill="#1e1e1e"/>
      <path d="M376.52,198.24h-4.24a2.21,2.21,0,0,0,.54,1.55,1.85,1.85,0,0,0,1.42.54,2.93,2.93,0,0,0,1.86-.67v.91a3.52,3.52,0,0,1-2.09.57,2.52,2.52,0,0,1-2-.82,3.36,3.36,0,0,1-.73-2.3,3.29,3.29,0,0,1,.8-2.28,2.53,2.53,0,0,1,2-.88,2.25,2.25,0,0,1,1.82.76,3.18,3.18,0,0,1,.65,2.12Zm-1-.81a2,2,0,0,0-.4-1.3,1.36,1.36,0,0,0-1.1-.46,1.55,1.55,0,0,0-1.15.48,2.19,2.19,0,0,0-.59,1.28Z" fill="#1e1e1e"/>
      <path d="M381.1,196a1.18,1.18,0,0,0-.73-.19,1.23,1.23,0,0,0-1,.58,2.72,2.72,0,0,0-.41,1.58V201h-1v-6h1v1.24h0a2.12,2.12,0,0,1,.63-1,1.42,1.42,0,0,1,.94-.36,1.5,1.5,0,0,1,.58.09Z" fill="#1e1e1e"/>
      <path d="M392.33,201h-1.21l-4.32-6.7a2.86,2.86,0,0,1-.27-.52h0a7.12,7.12,0,0,1,.05,1.15V201h-1v-8.4h1.27l4.21,6.59a5.88,5.88,0,0,1,.34.56h0a9,9,0,0,1,0-1.23V192.6h1Z" fill="#1e1e1e"/>
      <path d="M396.91,201.14a2.79,2.79,0,0,1-2.12-.84,3.11,3.11,0,0,1-.8-2.23,3.25,3.25,0,0,1,.83-2.36,3,3,0,0,1,2.23-.85,2.66,2.66,0,0,1,2.1.83,3.77,3.77,0,0,1-.06,4.59A2.87,2.87,0,0,1,396.91,201.14Zm.07-5.47a1.81,1.81,0,0,0-1.46.63A2.59,2.59,0,0,0,395,198a2.46,2.46,0,0,0,.54,1.68,1.86,1.86,0,0,0,1.46.61,1.75,1.75,0,0,0,1.43-.6,3.17,3.17,0,0,0,0-3.45A1.73,1.73,0,0,0,397,195.67Z" fill="#1e1e1e"/>
      <path d="M406.56,201h-1v-1h0a2.21,2.21,0,0,1-2.06,1.16,2.24,2.24,0,0,1-1.81-.81,3.28,3.28,0,0,1-.67-2.19,3.57,3.57,0,0,1,.75-2.38,2.46,2.46,0,0,1,2-.9,1.91,1.91,0,0,1,1.8,1h0v-3.71h1Zm-1-2.71v-.89a1.7,1.7,0,0,0-.49-1.23,1.61,1.61,0,0,0-1.21-.5,1.67,1.67,0,0,0-1.39.64,2.87,2.87,0,0,0-.5,1.78,2.54,2.54,0,0,0,.48,1.64,1.73,1.73,0,0,0,2.6,0A2.11,2.11,0,0,0,405.6,198.29Z" fill="#1e1e1e"/>
      <path d="M413.32,198.24h-4.23a2.21,2.21,0,0,0,.54,1.55,1.85,1.85,0,0,0,1.41.54,2.94,2.94,0,0,0,1.87-.67v.91a3.52,3.52,0,0,1-2.09.57,2.52,2.52,0,0,1-2-.82,3.81,3.81,0,0,1,.07-4.58,2.51,2.51,0,0,1,2-.88,2.25,2.25,0,0,1,1.82.76,3.18,3.18,0,0,1,.64,2.12Zm-1-.81a2,2,0,0,0-.4-1.3,1.37,1.37,0,0,0-1.1-.46,1.55,1.55,0,0,0-1.15.48,2.19,2.19,0,0,0-.59,1.28Z" fill="#1e1e1e"/>
    </g>
  </g>
</svg>
