<?xml version="1.0" encoding="UTF-8"?>
<svg width="599px" height="251px" viewBox="0 0 599 251" version="1.1" xmlns="http://www.w3.org/2000/svg" xmlns:xlink="http://www.w3.org/1999/xlink">
    <!-- Generator: Sketch 51.2 (57519) - http://www.bohemiancoding.com/sketch -->
    <title>3-diagram-cluster</title>
    <desc>Created with Sketch.</desc>
    <defs>
        <linearGradient x1="50%" y1="0.182376016%" x2="50%" y2="99.817624%" id="linearGradient-1">
            <stop stop-color="#B3B2B3" offset="0%"></stop>
            <stop stop-color="#AFAEAF" offset="38%"></stop>
            <stop stop-color="#A2A2A2" offset="76%"></stop>
            <stop stop-color="#979797" offset="100%"></stop>
        </linearGradient>
        <linearGradient x1="49.862107%" y1="1437.90036%" x2="49.862107%" y2="1338.25623%" id="linearGradient-2">
            <stop stop-color="#B3B2B3" offset="0%"></stop>
            <stop stop-color="#AFAEAF" offset="38%"></stop>
            <stop stop-color="#A2A2A2" offset="76%"></stop>
            <stop stop-color="#979797" offset="100%"></stop>
        </linearGradient>
        <linearGradient x1="49.8929336%" y1="1511.03745%" x2="49.8929336%" y2="1411.04252%" id="linearGradient-3">
            <stop stop-color="#B3B2B3" offset="0%"></stop>
            <stop stop-color="#AFAEAF" offset="38%"></stop>
            <stop stop-color="#A2A2A2" offset="76%"></stop>
            <stop stop-color="#979797" offset="100%"></stop>
        </linearGradient>
    </defs>
    <g id="Page-1" stroke="none" stroke-width="1" fill="none" fill-rule="evenodd">
        <g id="3-diagram-cluster">
            <g id="Shapes">
                <rect id="Rectangle-path" fill="#FFFFFF" fill-rule="nonzero" x="0" y="0" width="598.404255" height="250.053191"></rect>
                <g id="Group" transform="translate(269.680851, 95.744681)" fill-rule="nonzero">
                    <rect id="Rectangle-path" fill="#FFFFFF" x="1.80319149" y="2.12234043" width="87.3670213" height="103.324468"></rect>
                    <rect id="Rectangle-path" fill="#83B9F9" opacity="0.15" x="1.80319149" y="2.12234043" width="87.3670213" height="103.324468"></rect>
                    <path d="M88.962766,2.31382979 L88.962766,105.319149 L1.99468085,105.319149 L1.99468085,2.31382979 L88.962766,2.31382979 Z M89.3617021,1.91489362 L1.59574468,1.91489362 L1.59574468,105.638298 L89.3617021,105.638298 L89.3617021,1.91489362 Z" id="Shape" fill="#FFFFFF"></path>
                    <path d="M89.3617021,1.91489362 L89.3617021,105.638298 L1.59574468,105.638298 L1.59574468,1.91489362 L89.3617021,1.91489362 Z M89.7606383,1.51595745 L1.19680851,1.51595745 L1.19680851,106.037234 L89.7606383,106.037234 L89.7606383,1.59574468 L89.7606383,1.51595745 Z" id="Shape" fill="#0078D4"></path>
                </g>
                <g id="Group" transform="translate(300.000000, 137.234043)" fill-rule="nonzero">
                    <path d="M29.6648936,43.4840426 C29.6654407,43.9214541 29.4864103,44.3399144 29.1696638,44.6415778 C28.8529172,44.9432412 28.4262265,45.1016582 27.9893617,45.0797872 L2.32978723,45.0797872 C1.89292244,45.1016582 1.46623174,44.9432412 1.14948518,44.6415778 C0.832738615,44.3399144 0.653708195,43.9214541 0.654255319,43.4840426 L0.654255319,1.83510638 C0.653708195,1.3976948 0.832738615,0.979234533 1.14948518,0.67757114 C1.46623174,0.375907746 1.89292244,0.217490764 2.32978723,0.239361702 L27.9893617,0.239361702 C28.4262265,0.217490764 28.8529172,0.375907746 29.1696638,0.67757114 C29.4864103,0.979234533 29.6654407,1.3976948 29.6648936,1.83510638 L29.6648936,43.4840426 Z" id="Shape" fill="url(#linearGradient-1)"></path>
                    <path d="M4.93085106,19.4202128 C4.85600193,17.6361538 6.19959477,16.1096635 7.9787234,15.9574468 L22.4680851,15.9574468 C24.2751918,16.0936294 25.6466209,17.6417891 25.5638298,19.4521277 C25.739762,21.2763295 24.403928,22.8979034 22.5797872,23.0744681 L8.04255319,23.0744681 C6.23220805,22.9715865 4.8470626,21.4222227 4.94680851,19.6117021 L4.93085106,19.4202128 Z" id="Shape" fill="#003067"></path>
                    <path d="M4.93085106,9.07978723 C4.83908267,7.2897892 6.19155604,5.7532095 7.9787234,5.61702128 L22.4680851,5.61702128 C24.2702762,5.73672195 25.6459519,7.27549318 25.5638298,9.07978723 C25.6470084,10.89319 24.2776462,12.446075 22.4680851,12.5904255 L8.10638298,12.5904255 C6.29278336,12.4541712 4.91892188,10.8961839 5.0106383,9.07978723 L4.93085106,9.07978723 Z" id="Shape" fill="#003067"></path>
                    <circle id="Oval" fill="#50E6FF" cx="8.98404255" cy="9.07978723" r="2.32978723"></circle>
                    <circle id="Oval" fill="#50E6FF" cx="8.98404255" cy="19.4202128" r="2.32978723"></circle>
                </g>
                <g id="Group" transform="translate(389.361702, 95.744681)" fill-rule="nonzero">
                    <rect id="Rectangle-path" fill="#FFFFFF" x="1.80319149" y="2.12234043" width="87.3670213" height="103.324468"></rect>
                    <rect id="Rectangle-path" fill="#83B9F9" opacity="0.15" x="1.80319149" y="2.12234043" width="87.3670213" height="103.324468"></rect>
                    <path d="M88.962766,2.31382979 L88.962766,105.319149 L1.99468085,105.319149 L1.99468085,2.31382979 L88.962766,2.31382979 Z M89.3617021,1.91489362 L1.59574468,1.91489362 L1.59574468,105.638298 L89.3617021,105.638298 L89.3617021,1.91489362 Z" id="Shape" fill="#FFFFFF"></path>
                    <path d="M89.3617021,1.91489362 L89.3617021,105.638298 L1.59574468,105.638298 L1.59574468,1.91489362 L89.3617021,1.91489362 Z M89.7606383,1.51595745 L1.19680851,1.51595745 L1.19680851,106.037234 L89.7606383,106.037234 L89.7606383,1.59574468 L89.7606383,1.51595745 Z" id="Shape" fill="#0078D4"></path>
                </g>
                <g id="Group" transform="translate(419.680851, 137.234043)" fill-rule="nonzero">
                    <path d="M29.6648936,43.4840426 C29.6648936,44.365348 28.9504544,45.0797872 28.0691489,45.0797872 L2.32978723,45.0797872 C1.44848178,45.0797872 0.734042553,44.365348 0.734042553,43.4840426 L0.734042553,1.83510638 C0.734042553,0.953800931 1.44848178,0.239361702 2.32978723,0.239361702 L27.9893617,0.239361702 C28.8706672,0.239361702 29.5851064,0.953800931 29.5851064,1.83510638 L29.6648936,43.4840426 Z" id="Shape" fill="url(#linearGradient-2)"></path>
                    <path d="M4.93085106,19.4202128 C4.85600193,17.6361538 6.19959477,16.1096635 7.9787234,15.9574468 L22.4680851,15.9574468 C24.2751918,16.0936294 25.6466209,17.6417891 25.5638298,19.4521277 C25.739762,21.2763295 24.403928,22.8979034 22.5797872,23.0744681 L8.04255319,23.0744681 C6.23220805,22.9715865 4.8470626,21.4222227 4.94680851,19.6117021 L4.93085106,19.4202128 Z" id="Shape" fill="#003067"></path>
                    <path d="M4.93085106,9.07978723 C4.83908267,7.2897892 6.19155604,5.7532095 7.9787234,5.61702128 L22.4680851,5.61702128 C24.2702762,5.73672195 25.6459519,7.27549318 25.5638298,9.07978723 C25.6470084,10.89319 24.2776462,12.446075 22.4680851,12.5904255 L8.10638298,12.5904255 C6.29278336,12.4541712 4.91892188,10.8961839 5.0106383,9.07978723 L4.93085106,9.07978723 Z" id="Shape" fill="#003067"></path>
                    <circle id="Oval" fill="#50E6FF" cx="8.98404255" cy="9.07978723" r="2.32978723"></circle>
                    <circle id="Oval" fill="#50E6FF" cx="8.98404255" cy="19.4202128" r="2.32978723"></circle>
                </g>
                <g id="Group" transform="translate(509.042553, 95.744681)" fill-rule="nonzero">
                    <rect id="Rectangle-path" fill="#FFFFFF" x="1.80319149" y="2.12234043" width="87.3670213" height="103.324468"></rect>
                    <rect id="Rectangle-path" fill="#83B9F9" opacity="0.15" x="1.80319149" y="2.12234043" width="87.3670213" height="103.324468"></rect>
                    <path d="M88.962766,2.31382979 L88.962766,105.319149 L1.99468085,105.319149 L1.99468085,2.31382979 L88.962766,2.31382979 Z M89.3617021,1.91489362 L1.59574468,1.91489362 L1.59574468,105.638298 L89.3617021,105.638298 L89.3617021,1.91489362 Z" id="Shape" fill="#FFFFFF"></path>
                    <path d="M89.3617021,1.91489362 L89.3617021,105.638298 L1.59574468,105.638298 L1.59574468,1.91489362 L89.3617021,1.91489362 Z M89.7606383,1.51595745 L1.19680851,1.51595745 L1.19680851,106.037234 L89.7606383,106.037234 L89.7606383,1.59574468 L89.7606383,1.51595745 Z" id="Shape" fill="#0078D4"></path>
                </g>
                <g id="Group" transform="translate(539.361702, 137.234043)" fill-rule="nonzero">
                    <path d="M29.6648936,43.4840426 C29.6648936,44.365348 28.9504544,45.0797872 28.0691489,45.0797872 L2.32978723,45.0797872 C1.44848178,45.0797872 0.734042553,44.365348 0.734042553,43.4840426 L0.734042553,1.83510638 C0.734042553,0.953800931 1.44848178,0.239361702 2.32978723,0.239361702 L27.9893617,0.239361702 C28.8706672,0.239361702 29.5851064,0.953800931 29.5851064,1.83510638 L29.6648936,43.4840426 Z" id="Shape" fill="url(#linearGradient-2)"></path>
                    <path d="M4.93085106,19.4202128 C4.85600193,17.6361538 6.19959477,16.1096635 7.9787234,15.9574468 L22.4680851,15.9574468 C24.2751918,16.0936294 25.6466209,17.6417891 25.5638298,19.4521277 C25.739762,21.2763295 24.403928,22.8979034 22.5797872,23.0744681 L8.04255319,23.0744681 C6.23220805,22.9715865 4.8470626,21.4222227 4.94680851,19.6117021 L4.93085106,19.4202128 Z" id="Shape" fill="#003067"></path>
                    <path d="M4.93085106,9.07978723 C4.83908267,7.2897892 6.19155604,5.7532095 7.9787234,5.61702128 L22.4680851,5.61702128 C24.2702762,5.73672195 25.6459519,7.27549318 25.5638298,9.07978723 C25.6470084,10.89319 24.2776462,12.446075 22.4680851,12.5904255 L8.10638298,12.5904255 C6.29278336,12.4541712 4.91892188,10.8961839 5.0106383,9.07978723 L4.93085106,9.07978723 Z" id="Shape" fill="#003067"></path>
                    <circle id="Oval" fill="#50E6FF" cx="8.98404255" cy="9.07978723" r="2.32978723"></circle>
                    <circle id="Oval" fill="#50E6FF" cx="8.98404255" cy="19.4202128" r="2.32978723"></circle>
                </g>
                <g id="Group" transform="translate(197.872340, 49.468085)">
                    <path d="M1.00531915,0.319148936 L344.680851,0.319148936 C346.79694,0.319148936 348.82636,1.15976202 350.32266,2.65606292 C351.818961,4.15236381 352.659574,6.18178333 352.659574,8.29787234 L352.659574,39.606383" id="Shape" stroke="#3C3C41"></path>
                    <polygon id="Shape" fill="#3C3C41" fill-rule="nonzero" points="346.691489 37.8670213 352.659574 48.1914894 358.62766 37.8670213"></polygon>
                </g>
                <g id="Group" transform="translate(427.659574, 49.468085)">
                    <path d="M7.18085106,0.319148936 L7.18085106,39.606383" id="Shape" stroke="#3C3C41"></path>
                    <polygon id="Shape" fill="#3C3C41" fill-rule="nonzero" points="1.21276596 37.8670213 7.18085106 48.1914894 13.1489362 37.8670213"></polygon>
                </g>
                <g id="Group" transform="translate(307.978723, 49.468085)">
                    <path d="M7.18085106,0.319148936 L7.18085106,39.606383" id="Shape" stroke="#3C3C41"></path>
                    <polygon id="Shape" fill="#3C3C41" fill-rule="nonzero" points="1.21276596 37.8670213 7.18085106 48.1914894 13.1489362 37.8670213"></polygon>
                </g>
                <g id="Group" transform="translate(325.531915, 201.063830)">
                    <path d="M1.21276596,0.319148936 L1.21276596,18.606383 C1.21276596,23.0129102 4.7849621,26.5851064 9.19148936,26.5851064 L209.425532,26.5851064 C213.832059,26.5851064 217.404255,23.0129102 217.404255,18.606383 L217.404255,8.90425532" id="Shape" stroke="#3C3C41"></path>
                    <polygon id="Shape" fill="#3C3C41" fill-rule="nonzero" points="223.37234 10.6595745 217.404255 0.319148936 211.43617 10.6595745"></polygon>
                </g>
                <g id="Group" transform="translate(296.808511, 201.063830)">
                    <path d="M6.38297872,8.90425532 L6.38297872,40.212766 C6.38297872,44.6192932 9.95517487,48.1914894 14.3617021,48.1914894 L261.702128,48.1914894 C266.108655,48.1914894 269.680851,44.6192932 269.680851,40.212766 L269.680851,0.319148936" id="Shape" stroke="#3C3C41"></path>
                    <polygon id="Shape" fill="#3C3C41" fill-rule="nonzero" points="0.414893617 10.6595745 6.38297872 0.319148936 12.3510638 10.6595745"></polygon>
                </g>
                <g id="Group" transform="translate(359.042553, 143.617021)">
                    <path d="M0,6.90957447 L23.3297872,6.90957447" id="Shape" stroke="#3C3C41"></path>
                    <polygon id="Shape" fill="#3C3C41" fill-rule="nonzero" points="21.5744681 12.8776596 31.9148936 6.90957447 21.5744681 0.941489362"></polygon>
                </g>
                <g id="Group" transform="translate(172.340426, 81.382979)">
                    <path d="M7.42021277,0.319148936 L7.42021277,39.606383" id="Shape" stroke="#3C3C41"></path>
                    <polygon id="Shape" fill="#3C3C41" fill-rule="nonzero" points="1.45212766 37.8510638 7.42021277 48.1914894 13.3882979 37.8510638"></polygon>
                </g>
                <g id="Group" transform="translate(127.659574, 129.255319)" fill-rule="nonzero">
                    <rect id="Rectangle-path" fill="#FFFFFF" x="0.478723404" y="0.319148936" width="103.244681" height="39.893617"></rect>
                    <rect id="Rectangle-path" fill="#552F99" opacity="0.35" x="0.478723404" y="0.319148936" width="103.244681" height="39.893617"></rect>
                </g>
                <g id="Group" transform="translate(0.000000, 28.723404)" fill-rule="nonzero">
                    <rect id="Rectangle-path" fill="#FFFFFF" x="0" y="0.319148936" width="103.244681" height="39.893617"></rect>
                    <rect id="Rectangle-path" fill="#552F99" opacity="0.35" x="0" y="0.319148936" width="103.244681" height="39.893617"></rect>
                </g>
                <g id="Group" transform="translate(161.170213, 25.531915)" fill-rule="nonzero">
                    <path d="M37.2446809,55.8510638 C37.1598326,56.9590473 36.2169797,57.8033931 35.106383,57.7659574 L2.09042553,57.7659574 C0.998133564,57.777592 0.0839652643,56.9401859 -1.42108547e-14,55.8510638 L-1.42108547e-14,2.26595745 C0.0685696722,1.13887269 1.02600429,0.273635475 2.15425532,0.319148936 L35.106383,0.319148936 C36.234634,0.273635475 37.1920686,1.13887269 37.2606383,2.26595745 L37.2446809,55.8510638 Z" id="Shape" fill="url(#linearGradient-3)"></path>
                    <path d="M5.44148936,24.8776596 C5.31401657,22.5468943 7.08572283,20.5474989 9.41489362,20.393617 L28.037234,20.393617 C30.3646117,20.5558216 32.1363166,22.5472179 32.0265957,24.8776596 C32.2490859,27.2199047 30.5378045,29.3019638 28.1968085,29.537234 L9.57446809,29.537234 C7.25019486,29.4001254 5.47401807,27.4099514 5.60106383,25.0851064 L5.44148936,24.8776596 Z" id="Shape" fill="#003067"></path>
                    <path d="M5.44148936,11.5851064 C5.31444361,9.2602614 7.09062039,7.27008741 9.41489362,7.13297872 L28.037234,7.13297872 C30.3596954,7.27858007 32.1357406,9.26064646 32.0265957,11.5851064 C32.1366472,13.9185723 30.3670671,15.9146586 28.037234,16.0851064 L9.57446809,16.0851064 C7.24694166,15.9146294 5.48204499,13.9158308 5.60106383,11.5851064 L5.44148936,11.5851064 Z" id="Shape" fill="#003067"></path>
                    <circle id="Oval" fill="#50E6FF" cx="10.643617" cy="11.5851064" r="2.98404255"></circle>
                    <circle id="Oval" fill="#50E6FF" cx="10.643617" cy="24.8776596" r="2.98404255"></circle>
                </g>
                <g id="Group" transform="translate(103.723404, 43.085106)">
                    <path d="M0,6.70212766 L47.2659574,6.70212766" id="Shape" stroke="#3C3C41"></path>
                    <polygon id="Shape" fill="#3C3C41" fill-rule="nonzero" points="45.5106383 12.6702128 55.8510638 6.70212766 45.5106383 0.734042553"></polygon>
                </g>
            </g>
            <g id="Text" transform="translate(30.319149, 1.595745)" fill="#1E1E1E" fill-rule="nonzero">
                <g id="Group" transform="translate(121.276596, 138.829787)">
                    <path d="M9.97340426,14.6808511 L8.10638298,14.6808511 L5.85638298,10.9308511 C5.67981217,10.6200904 5.48255935,10.3215456 5.26595745,10.037234 C5.0938573,9.81243769 4.89565983,9.60888354 4.67553191,9.43085106 C4.47717685,9.28029005 4.25640043,9.16182465 4.0212766,9.07978723 C3.76041547,9.01438289 3.49233344,8.98221305 3.22340426,8.98404255 L1.93085106,8.98404255 L1.93085106,14.6808511 L0.335106383,14.6808511 L0.335106383,1.27659574 L4.34042553,1.27659574 C4.88066724,1.26850737 5.41892009,1.34386277 5.93617021,1.5 C6.40860831,1.6319322 6.84866908,1.86011185 7.2287234,2.17021277 C7.60066616,2.46876264 7.89606747,2.85169026 8.09042553,3.28723404 C8.45848644,4.19266228 8.49242484,5.1995016 8.18617021,6.12765957 C8.05091814,6.51320465 7.84531139,6.87031112 7.57978723,7.18085106 C7.31630946,7.49054715 7.00361207,7.75472253 6.65425532,7.96276596 C6.26549708,8.17527374 5.85308824,8.34130847 5.42553191,8.45744681 C5.82697863,8.64938147 6.18527914,8.92082125 6.4787234,9.25531915 C6.63895872,9.44331621 6.78814583,9.64045631 6.92553191,9.84574468 C7.06914894,10.0691489 7.2287234,10.3244681 7.40425532,10.6276596 L9.97340426,14.6808511 Z M1.99468085,2.69680851 L1.99468085,7.484043 L4.13297872,7.48404255 C4.50176409,7.48423175 4.86816783,7.42496055 5.21808511,7.30851064 C5.53300952,7.19008011 5.82467736,7.01723991 6.07978723,6.79787234 C6.32382199,6.56778418 6.51917234,6.29103785 6.65425532,5.98404255 C6.7979899,5.64066555 6.86863871,5.27111795 6.86170213,4.89893617 C6.89291561,4.26301426 6.63481695,3.647097 6.15957447,3.22340426 C5.58430973,2.78563232 4.87031751,2.57030133 4.14893617,2.61702128 L1.99468085,2.69680851 Z" id="Shape"></path>
                    <path d="M18.75,10.2765957 L11.9840426,10.2765957 C11.9542584,11.1794493 12.2614129,12.0610965 12.8457447,12.75 C13.4451031,13.3449313 14.2684785,13.658046 15.1117021,13.6117021 C16.1915309,13.6054385 17.2375248,13.2342794 18.0797872,12.5585106 L18.0797872,13.9946809 C17.0922518,14.6429457 15.9245997,14.9613963 14.7446809,14.9042553 C13.5386893,14.9673665 12.3677734,14.487291 11.5531915,13.5957447 C10.7238245,12.5587892 10.3087352,11.2509737 10.3882979,9.92553191 C10.3369606,8.59474576 10.793298,7.29418409 11.6648936,6.28723404 C12.4627381,5.36210486 13.6352909,4.84618163 14.856383,4.88297872 C15.959925,4.81635102 17.0321941,5.26411176 17.7606383,6.09574468 C18.49852,7.06374652 18.8663642,8.2634844 18.7978723,9.4787234 L18.75,10.2765957 Z M17.1542553,8.98404255 C17.2032501,8.23765593 16.9760678,7.49931335 16.5159574,6.90957447 C16.0750054,6.40778409 15.4275336,6.13702316 14.7606383,6.17553191 C14.0651086,6.16094015 13.3967955,6.44569966 12.9255319,6.95744681 C12.3983608,7.51173213 12.0676152,8.22367603 11.9840426,8.98404255 L17.1542553,8.98404255 Z" id="Shape"></path>
                    <path d="M20.4893617,14.3617021 L20.4893617,12.7659574 C21.2815809,13.3718741 22.252648,13.6974342 23.25,13.6914894 C24.5904255,13.6914894 25.2606383,13.2446809 25.2606383,12.3510638 C25.2654576,12.1207332 25.2045716,11.8937945 25.0851064,11.6968085 C24.9644791,11.5122384 24.8069106,11.3546698 24.6223404,11.2340426 C24.4087428,11.0809918 24.1785646,10.9525203 23.9361702,10.8510638 L23.0744681,10.5159574 C22.6899345,10.3737903 22.3165557,10.2031028 21.9574468,10.0053191 C21.6660809,9.85184558 21.3975379,9.65849462 21.1595745,9.43085106 C20.9466975,9.22217434 20.7784045,8.97244935 20.6648936,8.69680851 C20.5485355,8.38590392 20.4943196,8.05518716 20.5053191,7.72340426 C20.4932397,7.30909777 20.5983314,6.89979324 20.8085106,6.54255319 C21.0156366,6.19135971 21.2992615,5.89137183 21.6382979,5.66489362 C21.998363,5.43262022 22.3909495,5.25514961 22.8031915,5.13829787 C23.2515641,5.02297299 23.7125673,4.96400746 24.1755319,4.96276596 C24.9368957,4.94960247 25.6925462,5.09638349 26.393617,5.39361702 L26.393617,6.9893617 C25.6715893,6.52395204 24.8269211,6.28499985 23.9680851,6.30319149 C23.7043187,6.29964371 23.4412878,6.33185158 23.1861702,6.39893617 C22.9759556,6.45675271 22.7765438,6.54837435 22.5957447,6.67021277 C22.435312,6.78096146 22.3039415,6.92875326 22.212766,7.10106383 C22.1174328,7.26589876 22.0678521,7.45320358 22.0691489,7.64361702 C22.0621993,7.86511155 22.1116163,8.08474271 22.212766,8.28191489 C22.3136252,8.45668478 22.4494301,8.60878634 22.6117021,8.7287234 C22.8111456,8.8684845 23.0251639,8.98619453 23.25,9.07978723 L24.0957447,9.43085106 C24.4824339,9.57423915 24.8606983,9.73939684 25.2287234,9.92553191 C25.5371085,10.0832208 25.8262569,10.2759864 26.0904255,10.5 C26.3256995,10.709383 26.5157502,10.964594 26.6489362,11.25 C26.7854771,11.5670826 26.8508413,11.9102448 26.8404255,12.2553191 C26.8465737,12.6861534 26.7363125,13.1106587 26.5212766,13.4840426 C26.3118173,13.8343833 26.0218967,14.1297741 25.6755319,14.3457447 C25.3127261,14.5940164 24.9068783,14.7725894 24.4787234,14.8723404 C24.0080201,14.9822856 23.5259102,15.0358534 23.0425532,15.0319149 C22.1490249,15.0241019 21.2715261,14.7937585 20.4893617,14.3617021 Z" id="Shape"></path>
                    <path d="M36.9255319,14.6808511 L35.3297872,14.6808511 L35.3297872,13.0851064 C34.7667827,14.1887656 33.6159008,14.8668528 32.3776596,14.8244681 C30.0957447,14.8244681 28.9468085,13.4680851 28.9468085,10.7553191 L28.9468085,5.10638298 L30.5425532,5.10638298 L30.5425532,10.5797872 C30.5425532,12.606383 31.3085106,13.6117021 32.856383,13.6117021 C33.5677549,13.6323427 34.2495469,13.3267118 34.7074468,12.7819149 C35.2028163,12.1761472 35.4583669,11.4094954 35.4255319,10.6276596 L35.4255319,5.10638298 L37.0212766,5.10638298 L36.9255319,14.6808511 Z" id="Shape"></path>
                    <polygon id="Shape" points="41.4893617 14.6808511 39.893617 14.6808511 39.893617 0.510638298 41.4893617 0.510638298"></polygon>
                    <path d="M49.1010638,14.5851064 C48.6624271,14.8089322 48.1726492,14.9134915 47.6808511,14.8882979 C46.0851064,14.8882979 45.1595745,13.9468085 45.1595745,12.0797872 L45.1595745,6.38297872 L43.5638298,6.38297872 L43.5638298,5.10638298 L45.1595745,5.10638298 L45.1595745,2.77659574 L46.7553191,2.28191489 L46.7553191,5.10638298 L49.1648936,5.10638298 L49.1648936,6.38297872 L46.7553191,6.38297872 L46.7553191,11.8085106 C46.712074,12.2904369 46.829932,12.7730935 47.0904255,13.1808511 C47.3614466,13.4898163 47.7675145,13.6450775 48.1755319,13.5957447 C48.5328186,13.6106944 48.8836919,13.4975094 49.1648936,13.2765957 L49.1010638,14.5851064 Z" id="Shape"></path>
                    <path d="M50.5691489,14.3617021 L50.5691489,12.7659574 C51.3625079,13.369725 52.3328213,13.6950324 53.3297872,13.6914894 C54.6702128,13.6914894 55.356383,13.2446809 55.356383,12.3510638 C55.3612023,12.1207332 55.3003163,11.8937945 55.1808511,11.6968085 C55.0602238,11.5122384 54.9026553,11.3546698 54.7180851,11.2340426 C54.4988277,11.0809686 54.2633628,10.9525333 54.0159574,10.8510638 L53.1702128,10.5159574 C52.7856792,10.3737903 52.4123004,10.2031028 52.0531915,10.0053191 C51.7569641,9.85187619 51.4831439,9.65859137 51.2393617,9.43085106 C51.0365422,9.21726627 50.8743205,8.96852633 50.7606383,8.69680851 C50.6384324,8.38711248 50.578774,8.05627933 50.5851064,7.72340426 C50.5787061,7.30765411 50.6892948,6.89847608 50.9042553,6.54255319 C51.110114,6.195516 51.3875493,5.89632112 51.7180851,5.66489362 C52.0837634,5.43243131 52.4816358,5.25500172 52.8989362,5.13829787 C53.3418819,5.02297384 53.7976085,4.96399747 54.2553191,4.96276596 C55.021836,4.94972741 55.7826684,5.09645936 56.4893617,5.39361702 L56.4893617,6.9893617 C55.7611939,6.52445601 54.9116196,6.28568675 54.0478723,6.30319149 C53.789352,6.29949466 53.5315707,6.33171732 53.2819149,6.39893617 C53.0668009,6.4569718 52.8621671,6.54851849 52.6755319,6.67021277 C52.5227751,6.78938933 52.3929984,6.93538812 52.2925532,7.10106383 C52.2090017,7.26974839 52.1653249,7.45537477 52.1648936,7.64361702 C52.1631379,7.86289433 52.2065951,8.08018033 52.2925532,8.28191489 C52.3981648,8.45319486 52.5332213,8.60445812 52.6914894,8.7287234 C52.8909329,8.8684845 53.1049511,8.98619453 53.3297872,9.07978723 L54.1755319,9.43085106 C54.5685463,9.57138393 54.9522893,9.73660664 55.3244681,9.92553191 C55.6328532,10.0832208 55.9220016,10.2759864 56.1861702,10.5 C56.4170485,10.7096939 56.601809,10.9650982 56.7287234,11.25 C56.8652643,11.5670826 56.9306285,11.9102448 56.9202128,12.2553191 C56.9339754,12.687037 56.8231818,13.1135924 56.6010638,13.4840426 C56.3976025,13.833686 56.1129961,14.1292387 55.7712766,14.3457447 C55.402576,14.5938731 54.991535,14.7723515 54.5585106,14.8723404 C54.0933687,14.9831545 53.6164333,15.0367427 53.1382979,15.0319149 C52.239712,15.0240754 51.3570543,14.7938168 50.5691489,14.3617021 Z" id="Shape"></path>
                </g>
                <g id="Group" transform="translate(0.000000, 38.297872)">
                    <polygon id="Shape" points="9.28723404 2.69680851 5.42553191 2.69680851 5.42553191 14.6808511 3.82978723 14.6808511 3.82978723 2.69680851 0 2.69680851 0 1.27659574 9.30319149 1.27659574"></polygon>
                    <path d="M15.9574468,14.6808511 L14.3617021,14.6808511 L14.3617021,13.1808511 C13.7942018,14.2783144 12.6442497,14.9496378 11.4095745,14.9042553 C10.5964833,14.948411 9.79726514,14.6801021 9.17553191,14.1542553 C8.62796581,13.6321053 8.33148795,12.8996305 8.36170213,12.143617 C8.36170213,10.356383 9.41489362,9.30319149 11.5531915,8.95212766 L14.3617021,8.61702128 C14.3617021,7.0212766 13.7074468,6.17553191 12.3829787,6.17553191 C11.2104311,6.16500015 10.0747969,6.58518481 9.19148936,7.35638298 L9.19148936,5.7606383 C10.1499695,5.16823255 11.2562331,4.85847874 12.3829787,4.86702128 C14.6329787,4.86702128 15.7659574,6.06382979 15.7659574,8.44148936 L15.9574468,14.6808511 Z M14.3617021,9.89361702 L12.0478723,10.212766 C11.4829713,10.265327 10.9373595,10.4453789 10.4521277,10.7393617 C10.0675881,11.0738843 9.8659809,11.5719726 9.90957447,12.0797872 C9.89912,12.5153519 10.0869561,12.9321133 10.4202128,13.212766 C10.7880214,13.5261219 11.2622164,13.6860913 11.7446809,13.6595745 C12.4596695,13.6863701 13.1495883,13.3940316 13.6276596,12.8617021 C14.1411338,12.2969297 14.4056927,11.5492632 14.3617021,10.787234 L14.3617021,9.89361702 Z" id="Shape"></path>
                    <path d="M18.2074468,14.3617021 L18.2074468,12.7659574 C18.999666,13.3718741 19.9707331,13.6974342 20.9680851,13.6914894 C22.3085106,13.6914894 22.9787234,13.2446809 22.9787234,12.3510638 C22.9915273,12.1198352 22.9300185,11.8905752 22.8031915,11.6968085 C22.689877,11.4891442 22.5318077,11.3092722 22.3404255,11.1702128 C22.1268279,11.0171621 21.8966497,10.8886905 21.6542553,10.787234 L20.7446809,10.4361702 C20.3601473,10.294003 19.9867685,10.1233155 19.6276596,9.92553191 C19.3362937,9.77205835 19.0677507,9.57870738 18.8297872,9.35106383 C18.6169102,9.1423871 18.4486173,8.89266212 18.3351064,8.61702128 C18.2187482,8.30611669 18.1645324,7.97539992 18.1755319,7.64361702 C18.1634524,7.22931053 18.2685441,6.82000601 18.4787234,6.46276596 C18.6858494,6.11157248 18.9694743,5.8115846 19.3085106,5.58510638 C19.6685757,5.35283299 20.0611622,5.17536237 20.4734043,5.05851064 C20.9217768,4.94318575 21.3827801,4.88422022 21.8457447,4.88297872 C22.6071085,4.86981523 23.3627589,5.01659626 24.0638298,5.31382979 L24.0638298,6.90957447 C23.3418021,6.44416481 22.4971339,6.20521262 21.6382979,6.22340426 C21.3745842,6.22081181 21.1116799,6.25300417 20.856383,6.31914894 C20.6461684,6.37696547 20.4467566,6.46858711 20.2659574,6.59042553 C20.1095587,6.70566487 19.9790869,6.85244565 19.8829787,7.0212766 C19.7876456,7.18611152 19.7380649,7.37341634 19.7393617,7.56382979 C19.7324121,7.78532431 19.7818291,8.00495547 19.8829787,8.20212766 C19.9838379,8.37689755 20.1196429,8.5289991 20.2819149,8.64893617 C20.4813584,8.78869727 20.6953766,8.90640729 20.9202128,9 L21.7659574,9.35106383 C22.1526467,9.49445192 22.5309111,9.65960961 22.8989362,9.84574468 C23.2073213,10.0034335 23.4964697,10.1961991 23.7606383,10.4202128 C23.9959123,10.6295958 24.185963,10.8848067 24.3191489,11.1702128 C24.4556898,11.4872954 24.5210541,11.8304575 24.5106383,12.1755319 C24.5167864,12.6063662 24.4065253,13.0308715 24.1914894,13.4042553 C23.9833286,13.7503233 23.6996715,14.0448903 23.3617021,14.2659574 C22.991504,14.5113397 22.5809764,14.6895951 22.1489362,14.7925532 C21.6783894,14.9034076 21.1961698,14.9569875 20.712766,14.9521277 C19.8421777,14.9610242 18.9824462,14.7584123 18.2074468,14.3617021 Z" id="Shape"></path>
                    <polygon id="Shape" points="34.8510638 14.6808511 32.712766 14.6808511 28.4840426 10.0851064 28.4840426 10.0851064 28.4840426 14.6808511 26.8882979 14.6808511 26.8882979 0.510638298 28.4840426 0.510638298 28.4840426 9.57446809 28.4840426 9.57446809 32.5053191 5.18617021 34.5159574 5.18617021 30.0638298 9.81382979"></polygon>
                    <path d="M35.8404255,14.3617021 L35.8404255,12.7659574 C36.6337845,13.369725 37.6040979,13.6950324 38.6010638,13.6914894 C39.9574468,13.6914894 40.6276596,13.2446809 40.6276596,12.3510638 C40.6324789,12.1207332 40.5715929,11.8937945 40.4521277,11.6968085 C40.3315004,11.5122384 40.1739318,11.3546698 39.9893617,11.2340426 C39.7701042,11.0809686 39.5346394,10.9525333 39.287234,10.8510638 L38.4414894,10.5159574 C38.0569558,10.3737903 37.683577,10.2031028 37.3244681,10.0053191 C37.0306878,9.84788308 36.7573636,9.65494836 36.5106383,9.43085106 C36.3078188,9.21726627 36.1455971,8.96852633 36.0319149,8.69680851 C35.9155567,8.38590392 35.8613409,8.05518716 35.8723404,7.72340426 C35.8602609,7.30909777 35.9653526,6.89979324 36.1755319,6.54255319 C36.3813906,6.195516 36.6588259,5.89632112 36.9893617,5.66489362 C37.35504,5.43243131 37.7529124,5.25500172 38.1702128,5.13829787 C39.3633684,4.83543675 40.6223458,4.92496403 41.7606383,5.39361702 L41.7606383,6.9893617 C41.0336714,6.52178077 40.1832647,6.28277758 39.3191489,6.30319149 C39.0606286,6.29949466 38.8028473,6.33171732 38.5531915,6.39893617 C38.3418136,6.45352205 38.1418716,6.5453873 37.962766,6.67021277 C37.8018352,6.78516522 37.6660816,6.93177911 37.5638298,7.10106383 C37.4802783,7.26974839 37.4366015,7.45537477 37.4361702,7.64361702 C37.4344145,7.86289433 37.4778717,8.08018033 37.5638298,8.28191489 C37.6694414,8.45319486 37.8044979,8.60445812 37.962766,8.7287234 C38.1642861,8.86512001 38.3779571,8.98263904 38.6010638,9.07978723 L39.462766,9.43085106 C39.8494552,9.57423915 40.2277196,9.73939684 40.5957447,9.92553191 C40.9041298,10.0832208 41.1932782,10.2759864 41.4574468,10.5 C41.6883251,10.7096939 41.8730856,10.9650982 42,11.25 C42.1365409,11.5670826 42.2019051,11.9102448 42.1914894,12.2553191 C42.2032871,12.6847632 42.0985114,13.1093804 41.8882979,13.4840426 C41.6788386,13.8343833 41.388918,14.1297741 41.0425532,14.3457447 C40.6780198,14.5908935 40.2727643,14.7692059 39.8457447,14.8723404 C39.3750414,14.9822856 38.8929315,15.0358534 38.4095745,15.0319149 C37.5109886,15.0240754 36.6283309,14.7938168 35.8404255,14.3617021 Z" id="Shape"></path>
                </g>
                <g id="Group" transform="translate(261.702128, 105.319149)">
                    <path d="M12.287234,14.6808511 L10.356383,14.6808511 L3.46276596,3.9893617 C3.28798578,3.73009507 3.14342956,3.4516905 3.03191489,3.15957447 C3.0813958,3.77027596 3.0813958,4.38397936 3.03191489,4.99468085 L3.03191489,14.6808511 L1.43617021,14.6808511 L1.43617021,1.27659574 L3.46276596,1.27659574 L10.1808511,11.7925532 C10.3781686,12.0801113 10.5593007,12.3784465 10.7234043,12.6861702 C10.6603575,12.0339058 10.6337204,11.3786339 10.643617,10.7234043 L10.643617,1.27659574 L12.2393617,1.27659574 L12.287234,14.6808511 Z" id="Shape"></path>
                    <path d="M19.5957447,14.9042553 C18.328633,14.9597165 17.0980164,14.4721136 16.212766,13.5638298 C15.3344008,12.5925484 14.8755355,11.3134614 14.9361702,10.0053191 C14.8574765,8.62356095 15.3343371,7.26766829 16.2606383,6.2393617 C17.2081977,5.31458764 18.4964456,4.82355144 19.8191489,4.88297872 C21.0760162,4.81374803 22.3003015,5.29763223 23.1702128,6.20744681 C24.7996746,8.38922344 24.7604034,11.3934768 23.0744681,13.5319149 C22.1629911,14.4635155 20.8977666,14.9626408 19.5957447,14.9042553 Z M19.7074468,6.17553191 C18.8182299,6.13810026 17.9604815,6.50822458 17.3776596,7.18085106 C16.7636416,7.97148299 16.4574501,8.9581001 16.5159574,9.95744681 C16.4617644,10.9268795 16.7687673,11.8819997 17.3776596,12.6382979 C17.970646,13.2933844 18.8246734,13.650204 19.7074468,13.6117021 C20.5795035,13.6606627 21.4260323,13.3079424 22.0053191,12.6542553 C22.584232,11.8609012 22.8665747,10.8896425 22.8031915,9.90957447 C22.866286,8.92458516 22.5841509,7.94839765 22.0053191,7.14893617 C21.4334962,6.48329733 20.5834132,6.12319275 19.7074468,6.17553191 Z" id="Shape"></path>
                    <path d="M34.9946809,14.6808511 L33.3989362,14.6808511 L33.3989362,13.0851064 C32.7559814,14.2884766 31.4740492,15.0103414 30.1117021,14.9361702 C29.004362,14.9747749 27.9402553,14.5044514 27.2234043,13.6595745 C26.4601564,12.6541081 26.0810108,11.4091525 26.1542553,10.1489362 C26.0833563,8.78023 26.5082687,7.43184117 27.3510638,6.35106383 C28.130831,5.39836991 29.3123754,4.86667495 30.5425532,4.91489362 C31.7293014,4.84098692 32.8506833,5.46397686 33.4148936,6.5106383 L33.4148936,0.510638298 L35.0106383,0.510638298 L34.9946809,14.6808511 Z M33.3989362,10.356383 L33.3989362,8.93617021 C33.41314,8.20638157 33.1377403,7.50066984 32.6329787,6.97340426 C32.1242327,6.44681408 31.4181485,6.15743528 30.6861702,6.17553191 C29.8251622,6.13725088 28.9988,6.51773419 28.4680851,7.19680851 C27.8960863,8.02968343 27.6155661,9.02833512 27.6702128,10.037234 C27.6156271,10.971856 27.8862709,11.8965558 28.4361702,12.6542553 C28.9603193,13.2512118 29.716227,13.5934365 30.5106383,13.5934365 C31.3050496,13.5934365 32.0609573,13.2512118 32.5851064,12.6542553 C33.1744194,12.0337455 33.5053499,11.2121249 33.5106383,10.356383 L33.3989362,10.356383 Z" id="Shape"></path>
                    <path d="M45.7819149,10.2765957 L39.0319149,10.2765957 C38.983433,11.1870179 39.2926602,12.0803411 39.893617,12.7659574 C40.4907193,13.3643797 41.3157172,13.6781113 42.1595745,13.6276596 C43.2394033,13.6213959 44.2853971,13.2502368 45.1276596,12.5744681 L45.1276596,14.0106383 C44.1392165,14.6568875 42.9722307,14.9751564 41.7925532,14.9202128 C40.5861735,14.9856135 39.414315,14.5051515 38.6010638,13.6117021 C37.0062352,11.4226025 37.0517822,8.44252975 38.712766,6.30319149 C39.5092059,5.37616517 40.6827135,4.85982185 41.9042553,4.89893617 C43.0073837,4.83474454 44.0786248,5.28207599 44.8085106,6.11170213 C45.5419825,7.08123 45.904252,8.28124758 45.8297872,9.49468085 L45.7819149,10.2765957 Z M44.1861702,8.98404255 C44.2222905,8.23921807 43.9964569,7.505259 43.5478723,6.90957447 C43.1055002,6.40976453 42.459036,6.13942494 41.7925532,6.17553191 C41.0970235,6.16094015 40.4287104,6.44569966 39.9574468,6.95744681 C39.4241774,7.5075601 39.0924086,8.22170658 39.0159574,8.98404255 L44.1861702,8.98404255 Z" id="Shape"></path>
                </g>
                <g id="Group" transform="translate(381.382979, 105.319149)">
                    <path d="M12.287234,14.6808511 L10.356383,14.6808511 L3.46276596,3.9893617 C3.28798578,3.73009507 3.14342956,3.4516905 3.03191489,3.15957447 C3.10799486,3.76812068 3.13467778,4.38182787 3.11170213,4.99468085 L3.11170213,14.6808511 L1.51595745,14.6808511 L1.51595745,1.27659574 L3.54255319,1.27659574 L10.2606383,11.7925532 C10.4579558,12.0801113 10.6390879,12.3784465 10.8031915,12.6861702 C10.7667499,12.0324223 10.7667499,11.3771521 10.8031915,10.7234043 L10.8031915,1.27659574 L12.3989362,1.27659574 L12.287234,14.6808511 Z" id="Shape"></path>
                    <path d="M19.5957447,14.9042553 C18.328633,14.9597165 17.0980164,14.4721136 16.212766,13.5638298 C15.3344008,12.5925484 14.8755355,11.3134614 14.9361702,10.0053191 C14.8574765,8.62356095 15.3343371,7.26766829 16.2606383,6.2393617 C17.2081977,5.31458764 18.4964456,4.82355144 19.8191489,4.88297872 C21.0760162,4.81374803 22.3003015,5.29763223 23.1702128,6.20744681 C24.7996746,8.38922344 24.7604034,11.3934768 23.0744681,13.5319149 C22.1629911,14.4635155 20.8977666,14.9626408 19.5957447,14.9042553 Z M19.7074468,6.17553191 C18.8182299,6.13810026 17.9604815,6.50822458 17.3776596,7.18085106 C16.7636416,7.97148299 16.4574501,8.9581001 16.5159574,9.95744681 C16.4617644,10.9268795 16.7687673,11.8819997 17.3776596,12.6382979 C17.970646,13.2933844 18.8246734,13.650204 19.7074468,13.6117021 C20.5795035,13.6606627 21.4260323,13.3079424 22.0053191,12.6542553 C22.584232,11.8609012 22.8665747,10.8896425 22.8031915,9.90957447 C22.866286,8.92458516 22.5841509,7.94839765 22.0053191,7.14893617 C21.4334962,6.48329733 20.5834132,6.12319275 19.7074468,6.17553191 Z" id="Shape"></path>
                    <path d="M34.9946809,14.6808511 L33.3989362,14.6808511 L33.3989362,13.0851064 C32.7559814,14.2884766 31.4740492,15.0103414 30.1117021,14.9361702 C29.004362,14.9747749 27.9402553,14.5044514 27.2234043,13.6595745 C26.4601564,12.6541081 26.0810108,11.4091525 26.1542553,10.1489362 C26.0833563,8.78023 26.5082687,7.43184117 27.3510638,6.35106383 C28.130831,5.39836991 29.3123754,4.86667495 30.5425532,4.91489362 C31.7293014,4.84098692 32.8506833,5.46397686 33.4148936,6.5106383 L33.4148936,0.510638298 L35.0106383,0.510638298 L34.9946809,14.6808511 Z M33.3989362,10.356383 L33.3989362,8.93617021 C33.41314,8.20638157 33.1377403,7.50066984 32.6329787,6.97340426 C32.1242327,6.44681408 31.4181485,6.15743528 30.6861702,6.17553191 C29.8251622,6.13725088 28.9988,6.51773419 28.4680851,7.19680851 C27.8960863,8.02968343 27.6155661,9.02833512 27.6702128,10.037234 C27.6156271,10.971856 27.8862709,11.8965558 28.4361702,12.6542553 C28.9603193,13.2512118 29.716227,13.5934365 30.5106383,13.5934365 C31.3050496,13.5934365 32.0609573,13.2512118 32.5851064,12.6542553 C33.1744194,12.0337455 33.5053499,11.2121249 33.5106383,10.356383 L33.3989362,10.356383 Z" id="Shape"></path>
                    <path d="M45.7819149,10.2765957 L39.0319149,10.2765957 C38.983433,11.1870179 39.2926602,12.0803411 39.893617,12.7659574 C40.4907193,13.3643797 41.3157172,13.6781113 42.1595745,13.6276596 C43.2394033,13.6213959 44.2853971,13.2502368 45.1276596,12.5744681 L45.1276596,14.0106383 C44.1392165,14.6568875 42.9722307,14.9751564 41.7925532,14.9202128 C40.5861735,14.9856135 39.414315,14.5051515 38.6010638,13.6117021 C37.0062352,11.4226025 37.0517822,8.44252975 38.712766,6.30319149 C39.5092059,5.37616517 40.6827135,4.85982185 41.9042553,4.89893617 C43.0073837,4.83474454 44.0786248,5.28207599 44.8085106,6.11170213 C45.5419825,7.08123 45.904252,8.28124758 45.8297872,9.49468085 L45.7819149,10.2765957 Z M44.1861702,8.98404255 C44.2222905,8.23921807 43.9964569,7.505259 43.5478723,6.90957447 C43.1055002,6.40976453 42.459036,6.13942494 41.7925532,6.17553191 C41.0970235,6.16094015 40.4287104,6.44569966 39.9574468,6.95744681 C39.4241774,7.5075601 39.0924086,8.22170658 39.0159574,8.98404255 L44.1861702,8.98404255 Z" id="Shape"></path>
                </g>
                <g id="Group" transform="translate(501.063830, 105.319149)">
                    <path d="M12.287234,14.6808511 L10.356383,14.6808511 L3.46276596,3.9893617 C3.28798578,3.73009507 3.14342956,3.4516905 3.03191489,3.15957447 C3.10799486,3.76812068 3.13467778,4.38182787 3.11170213,4.99468085 L3.11170213,14.6808511 L1.51595745,14.6808511 L1.51595745,1.27659574 L3.54255319,1.27659574 L10.2606383,11.7925532 C10.4579558,12.0801113 10.6390879,12.3784465 10.8031915,12.6861702 C10.7667499,12.0324223 10.7667499,11.3771521 10.8031915,10.7234043 L10.8031915,1.27659574 L12.3989362,1.27659574 L12.287234,14.6808511 Z" id="Shape"></path>
                    <path d="M19.5957447,14.9042553 C18.328633,14.9597165 17.0980164,14.4721136 16.212766,13.5638298 C15.3344008,12.5925484 14.8755355,11.3134614 14.9361702,10.0053191 C14.8574765,8.62356095 15.3343371,7.26766829 16.2606383,6.2393617 C17.2081977,5.31458764 18.4964456,4.82355144 19.8191489,4.88297872 C21.0760162,4.81374803 22.3003015,5.29763223 23.1702128,6.20744681 C24.7996746,8.38922344 24.7604034,11.3934768 23.0744681,13.5319149 C22.1629911,14.4635155 20.8977666,14.9626408 19.5957447,14.9042553 Z M19.7074468,6.17553191 C18.8182299,6.13810026 17.9604815,6.50822458 17.3776596,7.18085106 C16.7636416,7.97148299 16.4574501,8.9581001 16.5159574,9.95744681 C16.4617644,10.9268795 16.7687673,11.8819997 17.3776596,12.6382979 C17.970646,13.2933844 18.8246734,13.650204 19.7074468,13.6117021 C20.5795035,13.6606627 21.4260323,13.3079424 22.0053191,12.6542553 C22.584232,11.8609012 22.8665747,10.8896425 22.8031915,9.90957447 C22.866286,8.92458516 22.5841509,7.94839765 22.0053191,7.14893617 C21.4334962,6.48329733 20.5834132,6.12319275 19.7074468,6.17553191 Z" id="Shape"></path>
                    <path d="M34.9946809,14.6808511 L33.3989362,14.6808511 L33.3989362,13.0851064 C32.7559814,14.2884766 31.4740492,15.0103414 30.1117021,14.9361702 C29.004362,14.9747749 27.9402553,14.5044514 27.2234043,13.6595745 C26.4601564,12.6541081 26.0810108,11.4091525 26.1542553,10.1489362 C26.0833563,8.78023 26.5082687,7.43184117 27.3510638,6.35106383 C28.130831,5.39836991 29.3123754,4.86667495 30.5425532,4.91489362 C31.7293014,4.84098692 32.8506833,5.46397686 33.4148936,6.5106383 L33.4148936,0.510638298 L35.0106383,0.510638298 L34.9946809,14.6808511 Z M33.3989362,10.356383 L33.3989362,8.93617021 C33.41314,8.20638157 33.1377403,7.50066984 32.6329787,6.97340426 C32.1242327,6.44681408 31.4181485,6.15743528 30.6861702,6.17553191 C29.8251622,6.13725088 28.9988,6.51773419 28.4680851,7.19680851 C27.8960863,8.02968343 27.6155661,9.02833512 27.6702128,10.037234 C27.6156271,10.971856 27.8862709,11.8965558 28.4361702,12.6542553 C28.9603193,13.2512118 29.716227,13.5934365 30.5106383,13.5934365 C31.3050496,13.5934365 32.0609573,13.2512118 32.5851064,12.6542553 C33.1744194,12.0337455 33.5053499,11.2121249 33.5106383,10.356383 L33.3989362,10.356383 Z" id="Shape"></path>
                    <path d="M45.7819149,10.2765957 L39.0319149,10.2765957 C38.983433,11.1870179 39.2926602,12.0803411 39.893617,12.7659574 C40.4907193,13.3643797 41.3157172,13.6781113 42.1595745,13.6276596 C43.2394033,13.6213959 44.2853971,13.2502368 45.1276596,12.5744681 L45.1276596,14.0106383 C44.1392165,14.6568875 42.9722307,14.9751564 41.7925532,14.9202128 C40.5861735,14.9856135 39.414315,14.5051515 38.6010638,13.6117021 C37.0062352,11.4226025 37.0517822,8.44252975 38.712766,6.30319149 C39.5092059,5.37616517 40.6827135,4.85982185 41.9042553,4.89893617 C43.0073837,4.83474454 44.0786248,5.28207599 44.8085106,6.11170213 C45.5419825,7.08123 45.904252,8.28124758 45.8297872,9.49468085 L45.7819149,10.2765957 Z M44.1861702,8.98404255 C44.2222905,8.23921807 43.9964569,7.505259 43.5478723,6.90957447 C43.1055002,6.40976453 42.459036,6.13942494 41.7925532,6.17553191 C41.0970235,6.16094015 40.4287104,6.44569966 39.9574468,6.95744681 C39.4241774,7.5075601 39.0924086,8.22170658 39.0159574,8.98404255 L44.1861702,8.98404255 Z" id="Shape"></path>
                </g>
                <g id="Group" transform="translate(121.276596, 0.000000)">
                    <path d="M14.4893617,14.6808511 L12.893617,14.6808511 L12.893617,5.68085106 C12.893617,4.9787234 12.893617,4.08510638 13.0212766,3.07978723 C12.9212646,3.52200256 12.7824283,3.95453085 12.606383,4.37234043 L7.9787234,14.6808511 L7.21276596,14.6808511 L2.69680851,4.45212766 C2.51347627,4.00952392 2.37449805,3.54982674 2.28191489,3.07978723 C2.28191489,3.62234043 2.28191489,4.48404255 2.28191489,5.71276596 L2.28191489,14.6808511 L0.765957447,14.6808511 L0.765957447,1.27659574 L2.84042553,1.27659574 L6.95744681,10.6276596 C7.20668458,11.1404584 7.40961863,11.6744953 7.56382979,12.2234043 C7.83510638,11.4893617 8.04255319,10.9308511 8.20212766,10.6276596 L12.3989362,1.32446809 L14.3776596,1.32446809 L14.4893617,14.6808511 Z" id="Shape"></path>
                    <path d="M24.6542553,14.6808511 L23.0585106,14.6808511 L23.0585106,13.1808511 C22.4910103,14.2783144 21.3410582,14.9496378 20.106383,14.9042553 C19.2932918,14.948411 18.4940737,14.6801021 17.8723404,14.1542553 C17.3247743,13.6321053 17.0282965,12.8996305 17.0585106,12.143617 C17.0585106,10.356383 18.1117021,9.30319149 20.25,8.95212766 L23.1223404,8.55319149 C23.1223404,6.95744681 22.4680851,6.11170213 21.143617,6.11170213 C19.9710694,6.10117036 18.8354352,6.52135503 17.9521277,7.29255319 L17.9521277,5.69680851 C18.9106078,5.10440276 20.0168714,4.79464896 21.143617,4.80319149 C23.4095745,4.80319149 24.5265957,6 24.5265957,8.37765957 L24.6542553,14.6808511 Z M23.0585106,9.89361702 L20.7446809,10.212766 C20.1797798,10.265327 19.6341681,10.4453789 19.1489362,10.7393617 C18.7643966,11.0738843 18.5627894,11.5719726 18.606383,12.0797872 C18.5959285,12.5153519 18.7837646,12.9321133 19.1170213,13.212766 C19.4856425,13.5246848 19.9592488,13.6844556 20.4414894,13.6595745 C21.1777552,13.6674824 21.8772276,13.338319 22.3404255,12.7659574 C22.8476612,12.2156187 23.1171884,11.487322 23.0904255,10.7393617 L23.0585106,9.89361702 Z" id="Shape"></path>
                    <path d="M26.9680851,14.3617021 L26.9680851,12.7659574 C27.7603043,13.3718741 28.7313714,13.6974342 29.7287234,13.6914894 C31.0691489,13.6914894 31.7393617,13.2446809 31.7393617,12.3510638 C31.7521656,12.1198352 31.6906567,11.8905752 31.5638298,11.6968085 C31.4432025,11.5122384 31.285634,11.3546698 31.1010638,11.2340426 C30.8874662,11.0809918 30.657288,10.9525203 30.4148936,10.8510638 L29.5531915,10.5159574 C29.1686579,10.3737903 28.7952791,10.2031028 28.4361702,10.0053191 C28.1448043,9.85184558 27.8762613,9.65849462 27.6382979,9.43085106 C27.4102609,9.20046455 27.2358988,8.92257501 27.1276596,8.61702128 C27.0113014,8.30611669 26.9570856,7.97539992 26.9680851,7.64361702 C26.9560056,7.22931053 27.0610973,6.82000601 27.2712766,6.46276596 C27.4784026,6.11157248 27.7620275,5.8115846 28.1010638,5.58510638 C28.4611289,5.35283299 28.8537154,5.17536237 29.2659574,5.05851064 C29.71433,4.94318575 30.1753332,4.88422022 30.6382979,4.88297872 C31.3996617,4.86981523 32.1553121,5.01659626 32.856383,5.31382979 L32.856383,6.90957447 C32.1343553,6.44416481 31.2896871,6.20521262 30.4308511,6.22340426 C30.1671374,6.22081181 29.9042331,6.25300417 29.6489362,6.31914894 C29.4387216,6.37696547 29.2393098,6.46858711 29.0585106,6.59042553 C28.9057539,6.7096021 28.7759772,6.85560088 28.6755319,7.0212766 C28.5801988,7.18611152 28.5306181,7.37341634 28.5319149,7.56382979 C28.5249653,7.78532431 28.5743823,8.00495547 28.6755319,8.20212766 C28.7811435,8.37340763 28.9162,8.52467089 29.0744681,8.64893617 C29.2739116,8.78869727 29.4879298,8.90640729 29.712766,9 L30.5585106,9.35106383 C30.9451999,9.49445192 31.3234643,9.65960961 31.6914894,9.84574468 C31.9998745,10.0034335 32.2890229,10.1961991 32.5531915,10.4202128 C32.7884655,10.6295958 32.9785162,10.8848067 33.1117021,11.1702128 C33.248243,11.4872954 33.3136073,11.8304575 33.3031915,12.1755319 C33.3093396,12.6063662 33.1990785,13.0308715 32.9840426,13.4042553 C32.7758818,13.7503233 32.4922247,14.0448903 32.1542553,14.2659574 C31.7840572,14.5113397 31.3735296,14.6895951 30.9414894,14.7925532 C30.4709426,14.9034076 29.988723,14.9569875 29.5053191,14.9521277 C28.623967,14.9662355 27.7526592,14.7634783 26.9680851,14.3617021 Z" id="Shape"></path>
                    <path d="M40.1170213,14.5851064 C39.6721551,14.8074732 39.177638,14.9118713 38.6808511,14.8882979 C37.0851064,14.8882979 36.1595745,13.9468085 36.1595745,12.0797872 L36.1595745,6.38297872 L34.5638298,6.38297872 L34.5638298,5.10638298 L36.1595745,5.10638298 L36.1595745,2.77659574 L37.7553191,2.28191489 L37.7553191,5.10638298 L40.1808511,5.10638298 L40.1808511,6.38297872 L37.7553191,6.38297872 L37.7553191,11.8085106 C37.712074,12.2904369 37.829932,12.7730935 38.0904255,13.1808511 C38.3646033,13.4852482 38.7682108,13.6395687 39.1755319,13.5957447 C39.5371262,13.6063885 39.891607,13.493855 40.1808511,13.2765957 L40.1170213,14.5851064 Z" id="Shape"></path>
                    <path d="M49.8510638,10.2765957 L43.0851064,10.2765957 C43.0513103,11.184888 43.3587114,12.0729359 43.9468085,12.7659574 C44.5472708,13.3591739 45.3698569,13.6719883 46.212766,13.6276596 C47.2980739,13.6250006 48.350269,13.2536377 49.1968085,12.5744681 L49.1968085,14.0106383 C48.2034342,14.6591352 47.0306768,14.977455 45.8457447,14.9202128 C44.6389753,14.9879252 43.4661612,14.5070714 42.6542553,13.6117021 C41.8179583,12.5784648 41.4019933,11.2678901 41.4893617,9.94148936 C41.4320081,8.61259692 41.8827514,7.31171737 42.75,6.30319149 C43.5478445,5.37806231 44.7203973,4.86213908 45.9414894,4.89893617 C47.0496752,4.8321602 48.1268565,5.27951418 48.8617021,6.11170213 C49.595174,7.08123 49.9574435,8.28124758 49.8829787,9.49468085 L49.8510638,10.2765957 Z M48.2553191,8.98404255 C48.2914394,8.23921807 48.0656059,7.505259 47.6170213,6.90957447 C47.1746492,6.40976453 46.5281849,6.13942494 45.8617021,6.17553191 C45.1614455,6.16046625 44.4880345,6.44492435 44.0106383,6.95744681 C43.4882995,7.51324802 43.1631041,8.22531392 43.0851064,8.98404255 L48.2553191,8.98404255 Z" id="Shape"></path>
                    <path d="M57.1595745,6.65425532 C56.8174007,6.43862281 56.4131248,6.34316878 56.0106383,6.38297872 C55.3562151,6.40101392 54.7555072,6.7494245 54.4148936,7.30851064 C53.9359402,8.05871937 53.7069034,8.94134925 53.7606383,9.82978723 L53.7606383,14.6808511 L52.1648936,14.6808511 L52.1648936,5.10638298 L53.7606383,5.10638298 L53.7606383,7.08510638 C53.9352321,6.46754479 54.284298,5.9134719 54.7659574,5.4893617 C55.1790177,5.12298863 55.7138715,4.92384095 56.2659574,4.93085106 C56.5746505,4.91175837 56.8840212,4.95517882 57.1755319,5.05851064 L57.1595745,6.65425532 Z" id="Shape"></path>
                </g>
            </g>
        </g>
    </g>
</svg>