<svg xmlns="http://www.w3.org/2000/svg" xmlns:xlink="http://www.w3.org/1999/xlink" viewBox="0 0 730.25 165.45">
  <defs>
    <linearGradient id="linear-gradient" x1="75" y1="395.31" x2="75" y2="417.37" gradientTransform="matrix(1, 0, 0, -1, 0, 534.4)" gradientUnits="userSpaceOnUse">
      <stop offset="0" stop-color="#32bedd"/>
      <stop offset="0.18" stop-color="#32caea"/>
      <stop offset="0.41" stop-color="#32d2f2"/>
      <stop offset="0.78" stop-color="#32d4f5"/>
    </linearGradient>
    <linearGradient id="linear-gradient-2" x1="220" y1="395.31" x2="220" y2="417.37" xlink:href="#linear-gradient"/>
    <linearGradient id="linear-gradient-3" x1="365" y1="395.31" x2="365" y2="417.37" xlink:href="#linear-gradient"/>
    <linearGradient id="linear-gradient-4" x1="510" y1="395.31" x2="510" y2="417.37" xlink:href="#linear-gradient"/>
    <linearGradient id="linear-gradient-5" x1="655" y1="395.31" x2="655" y2="417.37" xlink:href="#linear-gradient"/>
  </defs>
  <g id="Shapes">
    <rect width="730.25" height="165.45" fill="#fff"/>
    <g>
      <rect x="0.42" y="15.33" width="729.46" height="149.75" fill="#fff"/>
      <rect x="0.42" y="15.33" width="729.46" height="149.75" fill="#83b9f9" opacity="0.15"/>
      <path d="M729.75,15.45V165H.54V15.45H729.75m.25-.25H.29v150H730V15.2Z" fill="#fff"/>
      <path d="M730,15.2v150H.29V15.2H730m.25-.25H0v150.5H730.25V15Z" fill="#0078d4"/>
    </g>
    <g>
      <rect x="5" y="20.2" width="140" height="140" fill="#fff"/>
      <rect x="5" y="20.2" width="140" height="140" fill="#37c2b1" opacity="0.2"/>
      <rect x="5" y="20.2" width="140" height="140" fill="none" stroke="#258277" stroke-width="0.5"/>
    </g>
    <g>
      <rect x="20" y="80.2" width="110" height="70" fill="#fff"/>
      <rect x="20" y="80.2" width="110" height="70" fill="#3c3c41" opacity="0.15"/>
    </g>
    <g>
      <path d="M56.35,117h37.3v20.81a1.25,1.25,0,0,1-1.25,1.25H57.6a1.25,1.25,0,0,1-1.25-1.25Z" fill="url(#linear-gradient)"/>
      <path d="M57.6,109.09H92.4a1.25,1.25,0,0,1,1.25,1.25V117H56.35v-6.71A1.25,1.25,0,0,1,57.6,109.09Z" fill="#767676"/>
      <circle cx="83.38" cy="126.69" r="3.03" fill="#f2f2f2"/>
      <circle cx="75.13" cy="126.69" r="3.03" fill="#f2f2f2"/>
      <circle cx="66.62" cy="126.69" r="3.03" fill="#f2f2f2"/>
      <rect x="61.37" y="111.46" width="27.28" height="3.2" rx="0.61" fill="#f2f2f2"/>
    </g>
    <g>
      <rect x="150" y="20.2" width="140" height="140" fill="#fff"/>
      <rect x="150" y="20.2" width="140" height="140" fill="#37c2b1" opacity="0.2"/>
      <rect x="150" y="20.2" width="140" height="140" fill="none" stroke="#258277" stroke-width="0.5"/>
    </g>
    <g>
      <rect x="165" y="80.2" width="110" height="70" fill="#fff"/>
      <rect x="165" y="80.2" width="110" height="70" fill="#3c3c41" opacity="0.15"/>
    </g>
    <g>
      <path d="M201.35,117h37.3v20.81a1.25,1.25,0,0,1-1.25,1.25H202.6a1.25,1.25,0,0,1-1.25-1.25Z" fill="url(#linear-gradient-2)"/>
      <path d="M202.6,109.09h34.8a1.25,1.25,0,0,1,1.25,1.25V117h-37.3v-6.71A1.25,1.25,0,0,1,202.6,109.09Z" fill="#767676"/>
      <circle cx="228.38" cy="126.69" r="3.03" fill="#f2f2f2"/>
      <circle cx="220.13" cy="126.69" r="3.03" fill="#f2f2f2"/>
      <circle cx="211.62" cy="126.69" r="3.03" fill="#f2f2f2"/>
      <rect x="206.37" y="111.46" width="27.28" height="3.2" rx="0.61" fill="#f2f2f2"/>
    </g>
    <g>
      <rect x="295" y="20.2" width="140" height="140" fill="#fff"/>
      <rect x="295" y="20.2" width="140" height="140" fill="#37c2b1" opacity="0.2"/>
      <rect x="295" y="20.2" width="140" height="140" fill="none" stroke="#258277" stroke-width="0.5"/>
    </g>
    <g>
      <rect x="310" y="80.2" width="110" height="70" fill="#fff"/>
      <rect x="310" y="80.2" width="110" height="70" fill="#3c3c41" opacity="0.15"/>
    </g>
    <g>
      <path d="M346.35,117h37.3v20.81a1.25,1.25,0,0,1-1.25,1.25H347.6a1.25,1.25,0,0,1-1.25-1.25Z" fill="url(#linear-gradient-3)"/>
      <path d="M347.6,109.09h34.8a1.25,1.25,0,0,1,1.25,1.25V117h-37.3v-6.71A1.25,1.25,0,0,1,347.6,109.09Z" fill="#767676"/>
      <circle cx="373.38" cy="126.69" r="3.03" fill="#f2f2f2"/>
      <circle cx="365.13" cy="126.69" r="3.03" fill="#f2f2f2"/>
      <circle cx="356.62" cy="126.69" r="3.03" fill="#f2f2f2"/>
      <rect x="351.37" y="111.46" width="27.28" height="3.2" rx="0.61" fill="#f2f2f2"/>
    </g>
    <g>
      <rect x="440" y="20.2" width="140" height="140" fill="#fff"/>
      <rect x="440" y="20.2" width="140" height="140" fill="#37c2b1" opacity="0.2"/>
      <rect x="440" y="20.2" width="140" height="140" fill="none" stroke="#258277" stroke-width="0.5"/>
    </g>
    <g>
      <rect x="455" y="80.2" width="110" height="70" fill="#fff"/>
      <rect x="455" y="80.2" width="110" height="70" fill="#3c3c41" opacity="0.15"/>
    </g>
    <g>
      <path d="M491.35,117h37.3v20.81a1.25,1.25,0,0,1-1.25,1.25H492.6a1.25,1.25,0,0,1-1.25-1.25Z" fill="url(#linear-gradient-4)"/>
      <path d="M492.6,109.09h34.8a1.25,1.25,0,0,1,1.25,1.25V117h-37.3v-6.71A1.25,1.25,0,0,1,492.6,109.09Z" fill="#767676"/>
      <circle cx="518.38" cy="126.69" r="3.03" fill="#f2f2f2"/>
      <circle cx="510.13" cy="126.69" r="3.03" fill="#f2f2f2"/>
      <circle cx="501.62" cy="126.69" r="3.03" fill="#f2f2f2"/>
      <rect x="496.37" y="111.46" width="27.28" height="3.2" rx="0.61" fill="#f2f2f2"/>
    </g>
    <g>
      <rect x="585" y="20.2" width="140" height="140" fill="#fff"/>
      <rect x="585" y="20.2" width="140" height="140" fill="#37c2b1" opacity="0.2"/>
      <rect x="585" y="20.2" width="140" height="140" fill="none" stroke="#258277" stroke-width="0.5"/>
    </g>
    <g>
      <rect x="600" y="80.2" width="110" height="70" fill="#fff"/>
      <rect x="600" y="80.2" width="110" height="70" fill="#3c3c41" opacity="0.15"/>
    </g>
    <g>
      <path d="M636.35,117h37.3v20.81a1.25,1.25,0,0,1-1.25,1.25H637.6a1.25,1.25,0,0,1-1.25-1.25Z" fill="url(#linear-gradient-5)"/>
      <path d="M637.6,109.09h34.8a1.25,1.25,0,0,1,1.25,1.25V117h-37.3v-6.71A1.25,1.25,0,0,1,637.6,109.09Z" fill="#767676"/>
      <circle cx="663.38" cy="126.69" r="3.03" fill="#f2f2f2"/>
      <circle cx="655.13" cy="126.69" r="3.03" fill="#f2f2f2"/>
      <circle cx="646.62" cy="126.69" r="3.03" fill="#f2f2f2"/>
      <rect x="641.37" y="111.46" width="27.28" height="3.2" rx="0.61" fill="#f2f2f2"/>
    </g>
  </g>
  <g id="Text">
    <g>
      <path d="M7,10.2H5.58L2.33,6.36a2.23,2.23,0,0,1-.22-.3h0V10.2h-1V1.8h1v4h0a2.22,2.22,0,0,1,.22-.29L5.47,1.8H6.7l-3.61,4Z" fill="#1e1e1e"/>
      <path d="M12.79,10.2h-1V9.25h0A2,2,0,0,1,10,10.34c-1.43,0-2.15-.85-2.15-2.55V4.2h1V7.63c0,1.27.48,1.9,1.45,1.9A1.46,1.46,0,0,0,11.37,9a2,2,0,0,0,.45-1.35V4.2h1Z" fill="#1e1e1e"/>
      <path d="M15.71,9.33h0v.87h-1V1.32h1V5.26h0a2.26,2.26,0,0,1,2.07-1.2,2.19,2.19,0,0,1,1.81.81A3.28,3.28,0,0,1,20.24,7a3.72,3.72,0,0,1-.73,2.41,2.44,2.44,0,0,1-2,.9A2,2,0,0,1,15.71,9.33Zm0-2.42v.84A1.77,1.77,0,0,0,16.17,9a1.72,1.72,0,0,0,2.59-.14A3.09,3.09,0,0,0,19.26,7a2.41,2.41,0,0,0-.46-1.57,1.54,1.54,0,0,0-1.26-.57,1.68,1.68,0,0,0-1.34.58A2.15,2.15,0,0,0,15.69,6.91Z" fill="#1e1e1e"/>
      <path d="M26.6,7.44H22.37A2.23,2.23,0,0,0,22.9,9a1.88,1.88,0,0,0,1.42.54,3,3,0,0,0,1.87-.66v.9a3.53,3.53,0,0,1-2.1.57,2.51,2.51,0,0,1-2-.82,3.31,3.31,0,0,1-.73-2.3,3.28,3.28,0,0,1,.79-2.28,2.54,2.54,0,0,1,2-.88A2.26,2.26,0,0,1,26,4.82a3.19,3.19,0,0,1,.64,2.12Zm-1-.81a2,2,0,0,0-.4-1.3,1.37,1.37,0,0,0-1.1-.46A1.54,1.54,0,0,0,23,5.36a2.18,2.18,0,0,0-.58,1.27Z" fill="#1e1e1e"/>
      <path d="M31.18,5.17A1.14,1.14,0,0,0,30.46,5a1.21,1.21,0,0,0-1,.58A2.64,2.64,0,0,0,29,7.14V10.2h-1v-6h1V5.44h0a2.09,2.09,0,0,1,.63-1,1.39,1.39,0,0,1,.94-.35,1.44,1.44,0,0,1,.57.08Z" fill="#1e1e1e"/>
      <path d="M37.21,10.2h-1V6.78c0-1.27-.47-1.91-1.4-1.91a1.5,1.5,0,0,0-1.19.54,2,2,0,0,0-.47,1.37V10.2h-1v-6h1v1h0a2.16,2.16,0,0,1,2-1.14,1.83,1.83,0,0,1,1.51.64,2.85,2.85,0,0,1,.52,1.83Z" fill="#1e1e1e"/>
      <path d="M43.84,7.44H39.6A2.28,2.28,0,0,0,40.14,9a1.88,1.88,0,0,0,1.42.54,2.94,2.94,0,0,0,1.86-.66v.9a3.47,3.47,0,0,1-2.09.57,2.53,2.53,0,0,1-2-.82,3.35,3.35,0,0,1-.72-2.3,3.28,3.28,0,0,1,.79-2.28,2.54,2.54,0,0,1,2-.88,2.26,2.26,0,0,1,1.83.76,3.19,3.19,0,0,1,.64,2.12Zm-1-.81a2,2,0,0,0-.41-1.3,1.35,1.35,0,0,0-1.09-.46,1.54,1.54,0,0,0-1.16.49,2.12,2.12,0,0,0-.58,1.27Z" fill="#1e1e1e"/>
      <path d="M48.08,10.14a1.82,1.82,0,0,1-.9.19c-1,0-1.58-.59-1.58-1.76V5h-1V4.2h1V2.74l1-.31V4.2h1.52V5H46.56V8.4a1.37,1.37,0,0,0,.21.86.8.8,0,0,0,.68.26,1,1,0,0,0,.63-.2Z" fill="#1e1e1e"/>
      <path d="M54.18,7.44H50A2.23,2.23,0,0,0,50.48,9a1.88,1.88,0,0,0,1.42.54,3,3,0,0,0,1.87-.66v.9a3.53,3.53,0,0,1-2.1.57,2.51,2.51,0,0,1-2-.82A3.31,3.31,0,0,1,49,7.22a3.28,3.28,0,0,1,.79-2.28,2.54,2.54,0,0,1,2-.88,2.26,2.26,0,0,1,1.83.76,3.19,3.19,0,0,1,.64,2.12Zm-1-.81a2,2,0,0,0-.4-1.3,1.37,1.37,0,0,0-1.1-.46,1.54,1.54,0,0,0-1.16.49A2.18,2.18,0,0,0,50,6.63Z" fill="#1e1e1e"/>
      <path d="M55.27,10V9A2.82,2.82,0,0,0,57,9.53c.84,0,1.27-.28,1.27-.84a.76.76,0,0,0-.11-.41,1,1,0,0,0-.3-.29,1.94,1.94,0,0,0-.43-.24l-.54-.21a6.6,6.6,0,0,1-.7-.32,2.47,2.47,0,0,1-.5-.36,1.35,1.35,0,0,1-.3-.46,1.58,1.58,0,0,1-.11-.61,1.39,1.39,0,0,1,.2-.74A1.78,1.78,0,0,1,56,4.5a2.77,2.77,0,0,1,.74-.33A3.56,3.56,0,0,1,59,4.33v1a2.68,2.68,0,0,0-1.52-.43,1.88,1.88,0,0,0-.49.06,1.4,1.4,0,0,0-.37.17,1,1,0,0,0-.24.27.77.77,0,0,0-.08.34,1,1,0,0,0,.08.4,1.07,1.07,0,0,0,.25.28,2.11,2.11,0,0,0,.4.22l.53.22a6.21,6.21,0,0,1,.72.31,2.82,2.82,0,0,1,.54.36,1.41,1.41,0,0,1,.34.47,1.48,1.48,0,0,1,.12.63,1.5,1.5,0,0,1-.2.77,1.58,1.58,0,0,1-.52.54,2.28,2.28,0,0,1-.76.33,3.68,3.68,0,0,1-.89.1A3.39,3.39,0,0,1,55.27,10Z" fill="#1e1e1e"/>
      <path d="M70.92,10.2H69.71L65.38,3.5A3.16,3.16,0,0,1,65.12,3h0a8.6,8.6,0,0,1,0,1.15V10.2h-1V1.8h1.28l4.21,6.59c.17.27.29.46.34.56h0a8.58,8.58,0,0,1-.06-1.23V1.8h1Z" fill="#1e1e1e"/>
      <path d="M75.5,10.34a2.79,2.79,0,0,1-2.13-.84,3.1,3.1,0,0,1-.79-2.23,3.25,3.25,0,0,1,.83-2.36,3,3,0,0,1,2.23-.85,2.69,2.69,0,0,1,2.09.83,3.23,3.23,0,0,1,.76,2.29,3.21,3.21,0,0,1-.82,2.3A2.85,2.85,0,0,1,75.5,10.34Zm.07-5.47a1.84,1.84,0,0,0-1.47.63,2.59,2.59,0,0,0-.54,1.74,2.46,2.46,0,0,0,.55,1.68,1.85,1.85,0,0,0,1.46.61A1.75,1.75,0,0,0,77,8.93a2.63,2.63,0,0,0,.5-1.72A2.66,2.66,0,0,0,77,5.48,1.73,1.73,0,0,0,75.57,4.87Z" fill="#1e1e1e"/>
      <path d="M85.14,10.2h-1v-1h0a2.21,2.21,0,0,1-2.06,1.16,2.25,2.25,0,0,1-1.81-.8,3.33,3.33,0,0,1-.68-2.2A3.57,3.57,0,0,1,80.36,5a2.48,2.48,0,0,1,2-.9,1.93,1.93,0,0,1,1.8,1h0V1.32h1Zm-1-2.71V6.6a1.73,1.73,0,0,0-.48-1.23,1.64,1.64,0,0,0-1.22-.5,1.66,1.66,0,0,0-1.38.64,2.81,2.81,0,0,0-.5,1.78,2.54,2.54,0,0,0,.48,1.64,1.57,1.57,0,0,0,1.3.6A1.63,1.63,0,0,0,83.68,9,2.16,2.16,0,0,0,84.18,7.49Z" fill="#1e1e1e"/>
      <path d="M91.91,7.44H87.67A2.28,2.28,0,0,0,88.21,9a1.88,1.88,0,0,0,1.42.54,2.94,2.94,0,0,0,1.86-.66v.9a3.47,3.47,0,0,1-2.09.57,2.53,2.53,0,0,1-2-.82,3.35,3.35,0,0,1-.72-2.3,3.28,3.28,0,0,1,.79-2.28,2.54,2.54,0,0,1,2-.88,2.26,2.26,0,0,1,1.83.76,3.19,3.19,0,0,1,.64,2.12Zm-1-.81a2,2,0,0,0-.41-1.3,1.35,1.35,0,0,0-1.09-.46,1.54,1.54,0,0,0-1.16.49,2.18,2.18,0,0,0-.58,1.27Z" fill="#1e1e1e"/>
    </g>
    <g>
      <path d="M62.24,29.2,60,35.2H57.9l-2.12-6h2l1,3.7A5.19,5.19,0,0,1,59,34h0a7.23,7.23,0,0,1,.21-1l1.07-3.73Z" fill="#1e1e1e"/>
      <path d="M67.13,26.61V35.2H65.29V28.7a3.27,3.27,0,0,1-.36.25,4.71,4.71,0,0,1-.45.22,3.86,3.86,0,0,1-.48.16,3.16,3.16,0,0,1-.5.1V27.87a7.71,7.71,0,0,0,1.36-.54A8,8,0,0,0,66,26.61Z" fill="#1e1e1e"/>
      <path d="M75.32,32.31V35.2H73.43V26.8h3c2.11,0,3.17.89,3.17,2.68a2.55,2.55,0,0,1-.91,2,3.57,3.57,0,0,1-2.43.79Zm0-4.06v2.62h.75c1,0,1.51-.44,1.51-1.32s-.51-1.3-1.51-1.3Z" fill="#1e1e1e"/>
      <path d="M83.12,35.35a3.24,3.24,0,0,1-2.36-.84,3.06,3.06,0,0,1-.86-2.29,3,3,0,0,1,.9-2.32,3.31,3.31,0,0,1,2.4-.85,3.17,3.17,0,0,1,2.35.85,3,3,0,0,1,.85,2.22,3.18,3.18,0,0,1-.88,2.36A3.24,3.24,0,0,1,83.12,35.35Zm0-4.88a1.23,1.23,0,0,0-1,.45,2,2,0,0,0-.36,1.28c0,1.15.46,1.73,1.39,1.73s1.33-.59,1.33-1.78S84.06,30.47,83.17,30.47Z" fill="#1e1e1e"/>
      <path d="M93.47,35.2H91.62v-.82h0a2.08,2.08,0,0,1-1.85,1,2.27,2.27,0,0,1-1.81-.8,3.25,3.25,0,0,1-.69-2.21A3.55,3.55,0,0,1,88,30a2.45,2.45,0,0,1,2-.9,1.67,1.67,0,0,1,1.61.84h0V26.32h1.85Zm-1.82-2.92v-.45a1.4,1.4,0,0,0-.34-1,1.19,1.19,0,0,0-1.84.1,2.22,2.22,0,0,0-.35,1.32,1.89,1.89,0,0,0,.34,1.22,1.09,1.09,0,0,0,.92.43,1.12,1.12,0,0,0,.92-.45A1.92,1.92,0,0,0,91.65,32.28Z" fill="#1e1e1e"/>
    </g>
    <g>
      <path d="M64.86,90.69l-2.38,8.4H61.33L59.6,93a3.78,3.78,0,0,1-.13-.86h0a4.09,4.09,0,0,1-.15.85l-1.74,6.15H56.41L54,90.69H55l1.79,6.44A4.57,4.57,0,0,1,57,98h0a5.24,5.24,0,0,1,.18-.85L59,90.69H60l1.78,6.49a4.72,4.72,0,0,1,.14.79h0a3.93,3.93,0,0,1,.15-.81l1.72-6.47Z" fill="#1e1e1e"/>
      <path d="M70.33,96.33H66.09a2.3,2.3,0,0,0,.54,1.55,1.88,1.88,0,0,0,1.42.54,2.89,2.89,0,0,0,1.86-.67v.91a3.47,3.47,0,0,1-2.09.57,2.54,2.54,0,0,1-2-.82,3.35,3.35,0,0,1-.72-2.3,3.28,3.28,0,0,1,.79-2.28,2.54,2.54,0,0,1,2-.88,2.26,2.26,0,0,1,1.83.76,3.18,3.18,0,0,1,.64,2.12Zm-1-.81a2,2,0,0,0-.41-1.3,1.35,1.35,0,0,0-1.09-.46,1.57,1.57,0,0,0-1.16.48,2.24,2.24,0,0,0-.58,1.28Z" fill="#1e1e1e"/>
      <path d="M72.77,98.22h0v.87h-1V90.21h1v3.94h0A2.26,2.26,0,0,1,74.84,93a2.2,2.2,0,0,1,1.81.81,3.27,3.27,0,0,1,.65,2.15,3.73,3.73,0,0,1-.73,2.42,2.45,2.45,0,0,1-2,.9A2,2,0,0,1,72.77,98.22Zm0-2.42v.84a1.78,1.78,0,0,0,.49,1.26,1.72,1.72,0,0,0,2.59-.15,3,3,0,0,0,.5-1.85,2.47,2.47,0,0,0-.46-1.57,1.54,1.54,0,0,0-1.26-.57,1.7,1.7,0,0,0-1.35.58A2.15,2.15,0,0,0,72.74,95.8Z" fill="#1e1e1e"/>
      <path d="M78.48,98.87v-1a2.79,2.79,0,0,0,1.72.58c.85,0,1.27-.28,1.27-.84a.76.76,0,0,0-.11-.41,1,1,0,0,0-.29-.29,2.28,2.28,0,0,0-.44-.24l-.53-.21a6.76,6.76,0,0,1-.7-.32,2.55,2.55,0,0,1-.51-.36,1.52,1.52,0,0,1-.3-.46,1.63,1.63,0,0,1-.1-.61,1.38,1.38,0,0,1,.19-.74,1.7,1.7,0,0,1,.52-.55,2.71,2.71,0,0,1,.73-.33,3.59,3.59,0,0,1,2.25.16v1a2.71,2.71,0,0,0-1.53-.43,1.8,1.8,0,0,0-.48.06,1.15,1.15,0,0,0-.37.17.76.76,0,0,0-.24.27.67.67,0,0,0-.09.34.75.75,0,0,0,.09.39.84.84,0,0,0,.25.29,2,2,0,0,0,.39.22l.54.22a6.85,6.85,0,0,1,.71.31,2.82,2.82,0,0,1,.54.36,1.41,1.41,0,0,1,.34.47,1.46,1.46,0,0,1,.12.62,1.5,1.5,0,0,1-.19.78,1.61,1.61,0,0,1-.53.54,2.32,2.32,0,0,1-.75.33,3.82,3.82,0,0,1-.9.1A3.34,3.34,0,0,1,78.48,98.87Z" fill="#1e1e1e"/>
      <path d="M84.42,91.57a.6.6,0,0,1-.44-.18A.59.59,0,0,1,83.8,91,.61.61,0,0,1,84,90.5a.6.6,0,0,1,.44-.18.61.61,0,0,1,.45.18.62.62,0,0,1,.19.45.63.63,0,0,1-.19.44A.61.61,0,0,1,84.42,91.57Zm.47,7.52h-1v-6h1Z" fill="#1e1e1e"/>
      <path d="M89.62,99a1.82,1.82,0,0,1-.9.19c-1,0-1.57-.59-1.57-1.76V93.91h-1v-.82h1V91.63l1-.32v1.78h1.51v.82H88.11v3.38a1.45,1.45,0,0,0,.2.86.84.84,0,0,0,.68.26,1.05,1.05,0,0,0,.63-.2Z" fill="#1e1e1e"/>
      <path d="M95.73,96.33H91.49A2.21,2.21,0,0,0,92,97.88a1.85,1.85,0,0,0,1.42.54,2.93,2.93,0,0,0,1.86-.67v.91a3.52,3.52,0,0,1-2.09.57,2.52,2.52,0,0,1-2-.82,3.81,3.81,0,0,1,.07-4.58,2.53,2.53,0,0,1,2-.88,2.25,2.25,0,0,1,1.82.76,3.18,3.18,0,0,1,.65,2.12Zm-1-.81a2,2,0,0,0-.4-1.3,1.36,1.36,0,0,0-1.1-.46,1.55,1.55,0,0,0-1.15.48,2.19,2.19,0,0,0-.59,1.28Z" fill="#1e1e1e"/>
    </g>
    <g>
      <path d="M20.27,54.08h-1v-.93h0a2,2,0,0,1-1.84,1.07A2,2,0,0,1,16,53.75a1.68,1.68,0,0,1-.5-1.26c0-1.12.66-1.77,2-2l1.8-.25c0-1-.41-1.53-1.24-1.53a3,3,0,0,0-2,.74v-1a3.68,3.68,0,0,1,2-.57c1.41,0,2.12.75,2.12,2.24Zm-1-3-1.45.2a2.3,2.3,0,0,0-1,.33,1,1,0,0,0-.34.84.93.93,0,0,0,.32.72,1.21,1.21,0,0,0,.83.28,1.55,1.55,0,0,0,1.18-.5,1.81,1.81,0,0,0,.47-1.27Z" fill="#1e1e1e"/>
      <path d="M23.06,53.22h0v3.62h-1V48.08h1v1.06h0a2.29,2.29,0,0,1,2.08-1.2,2.2,2.2,0,0,1,1.81.81,3.37,3.37,0,0,1,.65,2.16,3.76,3.76,0,0,1-.73,2.41,2.46,2.46,0,0,1-2,.9A2,2,0,0,1,23.06,53.22Zm0-2.42v.83a1.81,1.81,0,0,0,.48,1.27,1.73,1.73,0,0,0,2.6-.15,3.09,3.09,0,0,0,.49-1.86,2.41,2.41,0,0,0-.46-1.57,1.53,1.53,0,0,0-1.25-.57,1.73,1.73,0,0,0-1.35.58A2.16,2.16,0,0,0,23,50.8Z" fill="#1e1e1e"/>
      <path d="M30.12,53.22h0v3.62h-1V48.08h1v1.06h0a2.26,2.26,0,0,1,2.07-1.2,2.18,2.18,0,0,1,1.81.81,3.31,3.31,0,0,1,.65,2.16,3.71,3.71,0,0,1-.73,2.41,2.45,2.45,0,0,1-2,.9A2,2,0,0,1,30.12,53.22Zm0-2.42v.83a1.82,1.82,0,0,0,.49,1.27,1.72,1.72,0,0,0,2.59-.15,3.09,3.09,0,0,0,.5-1.86,2.47,2.47,0,0,0-.46-1.57A1.54,1.54,0,0,0,32,48.75a1.73,1.73,0,0,0-1.35.58A2.16,2.16,0,0,0,30.09,50.8Z" fill="#1e1e1e"/>
      <path d="M45.37,49.72H39.86V49h5.51Zm0,2.5H39.86v-.77h5.51Z" fill="#1e1e1e"/>
      <path d="M53.94,46a1.34,1.34,0,0,0-.64-.15c-.67,0-1,.42-1,1.27v.92H53.7v.82H52.29v5.18h-1V48.9h-1v-.82h1v-1a2,2,0,0,1,.55-1.49,1.82,1.82,0,0,1,1.36-.55,1.94,1.94,0,0,1,.7.11Z" fill="#1e1e1e"/>
      <path d="M57.86,49.06a1.18,1.18,0,0,0-.73-.2,1.25,1.25,0,0,0-1,.58A2.75,2.75,0,0,0,55.69,51v3h-1v-6h1v1.24h0a2.17,2.17,0,0,1,.63-1,1.44,1.44,0,0,1,.94-.35,1.75,1.75,0,0,1,.58.08Z" fill="#1e1e1e"/>
      <path d="M61.41,54.22a2.79,2.79,0,0,1-2.13-.84,3.1,3.1,0,0,1-.79-2.23,3.26,3.26,0,0,1,.82-2.36,3,3,0,0,1,2.24-.85,2.69,2.69,0,0,1,2.09.83,3.28,3.28,0,0,1,.76,2.29,3.23,3.23,0,0,1-.82,2.3A2.81,2.81,0,0,1,61.41,54.22Zm.07-5.47a1.84,1.84,0,0,0-1.47.63,2.59,2.59,0,0,0-.54,1.74A2.41,2.41,0,0,0,60,52.8a1.85,1.85,0,0,0,1.46.62,1.76,1.76,0,0,0,1.43-.61,2.62,2.62,0,0,0,.5-1.71,2.71,2.71,0,0,0-.5-1.74A1.76,1.76,0,0,0,61.48,48.75Z" fill="#1e1e1e"/>
      <path d="M70.91,54.08H70V50.66c0-1.27-.47-1.91-1.39-1.91a1.52,1.52,0,0,0-1.2.54,2.05,2.05,0,0,0-.47,1.37v3.42h-1v-6h1v1h0a2.17,2.17,0,0,1,2-1.14,1.86,1.86,0,0,1,1.51.64,2.82,2.82,0,0,1,.52,1.84Z" fill="#1e1e1e"/>
      <path d="M75.5,54a1.87,1.87,0,0,1-.89.18c-1,0-1.58-.58-1.58-1.75V48.9H72v-.82h1V46.62l1-.31v1.77H75.5v.82H74v3.39a1.39,1.39,0,0,0,.21.86.81.81,0,0,0,.68.25,1,1,0,0,0,.62-.19Z" fill="#1e1e1e"/>
      <path d="M79.86,51.12h-3.2v-.76h3.2Z" fill="#1e1e1e"/>
      <path d="M86.41,51.32H82.17a2.28,2.28,0,0,0,.54,1.55,1.89,1.89,0,0,0,1.42.55A3,3,0,0,0,86,52.75v.9a3.47,3.47,0,0,1-2.09.57,2.56,2.56,0,0,1-2-.81,3.37,3.37,0,0,1-.72-2.3A3.25,3.25,0,0,1,82,48.83a2.55,2.55,0,0,1,2-.89,2.24,2.24,0,0,1,1.82.77,3.15,3.15,0,0,1,.65,2.11Zm-1-.81a1.93,1.93,0,0,0-.4-1.3,1.39,1.39,0,0,0-1.1-.46,1.54,1.54,0,0,0-1.15.49,2.22,2.22,0,0,0-.59,1.27Z" fill="#1e1e1e"/>
      <path d="M92.84,54.08h-1V50.66c0-1.27-.46-1.91-1.39-1.91a1.54,1.54,0,0,0-1.2.54,2.05,2.05,0,0,0-.47,1.37v3.42h-1v-6h1v1h0a2.16,2.16,0,0,1,2-1.14,1.86,1.86,0,0,1,1.51.64,2.82,2.82,0,0,1,.52,1.84Z" fill="#1e1e1e"/>
      <path d="M99.77,54.08h-1v-1h0a2.43,2.43,0,0,1-3.87.36,3.33,3.33,0,0,1-.68-2.2A3.59,3.59,0,0,1,95,48.84a2.48,2.48,0,0,1,2-.9,1.94,1.94,0,0,1,1.8,1h0V45.2h1Zm-1-2.71v-.88a1.7,1.7,0,0,0-.48-1.23,1.59,1.59,0,0,0-1.22-.51,1.67,1.67,0,0,0-1.38.65,2.85,2.85,0,0,0-.5,1.78,2.56,2.56,0,0,0,.48,1.64,1.59,1.59,0,0,0,1.3.6,1.66,1.66,0,0,0,1.3-.58A2.15,2.15,0,0,0,98.81,51.37Z" fill="#1e1e1e"/>
      <path d="M104.79,51.12h-3.2v-.76h3.2Z" fill="#1e1e1e"/>
      <path d="M111.5,54.08h-1V50.66c0-1.27-.47-1.91-1.4-1.91a1.52,1.52,0,0,0-1.19.54,2.05,2.05,0,0,0-.47,1.37v3.42h-1v-6h1v1h0a2.17,2.17,0,0,1,2-1.14,1.86,1.86,0,0,1,1.51.64,2.88,2.88,0,0,1,.52,1.84Z" fill="#1e1e1e"/>
      <path d="M118.43,53.6q0,3.32-3.16,3.31a4.28,4.28,0,0,1-2-.42v-1a4.06,4.06,0,0,0,1.93.56c1.48,0,2.22-.79,2.22-2.36v-.65h0a2.44,2.44,0,0,1-3.87.34,3.19,3.19,0,0,1-.68-2.14,3.73,3.73,0,0,1,.73-2.43,2.45,2.45,0,0,1,2-.91,2,2,0,0,1,1.8,1h0v-.84h1Zm-1-2.23v-.88a1.73,1.73,0,0,0-.48-1.23,1.62,1.62,0,0,0-1.21-.51,1.66,1.66,0,0,0-1.39.65,2.87,2.87,0,0,0-.51,1.81,2.46,2.46,0,0,0,.49,1.61,1.56,1.56,0,0,0,1.28.6,1.68,1.68,0,0,0,1.31-.58A2.12,2.12,0,0,0,117.47,51.37Z" fill="#1e1e1e"/>
      <path d="M120.87,46.56a.6.6,0,0,1-.44-.18.57.57,0,0,1-.18-.44.61.61,0,0,1,.18-.45.6.6,0,0,1,.44-.18.64.64,0,0,1,.45.18.61.61,0,0,1,.18.45.6.6,0,0,1-.18.44A.64.64,0,0,1,120.87,46.56Zm.47,7.52h-1v-6h1Z" fill="#1e1e1e"/>
      <path d="M128.26,54.08h-1V50.66c0-1.27-.46-1.91-1.39-1.91a1.54,1.54,0,0,0-1.2.54,2.05,2.05,0,0,0-.47,1.37v3.42h-1v-6h1v1h0a2.16,2.16,0,0,1,2-1.14,1.86,1.86,0,0,1,1.51.64,2.82,2.82,0,0,1,.52,1.84Z" fill="#1e1e1e"/>
      <path d="M134.46,48.08l-2,3,2,3H133.3l-1.18-1.94c-.07-.12-.16-.27-.26-.46h0l-.28.46-1.2,1.94h-1.11l2.05-2.94-2-3.06h1.12l1.16,2.05.25.47h0l1.5-2.52Z" fill="#1e1e1e"/>
      <path d="M20.69,61.28l-2.39,6h-.94l-2.28-6h1.06l1.52,4.36a4.27,4.27,0,0,1,.21.84h0a3.72,3.72,0,0,1,.18-.81l1.6-4.39Z" fill="#1e1e1e"/>
      <path d="M26.54,64.52H22.31a2.19,2.19,0,0,0,.54,1.55,1.85,1.85,0,0,0,1.41.55A3,3,0,0,0,26.13,66v.9a3.52,3.52,0,0,1-2.09.57,2.54,2.54,0,0,1-2-.81,3.33,3.33,0,0,1-.73-2.3A3.29,3.29,0,0,1,22.1,62a2.56,2.56,0,0,1,2-.89,2.26,2.26,0,0,1,1.82.77A3.15,3.15,0,0,1,26.54,64Zm-1-.81a1.93,1.93,0,0,0-.4-1.29,1.38,1.38,0,0,0-1.1-.47,1.56,1.56,0,0,0-1.16.49,2.21,2.21,0,0,0-.58,1.27Z" fill="#1e1e1e"/>
      <path d="M31.13,62.26a1.18,1.18,0,0,0-.73-.2,1.25,1.25,0,0,0-1,.58A2.75,2.75,0,0,0,29,64.23v3H28v-6h1v1.24h0a2.17,2.17,0,0,1,.63-1,1.44,1.44,0,0,1,.94-.35,1.75,1.75,0,0,1,.58.08Z" fill="#1e1e1e"/>
      <path d="M31.81,67.07V66a2.85,2.85,0,0,0,1.72.58c.85,0,1.27-.29,1.27-.85a.72.72,0,0,0-.11-.4,1,1,0,0,0-.29-.3,2.27,2.27,0,0,0-.44-.23l-.53-.22a5.16,5.16,0,0,1-.7-.32,1.94,1.94,0,0,1-.51-.36,1.41,1.41,0,0,1-.3-.46,1.57,1.57,0,0,1-.1-.6,1.44,1.44,0,0,1,.19-.75,1.58,1.58,0,0,1,.52-.54,2.45,2.45,0,0,1,.73-.34,3.59,3.59,0,0,1,2.25.16v1A2.72,2.72,0,0,0,34,62a1.8,1.8,0,0,0-.48.06,1,1,0,0,0-.37.18.66.66,0,0,0-.24.26.7.7,0,0,0-.09.35.8.8,0,0,0,.09.39.82.82,0,0,0,.25.28,1.59,1.59,0,0,0,.39.22l.54.22c.26.1.5.21.71.31a2.44,2.44,0,0,1,.54.37,1.38,1.38,0,0,1,.34.46,1.54,1.54,0,0,1,.12.63,1.47,1.47,0,0,1-.19.77,1.74,1.74,0,0,1-.53.55,2.54,2.54,0,0,1-.75.32,3.82,3.82,0,0,1-.9.1A3.34,3.34,0,0,1,31.81,67.07Z" fill="#1e1e1e"/>
      <path d="M37.75,59.76a.6.6,0,0,1-.44-.18.57.57,0,0,1-.18-.44.61.61,0,0,1,.18-.45.6.6,0,0,1,.44-.18.61.61,0,0,1,.45.18.62.62,0,0,1,0,.89A.61.61,0,0,1,37.75,59.76Zm.47,7.52h-1v-6h1Z" fill="#1e1e1e"/>
      <path d="M42.67,67.42a2.79,2.79,0,0,1-2.12-.84,3.1,3.1,0,0,1-.79-2.23A3.26,3.26,0,0,1,40.58,62a3,3,0,0,1,2.23-.85,2.7,2.7,0,0,1,2.1.83,3.27,3.27,0,0,1,.75,2.29,3.23,3.23,0,0,1-.81,2.3A2.83,2.83,0,0,1,42.67,67.42ZM42.74,62a1.83,1.83,0,0,0-1.46.63,2.59,2.59,0,0,0-.54,1.74A2.41,2.41,0,0,0,41.29,66a1.85,1.85,0,0,0,1.45.62A1.75,1.75,0,0,0,44.18,66a2.62,2.62,0,0,0,.5-1.71,2.71,2.71,0,0,0-.5-1.74A1.78,1.78,0,0,0,42.74,62Z" fill="#1e1e1e"/>
      <path d="M52.18,67.28h-1V63.86c0-1.27-.47-1.91-1.4-1.91a1.5,1.5,0,0,0-1.19.54,2.05,2.05,0,0,0-.47,1.37v3.42h-1v-6h1v1h0a2.17,2.17,0,0,1,2-1.14,1.86,1.86,0,0,1,1.51.64,2.88,2.88,0,0,1,.52,1.84Z" fill="#1e1e1e"/>
      <path d="M59.88,62.92h-5.5v-.77h5.5Zm0,2.5h-5.5v-.77h5.5Z" fill="#1e1e1e"/>
      <path d="M65.47,67.28h-1V60a2.72,2.72,0,0,1-.33.26,3.57,3.57,0,0,1-.48.28,4.83,4.83,0,0,1-.56.27,4.89,4.89,0,0,1-.58.19v-1a5.46,5.46,0,0,0,.67-.24c.24-.1.47-.21.7-.33l.65-.39a3.92,3.92,0,0,0,.52-.4h.37Z" fill="#1e1e1e"/>
      <path d="M69,67.41a.65.65,0,0,1-.65-.65.64.64,0,0,1,.19-.47.63.63,0,0,1,.46-.2.65.65,0,0,1,.47.2.64.64,0,0,1,.19.47.62.62,0,0,1-.19.46A.64.64,0,0,1,69,67.41Z" fill="#1e1e1e"/>
      <path d="M76.27,63.05a8.15,8.15,0,0,1-.19,1.87,4.41,4.41,0,0,1-.55,1.37,2.34,2.34,0,0,1-2.08,1.14,2.19,2.19,0,0,1-1.12-.28,2.32,2.32,0,0,1-.84-.81A3.82,3.82,0,0,1,71,65a7.93,7.93,0,0,1-.18-1.78A9.35,9.35,0,0,1,71,61.31a4.63,4.63,0,0,1,.55-1.42,2.34,2.34,0,0,1,.88-.86,2.56,2.56,0,0,1,1.22-.29Q76.27,58.74,76.27,63.05Zm-1,.09c0-2.39-.57-3.58-1.71-3.58s-1.8,1.21-1.8,3.65c0,2.27.59,3.4,1.77,3.4S75.29,65.45,75.29,63.14Z" fill="#1e1e1e"/>
      <path d="M78.07,67.41a.65.65,0,0,1-.65-.65.64.64,0,0,1,.19-.47.63.63,0,0,1,.46-.2.65.65,0,0,1,.47.2.64.64,0,0,1,.19.47.62.62,0,0,1-.19.46A.64.64,0,0,1,78.07,67.41Z" fill="#1e1e1e"/>
      <path d="M85.34,63.05a8.15,8.15,0,0,1-.19,1.87,4.41,4.41,0,0,1-.55,1.37,2.34,2.34,0,0,1-2.08,1.14,2.19,2.19,0,0,1-1.12-.28,2.32,2.32,0,0,1-.84-.81A3.82,3.82,0,0,1,80.05,65a7.93,7.93,0,0,1-.18-1.78,9.35,9.35,0,0,1,.18-1.94,4.63,4.63,0,0,1,.55-1.42,2.34,2.34,0,0,1,.88-.86,2.56,2.56,0,0,1,1.22-.29Q85.34,58.74,85.34,63.05Zm-1,.09c0-2.39-.57-3.58-1.71-3.58s-1.8,1.21-1.8,3.65c0,2.27.59,3.4,1.77,3.4S84.36,65.45,84.36,63.14Z" fill="#1e1e1e"/>
    </g>
    <g>
      <path d="M207.24,29.2l-2.23,6H202.9l-2.12-6h2l1,3.7A5.19,5.19,0,0,1,204,34h0a6.05,6.05,0,0,1,.21-1l1.07-3.73Z" fill="#1e1e1e"/>
      <path d="M212.13,26.61V35.2h-1.84V28.7a2.65,2.65,0,0,1-.37.25,3.61,3.61,0,0,1-.44.22,3.86,3.86,0,0,1-.48.16,3.16,3.16,0,0,1-.5.1V27.87a7.71,7.71,0,0,0,1.36-.54,8,8,0,0,0,1.15-.72Z" fill="#1e1e1e"/>
      <path d="M220.32,32.31V35.2h-1.89V26.8h3c2.12,0,3.18.89,3.18,2.68a2.55,2.55,0,0,1-.91,2,3.58,3.58,0,0,1-2.44.79Zm0-4.06v2.62h.75c1,0,1.51-.44,1.51-1.32s-.51-1.3-1.51-1.3Z" fill="#1e1e1e"/>
      <path d="M228.12,35.35a3.23,3.23,0,0,1-2.36-.84,3.06,3.06,0,0,1-.86-2.29,3,3,0,0,1,.89-2.32,3.35,3.35,0,0,1,2.41-.85,3.17,3.17,0,0,1,2.35.85,3,3,0,0,1,.85,2.22,3.18,3.18,0,0,1-.88,2.36A3.24,3.24,0,0,1,228.12,35.35Zm0-4.88a1.23,1.23,0,0,0-1,.45,2,2,0,0,0-.36,1.28c0,1.15.46,1.73,1.39,1.73s1.33-.59,1.33-1.78S229.06,30.47,228.17,30.47Z" fill="#1e1e1e"/>
      <path d="M238.47,35.2h-1.85v-.82h0a2.08,2.08,0,0,1-1.85,1,2.27,2.27,0,0,1-1.81-.8,3.25,3.25,0,0,1-.69-2.21A3.55,3.55,0,0,1,233,30a2.45,2.45,0,0,1,2-.9,1.67,1.67,0,0,1,1.61.84h0V26.32h1.85Zm-1.82-2.92v-.45a1.4,1.4,0,0,0-.34-1,1.19,1.19,0,0,0-1.84.1,2.22,2.22,0,0,0-.35,1.32,1.89,1.89,0,0,0,.34,1.22,1.09,1.09,0,0,0,.92.43,1.12,1.12,0,0,0,.92-.45A1.92,1.92,0,0,0,236.65,32.28Z" fill="#1e1e1e"/>
    </g>
    <g>
      <path d="M209.86,90.69l-2.38,8.4h-1.15L204.6,93a3.78,3.78,0,0,1-.13-.86h0a4.09,4.09,0,0,1-.15.85l-1.74,6.15h-1.14L199,90.69H200l1.79,6.44A4.57,4.57,0,0,1,202,98h0a5.24,5.24,0,0,1,.18-.85L204,90.69H205l1.78,6.49a4.72,4.72,0,0,1,.14.79h0a3.93,3.93,0,0,1,.15-.81l1.72-6.47Z" fill="#1e1e1e"/>
      <path d="M215.33,96.33h-4.24a2.3,2.3,0,0,0,.54,1.55,1.88,1.88,0,0,0,1.42.54,2.89,2.89,0,0,0,1.86-.67v.91a3.47,3.47,0,0,1-2.09.57,2.53,2.53,0,0,1-2-.82,3.35,3.35,0,0,1-.72-2.3,3.28,3.28,0,0,1,.79-2.28,2.54,2.54,0,0,1,2-.88,2.26,2.26,0,0,1,1.83.76,3.18,3.18,0,0,1,.64,2.12Zm-1-.81a2,2,0,0,0-.41-1.3,1.35,1.35,0,0,0-1.09-.46,1.57,1.57,0,0,0-1.16.48,2.24,2.24,0,0,0-.58,1.28Z" fill="#1e1e1e"/>
      <path d="M217.77,98.22h0v.87h-1V90.21h1v3.94h0a2.26,2.26,0,0,1,2.07-1.2,2.2,2.2,0,0,1,1.81.81,3.32,3.32,0,0,1,.65,2.15,3.73,3.73,0,0,1-.73,2.42,2.45,2.45,0,0,1-2,.9A2,2,0,0,1,217.77,98.22Zm0-2.42v.84a1.78,1.78,0,0,0,.49,1.26,1.72,1.72,0,0,0,2.59-.15,3,3,0,0,0,.5-1.85,2.47,2.47,0,0,0-.46-1.57,1.54,1.54,0,0,0-1.26-.57,1.7,1.7,0,0,0-1.35.58A2.15,2.15,0,0,0,217.74,95.8Z" fill="#1e1e1e"/>
      <path d="M223.47,98.87v-1a2.84,2.84,0,0,0,1.73.58c.85,0,1.27-.28,1.27-.84a.76.76,0,0,0-.11-.41,1,1,0,0,0-.29-.29,2.28,2.28,0,0,0-.44-.24l-.53-.21a6.76,6.76,0,0,1-.7-.32,2.55,2.55,0,0,1-.51-.36,1.52,1.52,0,0,1-.3-.46,1.63,1.63,0,0,1-.1-.61,1.38,1.38,0,0,1,.19-.74,1.7,1.7,0,0,1,.52-.55,2.71,2.71,0,0,1,.73-.33,3.59,3.59,0,0,1,2.25.16v1a2.71,2.71,0,0,0-1.53-.43,1.75,1.75,0,0,0-.48.06,1.15,1.15,0,0,0-.37.17.76.76,0,0,0-.24.27.67.67,0,0,0-.09.34.75.75,0,0,0,.09.39.93.93,0,0,0,.24.29,2.48,2.48,0,0,0,.4.22l.54.22a6.85,6.85,0,0,1,.71.31,2.82,2.82,0,0,1,.54.36,1.41,1.41,0,0,1,.34.47,1.46,1.46,0,0,1,.12.62,1.5,1.5,0,0,1-.19.78,1.61,1.61,0,0,1-.53.54,2.32,2.32,0,0,1-.75.33,3.82,3.82,0,0,1-.9.1A3.41,3.41,0,0,1,223.47,98.87Z" fill="#1e1e1e"/>
      <path d="M229.42,91.57a.6.6,0,0,1-.44-.18.59.59,0,0,1-.18-.44.61.61,0,0,1,.18-.45.6.6,0,0,1,.44-.18.62.62,0,0,1,.63.63.62.62,0,0,1-.18.44A.61.61,0,0,1,229.42,91.57Zm.47,7.52h-1v-6h1Z" fill="#1e1e1e"/>
      <path d="M234.62,99a1.82,1.82,0,0,1-.9.19c-1.05,0-1.57-.59-1.57-1.76V93.91h-1v-.82h1V91.63l1-.32v1.78h1.51v.82h-1.51v3.38a1.45,1.45,0,0,0,.2.86.84.84,0,0,0,.68.26,1.05,1.05,0,0,0,.63-.2Z" fill="#1e1e1e"/>
      <path d="M240.72,96.33h-4.23a2.21,2.21,0,0,0,.54,1.55,1.85,1.85,0,0,0,1.42.54,2.93,2.93,0,0,0,1.86-.67v.91a3.52,3.52,0,0,1-2.09.57,2.52,2.52,0,0,1-2-.82,3.81,3.81,0,0,1,.07-4.58,2.53,2.53,0,0,1,2-.88,2.25,2.25,0,0,1,1.82.76,3.18,3.18,0,0,1,.64,2.12Zm-1-.81a2,2,0,0,0-.4-1.3,1.36,1.36,0,0,0-1.1-.46,1.55,1.55,0,0,0-1.15.48,2.19,2.19,0,0,0-.59,1.28Z" fill="#1e1e1e"/>
    </g>
    <g>
      <path d="M165.27,54.08h-1v-.93h0a2.2,2.2,0,0,1-3.25.6,1.68,1.68,0,0,1-.5-1.26c0-1.12.66-1.77,2-2l1.8-.25c0-1-.42-1.53-1.24-1.53a3,3,0,0,0-2,.74v-1a3.68,3.68,0,0,1,2-.57c1.41,0,2.12.75,2.12,2.24Zm-1-3-1.45.2a2.3,2.3,0,0,0-1,.33,1,1,0,0,0-.34.84.93.93,0,0,0,.32.72,1.21,1.21,0,0,0,.83.28,1.55,1.55,0,0,0,1.18-.5,1.81,1.81,0,0,0,.47-1.27Z" fill="#1e1e1e"/>
      <path d="M168.06,53.22h0v3.62h-1V48.08h1v1.06h0a2.29,2.29,0,0,1,2.08-1.2,2.2,2.2,0,0,1,1.81.81,3.37,3.37,0,0,1,.65,2.16,3.76,3.76,0,0,1-.73,2.41,2.46,2.46,0,0,1-2,.9A2,2,0,0,1,168.06,53.22Zm0-2.42v.83a1.81,1.81,0,0,0,.48,1.27,1.73,1.73,0,0,0,2.6-.15,3.09,3.09,0,0,0,.49-1.86,2.41,2.41,0,0,0-.46-1.57,1.53,1.53,0,0,0-1.25-.57,1.73,1.73,0,0,0-1.35.58A2.16,2.16,0,0,0,168,50.8Z" fill="#1e1e1e"/>
      <path d="M175.12,53.22h0v3.62h-1V48.08h1v1.06h0a2.26,2.26,0,0,1,2.07-1.2,2.19,2.19,0,0,1,1.81.81,3.31,3.31,0,0,1,.65,2.16,3.71,3.71,0,0,1-.73,2.41,2.45,2.45,0,0,1-2,.9A2,2,0,0,1,175.12,53.22Zm0-2.42v.83a1.77,1.77,0,0,0,.49,1.27,1.71,1.71,0,0,0,2.59-.15,3.09,3.09,0,0,0,.5-1.86,2.47,2.47,0,0,0-.46-1.57,1.54,1.54,0,0,0-1.26-.57,1.73,1.73,0,0,0-1.35.58A2.16,2.16,0,0,0,175.09,50.8Z" fill="#1e1e1e"/>
      <path d="M190.37,49.72h-5.51V49h5.51Zm0,2.5h-5.51v-.77h5.51Z" fill="#1e1e1e"/>
      <path d="M198.94,46a1.34,1.34,0,0,0-.64-.15c-.67,0-1,.42-1,1.27v.92h1.41v.82h-1.41v5.18h-1V48.9h-1v-.82h1v-1a2,2,0,0,1,.55-1.49,1.82,1.82,0,0,1,1.36-.55,1.94,1.94,0,0,1,.7.11Z" fill="#1e1e1e"/>
      <path d="M202.86,49.06a1.18,1.18,0,0,0-.73-.2,1.25,1.25,0,0,0-1,.58,2.75,2.75,0,0,0-.41,1.59v3h-1v-6h1v1.24h0a2.17,2.17,0,0,1,.63-1,1.44,1.44,0,0,1,.94-.35,1.75,1.75,0,0,1,.58.08Z" fill="#1e1e1e"/>
      <path d="M206.41,54.22a2.79,2.79,0,0,1-2.13-.84,3.1,3.1,0,0,1-.79-2.23,3.26,3.26,0,0,1,.82-2.36,3,3,0,0,1,2.24-.85,2.69,2.69,0,0,1,2.09.83,3.27,3.27,0,0,1,.75,2.29,3.23,3.23,0,0,1-.81,2.3A2.81,2.81,0,0,1,206.41,54.22Zm.07-5.47a1.84,1.84,0,0,0-1.47.63,2.59,2.59,0,0,0-.54,1.74A2.41,2.41,0,0,0,205,52.8a1.85,1.85,0,0,0,1.46.62,1.76,1.76,0,0,0,1.43-.61,2.62,2.62,0,0,0,.5-1.71,2.71,2.71,0,0,0-.5-1.74A1.76,1.76,0,0,0,206.48,48.75Z" fill="#1e1e1e"/>
      <path d="M215.91,54.08h-1V50.66c0-1.27-.47-1.91-1.4-1.91a1.52,1.52,0,0,0-1.19.54,2.05,2.05,0,0,0-.47,1.37v3.42h-1v-6h1v1h0a2.17,2.17,0,0,1,2-1.14,1.86,1.86,0,0,1,1.51.64,2.82,2.82,0,0,1,.52,1.84Z" fill="#1e1e1e"/>
      <path d="M220.5,54a1.87,1.87,0,0,1-.89.18c-1.05,0-1.58-.58-1.58-1.75V48.9h-1v-.82h1V46.62l1-.31v1.77h1.51v.82H219v3.39a1.39,1.39,0,0,0,.21.86.81.81,0,0,0,.68.25,1,1,0,0,0,.62-.19Z" fill="#1e1e1e"/>
      <path d="M224.86,51.12h-3.2v-.76h3.2Z" fill="#1e1e1e"/>
      <path d="M231.41,51.32h-4.24a2.28,2.28,0,0,0,.54,1.55,1.87,1.87,0,0,0,1.42.55,3,3,0,0,0,1.86-.67v.9a3.5,3.5,0,0,1-2.09.57,2.56,2.56,0,0,1-2-.81,3.37,3.37,0,0,1-.72-2.3,3.25,3.25,0,0,1,.79-2.28,2.55,2.55,0,0,1,2-.89,2.24,2.24,0,0,1,1.82.77,3.15,3.15,0,0,1,.65,2.11Zm-1-.81a1.93,1.93,0,0,0-.4-1.3,1.39,1.39,0,0,0-1.1-.46,1.54,1.54,0,0,0-1.15.49,2.22,2.22,0,0,0-.59,1.27Z" fill="#1e1e1e"/>
      <path d="M237.84,54.08h-1V50.66c0-1.27-.46-1.91-1.39-1.91a1.54,1.54,0,0,0-1.2.54,2.05,2.05,0,0,0-.47,1.37v3.42h-1v-6h1v1h0a2.16,2.16,0,0,1,2-1.14,1.86,1.86,0,0,1,1.51.64,2.82,2.82,0,0,1,.52,1.84Z" fill="#1e1e1e"/>
      <path d="M244.77,54.08h-1v-1h0a2.43,2.43,0,0,1-3.87.36,3.33,3.33,0,0,1-.68-2.2,3.59,3.59,0,0,1,.75-2.38,2.48,2.48,0,0,1,2-.9,1.94,1.94,0,0,1,1.8,1h0V45.2h1Zm-1-2.71v-.88a1.7,1.7,0,0,0-.48-1.23,1.59,1.59,0,0,0-1.22-.51,1.67,1.67,0,0,0-1.38.65,2.79,2.79,0,0,0-.5,1.78,2.56,2.56,0,0,0,.48,1.64,1.57,1.57,0,0,0,1.3.6,1.66,1.66,0,0,0,1.3-.58A2.15,2.15,0,0,0,243.81,51.37Z" fill="#1e1e1e"/>
      <path d="M249.79,51.12h-3.2v-.76h3.2Z" fill="#1e1e1e"/>
      <path d="M256.5,54.08h-1V50.66c0-1.27-.47-1.91-1.4-1.91a1.5,1.5,0,0,0-1.19.54,2.05,2.05,0,0,0-.47,1.37v3.42h-1v-6h1v1h0a2.17,2.17,0,0,1,2-1.14,1.86,1.86,0,0,1,1.51.64,2.88,2.88,0,0,1,.52,1.84Z" fill="#1e1e1e"/>
      <path d="M263.43,53.6q0,3.32-3.16,3.31a4.28,4.28,0,0,1-1.95-.42v-1a4.06,4.06,0,0,0,1.93.56c1.48,0,2.22-.79,2.22-2.36v-.65h0a2.44,2.44,0,0,1-3.87.34,3.19,3.19,0,0,1-.68-2.14,3.73,3.73,0,0,1,.73-2.43,2.44,2.44,0,0,1,2-.91,2,2,0,0,1,1.8,1h0v-.84h1Zm-1-2.23v-.88a1.73,1.73,0,0,0-.48-1.23,1.62,1.62,0,0,0-1.21-.51,1.66,1.66,0,0,0-1.39.65,2.87,2.87,0,0,0-.51,1.81,2.46,2.46,0,0,0,.49,1.61,1.56,1.56,0,0,0,1.28.6,1.68,1.68,0,0,0,1.31-.58A2.12,2.12,0,0,0,262.47,51.37Z" fill="#1e1e1e"/>
      <path d="M265.87,46.56a.6.6,0,0,1-.44-.18.57.57,0,0,1-.18-.44.61.61,0,0,1,.18-.45.6.6,0,0,1,.44-.18.64.64,0,0,1,.45.18.61.61,0,0,1,.18.45.6.6,0,0,1-.18.44A.64.64,0,0,1,265.87,46.56Zm.47,7.52h-1v-6h1Z" fill="#1e1e1e"/>
      <path d="M273.26,54.08h-1V50.66c0-1.27-.46-1.91-1.39-1.91a1.54,1.54,0,0,0-1.2.54,2.05,2.05,0,0,0-.47,1.37v3.42h-1v-6h1v1h0a2.16,2.16,0,0,1,2-1.14,1.86,1.86,0,0,1,1.51.64,2.82,2.82,0,0,1,.52,1.84Z" fill="#1e1e1e"/>
      <path d="M279.46,48.08l-2,3,2,3H278.3l-1.18-1.94c-.07-.12-.16-.27-.26-.46h0l-.28.46-1.2,1.94h-1.11l2.05-2.94-2-3.06h1.12l1.16,2.05.25.47h0l1.5-2.52Z" fill="#1e1e1e"/>
      <path d="M165.69,61.28l-2.39,6h-.94l-2.28-6h1.06l1.52,4.36a4.27,4.27,0,0,1,.21.84h0a4.38,4.38,0,0,1,.19-.81l1.6-4.39Z" fill="#1e1e1e"/>
      <path d="M171.54,64.52h-4.23a2.19,2.19,0,0,0,.54,1.55,1.85,1.85,0,0,0,1.41.55,3,3,0,0,0,1.87-.67v.9a3.52,3.52,0,0,1-2.09.57,2.54,2.54,0,0,1-2-.81,3.33,3.33,0,0,1-.73-2.3A3.29,3.29,0,0,1,167.1,62a2.56,2.56,0,0,1,2-.89,2.26,2.26,0,0,1,1.82.77,3.15,3.15,0,0,1,.64,2.11Zm-1-.81a2,2,0,0,0-.4-1.29,1.38,1.38,0,0,0-1.1-.47,1.56,1.56,0,0,0-1.16.49,2.21,2.21,0,0,0-.58,1.27Z" fill="#1e1e1e"/>
      <path d="M176.13,62.26a1.2,1.2,0,0,0-.73-.2,1.25,1.25,0,0,0-1,.58,2.68,2.68,0,0,0-.41,1.59v3h-1v-6h1v1.24h0a2.17,2.17,0,0,1,.63-1,1.44,1.44,0,0,1,.94-.35,1.75,1.75,0,0,1,.58.08Z" fill="#1e1e1e"/>
      <path d="M176.8,67.07V66a2.9,2.9,0,0,0,1.73.58c.85,0,1.27-.29,1.27-.85a.72.72,0,0,0-.11-.4,1,1,0,0,0-.29-.3,2.27,2.27,0,0,0-.44-.23l-.53-.22a5.16,5.16,0,0,1-.7-.32,1.94,1.94,0,0,1-.51-.36,1.41,1.41,0,0,1-.3-.46,1.57,1.57,0,0,1-.1-.6,1.44,1.44,0,0,1,.19-.75,1.58,1.58,0,0,1,.52-.54,2.45,2.45,0,0,1,.73-.34,3.59,3.59,0,0,1,2.25.16v1A2.72,2.72,0,0,0,179,62a1.75,1.75,0,0,0-.48.06,1,1,0,0,0-.37.18.66.66,0,0,0-.24.26.7.7,0,0,0-.09.35.8.8,0,0,0,.09.39.9.9,0,0,0,.24.28,1.89,1.89,0,0,0,.4.22l.54.22c.26.1.5.21.71.31a2.44,2.44,0,0,1,.54.37,1.38,1.38,0,0,1,.34.46,1.54,1.54,0,0,1,.12.63,1.47,1.47,0,0,1-.19.77,1.74,1.74,0,0,1-.53.55,2.54,2.54,0,0,1-.75.32,3.82,3.82,0,0,1-.9.1A3.41,3.41,0,0,1,176.8,67.07Z" fill="#1e1e1e"/>
      <path d="M182.75,59.76a.6.6,0,0,1-.44-.18.57.57,0,0,1-.18-.44.61.61,0,0,1,.18-.45.6.6,0,0,1,.44-.18.62.62,0,0,1,.63.63.6.6,0,0,1-.18.44A.61.61,0,0,1,182.75,59.76Zm.47,7.52h-1v-6h1Z" fill="#1e1e1e"/>
      <path d="M187.67,67.42a2.79,2.79,0,0,1-2.12-.84,3.1,3.1,0,0,1-.79-2.23,3.26,3.26,0,0,1,.82-2.36,3,3,0,0,1,2.23-.85,2.7,2.7,0,0,1,2.1.83,3.27,3.27,0,0,1,.75,2.29,3.23,3.23,0,0,1-.81,2.3A2.83,2.83,0,0,1,187.67,67.42Zm.07-5.47a1.83,1.83,0,0,0-1.46.63,2.59,2.59,0,0,0-.54,1.74,2.41,2.41,0,0,0,.55,1.68,1.83,1.83,0,0,0,1.45.62,1.75,1.75,0,0,0,1.44-.61,2.62,2.62,0,0,0,.5-1.71,2.71,2.71,0,0,0-.5-1.74A1.78,1.78,0,0,0,187.74,62Z" fill="#1e1e1e"/>
      <path d="M197.18,67.28h-1V63.86c0-1.27-.47-1.91-1.4-1.91a1.5,1.5,0,0,0-1.19.54,2.05,2.05,0,0,0-.47,1.37v3.42h-1v-6h1v1h0a2.16,2.16,0,0,1,2-1.14,1.86,1.86,0,0,1,1.51.64,2.88,2.88,0,0,1,.52,1.84Z" fill="#1e1e1e"/>
      <path d="M204.88,62.92h-5.5v-.77h5.5Zm0,2.5h-5.5v-.77h5.5Z" fill="#1e1e1e"/>
      <path d="M210.47,67.28h-1V60a2.72,2.72,0,0,1-.33.26,3.57,3.57,0,0,1-.48.28,5.77,5.77,0,0,1-.56.27,4.89,4.89,0,0,1-.58.19v-1a5.46,5.46,0,0,0,.67-.24c.24-.1.47-.21.7-.33l.65-.39a3.92,3.92,0,0,0,.52-.4h.37Z" fill="#1e1e1e"/>
      <path d="M214,67.41a.65.65,0,0,1-.65-.65.64.64,0,0,1,.19-.47.63.63,0,0,1,.46-.2.65.65,0,0,1,.47.2.64.64,0,0,1,.19.47.62.62,0,0,1-.19.46A.64.64,0,0,1,214,67.41Z" fill="#1e1e1e"/>
      <path d="M221.27,63.05a8.15,8.15,0,0,1-.19,1.87,4.41,4.41,0,0,1-.55,1.37,2.34,2.34,0,0,1-2.08,1.14,2.19,2.19,0,0,1-1.12-.28,2.32,2.32,0,0,1-.84-.81A4,4,0,0,1,216,65a8.61,8.61,0,0,1-.17-1.78,9.35,9.35,0,0,1,.18-1.94,4.63,4.63,0,0,1,.55-1.42,2.34,2.34,0,0,1,.88-.86,2.56,2.56,0,0,1,1.22-.29Q221.27,58.74,221.27,63.05Zm-1,.09c0-2.39-.57-3.58-1.71-3.58s-1.8,1.21-1.8,3.65c0,2.27.59,3.4,1.77,3.4S220.29,65.45,220.29,63.14Z" fill="#1e1e1e"/>
      <path d="M223.07,67.41a.65.65,0,0,1-.65-.65.64.64,0,0,1,.19-.47.63.63,0,0,1,.46-.2.65.65,0,0,1,.47.2.64.64,0,0,1,.19.47.62.62,0,0,1-.19.46A.64.64,0,0,1,223.07,67.41Z" fill="#1e1e1e"/>
      <path d="M230.34,63.05a8.15,8.15,0,0,1-.19,1.87,4.41,4.41,0,0,1-.55,1.37,2.34,2.34,0,0,1-2.08,1.14,2.19,2.19,0,0,1-1.12-.28,2.32,2.32,0,0,1-.84-.81A4,4,0,0,1,225,65a8.61,8.61,0,0,1-.17-1.78,9.35,9.35,0,0,1,.18-1.94,4.63,4.63,0,0,1,.55-1.42,2.34,2.34,0,0,1,.88-.86,2.56,2.56,0,0,1,1.22-.29Q230.34,58.74,230.34,63.05Zm-1,.09c0-2.39-.57-3.58-1.71-3.58s-1.8,1.21-1.8,3.65c0,2.27.59,3.4,1.77,3.4S229.36,65.45,229.36,63.14Z" fill="#1e1e1e"/>
    </g>
    <g>
      <path d="M352.24,29.2l-2.23,6H347.9l-2.12-6h2l1,3.7A5.19,5.19,0,0,1,349,34h0a6.05,6.05,0,0,1,.21-1l1.07-3.73Z" fill="#1e1e1e"/>
      <path d="M357.13,26.61V35.2h-1.84V28.7a2.65,2.65,0,0,1-.37.25,3.61,3.61,0,0,1-.44.22,3.86,3.86,0,0,1-.48.16,3.16,3.16,0,0,1-.5.1V27.87a7.71,7.71,0,0,0,1.36-.54,8,8,0,0,0,1.15-.72Z" fill="#1e1e1e"/>
      <path d="M365.32,32.31V35.2h-1.89V26.8h3c2.12,0,3.18.89,3.18,2.68a2.55,2.55,0,0,1-.91,2,3.58,3.58,0,0,1-2.44.79Zm0-4.06v2.62h.75c1,0,1.51-.44,1.51-1.32s-.51-1.3-1.51-1.3Z" fill="#1e1e1e"/>
      <path d="M373.12,35.35a3.23,3.23,0,0,1-2.36-.84,3.06,3.06,0,0,1-.86-2.29,3,3,0,0,1,.89-2.32,3.35,3.35,0,0,1,2.41-.85,3.17,3.17,0,0,1,2.35.85,3,3,0,0,1,.85,2.22,3.18,3.18,0,0,1-.88,2.36A3.24,3.24,0,0,1,373.12,35.35Zm.05-4.88a1.23,1.23,0,0,0-1,.45,2,2,0,0,0-.36,1.28c0,1.15.46,1.73,1.39,1.73s1.33-.59,1.33-1.78S374.06,30.47,373.17,30.47Z" fill="#1e1e1e"/>
      <path d="M383.47,35.2h-1.85v-.82h0a2.08,2.08,0,0,1-1.85,1,2.27,2.27,0,0,1-1.81-.8,3.25,3.25,0,0,1-.69-2.21A3.55,3.55,0,0,1,378,30a2.45,2.45,0,0,1,2-.9,1.67,1.67,0,0,1,1.61.84h0V26.32h1.85Zm-1.82-2.92v-.45a1.4,1.4,0,0,0-.34-1,1.19,1.19,0,0,0-1.84.1,2.22,2.22,0,0,0-.35,1.32,1.89,1.89,0,0,0,.34,1.22,1.09,1.09,0,0,0,.92.43,1.12,1.12,0,0,0,.92-.45A1.92,1.92,0,0,0,381.65,32.28Z" fill="#1e1e1e"/>
    </g>
    <g>
      <path d="M354.86,90.69l-2.38,8.4h-1.15L349.6,93a3.78,3.78,0,0,1-.13-.86h0a4.09,4.09,0,0,1-.15.85l-1.74,6.15h-1.14L344,90.69H345l1.79,6.44A4.57,4.57,0,0,1,347,98h0a5.24,5.24,0,0,1,.18-.85L349,90.69H350l1.78,6.49a4.72,4.72,0,0,1,.14.79h0a3.93,3.93,0,0,1,.15-.81l1.72-6.47Z" fill="#1e1e1e"/>
      <path d="M360.33,96.33h-4.24a2.3,2.3,0,0,0,.54,1.55,1.88,1.88,0,0,0,1.42.54,2.89,2.89,0,0,0,1.86-.67v.91a3.47,3.47,0,0,1-2.09.57,2.53,2.53,0,0,1-2-.82,3.35,3.35,0,0,1-.72-2.3,3.28,3.28,0,0,1,.79-2.28,2.54,2.54,0,0,1,2-.88,2.26,2.26,0,0,1,1.83.76,3.18,3.18,0,0,1,.64,2.12Zm-1-.81a2,2,0,0,0-.41-1.3,1.35,1.35,0,0,0-1.09-.46,1.57,1.57,0,0,0-1.16.48,2.24,2.24,0,0,0-.58,1.28Z" fill="#1e1e1e"/>
      <path d="M362.77,98.22h0v.87h-1V90.21h1v3.94h0a2.26,2.26,0,0,1,2.07-1.2,2.2,2.2,0,0,1,1.81.81,3.32,3.32,0,0,1,.65,2.15,3.73,3.73,0,0,1-.73,2.42,2.45,2.45,0,0,1-2,.9A2,2,0,0,1,362.77,98.22Zm0-2.42v.84a1.78,1.78,0,0,0,.49,1.26,1.72,1.72,0,0,0,2.59-.15,3,3,0,0,0,.5-1.85,2.47,2.47,0,0,0-.46-1.57,1.54,1.54,0,0,0-1.26-.57,1.7,1.7,0,0,0-1.35.58A2.15,2.15,0,0,0,362.74,95.8Z" fill="#1e1e1e"/>
      <path d="M368.47,98.87v-1a2.84,2.84,0,0,0,1.73.58c.85,0,1.27-.28,1.27-.84a.76.76,0,0,0-.11-.41,1,1,0,0,0-.29-.29,2.28,2.28,0,0,0-.44-.24l-.53-.21a6.76,6.76,0,0,1-.7-.32,2.55,2.55,0,0,1-.51-.36,1.52,1.52,0,0,1-.3-.46,1.63,1.63,0,0,1-.1-.61,1.38,1.38,0,0,1,.19-.74,1.7,1.7,0,0,1,.52-.55,2.71,2.71,0,0,1,.73-.33,3.59,3.59,0,0,1,2.25.16v1a2.71,2.71,0,0,0-1.53-.43,1.75,1.75,0,0,0-.48.06,1.15,1.15,0,0,0-.37.17.76.76,0,0,0-.24.27.67.67,0,0,0-.09.34.75.75,0,0,0,.09.39.93.93,0,0,0,.24.29,2.48,2.48,0,0,0,.4.22l.54.22a6.85,6.85,0,0,1,.71.31,2.82,2.82,0,0,1,.54.36,1.41,1.41,0,0,1,.34.47,1.46,1.46,0,0,1,.12.62,1.5,1.5,0,0,1-.19.78,1.61,1.61,0,0,1-.53.54,2.32,2.32,0,0,1-.75.33,3.82,3.82,0,0,1-.9.1A3.41,3.41,0,0,1,368.47,98.87Z" fill="#1e1e1e"/>
      <path d="M374.42,91.57a.6.6,0,0,1-.44-.18.59.59,0,0,1-.18-.44.61.61,0,0,1,.18-.45.6.6,0,0,1,.44-.18.62.62,0,0,1,.63.63.62.62,0,0,1-.18.44A.61.61,0,0,1,374.42,91.57Zm.47,7.52h-1v-6h1Z" fill="#1e1e1e"/>
      <path d="M379.62,99a1.82,1.82,0,0,1-.9.19c-1.05,0-1.57-.59-1.57-1.76V93.91h-1v-.82h1V91.63l1-.32v1.78h1.51v.82h-1.51v3.38a1.45,1.45,0,0,0,.2.86.84.84,0,0,0,.68.26,1.05,1.05,0,0,0,.63-.2Z" fill="#1e1e1e"/>
      <path d="M385.72,96.33h-4.23a2.21,2.21,0,0,0,.54,1.55,1.85,1.85,0,0,0,1.42.54,2.93,2.93,0,0,0,1.86-.67v.91a3.52,3.52,0,0,1-2.09.57,2.52,2.52,0,0,1-2-.82,3.81,3.81,0,0,1,.07-4.58,2.53,2.53,0,0,1,2-.88,2.25,2.25,0,0,1,1.82.76,3.18,3.18,0,0,1,.64,2.12Zm-1-.81a2,2,0,0,0-.4-1.3,1.36,1.36,0,0,0-1.1-.46,1.55,1.55,0,0,0-1.15.48,2.19,2.19,0,0,0-.59,1.28Z" fill="#1e1e1e"/>
    </g>
    <g>
      <path d="M310.27,54.08h-1v-.93h0a2.2,2.2,0,0,1-3.25.6,1.68,1.68,0,0,1-.5-1.26c0-1.12.66-1.77,2-2l1.8-.25c0-1-.42-1.53-1.24-1.53a3,3,0,0,0-2,.74v-1a3.68,3.68,0,0,1,2-.57c1.41,0,2.12.75,2.12,2.24Zm-1-3-1.45.2a2.3,2.3,0,0,0-1,.33,1,1,0,0,0-.34.84.93.93,0,0,0,.32.72,1.21,1.21,0,0,0,.83.28,1.55,1.55,0,0,0,1.18-.5,1.81,1.81,0,0,0,.47-1.27Z" fill="#1e1e1e"/>
      <path d="M313.06,53.22h0v3.62h-1V48.08h1v1.06h0a2.29,2.29,0,0,1,2.08-1.2,2.2,2.2,0,0,1,1.81.81,3.37,3.37,0,0,1,.65,2.16,3.76,3.76,0,0,1-.73,2.41,2.46,2.46,0,0,1-2,.9A2,2,0,0,1,313.06,53.22Zm0-2.42v.83a1.81,1.81,0,0,0,.48,1.27,1.73,1.73,0,0,0,2.6-.15,3.09,3.09,0,0,0,.49-1.86,2.41,2.41,0,0,0-.46-1.57,1.53,1.53,0,0,0-1.25-.57,1.73,1.73,0,0,0-1.35.58A2.16,2.16,0,0,0,313,50.8Z" fill="#1e1e1e"/>
      <path d="M320.12,53.22h0v3.62h-1V48.08h1v1.06h0a2.26,2.26,0,0,1,2.07-1.2,2.19,2.19,0,0,1,1.81.81,3.31,3.31,0,0,1,.65,2.16,3.71,3.71,0,0,1-.73,2.41,2.45,2.45,0,0,1-2,.9A2,2,0,0,1,320.12,53.22Zm0-2.42v.83a1.77,1.77,0,0,0,.49,1.27,1.71,1.71,0,0,0,2.59-.15,3.09,3.09,0,0,0,.5-1.86,2.47,2.47,0,0,0-.46-1.57,1.54,1.54,0,0,0-1.26-.57,1.73,1.73,0,0,0-1.35.58A2.16,2.16,0,0,0,320.09,50.8Z" fill="#1e1e1e"/>
      <path d="M335.37,49.72h-5.51V49h5.51Zm0,2.5h-5.51v-.77h5.51Z" fill="#1e1e1e"/>
      <path d="M343.94,46a1.34,1.34,0,0,0-.64-.15c-.67,0-1,.42-1,1.27v.92h1.41v.82h-1.41v5.18h-1V48.9h-1v-.82h1v-1a2,2,0,0,1,.55-1.49,1.82,1.82,0,0,1,1.36-.55,1.94,1.94,0,0,1,.7.11Z" fill="#1e1e1e"/>
      <path d="M347.86,49.06a1.18,1.18,0,0,0-.73-.2,1.25,1.25,0,0,0-1,.58,2.75,2.75,0,0,0-.41,1.59v3h-1v-6h1v1.24h0a2.17,2.17,0,0,1,.63-1,1.44,1.44,0,0,1,.94-.35,1.75,1.75,0,0,1,.58.08Z" fill="#1e1e1e"/>
      <path d="M351.41,54.22a2.79,2.79,0,0,1-2.13-.84,3.1,3.1,0,0,1-.79-2.23,3.26,3.26,0,0,1,.82-2.36,3,3,0,0,1,2.24-.85,2.69,2.69,0,0,1,2.09.83,3.27,3.27,0,0,1,.75,2.29,3.23,3.23,0,0,1-.81,2.3A2.81,2.81,0,0,1,351.41,54.22Zm.07-5.47a1.84,1.84,0,0,0-1.47.63,2.59,2.59,0,0,0-.54,1.74A2.41,2.41,0,0,0,350,52.8a1.85,1.85,0,0,0,1.46.62,1.76,1.76,0,0,0,1.43-.61,2.62,2.62,0,0,0,.5-1.71,2.71,2.71,0,0,0-.5-1.74A1.76,1.76,0,0,0,351.48,48.75Z" fill="#1e1e1e"/>
      <path d="M360.91,54.08h-1V50.66c0-1.27-.47-1.91-1.4-1.91a1.52,1.52,0,0,0-1.19.54,2.05,2.05,0,0,0-.47,1.37v3.42h-1v-6h1v1h0a2.17,2.17,0,0,1,2-1.14,1.86,1.86,0,0,1,1.51.64,2.82,2.82,0,0,1,.52,1.84Z" fill="#1e1e1e"/>
      <path d="M365.5,54a1.87,1.87,0,0,1-.89.18c-1.05,0-1.58-.58-1.58-1.75V48.9h-1v-.82h1V46.62l1-.31v1.77h1.51v.82H364v3.39a1.39,1.39,0,0,0,.21.86.81.81,0,0,0,.68.25,1,1,0,0,0,.62-.19Z" fill="#1e1e1e"/>
      <path d="M369.86,51.12h-3.2v-.76h3.2Z" fill="#1e1e1e"/>
      <path d="M376.41,51.32h-4.24a2.28,2.28,0,0,0,.54,1.55,1.87,1.87,0,0,0,1.42.55,3,3,0,0,0,1.86-.67v.9a3.5,3.5,0,0,1-2.09.57,2.56,2.56,0,0,1-2-.81,3.37,3.37,0,0,1-.72-2.3,3.25,3.25,0,0,1,.79-2.28,2.55,2.55,0,0,1,2-.89,2.24,2.24,0,0,1,1.82.77,3.15,3.15,0,0,1,.65,2.11Zm-1-.81a1.93,1.93,0,0,0-.4-1.3,1.39,1.39,0,0,0-1.1-.46,1.54,1.54,0,0,0-1.15.49,2.22,2.22,0,0,0-.59,1.27Z" fill="#1e1e1e"/>
      <path d="M382.84,54.08h-1V50.66c0-1.27-.46-1.91-1.39-1.91a1.54,1.54,0,0,0-1.2.54,2.05,2.05,0,0,0-.47,1.37v3.42h-1v-6h1v1h0a2.16,2.16,0,0,1,2-1.14,1.86,1.86,0,0,1,1.51.64,2.82,2.82,0,0,1,.52,1.84Z" fill="#1e1e1e"/>
      <path d="M389.77,54.08h-1v-1h0a2.43,2.43,0,0,1-3.87.36,3.33,3.33,0,0,1-.68-2.2,3.59,3.59,0,0,1,.75-2.38,2.48,2.48,0,0,1,2-.9,1.94,1.94,0,0,1,1.8,1h0V45.2h1Zm-1-2.71v-.88a1.7,1.7,0,0,0-.48-1.23,1.59,1.59,0,0,0-1.22-.51,1.67,1.67,0,0,0-1.38.65,2.79,2.79,0,0,0-.5,1.78,2.56,2.56,0,0,0,.48,1.64,1.57,1.57,0,0,0,1.3.6,1.66,1.66,0,0,0,1.3-.58A2.15,2.15,0,0,0,388.81,51.37Z" fill="#1e1e1e"/>
      <path d="M394.79,51.12h-3.2v-.76h3.2Z" fill="#1e1e1e"/>
      <path d="M401.5,54.08h-1V50.66c0-1.27-.47-1.91-1.4-1.91a1.5,1.5,0,0,0-1.19.54,2.05,2.05,0,0,0-.47,1.37v3.42h-1v-6h1v1h0a2.17,2.17,0,0,1,2-1.14,1.86,1.86,0,0,1,1.51.64,2.88,2.88,0,0,1,.52,1.84Z" fill="#1e1e1e"/>
      <path d="M408.43,53.6q0,3.32-3.16,3.31a4.28,4.28,0,0,1-1.95-.42v-1a4.06,4.06,0,0,0,1.93.56c1.48,0,2.22-.79,2.22-2.36v-.65h0a2.44,2.44,0,0,1-3.87.34,3.19,3.19,0,0,1-.68-2.14,3.73,3.73,0,0,1,.73-2.43,2.44,2.44,0,0,1,2-.91,2,2,0,0,1,1.8,1h0v-.84h1Zm-1-2.23v-.88a1.73,1.73,0,0,0-.48-1.23,1.62,1.62,0,0,0-1.21-.51,1.66,1.66,0,0,0-1.39.65,2.87,2.87,0,0,0-.51,1.81,2.46,2.46,0,0,0,.49,1.61,1.56,1.56,0,0,0,1.28.6,1.68,1.68,0,0,0,1.31-.58A2.12,2.12,0,0,0,407.47,51.37Z" fill="#1e1e1e"/>
      <path d="M410.87,46.56a.6.6,0,0,1-.44-.18.57.57,0,0,1-.18-.44.61.61,0,0,1,.18-.45.6.6,0,0,1,.44-.18.64.64,0,0,1,.45.18.61.61,0,0,1,.18.45.6.6,0,0,1-.18.44A.64.64,0,0,1,410.87,46.56Zm.47,7.52h-1v-6h1Z" fill="#1e1e1e"/>
      <path d="M418.26,54.08h-1V50.66c0-1.27-.46-1.91-1.39-1.91a1.54,1.54,0,0,0-1.2.54,2.05,2.05,0,0,0-.47,1.37v3.42h-1v-6h1v1h0a2.16,2.16,0,0,1,2-1.14,1.86,1.86,0,0,1,1.51.64,2.82,2.82,0,0,1,.52,1.84Z" fill="#1e1e1e"/>
      <path d="M424.46,48.08l-2,3,2,3H423.3l-1.18-1.94c-.07-.12-.16-.27-.26-.46h0l-.28.46-1.2,1.94h-1.11l2.05-2.94-2-3.06h1.12l1.16,2.05.25.47h0l1.5-2.52Z" fill="#1e1e1e"/>
      <path d="M310.69,61.28l-2.39,6h-.94l-2.28-6h1.06l1.52,4.36a4.27,4.27,0,0,1,.21.84h0a4.38,4.38,0,0,1,.19-.81l1.6-4.39Z" fill="#1e1e1e"/>
      <path d="M316.54,64.52h-4.23a2.19,2.19,0,0,0,.54,1.55,1.85,1.85,0,0,0,1.41.55,3,3,0,0,0,1.87-.67v.9a3.52,3.52,0,0,1-2.09.57,2.54,2.54,0,0,1-2-.81,3.33,3.33,0,0,1-.73-2.3A3.29,3.29,0,0,1,312.1,62a2.56,2.56,0,0,1,2-.89,2.26,2.26,0,0,1,1.82.77,3.15,3.15,0,0,1,.64,2.11Zm-1-.81a2,2,0,0,0-.4-1.29,1.38,1.38,0,0,0-1.1-.47,1.56,1.56,0,0,0-1.16.49,2.21,2.21,0,0,0-.58,1.27Z" fill="#1e1e1e"/>
      <path d="M321.13,62.26a1.2,1.2,0,0,0-.73-.2,1.25,1.25,0,0,0-1,.58,2.68,2.68,0,0,0-.41,1.59v3h-1v-6h1v1.24h0a2.17,2.17,0,0,1,.63-1,1.44,1.44,0,0,1,.94-.35,1.75,1.75,0,0,1,.58.08Z" fill="#1e1e1e"/>
      <path d="M321.8,67.07V66a2.9,2.9,0,0,0,1.73.58c.85,0,1.27-.29,1.27-.85a.72.72,0,0,0-.11-.4,1,1,0,0,0-.29-.3,2.27,2.27,0,0,0-.44-.23l-.53-.22a5.16,5.16,0,0,1-.7-.32,1.94,1.94,0,0,1-.51-.36,1.41,1.41,0,0,1-.3-.46,1.57,1.57,0,0,1-.1-.6,1.44,1.44,0,0,1,.19-.75,1.58,1.58,0,0,1,.52-.54,2.45,2.45,0,0,1,.73-.34,3.59,3.59,0,0,1,2.25.16v1A2.72,2.72,0,0,0,324,62a1.75,1.75,0,0,0-.48.06,1,1,0,0,0-.37.18.66.66,0,0,0-.24.26.7.7,0,0,0-.09.35.8.8,0,0,0,.09.39.9.9,0,0,0,.24.28,1.89,1.89,0,0,0,.4.22l.54.22c.26.1.5.21.71.31a2.44,2.44,0,0,1,.54.37,1.38,1.38,0,0,1,.34.46,1.54,1.54,0,0,1,.12.63,1.47,1.47,0,0,1-.19.77,1.74,1.74,0,0,1-.53.55,2.54,2.54,0,0,1-.75.32,3.82,3.82,0,0,1-.9.1A3.41,3.41,0,0,1,321.8,67.07Z" fill="#1e1e1e"/>
      <path d="M327.75,59.76a.6.6,0,0,1-.44-.18.57.57,0,0,1-.18-.44.61.61,0,0,1,.18-.45.6.6,0,0,1,.44-.18.62.62,0,0,1,.63.63.6.6,0,0,1-.18.44A.61.61,0,0,1,327.75,59.76Zm.47,7.52h-1v-6h1Z" fill="#1e1e1e"/>
      <path d="M332.67,67.42a2.79,2.79,0,0,1-2.12-.84,3.1,3.1,0,0,1-.79-2.23,3.26,3.26,0,0,1,.82-2.36,3,3,0,0,1,2.23-.85,2.7,2.7,0,0,1,2.1.83,3.27,3.27,0,0,1,.75,2.29,3.23,3.23,0,0,1-.81,2.3A2.83,2.83,0,0,1,332.67,67.42Zm.07-5.47a1.83,1.83,0,0,0-1.46.63,2.59,2.59,0,0,0-.54,1.74,2.41,2.41,0,0,0,.55,1.68,1.83,1.83,0,0,0,1.45.62,1.75,1.75,0,0,0,1.44-.61,2.62,2.62,0,0,0,.5-1.71,2.71,2.71,0,0,0-.5-1.74A1.78,1.78,0,0,0,332.74,62Z" fill="#1e1e1e"/>
      <path d="M342.18,67.28h-1V63.86c0-1.27-.47-1.91-1.4-1.91a1.5,1.5,0,0,0-1.19.54,2.05,2.05,0,0,0-.47,1.37v3.42h-1v-6h1v1h0a2.16,2.16,0,0,1,2-1.14,1.86,1.86,0,0,1,1.51.64,2.88,2.88,0,0,1,.52,1.84Z" fill="#1e1e1e"/>
      <path d="M349.88,62.92h-5.5v-.77h5.5Zm0,2.5h-5.5v-.77h5.5Z" fill="#1e1e1e"/>
      <path d="M355.47,67.28h-1V60a2.72,2.72,0,0,1-.33.26,3.57,3.57,0,0,1-.48.28,5.77,5.77,0,0,1-.56.27,4.89,4.89,0,0,1-.58.19v-1a5.46,5.46,0,0,0,.67-.24c.24-.1.47-.21.7-.33l.65-.39a3.92,3.92,0,0,0,.52-.4h.37Z" fill="#1e1e1e"/>
      <path d="M359,67.41a.65.65,0,0,1-.65-.65.64.64,0,0,1,.19-.47.63.63,0,0,1,.46-.2.65.65,0,0,1,.47.2.64.64,0,0,1,.19.47.62.62,0,0,1-.19.46A.64.64,0,0,1,359,67.41Z" fill="#1e1e1e"/>
      <path d="M366.27,63.05a8.15,8.15,0,0,1-.19,1.87,4.41,4.41,0,0,1-.55,1.37,2.34,2.34,0,0,1-2.08,1.14,2.19,2.19,0,0,1-1.12-.28,2.32,2.32,0,0,1-.84-.81A4,4,0,0,1,361,65a8.61,8.61,0,0,1-.17-1.78,9.35,9.35,0,0,1,.18-1.94,4.63,4.63,0,0,1,.55-1.42,2.34,2.34,0,0,1,.88-.86,2.56,2.56,0,0,1,1.22-.29Q366.27,58.74,366.27,63.05Zm-1,.09c0-2.39-.57-3.58-1.71-3.58s-1.8,1.21-1.8,3.65c0,2.27.59,3.4,1.77,3.4S365.29,65.45,365.29,63.14Z" fill="#1e1e1e"/>
      <path d="M368.07,67.41a.65.65,0,0,1-.65-.65.64.64,0,0,1,.19-.47.63.63,0,0,1,.46-.2.65.65,0,0,1,.47.2.64.64,0,0,1,.19.47.62.62,0,0,1-.19.46A.64.64,0,0,1,368.07,67.41Z" fill="#1e1e1e"/>
      <path d="M375.34,63.05a8.15,8.15,0,0,1-.19,1.87,4.41,4.41,0,0,1-.55,1.37,2.34,2.34,0,0,1-2.08,1.14,2.19,2.19,0,0,1-1.12-.28,2.32,2.32,0,0,1-.84-.81A4,4,0,0,1,370,65a8.61,8.61,0,0,1-.17-1.78,9.35,9.35,0,0,1,.18-1.94,4.63,4.63,0,0,1,.55-1.42,2.34,2.34,0,0,1,.88-.86,2.56,2.56,0,0,1,1.22-.29Q375.34,58.74,375.34,63.05Zm-1,.09c0-2.39-.57-3.58-1.71-3.58s-1.8,1.21-1.8,3.65c0,2.27.59,3.4,1.77,3.4S374.36,65.45,374.36,63.14Z" fill="#1e1e1e"/>
    </g>
    <g>
      <path d="M498.9,29.2l-2.23,6h-2.11l-2.13-6h2l1,3.7a5.3,5.3,0,0,1,.21,1.06h0a6.23,6.23,0,0,1,.22-1L497,29.2Z" fill="#1e1e1e"/>
      <path d="M503.79,26.61V35.2h-1.85V28.7a2.07,2.07,0,0,1-.36.25c-.14.08-.29.15-.44.22a4,4,0,0,1-.49.16,3,3,0,0,1-.5.1V27.87a7.41,7.41,0,0,0,1.36-.54,8.17,8.17,0,0,0,1.16-.72Z" fill="#1e1e1e"/>
      <path d="M508.67,32.31V35.2h-1.9V26.8h3c2.12,0,3.18.89,3.18,2.68a2.56,2.56,0,0,1-.92,2,3.55,3.55,0,0,1-2.43.79Zm0-4.06v2.62h.74c1,0,1.51-.44,1.51-1.32s-.5-1.3-1.51-1.3Z" fill="#1e1e1e"/>
      <path d="M516.47,35.35a3.23,3.23,0,0,1-2.36-.84,3.06,3.06,0,0,1-.86-2.29,3,3,0,0,1,.89-2.32,3.33,3.33,0,0,1,2.41-.85,3.14,3.14,0,0,1,2.34.85,3,3,0,0,1,.85,2.22,3.18,3.18,0,0,1-.87,2.36A3.27,3.27,0,0,1,516.47,35.35Zm0-4.88a1.26,1.26,0,0,0-1,.45,2,2,0,0,0-.36,1.28c0,1.15.46,1.73,1.39,1.73s1.33-.59,1.33-1.78S517.41,30.47,516.51,30.47Z" fill="#1e1e1e"/>
      <path d="M526.81,35.2H525v-.82h0a2.09,2.09,0,0,1-1.86,1,2.28,2.28,0,0,1-1.81-.8,3.25,3.25,0,0,1-.69-2.21,3.6,3.6,0,0,1,.76-2.39,2.45,2.45,0,0,1,2-.9,1.69,1.69,0,0,1,1.62.84h0V26.32h1.85ZM525,32.28v-.45a1.45,1.45,0,0,0-.34-1,1.12,1.12,0,0,0-.89-.39,1.1,1.1,0,0,0-1,.49,2.23,2.23,0,0,0-.34,1.32,2,2,0,0,0,.33,1.22,1.18,1.18,0,0,0,1.84,0A1.87,1.87,0,0,0,525,32.28Z" fill="#1e1e1e"/>
    </g>
    <g>
      <path d="M499.86,90.69l-2.38,8.4h-1.15L494.6,93a3.78,3.78,0,0,1-.13-.86h0a4.09,4.09,0,0,1-.15.85l-1.74,6.15h-1.14L489,90.69H490l1.79,6.44A4.57,4.57,0,0,1,492,98h0a5.24,5.24,0,0,1,.18-.85L494,90.69H495l1.78,6.49a4.72,4.72,0,0,1,.14.79h0a3.93,3.93,0,0,1,.15-.81l1.72-6.47Z" fill="#1e1e1e"/>
      <path d="M505.33,96.33h-4.24a2.3,2.3,0,0,0,.54,1.55,1.88,1.88,0,0,0,1.42.54,2.89,2.89,0,0,0,1.86-.67v.91a3.47,3.47,0,0,1-2.09.57,2.53,2.53,0,0,1-2-.82,3.35,3.35,0,0,1-.72-2.3,3.28,3.28,0,0,1,.79-2.28,2.54,2.54,0,0,1,2-.88,2.26,2.26,0,0,1,1.83.76,3.18,3.18,0,0,1,.64,2.12Zm-1-.81a2,2,0,0,0-.41-1.3,1.35,1.35,0,0,0-1.09-.46,1.57,1.57,0,0,0-1.16.48,2.24,2.24,0,0,0-.58,1.28Z" fill="#1e1e1e"/>
      <path d="M507.77,98.22h0v.87h-1V90.21h1v3.94h0a2.26,2.26,0,0,1,2.07-1.2,2.2,2.2,0,0,1,1.81.81,3.32,3.32,0,0,1,.65,2.15,3.73,3.73,0,0,1-.73,2.42,2.45,2.45,0,0,1-2,.9A2,2,0,0,1,507.77,98.22Zm0-2.42v.84a1.78,1.78,0,0,0,.49,1.26,1.72,1.72,0,0,0,2.59-.15,3,3,0,0,0,.5-1.85,2.47,2.47,0,0,0-.46-1.57,1.54,1.54,0,0,0-1.26-.57,1.7,1.7,0,0,0-1.35.58A2.15,2.15,0,0,0,507.74,95.8Z" fill="#1e1e1e"/>
      <path d="M513.47,98.87v-1a2.84,2.84,0,0,0,1.73.58c.85,0,1.27-.28,1.27-.84a.76.76,0,0,0-.11-.41,1,1,0,0,0-.29-.29,2.28,2.28,0,0,0-.44-.24l-.53-.21a6.76,6.76,0,0,1-.7-.32,2.55,2.55,0,0,1-.51-.36,1.52,1.52,0,0,1-.3-.46,1.63,1.63,0,0,1-.1-.61,1.38,1.38,0,0,1,.19-.74,1.7,1.7,0,0,1,.52-.55,2.71,2.71,0,0,1,.73-.33,3.59,3.59,0,0,1,2.25.16v1a2.71,2.71,0,0,0-1.53-.43,1.75,1.75,0,0,0-.48.06,1.15,1.15,0,0,0-.37.17.76.76,0,0,0-.24.27.67.67,0,0,0-.09.34.75.75,0,0,0,.09.39.93.93,0,0,0,.24.29,2.48,2.48,0,0,0,.4.22l.54.22a6.85,6.85,0,0,1,.71.31,2.82,2.82,0,0,1,.54.36,1.41,1.41,0,0,1,.34.47,1.46,1.46,0,0,1,.12.62,1.5,1.5,0,0,1-.19.78,1.61,1.61,0,0,1-.53.54,2.32,2.32,0,0,1-.75.33,3.82,3.82,0,0,1-.9.1A3.41,3.41,0,0,1,513.47,98.87Z" fill="#1e1e1e"/>
      <path d="M519.42,91.57a.6.6,0,0,1-.44-.18.59.59,0,0,1-.18-.44.61.61,0,0,1,.18-.45.6.6,0,0,1,.44-.18.62.62,0,0,1,.63.63.62.62,0,0,1-.18.44A.61.61,0,0,1,519.42,91.57Zm.47,7.52h-1v-6h1Z" fill="#1e1e1e"/>
      <path d="M524.62,99a1.82,1.82,0,0,1-.9.19c-1.05,0-1.57-.59-1.57-1.76V93.91h-1v-.82h1V91.63l1-.32v1.78h1.51v.82h-1.51v3.38a1.45,1.45,0,0,0,.2.86.84.84,0,0,0,.68.26,1.05,1.05,0,0,0,.63-.2Z" fill="#1e1e1e"/>
      <path d="M530.72,96.33h-4.23a2.21,2.21,0,0,0,.54,1.55,1.85,1.85,0,0,0,1.42.54,2.93,2.93,0,0,0,1.86-.67v.91a3.52,3.52,0,0,1-2.09.57,2.52,2.52,0,0,1-2-.82,3.81,3.81,0,0,1,.07-4.58,2.53,2.53,0,0,1,2-.88,2.25,2.25,0,0,1,1.82.76,3.18,3.18,0,0,1,.64,2.12Zm-1-.81a2,2,0,0,0-.4-1.3,1.36,1.36,0,0,0-1.1-.46,1.55,1.55,0,0,0-1.15.48,2.19,2.19,0,0,0-.59,1.28Z" fill="#1e1e1e"/>
    </g>
    <g>
      <path d="M455.27,54.08h-1v-.93h0a2.2,2.2,0,0,1-3.25.6,1.68,1.68,0,0,1-.5-1.26c0-1.12.66-1.77,2-2l1.8-.25c0-1-.42-1.53-1.24-1.53a3,3,0,0,0-2,.74v-1a3.68,3.68,0,0,1,2-.57c1.41,0,2.12.75,2.12,2.24Zm-1-3-1.45.2a2.3,2.3,0,0,0-1,.33,1,1,0,0,0-.34.84.93.93,0,0,0,.32.72,1.21,1.21,0,0,0,.83.28,1.55,1.55,0,0,0,1.18-.5,1.81,1.81,0,0,0,.47-1.27Z" fill="#1e1e1e"/>
      <path d="M458.06,53.22h0v3.62h-1V48.08h1v1.06h0a2.29,2.29,0,0,1,2.08-1.2,2.2,2.2,0,0,1,1.81.81,3.37,3.37,0,0,1,.65,2.16,3.76,3.76,0,0,1-.73,2.41,2.46,2.46,0,0,1-2,.9A2,2,0,0,1,458.06,53.22Zm0-2.42v.83a1.81,1.81,0,0,0,.48,1.27,1.73,1.73,0,0,0,2.6-.15,3.09,3.09,0,0,0,.49-1.86,2.41,2.41,0,0,0-.46-1.57,1.53,1.53,0,0,0-1.25-.57,1.73,1.73,0,0,0-1.35.58A2.16,2.16,0,0,0,458,50.8Z" fill="#1e1e1e"/>
      <path d="M465.12,53.22h0v3.62h-1V48.08h1v1.06h0a2.26,2.26,0,0,1,2.07-1.2,2.19,2.19,0,0,1,1.81.81,3.31,3.31,0,0,1,.65,2.16,3.71,3.71,0,0,1-.73,2.41,2.45,2.45,0,0,1-2,.9A2,2,0,0,1,465.12,53.22Zm0-2.42v.83a1.77,1.77,0,0,0,.49,1.27,1.71,1.71,0,0,0,2.59-.15,3.09,3.09,0,0,0,.5-1.86,2.47,2.47,0,0,0-.46-1.57,1.54,1.54,0,0,0-1.26-.57,1.73,1.73,0,0,0-1.35.58A2.16,2.16,0,0,0,465.09,50.8Z" fill="#1e1e1e"/>
      <path d="M480.37,49.72h-5.51V49h5.51Zm0,2.5h-5.51v-.77h5.51Z" fill="#1e1e1e"/>
      <path d="M488.94,46a1.34,1.34,0,0,0-.64-.15c-.67,0-1,.42-1,1.27v.92h1.41v.82h-1.41v5.18h-1V48.9h-1v-.82h1v-1a2,2,0,0,1,.55-1.49,1.82,1.82,0,0,1,1.36-.55,1.94,1.94,0,0,1,.7.11Z" fill="#1e1e1e"/>
      <path d="M492.86,49.06a1.18,1.18,0,0,0-.73-.2,1.25,1.25,0,0,0-1,.58,2.75,2.75,0,0,0-.41,1.59v3h-1v-6h1v1.24h0a2.17,2.17,0,0,1,.63-1,1.44,1.44,0,0,1,.94-.35,1.75,1.75,0,0,1,.58.08Z" fill="#1e1e1e"/>
      <path d="M496.41,54.22a2.79,2.79,0,0,1-2.13-.84,3.1,3.1,0,0,1-.79-2.23,3.26,3.26,0,0,1,.82-2.36,3,3,0,0,1,2.24-.85,2.69,2.69,0,0,1,2.09.83,3.27,3.27,0,0,1,.75,2.29,3.23,3.23,0,0,1-.81,2.3A2.81,2.81,0,0,1,496.41,54.22Zm.07-5.47a1.84,1.84,0,0,0-1.47.63,2.59,2.59,0,0,0-.54,1.74A2.41,2.41,0,0,0,495,52.8a1.85,1.85,0,0,0,1.46.62,1.76,1.76,0,0,0,1.43-.61,2.62,2.62,0,0,0,.5-1.71,2.71,2.71,0,0,0-.5-1.74A1.76,1.76,0,0,0,496.48,48.75Z" fill="#1e1e1e"/>
      <path d="M505.91,54.08h-1V50.66c0-1.27-.47-1.91-1.4-1.91a1.52,1.52,0,0,0-1.19.54,2.05,2.05,0,0,0-.47,1.37v3.42h-1v-6h1v1h0a2.17,2.17,0,0,1,2-1.14,1.86,1.86,0,0,1,1.51.64,2.82,2.82,0,0,1,.52,1.84Z" fill="#1e1e1e"/>
      <path d="M510.5,54a1.87,1.87,0,0,1-.89.18c-1.05,0-1.58-.58-1.58-1.75V48.9h-1v-.82h1V46.62l1-.31v1.77h1.51v.82H509v3.39a1.39,1.39,0,0,0,.21.86.81.81,0,0,0,.68.25,1,1,0,0,0,.62-.19Z" fill="#1e1e1e"/>
      <path d="M514.86,51.12h-3.2v-.76h3.2Z" fill="#1e1e1e"/>
      <path d="M521.41,51.32h-4.24a2.28,2.28,0,0,0,.54,1.55,1.87,1.87,0,0,0,1.42.55,3,3,0,0,0,1.86-.67v.9a3.5,3.5,0,0,1-2.09.57,2.56,2.56,0,0,1-2-.81,3.37,3.37,0,0,1-.72-2.3,3.25,3.25,0,0,1,.79-2.28,2.55,2.55,0,0,1,2-.89,2.24,2.24,0,0,1,1.82.77,3.15,3.15,0,0,1,.65,2.11Zm-1-.81a1.93,1.93,0,0,0-.4-1.3,1.39,1.39,0,0,0-1.1-.46,1.54,1.54,0,0,0-1.15.49,2.22,2.22,0,0,0-.59,1.27Z" fill="#1e1e1e"/>
      <path d="M527.84,54.08h-1V50.66c0-1.27-.46-1.91-1.39-1.91a1.54,1.54,0,0,0-1.2.54,2.05,2.05,0,0,0-.47,1.37v3.42h-1v-6h1v1h0a2.16,2.16,0,0,1,2-1.14,1.86,1.86,0,0,1,1.51.64,2.82,2.82,0,0,1,.52,1.84Z" fill="#1e1e1e"/>
      <path d="M534.77,54.08h-1v-1h0a2.43,2.43,0,0,1-3.87.36,3.33,3.33,0,0,1-.68-2.2,3.59,3.59,0,0,1,.75-2.38,2.48,2.48,0,0,1,2-.9,1.94,1.94,0,0,1,1.8,1h0V45.2h1Zm-1-2.71v-.88a1.7,1.7,0,0,0-.48-1.23,1.59,1.59,0,0,0-1.22-.51,1.67,1.67,0,0,0-1.38.65,2.79,2.79,0,0,0-.5,1.78,2.56,2.56,0,0,0,.48,1.64,1.57,1.57,0,0,0,1.3.6,1.66,1.66,0,0,0,1.3-.58A2.15,2.15,0,0,0,533.81,51.37Z" fill="#1e1e1e"/>
      <path d="M539.79,51.12h-3.2v-.76h3.2Z" fill="#1e1e1e"/>
      <path d="M546.5,54.08h-1V50.66c0-1.27-.47-1.91-1.4-1.91a1.5,1.5,0,0,0-1.19.54,2.05,2.05,0,0,0-.47,1.37v3.42h-1v-6h1v1h0a2.17,2.17,0,0,1,2-1.14,1.86,1.86,0,0,1,1.51.64,2.88,2.88,0,0,1,.52,1.84Z" fill="#1e1e1e"/>
      <path d="M553.43,53.6q0,3.32-3.16,3.31a4.28,4.28,0,0,1-1.95-.42v-1a4.06,4.06,0,0,0,1.93.56c1.48,0,2.22-.79,2.22-2.36v-.65h0a2.44,2.44,0,0,1-3.87.34,3.19,3.19,0,0,1-.68-2.14,3.73,3.73,0,0,1,.73-2.43,2.44,2.44,0,0,1,2-.91,2,2,0,0,1,1.8,1h0v-.84h1Zm-1-2.23v-.88a1.73,1.73,0,0,0-.48-1.23,1.62,1.62,0,0,0-1.21-.51,1.66,1.66,0,0,0-1.39.65,2.87,2.87,0,0,0-.51,1.81,2.46,2.46,0,0,0,.49,1.61,1.56,1.56,0,0,0,1.28.6,1.68,1.68,0,0,0,1.31-.58A2.12,2.12,0,0,0,552.47,51.37Z" fill="#1e1e1e"/>
      <path d="M555.87,46.56a.6.6,0,0,1-.44-.18.57.57,0,0,1-.18-.44.61.61,0,0,1,.18-.45.6.6,0,0,1,.44-.18.64.64,0,0,1,.45.18.61.61,0,0,1,.18.45.6.6,0,0,1-.18.44A.64.64,0,0,1,555.87,46.56Zm.47,7.52h-1v-6h1Z" fill="#1e1e1e"/>
      <path d="M563.26,54.08h-1V50.66c0-1.27-.46-1.91-1.39-1.91a1.54,1.54,0,0,0-1.2.54,2.05,2.05,0,0,0-.47,1.37v3.42h-1v-6h1v1h0a2.16,2.16,0,0,1,2-1.14,1.86,1.86,0,0,1,1.51.64,2.82,2.82,0,0,1,.52,1.84Z" fill="#1e1e1e"/>
      <path d="M569.46,48.08l-2,3,2,3H568.3l-1.18-1.94c-.07-.12-.16-.27-.26-.46h0l-.28.46-1.2,1.94h-1.11l2-2.94-2-3.06h1.12l1.16,2.05.25.47h0l1.5-2.52Z" fill="#1e1e1e"/>
      <path d="M455.69,61.28l-2.39,6h-.94l-2.28-6h1.06l1.52,4.36a4.27,4.27,0,0,1,.21.84h0a4.38,4.38,0,0,1,.19-.81l1.6-4.39Z" fill="#1e1e1e"/>
      <path d="M461.54,64.52h-4.23a2.19,2.19,0,0,0,.54,1.55,1.85,1.85,0,0,0,1.41.55,3,3,0,0,0,1.87-.67v.9a3.52,3.52,0,0,1-2.09.57,2.54,2.54,0,0,1-2-.81,3.33,3.33,0,0,1-.73-2.3A3.29,3.29,0,0,1,457.1,62a2.56,2.56,0,0,1,2-.89,2.26,2.26,0,0,1,1.82.77,3.15,3.15,0,0,1,.64,2.11Zm-1-.81a2,2,0,0,0-.4-1.29,1.38,1.38,0,0,0-1.1-.47,1.56,1.56,0,0,0-1.16.49,2.21,2.21,0,0,0-.58,1.27Z" fill="#1e1e1e"/>
      <path d="M466.13,62.26a1.2,1.2,0,0,0-.73-.2,1.25,1.25,0,0,0-1,.58,2.68,2.68,0,0,0-.41,1.59v3h-1v-6h1v1.24h0a2.17,2.17,0,0,1,.63-1,1.44,1.44,0,0,1,.94-.35,1.75,1.75,0,0,1,.58.08Z" fill="#1e1e1e"/>
      <path d="M466.8,67.07V66a2.9,2.9,0,0,0,1.73.58c.85,0,1.27-.29,1.27-.85a.72.72,0,0,0-.11-.4,1,1,0,0,0-.29-.3,2.27,2.27,0,0,0-.44-.23l-.53-.22a5.16,5.16,0,0,1-.7-.32,1.94,1.94,0,0,1-.51-.36,1.41,1.41,0,0,1-.3-.46,1.57,1.57,0,0,1-.1-.6,1.44,1.44,0,0,1,.19-.75,1.58,1.58,0,0,1,.52-.54,2.45,2.45,0,0,1,.73-.34,3.59,3.59,0,0,1,2.25.16v1A2.72,2.72,0,0,0,469,62a1.75,1.75,0,0,0-.48.06,1,1,0,0,0-.37.18.66.66,0,0,0-.24.26.7.7,0,0,0-.09.35.8.8,0,0,0,.09.39.9.9,0,0,0,.24.28,1.89,1.89,0,0,0,.4.22l.54.22c.26.1.5.21.71.31a2.44,2.44,0,0,1,.54.37,1.38,1.38,0,0,1,.34.46,1.54,1.54,0,0,1,.12.63,1.47,1.47,0,0,1-.19.77,1.74,1.74,0,0,1-.53.55,2.54,2.54,0,0,1-.75.32,3.82,3.82,0,0,1-.9.1A3.41,3.41,0,0,1,466.8,67.07Z" fill="#1e1e1e"/>
      <path d="M472.75,59.76a.6.6,0,0,1-.44-.18.57.57,0,0,1-.18-.44.61.61,0,0,1,.18-.45.6.6,0,0,1,.44-.18.62.62,0,0,1,.63.63.6.6,0,0,1-.18.44A.61.61,0,0,1,472.75,59.76Zm.47,7.52h-1v-6h1Z" fill="#1e1e1e"/>
      <path d="M477.67,67.42a2.79,2.79,0,0,1-2.12-.84,3.1,3.1,0,0,1-.79-2.23,3.26,3.26,0,0,1,.82-2.36,3,3,0,0,1,2.23-.85,2.7,2.7,0,0,1,2.1.83,3.27,3.27,0,0,1,.75,2.29,3.23,3.23,0,0,1-.81,2.3A2.83,2.83,0,0,1,477.67,67.42Zm.07-5.47a1.83,1.83,0,0,0-1.46.63,2.59,2.59,0,0,0-.54,1.74,2.41,2.41,0,0,0,.55,1.68,1.83,1.83,0,0,0,1.45.62,1.75,1.75,0,0,0,1.44-.61,2.62,2.62,0,0,0,.5-1.71,2.71,2.71,0,0,0-.5-1.74A1.78,1.78,0,0,0,477.74,62Z" fill="#1e1e1e"/>
      <path d="M487.18,67.28h-1V63.86c0-1.27-.47-1.91-1.4-1.91a1.5,1.5,0,0,0-1.19.54,2.05,2.05,0,0,0-.47,1.37v3.42h-1v-6h1v1h0a2.16,2.16,0,0,1,2-1.14,1.86,1.86,0,0,1,1.51.64,2.88,2.88,0,0,1,.52,1.84Z" fill="#1e1e1e"/>
      <path d="M494.88,62.92h-5.5v-.77h5.5Zm0,2.5h-5.5v-.77h5.5Z" fill="#1e1e1e"/>
      <path d="M500.47,67.28h-1V60a2.72,2.72,0,0,1-.33.26,3.57,3.57,0,0,1-.48.28,5.77,5.77,0,0,1-.56.27,4.89,4.89,0,0,1-.58.19v-1a5.46,5.46,0,0,0,.67-.24c.24-.1.47-.21.7-.33l.65-.39a3.92,3.92,0,0,0,.52-.4h.37Z" fill="#1e1e1e"/>
      <path d="M504,67.41a.65.65,0,0,1-.65-.65.64.64,0,0,1,.19-.47.63.63,0,0,1,.46-.2.65.65,0,0,1,.47.2.64.64,0,0,1,.19.47.62.62,0,0,1-.19.46A.64.64,0,0,1,504,67.41Z" fill="#1e1e1e"/>
      <path d="M511.27,63.05a8.15,8.15,0,0,1-.19,1.87,4.41,4.41,0,0,1-.55,1.37,2.34,2.34,0,0,1-2.08,1.14,2.19,2.19,0,0,1-1.12-.28,2.32,2.32,0,0,1-.84-.81A4,4,0,0,1,506,65a8.61,8.61,0,0,1-.17-1.78,9.35,9.35,0,0,1,.18-1.94,4.63,4.63,0,0,1,.55-1.42,2.34,2.34,0,0,1,.88-.86,2.56,2.56,0,0,1,1.22-.29Q511.27,58.74,511.27,63.05Zm-1,.09c0-2.39-.57-3.58-1.71-3.58s-1.8,1.21-1.8,3.65c0,2.27.59,3.4,1.77,3.4S510.29,65.45,510.29,63.14Z" fill="#1e1e1e"/>
      <path d="M513.07,67.41a.65.65,0,0,1-.65-.65.64.64,0,0,1,.19-.47.63.63,0,0,1,.46-.2.65.65,0,0,1,.47.2.64.64,0,0,1,.19.47.62.62,0,0,1-.19.46A.64.64,0,0,1,513.07,67.41Z" fill="#1e1e1e"/>
      <path d="M520.34,63.05a8.15,8.15,0,0,1-.19,1.87,4.41,4.41,0,0,1-.55,1.37,2.34,2.34,0,0,1-2.08,1.14,2.19,2.19,0,0,1-1.12-.28,2.32,2.32,0,0,1-.84-.81A4,4,0,0,1,515,65a8.61,8.61,0,0,1-.17-1.78,9.35,9.35,0,0,1,.18-1.94,4.63,4.63,0,0,1,.55-1.42,2.34,2.34,0,0,1,.88-.86,2.56,2.56,0,0,1,1.22-.29Q520.34,58.74,520.34,63.05Zm-1,.09c0-2.39-.57-3.58-1.71-3.58s-1.8,1.21-1.8,3.65c0,2.27.59,3.4,1.77,3.4S519.36,65.45,519.36,63.14Z" fill="#1e1e1e"/>
    </g>
    <g>
      <path d="M642.24,29.2l-2.23,6H637.9l-2.12-6h2l1,3.7A5.19,5.19,0,0,1,639,34h0a6.05,6.05,0,0,1,.21-1l1.07-3.73Z" fill="#1e1e1e"/>
      <path d="M647.13,26.61V35.2h-1.84V28.7a2.65,2.65,0,0,1-.37.25,3.61,3.61,0,0,1-.44.22,3.86,3.86,0,0,1-.48.16,3.16,3.16,0,0,1-.5.1V27.87a7.71,7.71,0,0,0,1.36-.54,8,8,0,0,0,1.15-.72Z" fill="#1e1e1e"/>
      <path d="M655.32,32.31V35.2h-1.89V26.8h3c2.12,0,3.18.89,3.18,2.68a2.55,2.55,0,0,1-.91,2,3.58,3.58,0,0,1-2.44.79Zm0-4.06v2.62h.75c1,0,1.51-.44,1.51-1.32s-.51-1.3-1.51-1.3Z" fill="#1e1e1e"/>
      <path d="M663.12,35.35a3.23,3.23,0,0,1-2.36-.84,3.06,3.06,0,0,1-.86-2.29,3,3,0,0,1,.89-2.32,3.35,3.35,0,0,1,2.41-.85,3.17,3.17,0,0,1,2.35.85,3,3,0,0,1,.85,2.22,3.18,3.18,0,0,1-.88,2.36A3.24,3.24,0,0,1,663.12,35.35Zm0-4.88a1.23,1.23,0,0,0-1,.45,2,2,0,0,0-.36,1.28c0,1.15.46,1.73,1.39,1.73s1.33-.59,1.33-1.78S664.06,30.47,663.17,30.47Z" fill="#1e1e1e"/>
      <path d="M673.47,35.2h-1.85v-.82h0a2.08,2.08,0,0,1-1.85,1,2.27,2.27,0,0,1-1.81-.8,3.25,3.25,0,0,1-.69-2.21A3.55,3.55,0,0,1,668,30a2.45,2.45,0,0,1,2-.9,1.67,1.67,0,0,1,1.61.84h0V26.32h1.85Zm-1.82-2.92v-.45a1.4,1.4,0,0,0-.34-1,1.19,1.19,0,0,0-1.84.1,2.22,2.22,0,0,0-.35,1.32,1.89,1.89,0,0,0,.34,1.22,1.09,1.09,0,0,0,.92.43,1.12,1.12,0,0,0,.92-.45A1.92,1.92,0,0,0,671.65,32.28Z" fill="#1e1e1e"/>
    </g>
    <g>
      <path d="M644.86,90.69l-2.38,8.4h-1.15L639.6,93a3.78,3.78,0,0,1-.13-.86h0a4.09,4.09,0,0,1-.15.85l-1.74,6.15h-1.14L634,90.69H635l1.79,6.44A4.57,4.57,0,0,1,637,98h0a5.24,5.24,0,0,1,.18-.85L639,90.69H640l1.78,6.49a4.72,4.72,0,0,1,.14.79h0a3.93,3.93,0,0,1,.15-.81l1.72-6.47Z" fill="#1e1e1e"/>
      <path d="M650.33,96.33h-4.24a2.3,2.3,0,0,0,.54,1.55,1.88,1.88,0,0,0,1.42.54,2.89,2.89,0,0,0,1.86-.67v.91a3.47,3.47,0,0,1-2.09.57,2.53,2.53,0,0,1-2-.82,3.35,3.35,0,0,1-.72-2.3,3.28,3.28,0,0,1,.79-2.28,2.54,2.54,0,0,1,2-.88,2.26,2.26,0,0,1,1.83.76,3.18,3.18,0,0,1,.64,2.12Zm-1-.81a2,2,0,0,0-.41-1.3,1.35,1.35,0,0,0-1.09-.46,1.57,1.57,0,0,0-1.16.48,2.24,2.24,0,0,0-.58,1.28Z" fill="#1e1e1e"/>
      <path d="M652.77,98.22h0v.87h-1V90.21h1v3.94h0a2.26,2.26,0,0,1,2.07-1.2,2.2,2.2,0,0,1,1.81.81,3.32,3.32,0,0,1,.65,2.15,3.73,3.73,0,0,1-.73,2.42,2.45,2.45,0,0,1-2,.9A2,2,0,0,1,652.77,98.22Zm0-2.42v.84a1.78,1.78,0,0,0,.49,1.26,1.72,1.72,0,0,0,2.59-.15,3,3,0,0,0,.5-1.85,2.47,2.47,0,0,0-.46-1.57,1.54,1.54,0,0,0-1.26-.57,1.7,1.7,0,0,0-1.35.58A2.15,2.15,0,0,0,652.74,95.8Z" fill="#1e1e1e"/>
      <path d="M658.47,98.87v-1a2.84,2.84,0,0,0,1.73.58c.85,0,1.27-.28,1.27-.84a.76.76,0,0,0-.11-.41,1,1,0,0,0-.29-.29,2.28,2.28,0,0,0-.44-.24l-.53-.21a6.76,6.76,0,0,1-.7-.32,2.55,2.55,0,0,1-.51-.36,1.52,1.52,0,0,1-.3-.46,1.63,1.63,0,0,1-.1-.61,1.38,1.38,0,0,1,.19-.74,1.7,1.7,0,0,1,.52-.55,2.71,2.71,0,0,1,.73-.33,3.59,3.59,0,0,1,2.25.16v1a2.71,2.71,0,0,0-1.53-.43,1.75,1.75,0,0,0-.48.06,1.15,1.15,0,0,0-.37.17.76.76,0,0,0-.24.27.67.67,0,0,0-.09.34.75.75,0,0,0,.09.39.93.93,0,0,0,.24.29,2.48,2.48,0,0,0,.4.22l.54.22a6.85,6.85,0,0,1,.71.31,2.82,2.82,0,0,1,.54.36,1.41,1.41,0,0,1,.34.47,1.46,1.46,0,0,1,.12.62,1.5,1.5,0,0,1-.19.78,1.61,1.61,0,0,1-.53.54,2.32,2.32,0,0,1-.75.33,3.82,3.82,0,0,1-.9.1A3.41,3.41,0,0,1,658.47,98.87Z" fill="#1e1e1e"/>
      <path d="M664.42,91.57a.6.6,0,0,1-.44-.18.59.59,0,0,1-.18-.44.61.61,0,0,1,.18-.45.6.6,0,0,1,.44-.18.62.62,0,0,1,.63.63.62.62,0,0,1-.18.44A.61.61,0,0,1,664.42,91.57Zm.47,7.52h-1v-6h1Z" fill="#1e1e1e"/>
      <path d="M669.62,99a1.82,1.82,0,0,1-.9.19c-1.05,0-1.57-.59-1.57-1.76V93.91h-1v-.82h1V91.63l1-.32v1.78h1.51v.82h-1.51v3.38a1.45,1.45,0,0,0,.2.86.84.84,0,0,0,.68.26,1.05,1.05,0,0,0,.63-.2Z" fill="#1e1e1e"/>
      <path d="M675.72,96.33h-4.23a2.21,2.21,0,0,0,.54,1.55,1.85,1.85,0,0,0,1.42.54,2.93,2.93,0,0,0,1.86-.67v.91a3.52,3.52,0,0,1-2.09.57,2.52,2.52,0,0,1-2-.82,3.81,3.81,0,0,1,.07-4.58,2.53,2.53,0,0,1,2-.88,2.25,2.25,0,0,1,1.82.76,3.18,3.18,0,0,1,.64,2.12Zm-1-.81a2,2,0,0,0-.4-1.3,1.36,1.36,0,0,0-1.1-.46,1.55,1.55,0,0,0-1.15.48,2.19,2.19,0,0,0-.59,1.28Z" fill="#1e1e1e"/>
    </g>
    <g>
      <path d="M600.27,54.08h-1v-.93h0a2.2,2.2,0,0,1-3.25.6,1.68,1.68,0,0,1-.5-1.26c0-1.12.66-1.77,2-2l1.8-.25c0-1-.42-1.53-1.24-1.53a3,3,0,0,0-2,.74v-1a3.68,3.68,0,0,1,2-.57c1.41,0,2.12.75,2.12,2.24Zm-1-3-1.45.2a2.3,2.3,0,0,0-1,.33,1,1,0,0,0-.34.84.93.93,0,0,0,.32.72,1.21,1.21,0,0,0,.83.28,1.55,1.55,0,0,0,1.18-.5,1.81,1.81,0,0,0,.47-1.27Z" fill="#1e1e1e"/>
      <path d="M603.06,53.22h0v3.62h-1V48.08h1v1.06h0a2.29,2.29,0,0,1,2.08-1.2,2.2,2.2,0,0,1,1.81.81,3.37,3.37,0,0,1,.65,2.16,3.76,3.76,0,0,1-.73,2.41,2.46,2.46,0,0,1-2,.9A2,2,0,0,1,603.06,53.22Zm0-2.42v.83a1.81,1.81,0,0,0,.48,1.27,1.73,1.73,0,0,0,2.6-.15,3.09,3.09,0,0,0,.49-1.86,2.41,2.41,0,0,0-.46-1.57,1.53,1.53,0,0,0-1.25-.57,1.73,1.73,0,0,0-1.35.58A2.16,2.16,0,0,0,603,50.8Z" fill="#1e1e1e"/>
      <path d="M610.12,53.22h0v3.62h-1V48.08h1v1.06h0a2.26,2.26,0,0,1,2.07-1.2,2.19,2.19,0,0,1,1.81.81,3.31,3.31,0,0,1,.65,2.16,3.71,3.71,0,0,1-.73,2.41,2.45,2.45,0,0,1-2,.9A2,2,0,0,1,610.12,53.22Zm0-2.42v.83a1.77,1.77,0,0,0,.49,1.27,1.71,1.71,0,0,0,2.59-.15,3.09,3.09,0,0,0,.5-1.86,2.47,2.47,0,0,0-.46-1.57,1.54,1.54,0,0,0-1.26-.57,1.73,1.73,0,0,0-1.35.58A2.16,2.16,0,0,0,610.09,50.8Z" fill="#1e1e1e"/>
      <path d="M625.37,49.72h-5.51V49h5.51Zm0,2.5h-5.51v-.77h5.51Z" fill="#1e1e1e"/>
      <path d="M633.94,46a1.34,1.34,0,0,0-.64-.15c-.67,0-1,.42-1,1.27v.92h1.41v.82h-1.41v5.18h-1V48.9h-1v-.82h1v-1a2,2,0,0,1,.55-1.49,1.82,1.82,0,0,1,1.36-.55,1.94,1.94,0,0,1,.7.11Z" fill="#1e1e1e"/>
      <path d="M637.86,49.06a1.18,1.18,0,0,0-.73-.2,1.25,1.25,0,0,0-1,.58,2.75,2.75,0,0,0-.41,1.59v3h-1v-6h1v1.24h0a2.17,2.17,0,0,1,.63-1,1.44,1.44,0,0,1,.94-.35,1.75,1.75,0,0,1,.58.08Z" fill="#1e1e1e"/>
      <path d="M641.41,54.22a2.79,2.79,0,0,1-2.13-.84,3.1,3.1,0,0,1-.79-2.23,3.26,3.26,0,0,1,.82-2.36,3,3,0,0,1,2.24-.85,2.69,2.69,0,0,1,2.09.83,3.27,3.27,0,0,1,.75,2.29,3.23,3.23,0,0,1-.81,2.3A2.81,2.81,0,0,1,641.41,54.22Zm.07-5.47a1.84,1.84,0,0,0-1.47.63,2.59,2.59,0,0,0-.54,1.74A2.41,2.41,0,0,0,640,52.8a1.85,1.85,0,0,0,1.46.62,1.76,1.76,0,0,0,1.43-.61,2.62,2.62,0,0,0,.5-1.71,2.71,2.71,0,0,0-.5-1.74A1.76,1.76,0,0,0,641.48,48.75Z" fill="#1e1e1e"/>
      <path d="M650.91,54.08h-1V50.66c0-1.27-.47-1.91-1.4-1.91a1.52,1.52,0,0,0-1.19.54,2.05,2.05,0,0,0-.47,1.37v3.42h-1v-6h1v1h0a2.17,2.17,0,0,1,2-1.14,1.86,1.86,0,0,1,1.51.64,2.82,2.82,0,0,1,.52,1.84Z" fill="#1e1e1e"/>
      <path d="M655.5,54a1.87,1.87,0,0,1-.89.18c-1.05,0-1.58-.58-1.58-1.75V48.9h-1v-.82h1V46.62l1-.31v1.77h1.51v.82H654v3.39a1.39,1.39,0,0,0,.21.86.81.81,0,0,0,.68.25,1,1,0,0,0,.62-.19Z" fill="#1e1e1e"/>
      <path d="M659.86,51.12h-3.2v-.76h3.2Z" fill="#1e1e1e"/>
      <path d="M666.41,51.32h-4.24a2.28,2.28,0,0,0,.54,1.55,1.87,1.87,0,0,0,1.42.55,3,3,0,0,0,1.86-.67v.9a3.5,3.5,0,0,1-2.09.57,2.56,2.56,0,0,1-2-.81,3.37,3.37,0,0,1-.72-2.3,3.25,3.25,0,0,1,.79-2.28,2.55,2.55,0,0,1,2-.89,2.24,2.24,0,0,1,1.82.77,3.15,3.15,0,0,1,.65,2.11Zm-1-.81a1.93,1.93,0,0,0-.4-1.3,1.39,1.39,0,0,0-1.1-.46,1.54,1.54,0,0,0-1.15.49,2.22,2.22,0,0,0-.59,1.27Z" fill="#1e1e1e"/>
      <path d="M672.84,54.08h-1V50.66c0-1.27-.46-1.91-1.39-1.91a1.54,1.54,0,0,0-1.2.54,2.05,2.05,0,0,0-.47,1.37v3.42h-1v-6h1v1h0a2.16,2.16,0,0,1,2-1.14,1.86,1.86,0,0,1,1.51.64,2.82,2.82,0,0,1,.52,1.84Z" fill="#1e1e1e"/>
      <path d="M679.77,54.08h-1v-1h0a2.43,2.43,0,0,1-3.87.36,3.33,3.33,0,0,1-.68-2.2,3.59,3.59,0,0,1,.75-2.38,2.48,2.48,0,0,1,2-.9,1.94,1.94,0,0,1,1.8,1h0V45.2h1Zm-1-2.71v-.88a1.7,1.7,0,0,0-.48-1.23,1.59,1.59,0,0,0-1.22-.51,1.67,1.67,0,0,0-1.38.65,2.79,2.79,0,0,0-.5,1.78,2.56,2.56,0,0,0,.48,1.64,1.57,1.57,0,0,0,1.3.6,1.66,1.66,0,0,0,1.3-.58A2.15,2.15,0,0,0,678.81,51.37Z" fill="#1e1e1e"/>
      <path d="M684.79,51.12h-3.2v-.76h3.2Z" fill="#1e1e1e"/>
      <path d="M691.5,54.08h-1V50.66c0-1.27-.47-1.91-1.4-1.91a1.5,1.5,0,0,0-1.19.54,2.05,2.05,0,0,0-.47,1.37v3.42h-1v-6h1v1h0a2.17,2.17,0,0,1,2-1.14,1.86,1.86,0,0,1,1.51.64,2.88,2.88,0,0,1,.52,1.84Z" fill="#1e1e1e"/>
      <path d="M698.43,53.6q0,3.32-3.16,3.31a4.28,4.28,0,0,1-1.95-.42v-1a4.06,4.06,0,0,0,1.93.56c1.48,0,2.22-.79,2.22-2.36v-.65h0a2.44,2.44,0,0,1-3.87.34,3.19,3.19,0,0,1-.68-2.14,3.73,3.73,0,0,1,.73-2.43,2.44,2.44,0,0,1,2-.91,2,2,0,0,1,1.8,1h0v-.84h1Zm-1-2.23v-.88a1.73,1.73,0,0,0-.48-1.23,1.62,1.62,0,0,0-1.21-.51,1.66,1.66,0,0,0-1.39.65,2.87,2.87,0,0,0-.51,1.81,2.46,2.46,0,0,0,.49,1.61,1.56,1.56,0,0,0,1.28.6,1.68,1.68,0,0,0,1.31-.58A2.12,2.12,0,0,0,697.47,51.37Z" fill="#1e1e1e"/>
      <path d="M700.87,46.56a.6.6,0,0,1-.44-.18.57.57,0,0,1-.18-.44.61.61,0,0,1,.18-.45.6.6,0,0,1,.44-.18.64.64,0,0,1,.45.18.61.61,0,0,1,.18.45.6.6,0,0,1-.18.44A.64.64,0,0,1,700.87,46.56Zm.47,7.52h-1v-6h1Z" fill="#1e1e1e"/>
      <path d="M708.26,54.08h-1V50.66c0-1.27-.46-1.91-1.39-1.91a1.54,1.54,0,0,0-1.2.54,2.05,2.05,0,0,0-.47,1.37v3.42h-1v-6h1v1h0a2.16,2.16,0,0,1,2-1.14,1.86,1.86,0,0,1,1.51.64,2.82,2.82,0,0,1,.52,1.84Z" fill="#1e1e1e"/>
      <path d="M714.46,48.08l-2,3,2,3H713.3l-1.18-1.94c-.07-.12-.16-.27-.26-.46h0l-.28.46-1.2,1.94h-1.11l2-2.94-2-3.06h1.12l1.16,2.05.25.47h0l1.5-2.52Z" fill="#1e1e1e"/>
      <path d="M600.69,61.28l-2.39,6h-.94l-2.28-6h1.06l1.52,4.36a4.27,4.27,0,0,1,.21.84h0a4.38,4.38,0,0,1,.19-.81l1.6-4.39Z" fill="#1e1e1e"/>
      <path d="M606.54,64.52h-4.23a2.19,2.19,0,0,0,.54,1.55,1.85,1.85,0,0,0,1.41.55,3,3,0,0,0,1.87-.67v.9a3.52,3.52,0,0,1-2.09.57,2.54,2.54,0,0,1-2-.81,3.33,3.33,0,0,1-.73-2.3A3.29,3.29,0,0,1,602.1,62a2.56,2.56,0,0,1,2-.89,2.26,2.26,0,0,1,1.82.77,3.15,3.15,0,0,1,.64,2.11Zm-1-.81a2,2,0,0,0-.4-1.29,1.38,1.38,0,0,0-1.1-.47,1.56,1.56,0,0,0-1.16.49,2.21,2.21,0,0,0-.58,1.27Z" fill="#1e1e1e"/>
      <path d="M611.13,62.26a1.2,1.2,0,0,0-.73-.2,1.25,1.25,0,0,0-1,.58,2.68,2.68,0,0,0-.41,1.59v3h-1v-6h1v1.24h0a2.17,2.17,0,0,1,.63-1,1.44,1.44,0,0,1,.94-.35,1.75,1.75,0,0,1,.58.08Z" fill="#1e1e1e"/>
      <path d="M611.8,67.07V66a2.9,2.9,0,0,0,1.73.58c.85,0,1.27-.29,1.27-.85a.72.72,0,0,0-.11-.4,1,1,0,0,0-.29-.3,2.27,2.27,0,0,0-.44-.23l-.53-.22a5.16,5.16,0,0,1-.7-.32,1.94,1.94,0,0,1-.51-.36,1.41,1.41,0,0,1-.3-.46,1.57,1.57,0,0,1-.1-.6,1.44,1.44,0,0,1,.19-.75,1.58,1.58,0,0,1,.52-.54,2.45,2.45,0,0,1,.73-.34,3.59,3.59,0,0,1,2.25.16v1A2.72,2.72,0,0,0,614,62a1.75,1.75,0,0,0-.48.06,1,1,0,0,0-.37.18.66.66,0,0,0-.24.26.7.7,0,0,0-.09.35.8.8,0,0,0,.09.39.9.9,0,0,0,.24.28,1.89,1.89,0,0,0,.4.22l.54.22c.26.1.5.21.71.31a2.44,2.44,0,0,1,.54.37,1.38,1.38,0,0,1,.34.46,1.54,1.54,0,0,1,.12.63,1.47,1.47,0,0,1-.19.77,1.74,1.74,0,0,1-.53.55,2.54,2.54,0,0,1-.75.32,3.82,3.82,0,0,1-.9.1A3.41,3.41,0,0,1,611.8,67.07Z" fill="#1e1e1e"/>
      <path d="M617.75,59.76a.6.6,0,0,1-.44-.18.57.57,0,0,1-.18-.44.61.61,0,0,1,.18-.45.6.6,0,0,1,.44-.18.62.62,0,0,1,.63.63.6.6,0,0,1-.18.44A.61.61,0,0,1,617.75,59.76Zm.47,7.52h-1v-6h1Z" fill="#1e1e1e"/>
      <path d="M622.67,67.42a2.79,2.79,0,0,1-2.12-.84,3.1,3.1,0,0,1-.79-2.23,3.26,3.26,0,0,1,.82-2.36,3,3,0,0,1,2.23-.85,2.7,2.7,0,0,1,2.1.83,3.27,3.27,0,0,1,.75,2.29,3.23,3.23,0,0,1-.81,2.3A2.83,2.83,0,0,1,622.67,67.42Zm.07-5.47a1.83,1.83,0,0,0-1.46.63,2.59,2.59,0,0,0-.54,1.74,2.41,2.41,0,0,0,.55,1.68,1.83,1.83,0,0,0,1.45.62,1.75,1.75,0,0,0,1.44-.61,2.62,2.62,0,0,0,.5-1.71,2.71,2.71,0,0,0-.5-1.74A1.78,1.78,0,0,0,622.74,62Z" fill="#1e1e1e"/>
      <path d="M632.18,67.28h-1V63.86c0-1.27-.47-1.91-1.4-1.91a1.5,1.5,0,0,0-1.19.54,2.05,2.05,0,0,0-.47,1.37v3.42h-1v-6h1v1h0a2.16,2.16,0,0,1,2-1.14,1.86,1.86,0,0,1,1.51.64,2.88,2.88,0,0,1,.52,1.84Z" fill="#1e1e1e"/>
      <path d="M639.88,62.92h-5.5v-.77h5.5Zm0,2.5h-5.5v-.77h5.5Z" fill="#1e1e1e"/>
      <path d="M645.47,67.28h-1V60a2.72,2.72,0,0,1-.33.26,3.57,3.57,0,0,1-.48.28,5.77,5.77,0,0,1-.56.27,4.89,4.89,0,0,1-.58.19v-1a5.46,5.46,0,0,0,.67-.24c.24-.1.47-.21.7-.33l.65-.39a3.92,3.92,0,0,0,.52-.4h.37Z" fill="#1e1e1e"/>
      <path d="M649,67.41a.65.65,0,0,1-.65-.65.64.64,0,0,1,.19-.47.63.63,0,0,1,.46-.2.65.65,0,0,1,.47.2.64.64,0,0,1,.19.47.62.62,0,0,1-.19.46A.64.64,0,0,1,649,67.41Z" fill="#1e1e1e"/>
      <path d="M656.27,63.05a8.15,8.15,0,0,1-.19,1.87,4.41,4.41,0,0,1-.55,1.37,2.34,2.34,0,0,1-2.08,1.14,2.19,2.19,0,0,1-1.12-.28,2.32,2.32,0,0,1-.84-.81A4,4,0,0,1,651,65a8.61,8.61,0,0,1-.17-1.78,9.35,9.35,0,0,1,.18-1.94,4.63,4.63,0,0,1,.55-1.42,2.34,2.34,0,0,1,.88-.86,2.56,2.56,0,0,1,1.22-.29Q656.27,58.74,656.27,63.05Zm-1,.09c0-2.39-.57-3.58-1.71-3.58s-1.8,1.21-1.8,3.65c0,2.27.59,3.4,1.77,3.4S655.29,65.45,655.29,63.14Z" fill="#1e1e1e"/>
      <path d="M658.07,67.41a.65.65,0,0,1-.65-.65.64.64,0,0,1,.19-.47.63.63,0,0,1,.46-.2.65.65,0,0,1,.47.2.64.64,0,0,1,.19.47.62.62,0,0,1-.19.46A.64.64,0,0,1,658.07,67.41Z" fill="#1e1e1e"/>
      <path d="M665.34,63.05a8.15,8.15,0,0,1-.19,1.87,4.41,4.41,0,0,1-.55,1.37,2.34,2.34,0,0,1-2.08,1.14,2.19,2.19,0,0,1-1.12-.28,2.32,2.32,0,0,1-.84-.81A4,4,0,0,1,660,65a8.61,8.61,0,0,1-.17-1.78,9.35,9.35,0,0,1,.18-1.94,4.63,4.63,0,0,1,.55-1.42,2.34,2.34,0,0,1,.88-.86,2.56,2.56,0,0,1,1.22-.29Q665.34,58.74,665.34,63.05Zm-1,.09c0-2.39-.57-3.58-1.71-3.58s-1.8,1.21-1.8,3.65c0,2.27.59,3.4,1.77,3.4S664.36,65.45,664.36,63.14Z" fill="#1e1e1e"/>
    </g>
  </g>
</svg>
