<svg width="100" height="100" viewBox="0 0 100 100" fill="none" xmlns="http://www.w3.org/2000/svg">
<g clip-path="url(#clip0)">
<path d="M49.6401 96.4501C40.382 96.4501 31.3317 93.7047 23.6339 88.5612C15.936 83.4176 9.93624 76.1069 6.3933 67.5535C2.85036 59.0001 1.92337 49.5882 3.72954 40.5079C5.53571 31.4277 9.99394 23.0869 16.5404 16.5404C23.0869 9.99393 31.4277 5.53571 40.5079 3.72954C49.5882 1.92337 59.0001 2.85036 67.5535 6.3933C76.1069 9.93624 83.4176 15.936 88.5612 23.6339C93.7047 31.3317 96.4501 40.382 96.4501 49.6401C96.4505 55.7874 95.24 61.8746 92.8878 67.554C90.5355 73.2335 87.0875 78.3939 82.7407 82.7407C78.3939 87.0875 73.2335 90.5355 67.554 92.8878C61.8746 95.24 55.7874 96.4505 49.6401 96.4501V96.4501Z" fill="url(#paint0_linear)"/>
<path fill-rule="evenodd" clip-rule="evenodd" d="M95.54 49.64C95.54 58.7182 92.848 67.5925 87.8045 75.1407C82.7609 82.6889 75.5923 88.572 67.2052 92.0461C58.818 95.5201 49.5891 96.4291 40.6854 94.658C31.7816 92.887 23.603 88.5154 17.1838 82.0962C10.7646 75.677 6.39302 67.4984 4.62196 58.5946C2.85089 49.6909 3.75987 40.462 7.23393 32.0748C10.708 23.6877 16.5911 16.5191 24.1393 11.4755C31.6875 6.43199 40.5618 3.74 49.64 3.74C55.6677 3.73998 61.6363 4.9272 67.2052 7.23388C72.774 9.54057 77.834 12.9215 82.0963 17.1837C86.3585 21.446 89.7394 26.5059 92.0461 32.0748C94.3528 37.6437 95.54 43.6123 95.54 49.64V49.64ZM49.64 3.62732e-07C59.4579 3.62732e-07 69.0553 2.91134 77.2185 8.36585C85.3818 13.8204 91.7442 21.5731 95.5014 30.6436C99.2585 39.7141 100.242 49.6951 98.3262 59.3243C96.4108 68.9535 91.6831 77.7985 84.7408 84.7408C77.7985 91.6831 68.9535 96.4108 59.3243 98.3262C49.6951 100.242 39.7141 99.2585 30.6436 95.5014C21.5731 91.7442 13.8204 85.3818 8.36585 77.2185C2.91134 69.0553 3.62732e-07 59.4579 3.62732e-07 49.64C-0.000787738 43.121 1.28265 36.6656 3.77702 30.6427C6.27138 24.6197 9.9278 19.1471 14.5375 14.5375C19.1471 9.9278 24.6197 6.27138 30.6427 3.77702C36.6656 1.28265 43.121 -0.000787738 49.64 3.62732e-07V3.62732e-07Z" fill="#F2F1F0"/>
<path fill-rule="evenodd" clip-rule="evenodd" d="M92.7296 49.6406C92.7296 58.163 90.2024 66.494 85.4676 73.5801C80.7328 80.6662 74.0031 86.1892 66.1294 89.4505C58.2558 92.7119 49.5918 93.5653 41.2332 91.9026C32.8745 90.24 25.1966 86.1361 19.1704 80.1098C13.1441 74.0836 9.0402 66.4057 7.37756 58.047C5.71493 49.6884 6.56825 41.0244 9.82963 33.1507C13.091 25.2771 18.614 18.5473 25.7001 13.8126C32.7862 9.07776 41.1172 6.55058 49.6396 6.55058C55.2984 6.55023 60.9018 7.66455 66.1298 9.82991C71.3579 11.9953 76.1083 15.1692 80.1096 19.1706C84.1109 23.1719 87.2849 27.9223 89.4503 33.1503C91.6156 38.3784 92.7299 43.9818 92.7296 49.6406V49.6406ZM49.6396 2.81058C58.9017 2.81058 67.9558 5.55711 75.657 10.7029C83.3581 15.8486 89.3604 23.1624 92.9049 31.7195C96.4493 40.2766 97.3767 49.6925 95.5698 58.7767C93.7628 67.8608 89.3027 76.2051 82.7534 82.7544C76.2041 89.3037 67.8598 93.7638 58.7757 95.5708C49.6916 97.3777 40.2756 96.4503 31.7185 92.9059C23.1615 89.3614 15.8476 83.3591 10.7019 75.6579C5.55613 67.9568 2.8096 58.9027 2.8096 49.6406C2.81079 37.2209 7.74503 25.3101 16.5271 16.5281C25.3092 7.74599 37.2199 2.81174 49.6396 2.81055V2.81058Z" fill="#0078D4"/>
<path d="M49.6395 38.0723V45.9826" stroke="#1F56A3" stroke-width="1.42631" stroke-miterlimit="10" stroke-linecap="round"/>
<path d="M73.0315 48.9082H26.2474C24.2288 48.9082 22.5923 50.5446 22.5923 52.5633V66.9988C22.5923 69.0175 24.2288 70.6539 26.2474 70.6539H73.0315C75.0502 70.6539 76.6866 69.0175 76.6866 66.9988V52.5633C76.6866 50.5446 75.0502 48.9082 73.0315 48.9082Z" fill="#B3B3B3"/>
<path d="M75.4682 46.8594H23.8107C21.7921 46.8594 20.1556 48.4958 20.1556 50.5145V64.95C20.1556 66.9686 21.7921 68.6051 23.8107 68.6051H75.4682C77.4869 68.6051 79.1233 66.9686 79.1233 64.95V50.5145C79.1233 48.4958 77.4869 46.8594 75.4682 46.8594Z" fill="#E8E8E8"/>
<path d="M77.9056 44.4922H21.3746C19.356 44.4922 17.7195 46.1286 17.7195 48.1473V62.5828C17.7195 64.6015 19.356 66.2379 21.3746 66.2379H77.9056C79.9243 66.2379 81.5607 64.6015 81.5607 62.5828V48.1473C81.5607 46.1286 79.9243 44.4922 77.9056 44.4922Z" fill="white"/>
<path d="M29.5501 61.8233C33.1165 61.8233 36.0076 58.9322 36.0076 55.3658C36.0076 51.7993 33.1165 48.9082 29.5501 48.9082C25.9837 48.9082 23.0925 51.7993 23.0925 55.3658C23.0925 58.9322 25.9837 61.8233 29.5501 61.8233Z" fill="#0078D4"/>
<path d="M29.5501 53.0898V57.7329" stroke="white" stroke-width="1.05568" stroke-linecap="round" stroke-linejoin="round"/>
<path d="M27.2285 55.4102H31.8716" stroke="white" stroke-width="1.05568" stroke-linecap="round" stroke-linejoin="round"/>
<path d="M39.9663 50.1484H46.9396" stroke="#50E6FF" stroke-width="1.42631" stroke-miterlimit="10" stroke-linecap="round"/>
<path d="M51.2642 50.1484H65.7504" stroke="#1F56A3" stroke-width="1.42631" stroke-miterlimit="10" stroke-linecap="round"/>
<path d="M39.9663 53.6562H43.4529" stroke="#1F56A3" stroke-width="1.42631" stroke-miterlimit="10" stroke-linecap="round"/>
<path d="M46.9396 53.6562H54.7508" stroke="#0078D4" stroke-width="1.42631" stroke-miterlimit="10" stroke-linecap="round"/>
<path d="M58.5073 53.6562H68.9389" stroke="#C3F1FF" stroke-width="1.42631" stroke-miterlimit="10" stroke-linecap="round"/>
<path d="M39.9663 57.166H46.9396" stroke="#C3F1FF" stroke-width="1.42631" stroke-miterlimit="10" stroke-linecap="round"/>
<path d="M51.2642 57.166H56.9803" stroke="#50E6FF" stroke-width="1.42631" stroke-miterlimit="10" stroke-linecap="round"/>
<path d="M39.9663 60.6738H54.1222" stroke="#0078D4" stroke-width="1.42631" stroke-miterlimit="10" stroke-linecap="round"/>
<path d="M58.6562 60.6738H64.4349" stroke="#C3F1FF" stroke-width="1.42631" stroke-miterlimit="10" stroke-linecap="round"/>
<path d="M54.32 41.5658C53.6657 41.5599 53.0176 41.4385 52.4055 41.2072C51.8369 40.996 51.2918 40.7264 50.7788 40.4027C50.386 40.1552 50.0063 39.8922 49.6472 39.6175C49.2694 39.9094 48.8746 40.1786 48.465 40.4238C47.9618 40.7274 47.4321 40.9848 46.8824 41.1926C46.268 41.4257 45.6183 41.552 44.9613 41.5658H44.9594C44.1265 41.5905 43.3065 41.356 42.6127 40.8945C42.0525 40.5085 41.5894 39.9979 41.2598 39.4028C40.9529 38.8424 40.7472 38.2322 40.6523 37.6004C40.5716 37.101 40.5256 36.5966 40.5144 36.0909C40.5134 35.5289 40.5503 34.9674 40.6251 34.4103C40.4235 34.326 40.2191 34.2364 40.0101 34.1408C39.5597 33.9337 39.1246 33.6952 38.7078 33.4269C38.2719 33.1478 37.8645 32.8264 37.4918 32.4673C37.0831 32.072 36.7406 31.6136 36.4774 31.1097C36.1687 30.526 36.0074 29.8757 36.0077 29.2154C36.0056 28.5624 36.1595 27.9184 36.4567 27.337C36.7239 26.8201 37.0774 26.3527 37.5021 25.955C37.8741 25.6054 38.2778 25.291 38.7078 25.016C39.1169 24.752 39.5432 24.5157 39.9838 24.3086C40.1976 24.2083 40.4113 24.1131 40.6251 24.0231C40.5515 23.4772 40.5146 22.9271 40.5145 22.3763C40.5154 21.8568 40.5577 21.3383 40.641 20.8256C40.7375 20.2006 40.9425 19.5972 41.2467 19.0428C41.5726 18.454 42.0263 17.9456 42.5743 17.5549C43.2493 17.0866 44.0556 16.8448 44.8769 16.8644C45.5587 16.8637 46.2352 16.9855 46.8739 17.2239C47.4427 17.4351 47.9879 17.705 48.5006 18.0293C48.8972 18.2792 49.2797 18.544 49.6397 18.8187C50.0091 18.5328 50.3935 18.2666 50.791 18.0213C51.3064 17.7003 51.8541 17.4344 52.4252 17.2282C53.0225 17.0123 53.6497 16.8903 54.2844 16.8663H54.2919C55.1331 16.8373 55.9625 17.0709 56.6649 17.5347C57.2267 17.9218 57.6908 18.4342 58.0206 19.0315C58.3272 19.5908 58.5326 20.1999 58.6272 20.8307C58.7075 21.33 58.7535 21.8342 58.765 22.3397C58.7662 22.9011 58.7292 23.462 58.6544 24.0184C58.8625 24.1056 59.0722 24.1986 59.2834 24.2973C59.7223 24.5032 60.1478 24.7363 60.5576 24.9953C61.0082 25.2769 61.4264 25.6073 61.8045 25.9807C62.191 26.3675 62.5206 26.8072 62.7833 27.2867C63.1174 27.8886 63.286 28.5683 63.2718 29.2565C63.2692 29.8977 63.114 30.529 62.819 31.0983C62.5533 31.6139 62.2009 32.0799 61.7773 32.4761C61.4051 32.8254 61.0015 33.1397 60.5716 33.4151C60.1626 33.679 59.7363 33.9154 59.2956 34.1224C59.081 34.2228 58.8669 34.3181 58.6534 34.4084C58.7281 34.954 58.7653 35.5041 58.765 36.0548C58.7641 36.5757 58.7211 37.0957 58.6365 37.6097C58.5405 38.2332 58.3362 38.8352 58.0328 39.3883C57.7061 39.9782 57.2512 40.4871 56.7014 40.8776C56.0277 41.3455 55.2226 41.5868 54.4026 41.5667L54.32 41.5658Z" fill="#1F56A3"/>
<path d="M61.3512 29.2155C61.3532 29.5654 61.2708 29.9106 61.111 30.2219C60.9444 30.5431 60.7239 30.8332 60.4591 31.0797C60.1731 31.3479 59.863 31.5891 59.5327 31.8003C59.1954 32.0181 58.8439 32.213 58.4805 32.3835C58.1221 32.5513 57.7637 32.7038 57.4054 32.841C57.047 32.9783 56.7344 33.085 56.4675 33.1613C56.5819 33.6416 56.6734 34.122 56.742 34.6024C56.8107 35.0835 56.8451 35.5689 56.8449 36.0549C56.8438 36.4725 56.8094 36.8894 56.742 37.3015C56.6809 37.7063 56.5493 38.0973 56.3531 38.4567C56.1654 38.7966 55.9035 39.0897 55.5869 39.3145C55.2219 39.5559 54.7884 39.6722 54.3516 39.6461C53.9138 39.6427 53.48 39.5614 53.0706 39.406C52.6267 39.2412 52.2012 39.0304 51.8011 38.777C51.3977 38.5236 51.0083 38.2487 50.6345 37.9535C50.2685 37.6637 49.9369 37.3778 49.6395 37.0957C49.3498 37.3702 49.0219 37.6561 48.6559 37.9535C48.2833 38.2555 47.8896 38.5307 47.4779 38.777C47.0744 39.0209 46.6494 39.2276 46.2084 39.3946C45.799 39.5513 45.3657 39.6364 44.9274 39.6462C44.4951 39.6639 44.0678 39.5481 43.7036 39.3145C43.3857 39.096 43.1233 38.8061 42.9373 38.4682C42.74 38.1052 42.6084 37.7103 42.5485 37.3016C42.4819 36.8891 42.4436 36.4726 42.4341 36.0549C42.434 35.5689 42.4683 35.0835 42.537 34.6024C42.6057 34.122 42.6972 33.6417 42.8115 33.1613C42.5294 33.0774 42.2168 32.9707 41.8737 32.8411C41.5306 32.7114 41.176 32.5628 40.81 32.3951C40.442 32.2262 40.0866 32.0313 39.7464 31.8118C39.4182 31.6025 39.1117 31.3611 38.8314 31.0912C38.5691 30.8381 38.349 30.5447 38.1794 30.222C38.0143 29.9122 37.9279 29.5666 37.9278 29.2155C37.9258 28.8656 38.0082 28.5204 38.168 28.2091C38.3346 27.8879 38.5551 27.5978 38.8199 27.3513C39.1059 27.0831 39.416 26.8419 39.7463 26.6307C40.0836 26.4129 40.4351 26.218 40.7986 26.0475C41.1569 25.8797 41.5153 25.7272 41.8737 25.59C42.232 25.4527 42.5446 25.346 42.8115 25.2697C42.6971 24.7894 42.6056 24.309 42.537 23.8286C42.4683 23.3475 42.4339 22.8621 42.4341 22.3761C42.4352 21.9585 42.4696 21.5416 42.537 21.1295C42.5981 20.7247 42.7297 20.3337 42.9259 19.9743C43.1136 19.6344 43.3755 19.3412 43.6922 19.1165C44.0571 18.8751 44.4906 18.7587 44.9274 18.7849C45.3652 18.7883 45.799 18.8696 46.2084 19.025C46.6524 19.1898 47.0779 19.4006 47.4779 19.654C47.8813 19.9074 48.2707 20.1823 48.6445 20.4775C48.9908 20.75 49.3229 21.0402 49.6395 21.3467C49.9292 21.0722 50.2571 20.7863 50.6231 20.489C50.9974 20.1857 51.3909 19.9068 51.8011 19.654C52.2013 19.4041 52.6269 19.197 53.0706 19.0364C53.4821 18.887 53.9142 18.8021 54.3516 18.7848C54.7839 18.7671 55.2112 18.8829 55.5754 19.1165C55.8933 19.335 56.1557 19.6249 56.3417 19.9628C56.539 20.3258 56.6706 20.7207 56.7305 21.1294C56.7972 21.5419 56.8354 21.9584 56.8449 22.3761C56.8451 22.8621 56.8107 23.3475 56.742 23.8286C56.6734 24.309 56.5819 24.7893 56.4675 25.2697C56.742 25.3535 57.0546 25.4603 57.4053 25.5899C57.7561 25.7195 58.1106 25.8682 58.469 26.0359C58.8353 26.208 59.1906 26.4028 59.5326 26.6192C59.8635 26.8246 60.1704 27.0663 60.4476 27.3398C60.7053 27.5969 60.9248 27.8896 61.0996 28.209C61.2716 28.516 61.3585 28.8635 61.3512 29.2155V29.2155ZM54.3516 19.8827C53.993 19.8893 53.6392 19.9671 53.3109 20.1115C52.9374 20.2678 52.5778 20.4553 52.2358 20.6719C51.8845 20.8934 51.5483 21.1379 51.2293 21.4039C50.9091 21.6708 50.6384 21.9071 50.4173 22.113C50.7757 22.4866 51.1111 22.8717 51.4238 23.2682C51.7364 23.6646 52.0452 24.0726 52.3502 24.4919C52.8763 24.5377 53.3948 24.6025 53.9056 24.6863C54.4165 24.7702 54.9235 24.8732 55.4268 24.9952C55.5259 24.5682 55.6059 24.1374 55.6669 23.7028C55.7278 23.2708 55.7583 22.8351 55.7584 22.3989C55.7567 22.1391 55.7414 21.8795 55.7127 21.6212C55.6842 21.3405 55.6228 21.0641 55.5297 20.7977C55.4448 20.5487 55.2994 20.3247 55.1065 20.1458C54.8983 19.964 54.6278 19.8697 54.3516 19.8827V19.8827ZM44.813 30.5193C44.6834 30.8319 44.5652 31.1407 44.4585 31.4457C44.3517 31.7507 44.245 32.0671 44.1382 32.395C44.4661 32.4788 44.7939 32.5475 45.1218 32.6008C45.4497 32.6542 45.7813 32.7038 46.1168 32.7495C45.8805 32.3835 45.6555 32.0175 45.442 31.6515C45.2285 31.2855 45.0189 30.9081 44.813 30.5193ZM44.1382 26.0359C44.2373 26.3562 44.3403 26.6726 44.447 26.9852C44.5538 27.2978 44.6758 27.6104 44.813 27.923C45.0113 27.5342 45.2209 27.1568 45.442 26.7908C45.6631 26.4248 45.888 26.055 46.1168 25.6814C45.7813 25.7271 45.4497 25.7767 45.1218 25.83C44.794 25.8834 44.4661 25.952 44.1383 26.0359H44.1382ZM45.3849 29.2155C46.0022 30.4938 46.7132 31.7248 47.5122 32.8982C47.8705 32.9287 48.2251 32.9478 48.5758 32.9554C48.9266 32.963 49.2811 32.9707 49.6395 32.9783C49.9979 32.9783 50.3524 32.9745 50.7031 32.9668C51.0539 32.9592 51.4084 32.9363 51.7668 32.8982C52.5658 31.7248 53.2768 30.4938 53.8941 29.2155C53.5739 28.5673 53.2422 27.9421 52.8991 27.3398C52.556 26.7374 52.1786 26.1351 51.7668 25.5327C51.4085 25.5098 51.0539 25.4908 50.7032 25.4755C50.3524 25.4602 49.9979 25.4526 49.6395 25.4526C49.2812 25.4526 48.9266 25.4602 48.5759 25.4755C48.2251 25.4907 47.8706 25.5098 47.5122 25.5327C47.1081 26.1274 46.7345 26.726 46.3914 27.3283C46.0483 27.9307 45.7128 28.5597 45.3849 29.2155H45.3849ZM53.1621 32.7495C53.4976 32.7114 53.8293 32.6657 54.1571 32.6123C54.4888 32.5581 54.8171 32.4855 55.1407 32.395C55.0416 32.0747 54.9387 31.7621 54.8319 31.4571C54.7252 31.1521 54.6032 30.8395 54.4659 30.5193C54.2677 30.9082 54.0618 31.2856 53.8483 31.6516C53.6348 32.0176 53.4061 32.3836 53.1622 32.7495H53.1621ZM54.466 27.923C54.5956 27.6104 54.7138 27.2978 54.8206 26.9852C54.9273 26.6726 55.0341 26.3562 55.1408 26.0359C54.8129 25.9597 54.4851 25.8949 54.1572 25.8415C53.8293 25.7881 53.4977 25.7347 53.1622 25.6814C53.391 26.0474 53.6159 26.4134 53.837 26.7794C54.0581 27.1454 54.2678 27.5266 54.466 27.923ZM50.909 24.389C50.7108 24.1221 50.5087 23.8667 50.3028 23.6227C50.097 23.3787 49.8759 23.1309 49.6395 22.8793C49.4108 23.1233 49.1934 23.3673 48.9876 23.6113C48.7817 23.8553 48.5758 24.1145 48.37 24.389C48.7893 24.3661 49.2125 24.3547 49.6395 24.3547C50.0589 24.3547 50.4821 24.3661 50.909 24.389V24.389ZM43.5206 22.3989C43.5207 22.8351 43.5513 23.2708 43.6121 23.7027C43.6731 24.1373 43.7532 24.5681 43.8523 24.9951C44.3555 24.8731 44.8626 24.7702 45.3734 24.6863C45.8843 24.6025 46.4028 24.5376 46.9289 24.4919C47.2263 24.0726 47.5313 23.6646 47.8439 23.2681C48.1622 22.8651 48.502 22.4795 48.8618 22.113C48.6331 21.8995 48.3624 21.6631 48.0498 21.4039C47.7341 21.1424 47.4017 20.9017 47.0548 20.6833C46.7082 20.4644 46.3449 20.2732 45.9683 20.1115C45.6418 19.9614 45.2868 19.8834 44.9275 19.8827C44.7924 19.8756 44.6572 19.8951 44.5296 19.9402C44.402 19.9854 44.2846 20.0552 44.1841 20.1457C43.998 20.3258 43.8535 20.5444 43.7609 20.7862C43.6587 21.0505 43.5933 21.3276 43.5665 21.6097C43.5379 21.8718 43.5226 22.1352 43.5207 22.3989H43.5206ZM43.086 32.1091C43.2385 31.6134 43.4062 31.1254 43.5892 30.6451C43.7722 30.1647 43.9705 29.6881 44.184 29.2154C43.9705 28.7427 43.7722 28.2661 43.5892 27.7858C43.4062 27.3054 43.2385 26.8174 43.086 26.3218C42.903 26.3751 42.6781 26.4476 42.4112 26.5391C42.1235 26.639 41.841 26.7535 41.5649 26.8822C41.2675 27.0194 40.9664 27.1719 40.6613 27.3397C40.3735 27.4958 40.1015 27.6797 39.8493 27.8887C39.626 28.0731 39.4262 28.2843 39.2546 28.5177C39.1014 28.7175 39.0207 28.9636 39.0259 29.2153C39.0274 29.4643 39.103 29.7072 39.2432 29.913C39.404 30.1515 39.6008 30.3637 39.8265 30.542C40.0812 30.7475 40.3528 30.9312 40.6385 31.091C40.9311 31.2564 41.2327 31.4053 41.542 31.537C41.847 31.6666 42.1329 31.781 42.3998 31.8801C42.6667 31.9793 42.8954 32.0556 43.086 32.1091ZM44.9274 38.5482C45.286 38.5416 45.6398 38.4638 45.9682 38.3194C46.3416 38.1631 46.7012 37.9756 47.0433 37.759C47.3927 37.5389 47.7287 37.2983 48.0497 37.0385C48.37 36.7792 48.6406 36.5429 48.8617 36.3294C48.5034 35.9558 48.1679 35.5707 47.8553 35.1742C47.5426 34.7777 47.2338 34.366 46.9289 33.939C46.4104 33.8933 45.8957 33.8284 45.3849 33.7446C44.874 33.6607 44.3631 33.5616 43.8523 33.4472C43.7531 33.8742 43.6731 34.3012 43.6121 34.7282C43.5507 35.1601 43.5202 35.5958 43.5206 36.032C43.5206 36.2684 43.532 36.5315 43.5549 36.8212C43.5762 37.1042 43.6418 37.3821 43.7493 37.6447C43.8438 37.8855 43.988 38.1038 44.1725 38.2852C44.3817 38.4654 44.6515 38.5595 44.9274 38.5482H44.9274ZM48.37 34.0534C48.766 34.5789 49.1898 35.0828 49.6395 35.5631C50.0818 35.0827 50.505 34.5795 50.9091 34.0534C50.4821 34.0762 50.0589 34.0877 49.6395 34.0877C49.2049 34.0877 48.7818 34.0762 48.37 34.0534ZM55.7584 36.032C55.7586 35.5996 55.728 35.1677 55.6669 34.7396C55.6059 34.3126 55.5259 33.8818 55.4267 33.4472C54.9159 33.5616 54.405 33.6607 53.8942 33.7446C53.3833 33.8285 52.8686 33.8933 52.3502 33.939C52.0528 34.3583 51.7478 34.7663 51.4352 35.1628C51.1225 35.5593 50.7832 35.9481 50.4173 36.3294C50.646 36.5429 50.9167 36.7754 51.2293 37.027C51.5419 37.2786 51.8735 37.5188 52.2243 37.7476C52.5674 37.9723 52.9312 38.1638 53.3108 38.3194C53.6396 38.4623 53.9931 38.54 54.3516 38.5482C54.6225 38.5628 54.8886 38.4727 55.095 38.2966C55.2844 38.1193 55.4294 37.8999 55.5182 37.6561C55.6186 37.3913 55.684 37.1144 55.7126 36.8326C55.7418 36.5667 55.7571 36.2995 55.7584 36.032H55.7584ZM56.193 32.1091C56.376 32.0557 56.601 31.9832 56.8678 31.8918C57.1347 31.8003 57.4206 31.6859 57.7256 31.5486C58.0306 31.4114 58.3318 31.2589 58.6292 31.0911C58.9148 30.9313 59.1864 30.7477 59.4412 30.5421C59.6668 30.3638 59.8636 30.1516 60.0244 29.9131C60.1646 29.7066 60.2438 29.4649 60.2532 29.2155C60.2511 28.9648 60.1711 28.721 60.0244 28.5178C59.8592 28.2829 59.663 28.0713 59.4412 27.8888C59.189 27.6798 58.917 27.496 58.6292 27.3398C58.3242 27.172 58.023 27.0234 57.7256 26.8938C57.4282 26.7642 57.1423 26.6498 56.8678 26.5506C56.5933 26.4515 56.3684 26.3752 56.193 26.3219C56.0405 26.8175 55.8728 27.3055 55.6898 27.7859C55.5068 28.2663 55.3085 28.7428 55.095 29.2155C55.3085 29.6882 55.5068 30.1647 55.6898 30.6451C55.8727 31.1255 56.0405 31.6134 56.193 32.1091H56.193ZM49.6395 31.4C49.3487 31.4013 49.0606 31.3429 48.7932 31.2284C48.5351 31.12 48.3017 30.9605 48.107 30.7595C47.9123 30.5552 47.7537 30.3192 47.638 30.0618C47.5164 29.7967 47.4577 29.507 47.4665 29.2155C47.4652 28.9246 47.5236 28.6365 47.638 28.3691C47.7451 28.1131 47.9004 27.8802 48.0955 27.6829C48.2971 27.4848 48.5337 27.3258 48.7932 27.214C49.0588 27.0937 49.3481 27.0351 49.6395 27.0424C49.9304 27.0411 50.2185 27.0995 50.4859 27.214C50.7419 27.321 50.9748 27.4763 51.1721 27.6714C51.3702 27.873 51.5292 28.1096 51.641 28.3691C51.7612 28.6347 51.8199 28.924 51.8126 29.2155C51.8139 29.5063 51.7555 29.7944 51.641 30.0618C51.5322 30.3202 51.3772 30.5566 51.1836 30.7595C50.986 30.9624 50.7484 31.1221 50.4859 31.2284C50.218 31.3414 49.9303 31.3998 49.6395 31.4H49.6395Z" fill="#50E6FF"/>
</g>
<defs>
<linearGradient id="paint0_linear" x1="47.8697" y1="-15.153" x2="51.8525" y2="130.615" gradientUnits="userSpaceOnUse">
<stop stop-color="#00ABDE"/>
<stop offset="1" stop-color="#007ED8"/>
</linearGradient>
<clipPath id="clip0">
<rect width="99.2799" height="99.28" fill="white"/>
</clipPath>
</defs>
</svg>
