<?xml version="1.0" encoding="utf-8"?>
<!-- Generator: Adobe Illustrator 23.0.2, SVG Export Plug-In . SVG Version: 6.00 Build 0)  -->
<svg version="1.1" xmlns="http://www.w3.org/2000/svg" xmlns:xlink="http://www.w3.org/1999/xlink" x="0px" y="0px"
	 viewBox="0 0 445.7 230.05" enable-background="new 0 0 445.7 230.05" xml:space="preserve">
<symbol  id="Deleted_Symbol_6" viewBox="0 -32 32 32">
	<rect y="-10" width="32" height="2"/>
	<rect y="-26" width="32" height="2"/>
	<rect y="-17.99" width="32" height="1.99"/>
	<rect y="-32" fill="none" width="32" height="32"/>
	<rect y="-32" fill="none" width="32" height="32"/>
</symbol>
<symbol  id="IZ_x5F_Connection" viewBox="-25 -15.63 50 31.25">
	<path fill="#7FBA00" d="M14.06,6.25c1.51,0,2.93-0.29,4.26-0.87s2.48-1.36,3.47-2.34s1.77-2.14,2.34-3.47S25-3.17,25-4.69
		s-0.29-2.93-0.87-4.26s-1.36-2.48-2.34-3.47s-2.14-1.77-3.47-2.34s-2.75-0.87-4.26-0.87H1.56c-1.51,0-2.93,0.29-4.26,0.87
		s-2.48,1.36-3.47,2.34s-1.77,2.14-2.34,3.47S-9.38-6.2-9.38-4.69s0.29,2.93,0.87,4.26c0.58,1.33,1.36,2.48,2.34,3.47
		s2.14,1.77,3.47,2.34s2.75,0.87,4.26,0.87h1.56V3.13c-1.24,0-2.42-0.14-3.55-0.43s-2.13-0.74-2.99-1.37S-4.97-0.1-5.48-1.09
		s-0.77-2.18-0.77-3.6c0-1.07,0.21-2.08,0.62-3.03c0.41-0.94,0.98-1.77,1.68-2.48s1.53-1.27,2.48-1.69s1.95-0.62,3.03-0.62h12.5
		c1.07,0,2.08,0.21,3.03,0.62s1.77,0.98,2.48,1.69s1.27,1.53,1.69,2.48s0.62,1.95,0.62,3.03c0,1.42-0.26,2.62-0.77,3.6
		s-1.2,1.79-2.06,2.42s-1.86,1.08-2.99,1.37s-2.31,0.43-3.55,0.43v3.12H14.06z"/>
	<path fill="#59B4D9" d="M-3.13-6.25v3.13c1.24,0,2.42,0.14,3.55,0.43s2.13,0.74,2.99,1.37S4.97,0.1,5.48,1.09s0.77,2.18,0.77,3.6
		c0,1.07-0.21,2.08-0.62,3.03s-0.98,1.77-1.68,2.48s-1.53,1.27-2.48,1.69s-1.95,0.62-3.03,0.62h-12.5c-1.07,0-2.08-0.21-3.03-0.62
		c-0.94-0.41-1.77-0.98-2.48-1.69s-1.27-1.53-1.69-2.48c-0.41-0.94-0.62-1.95-0.62-3.03c0-1.42,0.26-2.62,0.77-3.6
		c0.51-0.99,1.2-1.79,2.06-2.42c0.86-0.63,1.86-1.08,2.99-1.37s2.32-0.43,3.55-0.43v-3.13h-1.56c-1.51,0-2.93,0.29-4.26,0.87
		s-2.48,1.36-3.47,2.34c-0.99,0.98-1.77,2.14-2.34,3.47C-24.71,1.75-25,3.17-25,4.69s0.29,2.93,0.87,4.26
		c0.58,1.33,1.36,2.48,2.34,3.47s2.14,1.77,3.47,2.34c1.33,0.58,2.75,0.87,4.26,0.87h12.5c1.51,0,2.93-0.29,4.26-0.87
		s2.48-1.36,3.47-2.34s1.77-2.14,2.34-3.47S9.38,6.2,9.38,4.69S9.09,1.75,8.51,0.43S7.15-2.05,6.16-3.04
		C5.18-4.02,4.02-4.81,2.7-5.38s-2.75-0.87-4.26-0.87L-3.13-6.25L-3.13-6.25z"/>
</symbol>
<symbol  id="Marketplace_store" viewBox="-15.25 -19.25 30.5 38.5">
	<path fill="#0078D7" d="M13.45,9.65l-2.2-1.2l-1,1.2h-2.7v4.9c0,2.8-2.2,4.7-5.3,4.7c-0.5,0-0.9-0.1-1.3-0.1
		c0.6-0.3,1.1-0.8,1.6-1.3c1.9-0.1,3.7-1.1,3.7-3.3v-5h-3.4v4.5c0,2.8-2.2,4.7-5.3,4.7s-5.3-1.9-5.3-4.7v-4.5h-1.2h-5.1l-1.2-26.9
		l24.7-1.8l0,0h0.4l1-0.1l4.4,3.5L13.45,9.65z M-6.55,14.05c0,2.3,2,3.3,3.9,3.3s3.9-1,3.9-3.3v-4.5h-3v4.9c0,0.6,0.2,1.2,0.4,1.6
		c-0.6,0.2-1.1,0.2-1.3,0.2h-0.1c-0.2-0.6-0.4-1.2-0.4-1.8v-4.9h-3.4V14.05z"/>
</symbol>
<symbol  id="Pencil-02" viewBox="0 -16 16 16">
	<polyline fill="none" stroke="#000000" stroke-miterlimit="10" points="14.88,-4.12 4.69,-14.31 0.69,-15.31 1.69,-11.31 
		11.88,-1.12 	"/>
	<path fill="none" stroke="#000000" stroke-miterlimit="10" d="M11.88-1.12c0.83,0.83,2.17,0.83,3,0c0.83-0.83,0.83-2.17,0-3"/>
	<path fill="none" stroke="#000000" stroke-miterlimit="10" d="M4.5-14.5c0,1.66-1.34,3-3,3"/>
	<rect y="-16" fill="none" width="16" height="16"/>
	<line fill="none" stroke="#000000" stroke-miterlimit="10" x1="11" y1="-2" x2="14" y2="-5"/>
</symbol>
<symbol  id="Play-01" viewBox="0 -16 16 16">
	<g>
		<path d="M4-2.92L11.26-8L4-13.08V-2.92 M3-1v-14l10,7L3-1L3-1z"/>
	</g>
	<rect y="-16" fill="none" width="16" height="16"/>
</symbol>
<symbol  id="Repairs_x5F_01" viewBox="6 -32 20 32">
	<g>
		<path fill="#FFFFFF" d="M26-16h-4v8.59l2,2V0h-6v-5.41l2-2V-16h-4v-2h2v-11c0-1.65,1.35-3,3-3s3,1.35,3,3v11h2V-16z M20-2h2v-2.59
			l-1-1l-1,1V-2z M22-29c0-0.55-0.45-1-1-1s-1,0.45-1,1v11h2V-29z"/>
		<path fill="#FFFFFF" d="M11,0C8.24,0,6-2.24,6-5c0-1.56,0.75-3.04,2-3.98V-29c0-1.65,1.35-3,3-3s3,1.35,3,3v20.02
			c1.25,0.94,2,2.42,2,3.98C16-2.24,13.76,0,11,0z M12.5-7.58L12-7.87V-29c0-0.55-0.45-1-1-1s-1,0.45-1,1v21.13L9.5-7.58
			C8.56-7.03,8-6.07,8-5c0,1.3,0.84,2.4,2,2.82V-5l1-1l1,1v2.82C13.16-2.6,14-3.7,14-5C14-6.07,13.44-7.03,12.5-7.58z"/>
	</g>
</symbol>
<symbol  id="Video_x5F_02" viewBox="0 -16 16 16">
	<rect x="0.5" y="-11.5" fill="none" stroke="#101010" stroke-miterlimit="10" width="11" height="7"/>
	<rect y="-16" fill="none" width="16" height="16"/>
	<polygon fill="none" stroke="#101010" stroke-miterlimit="10" points="11.5,-9.25 15.5,-11.25 15.5,-4.75 11.5,-6.75 	"/>
</symbol>
<symbol  id="Virtual_network" viewBox="-19.8 -10.7 39.6 21.4">
	<g>
		<polygon fill="#0078D7" points="19.8,0 17.4,2.4 9.1,10.7 7.7,9.3 17.1,0 7.7,-9.3 9.1,-10.7 17.4,-2.4 		"/>
		<polygon fill="#0078D7" points="-19.8,0 -17.3,2.4 -9.1,10.7 -7.7,9.3 -17.1,0 -7.7,-9.3 -9.1,-10.7 -17.3,-2.4 		"/>
		<path fill="#0078D7" d="M-4.8,0c0-1.3-1.1-2.4-2.4-2.4c-1.4,0-2.4,1.1-2.4,2.4s1.1,2.4,2.4,2.4C-5.8,2.4-4.8,1.3-4.8,0z"/>
		<path fill="#0078D7" d="M0,2.4c1.3,0,2.4-1.1,2.4-2.4S1.3-2.4,0-2.4S-2.4-1.3-2.4,0S-1.3,2.4,0,2.4z"/>
		<path fill="#0078D7" d="M7.2,2.4c1.3,0,2.4-1.1,2.4-2.4S8.5-2.4,7.2-2.4C5.8-2.4,4.8-1.3,4.8,0S5.8,2.4,7.2,2.4z"/>
	</g>
</symbol>
<symbol  id="W10_x5F_CheckboxIndeterminate_x5F_16" viewBox="-4 -4 8 8">
	<rect x="-4" y="-4" width="8" height="8"/>
</symbol>
<symbol  id="W10_x5F_Checkbox_x5F_16" viewBox="-8 -8 16 16">
	<g>
		<path d="M7,7V-7H-7V7H7 M8,8H-8V-8H8V8L8,8z"/>
	</g>
</symbol>
<symbol  id="W10_x5F_Undo" viewBox="-5.91 -7.91 11.82 15.82">
	<path fill="none" stroke="#FFFFFF" stroke-miterlimit="10" d="M-2.56-7.56l6.53,6.53c1.91,1.91,1.91,5.02,0,6.93L3.91,5.98
		c-1.91,1.91-5.02,1.91-6.93,0l-2.54-2.53"/>
</symbol>
<symbol  id="gripper_x5F_16" viewBox="0 -16 16 16">
	<polygon fill="none" stroke="#231F20" stroke-miterlimit="10" points="9.5,-15.5 15.5,-9.5 15.5,-15.5 	"/>
	<rect y="-16" fill="none" width="16" height="16"/>
</symbol>
<symbol  id="smallbox_x5F_32" viewBox="0 -32 32 32">
	<rect x="8" y="-24" width="16" height="16"/>
	<rect y="-32" fill="none" width="32" height="32"/>
</symbol>
<symbol  id="unlock" viewBox="0 -16 16 16">
	<rect x="2.5" y="-15.5" fill="none" stroke="#000000" stroke-miterlimit="10" width="11" height="8"/>
	<rect y="-16" fill="none" width="16" height="16"/>
	<path d="M8,0C5.72,0,4-1.74,4-4h1c0,1.71,1.29,3,3,3s3-1.29,3-3v-3H6v-1h6v4C12-1.74,10.28,0,8,0z"/>
</symbol>
<g id="Shapes">
	<g id="Wrench_tool_x28_s_x29_">
	</g>
	<g id="user2">
	</g>
	<g id="user2_1_">
	</g>
	<g id="user2_4_">
	</g>
	<g id="user2_3_">
	</g>
	<g id="user2_2_">
	</g>
	<g id="Internet_2">
	</g>
	<g id="Enterprise">
	</g>
	<g id="Tunnel__x28_stackable_x29_">
	</g>
	<g id="New_Symbol">
	</g>
	<g id="New_Symbol_1">
	</g>
	<g id="Files">
	</g>
	<g id="BlobBlock">
	</g>
	<g id="E_x5F_Enterprise">
	</g>
	<g id="E_x5F_AD_FS">
	</g>
	<g id="C_x5F_Azure_Active_Directory">
	</g>
	<rect fill="#FFFFFF" width="445.7" height="230.05"/>
	<g>
		<g>
			<line fill="none" stroke="#107C10" stroke-miterlimit="10" x1="51.37" y1="66.59" x2="51.37" y2="122.94"/>
			<g>
				<polygon fill="#107C10" points="47.63,121.85 51.37,128.32 55.11,121.85 				"/>
			</g>
		</g>
	</g>
	<g>
		<path fill="#80BCEB" d="M73.87,34.24v32.34h-45V34.24c0-1.55,1.26-2.81,2.81-2.81h39.38C72.61,31.43,73.87,32.69,73.87,34.24z"/>
		<circle cx="33.08" cy="34.95" r="1.41"/>
		<circle fill="#414042" cx="37.3" cy="34.95" r="1.41"/>
		<circle fill="#414042" cx="41.52" cy="34.95" r="1.41"/>
		<path fill="#AAD2F2" d="M73.87,34.24v27.42l-2.81-2.81l-1.41-17.58l-16.88-0.7l-9.14-9.14h27.42
			C72.61,31.43,73.87,32.69,73.87,34.24z"/>
		<rect x="30.98" y="37.76" fill="#231F20" width="40.78" height="26.72"/>
		<path fill="#FFFFFF" d="M35.95,46.9v0.97H35.4V46.9c-0.56,0.02-1.12-0.11-1.61-0.39v-1.02c0.22,0.18,0.47,0.31,0.74,0.39
			c0.28,0.1,0.57,0.16,0.87,0.16v-1.96c-0.52-0.2-0.98-0.5-1.36-0.9c-0.21-0.28-0.32-0.62-0.31-0.97c0-0.43,0.17-0.84,0.47-1.15
			c0.32-0.33,0.75-0.53,1.2-0.58v-0.8h0.55v0.79c0.45-0.02,0.89,0.07,1.29,0.25v0.96c-0.38-0.26-0.83-0.41-1.29-0.41v2.11
			c0.5,0.19,0.96,0.48,1.35,0.85c0.52,0.61,0.48,1.51-0.09,2.07C36.87,46.63,36.43,46.84,35.95,46.9z M35.41,43.1v-1.78
			c-0.21,0.03-0.39,0.14-0.53,0.29c-0.13,0.15-0.2,0.34-0.2,0.53c-0.01,0.19,0.05,0.38,0.16,0.54C34.99,42.86,35.18,43,35.41,43.1
			L35.41,43.1z M35.95,44.33v1.72c0.51-0.11,0.76-0.37,0.76-0.79C36.69,44.82,36.38,44.44,35.95,44.33z"/>
		<path fill="#FFFFFF" d="M41.95,48.22h-3.8v-0.53h3.8V48.22z"/>
		<polygon fill="#414042" points="71.76,37.76 71.76,59.56 49.96,37.76 		"/>
	</g>
	<g>
		<g>
			<circle fill="#505050" cx="51.37" cy="81.89" r="10"/>
			<g>
				<path fill="#FFFFFF" d="M52.55,77.73v8.59H51.2v-6.93c-0.25,0.18-0.51,0.33-0.79,0.45s-0.61,0.23-0.97,0.33v-1.16
					c0.23-0.07,0.45-0.15,0.66-0.23s0.42-0.17,0.62-0.28s0.41-0.21,0.62-0.34s0.42-0.27,0.65-0.43H52.55z"/>
			</g>
		</g>
	</g>
	<g>
		<path fill="#107C10" d="M51.37,110.8c-3.86,0.09-7.05-2.97-7.14-6.82c0-0.11,0-0.21,0-0.32c-0.09-3.86,2.97-7.05,6.82-7.14
			c0.11,0,0.21,0,0.32,0c3.86-0.09,7.05,2.97,7.14,6.82c0,0.11,0,0.21,0,0.32c0.09,3.86-2.97,7.05-6.82,7.14
			C51.58,110.8,51.47,110.8,51.37,110.8z"/>
		<path fill="#107C10" d="M51.37,96.87c3.66-0.08,6.7,2.82,6.78,6.48c0,0.1,0,0.2,0,0.3c0.08,3.66-2.82,6.7-6.48,6.78
			c-0.1,0-0.2,0-0.3,0c-3.66,0.08-6.7-2.82-6.78-6.48c0-0.1,0-0.2,0-0.3c-0.08-3.66,2.82-6.7,6.48-6.78
			C51.17,96.87,51.27,96.87,51.37,96.87 M51.37,96.16c-4.04-0.1-7.4,3.1-7.5,7.14c0,0.12,0,0.24,0,0.36c-0.1,4.04,3.1,7.4,7.14,7.5
			c0.12,0,0.24,0,0.36,0c4.04,0.1,7.4-3.1,7.5-7.14c0-0.12,0-0.24,0-0.36c0.1-4.04-3.1-7.4-7.14-7.5
			C51.6,96.15,51.49,96.15,51.37,96.16z"/>
		<polygon fill="#FFFFFF" points="47.08,103.66 47.08,103.66 48.15,102.58 48.15,102.58 48.15,102.58 50.29,104.73 54.58,100.44 
			54.58,100.44 54.58,100.44 55.65,101.51 55.65,101.51 55.65,101.51 50.29,106.87 		"/>
	</g>
	<g>
		<g>
			<g>
				<path fill="#FFFFFF" d="M91.1,149.29c5.5,0,10,4.5,10,10v58.99c0,5.5-4.5,10-10,10H11.63c-5.5,0-10-4.5-10-10v-58.99
					c0-5.5,4.5-10,10-10"/>
				<path opacity="0.1" fill="#0072C6" d="M101.1,218.28c0,5.5-4.5,10-10,10H11.63c-5.5,0-10-4.5-10-10v-58.99c0-5.5,4.5-10,10-10
					H91.1c5.5,0,10,4.5,10,10V218.28z"/>
			</g>
			<path fill="#0072C6" d="M91.1,228.86h-0.19v-1.15h0.19c1.2,0,2.37-0.23,3.48-0.67l0.43,1.07
				C93.76,228.6,92.45,228.85,91.1,228.86z M88.93,228.86h-3.97v-1.15h3.97V228.86z M82.97,228.86h-3.97v-1.15h3.97V228.86z
				 M77.01,228.86h-3.97v-1.15h3.97V228.86z M71.05,228.86h-3.97v-1.15h3.97V228.86z M65.09,228.86h-3.97v-1.15h3.97V228.86z
				 M59.13,228.86h-3.97v-1.15h3.97V228.86z M53.17,228.86h-3.97v-1.15h3.97V228.86z M47.21,228.86h-3.97v-1.15h3.97V228.86z
				 M41.25,228.86h-3.97v-1.15h3.97V228.86z M35.29,228.86h-3.97v-1.15h3.97V228.86z M29.33,228.86h-3.97v-1.15h3.97V228.86z
				 M23.37,228.86H19.4v-1.15h3.97V228.86z M17.41,228.86h-3.97v-1.15h3.97V228.86z M11.44,228.85c-1.41-0.03-2.78-0.33-4.07-0.9
				l0.47-1.05c1.15,0.51,2.37,0.78,3.63,0.8L11.44,228.85z M96.87,227.13l-0.63-0.96c1.05-0.69,1.95-1.57,2.66-2.61l0.95,0.65
				C99.05,225.38,98.05,226.36,96.87,227.13z M5.54,226.91c-1.15-0.82-2.12-1.83-2.87-3.03l0.97-0.61c0.67,1.06,1.53,1.97,2.56,2.7
				L5.54,226.91z M100.85,222.37l-1.06-0.45c0.49-1.16,0.74-2.38,0.74-3.64l1.15-0.04v0.04C101.68,219.7,101.4,221.07,100.85,222.37
				z M1.74,222.01c-0.45-1.19-0.68-2.45-0.68-3.73v-0.37h1.15v0.37c0,1.14,0.2,2.26,0.61,3.32L1.74,222.01z M101.68,216.25h-1.15
				v-3.97h1.15V216.25z M2.21,215.92H1.06v-3.97h1.15V215.92z M101.68,210.29h-1.15v-3.97h1.15V210.29z M2.21,209.96H1.06v-3.97
				h1.15V209.96z M101.68,204.33h-1.15v-3.97h1.15V204.33z M2.21,204H1.06v-3.97h1.15V204z M101.68,198.37h-1.15v-3.97h1.15V198.37z
				 M2.21,198.05H1.06v-3.97h1.15V198.05z M101.68,192.41h-1.15v-3.97h1.15V192.41z M2.21,192.09H1.06v-3.97h1.15V192.09z
				 M101.68,186.46h-1.15v-3.97h1.15V186.46z M2.21,186.13H1.06v-3.97h1.15V186.13z M101.68,180.5h-1.15v-3.97h1.15V180.5z
				 M2.21,180.17H1.06v-3.97h1.15V180.17z M101.68,174.54h-1.15v-3.97h1.15V174.54z M2.21,174.21H1.06v-3.97h1.15V174.21z
				 M101.68,168.58h-1.15v-3.97h1.15V168.58z M2.21,168.25H1.06v-3.97h1.15V168.25z M101.68,162.62h-1.15v-3.33
				c0-0.2-0.01-0.41-0.02-0.61l1.15-0.07c0.01,0.23,0.02,0.45,0.02,0.68V162.62z M2.21,162.29H1.06v-3c0-0.35,0.02-0.69,0.05-1.03
				l1.14,0.11c-0.03,0.3-0.04,0.6-0.04,0.91V162.29z M100.2,156.84c-0.33-1.21-0.89-2.33-1.67-3.33l0.91-0.71
				c0.87,1.12,1.5,2.37,1.87,3.73L100.2,156.84z M2.62,156.54l-1.1-0.34c0.41-1.34,1.08-2.58,1.99-3.67l0.88,0.74
				C3.58,154.24,2.99,155.34,2.62,156.54z M97.25,152.16c-0.96-0.83-2.05-1.44-3.24-1.83l0.36-1.09c1.34,0.44,2.56,1.13,3.63,2.06
				L97.25,152.16z M5.72,151.96L5,151.06c1.1-0.89,2.35-1.54,3.7-1.93l0.32,1.1C7.82,150.58,6.71,151.16,5.72,151.96z M92.19,149.92
				c-0.36-0.04-0.72-0.06-1.09-0.06h-2.82v-1.15h2.82c0.41,0,0.82,0.02,1.22,0.07L92.19,149.92z M10.85,149.89l-0.09-1.15
				c0.29-0.02,0.58-0.04,0.87-0.04h1.15v1.15h-1.15C11.37,149.86,11.11,149.87,10.85,149.89z M86.29,149.86h-3.97v-1.15h3.97V149.86
				z M80.34,149.86h-3.97v-1.15h3.97V149.86z M74.38,149.86H70.4v-1.15h3.97V149.86z M68.42,149.86h-3.97v-1.15h3.97V149.86z
				 M62.46,149.86h-3.97v-1.15h3.97V149.86z M56.5,149.86h-3.97v-1.15h3.97V149.86z M50.54,149.86h-3.97v-1.15h3.97V149.86z
				 M44.58,149.86H42.6v-1.15h1.97V149.86z"/>
		</g>
		<g>
			<path fill="#3999C6" d="M40.08,149.66c0.26-0.26,0.21-0.68,0-0.94l-1.25-1.25l-5.64-5.49c-0.26-0.26-0.63-0.26-0.89,0l0,0
				c-0.26,0.26-0.31,0.68,0,0.94l5.9,5.8c0.26,0.26,0.26,0.68,0,0.94l-6.01,6.01c-0.26,0.26-0.26,0.68,0,0.94l0,0
				c0.26,0.26,0.68,0.21,0.89,0l5.59-5.54c0,0,0,0,0.05-0.05L40.08,149.66z"/>
			<path fill="#3999C6" d="M14.28,149.66c-0.26-0.26-0.21-0.68,0-0.94l1.25-1.25l5.64-5.49c0.26-0.26,0.63-0.26,0.89,0l0,0
				c0.26,0.26,0.31,0.68,0,0.94l-5.8,5.8c-0.26,0.26-0.26,0.68,0,0.94l5.9,6.01c0.26,0.26,0.26,0.68,0,0.94l0,0
				c-0.26,0.26-0.68,0.21-0.89,0l-5.69-5.49c0,0,0,0-0.05-0.05L14.28,149.66z"/>
			<path fill="#7FBA00" d="M23.63,149.19c0,0.99-0.84,1.72-1.72,1.72s-1.83-0.84-1.83-1.72s0.73-1.72,1.83-1.72
				C22.95,147.47,23.63,148.3,23.63,149.19z"/>
			<path fill="#7FBA00" d="M28.9,149.19c0,0.99-0.84,1.72-1.72,1.72s-1.83-0.84-1.83-1.72s0.84-1.72,1.83-1.72
				S28.9,148.3,28.9,149.19z"/>
			<circle fill="#7FBA00" cx="32.51" cy="149.19" r="1.72"/>
		</g>
	</g>
	<g>
		<g>
			<g>
				<path fill="#FFFFFF" d="M256.24,149.29c5.5,0,10,4.5,10,10v58.99c0,5.5-4.5,10-10,10h-79.47c-5.5,0-10-4.5-10-10v-58.99
					c0-5.5,4.5-10,10-10"/>
				<path opacity="0.1" fill="#0072C6" d="M266.24,218.28c0,5.5-4.5,10-10,10h-79.47c-5.5,0-10-4.5-10-10v-58.99c0-5.5,4.5-10,10-10
					h79.47c5.5,0,10,4.5,10,10V218.28z"/>
			</g>
			<path fill="#0072C6" d="M256.24,228.86h-0.19v-1.15h0.19c1.2,0,2.37-0.23,3.48-0.67l0.43,1.07
				C258.9,228.6,257.59,228.85,256.24,228.86z M254.07,228.86h-3.97v-1.15h3.97V228.86z M248.11,228.86h-3.97v-1.15h3.97V228.86z
				 M242.15,228.86h-3.97v-1.15h3.97V228.86z M236.19,228.86h-3.97v-1.15h3.97V228.86z M230.23,228.86h-3.97v-1.15h3.97V228.86z
				 M224.27,228.86h-3.97v-1.15h3.97V228.86z M218.31,228.86h-3.97v-1.15h3.97V228.86z M212.35,228.86h-3.97v-1.15h3.97V228.86z
				 M206.39,228.86h-3.97v-1.15h3.97V228.86z M200.43,228.86h-3.97v-1.15h3.97V228.86z M194.47,228.86h-3.97v-1.15h3.97V228.86z
				 M188.51,228.86h-3.97v-1.15h3.97V228.86z M182.55,228.86h-3.97v-1.15h3.97V228.86z M176.58,228.85
				c-1.41-0.03-2.78-0.33-4.07-0.9l0.47-1.05c1.15,0.51,2.37,0.78,3.63,0.8L176.58,228.85z M262.01,227.13l-0.63-0.96
				c1.05-0.69,1.95-1.57,2.66-2.61l0.95,0.65C264.19,225.38,263.19,226.36,262.01,227.13z M170.69,226.91
				c-1.15-0.82-2.12-1.83-2.87-3.03l0.97-0.61c0.67,1.06,1.53,1.97,2.56,2.7L170.69,226.91z M265.99,222.37l-1.06-0.45
				c0.49-1.16,0.74-2.38,0.74-3.64l1.15-0.04v0.04C266.82,219.7,266.54,221.07,265.99,222.37z M166.88,222.01
				c-0.45-1.19-0.68-2.45-0.68-3.73v-0.37h1.15v0.37c0,1.14,0.2,2.26,0.61,3.32L166.88,222.01z M266.82,216.25h-1.15v-3.97h1.15
				V216.25z M167.35,215.92h-1.15v-3.97h1.15V215.92z M266.82,210.29h-1.15v-3.97h1.15V210.29z M167.35,209.96h-1.15v-3.97h1.15
				V209.96z M266.82,204.33h-1.15v-3.97h1.15V204.33z M167.35,204h-1.15v-3.97h1.15V204z M266.82,198.37h-1.15v-3.97h1.15V198.37z
				 M167.35,198.05h-1.15v-3.97h1.15V198.05z M266.82,192.41h-1.15v-3.97h1.15V192.41z M167.35,192.09h-1.15v-3.97h1.15V192.09z
				 M266.82,186.46h-1.15v-3.97h1.15V186.46z M167.35,186.13h-1.15v-3.97h1.15V186.13z M266.82,180.5h-1.15v-3.97h1.15V180.5z
				 M167.35,180.17h-1.15v-3.97h1.15V180.17z M266.82,174.54h-1.15v-3.97h1.15V174.54z M167.35,174.21h-1.15v-3.97h1.15V174.21z
				 M266.82,168.58h-1.15v-3.97h1.15V168.58z M167.35,168.25h-1.15v-3.97h1.15V168.25z M266.82,162.62h-1.15v-3.33
				c0-0.2-0.01-0.41-0.02-0.61l1.15-0.07c0.01,0.23,0.02,0.45,0.02,0.68V162.62z M167.35,162.29h-1.15v-3
				c0-0.35,0.02-0.69,0.05-1.03l1.14,0.11c-0.03,0.3-0.04,0.6-0.04,0.91V162.29z M265.34,156.84c-0.33-1.21-0.89-2.33-1.67-3.33
				l0.91-0.71c0.87,1.12,1.5,2.37,1.87,3.73L265.34,156.84z M167.76,156.54l-1.1-0.34c0.41-1.34,1.08-2.58,1.99-3.67l0.88,0.74
				C168.72,154.24,168.13,155.34,167.76,156.54z M262.39,152.16c-0.96-0.83-2.05-1.44-3.24-1.83l0.36-1.09
				c1.34,0.44,2.56,1.13,3.63,2.06L262.39,152.16z M170.86,151.96l-0.72-0.89c1.1-0.89,2.35-1.54,3.7-1.93l0.32,1.1
				C172.96,150.58,171.85,151.16,170.86,151.96z M257.33,149.92c-0.36-0.04-0.72-0.06-1.09-0.06h-2.82v-1.15h2.82
				c0.41,0,0.82,0.02,1.22,0.07L257.33,149.92z M176,149.89l-0.09-1.15c0.29-0.02,0.58-0.04,0.87-0.04h1.15v1.15h-1.15
				C176.51,149.86,176.25,149.87,176,149.89z M251.44,149.86h-3.97v-1.15h3.97V149.86z M245.48,149.86h-3.97v-1.15h3.97V149.86z
				 M239.52,149.86h-3.97v-1.15h3.97V149.86z M233.56,149.86h-3.97v-1.15h3.97V149.86z M227.6,149.86h-3.97v-1.15h3.97V149.86z
				 M221.64,149.86h-3.97v-1.15h3.97V149.86z M215.68,149.86h-3.97v-1.15h3.97V149.86z M209.72,149.86h-1.97v-1.15h1.97V149.86z"/>
		</g>
		<g>
			<path fill="#3999C6" d="M205.22,149.66c0.26-0.26,0.21-0.68,0-0.94l-1.25-1.25l-5.64-5.49c-0.26-0.26-0.63-0.26-0.89,0l0,0
				c-0.26,0.26-0.31,0.68,0,0.94l5.9,5.8c0.26,0.26,0.26,0.68,0,0.94l-6.01,6.01c-0.26,0.26-0.26,0.68,0,0.94l0,0
				c0.26,0.26,0.68,0.21,0.89,0l5.59-5.54c0,0,0,0,0.05-0.05L205.22,149.66z"/>
			<path fill="#3999C6" d="M179.42,149.66c-0.26-0.26-0.21-0.68,0-0.94l1.25-1.25l5.64-5.49c0.26-0.26,0.63-0.26,0.89,0l0,0
				c0.26,0.26,0.31,0.68,0,0.94l-5.8,5.8c-0.26,0.26-0.26,0.68,0,0.94l5.9,6.01c0.26,0.26,0.26,0.68,0,0.94l0,0
				c-0.26,0.26-0.68,0.21-0.89,0l-5.69-5.49c0,0,0,0-0.05-0.05L179.42,149.66z"/>
			<path fill="#7FBA00" d="M188.77,149.19c0,0.99-0.84,1.72-1.72,1.72s-1.83-0.84-1.83-1.72s0.73-1.72,1.83-1.72
				C188.09,147.47,188.77,148.3,188.77,149.19z"/>
			<path fill="#7FBA00" d="M194.04,149.19c0,0.99-0.84,1.72-1.72,1.72s-1.83-0.84-1.83-1.72s0.84-1.72,1.83-1.72
				C193.31,147.47,194.04,148.3,194.04,149.19z"/>
			<circle fill="#7FBA00" cx="197.65" cy="149.19" r="1.72"/>
		</g>
	</g>
	<g>
		<g>
			<g>
				<path fill="#FFFFFF" d="M421.45,149.29c5.5,0,10,4.5,10,10v58.99c0,5.5-4.5,10-10,10h-79.47c-5.5,0-10-4.5-10-10v-58.99
					c0-5.5,4.5-10,10-10"/>
				<path opacity="0.1" fill="#0072C6" d="M431.45,218.28c0,5.5-4.5,10-10,10h-79.47c-5.5,0-10-4.5-10-10v-58.99c0-5.5,4.5-10,10-10
					h79.47c5.5,0,10,4.5,10,10V218.28z"/>
			</g>
			<path fill="#0072C6" d="M421.45,228.86h-0.19v-1.15h0.19c1.2,0,2.37-0.23,3.48-0.67l0.43,1.07
				C424.11,228.6,422.8,228.85,421.45,228.86z M419.27,228.86h-3.97v-1.15h3.97V228.86z M413.31,228.86h-3.97v-1.15h3.97V228.86z
				 M407.35,228.86h-3.97v-1.15h3.97V228.86z M401.39,228.86h-3.97v-1.15h3.97V228.86z M395.44,228.86h-3.97v-1.15h3.97V228.86z
				 M389.48,228.86h-3.97v-1.15h3.97V228.86z M383.52,228.86h-3.97v-1.15h3.97V228.86z M377.56,228.86h-3.97v-1.15h3.97V228.86z
				 M371.6,228.86h-3.97v-1.15h3.97V228.86z M365.64,228.86h-3.97v-1.15h3.97V228.86z M359.68,228.86h-3.97v-1.15h3.97V228.86z
				 M353.72,228.86h-3.97v-1.15h3.97V228.86z M347.76,228.86h-3.97v-1.15h3.97V228.86z M341.79,228.85
				c-1.41-0.03-2.78-0.33-4.07-0.9l0.47-1.05c1.15,0.51,2.37,0.78,3.63,0.8L341.79,228.85z M427.22,227.13l-0.63-0.96
				c1.05-0.69,1.95-1.57,2.66-2.61l0.95,0.65C429.4,225.38,428.4,226.36,427.22,227.13z M335.89,226.91
				c-1.15-0.82-2.12-1.83-2.87-3.03l0.97-0.61c0.67,1.06,1.53,1.97,2.56,2.7L335.89,226.91z M431.2,222.37l-1.06-0.45
				c0.49-1.16,0.74-2.38,0.74-3.64l1.15-0.04v0.04C432.02,219.7,431.75,221.07,431.2,222.37z M332.09,222.01
				c-0.45-1.19-0.68-2.45-0.68-3.73v-0.37h1.15v0.37c0,1.14,0.2,2.26,0.61,3.32L332.09,222.01z M432.02,216.25h-1.15v-3.97h1.15
				V216.25z M332.56,215.92h-1.15v-3.97h1.15V215.92z M432.02,210.29h-1.15v-3.97h1.15V210.29z M332.56,209.96h-1.15v-3.97h1.15
				V209.96z M432.02,204.33h-1.15v-3.97h1.15V204.33z M332.56,204h-1.15v-3.97h1.15V204z M432.02,198.37h-1.15v-3.97h1.15V198.37z
				 M332.56,198.05h-1.15v-3.97h1.15V198.05z M432.02,192.41h-1.15v-3.97h1.15V192.41z M332.56,192.09h-1.15v-3.97h1.15V192.09z
				 M432.02,186.46h-1.15v-3.97h1.15V186.46z M332.56,186.13h-1.15v-3.97h1.15V186.13z M432.02,180.5h-1.15v-3.97h1.15V180.5z
				 M332.56,180.17h-1.15v-3.97h1.15V180.17z M432.02,174.54h-1.15v-3.97h1.15V174.54z M332.56,174.21h-1.15v-3.97h1.15V174.21z
				 M432.02,168.58h-1.15v-3.97h1.15V168.58z M332.56,168.25h-1.15v-3.97h1.15V168.25z M432.02,162.62h-1.15v-3.33
				c0-0.2-0.01-0.41-0.02-0.61l1.15-0.07c0.01,0.23,0.02,0.45,0.02,0.68V162.62z M332.56,162.29h-1.15v-3
				c0-0.35,0.02-0.69,0.05-1.03l1.14,0.11c-0.03,0.3-0.04,0.6-0.04,0.91V162.29z M430.55,156.84c-0.33-1.21-0.89-2.33-1.67-3.33
				l0.91-0.71c0.87,1.12,1.5,2.37,1.87,3.73L430.55,156.84z M332.97,156.54l-1.1-0.34c0.41-1.34,1.08-2.58,1.99-3.67l0.88,0.74
				C333.93,154.24,333.33,155.34,332.97,156.54z M427.59,152.16c-0.96-0.83-2.05-1.44-3.24-1.83l0.36-1.09
				c1.34,0.44,2.56,1.13,3.63,2.06L427.59,152.16z M336.07,151.96l-0.72-0.89c1.1-0.89,2.35-1.54,3.7-1.93l0.32,1.1
				C338.16,150.58,337.06,151.16,336.07,151.96z M422.53,149.92c-0.36-0.04-0.72-0.06-1.09-0.06h-2.82v-1.15h2.82
				c0.41,0,0.82,0.02,1.22,0.07L422.53,149.92z M341.2,149.89l-0.09-1.15c0.29-0.02,0.58-0.04,0.87-0.04h1.15v1.15h-1.15
				C341.72,149.86,341.46,149.87,341.2,149.89z M416.64,149.86h-3.97v-1.15h3.97V149.86z M410.68,149.86h-3.97v-1.15h3.97V149.86z
				 M404.72,149.86h-3.97v-1.15h3.97V149.86z M398.76,149.86h-3.97v-1.15h3.97V149.86z M392.8,149.86h-3.97v-1.15h3.97V149.86z
				 M386.84,149.86h-3.97v-1.15h3.97V149.86z M380.89,149.86h-3.97v-1.15h3.97V149.86z M374.93,149.86h-1.97v-1.15h1.97V149.86z"/>
		</g>
		<g>
			<path fill="#3999C6" d="M370.43,149.66c0.26-0.26,0.21-0.68,0-0.94l-1.25-1.25l-5.64-5.49c-0.26-0.26-0.63-0.26-0.89,0l0,0
				c-0.26,0.26-0.31,0.68,0,0.94l5.9,5.8c0.26,0.26,0.26,0.68,0,0.94l-6.01,6.01c-0.26,0.26-0.26,0.68,0,0.94l0,0
				c0.26,0.26,0.68,0.21,0.89,0l5.59-5.54c0,0,0,0,0.05-0.05L370.43,149.66z"/>
			<path fill="#3999C6" d="M344.63,149.66c-0.26-0.26-0.21-0.68,0-0.94l1.25-1.25l5.64-5.49c0.26-0.26,0.63-0.26,0.89,0l0,0
				c0.26,0.26,0.31,0.68,0,0.94l-5.8,5.8c-0.26,0.26-0.26,0.68,0,0.94l5.9,6.01c0.26,0.26,0.26,0.68,0,0.94l0,0
				c-0.26,0.26-0.68,0.21-0.89,0l-5.69-5.49c0,0,0,0-0.05-0.05L344.63,149.66z"/>
			<path fill="#7FBA00" d="M353.98,149.19c0,0.99-0.84,1.72-1.72,1.72c-0.89,0-1.83-0.84-1.83-1.72s0.73-1.72,1.83-1.72
				C353.3,147.47,353.98,148.3,353.98,149.19z"/>
			<path fill="#7FBA00" d="M359.25,149.19c0,0.99-0.84,1.72-1.72,1.72s-1.83-0.84-1.83-1.72s0.84-1.72,1.83-1.72
				S359.25,148.3,359.25,149.19z"/>
			<circle fill="#7FBA00" cx="362.86" cy="149.19" r="1.72"/>
		</g>
	</g>
	<g>
		<path fill="#7A7A7A" d="M58.24,196.13h-1.11H46.16h-0.56c1.49,5.3-0.56,6.13-9.48,6.13v2.79h11.34h8.27h10.68v-2.79
			C57.59,202.26,56.75,201.52,58.24,196.13z"/>
		<path fill="#3E3E3E" d="M71.81,162.3H30.65c-1.39,0-2.51,1.21-2.51,2.6v28.62c0,1.39,1.11,2.6,2.51,2.6h41.16
			c1.39,0,2.79-1.21,2.79-2.6V164.9C74.59,163.51,73.2,162.3,71.81,162.3z M71.06,165.83v26.67H31.67v-26.67l39.39-0.09V165.83z"/>
		<polygon fill="#00BBF1" points="70.97,165.83 70.97,192.6 31.67,192.6 31.67,165.83 71.06,165.83 		"/>
		<path fill="#7A7A7A" d="M31.67,192.6L31.67,192.6v-26.76h35.96l4.18-3.53l0,0H30.65c-1.39,0-2.51,1.21-2.51,2.6v28.62
			c0,1.39,1.11,2.6,2.51,2.6h1.02l4.27-3.53H31.67z"/>
		<polygon fill="#59B4D9" points="31.67,192.6 31.67,192.6 31.67,165.83 67.63,165.83 67.63,165.83 31.67,165.83 		"/>
		<rect x="36.22" y="202.26" fill="#B0B0B0" width="30.38" height="2.79"/>
		<path opacity="0.9" fill="#FFFFFF" enable-background="new    " d="M51.37,178.75h-0.09l-8.18-4.74c-0.09,0-0.09-0.09-0.09-0.19
			s0.09-0.19,0.09-0.19l8.08-4.65c0.09,0,0.19,0,0.28,0l8.18,4.74c0.09,0,0.09,0.09,0.09,0.19s0,0.19-0.09,0.19l-8.08,4.65
			C51.46,178.75,51.37,178.75,51.37,178.75z"/>
		<path opacity="0.8" fill="#FFFFFF" enable-background="new    " d="M50.16,190.18h-0.09l-8.18-4.65c-0.09,0-0.09-0.09-0.09-0.19
			v-9.48c0-0.09,0-0.19,0.09-0.19c0.09,0,0.19,0,0.28,0l8.18,4.65c0.09,0,0.09,0.09,0.09,0.19v9.39c0,0.09-0.09,0.19-0.09,0.19
			C50.25,190.18,50.25,190.18,50.16,190.18z"/>
		<path opacity="0.5" fill="#FFFFFF" enable-background="new    " d="M52.48,190.18h-0.09c-0.09,0-0.09-0.09-0.09-0.19v-9.39
			c0-0.09,0.09-0.19,0.09-0.19l8.18-4.65c0.09,0,0.19,0,0.28,0s0.09,0.09,0.09,0.19v9.39c0,0.09-0.09,0.19-0.09,0.19l-8.18,4.65
			C52.57,190.18,52.48,190.18,52.48,190.18z"/>
	</g>
	<g>
		<path fill="#7A7A7A" d="M222.66,196.13h-1.11h-10.96h-0.56c1.49,5.3-0.56,6.13-9.48,6.13v2.79h11.34h8.27h10.68v-2.79
			C222.01,202.26,221.17,201.52,222.66,196.13z"/>
		<path fill="#3E3E3E" d="M236.23,162.3h-41.16c-1.39,0-2.51,1.21-2.51,2.6v28.62c0,1.39,1.11,2.6,2.51,2.6h41.16
			c1.39,0,2.79-1.21,2.79-2.6V164.9C239.01,163.51,237.62,162.3,236.23,162.3z M235.48,165.83v26.67h-39.39v-26.67l39.39-0.09
			V165.83z"/>
		<polygon fill="#00BBF1" points="235.39,165.83 235.39,192.6 196.09,192.6 196.09,165.83 235.48,165.83 		"/>
		<path fill="#7A7A7A" d="M196.09,192.6L196.09,192.6v-26.76h35.96l4.18-3.53l0,0h-41.16c-1.39,0-2.51,1.21-2.51,2.6v28.62
			c0,1.39,1.11,2.6,2.51,2.6h1.02l4.27-3.53H196.09z"/>
		<polygon fill="#59B4D9" points="196.09,192.6 196.09,192.6 196.09,165.83 232.05,165.83 232.05,165.83 196.09,165.83 		"/>
		<rect x="200.64" y="202.26" fill="#B0B0B0" width="30.38" height="2.79"/>
		<path opacity="0.9" fill="#FFFFFF" enable-background="new    " d="M215.79,178.75h-0.09l-8.18-4.74c-0.09,0-0.09-0.09-0.09-0.19
			s0.09-0.19,0.09-0.19l8.08-4.65c0.09,0,0.19,0,0.28,0l8.18,4.74c0.09,0,0.09,0.09,0.09,0.19s0,0.19-0.09,0.19l-8.08,4.65
			C215.88,178.75,215.79,178.75,215.79,178.75z"/>
		<path opacity="0.8" fill="#FFFFFF" enable-background="new    " d="M214.58,190.18h-0.09l-8.18-4.65c-0.09,0-0.09-0.09-0.09-0.19
			v-9.48c0-0.09,0-0.19,0.09-0.19s0.19,0,0.28,0l8.18,4.65c0.09,0,0.09,0.09,0.09,0.19v9.39c0,0.09-0.09,0.19-0.09,0.19
			C214.67,190.18,214.67,190.18,214.58,190.18z"/>
		<path opacity="0.5" fill="#FFFFFF" enable-background="new    " d="M216.9,190.18h-0.09c-0.09,0-0.09-0.09-0.09-0.19v-9.39
			c0-0.09,0.09-0.19,0.09-0.19l8.18-4.65c0.09,0,0.19,0,0.28,0s0.09,0.09,0.09,0.19v9.39c0,0.09-0.09,0.19-0.09,0.19l-8.18,4.65
			C216.99,190.18,216.9,190.18,216.9,190.18z"/>
	</g>
	<g>
		<path fill="#7A7A7A" d="M387.66,196.13h-1.11h-10.96h-0.56c1.49,5.3-0.56,6.13-9.48,6.13v2.79h11.34h8.27h10.68v-2.79
			C387.01,202.26,386.17,201.52,387.66,196.13z"/>
		<path fill="#3E3E3E" d="M401.23,162.3h-41.16c-1.39,0-2.51,1.21-2.51,2.6v28.62c0,1.39,1.11,2.6,2.51,2.6h41.16
			c1.39,0,2.79-1.21,2.79-2.6V164.9C404.01,163.51,402.62,162.3,401.23,162.3z M400.48,165.83v26.67h-39.39v-26.67l39.39-0.09
			V165.83z"/>
		<polygon fill="#00BBF1" points="400.39,165.83 400.39,192.6 361.09,192.6 361.09,165.83 400.48,165.83 		"/>
		<path fill="#7A7A7A" d="M361.09,192.6L361.09,192.6v-26.76h35.96l4.18-3.53l0,0h-41.16c-1.39,0-2.51,1.21-2.51,2.6v28.62
			c0,1.39,1.11,2.6,2.51,2.6h1.02l4.27-3.53H361.09z"/>
		<polygon fill="#59B4D9" points="361.09,192.6 361.09,192.6 361.09,165.83 397.05,165.83 397.05,165.83 361.09,165.83 		"/>
		<rect x="365.64" y="202.26" fill="#B0B0B0" width="30.38" height="2.79"/>
		<path opacity="0.9" fill="#FFFFFF" enable-background="new    " d="M380.79,178.75h-0.09l-8.18-4.74c-0.09,0-0.09-0.09-0.09-0.19
			s0.09-0.19,0.09-0.19l8.08-4.65c0.09,0,0.19,0,0.28,0l8.18,4.74c0.09,0,0.09,0.09,0.09,0.19s0,0.19-0.09,0.19l-8.08,4.65
			C380.88,178.75,380.79,178.75,380.79,178.75z"/>
		<path opacity="0.8" fill="#FFFFFF" enable-background="new    " d="M379.58,190.18h-0.09l-8.18-4.65c-0.09,0-0.09-0.09-0.09-0.19
			v-9.48c0-0.09,0-0.19,0.09-0.19c0.09,0,0.19,0,0.28,0l8.18,4.65c0.09,0,0.09,0.09,0.09,0.19v9.39c0,0.09-0.09,0.19-0.09,0.19
			C379.67,190.18,379.67,190.18,379.58,190.18z"/>
		<path opacity="0.5" fill="#FFFFFF" enable-background="new    " d="M381.9,190.18h-0.09c-0.09,0-0.09-0.09-0.09-0.19v-9.39
			c0-0.09,0.09-0.19,0.09-0.19l8.18-4.65c0.09,0,0.19,0,0.28,0c0.09,0,0.09,0.09,0.09,0.19v9.39c0,0.09-0.09,0.19-0.09,0.19
			l-8.18,4.65C381.99,190.18,381.9,190.18,381.9,190.18z"/>
	</g>
	<g>
		<g>
			<path fill="#3999C6" d="M301.95,210.41c0.23-0.23,0.18-0.59,0-0.81l-1.09-1.09l-4.89-4.75c-0.23-0.23-0.54-0.23-0.77,0l0,0
				c-0.23,0.23-0.27,0.59,0,0.81l5.12,5.03c0.23,0.23,0.23,0.59,0,0.81l-5.21,5.21c-0.23,0.23-0.23,0.59,0,0.81l0,0
				c0.23,0.23,0.59,0.18,0.77,0l4.84-4.8c0,0,0,0,0.05-0.05L301.95,210.41z"/>
			<path fill="#3999C6" d="M279.58,210.41c-0.23-0.23-0.18-0.59,0-0.81l1.09-1.09l4.89-4.75c0.23-0.23,0.54-0.23,0.77,0l0,0
				c0.23,0.23,0.27,0.59,0,0.81l-5.03,5.03c-0.23,0.23-0.23,0.59,0,0.81l5.12,5.21c0.23,0.23,0.23,0.59,0,0.81l0,0
				c-0.23,0.23-0.59,0.18-0.77,0l-4.93-4.75c0,0,0,0-0.05-0.05L279.58,210.41z"/>
			<path fill="#7FBA00" d="M287.69,210.01c0,0.86-0.72,1.49-1.49,1.49c-0.77,0-1.58-0.72-1.58-1.49s0.63-1.49,1.58-1.49
				C287.1,208.51,287.69,209.24,287.69,210.01z"/>
			<path fill="#7FBA00" d="M292.26,210.01c0,0.86-0.72,1.49-1.49,1.49c-0.77,0-1.58-0.72-1.58-1.49s0.72-1.49,1.58-1.49
				C291.62,208.51,292.26,209.24,292.26,210.01z"/>
			<circle fill="#7FBA00" cx="295.38" cy="210.01" r="1.49"/>
		</g>
		
			<use xlink:href="#IZ_x5F_Connection"  width="50" height="31.25" x="-25" y="-15.63" transform="matrix(0.34 0 0 -0.34 308.2569 218.4961)" overflow="visible"/>
	</g>
	<g>
		<g>
			<line fill="none" stroke="#000000" stroke-miterlimit="10" x1="272.14" y1="198.59" x2="326.37" y2="198.59"/>
			<g>
				<polygon points="273.23,202.33 266.76,198.59 273.23,194.85 				"/>
			</g>
			<g>
				<polygon points="325.28,202.33 331.76,198.59 325.28,194.85 				"/>
			</g>
		</g>
	</g>
	<g>
		<g>
			<path fill="#3999C6" d="M136.95,210.41c0.23-0.23,0.18-0.59,0-0.81l-1.09-1.09l-4.89-4.75c-0.23-0.23-0.54-0.23-0.77,0l0,0
				c-0.23,0.23-0.27,0.59,0,0.81l5.12,5.03c0.23,0.23,0.23,0.59,0,0.81l-5.21,5.21c-0.23,0.23-0.23,0.59,0,0.81l0,0
				c0.23,0.23,0.59,0.18,0.77,0l4.84-4.8c0,0,0,0,0.05-0.05L136.95,210.41z"/>
			<path fill="#3999C6" d="M114.58,210.41c-0.23-0.23-0.18-0.59,0-0.81l1.09-1.09l4.89-4.75c0.23-0.23,0.54-0.23,0.77,0l0,0
				c0.23,0.23,0.27,0.59,0,0.81l-5.03,5.03c-0.23,0.23-0.23,0.59,0,0.81l5.12,5.21c0.23,0.23,0.23,0.59,0,0.81l0,0
				c-0.23,0.23-0.59,0.18-0.77,0l-4.93-4.75c0,0,0,0-0.05-0.05L114.58,210.41z"/>
			<path fill="#7FBA00" d="M122.69,210.01c0,0.86-0.72,1.49-1.49,1.49c-0.77,0-1.58-0.72-1.58-1.49s0.63-1.49,1.58-1.49
				C122.1,208.51,122.69,209.24,122.69,210.01z"/>
			<path fill="#7FBA00" d="M127.26,210.01c0,0.86-0.72,1.49-1.49,1.49c-0.77,0-1.58-0.72-1.58-1.49s0.72-1.49,1.58-1.49
				C126.62,208.51,127.26,209.24,127.26,210.01z"/>
			<circle fill="#7FBA00" cx="130.38" cy="210.01" r="1.49"/>
		</g>
		
			<use xlink:href="#IZ_x5F_Connection"  width="50" height="31.25" x="-25" y="-15.63" transform="matrix(0.34 0 0 -0.34 143.2569 218.4961)" overflow="visible"/>
	</g>
	<g>
		<g>
			<line fill="none" stroke="#000000" stroke-miterlimit="10" x1="107.14" y1="198.59" x2="161.37" y2="198.59"/>
			<g>
				<polygon points="108.23,202.33 101.76,198.59 108.23,194.85 				"/>
			</g>
			<g>
				<polygon points="160.28,202.33 166.76,198.59 160.28,194.85 				"/>
			</g>
		</g>
	</g>
	<g>
		<g>
			<line fill="none" stroke="#107C10" stroke-miterlimit="10" x1="101.76" y1="179.59" x2="161.37" y2="179.59"/>
			<g>
				<polygon fill="#107C10" points="160.28,183.33 166.76,179.59 160.28,175.85 				"/>
			</g>
		</g>
	</g>
	<g>
		<g>
			<circle fill="#505050" cx="121.76" cy="179.59" r="10"/>
			<g>
				<path fill="#FFFFFF" d="M124.27,184.02H119v-0.65c0-0.27,0.04-0.51,0.11-0.75s0.17-0.45,0.3-0.66s0.27-0.4,0.44-0.58
					s0.35-0.36,0.54-0.53s0.39-0.33,0.59-0.49s0.39-0.32,0.59-0.48c0.18-0.15,0.34-0.3,0.49-0.45s0.28-0.3,0.38-0.45
					s0.19-0.32,0.25-0.5s0.09-0.36,0.09-0.57c0-0.22-0.03-0.42-0.1-0.58s-0.16-0.3-0.29-0.42s-0.27-0.2-0.44-0.25
					s-0.35-0.08-0.55-0.08c-0.34,0-0.69,0.08-1.05,0.24s-0.7,0.4-1.03,0.72v-1.31c0.17-0.13,0.35-0.24,0.52-0.34
					s0.36-0.18,0.54-0.24s0.38-0.11,0.59-0.14s0.43-0.05,0.66-0.05c0.38,0,0.72,0.05,1.03,0.15s0.57,0.25,0.79,0.44
					s0.39,0.43,0.51,0.72s0.18,0.62,0.18,1c0,0.34-0.04,0.65-0.13,0.92s-0.2,0.52-0.36,0.76s-0.34,0.46-0.56,0.67
					s-0.46,0.43-0.73,0.65c-0.23,0.18-0.45,0.36-0.68,0.54s-0.43,0.34-0.61,0.51s-0.33,0.33-0.44,0.5s-0.17,0.33-0.17,0.5v0.03h3.79
					V184.02z"/>
			</g>
		</g>
	</g>
	<g>
		<path fill="#107C10" d="M144.26,185.81c-3.86,0.09-7.05-2.97-7.14-6.82c0-0.11,0-0.21,0-0.32c-0.09-3.86,2.97-7.05,6.82-7.14
			c0.11,0,0.21,0,0.32,0c3.86-0.09,7.05,2.97,7.14,6.82c0,0.11,0,0.21,0,0.32c0.09,3.86-2.97,7.05-6.82,7.14
			C144.47,185.81,144.36,185.81,144.26,185.81z"/>
		<path fill="#107C10" d="M144.26,171.88c3.66-0.08,6.7,2.82,6.78,6.48c0,0.1,0,0.2,0,0.3c0.08,3.66-2.82,6.7-6.48,6.78
			c-0.1,0-0.2,0-0.3,0c-3.66,0.08-6.7-2.82-6.78-6.48c0-0.1,0-0.2,0-0.3c-0.08-3.66,2.82-6.7,6.48-6.78
			C144.06,171.88,144.16,171.88,144.26,171.88 M144.26,171.17c-4.04-0.1-7.4,3.1-7.5,7.14c0,0.12,0,0.24,0,0.36
			c-0.1,4.04,3.1,7.4,7.14,7.5c0.12,0,0.24,0,0.36,0c4.04,0.1,7.4-3.1,7.5-7.14c0-0.12,0-0.24,0-0.36c0.1-4.04-3.1-7.4-7.14-7.5
			C144.49,171.17,144.38,171.17,144.26,171.17z"/>
		<polygon fill="#FFFFFF" points="139.97,178.67 139.97,178.67 141.04,177.6 141.04,177.6 141.04,177.6 143.19,179.74 
			147.47,175.45 147.47,175.45 147.47,175.45 148.54,176.52 148.54,176.52 148.54,176.52 143.19,181.88 		"/>
	</g>
</g>
<g id="Text">
	<g id="Windows_Server_New">
	</g>
	<g>
		<rect x="15.93" y="-1.17" fill="none" width="70.87" height="24.76"/>
		<path fill="#0072C6" d="M43.77,9.03h-1.09l-0.89-2.36h-3.56l-0.84,2.36h-1.1l3.22-8.4h1.02L43.77,9.03z M41.47,5.79l-1.32-3.58
			c-0.04-0.12-0.09-0.3-0.13-0.56H40c-0.04,0.24-0.08,0.43-0.13,0.56l-1.31,3.58H41.47z"/>
		<path fill="#0072C6" d="M49.06,3.3l-3.55,4.9h3.52v0.82H44.1v-0.3l3.55-4.88h-3.22V3.03h4.63V3.3z"/>
		<path fill="#0072C6" d="M55.15,9.03h-0.96V8.08h-0.02c-0.4,0.73-1.02,1.09-1.85,1.09c-1.43,0-2.14-0.85-2.14-2.55V3.03h0.96v3.43
			c0,1.27,0.48,1.9,1.45,1.9c0.47,0,0.85-0.17,1.16-0.52c0.3-0.35,0.45-0.8,0.45-1.36V3.03h0.96V9.03z"/>
		<path fill="#0072C6" d="M60.22,4c-0.17-0.13-0.41-0.19-0.73-0.19c-0.41,0-0.75,0.19-1.03,0.58s-0.41,0.91-0.41,1.58v3.06h-0.96v-6
			h0.96v1.24h0.02c0.14-0.42,0.35-0.75,0.63-0.99s0.6-0.35,0.94-0.35c0.25,0,0.44,0.03,0.57,0.08V4z"/>
		<path fill="#0072C6" d="M66.09,6.27h-4.24c0.02,0.67,0.2,1.18,0.54,1.55c0.34,0.36,0.82,0.54,1.42,0.54c0.68,0,1.3-0.22,1.86-0.67
			v0.9c-0.53,0.38-1.22,0.57-2.09,0.57c-0.85,0-1.51-0.27-2-0.82s-0.73-1.31-0.73-2.3c0-0.93,0.26-1.69,0.79-2.28
			s1.19-0.88,1.97-0.88s1.39,0.25,1.82,0.76s0.64,1.21,0.64,2.12V6.27z M65.1,5.45c0-0.55-0.14-0.99-0.4-1.29S64.07,3.7,63.6,3.7
			c-0.45,0-0.84,0.16-1.15,0.49s-0.51,0.75-0.59,1.27H65.1z"/>
		<path fill="#0072C6" d="M28.3,21.88c-0.62,0.33-1.39,0.49-2.32,0.49c-1.2,0-2.15-0.38-2.87-1.15s-1.08-1.78-1.08-3.03
			c0-1.34,0.4-2.43,1.21-3.26s1.83-1.24,3.08-1.24c0.8,0,1.46,0.12,1.98,0.35v1.05c-0.6-0.34-1.27-0.5-1.99-0.5
			c-0.96,0-1.75,0.32-2.35,0.97c-0.6,0.64-0.9,1.51-0.9,2.58c0,1.02,0.28,1.84,0.84,2.45s1.3,0.91,2.21,0.91
			c0.84,0,1.57-0.19,2.19-0.56V21.88z"/>
		<path fill="#0072C6" d="M30.85,22.23h-0.96v-8.88h0.96V22.23z"/>
		<path fill="#0072C6" d="M35.3,22.37c-0.89,0-1.59-0.28-2.12-0.84s-0.79-1.3-0.79-2.23c0-1.01,0.28-1.79,0.83-2.36
			s1.29-0.85,2.23-0.85c0.89,0,1.59,0.28,2.09,0.83s0.75,1.31,0.75,2.29c0,0.96-0.27,1.72-0.81,2.3S36.21,22.37,35.3,22.37z
			 M35.37,16.9c-0.62,0-1.11,0.21-1.46,0.63s-0.54,1-0.54,1.74c0,0.71,0.18,1.27,0.54,1.68s0.85,0.62,1.46,0.62
			c0.62,0,1.1-0.2,1.43-0.6s0.5-0.97,0.5-1.72c0-0.75-0.17-1.33-0.5-1.73S35.99,16.9,35.37,16.9z"/>
		<path fill="#0072C6" d="M44.67,22.23h-0.96v-0.95h-0.02c-0.4,0.73-1.02,1.09-1.85,1.09c-1.43,0-2.14-0.85-2.14-2.55v-3.59h0.96
			v3.43c0,1.27,0.48,1.9,1.45,1.9c0.47,0,0.85-0.17,1.16-0.52s0.45-0.8,0.45-1.36v-3.46h0.96V22.23z"/>
		<path fill="#0072C6" d="M51.73,22.23h-0.96v-1.02h-0.02c-0.45,0.77-1.13,1.16-2.06,1.16c-0.75,0-1.36-0.27-1.81-0.81
			s-0.68-1.27-0.68-2.19c0-0.99,0.25-1.79,0.75-2.38s1.17-0.9,2-0.9c0.82,0,1.42,0.32,1.8,0.97h0.02v-3.71h0.96V22.23z M50.77,19.52
			v-0.88c0-0.48-0.16-0.89-0.48-1.23s-0.73-0.5-1.22-0.5c-0.59,0-1.05,0.21-1.38,0.64s-0.5,1.02-0.5,1.78
			c0,0.69,0.16,1.24,0.48,1.64s0.75,0.6,1.3,0.6c0.54,0,0.97-0.19,1.3-0.58S50.77,20.11,50.77,19.52z"/>
		<path fill="#0072C6" d="M56.7,21.89v-1.16c0.13,0.12,0.29,0.22,0.48,0.32s0.38,0.17,0.59,0.24s0.41,0.11,0.62,0.15
			s0.4,0.05,0.57,0.05c0.61,0,1.06-0.11,1.36-0.34s0.45-0.55,0.45-0.97c0-0.23-0.05-0.42-0.15-0.59s-0.24-0.32-0.41-0.46
			s-0.38-0.27-0.62-0.4s-0.5-0.26-0.78-0.4c-0.29-0.15-0.57-0.3-0.82-0.45s-0.47-0.32-0.66-0.5s-0.33-0.39-0.44-0.62
			s-0.16-0.5-0.16-0.82c0-0.38,0.08-0.72,0.25-1s0.39-0.52,0.66-0.7s0.58-0.32,0.93-0.41s0.71-0.13,1.07-0.13
			c0.83,0,1.43,0.1,1.81,0.3v1.11c-0.5-0.34-1.13-0.52-1.91-0.52c-0.21,0-0.43,0.02-0.64,0.07s-0.41,0.12-0.57,0.22
			s-0.3,0.23-0.41,0.39s-0.16,0.36-0.16,0.59c0,0.21,0.04,0.4,0.12,0.56s0.2,0.3,0.35,0.43s0.35,0.25,0.57,0.38s0.48,0.25,0.78,0.4
			c0.3,0.15,0.59,0.3,0.86,0.47s0.51,0.35,0.71,0.54s0.36,0.42,0.48,0.66s0.18,0.52,0.18,0.83c0,0.41-0.08,0.76-0.24,1.05
			s-0.38,0.52-0.66,0.7s-0.59,0.31-0.95,0.39s-0.74,0.12-1.14,0.12c-0.13,0-0.3-0.01-0.49-0.03s-0.39-0.05-0.6-0.09
			s-0.4-0.09-0.58-0.15S56.81,21.96,56.7,21.89z"/>
		<path fill="#0072C6" d="M68.32,22.23h-0.96v-3.46c0-1.25-0.46-1.88-1.39-1.88c-0.47,0-0.86,0.18-1.18,0.54s-0.48,0.83-0.48,1.39
			v3.4h-0.96v-8.88h0.96v3.88h0.02c0.46-0.76,1.12-1.14,1.97-1.14c1.35,0,2.03,0.81,2.03,2.44V22.23z"/>
		<path fill="#0072C6" d="M74.96,19.47h-4.24c0.02,0.67,0.2,1.18,0.54,1.55s0.82,0.54,1.42,0.54c0.68,0,1.3-0.22,1.86-0.67v0.9
			c-0.53,0.38-1.22,0.57-2.09,0.57c-0.85,0-1.51-0.27-2-0.82s-0.73-1.31-0.73-2.3c0-0.93,0.26-1.69,0.79-2.28s1.19-0.88,1.97-0.88
			s1.39,0.25,1.82,0.76s0.64,1.21,0.64,2.12V19.47z M73.97,18.65c0-0.55-0.14-0.99-0.4-1.29s-0.63-0.46-1.1-0.46
			c-0.45,0-0.84,0.16-1.15,0.49s-0.51,0.75-0.59,1.27H73.97z"/>
		<path fill="#0072C6" d="M77.37,22.23h-0.96v-8.88h0.96V22.23z"/>
		<path fill="#0072C6" d="M80.28,22.23h-0.96v-8.88h0.96V22.23z"/>
	</g>
	<g>
		<path fill="#1E1E1E" d="M43.87,141.68v-1.16c0.13,0.12,0.29,0.22,0.48,0.32s0.38,0.17,0.59,0.24s0.41,0.11,0.62,0.15
			s0.4,0.05,0.57,0.05c0.61,0,1.06-0.11,1.36-0.34s0.45-0.55,0.45-0.97c0-0.23-0.05-0.42-0.15-0.59s-0.24-0.32-0.41-0.46
			s-0.38-0.27-0.62-0.4s-0.5-0.26-0.78-0.4c-0.29-0.15-0.57-0.3-0.82-0.45s-0.47-0.32-0.66-0.5s-0.33-0.39-0.44-0.62
			s-0.16-0.5-0.16-0.82c0-0.38,0.08-0.72,0.25-1s0.39-0.52,0.66-0.7s0.58-0.32,0.93-0.41s0.71-0.13,1.07-0.13
			c0.83,0,1.43,0.1,1.81,0.3v1.11c-0.5-0.34-1.13-0.52-1.91-0.52c-0.21,0-0.43,0.02-0.64,0.07s-0.41,0.12-0.57,0.22
			s-0.3,0.23-0.41,0.39s-0.16,0.36-0.16,0.59c0,0.21,0.04,0.4,0.12,0.56s0.2,0.3,0.35,0.43s0.35,0.25,0.57,0.38s0.48,0.25,0.78,0.4
			c0.3,0.15,0.59,0.3,0.86,0.47s0.51,0.35,0.71,0.54s0.36,0.42,0.48,0.66s0.18,0.52,0.18,0.83c0,0.41-0.08,0.76-0.24,1.05
			s-0.38,0.52-0.66,0.7s-0.59,0.31-0.95,0.39s-0.74,0.12-1.14,0.12c-0.13,0-0.3-0.01-0.49-0.03s-0.39-0.05-0.6-0.09
			s-0.4-0.09-0.58-0.15S43.98,141.75,43.87,141.68z"/>
		<path fill="#1E1E1E" d="M54.8,142.01h-0.96v-0.94h-0.02c-0.42,0.72-1.03,1.08-1.85,1.08c-0.6,0-1.07-0.16-1.4-0.47
			s-0.51-0.74-0.51-1.26c0-1.12,0.66-1.77,1.98-1.96l1.8-0.25c0-1.02-0.41-1.53-1.24-1.53c-0.72,0-1.38,0.25-1.96,0.74v-0.98
			c0.59-0.38,1.27-0.56,2.04-0.56c1.41,0,2.12,0.75,2.12,2.24V142.01z M53.84,138.98l-1.45,0.2c-0.45,0.06-0.78,0.17-1.01,0.33
			s-0.34,0.44-0.34,0.84c0,0.29,0.1,0.53,0.31,0.72s0.49,0.28,0.83,0.28c0.48,0,0.87-0.17,1.18-0.5s0.47-0.76,0.47-1.27V138.98z"/>
		<path fill="#1E1E1E" d="M57.57,142.01h-0.96v-8.88h0.96V142.01z"/>
		<path fill="#1E1E1E" d="M64.34,139.26H60.1c0.02,0.67,0.2,1.18,0.54,1.55s0.82,0.54,1.42,0.54c0.68,0,1.3-0.22,1.86-0.67v0.9
			c-0.53,0.38-1.22,0.57-2.09,0.57c-0.85,0-1.51-0.27-2-0.82s-0.73-1.31-0.73-2.3c0-0.93,0.26-1.69,0.79-2.28s1.19-0.88,1.97-0.88
			s1.39,0.25,1.82,0.76s0.64,1.21,0.64,2.12V139.26z M63.36,138.44c0-0.55-0.14-0.99-0.4-1.29s-0.63-0.46-1.1-0.46
			c-0.45,0-0.84,0.16-1.15,0.49s-0.51,0.75-0.59,1.27H63.36z"/>
		<path fill="#1E1E1E" d="M65.43,141.8v-1.03c0.52,0.39,1.1,0.58,1.73,0.58c0.84,0,1.27-0.28,1.27-0.84c0-0.16-0.04-0.3-0.11-0.41
			s-0.17-0.21-0.29-0.3s-0.27-0.16-0.43-0.23s-0.34-0.14-0.54-0.21c-0.27-0.11-0.5-0.21-0.7-0.32s-0.37-0.23-0.5-0.36
			s-0.24-0.29-0.3-0.46s-0.1-0.37-0.1-0.6c0-0.28,0.06-0.53,0.19-0.75s0.3-0.4,0.52-0.54s0.46-0.26,0.74-0.33s0.56-0.11,0.85-0.11
			c0.52,0,0.98,0.09,1.39,0.27v0.97c-0.44-0.29-0.95-0.43-1.52-0.43c-0.18,0-0.34,0.02-0.49,0.06s-0.27,0.1-0.37,0.17
			s-0.18,0.16-0.24,0.27s-0.08,0.22-0.08,0.34c0,0.16,0.03,0.29,0.08,0.39s0.14,0.2,0.25,0.28s0.24,0.16,0.4,0.22
			s0.33,0.14,0.53,0.22c0.27,0.1,0.5,0.21,0.71,0.31s0.39,0.23,0.54,0.36s0.26,0.29,0.34,0.47s0.12,0.38,0.12,0.63
			c0,0.3-0.07,0.55-0.2,0.77s-0.31,0.4-0.52,0.54s-0.47,0.25-0.76,0.32s-0.58,0.11-0.9,0.11C66.42,142.16,65.88,142.04,65.43,141.8z
			"/>
		<path fill="#1E1E1E" d="M77.26,133.61l-3.11,8.4h-1.08l-3.05-8.4h1.1l2.33,6.66c0.07,0.21,0.13,0.46,0.17,0.74h0.02
			c0.03-0.23,0.1-0.49,0.19-0.76l2.37-6.65H77.26z"/>
		<path fill="#1E1E1E" d="M85.24,142.01h-1.21l-4.32-6.7c-0.11-0.17-0.2-0.34-0.27-0.53H79.4c0.03,0.18,0.05,0.56,0.05,1.15v6.07
			h-0.98v-8.4h1.28l4.21,6.59c0.18,0.27,0.29,0.46,0.34,0.56h0.02c-0.04-0.24-0.06-0.65-0.06-1.24v-5.92h0.98V142.01z"/>
		<path fill="#1E1E1E" d="M92.14,139.26H87.9c0.02,0.67,0.2,1.18,0.54,1.55s0.82,0.54,1.42,0.54c0.68,0,1.3-0.22,1.86-0.67v0.9
			c-0.53,0.38-1.22,0.57-2.09,0.57c-0.85,0-1.51-0.27-2-0.82s-0.73-1.31-0.73-2.3c0-0.93,0.26-1.69,0.79-2.28s1.19-0.88,1.97-0.88
			s1.39,0.25,1.82,0.76s0.64,1.21,0.64,2.12V139.26z M91.15,138.44c0-0.55-0.14-0.99-0.4-1.29s-0.63-0.46-1.1-0.46
			c-0.45,0-0.84,0.16-1.15,0.49s-0.51,0.75-0.59,1.27H91.15z"/>
		<path fill="#1E1E1E" d="M96.37,141.96c-0.23,0.13-0.53,0.19-0.9,0.19c-1.05,0-1.58-0.59-1.58-1.76v-3.55h-1.03v-0.82h1.03v-1.46
			l0.96-0.31v1.78h1.51v0.82h-1.51v3.38c0,0.4,0.07,0.69,0.21,0.86s0.36,0.26,0.68,0.26c0.24,0,0.45-0.07,0.63-0.2V141.96z"/>
	</g>
	<g>
		<path fill="#1E1E1E" d="M29.58,220.41v-1.16c0.13,0.12,0.29,0.22,0.48,0.32s0.38,0.17,0.59,0.24s0.41,0.11,0.62,0.15
			s0.4,0.05,0.57,0.05c0.61,0,1.06-0.11,1.36-0.34s0.45-0.55,0.45-0.97c0-0.23-0.05-0.42-0.15-0.59s-0.24-0.32-0.41-0.46
			s-0.38-0.27-0.62-0.4s-0.5-0.26-0.78-0.4c-0.29-0.15-0.57-0.3-0.82-0.45s-0.47-0.32-0.66-0.5s-0.33-0.39-0.44-0.62
			s-0.16-0.5-0.16-0.82c0-0.38,0.08-0.72,0.25-1s0.39-0.52,0.66-0.7s0.58-0.32,0.93-0.41s0.71-0.13,1.07-0.13
			c0.83,0,1.43,0.1,1.81,0.3v1.11c-0.5-0.34-1.13-0.52-1.91-0.52c-0.21,0-0.43,0.02-0.64,0.07s-0.41,0.12-0.57,0.22
			s-0.3,0.23-0.41,0.39s-0.16,0.36-0.16,0.59c0,0.21,0.04,0.4,0.12,0.56s0.2,0.3,0.35,0.43s0.35,0.25,0.57,0.38s0.48,0.25,0.78,0.4
			c0.3,0.15,0.59,0.3,0.86,0.47s0.51,0.35,0.71,0.54s0.36,0.42,0.48,0.66s0.18,0.52,0.18,0.83c0,0.41-0.08,0.76-0.24,1.05
			s-0.38,0.52-0.66,0.7s-0.59,0.31-0.95,0.39s-0.74,0.12-1.14,0.12c-0.13,0-0.3-0.01-0.49-0.03s-0.39-0.05-0.6-0.09
			s-0.4-0.09-0.58-0.15S29.69,220.49,29.58,220.41z"/>
		<path fill="#1E1E1E" d="M40.52,220.75h-0.96v-0.94h-0.02c-0.42,0.72-1.03,1.08-1.85,1.08c-0.6,0-1.07-0.16-1.4-0.47
			s-0.51-0.74-0.51-1.26c0-1.12,0.66-1.77,1.98-1.96l1.8-0.25c0-1.02-0.41-1.53-1.24-1.53c-0.72,0-1.38,0.25-1.96,0.74v-0.98
			c0.59-0.38,1.27-0.56,2.04-0.56c1.41,0,2.12,0.75,2.12,2.24V220.75z M39.56,217.72l-1.45,0.2c-0.45,0.06-0.78,0.17-1.01,0.33
			s-0.34,0.44-0.34,0.84c0,0.29,0.1,0.53,0.31,0.72s0.49,0.28,0.83,0.28c0.48,0,0.87-0.17,1.18-0.5s0.47-0.76,0.47-1.27V217.72z"/>
		<path fill="#1E1E1E" d="M43.29,220.75h-0.96v-8.88h0.96V220.75z"/>
		<path fill="#1E1E1E" d="M50.06,217.99h-4.24c0.02,0.67,0.2,1.18,0.54,1.55s0.82,0.54,1.42,0.54c0.68,0,1.3-0.22,1.86-0.67v0.9
			c-0.53,0.38-1.22,0.57-2.09,0.57c-0.85,0-1.51-0.27-2-0.82s-0.73-1.31-0.73-2.3c0-0.93,0.26-1.69,0.79-2.28s1.19-0.88,1.97-0.88
			s1.39,0.25,1.82,0.76s0.64,1.21,0.64,2.12V217.99z M49.07,217.18c0-0.55-0.14-0.99-0.4-1.29s-0.63-0.46-1.1-0.46
			c-0.45,0-0.84,0.16-1.15,0.49s-0.51,0.75-0.59,1.27H49.07z"/>
		<path fill="#1E1E1E" d="M51.15,220.53v-1.03c0.52,0.39,1.1,0.58,1.73,0.58c0.84,0,1.27-0.28,1.27-0.84c0-0.16-0.04-0.3-0.11-0.41
			s-0.17-0.21-0.29-0.3s-0.27-0.16-0.43-0.23s-0.34-0.14-0.54-0.21c-0.27-0.11-0.5-0.21-0.7-0.32s-0.37-0.23-0.5-0.36
			s-0.24-0.29-0.3-0.46s-0.1-0.37-0.1-0.6c0-0.28,0.06-0.53,0.19-0.75s0.3-0.4,0.52-0.54s0.46-0.26,0.74-0.33s0.56-0.11,0.85-0.11
			c0.52,0,0.98,0.09,1.39,0.27v0.97c-0.44-0.29-0.95-0.43-1.52-0.43c-0.18,0-0.34,0.02-0.49,0.06s-0.27,0.1-0.37,0.17
			s-0.18,0.16-0.24,0.27s-0.08,0.22-0.08,0.34c0,0.16,0.03,0.29,0.08,0.39s0.14,0.2,0.25,0.28s0.24,0.16,0.4,0.22
			s0.33,0.14,0.53,0.22c0.27,0.1,0.5,0.21,0.71,0.31s0.39,0.23,0.54,0.36s0.26,0.29,0.34,0.47s0.12,0.38,0.12,0.63
			c0,0.3-0.07,0.55-0.2,0.77s-0.31,0.4-0.52,0.54s-0.47,0.25-0.76,0.32s-0.58,0.11-0.9,0.11C52.13,220.89,51.6,220.77,51.15,220.53z
			"/>
		<path fill="#1E1E1E" d="M62.98,212.35l-3.11,8.4h-1.08l-3.05-8.4h1.1l2.33,6.66c0.07,0.21,0.13,0.46,0.17,0.74h0.02
			c0.03-0.23,0.1-0.49,0.19-0.76l2.37-6.65H62.98z"/>
		<path fill="#1E1E1E" d="M72.75,220.75h-0.98v-5.64c0-0.45,0.03-0.99,0.08-1.63h-0.02c-0.09,0.38-0.18,0.65-0.25,0.81l-2.87,6.46
			h-0.48l-2.87-6.41c-0.08-0.19-0.17-0.47-0.25-0.86h-0.02c0.03,0.34,0.05,0.88,0.05,1.65v5.63h-0.95v-8.4h1.3l2.58,5.86
			c0.2,0.45,0.33,0.79,0.39,1.01h0.04c0.17-0.46,0.3-0.8,0.4-1.03l2.63-5.84h1.23V220.75z"/>
	</g>
	<g>
		<path fill="#1E1E1E" d="M216.06,142.01h-0.98v-5.64c0-0.45,0.03-0.99,0.08-1.63h-0.02c-0.09,0.38-0.18,0.65-0.25,0.81l-2.87,6.46
			h-0.48l-2.87-6.41c-0.08-0.19-0.17-0.47-0.25-0.86h-0.02c0.03,0.34,0.05,0.88,0.05,1.65v5.63h-0.95v-8.4h1.3l2.58,5.86
			c0.2,0.45,0.33,0.79,0.39,1.01h0.04c0.17-0.46,0.3-0.8,0.4-1.03l2.63-5.84h1.23V142.01z"/>
		<path fill="#1E1E1E" d="M222.43,142.01h-0.96v-0.94h-0.02c-0.42,0.72-1.03,1.08-1.85,1.08c-0.6,0-1.07-0.16-1.4-0.47
			s-0.51-0.74-0.51-1.26c0-1.12,0.66-1.77,1.98-1.96l1.8-0.25c0-1.02-0.41-1.53-1.24-1.53c-0.72,0-1.38,0.25-1.96,0.74v-0.98
			c0.59-0.38,1.27-0.56,2.04-0.56c1.41,0,2.12,0.75,2.12,2.24V142.01z M221.47,138.98l-1.45,0.2c-0.45,0.06-0.78,0.17-1.01,0.33
			s-0.34,0.44-0.34,0.84c0,0.29,0.1,0.53,0.31,0.72s0.49,0.28,0.83,0.28c0.48,0,0.87-0.17,1.18-0.5s0.47-0.76,0.47-1.27V138.98z"/>
		<path fill="#1E1E1E" d="M227.37,136.99c-0.17-0.13-0.41-0.19-0.73-0.19c-0.41,0-0.75,0.19-1.03,0.58s-0.41,0.91-0.41,1.58v3.06
			h-0.96v-6h0.96v1.24h0.02c0.14-0.42,0.35-0.75,0.63-0.99s0.6-0.35,0.94-0.35c0.25,0,0.44,0.03,0.57,0.08V136.99z"/>
		<path fill="#1E1E1E" d="M233.4,142.01h-1.35l-2.65-2.88h-0.02v2.88h-0.96v-8.88h0.96v5.63h0.02l2.52-2.75h1.26l-2.78,2.89
			L233.4,142.01z"/>
		<path fill="#1E1E1E" d="M239.2,139.26h-4.24c0.02,0.67,0.2,1.18,0.54,1.55s0.82,0.54,1.42,0.54c0.68,0,1.3-0.22,1.86-0.67v0.9
			c-0.53,0.38-1.22,0.57-2.09,0.57c-0.85,0-1.51-0.27-2-0.82s-0.73-1.31-0.73-2.3c0-0.93,0.26-1.69,0.79-2.28s1.19-0.88,1.97-0.88
			s1.39,0.25,1.82,0.76s0.64,1.21,0.64,2.12V139.26z M238.22,138.44c0-0.55-0.14-0.99-0.4-1.29s-0.63-0.46-1.1-0.46
			c-0.45,0-0.84,0.16-1.15,0.49s-0.51,0.75-0.59,1.27H238.22z"/>
		<path fill="#1E1E1E" d="M243.44,141.96c-0.23,0.13-0.53,0.19-0.9,0.19c-1.05,0-1.58-0.59-1.58-1.76v-3.55h-1.03v-0.82h1.03v-1.46
			l0.96-0.31v1.78h1.51v0.82h-1.51v3.38c0,0.4,0.07,0.69,0.21,0.86s0.36,0.26,0.68,0.26c0.24,0,0.45-0.07,0.63-0.2V141.96z"/>
		<path fill="#1E1E1E" d="M245.21,134.49c-0.17,0-0.32-0.06-0.44-0.18s-0.18-0.27-0.18-0.45s0.06-0.33,0.18-0.45
			s0.27-0.18,0.44-0.18c0.18,0,0.33,0.06,0.45,0.18s0.18,0.27,0.18,0.45c0,0.17-0.06,0.32-0.18,0.44S245.39,134.49,245.21,134.49z
			 M245.68,142.01h-0.96v-6h0.96V142.01z"/>
		<path fill="#1E1E1E" d="M252.61,142.01h-0.96v-3.42c0-1.27-0.46-1.91-1.39-1.91c-0.48,0-0.88,0.18-1.19,0.54s-0.47,0.82-0.47,1.37
			v3.42h-0.96v-6h0.96v1h0.02c0.45-0.76,1.11-1.14,1.97-1.14c0.66,0,1.16,0.21,1.51,0.64s0.52,1.04,0.52,1.84V142.01z"/>
		<path fill="#1E1E1E" d="M259.54,141.53c0,2.2-1.05,3.3-3.16,3.3c-0.74,0-1.39-0.14-1.95-0.42v-0.96c0.68,0.38,1.32,0.56,1.93,0.56
			c1.48,0,2.21-0.79,2.21-2.36v-0.66h-0.02c-0.46,0.77-1.14,1.15-2.06,1.15c-0.75,0-1.35-0.27-1.8-0.8s-0.68-1.25-0.68-2.15
			c0-1.02,0.25-1.83,0.74-2.43s1.16-0.9,2.01-0.9c0.81,0,1.41,0.32,1.8,0.97h0.02v-0.83h0.96V141.53z M258.58,139.3v-0.88
			c0-0.48-0.16-0.88-0.48-1.22s-0.72-0.51-1.2-0.51c-0.59,0-1.06,0.22-1.39,0.65s-0.5,1.04-0.5,1.81c0,0.67,0.16,1.2,0.48,1.6
			s0.75,0.6,1.28,0.6c0.54,0,0.98-0.19,1.32-0.57S258.58,139.9,258.58,139.3z"/>
		<path fill="#1E1E1E" d="M267.86,133.61l-3.11,8.4h-1.08l-3.05-8.4h1.1l2.33,6.66c0.07,0.21,0.13,0.46,0.17,0.74h0.02
			c0.03-0.23,0.1-0.49,0.19-0.76l2.37-6.65H267.86z"/>
		<path fill="#1E1E1E" d="M275.84,142.01h-1.21l-4.32-6.7c-0.11-0.17-0.2-0.34-0.27-0.53H270c0.03,0.18,0.05,0.56,0.05,1.15v6.07
			h-0.98v-8.4h1.28l4.21,6.59c0.18,0.27,0.29,0.46,0.34,0.56h0.02c-0.04-0.24-0.06-0.65-0.06-1.24v-5.92h0.98V142.01z"/>
		<path fill="#1E1E1E" d="M282.74,139.26h-4.24c0.02,0.67,0.2,1.18,0.54,1.55s0.82,0.54,1.42,0.54c0.68,0,1.3-0.22,1.86-0.67v0.9
			c-0.53,0.38-1.22,0.57-2.09,0.57c-0.85,0-1.51-0.27-2-0.82s-0.73-1.31-0.73-2.3c0-0.93,0.26-1.69,0.79-2.28s1.19-0.88,1.97-0.88
			s1.39,0.25,1.82,0.76s0.64,1.21,0.64,2.12V139.26z M281.75,138.44c0-0.55-0.14-0.99-0.4-1.29s-0.63-0.46-1.1-0.46
			c-0.45,0-0.84,0.16-1.15,0.49s-0.51,0.75-0.59,1.27H281.75z"/>
		<path fill="#1E1E1E" d="M286.97,141.96c-0.23,0.13-0.53,0.19-0.9,0.19c-1.05,0-1.58-0.59-1.58-1.76v-3.55h-1.03v-0.82h1.03v-1.46
			l0.96-0.31v1.78h1.51v0.82h-1.51v3.38c0,0.4,0.07,0.69,0.21,0.86s0.36,0.26,0.68,0.26c0.24,0,0.45-0.07,0.63-0.2V141.96z"/>
	</g>
	<g>
		<path fill="#1E1E1E" d="M189.28,220.75h-0.98v-5.64c0-0.45,0.03-0.99,0.08-1.63h-0.02c-0.09,0.38-0.18,0.65-0.25,0.81l-2.87,6.46
			h-0.48l-2.87-6.41c-0.08-0.19-0.17-0.47-0.25-0.86h-0.02c0.03,0.34,0.05,0.88,0.05,1.65v5.63h-0.95v-8.4h1.3l2.58,5.86
			c0.2,0.45,0.33,0.79,0.39,1.01h0.04c0.17-0.46,0.3-0.8,0.4-1.03l2.63-5.84h1.23V220.75z"/>
		<path fill="#1E1E1E" d="M195.65,220.75h-0.96v-0.94h-0.02c-0.42,0.72-1.03,1.08-1.85,1.08c-0.6,0-1.07-0.16-1.4-0.47
			s-0.51-0.74-0.51-1.26c0-1.12,0.66-1.77,1.98-1.96l1.8-0.25c0-1.02-0.41-1.53-1.24-1.53c-0.72,0-1.38,0.25-1.96,0.74v-0.98
			c0.59-0.38,1.27-0.56,2.04-0.56c1.41,0,2.12,0.75,2.12,2.24V220.75z M194.69,217.72l-1.45,0.2c-0.45,0.06-0.78,0.17-1.01,0.33
			s-0.34,0.44-0.34,0.84c0,0.29,0.1,0.53,0.31,0.72s0.49,0.28,0.83,0.28c0.48,0,0.87-0.17,1.18-0.5s0.47-0.76,0.47-1.27V217.72z"/>
		<path fill="#1E1E1E" d="M200.59,215.72c-0.17-0.13-0.41-0.19-0.73-0.19c-0.41,0-0.75,0.19-1.03,0.58s-0.41,0.91-0.41,1.58v3.06
			h-0.96v-6h0.96v1.24h0.02c0.14-0.42,0.35-0.75,0.63-0.99s0.6-0.35,0.94-0.35c0.25,0,0.44,0.03,0.57,0.08V215.72z"/>
		<path fill="#1E1E1E" d="M206.62,220.75h-1.35l-2.65-2.88h-0.02v2.88h-0.96v-8.88h0.96v5.63h0.02l2.52-2.75h1.26l-2.78,2.89
			L206.62,220.75z"/>
		<path fill="#1E1E1E" d="M212.42,217.99h-4.24c0.02,0.67,0.2,1.18,0.54,1.55s0.82,0.54,1.42,0.54c0.68,0,1.3-0.22,1.86-0.67v0.9
			c-0.53,0.38-1.22,0.57-2.09,0.57c-0.85,0-1.51-0.27-2-0.82s-0.73-1.31-0.73-2.3c0-0.93,0.26-1.69,0.79-2.28s1.19-0.88,1.97-0.88
			s1.39,0.25,1.82,0.76s0.64,1.21,0.64,2.12V217.99z M211.44,217.18c0-0.55-0.14-0.99-0.4-1.29s-0.63-0.46-1.1-0.46
			c-0.45,0-0.84,0.16-1.15,0.49s-0.51,0.75-0.59,1.27H211.44z"/>
		<path fill="#1E1E1E" d="M216.66,220.69c-0.23,0.13-0.53,0.19-0.9,0.19c-1.05,0-1.58-0.59-1.58-1.76v-3.55h-1.03v-0.82h1.03v-1.46
			l0.96-0.31v1.78h1.51v0.82h-1.51v3.38c0,0.4,0.07,0.69,0.21,0.86s0.36,0.26,0.68,0.26c0.24,0,0.45-0.07,0.63-0.2V220.69z"/>
		<path fill="#1E1E1E" d="M218.43,213.23c-0.17,0-0.32-0.06-0.44-0.18s-0.18-0.27-0.18-0.45s0.06-0.33,0.18-0.45
			s0.27-0.18,0.44-0.18c0.18,0,0.33,0.06,0.45,0.18s0.18,0.27,0.18,0.45c0,0.17-0.06,0.32-0.18,0.44S218.61,213.23,218.43,213.23z
			 M218.9,220.75h-0.96v-6h0.96V220.75z"/>
		<path fill="#1E1E1E" d="M225.83,220.75h-0.96v-3.42c0-1.27-0.46-1.91-1.39-1.91c-0.48,0-0.88,0.18-1.19,0.54s-0.47,0.82-0.47,1.37
			v3.42h-0.96v-6h0.96v1h0.02c0.45-0.76,1.11-1.14,1.97-1.14c0.66,0,1.16,0.21,1.51,0.64s0.52,1.04,0.52,1.84V220.75z"/>
		<path fill="#1E1E1E" d="M232.76,220.27c0,2.2-1.05,3.3-3.16,3.3c-0.74,0-1.39-0.14-1.95-0.42v-0.96c0.68,0.38,1.32,0.56,1.93,0.56
			c1.48,0,2.21-0.79,2.21-2.36v-0.66h-0.02c-0.46,0.77-1.14,1.15-2.06,1.15c-0.75,0-1.35-0.27-1.8-0.8s-0.68-1.25-0.68-2.15
			c0-1.02,0.25-1.83,0.74-2.43s1.16-0.9,2.01-0.9c0.81,0,1.41,0.32,1.8,0.97h0.02v-0.83h0.96V220.27z M231.8,218.04v-0.88
			c0-0.48-0.16-0.88-0.48-1.22s-0.72-0.51-1.2-0.51c-0.59,0-1.06,0.22-1.39,0.65s-0.5,1.04-0.5,1.81c0,0.67,0.16,1.2,0.48,1.6
			s0.75,0.6,1.28,0.6c0.54,0,0.98-0.19,1.32-0.57S231.8,218.64,231.8,218.04z"/>
		<path fill="#1E1E1E" d="M241.08,212.35l-3.11,8.4h-1.08l-3.05-8.4h1.1l2.33,6.66c0.07,0.21,0.13,0.46,0.17,0.74h0.02
			c0.03-0.23,0.1-0.49,0.19-0.76l2.37-6.65H241.08z"/>
		<path fill="#1E1E1E" d="M250.85,220.75h-0.98v-5.64c0-0.45,0.03-0.99,0.08-1.63h-0.02c-0.09,0.38-0.18,0.65-0.25,0.81l-2.87,6.46
			h-0.48l-2.87-6.41c-0.08-0.19-0.17-0.47-0.25-0.86h-0.02c0.03,0.34,0.05,0.88,0.05,1.65v5.63h-0.95v-8.4h1.3l2.58,5.86
			c0.2,0.45,0.33,0.79,0.39,1.01h0.04c0.17-0.46,0.3-0.8,0.4-1.03l2.63-5.84h1.23V220.75z"/>
	</g>
	<g>
		<path fill="#1E1E1E" d="M378.45,142.01h-1.17l-1.41-2.36c-0.13-0.22-0.25-0.41-0.38-0.56s-0.25-0.28-0.37-0.38
			s-0.26-0.17-0.41-0.21s-0.31-0.07-0.5-0.07h-0.81v3.57h-0.98v-8.4h2.51c0.37,0,0.71,0.05,1.02,0.14s0.58,0.23,0.81,0.42
			s0.41,0.42,0.54,0.7s0.19,0.61,0.19,0.98c0,0.29-0.04,0.56-0.13,0.81s-0.21,0.46-0.38,0.65s-0.36,0.35-0.59,0.49
			s-0.49,0.24-0.77,0.31v0.02c0.14,0.06,0.26,0.13,0.37,0.21s0.2,0.17,0.3,0.28s0.19,0.23,0.28,0.37s0.19,0.3,0.31,0.48
			L378.45,142.01z M373.41,134.5v3.05h1.34c0.25,0,0.47-0.04,0.68-0.11s0.39-0.18,0.54-0.32s0.27-0.31,0.36-0.51
			s0.13-0.43,0.13-0.68c0-0.45-0.15-0.8-0.44-1.05s-0.71-0.38-1.26-0.38H373.41z"/>
		<path fill="#1E1E1E" d="M383.94,139.26h-4.24c0.02,0.67,0.2,1.18,0.54,1.55s0.82,0.54,1.42,0.54c0.68,0,1.3-0.22,1.86-0.67v0.9
			c-0.53,0.38-1.22,0.57-2.09,0.57c-0.85,0-1.51-0.27-2-0.82s-0.73-1.31-0.73-2.3c0-0.93,0.26-1.69,0.79-2.28s1.19-0.88,1.97-0.88
			s1.39,0.25,1.82,0.76s0.64,1.21,0.64,2.12V139.26z M382.96,138.44c0-0.55-0.14-0.99-0.4-1.29s-0.63-0.46-1.1-0.46
			c-0.45,0-0.84,0.16-1.15,0.49s-0.51,0.75-0.59,1.27H382.96z"/>
		<path fill="#1E1E1E" d="M385.03,141.8v-1.03c0.52,0.39,1.1,0.58,1.73,0.58c0.84,0,1.27-0.28,1.27-0.84c0-0.16-0.04-0.3-0.11-0.41
			s-0.17-0.21-0.29-0.3s-0.27-0.16-0.43-0.23s-0.34-0.14-0.54-0.21c-0.27-0.11-0.5-0.21-0.7-0.32s-0.37-0.23-0.5-0.36
			s-0.24-0.29-0.3-0.46s-0.1-0.37-0.1-0.6c0-0.28,0.06-0.53,0.19-0.75s0.3-0.4,0.52-0.54s0.46-0.26,0.74-0.33s0.56-0.11,0.85-0.11
			c0.52,0,0.98,0.09,1.39,0.27v0.97c-0.44-0.29-0.95-0.43-1.52-0.43c-0.18,0-0.34,0.02-0.49,0.06s-0.27,0.1-0.37,0.17
			s-0.18,0.16-0.24,0.27s-0.08,0.22-0.08,0.34c0,0.16,0.03,0.29,0.08,0.39s0.14,0.2,0.25,0.28s0.24,0.16,0.4,0.22
			s0.33,0.14,0.53,0.22c0.27,0.1,0.5,0.21,0.71,0.31s0.39,0.23,0.54,0.36s0.26,0.29,0.34,0.47s0.12,0.38,0.12,0.63
			c0,0.3-0.07,0.55-0.2,0.77s-0.31,0.4-0.52,0.54s-0.47,0.25-0.76,0.32s-0.58,0.11-0.9,0.11
			C386.02,142.16,385.49,142.04,385.03,141.8z"/>
		<path fill="#1E1E1E" d="M395.31,139.26h-4.24c0.02,0.67,0.2,1.18,0.54,1.55s0.82,0.54,1.42,0.54c0.68,0,1.3-0.22,1.86-0.67v0.9
			c-0.53,0.38-1.22,0.57-2.09,0.57c-0.85,0-1.51-0.27-2-0.82s-0.73-1.31-0.73-2.3c0-0.93,0.26-1.69,0.79-2.28s1.19-0.88,1.97-0.88
			s1.39,0.25,1.82,0.76s0.64,1.21,0.64,2.12V139.26z M394.33,138.44c0-0.55-0.14-0.99-0.4-1.29s-0.63-0.46-1.1-0.46
			c-0.45,0-0.84,0.16-1.15,0.49s-0.51,0.75-0.59,1.27H394.33z"/>
		<path fill="#1E1E1E" d="M401.06,142.01h-0.96v-0.94h-0.02c-0.42,0.72-1.03,1.08-1.85,1.08c-0.6,0-1.07-0.16-1.4-0.47
			s-0.51-0.74-0.51-1.26c0-1.12,0.66-1.77,1.98-1.96l1.8-0.25c0-1.02-0.41-1.53-1.24-1.53c-0.72,0-1.38,0.25-1.96,0.74v-0.98
			c0.59-0.38,1.27-0.56,2.04-0.56c1.41,0,2.12,0.75,2.12,2.24V142.01z M400.1,138.98l-1.45,0.2c-0.45,0.06-0.78,0.17-1.01,0.33
			s-0.34,0.44-0.34,0.84c0,0.29,0.1,0.53,0.31,0.72s0.49,0.28,0.83,0.28c0.48,0,0.87-0.17,1.18-0.5s0.47-0.76,0.47-1.27V138.98z"/>
		<path fill="#1E1E1E" d="M406,136.99c-0.17-0.13-0.41-0.19-0.73-0.19c-0.41,0-0.75,0.19-1.03,0.58s-0.41,0.91-0.41,1.58v3.06h-0.96
			v-6h0.96v1.24h0.02c0.14-0.42,0.35-0.75,0.63-0.99s0.6-0.35,0.94-0.35c0.25,0,0.44,0.03,0.57,0.08V136.99z"/>
		<path fill="#1E1E1E" d="M411.13,141.74c-0.46,0.28-1.01,0.42-1.64,0.42c-0.86,0-1.55-0.28-2.07-0.83s-0.79-1.28-0.79-2.17
			c0-0.99,0.28-1.78,0.85-2.38s1.32-0.9,2.27-0.9c0.53,0,0.99,0.1,1.39,0.29v0.98c-0.45-0.31-0.92-0.47-1.43-0.47
			c-0.61,0-1.12,0.22-1.51,0.66s-0.59,1.02-0.59,1.73c0,0.7,0.18,1.26,0.55,1.66s0.86,0.61,1.49,0.61c0.52,0,1.02-0.17,1.48-0.52
			V141.74z"/>
		<path fill="#1E1E1E" d="M417.57,142.01h-0.96v-3.46c0-1.25-0.46-1.88-1.39-1.88c-0.47,0-0.86,0.18-1.18,0.54s-0.48,0.83-0.48,1.39
			v3.4h-0.96v-8.88h0.96v3.88h0.02c0.46-0.76,1.12-1.14,1.97-1.14c1.35,0,2.03,0.81,2.03,2.44V142.01z"/>
		<path fill="#1E1E1E" d="M425.75,133.61l-3.11,8.4h-1.08l-3.05-8.4h1.1l2.33,6.66c0.07,0.21,0.13,0.46,0.17,0.74h0.02
			c0.03-0.23,0.1-0.49,0.19-0.76l2.37-6.65H425.75z"/>
		<path fill="#1E1E1E" d="M433.73,142.01h-1.21l-4.32-6.7c-0.11-0.17-0.2-0.34-0.27-0.53h-0.04c0.03,0.18,0.05,0.56,0.05,1.15v6.07
			h-0.98v-8.4h1.28l4.21,6.59c0.18,0.27,0.29,0.46,0.34,0.56h0.02c-0.04-0.24-0.06-0.65-0.06-1.24v-5.92h0.98V142.01z"/>
		<path fill="#1E1E1E" d="M440.63,139.26h-4.24c0.02,0.67,0.2,1.18,0.54,1.55s0.82,0.54,1.42,0.54c0.68,0,1.3-0.22,1.86-0.67v0.9
			c-0.53,0.38-1.22,0.57-2.09,0.57c-0.85,0-1.51-0.27-2-0.82s-0.73-1.31-0.73-2.3c0-0.93,0.26-1.69,0.79-2.28s1.19-0.88,1.97-0.88
			s1.39,0.25,1.82,0.76s0.64,1.21,0.64,2.12V139.26z M439.64,138.44c0-0.55-0.14-0.99-0.4-1.29s-0.63-0.46-1.1-0.46
			c-0.45,0-0.84,0.16-1.15,0.49s-0.51,0.75-0.59,1.27H439.64z"/>
		<path fill="#1E1E1E" d="M444.86,141.96c-0.23,0.13-0.53,0.19-0.9,0.19c-1.05,0-1.58-0.59-1.58-1.76v-3.55h-1.03v-0.82h1.03v-1.46
			l0.96-0.31v1.78h1.51v0.82h-1.51v3.38c0,0.4,0.07,0.69,0.21,0.86s0.36,0.26,0.68,0.26c0.24,0,0.45-0.07,0.63-0.2V141.96z"/>
	</g>
	<g>
		<path fill="#1E1E1E" d="M355.26,220.75h-1.17l-1.41-2.36c-0.13-0.22-0.25-0.41-0.38-0.56s-0.25-0.28-0.37-0.38
			s-0.26-0.17-0.41-0.21s-0.31-0.07-0.5-0.07h-0.81v3.57h-0.98v-8.4h2.51c0.37,0,0.71,0.05,1.02,0.14s0.58,0.23,0.81,0.42
			s0.41,0.42,0.54,0.7s0.19,0.61,0.19,0.98c0,0.29-0.04,0.56-0.13,0.81s-0.21,0.46-0.38,0.65s-0.36,0.35-0.59,0.49
			s-0.49,0.24-0.77,0.31v0.02c0.14,0.06,0.26,0.13,0.37,0.21s0.2,0.17,0.3,0.28s0.19,0.23,0.28,0.37s0.19,0.3,0.31,0.48
			L355.26,220.75z M350.22,213.24v3.05h1.34c0.25,0,0.47-0.04,0.68-0.11s0.39-0.18,0.54-0.32s0.27-0.31,0.36-0.51
			s0.13-0.43,0.13-0.68c0-0.45-0.15-0.8-0.44-1.05s-0.71-0.38-1.26-0.38H350.22z"/>
		<path fill="#1E1E1E" d="M360.75,217.99h-4.24c0.02,0.67,0.2,1.18,0.54,1.55s0.82,0.54,1.42,0.54c0.68,0,1.3-0.22,1.86-0.67v0.9
			c-0.53,0.38-1.22,0.57-2.09,0.57c-0.85,0-1.51-0.27-2-0.82s-0.73-1.31-0.73-2.3c0-0.93,0.26-1.69,0.79-2.28s1.19-0.88,1.97-0.88
			s1.39,0.25,1.82,0.76s0.64,1.21,0.64,2.12V217.99z M359.77,217.18c0-0.55-0.14-0.99-0.4-1.29s-0.63-0.46-1.1-0.46
			c-0.45,0-0.84,0.16-1.15,0.49s-0.51,0.75-0.59,1.27H359.77z"/>
		<path fill="#1E1E1E" d="M361.84,220.54v-1.03c0.52,0.39,1.1,0.58,1.73,0.58c0.84,0,1.27-0.28,1.27-0.84c0-0.16-0.04-0.3-0.11-0.41
			s-0.17-0.21-0.29-0.3s-0.27-0.16-0.43-0.23s-0.34-0.14-0.54-0.21c-0.27-0.11-0.5-0.21-0.7-0.32s-0.37-0.23-0.5-0.36
			s-0.24-0.29-0.3-0.46s-0.1-0.37-0.1-0.6c0-0.28,0.06-0.53,0.19-0.75s0.3-0.4,0.52-0.54s0.46-0.26,0.74-0.33s0.56-0.11,0.85-0.11
			c0.52,0,0.98,0.09,1.39,0.27v0.97c-0.44-0.29-0.95-0.43-1.52-0.43c-0.18,0-0.34,0.02-0.49,0.06s-0.27,0.1-0.37,0.17
			s-0.18,0.16-0.24,0.27s-0.08,0.22-0.08,0.34c0,0.16,0.03,0.29,0.08,0.39s0.14,0.2,0.25,0.28s0.24,0.16,0.4,0.22
			s0.33,0.14,0.53,0.22c0.27,0.1,0.5,0.21,0.71,0.31s0.39,0.23,0.54,0.36s0.26,0.29,0.34,0.47s0.12,0.38,0.12,0.63
			c0,0.3-0.07,0.55-0.2,0.77s-0.31,0.4-0.52,0.54s-0.47,0.25-0.76,0.32s-0.58,0.11-0.9,0.11
			C362.83,220.89,362.29,220.77,361.84,220.54z"/>
		<path fill="#1E1E1E" d="M372.12,217.99h-4.24c0.02,0.67,0.2,1.18,0.54,1.55s0.82,0.54,1.42,0.54c0.68,0,1.3-0.22,1.86-0.67v0.9
			c-0.53,0.38-1.22,0.57-2.09,0.57c-0.85,0-1.51-0.27-2-0.82s-0.73-1.31-0.73-2.3c0-0.93,0.26-1.69,0.79-2.28s1.19-0.88,1.97-0.88
			s1.39,0.25,1.82,0.76s0.64,1.21,0.64,2.12V217.99z M371.13,217.18c0-0.55-0.14-0.99-0.4-1.29s-0.63-0.46-1.1-0.46
			c-0.45,0-0.84,0.16-1.15,0.49s-0.51,0.75-0.59,1.27H371.13z"/>
		<path fill="#1E1E1E" d="M377.87,220.75h-0.96v-0.94h-0.02c-0.42,0.72-1.03,1.08-1.85,1.08c-0.6,0-1.07-0.16-1.4-0.47
			s-0.51-0.74-0.51-1.26c0-1.12,0.66-1.77,1.98-1.96l1.8-0.25c0-1.02-0.41-1.53-1.24-1.53c-0.72,0-1.38,0.25-1.96,0.74v-0.98
			c0.59-0.38,1.27-0.56,2.04-0.56c1.41,0,2.12,0.75,2.12,2.24V220.75z M376.91,217.72l-1.45,0.2c-0.45,0.06-0.78,0.17-1.01,0.33
			s-0.34,0.44-0.34,0.84c0,0.29,0.1,0.53,0.31,0.72s0.49,0.28,0.83,0.28c0.48,0,0.87-0.17,1.18-0.5s0.47-0.76,0.47-1.27V217.72z"/>
		<path fill="#1E1E1E" d="M382.81,215.72c-0.17-0.13-0.41-0.19-0.73-0.19c-0.41,0-0.75,0.19-1.03,0.58s-0.41,0.91-0.41,1.58v3.06
			h-0.96v-6h0.96v1.24h0.02c0.14-0.42,0.35-0.75,0.63-0.99s0.6-0.35,0.94-0.35c0.25,0,0.44,0.03,0.57,0.08V215.72z"/>
		<path fill="#1E1E1E" d="M387.94,220.48c-0.46,0.28-1.01,0.42-1.64,0.42c-0.86,0-1.55-0.28-2.07-0.83s-0.79-1.28-0.79-2.17
			c0-0.99,0.28-1.78,0.85-2.38s1.32-0.9,2.27-0.9c0.53,0,0.99,0.1,1.39,0.29v0.98c-0.45-0.31-0.92-0.47-1.43-0.47
			c-0.61,0-1.12,0.22-1.51,0.66s-0.59,1.02-0.59,1.73c0,0.7,0.18,1.26,0.55,1.66s0.86,0.61,1.49,0.61c0.52,0,1.02-0.17,1.48-0.52
			V220.48z"/>
		<path fill="#1E1E1E" d="M394.37,220.75h-0.96v-3.46c0-1.25-0.46-1.88-1.39-1.88c-0.47,0-0.86,0.18-1.18,0.54s-0.48,0.83-0.48,1.39
			v3.4h-0.96v-8.88h0.96v3.88h0.02c0.46-0.76,1.12-1.14,1.97-1.14c1.35,0,2.03,0.81,2.03,2.44V220.75z"/>
		<path fill="#1E1E1E" d="M402.56,212.35l-3.11,8.4h-1.08l-3.05-8.4h1.1l2.33,6.66c0.07,0.21,0.13,0.46,0.17,0.74h0.02
			c0.03-0.23,0.1-0.49,0.19-0.76l2.37-6.65H402.56z"/>
		<path fill="#1E1E1E" d="M412.33,220.75h-0.98v-5.64c0-0.45,0.03-0.99,0.08-1.63h-0.02c-0.09,0.38-0.18,0.65-0.25,0.81l-2.87,6.46
			h-0.48l-2.87-6.41c-0.08-0.19-0.17-0.47-0.25-0.86h-0.02c0.03,0.34,0.05,0.88,0.05,1.65v5.63h-0.95v-8.4h1.3l2.58,5.86
			c0.2,0.45,0.33,0.79,0.39,1.01h0.04c0.17-0.46,0.3-0.8,0.4-1.03l2.63-5.84h1.23V220.75z"/>
	</g>
	<g>
	</g>
	<g>
	</g>
	<g>
	</g>
	<g>
	</g>
	<g>
	</g>
	<g>
	</g>
	<g>
	</g>
	<g>
	</g>
	<g>
	</g>
	<g>
	</g>
	<g>
	</g>
	<g>
	</g>
	<g>
	</g>
	<g>
	</g>
	<g>
	</g>
	<g>
	</g>
	<g>
	</g>
	<g>
	</g>
	<g>
	</g>
	<g>
	</g>
	<g>
	</g>
	<g>
	</g>
	<g>
	</g>
	<g>
	</g>
	<g>
	</g>
	<g>
	</g>
	<g>
	</g>
	<g>
	</g>
	<g>
	</g>
	<g>
	</g>
	<g>
	</g>
	<g>
	</g>
	<g>
	</g>
	<g>
	</g>
	<g>
	</g>
	<g>
	</g>
	<g>
	</g>
	<g>
	</g>
	<g>
	</g>
	<g>
	</g>
	<g>
	</g>
	<g>
	</g>
	<g>
	</g>
	<g>
	</g>
	<g>
	</g>
	<g>
	</g>
	<g>
	</g>
	<g>
	</g>
	<g>
	</g>
	<g>
	</g>
	<g>
	</g>
	<g>
	</g>
	<g>
	</g>
	<g>
	</g>
	<g>
	</g>
	<g>
	</g>
	<g>
	</g>
	<g>
	</g>
	<g>
	</g>
	<g>
	</g>
	<g>
	</g>
	<g>
	</g>
	<g>
	</g>
	<g>
	</g>
	<g>
	</g>
	<g>
	</g>
	<g>
	</g>
	<g>
	</g>
	<g>
	</g>
	<g>
	</g>
	<g>
	</g>
	<g>
	</g>
	<g>
	</g>
	<g>
	</g>
	<g>
	</g>
	<g>
	</g>
	<g>
	</g>
	<g>
	</g>
	<g>
	</g>
	<g>
	</g>
	<g>
	</g>
	<g>
	</g>
	<g>
	</g>
	<g>
	</g>
	<g>
	</g>
	<g>
	</g>
	<g>
	</g>
	<g>
	</g>
	<g>
	</g>
	<g>
	</g>
	<g>
	</g>
	<g>
	</g>
	<g>
	</g>
	<g>
	</g>
	<g>
	</g>
	<g>
	</g>
	<g>
	</g>
	<g>
	</g>
	<g>
	</g>
	<g>
	</g>
	<g>
	</g>
	<g>
	</g>
	<g>
	</g>
	<g>
	</g>
	<g>
	</g>
	<g>
	</g>
	<g>
	</g>
	<g>
	</g>
	<g>
	</g>
	<g>
	</g>
	<g>
	</g>
	<g>
	</g>
	<g>
	</g>
	<g>
	</g>
	<g>
	</g>
	<g>
	</g>
	<g>
	</g>
	<g>
	</g>
	<g>
	</g>
	<g>
	</g>
	<g>
	</g>
	<g>
	</g>
	<g>
	</g>
	<g>
	</g>
	<g>
	</g>
	<g>
	</g>
	<g>
	</g>
	<g>
	</g>
	<g>
	</g>
	<g>
	</g>
	<g>
	</g>
	<g>
	</g>
	<g>
	</g>
	<g>
	</g>
	<g>
	</g>
	<g>
	</g>
	<g>
	</g>
	<g>
	</g>
	<g>
	</g>
	<g>
	</g>
	<g>
	</g>
	<g>
	</g>
	<g>
	</g>
	<g>
	</g>
	<g>
	</g>
	<g>
	</g>
	<g>
	</g>
	<g>
	</g>
	<g>
	</g>
	<g>
	</g>
	<g>
	</g>
	<g>
	</g>
	<g>
	</g>
	<g>
	</g>
	<g>
	</g>
	<g>
	</g>
	<g>
	</g>
	<g>
	</g>
	<g>
	</g>
	<g>
	</g>
	<g>
	</g>
	<g>
	</g>
	<g>
	</g>
	<g>
	</g>
	<g>
	</g>
	<g>
	</g>
	<g>
	</g>
	<g>
	</g>
	<g>
	</g>
	<g>
	</g>
	<g>
	</g>
	<g>
	</g>
	<g>
	</g>
	<g>
	</g>
	<g>
	</g>
	<g>
	</g>
	<g>
	</g>
	<g>
	</g>
	<g>
	</g>
	<g>
	</g>
	<g>
	</g>
	<g>
	</g>
	<g>
	</g>
	<g>
	</g>
	<g>
	</g>
	<g>
	</g>
	<g>
	</g>
	<g>
	</g>
	<g>
	</g>
	<g>
	</g>
	<g>
	</g>
	<g>
	</g>
	<g>
	</g>
	<g>
	</g>
	<g>
	</g>
	<g>
	</g>
	<g>
	</g>
	<g>
	</g>
	<g>
	</g>
	<g>
	</g>
	<g>
	</g>
	<g>
	</g>
	<g>
	</g>
	<g>
	</g>
	<g>
	</g>
	<g>
	</g>
	<g>
	</g>
	<g>
	</g>
	<g>
	</g>
	<g>
	</g>
	<g>
	</g>
	<g>
	</g>
	<g>
	</g>
	<g>
	</g>
	<g>
	</g>
	<g>
	</g>
	<g>
	</g>
	<g>
	</g>
	<g>
	</g>
	<g>
	</g>
	<g>
	</g>
	<g>
	</g>
	<g>
	</g>
	<g>
	</g>
	<g>
	</g>
	<g>
	</g>
	<g>
	</g>
	<g>
	</g>
	<g>
	</g>
	<g>
	</g>
	<g>
	</g>
	<g>
	</g>
	<g>
	</g>
	<g>
	</g>
	<g>
	</g>
	<g>
	</g>
	<g>
	</g>
	<g>
	</g>
	<g>
	</g>
	<g>
	</g>
	<g>
	</g>
	<g>
	</g>
	<g>
	</g>
	<g>
	</g>
	<g>
	</g>
	<g>
	</g>
	<g>
	</g>
	<g>
	</g>
	<g>
	</g>
	<g>
	</g>
	<g>
	</g>
	<g>
	</g>
	<g>
	</g>
	<g>
	</g>
	<g>
	</g>
	<g>
	</g>
	<g>
	</g>
	<g>
	</g>
	<g>
	</g>
	<g>
	</g>
	<g>
	</g>
	<g>
	</g>
	<g>
	</g>
	<g>
	</g>
	<g>
	</g>
	<g>
	</g>
	<g>
	</g>
	<g>
	</g>
	<g>
	</g>
	<g>
	</g>
	<g>
	</g>
	<g>
	</g>
	<g>
	</g>
	<g>
	</g>
	<g>
	</g>
	<g>
	</g>
	<g>
	</g>
	<g>
	</g>
	<g>
	</g>
	<g>
	</g>
	<g>
	</g>
	<g>
	</g>
	<g>
	</g>
	<g>
	</g>
	<g>
	</g>
	<g>
	</g>
	<g>
	</g>
	<g>
	</g>
	<g>
	</g>
	<g>
	</g>
	<g>
	</g>
	<g>
	</g>
	<g>
	</g>
	<g>
	</g>
	<g>
	</g>
	<g>
	</g>
	<g>
	</g>
	<g>
	</g>
	<g>
	</g>
	<g>
	</g>
	<g>
	</g>
	<g>
	</g>
	<g>
	</g>
	<g>
	</g>
	<g>
	</g>
	<g>
	</g>
	<g>
	</g>
	<g>
	</g>
	<g>
	</g>
	<g>
	</g>
	<g>
	</g>
	<g>
	</g>
	<g>
	</g>
	<g>
	</g>
	<g>
	</g>
	<g>
	</g>
	<g>
	</g>
	<g>
	</g>
	<g>
	</g>
	<g>
	</g>
	<g>
	</g>
	<g>
	</g>
	<g>
	</g>
	<g>
	</g>
	<g>
	</g>
	<g>
	</g>
	<g>
	</g>
	<g>
	</g>
	<g>
	</g>
	<g>
	</g>
	<g>
	</g>
	<g>
	</g>
	<g>
	</g>
	<g>
	</g>
	<g>
	</g>
	<g>
	</g>
	<g>
	</g>
	<g>
	</g>
	<g>
	</g>
	<g>
	</g>
	<g>
	</g>
	<g>
	</g>
	<g>
	</g>
	<g>
	</g>
	<g>
	</g>
	<g>
	</g>
	<g>
	</g>
	<g>
	</g>
	<g>
	</g>
	<g>
	</g>
	<g>
	</g>
	<g>
	</g>
	<g>
	</g>
	<g>
	</g>
	<g>
	</g>
	<g>
	</g>
	<g>
	</g>
	<g>
	</g>
	<g>
	</g>
	<g>
	</g>
	<g>
	</g>
	<g>
	</g>
	<g>
	</g>
	<g>
	</g>
	<g>
	</g>
	<g>
	</g>
	<g>
	</g>
	<g>
	</g>
	<g>
	</g>
	<g>
	</g>
	<g>
	</g>
	<g>
	</g>
	<g>
	</g>
	<g>
	</g>
	<g>
	</g>
	<g>
	</g>
	<g>
	</g>
	<g>
	</g>
	<g>
	</g>
	<g>
	</g>
	<g>
	</g>
	<g>
	</g>
	<g>
	</g>
	<g>
	</g>
	<g>
	</g>
	<g>
	</g>
	<g>
	</g>
	<g>
	</g>
	<g>
	</g>
	<g>
	</g>
	<g>
	</g>
	<g>
	</g>
	<g>
	</g>
	<g>
	</g>
	<g>
	</g>
	<g>
	</g>
	<g>
	</g>
	<g>
	</g>
	<g>
	</g>
	<g>
	</g>
	<g>
	</g>
	<g>
	</g>
	<g>
	</g>
	<g>
	</g>
	<g>
	</g>
	<g>
	</g>
	<g>
	</g>
	<g>
	</g>
	<g>
	</g>
	<g>
	</g>
	<g>
	</g>
	<g>
	</g>
	<g>
	</g>
	<g>
	</g>
	<g>
	</g>
	<g>
	</g>
	<g>
	</g>
	<g>
	</g>
	<g>
	</g>
	<g>
	</g>
	<g>
	</g>
	<g>
	</g>
	<g>
	</g>
	<g>
	</g>
	<g>
	</g>
	<g>
	</g>
	<g>
	</g>
	<g>
	</g>
	<g>
	</g>
	<g>
	</g>
	<g>
	</g>
	<g>
	</g>
	<g>
	</g>
	<g>
	</g>
	<g>
	</g>
	<g>
	</g>
	<g>
	</g>
	<g>
	</g>
	<g>
	</g>
	<g>
	</g>
	<g>
	</g>
	<g>
	</g>
	<g>
	</g>
	<g>
	</g>
	<g>
	</g>
	<g>
	</g>
	<g>
	</g>
	<g>
	</g>
	<g>
	</g>
	<g>
	</g>
	<g>
	</g>
	<g>
	</g>
	<g>
	</g>
	<g>
	</g>
	<g>
	</g>
	<g>
	</g>
	<g>
	</g>
	<g>
	</g>
	<g>
	</g>
	<g>
	</g>
	<g>
	</g>
	<g>
	</g>
	<g>
	</g>
	<g>
	</g>
	<g>
	</g>
	<g>
	</g>
	<g>
	</g>
	<g>
	</g>
	<g>
	</g>
	<g>
	</g>
	<g>
	</g>
	<g>
	</g>
	<g>
	</g>
	<g>
	</g>
	<g>
	</g>
	<g>
	</g>
	<g>
	</g>
	<g>
	</g>
	<g>
	</g>
	<g>
	</g>
	<g>
	</g>
	<g>
	</g>
	<g>
	</g>
	<g>
	</g>
	<g>
	</g>
	<g>
	</g>
	<g>
	</g>
	<g>
	</g>
	<g>
	</g>
	<g>
	</g>
	<g>
	</g>
	<g>
	</g>
	<g>
	</g>
	<g>
	</g>
	<g>
	</g>
	<g>
	</g>
	<g>
	</g>
	<g>
	</g>
	<g>
	</g>
	<g>
	</g>
	<g>
	</g>
	<g>
	</g>
	<g>
	</g>
	<g>
	</g>
	<g>
	</g>
	<g>
	</g>
	<g>
	</g>
	<g>
	</g>
	<g>
	</g>
	<g>
	</g>
	<g>
	</g>
	<g>
	</g>
	<g>
	</g>
	<g>
	</g>
	<g>
	</g>
	<g>
	</g>
	<g>
	</g>
	<g>
	</g>
	<g>
	</g>
	<g>
	</g>
	<g>
	</g>
	<g>
	</g>
	<g>
	</g>
	<g>
	</g>
	<g>
	</g>
	<g>
	</g>
	<g>
	</g>
	<g>
	</g>
	<g>
	</g>
	<g>
	</g>
	<g>
	</g>
	<g>
	</g>
	<g>
	</g>
	<g>
	</g>
	<g>
	</g>
	<g>
	</g>
	<g>
	</g>
	<g>
	</g>
	<g>
	</g>
	<g>
	</g>
	<g>
	</g>
	<g>
	</g>
	<g>
	</g>
	<g>
	</g>
	<g>
	</g>
	<g>
	</g>
	<g>
	</g>
	<g>
	</g>
	<g>
	</g>
	<g>
	</g>
	<g>
	</g>
	<g>
	</g>
	<g>
	</g>
	<g>
	</g>
	<g>
	</g>
	<g>
	</g>
	<g>
	</g>
	<g>
	</g>
	<g>
	</g>
	<g>
	</g>
	<g>
	</g>
	<g>
	</g>
	<g>
	</g>
	<g>
	</g>
	<g>
	</g>
	<g>
	</g>
	<g>
	</g>
	<g>
	</g>
	<g>
	</g>
	<g>
	</g>
	<g>
	</g>
	<g>
	</g>
	<g>
	</g>
	<g>
	</g>
	<g>
	</g>
	<g>
	</g>
	<g>
	</g>
	<g>
	</g>
	<g>
	</g>
	<g>
	</g>
	<g>
	</g>
	<g>
	</g>
	<g>
	</g>
	<g>
	</g>
	<g>
	</g>
	<g>
	</g>
	<g>
	</g>
	<g>
	</g>
	<g>
	</g>
	<g>
	</g>
	<g>
	</g>
	<g>
	</g>
	<g>
	</g>
	<g>
	</g>
	<g>
	</g>
	<g>
	</g>
	<g>
	</g>
	<g>
	</g>
	<g>
	</g>
	<g>
	</g>
	<g>
	</g>
	<g>
	</g>
	<g>
	</g>
	<g>
	</g>
	<g>
	</g>
	<g>
	</g>
	<g>
	</g>
	<g>
	</g>
	<g>
	</g>
	<g>
	</g>
	<g>
	</g>
	<g>
	</g>
	<g>
	</g>
	<g>
	</g>
	<g>
	</g>
	<g>
	</g>
	<g>
	</g>
	<g>
	</g>
	<g>
	</g>
	<g>
	</g>
	<g>
	</g>
	<g>
	</g>
	<g>
	</g>
	<g>
	</g>
	<g>
	</g>
	<g>
	</g>
	<g>
	</g>
	<g>
	</g>
	<g>
	</g>
	<g>
	</g>
	<g>
	</g>
	<g>
	</g>
	<g>
	</g>
	<g>
	</g>
	<g>
	</g>
	<g>
	</g>
	<g>
	</g>
	<g>
	</g>
	<g>
	</g>
	<g>
	</g>
	<g>
	</g>
	<g>
	</g>
	<g>
	</g>
	<g>
	</g>
	<g>
	</g>
	<g>
	</g>
	<g>
	</g>
	<g>
	</g>
	<g>
	</g>
	<g>
	</g>
	<g>
	</g>
	<g>
	</g>
	<g>
	</g>
	<g>
	</g>
	<g>
	</g>
	<g>
	</g>
	<g>
	</g>
	<g>
	</g>
	<g>
	</g>
	<g>
	</g>
	<g>
	</g>
	<g>
	</g>
	<g>
	</g>
	<g>
	</g>
	<g>
	</g>
	<g>
	</g>
	<g>
	</g>
	<g>
	</g>
	<g>
	</g>
	<g>
	</g>
	<g>
	</g>
	<g>
	</g>
	<g>
	</g>
	<g>
	</g>
	<g>
	</g>
	<g>
	</g>
	<g>
	</g>
	<g>
	</g>
	<g>
	</g>
	<g>
	</g>
	<g>
	</g>
	<g>
	</g>
	<g>
	</g>
	<g>
	</g>
	<g>
	</g>
	<g>
	</g>
	<g>
	</g>
	<g>
	</g>
	<g>
	</g>
	<g>
	</g>
	<g>
	</g>
	<g>
	</g>
	<g>
	</g>
	<g>
	</g>
	<g>
	</g>
	<g>
	</g>
	<g>
	</g>
	<g>
	</g>
	<g>
	</g>
	<g>
	</g>
	<g>
	</g>
	<g>
	</g>
	<g>
	</g>
	<g>
	</g>
	<g>
	</g>
	<g>
	</g>
	<g>
	</g>
	<g>
	</g>
	<g>
	</g>
	<g>
	</g>
	<g>
	</g>
	<g>
	</g>
	<g>
	</g>
	<g>
	</g>
	<g>
	</g>
	<g>
	</g>
	<g>
	</g>
	<g>
	</g>
	<g>
	</g>
	<g>
	</g>
	<g>
	</g>
	<g>
	</g>
	<g>
	</g>
	<g>
	</g>
	<g>
	</g>
	<g>
	</g>
	<g>
	</g>
	<g>
	</g>
	<g>
	</g>
	<g>
	</g>
	<g>
	</g>
	<g>
	</g>
	<g>
	</g>
	<g>
	</g>
	<g>
	</g>
	<g>
	</g>
	<g>
	</g>
	<g>
	</g>
	<g>
	</g>
	<g>
	</g>
	<g>
	</g>
	<g>
	</g>
	<g>
	</g>
	<g>
	</g>
	<g>
	</g>
	<g>
	</g>
	<g>
	</g>
	<g>
	</g>
	<g>
	</g>
	<g>
	</g>
	<g>
	</g>
	<g>
	</g>
	<g>
	</g>
	<g>
	</g>
	<g>
	</g>
	<g>
	</g>
	<g>
	</g>
	<g>
	</g>
	<g>
	</g>
	<g>
	</g>
	<g>
	</g>
	<g>
	</g>
	<g>
	</g>
	<g>
	</g>
	<g>
	</g>
	<g>
	</g>
	<g>
	</g>
	<g>
	</g>
	<g>
	</g>
	<g>
	</g>
	<g>
	</g>
	<g>
	</g>
	<g>
	</g>
	<g>
	</g>
	<g>
	</g>
	<g>
	</g>
	<g>
	</g>
	<g>
	</g>
	<g>
	</g>
	<g>
	</g>
	<g>
	</g>
	<g>
	</g>
	<g>
	</g>
	<g>
	</g>
	<g>
	</g>
	<g>
	</g>
	<g>
	</g>
	<g>
	</g>
	<g>
	</g>
	<g>
	</g>
	<g>
	</g>
	<g>
	</g>
	<g>
	</g>
	<g>
	</g>
	<g>
	</g>
	<g>
	</g>
	<g>
	</g>
	<g>
	</g>
	<g>
	</g>
	<g>
	</g>
	<g>
	</g>
	<g>
	</g>
	<g>
	</g>
	<g>
	</g>
	<g>
	</g>
	<g>
	</g>
	<g>
	</g>
	<g>
	</g>
	<g>
	</g>
	<g>
	</g>
	<g>
	</g>
	<g>
	</g>
	<g>
	</g>
	<g>
	</g>
	<g>
	</g>
	<g>
	</g>
	<g>
	</g>
	<g>
	</g>
	<g>
	</g>
	<g>
	</g>
	<g>
	</g>
	<g>
	</g>
	<g>
	</g>
	<g>
	</g>
	<g>
	</g>
	<g>
	</g>
	<g>
	</g>
	<g>
	</g>
	<g>
	</g>
	<g>
	</g>
	<g>
	</g>
	<g>
	</g>
	<g>
	</g>
	<g>
	</g>
	<g>
	</g>
	<g>
	</g>
	<g>
	</g>
	<g>
	</g>
	<g>
	</g>
	<g>
	</g>
	<g>
	</g>
	<g>
	</g>
	<g>
	</g>
	<g>
	</g>
	<g>
	</g>
	<g>
	</g>
	<g>
	</g>
	<g>
	</g>
	<g>
	</g>
	<g>
	</g>
	<g>
	</g>
	<g>
	</g>
	<g>
	</g>
	<g>
	</g>
	<g>
	</g>
	<g>
	</g>
	<g>
	</g>
	<g>
	</g>
	<g>
	</g>
	<g>
	</g>
	<g>
	</g>
	<g>
	</g>
	<g>
	</g>
	<g>
	</g>
	<g>
	</g>
	<g>
	</g>
	<g>
	</g>
	<g>
	</g>
	<g>
	</g>
	<g>
	</g>
	<g>
	</g>
	<g>
	</g>
	<g>
	</g>
	<g>
	</g>
	<g>
	</g>
	<g>
	</g>
	<g>
	</g>
	<g>
	</g>
	<g>
	</g>
	<g>
	</g>
	<g>
	</g>
	<g>
	</g>
	<g>
	</g>
	<g>
	</g>
	<g>
	</g>
	<g>
	</g>
	<g>
	</g>
	<g>
	</g>
	<g>
	</g>
	<g>
	</g>
	<g>
	</g>
	<g>
	</g>
	<g>
	</g>
	<g>
	</g>
	<g>
	</g>
	<g>
	</g>
	<g>
	</g>
	<g>
	</g>
	<g>
	</g>
	<g>
	</g>
	<g>
	</g>
	<g>
	</g>
	<g>
	</g>
	<g>
	</g>
	<g>
	</g>
	<g>
	</g>
	<g>
	</g>
	<g>
	</g>
	<g>
	</g>
	<g>
	</g>
	<g>
	</g>
	<g>
	</g>
	<g>
	</g>
	<g>
	</g>
	<g>
	</g>
	<g>
	</g>
	<g>
	</g>
	<g>
	</g>
	<g>
	</g>
	<g>
	</g>
	<g>
	</g>
	<g>
	</g>
	<g>
	</g>
	<g>
	</g>
	<g>
	</g>
	<g>
	</g>
	<g>
	</g>
	<g>
	</g>
	<g>
	</g>
	<g>
	</g>
	<g>
	</g>
	<g>
	</g>
	<g>
	</g>
	<g>
	</g>
	<g>
	</g>
	<g>
	</g>
	<g>
	</g>
	<g>
	</g>
	<g>
	</g>
	<g>
	</g>
	<g>
	</g>
	<g>
	</g>
	<g>
	</g>
	<g>
	</g>
	<g>
	</g>
	<g>
	</g>
	<g>
	</g>
	<g>
	</g>
	<g>
	</g>
	<g>
	</g>
	<g>
	</g>
	<g>
	</g>
	<g>
	</g>
	<g>
	</g>
	<g>
	</g>
	<g>
	</g>
</g>
</svg>
