<svg width="100" height="100" viewBox="0 0 100 100" fill="none" xmlns="http://www.w3.org/2000/svg">
<g clip-path="url(#clip0_701_289)">
<path d="M49.6401 96.4499C40.382 96.4499 31.3317 93.7045 23.6339 88.561C15.936 83.4174 9.93624 76.1067 6.3933 67.5533C2.85036 58.9999 1.92337 49.588 3.72954 40.5077C5.53571 31.4275 9.99394 23.0867 16.5404 16.5402C23.0869 9.99372 31.4277 5.5355 40.5079 3.72933C49.5882 1.92315 59.0001 2.85015 67.5535 6.39308C76.1069 9.93602 83.4176 15.9358 88.5612 23.6336C93.7047 31.3315 96.4501 40.3817 96.4501 49.6399C96.4505 55.7872 95.24 61.8744 92.8878 67.5538C90.5355 73.2332 87.0875 78.3937 82.7407 82.7405C78.3939 87.0873 73.2335 90.5353 67.554 92.8876C61.8746 95.2398 55.7874 96.4503 49.6401 96.4499V96.4499Z" fill="url(#paint0_linear_701_289)"/>
<path fill-rule="evenodd" clip-rule="evenodd" d="M95.54 49.6399C95.54 58.718 92.848 67.5923 87.8045 75.1406C82.7609 82.6888 75.5923 88.5719 67.2052 92.046C58.818 95.52 49.5891 96.429 40.6854 94.6579C31.7816 92.8869 23.603 88.5153 17.1838 82.0961C10.7646 75.6769 6.39302 67.4983 4.62196 58.5945C2.85089 49.6908 3.75987 40.4618 7.23393 32.0747C10.708 23.6876 16.5911 16.519 24.1393 11.4754C31.6875 6.43187 40.5618 3.73988 49.64 3.73988C55.6677 3.73986 61.6363 4.92708 67.2052 7.23377C72.774 9.54045 77.834 12.9214 82.0963 17.1836C86.3585 21.4458 89.7394 26.5058 92.0461 32.0747C94.3528 37.6435 95.54 43.6122 95.54 49.6399V49.6399ZM49.64 -0.000106449C59.4579 -0.000106449 69.0552 2.91123 77.2185 8.36574C85.3818 13.8203 91.7442 21.573 95.5014 30.6435C99.2585 39.714 100.242 49.695 98.3262 59.3242C96.4108 68.9534 91.6831 77.7984 84.7408 84.7407C77.7985 91.683 68.9535 96.4107 59.3243 98.3261C49.6951 100.241 39.7141 99.2584 30.6436 95.5013C21.5731 91.7441 13.8204 85.3816 8.36584 77.2184C2.91133 69.0551 -1.61629e-06 59.4577 3.61524e-07 49.6399C-0.000786426 43.1208 1.28265 36.6655 3.77702 30.6425C6.27138 24.6196 9.92781 19.147 14.5375 14.5374C19.1471 9.9277 24.6197 6.27127 30.6427 3.77691C36.6656 1.28254 43.121 -0.000894549 49.64 -0.000106449V-0.000106449Z" fill="#F2F1F0"/>
<path fill-rule="evenodd" clip-rule="evenodd" d="M92.7296 49.64C92.7296 58.1624 90.2024 66.4934 85.4676 73.5795C80.7328 80.6656 74.0031 86.1886 66.1294 89.45C58.2557 92.7113 49.5918 93.5647 41.2331 91.902C32.8745 90.2394 25.1966 86.1355 19.1703 80.1092C13.1441 74.083 9.04017 66.4051 7.37753 58.0464C5.7149 49.6878 6.56822 41.0238 9.8296 33.1502C13.091 25.2765 18.6139 18.5468 25.7 13.812C32.7862 9.07718 41.1172 6.55 49.6396 6.55C55.2983 6.54965 60.9017 7.66397 66.1298 9.82933C71.3579 11.9947 76.1082 15.1687 80.1096 19.17C84.1109 23.1713 87.2849 27.9217 89.4502 33.1498C91.6156 38.3778 92.7299 43.9812 92.7296 49.64ZM49.6396 2.81C58.9017 2.81 67.9558 5.55653 75.6569 10.7023C83.3581 15.848 89.3604 23.1619 92.9049 31.7189C96.4493 40.276 97.3767 49.6919 95.5697 58.7761C93.7628 67.8602 89.3027 76.2045 82.7534 82.7538C76.2041 89.3031 67.8598 93.7632 58.7757 95.5702C49.6915 97.3771 40.2756 96.4497 31.7185 92.9053C23.1614 89.3608 15.8476 83.3585 10.7018 75.6574C5.5561 67.9562 2.80957 58.9021 2.80957 49.64C2.81076 37.2203 7.74501 25.3096 16.5271 16.5275C25.3091 7.74544 37.2198 2.81119 49.6396 2.81V2.81Z" fill="#0078D4"/>
<path d="M49.6394 52.2791V53.9444C49.6394 54.9182 50.0262 55.8521 50.7148 56.5407C51.4034 57.2293 52.3373 57.6161 53.3111 57.6161H65.8579C66.8317 57.6161 67.7656 58.0029 68.4541 58.6915C69.1427 59.3801 69.5295 60.314 69.5295 61.2878V62.2347" stroke="white" stroke-miterlimit="10"/>
<path d="M49.6394 52.2791V53.9444C49.6394 54.9182 49.2526 55.8521 48.564 56.5407C47.8754 57.2293 46.9415 57.6161 45.9677 57.6161H33.4209C32.4472 57.6161 31.5132 58.0029 30.8247 58.6915C30.1361 59.3801 29.7493 60.314 29.7493 61.2878V62.2347" stroke="white" stroke-miterlimit="10"/>
<path fill-rule="evenodd" clip-rule="evenodd" d="M92.7296 49.6399C92.7296 58.1623 90.2024 66.4933 85.4676 73.5794C80.7328 80.6655 74.0031 86.1885 66.1294 89.4499C58.2557 92.7112 49.5918 93.5646 41.2331 91.9019C32.8745 90.2393 25.1966 86.1354 19.1703 80.1091C13.1441 74.0829 9.04017 66.405 7.37753 58.0463C5.7149 49.6877 6.56822 41.0237 9.8296 33.1501C13.091 25.2764 18.6139 18.5467 25.7001 13.8119C32.7862 9.07708 41.1172 6.5499 49.6396 6.5499C55.2983 6.54956 60.9017 7.66388 66.1298 9.82923C71.3579 11.9946 76.1082 15.1686 80.1096 19.1699C84.1109 23.1712 87.2849 27.9216 89.4502 33.1497C91.6156 38.3777 92.7299 43.9811 92.7296 49.6399V49.6399ZM49.6396 2.8099C58.9017 2.8099 67.9558 5.55643 75.6569 10.7022C83.3581 15.8479 89.3604 23.1618 92.9048 31.7188C96.4493 40.2759 97.3767 49.6918 95.5697 58.776C93.7628 67.8601 89.3027 76.2044 82.7534 82.7537C76.2041 89.303 67.8598 93.7631 58.7757 95.5701C49.6915 97.377 40.2756 96.4496 31.7185 92.9052C23.1614 89.3607 15.8476 83.3584 10.7018 75.6573C5.5561 67.9561 2.80957 58.902 2.80957 49.6399C2.81075 37.2202 7.74499 25.3095 16.5271 16.5274C25.3091 7.7453 37.2198 2.81105 49.6396 2.80986V2.8099Z" fill="#0078D4"/>
<path d="M25.2451 75.2649L30.0001 70.5099L33.3901 73.8999L40.1711 67.1189" stroke="white" stroke-width="0.88222" stroke-miterlimit="10" stroke-linecap="round"/>
<path d="M40.1706 68.9129C41.1614 68.9129 41.9646 68.1097 41.9646 67.1188C41.9646 66.128 41.1614 65.3248 40.1706 65.3248C39.1797 65.3248 38.3765 66.128 38.3765 67.1188C38.3765 68.1097 39.1797 68.9129 40.1706 68.9129Z" fill="#0078D4" stroke="white" stroke-width="0.88222" stroke-miterlimit="10" stroke-linecap="round"/>
<path d="M25.245 76.8924C25.9655 76.8924 26.5496 76.3084 26.5496 75.5879C26.5496 74.8674 25.9655 74.2833 25.245 74.2833C24.5245 74.2833 23.9404 74.8674 23.9404 75.5879C23.9404 76.3084 24.5245 76.8924 25.245 76.8924Z" fill="#0078D4" stroke="white" stroke-width="0.88222" stroke-miterlimit="10" stroke-linecap="round"/>
<path d="M30.0279 71.7506C30.6853 71.7506 31.2182 71.2177 31.2182 70.5603C31.2182 69.9029 30.6853 69.37 30.0279 69.37C29.3706 69.37 28.8376 69.9029 28.8376 70.5603C28.8376 71.2177 29.3706 71.7506 30.0279 71.7506Z" fill="#0078D4" stroke="white" stroke-width="0.88222" stroke-miterlimit="10" stroke-linecap="round"/>
<path d="M33.4195 74.8445C34.0769 74.8445 34.6098 74.3116 34.6098 73.6542C34.6098 72.9969 34.0769 72.4639 33.4195 72.4639C32.7622 72.4639 32.2292 72.9969 32.2292 73.6542C32.2292 74.3116 32.7622 74.8445 33.4195 74.8445Z" fill="#0078D4" stroke="white" stroke-width="0.88222" stroke-miterlimit="10" stroke-linecap="round"/>
<path d="M47.7439 67.202H75.34" stroke="#F2F2F2" stroke-width="1.83126" stroke-miterlimit="10" stroke-linecap="round"/>
<path d="M47.7439 71.1919H75.34" stroke="#F2F2F2" stroke-width="1.83126" stroke-miterlimit="10" stroke-linecap="round"/>
<path d="M47.7439 75.1819H75.34" stroke="#F2F2F2" stroke-width="1.83126" stroke-miterlimit="10" stroke-linecap="round"/>
<path d="M47.7439 67.202H58.0699" stroke="#0078D4" stroke-width="1.83126" stroke-miterlimit="10" stroke-linecap="round"/>
<path d="M47.7439 71.1919H68.9782" stroke="#50E6FF" stroke-width="1.83126" stroke-miterlimit="10" stroke-linecap="round"/>
<path d="M47.7439 75.1819H53.9239" stroke="#C3F1FF" stroke-width="1.83126" stroke-miterlimit="10" stroke-linecap="round"/>
<path d="M49.6395 18.3513C46.4981 18.3514 43.4272 19.2831 40.8152 21.0284C38.2032 22.7738 36.1675 25.2544 34.9653 28.1568C33.7632 31.0591 33.4487 34.2528 34.0616 37.3338C34.6745 40.4149 36.1872 43.2451 38.4086 45.4664L49.64 34.235L49.6395 18.3513Z" fill="url(#paint1_linear_701_289)"/>
<path d="M60.8716 23.0036C59.3983 21.5265 57.6476 20.355 55.7201 19.5567C53.7926 18.7583 51.7264 18.3487 49.6401 18.3514H49.6396L49.6401 34.235L60.8716 23.0036Z" fill="url(#paint2_linear_701_289)"/>
<path d="M62.9716 42.8515C64.9481 39.8032 65.8179 36.1686 65.4357 32.5557C65.0534 28.9429 63.4422 25.5708 60.8716 23.0035L49.6401 34.235L62.9716 42.8515Z" fill="url(#paint3_linear_701_289)"/>
<path d="M62.9716 42.8514L49.6401 34.2349L38.4087 45.4663C40.0831 47.1418 42.1113 48.4213 44.3446 49.2109C46.5779 50.0004 48.9596 50.2801 51.3151 50.0293C53.6705 49.7786 55.94 49.0038 57.957 47.7617C59.974 46.5197 61.6874 44.8419 62.9716 42.8514V42.8514Z" fill="url(#paint4_linear_701_289)"/>
</g>
<defs>
<linearGradient id="paint0_linear_701_289" x1="47.8698" y1="-15.1532" x2="51.8525" y2="130.615" gradientUnits="userSpaceOnUse">
<stop stop-color="#00ABDE"/>
<stop offset="1" stop-color="#007ED8"/>
</linearGradient>
<linearGradient id="paint1_linear_701_289" x1="41.6982" y1="45.4664" x2="41.6982" y2="18.3513" gradientUnits="userSpaceOnUse">
<stop stop-color="#004DAE"/>
<stop offset="0.21" stop-color="#0061C4"/>
<stop offset="0.51" stop-color="#0078DD"/>
<stop offset="0.78" stop-color="#0086EC"/>
<stop offset="1" stop-color="#008BF1"/>
</linearGradient>
<linearGradient id="paint2_linear_701_289" x1="55.2556" y1="18.3514" x2="55.2556" y2="34.235" gradientUnits="userSpaceOnUse">
<stop stop-color="#32BEDD"/>
<stop offset="0.18" stop-color="#32CAEA"/>
<stop offset="0.41" stop-color="#32D2F2"/>
<stop offset="0.78" stop-color="#32D4F5"/>
</linearGradient>
<linearGradient id="paint3_linear_701_289" x1="57.5819" y1="42.1392" x2="57.5819" y2="23.4359" gradientUnits="userSpaceOnUse">
<stop stop-color="white"/>
<stop offset="0.56" stop-color="#FBFBFB"/>
<stop offset="1" stop-color="#F2F2F2"/>
</linearGradient>
<linearGradient id="paint4_linear_701_289" x1="50.6901" y1="50.1185" x2="50.6901" y2="34.2064" gradientUnits="userSpaceOnUse">
<stop stop-color="#005BA1"/>
<stop offset="0.26" stop-color="#00589D"/>
<stop offset="0.53" stop-color="#004F90"/>
<stop offset="0.8" stop-color="#003F7C"/>
<stop offset="1" stop-color="#003067"/>
</linearGradient>
<clipPath id="clip0_701_289">
<rect width="99.2799" height="99.28" fill="white"/>
</clipPath>
</defs>
</svg>
