<svg xmlns="http://www.w3.org/2000/svg" xmlns:xlink="http://www.w3.org/1999/xlink" viewBox="0 0 1074.79 749.95"><defs><style>.cls-1,.cls-3{fill:none;}.cls-2,.cls-22{fill:#fff;}.cls-2{stroke:#fff;stroke-miterlimit:10;stroke-width:100px;}.cls-3{stroke:#000;stroke-miterlimit:2.1;stroke-width:1.2px;stroke-dasharray:4.81 3.61;}.cls-22,.cls-23,.cls-24,.cls-29,.cls-4{isolation:isolate;}.cls-4{font-size:21.8px;}.cls-22,.cls-24,.cls-29,.cls-4{font-family:ArialMT, Arial;}.cls-5{clip-path:url(#clip-path);}.cls-6{fill:#5961ff;}.cls-7{clip-path:url(#clip-path-4);}.cls-8{clip-path:url(#clip-path-7);}.cls-9{clip-path:url(#clip-path-10);}.cls-10{clip-path:url(#clip-path-13);}.cls-11{clip-path:url(#clip-path-16);}.cls-12{clip-path:url(#clip-path-19);}.cls-13{clip-path:url(#clip-path-22);}.cls-14{clip-path:url(#clip-path-25);}.cls-15{fill:url(#linear-gradient);}.cls-16{fill:#e8e8e8;}.cls-17{fill:#50e6ff;}.cls-18{fill:#32bedd;}.cls-19{fill:url(#linear-gradient-2);}.cls-20{fill:url(#linear-gradient-3);}.cls-21,.cls-24,.cls-29{fill:#cf5815;}.cls-22,.cls-24{font-size:14.44px;}.cls-25{letter-spacing:-0.02em;}.cls-26{letter-spacing:-0.07em;}.cls-27{fill:#cd5d57;}.cls-28{clip-path:url(#clip-path-28);}.cls-29{font-size:19.17px;}</style><clipPath id="clip-path"><rect class="cls-1" x="894.54" y="309.85" width="130.25" height="129.99"/></clipPath><clipPath id="clip-path-4"><rect class="cls-1" x="152.68" y="277.28" width="65.13" height="65.65"/></clipPath><clipPath id="clip-path-7"><rect class="cls-1" x="152.68" y="342.41" width="65.13" height="64.86"/></clipPath><clipPath id="clip-path-10"><rect class="cls-1" x="152.68" y="406.75" width="65.13" height="65.65"/></clipPath><clipPath id="clip-path-13"><rect class="cls-1" x="152.68" y="536.48" width="65.13" height="65.13"/></clipPath><clipPath id="clip-path-16"><rect class="cls-1" x="152.68" y="148.08" width="65.13" height="65.13"/></clipPath><clipPath id="clip-path-19"><rect class="cls-1" x="152.68" y="471.87" width="65.13" height="64.86"/></clipPath><clipPath id="clip-path-22"><rect class="cls-1" x="152.68" y="212.95" width="65.13" height="64.86"/></clipPath><clipPath id="clip-path-25"><rect class="cls-1" x="471.48" y="331.38" width="86.92" height="86.92"/></clipPath><linearGradient id="linear-gradient" x1="6494.89" y1="-1725.96" x2="6641.55" y2="-1725.96" gradientTransform="matrix(0.26, 0, 0, -0.26, -1188.11, -86.12)" gradientUnits="userSpaceOnUse"><stop offset="0" stop-color="#005ba1"/><stop offset="0.07" stop-color="#0060a9"/><stop offset="0.36" stop-color="#0071c8"/><stop offset="0.52" stop-color="#0078d4"/><stop offset="1" stop-color="#005ba1"/></linearGradient><linearGradient id="linear-gradient-2" x1="6329.89" y1="-1725.96" x2="6476.55" y2="-1725.96" xlink:href="#linear-gradient"/><linearGradient id="linear-gradient-3" x1="6412.39" y1="-1809.01" x2="6559.05" y2="-1809.01" xlink:href="#linear-gradient"/><clipPath id="clip-path-28"><rect class="cls-1" x="595.43" y="309.85" width="65.65" height="65.13"/></clipPath></defs><g id="Background"><rect class="cls-2" x="50" y="50" width="974.79" height="649.95"/></g><g id="Diagram"><path class="cls-3" d="M515.2,50V700"/><text class="cls-4" transform="translate(574.16 89)">PUBLISH</text><g class="cls-5"><g class="cls-5"><g class="cls-5"><path class="cls-6" d="M955.47,400.57h8.13V411.4h-8.13Zm0,16.25h8.13v8.12h-8.13Zm13.54,0h39.27v8.12H969Zm-58.22,0h39.27v8.12H910.79ZM998,378.9h-77a4.85,4.85,0,0,0-4.85,4.85v12a4.85,4.85,0,0,0,4.85,4.85h77a4.85,4.85,0,0,0,4.85-4.85v-12A4.85,4.85,0,0,0,998,378.9Zm-68.27,13.54a2.71,2.71,0,1,1,2.71-2.7A2.7,2.7,0,0,1,929.74,392.44Zm13.54,0a2.71,2.71,0,1,1,2.71-2.7A2.7,2.7,0,0,1,943.28,392.44Zm13.55,0a2.71,2.71,0,1,1,2.7-2.7A2.7,2.7,0,0,1,956.83,392.44ZM998,351.82h-77a4.85,4.85,0,0,0-4.85,4.85v12a4.85,4.85,0,0,0,4.85,4.85h77a4.85,4.85,0,0,0,4.85-4.85v-12a4.85,4.85,0,0,0-4.85-4.85Zm-68.27,13.55a2.71,2.71,0,1,1,2.71-2.72A2.71,2.71,0,0,1,929.74,365.37Zm13.54,0a2.71,2.71,0,1,1,2.71-2.72A2.71,2.71,0,0,1,943.28,365.37Zm13.55,0a2.71,2.71,0,1,1,2.7-2.72A2.71,2.71,0,0,1,956.83,365.37ZM998,324.74h-77a4.85,4.85,0,0,0-4.85,4.85v12a4.85,4.85,0,0,0,4.85,4.85h77a4.85,4.85,0,0,0,4.85-4.85v-12A4.85,4.85,0,0,0,998,324.74Zm-68.27,13.54a2.71,2.71,0,1,1,2.71-2.7A2.7,2.7,0,0,1,929.74,338.28Zm13.54,0a2.71,2.71,0,1,1,2.71-2.7A2.7,2.7,0,0,1,943.28,338.28Zm13.55,0a2.71,2.71,0,1,1,2.7-2.7A2.7,2.7,0,0,1,956.83,338.28Z"/></g></g></g><g class="cls-7"><g class="cls-7"><g class="cls-7"><path class="cls-6" d="M158.11,289.08v42.06h54.27V289.08Zm46.81,4.07a1.36,1.36,0,1,1,0,2.71h0a1.36,1.36,0,1,1,0-2.71Zm-4.75,0a1.36,1.36,0,0,1,0,2.71h0a1.36,1.36,0,0,1,0-2.71Zm-4.75,0a1.36,1.36,0,1,1,0,2.71h0a1.36,1.36,0,1,1,0-2.71Zm12.89,33.92H162.18V299.93h46.13Z"/></g></g></g><g class="cls-8"><g class="cls-8"><g class="cls-8"><path class="cls-6" d="M158.11,353.9v41.89h54.27V353.9ZM204.92,358a1.35,1.35,0,1,1-1.36,1.35,1.36,1.36,0,0,1,1.36-1.35Zm-4.75,0a1.35,1.35,0,1,1-1.36,1.35A1.35,1.35,0,0,1,200.17,358Zm-4.75,0a1.35,1.35,0,1,1-1.36,1.35A1.35,1.35,0,0,1,195.42,358Zm12.89,33.78H162.18v-27h46.13Z"/></g></g></g><g class="cls-9"><g class="cls-9"><g class="cls-9"><path class="cls-6" d="M158.11,418.54V460.6h54.27V418.54Zm46.81,4.07a1.36,1.36,0,1,1-1.36,1.36A1.36,1.36,0,0,1,204.92,422.61Zm-4.75,0a1.36,1.36,0,0,1,0,2.72h0a1.36,1.36,0,0,1,0-2.72Zm-4.75,0a1.36,1.36,0,1,1,0,2.72h0a1.36,1.36,0,0,1,0-2.72Zm12.89,33.92H162.18V429.4h46.13Z"/></g></g></g><g class="cls-10"><g class="cls-10"><g class="cls-10"><path class="cls-6" d="M158.11,548.22v41.9h54.27v-41.9Zm46.81,4.06a1.35,1.35,0,1,1-1.36,1.35A1.35,1.35,0,0,1,204.92,552.28Zm-4.75,0a1.35,1.35,0,1,1-1.36,1.35A1.34,1.34,0,0,1,200.17,552.28Zm-4.75,0a1.35,1.35,0,1,1-1.36,1.35A1.34,1.34,0,0,1,195.42,552.28Zm12.89,33.78H162.18V559h46.13Z"/></g></g></g><g class="cls-11"><g class="cls-11"><g class="cls-11"><path class="cls-6" d="M158.11,159.57v41.89h54.27V159.57Zm46.81,4.05a1.36,1.36,0,1,1-1.36,1.35A1.36,1.36,0,0,1,204.92,163.62Zm-4.75,0a1.36,1.36,0,1,1-1.36,1.35A1.35,1.35,0,0,1,200.17,163.62Zm-4.75,0a1.36,1.36,0,1,1-1.36,1.35A1.35,1.35,0,0,1,195.42,163.62Zm12.89,33.79H162.18v-27h46.13Z"/></g></g></g><g class="cls-12"><g class="cls-12"><g class="cls-12"><path class="cls-6" d="M158.11,483.36v41.89h54.27V483.36Zm46.81,4.06a1.35,1.35,0,1,1-1.36,1.35,1.35,1.35,0,0,1,1.36-1.35Zm-4.75,0a1.35,1.35,0,1,1,0,2.7,1.35,1.35,0,1,1,0-2.7Zm-4.75,0a1.35,1.35,0,1,1,0,2.7,1.35,1.35,0,1,1,0-2.7Zm12.89,33.78H162.18v-27h46.13Z"/></g></g></g><g class="cls-13"><g class="cls-13"><g class="cls-13"><path class="cls-6" d="M158.11,224.43v41.89h54.27V224.43Zm46.81,4.06a1.35,1.35,0,1,1-1.36,1.35,1.35,1.35,0,0,1,1.36-1.35Zm-4.75,0a1.35,1.35,0,1,1,0,2.7,1.35,1.35,0,1,1,0-2.7Zm-4.75,0a1.35,1.35,0,1,1,0,2.7,1.35,1.35,0,1,1,0-2.7Zm12.89,33.78H162.18v-27h46.13Z"/></g></g></g><g class="cls-14"><g class="cls-14"><g class="cls-14"><path class="cls-15" d="M536.74,353.89c-10.64,0-19.26-2.75-19.26-6.17v32.69c0,3.33,8.47,6.07,19,6.12h.24c10.64,0,19.26-2.75,19.26-6.12V347.72c0,3.42-8.62,6.17-19.26,6.17Z"/><path class="cls-16" d="M556,347.72c0,3.42-8.62,6.17-19.26,6.17s-19.26-2.75-19.26-6.17,8.62-6.11,19.26-6.11S556,344.35,556,347.72"/><path class="cls-17" d="M551.52,347.24c0,2.17-6.65,3.9-14.78,3.9S522,349.41,522,347.24s6.64-3.9,14.78-3.9,14.78,1.74,14.78,3.9"/><path class="cls-18" d="M536.74,348.16A41.61,41.61,0,0,0,525,349.6a45.21,45.21,0,0,0,23.4,0A41.61,41.61,0,0,0,536.74,348.16Z"/><path class="cls-19" d="M493.41,353.89c-10.64,0-19.26-2.75-19.26-6.17v32.69c0,3.33,8.47,6.07,19.26,6.12,10.64,0,19.26-2.75,19.26-6.12V347.72C512.67,351.14,504.05,353.89,493.41,353.89Z"/><path class="cls-16" d="M512.67,347.72c0,3.42-8.62,6.17-19.26,6.17s-19.26-2.75-19.26-6.17,8.62-6.11,19.26-6.11,19.26,2.74,19.26,6.11"/><path class="cls-17" d="M508.19,347.24c0,2.17-6.65,3.9-14.78,3.9s-14.78-1.73-14.78-3.9,6.64-3.9,14.78-3.9,14.78,1.74,14.78,3.9"/><path class="cls-18" d="M493.41,348.16a41.61,41.61,0,0,0-11.7,1.44,45.21,45.21,0,0,0,23.4,0A41.61,41.61,0,0,0,493.41,348.16Z"/><path class="cls-20" d="M515.07,375.7c-10.64,0-19.25-2.75-19.25-6.17v32.69c0,3.37,8.47,6.07,19,6.12h.24c10.64,0,19.26-2.75,19.26-6.12V369.53c0,3.42-8.62,6.17-19.26,6.17Z"/><path class="cls-16" d="M534.33,369.53c0,3.42-8.62,6.17-19.26,6.17s-19.25-2.75-19.25-6.17,8.61-6.11,19.25-6.11,19.26,2.74,19.26,6.11"/><path class="cls-17" d="M529.85,369.05c0,2.17-6.64,3.9-14.78,3.9s-14.78-1.73-14.78-3.9,6.65-3.71,14.78-3.71,14.78,1.74,14.78,3.9"/><path class="cls-18" d="M515.07,370.16a41.7,41.7,0,0,0-11.7,1.44,48.09,48.09,0,0,0,23.4-.19A41.55,41.55,0,0,0,515.07,370.16Z"/></g></g></g><path class="cls-21" d="M50,165.94H152.68V192.2H50Z"/><text class="cls-22" transform="translate(72.77 184.32)">orders.new</text><path class="cls-21" d="M67.07,230.8h85.61v26.26H67.07Z"/><g class="cls-23"><text class="cls-22" transform="translate(93.55 249.19)">orders.*</text><text class="cls-24" transform="translate(62.29 313.79)">sta<tspan class="cls-25" x="19.27" y="0">f</tspan><tspan x="23.02" y="0">f.newhire</tspan></text><text class="cls-24" transform="translate(76 378.65)">inventor<tspan class="cls-26" x="51.38" y="0">y</tspan><tspan x="57.53" y="0">.*</tspan></text></g><path class="cls-21" d="M67.07,424.87h85.61v26.26H67.07Z"/><text class="cls-22" transform="translate(93.55 443.25)">orders.*</text><path class="cls-21" d="M50,489.73H152.68V516H50Z"/><g class="cls-23"><text class="cls-22" transform="translate(72.77 508.11)">orders.new</text><text class="cls-24" transform="translate(60.03 572.98)">orders.delete</text></g><path class="cls-27" d="M465,374.2h-7.22V376H465Zm-12.63,0h-7.23V376h7.23Zm-12.64,0h-7.22V376h7.22Zm-12.64,0h-7.22V376h7.22Zm-12.64,0h-7.22V376h7.22Zm-12.64,0h-7.22V376h7.22Zm-12.63,0h-7.22V376h7.22Zm-12.64,0H369.3V376h7.22Zm-12.64,0h-7.22V376h7.22Zm-12.64,0H344V376h7.22ZM340.56,378v7.22h1.8V378Zm0,12.64v7.22h1.8V390.6Zm0,12.64v7.22h1.8v-7.22Zm0,12.63v7.23h1.8v-7.23Zm0,12.64v7.22h1.8v-7.22Zm0,12.64v7.22h1.8v-7.22Zm0,12.64V461h1.8v-7.22Zm0,12.64v7.22h1.8v-7.22Zm0,12.63v7.22h1.8v-7.22Zm0,12.64v7.22h1.8V491.7Zm0,12.64v.29l.9-.9h-6.93v1.8h7.83v-1.19Zm-11.44-.61h-7.23v1.8h7.23Zm-12.64,0h-7.22v1.8h7.22Zm-12.64,0h-7.22v1.8h7.22Zm-12.64,0H284v1.8h7.22Zm-12.64,0h-7.22v1.8h7.22Zm-12.63,0h-7.22v1.8h7.22Zm-12.64,0h-7.22v1.8h7.22Zm-12.64,0h-7.22v1.8h7.22Zm-12.64,0H224v1.8H228ZM225.16,501l-7.22,3.61,7.22,3.61ZM894.68,374.2h-7.22V376h7.22Zm-12.63,0h-7.22V376h7.22Zm-12.64,0h-7.22V376h7.22Zm-12.64,0h-7.22V376h7.22Zm-12.64,0h-7.22V376h7.22Zm-12.63,0h-7.23V376h7.23Zm-12.64,0h-7.22V376h7.22Zm-12.64,0H799V376h7.22Zm-12.64,0h-7.22V376h7.22Zm-12.64,0h-7.22V376h7.22Zm-12.63,0h-7.23V376h7.23Zm-12.64,0h-7.22V376h7.22Zm-12.64,0h-7.22V376H743Zm-12.64,0h-7.22V376h7.22Zm-12.64,0h-7.22V376h7.22Zm-12.63,0H697.9V376h7.22Zm-12.64,0h-7.22V376h7.22Zm-12.64,0h-7.22V376h7.22Zm-12.64,0H660V376h7.22Zm-12.63,0h-7.23V376h7.23Zm-12.64,0h-7.22V376h7.22Zm-12.64,0h-7.22V376h7.22Zm-12.64,0h-7.22V376h7.22Zm-12.64,0h-7.22V376H604Zm-12.63,0h-7.23V376h7.23Zm-12.64,0h-7.1V376h7.1Zm-5.89-2.71-7.23,3.62,7.23,3.61Z"/><g class="cls-28"><g class="cls-28"><g class="cls-28"><path class="cls-21" d="M649,321.38H607.5a2.32,2.32,0,0,0-2.31,2.33v28.05a2.32,2.32,0,0,0,2.31,2.33h25.37l9.23,9.35v-9.35H649a2.31,2.31,0,0,0,2.3-2.33h0V323.71a2.31,2.31,0,0,0-2.3-2.33ZM617.4,341.05a3.39,3.39,0,1,1,3.39-3.39A3.39,3.39,0,0,1,617.4,341.05Zm10.86,0a3.39,3.39,0,1,1,3.39-3.39A3.39,3.39,0,0,1,628.26,341.05Zm10.85,0a3.39,3.39,0,1,1,3.39-3.39A3.39,3.39,0,0,1,639.11,341.05Z"/></g></g></g><text class="cls-29" transform="translate(669.42 349.5)">orders.new</text><path class="cls-27" d="M465,374.2h-7.22V376H465Zm-12.63,0h-7.23V376h7.23Zm-12.64,0h-7.22V376h7.22Zm-12.64,0h-7.22V376h7.22Zm-12.64,0h-7.22V376h7.22Zm-12.64,0h-7.22V376h7.22Zm-12.63,0h-7.22V376h7.22Zm-12.64,0H369.3V376h7.22Zm-12.64,0h-7.22V376h7.22Zm-12.64,0H344V376h7.22ZM340.56,378v7.22h1.8V378Zm0,12.64v7.22h1.8V390.6Zm0,12.64v7.22h1.8v-7.22Zm0,12.63v7.23h1.8v-7.23Zm0,12.64v7.22h1.8v-7.22ZM340.18,439H333v1.8h7.22Zm-12.64,0h-7.22v1.8h7.22Zm-12.64,0h-7.22v1.8h7.22Zm-12.63,0H295v1.8h7.23Zm-12.64,0h-7.22v1.8h7.22ZM277,439h-7.22v1.8H277Zm-12.64,0h-7.22v1.8h7.22Zm-12.64,0h-7.22v1.8h7.22Zm-12.63,0h-7.22v1.8h7.22Zm-12.64,0H224v1.8h2.49Zm-1.28-2.71-7.22,3.61,7.22,3.61Z"/><path class="cls-27" d="M465,375.81h-7.22V374H465Zm-12.63,0h-7.23V374h7.23Zm-12.64,0h-7.22V374h7.22Zm-12.64,0h-7.22V374h7.22Zm-12.64,0h-7.22V374h7.22Zm-12.64,0h-7.22V374h7.22Zm-12.63,0h-7.22V374h7.22Zm-12.64,0H369.3V374h7.22Zm-12.64,0h-7.22V374h7.22Zm-12.64,0H344V374h7.22Zm-10.68-3.76v-7.22h1.8v7.22Zm0-12.64v-7.22h1.8v7.22Zm0-12.63v-7.23h1.8v7.23Zm0-12.64v-7.23h1.8v7.23Zm0-12.64v-7.22h1.8v7.22Zm0-12.64v-7.22h1.8v7.22Zm0-12.64V289h1.8v7.22Zm0-12.63v-7.23h1.8v7.23Zm0-12.64v-7.22h1.8V271Zm0-12.64v-7.22h1.8v7.22Zm0-12.64v-.29l.9.9h-6.93v-1.8h7.83v1.19Zm-11.44.61h-7.23v-1.8h7.23Zm-12.64,0h-7.22v-1.8h7.22Zm-12.64,0h-7.22v-1.8h7.22Zm-12.64,0H284v-1.8h7.22Zm-12.64,0h-7.22v-1.8h7.22Zm-12.63,0h-7.22v-1.8h7.22Zm-12.64,0h-7.22v-1.8h7.22Zm-12.64,0h-7.22v-1.8h7.22Zm-12.64,0H224v-1.8H228ZM225.16,249l-7.22-3.61,7.22-3.61Z"/><path class="cls-27" d="M465,376h-7.22v-1.81H465Zm-12.63,0h-7.23v-1.81h7.23Zm-12.64,0h-7.22v-1.81h7.22Zm-12.64,0h-7.22v-1.81h7.22Zm-12.64,0h-7.22v-1.81h7.22Zm-12.64,0h-7.22v-1.81h7.22Zm-12.63,0h-7.22v-1.81h7.22Zm-12.64,0H369.3v-1.81h7.22Zm-12.64,0h-7.22v-1.81h7.22Zm-12.64,0H344v-1.81h7.22Zm-10.68-3.76V365h1.8v7.22Zm0-12.64v-7.22h1.8v7.22Zm0-12.63v-7.22h1.8v7.22Zm0-12.64v-7.22h1.8v7.22Zm0-12.64v-7.22h1.8v7.22Zm0-12.64V301.8h1.8V309Zm0-12.63v-7.23h1.8v7.23Zm0-12.64v-7.22h1.8v7.22Zm0-12.64v-7.22h1.8v7.22Zm0-12.64v-7.22h1.8v7.22Zm0-12.64v-7.22h1.8v7.22Zm0-12.63V226h1.8v7.23Zm0-12.64v-7.22h1.8v7.22Zm0-12.64V200.7h1.8v7.22Zm0-12.64v-7.22h1.8v7.22Zm0-12.64v-1.86l.9.9h-5.35v-1.81h6.25v2.77Zm-9.87-1h-7.22v-1.81h7.22Zm-12.64,0h-7.22v-1.81h7.22Zm-12.64,0h-7.22v-1.81h7.22Zm-12.63,0h-7.23v-1.81h7.23Zm-12.64,0h-7.22v-1.81h7.22Zm-12.64,0h-7.22v-1.81h7.22Zm-12.64,0h-7.22v-1.81h7.22Zm-12.64,0H235v-1.81h7.22Zm-12.63,0H224v-1.81h5.64Zm-4.43,2.71-7.22-3.61,7.22-3.61Z"/><text class="cls-4" transform="translate(367.57 89)">SUBSCRIBE</text></g></svg>