<?xml version="1.0" encoding="UTF-8"?>
<svg id="Layer_1" xmlns="http://www.w3.org/2000/svg" version="1.1" viewBox="0 0 900 425">
  <!-- Generator: Adobe Illustrator 30.2.1, SVG Export Plug-In . SVG Version: 2.1.1 Build 1)  -->
  <defs>
    <style>
      .st0 {
        fill: #e6f2fb;
        stroke: #45b0e1;
        stroke-width: 1.5px;
      }

      .st1 {
        fill: none;
        stroke: #666;
        stroke-width: 2px;
      }

      .st2 {
        isolation: isolate;
      }

      .st3 {
        fill: #fff;
      }

      .st3, .st4 {
        stroke: #bbb;
      }

      .st5 {
        fill: #333;
      }

      .st6 {
        fill: #1a1a1a;
      }

      .st7 {
        fill: #f4f6f8;
        stroke: #ccc;
      }

      .st4 {
        fill: #edeff2;
      }
    </style>
  </defs>
  <rect class="st3" width="900" height="425"/>
  <g>
    <line class="st1" x1="76.98" y1="351.21" x2="835.4" y2="351.21"/>
    <g>
      <path class="st5" d="M339.66,365.88h-3.64v11.27h-1.48v-11.27h-3.63v-1.34h8.75v1.34Z"/>
      <path class="st5" d="M346.99,372.91h-6.5c0,1.11.27,1.93.8,2.44.53.51,1.16.77,1.89.77.55,0,1.04-.13,1.45-.38.42-.25.77-.63,1.04-1.14l1.18.6c-.32.64-.79,1.17-1.43,1.57-.64.4-1.42.6-2.34.6-1.2,0-2.18-.4-2.94-1.19s-1.15-1.95-1.15-3.49c0-1.37.39-2.5,1.16-3.4s1.76-1.35,2.97-1.35,2.17.37,2.85,1.11c.67.74,1.01,1.77,1.01,3.1v.76ZM345.51,371.7c0-.78-.21-1.39-.64-1.84-.43-.45-1.02-.67-1.77-.67s-1.32.24-1.78.72-.73,1.08-.82,1.79h5.01Z"/>
      <path class="st5" d="M356.31,375.8c-.4.54-.88.93-1.46,1.18-.57.25-1.19.37-1.85.37-1.46,0-2.59-.42-3.41-1.26s-1.22-1.95-1.22-3.33c0-1.49.42-2.67,1.26-3.53s1.92-1.29,3.26-1.29c.7,0,1.34.13,1.92.39.59.26,1.08.66,1.48,1.18l-1.07.79c-.36-.42-.73-.71-1.11-.87s-.8-.24-1.27-.24c-.87,0-1.59.32-2.15.96-.56.64-.84,1.48-.84,2.51s.28,1.88.85,2.5,1.34.94,2.33.94c.39,0,.77-.08,1.16-.24s.73-.45,1.03-.86l1.07.79Z"/>
      <path class="st5" d="M365.76,377.15h-1.44v-5.34c0-.88-.17-1.54-.51-1.97-.34-.43-.85-.65-1.52-.65-.76,0-1.38.27-1.85.8-.47.54-.71,1.21-.71,2.03v5.12h-1.44v-13.32h1.44v5.61h.04c.34-.5.76-.87,1.25-1.12.49-.25,1.06-.37,1.71-.37.98,0,1.74.32,2.26.95s.78,1.55.78,2.76v5.5Z"/>
      <path class="st5" d="M375.77,377.15h-1.44v-5.34c0-.88-.17-1.54-.51-1.97-.34-.43-.85-.65-1.52-.65-.76,0-1.38.27-1.85.8-.47.54-.71,1.21-.71,2.03v5.13h-1.44v-9h1.44v1.28h.04c.34-.5.76-.87,1.25-1.12.49-.25,1.06-.37,1.71-.37.98,0,1.74.32,2.26.95.52.64.78,1.55.78,2.76v5.5Z"/>
      <path class="st5" d="M379.08,366.12c-.31,0-.56-.1-.76-.31s-.29-.45-.29-.73.1-.53.29-.73c.19-.21.45-.31.76-.31s.56.1.76.31c.19.21.29.45.29.73s-.1.53-.29.73-.45.31-.76.31ZM379.78,377.15h-1.44v-9h1.44v9Z"/>
      <path class="st5" d="M389.81,375.8c-.4.54-.88.93-1.46,1.18-.57.25-1.19.37-1.85.37-1.46,0-2.59-.42-3.41-1.26s-1.22-1.95-1.22-3.33c0-1.49.42-2.67,1.26-3.53s1.92-1.29,3.26-1.29c.7,0,1.34.13,1.92.39.59.26,1.08.66,1.48,1.18l-1.07.79c-.36-.42-.73-.71-1.11-.87s-.8-.24-1.27-.24c-.87,0-1.59.32-2.15.96-.56.64-.84,1.48-.84,2.51s.28,1.88.85,2.5,1.34.94,2.33.94c.39,0,.77-.08,1.16-.24s.73-.45,1.03-.86l1.07.79Z"/>
      <path class="st5" d="M398.17,377.15h-1.44v-1.2h-.04c-.3.45-.69.8-1.16,1.04-.47.24-.98.37-1.54.37-.9,0-1.6-.24-2.1-.72s-.76-1.08-.76-1.8c0-.84.26-1.5.79-1.96.53-.47,1.27-.75,2.21-.87l2.59-.3v-.57c0-.65-.17-1.14-.51-1.46-.34-.33-.8-.49-1.38-.49s-1.02.12-1.38.37c-.36.25-.64.6-.83,1.04l-1.26-.52c.29-.68.75-1.21,1.36-1.58s1.34-.56,2.19-.56c1.05,0,1.85.28,2.41.84s.84,1.34.84,2.35v6.02ZM396.73,373.5v-.62l-2.5.28c-.56.06-.97.22-1.23.48-.26.26-.4.59-.4,1.02,0,.46.15.83.46,1.11.3.28.7.42,1.2.42.74,0,1.33-.25,1.79-.76s.68-1.15.68-1.93Z"/>
      <path class="st5" d="M400.71,377.15v-13.32h1.44v13.32h-1.44Z"/>
      <path class="st5" d="M415.48,377.15h-1.44v-1.2h-.04c-.3.45-.69.8-1.16,1.04-.47.24-.98.37-1.54.37-.9,0-1.6-.24-2.1-.72s-.76-1.08-.76-1.8c0-.84.26-1.5.79-1.96.53-.47,1.27-.75,2.21-.87l2.59-.3v-.57c0-.65-.17-1.14-.51-1.46-.34-.33-.8-.49-1.38-.49s-1.02.12-1.38.37c-.36.25-.64.6-.83,1.04l-1.26-.52c.29-.68.75-1.21,1.36-1.58s1.34-.56,2.19-.56c1.05,0,1.85.28,2.41.84s.84,1.34.84,2.35v6.02ZM414.04,373.5v-.62l-2.5.28c-.56.06-.97.22-1.23.48-.26.26-.4.59-.4,1.02,0,.46.15.83.46,1.11.3.28.7.42,1.2.42.74,0,1.33-.25,1.79-.76s.68-1.15.68-1.93Z"/>
      <path class="st5" d="M425.49,377.15h-1.44v-5.34c0-.88-.17-1.54-.51-1.97-.34-.43-.85-.65-1.52-.65-.76,0-1.38.27-1.85.8-.47.54-.71,1.21-.71,2.03v5.13h-1.44v-9h1.44v1.28h.04c.34-.5.76-.87,1.25-1.12.49-.25,1.06-.37,1.71-.37.98,0,1.74.32,2.26.95.52.64.78,1.55.78,2.76v5.5Z"/>
      <path class="st5" d="M434.38,375.83c-.33.5-.76.88-1.28,1.14-.52.26-1.09.39-1.73.39-1.26,0-2.23-.4-2.92-1.21-.69-.8-1.03-1.9-1.03-3.29,0-1.52.39-2.72,1.17-3.6s1.8-1.32,3.05-1.32c.61,0,1.15.11,1.62.33s.85.53,1.12.91h.04v-5.36h1.44v13.32h-1.44v-1.32h-.04ZM428.9,372.79c0,1.02.24,1.83.71,2.43s1.12.9,1.96.9c.88,0,1.57-.29,2.09-.86s.77-1.3.77-2.17v-1.33c0-.71-.25-1.32-.74-1.82s-1.14-.75-1.92-.75c-.87,0-1.57.31-2.08.92s-.77,1.51-.77,2.68Z"/>
      <path class="st5" d="M447.42,369.51c-.14-.06-.29-.12-.45-.16s-.34-.06-.54-.06c-.64,0-1.17.31-1.57.92s-.6,1.4-.6,2.36v4.59h-1.44v-9h1.44v1.64h.04c.21-.56.52-1,.94-1.32.42-.32.89-.48,1.42-.48.24,0,.46.02.65.06.19.04.41.12.66.23l-.54,1.22Z"/>
      <path class="st5" d="M456.72,372.91h-6.5c0,1.11.27,1.93.79,2.44.53.51,1.16.77,1.89.77.55,0,1.04-.13,1.46-.38.42-.25.77-.63,1.04-1.14l1.18.6c-.32.64-.79,1.17-1.43,1.57-.64.4-1.42.6-2.34.6-1.2,0-2.18-.4-2.94-1.19s-1.15-1.95-1.15-3.49c0-1.37.39-2.5,1.16-3.4.77-.9,1.76-1.35,2.97-1.35s2.17.37,2.85,1.11c.67.74,1.01,1.77,1.01,3.1v.76ZM455.25,371.7c0-.78-.21-1.39-.64-1.84-.43-.45-1.02-.67-1.77-.67s-1.32.24-1.78.72c-.46.48-.73,1.08-.82,1.79h5.01Z"/>
      <path class="st5" d="M466.55,376.83c0,1.49-.38,2.63-1.12,3.4s-1.78,1.16-3.1,1.16c-.86,0-1.63-.16-2.34-.47s-1.3-.79-1.78-1.42l1.13-.86c.39.53.82.91,1.31,1.16.49.24,1.05.36,1.69.36.88,0,1.57-.25,2.05-.75s.72-1.27.72-2.3v-1.32h-.04c-.33.52-.73.91-1.2,1.18-.47.27-1.07.4-1.82.4-1.25,0-2.22-.4-2.9-1.2-.69-.8-1.03-1.9-1.03-3.3,0-1.52.39-2.72,1.16-3.6.78-.88,1.8-1.32,3.06-1.32.6,0,1.14.11,1.61.33s.84.53,1.12.91h.04v-1.04h1.44v8.67ZM465.11,373.08v-1.33c0-.71-.25-1.32-.75-1.82s-1.14-.75-1.92-.75c-.87,0-1.57.31-2.08.93s-.77,1.51-.77,2.68c0,1.03.24,1.84.72,2.43.48.6,1.12.89,1.93.89.89,0,1.59-.29,2.1-.86s.77-1.3.77-2.17Z"/>
      <path class="st5" d="M476.57,377.15h-1.44v-1.28h-.04c-.3.46-.69.83-1.18,1.09-.49.27-1.02.4-1.6.4-1.06,0-1.86-.31-2.4-.92s-.81-1.54-.81-2.79v-5.5h1.43v5.34c0,.93.16,1.59.49,2s.86.62,1.59.62,1.35-.27,1.81-.8c.47-.54.7-1.21.7-2.02v-5.14h1.44v9Z"/>
      <path class="st5" d="M479.3,377.15v-13.32h1.44v13.32h-1.44Z"/>
      <path class="st5" d="M489.86,377.15h-1.44v-1.2h-.04c-.3.45-.69.8-1.16,1.04-.47.24-.98.37-1.54.37-.9,0-1.6-.24-2.11-.72s-.76-1.08-.76-1.8c0-.84.26-1.5.79-1.96.53-.47,1.27-.75,2.21-.87l2.59-.3v-.57c0-.65-.17-1.14-.5-1.46-.34-.33-.8-.49-1.38-.49s-1.02.12-1.38.37c-.36.25-.64.6-.83,1.04l-1.26-.52c.29-.68.75-1.21,1.36-1.58.61-.38,1.34-.56,2.19-.56,1.05,0,1.85.28,2.41.84.56.56.84,1.34.84,2.35v6.02ZM488.41,373.5v-.62l-2.5.28c-.56.06-.97.22-1.23.48-.26.26-.4.59-.4,1.02,0,.46.15.83.46,1.11.3.28.7.42,1.2.42.74,0,1.33-.25,1.79-.76.45-.51.68-1.15.68-1.93Z"/>
      <path class="st5" d="M497.07,376.58c-.26.26-.55.46-.87.58s-.69.18-1.12.18c-.71,0-1.26-.2-1.64-.59-.39-.39-.58-.96-.58-1.7v-5.67h-1.55v-1.23h1.55v-2.13l1.44-.25v2.38h2.41v1.23h-2.41v5.55c0,.43.08.74.25.93s.42.29.77.29c.18,0,.34-.04.5-.11s.33-.21.51-.4l.74.94Z"/>
      <path class="st5" d="M502.68,377.36c-1.4,0-2.5-.42-3.29-1.25-.79-.84-1.19-1.95-1.19-3.35s.44-2.61,1.32-3.49c.88-.88,1.98-1.32,3.3-1.32s2.42.43,3.2,1.29c.79.86,1.18,1.99,1.18,3.39s-.41,2.48-1.22,3.39c-.81.9-1.92,1.36-3.31,1.36ZM502.76,376.12c.91,0,1.63-.3,2.17-.91.54-.61.8-1.45.8-2.54s-.27-1.87-.8-2.51c-.54-.64-1.26-.96-2.17-.96s-1.65.32-2.22.97c-.57.65-.86,1.49-.86,2.54,0,1.1.29,1.94.86,2.53.57.59,1.31.88,2.22.88Z"/>
      <path class="st5" d="M513.94,369.51c-.14-.06-.29-.12-.45-.16s-.34-.06-.54-.06c-.64,0-1.17.31-1.57.92s-.6,1.4-.6,2.36v4.59h-1.44v-9h1.44v1.64h.04c.21-.56.52-1,.94-1.32.42-.32.89-.48,1.42-.48.24,0,.46.02.65.06.19.04.41.12.66.23l-.54,1.22Z"/>
      <path class="st5" d="M523.38,368.15l-4.42,11.17c-.28.7-.65,1.22-1.12,1.56s-1,.51-1.63.51c-.31,0-.59-.03-.83-.08s-.5-.15-.75-.28l.56-1.15c.18.09.35.15.51.2.17.04.34.07.52.07.29,0,.55-.07.76-.22.21-.15.42-.45.61-.91l.79-1.87-3.52-8.98h1.6l2.36,6.5c.06.16.1.3.13.4.03.1.07.25.11.43h.05c.04-.18.07-.33.11-.43.04-.11.09-.23.14-.38l2.49-6.51h1.49Z"/>
      <path class="st5" d="M535.45,375.83c-.33.5-.76.88-1.28,1.14-.52.26-1.09.39-1.73.39-1.26,0-2.23-.4-2.92-1.21-.69-.8-1.03-1.9-1.03-3.29,0-1.52.39-2.72,1.17-3.6s1.8-1.32,3.05-1.32c.61,0,1.15.11,1.62.33s.85.53,1.12.91h.04v-5.36h1.44v13.32h-1.44v-1.32h-.04ZM529.97,372.79c0,1.02.24,1.83.71,2.43s1.12.9,1.96.9c.88,0,1.57-.29,2.09-.86s.77-1.3.77-2.17v-1.33c0-.71-.25-1.32-.74-1.82-.5-.5-1.14-.75-1.92-.75-.87,0-1.57.31-2.08.92s-.77,1.51-.77,2.68Z"/>
      <path class="st5" d="M544.28,369.51c-.14-.06-.29-.12-.45-.16s-.34-.06-.54-.06c-.64,0-1.17.31-1.57.92s-.6,1.4-.6,2.36v4.59h-1.44v-9h1.44v1.64h.04c.21-.56.52-1,.94-1.32.42-.32.89-.48,1.42-.48.24,0,.46.02.65.06.19.04.41.12.66.23l-.54,1.22Z"/>
      <path class="st5" d="M546.88,366.12c-.31,0-.56-.1-.76-.31s-.29-.45-.29-.73.1-.53.29-.73c.19-.21.45-.31.76-.31s.56.1.76.31c.19.21.29.45.29.73s-.1.53-.29.73-.45.31-.76.31ZM547.58,377.15h-1.44v-9h1.44v9Z"/>
      <path class="st5" d="M557.48,368.15l-3.59,9h-1.42l-3.41-9h1.58l2.29,6.43c.06.19.12.34.15.45.04.11.09.26.14.45h.04c.06-.19.11-.35.15-.47s.09-.25.15-.4l2.39-6.47h1.52Z"/>
      <path class="st5" d="M566.37,372.91h-6.5c0,1.11.26,1.93.79,2.44.53.51,1.16.77,1.89.77.55,0,1.04-.13,1.46-.38.42-.25.77-.63,1.04-1.14l1.18.6c-.32.64-.79,1.17-1.43,1.57-.64.4-1.42.6-2.34.6-1.2,0-2.17-.4-2.94-1.19-.76-.79-1.15-1.95-1.15-3.49,0-1.37.39-2.5,1.16-3.4s1.76-1.35,2.97-1.35,2.17.37,2.85,1.11c.67.74,1.01,1.77,1.01,3.1v.76ZM564.89,371.7c0-.78-.21-1.39-.64-1.84-.43-.45-1.02-.67-1.77-.67s-1.32.24-1.78.72-.73,1.08-.82,1.79h5.01Z"/>
      <path class="st5" d="M572.97,369.51c-.14-.06-.29-.12-.45-.16s-.34-.06-.54-.06c-.64,0-1.17.31-1.57.92s-.6,1.4-.6,2.36v4.59h-1.44v-9h1.44v1.64h.04c.21-.56.52-1,.94-1.32.42-.32.89-.48,1.42-.48.24,0,.46.02.65.06.19.04.41.12.66.23l-.54,1.22Z"/>
      <path class="st5" d="M574.35,375.39l1.23-.54c.2.45.48.77.83.97s.79.3,1.31.3.9-.12,1.23-.37c.33-.25.49-.6.49-1.06,0-.35-.14-.66-.43-.91-.29-.26-.73-.45-1.34-.58-1.14-.25-1.91-.6-2.32-1.04-.41-.44-.61-.96-.61-1.56,0-.84.29-1.5.88-1.96.59-.46,1.29-.69,2.11-.69.66,0,1.26.14,1.8.41.54.28.94.7,1.2,1.27l-1.18.54c-.18-.33-.41-.58-.7-.74s-.68-.24-1.15-.24-.84.11-1.15.33-.47.53-.47.92c0,.37.13.65.38.85s.75.38,1.5.55c.98.22,1.7.55,2.15,1,.46.45.69,1.03.69,1.75,0,.88-.3,1.56-.91,2.04-.61.48-1.33.72-2.17.72s-1.59-.18-2.14-.54c-.55-.36-.96-.84-1.23-1.44Z"/>
    </g>
    <g>
      <path class="st5" d="M64.81,287.62c0,1.78-.59,3.22-1.76,4.32s-2.71,1.65-4.6,1.65c-2.01,0-3.62-.57-4.84-1.71s-1.82-2.63-1.82-4.48c0-1.73.58-3.13,1.74-4.2s2.7-1.6,4.61-1.6,3.59.55,4.83,1.66,1.85,2.56,1.85,4.35ZM63.45,287.62c0-1.34-.47-2.41-1.42-3.23s-2.17-1.23-3.69-1.23-2.82.4-3.77,1.2-1.42,1.85-1.42,3.16.47,2.45,1.41,3.28c.94.83,2.19,1.25,3.75,1.25s2.77-.41,3.71-1.23c.95-.82,1.42-1.88,1.42-3.2Z"/>
      <path class="st5" d="M56.96,274.89c-.06.14-.12.29-.16.45s-.06.34-.06.54c0,.64.31,1.17.92,1.57s1.4.6,2.36.6h4.59v1.44h-9v-1.44h1.64v-.04c-.56-.21-1-.52-1.32-.94s-.48-.89-.48-1.42c0-.24.02-.46.06-.65s.12-.41.23-.66l1.22.54Z"/>
      <path class="st5" d="M64.28,265.14c1.49,0,2.63.38,3.4,1.12s1.16,1.78,1.16,3.1c0,.86-.16,1.63-.47,2.34s-.79,1.3-1.42,1.78l-.86-1.13c.53-.39.91-.82,1.16-1.31s.36-1.05.36-1.69c0-.88-.25-1.57-.75-2.05s-1.27-.72-2.3-.72h-1.32v.04c.52.33.91.73,1.18,1.2.27.47.4,1.07.4,1.82,0,1.25-.4,2.22-1.2,2.9-.8.69-1.9,1.03-3.3,1.03-1.52,0-2.72-.39-3.6-1.16s-1.32-1.8-1.32-3.06c0-.6.11-1.14.33-1.61s.53-.84.91-1.12v-.04h-1.04v-1.44h8.67ZM60.53,266.58h-1.33c-.71,0-1.32.25-1.82.75s-.75,1.14-.75,1.92c0,.87.31,1.57.93,2.08s1.51.77,2.68.77c1.03,0,1.84-.24,2.43-.72.59-.48.89-1.12.89-1.93,0-.89-.29-1.59-.86-2.1s-1.3-.77-2.17-.77Z"/>
      <path class="st5" d="M64.6,256.03v1.44h-1.2v.04c.45.3.8.69,1.04,1.16.24.47.36.98.36,1.54,0,.9-.24,1.6-.72,2.11s-1.08.76-1.8.76c-.84,0-1.5-.26-1.96-.79s-.75-1.27-.87-2.21l-.3-2.59h-.57c-.65,0-1.14.17-1.46.5-.33.34-.49.8-.49,1.38s.12,1.02.37,1.38.6.64,1.04.83l-.52,1.26c-.68-.29-1.21-.75-1.58-1.36-.38-.61-.56-1.34-.56-2.19,0-1.05.28-1.85.84-2.41.56-.56,1.34-.84,2.35-.84h6.02ZM60.95,257.47h-.62l.28,2.5c.06.56.22.97.48,1.23s.59.4,1.02.4c.46,0,.83-.15,1.11-.46s.42-.7.42-1.2c0-.74-.25-1.33-.76-1.79-.51-.45-1.15-.68-1.93-.68Z"/>
      <path class="st5" d="M64.6,246.02v1.44h-5.34c-.88,0-1.54.17-1.97.51s-.65.85-.65,1.52c0,.76.27,1.38.8,1.85s1.21.71,2.03.71h5.13v1.44h-9v-1.44h1.28v-.04c-.5-.34-.87-.76-1.12-1.25s-.37-1.06-.37-1.71c0-.98.32-1.74.95-2.26s1.55-.78,2.76-.78h5.5Z"/>
      <path class="st5" d="M53.57,242.71c0,.31-.1.56-.31.76s-.45.29-.73.29-.53-.1-.73-.29-.31-.45-.31-.76.1-.56.31-.76.45-.29.73-.29.53.1.73.29.31.45.31.76ZM64.6,242.01v1.44h-9v-1.44h9Z"/>
      <path class="st5" d="M56.48,233.54l6.89,5.1v-5.16h1.23v6.99h-.95l-6.82-5.04v4.65h-1.23v-6.53h.88Z"/>
      <path class="st5" d="M64.6,225.42v1.44h-1.2v.04c.45.3.8.69,1.04,1.16.24.47.36.98.36,1.54,0,.9-.24,1.6-.72,2.11s-1.08.76-1.8.76c-.84,0-1.5-.26-1.96-.79s-.75-1.27-.87-2.21l-.3-2.59h-.57c-.65,0-1.14.17-1.46.5-.33.34-.49.8-.49,1.38s.12,1.02.37,1.38.6.64,1.04.83l-.52,1.26c-.68-.29-1.21-.75-1.58-1.36-.38-.61-.56-1.34-.56-2.19,0-1.05.28-1.85.84-2.41.56-.56,1.34-.84,2.35-.84h6.02ZM60.95,226.86h-.62l.28,2.5c.06.56.22.97.48,1.23s.59.4,1.02.4c.46,0,.83-.15,1.11-.46s.42-.7.42-1.2c0-.74-.25-1.33-.76-1.79-.51-.45-1.15-.68-1.93-.68Z"/>
      <path class="st5" d="M64.03,218.2c.26.26.46.55.58.87s.18.69.18,1.12c0,.71-.2,1.26-.59,1.64s-.96.58-1.7.58h-5.67v1.55h-1.23v-1.55h-2.13l-.25-1.44h2.38v-2.41h1.23v2.41h5.55c.43,0,.74-.08.93-.25s.29-.42.29-.77c0-.18-.04-.34-.11-.5s-.21-.33-.4-.51l.94-.74Z"/>
      <path class="st5" d="M53.57,215.69c0,.31-.1.56-.31.76s-.45.29-.73.29-.53-.1-.73-.29-.31-.45-.31-.76.1-.56.31-.76.45-.29.73-.29.53.1.73.29.31.45.31.76ZM64.6,214.98v1.44h-9v-1.44h9Z"/>
      <path class="st5" d="M64.81,208.41c0,1.4-.42,2.5-1.25,3.29s-1.95,1.19-3.35,1.19-2.61-.44-3.49-1.32-1.32-1.98-1.32-3.3.43-2.42,1.29-3.2c.86-.79,1.99-1.18,3.39-1.18s2.48.41,3.39,1.22c.91.81,1.36,1.92,1.36,3.31ZM63.57,208.33c0-.91-.3-1.63-.91-2.17-.61-.54-1.45-.8-2.54-.8s-1.87.27-2.51.8c-.64.54-.96,1.26-.96,2.17s.32,1.65.97,2.22c.65.57,1.49.86,2.54.86,1.1,0,1.94-.29,2.53-.86.59-.57.88-1.31.88-2.22Z"/>
      <path class="st5" d="M64.6,194.29v1.44h-5.34c-.88,0-1.54.17-1.97.51s-.65.85-.65,1.52c0,.76.27,1.38.8,1.85s1.21.71,2.03.71h5.13v1.44h-9v-1.44h1.28v-.04c-.5-.34-.87-.76-1.12-1.25s-.37-1.06-.37-1.71c0-.98.32-1.74.95-2.26s1.55-.78,2.76-.78h5.5Z"/>
      <path class="st5" d="M64.6,185.37v1.44h-1.2v.04c.45.3.8.69,1.04,1.16s.36.98.36,1.54c0,.9-.24,1.6-.72,2.1-.48.51-1.08.76-1.8.76-.84,0-1.5-.26-1.96-.79s-.75-1.27-.87-2.21l-.3-2.59h-.57c-.65,0-1.14.17-1.46.51s-.49.8-.49,1.38.12,1.02.37,1.38.6.64,1.04.83l-.52,1.26c-.68-.29-1.21-.75-1.58-1.36s-.56-1.34-.56-2.19c0-1.05.28-1.85.84-2.41s1.34-.84,2.35-.84h6.02ZM60.95,186.81h-.62l.28,2.5c.06.56.22.97.48,1.23s.59.4,1.02.4c.46,0,.83-.15,1.11-.46s.42-.7.42-1.2c0-.74-.25-1.33-.76-1.79s-1.15-.68-1.93-.68Z"/>
      <path class="st5" d="M64.6,182.83h-13.32v-1.44h13.32v1.44Z"/>
      <path class="st5" d="M56.96,169.83c-.06.14-.12.29-.16.45s-.06.34-.06.54c0,.64.31,1.17.92,1.57s1.4.6,2.36.6h4.59v1.44h-9v-1.44h1.64v-.04c-.56-.21-1-.52-1.32-.94s-.48-.89-.48-1.42c0-.24.02-.46.06-.65s.12-.41.23-.66l1.22.54Z"/>
      <path class="st5" d="M60.36,160.53v6.5c1.11,0,1.93-.27,2.44-.8s.77-1.16.77-1.89c0-.55-.13-1.04-.38-1.45s-.63-.77-1.14-1.04l.6-1.18c.64.32,1.17.79,1.57,1.43s.6,1.42.6,2.34c0,1.2-.4,2.18-1.19,2.94s-1.95,1.15-3.49,1.15c-1.37,0-2.5-.39-3.4-1.16s-1.35-1.76-1.35-2.97.37-2.17,1.11-2.85,1.77-1.01,3.1-1.01h.76ZM59.15,162c-.78,0-1.39.21-1.84.64s-.67,1.02-.67,1.77.24,1.32.72,1.78,1.08.73,1.79.82v-5.01Z"/>
      <path class="st5" d="M64.6,152.15v1.44h-1.2v.04c.45.3.8.69,1.04,1.16s.36.98.36,1.54c0,.9-.24,1.6-.72,2.1s-1.08.76-1.8.76c-.84,0-1.5-.26-1.96-.79s-.75-1.27-.87-2.21l-.3-2.59h-.57c-.65,0-1.14.17-1.46.51s-.49.8-.49,1.38.12,1.02.37,1.38.6.64,1.04.83l-.52,1.26c-.68-.29-1.21-.75-1.58-1.36s-.56-1.34-.56-2.19c0-1.05.28-1.85.84-2.41s1.34-.84,2.35-.84h6.02ZM60.95,153.59h-.62l.28,2.5c.06.56.22.97.48,1.23s.59.4,1.02.4c.46,0,.83-.15,1.11-.46s.42-.7.42-1.2c0-.74-.25-1.33-.76-1.79s-1.15-.68-1.93-.68Z"/>
      <path class="st5" d="M63.29,143.26c.5.33.88.76,1.14,1.28s.39,1.09.39,1.73c0,1.26-.4,2.23-1.21,2.92s-1.9,1.03-3.29,1.03c-1.52,0-2.72-.39-3.6-1.17s-1.32-1.8-1.32-3.05c0-.61.11-1.15.33-1.62s.53-.85.91-1.12v-.04h-5.36v-1.44h13.32v1.44h-1.32v.04ZM60.24,148.75c1.02,0,1.83-.24,2.43-.71s.9-1.12.9-1.96c0-.88-.29-1.57-.86-2.09s-1.3-.77-2.17-.77h-1.33c-.71,0-1.32.25-1.82.74s-.75,1.14-.75,1.92c0,.87.31,1.57.92,2.08s1.51.77,2.68.77Z"/>
      <path class="st5" d="M53.57,138.28c0,.31-.1.56-.31.76s-.45.29-.73.29-.53-.1-.73-.29-.31-.45-.31-.76.1-.56.31-.76.45-.29.73-.29.53.1.73.29.31.45.31.76ZM64.6,137.58v1.44h-9v-1.44h9Z"/>
      <path class="st5" d="M64.6,127.39v1.44h-5.34c-.88,0-1.54.17-1.97.51s-.65.85-.65,1.52c0,.76.27,1.38.8,1.85s1.21.71,2.03.71h5.13v1.44h-9v-1.44h1.28v-.04c-.5-.34-.87-.76-1.12-1.25s-.37-1.06-.37-1.71c0-.98.32-1.74.95-2.26s1.55-.78,2.76-.78h5.5Z"/>
      <path class="st5" d="M60.36,117.48v6.5c1.11,0,1.93-.27,2.44-.8s.77-1.16.77-1.89c0-.55-.13-1.04-.38-1.45s-.63-.77-1.14-1.04l.6-1.18c.64.32,1.17.79,1.57,1.43s.6,1.42.6,2.34c0,1.2-.4,2.18-1.19,2.94s-1.95,1.15-3.49,1.15c-1.37,0-2.5-.39-3.4-1.16s-1.35-1.76-1.35-2.97.37-2.17,1.11-2.85,1.77-1.01,3.1-1.01h.76ZM59.15,118.95c-.78,0-1.39.21-1.84.64s-.67,1.02-.67,1.77.24,1.32.72,1.78,1.08.73,1.79.82v-5.01Z"/>
      <path class="st5" d="M62.84,116.02l-.54-1.23c.45-.2.77-.48.97-.83s.3-.79.3-1.31-.12-.9-.37-1.23-.6-.49-1.06-.49c-.35,0-.65.14-.91.43s-.45.73-.58,1.34c-.25,1.14-.6,1.91-1.04,2.32s-.96.61-1.56.61c-.84,0-1.5-.29-1.96-.88s-.69-1.29-.69-2.11c0-.66.14-1.26.41-1.8s.7-.94,1.27-1.2l.54,1.18c-.33.18-.58.41-.74.7s-.24.68-.24,1.15.11.84.33,1.15.53.47.92.47c.37,0,.65-.13.85-.38s.38-.75.55-1.5c.22-.98.55-1.7,1-2.15s1.03-.69,1.75-.69c.88,0,1.56.3,2.04.91s.73,1.33.73,2.18-.18,1.59-.54,2.14-.84.96-1.44,1.23Z"/>
      <path class="st5" d="M62.84,107.92l-.54-1.23c.45-.2.77-.48.97-.83s.3-.79.3-1.31-.12-.9-.37-1.23-.6-.49-1.06-.49c-.35,0-.65.14-.91.43s-.45.73-.58,1.34c-.25,1.14-.6,1.91-1.04,2.32s-.96.61-1.56.61c-.84,0-1.5-.29-1.96-.88s-.69-1.29-.69-2.11c0-.66.14-1.26.41-1.8s.7-.94,1.27-1.2l.54,1.18c-.33.18-.58.41-.74.7s-.24.68-.24,1.15.11.84.33,1.15.53.47.92.47c.37,0,.65-.13.85-.38s.38-.75.55-1.5c.22-.98.55-1.7,1-2.15s1.03-.69,1.75-.69c.88,0,1.56.3,2.04.91s.73,1.33.73,2.18-.18,1.59-.54,2.14-.84.96-1.44,1.23Z"/>
    </g>
    <rect class="st7" x="76.98" y="199.53" width="379.21" height="151.68"/>
    <g>
      <path class="st6" d="M242.25,237.45h-2.77v-10.72c0-.45,0-.87.01-1.28s.02-.88.04-1.4h-.06c-.08.23-.15.43-.21.6s-.13.36-.2.56l-4.93,12.25h-1.92l-4.95-12.14c-.07-.17-.14-.35-.21-.53s-.15-.43-.25-.73h-.07c.02.47.04.95.05,1.44s.01,1.02.01,1.6v10.37h-2.61v-16.8h3.96l4.37,10.92c.16.41.3.75.4,1.03s.2.58.3.91h.07c.13-.38.26-.71.38-1.02s.24-.62.36-.95l4.44-10.89h3.79v16.8Z"/>
      <path class="st6" d="M251.28,237.73c-1.9,0-3.41-.56-4.52-1.68s-1.68-2.62-1.68-4.51c0-1.91.6-3.46,1.78-4.62s2.71-1.75,4.59-1.75,3.38.57,4.48,1.72,1.64,2.63,1.64,4.45-.58,3.39-1.73,4.59-2.67,1.8-4.56,1.8ZM251.39,235.52c1.08,0,1.91-.37,2.51-1.11s.89-1.74.89-2.99-.3-2.19-.9-2.92-1.43-1.11-2.5-1.11-1.93.38-2.57,1.14-.96,1.75-.96,2.96.32,2.24.95,2.96,1.49,1.07,2.58,1.07Z"/>
      <path class="st6" d="M270.81,237.45h-2.72v-7.02c0-.99-.2-1.75-.6-2.27s-.99-.78-1.77-.78c-.85,0-1.54.3-2.08.91s-.8,1.38-.8,2.31v6.84h-2.73v-12h2.73v1.63h.05c.42-.61.97-1.08,1.65-1.41s1.41-.5,2.2-.5c1.33,0,2.34.42,3.04,1.27s1.04,2.05,1.04,3.62v7.39Z"/>
      <path class="st6" d="M275.25,223.26c-.52,0-.94-.17-1.26-.5s-.49-.73-.49-1.2.16-.88.49-1.21.74-.49,1.26-.49.95.16,1.27.49.49.73.49,1.21-.16.89-.49,1.21-.75.49-1.27.49ZM276.61,237.45h-2.73v-12h2.73v12Z"/>
      <path class="st6" d="M286.97,236.64c-.36.34-.78.61-1.25.8s-1.01.28-1.61.28c-1.14,0-2-.29-2.58-.86s-.87-1.42-.87-2.53v-6.75h-2.02v-2.13h2.02v-2.94l2.72-.48v3.42h3.06v2.13h-3.06v6.66c0,.48.1.83.29,1.05s.48.34.87.34c.2,0,.4-.04.6-.12s.4-.23.62-.46l1.22,1.58Z"/>
      <path class="st6" d="M294.5,237.73c-1.9,0-3.41-.56-4.52-1.68s-1.68-2.62-1.68-4.51c0-1.91.6-3.46,1.78-4.62s2.71-1.75,4.59-1.75,3.38.57,4.48,1.72,1.64,2.63,1.64,4.45-.58,3.39-1.73,4.59-2.67,1.8-4.56,1.8ZM294.61,235.52c1.08,0,1.91-.37,2.51-1.11s.89-1.74.89-2.99-.3-2.19-.9-2.92-1.43-1.11-2.5-1.11-1.93.38-2.57,1.14-.96,1.75-.96,2.96.32,2.24.95,2.96,1.49,1.07,2.58,1.07Z"/>
      <path class="st6" d="M310.17,227.9c-.22-.09-.44-.15-.67-.21s-.47-.08-.73-.08c-.8,0-1.46.36-1.96,1.08s-.75,1.66-.75,2.81v5.94h-2.73v-12h2.73v2.17h.05c.28-.77.7-1.35,1.24-1.76s1.18-.62,1.9-.62c.3,0,.59.02.84.07s.54.14.83.27l-.75,2.32Z"/>
    </g>
    <g>
      <path class="st5" d="M190.76,266.75l1.35-.64c.26.58.62,1.02,1.09,1.33s1.04.46,1.72.46c.8,0,1.43-.19,1.9-.57.47-.38.7-.91.7-1.6,0-.64-.22-1.16-.66-1.55s-1.1-.71-1.98-.95c-1.27-.35-2.18-.79-2.72-1.35-.54-.55-.81-1.28-.81-2.17,0-1.12.39-1.98,1.16-2.58s1.67-.89,2.69-.89c.86,0,1.61.2,2.26.59.65.39,1.19,1,1.6,1.82l-1.3.57c-.29-.58-.65-.99-1.09-1.24-.43-.25-.93-.37-1.5-.37-.74,0-1.32.17-1.74.51-.42.34-.63.81-.63,1.41s.18,1.06.55,1.39,1.01.61,1.93.85c1.34.35,2.29.83,2.86,1.43.56.6.84,1.4.84,2.4s-.35,1.88-1.04,2.58-1.68,1.06-2.97,1.06c-1.05,0-1.94-.22-2.66-.65s-1.24-1.06-1.56-1.86Z"/>
      <path class="st5" d="M205.31,268.48c-.26.26-.55.46-.87.58s-.69.18-1.12.18c-.71,0-1.26-.2-1.64-.59-.39-.39-.58-.96-.58-1.7v-5.67h-1.55v-1.23h1.55v-2.13l1.44-.25v2.38h2.41v1.23h-2.41v5.55c0,.43.08.74.25.93s.42.29.77.29c.18,0,.34-.04.51-.11s.33-.21.51-.4l.74.94Z"/>
      <path class="st5" d="M213.43,269.05h-1.44v-1.2h-.04c-.3.45-.69.8-1.16,1.04-.47.24-.98.37-1.54.37-.9,0-1.6-.24-2.1-.72s-.76-1.08-.76-1.8c0-.84.26-1.5.79-1.96.53-.47,1.27-.75,2.21-.87l2.59-.3v-.57c0-.65-.17-1.14-.51-1.46-.34-.33-.8-.49-1.38-.49s-1.02.12-1.38.37c-.36.25-.64.6-.83,1.04l-1.26-.52c.29-.68.75-1.21,1.36-1.58s1.34-.56,2.19-.56c1.05,0,1.85.28,2.41.84s.84,1.34.84,2.35v6.02ZM211.99,265.39v-.62l-2.5.28c-.56.06-.97.22-1.23.48-.26.26-.4.59-.4,1.02,0,.46.15.83.46,1.11.3.28.7.42,1.2.42.74,0,1.33-.25,1.79-.76s.68-1.15.68-1.93Z"/>
      <path class="st5" d="M217.45,267.96h-.04v1.09h-1.44v-13.32h1.44v5.7h.04c.33-.49.76-.88,1.28-1.16s1.11-.42,1.78-.42c1.22,0,2.17.4,2.86,1.21s1.03,1.91,1.03,3.32c0,1.48-.36,2.67-1.08,3.56s-1.73,1.34-3.02,1.34c-.63,0-1.18-.11-1.67-.34-.48-.23-.87-.55-1.17-.96ZM217.41,264.12v1.26c0,.73.25,1.36.75,1.87.5.51,1.15.77,1.96.77.9,0,1.59-.32,2.07-.96s.73-1.51.73-2.63-.23-1.9-.69-2.47c-.46-.58-1.09-.87-1.88-.87-.88,0-1.6.29-2.13.87-.54.58-.8,1.3-.8,2.17Z"/>
      <path class="st5" d="M226.52,269.05v-13.32h1.44v13.32h-1.44Z"/>
      <path class="st5" d="M238.08,264.81h-6.5c0,1.11.27,1.93.8,2.44.53.51,1.16.77,1.89.77.55,0,1.04-.13,1.45-.38.42-.25.77-.63,1.04-1.14l1.18.6c-.32.64-.79,1.17-1.43,1.57-.64.4-1.42.6-2.34.6-1.2,0-2.18-.4-2.94-1.19s-1.15-1.95-1.15-3.49c0-1.37.39-2.5,1.16-3.4s1.76-1.35,2.97-1.35,2.17.37,2.85,1.11c.67.74,1.01,1.77,1.01,3.1v.76ZM236.6,263.6c0-.78-.21-1.39-.64-1.84-.43-.45-1.02-.67-1.77-.67s-1.32.24-1.78.72-.73,1.08-.82,1.79h5.01Z"/>
      <path class="st5" d="M251.67,264.81h-6.5c0,1.11.27,1.93.8,2.44.53.51,1.16.77,1.89.77.55,0,1.04-.13,1.45-.38.42-.25.77-.63,1.04-1.14l1.18.6c-.32.64-.79,1.17-1.43,1.57-.64.4-1.42.6-2.34.6-1.2,0-2.18-.4-2.94-1.19s-1.15-1.95-1.15-3.49c0-1.37.39-2.5,1.16-3.4s1.76-1.35,2.97-1.35,2.17.37,2.85,1.11c.67.74,1.01,1.77,1.01,3.1v.76ZM250.2,263.6c0-.78-.21-1.39-.64-1.84-.43-.45-1.02-.67-1.77-.67s-1.32.24-1.78.72-.73,1.08-.82,1.79h5.01Z"/>
      <path class="st5" d="M261.15,269.05h-1.44v-5.34c0-.88-.17-1.54-.51-1.97-.34-.43-.85-.65-1.52-.65-.76,0-1.38.27-1.85.8-.47.54-.71,1.21-.71,2.03v5.13h-1.44v-9h1.44v1.28h.04c.34-.5.76-.87,1.25-1.12.49-.25,1.06-.37,1.71-.37.98,0,1.74.32,2.26.95.52.64.78,1.55.78,2.76v5.5Z"/>
      <path class="st5" d="M270.87,260.05l-3.59,9h-1.42l-3.41-9h1.58l2.29,6.43c.06.19.12.34.15.45.04.11.09.26.15.45h.04c.06-.19.11-.35.15-.47s.09-.25.15-.4l2.39-6.47h1.52Z"/>
      <path class="st5" d="M273.14,258.02c-.31,0-.56-.1-.76-.31s-.29-.45-.29-.73.1-.53.29-.73c.19-.21.45-.31.76-.31s.56.1.76.31c.19.21.29.45.29.73s-.1.53-.29.73-.45.31-.76.31ZM273.85,269.05h-1.44v-9h1.44v9Z"/>
      <path class="st5" d="M281.17,261.4c-.14-.06-.29-.12-.45-.16s-.34-.06-.54-.06c-.64,0-1.17.31-1.57.92s-.6,1.4-.6,2.36v4.59h-1.44v-9h1.44v1.64h.04c.21-.56.52-1,.94-1.32.42-.32.89-.48,1.42-.48.24,0,.46.02.65.06.19.04.41.12.66.23l-.54,1.22Z"/>
      <path class="st5" d="M286.95,269.26c-1.4,0-2.5-.42-3.29-1.25-.79-.84-1.19-1.95-1.19-3.35s.44-2.61,1.32-3.49c.88-.88,1.98-1.32,3.3-1.32s2.42.43,3.2,1.29c.79.86,1.18,1.99,1.18,3.39s-.41,2.48-1.22,3.39c-.81.9-1.91,1.36-3.31,1.36ZM287.03,268.01c.91,0,1.63-.3,2.17-.91.54-.61.8-1.45.8-2.54s-.27-1.87-.8-2.51c-.54-.64-1.26-.96-2.17-.96s-1.65.32-2.22.97-.86,1.49-.86,2.54c0,1.1.29,1.94.86,2.53.57.59,1.31.88,2.22.88Z"/>
      <path class="st5" d="M301.08,269.05h-1.44v-5.34c0-.88-.17-1.54-.51-1.97-.34-.43-.85-.65-1.52-.65-.76,0-1.38.27-1.85.8-.47.54-.71,1.21-.71,2.03v5.13h-1.44v-9h1.44v1.28h.04c.34-.5.76-.87,1.25-1.12.49-.25,1.06-.37,1.71-.37.98,0,1.74.32,2.26.95.52.64.78,1.55.78,2.76v5.5Z"/>
      <path class="st5" d="M316.39,269.05h-1.44v-5.17c0-.98-.15-1.7-.46-2.14s-.82-.66-1.55-.66c-.62,0-1.14.28-1.57.83s-.65,1.22-.65,2v5.13h-1.44v-5.34c0-.87-.17-1.53-.51-1.96-.34-.44-.85-.65-1.54-.65-.63,0-1.15.26-1.56.79s-.62,1.21-.62,2.04v5.13h-1.44v-9h1.44v1.28h.04c.32-.5.72-.87,1.18-1.12.47-.25,1-.37,1.61-.37s1.13.16,1.58.47.75.73.92,1.25c.34-.57.76-1,1.27-1.29s1.1-.43,1.77-.43c.99,0,1.73.3,2.23.91s.74,1.53.74,2.75v5.55Z"/>
      <path class="st5" d="M326.32,264.81h-6.5c0,1.11.27,1.93.8,2.44.53.51,1.16.77,1.89.77.55,0,1.04-.13,1.45-.38.42-.25.77-.63,1.04-1.14l1.18.6c-.32.64-.79,1.17-1.43,1.57-.64.4-1.42.6-2.34.6-1.2,0-2.18-.4-2.94-1.19s-1.15-1.95-1.15-3.49c0-1.37.39-2.5,1.16-3.4s1.76-1.35,2.97-1.35,2.17.37,2.85,1.11c.67.74,1.01,1.77,1.01,3.1v.76ZM324.84,263.6c0-.78-.21-1.39-.64-1.84-.43-.45-1.02-.67-1.77-.67s-1.32.24-1.78.72-.73,1.08-.82,1.79h5.01Z"/>
      <path class="st5" d="M335.79,269.05h-1.44v-5.34c0-.88-.17-1.54-.51-1.97-.34-.43-.85-.65-1.52-.65-.76,0-1.38.27-1.85.8-.47.54-.71,1.21-.71,2.03v5.13h-1.44v-9h1.44v1.28h.04c.34-.5.76-.87,1.25-1.12.49-.25,1.06-.37,1.71-.37.98,0,1.74.32,2.26.95.52.64.78,1.55.78,2.76v5.5Z"/>
      <path class="st5" d="M343.01,268.48c-.26.26-.55.46-.87.58s-.69.18-1.12.18c-.71,0-1.26-.2-1.64-.59-.39-.39-.58-.96-.58-1.7v-5.67h-1.55v-1.23h1.55v-2.13l1.44-.25v2.38h2.41v1.23h-2.41v5.55c0,.43.08.74.25.93s.42.29.77.29c.18,0,.34-.04.51-.11s.33-.21.51-.4l.74.94Z"/>
    </g>
    <g>
      <path class="st5" d="M175.57,294.33h-6.54v-12.6h1.48v11.27h5.06v1.34Z"/>
      <path class="st5" d="M177.9,283.3c-.31,0-.56-.1-.76-.31s-.29-.45-.29-.73.1-.53.29-.73c.19-.21.45-.31.76-.31s.56.1.76.31c.19.21.29.45.29.73s-.1.53-.29.73-.45.31-.76.31ZM178.6,294.33h-1.44v-9h1.44v9Z"/>
      <path class="st5" d="M194.1,294.33h-1.44v-5.17c0-.98-.15-1.7-.46-2.14s-.82-.66-1.55-.66c-.62,0-1.14.28-1.57.83s-.65,1.22-.65,2v5.13h-1.44v-5.34c0-.87-.17-1.53-.51-1.96-.34-.44-.85-.65-1.54-.65-.63,0-1.15.26-1.56.79s-.62,1.21-.62,2.04v5.13h-1.44v-9h1.44v1.28h.04c.32-.5.72-.87,1.18-1.12.47-.25,1-.37,1.61-.37s1.13.16,1.58.47.75.73.92,1.25c.34-.57.76-1,1.27-1.29s1.1-.43,1.77-.43c.99,0,1.73.3,2.23.91s.74,1.53.74,2.75v5.55Z"/>
      <path class="st5" d="M197.41,283.3c-.31,0-.56-.1-.76-.31s-.29-.45-.29-.73.1-.53.29-.73c.19-.21.45-.31.76-.31s.56.1.76.31c.19.21.29.45.29.73s-.1.53-.29.73-.45.31-.76.31ZM198.12,294.33h-1.44v-9h1.44v9Z"/>
      <path class="st5" d="M205.51,293.76c-.26.26-.55.46-.87.58s-.69.18-1.12.18c-.71,0-1.26-.2-1.64-.59-.39-.39-.58-.96-.58-1.7v-5.67h-1.55v-1.23h1.55v-2.13l1.44-.25v2.38h2.41v1.23h-2.41v5.55c0,.43.08.74.25.93s.42.29.77.29c.18,0,.34-.04.51-.11s.33-.21.51-.4l.74.94Z"/>
      <path class="st5" d="M214.63,290.09h-6.5c0,1.11.27,1.93.8,2.44.53.51,1.16.77,1.89.77.55,0,1.04-.13,1.45-.38.42-.25.77-.63,1.04-1.14l1.18.6c-.32.64-.79,1.17-1.43,1.57-.64.4-1.42.6-2.34.6-1.2,0-2.18-.4-2.94-1.19s-1.15-1.95-1.15-3.49c0-1.37.39-2.5,1.16-3.4s1.76-1.35,2.97-1.35,2.17.37,2.85,1.11c.67.74,1.01,1.77,1.01,3.1v.76ZM213.15,288.88c0-.78-.21-1.39-.64-1.84-.43-.45-1.02-.67-1.77-.67s-1.32.24-1.78.72-.73,1.08-.82,1.79h5.01Z"/>
      <path class="st5" d="M222.98,293.01c-.33.5-.76.88-1.28,1.14-.52.26-1.09.39-1.73.39-1.26,0-2.23-.4-2.92-1.21-.69-.8-1.03-1.9-1.03-3.29,0-1.52.39-2.72,1.17-3.6s1.8-1.32,3.05-1.32c.61,0,1.15.11,1.62.33s.85.53,1.12.91h.04v-5.36h1.44v13.32h-1.44v-1.32h-.04ZM217.5,289.97c0,1.02.24,1.83.71,2.43s1.12.9,1.96.9c.88,0,1.57-.29,2.09-.86s.77-1.3.77-2.17v-1.33c0-.71-.25-1.32-.74-1.82s-1.14-.75-1.92-.75c-.87,0-1.57.31-2.08.92s-.77,1.51-.77,2.68Z"/>
      <path class="st5" d="M238.79,290.09h-6.5c0,1.11.27,1.93.8,2.44.53.51,1.16.77,1.89.77.55,0,1.04-.13,1.45-.38.42-.25.77-.63,1.04-1.14l1.18.6c-.32.64-.79,1.17-1.43,1.57-.64.4-1.42.6-2.34.6-1.2,0-2.18-.4-2.94-1.19s-1.15-1.95-1.15-3.49c0-1.37.39-2.5,1.16-3.4s1.76-1.35,2.97-1.35,2.17.37,2.85,1.11c.67.74,1.01,1.77,1.01,3.1v.76ZM237.31,288.88c0-.78-.21-1.39-.64-1.84-.43-.45-1.02-.67-1.77-.67s-1.32.24-1.78.72-.73,1.08-.82,1.79h5.01Z"/>
      <path class="st5" d="M247.37,285.33l-3.02,4.55,2.97,4.45h-1.64l-1.79-2.76c-.06-.09-.12-.2-.18-.31s-.13-.24-.21-.38h-.04s-.06.09-.12.21-.17.28-.31.47l-1.85,2.76h-1.61l3.07-4.41-2.94-4.59h1.64l1.78,2.91c.07.12.13.23.19.35s.12.23.18.35h.04c.07-.12.14-.23.21-.35s.14-.23.22-.35l1.86-2.91h1.56Z"/>
      <path class="st5" d="M253.56,293.76c-.26.26-.55.46-.87.58s-.69.18-1.12.18c-.71,0-1.26-.2-1.64-.59-.39-.39-.58-.96-.58-1.7v-5.67h-1.55v-1.23h1.55v-2.13l1.44-.25v2.38h2.41v1.23h-2.41v5.55c0,.43.08.74.25.93s.42.29.77.29c.18,0,.34-.04.51-.11s.33-.21.51-.4l.74.94Z"/>
      <path class="st5" d="M262.68,290.09h-6.5c0,1.11.27,1.93.8,2.44.53.51,1.16.77,1.89.77.55,0,1.04-.13,1.45-.38.42-.25.77-.63,1.04-1.14l1.18.6c-.32.64-.79,1.17-1.43,1.57-.64.4-1.42.6-2.34.6-1.2,0-2.18-.4-2.94-1.19s-1.15-1.95-1.15-3.49c0-1.37.39-2.5,1.16-3.4s1.76-1.35,2.97-1.35,2.17.37,2.85,1.11c.67.74,1.01,1.77,1.01,3.1v.76ZM261.2,288.88c0-.78-.21-1.39-.64-1.84-.43-.45-1.02-.67-1.77-.67s-1.32.24-1.78.72-.73,1.08-.82,1.79h5.01Z"/>
      <path class="st5" d="M269.29,286.68c-.14-.06-.29-.12-.45-.16s-.34-.06-.54-.06c-.64,0-1.17.31-1.57.92s-.6,1.4-.6,2.36v4.59h-1.44v-9h1.44v1.64h.04c.21-.56.52-1,.94-1.32.42-.32.89-.48,1.42-.48.24,0,.46.02.65.06.19.04.41.12.66.23l-.54,1.22Z"/>
      <path class="st5" d="M278.64,294.33h-1.44v-5.34c0-.88-.17-1.54-.51-1.97-.34-.43-.85-.65-1.52-.65-.76,0-1.38.27-1.85.8-.47.54-.71,1.21-.71,2.03v5.13h-1.44v-9h1.44v1.28h.04c.34-.5.76-.87,1.25-1.12.49-.25,1.06-.37,1.71-.37.98,0,1.74.32,2.26.95.52.64.78,1.55.78,2.76v5.5Z"/>
      <path class="st5" d="M287.55,294.33h-1.44v-1.2h-.04c-.3.45-.69.8-1.16,1.04-.47.24-.98.37-1.54.37-.9,0-1.6-.24-2.1-.72s-.76-1.08-.76-1.8c0-.84.26-1.5.79-1.96.53-.47,1.27-.75,2.21-.87l2.59-.3v-.57c0-.65-.17-1.14-.51-1.46-.34-.33-.8-.49-1.38-.49s-1.02.12-1.38.37c-.36.25-.64.6-.83,1.04l-1.26-.52c.29-.68.75-1.21,1.36-1.58s1.34-.56,2.19-.56c1.05,0,1.85.28,2.41.84s.84,1.34.84,2.35v6.02ZM286.11,290.67v-.62l-2.5.28c-.56.06-.97.22-1.23.48-.26.26-.4.59-.4,1.02,0,.46.15.83.46,1.11.3.28.7.42,1.2.42.74,0,1.33-.25,1.79-.76s.68-1.15.68-1.93Z"/>
      <path class="st5" d="M290.09,294.33v-13.32h1.44v13.32h-1.44Z"/>
      <path class="st5" d="M299.97,293.24h-.04v5.23h-1.44v-13.14h1.44v1.37h.04c.38-.53.82-.92,1.34-1.19s1.1-.4,1.75-.4c1.22,0,2.17.4,2.84,1.21s1.01,1.91,1.01,3.32-.37,2.63-1.1,3.54c-.73.9-1.73,1.36-3.01,1.36-.6,0-1.14-.11-1.6-.33-.47-.22-.88-.54-1.23-.97ZM299.94,289.4v1.26c0,.73.25,1.36.76,1.87.51.51,1.16.77,1.94.77.87,0,1.56-.33,2.05-.99s.74-1.53.74-2.59-.23-1.93-.69-2.5-1.09-.84-1.88-.84c-.88,0-1.59.29-2.12.87-.54.58-.8,1.3-.8,2.17Z"/>
      <path class="st5" d="M313.65,286.68c-.14-.06-.29-.12-.45-.16s-.34-.06-.54-.06c-.64,0-1.17.31-1.57.92s-.6,1.4-.6,2.36v4.59h-1.44v-9h1.44v1.64h.04c.21-.56.52-1,.94-1.32.42-.32.89-.48,1.42-.48.24,0,.46.02.65.06.19.04.41.12.66.23l-.54,1.22Z"/>
      <path class="st5" d="M322.95,290.09h-6.5c0,1.11.27,1.93.8,2.44.53.51,1.16.77,1.89.77.55,0,1.04-.13,1.45-.38.42-.25.77-.63,1.04-1.14l1.18.6c-.32.64-.79,1.17-1.43,1.57-.64.4-1.42.6-2.34.6-1.2,0-2.18-.4-2.94-1.19s-1.15-1.95-1.15-3.49c0-1.37.39-2.5,1.16-3.4s1.76-1.35,2.97-1.35,2.17.37,2.85,1.11c.67.74,1.01,1.77,1.01,3.1v.76ZM321.47,288.88c0-.78-.21-1.39-.64-1.84-.43-.45-1.02-.67-1.77-.67s-1.32.24-1.78.72-.73,1.08-.82,1.79h5.01Z"/>
      <path class="st5" d="M324.41,292.56l1.23-.54c.2.45.48.77.83.97s.79.3,1.31.3.9-.12,1.23-.37.49-.6.49-1.06c0-.35-.14-.66-.43-.91-.28-.26-.73-.45-1.34-.58-1.14-.25-1.91-.6-2.32-1.04s-.61-.96-.61-1.56c0-.84.29-1.5.88-1.96s1.29-.69,2.11-.69c.66,0,1.26.14,1.8.41s.94.7,1.2,1.27l-1.18.54c-.18-.33-.41-.58-.7-.74s-.68-.24-1.15-.24-.84.11-1.15.33-.47.53-.47.92c0,.37.13.65.38.85s.75.38,1.5.55c.98.22,1.7.55,2.15,1,.46.45.69,1.03.69,1.75,0,.88-.3,1.56-.91,2.04-.61.48-1.33.72-2.18.72s-1.59-.18-2.14-.54c-.55-.36-.96-.84-1.23-1.44Z"/>
      <path class="st5" d="M332.51,292.56l1.23-.54c.2.45.48.77.83.97s.79.3,1.31.3.9-.12,1.23-.37.49-.6.49-1.06c0-.35-.14-.66-.43-.91-.28-.26-.73-.45-1.34-.58-1.14-.25-1.91-.6-2.32-1.04s-.61-.96-.61-1.56c0-.84.29-1.5.88-1.96s1.29-.69,2.11-.69c.66,0,1.26.14,1.8.41s.94.7,1.2,1.27l-1.18.54c-.18-.33-.41-.58-.7-.74s-.68-.24-1.15-.24-.84.11-1.15.33-.47.53-.47.92c0,.37.13.65.38.85s.75.38,1.5.55c.98.22,1.7.55,2.15,1,.46.45.69,1.03.69,1.75,0,.88-.3,1.56-.91,2.04-.61.48-1.33.72-2.18.72s-1.59-.18-2.14-.54c-.55-.36-.96-.84-1.23-1.44Z"/>
      <path class="st5" d="M348.44,294.33h-1.44v-1.28h-.04c-.3.46-.69.83-1.18,1.09-.49.27-1.02.4-1.6.4-1.06,0-1.86-.31-2.4-.92s-.81-1.54-.81-2.79v-5.5h1.43v5.34c0,.93.16,1.59.49,2s.86.62,1.59.62,1.35-.27,1.81-.8c.47-.54.7-1.21.7-2.02v-5.14h1.44v9Z"/>
      <path class="st5" d="M355.77,286.68c-.14-.06-.29-.12-.45-.16s-.34-.06-.54-.06c-.64,0-1.17.31-1.57.92s-.6,1.4-.6,2.36v4.59h-1.44v-9h1.44v1.64h.04c.21-.56.52-1,.94-1.32.42-.32.89-.48,1.42-.48.24,0,.46.02.65.06.19.04.41.12.66.23l-.54,1.22Z"/>
      <path class="st5" d="M365.07,290.09h-6.5c0,1.11.27,1.93.8,2.44.53.51,1.16.77,1.89.77.55,0,1.04-.13,1.45-.38.42-.25.77-.63,1.04-1.14l1.18.6c-.32.64-.79,1.17-1.43,1.57-.64.4-1.42.6-2.34.6-1.2,0-2.18-.4-2.94-1.19s-1.15-1.95-1.15-3.49c0-1.37.39-2.5,1.16-3.4s1.76-1.35,2.97-1.35,2.17.37,2.85,1.11c.67.74,1.01,1.77,1.01,3.1v.76ZM363.6,288.88c0-.78-.21-1.39-.64-1.84-.43-.45-1.02-.67-1.77-.67s-1.32.24-1.78.72-.73,1.08-.82,1.79h5.01Z"/>
    </g>
    <rect class="st4" x="456.19" y="199.53" width="379.21" height="151.68"/>
    <g>
      <path class="st6" d="M591.69,237.45h-2.79v-16.8h2.79v16.8Z"/>
      <path class="st6" d="M606,237.45h-2.72v-7.02c0-.99-.2-1.75-.6-2.27s-.99-.78-1.77-.78c-.85,0-1.54.3-2.08.91s-.8,1.38-.8,2.31v6.84h-2.73v-12h2.73v1.63h.05c.42-.61.97-1.08,1.65-1.41s1.41-.5,2.2-.5c1.33,0,2.34.42,3.04,1.27s1.04,2.05,1.04,3.62v7.39Z"/>
      <path class="st6" d="M619.6,225.45l-4.63,12h-2.94l-4.42-12h2.91l2.62,7.84c.09.29.17.54.23.74s.13.46.21.76h.05c.08-.3.15-.55.21-.76s.14-.44.22-.69l2.73-7.9h2.81Z"/>
      <path class="st6" d="M631.7,232.12h-8.29c.02,1.16.34,2.03.94,2.61s1.35.87,2.23.87c.62,0,1.18-.15,1.66-.44s.89-.73,1.23-1.31l2.1,1.14c-.55.88-1.24,1.55-2.09,2.03s-1.85.71-2.99.71c-1.77,0-3.18-.53-4.24-1.59s-1.59-2.59-1.59-4.58.54-3.44,1.63-4.62,2.46-1.77,4.1-1.77,2.99.5,3.92,1.51,1.39,2.47,1.39,4.38v1.05ZM629.06,230.17c0-.94-.23-1.66-.7-2.18s-1.11-.77-1.92-.77-1.54.28-2.07.85-.85,1.27-.96,2.1h5.66Z"/>
      <path class="st6" d="M633.44,235.47l1.69-1.42c.42.59.88,1,1.37,1.24s1.05.36,1.66.36,1.09-.13,1.45-.4.55-.65.55-1.15c0-.38-.17-.7-.5-.97s-.86-.48-1.58-.61c-1.55-.29-2.62-.74-3.23-1.35s-.91-1.37-.91-2.27c0-1.12.4-2.03,1.21-2.71s1.83-1.03,3.07-1.03c.87,0,1.67.15,2.4.46s1.31.77,1.74,1.41l-1.66,1.37c-.34-.4-.7-.69-1.1-.88s-.87-.29-1.41-.29-1.01.12-1.33.36-.49.58-.49,1.02c0,.39.15.7.46.93s.9.42,1.78.59c1.34.23,2.35.66,3.01,1.27s1,1.44,1,2.48c0,1.2-.43,2.15-1.29,2.83s-1.93,1.03-3.19,1.03c-1.08,0-2.02-.2-2.81-.6s-1.43-.95-1.89-1.66Z"/>
      <path class="st6" d="M652.23,236.64c-.36.34-.78.61-1.25.8s-1.01.28-1.61.28c-1.14,0-2-.29-2.58-.86s-.87-1.42-.87-2.53v-6.75h-2.02v-2.13h2.02v-2.94l2.72-.48v3.42h3.06v2.13h-3.06v6.66c0,.48.1.83.29,1.05s.48.34.87.34c.2,0,.4-.04.6-.12s.4-.23.62-.46l1.22,1.58Z"/>
      <path class="st6" d="M655.71,223.26c-.52,0-.94-.17-1.26-.5s-.49-.73-.49-1.2.16-.88.49-1.21.74-.49,1.26-.49.95.16,1.27.49.49.73.49,1.21-.16.89-.49,1.21-.75.49-1.27.49ZM657.07,237.45h-2.73v-12h2.73v12Z"/>
      <path class="st6" d="M671.5,236.76c0,2.02-.55,3.59-1.65,4.69s-2.62,1.65-4.56,1.65c-1.24,0-2.32-.22-3.25-.66s-1.7-1.07-2.32-1.89l1.98-1.48c.45.63.97,1.11,1.54,1.42s1.27.47,2.08.47c1.09,0,1.93-.31,2.54-.94s.91-1.55.91-2.79v-1.38h-.05c-.44.62-.97,1.09-1.6,1.41s-1.41.48-2.34.48c-1.56,0-2.82-.53-3.76-1.58s-1.42-2.52-1.42-4.4c0-2.06.54-3.68,1.62-4.84s2.44-1.75,4.07-1.75c.71,0,1.37.13,1.97.4s1.09.65,1.45,1.15h.05v-1.27h2.73v11.31ZM668.79,231.87v-1.39c0-.86-.29-1.59-.87-2.19s-1.32-.9-2.24-.9c-1.02,0-1.82.37-2.41,1.1s-.89,1.78-.89,3.14c0,1.21.28,2.16.83,2.85s1.31,1.04,2.29,1.04,1.77-.34,2.38-1.01.91-1.55.91-2.64Z"/>
      <path class="st6" d="M683.96,237.45h-2.64v-1.49h-.05c-.42.58-.94,1.02-1.55,1.32s-1.29.45-2.04.45c-1.11,0-2.02-.32-2.72-.95s-1.06-1.46-1.06-2.48c0-1.1.35-1.99,1.06-2.65s1.72-1.08,3.04-1.22l3.33-.38v-.57c0-.74-.21-1.3-.62-1.67s-.96-.56-1.63-.56-1.22.15-1.68.45-.83.72-1.12,1.28l-2.04-1.04c.41-.8,1.05-1.46,1.92-1.98s1.91-.77,3.12-.77c1.52,0,2.67.4,3.47,1.19s1.2,1.94,1.2,3.45v7.64ZM681.33,232.58v-.66l-2.89.32c-.66.07-1.15.25-1.45.55s-.46.7-.46,1.2.17.92.52,1.24.8.47,1.35.47c.88,0,1.58-.29,2.12-.88s.81-1.33.81-2.23Z"/>
      <path class="st6" d="M694.09,236.64c-.36.34-.78.61-1.25.8s-1.01.28-1.61.28c-1.14,0-2-.29-2.58-.86s-.87-1.42-.87-2.53v-6.75h-2.02v-2.13h2.02v-2.94l2.72-.48v3.42h3.06v2.13h-3.06v6.66c0,.48.1.83.29,1.05s.48.34.87.34c.2,0,.4-.04.6-.12s.4-.23.62-.46l1.22,1.58Z"/>
      <path class="st6" d="M706.47,232.12h-8.29c.02,1.16.34,2.03.94,2.61s1.35.87,2.23.87c.62,0,1.18-.15,1.66-.44s.89-.73,1.23-1.31l2.1,1.14c-.55.88-1.24,1.55-2.09,2.03s-1.85.71-2.99.71c-1.77,0-3.18-.53-4.24-1.59s-1.59-2.59-1.59-4.58.54-3.44,1.63-4.62,2.46-1.77,4.1-1.77,2.99.5,3.92,1.51,1.39,2.47,1.39,4.38v1.05ZM703.83,230.17c0-.94-.23-1.66-.7-2.18s-1.11-.77-1.92-.77-1.54.28-2.07.85-.85,1.27-.96,2.1h5.66Z"/>
    </g>
    <g>
      <path class="st5" d="M583.22,274.33v-12.6h3.48c2.19,0,3.84.5,4.97,1.51,1.13,1.01,1.69,2.55,1.69,4.63s-.61,3.61-1.84,4.75-2.88,1.71-4.97,1.71h-3.34ZM584.69,263.06v9.93h1.88c1.65,0,2.94-.42,3.86-1.27s1.38-2.12,1.38-3.82-.42-2.92-1.27-3.69-2.14-1.15-3.88-1.15h-1.97Z"/>
      <path class="st5" d="M600.07,266.68c-.14-.06-.29-.12-.45-.16s-.34-.06-.54-.06c-.64,0-1.17.31-1.57.92s-.6,1.4-.6,2.36v4.59h-1.44v-9h1.44v1.64h.04c.21-.56.52-1,.94-1.32.42-.32.89-.48,1.42-.48.24,0,.46.02.65.06.19.04.41.12.66.23l-.54,1.22Z"/>
      <path class="st5" d="M602.67,263.3c-.31,0-.56-.1-.76-.31s-.29-.45-.29-.73.1-.53.29-.73c.19-.21.45-.31.76-.31s.56.1.76.31c.19.21.29.45.29.73s-.1.53-.29.73-.45.31-.76.31ZM603.38,274.33h-1.44v-9h1.44v9Z"/>
      <path class="st5" d="M613.27,265.33l-3.59,9h-1.42l-3.41-9h1.58l2.29,6.43c.06.19.12.34.15.45.04.11.09.26.14.45h.04c.06-.19.11-.35.15-.47s.09-.25.15-.4l2.39-6.47h1.52Z"/>
      <path class="st5" d="M622.16,270.09h-6.5c0,1.11.26,1.93.79,2.44.53.51,1.16.77,1.89.77.55,0,1.04-.13,1.46-.38.42-.25.77-.63,1.04-1.14l1.18.6c-.32.64-.79,1.17-1.43,1.57-.64.4-1.42.6-2.34.6-1.2,0-2.17-.4-2.94-1.19-.76-.79-1.15-1.95-1.15-3.49,0-1.37.39-2.5,1.16-3.4s1.76-1.35,2.97-1.35,2.17.37,2.85,1.11c.67.74,1.01,1.77,1.01,3.1v.76ZM620.68,268.88c0-.78-.21-1.39-.64-1.84-.43-.45-1.02-.67-1.77-.67s-1.32.24-1.78.72-.73,1.08-.82,1.79h5.01Z"/>
      <path class="st5" d="M628.77,266.68c-.14-.06-.29-.12-.45-.16s-.34-.06-.54-.06c-.64,0-1.17.31-1.57.92s-.6,1.4-.6,2.36v4.59h-1.44v-9h1.44v1.64h.04c.21-.56.52-1,.94-1.32.42-.32.89-.48,1.42-.48.24,0,.46.02.65.06.19.04.41.12.66.23l-.54,1.22Z"/>
      <path class="st5" d="M630.15,272.56l1.23-.54c.2.45.48.77.83.97s.79.3,1.31.3.9-.12,1.23-.37c.33-.25.49-.6.49-1.06,0-.35-.14-.66-.43-.91-.29-.26-.73-.45-1.34-.58-1.14-.25-1.91-.6-2.32-1.04-.41-.44-.61-.96-.61-1.56,0-.84.29-1.5.88-1.96.59-.46,1.29-.69,2.11-.69.66,0,1.26.14,1.8.41.54.28.94.7,1.2,1.27l-1.18.54c-.18-.33-.41-.58-.7-.74s-.68-.24-1.15-.24-.84.11-1.15.33-.47.53-.47.92c0,.37.13.65.38.85s.75.38,1.5.55c.98.22,1.7.55,2.15,1,.46.45.69,1.03.69,1.75,0,.88-.3,1.56-.91,2.04-.61.48-1.33.72-2.17.72s-1.59-.18-2.14-.54c-.55-.36-.96-.84-1.23-1.44Z"/>
      <path class="st5" d="M650.39,270.09h-6.5c0,1.11.26,1.93.79,2.44.53.51,1.16.77,1.89.77.55,0,1.04-.13,1.46-.38.42-.25.77-.63,1.04-1.14l1.18.6c-.32.64-.79,1.17-1.43,1.57-.64.4-1.42.6-2.34.6-1.2,0-2.17-.4-2.94-1.19-.76-.79-1.15-1.95-1.15-3.49,0-1.37.39-2.5,1.16-3.4s1.76-1.35,2.97-1.35,2.17.37,2.85,1.11c.67.74,1.01,1.77,1.01,3.1v.76ZM648.91,268.88c0-.78-.21-1.39-.64-1.84-.43-.45-1.02-.67-1.77-.67s-1.32.24-1.78.72-.73,1.08-.82,1.79h5.01Z"/>
      <path class="st5" d="M665.17,274.33h-1.44v-5.17c0-.98-.15-1.7-.46-2.14-.31-.44-.83-.66-1.55-.66-.62,0-1.14.28-1.57.83-.43.56-.65,1.22-.65,2v5.13h-1.44v-5.34c0-.87-.17-1.53-.51-1.96-.34-.44-.85-.65-1.54-.65-.63,0-1.15.26-1.56.79s-.62,1.21-.62,2.04v5.13h-1.44v-9h1.44v1.28h.04c.32-.5.72-.87,1.18-1.12.47-.25,1-.37,1.61-.37s1.13.16,1.58.47c.45.32.75.73.92,1.25.34-.57.76-1,1.27-1.29s1.1-.43,1.77-.43c.99,0,1.73.3,2.23.91.49.61.74,1.53.74,2.75v5.55Z"/>
      <path class="st5" d="M675.1,270.09h-6.5c0,1.11.26,1.93.79,2.44.53.51,1.16.77,1.89.77.55,0,1.04-.13,1.46-.38.42-.25.77-.63,1.04-1.14l1.18.6c-.32.64-.79,1.17-1.43,1.57-.64.4-1.42.6-2.34.6-1.2,0-2.17-.4-2.94-1.19-.76-.79-1.15-1.95-1.15-3.49,0-1.37.39-2.5,1.16-3.4s1.76-1.35,2.97-1.35,2.17.37,2.85,1.11c.67.74,1.01,1.77,1.01,3.1v.76ZM673.62,268.88c0-.78-.21-1.39-.64-1.84-.43-.45-1.02-.67-1.77-.67s-1.32.24-1.78.72-.73,1.08-.82,1.79h5.01Z"/>
      <path class="st5" d="M681.71,266.68c-.14-.06-.29-.12-.45-.16s-.34-.06-.54-.06c-.64,0-1.17.31-1.57.92s-.6,1.4-.6,2.36v4.59h-1.44v-9h1.44v1.64h.04c.21-.56.52-1,.94-1.32.42-.32.89-.48,1.42-.48.24,0,.46.02.65.06.19.04.41.12.66.23l-.54,1.22Z"/>
      <path class="st5" d="M691.45,274.01c0,1.49-.38,2.63-1.12,3.4s-1.78,1.16-3.1,1.16c-.86,0-1.63-.16-2.34-.47s-1.3-.79-1.78-1.42l1.13-.86c.39.53.82.91,1.31,1.16.49.24,1.05.36,1.69.36.88,0,1.57-.25,2.05-.75s.72-1.27.72-2.3v-1.32h-.04c-.33.52-.73.91-1.2,1.18-.47.27-1.07.4-1.82.4-1.25,0-2.22-.4-2.9-1.2-.69-.8-1.03-1.9-1.03-3.3,0-1.52.39-2.72,1.16-3.6.78-.88,1.8-1.32,3.06-1.32.6,0,1.14.11,1.61.33s.84.53,1.12.91h.04v-1.04h1.44v8.67ZM690.01,270.26v-1.33c0-.71-.25-1.32-.75-1.82s-1.14-.75-1.92-.75c-.87,0-1.57.31-2.08.93s-.77,1.51-.77,2.68c0,1.03.24,1.84.72,2.43.48.6,1.12.89,1.93.89.89,0,1.59-.29,2.1-.86s.77-1.3.77-2.17Z"/>
      <path class="st5" d="M694.96,263.3c-.31,0-.56-.1-.76-.31s-.29-.45-.29-.73.1-.53.29-.73c.19-.21.45-.31.76-.31s.56.1.76.31c.19.21.29.45.29.73s-.1.53-.29.73-.45.31-.76.31ZM695.66,274.33h-1.44v-9h1.44v9Z"/>
      <path class="st5" d="M705.85,274.33h-1.44v-5.34c0-.88-.17-1.54-.51-1.97-.34-.43-.85-.65-1.52-.65-.76,0-1.38.27-1.85.8-.47.54-.71,1.21-.71,2.03v5.13h-1.44v-9h1.44v1.28h.04c.34-.5.76-.87,1.25-1.12.49-.25,1.06-.37,1.71-.37.98,0,1.74.32,2.26.95.52.64.78,1.55.78,2.76v5.5Z"/>
      <path class="st5" d="M716.21,274.01c0,1.49-.38,2.63-1.12,3.4s-1.78,1.16-3.1,1.16c-.86,0-1.63-.16-2.34-.47s-1.3-.79-1.78-1.42l1.13-.86c.39.53.82.91,1.31,1.16.49.24,1.05.36,1.69.36.88,0,1.57-.25,2.05-.75s.72-1.27.72-2.3v-1.32h-.04c-.33.52-.73.91-1.2,1.18-.47.27-1.07.4-1.82.4-1.25,0-2.22-.4-2.9-1.2-.69-.8-1.03-1.9-1.03-3.3,0-1.52.39-2.72,1.16-3.6.78-.88,1.8-1.32,3.06-1.32.6,0,1.14.11,1.61.33s.84.53,1.12.91h.04v-1.04h1.44v8.67ZM714.77,270.26v-1.33c0-.71-.25-1.32-.75-1.82s-1.14-.75-1.92-.75c-.87,0-1.57.31-2.08.93s-.77,1.51-.77,2.68c0,1.03.24,1.84.72,2.43.48.6,1.12.89,1.93.89.89,0,1.59-.29,2.1-.86s.77-1.3.77-2.17Z"/>
    </g>
    <g>
      <path class="st5" d="M547.48,297.54c-1.78,0-3.22-.59-4.32-1.76s-1.65-2.71-1.65-4.6c0-2.01.57-3.62,1.71-4.84s2.63-1.82,4.48-1.82c1.73,0,3.13.58,4.2,1.74s1.6,2.7,1.6,4.61-.55,3.59-1.66,4.83-2.56,1.85-4.35,1.85ZM547.48,296.18c1.34,0,2.41-.47,3.23-1.42s1.23-2.17,1.23-3.69-.4-2.82-1.2-3.77-1.85-1.42-3.16-1.42-2.45.47-3.28,1.41c-.83.94-1.25,2.19-1.25,3.75s.41,2.77,1.23,3.71c.82.95,1.88,1.42,3.2,1.42Z"/>
      <path class="st5" d="M560.21,289.68c-.14-.06-.29-.12-.45-.16s-.34-.06-.54-.06c-.64,0-1.17.31-1.57.92s-.6,1.4-.6,2.36v4.59h-1.44v-9h1.44v1.64h.04c.21-.56.52-1,.94-1.32.42-.32.89-.48,1.42-.48.24,0,.46.02.65.06.19.04.41.12.66.23l-.54,1.22Z"/>
      <path class="st5" d="M569.95,297.01c0,1.49-.38,2.63-1.12,3.4s-1.78,1.16-3.1,1.16c-.86,0-1.63-.16-2.34-.47s-1.3-.79-1.78-1.42l1.13-.86c.39.53.82.91,1.31,1.16.49.24,1.05.36,1.69.36.88,0,1.57-.25,2.05-.75s.72-1.27.72-2.3v-1.32h-.04c-.33.52-.73.91-1.2,1.18-.47.27-1.07.4-1.82.4-1.25,0-2.22-.4-2.9-1.2-.69-.8-1.03-1.9-1.03-3.3,0-1.52.39-2.72,1.16-3.6.78-.88,1.8-1.32,3.06-1.32.6,0,1.14.11,1.61.33s.84.53,1.12.91h.04v-1.04h1.44v8.67ZM568.51,293.26v-1.33c0-.71-.25-1.32-.75-1.82s-1.14-.75-1.92-.75c-.87,0-1.57.31-2.08.93s-.77,1.51-.77,2.68c0,1.03.24,1.84.72,2.43.48.6,1.12.89,1.93.89.89,0,1.59-.29,2.1-.86s.77-1.3.77-2.17Z"/>
      <path class="st5" d="M579.07,297.33h-1.44v-1.2h-.04c-.3.45-.69.8-1.16,1.04-.47.24-.98.37-1.54.37-.9,0-1.6-.24-2.11-.72s-.76-1.08-.76-1.8c0-.84.26-1.5.79-1.96.53-.47,1.27-.75,2.21-.87l2.59-.3v-.57c0-.65-.17-1.14-.5-1.46-.34-.33-.8-.49-1.38-.49s-1.02.12-1.38.37c-.36.25-.64.6-.83,1.04l-1.26-.52c.29-.68.75-1.21,1.36-1.58.61-.38,1.34-.56,2.19-.56,1.05,0,1.85.28,2.41.84.56.56.84,1.34.84,2.35v6.02ZM577.62,293.67v-.62l-2.5.28c-.56.06-.97.22-1.23.48-.26.26-.4.59-.4,1.02,0,.46.15.83.46,1.11.3.28.7.42,1.2.42.74,0,1.33-.25,1.79-.76.45-.51.68-1.15.68-1.93Z"/>
      <path class="st5" d="M589.08,297.33h-1.44v-5.34c0-.88-.17-1.54-.51-1.97-.34-.43-.85-.65-1.52-.65-.76,0-1.38.27-1.85.8-.47.54-.71,1.21-.71,2.03v5.13h-1.44v-9h1.44v1.28h.04c.34-.5.76-.87,1.25-1.12.49-.25,1.06-.37,1.71-.37.98,0,1.74.32,2.26.95.52.64.78,1.55.78,2.76v5.5Z"/>
      <path class="st5" d="M592.38,286.3c-.31,0-.56-.1-.76-.31s-.29-.45-.29-.73.1-.53.29-.73c.19-.21.45-.31.76-.31s.56.1.76.31c.19.21.29.45.29.73s-.1.53-.29.73-.45.31-.76.31ZM593.08,297.33h-1.44v-9h1.44v9Z"/>
      <path class="st5" d="M601.56,289.21l-5.1,6.89h5.16v1.23h-6.99v-.95l5.04-6.82h-4.65v-1.23h6.53v.88Z"/>
      <path class="st5" d="M609.68,297.33h-1.44v-1.2h-.04c-.3.45-.69.8-1.16,1.04-.47.24-.98.37-1.54.37-.9,0-1.6-.24-2.11-.72s-.76-1.08-.76-1.8c0-.84.26-1.5.79-1.96.53-.47,1.27-.75,2.21-.87l2.59-.3v-.57c0-.65-.17-1.14-.5-1.46-.34-.33-.8-.49-1.38-.49s-1.02.12-1.38.37c-.36.25-.64.6-.83,1.04l-1.26-.52c.29-.68.75-1.21,1.36-1.58.61-.38,1.34-.56,2.19-.56,1.05,0,1.85.28,2.41.84.56.56.84,1.34.84,2.35v6.02ZM608.24,293.67v-.62l-2.5.28c-.56.06-.97.22-1.23.48-.26.26-.4.59-.4,1.02,0,.46.15.83.46,1.11.3.28.7.42,1.2.42.74,0,1.33-.25,1.79-.76.45-.51.68-1.15.68-1.93Z"/>
      <path class="st5" d="M616.89,296.76c-.26.26-.55.46-.87.58s-.69.18-1.12.18c-.71,0-1.26-.2-1.64-.59-.39-.39-.58-.96-.58-1.7v-5.67h-1.55v-1.23h1.55v-2.13l1.44-.25v2.38h2.41v1.23h-2.41v5.55c0,.43.08.74.25.93s.42.29.77.29c.18,0,.34-.04.5-.11s.33-.21.51-.4l.74.94Z"/>
      <path class="st5" d="M619.41,286.3c-.31,0-.56-.1-.76-.31s-.29-.45-.29-.73.1-.53.29-.73c.19-.21.45-.31.76-.31s.56.1.76.31c.19.21.29.45.29.73s-.1.53-.29.73-.45.31-.76.31ZM620.11,297.33h-1.44v-9h1.44v9Z"/>
      <path class="st5" d="M626.69,297.54c-1.4,0-2.5-.42-3.29-1.25-.79-.84-1.19-1.95-1.19-3.35s.44-2.61,1.32-3.49c.88-.88,1.98-1.32,3.3-1.32s2.42.43,3.2,1.29c.79.86,1.18,1.99,1.18,3.39s-.41,2.48-1.22,3.39c-.81.9-1.92,1.36-3.31,1.36ZM626.76,296.29c.91,0,1.63-.3,2.17-.91.54-.61.8-1.45.8-2.54s-.27-1.87-.8-2.51c-.54-.64-1.26-.96-2.17-.96s-1.65.32-2.22.97c-.57.65-.86,1.49-.86,2.54,0,1.1.29,1.94.86,2.53.57.59,1.31.88,2.22.88Z"/>
      <path class="st5" d="M640.81,297.33h-1.44v-5.34c0-.88-.17-1.54-.51-1.97-.34-.43-.85-.65-1.52-.65-.76,0-1.38.27-1.85.8-.47.54-.71,1.21-.71,2.03v5.13h-1.44v-9h1.44v1.28h.04c.34-.5.76-.87,1.25-1.12.49-.25,1.06-.37,1.71-.37.98,0,1.74.32,2.26.95.52.64.78,1.55.78,2.76v5.5Z"/>
      <path class="st5" d="M655.04,297.33h-1.44v-5.34c0-.88-.17-1.54-.51-1.97-.34-.43-.85-.65-1.52-.65-.76,0-1.38.27-1.85.8-.47.54-.71,1.21-.71,2.03v5.13h-1.44v-9h1.44v1.28h.04c.34-.5.76-.87,1.25-1.12.49-.25,1.06-.37,1.71-.37.98,0,1.74.32,2.26.95.52.64.78,1.55.78,2.76v5.5Z"/>
      <path class="st5" d="M661.44,297.54c-1.4,0-2.5-.42-3.29-1.25-.79-.84-1.19-1.95-1.19-3.35s.44-2.61,1.32-3.49c.88-.88,1.98-1.32,3.3-1.32s2.42.43,3.2,1.29c.79.86,1.18,1.99,1.18,3.39s-.41,2.48-1.22,3.39c-.81.9-1.92,1.36-3.31,1.36ZM661.52,296.29c.91,0,1.63-.3,2.17-.91.54-.61.8-1.45.8-2.54s-.27-1.87-.8-2.51c-.54-.64-1.26-.96-2.17-.96s-1.65.32-2.22.97c-.57.65-.86,1.49-.86,2.54,0,1.1.29,1.94.86,2.53.57.59,1.31.88,2.22.88Z"/>
      <path class="st5" d="M672.77,296.76c-.26.26-.55.46-.87.58s-.69.18-1.12.18c-.71,0-1.26-.2-1.64-.59-.39-.39-.58-.96-.58-1.7v-5.67h-1.55v-1.23h1.55v-2.13l1.44-.25v2.38h2.41v1.23h-2.41v5.55c0,.43.08.74.25.93s.42.29.77.29c.18,0,.34-.04.5-.11s.33-.21.51-.4l.74.94Z"/>
      <path class="st5" d="M686.25,288.33l-4.42,11.17c-.28.7-.65,1.22-1.12,1.56s-1,.51-1.63.51c-.31,0-.59-.03-.83-.08s-.5-.15-.75-.28l.56-1.15c.18.09.35.15.51.2.17.04.34.07.52.07.29,0,.55-.07.76-.22.21-.15.42-.45.61-.91l.79-1.87-3.52-8.98h1.6l2.36,6.5c.06.16.1.3.13.4.03.1.07.25.11.43h.05c.04-.18.07-.33.11-.43.04-.11.09-.23.14-.38l2.49-6.51h1.49Z"/>
      <path class="st5" d="M695.13,293.09h-6.5c0,1.11.26,1.93.79,2.44.53.51,1.16.77,1.89.77.55,0,1.04-.13,1.46-.38.42-.25.77-.63,1.04-1.14l1.18.6c-.32.64-.79,1.17-1.43,1.57-.64.4-1.42.6-2.34.6-1.2,0-2.17-.4-2.94-1.19-.76-.79-1.15-1.95-1.15-3.49,0-1.37.39-2.5,1.16-3.4s1.76-1.35,2.97-1.35,2.17.37,2.85,1.11c.67.74,1.01,1.77,1.01,3.1v.76ZM693.66,291.88c0-.78-.21-1.39-.64-1.84-.43-.45-1.02-.67-1.77-.67s-1.32.24-1.78.72-.73,1.08-.82,1.79h5.01Z"/>
      <path class="st5" d="M701.81,296.76c-.26.26-.55.46-.87.58s-.69.18-1.12.18c-.71,0-1.26-.2-1.64-.59-.39-.39-.58-.96-.58-1.7v-5.67h-1.55v-1.23h1.55v-2.13l1.44-.25v2.38h2.41v1.23h-2.41v5.55c0,.43.08.74.25.93s.42.29.77.29c.18,0,.34-.04.5-.11s.33-.21.51-.4l.74.94Z"/>
      <path class="st5" d="M712.39,289.68c-.14-.06-.29-.12-.45-.16s-.34-.06-.54-.06c-.64,0-1.17.31-1.57.92s-.6,1.4-.6,2.36v4.59h-1.44v-9h1.44v1.64h.04c.21-.56.52-1,.94-1.32.42-.32.89-.48,1.42-.48.24,0,.46.02.65.06.19.04.41.12.66.23l-.54,1.22Z"/>
      <path class="st5" d="M721.69,293.09h-6.5c0,1.11.26,1.93.79,2.44.53.51,1.16.77,1.89.77.55,0,1.04-.13,1.46-.38.42-.25.77-.63,1.04-1.14l1.18.6c-.32.64-.79,1.17-1.43,1.57-.64.4-1.42.6-2.34.6-1.2,0-2.17-.4-2.94-1.19-.76-.79-1.15-1.95-1.15-3.49,0-1.37.39-2.5,1.16-3.4s1.76-1.35,2.97-1.35,2.17.37,2.85,1.11c.67.74,1.01,1.77,1.01,3.1v.76ZM720.21,291.88c0-.78-.21-1.39-.64-1.84-.43-.45-1.02-.67-1.77-.67s-1.32.24-1.78.72-.73,1.08-.82,1.79h5.01Z"/>
      <path class="st5" d="M730.06,297.33h-1.44v-1.2h-.04c-.3.45-.69.8-1.16,1.04-.47.24-.98.37-1.54.37-.9,0-1.6-.24-2.11-.72s-.76-1.08-.76-1.8c0-.84.26-1.5.79-1.96.53-.47,1.27-.75,2.21-.87l2.59-.3v-.57c0-.65-.17-1.14-.5-1.46-.34-.33-.8-.49-1.38-.49s-1.02.12-1.38.37c-.36.25-.64.6-.83,1.04l-1.26-.52c.29-.68.75-1.21,1.36-1.58.61-.38,1.34-.56,2.19-.56,1.05,0,1.85.28,2.41.84.56.56.84,1.34.84,2.35v6.02ZM728.62,293.67v-.62l-2.5.28c-.56.06-.97.22-1.23.48-.26.26-.4.59-.4,1.02,0,.46.15.83.46,1.11.3.28.7.42,1.2.42.74,0,1.33-.25,1.79-.76.45-.51.68-1.15.68-1.93Z"/>
      <path class="st5" d="M738.95,296.01c-.33.5-.76.88-1.28,1.14-.52.26-1.09.39-1.73.39-1.26,0-2.23-.4-2.92-1.21-.69-.8-1.03-1.9-1.03-3.29,0-1.52.39-2.72,1.17-3.6s1.8-1.32,3.05-1.32c.61,0,1.15.11,1.62.33s.85.53,1.12.91h.04v-5.36h1.44v13.32h-1.44v-1.32h-.04ZM733.46,292.97c0,1.02.24,1.83.71,2.43s1.12.9,1.96.9c.88,0,1.57-.29,2.09-.86s.77-1.3.77-2.17v-1.33c0-.71-.25-1.32-.74-1.82-.5-.5-1.14-.75-1.92-.75-.87,0-1.57.31-2.08.92s-.77,1.51-.77,2.68Z"/>
      <path class="st5" d="M750.68,288.33l-4.42,11.17c-.28.7-.65,1.22-1.12,1.56s-1,.51-1.63.51c-.31,0-.59-.03-.83-.08s-.5-.15-.75-.28l.56-1.15c.18.09.35.15.51.2.17.04.34.07.52.07.29,0,.55-.07.76-.22.21-.15.42-.45.61-.91l.79-1.87-3.52-8.98h1.6l2.36,6.5c.06.16.1.3.13.4.03.1.07.25.11.43h.05c.04-.18.07-.33.11-.43.04-.11.09-.23.14-.38l2.49-6.51h1.49Z"/>
    </g>
    <rect class="st4" x="76.98" y="47.85" width="379.21" height="151.68"/>
    <g class="st2">
      <path class="st6" d="M229.08,85.48v5.85h-2.79v-16.8h5.18c1.93,0,3.41.45,4.45,1.35s1.55,2.2,1.55,3.9-.58,3.11-1.73,4.15-2.71,1.56-4.68,1.56h-1.98ZM229.08,76.81v6.38h1.85c1.16,0,2.06-.29,2.68-.86s.93-1.38.93-2.43-.29-1.77-.87-2.3-1.44-.79-2.58-.79h-2Z"/>
      <path class="st6" d="M246.62,81.77c-.22-.09-.44-.15-.67-.21s-.47-.08-.73-.08c-.8,0-1.46.36-1.96,1.08s-.75,1.66-.75,2.81v5.94h-2.73v-12h2.73v2.17h.05c.28-.77.7-1.35,1.24-1.76s1.18-.62,1.9-.62c.3,0,.59.02.84.07s.54.14.83.27l-.75,2.32Z"/>
      <path class="st6" d="M259.32,85.99h-8.29c.02,1.16.34,2.03.94,2.61s1.35.87,2.23.87c.62,0,1.18-.15,1.66-.44s.89-.73,1.23-1.31l2.1,1.14c-.55.88-1.24,1.55-2.09,2.03s-1.85.71-2.99.71c-1.77,0-3.18-.53-4.24-1.59s-1.59-2.59-1.59-4.58.54-3.44,1.63-4.62,2.46-1.77,4.1-1.77,2.99.5,3.92,1.51,1.39,2.47,1.39,4.38v1.05ZM256.68,84.05c0-.94-.23-1.66-.7-2.18s-1.11-.77-1.92-.77-1.54.28-2.07.85-.85,1.27-.96,2.1h5.66Z"/>
      <path class="st6" d="M264.58,90.07h-.05v6.77h-2.73v-17.52h2.73v1.71h.05c.48-.66,1.06-1.16,1.74-1.49s1.45-.5,2.3-.5c1.59,0,2.84.53,3.73,1.58s1.34,2.52,1.34,4.41-.5,3.56-1.49,4.76-2.33,1.81-3.99,1.81c-.77,0-1.46-.13-2.07-.39s-1.12-.64-1.55-1.15ZM264.5,84.81v1.48c0,.88.29,1.62.88,2.21s1.33.89,2.23.89c1.02,0,1.81-.39,2.4-1.16s.87-1.82.87-3.13-.27-2.23-.8-2.88-1.27-.97-2.21-.97c-.99,0-1.8.33-2.43,1s-.94,1.52-.94,2.55Z"/>
      <path class="st6" d="M285.38,91.33h-2.64v-1.49h-.05c-.42.58-.94,1.02-1.55,1.32s-1.29.45-2.04.45c-1.11,0-2.02-.32-2.72-.95s-1.06-1.46-1.06-2.48c0-1.1.35-1.99,1.06-2.65s1.72-1.08,3.04-1.22l3.33-.38v-.57c0-.74-.21-1.3-.62-1.67s-.96-.56-1.63-.56-1.22.15-1.68.45-.83.72-1.12,1.28l-2.04-1.04c.41-.8,1.05-1.46,1.92-1.98s1.91-.77,3.12-.77c1.52,0,2.67.4,3.47,1.19s1.2,1.94,1.2,3.45v7.64ZM282.76,86.45v-.66l-2.89.32c-.66.07-1.15.25-1.45.55s-.46.7-.46,1.2.17.92.52,1.24.8.47,1.35.47c.88,0,1.58-.29,2.12-.88s.81-1.33.81-2.23Z"/>
      <path class="st6" d="M295.31,81.77c-.22-.09-.44-.15-.67-.21s-.47-.08-.73-.08c-.8,0-1.46.36-1.96,1.08s-.75,1.66-.75,2.81v5.94h-2.73v-12h2.73v2.17h.05c.28-.77.7-1.35,1.24-1.76s1.18-.62,1.9-.62c.3,0,.59.02.84.07s.54.14.83.27l-.75,2.32Z"/>
      <path class="st6" d="M308.01,85.99h-8.29c.02,1.16.34,2.03.94,2.61s1.35.87,2.23.87c.62,0,1.18-.15,1.66-.44s.89-.73,1.23-1.31l2.1,1.14c-.55.88-1.24,1.55-2.09,2.03s-1.85.71-2.99.71c-1.77,0-3.18-.53-4.24-1.59s-1.59-2.59-1.59-4.58.54-3.44,1.63-4.62,2.46-1.77,4.1-1.77,2.99.5,3.92,1.51,1.39,2.47,1.39,4.38v1.05ZM305.38,84.05c0-.94-.23-1.66-.7-2.18s-1.11-.77-1.92-.77-1.54.28-2.07.85-.85,1.27-.96,2.1h5.66Z"/>
    </g>
    <g class="st2">
      <path class="st5" d="M198.38,130.98c-1.78,0-3.22-.59-4.32-1.76s-1.65-2.71-1.65-4.6c0-2.01.57-3.62,1.71-4.84s2.63-1.82,4.48-1.82c1.73,0,3.13.58,4.2,1.74s1.6,2.7,1.6,4.61-.55,3.59-1.66,4.83-2.56,1.85-4.35,1.85ZM198.38,129.62c1.34,0,2.41-.47,3.23-1.42s1.23-2.17,1.23-3.69-.4-2.82-1.2-3.77-1.85-1.42-3.16-1.42-2.45.47-3.28,1.41-1.25,2.19-1.25,3.75.41,2.77,1.23,3.71,1.89,1.42,3.2,1.42Z"/>
      <path class="st5" d="M211.11,123.12c-.14-.06-.29-.12-.45-.16s-.34-.06-.54-.06c-.64,0-1.17.31-1.57.92s-.6,1.4-.6,2.36v4.59h-1.44v-9h1.44v1.64h.04c.21-.56.52-1,.94-1.32s.89-.48,1.42-.48c.24,0,.46.02.65.06s.41.12.66.23l-.54,1.22Z"/>
      <path class="st5" d="M220.85,130.45c0,1.49-.38,2.63-1.12,3.4s-1.78,1.16-3.1,1.16c-.86,0-1.63-.16-2.34-.47s-1.3-.79-1.78-1.42l1.13-.86c.39.53.82.91,1.31,1.16s1.05.36,1.69.36c.88,0,1.57-.25,2.05-.75s.72-1.27.72-2.3v-1.32h-.04c-.33.52-.73.91-1.2,1.18s-1.07.4-1.82.4c-1.25,0-2.22-.4-2.9-1.2s-1.03-1.9-1.03-3.3c0-1.52.39-2.72,1.16-3.6s1.8-1.32,3.06-1.32c.6,0,1.14.11,1.61.33s.84.53,1.12.91h.04v-1.04h1.44v8.67ZM219.41,126.7v-1.33c0-.71-.25-1.32-.75-1.82s-1.14-.75-1.92-.75c-.87,0-1.57.31-2.08.93s-.77,1.51-.77,2.68c0,1.03.24,1.84.72,2.43s1.12.89,1.93.89c.89,0,1.59-.29,2.1-.86s.77-1.3.77-2.17Z"/>
      <path class="st5" d="M229.97,130.77h-1.44v-1.2h-.04c-.3.45-.69.8-1.16,1.04s-.98.36-1.54.36c-.9,0-1.6-.24-2.1-.72s-.76-1.08-.76-1.8c0-.84.26-1.5.79-1.96s1.27-.75,2.21-.87l2.59-.3v-.57c0-.65-.17-1.14-.51-1.46s-.8-.49-1.38-.49-1.02.12-1.38.37-.64.6-.83,1.04l-1.26-.52c.29-.68.75-1.21,1.36-1.58s1.34-.56,2.19-.56c1.05,0,1.85.28,2.41.84s.84,1.34.84,2.35v6.02ZM228.53,127.12v-.62l-2.5.28c-.56.06-.97.22-1.23.48s-.4.59-.4,1.02c0,.46.15.83.46,1.11s.7.42,1.2.42c.74,0,1.33-.25,1.79-.76s.68-1.15.68-1.93Z"/>
      <path class="st5" d="M239.98,130.77h-1.44v-5.34c0-.88-.17-1.54-.51-1.97s-.85-.65-1.52-.65c-.76,0-1.38.27-1.85.8s-.71,1.21-.71,2.03v5.13h-1.44v-9h1.44v1.28h.04c.34-.5.76-.87,1.25-1.12s1.06-.37,1.71-.37c.98,0,1.74.32,2.26.95s.78,1.55.78,2.76v5.5Z"/>
      <path class="st5" d="M243.28,119.74c-.31,0-.56-.1-.76-.31s-.29-.45-.29-.73.1-.53.29-.73.45-.31.76-.31.56.1.76.31.29.45.29.73-.1.53-.29.73-.45.31-.76.31ZM243.99,130.77h-1.44v-9h1.44v9Z"/>
      <path class="st5" d="M252.46,122.65l-5.1,6.89h5.16v1.23h-6.99v-.95l5.04-6.82h-4.65v-1.23h6.53v.88Z"/>
      <path class="st5" d="M260.58,130.77h-1.44v-1.2h-.04c-.3.45-.69.8-1.16,1.04s-.98.36-1.54.36c-.9,0-1.6-.24-2.1-.72s-.76-1.08-.76-1.8c0-.84.26-1.5.79-1.96s1.27-.75,2.21-.87l2.59-.3v-.57c0-.65-.17-1.14-.51-1.46s-.8-.49-1.38-.49-1.02.12-1.38.37-.64.6-.83,1.04l-1.26-.52c.29-.68.75-1.21,1.36-1.58s1.34-.56,2.19-.56c1.05,0,1.85.28,2.41.84s.84,1.34.84,2.35v6.02ZM259.14,127.12v-.62l-2.5.28c-.56.06-.97.22-1.23.48s-.4.59-.4,1.02c0,.46.15.83.46,1.11s.7.42,1.2.42c.74,0,1.33-.25,1.79-.76s.68-1.15.68-1.93Z"/>
      <path class="st5" d="M267.8,130.2c-.26.26-.55.46-.87.58s-.69.18-1.12.18c-.71,0-1.26-.2-1.64-.59s-.58-.96-.58-1.7v-5.67h-1.55v-1.23h1.55v-2.13l1.44-.25v2.38h2.41v1.23h-2.41v5.55c0,.43.08.74.25.93s.42.29.77.29c.18,0,.34-.04.51-.11s.33-.21.51-.4l.74.94Z"/>
      <path class="st5" d="M270.31,119.74c-.31,0-.56-.1-.76-.31s-.29-.45-.29-.73.1-.53.29-.73.45-.31.76-.31.56.1.76.31.29.45.29.73-.1.53-.29.73-.45.31-.76.31ZM271.01,130.77h-1.44v-9h1.44v9Z"/>
      <path class="st5" d="M277.59,130.98c-1.4,0-2.5-.42-3.29-1.25s-1.19-1.95-1.19-3.35.44-2.61,1.32-3.49,1.98-1.32,3.3-1.32,2.42.43,3.2,1.29,1.18,1.99,1.18,3.39-.41,2.48-1.22,3.39-1.91,1.36-3.31,1.36ZM277.67,129.73c.91,0,1.63-.3,2.17-.91s.8-1.45.8-2.54-.27-1.87-.8-2.51-1.26-.96-2.17-.96-1.65.32-2.22.97-.86,1.49-.86,2.54c0,1.1.29,1.94.86,2.53s1.31.88,2.22.88Z"/>
      <path class="st5" d="M291.71,130.77h-1.44v-5.34c0-.88-.17-1.54-.51-1.97s-.85-.65-1.52-.65c-.76,0-1.38.27-1.85.8s-.71,1.21-.71,2.03v5.13h-1.44v-9h1.44v1.28h.04c.34-.5.76-.87,1.25-1.12s1.06-.37,1.71-.37c.98,0,1.74.32,2.26.95s.78,1.55.78,2.76v5.5Z"/>
      <path class="st5" d="M303.07,123.12c-.14-.06-.29-.12-.45-.16s-.34-.06-.54-.06c-.64,0-1.17.31-1.57.92s-.6,1.4-.6,2.36v4.59h-1.44v-9h1.44v1.64h.04c.21-.56.52-1,.94-1.32s.89-.48,1.42-.48c.24,0,.46.02.65.06s.41.12.66.23l-.54,1.22Z"/>
      <path class="st5" d="M312.37,126.53h-6.5c0,1.11.27,1.93.8,2.44s1.16.77,1.89.77c.55,0,1.04-.13,1.45-.38s.77-.63,1.04-1.14l1.18.6c-.32.64-.79,1.17-1.43,1.57s-1.42.6-2.34.6c-1.2,0-2.18-.4-2.94-1.19s-1.15-1.95-1.15-3.49c0-1.37.39-2.5,1.16-3.4s1.76-1.35,2.97-1.35,2.17.37,2.85,1.11,1.01,1.77,1.01,3.1v.76ZM310.9,125.32c0-.78-.21-1.39-.64-1.84s-1.02-.67-1.77-.67-1.32.24-1.78.72-.73,1.08-.82,1.79h5.01Z"/>
      <path class="st5" d="M320.75,130.77h-1.44v-1.2h-.04c-.3.45-.69.8-1.16,1.04s-.98.36-1.54.36c-.9,0-1.6-.24-2.1-.72s-.76-1.08-.76-1.8c0-.84.26-1.5.79-1.96s1.27-.75,2.21-.87l2.59-.3v-.57c0-.65-.17-1.14-.51-1.46s-.8-.49-1.38-.49-1.02.12-1.38.37-.64.6-.83,1.04l-1.26-.52c.29-.68.75-1.21,1.36-1.58s1.34-.56,2.19-.56c1.05,0,1.85.28,2.41.84s.84,1.34.84,2.35v6.02ZM319.31,127.12v-.62l-2.5.28c-.56.06-.97.22-1.23.48s-.4.59-.4,1.02c0,.46.15.83.46,1.11s.7.42,1.2.42c.74,0,1.33-.25,1.79-.76s.68-1.15.68-1.93Z"/>
      <path class="st5" d="M329.64,129.45c-.33.5-.76.88-1.28,1.14s-1.09.39-1.73.39c-1.26,0-2.23-.4-2.92-1.21s-1.03-1.9-1.03-3.29c0-1.52.39-2.72,1.17-3.6s1.8-1.32,3.05-1.32c.61,0,1.15.11,1.62.33s.85.53,1.12.91h.04v-5.36h1.44v13.32h-1.44v-1.32h-.04ZM324.15,126.41c0,1.02.24,1.83.71,2.43s1.12.9,1.96.9c.88,0,1.57-.29,2.09-.86s.77-1.3.77-2.17v-1.33c0-.71-.25-1.32-.74-1.82s-1.14-.75-1.92-.75c-.87,0-1.57.31-2.08.92s-.77,1.51-.77,2.68Z"/>
      <path class="st5" d="M341.37,121.77l-4.42,11.17c-.28.7-.65,1.22-1.12,1.56s-1,.51-1.63.51c-.31,0-.59-.03-.83-.08s-.5-.15-.75-.28l.56-1.15c.18.09.35.15.51.2s.34.07.52.07c.29,0,.55-.07.76-.22s.42-.45.61-.91l.79-1.87-3.52-8.98h1.6l2.36,6.5c.06.16.1.3.13.4s.07.24.11.43h.05c.04-.18.07-.33.11-.43s.09-.23.15-.38l2.49-6.51h1.49Z"/>
    </g>
    <g>
      <path class="st5" d="M181.97,156.05v-12.6h3.48c2.19,0,3.84.5,4.97,1.51s1.69,2.55,1.69,4.63-.61,3.61-1.84,4.75-2.88,1.71-4.97,1.71h-3.34ZM183.45,144.78v9.93h1.88c1.65,0,2.94-.42,3.86-1.27s1.38-2.12,1.38-3.82-.42-2.92-1.27-3.69-2.14-1.15-3.88-1.15h-1.97Z"/>
      <path class="st5" d="M198.83,148.41c-.14-.06-.29-.12-.45-.16s-.34-.06-.54-.06c-.64,0-1.17.31-1.57.92s-.6,1.4-.6,2.36v4.59h-1.44v-9h1.44v1.64h.04c.21-.56.52-1,.94-1.32s.89-.48,1.42-.48c.24,0,.46.02.65.06s.41.12.66.23l-.54,1.22Z"/>
      <path class="st5" d="M201.43,145.02c-.31,0-.56-.1-.76-.31s-.29-.45-.29-.73.1-.53.29-.73.45-.31.76-.31.56.1.76.31.29.45.29.73-.1.53-.29.73-.45.31-.76.31ZM202.14,156.05h-1.44v-9h1.44v9Z"/>
      <path class="st5" d="M212.03,147.05l-3.59,9h-1.42l-3.41-9h1.58l2.29,6.43c.06.19.12.34.15.45s.09.27.15.45h.04c.06-.19.11-.35.15-.47s.09-.25.15-.4l2.39-6.47h1.52Z"/>
      <path class="st5" d="M220.92,151.81h-6.5c0,1.11.27,1.93.8,2.44s1.16.77,1.89.77c.55,0,1.04-.13,1.45-.38s.77-.63,1.04-1.14l1.18.6c-.32.64-.79,1.17-1.43,1.57s-1.42.6-2.34.6c-1.2,0-2.18-.4-2.94-1.19s-1.15-1.95-1.15-3.49c0-1.37.39-2.5,1.16-3.4s1.76-1.35,2.97-1.35,2.17.37,2.85,1.11,1.01,1.77,1.01,3.1v.76ZM219.44,150.6c0-.78-.21-1.39-.64-1.84s-1.02-.67-1.77-.67-1.32.24-1.78.72-.73,1.08-.82,1.79h5.01Z"/>
      <path class="st5" d="M227.53,148.41c-.14-.06-.29-.12-.45-.16s-.34-.06-.54-.06c-.64,0-1.17.31-1.57.92s-.6,1.4-.6,2.36v4.59h-1.44v-9h1.44v1.64h.04c.21-.56.52-1,.94-1.32s.89-.48,1.42-.48c.24,0,.46.02.65.06s.41.12.66.23l-.54,1.22Z"/>
      <path class="st5" d="M228.91,154.29l1.23-.54c.2.45.48.77.83.97s.79.3,1.31.3.9-.12,1.23-.37.49-.6.49-1.06c0-.35-.14-.65-.43-.91s-.73-.45-1.34-.58c-1.14-.25-1.91-.6-2.32-1.04s-.61-.96-.61-1.56c0-.84.29-1.5.88-1.96s1.29-.69,2.11-.69c.66,0,1.26.14,1.8.41s.94.7,1.2,1.27l-1.18.54c-.18-.33-.41-.58-.7-.74s-.68-.24-1.15-.24-.84.11-1.15.33-.47.53-.47.92c0,.37.13.65.38.85s.75.38,1.5.55c.98.22,1.7.55,2.15,1s.69,1.03.69,1.75c0,.88-.3,1.56-.91,2.04s-1.33.73-2.18.73-1.59-.18-2.14-.54-.96-.84-1.23-1.44Z"/>
      <path class="st5" d="M249.25,156.05h-1.44v-5.34c0-.88-.17-1.54-.51-1.97s-.85-.65-1.52-.65c-.76,0-1.38.27-1.85.8s-.71,1.21-.71,2.03v5.13h-1.44v-9h1.44v1.28h.04c.34-.5.76-.87,1.25-1.12s1.06-.37,1.71-.37c.98,0,1.74.32,2.26.95s.78,1.55.78,2.76v5.5Z"/>
      <path class="st5" d="M255.64,156.26c-1.4,0-2.5-.42-3.29-1.25s-1.19-1.95-1.19-3.35.44-2.61,1.32-3.49,1.98-1.32,3.3-1.32,2.42.43,3.2,1.29,1.18,1.99,1.18,3.39-.41,2.48-1.22,3.39-1.91,1.36-3.31,1.36ZM255.72,155.02c.91,0,1.63-.3,2.17-.91s.8-1.45.8-2.54-.27-1.87-.8-2.51-1.26-.96-2.17-.96-1.65.32-2.22.97-.86,1.49-.86,2.54c0,1.1.29,1.94.86,2.53s1.31.88,2.22.88Z"/>
      <path class="st5" d="M266.97,155.48c-.26.26-.55.46-.87.58s-.69.18-1.12.18c-.71,0-1.26-.2-1.64-.59s-.58-.96-.58-1.7v-5.67h-1.55v-1.23h1.55v-2.13l1.44-.25v2.38h2.41v1.23h-2.41v5.55c0,.43.08.74.25.93s.42.29.77.29c.18,0,.34-.04.51-.11s.33-.21.51-.4l.74.94Z"/>
      <path class="st5" d="M280.46,147.05l-4.42,11.17c-.28.7-.65,1.22-1.12,1.56s-1,.51-1.63.51c-.31,0-.59-.03-.83-.08s-.5-.15-.75-.28l.56-1.15c.18.09.35.15.51.2s.34.07.52.07c.29,0,.55-.07.76-.22s.42-.45.61-.91l.79-1.87-3.52-8.98h1.6l2.36,6.5c.06.16.1.3.13.4s.07.24.11.43h.05c.04-.18.07-.33.11-.43s.09-.23.15-.38l2.49-6.51h1.49Z"/>
      <path class="st5" d="M289.34,151.81h-6.5c0,1.11.27,1.93.8,2.44s1.16.77,1.89.77c.55,0,1.04-.13,1.45-.38s.77-.63,1.04-1.14l1.18.6c-.32.64-.79,1.17-1.43,1.57s-1.42.6-2.34.6c-1.2,0-2.18-.4-2.94-1.19s-1.15-1.95-1.15-3.49c0-1.37.39-2.5,1.16-3.4s1.76-1.35,2.97-1.35,2.17.37,2.85,1.11,1.01,1.77,1.01,3.1v.76ZM287.87,150.6c0-.78-.21-1.39-.64-1.84s-1.02-.67-1.77-.67-1.32.24-1.78.72-.73,1.08-.82,1.79h5.01Z"/>
      <path class="st5" d="M296.02,155.48c-.26.26-.55.46-.87.58s-.69.18-1.12.18c-.71,0-1.26-.2-1.64-.59s-.58-.96-.58-1.7v-5.67h-1.55v-1.23h1.55v-2.13l1.44-.25v2.38h2.41v1.23h-2.41v5.55c0,.43.08.74.25.93s.42.29.77.29c.18,0,.34-.04.51-.11s.33-.21.51-.4l.74.94Z"/>
      <path class="st5" d="M301.44,154.29l1.23-.54c.2.45.48.77.83.97s.79.3,1.31.3.9-.12,1.23-.37.49-.6.49-1.06c0-.35-.14-.65-.43-.91s-.73-.45-1.34-.58c-1.14-.25-1.91-.6-2.32-1.04s-.61-.96-.61-1.56c0-.84.29-1.5.88-1.96s1.29-.69,2.11-.69c.66,0,1.26.14,1.8.41s.94.7,1.2,1.27l-1.18.54c-.18-.33-.41-.58-.7-.74s-.68-.24-1.15-.24-.84.11-1.15.33-.47.53-.47.92c0,.37.13.65.38.85s.75.38,1.5.55c.98.22,1.7.55,2.15,1s.69,1.03.69,1.75c0,.88-.3,1.56-.91,2.04s-1.33.73-2.18.73-1.59-.18-2.14-.54-.96-.84-1.23-1.44Z"/>
      <path class="st5" d="M314.77,155.48c-.26.26-.55.46-.87.58s-.69.18-1.12.18c-.71,0-1.26-.2-1.64-.59s-.58-.96-.58-1.7v-5.67h-1.55v-1.23h1.55v-2.13l1.44-.25v2.38h2.41v1.23h-2.41v5.55c0,.43.08.74.25.93s.42.29.77.29c.18,0,.34-.04.51-.11s.33-.21.51-.4l.74.94Z"/>
      <path class="st5" d="M321.12,148.41c-.14-.06-.29-.12-.45-.16s-.34-.06-.54-.06c-.64,0-1.17.31-1.57.92s-.6,1.4-.6,2.36v4.59h-1.44v-9h1.44v1.64h.04c.21-.56.52-1,.94-1.32s.89-.48,1.42-.48c.24,0,.46.02.65.06s.41.12.66.23l-.54,1.22Z"/>
      <path class="st5" d="M326.91,156.26c-1.4,0-2.5-.42-3.29-1.25s-1.19-1.95-1.19-3.35.44-2.61,1.32-3.49,1.98-1.32,3.3-1.32,2.42.43,3.2,1.29,1.18,1.99,1.18,3.39-.41,2.48-1.22,3.39-1.91,1.36-3.31,1.36ZM326.99,155.02c.91,0,1.63-.3,2.17-.91s.8-1.45.8-2.54-.27-1.87-.8-2.51-1.26-.96-2.17-.96-1.65.32-2.22.97-.86,1.49-.86,2.54c0,1.1.29,1.94.86,2.53s1.31.88,2.22.88Z"/>
      <path class="st5" d="M341.03,156.05h-1.44v-5.34c0-.88-.17-1.54-.51-1.97s-.85-.65-1.52-.65c-.76,0-1.38.27-1.85.8s-.71,1.21-.71,2.03v5.13h-1.44v-9h1.44v1.28h.04c.34-.5.76-.87,1.25-1.12s1.06-.37,1.71-.37c.98,0,1.74.32,2.26.95s.78,1.55.78,2.76v5.5Z"/>
      <path class="st5" d="M351.39,155.73c0,1.49-.38,2.63-1.12,3.4s-1.78,1.16-3.1,1.16c-.86,0-1.63-.16-2.34-.47s-1.3-.79-1.78-1.42l1.13-.86c.39.53.82.91,1.31,1.16s1.05.36,1.69.36c.88,0,1.57-.25,2.05-.75s.72-1.27.72-2.3v-1.32h-.04c-.33.52-.73.91-1.2,1.18s-1.07.4-1.82.4c-1.25,0-2.22-.4-2.9-1.2s-1.03-1.9-1.03-3.3c0-1.52.39-2.72,1.16-3.6s1.8-1.32,3.06-1.32c.6,0,1.14.11,1.61.33s.84.53,1.12.91h.04v-1.04h1.44v8.67ZM349.95,151.98v-1.33c0-.71-.25-1.32-.75-1.82s-1.14-.75-1.92-.75c-.87,0-1.57.31-2.08.93s-.77,1.51-.77,2.68c0,1.03.24,1.84.72,2.43s1.12.89,1.93.89c.89,0,1.59-.29,2.1-.86s.77-1.3.77-2.17Z"/>
    </g>
    <rect class="st0" x="456.19" y="47.85" width="379.21" height="151.68"/>
    <g>
      <path class="st6" d="M546.69,91.33h-9.43v-16.8h9.06v2.39h-6.27v4.72h5.81v2.38h-5.81v4.92h6.64v2.39Z"/>
      <path class="st6" d="M559.66,79.33l-4.63,12h-2.94l-4.42-12h2.91l2.62,7.84c.09.29.17.54.23.74s.13.46.21.76h.05c.08-.3.15-.55.21-.76s.14-.44.22-.69l2.73-7.9h2.81Z"/>
      <path class="st6" d="M570.66,91.33h-2.64v-1.49h-.05c-.42.58-.94,1.02-1.55,1.32s-1.29.45-2.04.45c-1.11,0-2.02-.32-2.72-.95s-1.06-1.46-1.06-2.48c0-1.1.35-1.99,1.06-2.65s1.72-1.08,3.04-1.22l3.33-.38v-.57c0-.74-.21-1.3-.62-1.67s-.96-.56-1.63-.56-1.22.15-1.68.45-.83.72-1.12,1.28l-2.04-1.04c.41-.8,1.05-1.46,1.92-1.98s1.91-.77,3.12-.77c1.52,0,2.67.4,3.47,1.19s1.2,1.94,1.2,3.45v7.64ZM568.04,86.45v-.66l-2.89.32c-.66.07-1.15.25-1.45.55s-.46.7-.46,1.2.17.92.52,1.24.8.47,1.35.47c.88,0,1.58-.29,2.12-.88s.81-1.33.81-2.23Z"/>
      <path class="st6" d="M573.75,91.33v-17.77h2.73v17.77h-2.73Z"/>
      <path class="st6" d="M590.26,91.33h-2.73v-1.63h-.05c-.39.59-.92,1.05-1.58,1.39s-1.35.52-2.08.52c-1.41,0-2.47-.42-3.19-1.25s-1.08-2.05-1.08-3.65v-7.38h2.71v7.02c0,1.01.2,1.77.59,2.28s1,.77,1.83.77,1.52-.3,2.05-.91.8-1.38.8-2.31v-6.84h2.73v12Z"/>
      <path class="st6" d="M602.71,91.33h-2.64v-1.49h-.05c-.42.58-.94,1.02-1.55,1.32s-1.29.45-2.04.45c-1.11,0-2.02-.32-2.72-.95s-1.06-1.46-1.06-2.48c0-1.1.35-1.99,1.06-2.65s1.72-1.08,3.04-1.22l3.33-.38v-.57c0-.74-.21-1.3-.62-1.67s-.96-.56-1.63-.56-1.22.15-1.68.45-.83.72-1.12,1.28l-2.04-1.04c.41-.8,1.05-1.46,1.92-1.98s1.91-.77,3.12-.77c1.52,0,2.67.4,3.47,1.19s1.2,1.94,1.2,3.45v7.64ZM600.09,86.45v-.66l-2.89.32c-.66.07-1.15.25-1.45.55s-.46.7-.46,1.2.17.92.52,1.24.8.47,1.35.47c.88,0,1.58-.29,2.12-.88s.81-1.33.81-2.23Z"/>
      <path class="st6" d="M612.85,90.52c-.36.34-.78.61-1.25.8s-1.01.28-1.61.28c-1.14,0-2-.29-2.58-.86s-.87-1.42-.87-2.53v-6.75h-2.02v-2.13h2.02v-2.94l2.72-.48v3.42h3.06v2.13h-3.06v6.66c0,.48.1.83.29,1.05s.48.34.87.34c.2,0,.4-.04.6-.12s.4-.23.62-.46l1.22,1.58Z"/>
      <path class="st6" d="M625.23,85.99h-8.29c.02,1.16.34,2.03.94,2.61s1.35.87,2.23.87c.62,0,1.18-.15,1.66-.44s.89-.73,1.23-1.31l2.1,1.14c-.55.88-1.24,1.55-2.09,2.03s-1.85.71-2.99.71c-1.77,0-3.18-.53-4.24-1.59s-1.59-2.59-1.59-4.58.54-3.44,1.63-4.62,2.46-1.77,4.1-1.77,2.99.5,3.92,1.51,1.39,2.47,1.39,4.38v1.05ZM622.59,84.05c0-.94-.23-1.66-.7-2.18s-1.11-.77-1.92-.77-1.54.28-2.07.85-.85,1.27-.96,2.1h5.66Z"/>
      <path class="st6" d="M631.87,91.33l6.26-16.8h3.14l6.21,16.8h-3l-1.45-3.98h-6.77l-1.39,3.98h-2.99ZM637,84.97h5.26l-2.3-6.67c-.06-.17-.12-.33-.16-.46s-.09-.31-.15-.51h-.06c-.06.19-.11.35-.15.49s-.09.3-.15.48l-2.3,6.67Z"/>
      <path class="st6" d="M657.59,80.88l-6.28,8.26h6.48v2.18h-9.89v-1.61l6.26-8.21h-5.82v-2.18h9.26v1.56Z"/>
      <path class="st6" d="M670.3,91.33h-2.73v-1.63h-.05c-.39.59-.92,1.05-1.58,1.39s-1.35.52-2.08.52c-1.41,0-2.47-.42-3.19-1.25s-1.08-2.05-1.08-3.65v-7.38h2.71v7.02c0,1.01.2,1.77.59,2.28s1,.77,1.83.77,1.52-.3,2.05-.91.8-1.38.8-2.31v-6.84h2.73v12Z"/>
      <path class="st6" d="M680.43,81.77c-.22-.09-.44-.15-.67-.21s-.47-.08-.73-.08c-.8,0-1.46.36-1.96,1.08s-.75,1.66-.75,2.81v5.94h-2.73v-12h2.73v2.17h.05c.28-.77.7-1.35,1.24-1.76s1.18-.62,1.9-.62c.3,0,.59.02.84.07s.54.14.83.27l-.75,2.32Z"/>
      <path class="st6" d="M693.14,85.99h-8.29c.02,1.16.34,2.03.94,2.61s1.35.87,2.23.87c.62,0,1.18-.15,1.66-.44s.89-.73,1.23-1.31l2.1,1.14c-.55.88-1.24,1.55-2.09,2.03s-1.85.71-2.99.71c-1.77,0-3.18-.53-4.24-1.59s-1.59-2.59-1.59-4.58.54-3.44,1.63-4.62,2.46-1.77,4.1-1.77,2.99.5,3.92,1.51,1.39,2.47,1.39,4.38v1.05ZM690.5,84.05c0-.94-.23-1.66-.7-2.18s-1.11-.77-1.92-.77-1.54.28-2.07.85-.85,1.27-.96,2.1h5.66Z"/>
      <path class="st6" d="M710.86,91.33h-9.3v-16.8h2.79v14.39h6.52v2.41Z"/>
      <path class="st6" d="M718.17,91.61c-1.9,0-3.41-.56-4.52-1.68s-1.68-2.62-1.68-4.51c0-1.91.6-3.46,1.78-4.62s2.71-1.75,4.59-1.75,3.38.57,4.48,1.72,1.64,2.63,1.64,4.45-.58,3.39-1.73,4.59-2.67,1.8-4.56,1.8ZM718.27,89.39c1.08,0,1.91-.37,2.51-1.11s.89-1.74.89-2.99-.3-2.19-.9-2.92-1.43-1.11-2.5-1.11-1.93.38-2.57,1.14-.96,1.75-.96,2.96.32,2.24.95,2.96,1.49,1.07,2.58,1.07Z"/>
      <path class="st6" d="M737.21,89.09c-.53.84-1.22,1.47-2.06,1.89s-1.77.63-2.78.63c-1.94,0-3.45-.56-4.53-1.67s-1.62-2.58-1.62-4.4c0-2.01.58-3.59,1.73-4.75s2.65-1.74,4.49-1.74c1.04,0,1.98.22,2.81.66s1.47,1.09,1.9,1.96l-2.13,1.08c-.38-.54-.78-.92-1.2-1.14s-.92-.33-1.48-.33c-.97,0-1.77.36-2.4,1.08s-.94,1.72-.94,3.01.31,2.26.93,2.95,1.46,1.04,2.5,1.04c.53,0,1.02-.11,1.47-.33s.85-.6,1.21-1.13l2.1,1.21Z"/>
      <path class="st6" d="M748.82,91.33h-2.64v-1.49h-.05c-.42.58-.94,1.02-1.55,1.32s-1.29.45-2.04.45c-1.11,0-2.02-.32-2.72-.95s-1.06-1.46-1.06-2.48c0-1.1.35-1.99,1.06-2.65s1.72-1.08,3.04-1.22l3.33-.38v-.57c0-.74-.21-1.3-.62-1.67s-.96-.56-1.63-.56-1.22.15-1.68.45-.83.72-1.12,1.28l-2.04-1.04c.41-.8,1.05-1.46,1.92-1.98s1.91-.77,3.12-.77c1.52,0,2.67.4,3.47,1.19s1.2,1.94,1.2,3.45v7.64ZM746.2,86.45v-.66l-2.89.32c-.66.07-1.15.25-1.45.55s-.46.7-.46,1.2.17.92.52,1.24.8.47,1.35.47c.88,0,1.58-.29,2.12-.88s.81-1.33.81-2.23Z"/>
      <path class="st6" d="M751.91,91.33v-17.77h2.73v17.77h-2.73Z"/>
    </g>
    <g>
      <path class="st5" d="M540.19,124.61c-.41.86-1.03,1.57-1.87,2.13-.84.56-1.9.84-3.19.84-1.79,0-3.23-.58-4.34-1.74s-1.66-2.67-1.66-4.54c0-2.02.57-3.64,1.7-4.89s2.58-1.86,4.36-1.86c1.14,0,2.13.26,2.98.79.84.53,1.46,1.27,1.87,2.21l-1.27.54c-.36-.71-.84-1.25-1.44-1.62s-1.31-.56-2.14-.56c-1.31,0-2.39.49-3.24,1.46s-1.27,2.25-1.27,3.83c0,1.49.41,2.7,1.23,3.62s1.91,1.38,3.26,1.38c.93,0,1.69-.2,2.29-.61s1.08-.95,1.43-1.63l1.29.63Z"/>
      <path class="st5" d="M542.39,127.37v-13.32h1.44v13.32h-1.44Z"/>
      <path class="st5" d="M553.95,123.12h-6.5c0,1.11.26,1.93.79,2.44s1.16.77,1.89.77c.55,0,1.04-.13,1.46-.38.42-.25.77-.63,1.04-1.14l1.18.6c-.32.64-.79,1.17-1.43,1.57-.64.4-1.42.6-2.34.6-1.2,0-2.17-.4-2.94-1.19-.76-.79-1.15-1.95-1.15-3.49,0-1.37.39-2.5,1.16-3.4s1.76-1.35,2.97-1.35,2.17.37,2.85,1.11,1.01,1.77,1.01,3.1v.76ZM552.47,121.92c0-.78-.21-1.39-.64-1.84s-1.02-.67-1.77-.67-1.32.24-1.78.72-.73,1.08-.82,1.79h5.01Z"/>
      <path class="st5" d="M562.32,127.37h-1.44v-1.2h-.04c-.3.45-.69.8-1.16,1.04-.47.24-.98.36-1.54.36-.9,0-1.6-.24-2.11-.72s-.76-1.08-.76-1.8c0-.84.26-1.5.79-1.96s1.27-.75,2.21-.87l2.59-.3v-.57c0-.65-.17-1.14-.5-1.46-.34-.33-.8-.49-1.38-.49s-1.02.12-1.38.37-.64.6-.83,1.04l-1.26-.52c.29-.68.75-1.21,1.36-1.58.61-.38,1.34-.56,2.19-.56,1.05,0,1.85.28,2.41.84.56.56.84,1.34.84,2.35v6.02ZM560.88,123.71v-.62l-2.5.28c-.56.06-.97.22-1.23.48s-.4.59-.4,1.02c0,.46.15.83.46,1.11s.7.42,1.2.42c.74,0,1.33-.25,1.79-.76.45-.51.68-1.15.68-1.93Z"/>
      <path class="st5" d="M569.47,119.72c-.14-.06-.29-.12-.45-.16s-.34-.06-.54-.06c-.64,0-1.17.31-1.57.92s-.6,1.4-.6,2.36v4.59h-1.44v-9h1.44v1.64h.04c.21-.56.52-1,.94-1.32s.89-.48,1.42-.48c.24,0,.46.02.65.06s.41.12.66.23l-.54,1.22Z"/>
      <path class="st5" d="M577.09,126.28h-.04v5.23h-1.44v-13.14h1.44v1.37h.04c.38-.53.82-.92,1.34-1.19.52-.26,1.1-.4,1.75-.4,1.22,0,2.17.4,2.84,1.21s1.01,1.91,1.01,3.32-.37,2.63-1.1,3.54-1.73,1.36-3.01,1.36c-.6,0-1.14-.11-1.6-.33-.46-.22-.88-.54-1.23-.97ZM577.05,122.44v1.26c0,.73.25,1.35.76,1.87s1.16.77,1.94.77c.87,0,1.56-.33,2.05-.99.49-.66.74-1.53.74-2.59s-.23-1.93-.69-2.5-1.09-.84-1.88-.84c-.88,0-1.59.29-2.12.87-.54.58-.8,1.3-.8,2.17Z"/>
      <path class="st5" d="M590.76,119.72c-.14-.06-.29-.12-.45-.16s-.34-.06-.54-.06c-.64,0-1.17.31-1.57.92s-.6,1.4-.6,2.36v4.59h-1.44v-9h1.44v1.64h.04c.21-.56.52-1,.94-1.32s.89-.48,1.42-.48c.24,0,.46.02.65.06s.41.12.66.23l-.54,1.22Z"/>
      <path class="st5" d="M593.37,116.34c-.31,0-.56-.1-.76-.31s-.29-.45-.29-.73.1-.53.29-.73.45-.31.76-.31.56.1.76.31.29.45.29.73-.1.53-.29.73-.45.31-.76.31ZM594.07,127.37h-1.44v-9h1.44v9Z"/>
      <path class="st5" d="M603.97,118.37l-3.59,9h-1.42l-3.41-9h1.58l2.29,6.43c.06.19.12.34.15.45.04.11.09.27.14.45h.04c.06-.19.11-.35.15-.47s.09-.25.15-.4l2.39-6.47h1.52Z"/>
      <path class="st5" d="M611.85,127.37h-1.44v-1.2h-.04c-.3.45-.69.8-1.16,1.04-.47.24-.98.36-1.54.36-.9,0-1.6-.24-2.11-.72s-.76-1.08-.76-1.8c0-.84.26-1.5.79-1.96s1.27-.75,2.21-.87l2.59-.3v-.57c0-.65-.17-1.14-.5-1.46-.34-.33-.8-.49-1.38-.49s-1.02.12-1.38.37-.64.6-.83,1.04l-1.26-.52c.29-.68.75-1.21,1.36-1.58.61-.38,1.34-.56,2.19-.56,1.05,0,1.85.28,2.41.84.56.56.84,1.34.84,2.35v6.02ZM610.41,123.71v-.62l-2.5.28c-.56.06-.97.22-1.23.48s-.4.59-.4,1.02c0,.46.15.83.46,1.11s.7.42,1.2.42c.74,0,1.33-.25,1.79-.76.45-.51.68-1.15.68-1.93Z"/>
      <path class="st5" d="M619.07,126.8c-.26.26-.55.46-.87.58s-.69.18-1.12.18c-.71,0-1.26-.2-1.64-.59s-.58-.96-.58-1.7v-5.67h-1.55v-1.23h1.55v-2.13l1.44-.25v2.38h2.41v1.23h-2.41v5.55c0,.43.08.74.25.93s.42.29.77.29c.18,0,.34-.04.5-.11s.33-.21.51-.4l.74.94Z"/>
      <path class="st5" d="M628.19,123.12h-6.5c0,1.11.26,1.93.79,2.44s1.16.77,1.89.77c.55,0,1.04-.13,1.46-.38.42-.25.77-.63,1.04-1.14l1.18.6c-.32.64-.79,1.17-1.43,1.57-.64.4-1.42.6-2.34.6-1.2,0-2.17-.4-2.94-1.19-.76-.79-1.15-1.95-1.15-3.49,0-1.37.39-2.5,1.16-3.4s1.76-1.35,2.97-1.35,2.17.37,2.85,1.11,1.01,1.77,1.01,3.1v.76ZM626.71,121.92c0-.78-.21-1.39-.64-1.84s-1.02-.67-1.77-.67-1.32.24-1.78.72-.73,1.08-.82,1.79h5.01Z"/>
      <path class="st5" d="M638.27,127.58c-1.4,0-2.5-.42-3.29-1.25s-1.19-1.95-1.19-3.35.44-2.61,1.32-3.49,1.98-1.32,3.3-1.32,2.42.43,3.2,1.29c.79.86,1.18,1.99,1.18,3.39s-.41,2.48-1.22,3.39c-.81.91-1.92,1.36-3.31,1.36ZM638.35,126.33c.91,0,1.63-.3,2.17-.91.54-.61.8-1.45.8-2.54s-.27-1.87-.8-2.51c-.54-.64-1.26-.96-2.17-.96s-1.65.32-2.22.97c-.57.65-.86,1.49-.86,2.54,0,1.1.29,1.94.86,2.53.57.59,1.31.88,2.22.88Z"/>
      <path class="st5" d="M649.53,119.72c-.14-.06-.29-.12-.45-.16s-.34-.06-.54-.06c-.64,0-1.17.31-1.57.92s-.6,1.4-.6,2.36v4.59h-1.44v-9h1.44v1.64h.04c.21-.56.52-1,.94-1.32s.89-.48,1.42-.48c.24,0,.46.02.65.06s.41.12.66.23l-.54,1.22Z"/>
      <path class="st5" d="M663.14,127.37h-1.44v-5.34c0-.88-.17-1.54-.51-1.97s-.84-.65-1.52-.65c-.76,0-1.38.27-1.85.8s-.71,1.21-.71,2.03v5.12h-1.44v-13.32h1.44v5.61h.04c.34-.5.76-.87,1.25-1.12s1.06-.37,1.71-.37c.98,0,1.74.32,2.26.95s.78,1.55.78,2.76v5.5Z"/>
      <path class="st5" d="M673.2,118.37l-4.42,11.17c-.28.7-.65,1.22-1.12,1.56s-1,.51-1.63.51c-.31,0-.59-.03-.83-.08s-.5-.15-.75-.28l.56-1.15c.18.09.35.15.51.2.17.04.34.07.52.07.29,0,.55-.07.76-.22s.42-.45.61-.91l.79-1.87-3.52-8.98h1.6l2.36,6.5c.06.16.1.3.13.4s.07.24.11.43h.05c.04-.18.07-.33.11-.43.04-.11.09-.23.14-.38l2.49-6.51h1.49Z"/>
      <path class="st5" d="M676.19,126.28h-.04v1.09h-1.44v-13.32h1.44v5.7h.04c.33-.49.76-.88,1.28-1.16s1.11-.42,1.78-.42c1.22,0,2.17.4,2.86,1.21s1.03,1.91,1.03,3.32c0,1.48-.36,2.67-1.08,3.56s-1.73,1.34-3.02,1.34c-.63,0-1.18-.11-1.67-.34-.48-.23-.88-.55-1.17-.96ZM676.15,122.44v1.26c0,.73.25,1.35.75,1.87s1.15.77,1.96.77c.9,0,1.59-.32,2.07-.96.48-.64.72-1.51.72-2.63s-.23-1.9-.69-2.47c-.46-.58-1.09-.87-1.88-.87-.88,0-1.6.29-2.13.87-.54.58-.8,1.3-.8,2.17Z"/>
      <path class="st5" d="M689.86,119.72c-.14-.06-.29-.12-.45-.16s-.34-.06-.54-.06c-.64,0-1.17.31-1.57.92s-.6,1.4-.6,2.36v4.59h-1.44v-9h1.44v1.64h.04c.21-.56.52-1,.94-1.32s.89-.48,1.42-.48c.24,0,.46.02.65.06s.41.12.66.23l-.54,1.22Z"/>
      <path class="st5" d="M692.46,116.34c-.31,0-.56-.1-.76-.31s-.29-.45-.29-.73.1-.53.29-.73.45-.31.76-.31.56.1.76.31.29.45.29.73-.1.53-.29.73-.45.31-.76.31ZM693.17,127.37h-1.44v-9h1.44v9Z"/>
      <path class="st5" d="M702.23,126.05c-.33.5-.76.88-1.28,1.14-.52.26-1.09.39-1.73.39-1.26,0-2.23-.4-2.92-1.21-.69-.81-1.03-1.9-1.03-3.29,0-1.52.39-2.72,1.17-3.6s1.8-1.32,3.05-1.32c.61,0,1.15.11,1.62.33s.85.53,1.12.91h.04v-5.36h1.44v13.32h-1.44v-1.32h-.04ZM696.74,123.01c0,1.02.24,1.83.71,2.43s1.12.9,1.96.9c.88,0,1.57-.29,2.09-.86s.77-1.3.77-2.17v-1.33c0-.71-.25-1.32-.74-1.82-.5-.5-1.14-.75-1.92-.75-.87,0-1.57.31-2.08.92s-.77,1.51-.77,2.68Z"/>
      <path class="st5" d="M717.01,126.05c-.33.5-.76.88-1.28,1.14-.52.26-1.09.39-1.73.39-1.26,0-2.23-.4-2.92-1.21-.69-.81-1.03-1.9-1.03-3.29,0-1.52.39-2.72,1.17-3.6s1.8-1.32,3.05-1.32c.61,0,1.15.11,1.62.33s.85.53,1.12.91h.04v-5.36h1.44v13.32h-1.44v-1.32h-.04ZM711.53,123.01c0,1.02.24,1.83.71,2.43s1.12.9,1.96.9c.88,0,1.57-.29,2.09-.86s.77-1.3.77-2.17v-1.33c0-.71-.25-1.32-.74-1.82-.5-.5-1.14-.75-1.92-.75-.87,0-1.57.31-2.08.92s-.77,1.51-.77,2.68Z"/>
      <path class="st5" d="M725.83,119.72c-.14-.06-.29-.12-.45-.16s-.34-.06-.54-.06c-.64,0-1.17.31-1.57.92s-.6,1.4-.6,2.36v4.59h-1.44v-9h1.44v1.64h.04c.21-.56.52-1,.94-1.32s.89-.48,1.42-.48c.24,0,.46.02.65.06s.41.12.66.23l-.54,1.22Z"/>
      <path class="st5" d="M728.44,116.34c-.31,0-.56-.1-.76-.31s-.29-.45-.29-.73.1-.53.29-.73.45-.31.76-.31.56.1.76.31.29.45.29.73-.1.53-.29.73-.45.31-.76.31ZM729.14,127.37h-1.44v-9h1.44v9Z"/>
      <path class="st5" d="M739.04,118.37l-3.59,9h-1.42l-3.41-9h1.58l2.29,6.43c.06.19.12.34.15.45.04.11.09.27.14.45h.04c.06-.19.11-.35.15-.47s.09-.25.15-.4l2.39-6.47h1.52Z"/>
      <path class="st5" d="M747.92,123.12h-6.5c0,1.11.26,1.93.79,2.44s1.16.77,1.89.77c.55,0,1.04-.13,1.46-.38.42-.25.77-.63,1.04-1.14l1.18.6c-.32.64-.79,1.17-1.43,1.57-.64.4-1.42.6-2.34.6-1.2,0-2.17-.4-2.94-1.19-.76-.79-1.15-1.95-1.15-3.49,0-1.37.39-2.5,1.16-3.4s1.76-1.35,2.97-1.35,2.17.37,2.85,1.11,1.01,1.77,1.01,3.1v.76ZM746.45,121.92c0-.78-.21-1.39-.64-1.84s-1.02-.67-1.77-.67-1.32.24-1.78.72-.73,1.08-.82,1.79h5.01Z"/>
      <path class="st5" d="M754.53,119.72c-.14-.06-.29-.12-.45-.16s-.34-.06-.54-.06c-.64,0-1.17.31-1.57.92s-.6,1.4-.6,2.36v4.59h-1.44v-9h1.44v1.64h.04c.21-.56.52-1,.94-1.32s.89-.48,1.42-.48c.24,0,.46.02.65.06s.41.12.66.23l-.54,1.22Z"/>
      <path class="st5" d="M755.91,125.6l1.23-.54c.2.45.48.77.83.97s.79.3,1.31.3.9-.12,1.23-.37c.33-.25.49-.6.49-1.06,0-.35-.14-.65-.43-.91-.29-.25-.73-.45-1.34-.58-1.14-.25-1.91-.6-2.32-1.04-.41-.44-.61-.96-.61-1.56,0-.84.29-1.5.88-1.96.59-.46,1.29-.69,2.11-.69.66,0,1.26.14,1.8.41.54.28.94.7,1.2,1.27l-1.18.54c-.18-.33-.41-.58-.7-.74s-.68-.24-1.15-.24-.84.11-1.15.33-.47.53-.47.92c0,.37.13.65.38.85s.75.38,1.5.55c.98.22,1.7.55,2.15,1s.69,1.03.69,1.75c0,.88-.3,1.56-.91,2.04-.61.48-1.33.73-2.17.73s-1.59-.18-2.14-.54c-.55-.36-.96-.84-1.23-1.44Z"/>
    </g>
    <g>
      <path class="st5" d="M520.5,152.86c-1.78,0-3.22-.59-4.32-1.76s-1.65-2.71-1.65-4.6c0-2.01.57-3.62,1.71-4.84s2.63-1.82,4.48-1.82c1.73,0,3.13.58,4.2,1.74s1.6,2.7,1.6,4.61-.55,3.59-1.66,4.83-2.56,1.85-4.35,1.85ZM520.5,151.5c1.34,0,2.41-.47,3.23-1.42s1.23-2.17,1.23-3.69-.4-2.82-1.2-3.77-1.85-1.42-3.16-1.42-2.45.47-3.28,1.41c-.83.94-1.25,2.19-1.25,3.75s.41,2.77,1.23,3.71c.82.95,1.88,1.42,3.2,1.42Z"/>
      <path class="st5" d="M533.23,145c-.14-.06-.29-.12-.45-.16s-.34-.06-.54-.06c-.64,0-1.17.31-1.57.92s-.6,1.4-.6,2.36v4.59h-1.44v-9h1.44v1.64h.04c.21-.56.52-1,.94-1.32s.89-.48,1.42-.48c.24,0,.46.02.65.06s.41.12.66.23l-.54,1.22Z"/>
      <path class="st5" d="M542.97,152.32c0,1.49-.38,2.63-1.12,3.4s-1.78,1.16-3.1,1.16c-.86,0-1.63-.16-2.34-.47s-1.3-.79-1.78-1.42l1.13-.86c.39.53.82.91,1.31,1.16s1.05.36,1.69.36c.88,0,1.57-.25,2.05-.75s.72-1.27.72-2.3v-1.32h-.04c-.33.52-.73.91-1.2,1.18-.47.27-1.07.4-1.82.4-1.25,0-2.22-.4-2.9-1.2-.69-.8-1.03-1.9-1.03-3.3,0-1.52.39-2.72,1.16-3.6s1.8-1.32,3.06-1.32c.6,0,1.14.11,1.61.33s.84.53,1.12.91h.04v-1.04h1.44v8.67ZM541.53,148.58v-1.33c0-.71-.25-1.32-.75-1.82s-1.14-.75-1.92-.75c-.87,0-1.57.31-2.08.93s-.77,1.51-.77,2.68c0,1.03.24,1.84.72,2.43.48.59,1.12.89,1.93.89.89,0,1.59-.29,2.1-.86s.77-1.3.77-2.17Z"/>
      <path class="st5" d="M552.09,152.65h-1.44v-1.2h-.04c-.3.45-.69.8-1.16,1.04-.47.24-.98.36-1.54.36-.9,0-1.6-.24-2.11-.72s-.76-1.08-.76-1.8c0-.84.26-1.5.79-1.96s1.27-.75,2.21-.87l2.59-.3v-.57c0-.65-.17-1.14-.5-1.46-.34-.33-.8-.49-1.38-.49s-1.02.12-1.38.37-.64.6-.83,1.04l-1.26-.52c.29-.68.75-1.21,1.36-1.58.61-.38,1.34-.56,2.19-.56,1.05,0,1.85.28,2.41.84.56.56.84,1.34.84,2.35v6.02ZM550.65,148.99v-.62l-2.5.28c-.56.06-.97.22-1.23.48s-.4.59-.4,1.02c0,.46.15.83.46,1.11s.7.42,1.2.42c.74,0,1.33-.25,1.79-.76.45-.51.68-1.15.68-1.93Z"/>
      <path class="st5" d="M562.1,152.65h-1.44v-5.34c0-.88-.17-1.54-.51-1.97s-.85-.65-1.52-.65c-.76,0-1.38.27-1.85.8s-.71,1.21-.71,2.03v5.13h-1.44v-9h1.44v1.28h.04c.34-.5.76-.87,1.25-1.12s1.06-.37,1.71-.37c.98,0,1.74.32,2.26.95s.78,1.55.78,2.76v5.5Z"/>
      <path class="st5" d="M565.4,141.62c-.31,0-.56-.1-.76-.31s-.29-.45-.29-.73.1-.53.29-.73.45-.31.76-.31.56.1.76.31.29.45.29.73-.1.53-.29.73-.45.31-.76.31ZM566.11,152.65h-1.44v-9h1.44v9Z"/>
      <path class="st5" d="M574.58,144.53l-5.1,6.89h5.16v1.23h-6.99v-.95l5.04-6.82h-4.65v-1.23h6.53v.88Z"/>
      <path class="st5" d="M582.7,152.65h-1.44v-1.2h-.04c-.3.45-.69.8-1.16,1.04-.47.24-.98.36-1.54.36-.9,0-1.6-.24-2.11-.72s-.76-1.08-.76-1.8c0-.84.26-1.5.79-1.96s1.27-.75,2.21-.87l2.59-.3v-.57c0-.65-.17-1.14-.5-1.46-.34-.33-.8-.49-1.38-.49s-1.02.12-1.38.37-.64.6-.83,1.04l-1.26-.52c.29-.68.75-1.21,1.36-1.58.61-.38,1.34-.56,2.19-.56,1.05,0,1.85.28,2.41.84.56.56.84,1.34.84,2.35v6.02ZM581.26,148.99v-.62l-2.5.28c-.56.06-.97.22-1.23.48s-.4.59-.4,1.02c0,.46.15.83.46,1.11s.7.42,1.2.42c.74,0,1.33-.25,1.79-.76.45-.51.68-1.15.68-1.93Z"/>
      <path class="st5" d="M589.92,152.08c-.26.26-.55.46-.87.58s-.69.18-1.12.18c-.71,0-1.26-.2-1.64-.59s-.58-.96-.58-1.7v-5.67h-1.55v-1.23h1.55v-2.13l1.44-.25v2.38h2.41v1.23h-2.41v5.55c0,.43.08.74.25.93s.42.29.77.29c.18,0,.34-.04.5-.11s.33-.21.51-.4l.74.94Z"/>
      <path class="st5" d="M592.43,141.62c-.31,0-.56-.1-.76-.31s-.29-.45-.29-.73.1-.53.29-.73.45-.31.76-.31.56.1.76.31.29.45.29.73-.1.53-.29.73-.45.31-.76.31ZM593.13,152.65h-1.44v-9h1.44v9Z"/>
      <path class="st5" d="M599.71,152.86c-1.4,0-2.5-.42-3.29-1.25s-1.19-1.95-1.19-3.35.44-2.61,1.32-3.49,1.98-1.32,3.3-1.32,2.42.43,3.2,1.29c.79.86,1.18,1.99,1.18,3.39s-.41,2.48-1.22,3.39c-.81.91-1.92,1.36-3.31,1.36ZM599.79,151.61c.91,0,1.63-.3,2.17-.91.54-.61.8-1.45.8-2.54s-.27-1.87-.8-2.51c-.54-.64-1.26-.96-2.17-.96s-1.65.32-2.22.97c-.57.65-.86,1.49-.86,2.54,0,1.1.29,1.94.86,2.53.57.59,1.31.88,2.22.88Z"/>
      <path class="st5" d="M613.83,152.65h-1.44v-5.34c0-.88-.17-1.54-.51-1.97s-.85-.65-1.52-.65c-.76,0-1.38.27-1.85.8s-.71,1.21-.71,2.03v5.13h-1.44v-9h1.44v1.28h.04c.34-.5.76-.87,1.25-1.12s1.06-.37,1.71-.37c.98,0,1.74.32,2.26.95s.78,1.55.78,2.76v5.5Z"/>
      <path class="st5" d="M625.2,145c-.14-.06-.29-.12-.45-.16s-.34-.06-.54-.06c-.64,0-1.17.31-1.57.92s-.6,1.4-.6,2.36v4.59h-1.44v-9h1.44v1.64h.04c.21-.56.52-1,.94-1.32s.89-.48,1.42-.48c.24,0,.46.02.65.06s.41.12.66.23l-.54,1.22Z"/>
      <path class="st5" d="M634.49,148.4h-6.5c0,1.11.26,1.93.79,2.44s1.16.77,1.89.77c.55,0,1.04-.13,1.46-.38.42-.25.77-.63,1.04-1.14l1.18.6c-.32.64-.79,1.17-1.43,1.57-.64.4-1.42.6-2.34.6-1.2,0-2.17-.4-2.94-1.19-.76-.79-1.15-1.95-1.15-3.49,0-1.37.39-2.5,1.16-3.4s1.76-1.35,2.97-1.35,2.17.37,2.85,1.11,1.01,1.77,1.01,3.1v.76ZM633.02,147.2c0-.78-.21-1.39-.64-1.84s-1.02-.67-1.77-.67-1.32.24-1.78.72-.73,1.08-.82,1.79h5.01Z"/>
      <path class="st5" d="M642.87,152.65h-1.44v-1.2h-.04c-.3.45-.69.8-1.16,1.04-.47.24-.98.36-1.54.36-.9,0-1.6-.24-2.11-.72s-.76-1.08-.76-1.8c0-.84.26-1.5.79-1.96s1.27-.75,2.21-.87l2.59-.3v-.57c0-.65-.17-1.14-.5-1.46-.34-.33-.8-.49-1.38-.49s-1.02.12-1.38.37-.64.6-.83,1.04l-1.26-.52c.29-.68.75-1.21,1.36-1.58.61-.38,1.34-.56,2.19-.56,1.05,0,1.85.28,2.41.84.56.56.84,1.34.84,2.35v6.02ZM641.43,148.99v-.62l-2.5.28c-.56.06-.97.22-1.23.48s-.4.59-.4,1.02c0,.46.15.83.46,1.11s.7.42,1.2.42c.74,0,1.33-.25,1.79-.76.45-.51.68-1.15.68-1.93Z"/>
      <path class="st5" d="M651.76,151.33c-.33.5-.76.88-1.28,1.14-.52.26-1.09.39-1.73.39-1.26,0-2.23-.4-2.92-1.21-.69-.81-1.03-1.9-1.03-3.29,0-1.52.39-2.72,1.17-3.6s1.8-1.32,3.05-1.32c.61,0,1.15.11,1.62.33s.85.53,1.12.91h.04v-5.36h1.44v13.32h-1.44v-1.32h-.04ZM646.27,148.29c0,1.02.24,1.83.71,2.43s1.12.9,1.96.9c.88,0,1.57-.29,2.09-.86s.77-1.3.77-2.17v-1.33c0-.71-.25-1.32-.74-1.82-.5-.5-1.14-.75-1.92-.75-.87,0-1.57.31-2.08.92s-.77,1.51-.77,2.68Z"/>
      <path class="st5" d="M663.49,143.65l-4.42,11.17c-.28.7-.65,1.22-1.12,1.56s-1,.51-1.63.51c-.31,0-.59-.03-.83-.08s-.5-.15-.75-.28l.56-1.15c.18.09.35.15.51.2.17.04.34.07.52.07.29,0,.55-.07.76-.22s.42-.45.61-.91l.79-1.87-3.52-8.98h1.6l2.36,6.5c.06.16.1.3.13.4s.07.24.11.43h.05c.04-.18.07-.33.11-.43.04-.11.09-.23.14-.38l2.49-6.51h1.49Z"/>
      <path class="st5" d="M673.57,140.63c-.13-.08-.27-.14-.43-.19s-.34-.08-.55-.08c-.45,0-.8.14-1.04.41s-.36.68-.36,1.21v1.68h2.11v1.23h-2.11v7.77h-1.43v-7.77h-1.54v-1.23h1.54v-1.75c0-.81.26-1.47.77-1.99s1.21-.78,2.08-.78c.28,0,.55.03.83.1.28.07.54.17.79.31l-.67,1.08Z"/>
      <path class="st5" d="M678.69,152.86c-1.4,0-2.5-.42-3.29-1.25s-1.19-1.95-1.19-3.35.44-2.61,1.32-3.49,1.98-1.32,3.3-1.32,2.42.43,3.2,1.29c.79.86,1.18,1.99,1.18,3.39s-.41,2.48-1.22,3.39c-.81.91-1.92,1.36-3.31,1.36ZM678.77,151.61c.91,0,1.63-.3,2.17-.91.54-.61.8-1.45.8-2.54s-.27-1.87-.8-2.51c-.54-.64-1.26-.96-2.17-.96s-1.65.32-2.22.97c-.57.65-.86,1.49-.86,2.54,0,1.1.29,1.94.86,2.53.57.59,1.31.88,2.22.88Z"/>
      <path class="st5" d="M689.95,145c-.14-.06-.29-.12-.45-.16s-.34-.06-.54-.06c-.64,0-1.17.31-1.57.92s-.6,1.4-.6,2.36v4.59h-1.44v-9h1.44v1.64h.04c.21-.56.52-1,.94-1.32s.89-.48,1.42-.48c.24,0,.46.02.65.06s.41.12.66.23l-.54,1.22Z"/>
      <path class="st5" d="M702.44,151.33c-.33.5-.76.88-1.28,1.14-.52.26-1.09.39-1.73.39-1.26,0-2.23-.4-2.92-1.21-.69-.81-1.03-1.9-1.03-3.29,0-1.52.39-2.72,1.17-3.6s1.8-1.32,3.05-1.32c.61,0,1.15.11,1.62.33s.85.53,1.12.91h.04v-5.36h1.44v13.32h-1.44v-1.32h-.04ZM696.96,148.29c0,1.02.24,1.83.71,2.43s1.12.9,1.96.9c.88,0,1.57-.29,2.09-.86s.77-1.3.77-2.17v-1.33c0-.71-.25-1.32-.74-1.82-.5-.5-1.14-.75-1.92-.75-.87,0-1.57.31-2.08.92s-.77,1.51-.77,2.68Z"/>
      <path class="st5" d="M707.43,141.62c-.31,0-.56-.1-.76-.31s-.29-.45-.29-.73.1-.53.29-.73.45-.31.76-.31.56.1.76.31.29.45.29.73-.1.53-.29.73-.45.31-.76.31ZM708.13,152.65h-1.44v-9h1.44v9Z"/>
      <path class="st5" d="M710.3,150.88l1.23-.54c.2.45.48.77.83.97s.79.3,1.31.3.9-.12,1.23-.37c.33-.25.49-.6.49-1.06,0-.35-.14-.65-.43-.91-.29-.25-.73-.45-1.34-.58-1.14-.25-1.91-.6-2.32-1.04-.41-.44-.61-.96-.61-1.56,0-.84.29-1.5.88-1.96.59-.46,1.29-.69,2.11-.69.66,0,1.26.14,1.8.41.54.28.94.7,1.2,1.27l-1.18.54c-.18-.33-.41-.58-.7-.74s-.68-.24-1.15-.24-.84.11-1.15.33-.47.53-.47.92c0,.37.13.65.38.85s.75.38,1.5.55c.98.22,1.7.55,2.15,1s.69,1.03.69,1.75c0,.88-.3,1.56-.91,2.04-.61.48-1.33.73-2.17.73s-1.59-.18-2.14-.54c-.55-.36-.96-.84-1.23-1.44Z"/>
      <path class="st5" d="M726.26,151.3c-.4.54-.88.93-1.46,1.18s-1.19.37-1.85.37c-1.46,0-2.59-.42-3.41-1.26s-1.22-1.95-1.22-3.33c0-1.49.42-2.67,1.26-3.53s1.92-1.29,3.26-1.29c.7,0,1.34.13,1.92.39s1.08.65,1.48,1.18l-1.07.79c-.36-.42-.73-.71-1.11-.87-.38-.16-.8-.24-1.27-.24-.87,0-1.59.32-2.15.96-.56.64-.84,1.48-.84,2.51s.28,1.88.85,2.5,1.34.94,2.33.94c.39,0,.77-.08,1.16-.24s.73-.45,1.03-.86l1.07.79Z"/>
      <path class="st5" d="M735.52,152.65h-1.44v-1.28h-.04c-.3.46-.69.83-1.18,1.09-.49.27-1.02.4-1.6.4-1.06,0-1.86-.31-2.4-.92s-.81-1.54-.81-2.79v-5.5h1.43v5.34c0,.93.16,1.59.49,2s.86.62,1.59.62,1.35-.27,1.81-.8c.47-.54.7-1.21.7-2.02v-5.14h1.44v9Z"/>
      <path class="st5" d="M737.71,150.88l1.23-.54c.2.45.48.77.83.97s.79.3,1.31.3.9-.12,1.23-.37c.33-.25.49-.6.49-1.06,0-.35-.14-.65-.43-.91-.29-.25-.73-.45-1.34-.58-1.14-.25-1.91-.6-2.32-1.04-.41-.44-.61-.96-.61-1.56,0-.84.29-1.5.88-1.96.59-.46,1.29-.69,2.11-.69.66,0,1.26.14,1.8.41.54.28.94.7,1.2,1.27l-1.18.54c-.18-.33-.41-.58-.7-.74s-.68-.24-1.15-.24-.84.11-1.15.33-.47.53-.47.92c0,.37.13.65.38.85s.75.38,1.5.55c.98.22,1.7.55,2.15,1s.69,1.03.69,1.75c0,.88-.3,1.56-.91,2.04-.61.48-1.33.73-2.17.73s-1.59-.18-2.14-.54c-.55-.36-.96-.84-1.23-1.44Z"/>
      <path class="st5" d="M745.82,150.88l1.23-.54c.2.45.48.77.83.97s.79.3,1.31.3.9-.12,1.23-.37c.33-.25.49-.6.49-1.06,0-.35-.14-.65-.43-.91-.29-.25-.73-.45-1.34-.58-1.14-.25-1.91-.6-2.32-1.04-.41-.44-.61-.96-.61-1.56,0-.84.29-1.5.88-1.96.59-.46,1.29-.69,2.11-.69.66,0,1.26.14,1.8.41.54.28.94.7,1.2,1.27l-1.18.54c-.18-.33-.41-.58-.7-.74s-.68-.24-1.15-.24-.84.11-1.15.33-.47.53-.47.92c0,.37.13.65.38.85s.75.38,1.5.55c.98.22,1.7.55,2.15,1s.69,1.03.69,1.75c0,.88-.3,1.56-.91,2.04-.61.48-1.33.73-2.17.73s-1.59-.18-2.14-.54c-.55-.36-.96-.84-1.23-1.44Z"/>
      <path class="st5" d="M755.23,141.62c-.31,0-.56-.1-.76-.31s-.29-.45-.29-.73.1-.53.29-.73.45-.31.76-.31.56.1.76.31.29.45.29.73-.1.53-.29.73-.45.31-.76.31ZM755.93,152.65h-1.44v-9h1.44v9Z"/>
      <path class="st5" d="M762.51,152.86c-1.4,0-2.5-.42-3.29-1.25s-1.19-1.95-1.19-3.35.44-2.61,1.32-3.49,1.98-1.32,3.3-1.32,2.42.43,3.2,1.29c.79.86,1.18,1.99,1.18,3.39s-.41,2.48-1.22,3.39c-.81.91-1.92,1.36-3.31,1.36ZM762.59,151.61c.91,0,1.63-.3,2.17-.91.54-.61.8-1.45.8-2.54s-.27-1.87-.8-2.51c-.54-.64-1.26-.96-2.17-.96s-1.65.32-2.22.97c-.57.65-.86,1.49-.86,2.54,0,1.1.29,1.94.86,2.53.57.59,1.31.88,2.22.88Z"/>
      <path class="st5" d="M776.63,152.65h-1.44v-5.34c0-.88-.17-1.54-.51-1.97s-.85-.65-1.52-.65c-.76,0-1.38.27-1.85.8s-.71,1.21-.71,2.03v5.13h-1.44v-9h1.44v1.28h.04c.34-.5.76-.87,1.25-1.12s1.06-.37,1.71-.37c.98,0,1.74.32,2.26.95s.78,1.55.78,2.76v5.5Z"/>
    </g>
  </g>
</svg>