<svg width="96" height="96" xmlns="http://www.w3.org/2000/svg" xmlns:xlink="http://www.w3.org/1999/xlink" overflow="hidden"><defs><clipPath id="clip0"><rect x="812" y="214" width="96" height="96"/></clipPath></defs><g clip-path="url(#clip0)" transform="translate(-812 -214)"><path d="M847.931 258.728 846.517 260.142 856.782 270.408 874.483 252.707 873.069 251.293 856.782 267.58 847.931 258.728Z"/><path d="M890.532 235.9C879.915 235.042 870.02 230.18 862.853 222.3 861.5 220.731 859.132 220.556 857.563 221.908 857.423 222.029 857.292 222.16 857.171 222.3 850.005 230.18 840.108 235.037 829.491 235.887 827.516 236.078 826.014 237.746 826.03 239.73L826.03 249.413C826.03 270.476 839.385 289.742 857.921 301.663 859.193 302.486 860.83 302.486 862.102 301.663 880.639 289.742 893.993 270.486 893.993 249.423L893.993 239.742C894.012 237.757 892.508 236.087 890.532 235.9ZM891.993 249.426C891.993 268.611 880.415 287.511 861.021 299.983 860.408 300.382 859.616 300.382 859.003 299.983 839.609 287.51 828.03 268.606 828.03 249.415L828.03 239.732C828.012 238.789 828.715 237.988 829.652 237.882 840.778 237.001 851.149 231.911 858.652 223.648 858.992 223.249 859.485 223.014 860.008 223 860.534 223.014 861.03 223.249 861.374 223.648 868.878 231.91 879.248 237.003 890.374 237.892 891.312 237.997 892.015 238.799 891.997 239.742Z"/><path d="M834.03 243.4 834.03 249.418C834.03 265.823 843.693 282.118 860.012 293.445 876.33 282.112 885.993 265.823 885.993 249.425L885.993 243.4C876.276 241.854 867.235 237.465 860.011 230.786 852.788 237.467 843.747 241.857 834.03 243.4ZM883.993 249.428C883.993 264.658 875.055 280.107 860.012 290.993 844.969 280.1 836.03 264.652 836.03 249.415L836.03 245.075C844.901 243.369 853.17 239.366 860.01 233.466 866.852 239.367 875.121 243.372 883.993 245.081Z"/></g></svg>