<svg width="160" height="188" viewBox="0 0 160 188" fill="none" xmlns="http://www.w3.org/2000/svg">
<g clip-path="url(#clip0)">
<path d="M79.6779 188C82.7592 187.994 85.7796 187.141 88.4083 185.534L150.384 147.874C153.165 146.11 155.449 143.665 157.019 140.771C158.589 137.876 159.394 134.628 159.356 131.336V56.6207C159.392 53.3283 158.587 50.0812 157.017 47.1871C155.447 44.2929 153.163 41.8476 150.384 40.0829L88.4083 2.4228C85.7749 0.837605 82.7592 0 79.6855 0C76.6118 0 73.5961 0.837605 70.9627 2.4228L8.9876 40.098C6.2045 41.8604 3.91796 44.3048 2.34499 47.1991C0.772021 50.0935 -0.0351786 53.3418 4.1431e-06 56.6358V131.336C-0.0185283 134.119 0.556189 136.874 1.68588 139.418C2.81557 141.962 4.4743 144.236 6.5516 146.089V146.115L70.9627 185.549C73.5884 187.149 76.6032 187.996 79.6779 188V188ZM80.3257 6.95218C82.2776 6.95218 84.7548 8.1651 86.4646 9.20912L147.222 46.4034C150.974 48.6881 153.09 55.2842 153.09 60.0352L152.458 131.336C152.458 136.087 149.259 140.355 145.506 142.64L85.1104 179.021C81.6758 181.109 78.8854 181.109 75.4507 179.021L14.2427 142.549C10.4903 140.265 7.47191 136.072 7.47191 131.336V57.688C7.50442 55.3228 8.11341 53.0013 9.24608 50.9247C10.3787 48.8482 12.0009 47.0792 13.9718 45.7714L74.548 9.20912C76.2577 8.1651 78.3739 6.95218 80.3257 6.95218Z" fill="#F2F1F0"/>
<path fill-rule="evenodd" clip-rule="evenodd" d="M87.5765 10.5328C85.2056 9.05922 82.4697 8.27832 79.6783 8.27832C76.8868 8.27832 74.1509 9.05922 71.7801 10.5328L15.6454 44.8642C13.1193 46.4758 11.047 48.7062 9.625 51.3436C8.203 53.9811 7.47851 56.9382 7.52026 59.9343V128.037C7.48034 131.033 8.20562 133.99 9.62745 136.627C11.0493 139.264 13.1206 141.494 15.6454 143.107L71.7801 177.438C74.1508 178.912 76.8867 179.693 79.6783 179.693C82.4698 179.693 85.2057 178.912 87.5765 177.438L143.711 143.107C146.236 141.495 148.307 139.264 149.729 136.627C151.151 133.99 151.877 131.033 151.837 128.037V59.9343C151.875 56.9387 151.149 53.9829 149.727 51.346C148.305 48.7092 146.234 46.4783 143.711 44.8642L87.5765 10.5328Z" fill="url(#paint0_linear)"/>
<path fill-rule="evenodd" clip-rule="evenodd" d="M79.6783 9.75438C81.3615 9.75438 83.2442 10.6201 85.311 11.8782L143.777 47.4206C145.668 48.634 147.218 50.3109 148.278 52.2919C149.339 54.273 149.875 56.4923 149.837 58.7391V129.218C149.875 131.464 149.339 133.684 148.278 135.665C147.218 137.645 145.668 139.322 143.777 140.536L85.312 176.078L85.311 176.079C83.6408 177.218 81.6958 177.889 79.6783 178.022C77.6609 177.889 75.7158 177.218 74.0456 176.079L74.0446 176.078L15.5823 140.538L15.5801 140.537C13.7918 139.573 12.2668 138.186 11.1383 136.497C10.1614 134.894 9.52031 132.679 9.52031 129.218V58.7391C9.48157 56.4924 10.018 54.2731 11.0785 52.2921C12.139 50.3111 13.6885 48.6341 15.5797 47.4206L74.0365 11.8836L74.0406 11.8812C76.1244 10.6282 77.9846 9.75438 79.6783 9.75438ZM87.3908 8.46138L145.855 44.0026C148.333 45.5727 150.368 47.7515 151.765 50.3312C153.162 52.9109 153.876 55.8056 153.837 58.7391V129.218C153.876 132.151 153.162 135.046 151.765 137.626C150.368 140.206 148.333 142.384 145.855 143.955L87.3898 179.496C85.0956 181.021 82.4302 181.894 79.6783 182.022C76.9264 181.894 74.261 181.021 71.9667 179.496H71.9658L13.502 143.954L13.4995 143.953C11.1642 142.66 9.18097 140.815 7.72281 138.579C6.12823 135.725 5.36521 132.482 5.52031 129.218V58.7391C5.48125 55.8055 6.19436 52.9108 7.59165 50.331C8.98894 47.7513 11.0238 45.5725 13.5022 44.0025L71.9667 8.46073L71.9749 8.45585C74.0655 7.19844 76.7734 5.75439 79.6783 5.75439C82.5645 5.75439 85.2816 7.17747 87.3908 8.46133V8.46138Z" fill="#0078D4"/>
<path opacity="0.2" d="M139.959 132.026L80.409 166.633L20.47 132.027L80.02 97.4199L139.959 132.026Z" fill="#003067"/>
<path d="M140.601 120.649L79.878 155.937L18.767 120.654L79.489 85.3662L140.601 120.649Z" fill="#1B93EB"/>
<path d="M140.601 120.649L140.589 124.755L79.8669 160.043L79.8779 155.937L140.601 120.649Z" fill="#1F56A3"/>
<path d="M79.878 155.937L79.867 160.043L18.755 124.76L18.767 120.654L79.878 155.937Z" fill="#0078D4"/>
<path d="M85.3148 69.9694L84.2169 69.3355L78.9084 66.2705L78.8206 97.219C78.8358 97.4962 78.9161 97.766 79.0549 98.0064C79.1937 98.2468 79.3871 98.4512 79.6196 98.603L84.1266 101.205V101.205L85.2245 101.839V101.839L118.391 120.988C118.831 121.242 119.194 121.036 119.195 120.529L119.283 89.581L85.3148 69.9694Z" fill="white"/>
<path d="M118.495 84.2796C118.727 84.4314 118.921 84.6358 119.06 84.8762C119.199 85.1167 119.279 85.3865 119.294 85.6637L119.283 89.581L78.9083 66.2707L78.9194 62.3534C78.9209 61.8471 79.2759 61.6364 79.7237 61.8949L118.495 84.2796ZM82.0173 66.9185C82.5806 67.2437 83.0444 66.9877 83.0463 66.3321C83.0266 65.9786 82.9238 65.6347 82.7462 65.3285C82.5685 65.0223 82.3211 64.7623 82.024 64.5697C81.4606 64.2444 80.9969 64.5004 80.995 65.1561C81.0116 65.5103 81.1131 65.8553 81.291 66.162C81.469 66.4688 81.7181 66.7282 82.0173 66.9185" fill="#0078D4"/>
<path d="M82.0239 64.5695C82.321 64.762 82.5684 65.022 82.7461 65.3283C82.9237 65.6345 83.0266 65.9784 83.0462 66.3319C83.0444 66.9875 82.5806 67.2435 82.0172 66.9182C81.718 66.728 81.469 66.4685 81.291 66.1618C81.1131 65.8551 81.0116 65.5101 80.995 65.1559C80.9968 64.5002 81.4605 64.2442 82.0239 64.5695Z" fill="#50E6FF"/>
<path d="M119.283 89.581L119.195 120.529C119.205 120.628 119.188 120.727 119.147 120.818C119.106 120.908 119.041 120.985 118.96 121.042L120.555 120.115C120.636 120.058 120.7 119.981 120.742 119.891C120.783 119.801 120.8 119.701 120.79 119.603L120.878 88.6543L119.283 89.581Z" fill="#E8E8E8"/>
<path d="M120.09 83.3529L81.3183 60.9683C81.2369 60.9089 81.1411 60.8722 81.0408 60.8622C80.9405 60.8522 80.8394 60.8691 80.7478 60.9113L79.1532 61.8381C79.2447 61.7958 79.3459 61.7789 79.4462 61.7889C79.5465 61.7989 79.6423 61.8356 79.7237 61.8951L118.495 84.2797C118.727 84.4315 118.921 84.6359 119.06 84.8763C119.199 85.1168 119.279 85.3865 119.294 85.6638L119.283 89.5811L120.878 88.6544L120.889 84.7371C120.874 84.4599 120.793 84.1901 120.654 83.9496C120.516 83.7091 120.322 83.5047 120.09 83.3529V83.3529Z" fill="#1F56A3"/>
<path d="M96.044 93.5784C95.851 93.2331 95.6936 92.8692 95.5742 92.4921C95.4528 92.1433 95.3945 91.7758 95.4021 91.4066C95.3906 91.1021 95.4516 90.7994 95.5798 90.523C95.6718 90.2993 95.8316 90.11 96.0368 89.9818C96.2556 89.87 96.502 89.8236 96.7465 89.8482C97.0305 89.8735 97.305 89.9629 97.5495 90.1096L97.6038 90.1419C97.9217 90.3306 98.2102 90.5649 98.4599 90.8375C99.0012 91.4117 99.4011 92.1043 99.6277 92.8601C99.7445 93.21 99.8027 93.5767 99.7997 93.9455C99.8053 94.2495 99.7447 94.551 99.6221 94.8292C99.5242 95.0532 99.3621 95.2432 99.1565 95.3753C98.9404 95.495 98.6915 95.5418 98.4467 95.509C98.1434 95.4727 97.8512 95.3726 97.5894 95.2153C97.2719 95.026 96.9835 94.7917 96.7332 94.5197C96.4678 94.2336 96.2365 93.9178 96.044 93.5784V93.5784Z" fill="#F2F2F2"/>
<path d="M109.193 98.1913C109.365 98.6126 109.453 99.0633 109.452 99.5182C109.461 99.8755 109.376 100.229 109.204 100.542C109.043 100.807 108.812 101.022 108.536 101.163C108.242 101.311 107.925 101.41 107.599 101.457C107.246 101.517 106.887 101.536 106.53 101.514C106.167 101.508 105.804 101.477 105.444 101.421C105.123 101.384 104.804 101.324 104.49 101.242C104.611 101.876 104.697 102.489 104.765 103.082C104.833 103.662 104.866 104.246 104.866 104.83C104.865 105.297 104.828 105.764 104.757 106.226C104.707 106.62 104.572 106.999 104.359 107.335C104.183 107.616 103.902 107.816 103.578 107.89C103.158 107.94 102.735 107.832 102.39 107.587C101.892 107.295 101.436 106.937 101.034 106.522C100.574 106.059 100.146 105.566 99.7508 105.047C99.3408 104.508 98.9482 103.969 98.5733 103.411C98.207 102.867 97.8757 102.334 97.5707 101.836C97.2501 102.004 96.9157 102.144 96.5712 102.255C96.1873 102.396 95.7866 102.486 95.3794 102.523C94.9514 102.574 94.5185 102.568 94.0922 102.504C93.6371 102.429 93.1988 102.275 92.7974 102.048C92.3119 101.773 91.8894 101.398 91.557 100.95C91.2395 100.506 90.9791 100.025 90.7817 99.516C90.5903 99.0076 90.4624 98.4775 90.4008 97.9377C90.3343 97.431 90.2948 96.9212 90.2826 96.4103C90.2829 95.8661 90.3195 95.3225 90.3923 94.7831C90.4638 94.271 90.5616 93.7639 90.6767 93.2669C90.3885 93.0099 90.0742 92.6977 89.7249 92.3451C89.3843 91.9975 89.0264 91.6198 88.651 91.2118C88.2843 90.7989 87.9265 90.371 87.5775 89.9078C87.2433 89.4697 86.9347 89.0126 86.6531 88.5389C86.3911 88.0967 86.1724 87.6301 86.0003 87.1457C85.8394 86.7269 85.7547 86.2826 85.7501 85.834C85.7357 85.473 85.8216 85.115 85.9982 84.7999C86.1517 84.5337 86.381 84.3193 86.6568 84.1839C86.9526 84.0389 87.2689 83.9398 87.5946 83.8902C87.948 83.835 88.3056 83.8124 88.6631 83.8228C89.0221 83.8389 89.3898 83.8701 89.7488 83.9163C90.0695 83.9598 90.3879 84.0194 90.7028 84.0948C90.5908 83.4766 90.4962 82.8586 90.4278 82.2556C90.3601 81.6753 90.3266 81.0915 90.3276 80.5072C90.3283 80.0431 90.3647 79.5797 90.4366 79.1212C90.4875 78.724 90.623 78.3424 90.8338 78.0021C91.0177 77.7299 91.296 77.5356 91.6148 77.4568C92.0382 77.4089 92.4644 77.5187 92.812 77.7651C93.3048 78.0551 93.7577 78.4081 94.1593 78.8151C94.6165 79.2804 95.045 79.7731 95.4424 80.2905C95.8612 80.8342 96.2537 81.3828 96.6199 81.9364C96.9862 82.4799 97.3262 83.0184 97.6225 83.5215C97.9465 83.3608 98.2803 83.2208 98.622 83.1023C99.0074 82.9626 99.4071 82.866 99.8138 82.8143C100.242 82.7586 100.676 82.7683 101.101 82.8431C101.559 82.9194 102 83.0753 102.404 83.3038C102.889 83.5757 103.309 83.9486 103.636 84.3973C103.958 84.8382 104.219 85.3205 104.412 85.8311C104.602 86.342 104.733 86.8734 104.801 87.4145C104.865 87.9162 104.902 88.421 104.911 88.9267C104.911 89.471 104.874 90.0146 104.801 90.5539C104.735 91.0643 104.64 91.5706 104.516 92.0701C104.796 92.3321 105.11 92.6344 105.468 92.992C105.826 93.3497 106.184 93.7274 106.542 94.1353C106.909 94.5381 107.267 94.9762 107.616 95.4292C107.953 95.8685 108.262 96.3292 108.54 96.8083C108.797 97.2497 109.015 97.7124 109.193 98.1913ZM93.2951 90.1901C93.903 92.0103 94.6159 93.8507 95.4337 95.7115C95.7921 95.9587 96.1504 96.1857 96.5088 96.4027C96.8673 96.6197 97.2257 96.8267 97.5842 97.0437C97.9513 97.2557 98.3098 97.4626 98.6595 97.6544C99.018 97.8514 99.3766 98.0282 99.7352 98.195C100.57 97.268 101.298 96.2507 101.907 95.1621C101.577 94.2168 101.246 93.2916 100.899 92.3965C100.56 91.4965 100.177 90.5711 99.7594 89.6356C99.4011 89.3985 99.0426 89.1715 98.6842 88.9444C98.3346 88.7224 97.9762 88.5054 97.609 88.2934C97.2505 88.0865 96.892 87.8896 96.5335 87.7027C96.175 87.5158 95.8166 87.329 95.458 87.1522C95.0479 87.6024 94.6663 88.0777 94.3155 88.5755C93.9726 89.0819 93.6295 89.6184 93.2951 90.1901V90.1901ZM108.103 99.5546C108.258 99.3631 108.343 99.1237 108.342 98.8772C108.331 98.5476 108.251 98.224 108.108 97.9271C107.941 97.5556 107.746 97.1974 107.524 96.8556C107.272 96.4712 106.998 96.1015 106.704 95.7482C106.39 95.3655 106.084 95.0181 105.787 94.6958C105.491 94.3735 105.194 94.0713 104.923 93.7942C104.644 93.5222 104.417 93.3005 104.242 93.1392C104.083 93.621 103.915 94.0977 103.721 94.5392C103.536 94.9959 103.333 95.4323 103.122 95.8637C103.33 96.5374 103.53 97.206 103.712 97.8645C103.903 98.5382 104.067 99.1967 104.223 99.8702C104.407 99.916 104.634 99.9568 104.905 100.013C105.192 100.062 105.482 100.095 105.772 100.111C106.079 100.127 106.385 100.122 106.692 100.108C106.972 100.088 107.249 100.031 107.515 99.9397C107.74 99.8619 107.942 99.7296 108.103 99.5547L108.103 99.5546ZM90.96 92.2129C91.1103 91.716 91.2868 91.2544 91.472 90.7979C91.6571 90.3513 91.8598 89.9149 92.0799 89.4885C91.8629 88.8098 91.6634 88.1411 91.4814 87.4726C91.2994 86.814 91.1261 86.1404 90.9791 85.482C90.7953 85.4363 90.5678 85.3955 90.2964 85.3394C90.0128 85.2897 89.7262 85.2587 89.4385 85.2466C89.1323 85.2273 88.8251 85.2282 88.519 85.2491C88.238 85.2594 87.9602 85.3128 87.6954 85.4075C87.4697 85.4936 87.2637 85.6246 87.0901 85.7926C87.008 85.8851 86.9454 85.9932 86.9059 86.1105C86.8665 86.2277 86.851 86.3517 86.8605 86.475C86.868 86.7998 86.9416 87.1196 87.0767 87.4151C87.2414 87.7845 87.4367 88.1396 87.6604 88.4765C87.9133 88.854 88.1837 89.2315 88.4804 89.594C88.7859 89.9615 89.0913 90.319 89.3969 90.6464C89.7025 90.9738 89.9906 91.2709 90.2614 91.5379C90.532 91.815 90.7678 92.0416 90.96 92.2129L90.96 92.2129ZM91.4754 80.2845C91.4483 80.6109 91.4299 80.9022 91.4292 81.1735C91.4303 81.6989 91.461 82.2239 91.521 82.746C91.5808 83.2836 91.658 83.8313 91.7528 84.3791C92.2691 84.5363 92.7765 84.7085 93.2925 84.9159C93.8174 85.1183 94.3423 85.3409 94.8669 85.5934C95.1743 85.2879 95.4817 84.9823 95.7976 84.7119C96.1215 84.4337 96.4679 84.1826 96.8331 83.9614C96.6065 83.5789 96.3275 83.1462 96.0137 82.6631C95.6998 82.18 95.3684 81.7069 95.0106 81.2388C94.6528 80.7806 94.295 80.3527 93.9109 79.9397C93.6191 79.614 93.2825 79.3314 92.9114 79.1003L92.8625 79.0728C92.7578 78.9901 92.6342 78.9347 92.5029 78.9115C92.3715 78.8883 92.2364 78.8982 92.1098 78.9401C91.9111 79.048 91.7582 79.2242 91.6793 79.4362C91.5671 79.7065 91.4983 79.9928 91.4754 80.2845V80.2845ZM99.231 84.5206C98.9066 84.6453 98.6348 84.76 98.4068 84.8699C98.7728 85.5139 99.1124 86.1628 99.4259 86.8067C99.7394 87.4405 100.053 88.1044 100.357 88.7633C100.891 89.1214 101.415 89.5047 101.93 89.9029C102.446 90.2911 102.961 90.7095 103.468 91.1429C103.566 90.7062 103.655 90.2544 103.717 89.7874C103.779 89.301 103.81 88.8112 103.809 88.3209C103.811 88.0106 103.797 87.7004 103.768 87.3915C103.738 87.0335 103.677 86.6787 103.587 86.331C103.494 85.9752 103.351 85.6347 103.161 85.3202C102.974 85.0132 102.712 84.7584 102.401 84.5797C102.076 84.3913 101.715 84.2722 101.342 84.2301C100.98 84.1937 100.616 84.2028 100.256 84.2572C99.9059 84.3075 99.5621 84.3958 99.2309 84.5206L99.231 84.5206ZM103.718 105.073C103.75 104.774 103.765 104.474 103.764 104.174C103.766 103.653 103.738 103.133 103.681 102.616C103.621 102.089 103.535 101.536 103.44 100.978C102.924 100.811 102.408 100.624 101.892 100.426C101.367 100.224 100.851 99.9963 100.326 99.7437C100.019 100.059 99.7114 100.355 99.3953 100.635C99.0749 100.921 98.7282 101.175 98.3598 101.396C98.5952 101.783 98.8655 102.211 99.1794 102.684C99.4933 103.157 99.8334 103.635 100.183 104.098C100.521 104.554 100.888 104.988 101.282 105.397C101.591 105.74 101.947 106.037 102.339 106.279C102.445 106.36 102.568 106.415 102.699 106.439C102.829 106.464 102.964 106.458 103.092 106.422C103.29 106.313 103.442 106.137 103.523 105.926C103.629 105.653 103.695 105.365 103.718 105.073V105.073ZM95.962 100.837C96.2461 100.744 96.5219 100.627 96.7861 100.487C96.4289 99.8483 96.0892 99.1994 95.7758 98.5556C95.4536 97.9167 95.1489 97.2578 94.8356 96.5738C94.3113 96.2208 93.7956 95.8526 93.2801 95.4543C92.7646 95.0561 92.249 94.6477 91.7248 94.2142C91.6272 94.651 91.5471 95.0978 91.4845 95.5648C91.4188 96.0492 91.3852 96.5374 91.3841 97.0262C91.3833 97.2975 91.3912 97.614 91.4165 97.9607C91.4409 98.324 91.5075 98.6832 91.6148 99.0311C91.7129 99.3788 91.8531 99.7132 92.0323 100.027C92.2248 100.334 92.4884 100.589 92.8008 100.772C93.1216 100.961 93.4802 101.075 93.8507 101.107C94.2147 101.148 94.5824 101.144 94.9454 101.095C95.291 101.038 95.6312 100.952 95.962 100.837V100.837ZM92.3495 87.048C92.4622 87.4753 92.5835 87.9076 92.7225 88.3501C92.9161 88.0213 93.1275 87.7033 93.3556 87.3974C93.5841 87.1067 93.8126 86.806 94.05 86.5103C93.7088 86.3636 93.3677 86.2271 93.0353 86.0956C92.7091 85.9661 92.3762 85.8545 92.0379 85.7612C92.1418 86.1935 92.2457 86.6258 92.3495 87.048H92.3495ZM92.3523 92.242C92.2376 92.5279 92.1317 92.8391 92.017 93.1552C92.349 93.4475 92.6809 93.7096 93.013 93.9718C93.345 94.2239 93.6858 94.481 94.0267 94.7281C93.783 94.1547 93.5569 93.6016 93.3396 93.0534C93.131 92.5003 92.9136 91.9421 92.7139 91.374C92.5817 91.6599 92.4583 91.9509 92.3523 92.242V92.242ZM102.85 93.1103C102.956 92.8092 103.07 92.5032 103.176 92.1921C102.844 91.9098 102.512 91.6477 102.18 91.3856C101.848 91.1334 101.516 90.8813 101.175 90.6242C101.401 91.1774 101.628 91.7406 101.854 92.2938C102.08 92.847 102.288 93.4101 102.488 93.9884C102.62 93.7024 102.735 93.4064 102.85 93.1103H102.85ZM101.846 97.9649C101.635 98.2657 101.398 98.5513 101.152 98.842C101.493 98.9886 101.826 99.1302 102.158 99.2618C102.484 99.3879 102.817 99.4962 103.155 99.586C103.051 99.1537 102.948 98.7315 102.844 98.3092C102.74 97.8971 102.618 97.4648 102.48 97.0123C102.277 97.3482 102.066 97.6591 101.846 97.9649H101.846ZM96.2956 97.5575C96.6959 98.4024 97.1227 99.2325 97.5758 100.048C98.0313 99.7461 98.4626 99.4098 98.8659 99.0415C98.4374 98.8143 98.0091 98.587 97.5806 98.3397C97.1434 98.0873 96.7152 97.8199 96.2956 97.5575V97.5575ZM97.6176 85.3098C97.3894 85.4598 97.17 85.6149 96.9594 85.7751C96.739 85.9436 96.528 86.1241 96.3274 86.3158C96.7559 86.5431 97.1843 86.7703 97.6127 87.0177C98.0412 87.265 98.4694 87.5324 98.8978 87.7998C98.6976 87.3723 98.4973 86.9648 98.2883 86.5624C98.0792 86.1499 97.8615 85.7424 97.6176 85.3098" fill="#F2F2F2"/>
<path d="M88.67 47.0101L86.6895 48.161C87.2375 47.907 87.8434 47.804 88.4446 47.8628C89.0458 47.9215 89.6203 48.1397 90.1088 48.495C90.6803 48.8299 91.209 49.2328 91.6835 49.6949L93.664 48.544C93.1895 48.0819 92.6608 47.679 92.0894 47.3441C91.6009 46.9889 91.0263 46.7706 90.4251 46.7119C89.824 46.6531 89.218 46.7561 88.67 47.0101V47.0101Z" fill="#E8E8E8"/>
<path d="M113.391 53.2165C112.856 52.901 112.285 52.65 111.691 52.4688C110.061 48.3581 107.178 44.8645 103.452 42.483C100.74 40.917 98.2828 40.7712 96.508 41.8027L94.5275 42.9536C96.3024 41.9222 98.7592 42.068 101.472 43.634C105.198 46.0154 108.08 49.509 109.711 53.6197C110.305 53.8009 110.876 54.0519 111.411 54.3674C113.616 55.8022 115.452 57.7382 116.766 60.0175C118.081 62.2968 118.838 64.8547 118.976 67.4824C118.978 68.0082 118.931 68.533 118.838 69.0504C118.827 69.1243 118.803 69.1954 118.792 69.2808C118.657 69.8966 118.432 70.4888 118.122 71.0381C118.087 71.0977 118.043 71.146 118.008 71.2057C117.686 71.6803 117.263 72.0774 116.769 72.368L118.75 71.2171C119.244 70.9265 119.667 70.5294 119.988 70.0547C120.023 69.995 120.068 69.9467 120.103 69.8871C120.412 69.3379 120.638 68.7457 120.773 68.1299C120.783 68.0445 120.808 67.9734 120.818 67.8994C120.912 67.3821 120.958 66.8572 120.957 66.3314C120.819 63.7037 120.062 61.1458 118.747 58.8666C117.432 56.5873 115.597 54.6512 113.391 53.2165V53.2165Z" fill="#E8E8E8"/>
<path d="M101.472 43.6339C105.198 46.0154 108.08 49.5089 109.711 53.6196C110.305 53.8008 110.876 54.0518 111.411 54.3674C113.617 55.8021 115.452 57.7381 116.766 60.0174C118.081 62.2967 118.838 64.8546 118.976 67.4823C118.978 68.0081 118.931 68.5329 118.838 69.0503C118.827 69.1243 118.803 69.1954 118.792 69.2807C118.658 69.8965 118.432 70.4888 118.122 71.038C118.087 71.0976 118.043 71.1459 118.008 71.2056C116.692 73.1147 114.2 73.4891 111.351 71.8444L89.6021 59.2362C88.3394 58.303 87.2981 57.1028 86.5524 55.7211C85.8066 54.3394 85.3748 52.8103 85.2876 51.2426C85.2962 48.1912 87.4584 46.9648 90.109 48.4951C90.6804 48.83 91.2091 49.2329 91.6836 49.695C91.6741 49.5356 91.6746 49.3876 91.675 49.2339C91.6926 43.023 96.0765 40.519 101.472 43.6339Z" fill="white"/>
<path d="M86.726 125.752L86.7214 127.383C86.711 127.493 86.6717 127.598 86.6075 127.687C86.5433 127.777 86.4565 127.848 86.356 127.893L86.3606 126.263C86.4611 126.217 86.5479 126.146 86.6121 126.057C86.6763 125.967 86.7156 125.862 86.726 125.752V125.752Z" fill="#1F56A3"/>
<path d="M86.361 126.263L86.356 127.893L85.36 128.472L85.365 126.841L86.361 126.263Z" fill="#1F56A3"/>
<path d="M78.1 127.382L78.1046 125.751C78.1143 125.861 78.1533 125.967 78.2174 126.057C78.2816 126.146 78.3686 126.217 78.4694 126.262L78.4648 127.893C78.3639 127.848 78.277 127.777 78.2128 127.687C78.1487 127.597 78.1097 127.492 78.1 127.382V127.382Z" fill="#1F56A3"/>
<path d="M79.478 126.845L79.474 128.475L78.465 127.893L78.469 126.263L79.478 126.845Z" fill="#1F56A3"/>
<path d="M85.123 125.754L82.427 127.321L79.708 125.75L82.403 124.184L85.123 125.754Z" fill="white"/>
<path d="M86.3613 125.241C86.4678 125.278 86.5602 125.347 86.6256 125.438C86.6911 125.53 86.7262 125.639 86.7261 125.752C86.726 125.865 86.6908 125.974 86.6252 126.066C86.5597 126.157 86.4672 126.226 86.3606 126.262L85.3648 126.841L84.3055 127.457L83.3096 128.035C83.0369 128.175 82.735 128.248 82.4287 128.249C82.1223 128.249 81.8202 128.178 81.5469 128.039L80.5381 127.457L79.4782 126.845L78.4694 126.262C78.363 126.226 78.2706 126.157 78.2052 126.065C78.1398 125.974 78.1047 125.864 78.1047 125.752C78.1048 125.639 78.1401 125.529 78.2056 125.438C78.2711 125.346 78.3636 125.278 78.4701 125.241L81.5211 123.468C81.7938 123.329 82.0957 123.256 82.402 123.255C82.7084 123.254 83.0106 123.326 83.2839 123.465L86.3613 125.241ZM82.4274 127.32L85.1233 125.754L82.4034 124.183L79.7076 125.75L82.4274 127.32" fill="#0078D4"/>
<path d="M71.803 133.495L69.1 135.065L66.381 133.495L69.083 131.925L71.803 133.495Z" fill="white"/>
<path d="M73.0343 132.986C73.1408 133.023 73.2332 133.092 73.2986 133.183C73.364 133.275 73.3992 133.385 73.3991 133.497C73.399 133.61 73.3638 133.719 73.2982 133.811C73.2327 133.902 73.1402 133.971 73.0337 134.007L72.0378 134.586L70.9848 135.198L69.9826 135.781C69.7096 135.919 69.4078 135.992 69.1017 135.992C68.7955 135.993 68.4934 135.922 68.2198 135.784L65.1424 134.007C65.0365 133.97 64.9447 133.901 64.8797 133.81C64.8148 133.718 64.78 133.609 64.78 133.497C64.7801 133.385 64.8151 133.275 64.8801 133.184C64.9452 133.092 65.0371 133.023 65.1431 132.986L68.1942 131.213C68.4669 131.074 68.7687 131.001 69.0751 131C69.3814 130.999 69.6836 131.071 69.9569 131.21L70.9657 131.792L72.0255 132.404L73.0343 132.986ZM69.1004 135.065L71.8026 133.495L69.0827 131.925L66.3805 133.495L69.1004 135.065" fill="#0078D4"/>
<path d="M99.0801 133.812L96.3841 135.379L93.6641 133.808L96.3601 132.242L99.0801 133.812Z" fill="white"/>
<path d="M100.318 133.299C100.425 133.336 100.518 133.404 100.584 133.496C100.65 133.587 100.686 133.697 100.686 133.81C100.687 133.922 100.652 134.033 100.587 134.125C100.522 134.217 100.43 134.287 100.324 134.324L97.273 136.097C96.9989 136.236 96.6958 136.309 96.3884 136.309C96.081 136.309 95.7779 136.236 95.5038 136.097L94.495 135.515L93.4352 134.903L92.4328 134.324C92.3254 134.289 92.232 134.22 92.1655 134.129C92.0991 134.037 92.063 133.927 92.0624 133.814C92.0618 133.701 92.0966 133.59 92.162 133.498C92.2274 133.406 92.3201 133.336 92.427 133.299L93.4229 132.721L94.4822 132.105L95.4781 131.526C95.7519 131.386 96.0551 131.313 96.3626 131.313C96.6702 131.313 96.9734 131.386 97.2472 131.526L100.318 133.299ZM96.3843 135.378L99.0802 133.812L96.3603 132.241L93.6644 133.808L96.3843 135.378" fill="#0078D4"/>
<path d="M100.686 133.816L100.682 135.446C100.672 135.555 100.633 135.66 100.569 135.749C100.506 135.839 100.419 135.91 100.319 135.955L100.324 134.324C100.424 134.279 100.51 134.208 100.574 134.119C100.637 134.03 100.676 133.925 100.686 133.816V133.816Z" fill="#1F56A3"/>
<path d="M100.324 134.324L100.319 135.955L97.2681 137.728L97.2731 136.097L100.324 134.324Z" fill="#1F56A3"/>
<path d="M95.504 136.097L95.499 137.728L94.49 137.145L94.495 135.515L95.504 136.097Z" fill="#1F56A3"/>
<path d="M97.2729 136.097L97.2683 137.727C96.9941 137.867 96.691 137.939 96.3836 137.939C96.0762 137.939 95.7732 137.867 95.499 137.727L95.5036 136.097C95.7778 136.236 96.0809 136.309 96.3883 136.309C96.6957 136.309 96.9987 136.236 97.2729 136.097V136.097Z" fill="#1F56A3"/>
<path d="M85.982 140.462L85.978 142.092L94.49 137.145L94.495 135.515L85.982 140.462Z" fill="#1F56A3"/>
<path d="M70.9661 131.792L79.4781 126.845L80.5381 127.457L72.0261 132.404L70.9661 131.792Z" fill="#0078D4"/>
<path d="M84.3051 127.457L85.3651 126.841L94.4821 132.105L93.423 132.721L84.3051 127.457Z" fill="#0078D4"/>
<path d="M83.6731 130.428C82.1325 130.514 80.6305 130.942 79.2763 131.682C78.7639 131.927 78.3109 132.281 77.9486 132.719C77.5863 133.157 77.3233 133.668 77.1777 134.218L76.2136 133.661C76.3137 133.097 76.5519 132.567 76.907 132.118C77.262 131.669 77.7229 131.315 78.2483 131.088C79.621 130.332 81.1552 129.918 82.7217 129.879L83.6731 130.428Z" fill="#1F56A3"/>
<path d="M89.2405 133.642C89.123 134.207 88.8749 134.736 88.516 135.187C88.1572 135.639 87.6976 135.999 87.1741 136.241C85.8149 137.004 84.2846 137.41 82.726 137.421L81.7747 136.871C83.3064 136.804 84.8021 136.385 86.1462 135.648C86.6618 135.395 87.1185 135.036 87.4866 134.596C87.8547 134.155 88.1259 133.642 88.2827 133.089L89.2405 133.642Z" fill="#1F56A3"/>
<path d="M92.4326 134.324L93.4351 134.903L84.9226 139.85L83.9201 139.271C83.6462 139.131 83.3431 139.058 83.0355 139.058C82.728 139.058 82.4248 139.131 82.151 139.271L81.1551 139.85L72.0378 134.586L73.0336 134.007C73.1402 133.971 73.2327 133.902 73.2982 133.811C73.3637 133.719 73.399 133.61 73.3991 133.497C73.3991 133.385 73.364 133.275 73.2986 133.183C73.2332 133.092 73.1408 133.023 73.0343 132.986L72.0255 132.404L80.538 127.457L81.5468 128.039C81.8201 128.178 82.1223 128.25 82.4286 128.249C82.735 128.248 83.0369 128.175 83.3096 128.036L84.3054 127.457L93.4228 132.721L92.4269 133.3C92.32 133.337 92.2273 133.406 92.1619 133.498C92.0965 133.591 92.0617 133.701 92.0623 133.814C92.0629 133.927 92.099 134.037 92.1654 134.129C92.2319 134.22 92.3253 134.289 92.4326 134.324V134.324ZM86.3344 134.022L87.3049 133.458L83.0591 131.007L82.0886 131.571L83.6017 132.444L79.2693 134.962L80.4761 135.659L84.8084 133.141L86.3344 134.022ZM82.7261 137.421C84.2846 137.41 85.8149 137.004 87.1741 136.241C87.6976 136 88.1572 135.639 88.5161 135.187C88.8749 134.736 89.123 134.207 89.2405 133.642L88.2828 133.089C88.1259 133.642 87.8547 134.155 87.4866 134.596C87.1185 135.037 86.6618 135.395 86.1462 135.648C84.8021 136.385 83.3064 136.804 81.7747 136.872L82.7261 137.421V137.421ZM76.2137 133.661L77.1777 134.218C77.3233 133.668 77.5863 133.157 77.9486 132.719C78.3109 132.281 78.7639 131.927 79.2763 131.681C80.6305 130.942 82.1325 130.514 83.6731 130.428L82.7217 129.879C81.1553 129.918 79.621 130.332 78.2483 131.088C77.7229 131.315 77.2621 131.669 76.907 132.118C76.5519 132.567 76.3137 133.097 76.2137 133.661Z" fill="white"/>
<path d="M87.305 133.458L86.334 134.022L84.808 133.141L80.476 135.659L79.269 134.962L83.602 132.444L82.089 131.571L83.059 131.007L87.305 133.458Z" fill="#1F56A3"/>
<path d="M93.435 134.903L94.495 135.515L85.982 140.462L84.923 139.85L93.435 134.903Z" fill="#0078D4"/>
<path d="M70.985 135.198L72.038 134.586L81.155 139.85L80.102 140.462L70.985 135.198Z" fill="#0078D4"/>
<path d="M64.7754 135.127L64.78 133.497C64.7893 133.607 64.8279 133.712 64.8916 133.802C64.9553 133.891 65.0419 133.963 65.1424 134.007L65.1378 135.638C65.0373 135.593 64.9507 135.522 64.887 135.432C64.8233 135.342 64.7847 135.237 64.7754 135.127V135.127Z" fill="#1F56A3"/>
<path d="M80.102 140.462L80.098 142.092L70.98 136.828L70.985 135.198L80.102 140.462Z" fill="#1F56A3"/>
<path d="M70.985 135.198L70.98 136.828L69.978 137.411L69.983 135.78L70.985 135.198Z" fill="#1F56A3"/>
<path d="M68.2201 135.784L68.2151 137.414L65.1381 135.638L65.1421 134.007L68.2201 135.784Z" fill="#1F56A3"/>
<path d="M69.9826 135.78L69.978 137.411C69.705 137.549 69.4032 137.622 69.097 137.623C68.7908 137.623 68.4888 137.552 68.2152 137.414L68.2198 135.784C68.4934 135.922 68.7954 135.993 69.1016 135.992C69.4078 135.992 69.7096 135.919 69.9826 135.78V135.78Z" fill="#1F56A3"/>
<path d="M87.3593 141.561L87.3547 143.191C87.3447 143.3 87.3059 143.405 87.2423 143.494C87.1786 143.583 87.0924 143.654 86.9924 143.699L86.9971 142.069C87.097 142.024 87.1832 141.953 87.2469 141.864C87.3105 141.774 87.3493 141.67 87.3593 141.561V141.561Z" fill="#1F56A3"/>
<path d="M78.733 143.184L78.7376 141.554C78.7474 141.665 78.7867 141.771 78.8514 141.862C78.9161 141.952 79.0039 142.024 79.1056 142.069L79.101 143.7C78.9993 143.654 78.9115 143.583 78.8468 143.492C78.7821 143.401 78.7428 143.295 78.733 143.184Z" fill="#1F56A3"/>
<path d="M86.997 142.069L86.992 143.699L83.941 145.472L83.946 143.842L86.997 142.069Z" fill="#1F56A3"/>
<path d="M82.177 143.842L82.172 145.472L79.101 143.699L79.106 142.069L82.177 143.842Z" fill="#1F56A3"/>
<path d="M83.946 143.842L83.9414 145.473C83.6669 145.611 83.364 145.683 83.0567 145.683C82.7495 145.683 82.4465 145.611 82.1721 145.473L82.1768 143.842C82.4512 143.98 82.7541 144.052 83.0614 144.052C83.3686 144.052 83.6716 143.98 83.946 143.842Z" fill="#1F56A3"/>
<path d="M85.759 141.553L83.057 143.123L80.337 141.553L83.04 139.983L85.759 141.553Z" fill="white"/>
<path d="M86.9911 141.044C87.0979 141.081 87.1908 141.149 87.2567 141.241C87.3227 141.332 87.3585 141.442 87.3591 141.555C87.3598 141.668 87.3252 141.778 87.2603 141.87C87.1954 141.962 87.1034 142.032 86.997 142.069L83.9459 143.842C83.6715 143.98 83.3685 144.052 83.0613 144.052C82.7541 144.052 82.4511 143.98 82.1767 143.842L79.1057 142.069C78.9989 142.033 78.906 141.964 78.8401 141.873C78.7741 141.782 78.7383 141.672 78.7377 141.559C78.737 141.446 78.7716 141.336 78.8365 141.244C78.9015 141.152 78.9935 141.082 79.0999 141.045L80.1021 140.462L81.1551 139.85L82.151 139.271C82.4249 139.132 82.728 139.059 83.0356 139.059C83.3431 139.059 83.6463 139.132 83.9202 139.271L84.9226 139.85L85.9824 140.462L86.9911 141.044ZM83.0572 143.124L85.7594 141.553L83.0395 139.983L80.3374 141.553L83.0572 143.124" fill="#0078D4"/>
<path d="M119.39 105.572L106.304 98.0171C105.974 97.8115 105.709 97.5155 105.542 97.1642L103.862 93.8696C103.69 93.517 103.423 93.2197 103.091 93.0114L94.1246 87.8347C93.9223 87.6874 93.6842 87.5969 93.4351 87.5726C93.1859 87.5482 92.9348 87.5909 92.7078 87.6962L90.7263 88.8477C90.9534 88.7424 91.2044 88.6997 91.4535 88.7241C91.7026 88.7485 91.9407 88.839 92.143 88.9863L101.109 94.1629C101.441 94.3712 101.708 94.6686 101.88 95.0211L103.561 98.3157C103.728 98.667 103.992 98.963 104.322 99.1687L117.408 106.724C117.986 107.101 118.467 107.609 118.812 108.207C119.157 108.804 119.356 109.475 119.394 110.164L119.347 126.85C119.372 127.096 119.332 127.344 119.23 127.569C119.128 127.794 118.968 127.987 118.767 128.13L120.749 126.979C120.95 126.836 121.109 126.642 121.211 126.417C121.313 126.192 121.354 125.944 121.329 125.699L121.376 109.012C121.338 108.323 121.138 107.653 120.793 107.055C120.448 106.457 119.968 105.949 119.39 105.572V105.572Z" fill="#CC9547"/>
<path d="M101.109 94.1631C101.441 94.3714 101.708 94.6687 101.88 95.0212L103.561 98.3159C103.728 98.6672 103.992 98.9632 104.322 99.1689L117.408 106.724C117.986 107.101 118.467 107.609 118.812 108.207C119.157 108.804 119.356 109.475 119.394 110.164L119.347 126.85C119.343 128.119 118.452 128.627 117.348 127.99L92.0738 113.398C91.4943 113.022 91.0121 112.515 90.6669 111.917C90.3216 111.319 90.1232 110.647 90.0879 109.958L90.1441 90.1256C90.1477 88.8674 91.0391 88.3491 92.143 88.9864L101.109 94.1631Z" fill="#EFB252"/>
<path d="M94.3936 97.436C94.5693 97.5458 94.7134 97.6995 94.8116 97.882L96.5915 100.973C96.8209 101.37 96.8197 101.803 96.5887 101.943L94.7971 102.972C94.7302 103.004 94.6557 103.017 94.5818 103.01C94.5079 103.003 94.4374 102.975 94.378 102.931C94.2019 102.823 94.0576 102.67 93.9601 102.489C93.7236 102.087 93.7249 101.646 93.9628 101.519L95.3276 100.725L93.9718 98.3686C93.7354 97.9591 93.7366 97.5262 93.9745 97.3987C94.0412 97.3665 94.1154 97.353 94.1892 97.3595C94.263 97.3661 94.3336 97.3925 94.3936 97.436V97.436Z" fill="#CC9547"/>
<path d="M100.442 108.294C100.611 108.405 100.753 108.554 100.854 108.73C100.955 108.906 101.014 109.103 101.026 109.305C101.025 109.674 100.759 109.818 100.438 109.632L94.1248 105.988C93.9554 105.878 93.8142 105.73 93.7127 105.556C93.6112 105.381 93.5523 105.185 93.5408 104.984C93.5418 104.615 93.8077 104.464 94.1286 104.649L100.442 108.294Z" fill="#CC9547"/>
<path d="M100.332 104.995C100.504 105.107 100.648 105.258 100.751 105.436C100.853 105.614 100.912 105.814 100.923 106.019C100.922 106.404 100.656 106.555 100.328 106.366L97.9496 104.992C97.7746 104.88 97.629 104.727 97.525 104.547C97.421 104.367 97.3615 104.164 97.3516 103.957C97.3526 103.58 97.6186 103.428 97.9534 103.622L100.332 104.995Z" fill="#CC9547"/>
<path d="M110.372 117.424C110.542 117.535 110.683 117.684 110.785 117.86C110.886 118.036 110.945 118.233 110.956 118.435C110.955 118.804 110.689 118.947 110.369 118.762L106.344 116.438C106.175 116.329 106.035 116.182 105.935 116.008C105.834 115.834 105.777 115.639 105.766 115.439C105.768 115.07 106.026 114.915 106.347 115.1L110.372 117.424Z" fill="#CC9547"/>
<path d="M112.816 115.439C112.985 115.55 113.125 115.698 113.226 115.874C113.326 116.049 113.383 116.245 113.393 116.446C113.392 116.815 113.134 116.963 112.813 116.777L102.823 111.01C102.655 110.901 102.515 110.754 102.415 110.58C102.314 110.406 102.257 110.211 102.246 110.011C102.247 109.642 102.506 109.486 102.827 109.672L112.816 115.439Z" fill="#F5D197"/>
<path d="M103.941 113.711C104.11 113.822 104.252 113.971 104.353 114.147C104.455 114.323 104.513 114.52 104.525 114.722C104.524 115.091 104.258 115.235 103.937 115.049L94.1152 109.379C93.9457 109.269 93.8045 109.121 93.7031 108.947C93.6016 108.772 93.5427 108.577 93.5311 108.375C93.5321 108.006 93.7981 107.855 94.119 108.04L103.941 113.711Z" fill="#F5D197"/>
<path d="M115.374 120.311C115.543 120.422 115.683 120.571 115.783 120.746C115.883 120.921 115.941 121.117 115.951 121.319C115.95 121.688 115.691 121.835 115.37 121.65L112.803 120.168C112.635 120.059 112.494 119.911 112.394 119.738C112.294 119.564 112.236 119.369 112.226 119.168C112.227 118.8 112.486 118.644 112.807 118.829L115.374 120.311Z" fill="#CC9547"/>
<path d="M80.8421 111.501L67.726 119.123L54.524 111.501L67.64 103.879L80.8421 111.501Z" fill="#1B93EB"/>
<path d="M80.8421 111.501L80.8231 118.438L67.7061 126.06L67.7261 119.123L80.8421 111.501Z" fill="#1F56A3"/>
<path d="M67.726 119.123L67.706 126.06L54.504 118.438L54.524 111.501L67.726 119.123Z" fill="#0078D4"/>
<path d="M80.8421 103.209L67.726 110.832L54.524 103.209L67.64 95.5869L80.8421 103.209Z" fill="#1B93EB"/>
<path d="M80.8421 103.209L80.8231 110.146L67.7061 117.768L67.7261 110.832L80.8421 103.209Z" fill="#1F56A3"/>
<path d="M67.726 110.832L67.706 117.768L54.504 110.146L54.524 103.209L67.726 110.832Z" fill="#0078D4"/>
<path d="M80.8421 94.9169L67.726 102.54L54.524 94.9169L67.64 87.2949L80.8421 94.9169Z" fill="#1B93EB"/>
<path d="M80.8421 94.917L80.8231 101.854L67.7061 109.476L67.7261 102.54L80.8421 94.917Z" fill="#1F56A3"/>
<path d="M67.726 102.54L67.706 109.476L54.504 101.854L54.524 94.917L67.726 102.54Z" fill="#0078D4"/>
<path d="M80.8421 86.6249L67.726 94.2479L54.524 86.6259L67.64 79.0029L80.8421 86.6249Z" fill="#1B93EB"/>
<path d="M80.8421 86.625L80.8231 93.562L67.7061 101.184L67.7261 94.248L80.8421 86.625Z" fill="#1F56A3"/>
<path d="M67.726 94.248L67.706 101.184L54.504 93.562L54.524 86.626L67.726 94.248Z" fill="#0078D4"/>
<path d="M71.1774 102.807C70.8578 103.015 70.5919 103.296 70.4013 103.626C70.2107 103.956 70.1008 104.326 70.0807 104.707C70.0827 105.405 70.5772 105.687 71.1845 105.336C71.5041 105.128 71.77 104.848 71.9606 104.518C72.1512 104.188 72.2611 103.817 72.2812 103.437C72.2792 102.739 71.7847 102.457 71.1774 102.807Z" fill="#50E6FF"/>
<path d="M74.5608 100.932C74.2412 101.14 73.9753 101.421 73.7847 101.751C73.5941 102.081 73.4843 102.451 73.4641 102.832C73.4661 103.53 73.9607 103.812 74.568 103.461C74.8876 103.253 75.1535 102.973 75.3441 102.643C75.5346 102.313 75.6445 101.942 75.6646 101.562C75.6627 100.864 75.1681 100.582 74.5608 100.932Z" fill="#C3F1FF"/>
<path d="M77.775 99.2904C77.4555 99.4982 77.1895 99.7786 76.9989 100.109C76.8084 100.439 76.6985 100.809 76.6783 101.19C76.6803 101.888 77.1749 102.17 77.7822 101.819C78.1018 101.611 78.3677 101.331 78.5583 101.001C78.7489 100.671 78.8587 100.3 78.8789 99.9194C78.8769 99.2216 78.3824 98.9398 77.775 99.2904Z" fill="#0078D4"/>
<path d="M71.1774 94.7421C70.8578 94.9499 70.5919 95.2302 70.4013 95.5603C70.2107 95.8905 70.1008 96.261 70.0807 96.6416C70.0827 97.3394 70.5772 97.6213 71.1845 97.2707C71.5041 97.0629 71.77 96.7825 71.9606 96.4524C72.1512 96.1223 72.2611 95.7518 72.2812 95.3711C72.2792 94.6733 71.7847 94.3914 71.1774 94.7421Z" fill="#C3F1FF"/>
<path d="M74.5608 92.8671C74.2412 93.0749 73.9753 93.3552 73.7847 93.6854C73.5941 94.0155 73.4843 94.386 73.4641 94.7666C73.4661 95.4644 73.9607 95.7463 74.568 95.3956C74.8876 95.1878 75.1535 94.9074 75.3441 94.5773C75.5346 94.2472 75.6445 93.8767 75.6646 93.4961C75.6627 92.7983 75.1681 92.5164 74.5608 92.8671Z" fill="#0078D4"/>
<path d="M77.775 91.225C77.4555 91.4328 77.1895 91.7131 76.9989 92.0433C76.8084 92.3734 76.6985 92.7439 76.6783 93.1245C76.6803 93.8224 77.1749 94.1042 77.7822 93.7536C78.1018 93.5458 78.3677 93.2654 78.5583 92.9353C78.7489 92.6052 78.8587 92.2347 78.8789 91.854C78.8769 91.1562 78.3824 90.8743 77.775 91.225Z" fill="#50E6FF"/>
<path d="M71.1774 110.983C70.8578 111.191 70.5919 111.471 70.4013 111.802C70.2107 112.132 70.1008 112.502 70.0807 112.883C70.0827 113.581 70.5772 113.862 71.1845 113.512C71.5041 113.304 71.77 113.024 71.9606 112.694C72.1512 112.363 72.2611 111.993 72.2812 111.612C72.2792 110.914 71.7847 110.633 71.1774 110.983Z" fill="#0078D4"/>
<path d="M74.5608 109.108C74.2412 109.316 73.9753 109.596 73.7847 109.926C73.5941 110.256 73.4843 110.627 73.4641 111.007C73.4661 111.705 73.9607 111.987 74.568 111.636C74.8875 111.429 75.1535 111.148 75.344 110.818C75.5346 110.488 75.6445 110.117 75.6646 109.737C75.6627 109.039 75.1681 108.757 74.5608 109.108Z" fill="#50E6FF"/>
<path d="M77.775 107.466C77.4555 107.673 77.1895 107.954 76.9989 108.284C76.8084 108.614 76.6985 108.985 76.6783 109.365C76.6803 110.063 77.1749 110.345 77.7822 109.994C78.1018 109.786 78.3677 109.506 78.5583 109.176C78.7489 108.846 78.8587 108.475 78.8789 108.095C78.8769 107.397 78.3824 107.115 77.775 107.466Z" fill="#C3F1FF"/>
<path d="M71.1774 119.159C70.8578 119.366 70.5919 119.647 70.4013 119.977C70.2107 120.307 70.1008 120.677 70.0807 121.058C70.0827 121.756 70.5772 122.038 71.1845 121.687C71.5041 121.479 71.77 121.199 71.9606 120.869C72.1512 120.539 72.2611 120.168 72.2812 119.788C72.2792 119.09 71.7847 118.808 71.1774 119.159Z" fill="#C3F1FF"/>
<path d="M74.5608 117.284C74.2412 117.491 73.9753 117.772 73.7847 118.102C73.5941 118.432 73.4843 118.802 73.4641 119.183C73.4661 119.881 73.9607 120.163 74.568 119.812C74.8876 119.604 75.1535 119.324 75.3441 118.994C75.5346 118.664 75.6445 118.293 75.6646 117.913C75.6627 117.215 75.1681 116.933 74.5608 117.284Z" fill="#0078D4"/>
<path d="M77.775 115.641C77.4555 115.849 77.1895 116.129 76.9989 116.459C76.8084 116.789 76.6985 117.16 76.6783 117.541C76.6803 118.238 77.1749 118.52 77.7822 118.17C78.1018 117.962 78.3677 117.681 78.5583 117.351C78.7489 117.021 78.8587 116.651 78.8789 116.27C78.8769 115.572 78.3824 115.29 77.775 115.641Z" fill="#50E6FF"/>
<path d="M65.266 120.586L52.149 128.209L38.947 120.587L52.064 112.964L65.266 120.586Z" fill="#1B93EB"/>
<path d="M65.266 120.586L65.246 127.523L52.13 135.145L52.149 128.209L65.266 120.586Z" fill="#1F56A3"/>
<path d="M52.149 128.209L52.13 135.145L38.928 127.523L38.947 120.587L52.149 128.209Z" fill="#0078D4"/>
<path d="M65.266 112.295L52.149 119.917L38.947 112.295L52.064 104.672L65.266 112.295Z" fill="#1B93EB"/>
<path d="M65.266 112.295L65.246 119.231L52.13 126.853L52.149 119.917L65.266 112.295Z" fill="#1F56A3"/>
<path d="M52.149 119.917L52.13 126.853L38.928 119.231L38.947 112.295L52.149 119.917Z" fill="#0078D4"/>
<path d="M65.266 104.003L52.149 111.625L38.947 104.003L52.064 96.3799L65.266 104.003Z" fill="#1B93EB"/>
<path d="M65.266 104.003L65.246 110.939L52.13 118.562L52.149 111.625L65.266 104.003Z" fill="#1F56A3"/>
<path d="M52.149 111.625L52.13 118.562L38.928 110.939L38.947 104.003L52.149 111.625Z" fill="#0078D4"/>
<path d="M65.266 95.7109L52.149 103.333L38.947 95.7109L52.064 88.0879L65.266 95.7109Z" fill="#1B93EB"/>
<path d="M65.266 95.7109L65.246 102.647L52.13 110.27L52.149 103.333L65.266 95.7109Z" fill="#1F56A3"/>
<path d="M52.149 103.333L52.13 110.27L38.928 102.647L38.947 95.7109L52.149 103.333Z" fill="#0078D4"/>
<path d="M55.6008 111.893C55.2813 112.101 55.0154 112.381 54.8248 112.711C54.6342 113.041 54.5243 113.412 54.5042 113.792C54.5062 114.49 55.0007 114.772 55.608 114.421C55.9276 114.214 56.1935 113.933 56.3841 113.603C56.5747 113.273 56.6845 112.903 56.7047 112.522C56.7027 111.824 56.2081 111.542 55.6008 111.893Z" fill="#50E6FF"/>
<path d="M58.9841 110.018C58.6646 110.226 58.3986 110.506 58.2081 110.836C58.0175 111.166 57.9076 111.537 57.8875 111.917C57.8895 112.615 58.384 112.897 58.9913 112.547C59.3109 112.339 59.5768 112.058 59.7674 111.728C59.958 111.398 60.0678 111.028 60.088 110.647C60.086 109.949 59.5915 109.667 58.9841 110.018Z" fill="#C3F1FF"/>
<path d="M62.1985 108.375C61.8789 108.583 61.613 108.864 61.4224 109.194C61.2318 109.524 61.122 109.894 61.1018 110.275C61.1038 110.973 61.5984 111.255 62.2057 110.904C62.5252 110.696 62.7912 110.416 62.9818 110.086C63.1723 109.756 63.2822 109.385 63.3023 109.004C63.3004 108.307 62.8058 108.025 62.1985 108.375Z" fill="#0078D4"/>
<path d="M55.6008 103.828C55.2813 104.035 55.0154 104.316 54.8248 104.646C54.6342 104.976 54.5243 105.346 54.5042 105.727C54.5062 106.425 55.0007 106.707 55.608 106.356C55.9276 106.148 56.1935 105.868 56.3841 105.538C56.5747 105.208 56.6845 104.837 56.7047 104.457C56.7027 103.759 56.2081 103.477 55.6008 103.828Z" fill="#C3F1FF"/>
<path d="M58.9841 101.953C58.6646 102.16 58.3986 102.441 58.2081 102.771C58.0175 103.101 57.9076 103.471 57.8875 103.852C57.8895 104.55 58.384 104.832 58.9913 104.481C59.3109 104.273 59.5768 103.993 59.7674 103.663C59.958 103.333 60.0678 102.962 60.088 102.582C60.086 101.884 59.5915 101.602 58.9841 101.953Z" fill="#0078D4"/>
<path d="M62.1985 100.31C61.8789 100.518 61.613 100.798 61.4224 101.128C61.2318 101.458 61.122 101.829 61.1018 102.209C61.1038 102.907 61.5984 103.189 62.2057 102.838C62.5252 102.631 62.7912 102.35 62.9818 102.02C63.1723 101.69 63.2822 101.32 63.3023 100.939C63.3004 100.241 62.8058 99.9593 62.1985 100.31Z" fill="#50E6FF"/>
<path d="M55.6008 120.068C55.2813 120.276 55.0154 120.556 54.8248 120.887C54.6342 121.217 54.5243 121.587 54.5042 121.968C54.5062 122.666 55.0007 122.947 55.608 122.597C55.9276 122.389 56.1935 122.109 56.3841 121.778C56.5747 121.448 56.6845 121.078 56.7047 120.697C56.7027 119.999 56.2081 119.718 55.6008 120.068Z" fill="#0078D4"/>
<path d="M58.9841 118.193C58.6646 118.401 58.3986 118.681 58.2081 119.012C58.0175 119.342 57.9076 119.712 57.8875 120.093C57.8895 120.791 58.384 121.072 58.9913 120.722C59.3109 120.514 59.5768 120.234 59.7674 119.904C59.958 119.573 60.0678 119.203 60.088 118.822C60.086 118.124 59.5915 117.843 58.9841 118.193Z" fill="#50E6FF"/>
<path d="M62.1985 116.551C61.8789 116.759 61.613 117.039 61.4224 117.369C61.2318 117.7 61.122 118.07 61.1018 118.451C61.1038 119.149 61.5984 119.43 62.2057 119.08C62.5252 118.872 62.7911 118.592 62.9817 118.261C63.1723 117.931 63.2822 117.561 63.3023 117.18C63.3004 116.482 62.8058 116.201 62.1985 116.551Z" fill="#C3F1FF"/>
<path d="M55.6008 128.244C55.2813 128.452 55.0154 128.732 54.8248 129.062C54.6342 129.392 54.5243 129.763 54.5042 130.144C54.5062 130.841 55.0007 131.123 55.608 130.773C55.9276 130.565 56.1935 130.284 56.3841 129.954C56.5747 129.624 56.6845 129.254 56.7047 128.873C56.7027 128.175 56.2081 127.893 55.6008 128.244Z" fill="#C3F1FF"/>
<path d="M58.9841 126.369C58.6646 126.576 58.3986 126.857 58.2081 127.187C58.0175 127.517 57.9076 127.887 57.8875 128.268C57.8895 128.966 58.384 129.248 58.9913 128.897C59.3109 128.689 59.5768 128.409 59.7674 128.079C59.958 127.749 60.0678 127.378 60.088 126.998C60.086 126.3 59.5915 126.018 58.9841 126.369Z" fill="#0078D4"/>
<path d="M62.1985 124.726C61.8789 124.934 61.613 125.215 61.4224 125.545C61.2318 125.875 61.122 126.245 61.1018 126.626C61.1038 127.324 61.5984 127.606 62.2057 127.255C62.5252 127.047 62.7912 126.767 62.9818 126.437C63.1723 126.107 63.2822 125.736 63.3023 125.355C63.3004 124.658 62.8058 124.376 62.1985 124.726Z" fill="#50E6FF"/>
</g>
<defs>
<linearGradient id="paint0_linear" x1="79.6785" y1="8.27832" x2="79.6785" y2="179.693" gradientUnits="userSpaceOnUse">
<stop stop-color="#00ABDE"/>
<stop offset="1" stop-color="#007ED8"/>
</linearGradient>
<clipPath id="clip0">
<rect width="159.356" height="188" fill="white"/>
</clipPath>
</defs>
</svg>
