<svg width="103" height="103" viewBox="0 0 103 103" fill="none" xmlns="http://www.w3.org/2000/svg">
<path d="M51.1826 98.4872C25.3326 98.4872 4.37256 77.5372 4.37256 51.6772C4.37256 25.8172 25.3326 4.86719 51.1826 4.86719C77.0326 4.86719 97.9926 25.8272 97.9926 51.6772C97.9926 77.5272 77.0326 98.4872 51.1826 98.4872Z" fill="url(#paint0_linear_304_20302)"/>
<path fill-rule="evenodd" clip-rule="evenodd" d="M97.0825 51.6771C97.0825 77.0271 76.5325 97.5771 51.1825 97.5771C25.8325 97.5771 5.28254 77.0271 5.28254 51.6771C5.28254 26.3271 25.8325 5.77711 51.1825 5.77711C76.5325 5.77711 97.0825 26.3271 97.0825 51.6771ZM51.1825 2.03711C78.6025 2.03711 100.823 24.2571 100.823 51.6771C100.823 79.0971 78.5925 101.317 51.1825 101.317C23.7625 101.317 1.54254 79.0871 1.54254 51.6771C1.54254 24.2571 23.7625 2.03711 51.1825 2.03711Z" fill="#F2F1F0"/>
<path fill-rule="evenodd" clip-rule="evenodd" d="M94.2725 51.6777C94.2725 75.4777 74.9825 94.7677 51.1825 94.7677C27.3825 94.7677 8.09254 75.4777 8.09254 51.6777C8.09254 27.8777 27.3825 8.58766 51.1825 8.58766C74.9825 8.58766 94.2725 27.8777 94.2725 51.6777ZM51.1825 4.84766C77.0425 4.84766 98.0125 25.8177 98.0125 51.6777C98.0125 77.5377 77.0425 98.5077 51.1825 98.5077C25.3225 98.5077 4.35254 77.5377 4.35254 51.6777C4.35254 25.8177 25.3125 4.84766 51.1825 4.84766Z" fill="url(#paint1_linear_304_20302)"/>
<path opacity="0.15" d="M31.8617 32.8382C31.8617 32.6782 31.7317 32.5582 31.5817 32.5582C31.4817 32.5582 30.8517 32.4982 30.5117 32.2382C30.3817 31.7682 30.1917 31.3382 29.9617 30.9182C29.9017 30.5282 30.3117 30.2382 30.4917 29.9382C30.5217 29.8882 30.5417 29.8582 30.5517 29.8282C30.5817 29.7282 30.5717 29.6182 30.4917 29.5382C30.4917 29.5382 30.1817 29.0882 29.8617 28.7782C29.5417 28.4582 29.0617 28.1082 29.0617 28.1082C28.9517 27.9982 28.7717 27.9982 28.6617 28.1082C28.5917 28.1782 28.1117 28.5782 27.6717 28.6382C27.6617 28.6382 27.6617 28.6382 27.6617 28.6382C27.2617 28.4082 26.8117 28.2182 26.3517 28.0982H26.3417C26.0217 27.8582 26.1017 27.3782 26.0217 27.0282C26.0217 26.8682 25.8917 26.7482 25.7417 26.7482C25.7417 26.7482 25.2017 26.6582 24.7517 26.6582C24.3017 26.6582 23.7117 26.7482 23.7117 26.7482C23.5517 26.7482 23.4317 26.8782 23.4317 27.0282C23.4317 27.1282 23.3717 27.7582 23.1117 28.0982C22.6617 28.2282 22.1917 28.4282 21.7917 28.6482C21.4017 28.7082 21.1117 28.2982 20.8117 28.1182C20.7617 28.0882 20.7317 28.0682 20.7017 28.0582C20.6017 28.0282 20.4917 28.0382 20.4117 28.1182C20.4117 28.1182 19.9617 28.4282 19.6517 28.7482C19.3317 29.0682 18.9817 29.5482 18.9817 29.5482C18.8717 29.6582 18.8717 29.8382 18.9817 29.9482C19.0517 30.0182 19.4617 30.5082 19.5117 30.9282C19.2917 31.3282 19.0917 31.7982 18.9717 32.2482C18.9717 32.2482 18.9817 32.2382 18.9717 32.2482C18.7017 32.5782 18.2517 32.4882 17.9017 32.5682C17.7417 32.5682 17.6217 32.6982 17.6217 32.8482C17.6217 32.8482 17.5317 33.3882 17.5317 33.8382C17.5317 34.2882 17.6217 34.8782 17.6217 34.8782C17.6217 35.0382 17.7517 35.1582 17.9017 35.1582C18.0017 35.1582 18.6317 35.2182 18.9717 35.4782C18.9817 35.4782 18.9717 35.4882 18.9717 35.4882C19.1017 35.9382 19.2917 36.3882 19.5117 36.7882C19.5117 36.7982 19.5117 36.7882 19.5117 36.7982C19.5517 37.2082 19.1617 37.4782 18.9817 37.7782C18.9517 37.8282 18.9317 37.8582 18.9217 37.8882C18.8917 37.9882 18.9017 38.0982 18.9817 38.1782C18.9817 38.1782 19.2917 38.6282 19.6117 38.9382C19.9317 39.2582 20.4117 39.6082 20.4117 39.6082C20.5217 39.7182 20.7017 39.7182 20.8117 39.6082C20.8817 39.5382 21.3717 39.1282 21.7917 39.0782C21.7917 39.0782 21.7917 39.0782 21.8017 39.0782C22.2117 39.3082 22.6317 39.4882 23.1017 39.6082L23.1217 39.6182C23.4417 39.8582 23.3617 40.3382 23.4417 40.6882C23.4617 40.8482 23.5417 40.9482 23.7217 40.9682C23.7217 40.9682 24.2617 41.0582 24.7117 41.0582C25.1617 41.0582 25.7517 40.9682 25.7517 40.9682C25.9117 40.9382 26.0317 40.8382 26.0317 40.6882C26.0317 40.5882 26.0917 39.9582 26.3517 39.6182C26.3517 39.6182 26.3617 39.6082 26.3717 39.5982C26.8417 39.4682 27.2017 39.3182 27.6217 39.0782C27.6417 39.0682 27.6217 39.0682 27.6717 39.0682C28.0617 39.0082 28.3517 39.4182 28.6517 39.5982C28.7017 39.6282 28.7317 39.6482 28.7617 39.6582C28.8617 39.6882 28.9717 39.6782 29.0517 39.5982C29.0517 39.5982 29.5017 39.2882 29.8117 38.9682C30.1317 38.6482 30.4817 38.1682 30.4817 38.1682C30.5917 38.0582 30.5917 37.8782 30.4817 37.7682C30.4117 37.6982 30.0017 37.2082 29.9517 36.7882C29.9417 36.7482 29.9517 36.7382 29.9517 36.7282C30.1917 36.3082 30.3417 35.9982 30.4717 35.5282C30.4717 35.5282 30.4617 35.5082 30.4917 35.4682C30.7317 35.1482 31.2117 35.2282 31.5617 35.1482C31.7217 35.1482 31.8417 35.0182 31.8417 34.8682C31.8417 34.8682 31.9317 34.3282 31.9317 33.8782C31.9317 33.4282 31.8617 32.8382 31.8617 32.8382ZM28.9017 33.8482C28.9017 36.1682 27.0217 38.0482 24.7017 38.0482C22.3817 38.0482 20.5017 36.1682 20.5017 33.8482C20.5017 31.5282 22.3817 29.6482 24.7017 29.6482C27.0217 29.6482 28.9017 31.5282 28.9017 33.8482Z" fill="#1F1D20"/>
<path d="M31.8617 32.2288C31.8617 32.0688 31.7317 31.9488 31.5817 31.9488C31.4817 31.9488 30.8517 31.8888 30.5117 31.6288C30.3817 31.1588 30.1917 30.7288 29.9617 30.3088C29.9017 29.9188 30.3117 29.6288 30.4917 29.3288C30.5217 29.2788 30.5417 29.2488 30.5517 29.2188C30.5817 29.1188 30.5717 29.0088 30.4917 28.9288C30.4917 28.9288 30.1817 28.4788 29.8617 28.1688C29.5417 27.8488 29.0617 27.4988 29.0617 27.4988C28.9517 27.3888 28.7717 27.3888 28.6617 27.4988C28.5917 27.5688 28.1117 27.9688 27.6717 28.0288C27.6617 28.0288 27.6617 28.0288 27.6617 28.0288C27.2617 27.7988 26.8117 27.6088 26.3517 27.4888H26.3417C26.0217 27.2488 26.1017 26.7688 26.0217 26.4188C26.0217 26.2588 25.8917 26.1388 25.7417 26.1388C25.7417 26.1388 25.2017 26.0488 24.7517 26.0488C24.3017 26.0488 23.7117 26.1388 23.7117 26.1388C23.5517 26.1388 23.4317 26.2688 23.4317 26.4188C23.4317 26.5188 23.3717 27.1488 23.1117 27.4888C22.6617 27.6188 22.1917 27.8188 21.7917 28.0388C21.4017 28.0988 21.1117 27.6888 20.8117 27.5088C20.7617 27.4788 20.7317 27.4588 20.7017 27.4488C20.6017 27.4188 20.4917 27.4288 20.4117 27.5088C20.4117 27.5088 19.9617 27.8188 19.6517 28.1388C19.3317 28.4588 18.9817 28.9388 18.9817 28.9388C18.8717 29.0488 18.8717 29.2288 18.9817 29.3388C19.0517 29.4088 19.4617 29.8988 19.5117 30.3188C19.2917 30.7188 19.0917 31.1888 18.9717 31.6388C18.9717 31.6388 18.9817 31.6288 18.9717 31.6388C18.7017 31.9688 18.2517 31.8788 17.9017 31.9588C17.7417 31.9588 17.6217 32.0888 17.6217 32.2388C17.6217 32.2388 17.5317 32.7788 17.5317 33.2288C17.5317 33.6788 17.6217 34.2688 17.6217 34.2688C17.6217 34.4288 17.7517 34.5488 17.9017 34.5488C18.0017 34.5488 18.6317 34.6088 18.9717 34.8688C18.9817 34.8688 18.9717 34.8788 18.9717 34.8788C19.1017 35.3288 19.2917 35.7788 19.5117 36.1788C19.5117 36.1888 19.5117 36.1788 19.5117 36.1888C19.5517 36.5988 19.1617 36.8688 18.9817 37.1688C18.9517 37.2188 18.9317 37.2488 18.9217 37.2788C18.8917 37.3788 18.9017 37.4888 18.9817 37.5688C18.9817 37.5688 19.2917 38.0188 19.6117 38.3288C19.9317 38.6488 20.4117 38.9988 20.4117 38.9988C20.5217 39.1088 20.7017 39.1088 20.8117 38.9988C20.8817 38.9288 21.3717 38.5188 21.7917 38.4688C21.7917 38.4688 21.7917 38.4688 21.8017 38.4688C22.2117 38.6988 22.6317 38.8788 23.1017 38.9988L23.1217 39.0088C23.4417 39.2488 23.3617 39.7288 23.4417 40.0788C23.4617 40.2388 23.5417 40.3388 23.7217 40.3588C23.7217 40.3588 24.2617 40.4488 24.7117 40.4488C25.1617 40.4488 25.7517 40.3588 25.7517 40.3588C25.9117 40.3288 26.0317 40.2288 26.0317 40.0788C26.0317 39.9788 26.0917 39.3488 26.3517 39.0088C26.3517 39.0088 26.3617 38.9988 26.3717 38.9888C26.8417 38.8588 27.2017 38.7088 27.6217 38.4688C27.6417 38.4588 27.6217 38.4588 27.6717 38.4588C28.0617 38.3988 28.3517 38.8088 28.6517 38.9888C28.7017 39.0188 28.7317 39.0388 28.7617 39.0488C28.8617 39.0788 28.9717 39.0688 29.0517 38.9888C29.0517 38.9888 29.5017 38.6788 29.8117 38.3588C30.1317 38.0388 30.4817 37.5588 30.4817 37.5588C30.5917 37.4488 30.5917 37.2688 30.4817 37.1588C30.4117 37.0888 30.0017 36.5988 29.9517 36.1788C29.9417 36.1388 29.9517 36.1288 29.9517 36.1188C30.1917 35.6988 30.3417 35.3888 30.4717 34.9188C30.4717 34.9188 30.4617 34.8988 30.4917 34.8588C30.7317 34.5388 31.2117 34.6188 31.5617 34.5388C31.7217 34.5388 31.8417 34.4088 31.8417 34.2588C31.8417 34.2588 31.9317 33.7188 31.9317 33.2688C31.9317 32.8188 31.8617 32.2288 31.8617 32.2288ZM28.9017 33.2288C28.9017 35.5488 27.0217 37.4288 24.7017 37.4288C22.3817 37.4288 20.5017 35.5488 20.5017 33.2288C20.5017 30.9088 22.3817 29.0288 24.7017 29.0288C27.0217 29.0288 28.9017 30.9188 28.9017 33.2288Z" fill="white"/>
<path d="M28.7617 39.0698C28.7217 39.0498 28.6517 39.0098 28.6517 39.0098C28.6817 39.0298 28.7217 39.0498 28.7617 39.0698Z" fill="#F2F1F0"/>
<path d="M28.7617 39.0684C28.8017 39.0884 28.7917 39.0884 28.7617 39.0684V39.0684Z" fill="#F2F1F0"/>
<path d="M20.7017 27.4297C20.7417 27.4497 20.8117 27.4897 20.8117 27.4897C20.7817 27.4597 20.7417 27.4397 20.7017 27.4297Z" fill="#F2F1F0"/>
<path d="M20.7017 27.4291C20.6617 27.4091 20.6717 27.4091 20.7017 27.4291V27.4291Z" fill="#F2F1F0"/>
<path d="M18.9117 37.2793C18.8917 37.3193 18.8917 37.3093 18.9117 37.2793V37.2793Z" fill="#F2F1F0"/>
<path d="M18.9117 37.278C18.9317 37.238 18.9717 37.168 18.9717 37.168C18.9517 37.198 18.9317 37.238 18.9117 37.278Z" fill="#F2F1F0"/>
<path d="M30.5517 29.2188C30.5317 29.2587 30.4917 29.3287 30.4917 29.3287C30.5217 29.2987 30.5417 29.2587 30.5517 29.2188Z" fill="#F2F1F0"/>
<path d="M30.5517 29.2197C30.5717 29.1797 30.5717 29.1897 30.5517 29.2197V29.2197Z" fill="#F2F1F0"/>
<path opacity="0.15" d="M31.8617 52.5491C31.8617 52.3891 31.7317 52.2691 31.5817 52.2691C31.4817 52.2691 30.8517 52.2091 30.5117 51.9491C30.3817 51.4791 30.1917 51.0491 29.9617 50.6291C29.9017 50.2391 30.3117 49.9491 30.4917 49.6491C30.5217 49.5991 30.5417 49.5691 30.5517 49.5391C30.5817 49.4391 30.5717 49.3291 30.4917 49.2491C30.4917 49.2491 30.1817 48.7991 29.8617 48.4891C29.5417 48.1791 29.0617 47.8191 29.0617 47.8191C28.9517 47.7091 28.7717 47.7091 28.6617 47.8191C28.5917 47.8891 28.1117 48.2891 27.6717 48.3491C27.6617 48.3491 27.6617 48.3491 27.6617 48.3491C27.2617 48.1191 26.8117 47.9291 26.3517 47.8091H26.3417C26.0217 47.5691 26.1017 47.0891 26.0217 46.7391C26.0217 46.5791 25.8917 46.4591 25.7417 46.4591C25.7417 46.4591 25.2017 46.3691 24.7517 46.3691C24.3017 46.3691 23.7117 46.4591 23.7117 46.4591C23.5517 46.4591 23.4317 46.5891 23.4317 46.7391C23.4317 46.8391 23.3717 47.4691 23.1117 47.8091C22.6617 47.9391 22.1917 48.1391 21.7917 48.3591C21.4017 48.4191 21.1117 48.0091 20.8117 47.8291C20.7617 47.7991 20.7317 47.7791 20.7017 47.7691C20.6017 47.7391 20.4917 47.7491 20.4117 47.8291C20.4117 47.8291 19.9617 48.1391 19.6517 48.4591C19.3317 48.7791 18.9817 49.2591 18.9817 49.2591C18.8717 49.3691 18.8717 49.5491 18.9817 49.6591C19.0517 49.7291 19.4617 50.2191 19.5117 50.6391C19.2917 51.0391 19.0917 51.5091 18.9717 51.9591C18.9717 51.9591 18.9817 51.9491 18.9717 51.9591C18.7017 52.2891 18.2517 52.1991 17.9017 52.2791C17.7417 52.2791 17.6217 52.4091 17.6217 52.5591C17.6217 52.5591 17.5317 53.0991 17.5317 53.5491C17.5317 53.9991 17.6217 54.5891 17.6217 54.5891C17.6217 54.7491 17.7517 54.8691 17.9017 54.8691C18.0017 54.8691 18.6317 54.9291 18.9717 55.1891C18.9817 55.1891 18.9717 55.1991 18.9717 55.1991C19.1017 55.6491 19.2917 56.0991 19.5117 56.4991C19.5117 56.5091 19.5117 56.4991 19.5117 56.5091C19.5517 56.9191 19.1617 57.1891 18.9817 57.4891C18.9517 57.5391 18.9317 57.5691 18.9217 57.5991C18.8917 57.6991 18.9017 57.8091 18.9817 57.8891C18.9817 57.8891 19.2917 58.3391 19.6117 58.6491C19.9317 58.9691 20.4117 59.3191 20.4117 59.3191C20.5217 59.4291 20.7017 59.4291 20.8117 59.3191C20.8817 59.2491 21.3717 58.8391 21.7917 58.7891C21.7917 58.7891 21.7917 58.7891 21.8017 58.7891C22.2117 59.0191 22.6317 59.1991 23.1017 59.3191L23.1217 59.3291C23.4417 59.5691 23.3617 60.0491 23.4417 60.3991C23.4617 60.5591 23.5417 60.6591 23.7217 60.6791C23.7217 60.6791 24.2617 60.7691 24.7117 60.7691C25.1617 60.7691 25.7517 60.6791 25.7517 60.6791C25.9117 60.6491 26.0317 60.5491 26.0317 60.3991C26.0317 60.2991 26.0917 59.6691 26.3517 59.3291C26.3517 59.3291 26.3617 59.3191 26.3717 59.3091C26.8417 59.1791 27.2017 59.0291 27.6217 58.7891C27.6417 58.7791 27.6217 58.7791 27.6717 58.7791C28.0617 58.7191 28.3517 59.1291 28.6517 59.3091C28.7017 59.3391 28.7317 59.3591 28.7617 59.3691C28.8617 59.3991 28.9717 59.3891 29.0517 59.3091C29.0517 59.3091 29.5017 58.9991 29.8117 58.6791C30.1317 58.3591 30.4817 57.8791 30.4817 57.8791C30.5917 57.7691 30.5917 57.5891 30.4817 57.4791C30.4117 57.4091 30.0017 56.9191 29.9517 56.4991C29.9417 56.4591 29.9517 56.4491 29.9517 56.4391C30.1917 56.0191 30.3417 55.7091 30.4717 55.2391C30.4717 55.2391 30.4617 55.2191 30.4917 55.1791C30.7317 54.8591 31.2117 54.9391 31.5617 54.8591C31.7217 54.8591 31.8417 54.7291 31.8417 54.5791C31.8417 54.5791 31.9317 54.0391 31.9317 53.5891C31.9317 53.1391 31.8617 52.5491 31.8617 52.5491ZM28.9017 53.5491C28.9017 55.8691 27.0217 57.7491 24.7017 57.7491C22.3817 57.7491 20.5017 55.8691 20.5017 53.5491C20.5017 51.2291 22.3817 49.3491 24.7017 49.3491C27.0217 49.3491 28.9017 51.2391 28.9017 53.5491Z" fill="#1F1D20"/>
<path d="M31.8617 51.93C31.8617 51.77 31.7317 51.65 31.5817 51.65C31.4817 51.65 30.8517 51.59 30.5117 51.33C30.3817 50.86 30.1917 50.43 29.9617 50.01C29.9017 49.62 30.3117 49.33 30.4917 49.03C30.5217 48.98 30.5417 48.95 30.5517 48.92C30.5817 48.82 30.5717 48.71 30.4917 48.63C30.4917 48.63 30.1817 48.18 29.8617 47.87C29.5417 47.55 29.0617 47.2 29.0617 47.2C28.9517 47.09 28.7717 47.09 28.6617 47.2C28.5917 47.27 28.1117 47.67 27.6717 47.73C27.6617 47.73 27.6617 47.73 27.6617 47.73C27.2617 47.5 26.8117 47.31 26.3517 47.19H26.3417C26.0217 46.95 26.1017 46.47 26.0217 46.12C26.0217 45.96 25.8917 45.84 25.7417 45.84C25.7417 45.84 25.2017 45.75 24.7517 45.75C24.3017 45.75 23.7117 45.84 23.7117 45.84C23.5517 45.84 23.4317 45.97 23.4317 46.12C23.4317 46.22 23.3717 46.85 23.1117 47.19C22.6617 47.32 22.1917 47.52 21.7917 47.74C21.4017 47.8 21.1117 47.39 20.8117 47.21C20.7617 47.18 20.7317 47.16 20.7017 47.15C20.6017 47.12 20.4917 47.13 20.4117 47.21C20.4117 47.21 19.9617 47.52 19.6517 47.84C19.3317 48.16 18.9817 48.64 18.9817 48.64C18.8717 48.75 18.8717 48.93 18.9817 49.04C19.0517 49.11 19.4617 49.6 19.5117 50.02C19.2917 50.42 19.0917 50.89 18.9717 51.34C18.9717 51.34 18.9817 51.33 18.9717 51.34C18.7017 51.67 18.2517 51.58 17.9017 51.66C17.7417 51.66 17.6217 51.79 17.6217 51.94C17.6217 51.94 17.5317 52.48 17.5317 52.93C17.5317 53.38 17.6217 53.97 17.6217 53.97C17.6217 54.13 17.7517 54.25 17.9017 54.25C18.0017 54.25 18.6317 54.31 18.9717 54.57C18.9817 54.57 18.9717 54.58 18.9717 54.58C19.1017 55.03 19.2917 55.48 19.5117 55.88C19.5117 55.89 19.5117 55.88 19.5117 55.89C19.5517 56.3 19.1617 56.57 18.9817 56.87C18.9517 56.92 18.9317 56.95 18.9217 56.98C18.8917 57.08 18.9017 57.19 18.9817 57.27C18.9817 57.27 19.2917 57.72 19.6117 58.03C19.9317 58.35 20.4117 58.7 20.4117 58.7C20.5217 58.81 20.7017 58.81 20.8117 58.7C20.8817 58.63 21.3717 58.22 21.7917 58.17C21.7917 58.17 21.7917 58.17 21.8017 58.17C22.2117 58.4 22.6317 58.58 23.1017 58.7L23.1217 58.71C23.4417 58.95 23.3617 59.43 23.4417 59.78C23.4617 59.94 23.5417 60.04 23.7217 60.06C23.7217 60.06 24.2617 60.15 24.7117 60.15C25.1617 60.15 25.7517 60.06 25.7517 60.06C25.9117 60.03 26.0317 59.93 26.0317 59.78C26.0317 59.68 26.0917 59.05 26.3517 58.71C26.3517 58.71 26.3617 58.7 26.3717 58.69C26.8417 58.56 27.2017 58.41 27.6217 58.17C27.6417 58.16 27.6217 58.16 27.6717 58.16C28.0617 58.1 28.3517 58.51 28.6517 58.69C28.7017 58.72 28.7317 58.74 28.7617 58.75C28.8617 58.78 28.9717 58.77 29.0517 58.69C29.0517 58.69 29.5017 58.38 29.8117 58.06C30.1317 57.74 30.4817 57.26 30.4817 57.26C30.5917 57.15 30.5917 56.97 30.4817 56.86C30.4117 56.79 30.0017 56.3 29.9517 55.88C29.9417 55.84 29.9517 55.83 29.9517 55.82C30.1917 55.4 30.3417 55.09 30.4717 54.62C30.4717 54.62 30.4617 54.6 30.4917 54.56C30.7317 54.24 31.2117 54.32 31.5617 54.24C31.7217 54.24 31.8417 54.11 31.8417 53.96C31.8417 53.96 31.9317 53.42 31.9317 52.97C31.9317 52.52 31.8617 51.93 31.8617 51.93ZM28.9017 52.94C28.9017 55.26 27.0217 57.14 24.7017 57.14C22.3817 57.14 20.5017 55.26 20.5017 52.94C20.5017 50.62 22.3817 48.74 24.7017 48.74C27.0217 48.74 28.9017 50.62 28.9017 52.94Z" fill="white"/>
<path d="M28.7617 58.7709C28.7217 58.7509 28.6517 58.7109 28.6517 58.7109C28.6817 58.7409 28.7217 58.7609 28.7617 58.7709Z" fill="#F2F1F0"/>
<path d="M28.7617 58.7695C28.8017 58.7895 28.7917 58.7895 28.7617 58.7695V58.7695Z" fill="#F2F1F0"/>
<path d="M20.7017 47.1309C20.7417 47.1509 20.8117 47.1909 20.8117 47.1909C20.7817 47.1709 20.7417 47.1509 20.7017 47.1309Z" fill="#F2F1F0"/>
<path d="M20.7017 47.1302C20.6617 47.1102 20.6717 47.1102 20.7017 47.1302V47.1302Z" fill="#F2F1F0"/>
<path d="M18.9117 56.9805C18.8917 57.0205 18.8917 57.0105 18.9117 56.9805V56.9805Z" fill="#F2F1F0"/>
<path d="M18.9117 56.9791C18.9317 56.9391 18.9717 56.8691 18.9717 56.8691C18.9517 56.8991 18.9317 56.9391 18.9117 56.9791Z" fill="#F2F1F0"/>
<path d="M30.5517 48.9199C30.5317 48.9599 30.4917 49.0299 30.4917 49.0299C30.5217 48.9999 30.5417 48.9599 30.5517 48.9199Z" fill="#F2F1F0"/>
<path d="M30.5517 48.9209C30.5717 48.8809 30.5717 48.8909 30.5517 48.9209V48.9209Z" fill="#F2F1F0"/>
<path opacity="0.15" d="M31.8617 72.2484C31.8617 72.0884 31.7317 71.9684 31.5817 71.9684C31.4817 71.9684 30.8517 71.9084 30.5117 71.6484C30.3817 71.1784 30.1917 70.7484 29.9617 70.3284C29.9017 69.9384 30.3117 69.6484 30.4917 69.3484C30.5217 69.2984 30.5417 69.2684 30.5517 69.2384C30.5817 69.1384 30.5717 69.0284 30.4917 68.9484C30.4917 68.9484 30.1817 68.4984 29.8617 68.1884C29.5417 67.8784 29.0617 67.5184 29.0617 67.5184C28.9517 67.4084 28.7717 67.4084 28.6617 67.5184C28.5917 67.5884 28.1117 67.9884 27.6717 68.0484C27.6617 68.0484 27.6617 68.0484 27.6617 68.0484C27.2617 67.8184 26.8117 67.6284 26.3517 67.5084H26.3417C26.0217 67.2684 26.1017 66.7884 26.0217 66.4384C26.0217 66.2784 25.8917 66.1584 25.7417 66.1584C25.7417 66.1584 25.2017 66.0684 24.7517 66.0684C24.3017 66.0684 23.7117 66.1584 23.7117 66.1584C23.5517 66.1584 23.4317 66.2884 23.4317 66.4384C23.4317 66.5384 23.3717 67.1684 23.1117 67.5084C22.6617 67.6384 22.1917 67.8384 21.7917 68.0584C21.4017 68.1184 21.1117 67.7084 20.8117 67.5284C20.7617 67.4984 20.7317 67.4784 20.7017 67.4684C20.6017 67.4384 20.4917 67.4484 20.4117 67.5284C20.4117 67.5284 19.9617 67.8384 19.6517 68.1584C19.3317 68.4784 18.9817 68.9584 18.9817 68.9584C18.8717 69.0684 18.8717 69.2484 18.9817 69.3584C19.0517 69.4284 19.4617 69.9184 19.5117 70.3384C19.2917 70.7384 19.0917 71.2084 18.9717 71.6584C18.9717 71.6584 18.9817 71.6484 18.9717 71.6584C18.7017 71.9884 18.2517 71.8984 17.9017 71.9784C17.7417 71.9784 17.6217 72.1084 17.6217 72.2584C17.6217 72.2584 17.5317 72.7984 17.5317 73.2484C17.5317 73.6984 17.6217 74.2884 17.6217 74.2884C17.6217 74.4484 17.7517 74.5684 17.9017 74.5684C18.0017 74.5684 18.6317 74.6284 18.9717 74.8884C18.9817 74.8884 18.9717 74.8984 18.9717 74.8984C19.1017 75.3484 19.2917 75.7984 19.5117 76.1984C19.5117 76.2084 19.5117 76.1984 19.5117 76.2084C19.5517 76.6184 19.1617 76.8884 18.9817 77.1884C18.9517 77.2384 18.9317 77.2684 18.9217 77.2984C18.8917 77.3984 18.9017 77.5084 18.9817 77.5884C18.9817 77.5884 19.2917 78.0384 19.6117 78.3484C19.9317 78.6684 20.4117 79.0184 20.4117 79.0184C20.5217 79.1284 20.7017 79.1284 20.8117 79.0184C20.8817 78.9484 21.3717 78.5384 21.7917 78.4884C21.7917 78.4884 21.7917 78.4884 21.8017 78.4884C22.2117 78.7184 22.6317 78.8984 23.1017 79.0184L23.1217 79.0284C23.4417 79.2684 23.3617 79.7484 23.4417 80.0984C23.4617 80.2584 23.5417 80.3584 23.7217 80.3784C23.7217 80.3784 24.2617 80.4684 24.7117 80.4684C25.1617 80.4684 25.7517 80.3784 25.7517 80.3784C25.9117 80.3484 26.0317 80.2484 26.0317 80.0984C26.0317 79.9984 26.0917 79.3684 26.3517 79.0284C26.3517 79.0284 26.3617 79.0184 26.3717 79.0084C26.8417 78.8784 27.2017 78.7284 27.6217 78.4884C27.6417 78.4784 27.6217 78.4784 27.6717 78.4784C28.0617 78.4184 28.3517 78.8284 28.6517 79.0084C28.7017 79.0384 28.7317 79.0584 28.7617 79.0684C28.8617 79.0984 28.9717 79.0884 29.0517 79.0084C29.0517 79.0084 29.5017 78.6984 29.8117 78.3784C30.1317 78.0584 30.4817 77.5784 30.4817 77.5784C30.5917 77.4684 30.5917 77.2884 30.4817 77.1784C30.4117 77.1084 30.0017 76.6184 29.9517 76.1984C29.9417 76.1584 29.9517 76.1484 29.9517 76.1384C30.1917 75.7184 30.3417 75.4084 30.4717 74.9384C30.4717 74.9384 30.4617 74.9184 30.4917 74.8784C30.7317 74.5584 31.2117 74.6384 31.5617 74.5584C31.7217 74.5584 31.8417 74.4284 31.8417 74.2784C31.8417 74.2784 31.9317 73.7384 31.9317 73.2884C31.9317 72.8384 31.8617 72.2484 31.8617 72.2484ZM28.9017 73.2584C28.9017 75.5784 27.0217 77.4584 24.7017 77.4584C22.3817 77.4584 20.5017 75.5784 20.5017 73.2584C20.5017 70.9384 22.3817 69.0584 24.7017 69.0584C27.0217 69.0584 28.9017 70.9384 28.9017 73.2584Z" fill="#1F1D20"/>
<path d="M31.8617 71.639C31.8617 71.479 31.7317 71.359 31.5817 71.359C31.4817 71.359 30.8517 71.299 30.5117 71.039C30.3817 70.569 30.1917 70.139 29.9617 69.719C29.9017 69.329 30.3117 69.039 30.4917 68.739C30.5217 68.689 30.5417 68.659 30.5517 68.629C30.5817 68.529 30.5717 68.419 30.4917 68.339C30.4917 68.339 30.1817 67.889 29.8617 67.579C29.5417 67.259 29.0617 66.909 29.0617 66.909C28.9517 66.799 28.7717 66.799 28.6617 66.909C28.5917 66.979 28.1117 67.379 27.6717 67.439C27.6617 67.439 27.6617 67.439 27.6617 67.439C27.2617 67.209 26.8117 67.019 26.3517 66.899H26.3417C26.0217 66.659 26.1017 66.179 26.0217 65.829C26.0217 65.669 25.8917 65.549 25.7417 65.549C25.7417 65.549 25.2017 65.459 24.7517 65.459C24.3017 65.459 23.7117 65.549 23.7117 65.549C23.5517 65.549 23.4317 65.679 23.4317 65.829C23.4317 65.929 23.3717 66.559 23.1117 66.899C22.6617 67.029 22.1917 67.229 21.7917 67.449C21.4017 67.509 21.1117 67.099 20.8117 66.919C20.7617 66.889 20.7317 66.869 20.7017 66.859C20.6017 66.829 20.4917 66.839 20.4117 66.919C20.4117 66.919 19.9617 67.229 19.6517 67.549C19.3317 67.869 18.9817 68.349 18.9817 68.349C18.8717 68.459 18.8717 68.639 18.9817 68.749C19.0517 68.819 19.4617 69.309 19.5117 69.729C19.2917 70.129 19.0917 70.599 18.9717 71.049C18.9717 71.049 18.9817 71.039 18.9717 71.049C18.7017 71.379 18.2517 71.289 17.9017 71.369C17.7417 71.369 17.6217 71.499 17.6217 71.649C17.6217 71.649 17.5317 72.189 17.5317 72.639C17.5317 73.089 17.6217 73.679 17.6217 73.679C17.6217 73.839 17.7517 73.959 17.9017 73.959C18.0017 73.959 18.6317 74.019 18.9717 74.279C18.9817 74.279 18.9717 74.289 18.9717 74.289C19.1017 74.739 19.2917 75.189 19.5117 75.589C19.5117 75.599 19.5117 75.589 19.5117 75.599C19.5517 76.009 19.1617 76.279 18.9817 76.579C18.9517 76.629 18.9317 76.659 18.9217 76.689C18.8917 76.789 18.9017 76.899 18.9817 76.979C18.9817 76.979 19.2917 77.429 19.6117 77.739C19.9317 78.059 20.4117 78.409 20.4117 78.409C20.5217 78.519 20.7017 78.519 20.8117 78.409C20.8817 78.339 21.3717 77.929 21.7917 77.879C21.7917 77.879 21.7917 77.879 21.8017 77.879C22.2117 78.109 22.6317 78.289 23.1017 78.409L23.1217 78.419C23.4417 78.659 23.3617 79.139 23.4417 79.489C23.4617 79.649 23.5417 79.749 23.7217 79.769C23.7217 79.769 24.2617 79.859 24.7117 79.859C25.1617 79.859 25.7517 79.769 25.7517 79.769C25.9117 79.739 26.0317 79.639 26.0317 79.489C26.0317 79.389 26.0917 78.759 26.3517 78.419C26.3517 78.419 26.3617 78.409 26.3717 78.399C26.8417 78.269 27.2017 78.119 27.6217 77.879C27.6417 77.869 27.6217 77.869 27.6717 77.869C28.0617 77.809 28.3517 78.219 28.6517 78.399C28.7017 78.429 28.7317 78.449 28.7617 78.459C28.8617 78.489 28.9717 78.479 29.0517 78.399C29.0517 78.399 29.5017 78.089 29.8117 77.769C30.1317 77.449 30.4817 76.969 30.4817 76.969C30.5917 76.859 30.5917 76.679 30.4817 76.569C30.4117 76.499 30.0017 76.009 29.9517 75.589C29.9417 75.549 29.9517 75.539 29.9517 75.529C30.1917 75.109 30.3417 74.799 30.4717 74.329C30.4717 74.329 30.4617 74.309 30.4917 74.269C30.7317 73.949 31.2117 74.029 31.5617 73.949C31.7217 73.949 31.8417 73.819 31.8417 73.669C31.8417 73.669 31.9317 73.129 31.9317 72.679C31.9317 72.229 31.8617 71.639 31.8617 71.639ZM28.9017 72.639C28.9017 74.959 27.0217 76.839 24.7017 76.839C22.3817 76.839 20.5017 74.959 20.5017 72.639C20.5017 70.319 22.3817 68.439 24.7017 68.439C27.0217 68.439 28.9017 70.329 28.9017 72.639Z" fill="white"/>
<path d="M28.7617 78.4682C28.7217 78.4482 28.6517 78.4082 28.6517 78.4082C28.6817 78.4382 28.7217 78.4582 28.7617 78.4682Z" fill="#F2F1F0"/>
<path d="M28.7617 78.4785C28.8017 78.4985 28.7917 78.4885 28.7617 78.4785V78.4785Z" fill="#F2F1F0"/>
<path d="M20.7017 66.8398C20.7417 66.8598 20.8117 66.8998 20.8117 66.8998C20.7817 66.8698 20.7417 66.8498 20.7017 66.8398Z" fill="#F2F1F0"/>
<path d="M20.7017 66.8392C20.6617 66.8092 20.6717 66.8192 20.7017 66.8392V66.8392Z" fill="#F2F1F0"/>
<path d="M18.9117 76.6895C18.8917 76.7195 18.8917 76.7195 18.9117 76.6895V76.6895Z" fill="#F2F1F0"/>
<path d="M18.9117 76.6784C18.9317 76.6384 18.9717 76.5684 18.9717 76.5684C18.9517 76.6084 18.9317 76.6484 18.9117 76.6784Z" fill="#F2F1F0"/>
<path d="M30.5517 68.6289C30.5317 68.6689 30.4917 68.7389 30.4917 68.7389C30.5217 68.6989 30.5417 68.6689 30.5517 68.6289Z" fill="#F2F1F0"/>
<path d="M30.5517 68.6185C30.5717 68.5885 30.5717 68.5985 30.5517 68.6185V68.6185Z" fill="#F2F1F0"/>
<path d="M39.7018 73.5591H34.9018C34.6818 73.5591 34.5018 73.3791 34.5018 73.1591C34.5018 72.9391 34.6818 72.7591 34.9018 72.7591H39.3018V33.9191H34.9018C34.6818 33.9191 34.5018 33.7391 34.5018 33.5191C34.5018 33.2991 34.6818 33.1191 34.9018 33.1191H39.7018C39.9218 33.1191 40.1018 33.2991 40.1018 33.5191V73.1591C40.1018 73.3791 39.9218 73.5591 39.7018 73.5591Z" fill="white"/>
<path d="M85.6918 53.1281H34.8918C34.6718 53.1281 34.4918 52.9481 34.4918 52.7281C34.4918 52.5081 34.6718 52.3281 34.8918 52.3281H85.6918C85.9118 52.3281 86.0918 52.5081 86.0918 52.7281C86.0918 52.9481 85.9118 53.1281 85.6918 53.1281Z" fill="white"/>
<path d="M85.4417 49.2188L91.5117 52.7188L85.4417 56.2287V49.2188V49.2188Z" fill="white"/>
<path opacity="0.15" d="M81.1417 72.7894V36.6895C81.1417 35.5895 80.2517 34.6895 79.1417 34.6895H45.2217C44.1217 34.6895 43.2217 35.5795 43.2217 36.6895V72.7894C43.2217 73.8894 44.1117 74.7894 45.2217 74.7894H79.1417C80.2417 74.7894 81.1417 73.8994 81.1417 72.7894Z" fill="#1F1D20"/>
<path d="M81.1417 72.2995V34.1695C81.1417 33.6295 80.7017 33.1895 80.1617 33.1895H44.2017C43.6617 33.1895 43.2217 33.6295 43.2217 34.1695V72.2995C43.2217 72.8395 43.6617 73.2795 44.2017 73.2795H80.1617C80.7017 73.2795 81.1417 72.8395 81.1417 72.2995Z" fill="white"/>
<path d="M58.8733 61.9859L62.3444 65.457H67.9776C68.6641 65.457 69.2159 64.8988 69.2159 64.2187V51.207L58.8733 61.5561C58.7514 61.6716 58.7514 61.864 58.8733 61.9859Z" fill="#235DC1"/>
<path d="M50.0381 47.5181V53.1514L53.5092 56.6225C53.6311 56.7444 53.8236 56.7444 53.9391 56.6225L64.2881 46.2734H51.2764C50.5963 46.2734 50.0381 46.8316 50.0381 47.5181Z" fill="#3B6EC6"/>
<path d="M63.0616 41.2112L54.708 53.9919C54.4257 54.4282 54.4834 54.9992 54.8491 55.365L60.2001 60.7159C60.5658 61.0816 61.1433 61.1394 61.5731 60.8571L74.3538 52.497C75.1687 51.9645 75.6563 51.0534 75.6563 50.0846V41.1727C75.6563 40.4734 75.0853 39.9023 74.3859 39.9023H65.4805C64.5052 39.9023 63.6006 40.3964 63.0616 41.2112Z" fill="#5D8DE4"/>
<path d="M51.918 63.7005V59.1836H50.0381V65.4841H56.4349V63.7005H51.918Z" fill="#9FBBF0"/>
<path d="M69.2468 49.3725C71.0044 49.3725 72.4291 47.9477 72.4291 46.1902C72.4291 44.4326 71.0044 43.0078 69.2468 43.0078C67.4892 43.0078 66.0645 44.4326 66.0645 46.1902C66.0645 47.9477 67.4892 49.3725 69.2468 49.3725Z" fill="#ADC5F2"/>
<path d="M63.5497 50.4527L56.7446 57.2578L58.3143 58.8275L65.1194 52.0224L63.5497 50.4527Z" fill="#6C9AEE"/>
<path d="M56.9597 60.182L58.3117 58.8301L56.742 57.2604L55.39 58.6123L56.9597 60.182Z" fill="#88ACEF"/>
<defs>
<linearGradient id="paint0_linear_304_20302" x1="49.4087" y1="-13.1123" x2="53.3907" y2="132.658" gradientUnits="userSpaceOnUse">
<stop stop-color="#00ABDE"/>
<stop offset="1" stop-color="#007ED8"/>
</linearGradient>
<linearGradient id="paint1_linear_304_20302" x1="2.61294" y1="-19.9449" x2="98.1405" y2="120.936" gradientUnits="userSpaceOnUse">
<stop stop-color="#007ED8"/>
<stop offset="0.7065" stop-color="#002D4C"/>
</linearGradient>
</defs>
</svg>
