<svg width="103" height="103" viewBox="0 0 103 103" fill="none" xmlns="http://www.w3.org/2000/svg"><path d="M51.8237 98.0697c-25.85 0-46.81003-20.95-46.81003-46.81 0-25.86 20.96003-46.80999 46.81003-46.80999 25.85 0 46.81 20.95999 46.81 46.80999 0 25.85-20.96 46.81-46.81 46.81z" fill="url(#paint0_linear_20748)"/><path fill-rule="evenodd" clip-rule="evenodd" d="M97.7237 51.2599c0 25.35-20.55 45.9-45.9 45.9-25.35 0-45.90003-20.55-45.90003-45.9 0-25.35 20.55003-45.90002 45.90003-45.90002s45.9 20.55002 45.9 45.90002zm-45.9-49.64003c27.42 0 49.6403 22.22003 49.6403 49.64003S79.2337 100.9 51.8237 100.9c-27.42 0-49.64003-22.2301-49.64003-49.6401 0-27.42 22.22003-49.64003 49.64003-49.64003z" fill="#F2F1F0"/><path fill-rule="evenodd" clip-rule="evenodd" d="M94.9137 51.2597c0 23.8-19.29 43.09-43.09 43.09-23.8 0-43.09003-19.29-43.09003-43.09 0-23.8 19.29003-43.09001 43.09003-43.09001 23.8 0 43.09 19.29001 43.09 43.09001zm-43.09-46.83001c25.86 0 46.83 20.97001 46.83 46.83001 0 25.86-20.97 46.83-46.83 46.83s-46.83003-20.97-46.83003-46.83S25.9537 4.42969 51.8237 4.42969z" fill="url(#paint1_linear_20748)"/><path fill-rule="evenodd" clip-rule="evenodd" d="M64.6973 67.9609h15.5323v1.2H64.6973v-1.2zM64.6973 56.6807h15.5323v1.2H64.6973v-1.2zM64.6972 45.3931h15.5323v1.2H64.6972v-1.2zM64.6973 34.1062h15.5323v1.2H64.6973v-1.2z" fill="#fff"/><path d="M86.3704 29.7334H75.1501c-.6876 0-1.2416.554-1.2416 1.2415v6.8684c0 .6875.554 1.2415 1.2416 1.2415h11.227c.6875.0067 1.2415-.5473 1.2415-1.2348v-6.8684c-.0067-.6942-.5607-1.2482-1.2482-1.2482z" fill="#50E6FF"/><path d="M86.3704 52.6013H75.1501c-.6876 0-1.2416.554-1.2416 1.2415v6.8751c0 .6875.554 1.2415 1.2416 1.2415h11.227c.6875 0 1.2415-.554 1.2415-1.2415v-6.8684c-.0067-.6942-.5607-1.2482-1.2482-1.2482z" fill="#3BCAF4"/><path d="M86.3702 41.147H75.1498c-.6875 0-1.2415.554-1.2415 1.2415v6.8684c0 .6875.554 1.2415 1.2415 1.2415h11.227c.6876.0067 1.2416-.5473 1.2416-1.2415v-6.8684c-.0067-.6875-.5607-1.2415-1.2482-1.2415z" fill="#50E6FF"/><path d="M86.3704 64.0154H75.1501c-.6876 0-1.2416.554-1.2416 1.2415v6.8751c0 .6875.554 1.2415 1.2416 1.2415h11.227c.6875 0 1.2415-.554 1.2415-1.2415v-6.8684c-.0067-.6875-.5607-1.2482-1.2482-1.2482z" fill="#0078D4"/><path opacity=".15" d="M18.6274 74.2758h48.2863c1.3526 0 2.4516-1.099 2.4516-2.4515V33.3186H16.1759v38.5057c0 1.3525 1.0989 2.4515 2.4515 2.4515z" fill="#1F1D20"/><path d="M17.1903 72.0358h51.1605c.558 0 1.0145-.4565 1.0145-1.0144V31.0786H16.1759v39.9428c0 .5579.4565 1.0144 1.0144 1.0144z" fill="#EBEBEB"/><path d="M16.176 35.4996h53.1893v-4.7678c0-.4311-.3465-.7777-.7777-.7777H16.9537c-.4311 0-.7777.3466-.7777.7777v4.7678z" fill="#092E4C"/><path d="M20.2674 34.1893c.7439 0 1.3525-.6002 1.3525-1.3525 0-.7524-.6171-1.3441-1.3525-1.3441-.7439 0-1.3526.6002-1.3526 1.3525 0 .7524.5918 1.3441 1.3526 1.3441z" fill="#32B0E7"/><path fill="#fff" d="M19.6191 38.0659h46.784V67.848h-46.784z"/><path fill-rule="evenodd" clip-rule="evenodd" d="M16.0475 62.1423h20.0218l19.5602-19.5691h-39.582v19.5691z" fill="#002169"/><path fill-rule="evenodd" clip-rule="evenodd" d="M39.5315 46.2685h-3.8659v9.2361l-3.4043-9.2361h-3.3466l-2.885 7.7353c-.2885-1.9627-2.308-2.5977-3.9236-3.1172-1.0386-.3464-2.1349-.8659-2.1349-1.3854 0-.4619.577-.8659 1.7887-.8082.8078.0577 1.5002.1154 2.8273.7504l1.2694-2.3667c-1.2694-.635-3.0004-1.0391-4.3852-1.0391-1.6733 0-3.0581.5195-3.9236 1.4431-.577.5773-.9232 1.3855-.9232 2.2514 0 1.2122.4039 2.0204 1.3271 2.7131.7501.5772 1.7887.9236 2.6542 1.2122 1.0963.3464 1.9618.635 1.9618 1.27 0 .2309-.1154.4618-.2308.635-.2885.2886-.6924.4041-1.2694.4041-1.0963 0-1.9041-.1732-3.2312-.9237l-1.2117 2.3668c1.3271.7504 2.8273 1.1545 4.3852 1.1545h.1731c1.3848 0 2.4811-.4041 3.3466-1.1545.0577-.0577.1154-.0577.1154-.1155l-.4039 1.0391h3.5197l.577-1.7895c.6347.2309 1.3271.3464 2.0772.3464s1.4425-.1155 2.0195-.2887l.577 1.7895h5.77v-3.7521h1.2694c3.0581 0 4.8468-1.5586 4.8468-4.1563.1154-2.8863-1.6733-4.214-5.3661-4.214zm-9.0012 7.9084c-.4616 0-.8655-.0577-1.2694-.2309l1.2117-3.8676 1.2117 3.9254c-.2885.1154-.6924.1731-1.154.1731zm9.232-2.2513h-.8655v-3.1172h.8655c1.154 0 2.0772.4041 2.0772 1.5586 0 1.2123-.9232 1.5586-2.0772 1.5586z" fill="#fff"/><path d="M40.8584 60.873c0-.5773.4616-1.0391 1.0386-1.0391s1.0386.4618 1.0386 1.0391c0 .635-.4616 1.0391-1.0386 1.0391s-1.0386-.4041-1.0386-1.0391zm1.0386 1.27c.6924 0 1.2694-.5196 1.2694-1.27 0-.7504-.577-1.27-1.2694-1.27-.6924 0-1.2694.5196-1.2694 1.27 0 .7504.577 1.27 1.2694 1.27zm-.2885-1.1546h.2308l.4039.635h.2308l-.4039-.635c.2308 0 .4039-.1154.4039-.404 0-.2887-.1731-.4041-.5193-.4041h-.577v1.4431h.2308v-.635zm0-.2309v-.4618h.2885c.1731 0 .2885.0578.2885.2309 0 .2309-.1731.2309-.3462.2309h-.2308z" fill="#002169"/><path d="M59.8082 74.4528c6.7803 0 12.2769-5.4966 12.2769-12.2769 0-6.7804-5.4966-12.277-12.2769-12.277-6.7804 0-12.277 5.4966-12.277 12.277 0 6.7803 5.4966 12.2769 12.277 12.2769z" fill="#fff"/><path d="M82.4097 82.4664L70.3943 70.4597c1.7439-2.267 2.7728-5.1008 2.7728-8.1701 0-7.4289-6.0251-13.4366-13.4366-13.4366s-13.4366 6.0077-13.4366 13.4366c0 7.429 6.0077 13.4367 13.4366 13.4367 2.982 0 5.7199-.9679 7.9608-2.6071l12.0328 12.0327s1.0463.4099 2.1537-.7585c1.1074-1.1684.5319-1.927.5319-1.927zM48.2993 62.3332c0-6.2954 5.1009-11.3962 11.3963-11.3962s11.3963 5.1008 11.3963 11.3962c0 6.2955-5.1183 11.3963-11.4137 11.3963-6.2954 0-11.3789-5.1008-11.3789-11.3963z" fill="#092E4C"/><path d="M65.651 56.7532H53.8972c-.5144 0-.9242.4185-.9242.9242 0 .5145.4185.9243.9242.9243h11.7451c.5144 0 .9242-.4185.9242-.9243 0-.5144-.4098-.9242-.9155-.9242z" fill="#50E6FF"/><path d="M65.651 60.7727H53.8972c-.5144 0-.9242.4185-.9242.9243 0 .5144.4185.9242.9242.9242h11.7451c.5144 0 .9242-.4185.9242-.9242 0-.5058-.4098-.9243-.9155-.9243z" fill="#32B0E7"/><path fill-rule="evenodd" clip-rule="evenodd" d="M53.8972 65.0977h5.8682c.5144 0 .9243.4185.9243.9242 0 .5145-.4186.9243-.9243.9243h-5.8682c-.5144 0-.9242-.4186-.9242-.9243s.4098-.9242.9242-.9242z" fill="#185A97"/><defs><linearGradient id="paint0_linear_20748" x1="50.0498" y1="-13.5298" x2="54.0318" y2="132.24" gradientUnits="userSpaceOnUse"><stop stop-color="#00ABDE"/><stop offset="1" stop-color="#007ED8"/></linearGradient><linearGradient id="paint1_linear_20748" x1="3.25407" y1="-20.3629" x2="98.7816" y2="120.518" gradientUnits="userSpaceOnUse"><stop stop-color="#007ED8"/><stop offset=".7065" stop-color="#002D4C"/></linearGradient></defs></svg>