<svg width="103" height="107" viewBox="0 0 103 107" fill="none" xmlns="http://www.w3.org/2000/svg">
<path d="M51.6528 97.9423C25.8028 97.9423 4.84277 76.9923 4.84277 51.1323C4.84277 25.2723 25.8028 4.32227 51.6528 4.32227C77.5028 4.32227 98.4628 25.2823 98.4628 51.1323C98.4628 76.9823 77.5028 97.9423 51.6528 97.9423Z" fill="url(#paint0_linear_1283_4446)"/>
<path fill-rule="evenodd" clip-rule="evenodd" d="M97.5527 51.1324C97.5527 76.4824 77.0027 97.0324 51.6527 97.0324C26.3027 97.0324 5.7527 76.4824 5.7527 51.1324C5.7527 25.7824 26.3027 5.23244 51.6527 5.23244C77.0027 5.23244 97.5527 25.7824 97.5527 51.1324ZM51.6527 1.49243C79.0727 1.49243 101.293 23.7124 101.293 51.1324C101.293 78.5524 79.0627 100.772 51.6527 100.772C24.2327 100.772 2.0127 78.5424 2.0127 51.1324C2.0127 23.7124 24.2327 1.49243 51.6527 1.49243Z" fill="#F2F1F0"/>
<path fill-rule="evenodd" clip-rule="evenodd" d="M83.9241 43.8955C79.8308 38.8455 73.5857 35.6255 66.58 35.6255C54.2599 35.6255 44.2818 45.6055 44.2818 57.9055C44.2818 59.8255 44.522 61.6955 44.9823 63.4755C40.4687 63.5955 36.8457 67.2855 36.8457 71.8255C36.8457 76.4455 40.5888 80.1855 45.2125 80.1855H83.4885C88.1023 80.1855 92.1219 74.3292 92.1219 69.7092C92.1219 65.0992 94.6999 65.8302 95.8981 62.7862L96.4226 57.1218C97.1232 55.4018 97.4305 57.5204 97.4305 55.5504C97.4305 47.3504 97.1049 43.0355 88.8882 43.0355C87.1468 43.0555 85.4754 43.3555 83.9241 43.8955Z" fill="url(#paint1_linear_1283_4446)"/>
<path fill-rule="evenodd" clip-rule="evenodd" d="M35.6949 45.4585C31.6016 40.4085 25.3565 37.1885 18.3508 37.1885C13.4601 37.135 7.72908 41.0358 6.85352 43.5037C6.85352 45.4237 9.38652 63.2585 9.8469 65.0385C11.846 68.9347 16.1912 70.3522 16.1912 74.8922C20.4776 79.4382 19.6514 81.7485 24.2752 81.7485L54.6004 81.7485C59.2141 81.7485 62.9672 78.0085 62.9672 73.3885C62.9672 68.7785 59.2242 65.0285 54.6004 65.0285H54.4503C55.1508 63.3085 55.5311 61.4285 55.5311 59.4585C55.5311 51.2585 48.8757 44.5985 40.659 44.5985C38.9176 44.6185 37.2462 44.9185 35.6949 45.4585Z" fill="url(#paint2_linear_1283_4446)"/>
<g filter="url(#filter0_i_1283_4446)">
<path fill-rule="evenodd" clip-rule="evenodd" d="M65.8064 64.01C59.0796 55.711 48.8167 50.4194 37.3038 50.4194C17.0576 50.4194 11.1063 57.8358 9.27539 63.717C9.27539 66.8722 13.3458 72.9426 14.1024 75.8678C16.9875 79.8071 17.4864 79.918 18.8736 82.7477C26.5299 88.6289 35.2434 95.2313 42.8418 95.2313L51.8863 95.7861C59.4683 95.7861 68.6421 93.3449 74.0056 89.8794C77.8523 86.2431 82.4574 84.1902 84.0357 81.9154H83.789C84.9402 79.0889 91.0017 76.2756 91.0017 73.0382C89.7811 70.0976 87.467 62.5967 73.9641 62.5967C71.1023 62.6295 68.3557 63.1225 65.8064 64.01Z" fill="url(#paint3_linear_1283_4446)"/>
</g>
<path opacity="0.15" d="M84.3095 79.5286L75.1995 70.4786C79.0395 65.4786 81.3195 59.2286 81.3195 52.4486C81.3195 36.0686 68.0295 22.8086 51.6695 22.8086C35.3095 22.8086 22.0195 36.0686 22.0195 52.4486C22.0195 68.8286 35.2795 82.0886 51.6595 82.0886C58.2295 82.0886 64.2795 79.9586 69.2195 76.3386L78.3795 85.4486C78.3795 85.4486 80.6995 86.3586 83.1295 83.7786C85.5595 81.2086 84.3095 79.5286 84.3095 79.5286ZM26.4395 52.5586C26.4395 38.6786 37.6995 27.4186 51.5795 27.4186C65.4595 27.4186 76.7195 38.6786 76.7195 52.5586C76.7195 66.4386 65.4295 77.6986 51.5495 77.6986C37.6695 77.6986 26.4395 66.4386 26.4395 52.5586Z" fill="#1F1D20"/>
<g filter="url(#filter1_bd_1283_4446)">
<path d="M51.3795 77.8986C66.5121 77.8986 78.7795 65.6312 78.7795 50.4986C78.7795 35.366 66.5121 23.0986 51.3795 23.0986C36.2469 23.0986 23.9795 35.366 23.9795 50.4986C23.9795 65.6312 36.2469 77.8986 51.3795 77.8986Z" fill="white" fill-opacity="0.35" shape-rendering="crispEdges"/>
</g>
<g filter="url(#filter2_bd_1283_4446)">
<path d="M51.3795 77.8981C66.5121 77.8981 78.7795 65.6307 78.7795 50.4981C78.7795 35.3655 66.5121 23.0981 51.3795 23.0981C36.2469 23.0981 23.9795 35.3655 23.9795 50.4981C23.9795 65.6307 36.2469 77.8981 51.3795 77.8981Z" fill="url(#paint4_linear_1283_4446)" fill-opacity="0.5" shape-rendering="crispEdges"/>
</g>
<path d="M86.2295 79.5386L75.1895 68.4986C79.0295 63.4986 81.3095 57.2486 81.3095 50.4686C81.3095 34.0886 68.0195 20.8286 51.6595 20.8286C35.2995 20.8286 22.0195 34.0886 22.0195 50.4686C22.0195 66.8486 35.2795 80.1086 51.6595 80.1086C58.2295 80.1086 64.2795 77.9786 69.2195 74.3586L80.2895 85.4586C80.2895 85.4586 81.4095 85.4686 83.8495 82.8986C86.2795 80.3186 86.2295 79.5386 86.2295 79.5386ZM26.4395 50.5686C26.4395 36.6886 37.6995 25.4286 51.5795 25.4286C65.4595 25.4286 76.7195 36.6886 76.7195 50.5686C76.7195 64.4486 65.4295 75.7086 51.5495 75.7086C37.6695 75.7086 26.4395 64.4486 26.4395 50.5686Z" fill="url(#paint5_linear_1283_4446)"/>
<path fill-rule="evenodd" clip-rule="evenodd" d="M94.7423 51.1322C94.7423 74.9322 75.4523 94.2222 51.6523 94.2222C27.8523 94.2222 8.56227 74.9322 8.56227 51.1322C8.56227 27.3322 27.8523 8.04225 51.6523 8.04225C75.4523 8.04225 94.7423 27.3322 94.7423 51.1322ZM51.6523 4.30225C77.5123 4.30225 98.4823 25.2722 98.4823 51.1322C98.4823 76.9922 77.5123 97.9623 51.6523 97.9623C25.7923 97.9623 4.82227 76.9922 4.82227 51.1322C4.82227 25.2722 25.7823 4.30225 51.6523 4.30225Z" fill="url(#paint6_linear_1283_4446)"/>
<path d="M56.7104 67.8088H46.0039V44.6567" stroke="#012E4D" stroke-width="0.8" stroke-miterlimit="10"/>
<path d="M56.7104 60.0308H46.0039" stroke="#012E4D" stroke-width="0.8" stroke-miterlimit="10"/>
<path d="M56.7104 52.2524H46.0039" stroke="#012E4D" stroke-width="0.8" stroke-miterlimit="10"/>
<path d="M60.9442 48.8237H53.2101C52.7379 48.8237 52.3545 49.2071 52.3545 49.6794V54.4131C52.3545 54.8854 52.7379 55.2688 53.2101 55.2688H60.9497C61.422 55.2743 61.8053 54.8909 61.8053 54.4187V49.6849C61.7998 49.2071 61.4164 48.8237 60.9442 48.8237Z" fill="#0364B8"/>
<path d="M60.9442 64.5859H53.2101C52.7379 64.5859 52.3545 64.9693 52.3545 65.4416V70.1809C52.3545 70.6532 52.7379 71.0365 53.2101 71.0365H60.9497C61.422 71.0365 61.8053 70.6532 61.8053 70.1809V65.4471C61.7998 64.9693 61.4164 64.5859 60.9442 64.5859Z" fill="#0F335E"/>
<path d="M60.9442 56.6914H53.2101C52.7379 56.6914 52.3545 57.0748 52.3545 57.547V62.2808C52.3545 62.7531 52.7379 63.1364 53.2101 63.1364H60.9497C61.422 63.142 61.8053 62.7586 61.8053 62.2808V57.547C61.7998 57.0748 61.4164 56.6914 60.9442 56.6914Z" fill="#14447D"/>
<path d="M40.8066 47.0672C38.526 47.0672 36.6738 45.2182 36.6738 42.9404C36.6738 40.8577 38.2132 39.1445 40.2214 38.8722C40.0654 38.2296 39.9682 37.5486 39.9682 36.8482C39.9874 32.2933 43.6716 28.6147 48.2329 28.6147C51.3712 28.6147 54.1005 30.3858 55.5041 32.9744C56.1866 32.6435 56.9655 32.4492 57.7847 32.4492C60.6313 32.4492 62.9505 34.7656 62.9505 37.6072C62.9505 38.0353 62.8917 38.4634 62.7945 38.8722C62.9504 38.853 63.1064 38.853 63.2624 38.853C65.5237 38.8337 67.375 40.6634 67.375 42.9404C67.375 45.2174 65.5237 47.0672 63.2431 47.0672H40.8066V47.0672Z" fill="#0186ED"/>
<g filter="url(#filter3_d_1283_4446)">
<path d="M44.8334 36.4797C43.3356 37.9849 43.3356 40.4216 44.8408 41.9194C46.346 43.4172 48.7827 43.4172 50.2805 41.9119C50.6606 41.5319 50.9512 41.0848 51.1375 40.6079H53.3581L53.3879 40.6377L54.3641 39.6541L55.37 40.6675L56.3537 39.6839L57.3224 40.6526L58.3433 39.6317H58.3582L58.3284 39.6615L59.3045 40.6302L59.7665 40.1608L60.7502 39.1772L59.7665 38.1935L51.2865 38.2159C51.1226 37.575 50.7872 36.964 50.2805 36.4647C48.7753 34.967 46.3386 34.967 44.8334 36.4797ZM46.3311 38.4693C46.741 38.8791 46.741 39.5348 46.3311 39.9372C45.9213 40.3471 45.2655 40.3471 44.8632 39.9372C44.4533 39.5274 44.4533 38.8716 44.8632 38.4693C45.2655 38.0669 45.9213 38.0669 46.3311 38.4693Z" fill="white"/>
</g>
<defs>
<filter id="filter0_i_1283_4446" x="9.27539" y="50.4194" width="81.7266" height="49.3667" filterUnits="userSpaceOnUse" color-interpolation-filters="sRGB">
<feFlood flood-opacity="0" result="BackgroundImageFix"/>
<feBlend mode="normal" in="SourceGraphic" in2="BackgroundImageFix" result="shape"/>
<feColorMatrix in="SourceAlpha" type="matrix" values="0 0 0 0 0 0 0 0 0 0 0 0 0 0 0 0 0 0 127 0" result="hardAlpha"/>
<feOffset dy="4"/>
<feGaussianBlur stdDeviation="2"/>
<feComposite in2="hardAlpha" operator="arithmetic" k2="-1" k3="1"/>
<feColorMatrix type="matrix" values="0 0 0 0 1 0 0 0 0 1 0 0 0 0 1 0 0 0 0.25 0"/>
<feBlend mode="normal" in2="shape" result="effect1_innerShadow_1283_4446"/>
</filter>
<filter id="filter1_bd_1283_4446" x="9.81209" y="8.93124" width="83.1346" height="97.3022" filterUnits="userSpaceOnUse" color-interpolation-filters="sRGB">
<feFlood flood-opacity="0" result="BackgroundImageFix"/>
<feGaussianBlur in="BackgroundImageFix" stdDeviation="7.0837"/>
<feComposite in2="SourceAlpha" operator="in" result="effect1_backgroundBlur_1283_4446"/>
<feColorMatrix in="SourceAlpha" type="matrix" values="0 0 0 0 0 0 0 0 0 0 0 0 0 0 0 0 0 0 127 0" result="hardAlpha"/>
<feOffset dy="14.1674"/>
<feGaussianBlur stdDeviation="7.0837"/>
<feComposite in2="hardAlpha" operator="out"/>
<feColorMatrix type="matrix" values="0 0 0 0 0 0 0 0 0 0 0 0 0 0 0 0 0 0 0.25 0"/>
<feBlend mode="normal" in2="effect1_backgroundBlur_1283_4446" result="effect2_dropShadow_1283_4446"/>
<feBlend mode="normal" in="SourceGraphic" in2="effect2_dropShadow_1283_4446" result="shape"/>
</filter>
<filter id="filter2_bd_1283_4446" x="9.81209" y="8.93075" width="83.1346" height="97.3022" filterUnits="userSpaceOnUse" color-interpolation-filters="sRGB">
<feFlood flood-opacity="0" result="BackgroundImageFix"/>
<feGaussianBlur in="BackgroundImageFix" stdDeviation="7.0837"/>
<feComposite in2="SourceAlpha" operator="in" result="effect1_backgroundBlur_1283_4446"/>
<feColorMatrix in="SourceAlpha" type="matrix" values="0 0 0 0 0 0 0 0 0 0 0 0 0 0 0 0 0 0 127 0" result="hardAlpha"/>
<feOffset dy="14.1674"/>
<feGaussianBlur stdDeviation="7.0837"/>
<feComposite in2="hardAlpha" operator="out"/>
<feColorMatrix type="matrix" values="0 0 0 0 0 0 0 0 0 0 0 0 0 0 0 0 0 0 0.25 0"/>
<feBlend mode="normal" in2="effect1_backgroundBlur_1283_4446" result="effect2_dropShadow_1283_4446"/>
<feBlend mode="normal" in="SourceGraphic" in2="effect2_dropShadow_1283_4446" result="shape"/>
</filter>
<filter id="filter3_d_1283_4446" x="39.7109" y="33.3433" width="25.0391" height="15.6985" filterUnits="userSpaceOnUse" color-interpolation-filters="sRGB">
<feFlood flood-opacity="0" result="BackgroundImageFix"/>
<feColorMatrix in="SourceAlpha" type="matrix" values="0 0 0 0 0 0 0 0 0 0 0 0 0 0 0 0 0 0 127 0" result="hardAlpha"/>
<feOffset dy="2"/>
<feGaussianBlur stdDeviation="2"/>
<feComposite in2="hardAlpha" operator="out"/>
<feColorMatrix type="matrix" values="0 0 0 0 0 0 0 0 0 0 0 0 0 0 0 0 0 0 0.25 0"/>
<feBlend mode="normal" in2="BackgroundImageFix" result="effect1_dropShadow_1283_4446"/>
<feBlend mode="normal" in="SourceGraphic" in2="effect1_dropShadow_1283_4446" result="shape"/>
</filter>
<linearGradient id="paint0_linear_1283_4446" x1="51.6527" y1="4.32227" x2="51.6527" y2="97.942" gradientUnits="userSpaceOnUse">
<stop stop-color="#018AF5"/>
<stop offset="1" stop-color="#0078D4"/>
</linearGradient>
<linearGradient id="paint1_linear_1283_4446" x1="72.0054" y1="10.2295" x2="74.4863" y2="86.1671" gradientUnits="userSpaceOnUse">
<stop offset="0.474" stop-color="#50E6FF"/>
<stop offset="1" stop-color="#0078D4"/>
</linearGradient>
<linearGradient id="paint2_linear_1283_4446" x1="23.7759" y1="11.791" x2="26.2568" y2="87.7287" gradientUnits="userSpaceOnUse">
<stop offset="0.474" stop-color="#50E6FF"/>
<stop offset="1" stop-color="#0078D4"/>
</linearGradient>
<linearGradient id="paint3_linear_1283_4446" x1="46.219" y1="8.68488" x2="50.2959" y2="133.477" gradientUnits="userSpaceOnUse">
<stop offset="0.474" stop-color="#50E6FF"/>
<stop offset="1" stop-color="#0078D4"/>
</linearGradient>
<linearGradient id="paint4_linear_1283_4446" x1="51.25" y1="22.6978" x2="51.3795" y2="77.8981" gradientUnits="userSpaceOnUse">
<stop stop-color="white"/>
<stop offset="1" stop-color="white" stop-opacity="0"/>
</linearGradient>
<linearGradient id="paint5_linear_1283_4446" x1="29.6061" y1="25.4239" x2="75.3882" y2="77.4162" gradientUnits="userSpaceOnUse">
<stop stop-color="#007ED8"/>
<stop offset="0.7065" stop-color="#002D4C"/>
</linearGradient>
<linearGradient id="paint6_linear_1283_4446" x1="3.08267" y1="-20.4904" x2="98.6102" y2="120.391" gradientUnits="userSpaceOnUse">
<stop stop-color="#007ED8"/>
<stop offset="0.7065" stop-color="#002D4C"/>
</linearGradient>
</defs>
</svg>
