<svg width="103" height="103" viewBox="0 0 103 103" fill="none" xmlns="http://www.w3.org/2000/svg">
<path d="M51.997 97.9423C26.147 97.9423 5.18701 76.9923 5.18701 51.1323C5.18701 25.2723 26.147 4.32227 51.997 4.32227C77.847 4.32227 98.807 25.2823 98.807 51.1323C98.807 76.9823 77.847 97.9423 51.997 97.9423Z" fill="url(#paint0_linear_409_14685)"/>
<path fill-rule="evenodd" clip-rule="evenodd" d="M97.8969 51.1323C97.8969 76.4823 77.3469 97.0323 51.9969 97.0323C26.6469 97.0323 6.09693 76.4823 6.09693 51.1323C6.09693 25.7823 26.6469 5.23232 51.9969 5.23232C77.3469 5.23232 97.8969 25.7823 97.8969 51.1323ZM51.9969 1.49231C79.4169 1.49231 101.637 23.7123 101.637 51.1323C101.637 78.5523 79.4069 100.772 51.9969 100.772C24.5769 100.772 2.35693 78.5423 2.35693 51.1323C2.35693 23.7123 24.5769 1.49231 51.9969 1.49231Z" fill="#F2F1F0"/>
<path fill-rule="evenodd" clip-rule="evenodd" d="M95.087 51.1324C95.087 74.9324 75.797 94.2224 51.997 94.2224C28.197 94.2224 8.90699 74.9324 8.90699 51.1324C8.90699 27.3324 28.197 8.04237 51.997 8.04237C75.797 8.04237 95.087 27.3324 95.087 51.1324ZM51.997 4.30237C77.857 4.30237 98.827 25.2724 98.827 51.1324C98.827 76.9924 77.857 97.9624 51.997 97.9624C26.137 97.9624 5.16699 76.9924 5.16699 51.1324C5.16699 25.2724 26.127 4.30237 51.997 4.30237Z" fill="url(#paint1_linear_409_14685)"/>
<path opacity="0.15" d="M90.7576 47.6473C90.7576 46.8102 90.0661 46.1187 89.229 46.1187C88.683 46.1187 85.2436 45.8093 83.4057 44.3717C83.4057 44.3717 83.4239 44.3535 83.4057 44.3717C82.7142 41.824 81.6951 39.4583 80.4212 37.2018C80.0937 35.0726 82.3138 33.5258 83.3147 31.8516C83.4967 31.5605 83.5876 31.3967 83.6604 31.2875C83.8424 30.7416 83.7514 30.1229 83.3147 29.6861C83.3147 29.6861 81.6223 27.2658 79.8753 25.537C78.1283 23.8082 75.5079 21.8793 75.5079 21.8793C74.9073 21.2788 73.9429 21.2788 73.3423 21.8793C72.942 22.2614 70.3397 24.427 67.974 24.7545C67.9376 24.7545 67.9376 24.7545 67.9376 24.7545C65.7539 23.5171 63.2972 22.498 60.8223 21.8065H60.7859C59.0389 20.5326 59.512 17.8758 59.0389 15.9832C59.0389 15.1461 58.3474 14.4546 57.5103 14.4546C57.5103 14.4546 54.5987 13.9451 52.142 13.9451C49.6853 13.9451 46.4643 14.4546 46.4643 14.4546C45.6272 14.4546 44.9357 15.1461 44.9357 15.9832C44.9357 16.5291 44.6263 19.9685 43.1887 21.8065C40.7502 22.498 38.1843 23.5717 36.0188 24.7909C33.8896 25.1185 32.3428 22.8984 30.6686 21.8975C30.3775 21.7155 30.2137 21.6245 30.1045 21.5517C29.5586 21.3697 28.9399 21.4607 28.5031 21.8975C28.5031 21.8975 26.0828 23.5899 24.354 25.3369C22.6252 27.0838 20.6963 29.7043 20.6963 29.7043C20.0958 30.3048 20.0958 31.2693 20.6963 31.8698C21.0784 32.252 23.2986 34.9089 23.5897 37.22V37.2382C22.3887 39.4037 21.315 41.9514 20.6417 44.3899C20.6417 44.3899 20.6781 44.3535 20.6417 44.3899C19.1495 46.2097 16.711 45.6637 14.8184 46.1369C13.9813 46.1369 13.2898 46.8284 13.2898 47.6655C13.2898 47.6655 12.7803 50.5771 12.7803 53.0338C12.7803 55.4905 13.2898 58.7115 13.2898 58.7115C13.2898 59.5486 13.9813 60.2401 14.8184 60.2401C15.3643 60.2401 18.8037 60.5495 20.6417 61.9871C20.6781 61.9689 20.6599 62.0235 20.6599 62.0235C21.3696 64.462 22.3705 66.9187 23.6079 69.0842C23.5897 69.1206 23.6079 69.0842 23.6261 69.157C23.8263 71.3771 21.7336 72.8329 20.7327 74.5071C20.5507 74.7983 20.4597 74.9621 20.3869 75.0713C20.2049 75.6172 20.2959 76.2359 20.7327 76.6727C20.7327 76.6727 22.4251 79.093 24.1721 80.8217C25.919 82.5687 28.5395 84.4795 28.5395 84.4795C29.14 85.08 30.1045 85.08 30.705 84.4795C31.0872 84.0973 33.7441 81.8772 36.0552 81.5861C36.0552 81.5861 36.037 81.6043 36.0916 81.6043C38.3117 82.8417 40.6228 83.8244 43.1341 84.5159C43.1523 84.5341 43.2251 84.5523 43.2251 84.5523C44.9721 85.8261 44.4989 88.483 44.9721 90.3756C45.063 91.2309 45.5362 91.7768 46.5007 91.9042C46.5007 91.9042 49.4123 92.4137 51.869 92.4137C54.3257 92.4137 57.5467 91.9224 57.5467 91.9224C58.3838 91.7768 59.0753 91.2308 59.0753 90.3937C59.0753 89.8478 59.3847 86.4084 60.8223 84.5705C60.8223 84.5705 60.8769 84.5159 60.9497 84.4613C63.5156 83.7516 65.4627 82.9509 67.7192 81.6588C67.8284 81.6224 67.701 81.6224 67.974 81.5861C70.1031 81.2585 71.6499 83.4786 73.3241 84.4795C73.6153 84.6615 73.7791 84.7525 73.8883 84.8252C74.4342 85.0072 75.0529 84.9162 75.4897 84.4795C75.4897 84.4795 77.91 82.7871 79.6387 81.0401C81.3857 79.2931 83.2965 76.6727 83.2965 76.6727C83.897 76.0721 83.897 75.1077 83.2965 74.5071C82.9143 74.125 80.6942 71.4681 80.403 69.157C80.3666 68.9204 80.3848 68.884 80.4212 68.8294C81.7133 66.5547 82.5322 64.8805 83.2237 62.2964C83.2237 62.2964 83.1873 62.2055 83.3511 61.9871C84.6249 60.2401 87.2818 60.7132 89.1744 60.2401C90.0115 60.2401 90.703 59.5486 90.703 58.7115C90.703 58.7115 91.2125 55.7999 91.2125 53.3432C91.2489 50.8501 90.7576 47.6473 90.7576 47.6473Z" fill="#1F1D20"/>
<path d="M90.7576 45.5533C90.7576 44.7162 90.0661 44.0247 89.229 44.0247C88.683 44.0247 85.2436 43.7153 83.4057 42.2777C83.4057 42.2777 83.4239 42.2595 83.4057 42.2777C82.7142 39.73 81.6951 37.3643 80.4212 35.1078C80.0937 32.9786 82.3138 31.4318 83.3147 29.7576C83.4967 29.4665 83.5876 29.3027 83.6604 29.1935C83.8424 28.6476 83.7514 28.0289 83.3147 27.5921C83.3147 27.5921 81.6223 25.1718 79.8753 23.443C78.1283 21.7142 75.5079 19.7853 75.5079 19.7853C74.9073 19.1848 73.9429 19.1848 73.3423 19.7853C72.942 20.1674 70.3397 22.333 67.974 22.6605C67.9376 22.6605 67.9376 22.6605 67.9376 22.6605C65.7539 21.4231 63.2972 20.404 60.8223 19.7125H60.7859C59.0389 18.4387 59.512 15.7818 59.0389 13.8892C59.0389 13.0521 58.3474 12.3606 57.5103 12.3606C57.5103 12.3606 54.5987 11.8511 52.142 11.8511C49.6853 11.8511 46.4643 12.3606 46.4643 12.3606C45.6272 12.3606 44.9357 13.0521 44.9357 13.8892C44.9357 14.4352 44.6263 17.8745 43.1887 19.7125C40.7502 20.404 38.1843 21.4777 36.0188 22.6969C33.8896 23.0245 32.3428 20.8044 30.6686 19.8035C30.3775 19.6215 30.2137 19.5305 30.1045 19.4577C29.5586 19.2757 28.9399 19.3667 28.5031 19.8035C28.5031 19.8035 26.0828 21.4959 24.354 23.2429C22.6252 24.9898 20.6963 27.6103 20.6963 27.6103C20.0958 28.2108 20.0958 29.1753 20.6963 29.7758C21.0784 30.158 23.2986 32.8149 23.5897 35.126V35.1442C22.3887 37.3097 21.315 39.8574 20.6417 42.2959C20.6417 42.2959 20.6781 42.2595 20.6417 42.2959C19.1495 44.1157 16.711 43.5697 14.8184 44.0429C13.9813 44.0429 13.2898 44.7344 13.2898 45.5715C13.2898 45.5715 12.7803 48.4831 12.7803 50.9398C12.7803 53.3965 13.2898 56.6175 13.2898 56.6175C13.2898 57.4546 13.9813 58.1461 14.8184 58.1461C15.3643 58.1461 18.8037 58.4555 20.6417 59.8931C20.6781 59.8749 20.6599 59.9295 20.6599 59.9295C21.3696 62.368 22.3705 64.8247 23.6079 66.9902C23.5897 67.0266 23.6079 66.9902 23.6261 67.063C23.8263 69.2831 21.7336 70.7389 20.7327 72.4131C20.5507 72.7043 20.4597 72.8681 20.3869 72.9773C20.2049 73.5232 20.2959 74.1419 20.7327 74.5787C20.7327 74.5787 22.4251 76.999 24.1721 78.7277C25.919 80.4747 28.5395 82.3855 28.5395 82.3855C29.14 82.986 30.1045 82.986 30.705 82.3855C31.0872 82.0033 33.7441 79.7832 36.0552 79.492C36.0552 79.492 36.037 79.5103 36.0916 79.5103C38.3117 80.7477 40.6228 81.7304 43.1341 82.4219C43.1523 82.4401 43.2251 82.4583 43.2251 82.4583C44.9721 83.7321 44.4989 86.389 44.9721 88.2816C45.063 89.1369 45.5362 89.6828 46.5007 89.8102C46.5007 89.8102 49.4123 90.3197 51.869 90.3197C54.3257 90.3197 57.5467 89.8284 57.5467 89.8284C58.3838 89.6828 59.0753 89.1368 59.0753 88.2997C59.0753 87.7538 59.3847 84.3144 60.8223 82.4765C60.8223 82.4765 60.8769 82.4219 60.9497 82.3673C63.5156 81.6576 65.4627 80.8569 67.7192 79.5648C67.8284 79.5284 67.701 79.5284 67.974 79.492C70.1031 79.1645 71.6499 81.3846 73.3241 82.3855C73.6153 82.5675 73.7791 82.6585 73.8883 82.7312C74.4342 82.9132 75.0529 82.8222 75.4897 82.3855C75.4897 82.3855 77.91 80.6931 79.6387 78.9461C81.3857 77.1991 83.2965 74.5787 83.2965 74.5787C83.897 73.9781 83.897 73.0137 83.2965 72.4131C82.9143 72.031 80.6942 69.3741 80.403 67.063C80.3666 66.8264 80.3848 66.79 80.4212 66.7354C81.7133 64.4607 82.5322 62.7865 83.2237 60.2025C83.2237 60.2025 83.1873 60.1115 83.3511 59.8931C84.6249 58.1461 87.2818 58.6193 89.1744 58.1461C90.0115 58.1461 90.703 57.4546 90.703 56.6175C90.703 56.6175 91.2125 53.7059 91.2125 51.2492C91.2489 48.7743 90.7576 45.5533 90.7576 45.5533Z" fill="white"/>
<path opacity="0.15" d="M54.7247 75.7738C64.4228 74.5975 72.4645 67.428 74.753 57.946C76.9535 48.824 73.5367 39.286 66.0631 33.6288C65.9111 33.5087 65.8871 33.3487 65.8871 33.2607C65.8871 33.1807 65.9111 33.0046 66.0871 32.8606L67.1274 32.1164C67.9595 31.5403 69.1118 31.5963 69.88 32.2925C77.3056 38.9339 80.4502 49.0721 78.1137 58.7621C75.4732 69.6925 66.1992 77.9022 55.0128 79.1985L53.9405 79.3265L54.3246 83.3914C54.3566 83.6635 54.0686 83.8795 53.8125 83.7515L43.8504 79.3105C43.4503 79.1345 43.3943 78.5664 43.7704 78.3103L52.7003 72.013C52.9243 71.8449 53.2604 72.005 53.2924 72.277L53.6365 75.9178L54.7247 75.7738Z" fill="#1F1D20"/>
<path opacity="0.15" d="M52.6202 33.2611C52.3961 33.4292 52.0601 33.2691 52.0441 33.0051L51.62 28.8682L50.5717 28.9162C40.2735 29.4683 31.3836 36.8699 28.9671 46.896C26.5426 56.9382 31.1036 67.5725 40.0335 72.7656C40.2415 72.8936 40.2815 73.0696 40.2815 73.1657C40.2735 73.2057 40.2815 73.2457 40.2655 73.3017C40.2415 73.3977 40.1935 73.5097 40.0815 73.5818L38.8332 74.4619C38.0731 74.9901 37.0488 74.9901 36.2807 74.4379C27.1187 67.9485 22.9418 56.6341 25.7264 45.7358C28.655 34.2693 38.9773 26.1876 50.7878 25.4434L51.2759 25.4194L50.9158 21.8507C50.8838 21.5786 51.1719 21.3626 51.4279 21.4906L61.5421 26.0596C61.9422 26.2356 61.9982 26.8037 61.6221 27.0758L52.6202 33.2611Z" fill="#1F1D20"/>
<path d="M54.9649 74.7738C64.6629 73.5975 72.7047 66.428 74.9932 56.946C77.1936 47.824 73.7769 38.286 66.3033 32.6288C66.1513 32.5087 66.1273 32.3487 66.1273 32.2607C66.1273 32.1807 66.1513 32.0046 66.3273 31.8606L67.3675 31.1164C68.1997 30.5403 69.352 30.5963 70.1201 31.2925C77.5457 37.9339 80.6984 48.0561 78.3619 57.7381C75.7213 68.6685 66.4473 76.8782 55.2609 78.1745L54.1887 78.3025L54.5728 82.3674C54.6048 82.6395 54.3167 82.8555 54.0607 82.7275L44.1145 78.2865C43.7145 78.1105 43.6585 77.5424 44.0345 77.2863L52.9644 70.989C53.1885 70.8209 53.5246 70.981 53.5566 71.253L53.9006 74.8938L54.9649 74.7738Z" fill="#097CD7"/>
<path d="M52.8601 32.2604C52.636 32.4285 52.2999 32.2684 52.2839 32.0044L51.8598 27.8675L50.8116 27.9155C40.5134 28.4676 31.6235 35.8692 29.207 45.8953C26.7825 55.9375 31.3435 66.5718 40.2734 71.7649C40.4814 71.8929 40.5214 72.069 40.5214 72.165C40.5134 72.205 40.5214 72.245 40.5054 72.301C40.4814 72.397 40.4334 72.509 40.3214 72.5811L39.0731 73.4612C38.3129 73.9894 37.2887 73.9894 36.5206 73.4372C27.3426 66.9479 23.1657 55.6334 25.9583 44.7511C28.8869 33.2927 39.2091 25.2189 51.0197 24.4668L51.5078 24.4428L51.1477 20.874C51.1157 20.6019 51.4038 20.3859 51.6598 20.5139L61.766 25.0749C62.1661 25.2509 62.2221 25.8191 61.846 26.0911L52.8601 32.2604Z" fill="#5FA1F0"/>
<path d="M65.3697 39.9567H38.6241C38.0966 39.9567 37.6689 40.3823 37.6689 40.9073V58.0182C37.6689 58.5432 38.0966 58.9688 38.6241 58.9688H65.3697C65.8972 58.9688 66.3249 58.5432 66.3249 58.0182V40.9073C66.3249 40.3823 65.8972 39.9567 65.3697 39.9567Z" fill="url(#paint2_linear_409_14685)"/>
<path d="M56.7731 46.6921V52.2215L51.9971 55.0099V49.4647L56.7731 46.6921Z" fill="#50E6FF"/>
<path d="M56.7737 46.6902L51.9977 49.4786L47.2217 46.6902L51.9977 43.9176L56.7737 46.6902Z" fill="#C3F1FF"/>
<path d="M51.9977 49.4806V55.0099L47.2217 52.2215V46.6921L51.9977 49.4806Z" fill="#9CEBFF"/>
<path d="M47.2217 52.2188L51.9977 49.462V55.0072L47.2217 52.2188Z" fill="#C3F1FF"/>
<path d="M56.7731 52.2188L51.9971 49.462V55.0072L56.7731 52.2188Z" fill="#9CEBFF"/>
<path d="M57.7441 64.7208C54.9104 64.2771 54.7989 62.2492 54.7989 58.9696H49.1792C49.1792 62.2492 49.0837 64.2771 46.2499 64.7208C45.8587 64.7638 45.4974 64.9496 45.2358 65.2422C44.9741 65.5348 44.8306 65.9134 44.833 66.3051H59.161C59.1634 65.9134 59.0199 65.5348 58.7582 65.2422C58.4966 64.9496 58.1353 64.7638 57.7441 64.7208Z" fill="url(#paint3_linear_409_14685)"/>
<defs>
<linearGradient id="paint0_linear_409_14685" x1="50.2231" y1="-13.6572" x2="54.2051" y2="132.113" gradientUnits="userSpaceOnUse">
<stop stop-color="#00ABDE"/>
<stop offset="1" stop-color="#007ED8"/>
</linearGradient>
<linearGradient id="paint1_linear_409_14685" x1="3.42739" y1="-20.4902" x2="98.9549" y2="120.391" gradientUnits="userSpaceOnUse">
<stop stop-color="#007ED8"/>
<stop offset="0.7065" stop-color="#002D4C"/>
</linearGradient>
<linearGradient id="paint2_linear_409_14685" x1="51.9969" y1="58.9688" x2="51.9969" y2="39.9567" gradientUnits="userSpaceOnUse">
<stop stop-color="#0078D4"/>
<stop offset="0.82" stop-color="#5EA0EF"/>
</linearGradient>
<linearGradient id="paint3_linear_409_14685" x1="51.997" y1="66.3051" x2="51.997" y2="58.9696" gradientUnits="userSpaceOnUse">
<stop offset="0.15" stop-color="#CCCCCC"/>
<stop offset="1" stop-color="#707070"/>
</linearGradient>
</defs>
</svg>
