<svg width="103" height="103" viewBox="0 0 103 103" fill="none" xmlns="http://www.w3.org/2000/svg">
<path d="M51.0312 98.6844C25.1812 98.6844 4.22125 77.7345 4.22125 51.8745C4.22125 26.0145 25.1812 5.06445 51.0312 5.06445C76.8813 5.06445 97.8412 26.0245 97.8412 51.8745C97.8412 77.7245 76.8813 98.6844 51.0312 98.6844Z" fill="url(#paint0_linear_309_356)"/>
<path fill-rule="evenodd" clip-rule="evenodd" d="M96.9312 51.8744C96.9312 77.2244 76.3812 97.7744 51.0312 97.7744C25.6812 97.7744 5.13124 77.2244 5.13124 51.8744C5.13124 26.5244 25.6812 5.97438 51.0312 5.97438C76.3812 5.97438 96.9312 26.5244 96.9312 51.8744ZM51.0312 2.23438C78.4512 2.23438 100.671 24.4544 100.671 51.8744C100.671 79.2944 78.4412 101.514 51.0312 101.514C23.6112 101.514 1.39124 79.2844 1.39124 51.8744C1.39124 24.4544 23.6112 2.23438 51.0312 2.23438Z" fill="#F2F1F0"/>
<path fill-rule="evenodd" clip-rule="evenodd" d="M94.1212 51.8739C94.1212 75.6739 74.8312 94.9639 51.0312 94.9639C27.2312 94.9639 7.94123 75.6739 7.94123 51.8739C7.94123 28.0739 27.2312 8.78395 51.0312 8.78395C74.8312 8.78395 94.1212 28.0739 94.1212 51.8739ZM51.0312 5.04395C76.8912 5.04395 97.8612 26.0139 97.8612 51.8739C97.8612 77.7339 76.8912 98.704 51.0312 98.704C25.1712 98.704 4.20123 77.7339 4.20123 51.8739C4.20123 26.0139 25.1612 5.04395 51.0312 5.04395Z" fill="url(#paint1_linear_309_356)"/>
<path opacity="0.15" d="M74.2107 22.4072L28.3648 22.0304C27.3704 22.0199 26.5644 22.8154 26.5644 23.8098L26.0725 83.6398C26.062 84.6341 26.8575 85.4401 27.8519 85.4401L73.6978 85.8169C74.6922 85.8274 75.4982 85.0319 75.4982 84.0375L75.9901 24.2075C75.9796 23.2236 75.1841 22.4177 74.2107 22.4072Z" fill="#1F1D20"/>
<path d="M74.2212 20.5127L28.3753 20.1358C27.3809 20.1254 26.5749 20.9209 26.5749 21.9153L26.0725 81.7348C26.062 82.7291 26.8575 83.5351 27.8519 83.5351L73.6978 83.9119C74.6922 83.9224 75.4982 83.1269 75.4982 82.1325L75.9901 22.3025C75.9901 21.3291 75.2051 20.5231 74.2212 20.5127Z" fill="#F2F2F2"/>
<path opacity="0.15" d="M71.0289 22.5645H31.0341V78.2599H71.0289V22.5645Z" fill="#1F1D20"/>
<path d="M71.0289 21.9258H31.0341V77.6213H71.0289V21.9258Z" fill="white"/>
<path fill-rule="evenodd" clip-rule="evenodd" d="M53.423 13.5627C54.7209 14.264 55.4745 15.6561 55.4641 17.1215V17.4774C55.4641 17.6134 55.4536 17.7286 55.4431 17.8647L58.2588 17.8856C59.0962 17.8961 59.8812 18.3147 60.2999 19.0474C61.4722 21.1304 59.9859 23.2447 58.0285 23.2238L43.8142 23.1191C42.9768 23.1087 42.1918 22.69 41.7731 21.9573C40.6008 19.8743 42.0871 17.76 44.0445 17.7809L46.6612 17.8019C46.6508 17.6763 46.6508 17.5506 46.6508 17.4146V17.2994C46.6926 14.1174 50.0735 11.7623 53.423 13.5627Z" fill="#243A5E"/>
<path d="M51.0159 19.3929C52.0207 19.4034 52.8371 18.5974 52.8476 17.5926C52.8581 16.5877 52.0521 15.7713 51.0473 15.7608C50.0424 15.7504 49.226 16.5563 49.2155 17.5612C49.2155 18.566 50.011 19.3825 51.0159 19.3929Z" fill="#F2F2F2"/>
<path opacity="0.15" d="M71.2113 86.6987C75.3713 86.6987 78.7413 83.3287 78.7413 79.1687C78.7413 75.0087 75.3713 71.6387 71.2113 71.6387C67.0513 71.6387 63.6813 75.0087 63.6813 79.1687C63.6913 83.3287 67.0613 86.6987 71.2113 86.6987Z" fill="#1F1D20"/>
<path d="M71.2113 85.8481C75.3713 85.8481 78.7413 82.4781 78.7413 78.3181C78.7413 74.1581 75.3713 70.7881 71.2113 70.7881C67.0513 70.7881 63.6813 74.1581 63.6813 78.3181C63.6913 82.4781 67.0613 85.8481 71.2113 85.8481Z" fill="#002D4C"/>
<path opacity="0.3" d="M75.3114 75.0283L69.1114 81.2583L67.2514 79.3883L66.0114 80.6383L69.1114 83.7483L76.5614 76.2783L75.3114 75.0283Z" fill="#1F1D20"/>
<path d="M75.3114 74.498L69.1114 80.728L67.2514 78.858L66.0114 80.108L69.1114 83.218L76.5614 75.748L75.3114 74.498Z" fill="#FAF9F8"/>
<path d="M51.0275 31.2256C41.6552 31.2256 34.0506 38.567 34.0506 47.9468C34.0506 55.3408 38.7743 61.6216 45.3635 63.9533L47.5073 57.7929C43.6335 56.3337 40.8654 52.6028 40.8654 48.2175C40.8654 42.5686 45.4463 37.9802 51.1027 37.9802C56.7592 37.9802 61.34 42.5611 61.34 48.2175C61.34 52.6179 58.5569 56.3562 54.6606 57.808L56.8419 63.9007C63.3559 61.5238 68.012 55.2806 68.012 47.9392C68.012 38.567 60.4073 31.2256 51.0275 31.2256Z" fill="#50E6FF"/>
<path d="M61.2122 58.5604C59.7304 60.0422 57.9853 61.1629 56.0747 61.87L53.066 53.4003C55.3601 52.5654 57.0074 50.369 57.0074 47.789C57.0074 44.4869 54.3372 41.8166 51.035 41.8166C47.7329 41.8166 45.0627 44.4869 45.0627 47.789C45.0627 50.3916 46.725 52.5955 49.0342 53.4079L46.0781 61.9076C44.1375 61.2005 42.3548 60.0723 40.8504 58.5604C38.1275 55.8374 36.6306 52.2269 36.6306 48.3832C36.6306 44.5395 38.1275 40.929 40.8504 38.2061C43.5733 35.4832 47.1914 33.9863 51.0275 33.9863C54.8637 33.9863 58.4817 35.4832 61.2046 38.2061C63.9276 40.929 65.4244 44.5471 65.4244 48.3832C65.4244 52.2269 63.9276 55.8374 61.2122 58.5604Z" fill="#0078D4"/>
<defs>
<linearGradient id="paint0_linear_309_356" x1="49.2573" y1="-12.915" x2="53.2393" y2="132.855" gradientUnits="userSpaceOnUse">
<stop stop-color="#00ABDE"/>
<stop offset="1" stop-color="#007ED8"/>
</linearGradient>
<linearGradient id="paint1_linear_309_356" x1="2.46163" y1="-19.7487" x2="97.9892" y2="121.133" gradientUnits="userSpaceOnUse">
<stop stop-color="#007ED8"/>
<stop offset="0.7065" stop-color="#002D4C"/>
</linearGradient>
</defs>
</svg>
