<svg width="103" height="103" viewBox="0 0 103 103" fill="none" xmlns="http://www.w3.org/2000/svg">
<path d="M51.4672 98.4432C25.6172 98.4432 4.65723 77.4932 4.65723 51.6332C4.65723 25.7732 25.6172 4.82324 51.4672 4.82324C77.3172 4.82324 98.2772 25.7832 98.2772 51.6332C98.2772 77.4832 77.3172 98.4432 51.4672 98.4432Z" fill="url(#paint0_linear_451_51215)"/>
<path fill-rule="evenodd" clip-rule="evenodd" d="M97.3671 51.6332C97.3671 76.9832 76.8171 97.5332 51.4671 97.5332C26.1171 97.5332 5.56715 76.9832 5.56715 51.6332C5.56715 26.2832 26.1171 5.73317 51.4671 5.73317C76.8171 5.73317 97.3671 26.2832 97.3671 51.6332ZM51.4671 1.99316C78.8871 1.99316 101.107 24.2132 101.107 51.6332C101.107 79.0532 78.8771 101.273 51.4671 101.273C24.0471 101.273 1.82715 79.0432 1.82715 51.6332C1.82715 24.2132 24.0471 1.99316 51.4671 1.99316Z" fill="#F2F1F0"/>
<path fill-rule="evenodd" clip-rule="evenodd" d="M94.5572 51.6327C94.5572 75.4327 75.2672 94.7227 51.4672 94.7227C27.6672 94.7227 8.37721 75.4327 8.37721 51.6327C8.37721 27.8327 27.6672 8.54274 51.4672 8.54274C75.2672 8.54274 94.5572 27.8327 94.5572 51.6327ZM51.4672 4.80273C77.3272 4.80273 98.2972 25.7727 98.2972 51.6327C98.2972 77.4927 77.3272 98.4628 51.4672 98.4628C25.6072 98.4628 4.63721 77.4927 4.63721 51.6327C4.63721 25.7727 25.5972 4.80273 51.4672 4.80273Z" fill="url(#paint1_linear_451_51215)"/>
<path fill-rule="evenodd" clip-rule="evenodd" d="M45.8545 70.2578L32.7896 70.2578C32.4582 70.2578 32.1896 69.9892 32.1896 69.6578L32.1896 33.7242C32.1896 33.3928 32.4582 33.1242 32.7896 33.1242L45.8545 33.1242L45.8545 34.3242L33.3896 34.3242L33.3896 69.0578L45.8545 69.0578L45.8545 70.2578Z" fill="white"/>
<path opacity="0.15" d="M82.866 75.1605C83.5913 75.1605 84.176 74.5758 84.176 73.8505V30.6318H38.5229V73.8561C38.5229 74.5814 39.1077 75.1661 39.8329 75.1661H82.866V75.1605Z" fill="#1F1D20"/>
<path d="M84.1704 31.0185V30.3101C84.1704 29.433 83.462 28.7246 82.5849 28.7246H40.1084C39.2314 28.7246 38.5229 29.433 38.5229 30.3101V31.0972V31.8169V72.4661C38.5229 73.3432 39.2314 74.0516 40.1084 74.0516H82.5962C83.4733 74.0516 84.1817 73.3432 84.1817 72.4661V31.0972C84.1817 31.0691 84.1704 31.0466 84.1704 31.0185Z" fill="white"/>
<path d="M75.3267 39.7979H64.031C63.2418 39.7979 62.6021 40.4376 62.6021 41.2268V62.1852C62.6021 62.9744 63.2418 63.6142 64.031 63.6142H75.3267C76.1159 63.6142 76.7556 62.9744 76.7556 62.1852V41.2268C76.7556 40.4376 76.1159 39.7979 75.3267 39.7979Z" fill="url(#paint2_linear_451_51215)"/>
<path d="M74.8853 47.3418H72.0273V50.6761H74.8853V47.3418Z" fill="#8FE9FC"/>
<path d="M67.2647 52.5811H64.4067V55.9153H67.2647V52.5811Z" fill="#32D4F5"/>
<path d="M67.2969 42.1025H64.439V45.4368H67.2969V42.1025Z" fill="#EBFCFF"/>
<path d="M71.1094 42.1025H68.2515V45.4368H71.1094V42.1025Z" fill="#EBFCFF"/>
<path d="M74.9214 42.1025H72.0635V45.4368H74.9214V42.1025Z" fill="#EBFCFF"/>
<path d="M67.2969 47.3418H64.439V50.6761H67.2969V47.3418Z" fill="#8FE9FC"/>
<path d="M71.1094 47.3418H68.2515V50.6761H71.1094V47.3418Z" fill="#8FE9FC"/>
<path d="M71.1094 52.5811H68.2515V55.9153H71.1094V52.5811Z" fill="#32D4F5"/>
<path d="M74.8853 52.5811H72.0273V55.9153H74.8853V52.5811Z" fill="#32D4F5"/>
<path d="M60.1266 56.966C59.8333 56.9662 59.5464 57.0519 59.301 57.2127C59.0557 57.3734 58.8626 57.6022 58.7453 57.8711H49.8703C49.1503 57.8711 48.4597 57.585 47.9505 57.0758C47.4413 56.5667 47.1553 55.8761 47.1553 55.156C47.1553 54.4359 47.4413 53.7453 47.9505 53.2362C48.4597 52.727 49.1503 52.4409 49.8703 52.4409H51.1278C51.1796 52.1318 51.2717 51.8307 51.4017 51.5454C51.4494 51.4387 51.5032 51.3344 51.5618 51.2334C51.8619 50.7131 52.2868 50.2757 52.7983 49.9608C53.3097 49.6458 53.8916 49.4632 54.4913 49.4294C55.091 49.3956 55.6897 49.5117 56.2333 49.7672C56.7769 50.0227 57.2483 50.4096 57.6049 50.8929C57.9848 50.7173 58.382 50.5821 58.79 50.4894C58.3191 49.734 57.6484 49.1235 56.852 48.7256C56.0557 48.3277 55.1648 48.1579 54.2779 48.2349C53.391 48.3119 52.5427 48.6328 51.8269 49.162C51.111 49.6912 50.5555 50.4081 50.2219 51.2334L50.2157 51.2496L50.2219 51.2334H49.8703C48.8303 51.2334 47.8328 51.6466 47.0973 52.3821C46.3619 53.1175 45.9487 54.115 45.9487 55.155C45.9487 56.1951 46.3619 57.1926 47.0973 57.928C47.8328 58.6635 48.8303 59.0766 49.8703 59.0766H58.7448C58.8536 59.3258 59.0278 59.541 59.2488 59.6993C59.4699 59.8576 59.7296 59.9531 60.0006 59.9759C60.2715 59.9987 60.5436 59.9477 60.788 59.8285C61.0324 59.7093 61.24 59.5263 61.3888 59.2987C61.5377 59.0712 61.6222 58.8076 61.6336 58.536C61.6449 58.2643 61.5826 57.9946 61.4532 57.7555C61.3238 57.5163 61.1321 57.3166 60.8985 57.1775C60.6649 57.0384 60.398 56.965 60.1261 56.9651L60.1266 56.966Z" fill="url(#paint3_linear_451_51215)"/>
<path d="M64.9931 53.9626C64.4943 52.9572 63.6963 52.1309 62.7088 51.5976C61.7212 51.0642 60.5926 50.85 59.4783 50.9844C58.364 51.1187 57.3187 51.5951 56.4863 52.3479C55.6538 53.1007 55.0751 54.093 54.8297 55.1882C54.2232 55.2471 53.6367 55.4366 53.1105 55.7437C52.5842 56.0508 52.1307 56.4683 51.7812 56.9673H58.2464C58.5589 56.5769 58.9849 56.2932 59.4656 56.1555C59.9463 56.0177 60.458 56.0326 60.9298 56.1982C61.4017 56.3638 61.8104 56.6719 62.0996 57.0799C62.3888 57.4878 62.5441 57.9755 62.5441 58.4756C62.5441 58.9757 62.3888 59.4634 62.0996 59.8714C61.8104 60.2793 61.4017 60.5874 60.9298 60.753C60.458 60.9186 59.9463 60.9335 59.4656 60.7957C58.9849 60.658 58.5589 60.3743 58.2464 59.9839H51.0581C51.2008 60.9911 51.7023 61.913 52.4704 62.58C53.2385 63.247 54.2216 63.6143 55.2388 63.6145H64.9559C66.2282 63.6079 67.4465 63.0991 68.3456 62.1989C69.2448 61.2987 69.752 60.0798 69.7571 58.8074C69.7621 57.5351 69.2645 56.3122 68.3725 55.4049C67.4805 54.4976 66.2663 53.9793 64.994 53.9626H64.9931Z" fill="url(#paint4_linear_451_51215)"/>
<path opacity="0.15" d="M42.532 42.9688H12.7586C12.3583 42.9688 12.0347 43.2924 12.0347 43.6926V61.6198C12.0347 62.02 12.3583 62.3437 12.7586 62.3437H42.532C42.9323 62.3437 43.2559 62.02 43.2559 61.6198V43.6926C43.2645 43.2924 42.9408 42.9688 42.532 42.9688Z" fill="#1F1D20"/>
<path d="M42.532 42.3213H12.7586C12.3583 42.3213 12.0347 42.6449 12.0347 43.0452V60.9723C12.0347 61.3726 12.3583 61.6962 12.7586 61.6962H42.532C42.9323 61.6962 43.2559 61.3726 43.2559 60.9723V43.0452C43.2645 42.6449 42.9408 42.3213 42.532 42.3213Z" fill="url(#paint5_linear_451_51215)"/>
<path opacity="0.15" d="M21.3091 58.9541C24.7838 58.9541 27.5942 56.1436 27.5942 52.6689C27.5942 49.1942 24.7838 46.3838 21.3091 46.3838C17.8344 46.3838 15.0239 49.1942 15.0239 52.6689C15.0239 56.1436 17.8429 58.9541 21.3091 58.9541Z" fill="#1F1D20"/>
<path d="M21.3091 58.3916C24.7838 58.3916 27.5942 55.5811 27.5942 52.1064C27.5942 48.6317 24.7838 45.8213 21.3091 45.8213C17.8344 45.8213 15.0239 48.6317 15.0239 52.1064C15.0239 55.5811 17.8429 58.3916 21.3091 58.3916Z" fill="white"/>
<path d="M24.3752 54.6618C24.2049 53.1033 22.8678 51.877 21.2497 51.877C19.6401 51.877 18.3201 53.0778 18.1242 54.6192C18.0986 54.73 18.0986 54.8492 18.0986 54.9514C18.1412 55.3942 18.4393 55.8201 19.0184 56.1522C20.2448 56.8591 22.2547 56.8591 23.4725 56.1522C24.0516 55.8201 24.3412 55.3942 24.3838 54.9514C24.4008 54.8577 24.3838 54.7555 24.3752 54.6618Z" fill="url(#paint6_linear_451_51215)"/>
<path d="M21.2493 51.4254C22.2968 51.4254 23.1484 50.5823 23.1484 49.5433C23.1484 48.5043 22.3053 47.6611 21.2493 47.6611C20.1932 47.6611 19.3501 48.4957 19.3501 49.5433C19.3501 50.5908 20.2017 51.4254 21.2493 51.4254Z" fill="url(#paint7_linear_451_51215)"/>
<path opacity="0.15" d="M39.8753 47.9082H30.7627C30.371 47.9082 30.0474 48.2318 30.0474 48.6236C30.0474 49.0153 30.371 49.339 30.7627 49.339H39.8668C40.2586 49.339 40.5822 49.0153 40.5822 48.6236C40.5907 48.2318 40.2671 47.9082 39.8753 47.9082Z" fill="#1F1D20"/>
<path opacity="0.15" d="M39.8753 51.0254H30.7627C30.371 51.0254 30.0474 51.349 30.0474 51.7408C30.0474 52.1325 30.371 52.4562 30.7627 52.4562H39.8668C40.2586 52.4562 40.5822 52.1325 40.5822 51.7408C40.5907 51.349 40.2671 51.0254 39.8753 51.0254Z" fill="#1F1D20"/>
<path opacity="0.15" fill-rule="evenodd" clip-rule="evenodd" d="M30.7627 54.3809H35.319C35.7108 54.3809 36.0344 54.7045 36.0344 55.0962C36.0344 55.488 35.7108 55.8116 35.319 55.8116H30.7627C30.371 55.8116 30.0474 55.488 30.0474 55.0962C30.0474 54.7045 30.3625 54.3809 30.7627 54.3809Z" fill="#1F1D20"/>
<path d="M39.8753 47.4229H30.7627C30.371 47.4229 30.0474 47.7465 30.0474 48.1382C30.0474 48.53 30.371 48.8536 30.7627 48.8536H39.8668C40.2586 48.8536 40.5822 48.53 40.5822 48.1382C40.5907 47.7465 40.2671 47.4229 39.8753 47.4229Z" fill="white"/>
<path d="M39.8753 50.54H30.7627C30.371 50.54 30.0474 50.8637 30.0474 51.2554C30.0474 51.6472 30.371 51.9708 30.7627 51.9708H39.8668C40.2586 51.9708 40.5822 51.6472 40.5822 51.2554C40.5907 50.8637 40.2671 50.54 39.8753 50.54Z" fill="#50E6FF"/>
<path fill-rule="evenodd" clip-rule="evenodd" d="M30.7627 53.8955H35.319C35.7108 53.8955 36.0344 54.2191 36.0344 54.6109C36.0344 55.0026 35.7108 55.3263 35.319 55.3263H30.7627C30.371 55.3263 30.0474 55.0026 30.0474 54.6109C30.0474 54.2191 30.3625 53.8955 30.7627 53.8955Z" fill="#32B0E7"/>
<defs>
<linearGradient id="paint0_linear_451_51215" x1="49.6933" y1="-13.1563" x2="53.6753" y2="132.614" gradientUnits="userSpaceOnUse">
<stop stop-color="#00ABDE"/>
<stop offset="1" stop-color="#007ED8"/>
</linearGradient>
<linearGradient id="paint1_linear_451_51215" x1="2.89761" y1="-19.9899" x2="98.4251" y2="120.892" gradientUnits="userSpaceOnUse">
<stop stop-color="#007ED8"/>
<stop offset="0.7065" stop-color="#002D4C"/>
</linearGradient>
<linearGradient id="paint2_linear_451_51215" x1="56.5316" y1="40.5238" x2="77.2041" y2="60.5503" gradientUnits="userSpaceOnUse">
<stop stop-color="#005BA1"/>
<stop offset="0.07" stop-color="#0060A9"/>
<stop offset="0.36" stop-color="#0071C8"/>
<stop offset="0.52" stop-color="#0078D4"/>
<stop offset="0.64" stop-color="#0074CD"/>
<stop offset="0.82" stop-color="#006ABB"/>
<stop offset="1" stop-color="#005BA1"/>
</linearGradient>
<linearGradient id="paint3_linear_451_51215" x1="60.8779" y1="59.8614" x2="51.3425" y2="50.2266" gradientUnits="userSpaceOnUse">
<stop stop-color="#198AB3"/>
<stop offset="0.11" stop-color="#22A5CB"/>
<stop offset="0.23" stop-color="#29BADE"/>
<stop offset="0.37" stop-color="#2EC9EB"/>
<stop offset="0.53" stop-color="#31D1F3"/>
<stop offset="0.78" stop-color="#32D4F5"/>
</linearGradient>
<linearGradient id="paint4_linear_451_51215" x1="62.2685" y1="66.6157" x2="42.999" y2="35.5263" gradientUnits="userSpaceOnUse">
<stop stop-color="#198AB3"/>
<stop offset="0.11" stop-color="#22A5CB"/>
<stop offset="0.23" stop-color="#29BADE"/>
<stop offset="0.37" stop-color="#2EC9EB"/>
<stop offset="0.53" stop-color="#31D1F3"/>
<stop offset="0.78" stop-color="#32D4F5"/>
</linearGradient>
<linearGradient id="paint5_linear_451_51215" x1="24.0564" y1="30.316" x2="28.9799" y2="74.2786" gradientUnits="userSpaceOnUse">
<stop stop-color="#007ED8"/>
<stop offset="0.7065" stop-color="#002D4C"/>
</linearGradient>
<linearGradient id="paint6_linear_451_51215" x1="21.2448" y1="51.877" x2="21.2448" y2="56.6824" gradientUnits="userSpaceOnUse">
<stop stop-color="#008BF1"/>
<stop offset="0.22" stop-color="#0086EC"/>
<stop offset="0.49" stop-color="#0078DD"/>
<stop offset="0.79" stop-color="#0061C4"/>
<stop offset="1" stop-color="#004DAE"/>
</linearGradient>
<linearGradient id="paint7_linear_451_51215" x1="21.2493" y1="47.6611" x2="21.2493" y2="51.4254" gradientUnits="userSpaceOnUse">
<stop stop-color="#008BF1"/>
<stop offset="0.22" stop-color="#0086EC"/>
<stop offset="0.49" stop-color="#0078DD"/>
<stop offset="0.79" stop-color="#0061C4"/>
<stop offset="1" stop-color="#004DAE"/>
</linearGradient>
</defs>
</svg>
