<svg width="103" height="103" viewBox="0 0 103 103" fill="none" xmlns="http://www.w3.org/2000/svg">
<path d="M51.6166 97.8622C25.7666 97.8622 4.80664 76.9122 4.80664 51.0522C4.80664 25.1922 25.7666 4.24219 51.6166 4.24219C77.4666 4.24219 98.4266 25.2022 98.4266 51.0522C98.4266 76.9022 77.4666 97.8622 51.6166 97.8622Z" fill="url(#paint0_linear_60_556)"/>
<path fill-rule="evenodd" clip-rule="evenodd" d="M97.5166 51.0521C97.5166 76.4021 76.9666 96.9521 51.6166 96.9521C26.2666 96.9521 5.71656 76.4021 5.71656 51.0521C5.71656 25.7021 26.2666 5.15211 51.6166 5.15211C76.9666 5.15211 97.5166 25.7021 97.5166 51.0521ZM51.6166 1.41211C79.0366 1.41211 101.257 23.6321 101.257 51.0521C101.257 78.4721 79.0266 100.692 51.6166 100.692C24.1966 100.692 1.97656 78.4621 1.97656 51.0521C1.97656 23.6321 24.1966 1.41211 51.6166 1.41211Z" fill="#F2F1F0"/>
<path fill-rule="evenodd" clip-rule="evenodd" d="M94.7066 51.0527C94.7066 74.8527 75.4166 94.1427 51.6166 94.1427C27.8166 94.1427 8.52662 74.8527 8.52662 51.0527C8.52662 27.2527 27.8166 7.96266 51.6166 7.96266C75.4166 7.96266 94.7066 27.2527 94.7066 51.0527ZM51.6166 4.22266C77.4766 4.22266 98.4466 25.1927 98.4466 51.0527C98.4466 76.9127 77.4766 97.8827 51.6166 97.8827C25.7566 97.8827 4.78662 76.9127 4.78662 51.0527C4.78662 25.1927 25.7466 4.22266 51.6166 4.22266Z" fill="url(#paint1_linear_60_556)"/>
<path opacity="0.15" d="M56.5979 83.402C69.2268 81.2812 79.362 71.4338 81.8132 58.8688C84.1684 46.794 79.1382 34.4848 69.003 27.5149C68.7899 27.3657 68.7473 27.1419 68.7473 27.0353C68.7473 26.9394 68.7579 26.6836 68.9924 26.5024L70.3032 25.4793C71.3476 24.6694 72.861 24.6907 73.9054 25.5539C84.0086 33.824 88.7404 46.9326 86.2466 59.7534C83.4331 74.1941 71.742 85.4909 57.1627 87.8568L55.7559 88.0806L56.502 93.3773C56.5552 93.7397 56.1822 94.0381 55.8519 93.8889L42.5408 88.6455C41.9866 88.4217 41.8907 87.697 42.3597 87.3453L53.6884 78.5849C53.9762 78.3611 54.4131 78.5316 54.4664 78.9046L55.1272 83.6685L56.5979 83.402Z" fill="#1F1D20"/>
<path opacity="0.15" d="M51.376 27.8026C51.0883 28.0264 50.662 27.8559 50.6087 27.4829L49.8201 22.1009L48.4453 22.2395C34.9744 23.5717 23.7628 33.7707 21.1731 47.0498C18.5834 60.3502 25.1589 74.0235 37.1698 80.3007C37.4469 80.4499 37.5108 80.6844 37.5108 80.8123C37.5108 80.8656 37.5215 80.9295 37.5002 81.0041C37.4788 81.1214 37.4149 81.2706 37.255 81.3771L35.6777 82.6027C34.7186 83.3487 33.3758 83.3914 32.3313 82.7093C19.9368 74.7163 13.8195 60.1583 16.8355 45.707C20.0114 30.4989 33.056 19.33 48.4985 17.6568L49.1486 17.5822L48.4559 12.9356C48.4026 12.5733 48.7756 12.2749 49.1167 12.4241L62.6089 17.8167C63.1631 18.0405 63.259 18.7652 62.7901 19.1382L51.376 27.8026Z" fill="#1F1D20"/>
<path d="M56.8549 82.0817C69.4838 79.9609 79.619 70.1135 82.0702 57.5485C84.4254 45.4737 79.3952 33.1645 69.26 26.1946C69.0469 26.0454 69.0043 25.8216 69.0043 25.715C69.0043 25.6191 69.0149 25.3633 69.2494 25.1821L70.5602 24.159C71.6046 23.3491 73.118 23.3704 74.1624 24.2336C84.2656 32.4931 88.9975 45.6016 86.5036 58.4224C83.6901 72.8631 71.999 84.1599 57.4304 86.5152L56.0236 86.7496L56.7696 92.0464C56.8229 92.4087 56.4499 92.7071 56.1195 92.5579L42.8191 87.3145C42.265 87.0907 42.169 86.366 42.638 86.0143L53.9667 77.2539C54.2545 77.0301 54.6914 77.2007 54.7447 77.5737L55.4055 82.3375L56.8549 82.0817Z" fill="#F2F1F0"/>
<path d="M51.632 26.4814C51.3443 26.7052 50.918 26.5347 50.8647 26.1617L50.076 20.7797L48.7012 20.9183C35.241 22.2398 24.0188 32.4495 21.4291 45.7179C18.8393 59.0183 25.4256 72.6917 37.4258 78.9689C37.7029 79.1181 37.7668 79.3525 37.7668 79.4804C37.7668 79.5337 37.7775 79.5977 37.7561 79.6723C37.7348 79.7895 37.6709 79.9387 37.511 80.0453L35.9337 81.2709C34.9746 82.0169 33.6318 82.0595 32.5873 81.3774C20.2035 73.3951 14.0862 58.8265 17.1022 44.3858C20.2674 29.199 33.312 18.0195 48.7545 16.3463L49.4046 16.2717L48.7119 11.6251C48.6586 11.2627 49.0316 10.9643 49.3727 11.1135L62.8649 16.4955C63.4191 16.7193 63.515 17.444 63.046 17.817L51.632 26.4814Z" fill="#F2F1F0"/>
<path opacity="0.15" fill-rule="evenodd" clip-rule="evenodd" d="M51.1033 56.0398H48.8698L47.5373 57.4921H51.1033V67.9784H37.9113L35.1713 70.9627H33.4097C32.5289 70.9627 31.8086 70.2369 31.8086 69.3495V69.5112C31.8086 70.3174 32.449 71.0439 33.25 71.0439H70.3182C71.1184 71.0439 71.8395 70.3978 71.8395 69.5112V41.8809L61.8521 41.915L51.1033 53.6066V56.0398Z" fill="#1F1D20"/>
<path opacity="0.15" fill-rule="evenodd" clip-rule="evenodd" d="M31.8086 44.1009V46.7625V69.35C31.8086 70.2375 32.5289 70.9632 33.4097 70.9632H35.1705L37.9105 67.9781H34.7704V57.4918H47.5373L48.8699 56.0395H34.7704V45.5532H51.1033V53.6063L62.0522 41.6798L31.8086 41.5449V44.1009Z" fill="#1F1D20"/>
<path fill-rule="evenodd" clip-rule="evenodd" d="M51.1033 54.5222H48.8698L47.5373 55.9745H51.1033V66.4608H37.9113L35.1713 69.4451H33.4097C32.5289 69.4451 31.8086 68.7194 31.8086 67.8319V67.9936C31.8086 68.7998 32.449 69.5264 33.25 69.5264H70.3182C71.1184 69.5264 71.8395 68.8803 71.8395 67.9936V40.3633L61.8521 40.3974L51.1033 52.089V54.5222Z" fill="#9FA0A1"/>
<path fill-rule="evenodd" clip-rule="evenodd" d="M71.8399 41.2123V36.614C71.8399 35.8078 71.1995 35.082 70.3187 35.082H66.7156L61.0879 41.2123H71.8399Z" fill="#7A7A7A"/>
<path fill-rule="evenodd" clip-rule="evenodd" d="M33.4097 35.082H33.25C32.449 35.082 31.8086 35.8086 31.8086 36.6148V36.6952C31.8086 35.8086 32.5289 35.082 33.4097 35.082Z" fill="#7A7A7A"/>
<path fill-rule="evenodd" clip-rule="evenodd" d="M51.1046 52.0898L48.8711 54.5231H51.1046V52.0898Z" fill="#0072C5"/>
<path fill-rule="evenodd" clip-rule="evenodd" d="M51.1051 55.9766H47.5391L37.9131 66.4629H51.1051V55.9766Z" fill="#0072C5"/>
<path fill-rule="evenodd" clip-rule="evenodd" d="M31.8086 41.2129V41.2942H61.0141L61.0875 41.2129H31.8086Z" fill="white"/>
<path fill-rule="evenodd" clip-rule="evenodd" d="M31.8086 42.5835V45.2452V67.8326C31.8086 68.7201 32.5289 69.4459 33.4097 69.4459H35.1705L37.9105 66.4608H34.7704V55.9745H47.5373L48.8699 54.5222H34.7704V44.0358H51.1033V52.0889L61.0141 41.293H31.8086V42.5835Z" fill="#9FA0A1"/>
<path fill-rule="evenodd" clip-rule="evenodd" d="M31.8086 42.5833V45.2449V67.8324C31.8086 68.7199 32.5289 69.4456 33.4097 69.4456H35.1705L37.9105 66.4606H34.7704V55.9742H47.5373L48.8699 54.5219H34.7704V44.0356H51.1033V52.0887L62.0522 40.1623L31.8086 40.0273V42.5833Z" fill="#BABBBC"/>
<path fill-rule="evenodd" clip-rule="evenodd" d="M66.7156 35.082H33.4094C32.5294 35.082 31.8091 35.8086 31.8091 36.6952V41.2123H61.088L66.7156 35.082Z" fill="#7A7A7A"/>
<path fill-rule="evenodd" clip-rule="evenodd" d="M66.7156 35.082H33.4094C32.5294 35.082 31.8091 35.8086 31.8091 36.6952V41.2123H61.088L66.7156 35.082Z" fill="#9E9E9E"/>
<path fill-rule="evenodd" clip-rule="evenodd" d="M51.1049 44.0371H34.772V54.5242H48.8714L51.1049 52.091V44.0371Z" fill="#0072C5"/>
<path fill-rule="evenodd" clip-rule="evenodd" d="M51.1049 44.0371H34.772V54.5242H48.8714L51.1049 52.091V44.0371Z" fill="#479AD1"/>
<path fill-rule="evenodd" clip-rule="evenodd" d="M34.772 55.9766V66.4629H37.9121L47.5381 55.9766H34.772Z" fill="#0072C5"/>
<path fill-rule="evenodd" clip-rule="evenodd" d="M34.772 55.9766V66.4629H37.9121L47.5381 55.9766H34.772Z" fill="#479AD1"/>
<path fill-rule="evenodd" clip-rule="evenodd" d="M52.5444 54.5223H68.7967V44.0352H52.5444V54.5223Z" fill="white"/>
<path fill-rule="evenodd" clip-rule="evenodd" d="M52.5444 66.4609H68.7967V55.9746H52.5444V66.4609Z" fill="#0072C5"/>
<defs>
<linearGradient id="paint0_linear_60_556" x1="49.8427" y1="-13.7373" x2="53.8247" y2="132.033" gradientUnits="userSpaceOnUse">
<stop stop-color="#00ABDE"/>
<stop offset="1" stop-color="#007ED8"/>
</linearGradient>
<linearGradient id="paint1_linear_60_556" x1="3.04702" y1="-20.5699" x2="98.5746" y2="120.311" gradientUnits="userSpaceOnUse">
<stop stop-color="#007ED8"/>
<stop offset="0.7065" stop-color="#002D4C"/>
</linearGradient>
</defs>
</svg>
