<svg width="103" height="103" viewBox="0 0 103 103" fill="none" xmlns="http://www.w3.org/2000/svg">
<path d="M51.3578 98.4423C25.5078 98.4423 4.54785 77.4923 4.54785 51.6323C4.54785 25.7723 25.5078 4.82227 51.3578 4.82227C77.2078 4.82227 98.1678 25.7823 98.1678 51.6323C98.1678 77.4823 77.2078 98.4423 51.3578 98.4423Z" fill="url(#paint0_linear_629_927)"/>
<path fill-rule="evenodd" clip-rule="evenodd" d="M97.2578 51.6322C97.2578 76.9822 76.7078 97.5322 51.3578 97.5322C26.0078 97.5322 5.45777 76.9822 5.45777 51.6322C5.45777 26.2822 26.0078 5.73219 51.3578 5.73219C76.7078 5.73219 97.2578 26.2822 97.2578 51.6322ZM51.3578 1.99219C78.7778 1.99219 100.998 24.2122 100.998 51.6322C100.998 79.0522 78.7678 101.272 51.3578 101.272C23.9378 101.272 1.71777 79.0422 1.71777 51.6322C1.71777 24.2122 23.9378 1.99219 51.3578 1.99219Z" fill="#F2F1F0"/>
<path fill-rule="evenodd" clip-rule="evenodd" d="M94.4478 51.6322C94.4478 75.4322 75.1578 94.7222 51.3578 94.7222C27.5578 94.7222 8.26783 75.4322 8.26783 51.6322C8.26783 27.8322 27.5578 8.54225 51.3578 8.54225C75.1578 8.54225 94.4478 27.8322 94.4478 51.6322ZM51.3578 4.80225C77.2178 4.80225 98.1878 25.7722 98.1878 51.6322C98.1878 77.4922 77.2178 98.4623 51.3578 98.4623C25.4978 98.4623 4.52783 77.4922 4.52783 51.6322C4.52783 25.7722 25.4878 4.80225 51.3578 4.80225Z" fill="url(#paint1_linear_629_927)"/>
<path opacity="0.15" d="M87.4479 47.9872C87.4472 47.6091 87.2965 47.2467 87.0288 46.9796C86.7612 46.7125 86.3986 46.5625 86.0205 46.5625C85.5082 46.5625 82.3067 46.2797 80.5885 44.943C79.9383 42.6151 79.0065 40.3753 77.8138 38.2731C77.5123 36.2827 79.5693 34.8367 80.5111 33.2866C80.6765 33.0198 80.7779 32.8597 80.8312 32.753C80.9224 32.5002 80.9407 32.2268 80.8841 31.9641C80.8274 31.7014 80.6982 31.4598 80.5111 31.2669C79.5416 29.8987 78.4714 28.6047 77.3095 27.3957C76.0229 26.1781 74.6623 25.0411 73.2355 23.9913C72.9664 23.7259 72.6036 23.5771 72.2257 23.5771C71.8477 23.5771 71.4849 23.7259 71.2158 23.9913C70.8477 24.3515 68.4144 26.3578 66.2214 26.678H66.192C64.0992 25.5021 61.8747 24.5779 59.5647 23.9246H59.5354C57.9159 22.7294 58.3428 20.2561 57.9159 18.4899C57.9152 18.1118 57.7645 17.7495 57.4969 17.4824C57.2293 17.2153 56.8666 17.0652 56.4885 17.0652C54.8339 16.7855 53.1611 16.6267 51.4834 16.5903C49.7124 16.6347 47.9461 16.7933 46.1955 17.0652C45.8178 17.0659 45.4559 17.2163 45.1888 17.4833C44.9218 17.7503 44.7715 18.1123 44.7708 18.4899C44.7708 19.0049 44.4879 22.2064 43.1486 23.9246C40.8279 24.5953 38.5904 25.5261 36.4787 26.6993C34.4883 26.9981 33.0423 24.9411 31.4922 24.002C31.2254 23.8366 31.0653 23.7352 30.9586 23.6818C30.7058 23.5901 30.4323 23.5715 30.1695 23.6281C29.9066 23.6847 29.6651 23.8143 29.4725 24.002C28.1036 24.9705 26.8095 26.0408 25.6013 27.2036C24.3837 28.4902 23.2467 29.8508 22.1969 31.2776C21.9317 31.5462 21.7829 31.9086 21.7829 32.2861C21.7829 32.6636 21.9317 33.026 22.1969 33.2946C22.5544 33.6548 24.6221 36.128 24.8943 38.2811V38.3024C23.7261 40.4142 22.8015 42.6519 22.1382 44.9724V44.9724C20.7509 46.6612 18.4724 46.165 16.7062 46.5918C16.3279 46.5925 15.9652 46.7431 15.6977 47.0107C15.4302 47.2782 15.2795 47.6409 15.2788 48.0192C14.9987 49.6702 14.8391 51.3395 14.8013 53.0137C14.8456 54.7847 15.0043 56.551 15.2762 58.3016C15.2769 58.6797 15.4276 59.0421 15.6952 59.3092C15.9628 59.5763 16.3254 59.7263 16.7035 59.7263C17.2185 59.7263 20.42 60.0091 22.1356 61.3485C22.1756 61.3271 22.1542 61.3751 22.1542 61.3751C22.8137 63.6664 23.7349 65.874 24.8996 67.9544C24.8809 67.9837 24.8996 67.9544 24.8996 68.0211C25.0944 70.0995 23.1441 71.4575 22.2023 73.0102C22.0368 73.277 21.9355 73.4344 21.8821 73.5438C21.791 73.7967 21.7727 74.07 21.8293 74.3327C21.8859 74.5954 22.0151 74.837 22.2023 75.0299C23.1718 76.3981 24.2419 77.6921 25.4038 78.9011C26.6874 80.1222 28.0482 81.2593 29.4779 82.3055C29.747 82.5709 30.1097 82.7197 30.4877 82.7197C30.8657 82.7197 31.2284 82.5709 31.4975 82.3055C31.855 81.948 34.3309 79.8803 36.484 79.6082C36.484 79.6082 36.484 79.6082 36.5133 79.6268C38.5842 80.7941 40.7901 81.7036 43.0819 82.3348C43.1097 82.3466 43.1382 82.3564 43.1673 82.3642C44.7894 83.5568 44.3626 86.03 44.7894 87.7962C44.8748 88.5966 45.323 89.0982 46.2141 89.2236C47.8696 89.5034 49.5434 89.6622 51.2219 89.6985C52.9918 89.655 54.7571 89.499 56.5072 89.2316C57.2943 89.0982 57.9346 88.5913 57.9346 87.8069C57.9346 87.292 58.2147 84.0904 59.5541 82.3749L59.6715 82.2761C61.8806 81.6884 64.0009 80.8073 65.9759 79.6562C66.0826 79.6188 65.9759 79.6268 66.2187 79.5895C68.209 79.288 69.6551 81.345 71.2052 82.2868C71.472 82.4522 71.632 82.5536 71.7388 82.607C71.9916 82.6981 72.2649 82.7164 72.5277 82.6598C72.7904 82.6032 73.0319 82.474 73.2248 82.2868C74.593 81.3173 75.887 80.2472 77.0961 79.0852C78.3171 77.8017 79.4543 76.4409 80.5004 75.0112C80.7658 74.7421 80.9146 74.3794 80.9146 74.0014C80.9146 73.6234 80.7658 73.2607 80.5004 72.9916C80.1509 72.6447 78.0859 70.1555 77.8138 68.0024C77.7844 67.7783 77.8138 67.7516 77.8324 67.6929C79.0357 65.5585 79.7934 64.0165 80.4524 61.6099C80.4524 61.6099 80.4231 61.5326 80.5778 61.3271C81.7731 59.7077 84.2463 60.1345 86.0125 59.7077C86.3901 59.7069 86.7521 59.5566 87.0191 59.2896C87.2862 59.0226 87.4365 58.6606 87.4372 58.2829C87.7184 56.6276 87.878 54.9538 87.9148 53.2751C87.8712 51.5044 87.7152 49.7382 87.4479 47.9872V47.9872Z" fill="#1F1D20"/>
<path opacity="0.15" d="M87.4479 46.9313C87.4472 46.5529 87.2965 46.1903 87.029 45.9227C86.7615 45.6552 86.3988 45.5046 86.0205 45.5039C85.5082 45.5039 82.3067 45.2238 80.5885 43.8844C79.9378 41.5567 79.006 39.3169 77.8138 37.2145C77.5123 35.2268 79.5693 33.7808 80.5111 32.228C80.6765 31.9612 80.7779 31.8011 80.8312 31.6944C80.9224 31.442 80.9408 31.169 80.8842 30.9067C80.8276 30.6444 80.6983 30.4033 80.5111 30.211C79.5423 28.8422 78.4721 27.5482 77.3095 26.3397C76.0234 25.1208 74.6627 23.9829 73.2355 22.9327C72.9664 22.6673 72.6036 22.5185 72.2257 22.5185C71.8477 22.5185 71.4849 22.6673 71.2158 22.9327C70.8477 23.2929 68.4144 25.3019 66.2214 25.6221H66.192C64.0993 24.4453 61.8748 23.5202 59.5647 22.866H59.5354C57.9159 21.6734 58.3428 19.1976 57.9159 17.434C57.9152 17.0557 57.7646 16.693 57.4971 16.4255C57.2295 16.158 56.8669 16.0073 56.4885 16.0066C54.8339 15.7269 53.1611 15.5681 51.4834 15.5317C49.7124 15.5761 47.9461 15.7347 46.1955 16.0066C45.8174 16.0073 45.455 16.158 45.1879 16.4256C44.9208 16.6933 44.7708 17.0559 44.7708 17.434C44.7708 17.9463 44.4879 21.1478 43.1486 22.866C40.8279 23.5367 38.5904 24.4675 36.4787 25.6407C34.4883 25.9422 33.0423 23.8852 31.4922 22.9434C31.2254 22.778 31.0653 22.6766 30.9586 22.6232C30.7058 22.5321 30.4324 22.5138 30.1697 22.5704C29.907 22.627 29.6654 22.7563 29.4725 22.9434C28.1043 23.9129 26.8103 24.9831 25.6013 26.145C24.3829 27.4298 23.2451 28.7886 22.1943 30.2137C21.9288 30.4828 21.78 30.8455 21.78 31.2235C21.78 31.6015 21.9288 31.9642 22.1943 32.2333C22.5518 32.5908 24.6195 35.0641 24.8916 37.2198V37.2385C23.7234 39.3503 22.7988 41.588 22.1356 43.9084V43.9084C20.7482 45.5973 18.4698 45.101 16.7035 45.5279C16.3252 45.5286 15.9625 45.6792 15.695 45.9468C15.4275 46.2143 15.2769 46.5769 15.2762 46.9553C14.9964 48.6099 14.8377 50.2827 14.8013 51.9604C14.8456 53.7314 15.0043 55.4978 15.2762 57.2484C15.2769 57.6267 15.4275 57.9894 15.695 58.2569C15.9625 58.5244 16.3252 58.675 16.7035 58.6757C17.2185 58.6757 20.42 58.9425 22.1356 60.2952C22.1756 60.2765 22.1542 60.3246 22.1542 60.3246C22.8142 62.6147 23.7354 64.8214 24.8996 66.9011C24.8809 66.9305 24.8996 66.9011 24.8996 66.9705C25.0944 69.0462 23.1441 70.4042 22.2023 71.957C22.0368 72.2238 21.9355 72.3839 21.8821 72.4906C21.7909 72.743 21.7726 73.0159 21.8292 73.2782C21.8858 73.5406 22.0151 73.7817 22.2023 73.974C23.1718 75.3422 24.2419 76.6362 25.4038 77.8452C26.6874 79.0663 28.0482 80.2034 29.4779 81.2496C29.7463 81.5163 30.1093 81.666 30.4877 81.666C30.8661 81.666 31.2291 81.5163 31.4975 81.2496C31.855 80.8921 34.3309 78.8244 36.484 78.5522C36.484 78.5522 36.484 78.5522 36.5133 78.5736C38.5848 79.7389 40.7906 80.6474 43.0819 81.2789C43.1097 81.2906 43.1382 81.3005 43.1673 81.3083C44.7894 82.5009 44.3626 84.9767 44.7894 86.7429C44.8748 87.5433 45.323 88.0423 46.2141 88.1677C47.8696 88.4475 49.5434 88.6062 51.2219 88.6426C52.9917 88.5993 54.757 88.4442 56.5072 88.1783C57.2943 88.0423 57.9346 87.538 57.9346 86.751C57.9346 86.236 58.2147 83.0371 59.5541 81.3189L59.6715 81.2202C61.8805 80.6334 64.0008 79.7532 65.9759 78.6029C66.0826 78.5629 65.9759 78.5736 66.2187 78.5336C68.209 78.2347 69.6551 80.2891 71.2052 81.2309C71.472 81.3963 71.632 81.4977 71.7388 81.5511C71.9915 81.6428 72.265 81.6614 72.5279 81.6048C72.7907 81.5482 73.0323 81.4186 73.2248 81.2309C74.593 80.2614 75.887 79.1912 77.0961 78.0293C78.3171 76.7458 79.4543 75.385 80.5004 73.9553C80.7658 73.6862 80.9146 73.3234 80.9146 72.9455C80.9146 72.5675 80.7658 72.2047 80.5004 71.9356C80.1402 71.5781 78.0752 69.1049 77.8031 66.9492C77.7737 66.7277 77.8031 66.6984 77.8218 66.6397C79.025 64.5053 79.7827 62.9632 80.4417 60.5567C80.4417 60.5567 80.4124 60.4793 80.5671 60.2899C81.7624 58.6677 84.2356 59.0946 86.0018 58.6677C86.3794 58.667 86.7414 58.5167 87.0084 58.2497C87.2755 57.9826 87.4258 57.6207 87.4265 57.243C87.7124 55.5818 87.8756 53.9018 87.9148 52.2165C87.8712 50.4467 87.7153 48.6814 87.4479 46.9313V46.9313Z" fill="#1F1D20"/>
<path d="M87.4479 46.9296C87.4472 46.5515 87.2965 46.1891 87.0288 45.922C86.7612 45.6549 86.3986 45.5049 86.0205 45.5049C85.5082 45.5049 82.3067 45.2221 80.5885 43.8854C79.9383 41.5575 79.0065 39.3176 77.8138 37.2154C77.5123 35.2251 79.5693 33.7791 80.5111 32.229C80.6765 31.9622 80.7779 31.8021 80.8312 31.6954C80.9224 31.4425 80.9407 31.1692 80.8841 30.9065C80.8274 30.6438 80.6982 30.4022 80.5111 30.2093C79.5416 28.8411 78.4714 27.5471 77.3095 26.3381C76.0229 25.1205 74.6623 23.9835 73.2355 22.9337C72.9664 22.6683 72.6036 22.5195 72.2257 22.5195C71.8477 22.5195 71.4849 22.6683 71.2158 22.9337C70.8477 23.2939 68.4144 25.3002 66.2214 25.6204H66.192C64.0992 24.4444 61.8747 23.5202 59.5647 22.867H59.5354C57.9159 21.6718 58.3428 19.1985 57.9159 17.4323C57.9152 17.0542 57.7645 16.6918 57.4969 16.4247C57.2293 16.1576 56.8666 16.0076 56.4885 16.0076C54.8339 15.7278 53.1611 15.5691 51.4834 15.5327C49.7124 15.5771 47.9461 15.7357 46.1955 16.0076C45.8178 16.0083 45.4559 16.1587 45.1888 16.4257C44.9218 16.6927 44.7715 17.0547 44.7708 17.4323C44.7708 17.9472 44.4879 21.1488 43.1486 22.867C40.8279 23.5377 38.5904 24.4685 36.4787 25.6417C34.4883 25.9405 33.0423 23.8835 31.4922 22.9444C31.2254 22.779 31.0653 22.6776 30.9586 22.6242C30.7058 22.5325 30.4323 22.5139 30.1695 22.5705C29.9066 22.6271 29.6651 22.7567 29.4725 22.9444C28.1036 23.9129 26.8095 24.9831 25.6013 26.146C24.3837 27.4326 23.2467 28.7932 22.1969 30.22C21.9317 30.4886 21.7829 30.851 21.7829 31.2285C21.7829 31.606 21.9317 31.9683 22.1969 32.237C22.5544 32.5972 24.6221 35.0704 24.8943 37.2234V37.2448C23.7261 39.3566 22.8015 41.5943 22.1382 43.9147V43.9147C20.7509 45.6036 18.4724 45.1073 16.7062 45.5342C16.3279 45.5349 15.9652 45.6855 15.6977 45.9531C15.4302 46.2206 15.2795 46.5832 15.2788 46.9616C14.9987 48.6126 14.8391 50.2819 14.8013 51.9561C14.8456 53.7271 15.0043 55.4934 15.2762 57.244C15.2769 57.6221 15.4276 57.9845 15.6952 58.2516C15.9628 58.5187 16.3254 58.6687 16.7035 58.6687C17.2185 58.6687 20.42 58.9515 22.1356 60.2908C22.1756 60.2695 22.1542 60.3175 22.1542 60.3175C22.8137 62.6087 23.7349 64.8164 24.8996 66.8968C24.8809 66.9261 24.8996 66.8968 24.8996 66.9635C25.0944 69.0418 23.1441 70.3998 22.2023 71.9526C22.0368 72.2194 21.9355 72.3768 21.8821 72.4862C21.791 72.739 21.7727 73.0124 21.8293 73.2751C21.8859 73.5378 22.0151 73.7794 22.2023 73.9723C23.1718 75.3405 24.2419 76.6345 25.4038 77.8435C26.6874 79.0646 28.0482 80.2017 29.4779 81.2479C29.747 81.5133 30.1097 81.6621 30.4877 81.6621C30.8657 81.6621 31.2284 81.5133 31.4975 81.2479C31.855 80.8904 34.3309 78.8227 36.484 78.5505C36.484 78.5505 36.484 78.5505 36.5133 78.5692C38.5842 79.7365 40.7901 80.646 43.0819 81.2772C43.1097 81.289 43.1382 81.2988 43.1673 81.3066C44.7894 82.4992 44.3626 84.9724 44.7894 86.7386C44.8748 87.539 45.323 88.0406 46.2141 88.166C47.8696 88.4458 49.5434 88.6046 51.2219 88.6409C52.9918 88.5973 54.7571 88.4414 56.5072 88.174C57.2943 88.0406 57.9346 87.5336 57.9346 86.7493C57.9346 86.2343 58.2147 83.0328 59.5541 81.3172L59.6715 81.2185C61.8806 80.6308 64.0009 79.7497 65.9759 78.5986C66.0826 78.5612 65.9759 78.5692 66.2187 78.5319C68.209 78.2304 69.6551 80.2874 71.2052 81.2292C71.472 81.3946 71.632 81.496 71.7388 81.5494C71.9916 81.6405 72.2649 81.6588 72.5277 81.6022C72.7904 81.5456 73.0319 81.4163 73.2248 81.2292C74.593 80.2597 75.887 79.1896 77.0961 78.0276C78.3171 76.7441 79.4543 75.3833 80.5004 73.9536C80.7658 73.6845 80.9146 73.3217 80.9146 72.9438C80.9146 72.5658 80.7658 72.203 80.5004 71.9339C80.1509 71.5871 78.0859 69.0979 77.8138 66.9448C77.7844 66.7207 77.8138 66.694 77.8324 66.6353C79.0357 64.5009 79.7934 62.9588 80.4524 60.5523C80.4524 60.5523 80.4231 60.4749 80.5778 60.2695C81.7731 58.65 84.2463 59.0769 86.0125 58.65C86.3901 58.6493 86.7521 58.499 87.0191 58.232C87.2862 57.9649 87.4365 57.603 87.4372 57.2253C87.7184 55.57 87.878 53.8962 87.9148 52.2175C87.8712 50.4468 87.7152 48.6806 87.4479 46.9296V46.9296Z" fill="#092E4C"/>
<path d="M51.3577 76.1402C64.6418 76.1402 75.4107 65.3713 75.4107 52.0872C75.4107 38.8031 64.6418 28.0342 51.3577 28.0342C38.0736 28.0342 27.3047 38.8031 27.3047 52.0872C27.3047 65.3713 38.0736 76.1402 51.3577 76.1402Z" fill="white"/>
<path d="M55.2827 35.4238H47.4336V47.1975H55.2827V35.4238Z" fill="#2490CF"/>
<path d="M64.1126 66.8203H38.6029L36.6406 58.9712H66.0749L64.1126 66.8203Z" fill="#173F68"/>
<path d="M38.6029 66.8206L36.6406 58.9715L47.4332 47.1978H55.2823L38.6029 66.8206Z" fill="#2490CF"/>
<path d="M64.1126 66.8202L52.3389 55.0465L57.2446 49.1597L66.0749 58.9711L64.1126 66.8202Z" fill="#0E6EA8"/>
<defs>
<linearGradient id="paint0_linear_629_927" x1="49.5839" y1="-13.1572" x2="53.5659" y2="132.613" gradientUnits="userSpaceOnUse">
<stop stop-color="#00ABDE"/>
<stop offset="1" stop-color="#007ED8"/>
</linearGradient>
<linearGradient id="paint1_linear_629_927" x1="2.78823" y1="-19.9904" x2="98.3158" y2="120.891" gradientUnits="userSpaceOnUse">
<stop stop-color="#007ED8"/>
<stop offset="0.7065" stop-color="#002D4C"/>
</linearGradient>
</defs>
</svg>
