<svg width="103" height="103" viewBox="0 0 103 103" fill="none" xmlns="http://www.w3.org/2000/svg">
<path d="M51.0922 98.6288C25.2422 98.6288 4.28217 77.6788 4.28217 51.8188C4.28217 25.9588 25.2422 5.00879 51.0922 5.00879C76.9422 5.00879 97.9022 25.9688 97.9022 51.8188C97.9022 77.6688 76.9422 98.6288 51.0922 98.6288Z" fill="url(#paint0_linear_303_220)"/>
<path fill-rule="evenodd" clip-rule="evenodd" d="M96.9921 51.8187C96.9921 77.1687 76.4421 97.7187 51.0921 97.7187C25.7421 97.7187 5.19215 77.1687 5.19215 51.8187C5.19215 26.4687 25.7421 5.91872 51.0921 5.91872C76.4421 5.91872 96.9921 26.4687 96.9921 51.8187ZM51.0921 2.17871C78.5121 2.17871 100.732 24.3987 100.732 51.8187C100.732 79.2387 78.5021 101.459 51.0921 101.459C23.6721 101.459 1.45215 79.2287 1.45215 51.8187C1.45215 24.3987 23.6721 2.17871 51.0921 2.17871Z" fill="#F2F1F0"/>
<path fill-rule="evenodd" clip-rule="evenodd" d="M94.1822 51.8183C94.1822 75.6183 74.8921 94.9083 51.0921 94.9083C27.2921 94.9083 8.00215 75.6183 8.00215 51.8183C8.00215 28.0183 27.2921 8.72829 51.0921 8.72829C74.8921 8.72829 94.1822 28.0183 94.1822 51.8183ZM51.0921 4.98828C76.9521 4.98828 97.9221 25.9583 97.9221 51.8183C97.9221 77.6783 76.9521 98.6483 51.0921 98.6483C25.2321 98.6483 4.26215 77.6783 4.26215 51.8183C4.26215 25.9583 25.2221 4.98828 51.0921 4.98828Z" fill="url(#paint1_linear_303_220)"/>
<path opacity="0.15" d="M89.4515 49.1093C89.4515 48.274 88.771 47.5935 87.9357 47.5935C87.3892 47.5935 83.9863 47.2944 82.1612 45.8714C82.1612 45.8714 82.1715 45.8508 82.1612 45.8714C81.4703 43.3554 80.4598 41.0043 79.212 38.777C78.8924 36.6631 81.0785 35.1267 82.0787 33.4768C82.254 33.1881 82.3571 33.0231 82.419 32.9097C82.6046 32.3735 82.5015 31.7548 82.0787 31.332C82.0787 31.332 80.3979 28.9294 78.6758 27.2177C76.9538 25.5059 74.3449 23.5983 74.3449 23.5983C73.7572 23.0105 72.7879 23.0105 72.2001 23.5983C71.8083 23.9798 69.2201 26.1143 66.8896 26.4546C66.8587 26.4546 66.8587 26.4546 66.8587 26.4546C64.6932 25.2275 62.2597 24.217 59.8158 23.5261H59.7849C58.0628 22.2577 58.5166 19.6283 58.0628 17.7516C58.0628 16.9163 57.3823 16.2357 56.547 16.2357C56.547 16.2357 53.6598 15.7305 51.2262 15.7305C48.7927 15.7305 45.6064 16.2357 45.6064 16.2357C44.7711 16.2357 44.0906 16.9163 44.0906 17.7516C44.0906 18.2981 43.7915 21.7009 42.3685 23.5261C39.9556 24.2066 37.4189 25.2791 35.2741 26.4752C33.1602 26.7949 31.6238 24.6088 29.9739 23.6086C29.6852 23.4333 29.5202 23.3302 29.4068 23.2683C28.8706 23.0827 28.2519 23.1858 27.8291 23.6086C27.8291 23.6086 25.4265 25.2894 23.7147 27.0114C22.003 28.7335 20.0953 31.3423 20.0953 31.3423C19.5076 31.9301 19.5076 32.8994 20.0953 33.4871C20.4769 33.8687 22.6732 36.4981 22.962 38.7873V38.8079C21.7658 40.9528 20.714 43.4791 20.0335 45.8921C20.0335 45.8921 20.0644 45.8508 20.0335 45.8921C18.5589 47.6863 16.1357 47.1604 14.2589 47.6141C13.4237 47.6141 12.7431 48.2947 12.7431 49.1299C12.7431 49.1299 12.2379 52.0172 12.2379 54.4507C12.2379 56.8843 12.7431 60.0706 12.7431 60.0706C12.7431 60.9058 13.4237 61.5864 14.2589 61.5864C14.8055 61.5864 18.2083 61.8854 20.0335 63.3084C20.0747 63.2878 20.0541 63.3394 20.0541 63.3394C20.7553 65.7626 21.7555 68.1859 22.9723 70.3307C22.9517 70.3616 22.9723 70.3307 22.9826 70.4029C23.1888 72.6096 21.1162 74.0532 20.116 75.703C19.9407 75.9918 19.8375 76.1568 19.7757 76.2702C19.5901 76.8064 19.6932 77.4251 20.116 77.8479C20.116 77.8479 21.7968 80.2505 23.5188 81.9622C25.2408 83.6843 27.8497 85.5816 27.8497 85.5816C28.4375 86.1694 29.4068 86.1694 29.9945 85.5816C30.3761 85.2001 33.0055 83.0037 35.2947 82.715C35.2947 82.715 35.2844 82.7253 35.3256 82.7356C37.5323 83.9627 39.8112 84.932 42.3066 85.6125C42.3273 85.6229 42.3994 85.6435 42.3994 85.6435C44.1215 86.9118 43.6678 89.5413 44.1215 91.418C44.2143 92.2636 44.6783 92.7998 45.6373 92.9338C45.6373 92.9338 48.5246 93.4391 50.9581 93.4391C53.3917 93.4391 56.578 92.9441 56.578 92.9441C57.4132 92.7998 58.0938 92.2636 58.0938 91.4283C58.0938 90.8818 58.3928 87.479 59.8158 85.6538C59.8158 85.6538 59.8777 85.6022 59.9396 85.5507C62.4762 84.8392 64.4045 84.0555 66.6421 82.7665C66.7556 82.7253 66.6318 82.7356 66.8999 82.6943C69.0138 82.3747 70.5503 84.5608 72.2001 85.561C72.4888 85.7363 72.6538 85.8394 72.7673 85.9013C73.3035 86.0869 73.9222 85.9838 74.3449 85.561C74.3449 85.561 76.7476 83.8802 78.4593 82.1581C80.1813 80.4361 82.0787 77.8272 82.0787 77.8272C82.6665 77.2395 82.6665 76.2702 82.0787 75.6824C81.6972 75.3009 79.5008 72.6714 79.212 70.3822C79.1811 70.1451 79.2017 70.1141 79.2327 70.0523C80.5113 67.794 81.3156 66.1441 82.0168 63.5869C82.0168 63.5869 81.9859 63.5044 82.1509 63.2878C83.4192 61.5658 86.0487 62.0195 87.9254 61.5658C88.7606 61.5658 89.4412 60.8852 89.4412 60.05C89.4412 60.05 89.9465 57.1627 89.9465 54.7291C89.9465 52.2956 89.4515 49.1093 89.4515 49.1093Z" fill="#1F1D20"/>
<path d="M89.4515 47.0468C89.4515 46.2115 88.771 45.531 87.9357 45.531C87.3892 45.531 83.9863 45.2319 82.1612 43.8089C82.1612 43.8089 82.1715 43.7883 82.1612 43.8089C81.4703 41.2929 80.4598 38.9418 79.212 36.7145C78.8924 34.6006 81.0785 33.0642 82.0787 31.4143C82.254 31.1256 82.3571 30.9606 82.419 30.8472C82.6046 30.311 82.5015 29.6923 82.0787 29.2695C82.0787 29.2695 80.3979 26.8669 78.6758 25.1552C76.9538 23.4434 74.3449 21.5358 74.3449 21.5358C73.7572 20.948 72.7879 20.948 72.2001 21.5358C71.8083 21.9173 69.2201 24.0518 66.8896 24.3921C66.8587 24.3921 66.8587 24.3921 66.8587 24.3921C64.6932 23.165 62.2597 22.1545 59.8158 21.4636H59.7849C58.0628 20.1952 58.5166 17.5658 58.0628 15.6891C58.0628 14.8538 57.3823 14.1732 56.547 14.1732C56.547 14.1732 53.6598 13.668 51.2262 13.668C48.7927 13.668 45.6064 14.1732 45.6064 14.1732C44.7711 14.1732 44.0906 14.8538 44.0906 15.6891C44.0906 16.2356 43.7915 19.6384 42.3685 21.4636C39.9556 22.1441 37.4189 23.2166 35.2741 24.4127C33.1602 24.7324 31.6238 22.5463 29.9739 21.5461C29.6852 21.3708 29.5202 21.2677 29.4068 21.2058C28.8706 21.0202 28.2519 21.1233 27.8291 21.5461C27.8291 21.5461 25.4265 23.2269 23.7147 24.9489C22.003 26.671 20.0953 29.2798 20.0953 29.2798C19.5076 29.8676 19.5076 30.8369 20.0953 31.4246C20.4769 31.8062 22.6732 34.4356 22.962 36.7248V36.7454C21.7658 38.8903 20.714 41.4166 20.0335 43.8296C20.0335 43.8296 20.0644 43.7883 20.0335 43.8296C18.5589 45.6238 16.1357 45.0979 14.2589 45.5516C13.4237 45.5516 12.7431 46.2322 12.7431 47.0674C12.7431 47.0674 12.2379 49.9547 12.2379 52.3882C12.2379 54.8218 12.7431 58.0081 12.7431 58.0081C12.7431 58.8433 13.4237 59.5239 14.2589 59.5239C14.8055 59.5239 18.2083 59.8229 20.0335 61.2459C20.0747 61.2253 20.0541 61.2769 20.0541 61.2769C20.7553 63.7001 21.7555 66.1234 22.9723 68.2682C22.9517 68.2991 22.9723 68.2682 22.9826 68.3404C23.1888 70.5471 21.1162 71.9907 20.116 73.6405C19.9407 73.9293 19.8375 74.0943 19.7757 74.2077C19.5901 74.7439 19.6932 75.3626 20.116 75.7854C20.116 75.7854 21.7968 78.188 23.5188 79.8997C25.2408 81.6218 27.8497 83.5191 27.8497 83.5191C28.4375 84.1069 29.4068 84.1069 29.9945 83.5191C30.3761 83.1376 33.0055 80.9412 35.2947 80.6525C35.2947 80.6525 35.2844 80.6628 35.3256 80.6731C37.5323 81.9002 39.8112 82.8695 42.3066 83.55C42.3273 83.5604 42.3994 83.581 42.3994 83.581C44.1215 84.8493 43.6678 87.4788 44.1215 89.3555C44.2143 90.2011 44.6783 90.7373 45.6373 90.8713C45.6373 90.8713 48.5246 91.3766 50.9581 91.3766C53.3917 91.3766 56.578 90.8816 56.578 90.8816C57.4132 90.7373 58.0938 90.2011 58.0938 89.3658C58.0938 88.8193 58.3928 85.4165 59.8158 83.5913C59.8158 83.5913 59.8777 83.5397 59.9396 83.4882C62.4762 82.7767 64.4045 81.993 66.6421 80.704C66.7556 80.6628 66.6318 80.6731 66.8999 80.6318C69.0138 80.3122 70.5503 82.4983 72.2001 83.4985C72.4888 83.6738 72.6538 83.7769 72.7673 83.8388C73.3035 84.0244 73.9222 83.9213 74.3449 83.4985C74.3449 83.4985 76.7476 81.8177 78.4593 80.0956C80.1813 78.3736 82.0787 75.7647 82.0787 75.7647C82.6665 75.177 82.6665 74.2077 82.0787 73.6199C81.6972 73.2384 79.5008 70.6089 79.212 68.3197C79.1811 68.0826 79.2017 68.0516 79.2327 67.9898C80.5113 65.7315 81.3156 64.0816 82.0168 61.5244C82.0168 61.5244 81.9859 61.4419 82.1509 61.2253C83.4192 59.5033 86.0487 59.957 87.9254 59.5033C88.7606 59.5033 89.4412 58.8227 89.4412 57.9875C89.4412 57.9875 89.9465 55.1002 89.9465 52.6666C89.9465 50.2331 89.4515 47.0468 89.4515 47.0468Z" fill="#F2F1F0"/>
<path d="M29.6158 40.0007L51.1086 27.5977L72.5963 40.0007V64.8193L51.1086 77.2223L29.588 64.8193V40.0865L29.6158 40.0007Z" fill="url(#paint2_linear_303_220)"/>
<path d="M29.6461 40.0449L51.0867 52.3739L51.0892 77.1833L29.6158 64.8072V40.1299L29.6461 40.0449Z" fill="#0078D4"/>
<path opacity="0.5" d="M37.3929 44.506L58.3457 31.7744L64.9154 35.5597L43.9627 48.2995V52.3329C43.963 52.3949 43.9441 52.4555 43.9087 52.5063C43.8732 52.5572 43.8229 52.5958 43.7646 52.6169C43.7064 52.6381 43.643 52.6407 43.5832 52.6244C43.5234 52.6081 43.4701 52.5737 43.4306 52.5259L40.6516 49.2176C40.6144 49.1733 40.5653 49.1404 40.5102 49.1229C40.455 49.1053 40.3961 49.1037 40.3401 49.1183L37.7568 49.6697C37.7131 49.6792 37.6678 49.6787 37.6243 49.6684C37.5808 49.6582 37.5401 49.6383 37.5052 49.6103C37.4704 49.5823 37.4422 49.5469 37.4227 49.5066C37.4033 49.4663 37.3931 49.4222 37.3929 49.3775V44.506Z" fill="white"/>
<path opacity="0.15" d="M68.4825 73.5092C72.6425 73.5092 76.0125 70.1392 76.0125 65.9792C76.0125 61.8192 72.6425 58.4492 68.4825 58.4492C64.3225 58.4492 60.9525 61.8192 60.9525 65.9792C60.9625 70.1392 64.3325 73.5092 68.4825 73.5092Z" fill="#1F1D20"/>
<path d="M68.4825 72.6596C72.6425 72.6596 76.0125 69.2896 76.0125 65.1296C76.0125 60.9696 72.6425 57.5996 68.4825 57.5996C64.3225 57.5996 60.9525 60.9696 60.9525 65.1296C60.9625 69.2896 64.3325 72.6596 68.4825 72.6596Z" fill="#002D4C"/>
<path opacity="0.3" d="M72.5825 61.8398L66.3825 68.0698L64.5225 66.1998L63.2825 67.4498L66.3825 70.5598L73.8325 63.0898L72.5825 61.8398Z" fill="#1F1D20"/>
<path d="M72.5825 61.3096L66.3825 67.5396L64.5225 65.6696L63.2825 66.9196L66.3825 70.0296L73.8325 62.5596L72.5825 61.3096Z" fill="#FAF9F8"/>
<defs>
<linearGradient id="paint0_linear_303_220" x1="49.3183" y1="-12.9707" x2="53.3003" y2="132.799" gradientUnits="userSpaceOnUse">
<stop stop-color="#00ABDE"/>
<stop offset="1" stop-color="#007ED8"/>
</linearGradient>
<linearGradient id="paint1_linear_303_220" x1="2.52255" y1="-19.8043" x2="98.0501" y2="121.077" gradientUnits="userSpaceOnUse">
<stop stop-color="#007ED8"/>
<stop offset="0.7065" stop-color="#002D4C"/>
</linearGradient>
<linearGradient id="paint2_linear_303_220" x1="51.0921" y1="83.5413" x2="51.0921" y2="18.4002" gradientUnits="userSpaceOnUse">
<stop stop-color="#0078D4"/>
<stop offset="1" stop-color="#83B9F9"/>
</linearGradient>
</defs>
</svg>
