<svg width="103" height="103" viewBox="0 0 103 103" fill="none" xmlns="http://www.w3.org/2000/svg">
<path d="M51.3171 97.9755C25.4671 97.9755 4.50714 77.0255 4.50714 51.1655C4.50714 25.3055 25.4671 4.35547 51.3171 4.35547C77.1671 4.35547 98.1271 25.3155 98.1271 51.1655C98.1271 77.0155 77.1671 97.9755 51.3171 97.9755Z" fill="url(#paint0_linear_317_12332)"/>
<path fill-rule="evenodd" clip-rule="evenodd" d="M97.2171 51.1654C97.2171 76.5154 76.6671 97.0654 51.3171 97.0654C25.9671 97.0654 5.41712 76.5154 5.41712 51.1654C5.41712 25.8154 25.9671 5.2654 51.3171 5.2654C76.6671 5.2654 97.2171 25.8154 97.2171 51.1654ZM51.3171 1.52539C78.7371 1.52539 100.957 23.7454 100.957 51.1654C100.957 78.5854 78.7271 100.805 51.3171 100.805C23.8971 100.805 1.67712 78.5754 1.67712 51.1654C1.67712 23.7454 23.8971 1.52539 51.3171 1.52539Z" fill="#F2F1F0"/>
<path fill-rule="evenodd" clip-rule="evenodd" d="M94.4071 51.1659C94.4071 74.9659 75.1171 94.2559 51.3171 94.2559C27.5171 94.2559 8.22712 74.9659 8.22712 51.1659C8.22712 27.3659 27.5171 8.07594 51.3171 8.07594C75.1171 8.07594 94.4071 27.3659 94.4071 51.1659ZM51.3171 4.33594C77.1771 4.33594 98.1471 25.3059 98.1471 51.1659C98.1471 77.0259 77.1771 97.996 51.3171 97.996C25.4571 97.996 4.48712 77.0259 4.48712 51.1659C4.48712 25.3059 25.4471 4.33594 51.3171 4.33594Z" fill="url(#paint1_linear_317_12332)"/>
<path d="M20.5669 76.5478H82.0568C82.7243 76.5478 83.2752 75.9969 83.2752 75.3294V27.3262H19.3485V75.34C19.3485 75.9969 19.8994 76.5478 20.5669 76.5478Z" fill="#092E4C"/>
<path d="M19.3485 32.6326H83.2858V26.9011C83.2858 26.3819 82.8726 25.9688 82.3535 25.9688H20.2914C19.7723 25.9688 19.3591 26.3819 19.3591 26.9011V32.6326H19.3485Z" fill="#9CEBFF"/>
<path d="M24.2749 31.0536C25.1649 31.0536 25.8959 30.3331 25.8959 29.4326C25.8959 28.5321 25.1543 27.8223 24.2749 27.8223C23.385 27.8223 22.654 28.5427 22.654 29.4432C22.654 30.3437 23.3532 31.0536 24.2749 31.0536Z" fill="#32B0E7"/>
<path opacity="0.15" d="M22.2938 77.9872H80.3405C81.9615 77.9872 83.2858 76.6629 83.2858 75.042V28.7656H19.3485V75.0526C19.3485 76.6735 20.6728 77.9872 22.2938 77.9872Z" fill="#1F1D20"/>
<path d="M20.5669 76.5478H82.0568C82.7243 76.5478 83.2752 75.9969 83.2752 75.3294V27.3262H19.3485V75.34C19.3485 75.9969 19.8994 76.5478 20.5669 76.5478Z" fill="white"/>
<path d="M19.3485 32.6326H83.2858V26.9011C83.2858 26.3819 82.8726 25.9688 82.3535 25.9688H20.2914C19.7723 25.9688 19.3591 26.3819 19.3591 26.9011V32.6326H19.3485Z" fill="#E15815"/>
<path d="M24.2749 31.0536C25.1649 31.0536 25.8959 30.3331 25.8959 29.4326C25.8959 28.5321 25.1543 27.8223 24.2749 27.8223C23.385 27.8223 22.654 28.5427 22.654 29.4432C22.654 30.3437 23.3532 31.0536 24.2749 31.0536Z" fill="#BC3200"/>
<path d="M69.1939 41.2734H66.8921V43.0701H69.1939C71.8134 43.0701 73.9441 45.2007 73.9441 47.8203V65.6154H75.7408V47.8244C75.7448 44.2148 72.8075 41.2734 69.1939 41.2734Z" fill="white"/>
<path d="M75.7447 65.6195H73.9481V47.8244C73.9481 45.2048 71.8174 43.0741 69.1979 43.0741H66.8961V41.2734H69.1979C72.8115 41.2734 75.7488 44.2108 75.7488 47.8244V65.6195H75.7447Z" fill="#E15815"/>
<path d="M66.8717 46.2236L63.0218 42.3737L66.8717 38.5238C67.0143 38.3853 67.2546 38.483 67.2546 38.6827V46.0647C67.2546 46.2643 67.0143 46.3662 66.8717 46.2236Z" fill="#E15815"/>
<path d="M59.1434 44.6836H57.3467V67.2901H59.1434V44.6836Z" fill="white"/>
<path d="M59.1434 67.2941H57.3467V44.6836H59.1434V67.2941Z" fill="#E15815"/>
<path d="M58.2431 46.0205C60.241 46.0205 61.8607 44.4008 61.8607 42.4028C61.8607 40.4049 60.241 38.7852 58.2431 38.7852C56.2451 38.7852 54.6254 40.4049 54.6254 42.4028C54.6254 44.4008 56.2451 46.0205 58.2431 46.0205Z" fill="#E15815"/>
<path d="M58.2429 44.1263C59.1947 44.1263 59.9662 43.3547 59.9662 42.403C59.9662 41.4512 59.1947 40.6797 58.2429 40.6797C57.2912 40.6797 56.5197 41.4512 56.5197 42.403C56.5197 43.3547 57.2912 44.1263 58.2429 44.1263Z" fill="white"/>
<path d="M58.2431 68.626C60.241 68.626 61.8607 67.0063 61.8607 65.0083C61.8607 63.0103 60.241 61.3906 58.2431 61.3906C56.2451 61.3906 54.6254 63.0103 54.6254 65.0083C54.6254 67.0063 56.2451 68.626 58.2431 68.626Z" fill="#E15815"/>
<path d="M58.2429 66.7317C59.1947 66.7317 59.9662 65.9602 59.9662 65.0084C59.9662 64.0567 59.1947 63.2852 58.2429 63.2852C57.2912 63.2852 56.5197 64.0567 56.5197 65.0084C56.5197 65.9602 57.2912 66.7317 58.2429 66.7317Z" fill="white"/>
<path d="M74.8118 68.626C76.8098 68.626 78.4295 67.0063 78.4295 65.0083C78.4295 63.0103 76.8098 61.3906 74.8118 61.3906C72.8138 61.3906 71.1942 63.0103 71.1942 65.0083C71.1942 67.0063 72.8138 68.626 74.8118 68.626Z" fill="#E15815"/>
<path d="M74.8118 66.7317C75.7635 66.7317 76.5351 65.9602 76.5351 65.0084C76.5351 64.0567 75.7635 63.2852 74.8118 63.2852C73.86 63.2852 73.0885 64.0567 73.0885 65.0084C73.0885 65.9602 73.86 66.7317 74.8118 66.7317Z" fill="white"/>
<path d="M45.6427 39.7773H31.178C30.6201 39.7773 30.1715 40.226 30.1715 40.7838V44.0794H46.6492V40.7838C46.6492 40.226 46.2006 39.7773 45.6427 39.7773Z" fill="#BC3200"/>
<path d="M47.3461 41.791H29.4765C28.6713 41.791 28.0214 42.4409 28.0214 43.2461V44.3906H48.8012V43.2461C48.8012 42.4409 48.1513 41.791 47.3461 41.791Z" fill="#D13600"/>
<path d="M49.4396 43.8555H27.3831C26.5779 43.8555 25.928 44.5054 25.928 45.3106V66.0271C25.928 66.8323 26.5836 67.4879 27.3888 67.4879H49.4339C50.2391 67.4879 50.8947 66.8323 50.8947 66.0271V45.3106C50.8947 44.5054 50.2448 43.8555 49.4396 43.8555Z" fill="#E15815"/>
<path d="M33.2952 45.9883C31.7654 45.9883 30.5231 47.2306 30.5231 48.7604C30.5231 50.2903 31.7654 51.5326 33.2952 51.5326C34.8251 51.5326 36.0674 50.2903 36.0674 48.7604C36.0674 47.2306 34.8251 45.9883 33.2952 45.9883ZM33.2952 50.5549C32.3002 50.5549 31.4951 49.7497 31.4951 48.7547C31.4951 47.7597 32.3002 46.9545 33.2952 46.9545C34.2902 46.9545 35.0954 47.7597 35.0954 48.7547C35.0954 49.7497 34.2902 50.5549 33.2952 50.5549Z" fill="#FFB290"/>
<path d="M34.3363 51.2344H32.2831V56.8535H34.3363V51.2344Z" fill="#FFB290"/>
<path d="M46.4612 48.8015C46.4612 47.2716 45.2189 46.0293 43.6891 46.0293C42.1592 46.0293 40.9169 47.2716 40.9169 48.8015C40.9169 49.9805 41.6531 50.987 42.6941 51.3896V53.2933L32.2841 56.7326H32.2668V60.2582C31.2488 60.6666 30.5299 61.6673 30.5299 62.8291C30.5299 64.359 31.7722 65.6013 33.3021 65.6013C34.8319 65.6013 36.0742 64.359 36.0742 62.8291C36.0742 61.6788 35.3726 60.6896 34.3776 60.2697V58.0842L44.7301 54.6621L44.7071 54.6219H44.7301V51.3666C45.7423 50.9582 46.4612 49.9632 46.4612 48.8015ZM35.0965 62.8348C35.0965 63.8298 34.2913 64.635 33.2963 64.635C32.3013 64.635 31.4961 63.8298 31.4961 62.8348C31.4961 61.8399 32.3013 61.0347 33.2963 61.0347C34.2913 61.0347 35.0965 61.8399 35.0965 62.8348ZM43.6891 50.5959C42.6941 50.5959 41.8889 49.7907 41.8889 48.7957C41.8889 47.8007 42.6941 46.9955 43.6891 46.9955C44.6841 46.9955 45.4893 47.8007 45.4893 48.7957C45.4893 49.7907 44.6783 50.5959 43.6891 50.5959Z" fill="#FFDBCA"/>
<defs>
<linearGradient id="paint0_linear_317_12332" x1="49.5432" y1="-13.624" x2="53.5252" y2="132.146" gradientUnits="userSpaceOnUse">
<stop stop-color="#00ABDE"/>
<stop offset="1" stop-color="#007ED8"/>
</linearGradient>
<linearGradient id="paint1_linear_317_12332" x1="2.74752" y1="-20.4567" x2="98.2751" y2="120.425" gradientUnits="userSpaceOnUse">
<stop stop-color="#007ED8"/>
<stop offset="0.7065" stop-color="#002D4C"/>
</linearGradient>
</defs>
</svg>
