<svg width="103" height="103" viewBox="0 0 103 103" fill="none" xmlns="http://www.w3.org/2000/svg">
<path d="M51.2208 98.0321C25.3708 98.0321 4.41083 77.0821 4.41083 51.2221C4.41083 25.3621 25.3708 4.41211 51.2208 4.41211C77.0708 4.41211 98.0308 25.3721 98.0308 51.2221C98.0308 77.0721 77.0708 98.0321 51.2208 98.0321Z" fill="url(#paint0_linear_339_25950)"/>
<path fill-rule="evenodd" clip-rule="evenodd" d="M97.1208 51.222C97.1208 76.572 76.5708 97.122 51.2208 97.122C25.8708 97.122 5.32083 76.572 5.32083 51.222C5.32083 25.872 25.8708 5.32204 51.2208 5.32204C76.5708 5.32204 97.1208 25.872 97.1208 51.222ZM51.2208 1.58203C78.6408 1.58203 100.861 23.802 100.861 51.222C100.861 78.642 78.6308 100.862 51.2208 100.862C23.8008 100.862 1.58083 78.632 1.58083 51.222C1.58083 23.802 23.8008 1.58203 51.2208 1.58203Z" fill="#F2F1F0"/>
<path fill-rule="evenodd" clip-rule="evenodd" d="M94.3108 51.2226C94.3108 75.0226 75.0208 94.3126 51.2208 94.3126C27.4208 94.3126 8.13082 75.0226 8.13082 51.2226C8.13082 27.4226 27.4208 8.13258 51.2208 8.13258C75.0208 8.13258 94.3108 27.4226 94.3108 51.2226ZM51.2208 4.39258C77.0808 4.39258 98.0508 25.3626 98.0508 51.2226C98.0508 77.0826 77.0808 98.0526 51.2208 98.0526C25.3608 98.0526 4.39082 77.0826 4.39082 51.2226C4.39082 25.3626 25.3508 4.39258 51.2208 4.39258Z" fill="url(#paint1_linear_339_25950)"/>
<path opacity="0.15" d="M23.2958 76.8153H79.1458C80.7058 76.8153 81.9858 75.5453 81.9858 73.9753V29.4453H20.4558V73.9853C20.4558 75.5453 21.7258 76.8153 23.2958 76.8153Z" fill="#1F1D20"/>
<path d="M21.6258 75.5284H80.7958C81.4458 75.5284 81.9658 74.9984 81.9658 74.3584V28.1484H20.4558V74.3484C20.4558 74.9984 20.9858 75.5284 21.6258 75.5284Z" fill="#EBEBEB"/>
<path d="M20.4558 33.2677H81.9758V27.7477C81.9758 27.2477 81.5758 26.8477 81.0758 26.8477H21.3558C20.8558 26.8477 20.4558 27.2477 20.4558 27.7477V33.2677Z" fill="#092E4C"/>
<path d="M25.1858 31.7467C26.0458 31.7467 26.7458 31.0567 26.7458 30.1867C26.7458 29.3167 26.0358 28.6367 25.1858 28.6367C24.3258 28.6367 23.6258 29.3267 23.6258 30.1967C23.6258 31.0667 24.3058 31.7467 25.1858 31.7467Z" fill="#32B0E7"/>
<path d="M49.428 43.4082H24.5549V63.7212H49.428V43.4082Z" fill="white"/>
<path d="M49.1071 42.0723H24.8328C24.234 42.0723 23.7734 42.5329 23.7734 43.1317V63.4447C23.7734 64.0435 24.234 64.5041 24.8328 64.5041H49.1071C49.7059 64.5041 50.1665 64.0435 50.1665 63.4447V43.1317C50.1665 42.5329 49.7059 42.0723 49.1071 42.0723ZM48.6465 62.5234H25.2934V45.4347H48.6465V62.5234Z" fill="url(#paint2_linear_339_25950)"/>
<path d="M36.3003 49.4883H27.3184V58.4702H36.3003V49.4883Z" fill="#0078D4"/>
<path d="M41.4601 49.4883H37.5909V53.3574H41.4601V49.4883Z" fill="#0078D4"/>
<path d="M41.4601 54.6465H37.5909V58.5156H41.4601V54.6465Z" fill="#017FE4"/>
<path d="M46.5272 49.4883H42.6581V53.3574H46.5272V49.4883Z" fill="#0078D4"/>
<path d="M46.5272 54.6465H42.6581V58.5156H46.5272V54.6465Z" fill="#017FE4"/>
<path opacity="0.15" fill-rule="evenodd" clip-rule="evenodd" d="M53.7473 49.9991H77.6217V45.8848H53.7473V49.9991Z" fill="#1F1D20"/>
<path opacity="0.15" fill-rule="evenodd" clip-rule="evenodd" d="M53.7473 56.2511H77.6217V52.1367H53.7473V56.2511Z" fill="#1F1D20"/>
<path opacity="0.15" fill-rule="evenodd" clip-rule="evenodd" d="M53.7473 62.5382H77.6217V58.4238H53.7473V62.5382Z" fill="#1F1D20"/>
<path fill-rule="evenodd" clip-rule="evenodd" d="M53.7473 49.0948H77.6217V44.9805H53.7473V49.0948Z" fill="#9B9BA0"/>
<path fill-rule="evenodd" clip-rule="evenodd" d="M53.7473 49.0948H69.5775V44.9805H53.7473V49.0948Z" fill="#0150B2"/>
<path fill-rule="evenodd" clip-rule="evenodd" d="M53.7473 55.3468H77.6217V51.2324H53.7473V55.3468Z" fill="#9B9BA0"/>
<path fill-rule="evenodd" clip-rule="evenodd" d="M53.7473 61.6339H77.6217V57.5195H53.7473V61.6339Z" fill="#9B9BA0"/>
<path fill-rule="evenodd" clip-rule="evenodd" d="M53.7473 55.3468H67.9539V51.2324H53.7473V55.3468V55.3468Z" fill="#0172D6"/>
<path fill-rule="evenodd" clip-rule="evenodd" d="M53.7473 61.6339H72.7694V57.5195H53.7473V61.6339Z" fill="#018AF0"/>
<defs>
<linearGradient id="paint0_linear_339_25950" x1="49.4469" y1="-13.5674" x2="53.4289" y2="132.203" gradientUnits="userSpaceOnUse">
<stop stop-color="#00ABDE"/>
<stop offset="1" stop-color="#007ED8"/>
</linearGradient>
<linearGradient id="paint1_linear_339_25950" x1="2.65122" y1="-20.4" x2="98.1788" y2="120.481" gradientUnits="userSpaceOnUse">
<stop stop-color="#007ED8"/>
<stop offset="0.7065" stop-color="#002D4C"/>
</linearGradient>
<linearGradient id="paint2_linear_339_25950" x1="36.9696" y1="64.5049" x2="36.9696" y2="42.0723" gradientUnits="userSpaceOnUse">
<stop stop-color="#008BF1"/>
<stop offset="0.22" stop-color="#0086EC"/>
<stop offset="0.49" stop-color="#0078DD"/>
<stop offset="0.79" stop-color="#0061C4"/>
<stop offset="1" stop-color="#004DAE"/>
</linearGradient>
</defs>
</svg>
