<svg width="103" height="103" viewBox="0 0 103 103" fill="none" xmlns="http://www.w3.org/2000/svg">
<path d="M51.997 98.795C26.147 98.795 5.18701 77.845 5.18701 51.985C5.18701 26.125 26.147 5.17505 51.997 5.17505C77.847 5.17505 98.807 26.135 98.807 51.985C98.807 77.835 77.847 98.795 51.997 98.795Z" fill="url(#paint0_linear_409_14684)"/>
<path fill-rule="evenodd" clip-rule="evenodd" d="M97.8969 51.9852C97.8969 77.3352 77.3469 97.8852 51.9969 97.8852C26.6469 97.8852 6.09693 77.3352 6.09693 51.9852C6.09693 26.6352 26.6469 6.08522 51.9969 6.08522C77.3469 6.08522 97.8969 26.6352 97.8969 51.9852ZM51.9969 2.34521C79.4169 2.34521 101.637 24.5652 101.637 51.9852C101.637 79.4052 79.4069 101.625 51.9969 101.625C24.5769 101.625 2.35693 79.3952 2.35693 51.9852C2.35693 24.5652 24.5769 2.34521 51.9969 2.34521Z" fill="#F2F1F0"/>
<path fill-rule="evenodd" clip-rule="evenodd" d="M95.087 51.985C95.087 75.785 75.797 95.075 51.997 95.075C28.197 95.075 8.90699 75.785 8.90699 51.985C8.90699 28.185 28.197 8.89503 51.997 8.89503C75.797 8.89503 95.087 28.185 95.087 51.985ZM51.997 5.15503C77.857 5.15503 98.827 26.125 98.827 51.985C98.827 77.845 77.857 98.815 51.997 98.815C26.137 98.815 5.16699 77.845 5.16699 51.985C5.16699 26.125 26.127 5.15503 51.997 5.15503Z" fill="url(#paint1_linear_409_14684)"/>
<path fill-rule="evenodd" clip-rule="evenodd" d="M63.6108 65.647H78.1805V66.447H63.6108V65.647Z" fill="white"/>
<path fill-rule="evenodd" clip-rule="evenodd" d="M63.6108 55.0728H78.1805V55.8728H63.6108V55.0728Z" fill="white"/>
<path fill-rule="evenodd" clip-rule="evenodd" d="M63.6108 44.4778H78.1805V45.2778H63.6108V44.4778Z" fill="white"/>
<path fill-rule="evenodd" clip-rule="evenodd" d="M63.6108 33.8828H78.1805V34.6828H63.6108V33.8828Z" fill="white"/>
<path d="M83.947 29.6187H73.4196C72.7778 29.6187 72.251 30.1359 72.251 30.7873V37.234C72.251 37.8758 72.7682 38.4026 73.4196 38.4026H83.9565C84.5983 38.4122 85.1252 37.8853 85.1252 37.2435V30.7969C85.106 30.1455 84.5887 29.6187 83.947 29.6187Z" fill="url(#paint2_linear_409_14684)"/>
<path d="M83.947 51.0759H73.4196C72.7778 51.0759 72.251 51.5932 72.251 52.2446V58.6912C72.251 59.333 72.7682 59.8599 73.4196 59.8599H83.9565C84.5983 59.8599 85.1252 59.3426 85.1252 58.6912V52.2446C85.106 51.6028 84.5887 51.0759 83.947 51.0759Z" fill="url(#paint3_linear_409_14684)"/>
<path d="M83.947 40.3276H73.4196C72.7778 40.3276 72.251 40.8449 72.251 41.4963V47.943C72.251 48.5847 72.7682 49.1116 73.4196 49.1116H83.9565C84.5983 49.1212 85.1252 48.5943 85.1252 47.943V41.4963C85.106 40.8545 84.5887 40.3276 83.947 40.3276Z" fill="url(#paint4_linear_409_14684)"/>
<path d="M83.947 61.7852H73.4196C72.7778 61.7852 72.251 62.3024 72.251 62.9538V69.4005C72.251 70.0423 72.7682 70.5691 73.4196 70.5691H83.9565C84.5983 70.5691 85.1252 70.0518 85.1252 69.4005V62.9538C85.106 62.312 84.5887 61.7852 83.947 61.7852Z" fill="url(#paint5_linear_409_14684)"/>
<path opacity="0.2" d="M36.416 78.702H66.6378C67.9884 78.702 69.09 77.6005 69.09 76.2498V31.8894H21.0991V76.2498C21.0991 77.6005 22.2007 78.702 23.5513 78.702H28.7815H36.416Z" fill="#1F1D21"/>
<path d="M36.416 77.2263H67.4232C68.3428 77.2263 69.09 76.4791 69.09 75.5595V32.0708C69.0804 31.1512 68.3332 30.4041 67.4232 30.4041H22.7659C21.8463 30.4041 21.0991 31.1512 21.0991 32.0708V75.5595C21.0991 76.4791 21.8463 77.2263 22.7659 77.2263H28.7719H36.416Z" fill="url(#paint6_linear_409_14684)"/>
<path d="M69.09 31.2476C69.09 30.328 68.3428 29.5808 67.4232 29.5808H22.7659C21.8463 29.5808 21.0991 30.328 21.0991 31.2476V32.8281H69.09V31.2476Z" fill="#1A2C45"/>
<path fill-rule="evenodd" clip-rule="evenodd" d="M61.1053 40.2497L54.9051 46.0708L48.6888 45.9655L41.7713 52.4921L36.1206 46.1571L29.4854 46.2603L29.4761 45.6604L36.3856 45.5529L41.8083 51.6323L48.4547 45.3614L54.6719 45.4668L60.6946 39.8123L61.1053 40.2497Z" fill="white"/>
<path fill-rule="evenodd" clip-rule="evenodd" d="M61.0819 45.115L61.1137 52.1847L60.5137 52.1874L60.4881 46.4979L54.213 52.4044L48.4105 52.1842L42.1251 58.2619L42.1229 58.2641L35.8795 64.4298L29.1677 64.4981L29.1616 63.8982L35.6306 63.8323L41.7058 57.8327L48.1774 51.5749L53.9847 51.7953L61.0819 45.115Z" fill="white"/>
<path d="M43.169 70.271C43.169 69.5047 42.556 68.8821 41.7801 68.8821C41.0137 68.8821 40.3911 69.4951 40.3911 70.271C40.3911 71.0374 41.0042 71.66 41.7801 71.66C42.5464 71.6504 43.169 71.0278 43.169 70.271Z" fill="url(#paint7_linear_409_14684)"/>
<path d="M49.4532 70.271C49.4532 69.5047 48.8401 68.8821 48.0642 68.8821C47.2979 68.8821 46.6753 69.4951 46.6753 70.271C46.6753 71.0374 47.2883 71.66 48.0642 71.66C48.8306 71.6504 49.4532 71.0278 49.4532 70.271Z" fill="url(#paint8_linear_409_14684)"/>
<path d="M30.6207 70.271C30.6207 69.5047 30.0076 68.8821 29.2317 68.8821C28.4654 68.8821 27.8428 69.4951 27.8428 70.271C27.8428 71.0374 28.4558 71.66 29.2317 71.66C29.9981 71.6504 30.6207 71.0278 30.6207 70.271Z" fill="#3BCAF4"/>
<path d="M36.8951 70.271C36.8951 69.5047 36.282 68.8821 35.5061 68.8821C34.7398 68.8821 34.1172 69.4951 34.1172 70.271C34.1172 71.0374 34.7302 71.66 35.5061 71.66C36.282 71.6504 36.8951 71.0278 36.8951 70.271Z" fill="#3BCAF4"/>
<path d="M55.7271 70.271C55.7271 69.5047 55.1141 68.8821 54.3382 68.8821C53.5623 68.8821 52.9492 69.4951 52.9492 70.271C52.9492 71.0374 53.5623 71.66 54.3382 71.66C55.1141 71.66 55.7271 71.0278 55.7271 70.271Z" fill="url(#paint9_linear_409_14684)"/>
<path d="M59.2334 70.271C59.2334 71.0374 59.8465 71.66 60.6224 71.66C61.3887 71.66 62.0113 71.0469 62.0113 70.271C62.0113 69.5047 61.3983 68.8821 60.6224 68.8821C59.8465 68.8821 59.2334 69.5047 59.2334 70.271Z" fill="url(#paint10_linear_409_14684)"/>
<path d="M43.169 64.17C43.169 63.4036 42.556 62.781 41.7801 62.781C41.0042 62.781 40.3911 63.3941 40.3911 64.17C40.3911 64.9459 41.0042 65.5589 41.7801 65.5589C42.5464 65.5589 43.169 64.9363 43.169 64.17Z" fill="#3BCAF4"/>
<path d="M49.4434 64.17C49.4434 63.4036 48.8304 62.781 48.0545 62.781C47.2786 62.781 46.6655 63.3941 46.6655 64.17C46.6655 64.9459 47.2786 65.5589 48.0545 65.5589C48.8304 65.5589 49.4434 64.9363 49.4434 64.17Z" fill="url(#paint11_linear_409_14684)"/>
<path d="M30.6207 64.17C30.6207 63.4036 30.0076 62.781 29.2317 62.781C28.4654 62.781 27.8428 63.3941 27.8428 64.17C27.8428 64.9459 28.4558 65.5589 29.2317 65.5589C29.9981 65.5589 30.6207 64.9363 30.6207 64.17Z" fill="#3BCAF4"/>
<path d="M36.8951 64.17C36.8951 63.4036 36.282 62.781 35.5061 62.781C34.7398 62.781 34.1172 63.3941 34.1172 64.17C34.1172 64.9459 34.7302 65.5589 35.5061 65.5589C36.282 65.5589 36.8951 64.9363 36.8951 64.17Z" fill="#3BCAF4"/>
<path d="M55.7179 64.17C55.7179 63.4036 55.1048 62.781 54.3289 62.781C53.553 62.781 52.9399 63.3941 52.9399 64.17C52.9399 64.9459 53.553 65.5589 54.3289 65.5589C55.1048 65.5589 55.7179 64.9363 55.7179 64.17Z" fill="url(#paint12_linear_409_14684)"/>
<path d="M61.9918 64.17C61.9918 63.4036 61.3787 62.781 60.6028 62.781C59.8269 62.781 59.2139 63.3941 59.2139 64.17C59.2139 64.9459 59.8269 65.5589 60.6028 65.5589C61.3787 65.5589 61.9918 64.9363 61.9918 64.17Z" fill="url(#paint13_linear_409_14684)"/>
<path d="M43.169 58.0972C43.169 57.3309 42.556 56.7083 41.7801 56.7083C41.0137 56.7083 40.3911 57.3213 40.3911 58.0972C40.3911 58.8731 41.0042 59.4862 41.7801 59.4862C42.5464 59.467 43.169 58.854 43.169 58.0972Z" fill="#3BCAF4"/>
<path d="M48.0642 59.4766C48.8306 59.4766 49.4532 58.854 49.4532 58.0877C49.4532 57.3214 48.8306 56.6987 48.0642 56.6987C47.2979 56.6987 46.6753 57.3214 46.6753 58.0877C46.6753 58.854 47.2979 59.4766 48.0642 59.4766Z" fill="#3BCAF4"/>
<path d="M30.6207 58.0972C30.6207 57.3309 30.0076 56.7083 29.2317 56.7083C28.4654 56.7083 27.8428 57.3213 27.8428 58.0972C27.8428 58.8731 28.4558 59.4862 29.2317 59.4862C29.9981 59.467 30.6207 58.854 30.6207 58.0972Z" fill="#50E6FF"/>
<path d="M35.5154 59.4766C36.2817 59.4766 36.9044 58.854 36.9044 58.0877C36.9044 57.3214 36.2817 56.6987 35.5154 56.6987C34.7491 56.6987 34.1265 57.3214 34.1265 58.0877C34.1265 58.854 34.7491 59.4766 35.5154 59.4766Z" fill="#3BCAF4"/>
<path d="M55.7271 58.0972C55.7271 57.3309 55.1141 56.7083 54.3382 56.7083C53.5623 56.7083 52.9492 57.3213 52.9492 58.0972C52.9492 58.8731 53.5623 59.4862 54.3382 59.4862C55.1141 59.4862 55.7271 58.854 55.7271 58.0972Z" fill="#3BCAF4"/>
<path d="M60.6126 59.4766C61.3789 59.4766 62.0015 58.854 62.0015 58.0877C62.0015 57.3214 61.3789 56.6987 60.6126 56.6987C59.8463 56.6987 59.2236 57.3214 59.2236 58.0877C59.2236 58.854 59.8463 59.4766 60.6126 59.4766Z" fill="url(#paint14_linear_409_14684)"/>
<path d="M43.169 51.9942C43.169 51.2279 42.556 50.6052 41.7801 50.6052C41.0042 50.6052 40.3911 51.2183 40.3911 51.9942C40.3911 52.7605 41.0042 53.3831 41.7801 53.3831C42.5464 53.3831 43.169 52.7509 43.169 51.9942Z" fill="#50E6FF"/>
<path d="M49.4436 51.9942C49.4436 51.2279 48.8306 50.6052 48.0547 50.6052C47.2788 50.6052 46.6753 51.2279 46.6753 51.9942C46.6753 52.7605 47.2883 53.3831 48.0642 53.3831C48.8401 53.3831 49.4436 52.7509 49.4436 51.9942Z" fill="#50E6FF"/>
<path d="M30.6207 51.9942C30.6207 51.2279 30.0076 50.6052 29.2317 50.6052C28.4654 50.6052 27.8428 51.2183 27.8428 51.9942C27.8428 52.7605 28.4558 53.3831 29.2317 53.3831C29.9981 53.3831 30.6207 52.7509 30.6207 51.9942Z" fill="#50E6FF"/>
<path d="M36.8951 51.9942C36.8951 51.2279 36.282 50.6052 35.5061 50.6052C34.7398 50.6052 34.1172 51.2183 34.1172 51.9942C34.1172 52.7605 34.7302 53.3831 35.5061 53.3831C36.282 53.3831 36.8951 52.7509 36.8951 51.9942Z" fill="#50E6FF"/>
<path d="M55.7179 51.9942C55.7179 51.2279 55.1048 50.6052 54.3289 50.6052C53.553 50.6052 52.9399 51.2183 52.9399 51.9942C52.9399 52.7605 53.553 53.3831 54.3289 53.3831C55.1048 53.3831 55.7179 52.7509 55.7179 51.9942Z" fill="#50E6FF"/>
<path d="M61.9918 51.9942C61.9918 51.2279 61.3787 50.6052 60.6028 50.6052C59.8269 50.6052 59.2139 51.2183 59.2139 51.9942C59.2139 52.7605 59.8269 53.3831 60.6028 53.3831C61.3787 53.3831 61.9918 52.7509 61.9918 51.9942Z" fill="#50E6FF"/>
<path d="M43.169 45.9119C43.169 45.1456 42.556 44.5229 41.7801 44.5229C41.0042 44.5229 40.3911 45.136 40.3911 45.9119C40.3911 46.6878 41.0042 47.3009 41.7801 47.3009C42.5464 47.2913 43.169 46.6782 43.169 45.9119Z" fill="#50E6FF"/>
<path d="M49.4434 45.9119C49.4434 45.1456 48.8304 44.5229 48.0545 44.5229C47.2786 44.5229 46.6655 45.136 46.6655 45.9119C46.6655 46.6878 47.2786 47.3009 48.0545 47.3009C48.8304 47.3009 49.4434 46.6782 49.4434 45.9119Z" fill="#50E6FF"/>
<path d="M30.6207 45.9119C30.6207 45.1456 30.0076 44.5229 29.2317 44.5229C28.4654 44.5229 27.8428 45.136 27.8428 45.9119C27.8428 46.6878 28.4558 47.3009 29.2317 47.3009C29.9981 47.2913 30.6207 46.6782 30.6207 45.9119Z" fill="#9CEBFF"/>
<path d="M36.8951 45.9119C36.8951 45.1456 36.282 44.5229 35.5061 44.5229C34.7398 44.5229 34.1172 45.136 34.1172 45.9119C34.1172 46.6878 34.7302 47.3009 35.5061 47.3009C36.282 47.2913 36.8951 46.6782 36.8951 45.9119Z" fill="#9CEBFF"/>
<path d="M55.7179 45.9119C55.7179 45.1456 55.1048 44.5229 54.3289 44.5229C53.553 44.5229 52.9399 45.136 52.9399 45.9119C52.9399 46.6878 53.553 47.3009 54.3289 47.3009C55.1048 47.3009 55.7179 46.6782 55.7179 45.9119Z" fill="#50E6FF"/>
<path d="M61.9918 45.9119C61.9918 45.1456 61.3787 44.5229 60.6028 44.5229C59.8269 44.5229 59.2139 45.136 59.2139 45.9119C59.2139 46.6878 59.8269 47.3009 60.6028 47.3009C61.3787 47.3009 61.9918 46.6782 61.9918 45.9119Z" fill="#50E6FF"/>
<path d="M43.169 39.8296C43.169 39.0633 42.556 38.4407 41.7801 38.4407C41.0042 38.4407 40.3911 39.0537 40.3911 39.8296C40.3911 40.596 41.0042 41.2186 41.7801 41.2186C42.5464 41.2186 43.169 40.596 43.169 39.8296Z" fill="#9CEBFF"/>
<path d="M49.4436 39.8296C49.4436 39.0633 48.8306 38.4407 48.0547 38.4407C47.2788 38.4407 46.6753 39.0633 46.6753 39.8296C46.6753 40.596 47.2883 41.2186 48.0642 41.2186C48.8401 41.2186 49.4436 40.596 49.4436 39.8296Z" fill="#9CEBFF"/>
<path d="M30.6207 39.8296C30.6207 39.0633 30.0076 38.4407 29.2317 38.4407C28.4654 38.4407 27.8428 39.0537 27.8428 39.8296C27.8428 40.6055 28.4558 41.2186 29.2317 41.2186C29.9981 41.2186 30.6207 40.596 30.6207 39.8296Z" fill="#9CEBFF"/>
<path d="M36.8951 39.8296C36.8951 39.0633 36.282 38.4407 35.5061 38.4407C34.7398 38.4407 34.1172 39.0537 34.1172 39.8296C34.1172 40.596 34.7302 41.2186 35.5061 41.2186C36.282 41.2186 36.8951 40.596 36.8951 39.8296Z" fill="#9CEBFF"/>
<path d="M55.7179 39.8296C55.7179 39.0633 55.1048 38.4407 54.3289 38.4407C53.553 38.4407 52.9399 39.0537 52.9399 39.8296C52.9399 40.596 53.553 41.2186 54.3289 41.2186C55.1048 41.2186 55.7179 40.596 55.7179 39.8296Z" fill="#9CEBFF"/>
<path d="M61.9918 39.8296C61.9918 39.0633 61.3787 38.4407 60.6028 38.4407C59.8269 38.4407 59.2139 39.0537 59.2139 39.8296C59.2139 40.596 59.8269 41.2186 60.6028 41.2186C61.3787 41.2186 61.9918 40.596 61.9918 39.8296Z" fill="#50E6FF"/>
<defs>
<linearGradient id="paint0_linear_409_14684" x1="50.2231" y1="-12.8044" x2="54.2051" y2="132.966" gradientUnits="userSpaceOnUse">
<stop stop-color="#00ABDE"/>
<stop offset="1" stop-color="#007ED8"/>
</linearGradient>
<linearGradient id="paint1_linear_409_14684" x1="3.42739" y1="-19.6376" x2="98.9549" y2="121.244" gradientUnits="userSpaceOnUse">
<stop stop-color="#007ED8"/>
<stop offset="0.7065" stop-color="#002D4C"/>
</linearGradient>
<linearGradient id="paint2_linear_409_14684" x1="65.7827" y1="14.2387" x2="101.188" y2="68.5132" gradientUnits="userSpaceOnUse">
<stop stop-color="#007ED8"/>
<stop offset="0.7065" stop-color="#002D4C"/>
</linearGradient>
<linearGradient id="paint3_linear_409_14684" x1="55.9628" y1="20.6447" x2="91.3677" y2="74.9192" gradientUnits="userSpaceOnUse">
<stop stop-color="#007ED8"/>
<stop offset="0.7065" stop-color="#002D4C"/>
</linearGradient>
<linearGradient id="paint4_linear_409_14684" x1="60.8824" y1="17.4349" x2="96.2872" y2="71.7094" gradientUnits="userSpaceOnUse">
<stop stop-color="#007ED8"/>
<stop offset="0.7065" stop-color="#002D4C"/>
</linearGradient>
<linearGradient id="paint5_linear_409_14684" x1="51.0615" y1="23.8419" x2="86.4664" y2="78.1164" gradientUnits="userSpaceOnUse">
<stop stop-color="#007ED8"/>
<stop offset="0.7065" stop-color="#002D4C"/>
</linearGradient>
<linearGradient id="paint6_linear_409_14684" x1="5.94656" y1="10.2256" x2="76.0871" y2="88.3253" gradientUnits="userSpaceOnUse">
<stop stop-color="#007ED8"/>
<stop offset="0.7065" stop-color="#002D4C"/>
</linearGradient>
<linearGradient id="paint7_linear_409_14684" x1="34.5091" y1="65.2359" x2="92.1234" y2="105.079" gradientUnits="userSpaceOnUse">
<stop stop-color="#007ED8"/>
<stop offset="0.7065" stop-color="#002D4C"/>
</linearGradient>
<linearGradient id="paint8_linear_409_14684" x1="36.6464" y1="62.3739" x2="94.2608" y2="102.217" gradientUnits="userSpaceOnUse">
<stop stop-color="#007ED8"/>
<stop offset="0.7065" stop-color="#002D4C"/>
</linearGradient>
<linearGradient id="paint9_linear_409_14684" x1="39.1182" y1="59.7439" x2="96.7326" y2="99.5862" gradientUnits="userSpaceOnUse">
<stop stop-color="#007ED8"/>
<stop offset="0.7065" stop-color="#002D4C"/>
</linearGradient>
<linearGradient id="paint10_linear_409_14684" x1="39.2352" y1="55.4848" x2="101.237" y2="98.3615" gradientUnits="userSpaceOnUse">
<stop stop-color="#007ED8"/>
<stop offset="0.7065" stop-color="#002D4C"/>
</linearGradient>
<linearGradient id="paint11_linear_409_14684" x1="39.2054" y1="58.051" x2="96.8198" y2="97.8937" gradientUnits="userSpaceOnUse">
<stop stop-color="#007ED8"/>
<stop offset="0.7065" stop-color="#002D4C"/>
</linearGradient>
<linearGradient id="paint12_linear_409_14684" x1="41.6756" y1="55.421" x2="99.29" y2="95.2637" gradientUnits="userSpaceOnUse">
<stop stop-color="#007ED8"/>
<stop offset="0.7065" stop-color="#002D4C"/>
</linearGradient>
<linearGradient id="paint13_linear_409_14684" x1="43.5161" y1="52.3555" x2="101.13" y2="92.1982" gradientUnits="userSpaceOnUse">
<stop stop-color="#007ED8"/>
<stop offset="0.7065" stop-color="#002D4C"/>
</linearGradient>
<linearGradient id="paint14_linear_409_14684" x1="46.3626" y1="48.24" x2="103.977" y2="88.0832" gradientUnits="userSpaceOnUse">
<stop stop-color="#007ED8"/>
<stop offset="0.7065" stop-color="#002D4C"/>
</linearGradient>
</defs>
</svg>
