<svg width="103" height="103" viewBox="0 0 103 103" fill="none" xmlns="http://www.w3.org/2000/svg">
<path d="M51.6166 97.9921C25.7666 97.9921 4.80664 77.0421 4.80664 51.1821C4.80664 25.3221 25.7666 4.37207 51.6166 4.37207C77.4666 4.37207 98.4266 25.3321 98.4266 51.1821C98.4266 77.0321 77.4666 97.9921 51.6166 97.9921Z" fill="url(#paint0_linear_59_372)"/>
<path fill-rule="evenodd" clip-rule="evenodd" d="M97.5166 51.182C97.5166 76.532 76.9666 97.082 51.6166 97.082C26.2666 97.082 5.71656 76.532 5.71656 51.182C5.71656 25.832 26.2666 5.282 51.6166 5.282C76.9666 5.282 97.5166 25.832 97.5166 51.182ZM51.6166 1.54199C79.0366 1.54199 101.257 23.762 101.257 51.182C101.257 78.602 79.0266 100.822 51.6166 100.822C24.1966 100.822 1.97656 78.592 1.97656 51.182C1.97656 23.762 24.1966 1.54199 51.6166 1.54199Z" fill="#F2F1F0"/>
<path fill-rule="evenodd" clip-rule="evenodd" d="M94.7066 51.1816C94.7066 74.9816 75.4166 94.2716 51.6166 94.2716C27.8166 94.2716 8.52662 74.9816 8.52662 51.1816C8.52662 27.3816 27.8166 8.09157 51.6166 8.09157C75.4166 8.09157 94.7066 27.3816 94.7066 51.1816ZM51.6166 4.35156C77.4766 4.35156 98.4466 25.3216 98.4466 51.1816C98.4466 77.0416 77.4766 98.0116 51.6166 98.0116C25.7566 98.0116 4.78662 77.0416 4.78662 51.1816C4.78662 25.3216 25.7466 4.35156 51.6166 4.35156Z" fill="url(#paint1_linear_59_372)"/>
<path opacity="0.15" d="M23.0567 79.5828H80.1767C81.7767 79.5828 83.0767 78.2828 83.0767 76.6828V31.1328H20.1567V76.6828C20.1567 78.2828 21.4567 79.5828 23.0567 79.5828Z" fill="#1F1D20"/>
<path d="M21.3567 76.9324H81.8767C82.5367 76.9324 83.0767 76.3924 83.0767 75.7324V28.4824H20.1567V75.7324C20.1567 76.3924 20.6967 76.9324 21.3567 76.9324Z" fill="#F2F1F0"/>
<path d="M20.1567 33.7123H83.0767V28.0723C83.0767 27.5623 82.6667 27.1523 82.1567 27.1523H21.0767C20.5667 27.1523 20.1567 27.5623 20.1567 28.0723V33.7123Z" fill="#092E4C"/>
<path d="M24.997 32.1627C25.877 32.1627 26.597 31.4527 26.597 30.5627C26.597 29.6727 25.867 28.9727 24.997 28.9727C24.117 28.9727 23.397 29.6827 23.397 30.5727C23.397 31.4627 24.097 32.1627 24.997 32.1627Z" fill="#32B0E7"/>
<path d="M78.1379 79.3061C82.2979 79.3061 85.6679 75.9361 85.6679 71.7761C85.6679 67.6161 82.2979 64.2461 78.1379 64.2461C73.9779 64.2461 70.6079 67.6161 70.6079 71.7761C70.6179 75.9361 73.9879 79.3061 78.1379 79.3061Z" fill="#002D4C"/>
<path d="M82.238 67.9561L76.038 74.1861L74.178 72.3161L72.938 73.5661L76.038 76.6761L83.488 69.2061L82.238 67.9561Z" fill="#FAF9F8"/>
<path opacity="0.1" d="M57.3093 62.9845C61.0677 65.1322 61.0677 68.7116 57.3988 70.8593C53.6403 73.007 47.5553 73.007 43.7968 70.8593C40.0384 68.7116 40.0384 65.1322 43.7968 62.9845C47.4658 60.7474 53.5509 60.7474 57.3093 62.9845Z" fill="#1F1D21"/>
<path opacity="0.1" fill-rule="evenodd" clip-rule="evenodd" d="M50.4875 59.2408C46.9231 59.2517 43.4192 60.0626 40.8123 61.6438L40.8071 61.647L40.8019 61.65C38.1443 63.1931 36.9801 65.1183 36.9992 66.915C37.0184 68.7166 38.2292 70.6477 40.8914 72.1934C43.5465 73.7351 47.077 74.5244 50.6422 74.5244C54.206 74.5244 57.735 73.7358 60.3898 72.1953C63.0481 70.6079 64.2149 68.6603 64.1957 66.8501C64.1766 65.0373 62.9656 63.1068 60.3054 61.5616C57.6037 60.0183 54.0501 59.2298 50.4875 59.2408ZM50.4837 57.9806C54.2135 57.9691 57.9969 58.791 60.9325 60.4685L60.9363 60.4707C63.823 62.1468 65.4303 64.4218 65.4558 66.8367C65.4814 69.2541 63.9198 71.5562 61.0323 73.2794L61.0258 73.2833L61.0258 73.2832C58.1328 74.963 54.3701 75.7845 50.6422 75.7845C46.9143 75.7845 43.1516 74.963 40.2586 73.2832C37.3726 71.6075 35.7647 69.3327 35.7391 66.9284C35.7135 64.5207 37.2767 62.2413 40.1639 60.5632C43.015 58.8356 46.7572 57.992 50.4837 57.9806Z" fill="#1F1D21"/>
<path d="M62.4991 51.1724C64.0204 57.347 60.1725 63.5215 53.9979 64.9533C47.8234 66.4746 41.5593 62.7162 40.0381 56.5416C38.5168 50.367 42.3647 44.1925 48.5393 42.7607C54.8033 41.2394 60.9779 44.9979 62.4991 51.1724C62.4991 51.1724 62.4991 51.0829 62.4991 51.1724Z" fill="url(#paint2_radial_59_372)"/>
<path d="M58.025 44.5503C58.025 44.5503 57.2196 44.1029 56.4142 44.7293C55.4299 45.5347 55.6983 46.7875 55.6983 46.7875C55.6983 46.7875 53.5507 47.0559 53.8191 49.2036C54.0876 51.2618 56.2353 51.2618 56.7722 51.1723C57.3091 51.0828 60.3094 50.4457 61.8306 49.2824C61.2042 47.5821 60.3015 46.1169 58.025 44.5503Z" fill="#F2F2F2"/>
<path d="M47.9133 56.5416C47.2869 55.3782 45.5866 55.3782 44.7813 55.6467C45.1392 54.2149 44.8707 52.7831 43.26 52.5147C40.3069 51.8883 40.128 54.5729 40.128 54.5729L39.77 54.8413C39.77 54.8413 39.949 56.0941 39.949 56.2731C40.3069 58.1523 41.2018 59.6736 42.0072 60.7474C42.2756 60.8369 42.3651 61.0159 43.3495 61.1948C44.3338 61.3738 45.5866 61.2843 46.571 60.7474C47.5553 60.2105 49.1661 58.7787 47.9133 56.5416Z" fill="#F2F2F2"/>
<path d="M53.6582 56.7921C53.6582 56.7921 53.6582 53.4811 56.8797 53.2126C60.1907 52.9442 60.1907 55.7183 60.1907 55.7183C60.1907 55.7183 61.533 55.2708 62.1594 55.5393C62.8753 55.8077 62.6963 55.8077 62.6963 55.8077C62.6963 55.8077 62.6809 57.1232 61.6966 58.9129C60.9807 60.2552 60.1138 61.2468 60.1138 61.2468C60.1138 61.2468 55.2689 62.5192 53.5687 62.4297C51.8684 62.3402 50.7946 61.4454 50.8841 59.7451C50.9736 58.0449 52.0474 56.7921 53.6582 56.7921Z" fill="#F2F2F2"/>
<path d="M68.1371 43.5661C67.0632 41.7764 64.2892 41.329 60.0833 42.4028C58.8305 42.7607 57.4882 43.1187 56.2354 43.5661C57.0408 43.9241 57.8461 44.3715 58.4726 44.9979C59.1884 44.7294 59.8148 44.5505 60.5307 44.3715C61.6046 44.103 62.7679 43.9241 63.9312 43.9241C65.2735 43.9241 66.0789 44.282 66.2579 44.64C66.7053 45.2664 66.2579 47.0561 63.8417 49.8302C63.3943 50.2776 62.9469 50.8145 62.41 51.3514C59.7254 53.8571 56.8618 56.0942 53.7298 57.9734C50.5978 59.9421 47.2868 61.4634 43.7968 62.6267C39.5909 63.969 36.7274 63.969 36.101 62.8952C35.4746 61.8213 36.7274 59.3157 39.8594 56.2732C39.6804 55.3783 39.5909 54.4835 39.6804 53.5886C34.6692 58.0629 33.0584 61.9108 34.4007 63.969C35.1166 65.0428 36.5484 65.6693 38.6961 65.6693C41.2912 65.5798 43.7968 65.0428 46.1234 64.0585C49.166 62.8952 52.119 61.3739 54.8931 59.6737C57.6672 57.9734 60.3518 56.0942 62.7679 53.8571C63.7522 52.9622 64.6471 52.0673 65.4525 51.1725C68.3161 47.951 69.2109 45.3558 68.1371 43.5661Z" fill="#50E6FF"/>
<path d="M66.0629 66.56C65.9996 66.56 65.9389 66.535 65.8941 66.4907C65.8494 66.4464 65.8242 66.3862 65.8242 66.3235C65.8242 65.6025 65.535 64.9109 65.0202 64.4011C64.5053 63.8912 63.8071 63.6048 63.079 63.6048C63.0157 63.6048 62.955 63.5799 62.9102 63.5355C62.8655 63.4912 62.8403 63.4311 62.8403 63.3684C62.8403 63.3057 62.8655 63.2455 62.9102 63.2012C62.955 63.1568 63.0157 63.1319 63.079 63.1319C63.8071 63.1319 64.5053 62.8455 65.0202 62.3356C65.535 61.8258 65.8242 61.1342 65.8242 60.4132C65.8242 60.3505 65.8494 60.2903 65.8941 60.246C65.9389 60.2017 65.9996 60.1768 66.0629 60.1768C66.1262 60.1768 66.1869 60.2017 66.2317 60.246C66.2765 60.2903 66.3016 60.3505 66.3016 60.4132C66.3016 61.1342 66.5908 61.8258 67.1057 62.3356C67.6205 62.8455 68.3187 63.1319 69.0468 63.1319C69.1101 63.1319 69.1708 63.1568 69.2156 63.2012C69.2604 63.2455 69.2855 63.3057 69.2855 63.3684C69.2855 63.4311 69.2604 63.4912 69.2156 63.5355C69.1708 63.5799 69.1101 63.6048 69.0468 63.6048V63.6048C68.3187 63.6048 67.6205 63.8912 67.1057 64.4011C66.5908 64.9109 66.3016 65.6025 66.3016 66.3235C66.3016 66.3862 66.2765 66.4464 66.2317 66.4907C66.1869 66.535 66.1262 66.56 66.0629 66.56Z" fill="#50E6FF"/>
<path d="M39.3749 46.474C39.3116 46.474 39.2509 46.4491 39.2061 46.4048C39.1614 46.3604 39.1362 46.3003 39.1362 46.2376C39.1362 45.5165 38.847 44.825 38.3322 44.3151C37.8174 43.8053 37.1191 43.5188 36.3911 43.5188C36.3277 43.5188 36.267 43.4939 36.2223 43.4496C36.1775 43.4053 36.1523 43.3451 36.1523 43.2824C36.1523 43.2197 36.1775 43.1596 36.2223 43.1152C36.267 43.0709 36.3277 43.046 36.3911 43.046C37.1191 43.046 37.8174 42.7596 38.3322 42.2497C38.847 41.7398 39.1362 41.0483 39.1362 40.3272C39.1362 40.2645 39.1614 40.2044 39.2061 40.1601C39.2509 40.1157 39.3116 40.0908 39.3749 40.0908C39.4382 40.0908 39.499 40.1157 39.5437 40.1601C39.5885 40.2044 39.6136 40.2645 39.6136 40.3272C39.6136 41.0483 39.9029 41.7398 40.4177 42.2497C40.9325 42.7596 41.6307 43.046 42.3588 43.046C42.4221 43.046 42.4828 43.0709 42.5276 43.1152C42.5724 43.1596 42.5975 43.2197 42.5975 43.2824C42.5975 43.3451 42.5724 43.4053 42.5276 43.4496C42.4828 43.4939 42.4221 43.5188 42.3588 43.5188V43.5188C41.6307 43.5188 40.9325 43.8053 40.4177 44.3151C39.9029 44.825 39.6136 45.5165 39.6136 46.2376C39.6136 46.3003 39.5885 46.3604 39.5437 46.4048C39.499 46.4491 39.4382 46.474 39.3749 46.474Z" fill="#50E6FF"/>
<defs>
<linearGradient id="paint0_linear_59_372" x1="49.8427" y1="-13.6074" x2="53.8247" y2="132.163" gradientUnits="userSpaceOnUse">
<stop stop-color="#00ABDE"/>
<stop offset="1" stop-color="#007ED8"/>
</linearGradient>
<linearGradient id="paint1_linear_59_372" x1="3.04702" y1="-20.441" x2="98.5746" y2="120.44" gradientUnits="userSpaceOnUse">
<stop stop-color="#007ED8"/>
<stop offset="0.7065" stop-color="#002D4C"/>
</linearGradient>
<radialGradient id="paint2_radial_59_372" cx="0" cy="0" r="1" gradientUnits="userSpaceOnUse" gradientTransform="translate(50.3266 53.7709) scale(11.6534 11.4127)">
<stop offset="0.18" stop-color="#5EA0EF"/>
<stop offset="1" stop-color="#0078D4"/>
</radialGradient>
</defs>
</svg>
