<svg width="103" height="103" viewBox="0 0 103 103" fill="none" xmlns="http://www.w3.org/2000/svg">
<path d="M51.6166 98.2098C25.7666 98.2098 4.80664 77.2598 4.80664 51.3998C4.80664 25.5398 25.7666 4.58984 51.6166 4.58984C77.4666 4.58984 98.4266 25.5498 98.4266 51.3998C98.4266 77.2498 77.4666 98.2098 51.6166 98.2098Z" fill="url(#paint0_linear_60_509)"/>
<path fill-rule="evenodd" clip-rule="evenodd" d="M97.5166 51.3998C97.5166 76.7498 76.9666 97.2998 51.6166 97.2998C26.2666 97.2998 5.71656 76.7498 5.71656 51.3998C5.71656 26.0498 26.2666 5.49977 51.6166 5.49977C76.9666 5.49977 97.5166 26.0498 97.5166 51.3998ZM51.6166 1.75977C79.0366 1.75977 101.257 23.9798 101.257 51.3998C101.257 78.8198 79.0266 101.04 51.6166 101.04C24.1966 101.04 1.97656 78.8098 1.97656 51.3998C1.97656 23.9798 24.1966 1.75977 51.6166 1.75977Z" fill="#F2F1F0"/>
<path fill-rule="evenodd" clip-rule="evenodd" d="M94.7066 51.4003C94.7066 75.2003 75.4166 94.4903 51.6166 94.4903C27.8166 94.4903 8.52662 75.2003 8.52662 51.4003C8.52662 27.6003 27.8166 8.31032 51.6166 8.31032C75.4166 8.31032 94.7066 27.6003 94.7066 51.4003ZM51.6166 4.57031C77.4766 4.57031 98.4466 25.5403 98.4466 51.4003C98.4466 77.2603 77.4766 98.2303 51.6166 98.2303C25.7566 98.2303 4.78662 77.2603 4.78662 51.4003C4.78662 25.5403 25.7466 4.57031 51.6166 4.57031Z" fill="url(#paint1_linear_60_509)"/>
<path opacity="0.15" d="M81.8759 27.1309H69.1164C68.3402 27.1309 67.709 27.7621 67.709 28.5382V36.3513C67.709 37.1274 68.3402 37.7587 69.1164 37.7587H81.8863C82.6624 37.769 83.2937 37.1378 83.2937 36.3513V28.5486C83.2937 27.7518 82.6624 27.1309 81.8759 27.1309Z" fill="#1F1D20"/>
<path opacity="0.15" d="M81.8754 53.1367H69.1159C68.3397 53.1367 67.7085 53.768 67.7085 54.5441V62.3675C67.7085 63.1436 68.3397 63.7749 69.1159 63.7749H81.8858C82.6619 63.7749 83.2932 63.1436 83.2932 62.3675V54.5648C83.2932 53.768 82.6619 53.1367 81.8754 53.1367Z" fill="#1F1D20"/>
<path opacity="0.15" d="M81.8754 40.1074H69.1159C68.3397 40.1074 67.7085 40.7387 67.7085 41.5148V49.3278C67.7085 50.104 68.3397 50.7352 69.1159 50.7352H81.8858C82.6619 50.7456 83.2932 50.1143 83.2932 49.3278V41.5148C83.2932 40.7387 82.6619 40.1074 81.8754 40.1074Z" fill="#1F1D20"/>
<path opacity="0.15" d="M81.8754 66.1133H69.1159C68.3397 66.1133 67.7085 66.7445 67.7085 67.5207V75.344C67.7085 76.1202 68.3397 76.7514 69.1159 76.7514H81.8858C82.6619 76.7514 83.2932 76.1202 83.2932 75.344V67.531C83.2932 66.7549 82.6619 66.1133 81.8754 66.1133Z" fill="#1F1D20"/>
<path fill-rule="evenodd" clip-rule="evenodd" d="M62.9141 57.0332H80.5788V58.0332H62.9141V57.0332Z" fill="white"/>
<path fill-rule="evenodd" clip-rule="evenodd" d="M62.9141 44.2012H80.5788V45.2012H62.9141V44.2012Z" fill="white"/>
<path fill-rule="evenodd" clip-rule="evenodd" d="M62.4141 31.8496C62.4141 31.5735 62.6379 31.3496 62.9141 31.3496H80.5788V32.3496H63.4141V69.8559H80.5788V70.8559H62.9141C62.6379 70.8559 62.4141 70.6321 62.4141 70.3559V31.8496Z" fill="white"/>
<path d="M81.8754 26.1992H69.1159C68.3397 26.1992 67.7085 26.8305 67.7085 27.6066V35.4196C67.7085 36.1958 68.3397 36.827 69.1159 36.827H81.8858C82.6619 36.8374 83.2932 36.2061 83.2932 35.4196V27.6169C83.2932 26.8305 82.6619 26.1992 81.8754 26.1992Z" fill="#84ECFD"/>
<path d="M81.8754 52.2051H69.1159C68.3397 52.2051 67.7085 52.8363 67.7085 53.6125V61.4358C67.7085 62.212 68.3397 62.8432 69.1159 62.8432H81.8858C82.6619 62.8432 83.2932 62.212 83.2932 61.4358V53.6332C83.2932 52.8363 82.6619 52.2051 81.8754 52.2051Z" fill="#45CAF2"/>
<path d="M81.8754 39.1855H69.1159C68.3397 39.1855 67.7085 39.8168 67.7085 40.5929V48.406C67.7085 49.1821 68.3397 49.8133 69.1159 49.8133H81.8858C82.6619 49.8237 83.2932 49.1924 83.2932 48.406V40.5929C83.2932 39.8168 82.6619 39.1855 81.8754 39.1855Z" fill="#50E6FF"/>
<path d="M81.8754 65.1914H69.1159C68.3397 65.1914 67.7085 65.8227 67.7085 66.5988V74.4222C67.7085 75.1983 68.3397 75.8295 69.1159 75.8295H81.8858C82.6619 75.8295 83.2932 75.1983 83.2932 74.4222V66.6091C83.2932 65.833 82.6619 65.1914 81.8754 65.1914Z" fill="#32B0E7"/>
<path fill-rule="evenodd" clip-rule="evenodd" d="M49.6787 50.9805H62.966V51.9805H49.6787V50.9805Z" fill="white"/>
<path opacity="0.15" d="M57.2973 71.7696C57.9295 71.7696 58.4392 71.2599 58.4392 70.6277V32.9551H18.6445V70.6326C18.6445 71.2648 19.1542 71.7745 19.7864 71.7745H57.2973V71.7696Z" fill="#1F1D20"/>
<path d="M58.4343 33.2925V32.675C58.4343 31.9105 57.8168 31.293 57.0522 31.293H20.0266C19.262 31.293 18.6445 31.9105 18.6445 32.675V33.3611V33.9884V69.4213C18.6445 70.1859 19.262 70.8034 20.0266 70.8034H57.062C57.8266 70.8034 58.4441 70.1859 58.4441 69.4213V33.3611C58.4441 33.3366 58.4343 33.317 58.4343 33.2925Z" fill="white"/>
<path fill-rule="evenodd" clip-rule="evenodd" d="M37.862 52.1147H36.2134L35.2299 53.1866H37.862V60.9266H28.125L26.1026 63.1292H24.8024C24.1523 63.1292 23.6206 62.5935 23.6206 61.9385V62.0579C23.6206 62.6529 24.0933 63.1892 24.6845 63.1892H52.0444C52.635 63.1892 53.1672 62.7123 53.1672 62.0579V41.6641L45.7956 41.6893L37.862 50.3187V52.1147Z" fill="#9FA0A1"/>
<path fill-rule="evenodd" clip-rule="evenodd" d="M53.1675 42.2903V38.8963C53.1675 38.3013 52.6947 37.7656 52.0446 37.7656H49.3852L45.2314 42.2903H53.1675Z" fill="#7A7A7A"/>
<path fill-rule="evenodd" clip-rule="evenodd" d="M24.8024 37.7637H24.6845C24.0933 37.7637 23.6206 38.2999 23.6206 38.895V38.9544C23.6206 38.2999 24.1523 37.7637 24.8024 37.7637Z" fill="#7A7A7A"/>
<path fill-rule="evenodd" clip-rule="evenodd" d="M37.8629 50.3184L36.2144 52.1143H37.8629V50.3184Z" fill="#0072C5"/>
<path fill-rule="evenodd" clip-rule="evenodd" d="M37.8634 53.1855H35.2314L28.1265 60.9255H37.8634V53.1855Z" fill="#0072C5"/>
<path fill-rule="evenodd" clip-rule="evenodd" d="M23.6206 42.2891V42.349H45.177L45.2312 42.2891H23.6206Z" fill="white"/>
<path fill-rule="evenodd" clip-rule="evenodd" d="M23.6206 43.3022V45.2667V61.9384C23.6206 62.5935 24.1523 63.1291 24.8024 63.1291H26.102L28.1244 60.9259H25.8067V53.186H35.2299L36.2134 52.114H25.8067V44.3741H37.862V50.3181L45.177 42.3496H23.6206V43.3022Z" fill="#9FA0A1"/>
<path fill-rule="evenodd" clip-rule="evenodd" d="M23.6206 43.3026V45.2671V61.9388C23.6206 62.5938 24.1523 63.1295 24.8024 63.1295H26.102L28.1244 60.9262H25.8067V53.1863H35.2299L36.2134 52.1144H25.8067V44.3745H37.862V50.3184L45.9432 41.5156L23.6206 41.416V43.3026Z" fill="#BABBBC"/>
<path fill-rule="evenodd" clip-rule="evenodd" d="M49.3854 37.7637H24.8023C24.1527 37.7637 23.6211 38.2999 23.6211 38.9544V42.2884H45.2317L49.3854 37.7637Z" fill="#7A7A7A"/>
<path fill-rule="evenodd" clip-rule="evenodd" d="M49.3854 37.7637H24.8023C24.1527 37.7637 23.6211 38.2999 23.6211 38.9544V42.2884H45.2317L49.3854 37.7637Z" fill="#9E9E9E"/>
<path fill-rule="evenodd" clip-rule="evenodd" d="M37.8628 44.373H25.8076V52.1136H36.2143L37.8628 50.3176V44.373Z" fill="#0072C5"/>
<path fill-rule="evenodd" clip-rule="evenodd" d="M37.8628 44.373H25.8076V52.1136H36.2143L37.8628 50.3176V44.373Z" fill="#479AD1"/>
<path fill-rule="evenodd" clip-rule="evenodd" d="M25.8076 53.1855V60.9255H28.1253L35.2302 53.1855H25.8076Z" fill="#0072C5"/>
<path fill-rule="evenodd" clip-rule="evenodd" d="M25.8076 53.1855V60.9255H28.1253L35.2302 53.1855H25.8076Z" fill="#479AD1"/>
<path fill-rule="evenodd" clip-rule="evenodd" d="M38.9258 52.1136H50.9215V44.373H38.9258V52.1136Z" fill="white"/>
<path fill-rule="evenodd" clip-rule="evenodd" d="M38.9258 60.9255H50.9215V53.1855H38.9258V60.9255Z" fill="#0072C5"/>
<path d="M53.9314 73.558C58.0914 73.558 61.4614 70.188 61.4614 66.028C61.4614 61.868 58.0914 58.498 53.9314 58.498C49.7714 58.498 46.4014 61.868 46.4014 66.028C46.4114 70.188 49.7814 73.558 53.9314 73.558Z" fill="#002D4C"/>
<path d="M58.0314 62.207L51.8314 68.437L49.9714 66.567L48.7314 67.817L51.8314 70.927L59.2814 63.457L58.0314 62.207Z" fill="#FAF9F8"/>
<defs>
<linearGradient id="paint0_linear_60_509" x1="49.8427" y1="-13.3897" x2="53.8247" y2="132.381" gradientUnits="userSpaceOnUse">
<stop stop-color="#00ABDE"/>
<stop offset="1" stop-color="#007ED8"/>
</linearGradient>
<linearGradient id="paint1_linear_60_509" x1="3.04702" y1="-20.2223" x2="98.5746" y2="120.659" gradientUnits="userSpaceOnUse">
<stop stop-color="#007ED8"/>
<stop offset="0.7065" stop-color="#002D4C"/>
</linearGradient>
</defs>
</svg>
