<svg width="103" height="103" viewBox="0 0 103 103" fill="none" xmlns="http://www.w3.org/2000/svg">
<path d="M51.0922 97.9159C25.2422 97.9159 4.28217 76.9659 4.28217 51.1059C4.28217 25.2459 25.2422 4.2959 51.0922 4.2959C76.9422 4.2959 97.9022 25.2559 97.9022 51.1059C97.9022 76.9559 76.9422 97.9159 51.0922 97.9159Z" fill="url(#paint0_linear_303_241)"/>
<path fill-rule="evenodd" clip-rule="evenodd" d="M96.9921 51.1058C96.9921 76.4558 76.4421 97.0058 51.0921 97.0058C25.7421 97.0058 5.19215 76.4558 5.19215 51.1058C5.19215 25.7558 25.7421 5.20582 51.0921 5.20582C76.4421 5.20582 96.9921 25.7558 96.9921 51.1058ZM51.0921 1.46582C78.5121 1.46582 100.732 23.6858 100.732 51.1058C100.732 78.5258 78.5021 100.746 51.0921 100.746C23.6721 100.746 1.45215 78.5158 1.45215 51.1058C1.45215 23.6858 23.6721 1.46582 51.0921 1.46582Z" fill="#F2F1F0"/>
<path fill-rule="evenodd" clip-rule="evenodd" d="M94.1821 51.1054C94.1821 74.9054 74.8921 94.1954 51.0921 94.1954C27.2921 94.1954 8.00215 74.9054 8.00215 51.1054C8.00215 27.3054 27.2921 8.01539 51.0921 8.01539C74.8921 8.01539 94.1821 27.3054 94.1821 51.1054ZM51.0921 4.27539C76.9521 4.27539 97.9221 25.2454 97.9221 51.1054C97.9221 76.9654 76.9521 97.9354 51.0921 97.9354C25.2321 97.9354 4.26215 76.9654 4.26215 51.1054C4.26215 25.2454 25.2221 4.27539 51.0921 4.27539Z" fill="url(#paint1_linear_303_241)"/>
<path opacity="0.15" d="M83.8822 80.1751L74.7722 71.1251C78.6122 66.1251 80.8922 59.8751 80.8922 53.0951C80.8922 36.7151 67.6022 23.4551 51.2422 23.4551C34.8822 23.4551 21.5922 36.7151 21.5922 53.0951C21.5922 69.4751 34.8522 82.7351 51.2322 82.7351C57.8022 82.7351 63.8522 80.6051 68.7922 76.9851L77.9522 86.0951C77.9522 86.0951 80.2722 87.0051 82.7022 84.4251C85.1322 81.8551 83.8822 80.1751 83.8822 80.1751ZM26.0122 53.2051C26.0122 39.3251 37.2722 28.0651 51.1522 28.0651C65.0322 28.0651 76.2922 39.3251 76.2922 53.2051C76.2922 67.0851 65.0022 78.3451 51.1222 78.3451C37.2422 78.3451 26.0122 67.0851 26.0122 53.2051Z" fill="#1F1D20"/>
<path d="M50.9521 78.5461C66.0847 78.5461 78.3521 66.2787 78.3521 51.1461C78.3521 36.0135 66.0847 23.7461 50.9521 23.7461C35.8195 23.7461 23.5521 36.0135 23.5521 51.1461C23.5521 66.2787 35.8195 78.5461 50.9521 78.5461Z" fill="white"/>
<path d="M85.8022 80.1856L74.7622 69.1456C78.6022 64.1456 80.8822 57.8956 80.8822 51.1156C80.8822 34.7356 67.5922 21.4756 51.2322 21.4756C34.8722 21.4756 21.5922 34.7356 21.5922 51.1156C21.5922 67.4956 34.8522 80.7556 51.2322 80.7556C57.8022 80.7556 63.8522 78.6256 68.7922 75.0056L79.8622 86.1056C79.8622 86.1056 80.9822 86.1156 83.4222 83.5456C85.8522 80.9656 85.8022 80.1856 85.8022 80.1856ZM26.0122 51.2156C26.0122 37.3356 37.2722 26.0756 51.1522 26.0756C65.0322 26.0756 76.2922 37.3356 76.2922 51.2156C76.2922 65.0956 65.0022 76.3556 51.1222 76.3556C37.2422 76.3556 26.0122 65.0956 26.0122 51.2156Z" fill="url(#paint2_linear_303_241)"/>
<path d="M66.8591 49.1329C66.8591 48.8505 66.8358 48.5803 66.8118 48.298L69.6501 46.7215C69.4978 45.7804 69.2516 44.8627 68.9229 43.9924L65.6861 44.0511C65.44 43.5452 65.1698 43.0513 64.8651 42.5921L66.5304 39.8042C65.9323 39.0747 65.2636 38.4047 64.5484 37.8159L62.9063 38.7924L62.2144 39.8276L60.7254 42.0274C62.8365 43.6747 64.1964 46.2389 64.1964 49.1329C64.1964 54.0972 60.1979 58.1205 55.2492 58.1205C50.3125 58.1205 46.302 54.0972 46.302 49.1329C46.302 44.6865 49.5148 41.0163 53.7362 40.2868L54.4162 37.5223L52.8446 34.6758C51.9081 34.8286 51.0052 35.0755 50.1377 35.4045L50.1849 38.6629C49.6926 38.8985 49.1996 39.1688 48.7425 39.4865L45.9635 37.8159C45.2363 38.4039 44.5796 39.0747 43.9815 39.8042L45.6468 42.5921C45.3301 43.0505 45.0719 43.5452 44.8258 44.0511L41.5777 43.9924C41.261 44.8627 41.0148 45.7804 40.8625 46.7215L43.6888 48.298C43.6655 48.5803 43.6535 48.8505 43.6535 49.1329C43.6535 49.4152 43.6655 49.6855 43.6888 49.9678L40.8625 51.5443C41.0148 52.4853 41.261 53.4031 41.5897 54.2734L44.8265 54.2146C45.0727 54.7206 45.3308 55.2144 45.6475 55.6737L43.9822 58.4615C44.5804 59.191 45.237 59.8611 45.9642 60.4611L48.7433 58.7792C49.2003 59.0969 49.6934 59.3672 50.1857 59.6141L50.1377 62.8604C51.0052 63.1902 51.908 63.4371 52.8461 63.59L54.4289 60.7434C54.6983 60.7667 54.9685 60.7908 55.2499 60.7908C55.5314 60.7908 55.8128 60.7675 56.0822 60.7434L57.6537 63.59C58.5918 63.4371 59.5067 63.1902 60.3742 62.8604L60.3157 59.6134C60.82 59.3664 61.3011 59.0954 61.7701 58.7785L64.5491 60.4603C65.2643 59.8603 65.933 59.1895 66.5312 58.4608L64.8658 55.6729C65.1705 55.2144 65.4407 54.7198 65.6869 54.2139L68.9237 54.2726C69.2524 53.4023 69.4985 52.4846 69.6509 51.5435L66.8133 49.967C66.8358 49.6855 66.8591 49.4152 66.8591 49.1329Z" fill="#A0A1A2"/>
<path d="M44.1338 61.4616V60.0621L44.0573 59.9913L42.6299 59.5087L42.2621 58.5443L42.9691 57.074L43.0471 56.9091L42.6051 56.4619L42.0678 55.9206L41.8809 56.0147L40.4858 56.7322L39.5244 56.4619L38.9158 54.8975H37.5319L37.4613 54.9682L36.9803 56.3971L36.0076 56.7645L34.3896 55.9838L33.4042 56.964L33.498 57.1485L34.2132 58.5466L33.8147 59.5102L32.1262 60.1208V61.5203L32.3258 61.5791L33.8147 62.0729L34.2132 63.0373L33.4508 64.6605L34.4361 65.6603L34.6238 65.5662L36.0189 64.8487L36.9803 65.2485L37.5904 66.9432H38.9855L39.0441 66.7429L39.5364 65.2492L40.4865 64.8495L42.1165 65.6144L43.1019 64.6259L43.0081 64.4376L42.2929 63.0381L42.5683 62.0616L44.1338 61.4616ZM38.2591 62.7558C37.1799 62.7558 36.3011 61.8734 36.3011 60.7916C36.3011 59.7097 37.1806 58.8274 38.2591 58.8274C39.3375 58.8274 40.2058 59.7097 40.2058 60.7916C40.2058 61.8734 39.3375 62.7558 38.2591 62.7558Z" fill="#7A7A7A"/>
<path d="M57.1148 32.8291L56.5752 34.5351L55.6491 37.4998L55.2033 38.922L54.8161 40.1687L52.1189 48.7678C52.0603 48.9327 52.1421 49.0622 52.3297 49.0622H54.8161C54.8979 49.0622 54.9572 49.0855 54.9917 49.1329C55.0502 49.1917 55.0622 49.2745 55.027 49.3686L52.4588 55.615C52.3883 55.7799 52.4356 55.8153 52.5526 55.6738L60.6796 46.4272C60.7967 46.2856 60.7501 46.1802 60.5738 46.1802L57.9118 46.1923L57.4195 46.2043C57.2439 46.2043 57.1613 46.0748 57.2551 45.922L59.788 41.3928L60.3861 40.3102L61.0781 39.0635L62.5558 36.4406L63.4001 34.9115C61.5119 33.8168 59.3895 33.0873 57.1148 32.8291Z" fill="#FCD116"/>
<path opacity="0.3" d="M61.7738 34.0938L55.887 46.1921H57.3527C57.2221 46.1643 57.1658 46.0544 57.2476 45.9219L59.7805 41.3927L60.3786 40.3101L61.0706 39.0634L62.5483 36.4404L63.3926 34.9114C62.8702 34.6095 62.3291 34.3384 61.7738 34.0938Z" fill="#FF8C00"/>
<path opacity="0.3" d="M60.5843 46.1807L58.9415 46.1882L52.8679 55.3279L60.6901 46.4276C60.8072 46.2868 60.7607 46.1807 60.5843 46.1807Z" fill="#FF8C00"/>
<defs>
<linearGradient id="paint0_linear_303_241" x1="49.3223" y1="-13.6836" x2="53.3043" y2="132.087" gradientUnits="userSpaceOnUse">
<stop stop-color="#00ABDE"/>
<stop offset="1" stop-color="#007ED8"/>
</linearGradient>
<linearGradient id="paint1_linear_303_241" x1="2.52545" y1="-20.5196" x2="98.0535" y2="120.362" gradientUnits="userSpaceOnUse">
<stop stop-color="#007ED8"/>
<stop offset="0.7065" stop-color="#002D4C"/>
</linearGradient>
<linearGradient id="paint2_linear_303_241" x1="29.1788" y1="26.0709" x2="74.9609" y2="78.0632" gradientUnits="userSpaceOnUse">
<stop stop-color="#007ED8"/>
<stop offset="0.7065" stop-color="#002D4C"/>
</linearGradient>
</defs>
</svg>
