<svg width="103" height="103" viewBox="0 0 103 103" fill="none" xmlns="http://www.w3.org/2000/svg">
<path d="M51.3219 98.2704C25.4719 98.2704 4.5119 77.3204 4.5119 51.4604C4.5119 25.6004 25.4719 4.65039 51.3219 4.65039C77.1719 4.65039 98.1319 25.6104 98.1319 51.4604C98.1319 77.3104 77.1719 98.2704 51.3219 98.2704Z" fill="url(#paint0_linear_304_19875)"/>
<path fill-rule="evenodd" clip-rule="evenodd" d="M97.2219 51.4603C97.2219 76.8103 76.6719 97.3603 51.3219 97.3603C25.9719 97.3603 5.42188 76.8103 5.42188 51.4603C5.42188 26.1103 25.9719 5.56031 51.3219 5.56031C76.6719 5.56031 97.2219 26.1103 97.2219 51.4603ZM51.3219 1.82031C78.7419 1.82031 100.962 24.0403 100.962 51.4603C100.962 78.8803 78.7319 101.1 51.3219 101.1C23.9019 101.1 1.68188 78.8703 1.68188 51.4603C1.68188 24.0403 23.9019 1.82031 51.3219 1.82031Z" fill="#F2F1F0"/>
<path fill-rule="evenodd" clip-rule="evenodd" d="M94.4119 51.4609C94.4119 75.2609 75.1219 94.5509 51.3219 94.5509C27.5219 94.5509 8.23188 75.2609 8.23188 51.4609C8.23188 27.6609 27.5219 8.37086 51.3219 8.37086C75.1219 8.37086 94.4119 27.6609 94.4119 51.4609ZM51.3219 4.63086C77.1819 4.63086 98.1519 25.6009 98.1519 51.4609C98.1519 77.3209 77.1819 98.2909 51.3219 98.2909C25.4619 98.2909 4.49188 77.3209 4.49188 51.4609C4.49188 25.6009 25.4519 4.63086 51.3219 4.63086Z" fill="url(#paint1_linear_304_19875)"/>
<path opacity="0.15" d="M84.1119 80.5305L75.0019 71.4805C78.8419 66.4805 81.1219 60.2305 81.1219 53.4505C81.1219 37.0705 67.8319 23.8105 51.4719 23.8105C35.1119 23.8105 21.8219 37.0705 21.8219 53.4505C21.8219 69.8305 35.0819 83.0905 51.4619 83.0905C58.0319 83.0905 64.0819 80.9605 69.0219 77.3405L77.4399 85.8848C77.4399 85.8848 79.468 84.7222 81.898 82.1422C84.328 79.5722 84.1119 80.5305 84.1119 80.5305ZM26.2419 53.5605C26.2419 39.6805 37.5019 28.4205 51.3819 28.4205C65.2619 28.4205 76.5219 39.6805 76.5219 53.5605C76.5219 67.4405 65.2319 78.7005 51.3519 78.7005C37.4719 78.7005 26.2419 67.4405 26.2419 53.5605Z" fill="#1F1D20"/>
<path d="M51.1819 83.9404C69.0969 83.9404 83.6199 69.4175 83.6199 51.5024C83.6199 33.5874 69.0969 19.0645 51.1819 19.0645C33.2669 19.0645 18.7439 33.5874 18.7439 51.5024C18.7439 69.4175 33.2669 83.9404 51.1819 83.9404Z" fill="white"/>
<path d="M85.9646 79.6646L77.7412 71.5048C82.0823 65.8523 84.6599 58.7866 84.6599 51.1217C84.6599 32.6039 69.6354 17.6133 51.1402 17.6133C32.645 17.6133 17.6318 32.6039 17.6318 51.1217C17.6318 69.6395 32.6224 84.6301 51.1402 84.6301C58.5677 84.6301 65.4073 82.2221 70.992 78.1296L79.2493 86.3572C79.2493 86.3572 80.5155 86.3685 83.2739 83.4631C86.0211 80.5464 85.9646 79.6646 85.9646 79.6646ZM22.6286 51.2347C22.6286 35.5432 35.3582 22.8136 51.0497 22.8136C66.7413 22.8136 79.4708 35.5432 79.4708 51.2347C79.4708 66.9263 66.7073 79.6558 51.0158 79.6558C35.3243 79.6558 22.6286 66.9263 22.6286 51.2347Z" fill="url(#paint2_linear_304_19875)"/>
<path fill-rule="evenodd" clip-rule="evenodd" d="M43.6813 71.1916C42.6751 71.1943 41.7235 70.7318 41.1017 69.9391L31.3928 57.8306C30.749 57.037 30.5133 55.9858 30.7552 54.991L34.2222 39.8752C34.4447 38.8839 35.1096 38.0525 36.0252 37.6199L50.0612 30.8825C50.9723 30.4376 52.0356 30.4376 52.9459 30.8825L66.9828 37.5917C67.8984 38.0233 68.5633 38.8557 68.7858 39.8461L72.2528 54.9628C72.4814 55.9575 72.2466 57.0017 71.6151 57.8023L61.9063 69.9126C61.2757 70.6956 60.3294 71.1546 59.3267 71.1652L43.6813 71.1925V71.1916Z" fill="#326DE6"/>
<path fill-rule="evenodd" clip-rule="evenodd" d="M51.4761 29.9375C50.8816 29.9437 50.2958 30.077 49.7567 30.3268L35.7198 37.0642C34.6222 37.5815 33.8245 38.578 33.5571 39.7643L30.0901 54.881C29.8095 56.0726 30.0971 57.3269 30.8667 58.2767L40.5747 70.387C41.3231 71.3253 42.4568 71.869 43.6538 71.8637H59.2148C60.4118 71.869 61.5464 71.3262 62.294 70.3879L72.0028 58.2785C72.775 57.3296 73.0626 56.0735 72.7794 54.8819L69.3124 39.7652C69.045 38.5789 68.2465 37.5824 67.1488 37.0651L53.1683 30.3268C52.6397 30.0734 52.0618 29.941 51.4761 29.9375ZM51.4761 31.2456C51.8692 31.2456 52.2571 31.3312 52.6133 31.4963L66.6502 38.2046C67.3775 38.5604 67.907 39.2241 68.0925 40.0141L71.5587 55.1308C71.7539 55.9323 71.5578 56.7788 71.0318 57.4125L61.323 69.5237C60.8199 70.1593 60.053 70.5291 59.2439 70.5256H43.6811C42.8719 70.5291 42.1059 70.1593 41.6019 69.5237L31.8922 57.4134C31.3909 56.7673 31.1983 55.9323 31.3654 55.1308L34.8333 40.0141C35.0127 39.2215 35.5439 38.5542 36.2748 38.2046L50.3116 31.4672C50.6837 31.3242 51.0777 31.2483 51.4761 31.2439V31.2456Z" fill="white"/>
<path fill-rule="evenodd" clip-rule="evenodd" d="M58.827 56.2453C58.1445 57.3284 57.236 58.2499 56.1639 58.9455L54.4163 54.7422C54.3257 54.3979 54.4875 54.0378 54.805 53.8789C54.9264 53.8215 55.0592 53.7933 55.1938 53.795L59.6318 54.5471C59.4602 55.1544 59.1885 55.729 58.827 56.2453ZM53.4163 60.115C52.7787 60.2589 52.1278 60.3339 51.4744 60.3383C50.5236 60.3321 49.5782 60.1812 48.6731 59.8908L50.8631 55.9108C51.0777 55.6451 51.4462 55.5648 51.7514 55.7149C51.8816 55.7952 51.9942 55.8985 52.0847 56.022L54.2211 59.8908C53.9713 59.9747 53.6942 60.0303 53.4172 60.115H53.4163ZM43.2932 54.5744L47.7039 53.8233C48.0707 53.7995 48.3996 54.0484 48.4805 54.4076C48.514 54.5568 48.5043 54.7121 48.4524 54.8551L46.7602 58.9455C45.1613 57.9065 43.9441 56.3725 43.2932 54.5744ZM44.0417 47.0311L47.3425 49.981C47.6441 50.2458 47.6811 50.7021 47.426 51.0111C47.3469 51.1258 47.2272 51.2053 47.0918 51.2353L42.7946 52.4869C42.6187 50.5812 43.0558 48.6693 44.0417 47.0311ZM49.5069 43.0776C49.8121 43.022 50.0891 42.9664 50.3943 42.9108L50.1446 47.3647C50.1234 47.7664 49.7963 48.0824 49.3952 48.0868C49.2791 48.0894 49.1639 48.0612 49.061 48.0038L45.3724 45.3575C46.5061 44.2189 47.9396 43.4271 49.5052 43.0749L49.5069 43.0776ZM57.5508 45.3602L53.9167 47.9491C53.5984 48.1494 53.1806 48.0779 52.9458 47.7823C52.8728 47.6949 52.8253 47.5889 52.8077 47.476L52.5588 42.9381C54.448 43.1562 56.207 44.0106 57.5508 45.3602ZM59.9378 49.6756C60.1524 50.5962 60.2184 51.546 60.1313 52.4869L55.8868 51.2618C55.5034 51.1523 55.2721 50.7622 55.36 50.372C55.3864 50.2564 55.4444 50.1505 55.5262 50.0657L58.8824 47.0311C59.3732 47.8502 59.7285 48.7435 59.9369 49.6774L59.9378 49.6756ZM52.696 52.5708L51.4761 53.156L50.2554 52.5708L49.9502 51.2618L50.7831 50.2043H52.1419L52.9739 51.2618L52.696 52.5708ZM65.5394 53.9345H65.5121C65.484 53.9345 65.4567 53.9345 65.4567 53.9071C65.4013 53.9071 65.345 53.8789 65.2896 53.8789C65.1155 53.848 64.9396 53.8295 64.7628 53.8233C64.6695 53.8268 64.5763 53.8171 64.4857 53.795H64.4576C63.951 53.7641 63.4488 53.6803 62.9598 53.5444C62.82 53.4896 62.71 53.3784 62.6546 53.239C62.6546 53.2107 62.6265 53.2107 62.6265 53.1833L62.2659 53.0712C62.4365 51.7614 62.3705 50.432 62.0715 49.146C61.7689 47.8485 61.2439 46.6145 60.5183 45.4988L60.7962 45.249V45.1934C60.7909 45.0415 60.8402 44.8933 60.9343 44.775C61.323 44.4493 61.7408 44.1606 62.1832 43.9135C62.2667 43.8579 62.3494 43.8296 62.433 43.774C62.5957 43.6919 62.7531 43.5984 62.9044 43.496C62.9325 43.4677 62.9871 43.4404 63.0425 43.3839C63.0706 43.3556 63.0979 43.3556 63.0979 43.3283C63.4796 43.0264 63.564 42.48 63.2922 42.0758C63.1401 41.8789 62.9035 41.7651 62.6546 41.7695C62.433 41.7756 62.2184 41.8542 62.0442 41.9937L61.9888 42.0493C61.9334 42.0766 61.9061 42.1322 61.8507 42.1605C61.7232 42.2832 61.6027 42.4138 61.4901 42.5498C61.4321 42.6221 61.367 42.6874 61.2958 42.7457C60.9624 43.1173 60.5904 43.4536 60.1858 43.7475C60.1128 43.7996 60.0266 43.8287 59.9369 43.8305C59.8798 43.8349 59.8226 43.8252 59.7707 43.8032H59.7153L59.3811 44.0265C59.0223 43.6513 58.6432 43.2974 58.243 42.9664C56.572 41.6547 54.5588 40.8524 52.4462 40.6555L52.4181 40.2936L52.3627 40.238C52.2457 40.1506 52.1665 40.0209 52.1401 39.8761C52.1296 39.3739 52.1577 38.8708 52.2237 38.3729V38.3447C52.2281 38.2502 52.2474 38.1558 52.2791 38.0666C52.3064 37.8998 52.3336 37.7312 52.3618 37.5379V37.2872C52.3996 36.8203 52.0522 36.4099 51.5869 36.3719C51.3257 36.3507 51.0698 36.4522 50.893 36.6455C50.7277 36.8168 50.6371 37.0472 50.6441 37.2864V37.5097C50.6424 37.6897 50.6705 37.868 50.7277 38.0393C50.7549 38.1223 50.7549 38.2061 50.7831 38.3164V38.3447C50.8622 38.8416 50.8904 39.3456 50.8657 39.8479C50.8394 39.9926 50.7602 40.1224 50.6432 40.2098L50.5878 40.2654L50.5597 40.6282C50.0566 40.6749 49.5562 40.7491 49.0619 40.8515C46.9599 41.3131 45.047 42.3988 43.5694 43.9691L43.2924 43.774H43.2378C43.1824 43.774 43.1261 43.8023 43.0716 43.8023C42.9819 43.7996 42.8948 43.7714 42.8218 43.7184C42.4181 43.4139 42.0461 43.0696 41.7128 42.6883C41.6547 42.6168 41.5896 42.5515 41.5184 42.4933C41.4049 42.3573 41.2853 42.2267 41.1578 42.104C41.1297 42.0758 41.0742 42.0484 41.0188 41.9919C40.9916 41.9637 40.9634 41.9637 40.9634 41.9363C40.7919 41.7933 40.5764 41.7147 40.3539 41.713C40.105 41.7086 39.8684 41.8215 39.7163 42.0193C39.4436 42.4235 39.529 42.969 39.9098 43.2718C39.9379 43.2718 39.9379 43.2991 39.9652 43.2991C40.0206 43.3274 40.0479 43.383 40.1033 43.4112C40.2545 43.5145 40.4129 43.6081 40.5756 43.6902C40.6644 43.7255 40.748 43.7723 40.8245 43.8287C41.2669 44.0768 41.6846 44.3663 42.0734 44.692C42.1798 44.8032 42.2299 44.9559 42.2114 45.1095V45.1651L42.4885 45.4149C42.4331 45.4838 42.3865 45.5588 42.3504 45.6391C40.9766 47.8246 40.4252 50.4312 40.7972 52.9883L40.4366 53.1004C40.4366 53.1286 40.4085 53.1286 40.4085 53.156C40.3451 53.2902 40.237 53.3978 40.1033 53.4623C39.6143 53.6 39.1121 53.6838 38.6055 53.713H38.5773C38.4841 53.7077 38.3909 53.7174 38.3003 53.7403C38.1235 53.7465 37.9476 53.765 37.7735 53.7959C37.7181 53.7959 37.6618 53.8242 37.6072 53.8242C37.5765 53.8198 37.5457 53.8303 37.5237 53.8524C37.0479 53.9477 36.7304 54.4006 36.8025 54.8825C36.9054 55.2823 37.2792 55.5516 37.6899 55.5224C37.7656 55.5269 37.8412 55.5171 37.9133 55.4942C37.9406 55.4942 37.9678 55.4942 37.9678 55.4668C38.0233 55.4668 38.0795 55.4386 38.1349 55.4386C38.3065 55.39 38.4736 55.3247 38.6336 55.2426C38.7163 55.2144 38.7999 55.1588 38.8825 55.1305H38.9107C39.3742 54.939 39.8588 54.7986 40.3531 54.713H40.4085C40.5404 54.7192 40.667 54.7686 40.7691 54.8525C40.7972 54.8525 40.7972 54.8807 40.8245 54.8807L41.2123 54.8251C41.8825 56.8906 43.1472 58.7115 44.8464 60.0585C45.2264 60.3524 45.6248 60.6217 46.039 60.8653L45.8728 61.2272C45.8728 61.2554 45.901 61.2554 45.901 61.2828C45.9792 61.4178 45.9995 61.5794 45.9564 61.7303C45.7576 62.1884 45.5157 62.6262 45.2343 63.0384V63.0667C45.1798 63.1496 45.1235 63.2052 45.0681 63.29C44.9572 63.4294 44.8746 63.568 44.7629 63.7375C44.7295 63.7799 44.7013 63.8267 44.6802 63.8761C44.6776 63.8973 44.667 63.9167 44.6521 63.9317C44.4216 64.3598 44.5799 64.8938 45.0065 65.1259C45.0083 65.1268 45.0109 65.1277 45.0127 65.1286C45.1164 65.1824 45.2308 65.2116 45.3469 65.2124C45.6978 65.1957 46.0135 64.9944 46.1789 64.6837C46.1824 64.6625 46.1921 64.6431 46.207 64.6281C46.2281 64.5778 46.2563 64.531 46.2906 64.4887C46.3539 64.3245 46.4093 64.1577 46.4568 63.9873L46.5395 63.7375C46.6793 63.252 46.8754 62.7851 47.1226 62.3455C47.2132 62.2255 47.3389 62.1381 47.4832 62.0948C47.5104 62.0948 47.5104 62.0948 47.5386 62.0666L47.7321 61.7056C48.9713 62.1831 50.2879 62.4285 51.616 62.4285C52.4286 62.4338 53.2386 62.3402 54.0293 62.1505C54.5183 62.041 54.9994 61.9015 55.4717 61.7329L55.6379 62.0392C55.6661 62.0392 55.6661 62.0392 55.6933 62.0675C55.8446 62.0931 55.9774 62.1849 56.0539 62.3173C56.2844 62.7639 56.4787 63.2282 56.6353 63.7057V63.734L56.7188 63.9847C56.7619 64.155 56.8173 64.3227 56.8851 64.4851C56.9132 64.5407 56.9405 64.569 56.9686 64.6246C56.9713 64.6458 56.9809 64.6652 56.9959 64.6802C57.1524 64.9988 57.4735 65.2036 57.8279 65.2089C57.9449 65.208 58.0592 65.1798 58.163 65.1259C58.3635 65.0218 58.513 64.8417 58.5772 64.6246C58.6423 64.3933 58.623 64.1471 58.5227 63.929C58.5227 63.9008 58.4946 63.9008 58.4946 63.8734C58.4734 63.8231 58.4453 63.7763 58.411 63.734C58.3257 63.5742 58.2237 63.425 58.1058 63.2873C58.0504 63.2035 57.995 63.1479 57.9396 63.0631V63.0358C57.6485 62.6297 57.4057 62.1902 57.2184 61.7268C57.1841 61.5785 57.1938 61.4231 57.2465 61.2801C57.2465 61.2519 57.2738 61.2519 57.2738 61.2245L57.1357 60.8891C59.4295 59.5121 61.1445 57.3452 61.9633 54.7925L62.2975 54.8481C62.3257 54.8481 62.3257 54.8198 62.3529 54.8198C62.4576 54.7404 62.5825 54.6927 62.7127 54.6812H62.7681C63.2632 54.766 63.7469 54.9063 64.2113 55.0979H64.2386C64.3221 55.1261 64.4048 55.1817 64.4884 55.21C64.6476 55.2912 64.8155 55.3574 64.9879 55.405C65.0425 55.405 65.0987 55.4333 65.1541 55.4333C65.1849 55.4289 65.2148 55.4395 65.2377 55.4607C65.3089 55.4836 65.3846 55.4933 65.4602 55.4889C65.8622 55.4898 66.2201 55.232 66.3476 54.8481C66.2966 54.4041 65.9756 54.0378 65.5429 53.9301L65.5394 53.9345Z" fill="white"/>
<defs>
<linearGradient id="paint0_linear_304_19875" x1="49.552" y1="-13.3291" x2="53.534" y2="132.441" gradientUnits="userSpaceOnUse">
<stop stop-color="#00ABDE"/>
<stop offset="1" stop-color="#007ED8"/>
</linearGradient>
<linearGradient id="paint1_linear_304_19875" x1="2.75518" y1="-20.1641" x2="98.2832" y2="120.718" gradientUnits="userSpaceOnUse">
<stop stop-color="#007ED8"/>
<stop offset="0.7065" stop-color="#002D4C"/>
</linearGradient>
<linearGradient id="paint2_linear_304_19875" x1="26.2085" y1="22.8083" x2="77.9658" y2="81.5863" gradientUnits="userSpaceOnUse">
<stop stop-color="#007ED8"/>
<stop offset="0.7065" stop-color="#002D4C"/>
</linearGradient>
</defs>
</svg>
