<svg width="103" height="103" viewBox="0 0 103 103" fill="none" xmlns="http://www.w3.org/2000/svg">
<path d="M51.2208 98.0302C25.3708 98.0302 4.41083 77.0802 4.41083 51.2202C4.41083 25.3602 25.3708 4.41016 51.2208 4.41016C77.0708 4.41016 98.0308 25.3702 98.0308 51.2202C98.0308 77.0702 77.0708 98.0302 51.2208 98.0302Z" fill="url(#paint0_linear_339_25947)"/>
<path fill-rule="evenodd" clip-rule="evenodd" d="M97.1208 51.2201C97.1208 76.5701 76.5708 97.1201 51.2208 97.1201C25.8708 97.1201 5.32083 76.5701 5.32083 51.2201C5.32083 25.8701 25.8708 5.32008 51.2208 5.32008C76.5708 5.32008 97.1208 25.8701 97.1208 51.2201ZM51.2208 1.58008C78.6408 1.58008 100.861 23.8001 100.861 51.2201C100.861 78.6401 78.6308 100.86 51.2208 100.86C23.8008 100.86 1.58083 78.6301 1.58083 51.2201C1.58083 23.8001 23.8008 1.58008 51.2208 1.58008Z" fill="#F2F1F0"/>
<path fill-rule="evenodd" clip-rule="evenodd" d="M94.3108 51.2206C94.3108 75.0206 75.0208 94.3106 51.2208 94.3106C27.4208 94.3106 8.13082 75.0206 8.13082 51.2206C8.13082 27.4206 27.4208 8.13063 51.2208 8.13063C75.0208 8.13063 94.3108 27.4206 94.3108 51.2206ZM51.2208 4.39062C77.0808 4.39062 98.0508 25.3606 98.0508 51.2206C98.0508 77.0806 77.0808 98.0506 51.2208 98.0506C25.3608 98.0506 4.39082 77.0806 4.39082 51.2206C4.39082 25.3606 25.3508 4.39062 51.2208 4.39062Z" fill="url(#paint1_linear_339_25947)"/>
<path opacity="0.15" d="M90.5627 46.0553C90.5627 45.2047 89.8668 44.4977 89.0051 44.4977C88.4418 44.4977 84.9621 44.1884 83.0842 42.7303C83.0842 42.7303 83.0953 42.7082 83.0842 42.7303C82.3772 40.1565 81.3389 37.7483 80.0575 35.4617C79.7261 33.2966 81.9685 31.717 82.9958 30.0268C83.1726 29.7286 83.2831 29.5629 83.3493 29.4414C83.5371 28.8891 83.4377 28.2594 82.9958 27.8286C82.9958 27.8286 81.2726 25.3652 79.5052 23.6088C77.7377 21.8525 75.0645 19.8972 75.0645 19.8972C74.4569 19.2897 73.4738 19.2897 72.8662 19.8972C72.4686 20.2839 69.8174 22.4711 67.4203 22.8245C67.3872 22.8245 67.3872 22.8245 67.3872 22.8245C65.1669 21.5653 62.6704 20.5269 60.1738 19.8199H60.1407C58.3733 18.5164 58.8372 15.8211 58.3733 13.899C58.3733 13.0484 57.6773 12.3414 56.8157 12.3414C56.8157 12.3414 53.8553 11.8223 51.3588 11.8223C48.8623 11.8223 45.6036 12.3414 45.6036 12.3414C44.753 12.3414 44.046 13.0374 44.046 13.899C44.046 14.4624 43.7367 17.942 42.2786 19.8199C39.8042 20.5158 37.2082 21.6205 35.01 22.8466C32.8449 23.178 31.2652 20.9356 29.5751 19.9083C29.2769 19.7315 29.1112 19.6211 28.9897 19.5548C28.4373 19.367 27.8077 19.4664 27.3769 19.9083C27.3769 19.9083 24.9135 21.6315 23.1571 23.399C21.4007 25.1664 19.4455 27.8396 19.4455 27.8396C18.838 28.4472 18.838 29.4303 19.4455 30.0379C19.8321 30.4245 22.0856 33.1199 22.3839 35.4728V35.4948C21.1577 37.6931 20.0862 40.278 19.3792 42.7524C19.3792 42.7524 19.4124 42.7082 19.3792 42.7524C17.8659 44.5861 15.3804 44.0559 13.4583 44.5198C12.6078 44.5198 11.9008 45.2157 11.9008 46.0774C11.9008 46.0774 11.3816 49.0378 11.3816 51.5343C11.3816 54.0308 11.9008 57.2895 11.9008 57.2895C11.9008 58.1401 12.5967 58.8471 13.4583 58.8471C14.0217 58.8471 17.5013 59.1564 19.3792 60.6145C19.4234 60.5924 19.4013 60.6477 19.4013 60.6477C20.1193 63.1331 21.1467 65.6186 22.3949 67.8058C22.3728 67.8389 22.3949 67.8058 22.406 67.8831C22.6159 70.1476 20.4949 71.6278 19.4676 73.318C19.2909 73.6162 19.1804 73.7819 19.1141 73.9034C18.9263 74.4558 19.0257 75.0854 19.4676 75.5162C19.4676 75.5162 21.1909 77.9796 22.9583 79.736C24.7257 81.5034 27.399 83.4476 27.399 83.4476C28.0065 84.0551 28.9897 84.0551 29.5972 83.4476C29.9838 83.0609 32.6792 80.8075 35.0321 80.5092C35.0321 80.5092 35.021 80.5203 35.0652 80.5313C37.3298 81.7906 39.6606 82.7848 42.2123 83.4807C42.2344 83.4918 42.3117 83.5139 42.3117 83.5139C44.0791 84.8173 43.6152 87.5127 44.0791 89.4348C44.1786 90.2964 44.6536 90.8487 45.6367 90.9923C45.6367 90.9923 48.5971 91.5115 51.0936 91.5115C53.5902 91.5115 56.8489 91.0034 56.8489 91.0034C57.6994 90.8598 58.4064 90.3074 58.4064 89.4458C58.4064 88.8824 58.7157 85.4028 60.1738 83.5249C60.1738 83.5249 60.2401 83.4697 60.2954 83.4144C62.8913 82.6854 64.8686 81.879 67.1663 80.5644C67.2878 80.5203 67.1552 80.5313 67.4314 80.4871C69.5965 80.1557 71.1761 82.3982 72.8662 83.4255C73.1645 83.6022 73.3302 83.7127 73.4517 83.779C74.004 83.9668 74.6337 83.8673 75.0645 83.4255C75.0645 83.4255 77.5278 81.7022 79.2842 79.9348C81.0517 78.1674 82.9958 75.4941 82.9958 75.4941C83.6034 74.8866 83.6034 73.9034 82.9958 73.2959C82.6092 72.9092 80.3557 70.2139 80.0575 67.861C80.0244 67.618 80.0464 67.5848 80.0796 67.5186C81.3941 65.2098 82.2115 63.5197 82.9296 60.8907C82.9296 60.8907 82.8964 60.8023 83.0621 60.5814C84.3656 58.8139 87.061 59.2779 88.983 58.8139C89.8336 58.8139 90.5406 58.118 90.5406 57.2564C90.5406 57.2564 91.0598 54.2959 91.0598 51.7994C91.0708 49.325 90.5627 46.0553 90.5627 46.0553Z" fill="#1F1D20"/>
<path d="M90.5627 45.0064C90.5627 44.1559 89.8668 43.4489 89.0051 43.4489C88.4418 43.4489 84.9621 43.1396 83.0842 41.6815C83.0842 41.6815 83.0953 41.6594 83.0842 41.6815C82.3772 39.1076 81.3389 36.6995 80.0575 34.4129C79.7261 32.2478 81.9685 30.6681 82.9958 28.978C83.1726 28.6798 83.2831 28.5141 83.3493 28.3926C83.5371 27.8402 83.4377 27.2106 82.9958 26.7798C82.9958 26.7798 81.2726 24.3164 79.5052 22.56C77.7377 20.8036 75.0645 18.8484 75.0645 18.8484C74.4569 18.2409 73.4738 18.2409 72.8662 18.8484C72.4686 19.235 69.8174 21.4222 67.4203 21.7757C67.3872 21.7757 67.3872 21.7757 67.3872 21.7757C65.1669 20.5164 62.6704 19.4781 60.1738 18.7711H60.1407C58.3733 17.4676 58.8372 14.7723 58.3733 12.8502C58.3733 11.9996 57.6773 11.2926 56.8157 11.2926C56.8157 11.2926 53.8553 10.7734 51.3588 10.7734C48.8623 10.7734 45.6036 11.2926 45.6036 11.2926C44.753 11.2926 44.046 11.9885 44.046 12.8502C44.046 13.4135 43.7367 16.8932 42.2786 18.7711C39.8042 19.467 37.2082 20.5717 35.01 21.7978C32.8449 22.1292 31.2652 19.8868 29.5751 18.8595C29.2769 18.6827 29.1112 18.5722 28.9897 18.506C28.4373 18.3182 27.8077 18.4176 27.3769 18.8595C27.3769 18.8595 24.9135 20.5827 23.1571 22.3501C21.4007 24.1176 19.4455 26.7908 19.4455 26.7908C18.838 27.3984 18.838 28.3815 19.4455 28.9891C19.8321 29.3757 22.0856 32.071 22.3839 34.4239V34.446C21.1577 36.6443 20.0862 39.2291 19.3792 41.7036C19.3792 41.7036 19.4124 41.6594 19.3792 41.7036C17.8659 43.5373 15.3804 43.007 13.4583 43.471C12.6078 43.471 11.9008 44.1669 11.9008 45.0285C11.9008 45.0285 11.3816 47.989 11.3816 50.4855C11.3816 52.982 11.9008 56.2407 11.9008 56.2407C11.9008 57.0913 12.5967 57.7983 13.4583 57.7983C14.0217 57.7983 17.5013 58.1076 19.3792 59.5657C19.4234 59.5436 19.4013 59.5988 19.4013 59.5988C20.1193 62.0843 21.1467 64.5697 22.3949 66.7569C22.3728 66.7901 22.3949 66.7569 22.406 66.8343C22.6159 69.0988 20.4949 70.579 19.4676 72.2691C19.2909 72.5674 19.1804 72.7331 19.1141 72.8546C18.9263 73.4069 19.0257 74.0366 19.4676 74.4674C19.4676 74.4674 21.1909 76.9307 22.9583 78.6871C24.7257 80.4546 27.399 82.3987 27.399 82.3987C28.0065 83.0063 28.9897 83.0063 29.5972 82.3987C29.9838 82.0121 32.6792 79.7586 35.0321 79.4604C35.0321 79.4604 35.021 79.4714 35.0652 79.4825C37.3298 80.7418 39.6606 81.736 42.2123 82.4319C42.2344 82.4429 42.3117 82.465 42.3117 82.465C44.0791 83.7685 43.6152 86.4638 44.0791 88.3859C44.1786 89.2475 44.6536 89.7999 45.6367 89.9435C45.6367 89.9435 48.5971 90.4627 51.0936 90.4627C53.5902 90.4627 56.8489 89.9545 56.8489 89.9545C57.6994 89.8109 58.4064 89.2586 58.4064 88.397C58.4064 87.8336 58.7157 84.354 60.1738 82.4761C60.1738 82.4761 60.2401 82.4208 60.2954 82.3656C62.8913 81.6365 64.8686 80.8301 67.1663 79.5156C67.2878 79.4714 67.1552 79.4825 67.4314 79.4383C69.5965 79.1069 71.1761 81.3493 72.8662 82.3767C73.1645 82.5534 73.3302 82.6639 73.4517 82.7301C74.004 82.9179 74.6337 82.8185 75.0645 82.3767C75.0645 82.3767 77.5278 80.6534 79.2842 78.886C81.0517 77.1185 82.9958 74.4453 82.9958 74.4453C83.6034 73.8377 83.6034 72.8546 82.9958 72.247C82.6092 71.8604 80.3557 69.1651 80.0575 66.8122C80.0244 66.5691 80.0464 66.536 80.0796 66.4697C81.3941 64.161 82.2115 62.4709 82.9296 59.8419C82.9296 59.8419 82.8964 59.7535 83.0621 59.5326C84.3656 57.7651 87.061 58.2291 88.983 57.7651C89.8336 57.7651 90.5406 57.0692 90.5406 56.2076C90.5406 56.2076 91.0598 53.2471 91.0598 50.7506C91.0708 48.2652 90.5627 45.0064 90.5627 45.0064Z" fill="url(#paint2_linear_339_25947)"/>
<path d="M73.4964 82.7203C73.4851 82.7203 73.4851 82.709 73.4737 82.709C73.4851 82.709 73.4964 82.7203 73.4964 82.7203Z" fill="#9FC2F6"/>
<path d="M73.4737 82.709C73.2528 82.5764 72.8882 82.3555 72.8882 82.3555C73.065 82.5212 73.2638 82.6316 73.4737 82.709Z" fill="#9FC2F6"/>
<path d="M73.4959 82.7188C73.7053 82.829 73.6612 82.8179 73.4959 82.7188V82.7188Z" fill="#9FC2F6"/>
<path d="M29.056 18.5273C29.2769 18.6599 29.6414 18.8808 29.6414 18.8808C29.4647 18.7151 29.2658 18.5936 29.056 18.5273Z" fill="#9FC2F6"/>
<path d="M29.0338 18.5176C29.0452 18.5176 29.0452 18.5289 29.0565 18.5289C29.0452 18.5289 29.0338 18.5176 29.0338 18.5176Z" fill="#9FC2F6"/>
<path d="M29.0335 18.5165C28.8351 18.3952 28.8682 18.4173 29.0335 18.5165V18.5165Z" fill="#9FC2F6"/>
<path d="M19.158 72.8535C19.0478 73.0519 19.0699 73.0078 19.158 72.8535V72.8535Z" fill="#9FC2F6"/>
<path d="M19.1583 72.8547C19.1583 72.8434 19.1697 72.8434 19.1697 72.832C19.1697 72.8434 19.1583 72.8547 19.1583 72.8547Z" fill="#9FC2F6"/>
<path d="M19.1692 72.8335C19.3017 72.6126 19.5226 72.248 19.5226 72.248C19.368 72.4137 19.2465 72.6236 19.1692 72.8335Z" fill="#9FC2F6"/>
<path d="M83.3605 28.4043C83.2279 28.6252 83.007 28.9898 83.007 28.9898C83.1616 28.813 83.2831 28.6142 83.3605 28.4043Z" fill="#9FC2F6"/>
<path d="M83.3716 28.3809C83.3716 28.3922 83.3603 28.3922 83.3603 28.4035C83.3603 28.3922 83.3716 28.3809 83.3716 28.3809Z" fill="#9FC2F6"/>
<path d="M83.3714 28.3808C83.4816 28.1824 83.4596 28.2265 83.3714 28.3808V28.3808Z" fill="#9FC2F6"/>
<path opacity="0.15" d="M51.2209 67.8712C54.362 67.8712 57.4311 66.9399 60.0428 65.1948C62.6545 63.4497 64.6916 60.9681 65.8937 58.0661C67.0957 55.1641 67.4086 51.9721 66.7958 48.8914C66.183 45.8106 64.6714 42.9807 62.4503 40.7596C60.2292 38.5385 57.4007 37.0254 54.3199 36.4126C51.2392 35.7999 48.0443 36.1141 45.1423 37.3162C42.2403 38.5182 39.7616 40.5539 38.0165 43.1657C36.2714 45.7774 35.3386 48.8479 35.3386 51.989C35.3348 54.0757 35.7428 56.1432 36.5396 58.0718C37.3363 60.0004 38.5074 61.7528 39.9829 63.2284C41.4585 64.7039 43.2109 65.8735 45.1395 66.6703C47.0681 67.4671 49.1342 67.8751 51.2209 67.8712V67.8712Z" fill="#1F1D20"/>
<path d="M51.2209 66.4429C54.3632 66.4429 57.4333 65.5115 60.0456 63.7651C62.658 62.0187 64.6954 59.5358 65.8965 56.6321C67.0977 53.7284 67.411 50.5332 66.7958 47.4517C66.1806 44.3701 64.6629 41.5412 62.4389 39.3213C60.2149 37.1014 57.3827 35.591 54.3 34.9815C51.2174 34.372 48.0239 34.6899 45.1224 35.8964C42.2209 37.1029 39.7439 39.1432 38.0023 41.7587C36.2607 44.3743 35.3329 47.4482 35.3387 50.5906C35.3348 52.6759 35.7424 54.7422 36.5396 56.6691C37.3367 58.5961 38.507 60.3454 39.9829 61.8186C41.4588 63.2917 43.2111 64.4584 45.1395 65.252C47.0679 66.0456 49.1356 66.4506 51.2209 66.4429V66.4429Z" fill="white"/>
<path d="M59.119 57.0306C58.8842 55.1014 57.9501 53.3248 56.4952 52.0363C55.0403 50.7477 53.1654 50.0371 51.222 50.0371C49.2785 50.0371 47.4008 50.7477 45.9459 52.0363C44.491 53.3248 43.5598 55.1014 43.325 57.0306C43.2969 57.3116 43.2969 57.5948 43.325 57.8758C43.4603 58.5093 43.7399 59.103 44.1445 59.6089C44.5492 60.1147 45.0673 60.5188 45.6556 60.7899C47.4009 61.6664 49.3259 62.1231 51.2789 62.1231C53.2319 62.1231 55.1598 61.6664 56.905 60.7899C57.4905 60.519 58.0019 60.1137 58.4019 59.6074C58.8018 59.1012 59.0792 58.5081 59.2072 57.8758C59.2195 57.5913 59.1893 57.3065 59.119 57.0306V57.0306Z" fill="url(#paint3_linear_339_25947)"/>
<path d="M51.221 48.8728C52.1578 48.8613 53.0713 48.5721 53.8448 48.0433C54.6182 47.5144 55.2159 46.7693 55.5665 45.9004C55.917 45.0315 56.0038 44.0774 55.814 43.1599C55.6242 42.2424 55.1658 41.4023 54.4993 40.7439C53.8327 40.0854 52.9888 39.639 52.069 39.4604C51.1492 39.2818 50.1959 39.3781 49.3314 39.7393C48.4668 40.1005 47.7278 40.7096 47.2084 41.4895C46.689 42.2693 46.4117 43.1848 46.4116 44.1218C46.4154 44.7494 46.5435 45.3704 46.7872 45.9488C47.0309 46.5271 47.3852 47.0515 47.8316 47.4926C48.2781 47.9337 48.807 48.2833 49.3883 48.5199C49.9696 48.7566 50.5934 48.8766 51.221 48.8728V48.8728Z" fill="url(#paint4_linear_339_25947)"/>
<path d="M36.9854 71.5287C33.6622 69.169 30.9535 66.0465 29.0869 62.4233C27.2203 58.8001 26.2501 54.7819 26.2579 50.7062C26.2579 43.9356 28.9475 37.4424 33.735 32.6548C38.5226 27.8673 45.0158 25.1777 51.7864 25.1777" stroke="white" stroke-width="2" stroke-miterlimit="10" stroke-linecap="round"/>
<path d="M67.6827 31.7051C70.3599 34.0933 72.5015 37.0209 73.9667 40.2957C75.4318 43.5705 76.1874 47.1183 76.1838 50.706C76.1838 57.4832 73.4915 63.9829 68.6992 68.7752C63.907 73.5675 57.4073 76.2597 50.63 76.2597" stroke="white" stroke-width="2" stroke-miterlimit="10" stroke-linecap="round"/>
<path d="M50.0987 21.4844L57.1359 25.55L50.0987 29.6078V21.4844Z" fill="white"/>
<path d="M50.5172 72.0469L43.4799 76.1125L50.5172 80.1703V72.0469Z" fill="white"/>
<defs>
<linearGradient id="paint0_linear_339_25947" x1="49.4469" y1="-13.5693" x2="53.4289" y2="132.201" gradientUnits="userSpaceOnUse">
<stop stop-color="#00ABDE"/>
<stop offset="1" stop-color="#007ED8"/>
</linearGradient>
<linearGradient id="paint1_linear_339_25947" x1="2.65122" y1="-20.402" x2="98.1788" y2="120.479" gradientUnits="userSpaceOnUse">
<stop stop-color="#007ED8"/>
<stop offset="0.7065" stop-color="#002D4C"/>
</linearGradient>
<linearGradient id="paint2_linear_339_25947" x1="54.3062" y1="-85.4578" x2="48.6698" y2="166.297" gradientUnits="userSpaceOnUse">
<stop stop-color="#007ED8"/>
<stop offset="0.7065" stop-color="#002D4C"/>
</linearGradient>
<linearGradient id="paint3_linear_339_25947" x1="51.2569" y1="50.0371" x2="51.2569" y2="62.1231" gradientUnits="userSpaceOnUse">
<stop stop-color="#008BF1"/>
<stop offset="0.22" stop-color="#0086EC"/>
<stop offset="0.49" stop-color="#0078DD"/>
<stop offset="0.79" stop-color="#0061C4"/>
<stop offset="1" stop-color="#004DAE"/>
</linearGradient>
<linearGradient id="paint4_linear_339_25947" x1="51.1619" y1="39.373" x2="51.1619" y2="48.8729" gradientUnits="userSpaceOnUse">
<stop stop-color="#008BF1"/>
<stop offset="0.22" stop-color="#0086EC"/>
<stop offset="0.49" stop-color="#0078DD"/>
<stop offset="0.79" stop-color="#0061C4"/>
<stop offset="1" stop-color="#004DAE"/>
</linearGradient>
</defs>
</svg>
