<svg width="103" height="103" viewBox="0 0 103 103" fill="none" xmlns="http://www.w3.org/2000/svg">
<path d="M51.0922 98.6591C25.2422 98.6591 4.28217 77.7091 4.28217 51.8491C4.28217 25.9891 25.2422 5.03906 51.0922 5.03906C76.9422 5.03906 97.9022 25.9991 97.9022 51.8491C97.9022 77.6991 76.9422 98.6591 51.0922 98.6591Z" fill="url(#paint0_linear_303_76)"/>
<path fill-rule="evenodd" clip-rule="evenodd" d="M96.9921 51.849C96.9921 77.199 76.4421 97.749 51.0921 97.749C25.7421 97.749 5.19215 77.199 5.19215 51.849C5.19215 26.499 25.7421 5.94899 51.0921 5.94899C76.4421 5.94899 96.9921 26.499 96.9921 51.849ZM51.0921 2.20898C78.5121 2.20898 100.732 24.429 100.732 51.849C100.732 79.269 78.5021 101.489 51.0921 101.489C23.6721 101.489 1.45215 79.259 1.45215 51.849C1.45215 24.429 23.6721 2.20898 51.0921 2.20898Z" fill="#F2F1F0"/>
<path fill-rule="evenodd" clip-rule="evenodd" d="M94.1822 51.8486C94.1822 75.6486 74.8921 94.9386 51.0921 94.9386C27.2921 94.9386 8.00215 75.6486 8.00215 51.8486C8.00215 28.0486 27.2921 8.75856 51.0921 8.75856C74.8921 8.75856 94.1822 28.0486 94.1822 51.8486ZM51.0921 5.01855C76.9521 5.01855 97.9221 25.9886 97.9221 51.8486C97.9221 77.7086 76.9521 98.6786 51.0921 98.6786C25.2321 98.6786 4.26215 77.7086 4.26215 51.8486C4.26215 25.9886 25.2221 5.01855 51.0921 5.01855Z" fill="url(#paint1_linear_303_76)"/>
<path d="M88.4151 50.9473H73.7351V51.8373H88.4251V50.9473H88.4151Z" fill="white"/>
<path d="M87.5151 48.2969L92.8651 51.3869L87.5151 54.4769V48.2969Z" fill="white"/>
<path opacity="0.15" d="M79.1351 71.5773V35.6573C79.1351 34.1873 77.9651 33.0273 76.5051 33.0273H27.1151C25.7451 33.0273 24.6451 34.1473 24.6451 35.4973V71.7173C24.6451 73.0873 25.7651 74.1873 27.1151 74.1873L76.5051 74.2073C77.9751 74.2073 79.1351 73.0473 79.1351 71.5773Z" fill="#1F1D20"/>
<path d="M79.1351 69.3469V33.4269C79.1351 31.9569 77.9651 30.7969 76.5051 30.7969H27.1151C25.7451 30.7969 24.6451 31.9169 24.6451 33.2669V69.4869C24.6451 70.8569 25.7651 71.9569 27.1151 71.9569L76.5051 71.9769C77.9751 71.9769 79.1351 70.8069 79.1351 69.3469Z" fill="white"/>
<path d="M15.4752 50.9465L8.44518 50.9365L8.43518 51.8265H15.4752V50.9465Z" fill="white"/>
<path d="M14.5752 48.2969L19.9252 51.3869L14.5752 54.4769V48.2969V48.2969Z" fill="white"/>
<path d="M82.8951 51.2972C82.8951 49.1272 81.1251 47.3672 78.9651 47.3672C76.7751 47.3572 75.0251 49.1172 75.0251 51.2972C75.0251 53.4772 76.7951 55.2272 78.9551 55.2272C81.1351 55.2272 82.8951 53.4772 82.8951 51.2972Z" fill="url(#paint2_linear_303_76)"/>
<path d="M29.0552 51.2972C29.0552 49.1272 27.2852 47.3672 25.1252 47.3672C22.9352 47.3572 21.1852 49.1172 21.1852 51.2972C21.1852 53.4772 22.9552 55.2272 25.1152 55.2272C27.2852 55.2272 29.0552 53.4772 29.0552 51.2972Z" fill="url(#paint3_linear_303_76)"/>
<path fill-rule="evenodd" clip-rule="evenodd" d="M37.5073 60.7847C37.0397 60.786 36.5975 60.571 36.3085 60.2027L31.7967 54.5757C31.4975 54.2069 31.388 53.7184 31.5004 53.2561L33.1115 46.2315C33.215 45.7709 33.5239 45.3845 33.9494 45.1835L40.4721 42.0525C40.8956 41.8458 41.3897 41.8458 41.8127 42.0525L48.3359 45.1704C48.7613 45.371 49.0703 45.7578 49.1737 46.218L50.7849 53.243C50.8912 53.7052 50.782 54.1905 50.4886 54.5625L45.9767 60.1904C45.6837 60.5542 45.2439 60.7675 44.778 60.7724L37.5073 60.7852V60.7847Z" fill="#326DE6"/>
<path fill-rule="evenodd" clip-rule="evenodd" d="M41.1297 41.6133C40.8534 41.6162 40.5812 41.6781 40.3306 41.7942L33.8075 44.9252C33.2974 45.1655 32.9267 45.6286 32.8025 46.1799L31.1913 53.2049C31.0609 53.7586 31.1946 54.3415 31.5522 54.7829L36.0636 60.4107C36.4114 60.8468 36.9383 61.0994 37.4945 61.097H44.726C45.2822 61.0994 45.8095 60.8472 46.1569 60.4111L50.6687 54.7837C51.0276 54.3428 51.1612 53.7591 51.0296 53.2053L49.4185 46.1804C49.2942 45.6291 48.9231 45.166 48.413 44.9256L41.916 41.7942C41.6704 41.6765 41.4019 41.6149 41.1297 41.6133ZM41.1297 42.2212C41.3124 42.2212 41.4926 42.261 41.6581 42.3377L48.1813 45.4551C48.5193 45.6204 48.7653 45.9289 48.8516 46.296L50.4623 53.321C50.5531 53.6934 50.4619 54.0868 50.2175 54.3813L45.7057 60.0096C45.4719 60.3049 45.1155 60.4768 44.7395 60.4751H37.5072C37.1312 60.4768 36.7752 60.3049 36.541 60.0096L32.0288 54.3817C31.7958 54.0815 31.7063 53.6934 31.7839 53.321L33.3955 46.296C33.4789 45.9277 33.7258 45.6176 34.0654 45.4551L40.5885 42.3241C40.7614 42.2577 40.9445 42.2224 41.1297 42.2204V42.2212Z" fill="white"/>
<path fill-rule="evenodd" clip-rule="evenodd" d="M44.5457 53.8383C44.2285 54.3416 43.8063 54.7699 43.3081 55.0931L42.496 53.1398C42.4539 52.9798 42.5291 52.8124 42.6766 52.7386C42.733 52.7119 42.7947 52.6988 42.8573 52.6996L44.9197 53.0491C44.84 53.3313 44.7137 53.5984 44.5457 53.8383ZM42.0313 55.6366C41.7349 55.7035 41.4325 55.7383 41.1288 55.7404C40.687 55.7375 40.2476 55.6674 39.827 55.5324L40.8448 53.6829C40.9445 53.5594 41.1157 53.5221 41.2576 53.5918C41.318 53.6291 41.3704 53.6771 41.4125 53.7345L42.4052 55.5324C42.2892 55.5714 42.1604 55.5972 42.0317 55.6366H42.0313ZM37.3269 53.0618L39.3766 52.7127C39.5471 52.7017 39.6999 52.8173 39.7375 52.9843C39.7531 53.0536 39.7486 53.1258 39.7245 53.1923L38.9381 55.0931C38.195 54.6103 37.6294 53.8974 37.3269 53.0618ZM37.6747 49.5563L39.2087 50.9272C39.3488 51.0502 39.366 51.2623 39.2475 51.4059C39.2107 51.4592 39.1551 51.4961 39.0922 51.5101L37.0952 52.0917C37.0134 51.2061 37.2166 50.3176 37.6747 49.5563ZM40.2145 47.7191C40.3563 47.6932 40.4851 47.6674 40.6269 47.6415L40.5108 49.7114C40.501 49.898 40.349 50.0449 40.1626 50.0469C40.1087 50.0481 40.0551 50.035 40.0073 50.0084L38.2931 48.7786C38.82 48.2495 39.4862 47.8815 40.2137 47.7178L40.2145 47.7191ZM43.9526 48.7798L42.2638 49.9829C42.1159 50.076 41.9217 50.0428 41.8126 49.9054C41.7787 49.8648 41.7566 49.8156 41.7484 49.7631L41.6328 47.6543C42.5107 47.7556 43.3281 48.1526 43.9526 48.7798ZM45.0619 50.7853C45.1616 51.2131 45.1923 51.6545 45.1518 52.0917L43.1793 51.5224C43.0011 51.4715 42.8937 51.2902 42.9345 51.1089C42.9468 51.0552 42.9738 51.0059 43.0118 50.9666L44.5714 49.5563C44.7995 49.937 44.9646 50.3521 45.0615 50.7861L45.0619 50.7853ZM41.6965 52.1307L41.1296 52.4026L40.5623 52.1307L40.4205 51.5224L40.8076 51.031H41.439L41.8257 51.5224L41.6965 52.1307ZM47.665 52.7644H47.6523C47.6393 52.7644 47.6266 52.7644 47.6266 52.7517C47.6008 52.7517 47.5747 52.7386 47.5489 52.7386C47.468 52.7242 47.3863 52.7156 47.3041 52.7127C47.2608 52.7144 47.2175 52.7099 47.1754 52.6996H47.1623C46.9269 52.6853 46.6935 52.6463 46.4662 52.5831C46.4013 52.5577 46.3502 52.506 46.3244 52.4412C46.3244 52.4281 46.3113 52.4281 46.3113 52.4154L46.1438 52.3633C46.2231 51.7545 46.1924 51.1368 46.0534 50.5391C45.9128 49.9362 45.6688 49.3627 45.3316 48.8442L45.4608 48.7281V48.7023C45.4584 48.6318 45.4812 48.5628 45.525 48.5079C45.7056 48.3565 45.8998 48.2224 46.1054 48.1075C46.1442 48.0817 46.1826 48.0686 46.2214 48.0427C46.297 48.0046 46.3702 47.9611 46.4405 47.9135C46.4536 47.9004 46.4789 47.8877 46.5047 47.8614C46.5177 47.8483 46.5304 47.8483 46.5304 47.8356C46.7078 47.6953 46.747 47.4414 46.6207 47.2535C46.55 47.162 46.4401 47.1091 46.3244 47.1112C46.2214 47.114 46.1217 47.1505 46.0408 47.2154L46.015 47.2412C45.9893 47.2539 45.9766 47.2798 45.9509 47.2929C45.8916 47.3499 45.8356 47.4106 45.7833 47.4738C45.7563 47.5074 45.7261 47.5378 45.693 47.5648C45.5381 47.7375 45.3652 47.8938 45.1772 48.0304C45.1432 48.0546 45.1032 48.0681 45.0615 48.069C45.0349 48.071 45.0084 48.0665 44.9842 48.0563H44.9585L44.8032 48.16C44.6364 47.9857 44.4603 47.8212 44.2743 47.6674C43.4977 47.0578 42.5622 46.685 41.5804 46.5935L41.5674 46.4253L41.5416 46.3995C41.4873 46.3589 41.4505 46.2986 41.4382 46.2313C41.4333 45.9979 41.4464 45.7641 41.477 45.5328V45.5196C41.4791 45.4757 41.4881 45.4318 41.5028 45.3904C41.5155 45.3129 41.5281 45.2345 41.5412 45.1447V45.0282C41.5588 44.8112 41.3973 44.6205 41.1811 44.6028C41.0597 44.593 40.9408 44.6402 40.8586 44.73C40.7818 44.8096 40.7397 44.9166 40.743 45.0278V45.1316C40.7422 45.2153 40.7552 45.2981 40.7818 45.3777C40.7945 45.4163 40.7945 45.4552 40.8076 45.5065V45.5196C40.8443 45.7506 40.8574 45.9848 40.846 46.2182C40.8337 46.2855 40.7969 46.3458 40.7426 46.3864L40.7168 46.4122L40.7037 46.5808C40.47 46.6025 40.2374 46.637 40.0077 46.6846C39.0309 46.8991 38.1419 47.4036 37.4553 48.1334L37.3265 48.0427H37.3012C37.2754 48.0427 37.2493 48.0558 37.2239 48.0558C37.1822 48.0546 37.1418 48.0415 37.1078 48.0169C36.9202 47.8754 36.7474 47.7154 36.5925 47.5382C36.5655 47.505 36.5352 47.4746 36.5021 47.4475C36.4494 47.3844 36.3938 47.3236 36.3346 47.2666C36.3215 47.2535 36.2957 47.2408 36.27 47.2145C36.2573 47.2014 36.2442 47.2014 36.2442 47.1887C36.1645 47.1222 36.0644 47.0857 35.961 47.0849C35.8453 47.0829 35.7354 47.1354 35.6647 47.2273C35.538 47.4151 35.5776 47.6686 35.7546 47.8093C35.7677 47.8093 35.7677 47.822 35.7803 47.822C35.8061 47.8352 35.8188 47.861 35.8445 47.8741C35.9148 47.9221 35.9884 47.9656 36.064 48.0037C36.1053 48.0202 36.1441 48.0419 36.1797 48.0681C36.3852 48.1834 36.5794 48.318 36.76 48.4693C36.8095 48.521 36.8328 48.592 36.8242 48.6633V48.6892L36.9529 48.8053C36.9272 48.8373 36.9055 48.8721 36.8888 48.9095C36.2504 49.9251 35.9941 51.1364 36.167 52.3247L35.9994 52.3768C35.9994 52.3899 35.9863 52.3899 35.9863 52.4026C35.9569 52.465 35.9066 52.515 35.8445 52.545C35.6173 52.609 35.3839 52.6479 35.1485 52.6615H35.1354C35.0921 52.659 35.0487 52.6635 35.0066 52.6742C34.9245 52.6771 34.8427 52.6857 34.7618 52.7C34.7361 52.7 34.7099 52.7132 34.6846 52.7132C34.6703 52.7111 34.656 52.716 34.6457 52.7263C34.4246 52.7706 34.2771 52.981 34.3106 53.205C34.3584 53.3908 34.5321 53.5159 34.723 53.5024C34.7581 53.5044 34.7933 53.4999 34.8268 53.4892C34.8395 53.4892 34.8521 53.4892 34.8521 53.4765C34.8779 53.4765 34.904 53.4634 34.9298 53.4634C35.0095 53.4408 35.0872 53.4105 35.1615 53.3723C35.2 53.3592 35.2388 53.3334 35.2772 53.3202H35.2903C35.5057 53.2312 35.7309 53.166 35.9606 53.1262H35.9863C36.0476 53.1291 36.1065 53.1521 36.1539 53.191C36.167 53.191 36.167 53.2042 36.1797 53.2042L36.3599 53.1783C36.6713 54.1382 37.2591 54.9844 38.0487 55.6103C38.2253 55.7469 38.4104 55.872 38.6029 55.9853L38.5257 56.1534C38.5257 56.1666 38.5388 56.1666 38.5388 56.1793C38.5751 56.242 38.5845 56.3171 38.5645 56.3872C38.4721 56.6001 38.3598 56.8036 38.229 56.9952V57.0083C38.2036 57.0468 38.1775 57.0727 38.1517 57.1121C38.1002 57.1769 38.0618 57.2413 38.0099 57.32C37.9944 57.3397 37.9813 57.3615 37.9715 57.3844C37.9702 57.3943 37.9653 57.4033 37.9584 57.4103C37.8513 57.6092 37.9249 57.8574 38.1231 57.9653C38.1239 57.9657 38.1251 57.9661 38.126 57.9665C38.1742 57.9915 38.2273 58.005 38.2813 58.0055C38.4444 57.9977 38.5911 57.9041 38.6679 57.7597C38.6696 57.7499 38.6741 57.7409 38.681 57.7339C38.6908 57.7105 38.7039 57.6888 38.7198 57.6691C38.7493 57.5928 38.775 57.5153 38.7971 57.4361L38.8355 57.32C38.9005 57.0944 38.9916 56.8774 39.1065 56.6732C39.1486 56.6174 39.207 56.5768 39.2741 56.5567C39.2867 56.5567 39.2867 56.5567 39.2998 56.5435L39.3897 56.3758C39.9656 56.5977 40.5775 56.7117 41.1946 56.7117C41.5723 56.7142 41.9487 56.6707 42.3161 56.5825C42.5434 56.5316 42.7669 56.4668 42.9864 56.3885L43.0637 56.5308C43.0768 56.5308 43.0768 56.5308 43.0894 56.5439C43.1597 56.5558 43.2214 56.5985 43.257 56.66C43.3641 56.8676 43.4544 57.0833 43.5272 57.3053V57.3184L43.566 57.4349C43.586 57.514 43.6118 57.592 43.6432 57.6675C43.6563 57.6933 43.669 57.7064 43.6821 57.7323C43.6833 57.7421 43.6878 57.7511 43.6947 57.7581C43.7675 57.9062 43.9167 58.0014 44.0814 58.0038C44.1357 58.0034 44.1889 57.9903 44.2371 57.9653C44.3303 57.9169 44.3998 57.8332 44.4296 57.7323C44.4599 57.6248 44.4509 57.5104 44.4043 57.409C44.4043 57.3959 44.3912 57.3959 44.3912 57.3832C44.3814 57.3598 44.3683 57.3381 44.3524 57.3184C44.3127 57.2441 44.2653 57.1748 44.2105 57.1108C44.1848 57.0719 44.159 57.046 44.1333 57.0066V56.9939C43.998 56.8052 43.8852 56.601 43.7981 56.3856C43.7822 56.3167 43.7867 56.2445 43.8112 56.178C43.8112 56.1649 43.8239 56.1649 43.8239 56.1522L43.7597 55.9963C44.8257 55.3564 45.6227 54.3494 46.0032 53.1631L46.1585 53.189C46.1716 53.189 46.1716 53.1759 46.1842 53.1759C46.2329 53.1389 46.2909 53.1168 46.3514 53.1115H46.3771C46.6073 53.1508 46.8321 53.2161 47.0479 53.3051H47.0605C47.0994 53.3182 47.1378 53.344 47.1766 53.3572C47.2506 53.3949 47.3286 53.4257 47.4088 53.4478C47.4341 53.4478 47.4602 53.4609 47.486 53.4609C47.5003 53.4589 47.5142 53.4638 47.5248 53.4737C47.5579 53.4843 47.5931 53.4888 47.6282 53.4868C47.815 53.4872 47.9814 53.3674 48.0406 53.189C48.0169 52.9827 47.8677 52.8124 47.6667 52.7624L47.665 52.7644Z" fill="white"/>
<path d="M60.6266 57.8687L63.0702 60.3123H67.0361C67.5194 60.3123 67.9078 59.9194 67.9078 59.4406V50.2803L60.6266 57.5661C60.5407 57.6474 60.5407 57.7829 60.6266 57.8687Z" fill="#235DC1"/>
<path d="M54.4066 47.6829V51.6488L56.8503 54.0924C56.9361 54.1782 57.0716 54.1782 57.1529 54.0924L64.4387 46.8066H55.2784C54.7996 46.8066 54.4066 47.1996 54.4066 47.6829Z" fill="#3B6EC6"/>
<path d="M63.5752 43.2427L57.6942 52.2404C57.4955 52.5476 57.5361 52.9496 57.7936 53.2071L61.5607 56.9742C61.8181 57.2316 62.2247 57.2723 62.5273 57.0735L71.525 51.188C72.0986 50.8131 72.4419 50.1717 72.4419 49.4896V43.2156C72.4419 42.7233 72.0399 42.3213 71.5476 42.3213H65.2781C64.5915 42.3213 63.9546 42.6691 63.5752 43.2427Z" fill="#5D8DE4"/>
<path d="M55.7301 59.0744V55.8945H54.4066V60.3301H58.91V59.0744H55.7301Z" fill="#9FBBF0"/>
<path d="M67.9297 48.9886C69.167 48.9886 70.1701 47.9855 70.1701 46.7482C70.1701 45.5109 69.167 44.5078 67.9297 44.5078C66.6923 44.5078 65.6893 45.5109 65.6893 46.7482C65.6893 47.9855 66.6923 48.9886 67.9297 48.9886Z" fill="#ADC5F2"/>
<path d="M63.9189 49.7492L59.128 54.54L60.2331 55.6451L65.024 50.8543L63.9189 49.7492Z" fill="#6C9AEE"/>
<path d="M59.2795 56.5983L60.2313 55.6465L59.1262 54.5414L58.1744 55.4932L59.2795 56.5983Z" fill="#88ACEF"/>
<defs>
<linearGradient id="paint0_linear_303_76" x1="49.3183" y1="-12.9404" x2="53.3003" y2="132.83" gradientUnits="userSpaceOnUse">
<stop stop-color="#00ABDE"/>
<stop offset="1" stop-color="#007ED8"/>
</linearGradient>
<linearGradient id="paint1_linear_303_76" x1="2.52255" y1="-19.7741" x2="98.0501" y2="121.107" gradientUnits="userSpaceOnUse">
<stop stop-color="#007ED8"/>
<stop offset="0.7065" stop-color="#002D4C"/>
</linearGradient>
<linearGradient id="paint2_linear_303_76" x1="88.8308" y1="58.8271" x2="62.8789" y2="39.0245" gradientUnits="userSpaceOnUse">
<stop stop-color="#76C0FD"/>
<stop offset="1" stop-color="#63B2FB"/>
</linearGradient>
<linearGradient id="paint3_linear_303_76" x1="34.9875" y1="58.8271" x2="9.03568" y2="39.0245" gradientUnits="userSpaceOnUse">
<stop stop-color="#76C0FD"/>
<stop offset="1" stop-color="#63B2FB"/>
</linearGradient>
</defs>
</svg>
