<svg width="103" height="103" viewBox="0 0 103 103" fill="none" xmlns="http://www.w3.org/2000/svg">
<path d="M51.4672 98.8065C25.6172 98.8065 4.65723 77.8565 4.65723 51.9965C4.65723 26.1365 25.6172 5.18652 51.4672 5.18652C77.3172 5.18652 98.2772 26.1465 98.2772 51.9965C98.2772 77.8465 77.3172 98.8065 51.4672 98.8065Z" fill="url(#paint0_linear_451_51482)"/>
<path fill-rule="evenodd" clip-rule="evenodd" d="M97.3671 51.9964C97.3671 77.3464 76.8171 97.8964 51.4671 97.8964C26.1171 97.8964 5.56715 77.3464 5.56715 51.9964C5.56715 26.6464 26.1171 6.09645 51.4671 6.09645C76.8171 6.09645 97.3671 26.6464 97.3671 51.9964ZM51.4671 2.35645C78.8871 2.35645 101.107 24.5764 101.107 51.9964C101.107 79.4164 78.8771 101.636 51.4671 101.636C24.0471 101.636 1.82715 79.4064 1.82715 51.9964C1.82715 24.5764 24.0471 2.35645 51.4671 2.35645Z" fill="#F2F1F0"/>
<path fill-rule="evenodd" clip-rule="evenodd" d="M94.5572 51.996C94.5572 75.796 75.2672 95.086 51.4672 95.086C27.6672 95.086 8.37721 75.796 8.37721 51.996C8.37721 28.196 27.6672 8.90602 51.4672 8.90602C75.2672 8.90602 94.5572 28.196 94.5572 51.996ZM51.4672 5.16602C77.3272 5.16602 98.2972 26.136 98.2972 51.996C98.2972 77.856 77.3272 98.826 51.4672 98.826C25.6072 98.826 4.63721 77.856 4.63721 51.996C4.63721 26.136 25.5972 5.16602 51.4672 5.16602Z" fill="url(#paint1_linear_451_51482)"/>
<path fill-rule="evenodd" clip-rule="evenodd" d="M26.2202 29.6729C26.2202 29.3967 26.4441 29.1729 26.7202 29.1729H47.4645V30.1729H27.2202V73.2177H47.429V74.2177H26.7202C26.4441 74.2177 26.2202 73.9938 26.2202 73.7177V29.6729Z" fill="white"/>
<path opacity="0.15" d="M38.2666 65.1897H14.7178C14.026 65.1897 13.4707 64.6345 13.4707 63.9426V41.1123C13.4707 40.4205 14.026 39.8652 14.7178 39.8652H38.2666C38.9584 39.8652 39.5137 40.4205 39.5137 41.1123V63.9517C39.5137 64.6345 38.9493 65.1897 38.2666 65.1897Z" fill="#1F1D20"/>
<path d="M38.2666 64.1224H14.7178C14.026 64.1224 13.4707 63.5671 13.4707 62.8752V40.045C13.4707 39.3531 14.026 38.7979 14.7178 38.7979H38.2666C38.9584 38.7979 39.5137 39.3531 39.5137 40.045V62.8843C39.5137 63.5671 38.9493 64.1224 38.2666 64.1224Z" fill="white"/>
<path d="M34.4916 44.6729H27.42C26.9259 44.6729 26.5254 45.0734 26.5254 45.5675V58.6885C26.5254 59.1826 26.9259 59.5831 27.42 59.5831H34.4916C34.9857 59.5831 35.3863 59.1826 35.3863 58.6885V45.5675C35.3863 45.0734 34.9857 44.6729 34.4916 44.6729Z" fill="url(#paint2_linear_451_51482)"/>
<path d="M34.2159 49.3965H32.4263V51.4844H34.2159V49.3965Z" fill="#8FE9FC"/>
<path d="M29.4449 52.6758H27.6553V54.7637H29.4449V52.6758Z" fill="#32D4F5"/>
<path d="M29.4649 46.1162H27.6753V48.2041H29.4649V46.1162Z" fill="#EBFCFF"/>
<path d="M31.8521 46.1162H30.0625V48.2041H31.8521V46.1162Z" fill="#EBFCFF"/>
<path d="M34.2384 46.1162H32.4487V48.2041H34.2384V46.1162Z" fill="#EBFCFF"/>
<path d="M29.4649 49.3965H27.6753V51.4844H29.4649V49.3965Z" fill="#8FE9FC"/>
<path d="M31.8521 49.3965H30.0625V51.4844H31.8521V49.3965Z" fill="#8FE9FC"/>
<path d="M31.8521 52.6758H30.0625V54.7637H31.8521V52.6758Z" fill="#32D4F5"/>
<path d="M34.2159 52.6758H32.4263V54.7637H34.2159V52.6758Z" fill="#32D4F5"/>
<path d="M24.9757 55.4218C24.7921 55.4219 24.6124 55.4756 24.4588 55.5762C24.3052 55.6768 24.1843 55.8201 24.1109 55.9884H18.5547C18.1039 55.9884 17.6716 55.8093 17.3528 55.4905C17.034 55.1718 16.855 54.7394 16.855 54.2886C16.855 53.8378 17.034 53.4055 17.3528 53.0867C17.6716 52.7679 18.1039 52.5889 18.5547 52.5889H19.342C19.3744 52.3953 19.4321 52.2068 19.5135 52.0282C19.5433 51.9614 19.577 51.8961 19.6137 51.8329C19.8015 51.5072 20.0676 51.2333 20.3878 51.0362C20.708 50.839 21.0722 50.7246 21.4477 50.7035C21.8231 50.6823 22.1979 50.755 22.5383 50.915C22.8786 51.0749 23.1737 51.3171 23.397 51.6197C23.6348 51.5098 23.8835 51.4251 24.1389 51.3671C23.8441 50.8942 23.4242 50.512 22.9256 50.2629C22.4271 50.0138 21.8693 49.9074 21.3141 49.9557C20.7588 50.0039 20.2278 50.2048 19.7796 50.5361C19.3315 50.8674 18.9837 51.3162 18.7748 51.8329L18.7709 51.843L18.7748 51.8329H18.5547C17.9036 51.8329 17.2791 52.0916 16.8187 52.552C16.3583 53.0124 16.0996 53.6369 16.0996 54.288C16.0996 54.9392 16.3583 55.5636 16.8187 56.0241C17.2791 56.4845 17.9036 56.7432 18.5547 56.7432H24.1106C24.1787 56.8992 24.2877 57.0338 24.4261 57.1329C24.5645 57.232 24.7272 57.2919 24.8968 57.3061C25.0664 57.3204 25.2367 57.2885 25.3897 57.2139C25.5427 57.1392 25.6727 57.0246 25.7659 56.8822C25.8591 56.7397 25.912 56.5747 25.9191 56.4047C25.9262 56.2346 25.8872 56.0658 25.8062 55.916C25.7252 55.7663 25.6052 55.6413 25.4589 55.5542C25.3127 55.4671 25.1456 55.4211 24.9754 55.4212L24.9757 55.4218Z" fill="url(#paint3_linear_451_51482)"/>
<path d="M28.0223 53.5394C27.7101 52.9099 27.2105 52.3926 26.5922 52.0587C25.974 51.7248 25.2674 51.5907 24.5698 51.6748C23.8722 51.759 23.2178 52.0572 22.6966 52.5285C22.1755 52.9998 21.8132 53.621 21.6595 54.3067C21.2799 54.3435 20.9127 54.4622 20.5832 54.6544C20.2538 54.8467 19.9699 55.108 19.751 55.4205H23.7986C23.9942 55.1761 24.2609 54.9985 24.5619 54.9122C24.8628 54.826 25.1831 54.8353 25.4785 54.939C25.7739 55.0427 26.0298 55.2355 26.2109 55.4909C26.3919 55.7463 26.4892 56.0517 26.4892 56.3647C26.4892 56.6778 26.3919 56.9831 26.2109 57.2385C26.0298 57.494 25.7739 57.6868 25.4785 57.7905C25.1831 57.8942 24.8628 57.9035 24.5619 57.8173C24.2609 57.731 23.9942 57.5534 23.7986 57.309H19.2983C19.3877 57.9396 19.7017 58.5167 20.1825 58.9343C20.6634 59.3519 21.2788 59.5818 21.9157 59.5819H27.9991C28.7956 59.5778 29.5583 59.2593 30.1212 58.6957C30.6841 58.1321 31.0017 57.369 31.0048 56.5725C31.008 55.7759 30.6965 55.0104 30.138 54.4423C29.5796 53.8743 28.8194 53.5498 28.0229 53.5394H28.0223Z" fill="url(#paint4_linear_451_51482)"/>
<path d="M28.654 29.7556C28.654 30.715 27.8743 31.4947 26.9176 31.4947C25.9608 31.4947 25.1812 30.715 25.1812 29.7556C25.1812 28.7963 25.9608 28.0166 26.9176 28.0166C27.8743 28.0166 28.654 28.7963 28.654 29.7556Z" fill="white"/>
<path d="M27.8138 29.7552C27.8138 30.2505 27.4113 30.653 26.9174 30.653C26.4235 30.653 26.021 30.2505 26.021 29.7552C26.021 29.2599 26.4235 28.8574 26.9174 28.8574C27.4113 28.8574 27.8138 29.2599 27.8138 29.7552Z" fill="#01A0DD"/>
<path d="M28.654 73.2556C28.654 74.215 27.8743 74.9947 26.9176 74.9947C25.9608 74.9947 25.1812 74.215 25.1812 73.2556C25.1812 72.2963 25.9608 71.5166 26.9176 71.5166C27.8743 71.5166 28.654 72.2963 28.654 73.2556Z" fill="white"/>
<path d="M27.8138 73.2552C27.8138 73.7505 27.4113 74.153 26.9174 74.153C26.4235 74.153 26.021 73.7505 26.021 73.2552C26.021 72.7599 26.4235 72.3574 26.9174 72.3574C27.4113 72.3574 27.8138 72.7599 27.8138 73.2552Z" fill="#0191DB"/>
<path opacity="0.15" d="M81.1385 27.6051L43.5971 27.2941C42.7842 27.2832 42.1241 27.9379 42.1241 28.7508L41.7203 77.7384C41.7094 78.5513 42.3641 79.2115 43.177 79.2115L80.7184 79.5225C81.5313 79.5334 82.1915 78.8787 82.1915 78.0657L82.5952 29.0781C82.5898 28.2707 81.9351 27.6105 81.1385 27.6051Z" fill="#1F1D20"/>
<path d="M81.1493 26.0504L43.608 25.7394C42.7951 25.7285 42.1349 26.3832 42.1349 27.1961L41.7257 76.1837C41.7148 76.9966 42.3695 77.6568 43.1824 77.6568L80.7238 77.9678C81.5367 77.9787 82.1968 77.324 82.1968 76.5111L82.5951 27.518C82.5951 26.7214 81.9513 26.0613 81.1493 26.0504Z" fill="#F2F2F2"/>
<path fill-rule="evenodd" clip-rule="evenodd" d="M64.3402 20.3598C65.4041 20.9327 66.0206 22.0729 66.0097 23.2732V23.5624C66.0097 23.6715 65.9988 23.7697 65.9933 23.8788L68.3011 23.8952C68.9885 23.9061 69.6269 24.2443 69.9706 24.8445C70.9308 26.5521 69.7142 28.2816 68.1102 28.2653L56.4729 28.178C55.7855 28.167 55.1472 27.8288 54.8035 27.2287C53.8432 25.521 55.0599 23.7915 56.6639 23.8079L58.808 23.8242C58.7971 23.7206 58.7971 23.6169 58.7971 23.5078V23.415C58.8298 20.8181 61.5959 18.8867 64.3402 20.3598Z" fill="#243A5E"/>
<path d="M62.3871 25.1337C63.211 25.1446 63.8766 24.4845 63.8875 23.6606C63.8984 22.8368 63.2382 22.1712 62.4144 22.1603C61.5906 22.1494 60.925 22.8095 60.9141 23.6334C60.9141 24.4572 61.5633 25.1282 62.3871 25.1337Z" fill="#70EBEF"/>
<g opacity="0.15">
<path opacity="0.15" d="M79.3819 44.7034C79.3655 41.168 76.5122 38.3037 72.9823 38.3037C72.9713 38.3037 72.9659 38.3037 72.955 38.3037C72.9277 38.3037 72.9004 38.3092 72.8731 38.3092C72.6495 38.3146 72.4258 38.3255 72.213 38.3528C72.1312 38.3637 72.0548 38.3746 71.9729 38.391C71.8038 38.4183 71.6347 38.451 71.4655 38.4892C71.3837 38.511 71.3073 38.5274 71.2309 38.5492C71.0509 38.5983 70.8763 38.6583 70.7017 38.7238C70.6472 38.7456 70.5926 38.762 70.5381 38.7838C70.3144 38.8766 70.1016 38.9802 69.8943 39.0948C69.8452 39.1221 69.7961 39.1548 69.7415 39.1876C69.5887 39.2803 69.436 39.373 69.2887 39.4767C69.2178 39.5258 69.1523 39.5804 69.0814 39.6295C68.9559 39.7277 68.8358 39.8259 68.7213 39.9295C68.6558 39.9896 68.5903 40.0441 68.5303 40.1041C68.3994 40.2296 68.2739 40.366 68.1593 40.5024C68.1211 40.546 68.0829 40.5842 68.0448 40.6279C67.8974 40.8025 67.7665 40.988 67.641 41.1789C67.6247 41.2007 67.6083 41.2171 67.5974 41.2389L67.5865 41.2662C67.4774 41.4353 67.3737 41.6154 67.2809 41.7954C67.2209 41.9045 67.1664 42.0191 67.1173 42.1337C67.0954 42.1882 67.0736 42.2373 67.0518 42.2919C66.9918 42.4392 66.9372 42.5865 66.8881 42.7393C66.8827 42.7611 66.8718 42.7884 66.8608 42.8102C66.8008 42.9957 66.7572 43.1867 66.7135 43.3776C66.7081 43.4049 66.7026 43.4376 66.6972 43.4649C66.6644 43.6286 66.6426 43.7922 66.6208 43.9559C66.6153 44.005 66.6099 44.0541 66.6044 44.0978C66.5881 44.2942 66.5771 44.4906 66.5771 44.6925C66.5771 44.9216 66.5881 45.1507 66.6153 45.3744C66.6208 45.4072 66.6262 45.4399 66.6317 45.4672C66.6535 45.6636 66.6863 45.86 66.7299 46.0455C66.7354 46.0619 66.7354 46.0728 66.7408 46.0891C67.3791 48.948 69.927 51.0867 72.9768 51.0867C76.5176 51.103 79.3819 48.2387 79.3819 44.7034ZM70.0143 45.0143C70.0034 44.9107 69.9979 44.8125 69.9979 44.7034C69.9979 44.5833 70.0088 44.4688 70.0198 44.3542C70.0252 44.3051 70.0361 44.256 70.0416 44.2069C70.0525 44.1469 70.0634 44.0869 70.0743 44.0323C70.0907 43.9668 70.1071 43.9014 70.1234 43.8413C70.1289 43.8195 70.1398 43.7977 70.1452 43.7759C70.2271 43.5249 70.3416 43.2903 70.4835 43.0721C70.4944 43.0557 70.5053 43.0393 70.5162 43.023C70.729 42.7175 70.9909 42.4501 71.3019 42.2428C71.3073 42.2373 71.3128 42.2373 71.3182 42.2319C71.3946 42.1828 71.471 42.1337 71.5528 42.09C71.5583 42.09 71.5638 42.0846 71.5692 42.0846C71.7056 42.0082 71.8529 41.9482 72.0002 41.8991C72.0384 41.8882 72.0711 41.8718 72.1093 41.8609C72.1693 41.8445 72.2239 41.8282 72.2839 41.8172C72.3439 41.8009 72.4039 41.79 72.4694 41.7791C72.5185 41.7681 72.5676 41.7627 72.6222 41.7572C72.7258 41.7463 72.835 41.7354 72.9441 41.7354C72.955 41.7354 72.9713 41.7354 72.9823 41.7354C74.6245 41.7354 75.9666 43.0666 75.9666 44.7197C75.9666 46.3728 74.6245 47.7041 72.9823 47.7041C71.4437 47.6877 70.1725 46.5092 70.0143 45.0143Z" fill="#1F1D20"/>
</g>
<path opacity="0.15" d="M63.227 37.6895H45.4302V63.5772H63.227V37.6895Z" fill="#1F1D20"/>
<path opacity="0.15" d="M72.9821 38.1377C69.4467 38.1377 66.5879 40.9965 66.5879 44.5374C66.5879 48.0727 69.4467 50.9315 72.9821 50.9315C76.5174 50.9315 79.3817 48.0727 79.3817 44.5374C79.3599 40.9965 76.5065 38.1377 72.9821 38.1377ZM72.9821 47.5162C71.3399 47.5162 69.9978 46.1741 69.9978 44.5319C69.9978 42.8897 71.3399 41.5476 72.9821 41.5476C74.6243 41.5476 75.9664 42.8788 75.9664 44.5319C75.9664 46.185 74.6243 47.5162 72.9821 47.5162Z" fill="#1F1D20"/>
<path d="M72.9821 37.6494C69.4467 37.6494 66.5879 40.5083 66.5879 44.0491C66.5879 47.5844 69.4467 50.4433 72.9821 50.4433C76.5174 50.4433 79.3817 47.5844 79.3817 44.0491C79.3599 40.5083 76.5065 37.6494 72.9821 37.6494ZM72.9821 47.0279C71.3399 47.0279 69.9978 45.6858 69.9978 44.0436C69.9978 42.4014 71.3399 41.0593 72.9821 41.0593C74.6243 41.0593 75.9664 42.3905 75.9664 44.0436C75.9664 45.6967 74.6243 47.0279 72.9821 47.0279Z" fill="url(#paint5_linear_451_51482)"/>
<path d="M72.9711 41.0647L72.9548 37.6494C70.7124 37.6603 68.732 38.8224 67.5972 40.5846L70.4015 42.5433C70.9088 41.6649 71.8745 41.0647 72.9711 41.0647Z" fill="#50E6FF"/>
<path d="M69.9978 44.0488C69.9978 43.5032 70.1396 42.9959 70.3906 42.5594L67.5972 40.5898L67.5918 40.6117C66.9534 41.5992 66.5879 42.7667 66.5879 44.0434C66.5879 44.9818 66.7952 45.8711 67.1608 46.6785L70.276 45.2982C70.096 44.9163 69.9978 44.4962 69.9978 44.0488Z" fill="#3BCAF4"/>
<path d="M63.227 37.1328H45.4302V63.0206H63.227V37.1328V37.1328Z" fill="url(#paint6_linear_451_51482)"/>
<path d="M59.9918 40.374H48.6655V45.2242H59.9918V40.374Z" fill="#D5F9FD"/>
<path d="M50.2805 48.4639H48.6602V50.0842H50.2805V48.4639Z" fill="#84ECFD"/>
<path d="M50.2805 53.3145H48.6602V54.9348H50.2805V53.3145Z" fill="#50E6FF"/>
<path d="M50.2805 58.1689H48.6602V59.7893H50.2805V58.1689Z" fill="#32B0E7"/>
<path d="M55.136 48.4639H53.5156V50.0842H55.136V48.4639Z" fill="#84ECFD"/>
<path d="M55.136 53.3145H53.5156V54.9348H55.136V53.3145Z" fill="#50E6FF"/>
<path d="M55.136 58.1689H53.5156V59.7893H55.136V58.1689Z" fill="#32B0E7"/>
<path d="M59.9915 48.4639H58.3711V50.0842H59.9915V48.4639Z" fill="#84ECFD"/>
<path d="M59.9915 53.3145H58.3711V54.9348H59.9915V53.3145Z" fill="#50E6FF"/>
<path d="M59.9915 58.1689H58.3711V59.7893H59.9915V58.1689Z" fill="#32B0E7"/>
<path opacity="0.15" d="M68.1481 60.8584H66.124V63.5045H68.1481V60.8584Z" fill="#1F1D20"/>
<path opacity="0.15" d="M69.1191 59.1016V63.5044H71.1814V59.1016H71.1705H69.1191Z" fill="#1F1D20"/>
<path opacity="0.15" d="M74.8316 56.248H72.1855V63.4933H74.8316V56.248Z" fill="#1F1D20"/>
<path opacity="0.15" d="M78.9778 53.2861H75.939V63.4939H78.9778V53.2861Z" fill="#1F1D20"/>
<path d="M68.1481 60.373H66.124V63.0191H68.1481V60.373Z" fill="#45CAF2"/>
<path d="M71.1705 58.6152H69.1191V63.0181H71.1814V58.6152H71.1705Z" fill="#50E6FF"/>
<path d="M74.837 55.7617H72.1909V63.007H74.837V55.7617Z" fill="#32B0E7"/>
<path d="M78.9832 52.7998H75.9443V63.0076H78.9832V52.7998V52.7998Z" fill="#185A97"/>
<defs>
<linearGradient id="paint0_linear_451_51482" x1="49.6933" y1="-12.793" x2="53.6753" y2="132.977" gradientUnits="userSpaceOnUse">
<stop stop-color="#00ABDE"/>
<stop offset="1" stop-color="#007ED8"/>
</linearGradient>
<linearGradient id="paint1_linear_451_51482" x1="2.89761" y1="-19.6266" x2="98.4251" y2="121.255" gradientUnits="userSpaceOnUse">
<stop stop-color="#007ED8"/>
<stop offset="0.7065" stop-color="#002D4C"/>
</linearGradient>
<linearGradient id="paint2_linear_451_51482" x1="29.9372" y1="35.434" x2="39.4618" y2="66.7981" gradientUnits="userSpaceOnUse">
<stop stop-color="#007ED8"/>
<stop offset="0.7065" stop-color="#002D4C"/>
</linearGradient>
<linearGradient id="paint3_linear_451_51482" x1="25.446" y1="57.2344" x2="19.4764" y2="51.2026" gradientUnits="userSpaceOnUse">
<stop stop-color="#198AB3"/>
<stop offset="0.11" stop-color="#22A5CB"/>
<stop offset="0.23" stop-color="#29BADE"/>
<stop offset="0.37" stop-color="#2EC9EB"/>
<stop offset="0.53" stop-color="#31D1F3"/>
<stop offset="0.78" stop-color="#32D4F5"/>
</linearGradient>
<linearGradient id="paint4_linear_451_51482" x1="26.3166" y1="61.4609" x2="14.2529" y2="41.9973" gradientUnits="userSpaceOnUse">
<stop stop-color="#198AB3"/>
<stop offset="0.11" stop-color="#22A5CB"/>
<stop offset="0.23" stop-color="#29BADE"/>
<stop offset="0.37" stop-color="#2EC9EB"/>
<stop offset="0.53" stop-color="#31D1F3"/>
<stop offset="0.78" stop-color="#32D4F5"/>
</linearGradient>
<linearGradient id="paint5_linear_451_51482" x1="84.9215" y1="45.9504" x2="52.4223" y2="40.7685" gradientUnits="userSpaceOnUse">
<stop stop-color="#007ED8"/>
<stop offset="0.7065" stop-color="#002D4C"/>
</linearGradient>
<linearGradient id="paint6_linear_451_51482" x1="52.2828" y1="21.0919" x2="66.8899" y2="76.7347" gradientUnits="userSpaceOnUse">
<stop stop-color="#007ED8"/>
<stop offset="0.7065" stop-color="#002D4C"/>
</linearGradient>
</defs>
</svg>
