<svg width="103" height="103" viewBox="0 0 103 103" fill="none" xmlns="http://www.w3.org/2000/svg">
<path d="M51.2753 98.4432C25.4253 98.4432 4.46533 77.4932 4.46533 51.6332C4.46533 25.7732 25.4253 4.82324 51.2753 4.82324C77.1253 4.82324 98.0853 25.7832 98.0853 51.6332C98.0853 77.4832 77.1253 98.4432 51.2753 98.4432Z" fill="url(#paint0_linear_629_1364)"/>
<path fill-rule="evenodd" clip-rule="evenodd" d="M97.1753 51.6332C97.1753 76.9832 76.6253 97.5332 51.2753 97.5332C25.9253 97.5332 5.37525 76.9832 5.37525 51.6332C5.37525 26.2832 25.9253 5.73317 51.2753 5.73317C76.6253 5.73317 97.1753 26.2832 97.1753 51.6332ZM51.2753 1.99316C78.6953 1.99316 100.915 24.2132 100.915 51.6332C100.915 79.0532 78.6853 101.273 51.2753 101.273C23.8553 101.273 1.63525 79.0432 1.63525 51.6332C1.63525 24.2132 23.8553 1.99316 51.2753 1.99316Z" fill="#F2F1F0"/>
<path fill-rule="evenodd" clip-rule="evenodd" d="M94.3653 51.6327C94.3653 75.4327 75.0753 94.7227 51.2753 94.7227C27.4753 94.7227 8.18531 75.4327 8.18531 51.6327C8.18531 27.8327 27.4753 8.54274 51.2753 8.54274C75.0753 8.54274 94.3653 27.8327 94.3653 51.6327ZM51.2753 4.80273C77.1353 4.80273 98.1053 25.7727 98.1053 51.6327C98.1053 77.4927 77.1353 98.4628 51.2753 98.4628C25.4153 98.4628 4.44531 77.4927 4.44531 51.6327C4.44531 25.7727 25.4053 4.80273 51.2753 4.80273Z" fill="url(#paint1_linear_629_1364)"/>
<path opacity="0.15" d="M44.9956 32.6963H17.8033C17.2203 32.6963 16.7417 33.1662 16.7417 33.7579V69.2428C16.7417 69.8258 17.2116 70.3044 17.8033 70.3044H44.9956C45.5786 70.3044 46.0572 69.8345 46.0572 69.2428V33.7579C46.0485 33.1662 45.5786 32.6963 44.9956 32.6963Z" fill="#1F1D20"/>
<path d="M44.9956 31.3818H17.8033C17.2203 31.3818 16.7417 31.8517 16.7417 32.4434V67.9283C16.7417 68.5114 17.2116 68.9899 17.8033 68.9899H44.9956C45.5786 68.9899 46.0572 68.5201 46.0572 67.9283V32.4434C46.0485 31.8517 45.5786 31.3818 44.9956 31.3818Z" fill="white"/>
<path fill-rule="evenodd" clip-rule="evenodd" d="M33.2224 26.4916C34.2405 27.0311 34.8409 28.1188 34.8409 29.2674V29.5546C34.8409 29.659 34.8322 29.7547 34.8322 29.8591H37.0511C37.7037 29.8591 38.3302 30.1898 38.6609 30.7641C39.5919 32.3913 38.4433 34.062 36.9031 34.062H25.7478C25.0951 34.062 24.4686 33.7313 24.138 33.157C23.2069 31.5298 24.3555 29.8591 25.8957 29.8591H27.9492C27.9405 29.7547 27.9405 29.659 27.9405 29.5546V29.4675C27.9405 26.9789 30.5858 25.0994 33.2224 26.4916Z" fill="#015692"/>
<path d="M31.4037 30.285C32.1608 30.285 32.7699 29.6759 32.7699 28.9189C32.7699 28.1618 32.1608 27.5527 31.4037 27.5527C30.6467 27.5527 30.0376 28.1618 30.0376 28.9189C30.0376 29.6759 30.6467 30.285 31.4037 30.285Z" fill="#01A0DD"/>
<path fill-rule="evenodd" clip-rule="evenodd" d="M30.647 49.3972H40.9552V40.252L30.647 41.7078V49.3972Z" fill="#0078D4"/>
<path fill-rule="evenodd" clip-rule="evenodd" d="M30.2416 49.4177V41.7246L22.2549 42.8339V49.4177H30.2416Z" fill="#0078D4"/>
<path fill-rule="evenodd" clip-rule="evenodd" d="M30.2416 49.7188H22.2549V56.3031L30.2416 57.4124V49.7188Z" fill="#0078D4"/>
<path fill-rule="evenodd" clip-rule="evenodd" d="M30.647 49.7188V57.498L40.9552 58.9564V49.7188H30.647Z" fill="#0078D4"/>
<path fill-rule="evenodd" clip-rule="evenodd" d="M43.769 48.9434H54.0147V49.9434H43.769V48.9434Z" fill="white"/>
<path opacity="0.15" d="M85.1929 69.8323C85.7926 69.8323 86.2768 69.3481 86.2768 68.7484V32.9893H48.501V68.7528C48.501 69.3525 48.9852 69.8367 49.5849 69.8367H85.1929V69.8323Z" fill="#1F1D20"/>
<path d="M86.2724 33.3089V32.7225C86.2724 31.9985 85.686 31.4121 84.962 31.4121H49.8114C49.0873 31.4121 48.501 31.9985 48.501 32.7225V33.3711V33.9663V67.6021C48.501 68.3262 49.0873 68.9126 49.8114 68.9126H84.9664C85.6905 68.9126 86.2768 68.3262 86.2768 67.6021V33.3711C86.2813 33.3489 86.2724 33.3311 86.2724 33.3089Z" fill="white"/>
<path d="M54.0137 58.1982H52.6772V59.9448H54.0137V58.1982Z" fill="#45CAF2"/>
<path d="M56.0061 57.0361H54.6504V59.9454H56.0109V57.0361H56.0061Z" fill="#50E6FF"/>
<path d="M58.4282 55.1543H56.6816V59.9404H58.4282V55.1543Z" fill="#32B0E7"/>
<path d="M61.1638 53.1953H59.1567V59.9354H61.1638V53.1953Z" fill="#185A97"/>
<path opacity="0.15" d="M56.9206 40.2607C54.0258 40.2607 51.6875 42.5991 51.6875 45.4939C51.6875 48.3887 54.0258 50.727 56.9206 50.727C59.8154 50.727 62.1538 48.3887 62.1538 45.4939C62.1377 42.6044 59.8101 40.2607 56.9206 40.2607ZM56.9206 47.9339C55.5776 47.9339 54.5235 46.8369 54.4806 45.4939C54.4111 43.3 55.7434 41.8981 57.0865 41.8981C58.4296 41.8981 59.4783 43.3963 59.3606 45.4939C59.2857 46.8423 58.2637 47.9339 56.9206 47.9339Z" fill="#1F1D20"/>
<path d="M56.9313 46.9388C57.98 46.9388 58.8362 46.088 58.8362 45.0338C58.8362 43.9851 57.9747 43.1396 56.9313 43.1396C55.8879 43.1396 55.0264 43.9904 55.0264 45.0446C55.0264 46.0933 55.8772 46.9388 56.9313 46.9388Z" fill="url(#paint2_linear_629_1364)"/>
<path d="M57.8303 44.1191L56.4177 45.5371L55.9896 45.1144L55.7061 45.3926L56.4177 46.1043L58.1193 44.4081L57.8303 44.1191Z" fill="#F2F1F0"/>
<path d="M56.9206 39.8164C54.0258 39.8164 51.6875 42.1547 51.6875 45.0495C51.6875 47.9443 54.0258 50.2827 56.9206 50.2827C59.8154 50.2827 62.1538 47.9443 62.1538 45.0495C62.1377 42.1547 59.8101 39.8164 56.9206 39.8164ZM56.9206 47.4895C55.5776 47.4895 54.4806 46.3926 54.4806 45.0495C54.4806 43.7065 55.5776 42.6096 56.9206 42.6096C58.2637 42.6096 59.3606 43.7011 59.3606 45.0495C59.3606 46.398 58.2637 47.4895 56.9206 47.4895Z" fill="url(#paint3_linear_629_1364)"/>
<path d="M56.9155 42.6096L56.8994 39.8164C55.0641 39.8218 53.4481 40.7742 52.5171 42.2189L54.8126 43.8242C55.23 43.1018 56.0165 42.6096 56.9155 42.6096Z" fill="#50E6FF"/>
<path d="M54.4807 45.0493C54.4807 44.6052 54.5984 44.1879 54.8017 43.8294L52.5169 42.2188L52.5116 42.2402C51.9872 43.0481 51.6929 44.0059 51.6929 45.0493C51.6929 45.8145 51.8641 46.5476 52.1584 47.2057L54.7054 46.0767C54.5609 45.761 54.4807 45.4186 54.4807 45.0493Z" fill="#3BCAF4"/>
<path d="M65.7887 41.2451H80.8935C81.3184 41.2451 81.6621 40.9014 81.6621 40.4766C81.6621 40.0517 81.3184 39.708 80.8935 39.708H65.7887C65.3639 39.708 65.0201 40.0517 65.0201 40.4766C65.0201 40.9014 65.3639 41.2451 65.7887 41.2451Z" fill="#ACF3FD"/>
<path d="M65.7889 44.3233H83.2226C83.6475 44.3233 83.9912 43.9795 83.9912 43.5547C83.9912 43.1299 83.6475 42.7861 83.2226 42.7861H65.7889C65.3641 42.7861 65.0204 43.1299 65.0204 43.5547C65.0204 43.9795 65.3641 44.3233 65.7889 44.3233Z" fill="#50E6FF"/>
<path d="M65.7887 47.4053H80.8935C81.3184 47.4053 81.6621 47.0616 81.6621 46.6367C81.6621 46.2119 81.3184 45.8682 80.8935 45.8682H65.7887C65.3639 45.8682 65.0201 46.2119 65.0201 46.6367C65.0201 47.0616 65.3639 47.4053 65.7887 47.4053Z" fill="#32B0E7"/>
<path d="M65.7891 53.5615H76.5683C76.9932 53.5615 77.3369 53.2178 77.3369 52.793C77.3369 52.3681 76.9932 52.0244 76.5683 52.0244H65.7852C65.3604 52.0244 65.0167 52.3681 65.0167 52.793C65.0205 53.2178 65.3643 53.5615 65.7891 53.5615Z" fill="#176BB2"/>
<path d="M65.789 50.4834H79.8974C80.3223 50.4834 80.666 50.1397 80.666 49.7149C80.666 49.29 80.3223 48.9463 79.8974 48.9463H65.789C65.3642 48.9463 65.0205 49.29 65.0205 49.7149C65.0205 50.1397 65.3642 50.4834 65.789 50.4834Z" fill="#176BB2"/>
<path d="M65.7891 56.6436H78.2329C78.6577 56.6436 79.0015 56.2998 79.0015 55.875C79.0015 55.4502 78.6577 55.1064 78.2329 55.1064H65.7852C65.3604 55.1064 65.0166 55.4502 65.0166 55.875C65.0205 56.2998 65.3642 56.6436 65.7891 56.6436Z" fill="#1C4A79"/>
<path d="M65.789 59.7217H79.8974C80.3223 59.7217 80.666 59.378 80.666 58.9531C80.666 58.5283 80.3223 58.1846 79.8974 58.1846H65.789C65.3642 58.1846 65.0205 58.5283 65.0205 58.9531C65.0205 59.378 65.3642 59.7217 65.789 59.7217Z" fill="#1A2C45"/>
<defs>
<linearGradient id="paint0_linear_629_1364" x1="49.5014" y1="-13.1563" x2="53.4834" y2="132.614" gradientUnits="userSpaceOnUse">
<stop stop-color="#00ABDE"/>
<stop offset="1" stop-color="#007ED8"/>
</linearGradient>
<linearGradient id="paint1_linear_629_1364" x1="2.70571" y1="-19.9899" x2="98.2332" y2="120.892" gradientUnits="userSpaceOnUse">
<stop stop-color="#007ED8"/>
<stop offset="0.7065" stop-color="#002D4C"/>
</linearGradient>
<linearGradient id="paint2_linear_629_1364" x1="66.6906" y1="46.5944" x2="40.1064" y2="42.3557" gradientUnits="userSpaceOnUse">
<stop stop-color="#007ED8"/>
<stop offset="0.7065" stop-color="#002D4C"/>
</linearGradient>
<linearGradient id="paint3_linear_629_1364" x1="66.6891" y1="46.6063" x2="40.1047" y2="42.3676" gradientUnits="userSpaceOnUse">
<stop stop-color="#007ED8"/>
<stop offset="0.7065" stop-color="#002D4C"/>
</linearGradient>
</defs>
</svg>
