<svg width="103" height="103" viewBox="0 0 103 103" fill="none" xmlns="http://www.w3.org/2000/svg">
<path d="M51.4672 97.8192C25.6172 97.8192 4.65723 76.8692 4.65723 51.0092C4.65723 25.1492 25.6172 4.19922 51.4672 4.19922C77.3172 4.19922 98.2772 25.1592 98.2772 51.0092C98.2772 76.8592 77.3172 97.8192 51.4672 97.8192Z" fill="url(#paint0_linear_451_51990)"/>
<path fill-rule="evenodd" clip-rule="evenodd" d="M97.3671 51.0091C97.3671 76.3591 76.8171 96.9091 51.4671 96.9091C26.1171 96.9091 5.56715 76.3591 5.56715 51.0091C5.56715 25.6591 26.1171 5.10915 51.4671 5.10915C76.8171 5.10915 97.3671 25.6591 97.3671 51.0091ZM51.4671 1.36914C78.8871 1.36914 101.107 23.5891 101.107 51.0091C101.107 78.4291 78.8771 100.649 51.4671 100.649C24.0471 100.649 1.82715 78.4191 1.82715 51.0091C1.82715 23.5891 24.0471 1.36914 51.4671 1.36914Z" fill="#F2F1F0"/>
<path fill-rule="evenodd" clip-rule="evenodd" d="M94.5572 51.0087C94.5572 74.8087 75.2672 94.0987 51.4672 94.0987C27.6672 94.0987 8.37721 74.8087 8.37721 51.0087C8.37721 27.2087 27.6672 7.91872 51.4672 7.91872C75.2672 7.91872 94.5572 27.2087 94.5572 51.0087ZM51.4672 4.17871C77.3272 4.17871 98.2972 25.1487 98.2972 51.0087C98.2972 76.8687 77.3272 97.8387 51.4672 97.8387C25.6072 97.8387 4.63721 76.8687 4.63721 51.0087C4.63721 25.1487 25.5972 4.17871 51.4672 4.17871Z" fill="url(#paint1_linear_451_51990)"/>
<path opacity="0.15" d="M73.6668 69.4348V33.5148C73.6668 32.0448 72.4968 30.8848 71.0368 30.8848H21.6468C20.2768 30.8848 19.1768 32.0048 19.1768 33.3548V69.5748C19.1768 70.9448 20.2968 72.0448 21.6468 72.0448L71.0368 72.0648C72.5068 72.0648 73.6668 70.9048 73.6668 69.4348Z" fill="#1F1D20"/>
<path d="M73.6668 67.2043V31.2843C73.6668 29.8143 72.4968 28.6543 71.0368 28.6543H21.6468C20.2768 28.6543 19.1768 29.7743 19.1768 31.1243V67.3443C19.1768 68.7143 20.2968 69.8143 21.6468 69.8143L71.0368 69.8343C72.5068 69.8343 73.6668 68.6643 73.6668 67.2043Z" fill="white"/>
<path d="M59.7443 36.4512H47.3671C46.5023 36.4512 45.8013 37.1522 45.8013 38.017V60.9823C45.8013 61.847 46.5023 62.5481 47.3671 62.5481H59.7443C60.6091 62.5481 61.3101 61.847 61.3101 60.9823V38.017C61.3101 37.1522 60.6091 36.4512 59.7443 36.4512Z" fill="url(#paint2_linear_451_51990)"/>
<path d="M59.261 44.7188H56.1294V48.3723H59.261V44.7188Z" fill="#8FE9FC"/>
<path d="M50.91 50.458H47.7783V54.1116H50.91V50.458Z" fill="#32D4F5"/>
<path d="M50.9456 38.9766H47.814V42.6301H50.9456V38.9766Z" fill="#EBFCFF"/>
<path d="M55.1233 38.9766H51.9917V42.6301H55.1233V38.9766Z" fill="#EBFCFF"/>
<path d="M59.3001 38.9766H56.1685V42.6301H59.3001V38.9766Z" fill="#EBFCFF"/>
<path d="M50.9456 44.7188H47.814V48.3723H50.9456V44.7188Z" fill="#8FE9FC"/>
<path d="M55.1233 44.7188H51.9917V48.3723H55.1233V44.7188Z" fill="#8FE9FC"/>
<path d="M55.1233 50.458H51.9917V54.1116H55.1233V50.458Z" fill="#32D4F5"/>
<path d="M59.261 50.458H56.1294V54.1116H59.261V50.458Z" fill="#32D4F5"/>
<path d="M43.0887 55.2628C42.7673 55.263 42.4529 55.3569 42.1841 55.5331C41.9153 55.7092 41.7036 55.9599 41.5751 56.2545H31.8503C31.0613 56.2545 30.3046 55.9411 29.7467 55.3831C29.1887 54.8252 28.8753 54.0685 28.8753 53.2795C28.8753 52.4904 29.1887 51.7337 29.7467 51.1758C30.3046 50.6178 31.0613 50.3044 31.8503 50.3044H33.2283C33.285 49.9656 33.3859 49.6357 33.5284 49.3232C33.5806 49.2062 33.6395 49.0919 33.7037 48.9813C34.0326 48.4111 34.4982 47.9319 35.0587 47.5868C35.6191 47.2416 36.2566 47.0415 36.9138 47.0045C37.5709 46.9674 38.2269 47.0947 38.8226 47.3746C39.4182 47.6546 39.9348 48.0785 40.3256 48.6081C40.7418 48.4158 41.177 48.2676 41.6242 48.166C41.1081 47.3382 40.3732 46.6693 39.5006 46.2333C38.6279 45.7973 37.6517 45.6112 36.6799 45.6956C35.7081 45.78 34.7786 46.1316 33.9942 46.7115C33.2098 47.2914 32.6012 48.0769 32.2355 48.9813L32.2287 48.999L32.2355 48.9813H31.8503C30.7107 48.9813 29.6177 49.434 28.8118 50.2399C28.006 51.0457 27.5532 52.1387 27.5532 53.2784C27.5532 54.4181 28.006 55.5111 28.8118 56.3169C29.6177 57.1228 30.7107 57.5755 31.8503 57.5755H41.5746C41.6938 57.8486 41.8846 58.0843 42.1269 58.2577C42.3691 58.4312 42.6537 58.536 42.9506 58.5609C43.2475 58.5858 43.5456 58.53 43.8134 58.3994C44.0812 58.2688 44.3087 58.0682 44.4718 57.8189C44.6349 57.5695 44.7276 57.2807 44.74 56.9831C44.7524 56.6854 44.6841 56.3899 44.5423 56.1279C44.4005 55.8658 44.1905 55.647 43.9345 55.4945C43.6786 55.3421 43.3861 55.2616 43.0882 55.2618L43.0887 55.2628Z" fill="url(#paint3_linear_451_51990)"/>
<path d="M48.4212 51.9713C47.8747 50.8695 47.0002 49.9642 45.9181 49.3797C44.836 48.7953 43.5994 48.5606 42.3784 48.7078C41.1574 48.8551 40.012 49.3771 39.0998 50.202C38.1876 51.0269 37.5535 52.1141 37.2846 53.3142C36.62 53.3788 35.9774 53.5864 35.4007 53.9229C34.8241 54.2594 34.3272 54.7168 33.9442 55.2637H41.0284C41.3709 54.8359 41.8377 54.5251 42.3644 54.3741C42.8912 54.2231 43.4518 54.2395 43.9688 54.421C44.4859 54.6024 44.9338 54.94 45.2507 55.387C45.5675 55.834 45.7377 56.3685 45.7377 56.9164C45.7377 57.4643 45.5675 57.9988 45.2507 58.4458C44.9338 58.8928 44.4859 59.2304 43.9688 59.4118C43.4518 59.5933 42.8912 59.6097 42.3644 59.4587C41.8377 59.3077 41.3709 58.9969 41.0284 58.5691H33.1519C33.3083 59.6728 33.8578 60.6829 34.6994 61.4138C35.5411 62.1447 36.6182 62.5472 37.7329 62.5473H48.3805C49.7746 62.5401 51.1095 61.9827 52.0948 60.9962C53.08 60.0098 53.6359 58.6742 53.6414 57.28C53.6469 55.8858 53.1016 54.5459 52.1242 53.5517C51.1468 52.5575 49.8163 51.9895 48.4222 51.9713H48.4212Z" fill="url(#paint4_linear_451_51990)"/>
<path opacity="0.15" d="M83.6088 32.6006H74.7211C74.1793 32.6006 73.7407 33.0392 73.7407 33.5809V39.0245C73.7407 39.5663 74.1793 40.0048 74.7211 40.0048H83.6174C84.1591 40.0134 84.5977 39.5706 84.5977 39.0245V33.5852C84.5977 33.0306 84.1591 32.6006 83.6088 32.6006Z" fill="#1F1D20"/>
<path opacity="0.15" d="M83.6088 50.7119H74.7211C74.1793 50.7119 73.7407 51.1505 73.7407 51.6923V57.1401C73.7407 57.6819 74.1793 58.1205 74.7211 58.1205H83.6174C84.1591 58.1205 84.5977 57.6819 84.5977 57.1401V51.7095C84.5977 51.1548 84.1591 50.7119 83.6088 50.7119Z" fill="#1F1D20"/>
<path opacity="0.15" d="M83.6088 41.6387H74.7211C74.1793 41.6387 73.7407 42.0773 73.7407 42.619V48.0626C73.7407 48.6044 74.1793 49.0429 74.7211 49.0429H83.6174C84.1591 49.0515 84.5977 48.6087 84.5977 48.0626V42.619C84.5977 42.0773 84.1591 41.6387 83.6088 41.6387Z" fill="#1F1D20"/>
<path opacity="0.15" d="M83.6088 59.749H74.7211C74.1793 59.749 73.7407 60.1876 73.7407 60.7294V66.1772C73.7407 66.719 74.1793 67.1576 74.7211 67.1576H83.6174C84.1591 67.1576 84.5977 66.719 84.5977 66.1772V60.738C84.5977 60.1962 84.1591 59.749 83.6088 59.749Z" fill="#1F1D20"/>
<path fill-rule="evenodd" clip-rule="evenodd" d="M71.1567 53.2764H83.4628V54.2764H71.1567V53.2764Z" fill="#78787D"/>
<path fill-rule="evenodd" clip-rule="evenodd" d="M71.1567 44.3379H83.4628V45.3379H71.1567V44.3379Z" fill="#78787D"/>
<path fill-rule="evenodd" clip-rule="evenodd" d="M70.6567 35.8857C70.6567 35.6096 70.8806 35.3857 71.1567 35.3857H83.4628V36.3857H71.6567V62.2079H83.4628V63.2079H71.1567C70.8806 63.2079 70.6567 62.9841 70.6567 62.7079V35.8857Z" fill="#78787D"/>
<path d="M83.6088 31.9512H74.7211C74.1793 31.9512 73.7407 32.3898 73.7407 32.9315V38.3751C73.7407 38.9169 74.1793 39.3554 74.7211 39.3554H83.6174C84.1591 39.364 84.5977 38.9212 84.5977 38.3751V32.9358C84.5977 32.3898 84.1591 31.9512 83.6088 31.9512Z" fill="url(#paint5_linear_451_51990)"/>
<path d="M83.6088 50.0625H74.7211C74.1793 50.0625 73.7407 50.5011 73.7407 51.0429V56.4907C73.7407 57.0325 74.1793 57.4711 74.7211 57.4711H83.6174C84.1591 57.4711 84.5977 57.0325 84.5977 56.4907V51.0558C84.5977 50.5054 84.1591 50.0625 83.6088 50.0625Z" fill="url(#paint6_linear_451_51990)"/>
<path d="M83.6088 40.998H74.7211C74.1793 40.998 73.7407 41.4366 73.7407 41.9784V47.422C73.7407 47.9637 74.1793 48.4023 74.7211 48.4023H83.6174C84.1591 48.4109 84.5977 47.968 84.5977 47.422V41.9784C84.5977 41.4366 84.1591 40.998 83.6088 40.998Z" fill="url(#paint7_linear_451_51990)"/>
<path d="M83.6088 59.1094H74.7211C74.1793 59.1094 73.7407 59.548 73.7407 60.0897V65.5376C73.7407 66.0794 74.1793 66.5179 74.7211 66.5179H83.6174C84.1591 66.5179 84.5977 66.0794 84.5977 65.5376V60.094C84.5977 59.5566 84.1591 59.1094 83.6088 59.1094Z" fill="url(#paint8_linear_451_51990)"/>
<path opacity="0.15" d="M70.8591 74.7913C75.8507 74.7913 79.8944 70.7477 79.8944 65.756C79.8944 60.7644 75.8507 56.7207 70.8591 56.7207C65.8674 56.7207 61.8237 60.7644 61.8237 65.756C61.8357 70.7477 65.8794 74.7913 70.8591 74.7913Z" fill="#1F1D20"/>
<path d="M70.8591 73.7718C75.8507 73.7718 79.8944 69.7281 79.8944 64.7365C79.8944 59.7449 75.8507 55.7012 70.8591 55.7012C65.8674 55.7012 61.8237 59.7449 61.8237 64.7365C61.8357 69.7281 65.8794 73.7718 70.8591 73.7718Z" fill="url(#paint9_linear_451_51990)"/>
<path d="M71.1622 58.565L74.4462 62.8836C74.6442 63.1356 74.4642 63.5044 74.1403 63.5044L72.6288 63.5044L72.6288 70.7832L69.0839 70.7832L69.0839 63.5044L67.5724 63.5044C67.2574 63.5044 67.0775 63.1446 67.2664 62.8926L70.5504 58.574C70.7034 58.367 71.0093 58.367 71.1622 58.565Z" fill="white"/>
<defs>
<linearGradient id="paint0_linear_451_51990" x1="49.6933" y1="-13.7803" x2="53.6753" y2="131.99" gradientUnits="userSpaceOnUse">
<stop stop-color="#00ABDE"/>
<stop offset="1" stop-color="#007ED8"/>
</linearGradient>
<linearGradient id="paint1_linear_451_51990" x1="2.89761" y1="-20.6139" x2="98.4251" y2="120.268" gradientUnits="userSpaceOnUse">
<stop stop-color="#007ED8"/>
<stop offset="0.7065" stop-color="#002D4C"/>
</linearGradient>
<linearGradient id="paint2_linear_451_51990" x1="51.7729" y1="20.2807" x2="68.4434" y2="75.1762" gradientUnits="userSpaceOnUse">
<stop stop-color="#007ED8"/>
<stop offset="0.7065" stop-color="#002D4C"/>
</linearGradient>
<linearGradient id="paint3_linear_451_51990" x1="43.912" y1="58.4354" x2="33.4635" y2="47.8781" gradientUnits="userSpaceOnUse">
<stop stop-color="#198AB3"/>
<stop offset="0.11" stop-color="#22A5CB"/>
<stop offset="0.23" stop-color="#29BADE"/>
<stop offset="0.37" stop-color="#2EC9EB"/>
<stop offset="0.53" stop-color="#31D1F3"/>
<stop offset="0.78" stop-color="#32D4F5"/>
</linearGradient>
<linearGradient id="paint4_linear_451_51990" x1="45.4357" y1="65.836" x2="24.3211" y2="31.7696" gradientUnits="userSpaceOnUse">
<stop stop-color="#198AB3"/>
<stop offset="0.11" stop-color="#22A5CB"/>
<stop offset="0.23" stop-color="#29BADE"/>
<stop offset="0.37" stop-color="#2EC9EB"/>
<stop offset="0.53" stop-color="#31D1F3"/>
<stop offset="0.78" stop-color="#32D4F5"/>
</linearGradient>
<linearGradient id="paint5_linear_451_51990" x1="75.0559" y1="24.7029" x2="94.808" y2="77.269" gradientUnits="userSpaceOnUse">
<stop stop-color="#007ED8"/>
<stop offset="0.7065" stop-color="#002D4C"/>
</linearGradient>
<linearGradient id="paint6_linear_451_51990" x1="69.0899" y1="26.9453" x2="88.842" y2="79.5114" gradientUnits="userSpaceOnUse">
<stop stop-color="#007ED8"/>
<stop offset="0.7065" stop-color="#002D4C"/>
</linearGradient>
<linearGradient id="paint7_linear_451_51990" x1="72.0779" y1="25.822" x2="91.83" y2="78.3881" gradientUnits="userSpaceOnUse">
<stop stop-color="#007ED8"/>
<stop offset="0.7065" stop-color="#002D4C"/>
</linearGradient>
<linearGradient id="paint8_linear_451_51990" x1="66.1113" y1="28.0646" x2="85.8634" y2="80.6307" gradientUnits="userSpaceOnUse">
<stop stop-color="#007ED8"/>
<stop offset="0.7065" stop-color="#002D4C"/>
</linearGradient>
<linearGradient id="paint9_linear_451_51990" x1="70.8591" y1="73.7718" x2="70.8591" y2="55.6688" gradientUnits="userSpaceOnUse">
<stop stop-color="#003067"/>
<stop offset="0.2" stop-color="#003F7C"/>
<stop offset="0.47" stop-color="#004F90"/>
<stop offset="0.74" stop-color="#00589D"/>
<stop offset="1" stop-color="#005BA1"/>
</linearGradient>
</defs>
</svg>
