<svg width="103" height="103" viewBox="0 0 103 103" fill="none" xmlns="http://www.w3.org/2000/svg">
<path d="M51.6386 97.9423C25.7886 97.9423 4.82861 76.9923 4.82861 51.1323C4.82861 25.2723 25.7886 4.32227 51.6386 4.32227C77.4886 4.32227 98.4486 25.2823 98.4486 51.1323C98.4486 76.9823 77.4886 97.9423 51.6386 97.9423Z" fill="url(#paint0_linear_629_61)"/>
<path fill-rule="evenodd" clip-rule="evenodd" d="M97.5385 51.1322C97.5385 76.4822 76.9885 97.0322 51.6385 97.0322C26.2885 97.0322 5.73853 76.4822 5.73853 51.1322C5.73853 25.7822 26.2885 5.23219 51.6385 5.23219C76.9885 5.23219 97.5385 25.7822 97.5385 51.1322ZM51.6385 1.49219C79.0585 1.49219 101.279 23.7122 101.279 51.1322C101.279 78.5522 79.0485 100.772 51.6385 100.772C24.2185 100.772 1.99854 78.5422 1.99854 51.1322C1.99854 23.7122 24.2185 1.49219 51.6385 1.49219Z" fill="#F2F1F0"/>
<path fill-rule="evenodd" clip-rule="evenodd" d="M94.7286 51.1322C94.7286 74.9323 75.4386 94.2222 51.6386 94.2222C27.8386 94.2222 8.54859 74.9323 8.54859 51.1322C8.54859 27.3322 27.8386 8.04225 51.6386 8.04225C75.4386 8.04225 94.7286 27.3322 94.7286 51.1322ZM51.6386 4.30225C77.4986 4.30225 98.4686 25.2722 98.4686 51.1322C98.4686 76.9922 77.4986 97.9623 51.6386 97.9623C25.7786 97.9623 4.80859 76.9922 4.80859 51.1322C4.80859 25.2722 25.7686 4.30225 51.6386 4.30225Z" fill="url(#paint1_linear_629_61)"/>
<path opacity="0.15" d="M58.2809 29.8453L22.9874 29.5553C22.2219 29.5472 21.6015 30.1596 21.6015 30.9251L21.2227 76.984C21.2147 77.7495 21.8271 78.3699 22.5926 78.3699L57.8861 78.66C58.6516 78.6681 59.2721 78.0557 59.2721 77.2902L59.6508 31.2313C59.6427 30.4739 59.0303 29.8534 58.2809 29.8453Z" fill="#1F1D20"/>
<path d="M58.289 28.3868L22.9955 28.0968C22.23 28.0887 21.6095 28.7011 21.6095 29.4666L21.2227 75.5174C21.2147 76.2829 21.8271 76.9034 22.5926 76.9034L57.8861 77.1934C58.6516 77.2015 59.2721 76.5891 59.2721 75.8236L59.6508 29.7647C59.6508 29.0154 59.0464 28.3949 58.289 28.3868Z" fill="#F2F2F2"/>
<path opacity="0.15" d="M55.8317 29.9663H25.0425V72.8423H55.8317V29.9663Z" fill="#1F1D20"/>
<path d="M55.8317 29.4746H25.0425V72.3506H55.8317V29.4746Z" fill="white"/>
<path fill-rule="evenodd" clip-rule="evenodd" d="M42.2782 23.0362C43.2774 23.5761 43.8575 24.6478 43.8495 25.7759V26.0498C43.8495 26.1546 43.8414 26.2432 43.8334 26.348L46.0009 26.3641C46.6456 26.3722 47.2499 26.6945 47.5722 27.2585C48.4747 28.862 47.3305 30.4897 45.8237 30.4736L34.8811 30.393C34.2364 30.385 33.6321 30.0627 33.3098 29.4986C32.4073 27.8951 33.5515 26.2674 35.0583 26.2835L37.0728 26.2996C37.0647 26.2029 37.0647 26.1062 37.0647 26.0015V25.9129C37.097 23.4633 39.6997 21.6502 42.2782 23.0362Z" fill="#243A5E"/>
<path d="M40.425 27.5247C41.1986 27.5327 41.8271 26.9123 41.8351 26.1387C41.8432 25.3652 41.2227 24.7367 40.4492 24.7286C39.6756 24.7205 39.0471 25.341 39.0391 26.1145C39.0391 26.8881 39.6515 27.5166 40.425 27.5247Z" fill="#F2F2F2"/>
<path opacity="0.15" d="M54.9509 66.9823C55.4402 66.9823 55.8347 66.5878 55.8347 66.0985V36.9414H25.0352V66.1023C25.0352 66.5916 25.4296 66.9861 25.9189 66.9861H54.9509V66.9823Z" fill="#1F1D20"/>
<path d="M55.8309 36.6833V36.2054C55.8309 35.6137 55.3529 35.1357 54.7612 35.1357H26.1048C25.5131 35.1357 25.0352 35.6137 25.0352 36.2054V36.7364V37.2219V64.6456C25.0352 65.2373 25.5131 65.7152 26.1048 65.7152H54.7688C55.3605 65.7152 55.8384 65.2373 55.8384 64.6456V36.7364C55.8384 36.7174 55.8309 36.7023 55.8309 36.6833Z" fill="white"/>
<path fill-rule="evenodd" clip-rule="evenodd" d="M39.4224 50.0965H50.3372V40.4131L39.4224 41.9546V50.0965Z" fill="#0078D4"/>
<path fill-rule="evenodd" clip-rule="evenodd" d="M38.9934 50.118V41.9722L30.5366 43.1467V50.118H38.9934Z" fill="#0078D4"/>
<path fill-rule="evenodd" clip-rule="evenodd" d="M38.9934 50.4375H30.5366V57.4094L38.9934 58.5839V50.4375Z" fill="#0078D4"/>
<path fill-rule="evenodd" clip-rule="evenodd" d="M39.4224 50.4375V58.6745L50.3372 60.2188V50.4375H39.4224Z" fill="#0078D4"/>
<path opacity="0.15" d="M58.1643 80.3202C61.5163 80.3202 64.2319 77.6047 64.2319 74.2526C64.2319 70.9006 61.5163 68.1851 58.1643 68.1851C54.8122 68.1851 52.0967 70.9006 52.0967 74.2526C52.1047 77.6047 54.8202 80.3202 58.1643 80.3202Z" fill="#1F1D20"/>
<path d="M58.1643 79.6352C61.5163 79.6352 64.2319 76.9197 64.2319 73.5676C64.2319 70.2155 61.5163 67.5 58.1643 67.5C54.8122 67.5 52.0967 70.2155 52.0967 73.5676C52.1047 76.9197 54.8202 79.6352 58.1643 79.6352Z" fill="#002D4C"/>
<path opacity="0.3" d="M61.468 70.9165L56.4721 75.9366L54.9733 74.4297L53.9741 75.437L56.4721 77.943L62.4752 71.9237L61.468 70.9165Z" fill="#1F1D20"/>
<path d="M61.468 70.4893L56.4721 75.5093L54.9733 74.0025L53.9741 75.0097L56.4721 77.5157L62.4752 71.4965L61.468 70.4893Z" fill="#FAF9F8"/>
<path opacity="0.15" d="M81.6406 26.9776H69.3914C69.0332 26.9793 68.6904 27.1225 68.4372 27.3757C68.1839 27.629 68.0408 27.9724 68.0391 28.3306V35.8366C68.0408 36.1947 68.1839 36.5375 68.4372 36.7908C68.6904 37.044 69.0332 37.1872 69.3914 37.1889H81.6539C81.8314 37.1898 82.0073 37.1555 82.1714 37.0878C82.3356 37.02 82.4848 36.9204 82.61 36.7946C82.7352 36.6687 82.8337 36.5192 82.9007 36.3547C82.9676 36.1903 83.0016 36.0141 82.9999 35.8366V28.3432C83.0025 28.1637 82.9692 27.9857 82.902 27.8193C82.8347 27.6529 82.7347 27.5017 82.6081 27.3745C82.4815 27.2472 82.3306 27.1462 82.1645 27.0781C81.9984 27.01 81.8201 26.9759 81.6406 26.9776Z" fill="#1F1D20"/>
<path opacity="0.15" d="M81.6406 51.9424H69.3914C69.0332 51.9441 68.6904 52.0872 68.4372 52.3405C68.1839 52.5938 68.0408 52.9372 68.0391 53.2953V60.8077C68.0408 61.1658 68.1839 61.5092 68.4372 61.7625C68.6904 62.0158 69.0332 62.1583 69.3914 62.16H81.6539C82.0115 62.1583 82.3533 62.0153 82.6056 61.7619C82.8578 61.5084 82.9999 61.1652 82.9999 60.8077V53.308C83.0008 53.129 82.9661 52.9516 82.8982 52.786C82.8303 52.6204 82.73 52.4699 82.6037 52.343C82.4774 52.2162 82.3279 52.1153 82.1626 52.0467C81.9973 51.978 81.8196 51.9424 81.6406 51.9424Z" fill="#1F1D20"/>
<path opacity="0.15" d="M81.6406 39.4346H69.3914C69.0332 39.4363 68.6904 39.5794 68.4372 39.8327C68.1839 40.086 68.0408 40.4294 68.0391 40.7875V48.2872C68.0408 48.6454 68.1839 48.9882 68.4372 49.2414C68.6904 49.4947 69.0332 49.6378 69.3914 49.6396H81.6539C81.8317 49.6413 82.0076 49.6071 82.1721 49.5397C82.3366 49.4723 82.4865 49.3731 82.6119 49.2471C82.7373 49.1211 82.8359 48.9709 82.9026 48.806C82.9692 48.6412 83.0025 48.465 82.9999 48.2872V40.7875C82.9999 40.6094 82.9646 40.4326 82.8963 40.2681C82.8279 40.1036 82.7274 39.9546 82.6012 39.8289C82.4749 39.7032 82.3249 39.6033 82.1601 39.5357C81.9952 39.4681 81.8188 39.4337 81.6406 39.4346Z" fill="#1F1D20"/>
<path opacity="0.15" d="M81.6406 64.4058H69.3914C69.0338 64.4058 68.6906 64.5472 68.4372 64.7995C68.1837 65.0517 68.0408 65.3942 68.0391 65.7518V73.2641C68.0408 73.6223 68.1839 73.9657 68.4372 74.2189C68.6904 74.4722 69.0332 74.6147 69.3914 74.6164H81.6539C82.0115 74.6147 82.3533 74.4717 82.6056 74.2183C82.8578 73.9649 82.9999 73.6217 82.9999 73.2641V65.7644C82.9999 65.404 82.8566 65.0581 82.6018 64.8032C82.3469 64.5484 82.001 64.4058 81.6406 64.4058Z" fill="#1F1D20"/>
<path fill-rule="evenodd" clip-rule="evenodd" d="M63.5542 55.668H74.9371V56.668H63.5542V55.668Z" fill="white"/>
<path fill-rule="evenodd" clip-rule="evenodd" d="M63.5542 43.3477H74.9371V44.3477H63.5542V43.3477Z" fill="white"/>
<path fill-rule="evenodd" clip-rule="evenodd" d="M63.0542 31.5073C63.0542 31.2312 63.2781 31.0073 63.5542 31.0073H74.9371V32.0073H64.0542V67.9762H74.9371V68.9762H63.5542C63.2781 68.9762 63.0542 68.7524 63.0542 68.4762V31.5073Z" fill="white"/>
<path d="M81.6406 26.085H69.3914C69.0332 26.0867 68.6904 26.2298 68.4372 26.4831C68.1839 26.7364 68.0408 27.0791 68.0391 27.4373V34.9376C68.0408 35.2958 68.1839 35.6386 68.4372 35.8918C68.6904 36.1451 69.0332 36.2882 69.3914 36.2899H81.6539C81.8314 36.2908 82.0073 36.2559 82.1714 36.1882C82.3356 36.1205 82.4848 36.0208 82.61 35.895C82.7352 35.7691 82.8337 35.6196 82.9007 35.4552C82.9676 35.2907 83.0016 35.1152 82.9999 34.9376V27.4247C82.9965 27.0671 82.8514 26.7253 82.5967 26.4742C82.3421 26.2232 81.9982 26.0832 81.6406 26.085Z" fill="#96D8EC"/>
<path d="M81.6406 51.0498H69.3914C69.0332 51.0515 68.6904 51.1947 68.4372 51.4479C68.1839 51.7012 68.0408 52.044 68.0391 52.4021V59.9151C68.0408 60.2726 68.1837 60.6152 68.4372 60.8674C68.6906 61.1196 69.0338 61.2611 69.3914 61.2611H81.6539C82.0109 61.2611 82.3532 61.1192 82.6056 60.8668C82.858 60.6144 82.9999 60.2721 82.9999 59.9151V52.4217C83.0016 52.2422 82.9676 52.0642 82.9001 51.8978C82.8325 51.7315 82.7326 51.5799 82.6062 51.4523C82.4799 51.3248 82.3296 51.2238 82.1639 51.1547C81.9981 51.0856 81.8202 51.0498 81.6406 51.0498Z" fill="#4BC8EF"/>
<path d="M81.6406 38.5547H69.3914C69.0338 38.5547 68.6906 38.6962 68.4372 38.9484C68.1837 39.2007 68.0408 39.5432 68.0391 39.9008V47.4068C68.0408 47.7643 68.1837 48.1068 68.4372 48.3591C68.6906 48.6113 69.0338 48.7528 69.3914 48.7528H81.6539C81.8311 48.7545 82.0067 48.7206 82.1708 48.6536C82.3349 48.5865 82.484 48.4876 82.6094 48.3622C82.7347 48.2369 82.8337 48.0878 82.9007 47.9237C82.9677 47.7596 83.0016 47.584 82.9999 47.4068V39.9008C82.9999 39.7229 82.9647 39.5467 82.8963 39.3826C82.8278 39.2184 82.7275 39.0692 82.6012 38.944C82.4748 38.8189 82.3249 38.7202 82.1601 38.6533C81.9953 38.5865 81.8185 38.553 81.6406 38.5547Z" fill="#74CFEB"/>
<path d="M81.6406 63.5195H69.3914C69.0332 63.5212 68.6904 63.6644 68.4372 63.9176C68.1839 64.1709 68.0408 64.5137 68.0391 64.8719V72.3779C68.0391 72.7365 68.1817 73.081 68.4353 73.3346C68.6889 73.5882 69.0327 73.7302 69.3914 73.7302H81.6539C81.8312 73.7302 82.0065 73.6952 82.1702 73.6272C82.3339 73.5591 82.4824 73.4596 82.6075 73.334C82.7325 73.2083 82.8315 73.0595 82.8988 72.8954C82.9661 72.7314 83.0008 72.5552 82.9999 72.3779V64.8782C82.9999 64.5178 82.8566 64.1725 82.6018 63.9176C82.3469 63.6628 82.001 63.5195 81.6406 63.5195Z" fill="#35AFE4"/>
<path fill-rule="evenodd" clip-rule="evenodd" d="M50.8457 49.8574H63.6062V50.8574H50.8457V49.8574Z" fill="white"/>
<defs>
<linearGradient id="paint0_linear_629_61" x1="49.8647" y1="-13.6572" x2="53.8467" y2="132.113" gradientUnits="userSpaceOnUse">
<stop stop-color="#00ABDE"/>
<stop offset="1" stop-color="#007ED8"/>
</linearGradient>
<linearGradient id="paint1_linear_629_61" x1="3.06899" y1="-20.4904" x2="98.5965" y2="120.391" gradientUnits="userSpaceOnUse">
<stop stop-color="#007ED8"/>
<stop offset="0.7065" stop-color="#002D4C"/>
</linearGradient>
</defs>
</svg>
