<svg width="103" height="103" viewBox="0 0 103 103" fill="none" xmlns="http://www.w3.org/2000/svg">
<path d="M51.1826 98.0536C25.3326 98.0536 4.37256 77.1036 4.37256 51.2436C4.37256 25.3836 25.3326 4.43359 51.1826 4.43359C77.0326 4.43359 97.9926 25.3936 97.9926 51.2436C97.9926 77.0936 77.0326 98.0536 51.1826 98.0536Z" fill="url(#paint0_linear_304_20014)"/>
<path fill-rule="evenodd" clip-rule="evenodd" d="M97.0825 51.2435C97.0825 76.5935 76.5325 97.1435 51.1825 97.1435C25.8325 97.1435 5.28254 76.5935 5.28254 51.2435C5.28254 25.8935 25.8325 5.34352 51.1825 5.34352C76.5325 5.34352 97.0825 25.8935 97.0825 51.2435ZM51.1825 1.60352C78.6025 1.60352 100.823 23.8235 100.823 51.2435C100.823 78.6635 78.5925 100.884 51.1825 100.884C23.7625 100.884 1.54254 78.6535 1.54254 51.2435C1.54254 23.8235 23.7625 1.60352 51.1825 1.60352Z" fill="#F2F1F0"/>
<path fill-rule="evenodd" clip-rule="evenodd" d="M94.2725 51.2441C94.2725 75.0441 74.9825 94.3341 51.1825 94.3341C27.3825 94.3341 8.09254 75.0441 8.09254 51.2441C8.09254 27.4441 27.3825 8.15407 51.1825 8.15407C74.9825 8.15407 94.2725 27.4441 94.2725 51.2441ZM51.1825 4.41406C77.0425 4.41406 98.0125 25.3841 98.0125 51.2441C98.0125 77.1041 77.0425 98.0741 51.1825 98.0741C25.3225 98.0741 4.35254 77.1041 4.35254 51.2441C4.35254 25.3841 25.3125 4.41406 51.1825 4.41406Z" fill="url(#paint1_linear_304_20014)"/>
<path opacity="0.15" d="M73.3276 22.5828L29.5276 22.2228C28.5776 22.2128 27.8076 22.9728 27.8076 23.9228L27.3376 81.0828C27.3276 82.0328 28.0876 82.8027 29.0376 82.8027L72.8376 83.1628C73.7876 83.1728 74.5576 82.4128 74.5576 81.4628L75.0276 24.3028C75.0176 23.3628 74.2576 22.5928 73.3276 22.5828Z" fill="#1F1D20"/>
<path d="M73.3376 20.7722L29.5376 20.4122C28.5876 20.4022 27.8176 21.1622 27.8176 22.1122L27.3376 79.2622C27.3276 80.2122 28.0876 80.9822 29.0376 80.9822L72.8376 81.3422C73.7876 81.3522 74.5576 80.5922 74.5576 79.6422L75.0276 22.4822C75.0276 21.5522 74.2776 20.7822 73.3376 20.7722Z" fill="#F2F2F2"/>
<path opacity="0.15" d="M70.2878 22.7324H32.0778V75.9424H70.2878V22.7324Z" fill="#1F1D20"/>
<path d="M70.2878 22.1211H32.0778V75.3311H70.2878V22.1211Z" fill="white"/>
<path fill-rule="evenodd" clip-rule="evenodd" d="M53.4676 14.1315C54.7076 14.8015 55.4276 16.1315 55.4176 17.5315V17.8715C55.4176 18.0015 55.4076 18.1115 55.3976 18.2415L58.0876 18.2615C58.8876 18.2715 59.6376 18.6715 60.0376 19.3715C61.1576 21.3615 59.7376 23.3815 57.8676 23.3615L44.2876 23.2615C43.4876 23.2515 42.7376 22.8515 42.3376 22.1515C41.2176 20.1615 42.6376 18.1415 44.5076 18.1615L47.0076 18.1815C46.9976 18.0615 46.9976 17.9415 46.9976 17.8115V17.7015C47.0376 14.6615 50.2676 12.4115 53.4676 14.1315Z" fill="#243A5E"/>
<path d="M51.1679 19.7006C52.1279 19.7106 52.9079 18.9406 52.9179 17.9806C52.9279 17.0206 52.1579 16.2406 51.1979 16.2306C50.2379 16.2206 49.4579 16.9906 49.4479 17.9506C49.4479 18.9106 50.2079 19.6906 51.1679 19.7006Z" fill="#F2F2F2"/>
<path fill-rule="evenodd" clip-rule="evenodd" d="M56.2897 56.2783V56.2011L46.0701 50.2992V62.0981L56.2897 67.9999V56.2783ZM56.2897 43.103V54.9067L46.0701 49.0049V37.2012L56.2897 43.103Z" fill="#5C4EE5"/>
<path fill-rule="evenodd" clip-rule="evenodd" d="M57.4106 54.9067L67.635 49.0049V37.2012L57.4106 43.103V54.9067Z" fill="#4040B2"/>
<path fill-rule="evenodd" clip-rule="evenodd" d="M34.73 42.417L44.9496 48.3188V36.5151L34.73 30.6133V42.417Z" fill="#5C4EE5"/>
<path opacity="0.15" d="M71.0691 86.0424C75.2291 86.0424 78.5991 82.6724 78.5991 78.5124C78.5991 74.3524 75.2291 70.9824 71.0691 70.9824C66.9091 70.9824 63.5391 74.3524 63.5391 78.5124C63.5491 82.6724 66.9191 86.0424 71.0691 86.0424Z" fill="#1F1D20"/>
<path d="M71.0691 85.1928C75.2291 85.1928 78.5991 81.8228 78.5991 77.6628C78.5991 73.5028 75.2291 70.1328 71.0691 70.1328C66.9091 70.1328 63.5391 73.5028 63.5391 77.6628C63.5491 81.8228 66.9191 85.1928 71.0691 85.1928Z" fill="#002D4C"/>
<path opacity="0.3" d="M75.1691 74.373L68.9691 80.603L67.1091 78.733L65.8691 79.983L68.9691 83.093L76.4191 75.623L75.1691 74.373Z" fill="#1F1D20"/>
<path d="M75.1691 73.8438L68.9691 80.0737L67.1091 78.2037L65.8691 79.4537L68.9691 82.5638L76.4191 75.0938L75.1691 73.8438Z" fill="#FAF9F8"/>
<defs>
<linearGradient id="paint0_linear_304_20014" x1="49.4087" y1="-13.5459" x2="53.3907" y2="132.224" gradientUnits="userSpaceOnUse">
<stop stop-color="#00ABDE"/>
<stop offset="1" stop-color="#007ED8"/>
</linearGradient>
<linearGradient id="paint1_linear_304_20014" x1="2.61294" y1="-20.3785" x2="98.1405" y2="120.503" gradientUnits="userSpaceOnUse">
<stop stop-color="#007ED8"/>
<stop offset="0.7065" stop-color="#002D4C"/>
</linearGradient>
</defs>
</svg>
