<svg width="103" height="103" viewBox="0 0 103 103" fill="none" xmlns="http://www.w3.org/2000/svg">
<path d="M51.0312 98.6844C25.1812 98.6844 4.22125 77.7345 4.22125 51.8745C4.22125 26.0145 25.1812 5.06445 51.0312 5.06445C76.8813 5.06445 97.8412 26.0245 97.8412 51.8745C97.8412 77.7245 76.8813 98.6844 51.0312 98.6844Z" fill="url(#paint0_linear_309_264)"/>
<path fill-rule="evenodd" clip-rule="evenodd" d="M96.9312 51.8744C96.9312 77.2244 76.3812 97.7744 51.0312 97.7744C25.6812 97.7744 5.13124 77.2244 5.13124 51.8744C5.13124 26.5244 25.6812 5.97438 51.0312 5.97438C76.3812 5.97438 96.9312 26.5244 96.9312 51.8744ZM51.0312 2.23438C78.4512 2.23438 100.671 24.4544 100.671 51.8744C100.671 79.2944 78.4412 101.514 51.0312 101.514C23.6112 101.514 1.39124 79.2844 1.39124 51.8744C1.39124 24.4544 23.6112 2.23438 51.0312 2.23438Z" fill="#F2F1F0"/>
<path fill-rule="evenodd" clip-rule="evenodd" d="M94.1212 51.8739C94.1212 75.6739 74.8312 94.9639 51.0312 94.9639C27.2312 94.9639 7.94123 75.6739 7.94123 51.8739C7.94123 28.0739 27.2312 8.78395 51.0312 8.78395C74.8312 8.78395 94.1212 28.0739 94.1212 51.8739ZM51.0312 5.04395C76.8912 5.04395 97.8612 26.0139 97.8612 51.8739C97.8612 77.7339 76.8912 98.704 51.0312 98.704C25.1712 98.704 4.20123 77.7339 4.20123 51.8739C4.20123 26.0139 25.1612 5.04395 51.0312 5.04395Z" fill="url(#paint1_linear_309_264)"/>
<path opacity="0.15" d="M72.8076 24.699L29.0076 24.339C28.0576 24.329 27.2876 25.089 27.2876 26.039L26.8176 83.199C26.8076 84.149 27.5676 84.919 28.5176 84.919L72.3176 85.279C73.2676 85.289 74.0376 84.529 74.0376 83.579L74.5076 26.419C74.4976 25.479 73.7376 24.709 72.8076 24.699Z" fill="#1F1D20"/>
<path d="M72.8176 22.8894L29.0176 22.5294C28.0676 22.5194 27.2976 23.2794 27.2976 24.2294L26.8176 81.3794C26.8076 82.3294 27.5676 83.0994 28.5176 83.0994L72.3176 83.4594C73.2676 83.4694 74.0376 82.7094 74.0376 81.7594L74.5076 24.5994C74.5076 23.6694 73.7576 22.8994 72.8176 22.8894Z" fill="#F2F2F2"/>
<path opacity="0.15" d="M69.7677 24.8496H31.5577V78.0596H69.7677V24.8496Z" fill="#1F1D20"/>
<path d="M69.7677 24.2383H31.5577V77.4483H69.7677V24.2383Z" fill="white"/>
<path fill-rule="evenodd" clip-rule="evenodd" d="M52.9476 16.2487C54.1876 16.9187 54.9076 18.2487 54.8976 19.6487V19.9887C54.8976 20.1187 54.8876 20.2287 54.8776 20.3587L57.5676 20.3787C58.3676 20.3887 59.1176 20.7887 59.5176 21.4887C60.6376 23.4787 59.2176 25.4987 57.3476 25.4787L43.7676 25.3787C42.9676 25.3687 42.2176 24.9687 41.8176 24.2687C40.6976 22.2787 42.1176 20.2587 43.9876 20.2787L46.4876 20.2987C46.4776 20.1787 46.4776 20.0587 46.4776 19.9287V19.8187C46.5176 16.7787 49.7476 14.5287 52.9476 16.2487Z" fill="#243A5E"/>
<path d="M50.6479 21.8187C51.6079 21.8287 52.3879 21.0587 52.3979 20.0987C52.4079 19.1387 51.6379 18.3587 50.6779 18.3487C49.7179 18.3387 48.9379 19.1087 48.9279 20.0687C48.9279 21.0287 49.6879 21.8087 50.6479 21.8187Z" fill="#F2F2F2"/>
<path opacity="0.15" d="M72.2723 85.144C76.4323 85.144 79.8023 81.774 79.8023 77.614C79.8023 73.454 76.4323 70.084 72.2723 70.084C68.1123 70.084 64.7423 73.454 64.7423 77.614C64.7523 81.774 68.1223 85.144 72.2723 85.144Z" fill="#1F1D20"/>
<path d="M72.2723 84.2944C76.4323 84.2944 79.8023 80.9244 79.8023 76.7644C79.8023 72.6044 76.4323 69.2344 72.2723 69.2344C68.1123 69.2344 64.7423 72.6044 64.7423 76.7644C64.7523 80.9244 68.1223 84.2944 72.2723 84.2944Z" fill="#002D4C"/>
<path opacity="0.3" d="M76.3723 73.4746L70.1723 79.7046L68.3123 77.8346L67.0723 79.0846L70.1723 82.1946L77.6223 74.7246L76.3723 73.4746Z" fill="#1F1D20"/>
<path d="M76.3723 72.9443L70.1723 79.1743L68.3123 77.3043L67.0723 78.5543L70.1723 81.6643L77.6223 74.1943L76.3723 72.9443Z" fill="#FAF9F8"/>
<path opacity="0.15" d="M50.975 53.0439L63.8133 60.5093L50.9363 67.9747L38.1238 60.5093L50.975 53.0439Z" fill="#1F1D20"/>
<path d="M50.9363 51.314V66.2317L38.1238 58.7276V43.8486L50.9363 51.314Z" fill="#32B0E7"/>
<path d="M50.975 36.3828L63.8133 43.8481L50.9363 51.3135L38.1238 43.8481L50.975 36.3828Z" fill="#45CAF2"/>
<path d="M63.813 43.8486V58.7276L50.9359 66.2317V51.314L63.813 43.8486Z" fill="#156AB3"/>
<path d="M50.9359 66.2312V51.3135L63.813 58.7272L50.9359 66.2312Z" fill="#185A97"/>
<path d="M50.9363 66.2312V51.3135L38.1238 58.7272L50.9363 66.2312Z" fill="#0078D4"/>
<path opacity="0.15" d="M72.8695 67.2812H58.558C58.157 67.2812 57.8351 66.9541 57.8351 66.5583V53.3128C57.8351 52.9117 58.157 52.5898 58.558 52.5898H72.8695C73.2706 52.5898 73.5925 52.9117 73.5925 53.3128V66.553C73.5925 66.9541 73.2653 67.2812 72.8695 67.2812Z" fill="#1F1D20"/>
<path d="M72.8695 67.2756H58.558C58.157 67.2756 57.8351 66.9537 57.8351 66.5526V53.3177C57.8351 52.9166 58.157 52.5947 58.558 52.5947H72.8695C73.2706 52.5947 73.5925 52.9166 73.5925 53.3177V66.5579C73.5925 66.9537 73.2653 67.2756 72.8695 67.2756Z" fill="white"/>
<path d="M68.8478 56.8752C68.8478 56.548 68.5839 56.2842 68.2568 56.2842H61.1591C60.8319 56.2842 60.5681 56.548 60.5681 56.8752C60.5681 57.2024 60.8319 57.4662 61.1591 57.4662H68.262C68.5892 57.461 68.8478 57.2024 68.8478 56.8752Z" fill="url(#paint2_linear_309_264)"/>
<path d="M70.8582 56.8752C70.8582 56.548 70.5944 56.2842 70.2672 56.2842H68.3358C68.0086 56.2842 68.2197 56.548 68.2197 56.8752C68.2197 57.2024 68.0139 57.4662 68.3358 57.4662H70.2725C70.5891 57.461 70.8582 57.2024 70.8582 56.8752Z" fill="#9B9BA0"/>
<path d="M67.3807 56.875C67.3807 57.5241 67.9032 58.0518 68.5575 58.0518C69.2119 58.0518 69.7343 57.5294 69.7343 56.875C69.7343 56.226 69.2013 55.6982 68.5522 55.6982C67.9084 55.7088 67.3807 56.226 67.3807 56.875Z" fill="#50E6FF"/>
<path d="M66.6684 59.8459C66.6684 59.5187 66.4045 59.2549 66.0773 59.2549H61.1591C60.8319 59.2549 60.5681 59.5187 60.5681 59.8459C60.5681 60.1731 60.8319 60.4369 61.1591 60.4369H66.0879C66.4098 60.4317 66.6684 60.1731 66.6684 59.8459Z" fill="url(#paint3_linear_309_264)"/>
<path d="M70.8582 59.8459C70.8582 59.5187 70.5943 59.2549 70.2672 59.2549H66.436C66.1088 59.2549 65.845 59.5187 65.845 59.8459C65.845 60.1731 66.1088 60.4369 66.436 60.4369H70.2724C70.5891 60.4317 70.8582 60.1731 70.8582 59.8459Z" fill="#9B9BA0"/>
<path d="M64.8109 59.8457C64.8109 60.4948 65.3333 61.0225 65.9877 61.0225C66.6421 61.0225 67.1645 60.5001 67.1645 59.8457C67.1645 59.1967 66.6421 58.6689 65.9877 58.6689C65.3333 58.6689 64.8109 59.1967 64.8109 59.8457Z" fill="#35AFE4"/>
<path d="M63.9296 62.9963C63.9296 62.6691 63.6657 62.4053 63.3385 62.4053H61.1591C60.8319 62.4106 60.5681 62.6691 60.5681 62.9963C60.5681 63.3235 60.8319 63.5873 61.1591 63.5873H63.3385C63.6657 63.5768 63.9296 63.3182 63.9296 62.9963Z" fill="url(#paint4_linear_309_264)"/>
<path d="M70.8585 62.9963C70.8585 62.6691 70.5946 62.4053 70.2674 62.4053H63.9191C63.5919 62.4053 63.3281 62.6691 63.3281 62.9963C63.3281 63.3235 63.5919 63.5873 63.9191 63.5873H70.2674C70.5893 63.5768 70.8585 63.3182 70.8585 62.9963Z" fill="#9B9BA0"/>
<path d="M62.3889 62.9961C62.3889 63.6452 62.9113 64.1729 63.5656 64.1729C64.2147 64.1729 64.7424 63.6505 64.7424 62.9961C64.7424 62.347 64.22 61.8193 63.5656 61.8193C62.9113 61.8193 62.3889 62.347 62.3889 62.9961Z" fill="#2E76BC"/>
<defs>
<linearGradient id="paint0_linear_309_264" x1="49.2573" y1="-12.915" x2="53.2393" y2="132.855" gradientUnits="userSpaceOnUse">
<stop stop-color="#00ABDE"/>
<stop offset="1" stop-color="#007ED8"/>
</linearGradient>
<linearGradient id="paint1_linear_309_264" x1="2.46163" y1="-19.7487" x2="97.9892" y2="121.133" gradientUnits="userSpaceOnUse">
<stop stop-color="#007ED8"/>
<stop offset="0.7065" stop-color="#002D4C"/>
</linearGradient>
<linearGradient id="paint2_linear_309_264" x1="64.4708" y1="56.208" x2="69.3256" y2="69.8966" gradientUnits="userSpaceOnUse">
<stop stop-color="#15548F"/>
<stop offset="0.4179" stop-color="#243A5E"/>
<stop offset="0.9677" stop-color="#1A2C45"/>
</linearGradient>
<linearGradient id="paint3_linear_309_264" x1="62.8034" y1="57.5515" x2="66.6615" y2="68.4294" gradientUnits="userSpaceOnUse">
<stop stop-color="#15548F"/>
<stop offset="0.4179" stop-color="#243A5E"/>
<stop offset="0.9677" stop-color="#1A2C45"/>
</linearGradient>
<linearGradient id="paint4_linear_309_264" x1="61.2519" y1="60.1806" x2="63.8579" y2="67.5283" gradientUnits="userSpaceOnUse">
<stop stop-color="#15548F"/>
<stop offset="0.4179" stop-color="#243A5E"/>
<stop offset="0.9677" stop-color="#1A2C45"/>
</linearGradient>
</defs>
</svg>
