<svg width="181" height="190" viewBox="0 0 181 190" fill="none" xmlns="http://www.w3.org/2000/svg">
<g clip-path="url(#clip0_2037_2800)">
<path d="M90.9107 189C93.9707 189 96.9807 188.15 99.6407 186.53L161.611 148.87C167.151 145.5 170.581 139.17 170.581 132.33V57.6201C170.581 50.8001 167.151 44.4601 161.611 41.0801L99.6407 3.42006C94.3107 0.180064 87.4907 0.200064 82.1907 3.42006L20.2207 41.1001C14.6807 44.4701 11.2307 50.8001 11.2307 57.6401V132.34C11.2307 138.1 13.6807 143.52 17.7807 147.09V147.12L82.1907 186.55C84.8307 188.15 87.8507 189 90.9107 189ZM91.5607 7.95006C93.5107 7.95006 95.9907 9.16006 97.7007 10.2101L158.461 47.4001C162.211 49.6801 164.331 56.2801 164.331 61.0301L163.701 132.33C163.701 137.08 160.501 141.35 156.751 143.63L96.3507 180.01C92.9207 182.1 90.1307 182.1 86.6907 180.01L25.4807 143.54C21.7307 141.26 18.7107 137.06 18.7107 132.33V58.6901C18.7107 53.9501 21.4407 49.0601 25.2107 46.7701L85.7907 10.2101C87.4907 9.17006 89.6107 7.95006 91.5607 7.95006Z" fill="#F2F1F0"/>
<path fill-rule="evenodd" clip-rule="evenodd" d="M98.8107 11.5298C96.3607 10.0298 93.6407 9.27979 90.9107 9.27979C88.1807 9.27979 85.4607 10.0398 83.0107 11.5298L26.8807 45.8598C21.8607 48.9298 18.7507 54.6798 18.7507 60.9298V129.03C18.7507 135.26 21.8507 141.03 26.8807 144.1L83.0107 178.43C85.4607 179.93 88.1807 180.68 90.9107 180.68C93.6407 180.68 96.3607 179.94 98.8107 178.43L154.941 144.1C159.961 141.03 163.071 135.26 163.071 129.03V60.9298C163.071 54.6998 159.971 48.9498 154.941 45.8598L98.8107 11.5298Z" fill="url(#paint0_linear_2037_2800)"/>
<path d="M162.036 52.8185H116.129C115.74 52.8185 115.367 52.9731 115.091 53.2482C114.816 53.5234 114.662 53.8965 114.662 54.2856C114.662 54.6748 114.816 55.0479 115.091 55.3231C115.367 55.5982 115.74 55.7528 116.129 55.7528H162.012C162.205 55.7561 162.398 55.7204 162.577 55.6478C162.757 55.5753 162.92 55.4673 163.057 55.3304C163.194 55.1935 163.302 55.0305 163.374 54.851C163.447 54.6715 163.483 54.4792 163.479 54.2856C163.479 53.9007 163.328 53.5312 163.058 53.2567C162.789 52.9823 162.421 52.8249 162.036 52.8185Z" fill="#B7A3FF"/>
<path d="M110.921 52.8185H102.607C102.414 52.8185 102.224 52.8565 102.046 52.9302C101.868 53.0039 101.705 53.112 101.569 53.2482C101.433 53.3845 101.325 53.5462 101.252 53.7242C101.178 53.9022 101.14 54.093 101.14 54.2856C101.14 54.4783 101.178 54.6691 101.252 54.8471C101.325 55.0251 101.433 55.1868 101.569 55.3231C101.705 55.4593 101.868 55.5674 102.046 55.6411C102.224 55.7148 102.414 55.7528 102.607 55.7528H110.921C111.114 55.7561 111.307 55.7204 111.486 55.6478C111.666 55.5753 111.829 55.4673 111.966 55.3304C112.103 55.1935 112.21 55.0305 112.283 54.851C112.355 54.6715 112.391 54.4792 112.388 54.2856C112.388 53.8965 112.233 53.5234 111.958 53.2482C111.683 52.9731 111.31 52.8185 110.921 52.8185V52.8185Z" fill="#ACF3FD"/>
<path d="M133.686 60.1544H102.607C102.414 60.1544 102.224 60.1923 102.046 60.2661C101.868 60.3398 101.705 60.4479 101.569 60.5841C101.433 60.7204 101.325 60.8821 101.252 61.0601C101.178 61.2381 101.14 61.4289 101.14 61.6215C101.14 61.8142 101.178 62.005 101.252 62.183C101.325 62.361 101.433 62.5227 101.569 62.6589C101.705 62.7952 101.868 62.9032 102.046 62.977C102.224 63.0507 102.414 63.0887 102.607 63.0887H133.686C133.879 63.092 134.072 63.0563 134.251 62.9837C134.431 62.9111 134.594 62.8032 134.73 62.6663C134.867 62.5294 134.975 62.3664 135.048 62.1869C135.121 62.0074 135.156 61.8151 135.153 61.6215C135.153 61.2324 134.998 60.8593 134.723 60.5841C134.448 60.309 134.075 60.1544 133.686 60.1544V60.1544Z" fill="#AF9BFA"/>
<path d="M150.729 74.5298H102.607C102.218 74.5298 101.844 74.6843 101.569 74.9594C101.294 75.2346 101.14 75.6078 101.14 75.9969C101.14 76.386 101.294 76.7592 101.569 77.0343C101.844 77.3095 102.218 77.464 102.607 77.464H150.729C151.118 77.464 151.491 77.3095 151.767 77.0343C152.042 76.7592 152.196 76.386 152.196 75.9969C152.196 75.6078 152.042 75.2346 151.767 74.9594C151.491 74.6843 151.118 74.5298 150.729 74.5298V74.5298Z" fill="#A28CF0"/>
<path d="M158.945 82.133H102.705C102.512 82.133 102.321 82.171 102.143 82.2447C101.965 82.3184 101.803 82.4265 101.667 82.5628C101.531 82.699 101.423 82.8607 101.349 83.0387C101.275 83.2167 101.237 83.4075 101.237 83.6002C101.237 83.7928 101.275 83.9836 101.349 84.1616C101.423 84.3396 101.531 84.5013 101.667 84.6376C101.803 84.7738 101.965 84.8819 102.143 84.9556C102.321 85.0293 102.512 85.0673 102.705 85.0673H158.945C159.335 85.0673 159.708 84.9127 159.983 84.6376C160.258 84.3624 160.413 83.9893 160.413 83.6002C160.413 83.211 160.258 82.8379 159.983 82.5628C159.708 82.2876 159.335 82.133 158.945 82.133V82.133Z" fill="#8D74E4"/>
<path d="M162.378 97.3968H102.607C102.218 97.3968 101.844 97.5513 101.569 97.8264C101.294 98.1016 101.14 98.4747 101.14 98.8638C101.137 99.0574 101.172 99.2497 101.245 99.4292C101.317 99.6087 101.425 99.7718 101.562 99.9087C101.699 100.046 101.862 100.154 102.042 100.226C102.221 100.299 102.413 100.334 102.607 100.331H162.378C162.571 100.334 162.763 100.299 162.943 100.226C163.122 100.154 163.285 100.046 163.422 99.9087C163.559 99.7718 163.667 99.6087 163.74 99.4292C163.812 99.2497 163.848 99.0574 163.845 98.8638C163.845 98.4747 163.69 98.1016 163.415 97.8264C163.14 97.5513 162.767 97.3968 162.378 97.3968Z" fill="#7254DD"/>
<path d="M138.381 104.436H102.607C102.218 104.436 101.844 104.591 101.569 104.866C101.294 105.141 101.14 105.514 101.14 105.903C101.14 106.292 101.294 106.666 101.569 106.941C101.844 107.216 102.218 107.371 102.607 107.371H138.381C138.575 107.374 138.767 107.338 138.946 107.266C139.126 107.193 139.289 107.085 139.426 106.948C139.563 106.811 139.67 106.648 139.743 106.469C139.815 106.289 139.851 106.097 139.848 105.903C139.842 105.516 139.685 105.147 139.411 104.873C139.138 104.599 138.768 104.443 138.381 104.436V104.436Z" fill="#6949DB"/>
<path d="M118.574 118.525H102.729C102.34 118.525 101.966 118.68 101.691 118.955C101.416 119.23 101.261 119.603 101.261 119.992C101.261 120.381 101.416 120.755 101.691 121.03C101.966 121.305 102.34 121.459 102.729 121.459H118.574C118.768 121.463 118.96 121.427 119.139 121.355C119.319 121.282 119.482 121.174 119.619 121.037C119.756 120.9 119.864 120.737 119.936 120.558C120.009 120.378 120.045 120.186 120.041 119.992C120.041 119.603 119.887 119.23 119.612 118.955C119.336 118.68 118.963 118.525 118.574 118.525V118.525Z" fill="#5A36D6"/>
<path d="M162.286 118.525H135.446C135.057 118.525 134.684 118.68 134.409 118.955C134.134 119.23 133.979 119.603 133.979 119.992C133.979 120.381 134.134 120.755 134.409 121.03C134.684 121.305 135.057 121.459 135.446 121.459H162.286C162.48 121.463 162.672 121.427 162.852 121.355C163.031 121.282 163.194 121.174 163.331 121.037C163.468 120.9 163.576 120.737 163.649 120.558C163.721 120.378 163.757 120.186 163.753 119.992C163.753 119.603 163.599 119.23 163.323 118.955C163.048 118.68 162.676 118.525 162.286 118.525Z" fill="#5A36D6"/>
<path d="M143.687 126.147H102.607C102.414 126.147 102.224 126.185 102.046 126.259C101.868 126.333 101.705 126.441 101.569 126.577C101.433 126.713 101.325 126.875 101.252 127.053C101.178 127.231 101.14 127.422 101.14 127.615C101.14 127.807 101.178 127.998 101.252 128.176C101.325 128.354 101.433 128.516 101.569 128.652C101.705 128.788 101.868 128.896 102.046 128.97C102.224 129.044 102.414 129.082 102.607 129.082H143.687C143.881 129.085 144.073 129.049 144.252 128.977C144.432 128.904 144.595 128.796 144.732 128.659C144.869 128.523 144.977 128.36 145.049 128.18C145.122 128.001 145.158 127.808 145.154 127.615C145.148 127.228 144.991 126.858 144.717 126.584C144.444 126.31 144.074 126.154 143.687 126.147V126.147Z" fill="#512BD4"/>
<path d="M162.072 133.779H102.607C102.218 133.779 101.844 133.934 101.569 134.209C101.294 134.484 101.14 134.857 101.14 135.247C101.14 135.636 101.294 136.009 101.569 136.284C101.844 136.559 102.218 136.714 102.607 136.714H162.072C162.266 136.717 162.458 136.681 162.637 136.609C162.817 136.536 162.98 136.428 163.117 136.291C163.254 136.154 163.362 135.991 163.434 135.812C163.507 135.632 163.543 135.44 163.539 135.247C163.539 134.857 163.385 134.484 163.11 134.209C162.834 133.934 162.461 133.779 162.072 133.779Z" fill="#3D15C6"/>
<path d="M128.355 141.43H102.533C102.144 141.43 101.771 141.585 101.496 141.86C101.22 142.135 101.066 142.508 101.066 142.898C101.066 143.287 101.22 143.66 101.496 143.935C101.771 144.21 102.144 144.365 102.533 144.365H128.355C128.744 144.365 129.118 144.21 129.393 143.935C129.668 143.66 129.823 143.287 129.823 142.898C129.823 142.508 129.668 142.135 129.393 141.86C129.118 141.585 128.744 141.43 128.355 141.43V141.43Z" fill="#3007BD"/>
<path d="M110.921 74.5202H102.607C102.414 74.5202 102.224 74.5582 102.046 74.6319C101.868 74.7056 101.705 74.8137 101.569 74.95C101.433 75.0862 101.325 75.2479 101.252 75.4259C101.178 75.6039 101.14 75.7947 101.14 75.9874C101.14 76.18 101.178 76.3708 101.252 76.5488C101.325 76.7268 101.433 76.8885 101.569 77.0248C101.705 77.161 101.868 77.2691 102.046 77.3428C102.224 77.4166 102.414 77.4545 102.607 77.4545H110.921C111.114 77.4578 111.307 77.4221 111.486 77.3495C111.666 77.277 111.829 77.1691 111.966 77.0322C112.103 76.8953 112.21 76.7322 112.283 76.5527C112.355 76.3732 112.391 76.1809 112.388 75.9874C112.388 75.5983 112.233 75.2251 111.958 74.95C111.683 74.6748 111.31 74.5202 110.921 74.5202V74.5202Z" fill="#ACF3FD"/>
<path d="M134.261 60.1544H125.947C125.754 60.1544 125.564 60.1923 125.386 60.2661C125.208 60.3398 125.046 60.4479 124.909 60.5841C124.773 60.7204 124.666 60.8821 124.592 61.0601C124.518 61.2381 124.48 61.4289 124.48 61.6215C124.48 61.8142 124.518 62.005 124.592 62.183C124.666 62.361 124.773 62.5227 124.909 62.6589C125.046 62.7952 125.208 62.9032 125.386 62.977C125.564 63.0507 125.754 63.0887 125.947 63.0887H134.261C134.455 63.092 134.647 63.0563 134.827 62.9837C135.006 62.9111 135.169 62.8032 135.306 62.6663C135.443 62.5294 135.55 62.3664 135.623 62.1869C135.696 62.0074 135.731 61.8151 135.728 61.6215C135.728 61.2324 135.573 60.8593 135.298 60.5841C135.023 60.309 134.65 60.1544 134.261 60.1544V60.1544Z" fill="#441DCC"/>
<path d="M133.234 104.436H124.919C124.727 104.436 124.536 104.474 124.358 104.548C124.18 104.622 124.018 104.73 123.882 104.866C123.746 105.002 123.638 105.164 123.564 105.342C123.491 105.52 123.453 105.711 123.453 105.903C123.453 106.096 123.491 106.287 123.564 106.465C123.638 106.643 123.746 106.805 123.882 106.941C124.018 107.077 124.18 107.185 124.358 107.259C124.536 107.333 124.727 107.371 124.919 107.371H133.234C133.427 107.374 133.619 107.338 133.799 107.266C133.978 107.193 134.141 107.085 134.278 106.948C134.415 106.811 134.523 106.648 134.595 106.469C134.668 106.289 134.704 106.097 134.7 105.903C134.7 105.514 134.546 105.141 134.271 104.866C133.995 104.591 133.623 104.436 133.234 104.436V104.436Z" fill="#3108BF"/>
<path d="M110.921 104.436H102.607C102.414 104.436 102.224 104.474 102.046 104.548C101.868 104.622 101.705 104.73 101.569 104.866C101.433 105.002 101.325 105.164 101.252 105.342C101.178 105.52 101.14 105.711 101.14 105.903C101.14 106.096 101.178 106.287 101.252 106.465C101.325 106.643 101.433 106.805 101.569 106.941C101.705 107.077 101.868 107.185 102.046 107.259C102.224 107.333 102.414 107.371 102.607 107.371H110.921C111.114 107.374 111.307 107.338 111.486 107.266C111.666 107.193 111.829 107.085 111.966 106.948C112.103 106.811 112.21 106.648 112.283 106.469C112.355 106.289 112.391 106.097 112.388 105.903C112.388 105.514 112.233 105.141 111.958 104.866C111.683 104.591 111.31 104.436 110.921 104.436V104.436Z" fill="#ACF3FD"/>
<path d="M133.234 133.779H124.919C124.727 133.779 124.536 133.817 124.358 133.891C124.18 133.965 124.018 134.073 123.882 134.209C123.746 134.345 123.638 134.507 123.564 134.685C123.491 134.863 123.453 135.054 123.453 135.247C123.453 135.439 123.491 135.63 123.564 135.808C123.638 135.986 123.746 136.148 123.882 136.284C124.018 136.42 124.18 136.528 124.358 136.602C124.536 136.676 124.727 136.714 124.919 136.714H133.234C133.427 136.717 133.619 136.681 133.799 136.609C133.978 136.536 134.141 136.428 134.278 136.291C134.415 136.154 134.523 135.991 134.595 135.812C134.668 135.632 134.704 135.44 134.7 135.247C134.7 134.857 134.546 134.484 134.271 134.209C133.995 133.934 133.623 133.779 133.234 133.779V133.779Z" fill="#B39FFD"/>
<path d="M110.921 133.779H102.607C102.414 133.779 102.224 133.817 102.046 133.891C101.868 133.965 101.705 134.073 101.569 134.209C101.433 134.345 101.325 134.507 101.252 134.685C101.178 134.863 101.14 135.054 101.14 135.247C101.14 135.439 101.178 135.63 101.252 135.808C101.325 135.986 101.433 136.148 101.569 136.284C101.705 136.42 101.868 136.528 102.046 136.602C102.224 136.676 102.414 136.714 102.607 136.714H110.921C111.114 136.717 111.307 136.681 111.486 136.609C111.666 136.536 111.829 136.428 111.966 136.291C112.103 136.154 112.21 135.991 112.283 135.812C112.355 135.632 112.391 135.44 112.388 135.247C112.388 134.857 112.233 134.484 111.958 134.209C111.683 133.934 111.31 133.779 110.921 133.779V133.779Z" fill="#ACF3FD"/>
<path opacity="0.2" d="M62.5448 129.754H108.761C110.823 129.754 112.51 128.081 112.51 126.005V58.1446H39.1123V125.991C39.1123 128.053 40.785 129.74 42.8615 129.74H50.8646H62.5448V129.754Z" fill="#1F1D21"/>
<g filter="url(#filter0_bd_2037_2800)">
<path d="M62.5448 124.895H109.972C111.385 124.895 112.524 123.755 112.524 122.342V55.823C112.51 54.4098 111.371 53.2707 109.972 53.2707H41.6646C40.2515 53.2707 39.1123 54.4098 39.1123 55.823V122.328C39.1123 123.741 40.2515 124.88 41.6646 124.88H50.8646H62.5448V124.895Z" fill="white" fill-opacity="0.5" shape-rendering="crispEdges"/>
</g>
<g filter="url(#filter1_ddddd_2037_2800)">
<path d="M112.51 54.5684C112.51 53.1553 111.371 52.0161 109.958 52.0161H41.6646C40.2515 52.0161 39.1123 53.1553 39.1123 54.5684V56.991H112.51V54.5684Z" fill="url(#paint1_linear_2037_2800)"/>
</g>
<path opacity="0.2" d="M53.4168 137.901H99.6328C101.695 137.901 103.382 136.228 103.382 134.152V66.3057H29.9844V134.152C29.9844 136.214 31.6571 137.901 33.7336 137.901H41.7367H53.4168Z" fill="#1F1D21"/>
<path d="M53.4168 136.056H100.844C102.257 136.056 103.396 134.917 103.396 133.503V66.9841C103.382 65.5709 102.243 64.4317 100.844 64.4317H32.5367C31.1236 64.4317 29.9844 65.5709 29.9844 66.9841V133.489C29.9844 134.902 31.1236 136.041 32.5367 136.041H41.7366H53.4168V136.056Z" fill="white"/>
<g filter="url(#filter2_ddddd_2037_2800)">
<path d="M103.382 65.7295C103.382 64.3164 102.243 63.1772 100.83 63.1772H32.5367C31.1236 63.1772 29.9844 64.3164 29.9844 65.7295V68.1521H103.382V65.7295Z" fill="url(#paint2_linear_2037_2800)"/>
</g>
<path d="M105.401 140.958C112.914 140.958 119.028 134.873 119.028 127.331C119.013 119.819 112.899 113.748 105.401 113.748C97.9024 113.748 91.7739 119.833 91.7739 127.375C91.7739 134.887 97.8736 140.958 105.401 140.958Z" fill="#282828"/>
<path d="M106.468 119.372H104.233V135.306H106.468V119.372Z" fill="#F2F2F2"/>
<path d="M113.317 126.336H97.3977V128.572H113.332L113.317 126.336Z" fill="#F2F2F2"/>
<circle cx="24.9786" cy="57.8798" r="1.47546" fill="#B7A3FF"/>
<circle cx="24.9786" cy="66.2552" r="1.47546" fill="#AF9BFA"/>
<circle cx="24.9786" cy="73.8585" r="1.47546" fill="#A28CEF"/>
<circle cx="24.9786" cy="89.1222" r="1.47546" fill="#8971DD"/>
<circle cx="24.9786" cy="96.1617" r="1.47546" fill="#7254DD"/>
<circle cx="24.9786" cy="110.251" r="1.47546" fill="#6949DB"/>
<circle cx="24.9786" cy="117.873" r="1.47546" fill="#5A36D6"/>
<circle cx="24.9786" cy="125.505" r="1.47546" fill="#512BD4"/>
<circle cx="24.9786" cy="133.156" r="1.47546" fill="#3007BD"/>
<path fill-rule="evenodd" clip-rule="evenodd" d="M90.9107 10.75C92.5907 10.75 94.4807 11.62 96.5407 12.87L155.011 48.41C158.661 50.63 161.071 54.9 161.071 59.73V130.21C161.071 135.03 158.661 139.31 155.011 141.53L96.5507 177.07C94.5907 178.26 92.6707 179.01 90.9207 179.01C89.1707 179.01 87.2507 178.26 85.2907 177.07L26.8107 141.54C24.8007 140.31 23.3507 139.11 22.3707 137.5C21.3907 135.9 20.7507 133.68 20.7507 130.22V59.74C20.7507 54.91 23.1607 50.64 26.8107 48.42L85.2707 12.88C87.3607 11.63 89.2207 10.75 90.9107 10.75ZM98.6207 180.5L157.081 144.96C162.001 141.97 165.061 136.35 165.061 130.22V59.74C165.061 53.61 162.001 47.99 157.081 45L98.6207 9.46C96.5107 8.18 93.8007 6.75 90.9107 6.75C88.0107 6.75 85.3007 8.19 83.2107 9.45H83.2007L24.7307 45C19.8107 47.99 16.7507 53.61 16.7507 59.74V130.22C16.7507 134.18 17.4907 137.17 18.9507 139.58C20.4107 141.98 22.4707 143.58 24.7307 144.95L83.1907 180.49C85.4107 181.84 88.0807 183.02 90.9007 183.02C93.7207 183.02 96.4007 181.85 98.6207 180.5Z" fill="url(#paint3_linear_2037_2800)"/>
<g filter="url(#filter3_ddddd_2037_2800)">
<path d="M42.061 91.5618V111.349C42.061 113.797 43.3668 116.061 45.4882 117.284L62.6241 127.179C64.7455 128.404 67.357 128.404 69.4784 127.179L86.6143 117.284C88.7357 116.059 90.0414 113.797 90.0414 111.349V91.5618C90.0414 89.1131 88.7357 86.8494 86.6143 85.6259L69.4784 75.7334C67.357 74.5081 64.7455 74.5081 62.6241 75.7334L45.4882 85.6259C43.3668 86.8511 42.061 89.1131 42.061 91.5618Z" fill="url(#paint4_linear_2037_2800)"/>
</g>
<g filter="url(#filter4_ddddd_2037_2800)">
<path d="M54.0561 98.0309V104.885C54.0561 105.339 54.236 105.776 54.5582 106.097C54.8803 106.419 55.3156 106.599 55.7697 106.599C56.2238 106.599 56.6607 106.419 56.9812 106.097C57.3033 105.775 57.4833 105.339 57.4833 104.885C57.4833 104.431 57.6632 103.994 57.9853 103.674C58.3075 103.352 58.7427 103.172 59.1968 103.172C59.6509 103.172 60.0879 103.352 60.4083 103.674C60.7305 103.996 60.9104 104.431 60.9104 104.885C60.9104 106.249 60.3689 107.557 59.4042 108.52C58.4394 109.485 57.132 110.026 55.7697 110.026C54.4074 110.026 53.0982 109.485 52.1351 108.52C51.1704 107.555 50.6289 106.248 50.6289 104.885V98.0309C50.6289 96.6669 51.1704 95.3594 52.1351 94.3964C53.0999 93.4316 54.4074 92.8901 55.7697 92.8901C57.132 92.8901 58.4411 93.4316 59.4042 94.3964C60.3672 95.3611 60.9104 96.6686 60.9104 98.0309C60.9104 98.485 60.7305 98.922 60.4083 99.2424C60.0862 99.5646 59.6509 99.7445 59.1968 99.7445C58.7427 99.7445 58.3058 99.5646 57.9853 99.2424C57.6632 98.9202 57.4833 98.485 57.4833 98.0309C57.4833 97.5768 57.3033 97.1398 56.9812 96.8194C56.659 96.4972 56.2238 96.3173 55.7697 96.3173C55.3156 96.3173 54.8786 96.4972 54.5582 96.8194C54.236 97.1415 54.0561 97.5768 54.0561 98.0309ZM81.4735 104.885C81.4735 105.339 81.2935 105.776 80.9714 106.097C80.6492 106.419 80.214 106.599 79.7599 106.599H78.0463V108.312C78.0463 108.767 77.8664 109.203 77.5442 109.524C77.2221 109.844 76.7868 110.026 76.3327 110.026C75.8786 110.026 75.4416 109.846 75.1212 109.524C74.8008 109.202 74.6191 108.767 74.6191 108.312V106.599H71.1919V108.312C71.1919 108.767 71.012 109.203 70.6899 109.524C70.3677 109.844 69.9325 110.026 69.4784 110.026C69.0243 110.026 68.5873 109.846 68.2668 109.524C67.9447 109.202 67.7648 108.767 67.7648 108.312V106.599H66.0512C65.5971 106.599 65.1601 106.419 64.8397 106.097C64.5175 105.775 64.3376 105.339 64.3376 104.885C64.3376 104.431 64.5175 103.994 64.8397 103.674C65.1618 103.352 65.5971 103.172 66.0512 103.172H67.7648V99.7445H66.0512C65.5971 99.7445 65.1601 99.5646 64.8397 99.2424C64.5175 98.9202 64.3376 98.485 64.3376 98.0309C64.3376 97.5768 64.5175 97.1398 64.8397 96.8194C65.1618 96.4972 65.5971 96.3173 66.0512 96.3173H67.7648V94.6037C67.7648 94.1496 67.9447 93.7127 68.2668 93.3922C68.589 93.0701 69.0243 92.8901 69.4784 92.8901C69.9325 92.8901 70.3694 93.0701 70.6899 93.3922C71.012 93.7144 71.1919 94.1496 71.1919 94.6037V96.3173H74.6191V94.6037C74.6191 94.1496 74.799 93.7127 75.1212 93.3922C75.4433 93.0701 75.8786 92.8901 76.3327 92.8901C76.7868 92.8901 77.2238 93.0701 77.5442 93.3922C77.8646 93.7144 78.0463 94.1496 78.0463 94.6037V96.3173H79.7599C80.214 96.3173 80.6509 96.4972 80.9714 96.8194C81.2918 97.1415 81.4735 97.5768 81.4735 98.0309C81.4735 98.485 81.2935 98.922 80.9714 99.2424C80.6492 99.5646 80.214 99.7445 79.7599 99.7445H78.0463V103.172H79.7599C80.214 103.172 80.6509 103.352 80.9714 103.674C81.2918 103.996 81.4735 104.431 81.4735 104.885ZM74.6191 99.7445H71.1919V103.172H74.6191V99.7445Z" fill="white"/>
</g>
</g>
<defs>
<filter id="filter0_bd_2037_2800" x="24.9449" y="50.2707" width="101.747" height="102.959" filterUnits="userSpaceOnUse" color-interpolation-filters="sRGB">
<feFlood flood-opacity="0" result="BackgroundImageFix"/>
<feGaussianBlur in="BackgroundImageFix" stdDeviation="1.5"/>
<feComposite in2="SourceAlpha" operator="in" result="effect1_backgroundBlur_2037_2800"/>
<feColorMatrix in="SourceAlpha" type="matrix" values="0 0 0 0 0 0 0 0 0 0 0 0 0 0 0 0 0 0 127 0" result="hardAlpha"/>
<feOffset dy="14.1674"/>
<feGaussianBlur stdDeviation="7.0837"/>
<feComposite in2="hardAlpha" operator="out"/>
<feColorMatrix type="matrix" values="0 0 0 0 0 0 0 0 0 0 0 0 0 0 0 0 0 0 0.25 0"/>
<feBlend mode="normal" in2="effect1_backgroundBlur_2037_2800" result="effect2_dropShadow_2037_2800"/>
<feBlend mode="normal" in="SourceGraphic" in2="effect2_dropShadow_2037_2800" result="shape"/>
</filter>
<filter id="filter1_ddddd_2037_2800" x="33.1123" y="50.0161" width="98.3977" height="47.9749" filterUnits="userSpaceOnUse" color-interpolation-filters="sRGB">
<feFlood flood-opacity="0" result="BackgroundImageFix"/>
<feColorMatrix in="SourceAlpha" type="matrix" values="0 0 0 0 0 0 0 0 0 0 0 0 0 0 0 0 0 0 127 0" result="hardAlpha"/>
<feOffset/>
<feColorMatrix type="matrix" values="0 0 0 0 0 0 0 0 0 0 0 0 0 0 0 0 0 0 0.1 0"/>
<feBlend mode="normal" in2="BackgroundImageFix" result="effect1_dropShadow_2037_2800"/>
<feColorMatrix in="SourceAlpha" type="matrix" values="0 0 0 0 0 0 0 0 0 0 0 0 0 0 0 0 0 0 127 0" result="hardAlpha"/>
<feOffset dy="2"/>
<feGaussianBlur stdDeviation="2"/>
<feColorMatrix type="matrix" values="0 0 0 0 0 0 0 0 0 0 0 0 0 0 0 0 0 0 0.1 0"/>
<feBlend mode="normal" in2="effect1_dropShadow_2037_2800" result="effect2_dropShadow_2037_2800"/>
<feColorMatrix in="SourceAlpha" type="matrix" values="0 0 0 0 0 0 0 0 0 0 0 0 0 0 0 0 0 0 127 0" result="hardAlpha"/>
<feOffset dx="2" dy="7"/>
<feGaussianBlur stdDeviation="3.5"/>
<feColorMatrix type="matrix" values="0 0 0 0 0 0 0 0 0 0 0 0 0 0 0 0 0 0 0.09 0"/>
<feBlend mode="normal" in2="effect2_dropShadow_2037_2800" result="effect3_dropShadow_2037_2800"/>
<feColorMatrix in="SourceAlpha" type="matrix" values="0 0 0 0 0 0 0 0 0 0 0 0 0 0 0 0 0 0 127 0" result="hardAlpha"/>
<feOffset dx="4" dy="16"/>
<feGaussianBlur stdDeviation="5"/>
<feColorMatrix type="matrix" values="0 0 0 0 0 0 0 0 0 0 0 0 0 0 0 0 0 0 0.05 0"/>
<feBlend mode="normal" in2="effect3_dropShadow_2037_2800" result="effect4_dropShadow_2037_2800"/>
<feColorMatrix in="SourceAlpha" type="matrix" values="0 0 0 0 0 0 0 0 0 0 0 0 0 0 0 0 0 0 127 0" result="hardAlpha"/>
<feOffset dx="7" dy="29"/>
<feGaussianBlur stdDeviation="6"/>
<feColorMatrix type="matrix" values="0 0 0 0 0 0 0 0 0 0 0 0 0 0 0 0 0 0 0.01 0"/>
<feBlend mode="normal" in2="effect4_dropShadow_2037_2800" result="effect5_dropShadow_2037_2800"/>
<feBlend mode="normal" in="SourceGraphic" in2="effect5_dropShadow_2037_2800" result="shape"/>
</filter>
<filter id="filter2_ddddd_2037_2800" x="23.9844" y="61.1772" width="98.3977" height="47.9749" filterUnits="userSpaceOnUse" color-interpolation-filters="sRGB">
<feFlood flood-opacity="0" result="BackgroundImageFix"/>
<feColorMatrix in="SourceAlpha" type="matrix" values="0 0 0 0 0 0 0 0 0 0 0 0 0 0 0 0 0 0 127 0" result="hardAlpha"/>
<feOffset/>
<feColorMatrix type="matrix" values="0 0 0 0 0 0 0 0 0 0 0 0 0 0 0 0 0 0 0.1 0"/>
<feBlend mode="normal" in2="BackgroundImageFix" result="effect1_dropShadow_2037_2800"/>
<feColorMatrix in="SourceAlpha" type="matrix" values="0 0 0 0 0 0 0 0 0 0 0 0 0 0 0 0 0 0 127 0" result="hardAlpha"/>
<feOffset dy="2"/>
<feGaussianBlur stdDeviation="2"/>
<feColorMatrix type="matrix" values="0 0 0 0 0 0 0 0 0 0 0 0 0 0 0 0 0 0 0.1 0"/>
<feBlend mode="normal" in2="effect1_dropShadow_2037_2800" result="effect2_dropShadow_2037_2800"/>
<feColorMatrix in="SourceAlpha" type="matrix" values="0 0 0 0 0 0 0 0 0 0 0 0 0 0 0 0 0 0 127 0" result="hardAlpha"/>
<feOffset dx="2" dy="7"/>
<feGaussianBlur stdDeviation="3.5"/>
<feColorMatrix type="matrix" values="0 0 0 0 0 0 0 0 0 0 0 0 0 0 0 0 0 0 0.09 0"/>
<feBlend mode="normal" in2="effect2_dropShadow_2037_2800" result="effect3_dropShadow_2037_2800"/>
<feColorMatrix in="SourceAlpha" type="matrix" values="0 0 0 0 0 0 0 0 0 0 0 0 0 0 0 0 0 0 127 0" result="hardAlpha"/>
<feOffset dx="4" dy="16"/>
<feGaussianBlur stdDeviation="5"/>
<feColorMatrix type="matrix" values="0 0 0 0 0 0 0 0 0 0 0 0 0 0 0 0 0 0 0.05 0"/>
<feBlend mode="normal" in2="effect3_dropShadow_2037_2800" result="effect4_dropShadow_2037_2800"/>
<feColorMatrix in="SourceAlpha" type="matrix" values="0 0 0 0 0 0 0 0 0 0 0 0 0 0 0 0 0 0 127 0" result="hardAlpha"/>
<feOffset dx="7" dy="29"/>
<feGaussianBlur stdDeviation="6"/>
<feColorMatrix type="matrix" values="0 0 0 0 0 0 0 0 0 0 0 0 0 0 0 0 0 0 0.01 0"/>
<feBlend mode="normal" in2="effect4_dropShadow_2037_2800" result="effect5_dropShadow_2037_2800"/>
<feBlend mode="normal" in="SourceGraphic" in2="effect5_dropShadow_2037_2800" result="shape"/>
</filter>
<filter id="filter3_ddddd_2037_2800" x="36.061" y="72.8145" width="72.9805" height="96.2831" filterUnits="userSpaceOnUse" color-interpolation-filters="sRGB">
<feFlood flood-opacity="0" result="BackgroundImageFix"/>
<feColorMatrix in="SourceAlpha" type="matrix" values="0 0 0 0 0 0 0 0 0 0 0 0 0 0 0 0 0 0 127 0" result="hardAlpha"/>
<feOffset/>
<feColorMatrix type="matrix" values="0 0 0 0 0 0 0 0 0 0 0 0 0 0 0 0 0 0 0.1 0"/>
<feBlend mode="normal" in2="BackgroundImageFix" result="effect1_dropShadow_2037_2800"/>
<feColorMatrix in="SourceAlpha" type="matrix" values="0 0 0 0 0 0 0 0 0 0 0 0 0 0 0 0 0 0 127 0" result="hardAlpha"/>
<feOffset dy="2"/>
<feGaussianBlur stdDeviation="2"/>
<feColorMatrix type="matrix" values="0 0 0 0 0 0 0 0 0 0 0 0 0 0 0 0 0 0 0.1 0"/>
<feBlend mode="normal" in2="effect1_dropShadow_2037_2800" result="effect2_dropShadow_2037_2800"/>
<feColorMatrix in="SourceAlpha" type="matrix" values="0 0 0 0 0 0 0 0 0 0 0 0 0 0 0 0 0 0 127 0" result="hardAlpha"/>
<feOffset dx="2" dy="7"/>
<feGaussianBlur stdDeviation="3.5"/>
<feColorMatrix type="matrix" values="0 0 0 0 0 0 0 0 0 0 0 0 0 0 0 0 0 0 0.09 0"/>
<feBlend mode="normal" in2="effect2_dropShadow_2037_2800" result="effect3_dropShadow_2037_2800"/>
<feColorMatrix in="SourceAlpha" type="matrix" values="0 0 0 0 0 0 0 0 0 0 0 0 0 0 0 0 0 0 127 0" result="hardAlpha"/>
<feOffset dx="4" dy="16"/>
<feGaussianBlur stdDeviation="5"/>
<feColorMatrix type="matrix" values="0 0 0 0 0 0 0 0 0 0 0 0 0 0 0 0 0 0 0.05 0"/>
<feBlend mode="normal" in2="effect3_dropShadow_2037_2800" result="effect4_dropShadow_2037_2800"/>
<feColorMatrix in="SourceAlpha" type="matrix" values="0 0 0 0 0 0 0 0 0 0 0 0 0 0 0 0 0 0 127 0" result="hardAlpha"/>
<feOffset dx="7" dy="29"/>
<feGaussianBlur stdDeviation="6"/>
<feColorMatrix type="matrix" values="0 0 0 0 0 0 0 0 0 0 0 0 0 0 0 0 0 0 0.01 0"/>
<feBlend mode="normal" in2="effect4_dropShadow_2037_2800" result="effect5_dropShadow_2037_2800"/>
<feBlend mode="normal" in="SourceGraphic" in2="effect5_dropShadow_2037_2800" result="shape"/>
</filter>
<filter id="filter4_ddddd_2037_2800" x="44.6289" y="91.8901" width="42.8445" height="39.1359" filterUnits="userSpaceOnUse" color-interpolation-filters="sRGB">
<feFlood flood-opacity="0" result="BackgroundImageFix"/>
<feColorMatrix in="SourceAlpha" type="matrix" values="0 0 0 0 0 0 0 0 0 0 0 0 0 0 0 0 0 0 127 0" result="hardAlpha"/>
<feOffset/>
<feColorMatrix type="matrix" values="0 0 0 0 0 0 0 0 0 0 0 0 0 0 0 0 0 0 0.1 0"/>
<feBlend mode="normal" in2="BackgroundImageFix" result="effect1_dropShadow_2037_2800"/>
<feColorMatrix in="SourceAlpha" type="matrix" values="0 0 0 0 0 0 0 0 0 0 0 0 0 0 0 0 0 0 127 0" result="hardAlpha"/>
<feOffset dy="1"/>
<feGaussianBlur stdDeviation="1"/>
<feColorMatrix type="matrix" values="0 0 0 0 0 0 0 0 0 0 0 0 0 0 0 0 0 0 0.1 0"/>
<feBlend mode="normal" in2="effect1_dropShadow_2037_2800" result="effect2_dropShadow_2037_2800"/>
<feColorMatrix in="SourceAlpha" type="matrix" values="0 0 0 0 0 0 0 0 0 0 0 0 0 0 0 0 0 0 127 0" result="hardAlpha"/>
<feOffset dy="4"/>
<feGaussianBlur stdDeviation="2"/>
<feColorMatrix type="matrix" values="0 0 0 0 0 0 0 0 0 0 0 0 0 0 0 0 0 0 0.09 0"/>
<feBlend mode="normal" in2="effect2_dropShadow_2037_2800" result="effect3_dropShadow_2037_2800"/>
<feColorMatrix in="SourceAlpha" type="matrix" values="0 0 0 0 0 0 0 0 0 0 0 0 0 0 0 0 0 0 127 0" result="hardAlpha"/>
<feOffset dy="9"/>
<feGaussianBlur stdDeviation="2.5"/>
<feColorMatrix type="matrix" values="0 0 0 0 0 0 0 0 0 0 0 0 0 0 0 0 0 0 0.05 0"/>
<feBlend mode="normal" in2="effect3_dropShadow_2037_2800" result="effect4_dropShadow_2037_2800"/>
<feColorMatrix in="SourceAlpha" type="matrix" values="0 0 0 0 0 0 0 0 0 0 0 0 0 0 0 0 0 0 127 0" result="hardAlpha"/>
<feOffset dy="15"/>
<feGaussianBlur stdDeviation="3"/>
<feColorMatrix type="matrix" values="0 0 0 0 0 0 0 0 0 0 0 0 0 0 0 0 0 0 0.01 0"/>
<feBlend mode="normal" in2="effect4_dropShadow_2037_2800" result="effect5_dropShadow_2037_2800"/>
<feBlend mode="normal" in="SourceGraphic" in2="effect5_dropShadow_2037_2800" result="shape"/>
</filter>
<linearGradient id="paint0_linear_2037_2800" x1="45.2398" y1="22.7978" x2="198.442" y2="204.708" gradientUnits="userSpaceOnUse">
<stop offset="0.00520833" stop-color="white"/>
<stop offset="1" stop-color="#D3C7FF"/>
</linearGradient>
<linearGradient id="paint1_linear_2037_2800" x1="46.321" y1="53.1036" x2="46.4961" y2="58.0981" gradientUnits="userSpaceOnUse">
<stop stop-color="#927BE5"/>
<stop offset="1" stop-color="#512BD4"/>
</linearGradient>
<linearGradient id="paint2_linear_2037_2800" x1="37.1931" y1="64.2647" x2="37.3682" y2="69.2592" gradientUnits="userSpaceOnUse">
<stop stop-color="#927BE5"/>
<stop offset="1" stop-color="#512BD4"/>
</linearGradient>
<linearGradient id="paint3_linear_2037_2800" x1="31.3169" y1="45.2832" x2="110.37" y2="173.862" gradientUnits="userSpaceOnUse">
<stop stop-color="#927BE5"/>
<stop offset="1" stop-color="#512BD4"/>
</linearGradient>
<linearGradient id="paint4_linear_2037_2800" x1="46.7734" y1="86.4623" x2="69.9068" y2="126.732" gradientUnits="userSpaceOnUse">
<stop stop-color="#927BE5"/>
<stop offset="1" stop-color="#512BD4"/>
</linearGradient>
<clipPath id="clip0_2037_2800">
<rect width="180" height="190" fill="white" transform="translate(0.910645)"/>
</clipPath>
</defs>
</svg>
