<svg width="100" height="100" viewBox="0 0 100 100" fill="none" xmlns="http://www.w3.org/2000/svg">
<g clip-path="url(#clip0)">
<path d="M49.6401 96.4501C40.382 96.4501 31.3317 93.7047 23.6339 88.5612C15.936 83.4176 9.93624 76.1069 6.3933 67.5535C2.85036 59.0001 1.92337 49.5882 3.72954 40.5079C5.53571 31.4277 9.99394 23.0869 16.5404 16.5404C23.0869 9.99393 31.4277 5.53571 40.5079 3.72954C49.5882 1.92337 59.0001 2.85036 67.5535 6.3933C76.1069 9.93624 83.4176 15.936 88.5612 23.6339C93.7047 31.3317 96.4501 40.382 96.4501 49.6401C96.4505 55.7874 95.24 61.8746 92.8878 67.554C90.5355 73.2335 87.0875 78.3939 82.7407 82.7407C78.3939 87.0875 73.2335 90.5355 67.554 92.8878C61.8746 95.24 55.7874 96.4505 49.6401 96.4501V96.4501Z" fill="url(#paint0_linear)"/>
<path fill-rule="evenodd" clip-rule="evenodd" d="M95.54 49.64C95.54 58.7182 92.848 67.5925 87.8045 75.1407C82.7609 82.6889 75.5923 88.572 67.2052 92.0461C58.818 95.5201 49.5891 96.4291 40.6854 94.658C31.7816 92.887 23.603 88.5154 17.1838 82.0962C10.7646 75.677 6.39302 67.4984 4.62196 58.5946C2.85089 49.6909 3.75987 40.462 7.23393 32.0748C10.708 23.6877 16.5911 16.5191 24.1393 11.4755C31.6875 6.43199 40.5618 3.74 49.64 3.74C55.6677 3.73998 61.6363 4.9272 67.2052 7.23388C72.774 9.54057 77.834 12.9215 82.0963 17.1837C86.3585 21.446 89.7394 26.5059 92.0461 32.0748C94.3528 37.6437 95.54 43.6123 95.54 49.64V49.64ZM49.64 3.62732e-07C59.4579 3.62732e-07 69.0553 2.91134 77.2185 8.36585C85.3818 13.8204 91.7442 21.5731 95.5014 30.6436C99.2585 39.7141 100.242 49.6951 98.3262 59.3243C96.4108 68.9535 91.6831 77.7985 84.7408 84.7408C77.7985 91.6831 68.9535 96.4108 59.3243 98.3262C49.6951 100.242 39.7141 99.2585 30.6436 95.5014C21.5731 91.7442 13.8204 85.3818 8.36585 77.2185C2.91134 69.0553 3.62732e-07 59.4579 3.62732e-07 49.64C-0.000787738 43.121 1.28265 36.6656 3.77702 30.6427C6.27138 24.6197 9.9278 19.1471 14.5375 14.5375C19.1471 9.9278 24.6197 6.27138 30.6427 3.77702C36.6656 1.28265 43.121 -0.000787738 49.64 3.62732e-07V3.62732e-07Z" fill="#F2F1F0"/>
<path fill-rule="evenodd" clip-rule="evenodd" d="M92.7296 49.6406C92.7296 58.163 90.2024 66.494 85.4676 73.5801C80.7328 80.6662 74.0031 86.1892 66.1294 89.4505C58.2557 92.7119 49.5918 93.5653 41.2331 91.9026C32.8745 90.24 25.1966 86.1361 19.1703 80.1098C13.1441 74.0836 9.04017 66.4057 7.37753 58.047C5.7149 49.6884 6.56822 41.0244 9.8296 33.1507C13.091 25.2771 18.6139 18.5473 25.7 13.8126C32.7862 9.07776 41.1172 6.55058 49.6396 6.55058C55.2983 6.55023 60.9017 7.66455 66.1298 9.82991C71.3579 11.9953 76.1082 15.1692 80.1096 19.1706C84.1109 23.1719 87.2849 27.9223 89.4502 33.1503C91.6156 38.3784 92.7299 43.9818 92.7296 49.6406V49.6406ZM49.6396 2.81058C58.9017 2.81058 67.9558 5.55711 75.6569 10.7029C83.3581 15.8486 89.3604 23.1624 92.9049 31.7195C96.4493 40.2766 97.3767 49.6925 95.5697 58.7767C93.7628 67.8608 89.3027 76.2051 82.7534 82.7544C76.2041 89.3037 67.8598 93.7638 58.7757 95.5708C49.6915 97.3777 40.2756 96.4503 31.7185 92.9059C23.1614 89.3614 15.8476 83.3591 10.7018 75.6579C5.5561 67.9568 2.80957 58.9027 2.80957 49.6406C2.81076 37.2209 7.745 25.3101 16.5271 16.5281C25.3091 7.74599 37.2198 2.81174 49.6396 2.81055V2.81058Z" fill="#0078D4"/>
<path fill-rule="evenodd" clip-rule="evenodd" d="M92.7296 49.6405C92.7296 58.1629 90.2024 66.494 85.4676 73.5801C80.7328 80.6662 74.0031 86.1891 66.1294 89.4505C58.2557 92.7119 49.5918 93.5652 41.2331 91.9026C32.8745 90.24 25.1966 86.136 19.1703 80.1098C13.1441 74.0835 9.04017 66.4056 7.37753 58.047C5.7149 49.6883 6.56822 41.0244 9.8296 33.1507C13.091 25.277 18.6139 18.5473 25.7001 13.8125C32.7862 9.07773 41.1172 6.55055 49.6396 6.55055C55.2983 6.5502 60.9017 7.66452 66.1298 9.82988C71.3579 11.9952 76.1082 15.1692 80.1096 19.1705C84.1109 23.1719 87.2849 27.9222 89.4502 33.1503C91.6156 38.3784 92.7299 43.9818 92.7296 49.6405V49.6405ZM49.6396 2.81055C58.9017 2.81055 67.9558 5.55708 75.6569 10.7028C83.3581 15.8486 89.3604 23.1624 92.9048 31.7195C96.4493 40.2765 97.3767 49.6925 95.5697 58.7766C93.7628 67.8608 89.3027 76.2051 82.7534 82.7544C76.2041 89.3036 67.8598 93.7638 58.7757 95.5707C49.6915 97.3777 40.2756 96.4503 31.7185 92.9058C23.1614 89.3614 15.8476 83.3591 10.7018 75.6579C5.5561 67.9568 2.80957 58.9026 2.80957 49.6405C2.81076 37.2208 7.74501 25.3101 16.5271 16.5281C25.3091 7.74599 37.2198 2.81174 49.6396 2.81055V2.81055Z" fill="#0078D4"/>
<path d="M24.2316 25.3612C24.192 25.3614 24.1527 25.3538 24.116 25.3389C24.0793 25.3239 24.046 25.3019 24.0178 25.2741C23.9896 25.2462 23.9672 25.2131 23.9518 25.1766C23.9365 25.14 23.9284 25.1009 23.9282 25.0612V25.0578C23.9268 24.1396 23.5615 23.2595 22.9123 22.6103C22.2631 21.9611 21.3829 21.5957 20.4648 21.5944C20.3846 21.5944 20.3077 21.5626 20.2509 21.5061C20.194 21.4496 20.1618 21.3728 20.1614 21.2927V21.2927C20.1614 21.2122 20.1933 21.135 20.2502 21.0781C20.3072 21.0212 20.3843 20.9893 20.4648 20.9893C21.3832 20.9879 22.2636 20.6223 22.9129 19.9727C23.5622 19.3231 23.9273 18.4426 23.9282 17.5241C23.928 17.4845 23.9356 17.4452 23.9505 17.4085C23.9655 17.3718 23.9875 17.3385 24.0154 17.3103C24.0432 17.2821 24.0764 17.2597 24.1129 17.2443C24.1494 17.229 24.1886 17.2209 24.2282 17.2207H24.2317C24.2713 17.2205 24.3106 17.2281 24.3472 17.243C24.3839 17.258 24.4173 17.28 24.4455 17.3079C24.4737 17.3357 24.4961 17.3689 24.5115 17.4054C24.5268 17.4419 24.5349 17.4811 24.5351 17.5207V17.5242C24.5364 18.4423 24.9018 19.3224 25.551 19.9717C26.2002 20.6209 27.0804 20.9862 27.9985 20.9876C28.0381 20.9874 28.0774 20.9949 28.1141 21.0099C28.1508 21.0248 28.1842 21.0469 28.2123 21.0747C28.2405 21.1026 28.2629 21.1357 28.2783 21.1722C28.2937 21.2088 28.3017 21.248 28.3019 21.2876V21.291C28.3024 21.371 28.271 21.448 28.2148 21.5049C28.1585 21.5618 28.082 21.594 28.0019 21.5944H27.9985C27.0802 21.5954 26.1998 21.9605 25.5505 22.6098C24.9012 23.2591 24.536 24.1395 24.5351 25.0578C24.5346 25.1381 24.5025 25.215 24.4457 25.2718C24.3889 25.3286 24.312 25.3607 24.2316 25.3612V25.3612Z" fill="#50E6FF"/>
<path d="M46.0515 46.3766C46.0196 46.3766 45.988 46.3703 45.9585 46.3581C45.929 46.3459 45.9022 46.328 45.8796 46.3054C45.857 46.2828 45.8391 46.256 45.8269 46.2265C45.8147 46.197 45.8084 46.1654 45.8084 46.1335V46.1335C45.8075 45.399 45.5153 44.6949 44.996 44.1756C44.4766 43.6562 43.7725 43.364 43.038 43.3631C42.9739 43.3631 42.9123 43.3378 42.8667 43.2925C42.8212 43.2473 42.7954 43.1859 42.7949 43.1218C42.7949 43.0573 42.8205 42.9955 42.8661 42.9499C42.9117 42.9043 42.9735 42.8787 43.038 42.8787V42.8787C43.7726 42.8782 44.477 42.5862 44.9965 42.0668C45.5159 41.5473 45.8079 40.8429 45.8084 40.1083C45.8084 40.0438 45.834 39.982 45.8796 39.9364C45.9252 39.8908 45.987 39.8652 46.0515 39.8652V39.8652C46.1159 39.8652 46.1778 39.8908 46.2233 39.9364C46.2689 39.982 46.2945 40.0438 46.2945 40.1083V40.1083C46.295 40.8429 46.587 41.5473 47.1065 42.0668C47.6259 42.5862 48.3303 42.8782 49.0649 42.8787C49.1294 42.8786 49.1913 42.9041 49.2369 42.9496C49.2826 42.9951 49.3083 43.0569 49.3084 43.1213C49.3085 43.1858 49.283 43.2477 49.2375 43.2934C49.192 43.339 49.1302 43.3647 49.0658 43.3648H49.0649C48.3304 43.3658 47.6263 43.6579 47.107 44.1773C46.5876 44.6966 46.2954 45.4008 46.2945 46.1352C46.2941 46.1994 46.2683 46.2608 46.2227 46.306C46.1772 46.3512 46.1156 46.3766 46.0515 46.3766V46.3766Z" fill="#50E6FF"/>
<path d="M44.9449 29.2641C45.4311 31.2993 45.3029 33.433 44.5764 35.3954C43.85 37.3577 42.558 39.0606 40.8637 40.2886C39.1695 41.5167 37.1492 42.2148 35.0582 42.2946C32.9672 42.3744 30.8995 41.8324 29.1166 40.7371C27.3337 39.6418 25.9156 38.0424 25.0416 36.1411C24.1677 34.2399 23.8772 32.1222 24.2068 30.0558C24.5364 27.9894 25.4714 26.0672 26.8935 24.5322C28.3156 22.9972 30.1609 21.9184 32.1962 21.4322H32.1963C34.9254 20.7802 37.8018 21.2391 40.1926 22.7078C42.5834 24.1766 44.2928 26.5349 44.9449 29.2641V29.2641Z" fill="url(#paint1_radial)"/>
<path d="M28.981 38.8933C29.7292 38.9121 30.4543 38.6332 30.9969 38.1177C31.5396 37.6023 31.8554 36.8925 31.875 36.1443C31.8946 35.3961 31.6164 34.6707 31.1015 34.1276C30.5866 33.5844 29.8771 33.2679 29.1289 33.2475C29.0825 33.2463 29.0361 33.2463 28.9896 33.2473C28.998 33.1672 29.002 33.0866 29.0017 33.006C28.9949 32.2526 28.6896 31.5327 28.1528 31.004C27.6161 30.4753 26.8916 30.181 26.1382 30.1856H24.0212C23.8141 31.7498 23.953 33.3404 24.4282 34.8451C24.9033 36.3497 25.703 37.7316 26.7709 38.8933H28.981Z" fill="#F2F2F2"/>
<path d="M45.0759 29.7569C45.078 29.731 45.0738 29.705 45.0639 29.681C44.7229 27.8363 43.8848 26.1196 42.64 24.716C42.4785 24.6506 42.3118 24.5987 42.1418 24.5609C41.6888 24.4316 41.2123 24.4069 40.7484 24.4884C40.2844 24.57 39.845 24.7558 39.4633 25.0318C39.0815 25.3078 38.7674 25.6669 38.5445 26.0819C38.3217 26.4969 38.1959 26.9571 38.1767 27.4278C38.0622 27.4146 37.9471 27.4071 37.8319 27.4054C37.1258 27.4053 36.4424 27.6548 35.9023 28.1098C35.3623 28.5647 35.0004 29.1958 34.8806 29.8917C34.7608 30.5876 34.8907 31.3034 35.2475 31.9128C35.6042 32.5222 36.1648 32.9859 36.8303 33.222C37.1273 33.3384 37.4439 33.3969 37.7629 33.3944H41.2625C42.6677 32.3307 43.9471 31.1103 45.0759 29.7569V29.7569Z" fill="#F2F2F2"/>
<path d="M48.7753 22.89C47.6909 21.085 45.155 20.3816 41.6123 20.9091C40.3985 21.0812 39.1989 21.3416 38.023 21.6884C38.9558 22.0104 39.8417 22.455 40.6572 23.0106C41.0727 22.9193 41.4899 22.8106 41.8898 22.7503C42.519 22.6524 43.1546 22.6011 43.7913 22.5969C44.4138 22.5071 45.0489 22.5745 45.6387 22.7928C46.2286 23.0111 46.7545 23.3734 47.1686 23.8467V23.8467C47.8288 24.9466 47.272 26.8275 45.6411 29.0186C43.3746 31.8397 40.5973 34.2089 37.4541 36.0023C34.3814 37.9201 30.9755 39.2429 27.4139 39.9019C24.7176 40.3053 22.7903 39.9019 22.13 38.8054C21.4697 37.709 22.0266 35.823 23.6574 33.6422C23.8591 33.3716 23.9091 33.2388 24.1384 32.9664C24.0306 32.0318 24.0457 31.0871 24.1832 30.1564C23.4503 30.8911 22.7759 31.6819 22.1662 32.5217C20.0302 35.3783 19.451 37.947 20.5336 39.7519C21.1056 40.5171 21.8683 41.1186 22.7457 41.4965C23.623 41.8744 24.5842 42.0153 25.5331 41.9051C26.2553 41.9013 26.9761 41.8437 27.6897 41.7327C31.4915 41.0388 35.1286 39.6352 38.4109 37.5952C41.7631 35.6768 44.7231 33.1431 47.1358 30.1271C49.2787 27.2636 49.8579 24.6967 48.7753 22.89Z" fill="#50E6FF"/>
<path d="M43.2631 77.6058H35.5227V40.8438H43.2631" stroke="white" stroke-width="0.98479" stroke-linejoin="round"/>
<path d="M72.6966 58.0184H62.0707V40.8438H51.4351" stroke="white" stroke-width="0.98479" stroke-linejoin="round"/>
<path d="M55.03 40.8438H72.3032" stroke="white" stroke-width="0.98479" stroke-linejoin="round"/>
<path d="M43.2434 56H26.0884" stroke="white" stroke-width="0.98479" stroke-linejoin="round"/>
<path d="M57.6697 35.1035H40.692C40.6104 35.1032 40.5296 35.119 40.4541 35.1501C40.3787 35.1811 40.3102 35.2268 40.2525 35.2845C40.1948 35.3422 40.1491 35.4107 40.1181 35.4861C40.087 35.5615 40.0712 35.6424 40.0715 35.7239V37.0534H58.2901V35.7239C58.2904 35.6424 58.2746 35.5615 58.2436 35.4861C58.2125 35.4107 58.1668 35.3422 58.1091 35.2845C58.0515 35.2268 57.9829 35.1811 57.9075 35.1501C57.8321 35.119 57.7512 35.1032 57.6697 35.1035V35.1035Z" fill="white"/>
<path d="M83.8955 35.1035H66.9178C66.8362 35.1032 66.7554 35.119 66.68 35.1501C66.6045 35.1811 66.536 35.2268 66.4783 35.2845C66.4206 35.3422 66.375 35.4107 66.3439 35.4861C66.3128 35.5615 66.297 35.6424 66.2974 35.7239V37.0534H84.5159V35.7239C84.5163 35.6424 84.5004 35.5615 84.4694 35.4861C84.4383 35.4107 84.3926 35.3422 84.335 35.2845C84.2773 35.2268 84.2088 35.1811 84.1333 35.1501C84.0579 35.119 83.9771 35.1032 83.8955 35.1035V35.1035Z" fill="white"/>
<path d="M84.3086 52.0313H67.3407C67.2592 52.0309 67.1783 52.0467 67.1029 52.0778C67.0275 52.1088 66.9589 52.1545 66.9012 52.2122C66.8435 52.2699 66.7979 52.3384 66.7668 52.4138C66.7357 52.4893 66.7199 52.5701 66.7202 52.6517V53.9811H84.9388V52.6517C84.9356 52.4864 84.8679 52.329 84.7501 52.2131C84.6323 52.0971 84.4739 52.0319 84.3086 52.0313V52.0313Z" fill="white"/>
<path d="M57.6697 72.0039H40.692C40.6104 72.0036 40.5296 72.0194 40.4541 72.0504C40.3787 72.0815 40.3102 72.1272 40.2525 72.1849C40.1948 72.2425 40.1491 72.3111 40.1181 72.3865C40.087 72.4619 40.0712 72.5428 40.0715 72.6243V73.9538H58.2901V72.6243C58.2904 72.5428 58.2746 72.4619 58.2436 72.3865C58.2125 72.3111 58.1668 72.2425 58.1091 72.1849C58.0515 72.1272 57.9829 72.0815 57.9075 72.0504C57.8321 72.0194 57.7512 72.0036 57.6697 72.0039V72.0039Z" fill="white"/>
<path d="M58.2901 36.6797H40.0715V47.3449C40.0718 47.4989 40.1331 47.6465 40.242 47.7554C40.3509 47.8643 40.4985 47.9256 40.6525 47.9259H57.6992C57.8532 47.9256 58.0008 47.8643 58.1097 47.7554C58.2186 47.6465 58.2799 47.4989 58.2802 47.3449L58.2901 36.6797ZM84.5159 36.6797H66.2973V47.3449C66.2976 47.4989 66.3589 47.6465 66.4678 47.7554C66.5767 47.8643 66.7243 47.9256 66.8783 47.9259H83.925C84.079 47.9256 84.2266 47.8643 84.3355 47.7554C84.4444 47.6465 84.5057 47.4989 84.506 47.3449L84.5159 36.6797ZM84.9294 53.6082H66.7108V64.2734C66.7111 64.4274 66.7724 64.575 66.8813 64.6839C66.9902 64.7928 67.1378 64.8541 67.2918 64.8544H84.3385C84.4925 64.8541 84.6401 64.7928 84.749 64.6839C84.8579 64.575 84.9192 64.4274 84.9195 64.2734V53.6082H84.9294ZM58.2901 73.5796H40.0715V84.2449C40.0718 84.3989 40.1331 84.5465 40.242 84.6554C40.3509 84.7643 40.4985 84.8256 40.6525 84.8259H57.6992C57.8532 84.8256 58.0008 84.7643 58.1097 84.6554C58.2186 84.5465 58.2799 84.3989 58.2802 84.2449L58.2901 73.5796ZM58.2901 53.0764H40.0715V68.183C40.0708 68.3087 40.0951 68.4332 40.1428 68.5494C40.1906 68.6656 40.2609 68.7712 40.3497 68.86C40.4386 68.9489 40.5442 69.0192 40.6604 69.067C40.7766 69.1147 40.9011 69.139 41.0268 69.1382H57.3349C57.4605 69.139 57.585 69.1147 57.7012 69.067C57.8175 69.0192 57.9231 68.9489 58.0119 68.86C58.1007 68.7712 58.1711 68.6656 58.2188 68.5494C58.2666 68.4332 58.2908 68.3087 58.2901 68.183V53.0764Z" fill="url(#paint2_linear)"/>
<path d="M57.4136 51.5H40.948C40.7157 51.5005 40.4931 51.593 40.3288 51.7573C40.1646 51.9215 40.072 52.1442 40.0715 52.3765V53.4597H58.2901V52.3765C58.2906 52.2612 58.2684 52.147 58.2245 52.0404C58.1807 51.9338 58.1161 51.8369 58.0346 51.7554C57.9531 51.6739 57.8563 51.6094 57.7497 51.5656C57.6431 51.5217 57.5289 51.4994 57.4136 51.5V51.5Z" fill="white"/>
<path fill-rule="evenodd" clip-rule="evenodd" d="M22.4637 48.5664C21 48.5664 19.5691 49.0004 18.3521 49.8136C17.135 50.6268 16.1865 51.7827 15.6263 53.135C15.0662 54.4873 14.9196 55.9753 15.2052 57.4109C15.4908 58.8465 16.1956 60.1652 17.2306 61.2002C18.2656 62.2352 19.5843 62.94 21.0199 63.2256C22.4555 63.5111 23.9435 63.3646 25.2958 62.8044C26.6481 62.2443 27.8039 61.2957 28.6171 60.0787C29.4303 58.8617 29.8644 57.4308 29.8644 55.9671C29.8622 54.005 29.0818 52.1238 27.6944 50.7364C26.3069 49.349 24.4258 48.5686 22.4637 48.5664Z" fill="white"/>
<path fill-rule="evenodd" clip-rule="evenodd" d="M29.8171 55.1222C29.6012 53.2449 28.6754 51.5212 27.2295 50.3046C25.7836 49.0879 23.9271 48.4704 22.0405 48.5786C20.1539 48.6867 18.3802 49.5125 17.0828 50.8864C15.7855 52.2604 15.0628 54.0786 15.063 55.9683C15.063 56.0568 15.0667 56.1445 15.0696 56.2326C15.1346 54.4718 15.8248 52.7917 17.0164 51.4937C18.208 50.1957 19.823 49.3646 21.5719 49.1496C21.6836 49.1361 21.7969 49.1464 21.9043 49.1798C22.0117 49.2133 22.1108 49.2691 22.1951 49.3437C22.2794 49.4182 22.3469 49.5098 22.3932 49.6123C22.4395 49.7149 22.4635 49.8261 22.4637 49.9386V57.2859C22.1374 57.2854 21.823 57.164 21.5811 56.945C21.3393 56.726 21.1873 56.4251 21.1546 56.1005C21.1465 56.16 21.1427 56.2201 21.1429 56.2802C21.1533 56.5548 21.2492 56.8193 21.4172 57.0368C21.5852 57.2543 21.8169 57.4139 22.0799 57.4934C22.1899 57.5252 22.2866 57.5917 22.3558 57.683C22.4249 57.7742 22.4628 57.8853 22.4637 57.9998V63.369C23.5067 63.3678 24.5376 63.1465 25.4892 62.7194C26.4407 62.2923 27.2913 61.6692 27.9854 60.8908C28.6796 60.1123 29.2015 59.1961 29.5171 58.202C29.8328 57.208 29.935 56.1585 29.8171 55.1222V55.1222Z" fill="#F2F2F2"/>
<path fill-rule="evenodd" clip-rule="evenodd" d="M22.4638 64.4249C23.9881 64.4265 25.4841 64.0134 26.7916 63.23L25.1116 60.3868C25.0229 60.2544 24.9047 60.1443 24.7663 60.0654C24.6279 59.9864 24.473 59.9406 24.3139 59.9316H20.3493C20.1913 59.9404 20.0377 59.9872 19.9016 60.068C19.7655 60.1488 19.6509 60.2612 19.5675 60.3958L18.0498 63.1784C19.3772 63.995 20.9054 64.4265 22.4638 64.4249Z" fill="#1F56A3"/>
<path fill-rule="evenodd" clip-rule="evenodd" d="M28.8071 55.967C28.808 56.8 28.644 57.625 28.3247 58.3943C28.0053 59.1637 27.5369 59.8622 26.9464 60.4498L25.2654 58.7688C25.634 58.4012 25.9265 57.9646 26.1261 57.4838C26.3256 57.003 26.4283 56.4876 26.4283 55.9671C26.4283 55.4465 26.3256 54.9311 26.1261 54.4503C25.9265 53.9696 25.634 53.5329 25.2654 53.1654L26.9464 51.4844C27.5369 52.0719 28.0053 52.7704 28.3247 53.5398C28.644 54.3091 28.808 55.1341 28.8071 55.967V55.967Z" fill="#7CB65A"/>
<path fill-rule="evenodd" clip-rule="evenodd" d="M26.9463 51.4857L25.2653 53.1667C24.8978 52.7981 24.4612 52.5056 23.9804 52.3061C23.4996 52.1065 22.9842 52.0038 22.4636 52.0038C21.9431 52.0038 21.4277 52.1065 20.9469 52.3061C20.4661 52.5056 20.0295 52.7981 19.662 53.1667L17.981 51.4857C18.569 50.8959 19.2677 50.428 20.0369 50.1087C20.8061 49.7894 21.6308 49.625 22.4637 49.625C23.2965 49.625 24.1212 49.7894 24.8904 50.1087C25.6597 50.428 26.3583 50.8959 26.9464 51.4857H26.9463Z" fill="#F7CB64"/>
<path fill-rule="evenodd" clip-rule="evenodd" d="M18.4991 55.9671C18.4986 56.4877 18.6011 57.0033 18.8007 57.4841C19.0003 57.965 19.293 58.4016 19.6621 58.7688L17.9811 60.4498C17.3913 59.8617 16.9233 59.1631 16.604 58.3939C16.2847 57.6246 16.1204 56.7999 16.1204 55.9671C16.1204 55.1342 16.2847 54.3095 16.604 53.5403C16.9233 52.7711 17.3913 52.0724 17.9811 51.4844L19.6621 53.1654C19.293 53.5326 19.0003 53.9692 18.8007 54.45C18.6011 54.9309 18.4986 55.4465 18.4991 55.9671V55.9671Z" fill="#DF5142"/>
<path fill-rule="evenodd" clip-rule="evenodd" d="M24.314 59.9316H22.4639V64.4249C23.9881 64.4265 25.4842 64.0134 26.7917 63.23L25.1117 60.3868C25.023 60.2544 24.9048 60.1444 24.7664 60.0654C24.628 59.9864 24.4731 59.9406 24.314 59.9316V59.9316Z" fill="#003067"/>
<path fill-rule="evenodd" clip-rule="evenodd" d="M22.4638 63.3684C21.0001 63.3684 19.5692 62.9343 18.3522 62.1211C17.1352 61.3079 16.1866 60.1521 15.6264 58.7998C15.0663 57.4475 14.9197 55.9595 15.2053 54.5239C15.4909 53.0883 16.1957 51.7696 17.2307 50.7346C18.2657 49.6996 19.5844 48.9948 21.02 48.7092C22.4556 48.4237 23.9436 48.5702 25.2959 49.1303C26.6482 49.6905 27.804 50.6391 28.6172 51.8561C29.4304 53.0731 29.8645 54.504 29.8645 55.9677C29.8623 57.9298 29.0819 59.811 27.6945 61.1984C26.3071 62.5858 24.4259 63.3662 22.4638 63.3684V63.3684ZM22.4638 47.5098C20.791 47.5098 19.1557 48.0058 17.7648 48.9352C16.3739 49.8646 15.2898 51.1855 14.6497 52.731C14.0095 54.2765 13.842 55.9771 14.1684 57.6178C14.4947 59.2584 15.3003 60.7655 16.4831 61.9484C17.666 63.1312 19.1731 63.9368 20.8137 64.2631C22.4544 64.5895 24.155 64.422 25.7005 63.7818C27.246 63.1416 28.5669 62.0576 29.4963 60.6667C30.4257 59.2758 30.9217 57.6405 30.9217 55.9677C30.9192 53.7253 30.0273 51.5754 28.4417 49.9898C26.856 48.4042 24.7062 47.5123 22.4638 47.5098V47.5098Z" fill="#003067"/>
<path fill-rule="evenodd" clip-rule="evenodd" d="M23.3485 55.0035C23.5221 55.1661 23.6484 55.3727 23.714 55.6013C23.7796 55.8298 23.7821 56.0719 23.7212 56.3018C25.0449 55.5417 27.1377 54.3042 27.0568 54.121C26.9709 53.9278 24.4758 54.499 23.1069 54.8283C23.1939 54.8773 23.2749 54.9361 23.3485 55.0035V55.0035Z" fill="#182A37"/>
<path fill-rule="evenodd" clip-rule="evenodd" d="M23.3636 55.0003C23.1722 54.8223 22.9323 54.705 22.6743 54.6634C22.4162 54.6217 22.1516 54.6575 21.9139 54.7663C21.6762 54.875 21.4761 55.0518 21.3389 55.2742C21.2016 55.4967 21.1335 55.7549 21.143 56.0161C21.1525 56.2773 21.2392 56.5298 21.3922 56.7417C21.5453 56.9537 21.7577 57.1154 22.0027 57.2066C22.2476 57.2978 22.5142 57.3143 22.7685 57.254C23.0228 57.1937 23.2536 57.0593 23.4316 56.8679C23.6698 56.611 23.7964 56.2702 23.7837 55.9201C23.7709 55.57 23.6199 55.2392 23.3636 55.0003V55.0003Z" fill="#546670"/>
<path fill-rule="evenodd" clip-rule="evenodd" d="M23.3954 55.0352L21.532 56.8988C21.5433 56.9102 21.5515 56.9237 21.5637 56.9348C21.8168 57.1709 22.1527 57.2982 22.4988 57.289C22.8449 57.2799 23.1735 57.1351 23.4138 56.8859C23.6542 56.6366 23.7869 56.3029 23.7834 55.9567C23.78 55.6105 23.6406 55.2795 23.3954 55.0352V55.0352Z" fill="#30404D"/>
<path fill-rule="evenodd" clip-rule="evenodd" d="M22.4445 55.4398C22.34 55.4435 22.2389 55.4782 22.1541 55.5394C22.0693 55.6007 22.0045 55.6857 21.968 55.7837C21.9315 55.8817 21.9249 55.9883 21.9491 56.0901C21.9732 56.1919 22.027 56.2842 22.1036 56.3554C22.1802 56.4266 22.2762 56.4735 22.3794 56.4901C22.4827 56.5068 22.5886 56.4924 22.6837 56.4488C22.7788 56.4053 22.8588 56.3345 22.9137 56.2455C22.9685 56.1564 22.9957 56.0531 22.9919 55.9486C22.9866 55.8086 22.926 55.6764 22.8234 55.581C22.7208 55.4856 22.5845 55.4348 22.4445 55.4398V55.4398Z" fill="#182A37"/>
<path fill-rule="evenodd" clip-rule="evenodd" d="M25.2653 53.1667L26.9463 51.4857C26.3588 50.8952 25.6603 50.4268 24.8909 50.1074C24.1216 49.7881 23.2966 49.6241 22.4636 49.625V52.0038C22.9842 52.0033 23.4998 52.1058 23.9807 52.3054C24.4615 52.505 24.8981 52.7977 25.2653 53.1667V53.1667Z" fill="#EFB252"/>
<path fill-rule="evenodd" clip-rule="evenodd" d="M24.314 62.0462C24.3136 62.1862 24.2578 62.3205 24.1587 62.4195C24.0597 62.5186 23.9255 62.5744 23.7854 62.5748H20.878C20.7379 62.5744 20.6037 62.5186 20.5046 62.4195C20.4056 62.3205 20.3498 62.1862 20.3494 62.0462V61.2532C20.3498 61.1132 20.4056 60.9789 20.5046 60.8799C20.6037 60.7808 20.7379 60.725 20.878 60.7246H23.7854C23.9255 60.725 24.0597 60.7808 24.1587 60.8799C24.2578 60.9789 24.3136 61.1132 24.314 61.2532V62.0462Z" fill="#1F56A3"/>
<path fill-rule="evenodd" clip-rule="evenodd" d="M23.7854 60.7246H20.878C20.7379 60.725 20.6037 60.7808 20.5046 60.8799C20.4056 60.9789 20.3498 61.1132 20.3494 61.2532V61.5175C20.3498 61.3775 20.4056 61.2432 20.5046 61.1442C20.6037 61.0452 20.7379 60.9893 20.878 60.9889H23.7854C23.9255 60.9893 24.0597 61.0452 24.1587 61.1442C24.2578 61.2432 24.3136 61.3775 24.314 61.5175V61.2532C24.3136 61.1132 24.2578 60.9789 24.1587 60.8799C24.0597 60.7808 23.9255 60.725 23.7854 60.7246V60.7246Z" fill="#003067"/>
<path d="M51.9948 40.2181H41.6494V38.7109H51.9948V40.2181ZM51.9948 40.8447H41.6494V42.3518H51.9948V40.8447ZM51.9948 42.9784H41.6494V44.4855H51.9948V42.9784Z" fill="#50E6FF"/>
<path d="M51.9948 77.1028H41.6494V75.5957H51.9948V77.1028ZM51.9948 77.7294H41.6494V79.2365H51.9948V77.7294ZM51.9948 79.8632H41.6494V81.3703H51.9948V79.8632Z" fill="#50E6FF"/>
<path d="M51.9948 57.2806H41.6494V55.7734H51.9948V57.2806ZM51.9948 57.9072H41.6494V59.4143H51.9948V57.9072ZM51.9948 60.0409H41.6494V61.548H51.9948V60.0409ZM51.9948 62.1791H41.6494V63.6863H51.9948V62.1791Z" fill="#50E6FF"/>
<path d="M78.5903 40.2181H68.2449V38.7109H78.5903V40.2181ZM78.5903 40.8447H68.2449V42.3518H78.5903V40.8447ZM78.5903 42.9784H68.2449V44.4855H78.5903V42.9784Z" fill="#50E6FF"/>
<path d="M78.5903 57.2806H68.2449V55.7734H78.5903V57.2806ZM78.5903 57.9072H68.2449V59.4143H78.5903V57.9072Z" fill="#50E6FF"/>
</g>
<defs>
<linearGradient id="paint0_linear" x1="47.8698" y1="-15.153" x2="51.8525" y2="130.615" gradientUnits="userSpaceOnUse">
<stop stop-color="#00ABDE"/>
<stop offset="1" stop-color="#007ED8"/>
</linearGradient>
<radialGradient id="paint1_radial" cx="0" cy="0" r="1" gradientUnits="userSpaceOnUse" gradientTransform="translate(34.5732 31.7225) scale(10.6357 10.5433)">
<stop offset="0.183" stop-color="#5EA0EF"/>
<stop offset="1" stop-color="#0078D4"/>
</radialGradient>
<linearGradient id="paint2_linear" x1="71.7" y1="76.8323" x2="46.361" y2="32.9438" gradientUnits="userSpaceOnUse">
<stop stop-color="#003067"/>
<stop offset="1" stop-color="#005BA1"/>
</linearGradient>
<clipPath id="clip0">
<rect width="99.2799" height="99.28" fill="white"/>
</clipPath>
</defs>
</svg>
