<svg width="100" height="100" viewBox="0 0 100 100" fill="none" xmlns="http://www.w3.org/2000/svg"><g clip-path="url(#clip0_2601429)"><path d="M49.6401 96.4499c-9.2581 0-18.3084-2.7454-26.0062-7.8889C15.936 83.4174 9.93624 76.1067 6.3933 67.5533 2.85036 58.9999 1.92337 49.588 3.72954 40.5077c1.80617-9.0802 6.2644-17.421 12.81086-23.9675C23.0869 9.99372 31.4277 5.5355 40.5079 3.72933c9.0803-1.80618 18.4922-.87918 27.0456 2.66375 8.5534 3.54294 15.8641 9.54272 21.0077 17.24052 5.1435 7.6979 7.8889 16.7481 7.8889 26.0063.0004 6.1473-1.2101 12.2345-3.5623 17.9139-2.3523 5.6794-5.8003 10.8399-10.1471 15.1867s-9.5072 7.7948-15.1867 10.1471c-5.6794 2.3522-11.7666 3.5627-17.9139 3.5623z" fill="url(#paint0_linear_2601429)"/><path fill-rule="evenodd" clip-rule="evenodd" d="M95.54 49.6399c0 9.0781-2.692 17.9524-7.7355 25.5007-5.0436 7.5482-12.2122 13.4313-20.5993 16.9054-8.3872 3.474-17.6161 4.383-26.5198 2.6119-8.9038-1.771-17.0824-6.1426-23.5016-12.5618S6.39302 67.4983 4.62196 58.5945c-1.77107-8.9037-.86209-18.1327 2.61197-26.5198C10.708 23.6876 16.5911 16.519 24.1393 11.4754 31.6875 6.43187 40.5618 3.73988 49.64 3.73988c6.0277-.00002 11.9963 1.1872 17.5652 3.49389C72.774 9.54045 77.834 12.9214 82.0963 17.1836c4.2622 4.2622 7.6431 9.3222 9.9498 14.8911 2.3067 5.5688 3.4939 11.5375 3.4939 17.5652zM49.64-.00010645c9.8179 0 19.4152 2.91133645 27.5785 8.36584645C85.3818 13.8203 91.7442 21.573 95.5014 30.6435c3.7571 9.0705 4.7406 19.0515 2.8248 28.6807-1.9154 9.6292-6.6431 18.4742-13.5854 25.4165-6.9423 6.9423-15.7873 11.67-25.4165 13.5854-9.6292 1.9149-19.6102.9323-28.6807-2.8248-9.0705-3.7572-16.8232-10.1197-22.27776-18.2829C2.91133 69.0551-.00000162 59.4577 3.6e-7 49.6399-.00078643 43.1208 1.28265 36.6655 3.77702 30.6425 6.27138 24.6196 9.92781 19.147 14.5375 14.5374c4.6096-4.6097 10.0822-8.26613 16.1052-10.76049C36.6656 1.28254 43.121-.00089455 49.64-.00010645z" fill="#F2F1F0"/><path fill-rule="evenodd" clip-rule="evenodd" d="M92.7296 49.64c0 8.5224-2.5272 16.8534-7.262 23.9395-4.7348 7.0861-11.4645 12.6091-19.3382 15.8705-7.8737 3.2613-16.5376 4.1147-24.8963 2.452-8.3586-1.6626-16.0365-5.7665-22.0628-11.7928C13.1441 74.083 9.04017 66.4051 7.37753 58.0464 5.7149 49.6878 6.56822 41.0238 9.8296 33.1502 13.091 25.2765 18.6139 18.5468 25.7 13.812 32.7862 9.07718 41.1172 6.55 49.6396 6.55c5.6587-.00035 11.2621 1.11397 16.4902 3.27933 5.2281 2.16537 9.9784 5.33937 13.9798 9.34067 4.0013 4.0013 7.1753 8.7517 9.3406 13.9798 2.1654 5.228 3.2797 10.8314 3.2794 16.4902zm-43.09-46.83c9.2621 0 18.3162 2.74653 26.0173 7.8923 7.7012 5.1457 13.7035 12.4596 17.248 21.0166 3.5444 8.5571 4.4718 17.973 2.6648 27.0572-1.8069 9.0841-6.267 17.4284-12.8163 23.9777-6.5493 6.5493-14.8936 11.0094-23.9777 12.8164-9.0842 1.8069-18.5001.8795-27.0572-2.6649-8.5571-3.5445-15.8709-9.5468-21.0167-17.2479C5.5561 67.9562 2.80957 58.9021 2.80957 49.64c.00119-12.4197 4.93544-24.3304 13.71753-33.1125C25.3091 7.74544 37.2198 2.81119 49.6396 2.81z" fill="#0078D4"/><path fill-rule="evenodd" clip-rule="evenodd" d="M92.7296 49.6399c0 8.5224-2.5272 16.8534-7.262 23.9395-4.7348 7.0861-11.4645 12.6091-19.3382 15.8705-7.8737 3.2613-16.5376 4.1147-24.8963 2.452-8.3586-1.6626-16.0365-5.7665-22.0628-11.7928C13.1441 74.0829 9.04017 66.405 7.37753 58.0463 5.7149 49.6877 6.56822 41.0237 9.8296 33.1501c3.2614-7.8737 8.7843-14.6034 15.8705-19.3382 7.0861-4.73482 15.4171-7.262 23.9395-7.262 5.6587-.00034 11.2621 1.11398 16.4902 3.27933 5.2281 2.16537 9.9784 5.33937 13.9798 9.34067 4.0013 4.0013 7.1753 8.7517 9.3406 13.9798 2.1654 5.228 3.2797 10.8314 3.2794 16.4902zm-43.09-46.83c9.2621 0 18.3162 2.74653 26.0173 7.8923 7.7012 5.1457 13.7035 12.4596 17.2479 21.0166 3.5445 8.5571 4.4719 17.973 2.6649 27.0572-1.8069 9.0841-6.267 17.4284-12.8163 23.9777-6.5493 6.5493-14.8936 11.0094-23.9777 12.8164-9.0842 1.8069-18.5001.8795-27.0572-2.6649-8.5571-3.5445-15.8709-9.5468-21.0167-17.2479-5.1457-7.7012-7.89223-16.7553-7.89223-26.0174.00118-12.4197 4.93542-24.3304 13.71753-33.1125 8.782-8.7821 20.6927-13.71635 33.1125-13.71754v.00004z" fill="#0078D4"/><path d="M61.545 77.9029c-2.0087 1.5613-4.3055 2.7113-6.759 3.3843-2.4534.673-5.0155.8558-7.5397.5379-2.5242-.3179-4.9609-1.1303-7.1709-2.3906-2.21-1.2604-4.1499-2.944-5.7087-4.9546-1.5588-2.0106-2.706-4.3088-3.376-6.7631-.67-2.4543-.8496-5.0166-.5286-7.5404.321-2.5238 1.1364-4.9595 2.3994-7.168 1.2631-2.2084 2.9491-4.1462 4.9616-5.7026l.2049-.1366c4.0807-3.0457 9.1975-4.3602 14.2409-3.6586 5.0435.7017 9.6071 3.363 12.7015 7.4069 3.0944 4.044 4.4701 9.1446 3.8289 14.1961-.6412 5.0515-3.2477 9.6467-7.2543 12.7893z" fill="url(#paint1_radial_2601429)"/><path opacity=".6" d="M44.4252 58.5749c5.4735-5.2058 12.7305-8.1216 20.2842-8.1501-.9922-1.2275-2.1315-2.3285-3.3921-3.2783-3.6748.2267-7.2847 1.0734-10.6771 2.5042-3.4927 1.5002-6.6505 3.6829-9.2884 6.4199 1.2679.4812 2.346 1.3597 3.0734 2.5043zM34.8407 66.3607c-.7821 1.9367-1.4138 3.9308-1.8895 5.9646.4203.7307.892 1.4306 1.4114 2.0945.4098.5236.7968 1.0017 1.2522 1.4798.55-2.7097 1.3738-5.3565 2.4587-7.8997-1.2152-.217-2.3396-.7871-3.2328-1.6392z" fill="#fff"/><path opacity=".55" d="M37.0718 56.0251c-.8033-2.156-1.3311-4.4048-1.5707-6.6931-.9554 1.0034-1.7954 2.1106-2.5043 3.301.257 1.8436.6916 3.6582 1.2977 5.4182.7133-.9267 1.6771-1.6298 2.7773-2.0261z" fill="#F2F2F2"/><path d="M39.1662 68.0909c3.4325 0 6.2151-2.7826 6.2151-6.215 0-3.4325-2.7826-6.2151-6.2151-6.2151-3.4325 0-6.215 2.7826-6.215 6.2151 0 3.4324 2.7825 6.215 6.215 6.215z" fill="url(#paint2_linear_2601429)"/><path opacity=".55" d="M48.2269 73.236c.0009-.5397.1101-1.0737.3213-1.5704.2112-.4967.52-.9458.9081-1.3209-2.0988-1.1504-4.0357-2.5743-5.7597-4.2344-.9009.9747-2.0892 1.6366-3.3922 1.8896 1.0271 1.0513 2.1304 2.0253 3.301 2.914 1.4577 1.1007 3.021 2.0539 4.667 2.8457-.0264-.1734-.0416-.3483-.0455-.5236zM62.5694 73.714c-2.1156.0013-4.2242-.2431-6.2834-.7285.0113.0831.0113.1674 0 .2505.0016.5237-.1002 1.0426-.2994 1.527-.1992.4844-.492.9248-.8616 1.2959 2.5621.5077 5.1779.6912 7.7859.5464 1.0116-.915 1.9201-1.9379 2.7091-3.0506-1.0129.1124-2.0315.1656-3.0506.1593z" fill="#F2F2F2"/><path d="M52.2564 77.2883c2.238 0 4.0523-1.8143 4.0523-4.0523 0-2.2381-1.8143-4.0523-4.0523-4.0523-2.238 0-4.0523 1.8142-4.0523 4.0523 0 2.238 1.8143 4.0523 4.0523 4.0523z" fill="url(#paint3_linear_2601429)"/><path opacity=".7" d="M57.2423 62.445c.2009-.8905.6888-1.6903 1.3887-2.2765-3.7486-2.7252-7.1574-5.8894-10.1535-9.425-1.7461-2.0505-3.2722-4.2786-4.5532-6.6476-.8503.2549-1.6799.5746-2.4814.9562 1.3709 2.5794 3.0116 5.0062 4.8946 7.2395 3.2004 3.823 6.8634 7.2336 10.9048 10.1534z" fill="#F2F2F2"/><path d="M61.4765 67.5218c2.3764 0 4.3028-1.9264 4.3028-4.3027 0-2.3764-1.9264-4.3028-4.3028-4.3028-2.3763 0-4.3027 1.9264-4.3027 4.3028 0 2.3763 1.9264 4.3027 4.3027 4.3027z" fill="url(#paint4_linear_2601429)"/><path opacity=".55" d="M68.6935 66.1103l-.7968-.387-.683-.3642h-.1366l-.5919-.4781h-.1594l-.7057-.4554c-.2445.8383-.7561 1.5737-1.457 2.0945.2732.1821.5691.3415.8651.5008l.1821.1139.7968.4325 1.9579 1.0245c.2758-.8268.4964-1.671.6602-2.527l.0683.0455z" fill="#F2F2F2"/><path d="M39.1662 68.0909c3.4325 0 6.2151-2.7826 6.2151-6.215 0-3.4325-2.7826-6.2151-6.2151-6.2151-3.4325 0-6.215 2.7826-6.215 6.2151 0 3.4324 2.7825 6.215 6.215 6.215z" fill="url(#paint5_linear_2601429)"/><path d="M52.2564 77.2883c2.238 0 4.0523-1.8143 4.0523-4.0523 0-2.2381-1.8143-4.0523-4.0523-4.0523-2.238 0-4.0523 1.8142-4.0523 4.0523 0 2.238 1.8143 4.0523 4.0523 4.0523z" fill="url(#paint6_linear_2601429)"/><path d="M37.9249 19.3452h-9.9472c-.7889 0-1.4284.6395-1.4284 1.4284V37.78c0 .7889.6395 1.4284 1.4284 1.4284h9.9472c.7889 0 1.4284-.6395 1.4284-1.4284V20.7736c0-.7889-.6395-1.4284-1.4284-1.4284z" fill="#C3F1FF"/><path d="M54.6136 19.3452h-9.9472c-.7888 0-1.4284.6395-1.4284 1.4284V37.78c0 .7889.6396 1.4284 1.4284 1.4284h9.9472c.7889 0 1.4284-.6395 1.4284-1.4284V20.7736c0-.7889-.6395-1.4284-1.4284-1.4284z" fill="#0078D4"/><path d="M71.3026 19.3452h-9.9472c-.7889 0-1.4284.6395-1.4284 1.4284V37.78c0 .7889.6395 1.4284 1.4284 1.4284h9.9472c.7888 0 1.4284-.6395 1.4284-1.4284V20.7736c0-.7889-.6396-1.4284-1.4284-1.4284z" fill="#1F56A3"/><path d="M27.978 62.6019h-7.854v-6" stroke="#fff" stroke-linecap="round" stroke-linejoin="round"/><path d="M20.124 51.4926V40.83" stroke="#fff" stroke-linecap="round" stroke-linejoin="round" stroke-dasharray="7.11 7.11"/><path d="M20.124 35.277v-6h3.126M71.5459 62.6019h7.853v-6" stroke="#fff" stroke-linecap="round" stroke-linejoin="round"/><path d="M79.3994 51.4926V40.83" stroke="#fff" stroke-linecap="round" stroke-linejoin="round" stroke-dasharray="7.11 7.11"/><path d="M79.3989 35.277v-6h-3.125" stroke="#fff" stroke-linecap="round" stroke-linejoin="round"/><path fill-rule="evenodd" clip-rule="evenodd" d="M34.9859 28.4961c-.1007-.1007-.2372-.1572-.3796-.1572s-.279.0565-.3797.1572l-1.77 1.7687-.6393-.6332c-.015-.0222-.0319-.0431-.0505-.0623-.0998-.1012-.2357-.1586-.3779-.1597-.1421-.001-.2789.0543-.3802.154s-.159.2355-.1603.3776c-.0013.1421.0539.279.1534.3805l-.0064.0064 1.0831 1.0733c.1008.1006.2374.1571.3798.1571.1424 0 .279-.0565.3798-.1571l2.1462-2.1452.0016-.0013c.0498-.0498.0894-.109.1164-.1741.027-.0651.0409-.1348.0409-.2053 0-.0705-.0139-.1403-.0409-.2054-.027-.0651-.0665-.1242-.1164-.174z" fill="#0078D4"/><path fill-rule="evenodd" clip-rule="evenodd" d="M51.5538 28.4961c-.1007-.1007-.2373-.1572-.3797-.1572-.1424 0-.2789.0565-.3796.1572l-1.77 1.7687-.6394-.6332c-.0149-.0222-.0318-.0431-.0504-.0623-.0999-.1012-.2358-.1586-.3779-.1597-.1421-.001-.2789.0543-.3802.154-.1014.0997-.159.2355-.1603.3776-.0013.1421.0539.279.1534.3805l-.0065.0064 1.0832 1.0733c.1008.1006.2374.1571.3798.1571.1424 0 .279-.0565.3798-.1571l2.1461-2.1452.0016-.0013c.0499-.0498.0894-.109.1164-.1741.027-.0651.0409-.1348.0409-.2053 0-.0705-.0138-.1403-.0408-.2054-.027-.0651-.0665-.1242-.1164-.174z" fill="#1B93EB"/><path opacity=".2" fill-rule="evenodd" clip-rule="evenodd" d="M68.3182 28.4961c-.1007-.1007-.2373-.1572-.3797-.1572-.1424 0-.2789.0565-.3796.1572l-1.77 1.7687-.6394-.6332c-.0149-.0222-.0318-.0431-.0504-.0623-.0999-.1012-.2358-.1586-.3779-.1597-.1421-.001-.2789.0543-.3802.154-.1014.0997-.159.2355-.1603.3776-.0013.1421.0539.279.1534.3805l-.0065.0064 1.0832 1.0733c.1008.1006.2374.1571.3798.1571.1424 0 .279-.0565.3798-.1571l2.1461-2.1452.0016-.0013c.0499-.0498.0894-.109.1164-.1741.027-.0651.0409-.1348.0409-.2053 0-.0705-.0138-.1403-.0408-.2054-.027-.0651-.0665-.1242-.1164-.174z" fill="#003067"/></g><defs><linearGradient id="paint0_linear_2601429" x1="47.8698" y1="-15.1532" x2="51.8525" y2="130.615" gradientUnits="userSpaceOnUse"><stop stop-color="#00ABDE"/><stop offset="1" stop-color="#007ED8"/></linearGradient><linearGradient id="paint2_linear_2601429" x1="39.2146" y1="68.2502" x2="39.1463" y2="59.2578" gradientUnits="userSpaceOnUse"><stop stop-color="#CCC"/><stop offset="1" stop-color="#FCFCFC"/></linearGradient><linearGradient id="paint3_linear_2601429" x1="-4099.27" y1="5505.4" x2="-4099.27" y2="5570.9" gradientUnits="userSpaceOnUse"><stop stop-color="#CCC"/><stop offset="1" stop-color="#FCFCFC"/></linearGradient><linearGradient id="paint4_linear_2601429" x1="61.5109" y1="67.6342" x2="61.4624" y2="61.3991" gradientUnits="userSpaceOnUse"><stop stop-color="#CCC"/><stop offset="1" stop-color="#FCFCFC"/></linearGradient><linearGradient id="paint5_linear_2601429" x1="39.2146" y1="68.2502" x2="39.1463" y2="59.2578" gradientUnits="userSpaceOnUse"><stop stop-color="#CCC"/><stop offset="1" stop-color="#FCFCFC"/></linearGradient><linearGradient id="paint6_linear_2601429" x1="52.2887" y1="77.3941" x2="52.2431" y2="71.5219" gradientUnits="userSpaceOnUse"><stop stop-color="#CCC"/><stop offset="1" stop-color="#FCFCFC"/></linearGradient><radialGradient id="paint1_radial_2601429" cx="0" cy="0" r="1" gradientUnits="userSpaceOnUse" gradientTransform="translate(49.64 62.6021) scale(19.3644)"><stop offset=".18" stop-color="#5EA0EF"/><stop offset="1" stop-color="#0078D4"/></radialGradient><clipPath id="clip0_2601429"><path fill="#fff" d="M0 0h99.2799v99.28H0z"/></clipPath></defs></svg>