<svg width="100" height="100" viewBox="0 0 100 100" fill="none" xmlns="http://www.w3.org/2000/svg">
<g clip-path="url(#clip0_362_2917)">
<path d="M49.6401 96.4499C40.382 96.4499 31.3317 93.7045 23.6339 88.561C15.936 83.4174 9.93624 76.1067 6.3933 67.5533C2.85036 58.9999 1.92337 49.588 3.72954 40.5077C5.53571 31.4275 9.99394 23.0867 16.5404 16.5402C23.0869 9.99372 31.4277 5.5355 40.5079 3.72933C49.5882 1.92315 59.0001 2.85015 67.5535 6.39308C76.1069 9.93602 83.4176 15.9358 88.5612 23.6336C93.7047 31.3315 96.4501 40.3817 96.4501 49.6399C96.4505 55.7872 95.24 61.8744 92.8878 67.5538C90.5355 73.2332 87.0875 78.3937 82.7407 82.7405C78.3939 87.0873 73.2335 90.5353 67.554 92.8876C61.8746 95.2398 55.7874 96.4503 49.6401 96.4499V96.4499Z" fill="url(#paint0_linear_362_2917)"/>
<path fill-rule="evenodd" clip-rule="evenodd" d="M95.54 49.6399C95.54 58.718 92.848 67.5923 87.8045 75.1406C82.7609 82.6888 75.5923 88.5719 67.2052 92.046C58.818 95.52 49.5891 96.429 40.6854 94.6579C31.7816 92.8869 23.603 88.5153 17.1838 82.0961C10.7646 75.6769 6.39302 67.4983 4.62196 58.5945C2.85089 49.6908 3.75987 40.4618 7.23393 32.0747C10.708 23.6876 16.5911 16.519 24.1393 11.4754C31.6875 6.43187 40.5618 3.73988 49.64 3.73988C55.6677 3.73986 61.6363 4.92708 67.2052 7.23377C72.774 9.54045 77.834 12.9214 82.0963 17.1836C86.3585 21.4458 89.7394 26.5058 92.0461 32.0747C94.3528 37.6435 95.54 43.6122 95.54 49.6399V49.6399ZM49.64 -0.000106449C59.4579 -0.000106449 69.0552 2.91123 77.2185 8.36574C85.3818 13.8203 91.7442 21.573 95.5014 30.6435C99.2585 39.714 100.242 49.695 98.3262 59.3242C96.4108 68.9534 91.6831 77.7984 84.7408 84.7407C77.7985 91.683 68.9535 96.4107 59.3243 98.3261C49.6951 100.241 39.7141 99.2584 30.6436 95.5013C21.5731 91.7441 13.8204 85.3816 8.36584 77.2184C2.91133 69.0551 -1.61629e-06 59.4577 3.61524e-07 49.6399C-0.000786426 43.1208 1.28265 36.6655 3.77702 30.6425C6.27138 24.6196 9.92781 19.147 14.5375 14.5374C19.1471 9.9277 24.6197 6.27127 30.6427 3.77691C36.6656 1.28254 43.121 -0.000894549 49.64 -0.000106449V-0.000106449Z" fill="#F2F1F0"/>
<path fill-rule="evenodd" clip-rule="evenodd" d="M92.7296 49.64C92.7296 58.1624 90.2024 66.4934 85.4676 73.5795C80.7328 80.6656 74.0031 86.1886 66.1294 89.45C58.2557 92.7113 49.5918 93.5647 41.2331 91.902C32.8745 90.2394 25.1966 86.1355 19.1703 80.1092C13.1441 74.083 9.04017 66.4051 7.37753 58.0464C5.7149 49.6878 6.56822 41.0238 9.8296 33.1502C13.091 25.2765 18.6139 18.5468 25.7 13.812C32.7862 9.07718 41.1172 6.55 49.6396 6.55C55.2983 6.54965 60.9017 7.66397 66.1298 9.82933C71.3579 11.9947 76.1082 15.1687 80.1096 19.17C84.1109 23.1713 87.2849 27.9217 89.4502 33.1498C91.6156 38.3778 92.7299 43.9812 92.7296 49.64ZM49.6396 2.81C58.9017 2.81 67.9558 5.55653 75.6569 10.7023C83.3581 15.848 89.3604 23.1619 92.9049 31.7189C96.4493 40.276 97.3767 49.6919 95.5697 58.7761C93.7628 67.8602 89.3027 76.2045 82.7534 82.7538C76.2041 89.3031 67.8598 93.7632 58.7757 95.5702C49.6915 97.3771 40.2756 96.4497 31.7185 92.9053C23.1614 89.3608 15.8476 83.3585 10.7018 75.6574C5.5561 67.9562 2.80957 58.9021 2.80957 49.64C2.81076 37.2203 7.74501 25.3096 16.5271 16.5275C25.3091 7.74544 37.2198 2.81119 49.6396 2.81V2.81Z" fill="#0078D4"/>
<path fill-rule="evenodd" clip-rule="evenodd" d="M92.7296 49.6399C92.7296 58.1623 90.2024 66.4933 85.4676 73.5794C80.7328 80.6655 74.0031 86.1885 66.1294 89.4499C58.2557 92.7112 49.5918 93.5646 41.2331 91.9019C32.8745 90.2393 25.1966 86.1354 19.1703 80.1091C13.1441 74.0829 9.04017 66.405 7.37753 58.0463C5.7149 49.6877 6.56822 41.0237 9.8296 33.1501C13.091 25.2764 18.6139 18.5467 25.7001 13.8119C32.7862 9.07708 41.1172 6.5499 49.6396 6.5499C55.2983 6.54956 60.9017 7.66388 66.1298 9.82923C71.3579 11.9946 76.1082 15.1686 80.1096 19.1699C84.1109 23.1712 87.2849 27.9216 89.4502 33.1497C91.6156 38.3777 92.7299 43.9811 92.7296 49.6399V49.6399ZM49.6396 2.8099C58.9017 2.8099 67.9558 5.55643 75.6569 10.7022C83.3581 15.8479 89.3604 23.1618 92.9048 31.7188C96.4493 40.2759 97.3767 49.6918 95.5697 58.776C93.7628 67.8601 89.3027 76.2044 82.7534 82.7537C76.2041 89.303 67.8598 93.7631 58.7757 95.5701C49.6915 97.377 40.2756 96.4496 31.7185 92.9052C23.1614 89.3607 15.8476 83.3584 10.7018 75.6573C5.5561 67.9561 2.80957 58.902 2.80957 49.6399C2.81075 37.2202 7.74499 25.3095 16.5271 16.5274C25.3091 7.7453 37.2198 2.81105 49.6396 2.80986V2.8099Z" fill="#0078D4"/>
<path d="M65.9753 70.5876C60.4047 74.8984 53.3505 76.8213 46.3629 75.9336C39.3753 75.046 33.026 71.4204 28.7101 65.8538C24.3943 60.2871 22.4651 53.2346 23.3464 46.2463C24.2277 39.2579 27.8475 32.9052 33.4103 28.5844L33.6915 28.3968C39.2935 24.2155 46.3178 22.4108 53.2415 23.3739C60.1652 24.3371 66.4302 27.9905 70.6782 33.5421C74.9262 39.0937 76.8147 46.0959 75.9343 53.0306C75.054 59.9654 71.4757 66.2736 65.9753 70.5876" fill="url(#paint1_radial_362_2917)"/>
<path opacity="0.6" d="M42.4735 44.0543C49.9875 36.9079 59.9497 32.9051 70.3194 32.8659C68.9572 31.1809 67.3933 29.6695 65.6628 28.3656C60.6181 28.6768 55.6624 29.8391 51.0054 31.8034C46.2107 33.8629 41.8756 36.8592 38.2544 40.6165C39.9949 41.2771 41.4749 42.4831 42.4735 44.0543V44.0543Z" fill="white"/>
<path opacity="0.6" d="M29.3164 54.7425C28.2427 57.4012 27.3755 60.1387 26.7224 62.9307C27.2994 63.9337 27.9469 64.8946 28.6601 65.8059C29.2226 66.5247 29.7539 67.181 30.379 67.8373C31.1341 64.1175 32.2649 60.484 33.7542 56.9927C32.086 56.6948 30.5425 55.9122 29.3164 54.7425V54.7425Z" fill="white"/>
<path opacity="0.55" d="M32.3791 40.554C31.2762 37.5943 30.5517 34.5071 30.2227 31.3658C28.9112 32.7432 27.758 34.2632 26.7849 35.8974C27.1377 38.4283 27.7343 40.9193 28.5663 43.3355C29.5456 42.0633 30.8686 41.0981 32.3791 40.554Z" fill="#F2F2F2"/>
<path d="M35.2543 57.1177C39.9664 57.1177 43.7862 53.2978 43.7862 48.5858C43.7862 43.8738 39.9664 40.0539 35.2543 40.0539C30.5423 40.0539 26.7224 43.8738 26.7224 48.5858C26.7224 53.2978 30.5423 57.1177 35.2543 57.1177Z" fill="url(#paint2_linear_362_2917)"/>
<path opacity="0.55" d="M47.6927 64.1808C47.6939 63.4399 47.8439 62.7068 48.1338 62.025C48.4237 61.3432 48.8476 60.7265 49.3804 60.2117C46.4991 58.6324 43.8403 56.6777 41.4735 54.3987C40.2368 55.7368 38.6055 56.6455 36.8169 56.9927C38.2268 58.436 39.7415 59.7731 41.3485 60.993C43.3495 62.504 45.4956 63.8126 47.7552 64.8996C47.719 64.6615 47.6981 64.4215 47.6927 64.1808V64.1808Z" fill="#F2F2F2"/>
<path opacity="0.55" d="M67.3816 64.8371C64.4774 64.8388 61.5828 64.5032 58.756 63.837C58.7714 63.951 58.7714 64.0667 58.756 64.1808C58.7581 64.8998 58.6184 65.6121 58.3449 66.2771C58.0714 66.9421 57.6695 67.5466 57.1621 68.0561C60.6794 68.753 64.2703 69.005 67.8504 68.8061C69.2392 67.5501 70.4863 66.1458 71.5694 64.6183C70.179 64.7727 68.7806 64.8457 67.3816 64.8371Z" fill="#F2F2F2"/>
<path d="M53.2243 69.7437C56.2966 69.7437 58.7872 67.2531 58.7872 64.1808C58.7872 61.1084 56.2966 58.6178 53.2243 58.6178C50.152 58.6178 47.6614 61.1084 47.6614 64.1808C47.6614 67.2531 50.152 69.7437 53.2243 69.7437Z" fill="url(#paint3_linear_362_2917)"/>
<path opacity="0.7" d="M60.0686 49.3672C60.3445 48.1447 61.0142 47.0467 61.975 46.242C56.829 42.501 52.1495 38.1572 48.0364 33.3035C45.6394 30.4886 43.5445 27.4299 41.7859 24.1778C40.6186 24.5277 39.4797 24.9665 38.3794 25.4904C40.2614 29.0314 42.5137 32.3628 45.0987 35.4286C49.4921 40.6769 54.5206 45.3589 60.0686 49.3672V49.3672Z" fill="#F2F2F2"/>
<path d="M65.8816 56.3364C69.1437 56.3364 71.7883 53.6919 71.7883 50.4297C71.7883 47.1675 69.1437 44.523 65.8816 44.523C62.6194 44.523 59.9749 47.1675 59.9749 50.4297C59.9749 53.6919 62.6194 56.3364 65.8816 56.3364Z" fill="url(#paint4_linear_362_2917)"/>
<path opacity="0.55" d="M75.7886 54.3987L74.6947 53.8675L73.7572 53.3675H73.5696L72.7571 52.7112H72.5383L71.5695 52.0862C71.2339 53.2369 70.5315 54.2465 69.5693 54.9614C69.9443 55.2114 70.3506 55.4301 70.7569 55.6489L71.0069 55.8052L72.1008 56.399L74.7885 57.8053C75.1672 56.6704 75.47 55.5115 75.6948 54.3363L75.7886 54.3987Z" fill="#F2F2F2"/>
<path d="M35.2543 57.1177C39.9664 57.1177 43.7862 53.2978 43.7862 48.5858C43.7862 43.8738 39.9664 40.0539 35.2543 40.0539C30.5423 40.0539 26.7224 43.8738 26.7224 48.5858C26.7224 53.2978 30.5423 57.1177 35.2543 57.1177Z" fill="url(#paint5_linear_362_2917)"/>
<path d="M53.2243 69.7437C56.2966 69.7437 58.7872 67.2531 58.7872 64.1808C58.7872 61.1084 56.2966 58.6178 53.2243 58.6178C50.152 58.6178 47.6614 61.1084 47.6614 64.1808C47.6614 67.2531 50.152 69.7437 53.2243 69.7437Z" fill="url(#paint6_linear_362_2917)"/>
<path d="M69.8495 67.2601C69.8495 68.0337 69.62 68.79 69.1902 69.4333C68.7604 70.0766 68.1495 70.578 67.4347 70.8741C66.7199 71.1701 65.9334 71.2476 65.1746 71.0967C64.4158 70.9457 63.7188 70.5732 63.1717 70.0261C62.6246 69.479 62.2521 68.782 62.1011 68.0232C61.9502 67.2644 62.0277 66.4779 62.3237 65.7631C62.6198 65.0484 63.1212 64.4374 63.7645 64.0076C64.4078 63.5778 65.164 63.3483 65.9377 63.3483C66.9748 63.3496 67.969 63.7621 68.7024 64.4954C69.4357 65.2288 69.8482 66.223 69.8495 67.2601V67.2601ZM77.0787 65.1532L75.2597 64.7487C75.0715 64.6802 74.9179 64.5402 74.8322 64.3591C74.8262 64.3392 74.819 64.3196 74.8107 64.3005L74.3088 63.0808C74.3002 63.0597 74.2904 63.0385 74.2799 63.0182C74.2118 62.8312 74.2207 62.6247 74.3048 62.4443L75.3055 60.8718C75.5101 60.5313 75.5975 60.1331 75.5542 59.7382C75.5109 59.3434 75.3393 58.9736 75.0657 58.6855L74.5122 58.132C74.2215 57.8631 73.8522 57.6947 73.4586 57.6515C73.065 57.6083 72.6679 57.6927 72.3259 57.8923L70.7531 58.8925C70.6528 58.9427 70.5416 58.9669 70.4296 58.9629C70.344 58.966 70.2587 58.9507 70.1796 58.9179C70.1592 58.907 70.1381 58.8973 70.1166 58.8889L68.8973 58.3866C68.8781 58.3786 68.8585 58.3716 68.8386 58.3655C68.6575 58.2797 68.5175 58.1259 68.449 57.9376L68.0449 56.119C67.9488 55.7334 67.7289 55.39 67.419 55.1414C67.109 54.8927 66.7261 54.7526 66.3288 54.7425H65.5465C65.1493 54.7525 64.7664 54.8925 64.4565 55.1411C64.1466 55.3897 63.9268 55.7331 63.8308 56.1186L63.4263 57.9384C63.3574 58.1263 63.2175 58.2797 63.0367 58.3655C63.0167 58.3714 62.9972 58.3788 62.9776 58.3866L61.7583 58.8889C61.7368 58.8974 61.7158 58.907 61.6953 58.9179C61.6162 58.9508 61.531 58.9661 61.4453 58.9629C61.3332 58.9666 61.2219 58.9424 61.1215 58.8925L59.5493 57.8926C59.2073 57.6932 58.8102 57.6089 58.4167 57.652C58.0231 57.6952 57.6537 57.8636 57.3631 58.1324L56.8096 58.6855C56.5359 58.9736 56.3642 59.3435 56.3209 59.7384C56.2776 60.1334 56.365 60.5317 56.5698 60.8722L57.5704 62.4443C57.6541 62.6247 57.6631 62.8308 57.5954 63.0178C57.5848 63.0385 57.5746 63.0597 57.566 63.0808L57.0642 64.3005C57.0563 64.3196 57.0489 64.3392 57.0427 64.3592C56.957 64.5403 56.8034 64.6805 56.6151 64.7492L54.7965 65.1528C54.411 65.2489 54.0675 65.4688 53.8189 65.7787C53.5703 66.0887 53.4302 66.4717 53.4202 66.8689V67.6512C53.4302 68.0484 53.5703 68.4313 53.8189 68.7412C54.0675 69.0511 54.4108 69.2709 54.7963 69.3669L56.6157 69.771C56.8038 69.8398 56.9572 69.9799 57.0428 70.161C57.0491 70.181 57.0565 70.2005 57.0643 70.2197L57.5662 71.4394C57.5748 71.4605 57.5846 71.4812 57.5955 71.502C57.6633 71.6891 57.6541 71.8954 57.5701 72.0758L56.5699 73.6479C56.365 73.9884 56.2775 74.3867 56.3209 74.7817C56.3642 75.1767 56.5359 75.5466 56.8097 75.8346L57.3632 76.3881C57.654 76.6568 58.0234 76.8251 58.417 76.8683C58.8106 76.9115 59.2077 76.8272 59.5498 76.6279L61.1212 75.6277C61.2218 75.5776 61.3332 75.5534 61.4455 75.5573C61.5311 75.5538 61.6164 75.5692 61.6955 75.6023C61.7162 75.6124 61.7369 75.6226 61.7585 75.6312L62.9778 76.1335C62.9973 76.1413 63.0169 76.1483 63.0368 76.1546C63.2178 76.2405 63.3577 76.394 63.4264 76.5821L63.8309 78.4011C63.9268 78.7868 64.1466 79.1302 64.4565 79.3789C64.7664 79.6276 65.1494 79.7677 65.5466 79.7777H66.3289C66.7261 79.7675 67.109 79.6274 67.4189 79.3788C67.7288 79.1301 67.9486 78.7867 68.0446 78.4011L68.4491 76.5821C68.5178 76.394 68.6577 76.2404 68.8387 76.1546C68.8587 76.1483 68.8782 76.1413 68.8974 76.1335L70.1167 75.6312C70.1382 75.6226 70.1593 75.6124 70.1797 75.6023C70.2586 75.5693 70.3438 75.554 70.4293 75.5573C70.5414 75.5533 70.6528 75.5775 70.7531 75.6277L72.3257 76.6275C72.6677 76.8271 73.0648 76.9115 73.4585 76.8684C73.8521 76.8253 74.2216 76.657 74.5123 76.3881L75.0654 75.835C75.3392 75.5469 75.5109 75.177 75.5543 74.782C75.5977 74.387 75.5103 73.9886 75.3056 73.648L74.305 72.0759C74.2634 71.9866 74.2397 71.89 74.2354 71.7916C74.2312 71.6932 74.2463 71.5949 74.28 71.5024C74.2906 71.4817 74.3004 71.4609 74.309 71.4398L74.8108 70.2197C74.8192 70.2006 74.8263 70.181 74.8323 70.1611C74.9182 69.9798 75.0719 69.8397 75.2603 69.7711L77.0785 69.367C77.4641 69.2711 77.8077 69.0514 78.0564 68.7415C78.3051 68.4315 78.4453 68.0486 78.4554 67.6513V66.8689C78.4454 66.4717 78.3053 66.0887 78.0566 65.7788C77.8079 65.4688 77.4644 65.2491 77.0787 65.1532V65.1532Z" fill="url(#paint7_linear_362_2917)"/>
<path opacity="0.2" d="M69.8494 67.2601C69.8494 68.0337 69.6199 68.79 69.1901 69.4333C68.7603 70.0766 68.1494 70.578 67.4346 70.8741C66.7198 71.1701 65.9333 71.2476 65.1745 71.0967C64.4157 70.9457 63.7187 70.5732 63.1716 70.0261C62.6245 69.479 62.252 68.782 62.101 68.0232C61.9501 67.2644 62.0276 66.4779 62.3236 65.7631C62.6197 65.0484 63.1211 64.4374 63.7644 64.0076C64.4077 63.5778 65.164 63.3483 65.9376 63.3483C66.9747 63.3496 67.9689 63.7621 68.7023 64.4954C69.4356 65.2288 69.8481 66.223 69.8494 67.2601V67.2601Z" fill="url(#paint8_linear_362_2917)"/>
<path opacity="0.2" d="M71.3728 64.7183C71.4197 64.6535 71.4705 64.5918 71.5167 64.5266L71.4987 64.5281C73.2319 61.9742 74.506 59.1373 75.2634 56.1452C74.6431 55.7548 73.9249 55.5478 73.1919 55.5483C72.4877 55.5432 71.7966 55.739 71.1997 56.1128L70.2554 56.7134L70.187 56.685L69.9448 55.5947C69.7478 54.7659 69.28 54.0264 68.6155 53.4933C67.951 52.9601 67.1278 52.6637 66.2759 52.6509H65.4937C64.6422 52.664 63.8194 52.9604 63.1552 53.4932C62.491 54.026 62.0232 54.765 61.8257 55.5933L61.5825 56.6851L61.5142 56.7134L60.5688 56.1128C59.9726 55.7393 59.2822 55.5437 58.5786 55.5488C57.5779 55.541 56.6144 55.9278 55.897 56.6255L55.3413 57.1807C54.749 57.7923 54.3772 58.5838 54.2847 59.4303C54.1922 60.2767 54.3843 61.1298 54.8306 61.855L55.4302 62.7964L55.4009 62.8667L54.3091 63.1089C53.4809 63.3067 52.7423 63.7747 52.2096 64.439C51.677 65.1033 51.3808 65.926 51.3677 66.7773V67.5596C51.3806 68.4111 51.6769 69.2341 52.2097 69.8984C52.7426 70.5628 53.4816 71.0306 54.3101 71.228L55.4009 71.4697L55.4292 71.5395L54.8306 72.4819C54.5429 72.948 54.3592 73.4706 54.292 74.0142C54.2248 74.5577 54.2757 75.1094 54.4412 75.6315C57.8431 75.0173 61.0902 73.7371 63.9958 71.8642C66.9015 69.9914 69.4085 67.5629 71.3728 64.7183V64.7183Z" fill="#003067"/>
<path d="M69.8495 67.2601C69.8495 68.0337 69.62 68.79 69.1902 69.4333C68.7604 70.0766 68.1495 70.578 67.4347 70.8741C66.7199 71.1701 65.9334 71.2476 65.1746 71.0967C64.4158 70.9457 63.7188 70.5732 63.1717 70.0261C62.6246 69.479 62.2521 68.782 62.1011 68.0232C61.9502 67.2644 62.0277 66.4779 62.3237 65.7631C62.6198 65.0484 63.1212 64.4374 63.7645 64.0076C64.4078 63.5778 65.164 63.3483 65.9377 63.3483C66.9748 63.3496 67.969 63.7621 68.7024 64.4954C69.4357 65.2288 69.8482 66.223 69.8495 67.2601V67.2601ZM77.0787 65.1532L75.2597 64.7487C75.0715 64.6802 74.9179 64.5402 74.8322 64.3591C74.8262 64.3392 74.819 64.3196 74.8107 64.3005L74.3088 63.0808C74.3002 63.0597 74.2904 63.0385 74.2799 63.0182C74.2118 62.8312 74.2207 62.6247 74.3048 62.4443L75.3055 60.8718C75.5101 60.5313 75.5975 60.1331 75.5542 59.7382C75.5109 59.3434 75.3393 58.9736 75.0657 58.6855L74.5122 58.132C74.2215 57.8631 73.8522 57.6947 73.4586 57.6515C73.065 57.6083 72.6679 57.6927 72.3259 57.8923L70.7531 58.8925C70.6528 58.9427 70.5416 58.9669 70.4296 58.9629C70.344 58.966 70.2587 58.9507 70.1796 58.9179C70.1592 58.907 70.1381 58.8973 70.1166 58.8889L68.8973 58.3866C68.8781 58.3786 68.8585 58.3716 68.8386 58.3655C68.6575 58.2797 68.5175 58.1259 68.449 57.9376L68.0449 56.119C67.9488 55.7334 67.7289 55.39 67.419 55.1414C67.109 54.8927 66.7261 54.7526 66.3288 54.7425H65.5465C65.1493 54.7525 64.7664 54.8925 64.4565 55.1411C64.1466 55.3897 63.9268 55.7331 63.8308 56.1186L63.4263 57.9384C63.3574 58.1263 63.2175 58.2797 63.0367 58.3655C63.0167 58.3714 62.9972 58.3788 62.9776 58.3866L61.7583 58.8889C61.7368 58.8974 61.7158 58.907 61.6953 58.9179C61.6162 58.9508 61.531 58.9661 61.4453 58.9629C61.3332 58.9666 61.2219 58.9424 61.1215 58.8925L59.5493 57.8926C59.2073 57.6932 58.8102 57.6089 58.4167 57.652C58.0231 57.6952 57.6537 57.8636 57.3631 58.1324L56.8096 58.6855C56.5359 58.9736 56.3642 59.3435 56.3209 59.7384C56.2776 60.1334 56.365 60.5317 56.5698 60.8722L57.5704 62.4443C57.6541 62.6247 57.6631 62.8308 57.5954 63.0178C57.5848 63.0385 57.5746 63.0597 57.566 63.0808L57.0642 64.3005C57.0563 64.3196 57.0489 64.3392 57.0427 64.3592C56.957 64.5403 56.8034 64.6805 56.6151 64.7492L54.7965 65.1528C54.411 65.2489 54.0675 65.4688 53.8189 65.7787C53.5703 66.0887 53.4302 66.4717 53.4202 66.8689V67.6512C53.4302 68.0484 53.5703 68.4313 53.8189 68.7412C54.0675 69.0511 54.4108 69.2709 54.7963 69.3669L56.6157 69.771C56.8038 69.8398 56.9572 69.9799 57.0428 70.161C57.0491 70.181 57.0565 70.2005 57.0643 70.2197L57.5662 71.4394C57.5748 71.4605 57.5846 71.4812 57.5955 71.502C57.6633 71.6891 57.6541 71.8954 57.5701 72.0758L56.5699 73.6479C56.365 73.9884 56.2775 74.3867 56.3209 74.7817C56.3642 75.1767 56.5359 75.5466 56.8097 75.8346L57.3632 76.3881C57.654 76.6568 58.0234 76.8251 58.417 76.8683C58.8106 76.9115 59.2077 76.8272 59.5498 76.6279L61.1212 75.6277C61.2218 75.5776 61.3332 75.5534 61.4455 75.5573C61.5311 75.5538 61.6164 75.5692 61.6955 75.6023C61.7162 75.6124 61.7369 75.6226 61.7585 75.6312L62.9778 76.1335C62.9973 76.1413 63.0169 76.1483 63.0368 76.1546C63.2178 76.2405 63.3577 76.394 63.4264 76.5821L63.8309 78.4011C63.9268 78.7868 64.1466 79.1302 64.4565 79.3789C64.7664 79.6276 65.1494 79.7677 65.5466 79.7777H66.3289C66.7261 79.7675 67.109 79.6274 67.4189 79.3788C67.7288 79.1301 67.9486 78.7867 68.0446 78.4011L68.4491 76.5821C68.5178 76.394 68.6577 76.2404 68.8387 76.1546C68.8587 76.1483 68.8782 76.1413 68.8974 76.1335L70.1167 75.6312C70.1382 75.6226 70.1593 75.6124 70.1797 75.6023C70.2586 75.5693 70.3438 75.554 70.4293 75.5573C70.5414 75.5533 70.6528 75.5775 70.7531 75.6277L72.3257 76.6275C72.6677 76.8271 73.0648 76.9115 73.4585 76.8684C73.8521 76.8253 74.2216 76.657 74.5123 76.3881L75.0654 75.835C75.3392 75.5469 75.5109 75.177 75.5543 74.782C75.5977 74.387 75.5103 73.9886 75.3056 73.648L74.305 72.0759C74.2634 71.9866 74.2397 71.89 74.2354 71.7916C74.2312 71.6932 74.2463 71.5949 74.28 71.5024C74.2906 71.4817 74.3004 71.4609 74.309 71.4398L74.8108 70.2197C74.8192 70.2006 74.8263 70.181 74.8323 70.1611C74.9182 69.9798 75.0719 69.8397 75.2603 69.7711L77.0785 69.367C77.4641 69.2711 77.8077 69.0514 78.0564 68.7415C78.3051 68.4315 78.4453 68.0486 78.4554 67.6513V66.8689C78.4454 66.4717 78.3053 66.0887 78.0566 65.7788C77.8079 65.4688 77.4644 65.2491 77.0787 65.1532V65.1532Z" fill="url(#paint9_linear_362_2917)"/>
<path opacity="0.2" d="M69.8494 67.2601C69.8494 68.0337 69.6199 68.79 69.1901 69.4333C68.7603 70.0766 68.1494 70.578 67.4346 70.8741C66.7198 71.1701 65.9333 71.2476 65.1745 71.0967C64.4157 70.9457 63.7187 70.5732 63.1716 70.0261C62.6245 69.479 62.252 68.782 62.101 68.0232C61.9501 67.2644 62.0276 66.4779 62.3236 65.7631C62.6197 65.0484 63.1211 64.4374 63.7644 64.0076C64.4077 63.5778 65.164 63.3483 65.9376 63.3483C66.9747 63.3496 67.9689 63.7621 68.7023 64.4954C69.4356 65.2288 69.8481 66.223 69.8494 67.2601V67.2601Z" fill="url(#paint10_linear_362_2917)"/>
</g>
<defs>
<linearGradient id="paint0_linear_362_2917" x1="47.8698" y1="-15.1532" x2="51.8525" y2="130.615" gradientUnits="userSpaceOnUse">
<stop stop-color="#00ABDE"/>
<stop offset="1" stop-color="#007ED8"/>
</linearGradient>
<radialGradient id="paint1_radial_362_2917" cx="0" cy="0" r="1" gradientUnits="userSpaceOnUse" gradientTransform="translate(49.6324 49.5829) scale(26.5831)">
<stop offset="0.18" stop-color="#5EA0EF"/>
<stop offset="1" stop-color="#0078D4"/>
</radialGradient>
<linearGradient id="paint2_linear_362_2917" x1="35.3208" y1="57.3364" x2="35.227" y2="44.9917" gradientUnits="userSpaceOnUse">
<stop stop-color="#CCCCCC"/>
<stop offset="1" stop-color="#FCFCFC"/>
</linearGradient>
<linearGradient id="paint3_linear_362_2917" x1="-5635.16" y1="7605.31" x2="-5635.16" y2="7728.75" gradientUnits="userSpaceOnUse">
<stop stop-color="#CCCCCC"/>
<stop offset="1" stop-color="#FCFCFC"/>
</linearGradient>
<linearGradient id="paint4_linear_362_2917" x1="65.9287" y1="56.4907" x2="65.8622" y2="47.9313" gradientUnits="userSpaceOnUse">
<stop stop-color="#CCCCCC"/>
<stop offset="1" stop-color="#FCFCFC"/>
</linearGradient>
<linearGradient id="paint5_linear_362_2917" x1="35.3208" y1="57.3364" x2="35.227" y2="44.9917" gradientUnits="userSpaceOnUse">
<stop stop-color="#CCCCCC"/>
<stop offset="1" stop-color="#FCFCFC"/>
</linearGradient>
<linearGradient id="paint6_linear_362_2917" x1="53.2687" y1="69.889" x2="53.206" y2="61.8278" gradientUnits="userSpaceOnUse">
<stop stop-color="#CCCCCC"/>
<stop offset="1" stop-color="#FCFCFC"/>
</linearGradient>
<linearGradient id="paint7_linear_362_2917" x1="65.9377" y1="79.7776" x2="65.9377" y2="54.7425" gradientUnits="userSpaceOnUse">
<stop stop-color="#CCCCCC"/>
<stop offset="0.32" stop-color="#DFDFDF"/>
<stop offset="0.67" stop-color="#ECECEC"/>
<stop offset="1" stop-color="#F0F0F0"/>
</linearGradient>
<linearGradient id="paint8_linear_362_2917" x1="65.9376" y1="71.1718" x2="65.9376" y2="63.3483" gradientUnits="userSpaceOnUse">
<stop stop-color="#CCCCCC"/>
<stop offset="1" stop-color="white"/>
</linearGradient>
<linearGradient id="paint9_linear_362_2917" x1="65.9377" y1="79.7776" x2="65.9377" y2="54.7425" gradientUnits="userSpaceOnUse">
<stop stop-color="#CCCCCC"/>
<stop offset="0.32" stop-color="#DFDFDF"/>
<stop offset="0.67" stop-color="#ECECEC"/>
<stop offset="1" stop-color="#F0F0F0"/>
</linearGradient>
<linearGradient id="paint10_linear_362_2917" x1="65.9376" y1="71.1718" x2="65.9376" y2="63.3483" gradientUnits="userSpaceOnUse">
<stop stop-color="#CCCCCC"/>
<stop offset="1" stop-color="white"/>
</linearGradient>
<clipPath id="clip0_362_2917">
<rect width="99.2799" height="99.28" fill="white"/>
</clipPath>
</defs>
</svg>
