<?xml version="1.0" encoding="UTF-8"?>
<svg width="107px" height="127px" viewBox="0 0 107 127" version="1.1" xmlns="http://www.w3.org/2000/svg" xmlns:xlink="http://www.w3.org/1999/xlink">
    <!-- Generator: Sketch 59.1 (86144) - https://sketch.com -->
    <title>Architect migration, business continuity, and disaster recovery in Azure/architect-migration-business-continuity-and-disaster-recovery-in-azure</title>
    <desc>Created with Sketch.</desc>
    <defs>
        <path d="M44.5234375,1.54914609 C46.2234375,0.516382029 48.1109375,0 50,0 C51.8890625,0 53.778125,0.516382029 55.475,1.54914609 L94.365625,25.1853599 C97.846875,27.3028615 100,31.2629081 100,35.5582677 L100,82.4417323 C100,86.7354153 97.846875,90.698815 94.365625,92.8146401 L55.475,116.45253 C53.778125,117.483618 51.8890625,118 50,118 C48.1109375,118 46.2234375,117.483618 44.5234375,116.45253 L5.634375,92.8146401 C2.1515625,90.698815 0,86.7354153 0,82.4417323 L0,35.5582677 C0,31.2629081 2.1515625,27.3028615 5.634375,25.1853599 L44.5234375,1.54914609 Z" id="path-1"></path>
        <filter x="-6.5%" y="-6.9%" width="112.9%" height="113.8%" filterUnits="objectBoundingBox" id="filter-3">
            <feOffset dx="0" dy="2" in="SourceAlpha" result="shadowOffsetOuter1"></feOffset>
            <feColorMatrix values="0 0 0 0 0   0 0 0 0 0   0 0 0 0 0  0 0 0 0.0983937937 0" type="matrix" in="shadowOffsetOuter1" result="shadowMatrixOuter1"></feColorMatrix>
            <feMerge>
                <feMergeNode in="shadowMatrixOuter1"></feMergeNode>
                <feMergeNode in="SourceGraphic"></feMergeNode>
            </feMerge>
        </filter>
        <path d="M51.9142136,42 L59.6923882,49.7781746 L51.9142136,57.5563492 L51.914,52.278 L34,52.2781746 L34,47.2781746 L51.914,47.278 L51.9142136,42 Z" id="path-4"></path>
        <filter x="-3.9%" y="-6.4%" width="107.8%" height="125.7%" filterUnits="objectBoundingBox" id="filter-5">
            <feOffset dx="0" dy="2" in="SourceAlpha" result="shadowOffsetOuter1"></feOffset>
            <feColorMatrix values="0 0 0 0 0   0 0 0 0 0   0 0 0 0 0  0 0 0 0.1 0" type="matrix" in="shadowOffsetOuter1"></feColorMatrix>
        </filter>
        <path d="M51.1222375,56.5020448 L58.9004121,64.2802194 L51.1222375,72.058394 L51.122024,66.7800448 L33.208024,66.7802194 L33.208024,61.7802194 L51.122024,61.7800448 L51.1222375,56.5020448 Z" id="path-6"></path>
        <filter x="-3.9%" y="-19.3%" width="107.8%" height="125.7%" filterUnits="objectBoundingBox" id="filter-7">
            <feOffset dx="0" dy="-2" in="SourceAlpha" result="shadowOffsetOuter1"></feOffset>
            <feColorMatrix values="0 0 0 0 0   0 0 0 0 0   0 0 0 0 0  0 0 0 0.1 0" type="matrix" in="shadowOffsetOuter1"></feColorMatrix>
        </filter>
        <linearGradient x1="58.5494807%" y1="-10.4657707%" x2="34.1382236%" y2="116.311077%" id="linearGradient-8">
            <stop stop-color="#FFFFFF" offset="0%"></stop>
            <stop stop-color="#000000" stop-opacity="0.5" offset="100%"></stop>
        </linearGradient>
        <path d="M44.1948437,-2.35790515 C45.9968437,-3.45263505 47.9975937,-4 50,-4 C52.0024062,-4 54.0048125,-3.45263505 55.8035,-2.35790515 L97.0275625,22.6964815 C100.717687,24.9410332 103,29.1386826 103,33.6917638 L103,83.3882362 C103,87.9395402 100.717687,92.1407439 97.0275625,94.3835185 L55.8035,119.439682 C54.0048125,120.532635 52.0024062,121.08 50,121.08 C47.9975937,121.08 45.9968437,120.532635 44.1948437,119.439682 L2.9724375,94.3835185 C-0.71934375,92.1407439 -3,87.9395402 -3,83.3882362 L-3,33.6917638 C-3,29.1386826 -0.71934375,24.9410332 2.9724375,22.6964815 L44.1948437,-2.35790515 Z" id="path-9"></path>
        <filter x="-0.5%" y="-0.4%" width="101.9%" height="101.6%" filterUnits="objectBoundingBox" id="filter-10">
            <feOffset dx="1" dy="1" in="SourceAlpha" result="shadowOffsetOuter1"></feOffset>
            <feMorphology radius="4" operator="erode" in="SourceAlpha" result="shadowInner"></feMorphology>
            <feOffset dx="1" dy="1" in="shadowInner" result="shadowInner"></feOffset>
            <feComposite in="shadowOffsetOuter1" in2="shadowInner" operator="out" result="shadowOffsetOuter1"></feComposite>
            <feColorMatrix values="0 0 0 0 0   0 0 0 0 0   0 0 0 0 0  0 0 0 0.15 0" type="matrix" in="shadowOffsetOuter1"></feColorMatrix>
        </filter>
    </defs>
    <g id="Badges" stroke="none" stroke-width="1" fill="none" fill-rule="evenodd">
        <g id="Architect-migration,-business-continuity,-and-disaster-recovery-in-Azure" transform="translate(-47.000000, -46.000000)">
            <g id="Architect-migration,-business-continuity,-and-disaster-recovery-in-Azure/architect-migration-business-continuity-and-disaster-recovery-in-azure" transform="translate(50.000000, 50.000000)">
                <g id="Mask" transform="translate(2.000000, 2.000000)">
                    <g id="Hex" transform="translate(-0.000000, 0.000000)">
                        <mask id="mask-2" fill="white">
                            <use xlink:href="#path-1"></use>
                        </mask>
                        <use id="Trophy-1" fill="#FF0000" fill-rule="evenodd" xlink:href="#path-1"></use>
                        <g id="Color/Blue" mask="url(#mask-2)" fill="#55A2FF" fill-rule="evenodd">
                            <rect id="Rectangle" x="0" y="0" width="100" height="118"></rect>
                        </g>
                    </g>
                    <g id="Group-10" opacity="0.200000003" transform="translate(7.000000, 18.000000)" fill="#FFFFFF">
                        <path d="M64.2606842,74.0845406 C64.2606842,76.6434532 62.087567,78.8166548 59.52857,78.8166548 C57.3554528,78.8166548 55.5648387,77.4085438 55.0503885,75.3640822 L45.9685788,75.3640822 C45.3288422,75.3640822 44.6891225,74.8529497 44.6891225,74.0846259 L44.6891225,57.329114 L47.1194647,57.329114 L47.1194647,72.9331456 L54.9216494,72.9331456 C55.4327818,70.8853064 57.3519916,69.3519174 59.5251088,69.3519174 C62.2126762,69.3519174 64.2606842,71.3964642 64.2606842,74.0840349 L64.2606842,74.0845406 Z" id="Fill-2"></path>
                        <path d="M19.3640595,30.0844445 L19.3640595,32.5147868 L5.03897773,32.5147868 C4.39924114,32.5147868 3.75952143,32.0036543 3.75952143,31.2353305 L3.75952143,22.1535207 C1.84362933,21.7709924 0.43551828,19.8517488 0.43551828,17.803994 C0.43551828,15.2450814 2.60863546,13.0718798 5.16763248,13.0718798 C7.7266295,13.0718798 9.89974669,15.244997 9.89974669,17.803994 C9.89974669,19.9771112 8.36635765,21.8963801 6.31851845,22.4074535 L6.31851845,30.2096381 L19.3638063,30.2129389 L19.3640595,30.0844445 Z" id="Fill-3"></path>
                        <path d="M6.31826519,49.3986968 L6.31826519,57.0722266 C8.36610439,57.5833591 9.89949343,59.5025689 9.89949343,61.6756861 C9.89949343,64.2345987 7.72637624,66.4078003 5.16737838,66.4078003 C2.60838136,66.4078003 0.435264178,64.2346831 0.435264178,61.6756861 C0.435264178,59.5025689 1.84337523,57.7119548 3.88783766,57.0722266 L3.88783766,48.1195781 C3.88783766,47.4798415 4.39897016,46.8401218 5.16729396,46.8401218 L19.4923766,46.8401218 L19.4923766,49.2704641 L6.31877086,49.2704641 L6.31826519,49.3986968 Z" id="Fill-4"></path>
                        <path d="M37.6551519,5.26961079 L37.6551519,22.0251193 L35.2248096,22.0251193 L35.2248096,6.54940476 L27.5512798,6.54940476 C27.0401473,8.59724396 25.1209375,10.130633 22.9478203,10.130633 C20.3889077,10.130633 18.2157061,7.95751581 18.2157061,5.3985188 C18.2157061,2.83952178 20.3888233,0.666404594 22.9478203,0.666404594 C25.1209375,0.666404594 26.9115516,2.07451564 27.5512798,4.11897808 L36.5039283,4.11897808 C37.0150608,3.99037398 37.6548142,4.50149803 37.6548142,5.26986405 L37.6551519,5.26961079 Z" id="Fill-5"></path>
                        <path d="M64.260853,5.26961079 C64.260853,7.82852339 62.087567,10.001725 59.52857,10.001725 C57.3554528,10.001725 55.4361839,8.46833596 54.9251105,6.42049676 L47.1229259,6.42049676 L47.1229259,22.0245283 L44.6925836,22.0245283 L44.6892913,5.26901986 C44.6892913,4.62928326 45.2004238,3.98956356 45.9687476,3.98956356 L55.0505574,3.98956356 C55.5616899,2.07037911 57.4808996,0.536990071 59.5287388,0.536990071 C62.2130138,0.536990071 64.260853,2.71010726 64.260853,5.26910427 L64.260853,5.26961079 Z" id="Fill-6"></path>
                        <path d="M37.6551519,57.3290296 L37.6551519,74.0845406 C37.6551519,74.7242772 37.1440194,75.3639969 36.3756956,75.3639969 L27.4230471,75.3639969 C26.9119146,77.4118361 24.9927048,78.8165704 22.8195877,78.8165704 C20.2606751,78.8165704 18.0874735,76.6434532 18.0874735,74.0844562 C18.0874735,71.5254566 20.2605906,69.3523395 22.8195877,69.3523395 C24.9927048,69.3523395 26.9119737,70.8857285 27.4230471,72.9335677 L35.096577,72.9335677 L35.096577,57.3295361 L37.6551519,57.3290296 Z" id="Fill-7"></path>
                        <path d="M82.2951424,61.549986 C82.2951424,64.1088986 80.1220253,66.2821002 77.5630282,66.2821002 C75.0040312,66.2821002 72.830914,64.108983 72.830914,61.549986 C72.830914,59.3768688 74.3643031,57.4575999 76.4121423,56.9465265 L76.4121423,49.2729967 L62.9810591,49.2697043 L62.9810591,46.8393621 L77.6919362,46.8393621 C78.3316728,46.8393621 78.9713925,47.3504946 78.9713925,48.1188184 L78.9713925,57.0714669 C80.8872846,57.5825994 82.2953957,59.3732388 82.2953957,61.5496483 L82.2951424,61.549986 Z" id="Fill-8"></path>
                        <path d="M82.2951424,17.803994 C82.2951424,19.9771112 80.8870314,21.7677253 78.842569,22.2821755 L78.842569,31.3639853 C78.842569,32.0037218 78.3314365,32.6434416 77.5631127,32.6434416 L62.9813967,32.6434416 L62.9813967,30.2130993 L76.4124799,30.2130993 L76.4124799,22.4109147 C74.3646407,21.8997822 72.8312517,19.9805724 72.8312517,17.8074552 C72.8312517,15.2485426 75.0043689,13.075337 77.5633659,13.075337 C80.1222785,13.0720402 82.2954801,15.1198879 82.2954801,17.8041629 L82.2951424,17.803994 Z" id="Fill-9"></path>
                    </g>
                    <g id="Group" filter="url(#filter-3)" transform="translate(48.586604, 52.821894) rotate(-4.000000) translate(-48.586604, -52.821894) translate(17.586604, 23.821894)">
                        <path d="M56.7483547,46.168153 L56.7483547,9.6183652 L1.92367304,9.6183652 C0.860843686,9.6183652 -7.28306304e-13,10.4792089 -7.28306304e-13,11.5420382 L-7.28306304e-13,55.7865182 C-7.28306304e-13,56.8493475 0.860843686,57.7101912 1.92367304,57.7101912 L56.7483547,57.7101912 C59.4039853,57.7101912 61.5575373,55.5566392 61.5575373,52.9010086 L61.5575373,46.168153 L56.7483547,46.168153" id="Fill-20" fill="#4D84CD"></path>
                        <path d="M56.7483547,48.091826 L55.7865182,48.091826 C54.7236888,48.091826 53.8628451,47.2309823 53.8628451,46.168153 L53.8628451,1.92367304 C53.8628451,0.860843686 54.7236888,1.13686838e-13 55.7865182,1.13686838e-13 L56.7483547,1.13686838e-13 C59.4039853,1.13686838e-13 61.5575373,2.15355197 61.5575373,4.8091826 L61.5575373,52.9010086 C61.5575373,50.245378 59.4039853,48.091826 56.7483547,48.091826" id="Fill-21" fill="#314263"></path>
                    </g>
                    <g id="Combined-Shape">
                        <use fill="black" fill-opacity="1" filter="url(#filter-5)" xlink:href="#path-4"></use>
                        <use fill="#FFFFFF" fill-rule="evenodd" xlink:href="#path-4"></use>
                    </g>
                    <g id="Combined-Shape" transform="translate(46.054218, 64.280219) rotate(-180.000000) translate(-46.054218, -64.280219) ">
                        <use fill="black" fill-opacity="1" filter="url(#filter-7)" xlink:href="#path-6"></use>
                        <use fill="#FFFFFF" fill-rule="evenodd" xlink:href="#path-6"></use>
                    </g>
                </g>
                <g id="Azure-Hex-Border">
                    <path d="M44.5234375,1.54914609 C46.2234375,0.516382029 48.1109375,0 50,0 C51.8890625,0 53.778125,0.516382029 55.475,1.54914609 L94.365625,25.1853599 C97.846875,27.3028615 100,31.2629081 100,35.5582677 L100,82.4417323 C100,86.7354153 97.846875,90.698815 94.365625,92.8146401 L55.475,116.45253 C53.778125,117.483618 51.8890625,118 50,118 C48.1109375,118 46.2234375,117.483618 44.5234375,116.45253 L5.634375,92.8146401 C2.1515625,90.698815 0,86.7354153 0,82.4417323 L0,35.5582677 C0,31.2629081 2.1515625,27.3028615 5.634375,25.1853599 L44.5234375,1.54914609 Z" id="Combined-Shape" fill="url(#linearGradient-8)" fill-rule="evenodd" opacity="0.400000006" style="mix-blend-mode: overlay;"></path>
                    <g>
                        <use fill="black" fill-opacity="1" filter="url(#filter-10)" xlink:href="#path-9"></use>
                        <path stroke="#F2F1F0" stroke-width="4" d="M45.2332564,-0.648607259 L45.2336026,-0.64881765 L4.01144651,24.4054169 C0.925809217,26.2814415 -1,29.8266197 -1,33.6917638 L-1,83.3882362 C-1,87.2528359 0.926781978,90.8006347 4.01125014,92.6744637 L45.2320242,117.729637 C46.7012131,118.620732 48.3399349,119.08 50,119.08 C51.660622,119.08 53.3002463,118.620479 54.7647178,117.730609 L95.9888139,92.6744248 C99.072436,90.800269 101,87.2517424 101,83.3882362 L101,33.6917638 C101,29.8277131 99.0734096,26.2818084 95.9888341,24.4055875 L54.7636916,-0.649455998 C53.3000291,-1.54028063 51.6610283,-2 50,-2 C48.3395281,-2 46.7014267,-1.54053289 45.2332564,-0.648607259 Z" stroke-linejoin="square"></path>
                    </g>
                    <path d="M45.5618501,3.25844398 L45.5621963,3.25823359 L6.67338401,26.8942953 C3.79673288,28.6432593 2,31.9508238 2,35.5582677 L2,82.4417323 C2,86.0486597 3.79764663,89.3586805 6.67318764,91.1055853 L45.560618,114.742485 C46.9289662,115.572418 48.4546283,116 50,116 C51.5458817,116 53.0723633,115.572188 54.4362178,114.743457 L93.3268764,91.1055464 C96.2016145,89.3583456 98,86.0476286 98,82.4417323 L98,35.5582677 C98,31.9518547 96.202529,28.6435953 93.3268966,26.8944659 L54.4351916,3.25759524 C53.0721095,2.42798656 51.5462432,2 50,2 C48.4542664,2 46.9292165,2.42775755 45.5618501,3.25844398 Z" stroke="#0078D4" stroke-width="4"></path>
                </g>
            </g>
        </g>
    </g>
</svg>