<svg width="160" height="189" viewBox="0 0 160 189" fill="none" xmlns="http://www.w3.org/2000/svg">
<g clip-path="url(#clip0_455_707)">
<path d="M79.6779 188.994C82.7592 188.988 85.7796 188.135 88.4083 186.528L150.384 148.868C153.165 147.104 155.449 144.659 157.019 141.765C158.589 138.87 159.394 135.622 159.356 132.33V57.6149C159.392 54.3225 158.587 51.0753 157.017 48.1812C155.447 45.2871 153.163 42.8418 150.384 41.0771L88.4083 3.41694C85.7749 1.83175 82.7592 0.994141 79.6855 0.994141C76.6118 0.994141 73.5961 1.83175 70.9627 3.41694L8.9876 41.0921C6.2045 42.8545 3.91796 45.2989 2.34499 48.1933C0.772021 51.0876 -0.0351786 54.336 4.1431e-06 57.63V132.33C-0.0185283 135.113 0.556189 137.868 1.68588 140.412C2.81557 142.956 4.4743 145.23 6.5516 147.083V147.109L70.9627 186.543C73.5884 188.143 76.6032 188.991 79.6779 188.994V188.994ZM80.3257 7.94632C82.2776 7.94632 84.7548 9.15924 86.4646 10.2033L147.222 47.3976C150.974 49.6823 153.09 56.2784 153.09 61.0294L152.458 132.33C152.458 137.081 149.259 141.349 145.506 143.634L85.1104 180.015C81.6758 182.103 78.8854 182.103 75.4507 180.015L14.2427 143.543C10.4903 141.259 7.47191 137.066 7.47191 132.33V58.6821C7.50442 56.317 8.11341 53.9954 9.24608 51.9189C10.3787 49.8423 12.0009 48.0734 13.9718 46.7655L74.548 10.2033C76.2577 9.15924 78.3739 7.94632 80.3257 7.94632Z" fill="#F2F1F0"/>
<path fill-rule="evenodd" clip-rule="evenodd" d="M87.5765 11.527C85.2056 10.0534 82.4697 9.27252 79.6783 9.27252C76.8868 9.27252 74.1509 10.0534 71.7801 11.527L15.6454 45.8584C13.1193 47.47 11.047 49.7004 9.625 52.3378C8.203 54.9753 7.47851 57.9324 7.52026 60.9285V129.032C7.48034 132.027 8.20562 134.984 9.62745 137.621C11.0493 140.258 13.1206 142.489 15.6454 144.102L71.7801 178.433C74.1508 179.907 76.8867 180.688 79.6783 180.688C82.4698 180.688 85.2057 179.907 87.5765 178.433L143.711 144.102C146.236 142.489 148.307 140.258 149.729 137.621C151.151 134.984 151.877 132.027 151.837 129.032V60.9285C151.875 57.9329 151.149 54.9771 149.727 52.3402C148.305 49.7034 146.234 47.4725 143.711 45.8584L87.5765 11.527Z" fill="url(#paint0_linear_455_707)"/>
<path fill-rule="evenodd" clip-rule="evenodd" d="M79.6783 10.7485C81.3615 10.7485 83.2442 11.6142 85.311 12.8723L143.777 48.4147C145.668 49.6281 147.218 51.305 148.278 53.286C149.339 55.267 149.875 57.4864 149.837 59.7332V130.212C149.875 132.458 149.339 134.678 148.278 136.659C147.218 138.64 145.668 140.316 143.777 141.53L85.312 177.072L85.311 177.073C83.6408 178.212 81.6958 178.883 79.6783 179.016C77.6609 178.883 75.7158 178.212 74.0456 177.073L74.0446 177.072L15.5823 141.532L15.5801 141.531C13.7918 140.567 12.2668 139.18 11.1383 137.491C10.1614 135.888 9.52031 133.673 9.52031 130.212V59.7331C9.48157 57.4864 10.018 55.2671 11.0785 53.2861C12.139 51.3051 13.6885 49.6282 15.5797 48.4147L74.0365 12.8777L74.0406 12.8753C76.1244 11.6223 77.9846 10.7485 79.6783 10.7485ZM87.3908 9.45546L145.855 44.9967C148.333 46.5668 150.368 48.7456 151.765 51.3253C153.162 53.905 153.876 56.7996 153.837 59.7332V130.212C153.876 133.145 153.162 136.04 151.765 138.62C150.368 141.2 148.333 143.378 145.855 144.949L87.3898 180.49C85.0956 182.015 82.4302 182.888 79.6783 183.016C76.9264 182.888 74.261 182.015 71.9667 180.49H71.9658L13.502 144.948L13.4995 144.947C11.1642 143.654 9.18097 141.809 7.72281 139.573C6.12823 136.72 5.36521 133.477 5.52031 130.212V59.7331C5.48125 56.7995 6.19436 53.9048 7.59165 51.3251C8.98894 48.7453 11.0238 46.5666 13.5022 44.9965L71.9667 9.45481L71.9749 9.44993C74.0655 8.19252 76.7734 6.74847 79.6783 6.74847C82.5645 6.74847 85.2816 8.17155 87.3908 9.45541V9.45546Z" fill="#0078D4"/>
<path opacity="0.2" d="M139.959 133.02L80.4091 167.627L20.4701 133.021L80.0201 98.4141L139.959 133.02Z" fill="#003067"/>
<path d="M140.532 121.54L79.81 156.828L18.698 121.545L79.42 86.2571L140.532 121.54Z" fill="#1B93EB"/>
<path d="M140.532 121.54L140.52 125.646L79.798 160.934L79.81 156.828L140.532 121.54Z" fill="#1F56A3"/>
<path d="M79.81 156.828L79.798 160.934L18.686 125.651L18.698 121.545L79.81 156.828Z" fill="#0078D4"/>
<path d="M74.0282 50.433L129.444 82.4273L129.323 124.955C129.322 125.62 128.844 125.891 128.258 125.553L74.9584 94.7804C74.6529 94.5806 74.3986 94.3118 74.216 93.9956C74.0335 93.6794 73.9278 93.3248 73.9076 92.9602L74.0282 50.433Z" fill="#F2F2F2"/>
<path d="M129.324 124.955L129.444 82.4273L132.069 80.9018L131.949 123.429C131.961 123.558 131.94 123.689 131.885 123.807C131.831 123.925 131.747 124.027 131.641 124.101L129.016 125.627C129.122 125.552 129.206 125.45 129.26 125.332C129.315 125.214 129.336 125.084 129.324 124.955V124.955Z" fill="#E8E8E8"/>
<path d="M76.9051 42.6768C76.9974 42.6342 77.0995 42.617 77.2007 42.6271C77.3019 42.6372 77.3986 42.6742 77.4807 42.7342L131.271 73.7904C131.508 73.9433 131.705 74.1498 131.846 74.3932C131.987 74.6365 132.069 74.9098 132.085 75.1908L132.069 80.9018L129.444 82.4273L129.46 76.7163C129.444 76.4353 129.362 76.162 129.221 75.9187C129.08 75.6753 128.883 75.4688 128.646 75.3159L74.8555 44.2598C74.7734 44.1997 74.6768 44.1628 74.5756 44.1526C74.4745 44.1425 74.3725 44.1597 74.2802 44.2022L76.9051 42.6768Z" fill="#1F56A3"/>
<path d="M128.646 75.3159C128.883 75.4688 129.08 75.6754 129.221 75.9187C129.362 76.162 129.444 76.4353 129.46 76.7163L129.444 82.4273L74.0282 50.433L74.0432 45.141L74.0444 44.722C74.0458 44.212 74.4038 43.9989 74.8556 44.2597L128.646 75.3159Z" fill="#0078D4"/>
<path d="M79.2647 48.7391C79.6738 49.0041 80.0145 49.3621 80.2589 49.7839C80.5033 50.2056 80.6445 50.6792 80.6711 51.1659C80.6685 52.0676 80.0323 52.4211 79.2555 51.9726C78.8452 51.7107 78.5039 51.3538 78.2605 50.9322C78.0171 50.5107 77.8787 50.0367 77.8571 49.5504C77.8596 48.6486 78.4958 48.2952 79.2647 48.7391Z" fill="#50E6FF"/>
<path d="M101.92 99.3237C102.225 99.5238 102.478 99.7924 102.661 100.108C102.843 100.424 102.949 100.778 102.97 101.142C102.968 101.812 102.489 102.085 101.913 101.753L84.1 91.4685C83.7934 91.2682 83.5385 90.9984 83.3561 90.6809C83.1737 90.3634 83.0689 90.0073 83.0503 89.6416C83.0522 88.9799 83.5235 88.7026 84.1069 89.0394L101.92 99.3237Z" fill="#9CEBFF"/>
<path d="M90.5492 86.6372C90.8558 86.8374 91.1107 87.1073 91.2931 87.4248C91.4756 87.7423 91.5803 88.0984 91.5989 88.4641C91.5971 89.1258 91.1258 89.4031 90.5424 89.0663L84.1172 85.3567C83.8117 85.1575 83.5574 84.889 83.375 84.5731C83.1926 84.2572 83.0873 83.9028 83.0675 83.5385C83.0694 82.8681 83.5407 82.5909 84.1241 82.9277L90.5492 86.6372Z" fill="#9CEBFF"/>
<path d="M101.972 80.9884C102.277 81.1876 102.532 81.4561 102.714 81.772C102.896 82.0879 103.002 82.4423 103.021 82.8066C103.019 83.477 102.541 83.7412 101.965 83.4087L84.1519 73.1244C83.8456 72.926 83.5907 72.6577 83.4082 72.3416C83.2258 72.0255 83.1209 71.6707 83.1022 71.3062C83.1041 70.6358 83.5753 70.3672 84.1588 70.7041L101.972 80.9884Z" fill="#9CEBFF"/>
<path d="M92.8775 81.8596C93.1838 82.0581 93.4387 82.3263 93.6212 82.6424C93.8037 82.9585 93.9086 83.3133 93.9273 83.6778C93.9254 84.3482 93.4541 84.6168 92.8707 84.28L84.1347 79.2362C83.8284 79.0378 83.5735 78.7695 83.391 78.4534C83.2086 78.1373 83.1037 77.7825 83.085 77.418C83.0869 76.7476 83.5581 76.479 84.1415 76.8159L92.8775 81.8596Z" fill="#50E6FF"/>
<path d="M101.987 75.6166C102.293 75.8177 102.547 76.0877 102.729 76.4051C102.912 76.7224 103.017 77.0781 103.037 77.4435C103.035 78.1052 102.556 78.3781 101.98 78.0457L92.3955 72.512C92.09 72.3128 91.8357 72.0443 91.6533 71.7284C91.4709 71.4125 91.3656 71.0581 91.3458 70.6938C91.3477 70.0234 91.819 69.7462 92.4024 70.083L101.987 75.6166Z" fill="#0078D4"/>
<path d="M88.6898 67.988C88.9956 68.189 89.2499 68.4591 89.4322 68.7764C89.6145 69.0937 89.7198 69.4495 89.7394 69.8149C89.7376 70.4766 89.2587 70.7495 88.6829 70.417L84.4154 67.759C84.1099 67.5597 83.8556 67.2913 83.6732 66.9754C83.4908 66.6595 83.3855 66.305 83.3657 65.9408C83.3676 65.2704 83.8389 64.9931 84.4223 65.3299L88.6898 67.988Z" fill="#0078D4"/>
<path d="M106.129 89.5105C106.435 89.7089 106.69 89.9772 106.873 90.2933C107.055 90.6093 107.16 90.9642 107.179 91.3287C107.177 91.9991 106.706 92.2677 106.122 91.9308L97.3864 86.8871C97.0808 86.6879 96.8265 86.4194 96.6442 86.1035C96.4618 85.7876 96.3564 85.4332 96.3367 85.0689C96.3386 84.3986 96.8173 84.1343 97.3932 84.4668L106.129 89.5105Z" fill="#9CEBFF"/>
<path d="M119.388 97.1657C119.694 97.365 119.948 97.6334 120.131 97.9493C120.313 98.2652 120.418 98.6197 120.438 98.9839C120.436 99.6543 119.957 99.9185 119.382 99.5861L110.646 94.5424C110.339 94.3439 110.085 94.0756 109.902 93.7596C109.72 93.4435 109.615 93.0886 109.596 92.7242C109.598 92.0538 110.069 91.7852 110.653 92.122L119.388 97.1657Z" fill="#1F56A3"/>
<path d="M112.795 99.4805C113.101 99.6807 113.356 99.9506 113.538 100.268C113.721 100.586 113.826 100.942 113.844 101.307C113.842 101.969 113.371 102.246 112.788 101.91L94.9823 91.6296C94.6768 91.4304 94.4225 91.1619 94.2401 90.846C94.0577 90.5301 93.9524 90.1756 93.9326 89.8114C93.9345 89.141 94.4058 88.8637 94.9892 89.2006L112.795 99.4805Z" fill="#1F56A3"/>
<path d="M112.829 87.2569C113.135 87.4554 113.39 87.7236 113.573 88.0397C113.755 88.3558 113.86 88.7106 113.879 89.0751C113.877 89.7455 113.406 90.0141 112.822 89.6773L106.397 85.9678C106.091 85.7693 105.836 85.5011 105.654 85.185C105.471 84.8689 105.366 84.5141 105.348 84.1496C105.349 83.4792 105.821 83.2106 106.404 83.5474L112.829 87.2569Z" fill="#50E6FF"/>
<path d="M112.777 105.592C113.083 105.792 113.337 106.06 113.519 106.376C113.702 106.692 113.807 107.046 113.827 107.41C113.825 108.081 113.354 108.358 112.77 108.021L106.345 104.312C106.039 104.112 105.784 103.842 105.601 103.524C105.419 103.207 105.314 102.851 105.296 102.485C105.298 101.823 105.769 101.546 106.352 101.883L112.777 105.592Z" fill="#50E6FF"/>
<path d="M62.9563 93.9412L62.9077 91.0235C66.5829 90.9615 69.3087 89.871 71.0071 87.7811C74.0854 83.994 73.0046 78.1086 72.9924 78.0491L75.8579 77.5006C75.9138 77.7961 77.1965 84.7915 73.2708 89.6205C71.0035 92.4106 67.5325 93.8647 62.9563 93.9412Z" fill="#8A6FE8"/>
<path d="M68.3544 78.2423L71.7475 81.0689C71.8912 81.1892 72.0572 81.28 72.2361 81.336C72.4149 81.3921 72.603 81.4123 72.7897 81.3955C72.9763 81.3787 73.1578 81.3253 73.3238 81.2383C73.4898 81.1513 73.637 81.0324 73.757 80.8885C73.877 80.7445 73.9674 80.5783 74.023 80.3994C74.0787 80.2204 74.0985 80.0323 74.0814 79.8456C74.0642 79.659 74.0104 79.4776 73.9231 79.3118C73.8357 79.146 73.7165 78.9991 73.5723 78.8794L70.1792 76.0528C70.0355 75.9324 69.8695 75.8415 69.6906 75.7854C69.5117 75.7293 69.3236 75.709 69.1369 75.7257C68.9501 75.7425 68.7686 75.7959 68.6025 75.8829C68.4365 75.9699 68.2892 76.0888 68.1692 76.2328C68.0492 76.3768 67.9588 76.543 67.9031 76.7221C67.8475 76.9011 67.8277 77.0893 67.8449 77.2759C67.8621 77.4626 67.9159 77.6441 68.0034 77.8099C68.0908 77.9757 68.2101 78.1226 68.3544 78.2423V78.2423Z" fill="#8A6FE8"/>
<path d="M76.8987 79.2307L78.1192 76.5233C78.1954 76.3512 78.2369 76.1657 78.2414 75.9776C78.2459 75.7894 78.2133 75.6023 78.1454 75.4267C78.0776 75.2512 77.9758 75.0907 77.846 74.9545C77.7161 74.8183 77.5607 74.709 77.3886 74.6328C77.2165 74.5566 77.0311 74.5151 76.8429 74.5106C76.6548 74.5061 76.4676 74.5387 76.2921 74.6066C76.1165 74.6744 75.9561 74.7762 75.8198 74.906C75.6836 75.0359 75.5743 75.1913 75.4981 75.3634L74.2471 78.1401L76.8987 79.2307Z" fill="#8A6FE8"/>
<path d="M76.2385 77.7669L76.2238 73.6711C76.2203 73.2916 76.0664 72.929 75.7959 72.6629C75.5253 72.3967 75.1603 72.2488 74.7808 72.2515C74.4012 72.2543 74.0383 72.4074 73.7716 72.6775C73.505 72.9475 73.3563 73.3123 73.3583 73.6918L73.3596 76.7373L76.2385 77.7669Z" fill="#8A6FE8"/>
<path d="M74.5449 78.2094L73.6003 74.2206C73.5572 74.0374 73.4785 73.8645 73.3687 73.7117C73.2588 73.5589 73.12 73.4293 72.96 73.3301C72.8 73.231 72.6221 73.1644 72.4364 73.134C72.2507 73.1037 72.0608 73.1102 71.8776 73.1532C71.6944 73.1963 71.5214 73.2749 71.3687 73.3848C71.2159 73.4947 71.0862 73.6335 70.9871 73.7935C70.888 73.9535 70.8213 74.1314 70.791 74.3171C70.7606 74.5028 70.7672 74.6927 70.8102 74.8759L71.7718 78.9377L74.5449 78.2094Z" fill="#8A6FE8"/>
<path d="M74.0136 81.9795C74.6068 81.9795 75.1867 81.8036 75.6799 81.474C76.1731 81.1445 76.5575 80.676 76.7846 80.128C77.0116 79.58 77.071 78.9769 76.9552 78.3951C76.8395 77.8133 76.5539 77.2789 76.1344 76.8595C75.715 76.44 75.1805 76.1544 74.5987 76.0386C74.017 75.9229 73.4139 75.9823 72.8659 76.2093C72.3178 76.4363 71.8494 76.8208 71.5199 77.314C71.1903 77.8072 71.0144 78.3871 71.0144 78.9803C71.0144 79.7757 71.3304 80.5386 71.8929 81.101C72.4553 81.6635 73.2182 81.9795 74.0136 81.9795Z" fill="url(#paint1_radial_455_707)"/>
<path d="M58.8484 112.049C58.9448 107.874 57.9298 103.748 55.9075 100.094L53.3569 101.643C55.1277 104.825 55.989 108.433 55.8467 112.072C56.8295 112.347 57.8699 112.339 58.8484 112.049Z" fill="url(#paint2_linear_455_707)"/>
<path d="M55.8466 112.044L58.2088 112.033L60.4142 124.667L55.6728 124.689C55.5888 124.69 55.5053 124.674 55.4278 124.642C55.3503 124.609 55.2805 124.561 55.223 124.499C55.1655 124.438 55.1215 124.365 55.0938 124.286C55.0662 124.206 55.0555 124.122 55.0625 124.038L55.8466 112.044Z" fill="#522CD5"/>
<path d="M65.4706 121.344C65.6384 121.508 65.7608 121.712 65.8259 121.938C65.8909 122.163 65.8962 122.401 65.8414 122.629L65.743 124.143C65.7321 124.276 65.6725 124.4 65.5754 124.491C65.4784 124.583 65.351 124.635 65.2177 124.638L60.2757 124.661C60.2042 124.662 60.1332 124.649 60.0673 124.621C60.0014 124.593 59.9421 124.552 59.8932 124.5C59.8442 124.447 59.8068 124.386 59.7833 124.318C59.7598 124.251 59.7507 124.179 59.7566 124.108L59.7894 122.539C59.8272 121.969 59.6351 121.76 59.1938 121.223C58.4375 120.305 56.2018 115.302 56.4146 112.042L58.8472 112.032C59.0102 113.966 61.5632 118.262 65.4706 121.344Z" fill="url(#paint3_linear_455_707)"/>
<path d="M65.8402 122.629C65.8873 122.307 65.8509 121.978 65.7344 121.674L59.5718 121.702C59.7471 121.943 59.8252 122.241 59.7907 122.537L59.7578 124.105C59.7518 124.177 59.7608 124.248 59.7843 124.316C59.8078 124.383 59.8452 124.445 59.8942 124.497C59.9431 124.55 60.0025 124.591 60.0684 124.619C60.1344 124.646 60.2054 124.66 60.2769 124.658L65.2177 124.637C65.351 124.634 65.4784 124.581 65.5754 124.49C65.6724 124.399 65.7321 124.275 65.743 124.142L65.8402 122.629Z" fill="url(#paint4_radial_455_707)"/>
<path d="M45.818 112.104C45.6837 107.93 46.6613 103.795 48.6507 100.123L51.2158 101.649C49.4739 104.847 48.6454 108.462 48.821 112.1C47.8406 112.385 46.7993 112.387 45.818 112.104V112.104Z" fill="url(#paint5_linear_455_707)"/>
<path d="M43.2334 122.291C43.2367 121.908 43.3003 121.528 43.4218 121.164C45.6283 115.133 45.8144 112.092 45.8144 112.092L48.8221 112.079C48.8221 112.079 49.0288 115.063 51.2889 121.073C51.4319 121.451 51.5072 121.851 51.5113 122.255L51.5247 124.184C51.5249 124.324 51.4696 124.459 51.371 124.558C51.2724 124.658 51.1385 124.714 50.9984 124.716L50.8524 124.717L43.913 124.748L43.767 124.75C43.6267 124.75 43.492 124.695 43.3924 124.596C43.2928 124.498 43.2364 124.363 43.2357 124.223L43.2334 122.291Z" fill="url(#paint6_linear_455_707)"/>
<path d="M43.2334 122.291C43.2334 122.237 43.2346 122.183 43.237 122.131C43.2528 121.963 43.3294 121.775 43.6965 121.772L51.1175 121.738C51.212 121.74 51.3025 121.776 51.3729 121.839C51.4433 121.902 51.489 121.989 51.5017 122.082C51.5053 122.139 51.5102 122.198 51.5138 122.254L51.5271 124.183C51.5276 124.27 51.5066 124.355 51.4661 124.432C51.4256 124.508 51.3668 124.573 51.2949 124.622C51.2081 124.681 51.1058 124.713 51.0007 124.714L50.8549 124.716L43.9154 124.747L43.7707 124.748C43.6304 124.749 43.4957 124.694 43.3961 124.595C43.2965 124.496 43.2402 124.362 43.2394 124.222L43.2334 122.291Z" fill="url(#paint7_radial_455_707)"/>
<path d="M66.4262 93.8027C67.0552 91.4092 67.1725 88.9099 66.7702 86.4681L67.7294 86.4632L67.7526 86.445C67.026 82.6118 64.9302 79.1735 61.8558 76.7714C58.7815 74.3693 54.9385 73.1672 51.0433 73.3892C47.1481 73.6113 43.4666 75.2424 40.6852 77.9784C37.9038 80.7144 36.2123 84.3685 35.9261 88.2595C35.64 92.1505 36.7786 96.0128 39.1298 99.1263C41.481 102.24 44.8843 104.392 48.705 105.181C52.5258 105.971 56.5034 105.344 59.8961 103.418C63.2888 101.491 65.8651 98.3965 67.1446 94.7108C67.2091 94.4445 67.2006 93.968 66.4262 93.8027Z" fill="url(#paint8_radial_455_707)"/>
<path d="M65.8875 97.5155L38.1309 97.642C38.7564 98.6924 39.4991 99.6684 40.3447 100.551L63.6992 100.445C64.5376 99.5552 65.2718 98.5722 65.8875 97.5155Z" fill="#D8CFF7"/>
<path d="M57.3485 101.35L62.5579 101.326L62.5371 96.7188L57.3275 96.7426L57.3485 101.35Z" fill="#512BD4"/>
<path d="M58.2503 99.6273C58.234 99.6278 58.2178 99.625 58.2025 99.6192C58.1873 99.6134 58.1734 99.6045 58.1616 99.5933C58.1501 99.5824 58.1409 99.5693 58.1346 99.5548C58.1284 99.5403 58.1251 99.5246 58.1251 99.5088C58.1251 99.493 58.1284 99.4773 58.1346 99.4628C58.1409 99.4482 58.1501 99.4351 58.1616 99.4243C58.1731 99.4126 58.187 99.4034 58.2022 99.3973C58.2175 99.3913 58.2339 99.3884 58.2503 99.389C58.2667 99.3887 58.283 99.3916 58.2982 99.3977C58.3134 99.4038 58.3273 99.4128 58.339 99.4243C58.3509 99.4351 58.3603 99.4482 58.3668 99.4628C58.3733 99.4775 58.3767 99.4933 58.3767 99.5094C58.3769 99.5251 58.3738 99.5408 58.3675 99.5552C58.3612 99.5697 58.3519 99.5827 58.3403 99.5933C58.3155 99.6154 58.2835 99.6275 58.2503 99.6273V99.6273Z" fill="white"/>
<path d="M59.635 99.6055H59.4101L58.8143 98.6705C58.7994 98.647 58.7868 98.6222 58.7767 98.5963H58.7718C58.7783 98.6544 58.7807 98.7129 58.7791 98.7713L58.7803 99.6065H58.5809L58.5785 98.3325H58.818L59.3931 99.2454C59.4174 99.2831 59.4332 99.31 59.4405 99.3232H59.4441C59.437 99.2664 59.4342 99.2091 59.4357 99.1518L59.4344 98.3313H59.6325L59.635 99.6055Z" fill="white"/>
<path d="M60.6052 99.603L59.9073 99.6042L59.9049 98.3301L60.5747 98.3289V98.5088L60.1115 98.5101L60.1128 98.8712L60.5395 98.8699V99.0487L60.1128 99.0498L60.114 99.4267L60.6052 99.4256V99.603Z" fill="white"/>
<path d="M61.5947 98.5064L61.2373 98.5076L61.2398 99.6017H61.033L61.0307 98.5076L60.6744 98.5088V98.3288L61.5934 98.3265L61.5947 98.5064Z" fill="white"/>
<path d="M66.4602 93.8014C67.0892 91.4091 67.2064 88.9111 66.8043 86.4705L50.1267 86.5459C50.1267 86.5459 49.0751 86.4438 49.0799 87.4042C49.0847 88.3634 49.1359 91.0757 49.1491 94.075C49.1475 94.1947 49.1698 94.3135 49.2147 94.4244C49.2597 94.5354 49.3264 94.6362 49.4109 94.7209C49.4955 94.8056 49.5961 94.8726 49.7069 94.9178C49.8177 94.9631 49.9365 94.9857 50.0561 94.9843C50.0574 94.9843 66.0444 94.4688 66.4602 93.8014Z" fill="url(#paint9_radial_455_707)"/>
<path d="M56.5105 93.8538C56.5105 93.8538 59.066 91.8125 59.5645 91.4344C59.6558 91.3422 59.7643 91.2689 59.884 91.2187C60.0036 91.1685 60.1319 91.1424 60.2617 91.1418C60.3914 91.1412 60.52 91.1662 60.6401 91.2154C60.7601 91.2646 60.8693 91.3369 60.9614 91.4283C61.4221 91.8222 63.9996 93.8197 63.9996 93.8197L56.5105 93.8538Z" fill="#A08BE8"/>
<path d="M67.0815 94.915C67.0815 94.915 67.558 94.0373 66.4603 93.8027C66.4614 93.7978 50.0634 93.8646 50.0634 93.8646C49.6816 93.8659 49.1893 93.641 49.1455 93.2714C49.1468 93.5364 49.1491 93.805 49.1504 94.0761C49.1465 94.2984 49.2258 94.5141 49.3726 94.681C49.5195 94.8478 49.7233 94.9539 49.9443 94.9783C49.982 94.9819 50.0197 94.9868 50.0574 94.9868L51.1783 94.9819L67.0815 94.915Z" fill="#512BD4"/>
<path d="M54.0927 92.3108C54.7869 92.2972 55.3311 91.3399 55.3084 90.1726C55.2855 89.0051 54.7044 88.0698 54.0103 88.0833C53.3161 88.0968 52.7719 89.0542 52.7948 90.2215C52.8175 91.389 53.3986 92.3243 54.0927 92.3108Z" fill="#512BD4"/>
<path d="M65.4346 90.1586C65.4467 88.9911 64.8938 88.0388 64.1996 88.0315C63.5055 88.0244 62.9329 88.9649 62.9207 90.1325C62.9086 91.2999 63.4614 92.2523 64.1557 92.2595C64.8498 92.2667 65.4224 91.3261 65.4346 90.1586Z" fill="#512BD4"/>
<path d="M54.0365 89.139C54.158 89.0165 54.3049 88.9221 54.4669 88.8627C54.6289 88.8032 54.8019 88.7801 54.9738 88.795C55.192 89.2215 55.3069 89.6933 55.3094 90.1724C55.3159 90.4836 55.2795 90.7941 55.2011 91.0953C54.951 91.1679 54.6839 91.1555 54.4416 91.0599C54.1994 90.9644 53.9957 90.7912 53.8624 90.5674C53.7292 90.3437 53.674 90.082 53.7055 89.8235C53.737 89.565 53.8534 89.3242 54.0365 89.139V89.139Z" fill="#8065E0"/>
<path d="M64.1563 89.0247C64.2779 88.902 64.4251 88.8076 64.5873 88.7481C64.7495 88.6886 64.9228 88.6656 65.0949 88.6807C65.3333 89.1348 65.4505 89.6427 65.4353 90.1554C65.433 90.4332 65.3967 90.7096 65.3271 90.9785C65.0769 91.0531 64.809 91.0422 64.5656 90.9476C64.3222 90.8531 64.1173 90.6802 63.9831 90.4562C63.8489 90.2323 63.7931 89.97 63.8244 89.7108C63.8558 89.4516 63.9726 89.2102 64.1563 89.0247V89.0247Z" fill="#8065E0"/>
<path d="M31.9695 106.373C31.888 106.112 29.9975 99.913 33.0697 95.2288C34.8447 92.5225 37.8391 90.9274 41.969 90.4861L42.2851 93.4537C39.0925 93.7941 36.8349 94.9382 35.573 96.853C33.2715 100.345 34.8022 105.432 34.818 105.484L31.9695 106.373Z" fill="url(#paint10_linear_455_707)"/>
<path d="M41.4559 94.5358C42.0397 94.5358 42.6104 94.3626 43.0958 94.0383C43.5813 93.7139 43.9596 93.2529 44.183 92.7135C44.4065 92.1742 44.4649 91.5806 44.351 91.008C44.2371 90.4354 43.956 89.9095 43.5432 89.4966C43.1303 89.0838 42.6044 88.8027 42.0318 88.6888C41.4592 88.5749 40.8656 88.6333 40.3263 88.8568C39.7869 89.0802 39.3259 89.4585 39.0015 89.944C38.6771 90.4294 38.504 91.0001 38.504 91.5839C38.504 92.3668 38.815 93.1176 39.3686 93.6712C39.9222 94.2248 40.673 94.5358 41.4559 94.5358Z" fill="url(#paint11_radial_455_707)"/>
<path d="M38.8275 103.808L34.4496 103.226C34.2641 103.201 34.0755 103.213 33.8946 103.261C33.7138 103.309 33.5442 103.393 33.3955 103.506C33.2468 103.62 33.122 103.762 33.0281 103.924C32.9342 104.086 32.8732 104.265 32.8485 104.45C32.8237 104.636 32.8357 104.824 32.8839 105.005C32.932 105.186 33.0153 105.356 33.129 105.504C33.2427 105.653 33.3845 105.778 33.5464 105.872C33.7084 105.966 33.8872 106.027 34.0727 106.051L38.4506 106.634C38.8253 106.684 39.2045 106.583 39.5047 106.353C39.805 106.124 40.0018 105.784 40.0518 105.409C40.1017 105.035 40.0008 104.656 39.7712 104.355C39.5416 104.055 39.2022 103.858 38.8275 103.808V103.808Z" fill="#8A6FE8"/>
<path d="M31.0723 107.528L31.4832 110.469C31.5389 110.845 31.7414 111.183 32.046 111.409C32.3507 111.635 32.7328 111.732 33.1083 111.677C33.4839 111.621 33.8222 111.42 34.0491 111.115C34.2759 110.811 34.3728 110.429 34.3183 110.054L33.8964 107.037L31.0723 107.528Z" fill="#8A6FE8"/>
<path d="M32.4108 108.415L34.6064 111.872C34.7079 112.031 34.8395 112.168 34.9939 112.275C35.1483 112.383 35.3224 112.459 35.5061 112.499C35.6899 112.54 35.8799 112.543 36.0651 112.51C36.2503 112.477 36.4272 112.408 36.5857 112.306C36.7441 112.205 36.881 112.073 36.9886 111.919C37.0962 111.764 37.1723 111.59 37.2126 111.407C37.2529 111.223 37.2566 111.033 37.2235 110.848C37.1904 110.662 37.1211 110.486 37.0197 110.327L35.3954 107.751L32.4108 108.415Z" fill="#8A6FE8"/>
<path d="M33.6071 107.137L36.5322 110.009C36.803 110.275 37.1687 110.424 37.5489 110.421C37.9291 110.418 38.2926 110.264 38.5594 109.993C38.8262 109.723 38.9745 109.357 38.9717 108.977C38.9688 108.596 38.8151 108.233 38.5442 107.966L35.5656 105.042L33.6071 107.137Z" fill="#8A6FE8"/>
<path d="M33.6472 109.201C34.2404 109.201 34.8202 109.025 35.3135 108.696C35.8067 108.366 36.1911 107.898 36.4181 107.35C36.6451 106.802 36.7045 106.199 36.5887 105.617C36.473 105.035 36.1874 104.501 35.7679 104.081C35.3485 103.662 34.8141 103.376 34.2323 103.26C33.6505 103.145 33.0474 103.204 32.4994 103.431C31.9514 103.658 31.483 104.043 31.1534 104.536C30.8238 105.029 30.6479 105.609 30.6479 106.202C30.6479 106.596 30.7255 106.986 30.8762 107.35C31.027 107.714 31.2479 108.044 31.5264 108.323C31.8049 108.601 32.1355 108.822 32.4994 108.973C32.8633 109.124 33.2533 109.201 33.6472 109.201V109.201Z" fill="url(#paint12_radial_455_707)"/>
<path d="M51.6313 73.0479L48.5745 73.384L48.6587 70.198L50.8541 69.9568L51.6313 73.0479Z" fill="#8A6FE8"/>
<path d="M49.9602 70.5508C50.3847 70.4643 50.7741 70.2539 51.0791 69.9461C51.3841 69.6383 51.591 69.247 51.6736 68.8217C51.7561 68.3963 51.7107 67.956 51.5431 67.5565C51.3754 67.1569 51.0931 66.8161 50.7317 66.577C50.3703 66.3379 49.9462 66.2114 49.5129 66.2133C49.0796 66.2153 48.6566 66.3458 48.2975 66.5881C47.9383 66.8305 47.6591 67.1739 47.4951 67.575C47.3311 67.9761 47.2898 68.4168 47.3762 68.8414C47.4922 69.4107 47.8296 69.9106 48.3142 70.2312C48.7987 70.5518 49.3908 70.6668 49.9602 70.5508Z" fill="#D8CFF7"/>
<path d="M53.012 74.8374C53.0446 74.8339 53.0762 74.8235 53.1046 74.807C53.133 74.7906 53.1576 74.7683 53.1769 74.7417C53.1961 74.7151 53.2096 74.6847 53.2164 74.6526C53.2232 74.6205 53.2232 74.5873 53.2163 74.5551C53.0582 73.8544 52.6475 73.2365 52.0627 72.8194C51.4779 72.4023 50.7599 72.2152 50.0459 72.2939C49.3319 72.3726 48.6718 72.7115 48.1919 73.2459C47.7119 73.7804 47.4456 74.4729 47.4438 75.1912C47.4442 75.2241 47.4515 75.2566 47.4651 75.2865C47.4788 75.3164 47.4986 75.343 47.5233 75.3648C47.548 75.3866 47.5769 75.4029 47.6083 75.4128C47.6397 75.4226 47.6728 75.4258 47.7054 75.422L53.012 74.8374Z" fill="url(#paint13_radial_455_707)"/>
<path d="M79.758 131.422L79.704 150.232L63.334 140.781L63.388 121.971L79.758 131.422Z" fill="url(#paint14_linear_455_707)"/>
<path d="M79.758 131.422L96.023 121.97L95.969 140.78L79.704 150.232L79.758 131.422Z" fill="url(#paint15_linear_455_707)"/>
<path d="M63.3881 121.971L79.6531 112.519L96.0231 121.97L79.7581 131.422L63.3881 121.971Z" fill="url(#paint16_linear_455_707)"/>
<path d="M104.427 116.891L104.4 127.099L96.01 121.97L96.037 111.762L104.427 116.891Z" fill="url(#paint17_linear_455_707)"/>
<path d="M104.427 116.891L112.764 111.761L112.737 121.969L104.4 127.099L104.427 116.891Z" fill="url(#paint18_linear_455_707)"/>
<path d="M96.037 111.762L104.374 106.632L112.764 111.761L104.427 116.891L96.037 111.762Z" fill="url(#paint19_linear_455_707)"/>
<path opacity="0.2" d="M96.037 131.102L104.374 125.972L112.764 131.101L104.427 136.231L96.037 131.102Z" fill="#003067"/>
</g>
<defs>
<linearGradient id="paint0_linear_455_707" x1="79.6785" y1="9.27252" x2="79.6785" y2="180.688" gradientUnits="userSpaceOnUse">
<stop stop-color="#00ABDE"/>
<stop offset="1" stop-color="#007ED8"/>
</linearGradient>
<radialGradient id="paint1_radial_455_707" cx="0" cy="0" r="1" gradientUnits="userSpaceOnUse" gradientTransform="translate(74.0392 77.5718) scale(2.99943)">
<stop stop-color="#8065E0"/>
<stop offset="1" stop-color="#512BD4"/>
</radialGradient>
<linearGradient id="paint2_linear_455_707" x1="55.0419" y1="100.276" x2="57.5705" y2="112.318" gradientUnits="userSpaceOnUse">
<stop stop-color="#522CD5"/>
<stop offset="0.4397" stop-color="#8A6FE8"/>
</linearGradient>
<linearGradient id="paint3_linear_455_707" x1="592.563" y1="8050.48" x2="699.185" y2="7907.81" gradientUnits="userSpaceOnUse">
<stop stop-color="#522CD5"/>
<stop offset="0.4397" stop-color="#8A6FE8"/>
</linearGradient>
<radialGradient id="paint4_radial_455_707" cx="0" cy="0" r="1" gradientUnits="userSpaceOnUse" gradientTransform="translate(62.5707 119.151) rotate(-0.260736) scale(5.20612)">
<stop offset="0.034" stop-color="#522CD5"/>
<stop offset="0.9955" stop-color="#8A6FE8"/>
</radialGradient>
<linearGradient id="paint5_linear_455_707" x1="313.702" y1="7905.68" x2="256.286" y2="7778.61" gradientUnits="userSpaceOnUse">
<stop stop-color="#522CD5"/>
<stop offset="0.4397" stop-color="#8A6FE8"/>
</linearGradient>
<linearGradient id="paint6_linear_455_707" x1="435.622" y1="8074.83" x2="436.737" y2="7914.58" gradientUnits="userSpaceOnUse">
<stop stop-color="#522CD5"/>
<stop offset="0.4397" stop-color="#8A6FE8"/>
</linearGradient>
<radialGradient id="paint7_radial_455_707" cx="0" cy="0" r="1" gradientUnits="userSpaceOnUse" gradientTransform="translate(662656 94709) rotate(179.739) scale(47.3375 17.1806)">
<stop offset="0.034" stop-color="#522CD5"/>
<stop offset="0.9955" stop-color="#8A6FE8"/>
</radialGradient>
<radialGradient id="paint8_radial_455_707" cx="0" cy="0" r="1" gradientUnits="userSpaceOnUse" gradientTransform="translate(55.5397 83.31) rotate(179.739) scale(16.0088)">
<stop offset="0.4744" stop-color="#A08BE8"/>
<stop offset="0.8618" stop-color="#8065E0"/>
</radialGradient>
<radialGradient id="paint9_radial_455_707" cx="0" cy="0" r="1" gradientUnits="userSpaceOnUse" gradientTransform="translate(66.4088 83.8452) rotate(179.739) scale(16.5902)">
<stop offset="0.0933" stop-color="#E1DFDD"/>
<stop offset="0.6573" stop-color="white"/>
</radialGradient>
<linearGradient id="paint10_linear_455_707" x1="36.8024" y1="90.4861" x2="36.8024" y2="106.373" gradientUnits="userSpaceOnUse">
<stop offset="0.3344" stop-color="#9780E6"/>
<stop offset="0.8488" stop-color="#8A6FE8"/>
</linearGradient>
<radialGradient id="paint11_radial_455_707" cx="0" cy="0" r="1" gradientUnits="userSpaceOnUse" gradientTransform="translate(-217798 -116912) rotate(-0.260751) scale(17.4305)">
<stop stop-color="#8065E0"/>
<stop offset="1" stop-color="#512BD4"/>
</radialGradient>
<radialGradient id="paint12_radial_455_707" cx="0" cy="0" r="1" gradientUnits="userSpaceOnUse" gradientTransform="translate(-225111 -123048) scale(17.9951)">
<stop stop-color="#8065E0"/>
<stop offset="1" stop-color="#512BD4"/>
</radialGradient>
<radialGradient id="paint13_radial_455_707" cx="0" cy="0" r="1" gradientUnits="userSpaceOnUse" gradientTransform="translate(-166976 57450.9) rotate(-32.2025) scale(13.8326 7.5351)">
<stop stop-color="#8065E0"/>
<stop offset="1" stop-color="#512BD4"/>
</radialGradient>
<linearGradient id="paint14_linear_455_707" x1="79.7043" y1="150.232" x2="63.3875" y2="121.971" gradientUnits="userSpaceOnUse">
<stop stop-color="white" stop-opacity="0.7"/>
<stop offset="1" stop-color="white" stop-opacity="0.1"/>
</linearGradient>
<linearGradient id="paint15_linear_455_707" x1="87.9286" y1="150.601" x2="87.7501" y2="124.659" gradientUnits="userSpaceOnUse">
<stop stop-color="white" stop-opacity="0.5"/>
<stop offset="1" stop-color="#FCFCFC" stop-opacity="0"/>
</linearGradient>
<linearGradient id="paint16_linear_455_707" x1="79.8357" y1="131.669" x2="79.7958" y2="114.317" gradientUnits="userSpaceOnUse">
<stop stop-color="white" stop-opacity="0.5"/>
<stop offset="1" stop-color="#FCFCFC" stop-opacity="0"/>
</linearGradient>
<linearGradient id="paint17_linear_455_707" x1="100.252" y1="127.299" x2="100.15" y2="113.221" gradientUnits="userSpaceOnUse">
<stop stop-color="white" stop-opacity="0.5"/>
<stop offset="1" stop-color="#FCFCFC" stop-opacity="0"/>
</linearGradient>
<linearGradient id="paint18_linear_455_707" x1="108.615" y1="127.299" x2="108.513" y2="113.22" gradientUnits="userSpaceOnUse">
<stop stop-color="white" stop-opacity="0.5"/>
<stop offset="1" stop-color="#FCFCFC" stop-opacity="0"/>
</linearGradient>
<linearGradient id="paint19_linear_455_707" x1="104.467" y1="117.025" x2="104.444" y2="107.608" gradientUnits="userSpaceOnUse">
<stop stop-color="white" stop-opacity="0.5"/>
<stop offset="1" stop-color="#FCFCFC" stop-opacity="0"/>
</linearGradient>
<clipPath id="clip0_455_707">
<rect width="159.356" height="188" fill="white" transform="translate(0 0.994141)"/>
</clipPath>
</defs>
</svg>
