<svg width="180" height="190" viewBox="0 0 180 190" fill="none" xmlns="http://www.w3.org/2000/svg">
<g clip-path="url(#clip0_2676_170)">
<path d="M90.1859 189.743C93.2459 189.743 96.2559 188.893 98.9159 187.273L160.886 149.613C166.426 146.243 169.856 139.913 169.856 133.073V58.3627C169.856 51.5427 166.426 45.2027 160.886 41.8227L98.9159 4.16274C93.5859 0.92274 86.7659 0.94274 81.4659 4.16274L19.4959 41.8427C13.9559 45.2127 10.5059 51.5427 10.5059 58.3827V133.083C10.5059 138.843 12.9559 144.263 17.0559 147.833V147.863L81.4659 187.293C84.1059 188.893 87.1259 189.743 90.1859 189.743ZM90.8359 8.69274C92.7859 8.69274 95.2659 9.90274 96.9759 10.9527L157.736 48.1427C161.486 50.4227 163.606 57.0227 163.606 61.7727L162.976 133.073C162.976 137.823 159.776 142.093 156.026 144.373L95.6259 180.753C92.1959 182.843 89.4059 182.843 85.9659 180.753L24.7559 144.283C21.0059 142.003 17.9859 137.803 17.9859 133.073V59.4327C17.9859 54.6927 20.7159 49.8027 24.4859 47.5127L85.0659 10.9527C86.7659 9.91274 88.8859 8.69274 90.8359 8.69274Z" fill="#F2F1F0"/>
<path fill-rule="evenodd" clip-rule="evenodd" d="M98.0856 12.2715C95.6356 10.7715 92.9156 10.0215 90.1856 10.0215C87.4556 10.0215 84.7356 10.7815 82.2856 12.2715L26.1556 46.6015C21.1356 49.6715 18.0256 55.4215 18.0256 61.6715V129.771C18.0256 136.001 21.1256 141.771 26.1556 144.841L82.2856 179.171C84.7356 180.671 87.4556 181.421 90.1856 181.421C92.9156 181.421 95.6356 180.681 98.0856 179.171L154.216 144.841C159.236 141.771 162.346 136.001 162.346 129.771V61.6715C162.346 55.4415 159.246 49.6915 154.216 46.6015L98.0856 12.2715Z" fill="url(#paint0_linear_2676_170)"/>
<path d="M90.1858 7.3418C93.1209 7.34185 95.8627 8.7935 97.9739 10.0742L156.434 45.6143C161.401 48.6333 164.486 54.3038 164.486 60.4824V130.962C164.486 137.141 161.401 142.811 156.434 145.83L97.9739 181.37C95.744 182.726 93.0357 183.912 90.176 183.912C87.3159 183.912 84.6174 182.716 82.3879 181.36L23.928 145.82C21.6589 144.445 19.5759 142.83 18.0979 140.4H18.0969C16.6189 137.961 15.8752 134.941 15.8752 130.962V60.4824C15.8752 54.3036 18.9602 48.6333 23.928 45.6143L82.3977 10.0645L82.4348 10.0479V10.0469C84.5221 8.7902 87.2532 7.3418 90.1858 7.3418ZM90.1858 11.6426C88.5414 11.6426 86.713 12.5006 84.6223 13.751L84.6213 13.75L26.1633 49.29C22.5609 51.4811 20.176 55.7014 20.176 60.4824V130.962C20.176 134.403 20.8123 136.594 21.7737 138.164L21.9592 138.456C22.916 139.893 24.288 141.006 26.1643 142.154L84.6438 177.684C86.5941 178.868 88.4857 179.603 90.1956 179.603C91.9054 179.603 93.797 178.868 95.7473 177.684L154.207 142.144C157.81 139.953 160.196 135.723 160.196 130.952V60.4727C160.196 55.6917 157.81 51.4714 154.207 49.2803L95.7375 13.7402C93.6789 12.4911 91.8205 11.6426 90.1858 11.6426Z" fill="url(#paint1_linear_2676_170)" stroke="black" stroke-width="0.3" stroke-linejoin="round"/>
<path d="M127.526 106.042H112.821" stroke="black" stroke-width="0.5" stroke-miterlimit="10"/>
<path d="M127.526 84.7812H112.821" stroke="black" stroke-width="0.5" stroke-miterlimit="10"/>
<path d="M127.526 62.6221H112.821V129.132H127.526" stroke="black" stroke-width="0.5" stroke-miterlimit="10" stroke-linejoin="round"/>
<path d="M141.709 54.8359H121.032C120.133 54.8359 119.408 55.5609 119.408 56.4593V69.9345C119.408 70.8329 120.133 71.5579 121.032 71.5579H142.308C143.207 71.5579 143.932 70.8329 143.932 69.9345V57.0582C143.916 55.8289 142.923 54.8359 141.709 54.8359Z" fill="#50E6FF" stroke="black" stroke-width="0.3"/>
<path d="M141.709 76.5859H121.032C120.133 76.5859 119.408 77.3109 119.408 78.2093V91.6845C119.408 92.5829 120.133 93.3079 121.032 93.3079H142.308C143.207 93.3079 143.932 92.5829 143.932 91.6845V78.8082C143.916 77.5789 142.923 76.5859 141.709 76.5859Z" fill="#50E6FF" stroke="black" stroke-width="0.3"/>
<path d="M141.709 98.335H121.032C120.133 98.335 119.408 99.0599 119.408 99.9583V113.434C119.408 114.332 120.133 115.057 121.032 115.057H142.308C143.207 115.057 143.932 114.332 143.932 113.434V100.557C143.916 99.3279 142.923 98.335 141.709 98.335Z" fill="#3BCAF4" stroke="black" stroke-width="0.3"/>
<path d="M141.709 120.085H121.032C120.133 120.085 119.408 120.81 119.408 121.708V135.184C119.408 136.082 120.133 136.807 121.032 136.807H142.308C143.207 136.807 143.932 136.082 143.932 135.184V122.307C143.916 121.078 142.923 120.085 141.709 120.085Z" fill="#32B0E7" stroke="black" stroke-width="0.3"/>
<path d="M112.762 95.7031H96.2715" stroke="black" stroke-width="0.5" stroke-miterlimit="10"/>
<path d="M102.813 117.532H36.3827C35.1376 117.532 34.1289 116.523 34.1289 115.278V76.6961C34.1289 75.4511 35.1376 74.4424 36.3827 74.4424H102.813C104.058 74.4424 105.067 75.4511 105.067 76.6961V115.262C105.067 116.507 104.058 117.532 102.813 117.532Z" fill="#002D4C"/>
<path d="M56.1157 111.511C64.6422 111.511 71.5611 104.592 71.5611 96.0654C71.5611 87.539 64.6422 80.6201 56.1157 80.6201C47.5893 80.6201 40.6704 87.539 40.6704 96.0654C40.6704 104.592 47.5893 111.511 56.1157 111.511Z" fill="white"/>
<path d="M65.1607 103.583C64.6564 98.997 60.7163 95.3721 55.9408 95.3721C51.2126 95.3721 47.304 98.9024 46.7209 103.457C46.6421 103.772 46.6421 104.119 46.6421 104.434C46.7682 105.727 47.6665 106.988 49.3529 107.965C52.9778 110.045 58.888 110.045 62.4814 107.965C64.1836 106.988 65.0346 105.727 65.1607 104.434C65.2395 104.166 65.1922 103.851 65.1607 103.583Z" fill="#0078D4"/>
<path d="M55.943 94.0485C59.0321 94.0485 61.5222 91.5584 61.5222 88.5008C61.5222 85.4275 59.0163 82.9531 55.943 82.9531C52.8539 82.9531 50.3638 85.4433 50.3638 88.5008C50.3638 91.5741 52.8539 94.0485 55.943 94.0485Z" fill="#0078D4"/>
<circle cx="131.669" cy="63.1973" r="7.14551" fill="white"/>
<path d="M134.941 65.979C134.768 64.3557 133.365 63.0791 131.679 63.0791C130.008 63.0791 128.637 64.3242 128.416 65.9318C128.385 66.0421 128.385 66.1682 128.385 66.2785C128.432 66.7355 128.747 67.1768 129.346 67.5236C130.623 68.2643 132.719 68.2643 133.98 67.5236C134.579 67.1768 134.878 66.7355 134.925 66.2785C134.957 66.1839 134.957 66.0736 134.941 65.979Z" fill="#0078D4"/>
<path d="M131.67 62.6069C132.757 62.6069 133.64 61.7243 133.64 60.6525C133.64 59.5651 132.757 58.6982 131.67 58.6982C130.582 58.6982 129.699 59.5808 129.699 60.6525C129.699 61.74 130.582 62.6069 131.67 62.6069Z" fill="#0078D4"/>
<circle cx="131.669" cy="84.9463" r="7.14551" fill="white"/>
<path d="M134.941 87.8228C134.768 86.1995 133.365 84.9229 131.679 84.9229C130.008 84.9229 128.637 86.1679 128.416 87.7755C128.385 87.8858 128.385 88.0119 128.385 88.1222C128.432 88.5793 128.747 89.0206 129.346 89.3673C130.623 90.1081 132.719 90.1081 133.98 89.3673C134.579 89.0206 134.878 88.5793 134.925 88.1222C134.957 88.0277 134.957 87.9174 134.941 87.8228Z" fill="#0078D4"/>
<path d="M131.67 84.4653C132.757 84.4653 133.64 83.5827 133.64 82.511C133.64 81.4235 132.757 80.5566 131.67 80.5566C130.582 80.5566 129.699 81.4392 129.699 82.511C129.699 83.5827 130.582 84.4653 131.67 84.4653Z" fill="#0078D4"/>
<circle cx="131.669" cy="106.774" r="7.14551" fill="white"/>
<path d="M134.94 109.349C134.767 107.726 133.364 106.449 131.678 106.449C130.007 106.449 128.636 107.694 128.415 109.302C128.384 109.412 128.384 109.538 128.384 109.649C128.431 110.106 128.746 110.547 129.345 110.894C130.622 111.634 132.718 111.634 133.979 110.894C134.578 110.547 134.877 110.106 134.924 109.649C134.956 109.57 134.956 109.444 134.94 109.349Z" fill="#0078D4"/>
<path d="M131.67 105.993C132.758 105.993 133.64 105.11 133.64 104.038C133.64 102.951 132.758 102.084 131.67 102.084C130.583 102.084 129.7 102.967 129.7 104.038C129.7 105.11 130.583 105.993 131.67 105.993Z" fill="#0078D4"/>
<circle cx="131.669" cy="128.446" r="7.14551" fill="white"/>
<path d="M134.94 130.873C134.767 129.249 133.364 127.973 131.678 127.973C130.007 127.973 128.636 129.218 128.415 130.825C128.384 130.936 128.384 131.062 128.384 131.172C128.431 131.629 128.746 132.07 129.345 132.417C130.622 133.158 132.718 133.158 133.979 132.417C134.578 132.07 134.877 131.629 134.924 131.172C134.956 131.093 134.956 130.983 134.94 130.873Z" fill="#0078D4"/>
<path d="M131.67 127.515C132.758 127.515 133.64 126.632 133.64 125.561C133.64 124.473 132.758 123.606 131.67 123.606C130.583 123.606 129.7 124.489 129.7 125.561C129.7 126.632 130.583 127.515 131.67 127.515Z" fill="#0078D4"/>
<path d="M98.0631 90.2686C98.0631 85.4421 94.1141 81.4932 89.2876 81.4932C84.9508 81.4932 81.3261 84.679 80.633 88.8251H84.2259C84.4675 87.9794 84.9253 87.1972 85.5676 86.5486C86.566 85.5502 87.8823 85.0033 89.2813 85.0033C90.6739 85.0033 91.9966 85.5502 92.9949 86.5486C93.9933 87.5469 94.5402 88.8633 94.5402 90.2622C94.5402 90.542 94.5402 91.3369 94.5338 92.3798H80.5186V109.982H98.0631V93.5371C98.0631 91.941 98.0631 90.6565 98.0631 90.2686Z" fill="url(#paint2_linear_2676_170)"/>
<path d="M79.6328 87.7715C80.1974 88.3361 81.1141 88.3361 81.6787 87.7715C82.2429 87.2069 82.2431 86.2911 81.6787 85.7266C81.1141 85.162 80.1974 85.162 79.6328 85.7266C79.0685 86.2911 79.0686 87.2069 79.6328 87.7715ZM78.9893 95.5898C78.0205 95.3201 77.1027 94.8101 76.3428 94.0439L76.1289 93.8184C74.054 91.5164 74.0546 88.01 76.1523 85.708L76.3691 85.4824C78.736 83.1223 82.5701 83.1222 84.9307 85.4893C87.2907 87.8561 87.2909 91.6902 84.9238 94.0508L84.6943 94.2686C84.1741 94.7367 83.5866 95.0991 82.9707 95.3545L82.9707 98.5947L82.9717 98.5947C82.9998 98.6229 83.0157 98.6613 83.0156 98.7012C83.0156 98.741 82.9999 98.7795 82.9717 98.8076L81.5713 100.202L83.0156 101.634C83.0439 101.662 83.0604 101.7 83.0605 101.74C83.0606 101.78 83.0439 101.818 83.0156 101.847L81.6094 103.248L82.9844 104.63C83.0427 104.688 83.0429 104.783 82.9844 104.842L81.5586 106.269L82.9531 107.67C82.9809 107.698 82.9961 107.736 82.9961 107.775C82.996 107.815 82.9804 107.854 82.9521 107.882L82.2344 108.594L80.7207 110.107L80.6719 110.14C80.6538 110.147 80.6342 110.151 80.6143 110.151C80.5744 110.151 80.5359 110.135 80.5078 110.106L79.001 108.594C78.9729 108.566 78.957 108.527 78.957 108.487L78.9893 95.5898Z" fill="white" stroke="black" stroke-width="0.3" stroke-linejoin="round"/>
<path d="M91.8177 104.152C92.1384 104.152 92.3983 103.892 92.3983 103.571C92.3983 103.25 92.1384 102.99 91.8177 102.99C91.497 102.99 91.2371 103.25 91.2371 103.571C91.2371 103.892 91.497 104.152 91.8177 104.152Z" fill="white"/>
<path d="M89.0882 104.152C89.4089 104.152 89.6688 103.892 89.6688 103.571C89.6688 103.25 89.4089 102.99 89.0882 102.99C88.7675 102.99 88.5076 103.25 88.5076 103.571C88.5076 103.892 88.7675 104.152 89.0882 104.152Z" fill="white"/>
<path d="M86.3575 104.152C86.6782 104.152 86.9381 103.892 86.9381 103.571C86.9381 103.25 86.6782 102.99 86.3575 102.99C86.0368 102.99 85.7769 103.25 85.7769 103.571C85.7769 103.892 86.0368 104.152 86.3575 104.152Z" fill="white"/>
<path d="M91.8177 101.351C92.1384 101.351 92.3983 101.091 92.3983 100.77C92.3983 100.449 92.1384 100.189 91.8177 100.189C91.497 100.189 91.2371 100.449 91.2371 100.77C91.2371 101.091 91.497 101.351 91.8177 101.351Z" fill="#50E6FF"/>
<path d="M89.0882 101.351C89.4089 101.351 89.6688 101.091 89.6688 100.77C89.6688 100.449 89.4089 100.189 89.0882 100.189C88.7675 100.189 88.5076 100.449 88.5076 100.77C88.5076 101.091 88.7675 101.351 89.0882 101.351Z" fill="#50E6FF"/>
<path d="M86.3575 101.351C86.6782 101.351 86.9381 101.091 86.9381 100.77C86.9381 100.449 86.6782 100.189 86.3575 100.189C86.0368 100.189 85.7769 100.449 85.7769 100.77C85.7769 101.091 86.0368 101.351 86.3575 101.351Z" fill="#50E6FF"/>
<path d="M91.8177 98.5509C92.1384 98.5509 92.3983 98.291 92.3983 97.9703C92.3983 97.6496 92.1384 97.3896 91.8177 97.3896C91.497 97.3896 91.2371 97.6496 91.2371 97.9703C91.2371 98.291 91.497 98.5509 91.8177 98.5509Z" fill="white"/>
<path d="M89.0882 98.5509C89.4089 98.5509 89.6688 98.291 89.6688 97.9703C89.6688 97.6496 89.4089 97.3896 89.0882 97.3896C88.7675 97.3896 88.5076 97.6496 88.5076 97.9703C88.5076 98.291 88.7675 98.5509 89.0882 98.5509Z" fill="white"/>
<path d="M86.3575 98.5509C86.6782 98.5509 86.9381 98.291 86.9381 97.9703C86.9381 97.6496 86.6782 97.3896 86.3575 97.3896C86.0368 97.3896 85.7769 97.6496 85.7769 97.9703C85.7769 98.291 86.0368 98.5509 86.3575 98.5509Z" fill="white"/>
</g>
<defs>
<linearGradient id="paint0_linear_2676_170" x1="96.8261" y1="3.08351" x2="105.003" y2="204.579" gradientUnits="userSpaceOnUse">
<stop offset="0.318529" stop-color="#EFF7FF"/>
<stop offset="1" stop-color="#C7D8EB"/>
</linearGradient>
<linearGradient id="paint1_linear_2676_170" x1="49.672" y1="16.9091" x2="103.377" y2="257.876" gradientUnits="userSpaceOnUse">
<stop offset="0.0511799" stop-color="#50E6FF"/>
<stop offset="0.49" stop-color="#007ED8"/>
<stop offset="1" stop-color="#002D4C"/>
</linearGradient>
<linearGradient id="paint2_linear_2676_170" x1="89.2908" y1="81.4932" x2="89.2908" y2="109.982" gradientUnits="userSpaceOnUse">
<stop stop-color="#008BF1"/>
<stop offset="0.22" stop-color="#0086EC"/>
<stop offset="0.49" stop-color="#0078DD"/>
<stop offset="0.79" stop-color="#0061C4"/>
<stop offset="1" stop-color="#004DAE"/>
</linearGradient>
<clipPath id="clip0_2676_170">
<rect width="180" height="190" fill="white"/>
</clipPath>
</defs>
</svg>
