<svg width="103" height="102" viewBox="0 0 103 102" fill="none" xmlns="http://www.w3.org/2000/svg">
<path d="M51.0737 97.8105C25.2237 97.8105 4.26367 76.8605 4.26367 51.0005C4.26367 25.1405 25.2237 4.19049 51.0737 4.19049C76.9237 4.19049 97.8837 25.1505 97.8837 51.0005C97.8837 76.8505 76.9237 97.8105 51.0737 97.8105Z" fill="url(#paint0_linear)"/>
<path fill-rule="evenodd" clip-rule="evenodd" d="M96.9736 51.0005C96.9736 76.3505 76.4236 96.9005 51.0736 96.9005C25.7236 96.9005 5.17359 76.3505 5.17359 51.0005C5.17359 25.6505 25.7236 5.10047 51.0736 5.10047C76.4236 5.10047 96.9736 25.6505 96.9736 51.0005ZM51.0736 1.36047C78.4936 1.36047 100.714 23.5805 100.714 51.0005C100.714 78.4205 78.4836 100.64 51.0736 100.64C23.6536 100.64 1.43359 78.4105 1.43359 51.0005C1.43359 23.5805 23.6536 1.36047 51.0736 1.36047Z" fill="#F2F1F0"/>
<path fill-rule="evenodd" clip-rule="evenodd" d="M94.1641 51.0005C94.1641 74.8005 74.8741 94.0905 51.0741 94.0905C27.2741 94.0905 7.98414 74.8005 7.98414 51.0005C7.98414 27.2005 27.2741 7.91047 51.0741 7.91047C74.8741 7.91047 94.1641 27.2005 94.1641 51.0005ZM51.0741 4.17047C76.9341 4.17047 97.9041 25.1405 97.9041 51.0005C97.9041 76.8605 76.9341 97.8305 51.0741 97.8305C25.2141 97.8305 4.24414 76.8605 4.24414 51.0005C4.24414 25.1405 25.2041 4.17047 51.0741 4.17047Z" fill="#002D4C"/>
<path opacity="0.15" d="M15.9049 59.5606L42.2749 76.5205L69.1149 59.5005L72.4749 63.3905L42.2749 82.6506L12.5449 63.3905L15.9049 59.5606Z" fill="#1F1D20"/>
<path d="M15.9049 55.9905L42.2749 72.9405L69.1149 55.9205L72.4749 59.8105L42.2749 79.0705L12.5449 59.8105L15.9049 55.9905Z" fill="#9CEBFF"/>
<path d="M17.9043 53.8005L42.2743 25.0405L67.1543 53.8305L42.2743 69.4005L17.9043 53.8005Z" fill="white"/>
<path d="M42.2743 25.0405V69.4005L17.9043 53.8005L42.2743 25.0405Z" fill="#9CEBFF"/>
<path d="M42.2754 25.0405V69.4005L67.1554 53.8305L42.2754 25.0405Z" fill="url(#paint1_linear)"/>
<path d="M42.2754 47.9705L67.1554 53.8405L42.2754 69.4105V47.9705Z" fill="#53B1E0"/>
<path d="M42.2745 69.4105L17.8945 53.8105L42.2745 47.9705V69.4105Z" fill="#C3F1FF"/>
<path d="M42.2754 79.0705L72.4754 59.8105L69.1154 55.9205L42.2754 72.9405V79.0705Z" fill="url(#paint2_linear)"/>
<g opacity="0.15">
<path opacity="0.15" d="M89.7637 32.5007H49.0037C48.4537 32.5007 48.0137 32.9507 48.0137 33.4907V58.0307C48.0137 58.5807 48.4637 59.0207 49.0037 59.0207H89.7637C90.3137 59.0207 90.7537 58.5707 90.7537 58.0307V33.4907C90.7537 32.9407 90.3137 32.5007 89.7637 32.5007Z" fill="#1F1D20"/>
</g>
<path d="M89.7637 30.9307H49.0037C48.4537 30.9307 48.0137 31.3807 48.0137 31.9207V56.4607C48.0137 57.0107 48.4637 57.4507 49.0037 57.4507H89.7637C90.3137 57.4507 90.7537 57.0007 90.7537 56.4607V31.9207C90.7537 31.3707 90.3137 30.9307 89.7637 30.9307Z" fill="#002D4C"/>
<path d="M60.7133 52.9206C65.4633 52.9206 69.3133 49.0706 69.3133 44.3206C69.3133 39.5706 65.4633 35.7206 60.7133 35.7206C55.9633 35.7206 52.1133 39.5706 52.1133 44.3206C52.1033 49.0706 55.9533 52.9206 60.7133 52.9206Z" fill="white"/>
<path d="M64.9025 47.8206C64.6625 45.6906 62.8325 44.0106 60.6225 44.0106C58.4225 44.0106 56.6125 45.6506 56.3425 47.7706C56.3125 47.9206 56.3125 48.0806 56.3125 48.2306C56.3725 48.8306 56.7825 49.4106 57.5725 49.8706C59.2525 50.8306 62.0025 50.8306 63.6625 49.8706C64.4525 49.4106 64.8525 48.8306 64.9025 48.2306C64.9325 48.0906 64.9225 47.9506 64.9025 47.8206Z" fill="url(#paint3_radial)"/>
<path d="M60.6232 43.3907C62.0532 43.3907 63.2132 42.2407 63.2132 40.8107C63.2132 39.3807 62.0532 38.2307 60.6232 38.2307C59.1932 38.2307 58.0332 39.3807 58.0332 40.8107C58.0332 42.2407 59.1932 43.3907 60.6232 43.3907Z" fill="url(#paint4_radial)"/>
<path d="M86.1141 37.9106H73.6441C73.1041 37.9106 72.6641 38.3606 72.6641 38.8906C72.6641 39.4306 73.1141 39.8706 73.6441 39.8706H86.1041C86.6441 39.8706 87.0841 39.4206 87.0841 38.8906C87.0941 38.3506 86.6641 37.9106 86.1141 37.9106Z" fill="#50E6FF"/>
<path d="M86.1141 42.1807H73.6441C73.1041 42.1807 72.6641 42.6307 72.6641 43.1607C72.6641 43.7007 73.1141 44.1407 73.6441 44.1407H86.1041C86.6441 44.1407 87.0841 43.6907 87.0841 43.1607C87.0941 42.6207 86.6641 42.1807 86.1141 42.1807Z" fill="#32B0E7"/>
<path fill-rule="evenodd" clip-rule="evenodd" d="M73.6441 46.7706H79.8741C80.4141 46.7706 80.8541 47.2206 80.8541 47.7506C80.8541 48.2906 80.4041 48.7306 79.8741 48.7306H73.6441C73.1041 48.7306 72.6641 48.2806 72.6641 47.7506C72.6641 47.2206 73.1041 46.7706 73.6441 46.7706Z" fill="#185A97"/>
<path d="M87.6245 47.2507L81.7445 53.1507L79.9845 51.3807L78.8145 52.5607L81.7545 55.5007L88.8045 48.4307L87.6245 47.2507Z" fill="#FAF9F8"/>
<defs>
<linearGradient id="paint0_linear" x1="46.936" y1="-67.5566" x2="54.495" y2="149.01" gradientUnits="userSpaceOnUse">
<stop stop-color="#007ED8"/>
<stop offset="0.7065" stop-color="#002D4C"/>
</linearGradient>
<linearGradient id="paint1_linear" x1="56.65" y1="65.3189" x2="41.4636" y2="36.2742" gradientUnits="userSpaceOnUse">
<stop stop-color="#1988D9"/>
<stop offset="0.9" stop-color="#54AEF0"/>
</linearGradient>
<linearGradient id="paint2_linear" x1="50.1471" y1="56.8484" x2="60.6499" y2="75.1414" gradientUnits="userSpaceOnUse">
<stop offset="0.1" stop-color="#54AEF0"/>
<stop offset="0.29" stop-color="#4FABEE"/>
<stop offset="0.51" stop-color="#41A2E9"/>
<stop offset="0.74" stop-color="#2A93E0"/>
<stop offset="0.88" stop-color="#1988D9"/>
</linearGradient>
<radialGradient id="paint3_radial" cx="0" cy="0" r="1" gradientUnits="userSpaceOnUse" gradientTransform="translate(58.1301 40.1296) scale(18.1042)">
<stop stop-color="#4FC2EB"/>
<stop offset="0.585" stop-color="#2E76BC"/>
</radialGradient>
<radialGradient id="paint4_radial" cx="0" cy="0" r="1" gradientUnits="userSpaceOnUse" gradientTransform="translate(58.1308 40.1297) scale(18.1042)">
<stop stop-color="#4FC2EB"/>
<stop offset="0.585" stop-color="#2E76BC"/>
</radialGradient>
</defs>
</svg>
