<svg width="103" height="103" viewBox="0 0 103 103" fill="none" xmlns="http://www.w3.org/2000/svg">
<path d="M51.7397 98.7528C25.8897 98.7528 4.92969 77.8028 4.92969 51.9428C4.92969 26.0828 25.8897 5.13281 51.7397 5.13281C77.5897 5.13281 98.5497 26.0928 98.5497 51.9428C98.5497 77.7928 77.5897 98.7528 51.7397 98.7528Z" fill="url(#paint0_linear)"/>
<path fill-rule="evenodd" clip-rule="evenodd" d="M97.6399 51.943C97.6399 77.293 77.0899 97.843 51.7399 97.843C26.3899 97.843 5.83985 77.293 5.83985 51.943C5.83985 26.593 26.3899 6.04298 51.7399 6.04298C77.0899 6.04298 97.6399 26.593 97.6399 51.943ZM51.7399 2.30298C79.1599 2.30298 101.38 24.523 101.38 51.943C101.38 79.363 79.1499 101.583 51.7399 101.583C24.3199 101.583 2.09985 79.353 2.09985 51.943C2.09985 24.523 24.3199 2.30298 51.7399 2.30298Z" fill="#F2F1F0"/>
<path fill-rule="evenodd" clip-rule="evenodd" d="M94.8297 51.9428C94.8297 75.7428 75.5397 95.0328 51.7397 95.0328C27.9397 95.0328 8.64967 75.7428 8.64967 51.9428C8.64967 28.1428 27.9397 8.85279 51.7397 8.85279C75.5397 8.85279 94.8297 28.1428 94.8297 51.9428ZM51.7397 5.11279C77.5997 5.11279 98.5697 26.0828 98.5697 51.9428C98.5697 77.8028 77.5997 98.7728 51.7397 98.7728C25.8797 98.7728 4.90967 77.8028 4.90967 51.9428C4.90967 26.0828 25.8697 5.11279 51.7397 5.11279Z" fill="url(#paint1_linear)"/>
<path opacity="0.15" d="M93.0196 53.6627L82.9496 43.8127V48.3927H59.5996V58.4427H82.9396V63.5527C82.9396 63.7627 83.1996 63.8727 83.3496 63.7227L93.0096 54.2727C93.1896 54.1027 93.1896 53.8327 93.0196 53.6627Z" fill="#1F1D20"/>
<path d="M93.0196 51.2828L83.3496 41.8328C83.1996 41.6828 82.9396 41.7928 82.9396 42.0028V46.0128H59.5996V56.0628H82.9396V61.1728C82.9396 61.3828 83.1996 61.4928 83.3496 61.3428L93.0096 51.8928C93.1896 51.7228 93.1896 51.4528 93.0196 51.2828Z" fill="#002169"/>
<path opacity="0.15" d="M76.8997 48.7628C76.8997 48.0528 76.3197 47.4728 75.6097 47.4728C75.1497 47.4728 72.2497 47.2228 70.6997 46.0128C70.6997 46.0128 70.7097 45.9928 70.6997 46.0128C70.1097 43.8728 69.2497 41.8728 68.1897 39.9828C67.9197 38.1828 69.7797 36.8828 70.6297 35.4728C70.7797 35.2228 70.8697 35.0828 70.9197 34.9928C71.0797 34.5328 70.9897 34.0128 70.6297 33.6528C70.6297 33.6528 69.1997 31.6128 67.7397 30.1528C66.2797 28.6928 64.0597 27.0728 64.0597 27.0728C63.5597 26.5728 62.7397 26.5728 62.2397 27.0728C61.9097 27.3928 59.7097 29.2128 57.7197 29.5028C57.6897 29.5028 57.6897 29.5028 57.6897 29.5028C55.8497 28.4628 53.7797 27.6028 51.6997 27.0128H51.6697C50.2097 25.9328 50.5897 23.7028 50.2097 22.1028C50.2097 21.3928 49.6297 20.8128 48.9197 20.8128C48.9197 20.8128 46.4597 20.3828 44.3897 20.3828C42.3197 20.3828 39.6097 20.8128 39.6097 20.8128C38.8997 20.8128 38.3197 21.3928 38.3197 22.1028C38.3197 22.5628 38.0697 25.4628 36.8597 27.0128C34.8097 27.5928 32.6497 28.5028 30.8297 29.5228C29.0297 29.7928 27.7297 27.9328 26.3197 27.0828C26.0697 26.9328 25.9297 26.8428 25.8397 26.7928C25.3797 26.6328 24.8597 26.7228 24.4997 27.0828C24.4997 27.0828 22.4597 28.5128 20.9997 29.9728C19.5397 31.4328 17.9197 33.6528 17.9197 33.6528C17.4197 34.1528 17.4197 34.9728 17.9197 35.4728C18.2397 35.7928 20.1097 38.0328 20.3597 39.9828V40.0028C19.3397 41.8228 18.4497 43.9728 17.8697 46.0228C17.8697 46.0228 17.8997 45.9828 17.8697 46.0228C16.6197 47.5528 14.5597 47.1028 12.9597 47.4828C12.2497 47.4828 11.6697 48.0628 11.6697 48.7728C11.6697 48.7728 11.2397 51.2328 11.2397 53.3028C11.2397 55.3728 11.6697 58.0828 11.6697 58.0828C11.6697 58.7928 12.2497 59.3728 12.9597 59.3728C13.4197 59.3728 16.3197 59.6228 17.8697 60.8328C17.9097 60.8128 17.8897 60.8628 17.8897 60.8628C18.4897 62.9228 19.3397 64.9828 20.3697 66.8128C20.3497 66.8428 20.3697 66.8128 20.3797 66.8728C20.5597 68.7528 18.7897 69.9728 17.9397 71.3828C17.7897 71.6328 17.6997 71.7728 17.6497 71.8628C17.4897 72.3228 17.5797 72.8428 17.9397 73.2028C17.9397 73.2028 19.3697 75.2428 20.8297 76.7028C22.2897 78.1628 24.5097 79.7828 24.5097 79.7828C25.0097 80.2828 25.8297 80.2828 26.3297 79.7828C26.6497 79.4628 28.8897 77.5928 30.8397 77.3428C30.8397 77.3428 30.8297 77.3528 30.8697 77.3628C32.7497 78.4028 34.6797 79.2328 36.8097 79.8128C36.8297 79.8228 36.8897 79.8428 36.8897 79.8428C38.3497 80.9228 37.9697 83.1528 38.3497 84.7528C38.4297 85.4728 38.8197 85.9328 39.6397 86.0428C39.6397 86.0428 42.0997 86.4728 44.1697 86.4728C46.2397 86.4728 48.9497 86.0528 48.9497 86.0528C49.6597 85.9328 50.2397 85.4728 50.2397 84.7628C50.2397 84.3028 50.4897 81.4028 51.6997 79.8528C51.6997 79.8528 51.7497 79.8128 51.8097 79.7628C53.9697 79.1528 55.6097 78.4928 57.5097 77.3928C57.6097 77.3528 57.4997 77.3628 57.7297 77.3328C59.5297 77.0628 60.8297 78.9228 62.2397 79.7728C62.4897 79.9228 62.6297 80.0128 62.7197 80.0628C63.1797 80.2228 63.6997 80.1328 64.0597 79.7728C64.0597 79.7728 66.0997 78.3428 67.5597 76.8828C69.0197 75.4228 70.6397 73.2028 70.6397 73.2028C71.1397 72.7028 71.1397 71.8828 70.6397 71.3828C70.3197 71.0628 68.4497 68.8228 68.1997 66.8728C68.1697 66.6728 68.1897 66.6428 68.2197 66.5928C69.3097 64.6728 69.9897 63.2728 70.5897 61.0928C70.5897 61.0928 70.5597 61.0228 70.6997 60.8428C71.7797 59.3828 74.0097 59.7628 75.6097 59.3828C76.3197 59.3828 76.8997 58.8028 76.8997 58.0928C76.8997 58.0928 77.3297 55.6328 77.3297 53.5628C77.3297 51.4928 76.8997 48.7628 76.8997 48.7628Z" fill="#1F1D20"/>
<path d="M76.8997 47.0028C76.8997 46.2928 76.3197 45.7128 75.6097 45.7128C75.1497 45.7128 72.2497 45.4628 70.6997 44.2528C70.6997 44.2528 70.7097 44.2328 70.6997 44.2528C70.1097 42.1128 69.2497 40.1128 68.1897 38.2228C67.9197 36.4228 69.7797 35.1228 70.6297 33.7128C70.7797 33.4628 70.8697 33.3228 70.9197 33.2328C71.0797 32.7728 70.9897 32.2528 70.6297 31.8928C70.6297 31.8928 69.1997 29.8528 67.7397 28.3928C66.2797 26.9328 64.0597 25.3128 64.0597 25.3128C63.5597 24.8128 62.7397 24.8128 62.2397 25.3128C61.9097 25.6328 59.7097 27.4528 57.7197 27.7428C57.6897 27.7428 57.6897 27.7428 57.6897 27.7428C55.8497 26.7028 53.7797 25.8428 51.6997 25.2528H51.6697C50.2097 24.1728 50.5897 21.9428 50.2097 20.3428C50.2097 19.6328 49.6297 19.0528 48.9197 19.0528C48.9197 19.0528 46.4597 18.6228 44.3897 18.6228C42.3197 18.6228 39.6097 19.0528 39.6097 19.0528C38.8997 19.0528 38.3197 19.6328 38.3197 20.3428C38.3197 20.8028 38.0697 23.7028 36.8597 25.2528C34.8097 25.8328 32.6497 26.7428 30.8297 27.7628C29.0297 28.0328 27.7297 26.1728 26.3197 25.3228C26.0697 25.1728 25.9297 25.0828 25.8397 25.0328C25.3797 24.8728 24.8597 24.9628 24.4997 25.3228C24.4997 25.3228 22.4597 26.7528 20.9997 28.2128C19.5397 29.6728 17.9197 31.8928 17.9197 31.8928C17.4197 32.3928 17.4197 33.2128 17.9197 33.7128C18.2397 34.0328 20.1097 36.2728 20.3597 38.2228V38.2428C19.3397 40.0628 18.4497 42.2128 17.8697 44.2628C17.8697 44.2628 17.8997 44.2228 17.8697 44.2628C16.6197 45.7928 14.5597 45.3428 12.9597 45.7228C12.2497 45.7228 11.6697 46.3028 11.6697 47.0128C11.6697 47.0128 11.2397 49.4728 11.2397 51.5428C11.2397 53.6128 11.6697 56.3228 11.6697 56.3228C11.6697 57.0328 12.2497 57.6128 12.9597 57.6128C13.4197 57.6128 16.3197 57.8628 17.8697 59.0728C17.9097 59.0528 17.8897 59.1028 17.8897 59.1028C18.4897 61.1628 19.3397 63.2228 20.3697 65.0528C20.3497 65.0828 20.3697 65.0528 20.3797 65.1128C20.5597 66.9928 18.7897 68.2128 17.9397 69.6228C17.7897 69.8728 17.6997 70.0128 17.6497 70.1028C17.4897 70.5628 17.5797 71.0828 17.9397 71.4428C17.9397 71.4428 19.3697 73.4828 20.8297 74.9428C22.2897 76.4028 24.5097 78.0228 24.5097 78.0228C25.0097 78.5228 25.8297 78.5228 26.3297 78.0228C26.6497 77.7028 28.8897 75.8328 30.8397 75.5828C30.8397 75.5828 30.8297 75.5928 30.8697 75.6028C32.7497 76.6428 34.6797 77.4728 36.8097 78.0528C36.8297 78.0628 36.8897 78.0828 36.8897 78.0828C38.3497 79.1628 37.9697 81.3928 38.3497 82.9928C38.4297 83.7128 38.8197 84.1728 39.6397 84.2828C39.6397 84.2828 42.0997 84.7128 44.1697 84.7128C46.2397 84.7128 48.9497 84.2928 48.9497 84.2928C49.6597 84.1728 50.2397 83.7128 50.2397 83.0028C50.2397 82.5428 50.4897 79.6428 51.6997 78.0928C51.6997 78.0928 51.7497 78.0528 51.8097 78.0028C53.9697 77.3928 55.6097 76.7328 57.5097 75.6328C57.6097 75.5928 57.4997 75.6028 57.7297 75.5728C59.5297 75.3028 60.8297 77.1628 62.2397 78.0128C62.4897 78.1628 62.6297 78.2528 62.7197 78.3028C63.1797 78.4628 63.6997 78.3728 64.0597 78.0128C64.0597 78.0128 66.0997 76.5828 67.5597 75.1228C69.0197 73.6628 70.6397 71.4428 70.6397 71.4428C71.1397 70.9428 71.1397 70.1228 70.6397 69.6228C70.3197 69.3028 68.4497 67.0628 68.1997 65.1128C68.1697 64.9128 68.1897 64.8828 68.2197 64.8328C69.3097 62.9128 69.9897 61.5128 70.5897 59.3328C70.5897 59.3328 70.5597 59.2628 70.6997 59.0828C71.7797 57.6228 74.0097 58.0028 75.6097 57.6228C76.3197 57.6228 76.8997 57.0428 76.8997 56.3328C76.8997 56.3328 77.3297 53.8728 77.3297 51.8028C77.3297 49.7328 76.8997 47.0028 76.8997 47.0028Z" fill="#F2F1F0"/>
<path fill-rule="evenodd" clip-rule="evenodd" d="M25.0298 62.133H47.3698L69.1898 40.303H25.0298V62.133Z" fill="#002169"/>
<path fill-rule="evenodd" clip-rule="evenodd" d="M51.2297 44.4231H46.9197V54.7331L43.1197 44.4231H39.3897L36.1697 53.0531C35.8497 50.8631 33.5997 50.1531 31.7897 49.5731C30.6297 49.1831 29.4097 48.6031 29.4097 48.0231C29.4097 47.5031 30.0497 47.0531 31.4097 47.1231C32.3097 47.1831 33.0797 47.2531 34.5597 47.9631L35.9797 45.3231C34.5597 44.6131 32.6297 44.1631 31.0897 44.1631C29.2197 44.1631 27.6797 44.7431 26.7097 45.7731C26.0697 46.4131 25.6797 47.3231 25.6797 48.2831C25.6797 49.6331 26.1297 50.5331 27.1597 51.3131C27.9997 51.9531 29.1597 52.3431 30.1197 52.6631C31.3397 53.0531 32.3097 53.3731 32.3097 54.0831C32.3097 54.3431 32.1797 54.6031 32.0497 54.7931C31.7297 55.1131 31.2797 55.2431 30.6297 55.2431C29.4097 55.2431 28.5097 55.0531 27.0297 54.2131L25.6797 56.8531C27.1597 57.6931 28.8297 58.1431 30.5697 58.1431H30.7597C32.2997 58.1431 33.5297 57.6931 34.4897 56.8531C34.5497 56.7931 34.6197 56.7931 34.6197 56.7231L34.1697 57.8831H38.0997L38.7397 55.8831C39.4497 56.1431 40.2197 56.2731 41.0597 56.2731C41.8997 56.2731 42.6697 56.1431 43.3097 55.9531L43.9497 57.9531H50.3897V53.7631H51.8097C55.2197 53.7631 57.2197 52.0231 57.2197 49.1231C57.3497 45.9031 55.3497 44.4231 51.2297 44.4231ZM41.1897 53.2431C40.6697 53.2431 40.2197 53.1831 39.7697 52.9831L41.1197 48.6631L42.4697 53.0431C42.1497 53.1831 41.6997 53.2431 41.1897 53.2431ZM51.4897 50.7331H50.5197V47.2531H51.4897C52.7797 47.2531 53.8097 47.7031 53.8097 48.9931C53.8097 50.3431 52.7797 50.7331 51.4897 50.7331Z" fill="white"/>
<path d="M52.7097 60.713C52.7097 60.073 53.2197 59.553 53.8697 59.553C54.5097 59.553 55.0297 60.073 55.0297 60.713C55.0297 61.423 54.5197 61.873 53.8697 61.873C53.2297 61.873 52.7097 61.423 52.7097 60.713ZM53.8697 62.133C54.6397 62.133 55.2897 61.553 55.2897 60.713C55.2897 59.873 54.6497 59.293 53.8697 59.293C53.0897 59.293 52.4497 59.873 52.4497 60.713C52.4497 61.553 53.0997 62.133 53.8697 62.133ZM53.5497 60.843H53.8097L54.2597 61.553H54.5197L54.0697 60.843C54.3297 60.843 54.5197 60.713 54.5197 60.393C54.5197 60.073 54.3297 59.943 53.9397 59.943H53.2997V61.553H53.5597V60.843H53.5497ZM53.5497 60.593V60.073H53.8697C54.0597 60.073 54.1897 60.133 54.1897 60.333C54.1897 60.593 53.9997 60.593 53.7997 60.593H53.5497V60.593Z" fill="#002169"/>
<defs>
<linearGradient id="paint0_linear" x1="49.9698" y1="-12.8468" x2="53.9518" y2="132.923" gradientUnits="userSpaceOnUse">
<stop stop-color="#00ABDE"/>
<stop offset="1" stop-color="#007ED8"/>
</linearGradient>
<linearGradient id="paint1_linear" x1="3.17237" y1="-19.6817" x2="98.6994" y2="121.199" gradientUnits="userSpaceOnUse">
<stop stop-color="#007ED8"/>
<stop offset="0.7065" stop-color="#002D4C"/>
</linearGradient>
</defs>
</svg>
