<svg width="181" height="191" viewBox="0 0 181 191" fill="none" xmlns="http://www.w3.org/2000/svg">
<path d="M90.1177 189.864C93.1777 189.864 96.1877 189.014 98.8477 187.394L160.818 149.734C166.358 146.364 169.788 140.034 169.788 133.194V58.4841C169.788 51.6641 166.358 45.3241 160.818 41.9441L98.8477 4.28408C93.5177 1.04408 86.6977 1.06408 81.3977 4.28408L19.4277 41.9641C13.8877 45.3341 10.4377 51.6641 10.4377 58.5041V133.204C10.4377 138.964 12.8877 144.384 16.9877 147.954V147.984L81.3977 187.414C84.0377 189.014 87.0577 189.864 90.1177 189.864ZM90.7677 8.81408C92.7177 8.81408 95.1977 10.0241 96.9077 11.0741L157.668 48.2641C161.418 50.5441 163.538 57.1441 163.538 61.8941L162.908 133.194C162.908 137.944 159.708 142.214 155.958 144.494L95.5577 180.874C92.1277 182.964 89.3377 182.964 85.8977 180.874L24.6877 144.404C20.9377 142.124 17.9177 137.924 17.9177 133.194V59.5541C17.9177 54.8141 20.6477 49.9241 24.4177 47.6341L84.9977 11.0741C86.6977 10.0341 88.8177 8.81408 90.7677 8.81408Z" fill="#F2F1F0"/>
<path fill-rule="evenodd" clip-rule="evenodd" d="M98.0178 12.3942C95.5678 10.8942 92.8478 10.1442 90.1178 10.1442C87.3878 10.1442 84.6678 10.9042 82.2178 12.3942L26.0878 46.7242C21.0678 49.7942 17.9578 55.5442 17.9578 61.7942V129.894C17.9578 136.124 21.0578 141.894 26.0878 144.964L82.2178 179.294C84.6678 180.794 87.3878 181.544 90.1178 181.544C92.8478 181.544 95.5678 180.804 98.0178 179.294L154.148 144.964C159.168 141.894 162.278 136.124 162.278 129.894V61.7942C162.278 55.5642 159.178 49.8142 154.148 46.7242L98.0178 12.3942Z" fill="url(#paint0_linear)"/>
<path fill-rule="evenodd" clip-rule="evenodd" d="M90.1178 11.6141C91.7978 11.6141 93.6878 12.4841 95.7478 13.7341L154.218 49.2741C157.868 51.4941 160.278 55.7641 160.278 60.5941V131.074C160.278 135.894 157.868 140.174 154.218 142.394L95.7578 177.934C93.7978 179.124 91.8778 179.874 90.1278 179.874C88.3778 179.874 86.4578 179.124 84.4978 177.934L26.0178 142.404C24.0078 141.174 22.5578 139.974 21.5778 138.364C20.5978 136.764 19.9578 134.544 19.9578 131.084V60.6041C19.9578 55.7741 22.3678 51.5041 26.0178 49.2841L84.4778 13.7441C86.5678 12.4941 88.4278 11.6141 90.1178 11.6141ZM97.8278 181.364L156.288 145.824C161.208 142.834 164.268 137.214 164.268 131.084V60.6041C164.268 54.4741 161.208 48.8541 156.288 45.8641L97.8278 10.3241C95.7178 9.04414 93.0078 7.61414 90.1178 7.61414C87.2178 7.61414 84.5078 9.05414 82.4178 10.3141H82.4078L23.9378 45.8641C19.0178 48.8541 15.9578 54.4741 15.9578 60.6041V131.084C15.9578 135.044 16.6978 138.034 18.1578 140.444C19.6178 142.844 21.6778 144.444 23.9378 145.814L82.3978 181.354C84.6178 182.704 87.2878 183.884 90.1078 183.884C92.9278 183.884 95.6078 182.714 97.8278 181.364Z" fill="url(#paint1_linear)"/>
<path opacity="0.2" d="M139.308 51.4741H46.0476V137.694C46.0476 140.324 48.1776 142.454 50.8076 142.454H60.9676V154.694C60.9676 155.614 62.0776 156.074 62.7376 155.424L75.8176 142.444H134.548C137.178 142.444 139.308 140.314 139.308 137.684V51.4741Z" fill="#1F1D21"/>
<path d="M139.308 50.0742V48.6242C139.308 46.8342 137.858 45.3842 136.068 45.3842H49.2876C47.4976 45.3842 46.0476 46.8342 46.0476 48.6242V50.2242V51.6942V134.744C46.0476 136.534 47.4976 137.984 49.2876 137.984H60.9676V150.224C60.9676 151.144 62.0776 151.604 62.7376 150.954L75.8176 137.974H136.088C137.878 137.974 139.328 136.524 139.328 134.734V50.2342C139.328 50.1842 139.308 50.1242 139.308 50.0742Z" fill="url(#paint2_linear)"/>
<path opacity="0.15" d="M131.378 87.8842C131.378 87.0142 130.668 86.3142 129.808 86.3142C129.238 86.3142 125.718 86.0042 123.828 84.5342C123.828 84.5342 123.838 84.5142 123.828 84.5342C123.108 81.9242 122.068 79.4942 120.768 77.1842C120.438 74.9942 122.698 73.4042 123.738 71.6942C123.918 71.3942 124.028 71.2242 124.088 71.1042C124.278 70.5442 124.178 69.9042 123.738 69.4642C123.738 69.4642 121.998 66.9742 120.208 65.2042C118.428 63.4342 115.718 61.4542 115.718 61.4542C115.108 60.8442 114.108 60.8442 113.498 61.4542C113.088 61.8542 110.408 64.0642 107.998 64.4142C107.968 64.4142 107.968 64.4142 107.968 64.4142C105.728 63.1442 103.198 62.0942 100.668 61.3842H100.638C98.8577 60.0742 99.3277 57.3442 98.8577 55.4042C98.8577 54.5342 98.1477 53.8342 97.2877 53.8342C97.2877 53.8342 94.2977 53.3142 91.7777 53.3142C89.2577 53.3142 85.9577 53.8342 85.9577 53.8342C85.0877 53.8342 84.3877 54.5442 84.3877 55.4042C84.3877 55.9742 84.0777 59.4942 82.6077 61.3842C80.1077 62.0942 77.4777 63.2042 75.2577 64.4442C73.0677 64.7742 71.4777 62.5142 69.7677 61.4742C69.4677 61.2942 69.2977 61.1842 69.1777 61.1242C68.6177 60.9342 67.9777 61.0342 67.5377 61.4742C67.5377 61.4742 65.0477 63.2142 63.2777 65.0042C61.5077 66.7842 59.5277 69.4942 59.5277 69.4942C58.9177 70.1042 58.9177 71.1042 59.5277 71.7142C59.9277 72.1142 62.1977 74.8342 62.4977 77.2042V77.2242C61.2577 79.4442 60.1677 82.0642 59.4677 84.5642C59.4677 84.5642 59.4977 84.5242 59.4677 84.5642C57.9377 86.4242 55.4277 85.8742 53.4877 86.3442C52.6177 86.3442 51.9177 87.0542 51.9177 87.9142C51.9177 87.9142 51.3977 90.9042 51.3977 93.4242C51.3977 95.9442 51.9177 99.2442 51.9177 99.2442C51.9177 100.114 52.6277 100.814 53.4877 100.814C54.0577 100.814 57.5777 101.124 59.4677 102.594C59.5077 102.574 59.4877 102.624 59.4877 102.624C60.2177 105.134 61.2477 107.644 62.5077 109.874C62.4877 109.904 62.5077 109.874 62.5177 109.944C62.7277 112.234 60.5877 113.724 59.5477 115.434C59.3677 115.734 59.2577 115.904 59.1977 116.024C59.0077 116.584 59.1077 117.224 59.5477 117.664C59.5477 117.664 61.2877 120.154 63.0777 121.924C64.8577 123.704 67.5677 125.674 67.5677 125.674C68.1777 126.284 69.1777 126.284 69.7877 125.674C70.1877 125.274 72.9077 123.004 75.2777 122.704C75.2777 122.704 75.2677 122.714 75.3077 122.724C77.5977 123.994 79.9577 125.004 82.5377 125.704C82.5577 125.714 82.6377 125.734 82.6377 125.734C84.4177 127.044 83.9477 129.774 84.4177 131.714C84.5177 132.594 84.9977 133.144 85.9877 133.284C85.9877 133.284 88.9777 133.804 91.4977 133.804C94.0177 133.804 97.3177 133.294 97.3177 133.294C98.1877 133.144 98.8877 132.584 98.8877 131.724C98.8877 131.154 99.1977 127.634 100.668 125.744C100.668 125.744 100.728 125.694 100.798 125.634C103.428 124.894 105.428 124.084 107.748 122.744C107.868 122.704 107.738 122.714 108.018 122.674C110.208 122.344 111.798 124.604 113.508 125.644C113.808 125.824 113.978 125.934 114.098 125.994C114.658 126.184 115.298 126.084 115.738 125.644C115.738 125.644 118.228 123.904 119.998 122.114C121.778 120.334 123.748 117.624 123.748 117.624C124.358 117.014 124.358 116.014 123.748 115.404C123.348 115.004 121.078 112.284 120.778 109.914C120.748 109.664 120.768 109.634 120.798 109.574C122.128 107.234 122.958 105.524 123.688 102.874C123.688 102.874 123.658 102.784 123.828 102.564C125.138 100.784 127.868 101.254 129.808 100.784C130.678 100.784 131.378 100.074 131.378 99.2142C131.378 99.2142 131.898 96.2242 131.898 93.7042C131.898 91.1842 131.378 87.8842 131.378 87.8842Z" fill="#1F1D20"/>
<path d="M131.378 85.7442C131.378 84.8742 130.668 84.1742 129.808 84.1742C129.238 84.1742 125.718 83.8642 123.828 82.3942C123.828 82.3942 123.838 82.3742 123.828 82.3942C123.108 79.7842 122.068 77.3542 120.768 75.0442C120.438 72.8542 122.698 71.2642 123.738 69.5542C123.918 69.2542 124.028 69.0842 124.088 68.9642C124.278 68.4042 124.178 67.7642 123.738 67.3242C123.738 67.3242 121.998 64.8342 120.208 63.0642C118.428 61.2942 115.718 59.3142 115.718 59.3142C115.108 58.7042 114.108 58.7042 113.498 59.3142C113.088 59.7142 110.408 61.9242 107.998 62.2742C107.968 62.2742 107.968 62.2742 107.968 62.2742C105.728 61.0042 103.198 59.9542 100.668 59.2442H100.638C98.8577 57.9342 99.3277 55.2042 98.8577 53.2642C98.8577 52.3942 98.1477 51.6942 97.2877 51.6942C97.2877 51.6942 94.2977 51.1742 91.7777 51.1742C89.2577 51.1742 85.9577 51.6942 85.9577 51.6942C85.0877 51.6942 84.3877 52.4042 84.3877 53.2642C84.3877 53.8342 84.0777 57.3542 82.6077 59.2442C80.1077 59.9542 77.4777 61.0642 75.2577 62.3042C73.0677 62.6342 71.4777 60.3742 69.7677 59.3342C69.4677 59.1542 69.2977 59.0442 69.1777 58.9842C68.6177 58.7942 67.9777 58.8942 67.5377 59.3342C67.5377 59.3342 65.0477 61.0742 63.2777 62.8642C61.5077 64.6442 59.5277 67.3542 59.5277 67.3542C58.9177 67.9642 58.9177 68.9642 59.5277 69.5742C59.9277 69.9742 62.1977 72.6942 62.4977 75.0642V75.0842C61.2577 77.3042 60.1677 79.9242 59.4677 82.4242C59.4677 82.4242 59.4977 82.3842 59.4677 82.4242C57.9377 84.2842 55.4277 83.7342 53.4877 84.2042C52.6177 84.2042 51.9177 84.9142 51.9177 85.7742C51.9177 85.7742 51.3977 88.7642 51.3977 91.2842C51.3977 93.8042 51.9177 97.1042 51.9177 97.1042C51.9177 97.9742 52.6277 98.6742 53.4877 98.6742C54.0577 98.6742 57.5777 98.9842 59.4677 100.454C59.5077 100.434 59.4877 100.484 59.4877 100.484C60.2177 102.994 61.2477 105.504 62.5077 107.734C62.4877 107.764 62.5077 107.734 62.5177 107.804C62.7277 110.094 60.5877 111.584 59.5477 113.294C59.3677 113.594 59.2577 113.764 59.1977 113.884C59.0077 114.444 59.1077 115.084 59.5477 115.524C59.5477 115.524 61.2877 118.014 63.0777 119.784C64.8577 121.564 67.5677 123.534 67.5677 123.534C68.1777 124.144 69.1777 124.144 69.7877 123.534C70.1877 123.134 72.9077 120.864 75.2777 120.564C75.2777 120.564 75.2677 120.574 75.3077 120.584C77.5977 121.854 79.9577 122.864 82.5377 123.564C82.5577 123.574 82.6377 123.594 82.6377 123.594C84.4177 124.904 83.9477 127.634 84.4177 129.574C84.5177 130.454 84.9977 131.004 85.9877 131.144C85.9877 131.144 88.9777 131.664 91.4977 131.664C94.0177 131.664 97.3177 131.154 97.3177 131.154C98.1877 131.004 98.8877 130.444 98.8877 129.584C98.8877 129.014 99.1977 125.494 100.668 123.604C100.668 123.604 100.728 123.554 100.798 123.494C103.428 122.754 105.428 121.944 107.748 120.604C107.868 120.564 107.738 120.574 108.018 120.534C110.208 120.204 111.798 122.464 113.508 123.504C113.808 123.684 113.978 123.794 114.098 123.854C114.658 124.044 115.298 123.944 115.738 123.504C115.738 123.504 118.228 121.764 119.998 119.974C121.778 118.194 123.748 115.484 123.748 115.484C124.358 114.874 124.358 113.874 123.748 113.264C123.348 112.864 121.078 110.144 120.778 107.774C120.748 107.524 120.768 107.494 120.798 107.434C122.128 105.094 122.958 103.384 123.688 100.734C123.688 100.734 123.658 100.644 123.828 100.424C125.138 98.6442 127.868 99.1142 129.808 98.6442C130.678 98.6442 131.378 97.9342 131.378 97.0742C131.378 97.0742 131.898 94.0842 131.898 91.5642C131.898 89.0442 131.378 85.7442 131.378 85.7442Z" fill="white"/>
<path d="M84.0178 74.3442C84.2578 73.6342 84.9178 73.1642 85.6678 73.1642H96.6078L85.2578 106.804C85.0178 107.514 84.3578 107.984 83.6078 107.984H75.0978C73.9078 107.984 73.0678 106.814 73.4478 105.684L84.0178 74.3442Z" fill="url(#paint3_linear)"/>
<path d="M101.498 95.8042H84.2677C83.5477 95.8042 83.1977 96.6942 83.7277 97.1842L94.8077 107.524C95.1277 107.824 95.5577 107.994 95.9977 107.994H105.758L101.498 95.8042Z" fill="#0078D4"/>
<path d="M96.6077 73.1642H84.4177L72.6677 107.984H84.8577L87.3577 100.574L95.2977 107.984H105.748L101.508 95.7942H88.9677L96.6077 73.1642Z" fill="url(#paint4_linear)"/>
<path d="M99.6178 74.3442C99.3778 73.6342 98.7178 73.1642 97.9678 73.1642H85.7178H85.7778C86.5278 73.1642 87.1878 73.6442 87.4278 74.3442L98.0078 105.684C98.3878 106.814 97.5478 107.984 96.3578 107.984H96.1678H108.538C109.728 107.984 110.568 106.814 110.188 105.684L99.6178 74.3442Z" fill="url(#paint5_linear)"/>
<path d="M62.0076 151.764C61.8076 151.764 61.5976 151.724 61.3976 151.644C60.8176 151.404 60.4576 150.854 60.4576 150.234V138.494H49.2876C47.2276 138.494 45.5476 136.814 45.5476 134.754V48.6242C45.5476 46.5642 47.2276 44.8842 49.2876 44.8842H136.068C138.128 44.8842 139.808 46.5642 139.808 48.6242L139.828 134.744C139.828 136.804 138.148 138.484 136.088 138.484H76.0276L63.0976 151.314C62.7876 151.614 62.4076 151.764 62.0076 151.764ZM49.2876 45.8842C47.7776 45.8842 46.5476 47.1142 46.5476 48.6242V134.744C46.5476 136.254 47.7776 137.484 49.2876 137.484H61.4676V150.224C61.4676 150.554 61.7176 150.684 61.7976 150.714C61.8776 150.744 62.1476 150.834 62.3976 150.594L75.6176 137.474H136.088C137.598 137.474 138.828 136.244 138.828 134.734V50.2342C138.818 50.1842 138.808 50.1342 138.808 50.0842V48.6342C138.808 47.1242 137.578 45.8942 136.068 45.8942H49.2876V45.8842Z" fill="#F1CF99"/>
<defs>
<linearGradient id="paint0_linear" x1="90.1177" y1="10.144" x2="90.1177" y2="181.544" gradientUnits="userSpaceOnUse">
<stop stop-color="#00ABDE"/>
<stop offset="1" stop-color="#007ED8"/>
</linearGradient>
<linearGradient id="paint1_linear" x1="86.7999" y1="-2.11276" x2="95.3039" y2="249.604" gradientUnits="userSpaceOnUse">
<stop stop-color="#007ED8"/>
<stop offset="0.7065" stop-color="#002D4C"/>
</linearGradient>
<linearGradient id="paint2_linear" x1="34.8757" y1="49.4535" x2="226.498" y2="194.587" gradientUnits="userSpaceOnUse">
<stop stop-color="#6A6A6A"/>
<stop offset="1" stop-color="#343333"/>
</linearGradient>
<linearGradient id="paint3_linear" x1="89.6534" y1="75.7445" x2="78.2958" y2="109.298" gradientUnits="userSpaceOnUse">
<stop stop-color="#114A8B"/>
<stop offset="1" stop-color="#0669BC"/>
</linearGradient>
<linearGradient id="paint4_linear" x1="93.1188" y1="91.2445" x2="90.4259" y2="92.1635" gradientUnits="userSpaceOnUse">
<stop stop-opacity="0.3"/>
<stop offset="0.0712" stop-opacity="0.2"/>
<stop offset="0.321" stop-opacity="0.1"/>
<stop offset="0.6231" stop-opacity="0.05"/>
<stop offset="1" stop-opacity="0"/>
</linearGradient>
<linearGradient id="paint5_linear" x1="91.736" y1="74.7655" x2="104.203" y2="107.981" gradientUnits="userSpaceOnUse">
<stop stop-color="#3CCBF4"/>
<stop offset="1" stop-color="#2892DF"/>
</linearGradient>
</defs>
</svg>
