<svg width="160" height="188" viewBox="0 0 160 188" fill="none" xmlns="http://www.w3.org/2000/svg">
<g clip-path="url(#clip0_370_2202)">
<path d="M79.6779 188C82.7592 187.994 85.7796 187.141 88.4083 185.534L150.384 147.874C153.165 146.11 155.449 143.665 157.019 140.771C158.589 137.876 159.394 134.628 159.356 131.336V56.6207C159.392 53.3283 158.587 50.0812 157.017 47.1871C155.447 44.2929 153.163 41.8476 150.384 40.0829L88.4083 2.4228C85.7749 0.837605 82.7592 0 79.6855 0C76.6118 0 73.5961 0.837605 70.9627 2.4228L8.9876 40.098C6.2045 41.8604 3.91796 44.3048 2.34499 47.1991C0.772021 50.0935 -0.0351786 53.3418 4.1431e-06 56.6358V131.336C-0.0185283 134.119 0.556189 136.874 1.68588 139.418C2.81557 141.962 4.4743 144.236 6.5516 146.089V146.115L70.9627 185.549C73.5884 187.149 76.6032 187.996 79.6779 188V188ZM80.3257 6.95218C82.2776 6.95218 84.7548 8.1651 86.4646 9.20912L147.222 46.4034C150.974 48.6881 153.09 55.2842 153.09 60.0352L152.458 131.336C152.458 136.087 149.259 140.355 145.506 142.64L85.1104 179.021C81.6758 181.109 78.8854 181.109 75.4507 179.021L14.2427 142.549C10.4903 140.265 7.47191 136.072 7.47191 131.336V57.688C7.50442 55.3228 8.11341 53.0013 9.24608 50.9247C10.3787 48.8482 12.0009 47.0792 13.9718 45.7714L74.548 9.20912C76.2577 8.1651 78.3739 6.95218 80.3257 6.95218Z" fill="#F2F1F0"/>
<path fill-rule="evenodd" clip-rule="evenodd" d="M87.5765 10.5328C85.2056 9.05928 82.4697 8.27838 79.6783 8.27838C76.8868 8.27838 74.1509 9.05928 71.7801 10.5328L15.6454 44.8642C13.1193 46.4759 11.047 48.7062 9.625 51.3437C8.203 53.9812 7.47851 56.9382 7.52026 59.9343V128.038C7.48034 131.033 8.20562 133.99 9.62745 136.627C11.0493 139.264 13.1206 141.495 15.6454 143.108L71.7801 177.439C74.1508 178.912 76.8867 179.694 79.6783 179.694C82.4698 179.694 85.2057 178.912 87.5765 177.439L143.711 143.108C146.236 141.495 148.307 139.264 149.729 136.627C151.151 133.99 151.877 131.033 151.837 128.038V59.9343C151.875 56.9388 151.149 53.983 149.727 51.3461C148.305 48.7092 146.234 46.4784 143.711 44.8642L87.5765 10.5328Z" fill="url(#paint0_linear_370_2202)"/>
<path fill-rule="evenodd" clip-rule="evenodd" d="M79.6783 9.75432C81.3615 9.75432 83.2442 10.62 85.311 11.8781L143.777 47.4205C145.668 48.6339 147.218 50.3108 148.278 52.2919C149.339 54.2729 149.875 56.4922 149.837 58.739V129.218C149.875 131.464 149.339 133.684 148.278 135.664C147.218 137.645 145.668 139.322 143.777 140.536L85.312 176.078L85.311 176.079C83.6408 177.218 81.6958 177.889 79.6783 178.022C77.6609 177.889 75.7158 177.218 74.0456 176.079L74.0446 176.078L15.5823 140.538L15.5801 140.537C13.7918 139.573 12.2668 138.186 11.1383 136.497C10.1614 134.894 9.52031 132.679 9.52031 129.218V58.739C9.48157 56.4923 10.018 54.273 11.0785 52.292C12.139 50.311 13.6885 48.6341 15.5797 47.4206L74.0365 11.8835L74.0406 11.8811C76.1244 10.6281 77.9846 9.75432 79.6783 9.75432ZM87.3908 8.46132L145.855 44.0026C148.333 45.5727 150.368 47.7514 151.765 50.3311C153.162 52.9109 153.876 55.8055 153.837 58.7391V129.218C153.876 132.151 153.162 135.046 151.765 137.626C150.368 140.205 148.333 142.384 145.855 143.955L87.3898 179.496C85.0956 181.021 82.4302 181.894 79.6783 182.022C76.9264 181.894 74.261 181.021 71.9667 179.496H71.9658L13.502 143.954L13.4995 143.953C11.1642 142.66 9.18097 140.814 7.72281 138.579C6.12823 135.725 5.36521 132.482 5.52031 129.218V58.739C5.48125 55.8054 6.19436 52.9107 7.59165 50.331C8.98894 47.7512 11.0238 45.5724 13.5022 44.0024L71.9667 8.46067L71.9749 8.45579C74.0655 7.19838 76.7734 5.75433 79.6783 5.75433C82.5645 5.75433 85.2816 7.17741 87.3908 8.46127V8.46132Z" fill="#0078D4"/>
<path opacity="0.2" d="M139.959 132.026L80.409 166.633L20.47 132.027L80.02 97.42L139.959 132.026Z" fill="#003067"/>
<path d="M140.532 120.546L79.81 155.834L18.698 120.551L79.42 85.263L140.532 120.546Z" fill="#1B93EB"/>
<path d="M140.532 120.546L140.52 124.652L79.798 159.94L79.81 155.834L140.532 120.546Z" fill="#1F56A3"/>
<path d="M79.81 155.834L79.798 159.94L18.686 124.657L18.698 120.551L79.81 155.834Z" fill="#0078D4"/>
<path d="M111.606 71.5529L111.482 115.235C111.472 118.771 109.149 122.302 104.506 125C95.1558 130.434 79.9524 130.434 70.5468 125.004C65.8146 122.272 63.4507 118.685 63.4608 115.103L63.5847 71.4209C63.5745 75.0028 65.9384 78.5895 70.6707 81.3217C80.0762 86.752 95.2797 86.7519 104.63 81.3179C109.273 78.6201 111.596 75.0892 111.606 71.5529Z" fill="url(#paint1_linear_370_2202)"/>
<path d="M104.52 61.6508C95.114 56.2205 79.9107 56.2206 70.5662 61.651C61.2155 67.085 61.2651 75.8913 70.6707 81.3217C80.0763 86.752 95.2797 86.7519 104.63 81.3179C113.975 75.8875 113.925 67.0811 104.52 61.6508ZM101.457 79.4214C93.8484 83.8433 81.4768 83.8434 73.8231 79.4245C66.1694 75.0056 66.1291 67.8395 73.7381 63.4177C81.3421 58.9987 93.7137 58.9987 101.367 63.4176C109.021 67.8364 109.061 75.0025 101.457 79.4214Z" fill="#E8E8E8"/>
<path d="M101.367 63.4175C109.021 67.8364 109.061 75.0025 101.457 79.4214C93.8484 83.8433 81.4768 83.8434 73.8231 79.4245C66.1694 75.0056 66.1291 67.8395 73.7381 63.4177C81.342 58.9987 93.7136 58.9987 101.367 63.4175Z" fill="#B3B3B3"/>
<path d="M87.3308 97.8441C78.2724 97.8786 78.7209 105.382 81.7273 108.436C83.1307 109.806 84.9904 110.61 86.9499 110.694C89.0812 112.714 89.0812 112.714 90.1742 113.699C91.6863 113.62 93.1895 113.47 94.6679 113.249C92.5589 111.953 92.12 111.683 90.1066 110.331C96.1613 108.385 96.4374 101.2 91.8714 98.7932C90.4561 98.1167 88.8986 97.7912 87.3308 97.8441L87.3308 97.8441ZM100.653 96.0384C99.6257 96.3483 98.5749 96.6189 97.5002 96.8502L97.4643 109.523C100.306 108.929 103.065 107.997 105.685 106.747L105.692 104.502C104.057 105.29 102.362 105.947 100.623 106.466L100.653 96.0384L100.653 96.0384ZM87.3533 99.9923C88.1169 99.9302 88.8796 100.122 89.5234 100.537C90.1671 100.953 90.6559 101.569 90.914 102.29C90.9249 102.319 91.9825 105.17 90.1154 107.228C89.5575 107.782 88.8483 108.158 88.077 108.31C87.3057 108.462 86.5066 108.383 85.7802 108.082C85.0539 107.781 84.4326 107.273 83.9944 106.62C83.5563 105.967 83.3208 105.2 83.3176 104.413C83.2269 100.609 85.8072 100.011 87.3533 99.9923V99.9923ZM74.766 95.916C67.1253 93.6684 70.0386 99.7491 70.0715 99.8116C70.7542 101.003 71.6868 102.033 72.805 102.83C73.663 103.446 74.4347 104.175 75.0994 104.996C75.6766 106.124 74.8487 106.803 73.4279 106.369C71.9182 105.86 70.6112 104.881 69.6984 103.575L69.6903 106.428C73.186 109.823 78.3933 109.908 78.3964 106.569C78.3975 105.392 78.3988 103.926 74.5935 101.34C71.626 99.3235 72.523 98.1561 72.8116 98.0252C73.9493 97.509 76.534 98.7745 77.8857 99.8465L77.8931 97.2085C76.8968 96.6738 75.8491 96.2407 74.7659 95.916" fill="white"/>
<path d="M70.4095 39.4714C70.346 39.4718 70.2829 39.4596 70.224 39.4356C70.1652 39.4116 70.1116 39.3763 70.0664 39.3316C70.0212 39.2869 69.9852 39.2337 69.9605 39.1751C69.9359 39.1165 69.923 39.0536 69.9226 38.99V38.9845C69.9204 37.511 69.3341 36.0986 68.2922 35.0567C67.2504 34.0148 65.8379 33.4285 64.3645 33.4263C64.2358 33.4263 64.1124 33.3754 64.0212 33.2847C63.9299 33.194 63.8783 33.0708 63.8776 32.9422V32.9422C63.8776 32.813 63.9289 32.6892 64.0202 32.5979C64.1115 32.5066 64.2353 32.4553 64.3645 32.4553C65.8384 32.4531 67.2513 31.8664 68.2932 30.8239C69.3352 29.7814 69.9211 28.3683 69.9226 26.8944C69.9219 26.766 69.9722 26.6425 70.0625 26.5512C70.1527 26.4599 70.2756 26.4082 70.404 26.4074H70.4095C70.4731 26.4071 70.5361 26.4192 70.595 26.4432C70.6539 26.4672 70.7075 26.5026 70.7527 26.5473C70.7979 26.592 70.8339 26.6452 70.8585 26.7038C70.8832 26.7624 70.8961 26.8252 70.8965 26.8888V26.8944C70.8987 28.3678 71.485 29.7803 72.5268 30.8221C73.5687 31.864 74.9812 32.4503 76.4546 32.4525C76.5182 32.4521 76.5812 32.4643 76.6401 32.4883C76.699 32.5123 76.7525 32.5476 76.7977 32.5923C76.843 32.637 76.8789 32.6902 76.9036 32.7488C76.9283 32.8074 76.9411 32.8703 76.9415 32.9339V32.9394C76.9419 33.003 76.9297 33.066 76.9057 33.1249C76.8817 33.1838 76.8464 33.2374 76.8017 33.2826C76.757 33.3278 76.7038 33.3638 76.6452 33.3884C76.5866 33.4131 76.5237 33.426 76.4601 33.4263H76.4546C74.9809 33.4278 73.5681 34.0139 72.526 35.0559C71.484 36.0979 70.8979 37.5108 70.8965 38.9845C70.8957 39.1134 70.8442 39.2368 70.753 39.328C70.6619 39.4191 70.5385 39.4707 70.4095 39.4714V39.4714Z" fill="#50E6FF"/>
<path d="M105.427 73.1964C105.323 73.1964 105.224 73.1553 105.151 73.0822C105.078 73.009 105.036 72.9098 105.036 72.8063V72.8063C105.035 71.6276 104.566 70.4976 103.733 69.6642C102.899 68.8307 101.769 68.3618 100.591 68.3604C100.488 68.3604 100.389 68.3197 100.316 68.2471C100.243 68.1745 100.201 68.076 100.2 67.973C100.2 67.9218 100.211 67.8711 100.23 67.8238C100.25 67.7764 100.278 67.7334 100.315 67.6972C100.351 67.661 100.394 67.6322 100.441 67.6126C100.489 67.593 100.539 67.583 100.591 67.583V67.583C101.769 67.5822 102.9 67.1136 103.734 66.2799C104.567 65.4463 105.036 64.3159 105.036 63.137C105.036 63.0857 105.047 63.035 105.066 62.9877C105.086 62.9403 105.115 62.8973 105.151 62.8611C105.187 62.8249 105.23 62.7962 105.277 62.7766C105.325 62.7569 105.375 62.7469 105.427 62.7469V62.7469C105.478 62.7469 105.529 62.7569 105.576 62.7766C105.623 62.7962 105.666 62.8249 105.702 62.8611C105.739 62.8973 105.767 62.9403 105.787 62.9877C105.807 63.035 105.817 63.0857 105.817 63.137V63.137C105.817 64.3159 106.286 65.4463 107.12 66.2799C107.953 67.1136 109.084 67.5822 110.263 67.583C110.314 67.5829 110.365 67.5929 110.412 67.6124C110.459 67.6319 110.502 67.6606 110.539 67.6967C110.575 67.7329 110.604 67.7759 110.623 67.8231C110.643 67.8704 110.653 67.9212 110.653 67.9724C110.653 68.0236 110.643 68.0743 110.624 68.1217C110.604 68.1691 110.576 68.2121 110.54 68.2484C110.503 68.2847 110.46 68.3135 110.413 68.3332C110.366 68.3529 110.315 68.363 110.264 68.3631H110.263C109.084 68.3646 107.954 68.8335 107.12 69.6669C106.287 70.5004 105.818 71.6304 105.817 72.8091C105.816 72.9121 105.775 73.0106 105.701 73.0831C105.628 73.1557 105.53 73.1964 105.427 73.1964V73.1964Z" fill="#50E6FF"/>
<path opacity="0.1" d="M97.6444 65.3836C103.218 68.6016 103.248 73.8199 97.71 77.038C92.1724 80.2561 83.1636 80.2561 77.5898 77.038C72.0079 73.8153 71.9785 68.5971 77.5161 65.379C83.0537 62.1609 92.0624 62.1609 97.6444 65.3836Z" fill="#003067"/>
<path d="M103.65 45.735C104.431 49.0012 104.225 52.4254 103.059 55.5746C101.893 58.7238 99.82 61.4566 97.101 63.4274C94.3821 65.3982 91.1398 66.5185 87.7842 66.6466C84.4286 66.7748 81.1103 65.9049 78.249 64.1472C75.3878 62.3894 73.112 59.8226 71.7095 56.7715C70.307 53.7203 69.8407 50.3218 70.3697 47.0056C70.8987 43.6895 72.3992 40.6047 74.6814 38.1413C76.9636 35.6779 79.925 33.9466 83.1912 33.1663H83.1913C87.5711 32.12 92.1871 32.8564 96.0239 35.2135C99.8607 37.5705 102.604 41.3552 103.65 45.735V45.735Z" fill="url(#paint2_radial_370_2202)"/>
<path d="M78.0315 61.1866C79.233 61.218 80.3977 60.7709 81.2696 59.9436C82.1414 59.1163 82.6489 57.9765 82.6803 56.7751C82.7118 55.5736 82.2647 54.4088 81.4374 53.537C80.6101 52.6652 79.4703 52.1577 78.2689 52.1262C78.1944 52.1243 78.1199 52.1242 78.0453 52.1259C78.0587 51.9972 78.0652 51.8679 78.0647 51.7386C78.0537 50.5295 77.5639 49.3742 76.7025 48.5257C75.8411 47.6773 74.6784 47.205 73.4694 47.2124H70.072C69.7396 49.7227 69.9626 52.2753 70.7251 54.69C71.4876 57.1046 72.771 59.3224 74.4847 61.1866H78.0315Z" fill="#F2F2F2"/>
<path d="M103.861 46.5235C103.864 46.482 103.857 46.4402 103.841 46.4018C103.294 43.4413 101.949 40.6863 99.9514 38.4339C99.6922 38.3289 99.4248 38.2456 99.1519 38.1849C98.4249 37.9775 97.6603 37.9377 96.9158 38.0687C96.1712 38.1996 95.466 38.4977 94.8534 38.9407C94.2408 39.3837 93.7367 39.9598 93.379 40.6259C93.0213 41.2919 92.8195 42.0304 92.7886 42.7858C92.6049 42.7645 92.4202 42.7525 92.2353 42.7498C91.1021 42.7497 90.0054 43.1501 89.1387 43.8802C88.2721 44.6103 87.6913 45.6231 87.499 46.7399C87.3067 47.8566 87.5153 49.0054 88.0878 49.9833C88.6603 50.9613 89.56 51.7054 90.6279 52.0843C91.1046 52.2712 91.6127 52.3651 92.1247 52.361H97.7409C99.996 50.654 102.049 48.6955 103.861 46.5235V46.5235Z" fill="#F2F2F2"/>
<path d="M109.798 35.5041C108.058 32.6074 103.988 31.4786 98.3025 32.3252C96.3545 32.6013 94.4294 33.0192 92.5424 33.5757C94.0393 34.0925 95.4609 34.8061 96.7698 35.6977C97.4365 35.5511 98.106 35.3768 98.7479 35.28C99.7576 35.1228 100.778 35.0405 101.799 35.0337C102.798 34.8897 103.818 34.9978 104.764 35.3481C105.711 35.6984 106.555 36.2799 107.219 37.0395V37.0395C108.279 38.8046 107.385 41.823 104.768 45.3394C101.131 49.8667 96.6735 53.6688 91.6294 56.5469C86.6983 59.6246 81.2324 61.7475 75.5166 62.805C71.1896 63.4524 68.0966 62.805 67.0369 61.0454C65.9773 59.2859 66.8709 56.2592 69.4882 52.7594C69.8119 52.3251 69.8921 52.112 70.2601 51.6749C70.0871 50.175 70.1113 48.6589 70.332 47.1653C69.1558 48.3443 68.0735 49.6135 67.095 50.9611C63.6672 55.5454 62.7376 59.6677 64.475 62.5643C65.3929 63.7922 66.617 64.7576 68.0249 65.364C69.4329 65.9704 70.9754 66.1966 72.4982 66.0198C73.6572 66.0137 74.814 65.9212 75.9592 65.7431C82.0604 64.6296 87.8973 62.377 93.1649 59.1033C98.5445 56.0246 103.295 51.9585 107.167 47.1183C110.606 42.523 111.535 38.4035 109.798 35.5041Z" fill="#50E6FF"/>
<path opacity="0.2" d="M68.362 125.922C71.1952 127.558 72.2256 129.84 71.4244 131.952C71.961 132.14 72.479 132.377 72.9718 132.66C76.396 134.637 76.4043 137.846 73.0024 139.823C72.5961 140.059 72.1725 140.264 71.7351 140.435C71.6719 140.461 71.5844 140.489 71.5165 140.517C70.847 140.76 70.1594 140.949 69.4601 141.084C69.3774 141.098 69.2898 141.109 69.2023 141.126C66.2753 141.641 63.2603 141.185 60.6161 139.829L42.8892 129.549C41.1099 128.297 41.2114 126.433 43.2351 125.257C44.4468 124.64 45.7871 124.318 47.1469 124.317C48.5066 124.317 49.8472 124.638 51.0593 125.254C51.466 125.48 51.8315 125.772 52.1402 126.12C52.2372 126.052 52.3488 125.987 52.4555 125.925C56.8378 123.379 63.9561 123.379 68.362 125.922Z" fill="#003067"/>
<path opacity="0.3" d="M71.6868 121.877C71.6839 122.356 71.5944 122.83 71.4225 123.276L71.4189 124.524C71.5908 124.077 71.6804 123.603 71.6833 123.125L71.6868 121.877Z" fill="#32BEDD"/>
<path opacity="0.3" d="M73.0005 131.148C72.5941 131.383 72.1705 131.588 71.7331 131.76C71.67 131.785 71.5874 131.81 71.5194 131.844C70.848 132.086 70.1588 132.274 69.4581 132.408C69.3803 132.425 69.2879 132.434 69.2101 132.451C66.2799 132.967 63.2612 132.512 60.614 131.153L42.8916 120.876C42.5305 120.663 42.2269 120.365 42.0072 120.007C41.7876 119.65 41.6585 119.244 41.6312 118.826L41.6277 120.073C41.655 120.492 41.784 120.897 42.0037 121.254C42.2233 121.612 42.5269 121.91 42.888 122.124L60.6104 132.401C63.2577 133.759 66.2764 134.214 69.2066 133.698C69.2844 133.681 69.3768 133.673 69.4546 133.656C70.1553 133.521 70.8445 133.333 71.5159 133.092C71.5839 133.058 71.6665 133.032 71.7297 133.007C72.167 132.835 72.5906 132.631 72.997 132.395C74.6913 131.41 75.5397 130.122 75.5434 128.833L75.5469 127.586C75.5432 128.875 74.6948 130.163 73.0005 131.148Z" fill="#32BEDD"/>
<path opacity="0.3" d="M68.3649 117.244C71.2029 118.882 72.2236 121.164 71.4224 123.276C71.9589 123.464 72.4769 123.701 72.9699 123.984C76.3941 125.961 76.4073 129.168 73.0004 131.148C72.5941 131.383 72.1704 131.588 71.7331 131.76C71.6699 131.785 71.5873 131.81 71.5193 131.844C70.848 132.086 70.1588 132.274 69.4581 132.408C69.3803 132.425 69.2878 132.434 69.21 132.451C66.2798 132.967 63.2611 132.512 60.6139 131.153L42.8915 120.876C41.1121 119.618 41.2088 117.757 43.2325 116.581C44.4442 115.964 45.7846 115.642 47.1443 115.641C48.5041 115.641 49.8447 115.962 51.0569 116.578C51.4635 116.804 51.829 117.096 52.1378 117.444C52.2348 117.376 52.3464 117.311 52.4532 117.249C56.8403 114.7 63.9588 114.7 68.3649 117.244Z" fill="url(#paint3_linear_370_2202)"/>
<path opacity="0.6" d="M71.6868 117.873C71.6839 118.352 71.5944 118.826 71.4225 119.272L71.4189 120.52C71.5908 120.073 71.6804 119.599 71.6833 119.121L71.6868 117.873Z" fill="#32BEDD"/>
<path opacity="0.6" d="M73.0005 127.144C72.5941 127.38 72.1705 127.584 71.7331 127.756C71.67 127.781 71.5874 127.807 71.5194 127.84C70.848 128.082 70.1588 128.27 69.4581 128.404C69.3803 128.421 69.2879 128.43 69.2101 128.447C66.2799 128.963 63.2612 128.508 60.614 127.149L42.8916 116.872C42.5305 116.659 42.2269 116.361 42.0072 116.003C41.7876 115.646 41.6585 115.24 41.6312 114.822L41.6277 116.069C41.655 116.488 41.784 116.893 42.0037 117.251C42.2233 117.608 42.5269 117.906 42.888 118.12L60.6104 128.397C63.2577 129.755 66.2764 130.211 69.2066 129.694C69.2844 129.677 69.3768 129.669 69.4546 129.652C70.1553 129.518 70.8445 129.329 71.5159 129.088C71.5839 129.054 71.6665 129.028 71.7297 129.003C72.167 128.831 72.5906 128.627 72.997 128.391C74.6913 127.406 75.5397 126.118 75.5434 124.829L75.5469 123.582C75.5432 124.871 74.6948 126.159 73.0005 127.144Z" fill="#32BEDD"/>
<path opacity="0.6" d="M68.3649 113.24C71.2029 114.878 72.2236 117.16 71.4224 119.272C71.9589 119.46 72.4769 119.697 72.9699 119.98C76.3941 121.957 76.4073 125.164 73.0004 127.144C72.5941 127.38 72.1704 127.584 71.7331 127.756C71.6699 127.781 71.5873 127.807 71.5193 127.84C70.848 128.082 70.1588 128.27 69.4581 128.404C69.3803 128.421 69.2878 128.43 69.21 128.447C66.2798 128.963 63.2611 128.508 60.6139 127.149L42.8915 116.872C41.1121 115.615 41.2088 113.753 43.2325 112.577C44.4442 111.96 45.7846 111.638 47.1443 111.638C48.5041 111.637 49.8447 111.958 51.0569 112.574C51.4635 112.8 51.829 113.092 52.1378 113.44C52.2348 113.372 52.3464 113.308 52.4532 113.246C56.8403 110.696 63.9588 110.696 68.3649 113.24Z" fill="url(#paint4_linear_370_2202)"/>
<path d="M71.6868 113.87C71.6839 114.348 71.5944 114.822 71.4225 115.269L71.4189 116.516C71.5908 116.069 71.6804 115.595 71.6833 115.117L71.6868 113.87Z" fill="#32BEDD"/>
<path d="M73.0005 123.14C72.5941 123.376 72.1705 123.58 71.7331 123.752C71.67 123.777 71.5874 123.803 71.5194 123.837C70.848 124.078 70.1588 124.266 69.4581 124.401C69.3803 124.418 69.2879 124.426 69.2101 124.443C66.2799 124.959 63.2612 124.504 60.614 123.146L42.8916 112.869C42.5305 112.655 42.2269 112.357 42.0072 112C41.7876 111.642 41.6585 111.237 41.6312 110.818L41.6277 112.065C41.655 112.484 41.784 112.889 42.0037 113.247C42.2233 113.604 42.5269 113.903 42.888 114.116L60.6104 124.393C63.2576 125.751 66.2763 126.207 69.2065 125.69C69.2843 125.673 69.3768 125.665 69.4546 125.648C70.1553 125.514 70.8445 125.325 71.5158 125.084C71.5838 125.05 71.6664 125.025 71.7296 124.999C72.1669 124.828 72.5906 124.623 72.9969 124.387C74.6912 123.403 75.5397 122.115 75.5433 120.825L75.5469 119.578C75.5432 120.867 74.6948 122.155 73.0005 123.14Z" fill="#32BEDD"/>
<path d="M68.3649 109.236C71.2029 110.875 72.2236 113.156 71.4224 115.269C71.9589 115.456 72.4769 115.693 72.9699 115.976C76.3941 117.953 76.4073 121.16 73.0004 123.14C72.5941 123.376 72.1704 123.58 71.7331 123.752C71.6699 123.777 71.5873 123.803 71.5193 123.837C70.848 124.078 70.1588 124.266 69.4581 124.401C69.3803 124.418 69.2878 124.426 69.21 124.443C66.2798 124.959 63.2611 124.504 60.6139 123.146L42.8915 112.869C41.1121 111.611 41.2088 109.749 43.2325 108.573C44.4442 107.956 45.7846 107.634 47.1443 107.634C48.5041 107.633 49.8447 107.954 51.0569 108.571C51.4635 108.796 51.829 109.089 52.1378 109.436C52.2348 109.369 52.3464 109.304 52.4532 109.242C56.8403 106.692 63.9588 106.692 68.3649 109.236Z" fill="url(#paint5_linear_370_2202)"/>
<path d="M64.6758 114.218C64.7343 114.245 64.7853 114.286 64.8245 114.337C64.8638 114.388 64.8901 114.448 64.9012 114.512C64.9224 114.763 64.5932 114.971 64.1692 114.983L56.7894 115.186C56.5913 115.196 56.3939 115.155 56.2167 115.066C56.1508 115.037 56.0936 114.992 56.0509 114.934C56.0082 114.877 55.9814 114.809 55.9733 114.737L55.9635 113.001C55.9621 112.755 56.3111 112.553 56.7351 112.552C56.9274 112.548 57.1175 112.593 57.2875 112.683C57.3499 112.711 57.4036 112.756 57.4431 112.811C57.4826 112.867 57.5063 112.933 57.5117 113.001L57.5188 114.269L64.0903 114.089C64.2935 114.078 64.4959 114.122 64.6758 114.218V114.218Z" fill="white"/>
<path opacity="0.3" d="M80.0335 148.387C81.6186 148.387 82.9035 147.764 82.9035 146.996C82.9035 146.228 81.6186 145.606 80.0335 145.606C78.4484 145.606 77.1635 146.228 77.1635 146.996C77.1635 147.764 78.4484 148.387 80.0335 148.387Z" fill="#003067"/>
<path fill-rule="evenodd" clip-rule="evenodd" d="M81.0401 145.225C81.0401 145.764 80.8802 146.291 80.5807 146.739C80.2812 147.187 79.8555 147.537 79.3575 147.743C78.8594 147.949 78.3114 148.003 77.7827 147.898C77.2539 147.793 76.7683 147.533 76.3871 147.152C76.0059 146.771 75.7463 146.285 75.6411 145.757C75.5359 145.228 75.5899 144.68 75.7962 144.182C76.0025 143.684 76.3519 143.258 76.8001 142.959C77.2484 142.659 77.7753 142.499 78.3144 142.499C79.0373 142.499 79.7306 142.786 80.2418 143.298C80.7529 143.809 81.0401 144.502 81.0401 145.225V145.225Z" fill="#C3F1FF"/>
<path fill-rule="evenodd" clip-rule="evenodd" d="M80.2124 143.511L80.2319 143.51C80.2225 143.5 80.2157 143.5 80.2124 143.511Z" fill="#7CB65A"/>
<path opacity="0.3" d="M81.0733 142.443C82.6584 142.443 83.9434 141.821 83.9434 141.053C83.9434 140.285 82.6584 139.662 81.0733 139.662C79.4882 139.662 78.2032 140.285 78.2032 141.053C78.2032 141.821 79.4882 142.443 81.0733 142.443Z" fill="#003067"/>
<path fill-rule="evenodd" clip-rule="evenodd" d="M82.08 139.281C82.08 139.821 81.9202 140.348 81.6206 140.796C81.3211 141.244 80.8955 141.593 80.3974 141.8C79.8994 142.006 79.3513 142.06 78.8226 141.955C78.2939 141.85 77.8082 141.59 77.427 141.209C77.0458 140.828 76.7862 140.342 76.681 139.813C76.5759 139.284 76.6298 138.736 76.8361 138.238C77.0424 137.74 77.3918 137.315 77.84 137.015C78.2883 136.716 78.8153 136.556 79.3543 136.556C80.0772 136.556 80.7705 136.843 81.2817 137.354C81.7928 137.865 82.08 138.559 82.08 139.281Z" fill="#50E6FF"/>
<path fill-rule="evenodd" clip-rule="evenodd" d="M81.2522 137.567L81.2717 137.566C81.2623 137.557 81.2555 137.556 81.2522 137.567Z" fill="#7CB65A"/>
<path opacity="0.3" d="M88.3881 146.438C89.9732 146.438 91.2582 145.816 91.2582 145.048C91.2582 144.28 89.9732 143.657 88.3881 143.657C86.803 143.657 85.5181 144.28 85.5181 145.048C85.5181 145.816 86.803 146.438 88.3881 146.438Z" fill="#003067"/>
<path fill-rule="evenodd" clip-rule="evenodd" d="M89.3947 143.277C89.3947 143.816 89.2348 144.343 88.9353 144.791C88.6358 145.239 88.2101 145.589 87.7121 145.795C87.214 146.001 86.666 146.055 86.1373 145.95C85.6085 145.845 85.1229 145.585 84.7417 145.204C84.3605 144.823 84.1009 144.337 83.9957 143.808C83.8906 143.28 83.9445 142.732 84.1508 142.234C84.3571 141.736 84.7065 141.31 85.1547 141.01C85.603 140.711 86.13 140.551 86.669 140.551C87.3919 140.551 88.0852 140.838 88.5964 141.349C89.1075 141.86 89.3947 142.554 89.3947 143.277V143.277Z" fill="#1F56A3"/>
<path fill-rule="evenodd" clip-rule="evenodd" d="M88.567 141.563L88.5865 141.562C88.5771 141.552 88.5703 141.551 88.567 141.563Z" fill="#7CB65A"/>
<path opacity="0.3" d="M121.084 125.112C122.669 125.112 123.954 124.489 123.954 123.721C123.954 122.954 122.669 122.331 121.084 122.331C119.499 122.331 118.214 122.954 118.214 123.721C118.214 124.489 119.499 125.112 121.084 125.112Z" fill="#003067"/>
<path fill-rule="evenodd" clip-rule="evenodd" d="M122.09 121.95C122.09 122.489 121.931 123.016 121.631 123.464C121.332 123.913 120.906 124.262 120.408 124.468C119.91 124.675 119.362 124.729 118.833 124.623C118.304 124.518 117.819 124.259 117.437 123.878C117.056 123.496 116.797 123.011 116.692 122.482C116.586 121.953 116.64 121.405 116.847 120.907C117.053 120.409 117.402 119.983 117.851 119.684C118.299 119.384 118.826 119.225 119.365 119.225C120.088 119.225 120.781 119.512 121.292 120.023C121.803 120.534 122.09 121.227 122.09 121.95V121.95Z" fill="#C3F1FF"/>
<path fill-rule="evenodd" clip-rule="evenodd" d="M121.263 120.236L121.282 120.235C121.273 120.226 121.266 120.225 121.263 120.236Z" fill="#7CB65A"/>
<path opacity="0.3" d="M122.124 119.169C123.709 119.169 124.994 118.546 124.994 117.778C124.994 117.01 123.709 116.388 122.124 116.388C120.539 116.388 119.254 117.01 119.254 117.778C119.254 118.546 120.539 119.169 122.124 119.169Z" fill="#003067"/>
<path fill-rule="evenodd" clip-rule="evenodd" d="M123.13 116.007C123.13 116.546 122.97 117.073 122.671 117.521C122.371 117.969 121.946 118.319 121.448 118.525C120.95 118.731 120.402 118.785 119.873 118.68C119.344 118.575 118.858 118.315 118.477 117.934C118.096 117.553 117.837 117.067 117.731 116.539C117.626 116.01 117.68 115.462 117.886 114.964C118.093 114.466 118.442 114.04 118.89 113.74C119.339 113.441 119.866 113.281 120.405 113.281C121.128 113.281 121.821 113.568 122.332 114.079C122.843 114.591 123.13 115.284 123.13 116.007V116.007Z" fill="#50E6FF"/>
<path fill-rule="evenodd" clip-rule="evenodd" d="M122.303 114.293L122.322 114.292C122.313 114.282 122.306 114.282 122.303 114.293Z" fill="#7CB65A"/>
<path opacity="0.3" d="M129.438 123.164C131.023 123.164 132.308 122.541 132.308 121.773C132.308 121.005 131.023 120.383 129.438 120.383C127.853 120.383 126.568 121.005 126.568 121.773C126.568 122.541 127.853 123.164 129.438 123.164Z" fill="#003067"/>
<path fill-rule="evenodd" clip-rule="evenodd" d="M130.445 120.002C130.445 120.541 130.285 121.068 129.986 121.516C129.686 121.965 129.261 122.314 128.763 122.52C128.264 122.726 127.716 122.78 127.188 122.675C126.659 122.57 126.173 122.311 125.792 121.929C125.411 121.548 125.151 121.062 125.046 120.534C124.941 120.005 124.995 119.457 125.201 118.959C125.408 118.461 125.757 118.035 126.205 117.736C126.653 117.436 127.18 117.276 127.719 117.276C128.442 117.276 129.136 117.564 129.647 118.075C130.158 118.586 130.445 119.279 130.445 120.002V120.002Z" fill="#1F56A3"/>
<path fill-rule="evenodd" clip-rule="evenodd" d="M129.617 118.288L129.637 118.287C129.627 118.278 129.621 118.277 129.617 118.288Z" fill="#7CB65A"/>
</g>
<defs>
<linearGradient id="paint0_linear_370_2202" x1="79.6785" y1="8.27838" x2="79.6785" y2="179.694" gradientUnits="userSpaceOnUse">
<stop stop-color="#00ABDE"/>
<stop offset="1" stop-color="#007ED8"/>
</linearGradient>
<linearGradient id="paint1_linear_370_2202" x1="63.4608" y1="100.248" x2="111.606" y2="100.248" gradientUnits="userSpaceOnUse">
<stop stop-color="#005BA1"/>
<stop offset="0.07" stop-color="#0060A9"/>
<stop offset="0.36" stop-color="#0071C8"/>
<stop offset="0.52" stop-color="#0078D4"/>
<stop offset="0.64" stop-color="#0074CD"/>
<stop offset="0.82" stop-color="#006ABB"/>
<stop offset="1" stop-color="#005BA1"/>
</linearGradient>
<radialGradient id="paint2_radial_370_2202" cx="0" cy="0" r="1" gradientUnits="userSpaceOnUse" gradientTransform="translate(87.0059 49.6802) scale(17.0683 16.92)">
<stop offset="0.183" stop-color="#5EA0EF"/>
<stop offset="1" stop-color="#0078D4"/>
</radialGradient>
<linearGradient id="paint3_linear_370_2202" x1="65.6968" y1="135.364" x2="51.9472" y2="111.55" gradientUnits="userSpaceOnUse">
<stop stop-color="#50E6FF"/>
<stop offset="1" stop-color="#C3F1FF"/>
</linearGradient>
<linearGradient id="paint4_linear_370_2202" x1="2269.79" y1="2386.66" x2="2120.59" y2="1880.65" gradientUnits="userSpaceOnUse">
<stop stop-color="#50E6FF"/>
<stop offset="1" stop-color="#C3F1FF"/>
</linearGradient>
<linearGradient id="paint5_linear_370_2202" x1="2269.79" y1="2313.31" x2="2120.59" y2="1807.3" gradientUnits="userSpaceOnUse">
<stop stop-color="#50E6FF"/>
<stop offset="1" stop-color="#C3F1FF"/>
</linearGradient>
<clipPath id="clip0_370_2202">
<rect width="159.356" height="188" fill="white"/>
</clipPath>
</defs>
</svg>
