<svg width="100" height="100" viewBox="0 0 100 100" fill="none" xmlns="http://www.w3.org/2000/svg">
<g clip-path="url(#clip0_404_792)">
<path d="M49.6401 96.4499C40.382 96.4499 31.3317 93.7045 23.6339 88.561C15.936 83.4174 9.93624 76.1067 6.3933 67.5533C2.85036 58.9999 1.92337 49.588 3.72954 40.5077C5.53571 31.4275 9.99394 23.0867 16.5404 16.5402C23.0869 9.99372 31.4277 5.5355 40.5079 3.72933C49.5882 1.92315 59.0001 2.85015 67.5535 6.39308C76.1069 9.93602 83.4176 15.9358 88.5612 23.6336C93.7047 31.3315 96.4501 40.3817 96.4501 49.6399C96.4505 55.7872 95.24 61.8744 92.8878 67.5538C90.5355 73.2332 87.0875 78.3937 82.7407 82.7405C78.3939 87.0873 73.2335 90.5353 67.554 92.8876C61.8746 95.2398 55.7874 96.4503 49.6401 96.4499V96.4499Z" fill="url(#paint0_linear_404_792)"/>
<path fill-rule="evenodd" clip-rule="evenodd" d="M95.54 49.6399C95.54 58.718 92.848 67.5923 87.8045 75.1406C82.7609 82.6888 75.5923 88.5719 67.2052 92.046C58.818 95.52 49.5891 96.429 40.6854 94.6579C31.7816 92.8869 23.603 88.5153 17.1838 82.0961C10.7646 75.6769 6.39302 67.4983 4.62196 58.5945C2.85089 49.6908 3.75987 40.4618 7.23393 32.0747C10.708 23.6876 16.5911 16.519 24.1393 11.4754C31.6875 6.43187 40.5618 3.73988 49.64 3.73988C55.6677 3.73986 61.6363 4.92708 67.2052 7.23377C72.774 9.54045 77.834 12.9214 82.0963 17.1836C86.3585 21.4458 89.7394 26.5058 92.0461 32.0747C94.3528 37.6435 95.54 43.6122 95.54 49.6399V49.6399ZM49.64 -0.000106449C59.4579 -0.000106449 69.0552 2.91123 77.2185 8.36574C85.3818 13.8203 91.7442 21.573 95.5014 30.6435C99.2585 39.714 100.242 49.695 98.3262 59.3242C96.4108 68.9534 91.6831 77.7984 84.7408 84.7407C77.7985 91.683 68.9535 96.4107 59.3243 98.3261C49.6951 100.241 39.7141 99.2584 30.6436 95.5013C21.5731 91.7441 13.8204 85.3816 8.36584 77.2184C2.91133 69.0551 -1.61629e-06 59.4577 3.61524e-07 49.6399C-0.000786426 43.1208 1.28265 36.6655 3.77702 30.6425C6.27138 24.6196 9.92781 19.147 14.5375 14.5374C19.1471 9.9277 24.6197 6.27127 30.6427 3.77691C36.6656 1.28254 43.121 -0.000894549 49.64 -0.000106449V-0.000106449Z" fill="#F2F1F0"/>
<path fill-rule="evenodd" clip-rule="evenodd" d="M92.7296 49.64C92.7296 58.1624 90.2024 66.4934 85.4676 73.5795C80.7328 80.6656 74.0031 86.1886 66.1294 89.45C58.2557 92.7113 49.5918 93.5647 41.2331 91.902C32.8745 90.2394 25.1966 86.1355 19.1703 80.1092C13.1441 74.083 9.04017 66.4051 7.37753 58.0464C5.7149 49.6878 6.56822 41.0238 9.8296 33.1502C13.091 25.2765 18.6139 18.5468 25.7 13.812C32.7862 9.07718 41.1172 6.55 49.6396 6.55C55.2983 6.54965 60.9017 7.66397 66.1298 9.82933C71.3579 11.9947 76.1082 15.1687 80.1096 19.17C84.1109 23.1713 87.2849 27.9217 89.4502 33.1498C91.6156 38.3778 92.7299 43.9812 92.7296 49.64ZM49.6396 2.81C58.9017 2.81 67.9558 5.55653 75.6569 10.7023C83.3581 15.848 89.3604 23.1619 92.9049 31.7189C96.4493 40.276 97.3767 49.6919 95.5697 58.7761C93.7628 67.8602 89.3027 76.2045 82.7534 82.7538C76.2041 89.3031 67.8598 93.7632 58.7757 95.5702C49.6915 97.3771 40.2756 96.4497 31.7185 92.9053C23.1614 89.3608 15.8476 83.3585 10.7018 75.6574C5.5561 67.9562 2.80957 58.9021 2.80957 49.64C2.81076 37.2203 7.74501 25.3096 16.5271 16.5275C25.3091 7.74544 37.2198 2.81119 49.6396 2.81V2.81Z" fill="#0078D4"/>
<path d="M49.6388 50.3528C42.4558 50.3528 36.6323 48.3237 36.6323 45.6453V70.7249C36.6323 73.3018 42.3543 75.3918 49.4562 75.4324H49.6388C56.8218 75.4324 62.6453 73.4033 62.6453 70.7249V45.6453C62.6453 48.2628 56.8218 50.3528 49.6388 50.3528Z" fill="url(#paint1_linear_404_792)"/>
<path d="M62.6453 45.6453C62.6453 48.2628 56.8218 50.3528 49.6388 50.3528C42.4558 50.3528 36.6323 48.3237 36.6323 45.6453C36.6323 42.9669 42.4558 40.9378 49.6388 40.9378C56.8218 40.9378 62.6453 42.9669 62.6453 45.6453Z" fill="#E8E8E8"/>
<path d="M59.622 45.2598C59.622 46.9236 55.1377 48.2628 49.6389 48.2628C44.1401 48.2628 39.6558 46.9236 39.6558 45.2598C39.6558 43.5959 44.1401 42.277 49.6389 42.277C55.1377 42.277 59.622 43.6162 59.622 45.2598Z" fill="#50E6FF"/>
<path d="M49.6388 46.0105C46.961 45.9421 44.2912 46.3333 41.7456 47.1671C44.2936 47.9854 46.9642 48.3561 49.6388 48.2628C52.3188 48.3413 54.9914 47.9428 57.532 47.0859C54.9791 46.2907 52.3113 45.9273 49.6388 46.0105V46.0105Z" fill="#198AB3"/>
<path d="M39.0187 22.8894C38.9784 22.8896 38.9384 22.8819 38.901 22.8667C38.8636 22.8514 38.8296 22.829 38.8009 22.8006C38.7721 22.7722 38.7493 22.7384 38.7337 22.7012C38.718 22.664 38.7098 22.6241 38.7096 22.5837V22.5802C38.7082 21.6447 38.3359 20.7479 37.6744 20.0863C37.0129 19.4248 36.116 19.0525 35.1805 19.0511C35.0988 19.0512 35.0204 19.0188 34.9625 18.9612C34.9046 18.9036 34.8718 18.8254 34.8713 18.7437V18.7437C34.8713 18.7031 34.8793 18.6629 34.8949 18.6254C34.9104 18.5879 34.9332 18.5538 34.9619 18.5251C34.9906 18.4964 35.0247 18.4736 35.0622 18.4581C35.0997 18.4426 35.1399 18.4346 35.1805 18.4346V18.4346C36.1163 18.4332 37.0134 18.0607 37.675 17.3988C38.3366 16.7369 38.7086 15.8396 38.7096 14.9037C38.7093 14.8634 38.7171 14.8234 38.7323 14.786C38.7475 14.7486 38.77 14.7146 38.7984 14.6859C38.8267 14.6572 38.8605 14.6343 38.8977 14.6187C38.9349 14.603 38.9748 14.5948 39.0152 14.5946H39.0187C39.0591 14.5943 39.0991 14.6021 39.1365 14.6173C39.1739 14.6325 39.2079 14.655 39.2366 14.6834C39.2653 14.7117 39.2882 14.7455 39.3038 14.7827C39.3195 14.8199 39.3277 14.8599 39.3279 14.9002V14.9037C39.3293 15.8393 39.7016 16.7361 40.3631 17.3976C41.0246 18.0592 41.9214 18.4314 42.857 18.4328C42.8973 18.4326 42.9374 18.4403 42.9748 18.4555C43.0121 18.4708 43.0462 18.4932 43.0749 18.5216C43.1036 18.55 43.1264 18.5837 43.1421 18.621C43.1577 18.6582 43.1659 18.6981 43.1661 18.7385V18.742C43.1664 18.7824 43.1587 18.8224 43.1434 18.8598C43.1282 18.8972 43.1057 18.9312 43.0774 18.9599C43.049 18.9886 43.0152 19.0114 42.978 19.0271C42.9408 19.0427 42.9009 19.0509 42.8605 19.0512H42.857C41.9213 19.0521 41.0242 19.4242 40.3626 20.0858C39.7009 20.7475 39.3288 21.6445 39.3279 22.5802C39.3274 22.6621 39.2947 22.7404 39.2368 22.7983C39.179 22.8562 39.1006 22.8889 39.0187 22.8894V22.8894Z" fill="#50E6FF"/>
<path d="M61.2523 44.3026C61.2198 44.3026 61.1876 44.2962 61.1576 44.2838C61.1275 44.2713 61.1002 44.2531 61.0772 44.2301C61.0542 44.2071 61.036 44.1798 61.0235 44.1497C61.0111 44.1197 61.0047 44.0874 61.0047 44.0549V44.0549C61.0037 43.3065 60.706 42.589 60.1768 42.0599C59.6476 41.5307 58.9302 41.2329 58.1818 41.232C58.1164 41.232 58.0537 41.2062 58.0073 41.1601C57.9609 41.114 57.9345 41.0515 57.9341 40.9861V40.9861C57.9341 40.9204 57.9602 40.8574 58.0066 40.8109C58.0531 40.7645 58.1161 40.7384 58.1818 40.7384V40.7384C58.9303 40.7379 59.6481 40.4404 60.1773 39.9111C60.7066 39.3818 61.0042 38.664 61.0047 37.9155C61.0047 37.8498 61.0308 37.7868 61.0772 37.7404C61.1237 37.6939 61.1867 37.6678 61.2523 37.6678V37.6678C61.2849 37.6678 61.3171 37.6742 61.3471 37.6867C61.3772 37.6991 61.4045 37.7173 61.4275 37.7403C61.4505 37.7633 61.4688 37.7907 61.4812 37.8207C61.4937 37.8508 61.5001 37.883 61.5001 37.9155V37.9155C61.5005 38.664 61.7981 39.3818 62.3274 39.9111C62.8567 40.4404 63.5744 40.7379 64.323 40.7384C64.3884 40.7387 64.451 40.7648 64.4972 40.8112C64.5434 40.8575 64.5694 40.9202 64.5696 40.9857C64.5697 41.0511 64.5439 41.1139 64.4978 41.1604C64.4518 41.2069 64.3892 41.2333 64.3238 41.2338H64.323C63.5746 41.2347 62.8571 41.5324 62.3279 42.0616C61.7987 42.5908 61.501 43.3083 61.5001 44.0567C61.4996 44.1221 61.4733 44.1846 61.4269 44.2307C61.3805 44.2768 61.3177 44.3026 61.2523 44.3026Z" fill="#50E6FF"/>
<path d="M60.1244 26.8664C60.6199 28.9402 60.4893 31.1144 59.7491 33.1139C59.0089 35.1135 57.6924 36.8486 55.966 38.1C54.2396 39.3513 52.181 40.0627 50.0504 40.144C47.9198 40.2253 45.8129 39.6731 43.9961 38.557C42.1794 37.4409 40.7344 35.8112 39.8439 33.8739C38.9534 31.9366 38.6574 29.7787 38.9933 27.6732C39.3291 25.5676 40.2818 23.609 41.7309 22.0449C43.1799 20.4808 45.0603 19.3815 47.1341 18.8861H47.1342C49.915 18.2217 52.8459 18.6893 55.2821 20.1859C57.7182 21.6825 59.4601 24.0855 60.1244 26.8664V26.8664Z" fill="url(#paint2_radial_404_792)"/>
<path d="M43.8581 36.6772C44.2358 36.6871 44.6118 36.6225 44.9645 36.4871C45.3173 36.3517 45.6399 36.1481 45.914 35.888C46.1881 35.6279 46.4083 35.3164 46.562 34.9712C46.7157 34.626 46.7999 34.2539 46.8098 33.8762C46.8197 33.4984 46.7551 33.1224 46.6197 32.7697C46.4843 32.4169 46.2807 32.0943 46.0206 31.8202C45.7605 31.5461 45.449 31.3259 45.1038 31.1722C44.7586 31.0185 44.3865 30.9343 44.0088 30.9244C43.9615 30.9232 43.9141 30.9231 43.8668 30.9242C43.8753 30.8425 43.8794 30.7604 43.8791 30.6783C43.8722 29.9106 43.5611 29.177 43.0142 28.6383C42.4673 28.0996 41.729 27.7998 40.9614 27.8044H38.8042C38.5932 29.3983 38.7348 31.0191 39.2189 32.5522C39.703 34.0854 40.5179 35.4935 41.6061 36.6772H43.8581Z" fill="#F2F2F2"/>
<path d="M60.258 27.367C60.2601 27.3406 60.2559 27.3141 60.2457 27.2897C59.8983 25.41 59.0443 23.6607 57.7759 22.2306C57.6114 22.1639 57.4415 22.1111 57.2682 22.0725C56.8067 21.9408 56.3212 21.9156 55.8484 21.9987C55.3757 22.0818 54.928 22.2712 54.539 22.5524C54.15 22.8337 53.8299 23.1995 53.6028 23.6224C53.3758 24.0453 53.2476 24.5142 53.228 24.9938C53.1114 24.9804 52.9941 24.9727 52.8767 24.971C52.1572 24.9709 51.4608 25.2251 50.9106 25.6887C50.3603 26.1523 49.9916 26.7954 49.8695 27.5045C49.7474 28.2135 49.8798 28.9429 50.2433 29.5638C50.6068 30.1848 51.178 30.6573 51.8561 30.8979C52.1588 31.0165 52.4813 31.0761 52.8064 31.0735H56.3724C57.8043 29.9897 59.1079 28.7461 60.258 27.367V27.367Z" fill="#F2F2F2"/>
<path d="M64.0279 20.3704C62.9229 18.5312 60.3389 17.8145 56.7291 18.352C55.4923 18.5273 54.2699 18.7927 53.0718 19.146C54.0222 19.4741 54.9249 19.9272 55.7559 20.4933C56.1792 20.4002 56.6043 20.2896 57.0119 20.2281C57.653 20.1283 58.3006 20.076 58.9494 20.0718C59.5837 19.9803 60.2308 20.0489 60.8319 20.2714C61.4329 20.4938 61.9687 20.863 62.3907 21.3453C63.0635 22.466 62.4961 24.3825 60.8343 26.6152C58.5248 29.4898 55.6948 31.9039 52.4921 33.7313C49.3611 35.6854 45.8906 37.0333 42.2615 37.7048C39.5141 38.1158 37.5502 37.7048 36.8774 36.5876C36.2046 35.4704 36.772 33.5486 38.4338 31.3265C38.6393 31.0507 38.6902 30.9155 38.9239 30.6379C38.8141 29.6855 38.8294 28.7229 38.9695 27.7746C38.2227 28.5232 37.5355 29.329 36.9143 30.1847C34.7378 33.0954 34.1476 35.7128 35.2508 37.552C35.8335 38.3316 36.6108 38.9446 37.5047 39.3296C38.3987 39.7146 39.3781 39.8582 40.345 39.746C41.0808 39.7421 41.8154 39.6834 42.5425 39.5703C46.4164 38.8633 50.1225 37.433 53.467 35.3544C56.8827 33.3996 59.8989 30.8179 62.3573 27.7447C64.5408 24.827 65.131 22.2113 64.0279 20.3704Z" fill="#50E6FF"/>
<path fill-rule="evenodd" clip-rule="evenodd" d="M50.4237 64.1779C50.4237 61.8179 51.1236 59.5109 52.4347 57.5486C53.7459 55.5863 55.6094 54.0569 57.7898 53.1538C59.9702 52.2506 62.3694 52.0144 64.684 52.4748C66.9987 52.9352 69.1248 54.0716 70.7936 55.7404C72.4624 57.4092 73.5988 59.5354 74.0592 61.85C74.5197 64.1647 74.2833 66.5639 73.3802 68.7442C72.4771 70.9246 70.9477 72.7882 68.9854 74.0993C67.0231 75.4105 64.7161 76.1103 62.3561 76.1103C59.1924 76.1072 56.1591 74.849 53.922 72.6119C51.685 70.3749 50.4268 67.3416 50.4237 64.1779V64.1779ZM79.2007 79.1504L73.5594 73.5044C75.968 70.6149 77.17 66.908 76.9152 63.1549C76.6604 59.4017 74.9684 55.8913 72.1912 53.3539C69.4141 50.8165 65.7656 49.4474 62.0048 49.5316C58.2439 49.6157 54.6603 51.1465 51.9994 53.8056C49.3385 56.4647 47.8052 60.0473 47.7185 63.808C47.6318 67.5688 48.9983 71.2183 51.5338 73.9971C54.0693 76.776 57.5785 78.4704 61.3315 78.7278C65.0845 78.9852 68.7922 77.7858 71.6834 75.3791L77.3314 81.0251L79.2007 79.1504Z" fill="#30404D"/>
<path fill-rule="evenodd" clip-rule="evenodd" d="M60.2882 78.6182C63.9939 79.1496 67.7619 78.2322 70.8086 76.0567C71.0626 75.8758 71.3725 75.7908 71.6832 75.8169C71.994 75.843 72.2854 75.9785 72.5056 76.1992L76.3903 80.0879H78.2663L70.7887 72.6116C69.6818 73.7218 68.3669 74.603 66.9191 75.2046C65.4714 75.8062 63.9193 76.1164 62.3515 76.1175C60.7838 76.1187 59.2312 75.8107 57.7826 75.2112C56.334 74.6117 55.0178 73.7325 53.9093 72.6238C52.8008 71.5152 51.9218 70.1988 51.3225 68.7501C50.7233 67.3014 50.4156 65.7488 50.4169 64.181C50.4183 62.6133 50.7288 61.0612 51.3306 59.6135C51.9325 58.1659 52.8138 56.8511 53.9242 55.7444L52.0482 53.8704C50.131 55.7838 48.7848 58.1935 48.1607 60.8293C47.5367 63.465 47.6593 66.2226 48.515 68.7925C49.3707 71.3624 50.9255 73.6431 53.0051 75.3787C55.0847 77.1142 57.6067 78.236 60.2882 78.6182H60.2882Z" fill="#182A37"/>
<path fill-rule="evenodd" clip-rule="evenodd" d="M77.9439 85.2199L74.6861 81.9612C74.4313 81.7051 74.2883 81.3585 74.2883 80.9973C74.2883 80.6361 74.4313 80.2895 74.6861 80.0334L78.2128 76.5081C78.4691 76.2533 78.8159 76.1103 79.1773 76.1103C79.5387 76.1103 79.8855 76.2533 80.1418 76.5081L83.2753 79.6424L77.9439 85.2199Z" fill="#0078D4"/>
<path fill-rule="evenodd" clip-rule="evenodd" d="M80.609 82.4318L78.2063 80.0307C78.0838 79.9076 77.9381 79.8099 77.7777 79.7433C77.6173 79.6767 77.4453 79.6424 77.2716 79.6424C77.0979 79.6424 76.9259 79.6767 76.7655 79.7433C76.6051 79.8099 76.4595 79.9076 76.3369 80.0307L74.5603 81.8059V81.8344L77.9443 85.2196L80.609 82.4318Z" fill="#1F56A3"/>
<path d="M62.356 56.79C63.4761 56.7904 64.5815 57.0456 65.5884 57.5362C66.5954 58.0268 67.4775 58.74 68.1682 59.6218C68.8589 60.5036 69.34 61.531 69.5752 62.6261C69.8103 63.7212 69.7933 64.8555 69.5255 65.9431C69.2576 67.0307 68.7459 68.0432 68.0291 68.9039C67.3123 69.7646 66.4092 70.451 65.388 70.9113C64.3668 71.3715 63.2543 71.5934 62.1347 71.5603C61.0151 71.5272 59.9177 71.24 58.9254 70.7202L55.7562 71.5453C55.6503 71.5729 55.539 71.5723 55.4333 71.5436C55.3277 71.5149 55.2314 71.4591 55.154 71.3817C55.0766 71.3043 55.0208 71.208 54.9921 71.1024C54.9633 70.9968 54.9627 70.8855 54.9903 70.7795L55.8149 67.6118C55.2243 66.4858 54.9341 65.2264 54.9726 63.9555C55.0111 62.6845 55.3769 61.445 56.0347 60.3568C56.6924 59.2687 57.6198 58.3686 58.7272 57.7438C59.8346 57.1189 61.0845 56.7904 62.356 56.79V56.79Z" fill="white"/>
<path d="M63.2808 64.9155H59.9554L59.8803 64.9205C59.7476 64.9386 59.626 65.0043 59.5379 65.1052C59.4499 65.2061 59.4014 65.3355 59.4014 65.4695C59.4014 65.6034 59.4499 65.7328 59.5379 65.8337C59.626 65.9347 59.7476 66.0003 59.8803 66.0185L59.9554 66.0235H63.2808L63.3559 66.0185C63.4886 66.0003 63.6103 65.9347 63.6983 65.8337C63.7863 65.7328 63.8349 65.6034 63.8349 65.4695C63.8349 65.3355 63.7863 65.2061 63.6983 65.1052C63.6103 65.0043 63.4886 64.9386 63.3559 64.9205L63.2808 64.9155ZM64.7569 62.3301H59.9554L59.8803 62.3351C59.7476 62.3533 59.626 62.419 59.538 62.5199C59.45 62.6208 59.4015 62.7502 59.4015 62.8841C59.4015 63.018 59.45 63.1474 59.538 63.2483C59.626 63.3493 59.7476 63.4149 59.8803 63.4331L59.9554 63.4381H64.7569L64.832 63.4331C64.9647 63.4149 65.0863 63.3493 65.1743 63.2483C65.2624 63.1474 65.3109 63.018 65.3109 62.8841C65.3109 62.7502 65.2624 62.6208 65.1743 62.5199C65.0863 62.419 64.9647 62.3533 64.832 62.3351L64.7569 62.3301Z" fill="url(#paint3_linear_404_792)"/>
<path fill-rule="evenodd" clip-rule="evenodd" d="M92.7296 49.6399C92.7296 58.1623 90.2024 66.4933 85.4676 73.5794C80.7328 80.6655 74.0031 86.1885 66.1294 89.4499C58.2557 92.7112 49.5918 93.5646 41.2331 91.9019C32.8745 90.2393 25.1966 86.1354 19.1703 80.1091C13.1441 74.0829 9.04017 66.405 7.37753 58.0463C5.7149 49.6877 6.56822 41.0237 9.8296 33.1501C13.091 25.2764 18.6139 18.5467 25.7001 13.8119C32.7862 9.07708 41.1172 6.5499 49.6396 6.5499C55.2983 6.54956 60.9017 7.66388 66.1298 9.82923C71.3579 11.9946 76.1082 15.1686 80.1096 19.1699C84.1109 23.1712 87.2849 27.9216 89.4502 33.1497C91.6156 38.3777 92.7299 43.9811 92.7296 49.6399V49.6399ZM49.6396 2.8099C58.9017 2.8099 67.9558 5.55643 75.6569 10.7022C83.3581 15.8479 89.3604 23.1618 92.9048 31.7188C96.4493 40.2759 97.3767 49.6918 95.5697 58.776C93.7628 67.8601 89.3027 76.2044 82.7534 82.7537C76.2041 89.303 67.8598 93.7631 58.7757 95.5701C49.6915 97.377 40.2756 96.4496 31.7185 92.9052C23.1614 89.3607 15.8476 83.3584 10.7018 75.6573C5.5561 67.9561 2.80957 58.902 2.80957 49.6399C2.81075 37.2202 7.74499 25.3095 16.5271 16.5274C25.3091 7.7453 37.2198 2.81105 49.6396 2.80986V2.8099Z" fill="#0078D4"/>
</g>
<defs>
<linearGradient id="paint0_linear_404_792" x1="47.8698" y1="-15.1532" x2="51.8525" y2="130.615" gradientUnits="userSpaceOnUse">
<stop stop-color="#00ABDE"/>
<stop offset="1" stop-color="#007ED8"/>
</linearGradient>
<linearGradient id="paint1_linear_404_792" x1="36.6323" y1="60.5388" x2="62.6453" y2="60.5388" gradientUnits="userSpaceOnUse">
<stop stop-color="#005BA1"/>
<stop offset="0.07" stop-color="#0060A9"/>
<stop offset="0.36" stop-color="#0071C8"/>
<stop offset="0.52" stop-color="#0078D4"/>
<stop offset="0.64" stop-color="#0074CD"/>
<stop offset="0.82" stop-color="#006ABB"/>
<stop offset="1" stop-color="#005BA1"/>
</linearGradient>
<radialGradient id="paint2_radial_404_792" cx="0" cy="0" r="1" gradientUnits="userSpaceOnUse" gradientTransform="translate(49.5562 29.3714) scale(10.8373 10.7432)">
<stop offset="0.183" stop-color="#5EA0EF"/>
<stop offset="1" stop-color="#0078D4"/>
</radialGradient>
<linearGradient id="paint3_linear_404_792" x1="62.3561" y1="62.3301" x2="62.3561" y2="66.0235" gradientUnits="userSpaceOnUse">
<stop stop-color="#008BF1"/>
<stop offset="0.22" stop-color="#0086EC"/>
<stop offset="0.49" stop-color="#0078DD"/>
<stop offset="0.79" stop-color="#0061C4"/>
<stop offset="1" stop-color="#004DAE"/>
</linearGradient>
<clipPath id="clip0_404_792">
<rect width="99.2799" height="99.28" fill="white"/>
</clipPath>
</defs>
</svg>
