<svg width="103" height="103" viewBox="0 0 103 103" fill="none" xmlns="http://www.w3.org/2000/svg">
<path d="M51.6269 97.9423C25.7769 97.9423 4.81689 76.9923 4.81689 51.1323C4.81689 25.2723 25.7769 4.32227 51.6269 4.32227C77.4769 4.32227 98.4369 25.2823 98.4369 51.1323C98.4369 76.9823 77.4769 97.9423 51.6269 97.9423Z" fill="url(#paint0_linear_655_58381)"/>
<path fill-rule="evenodd" clip-rule="evenodd" d="M97.5271 51.1324C97.5271 76.4824 76.9771 97.0324 51.6271 97.0324C26.2771 97.0324 5.72706 76.4824 5.72706 51.1324C5.72706 25.7824 26.2771 5.23244 51.6271 5.23244C76.9771 5.23244 97.5271 25.7824 97.5271 51.1324ZM51.6271 1.49243C79.0471 1.49243 101.267 23.7124 101.267 51.1324C101.267 78.5524 79.0371 100.772 51.6271 100.772C24.2071 100.772 1.98706 78.5424 1.98706 51.1324C1.98706 23.7124 24.2071 1.49243 51.6271 1.49243Z" fill="#F2F1F0"/>
<path fill-rule="evenodd" clip-rule="evenodd" d="M94.7169 51.1322C94.7169 74.9322 75.4269 94.2222 51.6269 94.2222C27.8269 94.2222 8.53687 74.9322 8.53687 51.1322C8.53687 27.3322 27.8269 8.04225 51.6269 8.04225C75.4269 8.04225 94.7169 27.3322 94.7169 51.1322ZM51.6269 4.30225C77.4869 4.30225 98.4569 25.2722 98.4569 51.1322C98.4569 76.9922 77.4869 97.9623 51.6269 97.9623C25.7669 97.9623 4.79688 76.9922 4.79688 51.1322C4.79687 25.2722 25.7569 4.30225 51.6269 4.30225Z" fill="url(#paint1_linear_655_58381)"/>
<path d="M51.3025 29.4594C48.5325 29.4594 46.2725 27.1894 46.2725 24.3994C46.2725 21.6094 48.5325 19.3394 51.3025 19.3394C54.0725 19.3394 56.3325 21.6094 56.3325 24.3994C56.3325 27.1894 54.0725 29.4594 51.3025 29.4594ZM51.3025 21.3394C49.6325 21.3394 48.2725 22.7094 48.2725 24.3994C48.2725 26.0894 49.6325 27.4594 51.3025 27.4594C52.9725 27.4594 54.3325 26.0894 54.3325 24.3994C54.3325 22.7094 52.9725 21.3394 51.3025 21.3394Z" fill="url(#paint2_linear_655_58381)"/>
<path d="M64.1724 77.5492H39.0724L36.4324 82.4692L34.6724 81.5192L41.9824 67.9092L43.7324 68.8692L40.1424 75.5492H63.1024L59.5124 68.8692L61.2724 67.9192L68.5824 81.5292L66.8224 82.4792L64.1724 77.5492Z" fill="url(#paint3_linear_655_58381)"/>
<path d="M78.8324 29.8091H24.4424V66.3691H78.8324V29.8091Z" fill="url(#paint4_linear_655_58381)"/>
<path d="M23.7324 24.3892H79.5224C80.6224 24.3892 81.5224 25.2892 81.5224 26.3892V28.4792C81.5224 29.5792 80.6224 30.4792 79.5224 30.4792H23.7324C22.6324 30.4792 21.7324 29.5792 21.7324 28.4792V26.3892C21.7324 25.2892 22.6324 24.3892 23.7324 24.3892Z" fill="url(#paint5_linear_655_58381)"/>
<path d="M23.4224 65.5991H79.8224C80.7524 65.5991 81.5124 66.3591 81.5124 67.2891C81.5124 68.2191 80.7524 68.9791 79.8224 68.9791H23.4224C22.4924 68.9891 21.7324 68.2291 21.7324 67.2991C21.7324 66.3591 22.4924 65.5991 23.4224 65.5991Z" fill="url(#paint6_linear_655_58381)"/>
<path d="M78.8324 29.8091H24.4424V66.3691H78.8324V29.8091Z" fill="url(#paint7_linear_655_58381)"/>
<path d="M23.7324 24.3892H79.5224C80.6224 24.3892 81.5224 25.2892 81.5224 26.3892V28.4792C81.5224 29.5792 80.6224 30.4792 79.5224 30.4792H23.7324C22.6324 30.4792 21.7324 29.5792 21.7324 28.4792V26.3892C21.7324 25.2892 22.6324 24.3892 23.7324 24.3892Z" fill="url(#paint8_linear_655_58381)"/>
<path d="M23.4224 65.5991H79.8224C80.7524 65.5991 81.5124 66.3591 81.5124 67.2891C81.5124 68.2191 80.7524 68.9791 79.8224 68.9791H23.4224C22.4924 68.9891 21.7324 68.2291 21.7324 67.2991C21.7324 66.3591 22.4924 65.5991 23.4224 65.5991Z" fill="url(#paint9_linear_655_58381)"/>
<path opacity="0.15" d="M64.8612 48.7187C64.8147 47.2175 64.2305 45.7817 63.2131 44.668C62.1958 43.5542 60.8117 42.8351 59.3082 42.6392C59.221 40.5432 58.3028 38.5658 56.7528 37.1361C55.2027 35.7064 53.1459 34.9398 51.0287 35.0026C49.3156 34.9738 47.6349 35.4667 46.214 36.4148C44.793 37.3629 43.7003 38.7203 43.0838 40.3035C41.2726 40.5178 39.5999 41.3705 38.3713 42.7058C37.1428 44.0412 36.4407 45.7698 36.3933 47.5757C36.4717 49.603 37.3596 51.5165 38.862 52.8957C40.3643 54.2749 42.3581 55.0068 44.4051 54.9307C44.639 54.947 44.8738 54.947 45.1076 54.9307H58.0704C58.1812 54.9481 58.2941 54.9481 58.4049 54.9307C60.0859 54.9314 61.7008 54.2828 62.9064 53.1228C64.112 51.9627 64.8133 50.3828 64.8612 48.7187V48.7187Z" fill="#1F1D20"/>
<path d="M64.8612 48.1C64.8147 46.5989 64.2305 45.1631 63.2131 44.0493C62.1958 42.9355 60.8117 42.2164 59.3082 42.0206C59.221 39.9246 58.3028 37.9471 56.7528 36.5174C55.2027 35.0877 53.1459 34.3211 51.0287 34.384C49.3156 34.3551 47.6349 34.8481 46.214 35.7962C44.793 36.7442 43.7003 38.1017 43.0838 39.6849C41.2726 39.8991 39.5999 40.7519 38.3713 42.0872C37.1428 43.4225 36.4407 45.1512 36.3933 46.957C36.4717 48.9843 37.3596 50.8979 38.862 52.277C40.3643 53.6562 42.3581 54.3882 44.4051 54.312C44.639 54.3283 44.8738 54.3283 45.1076 54.312H58.0704C58.1812 54.3294 58.2941 54.3294 58.4049 54.312C60.0859 54.3127 61.7008 53.6641 62.9064 52.5041C64.112 51.3441 64.8133 49.7641 64.8612 48.1V48.1Z" fill="url(#paint10_linear_655_58381)"/>
<path opacity="0.15" d="M60.3609 62.1711H44.2368C43.7183 62.1711 43.4173 61.3594 43.7016 60.9287L49.2547 52.911C49.3354 52.8068 49.3769 52.6779 49.3718 52.5466V47.2457C49.3677 47.1635 49.3329 47.0858 49.2742 47.0276C49.2155 46.9694 49.137 46.935 49.054 46.931H48.7529C48.5843 46.931 48.4227 46.8646 48.3035 46.7466C48.1843 46.6285 48.1173 46.4684 48.1173 46.3015V46.0199C48.1173 45.8529 48.1843 45.6928 48.3035 45.5748C48.4227 45.4567 48.5843 45.3904 48.7529 45.3904H55.8281C55.9967 45.3904 56.1583 45.4567 56.2775 45.5748C56.3967 45.6928 56.4637 45.8529 56.4637 46.0199V46.3015C56.4637 46.4684 56.3967 46.6285 56.2775 46.7466C56.1583 46.8646 55.9967 46.931 55.8281 46.931H55.527C55.4427 46.931 55.3619 46.9641 55.3023 47.0231C55.2427 47.0822 55.2092 47.1622 55.2092 47.2457V52.5632C55.2068 52.6941 55.2479 52.8222 55.3263 52.9276L60.8794 60.9287C61.1637 61.3428 60.8627 62.1711 60.3609 62.1711Z" fill="#1F1D20"/>
<path d="M60.3609 61.5524H44.2368C43.7183 61.5524 43.4173 60.7407 43.7016 60.31L49.2547 52.2924C49.3354 52.1882 49.3769 52.0592 49.3718 51.928V46.627C49.3677 46.5449 49.3329 46.4671 49.2742 46.4089C49.2155 46.3508 49.137 46.3163 49.054 46.3123H48.7529C48.5843 46.3123 48.4227 46.246 48.3035 46.1279C48.1843 46.0099 48.1173 45.8498 48.1173 45.6828V45.4012C48.1173 45.2343 48.1843 45.0742 48.3035 44.9561C48.4227 44.838 48.5843 44.7717 48.7529 44.7717H55.8281C55.9967 44.7717 56.1583 44.838 56.2775 44.9561C56.3967 45.0742 56.4637 45.2343 56.4637 45.4012V45.6828C56.4637 45.8498 56.3967 46.0099 56.2775 46.1279C56.1583 46.246 55.9967 46.3123 55.8281 46.3123H55.527C55.4427 46.3123 55.3619 46.3455 55.3023 46.4045C55.2427 46.4635 55.2092 46.5436 55.2092 46.627V51.9445C55.2068 52.0754 55.2479 52.2035 55.3263 52.309L60.8794 60.31C61.1637 60.7241 60.8627 61.5524 60.3609 61.5524Z" fill="url(#paint11_linear_655_58381)"/>
<path d="M46.0938 59.3978L50.3088 53.3018C50.5057 53.0547 50.6223 52.7544 50.6434 52.4404V49.9887C50.6434 49.8613 50.6945 49.7391 50.7854 49.649C50.8764 49.5589 50.9998 49.5083 51.1284 49.5083H53.537C53.6656 49.5083 53.789 49.5589 53.88 49.649C53.9709 49.7391 54.022 49.8613 54.022 49.9887V52.606C54.0218 52.8134 54.0861 53.0158 54.206 53.1858L58.5214 59.3978C58.5561 59.4536 58.5756 59.5174 58.5782 59.5829C58.5807 59.6484 58.5661 59.7134 58.5359 59.7717C58.5056 59.83 58.4606 59.8796 58.4054 59.9157C58.3501 59.9517 58.2863 59.9731 58.2203 59.9776H46.512C46.4348 60.0106 46.3484 60.0165 46.2674 59.9942C46.1864 59.9718 46.1155 59.9227 46.0666 59.8549C46.0177 59.7871 45.9937 59.7047 45.9987 59.6216C46.0036 59.5384 46.0372 59.4594 46.0938 59.3978V59.3978Z" fill="white"/>
<defs>
<linearGradient id="paint0_linear_655_58381" x1="49.853" y1="-13.6572" x2="53.835" y2="132.113" gradientUnits="userSpaceOnUse">
<stop stop-color="#00ABDE"/>
<stop offset="1" stop-color="#007ED8"/>
</linearGradient>
<linearGradient id="paint1_linear_655_58381" x1="3.05728" y1="-20.4904" x2="98.5848" y2="120.391" gradientUnits="userSpaceOnUse">
<stop stop-color="#007ED8"/>
<stop offset="0.7065" stop-color="#002D4C"/>
</linearGradient>
<linearGradient id="paint2_linear_655_58381" x1="44.0644" y1="9.46586" x2="70.9935" y2="65.0248" gradientUnits="userSpaceOnUse">
<stop stop-color="#007ED8"/>
<stop offset="0.7065" stop-color="#002D4C"/>
</linearGradient>
<linearGradient id="paint3_linear_655_58381" x1="57.5396" y1="154.09" x2="46.201" y2="14.9089" gradientUnits="userSpaceOnUse">
<stop stop-color="#007ED8"/>
<stop offset="0.7065" stop-color="#002D4C"/>
</linearGradient>
<linearGradient id="paint4_linear_655_58381" x1="51.6373" y1="66.3689" x2="51.6373" y2="29.8089" gradientUnits="userSpaceOnUse">
<stop stop-color="#D2EBFF"/>
<stop offset="1" stop-color="#F0FFFD"/>
</linearGradient>
<linearGradient id="paint5_linear_655_58381" x1="51.6274" y1="24.4027" x2="51.6274" y2="30.4847" gradientUnits="userSpaceOnUse">
<stop stop-color="#0099BE"/>
<stop offset="1" stop-color="#006E97"/>
</linearGradient>
<linearGradient id="paint6_linear_655_58381" x1="51.6224" y1="65.6077" x2="51.6224" y2="68.9881" gradientUnits="userSpaceOnUse">
<stop stop-color="#0099BE"/>
<stop offset="1" stop-color="#006E97"/>
</linearGradient>
<linearGradient id="paint7_linear_655_58381" x1="51.6373" y1="66.3689" x2="51.6373" y2="29.8089" gradientUnits="userSpaceOnUse">
<stop stop-color="#D2EBFF"/>
<stop offset="1" stop-color="#F0FFFD"/>
</linearGradient>
<linearGradient id="paint8_linear_655_58381" x1="51.6274" y1="24.4027" x2="51.6274" y2="30.4847" gradientUnits="userSpaceOnUse">
<stop stop-color="#007ED8"/>
<stop offset="0.7065" stop-color="#002D4C"/>
</linearGradient>
<linearGradient id="paint9_linear_655_58381" x1="51.6224" y1="65.6077" x2="51.6224" y2="68.9881" gradientUnits="userSpaceOnUse">
<stop stop-color="#007ED8"/>
<stop offset="0.7065" stop-color="#002D4C"/>
</linearGradient>
<linearGradient id="paint10_linear_655_58381" x1="50.644" y1="60.2093" x2="50.644" y2="29.845" gradientUnits="userSpaceOnUse">
<stop stop-color="#0078D4"/>
<stop offset="0.16" stop-color="#1380DA"/>
<stop offset="0.53" stop-color="#3C91E5"/>
<stop offset="0.82" stop-color="#559CEC"/>
<stop offset="1" stop-color="#5EA0EF"/>
</linearGradient>
<linearGradient id="paint11_linear_655_58381" x1="52.1149" y1="44.838" x2="52.2953" y2="61.6684" gradientUnits="userSpaceOnUse">
<stop stop-color="#32D4F5"/>
<stop offset="0.32" stop-color="#31D1F3"/>
<stop offset="0.53" stop-color="#2EC9EB"/>
<stop offset="0.7" stop-color="#29BADE"/>
<stop offset="0.86" stop-color="#22A5CB"/>
<stop offset="1" stop-color="#198AB3"/>
</linearGradient>
</defs>
</svg>
