<svg width="103" height="103" viewBox="0 0 103 103" fill="none" xmlns="http://www.w3.org/2000/svg">
<path d="M51.7598 98.4094C77.6122 98.4094 98.5657 77.4559 98.5657 51.6035C98.5657 25.7511 77.6122 4.79761 51.7598 4.79761C25.9074 4.79761 4.95386 25.7511 4.95386 51.6035C4.95386 77.4559 25.9074 98.4094 51.7598 98.4094Z" fill="url(#paint0_linear)"/>
<path fill-rule="evenodd" clip-rule="evenodd" d="M51.7598 1.60352C24.1464 1.60352 1.75977 23.9902 1.75977 51.6035C1.75977 79.2169 24.1464 101.604 51.7598 101.604C79.3731 101.604 101.76 79.2169 101.76 51.6035C101.76 23.9902 79.3731 1.60352 51.7598 1.60352ZM51.7598 97.3604C26.4881 97.3604 6.00293 76.8752 6.00293 51.6035C6.00293 26.3319 26.4881 5.84668 51.7598 5.84668C77.0314 5.84668 97.5166 26.3319 97.5166 51.6035C97.5166 76.8752 77.0314 97.3604 51.7598 97.3604Z" fill="#D9D9D9"/>
<path fill-rule="evenodd" clip-rule="evenodd" d="M5.86244 51.6035C5.86244 76.9501 26.4132 97.5009 51.7598 97.5009C77.1064 97.5009 97.6571 76.9501 97.6571 51.6035C97.6571 26.257 77.1064 5.70619 51.7598 5.70619C26.4132 5.70619 5.86244 26.257 5.86244 51.6035ZM51.7598 1.95947C24.3431 1.95947 2.11572 24.1869 2.11572 51.6035C2.11572 79.0202 24.3431 101.248 51.7598 101.248C79.1764 101.248 101.404 79.0202 101.404 51.6035C101.404 24.1869 79.1764 1.95947 51.7598 1.95947Z" fill="#F2F1F0"/>
<path fill-rule="evenodd" clip-rule="evenodd" d="M8.6725 51.6036C8.6725 75.4046 27.9588 94.6908 51.7598 94.6908C75.5608 94.6908 94.8471 75.4046 94.8471 51.6036C94.8471 27.8025 75.5608 8.51625 51.7598 8.51625C27.9588 8.51625 8.6725 27.8025 8.6725 51.6036ZM51.7598 4.76953C25.8981 4.76953 4.92578 25.7418 4.92578 51.6036C4.92578 77.4653 25.8981 98.4376 51.7598 98.4376C77.6215 98.4376 98.5938 77.4653 98.5938 51.6036C98.5938 25.7418 77.6309 4.76953 51.7598 4.76953Z" fill="#0078D4"/>
<path opacity="0.5" d="M21.0367 68.3421L73.725 55.4721L86.9978 47.5759L14.302 57.6546L21.0367 68.3421Z" stroke="#50E6FF" stroke-width="0.6159" stroke-miterlimit="10" stroke-linejoin="round"/>
<path opacity="0.5" d="M60.4522 32.5422V47.9319L21.1023 68.3515L73.6594 24.646L60.4522 32.5422Z" stroke="#50E6FF" stroke-width="0.6159" stroke-miterlimit="10" stroke-linejoin="round"/>
<path d="M16.0724 57.6545C16.0724 56.6991 15.323 55.9497 14.3676 55.9497C13.4122 55.9497 12.6628 56.6991 12.6628 57.6545C12.6628 58.6099 13.4122 59.3592 14.3676 59.3592C15.2574 59.3592 16.0724 58.6099 16.0724 57.6545Z" fill="#50E6FF"/>
<path d="M75.2988 24.777C75.2988 23.8216 74.5495 23.0723 73.5941 23.0723C72.5731 23.0723 71.8237 23.8216 71.8237 24.777C71.8237 25.7324 72.5731 26.4818 73.5285 26.4818C74.4839 26.5473 75.2988 25.7324 75.2988 24.777Z" fill="#50E6FF"/>
<path d="M62.1571 32.6076C62.1571 31.6522 61.4077 30.9028 60.4523 30.9028C59.4969 30.9028 58.7476 31.6522 58.7476 32.6076C58.7476 33.563 59.4969 34.3123 60.4523 34.3123C61.4077 34.3779 62.1571 33.563 62.1571 32.6076Z" fill="#50E6FF"/>
<path d="M22.7415 68.4169C22.7415 67.4615 21.9922 66.7122 21.0368 66.7122C20.0814 66.7122 19.332 67.4615 19.332 68.4169C19.332 69.3723 20.0814 70.1217 21.0368 70.1217C21.9922 70.1872 22.7415 69.363 22.7415 68.4169Z" fill="#50E6FF"/>
<path d="M88.712 47.7162C88.712 46.7608 87.9627 46.0115 87.0072 46.0115C86.0518 46.0115 85.3025 46.7608 85.3025 47.7162C85.3025 48.6716 86.0518 49.421 87.0072 49.421C87.9627 49.421 88.712 48.6716 88.712 47.7162Z" fill="#50E6FF"/>
<path d="M75.3643 55.4159C75.3643 54.4605 74.615 53.7112 73.6596 53.7112C72.7042 53.7112 71.9548 54.4605 71.9548 55.4159C71.9548 56.3714 72.7042 57.1207 73.6596 57.1207C74.5494 57.1769 75.3643 56.362 75.3643 55.4159Z" fill="#50E6FF"/>
<path d="M62.1571 47.8569C62.1571 46.9014 61.4077 46.1521 60.4523 46.1521C59.4969 46.1521 58.7476 46.9014 58.7476 47.8569C58.7476 48.8123 59.4969 49.5616 60.4523 49.5616C61.3422 49.6272 62.1571 48.8123 62.1571 47.8569Z" fill="#50E6FF"/>
<path d="M92.3836 44.6535C92.3836 43.6981 91.6343 42.9487 90.6789 42.9487C89.7235 42.9487 88.9741 43.6981 88.9741 44.6535C88.9741 45.6089 89.7235 46.3582 90.6789 46.3582C91.6343 46.3582 92.3836 45.6089 92.3836 44.6535Z" fill="#50E6FF"/>
<g opacity="0.15">
<path opacity="0.15" d="M37.3535 28.6829H26.3101C25.6356 28.6829 25.083 29.2355 25.083 29.9099V36.6727C25.083 37.3472 25.6356 37.8998 26.3101 37.8998H37.3629C38.0373 37.8998 38.5899 37.3472 38.5899 36.6727V29.9099C38.5806 29.2261 38.0373 28.6829 37.3535 28.6829Z" fill="#1F1D20"/>
<path opacity="0.15" d="M37.3535 51.2007H26.3101C25.6356 51.2007 25.083 51.7533 25.083 52.4277V59.1906C25.083 59.865 25.6356 60.4176 26.3101 60.4176H37.3629C38.0373 60.4176 38.5899 59.865 38.5899 59.1906V52.4277C38.5806 51.744 38.0373 51.2007 37.3535 51.2007Z" fill="#1F1D20"/>
<path opacity="0.15" d="M37.3535 39.9136H26.3101C25.6356 39.9136 25.083 40.4662 25.083 41.1406V47.9035C25.083 48.5779 25.6356 49.1305 26.3101 49.1305H37.3629C38.0373 49.1305 38.5899 48.5779 38.5899 47.9035V41.1406C38.5806 40.4662 38.0373 39.9136 37.3535 39.9136Z" fill="#1F1D20"/>
<path opacity="0.15" d="M37.3535 62.4314H26.3101C25.6356 62.4314 25.083 62.984 25.083 63.6584V70.4213C25.083 71.0957 25.6356 71.6483 26.3101 71.6483H37.3629C38.0373 71.6483 38.5899 71.0957 38.5899 70.4213V63.6584C38.5806 62.984 38.0373 62.4314 37.3535 62.4314Z" fill="#1F1D20"/>
</g>
<path d="M37.3535 27.7463H26.3101C25.6356 27.7463 25.083 28.299 25.083 28.9734V35.7362C25.083 36.4106 25.6356 36.9633 26.3101 36.9633H37.3629C38.0373 36.9633 38.5899 36.4106 38.5899 35.7362V28.9734C38.5806 28.2896 38.0373 27.7463 37.3535 27.7463Z" fill="#0078D4"/>
<path d="M37.3535 50.2642H26.3101C25.6356 50.2642 25.083 50.8168 25.083 51.4912V58.254C25.083 58.9285 25.6356 59.4811 26.3101 59.4811H37.3629C38.0373 59.4811 38.5899 58.9285 38.5899 58.254V51.4912C38.5806 50.8074 38.0373 50.2642 37.3535 50.2642Z" fill="#50E6FF"/>
<path d="M37.3535 38.9771H26.3101C25.6356 38.9771 25.083 39.5297 25.083 40.2041V46.9669C25.083 47.6413 25.6356 48.194 26.3101 48.194H37.3629C38.0373 48.194 38.5899 47.6413 38.5899 46.9669V40.2041C38.5806 39.5297 38.0373 38.9771 37.3535 38.9771Z" fill="#3BCAF4"/>
<path d="M37.3535 61.4949H26.3101C25.6356 61.4949 25.083 62.0475 25.083 62.7219V69.4848C25.083 70.1592 25.6356 70.7118 26.3101 70.7118H37.3629C38.0373 70.7118 38.5899 70.1592 38.5899 69.4848V62.7219C38.5806 62.0475 38.0373 61.4949 37.3535 61.4949Z" fill="#50E6FF"/>
<path opacity="0.15" d="M70.5497 64.9699C76.4508 67.7424 76.4508 72.2666 70.6996 75.1703C64.9577 77.9429 55.441 77.9429 49.6898 75.1797C43.948 72.3977 43.7887 67.7518 49.5399 64.9699C55.2818 62.2067 64.7985 62.2067 70.5497 64.9699Z" fill="#1F1D20"/>
<path d="M75.6543 64.4641V67.3585C75.6543 69.6065 74.0526 71.8545 71.1583 73.7934C65.0511 77.3341 55.0755 77.3341 48.9683 73.8028C45.7555 71.8733 44.4629 69.6252 44.4629 67.3772V64.4828C44.4629 66.7309 46.074 69.3067 48.9683 70.9178C55.0848 74.4585 65.0511 74.4491 71.1583 70.9085C74.0526 69.288 75.6543 67.04 75.6543 64.4641Z" fill="#E6E6E6"/>
<path d="M71.7204 42.0776C68.5357 43.8573 64.4518 44.7472 60.3678 44.8783C56.031 44.8783 51.8253 43.9885 48.65 42.0776C45.3341 40.1668 43.8073 37.7408 43.8073 37.8719L43.6855 66.1784C43.6855 67.3305 44.1914 68.3515 44.8377 69.1102C45.5964 69.8689 46.8796 71.0211 48.5282 71.9109C51.844 73.8217 56.0497 74.7116 60.3772 74.7116C64.4611 74.7116 68.6668 73.8217 71.5986 71.9109C74.7833 70.1312 76.3101 67.5741 76.3101 65.2886L76.4319 36.6074C76.5724 39.0147 74.9145 40.2886 71.7204 42.0776Z" fill="url(#paint1_linear)"/>
<path d="M71.7204 30.088C78.0992 33.7785 78.0992 39.7733 71.8516 43.4732C65.4821 47.1731 55.0288 47.1824 48.65 43.4825C42.2712 39.792 42.2712 33.7973 48.5188 30.0974C54.8976 26.3975 65.351 26.3975 71.7204 30.088Z" fill="white"/>
<path d="M68.9197 31.6242C73.8935 34.4249 73.8935 39.024 69.0508 41.9558C64.2082 44.7564 56.1808 44.7564 51.3288 41.9651C46.4862 39.1457 46.3551 34.4436 51.2071 31.6242C56.0497 28.8235 64.077 28.8235 68.9197 31.6242Z" fill="#9CEBFF"/>
<path d="M51.1978 33.4039C56.0404 30.6033 64.0677 30.6033 68.9198 33.3946C70.9617 34.6778 72.245 36.0641 72.4885 37.7314C72.9943 35.4272 71.8609 33.2634 68.9198 31.6149C64.0677 28.8142 56.0404 28.8236 51.1978 31.6242C48.3971 33.151 47.245 35.4459 47.7508 37.619C48.1442 36.0922 49.1558 34.556 51.1978 33.4039Z" fill="#50E6FF"/>
<path d="M67.9738 53.4021L67.9551 61.0548C67.9551 61.0548 69.0978 60.8206 70.0345 60.4272C70.9712 60.0619 71.2616 59.8184 71.2616 59.8184V61.6449C71.2616 61.6449 70.4092 62.1132 68.9948 62.5816C67.5804 63.0499 66.1473 63.2466 66.1473 63.2466V53.9641C66.0817 53.8704 67.1027 53.6925 67.9738 53.4021Z" fill="white"/>
<path d="M55.2911 54.0108V56.006C55.2911 56.006 53.6987 54.5916 52.9306 54.6665C52.1719 54.7695 52.0595 55.4252 52.3593 56.006C52.6496 56.5773 54.1671 57.7107 54.7197 58.2821C55.3754 58.9378 55.7126 60.296 55.5253 61.064C55.1225 62.2911 54.5511 62.8906 53.4271 62.7875C52.3031 62.6002 51.9565 62.4503 50.9917 61.8696C50.055 61.2982 49.8771 60.8299 49.8771 60.8299V59.0221C49.8771 59.0221 50.5327 59.6777 51.4039 60.2491C52.1626 60.7175 52.9962 61.0078 53.296 60.2491C53.5863 59.6777 52.8276 58.8347 52.0689 58.357C51.4975 57.9917 50.7294 57.3079 50.2611 56.4649C49.7928 55.5938 49.6054 54.5728 50.0738 53.6362C50.5421 52.6995 51.6006 52.5121 52.9025 52.8774C54.2514 53.2521 55.2911 54.0108 55.2911 54.0108Z" fill="white"/>
<path d="M63.8804 62.235C64.6391 61.0079 65.0418 59.5935 64.6391 57.5235C64.2738 55.4253 62.8313 54.3013 60.2929 54.3013C59.5342 54.3013 57.3611 54.8726 56.8927 56.6617C56.4244 58.5538 56.4244 60.6426 57.258 61.954C58.1947 63.4807 59.3562 63.5463 60.0868 63.6587C60.1898 63.6587 60.2741 63.6587 60.2741 63.6587L61.8665 65.6538C61.8665 65.6538 62.3536 65.6913 62.9343 65.6913C63.59 65.6913 64.1052 65.5414 64.1052 65.5414L62.2131 63.4152C62.8219 63.1435 63.3371 62.9749 63.8804 62.235ZM58.5132 59.3031C58.4101 57.027 59.2719 56.2683 60.5083 56.184C61.164 56.184 62.4004 56.287 62.6065 58.4601C62.7938 60.6332 61.9508 61.495 61.6698 61.6823C61.3794 61.8696 60.7987 61.9727 60.4427 61.9727C60.0025 61.9446 58.5881 61.5886 58.5132 59.3031Z" fill="white"/>
<defs>
<linearGradient id="paint0_linear" x1="53.5301" y1="-13.1893" x2="49.5473" y2="132.579" gradientUnits="userSpaceOnUse">
<stop stop-color="#00ABDE"/>
<stop offset="1" stop-color="#007ED8"/>
</linearGradient>
<linearGradient id="paint1_linear" x1="41.8453" y1="28.0832" x2="67.8473" y2="62.3719" gradientUnits="userSpaceOnUse">
<stop stop-color="#005BA1"/>
<stop offset="0.07" stop-color="#0060A9"/>
<stop offset="0.36" stop-color="#0071C8"/>
<stop offset="0.52" stop-color="#0078D4"/>
<stop offset="0.64" stop-color="#0074CD"/>
<stop offset="0.82" stop-color="#006ABB"/>
<stop offset="1" stop-color="#005BA1"/>
</linearGradient>
</defs>
</svg>
