<svg width="103" height="103" viewBox="0 0 103 103" fill="none" xmlns="http://www.w3.org/2000/svg">
<path d="M51.7598 97.8342C77.6122 97.8342 98.5657 76.8807 98.5657 51.0283C98.5657 25.176 77.6122 4.22241 51.7598 4.22241C25.9074 4.22241 4.95386 25.176 4.95386 51.0283C4.95386 76.8807 25.9074 97.8342 51.7598 97.8342Z" fill="url(#paint0_linear)"/>
<path fill-rule="evenodd" clip-rule="evenodd" d="M51.7598 1.02832C24.1464 1.02832 1.75977 23.415 1.75977 51.0283C1.75977 78.6417 24.1464 101.028 51.7598 101.028C79.3731 101.028 101.76 78.6417 101.76 51.0283C101.76 23.415 79.3731 1.02832 51.7598 1.02832ZM51.7598 96.7852C26.4881 96.7852 6.00293 76.3 6.00293 51.0283C6.00293 25.7567 26.4881 5.27148 51.7598 5.27148C77.0314 5.27148 97.5166 25.7567 97.5166 51.0283C97.5166 76.3 77.0314 96.7852 51.7598 96.7852Z" fill="#D9D9D9"/>
<path fill-rule="evenodd" clip-rule="evenodd" d="M5.86244 51.0283C5.86244 76.3749 26.4132 96.9257 51.7598 96.9257C77.1064 96.9257 97.6571 76.3749 97.6571 51.0283C97.6571 25.6818 77.1064 5.131 51.7598 5.131C26.4132 5.131 5.86244 25.6818 5.86244 51.0283ZM51.7598 1.38428C24.3431 1.38428 2.11572 23.6117 2.11572 51.0283C2.11572 78.445 24.3431 100.672 51.7598 100.672C79.1764 100.672 101.404 78.445 101.404 51.0283C101.404 23.6117 79.1764 1.38428 51.7598 1.38428Z" fill="#F2F1F0"/>
<path fill-rule="evenodd" clip-rule="evenodd" d="M8.6725 51.0284C8.6725 74.8294 27.9588 94.1157 51.7598 94.1157C75.5608 94.1157 94.8471 74.8294 94.8471 51.0284C94.8471 27.2273 75.5608 7.94106 51.7598 7.94106C27.9588 7.94106 8.6725 27.2273 8.6725 51.0284ZM51.7598 4.19434C25.8981 4.19434 4.92578 25.1666 4.92578 51.0284C4.92578 76.8901 25.8981 97.8624 51.7598 97.8624C77.6215 97.8624 98.5938 76.8901 98.5938 51.0284C98.5938 25.1666 77.6309 4.19434 51.7598 4.19434Z" fill="#0078D4"/>
<path opacity="0.15" d="M77.5468 65.4437C84.3658 68.6471 84.3658 73.8832 77.7248 77.2365C71.0837 80.4399 60.0777 80.4399 53.4366 77.2458C46.7956 74.033 46.6176 68.6565 53.2587 65.4437C59.8997 62.2496 70.9057 62.2496 77.5468 65.4437Z" fill="#1F1D20"/>
<path d="M83.4572 64.8538V68.1977C83.4572 70.8017 81.6026 73.3963 78.2586 75.635C71.1961 79.7282 59.6655 79.7282 52.603 75.6443C48.8843 73.415 47.395 70.8111 47.395 68.2164V64.8725C47.395 67.4765 49.259 70.4457 52.603 72.3097C59.6749 76.403 71.1961 76.3937 78.2586 72.3004C81.6026 70.4364 83.4572 67.8324 83.4572 64.8538Z" fill="#E6E6E6"/>
<path d="M78.9048 38.9731C75.2237 41.0338 70.5028 42.0641 65.7819 42.214C60.7707 42.214 55.9 41.1836 52.2282 38.9731C48.3972 36.7625 46.6268 33.9618 46.6268 34.1117L46.4863 66.8393C46.4863 68.1694 47.0764 69.3496 47.8164 70.2301C48.6969 71.1106 50.1768 72.4407 52.0877 73.471C55.9187 75.6816 60.7894 76.7119 65.7913 76.7119C70.5122 76.7119 75.3736 75.6816 78.7643 73.471C82.4455 71.4103 84.2158 68.4598 84.2158 65.809L84.3563 32.6411C84.5156 35.4324 82.5954 36.903 78.9048 38.9731Z" fill="url(#paint1_linear)"/>
<path d="M78.905 25.1103C86.2766 29.3816 86.2766 36.3036 79.0548 40.5843C71.6925 44.8649 59.6 44.8743 52.2283 40.5936C44.8566 36.3317 44.8566 29.4003 52.0784 25.1197C59.4501 20.8484 71.5426 20.8484 78.905 25.1103Z" fill="white"/>
<path d="M75.6639 26.8899C81.4151 30.1308 81.4151 35.4418 75.8137 38.8326C70.2124 42.0735 60.9299 42.0735 55.3192 38.842C49.7178 35.5823 49.568 30.1402 55.1787 26.8899C60.78 23.649 70.0625 23.649 75.6639 26.8899Z" fill="#9CEBFF"/>
<path d="M55.1787 28.9507C60.7801 25.7097 70.0626 25.7097 75.6733 28.9413C78.0337 30.4212 79.5137 32.0323 79.7947 33.9525C80.3848 31.2924 79.0641 28.7914 75.6733 26.8806C70.0626 23.6397 60.7801 23.649 55.1787 26.89C51.9378 28.6603 50.6077 31.3111 51.1978 33.8214C51.6474 32.0511 52.8183 30.2807 55.1787 28.9507Z" fill="#50E6FF"/>
<path d="M74.568 52.0679L74.5493 60.9195C74.5493 60.9195 75.87 60.6479 76.9565 60.1983C78.0431 59.7767 78.3803 59.4957 78.3803 59.4957V61.6126C78.3803 61.6126 77.3968 62.1559 75.7576 62.6992C74.1184 63.2425 72.4698 63.4673 72.4698 63.4673V52.7329C72.3855 52.6111 73.5658 52.4051 74.568 52.0679Z" fill="white"/>
<path d="M59.909 52.7704V55.0746C59.909 55.0746 58.0638 53.4354 57.1833 53.5291C56.3028 53.6509 56.1811 54.4096 56.5183 55.0746C56.8555 55.7397 58.6071 57.0417 59.244 57.7067C60.0027 58.4654 60.3961 60.039 60.1807 60.9195C59.7123 62.3433 59.0567 63.0364 57.7547 62.9146C56.4527 62.6992 56.0499 62.5212 54.9353 61.8562C53.8487 61.1912 53.6426 60.6572 53.6426 60.6572V58.5684C53.6426 58.5684 54.4014 59.3272 55.4036 59.9922C56.2841 60.5355 57.2489 60.8727 57.5861 59.9922C57.9233 59.3272 57.0428 58.353 56.1623 57.8097C55.4973 57.3882 54.6168 56.6014 54.0735 55.6273C53.5302 54.625 53.3148 53.4448 53.8581 52.3583C54.4014 51.2717 55.619 51.0563 57.1271 51.4778C58.7007 51.8899 59.909 52.7704 59.909 52.7704Z" fill="white"/>
<path d="M69.8379 62.2779C70.7184 60.8541 71.1774 59.2243 70.7184 56.8264C70.2969 54.4004 68.6296 53.0984 65.6884 53.0984C64.808 53.0984 62.2977 53.7634 61.7544 55.8241C61.2111 58.0066 61.2111 60.4232 62.1759 61.9407C63.2624 63.7016 64.6019 63.7859 65.4449 63.9077C65.5667 63.9077 65.6603 63.9077 65.6603 63.9077L67.5056 66.2119C67.5056 66.2119 68.0676 66.2587 68.742 66.2587C69.5007 66.2587 70.1002 66.0901 70.1002 66.0901L67.9084 63.636C68.6109 63.3363 69.2104 63.1396 69.8379 62.2779ZM63.6371 58.8871C63.5153 56.255 64.5176 55.3745 65.9413 55.2809C66.7001 55.2809 68.1238 55.4026 68.3674 57.9129C68.5828 60.4232 67.6086 61.4255 67.2808 61.6409C66.9436 61.8563 66.2786 61.9781 65.857 61.9781C65.3606 61.95 63.7214 61.5285 63.6371 58.8871Z" fill="white"/>
<path fill-rule="evenodd" clip-rule="evenodd" d="M30.3378 54.3162C24.9612 54.3162 20.5869 58.6905 20.5869 64.067C20.5869 69.4436 24.9612 73.8178 30.3378 73.8178C35.7143 73.8178 40.0886 69.4436 40.0886 64.067C40.0886 58.6905 35.7143 54.3162 30.3378 54.3162Z" fill="#E1E4E1"/>
<path fill-rule="evenodd" clip-rule="evenodd" d="M30.3379 75.2135C32.4174 75.2135 34.375 74.6421 36.0423 73.6399L33.8318 69.8932C33.6351 69.5653 33.1667 69.2937 32.7827 69.2937H27.556C27.172 69.2937 26.713 69.5653 26.5256 69.9025L24.5305 73.565C26.2165 74.6141 28.2023 75.2135 30.3379 75.2135Z" fill="#546670"/>
<path fill-rule="evenodd" clip-rule="evenodd" d="M38.693 64.067C38.693 66.3713 37.7563 68.46 36.2389 69.9775L34.0283 67.7669C34.9744 66.8209 35.5645 65.5189 35.5645 64.0764C35.5645 62.6339 34.9837 61.3319 34.0283 60.3859L36.2389 58.1753C37.7563 59.674 38.693 61.7628 38.693 64.067Z" fill="#DF5142"/>
<path fill-rule="evenodd" clip-rule="evenodd" d="M36.2389 58.1565L34.0284 60.3671C33.0823 59.421 31.7803 58.8309 30.3379 58.8309C28.8954 58.8309 27.5934 59.4116 26.6473 60.3671L24.4368 58.1565C25.9448 56.6391 28.0336 55.7024 30.3472 55.7024C32.6421 55.7118 34.7309 56.6484 36.2389 58.1565Z" fill="#F7CB64"/>
<path fill-rule="evenodd" clip-rule="evenodd" d="M25.1112 64.0668C25.1112 65.5093 25.6919 66.8113 26.6473 67.7573L24.4368 69.9679C22.9193 68.4598 21.9827 66.371 21.9827 64.0574C21.9827 61.7532 22.9193 59.6644 24.4368 58.147L26.6473 60.3575C25.6919 61.3223 25.1112 62.6243 25.1112 64.0668Z" fill="#7CB65A"/>
<path fill-rule="evenodd" clip-rule="evenodd" d="M30.3379 73.8177C24.9614 73.8177 20.5871 69.4435 20.5871 64.0669C20.5871 58.6904 24.9614 54.3161 30.3379 54.3161C35.7144 54.3161 40.0887 58.6904 40.0887 64.0669C40.0887 69.4435 35.7144 73.8177 30.3379 73.8177ZM30.3379 52.9204C24.1933 52.9204 19.1914 57.9223 19.1914 64.0669C19.1914 70.2115 24.1933 75.2134 30.3379 75.2134C36.4825 75.2134 41.4844 70.2115 41.4844 64.0669C41.475 57.9223 36.4825 52.9204 30.3379 52.9204Z" fill="#546670"/>
<path fill-rule="evenodd" clip-rule="evenodd" d="M30.0569 62.3246C29.1108 62.4744 28.4645 63.3736 28.6144 64.3197C28.7642 65.2657 29.6634 65.9121 30.6095 65.7622C31.5555 65.6123 32.2019 64.7131 32.052 63.7671C31.8927 62.821 31.0029 62.1747 30.0569 62.3246Z" fill="#546670"/>
<path fill-rule="evenodd" clip-rule="evenodd" d="M28.605 64.3197C28.502 63.6641 28.783 63.0458 29.27 62.6712C27.2749 62.3902 24.0996 61.978 24.034 62.2309C23.9684 62.5026 27.022 63.9357 28.708 64.7038C28.6706 64.582 28.6331 64.4509 28.605 64.3197Z" fill="#182A37"/>
<path fill-rule="evenodd" clip-rule="evenodd" d="M30.3099 63.3739C29.9258 63.3832 29.6261 63.7111 29.6355 64.0951C29.6448 64.4792 29.9727 64.7789 30.3567 64.7695C30.7408 64.7508 31.0405 64.4323 31.0311 64.0483C31.0124 63.6549 30.6939 63.3551 30.3099 63.3739Z" fill="#182A37"/>
<path fill-rule="evenodd" clip-rule="evenodd" d="M30.6002 24.8013C24.5493 24.8013 19.6223 29.6626 19.6223 35.6293C19.6223 41.5959 24.5493 46.4573 30.6002 46.4573C36.6512 46.4573 41.5687 41.5959 41.5687 35.6293C41.5687 29.6626 36.6512 24.8013 30.6002 24.8013Z" fill="#546670"/>
<path fill-rule="evenodd" clip-rule="evenodd" d="M39.3861 35.6292C39.3861 35.6199 39.3861 35.6105 39.3861 35.6105C39.3767 33.3999 38.5243 31.1894 36.8196 29.5033C35.1148 27.8173 32.8762 26.9743 30.6281 26.9649C30.6188 26.9649 30.6094 26.9556 30.6 26.9556C30.5907 26.9556 30.5813 26.9556 30.5719 26.9649C28.3333 26.9743 26.0852 27.8173 24.3805 29.5033C22.6757 31.1894 21.814 33.3999 21.814 35.6105C21.814 35.6199 21.814 35.6292 21.814 35.6292C21.814 35.6386 21.814 35.648 21.814 35.648C21.8233 37.8585 22.6757 40.0691 24.3805 41.7551C24.446 41.8207 24.5397 41.8582 24.6334 41.8582C24.727 41.8582 24.8113 41.8207 24.8863 41.7551L25.8792 40.7716C26.0197 40.6405 26.0197 40.4157 25.8792 40.2845C25.7387 40.1534 25.5232 40.1534 25.3827 40.2845L24.6521 41.0058C23.322 39.5727 22.6195 37.7836 22.5446 35.9664H23.5749C23.7716 35.9664 23.9309 35.8072 23.9309 35.6199C23.9309 35.4325 23.7716 35.2733 23.5749 35.2733H22.5446C22.6195 33.4561 23.3314 31.6671 24.6521 30.2339L25.3827 30.9552C25.4483 31.0208 25.542 31.0582 25.6356 31.0582C25.7293 31.0582 25.8136 31.0208 25.8885 30.9552C26.029 30.8241 26.029 30.5993 25.8885 30.4681L25.1579 29.7469C26.6098 28.4355 28.4176 27.7424 30.2628 27.6674V28.6884C30.2628 28.8758 30.4221 29.035 30.6188 29.035C30.8155 29.035 30.9747 28.8758 30.9747 28.6884V27.6674C32.82 27.7424 34.6278 28.4355 36.0796 29.7469L35.349 30.4681C35.2085 30.5993 35.2085 30.8241 35.349 30.9552C35.4146 31.0208 35.5082 31.0582 35.6019 31.0582C35.6956 31.0582 35.7799 31.0208 35.8548 30.9552L36.5854 30.2339C37.9155 31.6671 38.618 33.4561 38.6929 35.2733H37.6626C37.4659 35.2733 37.3067 35.4325 37.3067 35.6199C37.3067 35.8072 37.4659 35.9664 37.6626 35.9664H38.6929C38.618 37.7836 37.9061 39.5727 36.5854 41.0058L35.8548 40.2845C35.7143 40.1534 35.4989 40.1534 35.3584 40.2845C35.2179 40.4157 35.2179 40.6405 35.3584 40.7716L36.3512 41.7551C36.4168 41.8207 36.5105 41.8582 36.6041 41.8582C36.6978 41.8582 36.7821 41.8207 36.8571 41.7551C38.5618 40.0691 39.4236 37.8585 39.4236 35.648C39.3767 35.648 39.3861 35.6386 39.3861 35.6292Z" fill="#E1E4E1"/>
<path fill-rule="evenodd" clip-rule="evenodd" d="M30.5999 46.7289C32.6981 46.7289 34.6745 46.1575 36.3512 45.1646L34.1219 41.4366C33.9252 41.1088 33.4475 40.8372 33.0634 40.8372H27.7899C27.4059 40.8372 26.9375 41.1088 26.7502 41.446L24.7363 45.0991C26.4411 46.1294 28.4456 46.7289 30.5999 46.7289Z" fill="#212A31"/>
<path fill-rule="evenodd" clip-rule="evenodd" d="M30.9466 28.6977V27.6767C32.7918 27.7517 34.5996 28.4448 36.0515 29.7562L35.3209 30.4774C35.1804 30.6085 35.1804 30.8333 35.3209 30.9645C35.3864 31.03 35.4801 31.0675 35.5738 31.0675C35.6674 31.0675 35.7517 31.03 35.8267 30.9645L36.5573 30.2432C37.8874 31.6763 38.5899 33.4654 38.6648 35.2826H37.6345C37.4378 35.2826 37.2785 35.4418 37.2785 35.6291C37.2785 35.8165 37.4378 35.9757 37.6345 35.9757H38.6648C38.5899 37.7929 37.878 39.5819 36.5573 41.015L35.8267 40.2938C35.6862 40.1627 35.4707 40.1627 35.3302 40.2938C35.1897 40.4249 35.1897 40.6497 35.3302 40.7809L36.3231 41.7644C36.3887 41.83 36.4824 41.8674 36.576 41.8674C36.6697 41.8674 36.754 41.83 36.8289 41.7644C38.5337 40.0784 39.3954 37.8678 39.3954 35.6572C39.3954 35.6479 39.3954 35.6385 39.3954 35.6385C39.3954 35.6291 39.3954 35.6198 39.3954 35.6198C39.3861 33.4092 38.5337 31.1986 36.8289 29.5126C35.1242 27.8266 32.8855 26.9836 30.6375 26.9742C30.6281 26.9742 30.6187 26.9648 30.6094 26.9648V29.0443C30.7967 29.0443 30.9466 28.885 30.9466 28.6977Z" fill="#C5CCCD"/>
<path fill-rule="evenodd" clip-rule="evenodd" d="M30.6001 45.3426C25.1767 45.3426 20.7556 40.987 20.7556 35.6292C20.7556 30.2714 25.1767 25.9158 30.6001 25.9158C36.0235 25.9158 40.4446 30.2714 40.4446 35.6292C40.4446 40.987 36.0235 45.3426 30.6001 45.3426ZM30.6001 24.5295C24.3993 24.5295 19.3506 29.5033 19.3506 35.6292C19.3506 41.7457 24.3993 46.7289 30.6001 46.7289C36.8009 46.7289 41.8496 41.7457 41.8496 35.6292C41.8496 29.5127 36.8009 24.5295 30.6001 24.5295Z" fill="#212A31"/>
<path fill-rule="evenodd" clip-rule="evenodd" d="M32.333 35.3483C32.3517 35.442 32.3611 35.5356 32.3611 35.6293C32.3611 35.7323 32.3517 35.8354 32.333 35.9384C32.3236 35.9665 32.3236 35.9946 32.3142 36.0321C32.2955 36.107 32.2768 36.1726 32.2487 36.2475C32.2393 36.285 32.2206 36.3131 32.2112 36.3506C32.1831 36.4255 32.1456 36.4911 32.0988 36.5566C32.0707 36.6035 32.0332 36.6503 31.9958 36.6971C31.977 36.7159 31.9583 36.7346 31.9489 36.7627C31.8084 36.9313 31.6398 37.0624 31.4431 37.1655C33.382 37.7556 36.4825 38.6642 36.5855 38.4206C36.6979 38.1677 33.8785 36.2756 32.3236 35.2546C32.3236 35.2827 32.333 35.3108 32.333 35.3483Z" fill="#DF5142"/>
<path fill-rule="evenodd" clip-rule="evenodd" d="M30.6093 37.3715C31.5741 37.3715 32.3703 36.594 32.3703 35.6386C32.3703 34.6832 31.5835 33.9058 30.6093 33.9058C29.6352 33.9058 28.8484 34.6832 28.8484 35.6386C28.8484 36.594 29.6352 37.3715 30.6093 37.3715Z" fill="#C5CCCD"/>
<path fill-rule="evenodd" clip-rule="evenodd" d="M30.6 34.936C30.2159 34.936 29.8975 35.2451 29.8975 35.6292C29.8975 36.0132 30.2159 36.3223 30.6 36.3223C30.984 36.3223 31.3025 36.0132 31.3025 35.6292C31.3025 35.2451 30.984 34.936 30.6 34.936Z" fill="#546670"/>
<defs>
<linearGradient id="paint0_linear" x1="53.5301" y1="-13.7645" x2="49.5473" y2="132.004" gradientUnits="userSpaceOnUse">
<stop stop-color="#00ABDE"/>
<stop offset="1" stop-color="#007ED8"/>
</linearGradient>
<linearGradient id="paint1_linear" x1="44.3581" y1="22.7962" x2="74.4227" y2="62.4425" gradientUnits="userSpaceOnUse">
<stop stop-color="#005BA1"/>
<stop offset="0.07" stop-color="#0060A9"/>
<stop offset="0.36" stop-color="#0071C8"/>
<stop offset="0.52" stop-color="#0078D4"/>
<stop offset="0.64" stop-color="#0074CD"/>
<stop offset="0.82" stop-color="#006ABB"/>
<stop offset="1" stop-color="#005BA1"/>
</linearGradient>
</defs>
</svg>
