<svg width="160" height="189" viewBox="0 0 160 189" fill="none" xmlns="http://www.w3.org/2000/svg">
<g clip-path="url(#clip0_435_287)">
<path d="M79.6779 188.997C82.7592 188.991 85.7796 188.138 88.4083 186.531L150.384 148.871C153.165 147.107 155.449 144.662 157.019 141.768C158.589 138.873 159.394 135.625 159.356 132.333V57.6178C159.392 54.3254 158.587 51.0783 157.017 48.1841C155.447 45.29 153.163 42.8447 150.384 41.08L88.4083 3.41987C85.7749 1.83468 82.7592 0.99707 79.6855 0.99707C76.6118 0.99707 73.5961 1.83468 70.9627 3.41987L8.9876 41.0951C6.2045 42.8574 3.91796 45.3018 2.34499 48.1962C0.772021 51.0906 -0.0351786 54.3389 4.1431e-06 57.6329V132.333C-0.0185283 135.116 0.556189 137.871 1.68588 140.415C2.81557 142.959 4.4743 145.233 6.5516 147.086V147.112L70.9627 186.546C73.5884 188.146 76.6032 188.993 79.6779 188.997V188.997ZM80.3257 7.94925C82.2776 7.94925 84.7548 9.16217 86.4646 10.2062L147.222 47.4005C150.974 49.6852 153.09 56.2813 153.09 61.0323L152.458 132.333C152.458 137.084 149.259 141.352 145.506 143.637L85.1104 180.018C81.6758 182.106 78.8854 182.106 75.4507 180.018L14.2427 143.546C10.4903 141.262 7.47191 137.069 7.47191 132.333V58.6851C7.50442 56.3199 8.11341 53.9984 9.24608 51.9218C10.3787 49.8452 12.0009 48.0763 13.9718 46.7685L74.548 10.2062C76.2577 9.16217 78.3739 7.94925 80.3257 7.94925Z" fill="#F2F1F0"/>
<path fill-rule="evenodd" clip-rule="evenodd" d="M87.5765 11.5299C85.2056 10.0564 82.4697 9.27545 79.6783 9.27545C76.8868 9.27545 74.1509 10.0564 71.7801 11.5299L15.6454 45.8613C13.1193 47.4729 11.047 49.7033 9.625 52.3408C8.203 54.9782 7.47851 57.9353 7.52026 60.9314V129.035C7.48034 132.03 8.20562 134.987 9.62745 137.624C11.0493 140.261 13.1206 142.492 15.6454 144.105L71.7801 178.436C74.1508 179.909 76.8867 180.691 79.6783 180.691C82.4698 180.691 85.2057 179.909 87.5765 178.436L143.711 144.105C146.236 142.492 148.307 140.261 149.729 137.624C151.151 134.987 151.877 132.03 151.837 129.035V60.9314C151.875 57.9359 151.149 54.98 149.727 52.3432C148.305 49.7063 146.234 47.4754 143.711 45.8613L87.5765 11.5299Z" fill="url(#paint0_linear_435_287)"/>
<path fill-rule="evenodd" clip-rule="evenodd" d="M79.6783 10.7514C81.3615 10.7514 83.2442 11.6171 85.311 12.8752L143.777 48.4176C145.668 49.631 147.218 51.3079 148.278 53.2889C149.339 55.27 149.875 57.4893 149.837 59.7361V130.215C149.875 132.461 149.339 134.681 148.278 136.662C147.218 138.642 145.668 140.319 143.777 141.533L85.312 177.075L85.311 177.076C83.6408 178.215 81.6958 178.886 79.6783 179.019C77.6609 178.886 75.7158 178.215 74.0456 177.076L74.0446 177.075L15.5823 141.535L15.5801 141.534C13.7918 140.57 12.2668 139.183 11.1383 137.494C10.1614 135.891 9.52031 133.676 9.52031 130.215V59.7361C9.48157 57.4894 10.018 55.2701 11.0785 53.2891C12.139 51.3081 13.6885 49.6311 15.5797 48.4177L74.0365 12.8806L74.0406 12.8782C76.1244 11.6252 77.9846 10.7514 79.6783 10.7514ZM87.3908 9.45839L145.855 44.9996C148.333 46.5697 150.368 48.7485 151.765 51.3282C153.162 53.9079 153.876 56.8026 153.837 59.7361V130.215C153.876 133.148 153.162 136.043 151.765 138.623C150.368 141.203 148.333 143.381 145.855 144.952L87.3898 180.493C85.0956 182.018 82.4302 182.891 79.6783 183.019C76.9264 182.891 74.261 182.018 71.9667 180.493H71.9658L13.502 144.951L13.4995 144.95C11.1642 143.657 9.18097 141.812 7.72281 139.576C6.12823 136.722 5.36521 133.479 5.52031 130.215V59.7361C5.48125 56.8025 6.19436 53.9078 7.59165 51.328C8.98894 48.7483 11.0238 46.5695 13.5022 44.9995L71.9667 9.45774L71.9749 9.45286C74.0655 8.19545 76.7734 6.7514 79.6783 6.7514C82.5645 6.7514 85.2816 8.17448 87.3908 9.45834V9.45839Z" fill="#0078D4"/>
<path opacity="0.2" d="M139.959 133.023L80.4091 167.63L20.4701 133.024L80.0201 98.4171L139.959 133.023Z" fill="#003067"/>
<path d="M140.532 121.543L79.81 156.831L18.698 121.548L79.42 86.2601L140.532 121.543Z" fill="#1B93EB"/>
<path d="M140.532 121.543L140.52 125.649L79.798 160.937L79.81 156.831L140.532 121.543Z" fill="#1F56A3"/>
<path d="M79.81 156.831L79.798 160.937L18.686 125.654L18.698 121.548L79.81 156.831Z" fill="#0078D4"/>
<path opacity="0.1" d="M78.737 113.701L78.8539 113.769L78.7336 113.699L78.737 113.701ZM131.51 121.296L124.711 125.247L118.238 129.009L111.765 132.77H111.766L105.612 136.347L98.8125 140.298L92.3397 144.059L85.8594 147.825L79.3865 151.587L53.311 136.532L53.6296 136.347L59.8237 139.923L65.9777 136.347L59.7834 132.77L53.6293 136.347L53.3109 136.532L26.9221 121.296L33.3949 117.535L33.7155 117.72L27.5614 121.296L33.7559 124.873L39.9101 121.296L33.3949 117.535L33.7212 117.345L39.8754 113.769L40.1959 113.954L34.0419 117.53L40.2362 121.107L46.3904 117.53L39.8754 113.769L40.194 113.584L46.3481 110.007L46.6686 110.193L40.5146 113.769L46.7091 117.345L52.8631 113.769L46.3481 110.007L46.6664 109.822L53.1471 106.056L52.8206 106.246L59.3012 102.48L59.6197 102.295L65.7738 98.7185L66.0945 98.9036L59.9403 102.48L66.1347 106.056L72.2887 102.48L72.5399 102.625L65.7739 98.7184L66.0925 98.5333L72.2465 94.9569L72.567 95.1421L66.413 98.7185L72.6075 102.295L78.7617 98.7184L72.2465 94.9569L72.5729 94.7673L79.0455 91.0058L105.113 106.056L131.51 121.296ZM98.9614 110.003L105.156 113.579L111.31 110.003L105.115 106.426L98.9614 110.003ZM73.1478 140.108L79.342 143.685L85.4962 140.108L79.3019 136.532L73.1478 140.108ZM78.9811 136.347L72.7868 132.77L66.6327 136.347L72.827 139.923L78.9811 136.347ZM85.8149 139.923L91.9687 136.347L90.8713 135.713L85.7743 132.77L79.6203 136.347L79.2998 136.162L85.4538 132.585L85.1388 132.403L79.2595 129.009L73.1055 132.585L79.2998 136.162L79.6203 136.347L85.8149 139.923ZM91.9264 128.824L85.7321 125.247L79.5781 128.824L85.7724 132.4L91.9264 128.824ZM92.2527 128.634L98.4069 125.058L85.3692 117.53L85.3691 117.53V117.53L78.737 113.701L78.7195 113.691L78.7335 113.699L72.5351 110.121L72.6597 110.193L66.5055 113.769L72.6999 117.345L78.8539 113.769L78.8568 113.771L79.1747 113.954L73.0205 117.53L79.2149 121.107L85.3689 117.53L85.6895 117.715L79.5355 121.292L85.7298 124.868L91.8838 121.292L92.1063 121.42L96.8306 124.148L92.2124 121.481L86.0584 125.058L92.2527 128.634ZM66.1791 113.959L60.0252 117.535L66.2194 121.111L72.3735 117.535L65.8508 113.769L59.6564 110.193L53.5024 113.769L59.6968 117.345L65.8508 113.769L66.1791 113.959ZM60.0676 125.058L66.2619 128.634L72.416 125.058L66.2216 121.481L60.0676 125.058ZM72.7346 124.873L78.8886 121.296L72.6943 117.72L66.5402 121.296L72.7346 124.873ZM79.1323 106.431L72.9783 110.007L79.1726 113.584L85.3267 110.007L85.4517 110.079L78.9608 106.332L79.1323 106.431ZM98.7254 124.872L104.88 121.296L98.6852 117.72L92.5312 121.296L98.7254 124.872ZM86.0084 117.53L92.2026 121.107L98.3568 117.53L92.1626 113.954L86.0084 117.53ZM91.8418 113.769L85.6474 110.192L79.4934 113.769L85.6878 117.345L91.8418 113.769ZM104.829 113.769L98.6351 110.192L92.4811 113.769L98.6753 117.345L104.829 113.769ZM98.3145 110.007L92.1201 106.431L85.9661 110.007L92.1604 113.584L98.3145 110.007ZM92.0166 106.371L85.6052 102.67L79.451 106.246L85.6453 109.822L91.7994 106.246L92.0166 106.371ZM92.5735 128.819L98.7678 132.396L104.922 128.819L102.031 127.15L100.256 126.125L100.596 126.321L99.0835 125.448L100.256 126.125L98.7275 125.243L92.5735 128.819ZM105.24 128.634L111.394 125.058L111.547 125.146L105.2 121.481L99.0461 125.058L105.24 128.634ZM111.713 124.872L117.867 121.296L111.673 117.72L105.519 121.296L111.713 124.872ZM111.547 117.647L105.158 113.958L99.004 117.535L105.198 121.111L111.352 117.535L111.547 117.647ZM104.795 106.241L98.6006 102.665L92.4464 106.241L98.6409 109.818L104.795 106.241ZM85.5624 95.1375L79.4086 98.7139L85.6028 102.29L91.7571 98.7138L92.0855 98.9035L85.9314 102.48L92.1257 106.056L98.2798 102.48L98.4842 102.598L98.2798 102.48L91.7571 98.7138L85.5624 95.1375ZM79.0878 98.5288L85.242 94.9524L79.0475 91.3761L72.8935 94.9524L79.0878 98.5288ZM72.9282 102.48L79.1223 106.056L85.2763 102.48L85.576 102.653L78.8117 98.7473L79.082 98.9035L72.9282 102.48ZM66.4555 106.241L72.6498 109.818L78.8039 106.241L72.6096 102.665L66.4555 106.241ZM65.8244 106.246L65.8188 106.243L66.1369 106.427L59.9828 110.003L66.177 113.579L72.3312 110.003L66.1369 106.427L65.8378 106.254L65.8244 106.246ZM53.4677 106.241L59.662 109.818L65.8162 106.241L65.8199 106.243L59.6218 102.665L53.4677 106.241ZM46.9872 110.007L53.1816 113.584L59.3356 110.007L53.1413 106.431L46.9872 110.007ZM53.1838 113.954L47.0296 117.53L53.2238 121.107L59.378 117.53L59.7067 117.72L53.5527 121.296L59.7469 124.873L65.9011 121.296L52.9192 113.801L53.1838 113.954ZM53.2339 121.482L47.0798 125.058L53.2741 128.634L59.4281 125.058L53.2339 121.482ZM40.5571 121.292L46.7513 124.868L52.9055 121.292L46.5507 117.623L46.7111 117.716L40.5571 121.292ZM40.2709 128.634L46.4249 125.058L40.2306 121.482L34.0765 125.058L40.2709 128.634ZM46.7936 132.4L52.9478 128.824L46.7536 125.248L40.5994 128.824L46.7936 132.4ZM59.4628 132.585L53.2685 129.009L47.1144 132.585L53.3088 136.162L59.4628 132.585ZM59.7892 132.396L65.9432 128.819L59.7488 125.243L53.5949 128.819L59.7892 132.396ZM66.3042 136.157L72.4582 132.581L66.2641 129.004L66.5825 128.819L72.7768 132.396L78.9308 128.819L78.9453 128.828L72.7367 125.243L73.055 125.058L79.2494 128.634L85.4034 125.058L79.2092 121.481L73.055 125.058L72.7367 125.243L66.5825 128.819L66.2638 129.004L60.1101 132.581L66.3042 136.157ZM66.3466 143.689L72.5006 140.113L66.3063 136.536L60.1523 140.113L66.3466 143.689ZM72.8616 147.451L79.0158 143.874L72.8212 140.298L66.6671 143.874H66.6674L72.8616 147.451ZM85.5307 147.636L79.3363 144.059L73.1823 147.636L79.3766 151.212L85.5307 147.636ZM92.0111 143.87L90.4717 142.981L85.8168 140.293L79.6627 143.87L85.8571 147.446L92.0111 143.87ZM98.4838 140.108L92.2895 136.532L86.1354 140.108L92.3297 143.684L98.4838 140.108ZM104.956 136.347L98.4416 132.585L92.247 129.009L86.093 132.585L92.2875 136.161L98.4416 132.585L98.7622 132.77L92.6082 136.347L98.8025 139.923L104.956 136.347ZM111.437 132.581L110.086 131.8L105.243 129.004L99.0885 132.581L105.283 136.157L111.437 132.581ZM117.91 128.819L111.715 125.243L105.561 128.819L111.756 132.395L117.91 128.819ZM124.382 125.058L118.188 121.481L112.034 125.058L118.228 128.634L124.382 125.058ZM130.863 121.292L124.348 117.53L117.833 113.769L111.638 110.192L105.484 113.769L111.679 117.345L117.833 113.769L118.153 113.954L111.999 117.53L118.194 121.106L124.348 117.53L124.668 117.715L118.514 121.292L124.709 124.868L130.863 121.292Z" fill="#1F56A3"/>
<path d="M68.3001 54.103L122.18 85.2108L122.063 126.56C122.061 127.206 121.597 127.471 121.027 127.141L69.2046 97.2216C68.9075 97.0273 68.6602 96.7659 68.4827 96.4585C68.3053 96.1511 68.2025 95.8063 68.1829 95.4519L68.3001 54.103Z" fill="#F2F2F2"/>
<path d="M71.1851 94.9011L71.2861 59.2901L119.175 86.9401L119.075 122.55L71.1851 94.9011Z" fill="white"/>
<path d="M122.063 126.56L122.18 85.2108L124.733 83.7275L124.616 125.077C124.628 125.202 124.607 125.329 124.554 125.444C124.502 125.559 124.42 125.657 124.316 125.73L121.764 127.213C121.867 127.141 121.949 127.042 122.002 126.927C122.055 126.812 122.076 126.685 122.063 126.56V126.56Z" fill="#E8E8E8"/>
<path d="M71.0974 46.5617C71.1871 46.5202 71.2864 46.5036 71.3848 46.5134C71.4832 46.5232 71.5772 46.5592 71.657 46.6175L123.957 76.8132C124.187 76.9619 124.378 77.1627 124.516 77.3993C124.653 77.6359 124.733 77.9016 124.749 78.1748L124.733 83.7275L122.18 85.2108L122.196 79.6581C122.181 79.3848 122.101 79.1191 121.964 78.8825C121.826 78.6459 121.635 78.4451 121.405 78.2964L69.1045 48.1008C69.0248 48.0424 68.9308 48.0065 68.8325 47.9967C68.7341 47.9868 68.6349 48.0035 68.5452 48.0449L71.0974 46.5617Z" fill="#1F56A3"/>
<path d="M121.405 78.2965C121.635 78.4451 121.826 78.6459 121.964 78.8825C122.101 79.1191 122.181 79.3848 122.196 79.6581L122.18 85.2108L68.3 54.103L68.3146 48.9576L68.3158 48.5502C68.3172 48.0543 68.6652 47.8472 69.1045 48.1008L121.405 78.2965Z" fill="#0078D4"/>
<path d="M73.3915 52.4561C73.7893 52.7137 74.1205 53.0618 74.3582 53.4719C74.5958 53.8819 74.7331 54.3424 74.7589 54.8156C74.7564 55.6924 74.1379 56.0361 73.3826 55.6C72.9836 55.3453 72.6518 54.9983 72.4151 54.5884C72.1785 54.1785 72.0439 53.7177 72.0228 53.2448C72.0253 52.3681 72.6439 52.0244 73.3915 52.4561Z" fill="#50E6FF"/>
<path d="M99.7011 93.1151L94.7908 90.2801L94.8069 84.6375C94.7857 84.2536 94.6745 83.8801 94.4823 83.5472C94.2901 83.2143 94.0222 82.9312 93.7003 82.721C93.0901 82.3689 92.5884 82.6547 92.5865 83.3557L92.5704 88.9982L87.6601 86.1632C87.05 85.8109 86.5484 86.0968 86.5465 86.7978C86.5662 87.182 86.6767 87.5561 86.869 87.8893C87.0614 88.2224 87.33 88.5052 87.6529 88.7144L92.5632 91.5494L92.5473 97.1919C92.5669 97.5777 92.6773 97.9534 92.8696 98.2885C93.0619 98.6235 93.3306 98.9084 93.6538 99.12C94.2638 99.4721 94.7656 99.1862 94.7675 98.4738L94.7835 92.8312V92.8313L99.694 95.6663C100.314 96.0242 100.806 95.7441 100.808 95.0317C100.788 94.6474 100.678 94.2733 100.485 93.9402C100.293 93.607 100.024 93.3242 99.7011 93.1151V93.1151Z" fill="#0078D4"/>
<path d="M55.7448 125.281L55.7413 126.543C55.7411 126.593 55.738 126.642 55.7321 126.691L55.7356 125.429C55.7416 125.38 55.7447 125.331 55.7448 125.281V125.281Z" fill="#212121"/>
<path d="M66.6562 126.239C65.8096 125.808 64.8731 125.582 63.9229 125.581C62.9728 125.58 62.0358 125.804 61.1883 126.233C60.8783 126.373 60.6107 126.592 60.4131 126.869C60.2154 127.145 60.0947 127.47 60.0632 127.808L60.0596 129.07C60.0911 128.731 60.2118 128.407 60.4095 128.131C60.6072 127.854 60.8748 127.635 61.1849 127.495C62.0324 127.066 62.9693 126.842 63.9194 126.843C64.8696 126.844 65.806 127.07 66.6526 127.501C66.9691 127.641 67.2424 127.863 67.4443 128.145C67.6462 128.426 67.7693 128.756 67.8008 129.101L67.8044 127.839C67.7727 127.494 67.6496 127.164 67.4478 126.883C67.2459 126.601 66.9726 126.379 66.6562 126.239V126.239Z" fill="#003067"/>
<path d="M63.8899 121.481C64.228 121.306 64.6028 121.215 64.9833 121.215C65.3637 121.215 65.7386 121.306 66.0767 121.48C66.203 121.537 66.312 121.625 66.3925 121.738C66.473 121.85 66.5221 121.981 66.5348 122.119L66.5386 120.857C66.5259 120.719 66.4768 120.588 66.3962 120.476C66.3157 120.363 66.2067 120.275 66.0805 120.219C65.7423 120.044 65.3673 119.953 64.9869 119.953C64.6064 119.953 64.2314 120.044 63.8933 120.219C63.7692 120.274 63.6622 120.362 63.583 120.473C63.5038 120.583 63.4553 120.713 63.4424 120.848L63.439 122.11C63.4518 121.975 63.5003 121.845 63.5795 121.735C63.6587 121.624 63.7658 121.536 63.8899 121.481V121.481Z" fill="#003067"/>
<path d="M52.9727 124.653C52.6337 124.481 52.2591 124.392 51.8792 124.392C51.4992 124.392 51.1246 124.481 50.7857 124.653C50.6616 124.708 50.5545 124.796 50.4753 124.906C50.3961 125.016 50.3476 125.146 50.3348 125.281L50.3312 126.543C50.344 126.408 50.3925 126.278 50.4718 126.168C50.551 126.057 50.658 125.97 50.7821 125.915C51.1211 125.743 51.4957 125.654 51.8757 125.654C52.2556 125.654 52.6303 125.743 52.9693 125.915C53.095 125.971 53.2034 126.06 53.2832 126.172C53.3631 126.284 53.4116 126.415 53.4236 126.552L53.427 125.291C53.415 125.153 53.3666 125.022 53.2867 124.91C53.2068 124.798 53.0984 124.709 52.9727 124.653V124.653Z" fill="#003067"/>
<path d="M78.1579 125.28C77.8189 125.109 77.4443 125.019 77.0643 125.019C76.6844 125.019 76.3098 125.109 75.9708 125.28C75.8468 125.336 75.7398 125.423 75.6605 125.534C75.5813 125.644 75.5328 125.773 75.52 125.909L75.5164 127.171C75.5292 127.035 75.5777 126.906 75.657 126.795C75.7362 126.685 75.8434 126.598 75.9674 126.542C76.3064 126.371 76.6809 126.281 77.0609 126.281C77.4408 126.281 77.8153 126.371 78.1543 126.542C78.2805 126.598 78.3896 126.686 78.4701 126.798C78.5507 126.91 78.5998 127.042 78.6124 127.179L78.616 125.917C78.6033 125.78 78.5542 125.649 78.4736 125.536C78.3931 125.424 78.2841 125.336 78.1579 125.28V125.28Z" fill="#003067"/>
<path d="M71.6296 132.899C71.2897 132.725 70.9136 132.634 70.5318 132.633C70.15 132.632 69.7734 132.721 69.4326 132.893C69.3094 132.949 69.2033 133.036 69.1249 133.146C69.0466 133.256 68.9988 133.385 68.9866 133.52L68.983 134.782C68.9952 134.647 69.0429 134.518 69.1213 134.408C69.1996 134.298 69.3058 134.21 69.429 134.155C69.7698 133.983 70.1464 133.893 70.5282 133.894C70.91 133.895 71.2862 133.987 71.626 134.161C71.7517 134.217 71.8601 134.305 71.9399 134.418C72.0198 134.53 72.0682 134.661 72.0801 134.798L72.0839 133.536C72.0719 133.399 72.0234 133.268 71.9435 133.156C71.8637 133.044 71.7553 132.955 71.6296 132.899V132.899Z" fill="#003067"/>
<path d="M59.5843 133.532C59.2453 133.36 58.8706 133.271 58.4907 133.271C58.1107 133.271 57.736 133.36 57.3971 133.532C57.2735 133.588 57.1671 133.676 57.0885 133.786C57.01 133.897 56.9622 134.026 56.9499 134.161L56.9462 135.423C56.9584 135.288 57.0063 135.159 57.0849 135.048C57.1635 134.938 57.2699 134.85 57.3935 134.794C57.7324 134.622 58.107 134.533 58.487 134.533C58.8669 134.533 59.2415 134.622 59.5805 134.794C59.7062 134.85 59.8146 134.939 59.8945 135.051C59.9744 135.163 60.0228 135.295 60.0348 135.432L60.0385 134.17C60.0265 134.033 59.9781 133.901 59.8982 133.789C59.8183 133.677 59.71 133.588 59.5843 133.532V133.532Z" fill="#003067"/>
<path d="M67.4841 133.407L67.4871 132.145L66.3291 131.135L66.326 132.397L67.4841 133.407Z" fill="#003067"/>
<path d="M65.781 123.049L65.641 124.379L65.637 125.641L65.777 124.311L65.781 123.049Z" fill="#003067"/>
<path d="M62.257 123.7C62.6339 123.913 63.0397 124.071 63.4617 124.168L63.4651 122.906C63.0432 122.809 62.6375 122.651 62.2605 122.438C61.945 122.298 61.6726 122.076 61.4716 121.796C61.2707 121.515 61.1484 121.185 61.1174 120.842L61.1139 122.103C61.1448 122.447 61.267 122.777 61.468 123.058C61.669 123.338 61.9414 123.56 62.257 123.7Z" fill="#003067"/>
<path d="M67.7247 123.695C68.0357 123.555 68.3042 123.336 68.5027 123.058C68.7013 122.781 68.8229 122.457 68.8551 122.117L68.8585 120.855C68.8264 121.195 68.7048 121.519 68.5063 121.796C68.3078 122.074 68.0394 122.293 67.7284 122.433C67.1273 122.767 66.465 122.976 65.7811 123.049L65.7776 124.311C66.4614 124.238 67.1236 124.029 67.7247 123.695V123.695Z" fill="#003067"/>
<path d="M54.9116 127.946V127.946L57.7357 128.532L57.7343 129.07C57.7839 129.619 57.9796 130.146 58.3011 130.594C58.6226 131.043 59.0581 131.397 59.5626 131.621C59.7634 131.739 59.9713 131.844 60.1852 131.935L60.1886 130.673C59.9748 130.582 59.767 130.477 59.5663 130.359C59.1332 130.15 58.751 129.849 58.4464 129.477C58.1418 129.104 57.9221 128.67 57.8026 128.204L57.8053 127.283L54.9152 126.684C54.8172 126.753 54.7287 126.815 54.6305 126.872C53.7822 127.304 52.8437 127.529 51.8918 127.529C50.9398 127.529 50.0013 127.304 49.153 126.873C48.8369 126.732 48.5639 126.511 48.3623 126.23C48.1606 125.949 48.0376 125.619 48.006 125.275L48.0026 126.537C48.0341 126.881 48.157 127.211 48.3586 127.492C48.5602 127.773 48.8332 127.995 49.1493 128.134C49.9977 128.566 50.9362 128.791 51.8882 128.791C52.8402 128.791 53.7787 128.566 54.6271 128.134C54.7251 128.077 54.8137 128.015 54.9116 127.946Z" fill="#003067"/>
<path d="M79.8157 127.5C78.9677 127.933 78.0291 128.159 77.0769 128.159C76.1246 128.159 75.186 127.933 74.338 127.5C74.1582 127.397 73.9892 127.277 73.8334 127.141L70.1223 127.671L70.1217 127.855C70.069 128.392 69.8761 128.906 69.5625 129.346C69.2488 129.785 68.8254 130.135 68.3344 130.359V130.359L68.2657 130.399L68.2621 131.661L68.3309 131.621V131.621C68.8281 131.395 69.2562 131.041 69.5712 130.596C69.8863 130.15 70.0769 129.628 70.1234 129.084L70.124 128.933L73.83 128.403C73.9857 128.539 74.1546 128.659 74.3342 128.762C75.1822 129.195 76.1209 129.421 77.0732 129.421C78.0254 129.421 78.9641 129.195 79.8121 128.762C80.1222 128.622 80.3897 128.403 80.5874 128.126C80.785 127.849 80.9058 127.525 80.9374 127.186L80.9408 125.924C80.9093 126.263 80.7886 126.587 80.591 126.864C80.3933 127.141 80.1258 127.36 79.8157 127.5V127.5Z" fill="#003067"/>
<path d="M62.2709 131.272H62.2707V131.272L61.1647 132.545L61.1611 133.807L62.2672 132.534L62.269 131.903L62.2673 132.534C63.6158 132.758 64.9952 132.711 66.3256 132.397L66.3292 131.135C64.9988 131.449 63.6194 131.496 62.2709 131.272V131.272Z" fill="#003067"/>
<path d="M73.2775 135.113C72.4313 135.545 71.4947 135.772 70.5443 135.773C69.5939 135.774 68.6568 135.549 67.8097 135.118C67.4936 134.978 67.2207 134.757 67.0191 134.476C66.8175 134.195 66.6946 133.865 66.6631 133.521L66.6595 134.783C66.691 135.127 66.8139 135.457 67.0155 135.738C67.217 136.019 67.49 136.241 67.806 136.381C68.6531 136.811 69.5902 137.036 70.5406 137.035C71.4909 137.034 72.4275 136.807 73.2737 136.375C73.5842 136.235 73.852 136.015 74.05 135.738C74.2479 135.461 74.3688 135.136 74.4004 134.797L74.4039 133.535C74.3723 133.874 74.2515 134.198 74.0536 134.476C73.8557 134.753 73.5879 134.973 73.2775 135.113V135.113Z" fill="#003067"/>
<path d="M61.2419 135.752C60.3932 136.182 59.4548 136.407 58.5031 136.407C57.5514 136.407 56.6131 136.182 55.7643 135.752C55.4492 135.611 55.1774 135.389 54.9771 135.108C54.7767 134.827 54.6551 134.498 54.6248 134.154L54.6212 135.416C54.6515 135.76 54.7731 136.089 54.9734 136.37C55.1738 136.651 55.4455 136.873 55.7606 137.014C56.6094 137.444 57.5478 137.669 58.4995 137.669C59.4512 137.669 60.3896 137.444 61.2384 137.014C61.5458 136.875 61.811 136.658 62.0067 136.383C62.2025 136.108 62.3219 135.787 62.3527 135.451L62.3563 134.189C62.3255 134.525 62.2061 134.846 62.0103 135.121C61.8145 135.396 61.5494 135.613 61.2419 135.752V135.752Z" fill="#003067"/>
<path d="M73.2695 131.946C74.7817 132.819 74.7798 134.24 73.2774 135.113C72.4312 135.546 71.4946 135.772 70.5442 135.773C69.5938 135.774 68.6567 135.55 67.8097 135.119C66.3963 134.303 66.2905 133.024 67.4875 132.145L66.3292 131.135C64.9988 131.449 63.6193 131.496 62.2708 131.272L61.1647 132.545C62.7363 133.452 62.7444 134.879 61.2419 135.752C60.3931 136.182 59.4548 136.407 58.5031 136.407C57.5514 136.407 56.6131 136.182 55.7643 135.752C54.252 134.879 54.2439 133.452 55.7463 132.579C56.7681 132.044 57.9262 131.825 59.0728 131.951L60.1887 130.673C59.9749 130.582 59.767 130.477 59.5663 130.359C58.1133 129.52 57.5257 128.373 57.8053 127.283L54.9153 126.684C54.8172 126.753 54.7287 126.815 54.6305 126.872C53.7822 127.304 52.8437 127.529 51.8917 127.529C50.9398 127.529 50.0013 127.304 49.1529 126.873C47.6308 125.994 47.6229 124.579 49.1351 123.7C49.9822 123.269 50.9193 123.045 51.8697 123.046C52.8201 123.047 53.7567 123.273 54.6029 123.705C54.942 123.847 55.231 124.087 55.4328 124.394C55.6347 124.701 55.7401 125.061 55.7357 125.429L58.5665 126.016C58.8625 125.734 59.192 125.489 59.5476 125.286C60.7107 124.655 62.003 124.3 63.325 124.247L63.4652 122.906C63.0432 122.809 62.6375 122.651 62.2605 122.438C60.7384 121.56 60.7403 120.139 62.2427 119.266C63.0907 118.832 64.0293 118.606 64.9815 118.606C65.9337 118.606 66.8724 118.832 67.7203 119.266C69.2327 120.139 69.2406 121.554 67.7283 122.433C67.1272 122.767 66.465 122.976 65.7811 123.049L65.6409 124.379C66.5728 124.521 67.4719 124.828 68.296 125.286C68.7931 125.56 69.2333 125.926 69.5928 126.365L73.1957 125.851C73.2391 125.523 73.365 125.211 73.5616 124.944C73.7582 124.678 74.0192 124.466 74.3201 124.327C75.1689 123.897 76.1072 123.672 77.0589 123.672C78.0106 123.672 78.9489 123.897 79.7977 124.327C81.32 125.206 81.3181 126.627 79.8156 127.5C78.9677 127.933 78.029 128.159 77.0768 128.159C76.1245 128.159 75.1859 127.933 74.3379 127.5C74.1582 127.397 73.9892 127.277 73.8335 127.141L70.1223 127.671C70.1115 128.243 69.9375 128.8 69.6207 129.276C69.3039 129.753 68.8577 130.128 68.3344 130.359L68.2657 130.399L69.4043 131.386C70.7191 131.14 72.0785 131.337 73.2695 131.946V131.946ZM61.2062 129.406C62.0542 129.839 62.9928 130.065 63.9451 130.065C64.8973 130.065 65.836 129.839 66.6839 129.406C68.1863 128.533 68.1784 127.118 66.6561 126.239C65.8096 125.808 64.8731 125.582 63.9229 125.581C62.9728 125.58 62.0359 125.804 61.1884 126.233C59.6761 127.112 59.694 128.533 61.2062 129.406V129.406ZM69.4496 134.166C69.7886 134.337 70.1632 134.427 70.5431 134.427C70.923 134.427 71.2976 134.337 71.6366 134.165C71.768 134.119 71.8816 134.033 71.9618 133.919C72.0419 133.805 72.0846 133.669 72.0838 133.53C72.083 133.39 72.0389 133.255 71.9575 133.142C71.8761 133.028 71.7615 132.944 71.6296 132.899C71.2897 132.725 70.9136 132.634 70.5318 132.633C70.15 132.632 69.7733 132.721 69.4325 132.893C68.8335 133.241 68.8367 133.812 69.4496 134.166H69.4496ZM50.7928 125.92C51.1314 126.093 51.5062 126.183 51.8864 126.183C52.2666 126.183 52.6414 126.093 52.98 125.92C53.1114 125.873 53.225 125.787 53.3051 125.673C53.3853 125.559 53.4279 125.423 53.4271 125.284C53.4263 125.144 53.3821 125.009 53.3007 124.896C53.2193 124.782 53.1047 124.698 52.9728 124.653C52.6339 124.481 52.2592 124.392 51.8793 124.392C51.4993 124.392 51.1247 124.481 50.7857 124.653C50.6535 124.698 50.5389 124.784 50.458 124.898C50.3771 125.012 50.3341 125.149 50.3349 125.289C50.3356 125.428 50.3803 125.565 50.4624 125.678C50.5445 125.791 50.6601 125.875 50.7928 125.92V125.92ZM59.5842 133.532C59.2452 133.36 58.8706 133.271 58.4906 133.271C58.1107 133.271 57.736 133.36 57.3971 133.532C57.2657 133.579 57.152 133.665 57.0719 133.779C56.9917 133.893 56.9491 134.029 56.9499 134.168C56.9507 134.307 56.9949 134.443 57.0763 134.556C57.1577 134.669 57.2723 134.754 57.4042 134.799C57.7432 134.971 58.1178 135.06 58.4978 135.06C58.8778 135.06 59.2524 134.971 59.5914 134.799C59.7227 134.753 59.8364 134.666 59.9165 134.552C59.9966 134.438 60.0393 134.302 60.0385 134.163C60.0377 134.024 59.9935 133.888 59.9121 133.775C59.8307 133.662 59.7161 133.577 59.5842 133.532ZM63.9004 121.485C64.2394 121.657 64.614 121.746 64.994 121.746C65.374 121.746 65.7486 121.657 66.0876 121.485C66.2198 121.44 66.3344 121.354 66.4153 121.24C66.4962 121.126 66.5392 120.989 66.5384 120.849C66.5377 120.71 66.493 120.573 66.4109 120.46C66.3287 120.347 66.2131 120.263 66.0804 120.219C65.7423 120.044 65.3673 119.953 64.9869 119.953C64.6065 119.953 64.2315 120.044 63.8934 120.219C63.7612 120.264 63.6466 120.35 63.5657 120.464C63.4848 120.578 63.4417 120.715 63.4425 120.855C63.4433 120.994 63.4879 121.13 63.57 121.244C63.6522 121.357 63.7677 121.441 63.9004 121.485L63.9004 121.485ZM78.1578 125.28C77.8188 125.109 77.4442 125.019 77.0643 125.019C76.6844 125.019 76.3098 125.109 75.9708 125.28C75.8386 125.326 75.724 125.412 75.6431 125.526C75.5622 125.64 75.5192 125.776 75.5199 125.916C75.5207 126.056 75.5653 126.192 75.6474 126.305C75.7296 126.418 75.8451 126.503 75.9778 126.547C76.316 126.721 76.6909 126.812 77.0714 126.812C77.4519 126.812 77.8268 126.721 78.165 126.547C78.2972 126.502 78.4118 126.416 78.4927 126.302C78.5736 126.188 78.6166 126.051 78.6159 125.911C78.6151 125.771 78.5704 125.635 78.4883 125.522C78.4061 125.409 78.2905 125.324 78.1578 125.28" fill="#C3F1FF"/>
<path d="M61.2063 129.406C62.0543 129.839 62.9929 130.065 63.9452 130.065C64.8974 130.065 65.8361 129.839 66.684 129.406C68.1865 128.533 68.1785 127.118 66.6563 126.239C65.8097 125.808 64.8732 125.582 63.9231 125.581C62.9729 125.58 62.036 125.804 61.1885 126.233C59.6762 127.112 59.6941 128.533 61.2063 129.406V129.406ZM69.4497 134.166C69.7887 134.337 70.1633 134.427 70.5432 134.427C70.9232 134.427 71.2978 134.337 71.6367 134.165C71.7681 134.119 71.8817 134.033 71.9619 133.919C72.042 133.805 72.0847 133.669 72.0839 133.53C72.0831 133.39 72.039 133.255 71.9576 133.142C71.8762 133.028 71.7616 132.944 71.6297 132.899C71.2898 132.725 70.9137 132.634 70.5319 132.633C70.1501 132.632 69.7734 132.721 69.4327 132.893C68.8337 133.241 68.8368 133.812 69.4497 134.166H69.4497ZM50.7929 125.92C51.1315 126.093 51.5063 126.183 51.8865 126.183C52.2667 126.183 52.6415 126.093 52.9801 125.92C53.1115 125.873 53.2251 125.787 53.3053 125.673C53.3854 125.559 53.428 125.423 53.4272 125.284C53.4264 125.144 53.3823 125.009 53.3009 124.896C53.2194 124.782 53.1048 124.698 52.9729 124.653C52.634 124.481 52.2593 124.392 51.8794 124.392C51.4994 124.392 51.1248 124.481 50.7858 124.653C50.6536 124.698 50.539 124.784 50.4581 124.898C50.3773 125.012 50.3342 125.149 50.335 125.289C50.3358 125.428 50.3804 125.565 50.4625 125.678C50.5447 125.791 50.6602 125.875 50.7929 125.92V125.92ZM59.5843 133.532C59.2453 133.36 58.8707 133.271 58.4907 133.271C58.1108 133.271 57.7361 133.36 57.3972 133.532C57.2658 133.579 57.1521 133.665 57.072 133.779C56.9919 133.893 56.9492 134.029 56.95 134.168C56.9508 134.307 56.995 134.443 57.0764 134.556C57.1578 134.669 57.2724 134.754 57.4043 134.799C57.7433 134.971 58.1179 135.06 58.4979 135.06C58.8779 135.06 59.2525 134.971 59.5915 134.799C59.7229 134.753 59.8365 134.666 59.9166 134.552C59.9968 134.438 60.0394 134.302 60.0386 134.163C60.0378 134.024 59.9936 133.888 59.9122 133.775C59.8308 133.662 59.7162 133.577 59.5843 133.532ZM63.9005 121.485C64.2395 121.657 64.6142 121.746 64.9941 121.746C65.3741 121.746 65.7487 121.657 66.0877 121.485C66.2199 121.44 66.3345 121.354 66.4154 121.24C66.4963 121.126 66.5394 120.989 66.5386 120.849C66.5378 120.71 66.4932 120.573 66.411 120.46C66.3288 120.347 66.2133 120.263 66.0805 120.219C65.7424 120.044 65.3675 119.953 64.987 119.953C64.6066 119.953 64.2317 120.044 63.8935 120.219C63.7613 120.264 63.6467 120.35 63.5658 120.464C63.4849 120.578 63.4419 120.715 63.4426 120.855C63.4434 120.994 63.488 121.13 63.5701 121.244C63.6523 121.357 63.7678 121.441 63.9005 121.485L63.9005 121.485ZM78.1579 125.28C77.819 125.109 77.4444 125.019 77.0644 125.019C76.6845 125.019 76.3099 125.109 75.9709 125.28C75.8387 125.326 75.7241 125.412 75.6432 125.526C75.5624 125.64 75.5193 125.776 75.5201 125.916C75.5208 126.056 75.5654 126.192 75.6475 126.305C75.7297 126.418 75.8452 126.503 75.9779 126.547C76.3161 126.721 76.691 126.812 77.0715 126.812C77.452 126.812 77.8269 126.721 78.1651 126.547C78.2973 126.502 78.4119 126.416 78.4928 126.302C78.5737 126.188 78.6168 126.051 78.616 125.911C78.6152 125.771 78.5706 125.635 78.4884 125.522C78.4062 125.409 78.2906 125.324 78.1579 125.28" fill="#0078D4"/>
<path opacity="0.3" d="M75.4443 128.651C82.4155 128.651 88.0668 125.913 88.0668 122.535C88.0668 119.158 82.4155 116.42 75.4443 116.42C68.4731 116.42 62.8218 119.158 62.8218 122.535C62.8218 125.913 68.4731 128.651 75.4443 128.651Z" fill="#003067"/>
<path fill-rule="evenodd" clip-rule="evenodd" d="M91.4026 102.287C91.4026 105.327 90.5012 108.299 88.8124 110.826C87.1235 113.354 84.7231 115.324 81.9147 116.487C79.1063 117.65 76.0159 117.955 73.0345 117.362C70.0531 116.769 67.3145 115.305 65.165 113.155C63.0155 111.006 61.5517 108.267 60.9587 105.286C60.3656 102.304 60.67 99.2141 61.8333 96.4056C62.9966 93.5972 64.9665 91.1968 67.4941 89.508C70.0216 87.8191 72.9931 86.9177 76.033 86.9177C80.1092 86.9177 84.0186 88.537 86.9009 91.4194C89.7833 94.3017 91.4026 98.2111 91.4026 102.287V102.287Z" fill="url(#paint1_radial_435_287)"/>
<path d="M82.2994 90.7731C82.4335 90.2773 82.5411 89.7746 82.6216 89.2673C82.9103 89.1304 84.0741 89.9369 85.0592 90.969C84.394 93.4344 82.8412 93.2879 82.8412 93.2879C82.8412 93.2879 81.5602 93.2615 81.7082 92.3014L82.2994 90.7731ZM78.8486 92.2769C79.0669 91.9827 79.3806 91.7734 79.7362 91.6847C80.1055 91.5368 79.7362 92.35 79.6627 92.7933C79.5871 93.0039 79.5822 93.2335 79.6489 93.4472C79.7155 93.6609 79.85 93.847 80.032 93.9773C80.5493 94.4946 79.071 94.1252 78.7006 93.8293C78.3313 93.5339 78.8486 92.2769 78.8486 92.2769V92.2769ZM72.1526 106.695C71.8327 107.33 71.4767 107.947 71.0863 108.541C70.915 108.975 70.6348 109.357 70.2727 109.65C70.0204 109.877 69.8187 110.154 69.681 110.464L69.7761 111.721C69.7761 111.721 70.1454 112.534 70.3678 112.904C70.5897 113.273 69.924 115.269 69.924 115.269C69.2833 115.146 68.6709 114.975 68.4485 114.382C68.2271 113.791 67.9067 113.791 67.9807 113.125C68.0547 112.461 66.9457 111.646 66.7242 111.277C66.459 110.902 66.282 110.473 66.2065 110.021C66.2065 109.65 65.3928 109.133 65.3928 109.133C64.7909 108.879 64.2205 108.557 63.693 108.171C63.4251 107.509 63.2506 106.813 63.1748 106.102C63.1788 105.48 63.2532 104.859 63.3967 104.253C63.3967 104.253 63.9879 103.809 63.6186 103.44C63.3553 103.044 63.2022 102.585 63.1748 102.11L62.5096 101.371C62.2633 101.029 62.0643 100.656 61.9178 100.261C61.8688 99.9394 61.8943 99.6104 61.9923 99.2998C61.9793 98.8284 61.9299 98.3587 61.8444 97.8949C64.6047 91.1227 69.2376 89.5411 69.2376 89.5411L69.607 91.0934C69.1986 91.2106 68.7693 91.2359 68.35 91.1674C68.1365 91.0865 67.9125 91.0367 67.6848 91.0195L67.0936 91.8326C66.979 92.0977 66.8802 92.3694 66.7977 92.6462C66.7771 92.9014 66.8284 93.1573 66.9456 93.3849C66.9456 93.3849 67.9806 93.4589 67.9806 93.163C67.9882 93.002 67.9355 92.8439 67.8327 92.7197L67.6848 92.202C68.4647 91.9152 69.3064 91.839 70.1252 91.981C71.8994 92.128 71.2337 93.3849 71.9729 93.6808C72.7121 93.9771 71.3817 95.0112 71.0863 95.603C70.7904 96.1947 70.3466 94.8643 70.3466 94.8643C70.3466 94.8643 70.7904 94.346 70.0503 94.199C69.3111 94.0506 69.1636 95.0112 69.5335 94.9377C69.9028 94.8643 69.9772 95.3811 69.9028 95.7519C69.8413 96.3138 69.6915 96.8624 69.459 97.3777C69.0897 98.1908 67.6848 98.1908 67.6848 98.1908C67.6848 98.1908 67.9067 98.5611 68.1286 99.004C68.35 99.4478 68.0546 100.483 68.0546 100.779C68.0546 101.075 67.1674 100.261 67.0196 99.5217C66.8717 98.7821 66.4278 99.0539 66.1324 99.1274C65.8366 99.2019 64.8755 99.4228 64.7276 99.0539C64.5796 98.6841 63.2492 99.7432 62.8789 99.9651C62.5095 100.187 62.6575 100.779 63.2492 100.483C63.8405 100.187 64.3577 100.409 64.2103 101C64.0624 101.591 63.4706 101.222 63.5451 101.591C63.6186 101.961 64.2103 102.332 64.3577 102.849C64.5057 103.366 65.9105 102.627 66.3543 102.405C66.7977 102.183 68.0546 101.961 68.2021 102.553C68.35 103.144 70.008 103.662 70.5262 103.809C71.2983 103.894 72.0361 104.174 72.6698 104.623C73.2616 105.214 72.227 106.323 72.1526 106.695L72.1526 106.695ZM75.2262 89.3927C75.1527 90.1333 73.8712 91.2413 74.0192 91.5367C74.1666 91.8325 74.1172 94.125 73.0821 93.0155C72.0471 91.906 71.012 90.3537 71.0865 89.6145C71.1013 89.4666 71.1181 89.2327 71.1359 88.9752C72.7046 87.519 76.2468 87.8167 76.4341 88.1606C75.9899 88.9003 75.3006 88.654 75.2262 89.3927L75.2262 89.3927ZM76.9261 93.7547C76.7047 93.3849 77.4439 93.163 77.4439 93.163C78.4789 93.3849 78.0846 94.125 78.0106 94.42C77.9367 94.7158 77.1485 94.1251 76.9261 93.7547L76.9261 93.7547ZM88.6084 102.577L88.6089 102.578C89.0294 103.148 89.3082 103.81 89.4223 104.509C89.5364 105.208 89.4826 105.925 89.2652 106.599C88.226 109.292 86.5153 111.674 84.2957 113.519C84.0744 113.352 83.9153 113.116 83.8439 112.848C83.7724 112.581 83.7927 112.297 83.9014 112.042L84.3769 110.858L84.4999 108.863C84.4928 108.608 84.4159 108.359 84.2777 108.145C84.1394 107.93 83.945 107.758 83.7157 107.646C83.4863 107.534 83.2307 107.487 82.9766 107.511C82.7224 107.534 82.4795 107.626 82.2742 107.778C80.1551 108.32 81.0427 108.573 78.8991 108.722C76.7546 108.868 77.5672 104.55 77.5672 104.55C77.4442 102.775 77.7642 103.219 77.7642 101.838C77.7642 100.458 82.2997 101.247 82.2997 101.247C85.2569 103.219 85.6512 100.803 85.6512 100.803L87.8193 100.015L88.0167 99.0285L86.8337 97.6495L85.0595 96.8599C85.0595 96.8599 84.2463 97.3776 85.0595 98.6351C85.0595 98.6351 84.7886 100.064 84.1229 99.6942L82.2996 97.4516C81.8942 98.1136 81.347 98.6774 80.6974 99.1024C79.8367 99.4188 78.8901 99.4099 78.0355 99.0774C78.0355 99.0774 77.4942 97.4026 78.5293 96.8844L80.0566 96.8599C79.8716 96.3299 79.8292 95.7606 79.9337 95.2091C80.1306 94.4199 80.5744 95.1111 81.3626 94.5194C82.1517 93.9276 82.6935 95.6769 83.8765 95.4804C85.0595 95.283 84.4677 95.0861 85.2569 94.6913C86.045 94.297 86.6363 95.4804 86.6363 95.4804L88.2141 95.6769C87.841 94.6217 87.3832 93.5983 86.8452 92.6169L86.7352 92.6217C86.754 92.5588 86.7924 92.5636 86.8452 92.6169C87.7626 92.7874 90.9302 98.2148 89.9955 101.465C89.6689 101.32 89.3975 101.197 89.3975 101.197H87.4254L88.6084 102.577Z" fill="url(#paint2_linear_435_287)"/>
<path fill-rule="evenodd" clip-rule="evenodd" d="M86.7352 92.6217L86.8452 92.6169C86.7924 92.5636 86.754 92.5588 86.7352 92.6217Z" fill="#7CB65A"/>
</g>
<defs>
<linearGradient id="paint0_linear_435_287" x1="79.6785" y1="9.27545" x2="79.6785" y2="180.691" gradientUnits="userSpaceOnUse">
<stop stop-color="#00ABDE"/>
<stop offset="1" stop-color="#007ED8"/>
</linearGradient>
<radialGradient id="paint1_radial_435_287" cx="0" cy="0" r="1" gradientUnits="userSpaceOnUse" gradientTransform="translate(76.033 102.288) scale(20.4478 16.3139)">
<stop stop-color="white"/>
<stop offset="1" stop-color="#E8E8E8"/>
</radialGradient>
<linearGradient id="paint2_linear_435_287" x1="76.0053" y1="87.8783" x2="76.0053" y2="115.269" gradientUnits="userSpaceOnUse">
<stop stop-color="#008BF1"/>
<stop offset="0.22" stop-color="#0086EC"/>
<stop offset="0.49" stop-color="#0078DD"/>
<stop offset="0.79" stop-color="#0061C4"/>
<stop offset="1" stop-color="#004DAE"/>
</linearGradient>
<clipPath id="clip0_435_287">
<rect width="159.356" height="188" fill="white" transform="translate(0 0.99707)"/>
</clipPath>
</defs>
</svg>
