<?xml version="1.0" encoding="UTF-8"?>
<svg width="202px" height="168px" viewBox="0 0 202 168" version="1.1" xmlns="http://www.w3.org/2000/svg" xmlns:xlink="http://www.w3.org/1999/xlink">
    <title>Explore modern data warehouse analytics in Azure/explore-modern-data-warehouse-analytics-in-azure</title>
    <defs>
        <path d="M45.9102524,160 L153.401474,160 C163.025776,160 171.28527,153.145229 173.058918,143.685771 L194.818366,27.6353808 C196.853961,16.7788744 189.703199,6.32776127 178.846693,4.29216632 C176.651494,3.8805665 174.402856,3.83957154 172.194113,4.170883 L21.3829699,26.7925545 C10.4594805,28.4310779 2.93252847,38.6146013 4.57105187,49.5380906 C4.64810856,50.0518019 4.74514986,50.5623161 4.86195501,51.0684717 L26.4224285,144.49719 C28.516572,153.571812 36.5971328,160 45.9102524,160 Z" id="path-1"></path>
        <linearGradient x1="50%" y1="0%" x2="50%" y2="100%" id="linearGradient-3">
            <stop stop-color="#0062B3" offset="0%"></stop>
            <stop stop-color="#00549B" offset="100%"></stop>
        </linearGradient>
        <path d="M169.061361,0.991094726 C171.276638,0.658803101 173.531929,0.699919342 175.733622,1.11273685 C186.50763,3.13286328 193.642764,13.4166469 191.813962,24.181304 L191.752546,24.5250108 L169.928724,140.918729 C168.172065,150.287579 160.071981,157.108938 150.574452,157.278009 L150.213125,157.281223 L42.4038967,157.281223 C33.1861283,157.281223 25.1722476,151.002564 22.944435,142.09043 L22.8584192,141.732549 L1.23416039,48.0274271 C1.11700968,47.5197741 1.01968128,47.0077496 0.942396628,46.4925185 C-0.683675604,35.652037 6.69033349,25.5381684 17.459218,23.7344267 L17.8040517,23.6796911 L169.061361,0.991094726 Z M174.749852,5.30897766 C173.266584,5.02934135 171.750819,4.97631136 170.253638,5.15082405 L169.755337,5.21742374 L18.7906257,27.9861799 C10.5896664,29.2230626 4.93870391,36.9103646 6.16884781,45.1562495 C6.20741539,45.4147751 6.25265129,45.6722282 6.3045064,45.9283489 L6.38724733,46.3114981 L27.9696753,140.347684 C29.5165241,147.087415 35.4139467,151.893338 42.2628432,152.046615 L42.6004263,152.05039 L150.201104,152.05039 C157.315517,152.05039 163.436568,147.033875 164.894298,140.063326 L164.959199,139.735162 L186.740804,22.9302205 C188.269055,14.7348995 182.900523,6.84560035 174.749852,5.30897766 Z" id="path-4"></path>
        <filter x="-12.0%" y="-17.6%" width="124.0%" height="135.3%" filterUnits="objectBoundingBox" id="filter-6">
            <feOffset dx="0" dy="2" in="SourceAlpha" result="shadowOffsetOuter1"></feOffset>
            <feGaussianBlur stdDeviation="2" in="shadowOffsetOuter1" result="shadowBlurOuter1"></feGaussianBlur>
            <feColorMatrix values="0 0 0 0 0   0 0 0 0 0   0 0 0 0 0  0 0 0 0.1 0" type="matrix" in="shadowBlurOuter1" result="shadowMatrixOuter1"></feColorMatrix>
            <feMerge>
                <feMergeNode in="shadowMatrixOuter1"></feMergeNode>
                <feMergeNode in="SourceGraphic"></feMergeNode>
            </feMerge>
        </filter>
        <polygon id="path-7" points="0 0.0746812227 99.8412536 0.0746812227 99.8412536 67.8478166 0 67.8478166"></polygon>
        <linearGradient x1="50%" y1="0.670396959%" x2="50%" y2="100%" id="linearGradient-9">
            <stop stop-color="#6A6A6A" offset="0%"></stop>
            <stop stop-color="#343333" offset="100%"></stop>
        </linearGradient>
        <linearGradient x1="50%" y1="100%" x2="50%" y2="0%" id="linearGradient-10">
            <stop stop-color="#D2EBFF" offset="0%"></stop>
            <stop stop-color="#F0FFFD" offset="100%"></stop>
        </linearGradient>
        <linearGradient x1="50%" y1="100%" x2="50%" y2="0%" id="linearGradient-11">
            <stop stop-color="#D2EBFF" offset="0%"></stop>
            <stop stop-color="#F0FFFD" offset="100%"></stop>
        </linearGradient>
        <linearGradient x1="50%" y1="0%" x2="50%" y2="100%" id="linearGradient-12">
            <stop stop-color="#88F4FF" offset="0%"></stop>
            <stop stop-color="#50E6FF" offset="100%"></stop>
        </linearGradient>
        <linearGradient x1="0%" y1="50%" x2="100%" y2="50%" id="linearGradient-13">
            <stop stop-color="#005BA1" offset="0%"></stop>
            <stop stop-color="#0060A9" offset="7%"></stop>
            <stop stop-color="#0071C8" offset="36%"></stop>
            <stop stop-color="#0078D4" offset="52%"></stop>
            <stop stop-color="#0074CD" offset="64%"></stop>
            <stop stop-color="#006ABB" offset="82%"></stop>
            <stop stop-color="#005BA1" offset="100%"></stop>
        </linearGradient>
        <linearGradient x1="50%" y1="0%" x2="50%" y2="100%" id="linearGradient-14">
            <stop stop-color="#6FABF4" offset="0%"></stop>
            <stop stop-color="#398CF0" offset="100%"></stop>
        </linearGradient>
        <linearGradient x1="50%" y1="0%" x2="50%" y2="100%" id="linearGradient-15">
            <stop stop-color="#0062B3" offset="0%"></stop>
            <stop stop-color="#00549B" offset="100%"></stop>
        </linearGradient>
        <path d="M0,4.99996413 C0,7.76142208 2.23857792,10 4.99996413,10 L4.99996413,10 C7.76135035,10 10,7.76142208 10,4.99996413 L10,4.99996413 L4.99996413,4.99996413 L4.99996413,0 C2.23857792,0 0,2.23850618 0,4.99996413 L0,4.99996413 Z" id="path-16"></path>
        <path d="M0,4 L4,4 C4,1.79084418 2.20915582,0 0,0 L0,0 L0,4 Z" id="path-18"></path>
        <linearGradient x1="50%" y1="0%" x2="50%" y2="100%" id="linearGradient-20">
            <stop stop-color="#99D3FF" offset="0%"></stop>
            <stop stop-color="#0FA6FF" offset="100%"></stop>
        </linearGradient>
    </defs>
    <g id="Badges" stroke="none" stroke-width="1" fill="none" fill-rule="evenodd">
        <g id="Explore-modern-data-warehouse-analytics-in-Azure" transform="translate(-109.000000, -47.000000)">
            <g id="Explore-modern-data-warehouse-analytics-in-Azure/explore-modern-data-warehouse-analytics-in-azure" transform="translate(155.000000, 80.000000)">
                <g id="Trophy-Plates/Trailhead" transform="translate(5.000000, 0.000000)">
                    <g id="BG" transform="translate(-50.000000, -30.474805)">
                        <mask id="mask-2" fill="white">
                            <use xlink:href="#path-1"></use>
                        </mask>
                        <path stroke="#FFFFFF" stroke-width="5" d="M21.0121187,24.3202136 C14.867656,25.241883 9.67846935,28.5668337 6.25581574,33.1974827 C2.83316214,37.8281317 1.17704157,43.764479 2.09871098,49.9089418 C2.18539976,50.4868669 2.29457123,51.0611954 2.42597702,51.6306205 L23.9864505,145.059339 C25.1644062,150.163814 28.0260418,154.523979 31.9028459,157.608026 C35.77965,160.692072 40.6716226,162.5 45.9102524,162.5 L153.401474,162.5 C158.815144,162.5 163.844961,160.572096 167.770781,157.313955 C171.6966,154.055814 174.518421,149.467437 175.516098,144.146492 L197.275547,28.0961021 C198.420569,21.9893173 196.981928,15.9965493 193.730336,11.244222 C190.478743,6.49189465 185.414199,2.98000801 179.307414,1.83498585 C176.837815,1.37193606 174.308098,1.32581673 171.823262,1.69854212 L21.0121187,24.3202136 Z"></path>
                        <g id="Colors/Microsoft-365/BG-Gradient-3" mask="url(#mask-2)" fill="url(#linearGradient-3)">
                            <g transform="translate(0.000000, -0.000000)" id="Rectangle">
                                <rect x="0" y="0" width="200" height="160"></rect>
                            </g>
                        </g>
                    </g>
                    <g id="Border" transform="translate(-46.652943, -27.525195)">
                        <mask id="mask-5" fill="white">
                            <use xlink:href="#path-4"></use>
                        </mask>
                        <use fill="#000000" fill-rule="nonzero" xlink:href="#path-4"></use>
                        <g id="Colors/Microsoft-365/Border" mask="url(#mask-5)" fill="#0076D7">
                            <g transform="translate(-3.347057, -2.949610)" id="Microsoft-365/Border">
                                <rect x="0" y="0" width="200" height="164"></rect>
                            </g>
                        </g>
                    </g>
                </g>
                <g id="chalk-board---" filter="url(#filter-6)" transform="translate(2.000000, 29.000000)">
                    <g id="Group-17">
                        <g id="Group-7">
                            <g id="Group-3">
                                <mask id="mask-8" fill="white">
                                    <use xlink:href="#path-7"></use>
                                </mask>
                                <g id="Clip-2"></g>
                                <path d="M94.2349046,3.36124891 C95.9710375,3.36124891 97.3781811,4.72261346 97.3781811,6.40226435 L97.3781811,61.5202335 C97.3781811,63.1998844 95.9710375,64.5612489 94.2349046,64.5612489 L5.60620332,64.5612489 C3.87034751,64.5612489 2.46292682,63.1998844 2.46292682,61.5202335 L2.46292682,6.40226435 C2.46292682,4.72261346 3.87034751,3.36124891 5.60620332,3.36124891 L94.2349046,3.36124891 Z" id="Fill-1" stroke="#F1CF99" fill="url(#linearGradient-9)" mask="url(#mask-8)"></path>
                            </g>
                        </g>
                    </g>
                </g>
                <g id="Rectangle-" transform="translate(30.000000, 44.000000)" fill="url(#linearGradient-10)">
                    <rect id="Rectangle-Copy-24" x="16" y="26" width="13" height="13" rx="1"></rect>
                    <rect id="Rectangle-Copy-25" x="32" y="26" width="13" height="13" rx="1"></rect>
                    <rect id="Rectangle-Copy-26" x="0" y="26" width="13" height="13" rx="1"></rect>
                    <rect id="Rectangle-Copy-27" x="7" y="13" width="13" height="13" rx="1"></rect>
                    <rect id="Rectangle-Copy-28" x="26" y="13" width="13" height="13" rx="1"></rect>
                    <rect id="Rectangle-Copy-29" x="16" y="0" width="13" height="13" rx="1"></rect>
                </g>
                <g id="Icon-integration-208-SQL-Server-Stretch-Databases-" transform="translate(73.000000, 34.000000)" fill-rule="nonzero">
                    <polygon id="Path" fill="url(#linearGradient-11)" points="0 6.70542027 0 8.36449332 2.20627803 8.36449332 2.20627803 20.9457973 4.37668161 20.9457973 4.37668161 8.36449332 19.6233184 8.36449332 19.6233184 22 21.793722 22 21.793722 8.36449332 24 8.36449332 24 6.70542027 12 0"></polygon>
                    <path d="M6,20 L10.7142857,20 L10.7142857,15.7894737 L6,15.7894737 L6,20 Z M12.2857143,20 L17,20 L17,15.7894737 L12.3439153,15.7894737 L12.2857143,20 Z M6,14.2105263 L10.7142857,14.2105263 L10.7142857,10 L6,10 L6,14.2105263 Z M12.2857143,10 L12.2857143,14.2105263 L17,14.2105263 L17,10 L12.2857143,10 Z" id="Shape" fill="url(#linearGradient-12)"></path>
                </g>
                <g id="Group" transform="translate(0.000000, 68.000000)" fill-rule="nonzero">
                    <g id="Icon-databases-138-SQL-Elastic-Pools" transform="translate(-0.365546, 0.000000)">
                        <path d="M13.6470588,10.8741855 C6.11030559,10.8741855 0,8.67954034 0,5.7826087 L0,32.9084232 C0,35.6956226 6.00385427,37.9561071 13.4554465,38 L13.6470588,38 C21.1838121,38 27.2941176,35.8053548 27.2941176,32.9084232 L27.2941176,5.7826087 C27.2941176,8.61370098 21.1838121,10.8741855 13.6470588,10.8741855 Z" id="Path" fill="url(#linearGradient-13)"></path>
                        <path d="M27.358943,5.66788264 C27.358943,8.65354606 21.2486374,11.0374479 13.7118842,11.0374479 C6.17513093,11.0374479 0.064825344,8.72298009 0.064825344,5.66788264 C0.064825344,2.61278519 6.17513093,0.298317422 13.7118842,0.298317422 C21.2486374,0.298317422 27.358943,2.61278519 27.358943,5.66788264" id="Path" fill="#E8E8E8"></path>
                        <path d="M13.989058,9.16551033 C8.24078102,9.16551033 3.55307179,7.68695469 3.55307179,5.84996132 C3.55307179,4.01296795 8.24078102,2.55681467 13.989058,2.55681467 C19.7373349,2.55681467 24.4250441,4.03537031 24.4250441,5.84996132 C24.4250441,7.68695469 19.7373349,9.16551033 13.989058,9.16551033 Z" id="Path" fill="url(#linearGradient-14)"></path>
                        <path d="M14.0235789,6.09689418 C11.1639522,5.99768868 8.31296938,6.56512547 5.59451312,7.77454795 C8.315552,8.9615089 11.1674022,9.49924415 14.0235789,9.36390415 C16.8855402,9.47778082 19.7396205,8.89976169 22.4526446,7.65681786 C19.7264423,6.50332869 16.8775991,5.97610798 14.0235789,6.09689418 Z" id="Path" fill="url(#linearGradient-15)"></path>
                    </g>
                </g>
                <g id="Group-2-" transform="translate(9.000000, 84.000000)">
                    <g id="Group-11" transform="translate(-0.593750, 1.000000)">
                        <mask id="mask-17" fill="white">
                            <use xlink:href="#path-16"></use>
                        </mask>
                        <g id="Clip-10"></g>
                        <polygon id="Fill-9" fill="#FFFFFF" mask="url(#mask-17)" points="0 11.1111111 11.1111111 11.1111111 11.1111111 0 0 0"></polygon>
                    </g>
                    <g id="Group-14" transform="translate(6.406250, 0.000000)">
                        <mask id="mask-19" fill="white">
                            <use xlink:href="#path-18"></use>
                        </mask>
                        <g id="Clip-13"></g>
                        <polygon id="Fill-12" fill="url(#linearGradient-20)" mask="url(#mask-19)" points="0 4 4 4 4 -1 0 -1"></polygon>
                    </g>
                </g>
            </g>
        </g>
    </g>
</svg>