<svg width="100" height="101" viewBox="0 0 100 101" fill="none" xmlns="http://www.w3.org/2000/svg">
<g clip-path="url(#clip0)">
<path d="M49.6402 97.1828C40.382 97.1828 31.3318 94.4374 23.6339 89.2939C15.9361 84.1503 9.93633 76.8396 6.39339 68.2862C2.85045 59.7328 1.92346 50.3208 3.72963 41.2406C5.53581 32.1603 9.99403 23.8196 16.5405 17.2731C23.087 10.7266 31.4278 6.26838 40.508 4.46221C49.5883 2.65603 59.0002 3.58303 67.5536 7.12596C76.107 10.6689 83.4177 16.6687 88.5613 24.3665C93.7048 32.0644 96.4502 41.1146 96.4502 50.3728C96.4506 56.5201 95.2401 62.6072 92.8879 68.2867C90.5356 73.9661 87.0876 79.1266 82.7408 83.4734C78.394 87.8202 73.2336 91.2682 67.5541 93.6204C61.8747 95.9727 55.7875 97.1832 49.6402 97.1828V97.1828Z" fill="url(#paint0_linear)"/>
<path fill-rule="evenodd" clip-rule="evenodd" d="M95.5401 50.3727C95.5401 59.4508 92.8481 68.3251 87.8046 75.8733C82.761 83.4216 75.5924 89.3047 67.2053 92.7787C58.8181 96.2528 49.5892 97.1618 40.6854 95.3907C31.7817 93.6196 23.6031 89.2481 17.1839 82.8289C10.7647 76.4096 6.39311 68.231 4.62205 59.3273C2.85099 50.4236 3.75996 41.1946 7.23402 32.8075C10.7081 24.4204 16.5912 17.2518 24.1394 12.2082C31.6876 7.16465 40.5619 4.47267 49.6401 4.47267C55.6678 4.47264 61.6364 5.65987 67.2053 7.96655C72.7741 10.2732 77.8341 13.6542 82.0963 17.9164C86.3586 22.1786 89.7395 27.2386 92.0462 32.8075C94.3529 38.3763 95.5401 44.345 95.5401 50.3727V50.3727ZM49.6401 0.732666C59.458 0.732666 69.0553 3.644 77.2186 9.09851C85.3819 14.553 91.7443 22.3057 95.5015 31.3763C99.2586 40.4468 100.242 50.4277 98.3263 60.0569C96.4109 69.6862 91.6832 78.5312 84.7409 85.4734C77.7986 92.4157 68.9536 97.1435 59.3244 99.0588C49.6952 100.974 39.7142 99.9912 30.6437 96.234C21.5732 92.4769 13.8205 86.1144 8.36594 77.9512C2.91143 69.7879 9.19155e-05 60.1905 9.19155e-05 50.3727C-0.000696185 43.8536 1.28274 37.3983 3.77711 31.3753C6.27147 25.3524 9.9279 19.8798 14.5376 15.2701C19.1472 10.6605 24.6198 7.00405 30.6428 4.50968C36.6657 2.01532 43.1211 0.731878 49.6401 0.732666V0.732666Z" fill="#F2F1F0"/>
<path fill-rule="evenodd" clip-rule="evenodd" d="M92.7297 50.3728C92.7297 58.8952 90.2025 67.2262 85.4677 74.3123C80.7329 81.3984 74.0032 86.9213 66.1295 90.1827C58.2559 93.4441 49.5919 94.2974 41.2333 92.6348C32.8746 90.9722 25.1967 86.8682 19.1705 80.842C13.1442 74.8157 9.04029 67.1378 7.37765 58.7792C5.71502 50.4206 6.56834 41.7566 9.82972 33.8829C13.0911 26.0093 18.6141 19.2795 25.7002 14.5447C32.7863 9.80994 41.1173 7.28275 49.6397 7.28275C55.2985 7.28241 60.9019 8.39673 66.1299 10.5621C71.358 12.7274 76.1084 15.9014 80.1097 19.9028C84.111 23.9041 87.285 28.6544 89.4504 33.8825C91.6157 39.1106 92.73 44.714 92.7297 50.3728V50.3728ZM49.6397 3.54275C58.9018 3.54275 67.9559 6.28929 75.6571 11.435C83.3582 16.5808 89.3605 23.8946 92.905 32.4517C96.4494 41.0088 97.3768 50.4247 95.5699 59.5088C93.7629 68.593 89.3028 76.9373 82.7535 83.4866C76.2042 90.0359 67.8599 94.496 58.7758 96.3029C49.6916 98.1099 40.2757 97.1825 31.7186 93.638C23.1616 90.0936 15.8477 84.0913 10.702 76.3901C5.55622 68.689 2.80969 59.6349 2.80969 50.3728C2.81088 37.953 7.74512 26.0423 16.5272 17.2602C25.3093 8.47817 37.22 3.54392 49.6397 3.54272V3.54275Z" fill="#0078D4"/>
<path d="M45.949 49.1199C45.949 59.2687 33.6844 67.4382 31.0151 69.0947C30.8627 69.1892 30.6869 69.2393 30.5076 69.2393C30.3283 69.2393 30.1525 69.1892 30.0002 69.0947C27.3309 67.4382 15.0662 59.2687 15.0662 49.1199V36.9202C15.0667 36.6671 15.1661 36.4241 15.3431 36.2431C15.5202 36.0621 15.7609 35.9575 16.014 35.9515C25.5548 35.6999 23.3573 31.5061 30.5076 31.5061C37.658 31.5061 35.4604 35.6999 45.0012 35.9515C45.2543 35.9575 45.4951 36.0621 45.6721 36.2431C45.8492 36.4241 45.9485 36.6671 45.949 36.9202V49.1199Z" fill="#50E6FF"/>
<path d="M44.6699 49.2332C44.6699 58.5391 33.4202 66.0313 30.9731 67.5515C30.8336 67.6389 30.6723 67.6853 30.5076 67.6853C30.343 67.6853 30.1817 67.6389 30.0421 67.5515C27.5951 66.0313 16.3453 58.5349 16.3453 49.2332V38.0358C16.3464 37.8038 16.4379 37.5813 16.6004 37.4157C16.7629 37.25 16.9836 37.1543 17.2155 37.1488C25.9658 36.9118 23.9507 33.0725 30.5076 33.0725C37.0646 33.0725 35.0495 36.9119 43.7997 37.1488C44.0317 37.1543 44.2524 37.25 44.4149 37.4157C44.5774 37.5813 44.6689 37.8038 44.6699 38.0358L44.6699 49.2332Z" fill="url(#paint1_linear)"/>
<path d="M32.2983 51.0448C33.7818 51.0448 34.9844 49.8422 34.9844 48.3587C34.9844 46.8752 33.7818 45.6726 32.2983 45.6726C30.8149 45.6726 29.6122 46.8752 29.6122 48.3587C29.6122 49.8422 30.8149 51.0448 32.2983 51.0448Z" fill="white"/>
<path d="M28.4401 56.7189C29.4418 56.7189 30.2539 55.9068 30.2539 54.9051C30.2539 53.9034 29.4418 53.0913 28.4401 53.0913C27.4383 53.0913 26.6263 53.9034 26.6263 54.9051C26.6263 55.9068 27.4383 56.7189 28.4401 56.7189Z" fill="white"/>
<path d="M27.1316 43.341C28.3742 43.341 29.3816 42.3336 29.3816 41.091C29.3816 39.8484 28.3742 38.8411 27.1316 38.8411C25.889 38.8411 24.8817 39.8484 24.8817 41.091C24.8817 42.3336 25.889 43.341 27.1316 43.341Z" fill="white"/>
<path d="M37.2891 55.9268L32.7491 47.9768L32.2981 48.2368L32.6671 47.9648L27.5261 40.6548L26.5861 41.3388L31.1411 47.8138L21.0491 48.6458L21.1451 49.8178L31.1411 48.9878L27.8261 54.4968L28.8221 55.0958L32.2311 49.4238L36.2801 56.5008L37.2891 55.9268Z" fill="#E6E6E6"/>
<path d="M32.2983 45.6999C32.8375 45.6999 33.3645 45.8598 33.8128 46.1593C34.2611 46.4588 34.6105 46.8845 34.8168 47.3826C35.0231 47.8807 35.0771 48.4288 34.9719 48.9576C34.8667 49.4864 34.6071 49.9721 34.2259 50.3534C33.8446 50.7346 33.3589 50.9942 32.8302 51.0994C32.3014 51.2046 31.7533 51.1506 31.2552 50.9443C30.7571 50.7379 30.3313 50.3886 30.0318 49.9403C29.7323 49.492 29.5724 48.965 29.5724 48.4258V48.3588C29.5899 47.6475 29.8848 46.9712 30.3941 46.4744C30.9035 45.9776 31.5868 45.6997 32.2983 45.6999ZM24.9362 41.0868C24.9316 41.5347 25.06 41.9738 25.305 42.3488C25.5501 42.7237 25.9008 43.0175 26.3128 43.1931C26.7249 43.3688 27.1797 43.4182 27.6199 43.3353C28.0601 43.2524 28.4658 43.0409 28.7857 42.7274C29.1056 42.4139 29.3254 42.0126 29.4172 41.5742C29.5091 41.1358 29.4689 40.6801 29.3017 40.2645C29.1345 39.849 28.8478 39.4924 28.478 39.2398C28.1081 38.9871 27.6716 38.8499 27.2238 38.8453L27.2113 38.8452H27.1526C26.5621 38.8529 25.9984 39.093 25.5836 39.5133C25.1687 39.9336 24.9362 40.5004 24.9362 41.091V41.0868ZM19.2914 49.3694C19.2914 49.7282 19.3978 50.0789 19.5971 50.3771C19.7964 50.6754 20.0797 50.9079 20.4111 51.0452C20.7425 51.1825 21.1072 51.2184 21.4591 51.1484C21.8109 51.0784 22.1341 50.9056 22.3878 50.652C22.6414 50.3983 22.8142 50.0751 22.8842 49.7233C22.9541 49.3715 22.9182 49.0068 22.7809 48.6753C22.6437 48.3439 22.4112 48.0606 22.1129 47.8613C21.8146 47.662 21.4639 47.5556 21.1052 47.5556H21.1031C20.6224 47.5562 20.1616 47.7475 19.8219 48.0876C19.4822 48.4277 19.2914 48.8887 19.2914 49.3694V49.3694ZM26.6305 54.8905C26.6276 55.2521 26.732 55.6065 26.9305 55.9088C27.129 56.2111 27.4127 56.4477 27.7457 56.5888C28.0787 56.7298 28.446 56.769 28.8013 56.7013C29.1565 56.6336 29.4837 56.462 29.7414 56.2084C29.9992 55.9547 30.1759 55.6303 30.2493 55.2762C30.3227 54.9221 30.2894 54.5542 30.1537 54.219C30.018 53.8838 29.7859 53.5963 29.4869 53.393C29.1878 53.1897 28.8352 53.0796 28.4735 53.0767H28.4715H28.4527C27.9718 53.0739 27.5094 53.262 27.167 53.5997C26.8246 53.9374 26.6302 54.3971 26.6263 54.8779L26.6305 54.8905ZM34.7035 56.3583C34.7002 56.7764 34.8209 57.186 35.0504 57.5354C35.2799 57.8848 35.6078 58.1583 35.9928 58.3214C36.3777 58.4844 36.8024 58.5296 37.213 58.4513C37.6236 58.373 38.0018 58.1747 38.2998 57.8814C38.5977 57.5882 38.802 57.2132 38.8868 56.8038C38.9716 56.3945 38.9331 55.9692 38.7762 55.5817C38.6193 55.1942 38.351 54.862 38.0052 54.627C37.6595 54.392 37.2518 54.2648 36.8338 54.2615H36.8297H36.8171C36.2654 54.2531 35.7328 54.4638 35.3362 54.8474C34.9396 55.2311 34.7113 55.7563 34.7013 56.308L34.7035 56.3583Z" fill="white"/>
<path d="M48.8171 45.6156H54.7411L61.6381 35.4636H67.2981" stroke="#1F56A3" stroke-linecap="round" stroke-linejoin="round"/>
<path d="M66.6891 63.2756H61.3741L54.4761 53.1226H48.8171" stroke="#1F56A3" stroke-linecap="round" stroke-linejoin="round"/>
<path d="M48.817 49.3694H68.2235" stroke="#1F56A3" stroke-linecap="round" stroke-linejoin="round"/>
<path d="M76.3404 30.5789H68.0243C67.4551 30.5789 66.9937 31.0403 66.9937 31.6095V39.3172C66.9937 39.8864 67.4551 40.3478 68.0243 40.3478H76.3404C76.9097 40.3478 77.3711 39.8864 77.3711 39.3172V31.6095C77.3711 31.0403 76.9097 30.5789 76.3404 30.5789Z" fill="#1F56A3"/>
<path d="M68.5494 37.5247L71.4602 32.5558C71.534 32.4298 71.6395 32.3253 71.7662 32.2527C71.8928 32.1801 72.0363 32.1418 72.1824 32.1418C72.3284 32.1418 72.4719 32.1801 72.5986 32.2527C72.7253 32.3253 72.8308 32.4298 72.9046 32.5558L75.8153 37.5247C75.8898 37.6519 75.9294 37.7965 75.9301 37.9438C75.9308 38.0912 75.8926 38.2362 75.8193 38.364C75.746 38.4919 75.6403 38.5981 75.5128 38.672C75.3852 38.7459 75.2405 38.7848 75.0931 38.7848H69.2716C69.1243 38.7848 68.9795 38.7459 68.852 38.672C68.7245 38.5981 68.6187 38.4919 68.5455 38.364C68.4722 38.2362 68.4339 38.0912 68.4346 37.9438C68.4353 37.7965 68.4749 37.6519 68.5494 37.5247Z" fill="#FF9300"/>
<path d="M69.2716 38.3661C69.1979 38.3661 69.1256 38.3466 69.0618 38.3097C68.9981 38.2727 68.9453 38.2196 68.9086 38.1557C68.872 38.0918 68.8529 38.0193 68.8532 37.9457C68.8535 37.872 68.8733 37.7997 68.9105 37.7361L71.8212 32.7672C71.8582 32.7042 71.9109 32.652 71.9743 32.6157C72.0377 32.5794 72.1094 32.5603 72.1825 32.5603C72.2555 32.5603 72.3272 32.5794 72.3906 32.6157C72.4539 32.652 72.5067 32.7043 72.5436 32.7673L75.4541 37.7361C75.4914 37.7997 75.5112 37.872 75.5116 37.9457C75.5119 38.0194 75.4928 38.0918 75.4562 38.1558C75.4195 38.2197 75.3667 38.2728 75.3029 38.3098C75.2391 38.3467 75.1667 38.3661 75.0931 38.3661H69.2716Z" fill="#FFCA00"/>
<path d="M72.1824 34.3076V36.3122" stroke="#FF9300" stroke-width="0.4185" stroke-miterlimit="10" stroke-linecap="round"/>
<path d="M72.1824 37.5803C72.3356 37.5803 72.4598 37.4561 72.4598 37.3029C72.4598 37.1496 72.3356 37.0254 72.1824 37.0254C72.0291 37.0254 71.9049 37.1496 71.9049 37.3029C71.9049 37.4561 72.0291 37.5803 72.1824 37.5803Z" fill="#FF9300"/>
<path d="M72.1824 68.7684C75.216 68.7684 77.6753 66.3092 77.6753 63.2755C77.6753 60.2418 75.216 57.7825 72.1824 57.7825C69.1487 57.7825 66.6894 60.2418 66.6894 63.2755C66.6894 66.3092 69.1487 68.7684 72.1824 68.7684Z" fill="#1F56A3"/>
<path d="M72.1822 65.4711C71.6007 65.4699 71.0434 65.238 70.6326 64.8264C70.2218 64.4147 69.9911 63.8569 69.9911 63.2753C69.9911 62.6938 70.2218 62.136 70.6326 61.7243C71.0434 61.3126 71.6007 61.0808 72.1822 61.0795H72.1823V59.0144C71.4816 59.0144 70.7917 59.1872 70.1737 59.5175C69.5557 59.8478 69.0286 60.3254 68.6393 60.908C68.25 61.4907 68.0104 62.1603 67.9417 62.8577C67.873 63.5551 67.9774 64.2586 68.2455 64.906C68.5137 65.5534 68.9373 66.1247 69.479 66.5692C70.0207 67.0137 70.6636 67.3178 71.3509 67.4545C72.0382 67.5912 72.7486 67.5563 73.4191 67.3529C74.0897 67.1495 74.6997 66.7838 75.1952 66.2883L73.7342 64.8272C73.5307 65.0315 73.2888 65.1935 73.0225 65.304C72.7561 65.4145 72.4706 65.4713 72.1822 65.4711V65.4711Z" fill="#1490DF"/>
<path d="M76.4433 63.2754C76.4433 62.1453 75.9944 61.0615 75.1953 60.2624C74.3962 59.4633 73.3124 59.0144 72.1823 59.0144V61.0795C72.5052 61.0769 72.8247 61.1461 73.1176 61.2822C73.4105 61.4183 73.6694 61.6178 73.8757 61.8663C74.082 62.1147 74.2305 62.406 74.3103 62.7189C74.3902 63.0318 74.3994 63.3586 74.3375 63.6755L76.3691 64.0527C76.4175 63.7964 76.4424 63.5362 76.4433 63.2754V63.2754Z" fill="#50E6FF"/>
<path d="M74.3375 63.6755C74.2575 64.1116 74.0472 64.5132 73.7342 64.8272V64.8272L75.1952 66.2884C75.804 65.6793 76.2133 64.8996 76.3691 64.0527L74.3375 63.6755Z" fill="#C3F1FF"/>
<path d="M76.686 45.2899C73.7531 45.2125 74.4287 43.9233 72.2304 43.9233C70.0324 43.9233 70.708 45.2125 67.7749 45.2899C67.6971 45.2918 67.6231 45.3239 67.5687 45.3796C67.5143 45.4352 67.4837 45.5099 67.4836 45.5877V49.3381C67.4836 52.458 71.2539 54.9694 72.0744 55.4787C72.1213 55.5078 72.1753 55.5231 72.2304 55.5231C72.2856 55.5231 72.3396 55.5078 72.3864 55.4787C73.2071 54.9694 76.9775 52.458 76.9775 49.3381V45.5877C76.9773 45.5099 76.9467 45.4352 76.8923 45.3795C76.8378 45.3239 76.7638 45.2918 76.686 45.2899Z" fill="#1F56A3"/>
</g>
<defs>
<linearGradient id="paint0_linear" x1="47.8698" y1="-14.4203" x2="51.8526" y2="131.348" gradientUnits="userSpaceOnUse">
<stop stop-color="#00ABDE"/>
<stop offset="1" stop-color="#007ED8"/>
</linearGradient>
<linearGradient id="paint1_linear" x1="30.5076" y1="67.6853" x2="30.5076" y2="33.0726" gradientUnits="userSpaceOnUse">
<stop stop-color="#50E6FF"/>
<stop offset="1" stop-color="#9CEBFF"/>
</linearGradient>
<clipPath id="clip0">
<rect width="99.2799" height="99.28" fill="white" transform="translate(9.15527e-05 0.732666)"/>
</clipPath>
</defs>
</svg>
