<svg width="100" height="100" viewBox="0 0 100 100" fill="none" xmlns="http://www.w3.org/2000/svg">
<g clip-path="url(#clip0_972_326)">
<path d="M49.6401 96.45C40.382 96.45 31.3317 93.7047 23.6339 88.5611C15.936 83.4176 9.93624 76.1068 6.3933 67.5534C2.85036 59 1.92337 49.5881 3.72954 40.5078C5.53571 31.4276 9.99394 23.0868 16.5404 16.5403C23.0869 9.99384 31.4277 5.53562 40.5079 3.72945C49.5882 1.92327 59.0001 2.85027 67.5535 6.39321C76.1069 9.93614 83.4176 15.9359 88.5612 23.6338C93.7047 31.3316 96.4501 40.3819 96.4501 49.64C96.4505 55.7873 95.24 61.8745 92.8878 67.5539C90.5355 73.2334 87.0875 78.3938 82.7407 82.7406C78.3939 87.0874 73.2335 90.5354 67.554 92.8877C61.8746 95.2399 55.7874 96.4504 49.6401 96.45V96.45Z" fill="url(#paint0_linear_972_326)"/>
<path fill-rule="evenodd" clip-rule="evenodd" d="M95.54 49.64C95.54 58.7182 92.848 67.5925 87.8045 75.1407C82.7609 82.6889 75.5923 88.572 67.2052 92.0461C58.818 95.5201 49.5891 96.4291 40.6854 94.658C31.7816 92.887 23.603 88.5154 17.1838 82.0962C10.7646 75.677 6.39302 67.4984 4.62196 58.5946C2.85089 49.6909 3.75987 40.462 7.23393 32.0748C10.708 23.6877 16.5911 16.5191 24.1393 11.4755C31.6875 6.43199 40.5618 3.74 49.64 3.74C55.6677 3.73998 61.6363 4.9272 67.2052 7.23388C72.774 9.54057 77.834 12.9215 82.0963 17.1837C86.3585 21.446 89.7394 26.5059 92.0461 32.0748C94.3528 37.6437 95.54 43.6123 95.54 49.64V49.64ZM49.64 3.62732e-07C59.4579 3.62732e-07 69.0553 2.91134 77.2185 8.36585C85.3818 13.8204 91.7442 21.5731 95.5014 30.6436C99.2585 39.7141 100.242 49.6951 98.3262 59.3243C96.4108 68.9535 91.6831 77.7985 84.7408 84.7408C77.7985 91.6831 68.9535 96.4108 59.3243 98.3262C49.6951 100.242 39.7141 99.2585 30.6436 95.5014C21.5731 91.7442 13.8204 85.3818 8.36585 77.2185C2.91134 69.0553 3.62732e-07 59.4579 3.62732e-07 49.64C-0.000787738 43.121 1.28265 36.6656 3.77702 30.6427C6.27138 24.6197 9.9278 19.1471 14.5375 14.5375C19.1471 9.9278 24.6197 6.27138 30.6427 3.77702C36.6656 1.28265 43.121 -0.000787738 49.64 3.62732e-07V3.62732e-07Z" fill="#F2F1F0"/>
<path fill-rule="evenodd" clip-rule="evenodd" d="M92.7296 49.6401C92.7296 58.1625 90.2024 66.4935 85.4676 73.5796C80.7328 80.6657 74.0031 86.1887 66.1294 89.4501C58.2557 92.7114 49.5918 93.5648 41.2331 91.9021C32.8745 90.2395 25.1966 86.1356 19.1703 80.1093C13.1441 74.0831 9.04017 66.4052 7.37753 58.0465C5.7149 49.6879 6.56822 41.0239 9.8296 33.1503C13.091 25.2766 18.6139 18.5469 25.7 13.8121C32.7862 9.07727 41.1172 6.55009 49.6396 6.55009C55.2983 6.54974 60.9017 7.66407 66.1298 9.82942C71.3579 11.9948 76.1082 15.1687 80.1096 19.1701C84.1109 23.1714 87.2849 27.9218 89.4502 33.1499C91.6156 38.3779 92.7299 43.9813 92.7296 49.6401V49.6401ZM49.6396 2.81009C58.9017 2.81009 67.9558 5.55662 75.6569 10.7024C83.3581 15.8481 89.3604 23.162 92.9049 31.719C96.4493 40.2761 97.3767 49.692 95.5697 58.7762C93.7628 67.8603 89.3027 76.2046 82.7534 82.7539C76.2041 89.3032 67.8598 93.7633 58.7757 95.5703C49.6915 97.3772 40.2756 96.4498 31.7185 92.9054C23.1614 89.3609 15.8476 83.3586 10.7018 75.6574C5.5561 67.9563 2.80957 58.9022 2.80957 49.6401C2.81076 37.2204 7.745 25.3097 16.5271 16.5276C25.3091 7.7455 37.2198 2.81125 49.6396 2.81006V2.81009Z" fill="#0078D4"/>
<path fill-rule="evenodd" clip-rule="evenodd" d="M92.7637 49.6401C92.7637 58.1625 90.2366 66.4935 85.5018 73.5796C80.767 80.6657 74.0372 86.1887 66.1636 89.4501C58.2899 92.7114 49.6259 93.5648 41.2673 91.9021C32.9087 90.2395 25.2308 86.1356 19.2045 80.1093C13.1783 74.0831 9.07435 66.4052 7.41171 58.0465C5.74908 49.6879 6.6024 41.0239 9.86378 33.1503C13.1252 25.2766 18.6481 18.5469 25.7342 13.8121C32.8203 9.07727 41.1514 6.55009 49.6738 6.55009C55.3325 6.54974 60.9359 7.66407 66.164 9.82942C71.3921 11.9948 76.1424 15.1687 80.1437 19.1701C84.1451 23.1714 87.3191 27.9218 89.4844 33.1499C91.6498 38.3779 92.7641 43.9813 92.7637 49.6401V49.6401ZM49.6738 2.81009C58.9359 2.81009 67.9899 5.55662 75.6911 10.7024C83.3923 15.8481 89.3946 23.162 92.939 31.719C96.4835 40.2761 97.4109 49.692 95.6039 58.7762C93.797 67.8603 89.3369 76.2046 82.7876 82.7539C76.2383 89.3032 67.894 93.7633 58.8098 95.5703C49.7257 97.3772 40.3097 96.4498 31.7527 92.9054C23.1956 89.3609 15.8818 83.3586 10.736 75.6574C5.59028 67.9563 2.84375 58.9022 2.84375 49.6401C2.84494 37.2204 7.77918 25.3097 16.5612 16.5276C25.3433 7.7455 37.254 2.81125 49.6738 2.81006V2.81009Z" fill="#0078D4"/>
<path d="M65.289 77.3896C72.2436 77.3896 77.8815 71.7517 77.8815 64.7971C77.8815 57.8425 72.2436 52.2046 65.289 52.2046C58.3344 52.2046 52.6965 57.8425 52.6965 64.7971C52.6965 71.7517 58.3344 77.3896 65.289 77.3896Z" fill="url(#paint1_linear_972_326)"/>
<path d="M65.2892 77.716C62.734 77.7161 60.2362 76.9584 58.1117 75.5389C55.9871 74.1194 54.3312 72.1018 53.3534 69.7411C52.3755 67.3805 52.1196 64.7829 52.6181 62.2769C53.1165 59.7708 54.3469 57.4688 56.1537 55.6621C57.9604 53.8553 60.2623 52.6249 62.7684 52.1264C65.2744 51.6279 67.872 51.8837 70.2327 52.8615C72.5933 53.8393 74.611 55.4952 76.0305 57.6197C77.4501 59.7442 78.2078 62.242 78.2078 64.7971C78.2039 68.2222 76.8416 71.5058 74.4197 73.9277C71.9978 76.3496 68.7142 77.712 65.2892 77.716V77.716ZM65.2892 52.531C62.8631 52.5309 60.4916 53.2503 58.4744 54.5981C56.4572 55.9458 54.885 57.8615 53.9566 60.1028C53.0281 62.3442 52.7852 64.8105 53.2584 67.1899C53.7317 69.5693 54.8999 71.7549 56.6153 73.4704C58.3308 75.1858 60.5164 76.3541 62.8957 76.8274C65.2751 77.3007 67.7414 77.0579 69.9828 76.1295C72.2241 75.2011 74.1399 73.6289 75.4877 71.6118C76.8355 69.5946 77.5549 67.2231 77.5549 64.7971C77.5512 61.5451 76.2577 58.4275 73.9582 56.1279C71.6588 53.8284 68.5411 52.5349 65.2892 52.531V52.531Z" fill="#003067"/>
<path d="M68.7471 66.0899C68.9246 66.0899 69.1003 66.1249 69.2643 66.1928C69.4283 66.2607 69.5773 66.3603 69.7028 66.4858C69.8283 66.6113 69.9278 66.7603 69.9958 66.9243C70.0637 67.0882 70.0986 67.264 70.0986 67.4415V67.9935C70.0986 68.3381 69.9909 68.674 69.7906 68.9544C69.2599 69.6259 68.5708 70.1551 67.785 70.4945C66.9993 70.8338 66.1416 70.9727 65.2889 70.8985C64.4365 70.9729 63.5789 70.8341 62.7936 70.4946C62.0082 70.155 61.3196 69.6254 60.7899 68.9534C60.5904 68.6734 60.4832 68.3382 60.4832 67.9944V67.4415C60.4832 67.264 60.5181 67.0883 60.586 66.9243C60.6539 66.7603 60.7535 66.6113 60.879 66.4858C61.0045 66.3603 61.1535 66.2608 61.3175 66.1928C61.4815 66.1249 61.6572 66.09 61.8347 66.09L68.7471 66.0899ZM65.2889 58.8809C65.8832 58.8809 66.4642 59.0571 66.9583 59.3873C67.4525 59.7175 67.8377 60.1868 68.0651 60.7359C68.2925 61.285 68.352 61.8892 68.2361 62.4721C68.1201 63.055 67.8339 63.5905 67.4137 64.0107C66.9934 64.4309 66.458 64.7171 65.8751 64.8331C65.2922 64.949 64.688 64.8895 64.1389 64.6621C63.5898 64.4346 63.1205 64.0495 62.7903 63.5553C62.4602 63.0611 62.2839 62.4801 62.2839 61.8858C62.2839 61.0889 62.6005 60.3245 63.1641 59.761C63.7276 59.1975 64.4919 58.8809 65.2889 58.8809V58.8809Z" fill="#003067"/>
<path d="M34.2696 77.138C41.2449 77.138 46.8995 71.4834 46.8995 64.5081C46.8995 57.5328 41.2449 51.8782 34.2696 51.8782C27.2943 51.8782 21.6396 57.5328 21.6396 64.5081C21.6396 71.4834 27.2943 77.138 34.2696 77.138Z" fill="url(#paint2_linear_972_326)" stroke="#1F56A3" stroke-width="0.75468" stroke-miterlimit="10"/>
<path d="M37.738 65.8047C37.9161 65.8047 38.0923 65.8398 38.2568 65.9079C38.4213 65.976 38.5707 66.0759 38.6966 66.2018C38.8225 66.3277 38.9223 66.4771 38.9904 66.6416C39.0586 66.806 39.0936 66.9823 39.0936 67.1603V67.7139C39.0936 68.0595 38.9856 68.3965 38.7846 68.6777C38.2524 69.3512 37.5612 69.882 36.7731 70.2224C35.985 70.5627 35.1247 70.702 34.2695 70.6276C33.4146 70.7023 32.5545 70.563 31.7668 70.2225C30.979 69.8819 30.2884 69.3507 29.7571 68.6767C29.557 68.3959 29.4495 68.0597 29.4495 67.7148V67.1603C29.4495 66.9823 29.4845 66.806 29.5526 66.6416C29.6208 66.4771 29.7206 66.3277 29.8465 66.2018C29.9724 66.0759 30.1218 65.976 30.2863 65.9079C30.4507 65.8398 30.627 65.8047 30.805 65.8047H37.738ZM34.2695 58.5742C34.8656 58.5742 35.4483 58.751 35.944 59.0822C36.4396 59.4133 36.8259 59.884 37.054 60.4348C37.2821 60.9855 37.3418 61.5915 37.2255 62.1761C37.1093 62.7608 36.8222 63.2978 36.4007 63.7193C35.9792 64.1408 35.4422 64.4278 34.8575 64.5441C34.2729 64.6604 33.6669 64.6007 33.1162 64.3726C32.5655 64.1445 32.0948 63.7582 31.7636 63.2626C31.4324 62.7669 31.2557 62.1842 31.2557 61.5881C31.2557 60.7888 31.5732 60.0222 32.1384 59.457C32.7036 58.8918 33.4702 58.5743 34.2695 58.5742V58.5742Z" fill="white"/>
<path d="M49.6397 41.6342V42.252C49.6397 42.6436 49.5626 43.0314 49.4127 43.3932C49.2628 43.7551 49.0432 44.0838 48.7662 44.3607C48.4893 44.6377 48.1606 44.8573 47.7987 45.0072C47.4369 45.1571 47.0491 45.2342 46.6575 45.2342H37.2539C36.463 45.2342 35.7045 45.5484 35.1452 46.1077C34.5859 46.6669 34.2717 47.4255 34.2717 48.2164V49.6399" stroke="white" stroke-miterlimit="10"/>
<path d="M49.6396 41.6342V42.252C49.6396 43.0429 49.9538 43.8015 50.5131 44.3607C51.0724 44.92 51.8309 45.2342 52.6219 45.2342H62.0254C62.8163 45.2342 63.5749 45.5484 64.1342 46.1077C64.6934 46.6669 65.0076 47.4255 65.0076 48.2164V49.6399" stroke="white" stroke-miterlimit="10"/>
<path d="M38.3229 29.963L49.6449 37.311L61.1679 29.935L62.6119 31.622L49.6449 39.97L36.8789 31.622L38.3229 29.963Z" fill="#50E6FF"/>
<path d="M39.1809 29.02L49.6449 16.554L60.3239 29.034L49.6449 35.782L39.1809 29.02Z" fill="white"/>
<path d="M49.6449 16.554V35.782L39.1809 29.02L49.6449 16.554Z" fill="#50E6FF"/>
<path d="M49.645 16.554V35.782L60.324 29.034L49.645 16.554Z" fill="url(#paint3_linear_972_326)"/>
<path d="M49.645 26.489L60.324 29.034L49.645 35.782V26.489Z" fill="#53B1E0"/>
<path d="M49.6449 35.782L39.1809 29.02L49.6449 26.489V35.782Z" fill="#9CEBFF"/>
<path d="M49.645 39.97L62.612 31.622L61.168 29.935L49.645 37.311V39.97Z" fill="url(#paint4_linear_972_326)"/>
</g>
<defs>
<linearGradient id="paint0_linear_972_326" x1="47.8697" y1="-15.1531" x2="51.8525" y2="130.615" gradientUnits="userSpaceOnUse">
<stop stop-color="#00ABDE"/>
<stop offset="1" stop-color="#007ED8"/>
</linearGradient>
<linearGradient id="paint1_linear_972_326" x1="65.289" y1="77.3896" x2="65.289" y2="52.1595" gradientUnits="userSpaceOnUse">
<stop stop-color="#003067"/>
<stop offset="0.2" stop-color="#003F7C"/>
<stop offset="0.47" stop-color="#004F90"/>
<stop offset="0.74" stop-color="#00589D"/>
<stop offset="1" stop-color="#005BA1"/>
</linearGradient>
<linearGradient id="paint2_linear_972_326" x1="34.2696" y1="77.138" x2="34.2696" y2="51.8782" gradientUnits="userSpaceOnUse">
<stop stop-color="#004DAE"/>
<stop offset="0.21" stop-color="#0061C4"/>
<stop offset="0.51" stop-color="#0078DD"/>
<stop offset="0.78" stop-color="#0086EC"/>
<stop offset="1" stop-color="#008BF1"/>
</linearGradient>
<linearGradient id="paint3_linear_972_326" x1="55.8282" y1="34.0053" x2="49.2092" y2="21.4677" gradientUnits="userSpaceOnUse">
<stop stop-color="#1988D9"/>
<stop offset="0.9" stop-color="#54AEF0"/>
</linearGradient>
<linearGradient id="paint4_linear_972_326" x1="52.9785" y1="30.3622" x2="57.5533" y2="38.2536" gradientUnits="userSpaceOnUse">
<stop offset="0.1" stop-color="#54AEF0"/>
<stop offset="0.29" stop-color="#4FABEE"/>
<stop offset="0.51" stop-color="#41A2E9"/>
<stop offset="0.74" stop-color="#2A93E0"/>
<stop offset="0.88" stop-color="#1988D9"/>
</linearGradient>
<clipPath id="clip0_972_326">
<rect width="99.2799" height="99.28" fill="white"/>
</clipPath>
</defs>
</svg>
