<svg width="100" height="100" viewBox="0 0 100 100" fill="none" xmlns="http://www.w3.org/2000/svg">
<g clip-path="url(#clip0)">
<path d="M49.6401 96.4501C40.382 96.4501 31.3317 93.7047 23.6339 88.5612C15.936 83.4176 9.93624 76.1069 6.3933 67.5535C2.85036 59.0001 1.92337 49.5882 3.72954 40.5079C5.53571 31.4277 9.99394 23.0869 16.5404 16.5404C23.0869 9.99394 31.4277 5.53571 40.5079 3.72954C49.5882 1.92337 59.0001 2.85036 67.5535 6.3933C76.1069 9.93624 83.4176 15.936 88.5612 23.6339C93.7047 31.3317 96.4501 40.382 96.4501 49.6401C96.4505 55.7874 95.24 61.8746 92.8878 67.554C90.5355 73.2335 87.0875 78.3939 82.7407 82.7407C78.3939 87.0875 73.2335 90.5355 67.554 92.8878C61.8746 95.24 55.7874 96.4505 49.6401 96.4501V96.4501Z" fill="url(#paint0_linear)"/>
<path fill-rule="evenodd" clip-rule="evenodd" d="M95.54 49.64C95.54 58.7182 92.848 67.5924 87.8045 75.1407C82.7609 82.6889 75.5923 88.572 67.2052 92.0461C58.818 95.5201 49.5891 96.4291 40.6854 94.658C31.7816 92.887 23.603 88.5154 17.1838 82.0962C10.7646 75.677 6.39302 67.4984 4.62196 58.5946C2.85089 49.6909 3.75987 40.462 7.23393 32.0748C10.708 23.6877 16.5911 16.5191 24.1393 11.4755C31.6875 6.43198 40.5618 3.73999 49.64 3.73999C55.6677 3.73997 61.6363 4.92719 67.2052 7.23387C72.774 9.54056 77.834 12.9215 82.0963 17.1837C86.3585 21.446 89.7394 26.5059 92.0461 32.0748C94.3528 37.6436 95.54 43.6123 95.54 49.64V49.64ZM49.64 3.62732e-07C59.4579 3.62732e-07 69.0552 2.91134 77.2185 8.36585C85.3818 13.8204 91.7442 21.5731 95.5014 30.6436C99.2585 39.7141 100.242 49.6951 98.3262 59.3243C96.4108 68.9535 91.6831 77.7985 84.7408 84.7408C77.7985 91.6831 68.9535 96.4108 59.3243 98.3262C49.6951 100.242 39.7141 99.2585 30.6436 95.5014C21.5731 91.7442 13.8204 85.3818 8.36584 77.2185C2.91133 69.0552 -1.61629e-06 59.4579 3.61524e-07 49.64C-0.000786426 43.1209 1.28265 36.6656 3.77702 30.6427C6.27138 24.6197 9.92781 19.1471 14.5375 14.5375C19.1471 9.9278 24.6197 6.27138 30.6427 3.77701C36.6656 1.28265 43.121 -0.000787738 49.64 3.62732e-07V3.62732e-07Z" fill="#F2F1F0"/>
<path fill-rule="evenodd" clip-rule="evenodd" d="M92.7296 49.6401C92.7296 58.1625 90.2024 66.4935 85.4676 73.5796C80.7328 80.6657 74.0031 86.1886 66.1294 89.45C58.2558 92.7114 49.5918 93.5647 41.2332 91.9021C32.8745 90.2395 25.1966 86.1355 19.1704 80.1093C13.1441 74.083 9.0402 66.4051 7.37756 58.0465C5.71493 49.6879 6.56825 41.0239 9.82963 33.1502C13.091 25.2766 18.614 18.5468 25.7001 13.812C32.7862 9.07724 41.1172 6.55006 49.6396 6.55006C55.2984 6.54971 60.9018 7.66404 66.1298 9.82939C71.3579 11.9947 76.1083 15.1687 80.1096 19.1701C84.1109 23.1714 87.2849 27.9217 89.4503 33.1498C91.6156 38.3779 92.7299 43.9813 92.7296 49.6401ZM49.6396 2.81006C58.9017 2.81006 67.9558 5.55659 75.657 10.7023C83.3581 15.8481 89.3604 23.1619 92.9049 31.719C96.4493 40.2761 97.3767 49.692 95.5698 58.7761C93.7628 67.8603 89.3027 76.2046 82.7534 82.7539C76.2041 89.3032 67.8598 93.7633 58.7757 95.5702C49.6916 97.3772 40.2756 96.4498 31.7185 92.9053C23.1615 89.3609 15.8476 83.3586 10.7019 75.6574C5.55613 67.9563 2.8096 58.9022 2.8096 49.6401C2.81079 37.2203 7.74504 25.3096 16.5271 16.5276C25.3092 7.7455 37.2199 2.81125 49.6396 2.81006V2.81006Z" fill="#0078D4"/>
<path fill-rule="evenodd" clip-rule="evenodd" d="M92.7295 49.6401C92.7295 58.1625 90.2023 66.4935 85.4675 73.5796C80.7327 80.6657 74.003 86.1887 66.1293 89.4501C58.2556 92.7114 49.5917 93.5648 41.233 91.9021C32.8744 90.2395 25.1965 86.1356 19.1702 80.1093C13.144 74.0831 9.04008 66.4052 7.37744 58.0465C5.7148 49.6879 6.56813 41.0239 9.82951 33.1503C13.0909 25.2766 18.6138 18.5469 25.7 13.8121C32.7861 9.07728 41.1171 6.5501 49.6395 6.5501C55.2982 6.54975 60.9016 7.66408 66.1297 9.82943C71.3578 11.9948 76.1081 15.1688 80.1095 19.1701C84.1108 23.1714 87.2848 27.9218 89.4501 33.1499C91.6155 38.3779 92.7298 43.9813 92.7295 49.6401V49.6401ZM49.6395 2.8101C58.9016 2.8101 67.9557 5.55663 75.6568 10.7024C83.358 15.8481 89.3603 23.162 92.9048 31.719C96.4492 40.2761 97.3766 49.692 95.5696 58.7762C93.7627 67.8603 89.3026 76.2046 82.7533 82.7539C76.204 89.3032 67.8597 93.7633 58.7756 95.5703C49.6914 97.3772 40.2755 96.4498 31.7184 92.9054C23.1614 89.3609 15.8475 83.3586 10.7018 75.6575C5.55601 67.9563 2.80948 58.9022 2.80948 49.6401C2.81066 37.2204 7.7449 25.3097 16.527 16.5276C25.309 7.7455 37.2197 2.81125 49.6395 2.81006V2.8101Z" fill="#0078D4"/>
<path d="M44.9381 39.9121H30.7909C30.0769 39.9142 29.3927 40.1988 28.8878 40.7037C28.3829 41.2086 28.0983 41.8928 28.0962 42.6068V54.8846H71.2115V46.6489C71.2095 45.9348 70.9249 45.2505 70.42 44.7456C69.9151 44.2407 69.2308 43.9561 68.5168 43.9542H48.3065L44.9381 39.9121Z" fill="url(#paint1_linear)"/>
<path fill-rule="evenodd" clip-rule="evenodd" d="M35.8126 19.5723C35.0404 19.5745 34.3005 19.8822 33.7545 20.4282C33.2085 20.9742 32.9008 21.7141 32.8986 22.4863V63.2817C32.9008 64.0538 33.2085 64.7937 33.7545 65.3397C34.3005 65.8857 35.0404 66.1934 35.8126 66.1957H63.4952C64.2673 66.1935 65.0073 65.8858 65.5533 65.3398C66.0993 64.7938 66.407 64.0539 66.4091 63.2817V31.2282L54.7533 19.5723H35.8126Z" fill="white"/>
<path fill-rule="evenodd" clip-rule="evenodd" d="M57.6672 31.2282H66.4091L54.7533 19.5723V28.3142C54.7555 29.0863 55.0632 29.8262 55.6092 30.3722C56.1552 30.9182 56.8951 31.2259 57.6672 31.2282Z" fill="#E8E8E8"/>
<path d="M55.6256 47.1849C54.0363 48.7707 51.8829 49.6613 49.6377 49.6613C47.3926 49.6614 45.2391 48.7709 43.6498 47.1851C43.6039 47.1393 43.5654 47.0896 43.5208 47.0431L42.2591 47.6967C42.2146 47.7197 42.1649 47.7306 42.1149 47.7283C42.0648 47.726 42.0163 47.7106 41.9741 47.6836C41.9319 47.6566 41.8976 47.619 41.8746 47.5746C41.8515 47.5301 41.8406 47.4803 41.8429 47.4303L42.0402 43.1202C42.0425 43.0702 42.0579 43.0217 42.0849 42.9795C42.1119 42.9373 42.1495 42.903 42.194 42.88C42.2385 42.8569 42.2882 42.846 42.3382 42.8483C42.3882 42.8506 42.4368 42.866 42.479 42.893L46.1132 45.2185C46.1554 45.2455 46.1898 45.2831 46.2128 45.3276C46.2358 45.372 46.2467 45.4218 46.2445 45.4718C46.2422 45.5218 46.2268 45.5704 46.1998 45.6125C46.1728 45.6547 46.1352 45.689 46.0907 45.7121L44.9416 46.3073C45.8529 47.1463 46.9721 47.7262 48.1831 47.9868C49.3941 48.2474 50.6528 48.1793 51.8285 47.7895C53.0043 47.3997 54.0544 46.7024 54.8698 45.7699C55.6853 44.8375 56.2364 43.7038 56.466 42.4866C56.4844 42.3885 56.5219 42.2951 56.5764 42.2115C56.6309 42.128 56.7014 42.056 56.7837 41.9997C56.866 41.9434 56.9586 41.9039 57.0562 41.8834C57.1538 41.8628 57.2545 41.8617 57.3526 41.8801C57.4506 41.8985 57.5441 41.9361 57.6276 41.9906C57.7111 42.0451 57.7831 42.1155 57.8394 42.1978C57.8957 42.2802 57.9353 42.3728 57.9558 42.4704C57.9763 42.568 57.9774 42.6687 57.959 42.7667C57.646 44.4415 56.8324 45.982 55.6256 47.1849ZM54.334 36.0864L53.1849 36.6815C53.1404 36.7045 53.1028 36.7389 53.0758 36.781C53.0488 36.8232 53.0334 36.8718 53.0311 36.9218C53.0288 36.9718 53.0397 37.0216 53.0628 37.066C53.0858 37.1105 53.1201 37.1481 53.1623 37.1751L56.7965 39.5006C56.8387 39.5276 56.8872 39.543 56.9373 39.5453C56.9873 39.5476 57.037 39.5367 57.0815 39.5136C57.1259 39.4906 57.1636 39.4563 57.1905 39.4141C57.2175 39.3719 57.233 39.3234 57.2352 39.2734L57.4326 34.9634C57.4349 34.9134 57.424 34.8636 57.401 34.8191C57.378 34.7747 57.3436 34.7371 57.3014 34.7101C57.2593 34.6831 57.2107 34.6676 57.1607 34.6654C57.1107 34.6631 57.0609 34.674 57.0165 34.697L55.7548 35.3506C55.7104 35.3042 55.6717 35.2544 55.6261 35.2088C54.5368 34.1193 53.1709 33.3476 51.6755 32.9769C50.1801 32.6061 48.6118 32.6504 47.1397 33.1049C45.6676 33.5594 44.3474 34.4069 43.3212 35.5561C42.2951 36.7053 41.6019 38.1128 41.3164 39.6267C41.298 39.7248 41.2991 39.8255 41.3196 39.9231C41.3402 40.0207 41.3797 40.1133 41.436 40.1956C41.4924 40.2779 41.5643 40.3483 41.6479 40.4029C41.7314 40.4574 41.8249 40.4949 41.9229 40.5132C42.0209 40.5316 42.1216 40.5305 42.2192 40.51C42.3168 40.4895 42.4094 40.4499 42.4917 40.3936C42.5741 40.3373 42.6445 40.2653 42.699 40.1818C42.7535 40.0982 42.791 40.0048 42.8094 39.9067C43.039 38.6895 43.5902 37.5559 44.4057 36.6234C45.2211 35.691 46.2712 34.9937 47.4471 34.6039C48.6229 34.2142 49.8815 34.1461 51.0925 34.4067C52.3035 34.6674 53.4227 35.2473 54.334 36.0864V36.0864Z" fill="url(#paint2_linear)"/>
<path opacity="0.2" d="M66.4091 46.6631H32.8986V48.909H66.4091V46.6631Z" fill="#767676"/>
<path d="M71.2115 52.255V70.2504C71.2115 71.1377 70.859 71.9887 70.2315 72.6161C69.6041 73.2436 68.7531 73.5961 67.8658 73.5961H31.442C30.5547 73.5961 29.7037 73.2436 29.0762 72.6162C28.4488 71.9887 28.0963 71.1377 28.0963 70.2504V52.255C28.0963 51.8156 28.1828 51.3805 28.3509 50.9746C28.5191 50.5687 28.7655 50.1998 29.0762 49.8891C29.3869 49.5785 29.7557 49.332 30.1616 49.1639C30.5676 48.9957 31.0026 48.9092 31.442 48.9092H67.8658C68.3051 48.9092 68.7402 48.9957 69.1461 49.1639C69.552 49.332 69.9209 49.5785 70.2316 49.8891C70.5422 50.1998 70.7887 50.5687 70.9568 50.9746C71.1249 51.3805 71.2115 51.8156 71.2115 52.255Z" fill="url(#paint3_linear)"/>
<path opacity="0.2" d="M38.8653 73.5962H60.4116C61.1323 73.3598 61.7616 72.905 62.212 72.2948C62.6624 71.6846 62.9117 70.9493 62.9253 70.191V69.4854C62.9126 68.673 62.6298 67.8881 62.1213 67.2544C61.6129 66.6207 60.9079 66.1743 60.1177 65.9859L59.3511 65.816L59.772 65.1529C60.1981 64.461 60.3813 63.6468 60.2927 62.8392C60.2041 62.0315 59.8487 61.2764 59.2827 60.6934L58.7837 60.1944C58.1002 59.5281 57.1815 59.1581 56.227 59.1646C55.5547 59.1599 54.8951 59.3472 54.3256 59.7046L53.6626 60.1265L53.4917 59.3579C53.3026 58.5681 52.856 57.8636 52.2222 57.3557C51.5885 56.8478 50.8037 56.5653 49.9917 56.5527H49.2866C48.4743 56.565 47.6892 56.8476 47.0555 57.356C46.4218 57.8644 45.9757 58.5695 45.7876 59.3599L45.6167 60.1274L44.9536 59.7056C44.3843 59.3479 43.7246 59.1604 43.0523 59.165C42.0978 59.158 41.1791 59.5277 40.4956 60.1938L39.9946 60.6938C39.4296 61.2774 39.0749 62.0324 38.9863 62.8398C38.8977 63.6472 39.0803 64.4611 39.5054 65.1533L39.9272 65.8159L39.1597 65.9863C38.3697 66.1749 37.665 66.6212 37.157 67.2548C36.6489 67.8884 36.3664 68.6733 36.354 69.4853V70.1909C36.3675 70.9489 36.6164 71.684 37.0664 72.2942C37.5164 72.9043 38.1451 73.3594 38.8653 73.5962Z" fill="#003067"/>
<path d="M53.166 69.8384C53.166 70.5359 52.9592 71.2178 52.5716 71.7977C52.1841 72.3777 51.6333 72.8297 50.9889 73.0967C50.3444 73.3636 49.6353 73.4334 48.9512 73.2974C48.2671 73.1613 47.6387 72.8254 47.1454 72.3322C46.6522 71.8389 46.3163 71.2105 46.1802 70.5264C46.0442 69.8423 46.114 69.1331 46.3809 68.4887C46.6479 67.8443 47.0999 67.2935 47.6799 66.906C48.2598 66.5184 48.9417 66.3116 49.6392 66.3116C50.5743 66.3127 51.4707 66.6846 52.1318 67.3458C52.793 68.007 53.1649 68.9033 53.166 69.8384V69.8384ZM59.6838 67.9388L58.0439 67.5741C57.8741 67.5124 57.7356 67.3861 57.6584 67.2229C57.653 67.2049 57.6465 67.1872 57.639 67.17L57.1865 66.0703C57.1787 66.0513 57.1699 66.0322 57.1604 66.0139C57.099 65.8453 57.1071 65.6592 57.183 65.4965L58.0851 64.0788C58.2696 63.7718 58.3484 63.4128 58.3094 63.0568C58.2703 62.7007 58.1156 62.3673 57.8689 62.1076L57.3699 61.6086C57.1079 61.3662 56.7749 61.2143 56.42 61.1754C56.0652 61.1365 55.7072 61.2126 55.3988 61.3925L53.9807 62.2942C53.8903 62.3395 53.79 62.3613 53.689 62.3577C53.6119 62.3605 53.535 62.3467 53.4637 62.3172C53.4453 62.3073 53.4263 62.2986 53.4069 62.2911L52.3076 61.8382C52.2903 61.831 52.2726 61.8247 52.2547 61.8192C52.0914 61.7418 51.9652 61.6032 51.9034 61.4334L51.5391 59.7938C51.4525 59.4462 51.2543 59.1366 50.9748 58.9124C50.6953 58.6882 50.3501 58.5619 49.9919 58.5527H49.2866C48.9285 58.5618 48.5833 58.688 48.3038 58.9121C48.0244 59.1363 47.8263 59.4459 47.7397 59.7935L47.375 61.4341C47.3129 61.6035 47.1868 61.7418 47.0237 61.8192C47.0057 61.8245 46.9881 61.8312 46.9705 61.8382L45.8712 62.291C45.8518 62.2986 45.8328 62.3074 45.8144 62.3171C45.7431 62.3468 45.6662 62.3606 45.589 62.3577C45.488 62.361 45.3876 62.3392 45.297 62.2942L43.8796 61.3928C43.5713 61.213 43.2133 61.1369 42.8584 61.1758C42.5036 61.2148 42.1706 61.3666 41.9085 61.609L41.4095 62.1076C41.1628 62.3673 41.008 62.7008 40.969 63.0569C40.9299 63.413 41.0087 63.7721 41.1933 64.0791L42.0955 65.4965C42.1709 65.6591 42.179 65.845 42.118 66.0135C42.1085 66.0322 42.0993 66.0513 42.0916 66.0703L41.6391 67.1699C41.6321 67.1872 41.6254 67.2049 41.6197 67.2228C41.5425 67.3862 41.404 67.5125 41.2342 67.5745L39.5946 67.9385C39.247 68.025 38.9373 68.2233 38.7132 68.5027C38.489 68.7822 38.3627 69.1275 38.3536 69.4857V70.191C38.3627 70.5491 38.4889 70.8943 38.713 71.1737C38.9372 71.4531 39.2467 71.6513 39.5943 71.7379L41.2346 72.1022C41.4042 72.1642 41.5425 72.2905 41.6197 72.4538C41.6254 72.4718 41.6321 72.4894 41.6391 72.5067L42.0916 73.6063C42.0993 73.6253 42.1082 73.6441 42.118 73.6628C42.1791 73.8315 42.1709 74.0175 42.0951 74.1801L41.1933 75.5976C41.0086 75.9045 40.9298 76.2636 40.9688 76.6198C41.0079 76.9759 41.1627 77.3094 41.4095 77.569L41.9085 78.068C42.1707 78.3103 42.5038 78.4621 42.8586 78.501C43.2135 78.5399 43.5715 78.4639 43.88 78.2842L45.2967 77.3824C45.3874 77.3373 45.4878 77.3155 45.5891 77.3189C45.6662 77.3158 45.7432 77.3297 45.8144 77.3595C45.8331 77.3687 45.8518 77.3778 45.8712 77.3856L46.9705 77.8384C46.9881 77.8455 47.0058 77.8518 47.0237 77.8574C47.1869 77.9349 47.313 78.0733 47.375 78.2429L47.7397 79.8829C47.8261 80.2306 48.0243 80.5402 48.3037 80.7644C48.5831 80.9886 48.9284 81.1149 49.2865 81.124H49.9919C50.35 81.1148 50.6952 80.9885 50.9746 80.7643C51.254 80.5401 51.4522 80.2305 51.5387 79.8829L51.9034 78.2429C51.9653 78.0732 52.0915 77.9348 52.2547 77.8574C52.2727 77.8518 52.2903 77.8454 52.3076 77.8384L53.4069 77.3856C53.4262 77.3778 53.4453 77.3687 53.4636 77.3595C53.5348 77.3298 53.6116 77.316 53.6886 77.3189C53.7897 77.3154 53.8901 77.3372 53.9806 77.3824L55.3984 78.2839C55.7068 78.4638 56.0648 78.5399 56.4197 78.5011C56.7746 78.4622 57.1077 78.3104 57.3699 78.068L57.8685 77.5693C58.1154 77.3096 58.2702 76.9761 58.3093 76.6199C58.3484 76.2638 58.2697 75.9046 58.0851 75.5975L57.183 74.1801C57.1455 74.0997 57.1242 74.0126 57.1203 73.9239C57.1164 73.8352 57.1301 73.7466 57.1604 73.6631C57.17 73.6445 57.1788 73.6258 57.1865 73.6067L57.639 72.5067C57.6465 72.4895 57.653 72.4718 57.6584 72.4538C57.7358 72.2904 57.8744 72.1641 58.0442 72.1022L59.6835 71.7379C60.0312 71.6515 60.3409 71.4533 60.5652 71.1739C60.7894 70.8945 60.9158 70.5492 60.9249 70.191V69.4857C60.9159 69.1275 60.7896 68.7823 60.5654 68.5028C60.3412 68.2234 60.0315 68.0253 59.6838 67.9388H59.6838Z" fill="url(#paint4_linear)"/>
<path opacity="0.6" d="M53.166 69.8383C53.166 70.5358 52.9592 71.2177 52.5716 71.7977C52.1841 72.3776 51.6333 72.8297 50.9889 73.0966C50.3444 73.3635 49.6353 73.4334 48.9512 73.2973C48.2671 73.1612 47.6386 72.8253 47.1454 72.3321C46.6522 71.8389 46.3163 71.2105 46.1802 70.5263C46.0441 69.8422 46.114 69.1331 46.3809 68.4887C46.6479 67.8442 47.0999 67.2934 47.6799 66.9059C48.2598 66.5184 48.9417 66.3115 49.6392 66.3115C50.5742 66.3126 51.4706 66.6846 52.1318 67.3457C52.793 68.0069 53.1649 68.9033 53.166 69.8383V69.8383Z" fill="url(#paint5_linear)"/>
</g>
<defs>
<linearGradient id="paint0_linear" x1="47.8698" y1="-15.153" x2="51.8525" y2="130.615" gradientUnits="userSpaceOnUse">
<stop stop-color="#00ABDE"/>
<stop offset="1" stop-color="#007ED8"/>
</linearGradient>
<linearGradient id="paint1_linear" x1="49.6538" y1="39.9121" x2="49.6538" y2="54.9115" gradientUnits="userSpaceOnUse">
<stop stop-color="#005BA1"/>
<stop offset="0.26" stop-color="#00589D"/>
<stop offset="0.53" stop-color="#004F90"/>
<stop offset="0.8" stop-color="#003F7C"/>
<stop offset="1" stop-color="#003067"/>
</linearGradient>
<linearGradient id="paint2_linear" x1="49.6378" y1="32.7324" x2="49.6378" y2="49.6613" gradientUnits="userSpaceOnUse">
<stop stop-color="#008BF1"/>
<stop offset="0.22" stop-color="#0086EC"/>
<stop offset="0.49" stop-color="#0078DD"/>
<stop offset="0.79" stop-color="#0061C4"/>
<stop offset="1" stop-color="#004DAE"/>
</linearGradient>
<linearGradient id="paint3_linear" x1="49.6539" y1="48.9092" x2="49.6539" y2="73.5962" gradientUnits="userSpaceOnUse">
<stop stop-color="#008BF1"/>
<stop offset="0.22" stop-color="#0086EC"/>
<stop offset="0.49" stop-color="#0078DD"/>
<stop offset="0.79" stop-color="#0061C4"/>
<stop offset="1" stop-color="#004DAE"/>
</linearGradient>
<linearGradient id="paint4_linear" x1="49.6392" y1="81.124" x2="49.6392" y2="58.5527" gradientUnits="userSpaceOnUse">
<stop stop-color="#CCCCCC"/>
<stop offset="1" stop-color="white"/>
</linearGradient>
<linearGradient id="paint5_linear" x1="396.245" y1="583.794" x2="396.245" y2="534.042" gradientUnits="userSpaceOnUse">
<stop stop-color="#CCCCCC"/>
<stop offset="1" stop-color="white"/>
</linearGradient>
<clipPath id="clip0">
<rect width="99.2799" height="99.28" fill="white"/>
</clipPath>
</defs>
</svg>
