<svg width="160" height="188" viewBox="0 0 160 188" fill="none" xmlns="http://www.w3.org/2000/svg">
<g clip-path="url(#clip0)">
<path d="M79.6779 188C82.7592 187.994 85.7796 187.141 88.4083 185.534L150.384 147.874C153.165 146.11 155.449 143.665 157.019 140.771C158.589 137.876 159.394 134.628 159.356 131.336V56.6207C159.392 53.3283 158.587 50.0812 157.017 47.1871C155.447 44.2929 153.163 41.8476 150.384 40.0829L88.4083 2.4228C85.7749 0.837605 82.7592 0 79.6855 0C76.6118 0 73.5961 0.837605 70.9627 2.4228L8.9876 40.098C6.2045 41.8604 3.91796 44.3048 2.34499 47.1991C0.772021 50.0935 -0.0351786 53.3418 4.1431e-06 56.6358V131.336C-0.0185283 134.119 0.556189 136.874 1.68588 139.418C2.81557 141.962 4.4743 144.236 6.5516 146.089V146.115L70.9627 185.549C73.5884 187.149 76.6032 187.996 79.6779 188V188ZM80.3257 6.95218C82.2776 6.95218 84.7548 8.1651 86.4646 9.20912L147.222 46.4034C150.974 48.6881 153.09 55.2842 153.09 60.0352L152.458 131.336C152.458 136.087 149.259 140.355 145.506 142.64L85.1104 179.021C81.6758 181.109 78.8854 181.109 75.4507 179.021L14.2427 142.549C10.4903 140.265 7.47191 136.072 7.47191 131.336V57.688C7.50442 55.3228 8.11341 53.0013 9.24608 50.9247C10.3787 48.8482 12.0009 47.0792 13.9718 45.7714L74.548 9.20912C76.2577 8.1651 78.3739 6.95218 80.3257 6.95218Z" fill="#F2F1F0"/>
<path fill-rule="evenodd" clip-rule="evenodd" d="M87.5765 10.5328C85.2056 9.05922 82.4697 8.27832 79.6783 8.27832C76.8868 8.27832 74.1509 9.05922 71.7801 10.5328L15.6454 44.8642C13.1193 46.4758 11.047 48.7062 9.625 51.3436C8.203 53.9811 7.47851 56.9382 7.52026 59.9343V128.037C7.48034 131.033 8.20562 133.99 9.62745 136.627C11.0493 139.264 13.1206 141.494 15.6454 143.107L71.7801 177.438C74.1508 178.912 76.8867 179.693 79.6783 179.693C82.4698 179.693 85.2057 178.912 87.5765 177.438L143.711 143.107C146.236 141.495 148.307 139.264 149.729 136.627C151.151 133.99 151.877 131.033 151.837 128.037V59.9343C151.875 56.9387 151.149 53.9829 149.727 51.346C148.305 48.7092 146.234 46.4783 143.711 44.8642L87.5765 10.5328Z" fill="url(#paint0_linear)"/>
<path fill-rule="evenodd" clip-rule="evenodd" d="M79.6783 9.7539C81.3615 9.7539 83.2442 10.6196 85.311 11.8777L143.777 47.4201C145.668 48.6335 147.218 50.3104 148.278 52.2914C149.339 54.2725 149.875 56.4918 149.837 58.7386V129.217C149.875 131.464 149.339 133.683 148.278 135.664C147.218 137.645 145.668 139.322 143.777 140.535L85.312 176.077L85.311 176.078C83.6408 177.217 81.6958 177.888 79.6783 178.021C77.6609 177.888 75.7158 177.217 74.0456 176.078L74.0446 176.077L15.5823 140.537L15.5801 140.536C13.7918 139.572 12.2668 138.185 11.1383 136.496C10.1614 134.893 9.52031 132.678 9.52031 129.217V58.7386C9.48157 56.4919 10.018 54.2726 11.0785 52.2916C12.139 50.3106 13.6885 48.6336 15.5797 47.4202L74.0365 11.8831L74.0406 11.8807C76.1244 10.6277 77.9846 9.7539 79.6783 9.7539ZM87.3908 8.4609L145.855 44.0021C148.333 45.5722 150.368 47.751 151.765 50.3307C153.162 52.9104 153.876 55.8051 153.837 58.7386V129.217C153.876 132.151 153.162 135.045 151.765 137.625C150.368 140.205 148.333 142.384 145.855 143.954L87.3898 179.495C85.0956 181.02 82.4302 181.893 79.6783 182.021C76.9264 181.893 74.261 181.02 71.9667 179.495H71.9658L13.502 143.953L13.4995 143.952C11.1642 142.659 9.18097 140.814 7.72281 138.578C6.12823 135.725 5.36521 132.482 5.52031 129.217V58.7386C5.48125 55.805 6.19436 52.9103 7.59165 50.3305C8.98894 47.7508 11.0238 45.572 13.5022 44.002L71.9667 8.46025L71.9749 8.45537C74.0655 7.19796 76.7734 5.75391 79.6783 5.75391C82.5645 5.75391 85.2816 7.17699 87.3908 8.46085V8.4609Z" fill="#0078D4"/>
<path opacity="0.2" d="M139.959 132.026L80.409 166.633L20.47 132.027L80.02 97.4199L139.959 132.026Z" fill="#003067"/>
<path d="M140.601 120.649L79.878 155.937L18.767 120.654L79.489 85.3662L140.601 120.649Z" fill="#1B93EB"/>
<path d="M140.601 120.649L140.589 124.755L79.8669 160.043L79.8779 155.937L140.601 120.649Z" fill="#1F56A3"/>
<path d="M79.878 155.937L79.867 160.043L18.755 124.76L18.767 120.654L79.878 155.937Z" fill="#0078D4"/>
<path d="M78.87 56.3641L82.97 53.9815C87.2478 51.5437 93.1545 51.9188 99.6617 55.6757L95.5617 58.0584C89.0545 54.3014 83.1478 53.9264 78.87 56.3641Z" fill="#9CEBFF"/>
<path d="M117.036 86.5047L121.136 84.1221C122.438 88.0814 123.124 92.2174 123.17 96.3852C123.149 103.862 120.485 109.113 116.207 111.551L112.107 113.934C116.385 111.496 119.049 106.245 119.07 98.7678C119.024 94.6001 118.338 90.4641 117.036 86.5047V86.5047Z" fill="#82DFF4"/>
<path d="M95.5618 58.0584L99.6618 55.6758C109.252 61.2126 117.479 72.5541 121.136 84.1219L117.036 86.5046C113.379 74.9368 105.152 63.5952 95.5618 58.0584Z" fill="#32BEDD"/>
<path d="M78.87 56.3643L95.485 85.1509L112.107 113.933C107.822 116.375 101.923 116.005 95.4081 112.243C82.3863 104.725 71.8649 86.5015 71.9074 71.5384C71.9285 64.0526 74.5922 58.8105 78.87 56.3643Z" fill="#0078D4"/>
<path d="M95.5618 58.0586L95.485 85.1509L78.87 56.3643C83.1478 53.9265 89.0545 54.3016 95.5618 58.0586Z" fill="#C3F1FF"/>
<path d="M117.036 86.5051C118.339 90.4644 119.024 94.6004 119.07 98.7682C119.049 106.245 116.385 111.496 112.107 113.934L95.485 85.1514L117.036 86.5051Z" fill="#9CEBFF"/>
<path d="M95.5617 58.0586C105.152 63.5954 113.379 74.937 117.036 86.5047L95.485 85.151L95.5617 58.0586Z" fill="#50E6FF"/>
<path d="M83.6722 78.2195L82.1473 79.1056C82.5693 78.9101 83.0358 78.8308 83.4987 78.876C83.9615 78.9213 84.4039 79.0893 84.7801 79.3628C85.22 79.6207 85.6271 79.9309 85.9924 80.2867L87.5173 79.4005C87.152 79.0448 86.7449 78.7345 86.3049 78.4767C85.9288 78.2032 85.4864 78.0351 85.0236 77.9899C84.5607 77.9447 84.0942 78.024 83.6722 78.2195V78.2195Z" fill="#E8E8E8"/>
<path d="M102.706 82.9981C102.294 82.7552 101.855 82.5619 101.397 82.4224C100.142 79.2574 97.9225 76.5676 95.0535 74.7341C92.9652 73.5283 91.0735 73.4161 89.707 74.2102L88.1821 75.0964C89.5487 74.3022 91.4403 74.4145 93.5286 75.6202C96.3976 77.4538 98.617 80.1436 99.8723 83.3086C100.33 83.4481 100.769 83.6413 101.181 83.8843C102.879 84.9889 104.292 86.4795 105.305 88.2344C106.317 89.9893 106.9 91.9587 107.006 93.9819C107.007 94.3867 106.971 94.7908 106.899 95.1892C106.891 95.2461 106.872 95.3009 106.864 95.3666C106.761 95.8407 106.587 96.2967 106.349 96.7196C106.322 96.7655 106.287 96.8027 106.26 96.8486C106.013 97.2141 105.687 97.5199 105.307 97.7436L106.832 96.8575C107.212 96.6337 107.538 96.328 107.785 95.9625C107.812 95.9165 107.846 95.8793 107.873 95.8334C108.112 95.4106 108.285 94.9546 108.389 94.4804C108.397 94.4147 108.416 94.36 108.424 94.303C108.496 93.9047 108.532 93.5006 108.531 93.0958C108.425 91.0726 107.842 89.1032 106.829 87.3483C105.817 85.5934 104.404 84.1028 102.706 82.9981V82.9981Z" fill="#E8E8E8"/>
<path d="M93.5286 75.6198C96.3976 77.4534 98.6169 80.1432 99.8722 83.3082C100.33 83.4476 100.769 83.6409 101.181 83.8839C102.879 84.9885 104.292 86.4791 105.305 88.234C106.317 89.9889 106.9 91.9583 107.006 93.9815C107.007 94.3863 106.971 94.7904 106.899 95.1888C106.891 95.2457 106.872 95.3005 106.864 95.3662C106.761 95.8403 106.587 96.2963 106.349 96.7192C106.322 96.7651 106.287 96.8023 106.26 96.8482C105.247 98.3181 103.329 98.6063 101.135 97.34L84.3899 87.6325C83.4177 86.914 82.616 85.99 82.0418 84.9262C81.4676 83.8624 81.1351 82.685 81.068 81.478C81.0747 79.1287 82.7394 78.1844 84.7801 79.3627C85.2201 79.6205 85.6272 79.9307 85.9925 80.2865C85.9852 80.1638 85.9855 80.0498 85.9859 79.9315C85.9994 75.1494 89.3747 73.2215 93.5286 75.6198Z" fill="white"/>
<path d="M26.071 60.4814L25.422 60.8564L25.558 108.822L26.207 108.447L26.071 60.4814Z" fill="white"/>
<path d="M31.8273 80.5618C31.5477 80.7429 31.3151 80.9877 31.1486 81.2762C30.982 81.5647 30.8863 81.8886 30.8693 82.2213L30.8853 87.8837C30.887 88.4907 31.3127 88.7433 31.8497 88.4333L62.0311 71.008C62.3098 70.826 62.5418 70.5809 62.7082 70.2926C62.8747 70.0043 62.9709 69.6809 62.9892 69.3485L62.9732 63.6861C62.9715 63.0791 62.5371 62.8315 62.0088 63.1365L31.8273 80.5618Z" fill="#50E6FF"/>
<path d="M31.7922 68.1326C31.5126 68.3137 31.28 68.5586 31.1134 68.8471C30.9469 69.1356 30.8511 69.4595 30.8341 69.7921L30.8501 75.4545C30.8518 76.0615 31.2775 76.3141 31.8144 76.0042L55.7604 62.179C56.0392 61.997 56.2712 61.7519 56.4376 61.4636C56.6041 61.1752 56.7003 60.8518 56.7186 60.5194L56.7025 54.857C56.7008 54.25 56.2664 54.0024 55.7381 54.3074L31.7922 68.1326Z" fill="#C3F1FF"/>
<path d="M31.8626 92.9906C31.583 93.1717 31.3504 93.4166 31.1838 93.7051C31.0173 93.9936 30.9216 94.3175 30.9045 94.6502L30.9205 100.313C30.9223 100.92 31.348 101.172 31.8849 100.862L47.7941 91.677C48.0728 91.4949 48.3048 91.2499 48.4712 90.9616C48.6377 90.6732 48.734 90.3498 48.7522 90.0174L48.7362 84.355C48.7345 83.748 48.3 83.5005 47.7718 83.8054L31.8626 92.9906Z" fill="#0078D4"/>
<path d="M25.8106 59.0572C25.4509 59.2912 25.1516 59.6069 24.9371 59.9785C24.7225 60.3501 24.5988 60.7671 24.5759 61.1956C24.5782 61.9806 25.1355 62.2981 25.8187 61.9037C26.1783 61.6697 26.4776 61.354 26.6921 60.9824C26.9067 60.6108 27.0304 60.1938 27.0532 59.7653C27.051 58.9803 26.4938 58.6627 25.8106 59.0572Z" fill="white"/>
<path d="M25.8106 107.023C25.4509 107.257 25.1516 107.573 24.9371 107.944C24.7225 108.316 24.5988 108.733 24.5759 109.161C24.5782 109.946 25.1355 110.264 25.8187 109.87C26.1783 109.636 26.4776 109.32 26.6921 108.948C26.9067 108.577 27.0304 108.16 27.0532 107.731C27.051 106.946 26.4938 106.629 25.8106 107.023Z" fill="white"/>
<path opacity="0.3" d="M59.2324 136.998C59.738 137.706 60.3977 138.289 61.1616 138.704C61.5832 138.946 62.0225 139.154 62.4757 139.329C65.5129 140.429 68.8398 140.429 71.877 139.329L72.12 139.23C79.2404 141.09 87.9069 140.343 93.7435 136.951C97.2689 134.902 99.1215 132.253 99.3318 129.571C99.9075 129.385 100.462 129.14 100.988 128.84C104.279 126.927 104.262 123.833 100.949 121.92C100.75 121.805 100.551 121.701 100.343 121.602C102.095 120.258 101.912 118.32 99.7849 117.091C98.017 116.182 96.0019 115.87 94.0418 116.203L93.7081 116.26C92.9687 116.363 92.2544 116.6 91.6009 116.961L59.7468 135.472L59.7471 135.472C59.0725 135.874 58.8776 136.47 59.2324 136.998Z" fill="#003067"/>
<path d="M89.5063 107.408L89.39 107.601C89.1257 108.124 88.7056 108.551 88.1878 108.824L88.1714 114.603C88.6891 114.33 89.1092 113.902 89.3734 113.38L89.4897 113.186C89.6114 112.915 89.6754 112.622 89.6776 112.324L89.6939 106.546C89.6917 106.843 89.6278 107.137 89.5063 107.408V107.408Z" fill="#1F56A3"/>
<path d="M98.1187 111.403L98.1023 117.182C98.078 117.594 97.9578 117.995 97.7514 118.353C97.545 118.711 97.2581 119.016 96.9133 119.243L96.9297 113.465C97.2745 113.237 97.5614 112.932 97.7678 112.575C97.9742 112.217 98.0943 111.816 98.1187 111.403V111.403Z" fill="#1F56A3"/>
<path d="M48.0482 121.279L48.0646 115.5C48.0948 117.213 48.7094 118.865 49.8066 120.181L49.7902 125.959C48.693 124.643 48.0784 122.992 48.0482 121.279Z" fill="#0078D4"/>
<path d="M97.575 120.703C97.0494 121.003 96.4944 121.248 95.9187 121.435L95.9025 127.214C96.478 127.027 97.0329 126.782 97.5584 126.482C99.1937 125.532 100.012 124.29 100.016 123.046L100.032 117.268C100.029 118.511 99.2101 119.753 97.575 120.703Z" fill="#1F56A3"/>
<path d="M90.3304 128.814C84.4939 132.206 75.8274 132.953 68.707 131.093L68.464 131.192C65.4268 132.292 62.0999 132.292 59.0626 131.192C58.6094 131.017 58.1701 130.809 57.7485 130.568C57.2259 130.271 56.7477 129.902 56.328 129.472L56.3341 127.335C55.5177 127.737 54.5875 127.844 53.7012 127.638C52.6658 127.418 51.6696 127.042 50.7461 126.525C50.3608 126.304 49.9965 126.049 49.6575 125.762C49.2299 125.437 48.8792 125.022 48.6304 124.546C48.3815 124.071 48.2406 123.546 48.2177 123.009L48.2013 128.788C48.2242 129.325 48.3651 129.849 48.614 130.325C48.8629 130.801 49.2136 131.216 49.6412 131.541C49.9801 131.827 50.3444 132.083 50.7296 132.303C51.6531 132.821 52.6493 133.196 53.6847 133.417C54.3277 133.556 54.9945 133.542 55.6309 133.375L55.6288 134.103C55.6312 134.295 55.6919 134.482 55.8029 134.64C56.3086 135.347 56.9682 135.931 57.7321 136.346C58.1537 136.587 58.593 136.796 59.0462 136.971C62.0835 138.071 65.4105 138.071 68.4478 136.971L68.6908 136.871C75.8109 138.732 84.4775 137.984 90.314 134.593C93.8392 132.544 95.6921 129.894 95.9025 127.213L95.9188 121.435C95.7085 124.116 93.8558 126.765 90.3304 128.814Z" fill="#1F56A3"/>
<path d="M97.5359 113.784C97.3369 113.669 97.1378 113.564 96.9298 113.465C98.6816 112.122 98.4992 110.183 96.3718 108.955C94.6039 108.045 92.5888 107.733 90.6287 108.066L90.2951 108.124C89.5557 108.226 88.8414 108.464 88.1879 108.824C88.7056 108.551 89.1257 108.123 89.3899 107.601L89.5063 107.408C90.0138 106.253 89.4924 104.983 87.9355 104.084C86.7351 103.478 85.4185 103.137 84.0749 103.084C82.7313 103.031 81.3919 103.266 80.1473 103.776C79.9752 103.655 79.785 103.535 79.586 103.42C77.737 102.479 75.6915 101.989 73.6169 101.99C71.5422 101.991 69.4971 102.483 67.6489 103.426C67.1887 103.691 66.7632 104.012 66.3824 104.382C61.943 104.426 57.5806 105.547 53.6698 107.648C47.8333 111.04 46.5712 116.063 49.8066 120.181L49.627 120.317C49.1891 120.624 48.8322 121.033 48.5868 121.509C48.3414 121.985 48.2148 122.512 48.2178 123.048C48.2208 123.583 48.3533 124.109 48.604 124.582C48.8547 125.055 49.2162 125.46 49.6575 125.762C49.9964 126.049 50.3608 126.304 50.746 126.525C51.6695 127.043 52.6657 127.418 53.7011 127.639C54.5873 127.844 55.5174 127.737 56.3337 127.336L56.3339 127.336C55.6594 127.738 55.4645 128.334 55.8193 128.862C56.325 129.569 56.9846 130.152 57.7485 130.568C58.1701 130.809 58.6094 131.018 59.0627 131.192C62.0999 132.292 65.4268 132.292 68.464 131.192L68.707 131.093C75.8273 132.954 84.4939 132.206 90.3305 128.814C93.8559 126.766 95.7085 124.116 95.9187 121.435C96.4944 121.248 97.0494 121.003 97.575 120.703C100.866 118.79 100.849 115.697 97.5359 113.784Z" fill="#50E6FF"/>
<path d="M89.3899 107.601L89.5062 107.408C90.0139 106.253 89.4924 104.983 87.9355 104.084C86.735 103.478 85.4185 103.137 84.0749 103.084C82.7312 103.031 81.3918 103.266 80.1473 103.776C79.9753 103.655 79.785 103.535 79.586 103.42C77.737 102.479 75.6915 101.989 73.6169 101.99C71.5422 101.991 69.4972 102.483 67.649 103.426C67.1887 103.691 66.7632 104.012 66.3823 104.382C61.9429 104.426 57.5805 105.547 53.6698 107.648C47.8333 111.04 46.5713 116.063 49.8066 120.181L49.6269 120.317C49.1891 120.624 48.8322 121.033 48.5868 121.509C48.3414 121.985 48.2148 122.512 48.2178 123.048C48.2208 123.583 48.3533 124.109 48.604 124.582C48.8547 125.055 49.2161 125.46 49.6574 125.762C49.9964 126.049 50.3607 126.304 50.746 126.525C51.6695 127.043 52.6657 127.418 53.7011 127.639C54.5873 127.844 55.5174 127.737 56.3337 127.336L88.1878 108.824C88.7056 108.551 89.1257 108.124 89.3899 107.601Z" fill="#9CEBFF"/>
<path d="M85.1089 128.754C84.9493 128.674 84.7732 128.633 84.5947 128.633C84.4162 128.633 84.2402 128.674 84.0805 128.754C84.0185 128.776 83.9647 128.816 83.9268 128.87C83.8889 128.924 83.8687 128.988 83.869 129.053C83.8694 129.119 83.8902 129.183 83.9287 129.236C83.9672 129.289 84.0214 129.329 84.0837 129.35C84.2426 129.433 84.419 129.476 84.598 129.476C84.777 129.476 84.9534 129.433 85.1124 129.35C85.1744 129.329 85.2282 129.288 85.2661 129.234C85.304 129.181 85.3242 129.117 85.3238 129.051C85.3235 128.985 85.3025 128.921 85.264 128.868C85.2254 128.815 85.1712 128.775 85.1089 128.754V128.754Z" fill="white"/>
<path d="M57.8192 122.979C57.6603 122.896 57.484 122.853 57.305 122.854C57.126 122.854 56.9497 122.897 56.7908 122.979C56.5028 123.146 56.5044 123.407 56.7939 123.575C56.9529 123.657 57.1293 123.7 57.3083 123.7C57.4873 123.7 57.6637 123.657 57.8227 123.575C58.1105 123.407 58.109 123.146 57.8192 122.979Z" fill="white"/>
<path d="M53.3628 116.676C53.2035 116.595 53.0273 116.553 52.8486 116.553C52.6699 116.553 52.4937 116.595 52.3344 116.676C52.2731 116.699 52.2202 116.739 52.183 116.793C52.1457 116.846 52.1259 116.91 52.1262 116.975C52.1266 117.04 52.1471 117.104 52.1849 117.157C52.2227 117.21 52.276 117.25 52.3375 117.272C52.4981 117.354 52.6756 117.397 52.8558 117.398C53.036 117.399 53.2139 117.358 53.3753 117.277C53.6629 117.11 53.6525 116.843 53.3628 116.676Z" fill="white"/>
<path d="M53.239 120.334C53.0797 120.253 52.9035 120.211 52.7247 120.211C52.5459 120.211 52.3697 120.253 52.2104 120.334C52.1484 120.356 52.0946 120.396 52.0567 120.45C52.0188 120.504 51.9986 120.568 51.999 120.634C51.9994 120.699 52.0203 120.763 52.0589 120.816C52.0974 120.87 52.1516 120.909 52.2139 120.93C52.3728 121.013 52.5492 121.056 52.7282 121.056C52.9072 121.056 53.0835 121.013 53.2424 120.93C53.5303 120.763 53.5285 120.502 53.239 120.334Z" fill="white"/>
<path d="M90.4625 121.27C90.4004 121.292 90.3467 121.332 90.3087 121.386C90.2708 121.439 90.2506 121.503 90.251 121.569C90.2513 121.635 90.2723 121.699 90.3108 121.752C90.3493 121.805 90.4035 121.845 90.4658 121.866C90.6247 121.948 90.8011 121.991 90.9801 121.991C91.1591 121.991 91.3355 121.948 91.4945 121.866C91.7821 121.698 91.7807 121.437 91.491 121.27C91.3317 121.189 91.1555 121.146 90.9767 121.146C90.798 121.146 90.6217 121.189 90.4625 121.27V121.27Z" fill="white"/>
<path d="M83.0809 122.666C83.241 122.749 83.4186 122.793 83.599 122.794C83.7794 122.795 83.9574 122.752 84.1183 122.671C84.3973 122.509 84.3956 122.237 84.106 122.07C83.9464 121.99 83.7703 121.948 83.5918 121.948C83.4132 121.948 83.2371 121.99 83.0775 122.07C83.0154 122.091 82.9616 122.132 82.9237 122.185C82.8858 122.239 82.8656 122.303 82.866 122.369C82.8664 122.435 82.8873 122.499 82.9258 122.552C82.9644 122.605 83.0186 122.645 83.0809 122.666V122.666Z" fill="white"/>
<path d="M92.4358 122.41C91.9855 122.638 91.4879 122.757 90.9831 122.757C90.4784 122.757 89.9808 122.638 89.5305 122.41C89.3557 122.35 89.204 122.237 89.0966 122.087C88.9892 121.936 88.9314 121.756 88.9314 121.571C88.9313 121.386 88.989 121.206 89.0964 121.056C89.2037 120.905 89.3554 120.792 89.5301 120.732C89.5599 120.721 89.5855 120.701 89.6035 120.675C89.6214 120.648 89.631 120.617 89.6308 120.585C89.6306 120.554 89.6207 120.523 89.6024 120.496C89.5841 120.47 89.5583 120.451 89.5284 120.44C89.4502 120.4 89.3636 120.379 89.2758 120.379C89.188 120.379 89.1014 120.4 89.0232 120.44C88.0383 121.012 87.9656 121.916 88.7994 122.541L89.0341 122.405C89.1104 122.365 89.1959 122.345 89.282 122.348C89.1959 122.345 89.1105 122.365 89.0343 122.405L88.7994 122.541L78.7729 128.368L70.3003 123.476L72.8904 121.971L72.989 121.83L72.8798 121.684L69.8835 119.954L73.2919 117.973L76.2882 119.703C76.3668 119.741 76.4532 119.762 76.5408 119.762C76.6284 119.762 76.7148 119.741 76.7934 119.703C76.8232 119.691 76.8488 119.671 76.8668 119.645C76.8848 119.619 76.8944 119.588 76.8942 119.556C76.894 119.524 76.8841 119.493 76.8658 119.467C76.8475 119.441 76.8217 119.421 76.7918 119.41L73.7955 117.68L75.2254 116.849L78.2942 118.621L78.5381 118.678L78.7903 118.626L87.0909 113.802C87.2259 113.724 87.2162 113.593 87.0805 113.515C87.0043 113.474 86.9194 113.452 86.833 113.452C86.7466 113.451 86.6612 113.471 86.5842 113.51L78.5355 118.187L75.7201 116.562L86.6019 110.238C86.6324 110.228 86.6588 110.208 86.6775 110.181C86.6962 110.155 86.7061 110.123 86.7059 110.091C86.7057 110.059 86.6954 110.027 86.6765 110.001C86.6575 109.975 86.6308 109.956 86.6001 109.945C86.5228 109.908 86.4376 109.888 86.3515 109.889C86.2654 109.89 86.1807 109.911 86.1041 109.951L75.2223 116.274L72.4615 114.68L80.5102 110.003C80.6452 109.925 80.6445 109.799 80.4998 109.716C80.4232 109.676 80.3384 109.655 80.2523 109.654C80.1661 109.653 80.0809 109.672 80.0035 109.71L71.7028 114.534L71.6133 114.68L71.7135 114.822L74.7277 116.562L73.2978 117.393L70.3558 115.694C70.2772 115.656 70.1908 115.636 70.1032 115.636C70.0156 115.636 69.9292 115.656 69.8506 115.694C69.8208 115.706 69.7953 115.726 69.7773 115.752C69.7593 115.778 69.7497 115.809 69.7499 115.841C69.75 115.873 69.7599 115.904 69.7782 115.93C69.7965 115.956 69.8223 115.976 69.8521 115.987L72.7941 117.686L69.3857 119.666L69.5757 119.776C69.6027 119.791 69.6267 119.811 69.6467 119.834C69.682 119.844 69.716 119.857 69.7478 119.875C69.716 119.857 69.682 119.844 69.6467 119.834C69.6267 119.811 69.6027 119.791 69.5757 119.776L69.3857 119.666L66.4437 117.968L66.1909 117.905L65.9476 117.963L63.3574 119.468L54.8849 114.576L64.9112 108.749C65.4901 108.989 66.1138 109.101 66.7398 109.077C67.3658 109.053 67.9793 108.895 68.5386 108.613C68.7732 108.531 68.9762 108.377 69.1195 108.174C69.2627 107.971 69.3389 107.728 69.3375 107.479C69.3361 107.231 69.2571 106.989 69.1116 106.787C68.9661 106.586 68.7613 106.435 68.5258 106.355C67.9223 106.047 67.2544 105.887 66.5769 105.887C65.8994 105.887 65.2316 106.047 64.6281 106.355C63.6426 106.928 63.5625 107.828 64.4041 108.457L54.1261 114.43L54.0187 114.576L54.1277 114.722L58.2737 117.116L55.1621 118.924C55.1323 118.936 55.1067 118.956 55.0887 118.982C55.0707 119.008 55.0611 119.039 55.0613 119.071C55.0615 119.103 55.0714 119.134 55.0897 119.16C55.108 119.186 55.1339 119.206 55.1638 119.217C55.2423 119.255 55.3287 119.276 55.4163 119.276C55.5038 119.276 55.5902 119.255 55.6688 119.217L58.7805 117.409L62.8539 119.76L58.9791 122.012C58.4002 121.773 57.7764 121.661 57.1504 121.685C56.5244 121.708 55.9108 121.866 55.3516 122.149C55.117 122.231 54.914 122.384 54.7708 122.588C54.6276 122.791 54.5513 123.034 54.5527 123.282C54.5541 123.531 54.6331 123.773 54.7785 123.974C54.924 124.176 55.1287 124.327 55.3642 124.406C55.9681 124.713 56.6358 124.873 57.3131 124.873C57.9904 124.873 58.6581 124.713 59.262 124.407C60.2469 123.834 60.3198 122.93 59.486 122.305L63.6126 119.907L66.2027 118.401L68.8912 119.954L58.774 125.833C58.63 125.917 58.6307 126.042 58.7664 126.121C58.8442 126.162 58.931 126.183 59.019 126.183C59.1071 126.183 59.1939 126.162 59.2717 126.121L69.3889 120.241L72.1317 121.825L69.5417 123.33L65.4149 125.728C64.836 125.489 64.2123 125.377 63.5863 125.4C62.9603 125.424 62.3468 125.582 61.7875 125.865C61.757 125.875 61.7306 125.895 61.7119 125.921C61.6933 125.948 61.6833 125.979 61.6835 126.011C61.6837 126.044 61.694 126.075 61.7129 126.101C61.7318 126.127 61.7585 126.147 61.7891 126.157C61.8677 126.196 61.9542 126.216 62.0418 126.216C62.1294 126.216 62.2158 126.196 62.2945 126.157C62.7427 125.928 63.2386 125.809 63.7419 125.808C64.2452 125.807 64.7415 125.925 65.1906 126.152C65.9874 126.622 66.0006 127.37 65.2001 127.835C65.0653 127.913 65.057 128.044 65.1927 128.122C65.2709 128.162 65.3575 128.183 65.4453 128.183C65.5332 128.183 65.6198 128.162 65.698 128.122C66.6828 127.55 66.7558 126.646 65.9218 126.021L69.7966 123.769L73.8703 126.121L70.7585 127.929C70.7288 127.94 70.7032 127.96 70.6852 127.987C70.6672 128.013 70.6577 128.044 70.6579 128.076C70.6581 128.108 70.668 128.139 70.6863 128.165C70.7046 128.191 70.7304 128.211 70.7603 128.222C70.8389 128.26 70.9253 128.28 71.0129 128.28C71.1005 128.28 71.187 128.26 71.2656 128.222L74.377 126.413L78.5228 128.807L78.7758 128.87L79.0282 128.807L89.3062 122.834C89.8848 123.075 90.5087 123.187 91.1349 123.163C91.7611 123.14 92.3748 122.981 92.9337 122.697C93.0685 122.619 93.0768 122.488 92.9409 122.41C92.8627 122.37 92.7762 122.349 92.6884 122.349C92.6006 122.349 92.514 122.37 92.4358 122.41ZM75.0058 116.72C75.0153 116.727 75.0252 116.734 75.0354 116.74C75.0246 116.733 75.0149 116.727 75.0056 116.72C74.9942 116.715 74.9829 116.709 74.972 116.703C74.9829 116.709 74.9942 116.715 75.0058 116.72H75.0058ZM65.1259 106.643C65.5761 106.415 66.0738 106.296 66.5785 106.296C67.0832 106.296 67.5809 106.414 68.0311 106.642C68.2052 106.703 68.356 106.817 68.4627 106.967C68.5694 107.117 68.6268 107.297 68.6269 107.481C68.6269 107.665 68.5697 107.845 68.463 107.996C68.3564 108.146 68.2056 108.259 68.0317 108.32C67.583 108.548 67.0872 108.667 66.5841 108.668C66.0811 108.669 65.5848 108.551 65.1354 108.325C64.3388 107.855 64.3256 107.108 65.1259 106.643H65.1259ZM58.7642 124.119C58.3136 124.346 57.816 124.464 57.3115 124.464C56.807 124.464 56.3094 124.346 55.8588 124.119C55.6843 124.058 55.533 123.945 55.4255 123.795C55.318 123.645 55.2597 123.465 55.2587 123.281C55.2577 123.096 55.314 122.916 55.4198 122.765C55.5256 122.613 55.6757 122.499 55.8494 122.436C56.3001 122.209 56.7975 122.091 57.302 122.091C57.8065 122.091 58.3039 122.209 58.7545 122.436C58.929 122.497 59.0805 122.61 59.188 122.76C59.2955 122.91 59.3538 123.09 59.3549 123.274C59.356 123.459 59.2997 123.639 59.1939 123.791C59.0881 123.942 58.938 124.057 58.7642 124.119H58.7642Z" fill="white"/>
<path d="M89.545 124.981C89.3857 124.9 89.2094 124.857 89.0306 124.857C88.8518 124.857 88.6756 124.9 88.5163 124.981C88.2287 125.148 88.23 125.409 88.5198 125.577C88.6791 125.658 88.8553 125.7 89.0341 125.7C89.2129 125.7 89.3892 125.658 89.5485 125.577C89.6097 125.554 89.6626 125.514 89.6998 125.46C89.7371 125.407 89.7569 125.343 89.7565 125.278C89.7561 125.212 89.7356 125.149 89.6977 125.096C89.6599 125.043 89.6065 125.003 89.545 124.981V124.981Z" fill="white"/>
<path d="M92.1458 114.189C91.9857 114.105 91.8081 114.061 91.6276 114.061C91.4472 114.06 91.2691 114.102 91.1081 114.183C90.8205 114.351 90.831 114.617 91.1206 114.784C91.2799 114.866 91.4561 114.908 91.6349 114.908C91.8137 114.908 91.99 114.866 92.1493 114.784C92.2113 114.763 92.2651 114.722 92.303 114.669C92.3409 114.615 92.3611 114.551 92.3607 114.485C92.3603 114.42 92.3394 114.356 92.3009 114.302C92.2623 114.249 92.2081 114.209 92.1458 114.189Z" fill="white"/>
<path d="M93.5758 113.358C92.9711 113.049 92.3019 112.888 91.623 112.887C90.944 112.886 90.2745 113.045 89.669 113.353C88.6835 113.925 88.6112 114.83 89.454 115.46L77.6023 122.347L74.6605 120.648C74.5822 120.608 74.4956 120.588 74.4078 120.588C74.32 120.588 74.2334 120.608 74.1551 120.648C74.0203 120.727 74.03 120.857 74.1659 120.936L77.1077 122.634L75.5788 123.523L75.4713 123.669L75.5805 123.815L78.3505 125.415L78.6033 125.477L78.8556 125.415L81.9208 123.633C82.4992 123.875 83.1233 123.988 83.7497 123.965C84.3762 123.941 84.99 123.781 85.5485 123.497C85.7839 123.415 85.9878 123.262 86.1317 123.059C86.2756 122.856 86.3523 122.612 86.3509 122.363C86.3495 122.114 86.2702 121.872 86.1241 121.67C85.9779 121.469 85.7723 121.318 85.5361 121.239C84.9322 120.932 84.2644 120.772 83.5871 120.772C82.9099 120.772 82.2421 120.932 81.6382 121.239C80.642 121.818 80.5787 122.722 81.4221 123.346L78.6006 124.986L76.3196 123.669L89.9511 115.747C90.531 115.989 91.1564 116.102 91.7843 116.08C92.4122 116.057 93.0277 115.899 93.5886 115.615C93.8231 115.533 94.0261 115.38 94.1693 115.177C94.3125 114.973 94.3887 114.731 94.3872 114.482C94.3858 114.233 94.3069 113.992 94.1614 113.79C94.016 113.588 93.8112 113.437 93.5758 113.358ZM82.145 121.532C82.5921 121.304 83.0869 121.185 83.5887 121.185C84.0906 121.185 84.5854 121.304 85.0325 121.532C85.8379 121.997 85.8511 122.744 85.0508 123.209C84.601 123.438 84.1032 123.558 83.5983 123.558C83.0933 123.558 82.5956 123.439 82.1457 123.209C82.1751 123.222 82.2007 123.242 82.2198 123.268C82.2389 123.293 82.251 123.324 82.2547 123.356C82.251 123.324 82.2389 123.293 82.2198 123.268C82.2007 123.242 82.1751 123.222 82.1457 123.209C81.9709 123.149 81.8192 123.036 81.7118 122.886C81.6043 122.736 81.5465 122.555 81.5465 122.371C81.5464 122.186 81.604 122.006 81.7113 121.855C81.8186 121.705 81.9703 121.592 82.145 121.532V121.532ZM93.0817 115.323C92.6331 115.55 92.1372 115.669 91.6342 115.67C91.1311 115.671 90.6348 115.554 90.1854 115.328C89.3888 114.858 89.3754 114.11 90.176 113.645C90.6259 113.416 91.1237 113.296 91.6286 113.296C92.1335 113.296 92.6313 113.416 93.0812 113.645C93.256 113.705 93.4077 113.818 93.5151 113.969C93.6225 114.119 93.6803 114.299 93.6803 114.484C93.6804 114.669 93.6227 114.849 93.5154 114.999C93.4081 115.15 93.2564 115.263 93.0817 115.323V115.323Z" fill="white"/>
<path d="M64.2552 126.695C64.0964 126.612 63.92 126.569 63.741 126.569C63.5621 126.569 63.3857 126.612 63.2269 126.695C62.9389 126.862 62.9404 127.123 63.23 127.291C63.3889 127.373 63.5653 127.416 63.7443 127.416C63.9234 127.416 64.0998 127.373 64.2587 127.291C64.5463 127.123 64.5449 126.862 64.2552 126.695Z" fill="white"/>
<path d="M65.743 112.062C65.8043 112.039 65.8571 111.999 65.8944 111.945C65.9316 111.892 65.9514 111.828 65.951 111.763C65.9506 111.697 65.9301 111.634 65.8923 111.581C65.8544 111.528 65.8011 111.488 65.7395 111.466C65.579 111.384 65.4015 111.341 65.2213 111.34C65.0411 111.339 64.8631 111.38 64.7018 111.461C64.4142 111.628 64.4246 111.894 64.7143 112.062C64.8736 112.143 65.0499 112.185 65.2286 112.185C65.4074 112.185 65.5837 112.143 65.743 112.062V112.062Z" fill="white"/>
<path d="M78.303 107.384C78.4623 107.465 78.6385 107.507 78.8173 107.507C78.996 107.507 79.1723 107.465 79.3315 107.384C79.3936 107.362 79.4474 107.322 79.4853 107.268C79.5233 107.215 79.5435 107.151 79.5431 107.085C79.5427 107.019 79.5218 106.955 79.4832 106.902C79.4446 106.849 79.3904 106.809 79.3281 106.788C79.168 106.705 78.9904 106.661 78.81 106.66C78.6296 106.659 78.4516 106.701 78.2907 106.783C78.0027 106.95 78.0135 107.217 78.303 107.384Z" fill="white"/>
<path d="M76.6363 108.059L63.004 115.982L60.723 114.665L63.5443 113.025L63.5445 113.025C64.1242 113.268 64.7497 113.382 65.3779 113.359C66.006 113.336 66.6216 113.177 67.1822 112.893C67.2119 112.881 67.2375 112.861 67.2554 112.835C67.2734 112.809 67.2829 112.778 67.2828 112.746C67.2826 112.714 67.2727 112.683 67.2544 112.657C67.2361 112.631 67.2103 112.611 67.1805 112.6C67.1018 112.561 67.0154 112.541 66.9278 112.541C66.8402 112.541 66.7537 112.561 66.6751 112.6C66.2269 112.829 65.7309 112.949 65.2277 112.95C64.7244 112.951 64.228 112.833 63.779 112.605C63.8071 112.618 63.8314 112.637 63.8492 112.662C63.867 112.687 63.8778 112.717 63.8802 112.747C63.8777 112.717 63.867 112.687 63.8492 112.662C63.8313 112.637 63.8071 112.618 63.779 112.605C63.7011 112.564 63.6144 112.543 63.5263 112.543C63.4382 112.543 63.3515 112.564 63.2736 112.605C63.3515 112.564 63.4382 112.543 63.5263 112.543C63.6144 112.543 63.7011 112.564 63.779 112.605C63.603 112.546 63.4499 112.434 63.341 112.284C63.2322 112.133 63.1731 111.953 63.1721 111.767C63.1711 111.582 63.2282 111.401 63.3353 111.249C63.4425 111.098 63.5943 110.983 63.7696 110.923C63.8002 110.912 63.8266 110.892 63.8453 110.866C63.8639 110.839 63.8738 110.808 63.8737 110.776C63.8735 110.743 63.8632 110.712 63.8442 110.686C63.8252 110.66 63.7986 110.64 63.7679 110.63C63.6905 110.592 63.6053 110.573 63.5191 110.574C63.4329 110.575 63.3482 110.596 63.2716 110.635C62.2778 111.213 62.2048 112.109 63.0474 112.737L59.9822 114.518L59.8748 114.665L59.984 114.811L62.7627 116.415L63.0067 116.473L63.2591 116.41L64.788 115.522L67.7298 117.22C67.8064 117.26 67.8911 117.281 67.9773 117.282C68.0635 117.282 68.1487 117.263 68.2261 117.225C68.3699 117.142 68.3601 117.011 68.2244 116.933L65.2826 115.234L77.1332 108.347C77.7132 108.589 78.3385 108.702 78.9664 108.68C79.5943 108.657 80.2098 108.498 80.7707 108.215C80.8005 108.204 80.8261 108.184 80.8441 108.158C80.8621 108.131 80.8717 108.1 80.8715 108.068C80.8714 108.037 80.8615 108.005 80.8432 107.979C80.8249 107.953 80.7991 107.934 80.7692 107.923C80.6906 107.884 80.6042 107.864 80.5166 107.864C80.429 107.864 80.3426 107.884 80.264 107.923C79.8153 108.15 79.3195 108.269 78.8164 108.27C78.3133 108.271 77.817 108.154 77.3675 107.928C76.5711 107.457 76.5579 106.71 77.3582 106.245C77.388 106.234 77.4136 106.214 77.4316 106.187C77.4496 106.161 77.4591 106.13 77.459 106.098C77.4588 106.066 77.4489 106.035 77.4306 106.009C77.4123 105.983 77.3865 105.963 77.3566 105.952C77.278 105.914 77.1916 105.894 77.104 105.894C77.0163 105.894 76.9299 105.914 76.8513 105.952C75.8657 106.525 75.7933 107.43 76.6363 108.059ZM77.1159 107.865C77.0308 107.862 76.9465 107.882 76.8715 107.923C76.9465 107.882 77.0308 107.862 77.1159 107.865V107.865Z" fill="white"/>
<path d="M71.747 107.975C71.9066 108.054 72.0826 108.096 72.2611 108.096C72.4396 108.096 72.6157 108.054 72.7753 107.975C72.8378 107.953 72.8922 107.913 72.9309 107.86C72.9696 107.806 72.9908 107.742 72.9914 107.676C72.9921 107.61 72.9722 107.546 72.9345 107.491C72.8969 107.437 72.8433 107.396 72.7812 107.374C72.6191 107.291 72.4398 107.248 72.2579 107.248C72.076 107.248 71.8967 107.291 71.7345 107.373C71.4556 107.536 71.4573 107.807 71.747 107.975Z" fill="white"/>
<path d="M59.6711 108.92C59.8312 109.004 60.0088 109.048 60.1893 109.048C60.3697 109.049 60.5478 109.007 60.7087 108.926C60.9875 108.764 60.9859 108.492 60.6964 108.325C60.5367 108.245 60.3606 108.203 60.1821 108.203C60.0036 108.203 59.8275 108.245 59.6678 108.325C59.6058 108.346 59.552 108.387 59.5141 108.44C59.4761 108.494 59.4559 108.558 59.4563 108.624C59.4567 108.689 59.4776 108.753 59.5161 108.807C59.5546 108.86 59.6088 108.9 59.6711 108.92Z" fill="white"/>
<path d="M66.0706 107.782C66.23 107.863 66.4062 107.905 66.585 107.905C66.7638 107.905 66.9401 107.863 67.0994 107.782C67.1614 107.76 67.2152 107.72 67.2531 107.666C67.291 107.613 67.3112 107.548 67.3108 107.483C67.3104 107.417 67.2895 107.353 67.2509 107.3C67.2124 107.247 67.1582 107.207 67.0959 107.186C66.937 107.104 66.7606 107.061 66.5816 107.061C66.4026 107.061 66.2263 107.104 66.0674 107.186C65.7797 107.353 65.7811 107.615 66.0706 107.782Z" fill="white"/>
<path d="M72.6307 104.704C72.79 104.785 72.9663 104.827 73.145 104.827C73.3238 104.827 73.5001 104.785 73.6594 104.704C73.7207 104.681 73.7736 104.641 73.8108 104.587C73.848 104.533 73.8678 104.47 73.8674 104.405C73.8671 104.339 73.8465 104.276 73.8087 104.223C73.7708 104.17 73.7175 104.129 73.6559 104.108C73.4967 104.027 73.3204 103.984 73.1417 103.984C72.9629 103.984 72.7867 104.027 72.6274 104.108C72.3396 104.275 72.341 104.536 72.6307 104.704Z" fill="white"/>
<path d="M85.5089 106.804C85.6698 106.885 85.8479 106.927 86.0283 106.926C86.2087 106.925 86.3864 106.882 86.5464 106.798C86.6085 106.777 86.6622 106.736 86.7001 106.683C86.738 106.629 86.7582 106.565 86.7578 106.499C86.7575 106.434 86.7365 106.37 86.698 106.316C86.6595 106.263 86.6053 106.223 86.543 106.203C86.3833 106.123 86.2073 106.081 86.0287 106.081C85.8502 106.081 85.6741 106.123 85.5144 106.203C85.4519 106.224 85.3976 106.264 85.3589 106.317C85.3202 106.371 85.2991 106.435 85.2985 106.501C85.2979 106.567 85.3178 106.632 85.3555 106.686C85.3932 106.74 85.4468 106.781 85.5089 106.804V106.804Z" fill="white"/>
<path d="M54.1966 110.907C54.0373 110.826 53.8611 110.783 53.6823 110.783C53.5035 110.783 53.3272 110.826 53.1679 110.907C52.8803 111.074 52.8816 111.335 53.1714 111.502C53.3306 111.584 53.5069 111.626 53.6856 111.626C53.8644 111.626 54.0406 111.584 54.1999 111.502C54.2612 111.48 54.3141 111.439 54.3513 111.386C54.3886 111.332 54.4084 111.269 54.408 111.203C54.4077 111.138 54.3872 111.075 54.3493 111.022C54.3115 110.968 54.2581 110.928 54.1966 110.907V110.907Z" fill="white"/>
<path d="M91.1475 117.977C90.9862 117.897 90.8083 117.856 90.6281 117.856C90.4479 117.857 90.2705 117.901 90.11 117.982C90.0487 118.005 89.9958 118.046 89.9586 118.099C89.9213 118.153 89.9015 118.216 89.9019 118.282C89.9022 118.347 89.9227 118.41 89.9606 118.463C89.9984 118.517 90.0517 118.557 90.1133 118.578C90.2738 118.66 90.4513 118.703 90.6315 118.704C90.8117 118.705 90.9896 118.664 91.151 118.584C91.214 118.562 91.2686 118.52 91.3072 118.466C91.3457 118.411 91.3662 118.346 91.3658 118.279C91.3654 118.212 91.3442 118.147 91.305 118.093C91.2659 118.039 91.2108 117.999 91.1475 117.977V117.977Z" fill="white"/>
<path d="M96.7837 117.46C96.6241 117.38 96.448 117.339 96.2695 117.339C96.091 117.339 95.915 117.38 95.7554 117.46C95.6933 117.482 95.6396 117.522 95.6016 117.576C95.5637 117.63 95.5435 117.694 95.5438 117.759C95.5442 117.825 95.565 117.889 95.6035 117.942C95.642 117.995 95.6962 118.035 95.7585 118.056C95.9186 118.139 96.0962 118.183 96.2767 118.184C96.4572 118.185 96.6352 118.143 96.7962 118.061C97.0752 117.899 97.0734 117.628 96.7837 117.46Z" fill="white"/>
<path d="M92.0896 110.603C92.2509 110.684 92.4288 110.725 92.609 110.724C92.7892 110.723 92.9667 110.68 93.1272 110.598C93.1884 110.576 93.2413 110.535 93.2785 110.482C93.3158 110.428 93.3356 110.364 93.3352 110.299C93.3349 110.234 93.3144 110.17 93.2765 110.117C93.2387 110.064 93.1854 110.024 93.1239 110.002C92.9646 109.921 92.7883 109.879 92.6095 109.879C92.4307 109.879 92.2545 109.921 92.0952 110.002C91.8074 110.17 91.8 110.436 92.0896 110.603Z" fill="white"/>
<path d="M68.8357 129.339C68.6767 129.257 68.5003 129.214 68.3213 129.214C68.1423 129.214 67.9659 129.257 67.8069 129.339C67.5193 129.507 67.5207 129.768 67.8104 129.935C67.9693 130.018 68.1457 130.061 68.3247 130.061C68.5037 130.061 68.6801 130.018 68.839 129.935C69.1268 129.768 69.1254 129.507 68.8357 129.339Z" fill="white"/>
<path d="M75.1509 129.256C74.9908 129.173 74.8131 129.129 74.6327 129.128C74.4522 129.127 74.2741 129.169 74.1132 129.251C73.8345 129.413 73.8359 129.685 74.1256 129.852C74.2853 129.932 74.4614 129.973 74.64 129.973C74.8186 129.973 74.9947 129.932 75.1544 129.852C75.2164 129.83 75.2702 129.79 75.3081 129.736C75.346 129.683 75.3662 129.618 75.3658 129.553C75.3654 129.487 75.3445 129.423 75.306 129.37C75.2674 129.317 75.2132 129.277 75.1509 129.256V129.256Z" fill="white"/>
<path opacity="0.2" d="M90.995 119.741L86.8403 110.861C86.6431 110.49 86.3386 110.188 85.9668 109.993C85.501 109.735 84.9921 109.565 84.4652 109.49L69.1149 107.109C68.0123 106.922 66.8789 107.098 65.8848 107.61L54.6954 114.112C53.8517 114.603 53.5249 115.318 53.8405 115.985L58.0016 124.869C58.1952 125.241 58.4985 125.545 58.8704 125.74C59.3375 125.997 59.8481 126.167 60.3766 126.24L75.7207 128.618C76.8232 128.807 77.9573 128.631 78.9507 128.116L90.14 121.614C90.9773 121.127 91.3043 120.412 90.995 119.741Z" fill="#003067"/>
<path d="M74.0338 95.369C74.0811 95.683 74.0212 96.0037 73.8638 96.2794C73.7063 96.5551 73.4606 96.7697 73.1661 96.8885C72.5853 97.2039 71.9395 97.3808 71.279 97.4054C70.4166 97.4701 69.5533 97.291 68.7878 96.8886C68.5227 96.7997 68.2921 96.6302 68.1282 96.4037C67.9643 96.1772 67.8754 95.9052 67.8738 95.6256C67.8722 95.3461 67.9581 95.073 68.1194 94.8447C68.2808 94.6164 68.5094 94.4443 68.7735 94.3524C69.4516 94.0071 70.2017 93.8271 70.9627 93.8271C71.7236 93.8271 72.4738 94.0071 73.1519 94.3524C73.3596 94.454 73.5447 94.5964 73.6962 94.771C73.8477 94.9457 73.9625 95.1491 74.0338 95.369Z" fill="url(#paint1_linear)"/>
<path d="M87.03 101.315L76.421 107.505L61.803 105.201L59.714 100.73L59.838 100.995L62.603 101.422L63.839 104.018L75.807 105.865L84.275 100.944L83.032 98.2676L84.288 100.936L87.03 101.315Z" fill="#0078D4"/>
<path d="M85.0423 97.0729L85.8088 98.6985L83.0422 98.2699L73.7003 96.8223C75.2526 98.0141 75.9116 99.4945 75.5994 100.937C74.804 100.648 73.949 100.564 73.1127 100.692C73.3437 99.4922 72.6679 98.2938 71.2791 97.4056C71.9395 97.3809 72.5853 97.204 73.1662 96.8886C73.4606 96.7698 73.7064 96.5553 73.8638 96.2795C74.0213 96.0038 74.0812 95.6831 74.0338 95.3691L82.2771 96.645L85.0423 97.0729Z" fill="#50E6FF"/>
<path d="M83.039 92.8597L87.064 101.32L84.288 100.936L83.042 98.2697L85.809 98.6987L85.042 97.0727L82.284 96.6457L81.054 94.0137L69.086 92.1587L68.421 90.5557L83.039 92.8597Z" fill="url(#paint2_linear)"/>
<path d="M60.554 97.1167L61.831 99.7997L59.08 99.3737L57.835 96.7077L68.421 90.5557L69.086 92.1587L60.554 97.1167Z" fill="#0078D4"/>
<path d="M71.4872 101.294C71.2439 101.428 71.0493 101.635 70.9313 101.887C70.8133 102.138 70.778 102.42 70.8303 102.693L62.6033 101.422L59.8378 100.995L59.7136 100.73L59.0778 99.373L61.8308 99.7992L71.4872 101.294Z" fill="#50E6FF"/>
<path d="M76.0731 101.161C76.3382 101.25 76.5688 101.419 76.7327 101.646C76.8966 101.872 76.9856 102.144 76.9872 102.424C76.9887 102.703 76.9029 102.976 76.7415 103.205C76.5802 103.433 76.3515 103.605 76.0874 103.697C75.4093 104.042 74.6591 104.222 73.8982 104.222C73.1373 104.222 72.3871 104.042 71.709 103.697C71.5034 103.596 71.32 103.455 71.1691 103.283C71.0183 103.111 70.9032 102.91 70.8303 102.693C70.778 102.42 70.8133 102.138 70.9313 101.887C71.0494 101.635 71.2439 101.428 71.4872 101.294C71.5519 101.248 71.6211 101.204 71.6948 101.161C72.1339 100.917 72.6149 100.758 73.1128 100.692C73.9491 100.564 74.804 100.648 75.5995 100.936C75.7629 100.999 75.9212 101.074 76.0731 101.161V101.161Z" fill="url(#paint3_linear)"/>
<path d="M71.6948 101.161C71.621 101.204 71.5518 101.248 71.4872 101.294L61.8308 99.7994L60.5542 97.1172L69.0857 92.1592L81.054 94.0133L82.2771 96.6449L74.0338 95.3691C73.9626 95.1491 73.8478 94.9457 73.6963 94.7711C73.5448 94.5964 73.3596 94.4541 73.1519 94.3525C72.4738 94.0072 71.7237 93.8272 70.9627 93.8272C70.2018 93.8272 69.4516 94.0072 68.7735 94.3525C68.5095 94.4444 68.2808 94.6165 68.1195 94.8448C67.9582 95.0731 67.8723 95.3461 67.8738 95.6257C67.8754 95.9052 67.9644 96.1773 68.1283 96.4038C68.2922 96.6302 68.5228 96.7998 68.7878 96.8886C69.5534 97.291 70.4166 97.4701 71.2791 97.4055C72.6679 98.2937 73.3437 99.4921 73.1127 100.692C72.6149 100.758 72.1339 100.917 71.6948 101.161V101.161Z" fill="white"/>
<path d="M73.7003 96.8223L83.0316 98.2682L84.2749 100.943L75.8068 105.865L63.8387 104.018L62.6033 101.422L70.8303 102.693C70.9031 102.91 71.0183 103.111 71.1691 103.283C71.3199 103.455 71.5034 103.596 71.7089 103.697C72.387 104.042 73.1372 104.222 73.8981 104.222C74.6591 104.222 75.4093 104.042 76.0874 103.697C76.3514 103.605 76.5801 103.433 76.7415 103.205C76.9028 102.977 76.9887 102.703 76.9871 102.424C76.9855 102.144 76.8966 101.872 76.7327 101.646C76.5687 101.419 76.3381 101.25 76.073 101.161C75.9212 101.074 75.7628 100.999 75.5994 100.937C75.9115 99.4945 75.2526 98.014 73.7003 96.8223Z" fill="white"/>
<path d="M90.9951 100.907C91.3043 101.578 90.9774 102.293 90.1401 102.78L78.9507 109.282C77.9574 109.797 76.8233 109.973 75.7207 109.784L60.3767 107.406C59.8481 107.333 59.3375 107.163 58.8704 106.906C58.4985 106.711 58.1952 106.407 58.0015 106.035L53.8405 97.1511C53.5249 96.4838 53.8518 95.7687 54.6954 95.2784L65.8848 88.7759C66.8789 88.264 68.0123 88.0881 69.1148 88.2746L84.4652 90.6558C84.9922 90.731 85.501 90.9015 85.9668 91.159C86.3387 91.3539 86.6431 91.6564 86.8403 92.0271L90.9951 100.907ZM87.0391 101.335L83.0395 92.8602L68.4213 90.5564L57.8346 96.7087L59.0798 99.3741L59.7136 100.731L61.8025 105.202L76.4206 107.505L87.039 101.335" fill="white"/>
<path d="M90.1401 102.779L78.9508 109.282C77.9574 109.796 76.8233 109.972 75.7208 109.783L60.3767 107.406C59.8482 107.333 59.3376 107.163 58.8705 106.905C58.4986 106.711 58.1953 106.407 58.0017 106.034L53.8406 97.1507C53.7632 96.991 53.7228 96.816 53.7223 96.6387L53.7153 99.0842C53.7159 99.2615 53.7563 99.4365 53.8336 99.5962L57.9946 108.48C58.1883 108.852 58.4916 109.156 58.8635 109.351C59.3306 109.609 59.8412 109.778 60.3698 109.851L75.7138 112.229C76.8163 112.418 77.9505 112.242 78.9438 111.727L90.1331 105.225C90.4004 105.103 90.6308 104.913 90.8011 104.673C90.9713 104.434 91.0754 104.153 91.1027 103.861L91.1097 101.415C91.0824 101.708 90.9783 101.988 90.8081 102.228C90.6378 102.467 90.4074 102.657 90.1401 102.779V102.779Z" fill="#F2F2F2"/>
</g>
<defs>
<linearGradient id="paint0_linear" x1="79.6785" y1="8.27832" x2="79.6785" y2="179.693" gradientUnits="userSpaceOnUse">
<stop stop-color="#00ABDE"/>
<stop offset="1" stop-color="#007ED8"/>
</linearGradient>
<linearGradient id="paint1_linear" x1="67.8737" y1="95.6205" x2="74.0657" y2="95.6205" gradientUnits="userSpaceOnUse">
<stop stop-color="#198AB3"/>
<stop offset="0.59991" stop-color="#50E6FF"/>
<stop offset="0.975" stop-color="#50E6FF"/>
</linearGradient>
<linearGradient id="paint2_linear" x1="68.4213" y1="95.9374" x2="87.0644" y2="95.9374" gradientUnits="userSpaceOnUse">
<stop offset="0.199" stop-color="#005BA1"/>
<stop offset="1" stop-color="#0078D4"/>
</linearGradient>
<linearGradient id="paint3_linear" x1="508.351" y1="468.187" x2="546.62" y2="468.187" gradientUnits="userSpaceOnUse">
<stop stop-color="#198AB3"/>
<stop offset="0.59991" stop-color="#50E6FF"/>
<stop offset="0.975" stop-color="#50E6FF"/>
</linearGradient>
<clipPath id="clip0">
<rect width="159.356" height="188" fill="white"/>
</clipPath>
</defs>
</svg>
