<svg width="100" height="100" viewBox="0 0 100 100" fill="none" xmlns="http://www.w3.org/2000/svg">
<g clip-path="url(#clip0_394_450)">
<path d="M49.6401 96.45C40.382 96.45 31.3317 93.7047 23.6339 88.5611C15.936 83.4176 9.93624 76.1068 6.3933 67.5534C2.85036 59 1.92337 49.5881 3.72954 40.5078C5.53571 31.4276 9.99394 23.0868 16.5404 16.5403C23.0869 9.99384 31.4277 5.53562 40.5079 3.72945C49.5882 1.92327 59.0001 2.85027 67.5535 6.39321C76.1069 9.93614 83.4176 15.9359 88.5612 23.6338C93.7047 31.3316 96.4501 40.3819 96.4501 49.64C96.4505 55.7873 95.24 61.8745 92.8878 67.5539C90.5355 73.2334 87.0875 78.3938 82.7407 82.7406C78.3939 87.0874 73.2335 90.5354 67.554 92.8877C61.8746 95.2399 55.7874 96.4504 49.6401 96.45V96.45Z" fill="url(#paint0_linear_394_450)"/>
<path fill-rule="evenodd" clip-rule="evenodd" d="M95.54 49.64C95.54 58.7182 92.848 67.5925 87.8045 75.1407C82.7609 82.6889 75.5923 88.572 67.2052 92.0461C58.818 95.5201 49.5891 96.4291 40.6854 94.658C31.7816 92.887 23.603 88.5154 17.1838 82.0962C10.7646 75.677 6.39302 67.4984 4.62196 58.5946C2.85089 49.6909 3.75987 40.462 7.23393 32.0748C10.708 23.6877 16.5911 16.5191 24.1393 11.4755C31.6875 6.43199 40.5618 3.74 49.64 3.74C55.6677 3.73998 61.6363 4.9272 67.2052 7.23388C72.774 9.54057 77.834 12.9215 82.0963 17.1837C86.3585 21.446 89.7394 26.5059 92.0461 32.0748C94.3528 37.6437 95.54 43.6123 95.54 49.64V49.64ZM49.64 3.62732e-07C59.4579 3.62732e-07 69.0553 2.91134 77.2185 8.36585C85.3818 13.8204 91.7442 21.5731 95.5014 30.6436C99.2585 39.7141 100.242 49.6951 98.3262 59.3243C96.4108 68.9535 91.6831 77.7985 84.7408 84.7408C77.7985 91.6831 68.9535 96.4108 59.3243 98.3262C49.6951 100.242 39.7141 99.2585 30.6436 95.5014C21.5731 91.7442 13.8204 85.3818 8.36585 77.2185C2.91134 69.0553 3.62732e-07 59.4579 3.62732e-07 49.64C-0.000787738 43.121 1.28265 36.6656 3.77702 30.6427C6.27138 24.6197 9.9278 19.1471 14.5375 14.5375C19.1471 9.9278 24.6197 6.27138 30.6427 3.77702C36.6656 1.28265 43.121 -0.000787738 49.64 3.62732e-07V3.62732e-07Z" fill="#F2F1F0"/>
<path fill-rule="evenodd" clip-rule="evenodd" d="M92.7296 49.6401C92.7296 58.1625 90.2024 66.4935 85.4676 73.5796C80.7328 80.6657 74.0031 86.1887 66.1294 89.4501C58.2557 92.7114 49.5918 93.5648 41.2331 91.9021C32.8745 90.2395 25.1966 86.1356 19.1703 80.1093C13.1441 74.0831 9.04017 66.4052 7.37753 58.0465C5.7149 49.6879 6.56822 41.0239 9.8296 33.1503C13.091 25.2766 18.6139 18.5469 25.7 13.8121C32.7862 9.07727 41.1172 6.55009 49.6396 6.55009C55.2983 6.54974 60.9017 7.66407 66.1298 9.82942C71.3579 11.9948 76.1082 15.1687 80.1096 19.1701C84.1109 23.1714 87.2849 27.9218 89.4502 33.1499C91.6156 38.3779 92.7299 43.9813 92.7296 49.6401V49.6401ZM49.6396 2.81009C58.9017 2.81009 67.9558 5.55662 75.6569 10.7024C83.3581 15.8481 89.3604 23.162 92.9049 31.719C96.4493 40.2761 97.3767 49.692 95.5697 58.7762C93.7628 67.8603 89.3027 76.2046 82.7534 82.7539C76.2041 89.3032 67.8598 93.7633 58.7757 95.5703C49.6915 97.3772 40.2756 96.4498 31.7185 92.9054C23.1614 89.3609 15.8476 83.3586 10.7018 75.6574C5.5561 67.9563 2.80957 58.9022 2.80957 49.6401C2.81076 37.2204 7.745 25.3097 16.5271 16.5276C25.3091 7.7455 37.2198 2.81125 49.6396 2.81006V2.81009Z" fill="#0078D4"/>
<path fill-rule="evenodd" clip-rule="evenodd" d="M92.7637 49.6401C92.7637 58.1625 90.2366 66.4935 85.5018 73.5796C80.767 80.6657 74.0372 86.1887 66.1636 89.4501C58.2899 92.7114 49.6259 93.5648 41.2673 91.9021C32.9087 90.2395 25.2308 86.1356 19.2045 80.1093C13.1783 74.0831 9.07435 66.4052 7.41171 58.0465C5.74908 49.6879 6.6024 41.0239 9.86378 33.1503C13.1252 25.2766 18.6481 18.5469 25.7342 13.8121C32.8203 9.07727 41.1514 6.55009 49.6738 6.55009C55.3325 6.54974 60.9359 7.66407 66.164 9.82942C71.3921 11.9948 76.1424 15.1687 80.1437 19.1701C84.1451 23.1714 87.3191 27.9218 89.4844 33.1499C91.6498 38.3779 92.7641 43.9813 92.7637 49.6401V49.6401ZM49.6738 2.81009C58.9359 2.81009 67.9899 5.55662 75.6911 10.7024C83.3923 15.8481 89.3946 23.162 92.939 31.719C96.4835 40.2761 97.4109 49.692 95.6039 58.7762C93.797 67.8603 89.3369 76.2046 82.7876 82.7539C76.2383 89.3032 67.894 93.7633 58.8098 95.5703C49.7257 97.3772 40.3097 96.4498 31.7527 92.9054C23.1956 89.3609 15.8818 83.3586 10.736 75.6574C5.59028 67.9563 2.84375 58.9022 2.84375 49.6401C2.84494 37.2204 7.77918 25.3097 16.5612 16.5276C25.3433 7.7455 37.254 2.81125 49.6738 2.81006V2.81009Z" fill="#0078D4"/>
<path fill-rule="evenodd" clip-rule="evenodd" d="M46.1467 22.1622C45.749 22.1622 45.3551 22.2405 44.9876 22.3927C44.6202 22.5449 44.2863 22.768 44.005 23.0493C43.7238 23.3305 43.5007 23.6644 43.3484 24.0319C43.1962 24.3994 43.1179 24.7933 43.1179 25.191V51.3172C43.1179 51.6472 43.0529 51.9739 42.9266 52.2787C42.8004 52.5835 42.6153 52.8605 42.382 53.0938C42.1487 53.327 41.8717 53.5121 41.5669 53.6384C41.2621 53.7646 40.9354 53.8296 40.6055 53.8296H63.1566C63.9599 53.8296 64.7303 53.5105 65.2983 52.9424C65.8663 52.3744 66.1854 51.604 66.1854 50.8007V24.6745C66.1855 24.0082 66.4501 23.3692 66.9213 22.898C67.3924 22.4268 68.0315 22.1622 68.6978 22.1622H46.1467Z" fill="url(#paint1_linear_394_450)"/>
<path fill-rule="evenodd" clip-rule="evenodd" d="M61.1606 51.3172H43.1177H40.6053H38.093C38.093 51.9835 38.3577 52.6226 38.8289 53.0937C39.3 53.5649 39.939 53.8295 40.6053 53.8296H63.6729C63.343 53.8296 63.0163 53.7646 62.7115 53.6383C62.4067 53.5121 62.1297 53.327 61.8964 53.0937C61.6631 52.8604 61.4781 52.5835 61.3518 52.2787C61.2256 51.9739 61.1606 51.6472 61.1606 51.3172Z" fill="#003067"/>
<path fill-rule="evenodd" clip-rule="evenodd" d="M68.6978 22.1621C68.3679 22.1621 68.0412 22.2271 67.7364 22.3534C67.4316 22.4796 67.1546 22.6647 66.9214 22.898C66.6881 23.1313 66.503 23.4082 66.3768 23.713C66.2505 24.0178 66.1855 24.3445 66.1855 24.6744V27.0073H71.2101V24.6744C71.2101 24.3445 71.1451 24.0178 71.0189 23.713C70.8926 23.4082 70.7076 23.1312 70.4743 22.898C70.241 22.6647 69.964 22.4796 69.6592 22.3533C69.3544 22.2271 69.0277 22.1621 68.6978 22.1621V22.1621Z" fill="#003067"/>
<path fill-rule="evenodd" clip-rule="evenodd" d="M36.0974 46.4721C35.6997 46.4721 35.3058 46.5504 34.9383 46.7026C34.5708 46.8548 34.2369 47.0779 33.9557 47.3592C33.6744 47.6405 33.4513 47.9744 33.2991 48.3418C33.1469 48.7093 33.0686 49.1032 33.0686 49.5009V75.6272C33.0686 75.9571 33.0036 76.2838 32.8773 76.5886C32.751 76.8934 32.566 77.1704 32.3327 77.4037C32.0994 77.637 31.8224 77.822 31.5176 77.9483C31.2128 78.0745 30.8861 78.1395 30.5562 78.1395H53.1073C53.9106 78.1395 54.681 77.8204 55.249 77.2524C55.817 76.6843 56.1361 75.9139 56.1361 75.1106V48.9844C56.1361 48.3181 56.4008 47.6791 56.8719 47.2079C57.3431 46.7368 57.9821 46.4721 58.6484 46.4721H36.0974Z" fill="url(#paint2_linear_394_450)"/>
<path fill-rule="evenodd" clip-rule="evenodd" d="M51.1611 76.128C51.136 75.9888 51.0633 75.8627 50.9553 75.7713C50.8474 75.6799 50.711 75.6289 50.5696 75.6271H28.7476C28.6532 75.6265 28.5601 75.6479 28.4756 75.6898C28.391 75.7317 28.3175 75.7929 28.2609 75.8683C28.2043 75.9438 28.1662 76.0315 28.1497 76.1244C28.1332 76.2172 28.1387 76.3127 28.1657 76.4031C28.3298 76.9078 28.6494 77.3476 29.0788 77.6595C29.5082 77.9714 30.0252 78.1394 30.556 78.1395H53.6235C53.0441 78.1394 52.4825 77.9392 52.0338 77.5726C51.5851 77.2061 51.2768 76.6957 51.1611 76.128V76.128Z" fill="#003067"/>
<path fill-rule="evenodd" clip-rule="evenodd" d="M58.6485 46.472C57.9822 46.472 57.3432 46.7367 56.872 47.2079C56.4009 47.679 56.1362 48.318 56.1362 48.9843V51.3172H61.1608V48.9844C61.1608 48.6544 61.0958 48.3277 60.9696 48.0229C60.8433 47.7181 60.6583 47.4411 60.425 47.2078C60.1917 46.9745 59.9147 46.7895 59.6099 46.6632C59.3051 46.537 58.9784 46.472 58.6485 46.472Z" fill="#003067"/>
<path d="M37.7659 55.6552H51.4385" stroke="#C3F1FF" stroke-width="2.10519" stroke-miterlimit="10" stroke-linecap="round"/>
<path d="M37.7659 60.0889H51.4385" stroke="#9CEBFF" stroke-width="2.10519" stroke-miterlimit="10" stroke-linecap="round"/>
<path d="M37.7659 64.5226H51.4385" stroke="#50E6FF" stroke-width="2.10519" stroke-miterlimit="10" stroke-linecap="round"/>
<path d="M37.7659 68.9563H51.4385" stroke="#1B93EB" stroke-width="2.10519" stroke-miterlimit="10" stroke-linecap="round"/>
<path opacity="0.2" d="M61.5786 24.8521C61.445 24.4802 61.2094 24.1534 60.8986 23.9091C60.9877 23.6327 61.0586 23.3507 61.1108 23.065C61.2934 22.8595 61.4741 22.6446 61.6586 22.4132C61.7224 22.328 61.7762 22.2457 61.8346 22.1621H46.9401C46.5399 22.7942 46.3176 23.5227 46.2968 24.2706C46.2759 25.0185 46.4573 25.7582 46.8217 26.4117L46.8735 26.4991L46.934 26.5807C47.127 26.8369 47.3478 27.071 47.5925 27.2785C47.2867 27.7357 47.1235 28.2733 47.1235 28.8233V39.4825C47.1235 42.4034 51.1303 43.4635 54.5737 43.4835H54.6518C59.224 43.4835 62.1791 41.9132 62.1791 39.4825V28.8233C62.179 28.7224 62.1734 28.6215 62.1625 28.5211C62.4668 28.2909 62.7028 27.9823 62.8453 27.6283C62.9877 27.2743 63.0313 26.8882 62.9713 26.5114C62.9113 26.1346 62.75 25.7811 62.5047 25.4889C62.2594 25.1966 61.9393 24.9765 61.5785 24.8521H61.5786Z" fill="#003067"/>
<path d="M54.6513 30.8241C51.5984 30.8241 49.1233 29.9617 49.1233 28.8234V39.4826C49.1233 40.5778 51.5553 41.4661 54.5736 41.4834H54.6513C57.7042 41.4834 60.1793 40.621 60.1793 39.4826V28.8234C60.1793 29.9359 57.7042 30.8241 54.6513 30.8241Z" fill="url(#paint3_linear_394_450)"/>
<path d="M60.1793 28.8234C60.1793 29.9359 57.7042 30.8241 54.6513 30.8241C51.5984 30.8241 49.1233 29.9617 49.1233 28.8234C49.1233 27.685 51.5984 26.8226 54.6513 26.8226C57.7042 26.8226 60.1793 27.685 60.1793 28.8234Z" fill="#E8E8E8"/>
<path d="M58.8942 28.6595C58.8942 29.3667 56.9883 29.9359 54.6512 29.9359C52.3141 29.9359 50.4082 29.3667 50.4082 28.6595C50.4082 27.9523 52.3141 27.3918 54.6512 27.3918C56.9883 27.3918 58.8942 27.961 58.8942 28.6595Z" fill="#50E6FF"/>
<path d="M54.6514 28.9786C53.5132 28.9495 52.3786 29.1158 51.2966 29.4702C52.3796 29.8179 53.5146 29.9755 54.6514 29.9358C55.7904 29.9692 56.9263 29.7998 58.0061 29.4357C56.9211 29.0977 55.7872 28.9432 54.6514 28.9786V28.9786Z" fill="#198AB3"/>
<path d="M58.0146 36.2227V33.2906H57.2385V36.8523H59.36V36.2227H58.0146ZM51.8571 34.7825C51.6969 34.7181 51.5483 34.6278 51.4173 34.5152C51.3825 34.4784 51.3554 34.435 51.3377 34.3876C51.3199 34.3402 51.3118 34.2898 51.3138 34.2392C51.3112 34.1886 51.3217 34.1381 51.3444 34.0928C51.367 34.0474 51.4011 34.0087 51.4432 33.9805C51.5492 33.9071 51.6765 33.8707 51.8054 33.877C52.1125 33.8632 52.4157 33.9511 52.6678 34.1271V33.3854C52.3922 33.2829 52.0991 33.236 51.8054 33.2474C51.467 33.2294 51.1335 33.3334 50.8654 33.5406C50.7485 33.6307 50.6547 33.7473 50.5918 33.8807C50.5288 34.0142 50.4984 34.1607 50.5032 34.3082C50.5032 34.748 50.7792 35.0929 51.3656 35.3517C51.556 35.4325 51.7357 35.5368 51.9003 35.6621C51.9406 35.696 51.973 35.7382 51.9954 35.7858C52.0177 35.8335 52.0294 35.8855 52.0296 35.9381C52.0296 35.9905 52.0171 36.042 51.9931 36.0886C51.9691 36.1351 51.9343 36.1751 51.8916 36.2055C51.7743 36.2742 51.6394 36.3072 51.5035 36.3003C51.1567 36.2975 50.8226 36.1687 50.5635 35.9381V36.7401C50.8483 36.887 51.1661 36.9582 51.4863 36.9471C51.8478 36.9685 52.206 36.8684 52.5039 36.6625C52.6092 36.5629 52.6897 36.44 52.7391 36.3038C52.7885 36.1676 52.8054 36.0217 52.7885 35.8777C52.7927 35.657 52.716 35.4423 52.5729 35.2741C52.3714 35.0618 52.1275 34.8944 51.8571 34.7825V34.7825ZM56.3761 36.1537C56.5634 35.8537 56.6627 35.5071 56.6627 35.1534C56.6627 34.7997 56.5634 34.453 56.3761 34.153C56.2415 33.8837 56.0318 33.659 55.7724 33.5062C55.5096 33.3572 55.2122 33.2799 54.91 33.282C54.5843 33.2748 54.2626 33.3552 53.9786 33.5148C53.7124 33.6634 53.494 33.8848 53.3491 34.153C53.1964 34.4579 53.1195 34.7952 53.1248 35.1362C53.1267 35.4357 53.1975 35.7308 53.3318 35.9986C53.4635 36.2649 53.6704 36.4868 53.9269 36.6367C54.1874 36.7956 54.4844 36.8847 54.7893 36.8954L55.531 37.7578H56.5745L55.5137 36.8092C55.8709 36.7021 56.1772 36.4692 56.3761 36.1537H56.3761ZM55.5137 35.9381C55.4352 36.0356 55.3352 36.1136 55.2215 36.166C55.1077 36.2184 54.9834 36.2437 54.8583 36.24C54.7322 36.2441 54.607 36.218 54.493 36.164C54.3791 36.11 54.2796 36.0296 54.2029 35.9295C54.0395 35.6715 53.9528 35.3725 53.9528 35.0671C53.9528 34.7618 54.0395 34.4627 54.2029 34.2047C54.2841 34.1047 54.3866 34.0241 54.503 33.9689C54.6194 33.9136 54.7467 33.8852 54.8756 33.8856C55.0015 33.8802 55.1268 33.9066 55.2398 33.9624C55.3529 34.0181 55.45 34.1015 55.5224 34.2047C55.6923 34.459 55.7741 34.7619 55.7552 35.0671C55.7853 35.3773 55.6992 35.6877 55.5137 35.9381H55.5137Z" fill="white"/>
<path d="M50.1375 19.1517C50.1203 19.1518 50.1033 19.1485 50.0874 19.142C50.0715 19.1355 50.0571 19.126 50.0449 19.1139C50.0327 19.1019 50.023 19.0875 50.0163 19.0717C50.0097 19.0559 50.0062 19.0389 50.0061 19.0218V19.0203C50.0055 18.6226 49.8473 18.2415 49.5661 17.9603C49.2849 17.6792 48.9038 17.5209 48.5062 17.5203C48.4714 17.5204 48.4381 17.5066 48.4135 17.4821C48.3889 17.4576 48.375 17.4244 48.3748 17.3897C48.3748 17.3548 48.3886 17.3214 48.4132 17.2968C48.4379 17.2721 48.4713 17.2583 48.5062 17.2583V17.2583C48.9039 17.2577 49.2852 17.0994 49.5664 16.8181C49.8475 16.5367 50.0057 16.1554 50.0061 15.7576C50.006 15.7405 50.0093 15.7235 50.0157 15.7076C50.0222 15.6917 50.0317 15.6772 50.0438 15.665C50.0559 15.6528 50.0702 15.6431 50.086 15.6365C50.1018 15.6298 50.1188 15.6263 50.136 15.6262H50.1375C50.1546 15.6261 50.1716 15.6294 50.1875 15.6359C50.2034 15.6424 50.2179 15.6519 50.2301 15.664C50.2423 15.676 50.252 15.6904 50.2586 15.7062C50.2653 15.722 50.2688 15.739 50.2689 15.7561V15.7576C50.2695 16.1553 50.4277 16.5364 50.7088 16.8176C50.99 17.0987 51.3712 17.257 51.7688 17.2575C51.8034 17.2574 51.8367 17.2709 51.8614 17.2953C51.886 17.3197 51.9 17.3528 51.9002 17.3875V17.389C51.9003 17.4062 51.897 17.4232 51.8905 17.4391C51.8841 17.4549 51.8745 17.4694 51.8625 17.4816C51.8504 17.4938 51.836 17.5035 51.8202 17.5102C51.8044 17.5168 51.7874 17.5203 51.7703 17.5204H51.7688C51.3711 17.5208 50.9898 17.679 50.7086 17.9602C50.4274 18.2414 50.2693 18.6226 50.2689 19.0203C50.2687 19.0551 50.2548 19.0884 50.2302 19.113C50.2056 19.1376 50.1723 19.1515 50.1375 19.1517V19.1517Z" fill="#50E6FF"/>
<path d="M59.5873 28.2527C59.5735 28.2527 59.5598 28.25 59.547 28.2447C59.5343 28.2394 59.5227 28.2316 59.5129 28.2219C59.5031 28.2121 59.4954 28.2005 59.4901 28.1877C59.4848 28.1749 59.4821 28.1612 59.4821 28.1474V28.1474C59.4817 27.8293 59.3551 27.5244 59.1302 27.2995C58.9053 27.0746 58.6004 26.948 58.2823 26.9476C58.2545 26.9476 58.2278 26.9366 58.2081 26.9171C58.1884 26.8975 58.1772 26.8709 58.177 26.8431V26.8431C58.177 26.8152 58.1881 26.7884 58.2078 26.7687C58.2276 26.7489 58.2544 26.7378 58.2823 26.7378C58.6004 26.7376 58.9055 26.6112 59.1304 26.3862C59.3554 26.1613 59.4819 25.8562 59.4821 25.5381C59.4821 25.5101 59.4931 25.4834 59.5129 25.4636C59.5326 25.4439 59.5594 25.4328 59.5873 25.4328C59.6152 25.4328 59.642 25.4439 59.6618 25.4636C59.6815 25.4834 59.6926 25.5101 59.6926 25.5381V25.5381C59.6928 25.8562 59.8193 26.1613 60.0442 26.3862C60.2692 26.6112 60.5742 26.7376 60.8924 26.7378C60.9062 26.7378 60.9199 26.7405 60.9327 26.7458C60.9455 26.7511 60.9571 26.7588 60.9669 26.7685C60.9767 26.7783 60.9844 26.7899 60.9897 26.8027C60.9951 26.8154 60.9978 26.8291 60.9978 26.8429C60.9978 26.8568 60.9951 26.8705 60.9899 26.8832C60.9846 26.896 60.9769 26.9076 60.9671 26.9174C60.9574 26.9272 60.9458 26.935 60.933 26.9403C60.9202 26.9456 60.9066 26.9484 60.8927 26.9484H60.8924C60.5743 26.9488 60.2694 27.0753 60.0444 27.3002C59.8195 27.5251 59.693 27.8301 59.6926 28.1482C59.6924 28.176 59.6812 28.2025 59.6615 28.2221C59.6418 28.2417 59.6151 28.2527 59.5873 28.2527V28.2527Z" fill="#50E6FF"/>
<path d="M59.1079 20.842C59.3185 21.7234 59.263 22.6475 58.9484 23.4973C58.6338 24.3472 58.0742 25.0846 57.3405 25.6165C56.6068 26.1483 55.7318 26.4506 54.8263 26.4852C53.9207 26.5198 53.0252 26.285 52.2531 25.8107C51.481 25.3363 50.8668 24.6437 50.4883 23.8203C50.1099 22.9969 49.984 22.0798 50.1268 21.1849C50.2695 20.29 50.6745 19.4575 51.2903 18.7928C51.9062 18.128 52.7054 17.6608 53.5868 17.4502V17.4502C54.7687 17.1678 56.0144 17.3666 57.0498 18.0026C58.0852 18.6387 58.8255 19.6601 59.1079 20.842Z" fill="url(#paint4_radial_394_450)"/>
<path d="M52.1944 25.0117C52.3551 25.0161 52.515 24.9887 52.665 24.9312C52.8151 24.8738 52.9523 24.7873 53.0689 24.6767C53.1856 24.5661 53.2792 24.4337 53.3446 24.2869C53.41 24.1401 53.4458 23.9819 53.45 23.8213C53.4543 23.6606 53.4268 23.5008 53.3691 23.3508C53.3115 23.2008 53.2249 23.0636 53.1143 22.9471C53.0036 22.8306 52.8711 22.737 52.7242 22.6717C52.5774 22.6065 52.4191 22.5708 52.2585 22.5667C52.2384 22.5662 52.2183 22.5662 52.1982 22.5666C52.2018 22.5319 52.2035 22.497 52.2034 22.4621C52.2004 22.1358 52.0682 21.824 51.8358 21.5951C51.6033 21.3661 51.2896 21.2387 50.9633 21.2407H50.0465C49.9568 21.9181 50.017 22.6069 50.2227 23.2586C50.4285 23.9102 50.7748 24.5087 51.2373 25.0117L52.1944 25.0117Z" fill="#F2F2F2"/>
<path d="M59.1646 21.0548C59.1655 21.0435 59.1637 21.0323 59.1593 21.0219C59.0117 20.223 58.6487 19.4795 58.1096 18.8717C58.0397 18.8434 57.9675 18.8209 57.8939 18.8045C57.6977 18.7485 57.4913 18.7378 57.2904 18.7731C57.0895 18.8085 56.8992 18.8889 56.7339 19.0085C56.5686 19.128 56.4325 19.2835 56.336 19.4632C56.2395 19.643 56.185 19.8423 56.1767 20.0461C56.1271 20.0404 56.0773 20.0371 56.0274 20.0364C55.7216 20.0364 55.4256 20.1444 55.1917 20.3415C54.9579 20.5385 54.8012 20.8118 54.7493 21.1132C54.6974 21.4145 54.7537 21.7245 54.9081 21.9884C55.0626 22.2523 55.3054 22.4531 55.5936 22.5554C55.7222 22.6058 55.8593 22.6312 55.9975 22.6301H57.5131C58.1216 22.1694 58.6757 21.6409 59.1646 21.0548Z" fill="#F2F2F2"/>
<path d="M60.7669 18.0811C60.2972 17.2994 59.199 16.9948 57.6647 17.2232C57.1391 17.2977 56.6196 17.4105 56.1103 17.5607C56.5143 17.7001 56.8979 17.8927 57.2511 18.1333C57.4311 18.0937 57.6117 18.0467 57.7849 18.0206C58.0574 17.9782 58.3327 17.9559 58.6084 17.9541C58.878 17.9153 59.153 17.9444 59.4085 18.039C59.6639 18.1335 59.8917 18.2904 60.071 18.4954C60.357 18.9717 60.1158 19.7863 59.4095 20.7352C58.428 21.957 57.2252 22.983 55.8639 23.7597C54.5332 24.5902 53.0582 25.1631 51.5158 25.4485C50.3481 25.6232 49.5134 25.4485 49.2274 24.9736C48.9415 24.4988 49.1826 23.682 49.8889 22.7376C49.9763 22.6204 49.9979 22.5629 50.0972 22.4449C50.0506 22.0401 50.0571 21.631 50.1166 21.2279C49.7992 21.5461 49.5072 21.8886 49.2431 22.2522C48.3181 23.4893 48.0672 24.6018 48.5361 25.3835C48.7838 25.7148 49.1141 25.9754 49.4941 26.139C49.874 26.3026 50.2903 26.3637 50.7012 26.316C51.014 26.3143 51.3262 26.2894 51.6352 26.2413C53.2817 25.9408 54.8568 25.3329 56.2783 24.4495C57.7301 23.6187 59.012 22.5214 60.0569 21.2152C60.9849 19.9752 61.2357 18.8635 60.7669 18.0811Z" fill="#50E6FF"/>
</g>
<defs>
<linearGradient id="paint0_linear_394_450" x1="47.8697" y1="-15.1531" x2="51.8525" y2="130.615" gradientUnits="userSpaceOnUse">
<stop stop-color="#00ABDE"/>
<stop offset="1" stop-color="#007ED8"/>
</linearGradient>
<linearGradient id="paint1_linear_394_450" x1="54.6516" y1="22.1622" x2="54.6516" y2="53.8297" gradientUnits="userSpaceOnUse">
<stop stop-color="#008BF1"/>
<stop offset="0.22" stop-color="#0086EC"/>
<stop offset="0.49" stop-color="#0078DD"/>
<stop offset="0.79" stop-color="#0061C4"/>
<stop offset="1" stop-color="#004DAE"/>
</linearGradient>
<linearGradient id="paint2_linear_394_450" x1="44.6023" y1="46.4721" x2="44.6023" y2="78.1396" gradientUnits="userSpaceOnUse">
<stop stop-color="#008BF1"/>
<stop offset="0.22" stop-color="#0086EC"/>
<stop offset="0.49" stop-color="#0078DD"/>
<stop offset="0.79" stop-color="#0061C4"/>
<stop offset="1" stop-color="#004DAE"/>
</linearGradient>
<linearGradient id="paint3_linear_394_450" x1="49.1233" y1="35.1534" x2="60.1793" y2="35.1534" gradientUnits="userSpaceOnUse">
<stop stop-color="#005BA1"/>
<stop offset="0.07" stop-color="#0060A9"/>
<stop offset="0.36" stop-color="#0071C8"/>
<stop offset="0.52" stop-color="#0078D4"/>
<stop offset="0.64" stop-color="#0074CD"/>
<stop offset="0.82" stop-color="#006ABB"/>
<stop offset="1" stop-color="#005BA1"/>
</linearGradient>
<radialGradient id="paint4_radial_394_450" cx="0" cy="0" r="1" gradientUnits="userSpaceOnUse" gradientTransform="translate(54.6162 21.9066) scale(4.60605 4.56603)">
<stop offset="0.183" stop-color="#5EA0EF"/>
<stop offset="1" stop-color="#0078D4"/>
</radialGradient>
<clipPath id="clip0_394_450">
<rect width="99.2799" height="99.28" fill="white"/>
</clipPath>
</defs>
</svg>
