<svg width="103" height="103" viewBox="0 0 103 103" fill="none" xmlns="http://www.w3.org/2000/svg">
<path d="M51.9604 97.8673C26.1104 97.8673 5.15039 76.9173 5.15039 51.0573C5.15039 25.1973 26.1104 4.24731 51.9604 4.24731C77.8104 4.24731 98.7704 25.2073 98.7704 51.0573C98.7704 76.9073 77.8104 97.8673 51.9604 97.8673Z" fill="#323237" stroke="#9B9BA0" stroke-width="0.3" stroke-miterlimit="10"/>
<path fill-rule="evenodd" clip-rule="evenodd" d="M97.8603 51.0572C97.8603 76.4072 77.3103 96.9572 51.9603 96.9572C26.6103 96.9572 6.06031 76.4072 6.06031 51.0572C6.06031 25.7072 26.6103 5.15724 51.9603 5.15724C77.3103 5.15724 97.8603 25.7072 97.8603 51.0572ZM51.9603 1.41724C79.3803 1.41724 101.6 23.6372 101.6 51.0572C101.6 78.4772 79.3703 100.697 51.9603 100.697C24.5403 100.697 2.32031 78.4672 2.32031 51.0572C2.32031 23.6372 24.5403 1.41724 51.9603 1.41724Z" fill="#F2F1F0"/>
<path fill-rule="evenodd" clip-rule="evenodd" d="M95.0509 51.0573C95.0509 74.8573 75.7609 94.1473 51.9609 94.1473C28.1609 94.1473 8.87086 74.8573 8.87086 51.0573C8.87086 27.2573 28.1609 7.96729 51.9609 7.96729C75.7609 7.96729 95.0509 27.2573 95.0509 51.0573ZM51.9609 4.22729C77.8209 4.22729 98.7909 25.1973 98.7909 51.0573C98.7909 76.9173 77.8209 97.8873 51.9609 97.8873C26.1009 97.8873 5.13086 76.9173 5.13086 51.0573C5.13086 25.1973 26.0909 4.22729 51.9609 4.22729Z" fill="#E92D2F"/>
<path opacity="0.2" d="M41.1204 79.5875H76.5804C78.1704 79.5875 79.4504 78.3075 79.4504 76.7175V24.6475H23.1504V76.6975C23.1504 78.2875 24.4304 79.5675 26.0204 79.5675H32.1604L41.1204 79.5875Z" fill="#1F1D21"/>
<path d="M41.1204 77.4373H77.5004C78.5804 77.4373 79.4504 76.5573 79.4504 75.4873V24.4473C79.4404 23.3673 78.5704 22.4973 77.5004 22.4973H25.1004C24.0204 22.4973 23.1504 23.3773 23.1504 24.4473V75.4773C23.1504 76.5573 24.0304 77.4273 25.1004 77.4273H32.1504L41.1204 77.4373Z" fill="#F2F1F0"/>
<path d="M79.4604 23.4673C79.4604 22.3873 78.5804 21.5173 77.5104 21.5173H25.1004C24.0204 21.5173 23.1504 22.3973 23.1504 23.4673V25.3273H79.4604V23.4673Z" fill="#91192B"/>
<path opacity="0.4" d="M42.3996 70.7576C41.9296 70.7576 41.4896 70.8176 41.1196 70.9276C40.3896 71.1476 39.6196 71.1876 38.8696 71.1876H34.3096C33.7996 71.1876 33.3096 71.0776 32.8096 70.9276C32.4596 70.8176 32.0096 70.7576 31.5296 70.7576C30.3296 70.7576 29.3496 71.1576 29.3496 71.6276C29.3496 72.1076 30.3296 72.4976 31.5296 72.4976C31.9996 72.4976 32.4396 72.4376 32.7896 72.3276C33.9596 71.9876 35.1996 71.9176 36.4196 71.9176H37.4796C38.6996 71.9176 39.9296 71.9876 41.1096 72.3276C41.4596 72.4376 41.8996 72.4976 42.3696 72.4976C43.5696 72.4976 44.5496 72.0976 44.5496 71.6276C44.5696 71.1476 43.5996 70.7576 42.3996 70.7576Z" fill="#1F1D20"/>
<path fill-rule="evenodd" clip-rule="evenodd" d="M31.2799 41.8875C31.9799 43.3575 31.5099 53.6674 30.6899 57.2674C29.8599 60.8774 29.0499 65.4875 28.8399 69.3575C28.7599 70.9975 29.0099 71.6574 30.0799 71.6574C31.9899 71.6574 34.3899 67.6474 37.4199 67.7374C40.4499 67.8374 41.4099 72.3374 42.8499 72.3074C44.2699 72.2674 45.4099 71.7775 45.4199 67.3875C45.4699 54.2975 34.4899 43.6775 31.2799 41.8875Z" fill="black"/>
<path fill-rule="evenodd" clip-rule="evenodd" d="M40.7996 52.3675C41.4596 53.4975 43.1696 52.6275 43.2496 51.3475C43.3196 50.0775 43.1396 48.4675 42.3096 48.4075C41.4796 48.3475 40.8896 47.5175 40.0696 47.4675C39.2396 47.4075 38.3496 48.2375 37.9796 47.1375C37.5896 46.0475 39.0196 45.5775 40.0696 45.4075C39.1296 44.4675 38.5696 43.4175 38.1496 42.3275C37.7396 41.2375 37.4196 40.2475 38.5996 39.8075C39.7596 39.3875 39.6596 41.5875 40.9896 42.5875C40.5896 41.0975 40.4496 40.4975 40.4796 39.6275C40.5196 38.7675 40.4396 38.1175 41.6796 38.2775C42.8996 38.4475 42.3696 40.9875 43.3196 42.0275C43.6096 41.0375 43.7896 39.7975 44.4796 39.2875C45.1696 38.7775 46.7796 38.7575 45.7596 40.8575C44.7396 42.9575 46.0596 44.0975 45.7496 45.7475C45.4396 47.3975 44.4896 47.0975 44.0796 48.1775C43.6696 49.2375 44.3196 51.6675 43.5496 52.7575C42.7796 53.8475 42.6396 55.5275 43.1396 56.8675C41.5996 55.4275 40.7996 52.3675 40.7996 52.3675Z" fill="black"/>
<path fill-rule="evenodd" clip-rule="evenodd" d="M31.2303 53.7676C30.6103 58.0176 28.4503 58.5276 28.3503 60.2976C28.2403 62.0576 28.9203 62.2276 28.8803 63.8676C28.8403 65.4976 27.3803 66.1676 27.2103 67.0476C27.0303 67.9376 27.9603 68.2176 28.4903 68.2176C29.0203 68.2176 29.5503 65.8776 29.7703 64.3776C29.9903 62.8776 29.0603 62.0076 29.0603 60.9876C29.0603 59.9576 30.4103 58.0976 30.1603 59.7276C31.2803 57.9576 31.8103 55.7276 31.2303 53.7676Z" fill="black"/>
<path fill-rule="evenodd" clip-rule="evenodd" d="M32.0611 55.3876C31.5911 57.6876 28.6611 70.5375 30.1511 70.6975C31.6511 70.8675 33.7611 66.7175 37.2611 66.7575C40.7411 66.7975 42.1211 71.3976 42.9811 71.3576C43.8311 71.3176 44.3911 71.6575 44.4811 66.4775C44.5811 61.2975 41.4011 54.6575 39.5411 51.7375C36.9811 51.8975 34.2411 53.9276 32.0611 55.3876Z" fill="white"/>
<path d="M39.5 52.5876C39.37 51.1476 38.3 50.2476 36.91 50.0276C35.58 49.8076 34.13 50.4376 33.2 51.3776C32.15 52.4276 32.11 53.8876 32.85 55.1376C33.58 56.3576 35.17 56.7676 36.49 56.4676C38.29 56.0276 39.61 54.4676 39.5 52.5876Z" fill="black"/>
<path d="M38.8309 53.1276C38.7109 54.4376 37.6609 55.4876 36.4009 55.7876C35.0709 56.1176 33.6009 55.6076 33.1209 54.2276C32.8809 53.5376 32.9309 52.8176 33.3409 52.2076C33.6909 51.6876 34.2609 51.2876 34.8409 51.0276C36.0009 50.4976 37.6709 50.4376 38.4809 51.6176C38.7909 52.0776 38.8409 52.5976 38.8309 53.1276Z" fill="url(#paint0_radial)" stroke="black"/>
<path d="M72.7113 52.2574H52.2812V31.8274H72.7213V52.2574H72.7113ZM53.0713 51.4674H71.9212V32.6174H53.0713V51.4674Z" fill="#FF3640"/>
<path d="M72.3615 54.2872C73.5115 54.2872 74.4515 53.3572 74.4515 52.1972C74.4515 51.0372 73.5215 50.1072 72.3615 50.1072C71.2115 50.1072 70.2715 51.0372 70.2715 52.1972C70.2715 53.3572 71.2015 54.2872 72.3615 54.2872Z" fill="#C4222A"/>
<path d="M62.5412 54.2872C63.6912 54.2872 64.6312 53.3572 64.6312 52.1972C64.6312 51.0372 63.7012 50.1072 62.5412 50.1072C61.3812 50.1072 60.4512 51.0372 60.4512 52.1972C60.4512 53.3572 61.3812 54.2872 62.5412 54.2872Z" fill="#C4222A"/>
<path d="M52.7111 54.2872C53.8611 54.2872 54.8011 53.3572 54.8011 52.1972C54.8011 51.0372 53.8711 50.1072 52.7111 50.1072C51.5611 50.1072 50.6211 51.0372 50.6211 52.1972C50.6211 53.3572 51.5611 54.2872 52.7111 54.2872Z" fill="#C4222A"/>
<path d="M72.3615 44.2174C73.5115 44.2174 74.4515 43.2874 74.4515 42.1274C74.4515 40.9674 73.5215 40.0374 72.3615 40.0374C71.2115 40.0374 70.2715 40.9674 70.2715 42.1274C70.2715 43.2874 71.2015 44.2174 72.3615 44.2174Z" fill="#91192B"/>
<path d="M62.5412 44.2174C63.6912 44.2174 64.6312 43.2874 64.6312 42.1274C64.6312 40.9674 63.7012 40.0374 62.5412 40.0374C61.3812 40.0374 60.4512 40.9674 60.4512 42.1274C60.4512 43.2874 61.3812 44.2174 62.5412 44.2174Z" fill="#91192B"/>
<path d="M52.7111 44.2174C53.8611 44.2174 54.8011 43.2874 54.8011 42.1274C54.8011 40.9674 53.8711 40.0374 52.7111 40.0374C51.5611 40.0374 50.6211 40.9674 50.6211 42.1274C50.6211 43.2874 51.5611 44.2174 52.7111 44.2174Z" fill="#91192B"/>
<path d="M72.3615 34.1373C73.5115 34.1373 74.4515 33.2073 74.4515 32.0473C74.4515 30.8973 73.5215 29.9573 72.3615 29.9573C71.2115 29.9573 70.2715 30.8873 70.2715 32.0473C70.2715 33.2073 71.2015 34.1373 72.3615 34.1373Z" fill="#FF3640"/>
<path d="M62.5412 34.1373C63.6912 34.1373 64.6312 33.2073 64.6312 32.0473C64.6312 30.8973 63.7012 29.9573 62.5412 29.9573C61.3812 29.9573 60.4512 30.8873 60.4512 32.0473C60.4512 33.2073 61.3812 34.1373 62.5412 34.1373Z" fill="#FF3640"/>
<path d="M52.7111 34.1373C53.8611 34.1373 54.8011 33.2073 54.8011 32.0473C54.8011 30.8973 53.8711 29.9573 52.7111 29.9573C51.5611 29.9573 50.6211 30.8873 50.6211 32.0473C50.6211 33.2073 51.5611 34.1373 52.7111 34.1373Z" fill="#FF3640"/>
<path opacity="0.15" d="M73.1807 58.1472H51.9907C51.7107 58.1472 51.4707 58.3772 51.4707 58.6672V71.4272C51.4707 71.7072 51.7007 71.9472 51.9907 71.9472H73.1807C73.4607 71.9472 73.7007 71.7172 73.7007 71.4272V58.6672C73.7007 58.3772 73.4707 58.1472 73.1807 58.1472Z" fill="#1F1D20"/>
<path d="M73.1807 57.6873H51.9907C51.7107 57.6873 51.4707 57.9173 51.4707 58.2073V70.9673C51.4707 71.2473 51.7007 71.4873 51.9907 71.4873H73.1807C73.4607 71.4873 73.7007 71.2573 73.7007 70.9673V58.2073C73.7007 57.9173 73.4707 57.6873 73.1807 57.6873Z" fill="#91192B"/>
<path opacity="0.15" d="M58.0716 69.5272C60.5416 69.5272 62.5416 67.5272 62.5416 65.0572C62.5416 62.5872 60.5416 60.5872 58.0716 60.5872C55.6016 60.5872 53.6016 62.5872 53.6016 65.0572C53.6016 67.5272 55.6116 69.5272 58.0716 69.5272Z" fill="#1F1D20"/>
<path d="M58.0716 69.1273C60.5416 69.1273 62.5416 67.1273 62.5416 64.6573C62.5416 62.1873 60.5416 60.1873 58.0716 60.1873C55.6016 60.1873 53.6016 62.1873 53.6016 64.6573C53.6016 67.1273 55.6116 69.1273 58.0716 69.1273Z" fill="white"/>
<path d="M60.251 66.4773C60.131 65.3673 59.181 64.4973 58.031 64.4973C56.881 64.4973 55.941 65.3473 55.811 66.4473C55.791 66.5273 55.791 66.6073 55.791 66.6873C55.821 67.0073 56.031 67.3073 56.441 67.5373C57.311 68.0373 58.741 68.0373 59.611 67.5373C60.021 67.2973 60.231 66.9973 60.261 66.6873C60.271 66.6073 60.261 66.5373 60.251 66.4773Z" fill="#91192B"/>
<path d="M58.0316 64.1673C58.7816 64.1673 59.3816 63.5673 59.3816 62.8273C59.3816 62.0873 58.7816 61.4873 58.0316 61.4873C57.2816 61.4873 56.6816 62.0773 56.6816 62.8273C56.6816 63.5773 57.2816 64.1673 58.0316 64.1673Z" fill="#91192B"/>
<g opacity="0.15">
<path opacity="0.15" d="M71.291 61.6672H64.801C64.521 61.6672 64.291 61.8972 64.291 62.1772C64.291 62.4572 64.521 62.6872 64.801 62.6872H71.281C71.561 62.6872 71.791 62.4572 71.791 62.1772C71.801 61.8972 71.571 61.6672 71.291 61.6672Z" fill="#1F1D20"/>
<path opacity="0.15" d="M71.291 63.8872H64.801C64.521 63.8872 64.291 64.1172 64.291 64.3972C64.291 64.6772 64.521 64.9072 64.801 64.9072H71.281C71.561 64.9072 71.791 64.6772 71.791 64.3972C71.801 64.1172 71.571 63.8872 71.291 63.8872Z" fill="#1F1D20"/>
<path opacity="0.15" fill-rule="evenodd" clip-rule="evenodd" d="M64.801 66.2673H68.041C68.321 66.2673 68.551 66.4973 68.551 66.7773C68.551 67.0573 68.321 67.2873 68.041 67.2873H64.801C64.521 67.2873 64.291 67.0573 64.291 66.7773C64.291 66.4973 64.521 66.2673 64.801 66.2673Z" fill="#1F1D20"/>
</g>
<path d="M71.291 61.3171H64.801C64.521 61.3171 64.291 61.5471 64.291 61.8271C64.291 62.1071 64.521 62.3371 64.801 62.3371H71.281C71.561 62.3371 71.791 62.1071 71.791 61.8271C71.801 61.5471 71.571 61.3171 71.291 61.3171Z" fill="#FF3640"/>
<path d="M71.291 63.5374H64.801C64.521 63.5374 64.291 63.7674 64.291 64.0474C64.291 64.3274 64.521 64.5574 64.801 64.5574H71.281C71.561 64.5574 71.791 64.3274 71.791 64.0474C71.801 63.7674 71.571 63.5374 71.291 63.5374Z" fill="#FF3640"/>
<path fill-rule="evenodd" clip-rule="evenodd" d="M64.801 65.9272H68.041C68.321 65.9272 68.551 66.1572 68.551 66.4372C68.551 66.7172 68.321 66.9472 68.041 66.9472H64.801C64.521 66.9472 64.291 66.7172 64.291 66.4372C64.291 66.1572 64.521 65.9272 64.801 65.9272Z" fill="#FF3640"/>
<defs>
<radialGradient id="paint0_radial" cx="0" cy="0" r="1" gradientUnits="userSpaceOnUse" gradientTransform="translate(34.4647 52.0069) scale(4.5765)">
<stop stop-color="white"/>
<stop offset="0.0604" stop-color="#FBC8B4"/>
<stop offset="0.0712" stop-color="#FBC3B0"/>
<stop offset="0.1829" stop-color="#F7978B"/>
<stop offset="0.2995" stop-color="#F4716B"/>
<stop offset="0.4199" stop-color="#F15251"/>
<stop offset="0.5453" stop-color="#EF3A3D"/>
<stop offset="0.6778" stop-color="#EE292F"/>
<stop offset="0.822" stop-color="#ED1F27"/>
<stop offset="1" stop-color="#ED1C24"/>
</radialGradient>
</defs>
</svg>
