<svg width="102" height="102" viewBox="0 0 102 102" fill="none" xmlns="http://www.w3.org/2000/svg">
<g clip-path="url(#clip0_6_7314)">
<g clip-path="url(#clip1_6_7314)">
<path d="M50.5 99C40.9074 99 31.5302 96.1261 23.5543 90.7416C15.5784 85.3572 9.36208 77.7042 5.69138 68.7503C2.02068 59.7964 1.06051 49.9439 2.9323 40.4387C4.8041 30.9335 9.42377 22.2026 16.2071 15.35C22.9905 8.49742 31.6328 3.83102 41.0412 1.94092C50.4496 0.0508232 60.2015 1.02191 69.0636 4.73138C77.9258 8.44086 85.5001 14.7221 90.8287 22.7808C96.1574 30.8395 99.001 40.3136 99 50.0051C99.0007 56.4398 97.7466 62.8117 95.3094 68.7566C92.8722 74.7016 89.2997 80.1032 84.7959 84.653C80.292 89.2028 74.9451 92.8116 69.0606 95.2733C63.176 97.735 56.8691 99.0013 50.5 99V99Z" fill="url(#paint0_linear_6_7314)"/>
<path fill-rule="evenodd" clip-rule="evenodd" d="M100.515 38.75C99.7874 35.7761 98.783 32.8768 97.5151 30.09C97.1818 29.3634 96.8484 28.6484 96.5151 27.945C96.4351 27.775 96.3451 27.61 96.2601 27.445C95.9267 26.805 95.5817 26.175 95.2251 25.555C94.6951 24.635 94.1401 23.735 93.5501 22.855C93.3351 22.525 93.1101 22.2 92.8851 21.855C92.0251 20.615 91.1051 19.41 90.1351 18.255C89.7551 17.8 89.3651 17.35 88.9701 16.91C84.1931 11.5734 78.3426 7.30613 71.8018 4.38771C65.261 1.46929 58.1774 -0.0344216 51.0151 -0.0249802C48.2772 -0.0247624 45.5436 0.19258 42.84 0.625014C42.025 0.760014 41.22 0.909996 40.42 1.075C38.99 1.38166 37.5834 1.74335 36.2 2.16002C34.8167 2.57669 33.4584 3.05334 32.125 3.59001C30.4722 4.24631 28.8565 4.99241 27.285 5.825C16.8472 11.3237 8.6347 20.2662 4.04277 31.1336C-0.549164 42.0009 -1.23738 54.1228 2.09503 65.44C2.42836 66.5667 2.79669 67.6717 3.20003 68.7551C3.62003 69.8801 4.07503 70.99 4.57503 72.075C5.03503 73.075 5.5267 74.075 6.05003 75.075C6.49503 75.915 6.97002 76.735 7.46002 77.545C13.7723 87.8877 23.5583 95.6475 35.0675 99.4363C46.5767 103.225 59.0584 102.796 70.2801 98.2251C70.5001 98.1401 70.7151 98.05 70.9351 97.955C72.9216 97.1125 74.8522 96.1439 76.7151 95.0551C77.4517 94.6251 78.1751 94.1784 78.8851 93.7151C86.0566 89.0223 91.9375 82.6068 95.9901 75.055C101.919 63.933 103.531 51.0127 100.515 38.775V38.75ZM91.0151 75.92C88.9571 79.2087 86.5019 82.2314 83.7051 84.92C82.8451 85.745 81.9601 86.545 81.0401 87.3L80.6451 87.6251C79.2359 88.7677 77.7618 89.8278 76.2301 90.8C75.4101 91.3 74.5701 91.8 73.7301 92.3C73.2901 92.545 72.8451 92.8 72.3951 93.01C70.9407 93.7537 69.4487 94.4213 67.9251 95.01C67.5651 95.15 67.2051 95.2801 66.8451 95.4101C62.4683 96.9741 57.883 97.8773 53.24 98.0901C52.555 98.1251 51.8651 98.1451 51.1751 98.1451H50.9951C47.3298 98.149 43.6767 97.7244 40.1101 96.8801V96.8801H40.07C33.3425 95.2701 27.0503 92.2031 21.6377 87.8954C16.2251 83.5878 11.8239 78.1446 8.74503 71.95C8.71503 71.89 8.68504 71.835 8.66004 71.775C7.74841 69.9299 6.96163 68.0256 6.30502 66.075C6.18502 65.71 6.06503 65.3451 5.95503 64.9751C5.79003 64.4451 5.63502 63.9151 5.49002 63.3801V63.3201V63.275C2.70644 52.9163 3.53175 41.9186 7.83016 32.0914C12.1286 22.2641 19.644 14.1927 29.14 9.205C29.8934 8.81167 30.66 8.43667 31.44 8.08C32.2967 7.69 33.165 7.325 34.045 6.985C35.4512 6.43496 36.8848 5.95767 38.34 5.55501C39.8383 5.14267 41.357 4.80889 42.8901 4.55501C43.7501 4.40001 44.615 4.275 45.49 4.175L46.2351 4.09502C53.5978 3.34718 61.0331 4.34298 67.9396 7.00185C74.846 9.66072 81.0296 13.908 85.9901 19.4C86.8667 20.3667 87.7001 21.3667 88.4901 22.4C88.7851 22.785 89.0751 23.17 89.3501 23.565C90.0567 24.5417 90.7234 25.5417 91.3501 26.565C91.7901 27.2817 92.2051 28.01 92.5951 28.75C92.7551 29.035 92.9051 29.325 93.0501 29.615C93.3801 30.255 93.6901 30.905 93.9851 31.565C94.9725 33.7351 95.7899 35.9785 96.4301 38.275C99.1387 47.9995 98.671 58.3349 95.0951 67.775L95.0601 67.865C94.408 69.5635 93.6584 71.2229 92.8151 72.835C92.2501 73.895 91.6651 74.92 91.0351 75.92H91.0151Z" fill="#F2F1F0"/>
<g opacity="0.25">
<path opacity="0.5" d="M50.42 87.9001C43.1141 87.9031 35.9714 85.7393 29.8954 81.6824C23.8194 77.6255 19.083 71.8577 16.2853 65.1087C13.4877 58.3597 12.7544 50.9326 14.1782 43.7668C15.6021 36.6009 19.1191 30.0184 24.2845 24.8516C29.4498 19.6848 36.0315 16.166 43.1969 14.7402C50.3623 13.3144 57.7897 14.0457 64.5394 16.8416C71.2892 19.6374 77.0582 24.3722 81.1167 30.4471C85.1753 36.5221 87.341 43.6642 87.34 50.9701C87.34 60.7628 83.4506 70.1546 76.527 77.08C69.6035 84.0054 60.2127 87.8974 50.42 87.9001V87.9001Z" stroke="#50E6FF" stroke-width="0.5" stroke-miterlimit="10"/>
<path opacity="0.6" d="M88.5063 51.0317C88.543 29.998 71.5216 12.917 50.4878 12.8803C29.4541 12.8436 12.3731 29.8651 12.3364 50.8988C12.2997 71.9325 29.3211 89.0135 50.3549 89.0502C71.3886 89.0869 88.4696 72.0655 88.5063 51.0317Z" stroke="#50E6FF" stroke-width="0.6" stroke-miterlimit="10"/>
<path opacity="0.7" d="M89.6612 51.0337C89.699 29.3621 72.1614 11.7631 50.4898 11.7253C28.8181 11.6874 11.2191 29.2251 11.1813 50.8967C11.1435 72.5684 28.6811 90.1674 50.3528 90.2052C72.0244 90.243 89.6234 72.7054 89.6612 51.0337Z" stroke="#50E6FF" stroke-width="0.7" stroke-miterlimit="10"/>
<path opacity="0.8" d="M90.8163 51.0357C90.8552 28.7262 72.8013 10.6092 50.4918 10.5702C28.1823 10.5313 10.0653 28.5852 10.0263 50.8947C9.98738 73.2042 28.0413 91.3212 50.3508 91.3602C72.6603 91.3991 90.7773 73.3452 90.8163 51.0357Z" stroke="#50E6FF" stroke-width="0.8" stroke-miterlimit="10"/>
<path opacity="0.9" d="M91.9662 51.0377C92.0063 28.0931 73.4385 9.46033 50.4938 9.42029C27.5492 9.38024 8.91639 27.9481 8.87634 50.8927C8.8363 73.8374 27.4042 92.4701 50.3488 92.5102C73.2934 92.5502 91.9262 73.9824 91.9662 51.0377Z" stroke="#50E6FF" stroke-width="0.9" stroke-miterlimit="10"/>
<path opacity="0.25" d="M50.42 93.6701C41.975 93.6691 33.7198 91.164 26.6985 86.4714C19.6772 81.7789 14.205 75.1097 10.9739 67.3072C7.74281 59.5047 6.89792 50.9193 8.54607 42.6366C10.1942 34.354 14.2614 26.746 20.2333 20.7748C26.2052 14.8036 33.8136 10.7373 42.0965 9.09014C50.3794 7.44296 58.9646 8.28886 66.7668 11.5209C74.5689 14.7529 81.2374 20.2258 85.9291 27.2477C90.6208 34.2696 93.125 42.525 93.125 50.9701C93.1257 56.5781 92.0215 62.1314 89.8756 67.3126C87.7296 72.4938 84.5839 77.2015 80.6182 81.1668C76.6525 85.132 71.9444 88.2772 66.7629 90.4225C61.5814 92.5679 56.0281 93.6714 50.42 93.6701V93.6701Z" stroke="#50E6FF" stroke-miterlimit="10"/>
</g>
<path opacity="0.09" d="M83.3701 89.86C77.2142 93.8762 70.2634 96.515 62.9932 97.5959C55.723 98.6767 48.305 98.1742 41.2471 96.1225C34.1891 94.0709 27.6577 90.5187 22.0998 85.7089C16.5419 80.8991 12.0887 74.9453 9.04506 68.255C8.54506 67.17 8.09006 66.06 7.67006 64.935C7.25006 63.81 6.89506 62.745 6.56506 61.62C7.53006 61.47 8.49506 61.345 9.46506 61.235L10.4401 61.13H10.5101L11.5101 61.035C12.1351 60.975 12.7651 60.93 13.3951 60.89C25.3473 60.0939 37.3334 61.8191 48.576 65.9537C59.8185 70.0882 70.0665 76.5398 78.6551 84.89C79.1551 85.39 79.6801 85.89 80.1851 86.39L80.7351 86.965C80.9601 87.2 81.1851 87.435 81.4001 87.675C81.7801 88.08 82.1551 88.485 82.5251 88.9C82.8151 89.2267 83.0968 89.5467 83.3701 89.86Z" fill="white"/>
<path opacity="0.09" d="M93.5351 22.8551C92.5351 23.0651 91.5351 23.2451 90.5351 23.3951L89.995 23.4701C89.78 23.5051 89.5601 23.5351 89.3401 23.5601C88.08 23.7201 86.8067 23.8317 85.52 23.8951C84.665 23.9401 83.8 23.9601 82.935 23.9601C75.9129 23.969 68.965 22.5235 62.5291 19.7147C56.0932 16.906 50.3087 12.7947 45.54 7.64006L45.37 7.45506C44.5067 6.51506 43.6734 5.54339 42.87 4.54006C42.735 4.37005 42.6 4.19505 42.47 4.04005C42.125 3.59505 41.79 3.14507 41.47 2.68507C41.15 2.22507 40.75 1.66005 40.405 1.13505C41.205 0.970054 42.01 0.820073 42.825 0.685073C45.5286 0.252638 48.2621 0.0352962 51 0.0350784C58.1624 0.025637 65.2459 1.52935 71.7867 4.44777C78.3275 7.36619 84.178 11.6335 88.9551 16.9701C89.3501 17.4101 89.74 17.8601 90.12 18.3151C91.09 19.4701 92.0101 20.6751 92.8701 21.9151C93.0951 22.2001 93.3401 22.5251 93.5351 22.8551Z" fill="white"/>
<path opacity="0.09" d="M97.52 30.09C97.075 30.295 96.625 30.495 96.175 30.685C95.725 30.875 95.24 31.075 94.765 31.26L94.57 31.33L93.97 31.56C92.97 31.935 91.97 32.275 90.915 32.56C80.2194 35.7589 68.7703 35.3651 58.3198 31.4389C47.8694 27.5126 38.9933 20.2702 33.05 10.82C32.4866 9.92004 31.95 9.00003 31.44 8.06003L31.29 7.78504L31.17 7.45001C31 6.95001 30.835 6.50002 30.67 6.01502C30.555 5.66002 30.44 5.30003 30.335 4.93503C31.075 4.82003 31.835 4.72001 32.56 4.63501C32.665 4.63501 32.77 4.60503 32.875 4.59503L33.235 4.55002L33.9 4.48001L34.21 4.44504H34.28L34.78 4.39502C35.395 4.33502 36.005 4.28503 36.625 4.24503C36.8 4.24503 36.97 4.21502 37.125 4.20502C37.965 4.14502 38.8 4.10004 39.625 4.07004C40.45 4.04004 41.415 4.01501 42.32 4.01001H42.42C43.6666 4.01001 44.915 4.03004 46.165 4.07004C55.8275 4.44378 65.3541 6.47325 74.33 10.07C75.39 10.49 76.45 10.935 77.5 11.41C78.55 11.885 79.5 12.315 80.5 12.8L81.6 13.345C84.5132 14.8296 87.3394 16.479 90.065 18.285C91.035 19.44 91.955 20.645 92.815 21.885C93.04 22.205 93.265 22.53 93.48 22.885C94.07 23.765 94.625 24.665 95.155 25.585C95.5083 26.205 95.8534 26.835 96.19 27.475C96.275 27.64 96.365 27.805 96.445 27.975C96.8417 28.6617 97.2 29.3667 97.52 30.09Z" fill="white"/>
<path opacity="0.09" d="M70.265 98.2301C59.0433 102.796 46.5637 103.223 35.0559 99.436C23.548 95.6486 13.7616 87.8931 7.44495 77.5551C7.62995 77.5551 7.81994 77.52 8.00494 77.51C8.18994 77.5 8.34994 77.4801 8.50494 77.4701C9.10494 77.4251 9.70495 77.3901 10.31 77.3651L10.8949 77.3401H11.0199H11.84C12.655 77.3101 13.475 77.3 14.295 77.3H14.8949C27.7326 77.3845 40.3837 80.3815 51.895 86.0651C56.2667 88.2063 60.4484 90.7153 64.395 93.5651C65.1416 94.1051 65.875 94.6584 66.595 95.2251C66.685 95.2901 66.775 95.3551 66.86 95.4301C67.25 95.7301 67.64 96.0401 68.025 96.3551L68.2 96.4951L68.27 96.5501C68.89 97.0534 69.5033 97.5684 70.11 98.0951L70.265 98.2301Z" fill="white"/>
<path d="M33.34 52.835C33.284 52.291 33.0643 51.7767 32.71 51.36C32.3764 50.9337 31.9763 50.564 31.525 50.265C31.2004 50.0507 30.834 49.9076 30.45 49.845C30.0497 49.6948 29.6215 49.6333 29.195 49.665C28.865 49.755 28.5 49.705 28.195 49.82C27.4851 50.0271 26.8464 50.4269 26.35 50.975C25.8928 51.4935 25.5518 52.1038 25.35 52.765C25.187 53.42 25.1699 54.1027 25.3 54.765C25.486 55.5576 25.9121 56.2736 26.52 56.815C26.9813 57.2518 27.5369 57.5764 28.1439 57.7637C28.7509 57.951 29.3929 57.9959 30.02 57.895C30.8458 57.791 31.6113 57.4082 32.19 56.81C32.6721 56.3692 33.0189 55.8004 33.19 55.17C33.235 54.97 33.405 54.79 33.6 54.825C34.138 54.8525 34.6771 54.8525 35.215 54.825C35.6343 54.826 36.0532 54.8494 36.47 54.895C36.905 54.975 37.095 55.15 37.095 55.595V65.95C37.095 66.39 37.095 66.38 36.645 66.24C35.9158 66.0047 35.2096 65.7034 34.535 65.34C34.37 65.2462 34.2128 65.1392 34.065 65.02C33.6101 64.7599 33.18 64.4587 32.78 64.12C32.6552 63.954 32.4742 63.8391 32.2709 63.7968C32.0675 63.7545 31.8557 63.7876 31.675 63.89C31.1289 64.0809 30.5689 64.2297 30 64.335C29.2988 64.4421 28.5889 64.4822 27.88 64.455C27.1266 64.4261 26.3802 64.2983 25.66 64.075C24.8775 63.8845 24.1345 63.5579 23.465 63.11C22.7071 62.6538 22.017 62.0933 21.415 61.445C20.7956 60.7866 20.2645 60.0504 19.835 59.255C19.5586 58.7247 19.3213 58.1749 19.125 57.61C18.8045 56.8106 18.604 55.9681 18.53 55.11C18.53 54.715 18.425 54.315 18.4 53.905C18.4042 53.2343 18.4661 52.5651 18.585 51.905C18.6935 51.0387 18.9381 50.1949 19.31 49.405C19.8213 48.2169 20.509 47.1128 21.35 46.13C21.4529 45.9639 21.6129 45.8412 21.8 45.785C21.8464 45.7721 21.8858 45.7416 21.91 45.7C22.215 45.13 22.78 44.85 23.25 44.455C23.6836 44.0798 24.1505 43.7451 24.645 43.455C25.415 42.9759 26.2391 42.5899 27.1 42.305C27.51 42.18 27.555 41.75 27.675 41.41C27.9028 40.6212 28.2759 39.8819 28.775 39.23C28.97 39.01 29.075 38.73 29.275 38.455C29.4706 38.1324 29.7211 37.8464 30.015 37.61C30.18 37.49 30.19 37.28 30.335 37.14C31.0388 36.4283 31.8243 35.8023 32.675 35.275C33.511 34.7456 34.4233 34.3476 35.38 34.095C35.745 34.01 36.15 33.98 36.5 33.885C37.0528 33.8026 37.6112 33.7642 38.17 33.77C38.505 33.73 38.57 33.87 38.57 34.18C38.57 38.39 38.57 42.6 38.57 46.81C38.562 47.3376 38.7509 47.8493 39.1 48.245C39.3823 48.6764 39.7909 49.0099 40.27 49.2C40.5953 49.2899 40.9334 49.3237 41.27 49.3C42.1 49.245 42.93 49.3 43.77 49.27C44.7 49.27 45.63 49.27 46.56 49.27C47.25 49.27 47.56 49.59 47.56 50.27C47.56 51.305 47.56 52.345 47.56 53.38C47.56 53.605 47.525 53.695 47.265 53.79C46.5963 54.0258 45.9978 54.4265 45.525 54.955C45.0779 55.4758 44.7472 56.0861 44.555 56.745C44.4887 57.1365 44.4753 57.535 44.515 57.93C44.5469 58.7503 44.8335 59.5402 45.335 60.19C45.865 61.015 46.7 61.33 47.5 61.69C47.9588 61.8426 48.4477 61.8821 48.9251 61.805C49.6822 61.7446 50.4083 61.4784 51.025 61.035C51.6879 60.5472 52.1965 59.8789 52.49 59.11C52.6579 58.7012 52.7379 58.2617 52.725 57.82C52.7527 56.9497 52.5023 56.0933 52.01 55.375C51.453 54.6457 50.7005 54.0892 49.84 53.77C49.7518 53.7306 49.679 53.6632 49.633 53.5782C49.5869 53.4933 49.57 53.3955 49.585 53.3C49.585 52.1433 49.585 50.9767 49.585 49.8C49.5757 49.4058 49.4696 49.0199 49.276 48.6764C49.0824 48.3329 48.8074 48.0422 48.475 47.83C48.0097 47.4953 47.4418 47.3343 46.87 47.375C45.11 47.375 43.345 47.375 41.585 47.375C41.4535 47.3946 41.3193 47.384 41.1925 47.344C41.0657 47.3039 40.9497 47.2356 40.8533 47.144C40.7569 47.0524 40.6826 46.94 40.6362 46.8155C40.5897 46.6909 40.5722 46.5574 40.585 46.425C40.585 42.165 40.585 37.925 40.585 33.65C40.576 33.4602 40.6265 33.2723 40.7296 33.1127C40.8328 32.9531 40.9833 32.8297 41.16 32.76C41.9406 32.266 42.7699 31.8538 43.635 31.53C44.075 31.3619 44.5306 31.238 44.995 31.16C45.3 31.13 45.6 31.04 45.905 30.985C46.8542 30.835 47.8209 30.835 48.77 30.985C49.5682 31.1323 50.3455 31.3757 51.085 31.71C51.1342 31.7335 51.188 31.7457 51.2425 31.7457C51.2971 31.7457 51.3509 31.7335 51.4 31.71C51.9869 31.4466 52.6028 31.2535 53.2351 31.135C54.1626 30.907 55.1149 30.7945 56.07 30.8C56.8369 30.8478 57.599 30.9531 58.35 31.115C59.385 31.27 60.2401 31.795 61.1601 32.19C61.7499 32.4763 62.3152 32.8107 62.85 33.19C63.0844 33.3749 63.3768 33.4706 63.6751 33.46C63.8401 33.46 64.0101 33.46 64.1751 33.46C65.1969 33.4845 66.2088 33.6666 67.1751 34C67.7941 34.226 68.4 34.4864 68.9901 34.78C69.1977 34.9178 69.3979 35.0663 69.5901 35.225C70.1409 35.5189 70.6461 35.8911 71.0901 36.33C71.4651 36.715 71.8201 37.125 72.2201 37.49C72.6826 37.9554 73.072 38.4881 73.3751 39.07C73.688 39.5302 73.9719 40.0095 74.2251 40.505C74.3701 40.85 74.5101 41.2 74.6551 41.54C74.8502 41.9169 75.0076 42.3122 75.1251 42.72C75.2501 43.315 75.7951 43.35 76.1851 43.575C77.194 44.11 78.1314 44.7702 78.9751 45.54C79.3401 45.895 79.7001 46.255 80.0551 46.625C80.5218 47.1472 80.9324 47.717 81.2801 48.325C81.6184 48.8309 81.889 49.3789 82.0851 49.955C82.2201 50.39 82.3701 50.815 82.4801 51.26C82.6998 52.1269 82.7891 53.0218 82.7451 53.915C82.687 54.8583 82.5106 55.7907 82.2201 56.69C81.9282 57.5013 81.5738 58.2886 81.1601 59.045C80.9227 59.5045 80.6269 59.9314 80.2801 60.315C79.8641 60.8219 79.3984 61.2858 78.8901 61.7C78.1099 62.3129 77.2505 62.8175 76.3351 63.2C75.0593 63.6779 73.6891 63.8492 72.3351 63.7C71.6912 63.6397 71.0623 63.4706 70.4751 63.2C70.3825 63.1443 70.2729 63.1237 70.1664 63.1421C70.0599 63.1604 69.9636 63.2165 69.8951 63.3C69.47 63.73 69.0301 64.15 68.6101 64.59C68.1721 64.9619 67.7038 65.2964 67.2101 65.59C66.5299 66.0385 65.7979 66.4028 65.0301 66.675C64.5736 66.8643 64.0918 66.9857 63.6 67.035C63.13 67.085 62.6701 67.25 62.1901 67.27H62.1551C61.4001 67.435 61.305 67.36 61.305 66.6C61.305 63.635 61.305 60.665 61.305 57.7C61.305 57.45 61.3051 57.33 61.6401 57.3C63.2201 57.17 64.8 57.3 66.38 57.245C67.3059 57.2792 68.233 57.2509 69.1551 57.16C69.4537 57.1034 69.7373 56.9853 69.9878 56.8131C70.2383 56.641 70.4502 56.4186 70.6101 56.16C70.9646 55.6101 71.1521 54.9693 71.1501 54.315C71.1501 53.9 71.5051 53.85 71.7401 53.765C72.4139 53.5008 72.9985 53.0498 73.4251 52.465C73.7283 52.0302 73.9502 51.544 74.0801 51.03C74.2016 50.5178 74.2371 49.9889 74.1851 49.465C74.1538 48.7202 73.8577 48.011 73.3501 47.465C72.964 46.9921 72.4946 46.5938 71.9651 46.29C71.1222 45.8931 70.1756 45.7724 69.2601 45.945C68.3839 46.0921 67.5893 46.5479 67.02 47.23C66.5363 47.7805 66.2083 48.4503 66.0701 49.17C65.9765 49.4759 65.9342 49.7953 65.9451 50.115C66.0271 51.0726 66.4045 51.9811 67.0251 52.715C67.5107 53.2832 68.1521 53.6969 68.8701 53.905C68.9514 53.9279 69.0222 53.9783 69.0706 54.0476C69.1189 54.1169 69.1417 54.2008 69.1351 54.285C69.1537 54.4174 69.1428 54.5522 69.1032 54.6798C69.0635 54.8074 68.9961 54.9247 68.9058 55.0232C68.8154 55.1216 68.7044 55.1989 68.5806 55.2494C68.4569 55.2998 68.3235 55.3222 68.1901 55.315C65.9801 55.315 63.7701 55.315 61.5651 55.315C61.3801 55.315 61.29 55.26 61.305 55.065C61.31 54.9701 61.31 54.875 61.305 54.78C61.305 50.675 61.305 46.575 61.305 42.47C61.3173 41.9261 61.1583 41.3921 60.8506 40.9435C60.5428 40.4949 60.1019 40.1544 59.5901 39.97C59.3383 39.8668 59.0668 39.8207 58.7951 39.835C57.7951 39.835 56.7951 39.835 55.825 39.835C55.5083 39.8081 55.1951 39.7495 54.8901 39.66C54.8355 39.6499 54.7852 39.6234 54.7459 39.5841C54.7067 39.5449 54.6802 39.4946 54.6701 39.44C54.5978 38.943 54.36 38.485 53.995 38.14C53.512 37.5795 52.8918 37.154 52.195 36.905C51.6844 36.7125 51.1404 36.6241 50.5951 36.645C49.7741 36.7317 48.9873 37.0202 48.305 37.485C47.62 37.95 47.305 38.655 46.88 39.29C46.7631 39.5496 46.7001 39.8303 46.695 40.115C46.5285 41.2284 46.8088 42.3625 47.475 43.27C48.041 43.991 48.8194 44.5157 49.7 44.77C50.4652 44.9724 51.2699 44.9724 52.0351 44.77C52.4971 44.6232 52.9242 44.3833 53.29 44.065C53.9211 43.6131 54.3921 42.9722 54.635 42.235C54.6675 42.1206 54.7397 42.0215 54.8387 41.9555C54.9377 41.8895 55.0569 41.861 55.1751 41.875C56.3101 41.875 57.4451 41.875 58.5751 41.875C58.6672 41.8646 58.7604 41.8745 58.8483 41.904C58.9362 41.9335 59.0165 41.9819 59.0837 42.0457C59.1509 42.1096 59.2033 42.1874 59.2372 42.2736C59.2711 42.3599 59.2857 42.4525 59.2801 42.545C59.2801 42.63 59.2801 42.715 59.2801 42.8V67.015C58.8932 66.9383 58.5159 66.8193 58.1551 66.66C57.9943 66.6092 57.8226 66.6033 57.6587 66.6429C57.4948 66.6826 57.3448 66.7663 57.225 66.885C56.5527 67.3184 55.8352 67.6772 55.085 67.955C54.52 68.21 53.915 68.255 53.35 68.455C53.2967 68.4848 53.236 68.4987 53.1751 68.495C52.6684 68.4755 52.1618 68.5379 51.6751 68.68C50.9931 68.8266 50.2908 68.852 49.6 68.755C48.95 68.64 48.295 68.705 47.65 68.55C47.005 68.395 46.23 68.21 45.52 68.05C45.1274 67.9323 44.7459 67.7801 44.38 67.595C43.72 67.3296 43.1033 66.9673 42.55 66.52C42.28 66.29 41.915 66.44 41.62 66.52C40.8633 66.7258 40.0774 66.8036 39.295 66.75C39.17 66.75 39.125 66.675 39.125 66.565V55.33C39.1033 54.7867 38.9095 54.2644 38.5716 53.8384C38.2337 53.4124 37.7691 53.1048 37.245 52.96C36.6473 52.845 36.0375 52.8063 35.43 52.845C34.71 52.815 33.985 52.845 33.26 52.845L33.34 52.835Z" fill="white"/>
</g>
</g>
<defs>
<linearGradient id="paint0_linear_6_7314" x1="44.7974" y1="-10.1153" x2="53.1899" y2="76.5034" gradientUnits="userSpaceOnUse">
<stop stop-color="#00ABDE"/>
<stop offset="1" stop-color="#007ED8"/>
</linearGradient>
<clipPath id="clip0_6_7314">
<rect width="102" height="102" fill="white"/>
</clipPath>
<clipPath id="clip1_6_7314">
<rect width="102" height="102" fill="white"/>
</clipPath>
</defs>
</svg>
