<svg width="100" height="100" viewBox="0 0 100 100" fill="none" xmlns="http://www.w3.org/2000/svg">
<g clip-path="url(#clip0_370_1325)">
<path d="M49.6401 96.4499C40.382 96.4499 31.3317 93.7045 23.6339 88.561C15.936 83.4174 9.93624 76.1067 6.3933 67.5533C2.85036 58.9999 1.92337 49.588 3.72954 40.5077C5.53571 31.4275 9.99394 23.0867 16.5404 16.5402C23.0869 9.99372 31.4277 5.5355 40.5079 3.72933C49.5882 1.92315 59.0001 2.85015 67.5535 6.39308C76.1069 9.93602 83.4176 15.9358 88.5612 23.6336C93.7047 31.3315 96.4501 40.3817 96.4501 49.6399C96.4505 55.7872 95.24 61.8744 92.8878 67.5538C90.5355 73.2332 87.0875 78.3937 82.7407 82.7405C78.3939 87.0873 73.2335 90.5353 67.554 92.8876C61.8746 95.2398 55.7874 96.4503 49.6401 96.4499V96.4499Z" fill="url(#paint0_linear_370_1325)"/>
<path fill-rule="evenodd" clip-rule="evenodd" d="M95.54 49.6399C95.54 58.718 92.848 67.5923 87.8045 75.1406C82.7609 82.6888 75.5923 88.5719 67.2052 92.046C58.818 95.52 49.5891 96.429 40.6854 94.6579C31.7816 92.8869 23.603 88.5153 17.1838 82.0961C10.7646 75.6769 6.39302 67.4983 4.62196 58.5945C2.85089 49.6908 3.75987 40.4618 7.23393 32.0747C10.708 23.6876 16.5911 16.519 24.1393 11.4754C31.6875 6.43187 40.5618 3.73988 49.64 3.73988C55.6677 3.73986 61.6363 4.92708 67.2052 7.23377C72.774 9.54045 77.834 12.9214 82.0963 17.1836C86.3585 21.4458 89.7394 26.5058 92.0461 32.0747C94.3528 37.6435 95.54 43.6122 95.54 49.6399V49.6399ZM49.64 -0.000106449C59.4579 -0.000106449 69.0552 2.91123 77.2185 8.36574C85.3818 13.8203 91.7442 21.573 95.5014 30.6435C99.2585 39.714 100.242 49.695 98.3262 59.3242C96.4108 68.9534 91.6831 77.7984 84.7408 84.7407C77.7985 91.683 68.9535 96.4107 59.3243 98.3261C49.6951 100.241 39.7141 99.2584 30.6436 95.5013C21.5731 91.7441 13.8204 85.3816 8.36584 77.2184C2.91133 69.0551 -1.61629e-06 59.4577 3.61524e-07 49.6399C-0.000786426 43.1208 1.28265 36.6655 3.77702 30.6425C6.27138 24.6196 9.92781 19.147 14.5375 14.5374C19.1471 9.9277 24.6197 6.27127 30.6427 3.77691C36.6656 1.28254 43.121 -0.000894549 49.64 -0.000106449V-0.000106449Z" fill="#F2F1F0"/>
<path fill-rule="evenodd" clip-rule="evenodd" d="M92.7296 49.64C92.7296 58.1624 90.2024 66.4934 85.4676 73.5795C80.7328 80.6656 74.0031 86.1886 66.1294 89.45C58.2557 92.7113 49.5918 93.5647 41.2331 91.902C32.8745 90.2394 25.1966 86.1355 19.1703 80.1092C13.1441 74.083 9.04017 66.4051 7.37753 58.0464C5.7149 49.6878 6.56822 41.0238 9.8296 33.1502C13.091 25.2765 18.6139 18.5468 25.7 13.812C32.7862 9.07718 41.1172 6.55 49.6396 6.55C55.2983 6.54965 60.9017 7.66397 66.1298 9.82933C71.3579 11.9947 76.1082 15.1687 80.1096 19.17C84.1109 23.1713 87.2849 27.9217 89.4502 33.1498C91.6156 38.3778 92.7299 43.9812 92.7296 49.64ZM49.6396 2.81C58.9017 2.81 67.9558 5.55653 75.6569 10.7023C83.3581 15.848 89.3604 23.1619 92.9049 31.7189C96.4493 40.276 97.3767 49.6919 95.5697 58.7761C93.7628 67.8602 89.3027 76.2045 82.7534 82.7538C76.2041 89.3031 67.8598 93.7632 58.7757 95.5702C49.6915 97.3771 40.2756 96.4497 31.7185 92.9053C23.1614 89.3608 15.8476 83.3585 10.7018 75.6574C5.5561 67.9562 2.80957 58.9021 2.80957 49.64C2.81076 37.2203 7.74501 25.3096 16.5271 16.5275C25.3091 7.74544 37.2198 2.81119 49.6396 2.81V2.81Z" fill="#0078D4"/>
<path d="M69.4934 76.2813C69.4355 76.2813 69.3782 76.2699 69.3247 76.2477C69.2713 76.2256 69.2227 76.1931 69.1818 76.1522C69.1409 76.1113 69.1084 76.0627 69.0863 76.0093C69.0642 75.9558 69.0528 75.8985 69.0528 75.8407C69.0511 74.5094 68.5215 73.2331 67.5801 72.2917C66.6388 71.3503 65.3625 70.8207 64.0312 70.8191C63.9149 70.8191 63.8033 70.7731 63.7207 70.6911C63.6382 70.6092 63.5914 70.4979 63.5906 70.3816V70.3816C63.5906 70.2648 63.637 70.1527 63.7196 70.0701C63.8023 69.9874 63.9143 69.941 64.0312 69.941C65.3627 69.9402 66.6395 69.4109 67.5811 68.4693C68.5226 67.5278 69.0519 66.251 69.0528 64.9194C69.0528 64.8026 69.0992 64.6905 69.1818 64.6079C69.2644 64.5252 69.3765 64.4788 69.4934 64.4788C69.6102 64.4788 69.7223 64.5252 69.8049 64.6079C69.8875 64.6905 69.934 64.8026 69.934 64.9194V64.9194C69.9348 66.251 70.4641 67.5278 71.4057 68.4693C72.3472 69.4109 73.624 69.9402 74.9555 69.941C75.0136 69.9407 75.0711 69.9518 75.1248 69.9737C75.1785 69.9956 75.2274 70.028 75.2686 70.0688C75.3098 70.1097 75.3425 70.1583 75.3648 70.2118C75.3872 70.2654 75.3987 70.3228 75.3988 70.3808C75.3989 70.4389 75.3876 70.4963 75.3654 70.55C75.3432 70.6036 75.3107 70.6523 75.2696 70.6933C75.2286 70.7343 75.1798 70.7668 75.1262 70.7889C75.0726 70.8111 75.0151 70.8224 74.9571 70.8222H74.9555C73.6242 70.8239 72.3479 71.3534 71.4066 72.2948C70.4652 73.2362 69.9356 74.5125 69.934 75.8438C69.9331 75.9601 69.8863 76.0714 69.8038 76.1533C69.7213 76.2353 69.6097 76.2813 69.4934 76.2813Z" fill="#50E6FF"/>
<path fill-rule="evenodd" clip-rule="evenodd" d="M92.7296 49.6399C92.7296 58.1623 90.2024 66.4933 85.4676 73.5794C80.7328 80.6655 74.0031 86.1885 66.1294 89.4499C58.2557 92.7112 49.5918 93.5646 41.2331 91.9019C32.8745 90.2393 25.1966 86.1354 19.1703 80.1091C13.1441 74.0829 9.04017 66.405 7.37753 58.0463C5.7149 49.6877 6.56822 41.0237 9.8296 33.1501C13.091 25.2764 18.6139 18.5467 25.7001 13.8119C32.7862 9.07708 41.1172 6.5499 49.6396 6.5499C55.2983 6.54956 60.9017 7.66388 66.1298 9.82923C71.3579 11.9946 76.1082 15.1686 80.1096 19.1699C84.1109 23.1712 87.2849 27.9216 89.4502 33.1497C91.6156 38.3777 92.7299 43.9811 92.7296 49.6399V49.6399ZM49.6396 2.8099C58.9017 2.8099 67.9558 5.55643 75.6569 10.7022C83.3581 15.8479 89.3604 23.1618 92.9048 31.7188C96.4493 40.2759 97.3767 49.6918 95.5697 58.776C93.7628 67.8601 89.3027 76.2044 82.7534 82.7537C76.2041 89.303 67.8598 93.7631 58.7757 95.5701C49.6915 97.377 40.2756 96.4496 31.7185 92.9052C23.1614 89.3607 15.8476 83.3584 10.7018 75.6573C5.5561 67.9561 2.80957 58.902 2.80957 49.6399C2.81075 37.2202 7.74499 25.3095 16.5271 16.5274C25.3091 7.7453 37.2198 2.81105 49.6396 2.80986V2.8099Z" fill="#0078D4"/>
<path d="M29.1573 36.7859C29.0845 36.7863 29.0123 36.7724 28.9448 36.7449C28.8774 36.7174 28.816 36.6769 28.7642 36.6257C28.7124 36.5745 28.6712 36.5136 28.643 36.4465C28.6147 36.3794 28.6 36.3073 28.5996 36.2345V36.2281C28.597 34.5403 27.9254 32.9224 26.732 31.729C25.5385 30.5355 23.9206 29.8639 22.2328 29.8614C22.0854 29.8614 21.944 29.8031 21.8395 29.6992C21.735 29.5952 21.6759 29.4542 21.675 29.3068C21.6751 29.1589 21.7338 29.017 21.8384 28.9124C21.943 28.8078 22.0849 28.749 22.2328 28.749C23.9212 28.7465 25.5396 28.0745 26.7331 26.8804C27.9267 25.6862 28.5979 24.0675 28.5996 22.3792C28.5991 22.3063 28.6131 22.2341 28.6405 22.1667C28.668 22.0992 28.7085 22.0379 28.7597 21.9861C28.8109 21.9343 28.8718 21.8931 28.939 21.8648C29.0061 21.8366 29.0781 21.8218 29.1509 21.8214H29.1573C29.2301 21.821 29.3023 21.8349 29.3698 21.8624C29.4372 21.8899 29.4986 21.9304 29.5504 21.9816C29.6022 22.0328 29.6434 22.0937 29.6716 22.1608C29.6999 22.2279 29.7147 22.3 29.7151 22.3728V22.3792C29.7176 24.0669 30.3892 25.6849 31.5826 26.8783C32.7761 28.0718 34.394 28.7434 36.0818 28.7459C36.1546 28.7455 36.2268 28.7594 36.2943 28.7869C36.3617 28.8144 36.4231 28.8549 36.4749 28.9061C36.5267 28.9573 36.5679 29.0182 36.5961 29.0853C36.6244 29.1524 36.6391 29.2245 36.6396 29.2973V29.3036C36.64 29.3765 36.626 29.4487 36.5986 29.5161C36.5711 29.5836 36.5306 29.6449 36.4794 29.6967C36.4282 29.7485 36.3673 29.7897 36.3001 29.818C36.233 29.8462 36.161 29.861 36.0882 29.8614H36.0818C34.3938 29.8631 32.7753 30.5344 31.5817 31.728C30.3881 32.9217 29.7167 34.5401 29.7151 36.2281C29.7142 36.3758 29.6552 36.5172 29.5508 36.6216C29.4464 36.726 29.305 36.7851 29.1573 36.7859V36.7859Z" fill="#50E6FF"/>
<path d="M67.2342 43.9608C68.128 47.7021 67.8923 51.6244 66.5569 55.2318C65.2216 58.8392 62.8464 61.9696 59.732 64.2271C56.6175 66.4846 52.9035 67.7679 49.0597 67.9147C45.2159 68.0614 41.4149 67.065 38.1374 65.0516C34.8598 63.0381 32.2529 60.0979 30.6464 56.6028C29.0398 53.1078 28.5058 49.2148 29.1117 45.4162C29.7177 41.6177 31.4365 38.0841 34.0507 35.2623C36.6649 32.4406 40.0571 30.4574 43.7985 29.5636H43.7986C48.8156 28.365 54.1031 29.2085 58.4981 31.9085C62.8931 34.6085 66.0356 38.9438 67.2342 43.9608Z" fill="url(#paint1_radial_370_1325)"/>
<path d="M37.8883 61.6601C38.5705 61.6793 39.2499 61.5637 39.8874 61.32C40.525 61.0764 41.1082 60.7094 41.6037 60.24C42.0993 59.7707 42.4974 59.2082 42.7753 58.5848C43.0532 57.9615 43.2055 57.2894 43.2233 56.6071C43.2412 55.9248 43.1244 55.2457 42.8795 54.6086C42.6346 53.9715 42.2665 53.389 41.7962 52.8943C41.3259 52.3997 40.7627 52.0027 40.1388 51.7259C39.5148 51.4492 38.8425 51.2982 38.1602 51.2817C38.0748 51.2794 37.9895 51.2793 37.9042 51.2813C37.9195 51.1339 37.9269 50.9858 37.9263 50.8376C37.9138 49.4527 37.3526 48.1292 36.3659 47.1574C35.3792 46.1855 34.0474 45.6445 32.6625 45.653H28.7708C28.39 48.5284 28.6454 51.4524 29.5188 54.2184C30.3923 56.9843 31.8624 59.5247 33.8255 61.6601H37.8883Z" fill="#F2F2F2"/>
<path d="M67.4751 44.8639C67.4788 44.8163 67.4712 44.7685 67.4529 44.7245C66.826 41.3333 65.2854 38.1775 62.9971 35.5975C62.7002 35.4772 62.3939 35.3818 62.0812 35.3122C61.2485 35.0746 60.3727 35.0291 59.5198 35.1791C58.6669 35.329 57.8592 35.6706 57.1574 36.178C56.4557 36.6854 55.8782 37.3454 55.4685 38.1083C55.0589 38.8713 54.8276 39.7172 54.7923 40.5825C54.5819 40.5581 54.3703 40.5444 54.1585 40.5413C52.8604 40.5412 51.6041 40.9998 50.6114 41.8361C49.6187 42.6724 48.9535 43.8326 48.7332 45.1118C48.5129 46.391 48.7518 47.7069 49.4076 48.8271C50.0634 49.9473 51.0939 50.7997 52.3172 51.2338C52.8633 51.4478 53.4452 51.5554 54.0317 51.5507H60.4651C63.0482 49.5954 65.4001 47.3519 67.4751 44.8639Z" fill="#F2F2F2"/>
<path d="M74.2758 32.2414C72.2824 28.9233 67.6207 27.6303 61.1082 28.6001C58.8769 28.9163 56.6717 29.3951 54.5101 30.0325C56.2249 30.6245 57.8533 31.4419 59.3525 32.4632C60.1163 32.2952 60.8832 32.0956 61.6184 31.9847C62.775 31.8046 63.9434 31.7104 65.1139 31.7027C66.2583 31.5377 67.4257 31.6615 68.51 32.0628C69.5942 32.4641 70.561 33.1301 71.3222 34.0003C72.536 36.0222 71.5124 39.4797 68.5144 43.5076C64.3479 48.6936 59.2423 53.0488 53.4643 56.3456C47.8158 59.871 41.5547 62.3028 35.0074 63.5141C30.051 64.2557 26.5079 63.5141 25.2941 61.4986C24.0804 59.483 25.104 56.016 28.102 52.0071C28.4727 51.5096 28.5647 51.2655 28.9861 50.7648C28.788 49.0467 28.8157 47.3101 29.0685 45.5992C27.7212 46.9497 26.4815 48.4035 25.3607 49.9472C21.4342 55.1984 20.3693 59.9203 22.3595 63.2384C23.4109 64.6449 24.8131 65.7508 26.4259 66.4454C28.0387 67.14 29.8056 67.3991 31.5499 67.1966C32.8775 67.1896 34.2027 67.0836 35.5145 66.8797C42.5033 65.6041 49.1893 63.0239 55.2232 59.2738C61.3854 55.7473 66.8269 51.0896 71.262 45.5453C75.2012 40.2814 76.266 35.5626 74.2758 32.2414Z" fill="#50E6FF"/>
<path opacity="0.2" d="M51.1425 67.1477L51.0923 67.7298C51.673 67.6455 52.2545 67.5343 52.8368 67.3963C56.3771 66.5505 59.6088 64.7273 62.1635 62.1345C64.7183 59.5416 66.4935 56.2834 67.2869 52.7309L66.7662 52.7339C62.8287 52.7388 59.0369 54.2234 56.1429 56.8933C53.2489 59.5632 51.4641 63.2234 51.1425 67.1477Z" fill="#003067"/>
<path d="M80.5309 68.5154C80.5324 66.1979 79.9482 63.9175 78.8327 61.8861C77.7171 59.8547 76.1063 58.1382 74.1498 56.8959C72.1933 55.6536 69.9546 54.9259 67.6417 54.7803C65.3287 54.6347 63.0164 55.076 60.9196 56.0631C58.8228 57.0503 57.0094 58.5513 55.6479 60.4267C54.2864 62.3022 53.4209 64.4913 53.1318 66.7908C52.8427 69.0902 53.1394 71.4254 53.9943 73.5796C54.8492 75.7337 56.2345 77.6368 58.0217 79.1123L57.9566 79.2316L59.5977 80.2403C59.7381 80.3267 59.8837 80.403 60.0268 80.484C60.1254 80.5399 60.2219 80.5983 60.3221 80.6518C60.6582 80.8311 61.0004 80.9963 61.3488 81.1471C61.4485 81.1901 61.551 81.2269 61.6518 81.2675C61.9244 81.3774 62.2 81.4785 62.4786 81.5707C62.6033 81.612 62.7276 81.6531 62.8539 81.6907C63.2223 81.8007 63.594 81.8999 63.9707 81.9786C64.0355 81.9921 64.1021 82.0002 64.1672 82.0128C64.5069 82.0786 64.8495 82.13 65.1942 82.17C65.3095 82.1833 65.4248 82.1956 65.5409 82.206C65.9514 82.2431 66.3635 82.2687 66.7781 82.2687C67.191 82.2687 67.6017 82.2432 68.0108 82.2062C68.1253 82.1959 68.2394 82.1843 68.3529 82.1714C68.7177 82.1293 69.0807 82.076 69.4402 82.005C69.5258 81.9881 69.6102 81.9688 69.6954 81.9504C70.022 81.8793 70.3453 81.7949 70.6657 81.7002C70.7994 81.6607 70.9321 81.6193 71.0639 81.5758C71.3575 81.4792 71.6477 81.3728 71.9344 81.2565C72.0124 81.2248 72.0926 81.1982 72.1699 81.1651C72.5141 81.018 72.8503 80.852 73.1823 80.6767C73.295 80.6172 73.4052 80.5546 73.5161 80.4921C73.6166 80.4353 73.7196 80.3839 73.8189 80.3245L75.5491 79.2885L75.4733 79.16C77.0536 77.8724 78.3274 76.2491 79.2022 74.408C80.077 72.5668 80.5309 70.5539 80.5309 68.5154V68.5154Z" fill="url(#paint2_linear_370_1325)"/>
<path fill-rule="evenodd" clip-rule="evenodd" d="M66.7778 80.2401C68.8908 80.2423 70.9646 79.6697 72.7772 78.5837L70.4483 74.6423C70.3254 74.4588 70.1616 74.3062 69.9697 74.1967C69.7778 74.0873 69.5631 74.0238 69.3426 74.0114H63.8466C63.6275 74.0235 63.4146 74.0884 63.2259 74.2004C63.0372 74.3124 62.8783 74.4682 62.7627 74.6548L60.6589 78.5122C62.499 79.6441 64.6174 80.2424 66.7778 80.2401V80.2401Z" fill="white"/>
<path fill-rule="evenodd" clip-rule="evenodd" d="M75.5714 68.5154C75.5726 69.6702 75.3453 70.8137 74.9026 71.8803C74.4599 72.9468 73.8105 73.9151 72.9919 74.7296L70.6616 72.3993C71.1726 71.8898 71.5781 71.2845 71.8547 70.618C72.1314 69.9515 72.2738 69.237 72.2738 68.5154C72.2738 67.7938 72.1314 67.0793 71.8547 66.4129C71.5781 65.7464 71.1726 65.1411 70.6616 64.6316L72.9919 62.3013C73.8105 63.1157 74.4599 64.0841 74.9026 65.1506C75.3453 66.2171 75.5726 67.3607 75.5714 68.5154Z" fill="white"/>
<path opacity="0.3" fill-rule="evenodd" clip-rule="evenodd" d="M61.282 68.5154C61.2812 69.2371 61.4233 69.9519 61.7 70.6184C61.9767 71.285 62.3825 71.8902 62.8941 72.3993L60.5638 74.7296C59.7462 73.9144 59.0975 72.9459 58.6549 71.8795C58.2122 70.8132 57.9844 69.67 57.9844 68.5154C57.9844 67.3609 58.2122 66.2177 58.6549 65.1513C59.0975 64.085 59.7462 63.1165 60.5638 62.3013L62.8941 64.6316C62.3825 65.1406 61.9767 65.7459 61.7 66.4124C61.4233 67.079 61.2812 67.7937 61.282 68.5154Z" fill="white"/>
<path fill-rule="evenodd" clip-rule="evenodd" d="M66.778 78.7745C64.7489 78.7745 62.7654 78.1729 61.0783 77.0456C59.3912 75.9183 58.0762 74.316 57.2997 72.4414C56.5233 70.5668 56.3201 68.504 56.7159 66.5139C57.1118 64.5238 58.0889 62.6958 59.5237 61.2611C60.9584 59.8263 62.7864 58.8492 64.7765 58.4534C66.7666 58.0575 68.8294 58.2607 70.704 59.0372C72.5786 59.8137 74.1809 61.1286 75.3082 62.8157C76.4355 64.5028 77.0371 66.4863 77.0371 68.5154C77.0342 71.2354 75.9523 73.8431 74.029 75.7664C72.1057 77.6897 69.498 78.7716 66.778 78.7745V78.7745ZM66.778 56.7906C64.459 56.7906 62.1922 57.4783 60.2641 58.7666C58.3359 60.055 56.8331 61.8861 55.9457 64.0285C55.0583 66.171 54.8261 68.5284 55.2785 70.8028C55.7309 73.0772 56.8476 75.1663 58.4873 76.806C60.1271 78.4458 62.2162 79.5625 64.4906 80.0149C66.765 80.4673 69.1224 80.2351 71.2649 79.3477C73.4073 78.4602 75.2384 76.9574 76.5268 75.0293C77.8151 73.1012 78.5027 70.8343 78.5027 68.5154C78.4992 65.4069 77.2628 62.4267 75.0648 60.2286C72.8667 58.0306 69.8865 56.7942 66.778 56.7906V56.7906Z" fill="white"/>
<path fill-rule="evenodd" clip-rule="evenodd" d="M65.531 67.1784C65.2904 67.4038 65.1153 67.6901 65.0244 68.007C64.9334 68.3239 64.9299 68.6595 65.0144 68.9781C63.1794 67.9244 60.2783 66.2089 60.3904 65.955C60.5094 65.6872 63.9682 66.479 65.8658 66.9355C65.7453 67.0034 65.633 67.0849 65.531 67.1784Z" fill="white"/>
<path fill-rule="evenodd" clip-rule="evenodd" d="M68.0989 67.2674C67.8521 67.0021 67.5322 66.816 67.1796 66.7325C66.8271 66.649 66.4577 66.6719 66.1181 66.7984C65.7786 66.9249 65.4842 67.1492 65.2721 67.4429C65.06 67.7367 64.9399 68.0868 64.9267 68.4489C64.9136 68.811 65.0082 69.1688 65.1984 69.4772C65.3887 69.7855 65.6661 70.0305 65.9956 70.1812C66.3251 70.3319 66.6919 70.3815 67.0496 70.3238C67.4073 70.266 67.7398 70.1035 68.0051 69.8567C68.3604 69.5255 68.5698 69.0669 68.5874 68.5815C68.6049 68.096 68.4293 67.6235 68.0989 67.2674V67.2674ZM66.7309 69.2478C66.5861 69.2426 66.446 69.1945 66.3285 69.1097C66.2109 69.0249 66.1211 68.9072 66.0705 68.7714C66.0199 68.6356 66.0106 68.4878 66.044 68.3467C66.0773 68.2057 66.1518 68.0777 66.2579 67.9789C66.3639 67.8801 66.4969 67.815 66.64 67.7919C66.7831 67.7687 66.9298 67.7884 67.0617 67.8486C67.1935 67.9088 67.3046 68.0068 67.3808 68.1301C67.4569 68.2534 67.4949 68.3965 67.4897 68.5414C67.4824 68.7356 67.3985 68.9189 67.2562 69.0513C67.114 69.1837 66.9251 69.2544 66.7309 69.2478Z" fill="white"/>
<path opacity="0.6" fill-rule="evenodd" clip-rule="evenodd" d="M67.676 59.7673C67.3776 59.737 67.0778 59.7218 66.7778 59.7218C65.6231 59.7205 64.4795 59.9478 63.413 60.3905C62.3465 60.8332 61.3781 61.4826 60.5637 62.3013L62.894 64.6316C63.4035 64.1206 64.0088 63.7151 64.6753 63.4385C65.3417 63.1618 66.0562 63.0194 66.7778 63.0194C67.4994 63.0194 68.2139 63.1618 68.8804 63.4385C69.5469 63.7151 70.1522 64.1206 70.6617 64.6316L72.9919 62.3013C71.5659 60.868 69.6875 59.9726 67.676 59.7673V59.7673Z" fill="white"/>
</g>
<defs>
<linearGradient id="paint0_linear_370_1325" x1="47.8698" y1="-15.1532" x2="51.8525" y2="130.615" gradientUnits="userSpaceOnUse">
<stop stop-color="#00ABDE"/>
<stop offset="1" stop-color="#007ED8"/>
</linearGradient>
<radialGradient id="paint1_radial_370_1325" cx="0" cy="0" r="1" gradientUnits="userSpaceOnUse" gradientTransform="translate(48.1682 48.48) scale(19.5514 19.3816)">
<stop offset="0.183" stop-color="#5EA0EF"/>
<stop offset="1" stop-color="#0078D4"/>
</radialGradient>
<linearGradient id="paint2_linear_370_1325" x1="66.7776" y1="82.2687" x2="66.7776" y2="54.7622" gradientUnits="userSpaceOnUse">
<stop stop-color="#004DAE"/>
<stop offset="0.21" stop-color="#0061C4"/>
<stop offset="0.51" stop-color="#0078DD"/>
<stop offset="0.78" stop-color="#0086EC"/>
<stop offset="1" stop-color="#008BF1"/>
</linearGradient>
<clipPath id="clip0_370_1325">
<rect width="99.2799" height="99.28" fill="white"/>
</clipPath>
</defs>
</svg>
