<svg width="181" height="191" viewBox="0 0 181 191" fill="none" xmlns="http://www.w3.org/2000/svg">
<path d="M90.5589 189.87C93.6189 189.87 96.6289 189.02 99.2889 187.4L161.259 149.74C166.799 146.37 170.229 140.04 170.229 133.2V58.4902C170.229 51.6702 166.799 45.3302 161.259 41.9502L99.2889 4.29018C93.9589 1.05018 87.1389 1.07018 81.8389 4.29018L19.8689 41.9702C14.3289 45.3402 10.8789 51.6702 10.8789 58.5102V133.21C10.8789 138.97 13.3289 144.39 17.4289 147.96V147.99L81.8389 187.42C84.4789 189.02 87.4989 189.87 90.5589 189.87ZM91.2089 8.82018C93.1589 8.82018 95.6389 10.0302 97.3489 11.0802L158.109 48.2702C161.859 50.5502 163.979 57.1502 163.979 61.9002L163.349 133.2C163.349 137.95 160.149 142.22 156.399 144.5L95.9989 180.88C92.5689 182.97 89.7789 182.97 86.3389 180.88L25.1289 144.41C21.3789 142.13 18.3589 137.93 18.3589 133.2V59.5602C18.3589 54.8202 21.0889 49.9302 24.8589 47.6402L85.4389 11.0802C87.1389 10.0402 89.2589 8.82018 91.2089 8.82018Z" fill="#F2F1F0"/>
<path fill-rule="evenodd" clip-rule="evenodd" d="M98.4584 12.3999C96.0084 10.8999 93.2884 10.1499 90.5584 10.1499C87.8284 10.1499 85.1084 10.9099 82.6584 12.3999L26.5284 46.7299C21.5084 49.7999 18.3984 55.5499 18.3984 61.7999V129.9C18.3984 136.13 21.4984 141.9 26.5284 144.97L82.6584 179.3C85.1084 180.8 87.8284 181.55 90.5584 181.55C93.2884 181.55 96.0084 180.81 98.4584 179.3L154.588 144.97C159.608 141.9 162.718 136.13 162.718 129.9V61.7999C162.718 55.5699 159.618 49.8199 154.588 46.7299L98.4584 12.3999Z" fill="url(#paint0_linear)"/>
<path fill-rule="evenodd" clip-rule="evenodd" d="M90.5584 11.6201C92.2384 11.6201 94.1284 12.4901 96.1884 13.7401L154.658 49.2801C158.308 51.5001 160.718 55.7701 160.718 60.6001V131.08C160.718 135.9 158.308 140.18 154.658 142.4L96.1984 177.94C94.2384 179.13 92.3184 179.88 90.5684 179.88C88.8184 179.88 86.8984 179.13 84.9384 177.94L26.4584 142.41C24.4484 141.18 22.9984 139.98 22.0184 138.37C21.0384 136.77 20.3984 134.55 20.3984 131.09V60.6101C20.3984 55.7801 22.8084 51.5101 26.4584 49.2901L84.9184 13.7501C87.0084 12.5001 88.8684 11.6201 90.5584 11.6201ZM98.2684 181.37L156.728 145.83C161.648 142.84 164.708 137.22 164.708 131.09V60.6101C164.708 54.4801 161.648 48.8601 156.728 45.8701L98.2684 10.3301C96.1584 9.05012 93.4484 7.62012 90.5584 7.62012C87.6584 7.62012 84.9484 9.06012 82.8584 10.3201H82.8484L24.3784 45.8701C19.4584 48.8601 16.3984 54.4801 16.3984 60.6101V131.09C16.3984 135.05 17.1384 138.04 18.5984 140.45C20.0584 142.85 22.1184 144.45 24.3784 145.82L82.8384 181.36C85.0584 182.71 87.7284 183.89 90.5484 183.89C93.3684 183.89 96.0484 182.72 98.2684 181.37Z" fill="url(#paint1_linear)"/>
<path d="M90.9191 57.74C85.9391 57.74 81.8691 53.66 81.8691 48.64C81.8691 43.62 85.9391 39.54 90.9191 39.54C95.8991 39.54 99.9691 43.62 99.9691 48.64C99.9691 53.66 95.9091 57.74 90.9191 57.74ZM90.9191 43.13C87.9191 43.13 85.4691 45.59 85.4691 48.63C85.4691 51.67 87.9191 54.13 90.9191 54.13C93.9191 54.13 96.3691 51.67 96.3691 48.63C96.3691 45.59 93.9291 43.13 90.9191 43.13Z" fill="url(#paint2_linear)"/>
<path d="M114.078 144.25H68.918L64.168 153.1L60.998 151.39L74.148 126.91L77.298 128.64L70.838 140.66H112.138L105.678 128.64L108.848 126.93L121.998 151.41L118.828 153.12L114.078 144.25Z" fill="url(#paint3_linear)"/>
<path d="M140.448 58.3701H42.5977V124.14H140.448V58.3701Z" fill="url(#paint4_linear)"/>
<path d="M41.3285 48.6201H141.689C143.669 48.6201 145.289 50.2401 145.289 52.2201V55.9801C145.289 57.9601 143.669 59.5801 141.689 59.5801H41.3285C39.3485 59.5801 37.7285 57.9601 37.7285 55.9801V52.2201C37.7285 50.2301 39.3485 48.6201 41.3285 48.6201Z" fill="url(#paint5_linear)"/>
<path d="M40.7685 122.75H142.229C143.899 122.75 145.269 124.12 145.269 125.79C145.269 127.46 143.899 128.83 142.229 128.83H40.7685C39.0985 128.85 37.7285 127.48 37.7285 125.81C37.7285 124.12 39.0985 122.75 40.7685 122.75Z" fill="url(#paint6_linear)"/>
<path d="M140.448 58.3701H42.5977V124.14H140.448V58.3701Z" fill="url(#paint7_linear)"/>
<path d="M41.3285 48.6201H141.689C143.669 48.6201 145.289 50.2401 145.289 52.2201V55.9801C145.289 57.9601 143.669 59.5801 141.689 59.5801H41.3285C39.3485 59.5801 37.7285 57.9601 37.7285 55.9801V52.2201C37.7285 50.2301 39.3485 48.6201 41.3285 48.6201Z" fill="url(#paint8_linear)"/>
<path d="M40.7685 122.75H142.229C143.899 122.75 145.269 124.12 145.269 125.79C145.269 127.46 143.899 128.83 142.229 128.83H40.7685C39.0985 128.85 37.7285 127.48 37.7285 125.81C37.7285 124.12 39.0985 122.75 40.7685 122.75Z" fill="url(#paint9_linear)"/>
<path opacity="0.15" d="M66.2184 113.69C61.0784 113.69 56.8984 109.52 56.8984 104.38C56.8984 99.6803 60.3684 95.8203 64.8984 95.2003C64.5484 93.7503 64.3284 92.2103 64.3284 90.6303C64.3684 80.3503 72.6784 72.0503 82.9584 72.0503C90.0284 72.0503 96.1884 76.0503 99.3484 81.8903C100.888 81.1403 102.648 80.7003 104.488 80.7003C110.908 80.7003 116.128 85.9303 116.128 92.3403C116.128 93.3103 115.998 94.2703 115.778 95.1903C116.128 95.1503 116.478 95.1503 116.828 95.1503C121.928 95.1103 126.098 99.2303 126.098 104.37C126.098 109.51 121.928 113.68 116.778 113.68H66.2184V113.69Z" fill="#1F1D20"/>
<path d="M66.2184 111.04C61.0784 111.04 56.8984 106.87 56.8984 101.73C56.8984 97.0299 60.3684 93.1699 64.8984 92.5499C64.5484 91.0999 64.3284 89.5599 64.3284 87.9799C64.3684 77.6999 72.6784 69.3999 82.9584 69.3999C90.0284 69.3999 96.1884 73.3999 99.3484 79.2399C100.888 78.4899 102.648 78.0499 104.488 78.0499C110.908 78.0499 116.128 83.2799 116.128 89.6899C116.128 90.6599 115.998 91.6199 115.778 92.5399C116.128 92.4999 116.478 92.4999 116.828 92.4999C121.928 92.4599 126.098 96.5799 126.098 101.72C126.098 106.86 121.928 111.03 116.778 111.03H66.2184V111.04Z" fill="#0078D4"/>
<path opacity="0.15" d="M106.698 95.7203L98.0584 90.7503C97.5684 90.4703 96.9484 90.8203 96.9484 91.3903V93.8803L75.8984 93.8503V98.8803C76.1784 98.9003 76.0384 98.9003 75.8984 98.9103V98.9303H96.9484V101.4C96.9484 101.97 97.5584 102.32 98.0484 102.04L106.688 97.1603C107.258 96.8603 107.258 96.0503 106.698 95.7203Z" fill="#1F1D20"/>
<path d="M106.698 94.0704L98.0584 89.1004C97.5684 88.8204 96.9484 89.1704 96.9484 89.7404V92.2304L75.8984 92.2004V97.2304C76.1784 97.2504 76.0384 97.2504 75.8984 97.2604V97.2804H96.9484V99.7504C96.9484 100.32 97.5584 100.67 98.0484 100.39L106.688 95.5104C107.258 95.2004 107.258 94.4004 106.698 94.0704Z" fill="#F2F1F0"/>
<defs>
<linearGradient id="paint0_linear" x1="90.5583" y1="10.1492" x2="90.5583" y2="181.55" gradientUnits="userSpaceOnUse">
<stop stop-color="#00ABDE"/>
<stop offset="1" stop-color="#007ED8"/>
</linearGradient>
<linearGradient id="paint1_linear" x1="36.6779" y1="4.94042" x2="203.355" y2="287.272" gradientUnits="userSpaceOnUse">
<stop stop-color="#007ED8"/>
<stop offset="0.7065" stop-color="#002D4C"/>
</linearGradient>
<linearGradient id="paint2_linear" x1="77.9019" y1="21.7694" x2="126.346" y2="121.718" gradientUnits="userSpaceOnUse">
<stop stop-color="#007ED8"/>
<stop offset="0.7065" stop-color="#002D4C"/>
</linearGradient>
<linearGradient id="paint3_linear" x1="102.142" y1="281.942" x2="81.7446" y2="31.5606" gradientUnits="userSpaceOnUse">
<stop stop-color="#007ED8"/>
<stop offset="0.7065" stop-color="#002D4C"/>
</linearGradient>
<linearGradient id="paint4_linear" x1="91.5241" y1="124.136" x2="91.5241" y2="58.3662" gradientUnits="userSpaceOnUse">
<stop stop-color="#D2EBFF"/>
<stop offset="1" stop-color="#F0FFFD"/>
</linearGradient>
<linearGradient id="paint5_linear" x1="91.5071" y1="48.6396" x2="91.5071" y2="59.581" gradientUnits="userSpaceOnUse">
<stop stop-color="#0099BE"/>
<stop offset="1" stop-color="#006E97"/>
</linearGradient>
<linearGradient id="paint6_linear" x1="91.4981" y1="122.766" x2="91.4981" y2="128.847" gradientUnits="userSpaceOnUse">
<stop stop-color="#0099BE"/>
<stop offset="1" stop-color="#006E97"/>
</linearGradient>
<linearGradient id="paint7_linear" x1="91.5241" y1="124.136" x2="91.5241" y2="58.3662" gradientUnits="userSpaceOnUse">
<stop stop-color="#D2EBFF"/>
<stop offset="1" stop-color="#F0FFFD"/>
</linearGradient>
<linearGradient id="paint8_linear" x1="91.5071" y1="48.6396" x2="91.5071" y2="59.581" gradientUnits="userSpaceOnUse">
<stop stop-color="#007ED8"/>
<stop offset="0.7065" stop-color="#002D4C"/>
</linearGradient>
<linearGradient id="paint9_linear" x1="91.4981" y1="122.766" x2="91.4981" y2="128.847" gradientUnits="userSpaceOnUse">
<stop stop-color="#007ED8"/>
<stop offset="0.7065" stop-color="#002D4C"/>
</linearGradient>
</defs>
</svg>
