<svg width="181" height="191" viewBox="0 0 181 191" fill="none" xmlns="http://www.w3.org/2000/svg">
<path d="M90.124 189.319C93.2058 189.314 96.2266 188.459 98.8541 186.849L160.854 149.189C163.641 147.429 165.931 144.985 167.507 142.09C169.082 139.195 169.89 135.944 169.854 132.649V57.9386C169.887 54.6432 169.078 51.394 167.503 48.4993C165.928 45.6045 163.639 43.1603 160.854 41.3986L98.8541 3.73853C96.22 2.15314 93.2035 1.31543 90.129 1.31543C87.0546 1.31543 84.0382 2.15314 81.4041 3.73853L19.4041 41.4186C16.6177 43.1789 14.328 45.6228 12.7527 48.5178C11.1774 51.4129 10.3688 54.6628 10.4041 57.9585V132.659C10.3856 135.441 10.9602 138.196 12.0896 140.739C13.219 143.283 14.8773 145.556 16.9541 147.409V147.409L81.3641 186.839C84.0011 188.454 87.0317 189.312 90.124 189.319V189.319ZM90.7741 8.3186C92.7741 8.3186 95.2041 9.52849 96.9141 10.5785L157.674 47.7686C161.424 50.0486 163.544 56.6486 163.544 61.3986L162.914 132.698C162.914 137.448 159.714 141.699 155.914 143.999L95.514 180.379C92.084 182.469 89.2941 182.469 85.8541 180.379L24.644 143.909C20.894 141.629 17.874 137.428 17.874 132.698V59.0085C17.9059 56.6428 18.5146 54.3205 19.6473 52.2433C20.7801 50.1661 22.4025 48.3966 24.374 47.0885L84.9541 10.5286C86.7041 9.48856 88.8241 8.26855 90.7741 8.26855V8.3186Z" fill="url(#paint0_linear_1316_1409)"/>
<path fill-rule="evenodd" clip-rule="evenodd" d="M98.0241 11.8495C95.6513 10.3794 92.9154 9.60059 90.1241 9.60059C87.3328 9.60059 84.597 10.3794 82.2242 11.8495L26.0942 46.1796C23.5675 47.7909 21.4944 50.021 20.0716 52.6584C18.6487 55.2959 17.9234 58.2531 17.9642 61.2495V129.349C17.9243 132.346 18.6502 135.303 20.0729 137.94C21.4957 140.577 23.5682 142.807 26.0942 144.42L82.2242 178.75C84.597 180.22 87.3328 180.998 90.1241 180.998C92.9154 180.998 95.6513 180.22 98.0241 178.75L154.154 144.42C156.679 142.806 158.75 140.575 160.173 137.938C161.595 135.302 162.322 132.345 162.284 129.349V61.2495C162.322 58.2536 161.595 55.2974 160.173 52.6605C158.75 50.0236 156.679 47.793 154.154 46.1796L98.0241 11.8495Z" fill="url(#paint1_linear_1316_1409)"/>
<path d="M22.4341 120.499L31.6641 125.789L22.514 131.049L17.9141 128.409V128.939L22.0741 131.329L18.394 133.449L18.5341 133.879L22.5341 131.589L31.7241 136.869L22.6041 142.109L20.9541 141.159L21.1641 141.789L89.6741 181.389L90.1041 181.099L80.774 175.719L90.0441 170.389L99.2441 175.669L99.6541 175.389L90.504 170.119L99.7341 164.809L109.094 170.179L109.324 169.769L100.204 164.549L109.324 159.309L118.564 164.619L118.894 164.259L109.794 159.029L118.994 153.749L128.184 159.029L128.724 158.819L119.434 153.489L128.664 148.189L137.804 153.439L138.344 153.229L129.114 147.929L138.254 142.669L147.404 147.929L147.934 147.719L138.704 142.419L147.934 137.109L157.024 142.339L157.554 142.129L148.374 136.859L157.554 131.579L162.244 134.269V133.779L157.974 131.319L162.514 128.709V128.179L157.514 131.069L148.344 125.799L157.604 120.469L162.784 123.469V122.959L119.484 97.9592L100.224 86.8392L100.034 86.7693L90.644 81.3492L90.2141 81.0693L18.4341 122.289V122.829L22.4341 120.499ZM22.9641 131.309L32.1041 126.039L41.3241 131.329L32.1541 136.599L22.9641 131.309ZM80.7941 131.309L90.024 126.009L99.1641 131.249L89.9341 136.559L80.7941 131.309ZM89.4941 136.819L80.2841 142.109L71.144 136.859L80.3541 131.569L89.4941 136.819ZM90.4941 125.749L99.644 120.489L108.774 125.739L99.624 130.999L90.4941 125.749ZM90.0441 125.489L80.8141 120.189L89.9741 114.929L99.2041 120.229L90.0441 125.489ZM89.6041 125.749L80.374 131.049L71.144 125.749L80.374 120.449L89.6041 125.749ZM79.9241 131.309L70.7141 136.599L61.4841 131.299L70.6941 126.009L79.9241 131.309ZM70.254 136.869L61.1041 142.129L51.8641 136.829L61.024 131.559L70.254 136.869ZM70.7041 137.119L79.8441 142.369L70.7041 147.629L61.5441 142.379L70.7041 137.119ZM80.2841 142.629L89.514 147.929L80.384 153.179L71.144 147.889L80.2841 142.629ZM80.754 142.359L89.9541 137.069L99.1841 142.369L89.9841 147.669L80.754 142.359ZM90.4041 136.819L99.624 131.509L108.854 136.809L99.634 142.119L90.4041 136.819ZM100.074 131.249L109.224 125.989L118.454 131.299L109.304 136.559L100.074 131.249ZM109.664 125.739L118.894 120.429L128.124 125.739L118.894 131.039L109.664 125.739ZM109.224 125.479L100.094 120.229L109.324 114.929L118.444 120.179L109.224 125.479ZM99.644 119.979L90.4141 114.669L99.644 109.369L108.874 114.669L99.644 119.979ZM89.9741 114.419L80.8141 109.149L90.0441 103.849L99.2041 109.109L89.9741 114.419ZM89.524 114.669L80.374 119.939L71.2041 114.669L80.3641 109.409L89.524 114.669ZM79.9241 120.189L70.6941 125.489L61.5341 120.229L70.764 114.929L79.9241 120.189ZM70.254 125.749L61.0341 131.049L51.874 125.779L61.0841 120.489L70.254 125.749ZM60.5841 131.309L51.4141 136.569L42.2441 131.309L51.4341 126.009L60.5841 131.309ZM50.9541 136.839L41.7841 142.109L32.624 136.839L41.7841 131.579L50.9541 136.839ZM51.4041 137.089L60.644 142.389L51.4541 147.669L42.2241 142.369L51.4041 137.089ZM61.0841 142.649L70.2341 147.899L61.0341 153.189L51.894 147.929L61.0841 142.649ZM70.6841 148.149L79.9141 153.449L70.7041 158.749L61.4841 153.439L70.6841 148.149ZM80.3641 153.709L89.644 159.029L80.4241 164.329L71.1541 158.999L80.3641 153.709ZM80.8341 153.439L89.9641 148.189L99.2341 153.519L90.1141 158.759L80.8341 153.439ZM90.4241 147.919L99.634 142.629L108.904 147.959L99.7041 153.249L90.4241 147.919ZM100.074 142.369L109.304 137.069L118.574 142.399L109.344 147.699L100.074 142.369ZM109.744 136.809L118.894 131.549L128.164 136.879L119.024 142.139L109.744 136.809ZM119.344 131.299L128.564 125.989L137.844 131.319L128.614 136.619L119.344 131.299ZM129.014 125.739L138.184 120.459L147.464 125.789L138.284 131.059L129.014 125.739ZM128.564 125.479L119.344 120.179L128.514 114.899L137.744 120.209L128.564 125.479ZM118.894 119.919L109.764 114.669L118.934 109.399L128.064 114.649L118.894 119.919ZM109.324 114.419L100.094 109.109L109.264 103.849L118.494 109.149L109.324 114.419ZM99.644 108.859L90.4841 103.589L99.6541 98.3292L108.814 103.589L99.644 108.859ZM90.0441 103.339L80.774 98.0093L89.9241 92.7393L99.2041 98.0693L90.0441 103.339ZM89.5941 103.589L80.3641 108.899L71.1141 103.579L80.3341 98.2693L89.5941 103.589ZM79.9241 109.149L70.764 114.419L61.524 109.109L70.6741 103.839L79.9241 109.149ZM70.3141 114.669L61.0841 119.969L51.8541 114.669L61.0741 109.359L70.3141 114.669ZM60.644 120.229L51.4241 125.529L42.2041 120.229L51.4141 114.929L60.644 120.229ZM50.9741 125.789L41.8041 131.059L32.5841 125.769L41.754 120.489L50.9741 125.789ZM22.9741 142.359L32.0941 137.119L41.254 142.379L32.1141 147.639L22.9741 142.359ZM32.5541 147.899L41.7041 142.639L50.9241 147.939L41.754 153.209L32.5541 147.899ZM42.2041 153.469L51.374 148.199L60.524 153.449L51.3241 158.739L42.2041 153.469ZM51.774 158.999L60.9641 153.709L70.1941 159.009L60.9741 164.309L51.774 158.999ZM61.4241 164.569L70.644 159.269L79.9141 164.599L70.6741 169.909L61.4241 164.569ZM80.254 175.449L71.1141 170.169L80.3641 164.849L89.524 170.119L80.254 175.449ZM89.9741 169.859L80.8141 164.589L90.0441 159.289L99.2141 164.549L89.9741 169.859ZM99.6841 164.279L90.504 159.019L99.634 153.769L108.794 159.039L99.6841 164.279ZM109.264 158.769L100.104 153.499L109.294 148.209L118.464 153.479L109.264 158.769ZM118.914 153.219L109.744 147.959L118.974 142.649L128.134 147.919L118.914 153.219ZM128.584 147.659L119.414 142.399L128.564 137.139L137.734 142.409L128.584 147.659ZM138.174 142.149L129.014 136.879L138.234 131.579L147.404 136.849L138.174 142.149ZM157.024 131.309L147.854 136.589L138.684 131.319L147.854 126.039L157.024 131.309ZM157.114 120.209L147.854 125.529L138.584 120.199L147.864 114.859L157.114 120.209ZM147.424 114.609L138.134 119.949L128.904 114.649L138.214 109.289L147.424 114.609ZM137.774 109.039L128.464 114.389L119.334 109.149L128.674 103.779L137.774 109.039ZM128.224 103.519L118.884 108.889L109.654 103.589L119.024 98.2092L128.224 103.519ZM118.574 97.9492L109.214 103.329L100.044 98.0693L109.434 92.6793L118.574 97.9492ZM108.994 92.4193L99.6041 97.8093L90.3241 92.4893L99.7241 87.0693L108.994 92.4193ZM90.1841 81.5593L99.2841 86.8093L89.874 92.2292L80.7341 86.9792L90.1841 81.5593ZM80.2941 87.2393L89.4341 92.4893L80.2841 97.7593L71.134 92.4993L80.2941 87.2393ZM70.6841 92.7493L79.8341 98.0093L70.6141 103.319L61.4541 98.0593L70.6841 92.7493ZM61.004 98.3093L70.1741 103.579L61.024 108.849L51.8441 103.579L61.004 98.3093ZM51.4041 103.829L60.5741 109.109L51.3641 114.409L42.1641 109.129L51.4041 103.829ZM41.7241 109.389L50.9141 114.669L41.7041 119.969L32.504 114.689L41.7241 109.389ZM32.0541 114.939L41.254 120.229L32.0841 125.519L22.8541 120.219L32.0541 114.939Z" fill="url(#paint2_linear_1316_1409)"/>
<path fill-rule="evenodd" clip-rule="evenodd" d="M90.5541 11.0693C92.2341 11.0693 94.1241 11.9393 96.1841 13.1893L154.664 48.7292C156.556 49.9422 158.106 51.6193 159.167 53.6007C160.228 55.5822 160.764 57.8022 160.724 60.0493V130.529C160.763 132.776 160.226 134.996 159.166 136.977C158.105 138.958 156.555 140.636 154.664 141.849L96.1941 177.389C94.5866 178.646 92.6047 179.329 90.5641 179.329C88.5235 179.329 86.5416 178.646 84.9341 177.389L26.4341 141.859C24.6515 140.906 23.1278 139.533 21.9942 137.859C20.9942 136.259 20.3741 134.039 20.3741 130.579V60.0992C20.3343 57.8521 20.8704 55.6322 21.9312 53.6508C22.9919 51.6693 24.542 49.9923 26.4341 48.7793L84.8941 13.2393C87.0041 11.9493 88.8641 11.0693 90.5541 11.0693ZM98.2641 180.819L156.734 145.279C159.217 143.711 161.256 141.533 162.656 138.953C164.057 136.372 164.772 133.475 164.734 130.539V60.0593C164.772 57.1234 164.057 54.2267 162.656 51.6461C161.256 49.0655 159.217 46.8872 156.734 45.3193L98.2641 9.7793C96.1541 8.4993 93.4441 7.06934 90.5541 7.06934C87.6641 7.06934 84.9442 8.50929 82.8542 9.76929L24.3841 45.3193C21.9015 46.8872 19.8627 49.0655 18.4621 51.6461C17.0615 54.2267 16.346 57.1234 16.3841 60.0593V130.539C16.2318 133.803 16.9938 137.045 18.5841 139.899C20.0392 142.138 22.0247 143.983 24.3642 145.269L82.8241 180.809C85.0589 182.457 87.7625 183.346 90.5391 183.346C93.3157 183.346 96.0193 182.457 98.2541 180.809L98.2641 180.819Z" fill="url(#paint3_linear_1316_1409)"/>
<path opacity="0.15" d="M44.8262 136.077H135.422C137.959 136.077 140.021 134.015 140.021 131.477V59.2324H40.2267V131.477C40.2267 134.015 42.2886 136.077 44.8262 136.077Z" fill="#1F1D20"/>
<g filter="url(#filter0_d_1316_1409)">
<path d="M42.13 133.981H138.118C139.165 133.981 140.021 133.125 140.021 132.078V57.1367H40.2267V132.078C40.2267 133.125 41.0832 133.981 42.13 133.981Z" fill="#EBEBEB"/>
</g>
<path d="M40.2267 65.4319H140.021V56.4865C140.021 55.6776 139.371 55.0273 138.562 55.0273H41.6859C40.877 55.0273 40.2267 55.6776 40.2267 56.4865V65.4319Z" fill="#092E4C"/>
<path d="M47.9032 62.9736C49.2989 62.9736 50.4409 61.8475 50.4409 60.4359C50.4409 59.0243 49.2831 57.9141 47.9032 57.9141C46.5075 57.9141 45.3655 59.0402 45.3655 60.4518C45.3655 61.8633 46.4758 62.9736 47.9032 62.9736Z" fill="#32B0E7"/>
<path d="M120.79 76.6538H101.548C101.47 76.6538 101.393 76.6692 101.321 76.699C101.249 76.7289 101.183 76.7726 101.128 76.8278C101.073 76.8829 101.029 76.9484 100.999 77.0204C100.97 77.0925 100.954 77.1697 100.954 77.2477C100.954 77.3257 100.97 77.4029 100.999 77.475C101.029 77.5471 101.073 77.6125 101.128 77.6677C101.183 77.7228 101.249 77.7666 101.321 77.7964C101.393 77.8263 101.47 77.8416 101.548 77.8416H120.79C120.948 77.8416 121.099 77.779 121.21 77.6677C121.322 77.5563 121.384 77.4052 121.384 77.2477C121.384 77.0902 121.322 76.9392 121.21 76.8278C121.099 76.7164 120.948 76.6538 120.79 76.6538V76.6538Z" fill="#E9FCFE"/>
<path d="M127.224 82.5928H107.022C106.864 82.5928 106.713 82.6554 106.602 82.7667C106.49 82.8781 106.428 83.0292 106.428 83.1867C106.428 83.3442 106.49 83.4952 106.602 83.6066C106.713 83.718 106.864 83.7806 107.022 83.7806H127.214C127.293 83.7819 127.371 83.7675 127.443 83.7381C127.516 83.7087 127.582 83.665 127.637 83.6096C127.693 83.5542 127.736 83.4882 127.766 83.4155C127.795 83.3429 127.81 83.265 127.808 83.1867C127.808 83.0309 127.747 82.8813 127.638 82.7702C127.529 82.6591 127.38 82.5954 127.224 82.5928V82.5928Z" fill="#ACF3FD"/>
<path d="M104.914 82.5928H101.548C101.47 82.5928 101.393 82.6081 101.321 82.638C101.249 82.6678 101.183 82.7116 101.128 82.7667C101.073 82.8219 101.029 82.8873 100.999 82.9594C100.97 83.0315 100.954 83.1087 100.954 83.1867C100.954 83.2647 100.97 83.3419 100.999 83.414C101.029 83.486 101.073 83.5515 101.128 83.6066C101.183 83.6618 101.249 83.7055 101.321 83.7354C101.393 83.7652 101.47 83.7806 101.548 83.7806H104.914C104.992 83.7819 105.07 83.7675 105.142 83.7381C105.215 83.7087 105.281 83.665 105.336 83.6096C105.392 83.5542 105.435 83.4882 105.465 83.4155C105.494 83.3429 105.509 83.265 105.507 83.1867C105.507 83.0292 105.445 82.8781 105.333 82.7667C105.222 82.6554 105.071 82.5928 104.914 82.5928V82.5928Z" fill="#ACF3FD"/>
<path d="M114.129 85.5625H101.548C101.47 85.5625 101.393 85.5779 101.321 85.6077C101.249 85.6376 101.183 85.6813 101.128 85.7365C101.073 85.7916 101.029 85.8571 100.999 85.9291C100.97 86.0012 100.954 86.0784 100.954 86.1564C100.954 86.2344 100.97 86.3116 100.999 86.3837C101.029 86.4557 101.073 86.5212 101.128 86.5764C101.183 86.6315 101.249 86.6753 101.321 86.7051C101.393 86.7349 101.47 86.7503 101.548 86.7503H114.129C114.207 86.7517 114.285 86.7372 114.358 86.7078C114.43 86.6784 114.496 86.6348 114.552 86.5793C114.607 86.5239 114.651 86.4579 114.68 86.3853C114.71 86.3126 114.724 86.2348 114.723 86.1564C114.723 85.9989 114.66 85.8478 114.549 85.7365C114.437 85.6251 114.286 85.5625 114.129 85.5625V85.5625Z" fill="#84ECFD"/>
<path d="M121.028 91.3818H101.548C101.39 91.3818 101.239 91.4444 101.128 91.5558C101.017 91.6671 100.954 91.8182 100.954 91.9757C100.954 92.1333 101.017 92.2843 101.128 92.3957C101.239 92.5071 101.39 92.5696 101.548 92.5696H121.028C121.185 92.5696 121.336 92.5071 121.448 92.3957C121.559 92.2843 121.622 92.1333 121.622 91.9757C121.622 91.8182 121.559 91.6671 121.448 91.5558C121.336 91.4444 121.185 91.3818 121.028 91.3818V91.3818Z" fill="#45CAF2"/>
<path d="M124.354 94.4595H101.588C101.51 94.4595 101.432 94.4748 101.36 94.5047C101.288 94.5345 101.223 94.5783 101.168 94.6334C101.112 94.6886 101.069 94.754 101.039 94.8261C101.009 94.8982 100.994 94.9754 100.994 95.0534C100.994 95.1314 101.009 95.2086 101.039 95.2807C101.069 95.3527 101.112 95.4182 101.168 95.4733C101.223 95.5285 101.288 95.5722 101.36 95.6021C101.432 95.6319 101.51 95.6473 101.588 95.6473H124.354C124.511 95.6473 124.662 95.5847 124.774 95.4733C124.885 95.3619 124.948 95.2109 124.948 95.0534C124.948 94.8959 124.885 94.7448 124.774 94.6334C124.662 94.5221 124.511 94.4595 124.354 94.4595V94.4595Z" fill="#32B0E7"/>
<path d="M131.006 100.638H101.548C101.39 100.638 101.239 100.701 101.128 100.812C101.017 100.923 100.954 101.075 100.954 101.232C100.953 101.31 100.967 101.388 100.997 101.461C101.026 101.534 101.07 101.6 101.125 101.655C101.181 101.71 101.246 101.754 101.319 101.783C101.392 101.813 101.47 101.827 101.548 101.826H131.006C131.084 101.827 131.162 101.813 131.234 101.783C131.307 101.754 131.373 101.71 131.428 101.655C131.484 101.6 131.528 101.534 131.557 101.461C131.586 101.388 131.601 101.31 131.6 101.232C131.6 101.075 131.537 100.923 131.426 100.812C131.314 100.701 131.163 100.638 131.006 100.638V100.638Z" fill="#0078D4"/>
<path d="M116.029 103.488H101.548C101.39 103.488 101.239 103.55 101.128 103.662C101.017 103.773 100.954 103.924 100.954 104.082C100.954 104.239 101.017 104.39 101.128 104.502C101.239 104.613 101.39 104.676 101.548 104.676H116.029C116.108 104.677 116.186 104.663 116.258 104.633C116.331 104.604 116.397 104.56 116.452 104.505C116.508 104.449 116.551 104.383 116.581 104.311C116.61 104.238 116.624 104.16 116.623 104.082C116.621 103.925 116.557 103.775 116.446 103.665C116.336 103.554 116.186 103.49 116.029 103.488V103.488Z" fill="#156AB3"/>
<path d="M108.012 109.191H101.597C101.44 109.191 101.289 109.254 101.177 109.365C101.066 109.476 101.003 109.627 101.003 109.785C101.003 109.942 101.066 110.093 101.177 110.205C101.289 110.316 101.44 110.379 101.597 110.379H108.012C108.09 110.38 108.168 110.366 108.24 110.336C108.313 110.307 108.379 110.263 108.434 110.208C108.49 110.152 108.534 110.086 108.563 110.014C108.592 109.941 108.607 109.863 108.606 109.785C108.606 109.627 108.543 109.476 108.432 109.365C108.32 109.254 108.169 109.191 108.012 109.191V109.191Z" fill="#1D4A79"/>
<path d="M128.135 109.191H114.841C114.684 109.191 114.533 109.254 114.422 109.365C114.31 109.476 114.248 109.627 114.248 109.785C114.248 109.942 114.31 110.093 114.422 110.205C114.533 110.316 114.684 110.379 114.841 110.379H128.135C128.213 110.38 128.291 110.366 128.364 110.336C128.437 110.307 128.503 110.263 128.558 110.208C128.613 110.152 128.657 110.086 128.687 110.014C128.716 109.941 128.73 109.863 128.729 109.785C128.729 109.627 128.666 109.476 128.555 109.365C128.443 109.254 128.293 109.191 128.135 109.191V109.191Z" fill="#1D4A79"/>
<path d="M118.177 112.276H101.548C101.47 112.276 101.393 112.292 101.321 112.322C101.249 112.351 101.183 112.395 101.128 112.45C101.073 112.505 101.029 112.571 100.999 112.643C100.97 112.715 100.954 112.792 100.954 112.87C100.954 112.948 100.97 113.026 100.999 113.098C101.029 113.17 101.073 113.235 101.128 113.29C101.183 113.345 101.249 113.389 101.321 113.419C101.393 113.449 101.47 113.464 101.548 113.464H118.177C118.256 113.466 118.333 113.451 118.406 113.422C118.479 113.392 118.545 113.349 118.6 113.293C118.656 113.238 118.699 113.172 118.729 113.099C118.758 113.026 118.773 112.949 118.771 112.87C118.769 112.714 118.705 112.564 118.594 112.453C118.484 112.342 118.334 112.279 118.177 112.276V112.276Z" fill="#243A5E"/>
<path d="M132.906 115.366H101.548C101.39 115.366 101.239 115.428 101.128 115.54C101.017 115.651 100.954 115.802 100.954 115.96C100.954 116.117 101.017 116.268 101.128 116.38C101.239 116.491 101.39 116.554 101.548 116.554H132.906C132.984 116.555 133.062 116.54 133.135 116.511C133.207 116.482 133.274 116.438 133.329 116.383C133.384 116.327 133.428 116.261 133.457 116.188C133.487 116.116 133.501 116.038 133.5 115.96C133.5 115.802 133.437 115.651 133.326 115.54C133.215 115.428 133.063 115.366 132.906 115.366V115.366Z" fill="#1A2C45"/>
<path d="M111.971 118.463H101.518C101.361 118.463 101.21 118.525 101.098 118.637C100.987 118.748 100.924 118.899 100.924 119.057C100.924 119.214 100.987 119.365 101.098 119.477C101.21 119.588 101.361 119.651 101.518 119.651H111.971C112.128 119.651 112.28 119.588 112.391 119.477C112.502 119.365 112.565 119.214 112.565 119.057C112.565 118.899 112.502 118.748 112.391 118.637C112.28 118.525 112.128 118.463 111.971 118.463V118.463Z" fill="#141E2F"/>
<path d="M104.914 91.3774H101.548C101.47 91.3774 101.393 91.3928 101.321 91.4227C101.249 91.4525 101.183 91.4963 101.128 91.5514C101.073 91.6066 101.029 91.672 100.999 91.7441C100.97 91.8161 100.954 91.8934 100.954 91.9714C100.954 92.0493 100.97 92.1266 100.999 92.1986C101.029 92.2707 101.073 92.3361 101.128 92.3913C101.183 92.4464 101.249 92.4902 101.321 92.52C101.393 92.5499 101.47 92.5653 101.548 92.5653H104.914C104.992 92.5666 105.07 92.5521 105.142 92.5228C105.215 92.4934 105.281 92.4497 105.336 92.3943C105.392 92.3389 105.435 92.2729 105.465 92.2002C105.494 92.1275 105.509 92.0497 105.507 91.9714C105.507 91.8138 105.445 91.6628 105.333 91.5514C105.222 91.44 105.071 91.3774 104.914 91.3774V91.3774Z" fill="#ACF3FD"/>
<path d="M113.451 85.5625H110.085C110.007 85.5625 109.93 85.5779 109.858 85.6077C109.786 85.6376 109.72 85.6813 109.665 85.7365C109.61 85.7916 109.567 85.8571 109.537 85.9291C109.507 86.0012 109.492 86.0784 109.492 86.1564C109.492 86.2344 109.507 86.3116 109.537 86.3837C109.567 86.4557 109.61 86.5212 109.665 86.5764C109.72 86.6315 109.786 86.6753 109.858 86.7051C109.93 86.7349 110.007 86.7503 110.085 86.7503H113.451C113.529 86.7517 113.607 86.7372 113.68 86.7078C113.752 86.6784 113.818 86.6348 113.874 86.5793C113.929 86.5239 113.973 86.4579 114.002 86.3853C114.031 86.3126 114.046 86.2348 114.045 86.1564C114.045 85.9989 113.982 85.8478 113.871 85.7365C113.759 85.6251 113.608 85.5625 113.451 85.5625V85.5625Z" fill="#32B0E7"/>
<path d="M113.946 103.488H110.58C110.502 103.488 110.425 103.503 110.353 103.533C110.281 103.563 110.215 103.607 110.16 103.662C110.105 103.717 110.061 103.782 110.032 103.854C110.002 103.926 109.986 104.004 109.986 104.082C109.986 104.16 110.002 104.237 110.032 104.309C110.061 104.381 110.105 104.446 110.16 104.502C110.215 104.557 110.281 104.601 110.353 104.63C110.425 104.66 110.502 104.676 110.58 104.676H113.946C114.024 104.677 114.102 104.662 114.175 104.633C114.247 104.604 114.313 104.56 114.369 104.505C114.424 104.449 114.468 104.383 114.497 104.311C114.526 104.238 114.541 104.16 114.54 104.082C114.54 103.924 114.477 103.773 114.366 103.662C114.254 103.55 114.103 103.488 113.946 103.488V103.488Z" fill="#32B0E7"/>
<path d="M104.914 103.488H101.548C101.47 103.488 101.393 103.503 101.321 103.533C101.249 103.563 101.183 103.607 101.128 103.662C101.073 103.717 101.029 103.782 100.999 103.854C100.97 103.926 100.954 104.004 100.954 104.082C100.954 104.16 100.97 104.237 100.999 104.309C101.029 104.381 101.073 104.446 101.128 104.502C101.183 104.557 101.249 104.601 101.321 104.63C101.393 104.66 101.47 104.676 101.548 104.676H104.914C104.992 104.677 105.07 104.662 105.142 104.633C105.215 104.604 105.281 104.56 105.336 104.505C105.392 104.449 105.435 104.383 105.465 104.311C105.494 104.238 105.509 104.16 105.507 104.082C105.507 103.924 105.445 103.773 105.333 103.662C105.222 103.55 105.071 103.488 104.914 103.488V103.488Z" fill="#ACF3FD"/>
<path d="M113.946 115.366H110.58C110.502 115.366 110.425 115.381 110.353 115.411C110.281 115.441 110.215 115.485 110.16 115.54C110.105 115.595 110.061 115.66 110.032 115.732C110.002 115.804 109.986 115.882 109.986 115.96C109.986 116.038 110.002 116.115 110.032 116.187C110.061 116.259 110.105 116.324 110.16 116.38C110.215 116.435 110.281 116.478 110.353 116.508C110.425 116.538 110.502 116.554 110.58 116.554H113.946C114.024 116.555 114.102 116.54 114.175 116.511C114.247 116.482 114.313 116.438 114.369 116.383C114.424 116.327 114.468 116.261 114.497 116.188C114.526 116.116 114.541 116.038 114.54 115.96C114.54 115.802 114.477 115.651 114.366 115.54C114.254 115.428 114.103 115.366 113.946 115.366V115.366Z" fill="#32B0E7"/>
<path d="M104.914 115.366H101.548C101.47 115.366 101.393 115.381 101.321 115.411C101.249 115.441 101.183 115.485 101.128 115.54C101.073 115.595 101.029 115.66 100.999 115.732C100.97 115.804 100.954 115.882 100.954 115.96C100.954 116.038 100.97 116.115 100.999 116.187C101.029 116.259 101.073 116.324 101.128 116.38C101.183 116.435 101.249 116.478 101.321 116.508C101.393 116.538 101.47 116.554 101.548 116.554H104.914C104.992 116.555 105.07 116.54 105.142 116.511C105.215 116.482 105.281 116.438 105.336 116.383C105.392 116.327 105.435 116.261 105.465 116.188C105.494 116.116 105.509 116.038 105.507 115.96C105.507 115.802 105.445 115.651 105.333 115.54C105.222 115.428 105.071 115.366 104.914 115.366V115.366Z" fill="#ACF3FD"/>
<path opacity="0.15" d="M94.5868 125.638C95.3659 125.638 95.994 125.009 95.994 124.23V77.8047H46.9532V124.236C46.9532 125.015 47.5814 125.644 48.3604 125.644H94.5868V125.638Z" fill="#1F1D20"/>
<g filter="url(#filter1_d_1316_1409)">
<path d="M95.9879 78.221V77.46C95.9879 76.5178 95.2269 75.7568 94.2848 75.7568H48.6564C47.7142 75.7568 46.9532 76.5178 46.9532 77.46V78.3055V79.0786V122.744C46.9532 123.686 47.7142 124.447 48.6564 124.447H94.2969C95.239 124.447 96 123.686 96 122.744V78.3055C96 78.2753 95.9879 78.2511 95.9879 78.221Z" fill="white"/>
</g>
<path d="M77.404 92.0188L67.8273 109.611C67.3699 110.456 66.3058 110.764 65.4605 110.307C64.6152 109.849 64.3069 108.785 64.7644 107.94L74.3411 90.3481C74.7985 89.5028 75.8626 89.1945 76.7079 89.6519C77.5532 90.1193 77.8615 91.1735 77.404 92.0188Z" fill="url(#paint4_linear_1316_1409)"/>
<path d="M60.2095 90.2682L51.8859 98.5123C51.2295 99.1587 51.2295 100.213 51.866 100.869L60.0703 109.262C60.7465 109.959 61.8504 109.998 62.5763 109.362C63.3819 108.666 63.4216 107.433 62.6658 106.687L55.6947 99.7753L62.7553 92.8439C63.5211 92.098 63.4714 90.855 62.6559 90.1688C61.9399 89.5622 60.8758 89.602 60.2095 90.2682Z" fill="url(#paint5_linear_1316_1409)"/>
<path d="M81.6816 109.293L90.0052 101.049C90.6615 100.402 90.6615 99.3481 90.0251 98.6918L81.8208 90.2886C81.1445 89.5925 80.0407 89.5527 79.3147 90.1892C78.5092 90.8853 78.4694 92.1184 79.2252 92.8643L86.1964 99.7758L79.1357 106.707C78.37 107.453 78.4197 108.696 79.2352 109.382C79.9512 109.989 81.0153 109.949 81.6816 109.293Z" fill="url(#paint6_linear_1316_1409)"/>
<defs>
<filter id="filter0_d_1316_1409" x="36.2267" y="55.1367" width="107.795" height="84.8442" filterUnits="userSpaceOnUse" color-interpolation-filters="sRGB">
<feFlood flood-opacity="0" result="BackgroundImageFix"/>
<feColorMatrix in="SourceAlpha" type="matrix" values="0 0 0 0 0 0 0 0 0 0 0 0 0 0 0 0 0 0 127 0" result="hardAlpha"/>
<feOffset dy="2"/>
<feGaussianBlur stdDeviation="2"/>
<feComposite in2="hardAlpha" operator="out"/>
<feColorMatrix type="matrix" values="0 0 0 0 0 0 0 0 0 0 0 0 0 0 0 0 0 0 0.25 0"/>
<feBlend mode="normal" in2="BackgroundImageFix" result="effect1_dropShadow_1316_1409"/>
<feBlend mode="normal" in="SourceGraphic" in2="effect1_dropShadow_1316_1409" result="shape"/>
</filter>
<filter id="filter1_d_1316_1409" x="42.9532" y="75.7568" width="57.0468" height="56.6904" filterUnits="userSpaceOnUse" color-interpolation-filters="sRGB">
<feFlood flood-opacity="0" result="BackgroundImageFix"/>
<feColorMatrix in="SourceAlpha" type="matrix" values="0 0 0 0 0 0 0 0 0 0 0 0 0 0 0 0 0 0 127 0" result="hardAlpha"/>
<feOffset dy="4"/>
<feGaussianBlur stdDeviation="2"/>
<feComposite in2="hardAlpha" operator="out"/>
<feColorMatrix type="matrix" values="0 0 0 0 0 0 0 0 0 0 0 0 0 0 0 0 0 0 0.25 0"/>
<feBlend mode="normal" in2="BackgroundImageFix" result="effect1_dropShadow_1316_1409"/>
<feBlend mode="normal" in="SourceGraphic" in2="effect1_dropShadow_1316_1409" result="shape"/>
</filter>
<linearGradient id="paint0_linear_1316_1409" x1="88.7841" y1="187.889" x2="92.6941" y2="-83.8315" gradientUnits="userSpaceOnUse">
<stop offset="0.2" stop-color="white"/>
<stop offset="0.63" stop-color="#F4F3F5"/>
<stop offset="1" stop-color="#E8E6DF"/>
</linearGradient>
<linearGradient id="paint1_linear_1316_1409" x1="90.1239" y1="9.60059" x2="90.1239" y2="180.998" gradientUnits="userSpaceOnUse">
<stop stop-color="#00ABDE"/>
<stop offset="1" stop-color="#007ED8"/>
</linearGradient>
<linearGradient id="paint2_linear_1316_1409" x1="-1818.98" y1="-4731.98" x2="-99.0381" y2="4400.9" gradientUnits="userSpaceOnUse">
<stop offset="0.0435" stop-color="white"/>
<stop offset="0.4857" stop-color="#4DC1EA"/>
<stop offset="0.8452" stop-color="#0078D4"/>
</linearGradient>
<linearGradient id="paint3_linear_1316_1409" x1="36.653" y1="4.39034" x2="203.307" y2="286.786" gradientUnits="userSpaceOnUse">
<stop stop-color="#007ED8"/>
<stop offset="0.7065" stop-color="#002D4C"/>
</linearGradient>
<linearGradient id="paint4_linear_1316_1409" x1="77.9497" y1="112.112" x2="71.0842" y2="92.0289" gradientUnits="userSpaceOnUse">
<stop stop-color="#003067"/>
<stop offset="0.2" stop-color="#003F7C"/>
<stop offset="0.47" stop-color="#004F90"/>
<stop offset="0.74" stop-color="#00589D"/>
<stop offset="1" stop-color="#005BA1"/>
</linearGradient>
<linearGradient id="paint5_linear_1316_1409" x1="57.0111" y1="114.711" x2="56.4335" y2="88.285" gradientUnits="userSpaceOnUse">
<stop stop-color="#003067"/>
<stop offset="0.2" stop-color="#003F7C"/>
<stop offset="0.47" stop-color="#004F90"/>
<stop offset="0.74" stop-color="#00589D"/>
<stop offset="1" stop-color="#005BA1"/>
</linearGradient>
<linearGradient id="paint6_linear_1316_1409" x1="89.2133" y1="112.834" x2="84.5456" y2="92.203" gradientUnits="userSpaceOnUse">
<stop stop-color="#003067"/>
<stop offset="0.2" stop-color="#003F7C"/>
<stop offset="0.47" stop-color="#004F90"/>
<stop offset="0.74" stop-color="#00589D"/>
<stop offset="1" stop-color="#005BA1"/>
</linearGradient>
</defs>
</svg>
