<?xml version="1.0" encoding="UTF-8"?>
<svg width="102px" height="102px" viewBox="0 0 102 102" version="1.1" xmlns="http://www.w3.org/2000/svg" xmlns:xlink="http://www.w3.org/1999/xlink">
    <title>NA/build-your-first-blazor-web-app</title>
    <defs>
        <rect id="path-1" x="0" y="0" width="94.3396226" height="94.3396226" rx="47.1698113"></rect>
        <filter x="-2.9%" y="-2.9%" width="106.4%" height="106.4%" filterUnits="objectBoundingBox" id="filter-3">
            <feMorphology radius="2.5" operator="dilate" in="SourceAlpha" result="shadowSpreadOuter1"></feMorphology>
            <feOffset dx="0.5" dy="0.5" in="shadowSpreadOuter1" result="shadowOffsetOuter1"></feOffset>
            <feMorphology radius="1" operator="erode" in="SourceAlpha" result="shadowInner"></feMorphology>
            <feOffset dx="0.5" dy="0.5" in="shadowInner" result="shadowInner"></feOffset>
            <feComposite in="shadowOffsetOuter1" in2="shadowInner" operator="out" result="shadowOffsetOuter1"></feComposite>
            <feColorMatrix values="0 0 0 0 0.821822822   0 0 0 0 0.831640661   0 0 0 0 0.835737288  0 0 0 1 0" type="matrix" in="shadowOffsetOuter1"></feColorMatrix>
        </filter>
        <linearGradient x1="77.8299825%" y1="11.1997378%" x2="-99.6885927%" y2="253.807911%" id="linearGradient-4">
            <stop stop-color="#FFFFFF" offset="0%"></stop>
            <stop stop-color="#000000" stop-opacity="0.5" offset="100%"></stop>
        </linearGradient>
        <rect id="path-5" x="0" y="0" width="94.3396226" height="94.3396226"></rect>
        <path d="M48.1132075,0.739331515 C74.2770768,0.739331515 95.4870836,21.9493383 95.4870836,48.1132075 C95.4870836,74.2770768 74.2770768,95.4870836 48.1132075,95.4870836 C21.9493383,95.4870836 0.739331515,74.2770768 0.739331515,48.1132075 C0.739331515,21.9493383 21.9493383,0.739331515 48.1132075,0.739331515 Z M48.1132075,4.71698113 C24.1461335,4.71698113 4.71698113,24.1461335 4.71698113,48.1132075 C4.71698113,72.0802816 24.1461335,91.509434 48.1132075,91.509434 C72.0802816,91.509434 91.509434,72.0802816 91.509434,48.1132075 C91.509434,24.1461335 72.0802816,4.71698113 48.1132075,4.71698113 Z" id="path-6"></path>
        <linearGradient x1="50%" y1="100%" x2="50%" y2="0%" id="linearGradient-8">
            <stop stop-color="#D2EBFF" offset="0%"></stop>
            <stop stop-color="#F0FFFD" offset="100%"></stop>
        </linearGradient>
        <linearGradient x1="50%" y1="100%" x2="50%" y2="0%" id="linearGradient-9">
            <stop stop-color="#CCCCCC" offset="15%"></stop>
            <stop stop-color="#707070" offset="100%"></stop>
        </linearGradient>
    </defs>
    <g id="Badges" stroke="none" stroke-width="1" fill="none" fill-rule="evenodd">
        <g id="N/A-18" transform="translate(-159.000000, -509.000000)">
            <g id="NA/build-your-first-blazor-web-app" transform="translate(160.000000, 510.000000)">
                <g id="Badge-Plates/Circle">
                    <g id="BG" transform="translate(2.830189, 2.830189)">
                        <mask id="mask-2" fill="white">
                            <use xlink:href="#path-1"></use>
                        </mask>
                        <g>
                            <use fill="black" fill-opacity="1" filter="url(#filter-3)" xlink:href="#path-1"></use>
                            <rect stroke="#F2F1F0" stroke-width="2.5" x="-1.25" y="-1.25" width="96.8396226" height="96.8396226" rx="48.4198113"></rect>
                        </g>
                        <g id="Colors/Microsoft-365/BG-Solid-Badge" mask="url(#mask-2)">
                            <g id="Rectangle">
                                <use fill="#0078D4" xlink:href="#path-5"></use>
                                <use fill-opacity="0.4" fill="url(#linearGradient-4)" xlink:href="#path-5"></use>
                            </g>
                        </g>
                    </g>
                    <g id="Border" transform="translate(1.886792, 1.886792)">
                        <mask id="mask-7" fill="white">
                            <use xlink:href="#path-6"></use>
                        </mask>
                        <use id="Boarder" fill="#0078D4" fill-rule="nonzero" xlink:href="#path-6"></use>
                        <g id="Colors/Microsoft-365/Border" mask="url(#mask-7)" fill="#0076D7">
                            <g transform="translate(-1.886792, -1.886792)" id="Microsoft-365/Border">
                                <rect x="0" y="0" width="100" height="100"></rect>
                            </g>
                        </g>
                    </g>
                </g>
                <g id="Computer" transform="translate(20.000000, 21.016949)" fill-rule="nonzero">
                    <path d="M59.4,-4.35989023e-11 C59.7313708,-4.3595248e-11 60,0.26862915 60,0.6 L60.0006243,28.0321695 C58.3666641,27.1405465 56.4925088,26.6338143 54.5,26.6338143 C48.1487254,26.6338143 43,31.7825397 43,38.1338143 C43,39.3767837 43.1971963,40.5736953 43.5620105,41.6949709 L0.6,41.6949153 C0.26862915,41.6949153 1.48387116e-15,41.4262861 0,41.0949153 L0,0.6 C-4.05812251e-17,0.26862915 0.26862915,-4.35975091e-11 0.6,-4.35989023e-11 L59.4,-4.35989023e-11 Z" id="Combined-Shape" fill="url(#linearGradient-8)"></path>
                    <path d="M42.7457119,54.4518066 C36.7118386,53.4678039 36.4745515,48.9695062 36.4745515,41.6949153 L24.5084995,41.6949153 C24.5084995,48.9695062 24.3051105,53.4678039 18.2712373,54.4518066 C16.5460413,54.6497145 15.2437711,56.166671 15.2542373,57.9661017 L45.7627119,57.9661017 C45.773178,56.166671 44.4709079,54.6497145 42.7457119,54.4518066 Z" id="Path" fill="url(#linearGradient-9)"></path>
                </g>
                <path d="M69.7227855,34.5774729 C67.9369571,45.7709137 58.3202955,54.032561 46.9855632,54.1109575 C45.8737863,54.1536691 44.7605129,54.0861093 43.6620596,53.9092684 C38.9284277,53.1054843 35.399015,49.1049403 35.1915336,44.3080359 C35.2378266,38.9060593 39.6099251,34.5405357 45.0119652,34.5023723 C50.4140054,34.464209 54.8473458,38.7675257 54.9699562,44.168309 C55.0115415,45.8076047 54.3012632,47.2456271 52.8416164,47.2872125 C51.2821647,47.2872125 50.5510937,46.1743878 50.5510937,44.674819 L50.5510937,40.5079639 C50.5525064,39.1051058 49.4213617,37.964117 48.018544,37.953374 L44.5253721,37.953374 C41.7260913,37.9341281 39.2754209,39.828629 38.5889975,42.542513 C37.9025741,45.256397 39.1578107,48.0882339 41.6296163,49.4022052 C44.1014219,50.7161766 47.1509339,50.1726734 49.0165932,48.0856518 L49.1388542,47.9035079 L49.2611152,48.1056128 C50.1144361,49.2648815 51.4910987,49.9204351 52.9289457,49.8521988 C55.5531109,49.6615803 57.5462445,47.4126612 57.4201667,44.7846044 C57.4324645,43.7002161 57.3109493,42.6184516 57.0583739,41.5638167 C55.7165218,35.3934937 49.9332234,31.2315983 43.6562163,31.9190821 C37.3792092,32.6065659 32.6338635,37.9216019 32.6593998,44.2360932 C32.7404404,50.9549253 38.1205062,56.4066396 44.8376783,56.5765547 C44.8376783,56.5765547 45.7525567,56.6597255 46.7838741,56.6360218 C51.797123,56.6043005 56.6971879,55.1424322 60.9083484,52.4221752 C60.9682314,52.3805899 61.0281143,52.4637606 60.9881923,52.5244753 C56.8383685,56.9943269 50.9308289,59.4100658 44.8380942,59.1286495 C40.8615037,59.2008311 37.0281688,57.6446461 34.2271623,54.8210236 C31.4261557,51.9974011 29.9008474,48.1516758 30.005005,44.1757944 C30.0068937,39.4196173 32.2522147,34.9430009 36.0631632,32.0973208 C38.58906,30.2373993 41.6414334,29.2297972 44.7782112,29.2204442 L49.466547,29.2204442 C53.1694323,29.2176782 56.7006469,27.6586621 59.1975259,24.9242586 C59.2236161,24.8953027 59.2583067,24.8754796 59.2964991,24.8677025 C59.3746811,24.8507987 59.4549106,24.8858049 59.4956931,24.9546159 C59.5157162,24.9883137 59.5247292,25.0274181 59.521476,25.0664806 C59.3228153,27.1736035 58.6213048,29.2022649 57.4758911,30.9820009 C57.4586935,31.0129081 57.4510249,31.0482127 57.4538509,31.0834692 C57.4595944,31.155136 57.5067759,31.2167974 57.5744485,31.2410778 C57.6075796,31.2528155 57.6434036,31.2546934 57.6775802,31.2464839 C62.0663469,30.255214 65.7239235,27.2393338 67.5333153,23.119869 C67.5559583,23.0835467 67.5872478,23.0534002 67.6243873,23.0321238 C67.7004158,22.9892921 67.7932966,22.9892921 67.8693252,23.0321238 C67.9065493,23.0532871 67.937864,23.0834578 67.9603971,23.119869 C69.7977983,26.6393971 70.4175406,30.668453 69.7227855,34.5774729 L69.7227855,34.5774729 Z M44.8256186,40.4559822 C43.350622,40.455814 42.0207774,41.3442232 41.4562429,42.7069102 C40.8917085,44.0695972 41.2036715,45.6381751 42.2466516,46.6811552 C43.2896317,47.7241353 44.8582097,48.0360984 46.2208966,47.4715639 C47.5835836,46.9070295 48.4719929,45.5771849 48.4718247,44.1021883 L48.4718247,40.6980091 C48.465149,40.5630691 48.3572524,40.4551725 48.2223124,40.4484968 L44.8256186,40.4559822 Z" id="Shape" fill="#8867C8" fill-rule="nonzero"></path>
                <circle id="Oval" fill="#8867C8" cx="74.5" cy="59.1507635" r="10.5"></circle>
                <g id="Group" transform="translate(65.500000, 55.775763)" fill="#FFFFFF" fill-rule="nonzero">
                    <path d="M8.598,6.16725 C8.13975,6.38925 7.5405,6.50025 6.801,6.50025 C5.8365,6.50025 5.07825,6.21675 4.52625,5.64975 C3.975,5.08275 3.69825,4.3275 3.69825,3.384 C3.69825,2.379 4.00875,1.563 4.629,0.93825 C5.25,0.31275 6.05625,0 7.04625,0 C7.6605,0 8.17725,0.07725 8.59875,0.2325 L8.59875,1.59525 C8.17725,1.344 7.69875,1.21875 7.16025,1.21875 C6.57,1.21875 6.09375,1.404 5.7315,1.77525 C5.36925,2.1465 5.1885,2.649 5.1885,3.28275 C5.1885,3.89025 5.35875,4.37475 5.70075,4.7355 C6.04275,5.097 6.50325,5.277 7.0815,5.277 C7.63425,5.277 8.139,5.14275 8.598,4.87425 L8.598,6.16725 Z M14.12925,1.70475 L13.95825,2.49375 L13.14825,2.49375 L12.90675,3.58125 L13.81425,3.58125 L13.617,4.3695 L12.74475,4.3695 L12.40275,5.88675 L11.526,5.88675 L11.84625,4.3695 L10.842,4.3695 L10.518,5.88675 L9.64125,5.88675 L9.9525,4.3695 L9.13725,4.3695 L9.29925,3.58125 L10.1235,3.58125 L10.356,2.49375 L9.471,2.49375 L9.6195,1.70475 L10.518,1.70475 L10.842,0.14475 L11.7405,0.14475 L11.4165,1.70475 L12.42,1.70475 L12.753,0.14475 L13.64325,0.14475 L13.3185,1.70475 L14.12925,1.70475 Z M12.26175,2.49375 L11.2455,2.49375 L11.00475,3.58125 L12.01725,3.58125 L12.2625,2.49375 L12.26175,2.49375 Z" id="path-5"></path>
                    <path d="M17.70225,3.69075 C17.868649,3.52389582 17.868649,3.25385418 17.70225,3.087 L17.7015,3.08625 L16.5615,1.94625 C16.394779,1.77952904 16.124471,1.77952904 15.95775,1.94625 C15.791029,2.11297096 15.791029,2.38327904 15.95775,2.55 L16.79625,3.38925 L15.957,4.22775 C15.8420859,4.33424322 15.7946308,4.49506474 15.8333224,4.64688379 C15.8720141,4.79870284 15.9906531,4.91719469 16.1425201,4.95569781 C16.294387,4.99420092 16.4551495,4.94654626 16.5615,4.8315 L16.56225,4.8315 L17.7,3.69225 L17.70225,3.69" id="path-7"></path>
                    <path d="M1.86975,1.94625 C1.70289582,1.77985098 1.43285418,1.77985098 1.266,1.94625 L1.26525,1.947 L0.1275,3.08475 L0.12525,3.087 C-0.0411490213,3.25385418 -0.0411490213,3.52389582 0.12525,3.69075 L0.126,3.6915 L1.26525,4.83 L1.26525,4.8315 C1.37309955,4.93948353 1.53036517,4.98172737 1.67780642,4.94231868 C1.82524767,4.90291 1.94046472,4.78783589 1.98005642,4.64044368 C2.01964812,4.49305147 1.97759955,4.33573352 1.86975,4.22775 L1.032,3.38925 L1.8705,2.55 C2.03689902,2.38314582 2.03689902,2.11310418 1.8705,1.94625" id="path-9"></path>
                </g>
            </g>
        </g>
    </g>
</svg>