<svg width="181" height="191" viewBox="0 0 181 191" fill="none" xmlns="http://www.w3.org/2000/svg">
<path d="M90.2686 189.842C93.3286 189.842 96.3386 188.992 98.9986 187.372L160.969 149.712C166.509 146.342 169.939 140.012 169.939 133.172V58.4616C169.939 51.6416 166.509 45.3016 160.969 41.9216L98.9986 4.26162C93.6686 1.02162 86.8486 1.04162 81.5486 4.26162L19.5786 41.9416C14.0386 45.3116 10.5886 51.6416 10.5886 58.4816V133.182C10.5886 138.942 13.0386 144.362 17.1386 147.932V147.962L81.5486 187.392C84.1886 188.992 87.2086 189.842 90.2686 189.842ZM90.9186 8.79162C92.8686 8.79162 95.3486 10.0016 97.0586 11.0516L157.819 48.2416C161.569 50.5216 163.689 57.1216 163.689 61.8716L163.059 133.172C163.059 137.922 159.859 142.192 156.109 144.472L95.7086 180.852C92.2786 182.942 89.4886 182.942 86.0486 180.852L24.8386 144.382C21.0886 142.102 18.0686 137.902 18.0686 133.172V59.5316C18.0686 54.7916 20.7986 49.9016 24.5686 47.6116L85.1486 11.0516C86.8486 10.0116 88.9686 8.79162 90.9186 8.79162Z" fill="#F2F1F0"/>
<path fill-rule="evenodd" clip-rule="evenodd" d="M98.1686 12.3716C95.7186 10.8716 92.9986 10.1216 90.2686 10.1216C87.5386 10.1216 84.8186 10.8816 82.3686 12.3716L26.2386 46.7016C21.2186 49.7716 18.1086 55.5216 18.1086 61.7716V129.872C18.1086 136.102 21.2086 141.872 26.2386 144.942L82.3686 179.272C84.8186 180.772 87.5386 181.522 90.2686 181.522C92.9986 181.522 95.7186 180.782 98.1686 179.272L154.299 144.942C159.319 141.872 162.429 136.102 162.429 129.872V61.7716C162.429 55.5416 159.329 49.7916 154.299 46.7016L98.1686 12.3716Z" fill="url(#paint0_linear)"/>
<path fill-rule="evenodd" clip-rule="evenodd" d="M90.2686 11.5916C91.9486 11.5916 93.8386 12.4616 95.8986 13.7116L154.369 49.2516C158.019 51.4716 160.429 55.7416 160.429 60.5716V131.052C160.429 135.872 158.019 140.152 154.369 142.372L95.9086 177.912C93.9486 179.102 92.0286 179.852 90.2786 179.852C88.5286 179.852 86.6086 179.102 84.6486 177.912L26.1686 142.382C24.1586 141.152 22.7086 139.952 21.7286 138.342C20.7486 136.742 20.1086 134.522 20.1086 131.062V60.5816C20.1086 55.7516 22.5186 51.4816 26.1686 49.2616L84.6286 13.7216C86.7186 12.4716 88.5786 11.5916 90.2686 11.5916ZM97.9786 181.342L156.439 145.802C161.359 142.812 164.419 137.192 164.419 131.062V60.5816C164.419 54.4516 161.359 48.8316 156.439 45.8416L97.9786 10.3016C95.8686 9.02155 93.1586 7.59155 90.2686 7.59155C87.3686 7.59155 84.6586 9.03155 82.5686 10.2916H82.5586L24.0886 45.8416C19.1686 48.8316 16.1086 54.4516 16.1086 60.5816V131.062C16.1086 135.022 16.8486 138.012 18.3086 140.422C19.7686 142.822 21.8286 144.422 24.0886 145.792L82.5486 181.332C84.7686 182.682 87.4386 183.862 90.2586 183.862C93.0786 183.862 95.7586 182.692 97.9786 181.342Z" fill="url(#paint1_linear)"/>
<path opacity="0.15" d="M122.189 109.042H150.829C152.579 109.042 153.999 107.622 153.999 105.872V88.3416C153.999 86.5916 152.579 85.1716 150.829 85.1716H122.169C120.419 85.1516 118.999 86.5616 118.999 88.3416V105.872C119.019 107.622 120.439 109.042 122.189 109.042Z" fill="#1F1D20"/>
<path opacity="0.15" d="M122.189 137.342H150.829C152.579 137.342 153.999 135.922 153.999 134.172V116.652C153.999 114.902 152.579 113.482 150.829 113.482H122.169C120.419 113.462 118.999 114.872 118.999 116.652V134.182C119.019 135.922 120.439 137.342 122.189 137.342Z" fill="#1F1D20"/>
<path opacity="0.15" d="M122.169 80.7416H150.809C152.559 80.7416 153.979 79.3216 153.979 77.5716V60.0316C153.979 58.2816 152.559 56.8616 150.809 56.8616H122.159C120.409 56.8616 118.989 58.2816 118.989 60.0316V77.5616C119.009 79.3316 120.429 80.7416 122.169 80.7416Z" fill="#1F1D20"/>
<path d="M138.599 125.171H112.559C112.299 125.171 112.089 124.961 112.089 124.701V67.7315C112.089 67.4715 112.299 67.2615 112.559 67.2615H138.599V68.2015H113.029V124.231H138.599V125.171Z" fill="#F2F2F2"/>
<path d="M138.239 95.2114H100.529V96.1514H138.239V95.2114Z" fill="#F2F2F2"/>
<path d="M122.189 107.342H150.829C152.579 107.342 153.999 105.922 153.999 104.172V86.6417C153.999 84.8917 152.579 83.4716 150.829 83.4716H122.169C120.419 83.4516 118.999 84.8617 118.999 86.6417V104.172C119.019 105.922 120.439 107.342 122.189 107.342Z" fill="#F2F2F2"/>
<path fill-rule="evenodd" clip-rule="evenodd" d="M126.178 104.752H126.818V86.9617H126.178V104.752Z" fill="#0065A9"/>
<path fill-rule="evenodd" clip-rule="evenodd" d="M124.819 94.5716C124.819 94.9516 124.469 95.2516 124.039 95.2516C123.609 95.2416 123.259 94.9416 123.259 94.5716C123.259 94.1916 123.609 93.8916 124.039 93.8916C124.469 93.8816 124.819 94.2016 124.819 94.5716Z" fill="#007ACC"/>
<path fill-rule="evenodd" clip-rule="evenodd" d="M124.819 97.6617C124.819 98.0417 124.469 98.3417 124.039 98.3417C123.609 98.3317 123.259 98.0217 123.259 97.6617C123.259 97.2817 123.609 96.9817 124.039 96.9817C124.469 96.9817 124.819 97.2817 124.819 97.6617Z" fill="#0065A9"/>
<path fill-rule="evenodd" clip-rule="evenodd" d="M124.819 100.882C124.819 101.262 124.469 101.562 124.039 101.562C123.609 101.562 123.259 101.252 123.259 100.882C123.259 100.502 123.609 100.202 124.039 100.202C124.469 100.192 124.819 100.512 124.819 100.882Z" fill="#00527F"/>
<path fill-rule="evenodd" clip-rule="evenodd" d="M135.779 101.562H129.069C128.759 101.562 128.529 101.272 128.529 100.922C128.529 100.572 128.769 100.282 129.069 100.282H135.779C136.089 100.282 136.319 100.572 136.319 100.922C136.319 101.292 136.079 101.562 135.779 101.562Z" fill="#00527F"/>
<path fill-rule="evenodd" clip-rule="evenodd" d="M142.348 101.562H138.228C137.778 101.562 137.428 101.272 137.428 100.922C137.428 100.572 137.788 100.282 138.228 100.282H142.348C142.798 100.282 143.148 100.572 143.148 100.922C143.148 101.292 142.788 101.562 142.348 101.562Z" fill="#00527F"/>
<path fill-rule="evenodd" clip-rule="evenodd" d="M135.519 91.8716H129.319C128.869 91.8716 128.519 91.5816 128.519 91.2316C128.519 90.8816 128.879 90.5916 129.319 90.5916H135.519C135.969 90.5916 136.319 90.8816 136.319 91.2316C136.309 91.5816 135.949 91.8716 135.519 91.8716Z" fill="#1F9CF0"/>
<path fill-rule="evenodd" clip-rule="evenodd" d="M135.779 98.3017H129.119C128.789 98.3017 128.529 98.0117 128.529 97.6617C128.529 97.3117 128.799 97.0217 129.119 97.0217H135.779C136.109 97.0217 136.369 97.3117 136.369 97.6617C136.379 98.0117 136.109 98.3017 135.779 98.3017Z" fill="#0065A9"/>
<path fill-rule="evenodd" clip-rule="evenodd" d="M144.488 98.3017H138.018C137.688 98.3017 137.428 98.0117 137.428 97.6617C137.428 97.3117 137.698 97.0217 138.018 97.0217H144.488C144.818 97.0217 145.078 97.3117 145.078 97.6617C145.068 98.0217 144.818 98.3017 144.488 98.3017Z" fill="#0065A9"/>
<path fill-rule="evenodd" clip-rule="evenodd" d="M129.199 95.1616C128.819 95.1616 128.509 94.8716 128.509 94.5216C128.509 94.1716 128.819 93.8816 129.199 93.8816H135.719C136.099 93.8816 136.409 94.1716 136.409 94.5216C136.409 94.8716 136.099 95.1616 135.719 95.1616H129.199Z" fill="#007ACC"/>
<path fill-rule="evenodd" clip-rule="evenodd" d="M148.309 98.3017H141.839C141.509 98.3017 141.249 98.0117 141.249 97.6617C141.249 97.3117 141.519 97.0217 141.839 97.0217H148.309C148.639 97.0217 148.899 97.3117 148.899 97.6617C148.899 98.0117 148.629 98.3017 148.309 98.3017Z" fill="#0065A9"/>
<path d="M122.189 135.641H150.829C152.579 135.641 153.999 134.221 153.999 132.471V114.951C153.999 113.201 152.579 111.781 150.829 111.781H122.169C120.419 111.761 118.999 113.171 118.999 114.951V132.481C119.019 134.221 120.439 135.641 122.189 135.641Z" fill="#F2F2F2"/>
<path fill-rule="evenodd" clip-rule="evenodd" d="M133.229 124.361L131.829 124.861L131.579 125.721L132.179 126.971L132.259 127.141L131.369 128.001L129.949 127.301L129.099 127.641L128.629 128.951L128.579 129.131L127.349 129.101L126.839 127.591L125.989 127.231L124.739 127.831L124.569 127.911L123.709 127.011L124.409 125.591L124.069 124.731L122.759 124.261L122.579 124.211L122.609 122.981L124.129 122.461L124.489 121.611L123.889 120.361L123.809 120.201L124.699 119.351L126.119 120.061L126.989 119.751L127.439 118.501L127.499 118.441L128.719 118.471L129.239 119.861L130.089 120.111L131.339 119.511L131.509 119.431L131.979 119.921L132.359 120.321L132.289 120.461L131.639 121.741L131.949 122.601L133.199 123.051L133.259 123.111L133.229 124.361ZM128.009 125.401C128.959 125.421 129.749 124.651 129.769 123.701C129.789 122.751 129.029 121.951 128.069 121.941C127.119 121.921 126.319 122.691 126.309 123.651C126.289 124.591 127.059 125.381 128.009 125.401Z" fill="url(#paint2_linear)"/>
<path fill-rule="evenodd" clip-rule="evenodd" d="M135.049 122.381H150.209V119.741H135.049V122.381Z" fill="#50E6FF"/>
<path fill-rule="evenodd" clip-rule="evenodd" d="M135.049 126.962H150.209V124.322H135.049V126.962Z" fill="#50E6FF"/>
<path fill-rule="evenodd" clip-rule="evenodd" d="M135.049 122.381H141.429V119.741H135.049V122.381Z" fill="url(#paint3_linear)"/>
<path fill-rule="evenodd" clip-rule="evenodd" d="M135.049 126.962H145.159V124.322H135.049V126.962V126.962Z" fill="url(#paint4_linear)"/>
<path d="M122.169 79.0414H150.809C152.559 79.0414 153.979 77.6214 153.979 75.8714V58.3314C153.979 56.5814 152.559 55.1614 150.809 55.1614H122.159C120.409 55.1614 118.989 56.5814 118.989 58.3314V75.8614C119.009 77.6314 120.429 79.0414 122.169 79.0414Z" fill="#F2F2F2"/>
<path d="M148.689 63.4314H139.279C138.869 63.4314 138.549 63.7714 138.549 64.1614C138.549 64.5714 138.889 64.8914 139.279 64.8914H148.689C149.099 64.8914 149.419 64.5514 149.419 64.1614C149.419 63.7514 149.079 63.4314 148.689 63.4314Z" fill="#50E6FF"/>
<path d="M148.689 66.6414H139.279C138.869 66.6414 138.549 66.9814 138.549 67.3714C138.549 67.7814 138.889 68.1014 139.279 68.1014H148.689C149.099 68.1014 149.419 67.7614 149.419 67.3714C149.419 66.9814 149.079 66.6414 148.689 66.6414Z" fill="#32B0E7"/>
<path fill-rule="evenodd" clip-rule="evenodd" d="M139.269 70.1113H143.969C144.379 70.1113 144.699 70.4513 144.699 70.8413C144.699 71.2513 144.359 71.5713 143.969 71.5713H139.269C138.859 71.5713 138.539 71.2313 138.539 70.8413C138.539 70.4413 138.869 70.1113 139.269 70.1113Z" fill="#185A97"/>
<path d="M129.258 70.7915C130.708 70.7915 131.888 69.6115 131.888 68.1615C131.888 66.7115 130.708 65.5315 129.258 65.5315C127.808 65.5315 126.628 66.7115 126.628 68.1615C126.628 69.6215 127.808 70.7915 129.258 70.7915Z" fill="url(#paint5_linear)"/>
<path d="M130.499 66.8914L128.539 68.8514L127.959 68.2714L127.579 68.6614L128.559 69.6414L130.909 67.3014L130.499 66.8914Z" fill="#F2F1F0"/>
<path d="M129.249 60.9414C125.259 60.9414 122.019 64.1714 122.019 68.1714C122.019 72.1714 125.249 75.4014 129.249 75.4014C133.249 75.4014 136.479 72.1714 136.479 68.1714C136.459 64.1814 133.239 60.9414 129.249 60.9414ZM129.249 71.5514C127.389 71.5514 125.879 70.0314 125.879 68.1814C125.879 66.3214 127.399 64.8114 129.249 64.8114C131.109 64.8114 132.619 66.3314 132.619 68.1814C132.619 70.0314 131.109 71.5514 129.249 71.5514Z" fill="url(#paint6_linear)"/>
<path d="M129.238 64.8014L129.218 60.9414C126.688 60.9514 124.448 62.2714 123.168 64.2614L126.338 66.4814C126.908 65.4814 127.998 64.8014 129.238 64.8014Z" fill="#50E6FF"/>
<path d="M125.879 68.1715C125.879 67.5515 126.039 66.9815 126.329 66.4815L123.169 64.2515L123.159 64.2815C122.449 65.4015 122.029 66.7315 122.029 68.1615C122.029 69.2215 122.259 70.2315 122.679 71.1415L126.199 69.5815C125.989 69.1615 125.879 68.6815 125.879 68.1715Z" fill="#3BCAF4"/>
<path opacity="0.15" d="M105.409 137.742C106.699 137.742 107.739 136.702 107.739 135.412V58.5415H26.5386V135.422C26.5386 136.712 27.5786 137.752 28.8686 137.752L105.409 137.742Z" fill="#1F1D20"/>
<path d="M107.729 59.2316V57.9716C107.729 56.4116 106.469 55.1516 104.909 55.1516H29.3586C27.7986 55.1516 26.5386 56.4116 26.5386 57.9716V59.3716V60.6516V132.952C26.5386 134.512 27.7986 135.772 29.3586 135.772H104.929C106.489 135.772 107.749 134.512 107.749 132.952V59.3716C107.749 59.3216 107.729 59.2816 107.729 59.2316Z" fill="#F2F2F2"/>
<path opacity="0.15" d="M66.8385 99.7517L93.2185 115.092L66.7585 130.432L40.4385 115.092L66.8385 99.7517Z" fill="#1F1D20"/>
<path d="M66.7585 96.2018V126.852L40.4385 111.432V80.8618L66.7585 96.2018Z" fill="#32B0E7"/>
<path d="M66.8385 65.5217L93.2185 80.8617L66.7585 96.2017L40.4385 80.8617L66.8385 65.5217Z" fill="#45CAF2"/>
<path d="M93.2185 80.8618V111.432L66.7585 126.852V96.2018L93.2185 80.8618Z" fill="#156AB3"/>
<path d="M66.7585 126.852V96.2017L93.2185 111.432L66.7585 126.852Z" fill="#185A97"/>
<path d="M66.7585 126.852V96.2017L40.4385 111.432L66.7585 126.852Z" fill="#0078D4"/>
<path d="M89.7184 123.802C95.3084 123.802 99.8284 119.272 99.8284 113.692C99.8284 108.112 95.2984 103.582 89.7184 103.582C84.1284 103.582 79.6084 108.112 79.6084 113.692C79.6084 119.272 84.1384 123.802 89.7184 123.802Z" fill="#002D4C"/>
<path d="M95.2185 108.531L86.8785 116.901L84.3785 114.391L82.7185 116.071L86.8885 120.241L96.8985 110.201L95.2185 108.531Z" fill="#FAF9F8"/>
<defs>
<linearGradient id="paint0_linear" x1="90.2682" y1="10.1217" x2="90.2682" y2="181.521" gradientUnits="userSpaceOnUse">
<stop stop-color="#00ABDE"/>
<stop offset="1" stop-color="#007ED8"/>
</linearGradient>
<linearGradient id="paint1_linear" x1="36.3881" y1="4.91265" x2="203.065" y2="287.243" gradientUnits="userSpaceOnUse">
<stop stop-color="#007ED8"/>
<stop offset="0.7065" stop-color="#002D4C"/>
</linearGradient>
<linearGradient id="paint2_linear" x1="114.37" y1="108.981" x2="158.154" y2="156.072" gradientUnits="userSpaceOnUse">
<stop stop-color="#007ED8"/>
<stop offset="0.7065" stop-color="#002D4C"/>
</linearGradient>
<linearGradient id="paint3_linear" x1="121.147" y1="102.68" x2="164.932" y2="149.771" gradientUnits="userSpaceOnUse">
<stop stop-color="#007ED8"/>
<stop offset="0.7065" stop-color="#002D4C"/>
</linearGradient>
<linearGradient id="paint4_linear" x1="119.861" y1="103.876" x2="163.645" y2="150.967" gradientUnits="userSpaceOnUse">
<stop stop-color="#007ED8"/>
<stop offset="0.7065" stop-color="#002D4C"/>
</linearGradient>
<linearGradient id="paint5_linear" x1="142.75" y1="70.3157" x2="106.01" y2="64.4576" gradientUnits="userSpaceOnUse">
<stop stop-color="#007ED8"/>
<stop offset="0.7065" stop-color="#002D4C"/>
</linearGradient>
<linearGradient id="paint6_linear" x1="142.749" y1="70.3278" x2="106.008" y2="64.4697" gradientUnits="userSpaceOnUse">
<stop stop-color="#007ED8"/>
<stop offset="0.7065" stop-color="#002D4C"/>
</linearGradient>
</defs>
</svg>
