<?xml version="1.0" encoding="UTF-8"?>
<svg width="100px" height="100px" viewBox="0 0 100 100" version="1.1" xmlns="http://www.w3.org/2000/svg" xmlns:xlink="http://www.w3.org/1999/xlink">
    <!-- Generator: Sketch 54.1 (76490) - https://sketchapp.com -->
    <title>Discover ways to foster an AI-ready culture in your business/understand-the-importance-of-buidling-an-ai-ready-culture</title>
    <desc>Created with Sketch.</desc>
    <defs>
        <rect id="path-1" x="0" y="0" width="96" height="96" rx="48"></rect>
        <filter x="-16.3%" y="-15.1%" width="134.5%" height="131.7%" filterUnits="objectBoundingBox" id="filter-3">
            <feOffset dx="0" dy="2" in="SourceAlpha" result="shadowOffsetOuter1"></feOffset>
            <feColorMatrix values="0 0 0 0 0   0 0 0 0 0   0 0 0 0 0  0 0 0 0.0987762238 0" type="matrix" in="shadowOffsetOuter1" result="shadowMatrixOuter1"></feColorMatrix>
            <feMerge>
                <feMergeNode in="shadowMatrixOuter1"></feMergeNode>
                <feMergeNode in="SourceGraphic"></feMergeNode>
            </feMerge>
        </filter>
        <path d="M0.430227435,19.4398494 C2.85674604,23.4334136 7.24970443,26.103086 12.2648693,26.103086 C17.2800342,26.103086 21.6732568,23.4333382 24.0995112,19.4398494 C24.0847703,19.3292848 24.0420193,19.2216714 23.9668352,19.1287952 C22.4159798,17.1902447 19.9615719,16.0388966 16.6680702,16.0388966 L7.86124585,16.0388966 C4.5678951,16.0388966 2.11356269,17.1902447 0.562480756,19.1287952 C0.487296683,19.2216677 0.444545695,19.3292848 0.429804756,19.4398494 L0.430227435,19.4398494 Z" id="path-4"></path>
        <filter x="-2.1%" y="-5.0%" width="104.2%" height="109.9%" filterUnits="objectBoundingBox" id="filter-5">
            <feOffset dx="0" dy="-1" in="SourceAlpha" result="shadowOffsetInner1"></feOffset>
            <feComposite in="shadowOffsetInner1" in2="SourceAlpha" operator="arithmetic" k2="-1" k3="1" result="shadowInnerInner1"></feComposite>
            <feColorMatrix values="0 0 0 0 0   0 0 0 0 0   0 0 0 0 0  0 0 0 0.1 0" type="matrix" in="shadowInnerInner1"></feColorMatrix>
        </filter>
        <filter x="-16.3%" y="-15.1%" width="134.5%" height="131.7%" filterUnits="objectBoundingBox" id="filter-6">
            <feOffset dx="0" dy="2" in="SourceAlpha" result="shadowOffsetOuter1"></feOffset>
            <feColorMatrix values="0 0 0 0 0   0 0 0 0 0   0 0 0 0 0  0 0 0 0.0987762238 0" type="matrix" in="shadowOffsetOuter1" result="shadowMatrixOuter1"></feColorMatrix>
            <feMerge>
                <feMergeNode in="shadowMatrixOuter1"></feMergeNode>
                <feMergeNode in="SourceGraphic"></feMergeNode>
            </feMerge>
        </filter>
        <path d="M0.430227435,19.4398494 C2.85674604,23.4334136 7.24970443,26.103086 12.2648693,26.103086 C17.2800342,26.103086 21.6732568,23.4333382 24.0995112,19.4398494 C24.0847703,19.3292848 24.0420193,19.2216714 23.9668352,19.1287952 C22.4159798,17.1902447 19.9615719,16.0388966 16.6680702,16.0388966 L7.86124585,16.0388966 C4.5678951,16.0388966 2.11356269,17.1902447 0.562480756,19.1287952 C0.487296683,19.2216677 0.444545695,19.3292848 0.429804756,19.4398494 L0.430227435,19.4398494 Z" id="path-7"></path>
        <filter x="-2.1%" y="-5.0%" width="104.2%" height="109.9%" filterUnits="objectBoundingBox" id="filter-8">
            <feOffset dx="0" dy="-1" in="SourceAlpha" result="shadowOffsetInner1"></feOffset>
            <feComposite in="shadowOffsetInner1" in2="SourceAlpha" operator="arithmetic" k2="-1" k3="1" result="shadowInnerInner1"></feComposite>
            <feColorMatrix values="0 0 0 0 0   0 0 0 0 0   0 0 0 0 0  0 0 0 0.1 0" type="matrix" in="shadowInnerInner1"></feColorMatrix>
        </filter>
        <filter x="-10.7%" y="-9.8%" width="121.4%" height="119.6%" filterUnits="objectBoundingBox" id="filter-9">
            <feOffset dx="0" dy="2" in="SourceAlpha" result="shadowOffsetOuter1"></feOffset>
            <feColorMatrix values="0 0 0 0 0   0 0 0 0 0   0 0 0 0 0  0 0 0 0.0987762238 0" type="matrix" in="shadowOffsetOuter1" result="shadowMatrixOuter1"></feColorMatrix>
            <feMerge>
                <feMergeNode in="shadowMatrixOuter1"></feMergeNode>
                <feMergeNode in="SourceGraphic"></feMergeNode>
            </feMerge>
        </filter>
        <path d="M0.656662927,29.6713491 C4.36029659,35.7667892 11.0653383,39.8415524 18.7200637,39.8415524 C26.3747891,39.8415524 33.0802341,35.766674 36.7834645,29.6713491 C36.7609652,29.5025926 36.6957137,29.3383406 36.5809591,29.1965822 C34.2138638,26.2377419 30.4676623,24.4804211 25.4407387,24.4804211 L11.9987437,24.4804211 C6.97205042,24.4804211 3.2259641,26.2377419 0.85852326,29.1965822 C0.743768621,29.3383349 0.678517113,29.5025926 0.656017785,29.6713491 L0.656662927,29.6713491 Z" id="path-10"></path>
        <filter x="-1.4%" y="-3.3%" width="102.8%" height="106.5%" filterUnits="objectBoundingBox" id="filter-11">
            <feOffset dx="0" dy="-1" in="SourceAlpha" result="shadowOffsetInner1"></feOffset>
            <feComposite in="shadowOffsetInner1" in2="SourceAlpha" operator="arithmetic" k2="-1" k3="1" result="shadowInnerInner1"></feComposite>
            <feColorMatrix values="0 0 0 0 0   0 0 0 0 0   0 0 0 0 0  0 0 0 0.1 0" type="matrix" in="shadowInnerInner1"></feColorMatrix>
        </filter>
    </defs>
    <g id="Badges" stroke="none" stroke-width="1" fill="none" fill-rule="evenodd">
        <g id="Discover-ways-to-foster-an-AI-ready-culture-in-your-business" transform="translate(-50.000000, -260.000000)">
            <g id="Discover-ways-to-foster-an-AI-ready-culture-in-your-business/understand-the-importance-of-buidling-an-ai-ready-culture" transform="translate(50.000000, 260.000000)">
                <g id="Mask" transform="translate(2.000000, 2.000000)">
                    <mask id="mask-2" fill="white">
                        <use xlink:href="#path-1"></use>
                    </mask>
                    <use id="BG" fill="#55A2FF" xlink:href="#path-1"></use>
                    <g id="AI---network" opacity="0.6" mask="url(#mask-2)">
                        <g transform="translate(-39.000000, 2.000000)">
                            <g id="yellow-under" stroke="none" stroke-width="1" fill="none" fill-rule="evenodd" transform="translate(110.063657, 0.000000)">
                                <circle id="Oval" fill="#F9D788" cx="16.2951389" cy="29.1597222" r="1.71527778"></circle>
                                <circle id="Oval" fill="#F9D788" cx="20.2974537" cy="81.1898148" r="1.14351852"></circle>
                                <circle id="Oval" fill="#F9D788" cx="22.5844907" cy="1.14351852" r="1.14351852"></circle>
                                <polyline id="Path-184" stroke="#FFDC8B" stroke-width="0.4" points="14.5798611 86.9074074 20.2974537 81.1898148 2.25347004e-15 79.7539955"></polyline>
                                <polyline id="Path-185" stroke="#FFDC8B" stroke-width="0.4" points="50.0289352 85.7638889 59.1770833 66.3240741 16.2951389 61.75"></polyline>
                                <polyline id="Path-187" stroke="#FFDC8B" stroke-width="0.4" points="15.7233796 28.587963 22.5844907 1.14351852 32.8761574 35.4490741 16.2951389 29.1597222 10.005787 46.8842593 34.0196759 35.4490741"></polyline>
                                <path d="M108.886637,24.0138889 L22.5844907,1.14351852" id="Path-188" stroke="#FFDC8B" stroke-width="0.4"></path>
                                <polyline id="Path-191" stroke="#FFDC8B" stroke-width="0.4" points="50.6006944 85.7638889 21.4409722 81.1898148 59.1770833 66.3240741"></polyline>
                            </g>
                            <g id="green-under" stroke="none" stroke-width="1" fill="none" fill-rule="evenodd" transform="translate(46.884259, 20.583333)">
                                <polyline id="Path-181" stroke="#FFFFFF" stroke-width="0.4" points="0 16.0092593 30.875 1.14351852 73.1851852 26.3009259 45.7407407 48.0277778 37.1643519 37.7361111 45.7407407 28.587963 21.7268519 24.5856481 67.4675926 13.7222222 30.875 1.14351852 21.7268519 26.3009259"></polyline>
                                <polyline id="Path-182" stroke="#FFFFFF" stroke-width="0.4" points="12.5787037 55.4606481 32.0185185 58.6963365 45.7407407 48.0277778"></polyline>
                                <polyline id="Path-183" stroke="#FFFFFF" stroke-width="0.4" points="62.8935185 58.8912037 80.0462963 41.1666667 96.0555556 14.8657407"></polyline>
                                <circle id="Oval" fill="#A1D978" cx="21.7268519" cy="25.1574074" r="1.14351852"></circle>
                                <circle id="Oval" fill="#A1D978" cx="45.7407407" cy="48.0277778" r="1.14351852"></circle>
                                <circle id="Oval" fill="#FFFFFF" cx="64.6087963" cy="33.7337963" r="1.71527778"></circle>
                                <circle id="Oval" fill="#FFFFFF" cx="73.1851852" cy="26.3009259" r="1.14351852"></circle>
                                <circle id="Oval" fill="#FFFFFF" cx="80.0462963" cy="41.1666667" r="1.14351852"></circle>
                                <circle id="Oval" fill="#FFFFFF" cx="32.0185185" cy="58.3194444" r="1.14351852"></circle>
                                <circle id="Oval" fill="#FFFFFF" cx="30.875" cy="1.14351852" r="1.14351852"></circle>
                            </g>
                            <g id="red-under-" stroke="none" stroke-width="1" fill="none" fill-rule="evenodd" transform="translate(0.000000, 18.296296)">
                                <polyline id="Path-177" stroke="#D96B5F" stroke-width="0.4" points="0 53.5505032 16.5810185 57.7476852 2.28703704 34.3055556 33.2032774 38.7221613 33.162037 38.8796296 45.7407407 18.2962963 0 1.12341761"></polyline>
                                <polyline id="Path-180" stroke="#D96B5F" stroke-width="0.4" points="16.5810185 57.1759259 33.162037 38.8796296 45.7407407 54.8888889 16.5810185 58.3194444"></polyline>
                                <circle id="Oval" fill="#F97B6E" cx="45.7407407" cy="18.2962963" r="1.14351852"></circle>
                            </g>
                            <polyline id="Path-151" stroke="#C2423D" stroke-width="0.5" fill="none" points="24.0138889 70.8981481 37.7361111 56.0324074 28.587963 51.4583333 22.8703704 41.1666667 44.5972222 27.4444444 45.7407407 49.1712963"></polyline>
                            <polygon id="Path-152" stroke="#C2423D" stroke-width="0.5" fill="none" points="37.7361111 84.6203704 52.6018519 62.8935185 37.7361111 56.0324074 24.0138889 70.8981481"></polygon>
                            <polyline id="Path-153" stroke="#C2423D" stroke-width="0.5" fill="none" points="29.7314815 87.6611916 58.3194444 75.4722222 45.7407407 73.1851852 24.0138889 70.8981481 38.3078704 56.0324074"></polyline>
                            <path d="M37.7361111,54.8888889 L45.7407407,73.1851852" id="Path-154" stroke="#C2423D" stroke-width="0.5" fill="none"></path>
                            <path d="M28.587963,51.4583333 L44.5972222,27.4444444" id="Path-155" stroke="#C2423D" stroke-width="0.5" fill="none"></path>
                            <path d="M45.7407407,50.3148148 L28.587963,51.4583333" id="Path-156" stroke="#C2423D" stroke-width="0.5" fill="none"></path>
                            <path d="M60.6064815,34.3055556 L44.5972222,27.4444444" id="Path-158" stroke="#C2423D" stroke-width="0.5" fill="none"></path>
                            <polyline id="Path-159" stroke="#C2423D" stroke-width="0.5" fill="none" points="60.6064815 34.3055556 45.7407407 49.1712963 62.8935185 49.1712963"></polyline>
                            <polygon id="Path-160" stroke="#C9E1FF" stroke-width="0.5" fill="none" points="92.625 49.1712963 60.6064815 34.3055556 62.8935185 48.0277778"></polygon>
                            <polygon id="Path-161" stroke="#E5F1FF" stroke-width="0.5" fill="none" points="52.6018519 62.8935185 62.8935185 49.1712963 84.0486111 58.8912037 77.7592593 66.3240741"></polygon>
                            <polyline id="Path-162" stroke="#FFFFFE" stroke-width="0.5" fill="none" points="52.6018519 62.8935185 92.625 49.1712963 114.923611 34.8773148 118.925926 53.7453704 109.206019 78.9027778 84.0486111 58.8912037 77.7592593 66.3240741"></polyline>
                            <polygon id="Path-163" stroke="#FFFFFE" stroke-width="0.5" fill="none" points="88 102 109.206019 78.9027778 62.8935185 87.6611916 58.3194444 76.6157407 78.9027778 66.3240741 109.206019 78.9027778"></polygon>
                            <polygon id="Path-164" stroke="#FFFFFE" stroke-width="0.5" fill="none" points="118.925926 54.8888889 84.0486111 58.8912037 92.625 49.1712963"></polygon>
                            <path d="M114.923611,35.4490741 L105.203704,51.4583333" id="Path-165" stroke="#FFFFFE" stroke-width="0.5" fill="none"></path>
                            <polyline id="Path-166" stroke="#EFB252" stroke-width="0.5" fill="none" points="147.513889 19.4398148 114.923611 34.8773148 141.796296 54.8888889 160.664352 26.3009259"></polyline>
                            <polygon id="Path-167" stroke="#EFB252" stroke-width="0.5" fill="none" points="147.513889 19.4398148 160.950231 25.7291667 114.923611 34.8773148 143.830062 21.1847854"></polygon>
                            <polygon id="Path-168" stroke="#EFB252" stroke-width="0.5" fill="none" points="118.925926 54.8888889 141.796296 54.8888889 130.361111 72.0416667"></polygon>
                            <polyline id="Path-169" stroke="#FFFFFE" stroke-width="0.5" fill="none" points="126.930556 99.4921875 116.638889 92.3232422 109.206019 80.0462963 130.361111 71.8467995 120.212384 89.2529297 140.652778 87.6611916"></polyline>
                            <polyline id="Path-170" stroke="#EFB252" stroke-width="0.5" fill="none" points="189.824074 51.4583333 130.361111 72.0416667 141.796296 87.6611916"></polyline>
                            <circle id="Oval" stroke="none" fill="#DF5142" fill-rule="evenodd" cx="37.7361111" cy="56.0324074" r="1.14351852"></circle>
                            <circle id="Oval" stroke="none" fill="#DF5142" fill-rule="evenodd" cx="45.7407407" cy="49.1712963" r="1.14351852"></circle>
                            <circle id="Oval" stroke="none" fill="#DF5142" fill-rule="evenodd" cx="44.5972222" cy="27.4444444" r="1.14351852"></circle>
                            <circle id="Oval" stroke="none" fill="#DF5142" fill-rule="evenodd" cx="45.7407407" cy="73.1851852" r="1.14351852"></circle>
                            <circle id="Oval" stroke="none" fill="#DF5142" fill-rule="evenodd" cx="52.6018519" cy="62.8935185" r="1.14351852"></circle>
                            <circle id="Oval" stroke="none" fill="#DF5142" fill-rule="evenodd" cx="60.6064815" cy="34.3055556" r="1.14351852"></circle>
                            <circle id="Oval" stroke="none" fill="#DF5142" fill-rule="evenodd" cx="62.8935185" cy="48.0277778" r="2.28703704"></circle>
                            <circle id="Oval" stroke="none" fill="#87BF5F" fill-rule="evenodd" cx="77.7592593" cy="66.3240741" r="1.14351852"></circle>
                            <circle id="Oval" stroke="none" fill="#DF5142" fill-rule="evenodd" cx="37.7361111" cy="84.6203704" r="1.14351852"></circle>
                            <circle id="Oval" stroke="none" fill="#DF5142" fill-rule="evenodd" cx="58.3194444" cy="75.4722222" r="1.14351852"></circle>
                            <circle id="Oval" stroke="none" fill="#87BF5F" fill-rule="evenodd" cx="84.0486111" cy="58.8912037" r="1.71527778"></circle>
                            <circle id="Oval" stroke="none" fill="#87BF5F" fill-rule="evenodd" cx="92.625" cy="49.1712963" r="1.14351852"></circle>
                            <circle id="Oval" stroke="none" fill="#E5F1FF" fill-rule="evenodd" cx="105.203704" cy="51.4583333" r="1.14351852"></circle>
                            <circle id="Oval" stroke="none" fill="#E5F1FF" fill-rule="evenodd" cx="118.925926" cy="54.8888889" r="1.14351852"></circle>
                            <circle id="Oval" stroke="none" fill="#E5F1FF" fill-rule="evenodd" cx="109.206019" cy="79.474537" r="1.71527778"></circle>
                            <circle id="Oval" stroke="none" fill="#F7CB64" fill-rule="evenodd" cx="130.361111" cy="72.0416667" r="1.14351852"></circle>
                            <circle id="Oval" stroke="none" fill="#E5F1FF" fill-rule="evenodd" cx="114.923611" cy="34.8773148" r="1.71527778"></circle>
                        </g>
                    </g>
                    <circle id="Oval" stroke="#FFFFFF" mask="url(#mask-2)" cx="48.5" cy="50.5" r="30.5"></circle>
                    <g id="Group-8" mask="url(#mask-2)">
                        <g transform="translate(32.000000, 7.000000)" id="Group-9">
                            <g>
                                <circle id="Oval" fill="#55A2FF" cx="16" cy="16" r="16"></circle>
                                <circle id="Oval" fill="#30404D" cx="16" cy="16" r="13"></circle>
                                <path d="M22.5605,11.4395 C21.975,10.8535 21.025,10.8535 20.4395,11.4395 L14.5,17.379 L11.5605,14.4395 C10.975,13.8535 10.025,13.8535 9.4395,14.4395 C8.8535,15.025 8.8535,15.975 9.4395,16.5605 L13.4395,20.5605 C13.732,20.8535 14.116,21 14.5,21 C14.884,21 15.268,20.8535 15.5605,20.5605 L22.5605,13.5605 C23.1465,12.975 23.1465,12.025 22.5605,11.4395" id="Fill-110" fill="#FFFFFE"></path>
                            </g>
                        </g>
                    </g>
                    <g id="Group-10" mask="url(#mask-2)">
                        <g transform="translate(11.000000, 44.000000)">
                            <g id="Group-6" transform="translate(45.010309, 0.000000)">
                                <circle id="Oval" fill="#55A2FF" cx="14.4948454" cy="14.4948454" r="14.4948454"></circle>
                                <g id="User" filter="url(#filter-3)" transform="translate(2.229976, 1.114988)">
                                    <path d="M12.2648693,13.5223398 C15.7380475,13.5223398 18.5552425,10.7066543 18.5552425,7.23347619 C18.5552425,3.75882623 15.7380852,0.943103053 12.2648693,0.943103053 C8.79165347,0.943103053 5.9744962,3.7587885 5.9744962,7.23347619 C5.9744962,10.7066543 8.79165347,13.5223398 12.2648693,13.5223398 Z" id="Path" fill="#7CB65A"></path>
                                    <g id="Path">
                                        <use fill="#7CB65A" fill-rule="evenodd" xlink:href="#path-4"></use>
                                        <use fill="black" fill-opacity="1" filter="url(#filter-5)" xlink:href="#path-4"></use>
                                    </g>
                                </g>
                            </g>
                            <g id="Group-5">
                                <circle id="Oval" fill="#55A2FF" cx="14.4948454" cy="14.4948454" r="14.4948454"></circle>
                                <g id="User" filter="url(#filter-6)" transform="translate(2.229976, 1.114988)">
                                    <path d="M12.2648693,13.5223398 C15.7380475,13.5223398 18.5552425,10.7066543 18.5552425,7.23347619 C18.5552425,3.75882623 15.7380852,0.943103053 12.2648693,0.943103053 C8.79165347,0.943103053 5.9744962,3.7587885 5.9744962,7.23347619 C5.9744962,10.7066543 8.79165347,13.5223398 12.2648693,13.5223398 Z" id="Path" fill="#DF5142"></path>
                                    <g id="Path">
                                        <use fill="#DF5142" fill-rule="evenodd" xlink:href="#path-7"></use>
                                        <use fill="black" fill-opacity="1" filter="url(#filter-8)" xlink:href="#path-7"></use>
                                    </g>
                                </g>
                            </g>
                            <g id="Group-2" transform="translate(14.494845, 0.000000)">
                                <g id="User" filter="url(#filter-9)" transform="translate(3.403648, 1.701824)">
                                    <path d="M18.7200637,20.6393607 C24.0212303,20.6393607 28.3211596,16.3417355 28.3211596,11.0405689 C28.3211596,5.73715583 24.0212879,1.43947308 18.7200637,1.43947308 C13.4188395,1.43947308 9.11896789,5.73709823 9.11896789,11.0405689 C9.11896789,16.3417355 13.4188395,20.6393607 18.7200637,20.6393607 Z" id="Path" fill="#F7CB64"></path>
                                    <g id="Path">
                                        <use fill="#F7CB64" fill-rule="evenodd" xlink:href="#path-10"></use>
                                        <use fill="black" fill-opacity="1" filter="url(#filter-11)" xlink:href="#path-10"></use>
                                    </g>
                                </g>
                            </g>
                        </g>
                    </g>
                </g>
                <g id="Azure-Border" stroke="#0078D4" stroke-width="4">
                    <rect x="2" y="2" width="96" height="96" rx="48"></rect>
                </g>
            </g>
        </g>
    </g>
</svg>