<svg width="103" height="102" viewBox="0 0 103 102" fill="none" xmlns="http://www.w3.org/2000/svg">
<g clip-path="url(#clip0_1735_430)">
<path d="M50.5892 96.851C24.9927 96.851 4.23816 76.1063 4.23816 50.4999C4.23816 24.8934 24.9927 4.1488 50.5892 4.1488C76.1858 4.1488 96.9403 24.9033 96.9403 50.4999C96.9403 76.0964 76.1858 96.851 50.5892 96.851Z" fill="url(#paint0_linear_1735_430)"/>
<path fill-rule="evenodd" clip-rule="evenodd" d="M96.0395 50.5004C96.0395 75.6018 75.691 95.9504 50.5895 95.9504C25.488 95.9504 5.13949 75.6018 5.13949 50.5004C5.13949 25.3989 25.488 5.05038 50.5895 5.05038C75.691 5.05038 96.0395 25.3989 96.0395 50.5004ZM50.5895 1.34705C77.7407 1.34705 99.7428 23.3492 99.7428 50.5004C99.7428 77.6516 77.7308 99.6537 50.5895 99.6537C23.4383 99.6537 1.43616 77.6417 1.43616 50.5004C1.43616 23.3492 23.4383 1.34705 50.5895 1.34705Z" fill="#F2F1F0"/>
<path fill-rule="evenodd" clip-rule="evenodd" d="M93.2568 50.4999C93.2568 74.0666 74.1559 93.1675 50.5893 93.1675C27.0226 93.1675 7.92172 74.0666 7.92172 50.4999C7.92172 26.9332 27.0226 7.83237 50.5893 7.83237C74.1559 7.83237 93.2568 26.9332 93.2568 50.4999ZM50.5893 4.12903C76.1957 4.12903 96.9601 24.8934 96.9601 50.4999C96.9601 76.1064 76.1957 96.8708 50.5893 96.8708C24.9828 96.8708 4.21838 76.1064 4.21838 50.4999C4.21838 24.8934 24.9729 4.12903 50.5893 4.12903Z" fill="url(#paint1_linear_1735_430)"/>
<g filter="url(#filter0_ddddd_1735_430)">
<path d="M76.7351 74.9598H20.3812C20.0784 74.9598 19.7882 74.8395 19.5742 74.6254C19.3601 74.4114 19.2397 74.1211 19.2397 73.8184V28.345C19.2397 28.1106 19.3329 27.886 19.4986 27.7202C19.6644 27.5545 19.8893 27.4613 20.1236 27.4613H75.1701C75.932 27.4578 76.668 27.7391 77.2333 28.2499C77.7987 28.7608 78.1528 29.4644 78.2262 30.2229C79.0363 39.023 81.5401 66.0123 81.5401 69.768C81.5513 70.5251 81.4329 71.2786 81.1902 71.9958C80.8379 72.8848 80.2225 73.6449 79.4263 74.1746C78.6301 74.7043 77.6912 74.9784 76.7351 74.9598V74.9598Z" fill="url(#paint2_linear_1735_430)"/>
<path opacity="0.15" d="M20.3812 74.9593H76.7351C77.6912 74.9778 78.6301 74.7038 79.4263 74.1741C80.2225 73.6444 80.8379 72.8843 81.1902 71.9953C81.4329 71.2781 81.5513 70.5245 81.5401 69.7675C81.5401 66.0854 79.0363 39.0224 78.2262 30.2223C78.1833 29.8172 78.0603 29.4248 77.8644 29.0676C77.6684 28.7105 77.4034 28.3958 77.0848 28.142C62.3566 38.8751 34.7412 59.329 19.2397 70.8538V73.8179C19.2397 74.1206 19.3601 74.4108 19.5742 74.6249C19.7882 74.8389 20.0784 74.9593 20.3812 74.9593V74.9593Z" fill="#1F1D20"/>
<path d="M70.6594 50.5851V69.6396C70.6731 70.8956 71.1291 72.1065 71.9474 73.0594C72.7656 74.0123 73.8938 74.6462 75.1332 74.8496V50.6035L70.6594 50.5851Z" fill="#185A97"/>
<path d="M81.4661 28.6947C81.4184 27.3011 80.831 25.9807 79.828 25.012C78.825 24.0433 77.4847 23.5021 76.0902 23.5029C74.7146 23.5147 73.3962 24.0554 72.4082 25.0127C71.4084 25.9834 70.8215 27.3022 70.7697 28.6947V28.6947V69.5285C70.7697 68.8201 70.9094 68.1188 71.1805 67.4643C71.4516 66.8099 71.8489 66.2152 72.3498 65.7143C72.8507 65.2134 73.4453 64.8161 74.0998 64.545C74.7542 64.274 75.4556 64.1344 76.164 64.1344C76.8723 64.1344 77.5737 64.274 78.2281 64.545C78.8826 64.8161 79.4772 65.2134 79.9781 65.7143C80.479 66.2152 80.8766 66.8099 81.1477 67.4643C81.4187 68.1188 81.5582 68.8201 81.5582 69.5285V28.6947H81.4661Z" fill="#0078D4"/>
</g>
<g filter="url(#filter1_ddddd_1735_430)">
<path d="M45.5628 44.3768C45.5628 38.6427 40.8713 33.9512 35.1373 33.9512C30.2618 33.9512 26.1439 37.3403 25.0177 41.878C24.9168 42.2846 25.2367 42.6618 25.6555 42.6618H28.6125C28.9151 42.6618 29.1774 42.4598 29.2844 42.1768C29.5939 41.3583 30.0791 40.6022 30.7177 39.9572C31.9038 38.7711 33.4677 38.1214 35.1297 38.1214C36.7842 38.1214 38.3556 38.7711 39.5417 39.9572C40.7278 41.1433 41.3775 42.7071 41.3775 44.3692C41.3775 44.7016 41.3775 45.646 41.3699 46.8849H25.3969C25.0226 46.8849 24.7192 47.1883 24.7192 47.5626V67.1189C24.7192 67.4931 25.0226 67.7965 25.3969 67.7965H44.8852C45.2595 67.7965 45.5628 67.4931 45.5628 67.1189V48.2599C45.5628 46.3637 45.5628 44.8376 45.5628 44.3768Z" fill="url(#paint3_linear_1735_430)"/>
</g>
<g filter="url(#filter2_ddddd_1735_430)">
<path d="M38.6744 61.5231C39.1175 61.5231 39.4766 61.164 39.4766 60.7209C39.4766 60.2779 39.1175 59.9187 38.6744 59.9187C38.2314 59.9187 37.8722 60.2779 37.8722 60.7209C37.8722 61.164 38.2314 61.5231 38.6744 61.5231Z" fill="white"/>
<path d="M34.9029 61.5231C35.346 61.5231 35.7052 61.164 35.7052 60.7209C35.7052 60.2779 35.346 59.9187 34.9029 59.9187C34.4599 59.9187 34.1007 60.2779 34.1007 60.7209C34.1007 61.164 34.4599 61.5231 34.9029 61.5231Z" fill="white"/>
<path d="M31.1301 61.5231C31.5732 61.5231 31.9323 61.164 31.9323 60.7209C31.9323 60.2779 31.5732 59.9187 31.1301 59.9187C30.687 59.9187 30.3279 60.2779 30.3279 60.7209C30.3279 61.164 30.687 61.5231 31.1301 61.5231Z" fill="white"/>
<path d="M38.6744 57.6546C39.1175 57.6546 39.4766 57.2954 39.4766 56.8524C39.4766 56.4093 39.1175 56.0502 38.6744 56.0502C38.2314 56.0502 37.8722 56.4093 37.8722 56.8524C37.8722 57.2954 38.2314 57.6546 38.6744 57.6546Z" fill="#50E6FF"/>
<path d="M34.9029 57.6546C35.346 57.6546 35.7052 57.2954 35.7052 56.8524C35.7052 56.4093 35.346 56.0502 34.9029 56.0502C34.4599 56.0502 34.1007 56.4093 34.1007 56.8524C34.1007 57.2954 34.4599 57.6546 34.9029 57.6546Z" fill="#50E6FF"/>
<path d="M31.1301 57.6546C31.5732 57.6546 31.9323 57.2954 31.9323 56.8524C31.9323 56.4093 31.5732 56.0502 31.1301 56.0502C30.687 56.0502 30.3279 56.4093 30.3279 56.8524C30.3279 57.2954 30.687 57.6546 31.1301 57.6546Z" fill="#50E6FF"/>
<path d="M38.6744 53.7861C39.1175 53.7861 39.4766 53.4269 39.4766 52.9839C39.4766 52.5408 39.1175 52.1816 38.6744 52.1816C38.2314 52.1816 37.8722 52.5408 37.8722 52.9839C37.8722 53.4269 38.2314 53.7861 38.6744 53.7861Z" fill="white"/>
<path d="M34.9029 53.7861C35.346 53.7861 35.7052 53.4269 35.7052 52.9839C35.7052 52.5408 35.346 52.1816 34.9029 52.1816C34.4599 52.1816 34.1007 52.5408 34.1007 52.9839C34.1007 53.4269 34.4599 53.7861 34.9029 53.7861Z" fill="white"/>
<path d="M31.1301 53.7861C31.5732 53.7861 31.9323 53.4269 31.9323 52.9839C31.9323 52.5408 31.5732 52.1816 31.1301 52.1816C30.687 52.1816 30.3279 52.5408 30.3279 52.9839C30.3279 53.4269 30.687 53.7861 31.1301 53.7861Z" fill="white"/>
</g>
<path opacity="0.15" d="M56.6959 67.7624C60.9972 67.7624 64.4762 64.2833 64.4762 59.982C64.4762 55.6807 60.9972 52.2017 56.6959 52.2017C52.3945 52.2017 48.9155 55.6807 48.9155 59.982C48.9155 64.2833 52.4051 67.7624 56.6959 67.7624Z" fill="#1F1D20"/>
<path d="M56.6959 67.0666C60.9972 67.0666 64.4762 63.5875 64.4762 59.2862C64.4762 54.9849 60.9972 51.5059 56.6959 51.5059C52.3945 51.5059 48.9155 54.9849 48.9155 59.2862C48.9155 63.5875 52.4051 67.0666 56.6959 67.0666Z" fill="white"/>
<path d="M60.4914 62.4498C60.2805 60.5206 58.6253 59.0024 56.6223 59.0024C54.6297 59.0024 52.9957 60.4889 52.7532 62.3971C52.7216 62.5342 52.7216 62.6818 52.7216 62.8083C52.7743 63.3565 53.1433 63.8836 53.8601 64.2948C55.3783 65.1698 57.8663 65.1698 59.3739 64.2948C60.0908 63.8836 60.4492 63.3565 60.5019 62.8083C60.523 62.6923 60.5019 62.5658 60.4914 62.4498Z" fill="url(#paint4_linear_1735_430)"/>
<path d="M56.6214 58.4431C57.9181 58.4431 58.9723 57.3994 58.9723 56.1132C58.9723 54.827 57.9286 53.7833 56.6214 53.7833C55.3141 53.7833 54.2704 54.8165 54.2704 56.1132C54.2704 57.4099 55.3246 58.4431 56.6214 58.4431Z" fill="url(#paint5_linear_1735_430)"/>
<path fill-rule="evenodd" clip-rule="evenodd" d="M50.0864 49.3617H50.5659V35.9531H50.0864V49.3617Z" fill="url(#paint6_linear_1735_430)"/>
<path fill-rule="evenodd" clip-rule="evenodd" d="M49.064 41.6906C49.064 41.9782 48.8003 42.202 48.4727 42.202C48.145 42.194 47.8813 41.9702 47.8813 41.6906C47.8813 41.4029 48.145 41.1791 48.4727 41.1791C48.8003 41.1712 49.064 41.4109 49.064 41.6906Z" fill="#BCF5FF"/>
<path fill-rule="evenodd" clip-rule="evenodd" d="M49.064 44.0165C49.064 44.3042 48.8003 44.5279 48.4727 44.5279C48.145 44.52 47.8813 44.2882 47.8813 44.0165C47.8813 43.7289 48.145 43.5051 48.4727 43.5051C48.8003 43.5051 49.064 43.7289 49.064 44.0165Z" fill="#50E6FF"/>
<path fill-rule="evenodd" clip-rule="evenodd" d="M49.064 46.4458C49.064 46.7335 48.8003 46.9572 48.4727 46.9572C48.145 46.9572 47.8813 46.7255 47.8813 46.4458C47.8813 46.1581 48.145 45.9344 48.4727 45.9344C48.8003 45.9264 49.064 46.1661 49.064 46.4458Z" fill="#1F83BB"/>
<path fill-rule="evenodd" clip-rule="evenodd" d="M57.3273 46.9565H52.2691C52.0374 46.9565 51.8616 46.7407 51.8616 46.477C51.8616 46.2133 52.0454 45.9976 52.2691 45.9976H57.3273C57.559 45.9976 57.7348 46.2133 57.7348 46.477C57.7348 46.7487 57.551 46.9565 57.3273 46.9565Z" fill="#1F83BB"/>
<path fill-rule="evenodd" clip-rule="evenodd" d="M62.2728 46.9565H59.1644C58.8288 46.9565 58.5651 46.7407 58.5651 46.477C58.5651 46.2133 58.8368 45.9976 59.1644 45.9976H62.2728C62.6084 45.9976 62.8721 46.2133 62.8721 46.477C62.8801 46.7487 62.6084 46.9565 62.2728 46.9565Z" fill="#1F83BB"/>
<path fill-rule="evenodd" clip-rule="evenodd" d="M57.1265 39.6523H52.4518C52.1162 39.6523 51.8525 39.4365 51.8525 39.1728C51.8525 38.9091 52.1242 38.6934 52.4518 38.6934H57.1265C57.4621 38.6934 57.7258 38.9091 57.7258 39.1728C57.7258 39.4365 57.4541 39.6523 57.1265 39.6523Z" fill="white"/>
<path fill-rule="evenodd" clip-rule="evenodd" d="M57.3273 44.4958H52.3091C52.0613 44.4958 51.8616 44.28 51.8616 44.0163C51.8616 43.7526 52.0613 43.5369 52.3091 43.5369H57.3273C57.575 43.5369 57.7748 43.7526 57.7748 44.0163C57.7748 44.28 57.575 44.4958 57.3273 44.4958Z" fill="#50E6FF"/>
<path fill-rule="evenodd" clip-rule="evenodd" d="M63.8869 44.4958H59.0125C58.7648 44.4958 58.5651 44.28 58.5651 44.0163C58.5651 43.7526 58.7648 43.5369 59.0125 43.5369H63.8869C64.1346 43.5369 64.3344 43.7526 64.3344 44.0163C64.3264 44.288 64.1346 44.4958 63.8869 44.4958Z" fill="#50E6FF"/>
<path fill-rule="evenodd" clip-rule="evenodd" d="M52.364 42.1299C52.0763 42.1299 51.8446 41.9142 51.8446 41.6505C51.8446 41.3868 52.0763 41.171 52.364 41.171H57.2783C57.566 41.171 57.7977 41.3868 57.7977 41.6505C57.7977 41.9142 57.566 42.1299 57.2783 42.1299H52.364Z" fill="#BCF5FF"/>
<path fill-rule="evenodd" clip-rule="evenodd" d="M66.7629 44.4958H61.8885C61.6408 44.4958 61.441 44.28 61.441 44.0163C61.441 43.7526 61.6408 43.5369 61.8885 43.5369H66.7629C67.0106 43.5369 67.2104 43.7526 67.2104 44.0163C67.2104 44.28 67.0106 44.4958 66.7629 44.4958Z" fill="#50E6FF"/>
<g filter="url(#filter3_ddddd_1735_430)">
<path d="M62.1737 41.5134C64.0104 41.5134 65.4983 40.0255 65.4983 38.1888C65.4983 36.3521 64.0104 34.8643 62.1737 34.8643C60.337 34.8643 58.8491 36.3521 58.8491 38.1888C58.8535 40.0255 60.3414 41.5134 62.1737 41.5134Z" fill="url(#paint7_linear_1735_430)"/>
</g>
<path d="M63.9836 36.5026L61.2462 39.2532L60.425 38.4276L59.8776 38.9794L61.2462 40.3525L64.5355 37.0545L63.9836 36.5026Z" fill="#FAF9F8"/>
</g>
<defs>
<filter id="filter0_ddddd_1735_430" x="12.2397" y="22.5029" width="76.3185" height="77.4578" filterUnits="userSpaceOnUse" color-interpolation-filters="sRGB">
<feFlood flood-opacity="0" result="BackgroundImageFix"/>
<feColorMatrix in="SourceAlpha" type="matrix" values="0 0 0 0 0 0 0 0 0 0 0 0 0 0 0 0 0 0 127 0" result="hardAlpha"/>
<feOffset/>
<feColorMatrix type="matrix" values="0 0 0 0 0 0 0 0 0 0 0 0 0 0 0 0 0 0 0.1 0"/>
<feBlend mode="normal" in2="BackgroundImageFix" result="effect1_dropShadow_1735_430"/>
<feColorMatrix in="SourceAlpha" type="matrix" values="0 0 0 0 0 0 0 0 0 0 0 0 0 0 0 0 0 0 127 0" result="hardAlpha"/>
<feOffset dy="1"/>
<feGaussianBlur stdDeviation="1"/>
<feColorMatrix type="matrix" values="0 0 0 0 0 0 0 0 0 0 0 0 0 0 0 0 0 0 0.1 0"/>
<feBlend mode="normal" in2="effect1_dropShadow_1735_430" result="effect2_dropShadow_1735_430"/>
<feColorMatrix in="SourceAlpha" type="matrix" values="0 0 0 0 0 0 0 0 0 0 0 0 0 0 0 0 0 0 127 0" result="hardAlpha"/>
<feOffset dy="4"/>
<feGaussianBlur stdDeviation="2"/>
<feColorMatrix type="matrix" values="0 0 0 0 0 0 0 0 0 0 0 0 0 0 0 0 0 0 0.09 0"/>
<feBlend mode="normal" in2="effect2_dropShadow_1735_430" result="effect3_dropShadow_1735_430"/>
<feColorMatrix in="SourceAlpha" type="matrix" values="0 0 0 0 0 0 0 0 0 0 0 0 0 0 0 0 0 0 127 0" result="hardAlpha"/>
<feOffset dy="10"/>
<feGaussianBlur stdDeviation="3"/>
<feColorMatrix type="matrix" values="0 0 0 0 0 0 0 0 0 0 0 0 0 0 0 0 0 0 0.05 0"/>
<feBlend mode="normal" in2="effect3_dropShadow_1735_430" result="effect4_dropShadow_1735_430"/>
<feColorMatrix in="SourceAlpha" type="matrix" values="0 0 0 0 0 0 0 0 0 0 0 0 0 0 0 0 0 0 127 0" result="hardAlpha"/>
<feOffset dy="18"/>
<feGaussianBlur stdDeviation="3.5"/>
<feColorMatrix type="matrix" values="0 0 0 0 0 0 0 0 0 0 0 0 0 0 0 0 0 0 0.01 0"/>
<feBlend mode="normal" in2="effect4_dropShadow_1735_430" result="effect5_dropShadow_1735_430"/>
<feBlend mode="normal" in="SourceGraphic" in2="effect5_dropShadow_1735_430" result="shape"/>
</filter>
<filter id="filter1_ddddd_1735_430" x="18.8465" y="32.5959" width="32.5891" height="55.981" filterUnits="userSpaceOnUse" color-interpolation-filters="sRGB">
<feFlood flood-opacity="0" result="BackgroundImageFix"/>
<feColorMatrix in="SourceAlpha" type="matrix" values="0 0 0 0 0 0 0 0 0 0 0 0 0 0 0 0 0 0 127 0" result="hardAlpha"/>
<feOffset/>
<feColorMatrix type="matrix" values="0 0 0 0 0 0 0 0 0 0 0 0 0 0 0 0 0 0 0.1 0"/>
<feBlend mode="normal" in2="BackgroundImageFix" result="effect1_dropShadow_1735_430"/>
<feColorMatrix in="SourceAlpha" type="matrix" values="0 0 0 0 0 0 0 0 0 0 0 0 0 0 0 0 0 0 127 0" result="hardAlpha"/>
<feOffset dy="0.903496"/>
<feGaussianBlur stdDeviation="1.12937"/>
<feColorMatrix type="matrix" values="0 0 0 0 0 0 0 0 0 0 0 0 0 0 0 0 0 0 0.1 0"/>
<feBlend mode="normal" in2="effect1_dropShadow_1735_430" result="effect2_dropShadow_1735_430"/>
<feColorMatrix in="SourceAlpha" type="matrix" values="0 0 0 0 0 0 0 0 0 0 0 0 0 0 0 0 0 0 127 0" result="hardAlpha"/>
<feOffset dy="3.61399"/>
<feGaussianBlur stdDeviation="1.80699"/>
<feColorMatrix type="matrix" values="0 0 0 0 0 0 0 0 0 0 0 0 0 0 0 0 0 0 0.09 0"/>
<feBlend mode="normal" in2="effect2_dropShadow_1735_430" result="effect3_dropShadow_1735_430"/>
<feColorMatrix in="SourceAlpha" type="matrix" values="0 0 0 0 0 0 0 0 0 0 0 0 0 0 0 0 0 0 127 0" result="hardAlpha"/>
<feOffset dy="8.58322"/>
<feGaussianBlur stdDeviation="2.48462"/>
<feColorMatrix type="matrix" values="0 0 0 0 0 0 0 0 0 0 0 0 0 0 0 0 0 0 0.05 0"/>
<feBlend mode="normal" in2="effect3_dropShadow_1735_430" result="effect4_dropShadow_1735_430"/>
<feColorMatrix in="SourceAlpha" type="matrix" values="0 0 0 0 0 0 0 0 0 0 0 0 0 0 0 0 0 0 127 0" result="hardAlpha"/>
<feOffset dy="14.9077"/>
<feGaussianBlur stdDeviation="2.93636"/>
<feColorMatrix type="matrix" values="0 0 0 0 0 0 0 0 0 0 0 0 0 0 0 0 0 0 0.01 0"/>
<feBlend mode="normal" in2="effect4_dropShadow_1735_430" result="effect5_dropShadow_1735_430"/>
<feBlend mode="normal" in="SourceGraphic" in2="effect5_dropShadow_1735_430" result="shape"/>
</filter>
<filter id="filter2_ddddd_1735_430" x="28.9726" y="51.7299" width="11.8593" height="13.859" filterUnits="userSpaceOnUse" color-interpolation-filters="sRGB">
<feFlood flood-opacity="0" result="BackgroundImageFix"/>
<feColorMatrix in="SourceAlpha" type="matrix" values="0 0 0 0 0 0 0 0 0 0 0 0 0 0 0 0 0 0 127 0" result="hardAlpha"/>
<feOffset/>
<feColorMatrix type="matrix" values="0 0 0 0 0 0 0 0 0 0 0 0 0 0 0 0 0 0 0.1 0"/>
<feBlend mode="normal" in2="BackgroundImageFix" result="effect1_dropShadow_1735_430"/>
<feColorMatrix in="SourceAlpha" type="matrix" values="0 0 0 0 0 0 0 0 0 0 0 0 0 0 0 0 0 0 127 0" result="hardAlpha"/>
<feOffset/>
<feGaussianBlur stdDeviation="0.225874"/>
<feColorMatrix type="matrix" values="0 0 0 0 0 0 0 0 0 0 0 0 0 0 0 0 0 0 0.1 0"/>
<feBlend mode="normal" in2="effect1_dropShadow_1735_430" result="effect2_dropShadow_1735_430"/>
<feColorMatrix in="SourceAlpha" type="matrix" values="0 0 0 0 0 0 0 0 0 0 0 0 0 0 0 0 0 0 127 0" result="hardAlpha"/>
<feOffset dy="0.903496"/>
<feGaussianBlur stdDeviation="0.451748"/>
<feColorMatrix type="matrix" values="0 0 0 0 0 0 0 0 0 0 0 0 0 0 0 0 0 0 0.09 0"/>
<feBlend mode="normal" in2="effect2_dropShadow_1735_430" result="effect3_dropShadow_1735_430"/>
<feColorMatrix in="SourceAlpha" type="matrix" values="0 0 0 0 0 0 0 0 0 0 0 0 0 0 0 0 0 0 127 0" result="hardAlpha"/>
<feOffset dy="1.80699"/>
<feGaussianBlur stdDeviation="0.451748"/>
<feColorMatrix type="matrix" values="0 0 0 0 0 0 0 0 0 0 0 0 0 0 0 0 0 0 0.05 0"/>
<feBlend mode="normal" in2="effect3_dropShadow_1735_430" result="effect4_dropShadow_1735_430"/>
<feColorMatrix in="SourceAlpha" type="matrix" values="0 0 0 0 0 0 0 0 0 0 0 0 0 0 0 0 0 0 127 0" result="hardAlpha"/>
<feOffset dy="2.71049"/>
<feGaussianBlur stdDeviation="0.677622"/>
<feColorMatrix type="matrix" values="0 0 0 0 0 0 0 0 0 0 0 0 0 0 0 0 0 0 0.01 0"/>
<feBlend mode="normal" in2="effect4_dropShadow_1735_430" result="effect5_dropShadow_1735_430"/>
<feBlend mode="normal" in="SourceGraphic" in2="effect5_dropShadow_1735_430" result="shape"/>
</filter>
<filter id="filter3_ddddd_1735_430" x="56.8491" y="33.8643" width="10.6492" height="13.6492" filterUnits="userSpaceOnUse" color-interpolation-filters="sRGB">
<feFlood flood-opacity="0" result="BackgroundImageFix"/>
<feColorMatrix in="SourceAlpha" type="matrix" values="0 0 0 0 0 0 0 0 0 0 0 0 0 0 0 0 0 0 127 0" result="hardAlpha"/>
<feOffset/>
<feColorMatrix type="matrix" values="0 0 0 0 0 0 0 0 0 0 0 0 0 0 0 0 0 0 0.1 0"/>
<feBlend mode="normal" in2="BackgroundImageFix" result="effect1_dropShadow_1735_430"/>
<feColorMatrix in="SourceAlpha" type="matrix" values="0 0 0 0 0 0 0 0 0 0 0 0 0 0 0 0 0 0 127 0" result="hardAlpha"/>
<feOffset/>
<feGaussianBlur stdDeviation="0.5"/>
<feColorMatrix type="matrix" values="0 0 0 0 0 0 0 0 0 0 0 0 0 0 0 0 0 0 0.1 0"/>
<feBlend mode="normal" in2="effect1_dropShadow_1735_430" result="effect2_dropShadow_1735_430"/>
<feColorMatrix in="SourceAlpha" type="matrix" values="0 0 0 0 0 0 0 0 0 0 0 0 0 0 0 0 0 0 127 0" result="hardAlpha"/>
<feOffset dy="1"/>
<feGaussianBlur stdDeviation="0.5"/>
<feColorMatrix type="matrix" values="0 0 0 0 0 0 0 0 0 0 0 0 0 0 0 0 0 0 0.09 0"/>
<feBlend mode="normal" in2="effect2_dropShadow_1735_430" result="effect3_dropShadow_1735_430"/>
<feColorMatrix in="SourceAlpha" type="matrix" values="0 0 0 0 0 0 0 0 0 0 0 0 0 0 0 0 0 0 127 0" result="hardAlpha"/>
<feOffset dy="2"/>
<feGaussianBlur stdDeviation="0.5"/>
<feColorMatrix type="matrix" values="0 0 0 0 0 0 0 0 0 0 0 0 0 0 0 0 0 0 0.05 0"/>
<feBlend mode="normal" in2="effect3_dropShadow_1735_430" result="effect4_dropShadow_1735_430"/>
<feColorMatrix in="SourceAlpha" type="matrix" values="0 0 0 0 0 0 0 0 0 0 0 0 0 0 0 0 0 0 127 0" result="hardAlpha"/>
<feOffset dy="4"/>
<feGaussianBlur stdDeviation="1"/>
<feColorMatrix type="matrix" values="0 0 0 0 0 0 0 0 0 0 0 0 0 0 0 0 0 0 0.01 0"/>
<feBlend mode="normal" in2="effect4_dropShadow_1735_430" result="effect5_dropShadow_1735_430"/>
<feBlend mode="normal" in="SourceGraphic" in2="effect5_dropShadow_1735_430" result="shape"/>
</filter>
<linearGradient id="paint0_linear_1735_430" x1="24.8745" y1="8.99697" x2="99.781" y2="148.193" gradientUnits="userSpaceOnUse">
<stop offset="0.0001" stop-color="#50E6FF"/>
<stop offset="0.623265" stop-color="#0078D4"/>
</linearGradient>
<linearGradient id="paint1_linear_1735_430" x1="15.1761" y1="10.7231" x2="82.7186" y2="98.1208" gradientUnits="userSpaceOnUse">
<stop stop-color="#007ED8"/>
<stop offset="0.915361" stop-color="#002D4C"/>
</linearGradient>
<linearGradient id="paint2_linear_1735_430" x1="41.3689" y1="-1.47961" x2="56.0235" y2="105.153" gradientUnits="userSpaceOnUse">
<stop stop-color="#007ED8"/>
<stop offset="0.71" stop-color="#002D4C"/>
</linearGradient>
<linearGradient id="paint3_linear_1735_430" x1="35.141" y1="33.9512" x2="35.141" y2="67.7965" gradientUnits="userSpaceOnUse">
<stop stop-color="#008BF1"/>
<stop offset="0.22" stop-color="#0086EC"/>
<stop offset="0.49" stop-color="#0078DD"/>
<stop offset="0.79" stop-color="#0061C4"/>
<stop offset="1" stop-color="#004DAE"/>
</linearGradient>
<linearGradient id="paint4_linear_1735_430" x1="56.6162" y1="59.0024" x2="56.6162" y2="64.951" gradientUnits="userSpaceOnUse">
<stop stop-color="#008BF1"/>
<stop offset="0.22" stop-color="#0086EC"/>
<stop offset="0.49" stop-color="#0078DD"/>
<stop offset="0.79" stop-color="#0061C4"/>
<stop offset="1" stop-color="#004DAE"/>
</linearGradient>
<linearGradient id="paint5_linear_1735_430" x1="56.6214" y1="53.7833" x2="56.6214" y2="58.4431" gradientUnits="userSpaceOnUse">
<stop stop-color="#008BF1"/>
<stop offset="0.22" stop-color="#0086EC"/>
<stop offset="0.49" stop-color="#0078DD"/>
<stop offset="0.79" stop-color="#0061C4"/>
<stop offset="1" stop-color="#004DAE"/>
</linearGradient>
<linearGradient id="paint6_linear_1735_430" x1="51.0848" y1="44.7674" x2="51.0848" y2="33.9936" gradientUnits="userSpaceOnUse">
<stop stop-color="#50E6FF"/>
<stop offset="1" stop-color="white"/>
</linearGradient>
<linearGradient id="paint7_linear_1735_430" x1="62.1737" y1="34.8643" x2="62.1737" y2="41.5134" gradientUnits="userSpaceOnUse">
<stop stop-color="#008BF1"/>
<stop offset="0.22" stop-color="#0086EC"/>
<stop offset="0.49" stop-color="#0078DD"/>
<stop offset="0.79" stop-color="#0061C4"/>
<stop offset="1" stop-color="#004DAE"/>
</linearGradient>
<clipPath id="clip0_1735_430">
<rect width="102" height="102" fill="white" transform="translate(0.0893555)"/>
</clipPath>
</defs>
</svg>
