<svg width="100" height="100" viewBox="0 0 100 100" fill="none" xmlns="http://www.w3.org/2000/svg">
<g clip-path="url(#clip0_539_289)">
<path d="M49.6401 96.4499C40.382 96.4499 31.3317 93.7045 23.6339 88.561C15.936 83.4174 9.93624 76.1067 6.3933 67.5533C2.85036 58.9999 1.92337 49.588 3.72954 40.5077C5.53571 31.4275 9.99394 23.0867 16.5404 16.5402C23.0869 9.99372 31.4277 5.5355 40.5079 3.72933C49.5882 1.92315 59.0001 2.85015 67.5535 6.39308C76.1069 9.93602 83.4176 15.9358 88.5612 23.6336C93.7047 31.3315 96.4501 40.3817 96.4501 49.6399C96.4505 55.7872 95.24 61.8744 92.8878 67.5538C90.5355 73.2332 87.0875 78.3937 82.7407 82.7405C78.3939 87.0873 73.2335 90.5353 67.554 92.8876C61.8746 95.2398 55.7874 96.4503 49.6401 96.4499V96.4499Z" fill="url(#paint0_linear_539_289)"/>
<path fill-rule="evenodd" clip-rule="evenodd" d="M95.54 49.6399C95.54 58.718 92.848 67.5923 87.8045 75.1406C82.7609 82.6888 75.5923 88.5719 67.2052 92.046C58.818 95.52 49.5891 96.429 40.6854 94.6579C31.7816 92.8869 23.603 88.5153 17.1838 82.0961C10.7646 75.6769 6.39302 67.4983 4.62196 58.5945C2.85089 49.6908 3.75987 40.4618 7.23393 32.0747C10.708 23.6876 16.5911 16.519 24.1393 11.4754C31.6875 6.43187 40.5618 3.73988 49.64 3.73988C55.6677 3.73986 61.6363 4.92708 67.2052 7.23377C72.774 9.54045 77.834 12.9214 82.0963 17.1836C86.3585 21.4458 89.7394 26.5058 92.0461 32.0747C94.3528 37.6435 95.54 43.6122 95.54 49.6399V49.6399ZM49.64 -0.000106449C59.4579 -0.000106449 69.0552 2.91123 77.2185 8.36574C85.3818 13.8203 91.7442 21.573 95.5014 30.6435C99.2585 39.714 100.242 49.695 98.3262 59.3242C96.4108 68.9534 91.6831 77.7984 84.7408 84.7407C77.7985 91.683 68.9535 96.4107 59.3243 98.3261C49.6951 100.241 39.7141 99.2584 30.6436 95.5013C21.5731 91.7441 13.8204 85.3816 8.36584 77.2184C2.91133 69.0551 -1.61629e-06 59.4577 3.61524e-07 49.6399C-0.000786426 43.1208 1.28265 36.6655 3.77702 30.6425C6.27138 24.6196 9.92781 19.147 14.5375 14.5374C19.1471 9.9277 24.6197 6.27127 30.6427 3.77691C36.6656 1.28254 43.121 -0.000894549 49.64 -0.000106449V-0.000106449Z" fill="#F2F1F0"/>
<path fill-rule="evenodd" clip-rule="evenodd" d="M92.7296 49.64C92.7296 58.1624 90.2024 66.4934 85.4676 73.5795C80.7328 80.6656 74.0031 86.1886 66.1294 89.45C58.2557 92.7113 49.5918 93.5647 41.2331 91.902C32.8745 90.2394 25.1966 86.1355 19.1703 80.1092C13.1441 74.083 9.04017 66.4051 7.37753 58.0464C5.7149 49.6878 6.56822 41.0238 9.8296 33.1502C13.091 25.2765 18.6139 18.5468 25.7 13.812C32.7862 9.07718 41.1172 6.55 49.6396 6.55C55.2983 6.54965 60.9017 7.66397 66.1298 9.82933C71.3579 11.9947 76.1082 15.1687 80.1096 19.17C84.1109 23.1713 87.2849 27.9217 89.4502 33.1498C91.6156 38.3778 92.7299 43.9812 92.7296 49.64ZM49.6396 2.81C58.9017 2.81 67.9558 5.55653 75.6569 10.7023C83.3581 15.848 89.3604 23.1619 92.9049 31.7189C96.4493 40.276 97.3767 49.6919 95.5697 58.7761C93.7628 67.8602 89.3027 76.2045 82.7534 82.7538C76.2041 89.3031 67.8598 93.7632 58.7757 95.5702C49.6915 97.3771 40.2756 96.4497 31.7185 92.9053C23.1614 89.3608 15.8476 83.3585 10.7018 75.6574C5.5561 67.9562 2.80957 58.9021 2.80957 49.64C2.81076 37.2203 7.74501 25.3096 16.5271 16.5275C25.3091 7.74544 37.2198 2.81119 49.6396 2.81V2.81Z" fill="#0078D4"/>
<path fill-rule="evenodd" clip-rule="evenodd" d="M92.7296 49.6399C92.7296 58.1623 90.2024 66.4933 85.4676 73.5794C80.7328 80.6655 74.0031 86.1885 66.1294 89.4499C58.2557 92.7112 49.5918 93.5646 41.2331 91.9019C32.8745 90.2393 25.1966 86.1354 19.1703 80.1091C13.1441 74.0829 9.04017 66.405 7.37753 58.0463C5.7149 49.6877 6.56822 41.0237 9.8296 33.1501C13.091 25.2764 18.6139 18.5467 25.7001 13.8119C32.7862 9.07708 41.1172 6.5499 49.6396 6.5499C55.2983 6.54956 60.9017 7.66388 66.1298 9.82923C71.3579 11.9946 76.1082 15.1686 80.1096 19.1699C84.1109 23.1712 87.2849 27.9216 89.4502 33.1497C91.6156 38.3777 92.7299 43.9811 92.7296 49.6399V49.6399ZM49.6396 2.8099C58.9017 2.8099 67.9558 5.55643 75.6569 10.7022C83.3581 15.8479 89.3604 23.1618 92.9048 31.7188C96.4493 40.2759 97.3767 49.6918 95.5697 58.776C93.7628 67.8601 89.3027 76.2044 82.7534 82.7537C76.2041 89.303 67.8598 93.7631 58.7757 95.5701C49.6915 97.377 40.2756 96.4496 31.7185 92.9052C23.1614 89.3607 15.8476 83.3584 10.7018 75.6573C5.5561 67.9561 2.80957 58.902 2.80957 49.6399C2.81075 37.2202 7.74499 25.3095 16.5271 16.5274C25.3091 7.7453 37.2198 2.81105 49.6396 2.80986V2.8099Z" fill="#0078D4"/>
<path d="M38.8178 29.3002H27.6059C26.8429 29.3002 26.2244 29.9188 26.2244 30.6818V31.0538C26.2244 31.8168 26.8429 32.4353 27.6059 32.4353H38.8178C39.5808 32.4353 40.1994 31.8168 40.1994 31.0538V30.6818C40.1994 29.9188 39.5808 29.3002 38.8178 29.3002Z" fill="white"/>
<path d="M34.4074 35.65H23.1955C22.4325 35.65 21.814 36.2685 21.814 37.0316V37.4035C21.814 38.1665 22.4325 38.7851 23.1955 38.7851H34.4074C35.1704 38.7851 35.789 38.1665 35.789 37.4035V37.0316C35.789 36.2685 35.1704 35.65 34.4074 35.65Z" fill="white"/>
<path d="M38.8178 41.9999H27.6059C26.8429 41.9999 26.2244 42.6184 26.2244 43.3814V43.7534C26.2244 44.5164 26.8429 45.1349 27.6059 45.1349H38.8178C39.5808 45.1349 40.1994 44.5164 40.1994 43.7534V43.3814C40.1994 42.6184 39.5808 41.9999 38.8178 41.9999Z" fill="white"/>
<path d="M69.6372 38.5195C69.5955 36.455 68.8221 34.4724 67.4548 32.9251C66.0875 31.3777 64.2151 30.3662 62.1715 30.0707C62.0811 27.1837 60.8561 24.4487 58.7621 22.4592C56.6681 20.4696 53.8741 19.386 50.9862 19.4434C48.6631 19.4329 46.3939 20.1426 44.4908 21.4748C42.5876 22.807 41.1441 24.6962 40.3588 26.8825C37.8995 27.2075 35.6391 28.4062 33.9904 30.2598C32.3417 32.1133 31.4147 34.4981 31.3787 36.9785C31.4757 39.7599 32.66 42.3923 34.677 44.3099C36.694 46.2275 39.3827 47.2774 42.1655 47.234H61.0556C63.3351 47.1723 65.5021 46.2303 67.102 44.6056C68.702 42.9808 69.6106 40.7996 69.6372 38.5195Z" fill="url(#paint1_linear_539_289)"/>
<path d="M63.6988 70.1174L35.5814 70.1179C35.0468 70.1199 34.5349 70.3342 34.1582 70.7136C33.7816 71.093 33.5711 71.6065 33.573 72.1411V77.1991C33.5711 77.7337 33.7816 78.2472 34.1582 78.6267C34.5348 79.0061 35.0468 79.2204 35.5814 79.2224H63.6988C64.2334 79.2202 64.7454 79.0059 65.122 78.6264C65.4986 78.2468 65.7091 77.7333 65.7072 77.1986V72.1406C65.7091 71.606 65.4986 71.0925 65.122 70.7131C64.7453 70.3336 64.2334 70.1194 63.6988 70.1174V70.1174Z" fill="url(#paint2_linear_539_289)"/>
<path fill-rule="evenodd" clip-rule="evenodd" d="M40.8967 75.3594C40.7084 75.169 40.6028 74.912 40.6028 74.6442C40.6028 74.3764 40.7084 74.1194 40.8967 73.929C40.9896 73.8352 41.1002 73.7607 41.2221 73.7099C41.3439 73.6591 41.4746 73.6329 41.6067 73.6329C41.7387 73.6329 41.8695 73.6591 41.9913 73.7099C42.1132 73.7607 42.2238 73.8352 42.3167 73.929C42.5051 74.1194 42.6108 74.3764 42.6108 74.6442C42.6108 74.9121 42.5051 75.1691 42.3167 75.3594C42.2238 75.4533 42.1132 75.5278 41.9914 75.5787C41.8695 75.6295 41.7387 75.6557 41.6067 75.6557C41.4746 75.6557 41.3439 75.6295 41.222 75.5787C41.1001 75.5278 40.9896 75.4533 40.8967 75.3594V75.3594Z" fill="#0078D4"/>
<path fill-rule="evenodd" clip-rule="evenodd" d="M37.8877 75.3686C37.6995 75.1781 37.594 74.9212 37.594 74.6534C37.594 74.3856 37.6995 74.1287 37.8877 73.9382C37.9807 73.8444 38.0913 73.7699 38.2132 73.7191C38.3351 73.6683 38.4659 73.6421 38.5979 73.6421C38.73 73.6421 38.8608 73.6683 38.9827 73.7191C39.1046 73.7699 39.2152 73.8444 39.3081 73.9382C39.4963 74.1287 39.6019 74.3856 39.6019 74.6534C39.6019 74.9212 39.4963 75.1781 39.3081 75.3686C39.2152 75.4625 39.1046 75.537 38.9827 75.5878C38.8608 75.6387 38.73 75.6649 38.5979 75.6649C38.4658 75.6649 38.3351 75.6387 38.2132 75.5878C38.0913 75.537 37.9806 75.4625 37.8877 75.3686V75.3686Z" fill="#0078D4"/>
<path fill-rule="evenodd" clip-rule="evenodd" d="M49.64 72.141V77.199C49.6405 77.3314 49.615 77.4625 49.5648 77.585C49.5146 77.7075 49.4407 77.8189 49.3475 77.9129C49.2542 78.0068 49.1434 78.0815 49.0213 78.1326C48.8991 78.1837 48.7682 78.2102 48.6358 78.2106H33.8516C34.0252 78.5167 34.2766 78.7715 34.5803 78.9491C34.8841 79.1268 35.2294 79.221 35.5813 79.2222H63.6986C64.2333 79.2201 64.7452 79.0057 65.1218 78.6262C65.4985 78.2467 65.7089 77.7332 65.707 77.1986V72.1405C65.7052 71.7848 65.6092 71.436 65.4288 71.1294H50.6441C50.5118 71.1299 50.3808 71.1564 50.2587 71.2075C50.1366 71.2586 50.0257 71.3332 49.9325 71.4272C49.8392 71.5211 49.7654 71.6325 49.7152 71.755C49.665 71.8775 49.6395 72.0086 49.64 72.141V72.141Z" fill="url(#paint3_linear_539_289)"/>
<path d="M63.6988 61.0129H35.5814C35.0468 61.0149 34.5349 61.2291 34.1582 61.6086C33.7816 61.988 33.5711 62.5015 33.573 63.0361V68.0941C33.5711 68.6287 33.7816 69.1422 34.1582 69.5216C34.5348 69.901 35.0468 70.1153 35.5814 70.1173H63.6988C64.2334 70.1152 64.7454 69.9008 65.122 69.5213C65.4986 69.1418 65.7091 68.6282 65.7072 68.0935V63.0355C65.7081 62.7709 65.6569 62.5086 65.5565 62.2637C65.4561 62.0188 65.3084 61.7961 65.1219 61.6083C64.9354 61.4204 64.7137 61.2712 64.4696 61.169C64.2254 61.0669 63.9635 61.0138 63.6988 61.0129V61.0129Z" fill="url(#paint4_linear_539_289)"/>
<path fill-rule="evenodd" clip-rule="evenodd" d="M40.8967 66.2546C40.7084 66.0642 40.6028 65.8072 40.6028 65.5394C40.6028 65.2716 40.7084 65.0146 40.8967 64.8242C40.9896 64.7303 41.1002 64.6559 41.2221 64.605C41.3439 64.5542 41.4746 64.5281 41.6067 64.5281C41.7387 64.5281 41.8695 64.5542 41.9913 64.605C42.1132 64.6559 42.2238 64.7303 42.3167 64.8242C42.5051 65.0145 42.6108 65.2715 42.6108 65.5394C42.6108 65.8072 42.5051 66.0642 42.3167 66.2546C42.2238 66.3484 42.1132 66.423 41.9914 66.4738C41.8695 66.5247 41.7387 66.5509 41.6067 66.5509C41.4746 66.5509 41.3439 66.5247 41.222 66.4738C41.1001 66.423 40.9896 66.3484 40.8967 66.2546V66.2546Z" fill="#0078D4"/>
<path fill-rule="evenodd" clip-rule="evenodd" d="M37.8877 66.2637C37.6995 66.0733 37.594 65.8163 37.594 65.5485C37.594 65.2808 37.6995 65.0238 37.8877 64.8333C37.9807 64.7395 38.0913 64.665 38.2132 64.6142C38.3351 64.5634 38.4659 64.5372 38.5979 64.5372C38.73 64.5372 38.8608 64.5634 38.9827 64.6142C39.1046 64.665 39.2152 64.7395 39.3081 64.8333C39.4963 65.0238 39.6019 65.2808 39.6019 65.5485C39.6019 65.8163 39.4963 66.0733 39.3081 66.2637C39.2152 66.3576 39.1046 66.4321 38.9827 66.483C38.8608 66.5338 38.73 66.56 38.5979 66.56C38.4658 66.56 38.3351 66.5338 38.2132 66.483C38.0913 66.4321 37.9806 66.3576 37.8877 66.2637V66.2637Z" fill="#0078D4"/>
<path fill-rule="evenodd" clip-rule="evenodd" d="M49.64 63.0361V68.0941C49.6405 68.2265 49.615 68.3577 49.5648 68.4802C49.5146 68.6027 49.4408 68.7141 49.3475 68.808C49.2542 68.902 49.1434 68.9766 49.0213 69.0277C48.8991 69.0788 48.7682 69.1053 48.6358 69.1058H33.8516C34.0252 69.4118 34.2766 69.6666 34.5803 69.8442C34.8841 70.0219 35.2294 70.1161 35.5813 70.1174H63.6986C64.2333 70.1152 64.7452 69.9009 65.1219 69.5214C65.4985 69.1419 65.709 68.6283 65.707 68.0936V63.0356C65.7052 62.68 65.6092 62.3311 65.4288 62.0246H50.6441C50.5118 62.025 50.3808 62.0516 50.2587 62.1027C50.1366 62.1537 50.0257 62.2284 49.9325 62.3223C49.8392 62.4163 49.7654 62.5276 49.7152 62.6501C49.665 62.7726 49.6395 62.9038 49.64 63.0361V63.0361Z" fill="url(#paint5_linear_539_289)"/>
<path d="M63.6988 51.9083H35.5814C35.0468 51.9103 34.5349 52.1245 34.1582 52.504C33.7816 52.8834 33.5711 53.3969 33.573 53.9315V58.9895C33.5711 59.5242 33.7816 60.0376 34.1582 60.4171C34.5349 60.7965 35.0468 61.0108 35.5814 61.0128H63.6988C64.2334 61.0107 64.7454 60.7963 65.122 60.4168C65.4986 60.0373 65.7091 59.5237 65.7072 58.989V53.931C65.7081 53.6663 65.6569 53.4041 65.5565 53.1591C65.4561 52.9142 65.3084 52.6915 65.1219 52.5037C64.9354 52.3158 64.7138 52.1666 64.4696 52.0644C64.2254 51.9623 63.9635 51.9092 63.6988 51.9083V51.9083Z" fill="url(#paint6_linear_539_289)"/>
<path fill-rule="evenodd" clip-rule="evenodd" d="M40.8967 57.15C40.7084 56.9596 40.6028 56.7026 40.6028 56.4348C40.6028 56.167 40.7084 55.91 40.8967 55.7196C40.9896 55.6258 41.1002 55.5513 41.222 55.5005C41.3439 55.4497 41.4746 55.4235 41.6067 55.4235C41.7387 55.4235 41.8695 55.4497 41.9913 55.5005C42.1132 55.5513 42.2238 55.6258 42.3167 55.7196C42.5051 55.91 42.6108 56.167 42.6108 56.4348C42.6108 56.7027 42.5051 56.9597 42.3167 57.15C42.2238 57.2439 42.1132 57.3184 41.9914 57.3693C41.8695 57.4201 41.7387 57.4463 41.6067 57.4463C41.4746 57.4463 41.3439 57.4201 41.222 57.3693C41.1001 57.3184 40.9896 57.2439 40.8967 57.15Z" fill="#0078D4"/>
<path fill-rule="evenodd" clip-rule="evenodd" d="M37.8877 57.1592C37.6995 56.9687 37.594 56.7117 37.594 56.444C37.594 56.1762 37.6995 55.9192 37.8877 55.7287C37.9807 55.6349 38.0913 55.5605 38.2132 55.5096C38.3351 55.4588 38.4659 55.4327 38.5979 55.4327C38.73 55.4327 38.8608 55.4588 38.9827 55.5096C39.1046 55.5605 39.2152 55.6349 39.3081 55.7287C39.4963 55.9192 39.6019 56.1762 39.6019 56.444C39.6019 56.7117 39.4963 56.9687 39.3081 57.1592C39.2152 57.253 39.1046 57.3275 38.9827 57.3784C38.8608 57.4293 38.73 57.4554 38.5979 57.4554C38.4658 57.4554 38.3351 57.4293 38.2132 57.3784C38.0913 57.3275 37.9806 57.253 37.8877 57.1592V57.1592Z" fill="#0078D4"/>
<path fill-rule="evenodd" clip-rule="evenodd" d="M49.64 53.9316V58.9896C49.6405 59.122 49.615 59.2531 49.5648 59.3756C49.5146 59.4981 49.4407 59.6095 49.3475 59.7034C49.2542 59.7974 49.1434 59.872 49.0213 59.9231C48.8991 59.9742 48.7682 60.0007 48.6358 60.0012H33.8516C34.0252 60.3073 34.2766 60.5621 34.5803 60.7397C34.8841 60.9174 35.2294 61.0116 35.5813 61.0129H63.6986C64.2333 61.0108 64.7453 60.7964 65.1219 60.4169C65.4985 60.0373 65.709 59.5238 65.707 58.9891V53.9311C65.7052 53.5754 65.6092 53.2266 65.4288 52.92H50.6441C50.5118 52.9205 50.3808 52.947 50.2587 52.9981C50.1366 53.0492 50.0257 53.1238 49.9325 53.2178C49.8392 53.3117 49.7654 53.4231 49.7152 53.5456C49.665 53.6681 49.6395 53.7992 49.64 53.9316V53.9316Z" fill="url(#paint7_linear_539_289)"/>
<path fill-rule="evenodd" clip-rule="evenodd" d="M61.6906 73.6585H55.6655C55.3985 73.6605 55.1432 73.768 54.9552 73.9575C54.7671 74.147 54.6616 74.4031 54.6616 74.6701C54.6616 74.937 54.7671 75.1932 54.9552 75.3827C55.1432 75.5721 55.3985 75.6796 55.6655 75.6817H61.6906C61.9576 75.6796 62.2129 75.5721 62.4009 75.3827C62.589 75.1932 62.6945 74.937 62.6945 74.6701C62.6945 74.4031 62.589 74.147 62.4009 73.9575C62.2129 73.768 61.9576 73.6605 61.6906 73.6585Z" fill="#9CEBFF"/>
<path fill-rule="evenodd" clip-rule="evenodd" d="M61.6906 64.5536H55.6654C55.3984 64.5555 55.1429 64.6629 54.9547 64.8524C54.7665 65.0419 54.6609 65.2981 54.6609 65.5652C54.6609 65.8323 54.7665 66.0885 54.9547 66.278C55.1429 66.4675 55.3984 66.5749 55.6654 66.5768H61.6906C61.9576 66.5749 62.2131 66.4675 62.4013 66.278C62.5895 66.0885 62.6951 65.8323 62.6951 65.5652C62.6951 65.2981 62.5895 65.0419 62.4013 64.8524C62.2131 64.6629 61.9576 64.5555 61.6906 64.5536Z" fill="#9CEBFF"/>
<path fill-rule="evenodd" clip-rule="evenodd" d="M61.6906 55.449H55.6655C55.3985 55.4511 55.1432 55.5586 54.9552 55.7481C54.7671 55.9376 54.6616 56.1937 54.6616 56.4607C54.6616 56.7276 54.7671 56.9837 54.9552 57.1732C55.1432 57.3627 55.3985 57.4702 55.6655 57.4723H61.6906C61.9576 57.4702 62.2129 57.3627 62.4009 57.1732C62.589 56.9837 62.6945 56.7276 62.6945 56.4607C62.6945 56.1937 62.589 55.9376 62.4009 55.7481C62.2129 55.5586 61.9576 55.4511 61.6906 55.449V55.449Z" fill="#9CEBFF"/>
<path fill-rule="evenodd" clip-rule="evenodd" d="M41.9433 74.9835C41.7883 75.1396 41.5859 75.2399 41.3678 75.2688C41.1497 75.2977 40.9282 75.2536 40.7378 75.1433C40.8118 75.2796 40.9169 75.3966 41.0445 75.4848C41.1722 75.573 41.3188 75.6299 41.4724 75.6509C41.6261 75.6719 41.7826 75.6565 41.9292 75.6058C42.0759 75.5552 42.2085 75.4707 42.3164 75.3593C42.5048 75.169 42.6105 74.912 42.6105 74.6441C42.6105 74.3763 42.5048 74.1193 42.3164 73.9289C42.2524 73.8663 42.1803 73.8125 42.102 73.7691C42.2114 73.9612 42.2551 74.1837 42.2265 74.4029C42.1978 74.6221 42.0984 74.826 41.9433 74.9835Z" fill="#003067"/>
<path fill-rule="evenodd" clip-rule="evenodd" d="M38.9345 74.9928C38.7795 75.1489 38.5771 75.2492 38.359 75.2781C38.1409 75.307 37.9194 75.2629 37.729 75.1526C37.8031 75.289 37.9082 75.406 38.0359 75.4942C38.1635 75.5824 38.3101 75.6393 38.4639 75.6603C38.6176 75.6813 38.7741 75.6659 38.9208 75.6152C39.0675 75.5645 39.2001 75.4801 39.3081 75.3686C39.4196 75.2597 39.5041 75.1261 39.5548 74.9787C39.6055 74.8313 39.6211 74.674 39.6002 74.5195C39.5793 74.365 39.5226 74.2175 39.4346 74.0888C39.3465 73.9602 39.2296 73.8538 39.0932 73.7784C39.2028 73.9704 39.2467 74.193 39.218 74.4123C39.1894 74.6315 39.0898 74.8354 38.9345 74.9928Z" fill="#003067"/>
<path fill-rule="evenodd" clip-rule="evenodd" d="M41.9433 65.8786C41.7882 66.0346 41.5858 66.1348 41.3678 66.1637C41.1497 66.1926 40.9282 66.1486 40.7378 66.0385C40.8118 66.1748 40.9169 66.2917 41.0446 66.3799C41.1722 66.4681 41.3188 66.525 41.4724 66.546C41.6261 66.567 41.7826 66.5516 41.9292 66.501C42.0759 66.4503 42.2085 66.3659 42.3164 66.2545C42.5048 66.0641 42.6105 65.8071 42.6105 65.5393C42.6105 65.2714 42.5048 65.0144 42.3164 64.8241C42.2526 64.7613 42.1804 64.7075 42.102 64.6642C42.2114 64.8563 42.2551 65.0789 42.2265 65.2981C42.1978 65.5173 42.0984 65.7211 41.9433 65.8786Z" fill="#003067"/>
<path fill-rule="evenodd" clip-rule="evenodd" d="M38.9345 65.8879C38.7795 66.044 38.5771 66.1443 38.359 66.1732C38.1409 66.2021 37.9194 66.158 37.729 66.0477C37.8031 66.1841 37.9082 66.3011 38.0359 66.3893C38.1635 66.4775 38.3101 66.5344 38.4639 66.5554C38.6176 66.5764 38.7741 66.561 38.9208 66.5103C39.0675 66.4596 39.2001 66.3752 39.3081 66.2637C39.4196 66.1548 39.5041 66.0212 39.5548 65.8738C39.6055 65.7264 39.621 65.5691 39.6002 65.4146C39.5793 65.2601 39.5226 65.1126 39.4346 64.9839C39.3465 64.8553 39.2296 64.7489 39.0932 64.6735C39.2028 64.8655 39.2467 65.0881 39.218 65.3074C39.1894 65.5266 39.0898 65.7305 38.9345 65.8879V65.8879Z" fill="#003067"/>
<path fill-rule="evenodd" clip-rule="evenodd" d="M41.9433 56.7741C41.7882 56.93 41.5858 57.0303 41.3678 57.0592C41.1497 57.0881 40.9282 57.044 40.7378 56.9339C40.8118 57.0702 40.9169 57.1872 41.0445 57.2754C41.1722 57.3635 41.3188 57.4204 41.4724 57.4415C41.6261 57.4625 41.7826 57.4471 41.9292 57.3964C42.0759 57.3458 42.2085 57.2613 42.3164 57.1499C42.5048 56.9595 42.6105 56.7025 42.6105 56.4347C42.6105 56.1669 42.5048 55.9098 42.3164 55.7195C42.2526 55.6567 42.1804 55.6029 42.102 55.5597C42.2114 55.7517 42.2551 55.9743 42.2265 56.1935C42.1978 56.4127 42.0984 56.6165 41.9433 56.7741Z" fill="#003067"/>
<path fill-rule="evenodd" clip-rule="evenodd" d="M38.9345 56.7833C38.7795 56.9394 38.5771 57.0398 38.359 57.0687C38.1409 57.0976 37.9194 57.0535 37.729 56.9432C37.8031 57.0795 37.9082 57.1965 38.0359 57.2847C38.1635 57.3729 38.3102 57.4298 38.4639 57.4509C38.6176 57.4719 38.7741 57.4564 38.9208 57.4058C39.0675 57.3551 39.2001 57.2706 39.3081 57.1592C39.4196 57.0502 39.5041 56.9167 39.5548 56.7693C39.6056 56.6218 39.6211 56.4646 39.6002 56.3101C39.5793 56.1556 39.5226 56.0081 39.4346 55.8794C39.3465 55.7507 39.2296 55.6444 39.0932 55.5689C39.2028 55.761 39.2467 55.9836 39.218 56.2028C39.1894 56.4221 39.0898 56.6259 38.9345 56.7833V56.7833Z" fill="#003067"/>
<path fill-rule="evenodd" clip-rule="evenodd" d="M55.6656 74.1643H61.6907C61.9135 74.1653 62.1296 74.2404 62.3049 74.3778C62.4803 74.5152 62.605 74.707 62.6593 74.923C62.7002 74.7742 62.7061 74.618 62.6766 74.4666C62.647 74.3152 62.5828 74.1727 62.489 74.0502C62.3952 73.9277 62.2743 73.8287 62.1358 73.7607C61.9974 73.6927 61.845 73.6577 61.6907 73.6585H55.6656C55.5113 73.6578 55.359 73.6928 55.2206 73.7608C55.0821 73.8288 54.9612 73.9279 54.8675 74.0503C54.7737 74.1728 54.7095 74.3153 54.6799 74.4667C54.6503 74.6181 54.6562 74.7742 54.6971 74.923C54.7514 74.707 54.8761 74.5152 55.0514 74.3778C55.2268 74.2404 55.4428 74.1653 55.6656 74.1643V74.1643Z" fill="#50E6FF"/>
<path fill-rule="evenodd" clip-rule="evenodd" d="M55.6656 65.0594H61.6907C61.9135 65.0604 62.1296 65.1356 62.3049 65.2729C62.4803 65.4103 62.605 65.6021 62.6593 65.8181C62.7002 65.6694 62.7061 65.5132 62.6766 65.3618C62.647 65.2104 62.5828 65.0678 62.489 64.9454C62.3952 64.8229 62.2743 64.7238 62.1358 64.6558C61.9974 64.5879 61.845 64.5529 61.6907 64.5536H55.6656C55.5113 64.5529 55.359 64.5879 55.2206 64.6559C55.0821 64.7239 54.9612 64.823 54.8675 64.9455C54.7737 65.0679 54.7095 65.2104 54.6799 65.3618C54.6503 65.5132 54.6562 65.6694 54.6971 65.8181C54.7514 65.6021 54.8761 65.4103 55.0514 65.2729C55.2268 65.1356 55.4428 65.0604 55.6656 65.0594V65.0594Z" fill="#50E6FF"/>
<path fill-rule="evenodd" clip-rule="evenodd" d="M55.6656 55.9549H61.6907C61.9135 55.9559 62.1296 56.031 62.3049 56.1684C62.4803 56.3058 62.605 56.4976 62.6593 56.7136C62.7002 56.5649 62.7061 56.4087 62.6765 56.2572C62.647 56.1058 62.5828 55.9633 62.489 55.8408C62.3952 55.7184 62.2743 55.6193 62.1358 55.5513C61.9974 55.4834 61.845 55.4484 61.6907 55.4491H55.6656C55.5113 55.4484 55.359 55.4834 55.2206 55.5514C55.0821 55.6194 54.9612 55.7185 54.8675 55.8409C54.7737 55.9634 54.7095 56.1059 54.6799 56.2573C54.6503 56.4087 54.6562 56.5649 54.6971 56.7136C54.7514 56.4976 54.8761 56.3058 55.0514 56.1684C55.2268 56.031 55.4428 55.9559 55.6656 55.9549V55.9549Z" fill="#50E6FF"/>
</g>
<defs>
<linearGradient id="paint0_linear_539_289" x1="47.8698" y1="-15.1532" x2="51.8525" y2="130.615" gradientUnits="userSpaceOnUse">
<stop stop-color="#00ABDE"/>
<stop offset="1" stop-color="#007ED8"/>
</linearGradient>
<linearGradient id="paint1_linear_539_289" x1="50.5079" y1="19.4411" x2="50.5079" y2="47.2353" gradientUnits="userSpaceOnUse">
<stop stop-color="#008BF1"/>
<stop offset="0.22" stop-color="#0086EC"/>
<stop offset="0.49" stop-color="#0078DD"/>
<stop offset="0.79" stop-color="#0061C4"/>
<stop offset="1" stop-color="#004DAE"/>
</linearGradient>
<linearGradient id="paint2_linear_539_289" x1="49.6401" y1="70.1174" x2="49.6401" y2="79.2387" gradientUnits="userSpaceOnUse">
<stop stop-color="#005BA1"/>
<stop offset="0.26" stop-color="#00589D"/>
<stop offset="0.53" stop-color="#004F90"/>
<stop offset="0.8" stop-color="#003F7C"/>
<stop offset="1" stop-color="#003067"/>
</linearGradient>
<linearGradient id="paint3_linear_539_289" x1="49.7793" y1="71.1294" x2="49.7793" y2="79.2222" gradientUnits="userSpaceOnUse">
<stop stop-color="#008BF1"/>
<stop offset="0.22" stop-color="#0086EC"/>
<stop offset="0.49" stop-color="#0078DD"/>
<stop offset="0.79" stop-color="#0061C4"/>
<stop offset="1" stop-color="#004DAE"/>
</linearGradient>
<linearGradient id="paint4_linear_539_289" x1="49.6401" y1="61.0129" x2="49.6401" y2="70.1336" gradientUnits="userSpaceOnUse">
<stop stop-color="#005BA1"/>
<stop offset="0.26" stop-color="#00589D"/>
<stop offset="0.53" stop-color="#004F90"/>
<stop offset="0.8" stop-color="#003F7C"/>
<stop offset="1" stop-color="#003067"/>
</linearGradient>
<linearGradient id="paint5_linear_539_289" x1="49.7793" y1="62.0246" x2="49.7793" y2="70.1174" gradientUnits="userSpaceOnUse">
<stop stop-color="#008BF1"/>
<stop offset="0.22" stop-color="#0086EC"/>
<stop offset="0.49" stop-color="#0078DD"/>
<stop offset="0.79" stop-color="#0061C4"/>
<stop offset="1" stop-color="#004DAE"/>
</linearGradient>
<linearGradient id="paint6_linear_539_289" x1="49.6401" y1="51.9083" x2="49.6401" y2="61.0291" gradientUnits="userSpaceOnUse">
<stop stop-color="#005BA1"/>
<stop offset="0.26" stop-color="#00589D"/>
<stop offset="0.53" stop-color="#004F90"/>
<stop offset="0.8" stop-color="#003F7C"/>
<stop offset="1" stop-color="#003067"/>
</linearGradient>
<linearGradient id="paint7_linear_539_289" x1="49.7793" y1="52.92" x2="49.7793" y2="61.0129" gradientUnits="userSpaceOnUse">
<stop stop-color="#008BF1"/>
<stop offset="0.22" stop-color="#0086EC"/>
<stop offset="0.49" stop-color="#0078DD"/>
<stop offset="0.79" stop-color="#0061C4"/>
<stop offset="1" stop-color="#004DAE"/>
</linearGradient>
<clipPath id="clip0_539_289">
<rect width="99.2799" height="99.28" fill="white"/>
</clipPath>
</defs>
</svg>
