<svg width="102" height="102" viewBox="0 0 102 102" fill="none" xmlns="http://www.w3.org/2000/svg">
<path d="M50.9999 97.3511C25.4034 97.3511 4.64886 76.6065 4.64886 51C4.64886 25.3935 25.4034 4.64893 50.9999 4.64893C76.5965 4.64893 97.351 25.4034 97.351 51C97.351 76.5966 76.5965 97.3511 50.9999 97.3511Z" fill="url(#paint0_linear_2430_728)"/>
<path fill-rule="evenodd" clip-rule="evenodd" d="M96.4501 51.0005C96.4501 76.102 76.1016 96.4505 51.0001 96.4505C25.8987 96.4505 5.55013 76.102 5.55013 51.0005C5.55013 25.899 25.8987 5.55051 51.0001 5.55051C76.1016 5.55051 96.4501 25.899 96.4501 51.0005ZM51.0001 1.84717C78.1513 1.84717 100.153 23.8493 100.153 51.0005C100.153 78.1517 78.1414 100.154 51.0001 100.154C23.849 100.154 1.8468 78.1418 1.8468 51.0005C1.8468 23.8493 23.849 1.84717 51.0001 1.84717Z" fill="#F2F1F0"/>
<path d="M51.0001 4.47876C76.6893 4.47887 97.5206 25.311 97.5206 51.0002C97.5205 76.6894 76.6893 97.5206 51.0001 97.5208C25.3109 97.5208 4.47875 76.6895 4.47864 51.0002C4.47864 25.311 25.3009 4.47876 51.0001 4.47876ZM51.0001 8.48267C27.5163 8.48267 8.48254 27.5164 8.48254 51.0002C8.48266 74.484 27.5164 93.5178 51.0001 93.5178C74.4838 93.5177 93.5176 74.4839 93.5177 51.0002C93.5177 27.5165 74.4838 8.48278 51.0001 8.48267Z" fill="url(#paint1_linear_2430_728)" stroke="black" stroke-width="0.3"/>
<g filter="url(#filter0_dddd_2430_728)">
<path d="M18.0842 72.7987L18.0842 29.1783C18.0842 28.9977 18.1172 28.8187 18.1811 28.6518C18.245 28.4849 18.3387 28.3334 18.4567 28.2057C18.5748 28.078 18.7149 27.9767 18.8692 27.9075C19.0234 27.8384 19.1887 27.8027 19.3556 27.8027L82.1004 27.8027C82.5822 27.8027 83.0441 28.0099 83.3847 28.3784C83.7254 28.7469 83.9169 29.2465 83.9169 29.7676L83.9169 72.5236C83.9169 72.9666 83.7541 73.3915 83.4645 73.7047C83.175 74.0179 82.7822 74.1937 82.3727 74.1937L19.3556 74.1937C19.1857 74.1993 19.0165 74.1669 18.8587 74.0985C18.7009 74.0301 18.5579 73.9272 18.4385 73.7963C18.3192 73.6653 18.2261 73.5091 18.1651 73.3374C18.1042 73.1658 18.0766 72.9824 18.0842 72.7987Z" fill="#282828"/>
<path d="M83.7665 29.7676L83.7665 72.5234C83.7665 72.9301 83.6172 73.3182 83.3544 73.6025C83.0919 73.8864 82.7386 74.0439 82.3729 74.0439L19.3505 74.0439C19.2032 74.0488 19.0563 74.0205 18.9188 73.9609C18.7811 73.9013 18.6552 73.811 18.5497 73.6953C18.4442 73.5795 18.361 73.4405 18.3065 73.2871C18.2656 73.1719 18.2418 73.0507 18.2352 72.9277L18.2343 72.8047L18.2343 29.1787C18.2343 29.0163 18.2639 28.8547 18.3212 28.7051C18.3784 28.5557 18.4626 28.4209 18.5673 28.3076C18.672 28.1944 18.7954 28.1055 18.9305 28.0449C19.0658 27.9843 19.21 27.9532 19.3553 27.9531L82.1005 27.9531L82.2635 27.9619C82.6422 28.0025 82.9998 28.1836 83.2743 28.4805C83.5883 28.8201 83.7665 29.2827 83.7665 29.7676Z" stroke="black" stroke-width="0.3"/>
</g>
<path d="M42.0785 40.3701C47.7289 40.3701 52.3096 44.9507 52.3096 50.6012C52.3096 56.134 47.9178 60.641 42.4302 60.8264L42.0785 60.8324H33.3151C27.6646 60.8324 23.084 56.2517 23.084 50.6012C23.084 45.0685 27.4757 40.5614 32.9634 40.376L33.3151 40.3701H42.0785ZM42.0785 42.5625H33.3151C28.8754 42.5625 25.2764 46.1616 25.2764 50.6012C25.2764 54.9326 28.702 58.4639 32.9918 58.6336L33.3151 58.64H42.0785C46.5181 58.64 50.1172 55.0409 50.1172 50.6012C50.1172 46.2699 46.6915 42.7386 42.4018 42.5689L42.0785 42.5625ZM31.8504 46.2165C32.4558 46.2165 32.9466 46.7073 32.9466 47.3127L32.9453 49.5021L35.139 49.5032C35.7444 49.5032 36.2352 49.994 36.2352 50.5994C36.2352 51.2048 35.7444 51.6956 35.139 51.6956L32.9453 51.6945L32.9466 53.8898C32.9466 54.4952 32.4558 54.986 31.8504 54.986C31.245 54.986 30.7542 54.4952 30.7542 53.8898L30.7529 51.6945L28.5618 51.6956C27.9564 51.6956 27.4657 51.2048 27.4657 50.5994C27.4657 49.994 27.9564 49.5032 28.5618 49.5032L30.7529 49.5021L30.7542 47.3127C30.7542 46.7073 31.245 46.2165 31.8504 46.2165ZM41.7161 51.332C42.7252 51.332 43.5431 52.15 43.5431 53.159C43.5431 54.168 42.7252 54.986 41.7161 54.986C40.7071 54.986 39.8892 54.168 39.8892 53.159C39.8892 52.15 40.7071 51.332 41.7161 51.332ZM44.6393 46.2165C45.6483 46.2165 46.4663 47.0344 46.4663 48.0435C46.4663 49.0525 45.6483 49.8704 44.6393 49.8704C43.6303 49.8704 42.8123 49.0525 42.8123 48.0435C42.8123 47.0344 43.6303 46.2165 44.6393 46.2165Z" fill="url(#paint2_linear_2430_728)"/>
<path d="M58.3301 53.5752H57.7947C57.7107 53.5752 57.6277 53.5917 57.5502 53.6239C57.4726 53.656 57.4019 53.7031 57.3426 53.7625C57.2832 53.8218 57.2363 53.8923 57.2042 53.9699C57.172 54.0474 57.1555 54.1306 57.1555 54.2145C57.1555 54.2985 57.172 54.3816 57.2042 54.4592C57.2363 54.5368 57.2832 54.6072 57.3426 54.6666C57.4019 54.726 57.4726 54.7731 57.5502 54.8052C57.6277 54.8373 57.7107 54.8539 57.7947 54.8539H58.3301C58.4997 54.8539 58.6623 54.7865 58.7822 54.6666C58.9021 54.5467 58.9695 54.3841 58.9695 54.2145C58.9695 54.045 58.9021 53.8824 58.7822 53.7625C58.6623 53.6426 58.4997 53.5752 58.3301 53.5752Z" fill="#E0C7FF"/>
<path d="M60.616 53.5752H60.0806C59.9966 53.5752 59.9136 53.5917 59.8361 53.6239C59.7585 53.656 59.6878 53.7031 59.6285 53.7625C59.5691 53.8218 59.5222 53.8923 59.4901 53.9699C59.4579 54.0474 59.4414 54.1306 59.4414 54.2145C59.4414 54.2985 59.4579 54.3816 59.4901 54.4592C59.5222 54.5368 59.5691 54.6072 59.6285 54.6666C59.6878 54.726 59.7585 54.7731 59.8361 54.8052C59.9136 54.8373 59.9966 54.8539 60.0806 54.8539H60.616C60.7855 54.8539 60.9482 54.7865 61.0681 54.6666C61.188 54.5467 61.2554 54.3841 61.2554 54.2145C61.2554 54.045 61.188 53.8824 61.0681 53.7625C60.9482 53.6426 60.7855 53.5752 60.616 53.5752Z" fill="#E0C7FF"/>
<path d="M78.5312 53.5752H62.4734C62.3894 53.5752 62.3064 53.5917 62.2288 53.6239C62.1512 53.656 62.0806 53.7031 62.0212 53.7625C61.9618 53.8218 61.9149 53.8923 61.8828 53.9699C61.8507 54.0474 61.8342 54.1306 61.8342 54.2145C61.8342 54.2985 61.8507 54.3816 61.8828 54.4592C61.9149 54.5368 61.9618 54.6072 62.0212 54.6666C62.0806 54.726 62.1512 54.7731 62.2288 54.8052C62.3064 54.8373 62.3894 54.8539 62.4734 54.8539H78.5312C78.7008 54.8539 78.8635 54.7865 78.9834 54.6666C79.1033 54.5467 79.1707 54.3841 79.1707 54.2145C79.1707 54.045 79.1033 53.8824 78.9834 53.7625C78.8635 53.6426 78.7008 53.5752 78.5312 53.5752Z" fill="#E0C7FF"/>
<path d="M61.4176 55.9612H57.7945C57.7105 55.9612 57.6275 55.9777 57.5499 56.0099C57.4724 56.042 57.4017 56.0891 57.3423 56.1485C57.283 56.2078 57.2361 56.2783 57.2039 56.3559C57.1718 56.4334 57.1553 56.5166 57.1553 56.6005C57.1553 56.6845 57.1718 56.7676 57.2039 56.8452C57.2361 56.9228 57.283 56.9932 57.3423 57.0526C57.4017 57.112 57.4724 57.1591 57.5499 57.1912C57.6275 57.2233 57.7105 57.2399 57.7945 57.2399H61.4176C61.5019 57.2413 61.5857 57.2257 61.6639 57.1941C61.7421 57.1625 61.8132 57.1155 61.8728 57.0558C61.9325 56.9962 61.9793 56.9251 62.011 56.8469C62.0426 56.7687 62.0582 56.6849 62.0567 56.6005C62.0567 56.431 61.9893 56.2684 61.8694 56.1485C61.7495 56.0286 61.5871 55.9612 61.4176 55.9612V55.9612Z" fill="#DB58DF"/>
<path d="M68.403 58.5508H64.7799C64.696 58.5508 64.613 58.5673 64.5354 58.5995C64.4578 58.6316 64.3872 58.6787 64.3278 58.7381C64.2684 58.7974 64.2215 58.8679 64.1894 58.9455C64.1573 59.023 64.1407 59.1062 64.1407 59.1901C64.1407 59.2741 64.1573 59.3572 64.1894 59.4348C64.2215 59.5124 64.2684 59.5828 64.3278 59.6422C64.3872 59.7016 64.4578 59.7487 64.5354 59.7808C64.613 59.8129 64.696 59.8295 64.7799 59.8295H68.403C68.4874 59.8309 68.5712 59.8153 68.6494 59.7837C68.7276 59.7521 68.7986 59.7051 68.8583 59.6454C68.9179 59.5858 68.9648 59.5147 68.9964 59.4365C69.028 59.3583 69.0437 59.2745 69.0422 59.1901C69.0422 59.0206 68.9748 58.858 68.8549 58.7381C68.735 58.6182 68.5726 58.5508 68.403 58.5508V58.5508Z" fill="#B825BD"/>
<path d="M78.765 55.9653H57.7946C57.6251 55.9653 57.4624 56.0327 57.3425 56.1526C57.2226 56.2725 57.1555 56.4351 57.1555 56.6047C57.1555 56.7742 57.2226 56.9369 57.3425 57.0568C57.4624 57.1767 57.6251 57.244 57.7946 57.244H78.765C78.9346 57.244 79.0972 57.1767 79.2171 57.0568C79.337 56.9369 79.4044 56.7742 79.4044 56.6047C79.4044 56.4351 79.337 56.2725 79.2171 56.1526C79.0972 56.0327 78.9346 55.9653 78.765 55.9653Z" fill="url(#paint3_linear_2430_728)"/>
<path d="M74.5853 58.5508H57.8384C57.7544 58.5508 57.6712 58.5673 57.5936 58.5995C57.516 58.6316 57.4456 58.6787 57.3863 58.7381C57.3269 58.7974 57.2797 58.8679 57.2476 58.9455C57.2155 59.023 57.199 59.1062 57.199 59.1901C57.199 59.2741 57.2155 59.3572 57.2476 59.4348C57.2797 59.5124 57.3269 59.5828 57.3863 59.6422C57.4456 59.7016 57.516 59.7487 57.5936 59.7808C57.6712 59.8129 57.7544 59.8295 57.8384 59.8295H74.5853C74.7548 59.8295 74.9175 59.7621 75.0374 59.6422C75.1573 59.5223 75.2247 59.3597 75.2247 59.1901C75.2247 59.0206 75.1573 58.858 75.0374 58.7381C74.9175 58.6182 74.7548 58.5508 74.5853 58.5508Z" fill="url(#paint4_linear_2430_728)"/>
<path d="M68.5508 61.0316H57.7947C57.6252 61.0316 57.4625 61.099 57.3426 61.2189C57.2227 61.3388 57.1555 61.5014 57.1555 61.6709C57.1541 61.7553 57.1695 61.8391 57.2011 61.9173C57.2327 61.9955 57.2798 62.0666 57.3395 62.1263C57.3991 62.1859 57.4702 62.2329 57.5484 62.2646C57.6266 62.2962 57.7104 62.3117 57.7947 62.3103H68.5508C68.6351 62.3117 68.7189 62.2962 68.7971 62.2646C68.8753 62.2329 68.9464 62.1859 69.006 62.1263C69.0657 62.0666 69.1128 61.9955 69.1444 61.9173C69.176 61.8391 69.1916 61.7553 69.1902 61.6709C69.1902 61.5014 69.1228 61.3388 69.0029 61.2189C68.883 61.099 68.7203 61.0316 68.5508 61.0316Z" fill="url(#paint5_linear_2430_728)"/>
<path d="M58.3132 63.5054H57.7946C57.7107 63.5054 57.6277 63.5219 57.5501 63.5541C57.4725 63.5862 57.4019 63.6333 57.3425 63.6926C57.2831 63.752 57.2362 63.8225 57.2041 63.9001C57.172 63.9776 57.1555 64.0608 57.1555 64.1447C57.1555 64.2287 57.172 64.3118 57.2041 64.3894C57.2362 64.467 57.2831 64.5374 57.3425 64.5968C57.4019 64.6562 57.4725 64.7033 57.5501 64.7354C57.6277 64.7675 57.7107 64.7841 57.7946 64.7841H58.3132C58.3976 64.7855 58.4814 64.7699 58.5596 64.7383C58.6378 64.7067 58.7088 64.6597 58.7685 64.6C58.8282 64.5404 58.875 64.4693 58.9066 64.3911C58.9383 64.3129 58.9539 64.2291 58.9524 64.1447C58.9524 63.9752 58.885 63.8125 58.7651 63.6926C58.6452 63.5727 58.4828 63.5054 58.3132 63.5054Z" fill="url(#paint6_linear_2430_728)"/>
<path d="M78.5091 36.3179H57.7945C57.7105 36.3179 57.6275 36.3344 57.5499 36.3666C57.4724 36.3987 57.4017 36.4458 57.3423 36.5051C57.283 36.5645 57.2361 36.635 57.2039 36.7125C57.1718 36.7901 57.1553 36.8733 57.1553 36.9572C57.1553 37.0412 57.1718 37.1243 57.2039 37.2019C57.2361 37.2795 57.283 37.3499 57.3423 37.4093C57.4017 37.4687 57.4724 37.5158 57.5499 37.5479C57.6275 37.58 57.7105 37.5966 57.7945 37.5966H78.5091C78.6786 37.5966 78.8413 37.5292 78.9612 37.4093C79.0811 37.2894 79.1485 37.1268 79.1485 36.9572C79.1485 36.7877 79.0811 36.625 78.9612 36.5051C78.8413 36.3852 78.6786 36.3179 78.5091 36.3179V36.3179Z" fill="#E8CDFF"/>
<path d="M58.33 38.9658H57.7946C57.7107 38.9658 57.6277 38.9824 57.5501 39.0145C57.4725 39.0466 57.4019 39.0937 57.3425 39.1531C57.2831 39.2125 57.2362 39.2829 57.2041 39.3605C57.172 39.4381 57.1555 39.5212 57.1555 39.6052C57.1555 39.6891 57.172 39.7723 57.2041 39.8498C57.2362 39.9274 57.2831 39.9979 57.3425 40.0572C57.4019 40.1166 57.4725 40.1637 57.5501 40.1958C57.6277 40.228 57.7107 40.2445 57.7946 40.2445H58.33C58.4996 40.2445 58.6623 40.1771 58.7822 40.0572C58.9021 39.9373 58.9695 39.7747 58.9695 39.6052C58.9695 39.4356 58.9021 39.273 58.7822 39.1531C58.6623 39.0332 58.4996 38.9658 58.33 38.9658Z" fill="url(#paint7_linear_2430_728)"/>
<path d="M60.6162 38.9658H60.0808C59.9968 38.9658 59.9138 38.9824 59.8363 39.0145C59.7587 39.0466 59.688 39.0937 59.6287 39.1531C59.5693 39.2125 59.5224 39.2829 59.4903 39.3605C59.4581 39.4381 59.4416 39.5212 59.4416 39.6052C59.4416 39.6891 59.4581 39.7723 59.4903 39.8498C59.5224 39.9274 59.5693 39.9979 59.6287 40.0572C59.688 40.1166 59.7587 40.1637 59.8363 40.1958C59.9138 40.228 59.9968 40.2445 60.0808 40.2445H60.6162C60.7857 40.2445 60.9484 40.1771 61.0683 40.0572C61.1882 39.9373 61.2556 39.7747 61.2556 39.6052C61.2556 39.4356 61.1882 39.273 61.0683 39.1531C60.9484 39.0332 60.7857 38.9658 60.6162 38.9658Z" fill="url(#paint8_linear_2430_728)"/>
<path d="M78.5312 38.9658H62.4733C62.3894 38.9658 62.3064 38.9824 62.2288 39.0145C62.1512 39.0466 62.0806 39.0937 62.0212 39.1531C61.9618 39.2125 61.9149 39.2829 61.8828 39.3605C61.8507 39.4381 61.8342 39.5212 61.8342 39.6052C61.8342 39.6891 61.8507 39.7723 61.8828 39.8498C61.9149 39.9274 61.9618 39.9979 62.0212 40.0572C62.0806 40.1166 62.1512 40.1637 62.2288 40.1958C62.3064 40.228 62.3894 40.2445 62.4733 40.2445H78.5312C78.7008 40.2445 78.8635 40.1771 78.9834 40.0572C79.1033 39.9373 79.1707 39.7747 79.1707 39.6052C79.1707 39.4356 79.1033 39.273 78.9834 39.1531C78.8635 39.0332 78.7008 38.9658 78.5312 38.9658Z" fill="url(#paint9_linear_2430_728)"/>
<path d="M73.0168 41.4456H63.6866C63.5171 41.4456 63.3544 41.513 63.2345 41.6329C63.1146 41.7528 63.0472 41.9154 63.0472 42.0849C63.0472 42.2545 63.1146 42.4171 63.2345 42.537C63.3544 42.6569 63.5171 42.7243 63.6866 42.7243H73.0061C73.0905 42.7257 73.1743 42.7102 73.2525 42.6785C73.3307 42.6469 73.402 42.5999 73.4617 42.5402C73.5213 42.4806 73.5682 42.4095 73.5998 42.3313C73.6314 42.2531 73.647 42.1693 73.6456 42.0849C73.6456 41.9172 73.5798 41.7562 73.4622 41.6366C73.3446 41.517 73.1845 41.4484 73.0168 41.4456Z" fill="url(#paint10_linear_2430_728)"/>
<path d="M61.4177 41.4456H57.7946C57.7107 41.4456 57.6277 41.4621 57.5501 41.4943C57.4725 41.5264 57.4019 41.5735 57.3425 41.6329C57.2831 41.6922 57.2362 41.7627 57.2041 41.8403C57.172 41.9178 57.1555 42.001 57.1555 42.0849C57.1555 42.1689 57.172 42.252 57.2041 42.3296C57.2362 42.4072 57.2831 42.4776 57.3425 42.537C57.4019 42.5964 57.4725 42.6435 57.5501 42.6756C57.6277 42.7077 57.7107 42.7243 57.7946 42.7243H61.4177C61.5021 42.7257 61.5859 42.7102 61.6641 42.6785C61.7423 42.6469 61.8133 42.5999 61.873 42.5402C61.9327 42.4806 61.9795 42.4095 62.0111 42.3313C62.0428 42.2531 62.0584 42.1693 62.0569 42.0849C62.0569 41.9154 61.9895 41.7528 61.8696 41.6329C61.7497 41.513 61.5873 41.4456 61.4177 41.4456Z" fill="url(#paint11_linear_2430_728)"/>
<path d="M71.338 44.0482H57.7946C57.7107 44.0482 57.6277 44.0648 57.5501 44.0969C57.4725 44.129 57.4019 44.1761 57.3425 44.2355C57.2831 44.2948 57.2362 44.3653 57.2041 44.4429C57.172 44.5204 57.1555 44.6036 57.1555 44.6876C57.1555 44.7715 57.172 44.8547 57.2041 44.9322C57.2362 45.0098 57.2831 45.0803 57.3425 45.1396C57.4019 45.199 57.4725 45.2461 57.5501 45.2782C57.6277 45.3103 57.7107 45.3269 57.7946 45.3269H71.338C71.4224 45.3283 71.5061 45.3128 71.5844 45.2811C71.6626 45.2495 71.7336 45.2025 71.7933 45.1428C71.8529 45.0832 71.9 45.0121 71.9317 44.9339C71.9633 44.8557 71.9789 44.7719 71.9774 44.6876C71.9774 44.518 71.91 44.3554 71.7901 44.2355C71.6702 44.1156 71.5076 44.0482 71.338 44.0482Z" fill="url(#paint12_linear_2430_728)"/>
<path d="M77.4012 44.0482H73.7781C73.6942 44.0482 73.6112 44.0648 73.5336 44.0969C73.456 44.129 73.3854 44.1761 73.326 44.2355C73.2666 44.2948 73.2197 44.3653 73.1876 44.4429C73.1555 44.5204 73.1389 44.6036 73.1389 44.6876C73.1389 44.7715 73.1555 44.8547 73.1876 44.9322C73.2197 45.0098 73.2666 45.0803 73.326 45.1396C73.3854 45.199 73.456 45.2461 73.5336 45.2782C73.6112 45.3103 73.6942 45.3269 73.7781 45.3269H77.4012C77.4856 45.3283 77.5694 45.3128 77.6476 45.2811C77.7258 45.2495 77.7968 45.2025 77.8565 45.1428C77.9161 45.0832 77.963 45.0121 77.9946 44.9339C78.0262 44.8557 78.0418 44.7719 78.0404 44.6876C78.0404 44.518 77.973 44.3554 77.8531 44.2355C77.7332 44.1156 77.5708 44.0482 77.4012 44.0482Z" fill="url(#paint13_linear_2430_728)"/>
<path d="M58.3132 46.355H57.7946C57.7107 46.355 57.6277 46.3715 57.5501 46.4036C57.4725 46.4358 57.4019 46.4829 57.3425 46.5422C57.2831 46.6016 57.2362 46.6721 57.2041 46.7496C57.172 46.8272 57.1555 46.9104 57.1555 46.9943C57.1555 47.0783 57.172 47.1614 57.2041 47.239C57.2362 47.3165 57.2831 47.387 57.3425 47.4464C57.4019 47.5058 57.4725 47.5529 57.5501 47.585C57.6277 47.6171 57.7107 47.6337 57.7946 47.6337H58.3132C58.3976 47.6351 58.4814 47.6195 58.5596 47.5879C58.6378 47.5563 58.7088 47.5093 58.7685 47.4496C58.8282 47.3899 58.875 47.3189 58.9066 47.2407C58.9383 47.1625 58.9539 47.0787 58.9524 46.9943C58.9524 46.8247 58.885 46.6621 58.7651 46.5422C58.6452 46.4223 58.4828 46.355 58.3132 46.355Z" fill="url(#paint14_linear_2430_728)"/>
<path d="M61.4078 55.9648H57.7847C57.7007 55.9648 57.6177 55.9814 57.5402 56.0135C57.4626 56.0457 57.3919 56.0928 57.3326 56.1521C57.2732 56.2115 57.2263 56.282 57.1942 56.3595C57.162 56.4371 57.1455 56.5202 57.1455 56.6042C57.1455 56.6882 57.162 56.7713 57.1942 56.8489C57.2263 56.9264 57.2732 56.9969 57.3326 57.0563C57.3919 57.1156 57.4626 57.1627 57.5402 57.1949C57.6177 57.227 57.7007 57.2435 57.7847 57.2435H61.4078C61.4921 57.245 61.5759 57.2294 61.6542 57.1978C61.7324 57.1662 61.8034 57.1191 61.8631 57.0595C61.9227 56.9998 61.9696 56.9288 62.0012 56.8506C62.0328 56.7723 62.0484 56.6885 62.047 56.6042C62.047 56.4346 61.9796 56.272 61.8597 56.1521C61.7398 56.0322 61.5774 55.9648 61.4078 55.9648V55.9648Z" fill="#843386"/>
<path d="M75.6441 38.9634H72.021C71.9371 38.9634 71.8541 38.9799 71.7765 39.0121C71.6989 39.0442 71.6283 39.0913 71.5689 39.1507C71.5095 39.21 71.4626 39.2805 71.4305 39.3581C71.3984 39.4356 71.3818 39.5188 71.3818 39.6027C71.3818 39.6867 71.3984 39.7698 71.4305 39.8474C71.4626 39.925 71.5095 39.9954 71.5689 40.0548C71.6283 40.1142 71.6989 40.1613 71.7765 40.1934C71.8541 40.2255 71.9371 40.2421 72.021 40.2421H75.6441C75.7285 40.2435 75.8123 40.2279 75.8905 40.1963C75.9687 40.1647 76.0397 40.1177 76.0994 40.058C76.159 39.9984 76.2059 39.9273 76.2375 39.8491C76.2691 39.7709 76.2847 39.6871 76.2833 39.6027C76.2833 39.4332 76.2159 39.2706 76.096 39.1507C75.9761 39.0308 75.8137 38.9634 75.6441 38.9634V38.9634Z" fill="#974691"/>
<path d="M68.3931 58.5547H64.77C64.6861 58.5547 64.6031 58.5712 64.5255 58.6034C64.4479 58.6355 64.3773 58.6826 64.3179 58.742C64.2585 58.8013 64.2116 58.8718 64.1795 58.9494C64.1474 59.0269 64.1309 59.1101 64.1309 59.194C64.1309 59.278 64.1474 59.3611 64.1795 59.4387C64.2116 59.5163 64.2585 59.5867 64.3179 59.6461C64.3773 59.7055 64.4479 59.7526 64.5255 59.7847C64.6031 59.8168 64.6861 59.8334 64.77 59.8334H68.3931C68.4775 59.8348 68.5613 59.8193 68.6395 59.7876C68.7177 59.756 68.7887 59.709 68.8484 59.6493C68.9081 59.5897 68.9549 59.5186 68.9865 59.4404C69.0182 59.3622 69.0338 59.2784 69.0323 59.194C69.0323 59.0245 68.9649 58.8619 68.845 58.742C68.7251 58.6221 68.5627 58.5547 68.3931 58.5547V58.5547Z" fill="#7C2B81"/>
<defs>
<filter id="filter0_dddd_2430_728" x="15.083" y="27.8027" width="71.8339" height="57.3916" filterUnits="userSpaceOnUse" color-interpolation-filters="sRGB">
<feFlood flood-opacity="0" result="BackgroundImageFix"/>
<feColorMatrix in="SourceAlpha" type="matrix" values="0 0 0 0 0 0 0 0 0 0 0 0 0 0 0 0 0 0 127 0" result="hardAlpha"/>
<feOffset dy="1"/>
<feGaussianBlur stdDeviation="0.5"/>
<feColorMatrix type="matrix" values="0 0 0 0 0 0 0 0 0 0 0 0 0 0 0 0 0 0 0.1 0"/>
<feBlend mode="normal" in2="BackgroundImageFix" result="effect1_dropShadow_2430_728"/>
<feColorMatrix in="SourceAlpha" type="matrix" values="0 0 0 0 0 0 0 0 0 0 0 0 0 0 0 0 0 0 127 0" result="hardAlpha"/>
<feOffset dy="2"/>
<feGaussianBlur stdDeviation="1"/>
<feColorMatrix type="matrix" values="0 0 0 0 0 0 0 0 0 0 0 0 0 0 0 0 0 0 0.09 0"/>
<feBlend mode="normal" in2="effect1_dropShadow_2430_728" result="effect2_dropShadow_2430_728"/>
<feColorMatrix in="SourceAlpha" type="matrix" values="0 0 0 0 0 0 0 0 0 0 0 0 0 0 0 0 0 0 127 0" result="hardAlpha"/>
<feOffset dy="5"/>
<feGaussianBlur stdDeviation="1.5"/>
<feColorMatrix type="matrix" values="0 0 0 0 0 0 0 0 0 0 0 0 0 0 0 0 0 0 0.05 0"/>
<feBlend mode="normal" in2="effect2_dropShadow_2430_728" result="effect3_dropShadow_2430_728"/>
<feColorMatrix in="SourceAlpha" type="matrix" values="0 0 0 0 0 0 0 0 0 0 0 0 0 0 0 0 0 0 127 0" result="hardAlpha"/>
<feOffset dy="8"/>
<feGaussianBlur stdDeviation="1.5"/>
<feColorMatrix type="matrix" values="0 0 0 0 0 0 0 0 0 0 0 0 0 0 0 0 0 0 0.01 0"/>
<feBlend mode="normal" in2="effect3_dropShadow_2430_728" result="effect4_dropShadow_2430_728"/>
<feBlend mode="normal" in="SourceGraphic" in2="effect4_dropShadow_2430_728" result="shape"/>
</filter>
<linearGradient id="paint0_linear_2430_728" x1="21.6638" y1="11.9602" x2="101.015" y2="123.86" gradientUnits="userSpaceOnUse">
<stop offset="0.00520833" stop-color="white"/>
<stop offset="0.604167" stop-color="#FEDEFB"/>
<stop offset="0.963257" stop-color="#E8B2EA"/>
</linearGradient>
<linearGradient id="paint1_linear_2430_728" x1="50.7831" y1="2.52919" x2="57.4807" y2="111.699" gradientUnits="userSpaceOnUse">
<stop stop-color="#9A4993"/>
<stop offset="0.7065" stop-color="#813084"/>
<stop offset="0.963542" stop-color="#6A1577"/>
</linearGradient>
<linearGradient id="paint2_linear_2430_728" x1="28.4482" y1="41.9839" x2="43.2335" y2="71.7634" gradientUnits="userSpaceOnUse">
<stop offset="0.00520833" stop-color="white"/>
<stop offset="0.604167" stop-color="#FEDEFB"/>
<stop offset="0.963257" stop-color="#E8B2EA"/>
</linearGradient>
<linearGradient id="paint3_linear_2430_728" x1="58.9072" y1="49.6727" x2="60.6986" y2="69.1638" gradientUnits="userSpaceOnUse">
<stop stop-color="#FEDEFB"/>
<stop offset="1" stop-color="#A140A4"/>
</linearGradient>
<linearGradient id="paint4_linear_2430_728" x1="58.9072" y1="49.6727" x2="60.6986" y2="69.1638" gradientUnits="userSpaceOnUse">
<stop stop-color="#FEDEFB"/>
<stop offset="1" stop-color="#A140A4"/>
</linearGradient>
<linearGradient id="paint5_linear_2430_728" x1="58.9072" y1="49.6727" x2="60.6986" y2="69.1638" gradientUnits="userSpaceOnUse">
<stop stop-color="#FEDEFB"/>
<stop offset="1" stop-color="#A140A4"/>
</linearGradient>
<linearGradient id="paint6_linear_2430_728" x1="58.9072" y1="49.6727" x2="60.6986" y2="69.1638" gradientUnits="userSpaceOnUse">
<stop stop-color="#FEDEFB"/>
<stop offset="1" stop-color="#A140A4"/>
</linearGradient>
<linearGradient id="paint7_linear_2430_728" x1="58.8888" y1="32.7808" x2="60.638" y2="51.9406" gradientUnits="userSpaceOnUse">
<stop stop-color="#FEDEFB"/>
<stop offset="1" stop-color="#A140A4"/>
</linearGradient>
<linearGradient id="paint8_linear_2430_728" x1="58.8888" y1="32.7808" x2="60.638" y2="51.9406" gradientUnits="userSpaceOnUse">
<stop stop-color="#FEDEFB"/>
<stop offset="1" stop-color="#A140A4"/>
</linearGradient>
<linearGradient id="paint9_linear_2430_728" x1="58.8888" y1="32.7808" x2="60.638" y2="51.9406" gradientUnits="userSpaceOnUse">
<stop stop-color="#FEDEFB"/>
<stop offset="1" stop-color="#A140A4"/>
</linearGradient>
<linearGradient id="paint10_linear_2430_728" x1="58.8888" y1="32.7808" x2="60.638" y2="51.9406" gradientUnits="userSpaceOnUse">
<stop stop-color="#FEDEFB"/>
<stop offset="1" stop-color="#A140A4"/>
</linearGradient>
<linearGradient id="paint11_linear_2430_728" x1="58.8888" y1="32.7808" x2="60.638" y2="51.9406" gradientUnits="userSpaceOnUse">
<stop stop-color="#FEDEFB"/>
<stop offset="1" stop-color="#A140A4"/>
</linearGradient>
<linearGradient id="paint12_linear_2430_728" x1="58.8888" y1="32.7808" x2="60.638" y2="51.9406" gradientUnits="userSpaceOnUse">
<stop stop-color="#FEDEFB"/>
<stop offset="1" stop-color="#A140A4"/>
</linearGradient>
<linearGradient id="paint13_linear_2430_728" x1="58.8888" y1="32.7808" x2="60.638" y2="51.9406" gradientUnits="userSpaceOnUse">
<stop stop-color="#FEDEFB"/>
<stop offset="1" stop-color="#A140A4"/>
</linearGradient>
<linearGradient id="paint14_linear_2430_728" x1="58.8888" y1="32.7808" x2="60.638" y2="51.9406" gradientUnits="userSpaceOnUse">
<stop stop-color="#FEDEFB"/>
<stop offset="1" stop-color="#A140A4"/>
</linearGradient>
</defs>
</svg>
