<svg width="103" height="102" viewBox="0 0 103 102" fill="none" xmlns="http://www.w3.org/2000/svg">
<g clip-path="url(#clip0_1729_10064)">
<path d="M50.5892 96.8511C24.9927 96.8511 4.23816 76.1065 4.23816 50.5C4.23816 24.8935 24.9927 4.14893 50.5892 4.14893C76.1858 4.14893 96.9403 24.9034 96.9403 50.5C96.9403 76.0966 76.1858 96.8511 50.5892 96.8511Z" fill="url(#paint0_linear_1729_10064)"/>
<path fill-rule="evenodd" clip-rule="evenodd" d="M96.0395 50.5003C96.0395 75.6017 75.691 95.9502 50.5895 95.9502C25.488 95.9502 5.13949 75.6017 5.13949 50.5003C5.13949 25.3988 25.488 5.05026 50.5895 5.05026C75.691 5.05026 96.0395 25.3988 96.0395 50.5003ZM50.5895 1.34692C77.7407 1.34692 99.7428 23.3491 99.7428 50.5003C99.7428 77.6514 77.7308 99.6536 50.5895 99.6536C23.4383 99.6536 1.43616 77.6415 1.43616 50.5003C1.43616 23.3491 23.4383 1.34692 50.5895 1.34692Z" fill="#F2F1F0"/>
<path opacity="0.09" d="M82.5595 86.2015C76.4013 90.2139 69.4494 92.8492 62.1789 93.9272C54.9084 95.0053 47.4909 94.5007 40.4334 92.4479C33.3759 90.3952 26.8449 86.8426 21.2869 82.0332C15.7289 77.2238 11.2749 71.2709 8.22952 64.5815C7.72952 63.5015 7.2795 62.3915 6.8595 61.2615C6.4395 60.1315 6.07951 59.0715 5.74951 57.9515C6.74951 57.8015 7.67951 57.6715 8.64951 57.5615L9.64951 57.4615H9.71951L10.7195 57.3716C11.3395 57.3116 11.9695 57.2616 12.5995 57.2216C24.5547 56.4258 36.5438 58.151 47.7896 62.2855C59.0353 66.4199 69.2868 72.8714 77.8795 81.2216C78.3795 81.7216 78.8795 82.2216 79.4095 82.7216L79.9595 83.2916C80.1795 83.5316 80.4095 83.7615 80.6195 84.0015C80.9995 84.4115 81.3795 84.8116 81.7495 85.2316L82.5595 86.2015Z" fill="white"/>
<path opacity="0.09" d="M69.4389 94.5717C58.2156 99.1335 45.7367 99.5594 34.2285 95.7734C22.7204 91.9874 12.9316 84.2359 6.60889 73.9017C6.79889 73.9017 6.98888 73.9017 7.16888 73.9017H7.66888C8.26888 73.9017 8.86891 73.8218 9.47891 73.8018H10.0589H11.0089C11.8189 73.8018 12.6389 73.8018 13.4589 73.8018H14.0589C31.8259 73.9263 49.1182 79.5506 63.5589 89.9017C64.3089 90.4417 65.0389 91.0017 65.7589 91.5617L66.0289 91.7717L67.1889 92.6917L67.3689 92.8317L67.4389 92.8917C68.0589 93.3917 68.6689 93.8918 69.2789 94.4318L69.4389 94.5717Z" fill="white"/>
<path opacity="0.09" d="M34.4028 10.3043C39.8178 7.65249 45.4706 6.81749 51.4981 6.66603C57.5257 6.51456 64.6134 8.17781 70.1548 10.5543C75.6961 12.9307 80.6589 16.4758 84.704 20.947C88.749 25.4182 91.7809 30.7101 93.5922 36.461C93.8915 37.3903 94.147 38.3391 94.3761 39.3011C94.6052 40.2631 94.7924 41.1622 94.9492 42.1071C94.12 42.1293 93.3498 42.1423 92.549 42.1349L91.7248 42.1165L91.6678 42.1095L90.8446 42.0828C90.3337 42.0697 89.8158 42.0475 89.2988 42.0172C79.485 41.4708 69.8956 38.8684 61.152 34.3785C52.4084 29.8887 44.7059 23.6116 38.5436 15.9543C38.1864 15.4972 37.8293 15.0401 37.4477 14.5801L37.0568 14.061C36.9017 13.8436 36.7373 13.6334 36.5903 13.417C36.3219 13.0452 36.0524 12.6815 35.7931 12.3026L34.4028 10.3043Z" fill="white"/>
<path opacity="0.09" d="M46.7489 5.92768C56.343 3.33455 64.6852 7.51866 73.6773 11.751C81.1305 17.3179 83.4098 21.263 89.766 28.3716C75.3121 26.4953 61.7941 20.1883 51.0701 10.3175C50.5134 9.80292 49.9749 9.27405 49.4446 8.74615L49.2457 8.54818L48.3931 7.68321L48.2606 7.55123L48.2096 7.49538C47.7547 7.02633 47.308 6.55825 46.8652 6.05762L46.7489 5.92768Z" fill="white"/>
<path d="M91.6999 73.9216H10.6499V74.5201H91.3799L91.6999 73.9216Z" fill="white" fill-opacity="0.5"/>
<path d="M95.9598 66.7315C95.9874 66.6733 96.0108 66.6131 96.0298 66.5515H6.81982C6.81982 66.7115 6.93982 66.8815 6.96982 67.0515H95.7898L95.9598 66.7315Z" fill="white" fill-opacity="0.5"/>
<path d="M97.2593 62.6316H4.25928C4.25928 62.7781 4.34925 62.9159 4.38925 63.0624H97.1493C97.1732 62.9166 97.2099 62.7726 97.2593 62.6316Z" fill="white" fill-opacity="0.5"/>
<path d="M96.0483 60.2017H4.04834L4.62836 60.554H95.8983L96.0483 60.2017Z" fill="white" fill-opacity="0.5"/>
<path d="M95.3385 67.8316L95.5185 67.5116L71.8485 58.1516H70.9585L95.2885 67.9316C95.3014 67.8965 95.3181 67.863 95.3385 67.8316Z" fill="white" fill-opacity="0.5"/>
<path d="M87.8291 78.9816L61.7191 58.1016H61.0991L87.4691 79.3416L87.8291 78.9816Z" fill="white" fill-opacity="0.5"/>
<path d="M51.6694 58.1072H51.1694V96.0115H51.6694V58.1072Z" fill="white" fill-opacity="0.5"/>
<path d="M15.1997 79.5215L41.7997 58.1116H41.0597L14.9097 79.1116C15.0197 79.2016 15.0997 79.3915 15.1997 79.5215Z" fill="white" fill-opacity="0.5"/>
<path d="M7.24905 68.0814L32.2641 58.0202L31.2214 57.9478L7.01904 67.6614L7.24905 68.0814Z" fill="white" fill-opacity="0.5"/>
<path d="M77.7984 58.0637L97.2483 63.1815L97.3883 62.6915L79.1083 58.0115H79.0783L77.7984 58.0637Z" fill="white" fill-opacity="0.5"/>
<path d="M7.98982 62.0175L23.0234 58.0347L21.5675 58.0115L7.81982 61.5675L7.98982 62.0175Z" fill="white" fill-opacity="0.5"/>
<path d="M97.659 57.8416H97.629H3.51904L3.55904 58.1273L97.559 58.1393L97.659 57.8416Z" fill="white" fill-opacity="0.5"/>
<path fill-rule="evenodd" clip-rule="evenodd" d="M93.2567 50.4998C93.2567 74.0665 74.1558 93.1673 50.5891 93.1673C27.0225 93.1673 7.92159 74.0665 7.92159 50.4998C7.92159 26.9331 27.0225 7.83224 50.5891 7.83224C74.1558 7.83224 93.2567 26.9331 93.2567 50.4998ZM50.5891 4.12891C76.1956 4.12891 96.96 24.8933 96.96 50.4998C96.96 76.1063 76.1956 96.8707 50.5891 96.8707C24.9827 96.8707 4.21826 76.1063 4.21826 50.4998C4.21826 24.8933 24.9728 4.12891 50.5891 4.12891Z" fill="url(#paint1_linear_1729_10064)"/>
<path fill-rule="evenodd" clip-rule="evenodd" d="M93.2567 50.4998C93.2567 74.0665 74.1558 93.1673 50.5891 93.1673C27.0225 93.1673 7.92159 74.0665 7.92159 50.4998C7.92159 26.9331 27.0225 7.83224 50.5891 7.83224C74.1558 7.83224 93.2567 26.9331 93.2567 50.4998ZM50.5891 4.12891C76.1956 4.12891 96.96 24.8933 96.96 50.4998C96.96 76.1063 76.1956 96.8707 50.5891 96.8707C24.9827 96.8707 4.21826 76.1063 4.21826 50.4998C4.21826 24.8933 24.9728 4.12891 50.5891 4.12891Z" fill="url(#paint2_linear_1729_10064)" stroke="black" stroke-width="0.3"/>
<g filter="url(#filter0_ddddd_1729_10064)">
<path d="M85.4461 31.2429V58.0166L62.4249 71.538V44.7485L85.4461 31.2429Z" fill="#32B0E7"/>
<path d="M85.4451 31.243L62.2655 44.7486L39.1968 31.243L62.2655 17.8325L85.4451 31.243Z" fill="#45CAF2"/>
<path d="M62.3588 44.7485V71.538L39.2427 58.0166V31.2429L62.3588 44.7485Z" fill="#0078D4"/>
<path d="M39.2928 57.9217L62.3616 44.5586V71.3322L39.2928 57.9217Z" fill="#185A97"/>
<path d="M85.4463 57.9216L62.3776 44.606V71.3796L85.4463 57.9216Z" fill="#156AB3"/>
<path d="M85.3819 31.2431L62.2657 17.8325L39.2445 31.2748V58.0167L62.3607 71.5381L85.3977 58.0167L85.3819 31.2431Z" stroke="black" stroke-width="0.3" stroke-linejoin="round"/>
<path d="M85.3819 31.2432L62.2499 44.6537L39.2445 58.0168" stroke="black" stroke-width="0.3" stroke-linejoin="round"/>
<path d="M85.3977 58.0166L62.2499 44.6536L39.2445 31.2747" stroke="black" stroke-width="0.3" stroke-linejoin="round"/>
<path d="M62.2345 44.6536C62.0445 44.8436 62.2345 71.5697 62.2345 71.5697" stroke="black" stroke-width="0.3" stroke-linejoin="round"/>
</g>
<g filter="url(#filter1_ddddd_1729_10064)">
<path d="M15.9826 54.0278C23.7357 56.7357 32.1605 56.8407 39.9787 54.3268C43.7195 53.1315 47.2492 51.3554 50.4383 49.0637C49.2018 48.6203 47.9272 48.2911 46.6306 48.0803C45.2174 47.8366 43.7687 47.6483 42.2846 47.5154C40.8027 47.3825 39.3407 47.3028 37.8921 47.2562C36.4434 47.2097 35.1476 47.1964 33.9647 47.1964H31.4993C30.5756 47.1964 29.5722 47.2496 28.5754 47.2961C27.5786 47.3426 26.5087 47.4157 25.4388 47.5088C24.3689 47.6018 23.3256 47.7148 22.3155 47.8676C21.3054 48.0204 20.322 48.1999 19.4581 48.4192C18.6471 48.612 17.8535 48.872 17.0857 49.1967C16.7971 49.323 16.5355 49.5034 16.3148 49.7283C16.2054 49.8383 16.1195 49.9694 16.0623 50.1137C16.0032 50.2591 15.976 50.4154 15.9826 50.5722V54.0278ZM51.9468 51.1637C50.2433 52.3909 48.4457 53.4818 46.5708 54.4265C42.831 56.3181 38.8206 57.6183 34.6824 58.2807C30.5339 58.9521 26.3045 58.9521 22.156 58.2807C20.0843 57.9477 18.0406 57.459 16.0424 56.8188L13.3843 55.8087V50.6719C13.3975 49.6759 13.7951 48.7235 14.494 48.0138C14.9526 47.549 15.4963 47.1767 16.0955 46.9173C16.9047 46.566 17.743 46.2859 18.6008 46.08C19.5912 45.8314 20.5938 45.6339 21.6045 45.4886C22.6877 45.3291 23.7642 45.1962 24.8872 45.0832C26.0103 44.9703 27.1201 44.8972 28.2099 44.8507C29.2997 44.8041 30.3164 44.7576 31.3066 44.7311C32.2967 44.7045 33.1739 44.7311 33.9647 44.7311H36.6228C37.6063 44.7311 38.6164 44.7909 39.7195 44.8507C40.8226 44.9105 41.8925 44.9836 43.0421 45.0832C44.1918 45.1829 45.2617 45.3291 46.3249 45.4886C47.3882 45.6481 48.3849 45.8408 49.3418 46.08C50.1953 46.2859 51.0292 46.5661 51.8338 46.9173C52.4367 47.1844 52.9878 47.5556 53.4619 48.0138C53.8148 48.3614 54.089 48.7806 54.266 49.2432C54.3124 49.3702 54.3458 49.5015 54.3657 49.6352L51.9468 51.1637Z" fill="white"/>
<path d="M16.0294 56.7989C22.0249 58.7721 28.4089 59.2646 34.6361 58.2343C36.8265 57.8851 38.9861 57.3653 41.0953 56.6793C43.1088 55.9893 45.0642 55.1405 46.9432 54.1408C48.8035 53.1585 50.5814 52.0273 52.2594 50.7583L54.2928 49.2366C54.4785 49.6969 54.5732 50.1889 54.572 50.6852V55.8221C54.5785 57.4208 54.2573 59.0039 53.6283 60.4738C52.4023 63.3522 50.1086 65.6435 47.2289 66.8665C45.7588 67.4944 44.1759 67.8155 42.5772 67.8101H40.9624C40.4876 67.8112 40.0174 67.7163 39.5802 67.531C39.1563 67.3496 38.7512 67.127 38.3708 66.8665C37.9855 66.5922 37.6171 66.2948 37.2677 65.976C36.9341 65.6599 36.5812 65.3647 36.2111 65.0922C35.8786 64.8277 35.5227 64.5942 35.1478 64.3944C34.7941 64.2127 34.4025 64.1171 34.0048 64.1154C33.605 64.117 33.2112 64.2126 32.8552 64.3944C32.4815 64.5927 32.1276 64.8263 31.7986 65.0922C31.4464 65.358 31.0942 65.657 30.7353 65.976C30.3859 66.2948 30.0175 66.5922 29.6322 66.8665C29.2518 67.127 28.8467 67.3496 28.4228 67.531C27.9881 67.717 27.52 67.812 27.0472 67.8101H25.4258C23.8272 67.815 22.2444 67.4939 20.7741 66.8665C17.9062 65.6489 15.6219 63.3669 14.4013 60.5003C13.7645 59.0329 13.443 57.4482 13.4576 55.8486" fill="url(#paint3_linear_1729_10064)"/>
<path d="M32.6949 52.7453C32.5255 52.7465 32.3576 52.7135 32.2012 52.6484C32.0448 52.5834 31.9031 52.4875 31.7845 52.3665C31.5436 52.1273 31.4074 51.8022 31.4058 51.4627C31.4106 51.1219 31.5462 50.796 31.7845 50.5523C31.9043 50.4334 32.0464 50.3394 32.2027 50.2756C32.3589 50.2117 32.5262 50.1793 32.6949 50.1802H35.26C35.4288 50.1793 35.5961 50.2117 35.7523 50.2756C35.9086 50.3394 36.0506 50.4334 36.1704 50.5523C36.4088 50.796 36.5443 51.1219 36.5492 51.4627C36.5475 51.8022 36.4113 52.1273 36.1704 52.3665C36.0519 52.4875 35.9101 52.5834 35.7537 52.6484C35.5973 52.7135 35.4294 52.7465 35.26 52.7453H32.6949Z" fill="white"/>
<path d="M54.3122 49.3495C54.3122 49.3495 54.2458 49.2432 54.2391 49.2232C54.0604 48.7635 53.7864 48.3468 53.4351 48.0005C52.9609 47.5423 52.4098 47.1711 51.807 46.9041C51.0023 46.5528 50.1685 46.2726 49.315 46.0667C48.3581 45.8275 47.3679 45.6348 46.298 45.4753C45.2281 45.3159 44.1516 45.1763 43.0153 45.07C41.8789 44.9636 40.7825 44.8905 39.6926 44.8374C38.6028 44.7842 37.5794 44.7178 36.5959 44.7178H33.9378C33.147 44.7178 32.2699 44.7178 31.2797 44.7178C30.2896 44.7178 29.2529 44.7842 28.183 44.8374C27.1131 44.8905 26.0034 44.9636 24.8604 45.07C23.7174 45.1763 22.6608 45.3159 21.5776 45.4753C20.5669 45.6207 19.5643 45.8181 18.574 46.0667C17.7161 46.2726 16.8779 46.5527 16.0687 46.9041C15.4695 47.1634 14.9258 47.5357 14.4672 48.0005C13.7682 48.7102 13.3706 49.6626 13.3574 50.6587V55.842C13.3428 57.4415 13.6643 59.0263 14.301 60.4936C15.5217 63.3603 17.806 65.6422 20.6739 66.8598C22.1442 67.4872 23.727 67.8083 25.3256 67.8035H27.0068C27.4796 67.8053 27.9477 67.7103 28.3824 67.5244C28.8063 67.3429 29.2114 67.1203 29.5918 66.8598C29.9771 66.5855 30.3455 66.2881 30.6949 65.9693C31.0538 65.6504 31.406 65.3513 31.7582 65.0855C32.0872 64.8196 32.441 64.586 32.8148 64.3878C33.1708 64.206 33.5646 64.1104 33.9644 64.1087C34.3621 64.1104 34.7537 64.206 35.1074 64.3878C35.4823 64.5875 35.8382 64.8211 36.1706 65.0855C36.5408 65.358 36.8937 65.6532 37.2272 65.9693C37.5767 66.2881 37.9451 66.5855 38.3304 66.8598C38.7108 67.1203 39.1159 67.3429 39.5398 67.5244C39.977 67.7096 40.4472 67.8045 40.922 67.8035H42.5501C44.1487 67.8088 45.7316 67.4877 47.2018 66.8598C50.0815 65.6368 52.3752 63.3455 53.6012 60.4671C54.2302 58.9973 54.5513 57.4141 54.5448 55.8154V50.6852C54.5613 50.2286 54.4821 49.7737 54.3122 49.3495ZM15.9823 50.5723C15.9758 50.4155 16.003 50.2591 16.062 50.1137C16.1192 49.9694 16.2051 49.8383 16.3146 49.7283C16.5352 49.5035 16.7969 49.323 17.0854 49.1967C17.8532 48.8721 18.6468 48.612 19.4578 48.4192C20.3483 48.1999 21.3052 48.0138 22.3152 47.8676C23.3253 47.7214 24.362 47.5952 25.4385 47.5088C26.5151 47.4224 27.5783 47.336 28.5751 47.2961C29.5719 47.2563 30.5687 47.1964 31.499 47.1964H33.9644C35.1473 47.1964 36.4497 47.1965 37.8918 47.2563C39.3338 47.3161 40.8024 47.3825 42.2843 47.5154C43.7662 47.6484 45.2149 47.8344 46.6303 48.0803C47.9269 48.2912 49.2015 48.6204 50.4381 49.0638C47.2489 51.3555 43.7192 53.1315 39.9784 54.3269C32.1602 56.8408 23.7354 56.7358 15.9823 54.0278V50.5723Z" stroke="black" stroke-width="0.2" stroke-linejoin="round"/>
<path d="M32.6949 52.7453H35.26C35.4294 52.7465 35.5973 52.7135 35.7537 52.6484C35.9101 52.5834 36.0519 52.4875 36.1704 52.3665C36.4113 52.1273 36.5475 51.8022 36.5492 51.4627C36.5443 51.1219 36.4088 50.796 36.1704 50.5523C36.0506 50.4334 35.9086 50.3394 35.7523 50.2756C35.5961 50.2117 35.4288 50.1793 35.26 50.1802H32.6949C32.5262 50.1793 32.3589 50.2117 32.2027 50.2756C32.0464 50.3394 31.9043 50.4334 31.7845 50.5523C31.5462 50.796 31.4106 51.1219 31.4058 51.4627C31.4074 51.8022 31.5436 52.1273 31.7845 52.3665C31.9031 52.4875 32.0448 52.5834 32.2012 52.6484C32.3576 52.7135 32.5255 52.7465 32.6949 52.7453Z" stroke="black" stroke-width="0.2" stroke-miterlimit="10"/>
<path d="M54.2516 49.2764C54.2516 49.2764 52.7565 50.4194 52.2049 50.8181C51.038 51.697 49.8222 52.509 48.5633 53.2502C46.6097 54.3878 44.5674 55.3656 42.4563 56.1742C40.3939 56.9666 38.2628 57.5673 36.0901 57.9684C33.5624 58.4715 30.9921 58.7297 28.4148 58.7392C25.2942 58.7597 22.183 58.3959 19.1513 57.656C17.2068 57.235 15.3049 56.6367 13.4696 55.8685" stroke="black" stroke-width="0.25" stroke-linejoin="round"/>
</g>
</g>
<defs>
<filter id="filter0_ddddd_1729_10064" x="34.0945" y="16.6826" width="56.4532" height="73.0054" filterUnits="userSpaceOnUse" color-interpolation-filters="sRGB">
<feFlood flood-opacity="0" result="BackgroundImageFix"/>
<feColorMatrix in="SourceAlpha" type="matrix" values="0 0 0 0 0 0 0 0 0 0 0 0 0 0 0 0 0 0 127 0" result="hardAlpha"/>
<feOffset/>
<feColorMatrix type="matrix" values="0 0 0 0 0 0 0 0 0 0 0 0 0 0 0 0 0 0 0.1 0"/>
<feBlend mode="normal" in2="BackgroundImageFix" result="effect1_dropShadow_1729_10064"/>
<feColorMatrix in="SourceAlpha" type="matrix" values="0 0 0 0 0 0 0 0 0 0 0 0 0 0 0 0 0 0 127 0" result="hardAlpha"/>
<feOffset dy="1"/>
<feGaussianBlur stdDeviation="1"/>
<feColorMatrix type="matrix" values="0 0 0 0 0 0 0 0 0 0 0 0 0 0 0 0 0 0 0.1 0"/>
<feBlend mode="normal" in2="effect1_dropShadow_1729_10064" result="effect2_dropShadow_1729_10064"/>
<feColorMatrix in="SourceAlpha" type="matrix" values="0 0 0 0 0 0 0 0 0 0 0 0 0 0 0 0 0 0 127 0" result="hardAlpha"/>
<feOffset dy="3"/>
<feGaussianBlur stdDeviation="1.5"/>
<feColorMatrix type="matrix" values="0 0 0 0 0 0 0 0 0 0 0 0 0 0 0 0 0 0 0.09 0"/>
<feBlend mode="normal" in2="effect2_dropShadow_1729_10064" result="effect3_dropShadow_1729_10064"/>
<feColorMatrix in="SourceAlpha" type="matrix" values="0 0 0 0 0 0 0 0 0 0 0 0 0 0 0 0 0 0 127 0" result="hardAlpha"/>
<feOffset dy="7"/>
<feGaussianBlur stdDeviation="2"/>
<feColorMatrix type="matrix" values="0 0 0 0 0 0 0 0 0 0 0 0 0 0 0 0 0 0 0.05 0"/>
<feBlend mode="normal" in2="effect3_dropShadow_1729_10064" result="effect4_dropShadow_1729_10064"/>
<feColorMatrix in="SourceAlpha" type="matrix" values="0 0 0 0 0 0 0 0 0 0 0 0 0 0 0 0 0 0 127 0" result="hardAlpha"/>
<feOffset dy="13"/>
<feGaussianBlur stdDeviation="2.5"/>
<feColorMatrix type="matrix" values="0 0 0 0 0 0 0 0 0 0 0 0 0 0 0 0 0 0 0.01 0"/>
<feBlend mode="normal" in2="effect4_dropShadow_1729_10064" result="effect5_dropShadow_1729_10064"/>
<feBlend mode="normal" in="SourceGraphic" in2="effect5_dropShadow_1729_10064" result="shape"/>
</filter>
<filter id="filter1_ddddd_1729_10064" x="8.25696" y="43.6177" width="51.39" height="42.2859" filterUnits="userSpaceOnUse" color-interpolation-filters="sRGB">
<feFlood flood-opacity="0" result="BackgroundImageFix"/>
<feColorMatrix in="SourceAlpha" type="matrix" values="0 0 0 0 0 0 0 0 0 0 0 0 0 0 0 0 0 0 127 0" result="hardAlpha"/>
<feOffset/>
<feColorMatrix type="matrix" values="0 0 0 0 0 0 0 0 0 0 0 0 0 0 0 0 0 0 0.17 0"/>
<feBlend mode="normal" in2="BackgroundImageFix" result="effect1_dropShadow_1729_10064"/>
<feColorMatrix in="SourceAlpha" type="matrix" values="0 0 0 0 0 0 0 0 0 0 0 0 0 0 0 0 0 0 127 0" result="hardAlpha"/>
<feOffset dy="1"/>
<feGaussianBlur stdDeviation="1"/>
<feColorMatrix type="matrix" values="0 0 0 0 0 0 0 0 0 0 0 0 0 0 0 0 0 0 0.17 0"/>
<feBlend mode="normal" in2="effect1_dropShadow_1729_10064" result="effect2_dropShadow_1729_10064"/>
<feColorMatrix in="SourceAlpha" type="matrix" values="0 0 0 0 0 0 0 0 0 0 0 0 0 0 0 0 0 0 127 0" result="hardAlpha"/>
<feOffset dy="3"/>
<feGaussianBlur stdDeviation="1.5"/>
<feColorMatrix type="matrix" values="0 0 0 0 0 0 0 0 0 0 0 0 0 0 0 0 0 0 0.14 0"/>
<feBlend mode="normal" in2="effect2_dropShadow_1729_10064" result="effect3_dropShadow_1729_10064"/>
<feColorMatrix in="SourceAlpha" type="matrix" values="0 0 0 0 0 0 0 0 0 0 0 0 0 0 0 0 0 0 127 0" result="hardAlpha"/>
<feOffset dy="7"/>
<feGaussianBlur stdDeviation="2"/>
<feColorMatrix type="matrix" values="0 0 0 0 0 0 0 0 0 0 0 0 0 0 0 0 0 0 0.09 0"/>
<feBlend mode="normal" in2="effect3_dropShadow_1729_10064" result="effect4_dropShadow_1729_10064"/>
<feColorMatrix in="SourceAlpha" type="matrix" values="0 0 0 0 0 0 0 0 0 0 0 0 0 0 0 0 0 0 127 0" result="hardAlpha"/>
<feOffset dy="13"/>
<feGaussianBlur stdDeviation="2.5"/>
<feColorMatrix type="matrix" values="0 0 0 0 0 0 0 0 0 0 0 0 0 0 0 0 0 0 0.03 0"/>
<feBlend mode="normal" in2="effect4_dropShadow_1729_10064" result="effect5_dropShadow_1729_10064"/>
<feBlend mode="normal" in="SourceGraphic" in2="effect5_dropShadow_1729_10064" result="shape"/>
</filter>
<linearGradient id="paint0_linear_1729_10064" x1="50.5892" y1="4.14893" x2="50.5892" y2="96.8511" gradientUnits="userSpaceOnUse">
<stop stop-color="#9B9BA0"/>
<stop offset="1" stop-color="#505055"/>
</linearGradient>
<linearGradient id="paint1_linear_1729_10064" x1="44.321" y1="-16.8479" x2="46.8668" y2="115.533" gradientUnits="userSpaceOnUse">
<stop stop-color="#FFB3BB"/>
<stop offset="0.211126" stop-color="#FF5C39"/>
<stop offset="0.481969" stop-color="#C73ECC"/>
<stop offset="0.9375" stop-color="#0078D4"/>
</linearGradient>
<linearGradient id="paint2_linear_1729_10064" x1="44.321" y1="-16.8479" x2="46.8668" y2="115.533" gradientUnits="userSpaceOnUse">
<stop stop-color="#FFB3BB"/>
<stop offset="0.211126" stop-color="#FF5C39"/>
<stop offset="0.481969" stop-color="#C73ECC"/>
<stop offset="0.9375" stop-color="#0078D4"/>
</linearGradient>
<linearGradient id="paint3_linear_1729_10064" x1="17.0328" y1="73.2659" x2="50.0465" y2="44.6513" gradientUnits="userSpaceOnUse">
<stop stop-color="#FFB3BB"/>
<stop offset="0.31" stop-color="#FF5C39"/>
<stop offset="0.64" stop-color="#C73ECC"/>
<stop offset="1" stop-color="#38B9FF"/>
</linearGradient>
<clipPath id="clip0_1729_10064">
<rect width="102" height="102" fill="white" transform="translate(0.0893555)"/>
</clipPath>
</defs>
</svg>
