<svg width="103" height="102" viewBox="0 0 103 102" fill="none" xmlns="http://www.w3.org/2000/svg">
<g clip-path="url(#clip0_1729_10062)">
<path d="M50.5889 96.8511C24.9923 96.8511 4.23779 76.1065 4.23779 50.5C4.23779 24.8935 24.9923 4.14893 50.5889 4.14893C76.1854 4.14893 96.9399 24.9034 96.9399 50.5C96.9399 76.0966 76.1854 96.8511 50.5889 96.8511Z" fill="url(#paint0_linear_1729_10062)"/>
<path fill-rule="evenodd" clip-rule="evenodd" d="M96.0403 50.5003C96.0403 75.6017 75.6918 95.9502 50.5903 95.9502C25.4889 95.9502 5.14034 75.6017 5.14034 50.5003C5.14034 25.3988 25.4889 5.05026 50.5903 5.05026C75.6918 5.05026 96.0403 25.3988 96.0403 50.5003ZM50.5903 1.34692C77.7415 1.34692 99.7437 23.3491 99.7437 50.5003C99.7437 77.6514 77.7316 99.6536 50.5903 99.6536C23.4392 99.6536 1.43701 77.6415 1.43701 50.5003C1.43701 23.3491 23.4392 1.34692 50.5903 1.34692Z" fill="#F2F1F0"/>
<path opacity="0.09" d="M82.5595 86.2015C76.4013 90.2139 69.4494 92.8492 62.1789 93.9272C54.9084 95.0053 47.4909 94.5007 40.4334 92.4479C33.3759 90.3952 26.8449 86.8426 21.2869 82.0332C15.7289 77.2238 11.2749 71.2709 8.22952 64.5815C7.72952 63.5015 7.2795 62.3915 6.8595 61.2615C6.4395 60.1315 6.07951 59.0715 5.74951 57.9515C6.74951 57.8015 7.67951 57.6715 8.64951 57.5615L9.64951 57.4615H9.71951L10.7195 57.3716C11.3395 57.3116 11.9695 57.2616 12.5995 57.2216C24.5547 56.4258 36.5438 58.151 47.7896 62.2855C59.0353 66.4199 69.2868 72.8714 77.8795 81.2216C78.3795 81.7216 78.8795 82.2216 79.4095 82.7216L79.9595 83.2916C80.1795 83.5316 80.4095 83.7615 80.6195 84.0015C80.9995 84.4115 81.3795 84.8116 81.7495 85.2316L82.5595 86.2015Z" fill="white"/>
<path opacity="0.09" d="M69.4389 94.5715C58.2156 99.1333 45.7367 99.5592 34.2285 95.7732C22.7204 91.9872 12.9316 84.2356 6.60889 73.9015C6.79889 73.9015 6.98888 73.9015 7.16888 73.9015H7.66888C8.26888 73.9015 8.86891 73.8215 9.47891 73.8015H10.0589H11.0089C11.8189 73.8015 12.6389 73.8015 13.4589 73.8015H14.0589C31.8259 73.926 49.1182 79.5504 63.5589 89.9015C64.3089 90.4415 65.0389 91.0015 65.7589 91.5615L66.0289 91.7715L67.1889 92.6915L67.3689 92.8315L67.4389 92.8915C68.0589 93.3915 68.6689 93.8915 69.2789 94.4315L69.4389 94.5715Z" fill="white"/>
<path d="M91.6999 73.9216H10.6499V74.5201H91.3799L91.6999 73.9216Z" fill="#F2F2F2" fill-opacity="0.5"/>
<path d="M95.9598 66.7315C95.9874 66.6733 96.0108 66.6131 96.0298 66.5515H6.81982C6.81982 66.7115 6.93982 66.8815 6.96982 67.0515H95.7898L95.9598 66.7315Z" fill="#F2F2F2" fill-opacity="0.5"/>
<path d="M97.2593 62.6316H4.25928C4.25928 62.7781 4.34925 62.9159 4.38925 63.0624H97.1493C97.1732 62.9166 97.2099 62.7726 97.2593 62.6316Z" fill="#F2F2F2" fill-opacity="0.5"/>
<path d="M96.0483 60.2017H4.04834L4.62836 60.554H95.8983L96.0483 60.2017Z" fill="#F2F2F2" fill-opacity="0.5"/>
<path d="M95.3385 67.8316L95.5185 67.5116L71.8485 58.1516H70.9585L95.2885 67.9316C95.3014 67.8965 95.3181 67.863 95.3385 67.8316Z" fill="#F2F2F2" fill-opacity="0.5"/>
<path d="M87.8291 78.9816L61.7191 58.1016H61.0991L87.4691 79.3416L87.8291 78.9816Z" fill="#F2F2F2" fill-opacity="0.5"/>
<path d="M51.6694 58.1072H51.1694V96.0115H51.6694V58.1072Z" fill="#F2F2F2" fill-opacity="0.5"/>
<path d="M15.1997 79.5215L41.7997 58.1116H41.0597L14.9097 79.1116C15.0197 79.2016 15.0997 79.3915 15.1997 79.5215Z" fill="#F2F2F2" fill-opacity="0.5"/>
<path d="M7.24905 68.0814L32.2641 58.0202L31.2214 57.9478L7.01904 67.6614L7.24905 68.0814Z" fill="#F2F2F2" fill-opacity="0.5"/>
<path d="M77.7984 58.0637L97.2483 63.1815L97.3883 62.6915L79.1083 58.0115H79.0783L77.7984 58.0637Z" fill="#F2F2F2" fill-opacity="0.5"/>
<path d="M7.98982 62.0175L23.0234 58.0347L21.5675 58.0115L7.81982 61.5675L7.98982 62.0175Z" fill="#F2F2F2" fill-opacity="0.5"/>
<path d="M97.659 57.8416H97.629H3.51904L3.55904 58.1273L97.559 58.1393L97.659 57.8416Z" fill="#F2F2F2" fill-opacity="0.5"/>
<path opacity="0.15" d="M83.2309 78.3577L74.1209 69.3077C77.9609 64.3077 80.2409 58.0577 80.2409 51.2777C80.2409 34.8977 66.9509 21.6377 50.5909 21.6377C34.2309 21.6377 20.9409 34.8977 20.9409 51.2777C20.9409 67.6577 34.2009 80.9177 50.5809 80.9177C57.1509 80.9177 63.2009 78.7877 68.1409 75.1677L77.3009 84.2777C77.3009 84.2777 79.6209 85.1877 82.0509 82.6077C84.4809 80.0377 83.2309 78.3577 83.2309 78.3577ZM25.3609 51.3877C25.3609 37.5077 36.6209 26.2477 50.5009 26.2477C64.3809 26.2477 75.6409 37.5077 75.6409 51.3877C75.6409 65.2677 64.3509 76.5277 50.4709 76.5277C36.5909 76.5277 25.3609 65.2677 25.3609 51.3877Z" fill="#1F1D20"/>
<g filter="url(#filter0_bii_1729_10062)">
<path d="M50.3013 74.7799C64.3582 74.7799 75.7535 63.3845 75.7535 49.3277C75.7535 35.2708 64.3582 23.8755 50.3013 23.8755C36.2445 23.8755 24.8491 35.2708 24.8491 49.3277C24.8491 63.3845 36.2445 74.7799 50.3013 74.7799Z" fill="white" fill-opacity="0.2"/>
</g>
<g filter="url(#filter1_ddddd_1729_10062)">
<path d="M85.1509 78.3677L74.1109 67.3277C77.9509 62.3277 80.2309 56.0777 80.2309 49.2977C80.2309 32.9177 66.9409 19.6577 50.5809 19.6577C34.2209 19.6577 20.9409 32.9177 20.9409 49.2977C20.9409 65.6777 34.2009 78.9377 50.5809 78.9377C57.1509 78.9377 63.2009 76.8077 68.1409 73.1877L79.2109 84.2877C79.2109 84.2877 80.3309 84.2977 82.7709 81.7277C85.2009 79.1477 85.1509 78.3677 85.1509 78.3677ZM25.3609 49.3977C25.3609 35.5177 36.6209 24.2577 50.5009 24.2577C64.3809 24.2577 75.6409 35.5177 75.6409 49.3977C75.6409 63.2777 64.3509 74.5377 50.4709 74.5377C36.5909 74.5377 25.3609 63.2777 25.3609 49.3977Z" fill="url(#paint1_linear_1729_10062)"/>
<path d="M73.992 67.2363L73.9118 67.3407L74.0048 67.4338L84.9935 78.4224C84.9899 78.4395 84.9846 78.4612 84.9768 78.4877C84.9474 78.5878 84.8828 78.7554 84.7414 79.0066C84.4583 79.5097 83.8721 80.3398 82.6618 81.6248C81.4494 82.9017 80.5717 83.5305 80.0042 83.8397C79.7206 83.9942 79.5151 84.0686 79.3844 84.1045C79.3341 84.1182 79.2949 84.1263 79.2665 84.131L68.2471 73.0818L68.1562 72.9906L68.0523 73.0667C63.137 76.6686 57.1178 78.7877 50.5809 78.7877C34.2838 78.7877 21.0909 65.5949 21.0909 49.2977C21.0909 33.0006 34.3037 19.8077 50.5809 19.8077C66.8582 19.8077 80.0809 33.0007 80.0809 49.2977C80.0809 56.0435 77.8126 62.2616 73.992 67.2363ZM50.5009 24.1077C36.5381 24.1077 25.2109 35.4349 25.2109 49.3977C25.2109 63.3603 36.5078 74.6877 50.4709 74.6877C64.4335 74.6877 75.7909 63.3608 75.7909 49.3977C75.7909 35.4349 64.4638 24.1077 50.5009 24.1077Z" stroke="black" stroke-width="0.3"/>
</g>
<path fill-rule="evenodd" clip-rule="evenodd" d="M93.2567 50.4998C93.2567 74.0665 74.1558 93.1673 50.5891 93.1673C27.0225 93.1673 7.92159 74.0665 7.92159 50.4998C7.92159 26.9331 27.0225 7.83224 50.5891 7.83224C74.1558 7.83224 93.2567 26.9331 93.2567 50.4998ZM50.5891 4.12891C76.1956 4.12891 96.96 24.8933 96.96 50.4998C96.96 76.1063 76.1956 96.8707 50.5891 96.8707C24.9827 96.8707 4.21826 76.1063 4.21826 50.4998C4.21826 24.8933 24.9728 4.12891 50.5891 4.12891Z" fill="url(#paint2_linear_1729_10062)" stroke="black" stroke-width="0.3"/>
<g filter="url(#filter2_ddddd_1729_10062)">
<path d="M35.3062 43.4999C42.1657 45.8958 49.6196 45.9887 56.5367 43.7645C59.8464 42.7069 62.9693 41.1355 65.7909 39.108C64.6969 38.7157 63.5692 38.4244 62.422 38.2378C61.1716 38.0222 59.8899 37.8557 58.5769 37.7381C57.2658 37.6205 55.9723 37.5499 54.6906 37.5088C53.4089 37.4676 52.2624 37.4559 51.2159 37.4559H49.0346C48.2174 37.4559 47.3296 37.5029 46.4476 37.5441C45.5657 37.5852 44.6192 37.6499 43.6726 37.7322C42.726 37.8145 41.8029 37.9144 40.9093 38.0497C40.0156 38.1849 39.1454 38.3437 38.3811 38.5377C37.6636 38.7083 36.9615 38.9384 36.2822 39.2256C36.0269 39.3373 35.7953 39.497 35.6001 39.6959C35.5033 39.7932 35.4273 39.9093 35.3767 40.0369C35.3244 40.1655 35.3004 40.3039 35.3062 40.4426V43.4999ZM67.1255 40.9659C65.6184 42.0516 64.028 43.0169 62.3691 43.8526C59.0604 45.5262 55.5121 46.6766 51.8508 47.2627C48.1805 47.8567 44.4385 47.8567 40.7682 47.2627C38.9352 46.9681 37.127 46.5357 35.3591 45.9693L33.0073 45.0756V40.5308C33.019 39.6496 33.3708 38.807 33.9892 38.179C34.3949 37.7678 34.876 37.4384 35.4061 37.2089C36.122 36.8981 36.8637 36.6502 37.6227 36.4681C38.4989 36.2481 39.3859 36.0734 40.2801 35.9448C41.2385 35.8037 42.191 35.6862 43.1846 35.5862C44.1782 35.4863 45.1601 35.4216 46.1243 35.3804C47.0885 35.3393 47.9881 35.2981 48.8641 35.2746C49.7401 35.2511 50.5162 35.2746 51.2159 35.2746H53.5676C54.4378 35.2746 55.3314 35.3275 56.3074 35.3804C57.2834 35.4334 58.23 35.498 59.2471 35.5862C60.2643 35.6744 61.2108 35.8037 62.1516 35.9448C63.0923 36.0859 63.9742 36.2565 64.8208 36.4681C65.5759 36.6502 66.3137 36.8981 67.0256 37.2089C67.559 37.4452 68.0466 37.7736 68.466 38.179C68.7782 38.4865 69.0208 38.8574 69.1774 39.2667C69.2185 39.3791 69.2481 39.4953 69.2656 39.6136L67.1255 40.9659Z" fill="white"/>
<path d="M35.3478 45.9518C40.6523 47.6976 46.3006 48.1333 51.8101 47.2217C53.748 46.9128 55.6588 46.4528 57.5249 45.8459C59.3063 45.2355 61.0364 44.4845 62.6988 43.6C64.3448 42.7309 65.9177 41.7301 67.4023 40.6074L69.2014 39.261C69.3656 39.6683 69.4495 40.1035 69.4484 40.5427V45.0875C69.4541 46.502 69.17 47.9027 68.6135 49.2031C67.5288 51.7498 65.4994 53.777 62.9516 54.8591C61.6509 55.4146 60.2504 55.6987 58.836 55.6939H57.4073C56.9872 55.6949 56.5712 55.6109 56.1844 55.447C55.8094 55.2865 55.451 55.0895 55.1144 54.8591C54.7735 54.6163 54.4475 54.3532 54.1384 54.0712C53.8432 53.7915 53.531 53.5303 53.2035 53.2892C52.9094 53.0553 52.5945 52.8486 52.2628 52.6719C51.9499 52.5111 51.6034 52.4265 51.2516 52.425C50.8979 52.4265 50.5495 52.5111 50.2344 52.6719C49.9038 52.8473 49.5907 53.054 49.2996 53.2892C48.988 53.5244 48.6764 53.789 48.3589 54.0712C48.0497 54.3532 47.7238 54.6163 47.3829 54.8591C47.0463 55.0895 46.6879 55.2865 46.3129 55.447C45.9283 55.6116 45.5141 55.6956 45.0958 55.6939H43.6613C42.2469 55.6982 40.8466 55.4141 39.5457 54.8591C37.0083 53.7818 34.9873 51.7628 33.9073 49.2266C33.344 47.9283 33.0595 46.5262 33.0724 45.111" fill="url(#paint3_linear_1729_10062)"/>
<path d="M50.0932 42.3652C49.9434 42.3662 49.7948 42.3371 49.6564 42.2795C49.5181 42.2219 49.3927 42.1371 49.2878 42.0301C49.0746 41.8184 48.9541 41.5308 48.9526 41.2304C48.9569 40.9289 49.0769 40.6406 49.2878 40.425C49.3938 40.3198 49.5195 40.2366 49.6577 40.1801C49.7959 40.1236 49.9439 40.0949 50.0932 40.0957H52.3627C52.512 40.0949 52.66 40.1236 52.7983 40.1801C52.9365 40.2366 53.0622 40.3198 53.1682 40.425C53.379 40.6406 53.499 40.9289 53.5033 41.2304C53.5018 41.5308 53.3813 41.8184 53.1682 42.0301C53.0633 42.1371 52.9379 42.2219 52.7995 42.2795C52.6611 42.3371 52.5126 42.3662 52.3627 42.3652H50.0932Z" fill="white"/>
<path d="M69.2191 39.3609C69.2191 39.3609 69.1603 39.2668 69.1544 39.2492C68.9963 38.8424 68.7538 38.4737 68.443 38.1674C68.0235 37.7619 67.536 37.4335 67.0026 37.1973C66.2907 36.8865 65.5529 36.6386 64.7978 36.4564C63.9512 36.2448 63.0751 36.0743 62.1285 35.9332C61.182 35.7921 60.2295 35.6686 59.2241 35.5745C58.2187 35.4805 57.2486 35.4158 56.2844 35.3688C55.3202 35.3217 54.4148 35.2629 53.5446 35.2629H51.1928C50.4932 35.2629 49.7171 35.2629 48.8411 35.2629C47.965 35.2629 47.0479 35.3217 46.1013 35.3688C45.1547 35.4158 44.1728 35.4805 43.1616 35.5745C42.1503 35.6686 41.2155 35.7921 40.2571 35.9332C39.3629 36.0618 38.4759 36.2364 37.5996 36.4564C36.8407 36.6385 36.0991 36.8864 35.3831 37.1973C34.853 37.4267 34.3719 37.7561 33.9662 38.1674C33.3478 38.7953 32.996 39.6379 32.9843 40.5191V45.1051C32.9714 46.5202 33.2558 47.9224 33.8192 49.2207C34.8992 51.7569 36.9202 53.7758 39.4575 54.8531C40.7584 55.4082 42.1588 55.6923 43.5731 55.688H45.0606C45.4789 55.6896 45.8931 55.6056 46.2777 55.4411C46.6527 55.2805 47.0111 55.0836 47.3477 54.8531C47.6886 54.6104 48.0145 54.3473 48.3237 54.0653C48.6412 53.7831 48.9528 53.5185 49.2644 53.2833C49.5555 53.0481 49.8686 52.8413 50.1992 52.666C50.5142 52.5051 50.8627 52.4205 51.2164 52.419C51.5682 52.4206 51.9147 52.5052 52.2276 52.666C52.5593 52.8427 52.8742 53.0493 53.1683 53.2833C53.4958 53.5244 53.808 53.7856 54.1032 54.0653C54.4123 54.3473 54.7382 54.6104 55.0791 54.8531C55.4158 55.0836 55.7741 55.2805 56.1492 55.4411C56.536 55.605 56.952 55.689 57.3721 55.688H58.8126C60.227 55.6928 61.6274 55.4087 62.9281 54.8531C65.476 53.7711 67.5053 51.7438 68.59 49.1971C69.1465 47.8967 69.4306 46.496 69.4249 45.0816V40.5426C69.4394 40.1387 69.3693 39.7361 69.2191 39.3609ZM35.3067 40.4427C35.3009 40.304 35.325 40.1656 35.3772 40.037C35.4278 39.9094 35.5038 39.7933 35.6007 39.696C35.7959 39.4971 36.0274 39.3374 36.2827 39.2257C36.962 38.9385 37.6641 38.7084 38.3816 38.5378C39.1695 38.3438 40.0161 38.1791 40.9098 38.0498C41.8034 37.9204 42.7206 37.8087 43.6731 37.7323C44.6256 37.6559 45.5662 37.5794 46.4481 37.5442C47.3301 37.5089 48.212 37.4559 49.0351 37.4559H51.2164C52.2629 37.4559 53.4153 37.456 54.6911 37.5089C55.9669 37.5618 57.2663 37.6206 58.5774 37.7382C59.8885 37.8558 61.1702 38.0204 62.4225 38.2379C63.5697 38.4245 64.6974 38.7157 65.7914 39.1081C62.9698 41.1356 59.8469 42.707 56.5372 43.7646C49.6201 45.9888 42.1662 45.8959 35.3067 43.5V40.4427Z" stroke="black" stroke-width="0.2" stroke-linejoin="round"/>
<path d="M50.0932 42.3652H52.3627C52.5126 42.3662 52.6611 42.3371 52.7995 42.2795C52.9379 42.2219 53.0633 42.1371 53.1682 42.0301C53.3813 41.8184 53.5018 41.5308 53.5033 41.2304C53.499 40.9289 53.379 40.6406 53.1682 40.425C53.0622 40.3198 52.9365 40.2366 52.7983 40.1801C52.66 40.1236 52.512 40.0949 52.3627 40.0957H50.0932C49.9439 40.0949 49.7959 40.1236 49.6577 40.1801C49.5195 40.2366 49.3938 40.3198 49.2878 40.425C49.0769 40.6406 48.9569 40.9289 48.9526 41.2304C48.9541 41.5308 49.0746 41.8184 49.2878 42.0301C49.3927 42.1371 49.5181 42.2219 49.6564 42.2795C49.7948 42.3371 49.9434 42.3662 50.0932 42.3652Z" stroke="black" stroke-width="0.2" stroke-miterlimit="10"/>
<path d="M69.1654 39.2961C69.1654 39.2961 67.8426 40.3074 67.3546 40.6602C66.3221 41.4378 65.2464 42.1562 64.1326 42.812C62.4042 43.8185 60.5973 44.6836 58.7295 45.399C56.9048 46.1001 55.0193 46.6315 53.097 46.9864C50.8606 47.4316 48.5865 47.66 46.3063 47.6684C43.5453 47.6865 40.7927 47.3646 38.1104 46.7101C36.39 46.3376 34.7073 45.8082 33.0835 45.1285" stroke="black" stroke-width="0.25" stroke-linejoin="round"/>
</g>
<g clip-path="url(#clip1_1729_10062)">
<path d="M65.5388 62.8668L61.8087 60.7168V62.0868H35.6987C35.4998 62.0868 35.309 62.1658 35.1684 62.3065C35.0277 62.4471 34.9487 62.6379 34.9487 62.8368C34.9487 63.0357 35.0277 63.2265 35.1684 63.3671C35.309 63.5078 35.4998 63.5868 35.6987 63.5868H61.8087V64.9768L65.5388 62.8668Z" fill="white" stroke="black" stroke-width="0.3"/>
</g>
</g>
<defs>
<filter id="filter0_bii_1729_10062" x="19.347" y="18.3733" width="61.9087" height="61.9086" filterUnits="userSpaceOnUse" color-interpolation-filters="sRGB">
<feFlood flood-opacity="0" result="BackgroundImageFix"/>
<feGaussianBlur in="BackgroundImageFix" stdDeviation="2.75107"/>
<feComposite in2="SourceAlpha" operator="in" result="effect1_backgroundBlur_1729_10062"/>
<feBlend mode="normal" in="SourceGraphic" in2="effect1_backgroundBlur_1729_10062" result="shape"/>
<feColorMatrix in="SourceAlpha" type="matrix" values="0 0 0 0 0 0 0 0 0 0 0 0 0 0 0 0 0 0 127 0" result="hardAlpha"/>
<feOffset dy="0.57721"/>
<feGaussianBlur stdDeviation="1.15442"/>
<feComposite in2="hardAlpha" operator="arithmetic" k2="-1" k3="1"/>
<feColorMatrix type="matrix" values="0 0 0 0 1 0 0 0 0 1 0 0 0 0 1 0 0 0 1 0"/>
<feBlend mode="color-dodge" in2="shape" result="effect2_innerShadow_1729_10062"/>
<feColorMatrix in="SourceAlpha" type="matrix" values="0 0 0 0 0 0 0 0 0 0 0 0 0 0 0 0 0 0 127 0" result="hardAlpha"/>
<feOffset/>
<feGaussianBlur stdDeviation="5.49656"/>
<feComposite in2="hardAlpha" operator="arithmetic" k2="-1" k3="1"/>
<feColorMatrix type="matrix" values="0 0 0 0 1 0 0 0 0 1 0 0 0 0 1 0 0 0 1 0"/>
<feBlend mode="screen" in2="effect2_innerShadow_1729_10062" result="effect3_innerShadow_1729_10062"/>
</filter>
<filter id="filter1_ddddd_1729_10062" x="13.9409" y="18.6577" width="78.2101" height="89.6299" filterUnits="userSpaceOnUse" color-interpolation-filters="sRGB">
<feFlood flood-opacity="0" result="BackgroundImageFix"/>
<feColorMatrix in="SourceAlpha" type="matrix" values="0 0 0 0 0 0 0 0 0 0 0 0 0 0 0 0 0 0 127 0" result="hardAlpha"/>
<feOffset/>
<feColorMatrix type="matrix" values="0 0 0 0 0 0 0 0 0 0 0 0 0 0 0 0 0 0 0.1 0"/>
<feBlend mode="normal" in2="BackgroundImageFix" result="effect1_dropShadow_1729_10062"/>
<feColorMatrix in="SourceAlpha" type="matrix" values="0 0 0 0 0 0 0 0 0 0 0 0 0 0 0 0 0 0 127 0" result="hardAlpha"/>
<feOffset dy="1"/>
<feGaussianBlur stdDeviation="1"/>
<feColorMatrix type="matrix" values="0 0 0 0 0 0 0 0 0 0 0 0 0 0 0 0 0 0 0.1 0"/>
<feBlend mode="normal" in2="effect1_dropShadow_1729_10062" result="effect2_dropShadow_1729_10062"/>
<feColorMatrix in="SourceAlpha" type="matrix" values="0 0 0 0 0 0 0 0 0 0 0 0 0 0 0 0 0 0 127 0" result="hardAlpha"/>
<feOffset dy="4"/>
<feGaussianBlur stdDeviation="2"/>
<feColorMatrix type="matrix" values="0 0 0 0 0 0 0 0 0 0 0 0 0 0 0 0 0 0 0.09 0"/>
<feBlend mode="normal" in2="effect2_dropShadow_1729_10062" result="effect3_dropShadow_1729_10062"/>
<feColorMatrix in="SourceAlpha" type="matrix" values="0 0 0 0 0 0 0 0 0 0 0 0 0 0 0 0 0 0 127 0" result="hardAlpha"/>
<feOffset dy="9"/>
<feGaussianBlur stdDeviation="3"/>
<feColorMatrix type="matrix" values="0 0 0 0 0 0 0 0 0 0 0 0 0 0 0 0 0 0 0.05 0"/>
<feBlend mode="normal" in2="effect3_dropShadow_1729_10062" result="effect4_dropShadow_1729_10062"/>
<feColorMatrix in="SourceAlpha" type="matrix" values="0 0 0 0 0 0 0 0 0 0 0 0 0 0 0 0 0 0 127 0" result="hardAlpha"/>
<feOffset dy="17"/>
<feGaussianBlur stdDeviation="3.5"/>
<feColorMatrix type="matrix" values="0 0 0 0 0 0 0 0 0 0 0 0 0 0 0 0 0 0 0.01 0"/>
<feBlend mode="normal" in2="effect4_dropShadow_1729_10062" result="effect5_dropShadow_1729_10062"/>
<feBlend mode="normal" in="SourceGraphic" in2="effect5_dropShadow_1729_10062" result="shape"/>
</filter>
<filter id="filter2_ddddd_1729_10062" x="27.8839" y="34.1628" width="46.6428" height="39.6252" filterUnits="userSpaceOnUse" color-interpolation-filters="sRGB">
<feFlood flood-opacity="0" result="BackgroundImageFix"/>
<feColorMatrix in="SourceAlpha" type="matrix" values="0 0 0 0 0 0 0 0 0 0 0 0 0 0 0 0 0 0 127 0" result="hardAlpha"/>
<feOffset/>
<feColorMatrix type="matrix" values="0 0 0 0 0 0 0 0 0 0 0 0 0 0 0 0 0 0 0.17 0"/>
<feBlend mode="normal" in2="BackgroundImageFix" result="effect1_dropShadow_1729_10062"/>
<feColorMatrix in="SourceAlpha" type="matrix" values="0 0 0 0 0 0 0 0 0 0 0 0 0 0 0 0 0 0 127 0" result="hardAlpha"/>
<feOffset dy="1"/>
<feGaussianBlur stdDeviation="1"/>
<feColorMatrix type="matrix" values="0 0 0 0 0 0 0 0 0 0 0 0 0 0 0 0 0 0 0.17 0"/>
<feBlend mode="normal" in2="effect1_dropShadow_1729_10062" result="effect2_dropShadow_1729_10062"/>
<feColorMatrix in="SourceAlpha" type="matrix" values="0 0 0 0 0 0 0 0 0 0 0 0 0 0 0 0 0 0 127 0" result="hardAlpha"/>
<feOffset dy="3"/>
<feGaussianBlur stdDeviation="1.5"/>
<feColorMatrix type="matrix" values="0 0 0 0 0 0 0 0 0 0 0 0 0 0 0 0 0 0 0.14 0"/>
<feBlend mode="normal" in2="effect2_dropShadow_1729_10062" result="effect3_dropShadow_1729_10062"/>
<feColorMatrix in="SourceAlpha" type="matrix" values="0 0 0 0 0 0 0 0 0 0 0 0 0 0 0 0 0 0 127 0" result="hardAlpha"/>
<feOffset dy="7"/>
<feGaussianBlur stdDeviation="2"/>
<feColorMatrix type="matrix" values="0 0 0 0 0 0 0 0 0 0 0 0 0 0 0 0 0 0 0.09 0"/>
<feBlend mode="normal" in2="effect3_dropShadow_1729_10062" result="effect4_dropShadow_1729_10062"/>
<feColorMatrix in="SourceAlpha" type="matrix" values="0 0 0 0 0 0 0 0 0 0 0 0 0 0 0 0 0 0 127 0" result="hardAlpha"/>
<feOffset dy="13"/>
<feGaussianBlur stdDeviation="2.5"/>
<feColorMatrix type="matrix" values="0 0 0 0 0 0 0 0 0 0 0 0 0 0 0 0 0 0 0.03 0"/>
<feBlend mode="normal" in2="effect4_dropShadow_1729_10062" result="effect5_dropShadow_1729_10062"/>
<feBlend mode="normal" in="SourceGraphic" in2="effect5_dropShadow_1729_10062" result="shape"/>
</filter>
<linearGradient id="paint0_linear_1729_10062" x1="50.5889" y1="4.14893" x2="50.5889" y2="96.8511" gradientUnits="userSpaceOnUse">
<stop stop-color="#9B9BA0"/>
<stop offset="1" stop-color="#505055"/>
</linearGradient>
<linearGradient id="paint1_linear_1729_10062" x1="48.6819" y1="-5.1065" x2="49.7269" y2="107.347" gradientUnits="userSpaceOnUse">
<stop offset="0.085815" stop-color="#FFB3BB"/>
<stop offset="0.211126" stop-color="#FF5C39"/>
<stop offset="0.481969" stop-color="#C73ECC"/>
<stop offset="0.9375" stop-color="#0078D4"/>
</linearGradient>
<linearGradient id="paint2_linear_1729_10062" x1="44.321" y1="-16.8479" x2="46.8668" y2="115.533" gradientUnits="userSpaceOnUse">
<stop stop-color="#FFB3BB"/>
<stop offset="0.211126" stop-color="#FF5C39"/>
<stop offset="0.481969" stop-color="#C73ECC"/>
<stop offset="0.9375" stop-color="#0078D4"/>
</linearGradient>
<linearGradient id="paint3_linear_1729_10062" x1="36.2356" y1="60.5209" x2="65.4445" y2="35.2042" gradientUnits="userSpaceOnUse">
<stop stop-color="#FFB3BB"/>
<stop offset="0.31" stop-color="#FF5C39"/>
<stop offset="0.64" stop-color="#C73ECC"/>
<stop offset="1" stop-color="#38B9FF"/>
</linearGradient>
<clipPath id="clip0_1729_10062">
<rect width="102" height="102" fill="white" transform="translate(0.0893555)"/>
</clipPath>
<clipPath id="clip1_1729_10062">
<rect width="32.09" height="6.04" fill="white" transform="translate(34.4487 59.8469)"/>
</clipPath>
</defs>
</svg>
