<?xml version="1.0" encoding="UTF-8"?>
<svg width="100px" height="100px" viewBox="0 0 100 100" version="1.1" xmlns="http://www.w3.org/2000/svg" xmlns:xlink="http://www.w3.org/1999/xlink">
    <!-- Generator: Sketch 55.2 (78181) - https://sketchapp.com -->
    <title>Azure Solution Architect - Storage Information/choose-the-right-disk-storage-for-your-virtual-machine-workload</title>
    <desc>Created with Sketch.</desc>
    <defs>
        <rect id="path-1" x="0" y="0" width="96" height="96" rx="48"></rect>
        <filter x="-9.8%" y="-11.9%" width="119.5%" height="121.4%" filterUnits="objectBoundingBox" id="filter-3">
            <feOffset dx="0" dy="2" in="SourceAlpha" result="shadowOffsetOuter1"></feOffset>
            <feColorMatrix values="0 0 0 0 0   0 0 0 0 0   0 0 0 0 0  0 0 0 0.099071558 0" type="matrix" in="shadowOffsetOuter1" result="shadowMatrixOuter1"></feColorMatrix>
            <feMerge>
                <feMergeNode in="shadowMatrixOuter1"></feMergeNode>
                <feMergeNode in="SourceGraphic"></feMergeNode>
            </feMerge>
        </filter>
        <filter x="-9.8%" y="-11.9%" width="119.5%" height="121.3%" filterUnits="objectBoundingBox" id="filter-4">
            <feOffset dx="0" dy="2" in="SourceAlpha" result="shadowOffsetOuter1"></feOffset>
            <feColorMatrix values="0 0 0 0 0   0 0 0 0 0   0 0 0 0 0  0 0 0 0.099071558 0" type="matrix" in="shadowOffsetOuter1" result="shadowMatrixOuter1"></feColorMatrix>
            <feMerge>
                <feMergeNode in="shadowMatrixOuter1"></feMergeNode>
                <feMergeNode in="SourceGraphic"></feMergeNode>
            </feMerge>
        </filter>
        <filter x="-8.0%" y="-11.7%" width="116.0%" height="119.4%" filterUnits="objectBoundingBox" id="filter-5">
            <feOffset dx="0" dy="2" in="SourceAlpha" result="shadowOffsetOuter1"></feOffset>
            <feColorMatrix values="0 0 0 0 0   0 0 0 0 0   0 0 0 0 0  0 0 0 0.099071558 0" type="matrix" in="shadowOffsetOuter1" result="shadowMatrixOuter1"></feColorMatrix>
            <feMerge>
                <feMergeNode in="shadowMatrixOuter1"></feMergeNode>
                <feMergeNode in="SourceGraphic"></feMergeNode>
            </feMerge>
        </filter>
    </defs>
    <g id="Badges" stroke="none" stroke-width="1" fill="none" fill-rule="evenodd">
        <g id="Azure-Solution-Architect---Storage-Information" transform="translate(-50.000000, -660.000000)">
            <g id="Azure-Solution-Architect---Storage-Information/choose-the-right-disk-storage-for-your-virtual-machine-workload" transform="translate(50.000000, 660.000000)">
                <g id="Mask" transform="translate(2.000000, 2.000000)">
                    <mask id="mask-2" fill="white">
                        <use xlink:href="#path-1"></use>
                    </mask>
                    <use id="BG" fill="#55A2FF" xlink:href="#path-1"></use>
                    <g id="Group-2" mask="url(#mask-2)">
                        <g transform="translate(13.000000, 13.000000)" id="Database">
                            <g>
                                <g filter="url(#filter-3)">
                                    <path d="M40.6548935,34.0266341 C40.6548935,38.2976826 31.6313797,41.757816 20.5,41.757816 C9.36946009,41.757816 0.345106545,38.2976826 0.345106545,34.0266341 C0.345106545,29.7555857 9.36946009,26.2954522 20.5,26.2954522 C31.6313797,26.2954522 40.6548935,29.7555857 40.6548935,34.0266341" id="Shadow" fill-opacity="0.102807971" fill="#000000"></path>
                                    <g id="Lower" transform="translate(5.857143, 19.914286)">
                                        <path d="M14.6428571,10.4775861 C6.83783557,10.4775861 0.509726182,8.12038926 0.509726182,5.21076093 L0.509726182,12.2331946 C0.509726182,15.1428229 6.83783557,17.5000198 14.6428571,17.5000198 C22.4484676,17.5000198 28.7759881,15.1428229 28.7759881,12.2331946 L28.7759881,5.21076093 C28.7759881,8.12038926 22.4484676,10.4775861 14.6428571,10.4775861" id="Fill-101" fill="#E1E4E1"></path>
                                        <path d="M14.6428571,12.7990857 L14.6428571,15.1381413 C14.6428571,15.8023464 14.0863651,16.3313698 13.4185747,16.3103025 C6.18653378,16.0791474 0.509726182,13.8185089 0.509726182,11.0627889 L0.509726182,12.2331946 C0.509726182,15.1428229 6.83783557,17.5000198 14.6428571,17.5000198 C22.4484676,17.5000198 28.7759881,15.1428229 28.7759881,12.2331946 L28.7759881,6.38116653 C28.7759881,9.14859058 23.0526589,11.4162514 15.7770409,11.6310209 C15.1445833,11.6497474 14.6428571,12.1699927 14.6428571,12.7990857" id="Fill-106" fill="#D3DAD8"></path>
                                        <path d="M28.7,5.27142857 C28.7,8.1836 22.4065,10.5428571 14.6428571,10.5428571 C6.8798,10.5428571 0.585714286,8.1836 0.585714286,5.27142857 C0.585714286,2.35925714 6.8798,0 14.6428571,0 C22.4065,0 28.7,2.35925714 28.7,5.27142857" id="Fill-100" stroke="#E1E4E1" stroke-width="0.25" fill="#BAC0C2"></path>
                                    </g>
                                    <g id="Mid" transform="translate(5.857143, 9.957143)">
                                        <path d="M14.6428571,10.4862814 C6.83783557,10.4862814 0.509726182,8.12908448 0.509726182,5.21945614 L0.509726182,12.2418898 C0.509726182,15.1515181 6.83783557,17.508715 14.6428571,17.508715 C22.4484676,17.508715 28.7759881,15.1515181 28.7759881,12.2418898 L28.7759881,5.21945614 C28.7759881,8.12908448 22.4484676,10.4862814 14.6428571,10.4862814" id="Fill-102" fill="#E1E4E1"></path>
                                        <path d="M14.6428571,12.8077809 L14.6428571,15.1468365 C14.6428571,15.8110417 14.0863651,16.340065 13.4185747,16.3189977 C6.18653378,16.0878426 0.509726182,13.8272042 0.509726182,11.0714842 L0.509726182,12.2418898 C0.509726182,15.1515181 6.83783557,17.508715 14.6428571,17.508715 C22.4484676,17.508715 28.7759881,15.1515181 28.7759881,12.2418898 L28.7759881,6.38986175 C28.7759881,9.1572858 23.0526589,11.4249467 15.7770409,11.6397161 C15.1445833,11.6584426 14.6428571,12.1786879 14.6428571,12.8077809" id="Fill-107" fill="#D3DAD8"></path>
                                        <path d="M28.7,5.27142857 C28.7,8.1836 22.4065,10.5428571 14.6428571,10.5428571 C6.8798,10.5428571 0.585714286,8.1836 0.585714286,5.27142857 C0.585714286,2.35925714 6.8798,0 14.6428571,0 C22.4065,0 28.7,2.35925714 28.7,5.27142857" id="Fill-103" stroke="#E1E4E1" stroke-width="0.25" fill="#BAC0C2"></path>
                                    </g>
                                    <g id="Top" transform="translate(5.857143, 0.000000)">
                                        <path d="M14.6428571,10.4949766 C6.83783557,10.4949766 0.509726182,8.13777969 0.509726182,5.22815136 L0.509726182,12.250585 C0.509726182,15.1602133 6.83783557,17.5174102 14.6428571,17.5174102 C22.4484676,17.5174102 28.7759881,15.1602133 28.7759881,12.250585 L28.7759881,5.22815136 C28.7759881,8.13777969 22.4484676,10.4949766 14.6428571,10.4949766" id="Fill-104" fill="#E1E4E1"></path>
                                        <path d="M14.6428571,12.8164761 L14.6428571,15.1555317 C14.6428571,15.8197369 14.0863651,16.3487602 13.4185747,16.3276929 C6.18653378,16.0965378 0.509726182,13.8358994 0.509726182,11.0801794 L0.509726182,12.250585 C0.509726182,15.1602133 6.83783557,17.5174102 14.6428571,17.5174102 C22.4484676,17.5174102 28.7759881,15.1602133 28.7759881,12.250585 L28.7759881,6.39855697 C28.7759881,9.16598102 23.0526589,11.4336419 15.7770409,11.6484113 C15.1445833,11.6671378 14.6428571,12.1873831 14.6428571,12.8164761" id="Fill-108" fill="#D3DAD8"></path>
                                        <path d="M28.1434784,5.27142857 C28.1434784,8.1836 22.0991378,10.5428571 14.6428571,10.5428571 C7.18713905,10.5428571 1.14223588,8.1836 1.14223588,5.27142857 C1.14223588,2.35925714 7.18713905,0 14.6428571,0 C22.0991378,0 28.1434784,2.35925714 28.1434784,5.27142857" id="Fill-105" stroke="#E1E4E1" stroke-width="1.25" fill="#C4CBCD"></path>
                                    </g>
                                    <g id="X" transform="translate(13.000000, 15.000000)">
                                        <path d="M8,16 C12.41125,16 16,12.411 16,8 C16,3.58875 12.41125,0 8,0 C3.58875,0 0,3.58875 0,8 C0,12.411 3.58875,16 8,16" id="Fill-111" stroke="#E1E4E1" fill="#DF5142"></path>
                                        <path d="M9.0605,8 L10.53025,6.53025 C10.82325,6.2375 10.82325,5.7625 10.53025,5.46975 C10.2375,5.17675 9.7625,5.17675 9.46975,5.46975 L8,6.9395 L6.53025,5.46975 C6.2375,5.17675 5.7625,5.17675 5.46975,5.46975 C5.17675,5.7625 5.17675,6.2375 5.46975,6.53025 L6.9395,8 L5.46975,9.46975 C5.17675,9.7625 5.17675,10.2375 5.46975,10.53025 C5.616,10.67675 5.808,10.75 6,10.75 C6.192,10.75 6.384,10.67675 6.53025,10.53025 L8,9.0605 L9.46975,10.53025 C9.616,10.67675 9.808,10.75 10,10.75 C10.192,10.75 10.384,10.67675 10.53025,10.53025 C10.82325,10.2375 10.82325,9.7625 10.53025,9.46975 L9.0605,8" id="Fill-112" fill="#FFFFFE"></path>
                                    </g>
                                </g>
                            </g>
                        </g>
                    </g>
                    <g id="Group-2" mask="url(#mask-2)">
                        <g transform="translate(48.000000, 25.000000)">
                            <g id="Database">
                                <g filter="url(#filter-4)">
                                    <path d="M40.6548935,34.0266341 C40.6548935,38.2976826 31.6313797,41.757816 20.5,41.757816 C9.36946009,41.757816 0.345106545,38.2976826 0.345106545,34.0266341 C0.345106545,29.7555857 9.36946009,26.2954522 20.5,26.2954522 C31.6313797,26.2954522 40.6548935,29.7555857 40.6548935,34.0266341" id="Shadow" fill-opacity="0.102807971" fill="#000000"></path>
                                    <g id="Lower" transform="translate(5.857143, 19.914286)">
                                        <path d="M14.6428571,10.4775861 C6.83783557,10.4775861 0.509726182,8.12038926 0.509726182,5.21076093 L0.509726182,12.2331946 C0.509726182,15.1428229 6.83783557,17.5000198 14.6428571,17.5000198 C22.4484676,17.5000198 28.7759881,15.1428229 28.7759881,12.2331946 L28.7759881,5.21076093 C28.7759881,8.12038926 22.4484676,10.4775861 14.6428571,10.4775861" id="Fill-101" fill="#E1E4E1"></path>
                                        <path d="M14.6428571,12.7990857 L14.6428571,15.1381413 C14.6428571,15.8023464 14.0863651,16.3313698 13.4185747,16.3103025 C6.18653378,16.0791474 0.509726182,13.8185089 0.509726182,11.0627889 L0.509726182,12.2331946 C0.509726182,15.1428229 6.83783557,17.5000198 14.6428571,17.5000198 C22.4484676,17.5000198 28.7759881,15.1428229 28.7759881,12.2331946 L28.7759881,6.38116653 C28.7759881,9.14859058 23.0526589,11.4162514 15.7770409,11.6310209 C15.1445833,11.6497474 14.6428571,12.1699927 14.6428571,12.7990857" id="Fill-106" fill="#D3DAD8"></path>
                                        <path d="M28.7,5.27142857 C28.7,8.1836 22.4065,10.5428571 14.6428571,10.5428571 C6.8798,10.5428571 0.585714286,8.1836 0.585714286,5.27142857 C0.585714286,2.35925714 6.8798,0 14.6428571,0 C22.4065,0 28.7,2.35925714 28.7,5.27142857" id="Fill-100" stroke="#E1E4E1" stroke-width="0.25" fill="#BAC0C2"></path>
                                    </g>
                                    <g id="Mid" transform="translate(5.857143, 9.957143)">
                                        <path d="M14.6428571,10.4862814 C6.83783557,10.4862814 0.509726182,8.12908448 0.509726182,5.21945614 L0.509726182,12.2418898 C0.509726182,15.1515181 6.83783557,17.508715 14.6428571,17.508715 C22.4484676,17.508715 28.7759881,15.1515181 28.7759881,12.2418898 L28.7759881,5.21945614 C28.7759881,8.12908448 22.4484676,10.4862814 14.6428571,10.4862814" id="Fill-102" fill="#E1E4E1"></path>
                                        <path d="M14.6428571,12.8077809 L14.6428571,15.1468365 C14.6428571,15.8110417 14.0863651,16.340065 13.4185747,16.3189977 C6.18653378,16.0878426 0.509726182,13.8272042 0.509726182,11.0714842 L0.509726182,12.2418898 C0.509726182,15.1515181 6.83783557,17.508715 14.6428571,17.508715 C22.4484676,17.508715 28.7759881,15.1515181 28.7759881,12.2418898 L28.7759881,6.38986175 C28.7759881,9.1572858 23.0526589,11.4249467 15.7770409,11.6397161 C15.1445833,11.6584426 14.6428571,12.1786879 14.6428571,12.8077809" id="Fill-107" fill="#D3DAD8"></path>
                                        <path d="M28.7,5.27142857 C28.7,8.1836 22.4065,10.5428571 14.6428571,10.5428571 C6.8798,10.5428571 0.585714286,8.1836 0.585714286,5.27142857 C0.585714286,2.35925714 6.8798,0 14.6428571,0 C22.4065,0 28.7,2.35925714 28.7,5.27142857" id="Fill-103" stroke="#E1E4E1" stroke-width="0.25" fill="#BAC0C2"></path>
                                    </g>
                                    <g id="Top" transform="translate(5.857143, 0.000000)">
                                        <path d="M14.6428571,10.4949766 C6.83783557,10.4949766 0.509726182,8.13777969 0.509726182,5.22815136 L0.509726182,12.250585 C0.509726182,15.1602133 6.83783557,17.5174102 14.6428571,17.5174102 C22.4484676,17.5174102 28.7759881,15.1602133 28.7759881,12.250585 L28.7759881,5.22815136 C28.7759881,8.13777969 22.4484676,10.4949766 14.6428571,10.4949766" id="Fill-104" fill="#E1E4E1"></path>
                                        <path d="M14.6428571,12.8164761 L14.6428571,15.1555317 C14.6428571,15.8197369 14.0863651,16.3487602 13.4185747,16.3276929 C6.18653378,16.0965378 0.509726182,13.8358994 0.509726182,11.0801794 L0.509726182,12.250585 C0.509726182,15.1602133 6.83783557,17.5174102 14.6428571,17.5174102 C22.4484676,17.5174102 28.7759881,15.1602133 28.7759881,12.250585 L28.7759881,6.39855697 C28.7759881,9.16598102 23.0526589,11.4336419 15.7770409,11.6484113 C15.1445833,11.6671378 14.6428571,12.1873831 14.6428571,12.8164761" id="Fill-108" fill="#D3DAD8"></path>
                                        <path d="M28.1434784,5.27142857 C28.1434784,8.1836 22.0991378,10.5428571 14.6428571,10.5428571 C7.18713905,10.5428571 1.14223588,8.1836 1.14223588,5.27142857 C1.14223588,2.35925714 7.18713905,0 14.6428571,0 C22.0991378,0 28.1434784,2.35925714 28.1434784,5.27142857" id="Fill-105" stroke="#E1E4E1" stroke-width="1.25" fill="#C4CBCD"></path>
                                    </g>
                                </g>
                            </g>
                            <g id="X" transform="translate(13.000000, 15.000000)">
                                <path d="M8,16 C12.41125,16 16,12.411 16,8 C16,3.58875 12.41125,0 8,0 C3.58875,0 0,3.58875 0,8 C0,12.411 3.58875,16 8,16" id="Fill-111" stroke="#E1E4E1" fill="#DF5142"></path>
                                <path d="M9.0605,8 L10.53025,6.53025 C10.82325,6.2375 10.82325,5.7625 10.53025,5.46975 C10.2375,5.17675 9.7625,5.17675 9.46975,5.46975 L8,6.9395 L6.53025,5.46975 C6.2375,5.17675 5.7625,5.17675 5.46975,5.46975 C5.17675,5.7625 5.17675,6.2375 5.46975,6.53025 L6.9395,8 L5.46975,9.46975 C5.17675,9.7625 5.17675,10.2375 5.46975,10.53025 C5.616,10.67675 5.808,10.75 6,10.75 C6.192,10.75 6.384,10.67675 6.53025,10.53025 L8,9.0605 L9.46975,10.53025 C9.616,10.67675 9.808,10.75 10,10.75 C10.192,10.75 10.384,10.67675 10.53025,10.53025 C10.82325,10.2375 10.82325,9.7625 10.53025,9.46975 L9.0605,8" id="Fill-112" fill="#FFFFFE"></path>
                            </g>
                        </g>
                    </g>
                    <g id="Group-2" mask="url(#mask-2)">
                        <g transform="translate(23.000000, 38.000000)">
                            <g id="Database">
                                <g filter="url(#filter-5)">
                                    <path d="M49.5791384,41.4958953 C49.5791384,46.704491 38.5748533,50.9241659 25,50.9241659 C11.4261708,50.9241659 0.42086164,46.704491 0.42086164,41.4958953 C0.42086164,36.2872996 11.4261708,32.0676247 25,32.0676247 C38.5748533,32.0676247 49.5791384,36.2872996 49.5791384,41.4958953" id="Shadow" fill-opacity="0.102807971" fill="#000000"></path>
                                    <g id="Lower" transform="translate(7.142857, 24.285714)">
                                        <path d="M17.8571429,12.7775441 C8.33882387,12.7775441 0.621617295,9.90291373 0.621617295,6.35458649 L0.621617295,14.9185299 C0.621617295,18.4668572 8.33882387,21.3414875 17.8571429,21.3414875 C27.37618,21.3414875 35.0926684,18.4668572 35.0926684,14.9185299 L35.0926684,6.35458649 C35.0926684,9.90291373 27.37618,12.7775441 17.8571429,12.7775441" id="Fill-101" fill="#E1E4E1"></path>
                                        <path d="M17.8571429,15.6086411 L17.8571429,18.4611479 C17.8571429,19.2711542 17.178494,19.9163046 16.3641155,19.8906128 C7.5445534,19.6087163 0.621617295,16.8518402 0.621617295,13.491206 L0.621617295,14.9185299 C0.621617295,18.4668572 8.33882387,21.3414875 17.8571429,21.3414875 C27.37618,21.3414875 35.0926684,18.4668572 35.0926684,14.9185299 L35.0926684,7.7819104 C35.0926684,11.1568178 28.1129987,13.9222579 19.2402938,14.1841718 C18.469004,14.207009 17.8571429,14.8414545 17.8571429,15.6086411" id="Fill-106" fill="#D3DAD8"></path>
                                        <path d="M35,6.42857143 C35,9.98 27.325,12.8571429 17.8571429,12.8571429 C8.39,12.8571429 0.714285714,9.98 0.714285714,6.42857143 C0.714285714,2.87714286 8.39,0 17.8571429,0 C27.325,0 35,2.87714286 35,6.42857143" id="Fill-100" stroke="#E1E4E1" stroke-width="0.25" fill="#BAC0C2"></path>
                                    </g>
                                    <g id="Mid" transform="translate(7.142857, 12.142857)">
                                        <path d="M17.8571429,12.788148 C8.33882387,12.788148 0.621617295,9.91351765 0.621617295,6.36519042 L0.621617295,14.9291339 C0.621617295,18.4774611 8.33882387,21.3520915 17.8571429,21.3520915 C27.37618,21.3520915 35.0926684,18.4774611 35.0926684,14.9291339 L35.0926684,6.36519042 C35.0926684,9.91351765 27.37618,12.788148 17.8571429,12.788148" id="Fill-102" fill="#E1E4E1"></path>
                                        <path d="M17.8571429,15.619245 L17.8571429,18.4717518 C17.8571429,19.2817581 17.178494,19.9269085 16.3641155,19.9012167 C7.5445534,19.6193202 0.621617295,16.8624441 0.621617295,13.50181 L0.621617295,14.9291339 C0.621617295,18.4774611 8.33882387,21.3520915 17.8571429,21.3520915 C27.37618,21.3520915 35.0926684,18.4774611 35.0926684,14.9291339 L35.0926684,7.79251433 C35.0926684,11.1674217 28.1129987,13.9328618 19.2402938,14.1947757 C18.469004,14.2176129 17.8571429,14.8520584 17.8571429,15.619245" id="Fill-107" fill="#D3DAD8"></path>
                                        <path d="M35,6.42857143 C35,9.98 27.325,12.8571429 17.8571429,12.8571429 C8.39,12.8571429 0.714285714,9.98 0.714285714,6.42857143 C0.714285714,2.87714286 8.39,0 17.8571429,0 C27.325,0 35,2.87714286 35,6.42857143" id="Fill-103" stroke="#E1E4E1" stroke-width="0.25" fill="#BAC0C2"></path>
                                    </g>
                                    <g id="Top" transform="translate(7.142857, 0.000000)">
                                        <path d="M17.8571429,12.7987519 C8.33882387,12.7987519 0.621617295,9.92412158 0.621617295,6.37579434 L0.621617295,14.9397378 C0.621617295,18.488065 8.33882387,21.3626954 17.8571429,21.3626954 C27.37618,21.3626954 35.0926684,18.488065 35.0926684,14.9397378 L35.0926684,6.37579434 C35.0926684,9.92412158 27.37618,12.7987519 17.8571429,12.7987519" id="Fill-104" fill="#E1E4E1"></path>
                                        <path d="M17.8571429,15.6298489 L17.8571429,18.4823557 C17.8571429,19.292362 17.178494,19.9375125 16.3641155,19.9118206 C7.5445534,19.6299242 0.621617295,16.873048 0.621617295,13.5124139 L0.621617295,14.9397378 C0.621617295,18.488065 8.33882387,21.3626954 17.8571429,21.3626954 C27.37618,21.3626954 35.0926684,18.488065 35.0926684,14.9397378 L35.0926684,7.80311825 C35.0926684,11.1780256 28.1129987,13.9434657 19.2402938,14.2053796 C18.469004,14.2282168 17.8571429,14.8626623 17.8571429,15.6298489" id="Fill-108" fill="#D3DAD8"></path>
                                        <path d="M34.3213151,6.42857143 C34.3213151,9.98 26.950168,12.8571429 17.8571429,12.8571429 C8.76480372,12.8571429 1.39297059,9.98 1.39297059,6.42857143 C1.39297059,2.87714286 8.76480372,0 17.8571429,0 C26.950168,0 34.3213151,2.87714286 34.3213151,6.42857143" id="Fill-105" stroke="#E1E4E1" stroke-width="2.25" fill="#C4CBCD"></path>
                                    </g>
                                </g>
                            </g>
                            <g id="Check" transform="translate(15.000000, 17.857143)">
                                <path d="M10,0 C4.4859375,0 0,4.4859375 0,10 C0,15.51375 4.4859375,20 10,20 C15.5140625,20 20,15.51375 20,10 C20,4.4859375 15.5140625,0 10,0" id="Fill-109" stroke="#E1E4E1" fill="#7CB65A"></path>
                                <path d="M14.4128125,7.1496875 C14.046875,6.7834375 13.453125,6.7834375 13.0871875,7.1496875 L9.375,10.861875 L7.5378125,9.0246875 C7.171875,8.6584375 6.578125,8.6584375 6.2121875,9.0246875 C5.8459375,9.390625 5.8459375,9.984375 6.2121875,10.3503125 L8.7121875,12.8503125 C8.895,13.0334375 9.135,13.125 9.375,13.125 C9.615,13.125 9.855,13.0334375 10.0378125,12.8503125 L14.4128125,8.4753125 C14.7790625,8.109375 14.7790625,7.515625 14.4128125,7.1496875" id="Fill-110" fill="#FFFFFE"></path>
                            </g>
                        </g>
                    </g>
                </g>
                <g id="Azure-Border" stroke="#0078D4" stroke-width="4">
                    <rect x="2" y="2" width="96" height="96" rx="48"></rect>
                </g>
            </g>
        </g>
    </g>
</svg>