<svg width="106" height="106" viewBox="0 0 106 106" fill="none" xmlns="http://www.w3.org/2000/svg">
<g filter="url(#filter0_d)">
<circle cx="53" cy="53" r="49" fill="#5197D5"/>
<circle cx="53" cy="53" r="50.75" stroke="#F2F1F0" stroke-width="3.5"/>
</g>
<circle cx="53" cy="53" r="48" stroke="#0078D4" stroke-width="4"/>
<g filter="url(#filter1_d)">
<path d="M81.4963 69C87.2921 69 92 64.2828 92 58.4926C92 53.1882 88.0954 48.8253 82.991 48.137C83.3977 46.4971 83.6316 44.756 83.6316 42.9845C83.5808 31.3636 74.2159 22 62.6242 22C54.6422 22 47.7075 26.5148 44.1588 33.1047C42.42 32.2645 40.4372 31.7685 38.3629 31.7685C31.1232 31.7685 25.2358 37.67 25.2358 44.8977C25.2358 45.991 25.3883 47.0741 25.6425 48.1269C25.2358 48.0762 24.8494 48.0762 24.4529 48.0762C18.7079 48.0256 14 52.6922 14 58.4824C14 64.2727 18.6977 68.9899 24.5037 68.9899H81.4963V69Z" fill="#F2F1F0"/>
</g>
<mask id="mask0" mask-type="alpha" maskUnits="userSpaceOnUse" x="14" y="22" width="78" height="47">
<path d="M81.5102 69C87.2982 69 91.9998 64.2828 91.9998 58.4926C91.9998 53.1882 88.1004 48.8253 83.0029 48.137C83.4091 46.4971 83.6426 44.756 83.6426 42.9845C83.5918 31.3636 74.2396 22 62.6634 22C54.6922 22 47.7668 26.5148 44.2229 33.1047C42.4865 32.2645 40.5063 31.7685 38.4348 31.7685C31.2048 31.7685 25.3254 37.67 25.3254 44.8977C25.3254 45.991 25.4777 47.0741 25.7316 48.1269C25.3254 48.0762 24.9395 48.0762 24.5435 48.0762C18.8062 48.0256 14.1047 52.6922 14.1047 58.4824C14.1047 64.2727 18.796 68.9899 24.5943 68.9899H81.5102V69Z" fill="#F2F1F0"/>
</mask>
<g mask="url(#mask0)">
<g filter="url(#filter2_d)">
<path fill-rule="evenodd" clip-rule="evenodd" d="M26.4791 57.5088H29.4914C30.7959 57.5088 31.8533 58.5662 31.8533 59.8706V74.589H30.176V59.8706C30.176 59.4925 29.8695 59.186 29.4914 59.186H26.4791C26.0526 61.0347 24.3066 62.269 22.4214 62.0544C20.5362 61.8398 19.1123 60.2446 19.1123 58.3474C19.1123 56.4501 20.5362 54.855 22.4214 54.6404C24.3066 54.4258 26.0526 55.6601 26.4791 57.5088ZM20.6257 58.3302C20.6257 59.54 21.6066 60.5208 22.8165 60.5208C24.0264 60.5208 25.0072 59.54 25.0072 58.3302C25.0072 57.1203 24.0264 56.1395 22.8165 56.1395C21.6066 56.1395 20.6257 57.1203 20.6257 58.3302Z" fill="#7CCAFF"/>
<path fill-rule="evenodd" clip-rule="evenodd" d="M40.9526 53.9673V57.3297C43.0028 57.792 44.3355 59.687 44.0113 61.6787C43.687 63.6705 41.815 65.0875 39.7149 64.931C37.6149 64.7745 35.9947 63.0972 35.9965 61.0814C35.9882 59.2777 37.2986 57.7138 39.1403 57.3297V53.7903C39.1403 53.5932 39.0584 53.4041 38.9128 53.2648C38.7671 53.1254 38.5696 53.0471 38.3636 53.0471H32.6308C31.2214 53.0471 30.0789 51.9537 30.0789 50.6049V29.8226L31.0405 29.3271L31.8911 28.9023V50.7819C31.8911 51.1728 32.2223 51.4897 32.6308 51.4897H38.3636C39.7934 51.4897 40.9526 52.599 40.9526 53.9673ZM37.6608 61.2582C37.6608 62.5093 38.7206 63.5234 40.0278 63.5234C40.6556 63.5234 41.2577 63.2848 41.7016 62.86C42.1455 62.4352 42.3949 61.859 42.3949 61.2582C42.3949 60.0072 41.3351 58.9931 40.0278 58.9931C38.7206 58.9931 37.6608 60.0072 37.6608 61.2582Z" fill="#7CCAFF"/>
<path fill-rule="evenodd" clip-rule="evenodd" d="M65.1261 38.4941C67.1202 38.4871 68.7943 37.0325 69.0247 35.1069C69.255 33.1813 67.9688 31.3921 66.0296 30.9405L66.0296 30.2378C66.0296 30.0421 66.1095 29.8545 66.2519 29.7161C66.3942 29.5777 66.5872 29.5 66.7885 29.5L74.0163 29.5L74.0163 56.5387C74.0163 57.1816 74.279 57.7982 74.7466 58.2528C75.2143 58.7075 75.8485 58.9629 76.5099 58.9629L80.2322 58.9629C80.6244 60.7123 82.2212 61.9571 84.0629 61.9492C86.1211 61.9509 87.8338 60.4119 87.9936 58.417C88.1534 56.4221 86.7064 54.6438 84.6728 54.3358C82.6391 54.0277 80.7043 55.2937 80.2322 57.2413L76.3653 57.2413C75.9661 57.2413 75.6425 56.9267 75.6425 56.5387L75.6425 22.3321L73.8717 22.3321L73.8717 27.7785L66.644 27.7785C65.2468 27.7785 64.1142 28.8795 64.1142 30.2378L64.1142 30.9405C62.3223 31.3337 61.0479 32.8787 61.0424 34.6646C61.0417 35.7051 61.4765 36.701 62.2468 37.4234C63.0171 38.1457 64.0566 38.5323 65.1261 38.4941ZM84.0628 55.8714C85.3402 55.8714 86.3757 56.8781 86.3757 58.1199C86.3757 59.3617 85.3402 60.3684 84.0628 60.3684C82.7855 60.3684 81.75 59.3617 81.75 58.1199C81.75 56.8781 82.7855 55.8714 84.0628 55.8714ZM67.2885 33.7793C66.9191 32.9403 66.0647 32.4016 65.1261 32.4159C63.8628 32.4351 62.8491 33.4362 62.8493 34.6644C62.8494 35.577 63.4169 36.3991 64.2856 36.7449C65.1543 37.0908 66.1519 36.8919 66.8105 36.2415C67.469 35.5911 67.6579 34.6183 67.2885 33.7793Z" fill="#7CCAFF"/>
</g>
</g>
<g filter="url(#filter3_d)">
<path d="M66.9909 42H39.1403C36.856 42 35 43.8766 35 46.1864V75.8143C35 78.1234 36.856 80 39.1403 80H66.9909C69.2752 80 71.1311 78.1234 71.1311 75.8143V46.1864C71.1311 43.8766 69.2752 42 66.9909 42Z" fill="url(#paint0_linear)"/>
<path d="M53.0657 54.3779C48.0843 54.3779 44.033 58.4744 44.033 63.5113C44.033 68.5483 48.0843 72.6448 53.0657 72.6448C58.0472 72.6448 62.0985 68.5483 62.0985 63.5113C62.0985 58.4744 58.0472 54.3779 53.0657 54.3779ZM53.0657 70.3614C49.3305 70.3614 46.2912 67.2882 46.2912 63.5113C46.2912 59.7345 49.3305 56.6613 53.0657 56.6613C56.8009 56.6613 59.8403 59.7345 59.8403 63.5113C59.8403 67.2882 56.8009 70.3614 53.0657 70.3614Z" fill="white" fill-opacity="0.83"/>
<path d="M55.6357 60.8201L52.0904 64.577L50.4419 63.05C49.9811 62.624 49.2676 62.6554 48.8463 63.1199C48.425 63.5858 48.4547 64.3072 48.9155 64.7332L51.3797 67.0166C51.5964 67.2178 51.8688 67.3163 52.1433 67.3163C52.4411 67.3163 52.7382 67.1978 52.9605 66.9616L57.2708 62.3949C57.7013 61.9397 57.685 61.2169 57.2334 60.7816C56.7839 60.347 56.0662 60.362 55.6357 60.8201Z" fill="white" fill-opacity="0.83"/>
<path d="M65.9636 48.0313H40.1679C39.5836 48.0313 39.1094 47.5518 39.1094 46.9609C39.1094 46.3701 39.5836 45.8906 40.1679 45.8906H65.9636C66.5479 45.8906 67.0221 46.3701 67.0221 46.9609C67.0221 47.5518 66.5479 48.0313 65.9636 48.0313Z" fill="#225FA4"/>
</g>
<defs>
<filter id="filter0_d" x="0.5" y="0.5" width="105.5" height="105.5" filterUnits="userSpaceOnUse" color-interpolation-filters="sRGB">
<feFlood flood-opacity="0" result="BackgroundImageFix"/>
<feColorMatrix in="SourceAlpha" type="matrix" values="0 0 0 0 0 0 0 0 0 0 0 0 0 0 0 0 0 0 127 0"/>
<feOffset dx="0.5" dy="0.5"/>
<feColorMatrix type="matrix" values="0 0 0 0 0.823529 0 0 0 0 0.831373 0 0 0 0 0.835294 0 0 0 1 0"/>
<feBlend mode="normal" in2="BackgroundImageFix" result="effect1_dropShadow"/>
<feBlend mode="normal" in="SourceGraphic" in2="effect1_dropShadow" result="shape"/>
</filter>
<filter id="filter1_d" x="4" y="12" width="98" height="67" filterUnits="userSpaceOnUse" color-interpolation-filters="sRGB">
<feFlood flood-opacity="0" result="BackgroundImageFix"/>
<feColorMatrix in="SourceAlpha" type="matrix" values="0 0 0 0 0 0 0 0 0 0 0 0 0 0 0 0 0 0 127 0"/>
<feOffset/>
<feGaussianBlur stdDeviation="5"/>
<feColorMatrix type="matrix" values="0 0 0 0 0 0 0 0 0 0 0 0 0 0 0 0 0 0 0.1 0"/>
<feBlend mode="normal" in2="BackgroundImageFix" result="effect1_dropShadow"/>
<feBlend mode="normal" in="SourceGraphic" in2="effect1_dropShadow" result="shape"/>
</filter>
<filter id="filter2_d" x="17.1123" y="20.332" width="72.8934" height="56.2569" filterUnits="userSpaceOnUse" color-interpolation-filters="sRGB">
<feFlood flood-opacity="0" result="BackgroundImageFix"/>
<feColorMatrix in="SourceAlpha" type="matrix" values="0 0 0 0 0 0 0 0 0 0 0 0 0 0 0 0 0 0 127 0"/>
<feOffset/>
<feGaussianBlur stdDeviation="1"/>
<feColorMatrix type="matrix" values="0 0 0 0 0 0 0 0 0 0 0 0 0 0 0 0 0 0 0.1 0"/>
<feBlend mode="normal" in2="BackgroundImageFix" result="effect1_dropShadow"/>
<feBlend mode="normal" in="SourceGraphic" in2="effect1_dropShadow" result="shape"/>
</filter>
<filter id="filter3_d" x="31" y="40" width="44.1311" height="46" filterUnits="userSpaceOnUse" color-interpolation-filters="sRGB">
<feFlood flood-opacity="0" result="BackgroundImageFix"/>
<feColorMatrix in="SourceAlpha" type="matrix" values="0 0 0 0 0 0 0 0 0 0 0 0 0 0 0 0 0 0 127 0"/>
<feOffset dy="2"/>
<feGaussianBlur stdDeviation="2"/>
<feColorMatrix type="matrix" values="0 0 0 0 0 0 0 0 0 0 0 0 0 0 0 0 0 0 0.2 0"/>
<feBlend mode="normal" in2="BackgroundImageFix" result="effect1_dropShadow"/>
<feBlend mode="normal" in="SourceGraphic" in2="effect1_dropShadow" result="shape"/>
</filter>
<linearGradient id="paint0_linear" x1="53.0656" y1="42" x2="53.0656" y2="80" gradientUnits="userSpaceOnUse">
<stop stop-color="#01AADE"/>
<stop offset="1" stop-color="#0181D9"/>
</linearGradient>
</defs>
</svg>
