<svg width="103" height="103" viewBox="0 0 103 103" fill="none" xmlns="http://www.w3.org/2000/svg">
<path d="M51.8442 98.6542C25.9942 98.6542 5.03418 77.7042 5.03418 51.8442C5.03418 25.9842 25.9942 5.03418 51.8442 5.03418C77.6942 5.03418 98.6542 25.9942 98.6542 51.8442C98.6542 77.6942 77.6942 98.6542 51.8442 98.6542Z" fill="#323237" stroke="#9B9BA0" stroke-width="0.3" stroke-miterlimit="10"/>
<path fill-rule="evenodd" clip-rule="evenodd" d="M97.7442 51.8443C97.7442 77.1943 77.1942 97.7443 51.8442 97.7443C26.4942 97.7443 5.94416 77.1943 5.94416 51.8443C5.94416 26.4943 26.4942 5.94435 51.8442 5.94435C77.1942 5.94435 97.7442 26.4943 97.7442 51.8443ZM51.8442 2.20435C79.2642 2.20435 101.484 24.4243 101.484 51.8443C101.484 79.2643 79.2542 101.484 51.8442 101.484C24.4242 101.484 2.20416 79.2543 2.20416 51.8443C2.20416 24.4243 24.4242 2.20435 51.8442 2.20435Z" fill="#F2F1F0"/>
<path fill-rule="evenodd" clip-rule="evenodd" d="M94.9342 51.8442C94.9342 75.6442 75.6442 94.9342 51.8442 94.9342C28.0442 94.9342 8.75416 75.6442 8.75416 51.8442C8.75416 28.0442 28.0442 8.75416 51.8442 8.75416C75.6442 8.75416 94.9342 28.0442 94.9342 51.8442ZM51.8442 5.01416C77.7042 5.01416 98.6742 25.9842 98.6742 51.8442C98.6742 77.7042 77.7042 98.6742 51.8442 98.6742C25.9842 98.6742 5.01416 77.7042 5.01416 51.8442C5.01416 25.9842 25.9742 5.01416 51.8442 5.01416Z" fill="#E92D2F"/>
<path opacity="0.2" d="M40.8842 83.2044H78.1542C79.8242 83.2044 81.1742 81.8543 81.1742 80.1843V25.4644H21.9942V80.1744C21.9942 81.8444 23.3442 83.1944 25.0142 83.1944H31.4642H40.8842V83.2044Z" fill="#1F1D21"/>
<path d="M40.8842 80.9443H79.1242C80.2542 80.9443 81.1742 80.0243 81.1742 78.8943V25.2543C81.1642 24.1243 80.2442 23.2043 79.1242 23.2043H24.0442C22.9142 23.2043 21.9942 24.1243 21.9942 25.2543V78.8843C21.9942 80.0143 22.9142 80.9343 24.0442 80.9343H31.4542H40.8842V80.9443Z" fill="#F2F1F0"/>
<path d="M81.1742 24.2243C81.1742 23.0943 80.2542 22.1743 79.1242 22.1743H24.0442C22.9142 22.1743 21.9942 23.0943 21.9942 24.2243V26.1743H81.1742V24.2243Z" fill="#91192B"/>
<path opacity="0.4" d="M43.6341 74.3142C43.0941 74.3142 42.5941 74.3842 42.1841 74.5042C41.3541 74.7542 40.4841 74.7942 39.6241 74.7942H34.4341C33.8541 74.7942 33.2941 74.6642 32.7341 74.5042C32.3341 74.3842 31.8241 74.3142 31.2841 74.3142C29.9141 74.3142 28.8041 74.7642 28.8041 75.3042C28.8041 75.8542 29.9141 76.2942 31.2841 76.2942C31.8141 76.2942 32.3141 76.2242 32.7141 76.1042C34.0441 75.7142 35.4541 75.6342 36.8441 75.6342H38.0441C39.4341 75.6342 40.8341 75.7142 42.1741 76.1042C42.5741 76.2242 43.0741 76.2942 43.6041 76.2942C44.9741 76.2942 46.0841 75.8442 46.0841 75.3042C46.1041 74.7642 44.9941 74.3142 43.6341 74.3142Z" fill="#1F1D20"/>
<path fill-rule="evenodd" clip-rule="evenodd" d="M30.9842 41.4941C31.7842 43.1641 31.2442 54.8841 30.3142 58.9841C29.3742 63.0941 28.4442 68.3341 28.2142 72.7341C28.1242 74.6041 28.4042 75.3541 29.6242 75.3541C31.7942 75.3541 34.5242 70.7941 37.9742 70.8941C41.4242 71.0041 42.5142 76.1241 44.1442 76.0941C45.7642 76.0541 47.0542 75.4941 47.0642 70.5041C47.1242 55.6041 34.6342 43.5341 30.9842 41.4941Z" fill="black"/>
<path fill-rule="evenodd" clip-rule="evenodd" d="M41.8142 53.4042C42.5642 54.6842 44.5142 53.6942 44.5942 52.2442C44.6742 50.8042 44.4642 48.9742 43.5242 48.9042C42.5842 48.8342 41.9042 47.8942 40.9742 47.8342C40.0342 47.7642 39.0242 48.7042 38.5942 47.4542C38.1542 46.2142 39.7742 45.6842 40.9742 45.4842C39.9042 44.4142 39.2742 43.2242 38.7942 41.9842C38.3242 40.7442 37.9642 39.6142 39.3042 39.1242C40.6242 38.6442 40.5142 41.1442 42.0242 42.2842C41.5742 40.5942 41.4142 39.9042 41.4442 38.9242C41.4842 37.9442 41.4042 37.2042 42.8042 37.3942C44.1942 37.5842 43.5942 40.4742 44.6742 41.6542C45.0042 40.5342 45.2042 39.1242 45.9942 38.5442C46.7842 37.9642 48.6042 37.9442 47.4442 40.3342C46.2842 42.7242 47.7842 44.0142 47.4342 45.8942C47.0842 47.7742 46.0042 47.4342 45.5342 48.6542C45.0642 49.8642 45.8042 52.6242 44.9342 53.8642C44.0542 55.1042 43.8942 57.0142 44.4642 58.5342C42.7242 56.8942 41.8142 53.4042 41.8142 53.4042Z" fill="black"/>
<path fill-rule="evenodd" clip-rule="evenodd" d="M30.9342 55.0042C30.2242 59.8342 27.7742 60.4142 27.6542 62.4242C27.5242 64.4242 28.3042 64.6141 28.2542 66.4841C28.2042 68.3341 26.5542 69.0942 26.3542 70.1042C26.1542 71.1142 27.2042 71.4341 27.8142 71.4341C28.4242 71.4341 29.0242 68.7742 29.2742 67.0642C29.5242 65.3642 28.4642 64.3641 28.4642 63.2141C28.4642 62.0441 29.9942 59.9241 29.7142 61.7841C30.9942 59.7641 31.5942 57.2242 30.9342 55.0042Z" fill="black"/>
<path fill-rule="evenodd" clip-rule="evenodd" d="M31.8742 56.8441C31.3442 59.4641 28.0042 74.0641 29.7042 74.2541C31.4042 74.4441 33.8142 69.7341 37.7842 69.7741C41.7442 69.8141 43.3142 75.0441 44.2842 75.0041C45.2542 74.9641 45.8842 75.3441 45.9842 69.4541C46.0942 63.5641 42.4842 56.0141 40.3642 52.6941C37.4642 52.8741 34.3542 55.1841 31.8742 56.8441Z" fill="white"/>
<path d="M40.3342 53.6641C40.1842 52.0241 38.9642 51.0041 37.3942 50.7541C35.8842 50.5041 34.2342 51.2241 33.1742 52.2841C31.9842 53.4741 31.9342 55.1341 32.7742 56.5541C33.6042 57.9441 35.4142 58.4041 36.9142 58.0641C38.9542 57.5741 40.4642 55.7941 40.3342 53.6641Z" fill="black"/>
<path d="M39.5742 54.2742C39.4342 55.7642 38.2442 56.9542 36.8142 57.3042C35.3042 57.6742 33.6342 57.0942 33.0842 55.5342C32.8142 54.7442 32.8642 53.9342 33.3342 53.2342C33.7342 52.6442 34.3842 52.1842 35.0342 51.8942C36.3542 51.2942 38.2542 51.2242 39.1742 52.5642C39.5242 53.0842 39.5842 53.6742 39.5742 54.2742Z" fill="url(#paint0_radial)" stroke="black"/>
<path d="M71.3542 38.6742H71.3442V38.6442H71.3142L65.2842 34.5742L59.2342 38.6442H59.2042V38.6742V46.6242H71.3442V38.6742H71.3542Z" fill="#50E6FF"/>
<path d="M59.1942 38.6741V46.6241L65.2742 42.6441L59.1942 38.6741Z" fill="#32BEDD"/>
<path d="M71.3342 38.6741L65.2742 42.6541L71.3342 46.6341V38.6741Z" fill="#198AB3"/>
<path d="M65.2642 42.6541L59.2042 46.6141V46.6241H71.3442V46.6141L65.2642 42.6541Z" fill="url(#paint1_linear)"/>
<path d="M54.2942 30.4941H56.0842V35.3841C56.0842 35.4941 56.0442 35.5941 55.9642 35.6641C55.8842 35.7341 55.7842 35.7841 55.6842 35.7841H53.9142C53.8042 35.7841 53.7042 35.7441 53.6342 35.6641C53.5542 35.5941 53.5142 35.4841 53.5142 35.3841V31.2741C53.5142 31.0641 53.5942 30.8641 53.7442 30.7241C53.8842 30.5741 54.0942 30.4941 54.2942 30.4941Z" fill="#B3B3B3"/>
<g opacity="0.5">
<path opacity="0.5" d="M54.2942 30.4941H56.0842V35.3841C56.0842 35.4941 56.0442 35.5941 55.9642 35.6641C55.8842 35.7341 55.7842 35.7841 55.6842 35.7841H53.9142C53.8042 35.7841 53.7042 35.7441 53.6342 35.6641C53.5542 35.5941 53.5142 35.4841 53.5142 35.3841V31.2741C53.5142 31.0641 53.5942 30.8641 53.7442 30.7241C53.8842 30.5741 54.0942 30.4941 54.2942 30.4941Z" fill="#B3B3B3"/>
</g>
<path d="M74.4642 30.4941H76.2542C76.4642 30.4941 76.6642 30.5741 76.8142 30.7241C76.9642 30.8741 77.0442 31.0741 77.0442 31.2741V35.3841C77.0442 35.4941 77.0042 35.5941 76.9242 35.6641C76.8442 35.7341 76.7442 35.7841 76.6442 35.7841H74.8542C74.7542 35.7841 74.6542 35.7341 74.5842 35.6641C74.5142 35.5941 74.4742 35.4941 74.4742 35.3841V30.4941H74.4642Z" fill="#B3B3B3"/>
<g opacity="0.5">
<path opacity="0.5" d="M74.4642 30.4941H76.2542C76.4642 30.4941 76.6642 30.5741 76.8142 30.7241C76.9642 30.8741 77.0442 31.0741 77.0442 31.2741V35.3841C77.0442 35.4941 77.0042 35.5941 76.9242 35.6641C76.8442 35.7341 76.7442 35.7841 76.6442 35.7841H74.8542C74.7542 35.7841 74.6542 35.7341 74.5842 35.6641C74.5142 35.5941 74.4742 35.4941 74.4742 35.3841V30.4941H74.4642Z" fill="#B3B3B3"/>
</g>
<path d="M77.0442 31.2741V32.9841H53.5142V31.2741C53.5142 31.0641 53.5942 30.8641 53.7442 30.7241C53.8942 30.5741 54.0942 30.4941 54.3042 30.4941H76.2742C76.4842 30.4941 76.6742 30.5841 76.8242 30.7241C76.9642 30.8741 77.0442 31.0641 77.0442 31.2741Z" fill="#B3B3B3"/>
<path d="M53.9142 45.9141H55.7042C55.8142 45.9141 55.9142 45.9541 55.9842 46.0341C56.0642 46.1041 56.1042 46.2141 56.1042 46.3141V51.2541H54.3042C54.2042 51.2541 54.0942 51.2341 54.0042 51.1941C53.9042 51.1541 53.8242 51.0941 53.7442 51.0241C53.5942 50.8741 53.5142 50.6741 53.5142 50.4741V46.3641C53.5042 46.3041 53.5142 46.2541 53.5342 46.2041C53.5542 46.1541 53.5842 46.1041 53.6142 46.0641C53.6542 46.0241 53.6942 45.9941 53.7542 45.9641C53.7942 45.9241 53.8542 45.9141 53.9142 45.9141Z" fill="#B3B3B3"/>
<g opacity="0.5">
<path opacity="0.5" d="M53.9142 45.9141H55.7042C55.8142 45.9141 55.9142 45.9541 55.9842 46.0341C56.0642 46.1041 56.1042 46.2141 56.1042 46.3141V51.2541H54.3042C54.2042 51.2541 54.0942 51.2341 54.0042 51.1941C53.9042 51.1541 53.8242 51.0941 53.7442 51.0241C53.5942 50.8741 53.5142 50.6741 53.5142 50.4741V46.3641C53.5042 46.3041 53.5142 46.2541 53.5342 46.2041C53.5542 46.1541 53.5842 46.1041 53.6142 46.0641C53.6542 46.0241 53.6942 45.9941 53.7542 45.9641C53.7942 45.9241 53.8542 45.9141 53.9142 45.9141Z" fill="#B3B3B3"/>
</g>
<path d="M74.8542 45.9141H76.6442C76.7542 45.9141 76.8542 45.9541 76.9242 46.0341C77.0042 46.1041 77.0442 46.2141 77.0442 46.3141V50.4241C77.0442 50.6341 76.9642 50.8341 76.8142 50.9741C76.6642 51.1241 76.4642 51.2041 76.2542 51.2041H74.4642V46.3541C74.4542 46.3041 74.4642 46.2441 74.4842 46.1941C74.5042 46.1441 74.5242 46.0941 74.5642 46.0541C74.6042 46.0141 74.6442 45.9841 74.6942 45.9541C74.7442 45.9241 74.7942 45.9141 74.8542 45.9141Z" fill="#B3B3B3"/>
<g opacity="0.5">
<path opacity="0.5" d="M74.8542 45.9141H76.6442C76.7542 45.9141 76.8542 45.9541 76.9242 46.0341C77.0042 46.1041 77.0442 46.2141 77.0442 46.3141V50.4241C77.0442 50.6341 76.9642 50.8341 76.8142 50.9741C76.6642 51.1241 76.4642 51.2041 76.2542 51.2041H74.4642V46.3541C74.4542 46.3041 74.4642 46.2441 74.4842 46.1941C74.5042 46.1441 74.5242 46.0941 74.5642 46.0541C74.6042 46.0141 74.6442 45.9841 74.6942 45.9541C74.7442 45.9241 74.7942 45.9141 74.8542 45.9141Z" fill="#B3B3B3"/>
</g>
<path d="M53.5142 50.4641V48.7542H77.0442V50.4641C77.0442 50.6741 76.9642 50.8741 76.8142 51.0141C76.6642 51.1641 76.4642 51.2442 76.2542 51.2442H54.2942C54.0842 51.2442 53.8842 51.1641 53.7342 51.0141C53.5942 50.8741 53.5142 50.6741 53.5142 50.4641Z" fill="#B3B3B3"/>
<defs>
<radialGradient id="paint0_radial" cx="0" cy="0" r="1" gradientUnits="userSpaceOnUse" gradientTransform="translate(34.6327 53.1345) scale(5.20355)">
<stop stop-color="white"/>
<stop offset="0.0604" stop-color="#FBC8B4"/>
<stop offset="0.0712" stop-color="#FBC3B0"/>
<stop offset="0.1829" stop-color="#F7978B"/>
<stop offset="0.2995" stop-color="#F4716B"/>
<stop offset="0.4199" stop-color="#F15251"/>
<stop offset="0.5453" stop-color="#EF3A3D"/>
<stop offset="0.6778" stop-color="#EE292F"/>
<stop offset="0.822" stop-color="#ED1F27"/>
<stop offset="1" stop-color="#ED1C24"/>
</radialGradient>
<linearGradient id="paint1_linear" x1="65.2677" y1="42.6507" x2="65.2677" y2="46.6263" gradientUnits="userSpaceOnUse">
<stop stop-color="#005BA1"/>
<stop offset="0.26" stop-color="#00589D"/>
<stop offset="0.53" stop-color="#004F90"/>
<stop offset="0.8" stop-color="#003F7C"/>
<stop offset="1" stop-color="#003067"/>
</linearGradient>
</defs>
</svg>
