<svg width="100" height="100" fill="none" xmlns="http://www.w3.org/2000/svg"><g clip-path="url(#a)"><path d="M49.64 96.45a46.81 46.81 0 1 1 0-93.62 46.81 46.81 0 0 1 0 93.62Z" fill="url(#b)"/><path fill-rule="evenodd" clip-rule="evenodd" d="M95.54 49.64a45.9 45.9 0 1 1-91.802 0 45.9 45.9 0 0 1 91.802 0ZM49.64 0a49.64 49.64 0 1 1 0 99.28 49.64 49.64 0 0 1 0-99.28Z" fill="#F2F1F0"/><path fill-rule="evenodd" clip-rule="evenodd" d="M92.73 49.64a43.09 43.09 0 1 1-86.18 0 43.09 43.09 0 0 1 86.18 0ZM49.64 2.81a46.83 46.83 0 1 1 0 93.66 46.83 46.83 0 0 1 0-93.66Z" fill="#0078D4"/><path fill-rule="evenodd" clip-rule="evenodd" d="M92.73 49.64a43.09 43.09 0 1 1-86.18 0 43.09 43.09 0 0 1 86.18 0ZM49.64 2.81a46.83 46.83 0 1 1 0 93.659 46.83 46.83 0 0 1 0-93.66Z" fill="#0078D4"/><path d="M49.767 50.994c10.653 0 19.288-8.635 19.288-19.287S60.42 12.419 49.767 12.419c-10.652 0-19.287 8.636-19.287 19.288 0 10.652 8.635 19.287 19.287 19.287Z" fill="url(#c)"/><path d="M49.768 51.495a19.788 19.788 0 1 1 19.787-19.788 19.81 19.81 0 0 1-19.787 19.788Zm0-38.576a18.787 18.787 0 1 0 18.787 18.788 18.81 18.81 0 0 0-18.787-18.788Z" fill="#552F99"/><path d="M55.064 33.687a2.071 2.071 0 0 1 2.07 2.07v.846c0 .527-.165 1.042-.471 1.471-1.423 1.992-3.747 2.978-6.895 2.978-3.15 0-5.472-.987-6.892-2.979a2.532 2.532 0 0 1-.47-1.469v-.847a2.07 2.07 0 0 1 2.07-2.07h10.588Zm-5.297-11.042a4.602 4.602 0 1 1 0 9.204 4.602 4.602 0 0 1 0-9.204Z" fill="#552F99"/><path d="M49.767 50.994c10.653 0 19.288-8.635 19.288-19.287S60.42 12.419 49.767 12.419c-10.652 0-19.287 8.636-19.287 19.288 0 10.652 8.635 19.287 19.287 19.287Z" fill="url(#d)"/><path d="M49.768 51.495a19.788 19.788 0 1 1 19.787-19.788 19.81 19.81 0 0 1-19.787 19.788Zm0-38.576a18.787 18.787 0 1 0 18.787 18.788 18.81 18.81 0 0 0-18.787-18.788Z" fill="#003067"/><path d="M55.064 33.687a2.071 2.071 0 0 1 2.07 2.07v.846c0 .527-.165 1.042-.471 1.471-1.423 1.992-3.747 2.978-6.895 2.978-3.15 0-5.472-.987-6.892-2.979a2.532 2.532 0 0 1-.47-1.469v-.847a2.07 2.07 0 0 1 2.07-2.07h10.588Zm-5.297-11.042a4.602 4.602 0 1 1 0 9.204 4.602 4.602 0 0 1 0-9.204Z" fill="#003067"/><path opacity=".2" d="M49.768 51.494a19.814 19.814 0 0 0 19.413-15.99 21.638 21.638 0 0 0-18.76.306c-.36.18-.702.361-1.03.546a21.775 21.775 0 0 0-19.106-1.306 19.804 19.804 0 0 0 19.483 16.444Z" fill="#000C1A"/><path d="M60.603 74.59c10.652 0 19.288-8.635 19.288-19.288 0-10.652-8.636-19.287-19.288-19.287-10.652 0-19.287 8.635-19.287 19.288 0 10.652 8.635 19.287 19.287 19.287Z" fill="url(#e)"/><path d="M60.603 75.09a19.787 19.787 0 1 1 19.788-19.788A19.81 19.81 0 0 1 60.603 75.09Zm0-38.575a18.787 18.787 0 1 0 18.788 18.788 18.81 18.81 0 0 0-18.788-18.788Z" fill="#552F99"/><path d="M65.9 57.283a2.07 2.07 0 0 1 2.07 2.07v.845c0 .528-.165 1.043-.472 1.472-1.423 1.991-3.747 2.978-6.895 2.978-3.149 0-5.471-.987-6.891-2.98a2.531 2.531 0 0 1-.47-1.468v-.847a2.068 2.068 0 0 1 2.07-2.07H65.9ZM60.603 46.24a4.602 4.602 0 1 1 0 9.204 4.602 4.602 0 0 1 0-9.204Z" fill="#552F99"/><path opacity=".2" d="M60.872 55.303a21.846 21.846 0 0 0-9.056-17.704 19.746 19.746 0 0 0 0 35.407 21.845 21.845 0 0 0 9.056-17.703Z" fill="#001834"/><path d="M39.008 74.59c10.652 0 19.287-8.635 19.287-19.288 0-10.652-8.635-19.287-19.287-19.287S19.72 44.65 19.72 55.303c0 10.652 8.636 19.287 19.288 19.287Z" fill="url(#f)"/><path d="M39.008 75.166a19.864 19.864 0 1 1 19.864-19.863 19.886 19.886 0 0 1-19.864 19.863Zm0-38.575A18.712 18.712 0 1 0 57.72 55.303 18.732 18.732 0 0 0 39.008 36.59Z" fill="#1F56A3"/><path d="M35.73 48.945a3 3 0 1 1 5.92.002l2.43-.907a2.36 2.36 0 0 1 1.767 4.372l-3.157 1.375v3.111l1.883 5.466a2.316 2.316 0 0 1-4.365 1.55l-1.515-4.148-1.512 4.15a2.32 2.32 0 0 1-4.373-1.551l1.882-5.454v-3.12l-3.307-1.456a2.35 2.35 0 0 1 1.768-4.352l2.58.962Zm1.46-.495a1.5 1.5 0 0 0 .896 1.374 1.75 1.75 0 0 0 1.187.009 1.5 1.5 0 1 0-2.083-1.383Zm.33 2.763-4.893-1.824a.85.85 0 0 0-.64 1.573l3.755 1.653a.75.75 0 0 1 .448.687v3.734a.749.749 0 0 1-.04.245l-1.924 5.573a.82.82 0 0 0 1.545.548l1.65-4.526a1.354 1.354 0 0 1 2.544-.001l1.652 4.523a.816.816 0 0 0 1.538-.545l-1.924-5.585a.752.752 0 0 1-.04-.244v-3.729a.75.75 0 0 1 .45-.687l3.607-1.571a.859.859 0 0 0-.643-1.592l-4.78 1.783a3.01 3.01 0 0 1-2.305-.015Z" fill="#fff"/><path d="M37.19 48.45a1.5 1.5 0 0 0 .896 1.374 1.75 1.75 0 0 0 1.187.009 1.5 1.5 0 1 0-2.083-1.383Zm.33 2.763-4.893-1.824a.85.85 0 0 0-.64 1.573l3.755 1.653a.75.75 0 0 1 .448.687v3.734a.749.749 0 0 1-.041.245l-1.923 5.573a.82.82 0 0 0 1.545.548l1.65-4.526a1.354 1.354 0 0 1 2.543-.001l1.653 4.523a.816.816 0 0 0 1.538-.545l-1.924-5.585a.752.752 0 0 1-.041-.244v-3.728a.75.75 0 0 1 .45-.688l3.608-1.571a.858.858 0 0 0-.643-1.592l-4.781 1.783a3.01 3.01 0 0 1-2.304-.015Z" fill="url(#g)"/><path opacity=".2" fill-rule="evenodd" clip-rule="evenodd" d="M49.736 62.648a10.488 10.488 0 0 0-10.311 12.501 19.738 19.738 0 0 0 10.42-3.242 19.66 19.66 0 0 0 10.215 3.164 10.47 10.47 0 0 0-10.324-12.423Z" fill="#003067"/><path fill-rule="evenodd" clip-rule="evenodd" d="M49.77 81.661a8.507 8.507 0 1 1 0-17.014 8.507 8.507 0 0 1 0 17.014Z" fill="url(#h)"/><path d="M49.77 66.162a6.993 6.993 0 1 1-6.992 6.993 7 7 0 0 1 6.993-6.993Zm0-1.514a8.506 8.506 0 1 0 0 17.012 8.506 8.506 0 0 0 0-17.012Z" fill="url(#i)"/><path d="M49.77 70.372v5.392M47.075 73.068h5.392" stroke="#0078D4" stroke-miterlimit="10" stroke-linecap="round"/><g opacity=".2" stroke="#767676" stroke-miterlimit="10" stroke-linecap="round"><path opacity=".2" d="M47.075 73.598h5.392M49.77 76.294v-5.392"/></g><path d="M47.075 73.068h5.392M49.77 75.764v-5.392" stroke="#0078D4" stroke-miterlimit="10" stroke-linecap="round"/></g><defs><linearGradient id="b" x1="47.87" y1="-15.153" x2="51.852" y2="130.615" gradientUnits="userSpaceOnUse"><stop stop-color="#00ABDE"/><stop offset="1" stop-color="#007ED8"/></linearGradient><linearGradient id="c" x1="49.767" y1="50.994" x2="49.767" y2="12.35" gradientUnits="userSpaceOnUse"><stop stop-color="#552F99"/><stop offset="1" stop-color="#A67AF4"/></linearGradient><linearGradient id="d" x1="49.767" y1="50.994" x2="49.767" y2="12.35" gradientUnits="userSpaceOnUse"><stop stop-color="#003067"/><stop offset=".2" stop-color="#003F7C"/><stop offset=".47" stop-color="#004F90"/><stop offset=".74" stop-color="#00589D"/><stop offset="1" stop-color="#005BA1"/></linearGradient><linearGradient id="e" x1="2379.08" y1="2913.33" x2="2379.08" y2="1422.63" gradientUnits="userSpaceOnUse"><stop stop-color="#552F99"/><stop offset="1" stop-color="#A67AF4"/></linearGradient><linearGradient id="f" x1="39.008" y1="74.59" x2="39.008" y2="36.015" gradientUnits="userSpaceOnUse"><stop stop-color="#004DAE"/><stop offset=".21" stop-color="#0061C4"/><stop offset=".51" stop-color="#0078DD"/><stop offset=".78" stop-color="#0086EC"/><stop offset="1" stop-color="#008BF1"/></linearGradient><linearGradient id="g" x1="38.622" y1="63.941" x2="38.622" y2="46.92" gradientUnits="userSpaceOnUse"><stop stop-color="#005BA1"/><stop offset=".26" stop-color="#00589D"/><stop offset=".53" stop-color="#004F90"/><stop offset=".8" stop-color="#003F7C"/><stop offset="1" stop-color="#003067"/></linearGradient><linearGradient id="h" x1="54.025" y1="80.523" x2="45.517" y2="65.786" gradientUnits="userSpaceOnUse"><stop offset=".001" stop-color="#E8E8E8"/><stop offset=".995" stop-color="#fff"/></linearGradient><linearGradient id="i" x1="49.771" y1="81.661" x2="49.771" y2="64.648" gradientUnits="userSpaceOnUse"><stop stop-color="#E8E8E8"/><stop offset="1" stop-color="#fff"/></linearGradient><clipPath id="a"><path fill="#fff" d="M0 0h99.28v99.28H0z"/></clipPath></defs></svg>