<svg width="100" height="100" viewBox="0 0 100 100" fill="none" xmlns="http://www.w3.org/2000/svg">
<g clip-path="url(#clip0)">
<path d="M49.6401 96.4481C40.382 96.4481 31.3317 93.7028 23.6339 88.5592C15.936 83.4157 9.93624 76.105 6.3933 67.5516C2.85036 58.9981 1.92337 49.5862 3.72954 40.506C5.53571 31.4257 9.99394 23.085 16.5404 16.5385C23.0869 9.99198 31.4277 5.53376 40.5079 3.72759C49.5882 1.92141 59.0001 2.84841 67.5535 6.39135C76.1069 9.93428 83.4176 15.934 88.5612 23.6319C93.7047 31.3298 96.4501 40.38 96.4501 49.6381C96.4505 55.7854 95.24 61.8726 92.8878 67.5521C90.5355 73.2315 87.0875 78.392 82.7407 82.7388C78.3939 87.0856 73.2335 90.5335 67.554 92.8858C61.8746 95.2381 55.7874 96.4486 49.6401 96.4481V96.4481Z" fill="url(#paint0_linear)"/>
<path fill-rule="evenodd" clip-rule="evenodd" d="M95.54 49.64C95.54 58.7182 92.848 67.5925 87.8045 75.1407C82.7609 82.6889 75.5923 88.572 67.2052 92.0461C58.818 95.5201 49.5891 96.4291 40.6854 94.658C31.7816 92.887 23.603 88.5154 17.1838 82.0962C10.7646 75.677 6.39302 67.4984 4.62196 58.5946C2.85089 49.6909 3.75987 40.462 7.23393 32.0748C10.708 23.6877 16.5911 16.5191 24.1393 11.4755C31.6875 6.43199 40.5618 3.74 49.64 3.74C55.6677 3.73998 61.6363 4.9272 67.2052 7.23388C72.774 9.54057 77.834 12.9215 82.0963 17.1837C86.3585 21.446 89.7394 26.5059 92.0461 32.0748C94.3528 37.6437 95.54 43.6123 95.54 49.64V49.64ZM49.64 3.62732e-07C59.4579 3.62732e-07 69.0553 2.91134 77.2185 8.36585C85.3818 13.8204 91.7442 21.5731 95.5014 30.6436C99.2585 39.7141 100.242 49.6951 98.3262 59.3243C96.4108 68.9535 91.6831 77.7985 84.7408 84.7408C77.7985 91.6831 68.9535 96.4108 59.3243 98.3262C49.6951 100.242 39.7141 99.2585 30.6436 95.5014C21.5731 91.7442 13.8204 85.3818 8.36585 77.2185C2.91134 69.0553 3.62732e-07 59.4579 3.62732e-07 49.64C-0.000787738 43.121 1.28265 36.6656 3.77702 30.6427C6.27138 24.6197 9.9278 19.1471 14.5375 14.5375C19.1471 9.9278 24.6197 6.27138 30.6427 3.77702C36.6656 1.28265 43.121 -0.000787738 49.64 3.62732e-07V3.62732e-07Z" fill="#F2F1F0"/>
<path fill-rule="evenodd" clip-rule="evenodd" d="M92.7296 49.6386C92.7296 58.161 90.2024 66.492 85.4676 73.5781C80.7328 80.6643 74.0031 86.1872 66.1294 89.4486C58.2557 92.71 49.5918 93.5633 41.2331 91.9007C32.8745 90.238 25.1966 86.1341 19.1703 80.1079C13.1441 74.0816 9.04017 66.4037 7.37753 58.0451C5.7149 49.6864 6.56822 41.0225 9.8296 33.1488C13.091 25.2751 18.6139 18.5454 25.7 13.8106C32.7862 9.07581 41.1172 6.54862 49.6396 6.54862C55.2983 6.54828 60.9017 7.6626 66.1298 9.82795C71.3579 11.9933 76.1082 15.1673 80.1096 19.1686C84.1109 23.17 87.2849 27.9203 89.4502 33.1484C91.6156 38.3765 92.7299 43.9799 92.7296 49.6386V49.6386ZM49.6396 2.80862C58.9017 2.80862 67.9558 5.55515 75.6569 10.7009C83.3581 15.8466 89.3604 23.1605 92.9049 31.7176C96.4493 40.2746 97.3767 49.6906 95.5697 58.7747C93.7628 67.8588 89.3027 76.2031 82.7534 82.7524C76.2041 89.3017 67.8598 93.7619 58.7757 95.5688C49.6915 97.3757 40.2756 96.4484 31.7185 92.9039C23.1614 89.3594 15.8476 83.3571 10.7018 75.656C5.5561 67.9548 2.80957 58.9007 2.80957 49.6386C2.81076 37.2189 7.745 25.3082 16.5271 16.5261C25.3091 7.74403 37.2198 2.80979 49.6396 2.80859V2.80862Z" fill="#0078D4"/>
<path fill-rule="evenodd" clip-rule="evenodd" d="M92.7296 49.6386C92.7296 58.161 90.2024 66.492 85.4676 73.5781C80.7328 80.6642 74.0031 86.1872 66.1294 89.4486C58.2557 92.7099 49.5918 93.5633 41.2331 91.9006C32.8745 90.238 25.1966 86.1341 19.1703 80.1078C13.1441 74.0816 9.04017 66.4037 7.37753 58.045C5.7149 49.6864 6.56822 41.0224 9.8296 33.1488C13.091 25.2751 18.6139 18.5454 25.7001 13.8106C32.7862 9.07578 41.1172 6.54859 49.6396 6.54859C55.2983 6.54825 60.9017 7.66257 66.1298 9.82792C71.3579 11.9933 76.1082 15.1673 80.1096 19.1686C84.1109 23.1699 87.2849 27.9203 89.4502 33.1484C91.6156 38.3764 92.7299 43.9798 92.7296 49.6386V49.6386ZM49.6396 2.80859C58.9017 2.80859 67.9558 5.55513 75.6569 10.7009C83.3581 15.8466 89.3604 23.1605 92.9048 31.7175C96.4493 40.2746 97.3767 49.6905 95.5697 58.7747C93.7628 67.8588 89.3027 76.2031 82.7534 82.7524C76.2041 89.3017 67.8598 93.7618 58.7757 95.5688C49.6915 97.3757 40.2756 96.4483 31.7185 92.9039C23.1614 89.3594 15.8476 83.3571 10.7018 75.656C5.5561 67.9548 2.80957 58.9007 2.80957 49.6386C2.81076 37.2189 7.74501 25.3082 16.5271 16.5261C25.3091 7.74403 37.2198 2.80979 49.6396 2.80859V2.80859Z" fill="#0078D4"/>
<path d="M67.1028 59.1472V26.9985C67.1028 26.2918 66.9636 25.5921 66.6932 24.9392C66.4228 24.2863 66.0264 23.693 65.5267 23.1933C65.027 22.6936 64.4337 22.2973 63.7808 22.0268C63.128 21.7564 62.4282 21.6172 61.7215 21.6172H29.573C28.8663 21.6172 28.1665 21.7564 27.5136 22.0268C26.8607 22.2973 26.2675 22.6936 25.7678 23.1933C25.2681 23.693 24.8717 24.2863 24.6013 24.9392C24.3308 25.5921 24.1917 26.2918 24.1917 26.9985V59.1472C24.1907 59.854 24.3295 60.554 24.6 61.207C24.8705 61.8601 25.2674 62.4532 25.7679 62.9523L43.1104 45.6096C43.4435 45.2765 43.839 45.0123 44.2743 44.832C44.7095 44.6517 45.176 44.5589 45.6472 44.5589C46.1183 44.5589 46.5848 44.6517 47.0201 44.832C47.4553 45.0123 47.8508 45.2765 48.1839 45.6096L65.5266 62.9523C66.0271 62.4532 66.4239 61.8601 66.6944 61.207C66.9649 60.554 67.1037 59.854 67.1028 59.1472V59.1472Z" fill="url(#paint1_linear)"/>
<path d="M25.7678 62.9559C26.2669 63.4564 26.8601 63.8533 27.5131 64.1238C28.1661 64.3943 28.8661 64.5331 29.573 64.5322H61.7215C62.4283 64.5331 63.1283 64.3943 63.7813 64.1238C64.4344 63.8533 65.0275 63.4564 65.5266 62.9559L48.184 45.6133C47.8508 45.2801 47.4553 45.0159 47.0201 44.8356C46.5848 44.6553 46.1183 44.5625 45.6472 44.5625C45.1761 44.5625 44.7095 44.6553 44.2743 44.8356C43.839 45.0159 43.4435 45.2801 43.1104 45.6133L25.7678 62.9559Z" fill="url(#paint2_linear)"/>
<path d="M52.6387 39.982C55.0931 39.982 57.0828 37.9923 57.0828 35.5379C57.0828 33.0834 55.0931 31.0938 52.6387 31.0938C50.1843 31.0938 48.1946 33.0834 48.1946 35.5379C48.1946 37.9923 50.1843 39.982 52.6387 39.982Z" fill="white"/>
<path opacity="0.2" d="M65.5266 62.9527C66.0271 62.4536 66.424 61.8605 66.6945 61.2075C66.965 60.5544 67.1038 59.8544 67.1029 59.1476V50.442C64.7726 49.8337 62.3139 49.933 60.0403 50.7274C60.0698 50.5709 60.0859 50.4122 60.0884 50.2529C60.0875 49.5044 59.7898 48.7868 59.2605 48.2576C58.7312 47.7283 58.0136 47.4306 57.2651 47.4297H52.1128C51.3644 47.4305 50.647 47.7282 50.1179 48.2574C49.5888 48.7866 49.2912 49.5041 49.2905 50.2524V55.7554C49.2912 56.5037 49.5888 57.2212 50.1179 57.7504C50.647 58.2796 51.3644 58.5773 52.1128 58.5781H52.1226C52.1672 58.578 52.2097 58.567 52.2541 58.5648C51.826 59.8346 51.6067 61.1654 51.605 62.5054C51.6063 63.1836 51.6645 63.8605 51.7792 64.5289H61.7216C62.4284 64.5299 63.1284 64.3911 63.7814 64.1206C64.4344 63.8501 65.0275 63.4532 65.5266 62.9527V62.9527Z" fill="#003067"/>
<path d="M52.1129 56.5783C52.0049 56.5783 51.8979 56.5571 51.798 56.5157C51.6982 56.4744 51.6075 56.4137 51.5311 56.3373C51.4546 56.2609 51.394 56.1702 51.3527 56.0704C51.3113 55.9705 51.29 55.8635 51.29 55.7555V55.7555V50.2526C51.29 50.1445 51.3113 50.0375 51.3527 49.9377C51.394 49.8378 51.4546 49.7471 51.5311 49.6707C51.6075 49.5943 51.6982 49.5337 51.798 49.4923C51.8979 49.451 52.0049 49.4297 52.1129 49.4297H57.265C57.4828 49.4305 57.6913 49.5175 57.845 49.6717C57.9987 49.826 58.0851 50.0348 58.0851 50.2526C58.0851 50.4703 57.9987 50.6792 57.845 50.8334C57.6913 50.9877 57.4828 51.0747 57.265 51.0754H52.9358V55.7525C52.9362 55.8606 52.9153 55.9677 52.8743 56.0677C52.8333 56.1676 52.773 56.2586 52.6969 56.3353C52.6207 56.4119 52.5302 56.4729 52.4306 56.5146C52.3309 56.5563 52.2239 56.578 52.1159 56.5783H52.1129ZM77.5198 55.7555V50.2526C77.5195 50.0345 77.4326 49.8254 77.2784 49.6711C77.1242 49.5169 76.9151 49.4301 76.697 49.4297H71.5448C71.4365 49.4293 71.3292 49.4503 71.2291 49.4914C71.1289 49.5326 71.0378 49.5931 70.9611 49.6696C70.8844 49.746 70.8235 49.8368 70.7819 49.9369C70.7404 50.0369 70.719 50.1441 70.719 50.2524C70.7189 50.3607 70.7403 50.468 70.7818 50.568C70.8233 50.668 70.8842 50.7589 70.9609 50.8353C71.0376 50.9118 71.1286 50.9724 71.2288 51.0136C71.3289 51.0548 71.4362 51.0758 71.5446 51.0754H75.8741V55.7525C75.8748 55.9703 75.9619 56.1789 76.1161 56.3326C76.2704 56.4863 76.4792 56.5726 76.697 56.5726C76.9147 56.5726 77.1236 56.4863 77.2778 56.3326C77.432 56.1789 77.5191 55.9703 77.5198 55.7525V55.7555ZM58.0879 74.9155C58.0879 74.6972 58.0012 74.4879 57.8469 74.3336C57.6926 74.1793 57.4833 74.0926 57.265 74.0926H52.9358V69.4155C52.9351 69.1978 52.848 68.9892 52.6938 68.8355C52.5396 68.6818 52.3307 68.5955 52.113 68.5955C51.8952 68.5955 51.6863 68.6818 51.5321 68.8355C51.3779 68.9892 51.2908 69.1978 51.2901 69.4155V74.9185C51.2909 75.1362 51.3779 75.3448 51.5321 75.4984C51.6864 75.6521 51.8952 75.7384 52.113 75.7384H57.2651C57.3731 75.7384 57.4801 75.7171 57.58 75.6758C57.6798 75.6344 57.7705 75.5738 57.8469 75.4974C57.9234 75.421 57.984 75.3302 58.0253 75.2304C58.0667 75.1305 58.0879 75.0235 58.0879 74.9155V74.9155ZM77.5198 74.9155V69.4126C77.5191 69.1948 77.432 68.9863 77.2778 68.8326C77.1235 68.6789 76.9147 68.5926 76.6969 68.5926C76.4792 68.5926 76.2703 68.6789 76.1161 68.8326C75.9618 68.9863 75.8748 69.1948 75.8741 69.4126V74.0897H71.5448C71.3266 74.0897 71.1173 74.1764 70.963 74.3307C70.8087 74.485 70.722 74.6943 70.722 74.9125C70.722 75.1308 70.8087 75.3401 70.963 75.4944C71.1173 75.6487 71.3266 75.7354 71.5448 75.7354H76.697C76.9146 75.7351 77.1232 75.6486 77.2774 75.495C77.4315 75.3414 77.5187 75.1331 77.5198 74.9155H77.5198Z" fill="#50E6FF"/>
<path d="M64.0615 72.9633C69.8363 72.9633 74.5177 68.2818 74.5177 62.507C74.5177 56.7322 69.8363 52.0508 64.0615 52.0508C58.2866 52.0508 53.6052 56.7322 53.6052 62.507C53.6052 68.2818 58.2866 72.9633 64.0615 72.9633Z" fill="#0078D4"/>
<path d="M64.0614 71.7391C69.0517 71.7391 73.097 67.6937 73.097 62.7035C73.097 57.7133 69.0517 53.668 64.0614 53.668C59.0712 53.668 55.0259 57.7133 55.0259 62.7035C55.0259 67.6937 59.0712 71.7391 64.0614 71.7391Z" fill="url(#paint3_linear)"/>
<path d="M64.0615 69.933C68.1355 69.933 71.4381 66.6304 71.4381 62.5564C71.4381 58.4823 68.1355 55.1797 64.0615 55.1797C59.9875 55.1797 56.6848 58.4823 56.6848 62.5564C56.6848 66.6304 59.9875 69.933 64.0615 69.933Z" fill="#5EA0EF"/>
<path d="M64.0616 67.5065C66.7698 67.5065 68.9653 65.3111 68.9653 62.6029C68.9653 59.8947 66.7698 57.6992 64.0616 57.6992C61.3534 57.6992 59.158 59.8947 59.158 62.6029C59.158 65.3111 61.3534 67.5065 64.0616 67.5065Z" fill="#005BA1"/>
<path d="M62.4479 62.2708C63.2616 62.2708 63.9212 61.6112 63.9212 60.7975C63.9212 59.9838 63.2616 59.3242 62.4479 59.3242C61.6342 59.3242 60.9746 59.9838 60.9746 60.7975C60.9746 61.6112 61.6342 62.2708 62.4479 62.2708Z" fill="white"/>
<path d="M64.0615 63.3067C64.4224 63.3067 64.7149 63.0142 64.7149 62.6533C64.7149 62.2925 64.4224 62 64.0615 62C63.7007 62 63.4082 62.2925 63.4082 62.6533C63.4082 63.0142 63.7007 63.3067 64.0615 63.3067Z" fill="white"/>
</g>
<defs>
<linearGradient id="paint0_linear" x1="47.8698" y1="-15.155" x2="51.8525" y2="130.613" gradientUnits="userSpaceOnUse">
<stop stop-color="#00ABDE"/>
<stop offset="1" stop-color="#007ED8"/>
</linearGradient>
<linearGradient id="paint1_linear" x1="45.6472" y1="21.6172" x2="45.6472" y2="62.9523" gradientUnits="userSpaceOnUse">
<stop stop-color="#008BF1"/>
<stop offset="0.22" stop-color="#0086EC"/>
<stop offset="0.49" stop-color="#0078DD"/>
<stop offset="0.79" stop-color="#0061C4"/>
<stop offset="1" stop-color="#004DAE"/>
</linearGradient>
<linearGradient id="paint2_linear" x1="45.6472" y1="44.5625" x2="45.6472" y2="64.5679" gradientUnits="userSpaceOnUse">
<stop stop-color="#005BA1"/>
<stop offset="0.26" stop-color="#00589D"/>
<stop offset="0.53" stop-color="#004F90"/>
<stop offset="0.8" stop-color="#003F7C"/>
<stop offset="1" stop-color="#003067"/>
</linearGradient>
<linearGradient id="paint3_linear" x1="64.0614" y1="71.7391" x2="64.0614" y2="53.668" gradientUnits="userSpaceOnUse">
<stop stop-color="#5EA0EF"/>
<stop offset="1" stop-color="#0078D4"/>
</linearGradient>
<clipPath id="clip0">
<rect width="99.2799" height="99.28" fill="white"/>
</clipPath>
</defs>
</svg>
