<?xml version="1.0" encoding="UTF-8"?>
<svg width="100px" height="100px" viewBox="0 0 100 100" version="1.1" xmlns="http://www.w3.org/2000/svg" xmlns:xlink="http://www.w3.org/1999/xlink">
    <!-- Generator: Sketch 55.1 (78136) - https://sketchapp.com -->
    <title>Azure Solution Architect - Networking Infrastructure/connect-your-on-premises-network-to-the-microsoft-global-network-with-expressroute</title>
    <desc>Created with Sketch.</desc>
    <defs>
        <rect id="path-1" x="0" y="0" width="96" height="96" rx="48"></rect>
        <filter x="-8.1%" y="-8.3%" width="116.1%" height="116.7%" filterUnits="objectBoundingBox" id="filter-3">
            <feOffset dx="0" dy="1" in="SourceAlpha" result="shadowOffsetOuter1"></feOffset>
            <feColorMatrix values="0 0 0 0 0   0 0 0 0 0   0 0 0 0 0  0 0 0 0.101024683 0" type="matrix" in="shadowOffsetOuter1" result="shadowMatrixOuter1"></feColorMatrix>
            <feMerge>
                <feMergeNode in="shadowMatrixOuter1"></feMergeNode>
                <feMergeNode in="SourceGraphic"></feMergeNode>
            </feMerge>
        </filter>
        <filter x="-10.8%" y="-17.4%" width="121.6%" height="134.8%" filterUnits="objectBoundingBox" id="filter-4">
            <feOffset dx="0" dy="2" in="SourceAlpha" result="shadowOffsetOuter1"></feOffset>
            <feColorMatrix values="0 0 0 0 0   0 0 0 0 0   0 0 0 0 0  0 0 0 0.0964956975 0" type="matrix" in="shadowOffsetOuter1" result="shadowMatrixOuter1"></feColorMatrix>
            <feMerge>
                <feMergeNode in="shadowMatrixOuter1"></feMergeNode>
                <feMergeNode in="SourceGraphic"></feMergeNode>
            </feMerge>
        </filter>
    </defs>
    <g id="Badges" stroke="none" stroke-width="1" fill="none" fill-rule="evenodd">
        <g id="Azure-Solution-Architect---Networking-Infrastructure-2" transform="translate(-50.000000, -460.000000)">
            <g id="Azure-Solution-Architect---Networking-Infrastructure/connect-your-on-premises-network-to-the-microsoft-global-network-with-expressroute" transform="translate(50.000000, 460.000000)">
                <g id="Mask" transform="translate(2.000000, 2.000000)">
                    <mask id="mask-2" fill="white">
                        <use xlink:href="#path-1"></use>
                    </mask>
                    <use id="BG" fill="#55A2FF" xlink:href="#path-1"></use>
                    <g id="Network-Stack" filter="url(#filter-3)" mask="url(#mask-2)">
                        <g transform="translate(32.000000, 52.000000)">
                            <polygon id="Fill-425" fill="#182A37" points="13.9166667 12 16.9166667 12 16.9166667 8 13.9166667 8"></polygon>
                            <polygon id="Fill-426" fill="#182A37" points="13.9166667 22 16.9166667 22 16.9166667 18 13.9166667 18"></polygon>
                            <path d="M29.0416667,22 L2.79166667,22.0004444 C1.75619792,22.0004444 0.916666667,22.7964002 0.916666667,23.7781234 L0.916666667,28.222321 C0.916666667,29.2040442 1.75619792,30 2.79166667,30 L29.0416667,30 C30.0771354,30 30.9166667,29.2035998 30.9166667,28.2218766 L30.9166667,23.777679 C30.9166667,22.7959558 30.0771354,22 29.0416667,22" id="Fill-427" fill="#30404D"></path>
                            <path d="M8.20941823,26.7070609 C7.81933291,26.3169756 7.8188328,25.683337 8.20941823,25.2927516 C8.59950356,24.9021661 9.23364227,24.9026662 9.62372759,25.2927516 C10.014313,25.6828369 10.014313,26.3169756 9.62372759,26.7070609 C9.23364227,27.0976464 8.59950356,27.0976464 8.20941823,26.7070609" id="Fill-428" fill="#EFB252"></path>
                            <path d="M5.20923981,26.7070609 C4.81914229,26.3169756 4.81914229,25.683337 5.20923981,25.2927516 C5.59983746,24.9021661 6.23349587,24.9026662 6.62409352,25.2927516 C7.01419105,25.6828369 7.01419105,26.3169756 6.62409352,26.7070609 C6.23349587,27.0976464 5.59933733,27.0976464 5.20923981,26.7070609" id="Fill-429" fill="#EFB252"></path>
                            <path d="M15.7854507,28 C15.7854507,28.5525 15.3622495,29 14.8397497,29 L1.08784326,29 C1.41552866,29.5955 2.01841304,30 2.71681323,30 L29.0252647,30 C30.0697914,30 30.9166667,29.104 30.9166667,27.9995 L30.9166667,22.9995 C30.9166667,22.6335 30.8168952,22.295 30.6547075,22 L16.7311517,22 C16.2086519,22 15.7854507,22.4475 15.7854507,23 L15.7854507,28 Z" id="Fill-430" fill="#182A37"></path>
                            <path d="M26.9166667,25 L20.9166667,25 C20.3646667,25 19.9166667,25.448 19.9166667,26 C19.9166667,26.5515 20.3646667,27 20.9166667,27 L26.9166667,27 C27.4686667,27 27.9166667,26.5515 27.9166667,26 C27.9166667,25.448 27.4686667,25 26.9166667,25" id="Fill-431" fill="#7CB65A"></path>
                            <path d="M20.9166667,25.4 L26.9166667,25.4 C27.3816667,25.4 27.7696667,25.6556 27.8811667,26 C27.9021667,25.9356 27.9166667,25.8696 27.9166667,25.8 C27.9166667,25.3584 27.4686667,25 26.9166667,25 L20.9166667,25 C20.3646667,25 19.9166667,25.3584 19.9166667,25.8 C19.9166667,25.8696 19.9311667,25.9356 19.9521667,26 C20.0636667,25.6556 20.4516667,25.4 20.9166667,25.4" id="Fill-432" fill="#69994E"></path>
                            <path d="M29.0416667,11 L2.79166667,11 C1.75619792,11 0.916666667,11.796 0.916666667,12.7777778 L0.916666667,17.2222222 C0.916666667,18.204 1.75619792,19 2.79166667,19 L29.0416667,19 C30.0771354,19 30.9166667,18.2035556 30.9166667,17.2217778 L30.9166667,12.7773333 C30.9166667,11.7955556 30.0771354,11 29.0416667,11" id="Fill-435" fill="#30404D"></path>
                            <path d="M8.20941823,14.7070609 C7.81933291,14.3169756 7.8188328,13.683337 8.20941823,13.2927516 C8.59950356,12.9021661 9.23364227,12.9026662 9.62372759,13.2927516 C10.014313,13.6828369 10.014313,14.3169756 9.62372759,14.7070609 C9.23364227,15.0976464 8.59950356,15.0976464 8.20941823,14.7070609" id="Fill-436" fill="#EFB252"></path>
                            <path d="M5.20923981,14.7070609 C4.81914229,14.3169756 4.81914229,13.6828369 5.20923981,13.2927516 C5.59983746,12.9021661 6.23349587,12.9026662 6.62409352,13.2927516 C7.01419105,13.6828369 7.01419105,14.3169756 6.62409352,14.7070609 C6.23349587,15.0976464 5.59933733,15.0976464 5.20923981,14.7070609" id="Fill-437" fill="#EFB252"></path>
                            <path d="M15.7854507,17 C15.7854507,17.5525 15.3622495,18 14.8397497,18 L1.11559304,18 C1.44327844,18.5955 2.04616283,19 2.74456302,19 L29.0252647,19 C30.0697914,19 30.9166667,18.104 30.9166667,16.9995 L30.9166667,11.9995 C30.9166667,11.6335 30.8168952,11.295 30.6547075,11 L16.7311517,11 C16.2086519,11 15.7854507,11.4475 15.7854507,12 L15.7854507,17 Z" id="Fill-438" fill="#182A37"></path>
                            <path d="M26.9166667,14 L20.9166667,14 C20.3646667,14 19.9166667,14.448 19.9166667,15 C19.9166667,15.5515 20.3646667,16 20.9166667,16 L26.9166667,16 C27.4686667,16 27.9166667,15.5515 27.9166667,15 C27.9166667,14.448 27.4686667,14 26.9166667,14" id="Fill-439" fill="#7CB65A"></path>
                            <path d="M20.9166667,14.4 L26.9166667,14.4 C27.3816667,14.4 27.7696667,14.6556 27.8811667,15 C27.9021667,14.9356 27.9166667,14.8696 27.9166667,14.8 C27.9166667,14.3584 27.4686667,14 26.9166667,14 L20.9166667,14 C20.3646667,14 19.9166667,14.3584 19.9166667,14.8 C19.9166667,14.8696 19.9311667,14.9356 19.9521667,15 C20.0636667,14.6556 20.4516667,14.4 20.9166667,14.4" id="Fill-440" fill="#69994E"></path>
                            <path d="M29.0416667,9.09494702e-13 L2.79166667,9.09494702e-13 C1.75619792,9.09494702e-13 0.916666667,0.8955 0.916666667,2 L0.916666667,7 C0.916666667,8.1045 1.75619792,9 2.79166667,9 L29.0416667,9 C30.0771354,9 30.9166667,8.104 30.9166667,6.9995 L30.9166667,1.9995 C30.9166667,0.895 30.0771354,9.09494702e-13 29.0416667,9.09494702e-13" id="Fill-443" fill="#30404D"></path>
                            <path d="M8.20941823,4.70706092 C7.81933291,4.3169756 7.8188328,3.683337 8.20941823,3.29275157 C8.59950356,2.90216613 9.23364227,2.90266624 9.62372759,3.29275157 C10.014313,3.68283689 10.014313,4.3169756 9.62372759,4.70706092 C9.23364227,5.09764636 8.59950356,5.09764636 8.20941823,4.70706092" id="Fill-444" fill="#EFB252"></path>
                            <path d="M5.20923981,4.70706092 C4.81914229,4.3169756 4.81914229,3.68283689 5.20923981,3.29275157 C5.59983746,2.90216613 6.23349587,2.90266624 6.62409352,3.29275157 C7.01419105,3.68283689 7.01419105,4.3169756 6.62409352,4.70706092 C6.23349587,5.09764636 5.59933733,5.09764636 5.20923981,4.70706092" id="Fill-445" fill="#EFB252"></path>
                            <path d="M15.7854507,7 C15.7854507,7.5525 15.3622495,8 14.8397497,8 L1.22599218,8 C1.55367758,8.5955 2.15656197,9 2.85496216,9 L29.0252647,9 C30.0697914,9 30.9166667,8.104 30.9166667,6.9995 L30.9166667,1.9995 C30.9166667,1.6335 30.8168952,1.295 30.6547075,1 L16.7311517,1 C16.2086519,1 15.7854507,1.4475 15.7854507,2 L15.7854507,7 Z" id="Fill-446" fill="#182A37"></path>
                            <path d="M26.9166667,3 L20.9166667,3 C20.3646667,3 19.9166667,3.448 19.9166667,4 C19.9166667,4.5515 20.3646667,5 20.9166667,5 L26.9166667,5 C27.4686667,5 27.9166667,4.5515 27.9166667,4 C27.9166667,3.448 27.4686667,3 26.9166667,3" id="Fill-447" fill="#7CB65A"></path>
                            <path d="M20.9166667,3.4 L26.9166667,3.4 C27.3816667,3.4 27.7696667,3.6556 27.8811667,4 C27.9021667,3.9356 27.9166667,3.8696 27.9166667,3.8 C27.9166667,3.3584 27.4686667,3 26.9166667,3 L20.9166667,3 C20.3646667,3 19.9166667,3.3584 19.9166667,3.8 C19.9166667,3.8696 19.9311667,3.9356 19.9521667,4 C20.0636667,3.6556 20.4516667,3.4 20.9166667,3.4" id="Fill-448" fill="#69994E"></path>
                            <path d="M13.9166667,19 L13.9166667,19.5 L14.9166667,19.5 C15.1926667,19.5 15.4166667,19.724 15.4166667,20 L15.4166667,21 L16.9166667,21 L16.9166667,19 L13.9166667,19" id="Fill-451" fill="#12202B"></path>
                            <path d="M13.9166667,8 L13.9166667,8.5 L14.9166667,8.5 C15.1926667,8.5 15.4166667,8.724 15.4166667,9 L15.4166667,10 L16.9166667,10 L16.9166667,8 L13.9166667,8" id="Fill-452" fill="#12202B"></path>
                        </g>
                    </g>
                    <g id="Cloud" filter="url(#filter-4)" mask="url(#mask-2)">
                        <g transform="translate(29.000000, 10.000000)">
                            <path d="M8.44642857,6.9 C8.50324107,6.9 8.55836607,6.907475 8.61461607,6.908625 C9.39311607,2.967575 12.7990536,0 16.8839286,0 C20.5356786,0 23.6361786,2.375325 24.8106786,5.69365 C25.4766786,5.36475 26.2203036,5.175 27.0089286,5.175 C29.8051161,5.175 32.0714286,7.491675 32.0714286,10.35 C32.0714286,10.43165 32.0629911,10.510425 32.0596161,10.590925 C34.6617411,11.339 36.5714286,13.776425 36.5714286,16.675 C36.5714286,20.168125 33.8011161,23 30.3839286,23 L8.44642857,23 C4.09717857,23 0.571428571,19.3959 0.571428571,14.95 C0.571428571,10.5041 4.09717857,6.9 8.44642857,6.9 L26.1403418,16.8328645" id="Fill-11" fill="#FFFFFF" fill-rule="evenodd"></path>
                            <path d="M32.0686905,10.60022 C32.0717341,10.5275462 32.072523,9.9126143 32.0655948,9.84054968 C31.9405266,8.53963977 31.2946685,7.15215015 30.1528197,6.30290502 C30.6996491,7.07324718 30.9449348,7.61038055 30.9449348,8.63560007 C30.9449348,9.00000721 30.9744681,9.98157071 30.9556687,10.2498047 C31.318857,10.3309362 31.7065048,10.4964003 32.0686905,10.60022 Z" id="Fill-12" fill="#C4CBCD" fill-rule="evenodd"></path>
                            <path d="M30.0894074,23 C33.9447977,23 36.4462201,20.2557864 36.5673131,16.7091988 C36.6478514,14.3543027 35.5920839,12.7122227 33.8562268,11.4991663 C34.7204426,12.8332909 35.0576486,14.0688427 34.760628,15.8551929 C34.3453703,18.3519288 32.5015576,20.4053412 30.1351029,21.0178042 C28.8127899,21.3602374 27.547025,21.2480712 26.4257722,20.8231454 C27.0557986,19.937092 27.3739354,18.7697548 27.3739354,17.5834047 C27.3739354,15.8053631 26.5925607,14.3097923 25.3068041,13.3388724 C26.0819137,14.4474777 26.4634709,15.8724036 26.2138594,17.3976261 C25.8551498,19.5922849 24.1535643,21.3608309 22.0418619,21.7341246 C21.6031853,21.811276 21.1730766,21.8302671 20.7572477,21.7976261 C19.1276326,21.6682493 17.7836142,20.4249258 17.3300866,18.7934718 C17.2238446,18.410089 17.1507318,18.0172107 17.1507318,17.6587537 C17.1507318,17.4433234 17.1655828,17.2320475 17.1907154,17.0237389 C17.2912454,16.1418398 17.5968339,15.325816 18.0595007,14.6296736 C17.4026281,14.9038576 16.708628,15.1020772 15.9837834,15.2005935 C15.9934937,15.031454 16.0083448,14.8635015 16.0083448,14.6913947 C16.0083448,11.9424332 14.7180186,9.51275964 12.7382619,8 C13.9360547,9.69376855 14.542091,11.8676558 14.1999461,14.2011869 C13.6818736,17.735905 10.9418583,20.5827893 7.53982965,21.1210682 C5.29389674,21.4765579 3.77936877,20.8532481 2.14918247,19.6087377 C3.60515475,21.665711 5.36586712,23 8.0116355,23 L22.2914735,23 L30.0894074,23 Z" id="Fill-13" fill="#E6E6E6" fill-rule="evenodd"></path>
                            <path d="M23.7214845,12 C24.4133143,10.7576368 24.8107536,8.73632465 24.9663928,7.2593044 C25.2581794,4.49024198 23.423283,2.89024064 21.4583356,1.35287937 C22.4737022,2.7610034 23.1984332,4.19631822 23.1984332,6.09329616 C23.1984332,8.32516713 22.3599334,10.347449 21,11.8527819 C21.3602044,11.7640016 21.7338895,11.7123067 22.1199769,11.7123067 C22.6818526,11.7123067 23.2194631,11.8168203 23.7214845,12 Z" id="Fill-14" fill="#E6E6E6" fill-rule="evenodd"></path>
                            <circle id="Oval" fill="#FFFFFF" fill-rule="nonzero" cx="18.0714286" cy="13.5" r="9.5"></circle>
                        </g>
                    </g>
                    <g id="microsoft" mask="url(#mask-2)" fill-rule="nonzero">
                        <g transform="translate(43.000000, 19.000000)" id="Rectangle-path">
                            <rect fill="#E86C60" x="0" y="0.0587093267" width="4" height="4"></rect>
                            <polygon fill="#72C472" points="5 0 9 0 9 4 5 4"></polygon>
                            <polygon fill="#43A6DD" points="0 5 4 5 4 9 0 9"></polygon>
                            <polygon fill="#EFD358" points="5 5 9 5 9 9 5 9"></polygon>
                        </g>
                    </g>
                    <g id="Dots" mask="url(#mask-2)" fill="#FFFFFF">
                        <g transform="translate(46.000000, 36.000000)">
                            <path d="M0.58492696,6.5 C0.58492696,5.6675 1.25242696,5 2.08492696,5 C2.90992696,5 3.58492696,5.6675 3.58492696,6.5 C3.58492696,7.325 2.90992696,8 2.08492696,8 C1.25242696,8 0.58492696,7.325 0.58492696,6.5" id="Fill-860"></path>
                            <path d="M0.58492696,1.5 C0.58492696,0.6675 1.25242696,0 2.08492696,0 C2.90992696,0 3.58492696,0.6675 3.58492696,1.5 C3.58492696,2.325 2.90992696,3 2.08492696,3 C1.25242696,3 0.58492696,2.325 0.58492696,1.5" id="Fill-860"></path>
                            <path d="M2.1,13 C1.7025,13 1.32,12.8351031 1.0425,12.5577764 C0.7575,12.2729544 0.6,11.8906933 0.6,11.4934416 C0.6,11.0886946 0.7575,10.7064335 1.0425,10.4216115 C1.5975,9.85946284 2.6025,9.85946284 3.1575,10.4216115 C3.4425,10.7064335 3.6,11.0886946 3.6,11.4934416 C3.6,11.8906933 3.4425,12.2729544 3.1575,12.5577764 C2.88,12.8351031 2.49,13 2.1,13" id="Fill-861"></path>
                        </g>
                    </g>
                </g>
                <g id="Azure-Border" stroke="#0078D4" stroke-width="4">
                    <rect x="2" y="2" width="96" height="96" rx="48"></rect>
                </g>
            </g>
        </g>
    </g>
</svg>