<svg width="103" height="103" viewBox="0 0 103 103" fill="none" xmlns="http://www.w3.org/2000/svg">
<path d="M51.2504 98.0568C25.4004 98.0568 4.44043 77.1068 4.44043 51.2468C4.44043 25.3868 25.4004 4.43677 51.2504 4.43677C77.1004 4.43677 98.0604 25.3968 98.0604 51.2468C98.0604 77.0968 77.1004 98.0568 51.2504 98.0568Z" fill="url(#paint0_linear)"/>
<path fill-rule="evenodd" clip-rule="evenodd" d="M97.1504 51.2468C97.1504 76.5968 76.6004 97.1468 51.2504 97.1468C25.9004 97.1468 5.35035 76.5968 5.35035 51.2468C5.35035 25.8968 25.9004 5.34681 51.2504 5.34681C76.6004 5.34681 97.1504 25.8968 97.1504 51.2468ZM51.2504 1.60681C78.6704 1.60681 100.89 23.8268 100.89 51.2468C100.89 78.6668 78.6604 100.887 51.2504 100.887C23.8304 100.887 1.61035 78.6568 1.61035 51.2468C1.61035 23.8268 23.8304 1.60681 51.2504 1.60681Z" fill="#F2F1F0"/>
<path fill-rule="evenodd" clip-rule="evenodd" d="M94.3399 51.2469C94.3399 75.0469 75.0499 94.3369 51.2499 94.3369C27.4499 94.3369 8.15992 75.0469 8.15992 51.2469C8.15992 27.4469 27.4499 8.15687 51.2499 8.15687C75.0499 8.15687 94.3399 27.4469 94.3399 51.2469ZM51.2499 4.41687C77.1099 4.41687 98.0799 25.3869 98.0799 51.2469C98.0799 77.1069 77.1099 98.0769 51.2499 98.0769C25.3899 98.0769 4.41992 77.1069 4.41992 51.2469C4.41992 25.3869 25.3799 4.41687 51.2499 4.41687Z" fill="url(#paint1_linear)"/>
<path opacity="0.2" d="M29.4997 71.8468H53.3097C54.3697 71.8468 55.2397 70.9868 55.2397 69.9168V34.9668H17.4297V69.9168C17.4297 70.9768 18.2897 71.8468 19.3597 71.8468H23.4797H29.4997V71.8468Z" fill="#1F1D21"/>
<path d="M29.4997 69.9768H53.9297C54.6597 69.9768 55.2397 69.3868 55.2397 68.6668V34.4068C55.2297 33.6768 54.6497 33.0968 53.9297 33.0968H18.7397C18.0097 33.0968 17.4297 33.6868 17.4297 34.4068V68.6668C17.4297 69.3968 18.0197 69.9768 18.7397 69.9768H23.4797H29.4997V69.9768Z" fill="#F2F2F2"/>
<path d="M55.2297 33.7568C55.2297 33.0268 54.6397 32.4468 53.9197 32.4468H18.7397C18.0097 32.4468 17.4297 33.0368 17.4297 33.7568V34.9968H55.2397V33.7568H55.2297Z" fill="#0D3868"/>
<g opacity="0.15">
<path opacity="0.15" d="M25.8994 44.9468V51.5468C25.8994 51.6968 26.0194 51.8168 26.1694 51.8168H35.4094C35.5394 51.8168 35.6494 51.7068 35.6494 51.5768V42.2968C35.6494 42.0368 35.4094 41.8268 35.1494 41.8768C34.6394 41.9668 33.8194 42.1568 33.0094 42.5868C31.7194 43.2668 30.9394 43.9468 29.2694 44.2568C28.1094 44.4668 26.9294 44.5068 26.3194 44.5068C26.0894 44.5168 25.8994 44.7068 25.8994 44.9468Z" fill="#1F1D20"/>
<path opacity="0.15" d="M46.7698 44.9468V51.5468C46.7698 51.6968 46.6498 51.8168 46.4998 51.8168H37.2898C37.1598 51.8168 37.0498 51.7068 37.0498 51.5768V41.8168C37.0498 41.8168 38.3898 41.9068 39.6898 42.5968C40.9798 43.2768 41.7598 43.9568 43.4298 44.2668C44.5898 44.4768 45.7498 44.5168 46.3498 44.5168C46.5798 44.5168 46.7698 44.7068 46.7698 44.9468Z" fill="#1F1D20"/>
<path opacity="0.15" d="M37.0498 64.0468V53.4168C37.0498 53.2868 37.1598 53.1768 37.2898 53.1768H46.5298C46.6598 53.1768 46.7498 53.2968 46.7198 53.4168C46.4998 54.2568 45.6098 57.1368 43.1298 59.6868C40.9198 61.9668 38.2898 63.6668 37.3798 64.2168C37.2298 64.3168 37.0498 64.2168 37.0498 64.0468Z" fill="#1F1D20"/>
<path opacity="0.15" d="M35.6191 64.0468V53.4168C35.6191 53.2868 35.5092 53.1768 35.3792 53.1768H26.1391C26.0091 53.1768 25.9192 53.2968 25.9492 53.4168C26.1692 54.2568 27.0592 57.1368 29.5392 59.6868C31.7492 61.9668 34.3792 63.6668 35.2892 64.2168C35.4292 64.3168 35.6191 64.2168 35.6191 64.0468Z" fill="#1F1D20"/>
</g>
<path d="M25.8994 44.2768V50.8768C25.8994 51.0268 26.0194 51.1468 26.1694 51.1468H35.4094C35.5394 51.1468 35.6494 51.0368 35.6494 50.9068V41.6268C35.6494 41.3668 35.4094 41.1568 35.1494 41.2068C34.6394 41.2968 33.8194 41.4867 33.0094 41.9167C31.7194 42.5967 30.9394 43.2768 29.2694 43.5868C28.1094 43.7968 26.9294 43.8368 26.3194 43.8368C26.0894 43.8568 25.8994 44.0468 25.8994 44.2768Z" fill="#0078D6"/>
<path d="M46.7698 44.2767V50.8767C46.7698 51.0267 46.6498 51.1467 46.4998 51.1467H37.2898C37.1598 51.1467 37.0498 51.0367 37.0498 50.9067V41.1467C37.0498 41.1467 38.3898 41.2367 39.6898 41.9267C40.9798 42.6067 41.7598 43.2867 43.4298 43.5967C44.5898 43.8067 45.7498 43.8467 46.3498 43.8467C46.5798 43.8567 46.7698 44.0467 46.7698 44.2767Z" fill="#0078D6"/>
<path d="M37.0498 63.3867V52.7567C37.0498 52.6267 37.1598 52.5167 37.2898 52.5167H46.5298C46.6598 52.5167 46.7498 52.6367 46.7198 52.7567C46.4998 53.5967 45.6098 56.4767 43.1298 59.0267C40.9198 61.3067 38.2898 63.0067 37.3798 63.5567C37.2298 63.6567 37.0498 63.5567 37.0498 63.3867Z" fill="#0078D6"/>
<path d="M35.6191 63.3867V52.7567C35.6191 52.6267 35.5092 52.5167 35.3792 52.5167H26.1391C26.0091 52.5167 25.9192 52.6367 25.9492 52.7567C26.1692 53.5967 27.0592 56.4767 29.5392 59.0267C31.7492 61.3067 34.3792 63.0067 35.2892 63.5567C35.4292 63.6567 35.6191 63.5567 35.6191 63.3867Z" fill="#0078D6"/>
<path d="M73.5398 66.1367V71.6667C73.5398 71.9767 73.2798 72.2367 72.9698 72.2367C72.6598 72.2367 72.3998 71.9767 72.3998 71.6667V66.1367H70.2598V75.1967H75.6798V66.1367H73.5398Z" fill="url(#paint2_linear)"/>
<path d="M85.2096 52.3767H60.9796C60.3296 52.3767 59.8096 52.9067 59.8096 53.5467V69.5267C59.8096 70.1667 60.3396 70.6967 60.9796 70.6967H85.2096C85.8496 70.6967 86.3796 70.1667 86.3796 69.5267V53.5467C86.3796 52.9067 85.8596 52.3767 85.2096 52.3767Z" fill="url(#paint3_linear)"/>
<path d="M84.3996 53.7667H61.7896C61.5496 53.7667 61.3496 53.9567 61.3496 54.2067V68.8667C61.3496 69.1067 61.5396 69.3067 61.7896 69.3067H84.3996C84.6396 69.3067 84.8396 69.1167 84.8396 68.8667V54.2067C84.8396 53.9667 84.6496 53.7667 84.3996 53.7667Z" fill="#EBEBEB"/>
<path d="M79.1093 75.5267H66.8293C66.5493 75.5267 66.3193 75.2967 66.3193 75.0167C66.3193 74.7367 66.5493 74.5067 66.8293 74.5067H79.0993C79.3793 74.5067 79.6093 74.7367 79.6093 75.0167C79.6093 75.2967 79.3793 75.5267 79.1093 75.5267Z" fill="url(#paint4_linear)"/>
<path d="M73.4298 67.3967C76.6798 67.3967 79.3098 64.7667 79.3098 61.5167C79.3098 58.2667 76.6798 55.6367 73.4298 55.6367C70.1798 55.6367 67.5498 58.2667 67.5498 61.5167C67.5598 64.7667 70.1898 67.3967 73.4298 67.3967Z" fill="#84ECFD"/>
<path d="M76.6301 58.5367L71.7901 63.3967L70.3401 61.9367L69.3701 62.9167L71.7901 65.3467L77.6101 59.5167L76.6301 58.5367Z" fill="#1D4A79"/>
<path d="M73.5398 42.0469V47.5769C73.5398 47.8869 73.2798 48.1469 72.9698 48.1469C72.6598 48.1469 72.3998 47.8869 72.3998 47.5769V42.0469H70.2598V51.1069H75.6798V42.0469H73.5398Z" fill="url(#paint5_linear)"/>
<path d="M85.2096 28.2869H60.9796C60.3296 28.2869 59.8096 28.8169 59.8096 29.4569V45.4369C59.8096 46.0769 60.3396 46.6069 60.9796 46.6069H85.2096C85.8496 46.6069 86.3796 46.0769 86.3796 45.4369V29.4569C86.3796 28.8069 85.8596 28.2869 85.2096 28.2869Z" fill="url(#paint6_linear)"/>
<path d="M84.3996 29.6769H61.7896C61.5496 29.6769 61.3496 29.8669 61.3496 30.1169V44.7769C61.3496 45.0169 61.5396 45.2169 61.7896 45.2169H84.3996C84.6396 45.2169 84.8396 45.0269 84.8396 44.7769V30.1169C84.8396 29.8769 84.6496 29.6769 84.3996 29.6769Z" fill="#EBEBEB"/>
<path d="M79.1093 51.4369H66.8293C66.5493 51.4369 66.3193 51.2069 66.3193 50.9269C66.3193 50.6469 66.5493 50.4169 66.8293 50.4169H79.0993C79.3793 50.4169 79.6093 50.6469 79.6093 50.9269C79.6093 51.2069 79.3793 51.4369 79.1093 51.4369Z" fill="url(#paint7_linear)"/>
<path d="M73.4298 43.3069C76.6798 43.3069 79.3098 40.6769 79.3098 37.4269C79.3098 34.1769 76.6798 31.5469 73.4298 31.5469C70.1798 31.5469 67.5498 34.1769 67.5498 37.4269C67.5598 40.6769 70.1898 43.3069 73.4298 43.3069Z" fill="#84ECFD"/>
<path d="M76.6301 34.4469L71.7901 39.3069L70.3401 37.8469L69.3701 38.8269L71.7901 41.2469L77.6101 35.4169L76.6301 34.4469Z" fill="#1D4A79"/>
<defs>
<linearGradient id="paint0_linear" x1="45.7426" y1="-6.19123" x2="53.6796" y2="76.5805" gradientUnits="userSpaceOnUse">
<stop stop-color="#5FADE2"/>
<stop offset="0.4975" stop-color="#128DE1"/>
<stop offset="1" stop-color="#0078D6"/>
</linearGradient>
<linearGradient id="paint1_linear" x1="2.68312" y1="-20.3776" x2="98.2111" y2="120.504" gradientUnits="userSpaceOnUse">
<stop stop-color="#007ED8"/>
<stop offset="0.7065" stop-color="#002D4C"/>
</linearGradient>
<linearGradient id="paint2_linear" x1="73.1226" y1="68.8224" x2="72.72" y2="73.6539" gradientUnits="userSpaceOnUse">
<stop stop-color="#0D3FB3"/>
<stop offset="0.7814" stop-color="#092F4F"/>
<stop offset="1" stop-color="#092E4C"/>
</linearGradient>
<linearGradient id="paint3_linear" x1="74.0017" y1="50.7994" x2="71.5222" y2="80.233" gradientUnits="userSpaceOnUse">
<stop stop-color="#0D3FB3"/>
<stop offset="0.7814" stop-color="#092F4F"/>
<stop offset="1" stop-color="#092E4C"/>
</linearGradient>
<linearGradient id="paint4_linear" x1="72.5027" y1="70.0241" x2="73.3884" y2="79.526" gradientUnits="userSpaceOnUse">
<stop stop-color="#0D3FB3"/>
<stop offset="0.7814" stop-color="#092F4F"/>
<stop offset="1" stop-color="#092E4C"/>
</linearGradient>
<linearGradient id="paint5_linear" x1="73.1226" y1="44.7308" x2="72.72" y2="49.5619" gradientUnits="userSpaceOnUse">
<stop stop-color="#0D3FB3"/>
<stop offset="0.7814" stop-color="#092F4F"/>
<stop offset="1" stop-color="#092E4C"/>
</linearGradient>
<linearGradient id="paint6_linear" x1="74.0017" y1="26.7079" x2="71.5222" y2="56.1414" gradientUnits="userSpaceOnUse">
<stop stop-color="#0D3FB3"/>
<stop offset="0.7814" stop-color="#092F4F"/>
<stop offset="1" stop-color="#092E4C"/>
</linearGradient>
<linearGradient id="paint7_linear" x1="72.5027" y1="45.932" x2="73.3884" y2="55.4339" gradientUnits="userSpaceOnUse">
<stop stop-color="#0D3FB3"/>
<stop offset="0.7814" stop-color="#092F4F"/>
<stop offset="1" stop-color="#092E4C"/>
</linearGradient>
</defs>
</svg>
