<svg width="103" height="103" viewBox="0 0 103 103" fill="none" xmlns="http://www.w3.org/2000/svg">
<path d="M51.3952 98.4083C25.5452 98.4083 4.58521 77.3064 4.58521 51.2589C4.58521 25.2113 25.5452 4.10938 51.3952 4.10938C77.2452 4.10938 98.2052 25.2214 98.2052 51.2589C98.2052 77.2963 77.2452 98.4083 51.3952 98.4083Z" fill="#92C4FC"/>
<path fill-rule="evenodd" clip-rule="evenodd" d="M97.2951 51.2588C97.2951 76.7926 76.7451 97.4917 51.3951 97.4917C26.0451 97.4917 5.49513 76.7926 5.49513 51.2588C5.49513 25.7249 26.0451 5.02591 51.3951 5.02591C76.7451 5.02591 97.2951 25.7249 97.2951 51.2588ZM51.3951 1.25879C78.8151 1.25879 101.035 23.6399 101.035 51.2588C101.035 78.8776 78.8051 101.259 51.3951 101.259C23.9751 101.259 1.75513 78.8676 1.75513 51.2588C1.75513 23.6399 23.9751 1.25879 51.3951 1.25879Z" fill="#F2F1F0"/>
<path fill-rule="evenodd" clip-rule="evenodd" d="M94.4852 51.2587C94.4852 75.2313 75.1952 94.6612 51.3952 94.6612C27.5952 94.6612 8.30519 75.2313 8.30519 51.2587C8.30519 27.2861 27.5952 7.85623 51.3952 7.85623C75.1952 7.85623 94.4852 27.2861 94.4852 51.2587ZM51.3952 4.08911C77.2552 4.08911 98.2252 25.2112 98.2252 51.2587C98.2252 77.3063 77.2552 98.4284 51.3952 98.4284C25.5352 98.4284 4.56519 77.3063 4.56519 51.2587C4.56519 25.2112 25.5252 4.08911 51.3952 4.08911Z" fill="#0078D4"/>
<path d="M51.3953 87.2379C71.1229 87.2379 87.1153 71.1295 87.1153 51.2588C87.1153 31.3882 71.1229 15.2798 51.3953 15.2798C31.6677 15.2798 15.6753 31.3882 15.6753 51.2588C15.6753 71.1295 31.6677 87.2379 51.3953 87.2379Z" fill="#F2F1F0"/>
<path fill-rule="evenodd" clip-rule="evenodd" d="M50.1152 65.3604V28.8475C50.1152 27.941 49.8552 27.105 49.4452 26.3596C49.3952 26.2589 49.3352 26.1481 49.2752 26.0473C49.2752 26.0373 49.2652 26.0373 49.2652 26.0373C48.1852 24.1739 46.1852 22.9148 43.8952 22.9148C40.7552 22.9148 38.1552 25.2718 37.7352 28.3237C37.4552 28.2935 37.1652 28.2834 36.8752 28.2834C31.9952 28.2834 28.0452 32.2722 28.0452 37.1876C28.0452 37.943 28.1452 38.6783 28.3252 39.3733C25.0652 42.9893 23.0652 47.7939 23.0652 53.0619C23.0652 61.7947 28.5152 69.2182 36.1752 72.1191C36.1852 72.2198 36.1952 72.3306 36.2152 72.4414C36.8852 75.9466 39.6952 78.7669 43.1752 79.4418C45.1052 79.8145 46.9452 79.5627 48.5452 78.8475C49.4952 78.4245 50.1252 77.4877 50.1252 76.4402L50.1152 65.3604Z" fill="url(#paint0_linear)"/>
<path fill-rule="evenodd" clip-rule="evenodd" d="M52.6753 65.3604V28.8475C52.6753 27.941 52.9353 27.105 53.3453 26.3596C53.3953 26.2589 53.4553 26.1481 53.5153 26.0473C53.5153 26.0373 53.5253 26.0373 53.5253 26.0373C54.6053 24.1739 56.6053 22.9148 58.8953 22.9148C62.0353 22.9148 64.6353 25.2718 65.0553 28.3237C65.3353 28.2935 65.6253 28.2834 65.9153 28.2834C70.7953 28.2834 74.7453 32.2722 74.7453 37.1876C74.7453 37.943 74.6453 38.6783 74.4653 39.3733C77.7253 42.9893 79.7253 47.7939 79.7253 53.0619C79.7253 61.7947 74.2753 69.2182 66.6153 72.1191C66.6053 72.2198 66.5953 72.3306 66.5753 72.4414C65.9053 75.9466 63.0953 78.7669 59.6153 79.4418C57.6853 79.8145 55.8453 79.5627 54.2453 78.8475C53.2953 78.4245 52.6653 77.4877 52.6653 76.4402L52.6753 65.3604Z" fill="url(#paint1_linear)"/>
<path d="M60.2253 62.4295L80.3453 42.3449C82.1253 40.562 84.9553 40.4613 86.8653 42.1031C88.9953 43.9464 89.1153 47.23 87.1253 49.2244L66.8753 69.4903L58.6053 71.6458C58.1953 71.7465 57.8353 71.3839 57.9453 70.971L60.2253 62.4295Z" fill="url(#paint2_linear)"/>
<path d="M60.2554 62.4194L78.4554 44.2485L85.4954 50.8662L66.8854 69.4903L60.2554 62.4194Z" fill="url(#paint3_linear)"/>
<path d="M60.2753 71.2128L58.6053 71.6459C58.1953 71.7466 57.8353 71.384 57.9453 70.9711L58.4053 69.2285L60.2753 71.2128Z" fill="url(#paint4_linear)"/>
<defs>
<linearGradient id="paint0_linear" x1="33.7921" y1="93.5674" x2="38.1868" y2="48.4832" gradientUnits="userSpaceOnUse">
<stop stop-color="#0078D4"/>
<stop offset="0.16" stop-color="#1380DA"/>
<stop offset="0.53" stop-color="#3C91E5"/>
<stop offset="0.82" stop-color="#559CEC"/>
<stop offset="1" stop-color="#5EA0EF"/>
</linearGradient>
<linearGradient id="paint1_linear" x1="60.923" y1="96.212" x2="65.3177" y2="51.1278" gradientUnits="userSpaceOnUse">
<stop stop-color="#0078D4"/>
<stop offset="0.16" stop-color="#1380DA"/>
<stop offset="0.53" stop-color="#3C91E5"/>
<stop offset="0.82" stop-color="#559CEC"/>
<stop offset="1" stop-color="#5EA0EF"/>
</linearGradient>
<linearGradient id="paint2_linear" x1="57.9198" y1="56.3042" x2="88.5395" y2="56.3042" gradientUnits="userSpaceOnUse">
<stop stop-color="#007ED8"/>
<stop offset="0.7065" stop-color="#002D4C"/>
</linearGradient>
<linearGradient id="paint3_linear" x1="71.9067" y1="32.7115" x2="74.5988" y2="98.3406" gradientUnits="userSpaceOnUse">
<stop stop-color="#007ED8"/>
<stop offset="0.7065" stop-color="#002D4C"/>
</linearGradient>
<linearGradient id="paint4_linear" x1="57.5649" y1="33.2998" x2="60.2569" y2="98.928" gradientUnits="userSpaceOnUse">
<stop stop-color="#007ED8"/>
<stop offset="0.7065" stop-color="#002D4C"/>
</linearGradient>
</defs>
</svg>
