<svg width="181" height="191" viewBox="0 0 181 191" fill="none" xmlns="http://www.w3.org/2000/svg">
<path d="M90.0565 189.651C93.1165 189.651 96.1265 188.801 98.7865 187.181L160.756 149.521C166.296 146.151 169.726 139.821 169.726 132.981V58.2715C169.726 51.4515 166.296 45.1115 160.756 41.7315L98.7865 4.07149C93.4565 0.831493 86.6365 0.851493 81.3365 4.07149L19.3665 41.7515C13.8265 45.1215 10.3765 51.4515 10.3765 58.2915V132.991C10.3765 138.751 12.8265 144.171 16.9265 147.741V147.771L81.3365 187.201C83.9765 188.801 86.9965 189.651 90.0565 189.651ZM90.7065 8.60149C92.6565 8.60149 95.1365 9.81149 96.8465 10.8615L157.606 48.0515C161.356 50.3315 163.476 56.9315 163.476 61.6815L162.846 132.981C162.846 137.731 159.646 142.001 155.896 144.281L95.4965 180.661C92.0665 182.751 89.2765 182.751 85.8365 180.661L24.6265 144.191C20.8765 141.911 17.8565 137.711 17.8565 132.981V59.3415C17.8565 54.6015 20.5865 49.7115 24.3565 47.4215L84.9365 10.8615C86.6365 9.82149 88.7565 8.60149 90.7065 8.60149Z" fill="#F2F1F0"/>
<path fill-rule="evenodd" clip-rule="evenodd" d="M97.9565 12.1812C95.5065 10.6812 92.7865 9.93121 90.0565 9.93121C87.3265 9.93121 84.6065 10.6912 82.1565 12.1812L26.0265 46.5112C21.0065 49.5812 17.8965 55.3312 17.8965 61.5812V129.681C17.8965 135.911 20.9965 141.681 26.0265 144.751L82.1565 179.081C84.6065 180.581 87.3265 181.331 90.0565 181.331C92.7865 181.331 95.5065 180.591 97.9565 179.081L154.086 144.751C159.106 141.681 162.216 135.911 162.216 129.681V61.5812C162.216 55.3512 159.116 49.6012 154.086 46.5112L97.9565 12.1812Z" fill="url(#paint0_linear_1148_62)"/>
<path fill-rule="evenodd" clip-rule="evenodd" d="M90.0565 11.4014C91.7365 11.4014 93.6265 12.2714 95.6865 13.5214L154.156 49.0614C157.806 51.2814 160.216 55.5514 160.216 60.3814V130.861C160.216 135.681 157.806 139.961 154.156 142.181L95.6965 177.721C93.7365 178.911 91.8165 179.661 90.0665 179.661C88.3165 179.661 86.3965 178.911 84.4365 177.721L25.9565 142.191C23.9465 140.961 22.4965 139.761 21.5165 138.151C20.5365 136.551 19.8965 134.331 19.8965 130.871V60.3914C19.8965 55.5614 22.3065 51.2914 25.9565 49.0714L84.4165 13.5314C86.5065 12.2814 88.3665 11.4014 90.0565 11.4014ZM97.7665 181.151L156.226 145.611C161.146 142.621 164.206 137.001 164.206 130.871V60.3914C164.206 54.2614 161.146 48.6414 156.226 45.6514L97.7665 10.1114C95.6565 8.83143 92.9465 7.40143 90.0565 7.40143C87.1565 7.40143 84.4465 8.84143 82.3565 10.1014H82.3465L23.8765 45.6514C18.9565 48.6414 15.8965 54.2614 15.8965 60.3914V130.871C15.8965 134.831 16.6365 137.821 18.0965 140.231C19.5565 142.631 21.6165 144.231 23.8765 145.601L82.3365 181.141C84.5565 182.491 87.2265 183.671 90.0465 183.671C92.8665 183.671 95.5465 182.501 97.7665 181.151Z" fill="url(#paint1_linear_1148_62)"/>
<path d="M37.3051 140.143H142.809C145.258 140.143 147.226 138.176 147.226 135.726V56.5034C147.226 54.054 145.258 52.0865 142.809 52.0865H37.3051C34.8557 52.0865 32.8882 54.054 32.8882 56.5034V135.726C32.8882 138.156 34.8557 140.143 37.3051 140.143Z" fill="url(#paint2_linear_1148_62)"/>
<path d="M32.8882 62.2858H147.185V54.9578C147.185 52.4281 145.117 50.3602 142.588 50.3602H37.4858C34.9561 50.3602 32.8882 52.4281 32.8882 54.9578V62.2858Z" fill="#092E4C"/>
<path d="M40.0161 59.4569C41.6022 59.4569 42.9273 58.172 42.9273 56.5458C42.9273 54.9196 41.6223 53.6346 40.0161 53.6346C38.41 53.6346 37.105 54.9396 37.105 56.5458C37.105 58.1519 38.41 59.4569 40.0161 59.4569Z" fill="#50E6FF"/>
<g opacity="0.15">
<path opacity="0.15" d="M131.665 69.172H76.3221C74.5936 69.172 73.1924 70.5732 73.1924 72.3017V130.014C73.1924 131.742 74.5936 133.143 76.3221 133.143H131.665C133.393 133.143 134.794 131.742 134.794 130.014V72.3017C134.794 70.5732 133.393 69.172 131.665 69.172Z" fill="#1F1D20"/>
</g>
<path d="M131.665 67.7615H76.3221C74.5936 67.7615 73.1924 69.1627 73.1924 70.8912V128.603C73.1924 130.332 74.5936 131.733 76.3221 131.733H131.665C133.393 131.733 134.794 130.332 134.794 128.603V70.8912C134.794 69.1627 133.393 67.7615 131.665 67.7615Z" fill="url(#paint3_linear_1148_62)"/>
<path d="M131.51 69.6678H76.4761C76.0903 69.6678 75.7203 69.8209 75.4475 70.0937C75.1747 70.3665 75.0215 70.7365 75.0215 71.1223V128.426C75.0244 128.811 75.1785 129.18 75.4507 129.452C75.7229 129.724 76.0912 129.878 76.4761 129.881H131.51C131.701 129.881 131.89 129.844 132.067 129.771C132.243 129.697 132.404 129.59 132.539 129.455C132.674 129.32 132.781 129.16 132.854 128.983C132.927 128.807 132.965 128.617 132.965 128.426V71.1223C132.962 70.7374 132.808 70.3691 132.536 70.0969C132.263 69.8248 131.895 69.6707 131.51 69.6678V69.6678Z" fill="url(#paint4_linear_1148_62)"/>
<path d="M82.0415 75.7728H81.5345C81.3786 75.7728 81.2289 75.8339 81.1176 75.9431C81.0063 76.0524 80.9423 76.2007 80.9395 76.3567V76.5993C80.9423 76.7563 81.0059 76.9059 81.1169 77.0169C81.2278 77.1279 81.3776 77.1914 81.5345 77.1942H82.0415C82.1984 77.1914 82.3481 77.1279 82.4591 77.0169C82.5701 76.9059 82.6337 76.7563 82.6365 76.5993V76.3567C82.6381 76.2786 82.6237 76.2011 82.5942 76.1288C82.5647 76.0565 82.5207 75.9911 82.465 75.9364C82.4093 75.8817 82.3429 75.8389 82.2701 75.8108C82.1973 75.7826 82.1195 75.7698 82.0415 75.7728V75.7728Z" fill="#E9FCFE"/>
<path d="M82.6365 79.1559H80.9395V80.5886H82.6365V79.1559Z" fill="#D5F9FD"/>
<path d="M82.6365 82.2748H80.9395V83.7074H82.6365V82.2748Z" fill="#ACF3FD"/>
<path d="M82.6365 85.669H80.9395V87.0904H82.6365V85.669Z" fill="#84ECFD"/>
<path d="M82.6365 89.074H80.9395V90.5066H82.6365V89.074Z" fill="#50E6FF"/>
<path d="M82.6365 92.1819H80.9395V93.6035H82.6365V92.1819Z" fill="#45CAF2"/>
<path d="M82.6365 95.5871H80.9395V97.0195H82.6365V95.5871Z" fill="#32B0E7"/>
<path d="M82.6365 98.7057H80.9395V100.138H82.6365V98.7057Z" fill="#2195DC"/>
<path d="M82.6365 102.386H80.9395V103.819H82.6365V102.386Z" fill="#0078D4"/>
<path d="M82.6365 105.505H80.9395V106.938H82.6365V105.505Z" fill="#156AB3"/>
<path d="M82.0965 108.899H81.4794C81.4085 108.899 81.3383 108.913 81.2728 108.941C81.2073 108.968 81.1478 109.007 81.0976 109.058C81.0475 109.108 81.0077 109.167 80.9805 109.233C80.9534 109.298 80.9395 109.368 80.9395 109.439V109.77C80.9395 109.841 80.9534 109.911 80.9805 109.977C81.0077 110.042 81.0475 110.102 81.0976 110.152C81.1478 110.202 81.2073 110.242 81.2728 110.269C81.3383 110.296 81.4085 110.31 81.4794 110.31H82.0965C82.2398 110.31 82.3771 110.253 82.4784 110.152C82.5796 110.05 82.6365 109.913 82.6365 109.77V109.439C82.6365 109.296 82.5796 109.159 82.4784 109.058C82.3771 108.956 82.2398 108.899 82.0965 108.899Z" fill="#E9FCFE"/>
<path d="M82.1627 111.974H81.6558C81.5845 111.972 81.5136 111.986 81.4474 112.012C81.3812 112.039 81.3211 112.078 81.2706 112.129C81.2202 112.179 81.1805 112.24 81.1539 112.306C81.1273 112.372 81.1143 112.443 81.1158 112.514V112.756C81.1143 112.828 81.1273 112.899 81.1539 112.965C81.1805 113.031 81.2202 113.091 81.2706 113.142C81.3211 113.192 81.3812 113.232 81.4474 113.258C81.5136 113.285 81.5845 113.298 81.6558 113.296H82.1627C82.234 113.298 82.3049 113.285 82.3711 113.258C82.4373 113.232 82.4974 113.192 82.5479 113.142C82.5983 113.091 82.6381 113.031 82.6647 112.965C82.6913 112.899 82.7042 112.828 82.7027 112.756V112.514C82.7027 112.371 82.6458 112.233 82.5446 112.132C82.4433 112.031 82.3059 111.974 82.1627 111.974Z" fill="#D5F9FD"/>
<path d="M82.1627 115.413H81.6558C81.5845 115.411 81.5136 115.424 81.4474 115.45C81.3812 115.477 81.3211 115.517 81.2706 115.567C81.2202 115.618 81.1805 115.678 81.1539 115.744C81.1273 115.81 81.1143 115.881 81.1158 115.953V116.195C81.1143 116.266 81.1273 116.337 81.1539 116.403C81.1805 116.469 81.2202 116.529 81.2706 116.58C81.3211 116.63 81.3812 116.67 81.4474 116.697C81.5136 116.723 81.5845 116.736 81.6558 116.735H82.1627C82.234 116.736 82.3049 116.723 82.3711 116.697C82.4373 116.67 82.4974 116.63 82.5479 116.58C82.5983 116.529 82.6381 116.469 82.6647 116.403C82.6913 116.337 82.7042 116.266 82.7027 116.195V115.953C82.7042 115.881 82.6913 115.81 82.6647 115.744C82.6381 115.678 82.5983 115.618 82.5479 115.567C82.4974 115.517 82.4373 115.477 82.3711 115.45C82.3049 115.424 82.234 115.411 82.1627 115.413V115.413Z" fill="#ACF3FD"/>
<path d="M82.1627 118.85H81.6558C81.584 118.85 81.5128 118.864 81.4466 118.892C81.3804 118.92 81.3203 118.961 81.27 119.012C81.2197 119.063 81.1802 119.124 81.1537 119.191C81.1272 119.258 81.1144 119.329 81.1158 119.401V119.632C81.1143 119.704 81.1273 119.775 81.1539 119.841C81.1805 119.907 81.2202 119.967 81.2706 120.018C81.3211 120.068 81.3812 120.108 81.4474 120.134C81.5136 120.161 81.5845 120.174 81.6558 120.172H82.1627C82.234 120.174 82.3049 120.161 82.3711 120.134C82.4373 120.108 82.4974 120.068 82.5479 120.018C82.5983 119.967 82.6381 119.907 82.6647 119.841C82.6913 119.775 82.7042 119.704 82.7027 119.632V119.456C82.7121 119.38 82.7051 119.302 82.6822 119.229C82.6594 119.156 82.6211 119.088 82.57 119.031C82.5189 118.973 82.4561 118.928 82.3859 118.897C82.3156 118.865 82.2396 118.849 82.1627 118.85V118.85Z" fill="#50E6FF"/>
<path d="M82.1627 122.3H81.6558C81.5845 122.298 81.5136 122.311 81.4474 122.338C81.3812 122.365 81.3211 122.404 81.2706 122.455C81.2202 122.505 81.1805 122.565 81.1539 122.631C81.1273 122.698 81.1143 122.769 81.1158 122.84V123.082C81.1143 123.154 81.1273 123.224 81.1539 123.291C81.1805 123.357 81.2202 123.417 81.2706 123.467C81.3211 123.518 81.3812 123.558 81.4474 123.584C81.5136 123.611 81.5845 123.624 81.6558 123.622H82.1627C82.234 123.624 82.3049 123.611 82.3711 123.584C82.4373 123.558 82.4974 123.518 82.5479 123.467C82.5983 123.417 82.6381 123.357 82.6647 123.291C82.6913 123.224 82.7042 123.154 82.7027 123.082V122.84C82.7042 122.769 82.6913 122.698 82.6647 122.631C82.6381 122.565 82.5983 122.505 82.5479 122.455C82.4974 122.404 82.4373 122.365 82.3711 122.338C82.3049 122.311 82.234 122.298 82.1627 122.3V122.3Z" fill="#45CAF2"/>
<path d="M91.706 82.2748H87.1768V83.7074H91.706V82.2748Z" fill="#ACF3FD"/>
<path d="M109.294 75.7509H87.8711C87.6958 75.7509 87.5276 75.8204 87.4036 75.9444C87.2796 76.0684 87.21 76.2366 87.21 76.412C87.21 76.5873 87.2796 76.7556 87.4036 76.8796C87.5276 77.0036 87.6958 77.0733 87.8711 77.0733H109.294C109.381 77.0748 109.468 77.0586 109.549 77.0259C109.63 76.9932 109.703 76.9445 109.765 76.8828C109.827 76.8211 109.875 76.7477 109.908 76.6668C109.941 76.5859 109.957 76.4992 109.955 76.412C109.955 76.2366 109.886 76.0684 109.762 75.9444C109.638 75.8204 109.469 75.7509 109.294 75.7509V75.7509Z" fill="#E9FCFE"/>
<path d="M116.435 82.3631H93.943C93.8558 82.3616 93.7692 82.3775 93.6883 82.4102C93.6074 82.4429 93.5339 82.4916 93.4722 82.5533C93.4105 82.615 93.3619 82.6884 93.3292 82.7693C93.2965 82.8502 93.2803 82.9369 93.2818 83.0241C93.2803 83.1114 93.2965 83.198 93.3292 83.2789C93.3619 83.3598 93.4105 83.4332 93.4722 83.4949C93.5339 83.5566 93.6074 83.6054 93.6883 83.6381C93.7692 83.6708 93.8558 83.6869 93.943 83.6854H116.435C116.522 83.6869 116.609 83.6708 116.69 83.6381C116.771 83.6054 116.844 83.5566 116.906 83.4949C116.967 83.4332 117.016 83.3598 117.049 83.2789C117.082 83.198 117.098 83.1114 117.096 83.0241C117.096 82.8488 117.026 82.6805 116.902 82.5565C116.778 82.4325 116.61 82.3631 116.435 82.3631V82.3631Z" fill="#ACF3FD"/>
<path d="M102.109 85.6691H88.1022C88.015 85.6676 87.9283 85.6835 87.8474 85.7162C87.7665 85.7489 87.6931 85.7976 87.6314 85.8593C87.5697 85.921 87.521 85.9945 87.4883 86.0754C87.4556 86.1563 87.4395 86.2429 87.441 86.3301C87.4395 86.4174 87.4556 86.504 87.4883 86.5849C87.521 86.6658 87.5697 86.7393 87.6314 86.801C87.6931 86.8627 87.7665 86.9114 87.8474 86.9441C87.9283 86.9768 88.015 86.9929 88.1022 86.9915H102.109C102.196 86.9929 102.283 86.9768 102.363 86.9441C102.444 86.9114 102.518 86.8627 102.58 86.801C102.641 86.7393 102.69 86.6658 102.723 86.5849C102.755 86.504 102.771 86.4174 102.77 86.3301C102.77 86.1548 102.7 85.9865 102.576 85.8625C102.452 85.7385 102.284 85.6691 102.109 85.6691V85.6691Z" fill="#84ECFD"/>
<path d="M115.63 92.1487H93.943C93.8558 92.1473 93.7692 92.1634 93.6883 92.1961C93.6074 92.2288 93.5339 92.2775 93.4722 92.3392C93.4105 92.4009 93.3619 92.4744 93.3292 92.5553C93.2965 92.6362 93.2803 92.7228 93.2818 92.8101C93.2803 92.8973 93.2965 92.9839 93.3292 93.0648C93.3619 93.1457 93.4105 93.2192 93.4722 93.2809C93.5339 93.3426 93.6074 93.3913 93.6883 93.424C93.7692 93.4567 93.8558 93.4726 93.943 93.4711H115.63C115.718 93.4726 115.804 93.4567 115.885 93.424C115.966 93.3913 116.04 93.3426 116.101 93.2809C116.163 93.2192 116.212 93.1457 116.244 93.0648C116.277 92.9839 116.293 92.8973 116.292 92.8101C116.293 92.7228 116.277 92.6362 116.244 92.5553C116.212 92.4744 116.163 92.4009 116.101 92.3392C116.04 92.2775 115.966 92.2288 115.885 92.1961C115.804 92.1634 115.718 92.1473 115.63 92.1487V92.1487Z" fill="#45CAF2"/>
<path d="M113.515 95.5764H88.1686C88.0814 95.5749 87.9947 95.5908 87.9138 95.6235C87.8329 95.6562 87.7595 95.7049 87.6978 95.7666C87.6361 95.8283 87.5874 95.9018 87.5547 95.9827C87.522 96.0636 87.5059 96.1502 87.5074 96.2375C87.5059 96.3247 87.522 96.4114 87.5547 96.4922C87.5874 96.5731 87.6361 96.6466 87.6978 96.7083C87.7595 96.77 87.8329 96.8187 87.9138 96.8514C87.9947 96.8841 88.0814 96.9003 88.1686 96.8988H113.515C113.602 96.9003 113.689 96.8841 113.769 96.8514C113.85 96.8187 113.924 96.77 113.986 96.7083C114.047 96.6466 114.096 96.5731 114.129 96.4922C114.161 96.4114 114.177 96.3247 114.176 96.2375C114.176 96.0621 114.106 95.8939 113.982 95.7699C113.858 95.6459 113.69 95.5764 113.515 95.5764V95.5764Z" fill="#32B0E7"/>
<path d="M120.92 102.464H88.1354C88.0482 102.462 87.9615 102.478 87.8806 102.511C87.7997 102.544 87.7263 102.592 87.6646 102.654C87.6029 102.716 87.5542 102.789 87.5215 102.87C87.4888 102.951 87.4727 103.038 87.4742 103.125C87.4742 103.3 87.5439 103.468 87.6679 103.592C87.7919 103.716 87.9601 103.786 88.1354 103.786H120.92C121.095 103.786 121.264 103.716 121.388 103.592C121.512 103.468 121.581 103.3 121.581 103.125C121.583 103.038 121.567 102.951 121.534 102.87C121.501 102.789 121.453 102.716 121.391 102.654C121.329 102.592 121.256 102.544 121.175 102.511C121.094 102.478 121.007 102.462 120.92 102.464V102.464Z" fill="#0078D4"/>
<path d="M104.313 105.626H88.1906C88.1034 105.625 88.0167 105.641 87.9358 105.674C87.8549 105.706 87.7814 105.755 87.7197 105.817C87.658 105.878 87.6094 105.952 87.5767 106.033C87.544 106.114 87.5279 106.2 87.5294 106.287C87.5279 106.375 87.544 106.461 87.5767 106.542C87.6094 106.623 87.658 106.697 87.7197 106.758C87.7814 106.82 87.8549 106.869 87.9358 106.901C88.0167 106.934 88.1034 106.95 88.1906 106.949H104.313C104.4 106.95 104.487 106.934 104.568 106.901C104.649 106.869 104.722 106.82 104.784 106.758C104.845 106.697 104.894 106.623 104.927 106.542C104.96 106.461 104.976 106.375 104.974 106.287C104.971 106.113 104.901 105.946 104.777 105.823C104.654 105.7 104.487 105.629 104.313 105.626Z" fill="#156AB3"/>
<path d="M101.359 111.974H94.2184C94.1312 111.972 94.0445 111.989 93.9636 112.021C93.8828 112.054 93.8093 112.103 93.7476 112.164C93.6859 112.226 93.6372 112.3 93.6045 112.38C93.5718 112.461 93.5557 112.548 93.5572 112.635C93.5557 112.722 93.5718 112.809 93.6045 112.89C93.6372 112.971 93.6859 113.044 93.7476 113.106C93.8093 113.168 93.8828 113.217 93.9636 113.249C94.0445 113.282 94.1312 113.298 94.2184 113.296H101.359C101.447 113.298 101.533 113.282 101.614 113.249C101.695 113.217 101.769 113.168 101.83 113.106C101.892 113.044 101.941 112.971 101.973 112.89C102.006 112.809 102.022 112.722 102.021 112.635C102.021 112.46 101.951 112.292 101.827 112.168C101.703 112.044 101.535 111.974 101.359 111.974V111.974Z" fill="#D5F9FD"/>
<path d="M119.079 111.974H104.313C104.137 111.974 103.969 112.043 103.845 112.167C103.721 112.291 103.651 112.46 103.651 112.635C103.651 112.81 103.721 112.978 103.845 113.102C103.969 113.226 104.137 113.296 104.313 113.296H119.123C119.211 113.297 119.297 113.282 119.378 113.249C119.459 113.216 119.533 113.167 119.594 113.106C119.656 113.044 119.705 112.971 119.737 112.89C119.77 112.809 119.786 112.722 119.785 112.635C119.783 112.545 119.764 112.456 119.727 112.373C119.691 112.291 119.638 112.216 119.572 112.155C119.506 112.093 119.429 112.045 119.344 112.014C119.26 111.983 119.17 111.969 119.079 111.974Z" fill="#D5F9FD"/>
<path d="M106.649 115.413H88.1354C88.0482 115.411 87.9615 115.427 87.8806 115.46C87.7997 115.492 87.7263 115.541 87.6646 115.603C87.6029 115.664 87.5542 115.738 87.5215 115.819C87.4888 115.9 87.4727 115.986 87.4742 116.074C87.4727 116.161 87.4888 116.247 87.5215 116.328C87.5542 116.409 87.6029 116.483 87.6646 116.544C87.7263 116.606 87.7997 116.655 87.8806 116.688C87.9615 116.72 88.0482 116.736 88.1354 116.735H106.649C106.736 116.736 106.823 116.72 106.904 116.688C106.985 116.655 107.058 116.606 107.12 116.544C107.182 116.483 107.23 116.409 107.263 116.328C107.296 116.247 107.312 116.161 107.31 116.074C107.305 115.9 107.233 115.735 107.11 115.612C106.988 115.489 106.823 115.418 106.649 115.413Z" fill="#ACF3FD"/>
<path d="M123.047 118.85H88.1354C87.9601 118.85 87.7919 118.92 87.6679 119.044C87.5439 119.168 87.4742 119.336 87.4742 119.511C87.4727 119.599 87.4888 119.685 87.5215 119.766C87.5542 119.847 87.6029 119.92 87.6646 119.982C87.7263 120.044 87.7997 120.093 87.8806 120.125C87.9615 120.158 88.0482 120.174 88.1354 120.172H123.047C123.134 120.174 123.221 120.158 123.302 120.125C123.383 120.093 123.456 120.044 123.518 119.982C123.579 119.92 123.628 119.847 123.661 119.766C123.693 119.685 123.71 119.599 123.708 119.511C123.705 119.337 123.635 119.17 123.511 119.047C123.388 118.924 123.221 118.853 123.047 118.85Z" fill="#50E6FF"/>
<path d="M105.856 122.3H94.2184C94.1312 122.298 94.0445 122.314 93.9636 122.347C93.8828 122.38 93.8093 122.428 93.7476 122.49C93.6859 122.552 93.6372 122.625 93.6045 122.706C93.5718 122.787 93.5557 122.874 93.5572 122.961C93.5557 123.048 93.5718 123.135 93.6045 123.216C93.6372 123.297 93.6859 123.37 93.7476 123.432C93.8093 123.494 93.8828 123.542 93.9636 123.575C94.0445 123.608 94.1312 123.624 94.2184 123.622H105.856C106.031 123.622 106.199 123.553 106.323 123.429C106.447 123.305 106.517 123.136 106.517 122.961C106.517 122.786 106.447 122.617 106.323 122.493C106.199 122.369 106.031 122.3 105.856 122.3V122.3Z" fill="#45CAF2"/>
<path d="M83.4188 130.476H84.6641L84.6641 68.004H83.4188L83.4188 130.476Z" fill="url(#paint5_linear_1148_62)"/>
<path d="M147.182 96.3176L144.106 99.2832L151.707 107.169L156.298 102.578L154.805 95.7025L147.182 96.3176Z" fill="url(#paint6_linear_1148_62)"/>
<path d="M119.942 123.469L116.866 126.412L124.555 134.276L128.97 129.839L127.498 122.941L119.942 123.469Z" fill="url(#paint7_linear_1148_62)"/>
<path d="M155.881 95.2186C153.751 93.0878 151.114 92.253 149.95 93.3294H149.928L146.567 96.7344C146.545 96.7563 146.567 96.8003 146.611 96.7783C147.885 96.0753 150.302 96.954 152.301 98.9091C154.102 100.71 154.981 102.863 154.607 104.203C154.607 104.247 154.629 104.269 154.651 104.225L157.727 101.172L157.749 101.15C157.749 101.15 157.749 101.15 157.749 101.128L157.771 101.106C158.847 100.007 158.012 97.3714 155.881 95.2186Z" fill="#282827"/>
<path d="M150.345 100.754C148.236 98.6448 145.644 97.8101 144.436 98.8425L119.239 124.039C119.195 124.083 119.239 124.171 119.305 124.149C120.645 123.644 122.864 124.5 124.753 126.39C126.511 128.147 127.389 130.234 127.082 131.596C127.06 131.662 127.17 131.728 127.213 131.662L152.256 106.619C153.289 105.455 152.476 102.863 150.345 100.754Z" fill="#444443"/>
<path d="M122.754 128.344C120.58 126.17 117.922 125.357 116.779 126.455V126.477L114.714 134.188C115.044 133.858 115.242 134.451 115.857 135.066C116.494 135.681 116.252 135.572 115.922 135.901L114.451 137.219L124.622 134.319C125.742 133.177 124.907 130.497 122.754 128.344Z" fill="#FFBB00"/>
<path d="M116.449 134.737C115.834 134.122 115.065 133.858 114.713 134.188L114.032 136.802C113.967 137.065 114.208 137.285 114.45 137.219L116.998 136.472C117.328 136.143 117.086 135.352 116.449 134.737Z" fill="white"/>
<path opacity="0.15" d="M137.608 138.726C140.276 138.72 142.833 137.657 144.719 135.771C146.606 133.884 147.668 131.328 147.674 128.66C147.674 125.99 146.614 123.43 144.726 121.542C142.838 119.655 140.278 118.594 137.608 118.594C134.94 118.6 132.383 119.662 130.497 121.549C128.61 123.435 127.548 125.992 127.542 128.66C127.542 129.982 127.803 131.291 128.309 132.512C128.815 133.733 129.556 134.843 130.49 135.777C131.425 136.712 132.536 137.453 133.757 137.959C134.978 138.465 136.286 138.726 137.608 138.726V138.726Z" fill="#1F1D20"/>
<path d="M137.608 136.409C140.278 136.409 142.838 135.349 144.726 133.461C146.614 131.573 147.674 129.013 147.674 126.344C147.674 123.674 146.614 121.114 144.726 119.227C142.838 117.339 140.278 116.278 137.608 116.278C134.94 116.284 132.383 117.347 130.497 119.233C128.61 121.119 127.548 123.676 127.542 126.344C127.542 127.666 127.803 128.975 128.309 130.196C128.815 131.417 129.556 132.526 130.49 133.461C131.425 134.396 132.536 135.138 133.757 135.643C134.978 136.149 136.286 136.409 137.608 136.409V136.409Z" fill="#092D4C"/>
<path d="M138.544 119.952H136.74V132.734H138.544V119.952Z" fill="white"/>
<path d="M144.044 125.541H131.261V127.323H144.044V125.541Z" fill="white"/>
<path d="M69.5311 120.056H28.1896C27.9132 120.054 27.641 119.99 27.3927 119.869C27.1444 119.747 26.9265 119.572 26.7547 119.355C26.5831 119.139 26.462 118.887 26.4005 118.617C26.3389 118.348 26.3385 118.068 26.3992 117.798L34.932 81.6024C35.1008 80.9126 35.496 80.2994 36.0546 79.8606C36.6132 79.422 37.3026 79.1834 38.0128 79.1829H78.8377C79.1146 79.1853 79.3863 79.2495 79.6351 79.3709C79.883 79.4922 80.101 79.6676 80.2731 79.8842C80.4443 80.1007 80.5653 80.3529 80.6275 80.6224C80.6888 80.8917 80.6888 81.1716 80.6283 81.4412L71.9828 118.137C71.8461 118.684 71.5307 119.17 71.0866 119.518C70.6425 119.866 70.0951 120.055 69.5311 120.056Z" fill="url(#paint8_linear_1148_62)"/>
<path d="M63.5454 114.669H53.3834C53.1056 114.669 52.8304 114.615 52.5734 114.509C52.3166 114.403 52.0832 114.248 51.8865 114.051C51.6898 113.855 51.5338 113.622 51.4274 113.365C51.3209 113.109 51.2661 112.834 51.2661 112.556C51.2661 112.278 51.3209 112.003 51.4274 111.746C51.5338 111.489 51.6898 111.256 51.8865 111.06C52.0832 110.864 52.3166 110.708 52.5734 110.602C52.8304 110.496 53.1056 110.442 53.3834 110.443H63.5454C64.1051 110.444 64.6414 110.667 65.0368 111.063C65.4322 111.459 65.6541 111.996 65.6541 112.556C65.6541 113.115 65.4322 113.652 65.0368 114.048C64.6414 114.444 64.1051 114.668 63.5454 114.669Z" fill="white"/>
<path d="M46.9664 84.1994L59.3704 97.1357C59.6548 97.4317 59.8721 97.7856 60.0074 98.1731C60.1427 98.5606 60.1929 98.9727 60.1546 99.3813C60.1164 99.7901 59.9905 100.186 59.7856 100.541C59.5807 100.897 59.3016 101.204 58.9673 101.442L40.1434 114.782C39.6171 115.157 38.9637 115.308 38.3264 115.201C37.6891 115.095 37.12 114.74 36.7441 114.215C36.3681 113.689 36.216 113.036 36.3211 112.398C36.4261 111.761 36.7798 111.191 37.3045 110.814L54.0153 98.8455L43.4662 87.506C43.0362 87.0404 42.8072 86.4239 42.8288 85.7905C42.8505 85.157 43.121 84.5577 43.5817 84.1225C44.0425 83.6872 44.6562 83.4511 45.2899 83.4655C45.9235 83.48 46.5259 83.7437 46.9664 84.1994Z" fill="white"/>
<defs>
<linearGradient id="paint0_linear_1148_62" x1="90.0564" y1="9.93121" x2="90.0564" y2="181.331" gradientUnits="userSpaceOnUse">
<stop stop-color="#00ABDE"/>
<stop offset="1" stop-color="#007ED8"/>
</linearGradient>
<linearGradient id="paint1_linear_1148_62" x1="36.1762" y1="4.72253" x2="202.853" y2="287.053" gradientUnits="userSpaceOnUse">
<stop stop-color="#007ED8"/>
<stop offset="0.7065" stop-color="#002D4C"/>
</linearGradient>
<linearGradient id="paint2_linear_1148_62" x1="90.0569" y1="140.143" x2="90.0569" y2="51.9287" gradientUnits="userSpaceOnUse">
<stop stop-color="#003067"/>
<stop offset="0.2" stop-color="#003F7C"/>
<stop offset="0.47" stop-color="#004F90"/>
<stop offset="0.74" stop-color="#00589D"/>
<stop offset="1" stop-color="#005BA1"/>
</linearGradient>
<linearGradient id="paint3_linear_1148_62" x1="103.993" y1="138.279" x2="103.993" y2="60.301" gradientUnits="userSpaceOnUse">
<stop stop-color="#004DAE"/>
<stop offset="0.21" stop-color="#0061C4"/>
<stop offset="0.51" stop-color="#0078DD"/>
<stop offset="0.78" stop-color="#0086EC"/>
<stop offset="1" stop-color="#008BF1"/>
</linearGradient>
<linearGradient id="paint4_linear_1148_62" x1="103.993" y1="127.038" x2="103.993" y2="77.0622" gradientUnits="userSpaceOnUse">
<stop stop-color="#003067"/>
<stop offset="0.2" stop-color="#003F7C"/>
<stop offset="0.47" stop-color="#004F90"/>
<stop offset="0.74" stop-color="#00589D"/>
<stop offset="1" stop-color="#005BA1"/>
</linearGradient>
<linearGradient id="paint5_linear_1148_62" x1="84.0359" y1="130.476" x2="84.0359" y2="67.8938" gradientUnits="userSpaceOnUse">
<stop stop-color="#004DAE"/>
<stop offset="0.21" stop-color="#0061C4"/>
<stop offset="0.51" stop-color="#0078DD"/>
<stop offset="0.78" stop-color="#0086EC"/>
<stop offset="1" stop-color="#008BF1"/>
</linearGradient>
<linearGradient id="paint6_linear_1148_62" x1="144.11" y1="101.439" x2="156.292" y2="101.439" gradientUnits="userSpaceOnUse">
<stop stop-color="#388CF4"/>
<stop offset="1" stop-color="#2C7CEF"/>
</linearGradient>
<linearGradient id="paint7_linear_1148_62" x1="116.866" y1="128.603" x2="128.97" y2="128.603" gradientUnits="userSpaceOnUse">
<stop stop-color="#388CF4"/>
<stop offset="1" stop-color="#2C7CEF"/>
</linearGradient>
<linearGradient id="paint8_linear_1148_62" x1="-13.8192" y1="73.3771" x2="105.061" y2="119.71" gradientUnits="userSpaceOnUse">
<stop stop-color="#007ED8"/>
<stop offset="0.7065" stop-color="#002D4C"/>
</linearGradient>
</defs>
</svg>
