<svg width="181" height="191" viewBox="0 0 181 191" fill="none" xmlns="http://www.w3.org/2000/svg">
<path d="M90.0565 189.696C93.1383 189.691 96.1591 188.836 98.7866 187.226L160.787 149.566C163.574 147.807 165.864 145.363 167.439 142.468C169.015 139.572 169.823 136.322 169.787 133.026V58.3163C169.82 55.0209 169.011 51.7717 167.435 48.877C165.86 45.9822 163.572 43.538 160.787 41.7762L98.7866 4.11621C96.1525 2.53083 93.136 1.69312 90.0615 1.69312C86.9871 1.69312 83.9707 2.53083 81.3366 4.11621L19.3366 41.7963C16.5501 43.5566 14.2605 46.0005 12.6852 48.8955C11.1099 51.7906 10.3013 55.0405 10.3366 58.3362V133.036C10.3181 135.819 10.8927 138.574 12.0221 141.117C13.1515 143.66 14.8098 145.934 16.8866 147.786L81.2966 187.216C83.9336 188.831 86.9642 189.69 90.0565 189.696ZM90.7066 8.69629C92.7066 8.69629 95.1366 9.90618 96.8466 10.9562L157.607 48.1462C161.357 50.4262 163.477 57.0262 163.477 61.7762L162.847 133.076C162.847 137.826 159.647 142.076 155.847 144.376L95.4465 180.756C92.0165 182.846 89.2266 182.846 85.7866 180.756L24.5765 144.286C20.8265 142.006 17.8065 137.806 17.8065 133.076V59.3862C17.8384 57.0205 18.4471 54.6982 19.5798 52.621C20.7126 50.5437 22.335 48.7743 24.3065 47.4662L84.8866 10.9062C86.6366 9.86625 88.7566 8.64624 90.7066 8.64624V8.69629Z" fill="url(#paint0_linear_1149_7935)"/>
<path fill-rule="evenodd" clip-rule="evenodd" d="M97.9566 12.2272C95.5838 10.7571 92.8479 9.97827 90.0566 9.97827C87.2653 9.97827 84.5295 10.7571 82.1567 12.2272L26.0267 46.5573C23.5 48.1686 21.4269 50.3987 20.0041 53.0361C18.5812 55.6735 17.8559 58.6307 17.8966 61.6272V129.727C17.8568 132.723 18.5827 135.68 20.0054 138.318C21.4282 140.955 23.5007 143.185 26.0267 144.797L82.1567 179.127C84.5295 180.597 87.2653 181.376 90.0566 181.376C92.8479 181.376 95.5838 180.597 97.9566 179.127L154.087 144.797C156.611 143.184 158.683 140.953 160.105 138.316C161.528 135.679 162.255 132.723 162.217 129.727V61.6272C162.255 58.6313 161.528 55.6751 160.105 53.0382C158.683 50.4013 156.611 48.1707 154.087 46.5573L97.9566 12.2272Z" fill="url(#paint1_linear_1149_7935)"/>
<path d="M22.3667 120.877L31.5967 126.167L22.4467 131.427L17.8467 128.787V129.317L22.0067 131.707L18.3267 133.827L18.4667 134.257L22.4667 131.967L31.6567 137.247L22.5367 142.487L20.8867 141.537L21.0967 142.167L89.6067 181.767L90.0367 181.477L80.7067 176.097L89.9767 170.767L99.1768 176.047L99.5867 175.767L90.4366 170.497L99.6667 165.187L109.027 170.557L109.257 170.147L100.137 164.927L109.257 159.687L118.497 164.997L118.827 164.637L109.727 159.407L118.927 154.127L128.117 159.407L128.657 159.197L119.367 153.867L128.597 148.567L137.737 153.817L138.277 153.607L129.047 148.307L138.187 143.047L147.337 148.307L147.867 148.097L138.637 142.797L147.867 137.487L156.957 142.717L157.487 142.507L148.307 137.237L157.487 131.957L162.177 134.647V134.157L157.907 131.697L162.447 129.087V128.557L157.447 131.447L148.277 126.177L157.537 120.847L162.717 123.847V123.337L119.417 98.3369L100.157 87.2169L99.9667 87.147L90.5767 81.7269L90.1467 81.447L18.3667 122.667V123.207L22.3667 120.877ZM22.8967 131.687L32.0367 126.417L41.2567 131.707L32.0867 136.977L22.8967 131.687ZM80.7267 131.687L89.9567 126.387L99.0967 131.627L89.8667 136.937L80.7267 131.687ZM89.4268 137.197L80.2167 142.487L71.0767 137.237L80.2867 131.947L89.4268 137.197ZM90.4268 126.127L99.5767 120.867L108.707 126.117L99.5566 131.377L90.4268 126.127ZM89.9767 125.867L80.7467 120.567L89.9067 115.307L99.1367 120.607L89.9767 125.867ZM89.5367 126.127L80.3066 131.427L71.0767 126.127L80.3066 120.827L89.5367 126.127ZM79.8567 131.687L70.6467 136.977L61.4167 131.677L70.6267 126.387L79.8567 131.687ZM70.1866 137.247L61.0367 142.507L51.7968 137.207L60.9567 131.937L70.1866 137.247ZM70.6367 137.497L79.7767 142.747L70.6367 148.007L61.4767 142.757L70.6367 137.497ZM80.2167 143.007L89.4467 148.307L80.3167 153.557L71.0767 148.267L80.2167 143.007ZM80.6866 142.737L89.8867 137.447L99.1167 142.747L89.9167 148.047L80.6866 142.737ZM90.3367 137.197L99.5566 131.887L108.787 137.187L99.5667 142.497L90.3367 137.197ZM100.007 131.627L109.157 126.367L118.387 131.677L109.237 136.937L100.007 131.627ZM109.597 126.117L118.827 120.807L128.057 126.117L118.827 131.417L109.597 126.117ZM109.157 125.857L100.027 120.607L109.257 115.307L118.377 120.557L109.157 125.857ZM99.5767 120.357L90.3467 115.047L99.5767 109.747L108.807 115.047L99.5767 120.357ZM89.9067 114.797L80.7467 109.527L89.9767 104.227L99.1367 109.487L89.9067 114.797ZM89.4567 115.047L80.3066 120.317L71.1367 115.047L80.2968 109.787L89.4567 115.047ZM79.8567 120.567L70.6267 125.867L61.4667 120.607L70.6967 115.307L79.8567 120.567ZM70.1866 126.127L60.9667 131.427L51.8066 126.157L61.0167 120.867L70.1866 126.127ZM60.5167 131.687L51.3467 136.947L42.1768 131.687L51.3667 126.387L60.5167 131.687ZM50.8867 137.217L41.7167 142.487L32.5566 137.217L41.7167 131.957L50.8867 137.217ZM51.3367 137.467L60.5767 142.767L51.3867 148.047L42.1567 142.747L51.3367 137.467ZM61.0167 143.027L70.1667 148.277L60.9667 153.567L51.8267 148.307L61.0167 143.027ZM70.6167 148.527L79.8467 153.827L70.6367 159.127L61.4167 153.817L70.6167 148.527ZM80.2968 154.087L89.5767 159.407L80.3567 164.707L71.0867 159.377L80.2968 154.087ZM80.7667 153.817L89.8967 148.567L99.1667 153.897L90.0468 159.137L80.7667 153.817ZM90.3567 148.297L99.5667 143.007L108.837 148.337L99.6367 153.627L90.3567 148.297ZM100.007 142.747L109.237 137.447L118.507 142.777L109.277 148.077L100.007 142.747ZM109.677 137.187L118.827 131.927L128.097 137.257L118.957 142.517L109.677 137.187ZM119.277 131.677L128.497 126.367L137.777 131.697L128.547 136.997L119.277 131.677ZM128.947 126.117L138.117 120.837L147.397 126.167L138.217 131.437L128.947 126.117ZM128.497 125.857L119.277 120.557L128.447 115.277L137.677 120.587L128.497 125.857ZM118.827 120.297L109.697 115.047L118.867 109.777L127.997 115.027L118.827 120.297ZM109.257 114.797L100.027 109.487L109.197 104.227L118.427 109.527L109.257 114.797ZM99.5767 109.237L90.4167 103.967L99.5867 98.7069L108.747 103.967L99.5767 109.237ZM89.9767 103.717L80.7067 98.387L89.8567 93.1169L99.1367 98.447L89.9767 103.717ZM89.5267 103.967L80.2968 109.277L71.0468 103.957L80.2667 98.647L89.5267 103.967ZM79.8567 109.527L70.6967 114.797L61.4567 109.487L70.6067 104.217L79.8567 109.527ZM70.2467 115.047L61.0167 120.347L51.7867 115.047L61.0067 109.737L70.2467 115.047ZM60.5767 120.607L51.3567 125.907L42.1367 120.607L51.3467 115.307L60.5767 120.607ZM50.9067 126.167L41.7367 131.437L32.5167 126.147L41.6866 120.867L50.9067 126.167ZM22.9067 142.737L32.0267 137.497L41.1866 142.757L32.0468 148.017L22.9067 142.737ZM32.4867 148.277L41.6367 143.017L50.8567 148.317L41.6866 153.587L32.4867 148.277ZM42.1367 153.847L51.3066 148.577L60.4567 153.827L51.2567 159.117L42.1367 153.847ZM51.7067 159.377L60.8967 154.087L70.1267 159.387L60.9067 164.687L51.7067 159.377ZM61.3567 164.947L70.5767 159.647L79.8467 164.977L70.6067 170.287L61.3567 164.947ZM80.1866 175.827L71.0468 170.547L80.2968 165.227L89.4567 170.497L80.1866 175.827ZM89.9067 170.237L80.7467 164.967L89.9767 159.667L99.1467 164.927L89.9067 170.237ZM99.6167 164.657L90.4366 159.397L99.5667 154.147L108.727 159.417L99.6167 164.657ZM109.197 159.147L100.037 153.877L109.227 148.587L118.397 153.857L109.197 159.147ZM118.847 153.597L109.677 148.337L118.907 143.027L128.067 148.297L118.847 153.597ZM128.517 148.037L119.347 142.777L128.497 137.517L137.667 142.787L128.517 148.037ZM138.107 142.527L128.947 137.257L138.167 131.957L147.337 137.227L138.107 142.527ZM156.957 131.687L147.787 136.967L138.617 131.697L147.787 126.417L156.957 131.687ZM157.047 120.587L147.787 125.907L138.517 120.577L147.797 115.237L157.047 120.587ZM147.357 114.987L138.067 120.327L128.837 115.027L138.147 109.667L147.357 114.987ZM137.707 109.417L128.397 114.767L119.267 109.527L128.607 104.157L137.707 109.417ZM128.157 103.897L118.817 109.267L109.587 103.967L118.957 98.5869L128.157 103.897ZM118.507 98.3269L109.147 103.707L99.9767 98.447L109.367 93.057L118.507 98.3269ZM108.927 92.797L99.5367 98.187L90.2567 92.8669L99.6567 87.447L108.927 92.797ZM90.1167 81.937L99.2167 87.187L89.8066 92.6069L80.6667 87.3569L90.1167 81.937ZM80.2267 87.6169L89.3667 92.8669L80.2167 98.137L71.0667 92.877L80.2267 87.6169ZM70.6167 93.127L79.7667 98.387L70.5468 103.697L61.3867 98.437L70.6167 93.127ZM60.9366 98.687L70.1067 103.957L60.9567 109.227L51.7767 103.957L60.9366 98.687ZM51.3367 104.207L60.5067 109.487L51.2968 114.787L42.0967 109.507L51.3367 104.207ZM41.6567 109.767L50.8467 115.047L41.6367 120.347L32.4366 115.067L41.6567 109.767ZM31.9867 115.317L41.1866 120.607L32.0167 125.897L22.7867 120.597L31.9867 115.317Z" fill="url(#paint2_linear_1149_7935)"/>
<path fill-rule="evenodd" clip-rule="evenodd" d="M90.487 11.447C92.167 11.447 94.057 12.317 96.117 13.567L154.597 49.1069C156.489 50.3199 158.039 51.9969 159.1 53.9784C160.161 55.9598 160.697 58.1798 160.657 60.427V130.907C160.696 133.154 160.159 135.374 159.099 137.355C158.038 139.336 156.488 141.013 154.597 142.227L96.127 177.767C94.5195 179.024 92.5376 179.707 90.497 179.707C88.4564 179.707 86.4745 179.024 84.867 177.767L26.367 142.237C24.5844 141.284 23.0606 139.911 21.927 138.237C20.927 136.637 20.3069 134.417 20.3069 130.957V60.4769C20.2672 58.2298 20.8033 56.0099 21.864 54.0284C22.9248 52.047 24.4749 50.37 26.367 49.157L84.8269 13.6169C86.9369 12.3269 88.797 11.447 90.487 11.447ZM98.1969 181.197L156.667 145.657C159.15 144.089 161.188 141.911 162.589 139.33C163.99 136.75 164.705 133.853 164.667 130.917V60.437C164.705 57.5011 163.99 54.6044 162.589 52.0238C161.188 49.4432 159.15 47.2649 156.667 45.697L98.1969 10.157C96.0869 8.87698 93.377 7.44702 90.487 7.44702C87.597 7.44702 84.877 8.88697 82.787 10.147L24.3169 45.697C21.8344 47.2649 19.7955 49.4432 18.3949 52.0238C16.9943 54.6044 16.2788 57.5011 16.3169 60.437V130.917C16.1646 134.181 16.9266 137.423 18.517 140.277C19.972 142.516 21.9575 144.36 24.297 145.647L82.757 181.187C84.9918 182.835 87.6954 183.724 90.472 183.724C93.2486 183.724 95.9522 182.835 98.1869 181.187L98.1969 181.197Z" fill="url(#paint3_linear_1149_7935)"/>
<path d="M141.16 63.002L80.4221 27.9346C79.9763 27.6774 79.5648 27.6602 79.2732 27.8317L77.4556 28.8777C77.7471 28.7063 78.1586 28.7234 78.6045 28.9806L134.318 67.8892C135.192 68.3865 138.125 68.4379 138.142 69.4839L140.748 139.447C140.748 139.962 140.56 140.305 140.285 140.476L142.103 139.43C142.395 139.259 142.566 138.916 142.566 138.401L142.772 65.78C142.755 64.734 142.034 63.4993 141.16 63.002Z" fill="url(#paint4_linear_1149_7935)"/>
<path d="M139.342 64.0482C140.217 64.5455 140.92 65.7801 140.954 66.8262L140.748 139.447C140.748 140.476 140.011 140.871 139.136 140.373L78.3985 105.306C77.4897 104.774 76.7866 103.523 76.7866 102.511L76.9924 29.9068C76.9924 28.8779 77.7298 28.4835 78.6043 28.9808L139.342 64.0482Z" fill="url(#paint5_linear_1149_7935)"/>
<path d="M83.2859 39.6298C83.6631 39.8527 83.9375 40.3328 83.9375 40.7615V41.0702C83.9375 41.4817 83.6288 41.6532 83.2859 41.4474L82.72 41.1216C82.3599 40.9159 82.0684 40.4014 82.0684 39.9899V39.6812C82.0684 39.2868 82.3599 39.0982 82.72 39.304L83.2859 39.6298Z" fill="#EAF6FB"/>
<path d="M83.9375 44.3108V46.1285L82.0513 45.0481L82.0684 43.2305L83.9375 44.3108Z" fill="#D9F0F6"/>
<path d="M83.9204 48.2722V50.0899L82.0513 49.0096V47.1919L83.9204 48.2722Z" fill="#B4E2F0"/>
<path d="M83.9204 52.5767L83.9033 54.3772L82.0342 53.2969V51.4963L83.9204 52.5767Z" fill="#95D8EC"/>
<path d="M83.9034 56.8975V58.698L82.0171 57.6177L82.0342 55.8171L83.9034 56.8975Z" fill="#75CFEB"/>
<path d="M83.8862 60.8245V62.6421L82.0171 61.5618V59.7441L83.8862 60.8245Z" fill="#4BC8EF"/>
<path d="M83.8686 65.1631V66.9636L81.9995 65.8833V64.0828L83.8686 65.1631Z" fill="#35AFE4"/>
<path d="M83.8687 69.124L83.8515 70.9245L81.9824 69.8442L81.9996 68.0437L83.8687 69.124Z" fill="#3094D1"/>
<path d="M83.8515 73.7883V75.5889L81.9824 74.5085V72.708L83.8515 73.7883Z" fill="#2E76BC"/>
<path d="M83.8345 77.7322V79.5498L81.9653 78.4695V76.6519L83.8345 77.7322Z" fill="#156BB4"/>
<path d="M83.2343 81.6936C83.5772 81.8822 83.8345 82.3452 83.8345 82.7396V83.134C83.8345 83.5284 83.5772 83.6827 83.2343 83.4769L82.5484 83.0825C82.2054 82.8939 81.9653 82.4309 81.9653 82.0537V81.6593C81.9653 81.2649 82.2226 81.1105 82.5655 81.3163L83.2343 81.6936Z" fill="#175A98"/>
<path d="M83.2857 85.6372C83.6115 85.8259 83.8687 86.2889 83.8687 86.6661V86.9748C83.8687 87.3692 83.6115 87.5235 83.2685 87.3177L82.7027 86.9919C82.3768 86.8033 82.1196 86.3403 82.1196 85.9631V85.6544C82.1196 85.26 82.3768 85.1228 82.7198 85.3114L83.2857 85.6372Z" fill="#1C4A79"/>
<path d="M83.2857 90.0101C83.6115 90.1987 83.8687 90.6617 83.8687 91.0389V91.3476C83.8687 91.742 83.6115 91.8963 83.2685 91.6906L82.7027 91.3648C82.3768 91.1761 82.1196 90.7131 82.1196 90.3359V90.0272C82.1196 89.65 82.3768 89.4956 82.7198 89.6843L83.2857 90.0101Z" fill="#243A5E"/>
<path d="M83.2681 94.3655C83.5939 94.5542 83.8511 95.0172 83.8511 95.3944V95.7031C83.8511 96.0975 83.5939 96.2518 83.251 96.046L82.6851 95.7202C82.3593 95.5316 82.1021 95.0686 82.1021 94.6914V94.3827C82.1021 94.0054 82.3593 93.8511 82.7022 94.0397L83.2681 94.3655Z" fill="#1A2C45"/>
<path d="M83.251 98.7382C83.5768 98.9268 83.834 99.3898 83.834 99.767V100.076C83.834 100.47 83.5768 100.624 83.2338 100.419L82.6851 100.076C82.3593 99.8871 82.1021 99.4241 82.1021 99.0468V98.7382C82.1021 98.3609 82.3593 98.2066 82.7022 98.3952L83.251 98.7382Z" fill="#131D2F"/>
<path d="M105.441 65.0087C105.835 65.2316 106.178 65.7975 106.178 66.2605C106.178 66.7406 105.853 66.9121 105.441 66.6721L89.9736 57.7552C89.5621 57.5151 89.2534 56.9664 89.2534 56.5034C89.2534 56.0404 89.5792 55.8517 89.9736 56.0918L105.441 65.0087Z" fill="#95D8EC"/>
<path d="M93.9349 54.051L93.9178 55.8687L88.9277 52.9878L88.9449 51.1702L93.9349 54.051Z" fill="#B4E2F0"/>
<path d="M128.402 120.431C128.796 120.653 129.122 121.219 129.122 121.682C129.122 122.163 128.796 122.334 128.402 122.111L89.8536 99.8531C89.442 99.613 89.1162 99.0643 89.1162 98.5842C89.1162 98.1212 89.442 97.9325 89.8536 98.1726L128.402 120.431Z" fill="#1A2C45"/>
<path d="M109.402 113.829C109.813 114.069 110.139 114.617 110.139 115.08C110.139 115.56 109.813 115.732 109.402 115.492L96.5581 108.084C96.1466 107.844 95.8379 107.295 95.8379 106.832C95.8379 106.369 96.1637 106.181 96.5581 106.421L109.402 113.829Z" fill="#131D2F"/>
<path d="M110.294 105.598C110.688 105.821 111.031 106.404 111.031 106.85C111.031 107.33 110.705 107.501 110.294 107.261L89.8707 95.4806C89.4591 95.2405 89.1333 94.6917 89.1333 94.2116C89.1333 93.7486 89.4591 93.56 89.8707 93.8001L110.294 105.598Z" fill="#243A5E"/>
<path d="M104.48 97.864C104.892 98.1041 105.218 98.67 105.218 99.1158C105.218 99.596 104.892 99.7674 104.48 99.5274L96.5923 94.9832C96.1807 94.7431 95.8721 94.1944 95.8721 93.7314C95.8721 93.2684 96.1979 93.0798 96.5923 93.3198L104.48 97.864Z" fill="#1C4A79"/>
<path d="M107.721 91.6733C108.116 91.8963 108.459 92.4793 108.459 92.9423C108.459 93.4053 108.133 93.5939 107.721 93.3538L89.9048 83.0651C89.4932 82.825 89.1846 82.2763 89.1846 81.8133C89.1846 81.3332 89.5104 81.1617 89.9048 81.3846L107.721 91.6733Z" fill="#156BB4"/>
<path d="M124.046 109.164C124.44 109.387 124.766 109.953 124.766 110.416C124.766 110.896 124.44 111.068 124.046 110.845L107.704 101.413C107.293 101.173 106.967 100.625 106.967 100.144C106.967 99.6815 107.293 99.51 107.704 99.7329L124.046 109.164Z" fill="#1C4A79"/>
<path d="M126.104 98.2585C126.516 98.4986 126.841 99.0473 126.841 99.5275C126.841 100.008 126.516 100.179 126.104 99.939L89.9048 79.0529C89.4933 78.8128 89.1675 78.2641 89.1675 77.7839C89.1675 77.3038 89.4933 77.1323 89.9048 77.3724L126.104 98.2585Z" fill="#2E76BC"/>
<path d="M117.959 84.8143C118.37 85.0544 118.696 85.6203 118.696 86.0833C118.696 86.5634 118.37 86.7349 117.959 86.4948L89.939 70.3244C89.5275 70.0843 89.2017 69.5356 89.2017 69.0554C89.2017 68.5753 89.5275 68.4038 89.939 68.6439L117.959 84.8143Z" fill="#35AFE4"/>
<path d="M120.308 81.8308C120.72 82.0709 121.028 82.6196 121.028 83.0826C121.028 83.5456 120.703 83.7342 120.308 83.4941L96.3697 69.6729C95.9581 69.4329 95.6323 68.8841 95.6323 68.4211C95.6323 67.941 95.9581 67.7695 96.3697 68.0096L120.308 81.8308Z" fill="#4BC8EF"/>
<path d="M121.217 69.9128C121.611 70.1357 121.954 70.7187 121.954 71.1817C121.954 71.6619 121.628 71.8334 121.217 71.5933L96.4039 57.2577C95.9923 57.0176 95.6665 56.4688 95.6665 55.9887C95.6665 55.5257 95.9923 55.3371 96.4039 55.5772L121.217 69.9128Z" fill="#B4E2F0"/>
<path d="M113.363 56.9832C113.758 57.2061 114.101 57.772 114.101 58.235C114.101 58.7152 113.775 58.8866 113.363 58.6466L89.7163 45.014C89.3048 44.7739 88.9961 44.2252 88.9961 43.7451C88.9961 43.2821 89.3219 43.0934 89.7335 43.3335L113.363 56.9832Z" fill="#EAF6FB"/>
<path d="M123.354 72.4564L62.616 37.389C62.1702 37.1317 61.7586 37.1146 61.4671 37.2861L59.6494 38.3321C59.9409 38.1606 60.3525 38.1778 60.7983 38.435L116.512 77.3435C117.386 77.8408 120.319 77.8923 120.336 78.9383L122.942 148.902C122.942 149.416 122.754 149.759 122.479 149.931L124.297 148.884C124.588 148.713 124.76 148.37 124.76 147.856L124.966 75.2343C124.949 74.1883 124.228 72.9537 123.354 72.4564Z" fill="url(#paint6_linear_1149_7935)"/>
<path d="M121.536 73.5026C122.41 73.9998 123.114 75.2345 123.148 76.2805L122.942 148.902C122.942 149.931 122.205 150.325 121.33 149.828L60.5924 114.76C59.6835 114.229 58.9805 112.977 58.9805 111.965L59.1862 39.3611C59.1862 38.3322 59.9236 37.9378 60.7981 38.4351L121.536 73.5026Z" fill="#444443"/>
<path d="M65.4797 49.0841C65.857 49.307 66.1313 49.7872 66.1313 50.2159V50.5245C66.1313 50.9361 65.8227 51.1076 65.4797 50.9018L64.9138 50.576C64.5537 50.3702 64.2622 49.8558 64.2622 49.4442V49.1356C64.2622 48.7412 64.5537 48.5525 64.9138 48.7583L65.4797 49.0841Z" fill="#EAF6FB"/>
<path d="M66.1314 53.7651V55.5828L64.2451 54.5025L64.2623 52.6848L66.1314 53.7651Z" fill="#D9F0F6"/>
<path d="M66.1142 57.7266V59.5442L64.2451 58.4639V56.6462L66.1142 57.7266Z" fill="#B4E2F0"/>
<path d="M66.1143 62.031L66.0971 63.8315L64.228 62.7512V60.9507L66.1143 62.031Z" fill="#95D8EC"/>
<path d="M66.0972 66.3518V68.1523L64.2109 67.072L64.2281 65.2715L66.0972 66.3518Z" fill="#75CFEB"/>
<path d="M66.0801 70.2788V72.0965L64.2109 71.0162V69.1985L66.0801 70.2788Z" fill="#4BC8EF"/>
<path d="M66.0625 74.6174V76.418L64.1934 75.3376V73.5371L66.0625 74.6174Z" fill="#35AFE4"/>
<path d="M66.0625 78.5784L66.0454 80.3789L64.1763 79.2986L64.1934 77.498L66.0625 78.5784Z" fill="#3094D1"/>
<path d="M66.0454 83.2427V85.0432L64.1763 83.9629V82.1624L66.0454 83.2427Z" fill="#2E76BC"/>
<path d="M66.0283 87.1865V89.0042L64.1592 87.9239V86.1062L66.0283 87.1865Z" fill="#156BB4"/>
<path d="M65.4281 91.1479C65.7711 91.3365 66.0283 91.7995 66.0283 92.1939V92.5883C66.0283 92.9827 65.7711 93.1371 65.4281 92.9313L64.7422 92.5369C64.3992 92.3483 64.1592 91.8853 64.1592 91.508V91.1136C64.1592 90.7192 64.4164 90.5649 64.7594 90.7707L65.4281 91.1479Z" fill="#175A98"/>
<path d="M65.4795 95.0916C65.8053 95.2802 66.0626 95.7432 66.0626 96.1205V96.4291C66.0626 96.8235 65.8053 96.9779 65.4624 96.7721L64.8965 96.4463C64.5707 96.2576 64.3135 95.7947 64.3135 95.4174V95.1087C64.3135 94.7143 64.5707 94.5772 64.9137 94.7658L65.4795 95.0916Z" fill="#1C4A79"/>
<path d="M65.4795 99.4644C65.8053 99.6531 66.0626 100.116 66.0626 100.493V100.802C66.0626 101.196 65.8053 101.351 65.4624 101.145L64.8965 100.819C64.5707 100.63 64.3135 100.167 64.3135 99.7902V99.4816C64.3135 99.1043 64.5707 98.95 64.9137 99.1386L65.4795 99.4644Z" fill="#243A5E"/>
<path d="M65.462 103.82C65.7878 104.009 66.045 104.472 66.045 104.849V105.157C66.045 105.552 65.7878 105.706 65.4448 105.5L64.8789 105.175C64.5531 104.986 64.2959 104.523 64.2959 104.146V103.837C64.2959 103.46 64.5531 103.305 64.8961 103.494L65.462 103.82Z" fill="#1A2C45"/>
<path d="M65.4448 108.193C65.7706 108.381 66.0278 108.844 66.0278 109.221V109.53C66.0278 109.924 65.7706 110.079 65.4277 109.873L64.8789 109.53C64.5531 109.341 64.2959 108.878 64.2959 108.501V108.193C64.2959 107.815 64.5531 107.661 64.8961 107.85L65.4448 108.193Z" fill="#131D2F"/>
<path d="M87.6349 74.4631C88.0293 74.686 88.3722 75.2519 88.3722 75.7148C88.3722 76.195 88.0464 76.3665 87.6349 76.1264L72.1675 67.2095C71.7559 66.9694 71.4473 66.4207 71.4473 65.9577C71.4473 65.4947 71.7731 65.3061 72.1675 65.5462L87.6349 74.4631Z" fill="#95D8EC"/>
<path d="M76.1288 63.5054L76.1116 65.323L71.1216 62.4422L71.1387 60.6245L76.1288 63.5054Z" fill="#B4E2F0"/>
<path d="M110.596 129.885C110.99 130.108 111.316 130.674 111.316 131.137C111.316 131.617 110.99 131.788 110.596 131.565L72.0474 109.307C71.6359 109.067 71.3101 108.519 71.3101 108.039C71.3101 107.576 71.6359 107.387 72.0474 107.627L110.596 129.885Z" fill="#1A2C45"/>
<path d="M91.5957 123.283C92.0073 123.523 92.3331 124.072 92.3331 124.535C92.3331 125.015 92.0073 125.186 91.5957 124.946L78.7519 117.538C78.3404 117.298 78.0317 116.75 78.0317 116.287C78.0317 115.824 78.3575 115.635 78.7519 115.875L91.5957 123.283Z" fill="#131D2F"/>
<path d="M92.4876 115.052C92.882 115.275 93.225 115.858 93.225 116.304C93.225 116.784 92.8992 116.956 92.4876 116.715L72.0645 104.935C71.653 104.695 71.3271 104.146 71.3271 103.666C71.3271 103.203 71.653 103.014 72.0645 103.254L92.4876 115.052Z" fill="#243A5E"/>
<path d="M86.6742 107.318C87.0857 107.558 87.4115 108.124 87.4115 108.57C87.4115 109.05 87.0857 109.222 86.6742 108.982L78.7861 104.438C78.3746 104.197 78.0659 103.649 78.0659 103.186C78.0659 102.723 78.3917 102.534 78.7861 102.774L86.6742 107.318Z" fill="#1C4A79"/>
<path d="M89.9153 101.128C90.3097 101.351 90.6526 101.934 90.6526 102.397C90.6526 102.86 90.3268 103.048 89.9153 102.808L72.0986 92.5195C71.6871 92.2794 71.3784 91.7307 71.3784 91.2677C71.3784 90.7875 71.7042 90.616 72.0986 90.839L89.9153 101.128Z" fill="#156BB4"/>
<path d="M106.24 118.619C106.634 118.842 106.96 119.407 106.96 119.87C106.96 120.351 106.634 120.522 106.24 120.299L89.898 110.868C89.4865 110.628 89.1606 110.079 89.1606 109.599C89.1606 109.136 89.4865 108.964 89.898 109.187L106.24 118.619Z" fill="#1C4A79"/>
<path d="M108.298 107.713C108.709 107.953 109.035 108.502 109.035 108.982C109.035 109.462 108.709 109.633 108.298 109.393L72.0987 88.5072C71.6871 88.2672 71.3613 87.7184 71.3613 87.2383C71.3613 86.7581 71.6871 86.5867 72.0987 86.8267L108.298 107.713Z" fill="#2E76BC"/>
<path d="M100.153 94.2687C100.564 94.5087 100.89 95.0746 100.89 95.5376C100.89 96.0178 100.564 96.1892 100.153 95.9492L72.1329 79.7787C71.7213 79.5386 71.3955 78.9899 71.3955 78.5098C71.3955 78.0296 71.7213 77.8581 72.1329 78.0982L100.153 94.2687Z" fill="#35AFE4"/>
<path d="M102.502 91.2851C102.914 91.5252 103.222 92.0739 103.222 92.5369C103.222 92.9999 102.896 93.1885 102.502 92.9485L78.5635 79.1273C78.152 78.8872 77.8262 78.3385 77.8262 77.8755C77.8262 77.3953 78.152 77.2239 78.5635 77.4639L102.502 91.2851Z" fill="#4BC8EF"/>
<path d="M103.411 79.3671C103.805 79.5901 104.148 80.1731 104.148 80.6361C104.148 81.1162 103.822 81.2877 103.411 81.0476L78.5977 66.712C78.1862 66.4719 77.8604 65.9232 77.8604 65.4431C77.8604 64.9801 78.1862 64.7914 78.5977 65.0315L103.411 79.3671Z" fill="#B4E2F0"/>
<path d="M95.5571 66.4376C95.9515 66.6605 96.2944 67.2264 96.2944 67.6894C96.2944 68.1695 95.9686 68.341 95.5571 68.1009L71.9102 54.4683C71.4986 54.2283 71.1899 53.6795 71.1899 53.1994C71.1899 52.7364 71.5158 52.5478 71.9273 52.7879L95.5571 66.4376Z" fill="#EAF6FB"/>
<path d="M107.209 84.575L46.4715 49.5076C46.0256 49.2504 45.6141 49.2332 45.3226 49.4047L43.5049 50.4507C43.7964 50.2793 44.2079 50.2964 44.6538 50.5536L100.367 89.4622C101.242 89.9595 104.174 90.0109 104.191 91.0569L106.798 161.02C106.798 161.535 106.609 161.878 106.335 162.049L108.152 161.003C108.444 160.832 108.615 160.489 108.615 159.974L108.821 87.353C108.804 86.307 108.084 85.0723 107.209 84.575Z" fill="url(#paint7_linear_1149_7935)"/>
<path d="M105.391 85.6212C106.266 86.1185 106.969 87.3531 107.003 88.3992L106.798 161.02C106.798 162.049 106.06 162.444 105.186 161.946L44.4478 126.879C43.539 126.347 42.8359 125.096 42.8359 124.084L43.0417 51.4798C43.0417 50.4509 43.7791 50.0565 44.6536 50.5538L105.391 85.6212Z" fill="#282827"/>
<path d="M49.3352 61.2028C49.7124 61.4257 49.9868 61.9058 49.9868 62.3345V62.6432C49.9868 63.0547 49.6781 63.2262 49.3352 63.0204L48.7693 62.6946C48.4092 62.4889 48.1177 61.9744 48.1177 61.5629V61.2542C48.1177 60.8598 48.4092 60.6712 48.7693 60.877L49.3352 61.2028Z" fill="#EAF6FB"/>
<path d="M49.9869 65.8838V67.7015L48.1006 66.6211L48.1177 64.8035L49.9869 65.8838Z" fill="#D9F0F6"/>
<path d="M49.9697 69.8452V71.6629L48.1006 70.5826V68.7649L49.9697 69.8452Z" fill="#B4E2F0"/>
<path d="M49.9698 74.1497L49.9526 75.9502L48.0835 74.8699V73.0693L49.9698 74.1497Z" fill="#95D8EC"/>
<path d="M49.9527 78.4705V80.271L48.0664 79.1907L48.0836 77.3901L49.9527 78.4705Z" fill="#75CFEB"/>
<path d="M49.9355 82.3975V84.2151L48.0664 83.1348V81.3171L49.9355 82.3975Z" fill="#4BC8EF"/>
<path d="M49.9179 86.7361V88.5366L48.0488 87.4563V85.6558L49.9179 86.7361Z" fill="#35AFE4"/>
<path d="M49.918 90.697L49.9009 92.4975L48.0317 91.4172L48.0489 89.6167L49.918 90.697Z" fill="#3094D1"/>
<path d="M49.9009 95.3613V97.1619L48.0317 96.0815V94.281L49.9009 95.3613Z" fill="#2E76BC"/>
<path d="M49.8838 99.3052V101.123L48.0146 100.043V98.2249L49.8838 99.3052Z" fill="#156BB4"/>
<path d="M49.2836 103.267C49.6265 103.455 49.8838 103.918 49.8838 104.313V104.707C49.8838 105.101 49.6265 105.256 49.2836 105.05L48.5977 104.656C48.2547 104.467 48.0146 104.004 48.0146 103.627V103.232C48.0146 102.838 48.2719 102.684 48.6148 102.889L49.2836 103.267Z" fill="#175A98"/>
<path d="M49.335 107.21C49.6608 107.399 49.918 107.862 49.918 108.239V108.548C49.918 108.942 49.6608 109.097 49.3179 108.891L48.752 108.565C48.4262 108.376 48.1689 107.913 48.1689 107.536V107.227C48.1689 106.833 48.4262 106.696 48.7691 106.884L49.335 107.21Z" fill="#1C4A79"/>
<path d="M49.335 111.583C49.6608 111.772 49.918 112.235 49.918 112.612V112.921C49.918 113.315 49.6608 113.469 49.3179 113.264L48.752 112.938C48.4262 112.749 48.1689 112.286 48.1689 111.909V111.6C48.1689 111.223 48.4262 111.069 48.7691 111.257L49.335 111.583Z" fill="#243A5E"/>
<path d="M49.3174 115.939C49.6432 116.127 49.9005 116.59 49.9005 116.967V117.276C49.9005 117.67 49.6432 117.825 49.3003 117.619L48.7344 117.293C48.4086 117.105 48.1514 116.642 48.1514 116.264V115.956C48.1514 115.578 48.4086 115.424 48.7515 115.613L49.3174 115.939Z" fill="#1A2C45"/>
<path d="M49.3003 120.311C49.6261 120.5 49.8833 120.963 49.8833 121.34V121.649C49.8833 122.043 49.6261 122.197 49.2831 121.992L48.7344 121.649C48.4086 121.46 48.1514 120.997 48.1514 120.62V120.311C48.1514 119.934 48.4086 119.78 48.7515 119.968L49.3003 120.311Z" fill="#131D2F"/>
<path d="M71.4903 86.5817C71.8847 86.8046 72.2277 87.3705 72.2277 87.8335C72.2277 88.3136 71.9019 88.4851 71.4903 88.245L56.0229 79.3282C55.6114 79.0881 55.3027 78.5394 55.3027 78.0764C55.3027 77.6134 55.6285 77.4247 56.0229 77.6648L71.4903 86.5817Z" fill="#95D8EC"/>
<path d="M59.9842 75.624L59.9671 77.4417L54.9771 74.5608L54.9942 72.7432L59.9842 75.624Z" fill="#B4E2F0"/>
<path d="M94.4513 142.004C94.8457 142.226 95.1715 142.792 95.1715 143.255C95.1715 143.736 94.8457 143.907 94.4513 143.684L55.9029 121.426C55.4913 121.186 55.1655 120.637 55.1655 120.157C55.1655 119.694 55.4913 119.506 55.9029 119.746L94.4513 142.004Z" fill="#1A2C45"/>
<path d="M75.4512 135.402C75.8627 135.642 76.1885 136.19 76.1885 136.653C76.1885 137.133 75.8627 137.305 75.4512 137.065L62.6074 129.657C62.1959 129.417 61.8872 128.868 61.8872 128.405C61.8872 127.942 62.213 127.754 62.6074 127.994L75.4512 135.402Z" fill="#131D2F"/>
<path d="M76.3431 127.171C76.7375 127.394 77.0805 127.977 77.0805 128.423C77.0805 128.903 76.7547 129.074 76.3431 128.834L55.92 117.054C55.5084 116.813 55.1826 116.265 55.1826 115.785C55.1826 115.322 55.5084 115.133 55.92 115.373L76.3431 127.171Z" fill="#243A5E"/>
<path d="M70.5296 119.437C70.9412 119.677 71.267 120.243 71.267 120.689C71.267 121.169 70.9412 121.34 70.5296 121.1L62.6416 116.556C62.23 116.316 61.9214 115.767 61.9214 115.304C61.9214 114.841 62.2472 114.653 62.6416 114.893L70.5296 119.437Z" fill="#1C4A79"/>
<path d="M73.7708 113.246C74.1652 113.469 74.5081 114.052 74.5081 114.515C74.5081 114.978 74.1823 115.167 73.7708 114.927L55.9541 104.638C55.5425 104.398 55.2339 103.849 55.2339 103.386C55.2339 102.906 55.5597 102.735 55.9541 102.958L73.7708 113.246Z" fill="#156BB4"/>
<path d="M90.0954 130.737C90.4898 130.96 90.8156 131.526 90.8156 131.989C90.8156 132.469 90.4898 132.641 90.0954 132.418L73.7535 122.986C73.3419 122.746 73.0161 122.198 73.0161 121.717C73.0161 121.255 73.3419 121.083 73.7535 121.306L90.0954 130.737Z" fill="#1C4A79"/>
<path d="M92.1533 119.832C92.5649 120.072 92.8907 120.62 92.8907 121.1C92.8907 121.581 92.5649 121.752 92.1533 121.512L55.9542 100.626C55.5426 100.386 55.2168 99.8371 55.2168 99.3569C55.2168 98.8768 55.5426 98.7053 55.9542 98.9454L92.1533 119.832Z" fill="#2E76BC"/>
<path d="M84.008 106.387C84.4195 106.627 84.7453 107.193 84.7453 107.656C84.7453 108.136 84.4195 108.308 84.008 108.068L55.9883 91.8974C55.5768 91.6573 55.251 91.1086 55.251 90.6284C55.251 90.1483 55.5768 89.9768 55.9883 90.2169L84.008 106.387Z" fill="#35AFE4"/>
<path d="M86.3574 103.404C86.769 103.644 87.0777 104.193 87.0777 104.656C87.0777 105.119 86.7518 105.307 86.3574 105.067L62.419 91.2459C62.0075 91.0059 61.6816 90.4571 61.6816 89.9941C61.6816 89.514 62.0075 89.3425 62.419 89.5826L86.3574 103.404Z" fill="#4BC8EF"/>
<path d="M87.2662 91.4858C87.6606 91.7087 88.0035 92.2917 88.0035 92.7547C88.0035 93.2349 87.6777 93.4064 87.2662 93.1663L62.4532 78.8306C62.0416 78.5906 61.7158 78.0418 61.7158 77.5617C61.7158 77.0987 62.0416 76.9101 62.4532 77.1502L87.2662 91.4858Z" fill="#B4E2F0"/>
<path d="M79.4126 78.5562C79.807 78.7791 80.1499 79.345 80.1499 79.808C80.1499 80.2882 79.8241 80.4596 79.4126 80.2196L55.7656 66.587C55.3541 66.3469 55.0454 65.7982 55.0454 65.3181C55.0454 64.8551 55.3712 64.6664 55.7828 64.9065L79.4126 78.5562Z" fill="#EAF6FB"/>
<path opacity="0.2" d="M64.2846 129.989C65.8511 129.989 67.1275 128.713 67.1275 127.146V75.4329H11.2173L16.3572 122.688C16.3572 124.254 16.7663 130.206 16.5106 129.97L64.2846 129.989Z" fill="#1F1D21"/>
<path d="M67.1275 75.5437V74.6734C67.1275 73.5904 66.2572 72.7395 65.1935 72.7395H13.1512C12.0876 72.7395 11.2173 73.6098 11.2173 74.6734V75.6404V76.5107V126.31C11.2173 127.393 12.0876 128.244 13.1512 128.244H65.1742C66.2572 128.244 67.1082 127.373 67.1082 126.31V75.6404C67.1468 75.6017 67.1275 75.5824 67.1275 75.5437Z" fill="#F9F8F9"/>
<path opacity="0.2" d="M60.8022 125.271C62.1106 125.271 63.1767 124.204 63.1767 122.896V79.7031H16.4785V122.88C16.4785 124.188 17.5446 125.254 18.853 125.254L60.8022 125.271Z" fill="#1F1D21"/>
<g filter="url(#filter0_d_1149_7935)">
<path d="M63.1767 79.7965V79.0696C63.1767 78.1651 62.4498 77.4543 61.5614 77.4543H18.0938C17.2054 77.4543 16.4785 78.1812 16.4785 79.0696V79.8773V80.6042V122.198C16.4785 123.103 17.2054 123.813 18.0938 123.813H61.5452C62.4498 123.813 63.1605 123.086 63.1605 122.198V79.8773C63.1928 79.845 63.1767 79.8288 63.1767 79.7965Z" fill="white"/>
</g>
<path d="M49.5653 113.609H23.4234C23.2487 113.607 23.0765 113.567 22.9195 113.49C22.7625 113.413 22.6247 113.302 22.5161 113.165C22.4076 113.028 22.331 112.869 22.2921 112.698C22.2532 112.528 22.2529 112.351 22.2913 112.181L27.6869 89.2926C27.7936 88.8564 28.0436 88.4687 28.3968 88.1912C28.75 87.9139 29.186 87.763 29.635 87.7627H55.4503C55.6254 87.7642 55.7972 87.8048 55.9545 87.8816C56.1112 87.9583 56.2491 88.0692 56.358 88.2061C56.4662 88.343 56.5427 88.5025 56.582 88.6729C56.6208 88.8432 56.6208 89.0202 56.5826 89.1907L51.1157 112.395C51.0292 112.741 50.8298 113.048 50.549 113.268C50.2681 113.488 49.922 113.608 49.5653 113.609Z" fill="url(#paint8_linear_1149_7935)"/>
<path d="M45.7803 110.202H39.3545C39.1788 110.202 39.0048 110.168 38.8423 110.101C38.6799 110.034 38.5323 109.935 38.4079 109.811C38.2836 109.687 38.1849 109.54 38.1176 109.377C38.0503 109.215 38.0156 109.041 38.0156 108.865C38.0156 108.69 38.0503 108.516 38.1176 108.353C38.1849 108.191 38.2836 108.044 38.4079 107.92C38.5323 107.796 38.6799 107.697 38.8423 107.63C39.0048 107.563 39.1788 107.529 39.3545 107.529H45.7803C46.1342 107.53 46.4734 107.671 46.7234 107.922C46.9734 108.172 47.1138 108.512 47.1138 108.865C47.1138 109.219 46.9734 109.559 46.7234 109.809C46.4734 110.06 46.1342 110.201 45.7803 110.202Z" fill="white"/>
<path d="M35.2965 90.9349L43.14 99.1151C43.3198 99.3023 43.4573 99.526 43.5428 99.771C43.6284 100.016 43.6601 100.277 43.6359 100.535C43.6117 100.794 43.5321 101.044 43.4026 101.269C43.273 101.494 43.0965 101.688 42.8851 101.838L30.982 110.274C30.6492 110.511 30.236 110.606 29.833 110.539C29.43 110.471 29.0702 110.247 28.8325 109.915C28.5947 109.582 28.4985 109.169 28.565 108.766C28.6314 108.363 28.8551 108.003 29.1868 107.764L39.7538 100.196L33.0831 93.0258C32.8112 92.7314 32.6664 92.3416 32.6801 91.941C32.6938 91.5405 32.8649 91.1615 33.1562 90.8863C33.4475 90.611 33.8356 90.4617 34.2364 90.4709C34.637 90.48 35.0179 90.6467 35.2965 90.9349Z" fill="white"/>
<defs>
<filter id="filter0_d_1149_7935" x="12.4785" y="75.4543" width="54.7021" height="54.3589" filterUnits="userSpaceOnUse" color-interpolation-filters="sRGB">
<feFlood flood-opacity="0" result="BackgroundImageFix"/>
<feColorMatrix in="SourceAlpha" type="matrix" values="0 0 0 0 0 0 0 0 0 0 0 0 0 0 0 0 0 0 127 0" result="hardAlpha"/>
<feOffset dy="2"/>
<feGaussianBlur stdDeviation="2"/>
<feComposite in2="hardAlpha" operator="out"/>
<feColorMatrix type="matrix" values="0 0 0 0 0 0 0 0 0 0 0 0 0 0 0 0 0 0 0.25 0"/>
<feBlend mode="normal" in2="BackgroundImageFix" result="effect1_dropShadow_1149_7935"/>
<feBlend mode="normal" in="SourceGraphic" in2="effect1_dropShadow_1149_7935" result="shape"/>
</filter>
<linearGradient id="paint0_linear_1149_7935" x1="88.7166" y1="188.266" x2="92.6266" y2="-83.4539" gradientUnits="userSpaceOnUse">
<stop offset="0.2" stop-color="white"/>
<stop offset="0.63" stop-color="#F4F3F5"/>
<stop offset="1" stop-color="#E8E6DF"/>
</linearGradient>
<linearGradient id="paint1_linear_1149_7935" x1="90.0564" y1="9.97827" x2="90.0564" y2="181.376" gradientUnits="userSpaceOnUse">
<stop stop-color="#00ABDE"/>
<stop offset="1" stop-color="#007ED8"/>
</linearGradient>
<linearGradient id="paint2_linear_1149_7935" x1="-1819.05" y1="-4731.61" x2="-99.1054" y2="4401.28" gradientUnits="userSpaceOnUse">
<stop offset="0.0435" stop-color="white"/>
<stop offset="0.4857" stop-color="#4DC1EA"/>
<stop offset="0.8452" stop-color="#0078D4"/>
</linearGradient>
<linearGradient id="paint3_linear_1149_7935" x1="36.5858" y1="4.76802" x2="203.24" y2="287.164" gradientUnits="userSpaceOnUse">
<stop stop-color="#007ED8"/>
<stop offset="0.7065" stop-color="#002D4C"/>
</linearGradient>
<linearGradient id="paint4_linear_1149_7935" x1="93.3685" y1="26.8296" x2="151.573" y2="118.546" gradientUnits="userSpaceOnUse">
<stop offset="0.1578" stop-color="#545554"/>
<stop offset="0.5494" stop-color="#282827"/>
<stop offset="1"/>
</linearGradient>
<linearGradient id="paint5_linear_1149_7935" x1="121.511" y1="90.2766" x2="108.87" y2="140.587" gradientUnits="userSpaceOnUse">
<stop stop-color="#676766"/>
<stop offset="1" stop-color="#676766" stop-opacity="0"/>
</linearGradient>
<linearGradient id="paint6_linear_1149_7935" x1="75.5623" y1="36.2839" x2="133.767" y2="128.001" gradientUnits="userSpaceOnUse">
<stop offset="0.1578" stop-color="#545554"/>
<stop offset="0.5494" stop-color="#282827"/>
<stop offset="1"/>
</linearGradient>
<linearGradient id="paint7_linear_1149_7935" x1="59.4178" y1="48.4026" x2="117.623" y2="140.119" gradientUnits="userSpaceOnUse">
<stop offset="0.1578" stop-color="#545554"/>
<stop offset="0.5494" stop-color="#282827"/>
<stop offset="1"/>
</linearGradient>
<linearGradient id="paint8_linear_1149_7935" x1="-3.14045" y1="84.0914" x2="72.0323" y2="113.389" gradientUnits="userSpaceOnUse">
<stop stop-color="#007ED8"/>
<stop offset="0.7065" stop-color="#002D4C"/>
</linearGradient>
</defs>
</svg>
