<?xml version="1.0" encoding="UTF-8"?>
<svg width="100px" height="100px" viewBox="0 0 100 100" version="1.1" xmlns="http://www.w3.org/2000/svg" xmlns:xlink="http://www.w3.org/1999/xlink">
    <!-- Generator: Sketch 55.2 (78181) - https://sketchapp.com -->
    <title>NA/create-azure-users-and-groups-in-azure-active-directory</title>
    <desc>Created with Sketch.</desc>
    <defs>
        <rect id="path-1" x="0" y="0" width="96" height="96" rx="48"></rect>
        <circle id="path-3" cx="26.5" cy="25.5" r="13.5"></circle>
        <filter x="-1.9%" y="-1.9%" width="103.7%" height="103.7%" filterUnits="objectBoundingBox" id="filter-4">
            <feOffset dx="0" dy="1" in="SourceAlpha" result="shadowOffsetInner1"></feOffset>
            <feComposite in="shadowOffsetInner1" in2="SourceAlpha" operator="arithmetic" k2="-1" k3="1" result="shadowInnerInner1"></feComposite>
            <feColorMatrix values="0 0 0 0 0   0 0 0 0 0   0 0 0 0 0  0 0 0 0.1 0" type="matrix" in="shadowInnerInner1"></feColorMatrix>
        </filter>
    </defs>
    <g id="Badges" stroke="none" stroke-width="1" fill="none" fill-rule="evenodd">
        <g id="N/A-30" transform="translate(-50.000000, -660.000000)">
            <g id="NA/create-azure-users-and-groups-in-azure-active-directory" transform="translate(50.000000, 660.000000)">
                <g id="Mask" transform="translate(2.000000, 2.000000)">
                    <mask id="mask-2" fill="white">
                        <use xlink:href="#path-1"></use>
                    </mask>
                    <use id="BG" fill="#55A2FF" xlink:href="#path-1"></use>
                    <g id="Group-4" mask="url(#mask-2)">
                        <g transform="translate(59.000000, 52.000000) rotate(-6.000000) translate(-59.000000, -52.000000) translate(45.000000, 38.000000)">
                            <path d="M14,26 C20.6165,26 26,20.6165 26,14 C26,7.383125 20.6165,2 14,2 C7.383125,2 2,7.383125 2,14 C2,20.6165 7.383125,26 14,26" id="Fill-115" fill="#546670" transform="translate(14.000000, 14.000000) rotate(-6.000000) translate(-14.000000, -14.000000) "></path>
                            <g id="groups" stroke-width="1" fill="none" transform="translate(4.000000, 6.000000)">
                                <g id="Group-2" transform="translate(16.164068, 9.142957) rotate(7.000000) translate(-16.164068, -9.142957) translate(10.664068, 3.142957)" fill="#D9E5E1">
                                    <path d="M4.4287448,5.94500924 C5.79408185,5.94500924 6.90154613,4.83813838 6.90154613,3.47280133 C6.90154613,2.10688569 5.79409669,1 4.4287448,1 C3.06339292,1 1.95594347,2.10687086 1.95594347,3.47280133 C1.95594347,4.83813838 3.06339292,5.94500924 4.4287448,5.94500924 Z" id="Path" transform="translate(4.428745, 3.472505) rotate(-13.000000) translate(-4.428745, -3.472505) "></path>
                                    <path d="M1.00016616,8.13182785 C1.95405209,9.70173328 3.6809629,10.7512051 5.65246859,10.7512051 C7.62397429,10.7512051 9.35098895,9.70170361 10.304771,8.13182785 C10.2989762,8.08836393 10.2821704,8.04606016 10.2526149,8.0095497 C9.6429599,7.24748834 8.67811045,6.79488321 7.38340579,6.79488321 L3.92136524,6.79488321 C2.62671992,6.79488321 1.66190014,7.24748834 1.05215611,8.0095497 C1.02260059,8.04605868 1.00579479,8.08836393 1,8.13182785 L1.00016616,8.13182785 Z" id="Path" transform="translate(5.652386, 8.773044) rotate(-13.000000) translate(-5.652386, -8.773044) "></path>
                                </g>
                                <g id="Group-3" transform="translate(9.000000, 9.000000) rotate(-4.000000) translate(-9.000000, -9.000000) translate(1.000000, 1.000000)" fill="#FFFFFE">
                                    <path d="M7.44394975,7.91201478 C9.62848903,7.91201478 11.4004319,6.14102141 11.4004319,3.95648213 C11.4004319,1.77101711 9.62851277,1.90070182e-13 7.44394975,1.90070182e-13 C5.25938673,1.90070182e-13 3.48746762,1.77099337 3.48746762,3.95648213 C3.48746762,6.14102141 5.25938673,7.91201478 7.44394975,7.91201478 Z" id="Path"></path>
                                    <path d="M0.000265854326,11.6339754 C1.52648335,14.1458241 4.28954064,15.824979 7.44394975,15.824979 C10.5983589,15.824979 13.3615823,14.1457766 14.8876336,11.6339754 C14.878362,11.5644331 14.8514727,11.4967471 14.8041839,11.4383304 C13.8287358,10.2190322 12.2849767,9.494864 10.2134493,9.494864 L4.67418438,9.494864 C2.60275188,9.494864 1.05904022,10.2190322 0.0834497755,11.4383304 C0.0361609364,11.4967447 0.00927166979,11.5644331 -4.67625938e-12,11.6339754 L0.000265854326,11.6339754 Z" id="Path"></path>
                                </g>
                            </g>
                        </g>
                    </g>
                    <g id="shoot" mask="url(#mask-2)">
                        <g transform="translate(22.000000, -8.000000)">
                            <g id="Group" stroke-width="1" fill-rule="evenodd" transform="translate(26.000000, 26.000000) rotate(90.000000) translate(-26.000000, -26.000000) ">
                                <path d="M47.9528101,48 L5.26843728,48 C2.91012568,48 1,46.0288 1,43.6 L1,8.4 C1,5.969 2.91012568,4 5.26843728,4 L47.9528101,4 C50.3089874,4 47.9528101,5.969 47.9528101,8.4 L47.9528101,43.6 C47.9528101,46.0288 50.3089874,48 47.9528101,48" id="Fill-360" fill="#546670"></path>
                                <path d="M39.6,4 L39.6,21.6 C39.6,24.031 37.6288,26 35.2,26 L0,26 L0,43.6 C0,46.031 1.969,48 4.4,48 L44,48 L44,4 L39.6,4" id="Fill-364" fill="#30404D"></path>
                                <path d="M48,52 L48,52 C45.79,52 44,50.0608333 44,47.6666667 L44,4.33333333 C44,1.93916667 45.79,0 48,0 C50.208,0 52,1.93916667 52,4.33333333 L52,47.6666667 C52,50.0608333 50.208,52 48,52" id="Fill-374" fill="#ADBDC4"></path>
                                <path d="M50,47.6359894 L52,47.6359894 C52,50.2868757 49.834,52.383585 47.328,51.9406797 C45.362,51.5915918 44,49.5756091 44,47.4025368 L44,4 L48,4 L48,45.4541899 C48,46.6585432 48.896,47.6359894 50,47.6359894 Z" id="Fill-375" fill="#8BA6B1"></path>
                            </g>
                            <g id="Oval">
                                <use fill="#8BA6B1" fill-rule="evenodd" xlink:href="#path-3"></use>
                                <use fill="black" fill-opacity="1" filter="url(#filter-4)" xlink:href="#path-3"></use>
                            </g>
                            <g id="ActiveDirectory" stroke-width="1" fill-rule="evenodd" transform="translate(16.000000, 15.000000)">
                                <path d="M18.2971091,8.26235455 C17.0600182,8.26235455 16.0577455,9.26462727 16.0577455,10.5011455 C16.0577455,10.9547455 16.1946273,11.3757 16.4271545,11.7285 L11.9919545,16.1637 C11.8739727,16.0812273 11.7474,16.0125 11.6162455,15.9500727 L11.6162455,4.6347 C12.2846182,4.24753636 12.7393636,3.53277273 12.7393636,2.70460909 C12.7393636,1.46809091 11.7370909,0.465818182 10.5,0.465818182 C9.26405455,0.465818182 8.26178182,1.46809091 8.26178182,2.70460909 C8.26178182,3.53277273 8.71652727,4.24753636 9.38432727,4.6347 L9.38432727,15.9495 C9.2589,16.0090636 9.13576364,16.0732091 9.02236364,16.1516727 L4.58200909,11.7113182 C4.80766364,11.3619545 4.94168182,10.9478727 4.94168182,10.5011455 C4.94168182,9.26462727 3.93940909,8.26235455 2.70346364,8.26235455 C1.46637273,8.26235455 0.4641,9.26462727 0.4641,10.5011455 C0.4641,11.7376636 1.46637273,12.7399364 2.70346364,12.7399364 C2.96004545,12.7399364 3.20288182,12.6878182 3.43311818,12.6082091 L8.10084545,17.2759364 C7.96682727,17.5897909 7.89237273,17.9345727 7.89237273,18.2971091 C7.89237273,19.7363727 9.05959091,20.9035909 10.4988545,20.9035909 C11.9386909,20.9035909 13.1053364,19.7363727 13.1053364,18.2971091 C13.1053364,17.9414455 13.0331727,17.6029636 12.9043091,17.2942636 L17.5852091,12.6139364 C17.8097182,12.6895364 18.0456818,12.7399364 18.2959636,12.7399364 C19.5319091,12.7399364 20.5341818,11.7376636 20.5341818,10.5011455 C20.5341818,9.26462727 19.5324818,8.26235455 18.2971091,8.26235455 Z" id="Path" fill="#FFFFFF"></path>
                                <polygon id="Rectangle" fill="#FFFFFF" opacity="0.5" transform="translate(14.662763, 6.815432) rotate(134.991897) translate(-14.662763, -6.815432) " points="13.9402747 0.894634577 15.3852517 0.894634577 15.3852517 12.7362302 13.9402747 12.7362302"></polygon>
                                <polygon id="Rectangle" fill="#FFFFFF" opacity="0.5" transform="translate(6.346322, 6.822970) rotate(45.000000) translate(-6.346322, -6.822970) " points="5.62354711 0.901886196 7.06909689 0.901886196 7.06909689 12.7440544 5.62354711 12.7440544"></polygon>
                                <path d="M12.0263182,18.2971091 C12.0263182,19.1539091 11.3310273,19.8486273 10.4742273,19.8486273 C9.61685455,19.8486273 8.92270909,19.1539091 8.92270909,18.2971091 C8.92270909,17.4403091 9.61685455,16.7455909 10.4742273,16.7455909 C11.3304545,16.7455909 12.0263182,17.4403091 12.0263182,18.2971091" id="Path" fill="#7CB65A"></path>
                                <path d="M11.7451091,2.70460909 C11.7451091,3.39245455 11.1878455,3.94971818 10.5,3.94971818 C9.81215455,3.94971818 9.25489091,3.39245455 9.25489091,2.70460909 C9.25489091,2.01676364 9.81215455,1.4595 10.5,1.4595 C11.1878455,1.4595 11.7451091,2.01676364 11.7451091,2.70460909" id="Path" fill="#7CB65A"></path>
                                <path d="M3.94971818,10.5005727 C3.94971818,11.1884182 3.39130909,11.7456818 2.70460909,11.7456818 C2.01676364,11.7456818 1.4595,11.1884182 1.4595,10.5005727 C1.4595,9.81272727 2.01676364,9.25546364 2.70460909,9.25546364 C3.39130909,9.25546364 3.94971818,9.81272727 3.94971818,10.5005727" id="Path" fill="#7CB65A"></path>
                                <path d="M19.5422182,10.5005727 C19.5422182,11.1884182 18.9838091,11.7456818 18.2965364,11.7456818 C17.6092636,11.7456818 17.0514273,11.1884182 17.0514273,10.5005727 C17.0514273,9.81272727 17.6092636,9.25546364 18.2965364,9.25546364 C18.9838091,9.25546364 19.5422182,9.81272727 19.5422182,10.5005727" id="Path" fill="#7CB65A"></path>
                            </g>
                        </g>
                    </g>
                    <g id="User" mask="url(#mask-2)">
                        <g transform="translate(31.000000, 58.000000) rotate(8.000000) translate(-31.000000, -58.000000) translate(23.000000, 50.000000)">
                            <path d="M8,16 C12.411,16 16,12.411 16,8 C16,3.58875 12.411,0 8,0 C3.58875,0 0,3.58875 0,8 C0,12.411 3.58875,16 8,16" id="Fill-115" fill="#0078D4"></path>
                            <path d="M8.00000009,8.61515729 C9.6990862,8.61515729 11.077264,7.237718 11.077264,5.53863189 C11.077264,3.83882577 9.69910466,2.46136801 8.00000009,2.46136801 C6.30089552,2.46136801 4.92273621,3.8388073 4.92273621,5.53863189 C4.92273621,7.237718 6.30089552,8.61515729 8.00000009,8.61515729 Z" id="Path" fill="#FFFFFE"></path>
                            <path d="M2.21046817,11.5100156 C3.39752622,13.4636757 5.54657078,14.7696851 8.00000009,14.7696851 C10.4534294,14.7696851 12.6026032,13.4636387 13.789532,11.5100156 C13.7823207,11.4559271 13.7614068,11.4032824 13.7246266,11.3578472 C12.9659448,10.4095042 11.7652433,9.84626223 10.1540553,9.84626223 L5.84573814,9.84626223 C4.23462397,9.84626223 3.03395935,10.4095042 2.27516678,11.3578472 C2.23838657,11.4032806 2.2174727,11.4559271 2.2102614,11.5100156 L2.21046817,11.5100156 Z" id="Path" fill="#FFFFFE"></path>
                        </g>
                    </g>
                    <g id="User" mask="url(#mask-2)">
                        <g transform="translate(68.000000, 78.000000) rotate(-6.000000) translate(-68.000000, -78.000000) translate(60.000000, 70.000000)">
                            <path d="M8,16 C12.411,16 16,12.411 16,8 C16,3.58875 12.411,0 8,0 C3.58875,0 0,3.58875 0,8 C0,12.411 3.58875,16 8,16" id="Fill-115" fill="#ADBDC4"></path>
                            <path d="M8.00000009,8.61515729 C9.6990862,8.61515729 11.077264,7.237718 11.077264,5.53863189 C11.077264,3.83882577 9.69910466,2.46136801 8.00000009,2.46136801 C6.30089552,2.46136801 4.92273621,3.8388073 4.92273621,5.53863189 C4.92273621,7.237718 6.30089552,8.61515729 8.00000009,8.61515729 Z" id="Path" fill="#FFFFFE"></path>
                            <path d="M2.21046817,11.5100156 C3.39752622,13.4636757 5.54657078,14.7696851 8.00000009,14.7696851 C10.4534294,14.7696851 12.6026032,13.4636387 13.789532,11.5100156 C13.7823207,11.4559271 13.7614068,11.4032824 13.7246266,11.3578472 C12.9659448,10.4095042 11.7652433,9.84626223 10.1540553,9.84626223 L5.84573814,9.84626223 C4.23462397,9.84626223 3.03395935,10.4095042 2.27516678,11.3578472 C2.23838657,11.4032806 2.2174727,11.4559271 2.2102614,11.5100156 L2.21046817,11.5100156 Z" id="Path" fill="#FFFFFE"></path>
                        </g>
                    </g>
                    <g id="User" mask="url(#mask-2)">
                        <g transform="translate(21.500000, 74.500000) rotate(8.000000) translate(-21.500000, -74.500000) translate(16.000000, 69.000000)">
                            <path d="M5.5,11 C8.5325625,11 11,8.5325625 11,5.5 C11,2.46726562 8.5325625,-1.09139364e-11 5.5,-1.09139364e-11 C2.46726563,-1.09139364e-11 7.27595761e-12,2.46726562 7.27595761e-12,5.5 C7.27595761e-12,8.5325625 2.46726563,11 5.5,11" id="Fill-115" fill="#546670"></path>
                            <path d="M5.50000006,5.92292064 C6.66812176,5.92292064 7.61561898,4.97593113 7.61561898,3.80780943 C7.61561898,2.63919271 6.66813445,1.69219051 5.50000006,1.69219051 C4.33186567,1.69219051 3.38438115,2.63918002 3.38438115,3.80780943 C3.38438115,4.97593113 4.33186567,5.92292064 5.50000006,5.92292064 Z" id="Path" fill="#FFFFFE"></path>
                            <path d="M1.51969687,7.9131357 C2.33579928,9.25627701 3.81326741,10.1541585 5.50000006,10.1541585 C7.18673271,10.1541585 8.6642897,9.25625162 9.48030326,7.9131357 C9.47534549,7.8759499 9.4609672,7.83975667 9.43568081,7.80851994 C8.91408707,7.15653412 8.08860476,6.76930529 6.980913,6.76930529 L4.01894497,6.76930529 C2.91130398,6.76930529 2.08584705,7.15653412 1.56417716,7.80851994 C1.53889077,7.8397554 1.52451248,7.8759499 1.51955471,7.9131357 L1.51969687,7.9131357 Z" id="Path" fill="#FFFFFE"></path>
                        </g>
                    </g>
                    <g id="Group-4" mask="url(#mask-2)">
                        <g transform="translate(40.500000, 84.500000) rotate(5.000000) translate(-40.500000, -84.500000) translate(25.000000, 69.000000)">
                            <path d="M15.5,28.7857143 C22.8254107,28.7857143 28.7857143,22.8254107 28.7857143,15.5 C28.7857143,8.17417411 22.8254107,2.21428571 15.5,2.21428571 C8.17417411,2.21428571 2.21428571,8.17417411 2.21428571,15.5 C2.21428571,22.8254107 8.17417411,28.7857143 15.5,28.7857143" id="Fill-115" fill="#7CB65A" transform="translate(15.500000, 15.500000) rotate(-6.000000) translate(-15.500000, -15.500000) "></path>
                            <g id="groups" stroke-width="1" fill="none" transform="translate(4.428571, 6.642857)">
                                <g id="Group-2" transform="translate(17.895933, 10.122560) rotate(7.000000) translate(-17.895933, -10.122560) translate(11.806647, 3.479703)" fill="#D9E5E1">
                                    <path d="M4.90325317,6.58197452 C6.41487634,6.58197452 7.64099751,5.35651035 7.64099751,3.84488719 C7.64099751,2.33262345 6.41489276,1.10714286 4.90325317,1.10714286 C3.39161359,1.10714286 2.16550884,2.33260702 2.16550884,3.84488719 C2.16550884,5.35651035 3.39161359,6.58197452 4.90325317,6.58197452 Z" id="Path" transform="translate(4.903253, 3.844559) rotate(-13.000000) translate(-4.903253, -3.844559) "></path>
                                    <path d="M1.10732682,9.00309512 C2.16341482,10.7412047 4.07535178,11.90312 6.25809023,11.90312 C8.44082868,11.90312 10.3528806,10.7411719 11.4088536,9.00309512 C11.402438,8.95497435 11.3838316,8.90813803 11.3511094,8.86771573 C10.6761342,8.02400495 9.60790799,7.52290642 8.17448498,7.52290642 L4.34151151,7.52290642 C2.9081542,7.52290642 1.83996087,8.02400495 1.16488712,8.86771573 C1.13216493,8.90813639 1.11355852,8.95497435 1.10714286,9.00309512 L1.10732682,9.00309512 Z" id="Path" transform="translate(6.257998, 9.713013) rotate(-13.000000) translate(-6.257998, -9.713013) "></path>
                                </g>
                                <g id="Group-3" transform="translate(9.964286, 9.964286) rotate(-4.000000) translate(-9.964286, -9.964286) translate(1.107143, 1.107143)" fill="#FFFFFE">
                                    <path d="M8.24151579,8.75973065 C10.6601129,8.75973065 12.6219067,6.79898799 12.6219067,4.38039093 C12.6219067,1.96076894 10.6601391,1.90070182e-13 8.24151579,1.90070182e-13 C5.82289246,1.90070182e-13 3.86112486,1.96074266 3.86112486,4.38039093 C3.86112486,6.79898799 5.82289246,8.75973065 8.24151579,8.75973065 Z" id="Path"></path>
                                    <path d="M0.000294338719,12.8804728 C1.69003513,15.6614481 4.74913428,17.5205125 8.24151579,17.5205125 C11.7338973,17.5205125 14.7931804,15.6613956 16.4827373,12.8804728 C16.4724722,12.8034796 16.4427019,12.7285414 16.3903464,12.6638658 C15.3103861,11.3139285 13.6012242,10.5121709 11.3077474,10.5121709 L5.17498985,10.5121709 C2.88161815,10.5121709 1.17250882,11.3139285 0.0923908229,12.6638658 C0.0400353224,12.7285388 0.010265063,12.8034796 -4.67625938e-12,12.8804728 L0.000294338719,12.8804728 Z" id="Path"></path>
                                </g>
                            </g>
                        </g>
                    </g>
                </g>
                <g id="Azure-Border" stroke="#0078D4" stroke-width="4">
                    <rect x="2" y="2" width="96" height="96" rx="48"></rect>
                </g>
            </g>
        </g>
    </g>
</svg>