<svg width="103" height="103" viewBox="0 0 103 103" fill="none" xmlns="http://www.w3.org/2000/svg">
<path d="M51.3753 98.3494C77.2276 98.3494 98.1812 77.3958 98.1812 51.5435C98.1812 25.6911 77.2276 4.73755 51.3753 4.73755C25.5229 4.73755 4.56934 25.6911 4.56934 51.5435C4.56934 77.3958 25.5229 98.3494 51.3753 98.3494Z" fill="url(#paint0_linear)"/>
<path fill-rule="evenodd" clip-rule="evenodd" d="M51.375 1.54346C23.7617 1.54346 1.375 23.9301 1.375 51.5435C1.375 79.1568 23.7617 101.543 51.375 101.543C78.9883 101.543 101.375 79.1568 101.375 51.5435C101.375 23.9301 78.9883 1.54346 51.375 1.54346ZM51.375 97.3003C26.1034 97.3003 5.61816 76.8151 5.61816 51.5435C5.61816 26.2718 26.1034 5.78662 51.375 5.78662C76.6466 5.78662 97.1318 26.2718 97.1318 51.5435C97.1318 76.8151 76.6466 97.3003 51.375 97.3003Z" fill="#D9D9D9"/>
<path fill-rule="evenodd" clip-rule="evenodd" d="M5.47719 51.5432C5.47719 76.8898 26.028 97.4406 51.3745 97.4406C76.7211 97.4406 97.2719 76.8898 97.2719 51.5432C97.2719 26.1967 76.7211 5.64589 51.3745 5.64589C26.028 5.64589 5.47719 26.1967 5.47719 51.5432ZM51.3745 1.89917C23.9579 1.89917 1.73047 24.1266 1.73047 51.5432C1.73047 78.9599 23.9579 101.187 51.3745 101.187C78.7912 101.187 101.019 78.9599 101.019 51.5432C101.019 24.1266 78.7912 1.89917 51.3745 1.89917Z" fill="#F2F1F0"/>
<path fill-rule="evenodd" clip-rule="evenodd" d="M8.28774 51.5432C8.28774 75.3443 27.574 94.6305 51.375 94.6305C75.1761 94.6305 94.4623 75.3443 94.4623 51.5432C94.4623 27.7422 75.1761 8.45595 51.375 8.45595C27.574 8.45595 8.28774 27.7422 8.28774 51.5432ZM51.375 4.70923C25.5133 4.70923 4.54102 25.6815 4.54102 51.5432C4.54102 77.405 25.5133 98.3773 51.375 98.3773C77.2368 98.3773 98.2091 77.405 98.2091 51.5432C98.2091 25.6815 77.2461 4.70923 51.375 4.70923Z" fill="#0078D4"/>
<path opacity="0.2" d="M85.2081 74.0707L52.0309 93.4412L18.835 74.0707L52.0309 54.8875L85.2081 74.0707Z" fill="#1F1D20"/>
<path d="M52.0306 50.054V88.5984L18.9189 69.1249V30.7959L52.0306 50.054Z" fill="#1D4A79"/>
<path d="M52.0312 50.054L85.4145 30.7959V69.1436L52.0312 88.5984V50.054Z" fill="#243A5E"/>
<path d="M18.9287 30.7959L52.031 11.5471L85.4143 30.8053L52.031 50.054L18.9287 30.7959Z" fill="#166BB3"/>
<path d="M52.2178 50.1664V23.4429L75.054 36.7999V63.5422L52.2178 50.1664Z" fill="#EBEBEB"/>
<path d="M52.2185 50.1665L29.1855 63.5235L29.3729 36.8L52.2092 23.4336V50.1665H52.2185Z" fill="#EBEBEB"/>
<path d="M75.0548 63.5517L52.2185 76.9088L29.1855 63.5517L52.2092 50.1853L75.0548 63.5517Z" fill="#CDCDD0"/>
<path opacity="0.4" d="M35.3301 62.0999L52.2184 52.6394L68.6759 62.3247L52.2184 71.551L35.3301 62.0999Z" fill="#1F1D20"/>
<path d="M52.2184 49.5296V68.413L35.3301 58.8964V40.0691L52.2184 49.5296Z" fill="#2F94D1"/>
<path d="M52.2178 49.5296L68.9094 40.0691V58.8964L52.2178 68.4411V49.5296Z" fill="#2E76BC"/>
<path d="M35.3301 40.0691L52.2184 30.6086L68.9101 40.0691L52.2184 49.5296L35.3301 40.0691Z" fill="#4BC8EF"/>
<path d="M52.2187 68.3475L35.4521 58.5779V59.4303L52.2187 69.0968C52.2749 69.1249 52.1532 69.1436 52.2187 69.1436C52.2843 69.1436 52.1625 69.1249 52.2187 69.0968L68.8167 59.6738V58.8214L52.2187 68.3475Z" fill="#1D4A79"/>
<path d="M52.2187 66.3993L35.4521 56.6204V57.4727L52.2187 67.1393C52.2749 67.1674 52.1532 67.1861 52.2187 67.1861C52.2843 67.1861 52.1625 67.1674 52.2187 67.1393L68.8167 57.6882V56.8358L52.2187 66.3993Z" fill="#1D4A79"/>
<path d="M52.2187 64.4415L35.4521 54.6719V55.5243L52.2187 65.1908C52.2749 65.2189 52.1532 65.2376 52.2187 65.2376C52.2843 65.2376 52.1625 65.2189 52.2187 65.1908L68.8167 55.7397V54.8873L52.2187 64.4415Z" fill="#1D4A79"/>
<path d="M52.2187 62.4651L35.4521 52.7236V53.576L52.2187 63.2051C52.2749 63.2332 52.1532 63.2519 52.2187 63.2519C52.2843 63.2519 52.1625 63.2332 52.2187 63.2051L68.8167 53.754V52.9016L52.2187 62.4651Z" fill="#1D4A79"/>
<path d="M52.2187 60.4794L35.4521 50.7473V51.5997L52.2187 61.2381C52.2749 61.2662 52.1532 61.285 52.2187 61.285C52.2843 61.285 52.1625 61.2662 52.2187 61.2381L68.8167 51.8151V50.9628L52.2187 60.4794Z" fill="#1D4A79"/>
<path d="M52.2187 58.5403L35.4521 48.7988V49.6512L52.2187 59.2896C52.2749 59.3177 52.1532 59.3365 52.2187 59.3365C52.2843 59.3365 52.1625 59.3177 52.2187 59.2896L68.8167 49.8666V49.0143L52.2187 58.5403Z" fill="#1D4A79"/>
<path d="M52.2187 56.5638L35.4521 46.813V47.6654L52.2187 57.3038C52.2749 57.3319 52.1532 57.3506 52.2187 57.3506C52.2843 57.3506 52.1625 57.3319 52.2187 57.3038L68.8167 47.8808V47.0284L52.2187 56.5638Z" fill="#1D4A79"/>
<path d="M52.2187 54.6065L35.4521 44.865V45.7174L52.2187 55.3558C52.2749 55.3839 52.1532 55.4026 52.2187 55.4026C52.2843 55.4026 52.1625 55.3839 52.2187 55.3558L68.8167 45.9328V45.0804L52.2187 54.6065Z" fill="#1D4A79"/>
<path d="M52.2187 52.63L35.4521 42.8792V43.7315L52.2187 53.37C52.2749 53.3981 52.1532 53.4168 52.2187 53.4168C52.2843 53.4168 52.1625 53.3981 52.2187 53.37L68.8167 43.9563V43.104L52.2187 52.63Z" fill="#1D4A79"/>
<path d="M52.2187 50.7095L35.4521 40.9399V41.7923L52.2187 51.4589C52.2749 51.487 52.1532 51.5057 52.2187 51.5057C52.2843 51.5057 52.1625 51.487 52.2187 51.4589L68.8167 41.9984V41.146L52.2187 50.7095Z" fill="#1D4A79"/>
<path d="M73.6773 34.908L54.6533 23.902C53.7541 23.4243 52.6769 23.4243 51.8433 23.902L32.8755 34.908C31.9763 35.3857 31.4424 36.3411 31.4424 37.2965V59.2523C31.4424 60.2733 31.9763 61.1631 32.8755 61.7064C32.8755 61.7064 37.4184 64.4602 38.6829 65.0597C40.5938 66.1931 43.2258 66.2587 45.324 65.1159C47.4221 63.9825 47.6001 60.573 47.6001 60.573V39.0949H44.0688V60.4512C44.0688 60.4512 44.0688 62.2497 42.336 62.5494C41.2026 62.7274 39.7601 62.0717 39.7601 62.0717L34.5522 59.0837V37.54L53.2202 26.7682L71.8882 37.54V59.0743L53.2202 69.8462L48.134 66.8581L44.5465 68.4692L51.8433 72.6562C52.7425 73.1339 53.8197 73.1339 54.6533 72.6562L73.6211 61.7064C74.5203 61.2287 75.0542 60.2733 75.0542 59.2523V37.2965C75.0542 36.3411 74.511 35.3857 73.6773 34.908Z" fill="url(#paint1_linear)"/>
<path d="M67.9914 52.5551C67.9914 54.2317 66.858 56.2081 65.1813 57.2853C63.7482 58.1845 59.6736 58.6622 57.5193 58.6622C55.6646 58.6622 50.157 57.941 49.623 53.4543V51.3561L52.7328 51.4123C52.7328 51.4123 52.2551 53.0234 53.9318 54.2879C55.5429 55.4869 56.9198 55.4213 57.8846 55.4213C62.0715 55.4775 64.4694 54.6439 64.4694 52.7892C64.4694 52.068 64.0479 51.3561 63.5702 50.9346C62.671 50.1572 56.5732 49.7357 54.7186 49.2579C52.8078 48.7802 51.843 48.237 51.1311 47.4033C50.4099 46.5697 50.0539 45.4269 50.0539 44.05C50.0539 42.4389 50.7096 41.1182 51.9647 40.041C53.2855 38.9638 54.8966 38.4299 56.873 38.4299C57.7066 38.4299 59.4488 38.3737 62.6804 38.9076C67.6448 41.062 67.1671 45.249 67.1671 45.249H63.9917C63.2705 41.6615 60.526 41.5397 58.8494 41.5397C57.8284 41.5397 56.4608 41.5397 55.4398 41.7832C54.6624 42.0268 53.707 42.6169 53.707 43.4599C53.707 44.2935 53.707 44.715 54.1847 45.1928C54.6624 45.6705 55.6834 45.7922 57.2945 46.1482C59.683 46.6821 62.4368 46.6259 64.8347 47.6469C67.3919 48.8458 67.9914 51.2437 67.9914 52.5551Z" fill="url(#paint2_linear)"/>
<defs>
<linearGradient id="paint0_linear" x1="53.1456" y1="-13.2493" x2="49.1628" y2="132.519" gradientUnits="userSpaceOnUse">
<stop stop-color="#00ABDE"/>
<stop offset="1" stop-color="#007ED8"/>
</linearGradient>
<linearGradient id="paint1_linear" x1="31.4364" y1="48.2787" x2="75.0502" y2="48.2787" gradientUnits="userSpaceOnUse">
<stop stop-color="#D2EBFF"/>
<stop offset="1" stop-color="#F0FFFD"/>
</linearGradient>
<linearGradient id="paint2_linear" x1="49.6237" y1="48.547" x2="67.9904" y2="48.547" gradientUnits="userSpaceOnUse">
<stop stop-color="#D2EBFF"/>
<stop offset="1" stop-color="#F0FFFD"/>
</linearGradient>
</defs>
</svg>
