<?xml version="1.0" encoding="UTF-8"?>
<svg width="100px" height="100px" viewBox="0 0 100 100" version="1.1" xmlns="http://www.w3.org/2000/svg" xmlns:xlink="http://www.w3.org/1999/xlink">
    <!-- Generator: Sketch 52.2 (67145) - http://www.bohemiancoding.com/sketch -->
    <title>Modern Data Warehouse/create-data-pipelines-using-databricks-delta Copy</title>
    <desc>Created with Sketch.</desc>
    <defs>
        <rect id="path-1" x="0" y="0" width="96" height="96" rx="48"></rect>
        <filter x="-9.8%" y="-44.4%" width="119.5%" height="188.9%" filterUnits="objectBoundingBox" id="filter-3">
            <feOffset dx="0" dy="2" in="SourceAlpha" result="shadowOffsetOuter1"></feOffset>
            <feColorMatrix values="0 0 0 0 0   0 0 0 0 0   0 0 0 0 0  0 0 0 0.103911911 0" type="matrix" in="shadowOffsetOuter1" result="shadowMatrixOuter1"></feColorMatrix>
            <feMerge>
                <feMergeNode in="shadowMatrixOuter1"></feMergeNode>
                <feMergeNode in="SourceGraphic"></feMergeNode>
            </feMerge>
        </filter>
        <filter x="-11.1%" y="-6.1%" width="122.2%" height="112.1%" filterUnits="objectBoundingBox" id="filter-4">
            <feOffset dx="0" dy="2" in="SourceAlpha" result="shadowOffsetOuter1"></feOffset>
            <feColorMatrix values="0 0 0 0 0   0 0 0 0 0   0 0 0 0 0  0 0 0 0.103911911 0" type="matrix" in="shadowOffsetOuter1" result="shadowMatrixOuter1"></feColorMatrix>
            <feMerge>
                <feMergeNode in="shadowMatrixOuter1"></feMergeNode>
                <feMergeNode in="SourceGraphic"></feMergeNode>
            </feMerge>
        </filter>
        <filter x="-8.2%" y="-9.8%" width="116.3%" height="119.5%" filterUnits="objectBoundingBox" id="filter-5">
            <feOffset dx="0" dy="2" in="SourceAlpha" result="shadowOffsetOuter1"></feOffset>
            <feColorMatrix values="0 0 0 0 0   0 0 0 0 0   0 0 0 0 0  0 0 0 0.100996377 0" type="matrix" in="shadowOffsetOuter1" result="shadowMatrixOuter1"></feColorMatrix>
            <feMerge>
                <feMergeNode in="shadowMatrixOuter1"></feMergeNode>
                <feMergeNode in="SourceGraphic"></feMergeNode>
            </feMerge>
        </filter>
    </defs>
    <g id="Badges" stroke="none" stroke-width="1" fill="none" fill-rule="evenodd">
        <g id="Modern-Data-Warehouse" transform="translate(-579.000000, -1329.000000)">
            <g id="Modern-Data-Warehouse/create-data-pipelines-using-databricks-delta-Copy" transform="translate(579.000000, 1329.000000)">
                <g id="Mask" transform="translate(2.000000, 2.000000)">
                    <mask id="mask-2" fill="white">
                        <use xlink:href="#path-1"></use>
                    </mask>
                    <use id="BG" fill="#55A2FF" xlink:href="#path-1"></use>
                    <g id="Pipe" filter="url(#filter-3)" mask="url(#mask-2)">
                        <g transform="translate(69.000000, 44.000000)">
                            <polygon id="Fill-68" fill="#DADADA" points="0.361885914 8.08464813 40.3618859 8.08464813 40.3618859 0.0846481326 0.361885914 0.0846481326"></polygon>
                            <polygon id="Fill-69" fill-opacity="0.0901268116" fill="#000000" points="0.361885914 8.08464813 40.3618859 8.08464813 40.3618859 4.08464813 0.361885914 4.08464813"></polygon>
                        </g>
                    </g>
                    <g id="sparks" mask="url(#mask-2)" stroke-linecap="round">
                        <g transform="translate(56.000000, 48.000000) rotate(-90.000000) translate(-56.000000, -48.000000) translate(21.000000, 33.000000)">
                            <g id="Group" transform="translate(5.331583, 15.118617) rotate(-90.000000) translate(-5.331583, -15.118617) translate(-9.168417, 10.118617)">
                                <path d="M14.3524205,7.06517886 L14.3524205,0.665178863" id="Line" stroke="#FFFFFF" stroke-width="2.4"></path>
                                <path d="M26.9974696,8.72244883 L27.9137186,7.06517886" id="Line-Copy-2" stroke="#FFFFFF" stroke-width="2.4"></path>
                                <path d="M0.667644471,8.72244883 L1.58389346,7.06517886" id="Line-Copy-3" stroke="#FFFFFF" stroke-width="2.4" transform="translate(1.186303, 7.865179) scale(1, -1) translate(-1.186303, -7.865179) "></path>
                                <path d="M8.33097063,7.11417847 L6.8223782,2.18211904 L8.33097063,7.11417847 Z" id="Line" stroke="#FFFFFF" stroke-width="2.4" stroke-linejoin="round"></path>
                                <path d="M21.8994976,2.11122045 L20.3909052,7.04327988 L21.8994976,2.11122045 Z" id="Line-Copy" stroke="#FFFFFF" stroke-width="2.4" stroke-linejoin="round"></path>
                            </g>
                            <g id="Group-Copy" transform="translate(64.023529, 15.118617) scale(-1, 1) rotate(-90.000000) translate(-64.023529, -15.118617) translate(49.523529, 10.118617)">
                                <path d="M14.3524205,7.06517886 L14.3524205,0.665178863" id="Line" stroke="#FFFFFF" stroke-width="2.4"></path>
                                <path d="M26.9974696,8.72244883 L27.9137186,7.06517886" id="Line-Copy-2" stroke="#FFFFFF" stroke-width="2.4"></path>
                                <path d="M0.667644471,8.72244883 L1.58389346,7.06517886" id="Line-Copy-3" stroke="#FFFFFF" stroke-width="2.4" transform="translate(1.186303, 7.865179) scale(1, -1) translate(-1.186303, -7.865179) "></path>
                                <path d="M8.33097063,7.6494093 L6.8223782,2.81792512 L8.33097063,7.6494093 Z" id="Line" stroke="#FFFFFF" stroke-width="2.4" stroke-linejoin="round"></path>
                                <path d="M21.8994976,2.74847231 L20.3909052,7.57995648 L21.8994976,2.74847231 Z" id="Line-Copy" stroke="#FFFFFF" stroke-width="2.4" stroke-linejoin="round"></path>
                            </g>
                        </g>
                    </g>
                    <g id="Knob-Pipe" filter="url(#filter-4)" mask="url(#mask-2)">
                        <g transform="translate(-4.000000, 33.000000)">
                            <g id="Group-4" stroke-width="1" fill="none" transform="translate(12.675790, 0.178156)">
                                <path d="M16.3891822,0 C15.2075822,0 14.1875822,0.648 13.6331822,1.6 L6.34518219,1.6 C5.79078219,0.648 4.77078219,0 3.58918219,0 C1.82198219,0 0.389182193,1.4328 0.389182193,3.2 C0.389182193,4.9672 1.82198219,6.4 3.58918219,6.4 C4.77078219,6.4 5.79078219,5.752 6.34518219,4.8 L8.38918219,4.8 L8.38918219,9.6 C8.38918219,10.4832 9.10518219,11.2 9.98918219,11.2 C10.8723822,11.2 11.5891822,10.4832 11.5891822,9.6 L11.5891822,4.8 L13.6331822,4.8 C14.1875822,5.752 15.2075822,6.4 16.3891822,6.4 C18.0331822,6.4 19.5891822,4.9672 19.5891822,3.2 C19.5891822,1.4328 18.1563822,0 16.3891822,0" id="Fill-64" fill="#D9D9D9"></path>
                                <polygon id="Fill-66" fill="#ADADAD" points="8.38918219 9.6 11.5891822 9.6 11.5891822 4.8 8.38918219 4.8"></polygon>
                                <path d="M9.98918219,4.8 L8.38918219,4.8 L8.38918219,6.4 L9.18918219,6.4 C9.63078219,6.4 9.98918219,6.7584 9.98918219,7.2 L9.98918219,9.6 L11.5891822,9.6 L11.5891822,4.8 L9.98918219,4.8" id="Fill-67" fill-opacity="0.0901268116" fill="#000000"></path>
                                <path d="M17.7011822,0.288 C17.8827822,0.6888 17.9891822,1.1312 17.9891822,1.6 C17.9891822,3.3672 16.5563822,4.8 14.7891822,4.8 C14.3203822,4.8 13.8779822,4.6936 13.4771822,4.512 C13.9787822,5.6232 15.0907822,6.4 16.3891822,6.4 C18.1563822,6.4 19.5891822,4.9672 19.5891822,3.2 C19.5891822,1.9016 18.8123822,0.7896 17.7011822,0.288" id="Fill-70" fill-opacity="0.204483696" fill="#000000"></path>
                                <path d="M4.90118219,0.288 C5.08278219,0.6888 5.18918219,1.1312 5.18918219,1.6 C5.18918219,3.3672 3.75638219,4.8 1.98918219,4.8 C1.52038219,4.8 1.07798219,4.6936 0.677182193,4.512 C1.17878219,5.6232 2.29078219,6.4 3.58918219,6.4 C5.35638219,6.4 6.78918219,4.9672 6.78918219,3.2 C6.78918219,1.9016 6.01238219,0.7896 4.90118219,0.288" id="Fill-71" fill-opacity="0.204483696" fill="#000000"></path>
                            </g>
                            <path d="M35.0784,5.92855554 C34.516,5.66695554 33.8512,5.75175554 33.376,6.14935554 L29.0208,9.77815554 L20,9.77815554 C19.116,9.77815554 18.4,10.4941555 18.4,11.3781555 L18.4,19.3781555 C18.4,20.2621555 19.116,20.9781555 20,20.9781555 L29.0208,20.9781555 L33.376,24.6069555 C33.6688,24.8517555 34.0328,24.9781555 34.4,24.9781555 C34.6304,24.9781555 34.8624,24.9285555 35.0784,24.8269555 C35.6408,24.5637555 36,23.9989555 36,23.3781555 L36,7.37815554 C36,6.75735554 35.6408,6.19255554 35.0784,5.92855554" id="Fill-65" fill="#C8C8C8"></path>
                            <path d="M2.3224065e-28,22.5781555 L0,65.4978356 L8,65.4978356 L8,21.8448686 C8.3568,20.4672686 9.7104,19.3781555 11.2,19.3781555 L18.4,19.3781555 L18.4,11.3781555 L11.2,11.3781555 C5.0144,11.3781555 2.3224065e-28,16.3925555 2.3224065e-28,22.5781555 Z" id="Fill-68" fill="#DADADA"></path>
                            <path d="M4,22.5781555 L4,65.4978356 L8,65.4978356 L8,22.5781555 C8,20.8109555 9.4328,19.3781555 11.2,19.3781555 L18.4,19.3781555 L18.4,15.3781555 L11.2,15.3781555 C7.2232,15.3781555 4,18.6013555 4,22.5781555 Z" id="Fill-69" fill-opacity="0.0901268116" fill="#000000"></path>
                            <path d="M35.0784,5.92855554 C34.8616,5.82775554 34.6304,5.79415554 34.4,5.79415554 L34.4,13.7781555 C34.4,14.6621555 33.684,15.3781555 32.8,15.3781555 L18.4,15.3781555 L18.4,19.3781555 C18.4,20.2621555 19.116,20.9781555 20,20.9781555 L29.0208,20.9781555 L33.376,24.6069555 C33.6688,24.8517555 34.0328,24.9781555 34.4,24.9781555 C34.6304,24.9781555 34.8624,24.9285555 35.0784,24.8269555 C35.6408,24.5637555 36,23.9989555 36,23.3781555 L36,7.37815554 C36,6.75735554 35.6408,6.19255554 35.0784,5.92855554" id="Fill-72" fill-opacity="0.115942029" fill="#000000"></path>
                        </g>
                    </g>
                    <g id="Computer" filter="url(#filter-5)" mask="url(#mask-2)">
                        <g transform="translate(31.000000, 28.000000)">
                            <path d="M3.02000362,40.7700489 C1.35900163,40.7700489 0,39.4110473 0,37.7500453 L0,3.02000362 C0,1.35900163 1.35900163,0 3.02000362,0 L45.3000543,0 C46.9610563,0 48.320058,1.35900163 48.320058,3.02000362 L48.320058,37.7500453 C48.320058,39.4110473 46.9610563,40.7700489 45.3000543,40.7700489 L3.02000362,40.7700489" id="Fill-1456" fill="#30404D"></path>
                            <path d="M3.77500453,38.5050462 C2.94450353,38.5050462 2.26500272,37.8255454 2.26500272,36.9950444 L2.26500272,8.30500996 C2.26500272,7.47450896 2.94450353,6.79500815 3.77500453,6.79500815 L44.5450534,6.79500815 C45.3755544,6.79500815 46.0550552,7.47450896 46.0550552,8.30500996 L46.0550552,36.9950444 C46.0550552,37.8255454 45.3755544,38.5050462 44.5450534,38.5050462 L3.77500453,38.5050462" id="Fill-1457" fill="#E1E4E1"></path>
                            <path d="M3.02000362,3.39750407 C3.02000362,2.77160832 3.52736423,2.26500272 4.15250498,2.26500272 C4.77840073,2.26500272 5.28500634,2.77160832 5.28500634,3.39750407 C5.28500634,4.02264482 4.77840073,4.53000543 4.15250498,4.53000543 C3.52736423,4.53000543 3.02000362,4.02264482 3.02000362,3.39750407" id="Fill-1458" fill="#DF5142"></path>
                            <path d="M7.55000906,3.39750407 C7.55000906,2.77160832 8.05736966,2.26500272 8.68251041,2.26500272 C9.30840616,2.26500272 9.81501177,2.77160832 9.81501177,3.39750407 C9.81501177,4.02264482 9.30840616,4.53000543 8.68251041,4.53000543 C8.05736966,4.53000543 7.55000906,4.02264482 7.55000906,3.39750407" id="Fill-1459" fill="#EFB252"></path>
                            <path d="M12.0800145,3.39750407 C12.0800145,2.77160832 12.5873751,2.26500272 13.2125158,2.26500272 C13.8384116,2.26500272 14.3450172,2.77160832 14.3450172,3.39750407 C14.3450172,4.02264482 13.8384116,4.53000543 13.2125158,4.53000543 C12.5873751,4.53000543 12.0800145,4.02264482 12.0800145,3.39750407" id="Fill-1460" fill="#7CB65A"></path>
                            <path d="M44.9225539,4.53000543 L19.2525231,4.53000543 C18.6266273,4.53000543 18.1200217,4.02264482 18.1200217,3.39750407 C18.1200217,2.77236333 18.6266273,2.26500272 19.2525231,2.26500272 L44.9225539,2.26500272 C45.5484496,2.26500272 46.0550552,2.77236333 46.0550552,3.39750407 C46.0550552,4.02264482 45.5484496,4.53000543 44.9225539,4.53000543" id="Fill-1461" fill="#697D85"></path>
                        </g>
                    </g>
                    <g id="Databricks" mask="url(#mask-2)">
                        <g transform="translate(44.500000, 38.000000)">
                            <g id="Lower" transform="translate(0.000000, 8.531250)">
                                <polygon id="Shadow" fill-opacity="0.093919837" fill="#000000" fill-rule="nonzero" points="2.28983499e-16 11.1654852 0 9.24355379 22 9.24355379 22 11.1654852 11 17.4559704"></polygon>
                                <polygon id="Rectangle-8" fill="#E63118" fill-rule="nonzero" points="22 6.28861809 22 10.5154852 11 16.8059704 11 12.5809704 21.9156842 6.29048519"></polygon>
                                <polygon id="Rectangle-8" fill="#CC271F" fill-rule="nonzero" points="11 12.5809704 11 16.8059704 0 10.5154852 0 6.2894165"></polygon>
                                <polygon id="Rectangle-8" fill="#F65B23" fill-rule="nonzero" points="0 6.29048519 11 0 22 6.29048519 11 12.5809704"></polygon>
                            </g>
                            <g id="Top">
                                <polygon id="Shadow" fill-opacity="0.093919837" fill="#000000" fill-rule="nonzero" points="2.28983499e-16 11.1654852 0 9.24355379 22 9.24355379 22 11.1654852 11 17.4559704"></polygon>
                                <polygon id="Rectangle-8" fill="#E63118" fill-rule="nonzero" points="22 6.28861809 22 10.5154852 11 16.8059704 11 12.5809704 21.9156842 6.29048519"></polygon>
                                <polygon id="Rectangle-8" fill="#CC271F" fill-rule="nonzero" points="11 12.5809704 11 16.8059704 0 10.5154852 0 6.2894165"></polygon>
                                <polygon id="Rectangle-8" fill="#F65B23" fill-rule="nonzero" points="0 6.29048519 11 0 22 6.29048519 11 12.5809704"></polygon>
                            </g>
                        </g>
                    </g>
                </g>
                <g id="Azure-Border" stroke="#0078D4" stroke-width="4">
                    <rect x="2" y="2" width="96" height="96" rx="48"></rect>
                </g>
            </g>
        </g>
    </g>
</svg>