<svg width="103" height="103" viewBox="0 0 103 103" fill="none" xmlns="http://www.w3.org/2000/svg">
<path d="M51.0082 98.2909C25.1582 98.2909 4.19824 77.3409 4.19824 51.4809C4.19824 25.6209 25.1582 4.6709 51.0082 4.6709C76.8582 4.6709 97.8182 25.6309 97.8182 51.4809C97.8182 77.3309 76.8582 98.2909 51.0082 98.2909Z" fill="url(#paint0_linear)"/>
<path fill-rule="evenodd" clip-rule="evenodd" d="M96.9082 51.4811C96.9082 76.8311 76.3582 97.3811 51.0082 97.3811C25.6582 97.3811 5.10816 76.8311 5.10816 51.4811C5.10816 26.1311 25.6582 5.58106 51.0082 5.58106C76.3582 5.58106 96.9082 26.1311 96.9082 51.4811ZM51.0082 1.84106C78.4282 1.84106 100.648 24.0611 100.648 51.4811C100.648 78.9011 78.4182 101.121 51.0082 101.121C23.5882 101.121 1.36816 78.8911 1.36816 51.4811C1.36816 24.0611 23.5882 1.84106 51.0082 1.84106Z" fill="#F2F1F0"/>
<path fill-rule="evenodd" clip-rule="evenodd" d="M94.0977 51.4809C94.0977 75.2809 74.8077 94.5709 51.0077 94.5709C27.2077 94.5709 7.91773 75.2809 7.91773 51.4809C7.91773 27.6809 27.2077 8.39088 51.0077 8.39088C74.8077 8.39088 94.0977 27.6809 94.0977 51.4809ZM51.0077 4.65088C76.8677 4.65088 97.8377 25.6209 97.8377 51.4809C97.8377 77.3409 76.8677 98.3109 51.0077 98.3109C25.1477 98.3109 4.17773 77.3409 4.17773 51.4809C4.17773 25.6209 25.1377 4.65088 51.0077 4.65088Z" fill="url(#paint1_linear)"/>
<path opacity="0.15" d="M51.3781 29.771H19.0881C18.3881 29.771 17.8281 30.331 17.8281 31.031V73.171C17.8281 73.871 18.3881 74.431 19.0881 74.431H51.3781C52.0781 74.431 52.6381 73.871 52.6381 73.171V31.031C52.6281 30.331 52.0681 29.771 51.3781 29.771Z" fill="#1F1D20"/>
<path d="M51.3781 28.2109H19.0881C18.3881 28.2109 17.8281 28.7709 17.8281 29.4709V71.6109C17.8281 72.3109 18.3881 72.8709 19.0881 72.8709H51.3781C52.0781 72.8709 52.6381 72.3109 52.6381 71.6109V29.4709C52.6281 28.7709 52.0681 28.2109 51.3781 28.2109Z" fill="#F2F2F2"/>
<path opacity="0.15" d="M83.1386 29.5908H56.9686C55.7586 29.5908 54.7686 30.5708 54.7686 31.7908V48.2408C54.7686 49.4508 55.7486 50.4408 56.9686 50.4408H82.4086C83.6186 50.4408 84.6086 49.4608 84.6086 48.2408V31.0608C84.5986 30.2408 83.9386 29.5908 83.1386 29.5908Z" fill="#1F1D20"/>
<path d="M56.4086 49.0709H82.9686C83.8686 49.0709 84.6086 48.3409 84.6086 47.4309V29.8609C84.6086 28.9609 83.8786 28.2209 82.9686 28.2209H56.4086C55.5086 28.2209 54.7686 28.9509 54.7686 29.8609V47.4309C54.7786 48.3309 55.5086 49.0709 56.4086 49.0709Z" fill="#F2F2F2"/>
<path opacity="0.15" d="M83.1386 53.3708H56.9686C55.7586 53.3708 54.7686 54.3509 54.7686 55.5709V72.0209C54.7686 73.2309 55.7486 74.2208 56.9686 74.2208H82.4086C83.6186 74.2208 84.6086 73.2409 84.6086 72.0209V54.8409C84.5986 54.0309 83.9386 53.3708 83.1386 53.3708Z" fill="#1F1D20"/>
<path d="M56.4086 72.851H82.9686C83.8686 72.851 84.6086 72.121 84.6086 71.211V53.651C84.6086 52.751 83.8786 52.011 82.9686 52.011H56.4086C55.5086 52.011 54.7686 52.741 54.7686 53.651V71.221C54.7786 72.121 55.5086 72.851 56.4086 72.851Z" fill="#F2F2F2"/>
<path d="M77.998 33.6509C77.998 33.1309 77.578 32.7009 77.048 32.7009H62.408C61.888 32.7009 61.458 33.1209 61.458 33.6509C61.458 34.1709 61.878 34.6009 62.408 34.6009H77.058C77.578 34.5909 77.998 34.1709 77.998 33.6509Z" fill="#50E6FF"/>
<path d="M64.998 33.641C64.998 34.681 65.8481 35.521 66.8781 35.521C67.9181 35.521 68.758 34.671 68.758 33.641C68.758 32.601 67.9081 31.761 66.8781 31.761C65.8381 31.761 64.998 32.601 64.998 33.641Z" fill="#0D3868"/>
<path d="M77.998 38.431C77.998 37.911 77.578 37.481 77.048 37.481H62.408C61.888 37.481 61.458 37.901 61.458 38.431C61.458 38.951 61.878 39.381 62.408 39.381H77.058C77.578 39.371 77.998 38.951 77.998 38.431Z" fill="#32B0E7"/>
<path d="M70.6582 38.431C70.6582 39.471 71.5082 40.311 72.5382 40.311C73.5682 40.311 74.4182 39.461 74.4182 38.431C74.4182 37.391 73.5682 36.551 72.5382 36.551C71.5082 36.551 70.6582 37.391 70.6582 38.431Z" fill="#0D3868"/>
<path d="M77.998 43.491C77.998 42.971 77.578 42.541 77.048 42.541H62.408C61.888 42.541 61.458 42.961 61.458 43.491C61.458 44.011 61.878 44.441 62.408 44.441H77.058C77.578 44.431 77.998 44.011 77.998 43.491Z" fill="#185A97"/>
<path d="M65.0576 43.4909C65.0576 44.5309 65.9076 45.3709 66.9376 45.3709C67.9776 45.3709 68.8176 44.5209 68.8176 43.4909C68.8176 42.4509 67.9676 41.6109 66.9376 41.6109C65.8976 41.6009 65.0576 42.4509 65.0576 43.4909Z" fill="#0D3868"/>
<path d="M69.6977 65.3709C71.2677 65.3709 72.5477 64.1009 72.5477 62.5209C72.5477 60.9509 71.2577 59.6909 69.6977 59.6909C68.1377 59.6909 66.8477 60.9609 66.8477 62.5409C66.8477 64.1209 68.1277 65.3709 69.6977 65.3709Z" fill="url(#paint2_linear)"/>
<path d="M71.0372 61.1609L68.9272 63.2809L68.2872 62.6509L67.8672 63.0609L68.9372 64.1309L71.4872 61.5909L71.0372 61.1609Z" fill="#F2F1F0"/>
<path d="M69.6874 54.7209C65.3574 54.7209 61.8574 58.2209 61.8574 62.5509C61.8574 66.8809 65.3574 70.3809 69.6874 70.3809C74.0174 70.3809 77.5174 66.8809 77.5174 62.5509C77.4874 58.2209 73.9974 54.7209 69.6874 54.7209ZM69.6874 66.2009C67.6774 66.2009 66.0374 64.5609 66.0374 62.5509C66.0374 60.5409 67.6774 58.9009 69.6874 58.9009C71.6974 58.9009 73.3374 60.5309 73.3374 62.5509C73.3374 64.5709 71.6974 66.2009 69.6874 66.2009Z" fill="url(#paint3_linear)"/>
<path d="M69.6774 58.9009L69.6574 54.7209C66.9174 54.7309 64.4974 56.1509 63.1074 58.3109L66.5374 60.7109C67.1474 59.6409 68.3274 58.9009 69.6774 58.9009Z" fill="#50E6FF"/>
<path d="M66.0374 62.551C66.0374 61.881 66.2074 61.261 66.5174 60.731L63.0974 58.321L63.0874 58.351C62.3074 59.551 61.8574 60.991 61.8574 62.551C61.8574 63.701 62.1074 64.791 62.5574 65.771L66.3674 64.081C66.1474 63.621 66.0374 63.101 66.0374 62.551Z" fill="#3BCAF4"/>
<path d="M80.1377 76.1409C84.1377 76.1409 87.3877 72.9009 87.3877 68.8909C87.3777 64.8909 84.1277 61.6609 80.1377 61.6609C76.1477 61.6609 72.8877 64.9009 72.8877 68.9109C72.8877 72.9109 76.1277 76.1409 80.1377 76.1409Z" fill="#002D4C"/>
<path d="M80.7076 64.6509H79.5176V73.1309H80.7076V64.6509Z" fill="#F2F2F2"/>
<path d="M84.3479 68.3608H75.8779V69.5508H84.3579L84.3479 68.3608Z" fill="#F2F2F2"/>
<path d="M35.5181 56.4611C42.3881 56.4611 47.9581 50.8911 47.9581 44.0211C47.9581 37.1511 42.3881 31.5811 35.5181 31.5811C28.6481 31.5811 23.0781 37.1511 23.0781 44.0211C23.0881 50.8911 28.6481 56.4611 35.5181 56.4611Z" fill="#002D4C"/>
<path d="M41.5784 49.081C41.2384 46.001 38.5884 43.571 35.3884 43.571C32.2084 43.571 29.5884 45.941 29.1984 49.001C29.1484 49.211 29.1484 49.451 29.1484 49.661C29.2284 50.531 29.8284 51.371 30.9684 52.031C33.3984 53.421 37.3684 53.421 39.7784 52.031C40.9184 51.371 41.4984 50.531 41.5784 49.661C41.6384 49.471 41.6084 49.261 41.5784 49.081Z" fill="white"/>
<path d="M35.3984 42.6809C37.4684 42.6809 39.1484 41.0109 39.1484 38.9509C39.1484 36.8909 37.4684 35.2209 35.3984 35.2209C33.3284 35.2209 31.6484 36.8909 31.6484 38.9509C31.6484 41.0109 33.3284 42.6809 35.3984 42.6809Z" fill="white"/>
<g opacity="0.15">
<path opacity="0.15" d="M40.9077 60.241H30.4577C30.0077 60.241 29.6377 60.611 29.6377 61.061C29.6377 61.511 30.0077 61.881 30.4577 61.881H40.9077C41.3577 61.881 41.7277 61.511 41.7277 61.061C41.7377 60.611 41.3677 60.241 40.9077 60.241Z" fill="#1F1D20"/>
<path opacity="0.15" d="M40.9077 63.821H30.4577C30.0077 63.821 29.6377 64.191 29.6377 64.641C29.6377 65.091 30.0077 65.461 30.4577 65.461H40.9077C41.3577 65.461 41.7277 65.091 41.7277 64.641C41.7377 64.181 41.3677 63.821 40.9077 63.821Z" fill="#1F1D20"/>
<path opacity="0.15" fill-rule="evenodd" clip-rule="evenodd" d="M30.4579 67.3909H40.8979C41.3479 67.3909 41.7179 67.7609 41.7179 68.2109C41.7179 68.6609 41.3479 69.0309 40.8979 69.0309H30.4579C30.0079 69.0309 29.6379 68.6609 29.6379 68.2109C29.6279 67.7709 29.9979 67.3909 30.4579 67.3909Z" fill="#1F1D20"/>
</g>
<path d="M40.9077 59.9709H30.4577C30.0077 59.9709 29.6377 60.3409 29.6377 60.7909C29.6377 61.2409 30.0077 61.6109 30.4577 61.6109H40.9077C41.3577 61.6109 41.7277 61.2409 41.7277 60.7909C41.7377 60.3409 41.3677 59.9709 40.9077 59.9709Z" fill="#50E6FF"/>
<path d="M40.9077 63.541H30.4577C30.0077 63.541 29.6377 63.911 29.6377 64.361C29.6377 64.811 30.0077 65.181 30.4577 65.181H40.9077C41.3577 65.181 41.7277 64.811 41.7277 64.361C41.7377 63.911 41.3677 63.541 40.9077 63.541Z" fill="#32B0E7"/>
<path fill-rule="evenodd" clip-rule="evenodd" d="M30.4579 67.1208H40.8979C41.3479 67.1208 41.7179 67.4908 41.7179 67.9408C41.7179 68.3908 41.3479 68.7608 40.8979 68.7608H30.4579C30.0079 68.7708 29.6379 68.3908 29.6379 67.9408C29.6279 67.4908 29.9979 67.1208 30.4579 67.1208Z" fill="#185A97"/>
<defs>
<linearGradient id="paint0_linear" x1="49.2383" y1="-13.3087" x2="53.2203" y2="132.462" gradientUnits="userSpaceOnUse">
<stop stop-color="#00ABDE"/>
<stop offset="1" stop-color="#007ED8"/>
</linearGradient>
<linearGradient id="paint1_linear" x1="2.44093" y1="-20.144" x2="97.9689" y2="120.738" gradientUnits="userSpaceOnUse">
<stop stop-color="#007ED8"/>
<stop offset="0.7065" stop-color="#002D4C"/>
</linearGradient>
<linearGradient id="paint2_linear" x1="84.2946" y1="64.8621" x2="44.5328" y2="58.5224" gradientUnits="userSpaceOnUse">
<stop stop-color="#007ED8"/>
<stop offset="0.7065" stop-color="#002D4C"/>
</linearGradient>
<linearGradient id="paint3_linear" x1="84.2919" y1="64.8808" x2="44.5301" y2="58.541" gradientUnits="userSpaceOnUse">
<stop stop-color="#007ED8"/>
<stop offset="0.7065" stop-color="#002D4C"/>
</linearGradient>
</defs>
</svg>
