<svg width="180" height="190" viewBox="0 0 180 190" fill="none" xmlns="http://www.w3.org/2000/svg">
<g clip-path="url(#clip0_1660_22795)">
<path d="M90.1856 189.742C93.2456 189.742 96.2556 188.892 98.9156 187.272L160.886 149.612C166.426 146.242 169.856 139.912 169.856 133.072V58.3619C169.856 51.5419 166.426 45.2019 160.886 41.8219L98.9156 4.16189C93.5856 0.921886 86.7656 0.941886 81.4656 4.16189L19.4956 41.8419C13.9556 45.2119 10.5056 51.5419 10.5056 58.3819V133.082C10.5056 138.842 12.9556 144.262 17.0556 147.832V147.862L81.4656 187.292C84.1056 188.892 87.1256 189.742 90.1856 189.742ZM90.8356 8.69189C92.7856 8.69189 95.2656 9.90189 96.9756 10.9519L157.736 48.1419C161.486 50.4219 163.606 57.0219 163.606 61.7719L162.976 133.072C162.976 137.822 159.776 142.092 156.026 144.372L95.6256 180.752C92.1956 182.842 89.4056 182.842 85.9656 180.752L24.7556 144.282C21.0056 142.002 17.9856 137.802 17.9856 133.072V59.4319C17.9856 54.6919 20.7156 49.8019 24.4856 47.5119L85.0656 10.9519C86.7656 9.91189 88.8856 8.69189 90.8356 8.69189Z" fill="#F2F1F0"/>
<path fill-rule="evenodd" clip-rule="evenodd" d="M98.0856 12.2716C95.6356 10.7716 92.9156 10.0216 90.1856 10.0216C87.4556 10.0216 84.7356 10.7816 82.2856 12.2716L26.1556 46.6016C21.1356 49.6716 18.0256 55.4216 18.0256 61.6716V129.772C18.0256 136.002 21.1256 141.772 26.1556 144.842L82.2856 179.172C84.7356 180.672 87.4556 181.422 90.1856 181.422C92.9156 181.422 95.6356 180.682 98.0856 179.172L154.216 144.842C159.236 141.772 162.346 136.002 162.346 129.772V61.6716C162.346 55.4416 159.246 49.6916 154.216 46.6016L98.0856 12.2716Z" fill="url(#paint0_linear_1660_22795)"/>
<path fill-rule="evenodd" clip-rule="evenodd" d="M90.1856 11.4918C91.8656 11.4918 93.7556 12.3618 95.8156 13.6118L154.286 49.1518C157.936 51.3718 160.346 55.6418 160.346 60.4718V130.952C160.346 135.772 157.936 140.052 154.286 142.272L95.8256 177.812C93.8656 179.002 91.9456 179.752 90.1956 179.752C88.4456 179.752 86.5256 179.002 84.5656 177.812L26.0856 142.282C24.0756 141.052 22.6256 139.852 21.6456 138.242C20.6656 136.642 20.0256 134.422 20.0256 130.962V60.4818C20.0256 55.6518 22.4356 51.3818 26.0856 49.1618L84.5456 13.6218C86.6356 12.3718 88.4956 11.4918 90.1856 11.4918ZM97.8956 181.242L156.356 145.702C161.276 142.712 164.336 137.092 164.336 130.962V60.4818C164.336 54.3518 161.276 48.7318 156.356 45.7418L97.8956 10.2018C95.7856 8.92182 93.0756 7.49182 90.1856 7.49182C87.2856 7.49182 84.5756 8.93182 82.4856 10.1918H82.4756L24.0056 45.7418C19.0856 48.7318 16.0256 54.3518 16.0256 60.4818V130.962C16.0256 134.922 16.7656 137.912 18.2256 140.322C19.6856 142.722 21.7456 144.322 24.0056 145.692L82.4656 181.232C84.6856 182.582 87.3556 183.762 90.1756 183.762C92.9956 183.762 95.6756 182.592 97.8956 181.242Z" fill="url(#paint1_linear_1660_22795)"/>
<path d="M102.331 134.429H152.3C153.771 134.429 154.977 133.223 154.977 131.753V59.9901C154.977 58.5196 153.771 57.3137 152.3 57.3137H80.3317C78.8611 57.3137 77.6553 58.5196 77.6553 59.9901V131.723C77.6553 133.194 78.8611 134.4 80.3317 134.4H90.0079H102.331V134.429Z" fill="#282828"/>
<path d="M154.977 58.6666C154.977 57.1961 153.771 55.9902 152.3 55.9902H80.3317C78.8611 55.9902 77.6553 57.1961 77.6553 58.6666V61.2254H154.977V58.6666Z" fill="#1A2C45"/>
<path d="M92.4791 112.077L92.0674 111.665L101.538 101.842H101.655L121.184 102.018L130.684 91.7832L140.684 101.93L140.272 102.342L130.684 92.6361L121.419 102.606H121.302L101.773 102.43L92.4791 112.077Z" fill="white"/>
<path opacity="0.15" d="M113.654 122.753C113.654 121.576 112.713 120.635 111.537 120.635C110.36 120.635 109.419 121.576 109.419 122.753C109.419 123.929 110.36 124.87 111.537 124.87C112.713 124.87 113.654 123.929 113.654 122.753Z" fill="#1F1D20"/>
<path opacity="0.15" d="M123.271 122.753C123.271 121.576 122.33 120.635 121.153 120.635C119.977 120.635 119.036 121.576 119.036 122.753C119.036 123.929 119.977 124.87 121.153 124.87C122.33 124.87 123.271 123.929 123.271 122.753Z" fill="#1F1D20"/>
<path opacity="0.15" d="M94.4195 122.753C94.4195 121.576 93.4783 120.635 92.3019 120.635C91.1255 120.635 90.1843 121.606 90.1843 122.753C90.1843 123.929 91.1255 124.87 92.3019 124.87C93.4489 124.87 94.4195 123.929 94.4195 122.753Z" fill="#1F1D20"/>
<path opacity="0.15" d="M104.036 122.753C104.036 121.576 103.095 120.635 101.919 120.635C100.742 120.635 99.8013 121.576 99.8013 122.753C99.8013 123.929 100.742 124.87 101.919 124.87C103.095 124.87 104.036 123.929 104.036 122.753Z" fill="#1F1D20"/>
<path opacity="0.15" d="M132.889 122.753C132.889 121.576 131.948 120.635 130.771 120.635C129.595 120.635 128.654 121.576 128.654 122.753C128.654 123.929 129.595 124.87 130.771 124.87C131.948 124.87 132.889 123.929 132.889 122.753Z" fill="#1F1D20"/>
<path opacity="0.15" d="M138.271 122.753C138.271 123.929 139.212 124.87 140.388 124.87C141.565 124.87 142.506 123.929 142.506 122.753C142.506 121.576 141.565 120.635 140.388 120.635C139.212 120.606 138.271 121.576 138.271 122.753Z" fill="#1F1D20"/>
<path opacity="0.15" d="M113.654 113.018C113.654 111.841 112.713 110.9 111.537 110.9C110.36 110.9 109.419 111.841 109.419 113.018C109.419 114.194 110.36 115.135 111.537 115.135C112.713 115.135 113.654 114.194 113.654 113.018Z" fill="#1F1D20"/>
<path opacity="0.15" d="M123.271 113.018C123.271 111.841 122.33 110.9 121.153 110.9C119.977 110.9 119.036 111.841 119.036 113.018C119.036 114.194 119.977 115.135 121.153 115.135C122.33 115.135 123.271 114.194 123.271 113.018Z" fill="#1F1D20"/>
<path opacity="0.15" d="M94.4195 113.018C94.4195 111.841 93.4783 110.9 92.3019 110.9C91.1255 110.9 90.1843 111.841 90.1843 113.018C90.1843 114.194 91.1255 115.135 92.3019 115.135C93.4489 115.165 94.4195 114.194 94.4195 113.018Z" fill="#1F1D20"/>
<path opacity="0.15" d="M104.036 113.018C104.036 111.841 103.095 110.9 101.919 110.9C100.742 110.9 99.8013 111.841 99.8013 113.018C99.8013 114.194 100.742 115.135 101.919 115.135C103.095 115.135 104.036 114.194 104.036 113.018Z" fill="#1F1D20"/>
<path opacity="0.15" d="M132.889 113.018C132.889 111.841 131.948 110.9 130.771 110.9C129.595 110.9 128.654 111.841 128.654 113.018C128.654 114.194 129.595 115.135 130.771 115.135C131.948 115.135 132.889 114.194 132.889 113.018Z" fill="#1F1D20"/>
<path opacity="0.15" d="M142.537 113.018C142.537 111.841 141.596 110.9 140.419 110.9C139.243 110.9 138.302 111.841 138.302 113.018C138.302 114.194 139.243 115.135 140.419 115.135C141.566 115.135 142.537 114.194 142.537 113.018Z" fill="#1F1D20"/>
<path opacity="0.15" d="M113.654 103.312C113.654 102.136 112.713 101.194 111.537 101.194C110.36 101.194 109.419 102.136 109.419 103.312C109.419 104.488 110.36 105.43 111.537 105.43C112.713 105.43 113.654 104.488 113.654 103.312Z" fill="#1F1D20"/>
<path opacity="0.15" d="M121.153 105.43C122.33 105.43 123.271 104.488 123.271 103.312C123.271 102.136 122.33 101.194 121.153 101.194C119.977 101.194 119.036 102.136 119.036 103.312C119.036 104.488 119.977 105.43 121.153 105.43Z" fill="#1F1D20"/>
<path opacity="0.15" d="M94.4195 103.312C94.4195 102.136 93.4783 101.194 92.3019 101.194C91.1255 101.194 90.1843 102.136 90.1843 103.312C90.1843 104.488 91.1255 105.43 92.3019 105.43C93.4489 105.43 94.4195 104.488 94.4195 103.312Z" fill="#1F1D20"/>
<path opacity="0.15" d="M101.891 105.43C103.067 105.43 104.008 104.488 104.008 103.312C104.008 102.136 103.067 101.194 101.891 101.194C100.714 101.194 99.7729 102.136 99.7729 103.312C99.7729 104.488 100.714 105.43 101.891 105.43Z" fill="#1F1D20"/>
<path opacity="0.15" d="M132.889 103.312C132.889 102.136 131.948 101.194 130.771 101.194C129.595 101.194 128.654 102.136 128.654 103.312C128.654 104.488 129.595 105.43 130.771 105.43C131.948 105.43 132.889 104.488 132.889 103.312Z" fill="#1F1D20"/>
<path opacity="0.15" d="M140.388 105.43C141.565 105.43 142.506 104.488 142.506 103.312C142.506 102.136 141.565 101.194 140.388 101.194C139.212 101.194 138.271 102.136 138.271 103.312C138.271 104.488 139.212 105.43 140.388 105.43Z" fill="#1F1D20"/>
<path opacity="0.15" d="M113.654 93.6065C113.654 92.43 112.713 91.4889 111.537 91.4889C110.36 91.4889 109.419 92.43 109.419 93.6065C109.419 94.7829 110.36 95.7241 111.537 95.7241C112.713 95.7241 113.654 94.7829 113.654 93.6065Z" fill="#1F1D20"/>
<path opacity="0.15" d="M123.271 93.6065C123.271 92.43 122.33 91.4889 121.153 91.4889C119.977 91.4889 119.036 92.43 119.036 93.6065C119.036 94.7829 119.977 95.7241 121.153 95.7241C122.33 95.7241 123.271 94.7829 123.271 93.6065Z" fill="#1F1D20"/>
<path opacity="0.15" d="M94.4195 93.6065C94.4195 92.43 93.4783 91.4889 92.3019 91.4889C91.1255 91.4889 90.1843 92.4595 90.1843 93.6065C90.1843 94.7535 91.1255 95.7241 92.3019 95.7241C93.4489 95.7241 94.4195 94.7829 94.4195 93.6065Z" fill="#1F1D20"/>
<path opacity="0.15" d="M104.036 93.6065C104.036 92.43 103.095 91.4889 101.919 91.4889C100.742 91.4889 99.8013 92.43 99.8013 93.6065C99.8013 94.7829 100.742 95.7241 101.919 95.7241C103.095 95.7241 104.036 94.7829 104.036 93.6065Z" fill="#1F1D20"/>
<path opacity="0.15" d="M132.889 93.6065C132.889 92.43 131.948 91.4889 130.771 91.4889C129.595 91.4889 128.654 92.43 128.654 93.6065C128.654 94.7829 129.595 95.7241 130.771 95.7241C131.948 95.7241 132.889 94.7829 132.889 93.6065Z" fill="#1F1D20"/>
<path opacity="0.15" d="M142.537 93.6065C142.537 92.43 141.596 91.4889 140.419 91.4889C139.243 91.4889 138.302 92.43 138.302 93.6065C138.302 94.7829 139.243 95.7241 140.419 95.7241C141.566 95.7241 142.537 94.7829 142.537 93.6065Z" fill="#1F1D20"/>
<path opacity="0.15" d="M113.654 83.8714C113.654 82.6949 112.713 81.7538 111.537 81.7538C110.36 81.7538 109.419 82.6949 109.419 83.8714C109.419 85.0478 110.36 85.989 111.537 85.989C112.713 85.989 113.654 85.0478 113.654 83.8714Z" fill="#1F1D20"/>
<path opacity="0.15" d="M123.271 83.8714C123.271 82.6949 122.33 81.7538 121.153 81.7538C119.977 81.7538 119.036 82.6949 119.036 83.8714C119.036 85.0478 119.977 85.989 121.153 85.989C122.33 85.989 123.271 85.0478 123.271 83.8714Z" fill="#1F1D20"/>
<path opacity="0.15" d="M94.4195 83.8714C94.4195 82.6949 93.4783 81.7538 92.3019 81.7538C91.1255 81.7538 90.1843 82.6949 90.1843 83.8714C90.1843 85.0478 91.1255 85.989 92.3019 85.989C93.4489 86.0184 94.4195 85.0478 94.4195 83.8714Z" fill="#1F1D20"/>
<path opacity="0.15" d="M104.036 83.8714C104.036 82.6949 103.095 81.7538 101.919 81.7538C100.742 81.7538 99.8013 82.6949 99.8013 83.8714C99.8013 85.0478 100.742 85.989 101.919 85.989C103.066 85.989 104.036 85.0478 104.036 83.8714Z" fill="#1F1D20"/>
<path opacity="0.15" d="M132.889 83.8714C132.889 82.6949 131.948 81.7538 130.771 81.7538C129.595 81.7538 128.654 82.6949 128.654 83.8714C128.654 85.0478 129.595 85.989 130.771 85.989C131.948 85.989 132.889 85.0478 132.889 83.8714Z" fill="#1F1D20"/>
<path opacity="0.15" d="M142.537 83.8714C142.537 82.6949 141.596 81.7538 140.419 81.7538C139.243 81.7538 138.302 82.6949 138.302 83.8714C138.302 85.0478 139.243 85.989 140.419 85.989C141.566 85.989 142.537 85.0478 142.537 83.8714Z" fill="#1F1D20"/>
<path opacity="0.15" d="M113.654 74.1658C113.654 72.9894 112.713 72.0482 111.537 72.0482C110.36 72.0482 109.419 72.9894 109.419 74.1658C109.419 75.3422 110.36 76.2834 111.537 76.2834C112.713 76.2834 113.654 75.3422 113.654 74.1658Z" fill="#1F1D20"/>
<path opacity="0.15" d="M123.271 74.1658C123.271 72.9894 122.33 72.0482 121.153 72.0482C119.977 72.0482 119.036 72.9894 119.036 74.1658C119.036 75.3422 119.977 76.2834 121.153 76.2834C122.33 76.2834 123.271 75.3422 123.271 74.1658Z" fill="#1F1D20"/>
<path opacity="0.15" d="M94.4195 74.1658C94.4195 72.9894 93.4783 72.0482 92.3019 72.0482C91.1255 72.0482 90.1843 72.9894 90.1843 74.1658C90.1843 75.3422 91.1255 76.2834 92.3019 76.2834C93.4489 76.3128 94.4195 75.3422 94.4195 74.1658Z" fill="#1F1D20"/>
<path opacity="0.15" d="M104.036 74.1658C104.036 72.9894 103.095 72.0482 101.919 72.0482C100.742 72.0482 99.8013 72.9894 99.8013 74.1658C99.8013 75.3422 100.742 76.2834 101.919 76.2834C103.066 76.2834 104.036 75.3422 104.036 74.1658Z" fill="#1F1D20"/>
<path opacity="0.15" d="M132.889 74.1658C132.889 72.9894 131.948 72.0482 130.771 72.0482C129.595 72.0482 128.654 72.9894 128.654 74.1658C128.654 75.3422 129.595 76.2834 130.771 76.2834C131.948 76.2834 132.889 75.3422 132.889 74.1658Z" fill="#1F1D20"/>
<path opacity="0.15" d="M142.537 74.1658C142.537 72.9894 141.596 72.0482 140.419 72.0482C139.243 72.0482 138.302 72.9894 138.302 74.1658C138.302 75.3422 139.243 76.2834 140.419 76.2834C141.566 76.2834 142.537 75.3422 142.537 74.1658Z" fill="#1F1D20"/>
<g filter="url(#filter0_ddddd_1660_22795)">
<path d="M113.654 121.665C113.654 120.488 112.713 119.547 111.536 119.547C110.36 119.547 109.419 120.488 109.419 121.665C109.419 122.841 110.36 123.782 111.536 123.782C112.713 123.782 113.654 122.841 113.654 121.665Z" fill="url(#paint2_linear_1660_22795)"/>
<path d="M123.271 121.665C123.271 120.488 122.33 119.547 121.154 119.547C119.977 119.547 119.036 120.488 119.036 121.665C119.036 122.841 119.977 123.782 121.154 123.782C122.33 123.782 123.271 122.841 123.271 121.665Z" fill="url(#paint3_linear_1660_22795)"/>
<path d="M94.4195 121.665C94.4195 120.488 93.4783 119.547 92.3019 119.547C91.1255 119.547 90.1843 120.517 90.1843 121.665C90.1843 122.841 91.1255 123.782 92.3019 123.782C93.4489 123.782 94.4195 122.841 94.4195 121.665Z" fill="url(#paint4_linear_1660_22795)"/>
<path d="M104.037 121.665C104.037 120.488 103.096 119.547 101.919 119.547C100.743 119.547 99.8016 120.488 99.8016 121.665C99.8016 122.841 100.743 123.782 101.919 123.782C103.096 123.782 104.037 122.841 104.037 121.665Z" fill="url(#paint5_linear_1660_22795)"/>
<path d="M132.888 121.665C132.888 120.488 131.947 119.547 130.771 119.547C129.594 119.547 128.653 120.488 128.653 121.665C128.653 122.841 129.594 123.782 130.771 123.782C131.947 123.782 132.888 122.841 132.888 121.665Z" fill="url(#paint6_linear_1660_22795)"/>
<path d="M138.271 121.665C138.271 122.841 139.212 123.782 140.388 123.782C141.565 123.782 142.506 122.841 142.506 121.665C142.506 120.488 141.565 119.547 140.388 119.547C139.212 119.547 138.271 120.488 138.271 121.665Z" fill="url(#paint7_linear_1660_22795)"/>
<path d="M113.654 111.959C113.654 110.782 112.713 109.841 111.536 109.841C110.36 109.841 109.419 110.782 109.419 111.959C109.419 113.135 110.36 114.076 111.536 114.076C112.713 114.076 113.654 113.106 113.654 111.959Z" fill="url(#paint8_linear_1660_22795)"/>
<path d="M123.271 111.959C123.271 110.782 122.33 109.841 121.154 109.841C119.977 109.841 119.036 110.782 119.036 111.959C119.036 113.135 119.977 114.076 121.154 114.076C122.33 114.076 123.271 113.106 123.271 111.959Z" fill="url(#paint9_linear_1660_22795)"/>
<path d="M94.4195 111.959C94.4195 110.782 93.4783 109.841 92.3019 109.841C91.1255 109.841 90.1843 110.782 90.1843 111.959C90.1843 113.135 91.1255 114.076 92.3019 114.076C93.4489 114.076 94.4195 113.106 94.4195 111.959Z" fill="url(#paint10_linear_1660_22795)"/>
<path d="M104.037 111.959C104.037 110.782 103.096 109.841 101.919 109.841C100.743 109.841 99.8016 110.782 99.8016 111.959C99.8016 113.135 100.743 114.076 101.919 114.076C103.096 114.076 104.037 113.106 104.037 111.959Z" fill="url(#paint11_linear_1660_22795)"/>
<path d="M132.888 111.959C132.888 110.782 131.947 109.841 130.771 109.841C129.594 109.841 128.653 110.782 128.653 111.959C128.653 113.135 129.594 114.076 130.771 114.076C131.947 114.076 132.888 113.106 132.888 111.959Z" fill="url(#paint12_linear_1660_22795)"/>
<path d="M142.536 111.959C142.536 110.782 141.595 109.841 140.419 109.841C139.242 109.841 138.301 110.782 138.301 111.959C138.301 113.135 139.242 114.076 140.419 114.076C141.566 114.076 142.536 113.106 142.536 111.959Z" fill="url(#paint13_linear_1660_22795)"/>
<path d="M113.654 102.224C113.654 101.047 112.713 100.106 111.536 100.106C110.36 100.106 109.419 101.047 109.419 102.224C109.419 103.4 110.36 104.341 111.536 104.341C112.713 104.371 113.654 103.4 113.654 102.224Z" fill="url(#paint14_linear_1660_22795)"/>
<path d="M121.154 104.371C122.33 104.371 123.271 103.43 123.271 102.253C123.271 101.077 122.33 100.136 121.154 100.136C119.977 100.136 119.036 101.077 119.036 102.253C119.036 103.4 119.977 104.371 121.154 104.371Z" fill="url(#paint15_linear_1660_22795)"/>
<path d="M94.4195 102.224C94.4195 101.047 93.4783 100.106 92.3019 100.106C91.1255 100.106 90.1843 101.047 90.1843 102.224C90.1843 103.4 91.1255 104.341 92.3019 104.341C93.4489 104.371 94.4195 103.4 94.4195 102.224Z" fill="url(#paint16_linear_1660_22795)"/>
<path d="M101.89 104.371C103.067 104.371 104.008 103.43 104.008 102.253C104.008 101.077 103.067 100.136 101.89 100.136C100.714 100.136 99.7729 101.077 99.7729 102.253C99.7729 103.4 100.714 104.371 101.89 104.371Z" fill="url(#paint17_linear_1660_22795)"/>
<path d="M132.888 102.224C132.888 101.047 131.947 100.106 130.771 100.106C129.594 100.106 128.653 101.047 128.653 102.224C128.653 103.4 129.594 104.341 130.771 104.341C131.947 104.371 132.888 103.4 132.888 102.224Z" fill="url(#paint18_linear_1660_22795)"/>
<path d="M140.388 104.371C141.565 104.371 142.506 103.43 142.506 102.253C142.506 101.077 141.565 100.136 140.388 100.136C139.212 100.136 138.271 101.077 138.271 102.253C138.271 103.4 139.212 104.371 140.388 104.371Z" fill="url(#paint19_linear_1660_22795)"/>
<path d="M113.654 92.5183C113.654 91.3418 112.713 90.4007 111.536 90.4007C110.36 90.4007 109.419 91.3418 109.419 92.5183C109.419 93.6947 110.36 94.6359 111.536 94.6359C112.713 94.6359 113.654 93.6947 113.654 92.5183Z" fill="url(#paint20_linear_1660_22795)"/>
<path d="M123.271 92.5183C123.271 91.3418 122.33 90.4007 121.154 90.4007C119.977 90.4007 119.036 91.3418 119.036 92.5183C119.036 93.6947 119.977 94.6359 121.154 94.6359C122.33 94.6359 123.271 93.6947 123.271 92.5183Z" fill="url(#paint21_linear_1660_22795)"/>
<path d="M94.4195 92.5183C94.4195 91.3418 93.4783 90.4007 92.3019 90.4007C91.1255 90.4007 90.1843 91.3713 90.1843 92.5183C90.1843 93.6653 91.1255 94.6359 92.3019 94.6359C93.4489 94.6359 94.4195 93.6947 94.4195 92.5183Z" fill="url(#paint22_linear_1660_22795)"/>
<path d="M104.037 92.5183C104.037 91.3418 103.096 90.4007 101.919 90.4007C100.743 90.4007 99.8016 91.3418 99.8016 92.5183C99.8016 93.6947 100.743 94.6359 101.919 94.6359C103.096 94.6359 104.037 93.6947 104.037 92.5183Z" fill="url(#paint23_linear_1660_22795)"/>
<path d="M132.888 92.5183C132.888 91.3418 131.947 90.4007 130.771 90.4007C129.594 90.4007 128.653 91.3418 128.653 92.5183C128.653 93.6947 129.594 94.6359 130.771 94.6359C131.947 94.6359 132.888 93.6947 132.888 92.5183Z" fill="url(#paint24_linear_1660_22795)"/>
<path d="M142.536 92.5183C142.536 91.3418 141.595 90.4007 140.419 90.4007C139.242 90.4007 138.301 91.3418 138.301 92.5183C138.301 93.6947 139.242 94.6359 140.419 94.6359C141.566 94.6359 142.536 93.6947 142.536 92.5183Z" fill="url(#paint25_linear_1660_22795)"/>
<path d="M113.654 82.8127C113.654 81.6362 112.713 80.6951 111.536 80.6951C110.36 80.6951 109.419 81.6362 109.419 82.8127C109.419 83.9891 110.36 84.9303 111.536 84.9303C112.713 84.9303 113.654 83.9597 113.654 82.8127Z" fill="url(#paint26_linear_1660_22795)"/>
<path d="M123.271 82.8127C123.271 81.6362 122.33 80.6951 121.154 80.6951C119.977 80.6951 119.036 81.6362 119.036 82.8127C119.036 83.9891 119.977 84.9303 121.154 84.9303C122.33 84.9303 123.271 83.9597 123.271 82.8127Z" fill="url(#paint27_linear_1660_22795)"/>
<path d="M94.4195 82.8127C94.4195 81.6362 93.4783 80.6951 92.3019 80.6951C91.1255 80.6951 90.1843 81.6362 90.1843 82.8127C90.1843 83.9891 91.1255 84.9303 92.3019 84.9303C93.4489 84.9303 94.4195 83.9597 94.4195 82.8127Z" fill="url(#paint28_linear_1660_22795)"/>
<path d="M104.037 82.8127C104.037 81.6362 103.096 80.6951 101.919 80.6951C100.743 80.6951 99.8016 81.6362 99.8016 82.8127C99.8016 83.9891 100.743 84.9303 101.919 84.9303C103.066 84.9303 104.037 83.9597 104.037 82.8127Z" fill="url(#paint29_linear_1660_22795)"/>
<path d="M132.888 82.8127C132.888 81.6362 131.947 80.6951 130.771 80.6951C129.594 80.6951 128.653 81.6362 128.653 82.8127C128.653 83.9891 129.594 84.9303 130.771 84.9303C131.947 84.9303 132.888 83.9597 132.888 82.8127Z" fill="url(#paint30_linear_1660_22795)"/>
<path d="M142.536 82.8127C142.536 81.6362 141.595 80.6951 140.419 80.6951C139.242 80.6951 138.301 81.6362 138.301 82.8127C138.301 83.9891 139.242 84.9303 140.419 84.9303C141.566 84.9303 142.536 83.9597 142.536 82.8127Z" fill="url(#paint31_linear_1660_22795)"/>
<path d="M113.654 73.0777C113.654 71.9012 112.713 70.9601 111.536 70.9601C110.36 70.9601 109.419 71.9012 109.419 73.0777C109.419 74.2541 110.36 75.1953 111.536 75.1953C112.713 75.2247 113.654 74.2541 113.654 73.0777Z" fill="url(#paint32_linear_1660_22795)"/>
<path d="M123.271 73.0777C123.271 71.9012 122.33 70.9601 121.154 70.9601C119.977 70.9601 119.036 71.9012 119.036 73.0777C119.036 74.2541 119.977 75.1953 121.154 75.1953C122.33 75.2247 123.271 74.2541 123.271 73.0777Z" fill="url(#paint33_linear_1660_22795)"/>
<path d="M94.4195 73.0777C94.4195 71.9012 93.4783 70.9601 92.3019 70.9601C91.1255 70.9601 90.1843 71.9012 90.1843 73.0777C90.1843 74.2541 91.1255 75.1953 92.3019 75.1953C93.4489 75.2247 94.4195 74.2541 94.4195 73.0777Z" fill="url(#paint34_linear_1660_22795)"/>
<path d="M104.037 73.0777C104.037 71.9012 103.096 70.9601 101.919 70.9601C100.743 70.9601 99.8016 71.9012 99.8016 73.0777C99.8016 74.2541 100.743 75.1953 101.919 75.1953C103.066 75.2247 104.037 74.2541 104.037 73.0777Z" fill="url(#paint35_linear_1660_22795)"/>
<path d="M132.888 73.0777C132.888 71.9012 131.947 70.9601 130.771 70.9601C129.594 70.9601 128.653 71.9012 128.653 73.0777C128.653 74.2541 129.594 75.1953 130.771 75.1953C131.947 75.2247 132.888 74.2541 132.888 73.0777Z" fill="url(#paint36_linear_1660_22795)"/>
<path d="M142.536 73.0777C142.536 71.9012 141.595 70.9601 140.419 70.9601C139.242 70.9601 138.301 71.9012 138.301 73.0777C138.301 74.2541 139.242 75.1953 140.419 75.1953C141.566 75.2247 142.536 74.2541 142.536 73.0777Z" fill="url(#paint37_linear_1660_22795)"/>
</g>
<g filter="url(#filter1_ddddd_1660_22795)">
<path d="M24.8662 88.3638V117.365C24.8662 120.955 26.7801 124.272 29.8894 126.066L55.0056 140.568C58.115 142.364 61.9427 142.364 65.052 140.568L90.1682 126.066C93.2776 124.27 95.1914 120.955 95.1914 117.365V88.3638C95.1914 84.7747 93.2776 81.4569 90.1682 79.6636L65.052 65.164C61.9427 63.3682 58.115 63.3682 55.0056 65.164L29.8894 79.6636C26.7801 81.4594 24.8662 84.7747 24.8662 88.3638Z" fill="url(#paint38_linear_1660_22795)"/>
</g>
<g filter="url(#filter2_ddddd_1660_22795)">
<path d="M42.4475 97.8442V107.891C42.4475 108.556 42.7113 109.197 43.1834 109.666C43.6556 110.139 44.2936 110.402 44.9592 110.402C45.6247 110.402 46.2652 110.139 46.7349 109.666C47.2071 109.194 47.4708 108.556 47.4708 107.891C47.4708 107.225 47.7345 106.585 48.2067 106.115C48.6789 105.643 49.3168 105.379 49.9824 105.379C50.648 105.379 51.2884 105.643 51.7581 106.115C52.2303 106.587 52.494 107.225 52.494 107.891C52.494 109.89 51.7003 111.806 50.2863 113.218C48.8723 114.632 46.9559 115.425 44.9592 115.425C42.9624 115.425 41.0436 114.632 39.632 113.218C38.218 111.804 37.4243 109.887 37.4243 107.891V97.8442C37.4243 95.8449 38.218 93.9286 39.632 92.517C41.0461 91.103 42.9624 90.3093 44.9592 90.3093C46.9559 90.3093 48.8748 91.103 50.2863 92.517C51.6978 93.9311 52.494 95.8474 52.494 97.8442C52.494 98.5097 52.2303 99.1502 51.7581 99.6199C51.2859 100.092 50.648 100.356 49.9824 100.356C49.3168 100.356 48.6763 100.092 48.2067 99.6199C47.7345 99.1477 47.4708 98.5097 47.4708 97.8442C47.4708 97.1786 47.2071 96.5381 46.7349 96.0685C46.2627 95.5963 45.6247 95.3326 44.9592 95.3326C44.2936 95.3326 43.6531 95.5963 43.1834 96.0685C42.7113 96.5406 42.4475 97.1786 42.4475 97.8442ZM82.6334 107.891C82.6334 108.556 82.3697 109.197 81.8975 109.666C81.4253 110.139 80.7873 110.402 80.1218 110.402H77.6101V112.914C77.6101 113.579 77.3464 114.22 76.8742 114.69C76.4021 115.159 75.7641 115.425 75.0985 115.425C74.433 115.425 73.7925 115.162 73.3228 114.69C72.8531 114.217 72.5869 113.579 72.5869 112.914V110.402H67.5637V112.914C67.5637 113.579 67.3 114.22 66.8278 114.69C66.3556 115.159 65.7177 115.425 65.0521 115.425C64.3865 115.425 63.746 115.162 63.2764 114.69C62.8042 114.217 62.5405 113.579 62.5405 112.914V110.402H60.0288C59.3633 110.402 58.7228 110.139 58.2531 109.666C57.7809 109.194 57.5172 108.556 57.5172 107.891C57.5172 107.225 57.7809 106.585 58.2531 106.115C58.7253 105.643 59.3633 105.379 60.0288 105.379H62.5405V100.356H60.0288C59.3633 100.356 58.7228 100.092 58.2531 99.6199C57.7809 99.1477 57.5172 98.5097 57.5172 97.8442C57.5172 97.1786 57.7809 96.5381 58.2531 96.0685C58.7253 95.5963 59.3633 95.3326 60.0288 95.3326H62.5405V92.8209C62.5405 92.1554 62.8042 91.5149 63.2764 91.0452C63.7485 90.573 64.3865 90.3093 65.0521 90.3093C65.7177 90.3093 66.3581 90.573 66.8278 91.0452C67.3 91.5174 67.5637 92.1554 67.5637 92.8209V95.3326H72.5869V92.8209C72.5869 92.1554 72.8506 91.5149 73.3228 91.0452C73.795 90.573 74.433 90.3093 75.0985 90.3093C75.7641 90.3093 76.4046 90.573 76.8742 91.0452C77.3439 91.5174 77.6101 92.1554 77.6101 92.8209V95.3326H80.1218C80.7873 95.3326 81.4278 95.5963 81.8975 96.0685C82.3671 96.5406 82.6334 97.1786 82.6334 97.8442C82.6334 98.5097 82.3697 99.1502 81.8975 99.6199C81.4253 100.092 80.7873 100.356 80.1218 100.356H77.6101V105.379H80.1218C80.7873 105.379 81.4278 105.643 81.8975 106.115C82.3671 106.587 82.6334 107.225 82.6334 107.891ZM72.5869 100.356H67.5637V105.379H72.5869V100.356Z" fill="white"/>
</g>
</g>
<defs>
<filter id="filter0_ddddd_1660_22795" x="85.1843" y="69.9601" width="62.3518" height="69.822" filterUnits="userSpaceOnUse" color-interpolation-filters="sRGB">
<feFlood flood-opacity="0" result="BackgroundImageFix"/>
<feColorMatrix in="SourceAlpha" type="matrix" values="0 0 0 0 0 0 0 0 0 0 0 0 0 0 0 0 0 0 127 0" result="hardAlpha"/>
<feOffset/>
<feColorMatrix type="matrix" values="0 0 0 0 0 0 0 0 0 0 0 0 0 0 0 0 0 0 0.1 0"/>
<feBlend mode="normal" in2="BackgroundImageFix" result="effect1_dropShadow_1660_22795"/>
<feColorMatrix in="SourceAlpha" type="matrix" values="0 0 0 0 0 0 0 0 0 0 0 0 0 0 0 0 0 0 127 0" result="hardAlpha"/>
<feOffset dy="1"/>
<feGaussianBlur stdDeviation="1"/>
<feColorMatrix type="matrix" values="0 0 0 0 0 0 0 0 0 0 0 0 0 0 0 0 0 0 0.1 0"/>
<feBlend mode="normal" in2="effect1_dropShadow_1660_22795" result="effect2_dropShadow_1660_22795"/>
<feColorMatrix in="SourceAlpha" type="matrix" values="0 0 0 0 0 0 0 0 0 0 0 0 0 0 0 0 0 0 127 0" result="hardAlpha"/>
<feOffset dy="3"/>
<feGaussianBlur stdDeviation="1.5"/>
<feColorMatrix type="matrix" values="0 0 0 0 0 0 0 0 0 0 0 0 0 0 0 0 0 0 0.09 0"/>
<feBlend mode="normal" in2="effect2_dropShadow_1660_22795" result="effect3_dropShadow_1660_22795"/>
<feColorMatrix in="SourceAlpha" type="matrix" values="0 0 0 0 0 0 0 0 0 0 0 0 0 0 0 0 0 0 127 0" result="hardAlpha"/>
<feOffset dy="6"/>
<feGaussianBlur stdDeviation="2"/>
<feColorMatrix type="matrix" values="0 0 0 0 0 0 0 0 0 0 0 0 0 0 0 0 0 0 0.05 0"/>
<feBlend mode="normal" in2="effect3_dropShadow_1660_22795" result="effect4_dropShadow_1660_22795"/>
<feColorMatrix in="SourceAlpha" type="matrix" values="0 0 0 0 0 0 0 0 0 0 0 0 0 0 0 0 0 0 127 0" result="hardAlpha"/>
<feOffset dy="11"/>
<feGaussianBlur stdDeviation="2.5"/>
<feColorMatrix type="matrix" values="0 0 0 0 0 0 0 0 0 0 0 0 0 0 0 0 0 0 0.01 0"/>
<feBlend mode="normal" in2="effect4_dropShadow_1660_22795" result="effect5_dropShadow_1660_22795"/>
<feBlend mode="normal" in="SourceGraphic" in2="effect5_dropShadow_1660_22795" result="shape"/>
</filter>
<filter id="filter1_ddddd_1660_22795" x="18.8662" y="61.8171" width="95.3252" height="121.097" filterUnits="userSpaceOnUse" color-interpolation-filters="sRGB">
<feFlood flood-opacity="0" result="BackgroundImageFix"/>
<feColorMatrix in="SourceAlpha" type="matrix" values="0 0 0 0 0 0 0 0 0 0 0 0 0 0 0 0 0 0 127 0" result="hardAlpha"/>
<feOffset/>
<feColorMatrix type="matrix" values="0 0 0 0 0 0 0 0 0 0 0 0 0 0 0 0 0 0 0.1 0"/>
<feBlend mode="normal" in2="BackgroundImageFix" result="effect1_dropShadow_1660_22795"/>
<feColorMatrix in="SourceAlpha" type="matrix" values="0 0 0 0 0 0 0 0 0 0 0 0 0 0 0 0 0 0 127 0" result="hardAlpha"/>
<feOffset dy="2"/>
<feGaussianBlur stdDeviation="2"/>
<feColorMatrix type="matrix" values="0 0 0 0 0 0 0 0 0 0 0 0 0 0 0 0 0 0 0.1 0"/>
<feBlend mode="normal" in2="effect1_dropShadow_1660_22795" result="effect2_dropShadow_1660_22795"/>
<feColorMatrix in="SourceAlpha" type="matrix" values="0 0 0 0 0 0 0 0 0 0 0 0 0 0 0 0 0 0 127 0" result="hardAlpha"/>
<feOffset dx="2" dy="7"/>
<feGaussianBlur stdDeviation="3.5"/>
<feColorMatrix type="matrix" values="0 0 0 0 0 0 0 0 0 0 0 0 0 0 0 0 0 0 0.09 0"/>
<feBlend mode="normal" in2="effect2_dropShadow_1660_22795" result="effect3_dropShadow_1660_22795"/>
<feColorMatrix in="SourceAlpha" type="matrix" values="0 0 0 0 0 0 0 0 0 0 0 0 0 0 0 0 0 0 127 0" result="hardAlpha"/>
<feOffset dx="4" dy="16"/>
<feGaussianBlur stdDeviation="5"/>
<feColorMatrix type="matrix" values="0 0 0 0 0 0 0 0 0 0 0 0 0 0 0 0 0 0 0.05 0"/>
<feBlend mode="normal" in2="effect3_dropShadow_1660_22795" result="effect4_dropShadow_1660_22795"/>
<feColorMatrix in="SourceAlpha" type="matrix" values="0 0 0 0 0 0 0 0 0 0 0 0 0 0 0 0 0 0 127 0" result="hardAlpha"/>
<feOffset dx="7" dy="29"/>
<feGaussianBlur stdDeviation="6"/>
<feColorMatrix type="matrix" values="0 0 0 0 0 0 0 0 0 0 0 0 0 0 0 0 0 0 0.01 0"/>
<feBlend mode="normal" in2="effect4_dropShadow_1660_22795" result="effect5_dropShadow_1660_22795"/>
<feBlend mode="normal" in="SourceGraphic" in2="effect5_dropShadow_1660_22795" result="shape"/>
</filter>
<filter id="filter2_ddddd_1660_22795" x="31.4243" y="89.3093" width="57.209" height="47.1161" filterUnits="userSpaceOnUse" color-interpolation-filters="sRGB">
<feFlood flood-opacity="0" result="BackgroundImageFix"/>
<feColorMatrix in="SourceAlpha" type="matrix" values="0 0 0 0 0 0 0 0 0 0 0 0 0 0 0 0 0 0 127 0" result="hardAlpha"/>
<feOffset/>
<feColorMatrix type="matrix" values="0 0 0 0 0 0 0 0 0 0 0 0 0 0 0 0 0 0 0.1 0"/>
<feBlend mode="normal" in2="BackgroundImageFix" result="effect1_dropShadow_1660_22795"/>
<feColorMatrix in="SourceAlpha" type="matrix" values="0 0 0 0 0 0 0 0 0 0 0 0 0 0 0 0 0 0 127 0" result="hardAlpha"/>
<feOffset dy="1"/>
<feGaussianBlur stdDeviation="1"/>
<feColorMatrix type="matrix" values="0 0 0 0 0 0 0 0 0 0 0 0 0 0 0 0 0 0 0.1 0"/>
<feBlend mode="normal" in2="effect1_dropShadow_1660_22795" result="effect2_dropShadow_1660_22795"/>
<feColorMatrix in="SourceAlpha" type="matrix" values="0 0 0 0 0 0 0 0 0 0 0 0 0 0 0 0 0 0 127 0" result="hardAlpha"/>
<feOffset dy="4"/>
<feGaussianBlur stdDeviation="2"/>
<feColorMatrix type="matrix" values="0 0 0 0 0 0 0 0 0 0 0 0 0 0 0 0 0 0 0.09 0"/>
<feBlend mode="normal" in2="effect2_dropShadow_1660_22795" result="effect3_dropShadow_1660_22795"/>
<feColorMatrix in="SourceAlpha" type="matrix" values="0 0 0 0 0 0 0 0 0 0 0 0 0 0 0 0 0 0 127 0" result="hardAlpha"/>
<feOffset dy="9"/>
<feGaussianBlur stdDeviation="2.5"/>
<feColorMatrix type="matrix" values="0 0 0 0 0 0 0 0 0 0 0 0 0 0 0 0 0 0 0.05 0"/>
<feBlend mode="normal" in2="effect3_dropShadow_1660_22795" result="effect4_dropShadow_1660_22795"/>
<feColorMatrix in="SourceAlpha" type="matrix" values="0 0 0 0 0 0 0 0 0 0 0 0 0 0 0 0 0 0 127 0" result="hardAlpha"/>
<feOffset dy="15"/>
<feGaussianBlur stdDeviation="3"/>
<feColorMatrix type="matrix" values="0 0 0 0 0 0 0 0 0 0 0 0 0 0 0 0 0 0 0.01 0"/>
<feBlend mode="normal" in2="effect4_dropShadow_1660_22795" result="effect5_dropShadow_1660_22795"/>
<feBlend mode="normal" in="SourceGraphic" in2="effect5_dropShadow_1660_22795" result="shape"/>
</filter>
<linearGradient id="paint0_linear_1660_22795" x1="44.5147" y1="23.5396" x2="197.717" y2="205.449" gradientUnits="userSpaceOnUse">
<stop offset="0.00520833" stop-color="white"/>
<stop offset="1" stop-color="#D3C7FF"/>
</linearGradient>
<linearGradient id="paint1_linear_1660_22795" x1="30.5918" y1="46.025" x2="109.644" y2="174.603" gradientUnits="userSpaceOnUse">
<stop stop-color="#927BE5"/>
<stop offset="1" stop-color="#512BD4"/>
</linearGradient>
<linearGradient id="paint2_linear_1660_22795" x1="90.9106" y1="69.363" x2="132.934" y2="136.571" gradientUnits="userSpaceOnUse">
<stop stop-color="#CD97FA"/>
<stop offset="1" stop-color="#007ED8"/>
</linearGradient>
<linearGradient id="paint3_linear_1660_22795" x1="90.9106" y1="69.363" x2="132.934" y2="136.571" gradientUnits="userSpaceOnUse">
<stop stop-color="#CD97FA"/>
<stop offset="1" stop-color="#007ED8"/>
</linearGradient>
<linearGradient id="paint4_linear_1660_22795" x1="90.9106" y1="69.363" x2="132.934" y2="136.571" gradientUnits="userSpaceOnUse">
<stop stop-color="#CD97FA"/>
<stop offset="1" stop-color="#007ED8"/>
</linearGradient>
<linearGradient id="paint5_linear_1660_22795" x1="90.9106" y1="69.363" x2="132.934" y2="136.571" gradientUnits="userSpaceOnUse">
<stop stop-color="#CD97FA"/>
<stop offset="1" stop-color="#007ED8"/>
</linearGradient>
<linearGradient id="paint6_linear_1660_22795" x1="90.9106" y1="69.363" x2="132.934" y2="136.571" gradientUnits="userSpaceOnUse">
<stop stop-color="#CD97FA"/>
<stop offset="1" stop-color="#007ED8"/>
</linearGradient>
<linearGradient id="paint7_linear_1660_22795" x1="90.9106" y1="69.363" x2="132.934" y2="136.571" gradientUnits="userSpaceOnUse">
<stop stop-color="#CD97FA"/>
<stop offset="1" stop-color="#007ED8"/>
</linearGradient>
<linearGradient id="paint8_linear_1660_22795" x1="90.9106" y1="69.363" x2="132.934" y2="136.571" gradientUnits="userSpaceOnUse">
<stop stop-color="#CD97FA"/>
<stop offset="1" stop-color="#007ED8"/>
</linearGradient>
<linearGradient id="paint9_linear_1660_22795" x1="90.9106" y1="69.363" x2="132.934" y2="136.571" gradientUnits="userSpaceOnUse">
<stop stop-color="#CD97FA"/>
<stop offset="1" stop-color="#007ED8"/>
</linearGradient>
<linearGradient id="paint10_linear_1660_22795" x1="90.9106" y1="69.363" x2="132.934" y2="136.571" gradientUnits="userSpaceOnUse">
<stop stop-color="#CD97FA"/>
<stop offset="1" stop-color="#007ED8"/>
</linearGradient>
<linearGradient id="paint11_linear_1660_22795" x1="90.9106" y1="69.363" x2="132.934" y2="136.571" gradientUnits="userSpaceOnUse">
<stop stop-color="#CD97FA"/>
<stop offset="1" stop-color="#007ED8"/>
</linearGradient>
<linearGradient id="paint12_linear_1660_22795" x1="90.9106" y1="69.363" x2="132.934" y2="136.571" gradientUnits="userSpaceOnUse">
<stop stop-color="#CD97FA"/>
<stop offset="1" stop-color="#007ED8"/>
</linearGradient>
<linearGradient id="paint13_linear_1660_22795" x1="90.9106" y1="69.363" x2="132.934" y2="136.571" gradientUnits="userSpaceOnUse">
<stop stop-color="#CD97FA"/>
<stop offset="1" stop-color="#007ED8"/>
</linearGradient>
<linearGradient id="paint14_linear_1660_22795" x1="90.9106" y1="69.363" x2="132.934" y2="136.571" gradientUnits="userSpaceOnUse">
<stop stop-color="#CD97FA"/>
<stop offset="1" stop-color="#007ED8"/>
</linearGradient>
<linearGradient id="paint15_linear_1660_22795" x1="90.9106" y1="69.363" x2="132.934" y2="136.571" gradientUnits="userSpaceOnUse">
<stop stop-color="#CD97FA"/>
<stop offset="1" stop-color="#007ED8"/>
</linearGradient>
<linearGradient id="paint16_linear_1660_22795" x1="90.9106" y1="69.363" x2="132.934" y2="136.571" gradientUnits="userSpaceOnUse">
<stop stop-color="#CD97FA"/>
<stop offset="1" stop-color="#007ED8"/>
</linearGradient>
<linearGradient id="paint17_linear_1660_22795" x1="90.9106" y1="69.363" x2="132.934" y2="136.571" gradientUnits="userSpaceOnUse">
<stop stop-color="#CD97FA"/>
<stop offset="1" stop-color="#007ED8"/>
</linearGradient>
<linearGradient id="paint18_linear_1660_22795" x1="90.9106" y1="69.363" x2="132.934" y2="136.571" gradientUnits="userSpaceOnUse">
<stop stop-color="#CD97FA"/>
<stop offset="1" stop-color="#007ED8"/>
</linearGradient>
<linearGradient id="paint19_linear_1660_22795" x1="90.9106" y1="69.363" x2="132.934" y2="136.571" gradientUnits="userSpaceOnUse">
<stop stop-color="#CD97FA"/>
<stop offset="1" stop-color="#007ED8"/>
</linearGradient>
<linearGradient id="paint20_linear_1660_22795" x1="90.9106" y1="69.363" x2="132.934" y2="136.571" gradientUnits="userSpaceOnUse">
<stop stop-color="#CD97FA"/>
<stop offset="1" stop-color="#007ED8"/>
</linearGradient>
<linearGradient id="paint21_linear_1660_22795" x1="90.9106" y1="69.363" x2="132.934" y2="136.571" gradientUnits="userSpaceOnUse">
<stop stop-color="#CD97FA"/>
<stop offset="1" stop-color="#007ED8"/>
</linearGradient>
<linearGradient id="paint22_linear_1660_22795" x1="90.9106" y1="69.363" x2="132.934" y2="136.571" gradientUnits="userSpaceOnUse">
<stop stop-color="#CD97FA"/>
<stop offset="1" stop-color="#007ED8"/>
</linearGradient>
<linearGradient id="paint23_linear_1660_22795" x1="90.9106" y1="69.363" x2="132.934" y2="136.571" gradientUnits="userSpaceOnUse">
<stop stop-color="#CD97FA"/>
<stop offset="1" stop-color="#007ED8"/>
</linearGradient>
<linearGradient id="paint24_linear_1660_22795" x1="90.9106" y1="69.363" x2="132.934" y2="136.571" gradientUnits="userSpaceOnUse">
<stop stop-color="#CD97FA"/>
<stop offset="1" stop-color="#007ED8"/>
</linearGradient>
<linearGradient id="paint25_linear_1660_22795" x1="90.9106" y1="69.363" x2="132.934" y2="136.571" gradientUnits="userSpaceOnUse">
<stop stop-color="#CD97FA"/>
<stop offset="1" stop-color="#007ED8"/>
</linearGradient>
<linearGradient id="paint26_linear_1660_22795" x1="90.9106" y1="69.363" x2="132.934" y2="136.571" gradientUnits="userSpaceOnUse">
<stop stop-color="#CD97FA"/>
<stop offset="1" stop-color="#007ED8"/>
</linearGradient>
<linearGradient id="paint27_linear_1660_22795" x1="90.9106" y1="69.363" x2="132.934" y2="136.571" gradientUnits="userSpaceOnUse">
<stop stop-color="#CD97FA"/>
<stop offset="1" stop-color="#007ED8"/>
</linearGradient>
<linearGradient id="paint28_linear_1660_22795" x1="90.9106" y1="69.363" x2="132.934" y2="136.571" gradientUnits="userSpaceOnUse">
<stop stop-color="#CD97FA"/>
<stop offset="1" stop-color="#007ED8"/>
</linearGradient>
<linearGradient id="paint29_linear_1660_22795" x1="90.9106" y1="69.363" x2="132.934" y2="136.571" gradientUnits="userSpaceOnUse">
<stop stop-color="#CD97FA"/>
<stop offset="1" stop-color="#007ED8"/>
</linearGradient>
<linearGradient id="paint30_linear_1660_22795" x1="90.9106" y1="69.363" x2="132.934" y2="136.571" gradientUnits="userSpaceOnUse">
<stop stop-color="#CD97FA"/>
<stop offset="1" stop-color="#007ED8"/>
</linearGradient>
<linearGradient id="paint31_linear_1660_22795" x1="90.9106" y1="69.363" x2="132.934" y2="136.571" gradientUnits="userSpaceOnUse">
<stop stop-color="#CD97FA"/>
<stop offset="1" stop-color="#007ED8"/>
</linearGradient>
<linearGradient id="paint32_linear_1660_22795" x1="90.9106" y1="69.363" x2="132.934" y2="136.571" gradientUnits="userSpaceOnUse">
<stop stop-color="#CD97FA"/>
<stop offset="1" stop-color="#007ED8"/>
</linearGradient>
<linearGradient id="paint33_linear_1660_22795" x1="90.9106" y1="69.363" x2="132.934" y2="136.571" gradientUnits="userSpaceOnUse">
<stop stop-color="#CD97FA"/>
<stop offset="1" stop-color="#007ED8"/>
</linearGradient>
<linearGradient id="paint34_linear_1660_22795" x1="90.9106" y1="69.363" x2="132.934" y2="136.571" gradientUnits="userSpaceOnUse">
<stop stop-color="#CD97FA"/>
<stop offset="1" stop-color="#007ED8"/>
</linearGradient>
<linearGradient id="paint35_linear_1660_22795" x1="90.9106" y1="69.363" x2="132.934" y2="136.571" gradientUnits="userSpaceOnUse">
<stop stop-color="#CD97FA"/>
<stop offset="1" stop-color="#007ED8"/>
</linearGradient>
<linearGradient id="paint36_linear_1660_22795" x1="90.9106" y1="69.363" x2="132.934" y2="136.571" gradientUnits="userSpaceOnUse">
<stop stop-color="#CD97FA"/>
<stop offset="1" stop-color="#007ED8"/>
</linearGradient>
<linearGradient id="paint37_linear_1660_22795" x1="90.9106" y1="69.363" x2="132.934" y2="136.571" gradientUnits="userSpaceOnUse">
<stop stop-color="#CD97FA"/>
<stop offset="1" stop-color="#007ED8"/>
</linearGradient>
<linearGradient id="paint38_linear_1660_22795" x1="31.7732" y1="80.8895" x2="65.6799" y2="139.912" gradientUnits="userSpaceOnUse">
<stop stop-color="#927BE5"/>
<stop offset="1" stop-color="#512BD4"/>
</linearGradient>
<clipPath id="clip0_1660_22795">
<rect width="180" height="190" fill="white"/>
</clipPath>
</defs>
</svg>
