<?xml version="1.0" encoding="UTF-8"?>
<svg width="100px" height="100px" viewBox="0 0 100 100" version="1.1" xmlns="http://www.w3.org/2000/svg" xmlns:xlink="http://www.w3.org/1999/xlink">
    <!-- Generator: Sketch 55.2 (78181) - https://sketchapp.com -->
    <title>NA/build-your-first-c#-application</title>
    <desc>Created with Sketch.</desc>
    <defs>
        <rect id="path-1" x="0" y="0" width="96" height="96" rx="48"></rect>
        <filter x="-8.3%" y="-5.9%" width="116.7%" height="111.8%" filterUnits="objectBoundingBox" id="filter-3">
            <feOffset dx="0" dy="2" in="SourceAlpha" result="shadowOffsetOuter1"></feOffset>
            <feColorMatrix values="0 0 0 0 0   0 0 0 0 0   0 0 0 0 0  0 0 0 0.0963541667 0" type="matrix" in="shadowOffsetOuter1" result="shadowMatrixOuter1"></feColorMatrix>
            <feMerge>
                <feMergeNode in="shadowMatrixOuter1"></feMergeNode>
                <feMergeNode in="SourceGraphic"></feMergeNode>
            </feMerge>
        </filter>
        <path d="M23.3688469,34.026958 C22.4513328,34.471105 21.2533227,34.6931752 19.7747808,34.6931752 C17.8462479,34.6931752 16.3297425,34.1263119 15.2252192,32.9925683 C14.1206958,31.8588247 13.5684423,30.3481633 13.5684423,28.4605386 C13.5684423,26.4501892 14.1893622,24.8197267 15.4312205,23.5691023 C16.6730788,22.318478 18.2845484,21.6931752 20.2656777,21.6931752 C21.4929259,21.6931752 22.5273053,21.8480399 23.3688469,22.157774 L23.3688469,24.8840046 C22.5273053,24.3814172 21.5688973,24.1301273 20.4935941,24.1301273 C19.3130982,24.1301273 18.3605341,24.5012182 17.6358732,25.2434112 C16.9112124,25.9856041 16.5488874,26.9907638 16.5488874,28.2589203 C16.5488874,29.4744804 16.8907586,30.4431154 17.5745111,31.1648542 C18.2582637,31.886593 19.1786861,32.247457 20.3358058,32.247457 C21.4403292,32.247457 22.4513328,31.9786353 23.3688469,31.4409837 L23.3688469,34.026958 Z M34.4315577,25.1031549 L34.0896831,26.6810376 L32.4679703,26.6810376 L31.9858395,28.8550093 L33.8004046,28.8550093 L33.4059339,30.432892 L31.661497,30.432892 L30.9777478,33.4659331 L29.2245448,33.4659331 L29.8644639,30.432892 L27.8570465,30.432892 L27.2083614,33.4659331 L25.4551585,33.4659331 L26.0775455,30.432892 L24.4470668,30.432892 L24.7714093,28.8550093 L26.4194201,28.8550093 L26.8840189,26.6810376 L25.1132839,26.6810376 L25.4113284,25.1031549 L27.2083614,25.1031549 L27.8570465,21.9824537 L29.6540796,21.9824537 L29.0053945,25.1031549 L31.0128119,25.1031549 L31.679029,21.9824537 L33.45853,21.9824537 L32.8098449,25.1031549 L34.4315577,25.1031549 Z M30.6972353,26.6810376 L28.6635199,26.6810376 L28.1813891,28.8550093 L30.2063385,28.8550093 L30.6972353,26.6810376 Z" id="path-4"></path>
        <filter x="-0.6%" y="-1.0%" width="101.2%" height="103.8%" filterUnits="objectBoundingBox" id="filter-5">
            <feOffset dx="0" dy="0.25" in="SourceAlpha" result="shadowOffsetOuter1"></feOffset>
            <feColorMatrix values="0 0 0 0 1   0 0 0 0 1   0 0 0 0 1  0 0 0 0.249094203 0" type="matrix" in="shadowOffsetOuter1"></feColorMatrix>
        </filter>
        <path d="M65.5775479,43.0753687 C65.910806,42.7416834 65.910806,42.2007798 65.5775479,41.8666672 C65.5771206,41.8658127 65.5758388,41.8653854 65.5754116,41.8649582 L63.2955843,39.5855581 C62.9618989,39.2514455 62.4209953,39.2514455 62.08731,39.5855581 C61.7536246,39.9188162 61.7536246,40.4597198 62.08731,40.7938324 L63.7642819,42.4712316 L62.0868827,44.1482035 L62.08731,44.1486308 C61.7536246,44.4818889 61.7536246,45.0232197 62.08731,45.3569051 C62.4205681,45.6905904 62.9618989,45.6905904 63.2955843,45.3569051 C63.2964388,45.3560506 63.296866,45.355196 63.2977205,45.355196 L65.5728481,43.0787868 C65.5745571,43.077505 65.5762661,43.0762232 65.5775479,43.0753687" id="path-6"></path>
        <filter x="-3.1%" y="-2.0%" width="106.3%" height="108.0%" filterUnits="objectBoundingBox" id="filter-7">
            <feOffset dx="0" dy="0.25" in="SourceAlpha" result="shadowOffsetOuter1"></feOffset>
            <feColorMatrix values="0 0 0 0 1   0 0 0 0 1   0 0 0 0 1  0 0 0 0.249094203 0" type="matrix" in="shadowOffsetOuter1"></feColorMatrix>
        </filter>
        <path d="M33.91269,39.5851309 C33.5794319,39.2514455 33.0381011,39.2514455 32.7044157,39.5851309 C32.7035612,39.5859854 32.703134,39.5864126 32.7022795,39.5872671 L30.4271519,41.8632492 C30.4254429,41.8645309 30.4237339,41.8653854 30.4224521,41.8666672 C30.089194,42.2003526 30.089194,42.7412561 30.4224521,43.0753687 C30.4228794,43.075796 30.4241612,43.0762232 30.4245884,43.0766505 L32.7022795,45.3539143 C32.703134,45.355196 32.7035612,45.3556233 32.7044157,45.3564778 C33.0381011,45.6905904 33.5794319,45.6905904 33.91269,45.3564778 C34.2463754,45.0232197 34.2463754,44.4818889 33.91269,44.1486308 L33.9131173,44.1482035 L32.2357181,42.4712316 L33.9131173,40.7938324 L33.91269,40.7934052 C34.2463754,40.4597198 34.2463754,39.9188162 33.91269,39.5851309" id="path-8"></path>
        <filter x="-3.1%" y="-2.0%" width="106.3%" height="108.0%" filterUnits="objectBoundingBox" id="filter-9">
            <feOffset dx="0" dy="0.25" in="SourceAlpha" result="shadowOffsetOuter1"></feOffset>
            <feColorMatrix values="0 0 0 0 1   0 0 0 0 1   0 0 0 0 1  0 0 0 0.249094203 0" type="matrix" in="shadowOffsetOuter1"></feColorMatrix>
        </filter>
    </defs>
    <g id="Badges" stroke="none" stroke-width="1" fill="none" fill-rule="evenodd">
        <g id="N/A-28" transform="translate(-50.000000, -1260.000000)">
            <g id="NA/build-your-first-c#-application" transform="translate(50.000000, 1260.000000)">
                <g id="Mask" transform="translate(2.000000, 2.000000)">
                    <mask id="mask-2" fill="white">
                        <use xlink:href="#path-1"></use>
                    </mask>
                    <use id="BG" fill="#55A2FF" xlink:href="#path-1"></use>
                    <g id="Book-1" filter="url(#filter-3)" mask="url(#mask-2)">
                        <g transform="translate(24.000000, 14.000000)">
                            <g id="Book" stroke-width="1" fill-rule="evenodd" transform="translate(0.167481, 0.387536)">
                                <path d="M0.832518557,55.6124645 L0.832518557,61.6124645 C0.839673316,62.8067453 1.6709668,63.6146507 2.83251856,63.6124645 L46.8325186,63.6124645 L46.8325186,55.6124645 L0.832518557,55.6124645 Z" id="Shape" fill="#BE9555" fill-rule="nonzero"></path>
                                <path d="M2.83251856,56.6124645 L2.83251856,60.6124645 C2.86672747,61.717521 3.75260508,62.6147293 4.78807411,62.6124645 L46.8325186,62.6124645 L46.8325186,56.6124645 L2.83251856,56.6124645 Z" id="Shape" fill="#FFFFFF" fill-rule="nonzero"></path>
                                <polygon id="Shape" fill="#4F4D52" fill-rule="nonzero" opacity="0.2" points="2.83251856 56.6124645 2.83251856 57.6124645 46.8325186 57.6124645 46.8325186 56.6124645"></polygon>
                                <polygon id="Shape" fill="#4F4D52" fill-rule="nonzero" opacity="0.2" points="20.8325186 56.6124645 26.8325186 62.6124645 20.8325186 62.6124645"></polygon>
                                <polygon id="Shape" fill="#EF6F59" fill-rule="nonzero" points="21.8325186 66.6124645 17.8325186 64.6124645 14.8325186 66.6124645 14.8325186 56.6124645 21.8325186 56.6124645"></polygon>
                                <polygon id="Shape" fill="#F7CB64" fill-rule="nonzero" points="46.8325186 55.6124645 0.832518557 55.6124645 0.832518557 0.612464493 46.8325186 0.612464493"></polygon>
                                <path d="M23.8325186,51.6124645 C23.8325186,52.7164645 22.9384486,53.6124645 21.8325186,53.6124645 L0.832518557,53.6124645 L0.832518557,55.6124645 L46.8325186,55.6124645 L46.8325186,3.61246449 L25.8325186,3.61246449 C24.7265885,3.61246449 23.8325186,4.50746449 23.8325186,5.61246449 L23.8325186,51.6124645 Z" id="Fill-361" fill-opacity="0.126868207" fill="#000000"></path>
                            </g>
                            <g id="C#">
                                <use fill="black" fill-opacity="1" filter="url(#filter-5)" xlink:href="#path-4"></use>
                                <use fill="#4C3B12" fill-rule="evenodd" xlink:href="#path-4"></use>
                            </g>
                        </g>
                    </g>
                    <g id="Fill-1462" mask="url(#mask-2)">
                        <use fill="black" fill-opacity="1" filter="url(#filter-7)" xlink:href="#path-6"></use>
                        <use fill="#4C3B12" fill-rule="evenodd" xlink:href="#path-6"></use>
                    </g>
                    <g id="Fill-1463" mask="url(#mask-2)">
                        <use fill="black" fill-opacity="1" filter="url(#filter-9)" xlink:href="#path-8"></use>
                        <use fill="#4C3B12" fill-rule="evenodd" xlink:href="#path-8"></use>
                    </g>
                </g>
                <g id="Azure-Border" stroke="#0078D4" stroke-width="4">
                    <rect x="2" y="2" width="96" height="96" rx="48"></rect>
                </g>
            </g>
        </g>
    </g>
</svg>