<svg width="103" height="103" viewBox="0 0 103 103" fill="none" xmlns="http://www.w3.org/2000/svg">
<path d="M51.2706 98.7723C25.4206 98.7723 4.46063 77.8223 4.46063 51.9623C4.46063 26.1023 25.4206 5.15234 51.2706 5.15234C77.1206 5.15234 98.0806 26.1123 98.0806 51.9623C98.0806 77.8123 77.1206 98.7723 51.2706 98.7723Z" fill="url(#paint0_linear_210_52)"/>
<path fill-rule="evenodd" clip-rule="evenodd" d="M97.1706 51.9623C97.1706 77.3123 76.6206 97.8623 51.2706 97.8623C25.9206 97.8623 5.37062 77.3123 5.37062 51.9623C5.37062 26.6123 25.9206 6.06227 51.2706 6.06227C76.6206 6.06227 97.1706 26.6123 97.1706 51.9623ZM51.2706 2.32227C78.6906 2.32227 100.911 24.5423 100.911 51.9623C100.911 79.3823 78.6806 101.602 51.2706 101.602C23.8506 101.602 1.63062 79.3723 1.63062 51.9623C1.63062 24.5423 23.8506 2.32227 51.2706 2.32227Z" fill="#F2F1F0"/>
<path fill-rule="evenodd" clip-rule="evenodd" d="M94.3606 51.9628C94.3606 75.7628 75.0706 95.0528 51.2706 95.0528C27.4706 95.0528 8.18061 75.7628 8.18061 51.9628C8.18061 28.1628 27.4706 8.87281 51.2706 8.87281C75.0706 8.87281 94.3606 28.1628 94.3606 51.9628ZM51.2706 5.13281C77.1306 5.13281 98.1006 26.1028 98.1006 51.9628C98.1006 77.8228 77.1306 98.7928 51.2706 98.7928C25.4106 98.7928 4.44061 77.8228 4.44061 51.9628C4.44061 26.1028 25.4006 5.13281 51.2706 5.13281Z" fill="url(#paint1_linear_210_52)"/>
<path opacity="0.15" d="M21.0504 76.5834H78.0204C79.0204 76.5834 79.8204 75.7734 79.8204 74.7834V29.9434H19.2404V74.7834C19.2404 75.7834 20.0504 76.5834 21.0504 76.5834Z" fill="#1F1D20"/>
<path d="M20.4004 74.9017H78.6704C79.3104 74.9017 79.8304 74.3817 79.8304 73.7417V28.2617H19.2404V73.7517C19.2404 74.3817 19.7604 74.9017 20.4004 74.9017Z" fill="white"/>
<path d="M19.2404 33.2927H79.8204V27.8627C79.8204 27.3727 79.4304 26.9727 78.9304 26.9727H20.1304C19.6404 26.9727 19.2404 27.3627 19.2404 27.8627V33.2927Z" fill="#092E4C"/>
<path d="M23.9004 31.8024C24.7504 31.8024 25.4404 31.1224 25.4404 30.2624C25.4404 29.4024 24.7404 28.7324 23.9004 28.7324C23.0504 28.7324 22.3604 29.4124 22.3604 30.2724C22.3604 31.1324 23.0404 31.8024 23.9004 31.8024Z" fill="#32B0E7"/>
<path d="M43.4108 45.1322C43.4208 44.7522 43.5808 44.3922 43.8608 44.1422C44.1308 43.8822 44.5008 43.7422 44.8808 43.7622C45.6608 43.7922 46.2809 44.4522 46.2609 45.2422C46.2409 45.6222 46.0909 45.9722 45.8109 46.2322C45.5409 46.4922 45.1708 46.6322 44.7908 46.6122C43.9908 46.5822 43.3808 45.9222 43.4108 45.1322ZM41.1208 42.3822C41.1208 42.3822 41.1108 43.0722 41.1108 43.1522C40.7708 43.0422 38.2909 42.2422 35.9709 42.1622C34.0009 42.0922 31.3208 42.0022 27.5208 44.3322L27.4108 44.4122C25.6208 45.5222 24.3908 46.8922 23.7508 48.4922C23.5508 48.9922 23.2809 50.1322 23.5409 51.1922C23.6509 51.6522 23.8708 52.1322 24.1608 52.5422C24.8208 53.4922 25.9308 54.1222 27.1108 54.2222C28.7908 54.3722 30.0708 53.6122 30.5108 52.2022C30.8208 51.2322 30.5108 49.7922 29.3208 49.0622C28.3508 48.4622 27.3109 48.6022 26.7009 49.0022C26.1709 49.3522 25.8809 49.8922 25.8909 50.4822C25.9009 51.5322 26.8109 52.1022 27.4609 52.1022C27.6509 52.1022 27.8409 52.0722 28.0609 52.0022C28.1409 51.9822 28.2109 51.9522 28.2909 51.9022L28.3208 51.8822L28.3408 51.8722H28.3308C28.4808 51.7722 28.5708 51.6122 28.5708 51.4322C28.5708 51.3822 28.5609 51.3422 28.5509 51.2822C28.4709 51.0222 28.2108 50.8522 27.9408 50.9022L27.9008 50.9122L27.8508 50.9422L27.7708 50.9722C27.6208 51.0122 27.5108 51.0122 27.4908 51.0122C27.4108 51.0022 27.0409 50.9022 27.0409 50.4822C27.0409 50.3322 27.1109 50.2222 27.1309 50.1722C27.2409 49.9922 27.5708 49.8122 28.0008 49.8522C28.5708 49.9022 28.9708 50.1922 29.2508 50.7422C29.5108 51.2522 29.4408 51.8722 29.0808 52.3422C28.7308 52.7922 28.1008 52.9922 27.2608 52.9022C26.4208 52.8122 25.7109 52.3222 25.3009 51.5722C24.9109 50.8322 24.8908 49.9522 25.2408 49.2822C26.0908 47.6722 27.7108 47.6822 28.5908 47.8422C29.8508 48.0622 31.7509 49.1822 32.4709 51.7922H34.2108C33.9908 51.1322 33.8709 49.2022 35.8309 49.2022C37.9809 49.2022 38.2509 50.7122 38.8609 51.7922H40.7008C40.2208 51.1022 39.8808 50.3222 39.9808 49.6722C40.1408 48.7122 40.9108 48.8022 41.9608 48.9222C42.3008 48.9622 42.7009 49.0122 43.1009 49.0122C44.2309 49.0222 45.2609 48.8122 46.0109 48.4822C46.4909 48.2722 46.8008 48.1322 47.0008 47.9522C47.0708 47.8922 47.1008 47.8022 47.1408 47.6922L47.1709 47.6222C47.2009 47.5322 47.2509 47.3622 47.2609 47.2722C47.3109 47.0822 47.1408 47.1822 47.1408 47.1822C46.8108 47.3822 45.9908 47.7622 45.2108 47.7722C44.2508 47.7922 42.3308 46.8122 42.1208 46.7022L42.1009 46.6822C42.0509 46.5722 41.7608 45.8822 41.7008 45.7322C43.0908 46.6522 44.2408 47.1522 45.1208 47.2222C46.1008 47.3122 46.8708 46.7822 47.1908 46.5422C47.2308 46.5222 47.3508 46.4322 47.3208 46.3222C47.1908 45.8822 46.7508 44.3822 46.3808 44.0022C46.2808 43.8922 46.1909 43.7822 46.0109 43.6822C44.6109 42.8722 41.2808 42.3722 41.1308 42.3522C41.1608 42.3422 41.1208 42.3322 41.1208 42.3822Z" fill="#7AC143"/>
<path d="M45.0308 45.2623C44.7808 45.2623 44.5908 45.1323 44.5908 44.9723C44.5908 44.8123 44.7908 44.6823 45.0308 44.6823C45.2808 44.6823 45.4708 44.8123 45.4708 44.9723C45.4708 45.1323 45.2708 45.2623 45.0308 45.2623ZM44.8708 44.1823C44.6108 44.1723 44.3508 44.2723 44.1608 44.4423C43.9708 44.6223 43.8608 44.8723 43.8508 45.1323C43.8308 45.6823 44.2608 46.1423 44.8108 46.1623C45.0708 46.1723 45.3308 46.0723 45.5208 45.9023C45.7208 45.7223 45.8208 45.4723 45.8308 45.2123C45.8508 44.6623 45.4108 44.1923 44.8708 44.1823Z" fill="#7AC143"/>
<path d="M36.2309 56.293C36.2009 56.293 33.2609 55.863 33.2309 55.863C32.7109 55.773 32.4509 55.523 32.4509 55.103C32.4509 54.683 32.8109 54.443 33.1109 54.443H37.9709V52.623H33.1209C31.5809 52.623 30.5209 53.793 30.5209 55.103C30.5209 56.243 31.2009 57.433 32.7709 57.663C32.8009 57.663 35.7409 58.103 35.7709 58.103C36.2909 58.193 36.5509 58.433 36.5509 58.863C36.5509 59.283 36.1909 59.523 35.8909 59.523H32.3309C31.6109 59.543 30.8509 60.103 30.8509 61.183V61.343H35.8709C37.4109 61.343 38.4709 60.173 38.4709 58.863C38.4809 57.723 37.8009 56.543 36.2309 56.293ZM62.0509 54.453C62.7709 54.433 63.5309 53.873 63.5309 52.793V52.633H58.2609C56.7209 52.633 55.6609 53.803 55.6609 55.113V58.863C55.6609 60.173 56.7209 61.343 58.2609 61.343H63.5309V61.183C63.5309 60.103 62.7709 59.543 62.0509 59.523H58.2609C57.9709 59.523 57.6009 59.283 57.6009 58.863C57.6009 58.443 57.8709 58.103 58.3809 58.103H60.0309C61.4809 58.093 62.3109 57.203 62.5709 56.193H58.6209C57.9109 56.193 57.6109 56.763 57.6109 56.763V55.103C57.6109 54.683 57.9709 54.443 58.2709 54.443H62.0509V54.453ZM44.7609 52.623V57.803C44.7609 58.883 43.8809 59.763 42.8009 59.763C41.7209 59.763 40.8409 58.883 40.8409 57.803V52.623H38.9609V57.693C38.9609 59.823 40.6809 61.543 42.8109 61.543C44.9409 61.543 46.6609 59.823 46.6609 57.693V52.623H44.7609ZM55.1609 58.863C55.1609 60.173 54.1009 61.343 52.5609 61.343H47.7109V59.523H52.5709C52.8709 59.523 53.2309 59.283 53.2309 58.863C53.2309 58.443 52.9709 58.193 52.4509 58.103C52.4209 58.103 49.4809 57.663 49.4509 57.663C47.8809 57.413 47.2009 56.233 47.2009 55.103C47.2009 53.793 48.2609 52.623 49.8009 52.623H54.6509V54.443H49.7909C49.4909 54.443 49.1309 54.683 49.1309 55.103C49.1309 55.523 49.3909 55.773 49.9109 55.863C49.9409 55.873 52.8809 56.303 52.9109 56.303C54.4809 56.543 55.1609 57.723 55.1609 58.863Z" fill="black"/>
<path opacity="0.15" d="M89.5908 64.703H68.2408C67.6408 64.703 67.1608 64.223 67.1608 63.623V43.873C67.1608 43.273 67.6408 42.793 68.2408 42.793H89.6008C90.2008 42.793 90.6808 43.273 90.6808 43.873V63.633C90.6708 64.223 90.1808 64.703 89.5908 64.703Z" fill="#1F1D20"/>
<path opacity="0.15" d="M89.5908 63.4925H68.2408C67.6408 63.4925 67.1608 63.0025 67.1608 62.4125V42.6425C67.1608 42.0425 67.6408 41.5625 68.2408 41.5625H89.6008C90.2008 41.5625 90.6808 42.0425 90.6808 42.6425V62.4025C90.6708 63.0025 90.1808 63.4925 89.5908 63.4925Z" fill="#1F1D20"/>
<path d="M89.5908 63.4823H68.2408C67.6408 63.4823 67.1608 63.0023 67.1608 62.4023V42.6523C67.1608 42.0523 67.6408 41.5723 68.2408 41.5723H89.6008C90.2008 41.5723 90.6808 42.0523 90.6808 42.6523V62.4123C90.6708 63.0023 90.1808 63.4823 89.5908 63.4823Z" fill="#EBEBEB"/>
<path d="M83.5908 47.962C83.5908 47.472 83.2008 47.082 82.7108 47.082H72.1208C71.6308 47.082 71.2408 47.472 71.2408 47.962C71.2408 48.452 71.6308 48.842 72.1208 48.842H82.7208C83.2108 48.832 83.5908 48.452 83.5908 47.962Z" fill="url(#paint2_linear_210_52)"/>
<path d="M86.5908 47.962C86.5908 47.472 86.2008 47.082 85.7108 47.082H82.8308C82.3408 47.082 82.6608 47.472 82.6608 47.962C82.6608 48.452 82.3508 48.842 82.8308 48.842H85.7208C86.1908 48.832 86.5908 48.452 86.5908 47.962Z" fill="#9B9BA0"/>
<path d="M81.4008 47.9631C81.4008 48.9331 82.1808 49.7231 83.1608 49.7231C84.1408 49.7231 84.9208 48.9431 84.9208 47.9631C84.9208 46.9931 84.1208 46.2031 83.1608 46.2031C82.1908 46.2231 81.4008 46.9931 81.4008 47.9631Z" fill="#50E6FF"/>
<path d="M80.3408 52.3917C80.3408 51.9017 79.9508 51.5117 79.4608 51.5117H72.1208C71.6308 51.5117 71.2408 51.9017 71.2408 52.3917C71.2408 52.8817 71.6308 53.2717 72.1208 53.2717H79.4808C79.9508 53.2717 80.3408 52.8817 80.3408 52.3917Z" fill="url(#paint3_linear_210_52)"/>
<path d="M86.5908 52.3917C86.5908 51.9017 86.2008 51.5117 85.7108 51.5117H79.9908C79.5008 51.5117 79.1108 51.9017 79.1108 52.3917C79.1108 52.8817 79.5008 53.2717 79.9908 53.2717H85.7208C86.1908 53.2717 86.5908 52.8817 86.5908 52.3917Z" fill="#9B9BA0"/>
<path d="M77.5708 52.3928C77.5708 53.3628 78.3508 54.1528 79.3308 54.1528C80.3108 54.1528 81.0908 53.3728 81.0908 52.3928C81.0908 51.4228 80.3108 50.6328 79.3308 50.6328C78.3508 50.6428 77.5708 51.4228 77.5708 52.3928Z" fill="#35AFE4"/>
<path d="M76.2508 57.0929C76.2508 56.6029 75.8608 56.2129 75.3708 56.2129H72.1208C71.6308 56.2229 71.2408 56.6029 71.2408 57.0929C71.2408 57.5829 71.6308 57.9729 72.1208 57.9729H75.3708C75.8608 57.9629 76.2508 57.5729 76.2508 57.0929Z" fill="url(#paint4_linear_210_52)"/>
<path d="M86.5908 57.0929C86.5908 56.6029 86.2008 56.2129 85.7108 56.2129H76.2408C75.7508 56.2129 75.3608 56.6029 75.3608 57.0929C75.3608 57.5829 75.7508 57.9729 76.2408 57.9729H85.7108C86.1908 57.9629 86.5908 57.5729 86.5908 57.0929Z" fill="#9B9BA0"/>
<path d="M73.9507 57.092C73.9507 58.062 74.7307 58.852 75.7107 58.852C76.6807 58.852 77.4707 58.072 77.4707 57.092C77.4707 56.122 76.6907 55.332 75.7107 55.332C74.7307 55.342 73.9507 56.132 73.9507 57.092Z" fill="#2E76BC"/>
<defs>
<linearGradient id="paint0_linear_210_52" x1="49.5007" y1="-12.8275" x2="53.4827" y2="132.943" gradientUnits="userSpaceOnUse">
<stop stop-color="#00ABDE"/>
<stop offset="1" stop-color="#007ED8"/>
</linearGradient>
<linearGradient id="paint1_linear_210_52" x1="2.70331" y1="-19.6617" x2="98.2303" y2="121.219" gradientUnits="userSpaceOnUse">
<stop stop-color="#007ED8"/>
<stop offset="0.7065" stop-color="#002D4C"/>
</linearGradient>
<linearGradient id="paint2_linear_210_52" x1="77.0612" y1="46.9647" x2="84.3061" y2="67.3924" gradientUnits="userSpaceOnUse">
<stop stop-color="#15548F"/>
<stop offset="0.4179" stop-color="#243A5E"/>
<stop offset="0.9677" stop-color="#1A2C45"/>
</linearGradient>
<linearGradient id="paint3_linear_210_52" x1="74.5737" y1="48.9698" x2="80.331" y2="65.2029" gradientUnits="userSpaceOnUse">
<stop stop-color="#15548F"/>
<stop offset="0.4179" stop-color="#243A5E"/>
<stop offset="0.9677" stop-color="#1A2C45"/>
</linearGradient>
<linearGradient id="paint4_linear_210_52" x1="72.2546" y1="52.8955" x2="76.1436" y2="63.8606" gradientUnits="userSpaceOnUse">
<stop stop-color="#15548F"/>
<stop offset="0.4179" stop-color="#243A5E"/>
<stop offset="0.9677" stop-color="#1A2C45"/>
</linearGradient>
</defs>
</svg>
