<?xml version="1.0" encoding="UTF-8"?>
<svg width="108px" height="102px" viewBox="0 0 108 102" version="1.1" xmlns="http://www.w3.org/2000/svg" xmlns:xlink="http://www.w3.org/1999/xlink">
    <title>NA/deploy-batch-inference-pipelines-with-azure-machine-learning</title>
    <defs>
        <rect id="path-1" x="0" y="0" width="94.3396226" height="94.3396226" rx="47.1698113"></rect>
        <filter x="-2.9%" y="-2.9%" width="106.4%" height="106.4%" filterUnits="objectBoundingBox" id="filter-3">
            <feMorphology radius="2.5" operator="dilate" in="SourceAlpha" result="shadowSpreadOuter1"></feMorphology>
            <feOffset dx="0.5" dy="0.5" in="shadowSpreadOuter1" result="shadowOffsetOuter1"></feOffset>
            <feMorphology radius="1" operator="erode" in="SourceAlpha" result="shadowInner"></feMorphology>
            <feOffset dx="0.5" dy="0.5" in="shadowInner" result="shadowInner"></feOffset>
            <feComposite in="shadowOffsetOuter1" in2="shadowInner" operator="out" result="shadowOffsetOuter1"></feComposite>
            <feColorMatrix values="0 0 0 0 0.821822822   0 0 0 0 0.831640661   0 0 0 0 0.835737288  0 0 0 1 0" type="matrix" in="shadowOffsetOuter1"></feColorMatrix>
        </filter>
        <linearGradient x1="77.8299825%" y1="11.1997378%" x2="-99.6885927%" y2="253.807911%" id="linearGradient-4">
            <stop stop-color="#FFFFFF" offset="0%"></stop>
            <stop stop-color="#000000" stop-opacity="0.5" offset="100%"></stop>
        </linearGradient>
        <rect id="path-5" x="0" y="0" width="94.3396226" height="94.3396226"></rect>
        <path d="M48.1132075,0.739331515 C74.2770768,0.739331515 95.4870836,21.9493383 95.4870836,48.1132075 C95.4870836,74.2770768 74.2770768,95.4870836 48.1132075,95.4870836 C21.9493383,95.4870836 0.739331515,74.2770768 0.739331515,48.1132075 C0.739331515,21.9493383 21.9493383,0.739331515 48.1132075,0.739331515 Z M48.1132075,4.71698113 C24.1461335,4.71698113 4.71698113,24.1461335 4.71698113,48.1132075 C4.71698113,72.0802816 24.1461335,91.509434 48.1132075,91.509434 C72.0802816,91.509434 91.509434,72.0802816 91.509434,48.1132075 C91.509434,24.1461335 72.0802816,4.71698113 48.1132075,4.71698113 Z" id="path-6"></path>
        <filter x="-15.3%" y="-150.0%" width="130.7%" height="400.0%" filterUnits="objectBoundingBox" id="filter-8">
            <feOffset dx="0" dy="2" in="SourceAlpha" result="shadowOffsetOuter1"></feOffset>
            <feGaussianBlur stdDeviation="2.5" in="shadowOffsetOuter1" result="shadowBlurOuter1"></feGaussianBlur>
            <feColorMatrix values="0 0 0 0 0   0 0 0 0 0   0 0 0 0 0  0 0 0 0.103911911 0" type="matrix" in="shadowBlurOuter1" result="shadowMatrixOuter1"></feColorMatrix>
            <feMerge>
                <feMergeNode in="shadowMatrixOuter1"></feMergeNode>
                <feMergeNode in="SourceGraphic"></feMergeNode>
            </feMerge>
        </filter>
        <linearGradient x1="50%" y1="-9.93901477%" x2="50%" y2="100%" id="linearGradient-9">
            <stop stop-color="#FFFFFF" offset="0%"></stop>
            <stop stop-color="#CBCBCB" offset="100%"></stop>
        </linearGradient>
        <linearGradient x1="50%" y1="0%" x2="50%" y2="100%" id="linearGradient-10">
            <stop stop-color="#5CBADA" offset="0%"></stop>
            <stop stop-color="#0099BE" offset="100%"></stop>
        </linearGradient>
        <linearGradient x1="50%" y1="0%" x2="50%" y2="100%" id="linearGradient-11">
            <stop stop-color="#B6E5F9" offset="0%"></stop>
            <stop stop-color="#81D3ED" offset="100%"></stop>
        </linearGradient>
        <linearGradient x1="50%" y1="0%" x2="50%" y2="100%" id="linearGradient-12">
            <stop stop-color="#E8F6FE" offset="0%"></stop>
            <stop stop-color="#B6E5F9" offset="100%"></stop>
        </linearGradient>
        <filter x="-54.1%" y="-54.5%" width="208.3%" height="209.1%" filterUnits="objectBoundingBox" id="filter-13">
            <feOffset dx="0" dy="2" in="SourceAlpha" result="shadowOffsetOuter1"></feOffset>
            <feGaussianBlur stdDeviation="2" in="shadowOffsetOuter1" result="shadowBlurOuter1"></feGaussianBlur>
            <feColorMatrix values="0 0 0 0 0   0 0 0 0 0   0 0 0 0 0  0 0 0 0.1 0" type="matrix" in="shadowBlurOuter1" result="shadowMatrixOuter1"></feColorMatrix>
            <feMerge>
                <feMergeNode in="shadowMatrixOuter1"></feMergeNode>
                <feMergeNode in="SourceGraphic"></feMergeNode>
            </feMerge>
        </filter>
        <linearGradient x1="0%" y1="50%" x2="100.2%" y2="50%" id="linearGradient-14">
            <stop stop-color="#50C7E8" offset="0%"></stop>
            <stop stop-color="#4CC3E4" offset="25%"></stop>
            <stop stop-color="#41B6DA" offset="51%"></stop>
            <stop stop-color="#2FA2C8" offset="77%"></stop>
            <stop stop-color="#1989B2" offset="100%"></stop>
        </linearGradient>
    </defs>
    <g id="Badges" stroke="none" stroke-width="1" fill="none" fill-rule="evenodd">
        <g id="N/A-20" transform="translate(-156.000000, -319.000000)">
            <g id="NA/deploy-batch-inference-pipelines-with-azure-machine-learning" transform="translate(160.000000, 320.000000)">
                <g id="Badge-Plates/Circle">
                    <g id="BG" transform="translate(2.830189, 2.830189)">
                        <mask id="mask-2" fill="white">
                            <use xlink:href="#path-1"></use>
                        </mask>
                        <g>
                            <use fill="black" fill-opacity="1" filter="url(#filter-3)" xlink:href="#path-1"></use>
                            <rect stroke="#F2F1F0" stroke-width="2.5" x="-1.25" y="-1.25" width="96.8396226" height="96.8396226" rx="48.4198113"></rect>
                        </g>
                        <g id="Colors/Microsoft-365/BG-Solid-Badge" mask="url(#mask-2)">
                            <g id="Rectangle">
                                <use fill="#0078D4" xlink:href="#path-5"></use>
                                <use fill-opacity="0.4" fill="url(#linearGradient-4)" xlink:href="#path-5"></use>
                            </g>
                        </g>
                    </g>
                    <g id="Border" transform="translate(1.886792, 1.886792)">
                        <mask id="mask-7" fill="white">
                            <use xlink:href="#path-6"></use>
                        </mask>
                        <use id="Boarder" fill="#0078D4" fill-rule="nonzero" xlink:href="#path-6"></use>
                        <g id="Colors/Microsoft-365/Border" mask="url(#mask-7)" fill="#0076D7">
                            <g transform="translate(-1.886792, -1.886792)" id="Microsoft-365/Border">
                                <rect x="0" y="0" width="100" height="100"></rect>
                            </g>
                        </g>
                    </g>
                </g>
                <g id="Browser-Pipe" transform="translate(6.000000, 45.000000)" fill="url(#linearGradient-9)">
                    <g id="Pipe" filter="url(#filter-8)">
                        <path d="M1,9 L87,9 C87.4950839,6.16891216 87.5184406,3.27542656 87.0691241,0.43671538 L87,0 L87,0 L1,0 C0.788758581,2.01100119 0.683137872,3.52491564 0.683137872,4.54174334 C0.683137872,5.55857104 0.788758581,7.04465659 1,9 Z" id="Fill-68"></path>
                    </g>
                </g>
                <g id="Batch" transform="translate(25.500000, 23.000000)">
                    <path d="M9.5,18.8679245 C9.5,19.5283019 10,20 10.7,20 L38.3,20 C39,20 39.5,19.5283019 39.5,18.8679245 L39.5,1.5 C39.5,0.671572875 38.8284271,6.98650109e-17 38,0 L11,0 C10.1715729,5.96268804e-16 9.5,0.671572875 9.5,1.5 L9.5,18.8679245 L9.5,18.8679245 Z" id="Path" fill="url(#linearGradient-10)"></path>
                    <path d="M4.5,32.4716981 C4.5,33.3632075 5.16666667,34 6.1,34 L42.9,34 C43.8333333,34 44.5,33.3632075 44.5,32.4716981 L44.5,8.5 C44.5,7.67157288 43.8284271,7 43,7 L6,7 C5.17157288,7 4.5,7.67157288 4.5,8.5 L4.5,32.4716981 L4.5,32.4716981 Z" id="Path" fill="url(#linearGradient-11)"></path>
                    <path d="M0.5,47.0754717 C0.5,48.1981132 1.3,49 2.42,49 L46.58,49 C47.7,49 48.5,48.1981132 48.5,47.0754717 L48.5,16.5 C48.5,15.6715729 47.8284271,15 47,15 L2,15 C1.17157288,15 0.5,15.6715729 0.5,16.5 L0.5,47.0754717 L0.5,47.0754717 Z" id="Path" fill="url(#linearGradient-12)"></path>
                </g>
                <g id="Icon-machinelearning-166-Machine-Learning-Service-Workspaces" filter="url(#filter-13)" transform="translate(38.333333, 44.000000)" fill-rule="nonzero">
                    <polygon id="bc892891-989d-4c43-80d3-d2b4546a974f" fill="#198AB3" points="19.2742616 21 2.05907173 21 0.666666667 16 20.6666667 16"></polygon>
                    <polygon id="Path" fill="url(#linearGradient-14)" points="8.20666667 0 8.20666667 7.90588235 0.666666667 15.9352941 2.09666667 21 13.6666667 7.90588235 13.6666667 0"></polygon>
                    <polygon id="e6be01d6-345d-4df4-bbdb-151aa8edaa1f" fill="#32BEDD" points="20.0091324 21 10.6666667 12.8297872 14.5844749 9 21.6666667 15.7659574"></polygon>
                </g>
            </g>
        </g>
    </g>
</svg>