<svg width="103" height="103" viewBox="0 0 103 103" fill="none" xmlns="http://www.w3.org/2000/svg">
<path d="M51.5842 98.1234C25.7342 98.1234 4.77417 77.1734 4.77417 51.3134C4.77417 25.4534 25.7342 4.50342 51.5842 4.50342C77.4342 4.50342 98.3942 25.4634 98.3942 51.3134C98.3942 77.1634 77.4342 98.1234 51.5842 98.1234Z" fill="#323237" stroke="#9B9BA0" stroke-width="0.3" stroke-miterlimit="10"/>
<path fill-rule="evenodd" clip-rule="evenodd" d="M97.4842 51.3136C97.4842 76.6636 76.9342 97.2136 51.5842 97.2136C26.2342 97.2136 5.68421 76.6636 5.68421 51.3136C5.68421 25.9636 26.2342 5.41358 51.5842 5.41358C76.9342 5.41358 97.4842 25.9636 97.4842 51.3136ZM51.5842 1.67358C79.0042 1.67358 101.224 23.8936 101.224 51.3136C101.224 78.7336 78.9942 100.954 51.5842 100.954C24.1642 100.954 1.94421 78.7236 1.94421 51.3136C1.94421 23.8936 24.1642 1.67358 51.5842 1.67358Z" fill="#F2F1F0"/>
<path fill-rule="evenodd" clip-rule="evenodd" d="M94.6743 51.3134C94.6743 75.1134 75.3843 94.4034 51.5843 94.4034C27.7843 94.4034 8.49427 75.1134 8.49427 51.3134C8.49427 27.5134 27.7843 8.2234 51.5843 8.2234C75.3843 8.2234 94.6743 27.5134 94.6743 51.3134ZM51.5843 4.4834C77.4443 4.4834 98.4143 25.4534 98.4143 51.3134C98.4143 77.1734 77.4443 98.1434 51.5843 98.1434C25.7243 98.1434 4.75427 77.1734 4.75427 51.3134C4.75427 25.4534 25.7143 4.4834 51.5843 4.4834Z" fill="#E92D2F"/>
<path opacity="0.15" d="M52.1342 30.2034H19.8442C19.1442 30.2034 18.5842 30.7634 18.5842 31.4634V73.6034C18.5842 74.3034 19.1442 74.8634 19.8442 74.8634H52.1342C52.8342 74.8634 53.3942 74.3034 53.3942 73.6034V31.4634C53.3842 30.7634 52.8242 30.2034 52.1342 30.2034Z" fill="#1F1D20"/>
<path d="M52.1342 28.6436H19.8442C19.1442 28.6436 18.5842 29.2036 18.5842 29.9036V72.0436C18.5842 72.7436 19.1442 73.3036 19.8442 73.3036H52.1342C52.8342 73.3036 53.3942 72.7436 53.3942 72.0436V29.9036C53.3842 29.2036 52.8242 28.6436 52.1342 28.6436Z" fill="#F2F2F2"/>
<path opacity="0.15" d="M83.8942 30.0234H57.7342C56.5242 30.0234 55.5342 31.0034 55.5342 32.2234V48.6734C55.5342 49.8834 56.5142 50.8734 57.7342 50.8734H83.1742C84.3842 50.8734 85.3742 49.8934 85.3742 48.6734V31.4934C85.3542 30.6734 84.7042 30.0234 83.8942 30.0234Z" fill="#1F1D20"/>
<path d="M57.1742 49.5036H83.7342C84.6342 49.5036 85.3742 48.7736 85.3742 47.8636V30.2936C85.3742 29.3936 84.6442 28.6536 83.7342 28.6536H57.1742C56.2742 28.6536 55.5342 29.3836 55.5342 30.2936V47.8636C55.5342 48.7636 56.2642 49.5036 57.1742 49.5036Z" fill="#F2F2F2"/>
<path opacity="0.15" d="M83.8942 53.8035H57.7342C56.5242 53.8035 55.5342 54.7835 55.5342 56.0035V72.4535C55.5342 73.6635 56.5142 74.6535 57.7342 74.6535H83.1742C84.3842 74.6535 85.3742 73.6735 85.3742 72.4535V55.2735C85.3542 54.4635 84.7042 53.8035 83.8942 53.8035Z" fill="#1F1D20"/>
<path d="M57.1742 73.2834H83.7342C84.6342 73.2834 85.3742 72.5534 85.3742 71.6434V54.0834C85.3742 53.1834 84.6442 52.4434 83.7342 52.4434H57.1742C56.2742 52.4434 55.5342 53.1734 55.5342 54.0834V71.6534C55.5342 72.5534 56.2642 73.2834 57.1742 73.2834Z" fill="#F2F2F2"/>
<path opacity="0.15" d="M70.6642 48.3934C75.3342 48.3934 79.1242 44.6034 79.1242 39.9334C79.1242 35.2634 75.3342 31.4734 70.6642 31.4734C65.9942 31.4734 62.2042 35.2634 62.2042 39.9334C62.2042 44.6034 65.9942 48.3934 70.6642 48.3934Z" fill="#1F1D20"/>
<path d="M70.6642 47.3934C75.3342 47.3934 79.1242 43.6034 79.1242 38.9334C79.1242 34.2634 75.3342 30.4734 70.6642 30.4734C65.9942 30.4734 62.2042 34.2634 62.2042 38.9334C62.2042 43.6034 65.9942 47.3934 70.6642 47.3934Z" fill="#F4F4F4"/>
<path fill-rule="evenodd" clip-rule="evenodd" d="M70.6643 31.0735C66.3543 31.0735 62.8743 34.5535 62.8743 38.8635C62.8743 42.2635 65.0643 45.2135 68.1643 46.2035C68.6143 46.2835 68.7743 46.0535 68.7743 45.8235V44.5335C66.5843 44.9835 66.1243 43.4735 66.1243 43.4735C65.7443 42.5635 65.2943 42.3435 65.2943 42.3435C64.6143 41.8935 65.3743 41.8935 65.3743 41.8935C66.1343 41.9735 66.5843 42.7235 66.5843 42.7235C67.2643 43.9335 68.4043 43.5535 68.8543 43.4035C68.9343 42.8735 69.1543 42.5735 69.3843 42.3435C67.5643 42.0435 65.7543 41.3635 65.7543 38.4135C65.7543 37.5835 66.0543 36.9035 66.5843 36.2935C66.4343 36.1435 66.2043 35.3835 66.5843 34.3235C66.5843 34.3235 67.2643 34.0935 68.7043 35.1535C69.3143 35.0035 69.9943 34.9235 70.6743 34.9235C71.3543 34.9235 71.9643 35.0035 72.6443 35.1535C74.1543 34.1735 74.7643 34.3235 74.7643 34.3235C75.2143 35.3835 74.9143 36.2135 74.8443 36.3635C75.3743 36.8935 75.6743 37.5735 75.6743 38.4835C75.6743 41.4335 73.8543 42.1135 72.1143 42.3435C72.4143 42.5735 72.6443 43.0235 72.6443 43.7835V45.9035C72.6443 46.1335 72.7943 46.3535 73.1743 46.2835C76.2743 45.2235 78.4643 42.3535 78.4643 38.9435C78.4543 34.5535 74.9743 31.0735 70.6643 31.0735Z" fill="url(#paint0_linear)"/>
<path opacity="0.4" d="M41.8343 66.2935C41.3743 66.2935 40.9543 66.3535 40.6043 66.4535C39.9043 66.6635 39.1643 66.7035 38.4343 66.7035H34.0343C33.5443 66.7035 33.0643 66.5935 32.5943 66.4535C32.2543 66.3535 31.8243 66.2935 31.3643 66.2935C30.2043 66.2935 29.2643 66.6735 29.2643 67.1335C29.2643 67.6035 30.2043 67.9735 31.3643 67.9735C31.8143 67.9735 32.2343 67.9135 32.5743 67.8135C33.7043 67.4835 34.8943 67.4135 36.0743 67.4135H37.0943C38.2743 67.4135 39.4643 67.4835 40.5943 67.8135C40.9343 67.9135 41.3543 67.9735 41.8043 67.9735C42.9643 67.9735 43.9043 67.5935 43.9043 67.1335C43.9343 66.6735 42.9943 66.2935 41.8343 66.2935Z" fill="#1F1D20"/>
<path fill-rule="evenodd" clip-rule="evenodd" d="M31.1142 38.4534C31.7942 39.8734 31.3342 49.8134 30.5442 53.2934C29.7442 56.7834 28.9542 61.2234 28.7642 64.9534C28.6842 66.5434 28.9242 67.1734 29.9642 67.1734C31.8042 67.1734 34.1242 63.3034 37.0442 63.3934C39.9742 63.4834 40.8942 67.8334 42.2742 67.8034C43.6442 67.7734 44.7442 67.2934 44.7542 63.0634C44.8042 50.4334 34.2042 40.1834 31.1142 38.4534Z" fill="black"/>
<path fill-rule="evenodd" clip-rule="evenodd" d="M40.2942 48.5534C40.9342 49.6434 42.5842 48.8034 42.6542 47.5734C42.7242 46.3534 42.5442 44.8034 41.7442 44.7434C40.9442 44.6834 40.3742 43.8834 39.5842 43.8334C38.7842 43.7734 37.9342 44.5734 37.5642 43.5134C37.1942 42.4634 38.5642 42.0134 39.5842 41.8434C38.6742 40.9334 38.1442 39.9234 37.7342 38.8734C37.3342 37.8234 37.0342 36.8634 38.1542 36.4434C39.2742 36.0334 39.1842 38.1534 40.4642 39.1234C40.0842 37.6934 39.9442 37.1034 39.9742 36.2734C40.0042 35.4434 39.9442 34.8134 41.1242 34.9734C42.3042 35.1334 41.7942 37.5834 42.7142 38.5834C42.9942 37.6334 43.1642 36.4334 43.8342 35.9434C44.5042 35.4534 46.0442 35.4334 45.0642 37.4634C44.0842 39.4934 45.3542 40.5834 45.0542 42.1834C44.7542 43.7834 43.8442 43.4934 43.4442 44.5234C43.0442 45.5534 43.6742 47.8934 42.9342 48.9434C42.1842 49.9934 42.0542 51.6134 42.5342 52.9034C41.0742 51.5134 40.2942 48.5534 40.2942 48.5534Z" fill="black"/>
<path fill-rule="evenodd" clip-rule="evenodd" d="M31.0742 49.9236C30.4742 54.0236 28.3942 54.5136 28.2942 56.2136C28.1842 57.9136 28.8442 58.0736 28.8042 59.6536C28.7642 61.2236 27.3642 61.8636 27.1942 62.7236C27.0242 63.5836 27.9142 63.8536 28.4342 63.8536C28.9542 63.8536 29.4642 61.5936 29.6742 60.1436C29.8842 58.7036 28.9842 57.8536 28.9842 56.8736C28.9842 55.8836 30.2842 54.0836 30.0442 55.6636C31.1142 53.9536 31.6242 51.7936 31.0742 49.9236Z" fill="black"/>
<path fill-rule="evenodd" clip-rule="evenodd" d="M31.8742 51.4834C31.4242 53.7034 28.5942 66.0934 30.0342 66.2534C31.4742 66.4134 33.5242 62.4234 36.8842 62.4534C40.2442 62.4834 41.5742 66.9234 42.3942 66.8934C43.2142 66.8634 43.7542 67.1834 43.8342 62.1834C43.9242 57.1834 40.8642 50.7834 39.0642 47.9634C36.6042 48.1134 33.9642 50.0734 31.8742 51.4834Z" fill="white"/>
<path d="M39.0343 48.7835C38.9043 47.3935 37.8743 46.5235 36.5443 46.3135C35.2643 46.1035 33.8643 46.7135 32.9643 47.6135C31.9543 48.6235 31.9143 50.0335 32.6243 51.2335C33.3243 52.4135 34.8643 52.8035 36.1343 52.5135C37.8643 52.1035 39.1443 50.5835 39.0343 48.7835Z" fill="black"/>
<path d="M38.3942 49.3035C38.2742 50.5635 37.2642 51.5735 36.0542 51.8735C34.7742 52.1835 33.3542 51.6935 32.8942 50.3735C32.6642 49.7035 32.7042 49.0135 33.1042 48.4235C33.4442 47.9235 33.9942 47.5335 34.5442 47.2835C35.6642 46.7735 37.2742 46.7135 38.0542 47.8535C38.3642 48.2835 38.4142 48.7935 38.3942 49.3035Z" fill="url(#paint1_radial)" stroke="black"/>
<path d="M77.2043 63.0436L72.8843 65.4936V60.5836L77.2043 58.1436V63.0436Z" fill="#4040B2"/>
<path d="M68.1343 63.0336L72.3943 65.4936V60.5836L68.1343 58.1436V63.0336Z" fill="#5F43E9"/>
<path d="M63.3943 60.3036L67.6543 62.7636V57.8536L63.3943 55.4036V60.3036Z" fill="#5F43E9"/>
<path d="M68.1343 68.5035L72.3943 70.9635V66.0535L68.1343 63.6035V68.5035Z" fill="#5F43E9"/>
<defs>
<linearGradient id="paint0_linear" x1="33.1465" y1="11.0328" x2="93.548" y2="55.8321" gradientUnits="userSpaceOnUse">
<stop stop-color="#007ED8"/>
<stop offset="0.7065" stop-color="#002D4C"/>
</linearGradient>
<radialGradient id="paint1_radial" cx="0" cy="0" r="1" gradientUnits="userSpaceOnUse" gradientTransform="translate(34.1431 48.482) scale(4.4139)">
<stop stop-color="white"/>
<stop offset="0.0604" stop-color="#FBC8B4"/>
<stop offset="0.0712" stop-color="#FBC3B0"/>
<stop offset="0.1829" stop-color="#F7978B"/>
<stop offset="0.2995" stop-color="#F4716B"/>
<stop offset="0.4199" stop-color="#F15251"/>
<stop offset="0.5453" stop-color="#EF3A3D"/>
<stop offset="0.6778" stop-color="#EE292F"/>
<stop offset="0.822" stop-color="#ED1F27"/>
<stop offset="1" stop-color="#ED1C24"/>
</radialGradient>
</defs>
</svg>
