<?xml version="1.0" encoding="UTF-8"?>
<svg width="100px" height="100px" viewBox="0 0 100 100" version="1.1" xmlns="http://www.w3.org/2000/svg" xmlns:xlink="http://www.w3.org/1999/xlink">
    <!-- Generator: Sketch 53.2 (72643) - https://sketchapp.com -->
    <title>NA/deploy-and-run-a-containerized-web-app-with-app-service</title>
    <desc>Created with Sketch.</desc>
    <defs>
        <rect id="path-1" x="0" y="0" width="96" height="96" rx="48"></rect>
        <filter x="-15.5%" y="-18.7%" width="131.1%" height="137.3%" filterUnits="objectBoundingBox" id="filter-3">
            <feOffset dx="0" dy="2" in="SourceAlpha" result="shadowOffsetOuter1"></feOffset>
            <feColorMatrix values="0 0 0 0 0   0 0 0 0 0   0 0 0 0 0  0 0 0 0.20386096 0" type="matrix" in="shadowOffsetOuter1" result="shadowMatrixOuter1"></feColorMatrix>
            <feMerge>
                <feMergeNode in="shadowMatrixOuter1"></feMergeNode>
                <feMergeNode in="SourceGraphic"></feMergeNode>
            </feMerge>
        </filter>
        <filter x="-5.2%" y="-5.5%" width="110.4%" height="111.1%" filterUnits="objectBoundingBox" id="filter-4">
            <feOffset dx="0" dy="2" in="SourceAlpha" result="shadowOffsetOuter1"></feOffset>
            <feColorMatrix values="0 0 0 0 0   0 0 0 0 0   0 0 0 0 0  0 0 0 0.1 0" type="matrix" in="shadowOffsetOuter1" result="shadowMatrixOuter1"></feColorMatrix>
            <feMerge>
                <feMergeNode in="shadowMatrixOuter1"></feMergeNode>
                <feMergeNode in="SourceGraphic"></feMergeNode>
            </feMerge>
        </filter>
        <filter x="-12.4%" y="-14.7%" width="127.5%" height="132.6%" filterUnits="objectBoundingBox" id="filter-5">
            <feOffset dx="0" dy="2" in="SourceAlpha" result="shadowOffsetOuter1"></feOffset>
            <feColorMatrix values="0 0 0 0 0   0 0 0 0 0   0 0 0 0 0  0 0 0 0.0964956975 0" type="matrix" in="shadowOffsetOuter1" result="shadowMatrixOuter1"></feColorMatrix>
            <feMerge>
                <feMergeNode in="shadowMatrixOuter1"></feMergeNode>
                <feMergeNode in="SourceGraphic"></feMergeNode>
            </feMerge>
        </filter>
    </defs>
    <g id="Badges" stroke="none" stroke-width="1" fill="none" fill-rule="evenodd">
        <g id="N/A-15" transform="translate(-50.000000, -260.000000)">
            <g id="NA/deploy-and-run-a-containerized-web-app-with-app-service" transform="translate(50.000000, 260.000000)">
                <g id="Mask" transform="translate(2.000000, 2.000000)">
                    <mask id="mask-2" fill="white">
                        <use xlink:href="#path-1"></use>
                    </mask>
                    <use id="BG" fill="#55A2FF" xlink:href="#path-1"></use>
                    <g id="Group-2" mask="url(#mask-2)">
                        <g transform="translate(-10.000000, 6.000000)">
                            <g id="Container" filter="url(#filter-3)" transform="translate(70.742790, 33.240964) scale(-1, 1) translate(-70.742790, -33.240964) translate(57.875321, 22.518072)">
                                <path d="M23.2269307,7.50579298 C23.1630088,7.50579298 23.0983605,7.48852923 23.0402497,7.45212522 L12.3311496,0.750410414 L1.6227759,7.45212522 C1.45025937,7.55946075 1.22762224,7.5012894 1.12411232,7.32377295 C1.02096559,7.14588121 1.07653407,6.91544761 1.24868742,6.80886268 L12.1444686,0.053480112 C12.2596006,-0.017826704 12.403425,-0.017826704 12.518557,0.053480112 L23.4143382,6.80886268 C23.5857651,6.91544761 23.64206,7.14588121 23.5381869,7.32377295 C23.4702699,7.44086625 23.3504163,7.50579298 23.2269307,7.50579298" id="Rope" fill="#E1E4E1"></path>
                                <g transform="translate(12.419846, 12.757485) rotate(4.000000) translate(-12.419846, -12.757485) translate(0.624665, 5.787605)">
                                    <path d="M21.5537766,0.253698497 L21.5537766,0.994317553 L1.43691844,0.994317553 L1.43691844,0.253698497 L0,0.253698497 L0,12.8442225 C0,13.2515629 0.32330665,13.5848415 0.718459221,13.5848415 L22.2722359,13.5848415 C22.6673884,13.5848415 22.9906951,13.2515629 22.9906951,12.8442225 L22.9906951,0.253698497 L21.5537766,0.253698497" id="Fill-1187" fill="#546670"></path>
                                    <path d="M2.15537766,11.7332939 C1.95672369,11.7332939 1.79614805,11.5677655 1.79614805,11.3629843 L1.79614805,3.21617472 C1.79614805,3.01139355 1.95672369,2.84586519 2.15537766,2.84586519 C2.35403164,2.84586519 2.51460728,3.01139355 2.51460728,3.21617472 L2.51460728,11.3629843 C2.51460728,11.5677655 2.35403164,11.7332939 2.15537766,11.7332939" id="Fill-1188" fill="#30404D"></path>
                                    <path d="M3.59229611,11.7332939 C3.39364213,11.7332939 3.2330665,11.5677655 3.2330665,11.3629843 L3.2330665,3.21617472 C3.2330665,3.01139355 3.39364213,2.84586519 3.59229611,2.84586519 C3.79095008,2.84586519 3.95152572,3.01139355 3.95152572,3.21617472 L3.95152572,11.3629843 C3.95152572,11.5677655 3.79095008,11.7332939 3.59229611,11.7332939" id="Fill-1189" fill="#30404D"></path>
                                    <path d="M5.02921455,11.7332939 C4.83056058,11.7332939 4.66998494,11.5677655 4.66998494,11.3629843 L4.66998494,3.21617472 C4.66998494,3.01139355 4.83056058,2.84586519 5.02921455,2.84586519 C5.22786853,2.84586519 5.38844416,3.01139355 5.38844416,3.21617472 L5.38844416,11.3629843 C5.38844416,11.5677655 5.22786853,11.7332939 5.02921455,11.7332939" id="Fill-1190" fill="#30404D"></path>
                                    <path d="M6.46613299,11.7332939 C6.26747902,11.7332939 6.10690338,11.5677655 6.10690338,11.3629843 L6.10690338,3.21617472 C6.10690338,3.01139355 6.26747902,2.84586519 6.46613299,2.84586519 C6.66478697,2.84586519 6.8253626,3.01139355 6.8253626,3.21617472 L6.8253626,11.3629843 C6.8253626,11.5677655 6.66478697,11.7332939 6.46613299,11.7332939" id="Fill-1191" fill="#30404D"></path>
                                    <path d="M7.90305144,11.7332939 C7.70439746,11.7332939 7.54382183,11.5677655 7.54382183,11.3629843 L7.54382183,3.21617472 C7.54382183,3.01139355 7.70439746,2.84586519 7.90305144,2.84586519 C8.10170541,2.84586519 8.26228105,3.01139355 8.26228105,3.21617472 L8.26228105,11.3629843 C8.26228105,11.5677655 8.10170541,11.7332939 7.90305144,11.7332939" id="Fill-1192" fill="#30404D"></path>
                                    <path d="M9.33996988,11.7332939 C9.1413159,11.7332939 8.98074027,11.5677655 8.98074027,11.3629843 L8.98074027,3.21617472 C8.98074027,3.01139355 9.1413159,2.84586519 9.33996988,2.84586519 C9.53862385,2.84586519 9.69919949,3.01139355 9.69919949,3.21617472 L9.69919949,11.3629843 C9.69919949,11.5677655 9.53862385,11.7332939 9.33996988,11.7332939" id="Fill-1193" fill="#30404D"></path>
                                    <path d="M10.7768883,11.7332939 C10.5782343,11.7332939 10.4176587,11.5677655 10.4176587,11.3629843 L10.4176587,3.21617472 C10.4176587,3.01139355 10.5782343,2.84586519 10.7768883,2.84586519 C10.9755423,2.84586519 11.1361179,3.01139355 11.1361179,3.21617472 L11.1361179,11.3629843 C11.1361179,11.5677655 10.9755423,11.7332939 10.7768883,11.7332939" id="Fill-1194" fill="#30404D"></path>
                                    <path d="M12.2138068,11.7332939 C12.0151528,11.7332939 11.8545772,11.5677655 11.8545772,11.3629843 L11.8545772,3.21617472 C11.8545772,3.01139355 12.0151528,2.84586519 12.2138068,2.84586519 C12.4124607,2.84586519 12.5730364,3.01139355 12.5730364,3.21617472 L12.5730364,11.3629843 C12.5730364,11.5677655 12.4124607,11.7332939 12.2138068,11.7332939" id="Fill-1195" fill="#30404D"></path>
                                    <path d="M13.6507252,11.7332939 C13.4520712,11.7332939 13.2914956,11.5677655 13.2914956,11.3629843 L13.2914956,3.21617472 C13.2914956,3.01139355 13.4520712,2.84586519 13.6507252,2.84586519 C13.8493792,2.84586519 14.0099548,3.01139355 14.0099548,3.21617472 L14.0099548,11.3629843 C14.0099548,11.5677655 13.8493792,11.7332939 13.6507252,11.7332939" id="Fill-1196" fill="#30404D"></path>
                                    <path d="M15.0876437,11.7332939 C14.8889897,11.7332939 14.728414,11.5677655 14.728414,11.3629843 L14.728414,3.21617472 C14.728414,3.01139355 14.8889897,2.84586519 15.0876437,2.84586519 C15.2862976,2.84586519 15.4468733,3.01139355 15.4468733,3.21617472 L15.4468733,11.3629843 C15.4468733,11.5677655 15.2862976,11.7332939 15.0876437,11.7332939" id="Fill-1197" fill="#30404D"></path>
                                    <path d="M19.398399,11.7332939 C19.199745,11.7332939 19.0391694,11.5677655 19.0391694,11.3629843 L19.0391694,3.21617472 C19.0391694,3.01139355 19.199745,2.84586519 19.398399,2.84586519 C19.597053,2.84586519 19.7576286,3.01139355 19.7576286,3.21617472 L19.7576286,11.3629843 C19.7576286,11.5677655 19.597053,11.7332939 19.398399,11.7332939" id="Fill-1198" fill="#30404D"></path>
                                    <path d="M20.8353174,11.7332939 C20.6366634,11.7332939 20.4760878,11.5677655 20.4760878,11.3629843 L20.4760878,3.21617472 C20.4760878,3.01139355 20.6366634,2.84586519 20.8353174,2.84586519 C21.0339714,2.84586519 21.194547,3.01139355 21.194547,3.21617472 L21.194547,11.3629843 C21.194547,11.5677655 21.0339714,11.7332939 20.8353174,11.7332939" id="Fill-1199" fill="#30404D"></path>
                                    <path d="M16.5245621,11.7332939 C16.3259081,11.7332939 16.1653325,11.5677655 16.1653325,11.3629843 L16.1653325,3.21617472 C16.1653325,3.01139355 16.3259081,2.84586519 16.5245621,2.84586519 C16.7232161,2.84586519 16.8837917,3.01139355 16.8837917,3.21617472 L16.8837917,11.3629843 C16.8837917,11.5677655 16.7232161,11.7332939 16.5245621,11.7332939" id="Fill-1200" fill="#30404D"></path>
                                    <path d="M17.9614805,11.7332939 C17.7628266,11.7332939 17.6022509,11.5677655 17.6022509,11.3629843 L17.6022509,3.21617472 C17.6022509,3.01139355 17.7628266,2.84586519 17.9614805,2.84586519 C18.1601345,2.84586519 18.3207101,3.01139355 18.3207101,3.21617472 L18.3207101,11.3629843 C18.3207101,11.5677655 18.1601345,11.7332939 17.9614805,11.7332939" id="Fill-1201" fill="#30404D"></path>
                                    <path d="M2.15537766,2.84586519 C1.95672369,2.84586519 1.79614805,3.01139355 1.79614805,3.21617472 L1.79614805,11.3629843 C1.79614805,11.5677655 1.95672369,11.7332939 2.15537766,11.7332939 L2.15537766,3.58648425 C2.15537766,3.38207339 2.31631253,3.21617472 2.51460728,3.21617472 C2.51460728,3.01139355 2.35403164,2.84586519 2.15537766,2.84586519" id="Fill-1203" fill="#182A37"></path>
                                    <path d="M3.59229611,2.84586519 C3.39364213,2.84586519 3.2330665,3.01139355 3.2330665,3.21617472 L3.2330665,11.3629843 C3.2330665,11.5677655 3.39364213,11.7332939 3.59229611,11.7332939 L3.59229611,3.58648425 C3.59229611,3.38207339 3.75323097,3.21617472 3.95152572,3.21617472 C3.95152572,3.01139355 3.79095008,2.84586519 3.59229611,2.84586519" id="Fill-1204" fill="#182A37"></path>
                                    <path d="M5.02921455,2.84586519 C4.83056058,2.84586519 4.66998494,3.01139355 4.66998494,3.21617472 L4.66998494,11.3629843 C4.66998494,11.5677655 4.83056058,11.7332939 5.02921455,11.7332939 L5.02921455,3.58648425 C5.02921455,3.38207339 5.19014942,3.21617472 5.38844416,3.21617472 C5.38844416,3.01139355 5.22786853,2.84586519 5.02921455,2.84586519" id="Fill-1205" fill="#182A37"></path>
                                    <path d="M6.46613299,2.84586519 C6.26747902,2.84586519 6.10690338,3.01139355 6.10690338,3.21617472 L6.10690338,11.3629843 C6.10690338,11.5677655 6.26747902,11.7332939 6.46613299,11.7332939 L6.46613299,3.58648425 C6.46613299,3.38207339 6.62706786,3.21617472 6.8253626,3.21617472 C6.8253626,3.01139355 6.66478697,2.84586519 6.46613299,2.84586519" id="Fill-1206" fill="#182A37"></path>
                                    <path d="M7.90305144,2.84586519 C7.70439746,2.84586519 7.54382183,3.01139355 7.54382183,3.21617472 L7.54382183,11.3629843 C7.54382183,11.5677655 7.70439746,11.7332939 7.90305144,11.7332939 L7.90305144,3.58648425 C7.90305144,3.38207339 8.0639863,3.21617472 8.26228105,3.21617472 C8.26228105,3.01139355 8.10170541,2.84586519 7.90305144,2.84586519" id="Fill-1207" fill="#182A37"></path>
                                    <path d="M9.33996988,2.84586519 C9.1413159,2.84586519 8.98074027,3.01139355 8.98074027,3.21617472 L8.98074027,11.3629843 C8.98074027,11.5677655 9.1413159,11.7332939 9.33996988,11.7332939 L9.33996988,3.58648425 C9.33996988,3.38207339 9.50090474,3.21617472 9.69919949,3.21617472 C9.69919949,3.01139355 9.53862385,2.84586519 9.33996988,2.84586519" id="Fill-1208" fill="#182A37"></path>
                                    <path d="M10.7768883,2.84586519 C10.5782343,2.84586519 10.4176587,3.01139355 10.4176587,3.21617472 L10.4176587,11.3629843 C10.4176587,11.5677655 10.5782343,11.7332939 10.7768883,11.7332939 L10.7768883,3.58648425 C10.7768883,3.38207339 10.9378232,3.21617472 11.1361179,3.21617472 C11.1361179,3.01139355 10.9755423,2.84586519 10.7768883,2.84586519" id="Fill-1209" fill="#182A37"></path>
                                    <path d="M12.2138068,2.84586519 C12.0151528,2.84586519 11.8545772,3.01139355 11.8545772,3.21617472 L11.8545772,11.3629843 C11.8545772,11.5677655 12.0151528,11.7332939 12.2138068,11.7332939 L12.2138068,3.58648425 C12.2138068,3.38207339 12.3747416,3.21617472 12.5730364,3.21617472 C12.5730364,3.01139355 12.4124607,2.84586519 12.2138068,2.84586519" id="Fill-1210" fill="#182A37"></path>
                                    <path d="M13.6507252,2.84586519 C13.4520712,2.84586519 13.2914956,3.01139355 13.2914956,3.21617472 L13.2914956,11.3629843 C13.2914956,11.5677655 13.4520712,11.7332939 13.6507252,11.7332939 L13.6507252,3.58648425 C13.6507252,3.38207339 13.8116601,3.21617472 14.0099548,3.21617472 C14.0099548,3.01139355 13.8493792,2.84586519 13.6507252,2.84586519" id="Fill-1211" fill="#182A37"></path>
                                    <path d="M15.0876437,2.84586519 C14.8889897,2.84586519 14.728414,3.01139355 14.728414,3.21617472 L14.728414,11.3629843 C14.728414,11.5677655 14.8889897,11.7332939 15.0876437,11.7332939 L15.0876437,3.58648425 C15.0876437,3.38207339 15.2485785,3.21617472 15.4468733,3.21617472 C15.4468733,3.01139355 15.2862976,2.84586519 15.0876437,2.84586519" id="Fill-1212" fill="#182A37"></path>
                                    <path d="M16.5245621,2.84586519 C16.3259081,2.84586519 16.1653325,3.01139355 16.1653325,3.21617472 L16.1653325,11.3629843 C16.1653325,11.5677655 16.3259081,11.7332939 16.5245621,11.7332939 L16.5245621,3.58648425 C16.5245621,3.38207339 16.685497,3.21617472 16.8837917,3.21617472 C16.8837917,3.01139355 16.7232161,2.84586519 16.5245621,2.84586519" id="Fill-1213" fill="#182A37"></path>
                                    <path d="M17.9614805,2.84586519 C17.7628266,2.84586519 17.6022509,3.01139355 17.6022509,3.21617472 L17.6022509,11.3629843 C17.6022509,11.5677655 17.7628266,11.7332939 17.9614805,11.7332939 L17.9614805,3.58648425 C17.9614805,3.38207339 18.1224154,3.21617472 18.3207101,3.21617472 C18.3207101,3.01139355 18.1601345,2.84586519 17.9614805,2.84586519" id="Fill-1214" fill="#182A37"></path>
                                    <path d="M19.398399,2.84586519 C19.199745,2.84586519 19.0391694,3.01139355 19.0391694,3.21617472 L19.0391694,11.3629843 C19.0391694,11.5677655 19.199745,11.7332939 19.398399,11.7332939 L19.398399,3.58648425 C19.398399,3.38207339 19.5593338,3.21617472 19.7576286,3.21617472 C19.7576286,3.01139355 19.597053,2.84586519 19.398399,2.84586519" id="Fill-1215" fill="#182A37"></path>
                                    <path d="M20.8353174,2.84586519 C20.6366634,2.84586519 20.4760878,3.01139355 20.4760878,3.21617472 L20.4760878,11.3629843 C20.4760878,11.5677655 20.6366634,11.7332939 20.8353174,11.7332939 L20.8353174,3.58648425 C20.8353174,3.38207339 20.9962523,3.21617472 21.194547,3.21617472 C21.194547,3.01139355 21.0339714,2.84586519 20.8353174,2.84586519" id="Fill-1216" fill="#182A37"></path>
                                </g>
                            </g>
                            <g id="Group" filter="url(#filter-4)">
                                <polygon id="Shape" fill="#854816" transform="translate(25.269765, 59.174779) scale(-1, 1) translate(-25.269765, -59.174779) " points="14.8232587 57.9699636 35.7162715 57.9699636 33.9750825 60.3795942 15.6937316 60.3795942"></polygon>
                                <path d="M15.9313079,59.7982526 L34.6081331,59.7982526 C35.6912759,59.7982526 36.5774755,60.6844522 36.5774755,61.7675949 L36.5774755,65.6567137 L13.9619899,65.6567137 L13.9619899,61.7675949 C13.9619899,60.6844522 14.8481895,59.7982526 15.9313322,59.7982526 L15.9313079,59.7982526 Z" id="Shape" fill="#30404D" transform="translate(25.269733, 62.727483) scale(-1, 1) translate(-25.269733, -62.727483) "></path>
                                <path d="M31.8705448,64.1812038 C31.1545912,64.1812038 30.5741408,64.7616542 30.5741408,65.4776078 C30.5741408,66.1935614 31.1545912,66.7740118 31.8705448,66.7740118 L38.3524431,66.7740118 C39.0683967,66.7740118 39.6488471,66.1935614 39.6488471,65.4776078 C39.6488471,64.7616542 39.0683967,64.1812038 38.3524431,64.1812038 L31.8705448,64.1812038 L31.8705448,64.1812038 Z" id="_571597376" fill="#546670" fill-rule="nonzero" transform="translate(35.111494, 65.477608) scale(-1, 1) translate(-35.111494, -65.477608) "></path>
                                <path d="M12.4249307,64.1812038 C11.7089771,64.1812038 11.1285268,64.7616542 11.1285268,65.4776078 C11.1285268,66.1935614 11.7089771,66.7740118 12.4249307,66.7740118 L17.1518661,66.7740118 C17.8678197,66.7740118 18.4482701,66.1935614 18.4482701,65.4776078 C18.4482701,64.7616542 17.8678197,64.1812038 17.1518661,64.1812038 L12.4249307,64.1812038 Z" id="_571597856" fill="#546670" fill-rule="nonzero" transform="translate(14.788398, 65.477608) scale(-1, 1) translate(-14.788398, -65.477608) "></path>
                                <path d="M51.0069847,5.7637482 C50.7021426,6.40979903 50.8469319,8.15999787 51.4929823,8.46483964 L68.1823888,16.3767979 C68.8284396,16.6816401 69.7311477,15.4257149 70.0359895,14.7796681 C70.3408317,14.1336173 70.06422,13.4735008 69.4181712,13.1686591 L52.7287647,5.25670082 C52.0827098,4.95185459 51.3118265,5.11769698 51.0069847,5.7637482 Z" id="_571596680" fill="#BDBDBD" fill-rule="nonzero" transform="translate(60.506955, 10.766330) scale(-1, 1) rotate(4.000000) translate(-60.506955, -10.766330) "></path>
                                <path d="M60.1499372,22.7804063 C60.795988,23.0852484 61.9598502,20.9462795 62.2646919,20.3002327 C62.5695341,19.6541819 62.2929225,18.8832986 61.6468737,18.5784568 L41.1309542,9.07573997 C40.6555788,10.2730485 39.564523,12.0191919 38.8779443,13.1392732 L60.1499372,22.7804063 Z" id="_571596968" fill="#B0B0B0" fill-rule="nonzero" transform="translate(50.633312, 15.942851) scale(-1, 1) rotate(4.000000) translate(-50.633312, -15.942851) "></path>
                                <polygon id="Shape" fill="#546670" transform="translate(27.186997, 38.336274) scale(-1, 1) translate(-27.186997, -38.336274) " points="29.4560527 40.1525517 28.7098288 40.802358 24.917942 36.5203617 25.6641659 35.8701908"></polygon>
                                <polygon id="Shape" fill="#F7CB64" transform="translate(23.233874, 42.839586) scale(-1, 1) translate(-23.233874, -42.839586) " points="28.2066746 47.0415512 26.7134166 48.341974 18.261074 38.6374985 19.754332 37.3371973"></polygon>
                                <path d="M28.1080288,33.247307 L30.9059633,33.247307 L30.9059633,35.5553224 C30.9059633,36.324723 30.2764696,36.9542167 29.5070204,36.9542167 L29.5069725,36.9542167 C28.7375719,36.9542167 28.1080296,36.324723 28.1080296,35.5553224 L28.1080288,33.247307 L28.1080288,33.247307 Z M29.5069718,35.3215339 C29.7913349,35.3215339 30.0218217,35.5520677 30.0218217,35.8363839 C30.0218217,36.120747 29.7913361,36.3512824 29.5069718,36.3512824 C29.2226086,36.3512824 28.9921218,36.1207486 28.9921218,35.8363839 C28.9921218,35.5520685 29.2226074,35.3215339 29.5069718,35.3215339 Z" id="Shape" fill="#CC9547" transform="translate(29.506996, 35.100762) scale(-1, 1) translate(-29.506996, -35.100762) "></path>
                                <path d="M28.3075246,37.9599823 L26.6125431,39.4362497 C26.4171301,39.6064945 26.1179328,39.5858717 25.9476908,39.3904108 L25.9476908,39.390363 C25.7774461,39.1949021 25.7980689,38.8957081 25.9934819,38.7255107 L27.6884634,37.2491947 C27.8839243,37.0789981 28.1831183,37.0996205 28.3533157,37.2950814 L28.3533636,37.2950814 C28.5236083,37.4905422 28.5029855,37.7897362 28.3075247,37.9599822 L28.3075246,37.9599823 Z" id="Shape" fill="#CC9547" transform="translate(27.150525, 38.342742) scale(-1, 1) translate(-27.150525, -38.342742) "></path>
                                <path d="M36.6268921,42.2165002 C37.2673442,42.535314 38.0450213,42.2745882 38.3638355,41.6341377 C37.0356137,37.6726733 41.0665515,39.6233074 41.9422748,37.8641636 C42.2610886,37.2237115 42.0003628,36.4460344 41.3599123,36.1272201 L9.77673588,20.0185476 C9.74970155,20.0037624 9.7219974,19.9898385 9.69357526,19.9768238 C8.66009975,19.5041789 7.89112454,20.5665554 7.97954924,20.6189977 L5.96546586,25.0227314 C5.95441287,25.0423014 5.94379052,25.0622542 5.93364666,25.0825897 C5.61416277,25.7233295 5.8746018,26.5017722 6.51534074,26.8212549 L36.6268923,42.216518 L36.6268921,42.2165002 Z" id="Shape" fill="#EFB252" fill-rule="nonzero" transform="translate(23.937720, 31.104239) scale(-1, 1) rotate(5.000000) translate(-23.937720, -31.104239) "></path>
                                <path d="M6.94152521,46.5432584 C6.9404247,46.5269421 6.93985052,46.5104344 6.93985052,46.4937832 L6.27499826,39.281258 C6.27499826,37.6206303 7.26019609,36.5590195 8.52133876,36.0956557 C8.98484426,35.9253632 9.4828535,35.8401454 9.9765523,35.8401454 C10.4702511,35.8401454 10.9682117,35.9253632 11.4317658,36.0956557 C12.6929045,36.5590195 13.6781063,37.6206303 13.6781063,39.281258 L13.0132541,46.4937832 C13.0132541,46.5104345 13.0126799,46.5269422 13.0115794,46.5432584 L6.94152208,46.5432584 L6.94152521,46.5432584 Z" id="Shape" fill="#CC9547" fill-rule="nonzero" transform="translate(9.976552, 41.191702) scale(-1, 1) translate(-9.976552, -41.191702) "></path>
                                <path d="M9.97644885,38.323736 C10.3471305,38.323736 10.6841745,38.4748893 10.9296385,38.7194903 L10.9305954,38.7204951 L10.9306433,38.720543 L10.9316959,38.7194903 C10.9433709,38.7311653 10.9543282,38.7433188 10.9646635,38.7558551 C11.1897423,38.9979679 11.3273542,39.3209921 11.3273542,39.6746382 C11.3273542,40.0476642 11.1761053,40.3853779 10.9316481,40.6298372 C10.6871905,40.8742948 10.3493828,41.0255432 9.97644915,41.0255432 C9.6034231,41.0255432 9.26570939,40.8742944 9.02125017,40.6298372 C8.77679258,40.3853796 8.6255441,40.047665 8.6255441,39.6746382 C8.6255441,39.3017077 8.77679298,38.9638984 9.02125017,38.7194392 C9.26570777,38.4749816 9.60342229,38.3237331 9.97644915,38.3237331 L9.97644885,38.323736 Z" id="_571596224" fill="#546E7A" fill-rule="nonzero" transform="translate(9.976449, 39.674638) scale(-1, 1) translate(-9.976449, -39.674638) "></path>
                                <path d="M9.976448,39.0429387 C10.1497551,39.0429387 10.3074153,39.1136108 10.4221567,39.2280164 L10.4226352,39.228447 L10.4226352,39.2284949 L10.4231137,39.2280164 C10.4285684,39.2334711 10.4337361,39.2391172 10.4385687,39.2450026 C10.5437875,39.3582119 10.6081434,39.5092691 10.6081434,39.6746323 C10.6081434,39.8490396 10.5374235,40.0069871 10.4231136,40.1212971 C10.3088036,40.2356071 10.1508083,40.306327 9.97644873,40.306327 C9.80204138,40.306327 9.6440939,40.2356071 9.5297839,40.1212971 C9.41547391,40.0069871 9.34475401,39.8490396 9.34475401,39.6746323 C9.34475401,39.5002727 9.41547391,39.3422774 9.5297839,39.2279674 C9.6440939,39.1136575 9.80204138,39.0429375 9.97644873,39.0429375 L9.976448,39.0429387 Z" id="_571596104" fill="#37474F" fill-rule="nonzero" transform="translate(9.976449, 39.674632) scale(-1, 1) translate(-9.976449, -39.674632) "></path>
                                <path d="M2.86737546,46.2110632 L23.6212309,46.2110632 C24.9020866,46.2110632 26.0657097,46.6420338 26.9084646,47.3362165 C27.751171,48.030545 28.274346,48.9889971 28.274346,50.0441017 L28.274346,50.5064121 L28.0926656,50.5064121 C27.7751437,50.5064121 27.5153752,50.72039 27.5153752,50.9819293 L27.5153752,55.336563 C27.5153752,55.5981023 27.7751441,55.8120802 28.0926656,55.8120802 L28.2594653,55.8120802 C28.1840084,56.4735862 27.8249053,57.0691514 27.2843144,57.5144794 C26.6735289,58.0176538 25.8297692,58.3300065 24.900842,58.3300065 L2.8673868,58.3300065 C2.18210048,58.3300065 1.62648778,57.8723346 1.62648778,57.3078215 L1.62648778,47.2332319 C1.62648778,46.6687148 2.18210454,46.211047 2.8673868,46.211047 L2.86737546,46.2110632 Z" id="Shape" fill="#EFB252" fill-rule="nonzero" transform="translate(14.950417, 52.270527) scale(-1, 1) translate(-14.950417, -52.270527) "></path>
                                <path d="M46.3609503,38.8023807 C47.1279607,39.5693911 47.6040978,40.6285632 47.6040978,41.7944833 L47.6040978,57.0337362 C47.6040978,57.0632586 47.6085477,57.092542 47.6162991,57.121586 L47.6162991,58.3301405 L34.6403084,58.3301405 C34.3057526,58.3301405 34.0008164,58.2033424 33.7708563,57.9952975 L27.3533309,52.877101 L27.3502207,52.8778187 C26.8727428,52.4970412 26.735846,51.8475963 26.9829364,51.317433 L30.1941379,43.0868104 C30.7036767,41.7806432 31.288239,40.4930464 32.1455377,39.4727736 C33.1167185,38.3170422 34.36843,37.559317 36.1014033,37.559317 L43.3688623,37.559317 C44.5348311,37.559317 45.5939545,38.0354581 46.3609649,38.8024199 L46.3609503,38.8023807 Z M29.8903875,50.9851946 L36.7603061,51.6789478 L45.0112655,45.5484067 L45.0112655,44.2562605 L45.0112655,41.794459 C45.0112655,41.3442048 44.8260444,40.93381 44.5277594,40.635523 C44.2294724,40.3372839 43.8191263,40.1520615 43.3688235,40.1520615 L36.1013645,40.1520615 C35.2481778,40.1520615 34.6187327,40.5408296 34.1204885,41.1337186 C33.5084593,41.8621134 33.0348097,42.925689 32.6045075,44.0286905 L29.8903551,50.9851824 L29.8903875,50.9851946 Z" id="Shape" fill="#CC9547" transform="translate(37.239250, 47.944729) scale(-1, 1) translate(-37.239250, -47.944729) "></path>
                                <path d="M18.787725,61.5884607 L31.7514406,61.5884607 C32.4673942,61.5884607 33.0478446,62.1689111 33.0478446,62.8848647 L33.0478446,68.0703509 C33.0478446,68.7863045 32.4673942,69.3667549 31.7514406,69.3667549 L18.787725,69.3667549 C18.0717713,69.3667549 17.491321,68.7863045 17.491321,68.0703509 L17.491321,62.8848647 C17.491321,62.1689111 18.0717713,61.5884607 18.787725,61.5884607 Z" id="Shape" fill="#ADBDC4" fill-rule="nonzero" transform="translate(25.269583, 65.477608) scale(-1, 1) translate(-25.269583, -65.477608) "></path>
                                <path d="M36.3372659,51.6789154 L44.5882253,45.5483743 L44.5882253,44.2562281 L44.5882253,41.7944266 C44.5882253,41.3441724 44.4030042,40.9337776 44.1047192,40.6354906 C43.8064322,40.3372514 43.3960861,40.1520291 42.9457833,40.1520291 L35.6783243,40.1520291 C34.8251376,40.1520291 34.1956925,40.5407972 33.6974483,41.1336862 C33.0854191,41.862081 32.6117695,42.9256566 32.1814673,44.0286581 L29.4673149,50.98515 L36.3372335,51.6789033 L36.3372659,51.6789154 Z" id="Shape" fill="#ABDCEC" transform="translate(37.027770, 45.915472) scale(-1, 1) translate(-37.027770, -45.915472) "></path>
                                <path d="M32.1846548,52.6175695 L30.5802491,52.6175695 C30.4406753,52.6175695 30.3265091,52.4926373 30.3265091,52.3398575 L30.3265091,52.0621455 L32.4383956,52.0621455 L32.4383956,52.3398575 C32.4383956,52.4926373 32.3242294,52.6175695 32.1846556,52.6175695 L32.1846548,52.6175695 Z" id="Shape" fill="#212121" transform="translate(31.382452, 52.339857) scale(-1, 1) translate(-31.382452, -52.339857) "></path>
                                <path d="M32.3050375,51.625035 L30.4603372,51.625035 C30.2998059,51.625035 30.1685576,51.7562833 30.1685576,51.9168146 L30.1685576,52.208642 L32.5968155,52.208642 L32.5968155,51.9168146 C32.5968155,51.7562833 32.4655672,51.625035 32.3050358,51.625035 L32.3050375,51.625035 Z" id="Shape" fill="#424242" transform="translate(31.382687, 51.916838) scale(-1, 1) translate(-31.382687, -51.916838) "></path>
                                <path d="M16.3279369,45.9602963 C16.3279369,46.6116582 16.9083873,47.1397109 17.6243409,47.1397109 C18.3402945,47.1397109 18.9207448,46.6116542 18.9207448,45.9602963 L18.9207448,42.4221945 C18.9207448,41.9856738 18.660019,41.6046094 18.2725429,41.400678 L18.2725429,40.2590648 L19.3282714,39.4767897 C19.6051221,39.2719986 19.6470374,38.9017476 19.4219585,38.6498748 C19.1968797,38.3980007 18.7898802,38.3598655 18.5130319,38.564657 L17.2564833,39.495788 C17.087148,39.6022027 16.9761397,39.7799595 16.9761397,39.9813075 L16.9761397,41.4006804 C16.5886635,41.6046102 16.3279377,41.9856762 16.3279377,42.4221969 L16.3279377,45.9602988 L16.3279369,45.9602963 Z" id="Shape" fill="#37474F" fill-rule="nonzero" transform="translate(17.947350, 42.786306) scale(-1, 1) translate(-17.947350, -42.786306) "></path>
                                <path d="M50.6958611,65.9159031 C50.6958611,69.5814196 47.7239552,72.5533255 44.0584387,72.5533255 C40.3929221,72.5533255 37.4210163,69.5814196 37.4210163,65.9159031 C37.4210163,62.2503865 40.3929221,59.2784807 44.0584387,59.2784807 C47.7239552,59.2784807 50.6958611,62.2503865 50.6958611,65.9159031" id="Fill-364" fill="#30404D" transform="translate(44.058439, 65.915903) scale(-1, 1) translate(-44.058439, -65.915903) "></path>
                                <path d="M42.7541084,59.2784807 L42.7541084,68.143588 C42.7541084,69.7125087 41.3129581,70.9122228 39.7772245,70.5886485 C38.9384202,70.4119271 38.1485669,70.1638534 37.4209395,69.8543836 C38.8678976,71.8107639 41.3552716,72.9507412 44.0724664,72.4255551 C46.6660393,71.9252594 48.7584867,69.8394494 49.2621011,67.2467063 C50.0876305,62.9979262 46.8543761,59.2784807 42.7541084,59.2784807" id="Fill-368" fill="#182A37" transform="translate(43.406274, 65.915907) scale(-1, 1) translate(-43.406274, -65.915907) "></path>
                                <path d="M46.5474721,65.9159031 C46.5474721,67.2898495 45.4323851,68.4049365 44.0584387,68.4049365 C42.6844922,68.4049365 41.5694053,67.2898495 41.5694053,65.9159031 C41.5694053,64.5419566 42.6844922,63.4268697 44.0584387,63.4268697 C45.4323851,63.4268697 46.5474721,64.5419566 46.5474721,65.9159031" id="Fill-370" fill="#E1E4E1" transform="translate(44.058439, 65.915903) scale(-1, 1) translate(-44.058439, -65.915903) "></path>
                                <path d="M13.2749216,65.9159031 C13.2749216,69.5814196 10.3030157,72.5533255 6.63749918,72.5533255 C2.97198265,72.5533255 7.67557322e-05,69.5814196 7.67557322e-05,65.9159031 C7.67557322e-05,62.2503865 2.97198265,59.2784807 6.63749918,59.2784807 C10.3030157,59.2784807 13.2749216,62.2503865 13.2749216,65.9159031" id="Fill-364" fill="#30404D" transform="translate(6.637499, 65.915903) scale(-1, 1) translate(-6.637499, -65.915903) "></path>
                                <path d="M5.33316892,59.2784807 L5.33316892,68.143588 C5.33316892,69.7125087 3.89201857,70.9122228 2.35628496,70.5886485 C1.5174807,70.4119271 0.727627433,70.1638534 9.32587341e-14,69.8543836 C1.44695809,71.8107639 3.93433214,72.9507412 6.65152695,72.4255551 C9.24509976,71.9252594 11.3375472,69.8394494 11.8411616,67.2467063 C12.666691,62.9979262 9.43343662,59.2784807 5.33316892,59.2784807" id="Fill-368" fill="#182A37" transform="translate(5.985334, 65.915907) scale(-1, 1) translate(-5.985334, -65.915907) "></path>
                                <path d="M9.12653259,65.9159031 C9.12653259,67.2898495 8.01144562,68.4049365 6.63749918,68.4049365 C5.26355274,68.4049365 4.14846577,67.2898495 4.14846577,65.9159031 C4.14846577,64.5419566 5.26355274,63.4268697 6.63749918,63.4268697 C8.01144562,63.4268697 9.12653259,64.5419566 9.12653259,65.9159031" id="Fill-370" fill="#E1E4E1" transform="translate(6.637499, 65.915903) scale(-1, 1) translate(-6.637499, -65.915903) "></path>
                                <path d="M73.8497107,2.90752635 C73.8497107,2.71470108 73.5594625,2.55834789 73.2015087,2.55834789 C72.843555,2.55834789 72.5533068,2.71470108 72.5533068,2.90752635 L72.5533068,18.9693554 C72.5533068,19.1621807 72.843555,19.3185339 73.2015087,19.3185339 C73.5594625,19.3185339 73.8497107,19.1621807 73.8497107,18.9693554 L73.8497107,2.90752635 Z" id="Shape" fill="#455A64" fill-rule="nonzero" transform="translate(73.201509, 10.938441) scale(-1, 1) translate(-73.201509, -10.938441) "></path>
                                <path d="M71.2570486,2.90752635 C71.2570486,2.71470108 70.9668003,2.55834789 70.6088466,2.55834789 C70.2508929,2.55834789 69.9606446,2.71470108 69.9606446,2.90752635 L69.9606446,18.9693554 C69.9606446,19.1621807 70.2508929,19.3185339 70.6088466,19.3185339 C70.9668003,19.3185339 71.2570486,19.1621807 71.2570486,18.9693554 L71.2570486,2.90752635 Z" id="Shape" fill="#455A64" fill-rule="nonzero" transform="translate(70.608847, 10.938441) scale(-1, 1) translate(-70.608847, -10.938441) "></path>
                                <path d="M71.9663745,18.7666843 C72.4550013,18.7666843 72.8976473,18.9648724 73.2179443,19.2851681 C73.5382417,19.6054655 73.7364281,20.0481111 73.7364281,20.5367379 C73.7364281,21.0254619 73.53824,21.4680107 73.2179443,21.7883077 C72.8976469,22.108605 72.4550013,22.3067915 71.9663745,22.3067915 C71.4776505,22.3067915 71.0351017,22.1086034 70.7148047,21.7883077 C70.3945074,21.4680103 70.1963209,21.0254619 70.1963209,20.5367379 C70.1963209,20.0481111 70.394509,19.6054651 70.7148047,19.2851681 C71.0351021,18.9648708 71.4776505,18.7666843 71.9663745,18.7666843 Z" id="_571595528" fill="#757575" fill-rule="nonzero" transform="translate(71.966375, 20.536738) scale(-1, 1) translate(-71.966375, -20.536738) "></path>
                                <path d="M72.9871914,0.211934012 L76.2244703,1.94371223 L76.2282981,1.9400279 C76.8596108,2.27774201 77.0976084,3.06331766 76.7598955,3.69463035 C76.741761,3.72855486 76.722191,3.7612833 76.7015685,3.79291112 L74.8713674,7.21421393 L74.8750517,7.21804181 C74.5373376,7.8493545 73.7517619,8.08735212 73.1204492,7.74963922 C73.0865247,7.73150469 73.0537963,7.7119347 73.0221685,7.69131223 L68.2431757,5.13481888 L68.2393479,5.13850321 C67.6080352,4.8007891 67.3700375,4.01521345 67.7077504,3.38390076 C67.725885,3.34997625 67.7454071,3.31724781 67.7660296,3.28561999 L68.7138109,1.51393784 L68.7101266,1.51010997 C68.8850124,1.18316182 69.1800451,0.961720487 69.5115395,0.871096012 L71.8604635,0.0717411503 L71.8596979,0.0694444255 C72.2524377,-0.0641960886 72.6648418,0.00135615499 72.9871968,0.211937132 L72.9871914,0.211934012 Z" id="Shape" fill="#EFB252" fill-rule="nonzero" transform="translate(72.233823, 3.951586) scale(-1, 1) translate(-72.233823, -3.951586) "></path>
                                <path d="M69.3123778,17.0579045 C68.5964242,17.0579045 68.0159739,17.6383549 68.0159739,18.3543085 C68.0159739,19.0702621 68.5964242,19.6507125 69.3123778,19.6507125 L74.4978641,19.6507125 C75.2138177,19.6507125 75.7942681,19.0702621 75.7942681,18.3543085 C75.7942681,17.6383549 75.2138177,17.0579045 74.4978641,17.0579045 L69.3123778,17.0579045 L69.3123778,17.0579045 Z" id="Shape" fill="#EFB252" fill-rule="nonzero" transform="translate(71.905121, 18.354309) scale(-1, 1) translate(-71.905121, -18.354309) "></path>
                                <path d="M71.8112767,21.0134583 C71.4547106,21.000922 71.1553695,21.2797824 71.1428352,21.6363486 C71.1302989,21.9929148 71.4091593,22.2922559 71.7657255,22.3047902 C72.1138227,22.3175657 72.426081,22.4671875 72.6513498,22.7009269 C72.8759503,22.9339007 73.0136577,23.2519983 73.0136577,23.6023913 C73.0136577,23.960441 72.8685334,24.2846149 72.6340287,24.5191204 C72.3995236,24.7536256 72.0752561,24.8987495 71.7172995,24.8987495 C71.5093506,24.8987495 71.3082416,24.8493221 71.1291479,24.7582188 C70.946319,24.6652017 70.7870318,24.5322308 70.6670279,24.3673931 C70.4573082,24.0793458 70.0537064,24.0158508 69.7656608,24.2255705 C69.4776135,24.4352902 69.4141184,24.838892 69.6238381,25.1269376 C69.8696832,25.4645079 70.1856248,25.7316463 70.5417624,25.9127981 C70.9015824,26.095866 71.3036035,26.1951514 71.7172999,26.1951514 C72.4331118,26.1951514 73.0813624,25.9049032 73.5506124,25.4357005 C74.0198138,24.9664991 74.3100633,24.3182971 74.3100633,23.6023881 C74.3100633,22.9065768 74.0338345,22.2721083 73.5831513,21.8046286 C73.1332334,21.3379146 72.5086659,21.0390077 71.8112788,21.0134571 L71.8112767,21.0134583 Z" id="_571595624" fill="#757575" fill-rule="nonzero" transform="translate(71.905132, 23.604102) scale(-1, 1) translate(-71.905132, -23.604102) "></path>
                            </g>
                            <g id="Web" filter="url(#filter-5)" transform="translate(56.803031, 46.108434)">
                                <path d="M2.01054217,27.1423193 C0.904743976,27.1423193 0,26.2375753 0,25.1317771 L0,2.01054217 C0,0.904743976 0.904743976,0 2.01054217,0 L30.1581325,0 C31.2639307,0 32.1686747,0.904743976 32.1686747,2.01054217 L32.1686747,25.1317771 C32.1686747,26.2375753 31.2639307,27.1423193 30.1581325,27.1423193 L2.01054217,27.1423193" id="Fill-1465" fill="#30404D"></path>
                                <path d="M2.51317771,25.6344127 C1.96027861,25.6344127 1.50790663,25.1820407 1.50790663,24.6291416 L1.50790663,5.52899096 C1.50790663,4.97609187 1.96027861,4.52371988 2.51317771,4.52371988 L29.655497,4.52371988 C30.2083961,4.52371988 30.6607681,4.97609187 30.6607681,5.52899096 L30.6607681,24.6291416 C30.6607681,25.1820407 30.2083961,25.6344127 29.655497,25.6344127 L2.51317771,25.6344127" id="Fill-1466" fill="#E1E4E1"></path>
                                <path d="M29.1528614,2.26185994 C29.1528614,1.84517508 29.4906325,1.50790663 29.9068148,1.50790663 C30.3234996,1.50790663 30.6607681,1.84517508 30.6607681,2.26185994 C30.6607681,2.67804217 30.3234996,3.01581325 29.9068148,3.01581325 C29.4906325,3.01581325 29.1528614,2.67804217 29.1528614,2.26185994" id="Fill-1467" fill="#DF5142"></path>
                                <path d="M26.1370482,2.26185994 C26.1370482,1.84517508 26.4748193,1.50790663 26.8910015,1.50790663 C27.3076864,1.50790663 27.6449548,1.84517508 27.6449548,2.26185994 C27.6449548,2.67804217 27.3076864,3.01581325 26.8910015,3.01581325 C26.4748193,3.01581325 26.1370482,2.67804217 26.1370482,2.26185994" id="Fill-1468" fill="#697D85"></path>
                                <path d="M23.1212349,2.26185994 C23.1212349,1.84517508 23.459006,1.50790663 23.8751883,1.50790663 C24.2918731,1.50790663 24.6291416,1.84517508 24.6291416,2.26185994 C24.6291416,2.67804217 24.2918731,3.01581325 23.8751883,3.01581325 C23.459006,3.01581325 23.1212349,2.67804217 23.1212349,2.26185994" id="Fill-1469" fill="#697D85"></path>
                                <path d="M19.3514684,3.01581325 L2.26185994,3.01581325 C1.84517508,3.01581325 1.50790663,2.67804217 1.50790663,2.26185994 C1.50790663,1.84567771 1.84517508,1.50790663 2.26185994,1.50790663 L19.3514684,1.50790663 C19.7681532,1.50790663 20.1054217,1.84567771 20.1054217,2.26185994 C20.1054217,2.67804217 19.7681532,3.01581325 19.3514684,3.01581325" id="Fill-1470" fill="#697D85"></path>
                                <path d="M13.0685241,14.0737952 C13.0685241,14.3502447 12.8423381,14.5764307 12.5658886,14.5764307 L4.52371988,14.5764307 C4.24727033,14.5764307 4.02108434,14.3502447 4.02108434,14.0737952 L4.02108434,7.53953313 C4.02108434,7.26308358 4.24727033,7.03689759 4.52371988,7.03689759 L12.5658886,7.03689759 C12.8423381,7.03689759 13.0685241,7.26308358 13.0685241,7.53953313 L13.0685241,14.0737952" id="Fill-1471" fill="#C5CCCD"></path>
                                <path d="M27.6449548,8.04216867 L15.0790663,8.04216867 C14.8011088,8.04216867 14.5764307,7.81749059 14.5764307,7.53953313 C14.5764307,7.26157568 14.8011088,7.03689759 15.0790663,7.03689759 L27.6449548,7.03689759 C27.9229123,7.03689759 28.1475904,7.26157568 28.1475904,7.53953313 C28.1475904,7.81749059 27.9229123,8.04216867 27.6449548,8.04216867" id="Fill-1472" fill="#C5CCCD"></path>
                                <path d="M27.6449548,11.0579819 L15.0790663,11.0579819 C14.8011088,11.0579819 14.5764307,10.8333038 14.5764307,10.5553464 C14.5764307,10.2773889 14.8011088,10.0527108 15.0790663,10.0527108 L27.6449548,10.0527108 C27.9229123,10.0527108 28.1475904,10.2773889 28.1475904,10.5553464 C28.1475904,10.8333038 27.9229123,11.0579819 27.6449548,11.0579819" id="Fill-1473" fill="#C5CCCD"></path>
                                <path d="M27.6449548,14.0737952 L15.0790663,14.0737952 C14.8011088,14.0737952 14.5764307,13.8491171 14.5764307,13.5711596 C14.5764307,13.2932022 14.8011088,13.0685241 15.0790663,13.0685241 L27.6449548,13.0685241 C27.9229123,13.0685241 28.1475904,13.2932022 28.1475904,13.5711596 C28.1475904,13.8491171 27.9229123,14.0737952 27.6449548,14.0737952" id="Fill-1474" fill="#C5CCCD"></path>
                                <path d="M27.6449548,17.0896084 L4.52371988,17.0896084 C4.24576242,17.0896084 4.02108434,16.8649303 4.02108434,16.5869729 C4.02108434,16.3090154 4.24576242,16.0843373 4.52371988,16.0843373 L27.6449548,16.0843373 C27.9229123,16.0843373 28.1475904,16.3090154 28.1475904,16.5869729 C28.1475904,16.8649303 27.9229123,17.0896084 27.6449548,17.0896084" id="Fill-1475" fill="#C5CCCD"></path>
                                <path d="M27.6449548,20.1054217 L4.52371988,20.1054217 C4.24576242,20.1054217 4.02108434,19.8807436 4.02108434,19.6027861 C4.02108434,19.3248287 4.24576242,19.1001506 4.52371988,19.1001506 L27.6449548,19.1001506 C27.9229123,19.1001506 28.1475904,19.3248287 28.1475904,19.6027861 C28.1475904,19.8807436 27.9229123,20.1054217 27.6449548,20.1054217" id="Fill-1476" fill="#C5CCCD"></path>
                                <path d="M27.6449548,23.1212349 L4.52371988,23.1212349 C4.24576242,23.1212349 4.02108434,22.8965569 4.02108434,22.6185994 C4.02108434,22.3406419 4.24576242,22.1159639 4.52371988,22.1159639 L27.6449548,22.1159639 C27.9229123,22.1159639 28.1475904,22.3406419 28.1475904,22.6185994 C28.1475904,22.8965569 27.9229123,23.1212349 27.6449548,23.1212349" id="Fill-1477" fill="#C5CCCD"></path>
                            </g>
                        </g>
                    </g>
                </g>
                <g id="Azure-Border" stroke="#0078D4" stroke-width="4">
                    <rect x="2" y="2" width="96" height="96" rx="48"></rect>
                </g>
            </g>
        </g>
    </g>
</svg>