<svg width="103" height="103" viewBox="0 0 103 103" fill="none" xmlns="http://www.w3.org/2000/svg">
<path d="M51.6913 98.726C25.8413 98.726 4.88135 77.776 4.88135 51.916C4.88135 26.056 25.8413 5.10596 51.6913 5.10596C77.5413 5.10596 98.5013 26.066 98.5013 51.916C98.5013 77.766 77.5413 98.726 51.6913 98.726Z" fill="url(#paint0_linear_1019_13609)"/>
<path fill-rule="evenodd" clip-rule="evenodd" d="M97.5913 51.9161C97.5913 77.2661 77.0413 97.8161 51.6913 97.8161C26.3413 97.8161 5.79127 77.2661 5.79127 51.9161C5.79127 26.5661 26.3413 6.01613 51.6913 6.01613C77.0413 6.01613 97.5913 26.5661 97.5913 51.9161ZM51.6913 2.27612C79.1113 2.27612 101.331 24.4961 101.331 51.9161C101.331 79.3361 79.1013 101.556 51.6913 101.556C24.2713 101.556 2.05127 79.3261 2.05127 51.9161C2.05127 24.4961 24.2713 2.27612 51.6913 2.27612Z" fill="#F2F1F0"/>
<path fill-rule="evenodd" clip-rule="evenodd" d="M94.7813 51.9159C94.7813 75.7159 75.4913 95.0059 51.6913 95.0059C27.8913 95.0059 8.60133 75.7159 8.60133 51.9159C8.60133 28.1159 27.8913 8.82594 51.6913 8.82594C75.4913 8.82594 94.7813 28.1159 94.7813 51.9159ZM51.6913 5.08594C77.5513 5.08594 98.5213 26.0559 98.5213 51.9159C98.5213 77.7759 77.5513 98.746 51.6913 98.746C25.8313 98.746 4.86133 77.7759 4.86133 51.9159C4.86133 26.0559 25.8213 5.08594 51.6913 5.08594Z" fill="url(#paint1_linear_1019_13609)"/>
<path opacity="0.2" d="M79.6216 25.5105H24.9316V76.0705C24.9316 77.6105 26.1816 78.8605 27.7216 78.8605H33.6816V86.0405C33.6816 86.5805 34.3316 86.8505 34.7216 86.4705L42.3916 78.8605H76.8316C78.3716 78.8605 79.6216 77.6105 79.6216 76.0705V25.5105Z" fill="#1F1D21"/>
<g filter="url(#filter0_d_1019_13609)">
<path d="M79.6216 26.2207V25.3707C79.6216 24.3207 78.7716 23.4707 77.7216 23.4707H26.8316C25.7816 23.4707 24.9316 24.3207 24.9316 25.3707V26.3107V27.1707V75.8707C24.9316 76.9207 25.7816 77.7707 26.8316 77.7707H33.6816V84.9507C33.6816 85.4907 34.3316 85.7607 34.7216 85.3807L42.3916 77.7707H77.7316C78.7816 77.7707 79.6316 76.9207 79.6316 75.8707V26.3107C79.6316 26.2807 79.6216 26.2507 79.6216 26.2207Z" fill="url(#paint2_linear_1019_13609)"/>
</g>
<path opacity="0.2" d="M31.9402 74.0744C30.671 74.0744 29.6369 73.0403 29.6369 71.7711V29.8735H74.9346V71.7555C74.9346 73.0246 73.9004 74.0588 72.6313 74.0588L31.9402 74.0744Z" fill="#1F1D21"/>
<g filter="url(#filter1_d_1019_13609)">
<path d="M29.6369 30.4917V29.7866C29.6369 28.9091 30.342 28.2197 31.2037 28.2197H73.3677C74.2295 28.2197 74.9346 28.9248 74.9346 29.7866V30.57V31.2751V71.6215C74.9346 72.499 74.2295 73.1884 73.3677 73.1884H31.2194C30.342 73.1884 29.6526 72.4833 29.6526 71.6215V30.57C29.6212 30.5387 29.6369 30.523 29.6369 30.4917Z" fill="url(#paint3_linear_1019_13609)"/>
</g>
<g filter="url(#filter2_d_1019_13609)">
<g filter="url(#filter3_d_1019_13609)">
<rect width="8.17994" height="2.09043" transform="matrix(-1 0 0 1 53.2686 32.708)" fill="#4CE1FD"/>
</g>
<g filter="url(#filter4_d_1019_13609)">
<rect width="8.17994" height="2.09043" transform="matrix(-1 0 0 1 53.2686 44.2512)" fill="#46D9FA"/>
</g>
<g filter="url(#filter5_d_1019_13609)">
<rect width="8.17994" height="2.09043" transform="matrix(-1 0 0 1 53.2686 48.5232)" fill="#31BBEE"/>
</g>
<g filter="url(#filter6_d_1019_13609)">
<rect width="8.17994" height="2.09043" transform="matrix(-1 0 0 1 53.2686 61.7007)" fill="#189AE2"/>
</g>
<g filter="url(#filter7_d_1019_13609)">
<path d="M53.2686 65.9729H45.0886V68.0633H53.2686V65.9729Z" fill="#0178D4"/>
</g>
<g filter="url(#filter8_d_1019_13609)">
<rect width="8.17994" height="2.09043" transform="matrix(-1 0 0 1 53.2686 53.3396)" fill="#26ADE9"/>
</g>
</g>
<path opacity="0.15" d="M41.7108 33.324H35.088C34.551 33.324 34.1157 33.7593 34.1157 34.2962V40.919C34.1157 41.456 34.551 41.8913 35.088 41.8913H41.7108C42.2477 41.8913 42.683 41.456 42.683 40.919V34.2962C42.683 33.7593 42.2477 33.324 41.7108 33.324Z" fill="#1F1D20"/>
<path opacity="0.15" d="M41.7108 46.8359H35.088C34.551 46.8359 34.1157 47.2712 34.1157 47.8082V54.431C34.1157 54.9679 34.551 55.4032 35.088 55.4032H41.7108C42.2477 55.4032 42.683 54.9679 42.683 54.431V47.8082C42.683 47.2712 42.2477 46.8359 41.7108 46.8359Z" fill="#1F1D20"/>
<path opacity="0.15" d="M41.7108 60.6296H35.088C34.551 60.6296 34.1157 61.0649 34.1157 61.6019V68.2247C34.1157 68.7616 34.551 69.1969 35.088 69.1969H41.7108C42.2477 69.1969 42.683 68.7616 42.683 68.2247V61.6019C42.683 61.0649 42.2477 60.6296 41.7108 60.6296Z" fill="#1F1D20"/>
<g filter="url(#filter9_d_1019_13609)">
<path d="M41.7108 32.6594H35.088C34.551 32.6594 34.1157 33.0947 34.1157 33.6317V40.2545C34.1157 40.7914 34.551 41.2267 35.088 41.2267H41.7108C42.2477 41.2267 42.683 40.7914 42.683 40.2545V33.6317C42.683 33.0947 42.2477 32.6594 41.7108 32.6594Z" fill="white"/>
</g>
<g filter="url(#filter10_d_1019_13609)">
<path d="M41.7108 46.1792H35.088C34.551 46.1792 34.1157 46.6145 34.1157 47.1514V53.7742C34.1157 54.3112 34.551 54.7465 35.088 54.7465H41.7108C42.2477 54.7465 42.683 54.3112 42.683 53.7742V47.1514C42.683 46.6145 42.2477 46.1792 41.7108 46.1792Z" fill="white"/>
</g>
<g filter="url(#filter11_d_1019_13609)">
<path d="M41.7108 59.9648H35.088C34.551 59.9648 34.1157 60.4001 34.1157 60.9371V67.5599C34.1157 68.0968 34.551 68.5321 35.088 68.5321H41.7108C42.2477 68.5321 42.683 68.0968 42.683 67.5599V60.9371C42.683 60.4001 42.2477 59.9648 41.7108 59.9648Z" fill="white"/>
</g>
<path opacity="0.15" d="M38.0049 37.7623L36.8 36.5574C36.7223 36.4744 36.6284 36.4082 36.524 36.3629C36.4197 36.3177 36.3072 36.2944 36.1934 36.2944C36.0797 36.2944 35.9672 36.3177 35.8629 36.3629C35.7585 36.4082 35.6645 36.4744 35.5868 36.5574C35.5037 36.6351 35.4375 36.7291 35.3923 36.8334C35.3471 36.9377 35.3237 37.0502 35.3237 37.164C35.3237 37.2777 35.3471 37.3902 35.3923 37.4946C35.4375 37.5989 35.5037 37.6929 35.5868 37.7706L37.4564 39.6403C37.5293 39.7154 37.6165 39.7751 37.7129 39.8159C37.8092 39.8567 37.9127 39.8778 38.0174 39.8778C38.122 39.8778 38.2256 39.8567 38.322 39.8159C38.4183 39.7751 38.5055 39.7154 38.5783 39.6403L42.65 35.5685V33.1255L38.0049 37.7623Z" fill="#1F1D20"/>
<path opacity="0.15" d="M38.0045 51.4068L36.7996 50.1936C36.7219 50.1106 36.628 50.0444 36.5236 49.9991C36.4193 49.9539 36.3068 49.9306 36.193 49.9306C36.0793 49.9306 35.9668 49.9539 35.8624 49.9991C35.7581 50.0444 35.6641 50.1106 35.5863 50.1936C35.502 50.2714 35.4347 50.3659 35.3886 50.471C35.3426 50.5761 35.3188 50.6896 35.3188 50.8044C35.3188 50.9192 35.3426 51.0327 35.3886 51.1378C35.4347 51.2429 35.502 51.3373 35.5863 51.4152L37.456 53.2848C37.6092 53.425 37.8093 53.5027 38.017 53.5027C38.2246 53.5027 38.4247 53.425 38.5779 53.2848L42.6496 49.2047V46.77L38.0045 51.4068Z" fill="#1F1D20"/>
<path opacity="0.15" d="M38.0049 65.0831L36.7834 63.8533C36.7057 63.7702 36.6118 63.704 36.5074 63.6588C36.4031 63.6136 36.2906 63.5902 36.1768 63.5902C36.0631 63.5902 35.9506 63.6136 35.8463 63.6588C35.7419 63.704 35.648 63.7702 35.5703 63.8533C35.4872 63.931 35.421 64.0249 35.3758 64.1293C35.3306 64.2336 35.3071 64.3462 35.3071 64.4599C35.3071 64.5736 35.3306 64.6861 35.3758 64.7905C35.421 64.8948 35.4872 64.9888 35.5703 65.0665L37.4399 66.9362C37.5931 67.0763 37.7932 67.154 38.0008 67.154C38.2084 67.154 38.4085 67.0763 38.5617 66.9362L42.65 62.8644V60.438L38.0049 65.0831Z" fill="#1F1D20"/>
<path d="M44.6942 31.762C44.6165 31.679 44.5225 31.6128 44.4182 31.5676C44.3139 31.5223 44.2014 31.499 44.0876 31.499C43.9739 31.499 43.8614 31.5223 43.757 31.5676C43.6527 31.6128 43.5587 31.679 43.4809 31.762L38.0132 37.2298L36.8083 36.0166C36.7306 35.9336 36.6367 35.8674 36.5323 35.8221C36.428 35.7769 36.3155 35.7536 36.2017 35.7536C36.088 35.7536 35.9754 35.7769 35.8711 35.8221C35.7667 35.8674 35.6728 35.9336 35.5951 36.0166C35.512 36.0943 35.4458 36.1883 35.4006 36.2926C35.3554 36.3969 35.332 36.5095 35.332 36.6232C35.332 36.737 35.3554 36.8495 35.4006 36.9538C35.4458 37.0582 35.512 37.1521 35.5951 37.2298L37.4647 39.0995C37.5376 39.1746 37.6248 39.2344 37.7212 39.2752C37.8175 39.316 37.921 39.337 38.0257 39.337C38.1303 39.337 38.2338 39.316 38.3302 39.2752C38.4265 39.2344 38.5138 39.1746 38.5866 39.0995L44.7025 32.9753C44.785 32.897 44.8505 32.8026 44.8951 32.698C44.9396 32.5933 44.9622 32.4806 44.9614 32.3669C44.9606 32.2531 44.9365 32.1408 44.8905 32.0367C44.8445 31.9327 44.7778 31.8392 44.6942 31.762Z" fill="#35AFE4"/>
<path d="M44.6942 45.3573C44.6165 45.2742 44.5225 45.2081 44.4182 45.1628C44.3139 45.1176 44.2014 45.0942 44.0876 45.0942C43.9739 45.0942 43.8614 45.1176 43.757 45.1628C43.6527 45.2081 43.5587 45.2742 43.4809 45.3573L38.0132 50.8334L36.8083 49.6201C36.7306 49.5371 36.6367 49.4709 36.5323 49.4257C36.428 49.3804 36.3155 49.3571 36.2017 49.3571C36.088 49.3571 35.9754 49.3804 35.8711 49.4257C35.7667 49.4709 35.6728 49.5371 35.5951 49.6201C35.512 49.6979 35.4458 49.7918 35.4006 49.8962C35.3554 50.0005 35.332 50.113 35.332 50.2268C35.332 50.3405 35.3554 50.453 35.4006 50.5574C35.4458 50.6617 35.512 50.7556 35.5951 50.8334L37.4647 52.7114C37.6179 52.8515 37.8181 52.9292 38.0257 52.9292C38.2333 52.9292 38.4334 52.8515 38.5866 52.7114L44.7025 46.5788C44.7864 46.5004 44.853 46.4055 44.8983 46.3001C44.9436 46.1947 44.9666 46.081 44.9659 45.9662C44.9651 45.8515 44.9406 45.7381 44.8938 45.6333C44.8471 45.5285 44.7791 45.4345 44.6942 45.3573Z" fill="#2E76BC"/>
<path d="M44.6859 59.0763C44.6082 58.9932 44.5143 58.927 44.4099 58.8818C44.3056 58.8366 44.1931 58.8132 44.0794 58.8132C43.9656 58.8132 43.8531 58.8366 43.7488 58.8818C43.6444 58.927 43.5505 58.9932 43.4728 59.0763L38.0049 64.5524L36.7834 63.3225C36.7057 63.2395 36.6118 63.1733 36.5074 63.1281C36.4031 63.0828 36.2906 63.0595 36.1768 63.0595C36.0631 63.0595 35.9506 63.0828 35.8463 63.1281C35.7419 63.1733 35.648 63.2395 35.5703 63.3225C35.4872 63.4003 35.421 63.4942 35.3758 63.5985C35.3306 63.7029 35.3071 63.8154 35.3071 63.9291C35.3071 64.0429 35.3306 64.1554 35.3758 64.2597C35.421 64.3641 35.4872 64.458 35.5703 64.5357L37.4399 66.4054C37.5931 66.5455 37.7932 66.6233 38.0008 66.6233C38.2084 66.6233 38.4085 66.5455 38.5617 66.4054L44.6859 60.2978C44.7703 60.22 44.8376 60.1255 44.8836 60.0204C44.9297 59.9153 44.9534 59.8018 44.9534 59.6871C44.9534 59.5723 44.9297 59.4588 44.8836 59.3536C44.8376 59.2485 44.7703 59.1541 44.6859 59.0763Z" fill="url(#paint4_linear_1019_13609)"/>
<path d="M63.945 32.7549H55.646V34.5083H63.945V32.7549Z" fill="#E9FCFE"/>
<path d="M63.945 35.0366H55.646V36.7815H63.945V35.0366Z" fill="#E9FCFE"/>
<path d="M63.945 37.3174H55.646V39.0708H63.945V37.3174Z" fill="#ACF3FD"/>
<path d="M63.945 46.6382H55.646V48.3916H63.945V46.6382Z" fill="#ACF3FD"/>
<path d="M63.945 48.9102H55.646V50.6636H63.945V48.9102Z" fill="#50E6FF"/>
<path d="M63.945 51.2014H55.646V52.9548H63.945V51.2014Z" fill="#45CAF2"/>
<path d="M63.945 53.3713H55.646V55.1248H63.945V53.3713Z" fill="#32B0E7"/>
<path d="M63.945 63.9519H55.646V65.7053H63.945V63.9519Z" fill="#2195DC"/>
<path d="M63.945 66.2249H55.646V67.9783H63.945V66.2249Z" fill="#0078D4"/>
<path d="M70.5504 33.0754C70.5504 33.1381 70.569 33.1994 70.6038 33.2515C70.6386 33.3036 70.6881 33.3441 70.746 33.3681C70.8039 33.3921 70.8676 33.3984 70.929 33.3862C70.9905 33.3739 71.0469 33.3437 71.0912 33.2994C71.1355 33.2551 71.1657 33.1987 71.1779 33.1373C71.1901 33.0758 71.1839 33.0121 71.1599 32.9542C71.1359 32.8963 71.0953 32.8468 71.0432 32.812C70.9911 32.7772 70.9299 32.7586 70.8672 32.7586C70.8254 32.7577 70.7838 32.7653 70.7449 32.7809C70.7061 32.7965 70.6708 32.8198 70.6412 32.8494C70.6116 32.879 70.5883 32.9143 70.5727 32.9532C70.5571 32.992 70.5495 33.0336 70.5504 33.0754Z" fill="url(#paint5_linear_1019_13609)"/>
<path d="M71.1969 35.2401C71.1982 35.1759 71.1803 35.1127 71.1456 35.0587C71.1109 35.0047 71.0608 34.9622 71.0019 34.9367C70.9429 34.9112 70.8778 34.9039 70.8146 34.9156C70.7515 34.9273 70.6932 34.9576 70.6473 35.0025C70.6014 35.0474 70.57 35.1051 70.557 35.168C70.544 35.2308 70.55 35.2962 70.5742 35.3556C70.5985 35.4151 70.6399 35.466 70.6932 35.5018C70.7465 35.5377 70.8093 35.5568 70.8735 35.5568C70.9156 35.5577 70.9575 35.5501 70.9967 35.5346C71.0359 35.5191 71.0717 35.4959 71.1018 35.4664C71.1319 35.4369 71.1558 35.4017 71.1722 35.3628C71.1885 35.324 71.1969 35.2822 71.1969 35.2401Z" fill="url(#paint6_linear_1019_13609)"/>
<path d="M70.5504 37.3791C70.5517 37.4414 70.5714 37.502 70.607 37.5533C70.6426 37.6045 70.6925 37.6441 70.7505 37.667C70.8085 37.69 70.872 37.6953 70.933 37.6824C70.994 37.6694 71.0498 37.6387 71.0935 37.5941C71.1371 37.5496 71.1666 37.4932 71.1783 37.4319C71.19 37.3706 71.1834 37.3073 71.1592 37.2498C71.1351 37.1922 71.0944 37.1432 71.0425 37.1086C70.9905 37.0741 70.9296 37.0557 70.8672 37.0557C70.8251 37.0557 70.7833 37.0641 70.7445 37.0804C70.7056 37.0967 70.6703 37.1207 70.6408 37.1508C70.6113 37.1809 70.5881 37.2166 70.5726 37.2558C70.5571 37.295 70.5495 37.3369 70.5504 37.3791Z" fill="url(#paint7_linear_1019_13609)"/>
<path d="M70.5504 39.5595C70.5517 39.6219 70.5714 39.6825 70.607 39.7337C70.6426 39.7849 70.6925 39.8245 70.7505 39.8474C70.8085 39.8704 70.872 39.8758 70.933 39.8628C70.994 39.8498 71.0498 39.8192 71.0935 39.7746C71.1371 39.7301 71.1666 39.6736 71.1783 39.6123C71.19 39.551 71.1834 39.4877 71.1592 39.4302C71.1351 39.3727 71.0944 39.3236 71.0425 39.2891C70.9905 39.2545 70.9296 39.2361 70.8672 39.2361C70.8251 39.2361 70.7833 39.2445 70.7445 39.2608C70.7056 39.2772 70.6703 39.3011 70.6408 39.3312C70.6113 39.3613 70.5881 39.397 70.5726 39.4362C70.5571 39.4754 70.5495 39.5173 70.5504 39.5595Z" fill="url(#paint8_linear_1019_13609)"/>
<path d="M70.5503 41.7176C70.5503 41.8051 70.5851 41.889 70.647 41.9509C70.7088 42.0128 70.7927 42.0476 70.8802 42.0476C70.9677 42.0476 71.0517 42.0128 71.1136 41.9509C71.1755 41.889 71.2102 41.8051 71.2102 41.7176C71.2102 41.6301 71.1755 41.5462 71.1136 41.4843C71.0517 41.4224 70.9677 41.3877 70.8802 41.3877C70.7927 41.3877 70.7088 41.4224 70.647 41.4843C70.5851 41.5462 70.5503 41.6301 70.5503 41.7176Z" fill="url(#paint9_linear_1019_13609)"/>
<path d="M70.5503 43.8708C70.5503 43.9335 70.5689 43.9947 70.6037 44.0468C70.6385 44.0989 70.688 44.1395 70.7459 44.1635C70.8038 44.1874 70.8675 44.1937 70.929 44.1815C70.9904 44.1693 71.0468 44.1391 71.0912 44.0948C71.1355 44.0505 71.1656 43.994 71.1778 43.9326C71.1901 43.8711 71.1838 43.8074 71.1598 43.7495C71.1358 43.6916 71.0952 43.6422 71.0431 43.6074C70.991 43.5726 70.9298 43.554 70.8672 43.554C70.7831 43.554 70.7025 43.5874 70.6431 43.6468C70.5837 43.7062 70.5503 43.7868 70.5503 43.8708Z" fill="url(#paint10_linear_1019_13609)"/>
<path d="M68.3912 33.0753C68.3899 33.1396 68.4077 33.2027 68.4424 33.2567C68.4771 33.3108 68.5272 33.3532 68.5861 33.3787C68.6451 33.4042 68.7102 33.4116 68.7734 33.3999C68.8365 33.3882 68.8948 33.3579 68.9407 33.3129C68.9866 33.268 69.0181 33.2104 69.0311 33.1475C69.0441 33.0846 69.038 33.0193 69.0138 32.9598C68.9895 32.9003 68.9481 32.8494 68.8948 32.8136C68.8415 32.7778 68.7787 32.7586 68.7145 32.7586C68.6724 32.7577 68.6305 32.7653 68.5913 32.7808C68.5521 32.7963 68.5163 32.8195 68.4862 32.849C68.4561 32.8785 68.4322 32.9137 68.4159 32.9526C68.3996 32.9914 68.3912 33.0332 68.3912 33.0753Z" fill="url(#paint11_linear_1019_13609)"/>
<path d="M69.0377 35.2401C69.039 35.1759 69.0211 35.1127 68.9864 35.0587C68.9517 35.0047 68.9017 34.9622 68.8427 34.9367C68.7838 34.9112 68.7186 34.9039 68.6554 34.9156C68.5923 34.9273 68.5341 34.9576 68.4882 35.0025C68.4423 35.0474 68.4109 35.1051 68.3978 35.168C68.3848 35.2308 68.3908 35.2962 68.4151 35.3556C68.4393 35.4151 68.4807 35.466 68.534 35.5018C68.5873 35.5377 68.6502 35.5568 68.7144 35.5568C68.799 35.5568 68.8802 35.5237 68.9407 35.4645C69.0011 35.4052 69.036 35.3247 69.0377 35.2401Z" fill="url(#paint12_linear_1019_13609)"/>
<path d="M68.3911 37.379C68.3911 37.4429 68.41 37.5055 68.4456 37.5586C68.4811 37.6118 68.5316 37.6532 68.5907 37.6777C68.6498 37.7022 68.7148 37.7086 68.7775 37.6961C68.8402 37.6836 68.8978 37.6529 68.943 37.6076C68.9883 37.5624 69.0191 37.5048 69.0316 37.4421C69.044 37.3793 69.0376 37.3144 69.0131 37.2553C68.9887 37.1962 68.9472 37.1457 68.8941 37.1102C68.8409 37.0746 68.7784 37.0557 68.7144 37.0557C68.6287 37.0557 68.5464 37.0897 68.4858 37.1504C68.4251 37.211 68.3911 37.2932 68.3911 37.379Z" fill="url(#paint13_linear_1019_13609)"/>
<path d="M68.3911 39.5594C68.3911 39.6234 68.41 39.6859 68.4456 39.739C68.4811 39.7922 68.5316 39.8337 68.5907 39.8581C68.6498 39.8826 68.7148 39.889 68.7775 39.8765C68.8402 39.8641 68.8978 39.8333 68.943 39.7881C68.9883 39.7428 69.0191 39.6852 69.0316 39.6225C69.044 39.5598 69.0376 39.4948 69.0131 39.4357C68.9887 39.3766 68.9472 39.3261 68.8941 39.2906C68.8409 39.255 68.7784 39.2361 68.7144 39.2361C68.6287 39.2361 68.5464 39.2701 68.4858 39.3308C68.4251 39.3914 68.3911 39.4737 68.3911 39.5594Z" fill="url(#paint14_linear_1019_13609)"/>
<path d="M68.3911 41.7176C68.3911 41.8051 68.4258 41.889 68.4877 41.9509C68.5496 42.0128 68.6335 42.0476 68.721 42.0476C68.8086 42.0476 68.8924 42.0128 68.9543 41.9509C69.0162 41.889 69.051 41.8051 69.051 41.7176C69.051 41.6301 69.0162 41.5462 68.9543 41.4843C68.8924 41.4224 68.8086 41.3877 68.721 41.3877C68.6335 41.3877 68.5496 41.4224 68.4877 41.4843C68.4258 41.5462 68.3911 41.6301 68.3911 41.7176Z" fill="url(#paint15_linear_1019_13609)"/>
<path d="M68.3912 43.8707C68.3899 43.9349 68.4077 43.9981 68.4424 44.0521C68.4771 44.1062 68.5272 44.1486 68.5861 44.1741C68.6451 44.1996 68.7102 44.2069 68.7734 44.1952C68.8365 44.1835 68.8948 44.1533 68.9407 44.1083C68.9866 44.0634 69.0181 44.0057 69.0311 43.9429C69.0441 43.88 69.038 43.8146 69.0138 43.7551C68.9895 43.6957 68.9481 43.6448 68.8948 43.609C68.8415 43.5731 68.7787 43.554 68.7145 43.554C68.6299 43.5539 68.5486 43.5871 68.4882 43.6463C68.4277 43.7056 68.3929 43.7861 68.3912 43.8707Z" fill="url(#paint16_linear_1019_13609)"/>
<path d="M66.232 33.0756C66.2307 33.1401 66.2487 33.2035 66.2837 33.2577C66.3187 33.3118 66.3691 33.3543 66.4285 33.3796C66.4878 33.4049 66.5534 33.4118 66.6167 33.3996C66.68 33.3873 66.7382 33.3564 66.7839 33.3108C66.8295 33.2651 66.8604 33.2069 66.8727 33.1436C66.885 33.0803 66.878 33.0147 66.8527 32.9554C66.8274 32.8961 66.7849 32.8456 66.7308 32.8106C66.6766 32.7756 66.6132 32.7576 66.5487 32.7589C66.5069 32.758 66.4653 32.7655 66.4265 32.7811C66.3876 32.7967 66.3524 32.82 66.3228 32.8496C66.2932 32.8792 66.2698 32.9145 66.2542 32.9534C66.2386 32.9922 66.2311 33.0337 66.232 33.0756Z" fill="url(#paint17_linear_1019_13609)"/>
<path d="M66.8722 35.2406C66.8731 35.1984 66.8655 35.1565 66.85 35.1173C66.8345 35.0781 66.8113 35.0424 66.7818 35.0123C66.7523 34.9822 66.7171 34.9583 66.6783 34.942C66.6394 34.9256 66.5977 34.9172 66.5555 34.9172C66.4714 34.9206 66.3918 34.9559 66.3329 35.016C66.2741 35.0761 66.2404 35.1564 66.2388 35.2406C66.2405 35.324 66.2744 35.4036 66.3334 35.4626C66.3925 35.5217 66.472 35.5556 66.5555 35.5573C66.6395 35.5573 66.72 35.5239 66.7794 35.4645C66.8388 35.4051 66.8722 35.3246 66.8722 35.2406Z" fill="url(#paint18_linear_1019_13609)"/>
<path d="M66.2319 37.3791C66.2319 37.4433 66.251 37.5061 66.2869 37.5594C66.3227 37.6127 66.3736 37.6541 66.4331 37.6783C66.4925 37.7026 66.5579 37.7086 66.6208 37.6956C66.6837 37.6826 66.7413 37.6511 66.7862 37.6052C66.8311 37.5594 66.8614 37.5011 66.8731 37.438C66.8848 37.3748 66.8775 37.3097 66.852 37.2507C66.8265 37.1917 66.7841 37.1417 66.7301 37.107C66.676 37.0722 66.6129 37.0544 66.5487 37.0557C66.4641 37.0575 66.3835 37.0923 66.3242 37.1527C66.265 37.2132 66.2319 37.2944 66.2319 37.3791Z" fill="url(#paint19_linear_1019_13609)"/>
<path d="M66.2319 39.5595C66.2319 39.6237 66.251 39.6865 66.2869 39.7398C66.3227 39.7931 66.3736 39.8345 66.4331 39.8588C66.4925 39.8831 66.5579 39.8891 66.6208 39.876C66.6837 39.863 66.7413 39.8316 66.7862 39.7857C66.8311 39.7398 66.8614 39.6816 66.8731 39.6184C66.8848 39.5553 66.8775 39.4901 66.852 39.4311C66.8265 39.3722 66.7841 39.3221 66.7301 39.2874C66.676 39.2527 66.6129 39.2348 66.5487 39.2362C66.4641 39.2379 66.3835 39.2727 66.3242 39.3332C66.265 39.3936 66.2319 39.4749 66.2319 39.5595Z" fill="url(#paint20_linear_1019_13609)"/>
<path d="M66.2319 41.7176C66.2319 41.8051 66.2666 41.889 66.3285 41.9509C66.3904 42.0128 66.4744 42.0476 66.5619 42.0476C66.6494 42.0476 66.7333 42.0128 66.7951 41.9509C66.857 41.889 66.8918 41.8051 66.8918 41.7176C66.8918 41.6301 66.857 41.5462 66.7951 41.4843C66.7333 41.4224 66.6494 41.3877 66.5619 41.3877C66.4744 41.3877 66.3904 41.4224 66.3285 41.4843C66.2666 41.5462 66.2319 41.6301 66.2319 41.7176Z" fill="url(#paint21_linear_1019_13609)"/>
<path d="M66.232 43.8708C66.2307 43.9353 66.2487 43.9987 66.2837 44.0528C66.3187 44.107 66.3691 44.1495 66.4285 44.1748C66.4878 44.2001 66.5534 44.207 66.6167 44.1948C66.68 44.1825 66.7382 44.1516 66.7839 44.106C66.8295 44.0603 66.8604 44.0021 66.8727 43.9388C66.885 43.8754 66.878 43.8099 66.8527 43.7506C66.8274 43.6912 66.7849 43.6408 66.7308 43.6058C66.6766 43.5708 66.6132 43.5527 66.5487 43.554C66.4652 43.5557 66.3857 43.5896 66.3266 43.6487C66.2676 43.7077 66.2337 43.7873 66.232 43.8708Z" fill="url(#paint22_linear_1019_13609)"/>
<path d="M70.5504 46.0109C70.5517 46.0733 70.5714 46.1339 70.607 46.1851C70.6426 46.2363 70.6925 46.2759 70.7505 46.2989C70.8085 46.3218 70.872 46.3272 70.933 46.3142C70.994 46.3012 71.0498 46.2705 71.0935 46.226C71.1371 46.1814 71.1666 46.125 71.1783 46.0637C71.19 46.0025 71.1834 45.9391 71.1592 45.8816C71.1351 45.8241 71.0944 45.775 71.0425 45.7405C70.9905 45.7059 70.9296 45.6875 70.8672 45.6875C70.8251 45.6875 70.7833 45.6959 70.7445 45.7122C70.7056 45.7286 70.6703 45.7525 70.6408 45.7826C70.6113 45.8127 70.5881 45.8484 70.5726 45.8876C70.5571 45.9268 70.5495 45.9687 70.5504 46.0109Z" fill="url(#paint23_linear_1019_13609)"/>
<path d="M71.1969 48.1698C71.1982 48.1056 71.1803 48.0424 71.1456 47.9884C71.1109 47.9344 71.0608 47.8919 71.0019 47.8664C70.9429 47.8409 70.8778 47.8335 70.8146 47.8453C70.7515 47.857 70.6932 47.8873 70.6473 47.9322C70.6014 47.9772 70.57 48.0347 70.557 48.0976C70.544 48.1605 70.55 48.2259 70.5742 48.2854C70.5985 48.3448 70.6399 48.3957 70.6932 48.4316C70.7465 48.4674 70.8093 48.4865 70.8735 48.4865C70.9156 48.4874 70.9575 48.4799 70.9967 48.4643C71.0359 48.4488 71.0717 48.4256 71.1018 48.3961C71.1319 48.3666 71.1558 48.3314 71.1722 48.2925C71.1885 48.2537 71.1969 48.212 71.1969 48.1698Z" fill="url(#paint24_linear_1019_13609)"/>
<path d="M70.5504 50.3274C70.5504 50.39 70.569 50.4513 70.6038 50.5034C70.6386 50.5555 70.6881 50.5961 70.746 50.6201C70.8039 50.6441 70.8676 50.6503 70.929 50.6381C70.9905 50.6259 71.0469 50.5957 71.0912 50.5514C71.1355 50.5071 71.1657 50.4506 71.1779 50.3892C71.1901 50.3277 71.1839 50.264 71.1599 50.2062C71.1359 50.1483 71.0953 50.0988 71.0432 50.0639C70.9911 50.0291 70.9299 50.0106 70.8672 50.0106C70.8254 50.0097 70.7838 50.0172 70.7449 50.0328C70.7061 50.0484 70.6708 50.0718 70.6412 50.1014C70.6116 50.131 70.5883 50.1662 70.5727 50.2051C70.5571 50.2439 70.5495 50.2855 70.5504 50.3274Z" fill="url(#paint25_linear_1019_13609)"/>
<path d="M70.5504 52.4885C70.5504 52.5512 70.569 52.6124 70.6038 52.6645C70.6386 52.7166 70.6881 52.7572 70.746 52.7812C70.8039 52.8052 70.8676 52.8114 70.929 52.7992C70.9905 52.787 71.0469 52.7568 71.0912 52.7125C71.1355 52.6682 71.1657 52.6118 71.1779 52.5503C71.1901 52.4888 71.1839 52.4251 71.1599 52.3672C71.1359 52.3094 71.0953 52.2599 71.0432 52.2251C70.9911 52.1903 70.9299 52.1717 70.8672 52.1717C70.8254 52.1708 70.7838 52.1784 70.7449 52.194C70.7061 52.2096 70.6708 52.2329 70.6412 52.2625C70.6116 52.2921 70.5883 52.3274 70.5727 52.3662C70.5571 52.405 70.5495 52.4467 70.5504 52.4885Z" fill="url(#paint26_linear_1019_13609)"/>
<path d="M70.5504 54.6463C70.5504 54.7089 70.569 54.7702 70.6038 54.8223C70.6386 54.8744 70.6881 54.9149 70.746 54.9389C70.8039 54.9629 70.8676 54.9692 70.929 54.957C70.9905 54.9447 71.0469 54.9146 71.0912 54.8703C71.1355 54.826 71.1657 54.7695 71.1779 54.7081C71.1901 54.6466 71.1839 54.5829 71.1599 54.525C71.1359 54.4671 71.0953 54.4176 71.0432 54.3828C70.9911 54.348 70.9299 54.3294 70.8672 54.3294C70.8254 54.3285 70.7838 54.3361 70.7449 54.3517C70.7061 54.3673 70.6708 54.3906 70.6412 54.4202C70.6116 54.4498 70.5883 54.4851 70.5727 54.524C70.5571 54.5628 70.5495 54.6044 70.5504 54.6463Z" fill="url(#paint27_linear_1019_13609)"/>
<path d="M70.5504 56.8053C70.5517 56.8677 70.5714 56.9283 70.607 56.9795C70.6426 57.0308 70.6925 57.0703 70.7505 57.0933C70.8085 57.1163 70.872 57.1216 70.933 57.1086C70.994 57.0957 71.0498 57.065 71.0935 57.0205C71.1371 56.9759 71.1666 56.9194 71.1783 56.8582C71.19 56.7969 71.1834 56.7335 71.1592 56.676C71.1351 56.6185 71.0944 56.5694 71.0425 56.5349C70.9905 56.5004 70.9296 56.4819 70.8672 56.4819C70.8251 56.4819 70.7833 56.4903 70.7445 56.5067C70.7056 56.523 70.6703 56.5469 70.6408 56.577C70.6113 56.6072 70.5881 56.6429 70.5726 56.6821C70.5571 56.7213 70.5495 56.7632 70.5504 56.8053Z" fill="url(#paint28_linear_1019_13609)"/>
<path d="M68.3911 46.0108C68.3911 46.0748 68.41 46.1373 68.4456 46.1905C68.4811 46.2436 68.5316 46.2851 68.5907 46.3096C68.6498 46.334 68.7148 46.3404 68.7775 46.328C68.8402 46.3155 68.8978 46.2847 68.943 46.2395C68.9883 46.1943 69.0191 46.1366 69.0316 46.0739C69.044 46.0112 69.0376 45.9462 69.0131 45.8871C68.9887 45.828 68.9472 45.7775 68.8941 45.742C68.8409 45.7065 68.7784 45.6875 68.7144 45.6875C68.6287 45.6875 68.5464 45.7215 68.4858 45.7822C68.4251 45.8428 68.3911 45.9251 68.3911 46.0108Z" fill="url(#paint29_linear_1019_13609)"/>
<path d="M69.0377 48.1698C69.039 48.1056 69.0211 48.0424 68.9864 47.9884C68.9517 47.9344 68.9017 47.8919 68.8427 47.8664C68.7838 47.8409 68.7186 47.8335 68.6554 47.8453C68.5923 47.857 68.5341 47.8873 68.4882 47.9322C68.4423 47.9772 68.4109 48.0347 68.3978 48.0976C68.3848 48.1605 68.3908 48.2259 68.4151 48.2854C68.4393 48.3448 68.4807 48.3957 68.534 48.4316C68.5873 48.4674 68.6502 48.4865 68.7144 48.4865C68.799 48.4865 68.8802 48.4534 68.9407 48.3942C69.0011 48.335 69.036 48.2544 69.0377 48.1698Z" fill="url(#paint30_linear_1019_13609)"/>
<path d="M68.3912 50.3273C68.3899 50.3915 68.4077 50.4547 68.4424 50.5087C68.4771 50.5627 68.5272 50.6052 68.5861 50.6307C68.6451 50.6562 68.7102 50.6635 68.7734 50.6518C68.8365 50.6401 68.8948 50.6098 68.9407 50.5649C68.9866 50.5199 69.0181 50.4624 69.0311 50.3995C69.0441 50.3366 69.038 50.2712 69.0138 50.2117C68.9895 50.1523 68.9481 50.1014 68.8948 50.0655C68.8415 50.0297 68.7787 50.0106 68.7145 50.0106C68.6724 50.0097 68.6305 50.0172 68.5913 50.0328C68.5521 50.0483 68.5163 50.0715 68.4862 50.101C68.4561 50.1305 68.4322 50.1657 68.4159 50.2045C68.3996 50.2434 68.3912 50.2851 68.3912 50.3273Z" fill="url(#paint31_linear_1019_13609)"/>
<path d="M68.3912 52.4884C68.3899 52.5526 68.4077 52.6158 68.4424 52.6698C68.4771 52.7239 68.5272 52.7663 68.5861 52.7918C68.6451 52.8173 68.7102 52.8246 68.7734 52.8129C68.8365 52.8012 68.8948 52.771 68.9407 52.726C68.9866 52.6811 69.0181 52.6235 69.0311 52.5606C69.0441 52.4977 69.038 52.4323 69.0138 52.3729C68.9895 52.3134 68.9481 52.2625 68.8948 52.2267C68.8415 52.1908 68.7787 52.1717 68.7145 52.1717C68.6724 52.1708 68.6305 52.1784 68.5913 52.1939C68.5521 52.2094 68.5163 52.2326 68.4862 52.2621C68.4561 52.2916 68.4322 52.3268 68.4159 52.3657C68.3996 52.4045 68.3912 52.4463 68.3912 52.4884Z" fill="url(#paint32_linear_1019_13609)"/>
<path d="M68.3912 54.6462C68.3899 54.7104 68.4077 54.7735 68.4424 54.8276C68.4771 54.8816 68.5272 54.924 68.5861 54.9495C68.6451 54.975 68.7102 54.9824 68.7734 54.9707C68.8365 54.959 68.8948 54.9287 68.9407 54.8837C68.9866 54.8388 69.0181 54.7812 69.0311 54.7183C69.0441 54.6554 69.038 54.5901 69.0138 54.5306C68.9895 54.4711 68.9481 54.4202 68.8948 54.3844C68.8415 54.3486 68.7787 54.3294 68.7145 54.3294C68.6724 54.3285 68.6305 54.3361 68.5913 54.3516C68.5521 54.3671 68.5163 54.3903 68.4862 54.4198C68.4561 54.4493 68.4322 54.4846 68.4159 54.5234C68.3996 54.5623 68.3912 54.604 68.3912 54.6462Z" fill="url(#paint33_linear_1019_13609)"/>
<path d="M68.3911 56.8053C68.3911 56.8692 68.41 56.9317 68.4456 56.9849C68.4811 57.0381 68.5316 57.0795 68.5907 57.104C68.6498 57.1285 68.7148 57.1349 68.7775 57.1224C68.8402 57.1099 68.8978 57.0791 68.943 57.0339C68.9883 56.9887 69.0191 56.9311 69.0316 56.8683C69.044 56.8056 69.0376 56.7406 69.0131 56.6815C68.9887 56.6225 68.9472 56.572 68.8941 56.5364C68.8409 56.5009 68.7784 56.4819 68.7144 56.4819C68.6287 56.4819 68.5464 56.516 68.4858 56.5767C68.4251 56.6373 68.3911 56.7195 68.3911 56.8053Z" fill="url(#paint34_linear_1019_13609)"/>
<path d="M66.2319 46.0109C66.2319 46.0751 66.251 46.1379 66.2869 46.1912C66.3227 46.2445 66.3736 46.2859 66.4331 46.3102C66.4925 46.3345 66.5579 46.3405 66.6208 46.3275C66.6837 46.3144 66.7413 46.283 66.7862 46.2371C66.8311 46.1912 66.8614 46.133 66.8731 46.0698C66.8848 46.0067 66.8775 45.9415 66.852 45.8825C66.8265 45.8235 66.7841 45.7735 66.7301 45.7388C66.676 45.7041 66.6129 45.6863 66.5487 45.6876C66.4641 45.6893 66.3835 45.7241 66.3242 45.7846C66.265 45.845 66.2319 45.9263 66.2319 46.0109Z" fill="url(#paint35_linear_1019_13609)"/>
<path d="M66.8722 48.1693C66.8731 48.1272 66.8655 48.0853 66.85 48.0461C66.8345 48.0069 66.8113 47.9712 66.7818 47.941C66.7523 47.9109 66.7171 47.887 66.6783 47.8707C66.6394 47.8543 66.5977 47.8459 66.5555 47.8459C66.4714 47.8493 66.3918 47.8846 66.3329 47.9447C66.2741 48.0048 66.2404 48.0852 66.2388 48.1693C66.2405 48.2528 66.2744 48.3324 66.3334 48.3914C66.3925 48.4504 66.472 48.4844 66.5555 48.486C66.6395 48.486 66.72 48.4526 66.7794 48.3932C66.8388 48.3338 66.8722 48.2533 66.8722 48.1693Z" fill="url(#paint36_linear_1019_13609)"/>
<path d="M66.232 50.3273C66.2307 50.3918 66.2487 50.4552 66.2837 50.5094C66.3187 50.5635 66.3691 50.606 66.4285 50.6313C66.4878 50.6566 66.5534 50.6635 66.6167 50.6513C66.68 50.639 66.7382 50.6081 66.7839 50.5625C66.8295 50.5168 66.8604 50.4586 66.8727 50.3953C66.885 50.332 66.878 50.2664 66.8527 50.2071C66.8274 50.1477 66.7849 50.0973 66.7308 50.0623C66.6766 50.0273 66.6132 50.0093 66.5487 50.0106C66.4647 50.0106 66.3841 50.0439 66.3247 50.1033C66.2653 50.1627 66.232 50.2433 66.232 50.3273Z" fill="url(#paint37_linear_1019_13609)"/>
<path d="M66.232 52.4884C66.2307 52.5529 66.2487 52.6163 66.2837 52.6705C66.3187 52.7247 66.3691 52.7671 66.4285 52.7924C66.4878 52.8177 66.5534 52.8247 66.6167 52.8124C66.68 52.8001 66.7382 52.7692 66.7839 52.7236C66.8295 52.678 66.8604 52.6198 66.8727 52.5564C66.885 52.4931 66.878 52.4275 66.8527 52.3682C66.8274 52.3089 66.7849 52.2584 66.7308 52.2234C66.6766 52.1884 66.6132 52.1704 66.5487 52.1717C66.4647 52.1717 66.3841 52.2051 66.3247 52.2645C66.2653 52.3239 66.232 52.4044 66.232 52.4884Z" fill="url(#paint38_linear_1019_13609)"/>
<path d="M66.232 54.6462C66.2307 54.7107 66.2487 54.774 66.2837 54.8282C66.3187 54.8824 66.3691 54.9248 66.4285 54.9501C66.4878 54.9754 66.5534 54.9824 66.6167 54.9702C66.68 54.9579 66.7382 54.927 66.7839 54.8813C66.8295 54.8357 66.8604 54.7775 66.8727 54.7142C66.885 54.6508 66.878 54.5853 66.8527 54.526C66.8274 54.4666 66.7849 54.4162 66.7308 54.3812C66.6766 54.3461 66.6132 54.3281 66.5487 54.3294C66.4647 54.3294 66.3841 54.3628 66.3247 54.4222C66.2653 54.4816 66.232 54.5622 66.232 54.6462Z" fill="url(#paint39_linear_1019_13609)"/>
<path d="M66.2319 56.8053C66.2319 56.8696 66.251 56.9323 66.2869 56.9856C66.3227 57.039 66.3736 57.0804 66.4331 57.1047C66.4925 57.1289 66.5579 57.1349 66.6208 57.1219C66.6837 57.1089 66.7413 57.0774 66.7862 57.0316C66.8311 56.9857 66.8614 56.9274 66.8731 56.8643C66.8848 56.8011 66.8775 56.7359 66.852 56.677C66.8265 56.618 66.7841 56.568 66.7301 56.5333C66.676 56.4985 66.6129 56.4807 66.5487 56.482C66.4641 56.4837 66.3835 56.5186 66.3242 56.579C66.265 56.6395 66.2319 56.7207 66.2319 56.8053Z" fill="url(#paint40_linear_1019_13609)"/>
<path d="M70.5504 58.9638C70.5517 59.0261 70.5714 59.0868 70.607 59.138C70.6426 59.1892 70.6925 59.2288 70.7505 59.2517C70.8085 59.2747 70.872 59.28 70.933 59.2671C70.994 59.2541 71.0498 59.2234 71.0935 59.1789C71.1371 59.1343 71.1666 59.0779 71.1783 59.0166C71.19 58.9553 71.1834 58.892 71.1592 58.8345C71.1351 58.777 71.0944 58.7279 71.0425 58.6934C70.9905 58.6588 70.9296 58.6404 70.8672 58.6404C70.8251 58.6404 70.7833 58.6488 70.7445 58.6651C70.7056 58.6814 70.6703 58.7054 70.6408 58.7355C70.6113 58.7656 70.5881 58.8013 70.5726 58.8405C70.5571 58.8797 70.5495 58.9216 70.5504 58.9638Z" fill="url(#paint41_linear_1019_13609)"/>
<path d="M70.5504 61.1501C70.5517 61.2124 70.5714 61.273 70.607 61.3243C70.6426 61.3755 70.6925 61.4151 70.7505 61.438C70.8085 61.461 70.872 61.4663 70.933 61.4534C70.994 61.4404 71.0498 61.4097 71.0935 61.3651C71.1371 61.3206 71.1666 61.2641 71.1783 61.2029C71.19 61.1416 71.1834 61.0783 71.1592 61.0208C71.1351 60.9632 71.0944 60.9142 71.0425 60.8796C70.9905 60.8451 70.9296 60.8267 70.8672 60.8267C70.8251 60.8267 70.7833 60.8351 70.7445 60.8514C70.7056 60.8677 70.6703 60.8917 70.6408 60.9218C70.6113 60.9519 70.5881 60.9876 70.5726 61.0268C70.5571 61.066 70.5495 61.1079 70.5504 61.1501Z" fill="url(#paint42_linear_1019_13609)"/>
<path d="M70.5504 63.2904C70.5517 63.3528 70.5714 63.4134 70.607 63.4646C70.6426 63.5159 70.6925 63.5554 70.7505 63.5784C70.8085 63.6014 70.872 63.6067 70.933 63.5937C70.994 63.5808 71.0498 63.5501 71.0935 63.5056C71.1371 63.461 71.1666 63.4045 71.1783 63.3433C71.19 63.282 71.1834 63.2186 71.1592 63.1611C71.1351 63.1036 71.0944 63.0545 71.0425 63.02C70.9905 62.9855 70.9296 62.9671 70.8672 62.967C70.8251 62.967 70.7833 62.9754 70.7445 62.9918C70.7056 63.0081 70.6703 63.032 70.6408 63.0622C70.6113 63.0923 70.5881 63.128 70.5726 63.1672C70.5571 63.2064 70.5495 63.2483 70.5504 63.2904Z" fill="url(#paint43_linear_1019_13609)"/>
<path d="M70.5504 65.4425C70.5504 65.53 70.5852 65.614 70.6471 65.6758C70.7089 65.7377 70.7928 65.7725 70.8803 65.7725C70.9678 65.7725 71.0518 65.7377 71.1137 65.6758C71.1756 65.614 71.2103 65.53 71.2103 65.4425C71.2112 65.4007 71.2036 65.3591 71.188 65.3202C71.1724 65.2814 71.1492 65.2461 71.1196 65.2165C71.09 65.1869 71.0547 65.1637 71.0158 65.1481C70.977 65.1325 70.9354 65.1249 70.8936 65.1258C70.8496 65.1211 70.8051 65.1258 70.7631 65.1397C70.7211 65.1536 70.6826 65.1763 70.6501 65.2063C70.6176 65.2363 70.5919 65.2729 70.5747 65.3136C70.5575 65.3543 70.5492 65.3983 70.5504 65.4425Z" fill="url(#paint44_linear_1019_13609)"/>
<path d="M70.5504 67.602C70.5504 67.6895 70.5852 67.7734 70.6471 67.8353C70.7089 67.8971 70.7928 67.9319 70.8803 67.9319C70.9678 67.9319 71.0518 67.8971 71.1137 67.8353C71.1756 67.7734 71.2103 67.6895 71.2103 67.602C71.2112 67.5601 71.2036 67.5185 71.188 67.4797C71.1724 67.4409 71.1492 67.4056 71.1196 67.376C71.09 67.3464 71.0547 67.3231 71.0158 67.3075C70.977 67.2919 70.9354 67.2843 70.8936 67.2852C70.8496 67.2805 70.8051 67.2852 70.7631 67.2991C70.7211 67.313 70.6826 67.3357 70.6501 67.3657C70.6176 67.3957 70.5919 67.4323 70.5747 67.4731C70.5575 67.5138 70.5492 67.5578 70.5504 67.602Z" fill="url(#paint45_linear_1019_13609)"/>
<path d="M68.3911 58.9637C68.3911 59.0277 68.41 59.0902 68.4456 59.1433C68.4811 59.1965 68.5316 59.238 68.5907 59.2624C68.6498 59.2869 68.7148 59.2933 68.7775 59.2808C68.8402 59.2684 68.8978 59.2376 68.943 59.1924C68.9883 59.1471 69.0191 59.0895 69.0316 59.0268C69.044 58.9641 69.0376 58.8991 69.0131 58.84C68.9887 58.7809 68.9472 58.7304 68.8941 58.6949C68.8409 58.6593 68.7784 58.6404 68.7144 58.6404C68.6287 58.6404 68.5464 58.6744 68.4858 58.7351C68.4251 58.7957 68.3911 58.878 68.3911 58.9637Z" fill="url(#paint46_linear_1019_13609)"/>
<path d="M68.3911 61.15C68.3911 61.2139 68.41 61.2764 68.4456 61.3296C68.4811 61.3828 68.5316 61.4242 68.5907 61.4487C68.6498 61.4732 68.7148 61.4796 68.7775 61.4671C68.8402 61.4546 68.8978 61.4239 68.943 61.3786C68.9883 61.3334 69.0191 61.2758 69.0316 61.2131C69.044 61.1503 69.0376 61.0853 69.0131 61.0263C68.9887 60.9672 68.9472 60.9167 68.8941 60.8812C68.8409 60.8456 68.7784 60.8267 68.7144 60.8267C68.6287 60.8267 68.5464 60.8607 68.4858 60.9213C68.4251 60.982 68.3911 61.0642 68.3911 61.15Z" fill="url(#paint47_linear_1019_13609)"/>
<path d="M68.3911 63.2904C68.3911 63.3543 68.41 63.4168 68.4456 63.47C68.4811 63.5232 68.5316 63.5646 68.5907 63.5891C68.6498 63.6136 68.7148 63.62 68.7775 63.6075C68.8402 63.595 68.8978 63.5642 68.943 63.519C68.9883 63.4738 69.0191 63.4162 69.0316 63.3534C69.044 63.2907 69.0376 63.2257 69.0131 63.1666C68.9887 63.1076 68.9472 63.0571 68.8941 63.0215C68.8409 62.986 68.7784 62.967 68.7144 62.967C68.6287 62.967 68.5464 63.0011 68.4858 63.0617C68.4251 63.1224 68.3911 63.2046 68.3911 63.2904Z" fill="url(#paint48_linear_1019_13609)"/>
<path d="M68.3911 65.4427C68.3911 65.5302 68.4258 65.6142 68.4877 65.676C68.5496 65.7379 68.6335 65.7727 68.721 65.7727C68.8086 65.7727 68.8924 65.7379 68.9543 65.676C69.0162 65.6142 69.051 65.5302 69.051 65.4427C69.051 65.3552 69.0162 65.2713 68.9543 65.2094C68.8924 65.1475 68.8086 65.1128 68.721 65.1128C68.6335 65.1128 68.5496 65.1475 68.4877 65.2094C68.4258 65.2713 68.3911 65.3552 68.3911 65.4427Z" fill="url(#paint49_linear_1019_13609)"/>
<path d="M68.3911 67.6012C68.3911 67.6887 68.4258 67.7726 68.4877 67.8345C68.5496 67.8963 68.6335 67.9311 68.721 67.9311C68.8086 67.9311 68.8924 67.8963 68.9543 67.8345C69.0162 67.7726 69.051 67.6887 69.051 67.6012C69.051 67.5137 69.0162 67.4297 68.9543 67.3679C68.8924 67.306 68.8086 67.2712 68.721 67.2712C68.6335 67.2712 68.5496 67.306 68.4877 67.3679C68.4258 67.4297 68.3911 67.5137 68.3911 67.6012Z" fill="url(#paint50_linear_1019_13609)"/>
<path d="M66.2319 58.9638C66.2319 59.028 66.251 59.0908 66.2869 59.1441C66.3227 59.1974 66.3736 59.2388 66.4331 59.2631C66.4925 59.2873 66.5579 59.2934 66.6208 59.2803C66.6837 59.2673 66.7413 59.2358 66.7862 59.19C66.8311 59.1441 66.8614 59.0859 66.8731 59.0227C66.8848 58.9596 66.8775 58.8943 66.852 58.8354C66.8265 58.7764 66.7841 58.7264 66.7301 58.6917C66.676 58.657 66.6129 58.6391 66.5487 58.6404C66.4641 58.6422 66.3835 58.677 66.3242 58.7374C66.265 58.7979 66.2319 58.8792 66.2319 58.9638Z" fill="url(#paint51_linear_1019_13609)"/>
<path d="M66.2319 61.1501C66.2319 61.2143 66.251 61.2771 66.2869 61.3304C66.3227 61.3837 66.3736 61.4251 66.4331 61.4493C66.4925 61.4736 66.5579 61.4796 66.6208 61.4666C66.6837 61.4536 66.7413 61.4221 66.7862 61.3762C66.8311 61.3304 66.8614 61.2721 66.8731 61.209C66.8848 61.1458 66.8775 61.0807 66.852 61.0217C66.8265 60.9627 66.7841 60.9127 66.7301 60.878C66.676 60.8432 66.6129 60.8254 66.5487 60.8267C66.4641 60.8285 66.3835 60.8633 66.3242 60.9237C66.265 60.9842 66.2319 61.0654 66.2319 61.1501Z" fill="url(#paint52_linear_1019_13609)"/>
<path d="M66.2319 63.2904C66.2319 63.3547 66.251 63.4174 66.2869 63.4708C66.3227 63.5241 66.3736 63.5655 66.4331 63.5898C66.4925 63.614 66.5579 63.62 66.6208 63.607C66.6837 63.594 66.7413 63.5625 66.7862 63.5166C66.8311 63.4707 66.8614 63.4126 66.8731 63.3494C66.8848 63.2863 66.8775 63.221 66.852 63.1621C66.8265 63.1031 66.7841 63.0531 66.7301 63.0184C66.676 62.9837 66.6129 62.9658 66.5487 62.9671C66.4641 62.9688 66.3835 63.0037 66.3242 63.0641C66.265 63.1246 66.2319 63.2058 66.2319 63.2904Z" fill="url(#paint53_linear_1019_13609)"/>
<path d="M66.232 65.4419C66.232 65.5294 66.2667 65.6133 66.3286 65.6752C66.3905 65.7371 66.4745 65.7718 66.562 65.7718C66.6495 65.7718 66.7334 65.7371 66.7952 65.6752C66.8571 65.6133 66.8919 65.5294 66.8919 65.4419C66.8919 65.3997 66.8835 65.358 66.8672 65.3191C66.8508 65.2803 66.8269 65.245 66.7968 65.2155C66.7667 65.186 66.731 65.1629 66.6918 65.1474C66.6526 65.1318 66.6107 65.1243 66.5686 65.1252C66.5251 65.1214 66.4814 65.1269 66.4402 65.1412C66.399 65.1556 66.3613 65.1784 66.3295 65.2083C66.2977 65.2382 66.2727 65.2744 66.2559 65.3147C66.2391 65.3549 66.2309 65.3983 66.232 65.4419Z" fill="url(#paint54_linear_1019_13609)"/>
<path d="M66.232 67.6021C66.232 67.6896 66.2667 67.7735 66.3286 67.8354C66.3905 67.8972 66.4745 67.932 66.562 67.932C66.6495 67.932 66.7334 67.8972 66.7952 67.8354C66.8571 67.7735 66.8919 67.6896 66.8919 67.6021C66.8919 67.5599 66.8835 67.5182 66.8672 67.4793C66.8508 67.4405 66.8269 67.4052 66.7968 67.3757C66.7667 67.3462 66.731 67.323 66.6918 67.3075C66.6526 67.292 66.6107 67.2844 66.5686 67.2853C66.5251 67.2816 66.4814 67.2871 66.4402 67.3014C66.399 67.3158 66.3613 67.3386 66.3295 67.3685C66.2977 67.3984 66.2727 67.4346 66.2559 67.4749C66.2391 67.5151 66.2309 67.5585 66.232 67.6021Z" fill="url(#paint55_linear_1019_13609)"/>
<defs>
<filter id="filter0_d_1019_13609" x="20.9316" y="21.4707" width="62.7002" height="70.0876" filterUnits="userSpaceOnUse" color-interpolation-filters="sRGB">
<feFlood flood-opacity="0" result="BackgroundImageFix"/>
<feColorMatrix in="SourceAlpha" type="matrix" values="0 0 0 0 0 0 0 0 0 0 0 0 0 0 0 0 0 0 127 0" result="hardAlpha"/>
<feOffset dy="2"/>
<feGaussianBlur stdDeviation="2"/>
<feComposite in2="hardAlpha" operator="out"/>
<feColorMatrix type="matrix" values="0 0 0 0 0 0 0 0 0 0 0 0 0 0 0 0 0 0 0.25 0"/>
<feBlend mode="normal" in2="BackgroundImageFix" result="effect1_dropShadow_1019_13609"/>
<feBlend mode="normal" in="SourceGraphic" in2="effect1_dropShadow_1019_13609" result="shape"/>
</filter>
<filter id="filter1_d_1019_13609" x="25.6328" y="26.2197" width="53.3018" height="52.9688" filterUnits="userSpaceOnUse" color-interpolation-filters="sRGB">
<feFlood flood-opacity="0" result="BackgroundImageFix"/>
<feColorMatrix in="SourceAlpha" type="matrix" values="0 0 0 0 0 0 0 0 0 0 0 0 0 0 0 0 0 0 127 0" result="hardAlpha"/>
<feOffset dy="2"/>
<feGaussianBlur stdDeviation="2"/>
<feComposite in2="hardAlpha" operator="out"/>
<feColorMatrix type="matrix" values="0 0 0 0 0 0 0 0 0 0 0 0 0 0 0 0 0 0 0.25 0"/>
<feBlend mode="normal" in2="BackgroundImageFix" result="effect1_dropShadow_1019_13609"/>
<feBlend mode="normal" in="SourceGraphic" in2="effect1_dropShadow_1019_13609" result="shape"/>
</filter>
<filter id="filter2_d_1019_13609" x="41.0884" y="29.708" width="16.1802" height="43.3552" filterUnits="userSpaceOnUse" color-interpolation-filters="sRGB">
<feFlood flood-opacity="0" result="BackgroundImageFix"/>
<feColorMatrix in="SourceAlpha" type="matrix" values="0 0 0 0 0 0 0 0 0 0 0 0 0 0 0 0 0 0 127 0" result="hardAlpha"/>
<feOffset dy="1"/>
<feGaussianBlur stdDeviation="2"/>
<feComposite in2="hardAlpha" operator="out"/>
<feColorMatrix type="matrix" values="0 0 0 0 0 0 0 0 0 0 0 0 0 0 0 0 0 0 0.25 0"/>
<feBlend mode="normal" in2="BackgroundImageFix" result="effect1_dropShadow_1019_13609"/>
<feBlend mode="normal" in="SourceGraphic" in2="effect1_dropShadow_1019_13609" result="shape"/>
</filter>
<filter id="filter3_d_1019_13609" x="41.0884" y="32.708" width="16.1802" height="10.0903" filterUnits="userSpaceOnUse" color-interpolation-filters="sRGB">
<feFlood flood-opacity="0" result="BackgroundImageFix"/>
<feColorMatrix in="SourceAlpha" type="matrix" values="0 0 0 0 0 0 0 0 0 0 0 0 0 0 0 0 0 0 127 0" result="hardAlpha"/>
<feOffset dy="4"/>
<feGaussianBlur stdDeviation="2"/>
<feComposite in2="hardAlpha" operator="out"/>
<feColorMatrix type="matrix" values="0 0 0 0 0 0 0 0 0 0 0 0 0 0 0 0 0 0 0.25 0"/>
<feBlend mode="normal" in2="BackgroundImageFix" result="effect1_dropShadow_1019_13609"/>
<feBlend mode="normal" in="SourceGraphic" in2="effect1_dropShadow_1019_13609" result="shape"/>
</filter>
<filter id="filter4_d_1019_13609" x="41.0884" y="44.2512" width="16.1802" height="10.0903" filterUnits="userSpaceOnUse" color-interpolation-filters="sRGB">
<feFlood flood-opacity="0" result="BackgroundImageFix"/>
<feColorMatrix in="SourceAlpha" type="matrix" values="0 0 0 0 0 0 0 0 0 0 0 0 0 0 0 0 0 0 127 0" result="hardAlpha"/>
<feOffset dy="4"/>
<feGaussianBlur stdDeviation="2"/>
<feComposite in2="hardAlpha" operator="out"/>
<feColorMatrix type="matrix" values="0 0 0 0 0 0 0 0 0 0 0 0 0 0 0 0 0 0 0.25 0"/>
<feBlend mode="normal" in2="BackgroundImageFix" result="effect1_dropShadow_1019_13609"/>
<feBlend mode="normal" in="SourceGraphic" in2="effect1_dropShadow_1019_13609" result="shape"/>
</filter>
<filter id="filter5_d_1019_13609" x="41.0884" y="48.5232" width="16.1802" height="10.0903" filterUnits="userSpaceOnUse" color-interpolation-filters="sRGB">
<feFlood flood-opacity="0" result="BackgroundImageFix"/>
<feColorMatrix in="SourceAlpha" type="matrix" values="0 0 0 0 0 0 0 0 0 0 0 0 0 0 0 0 0 0 127 0" result="hardAlpha"/>
<feOffset dy="4"/>
<feGaussianBlur stdDeviation="2"/>
<feComposite in2="hardAlpha" operator="out"/>
<feColorMatrix type="matrix" values="0 0 0 0 0 0 0 0 0 0 0 0 0 0 0 0 0 0 0.25 0"/>
<feBlend mode="normal" in2="BackgroundImageFix" result="effect1_dropShadow_1019_13609"/>
<feBlend mode="normal" in="SourceGraphic" in2="effect1_dropShadow_1019_13609" result="shape"/>
</filter>
<filter id="filter6_d_1019_13609" x="41.0884" y="61.7007" width="16.1802" height="10.0903" filterUnits="userSpaceOnUse" color-interpolation-filters="sRGB">
<feFlood flood-opacity="0" result="BackgroundImageFix"/>
<feColorMatrix in="SourceAlpha" type="matrix" values="0 0 0 0 0 0 0 0 0 0 0 0 0 0 0 0 0 0 127 0" result="hardAlpha"/>
<feOffset dy="4"/>
<feGaussianBlur stdDeviation="2"/>
<feComposite in2="hardAlpha" operator="out"/>
<feColorMatrix type="matrix" values="0 0 0 0 0 0 0 0 0 0 0 0 0 0 0 0 0 0 0.25 0"/>
<feBlend mode="normal" in2="BackgroundImageFix" result="effect1_dropShadow_1019_13609"/>
<feBlend mode="normal" in="SourceGraphic" in2="effect1_dropShadow_1019_13609" result="shape"/>
</filter>
<filter id="filter7_d_1019_13609" x="41.0884" y="65.9729" width="16.1802" height="10.0903" filterUnits="userSpaceOnUse" color-interpolation-filters="sRGB">
<feFlood flood-opacity="0" result="BackgroundImageFix"/>
<feColorMatrix in="SourceAlpha" type="matrix" values="0 0 0 0 0 0 0 0 0 0 0 0 0 0 0 0 0 0 127 0" result="hardAlpha"/>
<feOffset dy="4"/>
<feGaussianBlur stdDeviation="2"/>
<feComposite in2="hardAlpha" operator="out"/>
<feColorMatrix type="matrix" values="0 0 0 0 0 0 0 0 0 0 0 0 0 0 0 0 0 0 0.25 0"/>
<feBlend mode="normal" in2="BackgroundImageFix" result="effect1_dropShadow_1019_13609"/>
<feBlend mode="normal" in="SourceGraphic" in2="effect1_dropShadow_1019_13609" result="shape"/>
</filter>
<filter id="filter8_d_1019_13609" x="41.0884" y="53.3396" width="16.1802" height="10.0903" filterUnits="userSpaceOnUse" color-interpolation-filters="sRGB">
<feFlood flood-opacity="0" result="BackgroundImageFix"/>
<feColorMatrix in="SourceAlpha" type="matrix" values="0 0 0 0 0 0 0 0 0 0 0 0 0 0 0 0 0 0 127 0" result="hardAlpha"/>
<feOffset dy="4"/>
<feGaussianBlur stdDeviation="2"/>
<feComposite in2="hardAlpha" operator="out"/>
<feColorMatrix type="matrix" values="0 0 0 0 0 0 0 0 0 0 0 0 0 0 0 0 0 0 0.25 0"/>
<feBlend mode="normal" in2="BackgroundImageFix" result="effect1_dropShadow_1019_13609"/>
<feBlend mode="normal" in="SourceGraphic" in2="effect1_dropShadow_1019_13609" result="shape"/>
</filter>
<filter id="filter9_d_1019_13609" x="30.1157" y="30.6594" width="16.5674" height="16.5674" filterUnits="userSpaceOnUse" color-interpolation-filters="sRGB">
<feFlood flood-opacity="0" result="BackgroundImageFix"/>
<feColorMatrix in="SourceAlpha" type="matrix" values="0 0 0 0 0 0 0 0 0 0 0 0 0 0 0 0 0 0 127 0" result="hardAlpha"/>
<feOffset dy="2"/>
<feGaussianBlur stdDeviation="2"/>
<feComposite in2="hardAlpha" operator="out"/>
<feColorMatrix type="matrix" values="0 0 0 0 0 0 0 0 0 0 0 0 0 0 0 0 0 0 0.25 0"/>
<feBlend mode="normal" in2="BackgroundImageFix" result="effect1_dropShadow_1019_13609"/>
<feBlend mode="normal" in="SourceGraphic" in2="effect1_dropShadow_1019_13609" result="shape"/>
</filter>
<filter id="filter10_d_1019_13609" x="30.1157" y="44.1792" width="16.5674" height="16.5674" filterUnits="userSpaceOnUse" color-interpolation-filters="sRGB">
<feFlood flood-opacity="0" result="BackgroundImageFix"/>
<feColorMatrix in="SourceAlpha" type="matrix" values="0 0 0 0 0 0 0 0 0 0 0 0 0 0 0 0 0 0 127 0" result="hardAlpha"/>
<feOffset dy="2"/>
<feGaussianBlur stdDeviation="2"/>
<feComposite in2="hardAlpha" operator="out"/>
<feColorMatrix type="matrix" values="0 0 0 0 0 0 0 0 0 0 0 0 0 0 0 0 0 0 0.25 0"/>
<feBlend mode="normal" in2="BackgroundImageFix" result="effect1_dropShadow_1019_13609"/>
<feBlend mode="normal" in="SourceGraphic" in2="effect1_dropShadow_1019_13609" result="shape"/>
</filter>
<filter id="filter11_d_1019_13609" x="30.1157" y="57.9648" width="16.5674" height="16.5674" filterUnits="userSpaceOnUse" color-interpolation-filters="sRGB">
<feFlood flood-opacity="0" result="BackgroundImageFix"/>
<feColorMatrix in="SourceAlpha" type="matrix" values="0 0 0 0 0 0 0 0 0 0 0 0 0 0 0 0 0 0 127 0" result="hardAlpha"/>
<feOffset dy="2"/>
<feGaussianBlur stdDeviation="2"/>
<feComposite in2="hardAlpha" operator="out"/>
<feColorMatrix type="matrix" values="0 0 0 0 0 0 0 0 0 0 0 0 0 0 0 0 0 0 0.25 0"/>
<feBlend mode="normal" in2="BackgroundImageFix" result="effect1_dropShadow_1019_13609"/>
<feBlend mode="normal" in="SourceGraphic" in2="effect1_dropShadow_1019_13609" result="shape"/>
</filter>
<linearGradient id="paint0_linear_1019_13609" x1="49.9174" y1="-12.8735" x2="53.8994" y2="132.897" gradientUnits="userSpaceOnUse">
<stop stop-color="#00ABDE"/>
<stop offset="1" stop-color="#007ED8"/>
</linearGradient>
<linearGradient id="paint1_linear_1019_13609" x1="3.12173" y1="-19.7067" x2="98.6493" y2="121.175" gradientUnits="userSpaceOnUse">
<stop stop-color="#007ED8"/>
<stop offset="0.7065" stop-color="#002D4C"/>
</linearGradient>
<linearGradient id="paint2_linear_1019_13609" x1="34.7443" y1="1.91586" x2="207.232" y2="285.534" gradientUnits="userSpaceOnUse">
<stop offset="0.0435" stop-color="white"/>
<stop offset="0.4857" stop-color="#4DC1EA"/>
<stop offset="0.8452" stop-color="#0078D4"/>
</linearGradient>
<linearGradient id="paint3_linear_1019_13609" x1="16.0226" y1="-34.1882" x2="98.6546" y2="127.061" gradientUnits="userSpaceOnUse">
<stop stop-color="#007ED8"/>
<stop offset="0.7065" stop-color="#002D4C"/>
</linearGradient>
<linearGradient id="paint4_linear_1019_13609" x1="38.2791" y1="61.3781" x2="79.2875" y2="81.4543" gradientUnits="userSpaceOnUse">
<stop stop-color="#15548F"/>
<stop offset="0.42" stop-color="#243A5E"/>
<stop offset="0.97" stop-color="#1A2C45"/>
</linearGradient>
<linearGradient id="paint5_linear_1019_13609" x1="70.0355" y1="29.7422" x2="79.1111" y2="66.2094" gradientUnits="userSpaceOnUse">
<stop offset="0.04" stop-color="white"/>
<stop offset="0.49" stop-color="#4DC1EA"/>
<stop offset="0.85" stop-color="#0078D4"/>
</linearGradient>
<linearGradient id="paint6_linear_1019_13609" x1="69.5406" y1="29.8689" x2="78.6133" y2="66.3259" gradientUnits="userSpaceOnUse">
<stop offset="0.04" stop-color="white"/>
<stop offset="0.49" stop-color="#4DC1EA"/>
<stop offset="0.85" stop-color="#0078D4"/>
</linearGradient>
<linearGradient id="paint7_linear_1019_13609" x1="69.0256" y1="29.9934" x2="78.1006" y2="66.4599" gradientUnits="userSpaceOnUse">
<stop offset="0.04" stop-color="white"/>
<stop offset="0.49" stop-color="#4DC1EA"/>
<stop offset="0.85" stop-color="#0078D4"/>
</linearGradient>
<linearGradient id="paint8_linear_1019_13609" x1="68.5174" y1="30.1212" x2="77.5924" y2="66.5877" gradientUnits="userSpaceOnUse">
<stop offset="0.04" stop-color="white"/>
<stop offset="0.49" stop-color="#4DC1EA"/>
<stop offset="0.85" stop-color="#0078D4"/>
</linearGradient>
<linearGradient id="paint9_linear_1019_13609" x1="68.0164" y1="30.2491" x2="77.0896" y2="66.707" gradientUnits="userSpaceOnUse">
<stop offset="0.04" stop-color="white"/>
<stop offset="0.49" stop-color="#4DC1EA"/>
<stop offset="0.85" stop-color="#0078D4"/>
</linearGradient>
<linearGradient id="paint10_linear_1019_13609" x1="67.5075" y1="30.373" x2="76.583" y2="66.8401" gradientUnits="userSpaceOnUse">
<stop offset="0.04" stop-color="white"/>
<stop offset="0.49" stop-color="#4DC1EA"/>
<stop offset="0.85" stop-color="#0078D4"/>
</linearGradient>
<linearGradient id="paint11_linear_1019_13609" x1="68.0085" y1="30.2444" x2="77.0823" y2="66.7029" gradientUnits="userSpaceOnUse">
<stop offset="0.04" stop-color="white"/>
<stop offset="0.49" stop-color="#4DC1EA"/>
<stop offset="0.85" stop-color="#0078D4"/>
</linearGradient>
<linearGradient id="paint12_linear_1019_13609" x1="67.5068" y1="30.3704" x2="76.5795" y2="66.8274" gradientUnits="userSpaceOnUse">
<stop offset="0.04" stop-color="white"/>
<stop offset="0.49" stop-color="#4DC1EA"/>
<stop offset="0.85" stop-color="#0078D4"/>
</linearGradient>
<linearGradient id="paint13_linear_1019_13609" x1="66.9922" y1="30.5032" x2="76.0655" y2="66.9608" gradientUnits="userSpaceOnUse">
<stop offset="0.04" stop-color="white"/>
<stop offset="0.49" stop-color="#4DC1EA"/>
<stop offset="0.85" stop-color="#0078D4"/>
</linearGradient>
<linearGradient id="paint14_linear_1019_13609" x1="66.4907" y1="30.6314" x2="75.564" y2="67.089" gradientUnits="userSpaceOnUse">
<stop offset="0.04" stop-color="white"/>
<stop offset="0.49" stop-color="#4DC1EA"/>
<stop offset="0.85" stop-color="#0078D4"/>
</linearGradient>
<linearGradient id="paint15_linear_1019_13609" x1="65.9826" y1="30.7572" x2="75.0558" y2="67.2151" gradientUnits="userSpaceOnUse">
<stop offset="0.04" stop-color="white"/>
<stop offset="0.49" stop-color="#4DC1EA"/>
<stop offset="0.85" stop-color="#0078D4"/>
</linearGradient>
<linearGradient id="paint16_linear_1019_13609" x1="65.4812" y1="30.884" x2="74.5553" y2="67.3429" gradientUnits="userSpaceOnUse">
<stop offset="0.04" stop-color="white"/>
<stop offset="0.49" stop-color="#4DC1EA"/>
<stop offset="0.85" stop-color="#0078D4"/>
</linearGradient>
<linearGradient id="paint17_linear_1019_13609" x1="65.9747" y1="30.7529" x2="75.0478" y2="67.2103" gradientUnits="userSpaceOnUse">
<stop offset="0.04" stop-color="white"/>
<stop offset="0.49" stop-color="#4DC1EA"/>
<stop offset="0.85" stop-color="#0078D4"/>
</linearGradient>
<linearGradient id="paint18_linear_1019_13609" x1="65.4734" y1="30.8789" x2="74.5464" y2="67.3357" gradientUnits="userSpaceOnUse">
<stop offset="0.04" stop-color="white"/>
<stop offset="0.49" stop-color="#4DC1EA"/>
<stop offset="0.85" stop-color="#0078D4"/>
</linearGradient>
<linearGradient id="paint19_linear_1019_13609" x1="64.9585" y1="31.0048" x2="74.0323" y2="67.462" gradientUnits="userSpaceOnUse">
<stop offset="0.04" stop-color="white"/>
<stop offset="0.49" stop-color="#4DC1EA"/>
<stop offset="0.85" stop-color="#0078D4"/>
</linearGradient>
<linearGradient id="paint20_linear_1019_13609" x1="64.457" y1="31.1329" x2="73.5311" y2="67.5907" gradientUnits="userSpaceOnUse">
<stop offset="0.04" stop-color="white"/>
<stop offset="0.49" stop-color="#4DC1EA"/>
<stop offset="0.85" stop-color="#0078D4"/>
</linearGradient>
<linearGradient id="paint21_linear_1019_13609" x1="63.9488" y1="31.2587" x2="73.022" y2="67.7166" gradientUnits="userSpaceOnUse">
<stop offset="0.04" stop-color="white"/>
<stop offset="0.49" stop-color="#4DC1EA"/>
<stop offset="0.85" stop-color="#0078D4"/>
</linearGradient>
<linearGradient id="paint22_linear_1019_13609" x1="63.4474" y1="31.3854" x2="72.5216" y2="67.8448" gradientUnits="userSpaceOnUse">
<stop offset="0.04" stop-color="white"/>
<stop offset="0.49" stop-color="#4DC1EA"/>
<stop offset="0.85" stop-color="#0078D4"/>
</linearGradient>
<linearGradient id="paint23_linear_1019_13609" x1="67.0059" y1="30.5004" x2="76.0808" y2="66.9669" gradientUnits="userSpaceOnUse">
<stop offset="0.04" stop-color="white"/>
<stop offset="0.49" stop-color="#4DC1EA"/>
<stop offset="0.85" stop-color="#0078D4"/>
</linearGradient>
<linearGradient id="paint24_linear_1019_13609" x1="66.5118" y1="30.63" x2="75.5853" y2="67.0887" gradientUnits="userSpaceOnUse">
<stop offset="0.04" stop-color="white"/>
<stop offset="0.49" stop-color="#4DC1EA"/>
<stop offset="0.85" stop-color="#0078D4"/>
</linearGradient>
<linearGradient id="paint25_linear_1019_13609" x1="65.9961" y1="30.7515" x2="75.0708" y2="67.2172" gradientUnits="userSpaceOnUse">
<stop offset="0.04" stop-color="white"/>
<stop offset="0.49" stop-color="#4DC1EA"/>
<stop offset="0.85" stop-color="#0078D4"/>
</linearGradient>
<linearGradient id="paint26_linear_1019_13609" x1="65.4879" y1="30.8798" x2="74.5626" y2="67.3455" gradientUnits="userSpaceOnUse">
<stop offset="0.04" stop-color="white"/>
<stop offset="0.49" stop-color="#4DC1EA"/>
<stop offset="0.85" stop-color="#0078D4"/>
</linearGradient>
<linearGradient id="paint27_linear_1019_13609" x1="64.9862" y1="31.0036" x2="74.0618" y2="67.4708" gradientUnits="userSpaceOnUse">
<stop offset="0.04" stop-color="white"/>
<stop offset="0.49" stop-color="#4DC1EA"/>
<stop offset="0.85" stop-color="#0078D4"/>
</linearGradient>
<linearGradient id="paint28_linear_1019_13609" x1="64.4779" y1="31.1304" x2="73.5528" y2="67.5969" gradientUnits="userSpaceOnUse">
<stop offset="0.04" stop-color="white"/>
<stop offset="0.49" stop-color="#4DC1EA"/>
<stop offset="0.85" stop-color="#0078D4"/>
</linearGradient>
<linearGradient id="paint29_linear_1019_13609" x1="64.9797" y1="31.012" x2="74.053" y2="67.4697" gradientUnits="userSpaceOnUse">
<stop offset="0.04" stop-color="white"/>
<stop offset="0.49" stop-color="#4DC1EA"/>
<stop offset="0.85" stop-color="#0078D4"/>
</linearGradient>
<linearGradient id="paint30_linear_1019_13609" x1="64.478" y1="31.1315" x2="73.5515" y2="67.5902" gradientUnits="userSpaceOnUse">
<stop offset="0.04" stop-color="white"/>
<stop offset="0.49" stop-color="#4DC1EA"/>
<stop offset="0.85" stop-color="#0078D4"/>
</linearGradient>
<linearGradient id="paint31_linear_1019_13609" x1="63.9702" y1="31.2641" x2="73.0431" y2="67.721" gradientUnits="userSpaceOnUse">
<stop offset="0.04" stop-color="white"/>
<stop offset="0.49" stop-color="#4DC1EA"/>
<stop offset="0.85" stop-color="#0078D4"/>
</linearGradient>
<linearGradient id="paint32_linear_1019_13609" x1="63.4621" y1="31.3929" x2="72.535" y2="67.8498" gradientUnits="userSpaceOnUse">
<stop offset="0.04" stop-color="white"/>
<stop offset="0.49" stop-color="#4DC1EA"/>
<stop offset="0.85" stop-color="#0078D4"/>
</linearGradient>
<linearGradient id="paint33_linear_1019_13609" x1="62.954" y1="31.5172" x2="72.0278" y2="67.9757" gradientUnits="userSpaceOnUse">
<stop offset="0.04" stop-color="white"/>
<stop offset="0.49" stop-color="#4DC1EA"/>
<stop offset="0.85" stop-color="#0078D4"/>
</linearGradient>
<linearGradient id="paint34_linear_1019_13609" x1="62.4524" y1="31.6445" x2="71.5257" y2="68.1021" gradientUnits="userSpaceOnUse">
<stop offset="0.04" stop-color="white"/>
<stop offset="0.49" stop-color="#4DC1EA"/>
<stop offset="0.85" stop-color="#0078D4"/>
</linearGradient>
<linearGradient id="paint35_linear_1019_13609" x1="62.9461" y1="31.5136" x2="72.0199" y2="67.9709" gradientUnits="userSpaceOnUse">
<stop offset="0.04" stop-color="white"/>
<stop offset="0.49" stop-color="#4DC1EA"/>
<stop offset="0.85" stop-color="#0078D4"/>
</linearGradient>
<linearGradient id="paint36_linear_1019_13609" x1="62.4447" y1="31.639" x2="71.5188" y2="68.0978" gradientUnits="userSpaceOnUse">
<stop offset="0.04" stop-color="white"/>
<stop offset="0.49" stop-color="#4DC1EA"/>
<stop offset="0.85" stop-color="#0078D4"/>
</linearGradient>
<linearGradient id="paint37_linear_1019_13609" x1="61.9297" y1="31.7654" x2="71.0028" y2="68.2228" gradientUnits="userSpaceOnUse">
<stop offset="0.04" stop-color="white"/>
<stop offset="0.49" stop-color="#4DC1EA"/>
<stop offset="0.85" stop-color="#0078D4"/>
</linearGradient>
<linearGradient id="paint38_linear_1019_13609" x1="61.4282" y1="31.8941" x2="70.5013" y2="68.3515" gradientUnits="userSpaceOnUse">
<stop offset="0.04" stop-color="white"/>
<stop offset="0.49" stop-color="#4DC1EA"/>
<stop offset="0.85" stop-color="#0078D4"/>
</linearGradient>
<linearGradient id="paint39_linear_1019_13609" x1="60.9201" y1="32.025" x2="69.994" y2="68.4839" gradientUnits="userSpaceOnUse">
<stop offset="0.04" stop-color="white"/>
<stop offset="0.49" stop-color="#4DC1EA"/>
<stop offset="0.85" stop-color="#0078D4"/>
</linearGradient>
<linearGradient id="paint40_linear_1019_13609" x1="60.419" y1="32.1523" x2="69.4931" y2="68.6101" gradientUnits="userSpaceOnUse">
<stop offset="0.04" stop-color="white"/>
<stop offset="0.49" stop-color="#4DC1EA"/>
<stop offset="0.85" stop-color="#0078D4"/>
</linearGradient>
<linearGradient id="paint41_linear_1019_13609" x1="63.9696" y1="31.256" x2="73.0446" y2="67.7225" gradientUnits="userSpaceOnUse">
<stop offset="0.04" stop-color="white"/>
<stop offset="0.49" stop-color="#4DC1EA"/>
<stop offset="0.85" stop-color="#0078D4"/>
</linearGradient>
<linearGradient id="paint42_linear_1019_13609" x1="63.468" y1="31.3896" x2="72.5429" y2="67.8561" gradientUnits="userSpaceOnUse">
<stop offset="0.04" stop-color="white"/>
<stop offset="0.49" stop-color="#4DC1EA"/>
<stop offset="0.85" stop-color="#0078D4"/>
</linearGradient>
<linearGradient id="paint43_linear_1019_13609" x1="62.9597" y1="31.5169" x2="72.0347" y2="67.9834" gradientUnits="userSpaceOnUse">
<stop offset="0.04" stop-color="white"/>
<stop offset="0.49" stop-color="#4DC1EA"/>
<stop offset="0.85" stop-color="#0078D4"/>
</linearGradient>
<linearGradient id="paint44_linear_1019_13609" x1="62.4538" y1="31.6512" x2="71.5267" y2="68.1084" gradientUnits="userSpaceOnUse">
<stop offset="0.04" stop-color="white"/>
<stop offset="0.49" stop-color="#4DC1EA"/>
<stop offset="0.85" stop-color="#0078D4"/>
</linearGradient>
<linearGradient id="paint45_linear_1019_13609" x1="61.9523" y1="31.776" x2="71.0263" y2="68.2353" gradientUnits="userSpaceOnUse">
<stop offset="0.04" stop-color="white"/>
<stop offset="0.49" stop-color="#4DC1EA"/>
<stop offset="0.85" stop-color="#0078D4"/>
</linearGradient>
<linearGradient id="paint46_linear_1019_13609" x1="61.9443" y1="31.7706" x2="71.0176" y2="68.2282" gradientUnits="userSpaceOnUse">
<stop offset="0.04" stop-color="white"/>
<stop offset="0.49" stop-color="#4DC1EA"/>
<stop offset="0.85" stop-color="#0078D4"/>
</linearGradient>
<linearGradient id="paint47_linear_1019_13609" x1="61.4362" y1="31.8981" x2="70.5095" y2="68.3557" gradientUnits="userSpaceOnUse">
<stop offset="0.04" stop-color="white"/>
<stop offset="0.49" stop-color="#4DC1EA"/>
<stop offset="0.85" stop-color="#0078D4"/>
</linearGradient>
<linearGradient id="paint48_linear_1019_13609" x1="60.9347" y1="32.0259" x2="70.008" y2="68.4835" gradientUnits="userSpaceOnUse">
<stop offset="0.04" stop-color="white"/>
<stop offset="0.49" stop-color="#4DC1EA"/>
<stop offset="0.85" stop-color="#0078D4"/>
</linearGradient>
<linearGradient id="paint49_linear_1019_13609" x1="60.4265" y1="32.1522" x2="69.4997" y2="68.6101" gradientUnits="userSpaceOnUse">
<stop offset="0.04" stop-color="white"/>
<stop offset="0.49" stop-color="#4DC1EA"/>
<stop offset="0.85" stop-color="#0078D4"/>
</linearGradient>
<linearGradient id="paint50_linear_1019_13609" x1="59.9184" y1="32.2783" x2="68.9916" y2="68.7362" gradientUnits="userSpaceOnUse">
<stop offset="0.04" stop-color="white"/>
<stop offset="0.49" stop-color="#4DC1EA"/>
<stop offset="0.85" stop-color="#0078D4"/>
</linearGradient>
<linearGradient id="paint51_linear_1019_13609" x1="59.9109" y1="32.2788" x2="68.9847" y2="68.7361" gradientUnits="userSpaceOnUse">
<stop offset="0.04" stop-color="white"/>
<stop offset="0.49" stop-color="#4DC1EA"/>
<stop offset="0.85" stop-color="#0078D4"/>
</linearGradient>
<linearGradient id="paint52_linear_1019_13609" x1="59.4029" y1="32.4063" x2="68.4767" y2="68.8636" gradientUnits="userSpaceOnUse">
<stop offset="0.04" stop-color="white"/>
<stop offset="0.49" stop-color="#4DC1EA"/>
<stop offset="0.85" stop-color="#0078D4"/>
</linearGradient>
<linearGradient id="paint53_linear_1019_13609" x1="58.8948" y1="32.5336" x2="67.9689" y2="68.9914" gradientUnits="userSpaceOnUse">
<stop offset="0.04" stop-color="white"/>
<stop offset="0.49" stop-color="#4DC1EA"/>
<stop offset="0.85" stop-color="#0078D4"/>
</linearGradient>
<linearGradient id="paint54_linear_1019_13609" x1="58.3928" y1="32.66" x2="67.4657" y2="69.1174" gradientUnits="userSpaceOnUse">
<stop offset="0.04" stop-color="white"/>
<stop offset="0.49" stop-color="#4DC1EA"/>
<stop offset="0.85" stop-color="#0078D4"/>
</linearGradient>
<linearGradient id="paint55_linear_1019_13609" x1="57.8847" y1="32.7859" x2="66.9585" y2="69.245" gradientUnits="userSpaceOnUse">
<stop offset="0.04" stop-color="white"/>
<stop offset="0.49" stop-color="#4DC1EA"/>
<stop offset="0.85" stop-color="#0078D4"/>
</linearGradient>
</defs>
</svg>
