<svg width="106" height="106" viewBox="0 0 106 106" fill="none" xmlns="http://www.w3.org/2000/svg">
<g filter="url(#filter0_d)">
<circle cx="53" cy="53" r="49" fill="#5197D5"/>
<circle cx="53" cy="53" r="50.75" stroke="#F2F1F0" stroke-width="3.5"/>
</g>
<circle cx="53" cy="53" r="48" stroke="#0078D4" stroke-width="4"/>
<rect x="23" y="27" width="59" height="41" rx="0.6" fill="url(#paint0_linear)"/>
<path d="M65.0333 80.5443C59.1 79.5767 58.8666 75.1533 58.8666 68H47.1C47.1 75.1533 46.9 79.5767 40.9667 80.5443C39.2703 80.7389 37.9897 82.2306 38.0001 84H67.9999C68.0103 82.2306 66.7297 80.7389 65.0333 80.5443Z" fill="url(#paint1_linear)"/>
<rect x="51" y="34" width="21" height="3" rx="1.5" fill="#0DC9E9"/>
<rect x="51" y="41" width="13" height="3" rx="1.5" fill="#0DC9E9"/>
<rect x="30" y="61" width="5" height="5" fill="#0078D4"/>
<rect x="39" y="56" width="5" height="10" fill="#0078D4"/>
<rect x="48" y="51" width="5" height="15" fill="#0078D4"/>
<mask id="mask0" mask-type="alpha" maskUnits="userSpaceOnUse" x="60" y="49" width="16" height="16">
<path fill-rule="evenodd" clip-rule="evenodd" d="M60 56.9999C60 61.4183 63.5817 65 67.9999 65C72.4182 65 76 61.4183 76 56.9999H67.9999V49C63.5817 49 60 52.5816 60 56.9999Z" fill="white"/>
</mask>
<g mask="url(#mask0)">
<path fill-rule="evenodd" clip-rule="evenodd" d="M59 66H77V48H59V66Z" fill="#0266AB"/>
</g>
<mask id="mask1" mask-type="alpha" maskUnits="userSpaceOnUse" x="69" y="47" width="8" height="8">
<path fill-rule="evenodd" clip-rule="evenodd" d="M69 55H77C77 50.5817 73.4183 47 69 47V55Z" fill="white"/>
</mask>
<g mask="url(#mask1)">
<path fill-rule="evenodd" clip-rule="evenodd" d="M69.6665 55.2725H77.6665V46.2725H69.6665V55.2725Z" fill="#2C4A74"/>
</g>
<path d="M43.1407 46.961C43.7941 46.961 44.3237 46.4506 44.3237 45.8209V45.6859C43.9034 42.1156 41.7397 39.1904 37.677 39.1904C33.6142 39.1904 31.4505 41.6656 31.0458 45.7009C31.011 46.0036 31.1033 46.3071 31.3021 46.5439C31.5009 46.7806 31.7898 46.9308 32.1043 46.961H43.1407Z" fill="url(#paint2_linear)"/>
<path opacity="0.8" d="M37.5795 40.0101C36.8605 40.0104 36.1564 39.813 35.5508 39.4414L37.5795 44.4547L39.5614 39.5462C38.9592 39.8759 38.2724 40.0367 37.5795 40.0101Z" fill="white"/>
<circle cx="37.6812" cy="36.3081" r="3.88528" fill="url(#paint3_linear)"/>
<circle cx="37.5" cy="40.5" r="10" stroke="#0266AB"/>
<circle opacity="0.2" cx="63.0296" cy="52.0936" r="17.6355" transform="rotate(11.3104 63.0296 52.0936)" fill="white"/>
<path d="M89.0315 81.6149C89.2911 81.3843 89.3152 80.9872 89.0853 80.7269L74.2895 63.9701C74.0587 63.7088 73.6595 63.6845 73.3988 63.9161L71.2848 65.794C71.0252 66.0245 71.0011 66.4217 71.2309 66.682L86.0268 83.4388C86.2575 83.7001 86.6567 83.7243 86.9174 83.4928L89.0315 81.6149Z" fill="#C5CCCD"/>
<path fill-rule="evenodd" clip-rule="evenodd" d="M61.995 71.5325C51.5363 70.8939 43.5755 61.8978 44.2141 51.4391C44.8526 40.9804 53.8488 33.0196 64.3075 33.6582C74.7662 34.2968 82.727 43.2929 82.0884 53.7516C81.4498 64.2103 72.4537 72.1711 61.995 71.5325ZM62.4702 67.2591C54.3795 66.7651 48.2212 59.8058 48.7152 51.7151C49.2092 43.6244 56.1684 37.4661 64.2591 37.9601C72.3498 38.4541 78.5082 45.4133 78.0142 53.504C77.5202 61.5947 70.5609 67.7531 62.4702 67.2591Z" fill="#50E6FF"/>
<defs>
<filter id="filter0_d" x="0.5" y="0.5" width="105.5" height="105.5" filterUnits="userSpaceOnUse" color-interpolation-filters="sRGB">
<feFlood flood-opacity="0" result="BackgroundImageFix"/>
<feColorMatrix in="SourceAlpha" type="matrix" values="0 0 0 0 0 0 0 0 0 0 0 0 0 0 0 0 0 0 127 0"/>
<feOffset dx="0.5" dy="0.5"/>
<feColorMatrix type="matrix" values="0 0 0 0 0.823529 0 0 0 0 0.831373 0 0 0 0 0.835294 0 0 0 1 0"/>
<feBlend mode="normal" in2="BackgroundImageFix" result="effect1_dropShadow"/>
<feBlend mode="normal" in="SourceGraphic" in2="effect1_dropShadow" result="shape"/>
</filter>
<linearGradient id="paint0_linear" x1="82" y1="68" x2="82" y2="27" gradientUnits="userSpaceOnUse">
<stop stop-color="#D2EBFF"/>
<stop offset="1" stop-color="#F0FFFD"/>
</linearGradient>
<linearGradient id="paint1_linear" x1="68" y1="84" x2="68" y2="68" gradientUnits="userSpaceOnUse">
<stop offset="0.15" stop-color="#CCCCCC"/>
<stop offset="1" stop-color="#707070"/>
</linearGradient>
<linearGradient id="paint2_linear" x1="28.5851" y1="38.2454" x2="28.5851" y2="48.8811" gradientUnits="userSpaceOnUse">
<stop stop-color="#0483DA"/>
<stop offset="0.3" stop-color="#0266AB"/>
<stop offset="0.49" stop-color="#0266AB"/>
<stop offset="0.65" stop-color="#215494"/>
<stop offset="0.8" stop-color="#2C4A74"/>
<stop offset="0.93" stop-color="#2C4A74"/>
<stop offset="1" stop-color="#213A5E"/>
</linearGradient>
<linearGradient id="paint3_linear" x1="32.1052" y1="32.4879" x2="32.9506" y2="42.957" gradientUnits="userSpaceOnUse">
<stop stop-color="#0483DA"/>
<stop offset="0.3" stop-color="#0483DA"/>
<stop offset="0.49" stop-color="#0266AB"/>
<stop offset="0.65" stop-color="#0266AB"/>
<stop offset="0.8" stop-color="#0266AB"/>
<stop offset="0.93" stop-color="#2C4A74"/>
<stop offset="1" stop-color="#2C4A74"/>
</linearGradient>
</defs>
</svg>
