<svg width="181" height="191" viewBox="0 0 181 191" fill="none" xmlns="http://www.w3.org/2000/svg">
<path d="M90.9052 189.878C93.9652 189.878 96.9752 189.028 99.6352 187.408L161.605 149.748C167.145 146.378 170.575 140.048 170.575 133.208V58.4977C170.575 51.6777 167.145 45.3377 161.605 41.9577L99.6352 4.29769C94.3052 1.05769 87.4852 1.07769 82.1852 4.29769L20.2152 41.9777C14.6752 45.3477 11.2252 51.6777 11.2252 58.5177V133.218C11.2252 138.978 13.6752 144.398 17.7752 147.968V147.998L82.1852 187.428C84.8252 189.028 87.8452 189.878 90.9052 189.878ZM91.5552 8.82769C93.5052 8.82769 95.9852 10.0377 97.6952 11.0877L158.455 48.2777C162.205 50.5577 164.325 57.1577 164.325 61.9077L163.695 133.208C163.695 137.958 160.495 142.228 156.745 144.508L96.3452 180.888C92.9152 182.978 90.1252 182.978 86.6852 180.888L25.4752 144.418C21.7252 142.138 18.7052 137.938 18.7052 133.208V59.5677C18.7052 54.8277 21.4352 49.9377 25.2052 47.6477L85.7852 11.0877C87.4852 10.0477 89.6052 8.82769 91.5552 8.82769Z" fill="#F2F1F0"/>
<path fill-rule="evenodd" clip-rule="evenodd" d="M98.8052 12.4077C96.3552 10.9077 93.6352 10.1577 90.9052 10.1577C88.1752 10.1577 85.4552 10.9177 83.0052 12.4077L26.8752 46.7377C21.8552 49.8077 18.7452 55.5577 18.7452 61.8077V129.908C18.7452 136.138 21.8452 141.908 26.8752 144.978L83.0052 179.308C85.4552 180.808 88.1752 181.558 90.9052 181.558C93.6352 181.558 96.3552 180.818 98.8052 179.308L154.935 144.978C159.955 141.908 163.065 136.138 163.065 129.908V61.8077C163.065 55.5777 159.965 49.8277 154.935 46.7377L98.8052 12.4077Z" fill="url(#paint0_linear)"/>
<path opacity="0.15" d="M136.145 128.298C136.335 128.408 136.335 128.658 136.145 128.758L133.685 130.178L92.3053 154.208C91.7753 154.518 91.1053 154.508 90.5753 154.198L50.0753 130.008L47.6153 128.578C47.4253 128.468 47.4253 128.218 47.6153 128.118L91.0253 103.058C91.4653 102.808 92.0353 102.808 92.4753 103.058L136.145 128.298Z" fill="#1F1D20"/>
<path d="M133.335 125.018L91.1353 103.398L52.0853 124.858L47.5953 124.138C47.4353 124.028 47.5353 125.888 47.5353 126.108C47.5353 126.188 47.5853 126.298 47.6653 126.328L90.4953 151.058C91.0453 151.388 91.7553 151.388 92.2953 151.058L134.825 126.488C134.905 126.438 134.955 126.358 134.955 126.268C134.955 126.078 135.135 124.228 134.945 124.308L133.335 125.018Z" fill="url(#paint1_linear)"/>
<path d="M90.5053 149.238L47.6453 124.508C47.4853 124.398 47.4853 124.148 47.6453 124.048L90.4253 99.3677C90.8653 99.1177 91.4053 99.1177 91.8453 99.3677L134.885 124.208C135.045 124.318 135.045 124.568 134.885 124.668L92.3053 149.238C91.7253 149.568 91.0453 149.568 90.5053 149.238Z" fill="#0078D4"/>
<path fill-rule="evenodd" clip-rule="evenodd" d="M90.1234 39.1377L65.1413 24.783L65.4692 24.2123L90.7848 38.7586L116.062 24.2722L116.389 24.8432L91.4458 39.1384L116.25 53.3907L116.141 53.2023L141.121 38.8623L141.449 39.4331L116.692 53.645L141.076 67.656V67.6177H141.174L161.641 55.8623L161.969 56.4331L141.734 68.055V96.6524L163.052 84.4918L163.378 85.0635L141.734 97.4101V125.653L161.92 113.973L162.25 114.543L141.734 126.413V154.718H141.076V126.794L116.434 141.053V169.918H115.776V141.433L91.3144 155.588V182.768H90.6562V155.536L65.9444 141.265V169.538H65.2862V140.988H65.4645L40.9544 126.833V155.148H40.2962V126.453L18.2007 113.693L18.5298 113.123L40.2962 125.693V97.2149L40.2915 97.2231L18.7715 84.8731L19.0991 84.3022L40.2962 96.4669V68.1767L19.431 56.1528L19.7596 55.5825L40.5854 67.5837L40.5616 67.5422L65.0173 53.5263L40.0807 39.1227L40.4099 38.5527L65.5999 53.1027L65.5224 53.2368L90.1234 39.1377ZM90.7843 39.5175L40.9544 68.0757V126.073L90.8324 154.878H91.227L115.776 140.673V140.598H115.906L141.076 126.034V68.4152L90.7843 39.5175ZM40.7253 67.8277L40.6878 67.7624L40.6502 67.8277H40.7253Z" fill="#45CAF2"/>
<path d="M145.875 51.5277L94.9352 22.1177C94.1952 21.6877 93.5252 21.6477 93.0452 21.9377L89.4952 23.7977C89.9752 23.5177 90.6452 23.5577 91.3852 23.9877L142.325 53.3977C143.795 54.2477 144.975 56.2977 144.975 57.9877L144.865 96.7477C144.865 97.5877 144.565 98.1777 144.085 98.4477L147.635 96.5877C148.115 96.3077 148.405 95.7177 148.415 94.8877L148.525 56.1277C148.535 54.4377 147.345 52.3777 145.875 51.5277Z" fill="#0078D4"/>
<path d="M142.325 53.3877C143.795 54.2377 144.975 56.2877 144.975 57.9777L144.865 96.7377C144.865 98.4277 143.665 99.1077 142.195 98.2577L105.915 77.3077L97.2452 82.1577L97.2752 72.3177L91.2452 68.8377C89.7752 67.9877 88.5952 65.9377 88.5952 64.2477L88.7052 25.4877C88.7052 23.7977 89.9052 23.1177 91.3752 23.9677L142.325 53.3877Z" fill="#ACF3FD"/>
<path d="M119.575 69.2677C120.255 69.6177 120.755 70.5677 120.755 71.2677C120.755 72.0477 120.245 72.3177 119.575 71.9677L105.805 63.7777C105.125 63.4277 104.625 62.4777 104.625 61.6877C104.625 60.9077 105.135 60.6377 105.805 60.9877L119.575 69.2677Z" fill="#0078D4"/>
<path d="M119.655 61.0877C120.335 61.4377 120.835 62.3877 120.835 63.0877C120.835 63.8677 120.325 64.1377 119.655 63.7877L105.875 55.6077C105.195 55.2577 104.695 54.3077 104.695 53.5177C104.695 52.7277 105.205 52.4677 105.875 52.8177L119.655 61.0877Z" fill="#32B0E7"/>
<path d="M119.655 53.0777C120.335 53.4277 120.835 54.3777 120.835 55.0777C120.835 55.8577 120.325 56.1277 119.655 55.7777L105.875 47.5877C105.195 47.2377 104.695 46.2877 104.695 45.5077C104.695 44.7277 105.205 44.4577 105.875 44.8077L119.655 53.0777Z" fill="#45CAF2"/>
<path d="M130.815 57.3376L131.745 58.9876L126.075 62.2876L123.705 58.1076L124.635 57.5876L126.065 60.1076L130.815 57.3376Z" fill="#45CAF2"/>
<path d="M130.815 73.7877L131.745 75.4377L125.995 78.7377L123.715 74.5677L124.645 74.0477L125.995 76.5677L130.815 73.7877Z" fill="#0078D4"/>
<path d="M130.815 65.3477L131.745 66.9977L126.075 70.2977L123.705 66.1177L124.635 65.5977L126.065 68.1177L130.815 65.3477Z" fill="#32B0E7"/>
<path fill-rule="evenodd" clip-rule="evenodd" d="M90.9054 11.6277C92.5854 11.6277 94.4754 12.4977 96.5354 13.7477L155.005 49.2877C158.655 51.5077 161.065 55.7777 161.065 60.6077V131.088C161.065 135.908 158.655 140.188 155.005 142.408L96.5454 177.948C94.5854 179.138 92.6654 179.888 90.9154 179.888C89.1654 179.888 87.2454 179.138 85.2854 177.948L26.8054 142.418C24.7954 141.188 23.3454 139.988 22.3654 138.378C21.3854 136.778 20.7454 134.558 20.7454 131.098V60.6177C20.7454 55.7877 23.1554 51.5177 26.8054 49.2977L85.2654 13.7577C87.3554 12.5077 89.2154 11.6277 90.9054 11.6277ZM98.6154 181.378L157.075 145.838C161.995 142.848 165.055 137.228 165.055 131.098V60.6177C165.055 54.4877 161.995 48.8677 157.075 45.8777L98.6154 10.3377C96.5054 9.05769 93.7954 7.62769 90.9054 7.62769C88.0054 7.62769 85.2954 9.06769 83.2054 10.3277H83.1954L24.7254 45.8777C19.8054 48.8677 16.7454 54.4877 16.7454 60.6177V131.098C16.7454 135.058 17.4854 138.048 18.9454 140.458C20.4054 142.858 22.4654 144.458 24.7254 145.828L83.1854 181.368C85.4054 182.718 88.0754 183.898 90.8954 183.898C93.7154 183.898 96.3954 182.728 98.6154 181.378Z" fill="#092E4C"/>
<path d="M119.775 105.508L130.085 120.488L119.725 123.548L119.735 118.468L102.555 108.548L102.575 100.668L119.755 110.588L119.775 105.508Z" fill="#F2F1F0"/>
<path opacity="0.2" d="M57.9452 124.228L65.5352 120.778L97.0152 139.238L89.5152 142.688L57.9452 124.228Z" fill="#1F1D21"/>
<path d="M89.5052 97.6077L89.4152 140.388L57.8552 121.928L57.9452 79.1476L89.5052 97.6077Z" fill="#092E4C"/>
<path d="M89.5053 97.6077L97.0053 94.1577L96.9153 136.938L89.4153 140.388L89.5053 97.6077Z" fill="#092E4C"/>
<path d="M57.9452 79.1576L65.5352 75.7076L97.0152 94.1676L89.5152 97.6176L57.9452 79.1576Z" fill="#1C4C7A"/>
<path d="M81.3953 121.148C82.3453 121.668 83.1253 122.958 83.1253 124.078C83.1253 125.118 82.3453 125.548 81.3953 125.028C80.4453 124.508 79.6653 123.218 79.6653 122.098C79.6653 122.008 79.6653 121.928 79.6653 121.838C79.8453 120.978 80.5353 120.718 81.3953 121.148Z" fill="white"/>
<path d="M73.4653 116.578C74.3253 117.098 75.0153 118.128 75.1053 119.168C75.1053 119.258 75.1053 119.428 75.1053 119.508C75.1053 120.538 74.3253 120.978 73.3753 120.458C72.4253 119.938 71.6453 118.648 71.6453 117.528C71.6453 117.438 71.6453 117.358 71.6453 117.268C71.9153 116.408 72.6053 116.068 73.4653 116.578Z" fill="white"/>
<path d="M65.5352 112.008C66.3952 112.528 67.0852 113.558 67.1752 114.598C67.1752 114.688 67.1752 114.858 67.1752 114.938C67.1752 115.968 66.3952 116.408 65.4452 115.888C64.4952 115.368 63.7152 114.078 63.7152 112.958C63.8052 111.928 64.5852 111.498 65.5352 112.008C65.5352 112.008 65.4452 112.008 65.5352 112.008Z" fill="white"/>
<path d="M73.4652 97.8677C74.4152 98.3877 75.1952 99.6777 75.1952 100.798C75.1952 100.888 75.1952 100.888 75.1952 100.968C75.1052 101.918 74.4152 102.258 73.4652 101.748C72.6052 101.228 71.8252 100.018 71.8252 98.9877C71.8252 98.8977 71.8252 98.8977 71.8252 98.8177C71.8252 97.7777 72.6052 97.3477 73.4652 97.8677Z" fill="white"/>
<path d="M82.3452 123.308L82.6852 123.478C82.6952 123.308 82.5252 123.218 82.3452 123.308Z" stroke="white" stroke-width="0.3088" stroke-miterlimit="10"/>
<path d="M65.5353 113.568L81.4053 122.708V104.428L65.5353 95.2776V113.568Z" stroke="white" stroke-width="0.5" stroke-miterlimit="10"/>
<path d="M65.5353 102.608C66.4853 103.128 67.2653 104.418 67.2653 105.538C67.2653 106.578 66.4853 107.008 65.5353 106.488C64.5853 105.968 63.8953 104.678 63.8953 103.558C63.8053 102.528 64.5853 102.098 65.5353 102.608Z" fill="#45CAF2"/>
<path d="M81.4852 102.438C82.4352 102.958 83.2152 104.248 83.2152 105.368C83.2152 106.408 82.4352 106.838 81.4852 106.318C80.6252 105.798 79.9352 104.588 79.8452 103.558C79.8452 103.468 79.8452 103.468 79.8452 103.388C79.7652 102.348 80.5352 101.918 81.4852 102.438Z" fill="white"/>
<path d="M65.5353 93.2977C66.4853 93.8177 67.2653 95.1077 67.2653 96.2277C67.2653 96.3177 67.2653 96.3177 67.2653 96.3977C67.1753 97.3477 66.4853 97.6877 65.5353 97.1777C64.5853 96.5777 63.8953 95.2777 63.8953 94.2477C63.8953 93.1277 64.6653 92.6877 65.5353 93.2977Z" fill="white"/>
<path d="M73.4652 107.178C74.4152 107.698 75.1952 108.988 75.1952 110.108C75.1952 111.138 74.4152 111.578 73.4652 111.058C72.5152 110.538 71.7352 109.248 71.7352 108.128C71.8252 107.098 72.5152 106.668 73.4652 107.178Z" fill="#76CFEB"/>
<path d="M81.4053 111.838C82.3553 112.358 83.1353 113.648 83.1353 114.768C83.1353 115.808 82.3553 116.238 81.4053 115.718C80.4553 115.198 79.7653 113.908 79.7653 112.788C79.7653 111.668 80.4553 111.238 81.4053 111.838C81.4053 111.758 81.4053 111.758 81.4053 111.838Z" fill="#ACF3FD"/>
<path d="M90.1152 75.7877C90.1152 75.7877 90.1152 75.8777 90.2052 75.8777C90.1952 75.8777 90.1952 75.8777 90.1152 75.7877Z" fill="#2F78BC"/>
<path d="M67.5853 80.4577C67.5553 80.3977 67.4453 71.0077 67.4453 69.5377C67.4453 68.0677 68.4553 64.9977 71.5053 65.0377C74.5653 65.0777 78.1253 66.8577 82.0553 72.2677C85.9853 77.6877 86.7453 82.4177 86.9653 84.5077C87.1853 86.5977 86.8653 94.0277 86.8653 94.0277C86.8653 94.0277 87.3553 94.5577 87.5353 94.6077C87.7153 94.6577 87.8153 94.7477 87.8153 94.7477L89.2453 90.2077L88.7653 81.2077L84.7153 71.0977L78.5153 65.3077L71.5353 62.0577L65.9953 63.7577C65.9953 63.7577 63.8453 66.3677 63.6253 66.7777C63.4053 67.1877 62.7753 71.1977 62.7753 71.5777C62.7753 71.9477 63.0153 80.9377 63.0153 80.9377C63.0153 80.9377 63.0953 81.1777 63.8353 81.4377C64.5853 81.6977 65.9253 81.6277 66.6353 81.3077C67.3553 80.9877 67.6253 80.5277 67.5853 80.4577Z" fill="#092E4C"/>
<path d="M62.4952 80.3577C62.4952 80.3577 62.4952 72.1877 62.4952 70.5277C62.4952 68.8777 62.9852 62.0777 68.4252 60.6677C73.8652 59.2477 75.2052 60.2677 79.7952 62.7777C84.3852 65.2877 88.8952 72.3977 90.2852 75.8677C91.6752 79.3377 92.3552 82.4477 92.3552 85.2677C92.3552 88.0877 92.3552 93.6377 92.3552 93.6377C92.3552 93.6377 92.0452 94.7777 90.6652 95.0377C89.2852 95.2977 88.2552 94.9477 88.1152 94.9377C87.9752 94.9277 87.8152 94.7477 87.8152 94.7477C87.8152 94.7477 87.8152 87.2577 87.8152 85.8277C87.8152 84.3977 87.2352 78.3677 83.7452 73.1677C80.2552 67.9577 77.7752 66.3677 75.4052 65.0277C73.0352 63.6877 70.2852 62.8777 67.4452 63.9677C64.6052 65.0677 63.5252 67.9577 63.3252 69.9577C63.1152 71.9577 63.2952 81.2177 63.2952 81.2177C63.2952 81.2177 62.7752 81.1977 62.4952 80.3577Z" fill="#185A98"/>
<defs>
<linearGradient id="paint0_linear" x1="90.9051" y1="10.1577" x2="90.9051" y2="181.558" gradientUnits="userSpaceOnUse">
<stop stop-color="#00ABDE"/>
<stop offset="1" stop-color="#007ED8"/>
</linearGradient>
<linearGradient id="paint1_linear" x1="79.9406" y1="83.8893" x2="97.7988" y2="149.086" gradientUnits="userSpaceOnUse">
<stop offset="0.0787" stop-color="#0078D4"/>
<stop offset="0.4289" stop-color="#16528B"/>
<stop offset="0.7428" stop-color="#243A5E"/>
<stop offset="0.9677" stop-color="#1A2C45"/>
</linearGradient>
</defs>
</svg>
