<svg width="181" height="190" viewBox="0 0 181 190" fill="none" xmlns="http://www.w3.org/2000/svg">
<g clip-path="url(#clip0_2141_2083)">
<path d="M91.005 189.001C94.065 189.001 97.075 188.151 99.735 186.531L161.705 148.871C167.245 145.501 170.675 139.171 170.675 132.331V57.6213C170.675 50.8013 167.245 44.4613 161.705 41.0813L99.735 3.42129C94.405 0.181285 87.585 0.201285 82.285 3.42129L20.315 41.1013C14.775 44.4713 11.325 50.8013 11.325 57.6413V132.341C11.325 138.101 13.775 143.521 17.875 147.091V147.121L82.285 186.551C84.925 188.151 87.945 189.001 91.005 189.001ZM91.655 7.95128C93.605 7.95128 96.085 9.16128 97.795 10.2113L158.555 47.4013C162.305 49.6813 164.425 56.2813 164.425 61.0313L163.795 132.331C163.795 137.081 160.595 141.351 156.845 143.631L96.445 180.011C93.015 182.101 90.225 182.101 86.785 180.011L25.575 143.541C21.825 141.261 18.805 137.061 18.805 132.331V58.6913C18.805 53.9513 21.535 49.0613 25.305 46.7713L85.8849 10.2113C87.5849 9.17128 89.705 7.95128 91.655 7.95128Z" fill="#F2F1F0"/>
<g filter="url(#filter0_ddd_2141_2083)">
<path fill-rule="evenodd" clip-rule="evenodd" d="M98.8998 11.55C96.4498 10.05 93.7298 9.30005 90.9998 9.30005C88.2698 9.30005 85.5498 10.06 83.0998 11.55L26.9698 45.8801C21.9498 48.9501 18.8398 54.7001 18.8398 60.9501V129.05C18.8398 135.28 21.9398 141.05 26.9698 144.12L83.0998 178.45C85.5498 179.95 88.2698 180.7 90.9998 180.7C93.7298 180.7 96.4498 179.96 98.8998 178.45L155.03 144.12C160.05 141.05 163.16 135.28 163.16 129.05V60.9501C163.16 54.7201 160.06 48.9701 155.03 45.8801L98.8998 11.55Z" fill="white"/>
</g>
<path opacity="0.4" d="M121.455 96.4851L161.795 96.4351V95.5351L121.475 94.5551L161.795 91.9551V91.0551L121.365 92.6151L161.795 87.4151V86.5251L121.165 90.7051L161.795 82.8251V81.9351L120.805 88.7951L161.795 78.1151V77.2451L120.355 86.9251L161.795 73.2551V72.3951L119.765 85.0751L161.795 68.1951V67.3651L119.075 83.2651L161.795 62.8651V62.0651L118.265 81.4951L161.595 57.3151C161.555 57.0851 161.515 56.8651 161.465 56.6351L117.335 79.8051L159.815 52.4351C159.705 52.2551 159.595 52.0651 159.475 51.8851L116.305 78.1551L156.305 48.6551C156.115 48.5251 155.935 48.3751 155.745 48.2551H155.725L115.185 76.5851L151.755 45.8351L151.105 45.4351L113.955 75.0751L147.365 43.1651L146.705 42.7651L112.675 73.6651L143.135 40.5951L142.435 40.1751L111.225 72.3451L138.995 38.0951L138.295 37.6751L109.735 71.1151L134.935 35.6351L134.235 35.2151L108.175 69.9951L130.935 33.2151L130.225 32.7851L106.555 68.9451L126.935 30.7851L126.225 30.3551L104.845 67.9951L122.905 28.3351L122.205 27.9051L103.095 67.1851L118.825 25.8551L118.125 25.4351L101.285 66.4751L114.655 23.3351L113.975 22.9251L99.4451 65.8951L110.355 20.7151L109.695 20.3151L97.5851 65.3951L105.885 17.9751L105.255 17.5851L95.6951 65.0351L101.205 15.1251L100.595 14.7551L93.7651 64.7851L96.2251 12.1051C96.0351 11.9951 95.8451 11.8851 95.6651 11.7851L91.8351 64.6751L90.9251 10.2151C90.7451 10.2151 90.5651 10.2251 90.3851 10.2451L89.8951 64.6751L85.6751 12.1651C85.5651 12.2251 85.4651 12.2851 85.3651 12.3451L85.1051 12.5051L87.9551 64.8151L80.7651 15.1451L80.1551 15.5151L86.0451 65.0651L76.1351 17.9551L75.4951 18.3451L84.1551 65.4451L71.7051 20.6451L71.0351 21.0551L82.2651 65.9351L67.4351 23.2451L66.7551 23.6551L80.4451 66.5451L63.2951 25.7551L62.5951 26.1751L78.6451 67.2551L59.2451 28.2251L58.5351 28.6551L76.8951 68.1151L55.2151 30.6651L54.5051 31.0951L75.1951 69.0551L51.2251 33.0951L50.5151 33.5251L73.5851 70.1151L47.2151 35.5351L46.5151 35.9651L72.0351 71.2651L43.1451 38.0051L42.4451 38.4351L70.5451 72.5251L38.9951 40.5351L38.3151 40.9451L69.1551 73.8551L34.7251 43.1251L34.0551 43.5251L67.8351 75.2651L30.3051 45.8151L29.6551 46.2151L66.6351 76.8051L25.6951 48.6751C25.5051 48.8051 25.3051 48.9351 25.1251 49.0851L65.5151 78.3851L22.1551 52.4751C22.0451 52.6551 21.9251 52.8351 21.8251 53.0251L64.5051 80.0151L20.3851 57.3351C20.3451 57.5651 20.3051 57.7951 20.2851 58.0351L63.5951 81.7251L20.1851 62.7951V63.6051L62.7851 83.5151L20.1851 68.0451V68.8751L62.1151 85.3151L20.1851 73.0551V73.9151L61.5451 87.1551L20.1851 77.8551V78.7351L61.0951 89.0351L20.1851 82.5351V83.4151L60.7851 90.9351L20.1851 87.1051V88.0051L60.5551 92.8551L20.1851 91.6251V92.5251L60.4951 94.7951L20.1851 96.1351V97.0351L60.5151 96.7351L20.1851 100.625V101.525L60.6951 98.6651L20.1851 105.195V106.085L60.9651 100.575L20.1851 109.835V110.715L61.3651 102.465L20.1851 114.615V115.485L61.8851 104.345L20.1851 119.565V120.415L62.5351 106.185L20.1851 124.755V125.555L63.2851 107.945L20.1851 130.225V130.885C20.1851 130.885 20.1851 130.965 20.1851 131.005L64.1551 109.695L20.7651 135.715C20.8251 135.935 20.8851 136.135 20.9551 136.335L65.1251 111.355L23.4351 140.125C23.5951 140.275 23.7651 140.425 23.9351 140.565L66.2051 112.975L27.8651 143.185L28.4951 143.565L67.3951 114.495L32.3451 145.905L32.9951 146.305L68.6551 115.945L36.6651 148.535L37.3451 148.955L70.0251 117.345L40.8451 151.085L41.5251 151.495L71.4651 118.605L44.9251 153.565L45.6251 153.995L72.9951 119.805L48.9551 156.025L49.6651 156.455L74.5951 120.915L52.9651 158.465L53.6751 158.895L76.2651 121.905L56.9851 160.905L57.6951 161.335L77.9951 122.785L61.0351 163.365L61.7351 163.785L79.7751 123.545L65.1651 165.865L65.8551 166.285L81.5951 124.195L69.4051 168.445L70.0751 168.855L83.4551 124.735L73.8051 171.115L74.4551 171.515L85.3451 125.165L78.3751 173.895L78.9951 174.275L87.2551 125.455L83.2251 176.845L83.8051 177.205L89.1851 125.645L88.3851 179.615C88.5651 179.675 88.7551 179.735 88.9351 179.785L91.1251 125.685L93.7351 179.565C93.9151 179.505 94.0951 179.425 94.2751 179.355L93.0251 125.625L98.8051 176.825L99.3951 176.465L94.9651 125.425L103.565 173.935L104.185 173.555L96.8751 125.135L108.095 171.185L108.755 170.785L98.7651 124.685L112.445 168.545L113.115 168.135L100.615 124.145L116.645 165.985L117.335 165.565L102.435 123.465L120.755 163.485L121.455 163.055L104.215 122.675L124.805 161.025L125.505 160.595L105.925 121.775L128.815 158.585L129.515 158.155L107.575 120.785L132.825 156.155L133.535 155.725L109.185 119.685L136.875 153.695L137.575 153.275L110.695 118.475L140.995 151.205L141.685 150.785L112.135 117.195L145.195 148.655L145.875 148.245L113.495 115.805L149.565 146.005L150.215 145.605L114.745 114.345L154.095 143.245L154.725 142.865L115.915 112.795L158.385 140.035C158.525 139.875 158.655 139.705 158.795 139.545L116.975 111.205L160.995 135.625C161.065 135.415 161.135 135.205 161.195 134.985L117.945 109.515L161.815 130.345V129.565L118.795 107.765L161.815 124.945V124.135L119.545 105.985L161.815 119.815V118.975L120.175 104.165L161.815 114.915V114.035L120.665 102.275L161.815 110.165V109.285L121.045 100.385L161.815 105.545V104.655L121.345 98.4751L161.815 101.005V100.105L121.475 96.5351L121.455 96.4851Z" fill="url(#paint0_angular_2141_2083)"/>
<path d="M97.3299 26.35C95.6299 25.32 93.4199 24.15 91.0499 24.15C88.6799 24.15 86.4799 25.32 84.7999 26.33C84.7899 26.33 84.7799 26.33 84.7699 26.34L37.6399 55C33.6399 57.43 31.1499 62 31.1499 66.99V123.8C31.1499 127.01 31.7499 129.44 32.9399 131.41C34.1299 133.37 35.8099 134.67 37.6399 135.78L84.7599 164.43C86.5599 165.52 88.7299 166.49 91.0399 166.49C93.3499 166.49 95.5299 165.53 97.3299 164.44L144.45 135.79C148.45 133.36 150.94 128.79 150.94 123.81V66.99C150.94 62.01 148.45 57.44 144.45 55L97.3299 26.35Z" fill="url(#paint1_linear_2141_2083)" stroke="black" stroke-width="0.3" stroke-linejoin="round"/>
<g filter="url(#filter1_d_2141_2083)">
<path d="M96.8763 31.0556C95.2868 30.0932 93.2206 29 91.0047 29C88.7973 29 86.7477 30.0848 85.1793 31.0261C85.1673 31.0332 85.1541 31.034 85.1415 31.0401V31.0401C85.136 31.0428 85.1304 31.0479 85.1252 31.0511L41.068 57.8257C37.3281 60.0962 35 64.3664 35 69.0289V122.111C35 125.111 35.561 127.381 36.6736 129.222C37.7862 131.053 39.357 132.268 41.068 133.305L85.1237 160.075C86.8067 161.094 88.8355 162 90.9953 162C93.1551 162 95.1933 161.103 96.8763 160.085L140.932 133.314C144.672 131.044 147 126.774 147 122.121V69.0289C147 64.3757 144.672 60.1056 140.932 57.8257L96.8763 31.0556Z" fill="white"/>
<path d="M96.9542 30.9275L96.954 30.9273C95.3633 29.9642 93.2657 28.85 91.0047 28.85C88.7572 28.85 86.6803 29.951 85.1121 30.8914L85.1044 30.8938C85.0972 30.8962 85.0871 30.8998 85.0759 30.9053C85.067 30.9096 85.06 30.9139 85.0553 30.917C85.0506 30.9201 85.0467 30.9229 85.0448 30.9243L85.0438 30.925L40.9901 57.6975C37.2024 59.997 34.85 64.3176 34.85 69.0289V122.111C34.85 125.13 35.4147 127.429 36.5452 129.299L36.5454 129.3C37.676 131.161 39.2701 132.391 40.9902 133.433L85.0458 160.203L85.0461 160.203C86.738 161.227 88.7952 162.15 90.9953 162.15C93.1951 162.15 95.2614 161.237 96.9539 160.213L96.9542 160.213L141.01 133.443C141.01 133.443 141.01 133.443 141.01 133.443C144.798 131.143 147.15 126.823 147.15 122.121V69.0289C147.15 64.3268 144.797 60.0065 141.01 57.6976L141.01 57.6975L96.9542 30.9275Z" stroke="black" stroke-width="0.3" stroke-linejoin="round"/>
</g>
<g filter="url(#filter2_dddd_2141_2083)">
<mask id="mask0_2141_2083" style="mask-type:luminance" maskUnits="userSpaceOnUse" x="54" y="58" width="74" height="74">
<path d="M127.921 58.0789H54.0791V131.921H127.921V58.0789Z" fill="white"/>
</mask>
<g mask="url(#mask0_2141_2083)">
<path d="M108.109 68.0172C107.082 64.8437 104.126 62.694 100.791 62.694H98.2468C94.5289 62.694 91.3433 65.3531 90.6788 69.0112L87.0762 88.844L88.1696 85.1338C89.1337 81.8622 92.1371 79.6162 95.5477 79.6162H108.378L113.906 82.3632L119.236 79.6162H117.459C114.123 79.6162 111.168 77.4664 110.14 74.293L108.109 68.0172Z" fill="url(#paint2_radial_2141_2083)"/>
<path d="M74.6878 121.948C75.7043 125.139 78.6682 127.305 82.0167 127.305H86.9982C91.2222 127.305 94.656 123.899 94.6899 119.675L94.8365 101.405L93.7992 104.888C92.8281 108.149 89.8298 110.384 86.4273 110.384H73.5005L68.7617 107.223L63.6313 110.384H65.3813C68.7299 110.384 71.6937 112.551 72.7103 115.741L74.6878 121.948Z" fill="url(#paint3_radial_2141_2083)"/>
<path d="M100.232 62.694H73.3105C65.6186 62.694 61.0035 72.6934 57.9267 82.6929C54.2816 94.5397 49.5118 110.384 63.311 110.384H75.0217C78.4477 110.384 81.4585 108.126 82.4146 104.836C84.4359 97.8808 87.9772 85.7499 90.759 76.5149C92.1728 71.8213 93.3505 67.7902 95.1579 65.2799C96.1712 63.8725 97.8601 62.694 100.232 62.694Z" fill="url(#paint4_linear_2141_2083)"/>
<path d="M100.232 62.694H73.3105C65.6186 62.694 61.0035 72.6934 57.9267 82.6929C54.2816 94.5397 49.5118 110.384 63.311 110.384H75.0217C78.4477 110.384 81.4585 108.126 82.4146 104.836C84.4359 97.8808 87.9772 85.7499 90.759 76.5149C92.1728 71.8213 93.3505 67.7902 95.1579 65.2799C96.1712 63.8725 97.8601 62.694 100.232 62.694Z" fill="url(#paint5_linear_2141_2083)"/>
<path d="M81.7656 127.306H108.687C116.379 127.306 120.994 117.306 124.071 107.307C127.716 95.4599 132.486 79.6158 118.687 79.6158H106.976C103.55 79.6158 100.539 81.8733 99.5833 85.1633C97.562 92.1188 94.0206 104.25 91.2388 113.485C89.825 118.178 88.6473 122.209 86.8399 124.72C85.8266 126.127 84.1377 127.306 81.7656 127.306Z" fill="url(#paint6_radial_2141_2083)"/>
<path d="M81.7656 127.306H108.687C116.379 127.306 120.994 117.306 124.071 107.307C127.716 95.4599 132.486 79.6158 118.687 79.6158H106.976C103.55 79.6158 100.539 81.8733 99.5833 85.1633C97.562 92.1188 94.0206 104.25 91.2388 113.485C89.825 118.178 88.6473 122.209 86.8399 124.72C85.8266 126.127 84.1377 127.306 81.7656 127.306Z" fill="url(#paint7_linear_2141_2083)"/>
</g>
</g>
<path fill-rule="evenodd" clip-rule="evenodd" d="M91.0047 10.865C92.6847 10.865 94.5747 11.735 96.6347 12.985L155.105 48.525C158.755 50.745 161.165 55.015 161.165 59.845V130.325C161.165 135.145 158.755 139.425 155.105 141.645L96.6447 177.185C94.6847 178.375 92.7647 179.125 91.0147 179.125C89.2647 179.125 87.3447 178.375 85.3847 177.185L26.9047 141.655C24.8947 140.425 23.4447 139.225 22.4647 137.615C21.4847 136.015 20.8447 133.795 20.8447 130.335V59.855C20.8447 55.025 23.2547 50.755 26.9047 48.535L85.3647 12.995C87.4547 11.745 89.3147 10.865 91.0047 10.865ZM98.7147 180.615L157.175 145.075C162.095 142.085 165.155 136.465 165.155 130.335V59.855C165.155 53.725 162.095 48.105 157.175 45.115L98.7147 9.57499C96.6047 8.29499 93.8947 6.86499 91.0047 6.86499C88.1047 6.86499 85.3947 8.30499 83.3047 9.56499H83.2947L24.8247 45.115C19.9047 48.105 16.8447 53.725 16.8447 59.855V130.335C16.8447 134.295 17.5847 137.285 19.0447 139.695C20.5047 142.095 22.5647 143.695 24.8247 145.065L83.2847 180.605C85.5047 181.955 88.1747 183.135 90.9947 183.135C93.8147 183.135 96.4947 181.965 98.7147 180.615Z" fill="url(#paint8_linear_2141_2083)" stroke="black" stroke-width="0.3" stroke-linejoin="round"/>
</g>
<defs>
<filter id="filter0_ddd_2141_2083" x="10.8172" y="7.07155" width="155.017" height="177.194" filterUnits="userSpaceOnUse" color-interpolation-filters="sRGB">
<feFlood flood-opacity="0" result="BackgroundImageFix"/>
<feColorMatrix in="SourceAlpha" type="matrix" values="0 0 0 0 0 0 0 0 0 0 0 0 0 0 0 0 0 0 127 0" result="hardAlpha"/>
<feOffset dx="-1.7828" dy="1.7828"/>
<feGaussianBlur stdDeviation="0.8914"/>
<feComposite in2="hardAlpha" operator="out"/>
<feColorMatrix type="matrix" values="0 0 0 0 0.85098 0 0 0 0 0.85098 0 0 0 0 0.839216 0 0 0 1 0"/>
<feBlend mode="multiply" in2="BackgroundImageFix" result="effect1_dropShadow_2141_2083"/>
<feColorMatrix in="SourceAlpha" type="matrix" values="0 0 0 0 0 0 0 0 0 0 0 0 0 0 0 0 0 0 127 0" result="hardAlpha"/>
<feOffset dx="-5.3484" dy="0.8914"/>
<feGaussianBlur stdDeviation="1.3371"/>
<feComposite in2="hardAlpha" operator="out"/>
<feColorMatrix type="matrix" values="0 0 0 0 0.85098 0 0 0 0 0.85098 0 0 0 0 0.839216 0 0 0 1 0"/>
<feBlend mode="multiply" in2="effect1_dropShadow_2141_2083" result="effect2_dropShadow_2141_2083"/>
<feColorMatrix in="SourceAlpha" type="matrix" values="0 0 0 0 0 0 0 0 0 0 0 0 0 0 0 0 0 0 127 0" result="hardAlpha"/>
<feOffset dx="0.8914" dy="-0.4457"/>
<feGaussianBlur stdDeviation="0.8914"/>
<feComposite in2="hardAlpha" operator="out"/>
<feColorMatrix type="matrix" values="0 0 0 0 0.85098 0 0 0 0 0.85098 0 0 0 0 0.839216 0 0 0 1 0"/>
<feBlend mode="screen" in2="effect2_dropShadow_2141_2083" result="effect3_dropShadow_2141_2083"/>
<feBlend mode="normal" in="SourceGraphic" in2="effect3_dropShadow_2141_2083" result="shape"/>
</filter>
<filter id="filter1_d_2141_2083" x="30.7002" y="26.7" width="120.6" height="141.6" filterUnits="userSpaceOnUse" color-interpolation-filters="sRGB">
<feFlood flood-opacity="0" result="BackgroundImageFix"/>
<feColorMatrix in="SourceAlpha" type="matrix" values="0 0 0 0 0 0 0 0 0 0 0 0 0 0 0 0 0 0 127 0" result="hardAlpha"/>
<feOffset dy="2"/>
<feGaussianBlur stdDeviation="2"/>
<feComposite in2="hardAlpha" operator="out"/>
<feColorMatrix type="matrix" values="0 0 0 0 0 0 0 0 0 0 0 0 0 0 0 0 0 0 0.25 0"/>
<feBlend mode="normal" in2="BackgroundImageFix" result="effect1_dropShadow_2141_2083"/>
<feBlend mode="normal" in="SourceGraphic" in2="effect1_dropShadow_2141_2083" result="shape"/>
</filter>
<filter id="filter2_dddd_2141_2083" x="52.0791" y="61.694" width="88.8423" height="85.6117" filterUnits="userSpaceOnUse" color-interpolation-filters="sRGB">
<feFlood flood-opacity="0" result="BackgroundImageFix"/>
<feColorMatrix in="SourceAlpha" type="matrix" values="0 0 0 0 0 0 0 0 0 0 0 0 0 0 0 0 0 0 127 0" result="hardAlpha"/>
<feOffset dy="1"/>
<feGaussianBlur stdDeviation="1"/>
<feColorMatrix type="matrix" values="0 0 0 0 0 0 0 0 0 0 0 0 0 0 0 0 0 0 0.1 0"/>
<feBlend mode="normal" in2="BackgroundImageFix" result="effect1_dropShadow_2141_2083"/>
<feColorMatrix in="SourceAlpha" type="matrix" values="0 0 0 0 0 0 0 0 0 0 0 0 0 0 0 0 0 0 127 0" result="hardAlpha"/>
<feOffset dx="2" dy="3"/>
<feGaussianBlur stdDeviation="2"/>
<feColorMatrix type="matrix" values="0 0 0 0 0 0 0 0 0 0 0 0 0 0 0 0 0 0 0.09 0"/>
<feBlend mode="normal" in2="effect1_dropShadow_2141_2083" result="effect2_dropShadow_2141_2083"/>
<feColorMatrix in="SourceAlpha" type="matrix" values="0 0 0 0 0 0 0 0 0 0 0 0 0 0 0 0 0 0 127 0" result="hardAlpha"/>
<feOffset dx="4" dy="8"/>
<feGaussianBlur stdDeviation="2.5"/>
<feColorMatrix type="matrix" values="0 0 0 0 0 0 0 0 0 0 0 0 0 0 0 0 0 0 0.05 0"/>
<feBlend mode="normal" in2="effect2_dropShadow_2141_2083" result="effect3_dropShadow_2141_2083"/>
<feColorMatrix in="SourceAlpha" type="matrix" values="0 0 0 0 0 0 0 0 0 0 0 0 0 0 0 0 0 0 127 0" result="hardAlpha"/>
<feOffset dx="7" dy="14"/>
<feGaussianBlur stdDeviation="3"/>
<feColorMatrix type="matrix" values="0 0 0 0 0 0 0 0 0 0 0 0 0 0 0 0 0 0 0.01 0"/>
<feBlend mode="normal" in2="effect3_dropShadow_2141_2083" result="effect4_dropShadow_2141_2083"/>
<feBlend mode="normal" in="SourceGraphic" in2="effect4_dropShadow_2141_2083" result="shape"/>
</filter>
<radialGradient id="paint0_angular_2141_2083" cx="0" cy="0" r="1" gradientUnits="userSpaceOnUse" gradientTransform="translate(91.0001 95.0001) rotate(2.9352) scale(83.5507 99.9538)">
<stop offset="0.00225713" stop-color="#3AD1F5"/>
<stop offset="0.0734646" stop-color="#6B4D9A"/>
<stop offset="0.229287" stop-color="#A27FE1"/>
<stop offset="0.3743" stop-color="#0883D9"/>
<stop offset="0.537097" stop-color="#AA80E2"/>
<stop offset="0.718469" stop-color="#2370C8"/>
<stop offset="1" stop-color="#3AD1F5"/>
</radialGradient>
<linearGradient id="paint1_linear_2141_2083" x1="116.084" y1="157.095" x2="57.5453" y2="26.269" gradientUnits="userSpaceOnUse">
<stop stop-color="#6B4D9A"/>
<stop offset="0.33" stop-color="#A27FE1"/>
<stop offset="0.51" stop-color="#5581DD"/>
<stop offset="0.655" stop-color="#0883D9"/>
<stop offset="0.955" stop-color="#3AD1F5"/>
</linearGradient>
<radialGradient id="paint2_radial_2141_2083" cx="0" cy="0" r="1" gradientUnits="userSpaceOnUse" gradientTransform="translate(114.553 89.0149) rotate(-130.498) scale(28.0631 26.587)">
<stop offset="0.0955758" stop-color="#00AEFF"/>
<stop offset="0.773185" stop-color="#2253CE"/>
<stop offset="1" stop-color="#0736C4"/>
</radialGradient>
<radialGradient id="paint3_radial_2141_2083" cx="0" cy="0" r="1" gradientUnits="userSpaceOnUse" gradientTransform="translate(69.2927 109.933) rotate(50.1259) scale(25.4507 25.003)">
<stop stop-color="#FFB657"/>
<stop offset="0.633728" stop-color="#FF5F3D"/>
<stop offset="0.923392" stop-color="#C02B3C"/>
</radialGradient>
<linearGradient id="paint4_linear_2141_2083" x1="71.6992" y1="68.4725" x2="75.4166" y2="112.194" gradientUnits="userSpaceOnUse">
<stop offset="0.156162" stop-color="#0D91E1"/>
<stop offset="0.487484" stop-color="#52B471"/>
<stop offset="0.652394" stop-color="#98BD42"/>
<stop offset="0.937361" stop-color="#FFC800"/>
</linearGradient>
<linearGradient id="paint5_linear_2141_2083" x1="75.0562" y1="62.694" x2="77.0857" y2="110.387" gradientUnits="userSpaceOnUse">
<stop stop-color="#3DCBFF"/>
<stop offset="0.246674" stop-color="#0588F7" stop-opacity="0"/>
</linearGradient>
<radialGradient id="paint6_radial_2141_2083" cx="0" cy="0" r="1" gradientUnits="userSpaceOnUse" gradientTransform="translate(120.07 74.9467) rotate(109.574) scale(63.4838 77.0452)">
<stop offset="0.0661714" stop-color="#8C48FF"/>
<stop offset="0.5" stop-color="#F2598A"/>
<stop offset="0.895833" stop-color="#FFB152"/>
</radialGradient>
<linearGradient id="paint7_linear_2141_2083" x1="122.197" y1="76.7043" x2="122.17" y2="89.6933" gradientUnits="userSpaceOnUse">
<stop offset="0.0581535" stop-color="#F8ADFA"/>
<stop offset="0.708063" stop-color="#A86EDD" stop-opacity="0"/>
</linearGradient>
<linearGradient id="paint8_linear_2141_2083" x1="122" y1="171.5" x2="49.4962" y2="9.50173" gradientUnits="userSpaceOnUse">
<stop stop-color="#6B4D9A"/>
<stop offset="0.33" stop-color="#A27FE1"/>
<stop offset="0.51" stop-color="#5581DD"/>
<stop offset="0.655" stop-color="#0883D9"/>
<stop offset="0.955" stop-color="#3AD1F5"/>
</linearGradient>
<clipPath id="clip0_2141_2083">
<rect width="180" height="190" fill="white" transform="translate(0.548096)"/>
</clipPath>
</defs>
</svg>
