<svg width="100" height="100" viewBox="0 0 100 100" fill="none" xmlns="http://www.w3.org/2000/svg">
<g clip-path="url(#clip0_364_5545)">
<path d="M49.6401 96.4499C40.382 96.4499 31.3317 93.7045 23.6339 88.561C15.936 83.4174 9.93624 76.1067 6.3933 67.5533C2.85036 58.9999 1.92337 49.588 3.72954 40.5077C5.53571 31.4275 9.99394 23.0867 16.5404 16.5402C23.0869 9.99372 31.4277 5.5355 40.5079 3.72933C49.5882 1.92315 59.0001 2.85015 67.5535 6.39308C76.1069 9.93602 83.4176 15.9358 88.5612 23.6336C93.7047 31.3315 96.4501 40.3817 96.4501 49.6399C96.4505 55.7872 95.24 61.8744 92.8878 67.5538C90.5355 73.2332 87.0875 78.3937 82.7407 82.7405C78.3939 87.0873 73.2335 90.5353 67.554 92.8876C61.8746 95.2398 55.7874 96.4503 49.6401 96.4499V96.4499Z" fill="url(#paint0_linear_364_5545)"/>
<path fill-rule="evenodd" clip-rule="evenodd" d="M95.54 49.6399C95.54 58.718 92.848 67.5923 87.8045 75.1406C82.7609 82.6888 75.5923 88.5719 67.2052 92.046C58.818 95.52 49.5891 96.429 40.6854 94.6579C31.7816 92.8869 23.603 88.5153 17.1838 82.0961C10.7646 75.6769 6.39302 67.4983 4.62196 58.5945C2.85089 49.6908 3.75987 40.4618 7.23393 32.0747C10.708 23.6876 16.5911 16.519 24.1393 11.4754C31.6875 6.43187 40.5618 3.73988 49.64 3.73988C55.6677 3.73986 61.6363 4.92708 67.2052 7.23377C72.774 9.54045 77.834 12.9214 82.0963 17.1836C86.3585 21.4458 89.7394 26.5058 92.0461 32.0747C94.3528 37.6435 95.54 43.6122 95.54 49.6399V49.6399ZM49.64 -0.000106449C59.4579 -0.000106449 69.0552 2.91123 77.2185 8.36574C85.3818 13.8203 91.7442 21.573 95.5014 30.6435C99.2585 39.714 100.242 49.695 98.3262 59.3242C96.4108 68.9534 91.6831 77.7984 84.7408 84.7407C77.7985 91.683 68.9535 96.4107 59.3243 98.3261C49.6951 100.241 39.7141 99.2584 30.6436 95.5013C21.5731 91.7441 13.8204 85.3816 8.36584 77.2184C2.91133 69.0551 -1.61629e-06 59.4577 3.61524e-07 49.6399C-0.000786426 43.1208 1.28265 36.6655 3.77702 30.6425C6.27138 24.6196 9.92781 19.147 14.5375 14.5374C19.1471 9.9277 24.6197 6.27127 30.6427 3.77691C36.6656 1.28254 43.121 -0.000894549 49.64 -0.000106449V-0.000106449Z" fill="#F2F1F0"/>
<path fill-rule="evenodd" clip-rule="evenodd" d="M92.7296 49.64C92.7296 58.1624 90.2024 66.4934 85.4676 73.5795C80.7328 80.6656 74.0031 86.1886 66.1294 89.45C58.2557 92.7113 49.5918 93.5647 41.2331 91.902C32.8745 90.2394 25.1966 86.1355 19.1703 80.1092C13.1441 74.083 9.04017 66.4051 7.37753 58.0464C5.7149 49.6878 6.56822 41.0238 9.8296 33.1502C13.091 25.2765 18.6139 18.5468 25.7 13.812C32.7862 9.07718 41.1172 6.55 49.6396 6.55C55.2983 6.54965 60.9017 7.66397 66.1298 9.82933C71.3579 11.9947 76.1082 15.1687 80.1096 19.17C84.1109 23.1713 87.2849 27.9217 89.4502 33.1498C91.6156 38.3778 92.7299 43.9812 92.7296 49.64ZM49.6396 2.81C58.9017 2.81 67.9558 5.55653 75.6569 10.7023C83.3581 15.848 89.3604 23.1619 92.9049 31.7189C96.4493 40.276 97.3767 49.6919 95.5697 58.7761C93.7628 67.8602 89.3027 76.2045 82.7534 82.7538C76.2041 89.3031 67.8598 93.7632 58.7757 95.5702C49.6915 97.3771 40.2756 96.4497 31.7185 92.9053C23.1614 89.3608 15.8476 83.3585 10.7018 75.6574C5.5561 67.9562 2.80957 58.9021 2.80957 49.64C2.81076 37.2203 7.74501 25.3096 16.5271 16.5275C25.3091 7.74544 37.2198 2.81119 49.6396 2.81V2.81Z" fill="#0078D4"/>
<path opacity="0.2" d="M22.7384 72.8651H76.5406C76.8233 72.8643 77.0941 72.7516 77.294 72.5517C77.4939 72.3518 77.6065 72.081 77.6074 71.7983V29.7932H21.6716V71.7983C21.6725 72.081 21.7851 72.3518 21.985 72.5517C22.1849 72.7516 22.4558 72.8643 22.7384 72.8651V72.8651Z" fill="#003067"/>
<path d="M22.7384 70.6688H76.5406C76.8233 70.668 77.0941 70.5553 77.294 70.3554C77.4939 70.1556 77.6065 69.8847 77.6074 69.602V27.5969H21.6716V69.602C21.6725 69.8847 21.7851 70.1555 21.985 70.3554C22.1849 70.5553 22.4557 70.668 22.7384 70.6688V70.6688Z" fill="#F2F2F2"/>
<path d="M21.6716 32.2463H77.6074V27.2323C77.6077 27.1249 77.5867 27.0184 77.5457 26.919C77.5047 26.8197 77.4445 26.7294 77.3685 26.6534C77.2925 26.5774 77.2022 26.5171 77.1028 26.4761C77.0035 26.4351 76.897 26.4142 76.7895 26.4145H22.4895C22.382 26.4142 22.2755 26.4351 22.1762 26.4761C22.0768 26.5171 21.9866 26.5774 21.9106 26.6534C21.8345 26.7294 21.7743 26.8197 21.7333 26.919C21.6923 27.0184 21.6714 27.1249 21.6716 27.2323L21.6716 32.2463Z" fill="url(#paint1_linear_364_5545)"/>
<path d="M25.9744 30.8682C26.2549 30.8673 26.5288 30.7833 26.7615 30.6268C26.9942 30.4702 27.1753 30.2482 27.2818 29.9887C27.3883 29.7293 27.4155 29.4441 27.3599 29.1692C27.3044 28.8943 27.1685 28.6421 26.9696 28.4444C26.7706 28.2467 26.5176 28.1124 26.2423 28.0586C25.9671 28.0047 25.682 28.0337 25.4233 28.1418C25.1645 28.25 24.9436 28.4324 24.7885 28.6661C24.6335 28.8998 24.5512 29.1742 24.552 29.4547C24.5505 29.6415 24.5863 29.8267 24.6574 29.9994C24.7285 30.1722 24.8333 30.329 24.9658 30.4607C25.0983 30.5924 25.2558 30.6963 25.429 30.7662C25.6022 30.8362 25.7877 30.8709 25.9744 30.8682V30.8682Z" fill="#50E6FF"/>
<path d="M72.6491 35.8553H26.6191C26.0126 35.8553 25.521 36.347 25.521 36.9535V65.5677C25.521 66.1742 26.0126 66.6658 26.6191 66.6658H72.6491C73.2556 66.6658 73.7473 66.1742 73.7473 65.5677V36.9535C73.7473 36.347 73.2556 35.8553 72.6491 35.8553Z" fill="#E8E8E8"/>
<path d="M67.9726 54.886C67.9848 54.8005 68.0092 54.715 68.0214 54.6417C68.2506 53.4327 68.2107 52.188 67.9045 50.9961C67.5984 49.8042 67.0335 48.6943 66.2501 47.7453C65.4667 46.7963 64.4839 46.0315 63.3715 45.5051C62.2592 44.9788 61.0446 44.7039 59.814 44.6999C59.1845 44.6978 58.5571 44.7716 57.9453 44.9197C56.6979 42.9522 54.8454 41.443 52.6663 40.6192C50.4872 39.7953 48.0996 39.7014 45.8625 40.3516C43.6255 41.0018 41.6601 42.3609 40.2621 44.2243C38.8641 46.0878 38.1091 48.3549 38.1106 50.6845C38.1106 50.8311 38.1106 50.9776 38.1228 51.1242C37.564 50.9361 36.9781 50.8412 36.3885 50.8433C35.0314 50.8435 33.7263 51.3654 32.7431 52.301C31.76 53.2366 31.1741 54.5142 31.1066 55.8697C31.0392 57.2252 31.4953 58.5547 32.3807 59.5833C33.2661 60.6118 34.5129 61.2607 35.8633 61.3957L59.8018 61.4446C61.2918 61.4428 62.7545 61.0449 64.0401 60.2916C65.3257 59.5383 66.3878 58.4567 67.1176 57.1576C67.1543 57.0843 67.2031 57.0111 67.2398 56.9378C67.5632 56.2848 67.8091 55.5962 67.9726 54.886V54.886Z" fill="white"/>
<path d="M42.3036 56.4276L48.599 45.6806C48.7054 45.499 48.8575 45.3484 49.0401 45.2437C49.2227 45.1391 49.4295 45.084 49.64 45.084C49.8505 45.084 50.0573 45.1391 50.2399 45.2437C50.4225 45.3484 50.5746 45.499 50.681 45.6806L56.9764 56.4276C57.0837 56.6109 57.1408 56.8193 57.1418 57.0317C57.1428 57.2441 57.0877 57.453 56.9821 57.6373C56.8765 57.8216 56.724 57.9747 56.5402 58.0812C56.3564 58.1877 56.1478 58.2438 55.9354 58.2438H43.3446C43.1322 58.2438 42.9235 58.1877 42.7397 58.0812C42.556 57.9747 42.4035 57.8216 42.2979 57.6373C42.1923 57.453 42.1372 57.2441 42.1382 57.0317C42.1392 56.8192 42.1963 56.6109 42.3036 56.4276V56.4276Z" fill="#FF9300"/>
<path d="M43.3449 57.4395C43.2741 57.4395 43.2045 57.4209 43.1433 57.3854C43.082 57.3499 43.0312 57.2989 42.9959 57.2375C42.9607 57.1761 42.9423 57.1065 42.9426 57.0357C42.943 56.9649 42.962 56.8954 42.9977 56.8343L49.2929 46.0871C49.3284 46.0266 49.3791 45.9763 49.4401 45.9414C49.501 45.9066 49.5699 45.8882 49.6401 45.8882C49.7103 45.8882 49.7793 45.9066 49.8402 45.9416C49.9011 45.9765 49.9518 46.0267 49.9872 46.0873L56.2824 56.8341C56.3182 56.8952 56.3372 56.9646 56.3376 57.0354C56.3379 57.1062 56.3196 57.1758 56.2844 57.2372C56.2492 57.2987 56.1984 57.3497 56.1372 57.3852C56.076 57.4207 56.0065 57.4394 55.9357 57.4395H43.3449Z" fill="#FFCA00"/>
<path d="M49.6401 49.6397V53.492" stroke="#FF9300" stroke-width="0.80428" stroke-miterlimit="10" stroke-linecap="round"/>
<path d="M49.6402 55.9292C49.9347 55.9292 50.1734 55.6905 50.1734 55.396C50.1734 55.1015 49.9347 54.8627 49.6402 54.8627C49.3457 54.8627 49.1069 55.1015 49.1069 55.396C49.1069 55.6905 49.3457 55.9292 49.6402 55.9292Z" fill="#FF9300"/>
<path opacity="0.2" d="M62.9194 70.6687C63.2311 68.7452 63.1212 66.7768 62.5973 64.8999C62.0734 63.023 61.148 61.2823 59.8851 59.7983C58.6222 58.3142 57.052 57.1223 55.283 56.3049C53.5141 55.4875 51.5887 55.0641 49.6401 55.0641C47.6914 55.0641 45.766 55.4875 43.9971 56.3049C42.2281 57.1223 40.6579 58.3142 39.395 59.7983C38.1321 61.2823 37.2067 63.023 36.6828 64.8999C36.1589 66.7768 36.049 68.7452 36.3608 70.6687H62.9194Z" fill="#767676"/>
<path d="M49.6402 80.0733C47.3751 80.0733 45.1609 79.4016 43.2776 78.1432C41.3942 76.8848 39.9263 75.0962 39.0595 73.0035C38.1927 70.9109 37.9659 68.6082 38.4078 66.3866C38.8497 64.1651 39.9404 62.1245 41.5421 60.5228C43.1437 58.9211 45.1844 57.8304 47.4059 57.3885C49.6275 56.9466 51.9302 57.1734 54.0228 58.0402C56.1155 58.907 57.9041 60.3749 59.1625 62.2583C60.4209 64.1416 61.0926 66.3558 61.0926 68.6209C61.0926 71.6583 59.886 74.5712 57.7383 76.719C55.5905 78.8667 52.6776 80.0733 49.6402 80.0733Z" fill="url(#paint2_linear_364_5545)" stroke="url(#paint3_linear_364_5545)" stroke-miterlimit="10"/>
<path d="M53.3857 67.1893H51.9307C51.7029 67.1893 51.4844 67.2798 51.3233 67.4409C51.1622 67.602 51.0717 67.8205 51.0717 68.0483C51.0717 68.2761 51.1622 68.4945 51.3233 68.6556C51.4844 68.8167 51.7029 68.9072 51.9307 68.9072H55.0801C55.3078 68.9072 55.5263 68.8167 55.6874 68.6556C55.8485 68.4945 55.939 68.2761 55.939 68.0483V64.3263C55.9382 64.099 55.8474 63.8813 55.6864 63.7208C55.5254 63.5604 55.3073 63.4703 55.08 63.4703C54.8527 63.4703 54.6347 63.5604 54.4737 63.7208C54.3127 63.8813 54.2219 64.099 54.2211 64.3263V65.1847C53.6882 64.4731 52.9967 63.8955 52.2015 63.498C51.4063 63.1005 50.5293 62.8939 49.6403 62.8947C48.8051 62.8867 47.9786 63.0645 47.2206 63.4152C46.4626 63.7659 45.7921 64.2808 45.2575 64.9225C45.113 65.0978 45.0438 65.3233 45.0651 65.5495C45.0864 65.7757 45.1965 65.9843 45.3712 66.1295C45.546 66.2748 45.7712 66.3448 45.9975 66.3244C46.2238 66.304 46.4328 66.1947 46.5787 66.0205C46.9521 65.5727 47.4207 65.214 47.9503 64.9704C48.48 64.7268 49.0573 64.6046 49.6403 64.6125C50.452 64.6126 51.2446 64.8589 51.9133 65.319C52.5821 65.7791 53.0955 66.4313 53.3857 67.1893V67.1893ZM45.0592 72.9155V72.0566C45.5762 72.7445 46.2414 73.3072 47.0053 73.7032C47.7693 74.0993 48.6125 74.3184 49.4727 74.3445C50.3328 74.3705 51.1877 74.2028 51.9743 73.8538C52.7608 73.5048 53.4588 72.9833 54.0166 72.328C54.0896 72.2421 54.145 72.1426 54.1796 72.0353C54.2143 71.9279 54.2274 71.8148 54.2183 71.7024C54.2092 71.59 54.178 71.4804 54.1266 71.38C54.0751 71.2797 54.0044 71.1904 53.9185 71.1174C53.8325 71.0443 53.7331 70.9889 53.6257 70.9543C53.5184 70.9197 53.4052 70.9065 53.2928 70.9157C53.1804 70.9248 53.0709 70.9559 52.9705 71.0074C52.8701 71.0588 52.7808 71.1295 52.7078 71.2154C52.273 71.726 51.7173 72.1198 51.0914 72.3607C50.4656 72.6017 49.7893 72.6823 49.1244 72.5952C48.4594 72.508 47.8268 72.2559 47.2841 71.8618C46.7414 71.4677 46.306 70.9441 46.0174 70.3388H47.3497C47.5775 70.3388 47.7959 70.2483 47.957 70.0872C48.1181 69.9261 48.2086 69.7076 48.2086 69.4798C48.2086 69.252 48.1181 69.0335 47.957 68.8725C47.7959 68.7114 47.5775 68.6209 47.3497 68.6209H44.2002C43.9724 68.6209 43.754 68.7114 43.5929 68.8725C43.4318 69.0336 43.3413 69.252 43.3413 69.4798V72.9155C43.3413 73.1434 43.4318 73.3618 43.5929 73.5229C43.754 73.684 43.9724 73.7745 44.2002 73.7745C44.428 73.7745 44.6465 73.684 44.8076 73.5229C44.9687 73.3618 45.0592 73.1434 45.0592 72.9155V72.9155Z" fill="white"/>
<path fill-rule="evenodd" clip-rule="evenodd" d="M92.7296 49.6399C92.7296 58.1623 90.2024 66.4933 85.4676 73.5794C80.7328 80.6655 74.0031 86.1885 66.1294 89.4499C58.2557 92.7112 49.5918 93.5646 41.2331 91.9019C32.8745 90.2393 25.1966 86.1354 19.1703 80.1091C13.1441 74.0829 9.04017 66.405 7.37753 58.0463C5.7149 49.6877 6.56822 41.0237 9.8296 33.1501C13.091 25.2764 18.6139 18.5467 25.7001 13.8119C32.7862 9.07708 41.1172 6.5499 49.6396 6.5499C55.2983 6.54956 60.9017 7.66388 66.1298 9.82923C71.3579 11.9946 76.1082 15.1686 80.1096 19.1699C84.1109 23.1712 87.2849 27.9216 89.4502 33.1497C91.6156 38.3777 92.7299 43.9811 92.7296 49.6399V49.6399ZM49.6396 2.8099C58.9017 2.8099 67.9558 5.55643 75.6569 10.7022C83.3581 15.8479 89.3604 23.1618 92.9048 31.7188C96.4493 40.2759 97.3767 49.6918 95.5697 58.776C93.7628 67.8601 89.3027 76.2044 82.7534 82.7537C76.2041 89.303 67.8598 93.7631 58.7757 95.5701C49.6915 97.377 40.2756 96.4496 31.7185 92.9052C23.1614 89.3607 15.8476 83.3584 10.7018 75.6573C5.5561 67.9561 2.80957 58.902 2.80957 49.6399C2.81075 37.2202 7.74499 25.3095 16.5271 16.5274C25.3091 7.7453 37.2198 2.81105 49.6396 2.80986V2.8099Z" fill="#0078D4"/>
</g>
<defs>
<linearGradient id="paint0_linear_364_5545" x1="47.8698" y1="-15.1532" x2="51.8525" y2="130.615" gradientUnits="userSpaceOnUse">
<stop stop-color="#00ABDE"/>
<stop offset="1" stop-color="#007ED8"/>
</linearGradient>
<linearGradient id="paint1_linear_364_5545" x1="21.6716" y1="29.3304" x2="77.7076" y2="29.3304" gradientUnits="userSpaceOnUse">
<stop stop-color="#003067"/>
<stop offset="0.2" stop-color="#003F7C"/>
<stop offset="0.47" stop-color="#004F90"/>
<stop offset="0.74" stop-color="#00589D"/>
<stop offset="1" stop-color="#005BA1"/>
</linearGradient>
<linearGradient id="paint2_linear_364_5545" x1="55.3673" y1="58.7012" x2="43.913" y2="78.5406" gradientUnits="userSpaceOnUse">
<stop stop-color="#004DAE"/>
<stop offset="0.21" stop-color="#0061C4"/>
<stop offset="0.51" stop-color="#0078DD"/>
<stop offset="0.78" stop-color="#0086EC"/>
<stop offset="1" stop-color="#008BF1"/>
</linearGradient>
<linearGradient id="paint3_linear_364_5545" x1="49.6402" y1="57.1685" x2="49.6402" y2="80.0734" gradientUnits="userSpaceOnUse">
<stop stop-color="#008BF1"/>
<stop offset="0.22" stop-color="#0086EC"/>
<stop offset="0.49" stop-color="#0078DD"/>
<stop offset="0.79" stop-color="#0061C4"/>
<stop offset="1" stop-color="#004DAE"/>
</linearGradient>
<clipPath id="clip0_364_5545">
<rect width="99.2799" height="99.28" fill="white"/>
</clipPath>
</defs>
</svg>
