<svg width="100" height="100" viewBox="0 0 100 100" fill="none" xmlns="http://www.w3.org/2000/svg">
<g clip-path="url(#clip0_601_507)">
<path d="M49.6401 96.4499C40.382 96.4499 31.3317 93.7045 23.6339 88.561C15.936 83.4174 9.93624 76.1067 6.3933 67.5533C2.85036 58.9999 1.92337 49.588 3.72954 40.5077C5.53571 31.4275 9.99394 23.0867 16.5404 16.5402C23.0869 9.99372 31.4277 5.5355 40.5079 3.72933C49.5882 1.92315 59.0001 2.85015 67.5535 6.39308C76.1069 9.93602 83.4176 15.9358 88.5612 23.6336C93.7047 31.3315 96.4501 40.3817 96.4501 49.6399C96.4505 55.7872 95.24 61.8744 92.8878 67.5538C90.5355 73.2332 87.0875 78.3937 82.7407 82.7405C78.3939 87.0873 73.2335 90.5353 67.554 92.8876C61.8746 95.2398 55.7874 96.4503 49.6401 96.4499V96.4499Z" fill="url(#paint0_linear_601_507)"/>
<path fill-rule="evenodd" clip-rule="evenodd" d="M95.54 49.6399C95.54 58.718 92.848 67.5923 87.8045 75.1406C82.7609 82.6888 75.5923 88.5719 67.2052 92.046C58.818 95.52 49.5891 96.429 40.6854 94.6579C31.7816 92.8869 23.603 88.5153 17.1838 82.0961C10.7646 75.6769 6.39302 67.4983 4.62196 58.5945C2.85089 49.6908 3.75987 40.4618 7.23393 32.0747C10.708 23.6876 16.5911 16.519 24.1393 11.4754C31.6875 6.43187 40.5618 3.73988 49.64 3.73988C55.6677 3.73986 61.6363 4.92708 67.2052 7.23377C72.774 9.54045 77.834 12.9214 82.0963 17.1836C86.3585 21.4458 89.7394 26.5058 92.0461 32.0747C94.3528 37.6435 95.54 43.6122 95.54 49.6399V49.6399ZM49.64 -0.000106449C59.4579 -0.000106449 69.0552 2.91123 77.2185 8.36574C85.3818 13.8203 91.7442 21.573 95.5014 30.6435C99.2585 39.714 100.242 49.695 98.3262 59.3242C96.4108 68.9534 91.6831 77.7984 84.7408 84.7407C77.7985 91.683 68.9535 96.4107 59.3243 98.3261C49.6951 100.241 39.7141 99.2584 30.6436 95.5013C21.5731 91.7441 13.8204 85.3816 8.36584 77.2184C2.91133 69.0551 -1.61629e-06 59.4577 3.61524e-07 49.6399C-0.000786426 43.1208 1.28265 36.6655 3.77702 30.6425C6.27138 24.6196 9.92781 19.147 14.5375 14.5374C19.1471 9.9277 24.6197 6.27127 30.6427 3.77691C36.6656 1.28254 43.121 -0.000894549 49.64 -0.000106449V-0.000106449Z" fill="#F2F1F0"/>
<path fill-rule="evenodd" clip-rule="evenodd" d="M92.7296 49.64C92.7296 58.1624 90.2024 66.4934 85.4676 73.5795C80.7328 80.6656 74.0031 86.1886 66.1294 89.45C58.2557 92.7113 49.5918 93.5647 41.2331 91.902C32.8745 90.2394 25.1966 86.1355 19.1703 80.1092C13.1441 74.083 9.04017 66.4051 7.37753 58.0464C5.7149 49.6878 6.56822 41.0238 9.8296 33.1502C13.091 25.2765 18.6139 18.5468 25.7 13.812C32.7862 9.07718 41.1172 6.55 49.6396 6.55C55.2983 6.54965 60.9017 7.66397 66.1298 9.82933C71.3579 11.9947 76.1082 15.1687 80.1096 19.17C84.1109 23.1713 87.2849 27.9217 89.4502 33.1498C91.6156 38.3778 92.7299 43.9812 92.7296 49.64ZM49.6396 2.81C58.9017 2.81 67.9558 5.55653 75.6569 10.7023C83.3581 15.848 89.3604 23.1619 92.9049 31.7189C96.4493 40.276 97.3767 49.6919 95.5697 58.7761C93.7628 67.8602 89.3027 76.2045 82.7534 82.7538C76.2041 89.3031 67.8598 93.7632 58.7757 95.5702C49.6915 97.3771 40.2756 96.4497 31.7185 92.9053C23.1614 89.3608 15.8476 83.3585 10.7018 75.6574C5.5561 67.9562 2.80957 58.9021 2.80957 49.64C2.81076 37.2203 7.74501 25.3096 16.5271 16.5275C25.3091 7.74544 37.2198 2.81119 49.6396 2.81V2.81Z" fill="#0078D4"/>
<path fill-rule="evenodd" clip-rule="evenodd" d="M92.7296 49.6399C92.7296 58.1623 90.2024 66.4933 85.4676 73.5794C80.7328 80.6655 74.0031 86.1885 66.1294 89.4499C58.2557 92.7112 49.5918 93.5646 41.2331 91.9019C32.8745 90.2393 25.1966 86.1354 19.1703 80.1091C13.1441 74.0829 9.04017 66.405 7.37753 58.0463C5.7149 49.6877 6.56822 41.0237 9.8296 33.1501C13.091 25.2764 18.6139 18.5467 25.7001 13.8119C32.7862 9.07708 41.1172 6.5499 49.6396 6.5499C55.2983 6.54956 60.9017 7.66388 66.1298 9.82923C71.3579 11.9946 76.1082 15.1686 80.1096 19.1699C84.1109 23.1712 87.2849 27.9216 89.4502 33.1497C91.6156 38.3777 92.7299 43.9811 92.7296 49.6399V49.6399ZM49.6396 2.8099C58.9017 2.8099 67.9558 5.55643 75.6569 10.7022C83.3581 15.8479 89.3604 23.1618 92.9048 31.7188C96.4493 40.2759 97.3767 49.6918 95.5697 58.776C93.7628 67.8601 89.3027 76.2044 82.7534 82.7537C76.2041 89.303 67.8598 93.7631 58.7757 95.5701C49.6915 97.377 40.2756 96.4496 31.7185 92.9052C23.1614 89.3607 15.8476 83.3584 10.7018 75.6573C5.5561 67.9561 2.80957 58.902 2.80957 49.6399C2.81075 37.2202 7.74499 25.3095 16.5271 16.5274C25.3091 7.7453 37.2198 2.81105 49.6396 2.80986V2.8099Z" fill="#0078D4"/>
<path d="M29.5371 29.1761C28.5686 29.1789 27.6406 29.5649 26.9557 30.2497C26.2709 30.9346 25.8849 31.8626 25.8821 32.8311V58.4161H73.397V32.8311C73.3942 31.8626 73.0082 30.9346 72.3233 30.2497C71.6385 29.5649 70.7105 29.1789 69.742 29.1761H29.5371ZM69.742 31.0036C70.2265 31.0042 70.691 31.197 71.0335 31.5395C71.3761 31.8821 71.5689 32.3466 71.5695 32.8311V56.5885H27.7096V32.8311C27.71 32.3465 27.9027 31.882 28.2454 31.5394C28.588 31.1967 29.0525 31.0041 29.5371 31.0036H69.742Z" fill="url(#paint1_linear_601_507)"/>
<path d="M27.7095 32.8311C27.71 32.3465 27.9027 31.882 28.2453 31.5394C28.5879 31.1967 29.0525 31.0041 29.537 31.0036H69.7419C70.2264 31.0042 70.6909 31.197 71.0334 31.5395C71.376 31.8821 71.5688 32.3466 71.5694 32.8311V56.5885H27.7095V32.8311Z" fill="url(#paint2_linear_601_507)"/>
<path d="M20.3994 58.416V59.3297C20.4022 60.2982 20.7882 61.2262 21.4731 61.911C22.1579 62.5959 23.0859 62.9819 24.0544 62.9847H75.2243C76.1928 62.9819 77.1209 62.5959 77.8057 61.911C78.4905 61.2262 78.8765 60.2982 78.8793 59.3297V58.416H20.3994Z" fill="url(#paint3_linear_601_507)"/>
<path fill-rule="evenodd" clip-rule="evenodd" d="M45.9845 60.2434H53.2945C53.7791 60.2433 54.2438 60.0507 54.5865 59.708C54.9292 59.3653 55.1218 58.9006 55.122 58.416H44.157C44.157 58.9006 44.3495 59.3654 44.6923 59.7081C45.035 60.0509 45.4998 60.2434 45.9845 60.2434V60.2434Z" fill="#003067"/>
<path d="M46.1931 48.9797L52.9686 41.6615C55.37 41.8912 56.1734 41.3817 56.8818 40.6168C57.2993 40.105 57.5844 39.4982 57.7117 38.8501C57.8391 38.202 57.8048 37.5325 57.612 36.9007L55.2552 39.3613C55.1795 39.4403 55.0758 39.4864 54.9664 39.4896C54.857 39.4927 54.7508 39.4527 54.6707 39.3782L53.707 38.48L52.7434 37.582C52.6633 37.5072 52.6156 37.4039 52.6106 37.2944C52.6057 37.1849 52.6439 37.0778 52.7171 36.9961L54.9892 34.4562C54.3468 34.31 53.6781 34.3252 53.043 34.5005C52.4079 34.6757 51.8261 35.0056 51.3496 35.4606C50.6319 36.2359 50.2252 37.0544 50.5767 39.3078L43.6776 46.7599C42.1502 46.6344 40.9206 46.7256 39.9108 47.8167C39.4931 48.3284 39.208 48.9351 39.0806 49.5832C38.9532 50.2314 38.9875 50.9009 39.1804 51.5326L41.537 49.0716C41.6126 48.9924 41.7164 48.9463 41.8258 48.9432C41.9353 48.9401 42.0415 48.9802 42.1215 49.0549L43.0852 49.9535L44.0488 50.8511C44.129 50.9259 44.1767 51.0292 44.1817 51.1388C44.1867 51.2484 44.1486 51.3556 44.0756 51.4374L41.8032 53.9763C42.4318 54.1178 43.0852 54.1061 43.7083 53.9422C44.3315 53.7782 44.906 53.4669 45.3836 53.0344C46.1468 52.2506 46.5981 51.366 46.1931 48.9797Z" fill="#9CEBFF"/>
<path opacity="0.2" d="M50.9557 39.9784L51.5476 40.5287L44.3678 48.2515L43.7759 47.7012L50.9557 39.9784Z" fill="#53B1E0"/>
<path opacity="0.17" d="M48.5461 41.3051L51.5351 43.2321L50.3421 44.6839L48.5461 41.3051Z" fill="#1F56A3"/>
<path d="M43.2649 37.6101L44.1552 36.7535L52.8397 45.7794L51.9495 46.636L43.2649 37.6101Z" fill="white"/>
<path d="M59.8449 50.2033L56.8051 47.0363L55.5988 46.9976L55.5727 45.7517L54.3142 44.4403C54.2763 44.4028 54.2314 44.3731 54.1821 44.353C54.1328 44.3328 54.0799 44.3226 54.0266 44.3229C53.9733 44.3232 53.9206 44.334 53.8715 44.3547C53.8224 44.3754 53.7778 44.4055 53.7404 44.4434L52.1045 46.0239L52.1058 46.0257L52.1043 46.0241L50.5475 47.5278C50.4719 47.601 50.4283 47.7011 50.4263 47.8064C50.4244 47.9116 50.4641 48.0133 50.537 48.0892L51.7954 49.4003L53.0057 49.5021L53.0278 50.6847L56.0672 53.8517C56.205 53.9957 56.3699 54.1111 56.5525 54.1912C56.735 54.2713 56.9316 54.3145 57.1309 54.3184C57.3303 54.3223 57.5284 54.2867 57.7139 54.2138C57.8994 54.1409 58.0687 54.032 58.2121 53.8935L58.9613 53.1697L58.9482 53.156L58.9622 53.1695L59.7494 52.4091C60.0534 52.1286 60.2341 51.7392 60.252 51.3259C60.2699 50.9126 60.1235 50.5091 59.8449 50.2033V50.2033Z" fill="#0078D4"/>
<path d="M42.5575 34.2739C42.5102 34.2246 42.4537 34.185 42.3911 34.1576C42.3285 34.1302 42.2612 34.1154 42.1929 34.114C42.1245 34.1127 42.0566 34.1249 41.993 34.1498C41.9294 34.1748 41.8714 34.2121 41.8222 34.2595L40.8857 35.1642C40.7864 35.2604 40.7292 35.392 40.7267 35.5303C40.7241 35.6686 40.7763 35.8022 40.872 35.9021L42.4174 37.5127L43.2775 37.6098L44.1673 36.7507L44.0916 35.8728L42.5575 34.2739Z" fill="white"/>
<path d="M42.3833 37.4771L42.4181 37.5131L43.2776 37.6097L44.1673 36.7505L44.0921 35.8726L44.0692 35.8489L42.3833 37.4771Z" fill="#F2F2F2"/>
<path d="M57.4301 52.1054C57.479 52.1563 57.5057 52.2245 57.5044 52.2951C57.5031 52.3657 57.4738 52.4329 57.423 52.4819L57.2747 52.6255C57.2496 52.6497 57.22 52.6687 57.1875 52.6815C57.155 52.6942 57.1204 52.7004 57.0855 52.6998C57.0507 52.6991 57.0163 52.6916 56.9843 52.6776C56.9524 52.6636 56.9235 52.6434 56.8994 52.6183L54.1541 49.7574C54.1053 49.7065 54.0785 49.6382 54.0799 49.5677C54.0812 49.4971 54.1105 49.4299 54.1613 49.3809L54.3096 49.2373C54.3347 49.2131 54.3643 49.1941 54.3968 49.1813C54.4292 49.1686 54.4639 49.1624 54.4987 49.163C54.5336 49.1637 54.568 49.1712 54.5999 49.1852C54.6319 49.1992 54.6608 49.2193 54.6849 49.2445L57.4301 52.1054Z" fill="#1B93EB"/>
<path d="M58.6621 50.915C58.711 50.9659 58.7377 51.034 58.7365 51.1045C58.7352 51.1751 58.7061 51.2422 58.6554 51.2913L58.5069 51.4349C58.4818 51.4591 58.4521 51.4781 58.4197 51.4909C58.3872 51.5036 58.3526 51.5098 58.3177 51.5091C58.2829 51.5085 58.2485 51.5009 58.2165 51.4869C58.1846 51.473 58.1557 51.4528 58.1316 51.4277L55.3877 48.5677C55.3389 48.5167 55.3122 48.4485 55.3135 48.378C55.3148 48.3075 55.344 48.2403 55.3946 48.1912L55.5428 48.0483C55.5679 48.0241 55.5975 48.005 55.63 47.9923C55.6624 47.9796 55.6971 47.9734 55.7319 47.9741C55.7668 47.9747 55.8011 47.9823 55.8331 47.9963C55.865 48.0103 55.8938 48.0305 55.9179 48.0557L58.6621 50.915Z" fill="#1B93EB"/>
<path opacity="0.2" d="M46.9741 62.9847V50.7455C46.973 49.8378 46.6119 48.9676 45.9701 48.3257C45.3282 47.6839 44.458 47.3228 43.5503 47.3217H32.2554C31.3478 47.3228 30.4777 47.6839 29.836 48.3258C29.1943 48.9677 28.8334 49.8379 28.8325 50.7455V62.9847H46.9741Z" fill="#003067"/>
<path d="M43.5504 49.3218H32.2556C32.0687 49.3218 31.8836 49.3586 31.7108 49.4302C31.5381 49.5017 31.3812 49.6066 31.249 49.7388C31.1168 49.871 31.0119 50.0279 30.9404 50.2006C30.8688 50.3734 30.832 50.5585 30.832 50.7455V72.0662C30.832 72.2532 30.8688 72.4383 30.9404 72.611C31.0119 72.7838 31.1168 72.9407 31.249 73.0729C31.3812 73.2051 31.5381 73.31 31.7108 73.3815C31.8836 73.4531 32.0687 73.4899 32.2556 73.4899H43.5504C43.928 73.4899 44.2901 73.3399 44.5571 73.0729C44.8241 72.8059 44.9741 72.4438 44.9741 72.0662V50.7455C44.9741 50.3679 44.8241 50.0058 44.5571 49.7388C44.2901 49.4718 43.928 49.3218 43.5504 49.3218Z" fill="url(#paint4_linear_601_507)"/>
<path d="M31.9319 72.0357L31.9586 50.7487C31.9586 50.7057 31.9672 50.6632 31.9837 50.6235C32.0002 50.5838 32.0243 50.5478 32.0548 50.5175C32.0852 50.4871 32.1213 50.4631 32.1611 50.4467C32.2008 50.4303 32.2434 50.422 32.2863 50.422L43.5475 50.448C43.6342 50.4482 43.7172 50.4829 43.7784 50.5443C43.8396 50.6057 43.8739 50.6888 43.8738 50.7755L43.8471 72.0365C43.847 72.1232 43.8125 72.2062 43.7512 72.2675C43.6899 72.3287 43.6067 72.3631 43.5201 72.3631H32.2589C32.2159 72.3631 32.1734 72.3547 32.1337 72.3382C32.0939 72.3217 32.0579 72.2976 32.0275 72.2672C31.9971 72.2368 31.9731 72.2007 31.9567 72.1609C31.9403 72.1212 31.9318 72.0786 31.9319 72.0357L31.9319 72.0357Z" fill="#00244D"/>
<path d="M39.3605 61.3926C39.3609 61.7304 39.2442 62.0578 39.0302 62.3191C38.8163 62.5804 38.5183 62.7595 38.1871 62.8257C37.8559 62.8919 37.512 62.8412 37.214 62.6822C36.916 62.5232 36.6824 62.2658 36.5529 61.9539C36.4235 61.6419 36.4062 61.2947 36.5041 60.9715C36.602 60.6482 36.809 60.3689 37.0897 60.1812C37.3705 59.9935 37.7077 59.9089 38.0438 59.942C38.3799 59.975 38.6942 60.1236 38.933 60.3624C39.2064 60.6356 39.3602 61.0061 39.3605 61.3926V61.3926ZM42.0544 60.6076L41.3766 60.4569C41.3064 60.4313 41.2492 60.3792 41.2173 60.3117L41.2093 60.2898L41.0223 59.8353L41.0115 59.812C40.9989 59.7775 40.9933 59.7408 40.9949 59.7042C40.9965 59.6675 41.0053 59.6315 41.0208 59.5982L41.3936 59.0122C41.4699 58.8853 41.5025 58.7369 41.4864 58.5898C41.4703 58.4426 41.4063 58.3048 41.3043 58.1975L41.0981 57.9912C40.9897 57.8911 40.8521 57.8283 40.7054 57.8122C40.5588 57.7961 40.4108 57.8276 40.2834 57.9019L39.6973 58.2746C39.6599 58.2933 39.6184 58.3023 39.5767 58.3008C39.5448 58.302 39.513 58.2963 39.4836 58.2841L39.46 58.2733L39.0057 58.0862L38.9838 58.0783C38.9163 58.0463 38.8642 57.989 38.8387 57.9188L38.688 57.2411C38.6523 57.0974 38.5703 56.9695 38.4548 56.8768C38.3393 56.7842 38.1966 56.732 38.0486 56.7282H37.7571C37.6091 56.7319 37.4664 56.7841 37.3509 56.8767C37.2354 56.9693 37.1535 57.0973 37.1177 57.2409L36.967 57.9191C36.9413 57.9891 36.8892 58.0463 36.8218 58.0783L36.7998 58.0862L36.3455 58.2733L36.322 58.2841C36.2925 58.2964 36.2607 58.3021 36.2289 58.3008C36.1871 58.3022 36.1456 58.2932 36.1082 58.2746L35.5224 57.902C35.3949 57.8277 35.2469 57.7963 35.1003 57.8124C34.9536 57.8285 34.816 57.8913 34.7077 57.9914L34.5014 58.1975C34.3995 58.3049 34.3355 58.4427 34.3193 58.5899C34.3032 58.737 34.3357 58.8855 34.412 59.0124L34.7849 59.5982C34.8161 59.6654 34.8194 59.7422 34.7942 59.8118L34.7832 59.8353L34.5962 60.2899L34.5882 60.3118C34.5563 60.3793 34.4991 60.4315 34.4289 60.4571L33.7513 60.6075C33.6076 60.6433 33.4796 60.7252 33.3869 60.8407C33.2943 60.9562 33.2421 61.099 33.2383 61.247V61.5385C33.242 61.6865 33.2942 61.8292 33.3869 61.9447C33.4795 62.0601 33.6074 62.1421 33.7511 62.1778L34.429 62.3284C34.4991 62.354 34.5563 62.4062 34.5882 62.4737L34.5962 62.4956L34.7832 62.9501L34.7942 62.9735C34.8195 63.0432 34.816 63.1201 34.7847 63.1873L34.412 63.7731C34.3357 63.9 34.3031 64.0484 34.3192 64.1956C34.3354 64.3428 34.3994 64.4806 34.5014 64.588L34.7077 64.7942C34.816 64.8944 34.9537 64.9571 35.1003 64.9732C35.247 64.9892 35.395 64.9578 35.5224 64.8836L36.108 64.5108C36.1455 64.4922 36.187 64.4832 36.2288 64.4846C36.2607 64.4833 36.2925 64.489 36.322 64.5014L36.3455 64.5122L36.7998 64.6993L36.8218 64.7072C36.8892 64.7392 36.9414 64.7964 36.967 64.8665L37.1177 65.5443C37.1534 65.688 37.2353 65.816 37.3508 65.9087C37.4663 66.0014 37.609 66.0536 37.7571 66.0573H38.0486C38.1966 66.0535 38.3392 66.0013 38.4547 65.9086C38.5702 65.816 38.6521 65.688 38.6879 65.5443L38.8387 64.8665C38.8642 64.7964 38.9164 64.7392 38.9838 64.7072L39.0057 64.6993L39.46 64.5122L39.4835 64.5014C39.513 64.4891 39.5447 64.4834 39.5765 64.4846C39.6183 64.4831 39.6599 64.4922 39.6973 64.5108L40.2832 64.8835C40.4107 64.9579 40.5587 64.9893 40.7054 64.9733C40.8521 64.9572 40.9897 64.8944 41.0981 64.7942L41.3042 64.5881C41.4062 64.4807 41.4702 64.3429 41.4864 64.1957C41.5025 64.0484 41.47 63.9 41.3937 63.7731L41.0209 63.1872C40.9896 63.1201 40.9862 63.0432 41.0115 62.9736L41.0223 62.9503L41.2093 62.4956L41.2173 62.4737C41.2493 62.4062 41.3066 62.354 41.3768 62.3284L42.0543 62.1778C42.198 62.1421 42.326 62.0602 42.4187 61.9447C42.5114 61.8292 42.5636 61.6865 42.5674 61.5384V61.2469C42.5637 61.0989 42.5115 60.9562 42.4188 60.8407C42.3261 60.7252 42.1981 60.6433 42.0544 60.6075L42.0544 60.6076Z" fill="white"/>
<path opacity="0.4" fill-rule="evenodd" clip-rule="evenodd" d="M76.92 62.197C76.92 64.557 76.2201 66.864 74.909 68.8262C73.5978 70.7885 71.7343 72.3179 69.5539 73.221C67.3735 74.1242 64.9743 74.3605 62.6597 73.9001C60.345 73.4396 58.2189 72.3032 56.5501 70.6344C54.8813 68.9656 53.7449 66.8395 53.2845 64.5248C52.824 62.2102 53.0603 59.811 53.9635 57.6306C54.8666 55.4503 56.396 53.5867 58.3583 52.2755C60.3206 50.9644 62.6276 50.2646 64.9876 50.2646C68.1522 50.2647 71.1872 51.5219 73.4249 53.7596C75.6626 55.9974 76.9198 59.0323 76.92 62.197Z" fill="#C7E7F1"/>
<path fill-rule="evenodd" clip-rule="evenodd" d="M53.0554 62.197C53.0554 59.837 53.7552 57.5299 55.0664 55.5677C56.3775 53.6054 58.2411 52.076 60.4215 51.1729C62.6018 50.2697 65.001 50.0334 67.3157 50.4939C69.6303 50.9543 71.7565 52.0907 73.4253 53.7595C75.094 55.4283 76.2305 57.5544 76.6909 59.8691C77.1513 62.1837 76.915 64.5829 76.0119 66.7633C75.1087 68.9437 73.5793 70.8072 71.617 72.1184C69.6548 73.4295 67.3478 74.1294 64.9878 74.1294C61.824 74.1263 58.7908 72.8681 56.5537 70.631C54.3166 68.3939 53.0585 65.3607 53.0554 62.197V62.197ZM81.8323 77.1695L76.1909 71.5235C78.5996 68.634 79.8016 64.9271 79.5468 61.1739C79.292 57.4208 77.6 53.9104 74.8228 51.373C72.0457 48.8355 68.3972 47.4665 64.6364 47.5506C60.8755 47.6348 57.2919 49.1656 54.631 51.8247C51.9701 54.4837 50.4368 58.0663 50.3501 61.8271C50.2634 65.5879 51.6299 69.2373 54.1654 72.0162C56.7009 74.7951 60.2101 76.4895 63.9631 76.7469C67.7161 77.0043 71.4238 75.8049 74.3149 73.3982L79.9629 79.0442L81.8323 77.1695Z" fill="#30404D"/>
<path fill-rule="evenodd" clip-rule="evenodd" d="M62.9198 76.6373C66.6255 77.1687 70.3935 76.2512 73.4402 74.0758C73.6941 73.8948 74.0041 73.8098 74.3148 73.8359C74.6256 73.862 74.917 73.9975 75.1372 74.2183L79.0219 78.107H80.8979L73.4203 70.6306C72.3134 71.741 70.9985 72.6221 69.5507 73.2238C68.103 73.8254 66.5508 74.1357 64.983 74.1369C63.4152 74.138 61.8626 73.83 60.414 73.2306C58.9653 72.6311 57.6491 71.7518 56.5406 70.6432C55.4321 69.5345 54.5531 68.2181 53.9538 66.7694C53.3546 65.3206 53.0469 63.768 53.0483 62.2002C53.0497 60.6324 53.3602 59.0803 53.9621 57.6326C54.5639 56.185 55.4453 54.8702 56.5558 53.7635L54.6798 51.8895C52.7626 53.8028 51.4164 56.2126 50.7923 58.8483C50.1682 61.4841 50.2909 64.2417 51.1466 66.8116C52.0023 69.3815 53.5571 71.6622 55.6367 73.3978C57.7163 75.1333 60.2383 76.2551 62.9198 76.6373H62.9198Z" fill="#182A37"/>
<path fill-rule="evenodd" clip-rule="evenodd" d="M80.5755 83.2389L77.3177 79.9802C77.0629 79.7241 76.9199 79.3775 76.9199 79.0163C76.9199 78.6551 77.0629 78.3085 77.3177 78.0524L80.8444 74.5271C81.1007 74.2723 81.4475 74.1293 81.8089 74.1293C82.1703 74.1293 82.5171 74.2723 82.7734 74.5271L85.9069 77.6614L80.5755 83.2389Z" fill="#0078D4"/>
<path fill-rule="evenodd" clip-rule="evenodd" d="M83.2406 80.4509L80.8379 78.0497C80.7153 77.9267 80.5697 77.829 80.4093 77.7624C80.2489 77.6957 80.0769 77.6614 79.9032 77.6614C79.7295 77.6614 79.5575 77.6957 79.3971 77.7624C79.2367 77.829 79.091 77.9267 78.9685 78.0497L77.1919 79.825V79.8535L80.5759 83.2386L83.2406 80.4509Z" fill="#1F56A3"/>
<path opacity="0.2" fill-rule="evenodd" clip-rule="evenodd" d="M71.989 52.5469C73.6594 54.843 74.4552 57.6601 74.2332 60.4908C74.0111 63.3216 72.7858 65.9801 70.7777 67.9876C68.7697 69.9952 66.1109 71.2199 63.2801 71.4413C60.4493 71.6627 57.6324 70.8662 55.3367 69.1952C56.3481 70.5932 57.6509 71.755 59.1551 72.6004C60.6593 73.4458 62.3291 73.9547 64.0491 74.0919C65.7692 74.2291 67.4985 73.9913 69.1177 73.3951C70.7369 72.7988 72.2074 71.8582 73.4277 70.6382C74.6479 69.4182 75.5889 67.948 76.1855 66.3289C76.7822 64.7099 77.0203 62.9806 76.8835 61.2605C76.7468 59.5405 76.2383 57.8706 75.3932 56.3662C74.5482 54.8617 73.3867 53.5587 71.989 52.5469V52.5469Z" fill="#ABDCEC"/>
</g>
<defs>
<linearGradient id="paint0_linear_601_507" x1="47.8698" y1="-15.1532" x2="51.8525" y2="130.615" gradientUnits="userSpaceOnUse">
<stop stop-color="#00ABDE"/>
<stop offset="1" stop-color="#007ED8"/>
</linearGradient>
<linearGradient id="paint1_linear_601_507" x1="49.6395" y1="58.4161" x2="49.6395" y2="29.1237" gradientUnits="userSpaceOnUse">
<stop stop-color="#003067"/>
<stop offset="0.16493" stop-color="#003F7C"/>
<stop offset="0.36216" stop-color="#004F90"/>
<stop offset="0.68089" stop-color="#00589D"/>
<stop offset="1" stop-color="#005BA1"/>
</linearGradient>
<linearGradient id="paint2_linear_601_507" x1="49.6394" y1="56.5885" x2="49.6394" y2="30.9577" gradientUnits="userSpaceOnUse">
<stop stop-color="#005BA1"/>
<stop offset="0.26" stop-color="#00589D"/>
<stop offset="0.53" stop-color="#004F90"/>
<stop offset="0.8" stop-color="#003F7C"/>
<stop offset="1" stop-color="#003067"/>
</linearGradient>
<linearGradient id="paint3_linear_601_507" x1="49.6394" y1="62.9847" x2="49.6394" y2="58.416" gradientUnits="userSpaceOnUse">
<stop stop-color="#004DAE"/>
<stop offset="0.21" stop-color="#0061C4"/>
<stop offset="0.51" stop-color="#0078DD"/>
<stop offset="0.78" stop-color="#0086EC"/>
<stop offset="1" stop-color="#008BF1"/>
</linearGradient>
<linearGradient id="paint4_linear_601_507" x1="566.859" y1="39146.3" x2="566.859" y2="24322.2" gradientUnits="userSpaceOnUse">
<stop stop-color="#003067"/>
<stop offset="0.16493" stop-color="#003F7C"/>
<stop offset="0.36216" stop-color="#004F90"/>
<stop offset="0.68089" stop-color="#00589D"/>
<stop offset="1" stop-color="#005BA1"/>
</linearGradient>
<clipPath id="clip0_601_507">
<rect width="99.2799" height="99.28" fill="white"/>
</clipPath>
</defs>
</svg>
