<svg width="180" height="190" viewBox="0 0 180 190" fill="none" xmlns="http://www.w3.org/2000/svg">
<g clip-path="url(#clip0_2430_301)">
<path d="M22.0854 121.076L31.3154 126.366L22.1654 131.626L17.5654 128.986V129.516L21.7255 131.906L18.0454 134.026L18.1854 134.456L22.1854 132.166L31.3755 137.446L22.2555 142.686L20.6055 141.736L20.8154 142.366L89.3254 181.966L89.7555 181.676L80.4254 176.296L89.6954 170.966L98.8955 176.246L99.3054 175.966L90.1554 170.696L99.3855 165.386L108.745 170.756L108.975 170.346L99.8555 165.126L108.975 159.886L118.215 165.196L118.545 164.836L109.445 159.606L118.646 154.326L127.835 159.606L128.375 159.396L119.085 154.066L128.315 148.766L137.455 154.016L137.995 153.806L128.766 148.506L137.905 143.246L147.055 148.506L147.585 148.296L138.355 142.996L147.585 137.686L156.675 142.916L157.205 142.706L148.025 137.436L157.205 132.156L161.896 134.846V134.356L157.625 131.896L162.165 129.286V128.756L157.165 131.646L147.995 126.376L157.255 121.046L162.435 124.046V123.536L119.135 98.5364L99.8755 87.4164L99.6854 87.3464L90.2954 81.9264L89.8655 81.6465L18.0854 122.866V123.406L22.0854 121.076ZM22.6155 131.886L31.7555 126.616L40.9755 131.906L31.8054 137.176L22.6155 131.886ZM80.4454 131.886L89.6754 126.586L98.8154 131.826L89.5854 137.136L80.4454 131.886ZM89.1455 137.396L79.9354 142.686L70.7954 137.436L80.0055 132.146L89.1455 137.396ZM90.1455 126.326L99.2954 121.066L108.425 126.316L99.2754 131.576L90.1455 126.326ZM89.6954 126.066L80.4655 120.766L89.6255 115.506L98.8555 120.806L89.6954 126.066ZM89.2555 126.326L80.0254 131.626L70.7954 126.326L80.0254 121.026L89.2555 126.326ZM79.5754 131.886L70.3655 137.176L61.1355 131.876L70.3455 126.586L79.5754 131.886ZM69.9054 137.446L60.7555 142.706L51.5155 137.406L60.6754 132.136L69.9054 137.446ZM70.3555 137.696L79.4955 142.946L70.3555 148.206L61.1954 142.956L70.3555 137.696ZM79.9354 143.206L89.1654 148.506L80.0354 153.756L70.7954 148.466L79.9354 143.206ZM80.4054 142.936L89.6055 137.646L98.8354 142.946L89.6355 148.246L80.4054 142.936ZM90.0554 137.396L99.2754 132.086L108.505 137.386L99.2854 142.696L90.0554 137.396ZM99.7255 131.826L108.875 126.566L118.105 131.876L108.955 137.136L99.7255 131.826ZM109.315 126.316L118.545 121.006L127.775 126.316L118.545 131.616L109.315 126.316ZM108.875 126.056L99.7455 120.806L108.975 115.506L118.095 120.756L108.875 126.056ZM99.2954 120.556L90.0654 115.246L99.2954 109.946L108.525 115.246L99.2954 120.556ZM89.6255 114.996L80.4655 109.726L89.6954 104.426L98.8555 109.686L89.6255 114.996ZM89.1754 115.246L80.0254 120.516L70.8555 115.246L80.0155 109.986L89.1754 115.246ZM79.5754 120.766L70.3455 126.066L61.1854 120.806L70.4154 115.506L79.5754 120.766ZM69.9054 126.326L60.6854 131.626L51.5254 126.356L60.7355 121.066L69.9054 126.326ZM60.2355 131.886L51.0654 137.146L41.8955 131.886L51.0854 126.586L60.2355 131.886ZM50.6055 137.416L41.4354 142.686L32.2754 137.416L41.4354 132.156L50.6055 137.416ZM51.0554 137.666L60.2954 142.966L51.1055 148.246L41.8755 142.946L51.0554 137.666ZM60.7355 143.226L69.8855 148.476L60.6854 153.766L51.5454 148.506L60.7355 143.226ZM70.3354 148.726L79.5654 154.026L70.3555 159.326L61.1355 154.016L70.3354 148.726ZM80.0155 154.286L89.2954 159.606L80.0754 164.906L70.8054 159.576L80.0155 154.286ZM80.4855 154.016L89.6155 148.766L98.8855 154.096L89.7655 159.336L80.4855 154.016ZM90.0754 148.496L99.2854 143.206L108.555 148.536L99.3555 153.826L90.0754 148.496ZM99.7255 142.946L108.955 137.646L118.225 142.976L108.995 148.276L99.7255 142.946ZM109.396 137.386L118.545 132.126L127.815 137.456L118.675 142.716L109.396 137.386ZM118.995 131.876L128.215 126.566L137.495 131.896L128.266 137.196L118.995 131.876ZM128.665 126.316L137.835 121.036L147.115 126.366L137.935 131.636L128.665 126.316ZM128.215 126.056L118.995 120.756L128.165 115.476L137.396 120.786L128.215 126.056ZM118.545 120.496L109.415 115.246L118.585 109.976L127.715 115.226L118.545 120.496ZM108.975 114.996L99.7455 109.686L108.915 104.426L118.146 109.726L108.975 114.996ZM99.2954 109.436L90.1355 104.166L99.3054 98.9064L108.465 104.166L99.2954 109.436ZM89.6954 103.916L80.4254 98.5864L89.5754 93.3164L98.8555 98.6465L89.6954 103.916ZM89.2455 104.166L80.0155 109.476L70.7655 104.156L79.9855 98.8464L89.2455 104.166ZM79.5754 109.726L70.4154 114.996L61.1754 109.686L70.3254 104.416L79.5754 109.726ZM69.9655 115.246L60.7355 120.546L51.5055 115.246L60.7255 109.936L69.9655 115.246ZM60.2954 120.806L51.0754 126.106L41.8555 120.806L51.0654 115.506L60.2954 120.806ZM50.6255 126.366L41.4554 131.636L32.2355 126.346L41.4054 121.066L50.6255 126.366ZM22.6255 142.936L31.7455 137.696L40.9054 142.956L31.7655 148.216L22.6255 142.936ZM32.2054 148.476L41.3555 143.216L50.5754 148.516L41.4054 153.786L32.2054 148.476ZM41.8555 154.046L51.0254 148.776L60.1754 154.026L50.9755 159.316L41.8555 154.046ZM51.4254 159.576L60.6155 154.286L69.8455 159.586L60.6255 164.886L51.4254 159.576ZM61.0754 165.146L70.2954 159.846L79.5654 165.176L70.3254 170.486L61.0754 165.146ZM79.9054 176.026L70.7655 170.746L80.0155 165.426L89.1754 170.696L79.9054 176.026ZM89.6255 170.436L80.4655 165.166L89.6954 159.866L98.8655 165.126L89.6255 170.436ZM99.3354 164.856L90.1554 159.596L99.2854 154.346L108.445 159.616L99.3354 164.856ZM108.915 159.346L99.7555 154.076L108.945 148.786L118.115 154.056L108.915 159.346ZM118.565 153.796L109.396 148.536L118.625 143.226L127.785 148.496L118.565 153.796ZM128.235 148.236L119.065 142.976L128.215 137.716L137.385 142.986L128.235 148.236ZM137.825 142.726L128.665 137.456L137.885 132.156L147.055 137.426L137.825 142.726ZM156.675 131.886L147.505 137.166L138.335 131.896L147.505 126.616L156.675 131.886ZM156.766 120.786L147.505 126.106L138.235 120.776L147.516 115.436L156.766 120.786ZM147.075 115.186L137.785 120.526L128.555 115.226L137.865 109.866L147.075 115.186ZM137.425 109.616L128.115 114.966L118.985 109.726L128.325 104.356L137.425 109.616ZM127.875 104.096L118.535 109.466L109.305 104.166L118.675 98.7864L127.875 104.096ZM118.225 98.5264L108.865 103.906L99.6954 98.6465L109.085 93.2565L118.225 98.5264ZM108.646 92.9965L99.2555 98.3865L89.9755 93.0664L99.3755 87.6465L108.646 92.9965ZM89.8354 82.1365L98.9354 87.3865L89.5254 92.8064L80.3855 87.5564L89.8354 82.1365ZM79.9454 87.8164L89.0854 93.0664L79.9354 98.3364L70.7854 93.0764L79.9454 87.8164ZM70.3354 93.3264L79.4855 98.5864L70.2655 103.896L61.1055 98.6365L70.3354 93.3264ZM60.6554 98.8865L69.8254 104.156L60.6754 109.426L51.4955 104.156L60.6554 98.8865ZM51.0554 104.406L60.2255 109.686L51.0155 114.986L41.8154 109.706L51.0554 104.406ZM41.3755 109.966L50.5654 115.246L41.3555 120.546L32.1554 115.266L41.3755 109.966ZM31.7054 115.516L40.9054 120.806L31.7355 126.096L22.5055 120.796L31.7054 115.516Z" fill="white"/>
<path d="M90.1859 189.742C93.2459 189.742 96.2559 188.892 98.9159 187.272L160.886 149.612C166.426 146.242 169.856 139.912 169.856 133.072V58.3623C169.856 51.5423 166.426 45.2023 160.886 41.8223L98.9159 4.16225C93.5859 0.922252 86.7659 0.942252 81.4659 4.16225L19.4959 41.8423C13.9559 45.2122 10.5059 51.5423 10.5059 58.3823V133.082C10.5059 138.842 12.9559 144.262 17.0559 147.832V147.862L81.4659 187.292C84.1059 188.892 87.1259 189.742 90.1859 189.742ZM90.8359 8.69225C92.7859 8.69225 95.2659 9.90225 96.9759 10.9523L157.736 48.1423C161.486 50.4223 163.606 57.0223 163.606 61.7723L162.976 133.072C162.976 137.822 159.776 142.092 156.026 144.372L95.6259 180.752C92.1959 182.842 89.4059 182.842 85.9659 180.752L24.7559 144.282C21.0059 142.002 17.9859 137.802 17.9859 133.072V59.4323C17.9859 54.6923 20.7159 49.8023 24.4859 47.5123L85.0659 10.9523C86.7659 9.91225 88.8859 8.69225 90.8359 8.69225Z" fill="#F2F1F0"/>
<path fill-rule="evenodd" clip-rule="evenodd" d="M98.0856 12.2717C95.6356 10.7717 92.9156 10.0217 90.1856 10.0217C87.4556 10.0217 84.7356 10.7817 82.2856 12.2717L26.1556 46.6017C21.1356 49.6717 18.0256 55.4217 18.0256 61.6717V129.772C18.0256 136.002 21.1256 141.772 26.1556 144.842L82.2856 179.172C84.7356 180.672 87.4556 181.422 90.1856 181.422C92.9156 181.422 95.6356 180.682 98.0856 179.172L154.216 144.842C159.236 141.772 162.346 136.002 162.346 129.772V61.6717C162.346 55.4417 159.246 49.6917 154.216 46.6017L98.0856 12.2717Z" fill="url(#paint0_linear_2430_301)"/>
<path d="M90.1855 7.34155C93.1207 7.3416 95.8625 8.79326 97.9736 10.074L156.434 45.614L156.894 45.9041C161.591 48.9872 164.485 54.4964 164.485 60.4822V130.962C164.485 136.947 161.591 142.457 156.894 145.54L156.434 145.83L97.9736 181.37C95.7437 182.726 93.0355 183.912 90.1758 183.912C87.4942 183.912 84.9546 182.861 82.8105 181.612L82.3877 181.36L23.9277 145.82C21.6586 144.445 19.5756 142.829 18.0977 140.4H18.0967C16.6186 137.96 15.875 134.94 15.875 130.962V60.4822C15.875 54.3034 18.96 48.633 23.9277 45.614L82.3975 10.0642L82.4336 10.0417H82.4443C84.5304 8.78638 87.2573 7.34155 90.1855 7.34155ZM90.1855 11.6423C88.5412 11.6423 86.7128 12.5003 84.6221 13.7507L84.6211 13.7498L26.1631 49.2898C22.5607 51.4809 20.1758 55.7012 20.1758 60.4822V130.962C20.1758 134.403 20.812 136.594 21.7734 138.164L21.959 138.456C22.9157 139.893 24.2877 141.006 26.1641 142.154H26.1631L84.6436 177.683L85.0078 177.9C86.8291 178.957 88.5922 179.602 90.1953 179.602C91.9052 179.602 93.7968 178.867 95.7471 177.683L154.207 142.143L154.542 141.932C157.957 139.688 160.195 135.574 160.195 130.952V60.4724C160.195 55.8409 157.957 51.735 154.542 49.491L154.207 49.28L95.7373 13.74C93.6787 12.4908 91.8202 11.6424 90.1855 11.6423Z" fill="url(#paint1_linear_2430_301)" stroke="black" stroke-width="0.3"/>
<path d="M51.5419 81.7525C61.5192 69.9913 72.0648 58.1038 85.531 50.2419C97.529 43.2325 117.768 36.7915 127.587 50.5419C130.066 54.015 131.25 58.2459 131.076 62.5083C130.981 64.7659 130.508 67.0234 129.734 69.1388C128.929 71.2858 127.745 73.2118 126.514 75.1378C126.245 75.5483 126.987 76.385 127.366 75.9745C130.097 73.0855 131.644 68.9178 132.165 65.0184C132.686 61.1191 132.181 57.125 130.571 53.5098C129.071 50.1472 126.624 47.1635 123.641 45.0322C120.483 42.7747 116.884 41.6539 113.032 41.3223C104.886 40.6435 96.6134 43.0905 89.3514 46.6109C82.1053 50.1314 75.5695 54.978 69.6336 60.3929C62.7505 66.6603 56.5937 73.6854 50.642 80.8369C50.2631 81.2789 51.163 82.2104 51.5419 81.7525Z" fill="url(#paint2_linear_2430_301)"/>
<g filter="url(#filter0_ddd_2430_301)">
<path d="M105.154 44.3219C106.392 44.3219 107.396 43.3182 107.396 42.0801C107.396 40.842 106.392 39.8384 105.154 39.8384C103.916 39.8384 102.912 40.842 102.912 42.0801C102.912 43.3182 103.916 44.3219 105.154 44.3219Z" fill="white"/>
<path d="M105.154 44.3219C106.392 44.3219 107.396 43.3182 107.396 42.0801C107.396 40.842 106.392 39.8384 105.154 39.8384C103.916 39.8384 102.912 40.842 102.912 42.0801C102.912 43.3182 103.916 44.3219 105.154 44.3219Z" stroke="black" stroke-width="0.3" stroke-linejoin="round"/>
</g>
<path d="M116.364 116.784C108.013 126.635 99.172 136.565 87.9317 143.179C77.9386 149.036 61.0467 154.546 52.727 143.211C50.5642 140.274 49.5538 136.659 49.6959 133.012C49.7748 131.181 50.1537 129.35 50.7852 127.629C51.4483 125.766 52.4902 124.14 53.5163 122.467C53.7689 122.041 53.0585 121.22 52.6638 121.63C50.3274 124.014 49.0486 127.566 48.6066 130.818C48.1646 134.054 48.5593 137.354 49.8538 140.369C52.4113 146.337 57.9998 150.268 64.4093 150.899C71.3239 151.578 78.3649 149.541 84.5533 146.573C90.6944 143.621 96.2199 139.548 101.256 134.97C107.081 129.666 112.291 123.73 117.327 117.683C117.658 117.273 116.743 116.342 116.364 116.784Z" fill="url(#paint3_linear_2430_301)"/>
<g filter="url(#filter1_ddddd_2430_301)">
<path d="M90.1935 60.1875H39.2177C38.1126 60.1875 37.2285 61.0716 37.2285 62.1766V128.703C37.2285 129.808 38.1126 130.692 39.2177 130.692H90.1935C91.2986 130.692 92.1827 129.808 92.1827 128.703V62.1766C92.1669 61.0716 91.2828 60.1875 90.1935 60.1875Z" fill="white"/>
<path d="M39.2178 60.3379H90.1934C91.1358 60.3379 91.9148 61.0549 92.0205 61.9893L92.0322 62.1787V128.702C92.0322 129.724 91.2156 130.542 90.1934 130.542H39.2178C38.1955 130.542 37.3789 129.724 37.3789 128.702V62.1768C37.3789 61.1545 38.1955 60.3379 39.2178 60.3379Z" stroke="black" stroke-width="0.3"/>
</g>
<path d="M71.6282 95.4869H66.2133V90.072H63.4979V95.4869H58.083V98.2023H63.4979V103.617H66.2133V98.2023H71.6282V95.4869Z" fill="white"/>
<g filter="url(#filter2_ddddd_2430_301)">
<path d="M98.1349 93.3397H140.065C141.486 93.3397 142.654 92.1873 142.654 90.7507V63.0131C142.654 61.5923 141.502 60.4241 140.065 60.4241H98.1349C96.7141 60.4241 95.5459 61.5765 95.5459 63.0131V90.7507C95.5617 92.1715 96.7141 93.3397 98.1349 93.3397Z" fill="white"/>
<path d="M98.1348 60.5745H140.064C141.418 60.5745 142.504 61.6744 142.504 63.0129V90.7502C142.504 92.1034 141.403 93.1897 140.064 93.1897H98.1348C96.8819 93.1896 95.8476 92.2229 95.7109 90.9973L95.6963 90.7493V63.0129C95.6964 61.6599 96.7963 60.5746 98.1348 60.5745Z" stroke="black" stroke-width="0.3"/>
</g>
<g filter="url(#filter3_ddddd_2430_301)">
<path d="M98.1349 130.881H140.065C141.486 130.881 142.654 129.729 142.654 128.292V100.57C142.654 99.1494 141.502 97.9812 140.065 97.9812H98.1349C96.7141 97.9812 95.5459 99.1336 95.5459 100.57V128.308C95.5617 129.729 96.7141 130.881 98.1349 130.881Z" fill="white"/>
<path d="M98.1348 98.1316H140.064C141.418 98.1316 142.504 99.2316 142.504 100.57V128.292C142.504 129.645 141.403 130.731 140.064 130.731H98.1348C96.8809 130.731 95.8476 129.777 95.7109 128.554L95.6963 128.306V100.57C95.6964 99.217 96.7963 98.1317 98.1348 98.1316Z" stroke="black" stroke-width="0.3"/>
</g>
<g filter="url(#filter4_ddd_2430_301)">
<path d="M74.2749 151.215C75.3124 151.215 76.1535 150.374 76.1535 149.336C76.1535 148.299 75.3124 147.458 74.2749 147.458C73.2373 147.458 72.3962 148.299 72.3962 149.336C72.3962 150.374 73.2373 151.215 74.2749 151.215Z" fill="white"/>
<path d="M74.2749 151.215C75.3124 151.215 76.1535 150.374 76.1535 149.336C76.1535 148.299 75.3124 147.458 74.2749 147.458C73.2373 147.458 72.3962 148.299 72.3962 149.336C72.3962 150.374 73.2373 151.215 74.2749 151.215Z" stroke="black" stroke-width="0.3" stroke-linejoin="round"/>
</g>
<g opacity="0.15">
<path opacity="0.15" d="M44.7222 84.5781V112.221C44.7222 112.568 45.0063 112.868 45.3694 112.868H84.3157C84.663 112.868 84.9629 112.584 84.9629 112.221V84.5781H44.7222Z" fill="#1F1D20"/>
</g>
<path d="M43.0801 83.11V110.153C43.0801 110.8 43.601 111.305 44.2325 111.305H85.4205C86.0678 111.305 86.5729 110.784 86.5729 110.153V83.11C86.5729 82.4627 86.052 81.9575 85.4205 81.9575H44.2483C43.601 81.9575 43.0801 82.4785 43.0801 83.11Z" fill="#282828"/>
<path d="M72.0806 88.9038H57.3199C56.5779 88.9038 55.978 88.3039 55.978 87.5619V75.2481C55.978 74.5061 56.5779 73.9062 57.3199 73.9062H72.0806C72.8226 73.9062 73.4225 74.5061 73.4225 75.2481V87.5619C73.4225 88.3039 72.8068 88.9038 72.0806 88.9038ZM58.6618 86.22H70.7388V76.59H58.6618V86.22Z" fill="#282828"/>
<path opacity="0.15" d="M71.6237 95.6293H66.2088V90.2144H63.4934V95.6293H58.0627V98.3446H63.4776V103.76H66.193V98.3446H71.6079V95.6293H71.6237Z" fill="#1F1D20"/>
<path d="M71.6237 94.745H66.2088V89.3301H63.4934V94.745H58.0627V97.4603H63.4776V102.875H66.193V97.4603H71.6079V94.745H71.6237Z" fill="white"/>
<g opacity="0.15">
<g opacity="0.15">
<path opacity="0.15" d="M130.634 124.866C130.287 124.866 129.955 124.756 129.655 124.566C129.371 124.377 129.134 124.093 129.008 123.777C128.882 123.461 128.834 123.098 128.913 122.767C128.976 122.419 129.15 122.119 129.387 121.867C129.64 121.614 129.939 121.456 130.287 121.393C130.634 121.33 130.981 121.362 131.297 121.488C131.613 121.614 131.897 121.851 132.087 122.135C132.276 122.419 132.386 122.767 132.386 123.114C132.386 123.572 132.197 124.03 131.865 124.361C131.55 124.677 131.108 124.866 130.634 124.866Z" fill="#1F1D20"/>
<path opacity="0.15" d="M130.634 109.079C131.597 109.079 132.387 108.29 132.387 107.327C132.387 106.364 131.597 105.575 130.634 105.575C129.671 105.575 128.882 106.364 128.882 107.327C128.882 108.29 129.671 109.079 130.634 109.079Z" fill="#1F1D20"/>
<path opacity="0.15" d="M130.635 114.337C131.598 114.337 132.387 113.547 132.387 112.584C132.387 111.621 131.598 110.832 130.635 110.832C129.672 110.832 128.882 111.621 128.882 112.584C128.882 113.547 129.672 114.337 130.635 114.337Z" fill="#1F1D20"/>
<path opacity="0.15" d="M130.635 119.609C131.598 119.609 132.387 118.82 132.387 117.857C132.387 116.894 131.598 116.104 130.635 116.104C129.672 116.104 128.882 116.894 128.882 117.857C128.882 118.82 129.672 119.609 130.635 119.609Z" fill="#1F1D20"/>
</g>
<path opacity="0.15" d="M111.722 107.564H108.722V104.565H107.222V107.564H104.223V109.064H107.222V112.063H108.722V109.064H111.722V107.564Z" fill="#1F1D20"/>
<path opacity="0.15" d="M115.731 115.473H122.757V119.862C122.757 120.793 122.394 121.677 121.73 122.34C121.067 123.003 120.183 123.367 119.252 123.367C118.32 123.367 117.436 123.003 116.773 122.34C116.11 121.677 115.747 120.793 115.747 119.862V115.473H115.731Z" fill="#1F1D20"/>
</g>
<path d="M122.607 114.834V119.073C122.607 119.964 122.259 120.811 121.624 121.446C120.99 122.08 120.144 122.427 119.252 122.427C118.359 122.427 117.49 122.08 116.856 121.447C116.221 120.812 115.876 119.965 115.876 119.073V114.834H122.607Z" fill="url(#paint4_linear_2430_301)"/>
<path d="M122.607 114.834V119.073C122.607 119.964 122.259 120.811 121.624 121.446C120.99 122.08 120.144 122.427 119.252 122.427C118.359 122.427 117.49 122.08 116.856 121.447C116.221 120.812 115.876 119.965 115.876 119.073V114.834H122.607Z" fill="black" fill-opacity="0.2"/>
<path d="M122.607 114.834V119.073C122.607 119.964 122.259 120.811 121.624 121.446C120.99 122.08 120.144 122.427 119.252 122.427C118.359 122.427 117.49 122.08 116.856 121.447C116.221 120.812 115.876 119.965 115.876 119.073V114.834H122.607Z" stroke="black" stroke-width="0.3"/>
<path d="M119.236 106.941C120.072 106.941 120.868 107.246 121.487 107.807L121.608 107.922C122.243 108.557 122.591 109.404 122.591 110.295V114.534H115.882V110.295C115.882 109.459 116.187 108.664 116.748 108.044L116.863 107.922C117.498 107.288 118.344 106.941 119.236 106.941Z" fill="url(#paint5_linear_2430_301)" stroke="black" stroke-width="0.3"/>
<path opacity="0.15" fill-rule="evenodd" clip-rule="evenodd" d="M128.898 69.8178L128.677 69.5967C126.12 67.0393 121.984 67.0393 119.426 69.5967L119.189 69.8335L118.937 69.5809C116.379 67.0235 112.243 67.0235 109.686 69.5809L109.465 69.802C106.907 72.3594 106.907 76.4956 109.465 79.0531L109.717 79.3057L119.189 88.7778L128.898 79.0689C131.456 76.5272 131.456 72.3752 128.898 69.8178Z" fill="#1F1D20"/>
<path d="M109.792 68.061C112.212 65.6402 116.081 65.5639 118.592 67.8335L118.831 68.061L128.433 77.6636L119.173 86.9233L109.571 77.3208C107.15 74.9 107.074 71.0313 109.343 68.52L109.571 68.2817L109.792 68.061Z" fill="url(#paint6_linear_2430_301)"/>
<path d="M109.792 68.061C112.212 65.6402 116.081 65.5639 118.592 67.8335L118.831 68.061L128.433 77.6636L119.173 86.9233L109.571 77.3208C107.15 74.9 107.074 71.0313 109.343 68.52L109.571 68.2817L109.792 68.061Z" fill="black" fill-opacity="0.4"/>
<path d="M109.792 68.061C112.212 65.6402 116.081 65.5639 118.592 67.8335L118.831 68.061L128.433 77.6636L119.173 86.9233L109.571 77.3208C107.15 74.9 107.074 71.0313 109.343 68.52L109.571 68.2817L109.792 68.061Z" stroke="black" stroke-width="0.3"/>
<path d="M119.517 68.0769C121.938 65.6563 125.806 65.5801 128.317 67.8494L128.555 68.0769L128.777 68.2976C131.198 70.7185 131.273 74.5872 129.003 77.0984L128.777 77.3367L119.173 86.9392L109.914 77.6794L119.517 68.0769Z" fill="url(#paint7_linear_2430_301)" stroke="black" stroke-width="0.3"/>
<path d="M130.313 121.004C130.594 120.953 130.874 120.97 131.132 121.052L131.241 121.091C131.527 121.205 131.788 121.421 131.962 121.682C132.136 121.942 132.236 122.261 132.236 122.577C132.236 122.943 132.104 123.31 131.867 123.6L131.76 123.719C131.472 124.006 131.068 124.18 130.635 124.18C130.36 124.18 130.092 124.103 129.842 123.966L129.735 123.903C129.477 123.73 129.261 123.47 129.147 123.185C129.045 122.928 129 122.642 129.038 122.377L129.06 122.265L129.062 122.257C129.104 122.022 129.203 121.809 129.343 121.617L129.497 121.433C129.727 121.204 129.998 121.061 130.313 121.004ZM130.635 115.718C131.515 115.718 132.237 116.44 132.237 117.32C132.237 118.2 131.515 118.923 130.635 118.923C129.755 118.923 129.032 118.2 129.032 117.32C129.032 116.44 129.755 115.718 130.635 115.718ZM130.635 110.445C131.515 110.445 132.237 111.168 132.237 112.048C132.237 112.928 131.515 113.65 130.635 113.65C129.755 113.65 129.032 112.928 129.032 112.048C129.032 111.168 129.755 110.445 130.635 110.445ZM130.635 105.188C131.515 105.188 132.237 105.91 132.237 106.79C132.237 107.67 131.515 108.393 130.635 108.393C129.755 108.393 129.032 107.67 129.032 106.79C129.032 105.91 129.755 105.189 130.635 105.188Z" fill="url(#paint8_linear_2430_301)" stroke="black" stroke-width="0.3"/>
<g filter="url(#filter5_ddddd_2430_301)">
<path d="M122.822 74.7751H119.823V71.7756H118.323V74.7751H115.323V76.2749H118.323V79.2744H119.823V76.2749H122.822V74.7751Z" fill="white"/>
<path d="M122.822 74.7751H119.823V71.7756H118.323V74.7751H115.323V76.2749H118.323V79.2744H119.823V76.2749H122.822V74.7751Z" stroke="black" stroke-width="0.3" stroke-linejoin="round"/>
</g>
<path d="M119.236 115.742C121.172 115.742 122.741 115.268 122.741 114.684C122.741 114.1 121.172 113.626 119.236 113.626C117.301 113.626 115.731 114.1 115.731 114.684C115.731 115.268 117.301 115.742 119.236 115.742Z" fill="#0078D4"/>
<path d="M116.774 114.1C116.821 115.031 117.2 115.047 117.153 114.116C117.121 113.563 117.121 110.2 117.153 109.679C117.216 108.716 116.9 108.48 116.821 109.758C116.695 111.463 116.695 112.332 116.774 114.1Z" fill="white"/>
<g filter="url(#filter6_ddddd_2430_301)">
<path d="M114.311 66.0287C115.985 66.0287 117.658 66.6602 118.937 67.9389L119.189 68.1915L119.426 67.9547C120.705 66.676 122.378 66.0445 124.052 66.0445C125.725 66.0445 127.399 66.676 128.677 67.9547L128.898 68.1757C131.456 70.7332 131.456 74.8693 128.898 77.4268L119.189 87.1358L109.717 77.6636L109.465 77.411C106.907 74.8536 106.907 70.7174 109.465 68.1599L109.686 67.9389C110.964 66.6602 112.638 66.0287 114.311 66.0287ZM114.311 65.3972C112.401 65.3972 110.586 66.1392 109.244 67.4969L109.023 67.7179C106.228 70.5122 106.228 75.0746 109.023 77.8689L109.212 78.0583C109.228 78.0899 109.244 78.1057 109.275 78.1372L118.747 87.6094C118.874 87.7357 119.032 87.7988 119.189 87.7988C119.347 87.7988 119.521 87.7357 119.631 87.6094L129.34 77.9004C130.698 76.5428 131.44 74.743 131.44 72.8328C131.44 70.9226 130.698 69.1071 129.34 67.7652L129.119 67.5442C127.762 66.1866 125.962 65.4446 124.052 65.4446C122.236 65.4446 120.516 66.1234 119.189 67.339C117.863 66.0761 116.127 65.3972 114.311 65.3972Z" fill="white"/>
<path d="M114.312 65.2468C116.119 65.2469 117.85 65.9081 119.191 67.1375C120.53 65.9544 122.245 65.2947 124.052 65.2947C126.002 65.2947 127.84 66.0524 129.226 67.4382L129.447 67.6589H129.446C130.832 69.0296 131.59 70.8834 131.59 72.8328C131.59 74.7827 130.832 76.6207 129.447 78.0066L119.738 87.7156L119.737 87.7146C119.593 87.874 119.379 87.9489 119.19 87.949C119.016 87.949 118.844 87.8876 118.7 87.7693L118.642 87.7156L109.169 78.2429C109.145 78.219 109.122 78.1939 109.099 78.158L108.916 77.9753C106.064 75.1226 106.064 70.4649 108.916 67.6121L109.138 67.3904C110.509 66.0042 112.363 65.2468 114.312 65.2468ZM114.312 66.1785C112.676 66.1785 111.041 66.7957 109.792 68.0447L109.571 68.2664C107.072 70.7653 107.072 74.8066 109.571 77.3054L109.823 77.5574L119.189 86.9236L128.792 77.321L129.019 77.0818C131.215 74.6514 131.215 70.9505 129.019 68.5203L128.792 68.282L128.572 68.0603C127.322 66.8112 125.688 66.1941 124.052 66.1941C122.519 66.1941 120.986 66.7366 119.771 67.8337L119.532 68.0603L119.295 68.2976C119.267 68.3256 119.229 68.3415 119.19 68.3416C119.15 68.3416 119.111 68.3257 119.083 68.2976L118.83 68.0447V68.0437C117.581 66.7952 115.947 66.1786 114.312 66.1785Z" stroke="black" stroke-width="0.3" stroke-linejoin="round"/>
</g>
<g filter="url(#filter7_ddddd_2430_301)">
<path d="M119.237 106.79C120.168 106.79 121.052 107.153 121.715 107.816C122.378 108.479 122.741 109.364 122.741 110.295V114.684V119.072C122.741 120.004 122.378 120.888 121.715 121.551C121.052 122.214 120.168 122.577 119.237 122.577C118.305 122.577 117.421 122.214 116.758 121.551C116.095 120.888 115.732 120.004 115.732 119.072V114.684V110.295C115.732 109.364 116.095 108.479 116.758 107.816C117.405 107.153 118.305 106.79 119.237 106.79ZM119.237 106.317C118.179 106.317 117.169 106.727 116.427 107.485C115.669 108.243 115.258 109.237 115.258 110.295V114.684V114.905V119.057C115.258 120.114 115.669 121.125 116.427 121.867C117.184 122.624 118.179 123.035 119.237 123.035C120.294 123.035 121.305 122.624 122.047 121.867C122.789 121.109 123.215 120.114 123.215 119.057V114.668V114.194V110.279C123.215 109.221 122.804 108.211 122.047 107.469C121.305 106.727 120.294 106.317 119.237 106.317Z" fill="white"/>
<path d="M119.237 106.166C120.333 106.166 121.381 106.592 122.152 107.362L122.295 107.51C122.991 108.265 123.365 109.252 123.365 110.28V119.057C123.365 120.087 122.976 121.058 122.294 121.822L122.154 121.972C121.383 122.759 120.333 123.185 119.237 123.185C118.139 123.185 117.107 122.759 116.321 121.973V121.972C115.534 121.201 115.108 120.153 115.108 119.057V110.295C115.108 109.198 115.535 108.165 116.321 107.379C117.092 106.592 118.141 106.166 119.237 106.166ZM119.237 106.941C118.344 106.941 117.483 107.288 116.866 107.921L116.864 107.922C116.229 108.557 115.882 109.403 115.882 110.295V119.073C115.882 119.964 116.229 120.81 116.864 121.445L116.986 121.561C117.605 122.122 118.401 122.427 119.237 122.427C120.129 122.427 120.974 122.079 121.609 121.445L121.725 121.323C122.286 120.704 122.591 119.909 122.591 119.073V110.295C122.591 109.459 122.286 108.663 121.725 108.044L121.609 107.922C120.974 107.288 120.128 106.941 119.237 106.941Z" stroke="black" stroke-width="0.3" stroke-linejoin="round"/>
</g>
<path d="M109.532 113.972L109.622 113.99C109.71 114.014 109.793 114.054 109.868 114.107L109.962 114.185C110.02 114.241 110.068 114.305 110.106 114.376L110.155 114.486L110.156 114.49L110.347 115.073L110.373 115.141C110.404 115.206 110.446 115.267 110.497 115.318C110.566 115.387 110.65 115.438 110.742 115.469H110.741L111.314 115.654H111.313C111.436 115.693 111.547 115.76 111.637 115.851L111.719 115.948V115.949L111.768 116.026C111.811 116.106 111.84 116.192 111.854 116.282L111.863 116.373C111.866 116.433 111.861 116.494 111.85 116.553L111.827 116.641C111.8 116.728 111.756 116.809 111.701 116.881L111.643 116.95C111.558 117.037 111.454 117.103 111.34 117.144L111.336 117.146L110.751 117.334L110.752 117.335C110.66 117.366 110.576 117.416 110.508 117.484L110.509 117.485C110.441 117.554 110.388 117.637 110.356 117.729L110.357 117.729L110.172 118.302L110.171 118.303C110.132 118.42 110.066 118.526 109.979 118.612L109.885 118.691C109.751 118.788 109.59 118.84 109.426 118.84H109.385L109.376 118.835C109.271 118.828 109.168 118.803 109.074 118.756L108.971 118.693C108.838 118.599 108.738 118.467 108.684 118.313L108.683 118.311L108.825 118.264L108.683 118.31L108.492 117.727L108.466 117.658C108.445 117.614 108.42 117.573 108.39 117.535L108.342 117.481C108.273 117.413 108.19 117.36 108.098 117.329V117.33L107.525 117.144H107.524C107.369 117.092 107.234 116.992 107.138 116.859C107.066 116.76 107.019 116.646 106.999 116.526L106.988 116.404C106.987 116.241 107.037 116.081 107.131 115.947C107.225 115.813 107.358 115.713 107.513 115.658L107.516 115.656L108.098 115.468L108.163 115.44C108.227 115.409 108.285 115.367 108.335 115.315L108.382 115.262C108.425 115.206 108.459 115.142 108.481 115.074L108.669 114.5V114.499L108.703 114.413C108.742 114.331 108.795 114.255 108.86 114.19C108.947 114.104 109.054 114.039 109.171 114.001L109.259 113.978C109.349 113.959 109.441 113.958 109.532 113.972ZM104.499 107.103C104.657 107.103 104.812 107.139 104.953 107.208L105.089 107.287L105.09 107.288L105.211 107.389C105.286 107.462 105.351 107.545 105.4 107.638L105.464 107.782L105.465 107.786L105.851 108.972H105.85C105.942 109.245 106.096 109.493 106.3 109.696L106.461 109.84C106.63 109.973 106.821 110.077 107.025 110.146H107.026L108.235 110.536L108.239 110.537L108.384 110.601C108.522 110.675 108.643 110.782 108.734 110.911L108.815 111.046C108.885 111.187 108.922 111.342 108.922 111.501C108.922 111.66 108.886 111.816 108.815 111.957L108.734 112.092C108.612 112.265 108.439 112.395 108.239 112.466L108.236 112.467L107.05 112.853L107.051 112.854C106.776 112.945 106.526 113.099 106.321 113.304C106.117 113.508 105.962 113.758 105.871 114.033L105.467 115.264L105.463 115.276C105.388 115.451 105.267 115.602 105.112 115.712H105.111C104.982 115.803 104.834 115.862 104.679 115.886L104.522 115.897C104.364 115.897 104.208 115.86 104.067 115.79L103.932 115.709C103.759 115.587 103.628 115.414 103.558 115.215L103.557 115.211L103.172 114.027C103.122 113.877 103.053 113.734 102.967 113.602L102.875 113.473L102.721 113.297C102.516 113.092 102.267 112.937 101.992 112.845V112.846L100.82 112.465L100.818 112.464C100.665 112.412 100.527 112.325 100.415 112.21L100.312 112.086C100.243 111.989 100.192 111.881 100.161 111.768L100.137 111.652C100.113 111.496 100.125 111.336 100.173 111.186L100.215 111.075C100.263 110.968 100.331 110.869 100.413 110.784L100.5 110.704C100.591 110.629 100.695 110.571 100.807 110.531L100.811 110.53L101.996 110.145C102.264 110.05 102.507 109.896 102.706 109.694C102.853 109.545 102.973 109.373 103.062 109.185L103.141 108.991L103.53 107.795V107.793L103.595 107.646C103.669 107.504 103.776 107.381 103.908 107.288L103.91 107.287L104.046 107.208C104.187 107.14 104.341 107.103 104.499 107.103Z" fill="url(#paint9_linear_2430_301)" stroke="black" stroke-width="0.3"/>
</g>
<defs>
<filter id="filter0_ddd_2430_301" x="101.762" y="38.6885" width="6.78345" height="7.78345" filterUnits="userSpaceOnUse" color-interpolation-filters="sRGB">
<feFlood flood-opacity="0" result="BackgroundImageFix"/>
<feColorMatrix in="SourceAlpha" type="matrix" values="0 0 0 0 0 0 0 0 0 0 0 0 0 0 0 0 0 0 127 0" result="hardAlpha"/>
<feOffset/>
<feGaussianBlur stdDeviation="0.5"/>
<feColorMatrix type="matrix" values="0 0 0 0 0 0 0 0 0 0 0 0 0 0 0 0 0 0 0.09 0"/>
<feBlend mode="normal" in2="BackgroundImageFix" result="effect1_dropShadow_2430_301"/>
<feColorMatrix in="SourceAlpha" type="matrix" values="0 0 0 0 0 0 0 0 0 0 0 0 0 0 0 0 0 0 127 0" result="hardAlpha"/>
<feOffset dy="1"/>
<feGaussianBlur stdDeviation="0.5"/>
<feColorMatrix type="matrix" values="0 0 0 0 0 0 0 0 0 0 0 0 0 0 0 0 0 0 0.05 0"/>
<feBlend mode="normal" in2="effect1_dropShadow_2430_301" result="effect2_dropShadow_2430_301"/>
<feColorMatrix in="SourceAlpha" type="matrix" values="0 0 0 0 0 0 0 0 0 0 0 0 0 0 0 0 0 0 127 0" result="hardAlpha"/>
<feOffset dy="1"/>
<feGaussianBlur stdDeviation="0.5"/>
<feColorMatrix type="matrix" values="0 0 0 0 0 0 0 0 0 0 0 0 0 0 0 0 0 0 0.01 0"/>
<feBlend mode="normal" in2="effect2_dropShadow_2430_301" result="effect3_dropShadow_2430_301"/>
<feBlend mode="normal" in="SourceGraphic" in2="effect3_dropShadow_2430_301" result="shape"/>
</filter>
<filter id="filter1_ddddd_2430_301" x="33.2285" y="59.1875" width="62.9541" height="86.5042" filterUnits="userSpaceOnUse" color-interpolation-filters="sRGB">
<feFlood flood-opacity="0" result="BackgroundImageFix"/>
<feColorMatrix in="SourceAlpha" type="matrix" values="0 0 0 0 0 0 0 0 0 0 0 0 0 0 0 0 0 0 127 0" result="hardAlpha"/>
<feOffset/>
<feColorMatrix type="matrix" values="0 0 0 0 0 0 0 0 0 0 0 0 0 0 0 0 0 0 0.1 0"/>
<feBlend mode="normal" in2="BackgroundImageFix" result="effect1_dropShadow_2430_301"/>
<feColorMatrix in="SourceAlpha" type="matrix" values="0 0 0 0 0 0 0 0 0 0 0 0 0 0 0 0 0 0 127 0" result="hardAlpha"/>
<feOffset dy="1"/>
<feGaussianBlur stdDeviation="1"/>
<feColorMatrix type="matrix" values="0 0 0 0 0 0 0 0 0 0 0 0 0 0 0 0 0 0 0.1 0"/>
<feBlend mode="normal" in2="effect1_dropShadow_2430_301" result="effect2_dropShadow_2430_301"/>
<feColorMatrix in="SourceAlpha" type="matrix" values="0 0 0 0 0 0 0 0 0 0 0 0 0 0 0 0 0 0 127 0" result="hardAlpha"/>
<feOffset dy="3"/>
<feGaussianBlur stdDeviation="1.5"/>
<feColorMatrix type="matrix" values="0 0 0 0 0 0 0 0 0 0 0 0 0 0 0 0 0 0 0.09 0"/>
<feBlend mode="normal" in2="effect2_dropShadow_2430_301" result="effect3_dropShadow_2430_301"/>
<feColorMatrix in="SourceAlpha" type="matrix" values="0 0 0 0 0 0 0 0 0 0 0 0 0 0 0 0 0 0 127 0" result="hardAlpha"/>
<feOffset dy="6"/>
<feGaussianBlur stdDeviation="2"/>
<feColorMatrix type="matrix" values="0 0 0 0 0 0 0 0 0 0 0 0 0 0 0 0 0 0 0.05 0"/>
<feBlend mode="normal" in2="effect3_dropShadow_2430_301" result="effect4_dropShadow_2430_301"/>
<feColorMatrix in="SourceAlpha" type="matrix" values="0 0 0 0 0 0 0 0 0 0 0 0 0 0 0 0 0 0 127 0" result="hardAlpha"/>
<feOffset dy="11"/>
<feGaussianBlur stdDeviation="2"/>
<feColorMatrix type="matrix" values="0 0 0 0 0 0 0 0 0 0 0 0 0 0 0 0 0 0 0.01 0"/>
<feBlend mode="normal" in2="effect4_dropShadow_2430_301" result="effect5_dropShadow_2430_301"/>
<feBlend mode="normal" in="SourceGraphic" in2="effect5_dropShadow_2430_301" result="shape"/>
</filter>
<filter id="filter2_ddddd_2430_301" x="91.5459" y="59.4241" width="55.1082" height="48.9158" filterUnits="userSpaceOnUse" color-interpolation-filters="sRGB">
<feFlood flood-opacity="0" result="BackgroundImageFix"/>
<feColorMatrix in="SourceAlpha" type="matrix" values="0 0 0 0 0 0 0 0 0 0 0 0 0 0 0 0 0 0 127 0" result="hardAlpha"/>
<feOffset/>
<feColorMatrix type="matrix" values="0 0 0 0 0 0 0 0 0 0 0 0 0 0 0 0 0 0 0.1 0"/>
<feBlend mode="normal" in2="BackgroundImageFix" result="effect1_dropShadow_2430_301"/>
<feColorMatrix in="SourceAlpha" type="matrix" values="0 0 0 0 0 0 0 0 0 0 0 0 0 0 0 0 0 0 127 0" result="hardAlpha"/>
<feOffset dy="1"/>
<feGaussianBlur stdDeviation="1"/>
<feColorMatrix type="matrix" values="0 0 0 0 0 0 0 0 0 0 0 0 0 0 0 0 0 0 0.1 0"/>
<feBlend mode="normal" in2="effect1_dropShadow_2430_301" result="effect2_dropShadow_2430_301"/>
<feColorMatrix in="SourceAlpha" type="matrix" values="0 0 0 0 0 0 0 0 0 0 0 0 0 0 0 0 0 0 127 0" result="hardAlpha"/>
<feOffset dy="3"/>
<feGaussianBlur stdDeviation="1.5"/>
<feColorMatrix type="matrix" values="0 0 0 0 0 0 0 0 0 0 0 0 0 0 0 0 0 0 0.09 0"/>
<feBlend mode="normal" in2="effect2_dropShadow_2430_301" result="effect3_dropShadow_2430_301"/>
<feColorMatrix in="SourceAlpha" type="matrix" values="0 0 0 0 0 0 0 0 0 0 0 0 0 0 0 0 0 0 127 0" result="hardAlpha"/>
<feOffset dy="6"/>
<feGaussianBlur stdDeviation="2"/>
<feColorMatrix type="matrix" values="0 0 0 0 0 0 0 0 0 0 0 0 0 0 0 0 0 0 0.05 0"/>
<feBlend mode="normal" in2="effect3_dropShadow_2430_301" result="effect4_dropShadow_2430_301"/>
<feColorMatrix in="SourceAlpha" type="matrix" values="0 0 0 0 0 0 0 0 0 0 0 0 0 0 0 0 0 0 127 0" result="hardAlpha"/>
<feOffset dy="11"/>
<feGaussianBlur stdDeviation="2"/>
<feColorMatrix type="matrix" values="0 0 0 0 0 0 0 0 0 0 0 0 0 0 0 0 0 0 0.01 0"/>
<feBlend mode="normal" in2="effect4_dropShadow_2430_301" result="effect5_dropShadow_2430_301"/>
<feBlend mode="normal" in="SourceGraphic" in2="effect5_dropShadow_2430_301" result="shape"/>
</filter>
<filter id="filter3_ddddd_2430_301" x="91.5459" y="96.9812" width="55.1082" height="48.8999" filterUnits="userSpaceOnUse" color-interpolation-filters="sRGB">
<feFlood flood-opacity="0" result="BackgroundImageFix"/>
<feColorMatrix in="SourceAlpha" type="matrix" values="0 0 0 0 0 0 0 0 0 0 0 0 0 0 0 0 0 0 127 0" result="hardAlpha"/>
<feOffset/>
<feColorMatrix type="matrix" values="0 0 0 0 0 0 0 0 0 0 0 0 0 0 0 0 0 0 0.1 0"/>
<feBlend mode="normal" in2="BackgroundImageFix" result="effect1_dropShadow_2430_301"/>
<feColorMatrix in="SourceAlpha" type="matrix" values="0 0 0 0 0 0 0 0 0 0 0 0 0 0 0 0 0 0 127 0" result="hardAlpha"/>
<feOffset dy="1"/>
<feGaussianBlur stdDeviation="1"/>
<feColorMatrix type="matrix" values="0 0 0 0 0 0 0 0 0 0 0 0 0 0 0 0 0 0 0.1 0"/>
<feBlend mode="normal" in2="effect1_dropShadow_2430_301" result="effect2_dropShadow_2430_301"/>
<feColorMatrix in="SourceAlpha" type="matrix" values="0 0 0 0 0 0 0 0 0 0 0 0 0 0 0 0 0 0 127 0" result="hardAlpha"/>
<feOffset dy="3"/>
<feGaussianBlur stdDeviation="1.5"/>
<feColorMatrix type="matrix" values="0 0 0 0 0 0 0 0 0 0 0 0 0 0 0 0 0 0 0.09 0"/>
<feBlend mode="normal" in2="effect2_dropShadow_2430_301" result="effect3_dropShadow_2430_301"/>
<feColorMatrix in="SourceAlpha" type="matrix" values="0 0 0 0 0 0 0 0 0 0 0 0 0 0 0 0 0 0 127 0" result="hardAlpha"/>
<feOffset dy="6"/>
<feGaussianBlur stdDeviation="2"/>
<feColorMatrix type="matrix" values="0 0 0 0 0 0 0 0 0 0 0 0 0 0 0 0 0 0 0.05 0"/>
<feBlend mode="normal" in2="effect3_dropShadow_2430_301" result="effect4_dropShadow_2430_301"/>
<feColorMatrix in="SourceAlpha" type="matrix" values="0 0 0 0 0 0 0 0 0 0 0 0 0 0 0 0 0 0 127 0" result="hardAlpha"/>
<feOffset dy="11"/>
<feGaussianBlur stdDeviation="2"/>
<feColorMatrix type="matrix" values="0 0 0 0 0 0 0 0 0 0 0 0 0 0 0 0 0 0 0.01 0"/>
<feBlend mode="normal" in2="effect4_dropShadow_2430_301" result="effect5_dropShadow_2430_301"/>
<feBlend mode="normal" in="SourceGraphic" in2="effect5_dropShadow_2430_301" result="shape"/>
</filter>
<filter id="filter4_ddd_2430_301" x="71.2463" y="146.308" width="6.05713" height="7.05713" filterUnits="userSpaceOnUse" color-interpolation-filters="sRGB">
<feFlood flood-opacity="0" result="BackgroundImageFix"/>
<feColorMatrix in="SourceAlpha" type="matrix" values="0 0 0 0 0 0 0 0 0 0 0 0 0 0 0 0 0 0 127 0" result="hardAlpha"/>
<feOffset/>
<feGaussianBlur stdDeviation="0.5"/>
<feColorMatrix type="matrix" values="0 0 0 0 0 0 0 0 0 0 0 0 0 0 0 0 0 0 0.09 0"/>
<feBlend mode="normal" in2="BackgroundImageFix" result="effect1_dropShadow_2430_301"/>
<feColorMatrix in="SourceAlpha" type="matrix" values="0 0 0 0 0 0 0 0 0 0 0 0 0 0 0 0 0 0 127 0" result="hardAlpha"/>
<feOffset dy="1"/>
<feGaussianBlur stdDeviation="0.5"/>
<feColorMatrix type="matrix" values="0 0 0 0 0 0 0 0 0 0 0 0 0 0 0 0 0 0 0.05 0"/>
<feBlend mode="normal" in2="effect1_dropShadow_2430_301" result="effect2_dropShadow_2430_301"/>
<feColorMatrix in="SourceAlpha" type="matrix" values="0 0 0 0 0 0 0 0 0 0 0 0 0 0 0 0 0 0 127 0" result="hardAlpha"/>
<feOffset dy="1"/>
<feGaussianBlur stdDeviation="0.5"/>
<feColorMatrix type="matrix" values="0 0 0 0 0 0 0 0 0 0 0 0 0 0 0 0 0 0 0.01 0"/>
<feBlend mode="normal" in2="effect2_dropShadow_2430_301" result="effect3_dropShadow_2430_301"/>
<feBlend mode="normal" in="SourceGraphic" in2="effect3_dropShadow_2430_301" result="shape"/>
</filter>
<filter id="filter5_ddddd_2430_301" x="111.173" y="70.6257" width="15.7986" height="23.7986" filterUnits="userSpaceOnUse" color-interpolation-filters="sRGB">
<feFlood flood-opacity="0" result="BackgroundImageFix"/>
<feColorMatrix in="SourceAlpha" type="matrix" values="0 0 0 0 0 0 0 0 0 0 0 0 0 0 0 0 0 0 127 0" result="hardAlpha"/>
<feOffset/>
<feColorMatrix type="matrix" values="0 0 0 0 0 0 0 0 0 0 0 0 0 0 0 0 0 0 0.1 0"/>
<feBlend mode="normal" in2="BackgroundImageFix" result="effect1_dropShadow_2430_301"/>
<feColorMatrix in="SourceAlpha" type="matrix" values="0 0 0 0 0 0 0 0 0 0 0 0 0 0 0 0 0 0 127 0" result="hardAlpha"/>
<feOffset dy="1"/>
<feGaussianBlur stdDeviation="1"/>
<feColorMatrix type="matrix" values="0 0 0 0 0 0 0 0 0 0 0 0 0 0 0 0 0 0 0.1 0"/>
<feBlend mode="normal" in2="effect1_dropShadow_2430_301" result="effect2_dropShadow_2430_301"/>
<feColorMatrix in="SourceAlpha" type="matrix" values="0 0 0 0 0 0 0 0 0 0 0 0 0 0 0 0 0 0 127 0" result="hardAlpha"/>
<feOffset dy="3"/>
<feGaussianBlur stdDeviation="1.5"/>
<feColorMatrix type="matrix" values="0 0 0 0 0 0 0 0 0 0 0 0 0 0 0 0 0 0 0.09 0"/>
<feBlend mode="normal" in2="effect2_dropShadow_2430_301" result="effect3_dropShadow_2430_301"/>
<feColorMatrix in="SourceAlpha" type="matrix" values="0 0 0 0 0 0 0 0 0 0 0 0 0 0 0 0 0 0 127 0" result="hardAlpha"/>
<feOffset dy="6"/>
<feGaussianBlur stdDeviation="2"/>
<feColorMatrix type="matrix" values="0 0 0 0 0 0 0 0 0 0 0 0 0 0 0 0 0 0 0.05 0"/>
<feBlend mode="normal" in2="effect3_dropShadow_2430_301" result="effect4_dropShadow_2430_301"/>
<feColorMatrix in="SourceAlpha" type="matrix" values="0 0 0 0 0 0 0 0 0 0 0 0 0 0 0 0 0 0 127 0" result="hardAlpha"/>
<feOffset dy="11"/>
<feGaussianBlur stdDeviation="2"/>
<feColorMatrix type="matrix" values="0 0 0 0 0 0 0 0 0 0 0 0 0 0 0 0 0 0 0.01 0"/>
<feBlend mode="normal" in2="effect4_dropShadow_2430_301" result="effect5_dropShadow_2430_301"/>
<feBlend mode="normal" in="SourceGraphic" in2="effect5_dropShadow_2430_301" result="shape"/>
</filter>
<filter id="filter6_ddddd_2430_301" x="102.627" y="64.0972" width="33.113" height="39.0017" filterUnits="userSpaceOnUse" color-interpolation-filters="sRGB">
<feFlood flood-opacity="0" result="BackgroundImageFix"/>
<feColorMatrix in="SourceAlpha" type="matrix" values="0 0 0 0 0 0 0 0 0 0 0 0 0 0 0 0 0 0 127 0" result="hardAlpha"/>
<feOffset/>
<feColorMatrix type="matrix" values="0 0 0 0 0 0 0 0 0 0 0 0 0 0 0 0 0 0 0.1 0"/>
<feBlend mode="normal" in2="BackgroundImageFix" result="effect1_dropShadow_2430_301"/>
<feColorMatrix in="SourceAlpha" type="matrix" values="0 0 0 0 0 0 0 0 0 0 0 0 0 0 0 0 0 0 127 0" result="hardAlpha"/>
<feOffset dy="1"/>
<feGaussianBlur stdDeviation="1"/>
<feColorMatrix type="matrix" values="0 0 0 0 0 0 0 0 0 0 0 0 0 0 0 0 0 0 0.1 0"/>
<feBlend mode="normal" in2="effect1_dropShadow_2430_301" result="effect2_dropShadow_2430_301"/>
<feColorMatrix in="SourceAlpha" type="matrix" values="0 0 0 0 0 0 0 0 0 0 0 0 0 0 0 0 0 0 127 0" result="hardAlpha"/>
<feOffset dy="3"/>
<feGaussianBlur stdDeviation="1.5"/>
<feColorMatrix type="matrix" values="0 0 0 0 0 0 0 0 0 0 0 0 0 0 0 0 0 0 0.09 0"/>
<feBlend mode="normal" in2="effect2_dropShadow_2430_301" result="effect3_dropShadow_2430_301"/>
<feColorMatrix in="SourceAlpha" type="matrix" values="0 0 0 0 0 0 0 0 0 0 0 0 0 0 0 0 0 0 127 0" result="hardAlpha"/>
<feOffset dy="6"/>
<feGaussianBlur stdDeviation="2"/>
<feColorMatrix type="matrix" values="0 0 0 0 0 0 0 0 0 0 0 0 0 0 0 0 0 0 0.05 0"/>
<feBlend mode="normal" in2="effect3_dropShadow_2430_301" result="effect4_dropShadow_2430_301"/>
<feColorMatrix in="SourceAlpha" type="matrix" values="0 0 0 0 0 0 0 0 0 0 0 0 0 0 0 0 0 0 127 0" result="hardAlpha"/>
<feOffset dy="11"/>
<feGaussianBlur stdDeviation="2"/>
<feColorMatrix type="matrix" values="0 0 0 0 0 0 0 0 0 0 0 0 0 0 0 0 0 0 0.01 0"/>
<feBlend mode="normal" in2="effect4_dropShadow_2430_301" result="effect5_dropShadow_2430_301"/>
<feBlend mode="normal" in="SourceGraphic" in2="effect5_dropShadow_2430_301" result="shape"/>
</filter>
<filter id="filter7_ddddd_2430_301" x="110.958" y="105.017" width="16.5566" height="33.3184" filterUnits="userSpaceOnUse" color-interpolation-filters="sRGB">
<feFlood flood-opacity="0" result="BackgroundImageFix"/>
<feColorMatrix in="SourceAlpha" type="matrix" values="0 0 0 0 0 0 0 0 0 0 0 0 0 0 0 0 0 0 127 0" result="hardAlpha"/>
<feOffset/>
<feColorMatrix type="matrix" values="0 0 0 0 0 0 0 0 0 0 0 0 0 0 0 0 0 0 0.1 0"/>
<feBlend mode="normal" in2="BackgroundImageFix" result="effect1_dropShadow_2430_301"/>
<feColorMatrix in="SourceAlpha" type="matrix" values="0 0 0 0 0 0 0 0 0 0 0 0 0 0 0 0 0 0 127 0" result="hardAlpha"/>
<feOffset dy="1"/>
<feGaussianBlur stdDeviation="1"/>
<feColorMatrix type="matrix" values="0 0 0 0 0 0 0 0 0 0 0 0 0 0 0 0 0 0 0.1 0"/>
<feBlend mode="normal" in2="effect1_dropShadow_2430_301" result="effect2_dropShadow_2430_301"/>
<feColorMatrix in="SourceAlpha" type="matrix" values="0 0 0 0 0 0 0 0 0 0 0 0 0 0 0 0 0 0 127 0" result="hardAlpha"/>
<feOffset dy="3"/>
<feGaussianBlur stdDeviation="1.5"/>
<feColorMatrix type="matrix" values="0 0 0 0 0 0 0 0 0 0 0 0 0 0 0 0 0 0 0.09 0"/>
<feBlend mode="normal" in2="effect2_dropShadow_2430_301" result="effect3_dropShadow_2430_301"/>
<feColorMatrix in="SourceAlpha" type="matrix" values="0 0 0 0 0 0 0 0 0 0 0 0 0 0 0 0 0 0 127 0" result="hardAlpha"/>
<feOffset dy="6"/>
<feGaussianBlur stdDeviation="2"/>
<feColorMatrix type="matrix" values="0 0 0 0 0 0 0 0 0 0 0 0 0 0 0 0 0 0 0.05 0"/>
<feBlend mode="normal" in2="effect3_dropShadow_2430_301" result="effect4_dropShadow_2430_301"/>
<feColorMatrix in="SourceAlpha" type="matrix" values="0 0 0 0 0 0 0 0 0 0 0 0 0 0 0 0 0 0 127 0" result="hardAlpha"/>
<feOffset dy="11"/>
<feGaussianBlur stdDeviation="2"/>
<feColorMatrix type="matrix" values="0 0 0 0 0 0 0 0 0 0 0 0 0 0 0 0 0 0 0.01 0"/>
<feBlend mode="normal" in2="effect4_dropShadow_2430_301" result="effect5_dropShadow_2430_301"/>
<feBlend mode="normal" in="SourceGraphic" in2="effect5_dropShadow_2430_301" result="shape"/>
</filter>
<linearGradient id="paint0_linear_2430_301" x1="87.1858" y1="19.7406" x2="90.1859" y2="181.423" gradientUnits="userSpaceOnUse">
<stop offset="0.2" stop-color="white"/>
<stop offset="0.63" stop-color="#F4F3F5"/>
<stop offset="1" stop-color="#E8E6DF"/>
</linearGradient>
<linearGradient id="paint1_linear_2430_301" x1="56.2826" y1="-196.97" x2="361.531" y2="-6.11249" gradientUnits="userSpaceOnUse">
<stop offset="0.167379" stop-color="#FF5C39"/>
<stop offset="0.381394" stop-color="#F4364C"/>
<stop offset="0.605463" stop-color="#C73ECC"/>
<stop offset="0.834442" stop-color="#0078D4"/>
</linearGradient>
<linearGradient id="paint2_linear_2430_301" x1="72.7577" y1="-5.96205" x2="145.157" y2="102.274" gradientUnits="userSpaceOnUse">
<stop offset="0.167379" stop-color="#FF5C39"/>
<stop offset="0.381394" stop-color="#F4364C"/>
<stop offset="0.605463" stop-color="#C73ECC"/>
<stop offset="0.834442" stop-color="#0078D4"/>
</linearGradient>
<linearGradient id="paint3_linear_2430_301" x1="67.1525" y1="76.8087" x2="128.384" y2="168.132" gradientUnits="userSpaceOnUse">
<stop offset="0.167379" stop-color="#FF5C39"/>
<stop offset="0.381394" stop-color="#F4364C"/>
<stop offset="0.605463" stop-color="#C73ECC"/>
<stop offset="0.834442" stop-color="#0078D4"/>
</linearGradient>
<linearGradient id="paint4_linear_2430_301" x1="117.638" y1="105.528" x2="131.63" y2="114.782" gradientUnits="userSpaceOnUse">
<stop offset="0.167379" stop-color="#FF5C39"/>
<stop offset="0.381394" stop-color="#F4364C"/>
<stop offset="0.605463" stop-color="#C73ECC"/>
<stop offset="0.834442" stop-color="#0078D4"/>
</linearGradient>
<linearGradient id="paint5_linear_2430_301" x1="117.634" y1="97.6346" x2="131.613" y2="106.859" gradientUnits="userSpaceOnUse">
<stop offset="0.167379" stop-color="#FF5C39"/>
<stop offset="0.381394" stop-color="#F4364C"/>
<stop offset="0.605463" stop-color="#C73ECC"/>
<stop offset="0.834442" stop-color="#0078D4"/>
</linearGradient>
<linearGradient id="paint6_linear_2430_301" x1="113.272" y1="41.5629" x2="152.186" y2="70.4825" gradientUnits="userSpaceOnUse">
<stop offset="0.167379" stop-color="#FF5C39"/>
<stop offset="0.381394" stop-color="#F4364C"/>
<stop offset="0.605463" stop-color="#C73ECC"/>
<stop offset="0.834442" stop-color="#0078D4"/>
</linearGradient>
<linearGradient id="paint7_linear_2430_301" x1="115.429" y1="41.5788" x2="154.342" y2="70.4964" gradientUnits="userSpaceOnUse">
<stop offset="0.167379" stop-color="#FF5C39"/>
<stop offset="0.381394" stop-color="#F4364C"/>
<stop offset="0.605463" stop-color="#C73ECC"/>
<stop offset="0.834442" stop-color="#0078D4"/>
</linearGradient>
<linearGradient id="paint8_linear_2430_301" x1="130.073" y1="101.782" x2="139.571" y2="105.742" gradientUnits="userSpaceOnUse">
<stop offset="0.11" stop-color="#FF5C39"/>
<stop offset="0.33" stop-color="#F4364C"/>
<stop offset="0.6" stop-color="#C73ECC"/>
<stop offset="1" stop-color="#0078D4"/>
</linearGradient>
<linearGradient id="paint9_linear_2430_301" x1="99.5275" y1="106.53" x2="115.793" y2="125.35" gradientUnits="userSpaceOnUse">
<stop offset="0.11" stop-color="#FF5C39"/>
<stop offset="0.33" stop-color="#F4364C"/>
<stop offset="0.6" stop-color="#C73ECC"/>
<stop offset="1" stop-color="#0078D4"/>
</linearGradient>
<clipPath id="clip0_2430_301">
<rect width="180" height="190" fill="white"/>
</clipPath>
</defs>
</svg>
