<svg width="103" height="103" viewBox="0 0 103 103" fill="none" xmlns="http://www.w3.org/2000/svg">
<path d="M51.3642 98.184C25.5142 98.184 4.5542 77.234 4.5542 51.374C4.5542 25.514 25.5142 4.56403 51.3642 4.56403C77.2142 4.56403 98.1742 25.524 98.1742 51.374C98.1742 77.224 77.2142 98.184 51.3642 98.184Z" fill="url(#paint0_linear_930_1126)"/>
<path fill-rule="evenodd" clip-rule="evenodd" d="M97.2641 51.3741C97.2641 76.7241 76.7141 97.2741 51.3641 97.2741C26.0141 97.2741 5.46412 76.7241 5.46412 51.3741C5.46412 26.0241 26.0141 5.47414 51.3641 5.47414C76.7141 5.47414 97.2641 26.0241 97.2641 51.3741ZM51.3641 1.73413C78.7841 1.73413 101.004 23.9541 101.004 51.3741C101.004 78.7941 78.7741 101.014 51.3641 101.014C23.9441 101.014 1.72412 78.7841 1.72412 51.3741C1.72412 23.9541 23.9441 1.73413 51.3641 1.73413Z" fill="#F2F1F0"/>
<path fill-rule="evenodd" clip-rule="evenodd" d="M94.4542 51.374C94.4542 75.174 75.1642 94.464 51.3642 94.464C27.5642 94.464 8.27418 75.174 8.27418 51.374C8.27418 27.574 27.5642 8.28401 51.3642 8.28401C75.1642 8.28401 94.4542 27.574 94.4542 51.374ZM51.3642 4.54401C77.2242 4.54401 98.1942 25.514 98.1942 51.374C98.1942 77.234 77.2242 98.204 51.3642 98.204C25.5042 98.204 4.53418 77.234 4.53418 51.374C4.53418 25.514 25.4942 4.54401 51.3642 4.54401Z" fill="url(#paint1_linear_930_1126)"/>
<path opacity="0.15" d="M71.6253 65.1346C72.3083 65.1346 72.859 64.5839 72.859 63.9009V23.1988H29.8643V63.9062C29.8643 64.5892 30.4149 65.1399 31.098 65.1399H71.6253V65.1346Z" fill="#1F1D20"/>
<g filter="url(#filter0_d_930_1126)">
<path d="M72.8537 23.5637V22.8965C72.8537 22.0705 72.1866 21.4034 71.3606 21.4034H31.3574C30.5314 21.4034 29.8643 22.0705 29.8643 22.8965V23.6378V24.3156V62.5978C29.8643 63.4239 30.5314 64.091 31.3574 64.091H71.3711C72.1972 64.091 72.8643 63.4239 72.8643 62.5978V23.6378C72.8643 23.6113 72.8537 23.5902 72.8537 23.5637Z" fill="white"/>
</g>
<path fill-rule="evenodd" clip-rule="evenodd" d="M54.0889 73.0868H80.001V74.0868H54.0889V73.0868Z" fill="white"/>
<path fill-rule="evenodd" clip-rule="evenodd" d="M22.8212 73.0868L48.6396 73.0868L48.6396 74.0868L22.8212 74.0868L22.8212 73.0868Z" fill="white"/>
<path fill-rule="evenodd" clip-rule="evenodd" d="M51.3642 75.8115C52.5928 75.8115 53.5889 74.8155 53.5889 73.5868C53.5889 72.3582 52.5928 71.3621 51.3642 71.3621C50.1355 71.3621 49.1395 72.3582 49.1395 73.5868C49.1395 74.8155 50.1355 75.8115 51.3642 75.8115ZM54.5889 73.5868C54.5889 75.3678 53.1451 76.8115 51.3642 76.8115C49.5832 76.8115 48.1395 75.3678 48.1395 73.5868C48.1395 71.8059 49.5832 70.3621 51.3642 70.3621C53.1451 70.3621 54.5889 71.8059 54.5889 73.5868Z" fill="white"/>
<path fill-rule="evenodd" clip-rule="evenodd" d="M81.581 74.7898C82.2454 74.7898 82.7839 74.2512 82.7839 73.5868C82.7839 72.9225 82.2454 72.3839 81.581 72.3839C80.9166 72.3839 80.3781 72.9225 80.3781 73.5868C80.3781 74.2512 80.9166 74.7898 81.581 74.7898ZM83.7839 73.5868C83.7839 74.8035 82.7977 75.7898 81.581 75.7898C80.3644 75.7898 79.3781 74.8035 79.3781 73.5868C79.3781 72.3702 80.3644 71.3839 81.581 71.3839C82.7977 71.3839 83.7839 72.3702 83.7839 73.5868Z" fill="white"/>
<path fill-rule="evenodd" clip-rule="evenodd" d="M21.1477 74.6648C21.743 74.6648 22.2256 74.1822 22.2256 73.5868C22.2256 72.9915 21.743 72.5089 21.1477 72.5089C20.5523 72.5089 20.0697 72.9915 20.0697 73.5868C20.0697 74.1822 20.5523 74.6648 21.1477 74.6648ZM23.4756 73.5868C23.4756 74.8725 22.4333 75.9148 21.1477 75.9148C19.862 75.9148 18.8197 74.8725 18.8197 73.5868C18.8197 72.3012 19.862 71.2589 21.1477 71.2589C22.4333 71.2589 23.4756 72.3012 23.4756 73.5868Z" fill="white"/>
<path fill-rule="evenodd" clip-rule="evenodd" d="M51.8643 63.1586L51.8643 70.8622L50.8643 70.8622L50.8643 63.1586L51.8643 63.1586Z" fill="white"/>
<g opacity="0.15">
<path d="M54.3516 40.4555H48.5771V46.2395H54.3611V40.4555H54.3516Z" fill="#1F1D20"/>
<path d="M60.1356 34.7374L58.0965 36.7765L64.6904 43.3704L58.0203 50.0405L60.0594 52.0797L68.7687 43.3704L60.1356 34.7374Z" fill="#1F1D20"/>
<path d="M42.6025 52.0901L44.6417 50.051L38.0478 43.4571L44.7179 36.787L42.6787 34.7479L33.96 43.4571L42.6025 52.0901Z" fill="#1F1D20"/>
</g>
<path d="M54.3516 39.5338H48.5771V45.3177H54.3611V39.5338H54.3516Z" fill="#50E6FF"/>
<path d="M60.1356 33.8155L58.0965 35.8546L64.6904 42.4485L58.0203 49.1186L60.0594 51.1578L68.7687 42.4485L60.1356 33.8155Z" fill="#137AD1"/>
<path d="M42.6025 51.1684L44.6417 49.1293L38.0478 42.5354L44.7179 35.8653L42.6787 33.8262L33.96 42.5354L42.6025 51.1684Z" fill="#137AD1"/>
<defs>
<filter id="filter0_d_930_1126" x="25.8643" y="21.4034" width="51" height="50.6877" filterUnits="userSpaceOnUse" color-interpolation-filters="sRGB">
<feFlood flood-opacity="0" result="BackgroundImageFix"/>
<feColorMatrix in="SourceAlpha" type="matrix" values="0 0 0 0 0 0 0 0 0 0 0 0 0 0 0 0 0 0 127 0" result="hardAlpha"/>
<feOffset dy="4"/>
<feGaussianBlur stdDeviation="2"/>
<feComposite in2="hardAlpha" operator="out"/>
<feColorMatrix type="matrix" values="0 0 0 0 0 0 0 0 0 0 0 0 0 0 0 0 0 0 0.25 0"/>
<feBlend mode="normal" in2="BackgroundImageFix" result="effect1_dropShadow_930_1126"/>
<feBlend mode="normal" in="SourceGraphic" in2="effect1_dropShadow_930_1126" result="shape"/>
</filter>
<linearGradient id="paint0_linear_930_1126" x1="49.5903" y1="-13.4155" x2="53.5723" y2="132.355" gradientUnits="userSpaceOnUse">
<stop stop-color="#00ABDE"/>
<stop offset="1" stop-color="#007ED8"/>
</linearGradient>
<linearGradient id="paint1_linear_930_1126" x1="2.79458" y1="-20.2486" x2="98.3221" y2="120.633" gradientUnits="userSpaceOnUse">
<stop stop-color="#007ED8"/>
<stop offset="0.7065" stop-color="#002D4C"/>
</linearGradient>
</defs>
</svg>
