<?xml version="1.0" encoding="UTF-8"?>
<svg width="100px" height="100px" viewBox="0 0 100 100" version="1.1" xmlns="http://www.w3.org/2000/svg" xmlns:xlink="http://www.w3.org/1999/xlink">
    <!-- Generator: Sketch 55.2 (78181) - https://sketchapp.com -->
    <title>Azure Solution Architect - Authentication and Authorization/enable-secure-external-user-access-for-your-applications-with-azure-ad-b2c</title>
    <desc>Created with Sketch.</desc>
    <defs>
        <rect id="path-1" x="0" y="0" width="96" height="96" rx="48"></rect>
        <filter x="-6.5%" y="-7.7%" width="112.9%" height="115.4%" filterUnits="objectBoundingBox" id="filter-3">
            <feOffset dx="0" dy="2" in="SourceAlpha" result="shadowOffsetOuter1"></feOffset>
            <feColorMatrix values="0 0 0 0 0   0 0 0 0 0   0 0 0 0 0  0 0 0 0.104676178 0" type="matrix" in="shadowOffsetOuter1" result="shadowMatrixOuter1"></feColorMatrix>
            <feMerge>
                <feMergeNode in="shadowMatrixOuter1"></feMergeNode>
                <feMergeNode in="SourceGraphic"></feMergeNode>
            </feMerge>
        </filter>
        <filter x="-7.1%" y="-7.3%" width="114.3%" height="114.5%" filterUnits="objectBoundingBox" id="filter-4">
            <feOffset dx="0" dy="2" in="SourceAlpha" result="shadowOffsetOuter1"></feOffset>
            <feColorMatrix values="0 0 0 0 0   0 0 0 0 0   0 0 0 0 0  0 0 0 0.0951086957 0" type="matrix" in="shadowOffsetOuter1" result="shadowMatrixOuter1"></feColorMatrix>
            <feMerge>
                <feMergeNode in="shadowMatrixOuter1"></feMergeNode>
                <feMergeNode in="SourceGraphic"></feMergeNode>
            </feMerge>
        </filter>
        <filter x="-6.5%" y="-7.7%" width="112.9%" height="115.4%" filterUnits="objectBoundingBox" id="filter-5">
            <feOffset dx="0" dy="2" in="SourceAlpha" result="shadowOffsetOuter1"></feOffset>
            <feColorMatrix values="0 0 0 0 0   0 0 0 0 0   0 0 0 0 0  0 0 0 0.104676178 0" type="matrix" in="shadowOffsetOuter1" result="shadowMatrixOuter1"></feColorMatrix>
            <feMerge>
                <feMergeNode in="shadowMatrixOuter1"></feMergeNode>
                <feMergeNode in="SourceGraphic"></feMergeNode>
            </feMerge>
        </filter>
        <filter x="-7.1%" y="-7.3%" width="114.3%" height="114.5%" filterUnits="objectBoundingBox" id="filter-6">
            <feOffset dx="0" dy="2" in="SourceAlpha" result="shadowOffsetOuter1"></feOffset>
            <feColorMatrix values="0 0 0 0 0   0 0 0 0 0   0 0 0 0 0  0 0 0 0.0951086957 0" type="matrix" in="shadowOffsetOuter1" result="shadowMatrixOuter1"></feColorMatrix>
            <feMerge>
                <feMergeNode in="shadowMatrixOuter1"></feMergeNode>
                <feMergeNode in="SourceGraphic"></feMergeNode>
            </feMerge>
        </filter>
        <filter x="-13.3%" y="-13.3%" width="126.7%" height="126.7%" filterUnits="objectBoundingBox" id="filter-7">
            <feOffset dx="0" dy="2" in="SourceAlpha" result="shadowOffsetOuter1"></feOffset>
            <feColorMatrix values="0 0 0 0 0   0 0 0 0 0   0 0 0 0 0  0 0 0 0.1 0" type="matrix" in="shadowOffsetOuter1" result="shadowMatrixOuter1"></feColorMatrix>
            <feMerge>
                <feMergeNode in="shadowMatrixOuter1"></feMergeNode>
                <feMergeNode in="SourceGraphic"></feMergeNode>
            </feMerge>
        </filter>
        <circle id="path-8" cx="15" cy="15" r="15"></circle>
        <filter x="-16.5%" y="-16.5%" width="133.0%" height="136.0%" filterUnits="objectBoundingBox" id="filter-10">
            <feOffset dx="0" dy="2" in="SourceAlpha" result="shadowOffsetOuter1"></feOffset>
            <feColorMatrix values="0 0 0 0 0   0 0 0 0 0   0 0 0 0 0  0 0 0 0.1 0" type="matrix" in="shadowOffsetOuter1" result="shadowMatrixOuter1"></feColorMatrix>
            <feMerge>
                <feMergeNode in="shadowMatrixOuter1"></feMergeNode>
                <feMergeNode in="SourceGraphic"></feMergeNode>
            </feMerge>
        </filter>
    </defs>
    <g id="Badges" stroke="none" stroke-width="1" fill="none" fill-rule="evenodd">
        <g id="Azure-Solution-Architect---Authentication-and-Authorization" transform="translate(-50.000000, -260.000000)">
            <g id="Azure-Solution-Architect---Authentication-and-Authorization/enable-secure-external-user-access-for-your-applications-with-azure-ad-b2c" transform="translate(50.000000, 260.000000)">
                <g id="Mask" transform="translate(2.000000, 2.000000)">
                    <mask id="mask-2" fill="white">
                        <use xlink:href="#path-1"></use>
                    </mask>
                    <use id="BG" fill="#55A2FF" xlink:href="#path-1"></use>
                    <g id="Group-12" mask="url(#mask-2)" fill="#546670">
                        <g transform="translate(20.892686, 40.055535)">
                            <path d="M9.60922158,15.3290812 C9.53379119,15.3290812 9.45639286,15.3044897 9.39210861,15.2526458 C7.28277139,13.5610869 4.97982918,11.5703651 4.35015121,9.35174045 C4.0838562,8.41258108 4.62104707,7.42884163 5.54784908,7.15829839 C6.47465108,6.88977998 7.44611825,7.43346979 7.71243005,8.37196556 C8.08432625,9.68267098 10.6116353,11.7098566 11.5633726,12.4729927 C11.7148882,12.5939612 11.7404716,12.8172802 11.6204365,12.9708262 C11.5010596,13.1243621 11.2819888,13.1509502 11.1291534,13.028651 C9.32206156,11.5796963 7.42261699,9.91536028 7.03960487,8.56809069 C6.87956256,8.00445895 6.29579567,7.67876913 5.740235,7.84029536 C5.18467433,8.00247156 4.86196018,8.59335841 5.02201592,9.15632656 C5.59463667,11.1729797 7.80183424,13.0732481 9.8258711,14.6968479 C9.97738673,14.8178164 10.0029701,15.0411354 9.88293503,15.1946814 C9.81471992,15.283081 9.71240145,15.3289417 9.60941972,15.3289417 L9.60922158,15.3290812 Z" id="Fill-1"></path>
                            <path d="M0.715649997,13.535159 C0.566757185,13.535159 0.428365722,13.4381191 0.381786344,13.2865825 C0.323409319,13.099142 0.426387693,12.9010839 0.611358534,12.8425854 C1.00227941,12.7182937 2.23409742,12.1579919 1.66016694,10.1368127 C1.32499356,8.953722 1.46338838,7.70872967 2.05174268,6.63200162 C2.64009698,5.55459295 3.60691292,4.77359078 4.77581352,4.43328482 C7.12929788,3.7540001 9.62097557,5.10790735 10.3623164,7.45945555 C10.536796,7.62562015 11.7305479,8.62527571 12.5478867,9.29727788 C12.697436,9.42090423 12.7203848,9.64423682 12.5990484,9.79577506 C12.4777036,9.94798201 12.2566547,9.97191743 12.1071104,9.84761897 C9.85790071,7.99788594 9.78317893,7.86959059 9.74640574,7.80850567 C9.7319752,7.78391346 9.7208257,7.75732706 9.71229902,7.73074066 C9.10557492,5.7081322 6.9764742,4.53577817 4.96805336,5.11599983 C3.98024815,5.40246939 3.16163321,6.06313937 2.66376783,6.97441067 C2.16659091,7.88566495 2.04851369,8.93916712 2.33186878,9.94017709 C2.92809825,12.0391842 1.88978447,13.1804003 0.819331931,13.519345 C0.785880079,13.5293143 0.751116818,13.5352968 0.715697013,13.5352968 L0.715649997,13.535159 Z" id="Fill-2"></path>
                            <path d="M1.83328641,14.8883857 C1.68439359,14.8883857 1.546657,14.7913457 1.49942275,14.6398092 C1.44104573,14.4530323 1.5440241,14.2543106 1.72899494,14.195812 C3.17856399,13.7365351 3.70584793,12.9821448 2.99950037,9.72197972 C2.61710954,7.95392011 3.54587614,6.26634287 5.16072306,5.79586988 C6.82805994,5.31266945 8.57743966,6.29171267 9.05616283,7.97995352 C9.15323734,8.32225027 9.59795454,8.98225666 12.194142,11.0653375 C12.3456576,11.186306 12.371241,11.409625 12.2512059,11.5638347 C12.131829,11.7167069 11.9127582,11.7446222 11.7599228,11.6216595 C8.89362867,9.32323302 8.51968392,8.65861548 8.38333765,8.17674224 C8.01011492,6.86404604 6.6529826,6.10104605 5.35231979,6.47786684 C4.09689305,6.8434235 3.37865718,8.17274365 3.68170859,9.57056739 C4.40190906,12.8945058 3.96178935,14.2319082 1.93624127,14.8732148 C1.90278942,14.8838494 1.86736962,14.8885031 1.8332629,14.8885031 L1.83328641,14.8883857 Z" id="Fill-3"></path>
                            <path d="M10.5785898,14.179188 C10.4887289,14.179188 10.3995262,14.1446266 10.3306478,14.0755002 C10.2027443,13.9458913 9.92135714,13.7292049 9.59602353,13.4793012 C8.34323304,12.5155377 6.24563301,10.9036956 5.69403511,8.95969777 C5.6409054,8.77093006 5.74781968,8.57552638 5.93344707,8.52102638 C6.12169559,8.46718827 6.31256358,8.57552808 6.36634647,8.7636305 C6.85302877,10.4804741 8.83451618,12.0038537 10.0184787,12.9138318 C10.3785705,13.190994 10.6632353,13.4103382 10.8252557,13.5738382 C10.9616859,13.7120875 10.9616859,13.9367405 10.8252557,14.0749898 C10.7576971,14.1447797 10.6684927,14.1793412 10.5786234,14.1793412 L10.5785898,14.179188 Z" id="Fill-4"></path>
                            <path d="M5.33127344,17.0153139 C5.32340162,17.0153139 5.3168429,17.0153139 5.30897276,17.0146333 C5.11679505,17.0026693 4.96987019,16.8345093 4.98167455,16.6391057 C5.00725459,16.2283394 5.19418667,14.1792034 6.38073503,14.1792034 C7.25309928,14.1792034 7.77848579,14.9023535 8.12620235,15.3809095 C8.21934264,15.5085242 8.30068192,15.6235136 8.37676381,15.7012735 C8.51319404,15.8395228 8.51319404,16.0641758 8.37676381,16.2024251 C8.24033358,16.3406744 8.01863657,16.3406744 7.88220634,16.2024251 C7.78578669,16.1047198 7.68018886,15.9624753 7.5627833,15.8016297 C7.26696899,15.394862 6.89965684,14.888384 6.38081899,14.888384 C6.00170248,14.888384 5.72556771,15.94985 5.68029806,16.6829881 C5.66849202,16.8704287 5.51435189,17.0153139 5.33135572,17.0153139 L5.33127344,17.0153139 Z" id="Fill-5"></path>
                            <path d="M3.23234689,16.3061005 C3.08476548,16.3061005 2.94768207,16.2110547 2.8991381,16.060842 C2.83944967,15.874065 2.94046009,15.6753434 3.12345458,15.6141904 C4.00762319,15.3230757 4.59597749,13.4626058 4.29754372,12.5148537 C4.23851183,12.3280768 4.34017879,12.1293551 4.52449645,12.0695293 C4.70881578,12.0070509 4.90492269,12.1127329 4.96396129,12.2995081 C5.33520263,13.47729 4.68651678,15.8468574 3.33925781,16.2894253 C3.30449455,16.3007245 3.26776333,16.3060418 3.23234353,16.3060418 L3.23234689,16.3061005 Z" id="Fill-6"></path>
                            <path d="M0.433554268,9.21684657 C0.240721688,9.21684657 0.083957062,9.05799345 0.083957062,8.86192447 C0.083957062,5.53934725 2.75160875,2.83612687 6.03113951,2.83612687 C9.25962437,2.83612687 10.4145377,4.7256757 11.2574666,6.10493575 C11.6556078,6.75497118 11.9993112,7.31727573 12.4361398,7.46151441 C12.6204591,7.52199869 12.7208046,7.72138905 12.6604563,7.90816598 C12.6014244,8.09359869 12.4053108,8.19728992 12.2196817,8.13547334 C11.5381855,7.91148396 11.1321691,7.24681538 10.6625469,6.47780899 C9.86364506,5.17108515 8.86922403,3.54471194 6.03113951,3.54471194 C3.13730749,3.54471194 0.783823131,5.9302567 0.783823131,8.86199253 C0.783823131,9.05805981 0.627060184,9.21691463 0.43357106,9.21691463 L0.433554268,9.21684657 Z" id="Fill-7"></path>
                            <path d="M0.783823131,11.6980258 C0.655264719,11.6980258 0.531951945,11.6262332 0.470293879,11.5026136 C0.406014673,11.3710105 0.083957062,10.6970414 0.083957062,10.2803027 C0.083957062,10.0842354 0.240720009,9.92538059 0.433554268,9.92538059 C0.627041713,9.92538059 0.78380634,10.0842337 0.78380634,10.2803027 C0.78380634,10.4650718 0.970745134,10.9296745 1.09668073,11.184904 C1.18326061,11.3597021 1.11307922,11.5723934 0.93991778,11.6608049 C0.890067435,11.6860624 0.836939406,11.6980258 0.783809698,11.6980258 L0.783823131,11.6980258 Z" id="Fill-8"></path>
                            <path d="M10.928187,4.25382448 C10.8101232,4.25382448 10.6946856,4.1933402 10.6284267,4.0830079 C10.2840684,3.5074144 8.37082133,2.12692925 5.68083706,2.12692925 C2.88405941,2.12692925 1.38660125,3.57522036 1.08217295,4.0830079 C0.98313048,4.25116669 0.767333964,4.3036793 0.6020393,4.20198227 C0.437404539,4.10095393 0.384271473,3.88294543 0.484630387,3.71544684 C0.867676086,3.07604597 2.5474554,1.41770101 5.68073295,1.41770101 C8.62779375,1.41770101 10.7470379,2.91385615 11.2264327,3.71544684 C11.3274431,3.88294033 11.2743151,4.10028183 11.1090238,4.20264586 C11.0526147,4.23720734 10.9903035,4.25382448 10.9279956,4.25382448 L10.928187,4.25382448 Z" id="Fill-9"></path>
                            <path d="M9.52912654,1.41771462 C9.49108392,1.41771462 9.45304129,1.41106845 9.41499699,1.39843969 C9.27397599,1.34925527 9.13951708,1.29874026 9.00570631,1.24889054 C8.26911742,0.971064753 7.57319734,0.709182303 5.68083874,0.709182303 C4.00102584,0.709182303 3.62254741,0.905249581 3.1005024,1.177103 C2.97194399,1.24356815 2.83551712,1.31468699 2.67547817,1.38647624 C2.49968887,1.46756434 2.29176081,1.38647624 2.21305946,1.20834308 C2.13369317,1.02954633 2.21305946,0.819509494 2.38884876,0.739758793 C2.53643016,0.672628338 2.66170921,0.607492076 2.78042449,0.545682305 C3.36812393,0.24126161 3.83185236,1.70152979e-06 5.68080516,1.70152979e-06 C7.69846127,1.70152979e-06 8.48681808,0.297105818 9.24965195,0.58423897 C9.37821036,0.632759794 9.50743371,0.681278916 9.64253742,0.729134441 C9.82487536,0.792941808 9.92261818,0.994334874 9.85965038,1.17910399 C9.80980003,1.32599366 9.67402132,1.41770952 9.52906105,1.41770952 L9.52912654,1.41771462 Z" id="Fill-10"></path>
                            <path d="M12.3279192,6.38074522 C12.1796829,6.38074522 12.0425995,6.28502566 11.9947104,6.13415102 C11.8346681,5.62833726 11.3355131,4.80217648 11.3302742,4.79419631 C11.2286072,4.62736642 11.2804255,4.40936131 11.4450586,4.30633368 C11.6096934,4.20264586 11.82483,4.25515507 11.926502,4.42264856 C11.9488026,4.45920423 12.4754972,5.32990424 12.6611263,5.9188037 C12.7201582,6.10558063 12.6184912,6.30430229 12.4341735,6.36412808 C12.3980989,6.37476264 12.3626791,6.38074522 12.3279158,6.38074522 L12.3279192,6.38074522 Z" id="Fill-11"></path>
                        </g>
                    </g>
                    <g id="Group" mask="url(#mask-2)">
                        <g transform="translate(5.000000, 18.000000)">
                            <g id="Group-14" filter="url(#filter-3)" transform="translate(11.340391, 0.532588)">
                                <path d="M0,49.9745601 C0,51.0317143 0.861399456,51.8966586 1.91422101,51.8966586 L59.3408514,51.8966586 C60.393673,51.8966586 61.2550724,51.0317143 61.2550724,49.9745601 L61.2550724,14.4157385 L0,14.4157385 L0,49.9745601" id="Fill-1164" fill="#E1E4E1"></path>
                                <path d="M61.2550724,10.5715416 C61.2550724,9.51438741 60.393673,8.6494431 59.3408514,8.6494431 L1.91422101,8.6494431 C0.861399456,8.6494431 0,9.51438741 0,10.5715416 L0,14.4157385 L61.2550724,14.4157385 L61.2550724,10.5715416" id="Fill-1165" fill="#7CB65A"></path>
                                <polygon id="Fill-1166" fill="#FFFFFE" points="5.74266304 46.1303632 24.8848732 46.1303632 24.8848732 19.2209847 5.74266304 19.2209847"></polygon>
                                <path d="M36.3701993,12.49364 L24.8848732,12.49364 C23.8272661,12.49364 23.9277627,12.064051 23.9277627,11.5325908 C23.9277627,11.0011306 23.8272661,10.5715416 24.8848732,10.5715416 L36.3701993,10.5715416 C37.4268493,10.5715416 37.3273098,11.0011306 37.3273098,11.5325908 C37.3273098,12.064051 37.4268493,12.49364 36.3701993,12.49364" id="Fill-1167" fill="#69994E"></path>
                                <path d="M42.1128623,43.2472155 L30.6275362,43.2472155 C29.8053783,43.2472155 29.6704257,42.8166654 29.6704257,42.2861663 C29.6704257,41.7556671 29.8053783,41.325117 30.6275362,41.325117 L42.1128623,41.325117 C42.9350202,41.325117 43.0699728,41.7556671 43.0699728,42.2861663 C43.0699728,42.8166654 42.9350202,43.2472155 42.1128623,43.2472155" id="Fill-1168" fill="#C5CCCD"></path>
                                <path d="M47.8555254,22.1041324 L36.3701993,22.1041324 C35.5480413,22.1041324 35.4130888,21.6735823 35.4130888,21.1430831 C35.4130888,20.612584 35.5480413,20.1820339 36.3701993,20.1820339 L47.8555254,20.1820339 C48.6776833,20.1820339 48.8126359,20.612584 48.8126359,21.1430831 C48.8126359,21.6735823 48.6776833,22.1041324 47.8555254,22.1041324" id="Fill-1169" fill="#546670"></path>
                                <path d="M54.5552989,37.4809201 L30.6275362,37.4809201 C29.8053783,37.4809201 29.6704257,37.05037 29.6704257,36.5198709 C29.6704257,35.9893717 29.8053783,35.5588216 30.6275362,35.5588216 L54.5552989,35.5588216 C55.3774568,35.5588216 55.5124094,35.9893717 55.5124094,36.5198709 C55.5124094,37.05037 55.3774568,37.4809201 54.5552989,37.4809201" id="Fill-1170" fill="#C5CCCD"></path>
                                <path d="M54.5552989,33.6367232 L30.6275362,33.6367232 C29.8053783,33.6367232 29.6704257,33.2061731 29.6704257,32.6756739 C29.6704257,32.1451748 29.8053783,31.7146247 30.6275362,31.7146247 L54.5552989,31.7146247 C55.3774568,31.7146247 55.5124094,32.1451748 55.5124094,32.6756739 C55.5124094,33.2061731 55.3774568,33.6367232 54.5552989,33.6367232" id="Fill-1171" fill="#C5CCCD"></path>
                                <path d="M54.5552989,29.7925262 L30.6275362,29.7925262 C29.8053783,29.7925262 29.6704257,29.3619762 29.6704257,28.831477 C29.6704257,28.3009778 29.8053783,27.8704278 30.6275362,27.8704278 L54.5552989,27.8704278 C55.3774568,27.8704278 55.5124094,28.3009778 55.5124094,28.831477 C55.5124094,29.3619762 55.3774568,29.7925262 54.5552989,29.7925262" id="Fill-1172" fill="#C5CCCD"></path>
                                <path d="M30.6275362,5.7662954 C29.5699291,5.7662954 28.7133152,4.90519529 28.7133152,3.84419693 C28.7133152,2.78223753 29.5699291,1.92209847 30.6275362,1.92209847 C31.6841862,1.92209847 32.5417572,2.78223753 32.5417572,3.84419693 C32.5417572,4.90519529 31.6841862,5.7662954 30.6275362,5.7662954 Z M30.6275362,0 C28.5132791,0 26.7990942,1.72123918 26.7990942,3.84419693 L26.7990942,12.49364 L34.4559783,12.49364 L34.4559783,3.84419693 C34.4559783,1.72123918 32.7417933,0 30.6275362,0 L30.6275362,0 Z" id="Fill-1173" fill="#30404D"></path>
                                <path d="M32.5417572,3.84419693 C32.5417572,4.90519529 31.6841862,5.7662954 30.6275362,5.7662954 L30.6275362,12.49364 L34.4559783,12.49364 L34.4559783,3.84419693 C34.4559783,1.72123918 32.7417933,0 30.6275362,0 L30.6275362,1.92209847 C31.6841862,1.92209847 32.5417572,2.78319858 32.5417572,3.84419693" id="Fill-1174" fill="#182A37"></path>
                            </g>
                            <g id="Group-31" filter="url(#filter-4)" transform="translate(0.280447, 15.846356)">
                                <path d="M34.8813607,18.7168277 C34.8813607,27.1742815 28.0241956,34.0305958 19.5675926,34.0305958 C11.1109895,34.0305958 4.25382448,27.1742815 4.25382448,18.7168277 C4.25382448,10.2602246 11.1109895,3.40305958 19.5675926,3.40305958 C28.0241956,3.40305958 34.8813607,10.2602246 34.8813607,18.7168277" id="Fill-1290" fill="#C7E7F1" opacity="0.652232143"></path>
                                <path d="M7.65688406,19.5675926 C7.18896336,19.5675926 6.80611916,19.1873007 6.80611916,18.7168277 C6.80611916,11.6793005 12.5317669,5.95535427 19.5675926,5.95535427 C20.0355133,5.95535427 20.4183575,6.33564617 20.4183575,6.80611916 C20.4183575,7.27659215 20.0355133,7.65688406 19.5675926,7.65688406 C13.4676083,7.65688406 8.50764895,12.6185449 8.50764895,18.7168277 C8.50764895,19.1873007 8.12480475,19.5675926 7.65688406,19.5675926" id="Fill-1291" fill="#FFFFFE" opacity="0.652232143"></path>
                                <path d="M4.25382448,18.7168277 C4.25382448,10.2729861 11.1194972,3.40305958 19.5675926,3.40305958 C28.0071803,3.40305958 34.8813607,10.2729861 34.8813607,18.7168277 C34.8813607,27.1606693 28.0071803,34.0305958 19.5675926,34.0305958 C11.1194972,34.0305958 4.25382448,27.1606693 4.25382448,18.7168277 Z M41.1855286,37.9322036 L33.9455193,30.686239 C36.6509517,27.4397202 38.2844203,23.2658676 38.2844203,18.7168277 C38.2844203,8.39619875 29.8873708,0 19.5675926,0 C9.24781441,0 0.850764895,8.39619875 0.850764895,18.7168277 C0.850764895,29.0374566 9.24781441,37.4336554 19.5675926,37.4336554 C24.1191848,37.4336554 28.2879328,35.8010376 31.5378547,33.0922021 L38.7863716,40.3381667 L41.1855286,37.9322036 L41.1855286,37.9322036 Z" id="Fill-1292" fill="#30404D"></path>
                                <path d="M28.5516699,6.33224311 C30.3808144,8.85731332 31.4783011,11.9540975 31.4783011,15.3137681 C31.4783011,23.7712219 24.6211361,30.6275362 16.164533,30.6275362 C12.8040117,30.6275362 9.70722745,29.5326018 7.18045571,27.6983527 C9.96245692,31.529347 14.4715109,34.0305958 19.5675926,34.0305958 C28.0241956,34.0305958 34.8813607,27.1742815 34.8813607,18.7168277 C34.8813607,13.6190444 32.3801119,9.11594585 28.5516699,6.33224311" id="Fill-1293" fill="#ABDCEC" opacity="0.652232143"></path>
                                <path d="M16.9132061,37.2490394 C21.9582419,37.9483681 26.6884948,36.6186226 30.414845,33.9616838 C31.0869493,33.4810017 32.0057754,33.5601228 32.5928031,34.1445983 L37.5782854,39.1351852 L39.9859501,39.1351852 L30.3893221,29.5402587 C27.2755225,32.6532074 22.8345298,34.4355599 18.0021852,33.9514747 C10.8387448,33.2351306 5.04503583,27.443974 4.33039332,20.2839366 C3.84545733,15.448189 5.63206361,11.0054947 8.74586312,7.8933967 L6.33819847,5.48828434 C2.31408051,9.51665612 0.102091787,15.3682171 1.08047142,21.6834449 C2.32258816,29.7333823 8.84795491,36.1319851 16.9132061,37.2490394" id="Fill-1294" fill="#182A37"></path>
                                <path d="M54.7892592,46.9401023 C55.4698712,47.6198635 55.4698712,48.7335147 54.7892592,49.4141266 L50.26319,53.9384944 C49.5825781,54.6191063 48.4680761,54.6191063 47.7874642,53.9384944 L35.3918196,41.5394468 C34.7112077,40.8596856 34.7112077,39.7460344 35.3918196,39.0654225 L39.9178889,34.5410547 C40.5985008,33.8604428 41.7130028,33.8604428 42.3936147,34.5410547 L54.7892592,46.9401023" id="Fill-1296" fill="#DF5142"></path>
                                <path d="M54.9509046,47.1391813 L52.6708547,49.4175297 C52.007258,50.0819771 50.9352943,50.0819771 50.2716977,49.4175297 L39.9093812,39.0620194 C39.2457846,38.397572 38.1738208,38.397572 37.5102242,39.0620194 L35.2301743,41.3403678 C35.2301743,41.3548308 35.2301743,41.3624877 35.2301743,41.3769507 L47.7874642,53.9384944 C48.4680761,54.6191063 49.5825781,54.6191063 50.26319,53.9384944 L54.7892592,49.4141266 C55.4103176,48.7956206 55.4613635,47.8223455 54.9509046,47.1391813" id="Fill-1297" fill="#C2423D"></path>
                            </g>
                        </g>
                    </g>
                    <g id="Group-14" filter="url(#filter-5)" mask="url(#mask-2)">
                        <g transform="translate(16.340391, 18.532588)">
                            <path d="M0,49.9745601 C0,51.0317143 0.861399456,51.8966586 1.91422101,51.8966586 L59.3408514,51.8966586 C60.393673,51.8966586 61.2550724,51.0317143 61.2550724,49.9745601 L61.2550724,14.4157385 L0,14.4157385 L0,49.9745601" id="Fill-1164" fill="#E1E4E1"></path>
                            <path d="M61.2550724,10.5715416 C61.2550724,9.51438741 60.393673,8.6494431 59.3408514,8.6494431 L1.91422101,8.6494431 C0.861399456,8.6494431 0,9.51438741 0,10.5715416 L0,14.4157385 L61.2550724,14.4157385 L61.2550724,10.5715416" id="Fill-1165" fill="#7CB65A"></path>
                            <polygon id="Fill-1166" fill="#FFFFFE" points="5.74266304 46.1303632 24.8848732 46.1303632 24.8848732 19.2209847 5.74266304 19.2209847"></polygon>
                            <path d="M36.3701993,12.49364 L24.8848732,12.49364 C23.8272661,12.49364 23.9277627,12.064051 23.9277627,11.5325908 C23.9277627,11.0011306 23.8272661,10.5715416 24.8848732,10.5715416 L36.3701993,10.5715416 C37.4268493,10.5715416 37.3273098,11.0011306 37.3273098,11.5325908 C37.3273098,12.064051 37.4268493,12.49364 36.3701993,12.49364" id="Fill-1167" fill="#69994E"></path>
                            <path d="M42.1128623,43.2472155 L30.6275362,43.2472155 C29.8053783,43.2472155 29.6704257,42.8166654 29.6704257,42.2861663 C29.6704257,41.7556671 29.8053783,41.325117 30.6275362,41.325117 L42.1128623,41.325117 C42.9350202,41.325117 43.0699728,41.7556671 43.0699728,42.2861663 C43.0699728,42.8166654 42.9350202,43.2472155 42.1128623,43.2472155" id="Fill-1168" fill="#C5CCCD"></path>
                            <path d="M47.8555254,22.1041324 L36.3701993,22.1041324 C35.5480413,22.1041324 35.4130888,21.6735823 35.4130888,21.1430831 C35.4130888,20.612584 35.5480413,20.1820339 36.3701993,20.1820339 L47.8555254,20.1820339 C48.6776833,20.1820339 48.8126359,20.612584 48.8126359,21.1430831 C48.8126359,21.6735823 48.6776833,22.1041324 47.8555254,22.1041324" id="Fill-1169" fill="#546670"></path>
                            <path d="M54.5552989,37.4809201 L30.6275362,37.4809201 C29.8053783,37.4809201 29.6704257,37.05037 29.6704257,36.5198709 C29.6704257,35.9893717 29.8053783,35.5588216 30.6275362,35.5588216 L54.5552989,35.5588216 C55.3774568,35.5588216 55.5124094,35.9893717 55.5124094,36.5198709 C55.5124094,37.05037 55.3774568,37.4809201 54.5552989,37.4809201" id="Fill-1170" fill="#C5CCCD"></path>
                            <path d="M54.5552989,33.6367232 L30.6275362,33.6367232 C29.8053783,33.6367232 29.6704257,33.2061731 29.6704257,32.6756739 C29.6704257,32.1451748 29.8053783,31.7146247 30.6275362,31.7146247 L54.5552989,31.7146247 C55.3774568,31.7146247 55.5124094,32.1451748 55.5124094,32.6756739 C55.5124094,33.2061731 55.3774568,33.6367232 54.5552989,33.6367232" id="Fill-1171" fill="#C5CCCD"></path>
                            <path d="M54.5552989,29.7925262 L30.6275362,29.7925262 C29.8053783,29.7925262 29.6704257,29.3619762 29.6704257,28.831477 C29.6704257,28.3009778 29.8053783,27.8704278 30.6275362,27.8704278 L54.5552989,27.8704278 C55.3774568,27.8704278 55.5124094,28.3009778 55.5124094,28.831477 C55.5124094,29.3619762 55.3774568,29.7925262 54.5552989,29.7925262" id="Fill-1172" fill="#C5CCCD"></path>
                            <path d="M30.6275362,5.7662954 C29.5699291,5.7662954 28.7133152,4.90519529 28.7133152,3.84419693 C28.7133152,2.78223753 29.5699291,1.92209847 30.6275362,1.92209847 C31.6841862,1.92209847 32.5417572,2.78223753 32.5417572,3.84419693 C32.5417572,4.90519529 31.6841862,5.7662954 30.6275362,5.7662954 Z M30.6275362,0 C28.5132791,0 26.7990942,1.72123918 26.7990942,3.84419693 L26.7990942,12.49364 L34.4559783,12.49364 L34.4559783,3.84419693 C34.4559783,1.72123918 32.7417933,0 30.6275362,0 L30.6275362,0 Z" id="Fill-1173" fill="#30404D"></path>
                            <path d="M32.5417572,3.84419693 C32.5417572,4.90519529 31.6841862,5.7662954 30.6275362,5.7662954 L30.6275362,12.49364 L34.4559783,12.49364 L34.4559783,3.84419693 C34.4559783,1.72123918 32.7417933,0 30.6275362,0 L30.6275362,1.92209847 C31.6841862,1.92209847 32.5417572,2.78319858 32.5417572,3.84419693" id="Fill-1174" fill="#182A37"></path>
                        </g>
                    </g>
                    <g id="Group-31" filter="url(#filter-6)" mask="url(#mask-2)">
                        <g transform="translate(5.280447, 33.846356)">
                            <path d="M34.8813607,18.7168277 C34.8813607,27.1742815 28.0241956,34.0305958 19.5675926,34.0305958 C11.1109895,34.0305958 4.25382448,27.1742815 4.25382448,18.7168277 C4.25382448,10.2602246 11.1109895,3.40305958 19.5675926,3.40305958 C28.0241956,3.40305958 34.8813607,10.2602246 34.8813607,18.7168277" id="Fill-1290" fill="#C7E7F1" opacity="0.652232143"></path>
                            <path d="M7.65688406,19.5675926 C7.18896336,19.5675926 6.80611916,19.1873007 6.80611916,18.7168277 C6.80611916,11.6793005 12.5317669,5.95535427 19.5675926,5.95535427 C20.0355133,5.95535427 20.4183575,6.33564617 20.4183575,6.80611916 C20.4183575,7.27659215 20.0355133,7.65688406 19.5675926,7.65688406 C13.4676083,7.65688406 8.50764895,12.6185449 8.50764895,18.7168277 C8.50764895,19.1873007 8.12480475,19.5675926 7.65688406,19.5675926" id="Fill-1291" fill="#FFFFFE" opacity="0.652232143"></path>
                            <path d="M4.25382448,18.7168277 C4.25382448,10.2729861 11.1194972,3.40305958 19.5675926,3.40305958 C28.0071803,3.40305958 34.8813607,10.2729861 34.8813607,18.7168277 C34.8813607,27.1606693 28.0071803,34.0305958 19.5675926,34.0305958 C11.1194972,34.0305958 4.25382448,27.1606693 4.25382448,18.7168277 Z M41.1855286,37.9322036 L33.9455193,30.686239 C36.6509517,27.4397202 38.2844203,23.2658676 38.2844203,18.7168277 C38.2844203,8.39619875 29.8873708,0 19.5675926,0 C9.24781441,0 0.850764895,8.39619875 0.850764895,18.7168277 C0.850764895,29.0374566 9.24781441,37.4336554 19.5675926,37.4336554 C24.1191848,37.4336554 28.2879328,35.8010376 31.5378547,33.0922021 L38.7863716,40.3381667 L41.1855286,37.9322036 L41.1855286,37.9322036 Z" id="Fill-1292" fill="#30404D"></path>
                            <path d="M28.5516699,6.33224311 C30.3808144,8.85731332 31.4783011,11.9540975 31.4783011,15.3137681 C31.4783011,23.7712219 24.6211361,30.6275362 16.164533,30.6275362 C12.8040117,30.6275362 9.70722745,29.5326018 7.18045571,27.6983527 C9.96245692,31.529347 14.4715109,34.0305958 19.5675926,34.0305958 C28.0241956,34.0305958 34.8813607,27.1742815 34.8813607,18.7168277 C34.8813607,13.6190444 32.3801119,9.11594585 28.5516699,6.33224311" id="Fill-1293" fill="#ABDCEC" opacity="0.652232143"></path>
                            <path d="M16.9132061,37.2490394 C21.9582419,37.9483681 26.6884948,36.6186226 30.414845,33.9616838 C31.0869493,33.4810017 32.0057754,33.5601228 32.5928031,34.1445983 L37.5782854,39.1351852 L39.9859501,39.1351852 L30.3893221,29.5402587 C27.2755225,32.6532074 22.8345298,34.4355599 18.0021852,33.9514747 C10.8387448,33.2351306 5.04503583,27.443974 4.33039332,20.2839366 C3.84545733,15.448189 5.63206361,11.0054947 8.74586312,7.8933967 L6.33819847,5.48828434 C2.31408051,9.51665612 0.102091787,15.3682171 1.08047142,21.6834449 C2.32258816,29.7333823 8.84795491,36.1319851 16.9132061,37.2490394" id="Fill-1294" fill="#182A37"></path>
                            <path d="M54.7892592,46.9401023 C55.4698712,47.6198635 55.4698712,48.7335147 54.7892592,49.4141266 L50.26319,53.9384944 C49.5825781,54.6191063 48.4680761,54.6191063 47.7874642,53.9384944 L35.3918196,41.5394468 C34.7112077,40.8596856 34.7112077,39.7460344 35.3918196,39.0654225 L39.9178889,34.5410547 C40.5985008,33.8604428 41.7130028,33.8604428 42.3936147,34.5410547 L54.7892592,46.9401023" id="Fill-1296" fill="#DF5142"></path>
                            <path d="M54.9509046,47.1391813 L52.6708547,49.4175297 C52.007258,50.0819771 50.9352943,50.0819771 50.2716977,49.4175297 L39.9093812,39.0620194 C39.2457846,38.397572 38.1738208,38.397572 37.5102242,39.0620194 L35.2301743,41.3403678 C35.2301743,41.3548308 35.2301743,41.3624877 35.2301743,41.3769507 L47.7874642,53.9384944 C48.4680761,54.6191063 49.5825781,54.6191063 50.26319,53.9384944 L54.7892592,49.4141266 C55.4103176,48.7956206 55.4613635,47.8223455 54.9509046,47.1391813" id="Fill-1297" fill="#C2423D"></path>
                        </g>
                    </g>
                    <g id="Group-12" mask="url(#mask-2)" fill="#546670">
                        <g transform="translate(18.892686, 44.055535)">
                            <path d="M9.60922158,15.3290812 C9.53379119,15.3290812 9.45639286,15.3044897 9.39210861,15.2526458 C7.28277139,13.5610869 4.97982918,11.5703651 4.35015121,9.35174045 C4.0838562,8.41258108 4.62104707,7.42884163 5.54784908,7.15829839 C6.47465108,6.88977998 7.44611825,7.43346979 7.71243005,8.37196556 C8.08432625,9.68267098 10.6116353,11.7098566 11.5633726,12.4729927 C11.7148882,12.5939612 11.7404716,12.8172802 11.6204365,12.9708262 C11.5010596,13.1243621 11.2819888,13.1509502 11.1291534,13.028651 C9.32206156,11.5796963 7.42261699,9.91536028 7.03960487,8.56809069 C6.87956256,8.00445895 6.29579567,7.67876913 5.740235,7.84029536 C5.18467433,8.00247156 4.86196018,8.59335841 5.02201592,9.15632656 C5.59463667,11.1729797 7.80183424,13.0732481 9.8258711,14.6968479 C9.97738673,14.8178164 10.0029701,15.0411354 9.88293503,15.1946814 C9.81471992,15.283081 9.71240145,15.3289417 9.60941972,15.3289417 L9.60922158,15.3290812 Z" id="Fill-1"></path>
                            <path d="M0.715649997,13.535159 C0.566757185,13.535159 0.428365722,13.4381191 0.381786344,13.2865825 C0.323409319,13.099142 0.426387693,12.9010839 0.611358534,12.8425854 C1.00227941,12.7182937 2.23409742,12.1579919 1.66016694,10.1368127 C1.32499356,8.953722 1.46338838,7.70872967 2.05174268,6.63200162 C2.64009698,5.55459295 3.60691292,4.77359078 4.77581352,4.43328482 C7.12929788,3.7540001 9.62097557,5.10790735 10.3623164,7.45945555 C10.536796,7.62562015 11.7305479,8.62527571 12.5478867,9.29727788 C12.697436,9.42090423 12.7203848,9.64423682 12.5990484,9.79577506 C12.4777036,9.94798201 12.2566547,9.97191743 12.1071104,9.84761897 C9.85790071,7.99788594 9.78317893,7.86959059 9.74640574,7.80850567 C9.7319752,7.78391346 9.7208257,7.75732706 9.71229902,7.73074066 C9.10557492,5.7081322 6.9764742,4.53577817 4.96805336,5.11599983 C3.98024815,5.40246939 3.16163321,6.06313937 2.66376783,6.97441067 C2.16659091,7.88566495 2.04851369,8.93916712 2.33186878,9.94017709 C2.92809825,12.0391842 1.88978447,13.1804003 0.819331931,13.519345 C0.785880079,13.5293143 0.751116818,13.5352968 0.715697013,13.5352968 L0.715649997,13.535159 Z" id="Fill-2"></path>
                            <path d="M1.83328641,14.8883857 C1.68439359,14.8883857 1.546657,14.7913457 1.49942275,14.6398092 C1.44104573,14.4530323 1.5440241,14.2543106 1.72899494,14.195812 C3.17856399,13.7365351 3.70584793,12.9821448 2.99950037,9.72197972 C2.61710954,7.95392011 3.54587614,6.26634287 5.16072306,5.79586988 C6.82805994,5.31266945 8.57743966,6.29171267 9.05616283,7.97995352 C9.15323734,8.32225027 9.59795454,8.98225666 12.194142,11.0653375 C12.3456576,11.186306 12.371241,11.409625 12.2512059,11.5638347 C12.131829,11.7167069 11.9127582,11.7446222 11.7599228,11.6216595 C8.89362867,9.32323302 8.51968392,8.65861548 8.38333765,8.17674224 C8.01011492,6.86404604 6.6529826,6.10104605 5.35231979,6.47786684 C4.09689305,6.8434235 3.37865718,8.17274365 3.68170859,9.57056739 C4.40190906,12.8945058 3.96178935,14.2319082 1.93624127,14.8732148 C1.90278942,14.8838494 1.86736962,14.8885031 1.8332629,14.8885031 L1.83328641,14.8883857 Z" id="Fill-3"></path>
                            <path d="M10.5785898,14.179188 C10.4887289,14.179188 10.3995262,14.1446266 10.3306478,14.0755002 C10.2027443,13.9458913 9.92135714,13.7292049 9.59602353,13.4793012 C8.34323304,12.5155377 6.24563301,10.9036956 5.69403511,8.95969777 C5.6409054,8.77093006 5.74781968,8.57552638 5.93344707,8.52102638 C6.12169559,8.46718827 6.31256358,8.57552808 6.36634647,8.7636305 C6.85302877,10.4804741 8.83451618,12.0038537 10.0184787,12.9138318 C10.3785705,13.190994 10.6632353,13.4103382 10.8252557,13.5738382 C10.9616859,13.7120875 10.9616859,13.9367405 10.8252557,14.0749898 C10.7576971,14.1447797 10.6684927,14.1793412 10.5786234,14.1793412 L10.5785898,14.179188 Z" id="Fill-4"></path>
                            <path d="M5.33127344,17.0153139 C5.32340162,17.0153139 5.3168429,17.0153139 5.30897276,17.0146333 C5.11679505,17.0026693 4.96987019,16.8345093 4.98167455,16.6391057 C5.00725459,16.2283394 5.19418667,14.1792034 6.38073503,14.1792034 C7.25309928,14.1792034 7.77848579,14.9023535 8.12620235,15.3809095 C8.21934264,15.5085242 8.30068192,15.6235136 8.37676381,15.7012735 C8.51319404,15.8395228 8.51319404,16.0641758 8.37676381,16.2024251 C8.24033358,16.3406744 8.01863657,16.3406744 7.88220634,16.2024251 C7.78578669,16.1047198 7.68018886,15.9624753 7.5627833,15.8016297 C7.26696899,15.394862 6.89965684,14.888384 6.38081899,14.888384 C6.00170248,14.888384 5.72556771,15.94985 5.68029806,16.6829881 C5.66849202,16.8704287 5.51435189,17.0153139 5.33135572,17.0153139 L5.33127344,17.0153139 Z" id="Fill-5"></path>
                            <path d="M3.23234689,16.3061005 C3.08476548,16.3061005 2.94768207,16.2110547 2.8991381,16.060842 C2.83944967,15.874065 2.94046009,15.6753434 3.12345458,15.6141904 C4.00762319,15.3230757 4.59597749,13.4626058 4.29754372,12.5148537 C4.23851183,12.3280768 4.34017879,12.1293551 4.52449645,12.0695293 C4.70881578,12.0070509 4.90492269,12.1127329 4.96396129,12.2995081 C5.33520263,13.47729 4.68651678,15.8468574 3.33925781,16.2894253 C3.30449455,16.3007245 3.26776333,16.3060418 3.23234353,16.3060418 L3.23234689,16.3061005 Z" id="Fill-6"></path>
                            <path d="M0.433554268,9.21684657 C0.240721688,9.21684657 0.083957062,9.05799345 0.083957062,8.86192447 C0.083957062,5.53934725 2.75160875,2.83612687 6.03113951,2.83612687 C9.25962437,2.83612687 10.4145377,4.7256757 11.2574666,6.10493575 C11.6556078,6.75497118 11.9993112,7.31727573 12.4361398,7.46151441 C12.6204591,7.52199869 12.7208046,7.72138905 12.6604563,7.90816598 C12.6014244,8.09359869 12.4053108,8.19728992 12.2196817,8.13547334 C11.5381855,7.91148396 11.1321691,7.24681538 10.6625469,6.47780899 C9.86364506,5.17108515 8.86922403,3.54471194 6.03113951,3.54471194 C3.13730749,3.54471194 0.783823131,5.9302567 0.783823131,8.86199253 C0.783823131,9.05805981 0.627060184,9.21691463 0.43357106,9.21691463 L0.433554268,9.21684657 Z" id="Fill-7"></path>
                            <path d="M0.783823131,11.6980258 C0.655264719,11.6980258 0.531951945,11.6262332 0.470293879,11.5026136 C0.406014673,11.3710105 0.083957062,10.6970414 0.083957062,10.2803027 C0.083957062,10.0842354 0.240720009,9.92538059 0.433554268,9.92538059 C0.627041713,9.92538059 0.78380634,10.0842337 0.78380634,10.2803027 C0.78380634,10.4650718 0.970745134,10.9296745 1.09668073,11.184904 C1.18326061,11.3597021 1.11307922,11.5723934 0.93991778,11.6608049 C0.890067435,11.6860624 0.836939406,11.6980258 0.783809698,11.6980258 L0.783823131,11.6980258 Z" id="Fill-8"></path>
                            <path d="M10.928187,4.25382448 C10.8101232,4.25382448 10.6946856,4.1933402 10.6284267,4.0830079 C10.2840684,3.5074144 8.37082133,2.12692925 5.68083706,2.12692925 C2.88405941,2.12692925 1.38660125,3.57522036 1.08217295,4.0830079 C0.98313048,4.25116669 0.767333964,4.3036793 0.6020393,4.20198227 C0.437404539,4.10095393 0.384271473,3.88294543 0.484630387,3.71544684 C0.867676086,3.07604597 2.5474554,1.41770101 5.68073295,1.41770101 C8.62779375,1.41770101 10.7470379,2.91385615 11.2264327,3.71544684 C11.3274431,3.88294033 11.2743151,4.10028183 11.1090238,4.20264586 C11.0526147,4.23720734 10.9903035,4.25382448 10.9279956,4.25382448 L10.928187,4.25382448 Z" id="Fill-9"></path>
                            <path d="M9.52912654,1.41771462 C9.49108392,1.41771462 9.45304129,1.41106845 9.41499699,1.39843969 C9.27397599,1.34925527 9.13951708,1.29874026 9.00570631,1.24889054 C8.26911742,0.971064753 7.57319734,0.709182303 5.68083874,0.709182303 C4.00102584,0.709182303 3.62254741,0.905249581 3.1005024,1.177103 C2.97194399,1.24356815 2.83551712,1.31468699 2.67547817,1.38647624 C2.49968887,1.46756434 2.29176081,1.38647624 2.21305946,1.20834308 C2.13369317,1.02954633 2.21305946,0.819509494 2.38884876,0.739758793 C2.53643016,0.672628338 2.66170921,0.607492076 2.78042449,0.545682305 C3.36812393,0.24126161 3.83185236,1.70152979e-06 5.68080516,1.70152979e-06 C7.69846127,1.70152979e-06 8.48681808,0.297105818 9.24965195,0.58423897 C9.37821036,0.632759794 9.50743371,0.681278916 9.64253742,0.729134441 C9.82487536,0.792941808 9.92261818,0.994334874 9.85965038,1.17910399 C9.80980003,1.32599366 9.67402132,1.41770952 9.52906105,1.41770952 L9.52912654,1.41771462 Z" id="Fill-10"></path>
                            <path d="M12.3279192,6.38074522 C12.1796829,6.38074522 12.0425995,6.28502566 11.9947104,6.13415102 C11.8346681,5.62833726 11.3355131,4.80217648 11.3302742,4.79419631 C11.2286072,4.62736642 11.2804255,4.40936131 11.4450586,4.30633368 C11.6096934,4.20264586 11.82483,4.25515507 11.926502,4.42264856 C11.9488026,4.45920423 12.4754972,5.32990424 12.6611263,5.9188037 C12.7201582,6.10558063 12.6184912,6.30430229 12.4341735,6.36412808 C12.3980989,6.37476264 12.3626791,6.38074522 12.3279158,6.38074522 L12.3279192,6.38074522 Z" id="Fill-11"></path>
                        </g>
                    </g>
                    <g id="Person" filter="url(#filter-7)" mask="url(#mask-2)">
                        <g transform="translate(55.582890, 46.306743)">
                            <mask id="mask-9" fill="white">
                                <use xlink:href="#path-8"></use>
                            </mask>
                            <use id="Mask" stroke="none" fill="#0078D4" fill-rule="evenodd" xlink:href="#path-8"></use>
                            <g id="Person" filter="url(#filter-10)" stroke="none" stroke-width="1" fill="none" fill-rule="evenodd" mask="url(#mask-9)">
                                <g transform="translate(3.088235, 6.176471)">
                                    <path d="M11.6911765,20.2941176 C10.1053676,20.2941176 8.82352941,18.9516176 8.82352941,17.2916176 L8.82352941,8.29161765 C8.82352941,6.63661765 10.1053676,5.29411765 11.6911765,5.29411765 C13.2741176,5.29411765 14.5588235,6.63661765 14.5588235,8.29161765 L14.5588235,17.2916176 C14.5588235,18.9516176 13.2741176,20.2941176 11.6911765,20.2941176" id="Fill-304" fill="#E6E6E6"></path>
                                    <path d="M11.6911765,12.7941176 C8.15573529,12.7941176 5.29411765,9.92823529 5.29411765,6.39705882 C5.29411765,2.86588235 8.15573529,0 11.6911765,0 C15.2202206,0 18.0882353,2.86588235 18.0882353,6.39705882 C18.0882353,9.92823529 15.2202206,12.7941176 11.6911765,12.7941176 Z" id="Fill-305" fill="#FFFFFF"></path>
                                    <path d="M5.59407398,8.33862792 C6.75325076,9.96689367 8.65612802,11.0294118 10.8088235,11.0294118 C14.3378676,11.0294118 17.2058824,8.16352941 17.2058824,4.63235294 C17.2058824,3.95669831 17.1008817,3.30540071 16.9063406,2.69387555 C17.650388,3.73919207 18.0882353,5.01734167 18.0882353,6.39705882 C18.0882353,9.92823529 15.2202206,12.7941176 11.6911765,12.7941176 C8.83334607,12.7941176 6.4157986,10.9215219 5.59407398,8.33862792 Z" id="Combined-Shape" fill="#E6E6E6"></path>
                                    <path d="M11.9256563,14.4122936 C6.42986464,14.4122936 1.75833635,18.4717789 0.0128375156,24.1181759 L23.8363669,24.1181759 C22.0929762,18.4717789 17.4193398,14.4122936 11.9256563,14.4122936 Z" id="Fill-307" fill="#FFFFFF"></path>
                                    <path d="M12.8865052,14.4122936 L7.94117647,24.1181759 L23.8235294,24.1181759 C22.1916955,18.7127084 17.9460208,14.7936834 12.8865052,14.4122936" id="Fill-321" fill="#E6E6E6"></path>
                                </g>
                            </g>
                        </g>
                    </g>
                </g>
                <g id="Azure-Border" stroke="#0078D4" stroke-width="4">
                    <rect x="2" y="2" width="96" height="96" rx="48"></rect>
                </g>
            </g>
        </g>
    </g>
</svg>