<svg width="181" height="191" viewBox="0 0 181 191" fill="none" xmlns="http://www.w3.org/2000/svg">
<path d="M90.0755 189.055C93.1355 189.055 96.1455 188.205 98.8055 186.585L160.776 148.925C166.316 145.555 169.746 139.225 169.746 132.385V57.6752C169.746 50.8552 166.316 44.5152 160.776 41.1352L98.8055 3.47524C93.4755 0.23524 86.6555 0.25524 81.3555 3.47524L19.3855 41.1552C13.8455 44.5252 10.3955 50.8552 10.3955 57.6952V132.395C10.3955 138.155 12.8455 143.575 16.9455 147.145V147.175L81.3555 186.605C83.9955 188.205 87.0155 189.055 90.0755 189.055ZM90.7255 8.00524C92.6755 8.00524 95.1555 9.21524 96.8655 10.2652L157.626 47.4552C161.376 49.7352 163.496 56.3352 163.496 61.0852L162.866 132.385C162.866 137.135 159.665 141.405 155.915 143.685L95.5155 180.065C92.0855 182.155 89.2955 182.155 85.8555 180.065L24.6455 143.595C20.8955 141.315 17.8755 137.115 17.8755 132.385V58.7452C17.8755 54.0052 20.6055 49.1152 24.3755 46.8252L84.9555 10.2652C86.6555 9.22524 88.7755 8.00524 90.7255 8.00524Z" fill="#F2F1F0"/>
<path fill-rule="evenodd" clip-rule="evenodd" d="M97.975 11.585C95.525 10.085 92.805 9.33496 90.075 9.33496C87.345 9.33496 84.625 10.095 82.175 11.585L26.045 45.915C21.025 48.985 17.915 54.735 17.915 60.985V129.085C17.915 135.315 21.015 141.085 26.045 144.155L82.175 178.485C84.625 179.985 87.345 180.735 90.075 180.735C92.805 180.735 95.525 179.995 97.975 178.485L154.105 144.155C159.125 141.085 162.235 135.315 162.235 129.085V60.985C162.235 54.755 159.135 49.005 154.105 45.915L97.975 11.585Z" fill="url(#paint0_linear)"/>
<path fill-rule="evenodd" clip-rule="evenodd" d="M90.075 10.8052C91.755 10.8052 93.645 11.6752 95.705 12.9252L154.175 48.4652C157.825 50.6852 160.235 54.9552 160.235 59.7852V130.265C160.235 135.085 157.825 139.365 154.175 141.585L95.715 177.125C93.755 178.315 91.835 179.065 90.085 179.065C88.335 179.065 86.415 178.315 84.455 177.125L25.975 141.595C23.965 140.365 22.515 139.165 21.535 137.555C20.555 135.955 19.915 133.735 19.915 130.275V59.7952C19.915 54.9652 22.325 50.6952 25.975 48.4752L84.435 12.9352C86.525 11.6852 88.385 10.8052 90.075 10.8052ZM97.785 180.555L156.245 145.015C161.165 142.025 164.225 136.405 164.225 130.275V59.7952C164.225 53.6652 161.165 48.0452 156.245 45.0552L97.785 9.51518C95.675 8.23518 92.965 6.80518 90.075 6.80518C87.175 6.80518 84.465 8.24518 82.375 9.50518H82.365L23.895 45.0552C18.975 48.0452 15.915 53.6652 15.915 59.7952V130.275C15.915 134.235 16.655 137.225 18.115 139.635C19.575 142.035 21.635 143.635 23.895 145.005L82.355 180.545C84.575 181.895 87.245 183.075 90.065 183.075C92.885 183.075 95.565 181.905 97.785 180.555Z" fill="url(#paint1_linear)"/>
<path fill-rule="evenodd" clip-rule="evenodd" d="M108.842 99.9408C108.964 99.8689 109.115 99.8667 109.239 99.935L130.709 111.775L130.322 112.476L109.446 100.963V113.419L130.709 125.145L130.322 125.846L108.852 114.006C108.725 113.935 108.646 113.801 108.646 113.655V100.285C108.646 100.144 108.72 100.013 108.842 99.9408Z" fill="white"/>
<path fill-rule="evenodd" clip-rule="evenodd" d="M92.2253 57.0849C92.3435 57.012 92.4909 57.0057 92.6149 57.0681L132.645 77.2081L132.285 77.9227L92.8352 58.0744V83.5554H92.0352V57.4254C92.0352 57.2866 92.1071 57.1577 92.2253 57.0849Z" fill="white"/>
<path fill-rule="evenodd" clip-rule="evenodd" d="M110.608 51.8431C110.727 51.7706 110.876 51.7658 111 51.8305L132.39 62.9805L132.02 63.6899L111.215 52.8447V80.0271L132.246 91.4335L131.864 92.1368L110.624 80.6168C110.495 80.5468 110.415 80.4119 110.415 80.2652V52.1852C110.415 52.0453 110.488 51.9156 110.608 51.8431Z" fill="white"/>
<path fill-rule="evenodd" clip-rule="evenodd" d="M102.013 34.6564C102.105 34.6026 102.219 34.6014 102.312 34.6534L132.612 51.6034L132.319 52.1271L102.465 35.4268V89.9352H101.865V34.9152C101.865 34.8088 101.922 34.7103 102.013 34.6564Z" fill="white"/>
<path d="M148.155 138.796C148.115 138.796 148.085 138.786 148.045 138.766L126.555 126.946C126.485 126.906 126.435 126.826 126.435 126.746V119.466C126.435 119.386 126.475 119.316 126.545 119.276C126.585 119.256 126.615 119.246 126.655 119.246C126.695 119.246 126.725 119.256 126.765 119.276L148.255 131.066C148.325 131.106 148.375 131.186 148.375 131.266V138.566C148.375 138.646 148.335 138.716 148.265 138.756C148.235 138.786 148.195 138.796 148.155 138.796Z" fill="url(#paint2_linear)"/>
<path d="M126.665 119.475L148.155 131.265V138.575L126.665 126.755V119.475V119.475ZM126.665 119.025C126.585 119.025 126.505 119.045 126.435 119.085C126.295 119.165 126.215 119.315 126.215 119.475V126.755C126.215 126.915 126.305 127.075 126.445 127.145L147.935 138.965C148.005 139.005 148.075 139.025 148.155 139.025C148.235 139.025 148.315 139.005 148.385 138.965C148.525 138.885 148.605 138.735 148.605 138.575V131.265C148.605 131.105 148.515 130.945 148.375 130.875L126.885 119.085C126.815 119.045 126.735 119.025 126.665 119.025Z" fill="white"/>
<path d="M148.155 89.2152C148.115 89.2152 148.085 89.2052 148.055 89.1852L126.565 77.9052C126.495 77.8652 126.445 77.7852 126.445 77.7052V71.3352C126.445 71.2552 126.485 71.1852 126.555 71.1452C126.595 71.1252 126.635 71.1152 126.675 71.1152C126.715 71.1152 126.745 71.1252 126.775 71.1452L148.265 82.4652C148.335 82.5052 148.385 82.5852 148.385 82.6652V88.9852C148.385 89.0652 148.345 89.1352 148.275 89.1752C148.235 89.2052 148.195 89.2152 148.155 89.2152Z" fill="url(#paint3_linear)"/>
<path d="M126.665 71.345L148.155 82.665V88.985L126.665 77.715V71.345V71.345ZM126.665 70.895C126.585 70.895 126.505 70.915 126.435 70.955C126.305 71.035 126.215 71.185 126.215 71.345V77.715C126.215 77.885 126.305 78.035 126.455 78.115L147.945 89.385C148.015 89.415 148.085 89.435 148.155 89.435C148.235 89.435 148.315 89.415 148.385 89.375C148.515 89.295 148.605 89.145 148.605 88.985V82.665C148.605 82.495 148.515 82.345 148.365 82.265L126.875 70.955C126.805 70.915 126.735 70.895 126.665 70.895Z" fill="white"/>
<path d="M148.155 123.875C148.115 123.875 148.085 123.865 148.045 123.845L126.555 112.285C126.485 112.245 126.435 112.165 126.435 112.085V105.715C126.435 105.635 126.475 105.565 126.545 105.525C126.585 105.505 126.625 105.495 126.665 105.495C126.705 105.495 126.735 105.505 126.775 105.525L148.265 117.125C148.335 117.165 148.385 117.245 148.385 117.325V123.645C148.385 123.725 148.345 123.795 148.275 123.835C148.235 123.865 148.195 123.875 148.155 123.875Z" fill="url(#paint4_linear)"/>
<path d="M126.665 105.735L148.155 117.335V123.655L126.665 112.095V105.735V105.735ZM126.665 105.285C126.585 105.285 126.505 105.305 126.435 105.345C126.295 105.425 126.215 105.575 126.215 105.735V112.105C126.215 112.275 126.305 112.425 126.455 112.505L147.945 124.055C148.015 124.095 148.085 124.105 148.155 124.105C148.235 124.105 148.315 124.085 148.385 124.045C148.525 123.965 148.605 123.815 148.605 123.655V117.335C148.605 117.165 148.515 117.015 148.365 116.935L126.875 105.335C126.805 105.305 126.735 105.285 126.665 105.285Z" fill="white"/>
<path d="M148.155 103.265C148.125 103.265 148.085 103.255 148.055 103.245L126.565 92.4554C126.485 92.4154 126.445 92.3353 126.445 92.2553V85.7054C126.445 85.6254 126.485 85.5554 126.555 85.5154C126.595 85.4954 126.635 85.4854 126.675 85.4854C126.715 85.4854 126.745 85.4954 126.775 85.5154L148.265 96.7654C148.335 96.8054 148.385 96.8854 148.385 96.9654V103.055C148.385 103.135 148.345 103.205 148.275 103.245C148.235 103.255 148.195 103.265 148.155 103.265Z" fill="url(#paint5_linear)"/>
<path d="M126.665 85.6951L148.155 96.9451V103.035L126.665 92.2451V85.6951V85.6951ZM126.665 85.2451C126.585 85.2451 126.505 85.2651 126.435 85.3151C126.305 85.3951 126.215 85.5451 126.215 85.6951V92.2451C126.215 92.4151 126.315 92.5751 126.465 92.6451L147.955 103.435C148.015 103.465 148.085 103.485 148.155 103.485C148.235 103.485 148.315 103.465 148.395 103.415C148.525 103.335 148.605 103.185 148.605 103.035V96.9451C148.605 96.7751 148.515 96.6251 148.365 96.5451L126.875 85.2951C126.805 85.2551 126.735 85.2451 126.665 85.2451Z" fill="white"/>
<path d="M148.155 76.2953C148.115 76.2953 148.085 76.2853 148.045 76.2653L126.555 64.6453C126.485 64.6053 126.435 64.5253 126.435 64.4453V57.1653C126.435 57.0853 126.475 57.0153 126.545 56.9753C126.585 56.9553 126.615 56.9453 126.655 56.9453C126.695 56.9453 126.725 56.9553 126.765 56.9753L148.255 68.7653C148.325 68.8053 148.375 68.8853 148.375 68.9653V76.0753C148.375 76.1553 148.335 76.2253 148.265 76.2653C148.235 76.2853 148.195 76.2953 148.155 76.2953Z" fill="url(#paint6_linear)"/>
<path d="M126.665 57.1653L148.155 68.9553V76.0653L126.665 64.4453V57.1653V57.1653ZM126.665 56.7153C126.585 56.7153 126.505 56.7353 126.435 56.7753C126.295 56.8553 126.215 57.0053 126.215 57.1653V64.4453C126.215 64.6153 126.305 64.7653 126.455 64.8453L147.945 76.4653C148.015 76.5053 148.085 76.5153 148.155 76.5153C148.235 76.5153 148.315 76.4953 148.385 76.4553C148.525 76.3753 148.605 76.2253 148.605 76.0653V68.9553C148.605 68.7953 148.515 68.6353 148.375 68.5653L126.875 56.7753C126.815 56.7353 126.735 56.7153 126.665 56.7153Z" fill="white"/>
<path d="M148.155 63.3653C148.115 63.3653 148.085 63.3553 148.045 63.3353L126.555 51.6853C126.485 51.6453 126.435 51.5653 126.435 51.4853V44.3553C126.435 44.2753 126.475 44.2053 126.545 44.1653C126.575 44.1453 126.615 44.1353 126.655 44.1353C126.695 44.1353 126.735 44.1453 126.765 44.1653L148.255 56.5353C148.325 56.5753 148.365 56.6553 148.365 56.7353V63.1453C148.365 63.2253 148.325 63.2953 148.255 63.3353C148.235 63.3553 148.195 63.3653 148.155 63.3653Z" fill="url(#paint7_linear)"/>
<path d="M126.665 44.3553L148.155 56.7253V63.1353L126.665 51.4853V44.3553V44.3553ZM126.665 43.9053C126.585 43.9053 126.505 43.9253 126.435 43.9653C126.295 44.0453 126.215 44.1953 126.215 44.3553V51.4953C126.215 51.6653 126.305 51.8153 126.455 51.8953L147.945 63.5453C148.015 63.5853 148.085 63.5953 148.155 63.5953C148.235 63.5953 148.315 63.5753 148.385 63.5353C148.525 63.4553 148.605 63.3053 148.605 63.1453V56.7353C148.605 56.5753 148.515 56.4253 148.375 56.3453L126.885 43.9753C126.815 43.9253 126.735 43.9053 126.665 43.9053Z" fill="white"/>
<path d="M114.125 97.9651L113.985 155.345L31.9854 111.065L32.1254 53.6851L114.125 97.9651Z" fill="#243A5E"/>
<path d="M114.125 97.9649L117.685 95.9849V153.365L113.985 155.345L114.125 97.9649Z" fill="#1A2C45"/>
<path d="M32.125 53.6851L35.685 51.7051L117.685 95.9851L114.125 97.9651L32.125 53.6851Z" fill="#175A98"/>
<path opacity="0.3" d="M69.495 116.805C75.545 113.425 75.525 102.525 69.455 92.4652C63.395 82.4152 53.575 77.0052 47.525 80.3952C41.475 83.7852 41.495 94.6752 47.565 104.735C53.625 114.785 63.445 120.195 69.495 116.805Z" fill="#1F1D20"/>
<path d="M68.9053 115.085C74.9553 111.705 74.9353 100.805 68.8653 90.745C62.7953 80.695 52.9753 75.285 46.9353 78.675C40.8953 82.065 40.9053 92.955 46.9753 103.015C53.0353 113.065 62.8553 118.475 68.9053 115.085Z" fill="white"/>
<path d="M58.5057 84.0751C61.3657 85.6651 63.6857 89.5151 63.6757 92.6651C63.6657 95.8151 61.3357 97.0751 58.4757 95.4951C55.6157 93.9051 53.2957 90.0551 53.3057 86.9051C53.3057 83.7351 55.6357 82.4751 58.5057 84.0751Z" fill="url(#paint8_radial)"/>
<path d="M58.4557 96.4452C62.8857 98.9052 66.5257 104.655 66.9957 109.635C67.0357 109.935 67.0657 110.285 66.9957 110.525C66.8857 111.795 66.0757 112.645 64.4957 112.775C62.8357 112.915 60.6257 112.225 58.4157 110.995C56.2057 109.765 53.9957 108.005 52.3157 105.995C50.7457 104.115 49.9157 102.355 49.8057 100.955C49.8057 100.635 49.8057 100.275 49.8857 99.9852C50.4357 95.6252 54.0657 94.0052 58.4557 96.4452Z" fill="url(#paint9_radial)"/>
<path d="M86.2953 43.6452L97.5853 60.0552L86.2453 63.4052L86.2553 57.8452L67.4453 46.9752L67.4653 38.3452L86.2753 49.2052L86.2953 43.6452Z" fill="white"/>
<path d="M103.366 109.995C104.086 110.415 104.676 111.445 104.676 112.275C104.676 113.105 104.086 113.435 103.366 113.025L82.9955 101.275C82.2755 100.855 81.6855 99.825 81.6855 98.995C81.6855 98.145 82.2855 97.825 83.0055 98.235L103.366 109.995Z" fill="#50E6FF"/>
<path d="M88.7464 106.245C88.3564 106.245 87.9364 106.115 87.4964 105.865C86.0164 105.005 84.8164 102.915 84.8164 101.215C84.8164 99.9948 85.4464 99.2148 86.4164 99.2148C86.8064 99.2148 87.2264 99.3448 87.6664 99.5848C89.1464 100.435 90.3464 102.525 90.3464 104.235C90.3464 105.455 89.7164 106.245 88.7464 106.245Z" fill="url(#paint10_linear)"/>
<path d="M86.416 99.3649C86.766 99.3649 87.166 99.4749 87.586 99.7149C89.036 100.545 90.196 102.585 90.196 104.235C90.196 105.415 89.606 106.095 88.746 106.095C88.396 106.095 87.996 105.975 87.576 105.735C86.146 104.905 84.966 102.885 84.966 101.215C84.966 100.035 85.556 99.3649 86.416 99.3649ZM86.416 99.0649C85.356 99.0649 84.666 99.9149 84.666 101.215C84.666 102.965 85.906 105.115 87.426 105.995C87.886 106.255 88.336 106.395 88.756 106.395C89.816 106.395 90.506 105.545 90.506 104.235C90.506 102.475 89.266 100.325 87.746 99.4549C87.276 99.1949 86.836 99.0649 86.416 99.0649Z" fill="white"/>
<path d="M103.366 119.365C104.086 119.785 104.676 120.795 104.676 121.635C104.676 122.465 104.086 122.795 103.366 122.385L82.9955 110.635C82.2755 110.215 81.6855 109.185 81.6855 108.355C81.6855 107.505 82.2855 107.185 83.0055 107.605L103.366 119.365Z" fill="#35ADE3"/>
<path d="M98.9757 121.425C98.5857 121.425 98.1657 121.305 97.7357 121.055C96.2557 120.205 95.0557 118.115 95.0557 116.405C95.0557 115.185 95.6857 114.395 96.6457 114.395C97.0357 114.395 97.4657 114.525 97.9057 114.775C99.3857 115.635 100.586 117.725 100.586 119.425C100.586 120.635 99.9557 121.425 98.9757 121.425Z" fill="url(#paint11_linear)"/>
<path d="M96.6453 114.545C96.9953 114.545 97.4053 114.665 97.8253 114.905C99.2553 115.735 100.435 117.755 100.435 119.425C100.435 120.595 99.8353 121.275 98.9753 121.275C98.6253 121.275 98.2253 121.165 97.8153 120.925C96.3653 120.095 95.2053 118.055 95.2053 116.405C95.2053 115.215 95.7953 114.545 96.6453 114.545ZM96.6453 114.245C95.5853 114.245 94.9053 115.095 94.9053 116.405C94.9053 118.165 96.1453 120.315 97.6653 121.185C98.1153 121.445 98.5553 121.575 98.9753 121.575C100.045 121.575 100.735 120.735 100.735 119.425C100.735 117.675 99.4953 115.525 97.9753 114.645C97.5153 114.375 97.0653 114.245 96.6453 114.245Z" fill="white"/>
<path d="M103.366 129.275C104.086 129.695 104.676 130.725 104.676 131.545C104.676 132.395 104.086 132.705 103.366 132.295L82.9955 120.545C82.2755 120.135 81.6855 119.115 81.6855 118.275C81.6855 117.435 82.2855 117.105 83.0055 117.525L103.366 129.275Z" fill="#166DB3"/>
<path d="M89.2757 125.515C88.8857 125.515 88.4657 125.385 88.0357 125.145C86.5557 124.295 85.3457 122.205 85.3457 120.495C85.3457 119.275 85.9757 118.485 86.9357 118.485C87.3257 118.485 87.7457 118.615 88.1757 118.865C89.6657 119.715 90.8757 121.795 90.8757 123.515C90.8757 124.725 90.2457 125.515 89.2757 125.515Z" fill="url(#paint12_linear)"/>
<path d="M86.9353 118.635C87.2853 118.635 87.6853 118.745 88.1053 118.995C89.5653 119.825 90.7253 121.865 90.7253 123.515C90.7253 124.695 90.1253 125.365 89.2653 125.365C88.9153 125.365 88.5153 125.255 88.0953 125.015C86.6453 124.185 85.4853 122.165 85.4853 120.495C85.4953 119.315 86.0853 118.635 86.9353 118.635ZM86.9353 118.335C85.8753 118.335 85.1953 119.185 85.1953 120.495C85.1953 122.285 86.4053 124.385 87.9553 125.275C88.4153 125.535 88.8553 125.665 89.2753 125.665C90.3453 125.665 91.0353 124.815 91.0353 123.515C91.0353 121.755 89.7953 119.605 88.2653 118.735C87.7953 118.465 87.3553 118.335 86.9353 118.335Z" fill="white"/>
<path opacity="0.3" d="M32.125 117.465L35.685 115.485L117.685 159.765L114.125 161.745L32.125 117.465Z" fill="#1F1D20"/>
<defs>
<linearGradient id="paint0_linear" x1="90.0749" y1="9.33526" x2="90.0749" y2="180.736" gradientUnits="userSpaceOnUse">
<stop stop-color="#00ABDE"/>
<stop offset="1" stop-color="#007ED8"/>
</linearGradient>
<linearGradient id="paint1_linear" x1="36.1945" y1="4.12648" x2="202.872" y2="286.457" gradientUnits="userSpaceOnUse">
<stop stop-color="#007ED8"/>
<stop offset="0.7065" stop-color="#002D4C"/>
</linearGradient>
<linearGradient id="paint2_linear" x1="116.822" y1="186.711" x2="176.476" y2="19.5419" gradientUnits="userSpaceOnUse">
<stop stop-color="#50E6FF"/>
<stop offset="0.2825" stop-color="#50E6FF"/>
<stop offset="0.5925" stop-color="#3BCAF4"/>
<stop offset="0.9775" stop-color="#0078D4"/>
</linearGradient>
<linearGradient id="paint3_linear" x1="93.145" y1="204.21" x2="153.154" y2="36.0444" gradientUnits="userSpaceOnUse">
<stop stop-color="#50E6FF"/>
<stop offset="0.2825" stop-color="#50E6FF"/>
<stop offset="0.5925" stop-color="#3BCAF4"/>
<stop offset="0.9775" stop-color="#0078D4"/>
</linearGradient>
<linearGradient id="paint4_linear" x1="112.197" y1="185.341" x2="172.128" y2="17.3959" gradientUnits="userSpaceOnUse">
<stop stop-color="#50E6FF"/>
<stop offset="0.2825" stop-color="#50E6FF"/>
<stop offset="0.5925" stop-color="#3BCAF4"/>
<stop offset="0.9775" stop-color="#0078D4"/>
</linearGradient>
<linearGradient id="paint5_linear" x1="98.2316" y1="204.15" x2="156.952" y2="39.5964" gradientUnits="userSpaceOnUse">
<stop stop-color="#50E6FF"/>
<stop offset="0.2825" stop-color="#50E6FF"/>
<stop offset="0.5925" stop-color="#3BCAF4"/>
<stop offset="0.9775" stop-color="#0078D4"/>
</linearGradient>
<linearGradient id="paint6_linear" x1="89.6279" y1="200.511" x2="148.309" y2="36.067" gradientUnits="userSpaceOnUse">
<stop stop-color="#50E6FF"/>
<stop offset="0.2825" stop-color="#50E6FF"/>
<stop offset="0.5925" stop-color="#3BCAF4"/>
<stop offset="0.9775" stop-color="#0078D4"/>
</linearGradient>
<linearGradient id="paint7_linear" x1="73.1156" y1="233.917" x2="138.166" y2="51.6246" gradientUnits="userSpaceOnUse">
<stop stop-color="#50E6FF"/>
<stop offset="0.2825" stop-color="#50E6FF"/>
<stop offset="0.5925" stop-color="#3BCAF4"/>
<stop offset="0.9775" stop-color="#0078D4"/>
</linearGradient>
<radialGradient id="paint8_radial" cx="0" cy="0" r="1" gradientUnits="userSpaceOnUse" gradientTransform="translate(51.8587 87.3487) scale(36.8997 35.5407)">
<stop stop-color="#4FC2EB"/>
<stop offset="0.585" stop-color="#2E76BC"/>
</radialGradient>
<radialGradient id="paint9_radial" cx="0" cy="0" r="1" gradientUnits="userSpaceOnUse" gradientTransform="translate(51.8576 87.3488) scale(36.8997 35.5407)">
<stop stop-color="#4FC2EB"/>
<stop offset="0.585" stop-color="#2E76BC"/>
</radialGradient>
<linearGradient id="paint10_linear" x1="97.2415" y1="82.2193" x2="78.7912" y2="121.379" gradientUnits="userSpaceOnUse">
<stop stop-color="#50E6FF"/>
<stop offset="0.2825" stop-color="#50E6FF"/>
<stop offset="0.5925" stop-color="#3BCAF4"/>
<stop offset="0.9775" stop-color="#0078D4"/>
</linearGradient>
<linearGradient id="paint11_linear" x1="111.697" y1="88.4632" x2="93.2462" y2="127.623" gradientUnits="userSpaceOnUse">
<stop stop-color="#50E6FF"/>
<stop offset="0.2825" stop-color="#50E6FF"/>
<stop offset="0.5925" stop-color="#3BCAF4"/>
<stop offset="0.9775" stop-color="#0078D4"/>
</linearGradient>
<linearGradient id="paint12_linear" x1="105.508" y1="85.0728" x2="87.058" y2="124.232" gradientUnits="userSpaceOnUse">
<stop stop-color="#50E6FF"/>
<stop offset="0.2825" stop-color="#50E6FF"/>
<stop offset="0.5925" stop-color="#3BCAF4"/>
<stop offset="0.9775" stop-color="#0078D4"/>
</linearGradient>
</defs>
</svg>
