<svg width="100" height="100" viewBox="0 0 100 100" fill="none" xmlns="http://www.w3.org/2000/svg">
<g clip-path="url(#clip0_445_1249)">
<path d="M49.6401 96.45C40.382 96.45 31.3317 93.7047 23.6339 88.5611C15.936 83.4176 9.93624 76.1068 6.3933 67.5534C2.85036 59 1.92337 49.5881 3.72954 40.5078C5.53571 31.4276 9.99394 23.0868 16.5404 16.5403C23.0869 9.99384 31.4277 5.53562 40.5079 3.72945C49.5882 1.92327 59.0001 2.85027 67.5535 6.39321C76.1069 9.93614 83.4176 15.9359 88.5612 23.6338C93.7047 31.3316 96.4501 40.3819 96.4501 49.64C96.4505 55.7873 95.24 61.8745 92.8878 67.5539C90.5355 73.2334 87.0875 78.3938 82.7407 82.7406C78.3939 87.0874 73.2335 90.5354 67.554 92.8877C61.8746 95.2399 55.7874 96.4504 49.6401 96.45V96.45Z" fill="url(#paint0_linear_445_1249)"/>
<path fill-rule="evenodd" clip-rule="evenodd" d="M95.54 49.64C95.54 58.7182 92.848 67.5925 87.8045 75.1407C82.7609 82.6889 75.5923 88.572 67.2052 92.0461C58.818 95.5201 49.5891 96.4291 40.6854 94.658C31.7816 92.887 23.603 88.5154 17.1838 82.0962C10.7646 75.677 6.39302 67.4984 4.62196 58.5946C2.85089 49.6909 3.75987 40.462 7.23393 32.0748C10.708 23.6877 16.5911 16.5191 24.1393 11.4755C31.6875 6.43199 40.5618 3.74 49.64 3.74C55.6677 3.73998 61.6363 4.9272 67.2052 7.23388C72.774 9.54057 77.834 12.9215 82.0963 17.1837C86.3585 21.446 89.7394 26.5059 92.0461 32.0748C94.3528 37.6437 95.54 43.6123 95.54 49.64V49.64ZM49.64 3.62732e-07C59.4579 3.62732e-07 69.0553 2.91134 77.2185 8.36585C85.3818 13.8204 91.7442 21.5731 95.5014 30.6436C99.2585 39.7141 100.242 49.6951 98.3262 59.3243C96.4108 68.9535 91.6831 77.7985 84.7408 84.7408C77.7985 91.6831 68.9535 96.4108 59.3243 98.3262C49.6951 100.242 39.7141 99.2585 30.6436 95.5014C21.5731 91.7442 13.8204 85.3818 8.36585 77.2185C2.91134 69.0553 3.62732e-07 59.4579 3.62732e-07 49.64C-0.000787738 43.121 1.28265 36.6656 3.77702 30.6427C6.27138 24.6197 9.9278 19.1471 14.5375 14.5375C19.1471 9.9278 24.6197 6.27138 30.6427 3.77702C36.6656 1.28265 43.121 -0.000787738 49.64 3.62732e-07V3.62732e-07Z" fill="#F2F1F0"/>
<path fill-rule="evenodd" clip-rule="evenodd" d="M92.7296 49.6401C92.7296 58.1625 90.2024 66.4935 85.4676 73.5796C80.7328 80.6657 74.0031 86.1887 66.1294 89.4501C58.2557 92.7114 49.5918 93.5648 41.2331 91.9021C32.8745 90.2395 25.1966 86.1356 19.1703 80.1093C13.1441 74.0831 9.04017 66.4052 7.37753 58.0465C5.7149 49.6879 6.56822 41.0239 9.8296 33.1503C13.091 25.2766 18.6139 18.5469 25.7 13.8121C32.7862 9.07727 41.1172 6.55009 49.6396 6.55009C55.2983 6.54974 60.9017 7.66407 66.1298 9.82942C71.3579 11.9948 76.1082 15.1687 80.1096 19.1701C84.1109 23.1714 87.2849 27.9218 89.4502 33.1499C91.6156 38.3779 92.7299 43.9813 92.7296 49.6401V49.6401ZM49.6396 2.81009C58.9017 2.81009 67.9558 5.55662 75.6569 10.7024C83.3581 15.8481 89.3604 23.162 92.9049 31.719C96.4493 40.2761 97.3767 49.692 95.5697 58.7762C93.7628 67.8603 89.3027 76.2046 82.7534 82.7539C76.2041 89.3032 67.8598 93.7633 58.7757 95.5703C49.6915 97.3772 40.2756 96.4498 31.7185 92.9054C23.1614 89.3609 15.8476 83.3586 10.7018 75.6574C5.5561 67.9563 2.80957 58.9022 2.80957 49.6401C2.81076 37.2204 7.745 25.3097 16.5271 16.5276C25.3091 7.7455 37.2198 2.81125 49.6396 2.81006V2.81009Z" fill="#0078D4"/>
<path fill-rule="evenodd" clip-rule="evenodd" d="M92.7637 49.6401C92.7637 58.1625 90.2366 66.4935 85.5018 73.5796C80.767 80.6657 74.0372 86.1887 66.1636 89.4501C58.2899 92.7114 49.6259 93.5648 41.2673 91.9021C32.9087 90.2395 25.2308 86.1356 19.2045 80.1093C13.1783 74.0831 9.07435 66.4052 7.41171 58.0465C5.74908 49.6879 6.6024 41.0239 9.86378 33.1503C13.1252 25.2766 18.6481 18.5469 25.7342 13.8121C32.8203 9.07727 41.1514 6.55009 49.6738 6.55009C55.3325 6.54974 60.9359 7.66407 66.164 9.82942C71.3921 11.9948 76.1424 15.1687 80.1437 19.1701C84.1451 23.1714 87.3191 27.9218 89.4844 33.1499C91.6498 38.3779 92.7641 43.9813 92.7637 49.6401V49.6401ZM49.6738 2.81009C58.9359 2.81009 67.9899 5.55662 75.6911 10.7024C83.3923 15.8481 89.3946 23.162 92.939 31.719C96.4835 40.2761 97.4109 49.692 95.6039 58.7762C93.797 67.8603 89.3369 76.2046 82.7876 82.7539C76.2383 89.3032 67.894 93.7633 58.8098 95.5703C49.7257 97.3772 40.3097 96.4498 31.7527 92.9054C23.1956 89.3609 15.8818 83.3586 10.736 75.6574C5.59028 67.9563 2.84375 58.9022 2.84375 49.6401C2.84494 37.2204 7.77918 25.3097 16.5612 16.5276C25.3433 7.7455 37.254 2.81125 49.6738 2.81006V2.81009Z" fill="#0078D4"/>
<path d="M27.2484 24.2743H30.8998V34.4077C30.8998 34.6254 30.8134 34.8342 30.6594 34.9882C30.5055 35.1421 30.2967 35.2286 30.079 35.2286H26.4276C26.2099 35.2286 26.0011 35.1421 25.8471 34.9882C25.6932 34.8342 25.6067 34.6254 25.6067 34.4077V25.916C25.5991 25.4882 25.7618 25.0748 26.059 24.767C26.3562 24.4591 26.7635 24.2819 27.1913 24.2743C27.2103 24.274 27.2294 24.274 27.2484 24.2743Z" fill="#B3B3B3"/>
<path opacity="0.5" d="M27.2484 24.2743H30.8998V34.4077C30.8998 34.6254 30.8134 34.8342 30.6594 34.9882C30.5055 35.1421 30.2967 35.2286 30.079 35.2286H26.4276C26.2099 35.2286 26.0011 35.1421 25.8471 34.9882C25.6932 34.8342 25.6067 34.6254 25.6067 34.4077V25.916C25.5991 25.4882 25.7618 25.0748 26.059 24.767C26.3562 24.4591 26.7635 24.2819 27.1913 24.2743C27.2103 24.274 27.2294 24.274 27.2484 24.2743Z" fill="#B3B3B3"/>
<path d="M68.4614 24.2743H72.1129C72.5408 24.2743 72.9511 24.4443 73.2537 24.7469C73.5563 25.0494 73.7263 25.4598 73.7263 25.8877V34.4077C73.7263 34.6254 73.6398 34.8342 73.4858 34.9882C73.3319 35.1421 73.1231 35.2286 72.9054 35.2286H69.2823C69.0646 35.2286 68.8558 35.1421 68.7019 34.9882C68.5479 34.8342 68.4614 34.6254 68.4614 34.4077V24.2743Z" fill="#B3B3B3"/>
<path opacity="0.5" d="M68.4614 24.2743H72.1129C72.5408 24.2743 72.9511 24.4443 73.2537 24.7469C73.5563 25.0494 73.7263 25.4598 73.7263 25.8877V34.4077C73.7263 34.6254 73.6398 34.8342 73.4858 34.9882C73.3319 35.1421 73.1231 35.2286 72.9054 35.2286H69.2823C69.0646 35.2286 68.8558 35.1421 68.7019 34.9882C68.5479 34.8342 68.4614 34.6254 68.4614 34.4077V24.2743Z" fill="#B3B3B3"/>
<path d="M73.7262 25.8594V29.3976H25.6067V25.8594C25.6067 25.4315 25.7767 25.0211 26.0792 24.7186C26.3818 24.416 26.7922 24.246 27.2201 24.246H72.1128C72.5407 24.246 72.9511 24.416 73.2537 24.7186C73.5562 25.0211 73.7262 25.4315 73.7262 25.8594V25.8594Z" fill="#F2F2F2"/>
<path d="M26.3426 63.9947H29.994C30.2117 63.9947 30.4205 64.0812 30.5744 64.2352C30.7284 64.3891 30.8149 64.5979 30.8149 64.8156V75.0339H27.1635C26.9516 75.0378 26.7411 74.9999 26.5439 74.9224C26.3467 74.8448 26.1667 74.7293 26.0142 74.5822C25.8617 74.4351 25.7396 74.2594 25.655 74.0652C25.5704 73.8709 25.5248 73.6619 25.521 73.4501C25.5205 73.4214 25.5207 73.3926 25.5217 73.3639V64.8722C25.5067 64.655 25.5786 64.4408 25.7215 64.2766C25.8645 64.1124 26.0668 64.0117 26.284 63.9967C26.3035 63.9953 26.3231 63.9947 26.3426 63.9947Z" fill="#B3B3B3"/>
<path opacity="0.5" d="M26.3426 63.9947H29.994C30.2117 63.9947 30.4205 64.0812 30.5744 64.2352C30.7284 64.3891 30.8149 64.5979 30.8149 64.8156V75.0339H27.1635C26.9516 75.0378 26.7411 74.9999 26.5439 74.9224C26.3467 74.8448 26.1667 74.7293 26.0142 74.5822C25.8617 74.4351 25.7396 74.2594 25.655 74.0652C25.5704 73.8709 25.5248 73.6619 25.521 73.4501C25.5205 73.4214 25.5207 73.3926 25.5217 73.3639V64.8722C25.5067 64.655 25.5786 64.4408 25.7215 64.2766C25.8645 64.1124 26.0668 64.0117 26.284 63.9967C26.3035 63.9953 26.3231 63.9947 26.3426 63.9947Z" fill="#B3B3B3"/>
<path d="M69.169 63.9947H72.8204C73.0381 63.9947 73.2469 64.0812 73.4009 64.2352C73.5548 64.3891 73.6413 64.5979 73.6413 64.8156V64.8156V73.3073C73.6413 73.7352 73.4713 74.1456 73.1687 74.4481C72.8662 74.7507 72.4558 74.9207 72.0279 74.9207H68.3481V64.8722C68.3331 64.655 68.405 64.4408 68.548 64.2766C68.6909 64.1124 68.8933 64.0117 69.1104 63.9967C69.1299 63.9953 69.1495 63.9947 69.169 63.9947Z" fill="#B3B3B3"/>
<path opacity="0.5" d="M69.169 63.9947H72.8204C73.0381 63.9947 73.2469 64.0812 73.4009 64.2352C73.5548 64.3891 73.6413 64.5979 73.6413 64.8156V64.8156V73.3073C73.6413 73.7352 73.4713 74.1456 73.1687 74.4481C72.8662 74.7507 72.4558 74.9207 72.0279 74.9207H68.3481V64.8722C68.3331 64.655 68.405 64.4408 68.548 64.2766C68.6909 64.1124 68.8933 64.0117 69.1104 63.9967C69.1299 63.9953 69.1495 63.9947 69.169 63.9947Z" fill="#B3B3B3"/>
<path d="M25.5217 73.4205V69.8823H73.6413V73.4205C73.6413 73.6324 73.5995 73.8422 73.5185 74.0379C73.4374 74.2337 73.3185 74.4115 73.1687 74.5614C73.0189 74.7112 72.841 74.83 72.6453 74.9111C72.4495 74.9922 72.2397 75.0339 72.0278 75.0339H27.1351C26.9233 75.0339 26.7135 74.9922 26.5177 74.9111C26.322 74.83 26.1441 74.7112 25.9943 74.5614C25.8445 74.4115 25.7256 74.2337 25.6445 74.0379C25.5635 73.8422 25.5217 73.6324 25.5217 73.4205V73.4205Z" fill="#F2F2F2"/>
<path d="M62.6164 34.0952H36.748C36.0536 34.0961 35.388 34.3724 34.897 34.8634C34.4061 35.3544 34.1299 36.0201 34.1292 36.7145V62.5653C34.1299 63.2597 34.4061 63.9254 34.897 64.4164C35.388 64.9074 36.0536 65.1837 36.748 65.1845H62.6382C63.3251 65.1712 63.9795 64.8898 64.4617 64.4004C64.9438 63.911 65.2154 63.2524 65.2184 62.5653V36.7145C65.2142 36.0241 64.9393 35.3629 64.4527 34.8731C63.9661 34.3833 63.3068 34.104 62.6164 34.0952V34.0952Z" fill="url(#paint1_linear_445_1249)"/>
<path d="M45.4413 55.2827H53.9056V63.7469H45.4413V55.2827ZM35.5664 43.9971H44.0306V35.5328H36.7479C36.4345 35.5328 36.134 35.6573 35.9125 35.8789C35.6909 36.1004 35.5664 36.4009 35.5664 36.7143V43.9971ZM36.7479 63.7469H44.0306V55.2827H35.5664V62.5654C35.5664 62.8788 35.6909 63.1793 35.9125 63.4009C36.134 63.6224 36.4345 63.7469 36.7479 63.7469ZM35.5664 53.872H44.0306V45.4078H35.5664V53.872ZM55.3163 63.7469H62.6167C62.9269 63.7423 63.2229 63.6158 63.4407 63.3947C63.6585 63.1736 63.7805 62.8758 63.7805 62.5655V55.2827H55.3163V63.7469ZM45.4413 53.872H53.9056V45.4078H45.4413V53.872ZM55.3163 53.872H63.7805V45.4078H55.3163V53.872ZM55.3163 35.5328V43.9971H63.7805V36.7143C63.7805 36.404 63.6585 36.1061 63.4407 35.885C63.2229 35.664 62.9269 35.5375 62.6167 35.5328L55.3163 35.5328ZM45.4413 43.9971H53.9056V35.5328H45.4413V43.9971Z" fill="url(#paint2_linear_445_1249)"/>
<path d="M72.9981 46.1455L73.0491 46.2031C73.1404 46.3209 73.1857 46.468 73.1763 46.6168C73.167 46.7656 73.1037 46.9058 72.9983 47.0113L70.9833 49.0273L78.6875 49.0273L78.7589 49.0314C78.9079 49.049 79.0453 49.1206 79.145 49.2327C79.2447 49.3448 79.2997 49.4896 79.2997 49.6396L79.2956 49.7109C79.2781 49.8599 79.2065 49.9973 79.0944 50.097C78.9823 50.1967 78.8375 50.2518 78.6875 50.2518L70.9851 50.2517L72.9985 52.2687L73.0494 52.3264C73.1447 52.4495 73.1896 52.6043 73.1748 52.7594C73.1601 52.9144 73.0868 53.058 72.9699 53.1609C72.853 53.2638 72.7013 53.3183 72.5456 53.3133C72.39 53.3083 72.2421 53.2441 72.1321 53.1339L69.0731 50.0707L69.0222 50.013C68.931 49.8952 68.8859 49.7482 68.8953 49.5995C68.9047 49.4508 68.968 49.3106 69.0733 49.2052L72.1323 46.1455L72.19 46.0946C72.3078 46.0032 72.4549 45.958 72.6036 45.9674C72.7524 45.9767 72.8927 46.04 72.9981 46.1454L73.0491 46.2031L72.9981 46.1455Z" fill="white"/>
<path d="M83.8462 45.4078H77.6752C77.0419 45.4078 76.5286 45.9211 76.5286 46.5544V52.7254C76.5286 53.3586 77.0419 53.872 77.6752 53.872H83.8462C84.4794 53.872 84.9928 53.3586 84.9928 52.7254V46.5544C84.9928 45.9211 84.4794 45.4078 83.8462 45.4078Z" fill="white"/>
<path d="M26.1639 53.1343L26.113 53.0766C26.0216 52.9588 25.9764 52.8117 25.9857 52.6629C25.9951 52.5142 26.0584 52.3739 26.1638 52.2685L28.1788 50.2525L20.4745 50.2524L20.4031 50.2483C20.2541 50.2308 20.1168 50.1592 20.0171 50.0471C19.9174 49.935 19.8623 49.7902 19.8623 49.6402L19.8664 49.5688C19.8839 49.4198 19.9555 49.2824 20.0676 49.1827C20.1797 49.083 20.3245 49.028 20.4745 49.028L28.1769 49.028L26.1636 47.011L26.1127 46.9533C26.0173 46.8302 25.9725 46.6754 25.9873 46.5204C26.002 46.3654 26.0753 46.2218 26.1922 46.1189C26.3091 46.016 26.4608 45.9615 26.6164 45.9665C26.7721 45.9715 26.92 46.0356 27.03 46.1458L30.089 49.209L30.1399 49.2667C30.2311 49.3845 30.2762 49.5316 30.2668 49.6803C30.2574 49.829 30.1941 49.9691 30.0888 50.0745L27.0298 53.1342L26.9721 53.1851C26.8543 53.2765 26.7072 53.3217 26.5584 53.3124C26.4096 53.303 26.2694 53.2397 26.164 53.1343L26.113 53.0766L26.1639 53.1343Z" fill="white"/>
<path d="M21.4868 45.4078H15.3158C14.6825 45.4078 14.1692 45.9211 14.1692 46.5544V52.7254C14.1692 53.3586 14.6825 53.872 15.3158 53.872H21.4868C22.1201 53.872 22.6334 53.3586 22.6334 52.7254V46.5544C22.6334 45.9211 22.1201 45.4078 21.4868 45.4078Z" fill="white"/>
</g>
<defs>
<linearGradient id="paint0_linear_445_1249" x1="47.8697" y1="-15.1531" x2="51.8525" y2="130.615" gradientUnits="userSpaceOnUse">
<stop stop-color="#00ABDE"/>
<stop offset="1" stop-color="#007ED8"/>
</linearGradient>
<linearGradient id="paint1_linear_445_1249" x1="49.6738" y1="64.0687" x2="49.6738" y2="34.7725" gradientUnits="userSpaceOnUse">
<stop stop-color="white"/>
<stop offset="0.56" stop-color="#FBFBFB"/>
<stop offset="1" stop-color="#F2F2F2"/>
</linearGradient>
<linearGradient id="paint2_linear_445_1249" x1="49.6735" y1="35.5328" x2="49.6735" y2="63.7469" gradientUnits="userSpaceOnUse">
<stop stop-color="#008BF1"/>
<stop offset="0.22" stop-color="#0086EC"/>
<stop offset="0.49" stop-color="#0078DD"/>
<stop offset="0.79" stop-color="#0061C4"/>
<stop offset="1" stop-color="#004DAE"/>
</linearGradient>
<clipPath id="clip0_445_1249">
<rect width="99.2799" height="99.28" fill="white"/>
</clipPath>
</defs>
</svg>
