<?xml version="1.0" encoding="UTF-8"?>
<svg width="102px" height="102px" viewBox="0 0 102 102" version="1.1" xmlns="http://www.w3.org/2000/svg" xmlns:xlink="http://www.w3.org/1999/xlink">
    <title>Examine Microsoft Azure security, privacy, compliance and trust/examine-core-identity-services</title>
    <defs>
        <rect id="path-1" x="0" y="0" width="94.3396226" height="94.3396226" rx="47.1698113"></rect>
        <filter x="-2.9%" y="-2.9%" width="106.4%" height="106.4%" filterUnits="objectBoundingBox" id="filter-3">
            <feMorphology radius="2.5" operator="dilate" in="SourceAlpha" result="shadowSpreadOuter1"></feMorphology>
            <feOffset dx="0.5" dy="0.5" in="shadowSpreadOuter1" result="shadowOffsetOuter1"></feOffset>
            <feMorphology radius="1" operator="erode" in="SourceAlpha" result="shadowInner"></feMorphology>
            <feOffset dx="0.5" dy="0.5" in="shadowInner" result="shadowInner"></feOffset>
            <feComposite in="shadowOffsetOuter1" in2="shadowInner" operator="out" result="shadowOffsetOuter1"></feComposite>
            <feColorMatrix values="0 0 0 0 0.821822822   0 0 0 0 0.831640661   0 0 0 0 0.835737288  0 0 0 1 0" type="matrix" in="shadowOffsetOuter1"></feColorMatrix>
        </filter>
        <linearGradient x1="77.8299825%" y1="11.1997378%" x2="-99.6885927%" y2="253.807911%" id="linearGradient-4">
            <stop stop-color="#FFFFFF" offset="0%"></stop>
            <stop stop-color="#000000" stop-opacity="0.5" offset="100%"></stop>
        </linearGradient>
        <rect id="path-5" x="0" y="0" width="94.3396226" height="94.3396226"></rect>
        <rect id="path-6" x="0" y="0" width="94.3396226" height="94.3396226"></rect>
        <path d="M48.1132075,0.739331515 C74.2770768,0.739331515 95.4870836,21.9493383 95.4870836,48.1132075 C95.4870836,74.2770768 74.2770768,95.4870836 48.1132075,95.4870836 C21.9493383,95.4870836 0.739331515,74.2770768 0.739331515,48.1132075 C0.739331515,21.9493383 21.9493383,0.739331515 48.1132075,0.739331515 Z M48.1132075,4.71698113 C24.1461335,4.71698113 4.71698113,24.1461335 4.71698113,48.1132075 C4.71698113,72.0802816 24.1461335,91.509434 48.1132075,91.509434 C72.0802816,91.509434 91.509434,72.0802816 91.509434,48.1132075 C91.509434,24.1461335 72.0802816,4.71698113 48.1132075,4.71698113 Z" id="path-7"></path>
        <linearGradient x1="50%" y1="0%" x2="50%" y2="100%" id="linearGradient-9">
            <stop stop-color="#BAE5E0" offset="0%"></stop>
            <stop stop-color="#6FC8BF" offset="100%"></stop>
        </linearGradient>
        <linearGradient x1="50%" y1="0%" x2="50%" y2="100%" id="linearGradient-10">
            <stop stop-color="#E8F6FE" offset="0%"></stop>
            <stop stop-color="#B6E5F9" offset="100%"></stop>
        </linearGradient>
        <linearGradient x1="50%" y1="0%" x2="50%" y2="100%" id="linearGradient-11">
            <stop stop-color="#E8F6FE" offset="0%"></stop>
            <stop stop-color="#B6E5F9" offset="100%"></stop>
        </linearGradient>
        <linearGradient x1="50%" y1="125.699103%" x2="50%" y2="6.86796686%" id="linearGradient-12">
            <stop stop-color="#198AB3" offset="0%"></stop>
            <stop stop-color="#198AB3" offset="0%"></stop>
            <stop stop-color="#22A5CB" offset="11%"></stop>
            <stop stop-color="#29BADE" offset="23%"></stop>
            <stop stop-color="#2EC9EB" offset="37%"></stop>
            <stop stop-color="#31D1F3" offset="53%"></stop>
            <stop stop-color="#32D4F5" offset="100%"></stop>
        </linearGradient>
        <linearGradient x1="50%" y1="125.699103%" x2="50%" y2="6.86796686%" id="linearGradient-13">
            <stop stop-color="#198AB3" offset="0%"></stop>
            <stop stop-color="#198AB3" offset="0%"></stop>
            <stop stop-color="#22A5CB" offset="11%"></stop>
            <stop stop-color="#29BADE" offset="23%"></stop>
            <stop stop-color="#2EC9EB" offset="37%"></stop>
            <stop stop-color="#31D1F3" offset="53%"></stop>
            <stop stop-color="#32D4F5" offset="100%"></stop>
        </linearGradient>
    </defs>
    <g id="Badges" stroke="none" stroke-width="1" fill="none" fill-rule="evenodd">
        <g id="Examine-Microsoft-Azure-security,-privacy,-compliance-and-trust" transform="translate(-159.000000, -509.000000)">
            <g id="Examine-Microsoft-Azure-security,-privacy,-compliance-and-trust/examine-core-identity-services" transform="translate(160.000000, 510.000000)">
                <g id="Badge-Plates/Circle">
                    <g id="BG" transform="translate(2.830189, 2.830189)">
                        <mask id="mask-2" fill="white">
                            <use xlink:href="#path-1"></use>
                        </mask>
                        <g>
                            <use fill="black" fill-opacity="1" filter="url(#filter-3)" xlink:href="#path-1"></use>
                            <rect stroke="#F2F1F0" stroke-width="2.5" x="-1.25" y="-1.25" width="96.8396226" height="96.8396226" rx="48.4198113"></rect>
                        </g>
                        <g id="Colors/Azure/BG-Solid-Badges" mask="url(#mask-2)">
                            <g id="Rectangle">
                                <use fill="#0078D4" xlink:href="#path-5"></use>
                                <use fill-opacity="0.4" fill="url(#linearGradient-4)" xlink:href="#path-5"></use>
                            </g>
                            <g id="Rectangle-Copy">
                                <use fill="#0078D4" xlink:href="#path-6"></use>
                                <use fill-opacity="0.4" fill="url(#linearGradient-4)" xlink:href="#path-6"></use>
                            </g>
                        </g>
                    </g>
                    <g id="Border" transform="translate(1.886792, 1.886792)">
                        <mask id="mask-8" fill="white">
                            <use xlink:href="#path-7"></use>
                        </mask>
                        <use id="Boarder" fill="#0078D4" fill-rule="nonzero" xlink:href="#path-7"></use>
                        <g id="Colors/Azure/Border" mask="url(#mask-8)" fill="#27C0F5">
                            <g transform="translate(-1.886792, -1.886792)" id="Rectangle">
                                <rect x="0" y="0" width="100" height="100"></rect>
                            </g>
                        </g>
                    </g>
                </g>
                <g id="Group-3" transform="translate(10.213095, 10.739351)" fill-rule="nonzero">
                    <g id="Group-13" transform="translate(40.000000, 40.000000) rotate(-8.000000) translate(-40.000000, -40.000000) translate(5.000000, 5.000000)">
                        <path d="M2.65458412,54.3333777 L19.2431824,53.8571626 C19.5909786,53.8471783 19.8810169,54.1210289 19.8910012,54.468825 C19.8911947,54.4755638 19.8912799,54.4823054 19.891257,54.489047 L19.860417,63.5519006 C19.8592899,63.8830966 19.601913,64.1568692 19.2714171,64.1784215 L3.00857192,65.2389531 L3.00857192,65.2389531 L2.38462539,59.8739194 L2.65458412,54.3333777 Z" id="Rectangle" fill="url(#linearGradient-9)" transform="translate(11.139048, 59.538724) rotate(-45.000000) translate(-11.139048, -59.538724) "></path>
                        <path d="M35.4610768,0.255960843 C54.5149007,0.255960843 69.9610768,15.2544217 69.9610768,33.7559608 C69.9610768,52.2575 54.5149007,67.2559608 35.4610768,67.2559608 C16.407253,67.2559608 0.961076842,52.2575 0.961076842,33.7559608 C0.961076842,15.2544217 16.407253,0.255960843 35.4610768,0.255960843 Z M35.4610768,7.64178761 C20.608096,7.64178761 8.56737605,19.3335012 8.56737605,33.7559608 C8.56737605,48.1784205 20.608096,59.8701341 35.4610768,59.8701341 C50.3140577,59.8701341 62.3547776,48.1784205 62.3547776,33.7559608 C62.3547776,19.3335012 50.3140577,7.64178761 35.4610768,7.64178761 Z" id="Combined-Shape" fill="url(#linearGradient-10)"></path>
                    </g>
                </g>
                <g id="Icon-identity-235-Identity-Governance" transform="translate(31.000000, 29.000000)" fill-rule="nonzero">
                    <path d="M5.22256128,25.1967712 C3.21764159,20.200045 4.00996384,14.5209732 7.3068589,10.2572994 C6.66577656,9.83318292 6.15961391,9.23571696 5.84785057,8.53511029 C1.80721062,13.5870611 0.871154105,20.4365422 3.40922235,26.3794794 C3.94244625,25.8863919 4.55551972,25.486529 5.22256128,25.1967712 L5.22256128,25.1967712 Z M13.1220493,3.18179956 C13.6591459,3.7242924 14.0965241,4.35634182 14.4143138,5.04923353 C16.048133,4.47320878 17.7668075,4.17168937 19.5,4.15701508 C22.7394083,4.14157934 25.8999018,5.15158737 28.5250087,7.04116311 C28.8035891,6.49016228 29.1939298,6.00266389 29.6713724,5.60946373 L29.6713724,5.60946373 L29.9214881,5.42272033 C25.0761543,1.86233052 18.7380123,1.01686929 13.1220493,3.18179956 L13.1220493,3.18179956 Z M33.7774387,13.8054239 C35.7829935,18.7951967 34.9903642,24.4685791 31.6931411,28.7241465 C32.0312875,28.955393 32.3332919,29.2350643 32.5893891,29.5541171 C32.8154292,29.8256961 33.0046361,30.1256708 33.1521494,30.4463356 C37.1927894,25.3943848 38.1288459,18.5449037 35.5907777,12.6019665 C35.0583904,13.1014992 34.4453927,13.5083271 33.7774387,13.8054239 L33.7774387,13.8054239 Z M24.5856862,34.0152094 C22.9494617,34.5726695 21.229254,34.8463846 19.5,34.8244308 L19.5,34.8244308 C16.2603691,34.8413054 13.0994379,33.8311575 10.4749913,31.9402828 C10.2017953,32.4946972 9.81061349,32.9832461 9.3286276,33.3719821 L9.3286276,33.3719821 L9.07851188,33.5587255 C13.940926,37.133335 20.3011128,37.9864172 25.9404797,35.8203956 C25.3866697,35.3018517 24.928172,34.6909292 24.5856862,34.0152094 L24.5856862,34.0152094 Z" id="Shape" fill="url(#linearGradient-11)" transform="translate(19.500000, 19.500000) rotate(-5.000000) translate(-19.500000, -19.500000) "></path>
                    <path d="M11.7296641,4.36642959 C13.4479802,6.13744051 13.4195457,8.96189856 11.6659229,10.6979565 C9.91230015,12.4340145 7.08769985,12.4340145 5.33407709,10.6979565 C3.58045433,8.96189856 3.55201976,6.13744051 5.27033593,4.36642959 C6.11781939,3.49295677 7.28296158,3 8.5,3 C9.71703842,3 10.8821806,3.49295677 11.7296641,4.36642959 Z" id="Path" fill="#32BEDD"></path>
                    <path d="M10.2380642,9.2542589 C10.7245528,8.79419522 11,8.15550854 11,7.48753839 C11,6.81956824 10.7245528,6.18088156 10.2380642,5.72081788 C9.77841572,5.25949024 9.15272274,5 8.5,5 C7.84727726,5 7.22158428,5.25949024 6.76193583,5.72081788 C6.27544723,6.18088156 6,6.81956824 6,7.48753839 C6,8.15550854 6.27544723,8.79419522 6.76193583,9.2542589 L6.76193583,9.2542589 C7.22333858,9.73079063 7.85960947,10 8.52447978,10 C9.18935009,10 9.82562097,9.73079063 10.2870237,9.2542589" id="Path" fill="#FFFFFF"></path>
                    <path d="M28.3198869,4.27033593 C30.1016958,2.55201976 32.9433749,2.58045433 34.6900178,4.33407709 C36.4366607,6.08769985 36.4366607,8.91230015 34.6900178,10.6659229 C32.9433749,12.4195457 30.1016958,12.4479802 28.3198869,10.7296641 C26.5600377,8.97371988 26.5600377,6.13393559 28.3198869,4.3779914 L28.3198869,4.27033593 Z" id="Path" fill="#32BEDD"></path>
                    <path d="M33.2218722,5.68750159 C32.2329321,4.74801087 30.6734468,4.77466633 29.7171915,5.74740524 C28.7609362,6.72014415 28.7609362,8.27985585 29.7171915,9.25259476 C30.6734468,10.2253337 32.2329321,10.2519891 33.2218722,9.31249841 L33.2218722,9.31249841 C33.7186992,8.84051391 34,8.18527808 34,7.5 C34,6.81472192 33.7186992,6.15948609 33.2218722,5.68750159" id="Path" fill="#FFFFFF"></path>
                    <path d="M28.2703359,34.6335704 C26.5520198,32.8625595 26.5804543,30.0381014 28.3340771,28.3020435 C30.0876999,26.5659855 32.9123001,26.5659855 34.6659229,28.3020435 C36.4195457,30.0381014 36.4479802,32.8625595 34.7296641,34.6335704 C33.8821806,35.5070432 32.7170384,36 31.5,36 C30.2829616,36 29.1178194,35.5070432 28.2703359,34.6335704 L28.2703359,34.6335704 Z" id="Path" fill="#32BEDD"></path>
                    <path d="M29.7545474,29.7420423 C29.2727762,30.1998241 29,30.8353429 29,31.5 C29,32.1646571 29.2727762,32.8001759 29.7545474,33.2579577 C30.2114759,33.7321259 30.8415769,34 31.5,34 C32.1584231,34 32.7885241,33.7321259 33.2454526,33.2579577 C33.7272238,32.8001759 34,32.1646571 34,31.5 C34,30.8353429 33.7272238,30.1998241 33.2454526,29.7420423 L33.2454526,29.7420423 C32.7885241,29.2678741 32.1584231,29 31.5,29 C30.8415769,29 30.2114759,29.2678741 29.7545474,29.7420423" id="Path" fill="#FFFFFF"></path>
                    <path d="M10.6881119,34.6757431 C9.40249065,35.966295 7.46560053,36.3544684 5.78193473,35.6589933 C4.09826892,34.9635183 3,33.3216059 3,31.5 C3,29.6783941 4.09826892,28.0364817 5.78193473,27.3410067 C7.46560053,26.6455316 9.40249065,27.033705 10.6881119,28.3242569 C12.437296,30.0801495 12.437296,32.9198505 10.6881119,34.6757431 L10.6881119,34.6757431 Z" id="Path" fill="#32BEDD"></path>
                    <path d="M5.77812784,33.3124984 C6.76706793,34.2519891 8.32655321,34.2253337 9.28280852,33.2525948 C10.2390638,32.2798559 10.2390638,30.7201441 9.28280852,29.7474052 C8.32655321,28.7746663 6.76706793,28.7480109 5.77812784,29.6875016 L5.77812784,29.6875016 C5.2813008,30.1594861 5,30.8147219 5,31.5 C5,32.1852781 5.2813008,32.8405139 5.77812784,33.3124984" id="Path" fill="#FFFFFF"></path>
                    <path d="M25.0328167,26.5598592 C25.721342,26.5598592 26.2795021,25.9686676 26.2795021,25.2393959 L26.2795021,25.0830252 C25.8366007,20.9478901 23.5564787,17.5598592 19.2750985,17.5598592 C14.9937183,17.5598592 12.7135963,20.4266545 12.2870986,25.1003997 C12.2504004,25.450996 12.3476667,25.8025699 12.5572121,26.0767387 C12.7667575,26.3509075 13.0711602,26.5248763 13.402554,26.5598592 L25.0328167,26.5598592 Z" id="Path" fill="url(#linearGradient-12)"></path>
                    <path d="M19.3028484,18.2404562 C18.5857298,18.240825 17.8835481,18.0046307 17.2795021,17.5598592 L19.3028484,23.5598592 L21.2795021,17.6852323 C20.6788815,18.0798956 19.993937,18.2722902 19.3028484,18.2404562 Z" id="Path" fill="#FFFFFF" opacity="0.8"></path>
                    <circle id="Oval" fill="url(#linearGradient-13)" cx="19.2795021" cy="14.5598592" r="4"></circle>
                </g>
                <g id="Group-13" transform="translate(50.216547, 50.796102) rotate(-8.000000) translate(-50.216547, -50.796102) translate(15.216547, 15.796102)" fill-rule="nonzero">
                    <path d="M2.65458412,54.3333777 L19.2431824,53.8571626 C19.5909786,53.8471783 19.8810169,54.1210289 19.8910012,54.468825 C19.8911947,54.4755638 19.8912799,54.4823054 19.891257,54.489047 L19.860417,63.5519006 C19.8592899,63.8830966 19.601913,64.1568692 19.2714171,64.1784215 L3.00857192,65.2389531 L3.00857192,65.2389531 L2.38462539,59.8739194 L2.65458412,54.3333777 Z" id="Rectangle" fill="url(#linearGradient-9)" transform="translate(11.139048, 59.538724) rotate(-45.000000) translate(-11.139048, -59.538724) "></path>
                    <path d="M35.4610768,0.255960843 C54.5149007,0.255960843 69.9610768,15.2544217 69.9610768,33.7559608 C69.9610768,52.2575 54.5149007,67.2559608 35.4610768,67.2559608 C16.407253,67.2559608 0.961076842,52.2575 0.961076842,33.7559608 C0.961076842,15.2544217 16.407253,0.255960843 35.4610768,0.255960843 Z M35.4610768,7.64178761 C20.608096,7.64178761 8.56737605,19.3335012 8.56737605,33.7559608 C8.56737605,48.1784205 20.608096,59.8701341 35.4610768,59.8701341 C50.3140577,59.8701341 62.3547776,48.1784205 62.3547776,33.7559608 C62.3547776,19.3335012 50.3140577,7.64178761 35.4610768,7.64178761 Z" id="Combined-Shape" fill="url(#linearGradient-10)"></path>
                </g>
            </g>
        </g>
    </g>
</svg>