<svg width="103" height="103" viewBox="0 0 103 103" fill="none" xmlns="http://www.w3.org/2000/svg">
<path d="M51.7626 98.0916C77.6126 98.0916 98.5726 77.1416 98.5726 51.2816C98.5726 25.4216 77.6126 4.47162 51.7626 4.47162C25.9126 4.47162 4.95264 25.4316 4.95264 51.2816C4.95264 77.1316 25.9126 98.0916 51.7626 98.0916Z" fill="url(#paint0_linear)"/>
<path fill-rule="evenodd" clip-rule="evenodd" d="M51.7627 1.28162C24.1527 1.28162 1.7627 23.6716 1.7627 51.2816C1.7627 78.8916 24.1527 101.282 51.7627 101.282C79.3727 101.282 101.763 78.8916 101.763 51.2816C101.763 23.6716 79.3727 1.28162 51.7627 1.28162ZM51.7627 97.0416C26.4927 97.0416 6.0027 76.5516 6.0027 51.2816C6.0027 26.0116 26.4927 5.52162 51.7627 5.52162C77.0327 5.52162 97.5227 26.0116 97.5227 51.2816C97.5227 76.5516 77.0327 97.0416 51.7627 97.0416Z" fill="#D9D9D9"/>
<path fill-rule="evenodd" clip-rule="evenodd" d="M5.8628 51.2816C5.8628 76.6316 26.4128 97.1816 51.7628 97.1816C77.1128 97.1816 97.6628 76.6316 97.6628 51.2816C97.6628 25.9316 77.1128 5.3816 51.7628 5.3816C26.4128 5.3816 5.8628 25.9316 5.8628 51.2816ZM51.7628 1.6416C24.3428 1.6416 2.1228 23.8616 2.1228 51.2816C2.1228 78.7016 24.3528 100.922 51.7628 100.922C79.1828 100.922 101.403 78.6916 101.403 51.2816C101.403 23.8616 79.1828 1.6416 51.7628 1.6416Z" fill="#F2F1F0"/>
<path fill-rule="evenodd" clip-rule="evenodd" d="M8.67262 51.2816C8.67262 75.0816 27.9626 94.3716 51.7626 94.3716C75.5626 94.3716 94.8526 75.0816 94.8526 51.2816C94.8526 27.4816 75.5626 8.1916 51.7626 8.1916C27.9626 8.1916 8.67262 27.4816 8.67262 51.2816ZM51.7626 4.4516C25.9026 4.4516 4.93262 25.4216 4.93262 51.2816C4.93262 77.1416 25.9026 98.1116 51.7626 98.1116C77.6226 98.1116 98.5926 77.1416 98.5926 51.2816C98.5926 25.4216 77.6326 4.4516 51.7626 4.4516Z" fill="#0078D4"/>
<path d="M23.2226 66.3515C17.5226 66.3515 12.8926 61.6915 12.8926 55.9715C12.8926 50.7315 16.7326 46.4215 21.7526 45.7415C21.3526 44.1215 21.1226 42.4015 21.1226 40.6515C21.1726 29.1715 30.3826 19.9215 41.7826 19.9215C49.6326 19.9215 56.4526 24.3815 59.9426 30.8915C61.6526 30.0615 63.6026 29.5715 65.6426 29.5715C72.7626 29.5715 78.5526 35.4015 78.5526 42.5415C78.5526 43.6215 78.4026 44.6915 78.1526 45.7315C78.5526 45.6815 78.9326 45.6815 79.3226 45.6815C84.9726 45.6315 89.6026 50.2415 89.6026 55.9615C89.6026 61.6815 84.9826 66.3415 79.2726 66.3415H23.2226V66.3515Z" fill="#F2F1F0"/>
<g opacity="0.1028">
<path opacity="0.1028" d="M45.5727 77.8015C53.8901 77.8015 60.6327 75.2182 60.6327 72.0315C60.6327 68.8448 53.8901 66.2615 45.5727 66.2615C37.2553 66.2615 30.5127 68.8448 30.5127 72.0315C30.5127 75.2182 37.2553 77.8015 45.5727 77.8015Z" fill="black"/>
</g>
<path fill-rule="evenodd" clip-rule="evenodd" d="M45.5927 68.1615C37.2727 68.1615 30.5227 65.7015 30.5227 62.6015V70.0315C30.5227 73.1215 37.2727 75.6415 45.5927 75.6415C53.9127 75.6415 60.6627 73.1315 60.6627 70.0315V62.5515C60.6627 65.6415 53.9127 68.1615 45.5927 68.1615Z" fill="#185A97"/>
<path fill-rule="evenodd" clip-rule="evenodd" d="M45.5927 70.6315V73.1215C45.5927 73.8415 44.9927 74.4015 44.2727 74.3815C36.5527 74.1315 30.5027 71.7315 30.5027 68.7915V70.0515C30.5027 73.1415 37.2527 75.6615 45.5727 75.6615C53.8927 75.6615 60.6427 73.1515 60.6427 70.0515V63.8015C60.6427 66.7615 54.5327 69.1815 46.7727 69.4115C46.1327 69.4015 45.5927 69.9615 45.5927 70.6315Z" fill="#45CAF2"/>
<path fill-rule="evenodd" clip-rule="evenodd" d="M60.5827 62.6115C60.5827 65.7215 53.8727 68.2415 45.5927 68.2415C37.3127 68.2415 30.5227 65.7215 30.5227 62.6115C30.5227 59.5015 37.3127 56.9915 45.5927 56.9915C53.8727 56.9915 60.5827 59.4915 60.5827 62.6115Z" fill="#0078D4"/>
<path d="M45.5927 68.3015C37.2927 68.3015 30.5227 65.7415 30.5227 62.6115C30.5227 59.4715 37.2927 56.9215 45.5927 56.9215C53.8927 56.9215 60.6427 59.4715 60.6427 62.6115C60.6427 65.7515 53.8927 68.3015 45.5927 68.3015ZM45.5927 57.0415C37.3627 57.0415 30.5227 59.5315 30.5227 62.6015C30.5227 65.6715 37.3627 68.1715 45.5927 68.1715C53.8227 68.1715 60.5227 65.6715 60.5227 62.6015C60.5227 59.5415 53.8227 57.0415 45.5927 57.0415Z" fill="#185A97"/>
<path d="M45.5727 68.8415C37.1727 68.8415 30.5227 66.0815 30.5227 62.6115C30.5227 59.1415 37.1727 56.4615 45.5727 56.4615C53.9727 56.4815 60.5427 59.2015 60.5427 62.6515C60.5427 66.1215 53.9727 68.8415 45.5727 68.8415ZM45.5727 57.5815C37.2927 57.5815 31.7327 60.2015 31.7327 62.6415C31.7327 65.0815 37.2927 67.7015 45.5727 67.7015C53.8527 67.7015 59.4127 65.0815 59.4127 62.6415C59.4127 60.2215 53.8527 57.6015 45.5727 57.5815Z" fill="#185A97"/>
<path fill-rule="evenodd" clip-rule="evenodd" d="M45.5927 57.5415C37.2727 57.5415 30.5227 55.0315 30.5227 51.9315V59.4115C30.5227 62.5015 37.2727 65.0215 45.5927 65.0215C53.9127 65.0215 60.6627 62.5115 60.6627 59.4115V51.9315C60.6627 55.0315 53.9127 57.5415 45.5927 57.5415Z" fill="#32B0E7"/>
<path fill-rule="evenodd" clip-rule="evenodd" d="M45.6628 60.1615V62.6515C45.6628 63.3715 45.0628 63.9315 44.3428 63.9115C36.6228 63.6615 30.5728 61.2615 30.5728 58.3215V59.5815C30.5728 62.6715 37.3228 65.1915 45.6428 65.1915C53.9628 65.1915 60.7128 62.6815 60.7128 59.5815V53.3115C60.7128 56.2715 54.6028 58.6915 46.8428 58.9215C46.2028 58.9415 45.6628 59.4815 45.6628 60.1615Z" fill="#C3F1FF"/>
<path fill-rule="evenodd" clip-rule="evenodd" d="M60.6627 51.9915C60.6627 55.1015 53.8727 57.6215 45.5927 57.6215C37.3127 57.6215 30.5227 55.1115 30.5227 51.9915C30.5227 48.8715 37.3127 46.3615 45.5927 46.3615C53.8727 46.3615 60.6627 48.8815 60.6627 51.9915Z" fill="#BAC0C2"/>
<path d="M60.6627 51.9915C60.6627 55.1015 53.8727 57.6215 45.5927 57.6215C37.3127 57.6215 30.5227 55.1115 30.5227 51.9915C30.5227 48.8715 37.3127 46.3615 45.5927 46.3615C53.8727 46.3615 60.6627 48.8815 60.6627 51.9915Z" fill="#2195DC"/>
<path d="M45.5727 58.3415C37.1727 58.3415 30.5227 55.6215 30.5227 52.1515C30.5227 48.6815 37.1727 45.9615 45.5727 45.9615C53.9727 45.9815 60.6527 48.7015 60.6527 52.1515C60.6627 55.6215 53.9727 58.3415 45.5727 58.3415ZM45.5727 47.0815C37.2927 47.0815 31.7327 49.7015 31.7327 52.1415C31.7327 54.5915 37.2927 57.2015 45.5727 57.2015C53.8527 57.2015 59.4127 54.5815 59.4127 52.1415C59.4127 49.7115 53.8527 47.1015 45.5727 47.0815Z" fill="#32B0E7"/>
<path fill-rule="evenodd" clip-rule="evenodd" d="M45.5927 46.9215C37.2727 46.9215 30.5227 44.2615 30.5227 41.1615V48.7915C30.5227 51.8815 37.2727 54.4015 45.5927 54.4015C53.9127 54.4015 60.6627 51.8915 60.6627 48.7915L60.6227 41.3615C60.6227 41.7515 60.1327 42.1815 59.9327 42.5415C58.5227 45.0815 52.8727 46.9215 45.5927 46.9215Z" fill="#50E6FF"/>
<path fill-rule="evenodd" clip-rule="evenodd" d="M45.5927 49.4015V51.8915C45.5927 52.6115 44.9927 53.1715 44.2727 53.1515C36.5527 52.9015 30.5027 50.5015 30.5027 47.5615V48.8215C30.5027 51.9115 37.2527 54.4315 45.5727 54.4315C53.8927 54.4315 60.6427 51.9215 60.6427 48.8215V42.5715C60.6427 45.5315 54.5327 47.9515 46.7727 48.1815C46.1327 48.1815 45.5927 48.7415 45.5927 49.4015Z" fill="white"/>
<path fill-rule="evenodd" clip-rule="evenodd" d="M59.9826 41.3515C59.9826 44.4615 53.5426 46.9815 45.5726 46.9815C37.6226 46.9815 31.1626 44.4715 31.1626 41.3515C31.1626 38.2415 37.6026 35.7215 45.5726 35.7215C53.5426 35.7515 59.9826 38.2615 59.9826 41.3515Z" fill="#C3F1FF"/>
<path d="M45.5727 47.5515C38.3727 47.5515 32.3127 45.5915 30.7927 42.8315C30.5427 42.3715 30.5327 41.8615 30.5327 41.3615C30.5327 37.8915 37.1827 35.1715 45.5827 35.1715C53.9827 35.1915 60.6427 38.0015 60.6427 41.4515C60.6327 44.9115 53.9727 47.5515 45.5727 47.5515ZM45.5727 36.2915C37.2927 36.2915 31.7327 38.9115 31.7327 41.3515C31.7327 43.8015 37.2927 46.4115 45.5727 46.4115C53.8527 46.4115 59.4127 43.7915 59.4127 41.3515C59.4127 38.9315 53.8527 36.3115 45.5727 36.2915Z" fill="#50E6FF"/>
<path d="M80.4927 36.9315H67.9527C67.1927 36.9315 66.5627 37.5515 66.5627 38.3215V45.7415C66.5627 46.5015 67.1827 47.1315 67.9527 47.1315H80.4927C81.2527 47.1315 81.8827 46.5115 81.8827 45.7415V38.3215C81.8827 37.5515 81.2627 36.9315 80.4927 36.9315Z" fill="url(#paint1_linear)"/>
<path d="M74.2828 42.6915C74.6528 42.6915 74.9428 42.4015 74.9428 42.0315C74.9428 41.6615 74.6528 41.3715 74.2828 41.3715C73.9128 41.3715 73.6228 41.6615 73.6228 42.0315C73.6228 42.3915 73.9228 42.6915 74.2828 42.6915Z" fill="white"/>
<path d="M74.2826 38.9515C72.5826 38.9515 71.2026 40.3315 71.2026 42.0315C71.2026 43.7315 72.5826 45.1115 74.2826 45.1115C75.9826 45.1115 77.3626 43.7315 77.3626 42.0315C77.3626 40.3315 75.9826 38.9515 74.2826 38.9515ZM74.2826 44.5115C72.9226 44.5115 71.8026 43.4115 71.8026 42.0315C71.8026 40.6515 72.9126 39.5515 74.2826 39.5515C75.6426 39.5515 76.7726 40.6515 76.7726 42.0315C76.7726 43.4115 75.6626 44.5115 74.2826 44.5115Z" fill="#84ECFD"/>
<path d="M81.8128 50.4815C81.8128 50.0015 81.4228 49.6115 80.9428 49.6115H67.4428C66.9628 49.6115 66.5728 50.0015 66.5728 50.4815C66.5728 50.9615 66.9628 51.3515 67.4428 51.3515H80.9428C81.4228 51.3515 81.8128 50.9615 81.8128 50.4815Z" fill="#50E6FF"/>
<path d="M69.8228 50.4815C69.8228 51.4415 70.6028 52.2115 71.5528 52.2115C72.5128 52.2115 73.2828 51.4315 73.2828 50.4815C73.2828 49.5215 72.5028 48.7515 71.5528 48.7515C70.6028 48.7515 69.8228 49.5215 69.8228 50.4815Z" fill="url(#paint2_linear)"/>
<path d="M81.8128 54.8915C81.8128 54.4115 81.4228 54.0215 80.9428 54.0215H67.4428C66.9628 54.0215 66.5728 54.4115 66.5728 54.8915C66.5728 55.3715 66.9628 55.7615 67.4428 55.7615H80.9428C81.4228 55.7615 81.8128 55.3715 81.8128 54.8915Z" fill="#45CAF2"/>
<path d="M75.0427 54.8915C75.0427 55.8515 75.8227 56.6215 76.7727 56.6215C77.7227 56.6215 78.5027 55.8415 78.5027 54.8915C78.5027 53.9315 77.7227 53.1615 76.7727 53.1615C75.8227 53.1615 75.0427 53.9315 75.0427 54.8915Z" fill="url(#paint3_linear)"/>
<path d="M81.8128 59.5515C81.8128 59.0715 81.4228 58.6815 80.9428 58.6815H67.4428C66.9628 58.6815 66.5728 59.0715 66.5728 59.5515C66.5728 60.0315 66.9628 60.4215 67.4428 60.4215H80.9428C81.4228 60.4215 81.8128 60.0415 81.8128 59.5515Z" fill="#45CAF2"/>
<path d="M69.8828 59.5515C69.8828 60.5115 70.6628 61.2815 71.6128 61.2815C72.5728 61.2815 73.3428 60.5015 73.3428 59.5515C73.3428 58.5915 72.5628 57.8215 71.6128 57.8215C70.6628 57.8115 69.8828 58.5915 69.8828 59.5515Z" fill="url(#paint4_linear)"/>
<defs>
<linearGradient id="paint0_linear" x1="57.7211" y1="166.114" x2="48.3668" y2="-14.1699" gradientUnits="userSpaceOnUse">
<stop offset="0.1754" stop-color="#0078D4"/>
<stop offset="0.82" stop-color="#5EA0EF"/>
</linearGradient>
<linearGradient id="paint1_linear" x1="73.9423" y1="34.0888" x2="74.9941" y2="63.5399" gradientUnits="userSpaceOnUse">
<stop stop-color="#15548F"/>
<stop offset="0.4179" stop-color="#243A5E"/>
<stop offset="0.9677" stop-color="#1A2C45"/>
</linearGradient>
<linearGradient id="paint2_linear" x1="74.0564" y1="44.1362" x2="57.4025" y2="86.3845" gradientUnits="userSpaceOnUse">
<stop stop-color="#15548F"/>
<stop offset="0.4179" stop-color="#243A5E"/>
<stop offset="0.9677" stop-color="#1A2C45"/>
</linearGradient>
<linearGradient id="paint3_linear" x1="80.0798" y1="46.5105" x2="63.4259" y2="88.7589" gradientUnits="userSpaceOnUse">
<stop stop-color="#15548F"/>
<stop offset="0.4179" stop-color="#243A5E"/>
<stop offset="0.9677" stop-color="#1A2C45"/>
</linearGradient>
<linearGradient id="paint4_linear" x1="77.2024" y1="45.3763" x2="60.5485" y2="87.6246" gradientUnits="userSpaceOnUse">
<stop stop-color="#15548F"/>
<stop offset="0.4179" stop-color="#243A5E"/>
<stop offset="0.9677" stop-color="#1A2C45"/>
</linearGradient>
</defs>
</svg>
