<svg width="181" height="191" viewBox="0 0 181 191" fill="none" xmlns="http://www.w3.org/2000/svg"><path d="M90.9655 189.241c3.06 0 6.07-.85 8.73-2.47l61.9695-37.66c5.54-3.37 8.97-9.7 8.97-16.54V57.8613c0-6.82-3.43-13.16-8.97-16.54L99.6955 3.66128c-5.33-3.240005-12.15-3.220005-17.45 0l-61.97 37.68002c-5.54 3.37-8.99 9.7-8.99 16.54v74.6997c0 5.76 2.45 11.18 6.55 14.75v.03l64.41 39.43c2.64 1.6 5.66 2.45 8.72 2.45zm.65-181.04972c1.95 0 4.43 1.20999 6.14 2.26002l60.7595 37.19c3.75 2.28 5.87 8.88 5.87 13.63l-.63 71.2997c0 4.75-3.2 9.02-6.95 11.3l-60.3995 36.38c-3.43 2.09-6.22 2.09-9.66 0l-61.21-36.47c-3.75-2.28-6.77-6.48-6.77-11.21V58.9313c0-4.74 2.73-9.63 6.5-11.92l60.58-36.56c1.7-1.04003 3.82-2.26002 5.77-2.26002z" fill="#F2F1F0"/><path fill-rule="evenodd" clip-rule="evenodd" d="M98.8654 11.771c-2.45-1.5-5.1699-2.25-7.8999-2.25-2.73 0-5.4501.76-7.9001 2.25l-56.13 34.33c-5.02 3.07-8.1299 8.82-8.1299 15.07v68.1c0 6.23 3.0999 12 8.1299 15.07l56.13 34.33c2.45 1.5 5.1701 2.25 7.9001 2.25 2.73 0 5.4499-.74 7.8999-2.25l56.1296-34.33c5.02-3.07 8.13-8.84 8.13-15.07v-68.1c0-6.23-3.1-11.98-8.13-15.07l-56.1296-34.33z" fill="url(#paint0_linear_20824)"/><path fill-rule="evenodd" clip-rule="evenodd" d="M90.9655 10.9912c1.68 0 3.5699.87 5.6299 2.12l58.4696 35.54c3.65 2.22 6.06 6.49 6.06 11.32v70.4798c0 4.82-2.41 9.1-6.06 11.32l-58.4595 35.54c-1.96 1.19-3.8801 1.94-5.6301 1.94-1.75 0-3.67-.75-5.63-1.94l-58.48-35.53c-2.01-1.23-3.46-2.43-4.44-4.04-.98-1.6-1.6199-3.82-1.6199-7.28V59.9812c0-4.83 2.4099-9.1 6.0599-11.32l58.4601-35.54c2.09-1.25 3.95-2.13 5.64-2.13zm7.7099 169.7498l58.4596-35.54c4.92-2.99 7.98-8.61 7.98-14.74V59.9812c0-6.13-3.06-11.75-7.98-14.74L98.6754 9.70121c-2.11-1.28-4.8199-2.71-7.7099-2.71-2.9 0-5.61 1.44-7.7 2.7h-.0101l-58.47 35.54999c-4.92 2.99-7.9799 8.61-7.9799 14.74v70.4798c0 3.96.74 6.95 2.2 9.36 1.46 2.4 3.5199 4 5.7799 5.37l58.4601 35.54c2.22 1.35 4.8899 2.53 7.7099 2.53 2.82 0 5.5-1.17 7.72-2.52z" fill="url(#paint1_linear_20824)"/><path opacity=".1" d="M144.901 138.934l-7.112 3.841-85.0691-46.6597 7.1128-3.8409 85.0683 46.6596z" fill="#1F1D21"/><path d="M69.8804 53.2861c-1.4225-1.2803-2.8451-2.2761-4.4099-3.1297-3.6987-1.9915-6.9705-2.1338-9.5311-.8535l-5.6903 3.1296c2.4184-1.2803 5.6903-1.138 9.5312.8536 1.4225.7112 2.8451 1.8493 4.4099 3.1296l2.2761 2.1338 5.6902-3.1296-2.2761-2.1338zM153.953 102.649c0-12.9453-9.815-29.0202-21.907-35.4217-1.707-.9958-3.272-1.5648-4.837-1.9916l-1.717-.5721-13.362 7.8271 1.138.2845c1.565.4268 3.13.9958 4.837 1.9916 12.092 6.5438 21.907 22.4764 21.907 35.4212 0 1.423-.142 2.846-.426 4.41 0 .143-.143.427-.143.569-.426 1.85-1.28 3.841-1.849 4.695-.142.142-.142.142-.142.284-.142.143 1.565-1.707 1.565-1.707-.996 1.281 3.983-.142 2.702.712l5.975-3.13c1.423-.711 2.561-1.849 3.557-3.13.142-.142.142-.142.142-.284.142-.142.142-.142.142-.285.569-.853 1.423-2.845 1.849-4.694 0-.142.143-.427.143-.569.284-1.423.426-2.845.426-4.41z" fill="#A1F6FF"/><path d="M50.2491 54.2822c0 .2845.2846.8535.5691.9958.2845.1423.569 0 .569-.2845 0-.4268-.2845-.8535-.569-.9958-.2845-.1423-.5691 0-.5691.2845z" fill="#50E6FF"/><path d="M74.7172 81.0262l-12.0918-6.9706L52.383 56.1314c0-.1422.1423-.2845.1423-.569 0-.9958-.7113-2.1338-1.5648-2.7028-.9958-.4268-1.7071-.1423-1.7071.8535s.7113 2.1338 1.5648 2.7029c.1423.1422.4268.1422.569.1422l10.527 18.0665.4267.4267 12.6608 7.2551h.4267l3.1297-1.8494.1422-.4267.1423-44.526c-.4268.1423-.8536.1423-1.1381.2845l-.1422 43.2457-2.8451 1.9916zm-23.899-25.7483c-.2845-.1422-.569-.569-.569-.9958 0-.4267.2845-.569.569-.2845.2845.1423.569.569.569.9958 0 .2845-.1422.4268-.569.2845z" fill="#D5F9FD"/><path d="M126.214 70.3566c-1.707-.9958-3.272-1.5649-4.837-1.9916l-1.138-.2845-.569-1.4226c-4.694-10.3846-12.234-19.489-20.627-25.3215l-.1423 35.1371-.1422 26.4595 27.3135 14.795c7.824 4.267 15.221 3.556 19.204-1.707.142-.143.142-.143.142-.285.143-.142.143-.142.143-.284.569-.854 1.422-2.846 1.849-4.695 0-.142.142-.427.142-.569.285-1.422.427-2.845.427-4.41.142-12.9451-9.674-28.8777-21.765-35.4214zM93.7815 38.1356c-.9958-.4268-1.939-.7637-2.9348-1.0482l-.197 58.591-2.7028 1.5648 4.2676 2.2761 1.1381-.7113.4289-60.6724z" fill="#50E6FF"/><path d="M89.7907 36.6989c-1.0481-.3494-1.9545-.8516-2.9503-.9938l-.1739 55.7056-4.4099 2.7028 4.1254 2.2761 3.3104-1.4453.0983-58.2454zM78.7003 87.8544l2.8451-1.5648.1423-51.0113c-.9958 0-1.8493.1994-2.8451.3417l-.1423 44.6948-.1422.2846-3.1296 1.8493h-.4268l-12.6608-7.255-.4267-.4268-10.3847-18.0665c-.1422 0-.4267-.1422-.569-.1422-.9958-.569-1.7071-1.8493-1.7071-2.8451s.7113-1.4226 1.5648-.8536c.8536.4268 1.5649 1.7071 1.5649 2.7029 0 .2845 0 .4268-.1423.569l10.3847 17.7819 12.0917 6.9706 2.8451-1.7071.1422-43.2308c-6.9705 1.9916-11.3804 8.5205-11.3804 18.4783v1.2803l.1423 2.7029-2.2761-2.1338c-1.4226-1.2803-2.8451-2.2761-4.41-3.1297-7.3972-3.8409-13.372-.7112-13.372 7.2551 0 3.5564 1.1381 7.6818 3.4142 11.5227 2.1338 3.6986 4.9789 6.8282 8.1085 8.9621l3.9832-2.4184 16.7861 9.3889zM97.6204 40.3171c-.8536-.5691-1.5412-.7665-2.3948-1.3355-.1422 0-.1658-.0631-.3081-.0631l-.1422 60.8853-.8536.5692 3.6987 1.991V40.3171z" fill="#50E6FF"/><path d="M82.9681 35.2549l-.1423 52.0303-3.2719 2.1339h-.4267l-16.3594-9.5312-3.1296 1.8494 2.276 1.2803 8.9621 4.8367 9.9579 5.4057 4.8367-2.8451.1423-54.9038c-.9958-.1422-1.9916-.2562-2.8451-.2562z" fill="#50E6FF"/><path d="M86.9511 35.931c-.4268-.1422-.8535-.3421-1.138-.3421l-.1423 54.826-4.8367 2.8451 1.7071.8535 4.4099-2.7028V35.931z" fill="#D5F9FD"/><path d="M90.9344 37.0328c-.4992-.2251-.8098-.2018-1.1381-.3336l-.1422 57.9833-2.9874 1.7071 1.5648.8535 2.7029-1.5648V37.0328zM94.9175 38.9181c-.3751-.1851-.74-.4568-1.1381-.569l-.2366 30.2343-.1648 30.1495-.8789.7861 1.5649.854.8535-.5695V38.9181zM99.0611 41.1479c-.4267-.2845-1.014-.805-1.4408-.9472v35.562l-.1422 26.4593 1.3916.877.0275-26.7171.1639-35.234zM78.9848 89.4192h.4268l3.4773-1.9989.0849-52.2274c-.4267 0-1.0121.0621-1.2966.0621l-.1318 51.0345-2.8451 1.5649-16.7861-9.5312-3.9832 2.4184c.1423.1422.1423.1422.2845.2845l1.2803.7113 3.1296-1.8494 16.3594 9.5312z" fill="#D5F9FD"/><path d="M125.218 63.3864c-5.264-11.9495-14.368-22.1919-24.326-27.4554-7.9663-4.2676-15.2213-4.6944-20.4848-1.8493l-5.6902 3.1296c5.2635-2.8451 12.5185-2.4183 20.4848 1.8494 9.9582 5.2634 18.9202 15.6481 24.3262 27.4553l.569 1.4225 5.69-3.1296-.569-1.4225z" fill="#A1F6FF"/><path opacity=".75" fill-rule="evenodd" clip-rule="evenodd" d="M124.65 59.1426c.088-.0085.176.0106.252.0547l19.6 11.3c.132.0756.212.2156.212.367 0 .1515-.08.2914-.212.3671l-19.6 11.3c-.097.0561-.213.0713-.321.0421l-61.8002-16.6c-.1978-.0531-.3292-.2401-.3123-.4442.0169-.2041.1775-.3669.3813-.3867l61.8002-6zm-59.3955 6.6179l59.3765 15.9491 18.811-10.8453-18.845-10.8651-59.3425 5.7613z" fill="#fff"/><path opacity=".75" fill-rule="evenodd" clip-rule="evenodd" d="M124.271 81.8865c.132-.1522.352-.1905.528-.0917l19.7 11.1c.132.0744.214.2135.216.365.001.1514-.078.2922-.209.3691l-19.5 11.5001c-.031.018-.065.033-.1.043l-26.1999 7.4c-.1802.051-.3724-.023-.4728-.181-.1004-.158-.0852-.363.0375-.505l26.0002-29.9995zm.413.8165l-24.8454 28.668 24.7844-7 18.82-11.0987-18.759-10.5693z" fill="#fff"/><path opacity=".75" fill-rule="evenodd" clip-rule="evenodd" d="M144.503 70.4973c.131.0757.211.2155.211.3668v22.4c0 .15-.079.2888-.208.365l-19.5 11.4999c-.131.077-.293.078-.425.004-.132-.075-.213-.215-.214-.367l-.1-22.6c-.001-.1521.08-.2929.212-.3689l19.6-11.3c.131-.0756.292-.0755.424.0002zm-19.388 11.911l.096 21.6157 18.656-11.0019V71.5975l-18.752 10.8108z" fill="#fff"/><path opacity=".75" fill-rule="evenodd" clip-rule="evenodd" d="M124.875 59.2506c.089.0803.139.1942.139.3137v22.6c0 .102-.036.2005-.103.2775L98.9109 112.442c-.0834.096-.2056.15-.3329.146-.1273-.004-.2462-.065-.3236-.166l-35.7-46.6c-.0936-.1222-.1136-.2855-.0522-.4266.0613-.1411.1944-.2379.3475-.2528l61.7003-6c.119-.0116.237.0277.325.108zm-61.184 6.6616l34.92 45.5818 25.556-29.4877V60.0312l-60.476 5.881z" fill="#fff"/><path d="M127.091 59.7642c0-1.4-1.1-2.5-2.5-2.5s-2.5 1.1-2.5 2.5 1.1 2.5 2.5 2.5c1.3.1 2.5-1.1 2.5-2.5zM65.4907 65.7642c0-1.4-1.2-2.5-2.6-2.5-1.4 0-2.5 1.1-2.5 2.5s1.1 2.5 2.5 2.5 2.6-1.1 2.6-2.5zM127.191 82.3643c0-1.4-1.1-2.5-2.5-2.5s-2.5 1.1-2.5 2.5 1.1 2.5 2.5 2.5 2.5-1.1 2.5-2.5zM146.591 93.4644c0-1.4-1.1-2.5-2.5-2.5s-2.5 1.1-2.5 2.5 1.1 2.5 2.5 2.5 2.5-1.1 2.5-2.5zM127.191 104.764c0-1.4-1.1-2.5-2.5-2.5s-2.5 1.1-2.5 2.5 1.1 2.5 2.5 2.5c1.3.1 2.5-1.1 2.5-2.5zM101.191 112.164c0-1.4-1.1-2.5-2.5004-2.5-1.4 0-2.5 1.1-2.5 2.5s1.1 2.5 2.5 2.5c1.4004.1 2.5004-1.1 2.5004-2.5zM146.491 71.2642c0-1.4-1.1-2.5-2.5-2.5s-2.5 1.1-2.5 2.5 1.1 2.5 2.5 2.5 2.5-1.1 2.5-2.5z" fill="#fff"/><path d="M67.9292 142.801v3.281l19.0341-10.946v-3.421l-19.0341 11.086z" fill="#EBEBEB"/><path d="M67.9293 142.801v3.281l-31.5797-17.788v-3.124l31.5797 17.631z" fill="#EBEBEB"/><path d="M67.9293 142.801l19.034-11.086-30.8824-17.082-19.7312 10.537 31.5796 17.631z" fill="#F4F2F2"/><path d="M67.8857 137.393v4.27l18.1582-10.715v-4.41l-18.1582 10.855z" fill="url(#paint2_linear_20824)"/><path d="M67.8857 137.393v4.27l-30.5948-17.025v-5.525l30.5948 18.28z" fill="url(#paint3_linear_20824)"/><path d="M67.8857 136.67v1.181l19.0341-10.947v-1.32L67.8857 136.67zM67.8857 136.669v1.181l-31.584-17.787v-1.024l31.584 17.63z" fill="#EBEBEB"/><path d="M67.8857 136.67l19.0341-11.086-30.8824-17.082-19.7357 10.537 31.584 17.631z" fill="#F4F2F2"/><path d="M67.8857 131.532v4.271l18.1582-10.716v-4.41l-18.1582 10.855z" fill="url(#paint4_linear_20824)"/><path d="M67.8857 131.532v4.271l-30.5948-17.026v-5.525l30.5948 18.28z" fill="url(#paint5_linear_20824)"/><path d="M67.8857 130.809v1.181l19.0341-10.946v-1.321l-19.0341 11.086zM67.8857 130.809v1.181l-31.584-17.788v-1.024l31.584 17.631z" fill="#EBEBEB"/><path d="M67.8857 130.809l19.0341-11.086-30.8824-17.082-19.7357 10.541 31.584 17.627z" fill="#F4F2F2"/><path d="M67.8857 125.671v4.271l18.1582-10.716v-4.41l-18.1582 10.855z" fill="url(#paint6_linear_20824)"/><path d="M67.8857 125.671v4.27L37.2909 112.92v-5.525l30.5948 18.276z" fill="url(#paint7_linear_20824)"/><path d="M67.8857 124.952v1.181l19.0341-10.946v-1.321l-19.0341 11.086zM67.8857 124.952v1.181l-31.584-17.792v-1.024l31.584 17.635z" fill="#EBEBEB"/><path d="M67.8857 124.952l19.0341-11.086-30.8824-17.0818-19.7357 10.5368 31.584 17.631z" fill="#F4F2F2"/><path d="M67.8857 119.692v4.271l18.1582-10.716v-4.41l-18.1582 10.855z" fill="url(#paint8_linear_20824)"/><path d="M67.8857 119.692v4.271l-30.5948-17.025v-5.526l30.5948 18.28z" fill="url(#paint9_linear_20824)"/><path d="M67.8857 118.969v1.181l19.0341-10.946v-1.321l-19.0341 11.086zM67.8857 118.969v1.181l-31.584-17.788v-1.024l31.584 17.631z" fill="#EBEBEB"/><path d="M67.8857 118.969l19.0341-11.086-30.8824-17.0817-19.7357 10.5367 31.584 17.631z" fill="#F4F2F2"/><path d="M67.8857 113.862v4.27l18.1582-10.715v-4.41l-18.1582 10.855z" fill="url(#paint10_linear_20824)"/><path d="M67.8857 113.862v4.27l-30.5948-17.025v-5.5255l30.5948 18.2805z" fill="url(#paint11_linear_20824)"/><path d="M67.8857 112.642v1.181l19.0341-10.946v-1.321l-19.0341 11.086zM67.8857 112.642v1.181l-31.584-17.7882v-1.0241l31.584 17.6313z" fill="#EBEBEB"/><path d="M67.8857 112.642l19.0341-11.086-30.8824-17.0819-19.7357 10.5367 31.584 17.6312z" fill="#F4F2F2"/><path d="M67.8857 107.53v4.271l18.1582-10.716v-4.4053L67.8857 107.53z" fill="url(#paint12_linear_20824)"/><path d="M67.8857 107.53v4.271L37.2909 94.7755v-5.5211L67.8857 107.53z" fill="url(#paint13_linear_20824)"/><path d="M67.8857 106.31v1.181l19.0341-10.946v-1.3204L67.8857 106.31zM67.8857 106.31v1.181l-31.584-17.7878v-1.024l31.584 17.6308z" fill="#EBEBEB"/><path d="M67.8857 106.31l19.0341-11.0856-30.8824-17.0818-19.7357 10.5367 31.584 17.6307z" fill="#F4F2F2"/><path d="M67.8857 101.203v4.27l18.1582-10.715v-4.4099L67.8857 101.203z" fill="url(#paint14_linear_20824)"/><path d="M67.8857 101.203v4.271L37.2909 88.4483v-5.5254l30.5948 18.2801z" fill="url(#paint15_linear_20824)"/><path d="M67.8857 99.9784v1.1806l19.0341-10.9461v-1.3203L67.8857 99.9784z" fill="#CDCDD0"/><path d="M67.8857 99.9786v1.1804l-31.584-17.7873v-1.024l31.584 17.6309z" fill="#EBEBEB"/><path d="M67.8857 99.9787l19.0341-11.0858L56.0374 71.811 36.3017 82.3521l31.584 17.6266z" fill="#F4F2F2"/><path d="M67.8857 94.8714v4.2705l18.1582-10.7154v-4.4099L67.8857 94.8714z" fill="url(#paint16_linear_20824)"/><path d="M67.8857 94.8715v4.2705L37.2909 82.1168v-5.5255l30.5948 18.2802z" fill="url(#paint17_linear_20824)"/><path d="M67.8857 93.6512v1.2201l19.0341-10.9855v-1.3204L67.8857 93.6512z" fill="#CDCDD0"/><path d="M67.8857 93.6514v1.2201l-31.584-17.827v-1.024l31.584 17.6309z" fill="#EBEBEB"/><path d="M67.8857 93.6515l19.0341-11.0858-30.8824-17.0818-19.7357 10.5367 31.584 17.6309z" fill="#F4F2F2"/><path d="M67.8857 88.6227v4.1877L86.0439 82.095v-4.4055L67.8857 88.6227z" fill="url(#paint18_linear_20824)"/><path d="M67.8857 88.5397v4.2749L37.2909 75.7894v-4.057l30.5948 16.8073z" fill="url(#paint19_linear_20824)"/><path d="M67.8857 86.6532v2.4489l19.0341-10.9463v-2.5884L67.8857 86.6532z" fill="#EBEBEB"/><path d="M67.8857 86.6529v2.449l-31.584-17.7922V69.022l31.584 17.6309z" fill="#CDCDD0"/><path d="M67.8855 86.653l19.034-11.0858-30.878-17.0818-19.74 10.5367 31.584 17.6309z" fill="#fff"/><path opacity=".7" d="M109.465 125.566l-39.7412 24.368 17.2015 8.871 40.1347-23.876-17.595-9.363z" fill="url(#paint20_linear_20824)"/><path d="M91.9703 124.403l-22.0757 12.776 17.1298 9.16 22.0666-12.79-17.1207-9.146z" fill="#85D4F1"/><path d="M87.0244 146.352l-.1264 10.127 22.193-12.789v-10.128l-22.0666 12.79z" fill="url(#paint21_linear_20824)"/><path d="M69.9077 137.18l-.1264 10.253 17.1298 9.047.1264-10.128-17.1298-9.172z" fill="url(#paint22_linear_20824)"/><path d="M91.9703 112.703l-22.0757 12.903 17.1298 9.046 22.0666-12.79-17.1207-9.159z" fill="#96D8EC"/><path d="M87.0244 134.656l-.1264 10.254 22.193-12.903V121.88l-22.0666 12.776z" fill="url(#paint23_linear_20824)"/><path d="M69.9077 125.61l-.1264 10.127 17.1298 9.164.1264-10.253-17.1298-9.038z" fill="url(#paint24_linear_20824)"/><path d="M91.9703 101.007L69.8946 113.91l17.1298 9.164 22.0666-12.903-17.1207-9.164z" fill="#96D8EC"/><path d="M87.0244 123.069l-.1264 10.127 22.193-12.902v-10.127l-22.0666 12.902z" fill="url(#paint25_linear_20824)"/><path d="M69.9077 113.91l-.1264 10.127 17.1298 9.164.1264-10.127-17.1298-9.164z" fill="url(#paint26_linear_20824)"/><path d="M91.9699 89.4199L69.8942 102.323l17.1298 9.164L109.1 98.584l-17.1301-9.1641z" fill="#D5F9FD"/><path d="M87.0244 111.487l-.1264 10.127 22.193-12.903V98.584l-22.0666 12.903z" fill="url(#paint27_linear_20824)"/><path d="M69.9077 102.327l-.1264 10.136 17.1298 9.164.1264-10.127-17.1298-9.173z" fill="url(#paint28_linear_20824)"/><path d="M71.5941 105.827v.849l6.2706 3.378v-.963l-6.2706-3.264zM108.137 123.793v.85l-6.027 3.499v-.963l6.027-3.386zM108.137 125.61v.85l-6.027 3.377v-.85l6.027-3.377zM108.011 113.187v.849l-6.271 3.499v-.858l6.271-3.49z" fill="#E9FCFE"/><path d="M36.2321 80.2427l26.3461 14.8594v7.7479L36.2321 87.9905v-7.7478z" fill="#0563AD"/><path d="M36.2321 82.1602l26.3461 14.8594v7.7474L36.2321 89.908v-7.7478z" fill="#EBEBEB"/><path d="M61.2099 102.489v-.911l-4.1005-2.3705v.9105l4.1005 2.371zM61.2099 98.7497v-.9107l-4.1005-2.462v1.0022l4.1005 2.3705zM61.2099 100.663v-1.0024L57.1094 97.29v1.0023l4.1005 2.3707z" fill="#0563AD"/><path d="M36.2321 98.1221l26.3461 14.8599v7.747l-26.3461-14.855v-7.7519z" fill="#49C8EF"/><path d="M36.2321 100.04l26.3461 14.859v7.748l-26.3461-14.86v-7.747z" fill="#EBEBEB"/><path d="M58.2947 117.906c0-.458-.2746-.911-.6362-1.094-.3661-.183-.6363 0-.6363.366 0 .458.2746.911.6363 1.094.3616.178.6362.087.6362-.366zM61.2099 119.636c0-.458-.2745-.911-.6362-1.094-.366-.183-.6362 0-.6362.366 0 .458.2746.911.6362 1.094.2702.183.5447 0 .6362-.366zM58.2947 114.625c0-.458-.2746-.911-.6362-1.094-.3661-.183-.6363 0-.6363.366 0 .457.2746.911.6363 1.094.3616.178.6362-.005.6362-.366zM61.2099 116.354c0-.457-.2745-.911-.6362-1.185-.366-.183-.6362 0-.6362.366 0 .458.2746.911.6362 1.094.3617.274.6362.091.6362-.275z" fill="#49C8EF"/><path d="M36.2321 116.001l26.3461 14.86v7.748l-26.3461-14.855v-7.753z" fill="#299ED9"/><path d="M36.2321 117.919l26.3461 14.859v7.748l-26.3461-14.859v-7.748z" fill="#EBEBEB"/><path d="M61.1184 138.43l-4.1005-2.371v-4.741l4.1005 2.371v4.741zm-2.8281-3.103l1.6428.911v-1.913l-1.6428-.911v1.913z" fill="#299ED9"/><defs><linearGradient id="paint0_linear_20824" x1="90.9654" y1="9.521" x2="90.9654" y2="180.921" gradientUnits="userSpaceOnUse"><stop stop-color="#00ABDE"/><stop offset="1" stop-color="#007ED8"/></linearGradient><linearGradient id="paint1_linear_20824" x1="37.0851" y1="4.31231" x2="203.762" y2="286.643" gradientUnits="userSpaceOnUse"><stop stop-color="#007ED8"/><stop offset=".7065" stop-color="#002D4C"/></linearGradient><linearGradient id="paint2_linear_20824" x1="76.9788" y1="137.493" x2="76.7053" y2="70.3325" gradientUnits="userSpaceOnUse"><stop stop-color="#4FC1EA"/><stop offset=".585" stop-color="#2E76BC"/></linearGradient><linearGradient id="paint3_linear_20824" x1="52.4636" y1="133.433" x2="54.6522" y2="79.8142" gradientUnits="userSpaceOnUse"><stop stop-color="#4FC1EA"/><stop offset=".585" stop-color="#2E76BC"/></linearGradient><linearGradient id="paint4_linear_20824" x1="76.9788" y1="131.633" x2="76.7053" y2="64.4724" gradientUnits="userSpaceOnUse"><stop stop-color="#4FC1EA"/><stop offset=".585" stop-color="#2E76BC"/></linearGradient><linearGradient id="paint5_linear_20824" x1="52.4636" y1="127.573" x2="54.6522" y2="73.9541" gradientUnits="userSpaceOnUse"><stop stop-color="#4FC1EA"/><stop offset=".585" stop-color="#2E76BC"/></linearGradient><linearGradient id="paint6_linear_20824" x1="76.9788" y1="125.773" x2="76.7053" y2="58.6123" gradientUnits="userSpaceOnUse"><stop stop-color="#4FC1EA"/><stop offset=".585" stop-color="#2E76BC"/></linearGradient><linearGradient id="paint7_linear_20824" x1="52.4636" y1="121.713" x2="54.6522" y2="68.0936" gradientUnits="userSpaceOnUse"><stop stop-color="#4FC1EA"/><stop offset=".585" stop-color="#2E76BC"/></linearGradient><linearGradient id="paint8_linear_20824" x1="76.9788" y1="119.792" x2="76.7053" y2="52.6318" gradientUnits="userSpaceOnUse"><stop stop-color="#4FC1EA"/><stop offset=".585" stop-color="#2E76BC"/></linearGradient><linearGradient id="paint9_linear_20824" x1="52.4636" y1="115.733" x2="54.6522" y2="62.1135" gradientUnits="userSpaceOnUse"><stop stop-color="#4FC1EA"/><stop offset=".585" stop-color="#2E76BC"/></linearGradient><linearGradient id="paint10_linear_20824" x1="77.0026" y1="119.792" x2="76.729" y2="52.6316" gradientUnits="userSpaceOnUse"><stop stop-color="#4FC1EA"/><stop offset=".585" stop-color="#2E76BC"/></linearGradient><linearGradient id="paint11_linear_20824" x1="52.226" y1="115.723" x2="54.4145" y2="62.1037" gradientUnits="userSpaceOnUse"><stop stop-color="#4FC1EA"/><stop offset=".585" stop-color="#2E76BC"/></linearGradient><linearGradient id="paint12_linear_20824" x1="77.0284" y1="119.792" x2="76.7549" y2="52.6316" gradientUnits="userSpaceOnUse"><stop stop-color="#4FC1EA"/><stop offset=".585" stop-color="#2E76BC"/></linearGradient><linearGradient id="paint13_linear_20824" x1="51.9681" y1="115.712" x2="54.1566" y2="62.0933" gradientUnits="userSpaceOnUse"><stop stop-color="#4FC1EA"/><stop offset=".585" stop-color="#2E76BC"/></linearGradient><linearGradient id="paint14_linear_20824" x1="77.0541" y1="119.792" x2="76.7806" y2="52.6316" gradientUnits="userSpaceOnUse"><stop stop-color="#4FC1EA"/><stop offset=".585" stop-color="#2E76BC"/></linearGradient><linearGradient id="paint15_linear_20824" x1="51.7102" y1="115.702" x2="53.8987" y2="62.0828" gradientUnits="userSpaceOnUse"><stop stop-color="#4FC1EA"/><stop offset=".585" stop-color="#2E76BC"/></linearGradient><linearGradient id="paint16_linear_20824" x1="77.0799" y1="119.792" x2="76.8064" y2="52.6315" gradientUnits="userSpaceOnUse"><stop stop-color="#4FC1EA"/><stop offset=".585" stop-color="#2E76BC"/></linearGradient><linearGradient id="paint17_linear_20824" x1="51.4522" y1="115.691" x2="53.6408" y2="62.0723" gradientUnits="userSpaceOnUse"><stop stop-color="#4FC1EA"/><stop offset=".585" stop-color="#2E76BC"/></linearGradient><linearGradient id="paint18_linear_20824" x1="77.1057" y1="119.792" x2="76.8322" y2="52.6315" gradientUnits="userSpaceOnUse"><stop stop-color="#4FC1EA"/><stop offset=".585" stop-color="#2E76BC"/></linearGradient><linearGradient id="paint19_linear_20824" x1="51.2243" y1="115.682" x2="53.4128" y2="62.0629" gradientUnits="userSpaceOnUse"><stop stop-color="#4FC1EA"/><stop offset=".585" stop-color="#2E76BC"/></linearGradient><linearGradient id="paint20_linear_20824" x1="101.937" y1="138.244" x2="112.189" y2="122.69" gradientUnits="userSpaceOnUse"><stop stop-color="#33455A"/><stop offset=".798" stop-color="#747576" stop-opacity="0"/></linearGradient><linearGradient id="paint21_linear_20824" x1="86.2659" y1="88.2327" x2="98.0717" y2="145.397" gradientUnits="userSpaceOnUse"><stop stop-color="#74CFEB"/><stop offset=".7998" stop-color="#2E76BC"/></linearGradient><linearGradient id="paint22_linear_20824" x1="79.2786" y1="110.013" x2="78.0805" y2="160.634" gradientUnits="userSpaceOnUse"><stop stop-color="#74CFEB"/><stop offset=".7998" stop-color="#2E76BC"/></linearGradient><linearGradient id="paint23_linear_20824" x1="88.5696" y1="87.7571" x2="100.375" y2="144.922" gradientUnits="userSpaceOnUse"><stop stop-color="#74CFEB"/><stop offset=".7998" stop-color="#2E76BC"/></linearGradient><linearGradient id="paint24_linear_20824" x1="79.0048" y1="110.007" x2="77.8066" y2="160.627" gradientUnits="userSpaceOnUse"><stop stop-color="#74CFEB"/><stop offset=".7998" stop-color="#2E76BC"/></linearGradient><linearGradient id="paint25_linear_20824" x1="90.8889" y1="87.2782" x2="102.695" y2="144.443" gradientUnits="userSpaceOnUse"><stop stop-color="#74CFEB"/><stop offset=".7998" stop-color="#2E76BC"/></linearGradient><linearGradient id="paint26_linear_20824" x1="78.728" y1="110" x2="77.5298" y2="160.621" gradientUnits="userSpaceOnUse"><stop stop-color="#74CFEB"/><stop offset=".7998" stop-color="#2E76BC"/></linearGradient><linearGradient id="paint27_linear_20824" x1="93.1833" y1="86.8046" x2="104.989" y2="143.97" gradientUnits="userSpaceOnUse"><stop stop-color="#74CFEB"/><stop offset=".7998" stop-color="#2E76BC"/></linearGradient><linearGradient id="paint28_linear_20824" x1="78.4541" y1="109.994" x2="77.256" y2="160.615" gradientUnits="userSpaceOnUse"><stop stop-color="#74CFEB"/><stop offset=".7998" stop-color="#2E76BC"/></linearGradient></defs></svg>