<svg width="103" height="103" viewBox="0 0 103 103" fill="none" xmlns="http://www.w3.org/2000/svg">
<path d="M51.5324 98.6403C25.6824 98.6403 4.72241 77.6903 4.72241 51.8303C4.72241 25.9703 25.6824 5.02026 51.5324 5.02026C77.3824 5.02026 98.3424 25.9803 98.3424 51.8303C98.3424 77.6803 77.3824 98.6403 51.5324 98.6403Z" fill="url(#paint0_linear_1037_152)"/>
<path fill-rule="evenodd" clip-rule="evenodd" d="M97.4326 51.8304C97.4326 77.1804 76.8826 97.7304 51.5326 97.7304C26.1826 97.7304 5.63258 77.1804 5.63258 51.8304C5.63258 26.4804 26.1826 5.93044 51.5326 5.93044C76.8826 5.93044 97.4326 26.4804 97.4326 51.8304ZM51.5326 2.19043C78.9526 2.19043 101.173 24.4104 101.173 51.8304C101.173 79.2504 78.9426 101.47 51.5326 101.47C24.1126 101.47 1.89258 79.2404 1.89258 51.8304C1.89258 24.4104 24.1126 2.19043 51.5326 2.19043Z" fill="#F2F1F0"/>
<path fill-rule="evenodd" clip-rule="evenodd" d="M94.6224 51.8302C94.6224 75.6302 75.3324 94.9202 51.5324 94.9202C27.7324 94.9202 8.44239 75.6302 8.44239 51.8302C8.44239 28.0302 27.7324 8.74025 51.5324 8.74025C75.3324 8.74025 94.6224 28.0302 94.6224 51.8302ZM51.5324 5.00024C77.3924 5.00024 98.3624 25.9702 98.3624 51.8302C98.3624 77.6902 77.3924 98.6603 51.5324 98.6603C25.6724 98.6603 4.70239 77.6902 4.70239 51.8302C4.70239 25.9702 25.6624 5.00024 51.5324 5.00024Z" fill="url(#paint1_linear_1037_152)"/>
<path d="M81.5183 55.5752H70.9529V56.3261H81.5183V55.5752Z" fill="white"/>
<path d="M81.5183 46.2639H70.9529V47.0148H81.5183V46.2639Z" fill="white"/>
<path d="M81.5183 65.6302H70.9531C70.8535 65.6302 70.758 65.5906 70.6876 65.5202C70.6172 65.4498 70.5776 65.3543 70.5776 65.2547V37.3132C70.5776 37.2136 70.6172 37.1182 70.6876 37.0477C70.758 36.9773 70.8535 36.9377 70.9531 36.9377H81.5183V37.6887H71.3286V64.8793H81.5183V65.6302Z" fill="white"/>
<path opacity="0.15" d="M83.9934 33.8889H74.7345C74.4637 33.8889 74.2041 33.9966 74.0126 34.1881C73.8211 34.3797 73.7134 34.6392 73.7134 34.9101V40.557C73.7134 40.8278 73.8211 41.0874 74.0126 41.2789C74.2041 41.4704 74.4637 41.5781 74.7345 41.5781H84.0011C84.1354 41.5791 84.2687 41.5536 84.393 41.5026C84.5174 41.4516 84.6302 41.3765 84.7252 41.2815C84.8202 41.1865 84.8953 41.0733 84.9463 40.9489C84.9973 40.8246 85.0232 40.6914 85.0222 40.557V34.8951C85.0182 34.6255 84.908 34.3686 84.7153 34.1801C84.5226 33.9916 84.2629 33.8869 83.9934 33.8889V33.8889Z" fill="#1F1D20"/>
<path opacity="0.15" d="M83.9934 52.7593H74.7345C74.4637 52.7593 74.2041 52.8669 74.0126 53.0585C73.8211 53.25 73.7134 53.5096 73.7134 53.7804V59.4574C73.7134 59.7282 73.8211 59.9882 74.0126 60.1797C74.2041 60.3712 74.4637 60.4785 74.7345 60.4785H84.0011C84.2719 60.4785 84.5315 60.3712 84.723 60.1797C84.9145 59.9882 85.0222 59.7282 85.0222 59.4574V53.7955C85.0232 53.6597 84.9972 53.5251 84.9459 53.3995C84.8947 53.2738 84.819 53.1596 84.7234 53.0632C84.6277 52.9669 84.5143 52.8906 84.389 52.8385C84.2637 52.7863 84.1291 52.7593 83.9934 52.7593V52.7593Z" fill="#1F1D20"/>
<path opacity="0.15" d="M83.9934 43.3054H74.7345C74.4637 43.3054 74.2041 43.4128 74.0126 43.6043C73.8211 43.7958 73.7134 44.0557 73.7134 44.3266V49.9958C73.7134 50.2667 73.8211 50.5266 74.0126 50.7182C74.2041 50.9097 74.4637 51.0174 74.7345 51.0174H84.0011C84.1354 51.0184 84.2687 50.9924 84.393 50.9415C84.5174 50.8905 84.6302 50.8154 84.7252 50.7204C84.8202 50.6253 84.8953 50.5122 84.9463 50.3878C84.9973 50.2635 85.0232 50.1302 85.0222 49.9958V44.3116C85.0182 44.042 84.908 43.7851 84.7153 43.5966C84.5226 43.4081 84.2629 43.3034 83.9934 43.3054V43.3054Z" fill="#1F1D20"/>
<path opacity="0.15" d="M83.9934 62.1758H74.7345C74.4637 62.1758 74.2041 62.2835 74.0126 62.475C73.8211 62.6665 73.7134 62.9261 73.7134 63.1969V68.8739C73.7134 69.1447 73.8211 69.4047 74.0126 69.5962C74.2041 69.7877 74.4637 69.895 74.7345 69.895H84.0011C84.2719 69.895 84.5315 69.7877 84.723 69.5962C84.9145 69.4047 85.0222 69.1447 85.0222 68.8739V63.2046C85.0222 62.9318 84.9137 62.6701 84.7208 62.4772C84.5279 62.2842 84.2662 62.1758 83.9934 62.1758V62.1758Z" fill="#1F1D20"/>
<path d="M83.9934 33.2131H74.7345C74.4637 33.2131 74.2041 33.3204 74.0126 33.512C73.8211 33.7035 73.7134 33.9634 73.7134 34.2343V39.9035C73.7134 40.1744 73.8211 40.4343 74.0126 40.6259C74.2041 40.8174 74.4637 40.925 74.7345 40.925H84.0011C84.1354 40.926 84.2687 40.9001 84.393 40.8491C84.5174 40.7982 84.6302 40.7231 84.7252 40.6281C84.8202 40.533 84.8953 40.4198 84.9463 40.2955C84.9973 40.1711 85.0232 40.0379 85.0222 39.9035V34.2416C85.0222 33.9688 84.9137 33.7071 84.7208 33.5142C84.5279 33.3212 84.2662 33.2131 83.9934 33.2131V33.2131Z" fill="#50E6FF"/>
<path d="M83.9934 52.0835H74.7345C74.4637 52.0835 74.2041 52.1912 74.0126 52.3827C73.8211 52.5742 73.7134 52.8338 73.7134 53.1046V58.7816C73.7134 59.0524 73.8211 59.312 74.0126 59.5035C74.2041 59.6951 74.4637 59.8027 74.7345 59.8027H84.0011C84.2719 59.8027 84.5315 59.6951 84.723 59.5035C84.9145 59.312 85.0222 59.0524 85.0222 58.7816V53.1197C85.0232 52.9839 84.9972 52.8494 84.9459 52.7237C84.8947 52.598 84.819 52.4838 84.7234 52.3875C84.6277 52.2911 84.5143 52.2145 84.389 52.1623C84.2637 52.1102 84.1291 52.0835 83.9934 52.0835V52.0835Z" fill="#0078D4"/>
<path d="M83.9934 42.637H74.7345C74.4637 42.637 74.2041 42.7447 74.0126 42.9362C73.8211 43.1277 73.7134 43.3873 73.7134 43.6581V49.3278C73.7134 49.5986 73.8211 49.8582 74.0126 50.0497C74.2041 50.2412 74.4637 50.3489 74.7345 50.3489H84.0011C84.1354 50.3499 84.2687 50.324 84.393 50.273C84.5174 50.222 84.6302 50.1469 84.7252 50.0519C84.8202 49.9569 84.8953 49.8441 84.9463 49.7197C84.9973 49.5954 85.0232 49.4621 85.0222 49.3278V43.6581C85.0222 43.5234 84.9955 43.3902 84.9437 43.2658C84.8919 43.1414 84.8161 43.0282 84.7204 42.9332C84.6248 42.8383 84.5112 42.7634 84.3864 42.7125C84.2616 42.6616 84.1281 42.636 83.9934 42.637Z" fill="#31D1F3"/>
<path d="M83.9934 61.5073H74.7345C74.4637 61.5073 74.2041 61.615 74.0126 61.8065C73.8211 61.998 73.7134 62.2576 73.7134 62.5285V68.2054C73.7134 68.4763 73.8211 68.7362 74.0126 68.9277C74.2041 69.1193 74.4637 69.2269 74.7345 69.2269H84.0011C84.2719 69.2269 84.5315 69.1193 84.723 68.9277C84.9145 68.7362 85.0222 68.4763 85.0222 68.2054V62.5362C85.0222 62.2633 84.9137 62.0016 84.7208 61.8087C84.5279 61.6158 84.2662 61.5073 83.9934 61.5073V61.5073Z" fill="#243A5E"/>
<path d="M70.9904 51.1824H61.3486V51.9333H70.9904V51.1824Z" fill="white"/>
<path d="M61.0201 61.2746H51.2058C51.1062 61.2746 51.0107 61.235 50.9403 61.1646C50.8699 61.0942 50.8303 60.9987 50.8303 60.8992V42.2466C50.8303 42.147 50.8699 42.0515 50.9403 41.9811C51.0107 41.9107 51.1062 41.8711 51.2058 41.8711H61.0201V42.622H51.5963V60.5237H61.0351L61.0201 61.2746Z" fill="white"/>
<path opacity="0.15" d="M64.3597 38.8222H55.1236C54.8528 38.8222 54.5932 38.9299 54.4017 39.1214C54.2102 39.313 54.1025 39.5725 54.1025 39.8434V45.513C54.0985 45.6496 54.1219 45.7856 54.1714 45.913C54.2209 46.0404 54.2955 46.1564 54.3907 46.2544C54.4859 46.3524 54.5999 46.4304 54.7258 46.4835C54.8517 46.5367 54.987 46.5643 55.1236 46.5642H64.3898C64.5242 46.5652 64.6574 46.5397 64.7818 46.4887C64.9061 46.4377 65.0193 46.3623 65.1143 46.2672C65.2094 46.1722 65.2844 46.0594 65.3354 45.935C65.3864 45.8107 65.4123 45.6775 65.4113 45.5431V39.8811C65.4165 39.7413 65.3929 39.6019 65.342 39.4716C65.2911 39.3413 65.214 39.2229 65.1154 39.1236C65.0168 39.0244 64.8989 38.9463 64.7689 38.8945C64.639 38.8427 64.4996 38.818 64.3597 38.8222Z" fill="#1F1D20"/>
<path opacity="0.15" d="M64.3598 57.6926H55.1237C54.8528 57.6926 54.5933 57.8003 54.4017 57.9918C54.2102 58.1833 54.1025 58.4433 54.1025 58.7141V64.3911C54.1025 64.6619 54.2102 64.9215 54.4017 65.113C54.5933 65.3046 54.8528 65.4122 55.1237 65.4122H64.3899C64.6607 65.4122 64.9206 65.3046 65.1122 65.113C65.3037 64.9215 65.4114 64.6619 65.4114 64.3911V58.7292C65.4124 58.5915 65.3855 58.4549 65.3329 58.3277C65.2802 58.2005 65.2029 58.0852 65.1048 57.9885C65.0068 57.8919 64.8903 57.816 64.7624 57.7652C64.6345 57.7144 64.4974 57.6896 64.3598 57.6926V57.6926Z" fill="#1F1D20"/>
<path opacity="0.15" d="M64.3598 48.2387H55.1237C54.8528 48.2387 54.5933 48.3464 54.4017 48.5379C54.2102 48.7294 54.1025 48.989 54.1025 49.2599V54.9295C54.1025 55.2003 54.2102 55.4599 54.4017 55.6514C54.5933 55.843 54.8528 55.9506 55.1237 55.9506H64.3899C64.5242 55.9516 64.6575 55.9261 64.7818 55.8751C64.9062 55.8241 65.0193 55.7487 65.1144 55.6536C65.2094 55.5586 65.2845 55.4458 65.3355 55.3214C65.3864 55.1971 65.4124 55.0639 65.4114 54.9295V49.2599C65.4114 49.1232 65.3839 48.9879 65.3307 48.862C65.2775 48.7361 65.1996 48.6222 65.1015 48.5269C65.0035 48.4317 64.8872 48.3572 64.7598 48.3077C64.6324 48.2581 64.4964 48.2347 64.3598 48.2387V48.2387Z" fill="#1F1D20"/>
<path d="M61.0202 51.1899H50.4548V51.9409H61.0202V51.1899Z" fill="white"/>
<path d="M64.3598 38.1465H55.1237C54.8528 38.1465 54.5933 38.2542 54.4017 38.4457C54.2102 38.6372 54.1025 38.8968 54.1025 39.1676V44.8373C54.1025 45.1081 54.2102 45.3677 54.4017 45.5592C54.5933 45.7507 54.8528 45.8584 55.1237 45.8584H64.3899C64.5242 45.8594 64.6575 45.8335 64.7818 45.7825C64.9062 45.7315 65.0193 45.6564 65.1144 45.5614C65.2094 45.4664 65.2845 45.3536 65.3355 45.2292C65.3864 45.1049 65.4124 44.9716 65.4114 44.8373V39.1753C65.4114 39.0383 65.3838 38.9027 65.3307 38.7764C65.2776 38.6501 65.1998 38.5356 65.1019 38.4398C65.004 38.344 64.888 38.2687 64.7605 38.2184C64.6331 38.168 64.4968 38.1435 64.3598 38.1465V38.1465Z" fill="#50E6FF"/>
<path d="M64.3598 57.0168H55.1237C54.8528 57.0168 54.5933 57.1245 54.4017 57.316C54.2102 57.5076 54.1025 57.7671 54.1025 58.038V63.7149C54.1025 63.9858 54.2102 64.2457 54.4017 64.4373C54.5933 64.6288 54.8528 64.7365 55.1237 64.7365H64.3899C64.6607 64.7365 64.9206 64.6288 65.1122 64.4373C65.3037 64.2457 65.4114 63.9858 65.4114 63.7149V58.053C65.4124 57.9154 65.3855 57.7791 65.3329 57.6519C65.2802 57.5247 65.2029 57.4094 65.1048 57.3127C65.0068 57.2161 64.8903 57.1403 64.7624 57.0894C64.6345 57.0386 64.4974 57.0138 64.3598 57.0168V57.0168Z" fill="#1F56A3"/>
<path d="M64.3598 47.5703H55.1237C54.8528 47.5703 54.5933 47.6779 54.4017 47.8695C54.2102 48.061 54.1025 48.3209 54.1025 48.5918V54.261C54.1025 54.5319 54.2102 54.7915 54.4017 54.983C54.5933 55.1745 54.8528 55.2822 55.1237 55.2822H64.3899C64.5242 55.2832 64.6575 55.2576 64.7818 55.2066C64.9062 55.1557 65.0193 55.0806 65.1144 54.9855C65.2094 54.8905 65.2845 54.7773 65.3355 54.653C65.3864 54.5286 65.4124 54.3954 65.4114 54.261V48.5918C65.4114 48.4551 65.3839 48.3195 65.3307 48.1936C65.2775 48.0677 65.1996 47.9541 65.1015 47.8588C65.0035 47.7636 64.8872 47.6887 64.7598 47.6392C64.6324 47.5897 64.4964 47.5662 64.3598 47.5703V47.5703Z" fill="#31D1F3"/>
<path d="M50.4926 51.1899H40.8508V51.9409H50.4926V51.1899Z" fill="white"/>
<path opacity="0.15" d="M45.8669 48.2388H36.578C36.3072 48.2388 36.0476 48.3464 35.8561 48.538C35.6646 48.7295 35.5569 48.9891 35.5569 49.2599V54.9295C35.5569 55.2004 35.6646 55.46 35.8561 55.6515C36.0476 55.843 36.3072 55.9507 36.578 55.9507H45.8442C45.9786 55.9517 46.1118 55.9261 46.2362 55.8751C46.3605 55.8242 46.4737 55.7487 46.5687 55.6537C46.6637 55.5587 46.7388 55.4458 46.7898 55.3215C46.8408 55.1971 46.8667 55.0639 46.8657 54.9295V49.2599C46.8658 48.9929 46.7613 48.7365 46.5746 48.5457C46.3879 48.3548 46.1339 48.2447 45.8669 48.2388V48.2388Z" fill="#1F1D20"/>
<path d="M45.8669 47.5703H36.578C36.3072 47.5703 36.0476 47.678 35.8561 47.8695C35.6646 48.061 35.5569 48.321 35.5569 48.5918V54.2611C35.5569 54.5319 35.6646 54.7915 35.8561 54.983C36.0476 55.1745 36.3072 55.2822 36.578 55.2822H45.8442C45.9786 55.2832 46.1118 55.2577 46.2362 55.2067C46.3605 55.1557 46.4737 55.0806 46.5687 54.9856C46.6637 54.8906 46.7388 54.7774 46.7898 54.653C46.8408 54.5287 46.8667 54.3955 46.8657 54.2611V48.5918C46.8658 48.3248 46.7613 48.0685 46.5746 47.8776C46.3879 47.6867 46.1339 47.5762 45.8669 47.5703V47.5703Z" fill="#1B93EB"/>
<path d="M32.3369 42.7418C24.0173 42.7418 17.2722 40.3916 17.2722 37.2893V66.3377C17.2722 69.3224 23.8998 71.7431 32.1254 71.7901H32.3369C40.6566 71.7901 47.4017 69.4399 47.4017 66.3377V37.2893C47.4017 40.3211 40.6566 42.7418 32.3369 42.7418Z" fill="url(#paint2_linear_1037_152)"/>
<path d="M47.4017 37.2894C47.4017 40.3211 40.6566 42.7418 32.3369 42.7418C24.0173 42.7418 17.2722 40.3916 17.2722 37.2894C17.2722 34.1871 24.0173 31.8369 32.3369 31.8369C40.6566 31.8369 47.4017 34.1871 47.4017 37.2894Z" fill="#E8E8E8"/>
<path d="M43.9003 36.8422C43.9003 38.7694 38.7064 40.3205 32.3374 40.3205C25.9683 40.3205 20.7744 38.7694 20.7744 36.8422C20.7744 34.9151 25.9683 33.3875 32.3374 33.3875C38.7064 33.3875 43.9003 34.9386 43.9003 36.8422Z" fill="#50E6FF"/>
<path d="M32.3378 37.7166C29.2362 37.6374 26.144 38.0905 23.1956 39.0562C26.1468 40.004 29.24 40.4334 32.3378 40.3253C35.4419 40.4163 38.5375 39.9547 41.48 38.9622C38.5232 38.0412 35.4333 37.6202 32.3378 37.7166V37.7166Z" fill="#198AB3"/>
<path d="M40.8922 51.814V55.6448H38.5421C38.4116 55.6416 38.2833 55.6106 38.1657 55.5539C38.0482 55.4972 37.9441 55.416 37.8605 55.3157V51.814H34.6877V55.9973C34.6962 56.2918 34.7648 56.5815 34.8893 56.8485C35.0137 57.1155 35.1915 57.3543 35.4116 57.5502C35.6316 57.7461 35.8894 57.8949 36.1691 57.9876C36.4488 58.0802 36.7444 58.1147 37.0379 58.089H40.5397L41.1508 57.7835C41.1508 57.7835 40.8922 58.747 40.5397 58.794H34.9463V61.1442H41.1978C41.5873 61.1511 41.9741 61.0779 42.3342 60.9292C42.6943 60.7804 43.02 60.5592 43.291 60.2793C43.5621 59.9995 43.7727 59.6669 43.9099 59.3022C44.0471 58.9376 44.1079 58.5486 44.0885 58.1595V51.814H40.8922Z" fill="white"/>
<path d="M33.5821 51.8169V50.6653C33.6396 50.2789 33.5577 49.8845 33.351 49.553C33.1443 49.2214 32.8263 48.9742 32.454 48.8557C32.0736 48.736 31.6777 48.6727 31.2789 48.6677C30.8256 48.6477 30.3771 48.7679 29.9945 49.0118C29.6119 49.2556 29.3136 49.6114 29.1402 50.0308L27.3071 54.4961L24.9569 50.0308C24.7935 49.6285 24.514 49.284 24.154 49.0413C23.7941 48.7985 23.3699 48.6684 22.9357 48.6677C22.5267 48.6652 22.1206 48.7368 21.7371 48.8792C20.9146 49.1377 20.7266 49.6782 20.7266 50.5948V58.374H23.4763V53.133L24.9569 56.8228C25.1518 57.2845 25.4789 57.6781 25.8972 57.9542C26.3154 58.2302 26.806 58.3763 27.3071 58.374C28.3412 58.374 28.7642 57.7629 29.1873 56.8228L30.7619 53.274V58.3269H33.5351V51.8169H33.5821Z" fill="white"/>
<defs>
<linearGradient id="paint0_linear_1037_152" x1="49.7585" y1="-12.9592" x2="53.7405" y2="132.811" gradientUnits="userSpaceOnUse">
<stop stop-color="#00ABDE"/>
<stop offset="1" stop-color="#007ED8"/>
</linearGradient>
<linearGradient id="paint1_linear_1037_152" x1="2.96279" y1="-19.7924" x2="98.4903" y2="121.089" gradientUnits="userSpaceOnUse">
<stop stop-color="#007ED8"/>
<stop offset="0.7065" stop-color="#002D4C"/>
</linearGradient>
<linearGradient id="paint2_linear_1037_152" x1="17.2722" y1="54.5397" x2="47.4017" y2="54.5397" gradientUnits="userSpaceOnUse">
<stop stop-color="#005BA1"/>
<stop offset="0.07" stop-color="#0060A9"/>
<stop offset="0.36" stop-color="#0071C8"/>
<stop offset="0.52" stop-color="#0078D4"/>
<stop offset="0.64" stop-color="#0074CD"/>
<stop offset="0.82" stop-color="#006ABB"/>
<stop offset="1" stop-color="#005BA1"/>
</linearGradient>
</defs>
</svg>
