<svg width="103" height="103" viewBox="0 0 103 103" fill="none" xmlns="http://www.w3.org/2000/svg">
<path d="M51.1176 98.7084C25.2676 98.7084 4.30762 77.7584 4.30762 51.8984C4.30762 26.0384 25.2676 5.08838 51.1176 5.08838C76.9676 5.08838 97.9276 26.0484 97.9276 51.8984C97.9276 77.7484 76.9676 98.7084 51.1176 98.7084Z" fill="url(#paint0_linear)"/>
<path fill-rule="evenodd" clip-rule="evenodd" d="M97.0178 51.8983C97.0178 77.2483 76.4678 97.7983 51.1178 97.7983C25.7678 97.7983 5.21778 77.2483 5.21778 51.8983C5.21778 26.5483 25.7678 5.9983 51.1178 5.9983C76.4678 5.9983 97.0178 26.5483 97.0178 51.8983ZM51.1178 2.2583C78.5378 2.2583 100.758 24.4783 100.758 51.8983C100.758 79.3183 78.5278 101.538 51.1178 101.538C23.6978 101.538 1.47778 79.3083 1.47778 51.8983C1.47778 24.4783 23.6978 2.2583 51.1178 2.2583Z" fill="#F2F1F0"/>
<path fill-rule="evenodd" clip-rule="evenodd" d="M94.2076 51.8984C94.2076 75.6984 74.9176 94.9884 51.1176 94.9884C27.3176 94.9884 8.0276 75.6984 8.0276 51.8984C8.0276 28.0984 27.3176 8.80836 51.1176 8.80836C74.9176 8.80836 94.2076 28.0984 94.2076 51.8984ZM51.1176 5.06836C76.9776 5.06836 97.9476 26.0384 97.9476 51.8984C97.9476 77.7584 76.9776 98.7284 51.1176 98.7284C25.2576 98.7284 4.2876 77.7584 4.2876 51.8984C4.2876 26.0384 25.2476 5.06836 51.1176 5.06836Z" fill="url(#paint1_linear)"/>
<path opacity="0.1" d="M86.7976 73.1588L82.0876 75.7387L25.3176 44.5488L30.0476 41.9688L86.7976 73.1588Z" fill="#1F1D21"/>
<path d="M36.2479 26.1385C35.3179 25.2885 34.3379 24.5685 33.3379 24.0785C30.8479 22.7185 28.6479 22.6585 27.0079 23.5085L25.0479 24.6885C26.6879 23.8385 28.8879 23.8985 31.3779 25.2585C32.3779 25.7485 33.2878 26.4685 34.2878 27.3185L35.8579 28.7385L37.8879 27.4885L36.2479 26.1385Z" fill="#A1F6FF"/>
<path d="M73.2076 32.8786C69.6576 24.9286 63.6076 18.0886 56.9976 14.5486C51.6676 11.6986 46.8276 11.4286 43.3376 13.3386L41.3076 14.5886C44.7876 12.6786 49.6276 12.9486 54.9676 15.7986C61.5776 19.3486 67.6276 26.2486 71.1776 34.1486L71.6076 35.1486L73.6276 33.8986L73.2076 32.8786Z" fill="#A1F6FF"/>
<path d="M92.3377 59.1284C92.3377 50.4584 85.7977 39.7984 77.6877 35.4484C76.5377 34.8084 75.4777 34.3884 74.4177 34.0884L73.6277 33.8784L66.1577 38.0184L66.9477 38.2284C68.0077 38.5084 69.0777 38.9284 70.2177 39.5884C78.3277 43.9184 84.8677 54.5884 84.8677 63.2684C84.8677 64.2684 84.7977 65.1784 84.5877 66.1784C84.5877 66.2484 84.5177 66.4584 84.5177 66.5384C84.2377 67.7484 83.6677 69.1084 83.2377 69.6584C83.1677 69.7284 83.1677 69.8084 83.0877 69.8684C83.0177 69.9384 84.1677 68.6884 84.0977 68.7684C83.4577 69.6184 86.7677 68.6984 85.9177 69.1984L87.0877 68.7384C88.0177 68.2484 89.7677 66.7884 90.4077 65.9384C90.4777 65.8684 90.4777 65.7884 90.5577 65.7284C90.6277 65.6584 90.6277 65.5784 90.7077 65.5184C91.1377 64.9484 91.7077 63.6084 91.9877 62.3984C91.9877 62.3284 92.0577 62.1184 92.0577 62.0384L85.7677 65.5784L92.0577 62.0384C92.2577 61.1084 92.3377 60.1084 92.3377 59.1284Z" fill="#A1F6FF"/>
<path d="M75.5977 68.3384C80.8677 71.1884 85.7677 70.7584 88.3877 67.1984C88.4577 67.1284 88.4577 67.0484 88.5377 66.9884C88.6077 66.9184 88.6077 66.8384 88.6877 66.7784C89.1177 66.2084 89.6877 64.8684 89.9677 63.6584C89.9677 63.5884 90.0377 63.3784 90.0377 63.2984C90.2477 62.2984 90.3177 61.3884 90.3177 60.3884C90.3377 51.7184 83.7877 41.0584 75.6777 36.7084C74.5377 36.0684 73.4677 35.6484 72.4077 35.3484L71.6177 35.1384L71.1877 34.1384C68.0777 27.2384 63.0577 21.0984 57.4177 17.2884V17.3384V17.2884C57.1577 17.1084 56.9077 16.9784 56.6277 16.8184V16.7884C56.0877 16.4484 55.5277 16.0884 54.9777 15.7884C54.9077 15.7584 54.8277 15.7184 54.7677 15.6884L54.7577 18.5384L54.7677 15.6884C54.4877 15.5384 54.2277 15.4284 53.9677 15.2984C53.3477 15.0084 52.7277 14.7284 52.1177 14.4984L52.1077 16.5284H52.0877L52.0977 14.5184C51.8377 14.4184 51.5577 14.3084 51.2977 14.2284L51.2877 16.5684L51.2977 14.2184C50.6577 14.0084 50.0377 13.8384 49.4377 13.7084V13.7784V13.7084C49.1777 13.6384 48.9177 13.6084 48.6377 13.5784V13.5884C48.0077 13.4784 47.3877 13.4084 46.7877 13.3984L46.7777 16.7484L46.7877 13.3984C46.5277 13.3984 46.2477 13.3784 45.9877 13.3784V13.3984C45.3477 13.4184 44.7277 13.4784 44.1277 13.6084L44.1177 16.8584H44.0977L44.1077 13.5784C43.8277 13.6284 43.5677 13.7084 43.3077 13.7884V13.8284C38.6977 15.1184 35.7177 19.4284 35.7177 26.0384C35.7177 26.3184 35.7177 26.6084 35.7177 26.8884L35.7877 28.7384L34.2177 27.3184C33.2177 26.4684 32.3077 25.7484 31.3077 25.2584C26.3977 22.6384 22.4277 24.7684 22.4277 30.0384C22.4277 32.4584 23.2177 35.1584 24.6977 37.7284C26.1377 40.1984 28.0477 42.2784 30.1077 43.6784L31.2377 42.9784L30.1077 43.6784C30.1777 43.7284 30.2377 43.7884 30.3077 43.8284L31.1577 44.2884L32.3677 43.5684L32.3777 43.5784L31.1577 44.2884L32.6777 45.1084L75.5977 68.3384Z" fill="white"/>
<path d="M71.4276 41.6784C71.7676 41.8684 72.0576 42.2984 72.1676 42.7184L74.1376 50.6384L72.8276 54.2984L70.6976 53.0684C70.3676 52.8784 70.2076 53.2484 70.4476 53.6484L72.0876 56.3584L71.1276 59.0584C71.0176 59.3684 70.7176 59.4384 70.3776 59.2384L66.5176 57.0084C65.9776 56.6984 65.5976 55.8784 65.7776 55.3784L70.6176 41.8184C70.7276 41.5184 71.0276 41.4384 71.3676 41.6384L71.4276 41.6784Z" fill="url(#paint2_linear)"/>
<path d="M82.4477 65.0085C82.6177 65.6985 82.2377 66.0885 81.6977 65.7785L80.4277 65.0485L76.1777 62.5885C76.7177 62.8985 77.0977 62.5185 76.9277 61.8185L75.4277 55.7985L74.1477 50.6485L72.1777 42.7285C72.0677 42.3085 71.7677 41.8785 71.4377 41.6885L76.9577 44.8785C77.2977 45.0685 77.5877 45.4985 77.6977 45.9185L82.4477 65.0085Z" fill="url(#paint3_linear)"/>
<path d="M75.4277 55.7984L76.9277 61.8184C77.0977 62.5084 76.7177 62.8984 76.1777 62.5884L76.0877 62.5384L76.1777 62.5884L80.4277 65.0484L75.9977 62.4984C75.7977 62.3884 75.6077 62.1884 75.4677 61.9484L72.0977 56.3784L70.4577 53.6684C70.2177 53.2684 70.3777 52.8984 70.7077 53.0884L72.8377 54.3184L75.4277 55.7984Z" fill="#0078D4"/>
<path d="M34.8078 81.3584C34.7678 81.3584 34.7178 81.3484 34.6778 81.3284L14.8578 70.3884C14.7778 70.3384 14.7178 70.2484 14.7178 70.1584C14.7178 70.0684 14.7678 69.9684 14.8578 69.9284L28.5378 62.3884C28.6678 62.3184 28.8278 62.3684 28.8978 62.4884C28.9678 62.6184 28.9178 62.7784 28.7978 62.8484L15.5378 70.1584L34.8078 80.7884L48.4778 73.3784C48.6078 73.3084 48.7678 73.3584 48.8378 73.4884C48.9078 73.6184 48.8578 73.7784 48.7278 73.8484L34.9278 81.3284C34.8978 81.3484 34.8578 81.3584 34.8078 81.3584Z" fill="white"/>
<path opacity="0.25" d="M43.2875 64.2185L29.3875 72.2385L18.9575 66.5985L33.3075 58.6685L43.2875 64.2185Z" fill="#1F1D21"/>
<path d="M43.1876 56.9786L29.5376 64.9286L19.0176 59.2786L32.6676 51.3286L43.1876 56.9786Z" fill="#84ECFD"/>
<path d="M43.1876 56.9785L43.1476 63.2285L29.4976 71.1785L29.5376 64.9285L43.1876 56.9785Z" fill="url(#paint4_linear)"/>
<path d="M29.5375 64.9288L29.4975 71.1788L18.9775 65.5288L19.0175 59.2788L29.5375 64.9288Z" fill="url(#paint5_linear)"/>
<path d="M43.1876 49.8185L29.5376 57.7185L19.0176 52.0685L32.6676 44.1685L43.1876 49.8185Z" fill="#84ECFD"/>
<path d="M43.1876 49.8188L43.1476 56.0688L29.4976 63.9688L29.5376 57.7188L43.1876 49.8188Z" fill="url(#paint6_linear)"/>
<path d="M29.5375 57.7186L29.4975 63.9686L18.9775 58.3086L19.0175 52.0586L29.5375 57.7186Z" fill="url(#paint7_linear)"/>
<path d="M43.1876 42.6087L29.5376 50.5087L19.0176 44.8987L32.6676 36.9487L43.1876 42.6087Z" fill="#84ECFD"/>
<path d="M43.1876 42.6084L43.1476 48.8584L29.4976 56.7584L29.5376 50.5084L43.1876 42.6084Z" fill="url(#paint8_linear)"/>
<path d="M29.5375 50.5084L29.4975 56.7584L18.9775 51.1484L19.0175 44.8984L29.5375 50.5084Z" fill="url(#paint9_linear)"/>
<path d="M43.1876 35.4786L29.5376 43.3786L19.0176 37.7786L32.6676 29.8286L43.1876 35.4786Z" fill="#84ECFD"/>
<path d="M43.1876 35.4785L43.1476 41.7285L29.4976 49.6285L29.5376 43.3785L43.1876 35.4785Z" fill="url(#paint10_linear)"/>
<path d="M29.5375 43.3886L29.4975 49.6386L18.9775 44.0386L19.0175 37.7886L29.5375 43.3886Z" fill="url(#paint11_linear)"/>
<path d="M33.4476 67.0884V66.6284L33.0376 66.8584V67.3184L33.4476 67.0884Z" fill="#2195DC"/>
<path d="M33.4476 66.3984V65.8984L33.0376 66.1684V66.6284L33.4476 66.3984Z" fill="#2195DC"/>
<path d="M33.4476 65.6685V65.2085L33.0376 65.4385V65.8985L33.4476 65.6685Z" fill="#2195DC"/>
<path d="M33.4476 64.9786V64.5186L33.0376 64.7486V65.2086L33.4476 64.9786Z" fill="#2195DC"/>
<path d="M32.8575 67.4087V66.9487L32.4475 67.1787V67.6387L32.8575 67.4087Z" fill="#2195DC"/>
<path d="M32.8575 66.7188V66.2588L32.4475 66.4888V66.9488L32.8575 66.7188Z" fill="#2195DC"/>
<path d="M32.8575 66.0288V65.5688L32.4475 65.7989V66.2589L32.8575 66.0288Z" fill="#2195DC"/>
<path d="M32.8575 65.3384V64.8784L32.4475 65.1084V65.5684L32.8575 65.3384Z" fill="#2195DC"/>
<path d="M32.2574 67.7788V67.3188L31.8474 67.5489V68.0089L32.2574 67.7788Z" fill="#2195DC"/>
<path d="M32.2574 67.0884V66.6284L31.8474 66.8584V67.3184L32.2574 67.0884Z" fill="#2195DC"/>
<path d="M32.2574 66.3985V65.9385L31.8474 66.1685V66.6285L32.2574 66.3985Z" fill="#2195DC"/>
<path d="M32.2574 65.6685V65.2085L31.8474 65.4385V65.8985L32.2574 65.6685Z" fill="#2195DC"/>
<path d="M31.6576 68.0987V67.6387L31.2476 67.8687V68.3287L31.6576 68.0987Z" fill="#2195DC"/>
<path d="M31.6576 67.4087V66.9487L31.2476 67.1787V67.6387L31.6576 67.4087Z" fill="#2195DC"/>
<path d="M31.6576 66.7188V66.2588L31.2476 66.4888V66.9488L31.6576 66.7188Z" fill="#2195DC"/>
<path d="M31.6576 66.0288V65.5688L31.2476 65.7989V66.2589L31.6576 66.0288Z" fill="#2195DC"/>
<path d="M32.8574 50.1786L33.4574 49.8086V50.4986L32.8574 50.8686V50.1786ZM33.2574 50.1786L33.0674 50.3186V50.5486L33.2574 50.4086V50.1786Z" fill="#45CAF2"/>
<path d="M32.8574 51.0985L33.4574 50.7285V51.4185L32.8574 51.7885V51.0985ZM33.2574 51.0985L33.0674 51.2385V51.4685L33.2574 51.3285V51.0985Z" fill="#45CAF2"/>
<path d="M32.8574 52.0184L33.4574 51.6484V52.3384L32.8574 52.7084V52.0184ZM33.2574 52.0184L33.0674 52.1584V52.3884L33.2574 52.2484V52.0184Z" fill="#45CAF2"/>
<path d="M32.0676 52.4784L32.6676 52.1084V52.7984L32.0676 53.1684V52.4784V52.4784ZM32.4376 52.4784L32.2476 52.6184V52.8484L32.4376 52.7084V52.4784Z" fill="#45CAF2"/>
<path d="M32.0276 50.6386L32.6276 50.2686V50.9586L32.0276 51.3286V50.6386V50.6386ZM32.4376 50.6386L32.2476 50.7786V51.0086L32.4376 50.8686V50.6386Z" fill="#45CAF2"/>
<path d="M32.0276 51.5585L32.6276 51.1885V51.8785L32.0276 52.2485V51.5585V51.5585ZM32.4376 51.5585L32.2476 51.6985V51.9285L32.4376 51.7885V51.5585Z" fill="#45CAF2"/>
<path d="M31.2476 51.0985L31.8476 50.7285V51.4185L31.2476 51.7885V51.0985ZM31.6576 51.0985L31.4676 51.2385V51.4685L31.6576 51.3285V51.0985Z" fill="#45CAF2"/>
<path d="M31.2476 52.0184L31.8476 51.6484V52.3384L31.2476 52.7084V52.0184ZM31.6576 52.0184L31.4676 52.1584V52.3884L31.6576 52.2484V52.0184Z" fill="#45CAF2"/>
<path d="M31.2476 52.9389L31.8476 52.5688V53.2589L31.2476 53.6288V52.9389ZM31.6576 52.9389L31.4676 53.0788V53.3088L31.6576 53.1688V52.9389Z" fill="#45CAF2"/>
<path d="M33.4474 59.7784V59.0884L32.8474 59.4084V60.1384L33.4474 59.7784Z" fill="#32B0E7"/>
<path d="M33.4474 57.9487V57.2188L32.8474 57.5887V58.2788L33.4474 57.9487Z" fill="#32B0E7"/>
<path d="M33.4474 58.8585V58.1685L32.8474 58.4885V59.1785L33.4474 58.8585Z" fill="#32B0E7"/>
<path d="M32.6676 59.3184V58.6284L32.0276 58.9484V59.6784L32.6676 59.3184Z" fill="#32B0E7"/>
<path d="M32.6676 60.2388V59.5488L32.0276 59.9188V60.6088L32.6676 60.2388Z" fill="#32B0E7"/>
<path d="M32.6676 58.4087L32.6276 57.7188L32.0276 58.0387V58.7288L32.6676 58.4087Z" fill="#32B0E7"/>
<path d="M31.8375 58.8585V58.1685L31.2375 58.4885V59.1785L31.8375 58.8585Z" fill="#32B0E7"/>
<path d="M31.8375 59.7784V59.0884L31.2375 59.4584V60.1484L31.8375 59.7784Z" fill="#32B0E7"/>
<path d="M31.8375 60.6988V60.0088L31.2375 60.3788V61.0688L31.8375 60.6988Z" fill="#32B0E7"/>
<path d="M32.8574 45.4488V44.2988L31.8474 44.8988V46.0488L32.8574 45.4488Z" fill="#50E6FF"/>
<path d="M31.2476 44.5288L33.4476 43.2388V45.8088L31.2476 47.0988V44.5288ZM33.0276 43.9288L31.6076 44.7588V46.3688L33.0276 45.5388V43.9288Z" fill="#50E6FF"/>
<path opacity="0.25" d="M59.6676 72.1481L45.7676 80.1681L35.3376 74.5281L49.6876 66.5981L59.6676 72.1481Z" fill="#1F1D21"/>
<path d="M59.5577 64.9083L45.9177 72.8583L35.3977 67.2083L49.0477 59.2583L59.5577 64.9083Z" fill="#84ECFD"/>
<path d="M59.5577 64.9082L59.5177 71.1582L45.8677 79.1082L45.9077 72.8582L59.5577 64.9082Z" fill="url(#paint12_linear)"/>
<path d="M45.9177 72.8585L45.8777 79.1085L35.3577 73.4585L35.3977 67.2085L45.9177 72.8585Z" fill="url(#paint13_linear)"/>
<path d="M59.5577 57.7481L45.9077 65.6481L35.3977 59.9981L49.0477 52.0981L59.5577 57.7481Z" fill="#84ECFD"/>
<path d="M59.5577 57.7485L59.5177 63.9985L45.8677 71.8985L45.9077 65.6485L59.5577 57.7485Z" fill="url(#paint14_linear)"/>
<path d="M45.9177 65.6483L45.8677 71.8983L35.3477 66.2383L35.3877 59.9883L45.9177 65.6483Z" fill="url(#paint15_linear)"/>
<path d="M59.5577 50.5382L45.9077 58.4382L35.3877 52.8382L49.0377 44.8882L59.5577 50.5382Z" fill="#84ECFD"/>
<path d="M59.5577 50.5381L59.5177 56.7881L45.8677 64.6881L45.9077 58.4381L59.5577 50.5381Z" fill="url(#paint16_linear)"/>
<path d="M45.9177 58.4381L45.8777 64.6881L35.3577 59.0781L35.3977 52.8281L45.9177 58.4381Z" fill="url(#paint17_linear)"/>
<path d="M59.5577 43.4083L45.9077 51.3083L35.3877 45.7083L49.0377 37.7583L59.5577 43.4083Z" fill="#84ECFD"/>
<path d="M59.5577 43.4082L59.5177 49.6582L45.8677 57.5582L45.9077 51.3082L59.5577 43.4082Z" fill="url(#paint18_linear)"/>
<path d="M45.9177 51.3183L45.8777 57.5683L35.3577 51.9683L35.3977 45.7183L45.9177 51.3183Z" fill="url(#paint19_linear)"/>
<path d="M49.8177 75.0181V74.5581L49.4077 74.7881V75.2481L49.8177 75.0181Z" fill="#2195DC"/>
<path d="M49.8177 74.3281V73.8281L49.4077 74.0981V74.5581L49.8177 74.3281Z" fill="#2195DC"/>
<path d="M49.8177 73.5982V73.1382L49.4077 73.3682V73.8282L49.8177 73.5982Z" fill="#2195DC"/>
<path d="M49.8177 72.9082V72.4482L49.4077 72.6782V73.1382L49.8177 72.9082Z" fill="#2195DC"/>
<path d="M49.2276 75.3384V74.8784L48.8176 75.1084V75.5684L49.2276 75.3384Z" fill="#2195DC"/>
<path d="M49.2276 74.6485V74.1885L48.8176 74.4185V74.8785L49.2276 74.6485Z" fill="#2195DC"/>
<path d="M49.2276 73.9585V73.4985L48.8176 73.7285V74.1885L49.2276 73.9585Z" fill="#2195DC"/>
<path d="M49.2276 73.2681V72.8081L48.8176 73.0381V73.4981L49.2276 73.2681Z" fill="#2195DC"/>
<path d="M48.6275 75.7085V75.2485L48.2175 75.4785V75.9385L48.6275 75.7085Z" fill="#2195DC"/>
<path d="M48.6275 75.0181V74.5581L48.2175 74.7881V75.2481L48.6275 75.0181Z" fill="#2195DC"/>
<path d="M48.6275 74.3282V73.8682L48.2175 74.0982V74.5582L48.6275 74.3282Z" fill="#2195DC"/>
<path d="M48.6275 73.5982V73.1382L48.2175 73.3682V73.8282L48.6275 73.5982Z" fill="#2195DC"/>
<path d="M48.0277 76.0284V75.5684L47.6177 75.7984V76.2584L48.0277 76.0284Z" fill="#2195DC"/>
<path d="M48.0277 75.3384V74.8784L47.6177 75.1084V75.5684L48.0277 75.3384Z" fill="#2195DC"/>
<path d="M48.0277 74.6485V74.1885L47.6177 74.4185V74.8785L48.0277 74.6485Z" fill="#2195DC"/>
<path d="M48.0277 73.9585V73.4985L47.6177 73.7285V74.1885L48.0277 73.9585Z" fill="#2195DC"/>
<path d="M49.2275 58.1083L49.8275 57.7383V58.4283L49.2275 58.7983V58.1083ZM49.6375 58.1083L49.4475 58.2483V58.4783L49.6375 58.3383V58.1083Z" fill="#45CAF2"/>
<path d="M49.2275 59.0282L49.8275 58.6582V59.3482L49.2275 59.7182V59.0282ZM49.6375 59.0282L49.4475 59.1682V59.3982L49.6375 59.2582V59.0282Z" fill="#45CAF2"/>
<path d="M49.2275 59.9481L49.8275 59.5781V60.2681L49.2275 60.6381V59.9481ZM49.6375 59.9481L49.4475 60.0881V60.3181L49.6375 60.1781V59.9481Z" fill="#45CAF2"/>
<path d="M48.4377 60.4081L49.0377 60.0381V60.7281L48.4377 61.0981V60.4081ZM48.8077 60.4081L48.6177 60.5481V60.7781L48.8077 60.6381V60.4081Z" fill="#45CAF2"/>
<path d="M48.3977 58.5682L48.9977 58.1982V58.8882L48.3977 59.2582V58.5682ZM48.8077 58.5682L48.6177 58.7082V58.9382L48.8077 58.7982V58.5682Z" fill="#45CAF2"/>
<path d="M48.3977 59.4882L48.9977 59.1182V59.8082L48.3977 60.1782V59.4882ZM48.8077 59.4882L48.6177 59.6282V59.8582L48.8077 59.7182V59.4882Z" fill="#45CAF2"/>
<path d="M47.6177 59.0282L48.2177 58.6582V59.3482L47.6177 59.7182V59.0282ZM48.0277 59.0282L47.8377 59.1682V59.3982L48.0277 59.2582V59.0282Z" fill="#45CAF2"/>
<path d="M47.6177 59.9481L48.2177 59.5781V60.2681L47.6177 60.6381V59.9481ZM48.0277 59.9481L47.8377 60.0881V60.3181L48.0277 60.1781V59.9481Z" fill="#45CAF2"/>
<path d="M47.6177 60.8685L48.2177 60.4985V61.1885L47.6177 61.5585V60.8685ZM48.0277 60.8685L47.8377 61.0085V61.2385L48.0277 61.0985V60.8685Z" fill="#45CAF2"/>
<path d="M49.8175 67.7081V67.0181L49.2175 67.3381V68.0681L49.8175 67.7081Z" fill="#32B0E7"/>
<path d="M49.8175 65.8784V65.1484L49.2175 65.5184V66.2084L49.8175 65.8784Z" fill="#32B0E7"/>
<path d="M49.8175 66.7881V66.0981L49.2175 66.4181V67.1081L49.8175 66.7881Z" fill="#32B0E7"/>
<path d="M49.0377 67.2481V66.5581L48.3977 66.8781V67.6081L49.0377 67.2481Z" fill="#32B0E7"/>
<path d="M49.0377 68.1685V67.4785L48.3977 67.8485V68.5385L49.0377 68.1685Z" fill="#32B0E7"/>
<path d="M49.0377 66.3384L48.9977 65.6484L48.3977 65.9684V66.6584L49.0377 66.3384Z" fill="#32B0E7"/>
<path d="M48.2077 66.7881V66.0981L47.6077 66.4181V67.1081L48.2077 66.7881Z" fill="#32B0E7"/>
<path d="M48.2077 67.7081V67.0181L47.6077 67.3881V68.0781L48.2077 67.7081Z" fill="#32B0E7"/>
<path d="M48.2077 68.6285V67.9385L47.6077 68.3085V68.9985L48.2077 68.6285Z" fill="#32B0E7"/>
<path d="M49.2275 53.3785V52.2285L48.2175 52.8285V53.9785L49.2275 53.3785Z" fill="#50E6FF"/>
<path d="M47.6177 52.4585L49.8177 51.1685V53.7385L47.6177 55.0285V52.4585ZM49.4077 51.8585L47.9877 52.6885V54.2985L49.4077 53.4685V51.8585Z" fill="#50E6FF"/>
<defs>
<linearGradient id="paint0_linear" x1="49.3474" y1="-12.8948" x2="53.3304" y2="132.874" gradientUnits="userSpaceOnUse">
<stop stop-color="#00ABDE"/>
<stop offset="1" stop-color="#007ED8"/>
</linearGradient>
<linearGradient id="paint1_linear" x1="51.1176" y1="-1.59354" x2="51.1176" y2="100.17" gradientUnits="userSpaceOnUse">
<stop stop-color="#007ED8"/>
<stop offset="0.7065" stop-color="#002D4C"/>
</linearGradient>
<linearGradient id="paint2_linear" x1="70.0201" y1="43.4383" x2="69.904" y2="58.417" gradientUnits="userSpaceOnUse">
<stop stop-color="#114A8B"/>
<stop offset="1" stop-color="#0669BC"/>
</linearGradient>
<linearGradient id="paint3_linear" x1="73.6153" y1="42.8032" x2="80.1178" y2="65.2134" gradientUnits="userSpaceOnUse">
<stop stop-color="#3CCBF4"/>
<stop offset="1" stop-color="#2892DF"/>
</linearGradient>
<linearGradient id="paint4_linear" x1="38.4304" y1="31.0681" x2="36.0291" y2="69.0086" gradientUnits="userSpaceOnUse">
<stop stop-color="#50E6FF"/>
<stop offset="0.7998" stop-color="#0078D4"/>
</linearGradient>
<linearGradient id="paint5_linear" x1="24.7954" y1="42.5142" x2="24.0575" y2="73.6898" gradientUnits="userSpaceOnUse">
<stop stop-color="#50E6FF"/>
<stop offset="0.7998" stop-color="#0078D4"/>
</linearGradient>
<linearGradient id="paint6_linear" x1="37.9773" y1="31.0397" x2="35.576" y2="68.98" gradientUnits="userSpaceOnUse">
<stop stop-color="#50E6FF"/>
<stop offset="0.7998" stop-color="#0078D4"/>
</linearGradient>
<linearGradient id="paint7_linear" x1="24.6248" y1="42.5099" x2="23.887" y2="73.6853" gradientUnits="userSpaceOnUse">
<stop stop-color="#50E6FF"/>
<stop offset="0.7998" stop-color="#0078D4"/>
</linearGradient>
<linearGradient id="paint8_linear" x1="37.5226" y1="31.0106" x2="35.1213" y2="68.9511" gradientUnits="userSpaceOnUse">
<stop stop-color="#50E6FF"/>
<stop offset="0.7998" stop-color="#0078D4"/>
</linearGradient>
<linearGradient id="paint9_linear" x1="24.4547" y1="42.5057" x2="23.7169" y2="73.6812" gradientUnits="userSpaceOnUse">
<stop stop-color="#50E6FF"/>
<stop offset="0.7998" stop-color="#0078D4"/>
</linearGradient>
<linearGradient id="paint10_linear" x1="37.0737" y1="30.9823" x2="34.6725" y2="68.923" gradientUnits="userSpaceOnUse">
<stop stop-color="#50E6FF"/>
<stop offset="0.7998" stop-color="#0078D4"/>
</linearGradient>
<linearGradient id="paint11_linear" x1="24.2863" y1="42.502" x2="23.5484" y2="73.6772" gradientUnits="userSpaceOnUse">
<stop stop-color="#50E6FF"/>
<stop offset="0.7998" stop-color="#0078D4"/>
</linearGradient>
<linearGradient id="paint12_linear" x1="54.8049" y1="38.9979" x2="52.4035" y2="76.9383" gradientUnits="userSpaceOnUse">
<stop stop-color="#50E6FF"/>
<stop offset="0.7998" stop-color="#0078D4"/>
</linearGradient>
<linearGradient id="paint13_linear" x1="41.1699" y1="50.444" x2="40.4321" y2="81.6195" gradientUnits="userSpaceOnUse">
<stop stop-color="#50E6FF"/>
<stop offset="0.7998" stop-color="#0078D4"/>
</linearGradient>
<linearGradient id="paint14_linear" x1="54.3518" y1="38.9695" x2="51.9505" y2="76.9098" gradientUnits="userSpaceOnUse">
<stop stop-color="#50E6FF"/>
<stop offset="0.7998" stop-color="#0078D4"/>
</linearGradient>
<linearGradient id="paint15_linear" x1="40.9994" y1="50.4397" x2="40.2615" y2="81.6151" gradientUnits="userSpaceOnUse">
<stop stop-color="#50E6FF"/>
<stop offset="0.7998" stop-color="#0078D4"/>
</linearGradient>
<linearGradient id="paint16_linear" x1="53.8971" y1="38.9404" x2="51.4958" y2="76.8808" gradientUnits="userSpaceOnUse">
<stop stop-color="#50E6FF"/>
<stop offset="0.7998" stop-color="#0078D4"/>
</linearGradient>
<linearGradient id="paint17_linear" x1="40.8293" y1="50.4355" x2="40.0914" y2="81.611" gradientUnits="userSpaceOnUse">
<stop stop-color="#50E6FF"/>
<stop offset="0.7998" stop-color="#0078D4"/>
</linearGradient>
<linearGradient id="paint18_linear" x1="53.4482" y1="38.912" x2="51.0469" y2="76.8527" gradientUnits="userSpaceOnUse">
<stop stop-color="#50E6FF"/>
<stop offset="0.7998" stop-color="#0078D4"/>
</linearGradient>
<linearGradient id="paint19_linear" x1="40.6609" y1="50.4318" x2="39.9229" y2="81.607" gradientUnits="userSpaceOnUse">
<stop stop-color="#50E6FF"/>
<stop offset="0.7998" stop-color="#0078D4"/>
</linearGradient>
</defs>
</svg>
