<?xml version="1.0" encoding="UTF-8"?>
<svg width="100px" height="100px" viewBox="0 0 100 100" version="1.1" xmlns="http://www.w3.org/2000/svg" xmlns:xlink="http://www.w3.org/1999/xlink">
    <!-- Generator: Sketch 55.1 (78136) - https://sketchapp.com -->
    <title>NA/export-large-amounts-of-data-using-azure-import-export</title>
    <desc>Created with Sketch.</desc>
    <defs>
        <rect id="path-1" x="0" y="0" width="96" height="96" rx="48"></rect>
        <filter x="-9.2%" y="-7.0%" width="115.8%" height="112.0%" filterUnits="objectBoundingBox" id="filter-3">
            <feOffset dx="0" dy="1" in="SourceAlpha" result="shadowOffsetOuter1"></feOffset>
            <feColorMatrix values="0 0 0 0 0   0 0 0 0 0   0 0 0 0 0  0 0 0 0.101873868 0" type="matrix" in="shadowOffsetOuter1" result="shadowMatrixOuter1"></feColorMatrix>
            <feMerge>
                <feMergeNode in="shadowMatrixOuter1"></feMergeNode>
                <feMergeNode in="SourceGraphic"></feMergeNode>
            </feMerge>
        </filter>
        <filter x="-8.0%" y="-9.4%" width="116.0%" height="115.6%" filterUnits="objectBoundingBox" id="filter-4">
            <feOffset dx="0" dy="2" in="SourceAlpha" result="shadowOffsetOuter1"></feOffset>
            <feColorMatrix values="0 0 0 0 0   0 0 0 0 0   0 0 0 0 0  0 0 0 0.099071558 0" type="matrix" in="shadowOffsetOuter1" result="shadowMatrixOuter1"></feColorMatrix>
            <feMerge>
                <feMergeNode in="shadowMatrixOuter1"></feMergeNode>
                <feMergeNode in="SourceGraphic"></feMergeNode>
            </feMerge>
        </filter>
    </defs>
    <g id="Badges" stroke="none" stroke-width="1" fill="none" fill-rule="evenodd">
        <g id="N/A-25" transform="translate(-50.000000, -1060.000000)">
            <g id="NA/export-large-amounts-of-data-using-azure-import-export" transform="translate(50.000000, 1060.000000)">
                <g id="Mask" transform="translate(2.000000, 2.000000)">
                    <mask id="mask-2" fill="white">
                        <use xlink:href="#path-1"></use>
                    </mask>
                    <use id="BG" fill="#55A2FF" xlink:href="#path-1"></use>
                    <g id="Data" filter="url(#filter-3)" mask="url(#mask-2)" fill="#FFFFFF" stroke="#FFFFFF">
                        <g transform="translate(29.034483, 55.500000)">
                            <path d="M2.62492587,0.327891931 C1.25535205,0.327891931 0.140621029,1.58359659 0.140621029,3.12672459 C0.140621029,4.6684596 1.25535205,5.92277125 2.62492587,5.92277125 C3.99449969,5.92277125 5.10776825,4.6684596 5.10776825,3.12672459 C5.10776825,1.58359659 3.99303723,0.327891931 2.62492587,0.327891931 Z M2.62492587,5.20983846 C1.66840288,5.20983846 0.890599849,4.275025 0.890599849,3.12815332 C0.890599849,1.97988863 1.66840288,1.04368216 2.62492587,1.04368216 C3.5799864,1.04368216 4.35778943,1.97849563 4.35778943,3.12815332 C4.35778943,4.275025 3.5799864,5.20983846 2.62492587,5.20983846 Z" id="Fill-1"></path>
                            <path d="M8.70237924,0.327891931 C8.49584257,0.327891931 8.32738983,0.488344669 8.32738983,0.685072684 L8.32738983,5.56559049 C8.32738983,5.76231851 8.49584257,5.92277125 8.70237924,5.92277125 C8.9089159,5.92277125 9.07736865,5.76231851 9.07736865,5.56559049 L9.07736865,0.685072684 C9.07736865,0.488344669 8.91038211,0.327891931 8.70237924,0.327891931 Z" id="Fill-2"></path>
                            <path d="M14.7798326,0.327891931 C13.4102588,0.327891931 12.2955278,1.58359659 12.2955278,3.12672459 C12.2955278,4.6684596 13.4087963,5.92277125 14.7798326,5.92277125 C16.1494064,5.92277125 17.2641374,4.6684596 17.2641374,3.12672459 C17.2641374,1.58359659 16.1494064,0.327891931 14.7798326,0.327891931 Z M14.7798326,5.20983846 C13.8247721,5.20983846 13.0455066,4.275025 13.0455066,3.12815332 C13.0455066,1.97988863 13.8233096,1.04368216 14.7798326,1.04368216 C15.7363556,1.04368216 16.5141586,1.97849563 16.5141586,3.12815332 C16.5141586,4.275025 15.7363556,5.20983846 14.7798326,5.20983846 Z" id="Fill-3"></path>
                            <path d="M20.8587859,5.92419997 C21.0653226,5.92419997 21.2337753,5.76374723 21.2337753,5.56701922 L21.2337753,0.686501407 C21.2337753,0.489773392 21.0653226,0.329320654 20.8587859,0.329320654 C20.6522493,0.329320654 20.4837965,0.489773392 20.4837965,0.686501407 L20.4837965,5.56701922 C20.4837965,5.76374723 20.6507831,5.92419997 20.8587859,5.92419997 Z" id="Fill-4"></path>
                            <path d="M24.8269239,0.327891931 C24.6203872,0.327891931 24.4519345,0.488344669 24.4519345,0.685072684 L24.4519345,5.56559049 C24.4519345,5.76231851 24.6203872,5.92277125 24.8269239,5.92277125 C25.0334605,5.92277125 25.2019133,5.76231851 25.2019133,5.56559049 L25.2019133,0.685072684 C25.2019133,0.488344669 25.0349267,0.327891931 24.8269239,0.327891931 Z" id="Fill-5"></path>
                            <path d="M28.7965618,0.327891931 C28.5900251,0.327891931 28.4215723,0.488344669 28.4215723,0.685072684 L28.4215723,5.56559049 C28.4215723,5.76231851 28.5900251,5.92277125 28.7965618,5.92277125 C29.0030984,5.92277125 29.1715512,5.76231851 29.1715512,5.56559049 L29.1715512,0.685072684 C29.1715512,0.488344669 29.0045646,0.327891931 28.7965618,0.327891931 Z" id="Fill-6"></path>
                            <path d="M34.8755151,5.92419997 C36.2450889,5.92419997 37.3598199,4.66988832 37.3598199,3.12815332 C37.3598199,1.58502531 36.2465514,0.329320654 34.8755151,0.329320654 C33.5059413,0.329320654 32.3912088,1.58502531 32.3912088,3.12815332 C32.389744,4.66849531 33.5059413,5.92419997 34.8755151,5.92419997 Z M34.8755151,1.04225344 C35.8305756,1.04225344 36.6098411,1.9770669 36.6098411,3.12672459 C36.6098411,4.27498928 35.8320381,5.20840974 34.8755151,5.20840974 C33.9189921,5.20840974 33.141187,4.27359627 33.141187,3.12672459 C33.1397228,1.97703119 33.9189921,1.04225344 34.8755151,1.04225344 Z" id="Fill-7"></path>
                            <path d="M34.8755151,8.98809647 C33.5059413,8.98809647 32.3912102,10.2438011 32.3912102,11.7869291 C32.3912102,13.3286641 33.5059413,14.5843688 34.8755151,14.5843688 C36.2450889,14.5843688 37.3598199,13.3286641 37.3598199,11.7869291 C37.3583537,10.2438011 36.2436264,8.98809647 34.8755151,8.98809647 Z M34.8755151,13.870043 C33.9189921,13.870043 33.1411891,12.9352295 33.1411891,11.7869648 C33.1411891,10.6387002 33.9189921,9.70249369 34.8755151,9.70249369 C35.8305756,9.70249369 36.6098411,10.6373072 36.6098411,11.7869648 C36.6083749,12.9352295 35.8305756,13.870043 34.8755151,13.870043 Z" id="Fill-8"></path>
                            <path d="M28.7965618,8.98809647 C28.5900251,8.98809647 28.4215723,9.14854921 28.4215723,9.34527722 L28.4215723,14.225795 C28.4215723,14.422523 28.5900251,14.5829758 28.7965618,14.5829758 C29.0030984,14.5829758 29.1715512,14.422523 29.1715512,14.225795 L29.1715512,9.34527722 C29.1715512,9.14854921 29.0045646,8.98809647 28.7965618,8.98809647 Z" id="Fill-9"></path>
                            <path d="M22.7191084,8.98809647 C21.3495346,8.98809647 20.2348035,10.2438011 20.2348035,11.7869291 C20.2348035,13.3286641 21.3495346,14.5843688 22.7191084,14.5843688 C24.0886822,14.5843688 25.2034132,13.3286641 25.2034132,11.7869291 C25.201947,10.2438011 24.0886822,8.98809647 22.7191084,8.98809647 Z M22.7191084,13.870043 C21.7625854,13.870043 20.9847824,12.9352295 20.9847824,11.7869648 C20.9847824,10.6387002 21.7625854,9.70249369 22.7191084,9.70249369 C23.6741689,9.70249369 24.4534344,10.6373072 24.4534344,11.7869648 C24.4519682,12.9352295 23.6741689,13.870043 22.7191084,13.870043 Z" id="Fill-10"></path>
                            <path d="M17.0151445,14.2272238 L17.0151445,9.34670594 C17.0151445,9.14997793 16.8466917,8.98952519 16.6401551,8.98952519 C16.4336184,8.98952519 16.2651657,9.14997793 16.2651657,9.34670594 L16.2651657,14.2272238 C16.2651657,14.4239518 16.4336184,14.5844045 16.6401551,14.5844045 C16.8481579,14.5844045 17.0151445,14.4239518 17.0151445,14.2272238 Z" id="Fill-11"></path>
                            <path d="M12.6720171,14.5844045 C12.8785538,14.5844045 13.0470065,14.4239518 13.0470065,14.2272238 L13.0470065,9.34670594 C13.0470065,9.14997793 12.8785538,8.98952519 12.6720171,8.98952519 C12.4654805,8.98952519 12.2970277,9.14997793 12.2970277,9.34670594 L12.2970277,14.2272238 C12.2970277,14.4239518 12.4640143,14.5844045 12.6720171,14.5844045 Z" id="Fill-12"></path>
                            <path d="M8.70237924,8.98809647 C8.49584257,8.98809647 8.32738983,9.14854921 8.32738983,9.34527722 L8.32738983,14.225795 C8.32738983,14.422523 8.49584257,14.5829758 8.70237924,14.5829758 C8.9089159,14.5829758 9.07736865,14.422523 9.07736865,14.225795 L9.07736865,9.34527722 C9.07736865,9.14854921 8.91038211,8.98809647 8.70237924,8.98809647 Z" id="Fill-13"></path>
                            <path d="M2.62492587,8.98809647 C1.25535205,8.98809647 0.140621029,10.2438011 0.140621029,11.7869291 C0.140621029,13.3286641 1.25535205,14.5843688 2.62492587,14.5843688 C3.99449969,14.5843688 5.10776825,13.3286641 5.10776825,11.7869291 C5.10776825,10.2438011 3.99303723,8.98809647 2.62492587,8.98809647 Z M2.62492587,13.870043 C1.66840288,13.870043 0.890599849,12.9352295 0.890599849,11.7869648 C0.890599849,10.6387002 1.66840288,9.70249369 2.62492587,9.70249369 C3.5799864,9.70249369 4.35778943,10.6373072 4.35778943,11.7869648 C4.35778943,12.9352295 3.5799864,13.870043 2.62492587,13.870043 Z" id="Fill-14"></path>
                            <path d="M2.62492587,17.6511585 C1.25535205,17.6511585 0.140621029,18.9068631 0.140621029,20.4485981 C0.140621029,21.9903331 1.25535205,23.2460378 2.62492587,23.2460378 C3.99449969,23.2460378 5.10776825,21.9903331 5.10776825,20.4485981 C5.10776825,18.9068631 3.99303723,17.6511585 2.62492587,17.6511585 Z M2.62492587,22.5316763 C1.66840288,22.5316763 0.890599849,21.5968628 0.890599849,20.4485981 C0.890599849,19.3003334 1.66840288,18.36552 2.62492587,18.36552 C3.5799864,18.36552 4.35778943,19.3003334 4.35778943,20.4485981 C4.35778943,21.5968628 3.5799864,22.5316763 2.62492587,22.5316763 Z" id="Fill-15"></path>
                            <path d="M8.70237924,17.6511585 C8.49584257,17.6511585 8.32738983,17.8116112 8.32738983,18.0083392 L8.32738983,22.888857 C8.32738983,23.085585 8.49584257,23.2460378 8.70237924,23.2460378 C8.9089159,23.2460378 9.07736865,23.085585 9.07736865,22.888857 L9.07736865,18.0083392 C9.07736865,17.8116112 8.91038211,17.6511585 8.70237924,17.6511585 Z" id="Fill-16"></path>
                            <path d="M14.7798326,17.6511585 C13.4102588,17.6511585 12.2955278,18.9068631 12.2955278,20.4485981 C12.2955278,21.9903331 13.4087963,23.2460378 14.7798326,23.2460378 C16.1494064,23.2460378 17.2641374,21.9903331 17.2641374,20.4485981 C17.2641374,18.9068631 16.1494064,17.6511585 14.7798326,17.6511585 Z M14.7798326,22.5316763 C13.8247721,22.5316763 13.0455066,21.5968628 13.0455066,20.4485981 C13.0455066,19.3003334 13.8233096,18.36552 14.7798326,18.36552 C15.7363556,18.36552 16.5141586,19.3003334 16.5141586,20.4485981 C16.5141586,21.5968628 15.7363556,22.5316763 14.7798326,22.5316763 Z" id="Fill-17"></path>
                            <path d="M20.8587859,17.6511585 C20.6522493,17.6511585 20.4837965,17.8116112 20.4837965,18.0083392 L20.4837965,22.888857 C20.4837965,23.085585 20.6522493,23.2460378 20.8587859,23.2460378 C21.0653226,23.2460378 21.2337753,23.085585 21.2337753,22.888857 L21.2337753,18.0083392 C21.2337753,17.8116112 21.0653226,17.6511585 20.8587859,17.6511585 Z" id="Fill-18"></path>
                            <path d="M24.8269239,17.6511585 C24.6203872,17.6511585 24.4519345,17.8116112 24.4519345,18.0083392 L24.4519345,22.888857 C24.4519345,23.085585 24.6203872,23.2460378 24.8269239,23.2460378 C25.0334605,23.2460378 25.2019133,23.085585 25.2019133,22.888857 L25.2019133,18.0083392 C25.2019133,17.8116112 25.0349267,17.6511585 24.8269239,17.6511585 Z" id="Fill-19"></path>
                            <path d="M28.7965618,17.6511585 C28.5900251,17.6511585 28.4215723,17.8116112 28.4215723,18.0083392 L28.4215723,22.888857 C28.4215723,23.085585 28.5900251,23.2460378 28.7965618,23.2460378 C29.0030984,23.2460378 29.1715512,23.085585 29.1715512,22.888857 L29.1715512,18.0083392 C29.1715512,17.8116112 29.0045646,17.6511585 28.7965618,17.6511585 Z" id="Fill-20"></path>
                            <path d="M34.8755151,17.6511585 C33.5059413,17.6511585 32.3912102,18.9068631 32.3912102,20.4485981 C32.3912102,21.9903331 33.5059413,23.2460378 34.8755151,23.2460378 C36.2450889,23.2460378 37.3598199,21.9903331 37.3598199,20.4485981 C37.3583537,18.9068631 36.2436264,17.6511585 34.8755151,17.6511585 Z M34.8755151,22.5316763 C33.9189921,22.5316763 33.1411891,21.5968628 33.1411891,20.4485981 C33.1411891,19.3003334 33.9189921,18.36552 34.8755151,18.36552 C35.8305756,18.36552 36.6098411,19.3003334 36.6098411,20.4485981 C36.6083749,21.5968628 35.8305756,22.5316763 34.8755151,22.5316763 Z" id="Fill-21"></path>
                            <path d="M34.8769775,26.2931034 C33.5074037,26.2931034 32.3926727,27.5488081 32.3926727,29.0919361 C32.3926727,30.6336711 33.5074037,31.8879828 34.8769775,31.8879828 C36.2465514,31.8879828 37.3598199,30.6336711 37.3598199,29.0919361 C37.3598199,27.5488081 36.2450889,26.2931034 34.8769775,26.2931034 Z M34.8769775,31.17505 C33.9204546,31.17505 33.1426515,30.2402365 33.1426515,29.0933648 C33.1426515,27.9451001 33.9204546,27.0088937 34.8769775,27.0088937 C35.8320381,27.0088937 36.6098411,27.9437071 36.6098411,29.0933648 C36.6098411,30.2402365 35.8320381,31.17505 34.8769775,31.17505 Z" id="Fill-1" transform="translate(34.876246, 29.090543) scale(-1, 1) translate(-34.876246, -29.090543) "></path>
                            <path d="M28.6859716,26.2931034 C28.4794349,26.2931034 28.3109822,26.4535562 28.3109822,26.6502842 L28.3109822,31.530802 C28.3109822,31.72753 28.4794349,31.8879828 28.6859716,31.8879828 C28.8925082,31.8879828 29.060961,31.72753 29.060961,31.530802 L29.060961,26.6502842 C29.060961,26.4535562 28.8939744,26.2931034 28.6859716,26.2931034 Z" id="Fill-2" transform="translate(28.742017, 29.090543) scale(-1, 1) translate(-28.742017, -29.090543) "></path>
                            <path d="M22.7206083,26.2931034 C21.3510345,26.2931034 20.2363035,27.5488081 20.2363035,29.0919361 C20.2363035,30.6336711 21.3495721,31.8879828 22.7206083,31.8879828 C24.0901822,31.8879828 25.2049132,30.6336711 25.2049132,29.0919361 C25.2049132,27.5488081 24.0901822,26.2931034 22.7206083,26.2931034 Z M22.7206083,31.17505 C21.7655478,31.17505 20.9862823,30.2402365 20.9862823,29.0933648 C20.9862823,27.9451001 21.7640854,27.0088937 22.7206083,27.0088937 C23.6771313,27.0088937 24.4549344,27.9437071 24.4549344,29.0933648 C24.4549344,30.2402365 23.6771313,31.17505 22.7206083,31.17505 Z" id="Fill-3" transform="translate(22.720608, 29.090543) scale(-1, 1) translate(-22.720608, -29.090543) "></path>
                            <path d="M16.5295649,31.8894115 C16.7361015,31.8894115 16.9045543,31.7289587 16.9045543,31.5322307 L16.9045543,26.6517129 C16.9045543,26.4549849 16.7361015,26.2945322 16.5295649,26.2945322 C16.3230282,26.2945322 16.1545755,26.4549849 16.1545755,26.6517129 L16.1545755,31.5322307 C16.1545755,31.7289587 16.321562,31.8894115 16.5295649,31.8894115 Z" id="Fill-4" transform="translate(16.585610, 29.091972) scale(-1, 1) translate(-16.585610, -29.091972) "></path>
                            <path d="M12.5614269,26.2931034 C12.3548903,26.2931034 12.1864375,26.4535562 12.1864375,26.6502842 L12.1864375,31.530802 C12.1864375,31.72753 12.3548903,31.8879828 12.5614269,31.8879828 C12.7679636,31.8879828 12.9364164,31.72753 12.9364164,31.530802 L12.9364164,26.6502842 C12.9364164,26.4535562 12.7694298,26.2931034 12.5614269,26.2931034 Z" id="Fill-5" transform="translate(12.617472, 29.090543) scale(-1, 1) translate(-12.617472, -29.090543) "></path>
                            <path d="M8.59178905,26.2931034 C8.38525238,26.2931034 8.21679964,26.4535562 8.21679964,26.6502842 L8.21679964,31.530802 C8.21679964,31.72753 8.38525238,31.8879828 8.59178905,31.8879828 C8.79832571,31.8879828 8.96677846,31.72753 8.96677846,31.530802 L8.96677846,26.6502842 C8.96677846,26.4535562 8.79979192,26.2931034 8.59178905,26.2931034 Z" id="Fill-6" transform="translate(8.647834, 29.090543) scale(-1, 1) translate(-8.647834, -29.090543) "></path>
                            <path d="M2.62492731,31.8894115 C3.99450113,31.8894115 5.10923215,30.6350998 5.10923215,29.0933648 C5.10923215,27.5502368 3.99596359,26.2945322 2.62492731,26.2945322 C1.25535349,26.2945322 0.140621029,27.5502368 0.140621029,29.0933648 C0.139156263,30.6337068 1.25535349,31.8894115 2.62492731,31.8894115 Z M2.62492731,27.007465 C3.57998784,27.007465 4.35925333,27.9422784 4.35925333,29.0919361 C4.35925333,30.2402008 3.5814503,31.1736213 2.62492731,31.1736213 C1.66840433,31.1736213 0.890599226,30.2388078 0.890599226,29.0919361 C0.889135083,27.9422427 1.66840433,27.007465 2.62492731,27.007465 Z" id="Fill-7" transform="translate(2.624927, 29.091972) scale(-1, 1) translate(-2.624927, -29.091972) "></path>
                            <path d="M2.62492587,34.953308 C1.25535205,34.953308 0.140621029,36.2090126 0.140621029,37.7521406 C0.140621029,39.2938756 1.25535205,40.5495803 2.62492587,40.5495803 C3.99449969,40.5495803 5.10923071,39.2938756 5.10923071,37.7521406 C5.1077645,36.2090126 3.99303723,34.953308 2.62492587,34.953308 Z M2.62492587,39.8352545 C1.66840288,39.8352545 0.890599849,38.9004411 0.890599849,37.7521764 C0.890599849,36.6039117 1.66840288,35.6677052 2.62492587,35.6677052 C3.5799864,35.6677052 4.35925189,36.6025187 4.35925189,37.7521764 C4.35778568,38.9004411 3.5799864,39.8352545 2.62492587,39.8352545 Z" id="Fill-8" transform="translate(2.624926, 37.751444) scale(-1, 1) translate(-2.624926, -37.751444) "></path>
                            <path d="M8.59178905,34.953308 C8.38525238,34.953308 8.21679964,35.1137607 8.21679964,35.3104887 L8.21679964,40.1910065 C8.21679964,40.3877346 8.38525238,40.5481873 8.59178905,40.5481873 C8.79832571,40.5481873 8.96677846,40.3877346 8.96677846,40.1910065 L8.96677846,35.3104887 C8.96677846,35.1137607 8.79979192,34.953308 8.59178905,34.953308 Z" id="Fill-9" transform="translate(8.647834, 37.750748) scale(-1, 1) translate(-8.647834, -37.750748) "></path>
                            <path d="M14.7813326,34.953308 C13.4117587,34.953308 12.2970277,36.2090126 12.2970277,37.7521406 C12.2970277,39.2938756 13.4117587,40.5495803 14.7813326,40.5495803 C16.1509064,40.5495803 17.2656374,39.2938756 17.2656374,37.7521406 C17.2641712,36.2090126 16.1509064,34.953308 14.7813326,34.953308 Z M14.7813326,39.8352545 C13.8248096,39.8352545 13.0470065,38.9004411 13.0470065,37.7521764 C13.0470065,36.6039117 13.8248096,35.6677052 14.7813326,35.6677052 C15.7363931,35.6677052 16.5156586,36.6025187 16.5156586,37.7521764 C16.5141924,38.9004411 15.7363931,39.8352545 14.7813326,39.8352545 Z" id="Fill-10" transform="translate(14.781333, 37.751444) scale(-1, 1) translate(-14.781333, -37.751444) "></path>
                            <path d="M21.1231851,40.1924353 L21.1231851,35.3119175 C21.1231851,35.1151894 20.9547324,34.9547367 20.7481957,34.9547367 C20.5416591,34.9547367 20.3732063,35.1151894 20.3732063,35.3119175 L20.3732063,40.1924353 C20.3732063,40.3891633 20.5416591,40.549616 20.7481957,40.549616 C20.9561986,40.549616 21.1231851,40.3891633 21.1231851,40.1924353 Z" id="Fill-11" transform="translate(20.804241, 37.752176) scale(-1, 1) translate(-20.804241, -37.752176) "></path>
                            <path d="M24.7163337,40.549616 C24.9228703,40.549616 25.0913231,40.3891633 25.0913231,40.1924353 L25.0913231,35.3119175 C25.0913231,35.1151894 24.9228703,34.9547367 24.7163337,34.9547367 C24.509797,34.9547367 24.3413443,35.1151894 24.3413443,35.3119175 L24.3413443,40.1924353 C24.3413443,40.3891633 24.5083308,40.549616 24.7163337,40.549616 Z" id="Fill-12" transform="translate(24.772379, 37.752176) scale(-1, 1) translate(-24.772379, -37.752176) "></path>
                            <path d="M28.6859716,34.953308 C28.4794349,34.953308 28.3109822,35.1137607 28.3109822,35.3104887 L28.3109822,40.1910065 C28.3109822,40.3877346 28.4794349,40.5481873 28.6859716,40.5481873 C28.8925082,40.5481873 29.060961,40.3877346 29.060961,40.1910065 L29.060961,35.3104887 C29.060961,35.1137607 28.8939744,34.953308 28.6859716,34.953308 Z" id="Fill-13" transform="translate(28.742017, 37.750748) scale(-1, 1) translate(-28.742017, -37.750748) "></path>
                            <path d="M34.8769775,34.953308 C33.5074037,34.953308 32.3926727,36.2090126 32.3926727,37.7521406 C32.3926727,39.2938756 33.5074037,40.5495803 34.8769775,40.5495803 C36.2465514,40.5495803 37.3598199,39.2938756 37.3598199,37.7521406 C37.3598199,36.2090126 36.2450889,34.953308 34.8769775,34.953308 Z M34.8769775,39.8352545 C33.9204546,39.8352545 33.1426515,38.9004411 33.1426515,37.7521764 C33.1426515,36.6039117 33.9204546,35.6677052 34.8769775,35.6677052 C35.8320381,35.6677052 36.6098411,36.6025187 36.6098411,37.7521764 C36.6098411,38.9004411 35.8320381,39.8352545 34.8769775,39.8352545 Z" id="Fill-14" transform="translate(34.876246, 37.751444) scale(-1, 1) translate(-34.876246, -37.751444) "></path>
                        </g>
                    </g>
                    <g id="Database" mask="url(#mask-2)">
                        <g transform="translate(23.000000, 7.000000)">
                            <g filter="url(#filter-4)">
                                <g id="Lower" transform="translate(0.000000, 34.000000)">
                                    <path d="M25,17.8885617 C11.6743534,17.8885617 0.870264213,13.8640792 0.870264213,8.89642109 L0.870264213,20.8859419 C0.870264213,25.8536001 11.6743534,29.8780825 25,29.8780825 C38.326652,29.8780825 49.1297358,25.8536001 49.1297358,20.8859419 L49.1297358,8.89642109 C49.1297358,13.8640792 38.326652,17.8885617 25,17.8885617" id="Fill-101" fill="#E1E4E1"></path>
                                    <path d="M25,21.8520975 L25,25.845607 C25,26.9796159 24.0498917,27.8828265 22.9097616,27.8468579 C10.5623748,27.4522028 0.870264213,23.5925762 0.870264213,18.8876884 L0.870264213,20.8859419 C0.870264213,25.8536001 11.6743534,29.8780825 25,29.8780825 C38.326652,29.8780825 49.1297358,25.8536001 49.1297358,20.8859419 L49.1297358,10.8946746 C49.1297358,15.6195449 39.3581982,19.491161 26.9364113,19.8578405 C25.8566056,19.8898126 25,20.7780362 25,21.8520975" id="Fill-106" fill="#D3DAD8"></path>
                                    <path d="M49,9 C49,13.972 38.255,18 25,18 C11.746,18 1,13.972 1,9 C1,4.028 11.746,0 25,0 C38.255,0 49,4.028 49,9" id="Fill-100" stroke="#E1E4E1" stroke-width="0.25" fill="#BAC0C2"></path>
                                </g>
                                <g id="Mid" transform="translate(0.000000, 17.000000)">
                                    <path d="M25,17.9034072 C11.6743534,17.9034072 0.870264213,13.8789247 0.870264213,8.91126659 L0.870264213,20.9007874 C0.870264213,25.8684455 11.6743534,29.892928 25,29.892928 C38.326652,29.892928 49.1297358,25.8684455 49.1297358,20.9007874 L49.1297358,8.91126659 C49.1297358,13.8789247 38.326652,17.9034072 25,17.9034072" id="Fill-102" fill="#E1E4E1"></path>
                                    <path d="M25,21.866943 L25,25.8604525 C25,26.9944614 24.0498917,27.8976719 22.9097616,27.8617034 C10.5623748,27.4670483 0.870264213,23.6074217 0.870264213,18.9025339 L0.870264213,20.9007874 C0.870264213,25.8684455 11.6743534,29.892928 25,29.892928 C38.326652,29.892928 49.1297358,25.8684455 49.1297358,20.9007874 L49.1297358,10.9095201 C49.1297358,15.6343904 39.3581982,19.5060065 26.9364113,19.872686 C25.8566056,19.9046581 25,20.7928817 25,21.866943" id="Fill-107" fill="#D3DAD8"></path>
                                    <path d="M49,9 C49,13.972 38.255,18 25,18 C11.746,18 1,13.972 1,9 C1,4.028 11.746,0 25,0 C38.255,0 49,4.028 49,9" id="Fill-103" stroke="#E1E4E1" stroke-width="0.25" fill="#BAC0C2"></path>
                                </g>
                                <g id="Top">
                                    <path d="M25,17.9182527 C11.6743534,17.9182527 0.870264213,13.8937702 0.870264213,8.92611208 L0.870264213,20.9156329 C0.870264213,25.883291 11.6743534,29.9077735 25,29.9077735 C38.326652,29.9077735 49.1297358,25.883291 49.1297358,20.9156329 L49.1297358,8.92611208 C49.1297358,13.8937702 38.326652,17.9182527 25,17.9182527" id="Fill-104" fill="#E1E4E1"></path>
                                    <path d="M25,21.8817885 L25,25.875298 C25,27.0093069 24.0498917,27.9125174 22.9097616,27.8765489 C10.5623748,27.4818938 0.870264213,23.6222672 0.870264213,18.9173794 L0.870264213,20.9156329 C0.870264213,25.883291 11.6743534,29.9077735 25,29.9077735 C38.326652,29.9077735 49.1297358,25.883291 49.1297358,20.9156329 L49.1297358,10.9243656 C49.1297358,15.6492359 39.3581982,19.520852 26.9364113,19.8875315 C25.8566056,19.9195036 25,20.8077272 25,21.8817885" id="Fill-108" fill="#D3DAD8"></path>
                                    <path d="M48.0498412,9 C48.0498412,13.972 37.7302352,18 25,18 C12.2707252,18 1.95015883,13.972 1.95015883,9 C1.95015883,4.028 12.2707252,0 25,0 C37.7302352,0 48.0498412,4.028 48.0498412,9" id="Fill-105" stroke="#E1E4E1" stroke-width="2.25" fill="#C4CBCD"></path>
                                </g>
                            </g>
                        </g>
                    </g>
                </g>
                <g id="Azure-Border" stroke="#0078D4" stroke-width="4">
                    <rect x="2" y="2" width="96" height="96" rx="48"></rect>
                </g>
            </g>
        </g>
    </g>
</svg>