<svg width="100" height="100" viewBox="0 0 100 100" fill="none" xmlns="http://www.w3.org/2000/svg">
<g clip-path="url(#clip0)">
<path d="M49.1924 96.4501C39.9343 96.4501 30.884 93.7047 23.1862 88.5612C15.4883 83.4176 9.48854 76.1069 5.94561 67.5535C2.40267 59.0001 1.47567 49.5882 3.28185 40.5079C5.08802 31.4277 9.54624 23.0869 16.0927 16.5404C22.6392 9.99393 30.98 5.53571 40.0602 3.72954C49.1405 1.92337 58.5524 2.85036 67.1058 6.3933C75.6592 9.93624 82.9699 15.936 88.1135 23.6339C93.257 31.3317 96.0024 40.382 96.0024 49.6401C96.0028 55.7874 94.7924 61.8746 92.4401 67.554C90.0878 73.2335 86.6398 78.3939 82.293 82.7407C77.9462 87.0875 72.7858 90.5355 67.1063 92.8878C61.4269 95.24 55.3397 96.4505 49.1924 96.4501V96.4501Z" fill="url(#paint0_linear)"/>
<path fill-rule="evenodd" clip-rule="evenodd" d="M95.5402 49.7113C95.5402 58.7895 92.8482 67.6637 87.8046 75.212C82.761 82.7602 75.5925 88.6433 67.2053 92.1174C58.8182 95.5914 49.5892 96.5004 40.6855 94.7293C31.7818 92.9583 23.6032 88.5867 17.184 82.1675C10.7647 75.7483 6.39317 67.5697 4.62211 58.6659C2.85105 49.7622 3.76002 40.5333 7.23408 32.1461C10.7081 23.759 16.5913 16.5904 24.1395 11.5468C31.6877 6.50328 40.562 3.81129 49.6402 3.81129C55.6678 3.81127 61.6365 4.99849 67.2053 7.30517C72.7742 9.61186 77.8342 12.9928 82.0964 17.255C86.3586 21.5173 89.7396 26.5772 92.0463 32.1461C94.3529 37.715 95.5402 43.6836 95.5402 49.7113V49.7113ZM49.6402 0.0712894C59.458 0.0712894 69.0554 2.98262 77.2187 8.43714C85.3819 13.8917 91.7444 21.6444 95.5015 30.7149C99.2587 39.7854 100.242 49.7664 98.3263 59.3956C96.411 69.0248 91.6832 77.8698 84.7409 84.8121C77.7987 91.7544 68.9537 96.4821 59.3244 98.3975C49.6952 100.313 39.7143 99.3298 30.6437 95.5727C21.5732 91.8155 13.8205 85.4531 8.366 77.2898C2.91149 69.1265 0.000152951 59.5292 0.000152951 49.7113C-0.00063515 43.1922 1.2828 36.7369 3.77717 30.714C6.27153 24.691 9.92796 19.2184 14.5376 14.6088C19.1473 9.99909 24.6199 6.34267 30.6428 3.8483C36.6658 1.35394 43.1211 0.0705013 49.6402 0.0712894V0.0712894Z" fill="#F2F1F0"/>
<path fill-rule="evenodd" clip-rule="evenodd" d="M92.2819 49.6406C92.2819 58.163 89.7547 66.494 85.0199 73.5801C80.2851 80.6662 73.5554 86.1892 65.6817 89.4505C57.8081 92.7119 49.1441 93.5653 40.7855 91.9026C32.4268 90.24 24.7489 86.1361 18.7227 80.1098C12.6964 74.0836 8.59251 66.4057 6.92987 58.047C5.26723 49.6884 6.12056 41.0244 9.38194 33.1507C12.6433 25.2771 18.1663 18.5473 25.2524 13.8126C32.3385 9.07776 40.6695 6.55058 49.1919 6.55058C54.8507 6.55023 60.4541 7.66455 65.6821 9.82991C70.9102 11.9953 75.6606 15.1692 79.6619 19.1706C83.6632 23.1719 86.8372 27.9223 89.0026 33.1503C91.1679 38.3784 92.2823 43.9818 92.2819 49.6406V49.6406ZM49.1919 2.81058C58.454 2.81058 67.5081 5.55711 75.2093 10.7029C82.9104 15.8486 88.9127 23.1624 92.4572 31.7195C96.0016 40.2766 96.929 49.6925 95.1221 58.7767C93.3151 67.8608 88.855 76.2051 82.3057 82.7544C75.7564 89.3037 67.4121 93.7638 58.328 95.5708C49.2439 97.3777 39.8279 96.4503 31.2708 92.9059C22.7138 89.3614 15.3999 83.3591 10.2542 75.6579C5.10844 67.9568 2.36191 58.9027 2.36191 49.6406C2.3631 37.2208 7.29734 25.3101 16.0794 16.5281C24.8615 7.74599 36.7722 2.81174 49.1919 2.81055V2.81058Z" fill="#0078D4"/>
<path d="M83.3587 47.6027C83.2526 44.0218 81.8871 40.593 79.5026 37.9194C77.118 35.2458 73.8671 33.4987 70.3216 32.9853C70.0446 27.98 67.8255 23.2804 64.1363 19.8864C60.4472 16.4923 55.5792 14.6718 50.5683 14.8122C46.5569 14.7901 42.6334 15.9871 39.3175 18.2447C36.0016 20.5023 33.4499 23.714 32.0002 27.4544C27.7638 28.081 23.8751 30.1548 20.9944 33.3236C18.1137 36.4923 16.4188 40.5605 16.1975 44.8372C16.2536 47.2293 16.7803 49.587 17.7475 51.7755C18.7148 53.964 20.1036 55.9406 21.8347 57.5924C23.5658 59.2442 25.6053 60.5389 27.8368 61.4025C30.0683 62.2661 32.448 62.6817 34.8401 62.6256C34.947 62.6231 35.0538 62.6196 35.1607 62.6153H68.3462C72.3278 62.6153 76.1463 61.0336 78.9617 58.2182C81.7771 55.4028 83.3587 51.5843 83.3587 47.6027V47.6027Z" fill="url(#paint1_linear)"/>
<path d="M49.7781 80.7883C59.3784 80.7883 67.161 73.0057 67.161 63.4054C67.161 53.8051 59.3784 46.0225 49.7781 46.0225C40.1778 46.0225 32.3952 53.8051 32.3952 63.4054C32.3952 73.0057 40.1778 80.7883 49.7781 80.7883Z" fill="#F2F2F2"/>
<path d="M64.3956 52.3436C61.4951 48.5455 57.2154 46.0428 52.4831 45.3773C47.7508 44.7119 42.9468 45.9372 39.1113 48.788V48.788C37.2229 50.2178 35.6349 52.0059 34.4381 54.05C33.2414 56.0941 32.4594 58.3541 32.137 60.7008C31.8145 63.0474 31.9579 65.4345 32.5588 67.7257C33.1598 70.0168 34.2066 72.167 35.6394 74.0532C37.0721 75.9394 38.8627 77.5246 40.9087 78.7182C42.9547 79.9117 45.2159 80.6901 47.563 81.0089C49.9102 81.3277 52.2971 81.1806 54.5873 80.5761C56.8775 79.9715 59.0261 78.9213 60.91 77.4856C61.0193 77.4026 61.1277 77.3183 61.2351 77.2328C64.8965 74.3107 67.2747 70.0765 67.8648 65.4294C68.4549 60.7822 67.2104 56.0881 64.3956 52.3436ZM34.3706 62.2203C34.5212 60.0367 35.0562 57.8968 35.9508 55.8993H40.2965C39.8147 57.9732 39.5499 60.0916 39.5064 62.2203H34.3706ZM42.6669 55.8993H48.5929V62.2203H41.8768C41.9203 60.0916 42.1851 57.9731 42.6669 55.8992V55.8993ZM50.9633 55.8993H56.8893C57.3712 57.9732 57.636 60.0916 57.6795 62.2203H50.9633V55.8993ZM48.5929 64.5907V70.5167H42.6669L41.8768 64.5797L48.5929 64.5907ZM50.9633 64.5907L58.0745 64.5797C57.9821 66.5777 57.7177 68.5641 57.2844 70.5167H50.9633V64.5907ZM60.4449 64.1956H65.5808C65.4301 66.3792 64.8952 68.5191 64.0005 70.5167H59.6548C60.1366 68.4428 60.4014 66.3243 60.4449 64.1956V64.1956ZM60.4449 62.2203C60.3526 60.0954 60.0884 57.9815 59.6548 55.8993H64.0005C64.9405 57.8809 65.4777 60.0295 65.5808 62.2203H60.4449ZM62.4202 53.5289H58.8647C58.3159 51.839 57.5168 50.241 56.4943 48.7881C58.7927 49.9156 60.8156 51.534 62.4202 53.5288V53.5289ZM56.4942 53.5289H50.9633V47.9979C52.2577 48.4152 53.4343 49.1344 54.396 50.0961C55.3577 51.0578 56.0769 52.2344 56.4943 53.5288L56.4942 53.5289ZM48.988 47.9979V53.9239H43.4571C43.8014 52.5484 44.4896 51.283 45.457 50.2464C46.4245 49.2098 47.6395 48.4361 48.988 47.9979V47.9979ZM40.2965 50.7633C41.2924 50.0169 42.3497 49.3561 43.4571 48.788C42.277 50.2915 41.4652 52.0504 41.0867 53.9238H37.5311C38.2344 52.6975 39.1744 51.6232 40.2965 50.7633V50.7633ZM34.3705 64.5906H39.5064C39.5987 66.7155 39.863 68.8294 40.2965 70.9117H35.9508C35.1005 68.899 34.5674 66.7667 34.3706 64.5907L34.3705 64.5906ZM37.5311 72.887H41.0867L43.4571 77.6278C41.0773 76.6328 39.0242 74.9904 37.5311 72.887L37.5311 72.887ZM43.4571 72.887H48.5929V78.813C47.3684 78.2417 46.2781 77.4187 45.3932 76.3976C44.5082 75.3765 43.8485 74.1803 43.4571 72.887V72.887ZM50.9633 78.813V72.887H56.0992C55.845 74.2413 55.2355 75.5037 54.3331 76.545C53.4307 77.5862 52.2677 78.369 50.9633 78.813V78.813ZM59.6548 75.6525C58.6118 76.5394 57.4033 77.2108 56.0992 77.6278C57.1983 76.2219 58.0043 74.6098 58.4696 72.887H62.0252C61.5858 74.0595 60.7463 75.039 59.6548 75.6525V75.6525Z" fill="#0078D4"/>
<path d="M34.3706 57.479C32.1236 56.3864 30.1658 54.7797 28.6557 52.7892C27.1456 50.7987 26.1259 48.4803 25.6791 46.0221C25.7084 43.7832 26.2593 41.582 27.288 39.5932C28.3167 37.6044 29.7948 35.8829 31.6051 34.5652L33.9755 32.5898L35.9508 34.9602L33.5804 36.9356C32.0977 37.8417 30.8793 39.1216 30.0472 40.647C29.2151 42.1725 28.7987 43.8899 28.8396 45.627C29.1637 47.618 29.9854 49.4948 31.2286 51.0833C32.4718 52.6718 34.0961 53.9205 35.9508 54.7136L34.3706 57.479Z" fill="#E6E6E6"/>
<path d="M35.1607 38.1211C37.5608 38.1211 39.5064 36.1755 39.5064 33.7754C39.5064 31.3753 37.5608 29.4297 35.1607 29.4297C32.7606 29.4297 30.8149 31.3753 30.8149 33.7754C30.8149 36.1755 32.7606 38.1211 35.1607 38.1211Z" fill="#F2F2F2"/>
<path d="M64.3956 57.4795L62.8153 54.714C64.6258 53.857 66.2113 52.5893 67.4458 51.0119C68.6803 49.4345 69.5297 47.5908 69.9265 45.6275C69.8819 43.9066 69.4288 42.2211 68.6045 40.7099C67.7802 39.1987 66.6084 37.9051 65.1857 36.936L62.8153 35.3558L64.7906 32.9854L67.161 34.5656C69.1261 35.7249 70.7245 37.4148 71.7727 39.4413C72.8209 41.4678 73.2765 43.7488 73.087 46.0225C72.6403 48.4808 71.6205 50.7991 70.1104 52.7896C68.6004 54.7802 66.6425 56.3869 64.3956 57.4795V57.4795Z" fill="#E6E6E6"/>
<path d="M64.0005 38.1211C66.4006 38.1211 68.3462 36.1755 68.3462 33.7754C68.3462 31.3753 66.4006 29.4297 64.0005 29.4297C61.6004 29.4297 59.6548 31.3753 59.6548 33.7754C59.6548 36.1755 61.6004 38.1211 64.0005 38.1211Z" fill="#F2F2F2"/>
<path d="M35.1607 60.6397C37.5608 60.6397 39.5064 58.6941 39.5064 56.294C39.5064 53.8939 37.5608 51.9482 35.1607 51.9482C32.7606 51.9482 30.8149 53.8939 30.8149 56.294C30.8149 58.6941 32.7606 60.6397 35.1607 60.6397Z" fill="#CE74B6"/>
<path d="M64.0005 60.6397C66.4006 60.6397 68.3462 58.6941 68.3462 56.294C68.3462 53.8939 66.4006 51.9482 64.0005 51.9482C61.6004 51.9482 59.6548 53.8939 59.6548 56.294C59.6548 58.6941 61.6004 60.6397 64.0005 60.6397Z" fill="#CE74B6"/>
<path d="M53.1654 59.2511C53.1656 59.5655 53.1229 59.8785 53.0384 60.1813L57.1771 66.4625C57.1771 68.3829 54.818 70.5169 52.8981 70.5169H47.629C45.7081 70.5169 42.6034 68.0316 42.6034 66.1111L46.2738 59.964C46.2245 59.7296 46.1996 59.4907 46.1996 59.2511L48.5929 55.8994H50.9633L53.1654 59.2511Z" fill="#F2F2F2"/>
<path d="M54.2741 65.5619C54.2054 65.5644 54.137 65.5713 54.0692 65.5825L51.0313 60.3207C51.2437 60.0919 51.3866 59.8073 51.4432 59.5003C51.4998 59.1933 51.4679 58.8765 51.3511 58.5869C51.2343 58.2974 51.0375 58.0471 50.7837 57.8653C50.53 57.6834 50.2296 57.5776 49.9179 57.5602C49.6062 57.5427 49.296 57.6144 49.0235 57.7668C48.751 57.9192 48.5275 58.1459 48.3791 58.4207C48.2308 58.6954 48.1637 59.0066 48.1857 59.3181C48.2077 59.6295 48.318 59.9282 48.5035 60.1793L45.3896 65.5727C45.3533 65.5703 45.319 65.5619 45.2821 65.5619C44.9816 65.5609 44.6866 65.6423 44.4291 65.7973C44.1715 65.9522 43.9614 66.1748 43.8215 66.4407C43.6817 66.7067 43.6173 67.006 43.6356 67.306C43.6539 67.6059 43.754 67.8952 43.9251 68.1422C44.0962 68.3893 44.3318 68.5847 44.6062 68.7073C44.8806 68.8299 45.1833 68.8749 45.4815 68.8375C45.7797 68.8 46.0619 68.6816 46.2975 68.495C46.5331 68.3084 46.7131 68.0608 46.8178 67.7791H52.7383C52.8433 68.06 53.0233 68.3068 53.2586 68.4926C53.4939 68.6785 53.7757 68.7963 54.0733 68.8334C54.3708 68.8705 54.6729 68.8254 54.9466 68.7029C55.2204 68.5805 55.4554 68.3855 55.6261 68.139C55.7969 67.8924 55.8969 67.6039 55.9152 67.3046C55.9336 67.0052 55.8697 66.7066 55.7304 66.4411C55.591 66.1755 55.3817 65.9532 55.1249 65.7982C54.8682 65.6432 54.574 65.5615 54.2741 65.5619ZM46.5818 66.2095L49.6819 60.8399C49.7137 60.8427 49.7445 60.8484 49.7768 60.8494L52.9138 66.2829C52.8847 66.33 52.858 66.3786 52.8338 66.4283H46.7223C46.6814 66.3518 46.6344 66.2786 46.5818 66.2095V66.2095Z" fill="url(#paint2_linear)"/>
<path d="M48.5841 60.0394L45.3435 65.6523L46.5133 66.3278L49.754 60.7148L48.5841 60.0394Z" fill="#A67AF4"/>
<path d="M50.9296 60.1439L49.7598 60.8193L53.0004 66.4323L54.1703 65.7569L50.9296 60.1439Z" fill="#A67AF4"/>
<path d="M52.9437 66.4277H46.4624V67.7786H52.9437V66.4277Z" fill="#773ADC"/>
<path d="M49.8259 60.8539C50.7339 60.8539 51.4701 60.1177 51.4701 59.2096C51.4701 58.3016 50.7339 57.5654 49.8259 57.5654C48.9178 57.5654 48.1816 58.3016 48.1816 59.2096C48.1816 60.1177 48.9178 60.8539 49.8259 60.8539Z" fill="url(#paint3_linear)"/>
<path d="M54.2741 68.8499C55.1821 68.8499 55.9183 68.1138 55.9183 67.2057C55.9183 66.2977 55.1821 65.5615 54.2741 65.5615C53.366 65.5615 52.6299 66.2977 52.6299 67.2057C52.6299 68.1138 53.366 68.8499 54.2741 68.8499Z" fill="url(#paint4_linear)"/>
<path d="M45.2821 68.8499C46.1902 68.8499 46.9263 68.1138 46.9263 67.2057C46.9263 66.2977 46.1902 65.5615 45.2821 65.5615C44.374 65.5615 43.6379 66.2977 43.6379 67.2057C43.6379 68.1138 44.374 68.8499 45.2821 68.8499Z" fill="url(#paint5_linear)"/>
</g>
<defs>
<linearGradient id="paint0_linear" x1="47.422" y1="-15.153" x2="51.4048" y2="130.615" gradientUnits="userSpaceOnUse">
<stop stop-color="#00ABDE"/>
<stop offset="1" stop-color="#007ED8"/>
</linearGradient>
<linearGradient id="paint1_linear" x1="49.7781" y1="62.6307" x2="49.7781" y2="14.8633" gradientUnits="userSpaceOnUse">
<stop stop-color="#198AB3"/>
<stop offset="0.11" stop-color="#22A5CB"/>
<stop offset="0.23" stop-color="#29BADE"/>
<stop offset="0.37" stop-color="#2EC9EB"/>
<stop offset="0.53" stop-color="#31D1F3"/>
<stop offset="0.78" stop-color="#32D4F5"/>
</linearGradient>
<linearGradient id="paint2_linear" x1="44.6574" y1="70.6007" x2="53.2316" y2="62.0264" gradientUnits="userSpaceOnUse">
<stop stop-color="#86D633"/>
<stop offset="1" stop-color="#5E9624"/>
</linearGradient>
<linearGradient id="paint3_linear" x1="-1089.75" y1="-1569.58" x2="-1082.09" y2="-1561.95" gradientUnits="userSpaceOnUse">
<stop stop-color="#86D633"/>
<stop offset="1" stop-color="#5E9624"/>
</linearGradient>
<linearGradient id="paint4_linear" x1="-1064.12" y1="-1560.97" x2="-1056.48" y2="-1553.31" gradientUnits="userSpaceOnUse">
<stop stop-color="#86D633"/>
<stop offset="1" stop-color="#5E9624"/>
</linearGradient>
<linearGradient id="paint5_linear" x1="-1102.7" y1="-1560.98" x2="-1095.07" y2="-1553.35" gradientUnits="userSpaceOnUse">
<stop stop-color="#86D633"/>
<stop offset="1" stop-color="#5E9624"/>
</linearGradient>
<clipPath id="clip0">
<rect width="99.2799" height="99.28" fill="white"/>
</clipPath>
</defs>
</svg>
