<svg width="103" height="103" viewBox="0 0 103 103" fill="none" xmlns="http://www.w3.org/2000/svg">
<path d="M51.7465 98.4614C25.8965 98.4614 4.93652 77.5114 4.93652 51.6514C4.93652 25.7914 25.8965 4.84143 51.7465 4.84143C77.5965 4.84143 98.5565 25.8014 98.5565 51.6514C98.5565 77.5014 77.5965 98.4614 51.7465 98.4614Z" fill="url(#paint0_linear_1101_62)"/>
<path fill-rule="evenodd" clip-rule="evenodd" d="M97.6464 51.6515C97.6464 77.0015 77.0964 97.5515 51.7464 97.5515C26.3964 97.5515 5.84645 77.0015 5.84645 51.6515C5.84645 26.3015 26.3964 5.75154 51.7464 5.75154C77.0964 5.75154 97.6464 26.3015 97.6464 51.6515ZM51.7464 2.01154C79.1664 2.01154 101.386 24.2315 101.386 51.6515C101.386 79.0715 79.1564 101.292 51.7464 101.292C24.3264 101.292 2.10645 79.0615 2.10645 51.6515C2.10645 24.2315 24.3264 2.01154 51.7464 2.01154Z" fill="#F2F1F0"/>
<path fill-rule="evenodd" clip-rule="evenodd" d="M94.8365 51.6514C94.8365 75.4514 75.5465 94.7414 51.7465 94.7414C27.9465 94.7414 8.6565 75.4514 8.6565 51.6514C8.6565 27.8514 27.9465 8.56142 51.7465 8.56142C75.5465 8.56142 94.8365 27.8514 94.8365 51.6514ZM51.7465 4.82141C77.6065 4.82141 98.5765 25.7914 98.5765 51.6514C98.5765 77.5114 77.6065 98.4814 51.7465 98.4814C25.8865 98.4814 4.9165 77.5114 4.9165 51.6514C4.9165 25.7914 25.8765 4.82141 51.7465 4.82141Z" fill="url(#paint1_linear_1101_62)"/>
<path d="M77.7417 32.6833H63.5546" stroke="white" stroke-width="1.2" stroke-miterlimit="10"/>
<path d="M77.7417 42.9901H63.5546" stroke="white" stroke-width="1.2" stroke-miterlimit="10"/>
<path d="M77.7417 53.2968H63.5546" stroke="white" stroke-width="1.2" stroke-miterlimit="10"/>
<path d="M77.7417 63.6054H63.5546" stroke="white" stroke-width="1.2" stroke-miterlimit="10"/>
<path d="M83.3515 68.1455H73.1033C72.4775 68.1455 71.9695 67.6375 71.9695 67.0117V60.739C71.9695 60.1132 72.4775 59.6052 73.1033 59.6052H83.3589C83.9847 59.5979 84.4927 60.1059 84.4927 60.7317V67.0043C84.4853 67.6375 83.9773 68.1455 83.3515 68.1455Z" fill="#012E4D"/>
<path d="M83.3515 47.2608H73.1033C72.4775 47.2608 71.9695 46.7528 71.9695 46.127V39.847C71.9695 39.2212 72.4775 38.7132 73.1033 38.7132H83.3589C83.9847 38.7132 84.4927 39.2212 84.4927 39.847V46.1196C84.4853 46.7528 83.9773 47.2608 83.3515 47.2608Z" fill="#016ED2"/>
<path d="M83.3515 57.7215H73.1033C72.4775 57.7215 71.9695 57.2135 71.9695 56.5878V50.3151C71.9695 49.6893 72.4775 49.1813 73.1033 49.1813H83.3589C83.9847 49.174 84.4927 49.682 84.4927 50.3151V56.5878C84.4853 57.2135 83.9773 57.7215 83.3515 57.7215Z" fill="#0153B4"/>
<path d="M83.3515 36.8352H73.1033C72.4775 36.8352 71.9695 36.3272 71.9695 35.7015V29.4214C71.9695 28.7957 72.4775 28.2877 73.1033 28.2877H83.3589C83.9847 28.2877 84.4927 28.7957 84.4927 29.4214V35.6941C84.4853 36.3272 83.9773 36.8352 83.3515 36.8352Z" fill="#018AF0"/>
<path opacity="0.2" d="M67.21 72.6732C68.227 72.6732 69.0498 71.8503 69.0498 70.8333V27.3337H22.564V70.8333C22.564 71.8503 23.3868 72.6732 24.4038 72.6732H67.21Z" fill="#1F1D21"/>
<g filter="url(#filter0_d_1101_62)">
<path d="M69.0498 27.3145V26.5934C69.0498 25.6966 68.3287 24.9755 67.4319 24.9755H24.1819C23.2851 24.9755 22.564 25.6966 22.564 26.5934V27.3885V28.1189V69.5105C22.564 70.4073 23.2851 71.1285 24.1819 71.1285H67.4504C68.3472 71.1285 69.0683 70.4073 69.0683 69.5105V27.3885C69.0591 27.3608 69.0498 27.3423 69.0498 27.3145Z" fill="#F2F1F0"/>
</g>
<path opacity="0.2" d="M63.8394 76.249C64.8564 76.249 65.6792 75.4262 65.6792 74.4092V30.9096H19.1934V74.4092C19.1934 75.4262 20.0162 76.249 21.0332 76.249H63.8394Z" fill="#1F1D21"/>
<g filter="url(#filter1_d_1101_62)">
<path d="M65.6792 30.8905V30.1694C65.6792 29.2726 64.9581 28.5515 64.0613 28.5515H20.8113C19.9145 28.5515 19.1934 29.2726 19.1934 30.1694V30.9645V31.6949V73.0865C19.1934 73.9833 19.9145 74.7045 20.8113 74.7045H64.0798C64.9766 74.7045 65.6977 73.9833 65.6977 73.0865V30.9645C65.6885 30.9368 65.6792 30.9183 65.6792 30.8905Z" fill="white"/>
</g>
<path d="M51.2857 65.3634H41.6618C41.3867 65.3703 41.1133 65.3184 40.8599 65.2111C40.6165 65.1116 40.3956 64.9643 40.2103 64.7779C40.0221 64.594 39.8746 64.3727 39.7772 64.1283C39.6745 63.8875 39.6226 63.6282 39.6248 63.3664C39.6169 63.0912 39.6689 62.8176 39.7772 62.5645C39.8746 62.3201 40.0221 62.0987 40.2103 61.9148C40.3956 61.7284 40.6165 61.5812 40.8599 61.4818C41.1133 61.3745 41.3867 61.3225 41.6618 61.3294H51.2857C51.8148 61.3314 52.3219 61.5417 52.6972 61.9148C52.883 62.0999 53.0304 62.3199 53.1309 62.5621C53.2313 62.8044 53.2829 63.0641 53.2826 63.3263C53.2829 63.5886 53.2313 63.8484 53.1309 64.0906C53.0304 64.3328 52.883 64.5528 52.6972 64.7378C52.5158 64.9313 52.2973 65.0864 52.0549 65.1938C51.8124 65.3013 51.5508 65.3589 51.2857 65.3634V65.3634Z" fill="url(#paint2_linear_1101_62)"/>
<path d="M35.6231 36.5802L47.3481 48.8025C47.6154 49.0825 47.8204 49.4159 47.9496 49.7808C48.0785 50.1457 48.1251 50.5347 48.086 50.9197C48.0484 51.3059 47.931 51.68 47.7411 52.0184C47.5386 52.3566 47.2649 52.6467 46.9391 52.8686L29.1591 65.4677C28.9136 65.6444 28.6356 65.7708 28.341 65.8397C28.0465 65.9085 27.7412 65.9184 27.4429 65.8687C26.8411 65.7653 26.3032 65.4316 25.9431 64.9384C25.5903 64.4407 25.4463 63.8246 25.5421 63.2221C25.6423 62.6191 25.9767 62.0801 26.4724 61.7224L42.2635 50.4144L32.2949 39.6999C31.8903 39.2658 31.6741 38.6891 31.6934 38.096C31.6994 37.7945 31.7657 37.4974 31.8883 37.2219C32.0108 36.9465 32.1873 36.6983 32.4071 36.492C32.8384 36.0802 33.4149 35.8553 34.0111 35.8664C34.314 35.871 34.6128 35.9365 34.8898 36.0592C35.1668 36.1818 35.4162 36.359 35.6231 36.5802V36.5802Z" fill="url(#paint3_linear_1101_62)"/>
<path d="M67.7528 68.2707C74.5074 68.2707 79.9831 62.795 79.9831 56.0403C79.9831 49.2857 74.5074 43.81 67.7528 43.81C60.9982 43.81 55.5225 49.2857 55.5225 56.0403C55.5225 62.795 60.9982 68.2707 67.7528 68.2707Z" fill="white"/>
<path opacity="0.15" d="M90.278 76.9998L78.3046 65.0345C80.0392 62.7779 81.0671 59.9512 81.0671 56.8916C81.0671 49.4956 75.0604 43.5049 67.6724 43.5049C60.2844 43.5049 54.2856 49.4956 54.2856 56.8916C54.2856 64.2876 60.2763 70.2783 67.6724 70.2783C70.6436 70.2783 73.374 69.3147 75.6064 67.6765L87.5959 79.6659C87.5959 79.6659 88.6398 80.0754 89.74 78.911C90.8482 77.7627 90.278 76.9998 90.278 76.9998ZM56.2852 56.9398C56.2852 50.668 61.3685 45.5848 67.6402 45.5848C73.912 45.5848 78.9953 50.668 78.9953 56.9398C78.9953 63.2115 73.8959 68.2948 67.6242 68.2948C61.3524 68.2948 56.2852 63.2115 56.2852 56.9398Z" fill="#1F1D20"/>
<path d="M73.5753 50.5796L65.3682 58.8268L62.9029 56.3534L61.2646 58.0077L65.3682 62.1273L75.2296 52.2419L73.5753 50.5796Z" fill="url(#paint4_linear_1101_62)"/>
<path d="M56.2852 56.2011C56.2852 49.9293 61.3685 44.8461 67.6402 44.8461C73.912 44.8461 78.9953 49.9293 78.9953 56.2011C78.9953 62.4728 73.8959 67.5561 67.6242 67.5561C61.3524 67.5561 56.2852 62.4728 56.2852 56.2011ZM90.278 76.2611L78.3046 64.2957C80.0392 62.0392 81.0671 59.2125 81.0671 56.1529C81.0671 48.7569 75.0684 42.7662 67.6724 42.7662C60.2763 42.7662 54.2856 48.7569 54.2856 56.1529C54.2856 63.5489 60.2763 69.5396 67.6724 69.5396C70.6436 69.5396 73.374 68.576 75.6064 66.9378L87.5959 78.9272C87.5959 78.9272 88.6398 79.3367 89.74 78.1723C90.8482 77.024 90.278 76.2611 90.278 76.2611Z" fill="#012E4D"/>
<defs>
<filter id="filter0_d_1101_62" x="18.564" y="22.9755" width="54.5044" height="54.153" filterUnits="userSpaceOnUse" color-interpolation-filters="sRGB">
<feFlood flood-opacity="0" result="BackgroundImageFix"/>
<feColorMatrix in="SourceAlpha" type="matrix" values="0 0 0 0 0 0 0 0 0 0 0 0 0 0 0 0 0 0 127 0" result="hardAlpha"/>
<feOffset dy="2"/>
<feGaussianBlur stdDeviation="2"/>
<feComposite in2="hardAlpha" operator="out"/>
<feColorMatrix type="matrix" values="0 0 0 0 0 0 0 0 0 0 0 0 0 0 0 0 0 0 0.25 0"/>
<feBlend mode="normal" in2="BackgroundImageFix" result="effect1_dropShadow_1101_62"/>
<feBlend mode="normal" in="SourceGraphic" in2="effect1_dropShadow_1101_62" result="shape"/>
</filter>
<filter id="filter1_d_1101_62" x="15.1934" y="26.5515" width="54.5044" height="54.153" filterUnits="userSpaceOnUse" color-interpolation-filters="sRGB">
<feFlood flood-opacity="0" result="BackgroundImageFix"/>
<feColorMatrix in="SourceAlpha" type="matrix" values="0 0 0 0 0 0 0 0 0 0 0 0 0 0 0 0 0 0 127 0" result="hardAlpha"/>
<feOffset dy="2"/>
<feGaussianBlur stdDeviation="2"/>
<feComposite in2="hardAlpha" operator="out"/>
<feColorMatrix type="matrix" values="0 0 0 0 0 0 0 0 0 0 0 0 0 0 0 0 0 0 0.25 0"/>
<feBlend mode="normal" in2="BackgroundImageFix" result="effect1_dropShadow_1101_62"/>
<feBlend mode="normal" in="SourceGraphic" in2="effect1_dropShadow_1101_62" result="shape"/>
</filter>
<linearGradient id="paint0_linear_1101_62" x1="49.9726" y1="-13.1381" x2="53.9546" y2="132.632" gradientUnits="userSpaceOnUse">
<stop stop-color="#00ABDE"/>
<stop offset="1" stop-color="#007ED8"/>
</linearGradient>
<linearGradient id="paint1_linear_1101_62" x1="3.1769" y1="-19.9712" x2="98.7044" y2="120.91" gradientUnits="userSpaceOnUse">
<stop stop-color="#007ED8"/>
<stop offset="0.7065" stop-color="#002D4C"/>
</linearGradient>
<linearGradient id="paint2_linear_1101_62" x1="29.6481" y1="30.9981" x2="60.7734" y2="90.8425" gradientUnits="userSpaceOnUse">
<stop stop-color="#007ED8"/>
<stop offset="0.71" stop-color="#002D4C"/>
</linearGradient>
<linearGradient id="paint3_linear_1101_62" x1="24.6118" y1="33.6128" x2="55.7369" y2="93.4651" gradientUnits="userSpaceOnUse">
<stop stop-color="#007ED8"/>
<stop offset="0.71" stop-color="#002D4C"/>
</linearGradient>
<linearGradient id="paint4_linear_1101_62" x1="60.7074" y1="49.7132" x2="61.1652" y2="65.7097" gradientUnits="userSpaceOnUse">
<stop stop-color="#007ED8"/>
<stop offset="0.71" stop-color="#002D4C"/>
</linearGradient>
</defs>
</svg>
