<svg width="100" height="100" viewBox="0 0 100 100" fill="none" xmlns="http://www.w3.org/2000/svg">
<g clip-path="url(#clip0)">
<path d="M49.6401 96.4501C40.382 96.4501 31.3317 93.7047 23.6339 88.5612C15.936 83.4176 9.93624 76.1069 6.3933 67.5535C2.85036 59.0001 1.92337 49.5882 3.72954 40.5079C5.53571 31.4277 9.99394 23.0869 16.5404 16.5404C23.0869 9.99393 31.4277 5.53571 40.5079 3.72954C49.5882 1.92337 59.0001 2.85036 67.5535 6.3933C76.1069 9.93624 83.4176 15.936 88.5612 23.6339C93.7047 31.3317 96.4501 40.382 96.4501 49.6401C96.4505 55.7874 95.24 61.8746 92.8878 67.554C90.5355 73.2335 87.0875 78.3939 82.7407 82.7407C78.3939 87.0875 73.2335 90.5355 67.554 92.8878C61.8746 95.24 55.7874 96.4505 49.6401 96.4501V96.4501Z" fill="url(#paint0_linear)"/>
<path fill-rule="evenodd" clip-rule="evenodd" d="M95.54 49.64C95.54 58.7182 92.848 67.5925 87.8045 75.1407C82.7609 82.6889 75.5923 88.572 67.2052 92.0461C58.818 95.5201 49.5891 96.4291 40.6854 94.658C31.7816 92.887 23.603 88.5154 17.1838 82.0962C10.7646 75.677 6.39302 67.4984 4.62196 58.5946C2.85089 49.6909 3.75987 40.462 7.23393 32.0748C10.708 23.6877 16.5911 16.5191 24.1393 11.4755C31.6875 6.43199 40.5618 3.74 49.64 3.74C55.6677 3.73998 61.6363 4.9272 67.2052 7.23388C72.774 9.54057 77.834 12.9215 82.0963 17.1837C86.3585 21.446 89.7394 26.5059 92.0461 32.0748C94.3528 37.6437 95.54 43.6123 95.54 49.64V49.64ZM49.64 3.62732e-07C59.4579 3.62732e-07 69.0553 2.91134 77.2185 8.36585C85.3818 13.8204 91.7442 21.5731 95.5014 30.6436C99.2585 39.7141 100.242 49.6951 98.3262 59.3243C96.4108 68.9535 91.6831 77.7985 84.7408 84.7408C77.7985 91.6831 68.9535 96.4108 59.3243 98.3262C49.6951 100.242 39.7141 99.2585 30.6436 95.5014C21.5731 91.7442 13.8204 85.3818 8.36585 77.2185C2.91134 69.0553 3.62732e-07 59.4579 3.62732e-07 49.64C-0.000787738 43.121 1.28265 36.6656 3.77702 30.6427C6.27138 24.6197 9.9278 19.1471 14.5375 14.5375C19.1471 9.9278 24.6197 6.27138 30.6427 3.77702C36.6656 1.28265 43.121 -0.000787738 49.64 3.62732e-07V3.62732e-07Z" fill="#F2F1F0"/>
<path fill-rule="evenodd" clip-rule="evenodd" d="M92.7296 49.6406C92.7296 58.163 90.2024 66.494 85.4676 73.5801C80.7328 80.6662 74.0031 86.1892 66.1294 89.4505C58.2557 92.7119 49.5918 93.5653 41.2331 91.9026C32.8745 90.24 25.1966 86.1361 19.1703 80.1098C13.1441 74.0836 9.04017 66.4057 7.37753 58.047C5.7149 49.6884 6.56822 41.0244 9.8296 33.1507C13.091 25.2771 18.6139 18.5473 25.7 13.8126C32.7862 9.07776 41.1172 6.55058 49.6396 6.55058C55.2983 6.55023 60.9017 7.66455 66.1298 9.82991C71.3579 11.9953 76.1082 15.1692 80.1096 19.1706C84.1109 23.1719 87.2849 27.9223 89.4502 33.1503C91.6156 38.3784 92.7299 43.9818 92.7296 49.6406V49.6406ZM49.6396 2.81058C58.9017 2.81058 67.9558 5.55711 75.6569 10.7029C83.3581 15.8486 89.3604 23.1624 92.9049 31.7195C96.4493 40.2766 97.3767 49.6925 95.5697 58.7767C93.7628 67.8608 89.3027 76.2051 82.7534 82.7544C76.2041 89.3037 67.8598 93.7638 58.7757 95.5708C49.6915 97.3777 40.2756 96.4503 31.7185 92.9059C23.1614 89.3614 15.8476 83.3591 10.7018 75.6579C5.5561 67.9568 2.80957 58.9027 2.80957 49.6406C2.81076 37.2209 7.745 25.3101 16.5271 16.5281C25.3091 7.74599 37.2198 2.81174 49.6396 2.81055V2.81058Z" fill="#0078D4"/>
<path fill-rule="evenodd" clip-rule="evenodd" d="M57.892 21.9338C57.8918 22.6266 57.6862 23.3038 57.3012 23.8798C56.9162 24.4557 56.3691 24.9046 55.729 25.1697C55.0889 25.4347 54.3846 25.504 53.7051 25.3688C53.0256 25.2336 52.4015 24.9 51.9116 24.4101C51.4217 23.9202 51.0881 23.2961 50.9529 22.6166C50.8177 21.9371 50.887 21.2328 51.152 20.5927C51.4171 19.9526 51.8659 19.4055 52.4419 19.0204C53.0179 18.6354 53.6951 18.4299 54.3879 18.4297C55.3172 18.4297 56.2085 18.7989 56.8657 19.456C57.5228 20.1132 57.892 21.0044 57.892 21.9338Z" fill="#1F56A3"/>
<path fill-rule="evenodd" clip-rule="evenodd" d="M57.892 21.9338C57.8918 22.6266 57.6862 23.3038 57.3012 23.8798C56.9162 24.4557 56.3691 24.9046 55.729 25.1697C55.0889 25.4347 54.3846 25.504 53.7051 25.3688C53.0256 25.2336 52.4015 24.9 51.9116 24.4101C51.4217 23.9202 51.0881 23.2961 50.9529 22.6166C50.8177 21.9371 50.887 21.2328 51.152 20.5927C51.4171 19.9526 51.8659 19.4055 52.4419 19.0204C53.0179 18.6354 53.6951 18.4299 54.3879 18.4297C55.3172 18.4297 56.2085 18.7989 56.8657 19.456C57.5228 20.1132 57.892 21.0044 57.892 21.9338Z" fill="#1F56A3"/>
<path fill-rule="evenodd" clip-rule="evenodd" d="M47.8856 24.5649C47.8948 23.7214 47.5892 22.9047 47.0286 22.2743C46.468 21.644 45.6926 21.2452 44.8538 21.1558C44.015 21.0664 43.1729 21.2929 42.4921 21.791C41.8113 22.289 41.3405 23.023 41.1717 23.8495L37.7353 37.2874C37.6974 37.4386 37.6759 37.5934 37.671 37.7491C37.6642 37.8337 37.6558 37.9182 37.6558 38.0028C37.6459 38.7841 37.9064 39.5449 38.3931 40.1562C38.8797 40.7676 39.5627 41.192 40.3264 41.3575C41.0901 41.523 41.8875 41.4196 42.5837 41.0646C43.2798 40.7097 43.8319 40.1251 44.1465 39.4098C44.2327 39.1713 47.7656 25.4342 47.7757 25.3835C47.8443 25.1159 47.8812 24.8412 47.8856 24.565V24.5649Z" fill="#1F56A3"/>
<path fill-rule="evenodd" clip-rule="evenodd" d="M47.8856 24.5649C47.8948 23.7214 47.5892 22.9047 47.0286 22.2743C46.468 21.644 45.6926 21.2452 44.8538 21.1558C44.015 21.0664 43.1729 21.2929 42.4921 21.791C41.8113 22.289 41.3405 23.023 41.1717 23.8495L37.7353 37.2874C37.6974 37.4386 37.6759 37.5934 37.671 37.7491C37.6642 37.8337 37.6558 37.9182 37.6558 38.0028C37.6459 38.7841 37.9064 39.5449 38.3931 40.1562C38.8797 40.7676 39.5627 41.192 40.3264 41.3575C41.0901 41.523 41.8875 41.4196 42.5837 41.0646C43.2798 40.7097 43.8319 40.1251 44.1465 39.4098C44.2327 39.1713 47.7656 25.4342 47.7757 25.3835C47.8443 25.1159 47.8812 24.8412 47.8856 24.565V24.5649Z" fill="#1F56A3"/>
<path fill-rule="evenodd" clip-rule="evenodd" d="M51.3423 41.0281L52.2724 36.7545L51.1427 34.3125L44.3984 38.2461" fill="#50E6FF"/>
<path fill-rule="evenodd" clip-rule="evenodd" d="M60.7804 39.686C61.0059 39.7143 61.2347 39.697 61.4534 39.6351C61.672 39.5732 61.876 39.468 62.0532 39.3257C62.2303 39.1834 62.3771 39.0069 62.4847 38.8067C62.5923 38.6066 62.6586 38.3868 62.6796 38.1606C62.7169 37.8528 62.6514 37.5412 62.4933 37.2745C62.3351 37.0078 62.0932 36.8009 61.8052 36.6859H61.8055L56.0911 34.6498L53.5273 27.6111C53.258 27.032 52.8591 26.5226 52.3615 26.1223C51.8638 25.7221 51.2808 25.4416 50.6574 25.3027C47.823 24.7733 46.8337 28.0085 46.8337 28.0085L44.7249 36.8738L50.7115 33.3816L50.167 32.2062C50.1104 32.0836 50.105 31.9435 50.1517 31.8168C50.1985 31.6901 50.2937 31.5871 50.4164 31.5306C50.5391 31.4741 50.6792 31.4686 50.8059 31.5154C50.9326 31.5622 51.0355 31.6574 51.092 31.7801L51.8074 33.3207C51.8087 33.3242 51.8111 33.3271 51.8141 33.3292C51.8209 33.3376 51.8192 33.3461 51.8226 33.3545L53.2026 36.3293L53.3413 36.6117C53.4974 36.8582 53.7202 37.0552 53.9839 37.1799L59.5342 39.2973" fill="#50E6FF"/>
<path fill-rule="evenodd" clip-rule="evenodd" d="M51.3423 41.0281L52.2725 36.7545L51.1427 34.3125L44.3985 38.2461L44.0017 39.9072L51.3423 41.0281Z" fill="#50E6FF"/>
<path fill-rule="evenodd" clip-rule="evenodd" d="M60.7804 39.686C61.0059 39.7143 61.2347 39.697 61.4534 39.6351C61.672 39.5732 61.876 39.468 62.0532 39.3257C62.2303 39.1834 62.3771 39.0069 62.4847 38.8067C62.5923 38.6066 62.6586 38.3868 62.6796 38.1606C62.7169 37.8528 62.6514 37.5412 62.4933 37.2745C62.3351 37.0078 62.0932 36.8009 61.8052 36.6859H61.8055L56.0911 34.6498L53.5273 27.6111C53.258 27.032 52.8591 26.5226 52.3615 26.1223C51.8638 25.7221 51.2808 25.4416 50.6574 25.3027C47.823 24.7733 46.8337 28.0085 46.8337 28.0085L44.7249 36.8738L50.7115 33.3816L50.167 32.2062C50.1104 32.0836 50.105 31.9435 50.1517 31.8168C50.1985 31.6901 50.2937 31.5871 50.4164 31.5306C50.5391 31.4741 50.6792 31.4686 50.8059 31.5154C50.9326 31.5622 51.0355 31.6574 51.092 31.7801L51.8074 33.3207C51.8087 33.3242 51.8111 33.3271 51.8141 33.3292C51.8209 33.3376 51.8192 33.3461 51.8226 33.3545L53.2026 36.3293L53.3413 36.6117C53.4974 36.8582 53.7202 37.0552 53.9839 37.1799L59.5342 39.2973" fill="#50E6FF"/>
<path fill-rule="evenodd" clip-rule="evenodd" d="M57.0005 46.1875L56.9465 46.2811L57.9087 47.1876C58.3659 47.7278 58.5952 48.4246 58.548 49.1308V49.1308L58.5937 58.7654V59.3184C58.576 59.6354 58.4939 59.9454 58.3523 60.2295C58.2106 60.5136 58.0126 60.7658 57.7701 60.9707C57.5266 61.1898 57.2411 61.3571 56.9308 61.4624C56.6206 61.5676 56.2922 61.6086 55.9656 61.5829C55.417 61.5779 54.8881 61.378 54.4733 61.0189C54.0584 60.6599 53.7848 60.1651 53.7011 59.6229V59.6229L53.7096 51.8438L53.5436 52.1278L53.5438 49.5897L48.0966 45.1218L46.9246 50.0582C46.7183 50.5131 46.556 50.8564 46.4342 51.1033L40.5406 60.3522C40.3235 60.7682 39.9849 61.1083 39.5699 61.3273C39.1548 61.5464 38.6829 61.6339 38.217 61.5782C37.5539 61.5118 36.9412 61.1948 36.5038 60.6921C36.2857 60.4495 36.1232 60.1621 36.028 59.8501C35.9328 59.538 35.907 59.2089 35.9525 58.8859C35.9417 58.5153 36.0495 58.1509 36.2603 57.8459V57.8459L41.7855 49.2023L44.0016 39.9062H51.5858L51.3422 41.0271L55.9893 45.3902L57.0005 46.1875Z" fill="#1F56A3"/>
<path fill-rule="evenodd" clip-rule="evenodd" d="M64.5663 33.2715L48.3312 61.3915C48.2162 61.5902 48.0271 61.7351 47.8054 61.7944C47.5837 61.8537 47.3475 61.8225 47.1488 61.7078C46.95 61.593 46.8049 61.404 46.7454 61.1824C46.6859 60.9607 46.7169 60.7245 46.8314 60.5257L63.0665 32.4056C63.1234 32.3071 63.1991 32.2208 63.2893 32.1516C63.3795 32.0824 63.4825 32.0316 63.5923 32.0022C63.7021 31.9727 63.8167 31.9652 63.9294 31.9801C64.0422 31.9949 64.1509 32.0318 64.2494 32.0887C64.3478 32.1455 64.4341 32.2212 64.5034 32.3114C64.5726 32.4016 64.6234 32.5046 64.6528 32.6144C64.6822 32.7243 64.6897 32.8388 64.6749 32.9515C64.66 33.0643 64.6231 33.173 64.5663 33.2715V33.2715Z" fill="white"/>
<path fill-rule="evenodd" clip-rule="evenodd" d="M64.5663 33.2715L48.3312 61.3915C48.2162 61.5902 48.0271 61.7351 47.8054 61.7944C47.5837 61.8537 47.3475 61.8225 47.1488 61.7078C46.95 61.593 46.8049 61.404 46.7454 61.1824C46.6859 60.9607 46.7169 60.7245 46.8314 60.5257L63.0665 32.4056C63.1234 32.3071 63.1991 32.2208 63.2893 32.1516C63.3795 32.0824 63.4825 32.0316 63.5923 32.0022C63.7021 31.9727 63.8167 31.9652 63.9294 31.9801C64.0422 31.9949 64.1509 32.0318 64.2494 32.0887C64.3478 32.1455 64.4341 32.2212 64.5034 32.3114C64.5726 32.4016 64.6234 32.5046 64.6528 32.6144C64.6822 32.7243 64.6897 32.8388 64.6749 32.9515C64.66 33.0643 64.6231 33.173 64.5663 33.2715V33.2715Z" fill="white"/>
<path fill-rule="evenodd" clip-rule="evenodd" d="M85.231 76.9319L76.524 86.0979L49.64 95.5399L29.897 90.3359L14.317 79.1089L5.31396 61.5879H92.73L85.231 76.9319Z" fill="#003067"/>
<path fill-rule="evenodd" clip-rule="evenodd" d="M43.0743 84.7184H29.9422C29.6239 84.7184 29.3187 84.5919 29.0937 84.3669C28.8686 84.1418 28.7422 83.8366 28.7422 83.5184C28.7422 83.2001 28.8686 82.8949 29.0937 82.6698C29.3187 82.4448 29.6239 82.3184 29.9422 82.3184H43.0743C43.3925 82.3184 43.6978 82.4448 43.9228 82.6698C44.1478 82.8949 44.2743 83.2001 44.2743 83.5184C44.2743 83.8366 44.1478 84.1418 43.9228 84.3669C43.6978 84.5919 43.3925 84.7184 43.0743 84.7184Z" fill="#FFFFFE"/>
<path fill-rule="evenodd" clip-rule="evenodd" d="M55.0124 84.7184H47.8494C47.5312 84.7184 47.2259 84.5919 47.0009 84.3669C46.7758 84.1418 46.6494 83.8366 46.6494 83.5184C46.6494 83.2001 46.7758 82.8949 47.0009 82.6698C47.2259 82.4448 47.5312 82.3184 47.8494 82.3184H55.0124C55.3307 82.3184 55.6359 82.4448 55.8609 82.6698C56.086 82.8949 56.2124 83.2001 56.2124 83.5184C56.2124 83.8366 56.086 84.1418 55.8609 84.3669C55.6359 84.5919 55.3307 84.7184 55.0124 84.7184V84.7184Z" fill="#50E6FF"/>
<path fill-rule="evenodd" clip-rule="evenodd" d="M43.0742 73.2398H23.3055C22.9872 73.2398 22.682 73.1134 22.4569 72.8884C22.2319 72.6633 22.1055 72.3581 22.1055 72.0398C22.1055 71.7216 22.2319 71.4164 22.4569 71.1913C22.682 70.9663 22.9872 70.8398 23.3055 70.8398H43.0742C43.3925 70.8398 43.6977 70.9663 43.9227 71.1913C44.1478 71.4164 44.2742 71.7216 44.2742 72.0398C44.2742 72.3581 44.1478 72.6633 43.9227 72.8884C43.6977 73.1134 43.3925 73.2398 43.0742 73.2398Z" fill="#FFFFFE"/>
<path fill-rule="evenodd" clip-rule="evenodd" d="M58.5938 73.2398H47.8494C47.5312 73.2398 47.2259 73.1134 47.0009 72.8884C46.7758 72.6633 46.6494 72.3581 46.6494 72.0398C46.6494 71.7216 46.7758 71.4164 47.0009 71.1913C47.2259 70.9663 47.5312 70.8398 47.8494 70.8398H58.5938C58.9121 70.8398 59.2173 70.9663 59.4423 71.1913C59.6674 71.4164 59.7938 71.7216 59.7938 72.0398C59.7938 72.3581 59.6674 72.6633 59.4423 72.8884C59.2173 73.1134 58.9121 73.2398 58.5938 73.2398V73.2398Z" fill="#FFFFFE"/>
<path fill-rule="evenodd" clip-rule="evenodd" d="M65.1597 73.2398H63.3689C63.0507 73.2398 62.7455 73.1134 62.5204 72.8884C62.2954 72.6633 62.1689 72.3581 62.1689 72.0398C62.1689 71.7216 62.2954 71.4164 62.5204 71.1913C62.7455 70.9663 63.0507 70.8398 63.3689 70.8398H65.1597C65.4779 70.8398 65.7832 70.9663 66.0082 71.1913C66.2332 71.4164 66.3597 71.7216 66.3597 72.0398C66.3597 72.3581 66.2332 72.6633 66.0082 72.8884C65.7832 73.1134 65.4779 73.2398 65.1597 73.2398Z" fill="#C3F1FF"/>
<path fill-rule="evenodd" clip-rule="evenodd" d="M63.3691 84.7184H59.7876C59.4694 84.7184 59.1642 84.5919 58.9391 84.3669C58.7141 84.1418 58.5876 83.8366 58.5876 83.5184C58.5876 83.2001 58.7141 82.8949 58.9391 82.6698C59.1642 82.4448 59.4694 82.3184 59.7876 82.3184H63.3691C63.6873 82.3184 63.9926 82.4448 64.2176 82.6698C64.4426 82.8949 64.5691 83.2001 64.5691 83.5184C64.5691 83.8366 64.4426 84.1418 64.2176 84.3669C63.9926 84.5919 63.6873 84.7184 63.3691 84.7184Z" fill="#0078D4"/>
<path fill-rule="evenodd" clip-rule="evenodd" d="M78.708 67.4996H75.1265C74.8083 67.4996 74.503 67.3732 74.278 67.1481C74.0529 66.9231 73.9265 66.6179 73.9265 66.2996C73.9265 65.9814 74.0529 65.6761 74.278 65.4511C74.503 65.226 74.8083 65.0996 75.1265 65.0996H78.708C79.0263 65.0996 79.3315 65.226 79.5565 65.4511C79.7816 65.6761 79.908 65.9814 79.908 66.2996C79.908 66.6179 79.7816 66.9231 79.5565 67.1481C79.3315 67.3732 79.0263 67.4996 78.708 67.4996Z" fill="#C3F1FF"/>
<path fill-rule="evenodd" clip-rule="evenodd" d="M19.0818 73.2398H12.232C11.9137 73.2398 11.6085 73.1134 11.3835 72.8884C11.1584 72.6633 11.032 72.3581 11.032 72.0398C11.032 71.7216 11.1584 71.4164 11.3835 71.1913C11.6085 70.9663 11.9137 70.8398 12.232 70.8398H19.0818C19.4001 70.8398 19.7053 70.9663 19.9303 71.1913C20.1554 71.4164 20.2818 71.7216 20.2818 72.0398C20.2818 72.3581 20.1554 72.6633 19.9303 72.8884C19.7053 73.1134 19.4001 73.2398 19.0818 73.2398H19.0818Z" fill="#C3F1FF"/>
<path fill-rule="evenodd" clip-rule="evenodd" d="M77.514 84.7184H68.3008C67.9826 84.7184 67.6774 84.5919 67.4523 84.3669C67.2273 84.1418 67.1008 83.8366 67.1008 83.5184C67.1008 83.2001 67.2273 82.8949 67.4523 82.6698C67.6774 82.4448 67.9826 82.3184 68.3008 82.3184H77.514C77.8323 82.3184 78.1375 82.4448 78.3626 82.6698C78.5876 82.8949 78.714 83.2001 78.714 83.5184C78.714 83.8366 78.5876 84.1418 78.3626 84.3669C78.1375 84.5919 77.8323 84.7184 77.514 84.7184Z" fill="#FFFFFE"/>
<path fill-rule="evenodd" clip-rule="evenodd" d="M87.7332 73.2398H69.8182C69.4999 73.2398 69.1947 73.1134 68.9696 72.8884C68.7446 72.6633 68.6182 72.3581 68.6182 72.0398C68.6182 71.7216 68.7446 71.4164 68.9696 71.1913C69.1947 70.9663 69.4999 70.8398 69.8182 70.8398H87.7332C88.0514 70.8398 88.3566 70.9663 88.5817 71.1913C88.8067 71.4164 88.9332 71.7216 88.9332 72.0398C88.9332 72.3581 88.8067 72.6633 88.5817 72.8884C88.3566 73.1134 88.0514 73.2398 87.7332 73.2398Z" fill="#C3F1FF"/>
<path fill-rule="evenodd" clip-rule="evenodd" d="M34.7175 78.9781H29.9422C29.6239 78.9781 29.3187 78.8517 29.0937 78.6267C28.8686 78.4016 28.7422 78.0964 28.7422 77.7781C28.7422 77.4599 28.8686 77.1546 29.0937 76.9296C29.3187 76.7046 29.6239 76.5781 29.9422 76.5781H34.7175C35.0357 76.5781 35.3409 76.7046 35.566 76.9296C35.791 77.1546 35.9175 77.4599 35.9175 77.7781C35.9175 78.0964 35.791 78.4016 35.566 78.6267C35.3409 78.8517 35.0357 78.9781 34.7175 78.9781V78.9781Z" fill="#0078D4"/>
<path fill-rule="evenodd" clip-rule="evenodd" d="M84.7834 78.9781H80.9676C80.6493 78.9781 80.3441 78.8517 80.119 78.6267C79.894 78.4016 79.7676 78.0964 79.7676 77.7781C79.7676 77.4599 79.894 77.1546 80.119 76.9296C80.3441 76.7046 80.6493 76.5781 80.9676 76.5781H84.7834C85.1017 76.5781 85.4069 76.7046 85.632 76.9296C85.857 77.1546 85.9835 77.4599 85.9835 77.7781C85.9835 78.0964 85.857 78.4016 85.632 78.6267C85.4069 78.8517 85.1017 78.9781 84.7834 78.9781V78.9781Z" fill="#0078D4"/>
<path fill-rule="evenodd" clip-rule="evenodd" d="M25.1532 84.7184H20.378C20.0597 84.7184 19.7545 84.5919 19.5294 84.3669C19.3044 84.1418 19.178 83.8366 19.178 83.5184C19.178 83.2001 19.3044 82.8949 19.5294 82.6698C19.7545 82.4448 20.0597 82.3184 20.378 82.3184H25.1532C25.4715 82.3184 25.7767 82.4448 26.0018 82.6698C26.2268 82.8949 26.3532 83.2001 26.3532 83.5184C26.3532 83.8366 26.2268 84.1418 26.0018 84.3669C25.7767 84.5919 25.4715 84.7184 25.1532 84.7184V84.7184Z" fill="#0078D4"/>
<path fill-rule="evenodd" clip-rule="evenodd" d="M52.6248 78.9781H39.7195C39.4013 78.9781 39.096 78.8517 38.871 78.6267C38.646 78.4016 38.5195 78.0964 38.5195 77.7781C38.5195 77.4599 38.646 77.1546 38.871 76.9296C39.096 76.7046 39.4013 76.5781 39.7195 76.5781H52.6248C52.943 76.5781 53.2482 76.7046 53.4733 76.9296C53.6983 77.1546 53.8248 77.4599 53.8248 77.7781C53.8248 78.0964 53.6983 78.4016 53.4733 78.6267C53.2482 78.8517 52.943 78.9781 52.6248 78.9781Z" fill="#C3F1FF"/>
<path fill-rule="evenodd" clip-rule="evenodd" d="M52.6248 67.4996H47.8494C47.5312 67.4996 47.2259 67.3732 47.0009 67.1481C46.7758 66.9231 46.6494 66.6179 46.6494 66.2996C46.6494 65.9814 46.7758 65.6761 47.0009 65.4511C47.2259 65.226 47.5312 65.0996 47.8494 65.0996H52.6248C52.943 65.0996 53.2483 65.226 53.4733 65.4511C53.6984 65.6761 53.8248 65.9814 53.8248 66.2996C53.8248 66.6179 53.6984 66.9231 53.4733 67.1481C53.2483 67.3732 52.943 67.4996 52.6248 67.4996Z" fill="#0078D4"/>
<path fill-rule="evenodd" clip-rule="evenodd" d="M25.4444 67.4996H8.51494C8.19668 67.4996 7.89146 67.3732 7.66641 67.1481C7.44137 66.9231 7.31494 66.6179 7.31494 66.2996C7.31494 65.9814 7.44137 65.6761 7.66641 65.4511C7.89146 65.226 8.19668 65.0996 8.51494 65.0996H25.4444C25.7626 65.0996 26.0679 65.226 26.2929 65.4511C26.518 65.6761 26.6444 65.9814 26.6444 66.2996C26.6444 66.6179 26.518 66.9231 26.2929 67.1481C26.0679 67.3732 25.7626 67.4996 25.4444 67.4996Z" fill="#0078D4"/>
<path fill-rule="evenodd" clip-rule="evenodd" d="M43.0743 67.4996H29.9422C29.6239 67.4996 29.3187 67.3732 29.0937 67.1481C28.8686 66.9231 28.7422 66.6179 28.7422 66.2996C28.7422 65.9814 28.8686 65.6761 29.0937 65.4511C29.3187 65.226 29.6239 65.0996 29.9422 65.0996H43.0743C43.3925 65.0996 43.6978 65.226 43.9228 65.4511C44.1478 65.6761 44.2743 65.9814 44.2743 66.2996C44.2743 66.6179 44.1478 66.9231 43.9228 67.1481C43.6978 67.3732 43.3925 67.4996 43.0743 67.4996Z" fill="#50E6FF"/>
<path fill-rule="evenodd" clip-rule="evenodd" d="M76.3203 78.9781H57.4C57.0817 78.9781 56.7765 78.8517 56.5514 78.6267C56.3264 78.4016 56.2 78.0964 56.2 77.7781C56.2 77.4599 56.3264 77.1546 56.5514 76.9296C56.7765 76.7046 57.0817 76.5781 57.4 76.5781H76.3203C76.6386 76.5781 76.9438 76.7046 77.1688 76.9296C77.3939 77.1546 77.5203 77.4599 77.5203 77.7781C77.5203 78.0964 77.3939 78.4016 77.1688 78.6267C76.9438 78.8517 76.6386 78.9781 76.3203 78.9781Z" fill="#50E6FF"/>
<path fill-rule="evenodd" clip-rule="evenodd" d="M24.7218 78.9781H14.3167C13.9984 78.9781 13.6932 78.8517 13.4682 78.6267C13.2431 78.4016 13.1167 78.0964 13.1167 77.7781C13.1167 77.4599 13.2431 77.1546 13.4682 76.9296C13.6932 76.7046 13.9984 76.5781 14.3167 76.5781H24.7218C25.04 76.5781 25.3453 76.7046 25.5703 76.9296C25.7954 77.1546 25.9218 77.4599 25.9218 77.7781C25.9218 78.0964 25.7954 78.4016 25.5703 78.6267C25.3453 78.8517 25.04 78.9781 24.7218 78.9781V78.9781Z" fill="#50E6FF"/>
<path fill-rule="evenodd" clip-rule="evenodd" d="M90.4108 67.4996H83.296C82.9777 67.4996 82.6725 67.3732 82.4474 67.1481C82.2224 66.9231 82.0959 66.6179 82.0959 66.2996C82.0959 65.9814 82.2224 65.6761 82.4474 65.4511C82.6725 65.226 82.9777 65.0996 83.296 65.0996H90.4108C90.7291 65.0996 91.0343 65.226 91.2593 65.4511C91.4844 65.6761 91.6108 65.9814 91.6108 66.2996C91.6108 66.6179 91.4844 66.9231 91.2593 67.1481C91.0343 67.3732 90.7291 67.4996 90.4108 67.4996Z" fill="#50E6FF"/>
<path fill-rule="evenodd" clip-rule="evenodd" d="M70.532 67.4996H57.4C57.0817 67.4996 56.7765 67.3732 56.5514 67.1481C56.3264 66.9231 56.2 66.6179 56.2 66.2996C56.2 65.9814 56.3264 65.6761 56.5514 65.4511C56.7765 65.226 57.0817 65.0996 57.4 65.0996H70.532C70.8503 65.0996 71.1555 65.226 71.3806 65.4511C71.6056 65.6761 71.732 65.9814 71.732 66.2996C71.732 66.6179 71.6056 66.9231 71.3806 67.1481C71.1555 67.3732 70.8503 67.4996 70.532 67.4996Z" fill="#50E6FF"/>
<path fill-rule="evenodd" clip-rule="evenodd" d="M52.6248 90.3941H47.8494C47.5312 90.3941 47.2259 90.2677 47.0009 90.0427C46.7758 89.8176 46.6494 89.5124 46.6494 89.1941C46.6494 88.8759 46.7758 88.5707 47.0009 88.3456C47.2259 88.1206 47.5312 87.9941 47.8494 87.9941H52.6248C52.943 87.9941 53.2483 88.1206 53.4733 88.3456C53.6984 88.5707 53.8248 88.8759 53.8248 89.1941C53.8248 89.5124 53.6984 89.8176 53.4733 90.0427C53.2483 90.2677 52.943 90.3941 52.6248 90.3941Z" fill="#0078D4"/>
<path fill-rule="evenodd" clip-rule="evenodd" d="M43.0743 90.3941H29.9422C29.6239 90.3941 29.3187 90.2677 29.0937 90.0427C28.8686 89.8176 28.7422 89.5124 28.7422 89.1941C28.7422 88.8759 28.8686 88.5707 29.0937 88.3456C29.3187 88.1206 29.6239 87.9941 29.9422 87.9941H43.0743C43.3925 87.9941 43.6978 88.1206 43.9228 88.3456C44.1478 88.5707 44.2743 88.8759 44.2743 89.1941C44.2743 89.5124 44.1478 89.8176 43.9228 90.0427C43.6978 90.2677 43.3925 90.3941 43.0743 90.3941Z" fill="#50E6FF"/>
<path fill-rule="evenodd" clip-rule="evenodd" d="M70.532 90.3941H57.4C57.0817 90.3941 56.7765 90.2677 56.5514 90.0427C56.3264 89.8176 56.2 89.5124 56.2 89.1941C56.2 88.8759 56.3264 88.5707 56.5514 88.3456C56.7765 88.1206 57.0817 87.9941 57.4 87.9941H70.532C70.8503 87.9941 71.1555 88.1206 71.3806 88.3456C71.6056 88.5707 71.732 88.8759 71.732 89.1941C71.732 89.5124 71.6056 89.8176 71.3806 90.0427C71.1555 90.2677 70.8503 90.3941 70.532 90.3941Z" fill="#50E6FF"/>
<path fill-rule="evenodd" clip-rule="evenodd" d="M92.7296 49.6405C92.7296 58.1629 90.2024 66.494 85.4676 73.5801C80.7328 80.6662 74.0031 86.1891 66.1294 89.4505C58.2557 92.7119 49.5918 93.5652 41.2331 91.9026C32.8745 90.24 25.1966 86.136 19.1703 80.1098C13.1441 74.0835 9.04017 66.4056 7.37753 58.047C5.7149 49.6883 6.56822 41.0244 9.8296 33.1507C13.091 25.277 18.6139 18.5473 25.7001 13.8125C32.7862 9.07773 41.1172 6.55055 49.6396 6.55055C55.2983 6.5502 60.9017 7.66452 66.1298 9.82988C71.3579 11.9952 76.1082 15.1692 80.1096 19.1705C84.1109 23.1719 87.2849 27.9222 89.4502 33.1503C91.6156 38.3784 92.7299 43.9818 92.7296 49.6405V49.6405ZM49.6396 2.81055C58.9017 2.81055 67.9558 5.55708 75.6569 10.7028C83.3581 15.8486 89.3604 23.1624 92.9048 31.7195C96.4493 40.2765 97.3767 49.6925 95.5697 58.7766C93.7628 67.8608 89.3027 76.2051 82.7534 82.7544C76.2041 89.3036 67.8598 93.7638 58.7757 95.5707C49.6915 97.3777 40.2756 96.4503 31.7185 92.9058C23.1614 89.3614 15.8476 83.3591 10.7018 75.6579C5.5561 67.9568 2.80957 58.9026 2.80957 49.6405C2.81076 37.2208 7.74501 25.3101 16.5271 16.5281C25.3091 7.74599 37.2198 2.81174 49.6396 2.81055V2.81055Z" fill="#0078D4"/>
</g>
<defs>
<linearGradient id="paint0_linear" x1="47.8698" y1="-15.153" x2="51.8525" y2="130.615" gradientUnits="userSpaceOnUse">
<stop stop-color="#00ABDE"/>
<stop offset="1" stop-color="#007ED8"/>
</linearGradient>
<clipPath id="clip0">
<rect width="99.2799" height="99.28" fill="white"/>
</clipPath>
</defs>
</svg>
