<svg width="100" height="100" fill="none" xmlns="http://www.w3.org/2000/svg"><g clip-path="url(#a)"><path d="M49.64 96.45a46.81 46.81 0 1 1 0-93.62 46.81 46.81 0 0 1 0 93.62Z" fill="url(#b)"/><path fill-rule="evenodd" clip-rule="evenodd" d="M95.54 49.64a45.9 45.9 0 1 1-91.802 0 45.9 45.9 0 0 1 91.802 0ZM49.64 0a49.64 49.64 0 1 1 0 99.28 49.64 49.64 0 0 1 0-99.28Z" fill="#F2F1F0"/><path fill-rule="evenodd" clip-rule="evenodd" d="M92.73 49.64a43.09 43.09 0 1 1-86.18 0 43.09 43.09 0 0 1 86.18 0ZM49.64 2.81a46.83 46.83 0 1 1 0 93.66 46.83 46.83 0 0 1 0-93.66Z" fill="#0078D4"/><path fill-rule="evenodd" clip-rule="evenodd" d="M92.73 49.64a43.09 43.09 0 1 1-86.18 0 43.09 43.09 0 0 1 86.18 0ZM49.64 2.81a46.83 46.83 0 1 1 0 93.659 46.83 46.83 0 0 1 0-93.66Z" fill="#0078D4"/><path opacity=".2" d="M29.08 55.969h41.13a.818.818 0 0 0 .816-.816V23.041H28.264v32.112a.818.818 0 0 0 .816.816Z" fill="#003067"/><path d="M29.08 54.29h41.13a.818.818 0 0 0 .816-.816V21.362H28.264v32.112a.818.818 0 0 0 .816.816Z" fill="#F2F2F2"/><path d="M28.264 24.916h42.762v-3.833a.625.625 0 0 0-.625-.625H28.89a.625.625 0 0 0-.625.625v3.833Z" fill="url(#c)"/><path d="M31.554 23.863a1.084 1.084 0 1 0-1.088-1.08 1.074 1.074 0 0 0 1.088 1.08Z" fill="#50E6FF"/><path d="M67.236 27.675h-35.19a.84.84 0 0 0-.839.84V50.39c0 .464.376.84.84.84h35.189a.84.84 0 0 0 .84-.84V28.515a.84.84 0 0 0-.84-.84Z" fill="#E8E8E8"/><path d="M49.64 42.62a3.025 3.025 0 1 0 0-6.05 3.025 3.025 0 0 0 0 6.05Z" fill="#fff"/><path d="M47.253 36.552a3.841 3.841 0 0 1 2-.803v-6.205a10.017 10.017 0 0 0-6.387 2.62l4.387 4.388Z" fill="#F2F2F2"/><path d="M46.597 41.981a3.843 3.843 0 0 1-.815-2.11h-6.199a10.017 10.017 0 0 0 2.626 6.498l4.388-4.388Z" fill="#767676"/><path d="M45.805 39.098a3.846 3.846 0 0 1 .891-2.01l-4.382-4.382a10.02 10.02 0 0 0-2.72 6.392h6.21Z" fill="#fff"/><path d="M50.026 29.544v6.205c.73.07 1.424.35 2 .803l4.388-4.388a10.017 10.017 0 0 0-6.388-2.62Z" fill="#E8E8E8"/><path d="M52.147 42.539a3.845 3.845 0 0 1-2.121.902v6.205a10.02 10.02 0 0 0 6.503-2.725l-4.382-4.382Z" fill="#999"/><path d="M49.253 43.441a3.845 3.845 0 0 1-2.12-.903l-4.382 4.383a10.02 10.02 0 0 0 6.502 2.725v-6.205Z" fill="#949494"/><path d="M53.498 39.871a3.843 3.843 0 0 1-.815 2.11l4.388 4.388a10.017 10.017 0 0 0 2.626-6.498h-6.2Z" fill="#A3A3A3"/><path d="M52.584 37.088c.486.569.796 1.267.891 2.01h6.211a10.021 10.021 0 0 0-2.72-6.393l-4.383 4.383Z" fill="#B3B3B3"/><path d="M38.972 58.9h13.805a6.08 6.08 0 0 1 2.55.55 7.397 7.397 0 0 1 2.138 1.466 6.995 6.995 0 0 1 1.48 2.138c.365.806.553 1.681.55 2.566v8.063a6.08 6.08 0 0 1-.55 2.55 7.398 7.398 0 0 1-1.465 2.138 6.995 6.995 0 0 1-2.138 1.48 6.182 6.182 0 0 1-2.565.55H38.972a10.74 10.74 0 0 1-2.81-.366 10.244 10.244 0 0 1-2.55-1.069 11.323 11.323 0 0 1-2.199-1.695 10.766 10.766 0 0 1-1.74-2.245 10.492 10.492 0 0 1-1.451-5.375c-.006-1.905.5-3.778 1.466-5.42.466-.792 1.03-1.52 1.68-2.17a11.098 11.098 0 0 1 2.183-1.694 10.175 10.175 0 0 1 2.566-1.084 11.368 11.368 0 0 1 2.855-.382Zm0 19.547h13.79a4.514 4.514 0 0 0 1.832-.382 4.764 4.764 0 0 0 1.511-1.038 5.327 5.327 0 0 0 1.039-1.527c.263-.575.399-1.2.397-1.833V70.63h-8.796a.977.977 0 0 1 0-1.955h8.796v-3.039a4.514 4.514 0 0 0-.382-1.833 4.768 4.768 0 0 0-1.038-1.511 5.329 5.329 0 0 0-1.527-1.039 4.363 4.363 0 0 0-1.833-.397H38.972a8.629 8.629 0 0 0-3.436.688 8.75 8.75 0 0 0-4.673 4.672 8.767 8.767 0 0 0 1.894 9.651 9.06 9.06 0 0 0 2.794 1.879 8.709 8.709 0 0 0 3.421.702Z" fill="#003067"/><path d="M38.972 78.447h13.79a4.513 4.513 0 0 0 1.832-.382 4.765 4.765 0 0 0 1.511-1.038 5.331 5.331 0 0 0 1.039-1.527c.263-.575.399-1.2.397-1.833V70.63h-8.796a.977.977 0 0 1 0-1.955h8.796v-3.039a4.512 4.512 0 0 0-.382-1.833 4.763 4.763 0 0 0-1.038-1.511 5.328 5.328 0 0 0-1.527-1.039 4.365 4.365 0 0 0-1.833-.397h-13.79a8.628 8.628 0 0 0-3.435.688 8.75 8.75 0 0 0-4.673 4.672 8.766 8.766 0 0 0 1.894 9.651 9.06 9.06 0 0 0 2.794 1.879 8.709 8.709 0 0 0 3.42.702Z" fill="url(#d)"/><path d="M59.495 69.651h1.083a10.3 10.3 0 0 0 10.3-10.3v0a10.301 10.301 0 0 0-10.3-10.302h-4.75a6.188 6.188 0 0 1-6.188-6.188v-3.266" stroke="#003067" stroke-width="2" stroke-miterlimit="10" stroke-linecap="round"/></g><defs><linearGradient id="b" x1="47.87" y1="-15.153" x2="51.852" y2="130.615" gradientUnits="userSpaceOnUse"><stop stop-color="#00ABDE"/><stop offset="1" stop-color="#007ED8"/></linearGradient><linearGradient id="c" x1="28.264" y1="22.687" x2="71.026" y2="22.687" gradientUnits="userSpaceOnUse"><stop stop-color="#005BA1"/><stop offset=".26" stop-color="#00589D"/><stop offset=".53" stop-color="#004F90"/><stop offset=".8" stop-color="#003F7C"/><stop offset="1" stop-color="#003067"/></linearGradient><linearGradient id="d" x1="43.858" y1="78.447" x2="43.858" y2="60.855" gradientUnits="userSpaceOnUse"><stop stop-color="#004DAE"/><stop offset=".21" stop-color="#0061C4"/><stop offset=".51" stop-color="#0078DD"/><stop offset=".78" stop-color="#0086EC"/><stop offset="1" stop-color="#008BF1"/></linearGradient><clipPath id="a"><path fill="#fff" d="M0 0h99.28v99.28H0z"/></clipPath></defs></svg>