<svg width="102" height="102" viewBox="0 0 102 102" fill="none" xmlns="http://www.w3.org/2000/svg">
<g clip-path="url(#clip0_6_7308)">
<g clip-path="url(#clip1_6_7308)">
<path d="M51.589 96.8849C45.2733 96.8849 39.0195 95.6409 33.1846 93.2238C27.3497 90.8068 22.0481 87.264 17.5825 82.7979C13.1169 78.3318 9.57467 73.0298 7.15822 67.1947C4.74176 61.3596 3.49837 55.1056 3.49902 48.7899C3.49902 36.0357 8.56563 23.8038 17.5843 14.7852C26.6029 5.76656 38.8348 0.699951 51.589 0.699951C64.3437 0.699951 76.5761 5.7664 85.5956 14.7849C94.615 23.8034 99.6827 36.0352 99.684 48.7899C99.6827 61.5451 94.6151 73.7775 85.5959 82.7968C76.5766 91.816 64.3442 96.8836 51.589 96.8849V96.8849Z" fill="url(#paint0_linear_6_7308)"/>
<path fill-rule="evenodd" clip-rule="evenodd" d="M100.779 38.7501C99.8651 35.0067 98.5229 31.3811 96.779 27.9451C96.699 27.7751 96.609 27.6101 96.524 27.4451C96.1907 26.8051 95.8456 26.1751 95.489 25.5551C94.7656 24.2951 93.9857 23.0701 93.149 21.8801C91.9484 20.1517 90.6409 18.5001 89.234 16.935C84.457 11.5984 78.6065 7.33118 72.0657 4.41276C65.5249 1.49435 58.4413 -0.00939716 51.279 4.41841e-05C48.5411 0.000262052 45.8075 0.217634 43.104 0.650069C40.859 1.01383 38.6408 1.5266 36.464 2.18504C35.0773 2.60504 33.719 3.08173 32.389 3.61507C30.7362 4.27137 29.1204 5.01746 27.549 5.85005C22.4855 8.51181 17.9064 12.0074 14.004 16.19C5.16791 25.6253 0.259834 38.0734 0.278987 51.0001C0.274331 55.8966 0.974856 60.7682 2.35899 65.465C2.69232 66.5917 3.06065 67.6967 3.46398 68.7801C3.88398 69.9051 4.33898 71.0151 4.83898 72.1001C7.10319 77.0842 10.1575 81.6699 13.884 85.6801C18.6526 90.8347 24.4371 94.9459 30.873 97.7547C37.309 100.564 44.2569 102.009 51.279 102C58.1233 102.009 64.8989 100.635 71.199 97.9601C73.971 96.7792 76.633 95.3553 79.154 93.7051C86.3274 89.0082 92.2084 82.5873 96.259 75.0301C100.213 67.6387 102.275 59.3827 102.259 51.0001C102.263 46.8719 101.766 42.7584 100.779 38.7501V38.7501ZM93.064 72.8451C92.514 73.8951 91.929 74.9201 91.299 75.9201C88.5162 80.3734 85.0117 84.3324 80.929 87.6351C79.5198 88.7777 78.0457 89.8378 76.514 90.8101C73.887 92.4815 71.0999 93.8868 68.194 95.0051C62.8489 97.0641 57.1719 98.1267 51.444 98.1401H51.264C44.7236 98.1491 38.2534 96.7929 32.2671 94.1584C26.2808 91.5238 20.9103 87.6688 16.499 82.8401C13.4999 79.5748 10.9752 75.9038 8.99899 71.9351C8.05184 70.035 7.23657 68.072 6.55899 66.0601C6.43899 65.6951 6.31898 65.3301 6.20898 64.9601C6.04398 64.4301 5.88898 63.9001 5.74398 63.3651V63.3051V63.2601C4.66395 59.258 4.11921 55.1303 4.12399 50.9851C4.1094 38.6734 8.92625 26.8476 17.539 18.0501C21.007 14.4866 25.0186 11.4961 29.424 9.19005C31.0143 8.35512 32.6521 7.61386 34.329 6.97005C35.7273 6.42588 37.1525 5.95362 38.599 5.55507C40.95 4.89778 43.3491 4.42632 45.774 4.14506C47.5996 3.93262 49.436 3.82577 51.274 3.82506C57.8719 3.81669 64.3977 5.1964 70.4275 7.87453C76.4574 10.5527 81.8565 14.4693 86.274 19.37C87.1507 20.3334 87.984 21.3334 88.774 22.37C89.7989 23.7045 90.7487 25.095 91.619 26.5351C92.059 27.2484 92.474 27.9767 92.864 28.72C93.024 29.005 93.174 29.2951 93.319 29.5851C94.7311 32.352 95.8634 35.2531 96.699 38.245C97.8579 42.3889 98.4434 46.6722 98.439 50.9751C98.4478 58.5931 96.6031 66.0989 93.064 72.8451V72.8451Z" fill="#F2F1F0"/>
<path fill-rule="evenodd" clip-rule="evenodd" d="M97.6991 38.375C96.8368 35.2091 95.6488 32.1411 94.1541 29.22C94.0241 28.96 93.8941 28.72 93.7541 28.45C93.3808 27.7367 92.9824 27.0317 92.5591 26.3351C91.7283 24.9434 90.8271 23.595 89.8591 22.295C88.9691 21.0984 88.0241 19.9451 87.0241 18.8351C82.5187 13.8092 77.0034 9.79072 70.8387 7.04224C64.674 4.29376 57.9987 2.87715 51.2491 2.88504C49.1695 2.88472 47.092 3.01664 45.0291 3.28003C42.6549 3.58968 40.3068 4.07434 38.0041 4.73004C36.5708 5.14004 35.1658 5.61503 33.7891 6.15503C32.1163 6.80268 30.482 7.54557 28.8941 8.38004C24.3343 10.7895 20.1901 13.9141 16.6191 17.635C10.063 24.4193 5.65404 32.9869 3.94408 42.2651C3.41636 45.1467 3.15194 48.0704 3.15409 51C3.14829 55.7714 3.8544 60.517 5.24909 65.0801C5.41909 65.6351 5.59908 66.1901 5.78908 66.7351C6.40571 68.5224 7.13037 70.2706 7.95908 71.97C10.0015 76.1802 12.6477 80.0696 15.8141 83.5151C20.3135 88.4388 25.7897 92.3707 31.8933 95.0601C37.997 97.7495 44.5942 99.1373 51.2641 99.1351C55.1025 99.1305 58.9265 98.6655 62.6541 97.75V97.75C64.7953 97.2324 66.8972 96.5641 68.9441 95.75C71.813 94.6121 74.5657 93.2006 77.1641 91.535V91.535C78.6911 90.5593 80.1602 89.4958 81.5641 88.35C86.6376 84.2346 90.8222 79.1314 93.8641 73.35C96.6081 68.1461 98.3644 62.4788 99.0441 56.6351V56.6351C99.2654 54.7666 99.3756 52.8866 99.3741 51.005C99.3794 46.7393 98.8162 42.4919 97.6991 38.375V38.375ZM81.3991 83.4251C80.5991 84.1751 79.7658 84.8917 78.8991 85.5751C77.4655 86.7183 75.9626 87.772 74.3991 88.7301C71.9753 90.2243 69.4115 91.4786 66.7441 92.475V92.475C66.4141 92.6 66.0841 92.7201 65.7441 92.8351C61.0802 94.4484 56.1791 95.2698 51.2441 95.2651C45.1262 95.2726 39.0736 94.0084 33.4702 91.5527C27.8668 89.097 22.835 85.5035 18.6941 81C16.1789 78.2827 14.0169 75.2588 12.2591 72C11.0069 69.6736 9.96768 67.2387 9.15409 64.725C9.08409 64.525 9.01909 64.3201 8.95409 64.1151C8.88909 63.9101 8.87409 63.855 8.83909 63.725C8.61409 62.995 8.41409 62.255 8.23409 61.505C7.87732 60.0524 7.59693 58.582 7.39409 57.1C7.11651 55.0836 6.97784 53.0505 6.97909 51.0151C6.97011 45.1149 8.14477 39.2729 10.4336 33.8348C12.7223 28.3967 16.0787 23.473 20.3041 19.355C23.455 16.263 27.0516 13.6607 30.9741 11.635C32.5823 10.7997 34.2424 10.0682 35.9441 9.44504C37.4075 8.90154 38.8998 8.43917 40.4141 8.06003C42.9523 7.42144 45.5427 7.0115 48.1541 6.83506C49.1841 6.75839 50.2208 6.72171 51.2641 6.72504C57.3562 6.71772 63.3839 7.97159 68.9677 10.4077C74.5515 12.8438 79.5706 16.4094 83.7091 20.88C84.2091 21.42 84.6958 21.97 85.1691 22.53C86.3949 23.988 87.5239 25.5246 88.5491 27.13C89.0591 27.9134 89.5408 28.7184 89.9941 29.545C90.2041 29.92 90.4091 30.3 90.6041 30.685C91.8228 33.0278 92.8269 35.4762 93.6041 38C94.8938 42.2127 95.5477 46.5943 95.5441 51C95.555 58.1667 93.8163 65.2278 90.4791 71.57C88.1463 76.0078 85.0759 80.0166 81.3991 83.4251V83.4251Z" fill="url(#paint1_linear_6_7308)"/>
<g opacity="0.25">
<path opacity="0.5" d="M51.2591 87.9301C46.4092 87.9307 41.6067 86.976 37.1258 85.1203C32.645 83.2646 28.5736 80.5444 25.1442 77.115C21.7148 73.6856 18.9946 69.6142 17.1389 65.1334C15.2832 60.6525 14.3284 55.85 14.3291 51.0001C14.3284 46.1502 15.2832 41.3476 17.1389 36.8668C18.9946 32.3859 21.7148 28.3146 25.1442 24.8852C28.5736 21.4558 32.645 18.7355 37.1258 16.8799C41.6067 15.0242 46.4092 14.0694 51.2591 14.0701C61.054 14.0701 70.4478 17.9607 77.3743 24.8863C84.3008 31.8119 88.1928 41.2052 88.1941 51.0001C88.1928 60.795 84.3008 70.1883 77.3743 77.1138C70.4478 84.0394 61.054 87.9301 51.2591 87.9301V87.9301Z" stroke="#50E6FF" stroke-width="0.5" stroke-miterlimit="10"/>
<path opacity="0.6" d="M89.3483 51.063C89.385 30.0293 72.3636 12.9483 51.3298 12.9116C30.2961 12.8749 13.2151 29.8963 13.1784 50.9301C13.1417 71.9638 30.1631 89.0448 51.1969 89.0815C72.2306 89.1182 89.3116 72.0967 89.3483 51.063Z" stroke="#50E6FF" stroke-width="0.6" stroke-miterlimit="10"/>
<path opacity="0.7" d="M90.5032 51.065C90.541 29.3934 73.0034 11.7944 51.3317 11.7566C29.6601 11.7187 12.0611 29.2564 12.0233 50.928C11.9855 72.5996 29.5231 90.1986 51.1948 90.2365C72.8664 90.2743 90.4654 72.7366 90.5032 51.065Z" stroke="#50E6FF" stroke-width="0.7" stroke-miterlimit="10"/>
<path opacity="0.8" d="M91.6582 51.067C91.6972 28.7575 73.6433 10.6405 51.3338 10.6016C29.0243 10.5626 10.9073 28.6165 10.8684 50.926C10.8294 73.2355 28.8833 91.3525 51.1928 91.3914C73.5023 91.4304 91.6193 73.3765 91.6582 51.067Z" stroke="#50E6FF" stroke-width="0.8" stroke-miterlimit="10"/>
<path opacity="0.9" d="M92.8083 51.0691C92.8483 28.1244 74.2804 9.49167 51.3358 9.45162C28.3912 9.41157 9.75843 27.9794 9.71838 50.924C9.67834 73.8687 28.2462 92.5015 51.1908 92.5415C74.1354 92.5815 92.7682 74.0137 92.8083 51.0691Z" stroke="#50E6FF" stroke-width="0.9" stroke-miterlimit="10"/>
<path opacity="0.25" d="M51.2591 93.7C45.6515 93.7007 40.0986 92.5967 34.9177 90.451C29.7368 88.3054 25.0294 85.1602 21.0642 81.195C17.099 77.2298 13.9537 72.5223 11.8081 67.3414C9.66245 62.1605 8.55843 56.6077 8.55908 51C8.55843 45.3924 9.66245 39.8396 11.8081 34.6587C13.9537 29.4778 17.099 24.7703 21.0642 20.8051C25.0294 16.8399 29.7368 13.6947 34.9177 11.549C40.0986 9.4034 45.6515 8.29939 51.2591 8.30005C62.5834 8.30137 73.4436 12.8005 81.4511 20.808C89.4586 28.8156 93.9578 39.6757 93.9591 51C93.9578 62.3244 89.4586 73.1845 81.4511 81.192C73.4436 89.1996 62.5834 93.6987 51.2591 93.7V93.7Z" stroke="#50E6FF" stroke-miterlimit="10"/>
</g>
<path opacity="0.11" d="M51.264 86.25C70.7321 86.25 86.514 70.468 86.514 51C86.514 31.532 70.7321 15.75 51.264 15.75C31.796 15.75 16.014 31.532 16.014 51C16.014 70.468 31.796 86.25 51.264 86.25Z" fill="#50E6FF"/>
<path opacity="0.11" d="M51.2641 77.8151C66.0736 77.8151 78.0791 65.8096 78.0791 51.0001C78.0791 36.1905 66.0736 24.1851 51.2641 24.1851C36.4546 24.1851 24.4491 36.1905 24.4491 51.0001C24.4491 65.8096 36.4546 77.8151 51.2641 77.8151Z" fill="#50E6FF"/>
<path opacity="0.11" d="M51.264 95.24C75.6971 95.24 95.5041 75.4331 95.5041 51C95.5041 26.5669 75.6971 6.76001 51.264 6.76001C26.831 6.76001 7.02405 26.5669 7.02405 51C7.02405 75.4331 26.831 95.24 51.264 95.24Z" fill="#606060"/>
<path d="M68.3041 53.68C68.3097 53.4944 68.2518 53.3125 68.14 53.1643C68.0282 53.016 67.8691 52.9105 67.6891 52.865L51.6091 49.135C51.4757 49.1051 51.3374 49.1051 51.2041 49.135L35.2491 52.855C35.069 52.9005 34.9099 53.006 34.7981 53.1542C34.6863 53.3025 34.6284 53.4844 34.634 53.67V53.67V55.47C34.6373 55.6265 34.6864 55.7786 34.7753 55.9075C34.8642 56.0363 34.9889 56.1363 35.134 56.195L51.1341 63.195C51.2366 63.2396 51.3472 63.2626 51.459 63.2626C51.5709 63.2626 51.6815 63.2396 51.784 63.195L67.784 56.195C67.9292 56.1363 68.0539 56.0363 68.1428 55.9075C68.2317 55.7786 68.2808 55.6265 68.284 55.47V55.47L68.3041 53.68Z" fill="#EBF5F7"/>
<path d="M51.1541 61.385L35.1541 54.385C34.9972 54.3177 34.8654 54.2028 34.7773 54.0566C34.6892 53.9104 34.6493 53.7402 34.6631 53.57C34.6769 53.3999 34.7438 53.2384 34.8543 53.1083C34.9648 52.9782 35.1134 52.8861 35.2791 52.845L49.2441 49.29C50.7204 48.9126 52.2678 48.9126 53.7441 49.29L67.7041 52.845C67.8698 52.8861 68.0184 52.9782 68.1289 53.1083C68.2394 53.2384 68.3063 53.3999 68.3201 53.57C68.3339 53.7402 68.294 53.9104 68.2059 54.0566C68.1178 54.2028 67.986 54.3177 67.8291 54.385L51.8291 61.385C51.7231 61.4332 51.608 61.4581 51.4916 61.4581C51.3752 61.4581 51.2601 61.4332 51.1541 61.385V61.385Z" fill="url(#paint2_linear_6_7308)"/>
<path opacity="0.3" d="M51.1941 60.465L37.5691 54.53C37.4366 54.4716 37.3256 54.3734 37.2516 54.2489C37.1776 54.1245 37.1444 53.98 37.1565 53.8357C37.1686 53.6915 37.2255 53.5546 37.3192 53.4442C37.4129 53.3338 37.5387 53.2554 37.6791 53.22L49.5491 50.22C50.8091 49.9 52.1291 49.9 53.3891 50.22L65.2641 53.22C65.4042 53.256 65.5296 53.3349 65.6227 53.4456C65.7159 53.5563 65.7721 53.6933 65.7837 53.8375C65.7953 53.9817 65.7615 54.126 65.6872 54.2501C65.6129 54.3743 65.5016 54.4721 65.3691 54.53L51.7491 60.465C51.6619 60.5046 51.5673 60.5252 51.4716 60.5252C51.3758 60.5252 51.2812 60.5046 51.1941 60.465V60.465Z" fill="white"/>
<path d="M66.609 28.69L73.069 61.89C73.137 62.238 73.0874 62.5986 72.9281 62.9154C72.7689 63.2321 72.5089 63.487 72.189 63.64L38.314 79.855C38.0929 79.9611 37.8504 80.0152 37.6051 80.013C37.3598 80.0108 37.1183 79.9525 36.8991 79.8424C36.6799 79.7323 36.4889 79.5734 36.3406 79.378C36.1924 79.1826 36.0909 78.9557 36.044 78.715L25.944 27.02C25.896 26.7795 25.904 26.5313 25.9672 26.2944C26.0304 26.0574 26.1472 25.8382 26.3086 25.6536C26.47 25.4691 26.6716 25.324 26.898 25.2298C27.1243 25.1355 27.3693 25.0945 27.614 25.11L65.114 27.39C65.4728 27.4082 65.815 27.5461 66.0861 27.7818C66.3571 28.0175 66.5412 28.3373 66.609 28.69Z" stroke="#F2F2F2" stroke-miterlimit="10"/>
<path d="M26.936 23.3818L25.1856 23.5655C24.6473 23.6219 24.2567 24.1041 24.3132 24.6424L24.5068 26.4872C24.5633 27.0255 25.0454 27.4161 25.5837 27.3596L27.3341 27.176C27.8724 27.1195 28.263 26.6373 28.2065 26.099L28.0129 24.2542C27.9564 23.7159 27.4743 23.3253 26.936 23.3818Z" fill="#F2F2F2"/>
<path d="M37.121 77.7893L35.4119 78.2094C34.8863 78.3386 34.5649 78.8694 34.6941 79.395L35.1369 81.1964C35.2661 81.722 35.7969 82.0433 36.3225 81.9142L38.0317 81.494C38.5572 81.3648 38.8786 80.834 38.7494 80.3084L38.3066 78.5071C38.1774 77.9815 37.6466 77.6601 37.121 77.7893Z" fill="#F2F2F2"/>
<path d="M73.1253 61.5896L71.4533 62.1528C70.9392 62.326 70.6627 62.8833 70.8359 63.3974L71.4295 65.1597C71.6027 65.6739 72.16 65.9503 72.6741 65.7771L74.3461 65.2139C74.8603 65.0407 75.1367 64.4835 74.9635 63.9693L74.3699 62.207C74.1967 61.6929 73.6395 61.4164 73.1253 61.5896Z" fill="#F2F2F2"/>
<path d="M66.9023 25.4777L65.154 25.6806C64.6164 25.743 64.2311 26.2294 64.2935 26.7671L64.5074 28.6097C64.5698 29.1473 65.0562 29.5326 65.5938 29.4702L67.3421 29.2673C67.8797 29.2049 68.265 28.7185 68.2026 28.1808L67.9887 26.3382C67.9263 25.8006 67.4399 25.4153 66.9023 25.4777Z" fill="#F2F2F2"/>
<path d="M53.3984 25.7018L41.7024 25.1298C41.4817 25.119 41.2941 25.2891 41.2833 25.5097L41.2408 26.3787C41.23 26.5994 41.4002 26.787 41.6208 26.7978L53.3168 27.3698C53.5375 27.3806 53.7251 27.2105 53.7359 26.9898L53.7784 26.1209C53.7892 25.9002 53.6191 25.7126 53.3984 25.7018Z" fill="#F2F2F2"/>
<path d="M52.379 49.93L52.919 49.62L56.064 55.18L55.524 55.49L52.379 49.93Z" fill="#454545"/>
<path d="M52.3791 49.9301L55.5241 55.4901L52.3191 53.6401L52.3791 49.9301Z" fill="#636363"/>
<path d="M46.934 55.665L46.394 55.355L49.544 49.795L50.079 50.11L46.934 55.665Z" fill="#454545"/>
<path d="M50.0791 50.11L50.1391 53.815L46.9341 55.665L50.0791 50.11Z" fill="#636363"/>
<path d="M49.2941 52.9301C49.2941 52.3801 50.1141 51.9301 51.1241 51.9301C52.1341 51.9301 52.9591 52.3801 52.9591 52.9301C52.9591 53.4801 52.1391 53.9301 51.1241 53.9301C50.1091 53.9301 49.2941 53.4851 49.2941 52.9301Z" fill="#8D8FFA"/>
<path d="M52.9591 52.93C52.9591 53.48 52.1391 53.93 51.1241 53.93C50.1091 53.93 49.2941 53.485 49.2941 52.93V48.525C49.2941 47.975 50.1141 47.525 51.1241 47.525C52.1341 47.525 52.9591 47.97 52.9591 48.525V52.93Z" fill="url(#paint3_linear_6_7308)"/>
<path d="M51.1291 49.52C52.1398 49.52 52.9591 49.0746 52.9591 48.525C52.9591 47.9755 52.1398 47.53 51.1291 47.53C50.1184 47.53 49.2991 47.9755 49.2991 48.525C49.2991 49.0746 50.1184 49.52 51.1291 49.52Z" fill="#454545"/>
<path d="M49.399 48.405C49.399 47.905 50.174 47.465 51.124 47.465C52.074 47.465 52.849 47.885 52.849 48.405C52.849 48.925 52.079 49.34 51.124 49.34C50.169 49.34 49.399 48.92 49.399 48.405Z" fill="#8D8FFA"/>
<path d="M52.849 48.4049C52.849 48.9049 52.079 49.3399 51.124 49.3399C50.169 49.3399 49.399 48.9199 49.399 48.4049V44.2549C49.399 43.7549 50.174 43.3199 51.124 43.3199C52.074 43.3199 52.849 43.7399 52.849 44.2549V48.4049Z" fill="#575757"/>
<path d="M51.1291 45.1949C52.0817 45.1949 52.8541 44.7741 52.8541 44.2549C52.8541 43.7358 52.0817 43.3149 51.1291 43.3149C50.1764 43.3149 49.4041 43.7358 49.4041 44.2549C49.4041 44.7741 50.1764 45.1949 51.1291 45.1949Z" fill="#454545"/>
<path d="M49.2941 39.1801C49.2941 38.6301 50.1141 38.1801 51.1241 38.1801C52.1341 38.1801 52.9591 38.6301 52.9591 39.1801V46.475C52.9591 47.025 52.1391 47.475 51.1241 47.475C50.1091 47.475 49.2941 47.03 49.2941 46.475V39.1801Z" fill="url(#paint4_linear_6_7308)"/>
<path d="M49.2941 39.1801C49.2941 38.6301 50.1141 38.1801 51.1241 38.1801C52.1341 38.1801 52.9591 38.6301 52.9591 39.1801C52.9591 39.7301 52.1391 40.1801 51.1241 40.1801C50.1091 40.1801 49.2941 39.7351 49.2941 39.1801Z" fill="#8E97FA"/>
<path d="M49.399 38.925C49.399 38.425 50.174 37.985 51.124 37.985C52.074 37.985 52.849 38.405 52.849 38.925C52.849 39.445 52.079 39.86 51.124 39.86C50.169 39.86 49.399 39.44 49.399 38.925Z" fill="#8D8FFA"/>
<path d="M52.854 37.585V38.92C52.854 39.42 52.0791 39.86 51.1291 39.86C50.1791 39.86 49.4041 39.44 49.4041 38.92V37.585H52.854Z" fill="#575757"/>
<path d="M61.571 67.8196L50.9154 72.6757C50.7144 72.7673 50.6257 73.0045 50.7173 73.2055L51.078 73.9972C51.1697 74.1982 51.4069 74.2869 51.6079 74.1953L62.2636 69.3392C62.4646 69.2476 62.5533 69.0104 62.4617 68.8094L62.1009 68.0177C62.0093 67.8167 61.772 67.728 61.571 67.8196Z" fill="#F2F2F2"/>
<path d="M71.5946 49.887L69.4084 38.3828C69.3672 38.1658 69.1578 38.0233 68.9407 38.0646L68.0861 38.227C67.869 38.2682 67.7265 38.4776 67.7678 38.6946L69.954 50.1987C69.9952 50.4158 70.2046 50.5583 70.4216 50.517L71.2763 50.3546C71.4933 50.3134 71.6359 50.104 71.5946 49.887Z" fill="#F2F2F2"/>
<path d="M31.8316 53.2967L29.6454 41.7926C29.6041 41.5756 29.3947 41.4331 29.1777 41.4743L28.323 41.6368C28.106 41.678 27.9635 41.8874 28.0047 42.1044L30.1909 53.6085C30.2322 53.8256 30.4415 53.9681 30.6586 53.9268L31.5133 53.7644C31.7303 53.7231 31.8728 53.5138 31.8316 53.2967Z" fill="#F2F2F2"/>
<path opacity="0.37" d="M84.1191 59.43L78.6641 58.26V52.805L84.1191 51.635V59.43Z" fill="url(#paint5_linear_6_7308)"/>
<path d="M83.049 59.43L77.594 58.26V52.805L83.049 51.635V59.43Z" fill="url(#paint6_linear_6_7308)"/>
<path d="M75.389 48.345C76.6565 48.345 77.684 47.3175 77.684 46.05C77.684 44.7825 76.6565 43.755 75.389 43.755C74.1215 43.755 73.094 44.7825 73.094 46.05C73.094 47.3175 74.1215 48.345 75.389 48.345Z" fill="url(#paint7_linear_6_7308)"/>
<g opacity="0.4">
<path opacity="0.4" d="M56.734 36.795C56.8886 36.795 57.014 36.6696 57.014 36.515C57.014 36.3603 56.8886 36.235 56.734 36.235C56.5793 36.235 56.454 36.3603 56.454 36.515C56.454 36.6696 56.5793 36.795 56.734 36.795Z" fill="white"/>
<path opacity="0.4" d="M58.419 37.5049C58.5709 37.5049 58.694 37.3818 58.694 37.2299C58.694 37.0781 58.5709 36.955 58.419 36.955C58.2672 36.955 58.144 37.0781 58.144 37.2299C58.144 37.3818 58.2672 37.5049 58.419 37.5049Z" fill="white"/>
<path opacity="0.4" d="M60.104 38.2249C60.2559 38.2249 60.379 38.1018 60.379 37.9499C60.379 37.798 60.2559 37.6749 60.104 37.6749C59.9521 37.6749 59.829 37.798 59.829 37.9499C59.829 38.1018 59.9521 38.2249 60.104 38.2249Z" fill="white"/>
<path opacity="0.4" d="M61.789 38.945C61.9409 38.945 62.064 38.8219 62.064 38.67C62.064 38.5181 61.9409 38.395 61.789 38.395C61.6372 38.395 61.514 38.5181 61.514 38.67C61.514 38.8219 61.6372 38.945 61.789 38.945Z" fill="white"/>
<path opacity="0.4" d="M63.474 39.665C63.6286 39.665 63.754 39.5396 63.754 39.385C63.754 39.2303 63.6286 39.105 63.474 39.105C63.3193 39.105 63.194 39.2303 63.194 39.385C63.194 39.5396 63.3193 39.665 63.474 39.665Z" fill="white"/>
</g>
<g opacity="0.4">
<path opacity="0.4" d="M56.789 33.85C56.9437 33.85 57.069 33.7247 57.069 33.57C57.069 33.4154 56.9437 33.29 56.789 33.29C56.6344 33.29 56.509 33.4154 56.509 33.57C56.509 33.7247 56.6344 33.85 56.789 33.85Z" fill="white"/>
<path opacity="0.4" d="M58.4691 34.565C58.621 34.565 58.7441 34.4419 58.7441 34.29C58.7441 34.1381 58.621 34.015 58.4691 34.015C58.3172 34.015 58.1941 34.1381 58.1941 34.29C58.1941 34.4419 58.3172 34.565 58.4691 34.565Z" fill="white"/>
<path opacity="0.4" d="M60.154 35.28C60.3059 35.28 60.429 35.1569 60.429 35.005C60.429 34.8531 60.3059 34.73 60.154 34.73C60.0021 34.73 59.879 34.8531 59.879 35.005C59.879 35.1569 60.0021 35.28 60.154 35.28Z" fill="white"/>
<path opacity="0.4" d="M61.8391 36.0001C61.991 36.0001 62.1141 35.8769 62.1141 35.7251C62.1141 35.5732 61.991 35.4501 61.8391 35.4501C61.6872 35.4501 61.5641 35.5732 61.5641 35.7251C61.5641 35.8769 61.6872 36.0001 61.8391 36.0001Z" fill="white"/>
<path opacity="0.4" d="M63.524 36.72C63.6787 36.72 63.804 36.5947 63.804 36.44C63.804 36.2854 63.6787 36.16 63.524 36.16C63.3694 36.16 63.244 36.2854 63.244 36.44C63.244 36.5947 63.3694 36.72 63.524 36.72Z" fill="white"/>
</g>
<g opacity="0.4">
<path opacity="0.4" d="M57.3441 31.1249C57.4987 31.1249 57.6241 30.9996 57.6241 30.8449C57.6241 30.6903 57.4987 30.5649 57.3441 30.5649C57.1894 30.5649 57.0641 30.6903 57.0641 30.8449C57.0641 30.9996 57.1894 31.1249 57.3441 31.1249Z" fill="white"/>
<path opacity="0.4" d="M59.029 31.8349C59.1809 31.8349 59.304 31.7118 59.304 31.5599C59.304 31.408 59.1809 31.2849 59.029 31.2849C58.8771 31.2849 58.754 31.408 58.754 31.5599C58.754 31.7118 58.8771 31.8349 59.029 31.8349Z" fill="white"/>
<path opacity="0.4" d="M60.7141 32.5549C60.866 32.5549 60.9891 32.4318 60.9891 32.2799C60.9891 32.128 60.866 32.0049 60.7141 32.0049C60.5622 32.0049 60.4391 32.128 60.4391 32.2799C60.4391 32.4318 60.5622 32.5549 60.7141 32.5549Z" fill="white"/>
<path opacity="0.4" d="M62.399 33.27C62.5509 33.27 62.674 33.1468 62.674 32.995C62.674 32.8431 62.5509 32.72 62.399 32.72C62.2471 32.72 62.124 32.8431 62.124 32.995C62.124 33.1468 62.2471 33.27 62.399 33.27Z" fill="white"/>
<path opacity="0.4" d="M64.0841 33.9949C64.2387 33.9949 64.3641 33.8696 64.3641 33.7149C64.3641 33.5603 64.2387 33.4349 64.0841 33.4349C63.9294 33.4349 63.8041 33.5603 63.8041 33.7149C63.8041 33.8696 63.9294 33.9949 64.0841 33.9949Z" fill="white"/>
</g>
<path d="M53.0191 19.405C52.3041 18.255 52.7641 16.625 53.8241 15.785C54.3789 15.3946 55.0164 15.1377 55.6869 15.0345C56.3573 14.9313 57.0426 14.9845 57.6891 15.19C58.9829 15.6043 60.1753 16.2857 61.1891 17.19C62.2291 18.05 63.1891 19 64.3241 19.76C66.6027 21.2985 69.3595 21.9642 72.0891 21.635" stroke="#F7937C" stroke-miterlimit="10" stroke-linecap="round"/>
<path d="M53.164 20.95C53.6776 20.95 54.094 20.5336 54.094 20.02C54.094 19.5063 53.6776 19.09 53.164 19.09C52.6504 19.09 52.234 19.5063 52.234 20.02C52.234 20.5336 52.6504 20.95 53.164 20.95Z" fill="#F7937C"/>
<path opacity="0.37" d="M24.0772 45.8124L18.9197 47.5581L20.7103 52.8483L25.8678 51.1025L24.0772 45.8124Z" fill="url(#paint8_linear_6_7308)"/>
<path opacity="0.61" d="M22.8216 47.3961L17.6641 49.1418L19.4547 54.432L24.6123 52.6863L22.8216 47.3961Z" fill="#F2F2F2"/>
<path d="M50.994 43.19C50.9913 43.2034 50.9859 43.216 50.9782 43.2272C50.9705 43.2383 50.9605 43.2478 50.949 43.255V43.255L48.834 44.175C48.816 44.1802 48.797 44.1802 48.779 44.175V44.175H48.749L46.634 43.255C46.6217 43.2468 46.6116 43.2356 46.6046 43.2226C46.5976 43.2095 46.594 43.1949 46.594 43.1801V43.1801C46.594 43.1801 46.594 43.02 46.594 42.94V42.91H46.649L48.754 42.41H48.804L50.929 42.91H50.974L50.994 43.19Z" fill="#EBF5F7"/>
<path d="M48.729 43.97L46.614 43.045C46.5928 43.0382 46.5743 43.0249 46.5612 43.0069C46.5481 42.9889 46.541 42.9672 46.541 42.945C46.541 42.9227 46.5481 42.9011 46.5612 42.8831C46.5743 42.8651 46.5928 42.8518 46.614 42.845L48.454 42.375C48.6492 42.325 48.8538 42.325 49.049 42.375L50.894 42.845C50.9152 42.8518 50.9337 42.8651 50.9468 42.8831C50.9599 42.9011 50.967 42.9227 50.967 42.945C50.967 42.9672 50.9599 42.9889 50.9468 43.0069C50.9337 43.0249 50.9152 43.0382 50.894 43.045L48.779 43.97C48.7625 43.9734 48.7455 43.9734 48.729 43.97Z" fill="url(#paint9_linear_6_7308)"/>
<path opacity="0.3" d="M48.734 43.845L46.939 43.065C46.9218 43.0577 46.9071 43.0456 46.8968 43.03C46.8865 43.0144 46.881 42.9962 46.881 42.9775C46.881 42.9588 46.8865 42.9406 46.8968 42.925C46.9071 42.9095 46.9218 42.8973 46.939 42.89L48.504 42.49C48.6684 42.4509 48.8396 42.4509 49.004 42.49L50.574 42.89C50.5912 42.8973 50.6059 42.9095 50.6162 42.925C50.6265 42.9406 50.632 42.9588 50.632 42.9775C50.632 42.9962 50.6265 43.0144 50.6162 43.03C50.6059 43.0456 50.5912 43.0577 50.574 43.065L48.774 43.845C48.7608 43.8479 48.7472 43.8479 48.734 43.845V43.845Z" fill="white"/>
<path d="M52.1991 45.6849C52.1951 45.7125 52.1808 45.7375 52.1591 45.7549V45.7549L50.0491 46.68C50.0294 46.6848 50.0088 46.6848 49.9891 46.68H49.9591L47.8491 45.7549H47.8241C47.812 45.7464 47.8021 45.7352 47.7952 45.7222C47.7883 45.7092 47.7844 45.6947 47.7841 45.68V45.68V45.4449H47.8341L49.9391 44.9449H49.9941L52.1141 45.4449H52.1641L52.1991 45.6849Z" fill="#EBF5F7"/>
<path d="M49.934 46.4649L47.824 45.545C47.8033 45.5369 47.7856 45.5228 47.7731 45.5045C47.7606 45.4862 47.7539 45.4646 47.7539 45.4424C47.7539 45.4203 47.7606 45.3987 47.7731 45.3804C47.7856 45.3621 47.8033 45.348 47.824 45.3399L49.664 44.8699C49.8615 44.8249 50.0665 44.8249 50.264 44.8699L52.104 45.3399C52.1246 45.348 52.1424 45.3621 52.1549 45.3804C52.1674 45.3987 52.1741 45.4203 52.1741 45.4424C52.1741 45.4646 52.1674 45.4862 52.1549 45.5045C52.1424 45.5228 52.1246 45.5369 52.104 45.545L49.994 46.4649C49.9745 46.4714 49.9535 46.4714 49.934 46.4649Z" fill="url(#paint10_linear_6_7308)"/>
<path opacity="0.3" d="M49.944 46.345L48.144 45.56C48.1264 45.5538 48.1111 45.5424 48.1003 45.5271C48.0894 45.5119 48.0836 45.4937 48.0836 45.475C48.0836 45.4563 48.0894 45.4381 48.1003 45.4229C48.1111 45.4076 48.1264 45.3961 48.144 45.39L49.709 44.99C49.873 44.9477 50.0451 44.9477 50.209 44.99L51.774 45.39C51.7917 45.3961 51.807 45.4076 51.8178 45.4229C51.8286 45.4381 51.8345 45.4563 51.8345 45.475C51.8345 45.4937 51.8286 45.5119 51.8178 45.5271C51.807 45.5424 51.7917 45.5538 51.774 45.56L49.974 46.345C49.9641 46.3468 49.954 46.3468 49.944 46.345V46.345Z" fill="white"/>
<path d="M50.7645 33.9715L49.0554 37.4897C49.0319 37.5374 49.0193 37.5918 49.0192 37.6471C49.019 37.7025 49.0312 37.757 49.0545 37.805C49.0777 37.8529 49.1113 37.8927 49.1517 37.9202C49.1921 37.9477 49.2379 37.9619 49.2844 37.9615H52.9761C53.0225 37.9614 53.0681 37.9469 53.1084 37.9194C53.1487 37.8919 53.1822 37.8523 53.2057 37.8047C53.2292 37.757 53.2418 37.7029 53.2423 37.6476C53.2428 37.5924 53.2311 37.5379 53.2085 37.4897L51.4994 33.9715C51.4625 33.8937 51.4089 33.8289 51.344 33.7838C51.2792 33.7387 51.2054 33.715 51.1303 33.715C51.0551 33.715 50.9814 33.7387 50.9165 33.7838C50.8516 33.8289 50.798 33.8937 50.7611 33.9715L49.052 37.4897C49.0284 37.5374 49.0159 37.5918 49.0157 37.6471C49.0156 37.7025 49.0278 37.757 49.051 37.805C49.0743 37.8529 49.1079 37.8927 49.1483 37.9202C49.1887 37.9477 49.2345 37.9619 49.281 37.9615H52.9727C53.0191 37.9614 53.0647 37.9469 53.105 37.9194C53.1453 37.8919 53.1788 37.8523 53.2023 37.8047C53.2258 37.757 53.2384 37.7029 53.2389 37.6476C53.2394 37.5924 53.2277 37.5379 53.2051 37.4897L51.496 33.9715C51.4586 33.8956 51.4052 33.8326 51.3411 33.7888C51.2769 33.7451 51.2042 33.722 51.1303 33.722C51.0563 33.722 50.9836 33.7451 50.9195 33.7888C50.8553 33.8326 50.8019 33.8956 50.7645 33.9715V33.9715Z" fill="url(#paint11_linear_6_7308)"/>
</g>
</g>
<defs>
<linearGradient id="paint0_linear_6_7308" x1="45.929" y1="-10.22" x2="54.084" y2="74.8199" gradientUnits="userSpaceOnUse">
<stop stop-color="#00ABDE"/>
<stop offset="1" stop-color="#007ED8"/>
</linearGradient>
<linearGradient id="paint1_linear_6_7308" x1="1.36409" y1="-22.585" x2="99.5091" y2="122.155" gradientUnits="userSpaceOnUse">
<stop stop-color="#007ED8"/>
<stop offset="0.71" stop-color="#002D4C"/>
</linearGradient>
<linearGradient id="paint2_linear_6_7308" x1="34.6341" y1="55.24" x2="68.3041" y2="55.24" gradientUnits="userSpaceOnUse">
<stop stop-color="#D4A6DE"/>
<stop offset="0.53" stop-color="#ADB4ED"/>
<stop offset="1" stop-color="#88C1FB"/>
</linearGradient>
<linearGradient id="paint3_linear_6_7308" x1="49.2941" y1="50.725" x2="52.9591" y2="50.725" gradientUnits="userSpaceOnUse">
<stop stop-color="#8D86F9"/>
<stop offset="0.48" stop-color="#8EADFC"/>
<stop offset="0.73" stop-color="#8FC3FD"/>
<stop offset="1" stop-color="#90DBFE"/>
</linearGradient>
<linearGradient id="paint4_linear_6_7308" x1="-785.3" y1="5655.88" x2="-758.436" y2="5655.88" gradientUnits="userSpaceOnUse">
<stop stop-color="#8D86F9"/>
<stop offset="0.48" stop-color="#8EADFC"/>
<stop offset="0.73" stop-color="#8FC3FD"/>
<stop offset="1" stop-color="#90DBFE"/>
</linearGradient>
<linearGradient id="paint5_linear_6_7308" x1="934.007" y1="917.347" x2="993.521" y2="917.347" gradientUnits="userSpaceOnUse">
<stop stop-color="#8D86F9"/>
<stop offset="0.48" stop-color="#8EADFC"/>
<stop offset="0.73" stop-color="#8FC3FD"/>
<stop offset="1" stop-color="#90DBFE"/>
</linearGradient>
<linearGradient id="paint6_linear_6_7308" x1="921.265" y1="917.347" x2="980.779" y2="917.347" gradientUnits="userSpaceOnUse">
<stop stop-color="#8D86F9"/>
<stop offset="0.48" stop-color="#8EADFC"/>
<stop offset="0.73" stop-color="#8FC3FD"/>
<stop offset="1" stop-color="#90DBFE"/>
</linearGradient>
<linearGradient id="paint7_linear_6_7308" x1="73.094" y1="46.05" x2="77.679" y2="46.05" gradientUnits="userSpaceOnUse">
<stop stop-color="#903DF1"/>
<stop offset="0.83" stop-color="#6945D1"/>
<stop offset="1" stop-color="#6147CA"/>
</linearGradient>
<linearGradient id="paint8_linear_6_7308" x1="-1550.81" y1="3494.66" x2="-1475.12" y2="3494.66" gradientUnits="userSpaceOnUse">
<stop stop-color="#8D86F9"/>
<stop offset="0.48" stop-color="#8EADFC"/>
<stop offset="0.73" stop-color="#8FC3FD"/>
<stop offset="1" stop-color="#90DBFE"/>
</linearGradient>
<linearGradient id="paint9_linear_6_7308" x1="-985.594" y1="1031.57" x2="-946.291" y2="1031.57" gradientUnits="userSpaceOnUse">
<stop stop-color="#D4A6DE"/>
<stop offset="0.53" stop-color="#ADB4ED"/>
<stop offset="1" stop-color="#88C1FB"/>
</linearGradient>
<linearGradient id="paint10_linear_6_7308" x1="-972.374" y1="1041.41" x2="-933.123" y2="1041.41" gradientUnits="userSpaceOnUse">
<stop stop-color="#D4A6DE"/>
<stop offset="0.53" stop-color="#ADB4ED"/>
<stop offset="1" stop-color="#88C1FB"/>
</linearGradient>
<linearGradient id="paint11_linear_6_7308" x1="49.0212" y1="35.8384" x2="53.2461" y2="35.8384" gradientUnits="userSpaceOnUse">
<stop stop-color="#D4A6DE"/>
<stop offset="0.53" stop-color="#ADB4ED"/>
<stop offset="1" stop-color="#88C1FB"/>
</linearGradient>
<clipPath id="clip0_6_7308">
<rect width="102" height="102" fill="white"/>
</clipPath>
<clipPath id="clip1_6_7308">
<rect width="102" height="102" fill="white" transform="translate(0.264038)"/>
</clipPath>
</defs>
</svg>
