<svg width="102" height="103" viewBox="0 0 102 103" fill="none" xmlns="http://www.w3.org/2000/svg">
<g clip-path="url(#clip0_2430_324)">
<path d="M50.9999 98.231C25.4034 98.231 4.64886 77.4864 4.64886 51.8799C4.64886 26.2734 25.4034 5.52881 50.9999 5.52881C76.5965 5.52881 97.351 26.2833 97.351 51.8799C97.351 77.4765 76.5965 98.231 50.9999 98.231Z" fill="url(#paint0_linear_2430_324)"/>
<path fill-rule="evenodd" clip-rule="evenodd" d="M96.4501 51.8804C96.4501 76.9819 76.1016 97.3304 51.0001 97.3304C25.8987 97.3304 5.55013 76.9819 5.55013 51.8804C5.55013 26.7789 25.8987 6.43039 51.0001 6.43039C76.1016 6.43039 96.4501 26.7789 96.4501 51.8804ZM51.0001 2.72705C78.1513 2.72705 100.153 24.7292 100.153 51.8804C100.153 79.0316 78.1414 101.034 51.0001 101.034C23.849 101.034 1.8468 79.0217 1.8468 51.8804C1.8468 24.7292 23.849 2.72705 51.0001 2.72705Z" fill="#F2F1F0"/>
<path d="M93.5175 51.8797C93.5175 75.3635 74.4837 94.3972 50.9999 94.3972C27.5161 94.3972 8.48236 75.3635 8.48236 51.8797C8.48236 28.3958 27.5161 9.36213 50.9999 9.36213C74.4837 9.36213 93.5175 28.3958 93.5175 51.8797ZM97.5208 51.8797C97.5208 26.1904 76.6892 5.35879 50.9999 5.35879C25.3007 5.35879 4.47903 26.1904 4.47903 51.8797C4.47903 77.569 25.3106 98.4006 50.9999 98.4006C76.6892 98.4006 97.5208 77.569 97.5208 51.8797Z" fill="url(#paint1_linear_2430_324)" stroke="black" stroke-width="0.3" stroke-linejoin="round"/>
<g filter="url(#filter0_ddddd_2430_324)">
<circle cx="51.0005" cy="51.8799" r="35.6929" fill="white"/>
<circle cx="51.0005" cy="51.8799" r="35.5429" stroke="black" stroke-width="0.3"/>
</g>
<path d="M50.7457 31.3197L32.6785 41.3573C32.4721 41.4719 32.3441 41.6894 32.3441 41.9255V67.2107C32.3441 67.5697 32.6352 67.8607 32.9941 67.8607H35.3497C35.7086 67.8607 35.9997 67.5697 35.9997 67.2107V43.9151C35.9997 43.7877 36.0689 43.6703 36.1805 43.6087L50.8924 35.4853C50.9972 35.4274 51.1244 35.4271 51.2295 35.4846L66.0888 43.6094C66.201 43.6708 66.2709 43.7886 66.2709 43.9165V67.2107C66.2709 67.5697 66.5619 67.8607 66.9209 67.8607H69.2764C69.6354 67.8607 69.9264 67.5697 69.9264 67.2107V41.9266C69.9264 41.6898 69.7975 41.4717 69.5901 41.3573L51.3751 31.3186C51.1791 31.2106 50.9413 31.211 50.7457 31.3197Z" fill="url(#paint2_linear_2430_324)" stroke="black" stroke-width="0.3" stroke-linejoin="round"/>
<path fill-rule="evenodd" clip-rule="evenodd" d="M48.0042 60.8568C48.0042 61.1019 48.2029 61.3006 48.448 61.3006H53.8238C54.0689 61.3006 54.2676 61.1019 54.2676 60.8568V57.3247C54.2676 57.0796 54.0689 56.8809 53.8238 56.8809H48.448C48.2029 56.8809 48.0042 57.0796 48.0042 57.3247V60.8568Z" fill="url(#paint3_linear_2430_324)"/>
<path fill-rule="evenodd" clip-rule="evenodd" d="M48.0042 54.5218C48.0042 54.767 48.2029 54.9657 48.448 54.9657H53.8238C54.0689 54.9657 54.2676 54.767 54.2676 54.5218V50.3261C54.2676 50.0809 54.0689 49.8822 53.8238 49.8822H48.448C48.2029 49.8822 48.0042 50.0809 48.0042 50.3261V54.5218Z" fill="url(#paint4_linear_2430_324)"/>
<path fill-rule="evenodd" clip-rule="evenodd" d="M48.0042 47.4489C48.0042 47.694 48.2029 47.8927 48.448 47.8927H53.8238C54.0689 47.8927 54.2676 47.694 54.2676 47.4489V43.916C54.2676 43.6709 54.0689 43.4722 53.8238 43.4722H48.448C48.2029 43.4722 48.0042 43.6709 48.0042 43.916V47.4489Z" fill="url(#paint5_linear_2430_324)"/>
<path fill-rule="evenodd" clip-rule="evenodd" d="M48.0042 67.2669C48.0042 67.512 48.2029 67.7107 48.448 67.7107H53.823C54.0681 67.7107 54.2668 67.512 54.2668 67.2669V63.6604C54.2668 63.4153 54.0681 63.2166 53.823 63.2166H48.448C48.2029 63.2166 48.0042 63.4153 48.0042 63.6604V67.2669Z" fill="url(#paint6_linear_2430_324)"/>
<path fill-rule="evenodd" clip-rule="evenodd" d="M56.2056 67.2669C56.2056 67.512 56.4043 67.7107 56.6494 67.7107H62.0244C62.2696 67.7107 62.4683 67.512 62.4683 67.2669V63.6604C62.4683 63.4153 62.2696 63.2166 62.0244 63.2166H56.6494C56.4043 63.2166 56.2056 63.4153 56.2056 63.6604V67.2669Z" fill="url(#paint7_linear_2430_324)"/>
<path fill-rule="evenodd" clip-rule="evenodd" d="M56.2056 60.8568C56.2056 61.1019 56.4043 61.3006 56.6494 61.3006H62.0252C62.2704 61.3006 62.4691 61.1019 62.4691 60.8568V57.3247C62.4691 57.0796 62.2704 56.8809 62.0252 56.8809H56.6494C56.4043 56.8809 56.2056 57.0796 56.2056 57.3247V60.8568Z" fill="url(#paint8_linear_2430_324)"/>
<path fill-rule="evenodd" clip-rule="evenodd" d="M56.2056 54.5218C56.2056 54.767 56.4043 54.9657 56.6494 54.9657H62.0252C62.2704 54.9657 62.4691 54.767 62.4691 54.5218V50.3261C62.4691 50.0809 62.2704 49.8822 62.0252 49.8822H56.6494C56.4043 49.8822 56.2056 50.0809 56.2056 50.3261V54.5218Z" fill="url(#paint9_linear_2430_324)"/>
<path fill-rule="evenodd" clip-rule="evenodd" d="M39.8036 54.5225C39.8036 54.7676 40.0023 54.9663 40.2474 54.9663H45.6232C45.8684 54.9663 46.0671 54.7676 46.0671 54.5225V50.3267C46.0671 50.0816 45.8684 49.8829 45.6232 49.8829H40.2474C40.0023 49.8829 39.8036 50.0816 39.8036 50.3267V54.5225Z" fill="url(#paint10_linear_2430_324)"/>
<path fill-rule="evenodd" clip-rule="evenodd" d="M39.8036 60.8561C39.8036 61.1013 40.0023 61.3 40.2474 61.3H45.6232C45.8684 61.3 46.0671 61.1013 46.0671 60.8561V57.3241C46.0671 57.0789 45.8684 56.8802 45.6232 56.8802H40.2474C40.0023 56.8802 39.8036 57.0789 39.8036 57.3241V60.8561Z" fill="url(#paint11_linear_2430_324)"/>
<path fill-rule="evenodd" clip-rule="evenodd" d="M39.8036 67.2673C39.8036 67.5124 40.0023 67.7111 40.2474 67.7111H45.6224C45.8676 67.7111 46.0663 67.5124 46.0663 67.2673V63.6609C46.0663 63.4157 45.8676 63.217 45.6224 63.217H40.2474C40.0023 63.217 39.8036 63.4157 39.8036 63.6609V67.2673Z" fill="url(#paint12_linear_2430_324)"/>
</g>
<defs>
<filter id="filter0_ddddd_2430_324" x="11.3076" y="15.187" width="79.3857" height="87.3857" filterUnits="userSpaceOnUse" color-interpolation-filters="sRGB">
<feFlood flood-opacity="0" result="BackgroundImageFix"/>
<feColorMatrix in="SourceAlpha" type="matrix" values="0 0 0 0 0 0 0 0 0 0 0 0 0 0 0 0 0 0 127 0" result="hardAlpha"/>
<feOffset/>
<feColorMatrix type="matrix" values="0 0 0 0 0 0 0 0 0 0 0 0 0 0 0 0 0 0 0.1 0"/>
<feBlend mode="normal" in2="BackgroundImageFix" result="effect1_dropShadow_2430_324"/>
<feColorMatrix in="SourceAlpha" type="matrix" values="0 0 0 0 0 0 0 0 0 0 0 0 0 0 0 0 0 0 127 0" result="hardAlpha"/>
<feOffset dy="1"/>
<feGaussianBlur stdDeviation="1"/>
<feColorMatrix type="matrix" values="0 0 0 0 0 0 0 0 0 0 0 0 0 0 0 0 0 0 0.1 0"/>
<feBlend mode="normal" in2="effect1_dropShadow_2430_324" result="effect2_dropShadow_2430_324"/>
<feColorMatrix in="SourceAlpha" type="matrix" values="0 0 0 0 0 0 0 0 0 0 0 0 0 0 0 0 0 0 127 0" result="hardAlpha"/>
<feOffset dy="3"/>
<feGaussianBlur stdDeviation="1.5"/>
<feColorMatrix type="matrix" values="0 0 0 0 0 0 0 0 0 0 0 0 0 0 0 0 0 0 0.09 0"/>
<feBlend mode="normal" in2="effect2_dropShadow_2430_324" result="effect3_dropShadow_2430_324"/>
<feColorMatrix in="SourceAlpha" type="matrix" values="0 0 0 0 0 0 0 0 0 0 0 0 0 0 0 0 0 0 127 0" result="hardAlpha"/>
<feOffset dy="6"/>
<feGaussianBlur stdDeviation="2"/>
<feColorMatrix type="matrix" values="0 0 0 0 0 0 0 0 0 0 0 0 0 0 0 0 0 0 0.05 0"/>
<feBlend mode="normal" in2="effect3_dropShadow_2430_324" result="effect4_dropShadow_2430_324"/>
<feColorMatrix in="SourceAlpha" type="matrix" values="0 0 0 0 0 0 0 0 0 0 0 0 0 0 0 0 0 0 127 0" result="hardAlpha"/>
<feOffset dy="11"/>
<feGaussianBlur stdDeviation="2"/>
<feColorMatrix type="matrix" values="0 0 0 0 0 0 0 0 0 0 0 0 0 0 0 0 0 0 0.01 0"/>
<feBlend mode="normal" in2="effect4_dropShadow_2430_324" result="effect5_dropShadow_2430_324"/>
<feBlend mode="normal" in="SourceGraphic" in2="effect5_dropShadow_2430_324" result="shape"/>
</filter>
<linearGradient id="paint0_linear_2430_324" x1="11.1655" y1="-22.1837" x2="114.425" y2="130.461" gradientUnits="userSpaceOnUse">
<stop offset="0.318529" stop-color="#FDFFFC"/>
<stop offset="1" stop-color="#CDFEAF"/>
</linearGradient>
<linearGradient id="paint1_linear_2430_324" x1="28.7858" y1="10.6711" x2="48.5579" y2="103.666" gradientUnits="userSpaceOnUse">
<stop offset="0.0511799" stop-color="#98E89B"/>
<stop offset="0.315" stop-color="#38B192"/>
<stop offset="0.69" stop-color="#378A7C"/>
<stop offset="0.97" stop-color="#09514D"/>
</linearGradient>
<linearGradient id="paint2_linear_2430_324" x1="38.194" y1="27.5981" x2="56.122" y2="84.9631" gradientUnits="userSpaceOnUse">
<stop offset="0.0511799" stop-color="#98E89B"/>
<stop offset="0.315" stop-color="#38B192"/>
<stop offset="0.69" stop-color="#378A7C"/>
<stop offset="0.97" stop-color="#09514D"/>
</linearGradient>
<linearGradient id="paint3_linear_2430_324" x1="38.4756" y1="46.4654" x2="54.0455" y2="72.3966" gradientUnits="userSpaceOnUse">
<stop offset="0.0511799" stop-color="#98E89B"/>
<stop offset="0.315" stop-color="#38B192"/>
<stop offset="0.69" stop-color="#378A7C"/>
<stop offset="0.97" stop-color="#09514D"/>
</linearGradient>
<linearGradient id="paint4_linear_2430_324" x1="38.4756" y1="46.4654" x2="54.0455" y2="72.3966" gradientUnits="userSpaceOnUse">
<stop offset="0.0511799" stop-color="#98E89B"/>
<stop offset="0.315" stop-color="#38B192"/>
<stop offset="0.69" stop-color="#378A7C"/>
<stop offset="0.97" stop-color="#09514D"/>
</linearGradient>
<linearGradient id="paint5_linear_2430_324" x1="38.4756" y1="46.4654" x2="54.0455" y2="72.3966" gradientUnits="userSpaceOnUse">
<stop offset="0.0511799" stop-color="#98E89B"/>
<stop offset="0.315" stop-color="#38B192"/>
<stop offset="0.69" stop-color="#378A7C"/>
<stop offset="0.97" stop-color="#09514D"/>
</linearGradient>
<linearGradient id="paint6_linear_2430_324" x1="38.4756" y1="46.4654" x2="54.0455" y2="72.3966" gradientUnits="userSpaceOnUse">
<stop offset="0.0511799" stop-color="#98E89B"/>
<stop offset="0.315" stop-color="#38B192"/>
<stop offset="0.69" stop-color="#378A7C"/>
<stop offset="0.97" stop-color="#09514D"/>
</linearGradient>
<linearGradient id="paint7_linear_2430_324" x1="38.4756" y1="46.4654" x2="54.0455" y2="72.3966" gradientUnits="userSpaceOnUse">
<stop offset="0.0511799" stop-color="#98E89B"/>
<stop offset="0.315" stop-color="#38B192"/>
<stop offset="0.69" stop-color="#378A7C"/>
<stop offset="0.97" stop-color="#09514D"/>
</linearGradient>
<linearGradient id="paint8_linear_2430_324" x1="38.4756" y1="46.4654" x2="54.0455" y2="72.3966" gradientUnits="userSpaceOnUse">
<stop offset="0.0511799" stop-color="#98E89B"/>
<stop offset="0.315" stop-color="#38B192"/>
<stop offset="0.69" stop-color="#378A7C"/>
<stop offset="0.97" stop-color="#09514D"/>
</linearGradient>
<linearGradient id="paint9_linear_2430_324" x1="38.4756" y1="46.4654" x2="54.0455" y2="72.3966" gradientUnits="userSpaceOnUse">
<stop offset="0.0511799" stop-color="#98E89B"/>
<stop offset="0.315" stop-color="#38B192"/>
<stop offset="0.69" stop-color="#378A7C"/>
<stop offset="0.97" stop-color="#09514D"/>
</linearGradient>
<linearGradient id="paint10_linear_2430_324" x1="38.4756" y1="46.4654" x2="54.0455" y2="72.3966" gradientUnits="userSpaceOnUse">
<stop offset="0.0511799" stop-color="#98E89B"/>
<stop offset="0.315" stop-color="#38B192"/>
<stop offset="0.69" stop-color="#378A7C"/>
<stop offset="0.97" stop-color="#09514D"/>
</linearGradient>
<linearGradient id="paint11_linear_2430_324" x1="38.4756" y1="46.4654" x2="54.0455" y2="72.3966" gradientUnits="userSpaceOnUse">
<stop offset="0.0511799" stop-color="#98E89B"/>
<stop offset="0.315" stop-color="#38B192"/>
<stop offset="0.69" stop-color="#378A7C"/>
<stop offset="0.97" stop-color="#09514D"/>
</linearGradient>
<linearGradient id="paint12_linear_2430_324" x1="38.4756" y1="46.4654" x2="54.0455" y2="72.3966" gradientUnits="userSpaceOnUse">
<stop offset="0.0511799" stop-color="#98E89B"/>
<stop offset="0.315" stop-color="#38B192"/>
<stop offset="0.69" stop-color="#378A7C"/>
<stop offset="0.97" stop-color="#09514D"/>
</linearGradient>
<clipPath id="clip0_2430_324">
<rect width="102" height="102" fill="white" transform="translate(0 0.879883)"/>
</clipPath>
</defs>
</svg>
