<svg width="100" height="100" fill="none" xmlns="http://www.w3.org/2000/svg"><g clip-path="url(#a)"><path d="M49.64 96.45a46.81 46.81 0 1 1 0-93.62 46.81 46.81 0 0 1 0 93.62Z" fill="url(#b)"/><path fill-rule="evenodd" clip-rule="evenodd" d="M95.54 49.64a45.9 45.9 0 1 1-91.802 0 45.9 45.9 0 0 1 91.802 0ZM49.64 0a49.64 49.64 0 1 1 0 99.28 49.64 49.64 0 0 1 0-99.28Z" fill="#F2F1F0"/><path fill-rule="evenodd" clip-rule="evenodd" d="M92.73 49.64a43.09 43.09 0 1 1-86.18 0 43.09 43.09 0 0 1 86.18 0ZM49.64 2.81a46.83 46.83 0 1 1 0 93.66 46.83 46.83 0 0 1 0-93.66Z" fill="#0078D4"/><path fill-rule="evenodd" clip-rule="evenodd" d="M92.73 49.64a43.09 43.09 0 1 1-86.18 0 43.09 43.09 0 0 1 86.18 0ZM49.64 2.81a46.83 46.83 0 1 1 0 93.659 46.83 46.83 0 0 1 0-93.66Z" fill="#0078D4"/><path d="M43.848 66.16V47.948a1.561 1.561 0 0 0-3.123 0v18.214h-3.122V30.774H60.5v35.387H43.848Z" fill="url(#c)"/><path d="M62.061 27.652h-26.02a1.561 1.561 0 0 0-1.56 1.561v38.509a1.56 1.56 0 0 0 1.56 1.561h26.02a1.562 1.562 0 0 0 1.562-1.561V29.213a1.562 1.562 0 0 0-1.562-1.561Zm-1.56 38.509H43.847V47.947a1.561 1.561 0 0 0-3.123 0v18.214h-3.122V30.774H60.5v35.387ZM40.724 35.458a1.561 1.561 0 1 1 3.123 0 1.561 1.561 0 0 1-3.123 0Z" fill="url(#d)"/><path opacity=".2" d="M44.226 50.499a17.896 17.896 0 0 0-.548-2.228 48.127 48.127 0 0 0-.738-2.16c-.272-.735-.57-1.462-.888-2.16a63.942 63.942 0 0 0-.905-1.91 38.938 38.938 0 0 0-.88-1.69 4.596 4.596 0 0 0-1.205-1.405 5.31 5.31 0 0 0-1.29-.708 6.118 6.118 0 0 0-1.376-.346c-.3-.039-.607-.082-.853-.118a8.403 8.403 0 0 0-.843-.115c-.07-.005-.147-.004-.22-.009v18.46c.24.263.48.532.72.81a9.733 9.733 0 0 0 2.08 1.817c.544.362 1.181.56 1.835.57h.035l.036-.001a4.611 4.611 0 0 0 1.303-.233c.325-.109.642-.242.946-.4a4.483 4.483 0 0 0 1.387-1.119 7.3 7.3 0 0 0 .741-1.068 6.07 6.07 0 0 0 .744-2.122c.092-.603.137-1.212.135-1.822a14.934 14.934 0 0 0-.216-2.043Z" fill="#003067"/><path opacity=".2" d="M53.502 65.566v3.717h6.958v-3.717a9.705 9.705 0 0 0 3.162-1.99V49.26a9.776 9.776 0 1 0-10.12 16.305Z" fill="#001834"/><path d="M51.046 25.492a9.164 9.164 0 0 1 18.328 0v2.156h-2.426a.809.809 0 0 0-.808.809v7.008a.808.808 0 0 0 .808.808h.809a3.235 3.235 0 0 0 3.234-3.234v-7.547a10.781 10.781 0 0 0-21.562 0v7.547a3.235 3.235 0 0 0 3.234 3.234h.809a.809.809 0 0 0 .808-.808v-7.008a.809.809 0 0 0-.808-.809h-2.426v-2.156Zm9.973-.27a.808.808 0 1 0-1.617 0v11.32a.809.809 0 0 0 1.617 0v-11.32Zm-4.313 2.426a.809.809 0 0 1 .809.809v4.852a.809.809 0 0 1-1.617 0v-4.852a.809.809 0 0 1 .808-.809Zm7.817.809a.808.808 0 1 0-1.617 0v4.852a.809.809 0 0 0 1.617 0v-4.852Z" fill="#50E6FF"/><path opacity=".2" d="M62.075 27.648H47.272v5.391a5.389 5.389 0 0 0 5.39 5.39h.81a2.971 2.971 0 0 0 2.86-2.18 2.936 2.936 0 0 0 .913-.025v.202a3.043 3.043 0 0 0 2.374 3.024 2.97 2.97 0 0 0 3.556-2.907v-.319c.148.025.297.039.448.041v-7.07a1.546 1.546 0 0 0-1.548-1.547ZM34.48 27.648v9.878h6.273a3.756 3.756 0 0 0 3.751-3.751v-6.127H34.481Z" fill="#003067"/><path d="M42.101 50.868a15.27 15.27 0 0 0-.48-1.95 43.63 43.63 0 0 0-.705-2.062 29.466 29.466 0 0 0-.826-2.012 67.703 67.703 0 0 0-.877-1.851 37.498 37.498 0 0 0-.815-1.568 2.447 2.447 0 0 0-.63-.753 3.134 3.134 0 0 0-.764-.42 3.907 3.907 0 0 0-.89-.221 54.055 54.055 0 0 1-.962-.136 6.403 6.403 0 0 0-1.247-.111c-.263.01-.524.05-.777.123-.2.06-.392.147-.568.26l-.42.27a.578.578 0 0 1-.296.112H27.5a.862.862 0 0 1-.32-.123 10.263 10.263 0 0 1-.396-.26 2.25 2.25 0 0 0-1.32-.382c-.24 0-.479.012-.716.037-.23.024-.465.053-.704.086-.337.05-.654.099-.95.148a3.94 3.94 0 0 0-.84.235 2.836 2.836 0 0 0-.728.432c-.24.204-.442.45-.592.728-.256.453-.527.97-.815 1.555a45.118 45.118 0 0 0-.864 1.864 57.304 57.304 0 0 0-.84 2.024 23.489 23.489 0 0 0-1.184 4.024 8.913 8.913 0 0 0-.186 1.716c.009.214.017.448.025.703.008.25.037.497.087.741.049.238.11.473.185.704.07.223.166.439.284.642.157.267.338.52.543.752.2.237.443.433.716.58.206.107.421.198.641.272.214.078.44.12.667.124.22 0 .436-.055.63-.16a4.248 4.248 0 0 0 1.098-.865c.156-.173.304-.329.444-.469.264-.271.523-.551.778-.84l.765-.863c.107-.132.214-.26.321-.383.105-.121.216-.236.333-.346a3.01 3.01 0 0 1 .58-.431c.182-.1.372-.182.569-.247.2-.067.407-.108.617-.124.214-.016.452-.025.715-.025h5.271c.263.017.506.03.728.037.21.007.419.044.618.112.193.067.379.154.555.259.429.267.809.605 1.123 1 .206.255.44.526.704.814.263.288.526.585.79.889a7.624 7.624 0 0 0 1.604 1.407c.2.14.435.222.68.235.234-.008.467-.05.69-.124a4.42 4.42 0 0 0 .642-.271c.276-.143.52-.34.716-.58.2-.239.378-.495.531-.766.245-.422.408-.887.481-1.37.074-.474.11-.952.111-1.432a12.427 12.427 0 0 0-.185-1.74Z" fill="url(#e)"/><path d="M24.08 49.49a2.69 2.69 0 1 0 0-5.382 2.69 2.69 0 0 0 0 5.382Z" fill="#999"/><path d="M35.295 46.24a.866.866 0 1 0 0-1.732.866.866 0 0 0 0 1.731Z" fill="#FFBD02"/><path d="M35.295 49.09a.866.866 0 1 0 0-1.73.866.866 0 0 0 0 1.73Z" fill="#37C2B1"/><path d="M33.87 47.665a.866.866 0 1 0 0-1.732.866.866 0 0 0 0 1.732Z" fill="#0078D4"/><path d="M36.721 47.665a.866.866 0 1 0 0-1.732.866.866 0 0 0 0 1.732Z" fill="#E62323"/><path d="M30.505 45.733a1.192 1.192 0 1 1 .346-.84 1.143 1.143 0 0 1-.346.84Z" fill="#F2F2F2"/><path d="M43.908 75.192h26.146v6.442a1.161 1.161 0 0 1-1.161 1.162H45.069a1.161 1.161 0 0 1-1.161-1.162v-6.442Z" fill="#003067"/><path d="M65.489 80.357a1.363 1.363 0 1 0 0-2.726 1.363 1.363 0 0 0 0 2.726Z" fill="#fff"/><path d="M61.16 80.357a1.363 1.363 0 1 0 0-2.726 1.363 1.363 0 0 0 0 2.726Z" fill="#C3F1FF"/><path d="M66.86 73.99H47.103a1.96 1.96 0 0 0-.777.16l-2.418 1.042h26.146l-2.418-1.043a1.96 1.96 0 0 0-.776-.16Z" fill="url(#f)"/><path d="M58.304 52.928h-2.646v20.474h2.646V52.928Z" fill="#fff"/><path opacity=".2" d="M55.658 52.928v12.411c.876.144 1.77.144 2.646 0V52.928h-2.646Z" fill="#53B1E0"/><path d="M56.981 64.052a7.628 7.628 0 1 0 0-15.255 7.628 7.628 0 0 0 0 15.255Z" fill="url(#g)"/><path opacity=".3" d="M56.98 50.89a5.402 5.402 0 0 1 3.722 1.814 5.132 5.132 0 0 1 1.273 3.72.157.157 0 0 1-.313 0 4.545 4.545 0 0 0-1.564-3.117 4.273 4.273 0 0 0-3.117-1.023.7.7 0 1 1-.023-1.396l.023.002Z" fill="#fff"/><path d="m55.658 72.213-1.906 2.378h1.906v-2.378ZM58.304 72.213l1.906 2.378h-1.906v-2.378ZM58.304 72.213h-2.646v2.378h2.646v-2.378Z" fill="#003067"/><path d="M51.046 25.492a9.164 9.164 0 0 1 18.328 0v2.156h-2.426a.809.809 0 0 0-.808.809v7.008a.808.808 0 0 0 .808.808h.809a3.235 3.235 0 0 0 3.234-3.234v-7.547a10.781 10.781 0 0 0-21.562 0v7.547a3.235 3.235 0 0 0 3.234 3.234h.809a.809.809 0 0 0 .808-.808v-7.008a.809.809 0 0 0-.808-.809h-2.426v-2.156Z" fill="#F2F2F2"/><path d="M61.019 25.222a.808.808 0 1 0-1.617 0v11.32a.809.809 0 0 0 1.617 0v-11.32ZM56.706 27.648a.809.809 0 0 1 .809.809v4.852a.809.809 0 0 1-1.617 0v-4.852a.809.809 0 0 1 .808-.809ZM64.523 28.457a.809.809 0 1 0-1.617 0v4.852a.809.809 0 1 0 1.617 0v-4.852Z" fill="#50E6FF"/><path d="M40.754 21.107H29.837a1.75 1.75 0 0 0-1.75 1.751v10.917c0 .967.783 1.751 1.75 1.751h10.917c.967 0 1.75-.784 1.75-1.751V22.858a1.75 1.75 0 0 0-1.75-1.75Z" fill="url(#h)"/><path d="M40.754 22.107a.752.752 0 0 1 .75.751v10.917a.752.752 0 0 1-.75.751H29.837a.752.752 0 0 1-.75-.751V22.858a.751.751 0 0 1 .75-.75h10.917Zm0-1H29.837a1.75 1.75 0 0 0-1.75 1.751v10.917a1.751 1.751 0 0 0 1.75 1.751h10.917a1.751 1.751 0 0 0 1.75-1.751V22.858a1.75 1.75 0 0 0-1.75-1.75Z" fill="url(#i)"/><path d="M35.296 31.386a3.069 3.069 0 1 0 0-6.138 3.069 3.069 0 0 0 0 6.138Z" fill="#fff"/></g><defs><linearGradient id="b" x1="47.87" y1="-15.153" x2="51.852" y2="130.615" gradientUnits="userSpaceOnUse"><stop stop-color="#00ABDE"/><stop offset="1" stop-color="#007ED8"/></linearGradient><linearGradient id="c" x1="49.051" y1="66.161" x2="49.051" y2="30.774" gradientUnits="userSpaceOnUse"><stop stop-color="#004DAE"/><stop offset=".21" stop-color="#0061C4"/><stop offset=".51" stop-color="#0078DD"/><stop offset=".78" stop-color="#0086EC"/><stop offset="1" stop-color="#008BF1"/></linearGradient><linearGradient id="d" x1="49.052" y1="69.283" x2="49.052" y2="27.652" gradientUnits="userSpaceOnUse"><stop stop-color="#003067"/><stop offset=".2" stop-color="#003F7C"/><stop offset=".47" stop-color="#004F90"/><stop offset=".74" stop-color="#00589D"/><stop offset="1" stop-color="#005BA1"/></linearGradient><linearGradient id="e" x1="29.666" y1="39.784" x2="29.666" y2="57.151" gradientUnits="userSpaceOnUse"><stop stop-color="#F0F0F0"/><stop offset=".322" stop-color="#EAEAEA"/><stop offset=".755" stop-color="#D9D9D9"/><stop offset="1" stop-color="#CCC"/></linearGradient><linearGradient id="f" x1="60.249" y1="80.853" x2="53.701" y2="69.511" gradientUnits="userSpaceOnUse"><stop stop-color="#003067"/><stop offset=".239" stop-color="#00356E"/><stop offset=".585" stop-color="#004381"/><stop offset=".994" stop-color="#005BA0"/><stop offset="1" stop-color="#005BA1"/></linearGradient><linearGradient id="g" x1="56.981" y1="48.797" x2="56.981" y2="64.052" gradientUnits="userSpaceOnUse"><stop stop-color="#008BF1"/><stop offset=".22" stop-color="#0086EC"/><stop offset=".49" stop-color="#0078DD"/><stop offset=".79" stop-color="#0061C4"/><stop offset="1" stop-color="#004DAE"/></linearGradient><linearGradient id="h" x1="35.295" y1="35.526" x2="35.295" y2="21.107" gradientUnits="userSpaceOnUse"><stop stop-color="#008BF1"/><stop offset=".995" stop-color="#0078D4"/></linearGradient><linearGradient id="i" x1="28.086" y1="28.317" x2="42.505" y2="28.317" gradientUnits="userSpaceOnUse"><stop stop-color="#008BF1"/><stop offset=".22" stop-color="#0086EC"/><stop offset=".49" stop-color="#0078DD"/><stop offset=".79" stop-color="#0061C4"/><stop offset="1" stop-color="#004DAE"/></linearGradient><clipPath id="a"><path fill="#fff" d="M0 0h99.28v99.28H0z"/></clipPath></defs></svg>