<svg width="100" height="100" viewBox="0 0 100 100" fill="none" xmlns="http://www.w3.org/2000/svg">
<g clip-path="url(#clip0_362_287)">
<path d="M49.6401 96.4499C40.382 96.4499 31.3317 93.7045 23.6339 88.561C15.936 83.4174 9.93624 76.1067 6.3933 67.5533C2.85036 58.9999 1.92337 49.588 3.72954 40.5077C5.53571 31.4275 9.99394 23.0867 16.5404 16.5402C23.0869 9.99372 31.4277 5.5355 40.5079 3.72933C49.5882 1.92315 59.0001 2.85015 67.5535 6.39308C76.1069 9.93602 83.4176 15.9358 88.5612 23.6336C93.7047 31.3315 96.4501 40.3817 96.4501 49.6399C96.4505 55.7872 95.24 61.8744 92.8878 67.5538C90.5355 73.2332 87.0875 78.3937 82.7407 82.7405C78.3939 87.0873 73.2335 90.5353 67.554 92.8876C61.8746 95.2398 55.7874 96.4503 49.6401 96.4499V96.4499Z" fill="url(#paint0_linear_362_287)"/>
<path fill-rule="evenodd" clip-rule="evenodd" d="M95.54 49.6399C95.54 58.718 92.848 67.5923 87.8045 75.1406C82.7609 82.6888 75.5923 88.5719 67.2052 92.046C58.818 95.52 49.5891 96.429 40.6854 94.6579C31.7816 92.8869 23.603 88.5153 17.1838 82.0961C10.7646 75.6769 6.39302 67.4983 4.62196 58.5945C2.85089 49.6908 3.75987 40.4618 7.23393 32.0747C10.708 23.6876 16.5911 16.519 24.1393 11.4754C31.6875 6.43187 40.5618 3.73988 49.64 3.73988C55.6677 3.73986 61.6363 4.92708 67.2052 7.23377C72.774 9.54045 77.834 12.9214 82.0963 17.1836C86.3585 21.4458 89.7394 26.5058 92.0461 32.0747C94.3528 37.6435 95.54 43.6122 95.54 49.6399V49.6399ZM49.64 -0.000106449C59.4579 -0.000106449 69.0552 2.91123 77.2185 8.36574C85.3818 13.8203 91.7442 21.573 95.5014 30.6435C99.2585 39.714 100.242 49.695 98.3262 59.3242C96.4108 68.9534 91.6831 77.7984 84.7408 84.7407C77.7985 91.683 68.9535 96.4107 59.3243 98.3261C49.6951 100.241 39.7141 99.2584 30.6436 95.5013C21.5731 91.7441 13.8204 85.3816 8.36584 77.2184C2.91133 69.0551 -1.61629e-06 59.4577 3.61524e-07 49.6399C-0.000786426 43.1208 1.28265 36.6655 3.77702 30.6425C6.27138 24.6196 9.92781 19.147 14.5375 14.5374C19.1471 9.9277 24.6197 6.27127 30.6427 3.77691C36.6656 1.28254 43.121 -0.000894549 49.64 -0.000106449V-0.000106449Z" fill="#F2F1F0"/>
<path fill-rule="evenodd" clip-rule="evenodd" d="M92.7296 49.64C92.7296 58.1624 90.2024 66.4934 85.4676 73.5795C80.7328 80.6656 74.0031 86.1886 66.1294 89.45C58.2557 92.7113 49.5918 93.5647 41.2331 91.902C32.8745 90.2394 25.1966 86.1355 19.1703 80.1092C13.1441 74.083 9.04017 66.4051 7.37753 58.0464C5.7149 49.6878 6.56822 41.0238 9.8296 33.1502C13.091 25.2765 18.6139 18.5468 25.7 13.812C32.7862 9.07718 41.1172 6.55 49.6396 6.55C55.2983 6.54965 60.9017 7.66397 66.1298 9.82933C71.3579 11.9947 76.1082 15.1687 80.1096 19.17C84.1109 23.1713 87.2849 27.9217 89.4502 33.1498C91.6156 38.3778 92.7299 43.9812 92.7296 49.64ZM49.6396 2.81C58.9017 2.81 67.9558 5.55653 75.6569 10.7023C83.3581 15.848 89.3604 23.1619 92.9049 31.7189C96.4493 40.276 97.3767 49.6919 95.5697 58.7761C93.7628 67.8602 89.3027 76.2045 82.7534 82.7538C76.2041 89.3031 67.8598 93.7632 58.7757 95.5702C49.6915 97.3771 40.2756 96.4497 31.7185 92.9053C23.1614 89.3608 15.8476 83.3585 10.7018 75.6574C5.5561 67.9562 2.80957 58.9021 2.80957 49.64C2.81076 37.2203 7.74501 25.3096 16.5271 16.5275C25.3091 7.74544 37.2198 2.81119 49.6396 2.81V2.81Z" fill="#0078D4"/>
<path fill-rule="evenodd" clip-rule="evenodd" d="M92.7296 49.6399C92.7296 58.1623 90.2024 66.4933 85.4676 73.5794C80.7328 80.6655 74.0031 86.1885 66.1294 89.4499C58.2557 92.7112 49.5918 93.5646 41.2331 91.9019C32.8745 90.2393 25.1966 86.1354 19.1703 80.1091C13.1441 74.0829 9.04017 66.405 7.37753 58.0463C5.7149 49.6877 6.56822 41.0237 9.8296 33.1501C13.091 25.2764 18.6139 18.5467 25.7001 13.8119C32.7862 9.07708 41.1172 6.5499 49.6396 6.5499C55.2983 6.54956 60.9017 7.66388 66.1298 9.82923C71.3579 11.9946 76.1082 15.1686 80.1096 19.1699C84.1109 23.1712 87.2849 27.9216 89.4502 33.1497C91.6156 38.3777 92.7299 43.9811 92.7296 49.6399V49.6399ZM49.6396 2.8099C58.9017 2.8099 67.9558 5.55643 75.6569 10.7022C83.3581 15.8479 89.3604 23.1618 92.9048 31.7188C96.4493 40.2759 97.3767 49.6918 95.5697 58.776C93.7628 67.8601 89.3027 76.2044 82.7534 82.7537C76.2041 89.303 67.8598 93.7631 58.7757 95.5701C49.6915 97.377 40.2756 96.4496 31.7185 92.9052C23.1614 89.3607 15.8476 83.3584 10.7018 75.6573C5.5561 67.9561 2.80957 58.902 2.80957 49.6399C2.81075 37.2202 7.74499 25.3095 16.5271 16.5274C25.3091 7.7453 37.2198 2.81105 49.6396 2.80986V2.8099Z" fill="#0078D4"/>
<path d="M60.4316 68.5331C71.0838 68.5331 79.7191 59.8978 79.7191 49.2456C79.7191 38.5934 71.0838 29.9581 60.4316 29.9581C49.7794 29.9581 41.144 38.5934 41.144 49.2456C41.144 59.8978 49.7794 68.5331 60.4316 68.5331Z" fill="url(#paint1_linear_362_287)"/>
<path d="M60.4321 69.0332C56.5185 69.0333 52.6927 67.8728 49.4386 65.6986C46.1845 63.5244 43.6482 60.434 42.1504 56.8183C40.6527 53.2026 40.2608 49.224 41.0242 45.3855C41.7877 41.5471 43.6722 38.0212 46.4395 35.2538C49.2069 32.4864 52.7327 30.6018 56.5711 29.8382C60.4095 29.0747 64.3882 29.4665 68.0039 30.9642C71.6197 32.4618 74.7101 34.9981 76.8844 38.2521C79.0587 41.5062 80.2193 45.332 80.2192 49.2456C80.2133 54.4917 78.1267 59.5212 74.4172 63.2308C70.7077 66.9404 65.6782 69.0271 60.4321 69.0332V69.0332ZM60.4321 30.458C56.7163 30.4579 53.0838 31.5597 49.9942 33.624C46.9045 35.6884 44.4964 38.6226 43.0743 42.0556C41.6523 45.4885 41.2801 49.2661 42.005 52.9106C42.7299 56.555 44.5192 59.9027 47.1466 62.5303C49.7741 65.1578 53.1217 66.9472 56.7662 67.6722C60.4106 68.3971 64.1882 68.0251 67.6212 66.6031C71.0543 65.1811 73.9885 62.7731 76.0529 59.6835C78.1174 56.5939 79.2192 52.9615 79.2192 49.2456C79.2135 44.2647 77.2323 39.4894 73.7103 35.9673C70.1883 32.4452 65.4131 30.4639 60.4321 30.458V30.458Z" fill="#003067"/>
<path d="M65.7285 51.2257C66.0004 51.2257 66.2696 51.2792 66.5207 51.3832C66.7719 51.4873 67.0001 51.6398 67.1923 51.832C67.3846 52.0242 67.537 52.2524 67.6411 52.5036C67.7451 52.7548 67.7987 53.024 67.7986 53.2958V54.1412C67.7986 54.669 67.6336 55.1836 67.3268 55.613C65.9038 57.6044 63.5801 58.5908 60.4317 58.5908C57.2827 58.5908 54.9602 57.6039 53.5406 55.6116C53.235 55.1827 53.0708 54.6692 53.0708 54.1426V53.2958C53.0708 53.0239 53.1243 52.7547 53.2284 52.5036C53.3324 52.2524 53.4849 52.0242 53.6771 51.832C53.8694 51.6397 54.0976 51.4872 54.3488 51.3832C54.5999 51.2792 54.8691 51.2257 55.141 51.2257H65.7285ZM60.4317 40.1838C61.342 40.1838 62.2318 40.4537 62.9887 40.9594C63.7456 41.4652 64.3355 42.184 64.6839 43.025C65.0323 43.866 65.1234 44.7915 64.9458 45.6843C64.7682 46.5771 64.3299 47.3972 63.6862 48.0409C63.0425 48.6846 62.2224 49.1229 61.3296 49.3005C60.4368 49.4781 59.5114 49.387 58.6703 49.0386C57.8293 48.6903 57.1105 48.1003 56.6048 47.3434C56.099 46.5865 55.8291 45.6967 55.8291 44.7864C55.8291 43.5657 56.314 42.395 57.1772 41.5319C58.0403 40.6687 59.211 40.1838 60.4317 40.1838V40.1838Z" fill="#003067"/>
<path opacity="0.2" d="M60.7007 49.2456C60.6996 45.7887 59.8781 42.3814 58.3038 39.3038C56.7294 36.2262 54.4471 33.5662 51.6445 31.5424C48.3423 33.1737 45.5622 35.696 43.6183 38.8244C41.6744 41.9528 40.6443 45.5625 40.6443 49.2456C40.6443 52.9287 41.6745 56.5385 43.6184 59.6668C45.5623 62.7952 48.3424 65.3175 51.6447 66.9487C54.4472 64.9249 56.7295 62.2649 58.3038 59.1873C59.8781 56.1098 60.6996 52.7025 60.7007 49.2456V49.2456Z" fill="#001834"/>
<path d="M38.8366 68.5331C49.4888 68.5331 58.1241 59.8978 58.1241 49.2456C58.1241 38.5934 49.4888 29.9581 38.8366 29.9581C28.1844 29.9581 19.5491 38.5934 19.5491 49.2456C19.5491 59.8978 28.1844 68.5331 38.8366 68.5331Z" fill="url(#paint2_linear_362_287)"/>
<path d="M38.8362 69.1095C34.9075 69.1094 31.0671 67.9443 27.8006 65.7616C24.5341 63.5789 21.9882 60.4765 20.4848 56.8469C18.9814 53.2172 18.5881 49.2233 19.3546 45.3702C20.1211 41.517 22.013 37.9777 24.791 35.1997C27.5691 32.4218 31.1085 30.53 34.9616 29.7636C38.8148 28.9972 42.8087 29.3906 46.4383 30.894C50.0679 32.3975 53.1702 34.9435 55.3528 38.21C57.5355 41.4766 58.7005 45.317 58.7005 49.2457C58.6947 54.5122 56.6 59.5614 52.8759 63.2853C49.1519 67.0092 44.1027 69.1038 38.8362 69.1095ZM38.8362 30.5343C35.1354 30.5344 31.5178 31.6319 28.4408 33.6879C25.3638 35.744 22.9656 38.6664 21.5494 42.0855C20.1333 45.5046 19.7628 49.2668 20.4848 52.8964C21.2069 56.526 22.989 59.8601 25.6059 62.4769C28.2227 65.0936 31.5568 66.8757 35.1864 67.5976C38.8161 68.3196 42.5783 67.949 45.9973 66.5328C49.4164 65.1165 52.3387 62.7182 54.3947 59.6412C56.4507 56.5641 57.5481 52.9464 57.5481 49.2457C57.5426 44.2847 55.5693 39.5286 52.0614 36.0207C48.5534 32.5128 43.7971 30.5397 38.8362 30.5343V30.5343Z" fill="#1F56A3"/>
<path d="M44.1332 51.2257C44.4051 51.2257 44.6743 51.2792 44.9254 51.3832C45.1766 51.4873 45.4048 51.6398 45.5971 51.832C45.7893 52.0242 45.9418 52.2524 46.0458 52.5036C46.1498 52.7548 46.2034 53.024 46.2034 53.2958V54.1412C46.2034 54.669 46.0384 55.1836 45.7315 55.613C44.3085 57.6044 41.9848 58.5908 38.8364 58.5908C35.6874 58.5908 33.3649 57.6039 31.9454 55.6116C31.6398 55.1827 31.4756 54.6692 31.4756 54.1426V53.2958C31.4756 53.0239 31.5291 52.7547 31.6332 52.5036C31.7372 52.2524 31.8897 52.0242 32.0819 51.832C32.2741 51.6397 32.5023 51.4872 32.7535 51.3832C33.0047 51.2792 33.2739 51.2256 33.5457 51.2256L44.1332 51.2257ZM38.8364 40.1838C39.7467 40.1838 40.6366 40.4537 41.3935 40.9594C42.1504 41.4652 42.7403 42.184 43.0886 43.025C43.437 43.866 43.5282 44.7915 43.3506 45.6843C43.173 46.5771 42.7346 47.3972 42.0909 48.0409C41.4473 48.6846 40.6272 49.1229 39.7344 49.3005C38.8415 49.4781 37.9161 49.387 37.0751 49.0386C36.2341 48.6903 35.5152 48.1003 35.0095 47.3434C34.5038 46.5865 34.2338 45.6967 34.2338 44.7864C34.2338 43.5657 34.7187 42.395 35.5819 41.5319C36.445 40.6687 37.6157 40.1838 38.8364 40.1838Z" fill="white"/>
<path d="M65.4939 24.5081C63.8149 22.3723 61.7105 20.6086 59.314 19.3289C56.9176 18.0492 54.2813 17.2814 51.5725 17.0743C48.8637 16.8671 46.1414 17.225 43.5782 18.1254C41.015 19.0258 38.6668 20.4489 36.6826 22.3046" stroke="white" stroke-width="1.19145" stroke-miterlimit="10" stroke-linecap="round"/>
<path d="M35.0265 19.9629L33.7935 25.0138C33.7813 25.0634 33.7825 25.1154 33.7968 25.1644C33.8111 25.2135 33.8381 25.2579 33.875 25.2932C33.912 25.3285 33.9575 25.3535 34.0072 25.3656C34.0568 25.3777 34.1087 25.3766 34.1578 25.3622L39.1487 23.9052C39.1978 23.8909 39.2422 23.8639 39.2775 23.827C39.3128 23.7901 39.3378 23.7445 39.3499 23.6949C39.3621 23.6453 39.3609 23.5933 39.3466 23.5443C39.3322 23.4952 39.3052 23.4508 39.2683 23.4155L35.5104 19.8216C35.4735 19.7863 35.4279 19.7613 35.3783 19.7492C35.3286 19.737 35.2767 19.7382 35.2276 19.7525C35.1786 19.7669 35.1342 19.7938 35.0989 19.8308C35.0635 19.8677 35.0386 19.9133 35.0265 19.9629Z" fill="white"/>
<path d="M33.7849 73.983C35.4639 76.1188 37.5683 77.8825 39.9647 79.1621C42.3612 80.4418 44.9974 81.2096 47.7063 81.4168C50.4151 81.6239 53.1374 81.266 55.7006 80.3656C58.2638 79.4653 60.6119 78.0421 62.5962 76.1864" stroke="white" stroke-width="1.19145" stroke-miterlimit="10" stroke-linecap="round"/>
<path d="M64.2524 78.5281L65.4854 73.4772C65.4975 73.4276 65.4964 73.3756 65.4821 73.3266C65.4677 73.2776 65.4408 73.2331 65.4038 73.1978C65.3669 73.1625 65.3213 73.1375 65.2717 73.1254C65.2221 73.1133 65.1701 73.1145 65.1211 73.1288L60.1302 74.5858C60.0811 74.6001 60.0367 74.6271 60.0014 74.664C59.9661 74.7009 59.9411 74.7465 59.929 74.7961C59.9168 74.8458 59.918 74.8977 59.9323 74.9468C59.9467 74.9958 59.9736 75.0402 60.0106 75.0755L63.7685 78.6694C63.8054 78.7047 63.851 78.7297 63.9006 78.7418C63.9503 78.754 64.0022 78.7528 64.0513 78.7385C64.1003 78.7242 64.1447 78.6972 64.18 78.6602C64.2153 78.6233 64.2403 78.5777 64.2524 78.5281V78.5281Z" fill="white"/>
</g>
<defs>
<linearGradient id="paint0_linear_362_287" x1="47.8697" y1="-15.1532" x2="51.8525" y2="130.615" gradientUnits="userSpaceOnUse">
<stop stop-color="#00ABDE"/>
<stop offset="1" stop-color="#007ED8"/>
</linearGradient>
<linearGradient id="paint1_linear_362_287" x1="60.4316" y1="68.5331" x2="60.4316" y2="29.8889" gradientUnits="userSpaceOnUse">
<stop stop-color="#003067"/>
<stop offset="0.2" stop-color="#003F7C"/>
<stop offset="0.47" stop-color="#004F90"/>
<stop offset="0.74" stop-color="#00589D"/>
<stop offset="1" stop-color="#005BA1"/>
</linearGradient>
<linearGradient id="paint2_linear_362_287" x1="38.8366" y1="68.5331" x2="38.8366" y2="29.9581" gradientUnits="userSpaceOnUse">
<stop stop-color="#004DAE"/>
<stop offset="0.21" stop-color="#0061C4"/>
<stop offset="0.51" stop-color="#0078DD"/>
<stop offset="0.78" stop-color="#0086EC"/>
<stop offset="1" stop-color="#008BF1"/>
</linearGradient>
<clipPath id="clip0_362_287">
<rect width="99.2799" height="99.28" fill="white"/>
</clipPath>
</defs>
</svg>
