<?xml version="1.0" encoding="UTF-8"?>
<svg width="107px" height="107px" viewBox="0 0 107 107" version="1.1" xmlns="http://www.w3.org/2000/svg" xmlns:xlink="http://www.w3.org/1999/xlink">
    <!-- Generator: Sketch 61.2 (89653) - https://sketch.com -->
    <title>Running Azure for SAP Workloads/Implementing-Azure-VM-based-SAP-Solutions</title>
    <desc>Created with Sketch.</desc>
    <defs>
        <rect id="path-1" x="0" y="0" width="100" height="100" rx="50"></rect>
        <filter x="-7.0%" y="-6.6%" width="114.0%" height="113.1%" filterUnits="objectBoundingBox" id="filter-3">
            <feOffset dx="0" dy="2" in="SourceAlpha" result="shadowOffsetOuter1"></feOffset>
            <feColorMatrix values="0 0 0 0 0   0 0 0 0 0   0 0 0 0 0  0 0 0 0.104562953 0" type="matrix" in="shadowOffsetOuter1" result="shadowMatrixOuter1"></feColorMatrix>
            <feMerge>
                <feMergeNode in="shadowMatrixOuter1"></feMergeNode>
                <feMergeNode in="SourceGraphic"></feMergeNode>
            </feMerge>
        </filter>
        <linearGradient x1="78.4210223%" y1="-7.24023438%" x2="15.5786468%" y2="110.793945%" id="linearGradient-4">
            <stop stop-color="#FFFFFF" offset="0%"></stop>
            <stop stop-color="#000000" stop-opacity="0.5" offset="100%"></stop>
        </linearGradient>
        <rect id="path-5" x="-3" y="-3" width="106" height="106" rx="53"></rect>
        <filter x="-0.5%" y="-0.5%" width="101.9%" height="101.9%" filterUnits="objectBoundingBox" id="filter-6">
            <feOffset dx="1" dy="1" in="SourceAlpha" result="shadowOffsetOuter1"></feOffset>
            <feMorphology radius="4" operator="erode" in="SourceAlpha" result="shadowInner"></feMorphology>
            <feOffset dx="1" dy="1" in="shadowInner" result="shadowInner"></feOffset>
            <feComposite in="shadowOffsetOuter1" in2="shadowInner" operator="out" result="shadowOffsetOuter1"></feComposite>
            <feColorMatrix values="0 0 0 0 0   0 0 0 0 0   0 0 0 0 0  0 0 0 0.15 0" type="matrix" in="shadowOffsetOuter1"></feColorMatrix>
        </filter>
    </defs>
    <g id="Badges" stroke="none" stroke-width="1" fill="none" fill-rule="evenodd">
        <g id="Running-Azure-for-SAP-Workloads" transform="translate(-47.000000, -257.000000)">
            <g id="Running-Azure-for-SAP-Workloads/Implementing-Azure-VM-based-SAP-Solutions" transform="translate(50.000000, 260.000000)">
                <g id="Mask" transform="translate(2.000000, 2.000000)">
                    <g id="Circle-" transform="translate(-2.000000, 0.000000)">
                        <mask id="mask-2" fill="white">
                            <use xlink:href="#path-1"></use>
                        </mask>
                        <g id="BG"></g>
                        <g id="Color/Blue" mask="url(#mask-2)" fill="#55A2FF" fill-rule="evenodd">
                            <rect id="Rectangle" x="0" y="0" width="100" height="100"></rect>
                        </g>
                    </g>
                    <g id="Virtual-Machine-Sparkle" transform="translate(17.000000, 15.000000)">
                        <g id="Virtual-Machine" filter="url(#filter-3)" transform="translate(0.500000, 0.500000)">
                            <circle id="Bulb" fill="#30404D" cx="28.5" cy="32" r="25.0559665"></circle>
                            <g id="Right" transform="translate(29.500000, 18.000000)">
                                <path d="M22.9080567,1.14098978 L1.20805669,13.4753871 C0.551408151,13.8486297 0.145785011,14.5457578 0.145785011,15.3010705 L0.145785011,39.8019512 C0.145785011,40.9617491 1.08598704,41.9019512 2.24578501,41.9019512 C2.61749212,41.9019512 2.98253904,41.8032906 3.30364009,41.6160467 L24.5570066,29.222553 C25.4788807,28.6849797 26.045785,27.6981509 26.045785,26.6309879 L26.045785,2.96667319 C26.045785,1.80687522 25.105583,0.866673192 23.945785,0.866673192 C23.5819529,0.866673192 23.2243625,0.961199837 22.9080567,1.14098978 Z" id="Back" fill="#50398A"></path>
                                <path d="M23.8216673,1.67623217 L2.12166726,14.0106295 C1.46501872,14.383872 1.05939558,15.0810002 1.05939558,15.8363129 L1.05939558,40.3371936 C1.05939558,41.4969915 1.99959761,42.4371936 3.15939558,42.4371936 C3.53110269,42.4371936 3.89614961,42.338533 4.21725066,42.1512891 L25.4706171,29.7577953 C26.3924913,29.2202221 26.9593956,28.2333933 26.9593956,27.1662303 L26.9593956,3.50191559 C26.9593956,2.34211761 26.0191936,1.40191559 24.8593956,1.40191559 C24.4955635,1.40191559 24.1379731,1.49644223 23.8216673,1.67623217 Z" id="Front" fill="#6D56A6"></path>
                                <path d="M1.05939558,37.547074 L1.05939558,15.8363129 C1.05939558,15.0810002 1.46501872,14.383872 2.12166726,14.0106295 L15.3080168,6.51543712 L1.05939558,37.547074 L1.05939558,37.547074 Z" id="Shine" fill="#FFFFFF" opacity="0.203348214"></path>
                                <path d="M24.0687454,2.1109187 L2.36874543,14.445316 C1.86844178,14.7296913 1.55939558,15.2608365 1.55939558,15.8363129 L1.55939558,40.3371936 C1.55939558,41.2208492 2.27573998,41.9371936 3.15939558,41.9371936 C3.442601,41.9371936 3.72073198,41.8620236 3.96538041,41.7193616 L25.2187469,29.3258678 C25.9869753,28.8778901 26.4593956,28.0555328 26.4593956,27.1662303 L26.4593956,3.50191559 C26.4593956,2.61825999 25.7430512,1.90191559 24.8593956,1.90191559 C24.5821902,1.90191559 24.3097403,1.97393589 24.0687454,2.1109187 Z" id="Rim" stroke="#6D57A4"></path>
                            </g>
                            <g id="Left" transform="translate(0.500000, 18.000000)">
                                <path d="M1.32763913,2.96703699 L1.32763913,26.6107383 C1.32763913,27.677229 1.89383529,28.6635416 2.81479129,29.2013543 L24.2192139,41.7009429 C25.1730524,42.2579581 26.3978413,41.9362693 26.9548565,40.9824308 C27.1335907,40.6763645 27.2277791,40.3282981 27.2277791,39.9738656 L27.2277791,15.3014472 C27.2277791,14.5461327 26.8221541,13.8490033 26.1655032,13.4757614 L4.46536321,1.14135116 C3.45706477,0.568231977 2.17507249,0.921014466 1.6019533,1.9293129 C1.42216491,2.24561771 1.32763913,2.60320654 1.32763913,2.96703699 Z" id="Back" fill="#684DAB"></path>
                                <path d="M0.359395581,3.52378095 L0.359395581,27.1674822 C0.359395581,28.233973 0.925591741,29.2202855 1.84654774,29.7580983 L23.2509704,42.2576869 C24.2048088,42.8147021 25.4295977,42.4930132 25.9866129,41.5391747 C26.1653471,41.2331085 26.2595356,40.8850421 26.2595356,40.5306095 L26.2595356,15.8581911 C26.2595356,15.1028767 25.8539106,14.4057472 25.1972597,14.0325053 L3.49711966,1.69809512 C2.48882122,1.12497594 1.20682894,1.47775843 0.633709756,2.48605686 C0.453921367,2.80236167 0.359395581,3.1599505 0.359395581,3.52378095 Z" id="Front" fill="#8066C0"></path>
                                <path d="M15.5155971,8.52942574 L4.93895254,31.5639768 L1.84654774,29.7580983 C0.925591741,29.2202855 0.359395581,28.233973 0.359395581,27.1674822 L0.359395581,3.52378095 C0.359395581,3.1599505 0.453921367,2.80236167 0.633709756,2.48605686 C1.20682894,1.47775843 2.48882122,1.12497594 3.49711966,1.69809512 L15.5155971,8.52942574 L15.5155971,8.52942574 Z" id="Shine" fill="#FFFFFF" opacity="0.196595982"></path>
                                <path d="M0.859395581,3.52378095 L0.859395581,27.1674822 C0.859395581,28.0562245 1.33122571,28.8781517 2.09868905,29.3263289 L23.5031117,41.8259175 C24.2184905,42.2436789 25.1370822,42.0024123 25.5548436,41.2870334 C25.6888942,41.0574837 25.7595356,40.796434 25.7595356,40.5306095 L25.7595356,15.8581911 C25.7595356,15.2827135 25.450488,14.7515672 24.9501825,14.4671924 L3.2500425,2.13278222 C2.48181512,1.69611999 1.50505909,1.96490665 1.06839686,2.73313403 C0.931415228,2.97412816 0.859395581,3.2465768 0.859395581,3.52378095 Z" id="Rim" stroke="#8066C0"></path>
                            </g>
                            <g id="Top" transform="translate(4.000000, 0.000000)">
                                <path d="M0.93364064,16.6891738 L23.2751112,29.398835 C24.1332166,29.8869958 25.1849822,29.8871852 26.0432634,29.3993335 L48.3930191,16.6956116 C49.0652172,16.3135306 49.3004036,15.4588685 48.9183225,14.7866704 C48.7914106,14.5633932 48.605526,14.3793285 48.3810109,14.2546194 L25.5045087,1.54763878 C24.8976269,1.21054028 24.1593463,1.21226287 23.5540443,1.55218967 L0.940383444,14.2516165 C0.266218156,14.6302156 0.0266144588,15.4836498 0.405213608,16.1578151 C0.529798885,16.3796621 0.712486333,16.563363 0.93364064,16.6891738 Z" id="Back" fill="#7454B8"></path>
                                <path d="M0.93364064,15.6891738 L23.2751112,28.398835 C24.1332166,28.8869958 25.1849822,28.8871852 26.0432634,28.3993335 L48.3930191,15.6956116 C49.0652172,15.3135306 49.3004036,14.4588685 48.9183225,13.7866704 C48.7914106,13.5633932 48.605526,13.3793285 48.3810109,13.2546194 L25.5045087,0.547638778 C24.8976269,0.210540284 24.1593463,0.212262866 23.5540443,0.552189669 L0.940383444,13.2516165 C0.266218156,13.6302156 0.0266144588,14.4836498 0.405213608,15.1578151 C0.529798885,15.3796621 0.712486333,15.563363 0.93364064,15.6891738 Z" id="Front" fill="#A684D3"></path>
                                <path d="M26.9219223,27.8998991 L36.8017982,6.82283057 L48.3810109,13.2546194 C48.605526,13.3793285 48.7914106,13.5633932 48.9183225,13.7866704 C49.3004036,14.4588685 49.0652172,15.3135306 48.3930191,15.6956116 L26.9219223,27.8998991 Z" id="Shine-2" fill="#FFFFFF" opacity="0.198158488"></path>
                                <polygon id="Shine-1" fill="#FFFFFF" opacity="0.195870536" points="28.0742151 1.97500778 33.6281316 5.05998592 22.8116376 28.1351732 17.2853078 24.9913434 28.0742151 1.97500778"></polygon>
                                <path d="M1.18087536,15.2545762 L23.5223459,27.9642375 C24.2272182,28.3652267 25.0911686,28.3653823 25.7961852,27.964647 L48.145941,15.260925 C48.5780683,15.0153015 48.7292595,14.4658759 48.483636,14.0337486 C48.4020497,13.8902132 48.2825525,13.7718859 48.1382214,13.6917158 L25.2617191,0.984735157 C24.8065578,0.731911286 24.2528474,0.733203222 23.7988708,0.988148325 L1.18521002,13.6875752 C0.751818045,13.9309603 0.597787097,14.4795966 0.841172264,14.9129886 C0.921262799,15.0556045 1.03870473,15.1736979 1.18087536,15.2545762 Z" id="Rim" stroke="#A684D3"></path>
                            </g>
                        </g>
                    </g>
                    <path d="M46.5764212,40.921875 C52.5392649,40.921875 57.7116354,36.0144961 58.1292341,29.9609375 C58.5468328,23.9073789 53.3744623,19 46.5764212,19 C39.7783801,19 34.6060096,23.9073789 35.0236084,29.9609375 C35.4412071,36.0144961 40.6135776,40.921875 46.5764212,40.921875 Z" id="Oval" fill="#FFFFFF"></path>
                    <g id="SAP" transform="translate(38.000000, 22.000000)">
                        <path d="M9.21886906,2.12638979 C8.18756757,4.99133592 20.3726173,4.61722424 17.259413,6.33783659 C14.1462088,8.05844894 4.13499823,8.42970219 1.17590457,10.4654423 C-0.796824544,11.8226023 1.07354525,12.3051195 6.78701394,11.9129939" id="Path-3" stroke="#C5CCCD" stroke-width="1.4" stroke-linecap="round" stroke-linejoin="round"></path>
                        <g id="Group-4" transform="translate(2.236419, 6.337837)">
                            <path d="M10.449708,0 L0.336918812,0 C0.150846591,0 0,0.151015135 0,0.337087355 L0,6.7417471 C0,6.92781932 0.150846591,7.07883446 0.336918812,7.07883446 L1.68526823,7.07883446 L1.68526823,9.10135859 C1.68526823,9.23771043 1.76751755,9.36057877 1.89341967,9.41282731 C1.93504996,9.43001876 1.97887132,9.43844595 2.02235559,9.43844595 C2.11016684,9.43844595 2.19629266,9.40423158 2.26084489,9.33967935 L4.52168978,7.07883446 L10.449708,7.07883446 C10.6357802,7.07883446 10.7867954,6.92781932 10.7867954,6.7417471 L10.7867954,0.337087355 C10.7867954,0.151015135 10.6357802,0 10.449708,0" id="Fill-84" fill="#F7CB64"></path>
                            <path d="M7.75300917,3.20232987 L3.0337862,3.20232987 C2.84771398,3.20232987 2.6965303,3.35334501 2.6965303,3.53941723 C2.6965303,3.72548945 2.84771398,3.87650458 3.0337862,3.87650458 L7.75300917,3.87650458 C7.93924993,3.87650458 8.09009653,3.72548945 8.09009653,3.53941723 C8.09009653,3.35334501 7.93924993,3.20232987 7.75300917,3.20232987" id="Fill-85" fill="#EFB252"></path>
                            <path d="M7.75300917,1.85398045 L3.0337862,1.85398045 C2.84771398,1.85398045 2.6965303,2.00499559 2.6965303,2.19106781 C2.6965303,2.37714003 2.84771398,2.52815516 3.0337862,2.52815516 L7.75300917,2.52815516 C7.93924993,2.52815516 8.09009653,2.37714003 8.09009653,2.19106781 C8.09009653,2.00499559 7.93924993,1.85398045 7.75300917,1.85398045" id="Fill-86" fill="#EFB252"></path>
                            <path d="M6.06757239,4.5506793 L3.0337862,4.5506793 C2.84771398,4.5506793 2.6965303,4.70169443 2.6965303,4.88776665 C2.6965303,5.07383887 2.84771398,5.22485401 3.0337862,5.22485401 L6.06757239,5.22485401 C6.25381316,5.22485401 6.40465975,5.07383887 6.40465975,4.88776665 C6.40465975,4.70169443 6.25381316,4.5506793 6.06757239,4.5506793" id="Fill-87" fill="#EFB252"></path>
                        </g>
                        <g id="User" transform="translate(8.604527, 2.126390)">
                            <path d="M4.08354932,8.16709865 C6.33511633,8.16709865 8.16709865,6.33511633 8.16709865,4.08354932 C8.16709865,1.8318547 6.33511633,0 4.08354932,0 C1.8318547,0 0,1.8318547 0,4.08354932 C0,6.33511633 1.8318547,8.16709865 4.08354932,8.16709865" id="Fill-115" fill="#0078D4"></path>
                            <path d="M4.08354937,4.39755247 C4.95083711,4.39755247 5.65431923,3.69444731 5.65431923,2.82715957 C5.65431923,1.9595043 4.95084654,1.25638971 4.08354937,1.25638971 C3.21625221,1.25638971 2.51277952,1.95949487 2.51277952,2.82715957 C2.51277952,3.69444731 3.21625221,4.39755247 4.08354937,4.39755247 Z" id="Path" fill="#FFFFFE"></path>
                            <path d="M1.12831948,5.87521453 C1.73424574,6.87244795 2.83121192,7.53909218 4.08354937,7.53909218 C5.33588682,7.53909218 6.43291897,6.8724291 7.03877927,5.87521453 C7.0350983,5.84760543 7.02442295,5.82073328 7.00564873,5.79754115 C6.61838441,5.31346547 6.00549391,5.02596219 5.18307319,5.02596219 L2.98392,5.02596219 C2.16153698,5.02596219 1.54866533,5.31346547 1.16134447,5.79754115 C1.14257025,5.82073234 1.13189489,5.84760543 1.12821393,5.87521453 L1.12831948,5.87521453 Z" id="Path" fill="#FFFFFE"></path>
                        </g>
                        <path d="M17.259413,6.33783659 C15.6052773,7.25204784 12.0037619,7.78532083 8.54738192,8.38973175 C5.49860238,8.92286632 2.56274593,9.51134995 1.17590457,10.4654423" id="Path-3" stroke="#BFC6C7" stroke-width="1.74" stroke-linecap="round" stroke-linejoin="round"></path>
                        <path d="M9.83710846,2.12638979 C9.83710846,2.62878803 9.42977697,3.03611952 8.92737873,3.03611952 C8.42498048,3.03611952 8.017649,2.62878803 8.017649,2.12638979 C8.017649,1.62399154 8.42498048,1.21666006 8.92737873,1.21666006 C9.42977697,1.21666006 9.83710846,1.62399154 9.83710846,2.12638979" id="Fill-102" fill="#546670"></path>
                        <path d="M9.83710846,2.12638979 C9.83710846,1.62399154 9.42977697,1.21666006 8.92737873,1.21666006 L8.92737873,3.03611952 C9.42977697,3.03611952 9.83710846,2.62878803 9.83710846,2.12638979" id="Fill-106" fill="#30404D"></path>
                        <g id="Gear" transform="translate(0.000000, 0.015215)">
                            <path d="M5.26873989,4.01418243 C5.26873989,4.70587624 4.70587624,5.26861444 4.01430788,5.26861444 C3.32261407,5.26861444 2.75987587,4.70587624 2.75987587,4.01418243 C2.75987587,3.32248862 3.32261407,2.75975042 4.01430788,2.75975042 C4.70587624,2.75975042 5.26873989,3.32248862 5.26873989,4.01418243 Z M7.58705568,3.33854535 L7.0037448,3.20883708 C6.95595094,3.19829985 6.88156312,3.13056052 6.86663538,3.08389565 C6.86475373,3.07749805 6.86237031,3.07122589 6.859736,3.06507917 L6.69879238,2.67394727 C6.69603263,2.66717334 6.69289655,2.66039941 6.68950958,2.65387636 C6.6669298,2.61059846 6.67132032,2.51087111 6.69753795,2.46985118 L7.01842165,1.96556952 C7.15452753,1.75168886 7.12065786,1.4437258 6.94152497,1.26446747 L6.76402284,1.08696534 C6.58902958,0.911846628 6.27228549,0.876847975 6.06292079,1.01006865 L5.55851368,1.33082692 C5.54170429,1.34174048 5.5019388,1.3534067 5.45477215,1.3534067 C5.41613565,1.3534067 5.38740915,1.34562922 5.37461395,1.33898073 C5.36821634,1.33546832 5.36131697,1.33245768 5.35441759,1.32969793 L4.96341113,1.16862886 C4.95726442,1.16612 4.95099226,1.16373658 4.94459465,1.16185493 C4.89805523,1.14692719 4.83019046,1.07253937 4.81965323,1.02462007 L4.6900704,0.441434624 C4.63500083,0.193935189 4.39327179,0 4.13975108,0 L3.88886467,0 C3.63521852,0 3.39361492,0.193935189 3.33867079,0.441309181 L3.20896253,1.02487095 C3.19829985,1.07253937 3.13056052,1.14692719 3.0840211,1.16185493 C3.07762349,1.16373658 3.07135133,1.16612 3.06507917,1.16862886 L2.67407272,1.32969793 C2.66717334,1.33245768 2.66039941,1.33546832 2.65387636,1.33898073 C2.6412066,1.34562922 2.6124801,1.3534067 2.57371816,1.3534067 C2.52655151,1.3534067 2.48678602,1.34161503 2.46985118,1.33082692 L1.96569496,1.0101941 C1.75633026,0.876973418 1.43946073,0.912097515 1.26459291,1.08709078 L1.08709078,1.26446747 C0.907832446,1.44385124 0.874088225,1.7518143 1.0101941,1.96569496 L1.33107781,2.46985118 C1.35716999,2.51099655 1.3615605,2.61047301 1.33910617,2.65375092 C1.3357192,2.66039941 1.33245768,2.66717334 1.32969793,2.67394727 L1.1687543,3.06507917 C1.16624544,3.07122589 1.16386202,3.07749805 1.16185493,3.08389565 C1.14692719,3.13056052 1.07266481,3.19829985 1.02474551,3.20896253 L0.441560068,3.33841991 C0.194060632,3.39348947 0.000125443201,3.63509308 0.000125443201,3.88873923 L0.000125443201,4.13962563 C0.000125443201,4.39314634 0.194060632,4.63487539 0.441434624,4.68981951 L1.02487095,4.81940234 C1.07266481,4.83006501 1.14692719,4.89780434 1.16185493,4.94446921 C1.16386202,4.95086681 1.16624544,4.95713897 1.1687543,4.96328569 L1.32969793,5.35441759 C1.33245768,5.36119152 1.33559376,5.36784001 1.33910617,5.3744885 C1.3615605,5.41764097 1.35716999,5.51736831 1.33095236,5.55851368 L1.0101941,6.0626699 C0.873962781,6.27655056 0.907832446,6.58463906 1.08709078,6.7638974 L1.26459291,6.94139953 C1.43933529,7.11601646 1.75582848,7.15164233 1.9658204,7.01829621 L2.46972574,6.69753795 C2.48678602,6.68662439 2.52655151,6.67495817 2.57371816,6.67495817 C2.6124801,6.67495817 2.6412066,6.6826102 2.65387636,6.68938414 C2.66052485,6.69264566 2.66717334,6.69590718 2.67407272,6.69866693 L3.06507917,6.859736 C3.07135133,6.86224487 3.07762349,6.86450285 3.0840211,6.86650994 C3.13056052,6.88143768 3.19829985,6.9558255 3.20896253,7.00361936 L3.33867079,7.58693024 C3.39361492,7.83442968 3.63521852,8.02836486 3.88886467,8.02836486 L4.13975108,8.02836486 C4.39327179,8.02836486 4.63487539,7.83442968 4.68994496,7.58693024 L4.81965323,7.00361936 C4.83019046,6.9558255 4.89805523,6.88143768 4.94459465,6.86650994 C4.95099226,6.86450285 4.95726442,6.86224487 4.96341113,6.859736 L5.35441759,6.69866693 C5.36131697,6.69590718 5.3680909,6.69264566 5.37461395,6.68938414 C5.38740915,6.6826102 5.41613565,6.67495817 5.45464671,6.67495817 C5.50181335,6.67495817 5.54170429,6.68662439 5.55851368,6.69753795 L6.06279535,7.01817077 C6.27203461,7.15164233 6.58902958,7.11626735 6.76402284,6.94139953 L6.94139953,6.76402284 C7.12065786,6.58476451 7.15452753,6.27667601 7.01842165,6.0626699 L6.69753795,5.55851368 C6.67132032,5.51736831 6.6669298,5.41776641 6.68950958,5.37461395 C6.69289655,5.36796546 6.69603263,5.36131697 6.69879238,5.35454304 L6.859736,4.96328569 C6.86237031,4.95713897 6.86475373,4.95086681 6.86663538,4.94446921 C6.88156312,4.89780434 6.95595094,4.83006501 7.00387024,4.81940234 L7.58693024,4.68981951 C7.83455512,4.63487539 8.02849031,4.39314634 8.02849031,4.13962563 L8.02849031,3.88873923 C8.02849031,3.63509308 7.83455512,3.39348947 7.58705568,3.33854535 L7.58705568,3.33854535 Z" id="Fill-376" fill="#CDDADF"></path>
                            <path d="M1.9658204,7.01829621 L2.46972574,6.69753795 C2.48678602,6.68662439 2.52655151,6.67495817 2.57371816,6.67495817 C2.6124801,6.67495817 2.6412066,6.6826102 2.65387636,6.68938414 C2.66052485,6.69264566 2.66717334,6.69590718 2.67407272,6.69866693 L3.06507917,6.859736 C3.07135133,6.86224487 3.07762349,6.86450285 3.0840211,6.86650994 C3.13056052,6.88143768 3.19829985,6.9558255 3.20896253,7.00361936 L3.33867079,7.58693024 C3.39361492,7.83442968 3.63521852,8.02836486 3.88886467,8.02836486 L4.13975108,8.02836486 C4.39327179,8.02836486 4.63487539,7.83442968 4.68994496,7.58693024 L4.81965323,7.00361936 C4.83019046,6.9558255 4.89805523,6.88143768 4.94459465,6.86650994 C4.95099226,6.86450285 4.95726442,6.86224487 4.96341113,6.859736 L5.35441759,6.69866693 C5.36131697,6.69590718 5.3680909,6.69264566 5.37461395,6.68938414 C5.38740915,6.6826102 5.41613565,6.67495817 5.45464671,6.67495817 C5.50181335,6.67495817 5.54170429,6.68662439 5.55851368,6.69753795 L6.06279535,7.01817077 C6.27203461,7.15164233 6.58902958,7.11626735 6.76402284,6.94139953 L6.94139953,6.76402284 C7.12065786,6.58476451 7.15452753,6.27667601 7.01842165,6.0626699 L6.69753795,5.55851368 C6.67132032,5.51736831 6.6669298,5.41776641 6.68950958,5.37461395 C6.69289655,5.36796546 6.69603263,5.36131697 6.69879238,5.35454304 L6.859736,4.96328569 C6.86237031,4.95713897 6.86475373,4.95086681 6.86663538,4.94446921 C6.88156312,4.89780434 6.95595094,4.83006501 7.00387024,4.81940234 L7.58693024,4.68981951 C7.83455512,4.63487539 8.02849031,4.39314634 8.02849031,4.13962563 L8.02849031,3.88873923 C8.02849031,3.63509308 7.83455512,3.39348947 7.58705568,3.33854535 L7.0037448,3.20883708 C6.95595094,3.19829985 6.88156312,3.13056052 6.86663538,3.08389565 C6.86475373,3.07749805 6.86237031,3.07122589 6.859736,3.06507917 L6.69879238,2.67394727 C6.69603263,2.66717334 6.69289655,2.66039941 6.68950958,2.65387636 C6.6669298,2.61059846 6.67132032,2.51087111 6.69753795,2.46985118 L7.01842165,1.96556952 C7.15452753,1.75168886 7.12065786,1.4437258 6.94152497,1.26446747 L6.85271118,1.17565368 L4.90081498,3.12754989 C5.12799261,3.35472752 5.26873989,3.66833553 5.26873989,4.01418243 C5.26873989,4.70587624 4.70587624,5.26861444 4.01430788,5.26861444 C3.66846097,5.26861444 3.35485297,5.12786717 3.12767533,4.90081498 L1.17590457,6.85258574 L1.26459291,6.94139953 C1.43933529,7.11601646 1.75582848,7.15164233 1.9658204,7.01829621" id="Fill-377" fill="#B0C5CD"></path>
                            <path d="M4.01430788,5.26861444 C3.32148508,5.26861444 2.75987587,4.70700523 2.75987587,4.01418243 C2.75987587,3.32135963 3.32148508,2.75975042 4.01430788,2.75975042 C4.70713067,2.75975042 5.26873989,3.32135963 5.26873989,4.01418243 C5.26873989,4.70700523 4.70713067,5.26861444 4.01430788,5.26861444 Z M4.01430788,2.25797762 C3.04438105,2.25797762 2.25810306,3.0442556 2.25810306,4.01418243 C2.25810306,4.98410926 3.04438105,5.77038725 4.01430788,5.77038725 C4.98423471,5.77038725 5.77051269,4.98410926 5.77051269,4.01418243 C5.77051269,3.0442556 4.98423471,2.25797762 4.01430788,2.25797762 L4.01430788,2.25797762 Z" id="Fill-378" fill="#B0C5CD"></path>
                            <path d="M5.26873989,4.01418243 C5.26873989,4.70700523 4.70713067,5.26861444 4.01430788,5.26861444 C3.66783375,5.26861444 3.35422575,5.1282435 3.127299,4.90119131 L2.77242019,5.25594468 C3.09029326,5.57381775 3.52934446,5.77038725 4.01430788,5.77038725 C4.98423471,5.77038725 5.77051269,4.98410926 5.77051269,4.01418243 C5.77051269,3.52921902 5.57394319,3.09016781 5.25619557,2.77229474 L4.90131675,3.12717356 C5.12836894,3.35410031 5.26873989,3.66770831 5.26873989,4.01418243" id="Fill-379" fill="#CDDADF"></path>
                        </g>
                    </g>
                </g>
                <g id="Azure-Border">
                    <path d="M50,0 C74.5263677,-4.50542066e-15 94.9281966,17.6592499 99.1842495,40.9565123 L94.2027317,73.3905473 C85.8096395,89.2186645 69.1638777,100 50,100 C30.9551233,100 14.3971863,89.3521454 5.95457608,73.6848234 L0.0261464987,48.3675131 C0.887696267,21.508872 22.932015,4.97230817e-15 50,0 Z" id="Combined-Shape" fill="url(#linearGradient-4)" fill-rule="evenodd" opacity="0.400000006" style="mix-blend-mode: overlay;"></path>
                    <g>
                        <use fill="black" fill-opacity="1" filter="url(#filter-6)" xlink:href="#path-5"></use>
                        <rect stroke="#F2F1F0" stroke-width="4" stroke-linejoin="square" x="-1" y="-1" width="102" height="102" rx="51"></rect>
                    </g>
                    <rect stroke="#0078D4" stroke-width="4" x="2" y="2" width="96" height="96" rx="48"></rect>
                </g>
            </g>
        </g>
    </g>
</svg>