<svg width="103" height="103" viewBox="0 0 103 103" fill="none" xmlns="http://www.w3.org/2000/svg">
<path d="M51.4695 98.211C77.3219 98.211 98.2754 77.2574 98.2754 51.405C98.2754 25.5527 77.3219 4.59912 51.4695 4.59912C25.6171 4.59912 4.66357 25.5527 4.66357 51.405C4.66357 77.2574 25.6171 98.211 51.4695 98.211Z" fill="url(#paint0_linear)"/>
<path fill-rule="evenodd" clip-rule="evenodd" d="M51.4695 1.40503C23.8561 1.40503 1.46948 23.7917 1.46948 51.405C1.46948 79.0184 23.8561 101.405 51.4695 101.405C79.0828 101.405 101.469 79.0184 101.469 51.405C101.469 23.7917 79.0828 1.40503 51.4695 1.40503ZM51.4695 97.1619C26.1978 97.1619 5.71264 76.6767 5.71264 51.405C5.71264 26.1334 26.1978 5.64819 51.4695 5.64819C76.7411 5.64819 97.2263 26.1334 97.2263 51.405C97.2263 76.6767 76.7411 97.1619 51.4695 97.1619Z" fill="#D9D9D9"/>
<path fill-rule="evenodd" clip-rule="evenodd" d="M5.57216 51.4048C5.57216 76.7514 26.1229 97.3021 51.4695 97.3021C76.8161 97.3021 97.3668 76.7514 97.3668 51.4048C97.3668 26.0582 76.8161 5.50746 51.4695 5.50746C26.1229 5.50746 5.57216 26.0582 5.57216 51.4048ZM51.4695 1.76074C24.0529 1.76074 1.82544 23.9882 1.82544 51.4048C1.82544 78.8214 24.0529 101.049 51.4695 101.049C78.8861 101.049 101.114 78.8214 101.114 51.4048C101.114 23.9882 78.8861 1.76074 51.4695 1.76074Z" fill="#F2F1F0"/>
<path fill-rule="evenodd" clip-rule="evenodd" d="M8.38216 51.4048C8.38216 75.2059 27.6684 94.4921 51.4695 94.4921C75.2705 94.4921 94.5568 75.2059 94.5568 51.4048C94.5568 27.6038 75.2705 8.31752 51.4695 8.31752C27.6684 8.31752 8.38216 27.6038 8.38216 51.4048ZM51.4695 4.5708C25.6077 4.5708 4.63544 25.5431 4.63544 51.4048C4.63544 77.2666 25.6077 98.2388 51.4695 98.2388C77.3312 98.2388 98.3035 77.2666 98.3035 51.4048C98.3035 25.5431 77.3406 4.5708 51.4695 4.5708Z" fill="#0078D4"/>
<path d="M72.5916 45.251H63.4777V72.6208H72.601V45.251H72.5916Z" fill="#50E6FF"/>
<path d="M49.7928 14.8464C33.8411 14.8464 20.9056 27.782 20.9056 43.7337H26.9846C26.9846 37.6452 29.3544 31.9128 33.6632 27.604C37.9719 23.2953 43.695 20.9255 49.7928 20.9255C55.8906 20.9255 61.6137 23.2953 65.9224 27.604C70.2312 31.9128 72.601 37.6359 72.601 43.7337H78.68C78.68 27.782 65.7445 14.8464 49.7928 14.8464Z" fill="#50E6FF"/>
<path d="M63.4777 30.0488H36.1079V72.6209H63.4777V30.0488Z" fill="#0078D4"/>
<path d="M46.7485 46.7781H28.502V71.1037H46.7485V46.7781Z" fill="white"/>
<path d="M45.2312 48.2952V69.5859H30.0195V48.2952H45.2312ZM48.266 45.251H26.9846V72.6208H48.2754V45.251H48.266Z" fill="#50E6FF"/>
<path d="M42.187 51.3396H33.0637V54.3838H42.187V51.3396Z" fill="#50E6FF"/>
<path d="M42.187 57.4185H33.0637V60.4627H42.187V57.4185Z" fill="#50E6FF"/>
<path d="M42.187 63.4976H33.0637V66.5418H42.187V63.4976Z" fill="#50E6FF"/>
<path d="M48.266 36.1372H42.187V42.2163H48.266V36.1372Z" fill="white"/>
<path d="M57.3892 36.1372H51.3102V42.2163H57.3892V36.1372Z" fill="white"/>
<path d="M57.3892 45.251H51.3102V51.33H57.3892V45.251Z" fill="white"/>
<path d="M57.3892 54.3743H51.3102V60.4533H57.3892V54.3743Z" fill="white"/>
<path d="M57.3892 63.4976H51.3102V69.5766H57.3892V63.4976Z" fill="white"/>
<path d="M72.5916 66.5418C74.2682 66.5418 75.6358 65.1836 75.6358 63.4976C75.6358 61.8209 74.2776 60.4534 72.5916 60.4534C70.9149 60.4534 69.5474 61.8116 69.5474 63.4976C69.5567 65.1836 70.9149 66.5418 72.5916 66.5418Z" fill="white"/>
<path d="M77.1626 63.5072C77.1626 60.9969 75.1112 58.9456 72.6009 58.9456C70.0906 58.9456 68.0393 60.9969 68.0393 63.5072C68.0393 65.493 69.3038 67.179 71.0835 67.8066V72.6305H74.1277V67.8066C75.8887 67.1696 77.1626 65.4836 77.1626 63.5072ZM72.6009 65.0246C71.7579 65.0246 71.0835 64.3408 71.0835 63.5072C71.0835 62.6642 71.7673 61.9898 72.6009 61.9898C73.4346 61.9898 74.1184 62.6735 74.1184 63.5072C74.1184 64.3408 73.4346 65.0246 72.6009 65.0246Z" fill="#0078D4"/>
<path fill-rule="evenodd" clip-rule="evenodd" d="M62.7284 93.0498L34.2252 88.6661V68.0404L62.7284 63.6567V93.0498Z" fill="url(#paint1_linear)"/>
<path fill-rule="evenodd" clip-rule="evenodd" d="M46.8892 78.1658H60.9206V65.7173L46.8892 67.703V78.1658V78.1658Z" fill="#00ADEF"/>
<path fill-rule="evenodd" clip-rule="evenodd" d="M46.3365 78.1938V67.7217L35.4617 69.2297V78.1938H46.3365V78.1938Z" fill="#00ADEF"/>
<path fill-rule="evenodd" clip-rule="evenodd" d="M46.3365 78.606H35.4617V87.57L46.3365 89.078V78.606Z" fill="#00ADEF"/>
<path fill-rule="evenodd" clip-rule="evenodd" d="M46.8892 78.606V89.1998L60.9206 91.1856V78.606H46.8892Z" fill="#00ADEF"/>
<defs>
<linearGradient id="paint0_linear" x1="13.018" y1="10.5413" x2="228.882" y2="239.947" gradientUnits="userSpaceOnUse">
<stop stop-color="#007ED8"/>
<stop offset="0.7065" stop-color="#002D4C"/>
</linearGradient>
<linearGradient id="paint1_linear" x1="69.689" y1="79.4754" x2="24.3742" y2="72.3949" gradientUnits="userSpaceOnUse">
<stop stop-color="#007ED8"/>
<stop offset="0.7065" stop-color="#002D4C"/>
</linearGradient>
</defs>
</svg>
