<svg width="181" height="191" viewBox="0 0 181 191" fill="none" xmlns="http://www.w3.org/2000/svg">
<path d="M90.3795 189.584C93.4395 189.584 96.4495 188.734 99.1095 187.114L161.079 149.454C166.619 146.084 170.049 139.754 170.049 132.914V58.2036C170.049 51.3836 166.619 45.0436 161.079 41.6636L99.1095 4.00356C93.7795 0.763561 86.9595 0.783561 81.6595 4.00356L19.6895 41.6836C14.1495 45.0536 10.6995 51.3836 10.6995 58.2236V132.924C10.6995 138.684 13.1495 144.104 17.2495 147.674V147.704L81.6595 187.134C84.2995 188.734 87.3195 189.584 90.3795 189.584ZM91.0295 8.53356C92.9795 8.53356 95.4595 9.74356 97.1695 10.7936L157.929 47.9836C161.679 50.2636 163.799 56.8636 163.799 61.6136L163.169 132.914C163.169 137.664 159.969 141.934 156.219 144.214L95.8195 180.594C92.3895 182.684 89.5995 182.684 86.1595 180.594L24.9495 144.124C21.1995 141.844 18.1795 137.644 18.1795 132.914V59.2736C18.1795 54.5336 20.9095 49.6436 24.6795 47.3536L85.2595 10.7936C86.9595 9.75356 89.0795 8.53356 91.0295 8.53356Z" fill="#F2F1F0"/>
<path fill-rule="evenodd" clip-rule="evenodd" d="M98.2795 12.1136C95.8295 10.6136 93.1095 9.86356 90.3795 9.86356C87.6495 9.86356 84.9295 10.6236 82.4795 12.1136L26.3495 46.4436C21.3295 49.5136 18.2195 55.2636 18.2195 61.5136V129.614C18.2195 135.844 21.3195 141.614 26.3495 144.684L82.4795 179.014C84.9295 180.514 87.6495 181.264 90.3795 181.264C93.1095 181.264 95.8295 180.524 98.2795 179.014L154.409 144.684C159.429 141.614 162.539 135.844 162.539 129.614V61.5136C162.539 55.2836 159.439 49.5336 154.409 46.4436L98.2795 12.1136Z" fill="url(#paint0_linear)"/>
<path fill-rule="evenodd" clip-rule="evenodd" d="M90.3795 11.3336C92.0595 11.3336 93.9495 12.2036 96.0095 13.4536L154.479 48.9936C158.129 51.2136 160.539 55.4836 160.539 60.3136V130.794C160.539 135.614 158.129 139.894 154.479 142.114L96.0195 177.654C94.0595 178.844 92.1395 179.594 90.3895 179.594C88.6395 179.594 86.7195 178.844 84.7595 177.654L26.2795 142.124C24.2695 140.894 22.8195 139.694 21.8395 138.084C20.8595 136.484 20.2195 134.264 20.2195 130.804V60.3236C20.2195 55.4936 22.6295 51.2236 26.2795 49.0036L84.7395 13.4636C86.8295 12.2136 88.6895 11.3336 90.3795 11.3336ZM98.0895 10.0436C95.9795 8.76356 93.2695 7.33356 90.3795 7.33356C87.4795 7.33356 84.7695 8.77356 82.6795 10.0336H82.6695L24.1995 45.5836C19.2795 48.5736 16.2195 54.1936 16.2195 60.3236V130.804C16.2195 134.764 16.9595 137.754 18.4195 140.164C19.8795 142.564 21.9395 144.164 24.1995 145.534L82.6595 181.074C84.8795 182.424 87.5495 183.604 90.3695 183.604C93.1895 183.604 95.8595 182.424 98.0795 181.074L98.0895 10.0436ZM98.0895 181.084L156.549 145.544C161.469 142.554 164.529 136.934 164.529 130.804V60.3236C164.529 54.1936 161.469 48.5736 156.549 45.5836L98.0895 10.0436" fill="#0078D4"/>
<path opacity="0.75" d="M27.0693 139.164L88.5793 102.574L151.789 139.054L90.2193 175.534L27.0693 139.164Z" stroke="url(#paint1_linear)" stroke-width="0.86" stroke-miterlimit="10" stroke-linejoin="round"/>
<path opacity="0.75" d="M32.9792 139.054L88.6892 106.024L145.879 139.054L90.1192 172.134L32.9792 139.054Z" stroke="url(#paint2_linear)" stroke-width="0.86" stroke-miterlimit="10" stroke-linejoin="round"/>
<path opacity="0.75" d="M38.8394 139.054L88.7994 109.424L140.069 139.054L90.1694 168.634L38.8394 139.054Z" stroke="url(#paint3_linear)" stroke-width="0.86" stroke-miterlimit="10" stroke-linejoin="round"/>
<path opacity="0.75" d="M44.7593 139.054L88.9093 112.924L134.149 139.054L89.9993 165.294L44.7593 139.054Z" stroke="url(#paint4_linear)" stroke-width="0.86" stroke-miterlimit="10" stroke-linejoin="round"/>
<path opacity="0.75" d="M50.6694 139.054L89.0094 116.324L128.279 139.054L89.9494 161.784L50.6694 139.054Z" stroke="url(#paint5_linear)" stroke-width="0.86" stroke-miterlimit="10" stroke-linejoin="round"/>
<path opacity="0.75" d="M56.4792 139.054L89.0192 119.774L122.429 139.054L89.8392 158.284L56.4792 139.054Z" stroke="url(#paint6_linear)" stroke-width="0.86" stroke-miterlimit="10" stroke-linejoin="round"/>
<path d="M48.1992 45.9735L53.7892 42.7235C56.2892 41.2735 57.0592 41.2535 59.2592 42.0435L57.6492 45.6735C53.9692 44.3635 50.6892 44.5235 48.1992 45.9735Z" fill="#CDCDD0"/>
<path d="M61.3894 37.1735L66.9794 33.9235C69.4194 32.5035 72.8694 32.7235 76.6794 34.9235C80.4294 37.0835 81.6094 38.0735 84.0394 42.2935L80.6794 48.2535C78.2494 44.0435 74.8494 40.3335 71.0994 38.1735C67.2694 35.9835 63.8294 35.7535 61.3894 37.1735Z" fill="#CDCDD0"/>
<path d="M86.8994 38.9635L92.4894 35.7135C96.9694 33.1035 103.279 33.5235 110.269 37.5635L104.679 40.8135C97.6894 36.7735 91.3794 36.3535 86.8994 38.9635Z" fill="#CDCDD0"/>
<path d="M151.429 127.004L145.839 130.254C148.619 128.634 150.339 125.254 150.359 120.464C150.389 110.584 143.159 98.3435 134.239 93.2035C131.849 91.8235 129.609 91.1235 127.559 90.9735L133.149 87.7235C135.199 87.8735 137.439 88.5735 139.829 89.9535C148.739 95.1035 155.979 107.334 155.949 117.214C155.939 122.014 154.209 125.394 151.429 127.004Z" fill="#CDCDD0"/>
<path d="M104.679 40.8035L110.269 37.5535C123.859 45.3935 134.829 63.9635 134.789 79.0335C134.779 82.4335 134.189 85.3435 133.149 87.7235L127.559 90.9735C128.589 88.5935 129.189 85.6935 129.199 82.2835C129.239 67.2135 118.269 48.6535 104.679 40.8035Z" fill="#CDCDD0"/>
<g opacity="0.8">
<path opacity="0.8" d="M104.679 40.8035C118.269 48.6435 129.239 67.2135 129.199 82.2835C129.189 85.6835 128.599 88.5935 127.559 90.9735C129.609 91.1235 131.849 91.8235 134.239 93.2035C143.149 98.3535 150.389 110.584 150.359 120.464C150.329 130.344 143.049 134.204 134.139 129.054L60.9893 86.8335C51.1493 81.1535 43.1893 67.6935 43.2193 56.7735C43.2493 47.1635 49.4593 42.7335 57.6393 45.6835C57.6393 45.5735 57.6393 45.4135 57.6393 45.3035C57.6593 37.0935 63.6693 33.9035 71.0693 38.1835C74.8193 40.3435 78.2193 44.0435 80.6493 48.2635C83.1293 37.4535 92.9493 34.0335 104.679 40.8035Z" fill="#2E76BC"/>
</g>
<path d="M64.8993 38.3335C66.4393 38.3335 68.2193 38.8935 70.0593 39.9535C73.3493 41.8535 76.5693 45.2535 78.8893 49.2735C79.2593 49.9135 79.9393 50.3035 80.6693 50.3035C80.7693 50.3035 80.8693 50.2935 80.9693 50.2835C81.8093 50.1535 82.4793 49.5335 82.6693 48.7135C84.0493 42.6935 87.8393 39.3735 93.3393 39.3735C96.4593 39.3735 100.029 40.4835 103.669 42.5835C109.939 46.2035 115.849 52.3435 120.299 59.8835C124.739 67.4035 127.179 75.3535 127.159 82.2835C127.149 85.2835 126.659 87.9335 125.689 90.1635C125.429 90.7735 125.469 91.4735 125.819 92.0435C126.159 92.6135 126.759 92.9735 127.419 93.0235C129.249 93.1635 131.209 93.8235 133.229 94.9835C137.239 97.3035 141.029 101.254 143.899 106.104C146.759 110.944 148.329 116.044 148.319 120.464C148.309 125.994 145.789 129.294 141.599 129.294C139.669 129.294 137.449 128.604 135.179 127.284L62.0193 85.0535C57.5593 82.4835 53.3493 78.1035 50.1693 72.7235C46.9993 67.3535 45.2593 61.6935 45.2693 56.7835C45.2893 50.5535 48.1293 46.8335 52.8693 46.8335C54.1393 46.8335 55.5093 47.0935 56.9493 47.6135C57.1793 47.6935 57.4093 47.7335 57.6393 47.7335C58.0593 47.7335 58.4693 47.6035 58.8193 47.3635C59.3693 46.9835 59.6893 46.3535 59.6893 45.6935V45.5035V45.3135C59.6993 43.2035 60.2193 38.3335 64.8993 38.3335ZM64.8993 36.2835C60.6093 36.2835 57.6693 39.5635 57.6493 45.3035C57.6493 45.4135 57.6493 45.5735 57.6493 45.6835C55.9593 45.0735 54.3593 44.7835 52.8793 44.7835C47.1693 44.7835 43.2493 49.1435 43.2293 56.7735C43.1993 67.6835 51.1593 81.1535 60.9993 86.8335L134.149 129.064C136.829 130.614 139.359 131.344 141.599 131.344C146.789 131.344 150.349 127.384 150.369 120.464C150.399 110.584 143.169 98.3435 134.249 93.2035C131.859 91.8235 129.619 91.1235 127.569 90.9735C128.599 88.5935 129.199 85.6935 129.209 82.2835C129.249 67.2135 118.279 48.6535 104.689 40.8035C100.589 38.4435 96.7293 37.3135 93.3393 37.3135C86.9993 37.3135 82.2793 41.2235 80.6693 48.2535C78.2393 44.0435 74.8393 40.3335 71.0893 38.1735C68.8493 36.8935 66.7493 36.2835 64.8993 36.2835Z" fill="white"/>
<path opacity="0.25" d="M99.4793 139.724L83.2793 149.494L52.2793 131.904L68.9993 122.604L99.4793 139.724Z" fill="#1F1D21"/>
<path d="M78.2393 152.514V155.694L96.7093 145.074V141.754L78.2393 152.514Z" fill="#CDCDCF"/>
<path d="M78.2394 152.514V155.694L47.5994 138.434V135.404L78.2394 152.514Z" fill="#F4F2F2"/>
<path d="M78.2394 152.514L96.7094 141.764L66.7494 125.184L47.5994 135.404L78.2394 152.514Z" fill="#F4F2F2"/>
<path d="M78.1892 147.264V151.404L95.8092 141.004V136.724L78.1892 147.264Z" fill="url(#paint7_linear)"/>
<path d="M78.1893 147.264V151.404L48.4993 134.894V129.534L78.1893 147.264Z" fill="url(#paint8_linear)"/>
<path d="M78.1892 146.564V147.704L96.6592 137.084V135.804L78.1892 146.564Z" fill="#EBEAEA"/>
<path d="M78.1893 146.564V147.704L48.0793 130.554V129.564L78.1893 146.564Z" fill="#EBEAEA"/>
<path d="M78.1893 146.564L96.6593 135.814L66.6993 119.234L48.0793 129.564L78.1893 146.564Z" fill="#F4F2F2"/>
<path d="M78.1892 141.584V145.724L95.8092 135.324V131.044L78.1892 141.584Z" fill="url(#paint9_linear)"/>
<path d="M78.1893 141.584V145.724L48.4993 129.204V123.844L78.1893 141.584Z" fill="url(#paint10_linear)"/>
<path d="M78.1892 140.884V142.024L96.6592 131.404V130.124L78.1892 140.884Z" fill="#EBEAEA"/>
<path d="M78.1894 140.884V142.024L48.3894 125.164V124.174L78.1894 140.884Z" fill="#EBEAEA"/>
<path d="M78.1894 140.884L96.6594 130.134L66.6994 113.554L48.3894 124.184L78.1894 140.884Z" fill="#F4F2F2"/>
<path d="M78.1892 135.894V140.034L95.8092 129.634V125.354L78.1892 135.894Z" fill="url(#paint11_linear)"/>
<path d="M78.1893 135.894V140.034L48.4993 123.514V118.144L78.1893 135.894Z" fill="url(#paint12_linear)"/>
<path d="M78.1892 135.194V136.334L96.6592 125.724V124.444L78.1892 135.194Z" fill="#CDCDCF"/>
<path d="M78.1893 135.194V136.334L47.5493 119.084V118.094L78.1893 135.194Z" fill="#F4F2F2"/>
<path d="M78.1893 135.194L96.6593 124.444L66.6993 107.864L47.5493 118.094L78.1893 135.194Z" fill="#F4F2F2"/>
<path d="M78.1892 130.094V134.234L95.8092 123.834V119.554L78.1892 130.094Z" fill="url(#paint13_linear)"/>
<path d="M78.1893 130.094V134.234L48.4993 117.724V112.354L78.1893 130.094Z" fill="url(#paint14_linear)"/>
<path d="M78.1892 129.384V130.524L96.6592 119.914V118.634L78.1892 129.384Z" fill="#EBEAEA"/>
<path d="M78.1894 129.384V130.524L47.8694 113.214V112.234L78.1894 129.384Z" fill="#EBEAEA"/>
<path d="M78.1894 129.384L96.6594 118.634L66.6994 102.064L47.8694 112.244L78.1894 129.384Z" fill="#F4F2F2"/>
<path d="M78.1892 124.434V128.584L95.8092 118.184V113.904L78.1892 124.434Z" fill="url(#paint15_linear)"/>
<path d="M78.1893 124.434V128.584L48.4993 112.064V106.714L78.1893 124.434Z" fill="url(#paint16_linear)"/>
<path d="M78.1892 123.254V124.394L96.6592 113.784V112.504L78.1892 123.254Z" fill="#EBEAEA"/>
<path d="M78.1893 123.254V124.394L48.4893 107.274V106.284L78.1893 123.254Z" fill="#EBEAEA"/>
<path d="M78.1893 123.254L96.6593 112.504L66.6993 95.9135L48.4893 106.274L78.1893 123.254Z" fill="#F4F2F2"/>
<path d="M78.1892 118.284V122.424L95.8092 112.024V107.744L78.1892 118.284Z" fill="url(#paint17_linear)"/>
<path d="M78.1893 118.284V122.424L48.4993 105.914V100.544L78.1893 118.284Z" fill="url(#paint18_linear)"/>
<path d="M78.1892 117.114V118.254L96.6592 107.644V106.364L78.1892 117.114Z" fill="#CDCDCF"/>
<path d="M78.1893 117.114V118.254L47.5493 100.994V100.004L78.1893 117.114Z" fill="#F4F2F2"/>
<path d="M78.1893 117.114L96.6593 106.364L66.6993 89.7736L47.5493 100.004L78.1893 117.114Z" fill="#F4F2F2"/>
<path d="M78.1892 112.154V116.294L95.8092 105.894V101.614L78.1892 112.154Z" fill="url(#paint19_linear)"/>
<path d="M78.1893 112.154V116.294L48.5093 99.7835V94.4135L78.1893 112.154Z" fill="url(#paint20_linear)"/>
<path d="M78.1892 110.964V112.104L96.6592 101.494V100.214L78.1892 110.964Z" fill="#EBEAEA"/>
<path d="M78.1893 110.964V112.104L47.5493 94.6135V93.6236L78.1893 110.964Z" fill="#EBEAEA"/>
<path d="M78.1893 110.964L96.6593 100.214L66.6993 83.6436L47.5493 93.6236L78.1893 110.964Z" fill="#F4F2F2"/>
<path d="M78.1892 106.014V110.154L95.8092 99.7535V95.4735L78.1892 106.014Z" fill="url(#paint21_linear)"/>
<path d="M78.1893 106.014V110.154L48.5093 93.6336V88.2635L78.1893 106.014Z" fill="url(#paint22_linear)"/>
<path d="M78.1892 104.824V106.014L96.6592 95.3535V94.0735L78.1892 104.824Z" fill="#EBEAEA"/>
<path d="M78.1893 104.824V106.014L48.0793 88.8935V87.9035L78.1893 104.824Z" fill="#F4F2F2"/>
<path d="M78.1893 104.824L96.6593 94.0736L66.6993 77.4936L48.0793 87.8936L78.1893 104.824Z" fill="#F4F2F2"/>
<path d="M78.1892 99.9436V104.004L95.8092 93.6035V89.3235L78.1892 99.9436Z" fill="url(#paint23_linear)"/>
<path d="M78.1893 99.8635V104.004L48.5093 87.4936V83.5636L78.1893 99.8635Z" fill="url(#paint24_linear)"/>
<path d="M78.1892 98.0435V100.424L96.6592 89.8136V87.3136L78.1892 98.0435Z" fill="#EBEAEA"/>
<path d="M78.1893 98.0435V100.424L47.5493 83.1535V80.9335L78.1893 98.0435Z" fill="#CDCDCF"/>
<path d="M78.1893 98.0435L96.6593 87.2835L66.6993 70.7036L47.5493 80.9235L78.1893 98.0435Z" fill="white"/>
<path d="M47.5593 85.5236L73.1193 99.9436V107.464L47.5593 93.0436V85.5236Z" fill="#0463AC"/>
<path d="M47.5593 87.3736L73.1193 101.784V109.304L47.5593 94.9035V87.3736Z" fill="#EBEAEA"/>
<path d="M71.7893 107.104V106.214L67.8093 103.914V104.804L71.7893 107.104Z" fill="#0463AC"/>
<path d="M71.7893 103.474V102.584L67.8093 100.194V101.164L71.7893 103.474Z" fill="#0463AC"/>
<path d="M71.7893 105.334V104.364L67.8093 102.064V103.034L71.7893 105.334Z" fill="#0463AC"/>
<path d="M47.7993 103.574L73.3593 117.994V125.514L47.7993 111.084V103.574Z" fill="#49C7EF"/>
<path d="M47.7993 105.424L73.3593 119.844V127.364L47.7993 112.944V105.424Z" fill="#EBEAEA"/>
<path d="M69.1992 122.764C69.1992 122.324 68.9292 121.874 68.5792 121.704C68.2192 121.534 67.9592 121.704 67.9592 122.064C67.9592 122.504 68.2292 122.954 68.5792 123.124C68.9392 123.294 69.1992 123.204 69.1992 122.764Z" fill="#49C7EF"/>
<path d="M72.0293 124.454C72.0293 124.014 71.7593 123.564 71.4093 123.394C71.0493 123.224 70.7893 123.394 70.7893 123.754C70.7893 124.194 71.0593 124.644 71.4093 124.814C71.6693 124.984 71.9393 124.794 72.0293 124.454Z" fill="#49C7EF"/>
<path d="M69.1992 119.584C69.1992 119.144 68.9292 118.694 68.5792 118.524C68.2192 118.354 67.9592 118.524 67.9592 118.884C67.9592 119.324 68.2292 119.774 68.5792 119.944C68.9392 120.114 69.1992 119.934 69.1992 119.584Z" fill="#49C7EF"/>
<path d="M72.0293 121.264C72.0293 120.824 71.7593 120.374 71.4093 120.114C71.0493 119.944 70.7893 120.114 70.7893 120.474C70.7893 120.914 71.0593 121.364 71.4093 121.534C71.7693 121.794 72.0293 121.614 72.0293 121.264Z" fill="#49C7EF"/>
<path d="M48.3794 120.604L73.6094 135.224V142.854L48.3794 128.234V120.604Z" fill="#32AFE6"/>
<path d="M48.3794 122.484L73.6094 137.104V144.734L48.3794 130.114V122.484Z" fill="#EBEAEA"/>
<path d="M72.1993 142.664L68.2793 140.334V135.674L72.1993 138.004V142.664ZM69.4993 139.614L71.0693 140.514V138.634L69.4993 137.734V139.614Z" fill="#269DD8"/>
<path d="M88.8296 115.724L94.2996 112.544V110.774L88.8396 113.954L88.8296 115.724Z" fill="#32AFE6"/>
<path d="M88.8396 113.954L94.2996 110.774L94.3196 104.794L88.8496 107.974L88.8396 113.954Z" fill="#282828"/>
<path d="M88.8496 107.974L94.3196 104.794L94.3396 98.8136L88.8696 101.984L88.8496 107.974Z" fill="#282828"/>
<path d="M88.8694 101.984L94.3394 98.8136V97.3836L88.8694 100.564V101.984Z" fill="#32AFE6"/>
<path d="M88.8695 100.564L94.3395 97.3836L93.2495 96.7536L87.7795 99.9236L88.8695 100.564Z" fill="#0463AC"/>
<path d="M87.7795 99.9236L87.7395 115.094L88.8295 115.724L88.8395 113.954L88.8495 107.974L88.8695 101.984V100.564L87.7795 99.9236Z" fill="#0463AC"/>
<path d="M92.1996 113.714L97.6696 110.544L94.2996 110.774L88.8396 113.954L92.1996 113.714Z" fill="#9E83E3"/>
<path d="M92.2096 109.904L97.6796 106.734L94.3196 104.794L88.8496 107.974L92.2096 109.904Z" fill="#8867C8"/>
<path d="M92.1997 111.574L97.6697 108.394L97.6797 104.544L92.2097 107.714L92.1997 111.574Z" fill="#9E83E3"/>
<path d="M92.1997 113.714L97.6697 110.544L97.6797 106.734L92.2097 109.904L92.1997 113.714Z" fill="#8867C8"/>
<path d="M88.8696 101.984L88.8496 107.974L92.2096 109.904L92.1996 113.714L88.8396 113.954L92.1996 113.724V111.574L92.2096 107.714L92.2196 106.094L91.0896 104.714L90.5396 104.034L88.8696 101.984Z" fill="#84ECFD"/>
<path d="M92.1997 113.724L97.6697 110.544V108.394L92.1997 111.574V113.724Z" fill="#32AFE6"/>
<path d="M102.46 112.624L107.93 109.444L107.41 109.394L101.95 112.564L102.46 112.624Z" fill="#282828"/>
<path d="M108.44 109.354C108.29 109.434 108.12 109.464 107.93 109.444L102.46 112.624C102.65 112.644 102.82 112.614 102.97 112.534C102.97 112.534 102.97 112.534 102.98 112.534L108.44 109.354C108.44 109.354 108.45 109.354 108.44 109.354Z" fill="#282828"/>
<path d="M106.68 107.024C106.68 106.774 106.77 106.594 106.92 106.504L101.45 109.684C101.31 109.764 101.22 109.944 101.21 110.204C103.03 109.144 104.85 108.084 106.68 107.024C104.86 108.084 103.03 109.144 101.21 110.204C101.21 110.714 101.57 111.334 102.01 111.594L107.48 108.414C107.04 108.154 106.68 107.534 106.68 107.024Z" fill="#8867C8"/>
<path d="M108.06 108.474C107.91 108.564 107.71 108.544 107.49 108.414L102.02 111.594C102.24 111.724 102.45 111.734 102.59 111.654C104.23 110.694 106.41 109.424 108.06 108.474Z" fill="#8867C8"/>
<path d="M106.91 106.504L101.44 109.684C101.59 109.594 101.79 109.614 102.01 109.744L107.48 106.564C107.26 106.434 107.06 106.414 106.91 106.504Z" fill="#5C2D91"/>
<path d="M102.59 111.644L108.06 108.464C108.2 108.384 108.29 108.204 108.3 107.944C108.3 107.434 107.94 106.814 107.5 106.554L102.03 109.734C102.48 109.994 102.84 110.614 102.83 111.124C102.82 111.384 102.73 111.564 102.59 111.644Z" fill="#5C2D91"/>
<path d="M102.02 109.734C101.57 109.474 101.21 109.684 101.21 110.194C101.21 110.704 101.57 111.324 102.01 111.584C102.46 111.844 102.82 111.634 102.82 111.124C102.82 110.614 102.46 109.994 102.02 109.734Z" fill="#84ECFD"/>
<path d="M102.98 112.524L108.45 109.344C108.59 109.264 108.71 109.134 108.79 108.964C108.87 108.794 108.91 108.584 108.91 108.344C108.91 108.114 108.87 107.854 108.8 107.594C108.72 107.334 108.61 107.064 108.46 106.824C108.32 106.574 108.14 106.344 107.96 106.144C107.77 105.944 107.57 105.784 107.36 105.664C107.16 105.544 106.95 105.484 106.76 105.464L101.29 108.644C101.48 108.664 101.68 108.734 101.89 108.844C102.09 108.964 102.3 109.124 102.49 109.324C102.68 109.524 102.85 109.754 102.99 110.004C103.13 110.254 103.25 110.514 103.33 110.774C103.41 111.034 103.45 111.294 103.44 111.524C103.44 111.754 103.4 111.964 103.32 112.144C103.24 112.314 103.12 112.444 102.98 112.524Z" fill="#8867C8"/>
<path d="M101.29 108.644C101.48 108.664 101.68 108.734 101.89 108.844C102.09 108.964 102.3 109.124 102.49 109.324C102.68 109.524 102.85 109.754 102.99 110.004C103.13 110.254 103.25 110.514 103.33 110.774C103.41 111.034 103.45 111.294 103.44 111.524C103.44 111.754 103.4 111.964 103.32 112.144C103.24 112.314 103.12 112.444 102.98 112.524C102.83 112.604 102.66 112.634 102.47 112.614L101.95 112.564L92.2097 111.574L92.2197 107.714L100.2 108.524L101.29 108.644ZM102.01 111.594C102.46 111.854 102.82 111.644 102.82 111.134C102.82 110.624 102.46 110.004 102.02 109.744C101.57 109.484 101.21 109.694 101.21 110.204C101.21 110.714 101.57 111.334 102.01 111.594Z" fill="#269DD8"/>
<path d="M88.8496 107.974L88.8396 113.954L92.1996 113.714L92.2096 109.904L88.8496 107.974Z" fill="#269DD8"/>
<path d="M90.5396 104.034L95.9996 100.854L94.3396 98.8136L88.8696 101.984L90.5396 104.034Z" fill="url(#paint25_linear)"/>
<path d="M91.0895 104.714L96.5595 101.534L95.9995 100.854L90.5396 104.034L91.0895 104.714Z" fill="#9E83E3"/>
<path d="M92.2196 106.094L97.6896 102.914L96.5596 101.534L91.0896 104.714L92.2196 106.094Z" fill="#84ECFD"/>
<path d="M100.2 108.534L105.66 105.354L97.6797 104.544L92.2097 107.714L100.2 108.534Z" fill="#84ECFD"/>
<path d="M92.2097 107.714L97.6797 104.544L97.6897 102.914L92.2197 106.094L92.2097 107.714Z" fill="#49C7EF"/>
<path d="M91.0896 104.714L96.5596 101.534C97.1696 100.854 97.4796 99.6636 96.9296 98.2036L91.4596 101.384C92.0096 102.844 91.6996 104.034 91.0896 104.714Z" fill="url(#paint26_linear)"/>
<path d="M91.4597 101.374L96.9297 98.1936C96.7797 97.8336 96.6097 97.4836 96.4197 97.1336L90.9497 100.314C91.1397 100.664 91.3097 101.014 91.4597 101.374Z" fill="url(#paint27_linear)"/>
<path d="M96.0596 93.5736L90.5896 96.7536C90.4396 96.8436 90.3196 96.9936 90.2596 97.2336C89.9196 98.4236 90.4396 99.3936 90.9396 100.334L96.4096 97.1536C95.9096 96.2236 95.3896 95.2536 95.7296 94.0536C95.7896 93.8136 95.9096 93.6636 96.0596 93.5736Z" fill="url(#paint28_linear)"/>
<path d="M95.5896 92.7536L90.1196 95.9336C90.6996 95.6036 91.6196 95.9236 92.6396 96.5036L98.1096 93.3236C97.0996 92.7436 96.1696 92.4236 95.5896 92.7536Z" fill="url(#paint29_linear)"/>
<path d="M101.29 108.644L106.76 105.464L105.66 105.354L100.2 108.534L101.29 108.644Z" fill="#8867C8"/>
<path d="M95.2195 99.0736L100.689 95.8936L100.829 95.2336L95.3595 98.4136L95.2195 99.0736Z" fill="#737373"/>
<path d="M95.3597 98.4136L100.83 95.2336C99.9797 94.5736 99.0097 93.8436 98.1197 93.3336L92.6497 96.5136C93.5397 97.0236 94.4997 97.7536 95.3597 98.4136Z" fill="url(#paint30_linear)"/>
<path d="M92.6395 96.5036C91.2295 95.6836 89.9795 95.3836 89.6195 96.6536C89.1795 98.1936 89.9095 99.5536 90.4395 100.544C90.5995 100.824 90.7495 101.114 90.8695 101.414C91.1795 102.234 91.1195 103.404 90.5295 104.034L91.0795 104.714C91.6895 104.034 91.9995 102.844 91.4495 101.384C91.2995 101.024 91.1295 100.674 90.9395 100.324C90.4395 99.3936 89.9195 98.4236 90.2595 97.2236C90.5095 96.3636 91.4095 96.5636 92.6095 97.2436C93.3895 97.6936 94.2995 98.3536 95.2195 99.0736L95.3595 98.4136C94.4995 97.7536 93.5395 97.0236 92.6395 96.5036Z" fill="#84ECFD"/>
<path d="M103.34 113.054L108.81 109.874C108.97 109.784 109.08 109.614 109.14 109.374L103.67 112.554C103.61 112.794 103.49 112.964 103.34 113.054Z" fill="#0463AC"/>
<path d="M96.0996 99.9536L101.57 96.7736L101.81 95.6236L96.3396 98.7936L96.0996 99.9536Z" fill="#5C2D91"/>
<path d="M103.66 112.554L109.13 109.374L109.8 106.144L104.34 109.324L103.66 112.554Z" fill="#0463AC"/>
<path d="M104.34 109.324L109.8 106.144L106.13 103.114L100.66 106.294L104.34 109.324Z" fill="#282828"/>
<path d="M106.17 108.264L111.64 105.084L101.57 96.7736L96.0996 99.9536L106.17 108.264Z" fill="#5C2D91"/>
<path d="M95.8796 101.014L101.35 97.8336L101.81 95.6236L96.3396 98.7936L95.8796 101.014Z" fill="#282828"/>
<path d="M96.3396 98.7936L101.81 95.6236L101.95 94.9436L96.4796 98.1236L96.3396 98.7936Z" fill="#282828"/>
<path d="M95.5695 97.3736L95.3595 98.4136L95.2195 99.0736L94.9695 100.274L95.8795 101.014L96.3395 98.7936L96.4795 98.1236L95.5695 97.3736Z" fill="#0463AC"/>
<path d="M96.4796 98.1236L101.95 94.9436L101.04 94.1936L95.5696 97.3736L96.4796 98.1236Z" fill="#0463AC"/>
<path d="M100.66 106.294L100.19 108.534L101.28 108.644C101.47 108.664 101.67 108.734 101.88 108.844C102.08 108.964 102.29 109.124 102.48 109.324C102.67 109.524 102.84 109.754 102.98 110.004C103.12 110.254 103.24 110.514 103.32 110.774C103.4 111.034 103.44 111.294 103.43 111.524C103.43 111.754 103.39 111.964 103.31 112.144C103.23 112.314 103.11 112.444 102.97 112.524C102.82 112.604 102.65 112.634 102.46 112.614L101.94 112.564L102.22 112.794C102.3 112.864 102.39 112.924 102.47 112.974C103.03 113.294 103.53 113.134 103.66 112.554L104.33 109.324L100.66 106.294Z" fill="url(#paint31_linear)"/>
<path d="M96.6497 97.3136L102.12 94.1336L102.33 93.1136L96.8697 96.2936L96.6497 97.3136Z" fill="#8867C8"/>
<path d="M108.21 112.514L113.68 109.334L113.83 108.644L108.36 111.814L108.21 112.514Z" fill="#0463AC"/>
<path d="M108.81 109.634L114.28 106.454L111.64 105.084L106.17 108.264L108.81 109.634Z" fill="#5C2D91"/>
<path d="M108.36 111.814L113.83 108.644L114.28 106.454L108.81 109.634L108.36 111.814Z" fill="#5C2D91"/>
<path d="M96.3396 98.7936L95.8796 101.014L95.6396 102.154L100.66 106.294L104.34 109.324L108.21 112.514L108.36 111.814L108.81 109.634L106.17 108.264L96.0996 99.9536L96.3396 98.7936Z" fill="#269DD8"/>
<path d="M109.95 110.214L115.41 107.034L114.28 106.454L108.81 109.634L109.95 110.214Z" fill="#282828"/>
<path d="M109.95 110.214L108.81 109.634L108.36 111.814L109.43 112.694L109.95 110.214Z" fill="#0463AC"/>
<path d="M109.43 112.694L114.89 109.514L115.41 107.034L109.95 110.214L109.43 112.694Z" fill="#0463AC"/>
<path d="M112.08 110.014L117.54 106.844L102.12 94.1336L96.6497 97.3136L112.08 110.014Z" fill="#8867C8"/>
<path d="M112.08 110.014L117.54 106.844L117.76 105.814L112.29 108.994L112.08 110.014Z" fill="#B4A0FF"/>
<path d="M111.83 111.184L117.3 108.014L117.76 105.814L112.29 108.994L111.83 111.184Z" fill="#0463AC"/>
<path d="M96.8696 96.2936L96.4796 98.1236L96.3396 98.7936L96.0996 99.9536L106.17 108.264L108.81 109.634L109.95 110.214L111.83 111.184L112.29 108.994L112.08 110.014L96.6496 97.3136L96.8696 96.2936Z" fill="#84ECFD"/>
<path d="M96.8697 96.2936L96.6497 97.3136L112.08 110.014L112.29 108.994L96.8697 96.2936Z" fill="url(#paint32_linear)"/>
<path d="M112.29 108.994L117.76 105.814L102.33 93.1136L96.8696 96.2936L112.29 108.994Z" fill="#84ECFD"/>
<path opacity="0.25" d="M110.909 156.494L95.1794 165.794L82.8394 159.034L99.5594 149.734L110.909 156.494Z" fill="#1F1D21"/>
<path d="M110.509 148.264L94.9893 157.304L83.0293 150.874L98.5493 141.834L110.509 148.264Z" fill="#84ECFD"/>
<path d="M110.509 148.264L110.459 155.374L94.9395 164.414L94.9895 157.304L110.509 148.264Z" fill="url(#paint33_linear)"/>
<path d="M94.9993 157.304L94.9492 164.404L82.9792 157.984L83.0293 150.884L94.9993 157.304Z" fill="url(#paint34_linear)"/>
<path d="M110.509 140.114L94.9893 149.104L83.0293 142.674L98.5493 133.684L110.509 140.114Z" fill="#84ECFD"/>
<path d="M110.509 140.114L110.459 147.224L94.9395 156.214L94.9895 149.114L110.509 140.114Z" fill="url(#paint35_linear)"/>
<path d="M94.9993 149.104L94.9492 156.204L82.9792 149.784L83.0293 142.674L94.9993 149.104Z" fill="url(#paint36_linear)"/>
<path d="M110.509 131.914L94.9893 140.904L83.0293 134.534L98.5493 125.494L110.509 131.914Z" fill="#84ECFD"/>
<path d="M110.509 131.914L110.459 139.014L94.9395 148.004L94.9895 140.904L110.509 131.914Z" fill="url(#paint37_linear)"/>
<path d="M94.9993 140.904L94.9493 148.014L82.9893 141.644L83.0393 134.534L94.9993 140.904Z" fill="url(#paint38_linear)"/>
<path d="M110.509 123.814L94.9893 132.804L83.0293 126.434L98.5493 117.394L110.509 123.814Z" fill="#84ECFD"/>
<path d="M110.509 123.814L110.459 130.914L94.9395 139.904L94.9895 132.804L110.509 123.814Z" fill="url(#paint39_linear)"/>
<path d="M94.9993 132.804L94.9493 139.914L82.9893 133.544L83.0393 126.434L94.9993 132.804Z" fill="url(#paint40_linear)"/>
<path d="M99.4392 159.764V159.244L98.9692 159.504V160.024L99.4392 159.764Z" fill="#2195DC"/>
<path d="M99.4392 158.974V158.404L98.9692 158.714V159.234L99.4392 158.974Z" fill="#2195DC"/>
<path d="M99.4392 158.144V157.624L98.9692 157.884V158.404L99.4392 158.144Z" fill="#2195DC"/>
<path d="M99.4392 157.354V156.834L98.9692 157.094V157.614L99.4392 157.354Z" fill="#2195DC"/>
<path d="M98.7593 160.124V159.604L98.2893 159.864V160.384L98.7593 160.124Z" fill="#2195DC"/>
<path d="M98.7593 159.344V158.824L98.2893 159.084V159.604L98.7593 159.344Z" fill="#2195DC"/>
<path d="M98.7593 158.564V158.044L98.2893 158.304V158.824L98.7593 158.564Z" fill="#2195DC"/>
<path d="M98.7593 157.774V157.254L98.2893 157.514V158.034L98.7593 157.774Z" fill="#2195DC"/>
<path d="M98.0794 160.544V160.024L97.6094 160.284V160.804L98.0794 160.544Z" fill="#2195DC"/>
<path d="M98.0794 159.764V159.244L97.6094 159.504V160.024L98.0794 159.764Z" fill="#2195DC"/>
<path d="M98.0794 158.974V158.454L97.6094 158.714V159.234L98.0794 158.974Z" fill="#2195DC"/>
<path d="M98.0794 158.144V157.624L97.6094 157.884V158.404L98.0794 158.144Z" fill="#2195DC"/>
<path d="M97.3994 160.914V160.394L96.9294 160.654V161.174L97.3994 160.914Z" fill="#2195DC"/>
<path d="M97.3994 160.124V159.604L96.9294 159.864V160.384L97.3994 160.124Z" fill="#2195DC"/>
<path d="M97.3994 159.344V158.824L96.9294 159.084V159.604L97.3994 159.344Z" fill="#2195DC"/>
<path d="M97.3994 158.564V158.044L96.9294 158.304V158.824L97.3994 158.564Z" fill="#2195DC"/>
<path d="M98.7593 140.534L99.4393 140.114V140.894L98.7593 141.314V140.534ZM99.2293 140.534L99.0193 140.694V140.954L99.2293 140.794V140.534Z" fill="#45CAF2"/>
<path d="M98.7593 141.584L99.4393 141.164V141.944L98.7593 142.364V141.584ZM99.2293 141.584L99.0193 141.744V142.004L99.2293 141.844V141.584Z" fill="#45CAF2"/>
<path d="M98.7593 142.624L99.4393 142.204V142.984L98.7593 143.404V142.624ZM99.2293 142.624L99.0193 142.784V143.044L99.2293 142.884V142.624Z" fill="#45CAF2"/>
<path d="M97.8694 143.144L98.5494 142.724V143.504L97.8694 143.924V143.144ZM98.2894 143.144L98.0794 143.304V143.564L98.2894 143.404V143.144Z" fill="#45CAF2"/>
<path d="M97.8193 141.054L98.4993 140.634V141.414L97.8193 141.834V141.054ZM98.2893 141.054L98.0793 141.214V141.474L98.2893 141.314V141.054Z" fill="#45CAF2"/>
<path d="M97.8193 142.104L98.4993 141.684V142.464L97.8193 142.884V142.104ZM98.2893 142.104L98.0793 142.264V142.524L98.2893 142.364V142.104Z" fill="#45CAF2"/>
<path d="M96.9294 141.584L97.6094 141.164V141.944L96.9294 142.364V141.584ZM97.3994 141.584L97.1894 141.744V142.004L97.3994 141.844V141.584Z" fill="#45CAF2"/>
<path d="M96.9294 142.624L97.6094 142.204V142.984L96.9294 143.404V142.624ZM97.3994 142.624L97.1894 142.784V143.044L97.3994 142.884V142.624Z" fill="#45CAF2"/>
<path d="M96.9294 143.674L97.6094 143.254V144.034L96.9294 144.454V143.674ZM97.3994 143.674L97.1894 143.834V144.094L97.3994 143.934V143.674Z" fill="#45CAF2"/>
<path d="M99.4393 151.454V150.674L98.7593 151.044V151.884L99.4393 151.454Z" fill="#32B0E7"/>
<path d="M99.4393 149.364V148.524L98.7593 148.944V149.724L99.4393 149.364Z" fill="#32B0E7"/>
<path d="M99.4393 150.414V149.634L98.7593 150.004V150.784L99.4393 150.414Z" fill="#32B0E7"/>
<path d="M98.5493 150.934V150.154L97.8193 150.524V151.364L98.5493 150.934Z" fill="#32B0E7"/>
<path d="M98.5493 151.974V151.194L97.8193 151.614V152.394L98.5493 151.974Z" fill="#32B0E7"/>
<path d="M98.5493 149.884L98.4993 149.104L97.8193 149.474V150.254L98.5493 149.884Z" fill="#32B0E7"/>
<path d="M97.6094 150.414V149.634L96.9294 150.004V150.784L97.6094 150.414Z" fill="#32B0E7"/>
<path d="M97.6094 151.454V150.674L96.9294 151.094V151.874L97.6094 151.454Z" fill="#32B0E7"/>
<path d="M97.6094 152.504V151.724L96.9294 152.144V152.924L97.6094 152.504Z" fill="#32B0E7"/>
<path d="M98.7594 135.154V133.844L97.6094 134.524V135.834L98.7594 135.154Z" fill="#50E6FF"/>
<path d="M96.9294 134.114L99.4394 132.654V135.584L96.9294 137.044V134.114ZM98.9694 133.434L97.3494 134.374V136.204L98.9694 135.264V133.434Z" fill="#50E6FF"/>
<defs>
<linearGradient id="paint0_linear" x1="90.3796" y1="9.86186" x2="90.3796" y2="181.277" gradientUnits="userSpaceOnUse">
<stop stop-color="#00ABDE"/>
<stop offset="1" stop-color="#007ED8"/>
</linearGradient>
<linearGradient id="paint1_linear" x1="73.1789" y1="110.969" x2="105.613" y2="167.146" gradientUnits="userSpaceOnUse">
<stop stop-color="#50E6FF"/>
<stop offset="1" stop-color="#0078D4"/>
</linearGradient>
<linearGradient id="paint2_linear" x1="74.7241" y1="113.591" x2="104.138" y2="164.539" gradientUnits="userSpaceOnUse">
<stop stop-color="#50E6FF"/>
<stop offset="1" stop-color="#0078D4"/>
</linearGradient>
<linearGradient id="paint3_linear" x1="76.2428" y1="116.174" x2="102.655" y2="161.921" gradientUnits="userSpaceOnUse">
<stop stop-color="#50E6FF"/>
<stop offset="1" stop-color="#0078D4"/>
</linearGradient>
<linearGradient id="paint4_linear" x1="77.7881" y1="118.851" x2="101.167" y2="159.344" gradientUnits="userSpaceOnUse">
<stop stop-color="#50E6FF"/>
<stop offset="1" stop-color="#0078D4"/>
</linearGradient>
<linearGradient id="paint5_linear" x1="79.3066" y1="121.433" x2="99.6559" y2="156.679" gradientUnits="userSpaceOnUse">
<stop stop-color="#50E6FF"/>
<stop offset="1" stop-color="#0078D4"/>
</linearGradient>
<linearGradient id="paint6_linear" x1="80.7802" y1="124.033" x2="98.1276" y2="154.08" gradientUnits="userSpaceOnUse">
<stop stop-color="#50E6FF"/>
<stop offset="1" stop-color="#0078D4"/>
</linearGradient>
<linearGradient id="paint7_linear" x1="87.0141" y1="147.362" x2="86.7486" y2="82.2007" gradientUnits="userSpaceOnUse">
<stop stop-color="#4EC0E9"/>
<stop offset="0.585" stop-color="#2C76BB"/>
</linearGradient>
<linearGradient id="paint8_linear" x1="63.2275" y1="143.422" x2="65.3508" y2="91.3999" gradientUnits="userSpaceOnUse">
<stop stop-color="#4EC0E9"/>
<stop offset="0.585" stop-color="#2C76BB"/>
</linearGradient>
<linearGradient id="paint9_linear" x1="87.0141" y1="141.676" x2="86.7486" y2="76.5152" gradientUnits="userSpaceOnUse">
<stop stop-color="#4EC0E9"/>
<stop offset="0.585" stop-color="#2C76BB"/>
</linearGradient>
<linearGradient id="paint10_linear" x1="63.2276" y1="137.737" x2="65.3509" y2="85.7144" gradientUnits="userSpaceOnUse">
<stop stop-color="#4EC0E9"/>
<stop offset="0.585" stop-color="#2C76BB"/>
</linearGradient>
<linearGradient id="paint11_linear" x1="87.0141" y1="135.99" x2="86.7486" y2="70.8286" gradientUnits="userSpaceOnUse">
<stop stop-color="#4EC0E9"/>
<stop offset="0.585" stop-color="#2C76BB"/>
</linearGradient>
<linearGradient id="paint12_linear" x1="63.2275" y1="132.051" x2="65.3508" y2="80.0279" gradientUnits="userSpaceOnUse">
<stop stop-color="#4EC0E9"/>
<stop offset="0.585" stop-color="#2C76BB"/>
</linearGradient>
<linearGradient id="paint13_linear" x1="87.0141" y1="130.188" x2="86.7486" y2="65.0269" gradientUnits="userSpaceOnUse">
<stop stop-color="#4EC0E9"/>
<stop offset="0.585" stop-color="#2C76BB"/>
</linearGradient>
<linearGradient id="paint14_linear" x1="63.2277" y1="126.25" x2="65.351" y2="74.2261" gradientUnits="userSpaceOnUse">
<stop stop-color="#4EC0E9"/>
<stop offset="0.585" stop-color="#2C76BB"/>
</linearGradient>
<linearGradient id="paint15_linear" x1="87.0371" y1="130.188" x2="86.7718" y2="65.0268" gradientUnits="userSpaceOnUse">
<stop stop-color="#4EC0E9"/>
<stop offset="0.585" stop-color="#2C76BB"/>
</linearGradient>
<linearGradient id="paint16_linear" x1="62.9973" y1="126.24" x2="65.1206" y2="74.2163" gradientUnits="userSpaceOnUse">
<stop stop-color="#4EC0E9"/>
<stop offset="0.585" stop-color="#2C76BB"/>
</linearGradient>
<linearGradient id="paint17_linear" x1="87.0622" y1="130.188" x2="86.7967" y2="65.0269" gradientUnits="userSpaceOnUse">
<stop stop-color="#4EC0E9"/>
<stop offset="0.585" stop-color="#2C76BB"/>
</linearGradient>
<linearGradient id="paint18_linear" x1="62.7467" y1="126.229" x2="64.8702" y2="74.2066" gradientUnits="userSpaceOnUse">
<stop stop-color="#4EC0E9"/>
<stop offset="0.585" stop-color="#2C76BB"/>
</linearGradient>
<linearGradient id="paint19_linear" x1="87.0872" y1="130.188" x2="86.8218" y2="65.0269" gradientUnits="userSpaceOnUse">
<stop stop-color="#4EC0E9"/>
<stop offset="0.585" stop-color="#2C76BB"/>
</linearGradient>
<linearGradient id="paint20_linear" x1="62.4965" y1="126.219" x2="64.6201" y2="74.1967" gradientUnits="userSpaceOnUse">
<stop stop-color="#4EC0E9"/>
<stop offset="0.585" stop-color="#2C76BB"/>
</linearGradient>
<linearGradient id="paint21_linear" x1="87.1122" y1="130.187" x2="86.8468" y2="65.0258" gradientUnits="userSpaceOnUse">
<stop stop-color="#4EC0E9"/>
<stop offset="0.585" stop-color="#2C76BB"/>
</linearGradient>
<linearGradient id="paint22_linear" x1="62.2463" y1="126.209" x2="64.3696" y2="74.1861" gradientUnits="userSpaceOnUse">
<stop stop-color="#4EC0E9"/>
<stop offset="0.585" stop-color="#2C76BB"/>
</linearGradient>
<linearGradient id="paint23_linear" x1="87.1372" y1="130.187" x2="86.8718" y2="65.0258" gradientUnits="userSpaceOnUse">
<stop stop-color="#4EC0E9"/>
<stop offset="0.585" stop-color="#2C76BB"/>
</linearGradient>
<linearGradient id="paint24_linear" x1="62.0251" y1="126.201" x2="64.1484" y2="74.1773" gradientUnits="userSpaceOnUse">
<stop stop-color="#4EC0E9"/>
<stop offset="0.585" stop-color="#2C76BB"/>
</linearGradient>
<linearGradient id="paint25_linear" x1="88.87" y1="101.42" x2="96.0037" y2="101.42" gradientUnits="userSpaceOnUse">
<stop stop-color="#50E6FF"/>
<stop offset="0.7998" stop-color="#0078D4"/>
</linearGradient>
<linearGradient id="paint26_linear" x1="93.303" y1="97.3822" x2="94.7977" y2="105.57" gradientUnits="userSpaceOnUse">
<stop stop-color="#50E6FF"/>
<stop offset="0.7998" stop-color="#0078D4"/>
</linearGradient>
<linearGradient id="paint27_linear" x1="93.5816" y1="97.3314" x2="95.0762" y2="105.519" gradientUnits="userSpaceOnUse">
<stop stop-color="#50E6FF"/>
<stop offset="0.7998" stop-color="#0078D4"/>
</linearGradient>
<linearGradient id="paint28_linear" x1="93.3722" y1="97.3696" x2="94.8668" y2="105.557" gradientUnits="userSpaceOnUse">
<stop stop-color="#50E6FF"/>
<stop offset="0.7998" stop-color="#0078D4"/>
</linearGradient>
<linearGradient id="paint29_linear" x1="89.8783" y1="94.1035" x2="105.929" y2="95.728" gradientUnits="userSpaceOnUse">
<stop stop-color="#50E6FF"/>
<stop offset="0.7998" stop-color="#0078D4"/>
</linearGradient>
<linearGradient id="paint30_linear" x1="89.7708" y1="95.1658" x2="105.822" y2="96.7904" gradientUnits="userSpaceOnUse">
<stop stop-color="#50E6FF"/>
<stop offset="0.7998" stop-color="#0078D4"/>
</linearGradient>
<linearGradient id="paint31_linear" x1="100.196" y1="109.715" x2="104.336" y2="109.715" gradientUnits="userSpaceOnUse">
<stop stop-color="#50E6FF"/>
<stop offset="0.7998" stop-color="#0078D4"/>
</linearGradient>
<linearGradient id="paint32_linear" x1="96.6512" y1="103.153" x2="112.291" y2="103.153" gradientUnits="userSpaceOnUse">
<stop stop-color="#50E6FF"/>
<stop offset="0.7998" stop-color="#0078D4"/>
</linearGradient>
<linearGradient id="paint33_linear" x1="105.105" y1="118.797" x2="102.374" y2="161.944" gradientUnits="userSpaceOnUse">
<stop stop-color="#50E6FF"/>
<stop offset="0.7998" stop-color="#0078D4"/>
</linearGradient>
<linearGradient id="paint34_linear" x1="89.6006" y1="131.813" x2="88.7615" y2="167.267" gradientUnits="userSpaceOnUse">
<stop stop-color="#50E6FF"/>
<stop offset="0.7998" stop-color="#0078D4"/>
</linearGradient>
<linearGradient id="paint35_linear" x1="104.59" y1="118.764" x2="101.859" y2="161.911" gradientUnits="userSpaceOnUse">
<stop stop-color="#50E6FF"/>
<stop offset="0.7998" stop-color="#0078D4"/>
</linearGradient>
<linearGradient id="paint36_linear" x1="89.4066" y1="131.809" x2="88.5675" y2="167.261" gradientUnits="userSpaceOnUse">
<stop stop-color="#50E6FF"/>
<stop offset="0.7998" stop-color="#0078D4"/>
</linearGradient>
<linearGradient id="paint37_linear" x1="104.073" y1="118.732" x2="101.342" y2="161.878" gradientUnits="userSpaceOnUse">
<stop stop-color="#50E6FF"/>
<stop offset="0.7998" stop-color="#0078D4"/>
</linearGradient>
<linearGradient id="paint38_linear" x1="89.2132" y1="131.804" x2="88.3741" y2="167.257" gradientUnits="userSpaceOnUse">
<stop stop-color="#50E6FF"/>
<stop offset="0.7998" stop-color="#0078D4"/>
</linearGradient>
<linearGradient id="paint39_linear" x1="103.562" y1="118.7" x2="100.832" y2="161.845" gradientUnits="userSpaceOnUse">
<stop stop-color="#50E6FF"/>
<stop offset="0.7998" stop-color="#0078D4"/>
</linearGradient>
<linearGradient id="paint40_linear" x1="89.0216" y1="131.799" x2="88.1825" y2="167.252" gradientUnits="userSpaceOnUse">
<stop stop-color="#50E6FF"/>
<stop offset="0.7998" stop-color="#0078D4"/>
</linearGradient>
</defs>
</svg>
