<svg width="103" height="103" viewBox="0 0 103 103" fill="none" xmlns="http://www.w3.org/2000/svg">
<path d="M51.5825 98.6637C25.7325 98.6637 4.77246 77.7137 4.77246 51.8537C4.77246 25.9937 25.7325 5.0437 51.5825 5.0437C77.4325 5.0437 98.3925 26.0037 98.3925 51.8537C98.3925 77.7037 77.4325 98.6637 51.5825 98.6637Z" fill="url(#paint0_linear)"/>
<path fill-rule="evenodd" clip-rule="evenodd" d="M97.4824 51.8537C97.4824 77.2037 76.9324 97.7537 51.5824 97.7537C26.2324 97.7537 5.68238 77.2037 5.68238 51.8537C5.68238 26.5037 26.2324 5.95374 51.5824 5.95374C76.9324 5.95374 97.4824 26.5037 97.4824 51.8537ZM51.5824 2.21375C79.0024 2.21375 101.222 24.4337 101.222 51.8537C101.222 79.2737 78.9924 101.494 51.5824 101.494C24.1624 101.494 1.94238 79.2637 1.94238 51.8537C1.94238 24.4337 24.1624 2.21375 51.5824 2.21375Z" fill="#F2F1F0"/>
<path fill-rule="evenodd" clip-rule="evenodd" d="M94.672 51.8538C94.672 75.6538 75.382 94.9438 51.582 94.9438C27.782 94.9438 8.49195 75.6538 8.49195 51.8538C8.49195 28.0538 27.782 8.7638 51.582 8.7638C75.382 8.7638 94.672 28.0538 94.672 51.8538ZM51.582 5.0238C77.442 5.0238 98.412 25.9938 98.412 51.8538C98.412 77.7138 77.442 98.6838 51.582 98.6838C25.722 98.6838 4.75195 77.7138 4.75195 51.8538C4.75195 25.9938 25.712 5.0238 51.582 5.0238Z" fill="url(#paint1_linear)"/>
<path opacity="0.15" fill-rule="evenodd" clip-rule="evenodd" d="M51.5916 92.5139C51.2416 92.5139 50.8816 92.4339 50.5616 92.2739C29.6216 81.7439 20.6816 68.7939 20.6816 48.9939V30.6639C20.6816 29.4039 21.7016 28.3739 22.9716 28.3739C36.1516 28.3739 44.9516 25.6339 49.8616 19.9939C50.7316 18.9939 52.4416 18.9939 53.3116 19.9939C58.2316 25.6339 67.0216 28.3739 80.2016 28.3739C81.4616 28.3739 82.4916 29.4039 82.4916 30.6639V48.9939C82.4916 68.8039 73.5516 81.7439 52.6116 92.2739C52.3016 92.4339 51.9416 92.5139 51.5916 92.5139Z" fill="#1F1D20"/>
<path fill-rule="evenodd" clip-rule="evenodd" d="M25.2616 30.9439V47.0039C25.2616 64.7439 32.9116 76.0139 51.5916 85.6639C70.2716 76.0139 77.9216 64.7439 77.9216 47.0039V30.9439C65.8916 30.6439 57.2316 27.9739 51.5916 22.7939C45.9516 27.9739 37.3016 30.6539 25.2616 30.9439ZM51.5916 90.5339C51.2416 90.5339 50.8816 90.4539 50.5616 90.2939C29.6216 79.7639 20.6816 66.8139 20.6816 47.0139V28.6839C20.6816 27.4239 21.7016 26.3939 22.9716 26.3939C36.1516 26.3939 44.9516 23.6539 49.8616 18.0139C50.7316 17.0139 52.4416 17.0139 53.3116 18.0139C58.2316 23.6539 67.0216 26.3939 80.2016 26.3939C81.4616 26.3939 82.4916 27.4239 82.4916 28.6839V47.0139C82.4916 66.8239 73.5516 79.7639 52.6116 90.2939C52.3016 90.4539 51.9416 90.5339 51.5916 90.5339Z" fill="#546670"/>
<path fill-rule="evenodd" clip-rule="evenodd" d="M51.5715 21.1439C45.8515 27.7039 35.7615 29.8839 24.2715 29.8839V47.3539C24.2715 65.3639 32.2515 76.9639 51.5715 86.6639C70.8915 76.9639 78.8715 65.3639 78.8715 47.3539V29.8739C67.3815 29.8739 57.3015 27.7039 51.5715 21.1439Z" fill="#243A5E"/>
<path fill-rule="evenodd" clip-rule="evenodd" d="M51.582 21.1439V86.6739C70.902 76.9639 78.882 65.3639 78.882 47.3539V29.8739C67.382 29.8739 57.302 27.7039 51.582 21.1439Z" fill="#002D4C"/>
<path d="M36.082 40.9738L36.112 51.1138L48.822 51.1538L48.792 39.1638L36.082 40.9738Z" fill="white"/>
<path d="M36.1123 52.3237L36.1423 62.7037L48.7823 64.5137L48.7523 52.4537L36.1123 52.3237Z" fill="white"/>
<path d="M50.0625 52.4438L50.1025 64.5938L67.0825 66.9638L67.0425 52.3938L50.0625 52.4438Z" fill="white"/>
<path d="M50.0225 38.8438L50.0625 51.0738L67.0425 50.9438L67.0025 36.3738L50.0225 38.8438Z" fill="white"/>
<defs>
<linearGradient id="paint0_linear" x1="49.8126" y1="-12.9359" x2="53.7946" y2="132.834" gradientUnits="userSpaceOnUse">
<stop stop-color="#00ABDE"/>
<stop offset="1" stop-color="#007ED8"/>
</linearGradient>
<linearGradient id="paint1_linear" x1="3.01515" y1="-19.7712" x2="98.5432" y2="121.111" gradientUnits="userSpaceOnUse">
<stop stop-color="#007ED8"/>
<stop offset="0.7065" stop-color="#002D4C"/>
</linearGradient>
</defs>
</svg>
