<svg width="103" height="103" viewBox="0 0 103 103" fill="none" xmlns="http://www.w3.org/2000/svg">
<path d="M51.0808 98.3047C76.9331 98.3047 97.8867 77.3512 97.8867 51.4988C97.8867 25.6464 76.9331 4.69287 51.0808 4.69287C25.2284 4.69287 4.27484 25.6464 4.27484 51.4988C4.27484 77.3512 25.2284 98.3047 51.0808 98.3047Z" fill="url(#paint0_linear)"/>
<path fill-rule="evenodd" clip-rule="evenodd" d="M51.0807 1.49878C23.4674 1.49878 1.08075 23.8854 1.08075 51.4988C1.08075 79.1121 23.4674 101.499 51.0807 101.499C78.6941 101.499 101.081 79.1121 101.081 51.4988C101.081 23.8854 78.6941 1.49878 51.0807 1.49878ZM51.0807 97.2556C25.8091 97.2556 5.32391 76.7704 5.32391 51.4988C5.32391 26.2271 25.8091 5.74194 51.0807 5.74194C76.3524 5.74194 96.8376 26.2271 96.8376 51.4988C96.8376 76.7704 76.3524 97.2556 51.0807 97.2556Z" fill="#D9D9D9"/>
<path fill-rule="evenodd" clip-rule="evenodd" d="M5.18343 51.4988C5.18343 76.8454 25.7342 97.3961 51.0808 97.3961C76.4273 97.3961 96.9781 76.8454 96.9781 51.4988C96.9781 26.1522 76.4273 5.60146 51.0808 5.60146C25.7342 5.60146 5.18343 26.1522 5.18343 51.4988ZM51.0808 1.85474C23.6641 1.85474 1.43671 24.0822 1.43671 51.4988C1.43671 78.9154 23.6641 101.143 51.0808 101.143C78.4974 101.143 100.725 78.9154 100.725 51.4988C100.725 24.0822 78.4974 1.85474 51.0808 1.85474Z" fill="#F2F1F0"/>
<path fill-rule="evenodd" clip-rule="evenodd" d="M7.99346 51.4988C7.99346 75.2999 27.2797 94.5861 51.0808 94.5861C74.8818 94.5861 94.1681 75.2999 94.1681 51.4988C94.1681 27.6978 74.8818 8.41152 51.0808 8.41152C27.2797 8.41152 7.99346 27.6978 7.99346 51.4988ZM51.0808 4.66479C25.219 4.66479 4.24673 25.6371 4.24673 51.4988C4.24673 77.3606 25.219 98.3328 51.0808 98.3328C76.9425 98.3328 97.9148 77.3606 97.9148 51.4988C97.9148 25.6371 76.9519 4.66479 51.0808 4.66479Z" fill="#0078D4"/>
<path d="M39.0631 66.7947C53.769 66.7947 65.693 54.8708 65.693 40.1649C65.693 25.459 53.769 13.5444 39.0631 13.5444C24.3573 13.5444 12.4333 25.459 12.4333 40.1649C12.4333 54.8708 24.3573 66.7947 39.0631 66.7947Z" fill="#1B77BF"/>
<path d="M39.0631 13.5444C24.3573 13.5444 12.4333 25.4684 12.4333 40.1743C12.4333 47.649 15.5337 54.4118 20.47 59.2263L57.7687 21.2439C52.9541 16.4856 46.3505 13.5444 39.0631 13.5444Z" fill="#3D96D7"/>
<path d="M27.5513 34.0391H22.1092V46.6468H27.5513C30.3988 46.6468 32.7124 44.3332 32.7124 41.4857V39.2002C32.7124 36.3527 30.3988 34.0391 27.5513 34.0391ZM29.9586 41.7386C29.9586 43.3028 28.7035 44.558 27.1392 44.558H24.9193V36.1372H27.1392C28.7035 36.1372 29.9586 37.3924 29.9586 38.9566V41.7386Z" fill="white"/>
<path d="M45.4794 34.0391H42.8848V42.2069L38.2857 34.0391H34.9417V46.6468H37.4801V38.1043L42.2947 46.6468H45.4888V34.0391H45.4794Z" fill="white"/>
<path d="M54.9305 34.2263C54.9305 34.2263 53.2726 33.4114 50.959 33.6643C48.5798 33.9172 47.2965 35.2004 47.2684 36.9146C47.2403 39.2656 48.3925 40.2304 49.9005 40.7924C51.3992 41.3263 52.9354 41.8602 52.748 43.4245C52.5607 44.9606 51.3055 44.9232 50.4344 44.7733C49.5258 44.586 47.3715 43.462 47.3715 43.462L47.5307 46.4968C47.5307 46.4968 49.7225 47.3773 51.1557 47.3773C52.8792 47.3773 55.4738 46.7497 55.8203 43.8741C56.1669 41.0266 54.4715 39.9962 53.2257 39.3968C51.9706 38.8067 50.3782 38.4601 50.3127 37.1394C50.2846 36.2589 50.6592 35.7905 51.8113 35.8561C52.8792 35.9217 55.0616 36.7928 55.0616 36.7928L54.9305 34.2263Z" fill="white"/>
<path d="M58.5274 25.1219C57.8717 24.2789 57.1504 23.464 56.373 22.6772C51.9331 18.2935 45.826 15.5771 39.0725 15.5771C32.4408 15.5771 26.3992 18.2092 21.9875 22.4898C21.2006 23.2392 20.4888 24.0541 19.7956 24.8971C16.4798 29.0934 14.4753 34.4138 14.4753 40.165C14.4753 46.0474 16.536 51.4333 19.983 55.6577C20.6667 56.5007 21.4254 57.3156 22.2029 58.0369C26.3618 61.9803 31.9069 64.4812 38.0328 64.7341C38.3138 64.7622 38.5948 64.7997 38.8477 64.7997C39.1006 64.7997 39.3441 64.7716 39.5689 64.7716C46.0414 64.6498 51.8676 62.0178 56.2138 57.8589C57.0006 57.1096 57.7124 56.2946 58.4056 55.4516C61.7214 51.2553 63.7259 45.9724 63.7259 40.1837C63.6604 34.5075 61.7495 29.2808 58.5274 25.1219ZM53.769 24.0822C52.364 24.7379 50.7997 25.2999 49.1699 25.7401C48.1677 23.1736 46.9125 20.9818 45.4419 19.3239C48.5798 20.2699 51.4273 21.9278 53.769 24.0822ZM38.8196 18.4528C41.7608 18.4528 44.3554 21.5532 46.107 26.4333C43.9807 26.8079 41.7233 27.0234 39.3816 27.0234C36.6559 27.0234 34.0613 26.7424 31.6259 26.2366C33.34 21.4876 35.9065 18.4528 38.8196 18.4528ZM31.9912 19.5487C30.6799 21.1129 29.5184 23.1174 28.5817 25.4591C27.1392 25.0189 25.7997 24.485 24.5446 23.8949C26.7083 21.9934 29.2374 20.4854 31.9912 19.5487ZM24.7975 56.66C25.9871 56.0979 27.2703 55.6296 28.5817 55.2175C29.4247 57.3437 30.4925 59.2265 31.6446 60.697C29.1156 59.7604 26.802 58.3834 24.7975 56.66ZM40.131 61.9428C39.7844 61.9709 39.4097 61.9709 39.0631 61.9709C38.473 61.9709 37.9017 61.9428 37.3396 61.9054C35.0541 61.0623 33.0497 58.3366 31.6165 54.4307C34.0613 53.9342 36.6559 53.6438 39.3722 53.6438C41.7233 53.6438 43.9713 53.8593 46.0976 54.2339C44.6083 58.3179 42.5101 61.1654 40.131 61.9428ZM45.7885 60.9125C47.0999 59.3201 48.2332 57.2875 49.1699 54.9084C50.7061 55.3486 52.1767 55.845 53.5536 56.4726C51.3337 58.4396 48.7016 59.9758 45.7885 60.9125ZM55.7735 54.159C54.0219 53.3722 52.083 52.754 50.0785 52.2201C50.3876 51.1242 50.6686 50.0002 50.8934 48.8106H47.4839C47.2966 49.7472 47.1092 50.6839 46.8938 51.5644C44.4865 51.1616 41.9856 50.9368 39.3535 50.9368C36.3468 50.9368 33.4712 51.2178 30.7829 51.7517C30.53 50.8151 30.3145 49.8409 30.1272 48.8106H26.7458C26.9987 50.0938 27.3078 51.3115 27.6544 52.5011C25.8372 52.9975 24.1231 53.6251 22.5214 54.3463C19.6083 50.9368 17.7068 46.6187 17.3228 41.8604H19.8612V38.5727H17.3228C17.6694 33.8799 19.4772 29.5899 22.3247 26.2178C23.9826 26.9672 25.7623 27.6229 27.645 28.1568C27.3359 29.1871 27.0549 30.283 26.8301 31.407H30.2115C30.3707 30.5266 30.5581 29.721 30.7735 28.9061C33.4993 29.44 36.3749 29.721 39.3441 29.721C41.9387 29.721 44.4772 29.5056 46.8844 29.0934C47.0718 29.8428 47.2591 30.5921 47.3809 31.407H50.7904C50.5749 30.3767 50.322 29.3745 50.041 28.4378C52.1392 27.9039 54.1062 27.2201 55.9234 26.4333C58.6772 29.8147 60.4288 34.0017 60.7754 38.6008H58.0309V41.9166H60.7567C60.4382 46.5532 58.621 50.7776 55.7735 54.159Z" fill="#D8EAF0"/>
<path d="M83.8927 47.059H48.1396C47.4371 47.059 46.8657 47.6303 46.8657 48.3328V71.2066C46.8657 71.9091 47.4371 72.4805 48.1396 72.4805H83.8927C84.5952 72.4805 85.1665 71.9091 85.1665 71.2066V48.3235C85.1759 47.621 84.6045 47.059 83.8927 47.059Z" fill="url(#paint1_linear)"/>
<path d="M72.3996 56.0604V63.4508L66.0114 67.1788V59.7697L72.3996 56.0604Z" fill="#50E6FF"/>
<path d="M72.3996 56.0511L66.0114 59.779L59.6233 56.0511L66.0114 52.3418L72.3996 56.0511Z" fill="#C3F1FF"/>
<path d="M66.0208 59.7884V67.1788L59.6327 63.4508V56.0604L66.0208 59.7884Z" fill="#9CEBFF"/>
<path d="M59.6327 63.4508L66.0208 59.7697V67.1788L59.6327 63.4508Z" fill="#C3F1FF"/>
<path d="M72.3996 63.4508L66.0114 59.7697V67.1788L72.3996 63.4508Z" fill="#9CEBFF"/>
<path d="M73.7016 80.1612C69.9174 79.5711 69.7675 76.8547 69.7675 72.4711H62.246C62.246 76.8547 62.1148 79.5711 58.3306 80.1612C57.8061 80.2174 57.3284 80.4703 56.9725 80.8544C56.6259 81.2478 56.4292 81.7536 56.4386 82.2781H75.5937C75.5937 81.7536 75.4063 81.2478 75.0598 80.8544C74.7038 80.4703 74.2261 80.2174 73.7016 80.1612Z" fill="url(#paint2_linear)"/>
<defs>
<linearGradient id="paint0_linear" x1="52.8511" y1="-13.294" x2="48.8683" y2="132.474" gradientUnits="userSpaceOnUse">
<stop stop-color="#007ED8"/>
<stop offset="0.7065" stop-color="#002D4C"/>
</linearGradient>
<linearGradient id="paint1_linear" x1="66.0177" y1="72.4725" x2="66.0177" y2="47.0549" gradientUnits="userSpaceOnUse">
<stop stop-color="#0078D4"/>
<stop offset="0.82" stop-color="#5EA0EF"/>
</linearGradient>
<linearGradient id="paint2_linear" x1="66.0177" y1="82.2792" x2="66.0177" y2="72.4725" gradientUnits="userSpaceOnUse">
<stop offset="0.15" stop-color="#CCCCCC"/>
<stop offset="1" stop-color="#707070"/>
</linearGradient>
</defs>
</svg>
