<svg width="103" height="103" viewBox="0 0 103 103" fill="none" xmlns="http://www.w3.org/2000/svg">
<path d="M51.7475 98.561C25.8975 98.561 4.9375 77.611 4.9375 51.751C4.9375 25.891 25.8975 4.94098 51.7475 4.94098C77.5975 4.94098 98.5575 25.901 98.5575 51.751C98.5575 77.601 77.5975 98.561 51.7475 98.561Z" fill="url(#paint0_linear)"/>
<path fill-rule="evenodd" clip-rule="evenodd" d="M97.6474 51.751C97.6474 77.101 77.0974 97.651 51.7474 97.651C26.3974 97.651 5.84742 77.101 5.84742 51.751C5.84742 26.401 26.3974 5.85096 51.7474 5.85096C77.0974 5.85096 97.6474 26.401 97.6474 51.751ZM51.7474 2.11096C79.1674 2.11096 101.387 24.331 101.387 51.751C101.387 79.171 79.1574 101.391 51.7474 101.391C24.3274 101.391 2.10742 79.161 2.10742 51.751C2.10742 24.331 24.3274 2.11096 51.7474 2.11096Z" fill="#F2F1F0"/>
<path fill-rule="evenodd" clip-rule="evenodd" d="M94.838 51.751C94.838 75.551 75.548 94.841 51.748 94.841C27.948 94.841 8.65797 75.551 8.65797 51.751C8.65797 27.951 27.948 8.66099 51.748 8.66099C75.548 8.66099 94.838 27.951 94.838 51.751ZM51.748 4.92099C77.608 4.92099 98.578 25.891 98.578 51.751C98.578 77.611 77.608 98.581 51.748 98.581C25.888 98.581 4.91797 77.611 4.91797 51.751C4.91797 25.891 25.878 4.92099 51.748 4.92099Z" fill="url(#paint1_linear)"/>
<path fill-rule="evenodd" clip-rule="evenodd" d="M66.3379 41.361C66.3379 41.0849 66.5617 40.861 66.8379 40.861H78.1379V41.861H67.3379V58.261H76.6879V59.261H66.8379C66.5617 59.261 66.3379 59.0372 66.3379 58.761V41.361Z" fill="white"/>
<path fill-rule="evenodd" clip-rule="evenodd" d="M66.5685 49.811H60.7285V48.811H66.5685V49.811Z" fill="white"/>
<path d="M88.659 37.141H70.209V47.941C70.209 48.271 70.479 48.531 70.799 48.531H88.069C88.399 48.531 88.659 48.261 88.659 47.941V37.141Z" fill="#185A97"/>
<path d="M88.029 35.551H70.839C70.489 35.551 70.209 35.831 70.209 36.181V37.531H88.669V36.181C88.659 35.831 88.379 35.551 88.029 35.551Z" fill="white"/>
<path d="M89.0789 54.291H70.6289V65.091C70.6289 65.421 70.8989 65.681 71.2189 65.681H88.4889C88.8189 65.681 89.0789 65.411 89.0789 65.091V54.291Z" fill="#185A97"/>
<path d="M88.4487 52.691H71.2687C70.9187 52.691 70.6387 52.971 70.6387 53.321V54.671H89.0987V53.321C89.0787 52.971 88.7987 52.691 88.4487 52.691Z" fill="white"/>
<path d="M85.6682 45.031C85.5382 43.851 84.5282 42.921 83.2982 42.921C82.0882 42.921 81.0782 43.831 80.9282 44.991C80.9082 45.071 80.9082 45.161 80.9082 45.241C80.9382 45.581 81.1682 45.891 81.6082 46.151C82.5382 46.681 84.0582 46.681 84.9782 46.151C85.4082 45.901 85.6382 45.581 85.6682 45.241C85.6882 45.191 85.6782 45.111 85.6682 45.031Z" fill="white"/>
<path d="M83.309 42.581C84.109 42.581 84.739 41.941 84.739 41.151C84.739 40.361 84.099 39.721 83.309 39.721C82.509 39.721 81.879 40.361 81.879 41.151C81.869 41.941 82.509 42.581 83.309 42.581Z" fill="white"/>
<path d="M82.7487 62.331C82.6087 61.021 81.4788 59.991 80.1188 59.991C78.7788 59.991 77.6487 61.001 77.4887 62.291C77.4687 62.381 77.4688 62.481 77.4688 62.571C77.4987 62.951 77.7587 63.291 78.2487 63.581C79.2787 64.171 80.9687 64.171 81.9887 63.581C82.4687 63.301 82.7188 62.951 82.7588 62.571C82.7688 62.511 82.7587 62.421 82.7487 62.331Z" fill="white"/>
<path d="M80.1292 59.621C81.0192 59.621 81.7192 58.911 81.7192 58.031C81.7192 57.151 81.0092 56.441 80.1292 56.441C79.2392 56.441 78.5392 57.151 78.5392 58.031C78.5292 58.911 79.2392 59.621 80.1292 59.621Z" fill="white"/>
<path d="M78.6877 45.031C78.5577 43.851 77.5477 42.921 76.3177 42.921C75.1077 42.921 74.0977 43.831 73.9477 44.991C73.9277 45.071 73.9277 45.161 73.9277 45.241C73.9577 45.581 74.1877 45.891 74.6277 46.151C75.5577 46.681 77.0777 46.681 77.9977 46.151C78.4277 45.901 78.6577 45.581 78.6877 45.241C78.7077 45.191 78.6977 45.111 78.6877 45.031Z" fill="white"/>
<path d="M76.3286 42.581C77.1286 42.581 77.7586 41.941 77.7586 41.151C77.7586 40.361 77.1186 39.721 76.3286 39.721C75.5286 39.721 74.8986 40.361 74.8986 41.151C74.8886 41.941 75.5286 42.581 76.3286 42.581Z" fill="white"/>
<g opacity="0.15">
<path opacity="0.15" d="M61.9288 37.2009H15.4288C14.7988 37.2009 14.2988 37.7109 14.2988 38.3309V66.3309C14.2988 66.9609 14.8088 67.4609 15.4288 67.4609H61.9288C62.5588 67.4609 63.0588 66.9509 63.0588 66.3309V38.3309C63.0588 37.7109 62.5588 37.2009 61.9288 37.2009Z" fill="#1F1D20"/>
</g>
<path d="M61.9288 35.4209H15.4288C14.7988 35.4209 14.2988 35.9309 14.2988 36.5509V64.5509C14.2988 65.1809 14.8088 65.6809 15.4288 65.6809H61.9288C62.5588 65.6809 63.0588 65.1709 63.0588 64.5509V36.5509C63.0588 35.9309 62.5588 35.4209 61.9288 35.4209Z" fill="#002D4C"/>
<path d="M28.779 60.5109C34.199 60.5109 38.599 56.1209 38.599 50.6909C38.599 45.2709 34.209 40.8709 28.779 40.8709C23.359 40.8709 18.959 45.2609 18.959 50.6909C18.959 56.1209 23.359 60.5109 28.779 60.5109Z" fill="white"/>
<path d="M33.558 54.6909C33.288 52.2609 31.198 50.3409 28.678 50.3409C26.168 50.3409 24.108 52.2109 23.798 54.6209C23.748 54.7909 23.748 54.9809 23.748 55.1409C23.808 55.8309 24.288 56.4909 25.188 57.0109C27.108 58.1109 30.238 58.1109 32.138 57.0109C33.038 56.4909 33.498 55.8309 33.558 55.1409C33.598 55.0009 33.578 54.8309 33.558 54.6909Z" fill="url(#paint2_radial)"/>
<path d="M28.6788 49.6409C30.3188 49.6409 31.6388 48.3209 31.6388 46.7009C31.6388 45.0709 30.3088 43.7609 28.6788 43.7609C27.0388 43.7609 25.7188 45.0809 25.7188 46.7009C25.7188 48.3209 27.0488 49.6409 28.6788 49.6409Z" fill="url(#paint3_radial)"/>
<path d="M57.768 43.3909H43.538C42.918 43.3909 42.418 43.9009 42.418 44.5109C42.418 45.1309 42.928 45.6309 43.538 45.6309H57.758C58.378 45.6309 58.878 45.1209 58.878 44.5109C58.888 43.8909 58.388 43.3909 57.768 43.3909Z" fill="#50E6FF"/>
<path d="M57.768 48.2509H43.538C42.918 48.2509 42.418 48.7609 42.418 49.3709C42.418 49.9909 42.928 50.4909 43.538 50.4909H57.758C58.378 50.4909 58.878 49.9809 58.878 49.3709C58.888 48.7609 58.388 48.2509 57.768 48.2509Z" fill="#32B0E7"/>
<path fill-rule="evenodd" clip-rule="evenodd" d="M43.538 53.4909H57.768C58.388 53.4909 58.888 54.0009 58.888 54.6109C58.888 55.2309 58.378 55.7309 57.768 55.7309H43.538C42.918 55.7309 42.418 55.2209 42.418 54.6109C42.418 54.0009 42.918 53.4909 43.538 53.4909Z" fill="#185A97"/>
<path d="M44.9082 44.5009C44.9082 45.6609 45.8482 46.5909 46.9982 46.5909C48.1582 46.6009 49.0982 45.6609 49.0982 44.5009C49.0982 43.3409 48.1582 42.4109 47.0082 42.4109C45.8482 42.4109 44.9082 43.3409 44.9082 44.5009Z" fill="url(#paint4_linear)"/>
<path d="M51.9277 49.4709C51.9277 50.6309 52.8677 51.5609 54.0177 51.5609C55.1777 51.5709 56.1177 50.6309 56.1177 49.4709C56.1177 48.3109 55.1777 47.3809 54.0277 47.3809C52.8677 47.3809 51.9277 48.3209 51.9277 49.4709Z" fill="url(#paint5_linear)"/>
<path d="M46.5684 54.7409C46.5684 55.9009 47.5084 56.8309 48.6584 56.8309C49.8184 56.8409 50.7584 55.9009 50.7584 54.7409C50.7584 53.5809 49.8184 52.6509 48.6684 52.6509C47.5084 52.6509 46.5684 53.5809 46.5684 54.7409Z" fill="url(#paint6_linear)"/>
<defs>
<linearGradient id="paint0_linear" x1="49.9776" y1="-13.0385" x2="53.9596" y2="132.731" gradientUnits="userSpaceOnUse">
<stop stop-color="#00ABDE"/>
<stop offset="1" stop-color="#007ED8"/>
</linearGradient>
<linearGradient id="paint1_linear" x1="3.18117" y1="-19.874" x2="98.7092" y2="121.008" gradientUnits="userSpaceOnUse">
<stop stop-color="#007ED8"/>
<stop offset="0.7065" stop-color="#002D4C"/>
</linearGradient>
<radialGradient id="paint2_radial" cx="0" cy="0" r="1" gradientUnits="userSpaceOnUse" gradientTransform="translate(25.8365 45.9146) scale(20.6551)">
<stop stop-color="#4FC2EB"/>
<stop offset="0.585" stop-color="#2E76BC"/>
</radialGradient>
<radialGradient id="paint3_radial" cx="0" cy="0" r="1" gradientUnits="userSpaceOnUse" gradientTransform="translate(25.8372 45.9146) scale(20.6551)">
<stop stop-color="#4FC2EB"/>
<stop offset="0.585" stop-color="#2E76BC"/>
</radialGradient>
<linearGradient id="paint4_linear" x1="44.9127" y1="44.4996" x2="49.097" y2="44.4996" gradientUnits="userSpaceOnUse">
<stop stop-color="#D2EBFF"/>
<stop offset="1" stop-color="#F0FFFD"/>
</linearGradient>
<linearGradient id="paint5_linear" x1="51.9318" y1="49.4719" x2="56.1161" y2="49.4719" gradientUnits="userSpaceOnUse">
<stop stop-color="#D2EBFF"/>
<stop offset="1" stop-color="#F0FFFD"/>
</linearGradient>
<linearGradient id="paint6_linear" x1="46.5703" y1="54.7366" x2="50.7546" y2="54.7366" gradientUnits="userSpaceOnUse">
<stop stop-color="#D2EBFF"/>
<stop offset="1" stop-color="#F0FFFD"/>
</linearGradient>
</defs>
</svg>
