<svg width="103" height="103" viewBox="0 0 103 103" fill="none" xmlns="http://www.w3.org/2000/svg">
<path d="M51.7426 97.9423C25.8926 97.9423 4.93262 76.9923 4.93262 51.1323C4.93262 25.2723 25.8926 4.32227 51.7426 4.32227C77.5926 4.32227 98.5526 25.2823 98.5526 51.1323C98.5526 76.9823 77.5926 97.9423 51.7426 97.9423Z" fill="url(#paint0_linear_1148_1683)"/>
<path fill-rule="evenodd" clip-rule="evenodd" d="M97.6425 51.1324C97.6425 76.4824 77.0925 97.0324 51.7425 97.0324C26.3925 97.0324 5.84254 76.4824 5.84254 51.1324C5.84254 25.7824 26.3925 5.23244 51.7425 5.23244C77.0925 5.23244 97.6425 25.7824 97.6425 51.1324ZM51.7425 1.49243C79.1625 1.49243 101.383 23.7124 101.383 51.1324C101.383 78.5524 79.1525 100.772 51.7425 100.772C24.3225 100.772 2.10254 78.5424 2.10254 51.1324C2.10254 23.7124 24.3225 1.49243 51.7425 1.49243Z" fill="#F2F1F0"/>
<path fill-rule="evenodd" clip-rule="evenodd" d="M94.8321 51.1324C94.8321 74.9324 75.5421 94.2224 51.7421 94.2224C27.9421 94.2224 8.65211 74.9324 8.65211 51.1324C8.65211 27.3324 27.9421 8.04237 51.7421 8.04237C75.5421 8.04237 94.8321 27.3324 94.8321 51.1324ZM51.7421 4.30237C77.6021 4.30237 98.5721 25.2724 98.5721 51.1324C98.5721 76.9924 77.6021 97.9624 51.7421 97.9624C25.8821 97.9624 4.91211 76.9924 4.91211 51.1324C4.91211 25.2724 25.8721 4.30237 51.7421 4.30237Z" fill="url(#paint1_linear_1148_1683)"/>
<path opacity="0.2" d="M76.8516 80.417C78.0964 80.417 79.1036 79.4098 79.1036 78.1649V24.9188H22.2021V78.1649C22.2021 79.4098 23.2094 80.417 24.4542 80.417H76.8516Z" fill="#1F1D21"/>
<path d="M79.1036 24.8954V24.0127C79.1036 22.9149 78.2209 22.0322 77.1232 22.0322H24.1826C23.0849 22.0322 22.2021 22.9149 22.2021 24.0127V24.9859V25.88V76.5458C22.2021 77.6436 23.0849 78.5263 24.1826 78.5263H77.1458C78.2436 78.5263 79.1263 77.6436 79.1263 76.5458V24.9859C79.115 24.952 79.1036 24.9294 79.1036 24.8954Z" fill="url(#paint2_linear_1148_1683)"/>
<path d="M70.7252 62.5005H79.8652V63.1005H70.7252V62.5005Z" fill="#595555"/>
<path d="M70.7252 51.9707H79.8652V52.5707H70.7252V51.9707Z" fill="#747479"/>
<path opacity="0.15" d="M77.9058 31.1433C77.7122 31.1433 77.5265 31.2202 77.3896 31.3571C77.2527 31.494 77.1758 31.6796 77.1758 31.8732V35.8732C77.1758 36.0668 77.2527 36.2526 77.3896 36.3895C77.5265 36.5264 77.7122 36.6032 77.9058 36.6032L79.1318 36.603V31.1431L77.9058 31.1433Z" fill="#1F1D20"/>
<rect opacity="0.15" x="74.3184" y="33.4668" width="3.00761" height="0.505036" fill="#1F1D20"/>
<rect opacity="0.15" x="74.3184" y="40.059" width="3.00761" height="0.505036" fill="#1F1D20"/>
<path opacity="0.15" d="M77.9058 37.8986C77.7122 37.8986 77.5265 37.9756 77.3896 38.1125C77.2527 38.2494 77.1758 38.435 77.1758 38.6286V42.6286C77.1758 42.8222 77.2527 43.0079 77.3896 43.1448C77.5265 43.2817 77.7122 43.3586 77.9058 43.3586L79.1318 43.3584V37.8984L77.9058 37.8986Z" fill="#1F1D20"/>
<path opacity="0.15" d="M78.0562 49.9482C77.8626 49.9482 77.6769 50.0252 77.54 50.1621C77.4031 50.299 77.3262 50.4846 77.3262 50.6782V54.6782C77.3262 54.8718 77.4031 55.0576 77.54 55.1945C77.6769 55.3314 77.8626 55.4082 78.0562 55.4082L79.1182 55.4082V49.9482H78.0562Z" fill="#1F1D20"/>
<rect opacity="0.15" x="74.3184" y="52.2717" width="3.00761" height="0.505036" fill="#747479"/>
<path opacity="0.15" d="M78.0562 60.5105C77.8626 60.5105 77.6769 60.5875 77.54 60.7244C77.4031 60.8613 77.3262 61.0469 77.3262 61.2405V65.2405C77.3262 65.4341 77.4031 65.6198 77.54 65.7567C77.6769 65.8936 77.8626 65.9705 78.0562 65.9705L79.1182 65.9705V60.5105H78.0562Z" fill="#1F1D20"/>
<rect opacity="0.15" x="74.3184" y="62.8342" width="3.00761" height="0.505036" fill="#1F1D20"/>
<path opacity="0.15" d="M78.0562 67.1849C77.8626 67.1849 77.6769 67.2619 77.54 67.3988C77.4031 67.5357 77.3262 67.7213 77.3262 67.9149V71.9149C77.3262 72.1085 77.4031 72.2943 77.54 72.4312C77.6769 72.5681 77.8626 72.6449 78.0562 72.6449L79.1182 72.6449V67.1849H78.0562Z" fill="#1F1D20"/>
<rect opacity="0.15" x="74.3184" y="69.5087" width="3.00761" height="0.505036" fill="#1F1D20"/>
<path d="M70.7252 69.1406H79.8652V69.7406H70.7252V69.1406Z" fill="#595555"/>
<path d="M84.6692 72.3706H78.0692C77.6692 72.3706 77.3392 72.0506 77.3392 71.6406V67.5906C77.3392 67.1906 77.6592 66.8606 78.0692 66.8606H84.6792C85.0792 66.8506 85.4092 67.1806 85.4092 67.5906V71.6306C85.3892 72.0406 85.0692 72.3706 84.6692 72.3706Z" fill="#0164AA"/>
<path d="M84.6838 65.6506H78.0838C77.6838 65.6506 77.3538 65.3306 77.3538 64.9206V60.8806C77.3538 60.4806 77.6738 60.1506 78.0838 60.1506H84.6938C85.0938 60.1406 85.4238 60.4706 85.4238 60.8806V64.9206C85.4038 65.3206 85.0838 65.6506 84.6838 65.6506Z" fill="#30BBEF"/>
<path d="M84.6663 55.0207H78.0663C77.6663 55.0207 77.3362 54.7007 77.3362 54.2907V50.2507C77.3362 49.8507 77.6563 49.5207 78.0663 49.5207H84.6762C85.0762 49.5107 85.4062 49.8407 85.4062 50.2507V54.2907C85.3863 54.6907 85.0663 55.0207 84.6663 55.0207Z" fill="#34C1F1"/>
<path d="M70.7252 39.7051H79.8652V40.3051H70.7252V39.7051Z" fill="#B8B9BA"/>
<path d="M84.4758 42.9353H77.8758C77.4758 42.9353 77.1458 42.6153 77.1458 42.2053V38.1653C77.1458 37.7653 77.4658 37.4353 77.8758 37.4353H84.4858C84.8858 37.4253 85.2158 37.7553 85.2158 38.1653V42.2053C85.1958 42.6053 84.8758 42.9353 84.4758 42.9353Z" fill="#5EE8FF"/>
<path d="M70.7252 33.0649H79.8652V33.6649H70.7252V33.0649Z" fill="#CCCDCE"/>
<path d="M84.4758 36.2151H77.8758C77.4758 36.2151 77.1458 35.8951 77.1458 35.4851V31.4451C77.1458 31.0451 77.4658 30.7151 77.8758 30.7151H84.4858C84.8858 30.7051 85.2158 31.0351 85.2158 31.4451V35.4851C85.1958 35.8851 84.8758 36.2151 84.4758 36.2151Z" fill="#9FF1FD"/>
<path opacity="0.15" d="M73.5772 60.7437H29.0922C28.5201 60.7437 28.0508 61.213 28.0508 61.785V76.7166C28.0508 77.2886 28.5201 77.758 29.0922 77.758H73.5772C74.1492 77.758 74.6186 77.2886 74.6186 76.7166V61.785C74.6186 61.1983 74.1492 60.7437 73.5772 60.7437Z" fill="#1F1D20"/>
<path opacity="0.15" d="M73.5772 28.8252H29.0922C28.5201 28.8252 28.0508 29.2946 28.0508 29.8666V44.7982C28.0508 45.3702 28.5201 45.8395 29.0922 45.8395H73.5772C74.1492 45.8395 74.6186 45.3702 74.6186 44.7982V29.8666C74.6186 29.2946 74.1492 28.8252 73.5772 28.8252Z" fill="#1F1D20"/>
<path d="M68.6475 27.79H29.1625C28.5905 27.79 28.1211 28.2594 28.1211 28.8314V43.763C28.1211 44.335 28.5905 44.8044 29.1625 44.8044H68.6475C69.2196 44.8044 69.6889 44.335 69.6889 43.763V28.8314C69.6889 28.2594 69.2196 27.79 68.6475 27.79Z" fill="url(#paint3_linear_1148_1683)"/>
<path d="M68.6475 59.6624H29.1625C28.5905 59.6624 28.1211 60.1317 28.1211 60.7037V75.6353C28.1211 76.2073 28.5905 76.6767 29.1625 76.6767H68.6475C69.2196 76.6767 69.6889 76.2073 69.6889 75.6353V60.7037C69.6889 60.117 69.2196 59.6624 68.6475 59.6624Z" fill="url(#paint4_linear_1148_1683)"/>
<path opacity="0.15" d="M73.5772 47.7324H29.0922C28.5201 47.7324 28.0508 48.2018 28.0508 48.7738V57.8384C28.0508 58.4104 28.5201 58.8798 29.0922 58.8798H73.5772C74.1492 58.8798 74.6186 58.4104 74.6186 57.8384V48.7738C74.6186 48.2018 74.1492 47.7324 73.5772 47.7324Z" fill="#1F1D20"/>
<path d="M68.6475 46.6967H29.1625C28.5905 46.6967 28.1211 47.166 28.1211 47.738V56.8026C28.1211 57.3746 28.5905 57.844 29.1625 57.844H68.6475C69.2196 57.844 69.6889 57.3746 69.6889 56.8026V47.738C69.6889 47.166 69.2196 46.6967 68.6475 46.6967Z" fill="url(#paint5_linear_1148_1683)"/>
<path d="M73.5772 27.79H34.0922C33.5201 27.79 33.0508 28.2594 33.0508 28.8314V43.763C33.0508 44.335 33.5201 44.8044 34.0922 44.8044H73.5772C74.1492 44.8044 74.6186 44.335 74.6186 43.763V28.8314C74.6186 28.2594 74.1492 27.79 73.5772 27.79Z" fill="#282828"/>
<path d="M38.0967 32.1759H37.73C37.4954 32.1759 37.3047 32.3666 37.3047 32.6013V32.7626C37.3047 32.9973 37.4954 33.188 37.73 33.188H38.0967C38.3314 33.188 38.5221 32.9973 38.5221 32.7626V32.6013C38.5221 32.3519 38.3314 32.1759 38.0967 32.1759Z" fill="#D5F9FD"/>
<path d="M38.5221 34.6105H37.3047V35.6225H38.5221V34.6105Z" fill="#ACF3FD"/>
<path d="M38.5221 36.8402H37.3047V37.8523H38.5221V36.8402Z" fill="#84ECFD"/>
<path d="M38.5221 39.2899H37.3047V40.302H38.5221V39.2899Z" fill="#50E6FF"/>
<path d="M45.0199 36.8402H41.7637V37.8523H45.0199V36.8402Z" fill="#84ECFD"/>
<path d="M57.6339 32.1614H42.277C42.013 32.1614 41.8076 32.3667 41.8076 32.6307C41.8076 32.8948 42.013 33.1001 42.277 33.1001H57.6486C57.9126 33.1001 58.1179 32.8948 58.1179 32.6307C58.1179 32.3667 57.8979 32.1614 57.6339 32.1614Z" fill="#D5F9FD"/>
<path d="M62.7677 36.8992H46.6334C46.3694 36.8992 46.1641 37.1045 46.1641 37.3685C46.1641 37.6325 46.3694 37.8379 46.6334 37.8379H62.7677C63.0317 37.8379 63.2371 37.6325 63.2371 37.3685C63.2371 37.1192 63.0317 36.8992 62.7677 36.8992Z" fill="#84ECFD"/>
<path d="M52.5147 39.3629H42.4528C42.1887 39.3629 41.9834 39.5683 41.9834 39.8323C41.9834 40.0963 42.1887 40.3016 42.4528 40.3016H52.5147C52.7787 40.3016 52.9841 40.0963 52.9841 39.8323C52.9841 39.5829 52.7787 39.3629 52.5147 39.3629Z" fill="#50E6FF"/>
<path d="M73.5772 59.6624H34.0922C33.5201 59.6624 33.0508 60.1317 33.0508 60.7037V75.6353C33.0508 76.2073 33.5201 76.6767 34.0922 76.6767H73.5772C74.1492 76.6767 74.6186 76.2073 74.6186 75.6353V60.7037C74.6186 60.117 74.1492 59.6624 73.5772 59.6624Z" fill="#282828"/>
<path d="M38.0967 64.0339H37.73C37.4954 64.0339 37.3047 64.2246 37.3047 64.4593V64.6206C37.3047 64.8553 37.4954 65.046 37.73 65.046H38.0967C38.3314 65.046 38.5221 64.8553 38.5221 64.6206V64.4593C38.5221 64.2246 38.3314 64.0339 38.0967 64.0339Z" fill="#0179CE"/>
<path d="M38.5221 66.4684H37.3047V67.4804H38.5221V66.4684Z" fill="#016CB8"/>
<path d="M38.5221 68.7126H37.3047V69.7247H38.5221V68.7126Z" fill="#01538D"/>
<path d="M38.5221 71.1477H37.3047V72.1598H38.5221V71.1477Z" fill="#01416E"/>
<path d="M45.0199 68.7126H41.7637V69.7247H45.0199V68.7126Z" fill="#01538D"/>
<path d="M57.6339 64.0193H42.277C42.013 64.0193 41.8076 64.2246 41.8076 64.4886C41.8076 64.7527 42.013 64.958 42.277 64.958H57.6486C57.9126 64.958 58.1179 64.7527 58.1179 64.4886C58.1179 64.2393 57.8979 64.0193 57.6339 64.0193Z" fill="#0179CE"/>
<path d="M62.7677 68.771H46.6334C46.3694 68.771 46.1641 68.9763 46.1641 69.2404C46.1641 69.5044 46.3694 69.7097 46.6334 69.7097H62.7677C63.0317 69.7097 63.2371 69.5044 63.2371 69.2404C63.2371 68.9763 63.0317 68.771 62.7677 68.771Z" fill="#01538D"/>
<path d="M52.5147 71.2352H42.4528C42.1887 71.2352 41.9834 71.4406 41.9834 71.7046C41.9834 71.9686 42.1887 72.174 42.4528 72.174H52.5147C52.7787 72.174 52.9841 71.9686 52.9841 71.7046C52.9841 71.4406 52.7787 71.2352 52.5147 71.2352Z" fill="#01416E"/>
<path d="M73.5772 46.6967H34.0922C33.5201 46.6967 33.0508 47.166 33.0508 47.738V56.8026C33.0508 57.3746 33.5201 57.844 34.0922 57.844H73.5772C74.1492 57.844 74.6186 57.3746 74.6186 56.8026V47.738C74.6186 47.166 74.1492 46.6967 73.5772 46.6967Z" fill="#282828"/>
<path d="M38.0967 51.0677H37.73C37.4954 51.0677 37.3047 51.2584 37.3047 51.4931V51.6545C37.3047 51.8891 37.4954 52.0798 37.73 52.0798H38.0967C38.3314 52.0798 38.5221 51.8891 38.5221 51.6545V51.4931C38.5221 51.2584 38.3314 51.0677 38.0967 51.0677Z" fill="#34C1F1"/>
<path d="M38.5221 53.5031H37.3047V54.5151H38.5221V53.5031Z" fill="#1497E2"/>
<path d="M57.6339 51.0533H42.277C42.013 51.0533 41.8076 51.2587 41.8076 51.5227C41.8076 51.7867 42.013 51.9921 42.277 51.9921H57.6486C57.9126 51.9921 58.1179 51.7867 58.1179 51.5227C58.1179 51.2734 57.8979 51.0533 57.6339 51.0533Z" fill="#34C1F1"/>
<path opacity="0.2" d="M79.72 80.9937C80.2346 80.9937 80.651 80.5774 80.651 80.0627V58.0518H57.1289V80.0627C57.1289 80.5774 57.5453 80.9937 58.0599 80.9937H79.72Z" fill="#1F1D21"/>
<path d="M80.651 58.042V57.6771C80.651 57.2233 80.2861 56.8584 79.8323 56.8584H57.9476C57.4938 56.8584 57.1289 57.2233 57.1289 57.6771V58.0794V58.449V79.3933C57.1289 79.8471 57.4938 80.212 57.9476 80.212H79.8416C80.2954 80.212 80.6603 79.8471 80.6603 79.3933V58.0794C80.6556 58.0654 80.651 58.056 80.651 58.042Z" fill="white"/>
<path opacity="0.15" d="M74.3561 76.0355H60.2606C60.1664 76.0346 60.0736 76.0129 59.9889 75.9716C59.9042 75.9301 59.8299 75.8703 59.7714 75.7965C59.7129 75.7227 59.6716 75.6367 59.6506 75.5447C59.6296 75.4529 59.6295 75.3576 59.6502 75.2656L62.5594 62.9245C62.617 62.6893 62.7518 62.4803 62.9422 62.3307C63.1327 62.1811 63.3677 62.0998 63.6099 62.0996H77.5293C77.6236 62.1004 77.7163 62.1223 77.8011 62.1637C77.8856 62.2051 77.96 62.2649 78.0186 62.3387C78.077 62.4125 78.1183 62.4985 78.1395 62.5904C78.1604 62.6822 78.1604 62.7776 78.1398 62.8696L75.1921 75.3812C75.1454 75.5676 75.0379 75.7335 74.8865 75.852C74.7351 75.9705 74.5484 76.0352 74.3561 76.0355Z" fill="#1F1D20"/>
<path d="M74.3561 75.246H60.2606C60.1664 75.2451 60.0736 75.2233 59.9889 75.1821C59.9042 75.1405 59.8299 75.0807 59.7714 75.0069C59.7129 74.9332 59.6716 74.8472 59.6506 74.7551C59.6296 74.6633 59.6295 74.5681 59.6502 74.476L62.5594 62.135C62.617 61.8998 62.7518 61.6907 62.9422 61.5411C63.1327 61.3916 63.3677 61.3102 63.6099 61.3101H77.5293C77.6236 61.3109 77.7163 61.3328 77.8011 61.3742C77.8856 61.4155 77.96 61.4753 78.0186 61.5491C78.077 61.623 78.1183 61.709 78.1395 61.8008C78.1604 61.8927 78.1604 61.9881 78.1398 62.08L75.1921 74.5916C75.1454 74.7781 75.0379 74.9439 74.8865 75.0624C74.7351 75.1809 74.5484 75.2457 74.3561 75.246Z" fill="url(#paint6_linear_1148_1683)"/>
<path d="M72.3156 73.4088H68.8508C68.7561 73.409 68.6622 73.3905 68.5746 73.3544C68.4871 73.3182 68.4075 73.2652 68.3404 73.1983C68.2734 73.1314 68.2202 73.0519 68.1839 72.9644C68.1476 72.8769 68.1289 72.7831 68.1289 72.6883C68.1289 72.5936 68.1476 72.4998 68.1839 72.4123C68.2202 72.3248 68.2734 72.2453 68.3404 72.1784C68.4075 72.1115 68.4871 72.0584 68.5746 72.0223C68.6622 71.9862 68.7561 71.9677 68.8508 71.9679H72.3156C72.5064 71.9683 72.6892 72.0443 72.8241 72.1794C72.9589 72.3145 73.0345 72.4975 73.0345 72.6883C73.0345 72.8792 72.9589 73.0622 72.8241 73.1973C72.6892 73.3323 72.5064 73.4084 72.3156 73.4088Z" fill="white"/>
<path d="M66.6621 63.02L70.8913 67.4306C70.9883 67.5316 71.0624 67.6522 71.1085 67.7843C71.1546 67.9164 71.1717 68.057 71.1587 68.1963C71.1457 68.3356 71.1027 68.4705 71.0329 68.5918C70.963 68.7131 70.8678 68.8179 70.7539 68.899L64.3358 73.4472C64.1564 73.5751 63.9336 73.6265 63.7163 73.5902C63.499 73.5539 63.305 73.4329 63.1768 73.2537C63.0486 73.0745 62.9967 72.8519 63.0326 72.6345C63.0684 72.4171 63.189 72.2229 63.3679 72.0943L69.0655 68.0136L65.4687 64.1474C65.3221 63.9886 65.244 63.7784 65.2514 63.5624C65.2588 63.3465 65.351 63.1421 65.5081 62.9937C65.6652 62.8453 65.8745 62.7648 66.0905 62.7697C66.3065 62.7747 66.5119 62.8646 66.6621 63.02Z" fill="white"/>
<defs>
<linearGradient id="paint0_linear_1148_1683" x1="49.9687" y1="-13.6572" x2="53.9507" y2="132.113" gradientUnits="userSpaceOnUse">
<stop stop-color="#00ABDE"/>
<stop offset="1" stop-color="#007ED8"/>
</linearGradient>
<linearGradient id="paint1_linear_1148_1683" x1="3.17251" y1="-20.4902" x2="98.7" y2="120.391" gradientUnits="userSpaceOnUse">
<stop stop-color="#007ED8"/>
<stop offset="0.7065" stop-color="#002D4C"/>
</linearGradient>
<linearGradient id="paint2_linear_1148_1683" x1="50.6642" y1="22.0322" x2="50.6642" y2="78.5263" gradientUnits="userSpaceOnUse">
<stop stop-color="#282827"/>
<stop offset="1" stop-color="#282827" stop-opacity="0"/>
</linearGradient>
<linearGradient id="paint3_linear_1148_1683" x1="48.905" y1="27.79" x2="48.905" y2="44.8044" gradientUnits="userSpaceOnUse">
<stop stop-color="#D5F9FD"/>
<stop offset="0.300347" stop-color="#ACF3FD"/>
<stop offset="0.638889" stop-color="#84ECFD"/>
<stop offset="0.940972" stop-color="#50E6FF"/>
</linearGradient>
<linearGradient id="paint4_linear_1148_1683" x1="48.905" y1="59.6624" x2="48.905" y2="76.6767" gradientUnits="userSpaceOnUse">
<stop stop-color="#016CB8"/>
<stop offset="0.35243" stop-color="#016CB8"/>
<stop offset="0.649305" stop-color="#01538D"/>
<stop offset="1" stop-color="#01416E"/>
</linearGradient>
<linearGradient id="paint5_linear_1148_1683" x1="48.905" y1="46.6967" x2="48.905" y2="57.844" gradientUnits="userSpaceOnUse">
<stop offset="0.404514" stop-color="#34C1F1"/>
<stop offset="1" stop-color="#1497E2"/>
</linearGradient>
<linearGradient id="paint6_linear_1148_1683" x1="45.9376" y1="59.3305" x2="86.4702" y2="75.1278" gradientUnits="userSpaceOnUse">
<stop stop-color="#007ED8"/>
<stop offset="0.7065" stop-color="#002D4C"/>
</linearGradient>
</defs>
</svg>
