<?xml version="1.0" encoding="UTF-8"?>
<svg width="100px" height="100px" viewBox="0 0 100 100" version="1.1" xmlns="http://www.w3.org/2000/svg" xmlns:xlink="http://www.w3.org/1999/xlink">
    <!-- Generator: Sketch 52.6 (67491) - http://www.bohemiancoding.com/sketch -->
    <title>Application Foundations/integrating-cloud</title>
    <desc>Created with Sketch.</desc>
    <defs>
        <rect id="path-1" x="0" y="0" width="96" height="96" rx="48"></rect>
        <filter x="-10.5%" y="-10.5%" width="121.1%" height="121.1%" filterUnits="objectBoundingBox" id="filter-3">
            <feOffset dx="0" dy="2" in="SourceAlpha" result="shadowOffsetOuter1"></feOffset>
            <feColorMatrix values="0 0 0 0 0   0 0 0 0 0   0 0 0 0 0  0 0 0 0.0964956975 0" type="matrix" in="shadowOffsetOuter1" result="shadowMatrixOuter1"></feColorMatrix>
            <feMerge>
                <feMergeNode in="shadowMatrixOuter1"></feMergeNode>
                <feMergeNode in="SourceGraphic"></feMergeNode>
            </feMerge>
        </filter>
        <filter x="-10.5%" y="-10.7%" width="121.1%" height="122.9%" filterUnits="objectBoundingBox" id="filter-4">
            <feOffset dx="0" dy="2" in="SourceAlpha" result="shadowOffsetOuter1"></feOffset>
            <feColorMatrix values="0 0 0 0 0   0 0 0 0 0   0 0 0 0 0  0 0 0 0.0964956975 0" type="matrix" in="shadowOffsetOuter1" result="shadowMatrixOuter1"></feColorMatrix>
            <feMerge>
                <feMergeNode in="shadowMatrixOuter1"></feMergeNode>
                <feMergeNode in="SourceGraphic"></feMergeNode>
            </feMerge>
        </filter>
    </defs>
    <g id="Badges" stroke="none" stroke-width="1" fill="none" fill-rule="evenodd">
        <g id="Application-Foundations" transform="translate(-50.000000, -660.000000)">
            <g id="Application-Foundations/integrating-cloud" transform="translate(50.000000, 660.000000)">
                <g id="Mask" transform="translate(2.000000, 2.000000)">
                    <mask id="mask-2" fill="white">
                        <use xlink:href="#path-1"></use>
                    </mask>
                    <use id="BG" fill="#55A2FF" xlink:href="#path-1"></use>
                    <g id="Clouds" mask="url(#mask-2)">
                        <g transform="translate(-9.000000, 11.000000)">
                            <g id="Cloud" transform="translate(0.000000, 28.000000)">
                                <path d="M14.8753622,12 C14.9763622,12 15.0743622,12.013 15.1743622,12.015 C16.5583622,5.161 22.6133622,0 29.8753622,0 C36.3673622,0 41.8793622,4.131 43.9673622,9.902 C45.1513622,9.33 46.4733622,9 47.8753622,9 C52.8463622,9 56.8753622,13.029 56.8753622,18 C56.8753622,18.142 56.8603622,18.279 56.8543622,18.419 C61.4803622,19.72 64.8753622,23.959 64.8753622,29 C64.8753622,35.075 59.9503622,40 53.8753622,40 L14.8753622,40 C7.14336223,40 0.875362232,33.732 0.875362232,26 C0.875362232,18.268 7.14336223,12 14.8753622,12" id="Fill-11" fill="#FBFFFC"></path>
                                <path d="M54.6343622,18.038 C55.3993622,18.091 56.1403622,18.219 56.8543622,18.419 C56.8603622,18.279 56.8753622,18.142 56.8753622,18 C56.8753622,15.004 55.4053622,12.357 53.1543622,10.721 C54.2323622,12.205 54.8753622,14.025 54.8753622,16 C54.8753622,16.702 54.7863622,17.382 54.6343622,18.038" id="Fill-12" fill="#C5CCCD"></path>
                                <path d="M39.8753622,40 L53.5273622,40 C59.5073622,40 64.6563622,35.376 64.8683622,29.4 C65.0093622,25.432 63.0463622,21.912 60.0073622,19.868 C61.5203622,22.116 62.2253622,24.951 61.7053622,27.961 C60.9783622,32.168 57.7503622,35.628 53.6073622,36.66 C51.2923622,37.237 49.0763622,37.048 47.1133622,36.332 C48.2163622,34.839 48.8753622,32.999 48.8753622,31 C48.8753622,28.004 47.4053622,25.357 45.1543622,23.721 C46.5113622,25.589 47.1793622,27.99 46.7423622,30.56 C46.1143622,34.258 43.1353622,37.238 39.4383622,37.867 C38.6703622,37.997 37.9173622,38.029 37.1893622,37.974 C34.3363622,37.756 31.9833622,35.661 31.1893622,32.912 C31.0033622,32.266 30.8753622,31.604 30.8753622,31 C30.8753622,30.637 30.9013622,30.281 30.9453622,29.93 C31.1213622,28.444 31.6563622,27.069 32.4663622,25.896 C31.3163622,26.358 30.1013622,26.692 28.8323622,26.858 C28.8493622,26.573 28.8753622,26.29 28.8753622,26 C28.8753622,21.368 26.6163622,17.274 23.1503622,14.725 C25.2473622,17.579 26.3083622,21.242 25.7093622,25.174 C24.8023622,31.13 20.0053622,35.927 14.0493622,36.834 C10.1173622,37.433 6.45436223,36.372 3.60036223,34.275 C6.14936223,37.741 10.2433622,40 14.8753622,40 L39.8753622,40" id="Fill-13" fill="#C5CCCD"></path>
                                <path d="M39.8753622,22 C40.9173622,22 41.9143622,22.186 42.8453622,22.512 C44.1283622,20.301 44.8753622,17.74 44.8753622,15 C44.8753622,10.092 42.5073622,5.748 38.8633622,3.012 C40.7463622,5.518 41.8753622,8.624 41.8753622,12 C41.8753622,15.972 40.3203622,19.571 37.7983622,22.25 C38.4663622,22.092 39.1593622,22 39.8753622,22" id="Fill-14" fill="#C5CCCD"></path>
                            </g>
                            <g id="Gear" filter="url(#filter-3)" transform="translate(24.000000, 0.000000)">
                                <path d="M24.5544308,18.7076923 C24.5544308,21.9312615 21.9312615,24.5538462 18.7082769,24.5538462 C15.4847077,24.5538462 12.8621231,21.9312615 12.8621231,18.7076923 C12.8621231,15.4841231 15.4847077,12.8615385 18.7082769,12.8615385 C21.9312615,12.8615385 24.5544308,15.4841231 24.5544308,18.7076923 Z M35.3587077,15.5589538 L32.6402462,14.9544615 C32.4175077,14.9053538 32.0708308,14.5896615 32.0012615,14.3721846 C31.9924923,14.3423692 31.9813846,14.3131385 31.9691077,14.2844923 L31.2190462,12.4616615 C31.2061846,12.4300923 31.1915692,12.3985231 31.1757846,12.3681231 C31.0705538,12.1664308 31.0910154,11.7016615 31.2132,11.5104923 L32.7086462,9.16033846 C33.3429538,8.16356923 33.1851077,6.72833846 32.3502769,5.89292308 L31.5230462,5.06569231 C30.7075077,4.24956923 29.2313538,4.08646154 28.2556308,4.70732308 L25.9048923,6.20218462 C25.8265538,6.25304615 25.6412308,6.30741538 25.4214154,6.30741538 C25.2413538,6.30741538 25.1074769,6.27116923 25.0478462,6.24018462 C25.0180308,6.22381538 24.9858769,6.20978462 24.9537231,6.19692308 L23.1314769,5.44627692 C23.1028308,5.43458462 23.0736,5.42347692 23.0437846,5.41470769 C22.8268923,5.34513846 22.5106154,4.99846154 22.4615077,4.77513846 L21.8576,2.05726154 C21.6009538,0.903815385 20.4744,0 19.2928923,0 L18.1236615,0 C16.9415692,0 15.8156,0.903815385 15.5595385,2.05667692 L14.9550462,4.77630769 C14.9053538,4.99846154 14.5896615,5.34513846 14.3727692,5.41470769 C14.3429538,5.42347692 14.3137231,5.43458462 14.2844923,5.44627692 L12.4622462,6.19692308 C12.4300923,6.20978462 12.3985231,6.22381538 12.3681231,6.24018462 C12.3090769,6.27116923 12.1752,6.30741538 11.9945538,6.30741538 C11.7747385,6.30741538 11.5894154,6.25246154 11.5104923,6.20218462 L9.16092308,4.70790769 C8.1852,4.08704615 6.70846154,4.25073846 5.89350769,5.06627692 L5.06627692,5.89292308 C4.23086154,6.72892308 4.0736,8.16415385 4.70790769,9.16092308 L6.20335385,11.5104923 C6.32495385,11.7022462 6.34541538,12.1658462 6.24076923,12.3675385 C6.22498462,12.3985231 6.20978462,12.4300923 6.19692308,12.4616615 L5.44686154,14.2844923 C5.43516923,14.3131385 5.42406154,14.3423692 5.41470769,14.3721846 C5.34513846,14.5896615 4.99904615,14.9053538 4.77572308,14.9550462 L2.05784615,15.5583692 C0.9044,15.8150154 0.000584615385,16.9409846 0.000584615385,18.1230769 L0.000584615385,19.2923077 C0.000584615385,20.4738154 0.9044,21.6003692 2.05726154,21.8564308 L4.77630769,22.4603385 C4.99904615,22.5100308 5.34513846,22.8257231 5.41470769,23.0432 C5.42406154,23.0730154 5.43516923,23.1022462 5.44686154,23.1308923 L6.19692308,24.9537231 C6.20978462,24.9852923 6.2244,25.0162769 6.24076923,25.0472615 C6.34541538,25.2483692 6.32495385,25.7131385 6.20276923,25.9048923 L4.70790769,28.2544615 C4.07301538,29.2512308 4.23086154,30.6870462 5.06627692,31.5224615 L5.89350769,32.3496923 C6.70787692,33.1634769 8.18286154,33.3295077 9.16150769,32.7080615 L11.5099077,31.2132 C11.5894154,31.1623385 11.7747385,31.1079692 11.9945538,31.1079692 C12.1752,31.1079692 12.3090769,31.1436308 12.3681231,31.1752 C12.3991077,31.1904 12.4300923,31.2056 12.4622462,31.2184615 L14.2844923,31.9691077 C14.3137231,31.9808 14.3429538,31.9913231 14.3727692,32.0006769 C14.5896615,32.0702462 14.9053538,32.4169231 14.9550462,32.6396615 L15.5595385,35.3581231 C15.8156,36.5115692 16.9415692,37.4153846 18.1236615,37.4153846 L19.2928923,37.4153846 C20.4744,37.4153846 21.6003692,36.5115692 21.8570154,35.3581231 L22.4615077,32.6396615 C22.5106154,32.4169231 22.8268923,32.0702462 23.0437846,32.0006769 C23.0736,31.9913231 23.1028308,31.9808 23.1314769,31.9691077 L24.9537231,31.2184615 C24.9858769,31.2056 25.0174462,31.1904 25.0478462,31.1752 C25.1074769,31.1436308 25.2413538,31.1079692 25.4208308,31.1079692 C25.6406462,31.1079692 25.8265538,31.1623385 25.9048923,31.2132 L28.2550462,32.7074769 C29.2301846,33.3295077 30.7075077,33.1646462 31.5230462,32.3496923 L32.3496923,31.5230462 C33.1851077,30.6876308 33.3429538,29.2518154 32.7086462,28.2544615 L31.2132,25.9048923 C31.0910154,25.7131385 31.0705538,25.2489538 31.1757846,25.0478462 C31.1915692,25.0168615 31.2061846,24.9858769 31.2190462,24.9543077 L31.9691077,23.1308923 C31.9813846,23.1022462 31.9924923,23.0730154 32.0012615,23.0432 C32.0708308,22.8257231 32.4175077,22.5100308 32.6408308,22.4603385 L35.3581231,21.8564308 C36.5121538,21.6003692 37.4159692,20.4738154 37.4159692,19.2923077 L37.4159692,18.1230769 C37.4159692,16.9409846 36.5121538,15.8150154 35.3587077,15.5589538 Z" id="Fill-376" fill="#ADBDC4"></path>
                                <path d="M9.16150769,32.7080615 L11.5099077,31.2132 C11.5894154,31.1623385 11.7747385,31.1079692 11.9945538,31.1079692 C12.1752,31.1079692 12.3090769,31.1436308 12.3681231,31.1752 C12.3991077,31.1904 12.4300923,31.2056 12.4622462,31.2184615 L14.2844923,31.9691077 C14.3137231,31.9808 14.3429538,31.9913231 14.3727692,32.0006769 C14.5896615,32.0702462 14.9053538,32.4169231 14.9550462,32.6396615 L15.5595385,35.3581231 C15.8156,36.5115692 16.9415692,37.4153846 18.1236615,37.4153846 L19.2928923,37.4153846 C20.4744,37.4153846 21.6003692,36.5115692 21.8570154,35.3581231 L22.4615077,32.6396615 C22.5106154,32.4169231 22.8268923,32.0702462 23.0437846,32.0006769 C23.0736,31.9913231 23.1028308,31.9808 23.1314769,31.9691077 L24.9537231,31.2184615 C24.9858769,31.2056 25.0174462,31.1904 25.0478462,31.1752 C25.1074769,31.1436308 25.2413538,31.1079692 25.4208308,31.1079692 C25.6406462,31.1079692 25.8265538,31.1623385 25.9048923,31.2132 L28.2550462,32.7074769 C29.2301846,33.3295077 30.7075077,33.1646462 31.5230462,32.3496923 L32.3496923,31.5230462 C33.1851077,30.6876308 33.3429538,29.2518154 32.7086462,28.2544615 L31.2132,25.9048923 C31.0910154,25.7131385 31.0705538,25.2489538 31.1757846,25.0478462 C31.1915692,25.0168615 31.2061846,24.9858769 31.2190462,24.9543077 L31.9691077,23.1308923 C31.9813846,23.1022462 31.9924923,23.0730154 32.0012615,23.0432 C32.0708308,22.8257231 32.4175077,22.5100308 32.6408308,22.4603385 L35.3581231,21.8564308 C36.5121538,21.6003692 37.4159692,20.4738154 37.4159692,19.2923077 L37.4159692,18.1230769 C37.4159692,16.9409846 36.5121538,15.8150154 35.3587077,15.5589538 L32.6402462,14.9544615 C32.4175077,14.9053538 32.0708308,14.5896615 32.0012615,14.3721846 C31.9924923,14.3423692 31.9813846,14.3131385 31.9691077,14.2844923 L31.2190462,12.4616615 C31.2061846,12.4300923 31.1915692,12.3985231 31.1757846,12.3681231 C31.0705538,12.1664308 31.0910154,11.7016615 31.2132,11.5104923 L32.7086462,9.16033846 C33.3429538,8.16356923 33.1851077,6.72833846 32.3502769,5.89292308 L31.9363692,5.47901538 L22.8397538,14.5756308 C23.8984923,15.6343692 24.5544308,17.0959077 24.5544308,18.7076923 C24.5544308,21.9312615 21.9312615,24.5538462 18.7082769,24.5538462 C17.0964923,24.5538462 15.6349538,23.8979077 14.5762154,22.8397538 L5.48018462,31.9357846 L5.89350769,32.3496923 C6.70787692,33.1634769 8.18286154,33.3295077 9.16150769,32.7080615" id="Fill-377" fill="#8BA6B1"></path>
                                <path d="M18.7082769,24.5538462 C15.4794462,24.5538462 12.8621231,21.9365231 12.8621231,18.7076923 C12.8621231,15.4788615 15.4794462,12.8615385 18.7082769,12.8615385 C21.9371077,12.8615385 24.5544308,15.4788615 24.5544308,18.7076923 C24.5544308,21.9365231 21.9371077,24.5538462 18.7082769,24.5538462 Z M18.7082769,10.5230769 C14.1880308,10.5230769 10.5236615,14.1874462 10.5236615,18.7076923 C10.5236615,23.2279385 14.1880308,26.8923077 18.7082769,26.8923077 C23.2285231,26.8923077 26.8928923,23.2279385 26.8928923,18.7076923 C26.8928923,14.1874462 23.2285231,10.5230769 18.7082769,10.5230769 Z" id="Fill-378" fill="#8BA6B1"></path>
                                <path d="M24.5544308,18.7076923 C24.5544308,21.9365231 21.9371077,24.5538462 18.7082769,24.5538462 C17.0935692,24.5538462 15.6320308,23.8996615 14.5744615,22.8415077 L12.9205846,24.4948 C14.402,25.9762154 16.4481538,26.8923077 18.7082769,26.8923077 C23.2285231,26.8923077 26.8928923,23.2279385 26.8928923,18.7076923 C26.8928923,16.4475692 25.9768,14.4014154 24.4959692,12.92 L22.8420923,14.5738769 C23.9002462,15.6314462 24.5544308,17.0929846 24.5544308,18.7076923" id="Fill-379" fill="#ADBDC4"></path>
                            </g>
                            <g id="Cloud" transform="translate(45.000000, 8.000000)">
                                <path d="M14.9254382,12 C15.0264382,12 15.1244382,12.013 15.2244382,12.015 C16.6084382,5.161 22.6634382,0 29.9254382,0 C36.4174382,0 41.9294382,4.131 44.0174382,9.902 C45.2014382,9.33 46.5234382,9 47.9254382,9 C52.8964382,9 56.9254382,13.029 56.9254382,18 C56.9254382,18.142 56.9104382,18.279 56.9044382,18.419 C61.5304382,19.72 64.9254382,23.959 64.9254382,29 C64.9254382,35.075 60.0004382,40 53.9254382,40 L14.9254382,40 C7.1934382,40 0.925438199,33.732 0.925438199,26 C0.925438199,18.268 7.1934382,12 14.9254382,12" id="Fill-11-Copy" fill="#FBFFFC"></path>
                                <path d="M54.6844382,18.038 C55.4494382,18.091 56.1904382,18.219 56.9044382,18.419 C56.9104382,18.279 56.9254382,18.142 56.9254382,18 C56.9254382,15.004 55.4554382,12.357 53.2044382,10.721 C54.2824382,12.205 54.9254382,14.025 54.9254382,16 C54.9254382,16.702 54.8364382,17.382 54.6844382,18.038" id="Fill-12-Copy" fill="#C5CCCD"></path>
                                <path d="M39.9254382,40 L53.5774382,40 C59.5574382,40 64.7064382,35.376 64.9184382,29.4 C65.0594382,25.432 63.0964382,21.912 60.0574382,19.868 C61.5704382,22.116 62.2754382,24.951 61.7554382,27.961 C61.0284382,32.168 57.8004382,35.628 53.6574382,36.66 C51.3424382,37.237 49.1264382,37.048 47.1634382,36.332 C48.2664382,34.839 48.9254382,32.999 48.9254382,31 C48.9254382,28.004 47.4554382,25.357 45.2044382,23.721 C46.5614382,25.589 47.2294382,27.99 46.7924382,30.56 C46.1644382,34.258 43.1854382,37.238 39.4884382,37.867 C38.7204382,37.997 37.9674382,38.029 37.2394382,37.974 C34.3864382,37.756 32.0334382,35.661 31.2394382,32.912 C31.0534382,32.266 30.9254382,31.604 30.9254382,31 C30.9254382,30.637 30.9514382,30.281 30.9954382,29.93 C31.1714382,28.444 31.7064382,27.069 32.5164382,25.896 C31.3664382,26.358 30.1514382,26.692 28.8824382,26.858 C28.8994382,26.573 28.9254382,26.29 28.9254382,26 C28.9254382,21.368 26.6664382,17.274 23.2004382,14.725 C25.2974382,17.579 26.3584382,21.242 25.7594382,25.174 C24.8524382,31.13 20.0554382,35.927 14.0994382,36.834 C10.1674382,37.433 6.5044382,36.372 3.6504382,34.275 C6.1994382,37.741 10.2934382,40 14.9254382,40 L39.9254382,40" id="Fill-13-Copy" fill="#C5CCCD"></path>
                                <path d="M39.9254382,22 C40.9674382,22 41.9644382,22.186 42.8954382,22.512 C44.1784382,20.301 44.9254382,17.74 44.9254382,15 C44.9254382,10.092 42.5574382,5.748 38.9134382,3.012 C40.7964382,5.518 41.9254382,8.624 41.9254382,12 C41.9254382,15.972 40.3704382,19.571 37.8484382,22.25 C38.5164382,22.092 39.2094382,22 39.9254382,22" id="Fill-14-Copy" fill="#C5CCCD"></path>
                            </g>
                            <g id="Gear" filter="url(#filter-4)" transform="translate(53.000000, 38.000000)">
                                <path d="M24.5544308,18.7076923 C24.5544308,21.9312615 21.9312615,24.5538462 18.7082769,24.5538462 C15.4847077,24.5538462 12.8621231,21.9312615 12.8621231,18.7076923 C12.8621231,15.4841231 15.4847077,12.8615385 18.7082769,12.8615385 C21.9312615,12.8615385 24.5544308,15.4841231 24.5544308,18.7076923 Z M35.3587077,15.5589538 L32.6402462,14.9544615 C32.4175077,14.9053538 32.0708308,14.5896615 32.0012615,14.3721846 C31.9924923,14.3423692 31.9813846,14.3131385 31.9691077,14.2844923 L31.2190462,12.4616615 C31.2061846,12.4300923 31.1915692,12.3985231 31.1757846,12.3681231 C31.0705538,12.1664308 31.0910154,11.7016615 31.2132,11.5104923 L32.7086462,9.16033846 C33.3429538,8.16356923 33.1851077,6.72833846 32.3502769,5.89292308 L31.5230462,5.06569231 C30.7075077,4.24956923 29.2313538,4.08646154 28.2556308,4.70732308 L25.9048923,6.20218462 C25.8265538,6.25304615 25.6412308,6.30741538 25.4214154,6.30741538 C25.2413538,6.30741538 25.1074769,6.27116923 25.0478462,6.24018462 C25.0180308,6.22381538 24.9858769,6.20978462 24.9537231,6.19692308 L23.1314769,5.44627692 C23.1028308,5.43458462 23.0736,5.42347692 23.0437846,5.41470769 C22.8268923,5.34513846 22.5106154,4.99846154 22.4615077,4.77513846 L21.8576,2.05726154 C21.6009538,0.903815385 20.4744,0 19.2928923,0 L18.1236615,0 C16.9415692,0 15.8156,0.903815385 15.5595385,2.05667692 L14.9550462,4.77630769 C14.9053538,4.99846154 14.5896615,5.34513846 14.3727692,5.41470769 C14.3429538,5.42347692 14.3137231,5.43458462 14.2844923,5.44627692 L12.4622462,6.19692308 C12.4300923,6.20978462 12.3985231,6.22381538 12.3681231,6.24018462 C12.3090769,6.27116923 12.1752,6.30741538 11.9945538,6.30741538 C11.7747385,6.30741538 11.5894154,6.25246154 11.5104923,6.20218462 L9.16092308,4.70790769 C8.1852,4.08704615 6.70846154,4.25073846 5.89350769,5.06627692 L5.06627692,5.89292308 C4.23086154,6.72892308 4.0736,8.16415385 4.70790769,9.16092308 L6.20335385,11.5104923 C6.32495385,11.7022462 6.34541538,12.1658462 6.24076923,12.3675385 C6.22498462,12.3985231 6.20978462,12.4300923 6.19692308,12.4616615 L5.44686154,14.2844923 C5.43516923,14.3131385 5.42406154,14.3423692 5.41470769,14.3721846 C5.34513846,14.5896615 4.99904615,14.9053538 4.77572308,14.9550462 L2.05784615,15.5583692 C0.9044,15.8150154 0.000584615385,16.9409846 0.000584615385,18.1230769 L0.000584615385,19.2923077 C0.000584615385,20.4738154 0.9044,21.6003692 2.05726154,21.8564308 L4.77630769,22.4603385 C4.99904615,22.5100308 5.34513846,22.8257231 5.41470769,23.0432 C5.42406154,23.0730154 5.43516923,23.1022462 5.44686154,23.1308923 L6.19692308,24.9537231 C6.20978462,24.9852923 6.2244,25.0162769 6.24076923,25.0472615 C6.34541538,25.2483692 6.32495385,25.7131385 6.20276923,25.9048923 L4.70790769,28.2544615 C4.07301538,29.2512308 4.23086154,30.6870462 5.06627692,31.5224615 L5.89350769,32.3496923 C6.70787692,33.1634769 8.18286154,33.3295077 9.16150769,32.7080615 L11.5099077,31.2132 C11.5894154,31.1623385 11.7747385,31.1079692 11.9945538,31.1079692 C12.1752,31.1079692 12.3090769,31.1436308 12.3681231,31.1752 C12.3991077,31.1904 12.4300923,31.2056 12.4622462,31.2184615 L14.2844923,31.9691077 C14.3137231,31.9808 14.3429538,31.9913231 14.3727692,32.0006769 C14.5896615,32.0702462 14.9053538,32.4169231 14.9550462,32.6396615 L15.5595385,35.3581231 C15.8156,36.5115692 16.9415692,37.4153846 18.1236615,37.4153846 L19.2928923,37.4153846 C20.4744,37.4153846 21.6003692,36.5115692 21.8570154,35.3581231 L22.4615077,32.6396615 C22.5106154,32.4169231 22.8268923,32.0702462 23.0437846,32.0006769 C23.0736,31.9913231 23.1028308,31.9808 23.1314769,31.9691077 L24.9537231,31.2184615 C24.9858769,31.2056 25.0174462,31.1904 25.0478462,31.1752 C25.1074769,31.1436308 25.2413538,31.1079692 25.4208308,31.1079692 C25.6406462,31.1079692 25.8265538,31.1623385 25.9048923,31.2132 L28.2550462,32.7074769 C29.2301846,33.3295077 30.7075077,33.1646462 31.5230462,32.3496923 L32.3496923,31.5230462 C33.1851077,30.6876308 33.3429538,29.2518154 32.7086462,28.2544615 L31.2132,25.9048923 C31.0910154,25.7131385 31.0705538,25.2489538 31.1757846,25.0478462 C31.1915692,25.0168615 31.2061846,24.9858769 31.2190462,24.9543077 L31.9691077,23.1308923 C31.9813846,23.1022462 31.9924923,23.0730154 32.0012615,23.0432 C32.0708308,22.8257231 32.4175077,22.5100308 32.6408308,22.4603385 L35.3581231,21.8564308 C36.5121538,21.6003692 37.4159692,20.4738154 37.4159692,19.2923077 L37.4159692,18.1230769 C37.4159692,16.9409846 36.5121538,15.8150154 35.3587077,15.5589538 Z" id="Fill-376" fill="#ADBDC4"></path>
                                <path d="M9.16150769,32.7080615 L11.5099077,31.2132 C11.5894154,31.1623385 11.7747385,31.1079692 11.9945538,31.1079692 C12.1752,31.1079692 12.3090769,31.1436308 12.3681231,31.1752 C12.3991077,31.1904 12.4300923,31.2056 12.4622462,31.2184615 L14.2844923,31.9691077 C14.3137231,31.9808 14.3429538,31.9913231 14.3727692,32.0006769 C14.5896615,32.0702462 14.9053538,32.4169231 14.9550462,32.6396615 L15.5595385,35.3581231 C15.8156,36.5115692 16.9415692,37.4153846 18.1236615,37.4153846 L19.2928923,37.4153846 C20.4744,37.4153846 21.6003692,36.5115692 21.8570154,35.3581231 L22.4615077,32.6396615 C22.5106154,32.4169231 22.8268923,32.0702462 23.0437846,32.0006769 C23.0736,31.9913231 23.1028308,31.9808 23.1314769,31.9691077 L24.9537231,31.2184615 C24.9858769,31.2056 25.0174462,31.1904 25.0478462,31.1752 C25.1074769,31.1436308 25.2413538,31.1079692 25.4208308,31.1079692 C25.6406462,31.1079692 25.8265538,31.1623385 25.9048923,31.2132 L28.2550462,32.7074769 C29.2301846,33.3295077 30.7075077,33.1646462 31.5230462,32.3496923 L32.3496923,31.5230462 C33.1851077,30.6876308 33.3429538,29.2518154 32.7086462,28.2544615 L31.2132,25.9048923 C31.0910154,25.7131385 31.0705538,25.2489538 31.1757846,25.0478462 C31.1915692,25.0168615 31.2061846,24.9858769 31.2190462,24.9543077 L31.9691077,23.1308923 C31.9813846,23.1022462 31.9924923,23.0730154 32.0012615,23.0432 C32.0708308,22.8257231 32.4175077,22.5100308 32.6408308,22.4603385 L35.3581231,21.8564308 C36.5121538,21.6003692 37.4159692,20.4738154 37.4159692,19.2923077 L37.4159692,18.1230769 C37.4159692,16.9409846 36.5121538,15.8150154 35.3587077,15.5589538 L32.6402462,14.9544615 C32.4175077,14.9053538 32.0708308,14.5896615 32.0012615,14.3721846 C31.9924923,14.3423692 31.9813846,14.3131385 31.9691077,14.2844923 L31.2190462,12.4616615 C31.2061846,12.4300923 31.1915692,12.3985231 31.1757846,12.3681231 C31.0705538,12.1664308 31.0910154,11.7016615 31.2132,11.5104923 L32.7086462,9.16033846 C33.3429538,8.16356923 33.1851077,6.72833846 32.3502769,5.89292308 L31.9363692,5.47901538 L22.8397538,14.5756308 C23.8984923,15.6343692 24.5544308,17.0959077 24.5544308,18.7076923 C24.5544308,21.9312615 21.9312615,24.5538462 18.7082769,24.5538462 C17.0964923,24.5538462 15.6349538,23.8979077 14.5762154,22.8397538 L5.48018462,31.9357846 L5.89350769,32.3496923 C6.70787692,33.1634769 8.18286154,33.3295077 9.16150769,32.7080615" id="Fill-377" fill="#8BA6B1"></path>
                                <path d="M18.7082769,24.5538462 C15.4794462,24.5538462 12.8621231,21.9365231 12.8621231,18.7076923 C12.8621231,15.4788615 15.4794462,12.8615385 18.7082769,12.8615385 C21.9371077,12.8615385 24.5544308,15.4788615 24.5544308,18.7076923 C24.5544308,21.9365231 21.9371077,24.5538462 18.7082769,24.5538462 Z M18.7082769,10.5230769 C14.1880308,10.5230769 10.5236615,14.1874462 10.5236615,18.7076923 C10.5236615,23.2279385 14.1880308,26.8923077 18.7082769,26.8923077 C23.2285231,26.8923077 26.8928923,23.2279385 26.8928923,18.7076923 C26.8928923,14.1874462 23.2285231,10.5230769 18.7082769,10.5230769 Z" id="Fill-378" fill="#8BA6B1"></path>
                                <path d="M24.5544308,18.7076923 C24.5544308,21.9365231 21.9371077,24.5538462 18.7082769,24.5538462 C17.0935692,24.5538462 15.6320308,23.8996615 14.5744615,22.8415077 L12.9205846,24.4948 C14.402,25.9762154 16.4481538,26.8923077 18.7082769,26.8923077 C23.2285231,26.8923077 26.8928923,23.2279385 26.8928923,18.7076923 C26.8928923,16.4475692 25.9768,14.4014154 24.4959692,12.92 L22.8420923,14.5738769 C23.9002462,15.6314462 24.5544308,17.0929846 24.5544308,18.7076923" id="Fill-379" fill="#ADBDC4"></path>
                            </g>
                        </g>
                    </g>
                </g>
                <g id="Azure-Border" stroke="#0078D4" stroke-width="4">
                    <rect x="2" y="2" width="96" height="96" rx="48"></rect>
                </g>
            </g>
        </g>
    </g>
</svg>