<?xml version="1.0" encoding="UTF-8"?>
<svg width="100px" height="100px" viewBox="0 0 100 100" version="1.1" xmlns="http://www.w3.org/2000/svg" xmlns:xlink="http://www.w3.org/1999/xlink">
    <!-- Generator: Sketch 55.1 (78136) - https://sketchapp.com -->
    <title>intro-to-python</title>
    <desc>Created with Sketch.</desc>
    <defs>
        <linearGradient x1="50%" y1="100%" x2="50%" y2="3.061617e-15%" id="linearGradient-1">
            <stop stop-color="#FFFFFF" stop-opacity="0.738366168" offset="0%"></stop>
            <stop stop-color="#000000" stop-opacity="0.150900136" offset="100%"></stop>
        </linearGradient>
        <rect id="path-2" x="0" y="0" width="96" height="96" rx="48"></rect>
        <rect id="path-4" x="0" y="0" width="51" height="51" rx="25.5"></rect>
        <rect id="path-6" x="0" y="0" width="51" height="51" rx="25.5"></rect>
        <rect id="path-8" x="0" y="0" width="96" height="96" rx="48"></rect>
    </defs>
    <g id="Page-1" stroke="none" stroke-width="1" fill="none" fill-rule="evenodd">
        <g id="intro-to-python" transform="translate(2.000000, 2.000000)">
            <g id="Mask">
                <g id="BG" fill-rule="nonzero">
                    <g id="path-2-link" fill="#55A2FF">
                        <rect id="path-2" x="0" y="0" width="96" height="96" rx="48"></rect>
                    </g>
                    <g id="path-2-link" style="mix-blend-mode: overlay;" fill="url(#linearGradient-1)" fill-opacity="0.75">
                        <rect id="path-2" x="0" y="0" width="96" height="96" rx="48"></rect>
                    </g>
                </g>
                <g id="Book-1-Clipped">
                    <mask id="mask-3" fill="white">
                        <use xlink:href="#path-2"></use>
                    </mask>
                    <g id="path-2"></g>
                    <g id="Book-1" mask="url(#mask-3)">
                        <g transform="translate(24.000000, 14.000000)" id="Book">
                            <g>
                                <g id="Group" transform="translate(0.167481, 0.387536)" fill-rule="nonzero">
                                    <path d="M0.832518557,55.6124645 L0.832518557,61.6124645 C0.839673316,62.8067453 1.6709668,63.6146507 2.83251856,63.6124645 L46.8325186,63.6124645 L46.8325186,55.6124645 L0.832518557,55.6124645 Z" id="Shape" fill="#BE9555"></path>
                                    <path d="M2.83251856,56.6124645 L2.83251856,60.6124645 C2.86672747,61.717521 3.75260508,62.6147293 4.78807411,62.6124645 L46.8325186,62.6124645 L46.8325186,56.6124645 L2.83251856,56.6124645 Z" id="Shape" fill="#FFFFFF"></path>
                                    <polygon id="Shape" fill="#4F4D52" opacity="0.2" points="2.83251856 56.6124645 2.83251856 57.6124645 46.8325186 57.6124645 46.8325186 56.6124645"></polygon>
                                    <polygon id="Shape" fill="#4F4D52" opacity="0.2" points="20.8325186 56.6124645 26.8325186 62.6124645 20.8325186 62.6124645"></polygon>
                                    <polygon id="Shape" fill="#EF6F59" points="21.8325186 66.6124645 17.8325186 64.6124645 14.8325186 66.6124645 14.8325186 56.6124645 21.8325186 56.6124645"></polygon>
                                    <polygon id="Shape" fill="#F7CB64" points="46.8325186 55.6124645 0.832518557 55.6124645 0.832518557 0.612464493 46.8325186 0.612464493"></polygon>
                                    <path d="M23.8325186,51.6124645 C23.8325186,52.7164645 22.9384486,53.6124645 21.8325186,53.6124645 L0.832518557,53.6124645 L0.832518557,55.6124645 L46.8325186,55.6124645 L46.8325186,3.61246449 L25.8325186,3.61246449 C24.7265885,3.61246449 23.8325186,4.50746449 23.8325186,5.61246449 L23.8325186,51.6124645 Z" id="Fill-361" fill-opacity="0.126868207" fill="#000000"></path>
                                </g>
                            </g>
                        </g>
                    </g>
                </g>
                <g id="Oval-Clipped" transform="translate(23.000000, 17.000000)">
                    <mask id="mask-5" fill="white">
                        <use xlink:href="#path-4"></use>
                    </mask>
                    <g id="path-1"></g>
                    <g id="Oval" mask="url(#mask-5)">
                        <g transform="translate(10.000000, 10.000000)" id="path-5-link">
                            <g>
                                <circle id="path-5" fill="#0078D4" cx="16" cy="16" r="16"></circle>
                            </g>
                        </g>
                    </g>
                </g>
                <g id="python-Clipped" transform="translate(23.000000, 17.000000)">
                    <mask id="mask-7" fill="white">
                        <use xlink:href="#path-6"></use>
                    </mask>
                    <g id="path-1"></g>
                    <g id="python" mask="url(#mask-7)">
                        <g transform="translate(14.000000, 14.000000)" id="Combined-Shape">
                            <g>
                                <path d="M6.02187793,5.0366138 C6.02187793,4.14242265 6.02187793,3.36075968 6.02187793,2.69162488 C6.02187793,1.68792269 6.41310051,-4.22772928e-13 10.6672691,-4.22772928e-13 C14.9214377,-4.22772928e-13 16.7220003,1.01375933 16.7220003,2.3483413 C16.7220003,3.23806262 16.7220003,5.21250194 16.7220003,8.27165926 C16.6565172,9.85845189 16.0563297,10.6518482 14.9214377,10.6518482 C13.2190998,10.6518482 9.47231373,10.6518482 8.3610002,10.6518482 C7.24968662,10.6518482 5.16869753,11.6629256 5.16869753,13.7906804 C5.16869753,15.2091835 5.16869753,16.1669582 5.16869753,16.6640042 C3.88049013,16.6640042 3.0476475,16.6640042 2.67016966,16.6640042 C2.10395289,16.6640042 1.28963507e-12,15.8031133 1.28963507e-12,11.6629256 C1.28963507e-12,7.52273786 1.38721432,6.00377505 2.90751807,6.00377505 C3.92105391,6.00377505 6.76699994,6.00377505 11.4453562,6.00377505 L11.4453562,5.0366138 L6.02187793,5.0366138 Z M8.39904967,3.41272155 C8.96782054,3.41272155 9.42890044,2.95164167 9.42890044,2.3828708 C9.42890044,1.81409994 8.96782054,1.35302005 8.39904967,1.35302005 C7.8302788,1.35302005 7.3691989,1.81409994 7.3691989,2.3828708 C7.3691989,2.95164167 7.8302788,3.41272155 8.39904967,3.41272155 Z" id="Shape" fill="#ABDCEC" fill-rule="nonzero"></path>
                                <path d="M6.02187793,5.0366138 C6.02187793,4.14242265 6.02187793,3.36075968 6.02187793,2.69162488 C6.02187793,1.68792269 6.41310051,-2.27373675e-13 10.6672691,-2.27373675e-13 C14.9214377,-2.27373675e-13 16.7220003,1.01375933 16.7220003,2.3483413 C16.7220003,3.23806262 16.7220003,5.21250194 16.7220003,8.27165926 C16.6565172,9.85845189 16.0563297,10.6518482 14.9214377,10.6518482 C13.2190998,10.6518482 9.47231373,10.6518482 8.3610002,10.6518482 C7.24968662,10.6518482 5.16869753,11.6629256 5.16869753,13.7906804 C5.16869753,15.2091835 5.16869753,16.1669582 5.16869753,16.6640042 L3.35673682,16.6640042 C2.57809099,16.1405861 2.18876807,14.7975115 2.18876807,12.6347802 C2.18876807,10.9956676 2.47807836,8.33200211 4.54817222,8.33200211 C6.6182661,8.33200211 7.60884521,8.33200211 8.3610002,8.33200211 C9.37453602,8.33200211 10.4208693,8.31188783 11.5,8.27165926 L11.4453562,5.0366138 L6.02187793,5.0366138 Z M8.39904967,3.41272155 C8.96782054,3.41272155 9.42890044,2.95164167 9.42890044,2.3828708 C9.42890044,1.81409994 8.96782054,1.35302005 8.39904967,1.35302005 C7.8302788,1.35302005 7.3691989,1.81409994 7.3691989,2.3828708 C7.3691989,2.95164167 7.8302788,3.41272155 8.39904967,3.41272155 Z" id="Shape" fill="#8BD0E9" fill-rule="nonzero"></path>
                                <path d="M12.200982,10.8724343 C12.200982,9.97824311 12.200982,9.19658016 12.200982,8.52744534 C12.200982,7.52374317 12.5922046,5.83582048 16.8463732,5.83582048 C21.1005419,5.83582048 22.9011044,6.84957982 22.9011044,8.18416177 C22.9011044,9.07388311 22.9011044,11.0483224 22.9011044,14.1074797 C22.8356214,15.6942724 22.2354338,16.4876687 21.1005419,16.4876687 C19.3982039,16.4876687 15.6514178,16.4876687 14.5401043,16.4876687 C13.4287907,16.4876687 11.3478016,17.4987461 11.3478016,19.6265009 C11.3478016,21.0450041 11.3478016,22.0027787 11.3478016,22.4998247 C10.0595943,22.4998247 9.22675161,22.4998247 8.84927378,22.4998247 C8.28305701,22.4998247 6.1791041,21.6389338 6.1791041,17.4987461 C6.1791041,13.3585583 7.56631842,11.8395955 9.08662218,11.8395955 C10.100158,11.8395955 12.9461041,11.8395955 17.6244603,11.8395955 L17.6244603,10.8724343 L12.200982,10.8724343 Z M14.5781538,9.24854202 C15.1469246,9.24854202 15.6080045,8.78746212 15.6080045,8.2186913 C15.6080045,7.64992044 15.1469246,7.18884053 14.5781538,7.18884053 C14.0093829,7.18884053 13.5483031,7.64992044 13.5483031,8.2186913 C13.5483031,8.78746212 14.0093829,9.24854202 14.5781538,9.24854202 Z" id="Shape" fill="#8BD0E9" fill-rule="nonzero" transform="translate(14.540104, 14.167823) rotate(180.000000) translate(-14.540104, -14.167823) "></path>
                                <path d="M10.0122142,10.8724343 C10.0122142,9.97824311 10.0122142,9.19658016 10.0122142,8.52744534 C10.0122142,7.52374317 10.4034368,5.83582048 14.6576054,5.83582048 C18.911774,5.83582048 20.7123366,6.84957982 20.7123366,8.18416177 C20.7123366,9.07388311 20.7123366,11.0483224 20.7123366,14.1074797 C20.6468535,15.6942724 20.046666,16.4876687 18.911774,16.4876687 C17.2094361,16.4876687 13.46265,16.4876687 12.3513365,16.4876687 C11.240023,16.4876687 9.15903381,17.4987461 9.15903381,19.6265009 C9.15903381,21.0450041 9.15903381,22.0027787 9.15903381,22.4998247 L7.34707311,22.4998247 C6.5684273,21.9764066 6.17910436,20.6333319 6.17910436,18.4706007 C6.17910436,16.831488 6.46841467,14.1678226 8.5385085,14.1678226 C10.6086024,14.1678226 11.5991815,14.1678226 12.3513365,14.1678226 C13.3648723,14.1678226 14.4112056,14.1477083 15.4903363,14.1074797 L15.4356925,10.8724343 L10.0122142,10.8724343 Z M12.389386,9.24854202 C12.9581568,9.24854202 13.4192367,8.78746212 13.4192367,8.2186913 C13.4192367,7.64992044 12.9581568,7.18884053 12.389386,7.18884053 C11.8206151,7.18884053 11.3595352,7.64992044 11.3595352,8.2186913 C11.3595352,8.78746212 11.8206151,9.24854202 12.389386,9.24854202 Z" id="Shape" fill="#ABDCEC" fill-rule="nonzero" transform="translate(13.445720, 14.167823) rotate(180.000000) translate(-13.445720, -14.167823) "></path>
                            </g>
                        </g>
                    </g>
                </g>
                <g id="Group-8-Clipped">
                    <mask id="mask-9" fill="white">
                        <use xlink:href="#path-8"></use>
                    </mask>
                    <g id="path-2"></g>
                    <g id="Group-8" mask="url(#mask-9)">
                        <g transform="translate(48.000000, 40.000000)" id="Group">
                            <g>
                                <rect id="Rectangle" fill="#FFFFFF" transform="translate(21.000000, 25.096444) rotate(-30.000000) translate(-21.000000, -25.096444) " x="18.5000001" y="13.0964442" width="5" height="24" rx="1"></rect>
                                <g id="Fill-188" transform="translate(16.031905, 16.491451) rotate(-30.000000) translate(-16.031905, -16.491451) translate(5.031905, 3.991451)">
                                    <g id="path-8-link" fill="#FFFFFF">
                                        <path d="M20.7484563,21.4461902 L12.8474563,1.69319017 C12.5444563,0.93419017 11.8074563,0.43619017 10.9904563,0.43619017 C10.1734563,0.43619017 9.4364563,0.93419017 9.1334563,1.69319017 L1.1334563,21.6931902 C0.8254563,22.4641902 1.0254563,23.3451902 1.6354563,23.9081902 C2.2484563,24.4711902 3.1414563,24.5951902 3.8844563,24.2251902 L10.9904563,20.6721902 L18.0954563,24.2251902 C18.3804563,24.3671902 18.6854563,24.4361902 18.9904563,24.4361902 C18.9974563,24.4351902 19.0044563,24.4351902 19.0094563,24.4361902 C20.1154563,24.4361902 21.0094563,23.5401902 21.0094563,22.4361902 C21.0094563,22.0761902 20.9154563,21.7381902 20.7484563,21.4461902" id="path-8"></path>
                                    </g>
                                    <g id="path-8-link" fill="#000000" fill-rule="nonzero">
                                        <path d="M20.7484563,21.4461902 L12.8474563,1.69319017 C12.5444563,0.93419017 11.8074563,0.43619017 10.9904563,0.43619017 C10.1734563,0.43619017 9.4364563,0.93419017 9.1334563,1.69319017 L1.1334563,21.6931902 C0.8254563,22.4641902 1.0254563,23.3451902 1.6354563,23.9081902 C2.2484563,24.4711902 3.1414563,24.5951902 3.8844563,24.2251902 L10.9904563,20.6721902 L18.0954563,24.2251902 C18.3804563,24.3671902 18.6854563,24.4361902 18.9904563,24.4361902 C18.9974563,24.4351902 19.0044563,24.4351902 19.0094563,24.4361902 C20.1154563,24.4361902 21.0094563,23.5401902 21.0094563,22.4361902 C21.0094563,22.0761902 20.9154563,21.7381902 20.7484563,21.4461902" id="path-8"></path>
                                    </g>
                                </g>
                            </g>
                        </g>
                    </g>
                </g>
            </g>
            <rect id="Azure-Border" stroke="#E1E1E1" stroke-width="4" x="0" y="0" width="96" height="96" rx="48"></rect>
        </g>
    </g>
</svg>