<svg width="103" height="103" viewBox="0 0 103 103" fill="none" xmlns="http://www.w3.org/2000/svg">
<path d="M51.6918 98.6869C25.8418 98.6869 4.88184 77.7369 4.88184 51.8769C4.88184 26.0169 25.8418 5.06689 51.6918 5.06689C77.5418 5.06689 98.5018 26.0269 98.5018 51.8769C98.5018 77.7269 77.5418 98.6869 51.6918 98.6869Z" fill="url(#paint0_linear)"/>
<path fill-rule="evenodd" clip-rule="evenodd" d="M97.5918 51.8768C97.5918 77.2268 77.0418 97.7768 51.6918 97.7768C26.3418 97.7768 5.79176 77.2268 5.79176 51.8768C5.79176 26.5268 26.3418 5.97682 51.6918 5.97682C77.0418 5.97682 97.5918 26.5268 97.5918 51.8768ZM51.6918 2.23682C79.1118 2.23682 101.332 24.4568 101.332 51.8768C101.332 79.2968 79.1018 101.517 51.6918 101.517C24.2718 101.517 2.05176 79.2868 2.05176 51.8768C2.05176 24.4568 24.2718 2.23682 51.6918 2.23682Z" fill="#F2F1F0"/>
<path fill-rule="evenodd" clip-rule="evenodd" d="M94.7813 51.8769C94.7813 75.6769 75.4913 94.9669 51.6913 94.9669C27.8913 94.9669 8.60133 75.6769 8.60133 51.8769C8.60133 28.0769 27.8913 8.78687 51.6913 8.78687C75.4913 8.78687 94.7813 28.0769 94.7813 51.8769ZM51.6913 5.04688C77.5513 5.04688 98.5213 26.0169 98.5213 51.8769C98.5213 77.7369 77.5513 98.7069 51.6913 98.7069C25.8313 98.7069 4.86133 77.7369 4.86133 51.8769C4.86133 26.0169 25.8213 5.04688 51.6913 5.04688Z" fill="url(#paint1_linear)"/>
<path d="M51.3708 30.3671C48.6008 30.3671 46.3408 28.0971 46.3408 25.3071C46.3408 22.5171 48.6008 20.2471 51.3708 20.2471C54.1408 20.2471 56.4008 22.5171 56.4008 25.3071C56.4008 28.0971 54.1408 30.3671 51.3708 30.3671ZM51.3708 22.2471C49.7008 22.2471 48.3408 23.6171 48.3408 25.3071C48.3408 26.9971 49.7008 28.3671 51.3708 28.3671C53.0408 28.3671 54.4008 26.9971 54.4008 25.3071C54.4008 23.6171 53.0408 22.2471 51.3708 22.2471Z" fill="url(#paint2_linear)"/>
<path d="M64.2412 79.4569H39.1412L36.5012 84.3769L34.7412 83.4269L42.0512 69.8169L43.8012 70.7769L40.2112 77.4569H63.1712L59.5812 70.7769L61.3412 69.8269L68.6512 83.4369L66.8912 84.3869L64.2412 79.4569Z" fill="url(#paint3_linear)"/>
<path d="M78.891 30.7173H24.501V68.2773H78.891V30.7173Z" fill="url(#paint4_linear)"/>
<path d="M23.8008 25.2969H79.5908C80.6908 25.2969 81.5908 26.1969 81.5908 27.2969V29.3869C81.5908 30.4869 80.6908 31.3869 79.5908 31.3869H23.8008C22.7008 31.3869 21.8008 30.4869 21.8008 29.3869V27.2969C21.8008 26.1969 22.7008 25.2969 23.8008 25.2969Z" fill="url(#paint5_linear)"/>
<path d="M23.4908 67.5068H79.8908C80.8208 67.5068 81.5808 68.2668 81.5808 69.1968C81.5808 70.1268 80.8208 70.8868 79.8908 70.8868H23.4908C22.5608 70.8968 21.8008 70.1368 21.8008 69.2068C21.8008 68.2668 22.5608 67.5068 23.4908 67.5068Z" fill="url(#paint6_linear)"/>
<path d="M78.891 30.7173H24.501V68.2773H78.891V30.7173Z" fill="url(#paint7_linear)"/>
<path d="M23.8008 25.2969H79.5908C80.6908 25.2969 81.5908 26.1969 81.5908 27.2969V29.3869C81.5908 30.4869 80.6908 31.3869 79.5908 31.3869H23.8008C22.7008 31.3869 21.8008 30.4869 21.8008 29.3869V27.2969C21.8008 26.1969 22.7008 25.2969 23.8008 25.2969Z" fill="url(#paint8_linear)"/>
<path d="M23.4908 67.5068H79.8908C80.8208 67.5068 81.5808 68.2668 81.5808 69.1968C81.5808 70.1268 80.8208 70.8868 79.8908 70.8868H23.4908C22.5608 70.8968 21.8008 70.1368 21.8008 69.2068C21.8008 68.2668 22.5608 67.5068 23.4908 67.5068Z" fill="url(#paint9_linear)"/>
<path d="M58.7817 52.3069V46.0669C58.7817 46.0269 58.7717 45.9769 58.7417 45.9369C58.7217 45.8969 58.6817 45.8669 58.6417 45.8569C58.6017 45.8369 58.5517 45.8369 58.5117 45.8469C58.4717 45.8569 58.4317 45.8769 58.4017 45.9069L52.0817 52.2869L45.5117 58.9269V63.5069H64.5917C64.7117 63.5069 64.8317 63.4869 64.9417 63.4469C65.0517 63.4069 65.1517 63.3369 65.2317 63.2469C65.3117 63.1669 65.3817 63.0569 65.4217 62.9469C65.4617 62.8369 65.4917 62.7169 65.4817 62.5969V46.0669C65.4817 46.0269 65.4717 45.9769 65.4417 45.9369C65.4217 45.8969 65.3817 45.8669 65.3417 45.8569C65.3017 45.8369 65.2517 45.8369 65.2117 45.8469C65.1717 45.8569 65.1317 45.8769 65.1017 45.9069L58.7817 52.3069Z" fill="url(#paint10_linear)"/>
<path d="M45.3516 41.2969C41.6416 41.2969 38.6416 40.1969 38.6416 38.7769V47.8169V62.5869C38.6416 62.7069 38.6616 62.8269 38.7016 62.9369C38.7416 63.0469 38.8116 63.1469 38.8916 63.2369C38.9716 63.3169 39.0716 63.3869 39.1816 63.4369C39.2916 63.4769 39.4116 63.5069 39.5316 63.4969H52.0616V38.7769C52.0716 40.1969 49.0716 41.2969 45.3516 41.2969Z" fill="url(#paint11_linear)"/>
<path d="M61.392 56.2666H58.692C58.452 56.2666 58.252 56.4666 58.252 56.7166V59.4466C58.252 59.6966 58.452 59.8966 58.692 59.8966H61.392C61.632 59.8966 61.832 59.6966 61.832 59.4466V56.7166C61.832 56.4666 61.632 56.2666 61.392 56.2666Z" fill="white"/>
<path d="M55.1712 56.2666H52.4712C52.2312 56.2666 52.0312 56.4666 52.0312 56.7166V59.4466C52.0312 59.6966 52.2312 59.8966 52.4712 59.8966H55.1712C55.4112 59.8966 55.6112 59.6966 55.6112 59.4466V56.7166C55.6112 56.4666 55.4112 56.2666 55.1712 56.2666Z" fill="white"/>
<path d="M48.9418 56.2666H46.2418C46.0018 56.2666 45.8018 56.4666 45.8018 56.7166V59.4466C45.8018 59.6966 46.0018 59.8966 46.2418 59.8966H48.9418C49.1818 59.8966 49.3818 59.6966 49.3818 59.4466V56.7166C49.3818 56.4666 49.1918 56.2666 48.9418 56.2666Z" fill="white"/>
<path d="M52.0714 38.7768C52.0714 40.1368 49.0714 41.2368 45.3614 41.2368C41.6514 41.2368 38.6514 40.1968 38.6514 38.7768C38.6514 37.3568 41.6514 36.3868 45.3614 36.3868C49.0714 36.3768 52.0714 37.4768 52.0714 38.7768Z" fill="#EAEAEA"/>
<path d="M50.4914 38.6369C50.4914 39.5169 48.1814 40.2369 45.3414 40.2369C42.5014 40.2369 40.1914 39.5469 40.1914 38.6369C40.1914 37.7269 42.5914 37.0869 45.3614 37.0869C48.1214 37.0869 50.4914 37.7669 50.4914 38.6369Z" fill="#50E6FF"/>
<path d="M45.3612 38.9966C43.9812 38.9666 42.6013 39.1666 41.2812 39.5866C42.5912 40.0266 43.9712 40.2266 45.3612 40.1966C46.7412 40.2366 48.1212 40.0266 49.4412 39.5866C48.1112 39.1666 46.7412 38.9666 45.3612 38.9966Z" fill="#198AB3"/>
<defs>
<linearGradient id="paint0_linear" x1="49.9213" y1="-12.9171" x2="53.9043" y2="132.851" gradientUnits="userSpaceOnUse">
<stop stop-color="#00ABDE"/>
<stop offset="1" stop-color="#007ED8"/>
</linearGradient>
<linearGradient id="paint1_linear" x1="51.6913" y1="-1.61533" x2="51.6913" y2="100.148" gradientUnits="userSpaceOnUse">
<stop stop-color="#007ED8"/>
<stop offset="0.7065" stop-color="#002D4C"/>
</linearGradient>
<linearGradient id="paint2_linear" x1="44.1277" y1="10.3702" x2="71.0568" y2="65.9298" gradientUnits="userSpaceOnUse">
<stop stop-color="#007ED8"/>
<stop offset="0.7065" stop-color="#002D4C"/>
</linearGradient>
<linearGradient id="paint3_linear" x1="57.6033" y1="155.995" x2="46.2647" y2="16.8134" gradientUnits="userSpaceOnUse">
<stop stop-color="#007ED8"/>
<stop offset="0.7065" stop-color="#002D4C"/>
</linearGradient>
<linearGradient id="paint4_linear" x1="51.7009" y1="68.2737" x2="51.7009" y2="30.7142" gradientUnits="userSpaceOnUse">
<stop stop-color="#D2EBFF"/>
<stop offset="1" stop-color="#F0FFFD"/>
</linearGradient>
<linearGradient id="paint5_linear" x1="51.6908" y1="25.3075" x2="51.6908" y2="31.3895" gradientUnits="userSpaceOnUse">
<stop stop-color="#0099BE"/>
<stop offset="1" stop-color="#006E97"/>
</linearGradient>
<linearGradient id="paint6_linear" x1="51.6858" y1="67.5125" x2="51.6858" y2="70.8924" gradientUnits="userSpaceOnUse">
<stop stop-color="#0099BE"/>
<stop offset="1" stop-color="#006E97"/>
</linearGradient>
<linearGradient id="paint7_linear" x1="51.7009" y1="68.2737" x2="51.7009" y2="30.7142" gradientUnits="userSpaceOnUse">
<stop stop-color="#D2EBFF"/>
<stop offset="1" stop-color="#F0FFFD"/>
</linearGradient>
<linearGradient id="paint8_linear" x1="51.6908" y1="25.3075" x2="51.6908" y2="31.3895" gradientUnits="userSpaceOnUse">
<stop stop-color="#007ED8"/>
<stop offset="0.7065" stop-color="#002D4C"/>
</linearGradient>
<linearGradient id="paint9_linear" x1="51.6858" y1="67.5125" x2="51.6858" y2="70.8924" gradientUnits="userSpaceOnUse">
<stop stop-color="#007ED8"/>
<stop offset="0.7065" stop-color="#002D4C"/>
</linearGradient>
<linearGradient id="paint10_linear" x1="51.6107" y1="54.6718" x2="71.406" y2="54.6718" gradientUnits="userSpaceOnUse">
<stop stop-color="#005BA1"/>
<stop offset="0.07" stop-color="#0060A9"/>
<stop offset="0.36" stop-color="#0071C8"/>
<stop offset="0.52" stop-color="#0078D4"/>
</linearGradient>
<linearGradient id="paint11_linear" x1="38.6415" y1="51.1366" x2="52.0703" y2="51.1366" gradientUnits="userSpaceOnUse">
<stop stop-color="#005BA1"/>
<stop offset="0.07" stop-color="#0060A9"/>
<stop offset="0.36" stop-color="#0071C8"/>
<stop offset="0.52" stop-color="#0078D4"/>
<stop offset="0.64" stop-color="#0074CD"/>
<stop offset="0.82" stop-color="#006ABB"/>
<stop offset="1" stop-color="#005BA1"/>
</linearGradient>
</defs>
</svg>
