<svg width="100" height="100" viewBox="0 0 100 100" fill="none" xmlns="http://www.w3.org/2000/svg">
<g clip-path="url(#clip0_220:936)">
<path d="M49.6401 96.4499C40.382 96.4499 31.3317 93.7045 23.6339 88.561C15.936 83.4174 9.93624 76.1067 6.3933 67.5533C2.85036 58.9999 1.92337 49.588 3.72954 40.5077C5.53571 31.4275 9.99394 23.0867 16.5404 16.5402C23.0869 9.99372 31.4277 5.5355 40.5079 3.72933C49.5882 1.92315 59.0001 2.85015 67.5535 6.39308C76.1069 9.93602 83.4176 15.9358 88.5612 23.6336C93.7047 31.3315 96.4501 40.3817 96.4501 49.6399C96.4505 55.7872 95.24 61.8744 92.8878 67.5538C90.5355 73.2332 87.0875 78.3937 82.7407 82.7405C78.3939 87.0873 73.2335 90.5353 67.554 92.8876C61.8746 95.2398 55.7874 96.4503 49.6401 96.4499V96.4499Z" fill="url(#paint0_linear_220:936)"/>
<path fill-rule="evenodd" clip-rule="evenodd" d="M95.54 49.6399C95.54 58.718 92.848 67.5923 87.8045 75.1406C82.7609 82.6888 75.5923 88.5719 67.2052 92.046C58.818 95.52 49.5891 96.429 40.6854 94.6579C31.7816 92.8869 23.603 88.5153 17.1838 82.0961C10.7646 75.6769 6.39302 67.4983 4.62196 58.5945C2.85089 49.6908 3.75987 40.4618 7.23393 32.0747C10.708 23.6876 16.5911 16.519 24.1393 11.4754C31.6875 6.43187 40.5618 3.73988 49.64 3.73988C55.6677 3.73986 61.6363 4.92708 67.2052 7.23377C72.774 9.54045 77.834 12.9214 82.0963 17.1836C86.3585 21.4458 89.7394 26.5058 92.0461 32.0747C94.3528 37.6435 95.54 43.6122 95.54 49.6399V49.6399ZM49.64 -0.000106449C59.4579 -0.000106449 69.0552 2.91123 77.2185 8.36574C85.3818 13.8203 91.7442 21.573 95.5014 30.6435C99.2585 39.714 100.242 49.695 98.3262 59.3242C96.4108 68.9534 91.6831 77.7984 84.7408 84.7407C77.7985 91.683 68.9535 96.4107 59.3243 98.3261C49.6951 100.241 39.7141 99.2584 30.6436 95.5013C21.5731 91.7441 13.8204 85.3816 8.36584 77.2184C2.91133 69.0551 -1.61629e-06 59.4577 3.61524e-07 49.6399C-0.000786426 43.1208 1.28265 36.6655 3.77702 30.6425C6.27138 24.6196 9.92781 19.147 14.5375 14.5374C19.1471 9.9277 24.6197 6.27127 30.6427 3.77691C36.6656 1.28254 43.121 -0.000894549 49.64 -0.000106449V-0.000106449Z" fill="#F2F1F0"/>
<path fill-rule="evenodd" clip-rule="evenodd" d="M92.7296 49.64C92.7296 58.1624 90.2024 66.4934 85.4676 73.5795C80.7328 80.6656 74.0031 86.1886 66.1294 89.45C58.2557 92.7113 49.5918 93.5647 41.2331 91.902C32.8745 90.2394 25.1966 86.1355 19.1703 80.1092C13.1441 74.083 9.04017 66.4051 7.37753 58.0464C5.7149 49.6878 6.56822 41.0238 9.8296 33.1502C13.091 25.2765 18.6139 18.5468 25.7 13.812C32.7862 9.07718 41.1172 6.55 49.6396 6.55C55.2983 6.54965 60.9017 7.66397 66.1298 9.82933C71.3579 11.9947 76.1082 15.1687 80.1096 19.17C84.1109 23.1713 87.2849 27.9217 89.4502 33.1498C91.6156 38.3778 92.7299 43.9812 92.7296 49.64ZM49.6396 2.81C58.9017 2.81 67.9558 5.55653 75.6569 10.7023C83.3581 15.848 89.3604 23.1619 92.9049 31.7189C96.4493 40.276 97.3767 49.6919 95.5697 58.7761C93.7628 67.8602 89.3027 76.2045 82.7534 82.7538C76.2041 89.3031 67.8598 93.7632 58.7757 95.5702C49.6915 97.3771 40.2756 96.4497 31.7185 92.9053C23.1614 89.3608 15.8476 83.3585 10.7018 75.6574C5.5561 67.9562 2.80957 58.9021 2.80957 49.64C2.81076 37.2203 7.74501 25.3096 16.5271 16.5275C25.3091 7.74544 37.2198 2.81119 49.6396 2.81V2.81Z" fill="#0078D4"/>
<path fill-rule="evenodd" clip-rule="evenodd" d="M92.7296 49.6399C92.7296 58.1623 90.2024 66.4933 85.4676 73.5794C80.7328 80.6655 74.0031 86.1885 66.1294 89.4499C58.2557 92.7112 49.5918 93.5646 41.2331 91.9019C32.8745 90.2393 25.1966 86.1354 19.1703 80.1091C13.1441 74.0829 9.04017 66.405 7.37753 58.0463C5.7149 49.6877 6.56822 41.0237 9.8296 33.1501C13.091 25.2764 18.6139 18.5467 25.7001 13.8119C32.7862 9.07708 41.1172 6.5499 49.6396 6.5499C55.2983 6.54956 60.9017 7.66388 66.1298 9.82923C71.3579 11.9946 76.1082 15.1686 80.1096 19.1699C84.1109 23.1712 87.2849 27.9216 89.4502 33.1497C91.6156 38.3777 92.7299 43.9811 92.7296 49.6399V49.6399ZM49.6396 2.8099C58.9017 2.8099 67.9558 5.55643 75.6569 10.7022C83.3581 15.8479 89.3604 23.1618 92.9048 31.7188C96.4493 40.2759 97.3767 49.6918 95.5697 58.776C93.7628 67.8601 89.3027 76.2044 82.7534 82.7537C76.2041 89.303 67.8598 93.7631 58.7757 95.5701C49.6915 97.377 40.2756 96.4496 31.7185 92.9052C23.1614 89.3607 15.8476 83.3584 10.7018 75.6573C5.5561 67.9561 2.80957 58.902 2.80957 49.6399C2.81075 37.2202 7.74499 25.3095 16.5271 16.5274C25.3091 7.7453 37.2198 2.81105 49.6396 2.80986V2.8099Z" fill="#0078D4"/>
<path d="M77.2112 54.9625C76.9507 53.4994 76.5943 52.055 76.144 50.6387C75.6697 49.1244 75.1497 47.601 74.5841 46.0685C74.0183 44.5359 73.4071 43.049 72.7505 41.6077C72.0937 40.1664 71.4461 38.7981 70.8076 37.5028C70.1689 36.2073 69.5668 35.0488 69.0013 34.0272C68.6536 33.3822 68.1788 32.8143 67.6056 32.3578C67.0862 31.97 66.515 31.6568 65.9088 31.4274C65.2736 31.1865 64.6123 31.0211 63.9385 30.9348C63.2451 30.8435 62.5336 30.7431 61.8039 30.6337C61.3113 30.5425 60.846 30.4787 60.4081 30.4421C59.9702 30.4057 59.5141 30.3875 59.0398 30.3874C58.4562 30.409 57.8773 30.5009 57.3157 30.6611C56.8714 30.7932 56.4478 30.9866 56.057 31.2358C55.6919 31.473 55.3817 31.6736 55.1264 31.8378C54.9347 31.9794 54.7073 32.0647 54.4697 32.0842H49.6394V39.09C49.9848 39.0893 50.327 39.1568 50.6463 39.2885C50.9657 39.4202 51.2559 39.6136 51.5004 39.8577C51.7449 40.1017 51.9389 40.3915 52.0712 40.7106C52.2035 41.0297 52.2717 41.3717 52.2717 41.7171C52.2717 42.0626 52.2035 42.4046 52.0712 42.7237C51.9389 43.0428 51.7449 43.3326 51.5004 43.5766C51.2559 43.8206 50.9657 44.014 50.6463 44.1458C50.327 44.2775 49.9848 44.3449 49.6394 44.3443V58.356H55.5095C56.0934 58.3925 56.6316 58.4199 57.1243 58.4381C57.5901 58.4515 58.0513 58.5345 58.4926 58.6844C58.9211 58.8345 59.3336 59.027 59.7239 59.2591C60.6744 59.8505 61.5167 60.6003 62.2144 61.4758C62.6704 62.0414 63.1903 62.6434 63.7742 63.2819C64.358 63.9205 64.9419 64.5773 65.5256 65.2524C66.0813 65.8991 66.6851 66.5029 67.3318 67.0586C67.8842 67.5368 68.4695 67.9758 69.0834 68.3721C69.526 68.684 70.0479 68.8643 70.5886 68.8921C71.11 68.8752 71.6261 68.7831 72.1211 68.6185C72.6106 68.4556 73.0864 68.2543 73.5442 68.0164C74.1547 67.6994 74.6946 67.2618 75.1312 66.7302C75.5744 66.2017 75.9683 65.6337 76.3081 65.0335C76.8512 64.0968 77.2132 63.0663 77.3752 61.9958C77.5375 60.9453 77.6198 59.8841 77.6215 58.8213C77.5757 57.527 77.4386 56.2375 77.2112 54.9625V54.9625Z" fill="url(#paint1_linear_220:936)"/>
<g opacity="0.2">
<path opacity="0.2" d="M62.1218 45.038C62.5014 45.038 62.8724 44.9255 63.188 44.7146C63.5036 44.5038 63.7496 44.2041 63.8949 43.8534C64.0402 43.5027 64.0782 43.1169 64.0042 42.7446C63.9301 42.3723 63.7474 42.0304 63.479 41.762C63.2106 41.4936 62.8687 41.3108 62.4964 41.2367C62.1241 41.1627 61.7382 41.2007 61.3876 41.3459C61.0369 41.4912 60.7372 41.7371 60.5263 42.0527C60.3154 42.3683 60.2029 42.7394 60.2029 43.1189C60.2029 43.6279 60.4051 44.116 60.7649 44.4759C61.1248 44.8357 61.6129 45.0379 62.1218 45.038Z" fill="#767676"/>
<path opacity="0.2" d="M62.1218 47.5213C61.7423 47.5213 61.3713 47.6339 61.0557 47.8448C60.7401 48.0557 60.4942 48.3554 60.3489 48.7061C60.2037 49.0567 60.1657 49.4426 60.2398 49.8148C60.3138 50.1871 60.4966 50.529 60.765 50.7974C61.0334 51.0658 61.3753 51.2485 61.7476 51.3226C62.1199 51.3966 62.5057 51.3586 62.8564 51.2133C63.207 51.0681 63.5067 50.8221 63.7176 50.5065C63.9285 50.1909 64.041 49.8199 64.041 49.4404C64.041 49.1883 63.9914 48.9388 63.8949 48.7059C63.7985 48.4731 63.6571 48.2615 63.4789 48.0833C63.3007 47.9051 63.0891 47.7637 62.8563 47.6673C62.6234 47.5709 62.3739 47.5213 62.1218 47.5213V47.5213Z" fill="#767676"/>
<path opacity="0.2" d="M60.8801 46.2796C60.8801 45.9 60.7676 45.529 60.5567 45.2134C60.3458 44.8978 60.0461 44.6518 59.6954 44.5066C59.3448 44.3613 58.9589 44.3233 58.5866 44.3974C58.2144 44.4715 57.8724 44.6542 57.604 44.9226C57.3356 45.191 57.1529 45.533 57.0789 45.9053C57.0048 46.2775 57.0428 46.6634 57.1881 47.0141C57.3334 47.3647 57.5794 47.6644 57.895 47.8753C58.2106 48.0862 58.5816 48.1987 58.9612 48.1987C59.2132 48.1987 59.4627 48.149 59.6956 48.0526C59.9284 47.9561 60.1399 47.8148 60.3181 47.6366C60.4963 47.4583 60.6377 47.2468 60.7341 47.014C60.8305 46.7811 60.8801 46.5316 60.8801 46.2796V46.2796Z" fill="#767676"/>
<path opacity="0.2" d="M65.2826 48.1987C66.3425 48.1987 67.2017 47.3395 67.2017 46.2796C67.2017 45.2197 66.3425 44.3605 65.2826 44.3605C64.2227 44.3605 63.3635 45.2197 63.3635 46.2796C63.3635 47.3395 64.2227 48.1987 65.2826 48.1987Z" fill="#767676"/>
</g>
<path d="M62.1218 44.6998C62.5014 44.6998 62.8724 44.5873 63.188 44.3764C63.5036 44.1655 63.7496 43.8658 63.8949 43.5152C64.0402 43.1645 64.0782 42.7786 64.0042 42.4064C63.9301 42.0341 63.7474 41.6921 63.479 41.4237C63.2106 41.1553 62.8687 40.9726 62.4964 40.8985C62.1241 40.8244 61.7383 40.8624 61.3876 41.0077C61.0369 41.1529 60.7372 41.3989 60.5263 41.7145C60.3154 42.0301 60.2029 42.4011 60.2029 42.7807C60.2029 43.2896 60.4051 43.7777 60.7649 44.1376C61.1248 44.4975 61.6129 44.6997 62.1218 44.6998V44.6998Z" fill="#FFBD02"/>
<path d="M62.1218 47.1831C61.7423 47.1831 61.3713 47.2957 61.0557 47.5066C60.7401 47.7175 60.4942 48.0172 60.3489 48.3679C60.2037 48.7185 60.1657 49.1044 60.2398 49.4767C60.3138 49.8489 60.4966 50.1908 60.765 50.4592C61.0334 50.7276 61.3754 50.9103 61.7476 50.9844C62.1199 51.0584 62.5057 51.0204 62.8564 50.8751C63.207 50.7299 63.5068 50.4839 63.7176 50.1683C63.9285 49.8527 64.041 49.4817 64.041 49.1022C64.041 48.8501 63.9914 48.6006 63.8949 48.3677C63.7985 48.1349 63.6571 47.9233 63.4789 47.7451C63.3007 47.5669 63.0891 47.4256 62.8563 47.3291C62.6234 47.2327 62.3739 47.1831 62.1218 47.1831V47.1831Z" fill="#37C2B1"/>
<path d="M60.8801 45.9414C60.8801 45.5618 60.7676 45.1908 60.5567 44.8752C60.3458 44.5596 60.0461 44.3136 59.6954 44.1684C59.3448 44.0231 58.9589 43.9852 58.5866 44.0592C58.2144 44.1333 57.8724 44.316 57.604 44.5844C57.3357 44.8528 57.1529 45.1948 57.0789 45.5671C57.0048 45.9394 57.0428 46.3252 57.1881 46.6759C57.3334 47.0265 57.5794 47.3262 57.895 47.5371C58.2106 47.748 58.5816 47.8605 58.9612 47.8605C59.2132 47.8605 59.4627 47.8108 59.6956 47.7144C59.9284 47.6179 60.1399 47.4766 60.3181 47.2984C60.4963 47.1202 60.6376 46.9086 60.7341 46.6758C60.8305 46.443 60.8801 46.1934 60.8801 45.9414V45.9414Z" fill="#0078D4"/>
<path d="M65.2826 47.8605C66.3425 47.8605 67.2017 47.0013 67.2017 45.9414C67.2017 44.8815 66.3425 44.0223 65.2826 44.0223C64.2227 44.0223 63.3635 44.8815 63.3635 45.9414C63.3635 47.0013 64.2227 47.8605 65.2826 47.8605Z" fill="#E62323"/>
<path d="M51.5005 43.578C51.8692 43.2106 52.1204 42.7419 52.2223 42.2314C52.3242 41.7209 52.2722 41.1917 52.0728 40.7109C51.8734 40.23 51.5356 39.8192 51.1024 39.5307C50.6692 39.2421 50.16 39.0887 49.6394 39.0901V44.3443C49.9855 44.3505 50.3292 44.2857 50.6493 44.1539C50.9694 44.0221 51.2591 43.8261 51.5005 43.578V43.578Z" fill="#F2F2F2"/>
<path d="M47.7786 43.5781C47.4099 43.2106 47.1586 42.7419 47.0567 42.2315C46.9548 41.721 47.0069 41.1918 47.2062 40.711C47.4056 40.2301 47.7433 39.8194 48.1765 39.5308C48.6097 39.2422 49.1189 39.0888 49.6394 39.0901V32.0842H44.8367C44.5835 32.0416 44.3415 31.9485 44.125 31.8105C43.8879 31.6645 43.5961 31.4729 43.2494 31.2358C42.3857 30.6544 41.3618 30.3577 40.321 30.3874C39.7909 30.3865 39.2611 30.4139 38.7339 30.4695C38.223 30.5243 37.703 30.5881 37.1739 30.6611C36.426 30.7705 35.7237 30.88 35.0669 30.9895C34.4292 31.0936 33.8051 31.2679 33.2058 31.5095C32.6228 31.7463 32.0785 32.0691 31.5912 32.4673C31.057 32.9194 30.6115 33.4669 30.2776 34.082C29.712 35.0853 29.11 36.2347 28.4714 37.53C27.8329 38.8254 27.1944 40.2029 26.5559 41.6624C25.9172 43.1219 25.2969 44.618 24.6948 46.1505C24.0929 47.6831 23.573 49.2065 23.135 50.7207C22.6971 52.235 22.3414 53.6854 22.0677 55.072C21.8082 56.3237 21.6707 57.5977 21.6572 58.876C21.6754 59.3504 21.6936 59.8703 21.7119 60.4359C21.7284 60.9877 21.7925 61.5371 21.9036 62.0779C22.0124 62.6048 22.1494 63.1255 22.3141 63.6377C22.4716 64.1335 22.6826 64.6107 22.9434 65.0608C23.2916 65.6537 23.6948 66.2126 24.1475 66.7301C24.5923 67.2536 25.1306 67.6898 25.7349 68.0164C26.1937 68.252 26.6693 68.4532 27.1579 68.6184C27.6319 68.7909 28.1314 68.8834 28.6358 68.8921C29.1235 68.8933 29.6036 68.7709 30.0313 68.5363C30.9434 68.0367 31.7664 67.3894 32.4668 66.6207C32.8138 66.2375 33.1422 65.8909 33.4522 65.5807C34.0359 64.9787 34.6106 64.3584 35.1763 63.7198L36.8729 61.8042C37.1101 61.5123 37.3473 61.2295 37.5845 60.9558C37.8167 60.6872 38.0634 60.4314 38.3234 60.1896C38.712 59.8198 39.1438 59.4982 39.6095 59.2318C40.0121 59.0123 40.4335 58.8291 40.8687 58.6844C41.3117 58.5374 41.7713 58.4455 42.2368 58.4108C42.7112 58.3742 43.2403 58.356 43.8241 58.356H49.6394V44.3443C49.2933 44.3505 48.9497 44.2857 48.6296 44.1539C48.3096 44.0221 48.0199 43.8261 47.7786 43.5781V43.5781Z" fill="#0078D4"/>
<path opacity="0.2" d="M37.2561 40.314C36.0762 40.314 34.9228 40.6639 33.9418 41.3194C32.9607 41.9749 32.1961 42.9067 31.7446 43.9967C31.2931 45.0868 31.175 46.2863 31.4052 47.4435C31.6354 48.6007 32.2035 49.6637 33.0379 50.498C33.8722 51.3323 34.9352 51.9004 36.0924 52.1306C37.2496 52.3608 38.4491 52.2426 39.5391 51.7911C40.6292 51.3396 41.5609 50.5749 42.2164 49.5939C42.8719 48.6128 43.2218 47.4595 43.2217 46.2796C43.2217 45.4961 43.0674 44.7204 42.7676 43.9966C42.4678 43.2728 42.0284 42.6152 41.4744 42.0612C40.9205 41.5073 40.2628 41.0679 39.539 40.7681C38.8152 40.4683 38.0395 40.314 37.2561 40.314Z" fill="#003067"/>
<path d="M37.2561 39.9758C36.0762 39.9758 34.9228 40.3257 33.9418 40.9813C32.9607 41.6368 32.1961 42.5685 31.7446 43.6586C31.2931 44.7486 31.175 45.9481 31.4052 47.1053C31.6354 48.2625 32.2035 49.3255 33.0379 50.1598C33.8722 50.9941 34.9351 51.5622 36.0924 51.7924C37.2496 52.0226 38.4491 51.9044 39.5391 51.4529C40.6292 51.0014 41.5609 50.2368 42.2164 49.2557C42.8719 48.2747 43.2218 47.1213 43.2217 45.9414C43.2217 45.158 43.0674 44.3822 42.7676 43.6584C42.4678 42.9347 42.0284 42.277 41.4744 41.7231C40.9205 41.1691 40.2628 40.7297 39.539 40.4299C38.8152 40.1301 38.0395 39.9758 37.2561 39.9758V39.9758Z" fill="#1F56A3"/>
<path d="M47.0125 41.7171C47.011 42.0625 47.0779 42.4048 47.2094 42.7242C47.3409 43.0436 47.5344 43.3338 47.7786 43.578C48.0228 43.8223 48.313 44.0158 48.6324 44.1473C48.9518 44.2788 49.2941 44.3457 49.6395 44.3443V39.09C49.2941 39.0885 48.9518 39.1555 48.6324 39.287C48.313 39.4185 48.0229 39.6119 47.7786 39.8562C47.5344 40.1004 47.3409 40.3906 47.2094 40.71C47.078 41.0294 47.011 41.3717 47.0125 41.7171V41.7171Z" fill="#1F56A3"/>
<path fill-rule="evenodd" clip-rule="evenodd" d="M49.6393 35.3388C48.4726 35.3388 47.3321 34.9928 46.362 34.3446C45.3919 33.6965 44.6358 32.7752 44.1893 31.6972C43.7428 30.6193 43.626 29.4332 43.8536 28.2889C44.0812 27.1446 44.643 26.0935 45.468 25.2685C46.293 24.4435 47.3441 23.8817 48.4885 23.654C49.6328 23.4264 50.8189 23.5433 51.8968 23.9897C52.9747 24.4362 53.896 25.1923 54.5442 26.1624C55.1924 27.1325 55.5383 28.2731 55.5383 29.4398C55.5383 31.0043 54.9168 32.5047 53.8105 33.611C52.7043 34.7173 51.2038 35.3388 49.6393 35.3388V35.3388Z" fill="white"/>
<path fill-rule="evenodd" clip-rule="evenodd" d="M52.3495 27.8035C52.2111 27.6652 52.0234 27.5874 51.8277 27.5874C51.6321 27.5874 51.4444 27.6652 51.306 27.8035L48.8738 30.234L47.9952 29.3638C47.9747 29.3333 47.9515 29.3047 47.9259 29.2783C47.7884 29.1407 47.6021 29.0629 47.4075 29.0621C47.213 29.0612 47.026 29.1373 46.8873 29.2737C46.7486 29.4101 46.6694 29.5958 46.667 29.7903C46.6647 29.9849 46.7393 30.1724 46.8747 30.3122L46.8658 30.321L48.3542 31.7959C48.4927 31.9341 48.6804 32.0118 48.8761 32.0118C49.0718 32.0118 49.2596 31.9341 49.398 31.7959L52.3473 28.848L52.3495 28.8462C52.418 28.7778 52.4723 28.6965 52.5094 28.607C52.5465 28.5176 52.5656 28.4217 52.5656 28.3249C52.5656 28.228 52.5465 28.1321 52.5094 28.0427C52.4723 27.9532 52.418 27.8719 52.3495 27.8035V27.8035Z" fill="#0078D4"/>
<path opacity="0.2" d="M44.8367 32.0842C44.5835 32.0416 44.3415 31.9485 44.125 31.8105C43.8879 31.6645 43.5961 31.4729 43.2494 31.2358C42.8675 30.9812 42.4533 30.7788 42.0178 30.6338C41.9619 30.6144 41.8926 30.6073 41.8342 30.5903C42.1105 32.4595 43.0474 34.1679 44.475 35.4057C45.9026 36.6436 47.7264 37.329 49.616 37.3378V32.0842L44.8367 32.0842Z" fill="#1F56A3"/>
<path opacity="0.2" d="M57.4385 30.6333C57.4003 30.644 57.3527 30.6497 57.3157 30.6611C56.8714 30.7932 56.4478 30.9866 56.057 31.2358C55.6919 31.473 55.3817 31.6736 55.1265 31.8378C54.9347 31.9794 54.7073 32.0647 54.4697 32.0842H49.616V37.3378L49.6392 37.3389C51.5254 37.3355 53.3483 36.6578 54.7786 35.4281C56.2089 34.1984 57.1523 32.4977 57.4385 30.6333V30.6333Z" fill="#767676"/>
<path d="M49.6394 60.9832C51.0904 60.9832 52.2666 59.807 52.2666 58.356C52.2666 56.9051 51.0904 55.7288 49.6394 55.7288C48.1884 55.7288 47.0122 56.9051 47.0122 58.356C47.0122 59.807 48.1884 60.9832 49.6394 60.9832Z" stroke="white" stroke-width="0.5" stroke-miterlimit="10"/>
<path d="M49.6393 76.6028C50.3648 76.6028 50.9529 76.0147 50.9529 75.2892C50.9529 74.5637 50.3648 73.9756 49.6393 73.9756C48.9138 73.9756 48.3257 74.5637 48.3257 75.2892C48.3257 76.0147 48.9138 76.6028 49.6393 76.6028Z" stroke="white" stroke-width="0.5" stroke-miterlimit="10"/>
<path d="M49.6394 60.9832V73.9762" stroke="white" stroke-width="0.5" stroke-miterlimit="10"/>
<path d="M37.2561 54.6948C38.7071 54.6948 39.8833 53.5185 39.8833 52.0676C39.8833 50.6166 38.7071 49.4404 37.2561 49.4404C35.8051 49.4404 34.6289 50.6166 34.6289 52.0676C34.6289 53.5185 35.8051 54.6948 37.2561 54.6948Z" stroke="white" stroke-width="0.5" stroke-miterlimit="10"/>
<path d="M37.2562 70.3143C37.9817 70.3143 38.5698 69.7262 38.5698 69.0007C38.5698 68.2753 37.9817 67.6871 37.2562 67.6871C36.5307 67.6871 35.9426 68.2753 35.9426 69.0007C35.9426 69.7262 36.5307 70.3143 37.2562 70.3143Z" stroke="white" stroke-width="0.5" stroke-miterlimit="10"/>
<path d="M37.2561 54.6947V67.6878" stroke="white" stroke-width="0.5" stroke-miterlimit="10"/>
<path d="M62.1218 54.6948C63.5728 54.6948 64.749 53.5185 64.749 52.0676C64.749 50.6166 63.5728 49.4404 62.1218 49.4404C60.6709 49.4404 59.4946 50.6166 59.4946 52.0676C59.4946 53.5185 60.6709 54.6948 62.1218 54.6948Z" stroke="white" stroke-width="0.5" stroke-miterlimit="10"/>
<path d="M62.122 70.3143C62.8474 70.3143 63.4356 69.7262 63.4356 69.0007C63.4356 68.2753 62.8474 67.6871 62.122 67.6871C61.3965 67.6871 60.8083 68.2753 60.8083 69.0007C60.8083 69.7262 61.3965 70.3143 62.122 70.3143Z" stroke="white" stroke-width="0.5" stroke-miterlimit="10"/>
<path d="M62.1218 54.6947V67.6878" stroke="white" stroke-width="0.5" stroke-miterlimit="10"/>
<path opacity="0.2" d="M39.1141 74.0833C39.4273 74.0833 39.6812 73.8294 39.6812 73.5162C39.6812 73.2031 39.4273 72.9492 39.1141 72.9492C38.801 72.9492 38.5471 73.2031 38.5471 73.5162C38.5471 73.8294 38.801 74.0833 39.1141 74.0833Z" fill="white"/>
<path opacity="0.2" d="M37.2448 74.0833C37.5579 74.0833 37.8118 73.8294 37.8118 73.5162C37.8118 73.2031 37.5579 72.9492 37.2448 72.9492C36.9316 72.9492 36.6777 73.2031 36.6777 73.5162C36.6777 73.8294 36.9316 74.0833 37.2448 74.0833Z" fill="white"/>
<path d="M35.3756 74.0833C35.6888 74.0833 35.9426 73.8294 35.9426 73.5162C35.9426 73.2031 35.6888 72.9492 35.3756 72.9492C35.0625 72.9492 34.8086 73.2031 34.8086 73.5162C34.8086 73.8294 35.0625 74.0833 35.3756 74.0833Z" fill="white"/>
<path d="M63.9913 74.0833C64.3045 74.0833 64.5584 73.8294 64.5584 73.5162C64.5584 73.2031 64.3045 72.9492 63.9913 72.9492C63.6782 72.9492 63.4243 73.2031 63.4243 73.5162C63.4243 73.8294 63.6782 74.0833 63.9913 74.0833Z" fill="white"/>
<path d="M62.122 74.0833C62.4351 74.0833 62.689 73.8294 62.689 73.5162C62.689 73.2031 62.4351 72.9492 62.122 72.9492C61.8088 72.9492 61.5549 73.2031 61.5549 73.5162C61.5549 73.8294 61.8088 74.0833 62.122 74.0833Z" fill="white"/>
<path d="M60.2526 74.0833C60.5657 74.0833 60.8196 73.8294 60.8196 73.5162C60.8196 73.2031 60.5657 72.9492 60.2526 72.9492C59.9394 72.9492 59.6855 73.2031 59.6855 73.5162C59.6855 73.8294 59.9394 74.0833 60.2526 74.0833Z" fill="white"/>
<path opacity="0.2" d="M51.5094 79.5959C51.8226 79.5959 52.0764 79.342 52.0764 79.0289C52.0764 78.7157 51.8226 78.4619 51.5094 78.4619C51.1962 78.4619 50.9424 78.7157 50.9424 79.0289C50.9424 79.342 51.1962 79.5959 51.5094 79.5959Z" fill="white"/>
<path d="M49.64 79.5959C49.9532 79.5959 50.207 79.342 50.207 79.0289C50.207 78.7157 49.9532 78.4619 49.64 78.4619C49.3269 78.4619 49.073 78.7157 49.073 79.0289C49.073 79.342 49.3269 79.5959 49.64 79.5959Z" fill="white"/>
<path d="M47.7706 79.5959C48.0838 79.5959 48.3377 79.342 48.3377 79.0289C48.3377 78.7157 48.0838 78.4619 47.7706 78.4619C47.4575 78.4619 47.2036 78.7157 47.2036 79.0289C47.2036 79.342 47.4575 79.5959 47.7706 79.5959Z" fill="white"/>
<path fill-rule="evenodd" clip-rule="evenodd" d="M49.6393 35.3388C48.4726 35.3388 47.3321 34.9928 46.362 34.3446C45.3919 33.6965 44.6358 32.7752 44.1893 31.6972C43.7428 30.6193 43.626 29.4332 43.8536 28.2889C44.0812 27.1446 44.643 26.0935 45.468 25.2685C46.293 24.4435 47.3441 23.8817 48.4885 23.654C49.6328 23.4264 50.8189 23.5433 51.8968 23.9897C52.9747 24.4362 53.896 25.1923 54.5442 26.1624C55.1924 27.1325 55.5383 28.2731 55.5383 29.4398C55.5383 31.0043 54.9168 32.5047 53.8105 33.611C52.7043 34.7173 51.2038 35.3388 49.6393 35.3388V35.3388Z" fill="white"/>
<path fill-rule="evenodd" clip-rule="evenodd" d="M52.3495 27.8035C52.2111 27.6652 52.0234 27.5874 51.8277 27.5874C51.6321 27.5874 51.4444 27.6652 51.306 27.8035L48.8738 30.234L47.9952 29.3638C47.9747 29.3333 47.9515 29.3047 47.9259 29.2783C47.7884 29.1407 47.6021 29.0629 47.4075 29.0621C47.213 29.0612 47.026 29.1373 46.8873 29.2737C46.7486 29.4101 46.6694 29.5958 46.667 29.7903C46.6647 29.9849 46.7393 30.1724 46.8747 30.3122L46.8658 30.321L48.3542 31.7959C48.4927 31.9341 48.6804 32.0118 48.8761 32.0118C49.0718 32.0118 49.2596 31.9341 49.398 31.7959L52.3473 28.848L52.3495 28.8462C52.418 28.7778 52.4723 28.6965 52.5094 28.607C52.5465 28.5176 52.5656 28.4217 52.5656 28.3249C52.5656 28.228 52.5465 28.1321 52.5094 28.0427C52.4723 27.9532 52.418 27.8719 52.3495 27.8035V27.8035Z" fill="#0078D4"/>
</g>
<defs>
<linearGradient id="paint0_linear_220:936" x1="47.8698" y1="-15.1532" x2="51.8525" y2="130.615" gradientUnits="userSpaceOnUse">
<stop stop-color="#00ABDE"/>
<stop offset="1" stop-color="#007ED8"/>
</linearGradient>
<linearGradient id="paint1_linear_220:936" x1="63.6305" y1="30.3874" x2="63.6305" y2="68.8921" gradientUnits="userSpaceOnUse">
<stop stop-color="#F0F0F0"/>
<stop offset="0.32208" stop-color="#EAEAEA"/>
<stop offset="0.75502" stop-color="#D9D9D9"/>
<stop offset="1" stop-color="#CCCCCC"/>
</linearGradient>
<clipPath id="clip0_220:936">
<rect width="99.2799" height="99.28" fill="white"/>
</clipPath>
</defs>
</svg>
