<svg width="100" height="100" viewBox="0 0 100 100" fill="none" xmlns="http://www.w3.org/2000/svg">
<g clip-path="url(#clip0)">
<path d="M49.6401 96.4501C40.382 96.4501 31.3317 93.7047 23.6339 88.5612C15.936 83.4176 9.93624 76.1069 6.3933 67.5535C2.85036 59.0001 1.92337 49.5882 3.72954 40.5079C5.53571 31.4277 9.99394 23.0869 16.5404 16.5404C23.0869 9.99393 31.4277 5.53571 40.5079 3.72954C49.5882 1.92337 59.0001 2.85036 67.5535 6.3933C76.1069 9.93624 83.4176 15.936 88.5612 23.6339C93.7047 31.3317 96.4501 40.382 96.4501 49.6401C96.4505 55.7874 95.24 61.8746 92.8878 67.554C90.5355 73.2335 87.0875 78.3939 82.7407 82.7407C78.3939 87.0875 73.2335 90.5355 67.554 92.8878C61.8746 95.24 55.7874 96.4505 49.6401 96.4501V96.4501Z" fill="url(#paint0_linear)"/>
<path fill-rule="evenodd" clip-rule="evenodd" d="M95.54 49.64C95.54 58.7182 92.848 67.5925 87.8045 75.1407C82.7609 82.6889 75.5923 88.572 67.2052 92.0461C58.818 95.5201 49.5891 96.4291 40.6854 94.658C31.7816 92.887 23.603 88.5154 17.1838 82.0962C10.7646 75.677 6.39302 67.4984 4.62196 58.5946C2.85089 49.6909 3.75987 40.462 7.23393 32.0748C10.708 23.6877 16.5911 16.5191 24.1393 11.4755C31.6875 6.43199 40.5618 3.74 49.64 3.74C55.6677 3.73998 61.6363 4.9272 67.2052 7.23388C72.774 9.54057 77.834 12.9215 82.0963 17.1837C86.3585 21.446 89.7394 26.5059 92.0461 32.0748C94.3528 37.6437 95.54 43.6123 95.54 49.64V49.64ZM49.64 3.62732e-07C59.4579 3.62732e-07 69.0553 2.91134 77.2185 8.36585C85.3818 13.8204 91.7442 21.5731 95.5014 30.6436C99.2585 39.7141 100.242 49.6951 98.3262 59.3243C96.4108 68.9535 91.6831 77.7985 84.7408 84.7408C77.7985 91.6831 68.9535 96.4108 59.3243 98.3262C49.6951 100.242 39.7141 99.2585 30.6436 95.5014C21.5731 91.7442 13.8204 85.3818 8.36585 77.2185C2.91134 69.0553 3.62732e-07 59.4579 3.62732e-07 49.64C-0.000787738 43.121 1.28265 36.6656 3.77702 30.6427C6.27138 24.6197 9.9278 19.1471 14.5375 14.5375C19.1471 9.9278 24.6197 6.27138 30.6427 3.77702C36.6656 1.28265 43.121 -0.000787738 49.64 3.62732e-07V3.62732e-07Z" fill="#F2F1F0"/>
<path fill-rule="evenodd" clip-rule="evenodd" d="M92.7296 49.6406C92.7296 58.163 90.2024 66.494 85.4676 73.5801C80.7328 80.6662 74.0031 86.1892 66.1294 89.4505C58.2558 92.7119 49.5918 93.5653 41.2332 91.9026C32.8745 90.24 25.1966 86.1361 19.1704 80.1098C13.1441 74.0836 9.0402 66.4057 7.37756 58.047C5.71493 49.6884 6.56825 41.0244 9.82963 33.1507C13.091 25.2771 18.614 18.5473 25.7001 13.8126C32.7862 9.07776 41.1172 6.55058 49.6396 6.55058C55.2984 6.55023 60.9018 7.66455 66.1298 9.82991C71.3579 11.9953 76.1083 15.1692 80.1096 19.1706C84.1109 23.1719 87.2849 27.9223 89.4503 33.1503C91.6156 38.3784 92.7299 43.9818 92.7296 49.6406V49.6406ZM49.6396 2.81058C58.9017 2.81058 67.9558 5.55711 75.657 10.7029C83.3581 15.8486 89.3604 23.1624 92.9049 31.7195C96.4493 40.2766 97.3767 49.6925 95.5698 58.7767C93.7628 67.8608 89.3027 76.2051 82.7534 82.7544C76.2041 89.3037 67.8598 93.7638 58.7757 95.5708C49.6916 97.3777 40.2756 96.4503 31.7185 92.9059C23.1615 89.3614 15.8476 83.3591 10.7019 75.6579C5.55613 67.9568 2.8096 58.9027 2.8096 49.6406C2.81079 37.2209 7.74503 25.3101 16.5271 16.5281C25.3092 7.74599 37.2199 2.81174 49.6396 2.81055V2.81058Z" fill="#0078D4"/>
<path fill-rule="evenodd" clip-rule="evenodd" d="M92.7296 49.6406C92.7296 58.163 90.2024 66.494 85.4676 73.5801C80.7328 80.6662 74.0031 86.1892 66.1294 89.4505C58.2558 92.7119 49.5918 93.5653 41.2332 91.9026C32.8745 90.24 25.1966 86.1361 19.1704 80.1098C13.1441 74.0836 9.0402 66.4057 7.37756 58.047C5.71493 49.6884 6.56825 41.0244 9.82963 33.1507C13.091 25.2771 18.614 18.5473 25.7001 13.8126C32.7862 9.07776 41.1172 6.55058 49.6396 6.55058C55.2984 6.55023 60.9018 7.66455 66.1298 9.82991C71.3579 11.9953 76.1083 15.1692 80.1096 19.1706C84.1109 23.1719 87.2849 27.9223 89.4503 33.1503C91.6156 38.3784 92.7299 43.9818 92.7296 49.6406V49.6406ZM49.6396 2.81058C58.9017 2.81058 67.9558 5.55711 75.657 10.7029C83.3581 15.8486 89.3604 23.1624 92.9049 31.7195C96.4493 40.2766 97.3767 49.6925 95.5698 58.7767C93.7628 67.8608 89.3027 76.2051 82.7534 82.7544C76.2041 89.3037 67.8598 93.7638 58.7757 95.5708C49.6916 97.3777 40.2756 96.4503 31.7185 92.9059C23.1615 89.3614 15.8476 83.3591 10.7019 75.6579C5.55613 67.9568 2.8096 58.9027 2.8096 49.6406C2.81079 37.2209 7.74503 25.3101 16.5271 16.5281C25.3092 7.74599 37.2199 2.81174 49.6396 2.81055V2.81058Z" fill="#0078D4"/>
<path opacity="0.2" d="M48.6839 76.6813C60.2746 76.6813 69.6706 75.2309 69.6706 73.4417C69.6706 71.6526 60.2746 70.2021 48.6839 70.2021C37.0933 70.2021 27.6973 71.6526 27.6973 73.4417C27.6973 75.2309 37.0933 76.6813 48.6839 76.6813Z" fill="#003067"/>
<path fill-rule="evenodd" clip-rule="evenodd" d="M56.5859 71.3702L50.4139 65.1982V62.5575C50.4111 62.1178 50.2344 61.6971 49.9225 61.3872C49.6105 61.0773 49.1887 60.9033 48.749 60.9033C48.3092 60.9033 47.8874 61.0773 47.5754 61.3872C47.2635 61.6971 47.0868 62.1178 47.084 62.5575V65.1981L40.912 71.3701C40.7574 71.5247 40.6348 71.7082 40.5511 71.9102C40.4675 72.1122 40.4244 72.3286 40.4244 72.5473C40.4244 72.7659 40.4675 72.9823 40.5511 73.1843C40.6348 73.3863 40.7574 73.5698 40.912 73.7244C41.0666 73.879 41.2501 74.0016 41.4521 74.0852C41.654 74.1689 41.8705 74.212 42.0891 74.212C42.3077 74.212 42.5242 74.1689 42.7262 74.0852C42.9282 74.0016 43.1117 73.879 43.2663 73.7244L47.084 69.9067V71.7148C47.0868 72.1545 47.2635 72.5753 47.5754 72.8852C47.8874 73.1951 48.3092 73.369 48.749 73.369C49.1887 73.369 49.6105 73.1951 49.9225 72.8852C50.2344 72.5753 50.4111 72.1545 50.4139 71.7148V69.9067L54.2317 73.7244C54.3862 73.8792 54.5698 74.002 54.7718 74.0857C54.9738 74.1695 55.1903 74.2127 55.409 74.2128C55.6277 74.2128 55.8443 74.1698 56.0464 74.0861C56.2484 74.0025 56.432 73.8798 56.5867 73.7252C56.7413 73.5705 56.864 73.3869 56.9476 73.1849C57.0313 72.9828 57.0743 72.7662 57.0743 72.5475C57.0742 72.3288 57.031 72.1123 56.9472 71.9103C56.8635 71.7083 56.7407 71.5247 56.5859 71.3702H56.5859Z" fill="#546670"/>
<path fill-rule="evenodd" clip-rule="evenodd" d="M73.7237 30.9229V60.8922C73.7224 61.3334 73.5465 61.7561 73.2346 62.0681C72.9226 62.3801 72.4999 62.5559 72.0587 62.5572H25.4397C24.9985 62.5559 24.5757 62.3801 24.2637 62.0681C23.9518 61.7561 23.7759 61.3334 23.7747 60.8922V30.9229H73.7237Z" fill="#E1E4E1"/>
<path d="M36.6293 50.7207H34.9105L34.4125 49.1631H31.9222L31.4291 50.7207H29.7201L32.2689 43.7188H34.139L36.6293 50.7207ZM34.0511 47.9521L33.2992 45.5986C33.2439 45.4229 33.2048 45.2129 33.182 44.9688H33.1429C33.1267 45.1738 33.086 45.3773 33.0209 45.5791L32.2592 47.9521H34.0511Z" fill="#0078D4"/>
<path d="M37.181 50.4521V48.8896C37.4642 49.1273 37.7719 49.3063 38.1039 49.4268C38.4359 49.5439 38.7712 49.6025 39.1097 49.6025C39.3083 49.6025 39.4808 49.5846 39.6273 49.5488C39.7771 49.513 39.9008 49.4642 39.9984 49.4023C40.0993 49.3372 40.1742 49.2624 40.223 49.1777C40.2719 49.0898 40.2963 48.9954 40.2963 48.8945C40.2963 48.7578 40.2572 48.6357 40.1791 48.5283C40.101 48.4209 39.9935 48.3216 39.8568 48.2305C39.7233 48.1393 39.5638 48.0514 39.3783 47.9668C39.1927 47.8822 38.9926 47.7959 38.7777 47.708C38.2308 47.4801 37.8223 47.2018 37.5521 46.873C37.2852 46.5443 37.1517 46.1471 37.1517 45.6816C37.1517 45.3171 37.225 45.0046 37.3715 44.7441C37.5179 44.4805 37.7165 44.264 37.9672 44.0947C38.2211 43.9255 38.514 43.8018 38.8461 43.7236C39.1781 43.6423 39.5297 43.6016 39.9008 43.6016C40.2653 43.6016 40.5876 43.6243 40.8676 43.6699C41.1508 43.7122 41.4112 43.779 41.6488 43.8701V45.3301C41.5316 45.2487 41.403 45.1771 41.2631 45.1152C41.1263 45.0534 40.9847 45.0029 40.8383 44.9639C40.6918 44.9215 40.5453 44.8906 40.3988 44.8711C40.2556 44.8516 40.1189 44.8418 39.9886 44.8418C39.8096 44.8418 39.6469 44.8597 39.5004 44.8955C39.3539 44.9281 39.2302 44.9753 39.1293 45.0371C39.0284 45.099 38.9502 45.1738 38.8949 45.2617C38.8396 45.3464 38.8119 45.4424 38.8119 45.5498C38.8119 45.667 38.8428 45.7728 38.9047 45.8672C38.9665 45.9583 39.0544 46.0462 39.1683 46.1309C39.2823 46.2122 39.4206 46.2936 39.5834 46.375C39.7461 46.4531 39.9301 46.5345 40.1351 46.6191C40.4151 46.7363 40.6657 46.8617 40.8871 46.9951C41.1117 47.1253 41.3038 47.2734 41.4633 47.4395C41.6228 47.6055 41.7448 47.7959 41.8295 48.0107C41.9141 48.2223 41.9564 48.4697 41.9564 48.7529C41.9564 49.1436 41.8816 49.4723 41.7318 49.7393C41.5853 50.0029 41.3851 50.2178 41.1312 50.3838C40.8773 50.5465 40.5811 50.6637 40.2426 50.7354C39.9073 50.807 39.5524 50.8428 39.1781 50.8428C38.794 50.8428 38.4278 50.8102 38.0795 50.7451C37.7344 50.68 37.4349 50.5824 37.181 50.4521Z" fill="#0078D4"/>
<path d="M44.6859 48.3086V50.7207H43.1088V43.7188H45.5795C47.3438 43.7188 48.226 44.4626 48.226 45.9502C48.226 46.6533 47.972 47.223 47.4642 47.6592C46.9597 48.0921 46.2842 48.3086 45.4379 48.3086H44.6859ZM44.6859 44.9297V47.1123H45.306C46.1459 47.1123 46.5658 46.7445 46.5658 46.0088C46.5658 45.2894 46.1459 44.9297 45.306 44.9297H44.6859Z" fill="#0078D4"/>
<path d="M48.2845 50.8428C48.0306 50.8428 47.8191 50.7646 47.6498 50.6084C47.4805 50.4521 47.3959 50.2601 47.3959 50.0322C47.3959 49.7979 47.4821 49.6058 47.6547 49.4561C47.8304 49.3063 48.0485 49.2314 48.309 49.2314C48.5726 49.2314 48.7875 49.3079 48.9535 49.4609C49.1228 49.6107 49.2074 49.8011 49.2074 50.0322C49.2074 50.2699 49.1211 50.4652 48.9486 50.6182C48.7793 50.7679 48.558 50.8428 48.2845 50.8428Z" fill="#0078D4"/>
<path d="M56.7611 50.7207H55.1693L52.2836 46.3213C52.1143 46.0641 51.9971 45.8704 51.932 45.7402H51.9125C51.9385 45.9876 51.9515 46.3652 51.9515 46.873V50.7207H50.4623V43.7188H52.1615L54.9398 47.9814C55.0668 48.1735 55.184 48.3639 55.2914 48.5527H55.3109C55.2849 48.39 55.2719 48.0693 55.2719 47.5908V43.7188H56.7611V50.7207Z" fill="#0078D4"/>
<path d="M62.5619 50.7207H58.3627V43.7188H62.4008V45.0029H59.9398V46.5605H62.2299V47.8398H59.9398V49.4414H62.5619V50.7207Z" fill="#0078D4"/>
<path d="M68.6898 45.0029H66.6927V50.7207H65.1107V45.0029H63.1234V43.7188H68.6898V45.0029Z" fill="#0078D4"/>
<path fill-rule="evenodd" clip-rule="evenodd" d="M48.7492 27.5936C48.3077 27.5934 47.8842 27.418 47.572 27.1057C47.2598 26.7935 47.0843 26.3701 47.0842 25.9286V24.2636C47.087 23.8239 47.2637 23.4031 47.5757 23.0932C47.8876 22.7833 48.3094 22.6094 48.7492 22.6094C49.1889 22.6094 49.6107 22.7833 49.9227 23.0932C50.2346 23.4031 50.4113 23.8239 50.4141 24.2636V25.9286C50.414 26.3701 50.2385 26.7935 49.9263 27.1057C49.6141 27.4179 49.1907 27.5934 48.7492 27.5936V27.5936Z" fill="#546670"/>
<path fill-rule="evenodd" clip-rule="evenodd" d="M75.3886 30.0901C75.388 30.3107 75.3001 30.5221 75.1441 30.6781C74.9881 30.8341 74.7767 30.922 74.5561 30.9226H22.9422C22.7216 30.922 22.5103 30.8341 22.3543 30.6781C22.1983 30.5221 22.1104 30.3107 22.1097 30.0901V26.7602C22.1104 26.5396 22.1983 26.3283 22.3543 26.1723C22.5103 26.0163 22.7216 25.9284 22.9422 25.9277H74.5561C74.7767 25.9284 74.9881 26.0163 75.1441 26.1723C75.3001 26.3283 75.388 26.5396 75.3886 26.7602V30.0901Z" fill="#30404D"/>
<path fill-rule="evenodd" clip-rule="evenodd" d="M23.7747 32.5879H73.7237V30.9229H23.7747V32.5879Z" fill="#C5CCCD"/>
<path fill-rule="evenodd" clip-rule="evenodd" d="M42.1864 72.4502C42.0931 72.5433 41.9792 72.6132 41.8538 72.654C41.7285 72.6947 41.5952 72.7053 41.465 72.6849C41.3348 72.6644 41.2112 72.6135 41.1044 72.5363C40.9975 72.459 40.9105 72.3576 40.8503 72.2404C40.7669 72.0752 40.6997 71.9023 40.6496 71.7242C40.4491 72.0736 40.3823 72.4839 40.4617 72.8788C40.5411 73.2737 40.7613 73.6263 41.0813 73.871C41.4013 74.1157 41.7993 74.2357 42.2012 74.2088C42.6031 74.1819 42.9816 74.0098 43.2661 73.7247L48.7489 68.3851V65.8877L42.1864 72.4502Z" fill="#30404D"/>
<path fill-rule="evenodd" clip-rule="evenodd" d="M55.3117 72.4502C55.4049 72.5433 55.5189 72.6131 55.6442 72.6539C55.7696 72.6947 55.9028 72.7053 56.033 72.6849C56.1633 72.6644 56.2868 72.6135 56.3937 72.5362C56.5005 72.459 56.5876 72.3576 56.6478 72.2404C56.7312 72.0752 56.7983 71.9023 56.8484 71.7242C57.049 72.0736 57.1158 72.4839 57.0364 72.8788C56.957 73.2737 56.7368 73.6264 56.4168 73.871C56.0968 74.1157 55.6988 74.2357 55.2968 74.2088C54.8949 74.1819 54.5165 74.0098 54.2319 73.7247L48.7492 68.3851V65.8877L55.3117 72.4502Z" fill="#30404D"/>
<path fill-rule="evenodd" clip-rule="evenodd" d="M48.7493 67.5527V71.5803C48.7484 71.7142 48.7154 71.846 48.653 71.9646C48.5907 72.0832 48.5009 72.1852 48.3911 72.262C48.2814 72.3387 48.1548 72.3881 48.022 72.406C47.8892 72.4238 47.7541 72.4096 47.6279 72.3645C47.4623 72.308 47.3021 72.2366 47.1493 72.1514C47.2507 72.5286 47.482 72.858 47.8023 73.0816C48.1227 73.3051 48.5117 73.4085 48.9008 73.3734C49.3255 73.3194 49.7152 73.1101 49.9947 72.7857C50.2742 72.4613 50.4237 72.045 50.4143 71.6169V67.5527H48.7493Z" fill="#30404D"/>
<path fill-rule="evenodd" clip-rule="evenodd" d="M47.0842 62.5576V63.3901H47.8451C47.9639 63.3901 48.0814 63.4134 48.1911 63.4589C48.3008 63.5043 48.4005 63.5709 48.4845 63.6548C48.5684 63.7388 48.635 63.8385 48.6804 63.9482C48.7259 64.0579 48.7492 64.1754 48.7492 64.2942C48.7492 64.4129 48.7725 64.5305 48.818 64.6402C48.8634 64.7499 48.93 64.8496 49.0139 64.9335C49.0979 65.0175 49.1976 65.0841 49.3073 65.1295C49.417 65.1749 49.5345 65.1983 49.6533 65.1983H50.4142V62.5576H47.0842Z" fill="#30404D"/>
<path fill-rule="evenodd" clip-rule="evenodd" d="M22.9422 30.9226H74.5561C74.7767 30.922 74.9881 30.8341 75.1441 30.6781C75.3001 30.5221 75.388 30.3107 75.3886 30.0901V26.7602C75.388 26.5396 75.3001 26.3283 75.1441 26.1723C74.9881 26.0163 74.7767 25.9284 74.5561 25.9277H48.7492V27.5927C48.7491 27.8135 48.6614 28.0252 48.5053 28.1813C48.3492 28.3374 48.1375 28.4251 47.9167 28.4252H22.1097V30.0902C22.1104 30.3108 22.1983 30.5222 22.3543 30.6781C22.5103 30.8341 22.7216 30.922 22.9422 30.9226V30.9226Z" fill="#182A37"/>
<path fill-rule="evenodd" clip-rule="evenodd" d="M48.7492 24.183V25.9287H50.4142V24.2637C50.4141 24.17 50.4063 24.0764 50.3909 23.984C50.3428 23.7858 50.2237 23.6121 50.0561 23.496C49.8885 23.3798 49.6841 23.3292 49.4816 23.3537C49.2792 23.3782 49.0927 23.4762 48.9577 23.6291C48.8228 23.7819 48.7485 23.979 48.7492 24.183V24.183Z" fill="#30404D"/>
<path d="M35.5227 60.0039H34.5227C34.3901 60.0039 34.2629 59.9512 34.1692 59.8575C34.0754 59.7637 34.0227 59.6365 34.0227 59.5039C34.0227 59.3713 34.0754 59.2441 34.1692 59.1504C34.2629 59.0566 34.3901 59.0039 34.5227 59.0039H35.5227C35.6553 59.0039 35.7825 59.0566 35.8763 59.1504C35.97 59.2441 36.0227 59.3713 36.0227 59.5039C36.0227 59.6365 35.97 59.7637 35.8763 59.8575C35.7825 59.9512 35.6553 60.0039 35.5227 60.0039Z" fill="#0078D4"/>
<path opacity="0.2" d="M76.738 62.5573L76.7704 54.9499C77.0327 53.4695 76.1965 51.9347 74.24 50.802C72.3031 49.8249 70.1639 49.3164 67.9946 49.3174C65.8253 49.3183 63.6865 49.8287 61.7505 50.8075C59.7562 51.9929 58.9561 53.6096 59.3445 55.1438C59.2603 55.0398 59.2122 54.9779 59.2122 54.9926L59.1796 62.5573H76.738Z" fill="#767676"/>
<path opacity="0.2" d="M19.7756 62.5572H39.6189C39.2731 61.4266 38.7357 60.3637 38.03 59.4151C37.9356 59.2887 37.8305 59.1757 37.7316 59.0549C37.7592 59.0547 37.7863 59.0509 37.8139 59.0507C37.2795 58.3896 36.6659 57.7965 35.9869 57.285C35.9587 57.2868 35.9308 57.2919 35.9026 57.2938C34.5927 56.321 33.073 55.669 31.4655 55.39C29.8579 55.111 28.2074 55.2129 26.6464 55.6874C26.6378 55.6717 26.6269 55.6575 26.6185 55.6418C26.1605 55.7791 25.7137 55.9513 25.282 56.1568C25.2881 56.1683 25.2959 56.1787 25.302 56.1901C24.6456 56.4939 24.0224 56.8649 23.4426 57.2972L23.3322 57.3708C22.8876 57.7203 22.472 58.1054 22.0897 58.5223C22.0875 58.5021 22.0836 58.4823 22.0815 58.4622C21.5669 59.0026 21.1145 59.599 20.7326 60.2402C20.7361 60.2651 20.743 60.2893 20.7466 60.3142C20.3356 61.021 20.0097 61.7739 19.7756 62.5572V62.5572Z" fill="#767676"/>
<path d="M34.1096 73.8517C33.0275 74.6907 31.7907 75.3083 30.4699 75.6693C29.149 76.0303 27.7701 76.1276 26.4116 75.9556C25.0532 75.7837 23.742 75.3459 22.5527 74.6672C21.3635 73.9885 20.3196 73.0822 19.4807 72.0001C18.6417 70.9179 18.0241 69.6812 17.6631 68.3603C17.3021 67.0395 17.2048 65.6605 17.3767 64.3021C17.5487 62.9437 17.9865 61.6324 18.6652 60.4432C19.3439 59.254 20.2502 58.2101 21.3323 57.3711L21.4426 57.2976C23.6406 55.6566 26.3969 54.9482 29.1137 55.3259C31.8305 55.7037 34.289 57.1372 35.9558 59.3156C37.6227 61.494 38.3637 64.2417 38.0181 66.9628C37.6725 69.684 36.2681 72.1592 34.1096 73.8517" fill="url(#paint1_radial)"/>
<path opacity="0.6" d="M24.8883 63.4408C27.8365 60.6368 31.7453 59.0663 35.814 59.0509C35.2795 58.3898 34.6659 57.7968 33.9869 57.2852C32.0076 57.4073 30.0631 57.8633 28.2359 58.634C26.3547 59.4421 24.6537 60.6178 23.2329 62.092C23.9158 62.3512 24.4965 62.8243 24.8883 63.4408Z" fill="white"/>
<path opacity="0.6" d="M19.7259 67.6348C19.3046 68.6779 18.9644 69.752 18.7081 70.8475C18.9345 71.2411 19.1886 71.618 19.4684 71.9756C19.6891 72.2576 19.8976 72.5152 20.1428 72.7726C20.4391 71.3131 20.8828 69.8875 21.4671 68.5176C20.8126 68.4008 20.207 68.0937 19.7259 67.6348Z" fill="white"/>
<path opacity="0.55" d="M20.9276 62.067C20.4949 60.9057 20.2106 59.6945 20.0815 58.4619C19.5669 59.0024 19.1145 59.5987 18.7327 60.2399C18.8711 61.233 19.1052 62.2103 19.4317 63.1583C19.8159 62.6592 20.335 62.2805 20.9276 62.067V62.067Z" fill="#F2F2F2"/>
<path d="M22.0557 68.5663C23.9046 68.5663 25.4033 67.0675 25.4033 65.2187C25.4033 63.3699 23.9046 61.8711 22.0557 61.8711C20.2069 61.8711 18.7081 63.3699 18.7081 65.2187C18.7081 67.0675 20.2069 68.5663 22.0557 68.5663Z" fill="url(#paint2_linear)"/>
<path opacity="0.55" d="M26.9361 71.3381C26.9366 71.0474 26.9954 70.7598 27.1092 70.4922C27.2229 70.2247 27.3892 69.9828 27.5983 69.7808C26.4678 69.1611 25.4246 68.3942 24.4959 67.5C24.0107 68.025 23.3706 68.3815 22.6689 68.5178C23.222 69.084 23.8163 69.6087 24.4469 70.0873C25.232 70.6802 26.074 71.1937 26.9606 71.6201C26.9464 71.5267 26.9382 71.4325 26.9361 71.3381V71.3381Z" fill="#F2F2F2"/>
<path opacity="0.55" d="M34.6614 71.5955C33.5219 71.5962 32.3861 71.4645 31.277 71.2031C31.2831 71.2479 31.2831 71.2933 31.277 71.338C31.2778 71.6201 31.223 71.8996 31.1157 72.1605C31.0084 72.4215 30.8507 72.6586 30.6516 72.8585C32.0317 73.132 33.4406 73.2308 34.8453 73.1528C35.3902 72.66 35.8795 72.109 36.3045 71.5097C35.759 71.5703 35.2103 71.5989 34.6614 71.5955Z" fill="#F2F2F2"/>
<path d="M29.1065 73.5207C30.312 73.5207 31.2892 72.5434 31.2892 71.338C31.2892 70.1325 30.312 69.1553 29.1065 69.1553C27.9011 69.1553 26.9239 70.1325 26.9239 71.338C26.9239 72.5434 27.9011 73.5207 29.1065 73.5207Z" fill="url(#paint3_linear)"/>
<path opacity="0.7" d="M31.792 65.525C31.9003 65.0453 32.1631 64.6145 32.54 64.2988C30.5209 62.8309 28.6848 61.1266 27.071 59.2222C26.1305 58.1177 25.3085 56.9176 24.6185 55.6416C24.1605 55.7789 23.7137 55.9511 23.282 56.1566C24.0204 57.546 24.9041 58.8531 25.9183 60.056C27.6422 62.1152 29.6152 63.9523 31.792 65.525V65.525Z" fill="#F2F2F2"/>
<path d="M34.0728 68.2602C33.6144 68.2602 33.1663 68.1242 32.7852 67.8696C32.4041 67.6149 32.107 67.253 31.9316 66.8295C31.7562 66.406 31.7103 65.94 31.7997 65.4904C31.8891 65.0409 32.1099 64.6279 32.434 64.3038C32.7581 63.9797 33.1711 63.759 33.6206 63.6695C34.0702 63.5801 34.5362 63.626 34.9597 63.8014C35.3832 63.9768 35.7451 64.2739 35.9998 64.655C36.2544 65.0361 36.3904 65.4842 36.3903 65.9426C36.3903 66.2469 36.3304 66.5483 36.2139 66.8295C36.0975 67.1107 35.9268 67.3662 35.7115 67.5814C35.4963 67.7966 35.2409 67.9673 34.9597 68.0837C34.6785 68.2002 34.3771 68.2602 34.0728 68.2602Z" fill="url(#paint4_linear)"/>
<path opacity="0.55" d="M37.9599 67.4992L37.5307 67.2907L37.1629 67.0945H37.0893L36.7705 66.837H36.6846L36.3045 66.5918C36.1728 67.0433 35.8972 67.4394 35.5197 67.7199C35.6669 67.818 35.8263 67.9039 35.9857 67.9897L36.0838 68.051L36.513 68.284L37.5675 68.8358C37.7161 68.3905 37.8349 67.9358 37.9232 67.4747L37.9599 67.4992Z" fill="#F2F2F2"/>
<path d="M22.0557 68.5663C23.9046 68.5663 25.4033 67.0675 25.4033 65.2187C25.4033 63.3699 23.9046 61.8711 22.0557 61.8711C20.2069 61.8711 18.7081 63.3699 18.7081 65.2187C18.7081 67.0675 20.2069 68.5663 22.0557 68.5663Z" fill="url(#paint5_linear)"/>
<path d="M29.1065 73.5207C30.312 73.5207 31.2892 72.5434 31.2892 71.338C31.2892 70.1325 30.312 69.1553 29.1065 69.1553C27.9011 69.1553 26.9239 70.1325 26.9239 71.338C26.9239 72.5434 27.9011 73.5207 29.1065 73.5207Z" fill="url(#paint6_linear)"/>
<path opacity="0.15" d="M75.6055 69.5831C78.7785 71.0766 78.7785 73.5111 75.6876 75.0757C72.0664 76.5682 68.0023 76.5702 64.3797 75.0811C61.2887 73.5877 61.2067 71.0821 64.2976 69.5886C67.9188 68.0961 71.9829 68.0941 75.6055 69.5831V69.5831Z" fill="#1F1D20"/>
<path d="M78.3574 69.3037V70.8628C78.3574 72.0773 77.4931 73.2808 75.9394 74.3258C74.0889 75.264 72.0436 75.7533 69.9688 75.7543C67.8941 75.7552 65.8483 75.2677 63.9969 74.3312C62.2682 73.2918 61.5734 72.0828 61.5734 70.8737V69.3146C61.6435 70.0521 61.9036 70.7588 62.3284 71.3658C62.7532 71.9727 63.3281 72.4591 63.9969 72.7775C65.8475 73.7167 67.8936 74.2057 69.9688 74.2047C72.0441 74.2038 74.0897 73.7129 75.9394 72.7721C76.6219 72.4714 77.2085 71.9888 77.6349 71.3771C78.0614 70.7653 78.3114 70.048 78.3574 69.3037V69.3037Z" fill="#E6E6E6"/>
<path d="M76.2402 57.2577C74.3482 58.2289 72.256 58.7459 70.1294 58.7676C67.9303 58.8311 65.7537 58.3101 63.8217 57.2577C62.8191 56.6709 61.9343 55.9029 61.2122 54.9928L61.1465 70.2287C61.1614 70.8118 61.3801 71.3712 61.7647 71.8097C62.3522 72.4041 63.0208 72.9124 63.7506 73.3196C65.7115 74.3634 67.9087 74.8835 70.1294 74.8295C72.2434 74.8936 74.3339 74.371 76.1691 73.3196C76.8707 73.0039 77.4756 72.507 77.9217 71.8802C78.3678 71.2534 78.639 70.519 78.7075 69.7527L78.7731 54.3145C78.8497 55.611 77.958 56.2949 76.2402 57.2577Z" fill="url(#paint7_linear)"/>
<path d="M76.24 50.802C79.6701 52.7878 79.6701 56.0101 76.3111 58.0069C74.3763 58.9896 72.2371 59.5022 70.067 59.5031C67.8969 59.5041 65.7572 58.9933 63.8216 58.0124C60.3915 56.0265 60.3914 52.8043 63.7504 50.8075C65.6864 49.8287 67.8252 49.3183 69.9946 49.3174C72.1639 49.3164 74.3032 49.825 76.24 50.802Z" fill="white"/>
<path d="M74.7302 51.6334C77.4054 53.1433 77.4054 55.6161 74.8013 57.1916C73.3214 57.9358 71.688 58.3238 70.0315 58.3247C68.375 58.3257 66.7412 57.9395 65.2604 57.1971C62.6509 55.6817 62.5853 53.1488 65.1948 51.6334C66.6738 50.8888 68.3066 50.501 69.9625 50.501C71.6184 50.501 73.2512 50.8888 74.7302 51.6334V51.6334Z" fill="#9CEBFF"/>
<path d="M65.1946 52.5912C66.6745 51.847 68.3079 51.459 69.9644 51.4581C71.6209 51.4571 73.2547 51.8433 74.7355 52.5857C75.2055 52.8115 75.6207 53.137 75.9523 53.5394C76.2839 53.9419 76.5239 54.4117 76.6557 54.9162C76.9292 53.6798 76.3165 52.5146 74.7355 51.6229C73.2551 50.8791 71.6211 50.4922 69.9644 50.4932C68.3076 50.4941 66.6741 50.8829 65.1946 51.6283C63.6847 52.4544 63.0665 53.6853 63.34 54.856C63.4738 54.3699 63.708 53.9172 64.0274 53.5272C64.3468 53.1371 64.7444 52.8182 65.1946 52.5912V52.5912Z" fill="#50E6FF"/>
<path d="M74.2214 63.3516L74.2104 67.471C74.5925 67.3895 74.9675 67.2779 75.3319 67.1373C75.5665 67.0584 75.7892 66.948 75.9939 66.809V67.7938C75.6017 67.9946 75.1937 68.163 74.7739 68.2971C74.2739 68.4571 73.7615 68.576 73.2421 68.6527V63.6579C73.5598 63.5295 73.8873 63.4271 74.2214 63.3516V63.3516Z" fill="white"/>
<path d="M67.3941 63.6803V64.7525C67.3941 64.7525 66.5352 63.9921 66.1249 64.0304C65.7146 64.0851 65.6599 64.4407 65.813 64.7525C66.201 65.1959 66.6256 65.6058 67.0823 65.978C67.2581 66.1809 67.3881 66.4194 67.4636 66.6771C67.5391 66.9348 67.5583 67.2057 67.5199 67.4715C67.3011 68.1335 66.9947 68.4562 66.3929 68.4015C65.9214 68.3478 65.4705 68.1786 65.0799 67.9091C64.83 67.7846 64.6211 67.5909 64.4781 67.3511V66.3773C64.7312 66.6221 65.0059 66.8437 65.2987 67.0392C65.709 67.2909 66.1576 67.4495 66.3163 67.0392C66.4749 66.7274 66.0646 66.2788 65.6543 66.0217C65.2539 65.7642 64.9202 65.4155 64.6805 65.0041C64.5401 64.7784 64.4576 64.5214 64.4404 64.2561C64.4232 63.9907 64.4719 63.7253 64.5821 63.4833C64.8337 62.98 65.4027 62.876 66.1029 63.073C66.5634 63.204 66.9995 63.4091 67.3941 63.6803V63.6803Z" fill="white"/>
<path d="M72.0169 68.1056C72.2516 67.7315 72.4089 67.314 72.4794 66.878C72.5498 66.442 72.5321 65.9963 72.4272 65.5672C72.3467 65.0268 72.0547 64.5405 71.6156 64.2153C71.1765 63.89 70.6262 63.7525 70.0858 63.833C69.6895 63.8417 69.3045 63.9666 68.9787 64.1922C68.6528 64.4179 68.4005 64.7343 68.2531 65.1022C67.9555 66.0411 68.0259 67.0581 68.4501 67.947C68.6028 68.2179 68.8232 68.4446 69.0898 68.6047C69.3564 68.7649 69.66 68.8531 69.9709 68.8606H70.0694L70.9283 69.9328C70.9283 69.9328 71.1909 69.9547 71.5027 69.9547C71.7166 69.9548 71.9296 69.9291 72.1373 69.8781L71.1143 68.7348C71.4772 68.6321 71.795 68.4105 72.0169 68.1056V68.1056ZM69.1284 66.5301C69.0737 65.3046 69.5387 64.8943 70.2007 64.8506C70.5562 64.8506 71.2182 64.9053 71.3276 66.076C71.4261 67.2467 70.972 67.7118 70.8243 67.8102C70.6188 67.9133 70.3923 67.9676 70.1624 67.9689C69.9326 67.9525 69.1722 67.7555 69.1284 66.5301Z" fill="white"/>
</g>
<defs>
<linearGradient id="paint0_linear" x1="47.8697" y1="-15.153" x2="51.8525" y2="130.615" gradientUnits="userSpaceOnUse">
<stop stop-color="#00ABDE"/>
<stop offset="1" stop-color="#007ED8"/>
</linearGradient>
<radialGradient id="paint1_radial" cx="0" cy="0" r="1" gradientUnits="userSpaceOnUse" gradientTransform="translate(27.6972 65.6102) scale(10.4302)">
<stop offset="0.18" stop-color="#5EA0EF"/>
<stop offset="1" stop-color="#0078D4"/>
</radialGradient>
<linearGradient id="paint2_linear" x1="22.0818" y1="68.6521" x2="22.045" y2="63.8085" gradientUnits="userSpaceOnUse">
<stop stop-color="#CCCCCC"/>
<stop offset="1" stop-color="#FCFCFC"/>
</linearGradient>
<linearGradient id="paint3_linear" x1="834.984" y1="918.333" x2="834.984" y2="937.336" gradientUnits="userSpaceOnUse">
<stop stop-color="#CCCCCC"/>
<stop offset="1" stop-color="#FCFCFC"/>
</linearGradient>
<linearGradient id="paint4_linear" x1="34.0908" y1="68.3196" x2="34.0654" y2="64.9663" gradientUnits="userSpaceOnUse">
<stop stop-color="#CCCCCC"/>
<stop offset="1" stop-color="#FCFCFC"/>
</linearGradient>
<linearGradient id="paint5_linear" x1="22.0818" y1="68.6521" x2="22.045" y2="63.8085" gradientUnits="userSpaceOnUse">
<stop stop-color="#CCCCCC"/>
<stop offset="1" stop-color="#FCFCFC"/>
</linearGradient>
<linearGradient id="paint6_linear" x1="29.1236" y1="73.5766" x2="29.0996" y2="70.4185" gradientUnits="userSpaceOnUse">
<stop stop-color="#CCCCCC"/>
<stop offset="1" stop-color="#FCFCFC"/>
</linearGradient>
<linearGradient id="paint7_linear" x1="60.1548" y1="49.7275" x2="74.1507" y2="68.1841" gradientUnits="userSpaceOnUse">
<stop stop-color="#005BA1"/>
<stop offset="0.07" stop-color="#0060A9"/>
<stop offset="0.36" stop-color="#0071C8"/>
<stop offset="0.52" stop-color="#0078D4"/>
<stop offset="0.64" stop-color="#0074CD"/>
<stop offset="0.82" stop-color="#006ABB"/>
<stop offset="1" stop-color="#005BA1"/>
</linearGradient>
<clipPath id="clip0">
<rect width="99.2799" height="99.28" fill="white"/>
</clipPath>
</defs>
</svg>
