<svg width="103" height="103" viewBox="0 0 103 103" fill="none" xmlns="http://www.w3.org/2000/svg">
<path d="M51.1176 98.308C25.2676 98.308 4.30762 77.358 4.30762 51.498C4.30762 25.638 25.2676 4.68799 51.1176 4.68799C76.9676 4.68799 97.9276 25.648 97.9276 51.498C97.9276 77.348 76.9676 98.308 51.1176 98.308Z" fill="url(#paint0_linear)"/>
<path fill-rule="evenodd" clip-rule="evenodd" d="M97.0178 51.4979C97.0178 76.8479 76.4678 97.3979 51.1178 97.3979C25.7678 97.3979 5.21778 76.8479 5.21778 51.4979C5.21778 26.1479 25.7678 5.59791 51.1178 5.59791C76.4678 5.59791 97.0178 26.1479 97.0178 51.4979ZM51.1178 1.85791C78.5378 1.85791 100.758 24.0779 100.758 51.4979C100.758 78.9179 78.5278 101.138 51.1178 101.138C23.6978 101.138 1.47778 78.9079 1.47778 51.4979C1.47778 24.0779 23.6978 1.85791 51.1178 1.85791Z" fill="#F2F1F0"/>
<path d="M50.7776 70.5277L50.5276 70.4277L51.3076 70.8477L51.0576 70.7077L50.7776 70.5277Z" fill="#22A7E6"/>
<path d="M87.5376 30.0676L91.2376 32.2276C91.1476 32.0376 91.0476 31.8376 90.9576 31.6476L87.8976 29.8576L87.8676 26.3276C87.7576 26.1576 87.6276 25.9976 87.5176 25.8276L87.5376 30.0676Z" fill="#50E6FF"/>
<path d="M89.7476 73.6979C89.8576 73.5079 89.9676 73.318 90.0776 73.118L90.0876 71.9279L90.9476 71.4279C91.0376 71.2479 91.1276 71.0779 91.2076 70.8979L89.7576 71.728L89.7476 73.6979Z" fill="#50E6FF"/>
<path d="M14.5876 25.6479L45.0976 8.22787C47.0076 7.12787 49.1676 6.59787 51.3276 6.59787C53.5176 6.59787 55.7176 7.16787 57.6676 8.29787L87.2876 25.5179C87.1176 25.2879 86.9576 25.0479 86.7876 24.8179L57.7976 7.98787C56.8876 7.45787 55.9176 7.05787 54.9176 6.77787C53.4876 6.63787 52.0476 6.56787 50.5876 6.56787C49.7976 6.56787 49.0176 6.58787 48.2476 6.62787C47.0776 6.90787 45.9476 7.34787 44.8776 7.95787L14.1876 25.4679V29.9979L9.8176 32.5479C9.7176 32.7479 9.6276 32.9579 9.5376 33.1679L14.5876 30.2579V25.6479V25.6479Z" fill="#50E6FF"/>
<path d="M57.4978 94.5577C53.6778 96.7477 48.8978 96.7877 45.0778 94.6277L12.9478 76.1577C13.1178 76.4277 13.2978 76.6877 13.4778 76.9477L44.9478 94.9077C46.6878 95.8877 48.6178 96.4177 50.5778 96.5277C50.5878 96.5277 50.5978 96.5277 50.6078 96.5277C51.3678 96.5277 52.1178 96.5077 52.8678 96.4677C54.5578 96.2577 56.2178 95.7277 57.7278 94.8377L86.6978 78.1877L86.9778 78.0177C87.1578 77.7677 87.3378 77.5177 87.5178 77.2577L57.4978 94.5577Z" fill="#50E6FF"/>
<path d="M12.2076 71.7977L9.75757 70.4277C9.83757 70.5977 9.90757 70.7777 9.99757 70.9477L11.8576 71.9877V74.4077C11.9976 74.6377 12.1276 74.8677 12.2676 75.0977L12.2076 71.7977Z" fill="#50E6FF"/>
<path d="M86.8077 69.6378V73.8478L56.7277 91.0678C53.2877 93.0478 49.0077 93.0878 45.5377 91.0978L15.1977 73.7978L15.1677 69.8178L7.90771 65.7378C7.97771 65.9378 8.03771 66.1278 8.10771 66.3278L14.7577 70.0778L14.7877 74.0578L45.3377 91.4978C47.1077 92.4878 49.1277 93.0178 51.1077 93.0178C53.1677 93.0178 55.1777 92.4878 56.9877 91.4578L87.2177 74.0678V69.8678L93.0177 66.5178C93.0877 66.3278 93.1477 66.1378 93.2177 65.9378L86.8077 69.6378Z" fill="#45D6F9"/>
<path d="M84.4877 27.3877L57.2377 11.5677C53.6277 9.47765 49.1277 9.47765 45.5177 11.5277L17.6177 27.3877V31.9877L7.82767 37.5377C7.75767 37.7577 7.67767 37.9677 7.60767 38.1877L18.0677 32.2777V27.6777L45.7177 11.9277C47.4477 10.9377 49.3677 10.4377 51.3077 10.4377C53.2477 10.4377 55.2377 10.9377 56.9677 11.9577L84.0477 27.6377L84.1177 32.0277L93.2577 37.3277C93.1877 37.1277 93.1177 36.9177 93.0477 36.7177L84.5377 31.7777L84.4877 27.3877Z" fill="#45D6F9"/>
<path d="M21.5775 34.2879L21.6075 29.7179L46.4575 15.5979C47.9775 14.7179 49.7175 14.2879 51.4075 14.2879C53.1375 14.2879 54.8775 14.7479 56.4375 15.6379L80.7175 29.6579L80.7475 34.0779L94.5675 42.0479C94.5175 41.8179 94.4575 41.5879 94.4075 41.3579L81.2775 33.7579L81.2075 29.3379L56.6475 15.1779C53.3975 13.2979 49.3575 13.2979 46.0975 15.1479L21.0075 29.3679V33.9679L6.61753 42.0679C6.56753 42.3079 6.51753 42.5379 6.46753 42.7779L21.5775 34.2879Z" fill="#39C7F3"/>
<path d="M83.9277 67.6276V71.7376L56.2277 87.7376C53.1777 89.5076 49.3577 89.5076 46.2777 87.7776L18.6977 72.1176V68.1376L6.68774 61.3276C6.73774 61.5376 6.78774 61.7576 6.83774 61.9676L18.2177 68.4276V72.4076L45.9977 88.2376C47.6277 89.1576 49.3977 89.6176 51.1977 89.6176C53.0377 89.6176 54.8777 89.1576 56.5077 88.2076L84.4277 72.0576V67.9476L94.2977 62.2176C94.3577 61.9876 94.4077 61.7576 94.4577 61.5276L83.9277 67.6276Z" fill="#39C7F3"/>
<path d="M25.0176 36.338L24.9876 31.708L46.9376 19.318C48.2776 18.568 49.7676 18.188 51.2576 18.188C52.7776 18.188 54.2976 18.578 55.6476 19.358L77.1676 31.698L77.2076 36.118L95.3076 46.558C95.2776 46.318 95.2476 46.078 95.2176 45.838L77.8376 35.728L77.8076 31.308L56.0076 18.778C53.1276 17.078 49.5576 17.078 46.6476 18.708L24.3176 31.308V35.908L5.92765 46.228C5.89765 46.478 5.85765 46.728 5.83765 46.978L25.0176 36.338Z" fill="#2EB7ED"/>
<path d="M22.0078 70.8676L46.5278 84.7976C47.9778 85.6076 49.5678 86.0376 51.1978 86.0376C52.8278 86.0376 54.4878 85.6076 55.9478 84.7576L80.7778 70.4176V66.3276L95.1178 57.9676C95.1478 57.7376 95.1777 57.4976 95.2077 57.2576L80.1777 66.0076V70.0976L55.6278 84.1976C52.9278 85.7576 49.5978 85.7576 46.8778 84.2276L22.5478 70.5476V66.5276L5.94775 57.0776C5.97775 57.3076 6.00775 57.5476 6.03775 57.7776L21.9678 66.8476L22.0078 70.8676Z" fill="#2EB7ED"/>
<path d="M92.6378 48.6381L74.3078 37.8881L74.2778 33.4681L55.5178 22.3081C53.0078 20.8581 49.8878 20.8581 47.3778 22.2781L27.8378 33.2981L27.8078 37.8681L9.29776 48.4981C7.99776 49.1781 7.20776 50.5181 7.20776 52.0581C7.20776 53.5881 7.99776 54.9281 9.29776 55.6781L26.2478 65.4381L26.2178 69.5181L47.0378 81.4581C48.3178 82.1681 49.7278 82.5581 51.1378 82.5581C52.5878 82.5581 54.0078 82.1681 55.3178 81.4281L76.6878 68.9481L76.7178 64.8581L92.6778 55.5281C93.9278 54.8081 94.6778 53.4981 94.6478 52.0681C94.6078 50.6381 93.8878 49.3281 92.6378 48.6381ZM92.2978 54.9681L75.9978 64.5181V68.5781L54.9678 80.7981C52.5978 82.1681 49.7278 82.1681 47.4278 80.8681L26.9278 69.1381L26.9578 65.0581L9.65776 55.1281C8.54776 54.4981 7.89776 53.3581 7.89776 52.0881C7.89776 50.8181 8.54776 49.6981 9.65776 49.0781L28.5478 38.3181L28.5778 33.7481L47.7578 22.9581C48.8878 22.3281 50.1678 21.9981 51.4378 21.9981C52.7078 21.9981 54.0278 22.3181 55.1578 22.9881L73.5278 33.9281L73.4978 38.3881L92.3278 49.2281C93.3278 49.8181 93.9578 50.9181 93.9578 52.0981C93.9578 53.2881 93.3278 54.3781 92.2978 54.9681Z" fill="#22A7E6"/>
<path d="M87.1276 48.888L70.9276 39.708L70.9576 35.208L54.5976 25.938C52.4876 24.698 49.7976 24.698 47.6376 25.898L30.8976 35.278V39.848L14.9076 49.018C13.7376 49.668 13.0276 50.838 13.0276 52.168C13.0276 53.498 13.7076 54.698 14.8476 55.348L29.2376 63.708V67.758L47.6176 78.218C48.7176 78.848 49.9576 79.178 51.1576 79.178C52.3976 79.178 53.6376 78.858 54.7276 78.188L73.3376 67.358V63.238L87.1976 55.048C88.2976 54.388 88.9576 53.258 88.9376 51.958C88.9276 50.648 88.2276 49.518 87.1276 48.888ZM86.8076 54.368L72.5776 62.778V66.898L54.2976 77.468C52.3876 78.608 49.9776 78.608 48.0376 77.468L30.0376 67.298V63.248L15.2276 54.658C14.3176 54.138 13.7976 53.198 13.7976 52.168C13.7976 51.138 14.3476 50.188 15.2576 49.708L31.8176 40.388L31.7776 35.788L48.0576 26.688C49.0176 26.158 50.0376 25.908 51.0976 25.908C52.1576 25.908 53.2176 26.188 54.1776 26.718L70.1176 35.708L70.0876 40.208L86.7476 49.548C87.6576 50.058 88.1876 50.938 88.1876 51.948C88.1876 52.958 87.6876 53.868 86.8076 54.368Z" fill="#1797E0"/>
<path d="M81.7276 49.7776L67.6176 41.6476L67.6476 37.1176L54.0176 29.5076C52.2476 28.5176 50.0176 28.5176 48.2476 29.5076L34.2976 37.2576V41.8276L20.5676 49.8176C19.6676 50.3576 19.1276 51.2976 19.0876 52.3476C19.0876 53.3976 19.6276 54.3676 20.5376 54.9176L31.6676 61.4676V65.2376L48.1376 74.9576C49.0576 75.4876 50.0877 75.7676 51.1077 75.7676C52.1677 75.7676 53.1976 75.4876 54.1176 74.9576L70.8176 65.1576V61.3076L81.7776 54.7876C82.6676 54.2576 83.1976 53.3076 83.1976 52.2676C83.2076 51.2176 82.6476 50.3076 81.7276 49.7776ZM81.3676 54.0776L70.0176 60.8276V64.6776L53.6176 74.1376C52.0976 75.0176 50.1876 75.0176 48.6276 74.1076L32.4476 64.7476V60.9776L20.9176 54.1876C20.2576 53.7976 19.8676 53.0976 19.8676 52.3476C19.8676 51.5976 20.2876 50.8976 20.9576 50.5376L35.2476 42.3676V37.7976L48.7076 30.3276C49.4476 29.8976 50.2976 29.6976 51.1176 29.6976C51.9676 29.6976 52.8176 29.9076 53.5576 30.3276L66.7276 37.6876L66.6576 42.1876L81.3376 50.4976C81.9876 50.8476 82.3776 51.5376 82.3776 52.2676C82.3776 52.9976 81.9876 53.6976 81.3676 54.0776Z" fill="#0B88DA"/>
<path d="M75.9876 50.4177L64.1676 43.6477L64.1976 39.1177L53.3676 33.0977C51.9576 32.3077 50.2576 32.3077 48.8076 33.0877L37.6576 39.2177L37.6276 43.7877L26.1076 50.4977C25.3176 50.9677 24.8476 51.7277 24.8176 52.6077C24.7876 53.4877 25.2276 54.2777 25.9876 54.7177L34.6376 59.8777L34.6576 63.4977L48.5076 71.9077C49.2576 72.3677 50.0976 72.5777 50.9476 72.5777C51.7976 72.5777 52.6476 72.3677 53.3876 71.9077L67.3176 63.5677L67.3476 59.7877L76.0476 54.5477C76.7776 54.1077 77.2076 53.3277 77.2076 52.4577C77.1776 51.5777 76.7376 50.8277 75.9876 50.4177ZM75.5776 53.7877L66.4376 59.2877V63.0677L52.8276 71.0177C51.6576 71.6877 50.2076 71.6877 49.0376 71.0177L35.5676 62.9677L35.4776 59.3277L26.4476 53.9377C25.9776 53.6477 25.6876 53.1477 25.7176 52.5877C25.7476 52.0277 26.0076 51.5277 26.5076 51.2677L38.6776 44.3677V39.8377L49.2976 33.9977C49.8576 33.6777 50.4676 33.5377 51.0676 33.5377C51.6676 33.5377 52.3076 33.6777 52.8376 33.9977L63.1376 39.7277L63.1076 44.2277L75.5476 51.1577C75.9876 51.4577 76.2776 51.9177 76.2976 52.4677C76.3076 53.0377 76.0376 53.5277 75.5776 53.7877Z" fill="#0078D4"/>
<path opacity="0.15" d="M75.4176 76.278V29.998C75.4176 28.588 74.2676 27.438 72.8576 27.438H29.3676C27.9576 27.438 26.8076 28.588 26.8076 29.998V76.278C26.8076 77.688 27.9576 78.838 29.3676 78.838H72.8576C74.2676 78.838 75.4176 77.688 75.4176 76.278Z" fill="#1F1D20"/>
<path d="M75.4176 74.558V25.668C75.4176 24.978 74.8576 24.418 74.1676 24.418H28.0676C27.3776 24.418 26.8176 24.978 26.8176 25.668V74.548C26.8176 75.238 27.3776 75.798 28.0676 75.798H74.1676C74.8576 75.808 75.4176 75.248 75.4176 74.558Z" fill="white"/>
<path fill-rule="evenodd" clip-rule="evenodd" d="M94.1976 51.498C94.1976 75.298 74.9076 94.588 51.1076 94.588C27.3076 94.588 8.01759 75.298 8.01759 51.498C8.01759 27.698 27.3076 8.40797 51.1076 8.40797C74.9076 8.40797 94.1976 27.698 94.1976 51.498ZM51.1076 4.66797C76.9676 4.66797 97.9376 25.638 97.9376 51.498C97.9376 77.358 76.9676 98.328 51.1076 98.328C25.2476 98.328 4.27759 77.358 4.27759 51.498C4.27759 25.638 25.2376 4.66797 51.1076 4.66797Z" fill="url(#paint1_linear)"/>
<path d="M45.2576 36.9779C45.4476 36.4179 45.9676 36.0479 46.5576 36.0479H55.1476L46.2276 62.4679C46.0376 63.0279 45.5176 63.3979 44.9276 63.3979H38.2376C37.2976 63.3979 36.6476 62.4779 36.9376 61.5979L45.2576 36.9779Z" fill="url(#paint2_linear)"/>
<path d="M58.9877 53.8179H45.4477C44.8777 53.8179 44.6077 54.5179 45.0177 54.8979L53.7177 63.0179C53.9677 63.2579 54.3077 63.3879 54.6477 63.3879H62.3177L58.9877 53.8179Z" fill="#0078D4"/>
<path d="M55.1376 36.0479H45.5676L36.3376 63.3979H45.9076L47.8776 57.5779L54.1176 63.3879H62.3176L58.9876 53.8179H49.1376L55.1376 36.0479Z" fill="url(#paint3_linear)"/>
<path d="M57.5076 36.9779C57.3176 36.4179 56.7976 36.0479 56.2076 36.0479H46.5876H46.6276C47.2176 36.0479 47.7376 36.4179 47.9276 36.9779L56.2376 61.5879C56.5376 62.4779 55.8776 63.3879 54.9376 63.3879H54.7876H64.5076C65.4476 63.3879 66.0976 62.4679 65.8076 61.5879L57.5076 36.9779Z" fill="url(#paint4_linear)"/>
<defs>
<linearGradient id="paint0_linear" x1="49.3474" y1="-13.2959" x2="53.3304" y2="132.473" gradientUnits="userSpaceOnUse">
<stop stop-color="#00ABDE"/>
<stop offset="1" stop-color="#007ED8"/>
</linearGradient>
<linearGradient id="paint1_linear" x1="51.1114" y1="-1.99393" x2="51.1114" y2="99.7698" gradientUnits="userSpaceOnUse">
<stop stop-color="#007ED8"/>
<stop offset="0.7065" stop-color="#002D4C"/>
</linearGradient>
<linearGradient id="paint2_linear" x1="49.6814" y1="38.0712" x2="40.7621" y2="64.4208" gradientUnits="userSpaceOnUse">
<stop stop-color="#114A8B"/>
<stop offset="1" stop-color="#0669BC"/>
</linearGradient>
<linearGradient id="paint3_linear" x1="52.4029" y1="50.244" x2="50.2881" y2="50.9647" gradientUnits="userSpaceOnUse">
<stop stop-opacity="0.3"/>
<stop offset="0.0712" stop-opacity="0.2"/>
<stop offset="0.321" stop-opacity="0.1"/>
<stop offset="0.6231" stop-opacity="0.05"/>
<stop offset="1" stop-opacity="0"/>
</linearGradient>
<linearGradient id="paint4_linear" x1="51.3169" y1="37.3026" x2="61.1075" y2="63.3866" gradientUnits="userSpaceOnUse">
<stop stop-color="#3CCBF4"/>
<stop offset="1" stop-color="#2892DF"/>
</linearGradient>
</defs>
</svg>
