<svg width="106" height="106" viewBox="0 0 106 106" fill="none" xmlns="http://www.w3.org/2000/svg">
<g filter="url(#filter0_d)">
<circle cx="53" cy="53" r="49" fill="#5197D5"/>
<circle cx="53" cy="53" r="50.75" stroke="#F2F1F0" stroke-width="3.5"/>
</g>
<circle cx="53" cy="53" r="48" stroke="#0078D4" stroke-width="4"/>
<rect width="48.4376" height="32.2918" rx="0.6" transform="matrix(-1 0 0 1 77.7222 35.9688)" fill="url(#paint0_linear)"/>
<rect width="43.0557" height="26.9098" rx="0.33" transform="matrix(-1 0 0 1 75.0312 38.6602)" fill="url(#paint1_linear)"/>
<path d="M43.8158 78.029C48.5789 77.2755 48.7672 73.8042 48.7672 68.2607H58.2664C58.2664 73.8042 58.4548 77.2755 63.2178 78.029C64.5873 78.1805 65.6211 79.3421 65.6128 80.72H41.394C41.387 79.3328 42.4356 78.1677 43.8158 78.029Z" fill="url(#paint2_linear)"/>
<path d="M78.6274 72.4854H82.4091V68.8462C82.4174 68.5264 82.6747 68.2691 82.9945 68.2607H85.2097C85.5295 68.2691 85.7868 68.5264 85.7952 68.8462V74.7006C85.7865 75.3323 85.2719 75.8399 84.6401 75.8398H78.6274C78.3128 75.8398 78.0578 75.5848 78.0578 75.2702V73.055C78.0578 72.7404 78.3128 72.4854 78.6274 72.4854Z" fill="#8C4FE4"/>
<path d="M28.7149 72.4854H24.9333V68.8462C24.925 68.5264 24.6677 68.2691 24.3479 68.2607H22.1327C21.8128 68.2691 21.5555 68.5264 21.5472 68.8462V74.7006C21.5559 75.3323 22.0705 75.8399 22.7023 75.8398H28.7149C29.0295 75.8398 29.2846 75.5848 29.2846 75.2702V73.055C29.2846 72.7404 29.0295 72.4854 28.7149 72.4854Z" fill="#8C4FE4"/>
<path d="M78.6274 31.4228L82.4091 31.4228L82.4091 35.062C82.4174 35.3818 82.6747 35.6391 82.9945 35.6475L85.2097 35.6475C85.5295 35.6391 85.7868 35.3818 85.7952 35.062L85.7952 29.2076C85.7865 28.5759 85.2719 28.0683 84.6401 28.0684L78.6274 28.0684C78.3128 28.0684 78.0578 28.3234 78.0578 28.638L78.0578 30.8532C78.0578 31.1678 78.3128 31.4228 78.6274 31.4228Z" fill="#8C4FE4"/>
<g filter="url(#filter1_d)">
<path d="M68.4205 66.205L53.9038 51.553L53.0756 52.3792L53.7178 51.5711L29.7248 35.568L28.0749 37.6003L50.3069 52.1352L28.8335 59.829L29.725 62.3253L50.9907 54.6871L46.9922 68.6073L49.5082 69.3325L53.619 55.0006L66.5586 68.0397L68.4205 66.205Z" fill="#8DECFF"/>
<circle cx="53.1464" cy="52.6426" r="6.05191" transform="rotate(-15 53.1464 52.6426)" fill="#31D1F3"/>
<circle cx="67.5983" cy="67.41" r="4.76166" transform="rotate(-15 67.5983 67.41)" fill="#31D1F3"/>
<circle cx="48.5662" cy="69.1391" r="4.08581" transform="rotate(-15 48.5662 69.1391)" fill="#31D1F3"/>
<circle cx="29.3812" cy="61.3979" r="4.08581" transform="rotate(-15 29.3812 61.3979)" fill="#31D1F3"/>
</g>
<g filter="url(#filter2_d)">
<circle cx="29.1437" cy="35.9266" r="8.8563" fill="#8C4FE4"/>
<circle cx="29.1437" cy="31.6256" r="1.6041" fill="white"/>
<path d="M30.3614 42.554V34.8047H27.9381L27.9259 42.554H30.3614Z" fill="white"/>
</g>
<g filter="url(#filter3_d)">
<path d="M71.5825 39.7202C71.631 39.7134 71.6744 39.703 71.7256 39.7338C72.0161 39.9082 72.3104 40.076 72.6026 40.2475C72.6318 40.2647 72.6744 40.2724 72.6762 40.3197C72.4908 40.396 72.3229 40.5055 72.1496 40.604C72.0084 40.6841 71.8543 40.743 71.7324 40.8556C71.6932 40.8516 71.663 40.8734 71.6315 40.891C70.357 41.6042 69.0822 42.3173 67.8077 43.0307C67.6508 43.1184 67.4949 43.2079 67.3373 43.2974C67.3621 43.3326 67.384 43.3348 67.4056 43.3379C67.8454 43.3988 68.2612 43.5371 68.6609 43.7274C69.374 44.0669 69.9893 44.5391 70.524 45.1192C70.5721 45.1715 70.6159 45.1981 70.6929 45.1812C71.2487 45.0598 71.7201 45.2111 72.1058 45.632C72.6075 46.1793 72.5582 47.1311 72.002 47.6219C71.4505 48.109 70.7087 48.135 70.1322 47.68C70.0549 47.6191 70.0039 47.6195 69.9229 47.6648C68.8226 48.2795 67.7202 48.8899 66.6194 49.5037C66.4774 49.5829 66.3266 49.6484 66.199 49.7524C65.8698 49.9061 65.5568 50.0893 65.2453 50.2758C65.2079 50.2877 65.175 50.2969 65.1337 50.2729C64.8196 50.0917 64.5038 49.914 64.1879 49.7359C64.1673 49.7243 64.1514 49.7128 64.1551 49.6864C64.4823 49.5233 64.8003 49.3436 65.1146 49.1569C65.1251 49.1543 65.137 49.1538 65.1462 49.1488C66.6124 48.3369 68.0782 47.5243 69.5452 46.7137C69.5986 46.6843 69.6148 46.6495 69.6113 46.5917C69.599 46.3757 69.6399 46.1679 69.7364 45.9755C69.7756 45.8972 69.7586 45.8506 69.7054 45.7934C69.4285 45.4957 69.1323 45.2205 68.7966 44.9903C68.3262 44.6679 67.82 44.4267 67.2607 44.304C67.1964 44.2899 67.1603 44.3005 67.1189 44.3592C66.7869 44.832 66.3347 45.0519 65.7568 44.9888C64.9835 44.9043 64.4256 44.1918 64.5169 43.4103C64.6403 42.3529 65.8129 41.7895 66.698 42.3648C66.7591 42.4046 66.7982 42.4079 66.8611 42.3727C67.9421 41.7678 69.0253 41.1668 70.1064 40.5614C70.2865 40.4604 70.4769 40.3764 70.6411 40.2478C70.6616 40.2418 70.6844 40.2396 70.7028 40.2295C70.9243 40.1068 71.1462 39.9848 71.3656 39.8581C71.4395 39.8159 71.5286 39.7952 71.5825 39.7202Z" fill="#50E7FE"/>
<path d="M71.5825 39.7198C71.5286 39.7948 71.4395 39.8154 71.3655 39.8581C71.1462 39.9848 70.9243 40.1066 70.7028 40.2295C70.6844 40.2396 70.6619 40.2418 70.6411 40.2478C69.9291 39.8513 69.2166 39.4561 68.5061 39.0565C68.4365 39.0174 68.3877 39.0198 68.3197 39.0585C67.9055 39.2942 67.4884 39.5247 67.0721 39.7567C65.7533 40.4914 64.4344 41.2261 63.1152 41.9602C63.0642 41.9886 63.0355 42.0176 63.0355 42.0855C63.0379 44.028 63.0377 45.9707 63.0357 47.9131C63.0357 47.9738 63.0559 48.0044 63.1067 48.0319C63.3115 48.1427 63.5144 48.2566 63.7175 48.3705C64.1833 48.6322 64.6486 48.8946 65.1142 49.1569C64.7999 49.3436 64.4819 49.5233 64.1546 49.6864C63.53 49.3427 62.911 48.9882 62.2778 48.6617C62.0644 48.5513 61.9989 48.4268 62 48.188C62.0107 45.9959 62.0068 43.8037 62.0044 41.6114C62.0044 41.5239 62.0291 41.4755 62.107 41.4331C64.1833 40.2997 66.258 39.1638 68.3328 38.0278C68.3823 38.0007 68.4214 37.986 68.4812 38.0188C69.5138 38.5879 70.5483 39.1535 71.5825 39.7198Z" fill="#0279D4"/>
<path d="M71.7322 40.8553C71.8541 40.7429 72.0084 40.6839 72.1494 40.6037C72.3229 40.5052 72.4908 40.3956 72.676 40.3193C73.3659 40.6963 74.0551 41.0745 74.7468 41.4481C74.8168 41.4859 74.8201 41.5345 74.8201 41.5988C74.8192 42.8322 74.8194 44.0659 74.8194 45.2994C74.8194 46.3316 74.8181 47.3639 74.8218 48.3961C74.8221 48.4834 74.7921 48.5241 74.7201 48.5635C72.6471 49.696 70.5754 50.8307 68.5031 51.9641C68.4582 51.9888 68.4199 52.0189 68.3553 51.9833C67.3198 51.4115 66.2821 50.8439 65.2449 50.2755C65.5563 50.0892 65.8693 49.9058 66.1985 49.7521C66.9007 50.144 67.6037 50.5345 68.3041 50.9299C68.3829 50.9745 68.4396 50.9778 68.5201 50.9328C70.2442 49.9678 71.9699 49.0053 73.6968 48.0454C73.7682 48.0058 73.7898 47.964 73.7898 47.8848C73.7874 45.9637 73.7874 44.0426 73.7901 42.1217C73.7903 42.034 73.7651 41.9873 73.687 41.9445C73.0338 41.5845 72.3835 41.219 71.7322 40.8553Z" fill="#0279D4"/>
</g>
<defs>
<filter id="filter0_d" x="0.5" y="0.5" width="105.5" height="105.5" filterUnits="userSpaceOnUse" color-interpolation-filters="sRGB">
<feFlood flood-opacity="0" result="BackgroundImageFix"/>
<feColorMatrix in="SourceAlpha" type="matrix" values="0 0 0 0 0 0 0 0 0 0 0 0 0 0 0 0 0 0 127 0"/>
<feOffset dx="0.5" dy="0.5"/>
<feColorMatrix type="matrix" values="0 0 0 0 0.823529 0 0 0 0 0.831373 0 0 0 0 0.835294 0 0 0 1 0"/>
<feBlend mode="normal" in2="BackgroundImageFix" result="effect1_dropShadow"/>
<feBlend mode="normal" in="SourceGraphic" in2="effect1_dropShadow" result="shape"/>
</filter>
<filter id="filter1_d" x="21.2944" y="33.5684" width="55.0667" height="45.658" filterUnits="userSpaceOnUse" color-interpolation-filters="sRGB">
<feFlood flood-opacity="0" result="BackgroundImageFix"/>
<feColorMatrix in="SourceAlpha" type="matrix" values="0 0 0 0 0 0 0 0 0 0 0 0 0 0 0 0 0 0 127 0"/>
<feOffset dy="2"/>
<feGaussianBlur stdDeviation="2"/>
<feColorMatrix type="matrix" values="0 0 0 0 0 0 0 0 0 0 0 0 0 0 0 0 0 0 0.15 0"/>
<feBlend mode="normal" in2="BackgroundImageFix" result="effect1_dropShadow"/>
<feBlend mode="normal" in="SourceGraphic" in2="effect1_dropShadow" result="shape"/>
</filter>
<filter id="filter2_d" x="16.2874" y="25.0703" width="25.7126" height="25.7126" filterUnits="userSpaceOnUse" color-interpolation-filters="sRGB">
<feFlood flood-opacity="0" result="BackgroundImageFix"/>
<feColorMatrix in="SourceAlpha" type="matrix" values="0 0 0 0 0 0 0 0 0 0 0 0 0 0 0 0 0 0 127 0"/>
<feOffset dy="2"/>
<feGaussianBlur stdDeviation="2"/>
<feColorMatrix type="matrix" values="0 0 0 0 0 0 0 0 0 0 0 0 0 0 0 0 0 0 0.15 0"/>
<feBlend mode="normal" in2="BackgroundImageFix" result="effect1_dropShadow"/>
<feBlend mode="normal" in="SourceGraphic" in2="effect1_dropShadow" result="shape"/>
</filter>
<filter id="filter3_d" x="58" y="36" width="20.8218" height="21.9996" filterUnits="userSpaceOnUse" color-interpolation-filters="sRGB">
<feFlood flood-opacity="0" result="BackgroundImageFix"/>
<feColorMatrix in="SourceAlpha" type="matrix" values="0 0 0 0 0 0 0 0 0 0 0 0 0 0 0 0 0 0 127 0"/>
<feOffset dy="2"/>
<feGaussianBlur stdDeviation="2"/>
<feColorMatrix type="matrix" values="0 0 0 0 0 0 0 0 0 0 0 0 0 0 0 0 0 0 0.15 0"/>
<feBlend mode="normal" in2="BackgroundImageFix" result="effect1_dropShadow"/>
<feBlend mode="normal" in="SourceGraphic" in2="effect1_dropShadow" result="shape"/>
</filter>
<linearGradient id="paint0_linear" x1="48.4376" y1="32.2918" x2="48.4376" y2="0" gradientUnits="userSpaceOnUse">
<stop stop-color="#0078D4"/>
<stop offset="0.82" stop-color="#5EA0EF"/>
</linearGradient>
<linearGradient id="paint1_linear" x1="21.5278" y1="0" x2="21.5278" y2="26.9098" gradientUnits="userSpaceOnUse">
<stop stop-color="#48AEFD" stop-opacity="0"/>
<stop offset="0.875" stop-color="#0069BA"/>
</linearGradient>
<linearGradient id="paint2_linear" x1="41.3939" y1="80.72" x2="41.3939" y2="68.2607" gradientUnits="userSpaceOnUse">
<stop stop-color="#1490DF"/>
<stop offset="0.98" stop-color="#1F56A3"/>
</linearGradient>
</defs>
</svg>
