<svg width="103" height="103" viewBox="0 0 103 103" fill="none" xmlns="http://www.w3.org/2000/svg">
<path d="M51.1757 98.1376C25.3257 98.1376 4.36572 77.1876 4.36572 51.3276C4.36572 25.4676 25.3257 4.51758 51.1757 4.51758C77.0257 4.51758 97.9857 25.4776 97.9857 51.3276C97.9857 77.1776 77.0257 98.1376 51.1757 98.1376Z" fill="url(#paint0_linear)"/>
<path fill-rule="evenodd" clip-rule="evenodd" d="M97.0756 51.3285C97.0756 76.6785 76.5256 97.2285 51.1756 97.2285C25.8256 97.2285 5.27564 76.6785 5.27564 51.3285C5.27564 25.9785 25.8256 5.42848 51.1756 5.42848C76.5256 5.42848 97.0756 25.9785 97.0756 51.3285ZM51.1756 1.68848C78.5956 1.68848 100.816 23.9085 100.816 51.3285C100.816 78.7485 78.5856 100.968 51.1756 100.968C23.7556 100.968 1.53564 78.7385 1.53564 51.3285C1.53564 23.9085 23.7556 1.68848 51.1756 1.68848Z" fill="#F2F1F0"/>
<path fill-rule="evenodd" clip-rule="evenodd" d="M94.2657 51.328C94.2657 75.128 74.9757 94.418 51.1757 94.418C27.3757 94.418 8.0857 75.128 8.0857 51.328C8.0857 27.528 27.3757 8.23805 51.1757 8.23805C74.9757 8.23805 94.2657 27.528 94.2657 51.328ZM51.1757 4.49805C77.0357 4.49805 98.0057 25.468 98.0057 51.328C98.0057 77.188 77.0357 98.1581 51.1757 98.1581C25.3157 98.1581 4.3457 77.188 4.3457 51.328C4.3457 25.468 25.3057 4.49805 51.1757 4.49805Z" fill="url(#paint1_linear)"/>
<path d="M51.116 30.1279C48.216 30.1279 45.856 27.7579 45.856 24.8379C45.856 21.9179 48.216 19.5479 51.116 19.5479C54.016 19.5479 56.376 21.9179 56.376 24.8379C56.376 27.7579 54.006 30.1279 51.116 30.1279ZM51.116 21.6379C49.366 21.6379 47.946 23.0679 47.946 24.8379C47.946 26.6079 49.366 28.0379 51.116 28.0379C52.866 28.0379 54.286 26.6079 54.286 24.8379C54.286 23.0679 52.856 21.6379 51.116 21.6379Z" fill="url(#paint2_linear)"/>
<path d="M64.5656 80.3886H38.3256L35.5656 85.5286L33.7256 84.5386L41.3656 70.3086L43.1956 71.3086L39.4456 78.2886H63.4456L59.6956 71.3086L61.5356 70.3286L69.1756 84.5486L67.3356 85.5386L64.5656 80.3886Z" fill="url(#paint3_linear)"/>
<path d="M79.8856 30.498H23.0356V68.708H79.8856V30.498V30.498Z" fill="url(#paint4_linear)"/>
<path d="M22.2958 24.8281H80.6058C81.7558 24.8281 82.6958 25.7681 82.6958 26.9181V29.0981C82.6958 30.2481 81.7558 31.1881 80.6058 31.1881H22.2958C21.1458 31.1881 20.2058 30.2481 20.2058 29.0981V26.9181C20.2058 25.7681 21.1458 24.8281 22.2958 24.8281Z" fill="url(#paint5_linear)"/>
<path d="M21.9758 67.8984H80.9258C81.8958 67.8984 82.6958 68.6884 82.6958 69.6684C82.6958 70.6384 81.9058 71.4384 80.9258 71.4384H21.9758C21.0058 71.4484 20.2058 70.6584 20.2058 69.6784C20.2058 68.6984 20.9958 67.8984 21.9758 67.8984Z" fill="url(#paint6_linear)"/>
<path d="M79.8856 30.498H23.0356V68.708H79.8856V30.498V30.498Z" fill="url(#paint7_linear)"/>
<path d="M22.2958 24.8281H80.6058C81.7558 24.8281 82.6958 25.7681 82.6958 26.9181V29.0981C82.6958 30.2481 81.7558 31.1881 80.6058 31.1881H22.2958C21.1458 31.1881 20.2058 30.2481 20.2058 29.0981V26.9181C20.2058 25.7681 21.1458 24.8281 22.2958 24.8281Z" fill="url(#paint8_linear)"/>
<path d="M21.9758 67.8984H80.9258C81.8958 67.8984 82.6958 68.6884 82.6958 69.6684C82.6958 70.6384 81.9058 71.4384 80.9258 71.4384H21.9758C21.0058 71.4484 20.2058 70.6584 20.2058 69.6784C20.2058 68.6984 20.9958 67.8984 21.9758 67.8984Z" fill="url(#paint9_linear)"/>
<path opacity="0.2" d="M69.4558 44.418C69.2958 44.018 69.0658 43.648 68.7658 43.338C68.3558 42.938 67.8758 42.598 67.3758 42.368C66.6858 42.058 65.9558 41.808 65.2058 41.628C64.3858 41.428 63.5058 41.238 62.5758 41.098C61.6458 40.958 60.6958 40.848 59.7158 40.748C58.7358 40.648 57.7758 40.568 56.8358 40.538C55.8958 40.498 55.0058 40.458 54.1358 40.438C53.2658 40.428 52.4958 40.418 51.8258 40.418C51.1358 40.418 50.3658 40.418 49.5058 40.438C48.6558 40.448 47.7558 40.488 46.8158 40.538C45.8758 40.588 44.9158 40.648 43.9358 40.748C42.9558 40.848 42.0058 40.958 41.0758 41.098C40.1458 41.238 39.2658 41.418 38.4458 41.628C37.7058 41.808 36.9858 42.058 36.2758 42.368C35.7458 42.608 35.2758 42.938 34.8758 43.338C34.2658 43.958 33.9158 44.798 33.9158 45.698V50.258C33.9058 51.668 34.1858 53.078 34.7358 54.388C35.8058 56.928 37.7858 58.948 40.2858 60.028C41.5658 60.588 42.9558 60.878 44.3458 60.858H45.7558C46.1658 60.868 46.5758 60.778 46.9458 60.608C47.3158 60.448 47.6758 60.228 47.9958 59.998C48.3358 59.748 48.6558 59.478 48.9558 59.208C49.2658 58.918 49.5658 58.668 49.8758 58.418C50.1758 58.178 50.4758 57.978 50.8058 57.808C51.4258 57.478 52.1758 57.478 52.7958 57.808C53.1158 57.988 53.4358 58.188 53.7258 58.418C54.0358 58.668 54.3358 58.938 54.6458 59.208C54.9558 59.498 55.2658 59.748 55.6058 59.998C55.9258 60.238 56.2858 60.438 56.6458 60.608C57.0258 60.788 57.4358 60.858 57.8458 60.858H59.2458C60.6358 60.868 62.0158 60.578 63.3058 60.028C65.8058 58.948 67.7858 56.938 68.8558 54.388C69.4058 53.088 69.6858 51.678 69.6758 50.258V45.678C69.6958 45.248 69.6158 44.818 69.4558 44.418Z" fill="#1F1D21"/>
<path d="M69.4558 43.4785C69.2958 43.0785 69.0658 42.7085 68.7658 42.3985C68.3558 41.9985 67.8758 41.6585 67.3758 41.4285C66.6858 41.1185 65.9558 40.8685 65.2058 40.6885C64.3858 40.4885 63.5058 40.2985 62.5758 40.1585C61.6458 40.0185 60.6958 39.9085 59.7158 39.8085C58.7358 39.7085 57.7758 39.6285 56.8358 39.5985C55.8958 39.5585 55.0058 39.5185 54.1358 39.4985C53.2658 39.4885 52.4958 39.4785 51.8258 39.4785C51.1358 39.4785 50.3658 39.4785 49.5058 39.4985C48.6558 39.5085 47.7558 39.5485 46.8158 39.5985C45.8758 39.6485 44.9158 39.7085 43.9358 39.8085C42.9558 39.9085 42.0058 40.0185 41.0758 40.1585C40.1458 40.2985 39.2658 40.4785 38.4458 40.6885C37.7058 40.8685 36.9858 41.1185 36.2758 41.4285C35.7458 41.6685 35.2758 41.9985 34.8758 42.3985C34.2658 43.0185 33.9158 43.8585 33.9158 44.7585V49.3185C33.9058 50.7285 34.1858 52.1385 34.7358 53.4485C35.8058 55.9885 37.7858 58.0085 40.2858 59.0885C41.5658 59.6485 42.9558 59.9385 44.3458 59.9185H45.7558C46.1658 59.9285 46.5758 59.8385 46.9458 59.6685C47.3158 59.5085 47.6758 59.2885 47.9958 59.0585C48.3358 58.8085 48.6558 58.5385 48.9558 58.2685C49.2658 57.9785 49.5658 57.7285 49.8758 57.4785C50.1758 57.2385 50.4758 57.0385 50.8058 56.8685C51.4258 56.5385 52.1758 56.5385 52.7958 56.8685C53.1158 57.0485 53.4358 57.2485 53.7258 57.4785C54.0358 57.7285 54.3358 57.9985 54.6458 58.2685C54.9558 58.5585 55.2658 58.8085 55.6058 59.0585C55.9258 59.2985 56.2858 59.4985 56.6458 59.6685C57.0258 59.8485 57.4358 59.9185 57.8458 59.9185H59.2458C60.6358 59.9285 62.0158 59.6385 63.3058 59.0885C65.8058 58.0085 67.7858 55.9985 68.8558 53.4485C69.4058 52.1485 69.6858 50.7385 69.6758 49.3185V44.7385C69.6958 44.3085 69.6158 43.8785 69.4558 43.4785Z" fill="url(#paint10_linear)"/>
<path d="M45.8256 60.0881C45.8056 60.0881 45.7856 60.0881 45.7656 60.0881H44.3556C42.9556 60.0781 41.5256 59.7981 40.2256 59.2381C37.6756 58.1381 35.6756 56.0981 34.5756 53.4981C34.0056 52.1381 33.7256 50.7281 33.7356 49.2981V44.7381C33.7356 43.7981 34.0956 42.9181 34.7456 42.2581C35.1656 41.8281 35.6656 41.4781 36.2056 41.2481C36.8956 40.9381 37.6156 40.6981 38.4056 40.4981C39.3556 40.2581 40.2256 40.0881 41.0556 39.9681C41.9356 39.8381 42.8756 39.7181 43.9256 39.6181C44.9456 39.5181 45.9556 39.4581 46.8156 39.4081L47.0056 39.3981C47.8656 39.3581 48.7156 39.3181 49.5156 39.3081C50.3656 39.2881 51.1356 39.2881 51.8356 39.2881C52.3956 39.2881 53.0256 39.2981 53.7256 39.3081H54.1456C55.0156 39.3281 55.9156 39.3581 56.8556 39.4081C57.7956 39.4481 58.7656 39.5281 59.7456 39.6181C60.7856 39.7181 61.7256 39.8381 62.6156 39.9681C63.4356 40.0881 64.3056 40.2581 65.2456 40.4881C65.9756 40.6581 66.7156 40.9081 67.4456 41.2281C67.9956 41.4981 68.4856 41.8481 68.8856 42.2381C69.1956 42.5481 69.4456 42.9281 69.6256 43.3781C69.7956 43.8181 69.8856 44.2681 69.8856 44.7281V49.2981C69.8956 50.7181 69.6056 52.1681 69.0456 53.4881C67.9556 56.0781 65.9456 58.1181 63.3956 59.2281C62.0956 59.7981 60.6256 60.0781 59.2656 60.0781H57.8656C57.4256 60.0781 56.9756 59.9781 56.5856 59.7981C56.1856 59.6081 55.8356 59.4081 55.5156 59.1681C55.1256 58.8781 54.8156 58.6281 54.5356 58.3581C54.2456 58.0881 53.9456 57.8281 53.6356 57.5881C53.3556 57.3581 53.0456 57.1581 52.7356 56.9881C52.1556 56.6881 51.4756 56.6881 50.9056 56.9881C50.6156 57.1381 50.3256 57.3281 50.0156 57.5781C49.7456 57.7981 49.4256 58.0581 49.1156 58.3581C48.8556 58.5981 48.5156 58.8981 48.1256 59.1681C47.7756 59.4181 47.4156 59.6281 47.0456 59.7981C46.6356 59.9981 46.2356 60.0881 45.8256 60.0881ZM45.7756 59.2181C46.0856 59.2281 46.3756 59.1581 46.6756 59.0281C46.9956 58.8881 47.3056 58.6981 47.6056 58.4881C47.8756 58.2881 48.1556 58.0681 48.5056 57.7481C48.8256 57.4281 49.1656 57.1581 49.4556 56.9281C49.8156 56.6381 50.1556 56.4081 50.4956 56.2381C51.3156 55.8081 52.3056 55.8081 53.1356 56.2381C53.4956 56.4281 53.8656 56.6681 54.1856 56.9281C54.5056 57.1781 54.8156 57.4481 55.1356 57.7381C55.3956 57.9881 55.6756 58.2081 56.0356 58.4781C56.3156 58.6781 56.6256 58.8581 56.9656 59.0181C57.2356 59.1481 57.5556 59.2081 57.8756 59.2081H59.2756C60.5456 59.2081 61.8656 58.9481 63.0556 58.4281C65.3956 57.4081 67.2456 55.5381 68.2456 53.1581C68.7556 51.9481 69.0256 50.6181 69.0156 49.3081V44.7381C69.0156 44.3881 68.9456 44.0481 68.8156 43.7181C68.6756 43.3881 68.4956 43.0981 68.2756 42.8781C67.9456 42.5581 67.5256 42.2581 67.0856 42.0381C66.4256 41.7481 65.7256 41.5181 65.0456 41.3581C64.1256 41.1281 63.2956 40.9681 62.4956 40.8481C61.6156 40.7181 60.6856 40.5981 59.6656 40.4981C58.7056 40.4081 57.7456 40.3381 56.8256 40.2881C55.8956 40.2481 55.0056 40.2081 54.1456 40.1881H53.7256C53.0356 40.1781 52.4056 40.1681 51.8456 40.1681C51.8456 40.1681 51.8456 40.1681 51.8356 40.1681C51.1456 40.1681 50.3856 40.1681 49.5356 40.1881C48.7356 40.1981 47.9056 40.2281 47.0356 40.2781L46.8456 40.2881C46.0256 40.3381 45.0256 40.3981 44.0256 40.4981C42.9956 40.5981 42.0756 40.7081 41.1956 40.8481C40.3856 40.9681 39.5556 41.1281 38.6356 41.3581C37.8956 41.5481 37.2256 41.7781 36.5756 42.0581C36.1356 42.2481 35.7356 42.5281 35.3856 42.8881C34.9056 43.3781 34.6256 44.0581 34.6256 44.7581V49.3181C34.6156 50.6281 34.8756 51.9281 35.3956 53.1681C36.3956 55.5581 38.2456 57.4281 40.5856 58.4381C41.7756 58.9581 43.0856 59.2081 44.3656 59.2181H45.7756V59.2181Z" fill="white"/>
<defs>
<linearGradient id="paint0_linear" x1="49.4058" y1="-13.4614" x2="53.3877" y2="132.309" gradientUnits="userSpaceOnUse">
<stop stop-color="#00ABDE"/>
<stop offset="1" stop-color="#007ED8"/>
</linearGradient>
<linearGradient id="paint1_linear" x1="2.6089" y1="-20.297" x2="98.1368" y2="120.585" gradientUnits="userSpaceOnUse">
<stop stop-color="#007ED8"/>
<stop offset="0.7065" stop-color="#002D4C"/>
</linearGradient>
<linearGradient id="paint2_linear" x1="43.5504" y1="9.22925" x2="71.6971" y2="67.3006" gradientUnits="userSpaceOnUse">
<stop stop-color="#007ED8"/>
<stop offset="0.7065" stop-color="#002D4C"/>
</linearGradient>
<linearGradient id="paint3_linear" x1="57.63" y1="160.395" x2="45.7787" y2="14.9204" gradientUnits="userSpaceOnUse">
<stop stop-color="#007ED8"/>
<stop offset="0.7065" stop-color="#002D4C"/>
</linearGradient>
<linearGradient id="paint4_linear" x1="51.4607" y1="68.7079" x2="51.4607" y2="30.4979" gradientUnits="userSpaceOnUse">
<stop stop-color="#D2EBFF"/>
<stop offset="1" stop-color="#F0FFFD"/>
</linearGradient>
<linearGradient id="paint5_linear" x1="51.4508" y1="24.8428" x2="51.4508" y2="31.2031" gradientUnits="userSpaceOnUse">
<stop stop-color="#0099BE"/>
<stop offset="1" stop-color="#006E97"/>
</linearGradient>
<linearGradient id="paint6_linear" x1="51.4508" y1="67.9124" x2="51.4508" y2="71.4446" gradientUnits="userSpaceOnUse">
<stop stop-color="#0099BE"/>
<stop offset="1" stop-color="#006E97"/>
</linearGradient>
<linearGradient id="paint7_linear" x1="23.0357" y1="49.6034" x2="79.8857" y2="49.6034" gradientUnits="userSpaceOnUse">
<stop stop-color="#50E6FF"/>
<stop offset="1" stop-color="#4DC2EB"/>
</linearGradient>
<linearGradient id="paint8_linear" x1="51.4508" y1="24.8428" x2="51.4508" y2="31.2031" gradientUnits="userSpaceOnUse">
<stop stop-color="#007ED8"/>
<stop offset="0.7065" stop-color="#002D4C"/>
</linearGradient>
<linearGradient id="paint9_linear" x1="51.4508" y1="67.9124" x2="51.4508" y2="71.4446" gradientUnits="userSpaceOnUse">
<stop stop-color="#007ED8"/>
<stop offset="0.7065" stop-color="#002D4C"/>
</linearGradient>
<linearGradient id="paint10_linear" x1="51.7814" y1="39.4672" x2="51.7814" y2="59.9037" gradientUnits="userSpaceOnUse">
<stop stop-color="#F0FFFE"/>
<stop offset="1" stop-color="#C0E3FF"/>
</linearGradient>
</defs>
</svg>
