<svg width="100" height="100" viewBox="0 0 100 100" fill="none" xmlns="http://www.w3.org/2000/svg">
<g clip-path="url(#clip0)">
<path d="M49.6401 96.4481C40.382 96.4481 31.3317 93.7028 23.6339 88.5592C15.936 83.4157 9.93624 76.105 6.3933 67.5516C2.85036 58.9981 1.92337 49.5862 3.72954 40.506C5.53571 31.4257 9.99394 23.085 16.5404 16.5385C23.0869 9.99198 31.4277 5.53376 40.5079 3.72759C49.5882 1.92141 59.0001 2.84841 67.5535 6.39135C76.1069 9.93428 83.4176 15.934 88.5612 23.6319C93.7047 31.3298 96.4501 40.38 96.4501 49.6381C96.4505 55.7854 95.24 61.8726 92.8878 67.5521C90.5355 73.2315 87.0875 78.392 82.7407 82.7388C78.3939 87.0856 73.2335 90.5335 67.554 92.8858C61.8746 95.2381 55.7874 96.4486 49.6401 96.4481V96.4481Z" fill="url(#paint0_linear)"/>
<path fill-rule="evenodd" clip-rule="evenodd" d="M95.54 49.64C95.54 58.7182 92.848 67.5925 87.8045 75.1407C82.7609 82.6889 75.5923 88.572 67.2052 92.0461C58.818 95.5201 49.5891 96.4291 40.6854 94.658C31.7816 92.887 23.603 88.5154 17.1838 82.0962C10.7646 75.677 6.39302 67.4984 4.62196 58.5946C2.85089 49.6909 3.75987 40.462 7.23393 32.0748C10.708 23.6877 16.5911 16.5191 24.1393 11.4755C31.6875 6.43199 40.5618 3.74 49.64 3.74C55.6677 3.73998 61.6363 4.9272 67.2052 7.23388C72.774 9.54057 77.834 12.9215 82.0963 17.1837C86.3585 21.446 89.7394 26.5059 92.0461 32.0748C94.3528 37.6437 95.54 43.6123 95.54 49.64V49.64ZM49.64 3.62732e-07C59.4579 3.62732e-07 69.0553 2.91134 77.2185 8.36585C85.3818 13.8204 91.7442 21.5731 95.5014 30.6436C99.2585 39.7141 100.242 49.6951 98.3262 59.3243C96.4108 68.9535 91.6831 77.7985 84.7408 84.7408C77.7985 91.6831 68.9535 96.4108 59.3243 98.3262C49.6951 100.242 39.7141 99.2585 30.6436 95.5014C21.5731 91.7442 13.8204 85.3818 8.36585 77.2185C2.91134 69.0553 3.62732e-07 59.4579 3.62732e-07 49.64C-0.000787738 43.121 1.28265 36.6656 3.77702 30.6427C6.27138 24.6197 9.9278 19.1471 14.5375 14.5375C19.1471 9.9278 24.6197 6.27138 30.6427 3.77702C36.6656 1.28265 43.121 -0.000787738 49.64 3.62732e-07V3.62732e-07Z" fill="#F2F1F0"/>
<path fill-rule="evenodd" clip-rule="evenodd" d="M92.7296 49.6386C92.7296 58.161 90.2024 66.492 85.4676 73.5781C80.7328 80.6643 74.0031 86.1872 66.1294 89.4486C58.2558 92.71 49.5918 93.5633 41.2332 91.9007C32.8745 90.238 25.1966 86.1341 19.1704 80.1079C13.1441 74.0816 9.0402 66.4037 7.37756 58.0451C5.71493 49.6864 6.56825 41.0225 9.82963 33.1488C13.091 25.2751 18.614 18.5454 25.7001 13.8106C32.7862 9.07581 41.1172 6.54862 49.6396 6.54862C55.2984 6.54828 60.9018 7.6626 66.1298 9.82795C71.3579 11.9933 76.1083 15.1673 80.1096 19.1686C84.1109 23.17 87.2849 27.9203 89.4503 33.1484C91.6156 38.3765 92.7299 43.9799 92.7296 49.6386V49.6386ZM49.6396 2.80862C58.9017 2.80862 67.9558 5.55515 75.657 10.7009C83.3581 15.8466 89.3604 23.1605 92.9049 31.7176C96.4493 40.2746 97.3767 49.6906 95.5698 58.7747C93.7628 67.8588 89.3027 76.2031 82.7534 82.7524C76.2041 89.3017 67.8598 93.7619 58.7757 95.5688C49.6916 97.3757 40.2756 96.4484 31.7185 92.9039C23.1615 89.3594 15.8476 83.3571 10.7019 75.656C5.55613 67.9548 2.8096 58.9007 2.8096 49.6386C2.81079 37.2189 7.74503 25.3082 16.5271 16.5261C25.3092 7.74403 37.2199 2.80979 49.6396 2.80859V2.80862Z" fill="#0078D4"/>
<path fill-rule="evenodd" clip-rule="evenodd" d="M33.9543 30.9062C33.2568 30.9083 32.5884 31.1863 32.0952 31.6795C31.602 32.1727 31.324 32.8411 31.3219 33.5386V70.3922C31.324 71.0897 31.602 71.758 32.0952 72.2513C32.5884 72.7445 33.2568 73.0225 33.9543 73.0245H58.962C59.6596 73.0226 60.328 72.7446 60.8212 72.2514C61.3145 71.7581 61.5925 71.0897 61.5944 70.3922V41.4358L51.0649 30.9062H33.9543Z" fill="white"/>
<path fill-rule="evenodd" clip-rule="evenodd" d="M53.6973 41.4358H61.5945L51.0649 30.9062V38.8034C51.0669 39.501 51.3449 40.1693 51.8382 40.6626C52.3314 41.1558 52.9998 41.4338 53.6973 41.4358V41.4358Z" fill="#E8E8E8"/>
<path fill-rule="evenodd" clip-rule="evenodd" d="M55.0135 49.3316H37.9029C37.5545 49.3306 37.2206 49.1916 36.9746 48.9448C36.7285 48.6981 36.5903 48.3639 36.5903 48.0154C36.5903 47.667 36.7285 47.3327 36.9746 47.086C37.2206 46.8393 37.5545 46.7002 37.9029 46.6992H55.0135C55.3619 46.7002 55.6957 46.8393 55.9418 47.086C56.1879 47.3327 56.326 47.667 56.326 48.0154C56.326 48.3639 56.1879 48.6981 55.9418 48.9448C55.6957 49.1916 55.3619 49.3306 55.0135 49.3316Z" fill="#0078D4"/>
<path fill-rule="evenodd" clip-rule="evenodd" d="M55.0135 55.2535H37.9029C37.5545 55.2525 37.2206 55.1134 36.9746 54.8667C36.7285 54.62 36.5903 54.2857 36.5903 53.9373C36.5903 53.5888 36.7285 53.2546 36.9746 53.0079C37.2206 52.7612 37.5545 52.6221 37.9029 52.6211H55.0135C55.3619 52.6221 55.6957 52.7612 55.9418 53.0079C56.1879 53.2546 56.326 53.5888 56.326 53.9373C56.326 54.2857 56.1879 54.62 55.9418 54.8667C55.6957 55.1134 55.3619 55.2525 55.0135 55.2535V55.2535Z" fill="#50E6FF"/>
<path fill-rule="evenodd" clip-rule="evenodd" d="M55.0134 61.1754H37.9029C37.5538 61.1754 37.219 61.0367 36.9722 60.7899C36.7254 60.543 36.5867 60.2082 36.5867 59.8592C36.5867 59.5101 36.7254 59.1753 36.9722 58.9285C37.219 58.6816 37.5538 58.543 37.9029 58.543H55.0134C55.3625 58.543 55.6973 58.6816 55.9441 58.9285C56.191 59.1753 56.3296 59.5101 56.3296 59.8592C56.3296 60.2082 56.191 60.543 55.9441 60.7899C55.6973 61.0367 55.3625 61.1754 55.0134 61.1754Z" fill="#9CEBFF"/>
<path fill-rule="evenodd" clip-rule="evenodd" d="M55.0135 67.1011H37.9029C37.5545 67.1002 37.2206 66.9611 36.9746 66.7144C36.7285 66.4676 36.5903 66.1334 36.5903 65.7849C36.5903 65.4365 36.7285 65.1023 36.9746 64.8555C37.2206 64.6088 37.5545 64.4697 37.9029 64.4688H55.0135C55.3619 64.4697 55.6957 64.6088 55.9418 64.8555C56.1879 65.1023 56.326 65.4365 56.326 65.7849C56.326 66.1334 56.1879 66.4676 55.9418 66.7144C55.6957 66.9611 55.3619 67.1002 55.0135 67.1011Z" fill="#C3F1FF"/>
<path opacity="0.5" fill-rule="evenodd" clip-rule="evenodd" d="M61.5944 49.3308L53.6973 41.4336H61.5944V49.3308Z" fill="#F2F2F2"/>
<path d="M44.5794 34.9883H37.8077C37.5203 34.9886 37.2447 35.1029 37.0415 35.3061C36.8382 35.5094 36.7239 35.785 36.7236 36.0724V37.9936C36.7245 38.2805 36.8391 38.5554 37.0423 38.758C37.2455 38.9606 37.5208 39.0744 37.8077 39.0744C38.0947 39.0744 38.3699 38.9606 38.5731 38.758C38.7764 38.5554 38.891 38.2805 38.8918 37.9936V37.1566H40.1094V41.76H39.3004C39.0128 41.76 38.737 41.8742 38.5337 42.0776C38.3303 42.281 38.2161 42.5568 38.2161 42.8444C38.2161 43.132 38.3303 43.4078 38.5337 43.6111C38.737 43.8145 39.0128 43.9287 39.3004 43.9287H43.0867C43.3743 43.9287 43.6501 43.8145 43.8534 43.6111C44.0568 43.4078 44.171 43.132 44.171 42.8444C44.171 42.5568 44.0568 42.281 43.8534 42.0776C43.6501 41.8742 43.3743 41.76 43.0867 41.76H42.2777V37.1565H43.4953V37.9935C43.4961 38.2805 43.6107 38.5554 43.8139 38.758C44.0172 38.9606 44.2924 39.0743 44.5794 39.0743C44.8663 39.0743 45.1416 38.9606 45.3448 38.758C45.548 38.5554 45.6626 38.2805 45.6635 37.9935V36.0724C45.6632 35.785 45.5489 35.5094 45.3456 35.3061C45.1424 35.1029 44.8668 34.9886 44.5794 34.9883V34.9883Z" fill="#E8E8E8"/>
<path opacity="0.2" fill-rule="evenodd" clip-rule="evenodd" d="M61.5944 30.9062H47.64V43.3843C47.6411 44.4448 48.0629 45.4615 48.8128 46.2114C49.5627 46.9613 50.5795 47.3831 51.64 47.3843H61.5944L61.5944 30.9062Z" fill="#767676"/>
<path d="M74.131 24.1328H51.6396C50.535 24.1328 49.6396 25.0282 49.6396 26.1328V43.382C49.6396 44.4865 50.535 45.382 51.6396 45.382H74.131C75.2356 45.382 76.131 44.4865 76.131 43.382V26.1328C76.131 25.0282 75.2356 24.1328 74.131 24.1328Z" fill="white"/>
<path d="M61.2987 29.5338L58.1924 32.011H54.7081C54.5819 32.011 54.4569 32.0358 54.3404 32.0841C54.2238 32.1324 54.1178 32.2032 54.0286 32.2924C53.9394 32.3816 53.8686 32.4876 53.8203 32.6042C53.772 32.7207 53.7472 32.8457 53.7472 32.9719V36.5432C53.7472 36.6694 53.772 36.7944 53.8203 36.911C53.8686 37.0276 53.9394 37.1335 54.0286 37.2227C54.1178 37.3119 54.2238 37.3827 54.3404 37.431C54.4569 37.4793 54.5819 37.5041 54.7081 37.5041H58.1924L61.2987 39.9813C61.4401 40.094 61.6105 40.1646 61.7902 40.1848C61.9699 40.2051 62.1517 40.1742 62.3147 40.0957C62.4776 40.0173 62.6151 39.8944 62.7114 39.7413C62.8076 39.5881 62.8587 39.4109 62.8587 39.2301V30.2851C62.8587 30.1042 62.8076 29.927 62.7114 29.7739C62.6151 29.6207 62.4776 29.4978 62.3147 29.4194C62.1517 29.3409 61.9699 29.31 61.7902 29.3303C61.6105 29.3505 61.4401 29.4211 61.2987 29.5338V29.5338Z" fill="#1F56A3"/>
<path d="M66.258 34.7587C66.2573 34.1869 66.143 33.621 65.9218 33.0938C65.7005 32.5665 65.3767 32.0885 64.9692 31.6875L64.2891 32.3676C64.6081 32.6788 64.8617 33.0507 65.0348 33.4613C65.2079 33.872 65.2971 34.3132 65.2971 34.7589C65.2971 35.2046 65.208 35.6457 65.0349 36.0564C64.8617 36.4671 64.6082 36.839 64.2892 37.1502L64.9692 37.8302C65.3767 37.4291 65.7005 36.9511 65.9218 36.4238C66.1431 35.8965 66.2573 35.3305 66.258 34.7587Z" fill="#1F56A3"/>
<path d="M69.1407 34.7585C69.141 33.8077 68.9531 32.8664 68.5877 31.9886C68.2223 31.1109 67.6868 30.3142 67.012 29.6445L66.3265 30.33C66.9135 30.9085 67.3796 31.598 67.6978 32.3582C68.016 33.1185 68.1798 33.9345 68.1798 34.7587C68.1798 35.5828 68.016 36.3988 67.6978 37.1591C67.3796 37.9194 66.9135 38.6088 66.3265 39.1874L67.012 39.8727C67.6868 39.203 68.2224 38.4062 68.5877 37.5284C68.9531 36.6507 69.141 35.7092 69.1407 34.7585V34.7585Z" fill="#1F56A3"/>
<path d="M72.0234 34.7597C72.0233 33.4309 71.76 32.1152 71.2487 30.8886C70.7375 29.662 69.9883 28.5488 69.0445 27.6133L68.3653 28.2925C69.2198 29.1388 69.8982 30.1462 70.3612 31.2562C70.8241 32.3663 71.0625 33.5572 71.0625 34.7599C71.0625 35.9627 70.8241 37.1535 70.3612 38.2636C69.8982 39.3737 69.2198 40.381 68.3653 41.2273L69.0445 41.9065C69.9883 40.971 70.7375 39.8577 71.2488 38.6311C71.76 37.4044 72.0233 36.0887 72.0234 34.7597Z" fill="#1F56A3"/>
</g>
<defs>
<linearGradient id="paint0_linear" x1="47.8697" y1="-15.155" x2="51.8525" y2="130.613" gradientUnits="userSpaceOnUse">
<stop stop-color="#00ABDE"/>
<stop offset="1" stop-color="#007ED8"/>
</linearGradient>
<clipPath id="clip0">
<rect width="99.2799" height="99.28" fill="white"/>
</clipPath>
</defs>
</svg>
