<svg width="100" height="100" viewBox="0 0 100 100" fill="none" xmlns="http://www.w3.org/2000/svg">
<g clip-path="url(#clip0)">
<path d="M49.6401 96.4501C40.382 96.4501 31.3317 93.7047 23.6339 88.5612C15.936 83.4176 9.93624 76.1069 6.3933 67.5535C2.85036 59.0001 1.92337 49.5882 3.72954 40.5079C5.53571 31.4277 9.99394 23.0869 16.5404 16.5404C23.0869 9.99393 31.4277 5.53571 40.5079 3.72954C49.5882 1.92337 59.0001 2.85036 67.5535 6.3933C76.1069 9.93624 83.4176 15.936 88.5612 23.6339C93.7047 31.3317 96.4501 40.382 96.4501 49.6401C96.4505 55.7874 95.24 61.8746 92.8878 67.554C90.5355 73.2335 87.0875 78.3939 82.7407 82.7407C78.3939 87.0875 73.2335 90.5355 67.554 92.8878C61.8746 95.24 55.7874 96.4505 49.6401 96.4501V96.4501Z" fill="url(#paint0_linear)"/>
<path fill-rule="evenodd" clip-rule="evenodd" d="M95.54 49.64C95.54 58.7182 92.848 67.5925 87.8045 75.1407C82.7609 82.6889 75.5923 88.572 67.2052 92.0461C58.818 95.5201 49.5891 96.4291 40.6854 94.658C31.7816 92.887 23.603 88.5154 17.1838 82.0962C10.7646 75.677 6.39302 67.4984 4.62196 58.5946C2.85089 49.6909 3.75987 40.462 7.23393 32.0748C10.708 23.6877 16.5911 16.5191 24.1393 11.4755C31.6875 6.43199 40.5618 3.74 49.64 3.74C55.6677 3.73998 61.6363 4.9272 67.2052 7.23388C72.774 9.54057 77.834 12.9215 82.0963 17.1837C86.3585 21.446 89.7394 26.5059 92.0461 32.0748C94.3528 37.6437 95.54 43.6123 95.54 49.64V49.64ZM49.64 3.62732e-07C59.4579 3.62732e-07 69.0553 2.91134 77.2185 8.36585C85.3818 13.8204 91.7442 21.5731 95.5014 30.6436C99.2585 39.7141 100.242 49.6951 98.3262 59.3243C96.4108 68.9535 91.6831 77.7985 84.7408 84.7408C77.7985 91.6831 68.9535 96.4108 59.3243 98.3262C49.6951 100.242 39.7141 99.2585 30.6436 95.5014C21.5731 91.7442 13.8204 85.3818 8.36585 77.2185C2.91134 69.0553 3.62732e-07 59.4579 3.62732e-07 49.64C-0.000787738 43.121 1.28265 36.6656 3.77702 30.6427C6.27138 24.6197 9.9278 19.1471 14.5375 14.5375C19.1471 9.9278 24.6197 6.27138 30.6427 3.77702C36.6656 1.28265 43.121 -0.000787738 49.64 3.62732e-07V3.62732e-07Z" fill="#F2F1F0"/>
<path fill-rule="evenodd" clip-rule="evenodd" d="M92.7296 49.6406C92.7296 58.163 90.2024 66.494 85.4676 73.5801C80.7328 80.6662 74.0031 86.1892 66.1294 89.4505C58.2557 92.7119 49.5918 93.5653 41.2331 91.9026C32.8745 90.24 25.1966 86.1361 19.1703 80.1098C13.1441 74.0836 9.04017 66.4057 7.37753 58.047C5.7149 49.6884 6.56822 41.0244 9.8296 33.1507C13.091 25.2771 18.6139 18.5473 25.7 13.8126C32.7862 9.07776 41.1172 6.55058 49.6396 6.55058C55.2983 6.55023 60.9017 7.66455 66.1298 9.82991C71.3579 11.9953 76.1082 15.1692 80.1096 19.1706C84.1109 23.1719 87.2849 27.9223 89.4502 33.1503C91.6156 38.3784 92.7299 43.9818 92.7296 49.6406V49.6406ZM49.6396 2.81058C58.9017 2.81058 67.9558 5.55711 75.6569 10.7029C83.3581 15.8486 89.3604 23.1624 92.9049 31.7195C96.4493 40.2766 97.3767 49.6925 95.5697 58.7767C93.7628 67.8608 89.3027 76.2051 82.7534 82.7544C76.2041 89.3037 67.8598 93.7638 58.7757 95.5708C49.6915 97.3777 40.2756 96.4503 31.7185 92.9059C23.1614 89.3614 15.8476 83.3591 10.7018 75.6579C5.5561 67.9568 2.80957 58.9027 2.80957 49.6406C2.81076 37.2209 7.745 25.3101 16.5271 16.5281C25.3091 7.74599 37.2198 2.81174 49.6396 2.81055V2.81058Z" fill="#0078D4"/>
<path fill-rule="evenodd" clip-rule="evenodd" d="M92.7296 49.6396C92.7296 58.162 90.2024 66.493 85.4676 73.5791C80.7328 80.6652 74.0031 86.1882 66.1294 89.4495C58.2557 92.7109 49.5918 93.5642 41.2331 91.9016C32.8745 90.239 25.1966 86.135 19.1703 80.1088C13.1441 74.0826 9.04017 66.4047 7.37753 58.046C5.7149 49.6874 6.56822 41.0234 9.8296 33.1497C13.091 25.2761 18.6139 18.5463 25.7001 13.8115C32.7862 9.07675 41.1172 6.54957 49.6396 6.54957C55.2983 6.54923 60.9017 7.66355 66.1298 9.8289C71.3579 11.9943 76.1082 15.1682 80.1096 19.1696C84.1109 23.1709 87.2849 27.9213 89.4502 33.1493C91.6156 38.3774 92.7299 43.9808 92.7296 49.6396V49.6396ZM49.6396 2.80957C58.9017 2.80957 67.9558 5.5561 75.6569 10.7018C83.3581 15.8476 89.3604 23.1614 92.9048 31.7185C96.4493 40.2756 97.3767 49.6915 95.5697 58.7757C93.7628 67.8598 89.3027 76.2041 82.7534 82.7534C76.2041 89.3027 67.8598 93.7628 58.7757 95.5697C49.6915 97.3767 40.2756 96.4493 31.7185 92.9049C23.1614 89.3604 15.8476 83.3581 10.7018 75.6569C5.5561 67.9558 2.80957 58.9017 2.80957 49.6396C2.81076 37.2198 7.74501 25.3091 16.5271 16.5271C25.3091 7.74501 37.2198 2.81076 49.6396 2.80957V2.80957Z" fill="#0078D4"/>
<path d="M79.9829 49.5471C79.9843 43.5609 78.215 37.7079 74.8977 32.7249C71.5804 27.7419 66.8633 23.8514 61.34 21.543C55.8168 19.2347 49.7341 18.6116 43.8575 19.7522C37.981 20.8928 32.573 23.7461 28.3144 27.9531C24.0557 32.1601 21.1365 37.5328 19.9242 43.395C18.7119 49.2572 19.2606 55.347 21.5013 60.898C23.742 66.4491 27.5746 71.2134 32.5167 74.5913C37.4589 77.9692 43.2897 79.8099 49.2755 79.8816C49.3971 79.8872 49.5178 79.8996 49.6402 79.8996C49.7632 79.8996 49.8845 79.8872 50.0067 79.8815C57.9864 79.7769 65.6043 76.5361 71.2136 70.8597C76.823 65.1833 79.9731 57.5274 79.9829 49.5471V49.5471ZM49.9043 76.8841C49.8156 76.885 49.728 76.8908 49.6392 76.8908C49.5514 76.8908 49.4651 76.885 49.3775 76.8842C45.199 76.6477 40.8639 70.7931 38.8192 61.3942H60.4601C58.4158 70.792 54.0817 76.6463 49.9043 76.8841V76.8841ZM38.2639 58.3942C37.405 52.5904 37.3958 46.6924 38.2367 40.8859H61.0426C61.4649 43.7565 61.6734 46.6544 61.6665 49.5558C61.6735 52.5142 61.4558 55.4688 61.0154 58.3942H38.2639ZM22.2954 49.5471C22.2952 46.6026 22.7727 43.6775 23.7095 40.886H35.2157C34.4041 46.6944 34.412 52.588 35.2389 58.3943H23.7727C22.7943 55.5472 22.2951 52.5576 22.2954 49.5471V49.5471ZM49.6402 22.2116C53.9224 22.2116 58.4252 28.1905 60.4966 37.886H38.7827C40.8543 28.1905 45.3572 22.2116 49.6402 22.2116ZM64.0636 40.886H75.5689C77.4757 46.5699 77.4535 52.7242 75.5056 58.3943H64.0404C64.4616 55.467 64.6708 52.5132 64.6665 49.5559C64.6702 46.6553 64.4687 43.7581 64.0636 40.886V40.886ZM74.3653 37.886H63.5515C62.3084 31.6981 60.0944 26.5942 57.27 23.2944C60.9873 24.3836 64.4322 26.2468 67.3785 28.7615C70.3247 31.2763 72.7058 34.3858 74.3653 37.886ZM42.0099 23.294C39.1853 26.5938 36.9712 31.6978 35.7279 37.886H24.9131C26.5727 34.3856 28.954 31.2759 31.9005 28.761C34.8471 26.2462 38.2923 24.383 42.0099 23.294V23.294ZM24.9976 61.3942H35.7603C37.0066 67.4924 39.2 72.5232 41.9895 75.7939C38.3088 74.7131 34.8953 72.8734 31.9687 70.3934C29.0422 67.9133 26.6675 64.8478 24.9976 61.3942V61.3942ZM57.2906 75.7934C60.0796 72.5227 62.273 67.4921 63.5191 61.3942H74.2808C72.611 64.8475 70.2366 67.9128 67.3103 70.3928C64.3841 72.8728 60.9709 74.7125 57.2905 75.7934L57.2906 75.7934Z" fill="#0078D4"/>
<path d="M49.9043 76.8844C49.8156 76.8853 49.728 76.8911 49.6392 76.8911C49.5514 76.8911 49.4651 76.8853 49.3774 76.8845C45.199 76.6479 40.8639 70.7934 38.8192 61.3945H60.4601C58.4158 70.7923 54.0817 76.6466 49.9043 76.8844ZM38.2639 58.3945C37.405 52.5907 37.3958 46.6927 38.2367 40.8862H61.0426C61.4649 43.7567 61.6734 46.6547 61.6665 49.5561C61.6735 52.5145 61.4558 55.4691 61.0154 58.3945H38.2639ZM22.2954 49.5474C22.2951 46.6028 22.7727 43.6778 23.7095 40.8862H35.2157C34.4041 46.6947 34.4119 52.5883 35.2389 58.3945H23.7727C22.7943 55.5475 22.2951 52.5578 22.2954 49.5474V49.5474ZM49.6401 22.2119C53.9224 22.2119 58.4251 28.1908 60.4966 37.8862H38.7827C40.8542 28.1908 45.3572 22.2119 49.6401 22.2119ZM64.0636 40.8862H75.5688C77.4757 46.5702 77.4535 52.7245 75.5056 58.3945H64.0404C64.4616 55.4673 64.6708 52.5135 64.6665 49.5561C64.6702 46.6556 64.4687 43.7584 64.0636 40.8862V40.8862ZM74.3652 37.8862H63.5515C62.3084 31.6984 60.0944 26.5945 57.27 23.2947C60.9873 24.3839 64.4322 26.247 67.3785 28.7618C70.3247 31.2766 72.7058 34.3861 74.3652 37.8862ZM42.0099 23.2942C39.1853 26.594 36.9712 31.6981 35.7279 37.8862H24.9131C26.5727 34.3859 28.9539 31.2762 31.9005 28.7613C34.8471 26.2464 38.2923 24.3833 42.0099 23.2942V23.2942ZM24.9976 61.3945H35.7603C37.0066 67.4926 39.2 72.5235 41.9895 75.7941C38.3088 74.7134 34.8953 72.8737 31.9687 70.3936C29.0422 67.9136 26.6675 64.848 24.9976 61.3945V61.3945ZM57.2906 75.7937C60.0796 72.523 62.273 67.4924 63.5191 61.3945H74.2808C72.611 64.8478 70.2365 67.9131 67.3103 70.3931C64.384 72.8731 60.9709 74.7128 57.2905 75.7937L57.2906 75.7937Z" fill="url(#paint1_linear)"/>
<path opacity="0.2" d="M49.6392 51.5089C46.8799 51.4981 44.1532 52.1048 41.6588 53.2846C39.1645 54.4644 36.9657 56.1874 35.2237 58.3272C33.4817 60.4671 32.2405 62.9696 31.5912 65.6514C30.9418 68.3332 30.9008 71.1264 31.4711 73.8261C36.6098 77.6886 42.8474 79.8099 49.2755 79.8811C49.3971 79.8867 49.5178 79.8991 49.6401 79.8991C49.7631 79.8991 49.8845 79.8866 50.0067 79.881C56.4335 79.8089 62.6696 77.6875 67.8073 73.8258C68.3775 71.1261 68.3365 68.333 67.6872 65.6512C67.0378 62.9694 65.7967 60.4669 64.0546 58.327C62.3126 56.1872 60.1138 54.4643 57.6195 53.2845C55.1251 52.1048 52.3984 51.4981 49.6392 51.5089L49.6392 51.5089Z" fill="#003067"/>
<path opacity="0.2" d="M49.6392 51.5089C46.8799 51.4981 44.1532 52.1048 41.6588 53.2846C39.1645 54.4644 36.9657 56.1874 35.2237 58.3272C33.4817 60.4671 32.2405 62.9696 31.5912 65.6514C30.9418 68.3332 30.9008 71.1264 31.4711 73.8261C36.6098 77.6886 42.8474 79.8099 49.2755 79.8811C49.3971 79.8867 49.5178 79.8991 49.6401 79.8991C49.7631 79.8991 49.8845 79.8866 50.0067 79.881C56.4335 79.8089 62.6696 77.6875 67.8073 73.8258C68.3775 71.1261 68.3365 68.333 67.6872 65.6512C67.0378 62.9694 65.7967 60.4669 64.0546 58.327C62.3126 56.1872 60.1138 54.4643 57.6195 53.2845C55.1251 52.1048 52.3984 51.4981 49.6392 51.5089L49.6392 51.5089Z" fill="#003067"/>
<path d="M49.6391 86.5275C58.789 86.5275 66.2065 79.1362 66.2065 70.0186C66.2065 60.901 58.789 53.5098 49.6391 53.5098C40.4892 53.5098 33.0718 60.901 33.0718 70.0186C33.0718 79.1362 40.4892 86.5275 49.6391 86.5275Z" fill="url(#paint2_radial)"/>
<path d="M49.6392 84.383C57.6049 84.383 64.0625 77.9517 64.0625 70.0182C64.0625 62.0847 57.6049 55.6533 49.6392 55.6533C41.6734 55.6533 35.2158 62.0847 35.2158 70.0182C35.2158 77.9517 41.6734 84.383 49.6392 84.383Z" fill="white"/>
<path d="M37.3987 70.876C37.5966 73.8189 38.8573 76.5897 40.946 78.6724L44.8442 74.7742C43.7893 73.7203 43.1053 72.3523 42.8951 70.876H37.3987Z" fill="#9CEBFF"/>
<path d="M57.689 60.7985C55.6824 59.0445 53.1559 57.9969 50.4968 57.8164V63.2544C51.7122 63.3938 52.8656 63.8659 53.8298 64.6188L57.689 60.7985Z" fill="#32BEDD"/>
<path d="M41.5894 60.7986L45.4876 64.6968C46.4518 63.9439 47.6052 63.4718 48.8206 63.3324V57.8164C46.1479 57.9885 43.6064 59.0366 41.5894 60.7986V60.7986Z" fill="#32BEDD"/>
<path d="M55.0576 65.828C55.8016 66.7994 56.2787 67.9484 56.4415 69.161H61.8795C61.7035 66.5125 60.6548 63.997 58.8974 62.0078L55.0576 65.828Z" fill="#32BEDD"/>
<path d="M44.2205 65.8279L40.3223 61.9297C38.5702 63.9475 37.5413 66.4923 37.3987 69.1609H42.8367C42.9995 67.9482 43.4765 66.7992 44.2205 65.8279Z" fill="#50E6FF"/>
<path d="M59.6574 66.1197C59.5707 65.9109 59.4067 65.7437 59.1997 65.653C58.9927 65.5622 58.7587 65.5548 58.5464 65.6324L50.5161 68.8679L51.1398 70.4467L59.1701 67.2697C59.2757 67.2306 59.3726 67.1711 59.4553 67.0946C59.5379 67.018 59.6046 66.926 59.6517 66.8237C59.6987 66.7213 59.7252 66.6108 59.7295 66.4982C59.7338 66.3857 59.7159 66.2734 59.6768 66.1678C59.6709 66.1515 59.6644 66.1355 59.6574 66.1197Z" fill="#F04049"/>
<path d="M49.6392 72.3575C50.931 72.3575 51.9781 71.3104 51.9781 70.0186C51.9781 68.7269 50.931 67.6797 49.6392 67.6797C48.3475 67.6797 47.3003 68.7269 47.3003 70.0186C47.3003 71.3104 48.3475 72.3575 49.6392 72.3575Z" fill="url(#paint3_radial)"/>
</g>
<defs>
<linearGradient id="paint0_linear" x1="47.8698" y1="-15.153" x2="51.8525" y2="130.615" gradientUnits="userSpaceOnUse">
<stop stop-color="#00ABDE"/>
<stop offset="1" stop-color="#007ED8"/>
</linearGradient>
<linearGradient id="paint1_linear" x1="1241.57" y1="2731.62" x2="4232.3" y2="2731.62" gradientUnits="userSpaceOnUse">
<stop stop-color="#00ABDE"/>
<stop offset="1" stop-color="#007ED8"/>
</linearGradient>
<radialGradient id="paint2_radial" cx="0" cy="0" r="1" gradientUnits="userSpaceOnUse" gradientTransform="translate(49.6391 70.0859) scale(16.5717)">
<stop offset="0.18" stop-color="#5EA0EF"/>
<stop offset="0.56" stop-color="#5C9FEE"/>
<stop offset="0.69" stop-color="#559CED"/>
<stop offset="0.78" stop-color="#4A97E9"/>
<stop offset="0.86" stop-color="#3990E4"/>
<stop offset="0.93" stop-color="#2387DE"/>
<stop offset="0.99" stop-color="#087BD6"/>
<stop offset="1" stop-color="#0078D4"/>
</radialGradient>
<radialGradient id="paint3_radial" cx="0" cy="0" r="1" gradientUnits="userSpaceOnUse" gradientTransform="translate(49.6392 66.443) scale(5.0027)">
<stop offset="0.19" stop-color="#8C8E90"/>
<stop offset="0.35" stop-color="#848688"/>
<stop offset="0.6" stop-color="#6E7071"/>
<stop offset="0.91" stop-color="#4A4B4C"/>
<stop offset="1" stop-color="#3E3F3F"/>
</radialGradient>
<clipPath id="clip0">
<rect width="99.2799" height="99.28" fill="white"/>
</clipPath>
</defs>
</svg>
