<svg width="103" height="102" viewBox="0 0 103 102" fill="none" xmlns="http://www.w3.org/2000/svg">
<path d="M51.0892 97.351C25.4927 97.351 4.73816 76.6064 4.73816 50.9999C4.73816 25.3935 25.4927 4.64886 51.0892 4.64886C76.6858 4.64886 97.4403 25.4034 97.4403 50.9999C97.4403 76.5965 76.6858 97.351 51.0892 97.351Z" fill="url(#paint0_linear_1812_346)"/>
<path fill-rule="evenodd" clip-rule="evenodd" d="M96.5395 51.0003C96.5395 76.1018 76.191 96.4503 51.0895 96.4503C25.988 96.4503 5.63949 76.1018 5.63949 51.0003C5.63949 25.8989 25.988 5.55035 51.0895 5.55035C76.191 5.55035 96.5395 25.8989 96.5395 51.0003ZM51.0895 1.84702C78.2407 1.84702 100.243 23.8492 100.243 51.0003C100.243 78.1515 78.2308 100.154 51.0895 100.154C23.9383 100.154 1.93616 78.1416 1.93616 51.0003C1.93616 23.8492 23.9383 1.84702 51.0895 1.84702Z" fill="#F2F1F0"/>
<path fill-rule="evenodd" clip-rule="evenodd" d="M93.7568 50.9999C93.7568 74.5666 74.6559 93.6675 51.0893 93.6675C27.5226 93.6675 8.42172 74.5666 8.42172 50.9999C8.42172 27.4333 27.5226 8.33238 51.0893 8.33238C74.6559 8.33238 93.7568 27.4333 93.7568 50.9999ZM51.0893 4.62904C76.6957 4.62904 97.4601 25.3935 97.4601 50.9999C97.4601 76.6064 76.6957 97.3708 51.0893 97.3708C25.4828 97.3708 4.71838 76.6064 4.71838 50.9999C4.71838 25.3935 25.4729 4.62904 51.0893 4.62904Z" fill="url(#paint1_linear_1812_346)"/>
<path d="M50.7751 30.8818C49.7719 30.8937 48.7879 30.607 47.948 30.0583C47.108 29.5096 46.4495 28.7234 46.0573 27.8C45.6651 26.8765 45.5564 25.8575 45.7448 24.872C45.9332 23.8865 46.4107 22.9792 47.1159 22.2655C47.8211 21.5519 48.7226 21.0641 49.7058 20.8639C50.6889 20.6638 51.7093 20.7604 52.6374 21.1415C53.5655 21.5227 54.359 22.171 54.9177 23.0043C55.4764 23.8377 55.775 24.8184 55.7751 25.8217C55.7778 27.1542 55.2537 28.4337 54.3171 29.3815C53.3805 30.3293 52.1075 30.8686 50.7751 30.8818ZM50.7751 22.7218C50.1675 22.7099 49.5703 22.9191 49.0593 23.248C48.5482 23.5769 48.1468 24.0506 47.906 24.6086C47.6651 25.1665 47.5955 25.7835 47.7067 26.381C47.818 26.9785 48.1045 27.5293 48.53 27.9633C48.9554 28.3973 49.5003 28.6948 50.0954 28.8178C50.6906 28.9408 51.3091 28.884 51.8718 28.6542C52.4344 28.4245 52.9156 28.0322 53.2546 27.5278C53.5936 27.0233 53.775 26.4294 53.7751 25.8217C53.7885 25.4194 53.7206 25.0186 53.5759 24.643C53.4311 24.2674 53.2123 23.9247 52.9323 23.6354C52.6524 23.3462 52.3176 23.1164 51.947 22.9594C51.5763 22.8024 51.1776 22.7216 50.7751 22.7218Z" fill="#014D83"/>
<path d="M63.645 78.9319H38.5444L35.9048 83.8518L34.145 82.9019L41.4546 69.2917L43.2046 70.2917L39.6147 76.9719H62.6147L59.0249 70.2917L60.7847 69.3418L68.0952 82.9519L66.3345 83.9019L63.645 78.9319Z" fill="#013153"/>
<path d="M78.3052 31.1919H23.9146V67.752H78.3052V31.1919Z" fill="url(#paint2_linear_1812_346)"/>
<path d="M22.895 66.9819H79.2944C79.7426 66.9819 80.1728 67.1599 80.4897 67.4768C80.8067 67.7937 80.9849 68.2237 80.9849 68.6719C80.9849 69.1201 80.8067 69.55 80.4897 69.8669C80.1728 70.1839 79.7426 70.3618 79.2944 70.3618H22.895C22.6736 70.3631 22.4535 70.3207 22.2485 70.2368C22.0436 70.153 21.8577 70.0294 21.7007 69.8733C21.5436 69.7172 21.4185 69.5316 21.3335 69.3271C21.2484 69.1227 21.2046 68.9033 21.2046 68.6819C21.2046 68.2327 21.3831 67.8017 21.6997 67.4832C22.0164 67.1646 22.4459 66.9846 22.895 66.9819V66.9819Z" fill="url(#paint3_linear_1812_346)"/>
<path d="M78.3052 31.1919H23.9146V67.752H78.3052V31.1919Z" fill="url(#paint4_linear_1812_346)"/>
<path d="M23.2047 26.7718H78.985C79.5154 26.7718 80.024 26.9826 80.399 27.3577C80.7741 27.7328 80.985 28.2413 80.985 28.7718V29.8819C80.985 30.4123 80.7741 30.9211 80.399 31.2962C80.024 31.6712 79.5154 31.8819 78.985 31.8819H23.1949C22.6645 31.8819 22.1559 31.6712 21.7809 31.2962C21.4058 30.9211 21.1949 30.4123 21.1949 29.8819V28.7918C21.1923 28.5266 21.2424 28.2637 21.3424 28.0181C21.4423 27.7725 21.5899 27.5491 21.777 27.3611C21.964 27.1731 22.1871 27.0243 22.4322 26.9231C22.6774 26.822 22.9395 26.7704 23.2047 26.7718Z" fill="url(#paint5_linear_1812_346)"/>
<path d="M22.895 66.9819H79.2944C79.7426 66.9819 80.1728 67.1599 80.4897 67.4768C80.8067 67.7937 80.9849 68.2237 80.9849 68.6719C80.9849 69.1201 80.8067 69.55 80.4897 69.8669C80.1728 70.1839 79.7426 70.3618 79.2944 70.3618H22.895C22.6736 70.3631 22.4535 70.3207 22.2485 70.2368C22.0436 70.153 21.8577 70.0294 21.7007 69.8733C21.5436 69.7172 21.4185 69.5316 21.3335 69.3271C21.2484 69.1227 21.2046 68.9033 21.2046 68.6819C21.2046 68.2327 21.3831 67.8017 21.6997 67.4832C22.0164 67.1646 22.4459 66.9846 22.895 66.9819V66.9819Z" fill="url(#paint6_linear_1812_346)"/>
<path d="M76.145 35.2419V34.6719C76.145 34.3297 76.009 34.0017 75.7671 33.7598C75.5252 33.5178 75.1971 33.3818 74.855 33.3818H27.4546C27.2852 33.3818 27.1179 33.4152 26.9614 33.48C26.8049 33.5448 26.6623 33.64 26.5425 33.7598C26.4227 33.8796 26.328 34.0217 26.2632 34.1782C26.1984 34.3347 26.1646 34.5025 26.1646 34.6719V63.7717C26.1645 63.9407 26.1982 64.108 26.2632 64.2639C26.3281 64.4199 26.4235 64.5614 26.5435 64.6804C26.6634 64.7994 26.8059 64.8935 26.9624 64.9573C27.1189 65.021 27.2857 65.0531 27.4546 65.0518H74.8647C75.0328 65.0518 75.1997 65.0187 75.355 64.9543C75.5103 64.89 75.6512 64.7959 75.77 64.677C75.8889 64.5581 75.983 64.417 76.0474 64.2617C76.1117 64.1064 76.145 63.9398 76.145 63.7717V35.2419Z" fill="white"/>
<g clip-path="url(#clip0_1812_346)" filter="url(#filter0_ddddd_1812_346)">
<path d="M58.3267 41.2572L51.4 37.2572C50.8685 36.9506 50.2657 36.7892 49.652 36.7892C49.0384 36.7892 48.4356 36.9506 47.904 37.2572L40.9774 41.2572C40.4461 41.5644 40.005 42.0058 39.6982 42.5373C39.3914 43.0687 39.2297 43.6715 39.2294 44.2852V52.2852C39.2295 52.8991 39.391 53.5021 39.6979 54.0338C40.0047 54.5656 40.4459 55.0072 40.9774 55.3145L47.9107 59.3145C48.4423 59.6211 49.0451 59.7825 49.6587 59.7825C50.2723 59.7825 50.8752 59.6211 51.4067 59.3145L58.34 55.3145C58.8715 55.0072 59.3127 54.5656 59.6196 54.0338C59.9264 53.5021 60.0879 52.8991 60.088 52.2852V44.2852C60.0863 43.6702 59.9227 43.0666 59.6134 42.535C59.3042 42.0034 58.8604 41.5627 58.3267 41.2572V41.2572Z" fill="url(#paint7_linear_1812_346)"/>
<path d="M61.5454 47.1145L56.6747 44.3025C56.2476 44.0562 55.7631 43.9266 55.27 43.9266C54.777 43.9266 54.2925 44.0562 53.8654 44.3025L48.996 47.1145C48.5686 47.3604 48.2137 47.7147 47.9671 48.1418C47.7206 48.5688 47.5912 49.0534 47.592 49.5465V55.1705C47.592 55.6635 47.7217 56.1477 47.9682 56.5746C48.2147 57.0015 48.5691 57.3561 48.996 57.6025L53.8654 60.4145C54.2925 60.6608 54.777 60.7905 55.27 60.7905C55.7631 60.7905 56.2476 60.6608 56.6747 60.4145L61.5454 57.6025C61.9733 57.3567 62.329 57.0025 62.5767 56.5756C62.8243 56.1487 62.9551 55.6641 62.956 55.1705V49.5465C62.9553 49.053 62.8245 48.5683 62.5768 48.1414C62.3292 47.7144 61.9734 47.3603 61.5454 47.1145V47.1145Z" fill="url(#paint8_linear_1812_346)"/>
<path d="M49.1934 40.7412L50.5961 39.9652L56.6094 52.4279L56.1214 52.9612H42.8694L43.0187 51.3652H54.1934L49.1934 40.7412Z" fill="url(#paint9_linear_1812_346)"/>
<path d="M42.7321 54.2372C43.8366 54.2372 44.7321 53.3418 44.7321 52.2372C44.7321 51.1326 43.8366 50.2372 42.7321 50.2372C41.6275 50.2372 40.7321 51.1326 40.7321 52.2372C40.7321 53.3418 41.6275 54.2372 42.7321 54.2372Z" fill="white"/>
<path d="M55.2707 55.4839C56.9968 55.4839 58.3961 54.0846 58.3961 52.3585C58.3961 50.6325 56.9968 49.2332 55.2707 49.2332C53.5446 49.2332 52.1454 50.6325 52.1454 52.3585C52.1454 54.0846 53.5446 55.4839 55.2707 55.4839Z" fill="white"/>
<path d="M49.8107 42.2012C50.9152 42.2012 51.8107 41.3058 51.8107 40.2012C51.8107 39.0966 50.9152 38.2012 49.8107 38.2012C48.7061 38.2012 47.8107 39.0966 47.8107 40.2012C47.8107 41.3058 48.7061 42.2012 49.8107 42.2012Z" fill="white"/>
</g>
<defs>
<filter id="filter0_ddddd_1812_346" x="35.0894" y="36.7905" width="32" height="39" filterUnits="userSpaceOnUse" color-interpolation-filters="sRGB">
<feFlood flood-opacity="0" result="BackgroundImageFix"/>
<feColorMatrix in="SourceAlpha" type="matrix" values="0 0 0 0 0 0 0 0 0 0 0 0 0 0 0 0 0 0 127 0" result="hardAlpha"/>
<feOffset/>
<feColorMatrix type="matrix" values="0 0 0 0 0 0 0 0 0 0 0 0 0 0 0 0 0 0 0.1 0"/>
<feBlend mode="normal" in2="BackgroundImageFix" result="effect1_dropShadow_1812_346"/>
<feColorMatrix in="SourceAlpha" type="matrix" values="0 0 0 0 0 0 0 0 0 0 0 0 0 0 0 0 0 0 127 0" result="hardAlpha"/>
<feOffset dy="1"/>
<feGaussianBlur stdDeviation="0.5"/>
<feColorMatrix type="matrix" values="0 0 0 0 0 0 0 0 0 0 0 0 0 0 0 0 0 0 0.1 0"/>
<feBlend mode="normal" in2="effect1_dropShadow_1812_346" result="effect2_dropShadow_1812_346"/>
<feColorMatrix in="SourceAlpha" type="matrix" values="0 0 0 0 0 0 0 0 0 0 0 0 0 0 0 0 0 0 127 0" result="hardAlpha"/>
<feOffset dy="3"/>
<feGaussianBlur stdDeviation="1.5"/>
<feColorMatrix type="matrix" values="0 0 0 0 0 0 0 0 0 0 0 0 0 0 0 0 0 0 0.09 0"/>
<feBlend mode="normal" in2="effect2_dropShadow_1812_346" result="effect3_dropShadow_1812_346"/>
<feColorMatrix in="SourceAlpha" type="matrix" values="0 0 0 0 0 0 0 0 0 0 0 0 0 0 0 0 0 0 127 0" result="hardAlpha"/>
<feOffset dy="6"/>
<feGaussianBlur stdDeviation="2"/>
<feColorMatrix type="matrix" values="0 0 0 0 0 0 0 0 0 0 0 0 0 0 0 0 0 0 0.05 0"/>
<feBlend mode="normal" in2="effect3_dropShadow_1812_346" result="effect4_dropShadow_1812_346"/>
<feColorMatrix in="SourceAlpha" type="matrix" values="0 0 0 0 0 0 0 0 0 0 0 0 0 0 0 0 0 0 127 0" result="hardAlpha"/>
<feOffset dy="11"/>
<feGaussianBlur stdDeviation="2"/>
<feColorMatrix type="matrix" values="0 0 0 0 0 0 0 0 0 0 0 0 0 0 0 0 0 0 0.01 0"/>
<feBlend mode="normal" in2="effect4_dropShadow_1812_346" result="effect5_dropShadow_1812_346"/>
<feBlend mode="normal" in="SourceGraphic" in2="effect5_dropShadow_1812_346" result="shape"/>
</filter>
<linearGradient id="paint0_linear_1812_346" x1="25.3745" y1="9.49703" x2="100.281" y2="148.693" gradientUnits="userSpaceOnUse">
<stop offset="0.0001" stop-color="#50E6FF"/>
<stop offset="0.623265" stop-color="#0078D4"/>
</linearGradient>
<linearGradient id="paint1_linear_1812_346" x1="15.6761" y1="11.2231" x2="83.2186" y2="98.6208" gradientUnits="userSpaceOnUse">
<stop stop-color="#007ED8"/>
<stop offset="0.915361" stop-color="#002D4C"/>
</linearGradient>
<linearGradient id="paint2_linear_1812_346" x1="51.1049" y1="67.752" x2="51.1049" y2="31.1919" gradientUnits="userSpaceOnUse">
<stop stop-color="#D3E9F9"/>
<stop offset="1" stop-color="#F1F9F9"/>
</linearGradient>
<linearGradient id="paint3_linear_1812_346" x1="494829" y1="19475.6" x2="494829" y2="19464.2" gradientUnits="userSpaceOnUse">
<stop stop-color="#0799BE"/>
<stop offset="1" stop-color="#016E97"/>
</linearGradient>
<linearGradient id="paint4_linear_1812_346" x1="51.1049" y1="67.752" x2="51.1049" y2="31.1919" gradientUnits="userSpaceOnUse">
<stop stop-color="#D3E9F9"/>
<stop offset="1" stop-color="#F1F9F9"/>
</linearGradient>
<linearGradient id="paint5_linear_1812_346" x1="494911" y1="35112.3" x2="494911" y2="35091.6" gradientUnits="userSpaceOnUse">
<stop stop-color="#2E7BBF"/>
<stop offset="0.71" stop-color="#092D4C"/>
</linearGradient>
<linearGradient id="paint6_linear_1812_346" x1="494829" y1="19475.6" x2="494829" y2="19464.2" gradientUnits="userSpaceOnUse">
<stop stop-color="#2E7BBF"/>
<stop offset="0.71" stop-color="#092D4C"/>
</linearGradient>
<linearGradient id="paint7_linear_1812_346" x1="51.4374" y1="36.3052" x2="47.38" y2="63.5265" gradientUnits="userSpaceOnUse">
<stop stop-color="#32BEDD"/>
<stop offset="1" stop-color="#198AB3"/>
</linearGradient>
<linearGradient id="paint8_linear_1812_346" x1="53.4867" y1="46.6412" x2="58.344" y2="62.2119" gradientUnits="userSpaceOnUse">
<stop stop-color="#50E6FF"/>
<stop offset="0.997" stop-color="#32BEDD"/>
</linearGradient>
<linearGradient id="paint9_linear_1812_346" x1="38.8654" y1="42.2759" x2="55.8521" y2="51.3172" gradientUnits="userSpaceOnUse">
<stop stop-color="white"/>
<stop offset="1" stop-color="#9CEBFF"/>
</linearGradient>
<clipPath id="clip0_1812_346">
<rect width="24" height="24" fill="white" transform="translate(39.0894 36.7905)"/>
</clipPath>
</defs>
</svg>
