<svg width="100" height="100" viewBox="0 0 100 100" fill="none" xmlns="http://www.w3.org/2000/svg">
<g clip-path="url(#clip0_703_513)">
<path d="M49.6401 96.4499C40.382 96.4499 31.3317 93.7045 23.6339 88.561C15.936 83.4174 9.93624 76.1067 6.3933 67.5533C2.85036 58.9999 1.92337 49.588 3.72954 40.5077C5.53571 31.4275 9.99394 23.0867 16.5404 16.5402C23.0869 9.99372 31.4277 5.5355 40.5079 3.72933C49.5882 1.92315 59.0001 2.85015 67.5535 6.39308C76.1069 9.93602 83.4176 15.9358 88.5612 23.6336C93.7047 31.3315 96.4501 40.3817 96.4501 49.6399C96.4505 55.7872 95.24 61.8744 92.8878 67.5538C90.5355 73.2332 87.0875 78.3937 82.7407 82.7405C78.3939 87.0873 73.2335 90.5353 67.554 92.8876C61.8746 95.2398 55.7874 96.4503 49.6401 96.4499V96.4499Z" fill="url(#paint0_linear_703_513)"/>
<path fill-rule="evenodd" clip-rule="evenodd" d="M95.54 49.6399C95.54 58.718 92.848 67.5923 87.8045 75.1406C82.7609 82.6888 75.5923 88.5719 67.2052 92.046C58.818 95.52 49.5891 96.429 40.6854 94.6579C31.7816 92.8869 23.603 88.5153 17.1838 82.0961C10.7646 75.6769 6.39302 67.4983 4.62196 58.5945C2.85089 49.6908 3.75987 40.4618 7.23393 32.0747C10.708 23.6876 16.5911 16.519 24.1393 11.4754C31.6875 6.43187 40.5618 3.73988 49.64 3.73988C55.6677 3.73986 61.6363 4.92708 67.2052 7.23377C72.774 9.54045 77.834 12.9214 82.0963 17.1836C86.3585 21.4458 89.7394 26.5058 92.0461 32.0747C94.3528 37.6435 95.54 43.6122 95.54 49.6399V49.6399ZM49.64 -0.000106449C59.4579 -0.000106449 69.0552 2.91123 77.2185 8.36574C85.3818 13.8203 91.7442 21.573 95.5014 30.6435C99.2585 39.714 100.242 49.695 98.3262 59.3242C96.4108 68.9534 91.6831 77.7984 84.7408 84.7407C77.7985 91.683 68.9535 96.4107 59.3243 98.3261C49.6951 100.241 39.7141 99.2584 30.6436 95.5013C21.5731 91.7441 13.8204 85.3816 8.36584 77.2184C2.91133 69.0551 -1.61629e-06 59.4577 3.61524e-07 49.6399C-0.000786426 43.1208 1.28265 36.6655 3.77702 30.6425C6.27138 24.6196 9.92781 19.147 14.5375 14.5374C19.1471 9.9277 24.6197 6.27127 30.6427 3.77691C36.6656 1.28254 43.121 -0.000894549 49.64 -0.000106449V-0.000106449Z" fill="#F2F1F0"/>
<path fill-rule="evenodd" clip-rule="evenodd" d="M92.7296 49.64C92.7296 58.1624 90.2024 66.4934 85.4676 73.5795C80.7328 80.6656 74.0031 86.1886 66.1294 89.45C58.2557 92.7113 49.5918 93.5647 41.2331 91.902C32.8745 90.2394 25.1966 86.1355 19.1703 80.1092C13.1441 74.083 9.04017 66.4051 7.37753 58.0464C5.7149 49.6878 6.56822 41.0238 9.8296 33.1502C13.091 25.2765 18.6139 18.5468 25.7 13.812C32.7862 9.07718 41.1172 6.55 49.6396 6.55C55.2983 6.54965 60.9017 7.66397 66.1298 9.82933C71.3579 11.9947 76.1082 15.1687 80.1096 19.17C84.1109 23.1713 87.2849 27.9217 89.4502 33.1498C91.6156 38.3778 92.7299 43.9812 92.7296 49.64ZM49.6396 2.81C58.9017 2.81 67.9558 5.55653 75.6569 10.7023C83.3581 15.848 89.3604 23.1619 92.9049 31.7189C96.4493 40.276 97.3767 49.6919 95.5697 58.7761C93.7628 67.8602 89.3027 76.2045 82.7534 82.7538C76.2041 89.3031 67.8598 93.7632 58.7757 95.5702C49.6915 97.3771 40.2756 96.4497 31.7185 92.9053C23.1614 89.3608 15.8476 83.3585 10.7018 75.6574C5.5561 67.9562 2.80957 58.9021 2.80957 49.64C2.81076 37.2203 7.74501 25.3096 16.5271 16.5275C25.3091 7.74544 37.2198 2.81119 49.6396 2.81V2.81Z" fill="#0078D4"/>
<path fill-rule="evenodd" clip-rule="evenodd" d="M92.7296 49.6399C92.7296 58.1623 90.2024 66.4933 85.4676 73.5794C80.7328 80.6655 74.0031 86.1885 66.1294 89.4499C58.2557 92.7112 49.5918 93.5646 41.2331 91.9019C32.8745 90.2393 25.1966 86.1354 19.1703 80.1091C13.1441 74.0829 9.04017 66.405 7.37753 58.0463C5.7149 49.6877 6.56822 41.0237 9.8296 33.1501C13.091 25.2764 18.6139 18.5467 25.7001 13.8119C32.7862 9.07708 41.1172 6.5499 49.6396 6.5499C55.2983 6.54956 60.9017 7.66388 66.1298 9.82923C71.3579 11.9946 76.1082 15.1686 80.1096 19.1699C84.1109 23.1712 87.2849 27.9216 89.4502 33.1497C91.6156 38.3777 92.7299 43.9811 92.7296 49.6399V49.6399ZM49.6396 2.8099C58.9017 2.8099 67.9558 5.55643 75.6569 10.7022C83.3581 15.8479 89.3604 23.1618 92.9048 31.7188C96.4493 40.2759 97.3767 49.6918 95.5697 58.776C93.7628 67.8601 89.3027 76.2044 82.7534 82.7537C76.2041 89.303 67.8598 93.7631 58.7757 95.5701C49.6915 97.377 40.2756 96.4496 31.7185 92.9052C23.1614 89.3607 15.8476 83.3584 10.7018 75.6573C5.5561 67.9561 2.80957 58.902 2.80957 49.6399C2.81075 37.2202 7.74499 25.3095 16.5271 16.5274C25.3091 7.7453 37.2198 2.81105 49.6396 2.80986V2.8099Z" fill="#0078D4"/>
<path d="M73.3657 52.5495C73.2588 50.044 72.2745 47.6558 70.585 45.8026C68.8954 43.9494 66.6082 42.7491 64.1232 42.4117C63.9927 38.868 62.466 35.5199 59.8761 33.0977C57.2862 30.6755 53.8434 29.376 50.299 29.4827C47.4444 29.43 44.644 30.2658 42.2853 31.8744C39.9265 33.4831 38.1261 35.7851 37.133 38.4619C34.1181 38.8259 31.3337 40.2589 29.2851 42.5007C27.2366 44.7425 26.0598 47.6445 25.9683 50.6799C26.0986 54.0933 27.5771 57.3157 30.0797 59.6407C32.5824 61.9656 35.9048 63.2032 39.3186 63.0822H62.0957C62.2878 63.1096 62.4828 63.1096 62.675 63.0822C65.477 63.0624 68.161 61.9512 70.157 59.9846C72.1531 58.018 73.3041 55.3509 73.3657 52.5495V52.5495Z" fill="url(#paint1_linear_703_513)"/>
<path d="M50.6149 51.5224H48.561V67.8219H50.6149V51.5224Z" fill="#B3B3B3"/>
<path d="M49.5879 52.0754C52.6128 52.0754 55.0649 49.6232 55.0649 46.5984C55.0649 43.5735 52.6128 41.1213 49.5879 41.1213C46.563 41.1213 44.1108 43.5735 44.1108 46.5984C44.1108 49.6232 46.563 52.0754 49.5879 52.0754Z" fill="#F2F2F2"/>
<path d="M52.6426 66.4526H46.5336C45.4719 66.4526 44.6113 67.3132 44.6113 68.3749V74.4839C44.6113 75.5455 45.4719 76.4061 46.5336 76.4061H52.6426C53.7042 76.4061 54.5648 75.5455 54.5648 74.4839V68.3749C54.5648 67.3132 53.7042 66.4526 52.6426 66.4526Z" fill="url(#paint2_linear_703_513)"/>
<path d="M50.5579 30.1135L58.9587 38.5146C59.0636 38.6195 59.1882 38.7028 59.3253 38.7596C59.4624 38.8163 59.6093 38.8456 59.7577 38.8456C59.9061 38.8456 60.0531 38.8163 60.1902 38.7595C60.3273 38.7027 60.4519 38.6195 60.5568 38.5145C60.6617 38.4096 60.745 38.285 60.8017 38.1479C60.8585 38.0108 60.8877 37.8639 60.8877 37.7155C60.8877 37.5671 60.8585 37.4201 60.8017 37.283C60.7449 37.1459 60.6617 37.0214 60.5567 36.9164L40.2162 16.575C40.0043 16.3631 39.7169 16.244 39.4172 16.244C39.1175 16.2441 38.83 16.3631 38.6181 16.5751C38.4062 16.787 38.2872 17.0744 38.2872 17.3741C38.2872 17.6738 38.4062 17.9613 38.6182 18.1732L42.1176 21.6728C41.378 22.1668 40.6889 22.7325 40.0603 23.3618C39.4819 23.9486 38.9565 24.5853 38.4901 25.2646C38.405 25.3865 38.3447 25.524 38.3127 25.6692C38.2808 25.8145 38.2779 25.9646 38.3041 26.111C38.3303 26.2574 38.3851 26.3972 38.4655 26.5223C38.5458 26.6475 38.6501 26.7555 38.7723 26.8403C38.8945 26.9251 39.0322 26.9849 39.1775 27.0163C39.3229 27.0478 39.473 27.0502 39.6193 27.0235C39.7656 26.9968 39.9052 26.9415 40.0301 26.8607C40.155 26.7799 40.2627 26.6753 40.347 26.5528C40.7367 25.9845 41.1755 25.4515 41.6584 24.96C42.289 24.3285 42.9925 23.7744 43.7542 23.3095L45.0565 24.6118C43.5049 25.5055 42.247 26.8317 41.4365 28.4284C41.3695 28.5608 41.3293 28.7052 41.3181 28.8531C41.3068 29.0011 41.3249 29.1498 41.3712 29.2908C41.4174 29.4318 41.491 29.5623 41.5877 29.6749C41.6844 29.7875 41.8024 29.8799 41.9348 29.9468C42.0672 30.0138 42.2115 30.0541 42.3595 30.0653C42.5075 30.0765 42.6562 30.0585 42.7972 30.0122C42.9382 29.9659 43.0687 29.8923 43.1813 29.7956C43.2938 29.6989 43.3862 29.581 43.4532 29.4486C44.1601 28.0564 45.3154 26.943 46.7327 26.2881L48.3233 27.8787C47.4178 28.0817 46.5733 28.4966 45.8593 29.0893C45.1452 29.682 44.5818 30.4355 44.2154 31.2881C44.1559 31.4241 44.1238 31.5704 44.1208 31.7188C44.1179 31.8671 44.1442 32.0146 44.1983 32.1528C44.2523 32.291 44.3331 32.4172 44.4359 32.5242C44.5388 32.6312 44.6617 32.7169 44.7976 32.7764C44.9336 32.8358 45.0799 32.868 45.2283 32.8709C45.3766 32.8738 45.5241 32.8475 45.6623 32.7935C45.8005 32.7394 45.9267 32.6586 46.0337 32.5558C46.1407 32.453 46.2264 32.3301 46.2859 32.1941C46.628 31.391 47.2485 30.7383 48.0334 30.356C48.8182 29.9738 49.7147 29.8877 50.5579 30.1135L50.5579 30.1135ZM49.0525 23.4126L51.5704 25.9308C52.6879 26.2559 53.7049 26.8587 54.5266 27.683C55.0442 28.2092 55.4777 28.8119 55.8117 29.4701C55.8793 29.6022 55.9722 29.7197 56.0852 29.8159C56.1982 29.9121 56.3291 29.9851 56.4703 30.0308C56.6115 30.0764 56.7603 30.0938 56.9082 30.0819C57.0561 30.07 57.2002 30.0292 57.3324 29.9616C57.4645 29.894 57.582 29.8011 57.6782 29.6881C57.7744 29.5751 57.8474 29.4443 57.893 29.303C57.9387 29.1618 57.9561 29.013 57.9442 28.8651C57.9323 28.7172 57.8914 28.5731 57.8238 28.4409C57.3824 27.5726 56.8093 26.7778 56.1248 26.0848C55.2039 25.1619 54.0967 24.4461 52.8771 23.9853C51.6575 23.5245 50.3536 23.3292 49.0525 23.4126V23.4126ZM45.6438 20.0036L47.51 21.87C49.3016 21.5321 51.1486 21.637 52.8904 22.1755C54.6322 22.714 56.2161 23.6699 57.5044 24.96C57.9925 25.4519 58.4358 25.9864 58.8287 26.5572C58.913 26.6794 59.0205 26.7837 59.1452 26.8643C59.2698 26.9448 59.409 27.0001 59.555 27.0268C59.701 27.0536 59.8508 27.0513 59.9959 27.0202C60.141 26.989 60.2785 26.9296 60.4006 26.8453C60.5228 26.761 60.6271 26.6535 60.7077 26.5289C60.7882 26.4043 60.8435 26.265 60.8702 26.119C60.897 25.9731 60.8947 25.8233 60.8636 25.6782C60.8324 25.5331 60.773 25.3955 60.6887 25.2734C60.2182 24.5901 59.6873 23.9503 59.1024 23.3618C57.3751 21.6333 55.2099 20.4074 52.8389 19.8158C50.468 19.2242 47.9807 19.2892 45.6438 20.0036V20.0036ZM50.788 32.5635C51.0253 32.8007 51.1868 33.1029 51.2523 33.432C51.3178 33.761 51.2842 34.1021 51.1558 34.412C51.0274 34.722 50.81 34.9869 50.5311 35.1733C50.2521 35.3597 49.9242 35.4592 49.5887 35.4592C49.2532 35.4592 48.9252 35.3597 48.6463 35.1733C48.3673 34.9869 48.1499 34.722 48.0215 34.412C47.8932 34.1021 47.8596 33.761 47.925 33.432C47.9905 33.1029 48.1521 32.8007 48.3893 32.5635C48.7074 32.2454 49.1388 32.0667 49.5887 32.0667C50.0385 32.0667 50.4699 32.2454 50.788 32.5635V32.5635Z" fill="#F2F2F2"/>
</g>
<defs>
<linearGradient id="paint0_linear_703_513" x1="47.8698" y1="-15.1532" x2="51.8525" y2="130.615" gradientUnits="userSpaceOnUse">
<stop stop-color="#00ABDE"/>
<stop offset="1" stop-color="#007ED8"/>
</linearGradient>
<linearGradient id="paint1_linear_703_513" x1="49.667" y1="63.1028" x2="49.667" y2="29.4765" gradientUnits="userSpaceOnUse">
<stop stop-color="#198AB3"/>
<stop offset="0.44" stop-color="#28B7DB"/>
<stop offset="0.78" stop-color="#32D4F5"/>
</linearGradient>
<linearGradient id="paint2_linear_703_513" x1="49.5881" y1="76.4061" x2="49.5881" y2="66.4526" gradientUnits="userSpaceOnUse">
<stop stop-color="#28B7DB"/>
<stop offset="1" stop-color="#32D4F5"/>
</linearGradient>
<clipPath id="clip0_703_513">
<rect width="99.2799" height="99.28" fill="white"/>
</clipPath>
</defs>
</svg>
