<svg width="100" height="100" viewBox="0 0 100 100" fill="none" xmlns="http://www.w3.org/2000/svg">
<g clip-path="url(#clip0_404_1730)">
<path d="M49.81 96.4325C40.5519 96.4325 31.5016 93.6872 23.8038 88.5436C16.1059 83.4001 10.1062 76.0893 6.56322 67.5359C3.02028 58.9825 2.09329 49.5706 3.89946 40.4903C5.70564 31.4101 10.1639 23.0693 16.7104 16.5229C23.2568 9.97636 31.5976 5.51814 40.6778 3.71196C49.7581 1.90579 59.17 2.83278 67.7234 6.37572C76.2768 9.91866 83.5876 15.9184 88.7311 23.6163C93.8747 31.3141 96.62 40.3644 96.62 49.6225C96.6205 55.7698 95.41 61.857 93.0577 67.5364C90.7054 73.2159 87.2574 78.3763 82.9106 82.7231C78.5638 87.0699 73.4034 90.5179 67.7239 92.8702C62.0445 95.2225 55.9573 96.4329 49.81 96.4325V96.4325Z" fill="url(#paint0_linear_404_1730)"/>
<path fill-rule="evenodd" clip-rule="evenodd" d="M95.54 49.64C95.54 58.7182 92.848 67.5924 87.8045 75.1407C82.7609 82.6889 75.5923 88.572 67.2052 92.0461C58.818 95.5201 49.5891 96.4291 40.6854 94.658C31.7816 92.887 23.603 88.5154 17.1838 82.0962C10.7646 75.677 6.39302 67.4984 4.62196 58.5946C2.85089 49.6909 3.75987 40.462 7.23393 32.0748C10.708 23.6877 16.5911 16.5191 24.1393 11.4755C31.6875 6.43198 40.5618 3.73999 49.64 3.73999C55.6677 3.73997 61.6363 4.92719 67.2052 7.23387C72.774 9.54056 77.834 12.9215 82.0963 17.1837C86.3585 21.446 89.7394 26.5059 92.0461 32.0748C94.3528 37.6436 95.54 43.6123 95.54 49.64V49.64ZM49.64 3.62732e-07C59.4579 3.62732e-07 69.0552 2.91134 77.2185 8.36585C85.3818 13.8204 91.7442 21.5731 95.5014 30.6436C99.2585 39.7141 100.242 49.6951 98.3262 59.3243C96.4108 68.9535 91.6831 77.7985 84.7408 84.7408C77.7985 91.6831 68.9535 96.4108 59.3243 98.3262C49.6951 100.242 39.7141 99.2585 30.6436 95.5014C21.5731 91.7442 13.8204 85.3818 8.36584 77.2185C2.91133 69.0552 -1.61629e-06 59.4579 3.61524e-07 49.64C-0.000786426 43.1209 1.28265 36.6656 3.77702 30.6427C6.27138 24.6197 9.92781 19.1471 14.5375 14.5375C19.1471 9.9278 24.6197 6.27138 30.6427 3.77701C36.6656 1.28265 43.121 -0.000787738 49.64 3.62732e-07V3.62732e-07Z" fill="#F2F1F0"/>
<path fill-rule="evenodd" clip-rule="evenodd" d="M92.92 49.6425C92.92 58.1649 90.3928 66.4959 85.658 73.582C80.9232 80.6681 74.1935 86.1911 66.3198 89.4525C58.4462 92.7138 49.7822 93.5672 41.4236 91.9045C33.0649 90.2419 25.387 86.138 19.3608 80.1117C13.3345 74.0855 9.2306 66.4076 7.56796 58.0489C5.90533 49.6903 6.75865 41.0263 10.02 33.1527C13.2814 25.279 18.8044 18.5493 25.8905 13.8145C32.9766 9.07968 41.3076 6.5525 49.83 6.5525C55.4888 6.55216 61.0922 7.66648 66.3202 9.83183C71.5483 11.9972 76.2987 15.1712 80.3 19.1725C84.3013 23.1738 87.4753 27.9242 89.6407 33.1523C91.806 38.3803 92.9203 43.9837 92.92 49.6425ZM49.83 2.8125C59.0921 2.8125 68.1462 5.55903 75.8474 10.7048C83.5485 15.8505 89.5508 23.1644 93.0953 31.7214C96.6397 40.2785 97.5671 49.6944 95.7602 58.7786C93.9532 67.8627 89.4931 76.207 82.9438 82.7563C76.3945 89.3056 68.0502 93.7657 58.9661 95.5727C49.8819 97.3796 40.466 96.4522 31.9089 92.9078C23.3519 89.3633 16.038 83.361 10.8923 75.6599C5.74653 67.9587 3 58.9046 3 49.6425C3.00119 37.2228 7.93544 25.3121 16.7175 16.53C25.4996 7.74794 37.4103 2.81369 49.83 2.8125V2.8125Z" fill="#0078D4"/>
<path fill-rule="evenodd" clip-rule="evenodd" d="M92.92 49.6425C92.92 58.1649 90.3928 66.4959 85.658 73.5821C80.9232 80.6682 74.1935 86.1911 66.3198 89.4525C58.4462 92.7139 49.7822 93.5672 41.4236 91.9046C33.0649 90.2419 25.387 86.138 19.3608 80.1118C13.3345 74.0855 9.2306 66.4076 7.56796 58.049C5.90533 49.6903 6.75865 41.0264 10.02 33.1527C13.2814 25.279 18.8044 18.5493 25.8905 13.8145C32.9766 9.07972 41.3076 6.55254 49.83 6.55254C55.4888 6.5522 61.0922 7.66652 66.3202 9.83187C71.5483 11.9972 76.2987 15.1712 80.3 19.1725C84.3013 23.1739 87.4753 27.9242 89.6407 33.1523C91.806 38.3804 92.9203 43.9838 92.92 49.6425V49.6425ZM49.83 2.81254C59.0921 2.81254 68.1462 5.55907 75.8474 10.7048C83.5485 15.8506 89.5508 23.1644 93.0953 31.7215C96.6397 40.2785 97.5671 49.6945 95.7602 58.7786C93.9532 67.8627 89.4931 76.2071 82.9438 82.7563C76.3945 89.3056 68.0502 93.7658 58.9661 95.5727C49.8819 97.3797 40.466 96.4523 31.9089 92.9078C23.3519 89.3634 16.038 83.3611 10.8923 75.6599C5.74653 67.9587 3 58.9046 3 49.6425C3.00118 37.2228 7.93542 25.3121 16.7175 16.53C25.4996 7.74794 37.4103 2.81369 49.83 2.8125V2.81254Z" fill="#0078D4"/>
<path d="M17 55.1875C17.3501 58.2733 18.5273 61.2072 20.4072 63.6791C22.2871 66.1511 24.7998 68.0693 27.6799 69.231C27.7061 68.5217 27.8519 67.8219 28.1112 67.1611C25.7302 66.1394 23.6563 64.5152 22.0936 62.4484C20.531 60.3817 19.5334 57.9437 19.1992 55.3743C18.4633 55.5227 17.7003 55.4578 17 55.1875V55.1875Z" fill="#0078D4"/>
<path d="M47.0594 60.0625C45.9695 62.1765 44.403 64.0081 42.4836 65.4127C40.5643 66.8172 38.3446 67.7563 36 68.1557C36.1957 68.7282 36.2643 69.3364 36.2012 69.9381L36.1581 70.24C38.5949 69.8723 40.9245 68.9862 42.9898 67.6415C45.055 66.2968 46.8079 64.5248 48.1301 62.4451C47.695 61.584 47.3458 60.7898 47.0594 60.0625Z" fill="#0078D4"/>
<path d="M39.9169 37.4375C39.8957 38.1507 39.7548 38.8553 39.5 39.5218C41.8787 40.5409 43.9505 42.1628 45.5108 44.2274C47.0712 46.2919 48.0661 48.7277 48.3974 51.2942C48.7909 51.2212 49.1929 51.2067 49.5906 51.251C49.9346 51.2833 50.2729 51.3606 50.5968 51.481C50.2467 48.3952 49.0695 45.4614 47.1896 42.9894C45.3097 40.5175 42.7969 38.5993 39.9169 37.4375Z" fill="#0078D4"/>
<path d="M18 46.4081C18.7462 46.4136 19.4857 46.5498 20.1849 46.8106C20.9126 45.2848 21.8889 43.8907 23.074 42.6852C25.2973 40.4405 28.1766 38.9606 31.296 38.4593C31.1064 37.8854 31.0379 37.2785 31.0948 36.6768L31.1379 36.375C28.2803 36.8055 25.5777 37.9509 23.2809 39.7049C20.9842 41.4589 19.1677 43.7646 18 46.4081V46.4081Z" fill="#0078D4"/>
<path d="M49.5346 60.2674C49.5462 60.2416 49.5598 60.2173 49.5712 60.1915C49.5473 60.1923 49.5239 60.187 49.5 60.1875L49.5346 60.2674Z" fill="#0078D4"/>
<path d="M76.2219 65.0054C73.9995 67.2512 71.1198 68.7313 68 69.2314C68.1957 69.8038 68.2643 70.4121 68.2012 71.0138L68.1581 71.3156C71.0265 70.8841 73.7396 69.7357 76.0462 67.9769C78.3528 66.2181 80.1782 63.9057 81.3535 61.2538C80.6124 61.2765 79.873 61.1694 79.1687 60.9375C78.4264 62.4521 77.4297 63.828 76.2219 65.0054V65.0054Z" fill="#0078D4"/>
<path d="M49.6736 47.4797C49.619 47.4649 49.5665 47.4519 49.5124 47.4375L49.5 47.4633C49.5584 47.4637 49.6153 47.4778 49.6736 47.4797Z" fill="#0078D4"/>
<path d="M48.5 56.1875C48.8501 59.2733 50.0272 62.2072 51.9071 64.6792C53.787 67.1511 56.2998 69.0693 59.1799 70.231C59.2061 69.5217 59.3519 68.8219 59.6112 68.1611C57.2302 67.1393 55.1563 65.5152 53.5937 63.4485C52.031 61.3818 51.0335 58.9438 50.6992 56.3745C49.9633 56.5228 49.2003 56.4579 48.5 56.1875V56.1875Z" fill="#0078D4"/>
<path d="M50.5 45.62C51.1679 45.8087 51.8772 46.0391 52.6101 46.2979C53.1858 45.3789 53.858 44.524 54.6152 43.7478C56.8386 41.503 59.7179 40.0231 62.8372 39.5217C62.6477 38.9479 62.5791 38.3411 62.636 37.7394L62.6791 37.4375C60.1703 37.8159 57.7767 38.7461 55.6707 40.161C53.5646 41.5759 51.7987 43.4404 50.5 45.62V45.62Z" fill="#0078D4"/>
<path d="M71.9169 38.5C71.8957 39.2132 71.7548 39.9178 71.5 40.5843C73.8787 41.6034 75.9505 43.2253 77.5109 45.2898C79.0713 47.3543 80.0663 49.79 80.3976 52.3566C80.791 52.2836 81.193 52.2691 81.5906 52.3136C81.9346 52.3458 82.2729 52.4231 82.5968 52.5436C82.2467 49.4578 81.0696 46.5239 79.1897 44.0519C77.3098 41.5799 74.797 39.6617 71.9169 38.5V38.5Z" fill="#0078D4"/>
<path d="M38.2471 36.9904C38.2487 37.8306 38.0011 38.6525 37.5356 39.3521C37.0701 40.0517 36.4076 40.5975 35.6319 40.9206C34.8562 41.2436 34.0022 41.3294 33.1777 41.1671C32.3532 41.0047 31.5955 40.6016 31.0001 40.0085C30.4048 39.4155 29.9987 38.6593 29.8332 37.8354C29.6677 37.0116 29.7502 36.1572 30.0702 35.3803C30.3903 34.6033 30.9336 33.9388 31.6313 33.4706C32.3291 33.0024 33.15 32.7516 33.9903 32.75C33.9958 32.75 34.0013 32.75 34.0067 32.75C35.1307 32.7522 36.208 33.1996 37.0027 33.9944C37.7975 34.7891 38.2449 35.8664 38.2471 36.9904Z" fill="#32BEDD"/>
<path d="M18.3127 48.563C19.4338 48.5799 20.5028 49.0393 21.2866 49.8411C22.0704 50.6428 22.5055 51.7219 22.497 52.8431C22.4885 53.9643 22.0372 55.0367 21.2414 55.8266C20.4456 56.6164 19.3698 57.0596 18.2486 57.0596C17.1273 57.0596 16.0516 56.6164 15.2557 55.8266C14.4599 55.0367 14.0086 53.9643 14.0001 52.8431C13.9917 51.7219 14.4267 50.6428 15.2105 49.8411C15.9943 49.0393 17.0633 48.5799 18.1844 48.563C18.2272 48.5623 18.2699 48.5623 18.3127 48.563Z" fill="#32BEDD"/>
<path d="M20.126 52.8349C20.1398 52.296 19.939 51.7736 19.5677 51.3827C19.1963 50.9918 18.685 50.7645 18.146 50.7507C18.1113 50.7498 18.0765 50.7498 18.0418 50.7507C17.5027 50.7485 16.9847 50.9605 16.602 51.3402C16.2192 51.7198 16.0029 52.236 16.0007 52.7751C16.0007 52.7807 16.0007 52.7862 16.0007 52.7918C15.9868 53.3307 16.1877 53.8531 16.559 54.244C16.9303 54.6348 17.4417 54.8622 17.9807 54.876C18.0154 54.8769 18.0501 54.8769 18.0849 54.876C18.6239 54.886 19.1448 54.6813 19.533 54.3072C19.9212 53.9331 20.1448 53.4201 20.1548 52.881C20.1552 52.8561 20.1552 52.8312 20.1548 52.8062" fill="white"/>
<path d="M33.9807 35.0006C33.5832 35.0108 33.1974 35.1374 32.8711 35.3646C32.5449 35.5918 32.2924 35.9097 32.1449 36.279C31.9975 36.6483 31.9616 37.0527 32.0416 37.4421C32.1217 37.8316 32.3142 38.189 32.5954 38.4702C32.8765 38.7513 33.234 38.9439 33.6234 39.0239C34.0129 39.104 34.4173 39.0681 34.7866 38.9207C35.1558 38.7732 35.4738 38.5207 35.701 38.1944C35.9282 37.8682 36.0547 37.4824 36.0649 37.0849V37.0849C36.0788 36.546 35.8779 36.0236 35.5066 35.6327C35.1353 35.2419 34.6239 35.0145 34.0849 35.0007C34.0502 34.9998 34.0155 34.9998 33.9807 35.0007" fill="white"/>
<path d="M49.6844 58.1216C48.5633 58.1047 47.4943 57.6453 46.7105 56.8435C45.9267 56.0418 45.4917 54.9627 45.5001 53.8415C45.5086 52.7203 45.9599 51.6479 46.7557 50.8581C47.5516 50.0682 48.6273 49.625 49.7486 49.625C50.8698 49.625 51.9456 50.0682 52.7414 50.8581C53.5372 51.6479 53.9885 52.7203 53.997 53.8415C54.0055 54.9627 53.5704 56.0418 52.7866 56.8435C52.0028 57.6453 50.9338 58.1047 49.8127 58.1216C49.7699 58.1223 49.7272 58.1223 49.6844 58.1216Z" fill="#32BEDD"/>
<path d="M47.5007 53.8205C47.4868 54.3594 47.6877 54.8818 48.059 55.2727C48.4303 55.6636 48.9417 55.8909 49.4807 55.9047C49.5154 55.9056 49.5501 55.9056 49.5849 55.9047C50.1239 55.9147 50.6448 55.7101 51.033 55.3359C51.4212 54.9618 51.6448 54.4488 51.6547 53.9097C51.6552 53.8848 51.6552 53.8599 51.6547 53.8349C51.6686 53.296 51.4677 52.7736 51.0964 52.3827C50.7251 51.9919 50.2137 51.7645 49.6747 51.7507C49.64 51.7498 49.6053 51.7498 49.5705 51.7507C49.3036 51.7458 49.0384 51.7935 48.7899 51.8911C48.5414 51.9887 48.3146 52.1342 48.1224 52.3195C47.9302 52.5048 47.7764 52.7261 47.6697 52.9708C47.563 53.2155 47.5056 53.4788 47.5007 53.7457C47.5002 53.7707 47.5002 53.7956 47.5007 53.8205" fill="white"/>
<path d="M37.9971 69.6154C37.9987 70.4556 37.7511 71.2775 37.2857 71.9771C36.8202 72.6767 36.1577 73.2225 35.382 73.5456C34.6063 73.8686 33.7522 73.9544 32.9277 73.7921C32.1033 73.6297 31.3455 73.2266 30.7502 72.6335C30.1549 72.0405 29.7488 71.2843 29.5832 70.4604C29.4177 69.6366 29.5002 68.7822 29.8203 68.0053C30.1403 67.2283 30.6836 66.5638 31.3814 66.0956C32.0791 65.6274 32.9001 65.3766 33.7404 65.375C33.7458 65.375 33.7513 65.375 33.7568 65.375C34.8807 65.3772 35.958 65.8246 36.7527 66.6194C37.5475 67.4141 37.9949 68.4914 37.9971 69.6154V69.6154Z" fill="#32BEDD"/>
<path d="M33.5849 71.6899C33.9824 71.6797 34.3682 71.5532 34.6945 71.326C35.0207 71.0988 35.2732 70.7809 35.4207 70.4116C35.5681 70.0423 35.604 69.6379 35.524 69.2485C35.4439 68.859 35.2514 68.5016 34.9702 68.2204C34.6891 67.9392 34.3316 67.7467 33.9422 67.6666C33.5527 67.5866 33.1483 67.6225 32.779 67.7699C32.4098 67.9174 32.0918 68.1699 31.8646 68.4962C31.6374 68.8225 31.5109 69.2082 31.5007 69.6057V69.6057C31.4868 70.1447 31.6877 70.667 32.059 71.0579C32.4303 71.4488 32.9417 71.6761 33.4807 71.6899C33.5154 71.6908 33.5501 71.6908 33.5849 71.6899" fill="white"/>
<path d="M49.8127 49.6255C50.9338 49.6424 52.0028 50.1018 52.7866 50.9036C53.5704 51.7053 54.0055 52.7844 53.997 53.9056C53.9885 55.0268 53.5372 56.0992 52.7414 56.8891C51.9456 57.6789 50.8698 58.1221 49.7486 58.1221C48.6273 58.1221 47.5516 57.6789 46.7557 56.8891C45.9599 56.0992 45.5086 55.0268 45.5001 53.9056C45.4917 52.7844 45.9267 51.7053 46.7105 50.9036C47.4943 50.1018 48.5633 49.6424 49.6844 49.6255C49.7272 49.6248 49.7699 49.6248 49.8127 49.6255Z" fill="#32BEDD"/>
<path d="M51.626 53.8349C51.6398 53.296 51.439 52.7736 51.0677 52.3827C50.6963 51.9919 50.1849 51.7645 49.646 51.7507C49.6113 51.7498 49.5765 51.7498 49.5418 51.7507C49.2748 51.7496 49.0103 51.8011 48.7632 51.9022C48.5162 52.0034 48.2915 52.1522 48.1019 52.3402C47.9124 52.5282 47.7618 52.7516 47.6586 52.9978C47.5554 53.2441 47.5018 53.5082 47.5007 53.7751C47.5007 53.7807 47.5007 53.7862 47.5007 53.7918C47.4868 54.3307 47.6877 54.8531 48.059 55.244C48.4303 55.6349 48.9417 55.8622 49.4807 55.876C49.5154 55.8769 49.5501 55.8769 49.5849 55.876C50.1239 55.886 50.6448 55.6813 51.033 55.3072C51.4212 54.9331 51.6448 54.4201 51.6548 53.881C51.6552 53.8561 51.6552 53.8312 51.6548 53.8062" fill="white"/>
<path d="M61 38.1219C61.0126 37.2872 61.2709 36.4747 61.7425 35.7858C62.2141 35.097 62.8782 34.5624 63.6519 34.2487C64.4256 33.9351 65.2745 33.8563 66.0927 34.0223C66.9108 34.1883 67.662 34.5916 68.2523 35.1819C68.8426 35.7722 69.2459 36.5233 69.4118 37.3415C69.5778 38.1596 69.499 39.0086 69.1854 39.7822C68.8718 40.5559 68.3371 41.22 67.6483 41.6917C66.9595 42.1633 66.147 42.4215 65.3122 42.4341C64.1883 42.432 63.111 41.9845 62.3162 41.1898C61.5215 40.395 61.0741 39.3177 61.0719 38.1938L61 38.1219Z" fill="#32BEDD"/>
<path d="M65.4807 36.0007C65.0832 36.0109 64.6974 36.1374 64.3712 36.3646C64.0449 36.5918 63.7924 36.9097 63.6449 37.279C63.4975 37.6483 63.4616 38.0527 63.5416 38.4421C63.6217 38.8316 63.8142 39.1891 64.0954 39.4702C64.3766 39.7514 64.734 39.9439 65.1234 40.024C65.5129 40.104 65.9173 40.0681 66.2866 39.9207C66.6558 39.7732 66.9738 39.5207 67.201 39.1944C67.4282 38.8682 67.5547 38.4824 67.5649 38.0849C67.5788 37.546 67.3779 37.0236 67.0066 36.6327C66.6353 36.2418 66.1239 36.0145 65.5849 36.0007C65.5502 35.9998 65.5155 35.9998 65.4807 36.0007" fill="white"/>
<path d="M81.1844 59.1216C80.0633 59.1047 78.9943 58.6453 78.2105 57.8435C77.4267 57.0418 76.9917 55.9627 77.0001 54.8415C77.0086 53.7203 77.4599 52.6479 78.2557 51.8581C79.0516 51.0682 80.1273 50.625 81.2486 50.625C82.3698 50.625 83.4456 51.0682 84.2414 51.8581C85.0372 52.6479 85.4885 53.7203 85.497 54.8415C85.5055 55.9627 85.0704 57.0418 84.2866 57.8435C83.5028 58.6453 82.4338 59.1047 81.3127 59.1216C81.27 59.1223 81.2272 59.1223 81.1844 59.1216Z" fill="#32BEDD"/>
<path d="M79.0007 54.883C78.9868 55.4219 79.1877 55.9443 79.559 56.3352C79.9303 56.726 80.4417 56.9534 80.9807 56.9672C81.0154 56.9681 81.0501 56.9681 81.0849 56.9672C81.6239 56.9771 82.1448 56.7725 82.533 56.3984C82.9212 56.0243 83.1448 55.5113 83.1548 54.9722C83.1552 54.9473 83.1552 54.9223 83.1548 54.8974C83.1686 54.3585 82.9677 53.8361 82.5964 53.4452C82.2251 53.0543 81.7137 52.827 81.1748 52.8132C81.14 52.8123 81.1053 52.8123 81.0705 52.8132C80.5315 52.8032 80.0106 53.0079 79.6224 53.382C79.2343 53.7561 79.0106 54.2691 79.0007 54.8082C79.0002 54.8331 79.0002 54.858 79.0007 54.883Z" fill="white"/>
<path d="M69.4971 70.6154C69.4987 71.4556 69.2511 72.2775 68.7857 72.9771C68.3202 73.6767 67.6577 74.2225 66.882 74.5456C66.1063 74.8686 65.2522 74.9544 64.4277 74.7921C63.6033 74.6297 62.8455 74.2265 62.2502 73.6335C61.6549 73.0405 61.2488 72.2843 61.0832 71.4604C60.9177 70.6366 61.0002 69.7822 61.3203 69.0053C61.6403 68.2283 62.1836 67.5637 62.8814 67.0956C63.5792 66.6274 64.4001 66.3766 65.2404 66.375C65.2458 66.375 65.2513 66.375 65.2568 66.375C66.3807 66.3772 67.458 66.8246 68.2528 67.6194C69.0475 68.4141 69.4949 69.4914 69.4971 70.6154Z" fill="#32BEDD"/>
<path d="M65.5849 72.6899C65.9824 72.6797 66.3682 72.5532 66.6945 72.326C67.0207 72.0988 67.2732 71.7808 67.4207 71.4116C67.5681 71.0423 67.604 70.6379 67.524 70.2484C67.4439 69.859 67.2514 69.5015 66.9702 69.2204C66.689 68.9392 66.3316 68.7467 65.9421 68.6666C65.5527 68.5866 65.1483 68.6225 64.779 68.7699C64.4098 68.9174 64.0918 69.1699 63.8646 69.4962C63.6374 69.8225 63.5109 70.2082 63.5007 70.6057V70.6057C63.4868 71.1446 63.6877 71.667 64.059 72.0579C64.4303 72.4488 64.9417 72.6761 65.4807 72.6899C65.5154 72.6908 65.5501 72.6908 65.5849 72.6899" fill="white"/>
<path d="M56.8952 18.6721C56.8949 19.0414 56.8123 19.4061 56.6534 19.7395C56.4945 20.073 56.2633 20.3668 55.9767 20.5998C55.69 20.8327 55.3551 20.9989 54.9962 21.0862C54.6373 21.1735 54.2635 21.1797 53.9018 21.1045L52.63 23.2088C53.0352 23.5807 53.3586 24.0329 53.5796 24.5365C53.8006 25.0402 53.9143 25.5843 53.9137 26.1343L53.9133 26.1921L55.2017 26.4513C55.482 25.928 55.9405 25.5223 56.494 25.3077C57.0476 25.0931 57.6597 25.0837 58.2196 25.2814C58.7794 25.4791 59.25 25.8707 59.5461 26.3853C59.8422 26.8999 59.9443 27.5035 59.8339 28.0868C59.7235 28.6702 59.4078 29.1947 58.9441 29.5655C58.4804 29.9363 57.8993 30.1288 57.3059 30.1081C56.7126 30.0875 56.1462 29.8551 55.7093 29.453C55.2725 29.051 54.9941 28.5058 54.9244 27.9161L53.6136 27.6524C53.271 28.4786 52.6607 29.1658 51.8807 29.6036L52.3727 31.1061L52.4229 31.1056C53.0143 31.1056 53.5862 31.3167 54.0359 31.7007C54.4856 32.0847 54.7835 32.6166 54.8762 33.2007C54.9688 33.7847 54.8501 34.3827 54.5413 34.887C54.2325 35.3914 53.7539 35.769 53.1916 35.952C52.6293 36.1351 52.0201 36.1115 51.4736 35.8856C50.9271 35.6597 50.4791 35.2463 50.2101 34.7196C49.9412 34.1929 49.8689 33.5876 50.0064 33.0124C50.1438 32.4373 50.4819 31.93 50.9599 31.5818L50.4664 30.0749C49.7601 30.1688 49.0415 30.0716 48.3856 29.7932C47.7297 29.5148 47.1605 29.0655 46.7374 28.4922L44.9538 29.3347C44.964 29.4271 44.9692 29.5199 44.9691 29.6127C44.9691 30.1944 44.7651 30.7576 44.3925 31.2042C44.02 31.6508 43.5025 31.9526 42.9303 32.057C42.3582 32.1613 41.7675 32.0616 41.2613 31.7753C40.755 31.4889 40.3653 31.034 40.16 30.4898C39.9546 29.9457 39.9467 29.3467 40.1376 28.7973C40.3285 28.2479 40.7061 27.7829 41.2046 27.4832C41.7031 27.1836 42.2909 27.0683 42.8657 27.1576C43.4404 27.2468 43.9656 27.5348 44.3498 27.9714L46.0933 27.1477C45.9332 26.5374 45.9204 25.8978 46.0559 25.2816C46.1914 24.6654 46.4714 24.0901 46.8727 23.6033L45.8871 22.4808C45.3354 22.7003 44.7234 22.715 44.1618 22.5222C43.6002 22.3295 43.1262 21.9421 42.8256 21.4301C42.5249 20.9182 42.4175 20.3155 42.5227 19.7312C42.6279 19.1469 42.9389 18.6195 43.3993 18.2446C43.8596 17.8697 44.439 17.672 45.0325 17.6873C45.6261 17.7026 46.1945 17.9299 46.635 18.328C47.0754 18.7261 47.3588 19.2688 47.4338 19.8577C47.5088 20.4467 47.3705 21.043 47.0438 21.5388L48.0206 22.6512C48.5278 22.3727 49.0896 22.2078 49.6669 22.1683C50.2442 22.1287 50.8232 22.2153 51.3636 22.4221L52.6011 20.3747C52.3233 20.0794 52.122 19.7207 52.0147 19.3298C51.9074 18.9388 51.8973 18.5276 51.9855 18.1319C52.0736 17.7362 52.2572 17.3681 52.5203 17.0596C52.7834 16.7512 53.118 16.5119 53.4948 16.3624C53.8717 16.213 54.2794 16.1581 54.6823 16.2024C55.0853 16.2467 55.4713 16.389 55.8066 16.6168C56.142 16.8446 56.4165 17.1509 56.6062 17.5092C56.796 17.8674 56.8952 18.2667 56.8952 18.6721V18.6721ZM55.4044 18.6721C55.4044 18.4755 55.3461 18.2833 55.2369 18.1199C55.1277 17.9565 54.9725 17.8291 54.7909 17.7539C54.6093 17.6786 54.4095 17.659 54.2167 17.6973C54.0239 17.7357 53.8468 17.8303 53.7078 17.9693C53.5688 18.1083 53.4742 18.2854 53.4358 18.4782C53.3975 18.671 53.4172 18.8708 53.4924 19.0524C53.5676 19.234 53.695 19.3892 53.8584 19.4984C54.0219 19.6076 54.214 19.6659 54.4106 19.6659C54.5411 19.6659 54.6703 19.6402 54.7909 19.5902C54.9115 19.5403 55.0211 19.4671 55.1133 19.3748C55.2056 19.2825 55.2788 19.173 55.3288 19.0524C55.3787 18.9318 55.4044 18.8026 55.4044 18.6721V18.6721ZM44.9692 21.1651C45.1657 21.1651 45.3579 21.1069 45.5213 20.9976C45.6848 20.8884 45.8121 20.7332 45.8874 20.5516C45.9626 20.37 45.9823 20.1702 45.9439 19.9774C45.9056 19.7846 45.8109 19.6075 45.6719 19.4685C45.5329 19.3296 45.3559 19.2349 45.1631 19.1966C44.9703 19.1582 44.7705 19.1779 44.5889 19.2531C44.4073 19.3283 44.252 19.4557 44.1428 19.6191C44.0336 19.7826 43.9753 19.9747 43.9753 20.1713C43.9753 20.4349 44.08 20.6877 44.2664 20.874C44.4528 21.0604 44.7056 21.1651 44.9692 21.1651V21.1651ZM49.9383 28.6189C50.4297 28.6189 50.9101 28.4732 51.3187 28.2002C51.7273 27.9272 52.0458 27.5391 52.2338 27.0851C52.4219 26.6311 52.4711 26.1315 52.3752 25.6496C52.2793 25.1676 52.0427 24.7249 51.6952 24.3774C51.3477 24.0299 50.905 23.7933 50.4231 23.6974C49.9411 23.6016 49.4415 23.6508 48.9875 23.8388C48.5335 24.0269 48.1455 24.3453 47.8725 24.7539C47.5995 25.1625 47.4538 25.6429 47.4538 26.1343C47.4538 26.7933 47.7155 27.4252 48.1815 27.8912C48.6474 28.3571 49.2794 28.6189 49.9383 28.6189ZM43.4784 29.6127C43.4784 29.4162 43.4201 29.224 43.3109 29.0606C43.2017 28.8971 43.0465 28.7698 42.8649 28.6945C42.6833 28.6193 42.4835 28.5996 42.2907 28.638C42.0979 28.6763 41.9208 28.771 41.7818 28.91C41.6429 29.049 41.5482 29.2261 41.5099 29.4188C41.4715 29.6116 41.4912 29.8115 41.5664 29.993C41.6416 30.1746 41.769 30.3299 41.9324 30.4391C42.0959 30.5483 42.288 30.6066 42.4846 30.6066C42.6151 30.6066 42.7443 30.5808 42.8649 30.5309C42.9855 30.481 43.095 30.4078 43.1873 30.3155C43.2796 30.2232 43.3528 30.1136 43.4028 29.993C43.4527 29.8725 43.4784 29.7432 43.4784 29.6127V29.6127ZM53.4168 33.5901C53.4168 33.3936 53.3585 33.2014 53.2493 33.038C53.1401 32.8746 52.9848 32.7472 52.8033 32.672C52.6217 32.5967 52.4218 32.5771 52.229 32.6154C52.0363 32.6538 51.8592 32.7484 51.7202 32.8874C51.5812 33.0264 51.4865 33.2035 51.4482 33.3963C51.4098 33.589 51.4295 33.7889 51.5048 33.9705C51.58 34.1521 51.7074 34.3073 51.8708 34.4165C52.0342 34.5257 52.2264 34.584 52.4229 34.584C52.6865 34.584 52.9393 34.4793 53.1257 34.2929C53.312 34.1065 53.4167 33.8537 53.4168 33.5901V33.5901ZM57.3921 28.6189C57.5887 28.6189 57.7808 28.5606 57.9443 28.4514C58.1077 28.3422 58.2351 28.187 58.3103 28.0054C58.3855 27.8238 58.4052 27.6239 58.3669 27.4312C58.3285 27.2384 58.2339 27.0613 58.0949 26.9223C57.9559 26.7833 57.7788 26.6887 57.586 26.6503C57.3932 26.612 57.1934 26.6316 57.0118 26.7069C56.8302 26.7821 56.675 26.9095 56.5658 27.0729C56.4566 27.2363 56.3983 27.4285 56.3983 27.6251C56.3983 27.7556 56.424 27.8848 56.4739 28.0054C56.5239 28.126 56.5971 28.2355 56.6893 28.3278C56.7816 28.4201 56.8912 28.4933 57.0118 28.5432C57.1324 28.5932 57.2616 28.6189 57.3921 28.6189V28.6189Z" fill="#C3F1FF"/>
<path fill-rule="evenodd" clip-rule="evenodd" d="M68.4487 51.5576C68.2916 51.4007 68.0787 51.3125 67.8566 51.3125C67.6346 51.3125 67.4216 51.4007 67.2646 51.5576L64.5045 54.3157L63.5075 53.3283C63.4842 53.2937 63.4579 53.2612 63.4288 53.2313C63.2728 53.075 63.0614 52.9866 62.8405 52.9856C62.6197 52.9846 62.4074 53.0709 62.25 53.2257C62.0925 53.3806 62.0027 53.5914 62.0001 53.8122C61.9974 54.033 62.0822 54.2459 62.2359 54.4045L62.2259 54.4145L63.915 56.0881C64.0721 56.245 64.2851 56.3331 64.5072 56.3331C64.7293 56.3331 64.9423 56.245 65.0995 56.0881L68.4462 52.7429L68.4487 52.7409C68.5264 52.6632 68.5881 52.571 68.6302 52.4695C68.6723 52.368 68.6939 52.2591 68.6939 52.1493C68.6939 52.0394 68.6723 51.9306 68.6302 51.829C68.5881 51.7275 68.5264 51.6353 68.4487 51.5576V51.5576Z" fill="white"/>
<path d="M30.5455 54.9035C31.1229 54.9035 31.591 54.4354 31.591 53.858C31.591 53.2806 31.1229 52.8125 30.5455 52.8125C29.9681 52.8125 29.5 53.2806 29.5 53.858C29.5 54.4354 29.9681 54.9035 30.5455 54.9035Z" fill="#0078D4"/>
<path d="M34.0455 54.9035C34.6229 54.9035 35.091 54.4354 35.091 53.858C35.091 53.2806 34.6229 52.8125 34.0455 52.8125C33.4681 52.8125 33 53.2806 33 53.858C33 54.4354 33.4681 54.9035 34.0455 54.9035Z" fill="#0078D4"/>
<path d="M37.0455 54.9035C37.6229 54.9035 38.091 54.4354 38.091 53.858C38.091 53.2806 37.6229 52.8125 37.0455 52.8125C36.4681 52.8125 36 53.2806 36 53.858C36 54.4354 36.4681 54.9035 37.0455 54.9035Z" fill="#0078D4"/>
</g>
<defs>
<linearGradient id="paint0_linear_404_1730" x1="48.0397" y1="-15.1706" x2="52.0225" y2="130.598" gradientUnits="userSpaceOnUse">
<stop stop-color="#00ABDE"/>
<stop offset="1" stop-color="#007ED8"/>
</linearGradient>
<clipPath id="clip0_404_1730">
<rect width="99.2799" height="99.28" fill="white"/>
</clipPath>
</defs>
</svg>
