<svg width="181" height="191" viewBox="0 0 181 191" fill="none" xmlns="http://www.w3.org/2000/svg">
<path d="M90.8144 189.247C93.8744 189.247 96.8844 188.397 99.5444 186.777L161.514 149.117C167.054 145.747 170.484 139.417 170.484 132.577V57.8666C170.484 51.0466 167.054 44.7066 161.514 41.3266L99.5444 3.66665C94.2144 0.426646 87.3944 0.446646 82.0944 3.66665L20.1244 41.3466C14.5844 44.7166 11.1344 51.0466 11.1344 57.8866V132.587C11.1344 138.347 13.5844 143.767 17.6844 147.337V147.367L82.0944 186.797C84.7344 188.397 87.7544 189.247 90.8144 189.247ZM91.4644 8.19665C93.4144 8.19665 95.8944 9.40665 97.6044 10.4566L158.364 47.6466C162.114 49.9266 164.234 56.5266 164.234 61.2766L163.604 132.577C163.604 137.327 160.404 141.597 156.654 143.877L96.2544 180.257C92.8244 182.347 90.0344 182.347 86.5944 180.257L25.3844 143.787C21.6344 141.507 18.6144 137.307 18.6144 132.577V58.9366C18.6144 54.1966 21.3444 49.3066 25.1144 47.0166L85.6944 10.4566C87.3944 9.41665 89.5144 8.19665 91.4644 8.19665Z" fill="#F2F1F0"/>
<path fill-rule="evenodd" clip-rule="evenodd" d="M98.7144 11.7764C96.2644 10.2764 93.5444 9.52637 90.8144 9.52637C88.0844 9.52637 85.3644 10.2864 82.9144 11.7764L26.7844 46.1064C21.7644 49.1764 18.6544 54.9264 18.6544 61.1764V129.276C18.6544 135.506 21.7544 141.276 26.7844 144.346L82.9144 178.676C85.3644 180.176 88.0844 180.926 90.8144 180.926C93.5444 180.926 96.2644 180.186 98.7144 178.676L154.844 144.346C159.864 141.276 162.974 135.506 162.974 129.276V61.1764C162.974 54.9464 159.874 49.1964 154.844 46.1064L98.7144 11.7764Z" fill="#323237" stroke="#9B9BA0" stroke-width="0.3" stroke-miterlimit="10"/>
<path fill-rule="evenodd" clip-rule="evenodd" d="M90.8144 10.9966C92.4944 10.9966 94.3844 11.8666 96.4444 13.1166L154.914 48.6566C158.564 50.8766 160.974 55.1466 160.974 59.9766V130.457C160.974 135.277 158.564 139.557 154.914 141.777L96.4544 177.317C94.4944 178.507 92.5744 179.257 90.8244 179.257C89.0744 179.257 87.1544 178.507 85.1944 177.317L26.7144 141.787C24.7044 140.557 23.2544 139.357 22.2744 137.747C21.2944 136.147 20.6544 133.927 20.6544 130.467V59.9866C20.6544 55.1566 23.0644 50.8866 26.7144 48.6666L85.1744 13.1266C87.2644 11.8766 89.1244 10.9966 90.8144 10.9966ZM98.5244 180.747L156.984 145.207C161.904 142.217 164.964 136.597 164.964 130.467V59.9866C164.964 53.8566 161.904 48.2366 156.984 45.2466L98.5244 9.70658C96.4144 8.42658 93.7044 6.99658 90.8144 6.99658C87.9144 6.99658 85.2044 8.43658 83.1144 9.69658H83.1044L24.6344 45.2466C19.7144 48.2366 16.6544 53.8566 16.6544 59.9866V130.467C16.6544 134.427 17.3944 137.417 18.8544 139.827C20.3144 142.227 22.3744 143.827 24.6344 145.197L83.0944 180.737C85.3144 182.087 87.9844 183.267 90.8044 183.267C93.6244 183.267 96.3044 182.097 98.5244 180.747Z" fill="#E92D2F"/>
<path opacity="0.15" d="M43.2345 137.386H136.994C139.624 137.386 141.754 135.256 141.754 132.626V57.8564H38.4745V132.626C38.4745 135.246 40.6045 137.386 43.2345 137.386Z" fill="#1F1D20"/>
<path d="M40.4445 132.537C39.6345 132.537 38.9745 131.877 38.9745 131.067V54.0068H141.254V131.067C141.254 131.877 140.594 132.537 139.784 132.537H40.4445Z" fill="#47474F"/>
<path d="M140.754 54.5068V131.067C140.754 131.597 140.314 132.037 139.784 132.037H40.4445C39.9145 132.037 39.4745 131.597 39.4745 131.067V54.5068H140.754ZM141.754 53.5068H38.4745V131.067C38.4745 132.147 39.3645 133.037 40.4445 133.037H139.784C140.864 133.037 141.754 132.147 141.754 131.067V53.5068Z" fill="#9B9BA0"/>
<path d="M38.4745 62.0864H141.754V52.8264C141.754 51.9864 141.084 51.3164 140.244 51.3164H39.9845C39.1445 51.3164 38.4745 51.9864 38.4745 52.8264V62.0864V62.0864Z" fill="#E92D2F"/>
<path d="M46.4144 58.6365C47.8544 58.6365 49.0444 57.4665 49.0444 56.0065C49.0444 54.5465 47.8444 53.3965 46.4144 53.3965C44.9744 53.3965 43.7844 54.5665 43.7844 56.0265C43.7844 57.4865 44.9444 58.6365 46.4144 58.6365Z" fill="#F2F1F0"/>
<path d="M58.9344 122.177C52.5044 122.177 47.2944 116.967 47.2944 110.537C47.2944 104.667 51.6344 99.8367 57.2944 99.0667C56.8544 97.2567 56.5844 95.3367 56.5844 93.3567C56.6344 80.5167 67.0244 70.1367 79.8744 70.1367C88.7144 70.1367 96.4044 75.1367 100.364 82.4367C102.284 81.5067 104.484 80.9567 106.794 80.9567C114.814 80.9567 121.354 87.4867 121.354 95.5067C121.354 96.7167 121.194 97.9267 120.914 99.0767C121.354 99.0267 121.794 99.0267 122.234 99.0267C128.604 98.9767 133.824 104.127 133.824 110.557C133.824 116.977 128.604 122.197 122.184 122.197H58.9344V122.177Z" fill="#F2F1F0"/>
<path fill-rule="evenodd" clip-rule="evenodd" d="M66.0744 90.0366C67.4144 92.8466 66.5144 112.437 64.9444 119.317C63.3744 126.197 61.8044 134.957 61.4344 142.317C61.2744 145.457 61.7544 146.697 63.8044 146.697C67.4244 146.697 72.0144 139.067 77.7744 139.237C83.5444 139.407 85.3844 147.987 88.0844 147.927C90.7844 147.867 92.9644 146.927 92.9844 138.577C93.0644 113.657 72.1744 93.4566 66.0744 90.0366Z" fill="black"/>
<path fill-rule="evenodd" clip-rule="evenodd" d="M84.1944 109.956C85.4644 112.096 88.7044 110.446 88.8444 108.036C88.9844 105.616 88.6244 102.576 87.0544 102.456C85.4844 102.346 84.3644 100.776 82.7944 100.656C81.2244 100.546 79.5444 102.106 78.8044 100.026C78.0644 97.9465 80.7744 97.0565 82.7944 96.7265C80.9944 94.9265 79.9444 92.9365 79.1544 90.8665C78.3644 88.7965 77.7844 86.8965 79.9944 86.0765C82.2044 85.2565 82.0244 89.4465 84.5544 91.3565C83.8144 88.5365 83.5344 87.3665 83.5944 85.7365C83.6544 84.0965 83.5344 82.8465 85.8644 83.1665C88.1944 83.4865 87.1844 88.3165 88.9944 90.2865C89.5444 88.4165 89.8744 86.0465 91.2044 85.0765C92.5344 84.1065 95.5544 84.0765 93.6344 88.0765C91.7144 92.0765 94.1944 94.2365 93.6144 97.3865C93.0344 100.536 91.2244 99.9665 90.4444 101.986C89.6644 104.016 90.9044 108.626 89.4344 110.706C87.9644 112.776 87.7044 115.966 88.6544 118.506C85.7144 115.786 84.1944 109.956 84.1944 109.956Z" fill="black"/>
<path fill-rule="evenodd" clip-rule="evenodd" d="M65.9945 112.646C64.8145 120.736 60.7145 121.696 60.5045 125.056C60.2945 128.416 61.5945 128.736 61.5145 131.836C61.4345 134.936 58.6745 136.196 58.3445 137.886C58.0145 139.566 59.7645 140.106 60.7845 140.106C61.8045 140.106 62.8245 135.636 63.2345 132.796C63.6445 129.956 61.8845 128.286 61.8845 126.336C61.8845 124.386 64.4345 120.826 63.9645 123.956C66.0845 120.616 67.0945 116.346 65.9945 112.646Z" fill="black"/>
<path fill-rule="evenodd" clip-rule="evenodd" d="M67.5745 115.736C66.6845 120.116 61.1045 144.546 63.9445 144.856C66.7845 145.166 70.8245 137.296 77.4445 137.356C84.0745 137.416 86.6845 146.176 88.3045 146.116C89.9245 146.056 90.9845 146.686 91.1545 136.816C91.3245 126.946 85.3045 114.336 81.7345 108.776C76.9045 109.076 71.7045 112.946 67.5745 115.736Z" fill="white"/>
<path d="M81.6944 110.407C81.4344 107.667 79.4044 105.957 76.7744 105.537C74.2444 105.127 71.4844 106.337 69.7144 108.107C67.7244 110.097 67.6444 112.877 69.0344 115.237C70.4144 117.567 73.4644 118.337 75.9644 117.757C79.3944 116.957 81.9144 113.967 81.6944 110.407Z" fill="black"/>
<path d="M80.4344 111.427C80.1944 113.917 78.2144 115.907 75.8344 116.487C73.3144 117.097 70.5244 116.127 69.6144 113.527C69.1544 112.197 69.2344 110.837 70.0344 109.677C70.7044 108.697 71.7944 107.927 72.8644 107.437C75.0844 106.427 78.2444 106.317 79.7944 108.567C80.3744 109.427 80.4744 110.427 80.4344 111.427Z" fill="url(#paint0_radial)" stroke="black"/>
<path opacity="0.15" d="M118.335 136.247C118.445 136.367 118.375 136.297 118.315 136.227C117.565 135.407 112.135 135.177 111.415 132.887L110.095 132.847C109.405 134.977 103.805 136.457 104.005 136.237C100.805 137.967 100.965 140.587 104.515 142.237C108.225 143.957 114.205 143.957 117.895 142.237C121.405 140.587 121.545 137.977 118.335 136.247Z" fill="#1F1D20"/>
<path d="M126.564 110.107C126.684 110.107 126.784 110.207 126.784 110.327V112.937C126.784 117.627 122.964 121.447 118.274 121.447H104.094C99.4045 121.447 95.5845 117.627 95.5845 112.937V110.327C95.5845 110.207 95.6845 110.107 95.8045 110.107H126.564ZM126.564 108.367H95.8045C94.7245 108.367 93.8445 109.247 93.8445 110.327V112.937C93.8445 118.597 98.4345 123.187 104.094 123.187H118.274C123.934 123.187 128.524 118.597 128.524 112.937V110.327C128.524 109.237 127.644 108.367 126.564 108.367Z" fill="#FFD400"/>
<path d="M118.335 135.187C118.445 135.307 118.375 135.237 118.315 135.167C117.565 134.347 112.135 134.117 111.415 131.827L110.095 131.787C109.405 133.917 103.805 135.397 104.005 135.177C100.805 136.907 100.965 139.527 104.515 141.177C108.225 142.897 114.205 142.897 117.895 141.177C121.405 139.537 121.545 136.917 118.335 135.187Z" fill="url(#paint1_linear)"/>
<path d="M116.934 134.126C115.854 132.946 114.464 130.336 114.044 124.596C114.004 124.106 113.954 123.046 113.954 123.046H108.394C108.394 123.046 108.384 124.216 108.364 124.766C108.134 130.136 106.674 132.766 105.504 134.016C105.414 134.106 105.184 134.316 105.154 134.336C102.624 135.766 102.804 137.886 105.674 139.216C108.724 140.636 113.664 140.636 116.694 139.216C119.424 137.936 119.674 135.956 117.484 134.536C117.364 134.446 116.984 134.176 116.934 134.126Z" fill="url(#paint2_linear)"/>
<path d="M111.684 128.616H110.684C104.184 128.616 98.9244 121.306 98.9244 114.806V106.126L123.454 105.816V114.796C123.444 121.306 118.184 128.616 111.684 128.616Z" fill="url(#paint3_radial)"/>
<path d="M119.845 101.907C124.655 104.147 124.685 107.777 119.905 110.007C115.125 112.247 107.345 112.247 102.535 110.007C97.7245 107.767 97.6945 104.137 102.475 101.907C107.245 99.6666 115.025 99.6666 119.845 101.907Z" fill="url(#paint4_linear)"/>
<path d="M111.144 101.537C114.234 101.537 117.134 102.087 119.294 103.097C121.094 103.927 122.164 105.007 122.164 105.977C122.164 106.937 121.114 107.997 119.344 108.827C117.204 109.827 114.314 110.387 111.224 110.387C108.124 110.387 105.234 109.837 103.074 108.827C101.274 107.997 100.204 106.917 100.204 105.947C100.204 104.987 101.254 103.927 103.024 103.097C105.164 102.087 108.054 101.537 111.144 101.537ZM111.144 100.227C108.004 100.227 104.854 100.787 102.464 101.907C97.6845 104.147 97.7045 107.767 102.524 110.007C104.934 111.127 108.084 111.687 111.224 111.687C114.364 111.687 117.504 111.127 119.904 110.007C124.684 107.767 124.664 104.137 119.844 101.907C117.434 100.787 114.284 100.227 111.144 100.227Z" fill="#FFD400"/>
<defs>
<radialGradient id="paint0_radial" cx="0" cy="0" r="1" gradientUnits="userSpaceOnUse" gradientTransform="translate(72.0768 109.696) scale(8.7046)">
<stop stop-color="white"/>
<stop offset="0.0604" stop-color="#FBC8B4"/>
<stop offset="0.0712" stop-color="#FBC3B0"/>
<stop offset="0.1829" stop-color="#F7978B"/>
<stop offset="0.2995" stop-color="#F4716B"/>
<stop offset="0.4199" stop-color="#F15251"/>
<stop offset="0.5453" stop-color="#EF3A3D"/>
<stop offset="0.6778" stop-color="#EE292F"/>
<stop offset="0.822" stop-color="#ED1F27"/>
<stop offset="1" stop-color="#ED1C24"/>
</radialGradient>
<linearGradient id="paint1_linear" x1="101.73" y1="137.128" x2="120.637" y2="137.128" gradientUnits="userSpaceOnUse">
<stop stop-color="#FFD70F"/>
<stop offset="0.34" stop-color="#EEB309"/>
<stop offset="0.77" stop-color="#DC8C03"/>
<stop offset="1" stop-color="#D57D01"/>
</linearGradient>
<linearGradient id="paint2_linear" x1="103.395" y1="131.661" x2="118.972" y2="131.661" gradientUnits="userSpaceOnUse">
<stop stop-color="#FFD70F"/>
<stop offset="0.27" stop-color="#FFD310"/>
<stop offset="0.54" stop-color="#FFC613"/>
<stop offset="0.83" stop-color="#FEB217"/>
<stop offset="1" stop-color="#FEA11B"/>
</linearGradient>
<radialGradient id="paint3_radial" cx="0" cy="0" r="1" gradientUnits="userSpaceOnUse" gradientTransform="translate(102.405 110.436) scale(26.3959)">
<stop offset="0.27" stop-color="#FFD70F"/>
<stop offset="0.49" stop-color="#FFCB12"/>
<stop offset="0.88" stop-color="#FEAC19"/>
<stop offset="1" stop-color="#FEA11B"/>
</radialGradient>
<linearGradient id="paint4_linear" x1="105.09" y1="100.552" x2="121.141" y2="114.792" gradientUnits="userSpaceOnUse">
<stop stop-color="#FFD70F"/>
<stop offset="0.34" stop-color="#EEB309"/>
<stop offset="0.77" stop-color="#DC8C03"/>
<stop offset="1" stop-color="#D57D01"/>
</linearGradient>
</defs>
</svg>
