<svg width="100" height="100" viewBox="0 0 100 100" fill="none" xmlns="http://www.w3.org/2000/svg">
<g clip-path="url(#clip0)">
<path d="M49.1926 96.4501C39.9344 96.4501 30.8842 93.7047 23.1863 88.5612C15.4885 83.4176 9.48873 76.1069 5.94579 67.5535C2.40285 59.0001 1.47586 49.5882 3.28203 40.5079C5.0882 31.4277 9.54643 23.0869 16.0929 16.5404C22.6394 9.99393 30.9802 5.53571 40.0604 3.72954C49.1407 1.92337 58.5526 2.85036 67.106 6.3933C75.6594 9.93624 82.9701 15.936 88.1137 23.6339C93.2572 31.3317 96.0026 40.382 96.0026 49.6401C96.003 55.7874 94.7925 61.8746 92.4403 67.554C90.088 73.2335 86.64 78.3939 82.2932 82.7407C77.9464 87.0875 72.7859 90.5355 67.1065 92.8878C61.4271 95.24 55.3399 96.4505 49.1926 96.4501V96.4501Z" fill="url(#paint0_linear)"/>
<path fill-rule="evenodd" clip-rule="evenodd" d="M95.5402 49.7103C95.5402 58.7885 92.8483 67.6628 87.8047 75.211C82.7611 82.7592 75.5925 88.6423 67.2054 92.1164C58.8183 95.5904 49.5893 96.4994 40.6856 94.7284C31.7819 92.9573 23.6033 88.5857 17.184 82.1665C10.7648 75.7473 6.39326 67.5687 4.6222 58.665C2.85114 49.7612 3.76011 40.5323 7.23417 32.1451C10.7082 23.758 16.5914 16.5894 24.1396 11.5459C31.6878 6.5023 40.5621 3.81031 49.6402 3.81031C55.6679 3.81029 61.6366 4.99751 67.2054 7.3042C72.7743 9.61088 77.8343 12.9918 82.0965 17.2541C86.3587 21.5163 89.7397 26.5763 92.0464 32.1451C94.353 37.714 95.5403 43.6826 95.5402 49.7103V49.7103ZM49.6402 0.0703125C59.4581 0.0703125 69.0555 2.98165 77.2188 8.43616C85.382 13.8907 91.7445 21.6434 95.5016 30.7139C99.2588 39.7844 100.242 49.7654 98.3264 59.3946C96.4111 69.0238 91.6833 77.8688 84.741 84.8111C77.7987 91.7534 68.9537 96.4811 59.3245 98.3965C49.6953 100.312 39.7144 99.3288 30.6438 95.5717C21.5733 91.8146 13.8206 85.4521 8.36609 77.2888C2.91158 69.1256 0.000244502 59.5282 0.000244502 49.7103C-0.000542285 43.1913 1.2829 36.7359 3.77726 30.713C6.27163 24.69 9.92805 19.2174 14.5377 14.6078C19.1474 9.99812 24.62 6.3417 30.6429 3.84734C36.6659 1.35297 43.1212 0.0695344 49.6402 0.0703225V0.0703125Z" fill="#F2F1F0"/>
<path fill-rule="evenodd" clip-rule="evenodd" d="M92.2821 49.6386C92.2821 58.161 89.7549 66.492 85.0201 73.5781C80.2853 80.6643 73.5556 86.1872 65.6819 89.4486C57.8082 92.71 49.1443 93.5633 40.7856 91.9007C32.427 90.238 24.7491 86.1341 18.7228 80.1079C12.6966 74.0816 8.59266 66.4037 6.93002 58.0451C5.26739 49.6864 6.12071 41.0225 9.38209 33.1488C12.6435 25.2751 18.1664 18.5454 25.2525 13.8106C32.3387 9.07581 40.6697 6.54862 49.1921 6.54862C54.8508 6.54828 60.4542 7.6626 65.6823 9.82795C70.9104 11.9933 75.6607 15.1673 79.6621 19.1686C83.6634 23.17 86.8374 27.9203 89.0027 33.1484C91.1681 38.3765 92.2824 43.9799 92.2821 49.6386V49.6386ZM49.1921 2.80862C58.4542 2.80862 67.5083 5.55515 75.2094 10.7009C82.9106 15.8466 88.9129 23.1605 92.4573 31.7176C96.0018 40.2746 96.9292 49.6906 95.1222 58.7747C93.3153 67.8588 88.8552 76.2031 82.3059 82.7524C75.7566 89.3017 67.4123 93.7619 58.3281 95.5688C49.244 97.3757 39.8281 96.4484 31.271 92.9039C22.7139 89.3594 15.4001 83.3571 10.2543 75.656C5.10859 67.9548 2.36206 58.9007 2.36206 49.6386C2.36325 37.2189 7.29749 25.3082 16.0796 16.5261C24.8616 7.74404 36.7723 2.80979 49.1921 2.80859V2.80862Z" fill="#0078D4"/>
<path opacity="0.2" d="M23.1513 74.7739H76.0933C76.3715 74.7731 76.638 74.6623 76.8347 74.4656C77.0314 74.2689 77.1422 74.0024 77.143 73.7242V32.3906H22.1016V73.7242C22.1024 74.0024 22.2132 74.2689 22.4099 74.4656C22.6066 74.6623 22.8731 74.7731 23.1513 74.7739V74.7739Z" fill="#003067"/>
<path d="M23.1513 72.6138H76.0933C76.3715 72.613 76.638 72.5021 76.8347 72.3054C77.0314 72.1087 77.1422 71.8422 77.143 71.5641V30.2305H22.1016V71.5641C22.1024 71.8422 22.2132 72.1087 22.4099 72.3054C22.6066 72.5021 22.8731 72.613 23.1513 72.6138V72.6138Z" fill="#F2F2F2"/>
<path d="M22.1016 34.805H77.143V29.8712C77.1433 29.7654 77.1227 29.6607 77.0823 29.5629C77.042 29.4651 76.9827 29.3763 76.9079 29.3015C76.8331 29.2267 76.7443 29.1674 76.6466 29.1271C76.5488 29.0868 76.444 29.0661 76.3382 29.0664H22.9064C22.8006 29.0661 22.6958 29.0868 22.5981 29.1271C22.5003 29.1674 22.4114 29.2267 22.3367 29.3015C22.2619 29.3763 22.2026 29.4651 22.1623 29.5629C22.1219 29.6607 22.1013 29.7654 22.1016 29.8712V34.805Z" fill="#092E4C"/>
<path d="M26.3355 33.4488C26.6115 33.4479 26.881 33.3652 27.1099 33.2112C27.3389 33.0572 27.5171 32.8387 27.6219 32.5834C27.7267 32.3281 27.7534 32.0475 27.6987 31.777C27.6441 31.5065 27.5104 31.2583 27.3146 31.0638C27.1189 30.8693 26.8699 30.7372 26.599 30.6842C26.3282 30.6312 26.0478 30.6597 25.7931 30.7661C25.5385 30.8725 25.3212 31.052 25.1686 31.282C25.016 31.5119 24.935 31.7819 24.9358 32.0579C24.9343 32.2417 24.9696 32.4239 25.0395 32.5939C25.1094 32.7639 25.2126 32.9183 25.343 33.0478C25.4734 33.1774 25.6283 33.2796 25.7988 33.3485C25.9692 33.4173 26.1517 33.4514 26.3355 33.4488V33.4488Z" fill="#50E6FF"/>
<path d="M72.2641 38.3574H26.97C26.3732 38.3574 25.8894 38.8412 25.8894 39.438V67.5948C25.8894 68.1916 26.3732 68.6754 26.97 68.6754H72.2641C72.8609 68.6754 73.3447 68.1916 73.3447 67.5948V39.438C73.3447 38.8412 72.8609 38.3574 72.2641 38.3574Z" fill="#E8E8E8"/>
<path d="M49.6402 41.9395C52.7282 41.9395 55.6896 43.1661 57.8732 45.3496C60.0567 47.5332 61.2833 50.4946 61.2833 53.5826V53.5826C61.2833 56.6705 60.0567 59.632 57.8731 61.8155C55.6896 63.999 52.7282 65.2257 49.6402 65.2257C48.1112 65.2257 46.5972 64.9246 45.1846 64.3394C43.772 63.7543 42.4884 62.8967 41.4073 61.8155C40.3261 60.7344 39.4685 59.4508 38.8834 58.0382C38.2982 56.6256 37.9971 55.1116 37.9971 53.5826V53.5826C37.9971 50.4946 39.2238 47.5332 41.4073 45.3496C43.5908 43.1661 46.5523 41.9395 49.6402 41.9395V41.9395Z" fill="#0078D4"/>
<path d="M49.6402 43.0742H49.6389C43.8359 43.0742 39.1316 47.7785 39.1316 53.5815V53.5828C39.1316 59.3858 43.8359 64.0901 49.6389 64.0901H49.6402C55.4432 64.0901 60.1475 59.3858 60.1475 53.5828V53.5815C60.1475 47.7785 55.4432 43.0742 49.6402 43.0742Z" fill="url(#paint1_linear)"/>
<path d="M46.5826 60.4742C46.0219 60.5189 45.4615 60.3829 44.9836 60.0861C44.8092 59.8958 44.6777 59.6703 44.598 59.4247C44.5184 59.1792 44.4923 58.9195 44.5218 58.663V54.9683C44.5218 54.3641 44.2734 54.0446 43.7766 54.0446V53.1209C44.2734 53.1209 44.5218 52.8013 44.5218 52.1623V48.5373C44.4931 48.2758 44.5194 48.0111 44.5989 47.7602C44.6784 47.5094 44.8095 47.2779 44.9836 47.0806C45.4544 46.7673 46.0206 46.6299 46.5826 46.6925V47.6162C46.0496 47.6162 45.765 47.9008 45.765 48.5037V52.0549C45.765 52.8725 45.5166 53.3692 44.9888 53.5827C45.2607 53.7254 45.4815 53.9491 45.6205 54.2228C45.7596 54.4966 45.8101 54.8068 45.765 55.1105V58.6281C45.7505 58.8775 45.8129 59.1254 45.9435 59.3383C46.0231 59.4146 46.118 59.4732 46.222 59.51C46.3259 59.5468 46.4365 59.561 46.5464 59.5517L46.5826 60.4754V60.4742Z" fill="white"/>
<path d="M52.6965 46.6919C53.2573 46.6472 53.8177 46.7832 54.2955 47.08C54.4699 47.2703 54.6014 47.4958 54.6811 47.7413C54.7608 47.9868 54.7868 48.2466 54.7574 48.503V52.1978C54.7574 52.8019 55.0058 53.1215 55.5025 53.1215V54.0452C55.0058 54.0452 54.7574 54.3647 54.7574 55.0038V58.5925C54.7867 58.8545 54.7607 59.1197 54.6811 59.371C54.6016 59.6224 54.4702 59.8543 54.2955 60.0517C53.8304 60.3799 53.2634 60.5312 52.6965 60.4786V59.5549C53.2295 59.5549 53.5141 59.2703 53.5141 58.6675V55.1112C53.5141 54.2936 53.7625 53.7968 54.2903 53.5833C54.0185 53.4406 53.7977 53.2169 53.6586 52.9432C53.5195 52.6694 53.4691 52.3592 53.5141 52.0555V48.5379C53.5286 48.2885 53.4663 48.0406 53.3356 47.8277C53.2561 47.7513 53.1611 47.6928 53.0572 47.656C52.9532 47.6192 52.8426 47.6049 52.7328 47.6142L52.6965 46.6919Z" fill="white"/>
<path opacity="0.2" d="M35.559 29.0664C35.1339 31.1538 35.1783 33.3096 35.6889 35.3777C36.1995 37.4459 37.1635 39.3746 38.5112 41.0244C39.8589 42.6741 41.5565 44.0036 43.4811 44.9166C45.4058 45.8295 47.5094 46.3032 49.6396 46.3032C51.7699 46.3032 53.8735 45.8295 55.7982 44.9166C57.7228 44.0036 59.4204 42.6741 60.7681 41.0244C62.1158 39.3746 63.0798 37.4459 63.5904 35.3777C64.101 33.3096 64.1454 31.1538 63.7203 29.0664H35.559Z" fill="#767676"/>
<path d="M49.6398 44.3055C56.4713 44.3055 62.0093 38.7675 62.0093 31.9359C62.0093 25.1044 56.4713 19.5664 49.6398 19.5664C42.8083 19.5664 37.2703 25.1044 37.2703 31.9359C37.2703 38.7675 42.8083 44.3055 49.6398 44.3055Z" fill="white"/>
<path d="M58.2936 29.4109L57.4523 28.4494L56.6109 29.4109L54.4475 31.4542L55.2888 32.4157L56.8513 30.8532V31.9349C56.8771 32.7624 56.7127 33.5848 56.3705 34.3388H53.1254C53.2285 33.5419 53.2686 32.7381 53.2456 31.9349C53.3583 29.5516 52.818 27.1827 51.6831 25.084C53.1332 25.4296 54.412 26.2822 55.2888 27.4878L56.1302 26.6465C55.3529 25.6711 54.3657 24.8836 53.242 24.3425C52.1183 23.8015 50.887 23.5208 49.6398 23.5215C47.9758 23.5215 46.3491 24.0149 44.9655 24.9394C43.5819 25.8639 42.5036 27.1779 41.8668 28.7152C41.23 30.2526 41.0633 31.9442 41.388 33.5763C41.7126 35.2083 42.5139 36.7074 43.6905 37.8841C44.8672 39.0607 46.3663 39.862 47.9984 40.1867C49.6304 40.5113 51.3221 40.3447 52.8594 39.7079C54.3968 39.0711 55.7108 37.9928 56.6353 36.6092C57.5597 35.2256 58.0532 33.5989 58.0532 31.9349V30.8532L59.6157 32.4157L60.457 31.4542L58.2936 29.4109ZM49.6398 39.1464C49.0388 39.1464 48.1975 37.8243 47.5965 35.5407H51.6831C51.0821 37.8243 50.2408 39.1464 49.6398 39.1464V39.1464ZM47.3562 34.3388C47.3562 33.6176 47.236 32.7763 47.236 31.9349C47.236 31.0936 47.3562 30.2522 47.3562 29.5311H51.9235C51.9235 30.2522 52.0437 31.0936 52.0437 31.9349C52.0437 32.7763 51.9235 33.6176 51.9235 34.3388H47.3562ZM51.6831 28.3292H47.5965C48.1975 26.0455 49.0388 24.7234 49.6398 24.7234C50.2408 24.7234 51.0821 26.0455 51.6831 28.3292H51.6831ZM47.5966 25.084C47.0145 26.0896 46.608 27.187 46.3947 28.3292H43.3899C44.3186 26.7432 45.8268 25.5797 47.5965 25.084H47.5966ZM42.4283 31.9349C42.4024 31.1074 42.5669 30.285 42.9091 29.5311H46.1542C46.0511 30.328 46.0109 31.1317 46.034 31.9349C46.0109 32.7381 46.0511 33.5419 46.1542 34.3388H42.9091C42.5669 33.5848 42.4024 32.7624 42.4283 31.9349V31.9349ZM43.3898 35.5407H46.3946C46.608 36.6828 47.0144 37.7803 47.5965 38.7859C45.8267 38.2901 44.3185 37.1267 43.3898 35.5407V35.5407ZM51.6831 38.7859C52.2652 37.7803 52.6716 36.6828 52.885 35.5407H55.8898C54.9611 37.1267 53.4528 38.2901 51.6831 38.7859V38.7859Z" fill="#0078D4"/>
</g>
<defs>
<linearGradient id="paint0_linear" x1="47.4222" y1="-15.153" x2="51.405" y2="130.615" gradientUnits="userSpaceOnUse">
<stop stop-color="#00ABDE"/>
<stop offset="1" stop-color="#007ED8"/>
</linearGradient>
<linearGradient id="paint1_linear" x1="49.6395" y1="43.0742" x2="49.6395" y2="64.0901" gradientUnits="userSpaceOnUse">
<stop stop-color="#5EA0EF"/>
<stop offset="1" stop-color="#0078D4"/>
</linearGradient>
<clipPath id="clip0">
<rect width="99.2799" height="99.28" fill="white"/>
</clipPath>
</defs>
</svg>
