<svg width="103" height="103" viewBox="0 0 103 103" fill="none" xmlns="http://www.w3.org/2000/svg">
<path d="M51.1953 98.2467C25.3453 98.2467 4.38525 77.2967 4.38525 51.4367C4.38525 25.5767 25.3453 4.62671 51.1953 4.62671C77.0453 4.62671 98.0052 25.5867 98.0052 51.4367C98.0052 77.2867 77.0453 98.2467 51.1953 98.2467Z" fill="url(#paint0_linear_1111_2947)"/>
<path fill-rule="evenodd" clip-rule="evenodd" d="M97.0952 51.4368C97.0952 76.7868 76.5452 97.3367 51.1952 97.3367C25.8452 97.3367 5.29518 76.7868 5.29518 51.4368C5.29518 26.0868 25.8452 5.53676 51.1952 5.53676C76.5452 5.53676 97.0952 26.0868 97.0952 51.4368ZM51.1952 1.79675C78.6152 1.79675 100.835 24.0168 100.835 51.4368C100.835 78.8568 78.6052 101.077 51.1952 101.077C23.7752 101.077 1.55518 78.8468 1.55518 51.4368C1.55518 24.0168 23.7752 1.79675 51.1952 1.79675Z" fill="#F2F1F0"/>
<path fill-rule="evenodd" clip-rule="evenodd" d="M94.2852 51.4367C94.2852 75.2367 74.9952 94.5267 51.1952 94.5267C27.3952 94.5267 8.10523 75.2367 8.10523 51.4367C8.10523 27.6367 27.3952 8.34669 51.1952 8.34669C74.9952 8.34669 94.2852 27.6367 94.2852 51.4367ZM51.1952 4.60669C77.0552 4.60669 98.0252 25.5767 98.0252 51.4367C98.0252 77.2967 77.0552 98.2667 51.1952 98.2667C25.3352 98.2667 4.36523 77.2967 4.36523 51.4367C4.36523 25.5767 25.3252 4.60669 51.1952 4.60669Z" fill="url(#paint1_linear_1111_2947)"/>
<path opacity="0.15" d="M77.6257 69.8081H17.4365V69.9861C17.4365 71.672 18.7978 73.0333 20.4837 73.0333H74.5891C76.2749 73.0333 77.6362 71.672 77.6362 69.9861V69.8081H77.6257Z" fill="#1F1D20"/>
<path d="M81.0182 30.7185H24.0962V66.4885H81.0182V30.7185Z" fill="url(#paint2_linear_1111_2947)"/>
<path d="M81.4789 29.1268H23.5831C22.7977 29.1268 22.1694 29.7656 22.1694 30.5509V67.3471C22.1694 68.1325 22.8082 68.7712 23.5935 68.7712H81.4894C82.2748 68.7712 82.9135 68.1325 82.9135 67.3471V30.5509C82.903 29.7656 82.2643 29.1268 81.4789 29.1268ZM79.3114 65.4204H25.7611V32.3101H79.3114V65.4204Z" fill="#282828"/>
<path d="M85.6257 68.7711H17.4365V68.9491C17.4365 70.635 18.7978 71.9963 20.4837 71.9963H82.5891C84.2749 71.9963 85.6362 70.635 85.6362 68.9491V68.7711H85.6257Z" fill="#F3F3F3"/>
<path d="M78.1028 75.609C83.0184 75.609 87.0034 71.624 87.0034 66.7084C87.0034 61.7927 83.0184 57.8077 78.1028 57.8077C73.1871 57.8077 69.2021 61.7927 69.2021 66.7084C69.2021 71.624 73.1871 75.609 78.1028 75.609Z" fill="url(#paint3_linear_1111_2947)"/>
<path d="M70.98 65.8451C71.4526 65.3725 71.9619 64.9548 72.5152 64.5884C73.0648 64.222 73.6437 63.9142 74.2482 63.6687C74.8528 63.4159 75.4793 63.2254 76.1278 63.0935C76.78 62.9616 77.4359 62.8956 78.1027 62.8956C78.7732 62.8956 79.4364 62.9616 80.0849 63.0935C80.7298 63.2254 81.3563 63.4159 81.9572 63.6687C82.5618 63.9142 83.137 64.222 83.6903 64.5884C84.2399 64.9548 84.7528 65.3761 85.2255 65.8451L84.511 66.5596C84.086 66.1346 83.628 65.7572 83.1333 65.4274C82.635 65.0977 82.1148 64.8192 81.5762 64.5957C81.0302 64.3722 80.466 64.2 79.8834 64.0864C79.2972 63.9692 78.7036 63.9105 78.1027 63.9105C77.5018 63.9105 76.9083 63.9692 76.3257 64.0828C75.7431 64.1963 75.1825 64.3685 74.6403 64.592C74.0943 64.8155 73.5741 65.094 73.0831 65.4238C72.5848 65.7535 72.1231 66.1309 71.6981 66.5559L70.98 65.8451ZM78.1027 65.9147C79.048 65.9147 79.9457 66.0943 80.8031 66.4497C81.6568 66.8051 82.4225 67.3144 83.093 67.9739L82.3786 68.6884C81.807 68.1168 81.1548 67.6808 80.4183 67.3767C79.6856 67.0725 78.9125 66.9223 78.1064 66.9223C77.3003 66.9223 76.5272 67.0725 75.7944 67.3767C75.0616 67.6808 74.4058 68.1168 73.8342 68.6884L73.1197 67.9739C73.7902 67.3144 74.556 66.8051 75.4097 66.4497C76.2561 66.0943 77.1574 65.9147 78.1027 65.9147ZM75.2522 70.11C75.6369 69.7289 76.0692 69.4358 76.5602 69.2379C77.0475 69.0328 77.5605 68.9302 78.1027 68.9302C78.645 68.9302 79.1579 69.0328 79.6453 69.2379C80.1326 69.4358 80.5686 69.7289 80.9533 70.11L80.2461 70.8171C79.964 70.535 79.6379 70.3152 79.2715 70.1649C78.8978 70.0147 78.5094 69.9378 78.1064 69.9378C77.7034 69.9378 77.3186 70.0147 76.9486 70.1649C76.5749 70.3152 76.2488 70.535 75.9666 70.8171L75.2522 70.11Z" fill="white"/>
<path opacity="0.15" d="M55.4627 34.799H27.4C26.9935 34.799 26.6562 35.1276 26.6562 35.5427V64.7383C26.6562 65.1447 26.9849 65.482 27.4 65.482H55.4627C55.8691 65.482 56.2064 65.1534 56.2064 64.7383V35.5427C56.1978 35.1276 55.8691 34.799 55.4627 34.799Z" fill="#1F1D20"/>
<path d="M55.4627 33.7159H27.4C26.9935 33.7159 26.6562 34.0446 26.6562 34.4597V63.6553C26.6562 64.0617 26.9849 64.399 27.4 64.399H55.4627C55.8691 64.399 56.2064 64.0704 56.2064 63.6553V34.4597C56.1978 34.0446 55.8691 33.7159 55.4627 33.7159Z" fill="url(#paint4_linear_1111_2947)"/>
<path d="M30.2364 36.8279H29.977C29.8127 36.8279 29.6743 36.9662 29.6743 37.1306V37.2516C29.6743 37.4159 29.8127 37.5543 29.977 37.5543H30.2364C30.4007 37.5543 30.5391 37.4159 30.5391 37.2516V37.1306C30.5391 36.9576 30.4094 36.8279 30.2364 36.8279Z" fill="#E9FCFE"/>
<path d="M30.5391 38.5588H29.6743V39.2853H30.5391V38.5588Z" fill="#D5F9FD"/>
<path d="M30.5391 40.1501H29.6743V40.8766H30.5391V40.1501Z" fill="#ACF3FD"/>
<path d="M30.5391 41.88H29.6743V42.6064H30.5391V41.88Z" fill="#84ECFD"/>
<path d="M30.5391 43.6173H29.6743V44.3437H30.5391V43.6173Z" fill="#50E6FF"/>
<path d="M30.5391 45.1996H29.6743V45.926H30.5391V45.1996Z" fill="#45CAF2"/>
<path d="M30.5391 46.938H29.6743V47.6644H30.5391V46.938Z" fill="#32B0E7"/>
<path d="M30.5391 48.5292H29.6743V49.2556H30.5391V48.5292Z" fill="#2195DC"/>
<path d="M30.5391 50.4053H29.6743V51.1317H30.5391V50.4053Z" fill="#0078D4"/>
<path d="M30.5391 51.9969H29.6743V52.7234H30.5391V51.9969Z" fill="#156AB3"/>
<path d="M30.2624 53.7274H29.9511C29.7954 53.7274 29.6743 53.8485 29.6743 54.0042V54.1685C29.6743 54.3241 29.7954 54.4452 29.9511 54.4452H30.2624C30.418 54.4452 30.5391 54.3241 30.5391 54.1685V54.0042C30.5391 53.8485 30.418 53.7274 30.2624 53.7274Z" fill="#185A97"/>
<path d="M30.2969 55.2928H30.0375C29.8818 55.2928 29.7607 55.4139 29.7607 55.5696V55.6907C29.7607 55.8463 29.8818 55.9674 30.0375 55.9674H30.2969C30.4526 55.9674 30.5737 55.8463 30.5737 55.6907V55.5696C30.5737 55.4226 30.4526 55.2928 30.2969 55.2928Z" fill="#1D4A79"/>
<path d="M30.2969 57.0476H30.0375C29.8818 57.0476 29.7607 57.1687 29.7607 57.3243V57.4454C29.7607 57.6011 29.8818 57.7222 30.0375 57.7222H30.2969C30.4526 57.7222 30.5737 57.6011 30.5737 57.4454V57.3243C30.5737 57.1687 30.4526 57.0476 30.2969 57.0476Z" fill="#243A5E"/>
<path d="M30.2969 58.8033H30.0375C29.8818 58.8033 29.7607 58.9244 29.7607 59.0801V59.2012C29.7607 59.3568 29.8818 59.4779 30.0375 59.4779H30.2969C30.4526 59.4779 30.5737 59.3568 30.5737 59.2012V59.0801C30.5737 58.9244 30.4526 58.8033 30.2969 58.8033Z" fill="#1A2C45"/>
<path d="M30.2969 60.5581H30.0375C29.8818 60.5581 29.7607 60.6792 29.7607 60.8348V60.9559C29.7607 61.1116 29.8818 61.2326 30.0375 61.2326H30.2969C30.4526 61.2326 30.5737 61.1116 30.5737 60.9559V60.8348C30.5737 60.6792 30.4526 60.5581 30.2969 60.5581Z" fill="#141E2F"/>
<path d="M35.1659 40.1501H32.8569V40.8766H35.1659V40.1501Z" fill="#ACF3FD"/>
<path d="M44.1337 36.8204H33.2113C33.021 36.8204 32.874 36.9674 32.874 37.1577C32.874 37.348 33.021 37.495 33.2113 37.495H44.1337C44.324 37.495 44.471 37.348 44.471 37.1577C44.471 36.9674 44.3153 36.8204 44.1337 36.8204Z" fill="#E9FCFE"/>
<path d="M47.7747 40.1929H36.3075C36.1172 40.1929 35.9702 40.3399 35.9702 40.5301C35.9702 40.7204 36.1172 40.8674 36.3075 40.8674H47.7747C47.965 40.8674 48.112 40.7204 48.112 40.5301C48.112 40.3399 47.9563 40.1929 47.7747 40.1929Z" fill="#ACF3FD"/>
<path d="M40.4927 41.88H33.3495C33.1592 41.88 33.0122 42.027 33.0122 42.2173C33.0122 42.4075 33.1592 42.5545 33.3495 42.5545H40.4927C40.683 42.5545 40.83 42.4075 40.83 42.2173C40.83 42.027 40.6743 41.88 40.4927 41.88Z" fill="#84ECFD"/>
<path d="M47.3683 45.1832H36.3075C36.1172 45.1832 35.9702 45.3302 35.9702 45.5205C35.9702 45.7108 36.1172 45.8578 36.3075 45.8578H47.3683C47.5585 45.8578 47.7055 45.7108 47.7055 45.5205C47.7055 45.3302 47.5585 45.1832 47.3683 45.1832Z" fill="#45CAF2"/>
<path d="M46.2872 46.9296H33.3412C33.1509 46.9296 33.0039 47.0766 33.0039 47.2668C33.0039 47.4571 33.1509 47.6041 33.3412 47.6041H46.2872C46.4775 47.6041 46.6245 47.4571 46.6245 47.2668C46.6245 47.0852 46.4775 46.9296 46.2872 46.9296Z" fill="#32B0E7"/>
<path d="M50.0664 50.4417H33.3412C33.1509 50.4417 33.0039 50.5887 33.0039 50.7789C33.0039 50.9692 33.1509 51.1162 33.3412 51.1162H50.0664C50.2566 51.1162 50.4037 50.9692 50.4037 50.7789C50.4037 50.5887 50.2566 50.4417 50.0664 50.4417Z" fill="#0078D4"/>
<path d="M41.5737 52.0582H33.3495C33.1592 52.0582 33.0122 52.2052 33.0122 52.3955C33.0122 52.5858 33.1592 52.7328 33.3495 52.7328H41.5737C41.764 52.7328 41.911 52.5858 41.911 52.3955C41.911 52.2139 41.7553 52.0582 41.5737 52.0582Z" fill="#156AB3"/>
<path d="M40.0865 55.2928H36.4457C36.2554 55.2928 36.1084 55.4399 36.1084 55.6301C36.1084 55.8204 36.2554 55.9674 36.4457 55.9674H40.0865C40.2767 55.9674 40.4237 55.8204 40.4237 55.6301C40.4237 55.4485 40.2767 55.2928 40.0865 55.2928Z" fill="#1D4A79"/>
<path d="M49.1238 55.2928H41.5741C41.3838 55.2928 41.2368 55.4399 41.2368 55.6301C41.2368 55.8204 41.3838 55.9674 41.5741 55.9674H49.1238C49.314 55.9674 49.4611 55.8204 49.4611 55.6301C49.4611 55.4485 49.3054 55.2928 49.1238 55.2928Z" fill="#1D4A79"/>
<path d="M42.7848 57.0476H33.3412C33.1509 57.0476 33.0039 57.1946 33.0039 57.3849C33.0039 57.5751 33.1509 57.7222 33.3412 57.7222H42.7848C42.975 57.7222 43.1221 57.5751 43.1221 57.3849C43.1221 57.2033 42.9664 57.0476 42.7848 57.0476Z" fill="#243A5E"/>
<path d="M51.1474 58.8033H33.3412C33.1509 58.8033 33.0039 58.9504 33.0039 59.1406C33.0039 59.3309 33.1509 59.4779 33.3412 59.4779H51.1474C51.3376 59.4779 51.4847 59.3309 51.4847 59.1406C51.4847 58.9504 51.329 58.8033 51.1474 58.8033Z" fill="#1A2C45"/>
<path d="M42.3782 60.5581H36.4457C36.2554 60.5581 36.1084 60.7051 36.1084 60.8954C36.1084 61.0856 36.2554 61.2326 36.4457 61.2326H42.3782C42.5684 61.2326 42.7155 61.0856 42.7155 60.8954C42.7155 60.7051 42.5684 60.5581 42.3782 60.5581Z" fill="#141E2F"/>
<path opacity="0.2" d="M62.8518 61.8115C63.5743 61.8115 64.1503 61.2251 64.1503 60.5131V36.9421H38.6631V60.5131C38.6631 61.2356 39.2495 61.8115 39.9615 61.8115H62.8518Z" fill="#1F1D21"/>
<path d="M64.1607 37.0735V36.6651C64.1607 36.1729 63.7628 35.775 63.2707 35.775H39.5531C39.061 35.775 38.6631 36.1729 38.6631 36.6651V37.1049V37.5028V60.2046C38.6631 60.6967 39.061 61.0947 39.5531 61.0947H63.2811C63.7733 61.0947 64.1712 60.6967 64.1712 60.2046V37.1049C64.1712 37.0944 64.1607 37.0839 64.1607 37.0735Z" fill="white"/>
<path d="M58.1594 48.3298V41.67L50.6934 42.7172V48.3298H58.1594Z" fill="url(#paint5_linear_1111_2947)"/>
<path d="M44.4736 43.5545V48.3503H50.2747V42.7482L44.4736 43.5545Z" fill="url(#paint6_linear_1111_2947)"/>
<path d="M44.4736 48.6652V53.4087L50.2747 54.215V48.6652H44.4736Z" fill="url(#paint7_linear_1111_2947)"/>
<path d="M58.1594 55.3563V48.6652H50.6934V54.2987L58.1594 55.3563Z" fill="url(#paint8_linear_1111_2947)"/>
<path opacity="0.2" d="M71.4071 38.4836H66.2866C65.9725 38.4836 65.7212 38.735 65.7212 39.0491V42.18C65.7212 42.4942 65.9725 42.7455 66.2866 42.7455H71.4071C71.7213 42.7455 71.9726 42.4942 71.9726 42.18V39.0596C71.9726 38.7454 71.7108 38.4836 71.4071 38.4836Z" fill="#1F1D21"/>
<path opacity="0.2" d="M71.4071 48.9238H66.2866C65.9725 48.9238 65.7212 49.1751 65.7212 49.4893V52.6307C65.7212 52.9448 65.9725 53.1961 66.2866 53.1961H71.4071C71.7213 53.1961 71.9726 52.9448 71.9726 52.6307V49.4893C71.9726 49.1751 71.7108 48.9238 71.4071 48.9238Z" fill="#1F1D21"/>
<path opacity="0.2" d="M71.4071 43.6984H66.2866C65.9725 43.6984 65.7212 43.9497 65.7212 44.2638V47.3947C65.7212 47.7089 65.9725 47.9602 66.2866 47.9602H71.4071C71.7213 47.9602 71.9726 47.7089 71.9726 47.3947V44.2638C71.9726 43.9497 71.7108 43.6984 71.4071 43.6984Z" fill="#1F1D21"/>
<path opacity="0.2" d="M71.4071 54.1277H66.2866C65.9725 54.1277 65.7212 54.379 65.7212 54.6931V57.8345C65.7212 58.1487 65.9725 58.4 66.2866 58.4H71.4071C71.7213 58.4 71.9726 58.1487 71.9726 57.8345V54.7036C71.9726 54.3895 71.7108 54.1277 71.4071 54.1277Z" fill="#1F1D21"/>
<path d="M68.6008 55.859H61.5117" stroke="white" stroke-width="0.8" stroke-miterlimit="10"/>
<path d="M68.6008 50.7174H61.5117" stroke="white" stroke-width="0.8" stroke-miterlimit="10"/>
<path d="M68.6008 45.5656H61.5117" stroke="white" stroke-width="0.8" stroke-miterlimit="10"/>
<path d="M68.6008 40.4138H61.5117" stroke="white" stroke-width="0.8" stroke-miterlimit="10"/>
<path d="M71.4071 38.1416H66.2866C65.9725 38.1416 65.7212 38.3929 65.7212 38.7071V41.838C65.7212 42.1521 65.9725 42.4034 66.2866 42.4034H71.4071C71.7213 42.4034 71.9726 42.1521 71.9726 41.838V38.7175C71.9726 38.4034 71.7108 38.1416 71.4071 38.1416Z" fill="#50E6FF"/>
<path d="M71.4071 48.5817H66.2866C65.9725 48.5817 65.7212 48.833 65.7212 49.1471V52.2885C65.7212 52.6026 65.9725 52.854 66.2866 52.854H71.4071C71.7213 52.854 71.9726 52.6026 71.9726 52.2885V49.1471C71.9726 48.833 71.7108 48.5817 71.4071 48.5817Z" fill="#3BCAF4"/>
<path d="M71.4071 43.3563H66.2866C65.9725 43.3563 65.7212 43.6076 65.7212 43.9218V47.0527C65.7212 47.3668 65.9725 47.6181 66.2866 47.6181H71.4071C71.7213 47.6181 71.9726 47.3668 71.9726 47.0527V43.9218C71.9726 43.6076 71.7108 43.3563 71.4071 43.3563Z" fill="#50E6FF"/>
<path d="M71.4071 53.7856H66.2866C65.9725 53.7856 65.7212 54.037 65.7212 54.3511V57.4925C65.7212 57.8066 65.9725 58.0579 66.2866 58.0579H71.4071C71.7213 58.0579 71.9726 57.8066 71.9726 57.4925V54.3616C71.9726 54.0474 71.7108 53.7856 71.4071 53.7856Z" fill="#0078D4"/>
<path opacity="0.2" d="M63.3817 62.58C65.4759 62.58 67.1723 60.8837 67.1723 58.7789C67.1723 56.6847 65.4654 54.9988 63.3817 54.9988C61.2979 54.9988 59.5806 56.6951 59.5806 58.7999C59.591 60.8941 61.2874 62.58 63.3817 62.58Z" fill="#1F1D21"/>
<path d="M63.3817 62.1127C65.4759 62.1127 67.1723 60.4164 67.1723 58.3116C67.1723 56.2174 65.4654 54.5315 63.3817 54.5315C61.2979 54.5315 59.5806 56.2278 59.5806 58.3326C59.591 60.4268 61.2874 62.1127 63.3817 62.1127Z" fill="#002D4C"/>
<path d="M63.6852 56.1023H63.0674V60.5421H63.6852V56.1023Z" fill="white"/>
<path d="M65.5912 58.0393H61.1514V58.6676H65.5912V58.0393Z" fill="white"/>
<defs>
<linearGradient id="paint0_linear_1111_2947" x1="49.4213" y1="-13.3528" x2="53.4033" y2="132.417" gradientUnits="userSpaceOnUse">
<stop stop-color="#00ABDE"/>
<stop offset="1" stop-color="#007ED8"/>
</linearGradient>
<linearGradient id="paint1_linear_1111_2947" x1="2.62563" y1="-20.1859" x2="98.1532" y2="120.695" gradientUnits="userSpaceOnUse">
<stop stop-color="#007ED8"/>
<stop offset="0.7065" stop-color="#002D4C"/>
</linearGradient>
<linearGradient id="paint2_linear_1111_2947" x1="82.4141" y1="68.7287" x2="33.6634" y2="33.2481" gradientUnits="userSpaceOnUse">
<stop stop-color="#003067"/>
<stop offset="0.2" stop-color="#003F7C"/>
<stop offset="0.47" stop-color="#004F90"/>
<stop offset="0.74" stop-color="#00589D"/>
<stop offset="1" stop-color="#005BA1"/>
</linearGradient>
<linearGradient id="paint3_linear_1111_2947" x1="71.1415" y1="62.2141" x2="98.4495" y2="79.8257" gradientUnits="userSpaceOnUse">
<stop stop-color="#007ED8"/>
<stop offset="0.7065" stop-color="#002D4C"/>
</linearGradient>
<linearGradient id="paint4_linear_1111_2947" x1="41.4313" y1="64.399" x2="41.4313" y2="33.661" gradientUnits="userSpaceOnUse">
<stop stop-color="#003067"/>
<stop offset="0.2" stop-color="#003F7C"/>
<stop offset="0.47" stop-color="#004F90"/>
<stop offset="0.74" stop-color="#00589D"/>
<stop offset="1" stop-color="#005BA1"/>
</linearGradient>
<linearGradient id="paint5_linear_1111_2947" x1="46.9752" y1="38.7676" x2="63.2367" y2="52.3741" gradientUnits="userSpaceOnUse">
<stop stop-color="#4DC1EA"/>
<stop offset="0.585" stop-color="#0078D4"/>
</linearGradient>
<linearGradient id="paint6_linear_1111_2947" x1="43.8018" y1="42.5601" x2="60.0632" y2="56.1666" gradientUnits="userSpaceOnUse">
<stop stop-color="#4DC1EA"/>
<stop offset="0.585" stop-color="#0078D4"/>
</linearGradient>
<linearGradient id="paint7_linear_1111_2947" x1="41.1012" y1="45.7883" x2="57.3627" y2="59.3948" gradientUnits="userSpaceOnUse">
<stop stop-color="#4DC1EA"/>
<stop offset="0.585" stop-color="#0078D4"/>
</linearGradient>
<linearGradient id="paint8_linear_1111_2947" x1="43.7866" y1="42.5788" x2="60.048" y2="56.1853" gradientUnits="userSpaceOnUse">
<stop stop-color="#4DC1EA"/>
<stop offset="0.585" stop-color="#0078D4"/>
</linearGradient>
</defs>
</svg>
