<svg width="103" height="103" viewBox="0 0 103 103" fill="none" xmlns="http://www.w3.org/2000/svg">
<path d="M51.1953 98.4969C25.3453 98.4969 4.38525 77.547 4.38525 51.687C4.38525 25.827 25.3453 4.87695 51.1953 4.87695C77.0453 4.87695 98.0052 25.837 98.0052 51.687C98.0052 77.537 77.0453 98.4969 51.1953 98.4969Z" fill="url(#paint0_linear_1111_2877)"/>
<path fill-rule="evenodd" clip-rule="evenodd" d="M97.0952 51.6871C97.0952 77.0371 76.5452 97.5871 51.1952 97.5871C25.8452 97.5871 5.29518 77.0371 5.29518 51.6871C5.29518 26.3371 25.8452 5.78712 51.1952 5.78712C76.5452 5.78712 97.0952 26.3371 97.0952 51.6871ZM51.1952 2.04712C78.6152 2.04712 100.835 24.2671 100.835 51.6871C100.835 79.1071 78.6052 101.327 51.1952 101.327C23.7752 101.327 1.55518 79.0971 1.55518 51.6871C1.55518 24.2671 23.7752 2.04712 51.1952 2.04712Z" fill="#F2F1F0"/>
<path fill-rule="evenodd" clip-rule="evenodd" d="M94.2852 51.6871C94.2852 75.4871 74.9952 94.7771 51.1952 94.7771C27.3952 94.7771 8.10523 75.4871 8.10523 51.6871C8.10523 27.8871 27.3952 8.59706 51.1952 8.59706C74.9952 8.59706 94.2852 27.8871 94.2852 51.6871ZM51.1952 4.85706C77.0552 4.85706 98.0252 25.8271 98.0252 51.6871C98.0252 77.5471 77.0552 98.5171 51.1952 98.5171C25.3352 98.5171 4.36523 77.5471 4.36523 51.6871C4.36523 25.8271 25.3252 4.85706 51.1952 4.85706Z" fill="url(#paint1_linear_1111_2877)"/>
<path opacity="0.15" d="M22.2723 77.9477H80.1183C81.7386 77.9477 83.0551 76.6312 83.0551 75.0109V28.882H19.3354V75.0109C19.3354 76.6312 20.652 77.9477 22.2723 77.9477Z" fill="#1F1D20"/>
<g filter="url(#filter0_d_1111_2877)">
<path d="M20.5507 77.1165H81.8399C82.5083 77.1165 83.0551 76.5697 83.0551 75.9013V28.0508H19.3354V75.9013C19.3354 76.5697 19.8823 77.1165 20.5507 77.1165Z" fill="#EBEBEB"/>
</g>
<path d="M19.3354 33.347H83.0551V27.6353C83.0551 27.1188 82.6399 26.7036 82.1234 26.7036H20.2671C19.7507 26.7036 19.3354 27.1188 19.3354 27.6353V33.347V33.347Z" fill="#092E4C"/>
<path d="M24.237 31.7774C25.1282 31.7774 25.8574 31.0584 25.8574 30.1571C25.8574 29.2558 25.1181 28.5469 24.237 28.5469C23.3459 28.5469 22.6167 29.2659 22.6167 30.1672C22.6167 31.0685 23.3256 31.7774 24.237 31.7774Z" fill="#32B0E7"/>
<path opacity="0.15" d="M57.6089 38.9761H26.8931C26.4483 38.9761 26.0791 39.3358 26.0791 39.7901V71.7458C26.0791 72.1907 26.4388 72.5599 26.8931 72.5599H57.6089C58.0537 72.5599 58.4229 72.2002 58.4229 71.7458V39.7901C58.4134 39.3358 58.0537 38.9761 57.6089 38.9761Z" fill="#1F1D20"/>
<g filter="url(#filter1_d_1111_2877)">
<path d="M57.6089 37.7905H26.8931C26.4483 37.7905 26.0791 38.1502 26.0791 38.6046V70.5603C26.0791 71.0052 26.4388 71.3743 26.8931 71.3743H57.6089C58.0537 71.3743 58.4229 71.0146 58.4229 70.5603V38.6046C58.4134 38.1502 58.0537 37.7905 57.6089 37.7905Z" fill="url(#paint2_linear_1111_2877)"/>
</g>
<path d="M29.9981 41.1968H29.7141C29.5343 41.1968 29.3828 41.3482 29.3828 41.5281V41.6606C29.3828 41.8404 29.5343 41.9919 29.7141 41.9919H29.9981C30.1779 41.9919 30.3294 41.8404 30.3294 41.6606V41.5281C30.3294 41.3388 30.1874 41.1968 29.9981 41.1968Z" fill="#E9FCFE"/>
<path d="M30.3294 43.0914H29.3828V43.8865H30.3294V43.0914Z" fill="#D5F9FD"/>
<path d="M30.3294 44.8329H29.3828V45.628H30.3294V44.8329Z" fill="#ACF3FD"/>
<path d="M30.3294 46.7267H29.3828V47.5218H30.3294V46.7267Z" fill="#84ECFD"/>
<path d="M30.3294 48.6281H29.3828V49.4232H30.3294V48.6281Z" fill="#50E6FF"/>
<path d="M30.3294 50.3605H29.3828V51.1556H30.3294V50.3605Z" fill="#45CAF2"/>
<path d="M30.3294 52.2627H29.3828V53.0578H30.3294V52.2627Z" fill="#32B0E7"/>
<path d="M30.3294 54.0045H29.3828V54.7996H30.3294V54.0045Z" fill="#2195DC"/>
<path d="M30.3294 56.0579H29.3828V56.853H30.3294V56.0579Z" fill="#0078D4"/>
<path d="M30.3294 57.8H29.3828V58.5952H30.3294V57.8Z" fill="#156AB3"/>
<path d="M30.0265 59.6943H29.6857C29.5153 59.6943 29.3828 59.8269 29.3828 59.9972V60.1771C29.3828 60.3475 29.5153 60.48 29.6857 60.48H30.0265C30.1969 60.48 30.3294 60.3475 30.3294 60.1771V59.9972C30.3294 59.8269 30.1969 59.6943 30.0265 59.6943Z" fill="#185A97"/>
<path d="M30.0644 61.4075H29.7804C29.6101 61.4075 29.4775 61.54 29.4775 61.7104V61.8429C29.4775 62.0133 29.6101 62.1458 29.7804 62.1458H30.0644C30.2348 62.1458 30.3673 62.0133 30.3673 61.8429V61.7104C30.3673 61.5495 30.2348 61.4075 30.0644 61.4075Z" fill="#1D4A79"/>
<path d="M30.0644 63.3278H29.7804C29.6101 63.3278 29.4775 63.4603 29.4775 63.6307V63.7632C29.4775 63.9336 29.6101 64.0661 29.7804 64.0661H30.0644C30.2348 64.0661 30.3673 63.9336 30.3673 63.7632V63.6307C30.3673 63.4603 30.2348 63.3278 30.0644 63.3278Z" fill="#243A5E"/>
<path d="M30.0644 65.2499H29.7804C29.6101 65.2499 29.4775 65.3824 29.4775 65.5528V65.6853C29.4775 65.8557 29.6101 65.9882 29.7804 65.9882H30.0644C30.2348 65.9882 30.3673 65.8557 30.3673 65.6853V65.5528C30.3673 65.3824 30.2348 65.2499 30.0644 65.2499Z" fill="#1A2C45"/>
<path d="M30.0644 67.1705H29.7804C29.6101 67.1705 29.4775 67.303 29.4775 67.4734V67.6059C29.4775 67.7763 29.6101 67.9088 29.7804 67.9088H30.0644C30.2348 67.9088 30.3673 67.7763 30.3673 67.6059V67.4734C30.3673 67.303 30.2348 67.1705 30.0644 67.1705Z" fill="#141E2F"/>
<path d="M35.3935 44.8329H32.8662V45.628H35.3935V44.8329Z" fill="#ACF3FD"/>
<path d="M45.2094 41.1885H33.2544C33.0462 41.1885 32.8853 41.3494 32.8853 41.5576C32.8853 41.7659 33.0462 41.9268 33.2544 41.9268H45.2094C45.4176 41.9268 45.5786 41.7659 45.5786 41.5576C45.5786 41.3494 45.4082 41.1885 45.2094 41.1885Z" fill="#E9FCFE"/>
<path d="M49.1944 44.8801H36.6431C36.4348 44.8801 36.2739 45.041 36.2739 45.2493C36.2739 45.4575 36.4348 45.6184 36.6431 45.6184H49.1944C49.4026 45.6184 49.5636 45.4575 49.5636 45.2493C49.5636 45.041 49.3932 44.8801 49.1944 44.8801Z" fill="#ACF3FD"/>
<path d="M41.2243 46.7267H33.4058C33.1975 46.7267 33.0366 46.8876 33.0366 47.0958C33.0366 47.3041 33.1975 47.465 33.4058 47.465H41.2243C41.4326 47.465 41.5935 47.3041 41.5935 47.0958C41.5935 46.8876 41.4231 46.7267 41.2243 46.7267Z" fill="#84ECFD"/>
<path d="M48.7495 50.342H36.6431C36.4348 50.342 36.2739 50.503 36.2739 50.7112C36.2739 50.9194 36.4348 51.0804 36.6431 51.0804H48.7495C48.9578 51.0804 49.1187 50.9194 49.1187 50.7112C49.1187 50.503 48.9578 50.342 48.7495 50.342Z" fill="#45CAF2"/>
<path d="M47.5659 52.2535H33.396C33.1878 52.2535 33.0269 52.4145 33.0269 52.6227C33.0269 52.8309 33.1878 52.9919 33.396 52.9919H47.5659C47.7742 52.9919 47.9351 52.8309 47.9351 52.6227C47.9351 52.4239 47.7742 52.2535 47.5659 52.2535Z" fill="#32B0E7"/>
<path d="M51.7024 56.0972H33.396C33.1878 56.0972 33.0269 56.2581 33.0269 56.4663C33.0269 56.6746 33.1878 56.8355 33.396 56.8355H51.7024C51.9106 56.8355 52.0715 56.6746 52.0715 56.4663C52.0715 56.2581 51.9106 56.0972 51.7024 56.0972Z" fill="#0078D4"/>
<path d="M42.4075 57.8669H33.4058C33.1975 57.8669 33.0366 58.0279 33.0366 58.2361C33.0366 58.4443 33.1975 58.6053 33.4058 58.6053H42.4075C42.6158 58.6053 42.7767 58.4443 42.7767 58.2361C42.7767 58.0373 42.6063 57.8669 42.4075 57.8669Z" fill="#156AB3"/>
<path d="M40.7794 61.4075H36.7944C36.5862 61.4075 36.4253 61.5684 36.4253 61.7766C36.4253 61.9849 36.5862 62.1458 36.7944 62.1458H40.7794C40.9877 62.1458 41.1486 61.9849 41.1486 61.7766C41.1486 61.5779 40.9877 61.4075 40.7794 61.4075Z" fill="#1D4A79"/>
<path d="M50.6707 61.4075H42.4072C42.199 61.4075 42.0381 61.5684 42.0381 61.7766C42.0381 61.9849 42.199 62.1458 42.4072 62.1458H50.6707C50.8789 62.1458 51.0398 61.9849 51.0398 61.7766C51.0398 61.5779 50.8694 61.4075 50.6707 61.4075Z" fill="#1D4A79"/>
<path d="M43.7324 63.3278H33.396C33.1878 63.3278 33.0269 63.4887 33.0269 63.6969C33.0269 63.9052 33.1878 64.0661 33.396 64.0661H43.7324C43.9406 64.0661 44.1016 63.9052 44.1016 63.6969C44.1016 63.4981 43.9312 63.3278 43.7324 63.3278Z" fill="#243A5E"/>
<path d="M52.8856 65.2499H33.396C33.1878 65.2499 33.0269 65.4108 33.0269 65.619C33.0269 65.8273 33.1878 65.9882 33.396 65.9882H52.8856C53.0938 65.9882 53.2547 65.8273 53.2547 65.619C53.2547 65.4108 53.0844 65.2499 52.8856 65.2499Z" fill="#1A2C45"/>
<path d="M43.2878 67.1705H36.7944C36.5862 67.1705 36.4253 67.3314 36.4253 67.5397C36.4253 67.7479 36.5862 67.9088 36.7944 67.9088H43.2878C43.4961 67.9088 43.657 67.7479 43.657 67.5397C43.657 67.3314 43.4961 67.1705 43.2878 67.1705Z" fill="#141E2F"/>
<path opacity="0.2" d="M39.8305 65.0694C40.1923 65.0694 40.485 64.7767 40.485 64.4149V48.9419H23.9497V64.4149C23.9497 64.7767 24.2424 65.0694 24.6041 65.0694H39.8305Z" fill="#1F1D21"/>
<path d="M40.485 48.9352V48.6787C40.485 48.3597 40.2285 48.1031 39.9095 48.1031H24.5252C24.2062 48.1031 23.9497 48.3597 23.9497 48.6787V48.9615V49.2213V63.9445C23.9497 64.2635 24.2062 64.52 24.5252 64.52H39.916C40.235 64.52 40.4916 64.2635 40.4916 63.9445V48.9615C40.4883 48.9516 40.485 48.945 40.485 48.9352Z" fill="url(#paint3_linear_1111_2877)"/>
<path opacity="0.2" d="M38.6318 66.3411C38.9936 66.3411 39.2862 66.0484 39.2862 65.6867V50.2136H22.751V65.6867C22.751 66.0484 23.0437 66.3411 23.4054 66.3411H38.6318Z" fill="#1F1D21"/>
<g filter="url(#filter2_d_1111_2877)">
<path d="M39.2862 50.2073V49.9508C39.2862 49.6318 39.0297 49.3752 38.7107 49.3752H23.3265C23.0075 49.3752 22.751 49.6318 22.751 49.9508V50.2336V50.4934V65.2166C22.751 65.5356 23.0075 65.7921 23.3265 65.7921H38.7173C39.0363 65.7921 39.2928 65.5356 39.2928 65.2166V50.2336C39.2895 50.2237 39.2862 50.2171 39.2862 50.2073Z" fill="white"/>
</g>
<path d="M34.1667 62.4691H30.7434C30.6456 62.4715 30.5483 62.4531 30.4581 62.4149C30.3716 62.3795 30.293 62.3271 30.2271 62.2608C30.1602 62.1954 30.1077 62.1167 30.073 62.0297C30.0365 61.9441 30.018 61.8519 30.0188 61.7587C30.016 61.6609 30.0345 61.5635 30.073 61.4735C30.1077 61.3865 30.1602 61.3078 30.2271 61.2424C30.293 61.1761 30.3716 61.1237 30.4581 61.0884C30.5483 61.0502 30.6456 61.0317 30.7434 61.0342H34.1667C34.3549 61.0349 34.5353 61.1097 34.6687 61.2424C34.7348 61.3082 34.7873 61.3865 34.823 61.4726C34.8587 61.5588 34.8771 61.6512 34.877 61.7445C34.8771 61.8378 34.8587 61.9302 34.823 62.0163C34.7873 62.1025 34.7348 62.1807 34.6687 62.2466C34.6042 62.3154 34.5265 62.3705 34.4403 62.4088C34.354 62.447 34.261 62.4675 34.1667 62.4691V62.4691Z" fill="url(#paint4_linear_1111_2877)"/>
<path d="M28.5952 52.231L32.7658 56.5785C32.8609 56.6781 32.9338 56.7967 32.9798 56.9265C33.0256 57.0563 33.0422 57.1946 33.0283 57.3316C33.0149 57.469 32.9732 57.6021 32.9056 57.7224C32.8336 57.8427 32.7362 57.9459 32.6203 58.0248L26.2959 62.5064C26.2086 62.5693 26.1097 62.6142 26.0049 62.6387C25.9001 62.6632 25.7916 62.6667 25.6854 62.649C25.4714 62.6122 25.28 62.4936 25.152 62.3181C25.0264 62.1411 24.9752 61.922 25.0093 61.7076C25.045 61.4931 25.1639 61.3014 25.3402 61.1742L30.9572 57.1519L27.4113 53.3407C27.2674 53.1862 27.1905 52.9811 27.1974 52.7701C27.1995 52.6629 27.2231 52.5572 27.2667 52.4592C27.3103 52.3612 27.373 52.273 27.4512 52.1996C27.6047 52.0531 27.8097 51.9731 28.0218 51.9771C28.1295 51.9787 28.2358 52.002 28.3343 52.0456C28.4329 52.0893 28.5216 52.1523 28.5952 52.231V52.231Z" fill="url(#paint5_linear_1111_2877)"/>
<path opacity="0.15" d="M66.9629 38.9795H60.3762C60.3125 38.9795 60.2515 39.0048 60.2065 39.0498C60.1615 39.0948 60.1362 39.1558 60.1362 39.2195V72.2926C60.1362 72.3238 60.1425 72.3546 60.1546 72.3833C60.1668 72.412 60.1846 72.438 60.207 72.4597C60.2293 72.4813 60.2559 72.4981 60.2849 72.5094C60.314 72.5206 60.345 72.5259 60.3762 72.5248H66.9629C66.9941 72.5259 67.0251 72.5206 67.0542 72.5094C67.0832 72.4981 67.1098 72.4813 67.1321 72.4597C67.1545 72.438 67.1723 72.412 67.1845 72.3833C67.1966 72.3546 67.2029 72.3238 67.2029 72.2926V39.1962C67.1971 39.1367 67.1693 39.0815 67.1249 39.0414C67.0805 39.0013 67.0227 38.9792 66.9629 38.9795V38.9795Z" fill="#1F1D20"/>
<path opacity="0.15" d="M75.7944 38.9797H69.2463C69.1827 38.9797 69.1216 39.005 69.0766 39.05C69.0316 39.095 69.0063 39.1561 69.0063 39.2197V72.2928C69.0063 72.324 69.0126 72.3548 69.0247 72.3835C69.0369 72.4122 69.0547 72.4382 69.0771 72.4599C69.0995 72.4815 69.126 72.4984 69.155 72.5096C69.1841 72.5208 69.2151 72.5261 69.2463 72.5251H75.8331C75.8642 72.5261 75.8952 72.5208 75.9243 72.5096C75.9534 72.4984 75.9799 72.4815 76.0023 72.4599C76.0247 72.4382 76.0425 72.4122 76.0546 72.3835C76.0668 72.3548 76.073 72.324 76.073 72.2928V39.1965C76.0702 39.1634 76.0607 39.1312 76.0449 39.1021C76.0291 39.0729 76.0074 39.0473 75.9812 39.027C75.955 39.0066 75.9249 38.9919 75.8927 38.9838C75.8606 38.9756 75.8271 38.9742 75.7944 38.9797V38.9797Z" fill="#1F1D20"/>
<g filter="url(#filter3_d_1111_2877)">
<path d="M66.9629 37.7957H60.3762C60.345 37.7946 60.314 37.8 60.2849 37.8112C60.2559 37.8224 60.2293 37.8393 60.207 37.8609C60.1846 37.8826 60.1668 37.9085 60.1546 37.9372C60.1425 37.9659 60.1362 37.9967 60.1362 38.0279V71.101C60.1362 71.1647 60.1615 71.2257 60.2065 71.2707C60.2515 71.3157 60.3125 71.341 60.3762 71.341H66.9629C67.0266 71.341 67.0876 71.3157 67.1326 71.2707C67.1776 71.2257 67.2029 71.1647 67.2029 71.101V38.0279C67.2029 37.9967 67.1966 37.9659 67.1845 37.9372C67.1723 37.9085 67.1545 37.8826 67.1321 37.8609C67.1098 37.8393 67.0832 37.8224 67.0542 37.8112C67.0251 37.8 66.9941 37.7946 66.9629 37.7957V37.7957Z" fill="url(#paint6_linear_1111_2877)"/>
</g>
<g filter="url(#filter4_d_1111_2877)">
<path d="M75.7944 37.7952H69.2463C69.2151 37.7942 69.1841 37.7995 69.155 37.8107C69.126 37.8219 69.0995 37.8388 69.0771 37.8605C69.0547 37.8822 69.0369 37.9081 69.0247 37.9367C69.0126 37.9654 69.0063 37.9963 69.0063 38.0275V71.1006C69.0063 71.1642 69.0316 71.2253 69.0766 71.2703C69.1216 71.3153 69.1827 71.3406 69.2463 71.3406H75.8331C75.8967 71.3406 75.9577 71.3153 76.0027 71.2703C76.0477 71.2253 76.073 71.1642 76.073 71.1006V38.0275C76.0737 37.9926 76.0666 37.9581 76.0521 37.9264C76.0377 37.8948 76.0163 37.8666 75.9895 37.8443C75.9627 37.822 75.9313 37.8061 75.8975 37.7976C75.8637 37.7891 75.8285 37.7882 75.7944 37.7952V37.7952Z" fill="url(#paint7_linear_1111_2877)"/>
</g>
<path d="M64.5092 66.952H62.729V68.7323H64.5092V66.952Z" fill="#50E6FF"/>
<path d="M64.5092 63.415H62.729V65.1952H64.5092V63.415Z" fill="#ACF3FD"/>
<path d="M73.3794 66.952H71.6069V68.7323H73.3794V66.952Z" fill="#50E6FF"/>
<path d="M73.3794 63.415H71.6069V65.1952H73.3794V63.415Z" fill="#ACF3FD"/>
<defs>
<filter id="filter0_d_1111_2877" x="15.3354" y="27.0508" width="71.7197" height="57.0658" filterUnits="userSpaceOnUse" color-interpolation-filters="sRGB">
<feFlood flood-opacity="0" result="BackgroundImageFix"/>
<feColorMatrix in="SourceAlpha" type="matrix" values="0 0 0 0 0 0 0 0 0 0 0 0 0 0 0 0 0 0 127 0" result="hardAlpha"/>
<feOffset dy="3"/>
<feGaussianBlur stdDeviation="2"/>
<feComposite in2="hardAlpha" operator="out"/>
<feColorMatrix type="matrix" values="0 0 0 0 0 0 0 0 0 0 0 0 0 0 0 0 0 0 0.25 0"/>
<feBlend mode="normal" in2="BackgroundImageFix" result="effect1_dropShadow_1111_2877"/>
<feBlend mode="normal" in="SourceGraphic" in2="effect1_dropShadow_1111_2877" result="shape"/>
</filter>
<filter id="filter1_d_1111_2877" x="22.0791" y="35.7905" width="40.3438" height="41.5837" filterUnits="userSpaceOnUse" color-interpolation-filters="sRGB">
<feFlood flood-opacity="0" result="BackgroundImageFix"/>
<feColorMatrix in="SourceAlpha" type="matrix" values="0 0 0 0 0 0 0 0 0 0 0 0 0 0 0 0 0 0 127 0" result="hardAlpha"/>
<feOffset dy="2"/>
<feGaussianBlur stdDeviation="2"/>
<feComposite in2="hardAlpha" operator="out"/>
<feColorMatrix type="matrix" values="0 0 0 0 0 0 0 0 0 0 0 0 0 0 0 0 0 0 0.25 0"/>
<feBlend mode="normal" in2="BackgroundImageFix" result="effect1_dropShadow_1111_2877"/>
<feBlend mode="normal" in="SourceGraphic" in2="effect1_dropShadow_1111_2877" result="shape"/>
</filter>
<filter id="filter2_d_1111_2877" x="18.751" y="49.3752" width="24.542" height="24.4169" filterUnits="userSpaceOnUse" color-interpolation-filters="sRGB">
<feFlood flood-opacity="0" result="BackgroundImageFix"/>
<feColorMatrix in="SourceAlpha" type="matrix" values="0 0 0 0 0 0 0 0 0 0 0 0 0 0 0 0 0 0 127 0" result="hardAlpha"/>
<feOffset dy="4"/>
<feGaussianBlur stdDeviation="2"/>
<feComposite in2="hardAlpha" operator="out"/>
<feColorMatrix type="matrix" values="0 0 0 0 0 0 0 0 0 0 0 0 0 0 0 0 0 0 0.25 0"/>
<feBlend mode="normal" in2="BackgroundImageFix" result="effect1_dropShadow_1111_2877"/>
<feBlend mode="normal" in="SourceGraphic" in2="effect1_dropShadow_1111_2877" result="shape"/>
</filter>
<filter id="filter3_d_1111_2877" x="56.1362" y="35.7955" width="15.0664" height="41.5455" filterUnits="userSpaceOnUse" color-interpolation-filters="sRGB">
<feFlood flood-opacity="0" result="BackgroundImageFix"/>
<feColorMatrix in="SourceAlpha" type="matrix" values="0 0 0 0 0 0 0 0 0 0 0 0 0 0 0 0 0 0 127 0" result="hardAlpha"/>
<feOffset dy="2"/>
<feGaussianBlur stdDeviation="2"/>
<feComposite in2="hardAlpha" operator="out"/>
<feColorMatrix type="matrix" values="0 0 0 0 0 0 0 0 0 0 0 0 0 0 0 0 0 0 0.25 0"/>
<feBlend mode="normal" in2="BackgroundImageFix" result="effect1_dropShadow_1111_2877"/>
<feBlend mode="normal" in="SourceGraphic" in2="effect1_dropShadow_1111_2877" result="shape"/>
</filter>
<filter id="filter4_d_1111_2877" x="65.0063" y="35.7905" width="15.0669" height="41.55" filterUnits="userSpaceOnUse" color-interpolation-filters="sRGB">
<feFlood flood-opacity="0" result="BackgroundImageFix"/>
<feColorMatrix in="SourceAlpha" type="matrix" values="0 0 0 0 0 0 0 0 0 0 0 0 0 0 0 0 0 0 127 0" result="hardAlpha"/>
<feOffset dy="2"/>
<feGaussianBlur stdDeviation="2"/>
<feComposite in2="hardAlpha" operator="out"/>
<feColorMatrix type="matrix" values="0 0 0 0 0 0 0 0 0 0 0 0 0 0 0 0 0 0 0.25 0"/>
<feBlend mode="normal" in2="BackgroundImageFix" result="effect1_dropShadow_1111_2877"/>
<feBlend mode="normal" in="SourceGraphic" in2="effect1_dropShadow_1111_2877" result="shape"/>
</filter>
<linearGradient id="paint0_linear_1111_2877" x1="49.4213" y1="-13.1025" x2="53.4033" y2="132.668" gradientUnits="userSpaceOnUse">
<stop stop-color="#00ABDE"/>
<stop offset="1" stop-color="#007ED8"/>
</linearGradient>
<linearGradient id="paint1_linear_1111_2877" x1="2.62563" y1="-19.9355" x2="98.1532" y2="120.946" gradientUnits="userSpaceOnUse">
<stop stop-color="#007ED8"/>
<stop offset="0.7065" stop-color="#002D4C"/>
</linearGradient>
<linearGradient id="paint2_linear_1111_2877" x1="42.251" y1="71.3743" x2="42.251" y2="37.7303" gradientUnits="userSpaceOnUse">
<stop stop-color="#003067"/>
<stop offset="0.2" stop-color="#003F7C"/>
<stop offset="0.47" stop-color="#004F90"/>
<stop offset="0.74" stop-color="#00589D"/>
<stop offset="1" stop-color="#005BA1"/>
</linearGradient>
<linearGradient id="paint3_linear_1111_2877" x1="25.267" y1="49.6354" x2="69.3876" y2="86.239" gradientUnits="userSpaceOnUse">
<stop stop-color="#4DC1EA"/>
<stop offset="0.585" stop-color="#0078D4"/>
</linearGradient>
<linearGradient id="paint4_linear_1111_2877" x1="26.4701" y1="50.2452" x2="37.5415" y2="71.5321" gradientUnits="userSpaceOnUse">
<stop stop-color="#007ED8"/>
<stop offset="0.71" stop-color="#002D4C"/>
</linearGradient>
<linearGradient id="paint5_linear_1111_2877" x1="24.6784" y1="51.1755" x2="35.7498" y2="72.4652" gradientUnits="userSpaceOnUse">
<stop stop-color="#007ED8"/>
<stop offset="0.71" stop-color="#002D4C"/>
</linearGradient>
<linearGradient id="paint6_linear_1111_2877" x1="63.6734" y1="71.341" x2="63.6734" y2="37.7337" gradientUnits="userSpaceOnUse">
<stop stop-color="#003067"/>
<stop offset="0.2" stop-color="#003F7C"/>
<stop offset="0.47" stop-color="#004F90"/>
<stop offset="0.74" stop-color="#00589D"/>
<stop offset="1" stop-color="#005BA1"/>
</linearGradient>
<linearGradient id="paint7_linear_1111_2877" x1="72.4971" y1="71.3406" x2="72.4971" y2="37.7333" gradientUnits="userSpaceOnUse">
<stop stop-color="#003067"/>
<stop offset="0.2" stop-color="#003F7C"/>
<stop offset="0.47" stop-color="#004F90"/>
<stop offset="0.74" stop-color="#00589D"/>
<stop offset="1" stop-color="#005BA1"/>
</linearGradient>
</defs>
</svg>
