<svg width="103" height="103" viewBox="0 0 103 103" fill="none" xmlns="http://www.w3.org/2000/svg">
<path d="M51.7221 97.9994C25.8721 97.9994 4.91211 77.0494 4.91211 51.1894C4.91211 25.3294 25.8721 4.37939 51.7221 4.37939C77.5721 4.37939 98.5321 25.3394 98.5321 51.1894C98.5321 77.0394 77.5721 97.9994 51.7221 97.9994Z" fill="url(#paint0_linear)"/>
<path fill-rule="evenodd" clip-rule="evenodd" d="M97.622 51.1896C97.622 76.5396 77.072 97.0896 51.722 97.0896C26.372 97.0896 5.82203 76.5396 5.82203 51.1896C5.82203 25.8396 26.372 5.28956 51.722 5.28956C77.072 5.28956 97.622 25.8396 97.622 51.1896ZM51.722 1.54956C79.142 1.54956 101.362 23.7696 101.362 51.1896C101.362 78.6096 79.132 100.83 51.722 100.83C24.302 100.83 2.08203 78.5996 2.08203 51.1896C2.08203 23.7696 24.302 1.54956 51.722 1.54956Z" fill="#F2F1F0"/>
<path fill-rule="evenodd" clip-rule="evenodd" d="M94.8126 51.1894C94.8126 74.9894 75.5226 94.2794 51.7226 94.2794C27.9226 94.2794 8.63258 74.9894 8.63258 51.1894C8.63258 27.3894 27.9226 8.09937 51.7226 8.09937C75.5226 8.09937 94.8126 27.3894 94.8126 51.1894ZM51.7226 4.35938C77.5826 4.35938 98.5526 25.3294 98.5526 51.1894C98.5526 77.0494 77.5826 98.0194 51.7226 98.0194C25.8626 98.0194 4.89258 77.0494 4.89258 51.1894C4.89258 25.3294 25.8526 4.35938 51.7226 4.35938Z" fill="url(#paint1_linear)"/>
<path opacity="0.15" d="M90.5725 47.4795C90.5725 46.6395 89.8825 45.9495 89.0425 45.9495C88.4925 45.9495 85.0525 45.6495 83.2125 44.2095C83.2125 44.2095 83.2225 44.1895 83.2125 44.2095C82.5125 41.6695 81.4925 39.2895 80.2325 37.0395C79.9125 34.8995 82.1225 33.3495 83.1325 31.6895C83.3125 31.3995 83.4125 31.2295 83.4725 31.1195C83.6625 30.5795 83.5525 29.9495 83.1325 29.5295C83.1325 29.5295 81.4325 27.0995 79.6925 25.3695C77.9525 23.6395 75.3125 21.7095 75.3125 21.7095C74.7225 21.1195 73.7425 21.1195 73.1425 21.7095C72.7425 22.0995 70.1325 24.2495 67.7725 24.5995C67.7425 24.5995 67.7425 24.5995 67.7425 24.5995C65.5525 23.3595 63.0925 22.3395 60.6225 21.6395H60.5925C58.8525 20.3595 59.3125 17.6995 58.8525 15.8095C58.8525 14.9695 58.1625 14.2795 57.3225 14.2795C57.3225 14.2795 54.4025 13.7695 51.9425 13.7695C49.4825 13.7695 46.2625 14.2795 46.2625 14.2795C45.4225 14.2795 44.7325 14.9695 44.7325 15.8095C44.7325 16.3595 44.4325 19.7995 42.9925 21.6395C40.5525 22.3295 37.9925 23.4095 35.8225 24.6195C33.6825 24.9395 32.1325 22.7295 30.4725 21.7195C30.1825 21.5395 30.0125 21.4395 29.9025 21.3795C29.3625 21.1895 28.7325 21.2995 28.3125 21.7195C28.3125 21.7195 25.8825 23.4195 24.1525 25.1595C22.4225 26.8995 20.4925 29.5395 20.4925 29.5395C19.9025 30.1295 19.9025 31.1095 20.4925 31.7095C20.8825 32.0995 23.0925 34.7495 23.3925 37.0595V37.0795C22.1825 39.2495 21.1225 41.7995 20.4325 44.2395C20.4325 44.2395 20.4625 44.1995 20.4325 44.2395C18.9425 46.0495 16.4925 45.5195 14.6025 45.9795C13.7625 45.9795 13.0725 46.6695 13.0725 47.5095C13.0725 47.5095 12.5625 50.4295 12.5625 52.8895C12.5625 55.3495 13.0725 58.5695 13.0725 58.5695C13.0725 59.4095 13.7625 60.0995 14.6025 60.0995C15.1525 60.0995 18.5925 60.3995 20.4325 61.8395C20.4725 61.8195 20.4525 61.8695 20.4525 61.8695C21.1625 64.3195 22.1725 66.7695 23.4025 68.9295C23.3825 68.9595 23.4025 68.9295 23.4125 68.9995C23.6225 71.2295 21.5225 72.6895 20.5125 74.3495C20.3325 74.6395 20.2325 74.8095 20.1725 74.9195C19.9825 75.4595 20.0925 76.0895 20.5125 76.5095C20.5125 76.5095 22.2125 78.9395 23.9525 80.6695C25.6925 82.4095 28.3325 84.3295 28.3325 84.3295C28.9225 84.9195 29.9025 84.9195 30.5025 84.3295C30.8925 83.9395 33.5425 81.7295 35.8525 81.4295C35.8525 81.4295 35.8425 81.4395 35.8825 81.4495C38.1125 82.6895 40.4125 83.6695 42.9325 84.3595C42.9525 84.3695 43.0225 84.3895 43.0225 84.3895C44.7625 85.6695 44.3025 88.3295 44.7625 90.2195C44.8525 91.0695 45.3225 91.6195 46.2925 91.7495C46.2925 91.7495 49.2125 92.2595 51.6725 92.2595C54.1325 92.2595 57.3525 91.7595 57.3525 91.7595C58.1925 91.6095 58.8825 91.0695 58.8825 90.2295C58.8825 89.6795 59.1825 86.2395 60.6225 84.3995C60.6225 84.3995 60.6825 84.3495 60.7525 84.2995C63.3125 83.5795 65.2625 82.7895 67.5225 81.4895C67.6325 81.4495 67.5125 81.4595 67.7825 81.4195C69.9225 81.0995 71.4725 83.3095 73.1325 84.3195C73.4225 84.4995 73.5925 84.5995 73.7025 84.6595C74.2425 84.8495 74.8725 84.7395 75.2925 84.3195C75.2925 84.3195 77.7225 82.6195 79.4525 80.8795C81.1925 79.1395 83.1125 76.4995 83.1125 76.4995C83.7025 75.9095 83.7025 74.9295 83.1125 74.3295C82.7225 73.9395 80.5125 71.2895 80.2125 68.9795C80.1825 68.7395 80.2025 68.7095 80.2325 68.6495C81.5225 66.3695 82.3325 64.6995 83.0425 62.1195C83.0425 62.1195 83.0125 62.0395 83.1825 61.8195C84.4625 60.0795 87.1225 60.5395 89.0125 60.0795C89.8525 60.0795 90.5425 59.3895 90.5425 58.5495C90.5425 58.5495 91.0525 55.6295 91.0525 53.1695C91.0525 50.7095 90.5725 47.4795 90.5725 47.4795Z" fill="#1F1D20"/>
<path d="M90.5725 45.3894C90.5725 44.5494 89.8825 43.8594 89.0425 43.8594C88.4925 43.8594 85.0525 43.5594 83.2125 42.1194C83.2125 42.1194 83.2225 42.0994 83.2125 42.1194C82.5125 39.5794 81.4925 37.1994 80.2325 34.9494C79.9125 32.8094 82.1225 31.2594 83.1325 29.5994C83.3125 29.3094 83.4125 29.1394 83.4725 29.0294C83.6625 28.4894 83.5525 27.8594 83.1325 27.4394C83.1325 27.4394 81.4325 25.0094 79.6925 23.2794C77.9525 21.5494 75.3125 19.6194 75.3125 19.6194C74.7225 19.0294 73.7425 19.0294 73.1425 19.6194C72.7425 20.0094 70.1325 22.1594 67.7725 22.5094C67.7425 22.5094 67.7425 22.5094 67.7425 22.5094C65.5525 21.2694 63.0925 20.2494 60.6225 19.5494H60.5925C58.8525 18.2694 59.3125 15.6094 58.8525 13.7194C58.8525 12.8794 58.1625 12.1894 57.3225 12.1894C57.3225 12.1894 54.4025 11.6794 51.9425 11.6794C49.4825 11.6794 46.2625 12.1894 46.2625 12.1894C45.4225 12.1894 44.7325 12.8794 44.7325 13.7194C44.7325 14.2694 44.4325 17.7094 42.9925 19.5494C40.5525 20.2394 37.9925 21.3194 35.8225 22.5294C33.6825 22.8494 32.1325 20.6394 30.4725 19.6294C30.1825 19.4494 30.0125 19.3494 29.9025 19.2894C29.3625 19.0994 28.7325 19.2094 28.3125 19.6294C28.3125 19.6294 25.8825 21.3294 24.1525 23.0694C22.4225 24.8094 20.4925 27.4494 20.4925 27.4494C19.9025 28.0394 19.9025 29.0194 20.4925 29.6194C20.8825 30.0094 23.0925 32.6594 23.3925 34.9694V34.9894C22.1825 37.1594 21.1225 39.7094 20.4325 42.1494C20.4325 42.1494 20.4625 42.1094 20.4325 42.1494C18.9425 43.9594 16.4925 43.4294 14.6025 43.8894C13.7625 43.8894 13.0725 44.5794 13.0725 45.4194C13.0725 45.4194 12.5625 48.3394 12.5625 50.7994C12.5625 53.2594 13.0725 56.4794 13.0725 56.4794C13.0725 57.3194 13.7625 58.0094 14.6025 58.0094C15.1525 58.0094 18.5925 58.3094 20.4325 59.7494C20.4725 59.7294 20.4525 59.7794 20.4525 59.7794C21.1625 62.2294 22.1725 64.6794 23.4025 66.8394C23.3825 66.8694 23.4025 66.8394 23.4125 66.9094C23.6225 69.1394 21.5225 70.5994 20.5125 72.2594C20.3325 72.5494 20.2325 72.7194 20.1725 72.8294C19.9825 73.3694 20.0925 73.9994 20.5125 74.4194C20.5125 74.4194 22.2125 76.8494 23.9525 78.5794C25.6925 80.3194 28.3325 82.2394 28.3325 82.2394C28.9225 82.8294 29.9025 82.8294 30.5025 82.2394C30.8925 81.8494 33.5425 79.6394 35.8525 79.3394C35.8525 79.3394 35.8425 79.3494 35.8825 79.3594C38.1125 80.5994 40.4125 81.5794 42.9325 82.2694C42.9525 82.2794 43.0225 82.2994 43.0225 82.2994C44.7625 83.5794 44.3025 86.2394 44.7625 88.1294C44.8525 88.9794 45.3225 89.5294 46.2925 89.6594C46.2925 89.6594 49.2125 90.1694 51.6725 90.1694C54.1325 90.1694 57.3525 89.6694 57.3525 89.6694C58.1925 89.5194 58.8825 88.9794 58.8825 88.1394C58.8825 87.5894 59.1825 84.1494 60.6225 82.3094C60.6225 82.3094 60.6825 82.2594 60.7525 82.2094C63.3125 81.4894 65.2625 80.6994 67.5225 79.3994C67.6325 79.3594 67.5125 79.3694 67.7825 79.3294C69.9225 79.0094 71.4725 81.2194 73.1325 82.2294C73.4225 82.4094 73.5925 82.5094 73.7025 82.5694C74.2425 82.7594 74.8725 82.6494 75.2925 82.2294C75.2925 82.2294 77.7225 80.5294 79.4525 78.7894C81.1925 77.0494 83.1125 74.4094 83.1125 74.4094C83.7025 73.8194 83.7025 72.8394 83.1125 72.2394C82.7225 71.8494 80.5125 69.1994 80.2125 66.8894C80.1825 66.6494 80.2025 66.6194 80.2325 66.5594C81.5225 64.2794 82.3325 62.6094 83.0425 60.0294C83.0425 60.0294 83.0125 59.9494 83.1825 59.7294C84.4625 57.9894 87.1225 58.4494 89.0125 57.9894C89.8525 57.9894 90.5425 57.2994 90.5425 56.4594C90.5425 56.4594 91.0525 53.5394 91.0525 51.0794C91.0525 48.6194 90.5725 45.3894 90.5725 45.3894Z" fill="url(#paint2_linear)"/>
<path opacity="0.15" d="M55.9433 32.5095H28.4333C27.8433 32.5095 27.3633 32.9895 27.3633 33.5795V69.4795C27.3633 70.0695 27.8433 70.5495 28.4333 70.5495H55.9533C56.5433 70.5495 57.0233 70.0695 57.0233 69.4795V33.5895C57.0133 32.9895 56.5333 32.5095 55.9433 32.5095Z" fill="#1F1D20"/>
<path d="M55.9433 31.1895H28.4333C27.8433 31.1895 27.3633 31.6695 27.3633 32.2595V68.1595C27.3633 68.7495 27.8433 69.2295 28.4333 69.2295H55.9533C56.5433 69.2295 57.0233 68.7495 57.0233 68.1595V32.2595C57.0133 31.6695 56.5333 31.1895 55.9433 31.1895Z" fill="#F2F2F2"/>
<path fill-rule="evenodd" clip-rule="evenodd" d="M44.0439 26.2395C45.0739 26.7895 45.6839 27.8895 45.6839 29.0495V29.3295C45.6839 29.4395 45.6739 29.5295 45.6639 29.6395H47.9039C48.5739 29.6395 49.1939 29.9695 49.5339 30.5495C50.4739 32.1995 49.3139 33.8895 47.7539 33.8895H36.4639C35.7939 33.8895 35.1739 33.5595 34.8339 32.9795C33.8939 31.3295 35.0539 29.6395 36.6139 29.6395H38.6939C38.6839 29.5395 38.6839 29.4395 38.6839 29.3295V29.2395C38.6939 26.7295 41.3739 24.8295 44.0439 26.2395Z" fill="#11A6EA"/>
<path d="M42.1841 30.8895C42.9841 30.8895 43.6241 30.2495 43.6241 29.4495C43.6241 28.6495 42.9841 28.0095 42.1841 28.0095C41.3841 28.0095 40.7441 28.6495 40.7441 29.4495C40.7441 30.2495 41.3941 30.8895 42.1841 30.8895Z" fill="#F2F2F2"/>
<path d="M52.8035 40.0493H49.1035V43.7493H52.8035V40.0493Z" fill="#9CEBFF"/>
<path d="M54.1741 39.9394L53.6541 39.4194L51.0441 42.0294L50.2641 41.2494L49.7441 41.7694L51.0541 43.0794L54.1741 39.9394Z" fill="#185A97"/>
<path d="M52.8035 45.8894H49.1035V49.5894H52.8035V45.8894Z" fill="#50E6FF"/>
<path d="M54.1741 45.7795L53.6541 45.2595L51.0441 47.8695L50.2641 47.0895L49.7441 47.6095L51.0541 48.9195L54.1741 45.7795Z" fill="#1D4A79"/>
<path d="M52.8035 51.7795H49.1035V55.4795H52.8035V51.7795Z" fill="#0078D4"/>
<path d="M54.1741 51.6794L53.6541 51.1594L51.0441 53.7694L50.2641 52.9794L49.7441 53.4994L51.0541 54.8094L54.1741 51.6794Z" fill="#243A5E"/>
<path d="M37.2934 53.7493C36.8234 53.7493 36.4434 54.1293 36.4434 54.5993C36.4434 55.0693 36.8234 55.4493 37.2934 55.4493C37.7634 55.4493 38.1434 55.0693 38.1434 54.5993C38.1434 54.1293 37.7634 53.7493 37.2934 53.7493Z" fill="url(#paint3_linear)"/>
<path d="M40.1527 53.7493C39.6827 53.7493 39.3027 54.1293 39.3027 54.5993C39.3027 55.0693 39.6827 55.4493 40.1527 55.4493C40.6227 55.4493 41.0027 55.0693 41.0027 54.5993C41.0027 54.1293 40.6227 53.7493 40.1527 53.7493Z" fill="url(#paint4_linear)"/>
<path d="M31.5727 53.7493C31.1027 53.7493 30.7227 54.1293 30.7227 54.5993C30.7227 55.0693 31.1027 55.4493 31.5727 55.4493C32.0427 55.4493 32.4227 55.0693 32.4227 54.5993C32.4227 54.1293 32.0427 53.7493 31.5727 53.7493Z" fill="url(#paint5_linear)"/>
<path d="M34.432 53.7493C33.962 53.7493 33.582 54.1293 33.582 54.5993C33.582 55.0693 33.962 55.4493 34.432 55.4493C34.902 55.4493 35.282 55.0693 35.282 54.5993C35.282 54.1293 34.902 53.7493 34.432 53.7493Z" fill="url(#paint6_linear)"/>
<path d="M43.0219 53.7493C42.5519 53.7493 42.1719 54.1293 42.1719 54.5993C42.1719 55.0693 42.5519 55.4493 43.0219 55.4493C43.4919 55.4493 43.8719 55.0693 43.8719 54.5993C43.8719 54.1293 43.4819 53.7493 43.0219 53.7493Z" fill="url(#paint7_linear)"/>
<path d="M45.8832 53.7493C45.4132 53.7493 45.0332 54.1293 45.0332 54.5993C45.0332 55.0693 45.4132 55.4493 45.8832 55.4493C46.3532 55.4493 46.7332 55.0693 46.7332 54.5993C46.7332 54.1293 46.3532 53.7493 45.8832 53.7493Z" fill="url(#paint8_linear)"/>
<path d="M37.2934 50.9795C36.8234 50.9795 36.4434 51.3595 36.4434 51.8295C36.4434 52.2995 36.8234 52.6795 37.2934 52.6795C37.7634 52.6795 38.1434 52.2995 38.1434 51.8295C38.1434 51.3595 37.7634 50.9795 37.2934 50.9795Z" fill="url(#paint9_linear)"/>
<path d="M40.1527 50.9795C39.6827 50.9795 39.3027 51.3595 39.3027 51.8295C39.3027 52.2995 39.6827 52.6795 40.1527 52.6795C40.6227 52.6795 41.0027 52.2995 41.0027 51.8295C41.0027 51.3595 40.6227 50.9795 40.1527 50.9795Z" fill="url(#paint10_linear)"/>
<path d="M31.5727 50.9795C31.1027 50.9795 30.7227 51.3595 30.7227 51.8295C30.7227 52.2995 31.1027 52.6795 31.5727 52.6795C32.0427 52.6795 32.4227 52.2995 32.4227 51.8295C32.4227 51.3595 32.0427 50.9795 31.5727 50.9795Z" fill="url(#paint11_linear)"/>
<path d="M34.432 50.9795C33.962 50.9795 33.582 51.3595 33.582 51.8295C33.582 52.2995 33.962 52.6795 34.432 52.6795C34.902 52.6795 35.282 52.2995 35.282 51.8295C35.282 51.3595 34.902 50.9795 34.432 50.9795Z" fill="url(#paint12_linear)"/>
<path d="M43.0219 50.9795C42.5519 50.9795 42.1719 51.3595 42.1719 51.8295C42.1719 52.2995 42.5519 52.6795 43.0219 52.6795C43.4919 52.6795 43.8719 52.2995 43.8719 51.8295C43.8719 51.3595 43.4819 50.9795 43.0219 50.9795Z" fill="url(#paint13_linear)"/>
<path d="M45.8832 50.9795C45.4132 50.9795 45.0332 51.3595 45.0332 51.8295C45.0332 52.2995 45.4132 52.6795 45.8832 52.6795C46.3532 52.6795 46.7332 52.2995 46.7332 51.8295C46.7332 51.3595 46.3532 50.9795 45.8832 50.9795Z" fill="url(#paint14_linear)"/>
<path d="M37.2934 48.1995C36.8234 48.1995 36.4434 48.5795 36.4434 49.0495C36.4434 49.5195 36.8234 49.8995 37.2934 49.8995C37.7634 49.8995 38.1434 49.5195 38.1434 49.0495C38.1434 48.5795 37.7634 48.1995 37.2934 48.1995Z" fill="url(#paint15_linear)"/>
<path d="M40.1527 48.1995C39.6827 48.1995 39.3027 48.5795 39.3027 49.0495C39.3027 49.5195 39.6827 49.8995 40.1527 49.8995C40.6227 49.8995 41.0027 49.5195 41.0027 49.0495C41.0027 48.5795 40.6227 48.1995 40.1527 48.1995Z" fill="url(#paint16_linear)"/>
<path d="M31.5727 48.1995C31.1027 48.1995 30.7227 48.5795 30.7227 49.0495C30.7227 49.5195 31.1027 49.8995 31.5727 49.8995C32.0427 49.8995 32.4227 49.5195 32.4227 49.0495C32.4227 48.5795 32.0427 48.1995 31.5727 48.1995Z" fill="url(#paint17_linear)"/>
<path d="M34.432 48.1995C33.962 48.1995 33.582 48.5795 33.582 49.0495C33.582 49.5195 33.962 49.8995 34.432 49.8995C34.902 49.8995 35.282 49.5195 35.282 49.0495C35.282 48.5795 34.902 48.1995 34.432 48.1995Z" fill="url(#paint18_linear)"/>
<path d="M43.0219 48.1995C42.5519 48.1995 42.1719 48.5795 42.1719 49.0495C42.1719 49.5195 42.5519 49.8995 43.0219 49.8995C43.4919 49.8995 43.8719 49.5195 43.8719 49.0495C43.8719 48.5795 43.4819 48.1995 43.0219 48.1995Z" fill="url(#paint19_linear)"/>
<path d="M45.8832 48.1995C45.4132 48.1995 45.0332 48.5795 45.0332 49.0495C45.0332 49.5195 45.4132 49.8995 45.8832 49.8995C46.3532 49.8995 46.7332 49.5195 46.7332 49.0495C46.7332 48.5795 46.3532 48.1995 45.8832 48.1995Z" fill="url(#paint20_linear)"/>
<path d="M37.2934 45.4194C36.8234 45.4194 36.4434 45.7994 36.4434 46.2694C36.4434 46.7394 36.8234 47.1194 37.2934 47.1194C37.7634 47.1194 38.1434 46.7394 38.1434 46.2694C38.1434 45.7994 37.7634 45.4194 37.2934 45.4194Z" fill="url(#paint21_linear)"/>
<path d="M40.1527 47.1194C40.6227 47.1194 41.0027 46.7394 41.0027 46.2694C41.0027 45.7994 40.6227 45.4194 40.1527 45.4194C39.6827 45.4194 39.3027 45.7994 39.3027 46.2694C39.3027 46.7394 39.6927 47.1194 40.1527 47.1194Z" fill="url(#paint22_linear)"/>
<path d="M31.5727 45.4194C31.1027 45.4194 30.7227 45.7994 30.7227 46.2694C30.7227 46.7394 31.1027 47.1194 31.5727 47.1194C32.0427 47.1194 32.4227 46.7394 32.4227 46.2694C32.4227 45.7994 32.0427 45.4194 31.5727 45.4194Z" fill="url(#paint23_linear)"/>
<path d="M34.432 45.4194C33.962 45.4194 33.582 45.7994 33.582 46.2694C33.582 46.7394 33.962 47.1194 34.432 47.1194C34.902 47.1194 35.282 46.7394 35.282 46.2694C35.282 45.7994 34.902 45.4194 34.432 45.4194Z" fill="url(#paint24_linear)"/>
<path d="M43.0219 45.4194C42.5519 45.4194 42.1719 45.7994 42.1719 46.2694C42.1719 46.7394 42.5519 47.1194 43.0219 47.1194C43.4919 47.1194 43.8719 46.7394 43.8719 46.2694C43.8719 45.7994 43.4819 45.4194 43.0219 45.4194Z" fill="url(#paint25_linear)"/>
<path d="M45.8832 45.4194C45.4132 45.4194 45.0332 45.7994 45.0332 46.2694C45.0332 46.7394 45.4132 47.1194 45.8832 47.1194C46.3532 47.1194 46.7332 46.7394 46.7332 46.2694C46.7332 45.7994 46.3532 45.4194 45.8832 45.4194Z" fill="url(#paint26_linear)"/>
<path d="M37.2934 42.6494C36.8234 42.6494 36.4434 43.0294 36.4434 43.4994C36.4434 43.9694 36.8234 44.3494 37.2934 44.3494C37.7634 44.3494 38.1434 43.9694 38.1434 43.4994C38.1434 43.0294 37.7634 42.6494 37.2934 42.6494Z" fill="url(#paint27_linear)"/>
<path d="M40.1527 44.3494C40.6227 44.3494 41.0027 43.9694 41.0027 43.4994C41.0027 43.0294 40.6227 42.6494 40.1527 42.6494C39.6827 42.6494 39.3027 43.0294 39.3027 43.4994C39.3027 43.9694 39.6927 44.3494 40.1527 44.3494Z" fill="url(#paint28_linear)"/>
<path d="M31.5727 42.6494C31.1027 42.6494 30.7227 43.0294 30.7227 43.4994C30.7227 43.9694 31.1027 44.3494 31.5727 44.3494C32.0427 44.3494 32.4227 43.9694 32.4227 43.4994C32.4227 43.0294 32.0427 42.6494 31.5727 42.6494Z" fill="url(#paint29_linear)"/>
<path d="M34.432 42.6494C33.962 42.6494 33.582 43.0294 33.582 43.4994C33.582 43.9694 33.962 44.3494 34.432 44.3494C34.902 44.3494 35.282 43.9694 35.282 43.4994C35.282 43.0294 34.902 42.6494 34.432 42.6494Z" fill="url(#paint30_linear)"/>
<path d="M43.0219 42.6494C42.5519 42.6494 42.1719 43.0294 42.1719 43.4994C42.1719 43.9694 42.5519 44.3494 43.0219 44.3494C43.4919 44.3494 43.8719 43.9694 43.8719 43.4994C43.8719 43.0294 43.4819 42.6494 43.0219 42.6494Z" fill="url(#paint31_linear)"/>
<path d="M45.8832 42.6494C45.4132 42.6494 45.0332 43.0294 45.0332 43.4994C45.0332 43.9694 45.4132 44.3494 45.8832 44.3494C46.3532 44.3494 46.7332 43.9694 46.7332 43.4994C46.7332 43.0294 46.3532 42.6494 45.8832 42.6494Z" fill="url(#paint32_linear)"/>
<path d="M37.2934 39.8694C36.8234 39.8694 36.4434 40.2494 36.4434 40.7194C36.4434 41.1894 36.8234 41.5694 37.2934 41.5694C37.7634 41.5694 38.1434 41.1894 38.1434 40.7194C38.1434 40.2494 37.7634 39.8694 37.2934 39.8694Z" fill="url(#paint33_linear)"/>
<path d="M40.1527 41.5694C40.6227 41.5694 41.0027 41.1894 41.0027 40.7194C41.0027 40.2494 40.6227 39.8694 40.1527 39.8694C39.6827 39.8694 39.3027 40.2494 39.3027 40.7194C39.3027 41.1894 39.6927 41.5694 40.1527 41.5694Z" fill="url(#paint34_linear)"/>
<path d="M31.5727 39.8694C31.1027 39.8694 30.7227 40.2494 30.7227 40.7194C30.7227 41.1894 31.1027 41.5694 31.5727 41.5694C32.0427 41.5694 32.4227 41.1894 32.4227 40.7194C32.4227 40.2494 32.0427 39.8694 31.5727 39.8694Z" fill="url(#paint35_linear)"/>
<path d="M34.432 39.8694C33.962 39.8694 33.582 40.2494 33.582 40.7194C33.582 41.1894 33.962 41.5694 34.432 41.5694C34.902 41.5694 35.282 41.1894 35.282 40.7194C35.282 40.2494 34.902 39.8694 34.432 39.8694Z" fill="url(#paint36_linear)"/>
<path d="M43.0219 39.8694C42.5519 39.8694 42.1719 40.2494 42.1719 40.7194C42.1719 41.1894 42.5519 41.5694 43.0219 41.5694C43.4919 41.5694 43.8719 41.1894 43.8719 40.7194C43.8719 40.2494 43.4819 39.8694 43.0219 39.8694Z" fill="url(#paint37_linear)"/>
<path d="M45.8832 41.5694C46.3532 41.5694 46.7332 41.1894 46.7332 40.7194C46.7332 40.2494 46.3532 39.8694 45.8832 39.8694C45.4132 39.8694 45.0332 40.2494 45.0332 40.7194C45.0332 41.1894 45.4132 41.5694 45.8832 41.5694Z" fill="url(#paint38_linear)"/>
<path d="M74.7722 42.7695C74.7722 42.1895 74.3022 41.7095 73.7122 41.7095H61.0522C60.4722 41.7095 59.9922 42.1795 59.9922 42.7695C59.9922 43.3495 60.4622 43.8295 61.0522 43.8295H73.7422C74.3222 43.8095 74.7722 43.3495 74.7722 42.7695Z" fill="#11A6EA"/>
<path d="M78.3634 42.7695C78.3634 42.1895 77.8934 41.7095 77.3034 41.7095H73.8634C73.2834 41.7095 73.6534 42.1795 73.6534 42.7695C73.6534 43.3495 73.2834 43.8295 73.8634 43.8295H77.3234C77.8934 43.8095 78.3634 43.3495 78.3634 42.7695Z" fill="white"/>
<path d="M71.1426 42.7694C71.1426 43.9394 72.0826 44.8694 73.2426 44.8694C74.4126 44.8694 75.3426 43.9294 75.3426 42.7694C75.3426 41.5994 74.3926 40.6694 73.2326 40.6694C72.0826 40.6794 71.1426 41.5994 71.1426 42.7694Z" fill="#50E6FF"/>
<path d="M70.8824 48.0695C70.8824 47.4895 70.4124 47.0095 69.8224 47.0095H61.0424C60.4624 47.0095 59.9824 47.4795 59.9824 48.0695C59.9824 48.6495 60.4524 49.1295 61.0424 49.1295H69.8524C70.4124 49.1095 70.8824 48.6595 70.8824 48.0695Z" fill="#11A6EA"/>
<path d="M78.3721 48.0695C78.3721 47.4895 77.9021 47.0095 77.3121 47.0095H70.4721C69.8921 47.0095 69.4121 47.4795 69.4121 48.0695C69.4121 48.6495 69.8821 49.1295 70.4721 49.1295H77.3221C77.8921 49.1095 78.3721 48.6595 78.3721 48.0695Z" fill="white"/>
<path d="M67.5625 48.0695C67.5625 49.2395 68.5025 50.1695 69.6625 50.1695C70.8325 50.1695 71.7625 49.2295 71.7625 48.0695C71.7625 46.9095 70.8225 45.9695 69.6625 45.9695C68.5025 45.9795 67.5625 46.9195 67.5625 48.0695Z" fill="#2E76BC"/>
<path d="M65.9924 53.6994C65.9924 53.1194 65.5224 52.6394 64.9324 52.6394H61.0424C60.4624 52.6494 59.9824 53.1094 59.9824 53.6994C59.9824 54.2794 60.4524 54.7594 61.0424 54.7594H64.9324C65.5224 54.7394 65.9924 54.2794 65.9924 53.6994Z" fill="#11A6EA"/>
<path d="M78.3721 53.6994C78.3721 53.1194 77.9021 52.6394 77.3121 52.6394H65.9721C65.3921 52.6394 64.9121 53.1094 64.9121 53.6994C64.9121 54.2794 65.3821 54.7594 65.9721 54.7594H77.3121C77.8921 54.7394 78.3721 54.2794 78.3721 53.6994Z" fill="white"/>
<path d="M63.2324 53.6994C63.2324 54.8694 64.1724 55.7994 65.3324 55.7994C66.5024 55.7994 67.4324 54.8594 67.4324 53.6994C67.4324 52.5294 66.4924 51.5994 65.3324 51.5994C64.1724 51.5994 63.2324 52.5294 63.2324 53.6994Z" fill="#2E76BC"/>
<defs>
<linearGradient id="paint0_linear" x1="49.9522" y1="-13.6002" x2="53.9342" y2="132.17" gradientUnits="userSpaceOnUse">
<stop stop-color="#00ABDE"/>
<stop offset="1" stop-color="#007ED8"/>
</linearGradient>
<linearGradient id="paint1_linear" x1="3.15578" y1="-20.4356" x2="98.6838" y2="120.446" gradientUnits="userSpaceOnUse">
<stop stop-color="#007ED8"/>
<stop offset="0.7065" stop-color="#002D4C"/>
</linearGradient>
<linearGradient id="paint2_linear" x1="25.98" y1="16.1508" x2="101.382" y2="117.631" gradientUnits="userSpaceOnUse">
<stop stop-color="#15548F"/>
<stop offset="0.4179" stop-color="#243A5E"/>
<stop offset="0.9677" stop-color="#1A2C45"/>
</linearGradient>
<linearGradient id="paint3_linear" x1="20.9829" y1="40.9437" x2="60.412" y2="73.9541" gradientUnits="userSpaceOnUse">
<stop stop-color="#15548F"/>
<stop offset="0.4179" stop-color="#243A5E"/>
<stop offset="0.9677" stop-color="#1A2C45"/>
</linearGradient>
<linearGradient id="paint4_linear" x1="22.0898" y1="39.4753" x2="61.5189" y2="72.4857" gradientUnits="userSpaceOnUse">
<stop stop-color="#15548F"/>
<stop offset="0.4179" stop-color="#243A5E"/>
<stop offset="0.9677" stop-color="#1A2C45"/>
</linearGradient>
<linearGradient id="paint5_linear" x1="18.6503" y1="43.7828" x2="58.0794" y2="76.7933" gradientUnits="userSpaceOnUse">
<stop stop-color="#15548F"/>
<stop offset="0.4179" stop-color="#243A5E"/>
<stop offset="0.9677" stop-color="#1A2C45"/>
</linearGradient>
<linearGradient id="paint6_linear" x1="19.7546" y1="42.3123" x2="59.1838" y2="75.3227" gradientUnits="userSpaceOnUse">
<stop stop-color="#15548F"/>
<stop offset="0.4179" stop-color="#243A5E"/>
<stop offset="0.9677" stop-color="#1A2C45"/>
</linearGradient>
<linearGradient id="paint7_linear" x1="23.4431" y1="38.2134" x2="62.8722" y2="71.2239" gradientUnits="userSpaceOnUse">
<stop stop-color="#15548F"/>
<stop offset="0.4179" stop-color="#243A5E"/>
<stop offset="0.9677" stop-color="#1A2C45"/>
</linearGradient>
<linearGradient id="paint8_linear" x1="24.5467" y1="36.7405" x2="63.9758" y2="69.7509" gradientUnits="userSpaceOnUse">
<stop stop-color="#15548F"/>
<stop offset="0.4179" stop-color="#243A5E"/>
<stop offset="0.9677" stop-color="#1A2C45"/>
</linearGradient>
<linearGradient id="paint9_linear" x1="22.3492" y1="39.312" x2="61.7783" y2="72.3224" gradientUnits="userSpaceOnUse">
<stop stop-color="#15548F"/>
<stop offset="0.4179" stop-color="#243A5E"/>
<stop offset="0.9677" stop-color="#1A2C45"/>
</linearGradient>
<linearGradient id="paint10_linear" x1="23.456" y1="37.8436" x2="62.8852" y2="70.854" gradientUnits="userSpaceOnUse">
<stop stop-color="#15548F"/>
<stop offset="0.4179" stop-color="#243A5E"/>
<stop offset="0.9677" stop-color="#1A2C45"/>
</linearGradient>
<linearGradient id="paint11_linear" x1="20.0165" y1="42.1511" x2="59.4457" y2="75.1615" gradientUnits="userSpaceOnUse">
<stop stop-color="#15548F"/>
<stop offset="0.4179" stop-color="#243A5E"/>
<stop offset="0.9677" stop-color="#1A2C45"/>
</linearGradient>
<linearGradient id="paint12_linear" x1="21.1209" y1="40.6806" x2="60.55" y2="73.691" gradientUnits="userSpaceOnUse">
<stop stop-color="#15548F"/>
<stop offset="0.4179" stop-color="#243A5E"/>
<stop offset="0.9677" stop-color="#1A2C45"/>
</linearGradient>
<linearGradient id="paint13_linear" x1="24.8094" y1="36.5817" x2="64.2385" y2="69.5922" gradientUnits="userSpaceOnUse">
<stop stop-color="#15548F"/>
<stop offset="0.4179" stop-color="#243A5E"/>
<stop offset="0.9677" stop-color="#1A2C45"/>
</linearGradient>
<linearGradient id="paint14_linear" x1="25.9129" y1="35.1088" x2="65.3421" y2="68.1192" gradientUnits="userSpaceOnUse">
<stop stop-color="#15548F"/>
<stop offset="0.4179" stop-color="#243A5E"/>
<stop offset="0.9677" stop-color="#1A2C45"/>
</linearGradient>
<linearGradient id="paint15_linear" x1="23.7155" y1="37.6801" x2="63.1446" y2="70.6904" gradientUnits="userSpaceOnUse">
<stop stop-color="#15548F"/>
<stop offset="0.4179" stop-color="#243A5E"/>
<stop offset="0.9677" stop-color="#1A2C45"/>
</linearGradient>
<linearGradient id="paint16_linear" x1="24.8195" y1="36.2093" x2="64.2487" y2="69.2197" gradientUnits="userSpaceOnUse">
<stop stop-color="#15548F"/>
<stop offset="0.4179" stop-color="#243A5E"/>
<stop offset="0.9677" stop-color="#1A2C45"/>
</linearGradient>
<linearGradient id="paint17_linear" x1="21.3828" y1="40.5191" x2="60.812" y2="73.5296" gradientUnits="userSpaceOnUse">
<stop stop-color="#15548F"/>
<stop offset="0.4179" stop-color="#243A5E"/>
<stop offset="0.9677" stop-color="#1A2C45"/>
</linearGradient>
<linearGradient id="paint18_linear" x1="22.4871" y1="39.0486" x2="61.9163" y2="72.0591" gradientUnits="userSpaceOnUse">
<stop stop-color="#15548F"/>
<stop offset="0.4179" stop-color="#243A5E"/>
<stop offset="0.9677" stop-color="#1A2C45"/>
</linearGradient>
<linearGradient id="paint19_linear" x1="26.1757" y1="34.9497" x2="65.6048" y2="67.9602" gradientUnits="userSpaceOnUse">
<stop stop-color="#15548F"/>
<stop offset="0.4179" stop-color="#243A5E"/>
<stop offset="0.9677" stop-color="#1A2C45"/>
</linearGradient>
<linearGradient id="paint20_linear" x1="27.2792" y1="33.4769" x2="66.7083" y2="66.4872" gradientUnits="userSpaceOnUse">
<stop stop-color="#15548F"/>
<stop offset="0.4179" stop-color="#243A5E"/>
<stop offset="0.9677" stop-color="#1A2C45"/>
</linearGradient>
<linearGradient id="paint21_linear" x1="25.0841" y1="36.0452" x2="64.5132" y2="69.0557" gradientUnits="userSpaceOnUse">
<stop stop-color="#15548F"/>
<stop offset="0.4179" stop-color="#243A5E"/>
<stop offset="0.9677" stop-color="#1A2C45"/>
</linearGradient>
<linearGradient id="paint22_linear" x1="26.191" y1="34.5768" x2="65.6201" y2="67.5873" gradientUnits="userSpaceOnUse">
<stop stop-color="#15548F"/>
<stop offset="0.4179" stop-color="#243A5E"/>
<stop offset="0.9677" stop-color="#1A2C45"/>
</linearGradient>
<linearGradient id="paint23_linear" x1="22.7514" y1="38.8843" x2="62.1806" y2="71.8948" gradientUnits="userSpaceOnUse">
<stop stop-color="#15548F"/>
<stop offset="0.4179" stop-color="#243A5E"/>
<stop offset="0.9677" stop-color="#1A2C45"/>
</linearGradient>
<linearGradient id="paint24_linear" x1="23.8558" y1="37.4138" x2="63.2849" y2="70.4242" gradientUnits="userSpaceOnUse">
<stop stop-color="#15548F"/>
<stop offset="0.4179" stop-color="#243A5E"/>
<stop offset="0.9677" stop-color="#1A2C45"/>
</linearGradient>
<linearGradient id="paint25_linear" x1="27.5443" y1="33.3149" x2="66.9734" y2="66.3254" gradientUnits="userSpaceOnUse">
<stop stop-color="#15548F"/>
<stop offset="0.4179" stop-color="#243A5E"/>
<stop offset="0.9677" stop-color="#1A2C45"/>
</linearGradient>
<linearGradient id="paint26_linear" x1="28.6478" y1="31.842" x2="68.077" y2="64.8525" gradientUnits="userSpaceOnUse">
<stop stop-color="#15548F"/>
<stop offset="0.4179" stop-color="#243A5E"/>
<stop offset="0.9677" stop-color="#1A2C45"/>
</linearGradient>
<linearGradient id="paint27_linear" x1="26.448" y1="34.4161" x2="65.8772" y2="67.4264" gradientUnits="userSpaceOnUse">
<stop stop-color="#15548F"/>
<stop offset="0.4179" stop-color="#243A5E"/>
<stop offset="0.9677" stop-color="#1A2C45"/>
</linearGradient>
<linearGradient id="paint28_linear" x1="27.5549" y1="32.9477" x2="66.9841" y2="65.958" gradientUnits="userSpaceOnUse">
<stop stop-color="#15548F"/>
<stop offset="0.4179" stop-color="#243A5E"/>
<stop offset="0.9677" stop-color="#1A2C45"/>
</linearGradient>
<linearGradient id="paint29_linear" x1="24.1154" y1="37.2551" x2="63.5446" y2="70.2656" gradientUnits="userSpaceOnUse">
<stop stop-color="#15548F"/>
<stop offset="0.4179" stop-color="#243A5E"/>
<stop offset="0.9677" stop-color="#1A2C45"/>
</linearGradient>
<linearGradient id="paint30_linear" x1="25.2178" y1="35.7838" x2="64.6469" y2="68.7942" gradientUnits="userSpaceOnUse">
<stop stop-color="#15548F"/>
<stop offset="0.4179" stop-color="#243A5E"/>
<stop offset="0.9677" stop-color="#1A2C45"/>
</linearGradient>
<linearGradient id="paint31_linear" x1="28.9082" y1="31.6857" x2="68.3374" y2="64.6962" gradientUnits="userSpaceOnUse">
<stop stop-color="#15548F"/>
<stop offset="0.4179" stop-color="#243A5E"/>
<stop offset="0.9677" stop-color="#1A2C45"/>
</linearGradient>
<linearGradient id="paint32_linear" x1="30.0118" y1="30.2129" x2="69.4409" y2="63.2232" gradientUnits="userSpaceOnUse">
<stop stop-color="#15548F"/>
<stop offset="0.4179" stop-color="#243A5E"/>
<stop offset="0.9677" stop-color="#1A2C45"/>
</linearGradient>
<linearGradient id="paint33_linear" x1="27.8143" y1="32.7841" x2="67.2435" y2="65.7945" gradientUnits="userSpaceOnUse">
<stop stop-color="#15548F"/>
<stop offset="0.4179" stop-color="#243A5E"/>
<stop offset="0.9677" stop-color="#1A2C45"/>
</linearGradient>
<linearGradient id="paint34_linear" x1="28.9212" y1="31.3157" x2="68.3503" y2="64.3261" gradientUnits="userSpaceOnUse">
<stop stop-color="#15548F"/>
<stop offset="0.4179" stop-color="#243A5E"/>
<stop offset="0.9677" stop-color="#1A2C45"/>
</linearGradient>
<linearGradient id="paint35_linear" x1="25.4817" y1="35.6232" x2="64.9108" y2="68.6336" gradientUnits="userSpaceOnUse">
<stop stop-color="#15548F"/>
<stop offset="0.4179" stop-color="#243A5E"/>
<stop offset="0.9677" stop-color="#1A2C45"/>
</linearGradient>
<linearGradient id="paint36_linear" x1="26.5841" y1="34.1518" x2="66.0132" y2="67.1623" gradientUnits="userSpaceOnUse">
<stop stop-color="#15548F"/>
<stop offset="0.4179" stop-color="#243A5E"/>
<stop offset="0.9677" stop-color="#1A2C45"/>
</linearGradient>
<linearGradient id="paint37_linear" x1="30.2745" y1="30.0538" x2="69.7037" y2="63.0642" gradientUnits="userSpaceOnUse">
<stop stop-color="#15548F"/>
<stop offset="0.4179" stop-color="#243A5E"/>
<stop offset="0.9677" stop-color="#1A2C45"/>
</linearGradient>
<linearGradient id="paint38_linear" x1="31.378" y1="28.5809" x2="70.8072" y2="61.5913" gradientUnits="userSpaceOnUse">
<stop stop-color="#15548F"/>
<stop offset="0.4179" stop-color="#243A5E"/>
<stop offset="0.9677" stop-color="#1A2C45"/>
</linearGradient>
</defs>
</svg>
