<svg width="103" height="103" viewBox="0 0 103 103" fill="none" xmlns="http://www.w3.org/2000/svg">
<path d="M51.519 98.3329C25.669 98.3329 4.70898 77.3829 4.70898 51.5229C4.70898 25.6629 25.669 4.71289 51.519 4.71289C77.369 4.71289 98.329 25.6729 98.329 51.5229C98.329 77.3729 77.369 98.3329 51.519 98.3329Z" fill="url(#paint0_linear)"/>
<path fill-rule="evenodd" clip-rule="evenodd" d="M97.4189 51.5231C97.4189 76.8731 76.8689 97.4231 51.5189 97.4231C26.1689 97.4231 5.61891 76.8731 5.61891 51.5231C5.61891 26.1731 26.1689 5.62306 51.5189 5.62306C76.8689 5.62306 97.4189 26.1731 97.4189 51.5231ZM51.5189 1.88306C78.9389 1.88306 101.159 24.1031 101.159 51.5231C101.159 78.9431 78.9289 101.163 51.5189 101.163C24.0989 101.163 1.87891 78.9331 1.87891 51.5231C1.87891 24.1031 24.0989 1.88306 51.5189 1.88306Z" fill="#F2F1F0"/>
<path fill-rule="evenodd" clip-rule="evenodd" d="M94.6095 51.5229C94.6095 75.3229 75.3195 94.6129 51.5195 94.6129C27.7195 94.6129 8.42945 75.3229 8.42945 51.5229C8.42945 27.7229 27.7195 8.43287 51.5195 8.43287C75.3195 8.43287 94.6095 27.7229 94.6095 51.5229ZM51.5195 4.69287C77.3795 4.69287 98.3495 25.6629 98.3495 51.5229C98.3495 77.3829 77.3795 98.3529 51.5195 98.3529C25.6595 98.3529 4.68945 77.3829 4.68945 51.5229C4.68945 25.6629 25.6495 4.69287 51.5195 4.69287Z" fill="url(#paint1_linear)"/>
<path opacity="0.15" d="M88.7198 48.0629C88.7198 47.2529 88.0598 46.5929 87.2498 46.5929C86.7198 46.5929 83.4198 46.3029 81.6498 44.9229C81.6498 44.9229 81.6598 44.9029 81.6498 44.9229C80.9798 42.4829 79.9998 40.2029 78.7898 38.0429C78.4798 35.9929 80.5998 34.5029 81.5698 32.9029C81.7398 32.6229 81.8398 32.4629 81.8998 32.3529C82.0798 31.8329 81.9798 31.2329 81.5698 30.8229C81.5698 30.8229 79.9398 28.4929 78.2698 26.8329C76.5998 25.1729 74.0698 23.3229 74.0698 23.3229C73.4998 22.7529 72.5598 22.7529 71.9898 23.3229C71.6098 23.6929 69.0998 25.7629 66.8398 26.0929C66.8098 26.0929 66.8098 26.0929 66.8098 26.0929C64.7098 24.9029 62.3498 23.9229 59.9798 23.2529H59.9498C58.2798 22.0229 58.7198 19.4729 58.2798 17.6529C58.2798 16.8429 57.6198 16.1829 56.8098 16.1829C56.8098 16.1829 54.0098 15.6929 51.6498 15.6929C49.2898 15.6929 46.1998 16.1829 46.1998 16.1829C45.3898 16.1829 44.7298 16.8429 44.7298 17.6529C44.7298 18.1829 44.4398 21.4829 43.0598 23.2529C40.7198 23.9129 38.2598 24.9529 36.1798 26.1129C34.1298 26.4229 32.6398 24.3029 31.0398 23.3329C30.7598 23.1629 30.5998 23.0629 30.4898 23.0029C29.9698 22.8229 29.3698 22.9229 28.9598 23.3329C28.9598 23.3329 26.6298 24.9629 24.9698 26.6329C23.3098 28.3029 21.4598 30.8329 21.4598 30.8329C20.8898 31.4029 20.8898 32.3429 21.4598 32.9129C21.8298 33.2829 23.9598 35.8329 24.2398 38.0529V38.0729C23.0798 40.1529 22.0598 42.6029 21.3998 44.9429C21.3998 44.9429 21.4298 44.9029 21.3998 44.9429C19.9698 46.6829 17.6198 46.1729 15.7998 46.6129C14.9898 46.6129 14.3298 47.2729 14.3298 48.0829C14.3298 48.0829 13.8398 50.8829 13.8398 53.2429C13.8398 55.6029 14.3298 58.6929 14.3298 58.6929C14.3298 59.5029 14.9898 60.1629 15.7998 60.1629C16.3298 60.1629 19.6298 60.4529 21.3998 61.8329C21.4398 61.8129 21.4198 61.8629 21.4198 61.8629C22.0998 64.2129 23.0698 66.5629 24.2498 68.6429C24.2298 68.6729 24.2498 68.6429 24.2598 68.7129C24.4598 70.8529 22.4498 72.2529 21.4798 73.8529C21.3098 74.1329 21.2098 74.2929 21.1498 74.4029C20.9698 74.9229 21.0698 75.5229 21.4798 75.9329C21.4798 75.9329 23.1098 78.2629 24.7798 79.9229C26.4498 81.5929 28.9798 83.4329 28.9798 83.4329C29.5498 84.0029 30.4898 84.0029 31.0598 83.4329C31.4298 83.0629 33.9798 80.9329 36.1998 80.6529C36.1998 80.6529 36.1898 80.6629 36.2298 80.6729C38.3698 81.8629 40.5798 82.8029 42.9998 83.4629C43.0198 83.4729 43.0898 83.4929 43.0898 83.4929C44.7598 84.7229 44.3198 87.2729 44.7598 89.0929C44.8498 89.9129 45.2998 90.4329 46.2298 90.5629C46.2298 90.5629 49.0298 91.0529 51.3898 91.0529C53.7498 91.0529 56.8398 90.5729 56.8398 90.5729C57.6498 90.4329 58.3098 89.9129 58.3098 89.1029C58.3098 88.5729 58.5998 85.2729 59.9798 83.5029C59.9798 83.5029 60.0398 83.4529 60.0998 83.4029C62.5598 82.7129 64.4298 81.9529 66.5998 80.7029C66.7098 80.6629 66.5898 80.6729 66.8498 80.6329C68.8998 80.3229 70.3898 82.4429 71.9898 83.4129C72.2698 83.5829 72.4298 83.6829 72.5398 83.7429C73.0598 83.9229 73.6598 83.8229 74.0698 83.4129C74.0698 83.4129 76.3998 81.7829 78.0598 80.1129C79.7298 78.4429 81.5698 75.9129 81.5698 75.9129C82.1398 75.3429 82.1398 74.4029 81.5698 73.8329C81.1998 73.4629 79.0698 70.9129 78.7898 68.6929C78.7598 68.4629 78.7798 68.4329 78.8098 68.3729C80.0498 66.1829 80.8298 64.5829 81.5098 62.1029C81.5098 62.1029 81.4798 62.0229 81.6398 61.8129C82.8698 60.1429 85.4198 60.5829 87.2398 60.1429C88.0498 60.1429 88.7098 59.4829 88.7098 58.6729C88.7098 58.6729 89.1998 55.8729 89.1998 53.5129C89.1998 51.1529 88.7198 48.0629 88.7198 48.0629Z" fill="#1F1D20"/>
<path d="M88.7198 46.0629C88.7198 45.2529 88.0598 44.5929 87.2498 44.5929C86.7198 44.5929 83.4198 44.3029 81.6498 42.9229C81.6498 42.9229 81.6598 42.9029 81.6498 42.9229C80.9798 40.4829 79.9998 38.2029 78.7898 36.0429C78.4798 33.9929 80.5998 32.5029 81.5698 30.9029C81.7398 30.6229 81.8398 30.4629 81.8998 30.3529C82.0798 29.8329 81.9798 29.2329 81.5698 28.8229C81.5698 28.8229 79.9398 26.4929 78.2698 24.8329C76.5998 23.1729 74.0698 21.3229 74.0698 21.3229C73.4998 20.7529 72.5598 20.7529 71.9898 21.3229C71.6098 21.6929 69.0998 23.7629 66.8398 24.0929C66.8098 24.0929 66.8098 24.0929 66.8098 24.0929C64.7098 22.9029 62.3498 21.9229 59.9798 21.2529H59.9498C58.2798 20.0229 58.7198 17.4729 58.2798 15.6529C58.2798 14.8429 57.6198 14.1829 56.8098 14.1829C56.8098 14.1829 54.0098 13.6929 51.6498 13.6929C49.2898 13.6929 46.1998 14.1829 46.1998 14.1829C45.3898 14.1829 44.7298 14.8429 44.7298 15.6529C44.7298 16.1829 44.4398 19.4829 43.0598 21.2529C40.7198 21.9129 38.2598 22.9529 36.1798 24.1129C34.1298 24.4229 32.6398 22.3029 31.0398 21.3329C30.7598 21.1629 30.5998 21.0629 30.4898 21.0029C29.9698 20.8229 29.3698 20.9229 28.9598 21.3329C28.9598 21.3329 26.6298 22.9629 24.9698 24.6329C23.3098 26.3029 21.4598 28.8329 21.4598 28.8329C20.8898 29.4029 20.8898 30.3429 21.4598 30.9129C21.8298 31.2829 23.9598 33.8329 24.2398 36.0529V36.0729C23.0798 38.1529 22.0598 40.6029 21.3998 42.9429C21.3998 42.9429 21.4298 42.9029 21.3998 42.9429C19.9698 44.6829 17.6198 44.1729 15.7998 44.6129C14.9898 44.6129 14.3298 45.2729 14.3298 46.0829C14.3298 46.0829 13.8398 48.8829 13.8398 51.2429C13.8398 53.6029 14.3298 56.6929 14.3298 56.6929C14.3298 57.5029 14.9898 58.1629 15.7998 58.1629C16.3298 58.1629 19.6298 58.4529 21.3998 59.8329C21.4398 59.8129 21.4198 59.8629 21.4198 59.8629C22.0998 62.2129 23.0698 64.5629 24.2498 66.6429C24.2298 66.6729 24.2498 66.6429 24.2598 66.7129C24.4598 68.8529 22.4498 70.2529 21.4798 71.8529C21.3098 72.1329 21.2098 72.2929 21.1498 72.4029C20.9698 72.9229 21.0698 73.5229 21.4798 73.9329C21.4798 73.9329 23.1098 76.2629 24.7798 77.9229C26.4498 79.5929 28.9798 81.4329 28.9798 81.4329C29.5498 82.0029 30.4898 82.0029 31.0598 81.4329C31.4298 81.0629 33.9798 78.9329 36.1998 78.6529C36.1998 78.6529 36.1898 78.6629 36.2298 78.6729C38.3698 79.8629 40.5798 80.8029 42.9998 81.4629C43.0198 81.4729 43.0898 81.4929 43.0898 81.4929C44.7598 82.7229 44.3198 85.2729 44.7598 87.0929C44.8498 87.9129 45.2998 88.4329 46.2298 88.5629C46.2298 88.5629 49.0298 89.0529 51.3898 89.0529C53.7498 89.0529 56.8398 88.5729 56.8398 88.5729C57.6498 88.4329 58.3098 87.9129 58.3098 87.1029C58.3098 86.5729 58.5998 83.2729 59.9798 81.5029C59.9798 81.5029 60.0398 81.4529 60.0998 81.4029C62.5598 80.7129 64.4298 79.9529 66.5998 78.7029C66.7098 78.6629 66.5898 78.6729 66.8498 78.6329C68.8998 78.3229 70.3898 80.4429 71.9898 81.4129C72.2698 81.5829 72.4298 81.6829 72.5398 81.7429C73.0598 81.9229 73.6598 81.8229 74.0698 81.4129C74.0698 81.4129 76.3998 79.7829 78.0598 78.1129C79.7298 76.4429 81.5698 73.9129 81.5698 73.9129C82.1398 73.3429 82.1398 72.4029 81.5698 71.8329C81.1998 71.4629 79.0698 68.9129 78.7898 66.6929C78.7598 66.4629 78.7798 66.4329 78.8098 66.3729C80.0498 64.1829 80.8298 62.5829 81.5098 60.1029C81.5098 60.1029 81.4798 60.0229 81.6398 59.8129C82.8698 58.1429 85.4198 58.5829 87.2398 58.1429C88.0498 58.1429 88.7098 57.4829 88.7098 56.6729C88.7098 56.6729 89.1998 53.8729 89.1998 51.5129C89.1998 49.1529 88.7198 46.0629 88.7198 46.0629Z" fill="#F2F1F0"/>
<path d="M51.5502 63.303L37.9602 56.863L29.6602 60.793L51.5402 71.233L73.3602 60.793L65.0602 56.863L51.5502 63.303Z" fill="#243A5E"/>
<path d="M51.5502 61.743L73.3702 51.373L65.0702 47.373L51.5502 53.813L37.9602 47.373L29.6602 51.373L51.5502 61.743Z" fill="#0078D4"/>
<path d="M51.5499 31.5129L29.6699 41.8829L51.5499 52.3229L63.4599 46.6329L64.2599 46.2229L65.0599 45.8829L73.3599 41.8829L51.5499 31.5129Z" fill="#50E6FF"/>
<defs>
<linearGradient id="paint0_linear" x1="49.749" y1="-13.271" x2="53.732" y2="132.497" gradientUnits="userSpaceOnUse">
<stop stop-color="#00ABDE"/>
<stop offset="1" stop-color="#007ED8"/>
</linearGradient>
<linearGradient id="paint1_linear" x1="51.5194" y1="-1.96933" x2="51.5194" y2="99.7944" gradientUnits="userSpaceOnUse">
<stop stop-color="#007ED8"/>
<stop offset="0.7065" stop-color="#002D4C"/>
</linearGradient>
</defs>
</svg>
