<svg width="103" height="103" viewBox="0 0 103 103" fill="none" xmlns="http://www.w3.org/2000/svg">
<path d="M51.9311 98.6403C26.0811 98.6403 5.12109 77.6903 5.12109 51.8303C5.12109 25.9703 26.0811 5.02026 51.9311 5.02026C77.7811 5.02026 98.7411 25.9803 98.7411 51.8303C98.7411 77.6803 77.7811 98.6403 51.9311 98.6403Z" fill="url(#paint0_linear_1092_170)"/>
<path fill-rule="evenodd" clip-rule="evenodd" d="M97.831 51.8304C97.831 77.1804 77.281 97.7304 51.931 97.7304C26.581 97.7304 6.03102 77.1804 6.03102 51.8304C6.03102 26.4804 26.581 5.93044 51.931 5.93044C77.281 5.93044 97.831 26.4804 97.831 51.8304ZM51.931 2.19043C79.351 2.19043 101.571 24.4104 101.571 51.8304C101.571 79.2504 79.341 101.47 51.931 101.47C24.511 101.47 2.29102 79.2404 2.29102 51.8304C2.29102 24.4104 24.511 2.19043 51.931 2.19043Z" fill="#F2F1F0"/>
<path fill-rule="evenodd" clip-rule="evenodd" d="M95.0211 51.8302C95.0211 75.6302 75.7311 94.9202 51.9311 94.9202C28.1311 94.9202 8.84107 75.6302 8.84107 51.8302C8.84107 28.0302 28.1311 8.74025 51.9311 8.74025C75.7311 8.74025 95.0211 28.0302 95.0211 51.8302ZM51.9311 5.00024C77.7911 5.00024 98.7611 25.9702 98.7611 51.8302C98.7611 77.6902 77.7911 98.6603 51.9311 98.6603C26.0711 98.6603 5.10107 77.6902 5.10107 51.8302C5.10107 25.9702 26.0611 5.00024 51.9311 5.00024Z" fill="url(#paint1_linear_1092_170)"/>
<path fill-rule="evenodd" clip-rule="evenodd" d="M62.6489 39.1834C62.6489 38.957 62.8325 38.7734 63.0589 38.7734H68.3929V39.5934H63.4689V64.1037H68.3847V64.9237H63.0589C62.8325 64.9237 62.6489 64.7402 62.6489 64.5137V39.1834Z" fill="white"/>
<path fill-rule="evenodd" clip-rule="evenodd" d="M56.5503 51.4385H68.3761V52.2585H56.5503V51.4385Z" fill="white"/>
<path opacity="0.15" d="M83.9287 45.8147H66.4547C66.1076 45.8147 65.8262 46.0961 65.8262 46.4432V58.054C65.8262 58.4011 66.1076 58.6825 66.4547 58.6825H83.9287C84.2758 58.6825 84.5572 58.4011 84.5572 58.054V46.4432C84.5572 46.0961 84.2758 45.8147 83.9287 45.8147Z" fill="#1F1D20"/>
<path opacity="0.15" d="M83.9287 31.478H66.4547C66.1076 31.478 65.8262 31.7594 65.8262 32.1065V43.7173C65.8262 44.0644 66.1076 44.3458 66.4547 44.3458H83.9287C84.2758 44.3458 84.5572 44.0644 84.5572 43.7173V32.1065C84.5572 31.7594 84.2758 31.478 83.9287 31.478Z" fill="#1F1D20"/>
<g filter="url(#filter0_d_1092_170)">
<path d="M83.9287 30.9573H66.4547C66.1076 30.9573 65.8262 31.2387 65.8262 31.5858V43.1965C65.8262 43.5436 66.1076 43.825 66.4547 43.825H83.9287C84.2758 43.825 84.5572 43.5436 84.5572 43.1965V31.5858C84.5572 31.2387 84.2758 30.9573 83.9287 30.9573Z" fill="white"/>
</g>
<path opacity="0.15" d="M83.9287 60.4226H66.4547C66.1076 60.4226 65.8262 60.704 65.8262 61.0511V72.6619C65.8262 73.009 66.1076 73.2904 66.4547 73.2904H83.9287C84.2758 73.2904 84.5572 73.009 84.5572 72.6619V61.0511C84.5572 60.704 84.2758 60.4226 83.9287 60.4226Z" fill="#1F1D20"/>
<path opacity="0.15" d="M59.5331 73.5208C60.202 73.5208 60.7413 72.9816 60.7413 72.3126V32.4519H18.6353V72.3178C18.6353 72.9867 19.1745 73.526 19.8435 73.526H59.5331V73.5208Z" fill="#1F1D20"/>
<g filter="url(#filter1_d_1092_170)">
<path d="M60.7361 32.8093V32.1559C60.7361 31.347 60.0827 30.6936 59.2738 30.6936H20.0976C19.2886 30.6936 18.6353 31.347 18.6353 32.1559V32.8819V33.5456V71.0366C18.6353 71.8455 19.2886 72.4989 20.0976 72.4989H59.2842C60.0931 72.4989 60.7465 71.8455 60.7465 71.0366V32.8819C60.7465 32.8559 60.7361 32.8352 60.7361 32.8093Z" fill="white"/>
</g>
<g filter="url(#filter2_d_1092_170)">
<path d="M83.9287 45.2917H66.4547C66.1076 45.2917 65.8262 45.5731 65.8262 45.9202V57.531C65.8262 57.8781 66.1076 58.1595 66.4547 58.1595H83.9287C84.2758 58.1595 84.5572 57.8781 84.5572 57.531V45.9202C84.5572 45.5731 84.2758 45.2917 83.9287 45.2917Z" fill="white"/>
</g>
<g filter="url(#filter3_d_1092_170)">
<path d="M83.9287 59.6262H66.4547C66.1076 59.6262 65.8262 59.9076 65.8262 60.2547V71.8655C65.8262 72.2126 66.1076 72.494 66.4547 72.494H83.9287C84.2758 72.494 84.5572 72.2126 84.5572 71.8655V60.2547C84.5572 59.9076 84.2758 59.6262 83.9287 59.6262Z" fill="white"/>
</g>
<path d="M54.1532 37.1272H25.1425C24.5703 37.1272 24.1064 37.5911 24.1064 38.1633V56.813C24.1064 57.3853 24.5703 57.8491 25.1425 57.8491H54.1532C54.7255 57.8491 55.1893 57.3853 55.1893 56.813V38.1633C55.1893 37.5911 54.7255 37.1272 54.1532 37.1272Z" fill="url(#paint2_linear_1092_170)"/>
<path d="M45.882 64.117C42.8083 63.6335 42.6874 61.4232 42.6874 57.8486H36.5917C36.5917 61.4232 36.4881 63.6335 33.4144 64.117C32.99 64.164 32.5982 64.3664 32.3143 64.6853C32.0305 65.0042 31.8749 65.4169 31.8775 65.8438H47.4189C47.4215 65.4169 47.2659 65.0042 46.982 64.6853C46.6982 64.3664 46.3063 64.164 45.882 64.117V64.117Z" fill="url(#paint3_linear_1092_170)"/>
<path d="M80.3215 32.7175H70.2173C70.018 32.7175 69.8564 32.8791 69.8564 33.0784V39.574C69.8564 39.7733 70.018 39.9348 70.2173 39.9348H80.3215C80.5208 39.9348 80.6824 39.7733 80.6824 39.574V33.0784C80.6824 32.8791 80.5208 32.7175 80.3215 32.7175Z" fill="url(#paint4_linear_1092_170)"/>
<path d="M77.4407 42.1178C76.3701 41.9494 76.328 41.1795 76.328 39.9346H74.2049C74.2049 41.1796 74.1688 41.9494 73.0983 42.1178C72.9505 42.1341 72.814 42.2047 72.7152 42.3157C72.6163 42.4268 72.5621 42.5706 72.563 42.7192H77.976C77.9769 42.5706 77.9227 42.4268 77.8238 42.3157C77.725 42.2047 77.5885 42.1341 77.4407 42.1178V42.1178Z" fill="url(#paint5_linear_1092_170)"/>
<path d="M80.3215 46.9675H70.2173C70.018 46.9675 69.8564 47.1291 69.8564 47.3284V53.824C69.8564 54.0233 70.018 54.1848 70.2173 54.1848H80.3215C80.5208 54.1848 80.6824 54.0233 80.6824 53.824V47.3284C80.6824 47.1291 80.5208 46.9675 80.3215 46.9675Z" fill="url(#paint6_linear_1092_170)"/>
<path d="M77.4407 56.3678C76.3701 56.1994 76.328 55.4295 76.328 54.1846H74.2049C74.2049 55.4296 74.1688 56.1994 73.0983 56.3678C72.9505 56.3841 72.814 56.4547 72.7152 56.5657C72.6163 56.6768 72.5621 56.8206 72.563 56.9692H77.976C77.9769 56.8206 77.9227 56.6768 77.8238 56.5657C77.725 56.4547 77.5885 56.3841 77.4407 56.3678V56.3678Z" fill="url(#paint7_linear_1092_170)"/>
<path d="M80.3215 61.2175H70.2173C70.018 61.2175 69.8564 61.3791 69.8564 61.5784V68.074C69.8564 68.2733 70.018 68.4348 70.2173 68.4348H80.3215C80.5208 68.4348 80.6824 68.2733 80.6824 68.074V61.5784C80.6824 61.3791 80.5208 61.2175 80.3215 61.2175Z" fill="url(#paint8_linear_1092_170)"/>
<path d="M77.4407 70.6178C76.3701 70.4494 76.328 69.6795 76.328 68.4346H74.2049C74.2049 69.6796 74.1688 70.4494 73.0983 70.6178C72.9505 70.6341 72.814 70.7047 72.7152 70.8157C72.6163 70.9268 72.5621 71.0706 72.563 71.2192H77.976C77.9769 71.0706 77.9227 70.9268 77.8238 70.8157C77.725 70.7047 77.5885 70.6341 77.4407 70.6178V70.6178Z" fill="url(#paint9_linear_1092_170)"/>
<g filter="url(#filter4_d_1092_170)">
<path d="M77.5687 35.8752C77.5687 35.8252 77.5279 35.7844 77.4778 35.7844C77.4451 35.7844 77.2411 35.7665 77.1317 35.6811C77.1317 35.6811 77.1323 35.6799 77.1317 35.6811C77.0903 35.5303 77.0297 35.3894 76.9549 35.2559C76.9357 35.1291 77.0668 35.037 77.1267 34.9381C77.1372 34.9208 77.1434 34.9109 77.1471 34.9041C77.1583 34.872 77.1521 34.8349 77.1267 34.8095C77.1267 34.8095 77.026 34.6655 76.9227 34.5629C76.8195 34.4603 76.6631 34.3459 76.6631 34.3459C76.6279 34.3107 76.5698 34.3107 76.5345 34.3459C76.511 34.3688 76.3559 34.4968 76.2162 34.5172C76.2143 34.5172 76.2143 34.5172 76.2143 34.5172C76.0845 34.4436 75.9386 34.383 75.7921 34.3416H75.7903C75.687 34.2656 75.7142 34.1079 75.687 33.9954C75.687 33.9454 75.6462 33.9046 75.5962 33.9046C75.5962 33.9046 75.4231 33.8743 75.2772 33.8743C75.1313 33.8743 74.9403 33.9046 74.9403 33.9046C74.8902 33.9046 74.8494 33.9454 74.8494 33.9954C74.8494 34.0282 74.8315 34.2322 74.7462 34.3416C74.6016 34.3824 74.4495 34.4467 74.3209 34.5184C74.1942 34.5376 74.1021 34.4065 74.0032 34.3465C73.9859 34.336 73.976 34.3299 73.9692 34.3261C73.937 34.315 73.8999 34.3212 73.8746 34.3465C73.8746 34.3465 73.7306 34.4473 73.628 34.5505C73.5253 34.6538 73.411 34.8102 73.411 34.8102C73.3757 34.8454 73.3757 34.9035 73.411 34.9387C73.4339 34.9616 73.5655 35.1192 73.5828 35.2565V35.2577C73.5111 35.3863 73.4481 35.5377 73.4073 35.6824C73.4073 35.6824 73.4091 35.6799 73.4073 35.6824C73.3189 35.7899 73.1736 35.7584 73.0611 35.7856C73.011 35.7856 72.9702 35.8264 72.9702 35.8765C72.9702 35.8765 72.9399 36.0496 72.9399 36.1955C72.9399 36.3413 72.9702 36.5324 72.9702 36.5324C72.9702 36.5824 73.011 36.6232 73.0611 36.6232C73.0939 36.6232 73.2979 36.6411 73.4073 36.7265C73.4097 36.7252 73.4085 36.7283 73.4085 36.7283C73.4505 36.8736 73.5105 37.0188 73.5834 37.1474C73.5822 37.1493 73.5834 37.1474 73.5841 37.1517C73.5964 37.284 73.4722 37.3706 73.4122 37.4695C73.4017 37.4868 73.3955 37.4967 73.3918 37.5035C73.3807 37.5356 73.3869 37.5727 73.4122 37.5981C73.4122 37.5981 73.513 37.7421 73.6162 37.8447C73.7194 37.9479 73.8758 38.0617 73.8758 38.0617C73.9111 38.0969 73.9692 38.0969 74.0044 38.0617C74.0273 38.0388 74.1849 37.9071 74.3221 37.8898C74.3221 37.8898 74.3215 37.8904 74.324 37.8911C74.4563 37.9646 74.5929 38.0227 74.7425 38.0635C74.7437 38.0642 74.7481 38.0654 74.7481 38.0654C74.8513 38.1414 74.8241 38.2991 74.8513 38.4116C74.8569 38.4622 74.8847 38.4944 74.9422 38.5024C74.9422 38.5024 75.1152 38.5327 75.2611 38.5327C75.407 38.5327 75.598 38.503 75.598 38.503C75.6481 38.4944 75.6889 38.4622 75.6889 38.4122C75.6889 38.3794 75.7068 38.1754 75.7921 38.066C75.7921 38.066 75.7958 38.0629 75.7995 38.0598C75.9516 38.0172 76.0672 37.9702 76.2013 37.8929C76.2081 37.8904 76.2007 37.8911 76.2168 37.8886C76.3435 37.8694 76.4356 38.0005 76.5345 38.0604C76.5518 38.071 76.5617 38.0771 76.5685 38.0808C76.6007 38.092 76.6378 38.0858 76.6631 38.0604C76.6631 38.0604 76.8071 37.9597 76.9098 37.8564C77.013 37.7532 77.1267 37.5968 77.1267 37.5968C77.162 37.5616 77.162 37.5035 77.1267 37.4682C77.1039 37.4454 76.9722 37.2877 76.9549 37.1505C76.953 37.1363 76.9543 37.1344 76.9561 37.1307C77.0328 36.9954 77.081 36.8964 77.123 36.7431C77.123 36.7431 77.1212 36.7382 77.1311 36.7252C77.2071 36.622 77.3647 36.6492 77.4772 36.622C77.5273 36.622 77.5681 36.5812 77.5681 36.5311C77.5681 36.5311 77.5984 36.358 77.5984 36.2121C77.5984 36.0663 77.5687 35.8752 77.5687 35.8752ZM76.6161 36.1992C76.6161 36.9465 76.0103 37.5529 75.2624 37.5529C74.5144 37.5529 73.9086 36.9471 73.9086 36.1992C73.9086 35.4518 74.5144 34.8454 75.2624 34.8454C76.0103 34.8454 76.6161 35.4518 76.6161 36.1992Z" fill="white"/>
<path d="M76.5715 38.0824C76.5704 38.0824 76.5704 38.0813 76.5693 38.0813C76.5704 38.0813 76.5715 38.0824 76.5715 38.0824Z" fill="white"/>
<path d="M76.5701 38.082C76.5567 38.0737 76.5352 38.061 76.5352 38.061C76.5453 38.0706 76.5574 38.0775 76.5701 38.082Z" fill="white"/>
<path d="M76.5703 38.0818C76.5826 38.0889 76.58 38.0876 76.5703 38.0818V38.0818Z" fill="white"/>
<path d="M73.9697 34.3262C73.9831 34.3344 74.0046 34.3471 74.0046 34.3471C73.9945 34.3376 73.9824 34.3306 73.9697 34.3262Z" fill="white"/>
<path d="M73.9688 34.3254C73.9699 34.3254 73.9699 34.3265 73.971 34.3265C73.9699 34.3265 73.9688 34.3254 73.9688 34.3254Z" fill="white"/>
<path d="M73.9687 34.3259C73.9564 34.3188 73.959 34.3201 73.9687 34.3259V34.3259Z" fill="white"/>
<path d="M73.3916 37.5049C73.3845 37.5172 73.3858 37.5146 73.3916 37.5049V37.5049Z" fill="white"/>
<path d="M73.3911 37.5059C73.3911 37.5048 73.3922 37.5048 73.3922 37.5037C73.3922 37.5048 73.3911 37.5059 73.3911 37.5059Z" fill="white"/>
<path d="M73.3916 37.5044C73.3999 37.4911 73.4125 37.4695 73.4125 37.4695C73.403 37.4796 73.396 37.4917 73.3916 37.5044Z" fill="white"/>
<path d="M77.1479 34.9038C77.1396 34.9171 77.127 34.9387 77.127 34.9387C77.1365 34.9286 77.1435 34.9165 77.1479 34.9038Z" fill="white"/>
<path d="M77.1481 34.9028C77.1481 34.9039 77.147 34.9039 77.147 34.905C77.147 34.9039 77.1481 34.9028 77.1481 34.9028Z" fill="white"/>
<path d="M77.1479 34.9031C77.1551 34.8908 77.1538 34.8933 77.1479 34.9031V34.9031Z" fill="white"/>
</g>
<g filter="url(#filter5_d_1092_170)">
<path d="M77.5687 50.0627C77.5687 50.0127 77.5279 49.9719 77.4778 49.9719C77.4451 49.9719 77.2411 49.954 77.1317 49.8686C77.1317 49.8686 77.1323 49.8674 77.1317 49.8686C77.0903 49.7178 77.0297 49.5769 76.9549 49.4434C76.9357 49.3166 77.0668 49.2245 77.1267 49.1256C77.1372 49.1083 77.1434 49.0984 77.1471 49.0916C77.1583 49.0595 77.1521 49.0224 77.1267 48.997C77.1267 48.997 77.026 48.853 76.9227 48.7504C76.8195 48.6478 76.6631 48.5334 76.6631 48.5334C76.6279 48.4982 76.5698 48.4982 76.5345 48.5334C76.511 48.5563 76.3559 48.6843 76.2162 48.7047C76.2143 48.7047 76.2143 48.7047 76.2143 48.7047C76.0845 48.6311 75.9386 48.5705 75.7921 48.5291H75.7903C75.687 48.4531 75.7142 48.2954 75.687 48.1829C75.687 48.1329 75.6462 48.0921 75.5962 48.0921C75.5962 48.0921 75.4231 48.0618 75.2772 48.0618C75.1313 48.0618 74.9403 48.0921 74.9403 48.0921C74.8902 48.0921 74.8494 48.1329 74.8494 48.1829C74.8494 48.2157 74.8315 48.4197 74.7462 48.5291C74.6016 48.5699 74.4495 48.6342 74.3209 48.7059C74.1942 48.7251 74.1021 48.594 74.0032 48.534C73.9859 48.5235 73.976 48.5174 73.9692 48.5136C73.937 48.5025 73.8999 48.5087 73.8746 48.534C73.8746 48.534 73.7306 48.6348 73.628 48.738C73.5253 48.8413 73.411 48.9977 73.411 48.9977C73.3757 49.0329 73.3757 49.091 73.411 49.1262C73.4339 49.1491 73.5655 49.3067 73.5828 49.444V49.4452C73.5111 49.5738 73.4481 49.7252 73.4073 49.8699C73.4073 49.8699 73.4091 49.8674 73.4073 49.8699C73.3189 49.9774 73.1736 49.9459 73.0611 49.9731C73.011 49.9731 72.9702 50.0139 72.9702 50.064C72.9702 50.064 72.9399 50.2371 72.9399 50.383C72.9399 50.5288 72.9702 50.7199 72.9702 50.7199C72.9702 50.7699 73.011 50.8107 73.0611 50.8107C73.0939 50.8107 73.2979 50.8286 73.4073 50.914C73.4097 50.9127 73.4085 50.9158 73.4085 50.9158C73.4505 51.0611 73.5105 51.2063 73.5834 51.3349C73.5822 51.3368 73.5834 51.3349 73.5841 51.3392C73.5964 51.4715 73.4722 51.5581 73.4122 51.657C73.4017 51.6743 73.3955 51.6842 73.3918 51.691C73.3807 51.7231 73.3869 51.7602 73.4122 51.7856C73.4122 51.7856 73.513 51.9296 73.6162 52.0322C73.7194 52.1354 73.8758 52.2492 73.8758 52.2492C73.9111 52.2844 73.9692 52.2844 74.0044 52.2492C74.0273 52.2263 74.1849 52.0946 74.3221 52.0773C74.3221 52.0773 74.3215 52.0779 74.324 52.0786C74.4563 52.1521 74.5929 52.2102 74.7425 52.251C74.7437 52.2517 74.7481 52.2529 74.7481 52.2529C74.8513 52.3289 74.8241 52.4866 74.8513 52.5991C74.8569 52.6497 74.8847 52.6819 74.9422 52.6899C74.9422 52.6899 75.1152 52.7202 75.2611 52.7202C75.407 52.7202 75.598 52.6905 75.598 52.6905C75.6481 52.6819 75.6889 52.6497 75.6889 52.5997C75.6889 52.5669 75.7068 52.3629 75.7921 52.2535C75.7921 52.2535 75.7958 52.2504 75.7995 52.2473C75.9516 52.2047 76.0672 52.1577 76.2013 52.0804C76.2081 52.0779 76.2007 52.0786 76.2168 52.0761C76.3435 52.0569 76.4356 52.188 76.5345 52.2479C76.5518 52.2585 76.5617 52.2646 76.5685 52.2683C76.6007 52.2795 76.6378 52.2733 76.6631 52.2479C76.6631 52.2479 76.8071 52.1472 76.9098 52.0439C77.013 51.9407 77.1267 51.7843 77.1267 51.7843C77.162 51.7491 77.162 51.691 77.1267 51.6557C77.1039 51.6329 76.9722 51.4752 76.9549 51.338C76.953 51.3238 76.9543 51.3219 76.9561 51.3182C77.0328 51.1829 77.081 51.0839 77.123 50.9306C77.123 50.9306 77.1212 50.9257 77.1311 50.9127C77.2071 50.8095 77.3647 50.8367 77.4772 50.8095C77.5273 50.8095 77.5681 50.7687 77.5681 50.7186C77.5681 50.7186 77.5984 50.5455 77.5984 50.3996C77.5984 50.2538 77.5687 50.0627 77.5687 50.0627ZM76.6161 50.3867C76.6161 51.134 76.0103 51.7404 75.2624 51.7404C74.5144 51.7404 73.9086 51.1346 73.9086 50.3867C73.9086 49.6393 74.5144 49.0329 75.2624 49.0329C76.0103 49.0329 76.6161 49.6393 76.6161 50.3867Z" fill="white"/>
<path d="M76.5715 52.2699C76.5704 52.2699 76.5704 52.2688 76.5693 52.2688C76.5704 52.2688 76.5715 52.2699 76.5715 52.2699Z" fill="white"/>
<path d="M76.5701 52.2695C76.5567 52.2612 76.5352 52.2485 76.5352 52.2485C76.5453 52.2581 76.5574 52.265 76.5701 52.2695Z" fill="white"/>
<path d="M76.5703 52.2693C76.5826 52.2764 76.58 52.2751 76.5703 52.2693V52.2693Z" fill="white"/>
<path d="M73.9697 48.5137C73.9831 48.5219 74.0046 48.5346 74.0046 48.5346C73.9945 48.5251 73.9824 48.5181 73.9697 48.5137Z" fill="white"/>
<path d="M73.9688 48.5129C73.9699 48.5129 73.9699 48.514 73.971 48.514C73.9699 48.514 73.9688 48.5129 73.9688 48.5129Z" fill="white"/>
<path d="M73.9687 48.5134C73.9564 48.5063 73.959 48.5076 73.9687 48.5134V48.5134Z" fill="white"/>
<path d="M73.3916 51.6924C73.3845 51.7047 73.3858 51.7021 73.3916 51.6924V51.6924Z" fill="white"/>
<path d="M73.3911 51.6934C73.3911 51.6923 73.3922 51.6923 73.3922 51.6912C73.3922 51.6923 73.3911 51.6934 73.3911 51.6934Z" fill="white"/>
<path d="M73.3916 51.6919C73.3999 51.6786 73.4125 51.657 73.4125 51.657C73.403 51.6671 73.396 51.6792 73.3916 51.6919Z" fill="white"/>
<path d="M77.1479 49.0913C77.1396 49.1046 77.127 49.1262 77.127 49.1262C77.1365 49.1161 77.1435 49.104 77.1479 49.0913Z" fill="white"/>
<path d="M77.1481 49.0903C77.1481 49.0914 77.147 49.0914 77.147 49.0925C77.147 49.0914 77.1481 49.0903 77.1481 49.0903Z" fill="white"/>
<path d="M77.1479 49.0906C77.1551 49.0783 77.1538 49.0808 77.1479 49.0906V49.0906Z" fill="white"/>
</g>
<g filter="url(#filter6_d_1092_170)">
<path d="M77.5687 64.2502C77.5687 64.2002 77.5279 64.1594 77.4778 64.1594C77.4451 64.1594 77.2411 64.1415 77.1317 64.0561C77.1317 64.0561 77.1323 64.0549 77.1317 64.0561C77.0903 63.9053 77.0297 63.7644 76.9549 63.6309C76.9357 63.5041 77.0668 63.412 77.1267 63.3131C77.1372 63.2958 77.1434 63.2859 77.1471 63.2791C77.1583 63.247 77.1521 63.2099 77.1267 63.1845C77.1267 63.1845 77.026 63.0405 76.9227 62.9379C76.8195 62.8353 76.6631 62.7209 76.6631 62.7209C76.6279 62.6857 76.5698 62.6857 76.5345 62.7209C76.511 62.7438 76.3559 62.8718 76.2162 62.8922C76.2143 62.8922 76.2143 62.8922 76.2143 62.8922C76.0845 62.8186 75.9386 62.758 75.7921 62.7166H75.7903C75.687 62.6406 75.7142 62.4829 75.687 62.3704C75.687 62.3204 75.6462 62.2796 75.5962 62.2796C75.5962 62.2796 75.4231 62.2493 75.2772 62.2493C75.1313 62.2493 74.9403 62.2796 74.9403 62.2796C74.8902 62.2796 74.8494 62.3204 74.8494 62.3704C74.8494 62.4032 74.8315 62.6072 74.7462 62.7166C74.6016 62.7574 74.4495 62.8217 74.3209 62.8934C74.1942 62.9126 74.1021 62.7815 74.0032 62.7215C73.9859 62.711 73.976 62.7049 73.9692 62.7011C73.937 62.69 73.8999 62.6962 73.8746 62.7215C73.8746 62.7215 73.7306 62.8223 73.628 62.9255C73.5253 63.0288 73.411 63.1852 73.411 63.1852C73.3757 63.2204 73.3757 63.2785 73.411 63.3137C73.4339 63.3366 73.5655 63.4942 73.5828 63.6315V63.6327C73.5111 63.7613 73.4481 63.9127 73.4073 64.0574C73.4073 64.0574 73.4091 64.0549 73.4073 64.0574C73.3189 64.1649 73.1736 64.1334 73.0611 64.1606C73.011 64.1606 72.9702 64.2014 72.9702 64.2515C72.9702 64.2515 72.9399 64.4246 72.9399 64.5705C72.9399 64.7163 72.9702 64.9074 72.9702 64.9074C72.9702 64.9574 73.011 64.9982 73.0611 64.9982C73.0939 64.9982 73.2979 65.0161 73.4073 65.1015C73.4097 65.1002 73.4085 65.1033 73.4085 65.1033C73.4505 65.2486 73.5105 65.3938 73.5834 65.5224C73.5822 65.5243 73.5834 65.5224 73.5841 65.5267C73.5964 65.659 73.4722 65.7456 73.4122 65.8445C73.4017 65.8618 73.3955 65.8717 73.3918 65.8785C73.3807 65.9106 73.3869 65.9477 73.4122 65.9731C73.4122 65.9731 73.513 66.1171 73.6162 66.2197C73.7194 66.3229 73.8758 66.4367 73.8758 66.4367C73.9111 66.4719 73.9692 66.4719 74.0044 66.4367C74.0273 66.4138 74.1849 66.2821 74.3221 66.2648C74.3221 66.2648 74.3215 66.2654 74.324 66.2661C74.4563 66.3396 74.5929 66.3977 74.7425 66.4385C74.7437 66.4392 74.7481 66.4404 74.7481 66.4404C74.8513 66.5164 74.8241 66.6741 74.8513 66.7866C74.8569 66.8372 74.8847 66.8694 74.9422 66.8774C74.9422 66.8774 75.1152 66.9077 75.2611 66.9077C75.407 66.9077 75.598 66.878 75.598 66.878C75.6481 66.8694 75.6889 66.8372 75.6889 66.7872C75.6889 66.7544 75.7068 66.5504 75.7921 66.441C75.7921 66.441 75.7958 66.4379 75.7995 66.4348C75.9516 66.3922 76.0672 66.3452 76.2013 66.2679C76.2081 66.2654 76.2007 66.2661 76.2168 66.2636C76.3435 66.2444 76.4356 66.3755 76.5345 66.4354C76.5518 66.446 76.5617 66.4521 76.5685 66.4558C76.6007 66.467 76.6378 66.4608 76.6631 66.4354C76.6631 66.4354 76.8071 66.3347 76.9098 66.2314C77.013 66.1282 77.1267 65.9718 77.1267 65.9718C77.162 65.9366 77.162 65.8785 77.1267 65.8432C77.1039 65.8204 76.9722 65.6627 76.9549 65.5255C76.953 65.5113 76.9543 65.5094 76.9561 65.5057C77.0328 65.3704 77.081 65.2714 77.123 65.1181C77.123 65.1181 77.1212 65.1132 77.1311 65.1002C77.2071 64.997 77.3647 65.0242 77.4772 64.997C77.5273 64.997 77.5681 64.9562 77.5681 64.9061C77.5681 64.9061 77.5984 64.733 77.5984 64.5871C77.5984 64.4413 77.5687 64.2502 77.5687 64.2502ZM76.6161 64.5742C76.6161 65.3215 76.0103 65.9279 75.2624 65.9279C74.5144 65.9279 73.9086 65.3221 73.9086 64.5742C73.9086 63.8268 74.5144 63.2204 75.2624 63.2204C76.0103 63.2204 76.6161 63.8268 76.6161 64.5742Z" fill="white"/>
<path d="M76.5715 66.4574C76.5704 66.4574 76.5704 66.4563 76.5693 66.4563C76.5704 66.4563 76.5715 66.4574 76.5715 66.4574Z" fill="white"/>
<path d="M76.5701 66.457C76.5567 66.4487 76.5352 66.436 76.5352 66.436C76.5453 66.4456 76.5574 66.4525 76.5701 66.457Z" fill="white"/>
<path d="M76.5703 66.4568C76.5826 66.4639 76.58 66.4626 76.5703 66.4568V66.4568Z" fill="white"/>
<path d="M73.9697 62.7012C73.9831 62.7094 74.0046 62.7221 74.0046 62.7221C73.9945 62.7126 73.9824 62.7056 73.9697 62.7012Z" fill="white"/>
<path d="M73.9688 62.7004C73.9699 62.7004 73.9699 62.7015 73.971 62.7015C73.9699 62.7015 73.9688 62.7004 73.9688 62.7004Z" fill="white"/>
<path d="M73.9687 62.7009C73.9564 62.6938 73.959 62.6951 73.9687 62.7009V62.7009Z" fill="white"/>
<path d="M73.3916 65.8799C73.3845 65.8922 73.3858 65.8896 73.3916 65.8799V65.8799Z" fill="white"/>
<path d="M73.3911 65.8809C73.3911 65.8798 73.3922 65.8798 73.3922 65.8787C73.3922 65.8798 73.3911 65.8809 73.3911 65.8809Z" fill="white"/>
<path d="M73.3916 65.8794C73.3999 65.8661 73.4125 65.8445 73.4125 65.8445C73.403 65.8546 73.396 65.8667 73.3916 65.8794Z" fill="white"/>
<path d="M77.1479 63.2788C77.1396 63.2921 77.127 63.3137 77.127 63.3137C77.1365 63.3036 77.1435 63.2915 77.1479 63.2788Z" fill="white"/>
<path d="M77.1481 63.2778C77.1481 63.2789 77.147 63.2789 77.147 63.28C77.147 63.2789 77.1481 63.2778 77.1481 63.2778Z" fill="white"/>
<path d="M77.1479 63.2781C77.1551 63.2658 77.1538 63.2683 77.1479 63.2781V63.2781Z" fill="white"/>
</g>
<g filter="url(#filter7_d_1092_170)">
<path d="M47.9252 46.3066C47.9252 46.1264 47.7783 45.9795 47.5981 45.9795C47.4801 45.9795 46.7458 45.915 46.352 45.6079C46.352 45.6079 46.3542 45.6034 46.352 45.6079C46.2029 45.065 45.9848 44.5576 45.7156 44.077C45.6466 43.6208 46.1183 43.2893 46.3342 42.9333C46.372 42.871 46.3943 42.8353 46.4076 42.8109C46.4477 42.6952 46.4254 42.5617 46.3342 42.4704C46.3342 42.4704 45.9715 41.952 45.5999 41.5826C45.2283 41.2132 44.6653 40.8016 44.6653 40.8016C44.5385 40.6747 44.3293 40.6747 44.2025 40.8016C44.1179 40.8839 43.5594 41.3445 43.0565 41.4179C43.0498 41.4179 43.0498 41.4179 43.0498 41.4179C42.5826 41.1531 42.0574 40.9351 41.5301 40.786H41.5234C41.1518 40.5123 41.2497 39.9449 41.1518 39.5399C41.1518 39.3597 41.0049 39.2128 40.8247 39.2128C40.8247 39.2128 40.2016 39.1038 39.6765 39.1038C39.1514 39.1038 38.4638 39.2128 38.4638 39.2128C38.2836 39.2128 38.1367 39.3597 38.1367 39.5399C38.1367 39.6578 38.0722 40.3921 37.7651 40.786C37.2444 40.9328 36.697 41.1643 36.2342 41.4224C35.778 41.4914 35.4465 41.0196 35.0905 40.8038C35.0281 40.766 34.9925 40.7437 34.9681 40.7303C34.8524 40.6903 34.7189 40.7125 34.6276 40.8038C34.6276 40.8038 34.1092 41.1665 33.7398 41.5381C33.3704 41.9097 32.9588 42.4726 32.9588 42.4726C32.8319 42.5995 32.8319 42.8086 32.9588 42.9355C33.0411 43.0178 33.515 43.5852 33.5773 44.0792V44.0837C33.3192 44.5465 33.0923 45.0917 32.9454 45.6123C32.9454 45.6123 32.9521 45.6034 32.9454 45.6123C32.6272 45.9995 32.1043 45.886 31.6993 45.9839C31.5191 45.9839 31.3722 46.1308 31.3722 46.311C31.3722 46.311 31.2632 46.9341 31.2632 47.4592C31.2632 47.9844 31.3722 48.6719 31.3722 48.6719C31.3722 48.8522 31.5191 48.999 31.6993 48.999C31.8172 48.999 32.5515 49.0636 32.9454 49.3706C32.9543 49.3662 32.9499 49.3773 32.9499 49.3773C33.1012 49.9002 33.317 50.4231 33.5796 50.886C33.5751 50.8926 33.5796 50.886 33.5818 50.9015C33.6263 51.3777 33.179 51.6892 32.9632 52.0453C32.9254 52.1076 32.9031 52.1432 32.8898 52.1677C32.8497 52.2834 32.872 52.4169 32.9632 52.5081C32.9632 52.5081 33.3259 53.0266 33.6975 53.3959C34.0691 53.7675 34.6321 54.177 34.6321 54.177C34.7589 54.3038 34.9681 54.3038 35.0949 54.177C35.1772 54.0946 35.7447 53.6207 36.2386 53.5584C36.2386 53.5584 36.2364 53.5606 36.2453 53.5628C36.7215 53.8276 37.2133 54.0368 37.7517 54.1837C37.7562 54.1859 37.7718 54.1903 37.7718 54.1903C38.1434 54.464 38.0455 55.0314 38.1434 55.4364C38.1634 55.6189 38.2635 55.7346 38.4705 55.7635C38.4705 55.7635 39.0935 55.8725 39.6186 55.8725C40.1438 55.8725 40.8314 55.7657 40.8314 55.7657C41.0116 55.7346 41.1585 55.6189 41.1585 55.4386C41.1585 55.3207 41.223 54.5864 41.5301 54.1926C41.5301 54.1926 41.5434 54.1814 41.5568 54.1703C42.1041 54.0168 42.5203 53.8477 43.0031 53.5695C43.0276 53.5606 43.0009 53.5628 43.0587 53.5539C43.5149 53.485 43.8464 53.9567 44.2025 54.1725C44.2648 54.2104 44.3004 54.2326 44.3249 54.246C44.4406 54.286 44.5741 54.2638 44.6653 54.1725C44.6653 54.1725 45.1838 53.8098 45.5531 53.4382C45.9247 53.0666 46.3342 52.5037 46.3342 52.5037C46.461 52.3768 46.461 52.1677 46.3342 52.0408C46.2518 51.9585 45.7779 51.3911 45.7156 50.8971C45.7089 50.8459 45.7134 50.8392 45.72 50.8259C45.996 50.3386 46.1695 49.9826 46.3208 49.4307C46.3208 49.4307 46.3141 49.4129 46.3498 49.3662C46.6234 48.9946 47.1909 49.0925 47.5958 48.9946C47.7761 48.9946 47.9229 48.8477 47.9229 48.6675C47.9229 48.6675 48.032 48.0444 48.032 47.5193C48.032 46.9942 47.9252 46.3066 47.9252 46.3066ZM44.4962 47.4726C44.4962 50.1628 42.3155 52.3457 39.6231 52.3457C36.9307 52.3457 34.75 50.165 34.75 47.4726C34.75 44.7824 36.9307 42.5995 39.6231 42.5995C42.3155 42.5995 44.4962 44.7824 44.4962 47.4726Z" fill="white"/>
<path d="M44.3314 54.2502C44.3293 54.2502 44.3293 54.248 44.3271 54.248C44.3293 54.248 44.3314 54.2502 44.3314 54.2502Z" fill="white"/>
<path d="M44.327 54.2485C44.2802 54.2196 44.2046 54.175 44.2046 54.175C44.2402 54.2084 44.2825 54.2329 44.327 54.2485Z" fill="white"/>
<path d="M44.3315 54.2502C44.3735 54.2745 44.3647 54.2701 44.3315 54.2502V54.2502Z" fill="white"/>
<path d="M34.9702 40.731C35.0169 40.7599 35.0926 40.8044 35.0926 40.8044C35.057 40.771 35.0147 40.7465 34.9702 40.731Z" fill="white"/>
<path d="M34.9658 40.7283C34.9679 40.7283 34.9679 40.7304 34.9701 40.7304C34.9679 40.7304 34.9658 40.7283 34.9658 40.7283Z" fill="white"/>
<path d="M34.9653 40.7285C34.9233 40.7042 34.9321 40.7086 34.9653 40.7285V40.7285Z" fill="white"/>
<path d="M32.8872 52.1724C32.8629 52.2143 32.8673 52.2055 32.8872 52.1724V52.1724Z" fill="white"/>
<path d="M32.8877 52.1725C32.8877 52.1703 32.8898 52.1703 32.8898 52.1682C32.8898 52.1703 32.8877 52.1725 32.8877 52.1725Z" fill="white"/>
<path d="M32.8901 52.1675C32.9191 52.1208 32.9636 52.0452 32.9636 52.0452C32.9302 52.0808 32.9057 52.123 32.8901 52.1675Z" fill="white"/>
<path d="M46.4074 42.8108C46.3785 42.8575 46.334 42.9332 46.334 42.9332C46.3674 42.8976 46.3918 42.8553 46.4074 42.8108Z" fill="white"/>
<path d="M46.4098 42.8066C46.4098 42.8088 46.4077 42.8088 46.4077 42.8109C46.4077 42.8088 46.4098 42.8066 46.4098 42.8066Z" fill="white"/>
<path d="M46.4097 42.8061C46.434 42.7641 46.4296 42.773 46.4097 42.8061V42.8061Z" fill="white"/>
</g>
<defs>
<filter id="filter0_d_1092_170" x="61.8262" y="28.9573" width="26.731" height="20.8677" filterUnits="userSpaceOnUse" color-interpolation-filters="sRGB">
<feFlood flood-opacity="0" result="BackgroundImageFix"/>
<feColorMatrix in="SourceAlpha" type="matrix" values="0 0 0 0 0 0 0 0 0 0 0 0 0 0 0 0 0 0 127 0" result="hardAlpha"/>
<feOffset dy="2"/>
<feGaussianBlur stdDeviation="2"/>
<feComposite in2="hardAlpha" operator="out"/>
<feColorMatrix type="matrix" values="0 0 0 0 0 0 0 0 0 0 0 0 0 0 0 0 0 0 0.25 0"/>
<feBlend mode="normal" in2="BackgroundImageFix" result="effect1_dropShadow_1092_170"/>
<feBlend mode="normal" in="SourceGraphic" in2="effect1_dropShadow_1092_170" result="shape"/>
</filter>
<filter id="filter1_d_1092_170" x="14.6353" y="30.6936" width="50.1113" height="49.8052" filterUnits="userSpaceOnUse" color-interpolation-filters="sRGB">
<feFlood flood-opacity="0" result="BackgroundImageFix"/>
<feColorMatrix in="SourceAlpha" type="matrix" values="0 0 0 0 0 0 0 0 0 0 0 0 0 0 0 0 0 0 127 0" result="hardAlpha"/>
<feOffset dy="4"/>
<feGaussianBlur stdDeviation="2"/>
<feComposite in2="hardAlpha" operator="out"/>
<feColorMatrix type="matrix" values="0 0 0 0 0 0 0 0 0 0 0 0 0 0 0 0 0 0 0.25 0"/>
<feBlend mode="normal" in2="BackgroundImageFix" result="effect1_dropShadow_1092_170"/>
<feBlend mode="normal" in="SourceGraphic" in2="effect1_dropShadow_1092_170" result="shape"/>
</filter>
<filter id="filter2_d_1092_170" x="61.8262" y="43.2917" width="26.731" height="20.8677" filterUnits="userSpaceOnUse" color-interpolation-filters="sRGB">
<feFlood flood-opacity="0" result="BackgroundImageFix"/>
<feColorMatrix in="SourceAlpha" type="matrix" values="0 0 0 0 0 0 0 0 0 0 0 0 0 0 0 0 0 0 127 0" result="hardAlpha"/>
<feOffset dy="2"/>
<feGaussianBlur stdDeviation="2"/>
<feComposite in2="hardAlpha" operator="out"/>
<feColorMatrix type="matrix" values="0 0 0 0 0 0 0 0 0 0 0 0 0 0 0 0 0 0 0.25 0"/>
<feBlend mode="normal" in2="BackgroundImageFix" result="effect1_dropShadow_1092_170"/>
<feBlend mode="normal" in="SourceGraphic" in2="effect1_dropShadow_1092_170" result="shape"/>
</filter>
<filter id="filter3_d_1092_170" x="61.8262" y="57.6262" width="26.731" height="20.8677" filterUnits="userSpaceOnUse" color-interpolation-filters="sRGB">
<feFlood flood-opacity="0" result="BackgroundImageFix"/>
<feColorMatrix in="SourceAlpha" type="matrix" values="0 0 0 0 0 0 0 0 0 0 0 0 0 0 0 0 0 0 127 0" result="hardAlpha"/>
<feOffset dy="2"/>
<feGaussianBlur stdDeviation="2"/>
<feComposite in2="hardAlpha" operator="out"/>
<feColorMatrix type="matrix" values="0 0 0 0 0 0 0 0 0 0 0 0 0 0 0 0 0 0 0.25 0"/>
<feBlend mode="normal" in2="BackgroundImageFix" result="effect1_dropShadow_1092_170"/>
<feBlend mode="normal" in="SourceGraphic" in2="effect1_dropShadow_1092_170" result="shape"/>
</filter>
<filter id="filter4_d_1092_170" x="68.9399" y="33.8743" width="12.6587" height="12.6584" filterUnits="userSpaceOnUse" color-interpolation-filters="sRGB">
<feFlood flood-opacity="0" result="BackgroundImageFix"/>
<feColorMatrix in="SourceAlpha" type="matrix" values="0 0 0 0 0 0 0 0 0 0 0 0 0 0 0 0 0 0 127 0" result="hardAlpha"/>
<feOffset dy="4"/>
<feGaussianBlur stdDeviation="2"/>
<feComposite in2="hardAlpha" operator="out"/>
<feColorMatrix type="matrix" values="0 0 0 0 0 0 0 0 0 0 0 0 0 0 0 0 0 0 0.25 0"/>
<feBlend mode="normal" in2="BackgroundImageFix" result="effect1_dropShadow_1092_170"/>
<feBlend mode="normal" in="SourceGraphic" in2="effect1_dropShadow_1092_170" result="shape"/>
</filter>
<filter id="filter5_d_1092_170" x="68.9399" y="48.0618" width="12.6587" height="12.6584" filterUnits="userSpaceOnUse" color-interpolation-filters="sRGB">
<feFlood flood-opacity="0" result="BackgroundImageFix"/>
<feColorMatrix in="SourceAlpha" type="matrix" values="0 0 0 0 0 0 0 0 0 0 0 0 0 0 0 0 0 0 127 0" result="hardAlpha"/>
<feOffset dy="4"/>
<feGaussianBlur stdDeviation="2"/>
<feComposite in2="hardAlpha" operator="out"/>
<feColorMatrix type="matrix" values="0 0 0 0 0 0 0 0 0 0 0 0 0 0 0 0 0 0 0.25 0"/>
<feBlend mode="normal" in2="BackgroundImageFix" result="effect1_dropShadow_1092_170"/>
<feBlend mode="normal" in="SourceGraphic" in2="effect1_dropShadow_1092_170" result="shape"/>
</filter>
<filter id="filter6_d_1092_170" x="68.9399" y="62.2493" width="12.6587" height="12.6584" filterUnits="userSpaceOnUse" color-interpolation-filters="sRGB">
<feFlood flood-opacity="0" result="BackgroundImageFix"/>
<feColorMatrix in="SourceAlpha" type="matrix" values="0 0 0 0 0 0 0 0 0 0 0 0 0 0 0 0 0 0 127 0" result="hardAlpha"/>
<feOffset dy="4"/>
<feGaussianBlur stdDeviation="2"/>
<feComposite in2="hardAlpha" operator="out"/>
<feColorMatrix type="matrix" values="0 0 0 0 0 0 0 0 0 0 0 0 0 0 0 0 0 0 0.25 0"/>
<feBlend mode="normal" in2="BackgroundImageFix" result="effect1_dropShadow_1092_170"/>
<feBlend mode="normal" in="SourceGraphic" in2="effect1_dropShadow_1092_170" result="shape"/>
</filter>
<filter id="filter7_d_1092_170" x="27.2632" y="39.1038" width="24.7686" height="24.7688" filterUnits="userSpaceOnUse" color-interpolation-filters="sRGB">
<feFlood flood-opacity="0" result="BackgroundImageFix"/>
<feColorMatrix in="SourceAlpha" type="matrix" values="0 0 0 0 0 0 0 0 0 0 0 0 0 0 0 0 0 0 127 0" result="hardAlpha"/>
<feOffset dy="4"/>
<feGaussianBlur stdDeviation="2"/>
<feComposite in2="hardAlpha" operator="out"/>
<feColorMatrix type="matrix" values="0 0 0 0 0 0 0 0 0 0 0 0 0 0 0 0 0 0 0.25 0"/>
<feBlend mode="normal" in2="BackgroundImageFix" result="effect1_dropShadow_1092_170"/>
<feBlend mode="normal" in="SourceGraphic" in2="effect1_dropShadow_1092_170" result="shape"/>
</filter>
<linearGradient id="paint0_linear_1092_170" x1="50.1572" y1="-12.9592" x2="54.1392" y2="132.811" gradientUnits="userSpaceOnUse">
<stop stop-color="#00ABDE"/>
<stop offset="1" stop-color="#007ED8"/>
</linearGradient>
<linearGradient id="paint1_linear_1092_170" x1="3.36147" y1="-19.7924" x2="98.889" y2="121.089" gradientUnits="userSpaceOnUse">
<stop stop-color="#007ED8"/>
<stop offset="0.7065" stop-color="#002D4C"/>
</linearGradient>
<linearGradient id="paint2_linear_1092_170" x1="39.6479" y1="37.1272" x2="39.6479" y2="57.8863" gradientUnits="userSpaceOnUse">
<stop stop-color="#005BA1"/>
<stop offset="0.26" stop-color="#00589D"/>
<stop offset="0.53" stop-color="#004F90"/>
<stop offset="0.8" stop-color="#003F7C"/>
<stop offset="1" stop-color="#003067"/>
</linearGradient>
<linearGradient id="paint3_linear_1092_170" x1="39.6482" y1="65.8438" x2="39.6482" y2="57.8486" gradientUnits="userSpaceOnUse">
<stop offset="0.15" stop-color="#CCCCCC"/>
<stop offset="1" stop-color="#707070"/>
</linearGradient>
<linearGradient id="paint4_linear_1092_170" x1="75.2694" y1="32.7175" x2="75.2694" y2="39.9477" gradientUnits="userSpaceOnUse">
<stop stop-color="#005BA1"/>
<stop offset="0.26" stop-color="#00589D"/>
<stop offset="0.53" stop-color="#004F90"/>
<stop offset="0.8" stop-color="#003F7C"/>
<stop offset="1" stop-color="#003067"/>
</linearGradient>
<linearGradient id="paint5_linear_1092_170" x1="75.2695" y1="42.7192" x2="75.2695" y2="39.9346" gradientUnits="userSpaceOnUse">
<stop offset="0.15" stop-color="#CCCCCC"/>
<stop offset="1" stop-color="#707070"/>
</linearGradient>
<linearGradient id="paint6_linear_1092_170" x1="75.2694" y1="46.9675" x2="75.2694" y2="54.1977" gradientUnits="userSpaceOnUse">
<stop stop-color="#005BA1"/>
<stop offset="0.26" stop-color="#00589D"/>
<stop offset="0.53" stop-color="#004F90"/>
<stop offset="0.8" stop-color="#003F7C"/>
<stop offset="1" stop-color="#003067"/>
</linearGradient>
<linearGradient id="paint7_linear_1092_170" x1="75.2695" y1="56.9692" x2="75.2695" y2="54.1846" gradientUnits="userSpaceOnUse">
<stop offset="0.15" stop-color="#CCCCCC"/>
<stop offset="1" stop-color="#707070"/>
</linearGradient>
<linearGradient id="paint8_linear_1092_170" x1="75.2694" y1="61.2175" x2="75.2694" y2="68.4477" gradientUnits="userSpaceOnUse">
<stop stop-color="#005BA1"/>
<stop offset="0.26" stop-color="#00589D"/>
<stop offset="0.53" stop-color="#004F90"/>
<stop offset="0.8" stop-color="#003F7C"/>
<stop offset="1" stop-color="#003067"/>
</linearGradient>
<linearGradient id="paint9_linear_1092_170" x1="75.2695" y1="71.2192" x2="75.2695" y2="68.4346" gradientUnits="userSpaceOnUse">
<stop offset="0.15" stop-color="#CCCCCC"/>
<stop offset="1" stop-color="#707070"/>
</linearGradient>
</defs>
</svg>
