<svg width="103" height="103" viewBox="0 0 103 103" fill="none" xmlns="http://www.w3.org/2000/svg">
<path d="M51.7426 97.9423C25.8926 97.9423 4.93262 76.9923 4.93262 51.1323C4.93262 25.2723 25.8926 4.32227 51.7426 4.32227C77.5926 4.32227 98.5526 25.2823 98.5526 51.1323C98.5526 76.9823 77.5926 97.9423 51.7426 97.9423Z" fill="url(#paint0_linear_1143_1139)"/>
<path fill-rule="evenodd" clip-rule="evenodd" d="M97.6425 51.1324C97.6425 76.4824 77.0925 97.0324 51.7425 97.0324C26.3925 97.0324 5.84254 76.4824 5.84254 51.1324C5.84254 25.7824 26.3925 5.23244 51.7425 5.23244C77.0925 5.23244 97.6425 25.7824 97.6425 51.1324ZM51.7425 1.49243C79.1625 1.49243 101.383 23.7124 101.383 51.1324C101.383 78.5524 79.1525 100.772 51.7425 100.772C24.3225 100.772 2.10254 78.5424 2.10254 51.1324C2.10254 23.7124 24.3225 1.49243 51.7425 1.49243Z" fill="#F2F1F0"/>
<path fill-rule="evenodd" clip-rule="evenodd" d="M94.8321 51.1322C94.8321 74.9322 75.5421 94.2222 51.7421 94.2222C27.9421 94.2222 8.65211 74.9322 8.65211 51.1322C8.65211 27.3322 27.9421 8.04225 51.7421 8.04225C75.5421 8.04225 94.8321 27.3322 94.8321 51.1322ZM51.7421 4.30225C77.6021 4.30225 98.5721 25.2722 98.5721 51.1322C98.5721 76.9922 77.6021 97.9623 51.7421 97.9623C25.8821 97.9623 4.91211 76.9922 4.91211 51.1322C4.91211 25.2722 25.8721 4.30225 51.7421 4.30225Z" fill="url(#paint1_linear_1143_1139)"/>
<path d="M70.876 64.8288H58.4199V38.1287H70.8953" stroke="white" stroke-width="0.82" stroke-miterlimit="10" stroke-linejoin="round"/>
<path d="M70.8774 51.4788H58.4121" stroke="white" stroke-width="0.82" stroke-miterlimit="10"/>
<path opacity="0.15" d="M84.8989 45.1182H66.4799C66.114 45.1182 65.8174 45.4148 65.8174 45.7807V58.0193C65.8174 58.3852 66.114 58.6818 66.4799 58.6818H84.8989C85.2648 58.6818 85.5614 58.3852 85.5614 58.0193V45.7807C85.5614 45.4148 85.2648 45.1182 84.8989 45.1182Z" fill="#1F1D20"/>
<path opacity="0.15" d="M84.8989 30.0059H66.4799C66.114 30.0059 65.8174 30.3025 65.8174 30.6684V42.907C65.8174 43.2729 66.114 43.5695 66.4799 43.5695H84.8989C85.2648 43.5695 85.5614 43.2729 85.5614 42.907V30.6684C85.5614 30.3025 85.2648 30.0059 84.8989 30.0059Z" fill="#1F1D20"/>
<g filter="url(#filter0_d_1143_1139)">
<path d="M84.8989 29.457H66.4799C66.114 29.457 65.8174 29.7536 65.8174 30.1195V42.3582C65.8174 42.7241 66.114 43.0207 66.4799 43.0207H84.8989C85.2648 43.0207 85.5614 42.7241 85.5614 42.3582V30.1195C85.5614 29.7536 85.2648 29.457 84.8989 29.457Z" fill="white"/>
</g>
<path opacity="0.15" d="M84.8989 60.5159H66.4799C66.114 60.5159 65.8174 60.8125 65.8174 61.1784V73.417C65.8174 73.7829 66.114 74.0795 66.4799 74.0795H84.8989C85.2648 74.0795 85.5614 73.7829 85.5614 73.417V61.1784C85.5614 60.8125 85.2648 60.5159 84.8989 60.5159Z" fill="#1F1D20"/>
<path opacity="0.15" d="M61.5559 74.3224C62.261 74.3224 62.8294 73.754 62.8294 73.0489V31.0325H18.4463V73.0544C18.4463 73.7595 19.0147 74.3279 19.7198 74.3279H61.5559V74.3224Z" fill="#1F1D20"/>
<g filter="url(#filter1_d_1143_1139)">
<path d="M62.824 31.4093V30.7206C62.824 29.8679 62.1353 29.1792 61.2826 29.1792H19.9877C19.135 29.1792 18.4463 29.8679 18.4463 30.7206V31.4858V32.1854V71.704C18.4463 72.5566 19.135 73.2453 19.9877 73.2453H61.2935C62.1462 73.2453 62.8349 72.5566 62.8349 71.704V31.4858C62.8349 31.4585 62.824 31.4366 62.824 31.4093Z" fill="white"/>
</g>
<g filter="url(#filter2_d_1143_1139)">
<path d="M84.8989 44.5669H66.4799C66.114 44.5669 65.8174 44.8635 65.8174 45.2294V57.4681C65.8174 57.8339 66.114 58.1306 66.4799 58.1306H84.8989C85.2648 58.1306 85.5614 57.8339 85.5614 57.4681V45.2294C85.5614 44.8635 85.2648 44.5669 84.8989 44.5669Z" fill="white"/>
</g>
<g filter="url(#filter3_d_1143_1139)">
<path d="M84.8989 59.6763H66.4799C66.114 59.6763 65.8174 59.9729 65.8174 60.3388V72.5774C65.8174 72.9433 66.114 73.2399 66.4799 73.2399H84.8989C85.2648 73.2399 85.5614 72.9433 85.5614 72.5774V60.3388C85.5614 59.9729 85.2648 59.6763 84.8989 59.6763Z" fill="white"/>
</g>
<path d="M55.8846 37.2109H25.305C24.7019 37.2109 24.2129 37.6999 24.2129 38.3031V57.9614C24.2129 58.5646 24.7019 59.0535 25.305 59.0535H55.8846C56.4878 59.0535 56.9768 58.5646 56.9768 57.9614V38.3031C56.9768 37.6999 56.4878 37.2109 55.8846 37.2109Z" fill="url(#paint2_linear_1143_1139)"/>
<path d="M47.1663 65.6604C43.9263 65.1507 43.7989 62.8208 43.7989 59.053H37.3735C37.3735 62.8208 37.2643 65.1507 34.0243 65.6604C33.5771 65.7098 33.164 65.9233 32.8648 66.2594C32.5657 66.5955 32.4016 67.0306 32.4043 67.4806H48.7863C48.789 67.0306 48.6249 66.5955 48.3258 66.2594C48.0266 65.9233 47.6135 65.7098 47.1663 65.6604V65.6604Z" fill="url(#paint3_linear_1143_1139)"/>
<path d="M81.0964 31.3125H70.4458C70.2357 31.3125 70.0654 31.4828 70.0654 31.6929V38.5397C70.0654 38.7498 70.2357 38.9201 70.4458 38.9201H81.0964C81.3065 38.9201 81.4768 38.7498 81.4768 38.5397V31.6929C81.4768 31.4828 81.3065 31.3125 81.0964 31.3125Z" fill="url(#paint4_linear_1143_1139)"/>
<path d="M78.0594 41.221C76.931 41.0435 76.8866 40.232 76.8866 38.9197H74.6487C74.6487 40.232 74.6107 41.0435 73.4822 41.221C73.3264 41.2382 73.1826 41.3125 73.0784 41.4296C72.9742 41.5467 72.917 41.6982 72.918 41.8549H78.6237C78.6246 41.6982 78.5675 41.5467 78.4633 41.4296C78.3591 41.3125 78.2152 41.2382 78.0594 41.221V41.221Z" fill="url(#paint5_linear_1143_1139)"/>
<path d="M81.0964 46.333H70.4458C70.2357 46.333 70.0654 46.5033 70.0654 46.7134V53.5602C70.0654 53.7703 70.2357 53.9406 70.4458 53.9406H81.0964C81.3065 53.9406 81.4768 53.7703 81.4768 53.5602V46.7134C81.4768 46.5033 81.3065 46.333 81.0964 46.333Z" fill="url(#paint6_linear_1143_1139)"/>
<path d="M78.0594 56.2417C76.931 56.0642 76.8866 55.2527 76.8866 53.9404H74.6487C74.6487 55.2527 74.6107 56.0642 73.4822 56.2417C73.3264 56.259 73.1826 56.3333 73.0784 56.4504C72.9742 56.5674 72.917 56.719 72.918 56.8757H78.6237C78.6246 56.719 78.5675 56.5674 78.4633 56.4504C78.3591 56.3333 78.2152 56.259 78.0594 56.2417V56.2417Z" fill="url(#paint7_linear_1143_1139)"/>
<path d="M81.0964 61.354H70.4458C70.2357 61.354 70.0654 61.5243 70.0654 61.7344V68.5812C70.0654 68.7913 70.2357 68.9616 70.4458 68.9616H81.0964C81.3065 68.9616 81.4768 68.7913 81.4768 68.5812V61.7344C81.4768 61.5243 81.3065 61.354 81.0964 61.354Z" fill="url(#paint8_linear_1143_1139)"/>
<path d="M78.0594 71.2622C76.931 71.0847 76.8866 70.2732 76.8866 68.9609H74.6487C74.6487 70.2732 74.6107 71.0847 73.4822 71.2622C73.3264 71.2795 73.1826 71.3538 73.0784 71.4709C72.9742 71.588 72.917 71.7395 72.918 71.8962H78.6237C78.6246 71.7395 78.5675 71.588 78.4633 71.4709C78.3591 71.3538 78.2152 71.2795 78.0594 71.2622V71.2622Z" fill="url(#paint9_linear_1143_1139)"/>
<g filter="url(#filter4_d_1143_1139)">
<path d="M48.9569 46.8479C48.9569 46.6676 48.81 46.5208 48.6298 46.5208C48.5119 46.5208 47.7776 46.4562 47.3837 46.1492C47.3837 46.1492 47.3859 46.1447 47.3837 46.1492C47.2346 45.6062 47.0166 45.0989 46.7473 44.6182C46.6783 44.1621 47.1501 43.8305 47.3659 43.4745C47.4037 43.4122 47.426 43.3766 47.4393 43.3521C47.4794 43.2364 47.4571 43.1029 47.3659 43.0117C47.3659 43.0117 47.0032 42.4932 46.6316 42.1238C46.26 41.7545 45.697 41.3428 45.697 41.3428C45.5702 41.216 45.361 41.216 45.2342 41.3428C45.1497 41.4251 44.5911 41.8858 44.0883 41.9592C44.0816 41.9592 44.0816 41.9592 44.0816 41.9592C43.6143 41.6944 43.0892 41.4763 42.5618 41.3272H42.5551C42.1835 41.0535 42.2814 40.4861 42.1835 40.0812C42.1835 39.9009 42.0367 39.7541 41.8564 39.7541C41.8564 39.7541 41.2334 39.645 40.7082 39.645C40.1831 39.645 39.4955 39.7541 39.4955 39.7541C39.3153 39.7541 39.1684 39.9009 39.1684 40.0812C39.1684 40.1991 39.1039 40.9334 38.7968 41.3272C38.2761 41.4741 37.7288 41.7055 37.2659 41.9636C36.8098 42.0326 36.4782 41.5609 36.1222 41.345C36.0599 41.3072 36.0243 41.285 35.9998 41.2716C35.8841 41.2316 35.7506 41.2538 35.6594 41.345C35.6594 41.345 35.1409 41.7077 34.7715 42.0793C34.4021 42.4509 33.9905 43.0139 33.9905 43.0139C33.8637 43.1407 33.8637 43.3499 33.9905 43.4767C34.0728 43.5591 34.5468 44.1265 34.6091 44.6205V44.6249C34.351 45.0878 34.124 45.6329 33.9771 46.1536C33.9771 46.1536 33.9838 46.1447 33.9771 46.1536C33.6589 46.5408 33.136 46.4273 32.7311 46.5252C32.5508 46.5252 32.404 46.6721 32.404 46.8523C32.404 46.8523 32.2949 47.4753 32.2949 48.0005C32.2949 48.5256 32.404 49.2132 32.404 49.2132C32.404 49.3934 32.5508 49.5403 32.7311 49.5403C32.849 49.5403 33.5833 49.6048 33.9771 49.9119C33.986 49.9074 33.9816 49.9186 33.9816 49.9186C34.1329 50.4415 34.3487 50.9644 34.6113 51.4272C34.6069 51.4339 34.6113 51.4272 34.6135 51.4428C34.658 51.919 34.2108 52.2305 33.9949 52.5865C33.9571 52.6488 33.9349 52.6844 33.9215 52.7089C33.8815 52.8246 33.9037 52.9581 33.9949 53.0494C33.9949 53.0494 34.3576 53.5678 34.7292 53.9372C35.1008 54.3088 35.6638 54.7182 35.6638 54.7182C35.7906 54.8451 35.9998 54.8451 36.1266 54.7182C36.209 54.6359 36.7764 54.1619 37.2704 54.0996C37.2704 54.0996 37.2681 54.1019 37.277 54.1041C37.7532 54.3689 38.245 54.578 38.7835 54.7249C38.7879 54.7271 38.8035 54.7316 38.8035 54.7316C39.1751 55.0053 39.0772 55.5727 39.1751 55.9777C39.1951 56.1601 39.2953 56.2758 39.5022 56.3048C39.5022 56.3048 40.1253 56.4138 40.6504 56.4138C41.1755 56.4138 41.8631 56.307 41.8631 56.307C42.0433 56.2758 42.1902 56.1601 42.1902 55.9799C42.1902 55.862 42.2547 55.1277 42.5618 54.7338C42.5618 54.7338 42.5751 54.7227 42.5885 54.7116C43.1359 54.558 43.552 54.3889 44.0349 54.1108C44.0593 54.1019 44.0326 54.1041 44.0905 54.0952C44.5466 54.0262 44.8782 54.4979 45.2342 54.7138C45.2965 54.7516 45.3321 54.7739 45.3566 54.7872C45.4723 54.8273 45.6058 54.805 45.697 54.7138C45.697 54.7138 46.2155 54.3511 46.5849 53.9795C46.9565 53.6079 47.3659 53.0449 47.3659 53.0449C47.4927 52.9181 47.4927 52.7089 47.3659 52.5821C47.2836 52.4998 46.8096 51.9323 46.7473 51.4384C46.7406 51.3872 46.7451 51.3805 46.7518 51.3671C47.0277 50.8798 47.2013 50.5238 47.3526 49.972C47.3526 49.972 47.3459 49.9542 47.3815 49.9074C47.6552 49.5358 48.2226 49.6338 48.6276 49.5358C48.8078 49.5358 48.9547 49.389 48.9547 49.2087C48.9547 49.2087 49.0637 48.5857 49.0637 48.0606C49.0637 47.5354 48.9569 46.8479 48.9569 46.8479ZM45.5279 48.0138C45.5279 50.7041 43.3473 52.8869 40.6548 52.8869C37.9624 52.8869 35.7817 50.7063 35.7817 48.0138C35.7817 45.3236 37.9624 43.1407 40.6548 43.1407C43.3473 43.1407 45.5279 45.3236 45.5279 48.0138Z" fill="white"/>
<path d="M45.3626 54.7914C45.3605 54.7914 45.3605 54.7893 45.3584 54.7893C45.3605 54.7893 45.3626 54.7914 45.3626 54.7914Z" fill="white"/>
<path d="M45.3587 54.7897C45.312 54.7608 45.2363 54.7163 45.2363 54.7163C45.2719 54.7497 45.3142 54.7742 45.3587 54.7897Z" fill="white"/>
<path d="M45.3633 54.7915C45.4053 54.8158 45.3964 54.8114 45.3633 54.7915V54.7915Z" fill="white"/>
<path d="M36.002 41.2722C36.0487 41.3011 36.1243 41.3456 36.1243 41.3456C36.0887 41.3123 36.0465 41.2878 36.002 41.2722Z" fill="white"/>
<path d="M35.998 41.2695C36.0002 41.2695 36.0002 41.2717 36.0023 41.2717C36.0002 41.2717 35.998 41.2695 35.998 41.2695Z" fill="white"/>
<path d="M35.997 41.2698C35.955 41.2455 35.9639 41.2499 35.997 41.2698V41.2698Z" fill="white"/>
<path d="M33.919 52.7136C33.8947 52.7556 33.8991 52.7468 33.919 52.7136V52.7136Z" fill="white"/>
<path d="M33.9189 52.7137C33.9189 52.7116 33.9211 52.7116 33.9211 52.7095C33.9211 52.7116 33.9189 52.7137 33.9189 52.7137Z" fill="white"/>
<path d="M33.9219 52.7088C33.9508 52.6621 33.9953 52.5864 33.9953 52.5864C33.9619 52.622 33.9375 52.6643 33.9219 52.7088Z" fill="white"/>
<path d="M47.4396 43.3521C47.4107 43.3988 47.3662 43.4744 47.3662 43.4744C47.3996 43.4388 47.4241 43.3966 47.4396 43.3521Z" fill="white"/>
<path d="M47.4416 43.3479C47.4416 43.35 47.4395 43.35 47.4395 43.3522C47.4395 43.35 47.4416 43.3479 47.4416 43.3479Z" fill="white"/>
<path d="M47.4414 43.3474C47.4657 43.3054 47.4613 43.3142 47.4414 43.3474V43.3474Z" fill="white"/>
</g>
<path d="M77.3781 33.3571L75.0025 35.7567L74.4469 35.2011C74.2937 35.045 74.0415 35.045 73.8883 35.2011C73.7351 35.3543 73.7351 35.6036 73.8883 35.7567L74.7202 36.5916C74.8734 36.7448 75.1256 36.7448 75.2788 36.5916L77.9366 33.9127C78.0898 33.7596 78.0898 33.5103 77.9366 33.3541L77.9336 33.3511C77.7835 33.201 77.5312 33.201 77.3781 33.3571Z" fill="#FAF9F8"/>
<path d="M77.3781 48.4436L75.0025 50.8431L74.4469 50.2875C74.2937 50.1314 74.0415 50.1314 73.8883 50.2875C73.7351 50.4407 73.7351 50.69 73.8883 50.8431L74.7202 51.678C74.8734 51.8312 75.1256 51.8312 75.2788 51.678L77.9366 48.9992C78.0898 48.846 78.0898 48.5967 77.9366 48.4406L77.9336 48.4376C77.7835 48.2874 77.5312 48.2874 77.3781 48.4436Z" fill="#FAF9F8"/>
<path d="M77.3781 63.3982L75.0025 65.7977L74.4469 65.2421C74.2937 65.086 74.0415 65.086 73.8883 65.2421C73.7351 65.3953 73.7351 65.6446 73.8883 65.7977L74.7202 66.6326C74.8734 66.7858 75.1256 66.7858 75.2788 66.6326L77.9366 63.9538C78.0898 63.8006 78.0898 63.5513 77.9366 63.3952L77.9336 63.3922C77.7835 63.242 77.5312 63.242 77.3781 63.3982Z" fill="#FAF9F8"/>
<defs>
<filter id="filter0_d_1143_1139" x="61.8174" y="27.457" width="27.7441" height="21.5637" filterUnits="userSpaceOnUse" color-interpolation-filters="sRGB">
<feFlood flood-opacity="0" result="BackgroundImageFix"/>
<feColorMatrix in="SourceAlpha" type="matrix" values="0 0 0 0 0 0 0 0 0 0 0 0 0 0 0 0 0 0 127 0" result="hardAlpha"/>
<feOffset dy="2"/>
<feGaussianBlur stdDeviation="2"/>
<feComposite in2="hardAlpha" operator="out"/>
<feColorMatrix type="matrix" values="0 0 0 0 0 0 0 0 0 0 0 0 0 0 0 0 0 0 0.25 0"/>
<feBlend mode="normal" in2="BackgroundImageFix" result="effect1_dropShadow_1143_1139"/>
<feBlend mode="normal" in="SourceGraphic" in2="effect1_dropShadow_1143_1139" result="shape"/>
</filter>
<filter id="filter1_d_1143_1139" x="14.4463" y="29.1792" width="52.3887" height="52.0662" filterUnits="userSpaceOnUse" color-interpolation-filters="sRGB">
<feFlood flood-opacity="0" result="BackgroundImageFix"/>
<feColorMatrix in="SourceAlpha" type="matrix" values="0 0 0 0 0 0 0 0 0 0 0 0 0 0 0 0 0 0 127 0" result="hardAlpha"/>
<feOffset dy="4"/>
<feGaussianBlur stdDeviation="2"/>
<feComposite in2="hardAlpha" operator="out"/>
<feColorMatrix type="matrix" values="0 0 0 0 0 0 0 0 0 0 0 0 0 0 0 0 0 0 0.25 0"/>
<feBlend mode="normal" in2="BackgroundImageFix" result="effect1_dropShadow_1143_1139"/>
<feBlend mode="normal" in="SourceGraphic" in2="effect1_dropShadow_1143_1139" result="shape"/>
</filter>
<filter id="filter2_d_1143_1139" x="61.8174" y="42.5669" width="27.7441" height="21.5637" filterUnits="userSpaceOnUse" color-interpolation-filters="sRGB">
<feFlood flood-opacity="0" result="BackgroundImageFix"/>
<feColorMatrix in="SourceAlpha" type="matrix" values="0 0 0 0 0 0 0 0 0 0 0 0 0 0 0 0 0 0 127 0" result="hardAlpha"/>
<feOffset dy="2"/>
<feGaussianBlur stdDeviation="2"/>
<feComposite in2="hardAlpha" operator="out"/>
<feColorMatrix type="matrix" values="0 0 0 0 0 0 0 0 0 0 0 0 0 0 0 0 0 0 0.25 0"/>
<feBlend mode="normal" in2="BackgroundImageFix" result="effect1_dropShadow_1143_1139"/>
<feBlend mode="normal" in="SourceGraphic" in2="effect1_dropShadow_1143_1139" result="shape"/>
</filter>
<filter id="filter3_d_1143_1139" x="61.8174" y="57.6763" width="27.7441" height="21.5637" filterUnits="userSpaceOnUse" color-interpolation-filters="sRGB">
<feFlood flood-opacity="0" result="BackgroundImageFix"/>
<feColorMatrix in="SourceAlpha" type="matrix" values="0 0 0 0 0 0 0 0 0 0 0 0 0 0 0 0 0 0 127 0" result="hardAlpha"/>
<feOffset dy="2"/>
<feGaussianBlur stdDeviation="2"/>
<feComposite in2="hardAlpha" operator="out"/>
<feColorMatrix type="matrix" values="0 0 0 0 0 0 0 0 0 0 0 0 0 0 0 0 0 0 0.25 0"/>
<feBlend mode="normal" in2="BackgroundImageFix" result="effect1_dropShadow_1143_1139"/>
<feBlend mode="normal" in="SourceGraphic" in2="effect1_dropShadow_1143_1139" result="shape"/>
</filter>
<filter id="filter4_d_1143_1139" x="28.2949" y="39.645" width="24.7686" height="24.7688" filterUnits="userSpaceOnUse" color-interpolation-filters="sRGB">
<feFlood flood-opacity="0" result="BackgroundImageFix"/>
<feColorMatrix in="SourceAlpha" type="matrix" values="0 0 0 0 0 0 0 0 0 0 0 0 0 0 0 0 0 0 127 0" result="hardAlpha"/>
<feOffset dy="4"/>
<feGaussianBlur stdDeviation="2"/>
<feComposite in2="hardAlpha" operator="out"/>
<feColorMatrix type="matrix" values="0 0 0 0 0 0 0 0 0 0 0 0 0 0 0 0 0 0 0.25 0"/>
<feBlend mode="normal" in2="BackgroundImageFix" result="effect1_dropShadow_1143_1139"/>
<feBlend mode="normal" in="SourceGraphic" in2="effect1_dropShadow_1143_1139" result="shape"/>
</filter>
<linearGradient id="paint0_linear_1143_1139" x1="49.9687" y1="-13.6572" x2="53.9507" y2="132.113" gradientUnits="userSpaceOnUse">
<stop stop-color="#00ABDE"/>
<stop offset="1" stop-color="#007ED8"/>
</linearGradient>
<linearGradient id="paint1_linear_1143_1139" x1="3.17251" y1="-20.4904" x2="98.7" y2="120.391" gradientUnits="userSpaceOnUse">
<stop stop-color="#007ED8"/>
<stop offset="0.7065" stop-color="#002D4C"/>
</linearGradient>
<linearGradient id="paint2_linear_1143_1139" x1="40.5948" y1="37.2109" x2="40.5948" y2="59.0927" gradientUnits="userSpaceOnUse">
<stop stop-color="#005BA1"/>
<stop offset="0.26" stop-color="#00589D"/>
<stop offset="0.53" stop-color="#004F90"/>
<stop offset="0.8" stop-color="#003F7C"/>
<stop offset="1" stop-color="#003067"/>
</linearGradient>
<linearGradient id="paint3_linear_1143_1139" x1="40.5953" y1="67.4806" x2="40.5953" y2="59.053" gradientUnits="userSpaceOnUse">
<stop offset="0.15" stop-color="#CCCCCC"/>
<stop offset="1" stop-color="#707070"/>
</linearGradient>
<linearGradient id="paint4_linear_1143_1139" x1="75.7711" y1="31.3125" x2="75.7711" y2="38.9337" gradientUnits="userSpaceOnUse">
<stop stop-color="#005BA1"/>
<stop offset="0.26" stop-color="#00589D"/>
<stop offset="0.53" stop-color="#004F90"/>
<stop offset="0.8" stop-color="#003F7C"/>
<stop offset="1" stop-color="#003067"/>
</linearGradient>
<linearGradient id="paint5_linear_1143_1139" x1="75.7708" y1="41.8549" x2="75.7708" y2="38.9197" gradientUnits="userSpaceOnUse">
<stop offset="0.15" stop-color="#CCCCCC"/>
<stop offset="1" stop-color="#707070"/>
</linearGradient>
<linearGradient id="paint6_linear_1143_1139" x1="75.7711" y1="46.333" x2="75.7711" y2="53.9542" gradientUnits="userSpaceOnUse">
<stop stop-color="#005BA1"/>
<stop offset="0.26" stop-color="#00589D"/>
<stop offset="0.53" stop-color="#004F90"/>
<stop offset="0.8" stop-color="#003F7C"/>
<stop offset="1" stop-color="#003067"/>
</linearGradient>
<linearGradient id="paint7_linear_1143_1139" x1="75.7708" y1="56.8757" x2="75.7708" y2="53.9404" gradientUnits="userSpaceOnUse">
<stop offset="0.15" stop-color="#CCCCCC"/>
<stop offset="1" stop-color="#707070"/>
</linearGradient>
<linearGradient id="paint8_linear_1143_1139" x1="75.7711" y1="61.354" x2="75.7711" y2="68.9752" gradientUnits="userSpaceOnUse">
<stop stop-color="#005BA1"/>
<stop offset="0.26" stop-color="#00589D"/>
<stop offset="0.53" stop-color="#004F90"/>
<stop offset="0.8" stop-color="#003F7C"/>
<stop offset="1" stop-color="#003067"/>
</linearGradient>
<linearGradient id="paint9_linear_1143_1139" x1="75.7708" y1="71.8962" x2="75.7708" y2="68.9609" gradientUnits="userSpaceOnUse">
<stop offset="0.15" stop-color="#CCCCCC"/>
<stop offset="1" stop-color="#707070"/>
</linearGradient>
</defs>
</svg>
