<svg width="181" height="191" viewBox="0 0 181 191" fill="none" xmlns="http://www.w3.org/2000/svg">
<path d="M90.4987 189.516C93.5805 189.511 96.6012 188.657 99.2288 187.046L161.229 149.386C164.016 147.627 166.306 145.183 167.882 142.288C169.457 139.393 170.265 136.142 170.229 132.846V58.1364C170.262 54.841 169.453 51.5918 167.878 48.697C166.302 45.8023 164.014 43.3581 161.229 41.5963L99.2288 3.93628C96.5946 2.3509 93.5782 1.51318 90.5037 1.51318C87.4293 1.51318 84.4129 2.3509 81.7787 3.93628L19.7787 41.6163C16.9923 43.3767 14.7027 45.8205 13.1274 48.7156C11.5521 51.6106 10.7435 54.8605 10.7787 58.1562V132.856C10.7602 135.639 11.3349 138.394 12.4643 140.937C13.5937 143.48 15.252 145.754 17.3288 147.606L81.7388 187.036C84.3757 188.652 87.4064 189.51 90.4987 189.516ZM91.1487 8.51636C93.1487 8.51636 95.5788 9.72624 97.2888 10.7762L158.049 47.9663C161.799 50.2463 163.919 56.8463 163.919 61.5963L163.289 132.896C163.289 137.646 160.089 141.896 156.289 144.196L95.8887 180.576C92.4587 182.666 89.6688 182.666 86.2288 180.576L25.0187 144.106C21.2687 141.826 18.2487 137.626 18.2487 132.896V59.2063C18.2806 56.8405 18.8893 54.5183 20.022 52.441C21.1547 50.3638 22.7772 48.5943 24.7487 47.2863L85.3288 10.7263C87.0788 9.68632 89.1987 8.46631 91.1487 8.46631V8.51636Z" fill="url(#paint0_linear_1122_62)"/>
<path fill-rule="evenodd" clip-rule="evenodd" d="M98.3988 12.0472C96.026 10.5772 93.29 9.79834 90.4988 9.79834C87.7075 9.79834 84.9716 10.5772 82.5989 12.0472L26.4688 46.3773C23.9422 47.9887 21.8691 50.2188 20.4463 52.8562C19.0234 55.4936 18.2981 58.4508 18.3388 61.4473V129.547C18.299 132.544 19.0249 135.5 20.4476 138.138C21.8704 140.775 23.9429 143.005 26.4688 144.617L82.5989 178.947C84.9716 180.417 87.7075 181.196 90.4988 181.196C93.29 181.196 96.026 180.417 98.3988 178.947L154.529 144.617C157.053 143.004 159.125 140.773 160.547 138.136C161.97 135.499 162.697 132.543 162.659 129.547V61.4473C162.697 58.4513 161.97 55.4952 160.547 52.8583C159.125 50.2214 157.053 47.9908 154.529 46.3773L98.3988 12.0472Z" fill="url(#paint1_linear_1122_62)"/>
<path d="M22.8088 120.697L32.0387 125.987L22.8887 131.247L18.2887 128.607V129.137L22.4488 131.527L18.7687 133.647L18.9087 134.077L22.9087 131.787L32.0988 137.067L22.9788 142.307L21.3288 141.357L21.5387 141.987L90.0488 181.587L90.4788 181.297L81.1487 175.917L90.4188 170.587L99.6188 175.867L100.029 175.587L90.8787 170.317L100.109 165.007L109.469 170.377L109.699 169.967L100.579 164.747L109.699 159.507L118.939 164.817L119.269 164.457L110.169 159.227L119.369 153.947L128.559 159.227L129.099 159.017L119.809 153.687L129.039 148.387L138.179 153.637L138.719 153.427L129.489 148.127L138.629 142.867L147.779 148.127L148.309 147.917L139.079 142.617L148.309 137.307L157.399 142.537L157.929 142.327L148.749 137.057L157.929 131.777L162.619 134.467V133.977L158.349 131.517L162.889 128.907V128.377L157.889 131.267L148.719 125.997L157.979 120.667L163.159 123.667V123.157L119.859 98.157L100.599 87.037L100.409 86.967L91.0187 81.547L90.5888 81.2671L18.8088 122.487V123.027L22.8088 120.697ZM23.3388 131.507L32.4788 126.237L41.6988 131.527L32.5287 136.797L23.3388 131.507ZM81.1688 131.507L90.3987 126.207L99.5387 131.447L90.3088 136.757L81.1688 131.507ZM89.8688 137.017L80.6587 142.307L71.5187 137.057L80.7288 131.767L89.8688 137.017ZM90.8688 125.947L100.019 120.687L109.149 125.937L99.9987 131.197L90.8688 125.947ZM90.4188 125.687L81.1888 120.387L90.3488 115.127L99.5788 120.427L90.4188 125.687ZM89.9788 125.947L80.7487 131.247L71.5187 125.947L80.7487 120.647L89.9788 125.947ZM80.2988 131.507L71.0888 136.797L61.8588 131.497L71.0688 126.207L80.2988 131.507ZM70.6287 137.067L61.4788 142.327L52.2388 137.027L61.3987 131.757L70.6287 137.067ZM71.0788 137.317L80.2188 142.567L71.0788 147.827L61.9188 142.577L71.0788 137.317ZM80.6587 142.827L89.8887 148.127L80.7587 153.377L71.5187 148.087L80.6587 142.827ZM81.1287 142.557L90.3288 137.267L99.5588 142.567L90.3588 147.867L81.1287 142.557ZM90.7787 137.017L99.9987 131.707L109.229 137.007L100.009 142.317L90.7787 137.017ZM100.449 131.447L109.599 126.187L118.829 131.497L109.679 136.757L100.449 131.447ZM110.039 125.937L119.269 120.627L128.499 125.937L119.269 131.237L110.039 125.937ZM109.599 125.677L100.469 120.427L109.699 115.127L118.819 120.377L109.599 125.677ZM100.019 120.177L90.7887 114.867L100.019 109.567L109.249 114.867L100.019 120.177ZM90.3488 114.617L81.1888 109.347L90.4188 104.047L99.5788 109.307L90.3488 114.617ZM89.8987 114.867L80.7487 120.137L71.5788 114.867L80.7388 109.607L89.8987 114.867ZM80.2988 120.387L71.0688 125.687L61.9087 120.427L71.1387 115.127L80.2988 120.387ZM70.6287 125.947L61.4087 131.247L52.2487 125.977L61.4588 120.687L70.6287 125.947ZM60.9588 131.507L51.7887 136.767L42.6188 131.507L51.8088 126.207L60.9588 131.507ZM51.3288 137.037L42.1587 142.307L32.9987 137.037L42.1587 131.777L51.3288 137.037ZM51.7787 137.287L61.0187 142.587L51.8288 147.867L42.5988 142.567L51.7787 137.287ZM61.4588 142.847L70.6088 148.097L61.4087 153.387L52.2687 148.127L61.4588 142.847ZM71.0588 148.347L80.2887 153.647L71.0788 158.947L61.8588 153.637L71.0588 148.347ZM80.7388 153.907L90.0187 159.227L80.7988 164.527L71.5287 159.197L80.7388 153.907ZM81.2088 153.637L90.3388 148.387L99.6088 153.717L90.4888 158.957L81.2088 153.637ZM90.7988 148.117L100.009 142.827L109.279 148.157L100.079 153.447L90.7988 148.117ZM100.449 142.567L109.679 137.267L118.949 142.597L109.719 147.897L100.449 142.567ZM110.119 137.007L119.269 131.747L128.539 137.077L119.399 142.337L110.119 137.007ZM119.719 131.497L128.939 126.187L138.219 131.517L128.989 136.817L119.719 131.497ZM129.389 125.937L138.559 120.657L147.839 125.987L138.659 131.257L129.389 125.937ZM128.939 125.677L119.719 120.377L128.889 115.097L138.119 120.407L128.939 125.677ZM119.269 120.117L110.139 114.867L119.309 109.597L128.439 114.847L119.269 120.117ZM109.699 114.617L100.469 109.307L109.639 104.047L118.869 109.347L109.699 114.617ZM100.019 109.057L90.8588 103.787L100.029 98.527L109.189 103.787L100.019 109.057ZM90.4188 103.537L81.1487 98.207L90.2988 92.937L99.5788 98.2671L90.4188 103.537ZM89.9688 103.787L80.7388 109.097L71.4888 103.777L80.7088 98.467L89.9688 103.787ZM80.2988 109.347L71.1387 114.617L61.8987 109.307L71.0488 104.037L80.2988 109.347ZM70.6888 114.867L61.4588 120.167L52.2288 114.867L61.4488 109.557L70.6888 114.867ZM61.0187 120.427L51.7988 125.727L42.5788 120.427L51.7887 115.127L61.0187 120.427ZM51.3488 125.987L42.1788 131.257L32.9588 125.967L42.1287 120.687L51.3488 125.987ZM23.3488 142.557L32.4688 137.317L41.6287 142.577L32.4888 147.837L23.3488 142.557ZM32.9288 148.097L42.0788 142.837L51.2988 148.137L42.1287 153.407L32.9288 148.097ZM42.5788 153.667L51.7487 148.397L60.8987 153.647L51.6988 158.937L42.5788 153.667ZM52.1487 159.197L61.3388 153.907L70.5688 159.207L61.3488 164.507L52.1487 159.197ZM61.7988 164.767L71.0187 159.467L80.2887 164.797L71.0488 170.107L61.7988 164.767ZM80.6287 175.647L71.4888 170.367L80.7388 165.047L89.8987 170.317L80.6287 175.647ZM90.3488 170.057L81.1888 164.787L90.4188 159.487L99.5888 164.747L90.3488 170.057ZM100.059 164.477L90.8787 159.217L100.009 153.967L109.169 159.237L100.059 164.477ZM109.639 158.967L100.479 153.697L109.669 148.407L118.839 153.677L109.639 158.967ZM119.289 153.417L110.119 148.157L119.349 142.847L128.509 148.117L119.289 153.417ZM128.959 147.857L119.789 142.597L128.939 137.337L138.109 142.607L128.959 147.857ZM138.549 142.347L129.389 137.077L138.609 131.777L147.779 137.047L138.549 142.347ZM157.399 131.507L148.229 136.787L139.059 131.517L148.229 126.237L157.399 131.507ZM157.489 120.407L148.229 125.727L138.959 120.397L148.239 115.057L157.489 120.407ZM147.799 114.807L138.509 120.147L129.279 114.847L138.589 109.487L147.799 114.807ZM138.149 109.237L128.839 114.587L119.709 109.347L129.049 103.977L138.149 109.237ZM128.599 103.717L119.259 109.087L110.029 103.787L119.399 98.407L128.599 103.717ZM118.949 98.147L109.589 103.527L100.419 98.2671L109.809 92.8771L118.949 98.147ZM109.369 92.6171L99.9788 98.0071L90.6988 92.687L100.099 87.2671L109.369 92.6171ZM90.5588 81.7571L99.6587 87.0071L90.2487 92.427L81.1088 87.177L90.5588 81.7571ZM80.6688 87.437L89.8088 92.687L80.6587 97.957L71.5087 92.697L80.6688 87.437ZM71.0588 92.947L80.2088 98.207L70.9888 103.517L61.8288 98.2571L71.0588 92.947ZM61.3787 98.5071L70.5488 103.777L61.3987 109.047L52.2188 103.777L61.3787 98.5071ZM51.7787 104.027L60.9488 109.307L51.7388 114.607L42.5387 109.327L51.7787 104.027ZM42.0988 109.587L51.2887 114.867L42.0788 120.167L32.8787 114.887L42.0988 109.587ZM32.4288 115.137L41.6287 120.427L32.4588 125.717L23.2288 120.417L32.4288 115.137Z" fill="url(#paint2_linear_1122_62)"/>
<path fill-rule="evenodd" clip-rule="evenodd" d="M90.9288 11.2671C92.6088 11.2671 94.4988 12.1371 96.5588 13.3871L155.039 48.927C156.931 50.14 158.481 51.817 159.542 53.7985C160.603 55.7799 161.139 57.9999 161.099 60.2471V130.727C161.138 132.974 160.601 135.194 159.54 137.175C158.48 139.156 156.93 140.833 155.039 142.047L96.5688 177.587C94.9613 178.844 92.9794 179.527 90.9388 179.527C88.8982 179.527 86.9163 178.844 85.3088 177.587L26.8088 142.057C25.0262 141.104 23.5025 139.731 22.3689 138.057C21.3689 136.457 20.7487 134.237 20.7487 130.777V60.297C20.709 58.0498 21.2451 55.83 22.3059 53.8485C23.3666 51.8671 24.9167 50.19 26.8088 48.9771L85.2688 13.437C87.3788 12.147 89.2388 11.2671 90.9288 11.2671ZM98.6388 181.017L157.109 145.477C159.591 143.909 161.63 141.731 163.031 139.15C164.431 136.57 165.147 133.673 165.109 130.737V60.2571C165.147 57.3211 164.431 54.4245 163.031 51.8439C161.63 49.2633 159.591 47.085 157.109 45.5171L98.6388 9.97705C96.5288 8.69705 93.8188 7.26709 90.9288 7.26709C88.0388 7.26709 85.3188 8.70704 83.2289 9.96704L24.7588 45.5171C22.2762 47.085 20.2374 49.2633 18.8368 51.8439C17.4362 54.4245 16.7206 57.3211 16.7588 60.2571V130.737C16.6065 134.001 17.3685 137.243 18.9588 140.097C20.4138 142.336 22.3993 144.18 24.7389 145.467L83.1988 181.007C85.4336 182.655 88.1372 183.544 90.9138 183.544C93.6904 183.544 96.394 182.655 98.6288 181.007L98.6388 181.017Z" fill="url(#paint3_linear_1122_62)"/>
<path d="M62.8112 49.9036L62.3066 50.2017C61.506 50.7003 60.7398 51.252 60.013 51.8531L61.5039 50.821H74.0959L76.3895 68.2526L64.9214 79.7207L53.4532 87.7025V96.877C53.4515 100.036 54.2655 103.143 55.8166 105.895C57.3676 108.648 59.6031 110.953 62.3066 112.588L74.3711 119.882L48.866 134.768H43.9576L34.7831 129.217C32.083 127.584 29.8496 125.282 28.2987 122.534C26.7478 119.786 25.9319 116.684 25.9297 113.529V82.6107C25.9319 79.4551 26.7478 76.3534 28.2987 73.6052C29.8496 70.857 32.083 68.5553 34.7831 66.9223L62.3066 50.2705L62.8112 49.9036Z" fill="url(#paint4_radial_1122_62)"/>
<path d="M62.8112 49.9036L62.3066 50.2017C61.506 50.7003 60.7398 51.252 60.013 51.8531L61.5039 50.821H74.0959L76.3895 68.2526L64.9214 79.7207L53.4532 87.7025V96.877C53.4515 100.036 54.2655 103.143 55.8166 105.895C57.3676 108.648 59.6031 110.953 62.3066 112.588L74.3711 119.882L48.866 134.768H43.9576L34.7831 129.217C32.083 127.584 29.8496 125.282 28.2987 122.534C26.7478 119.786 25.9319 116.684 25.9297 113.529V82.6107C25.9319 79.4551 26.7478 76.3534 28.2987 73.6052C29.8496 70.857 32.083 68.5553 34.7831 66.9223L62.3066 50.2705L62.8112 49.9036Z" fill="url(#paint5_linear_1122_62)"/>
<path d="M90.1516 86.6011V96.8765C90.1494 100.032 89.3335 103.134 87.7826 105.882C86.2318 108.63 83.9984 110.932 81.2982 112.565L53.7747 129.24C51.0176 130.906 47.8704 131.817 44.6494 131.882C41.4284 131.946 38.2472 131.162 35.4257 129.607L62.307 145.868C65.1714 147.601 68.4551 148.516 71.8026 148.516C75.1501 148.516 78.4338 147.601 81.2982 145.868L108.822 129.217C111.522 127.584 113.755 125.282 115.306 122.534C116.857 119.785 117.673 116.684 117.675 113.528V106.097L115.381 102.656L90.1516 86.6011Z" fill="url(#paint6_radial_1122_62)"/>
<path d="M90.1516 86.6011V96.8765C90.1494 100.032 89.3335 103.134 87.7826 105.882C86.2318 108.63 83.9984 110.932 81.2982 112.565L53.7747 129.24C51.0176 130.906 47.8704 131.817 44.6494 131.882C41.4284 131.946 38.2472 131.162 35.4257 129.607L62.307 145.868C65.1714 147.601 68.4551 148.516 71.8026 148.516C75.1501 148.516 78.4338 147.601 81.2982 145.868L108.822 129.217C111.522 127.584 113.755 125.282 115.306 122.534C116.857 119.785 117.673 116.684 117.675 113.528V106.097L115.381 102.656L90.1516 86.6011Z" fill="url(#paint7_linear_1122_62)"/>
<path d="M108.821 66.9213L81.2979 50.2696C78.5367 48.61 75.3874 47.7066 72.1664 47.6503C68.9454 47.5939 65.7664 48.3865 62.9489 49.9485L62.3984 50.2696C59.6812 51.8913 57.4295 54.1882 55.8621 56.9371C54.2948 59.686 53.4649 62.7936 53.4533 65.958V87.7015L62.3067 82.3574C65.171 80.625 68.4548 79.7093 71.8023 79.7093C75.1498 79.7093 78.4335 80.625 81.2979 82.3574L108.821 99.0091C111.44 100.591 113.622 102.802 115.168 105.442C116.714 108.082 117.576 111.066 117.675 114.124V82.6097C117.673 79.4541 116.857 76.3524 115.306 73.6042C113.755 70.8561 111.522 68.5543 108.821 66.9213Z" fill="url(#paint8_radial_1122_62)"/>
<path d="M108.821 66.9213L81.2979 50.2696C78.5367 48.61 75.3874 47.7066 72.1664 47.6503C68.9454 47.5939 65.7664 48.3865 62.9489 49.9485L62.3984 50.2696C59.6812 51.8913 57.4295 54.1882 55.8621 56.9371C54.2948 59.686 53.4649 62.7936 53.4533 65.958V87.7015L62.3067 82.3574C65.171 80.625 68.4548 79.7093 71.8023 79.7093C75.1498 79.7093 78.4335 80.625 81.2979 82.3574L108.821 99.0091C111.44 100.591 113.622 102.802 115.168 105.442C116.714 108.082 117.576 111.066 117.675 114.124V82.6097C117.673 79.4541 116.857 76.3524 115.306 73.6042C113.755 70.8561 111.522 68.5543 108.821 66.9213Z" fill="url(#paint9_linear_1122_62)"/>
<path opacity="0.2" d="M154.397 97.356H140.435C139.585 97.356 138.895 98.0461 138.895 98.8947V107.448C138.895 108.297 139.585 108.987 140.435 108.987H154.408C155.257 108.987 155.948 108.297 155.948 107.448V98.9173C155.948 98.0461 155.257 97.356 154.397 97.356Z" fill="#1F1D21"/>
<path opacity="0.2" d="M154.397 83.1221H140.435C139.585 83.1221 138.895 83.8122 138.895 84.6608V93.2032C138.895 94.0518 139.585 94.742 140.435 94.742H154.408C155.257 94.7533 155.948 94.0631 155.948 93.2032V84.6608C155.948 83.8122 155.257 83.1221 154.397 83.1221Z" fill="#1F1D21"/>
<path opacity="0.2" d="M154.397 111.556H140.435C139.585 111.556 138.895 112.246 138.895 113.094V121.648C138.895 122.497 139.585 123.187 140.435 123.187H154.408C155.257 123.187 155.948 122.497 155.948 121.648V113.106C155.948 112.257 155.257 111.556 154.397 111.556Z" fill="#1F1D21"/>
<path opacity="0.2" d="M154.397 68.9229H140.435C139.585 68.9229 138.895 69.613 138.895 70.4616V79.004C138.895 79.8526 139.585 80.5428 140.435 80.5428H154.408C155.257 80.5541 155.948 79.8639 155.948 79.004V70.4729C155.948 69.613 155.257 68.9229 154.397 68.9229Z" fill="#1F1D21"/>
<path fill-rule="evenodd" clip-rule="evenodd" d="M134.409 102.038H153.738V103.038H134.409V102.038Z" fill="white"/>
<path fill-rule="evenodd" clip-rule="evenodd" d="M134.409 88.0081H153.738V89.0081H134.409V88.0081Z" fill="white"/>
<path fill-rule="evenodd" clip-rule="evenodd" d="M133.909 74.4558C133.909 74.1797 134.132 73.9558 134.409 73.9558H153.738V74.9558H134.909V116.057H153.738V117.057H134.409C134.132 117.057 133.909 116.833 133.909 116.557V74.4558Z" fill="white"/>
<g filter="url(#filter0_d_1122_62)">
<path d="M154.397 68.2778H140.435C139.585 68.2778 138.895 68.968 138.895 69.8166V78.359C138.895 79.2076 139.585 79.8977 140.435 79.8977H154.408C155.257 79.9091 155.948 79.2189 155.948 78.359V69.8279C155.948 68.968 155.257 68.2778 154.397 68.2778Z" fill="#84ECFD"/>
</g>
<g filter="url(#filter1_d_1122_62)">
<path d="M154.397 96.7109H140.435C139.585 96.7109 138.895 97.4011 138.895 98.2497V106.803C138.895 107.652 139.585 108.342 140.435 108.342H154.408C155.257 108.342 155.948 107.652 155.948 106.803V98.2723C155.948 97.4011 155.257 96.7109 154.397 96.7109Z" fill="#45CAF2"/>
</g>
<g filter="url(#filter2_d_1122_62)">
<path d="M154.397 82.4775H140.435C139.585 82.4775 138.895 83.1677 138.895 84.0163V92.5587C138.895 93.4073 139.585 94.0975 140.435 94.0975H154.408C155.257 94.1088 155.948 93.4186 155.948 92.5587V84.0163C155.948 83.1677 155.257 82.4775 154.397 82.4775Z" fill="#50E6FF"/>
</g>
<g filter="url(#filter3_d_1122_62)">
<path d="M154.397 110.911H140.435C139.585 110.911 138.895 111.601 138.895 112.449V121.003C138.895 121.852 139.585 122.542 140.435 122.542H154.408C155.257 122.542 155.948 121.852 155.948 121.003V112.461C155.948 111.612 155.257 110.911 154.397 110.911Z" fill="#32B0E7"/>
</g>
<path fill-rule="evenodd" clip-rule="evenodd" d="M119.926 95.4192H134.465V96.4192H119.926V95.4192Z" fill="white"/>
<path opacity="0.2" d="M127.846 121.769C128.986 121.769 129.909 120.846 129.909 119.706V70.9216H77.7755V119.706C77.7755 120.846 78.6983 121.769 79.8389 121.769H127.846Z" fill="#1F1D21"/>
<g filter="url(#filter4_d_1122_62)">
<path d="M129.909 70.9011V70.0923C129.909 69.0866 129.1 68.2778 128.095 68.2778H79.5902C78.5845 68.2778 77.7757 69.0866 77.7757 70.0923V70.984V71.8032V118.223C77.7757 119.229 78.5845 120.038 79.5902 120.038H128.115C129.121 120.038 129.93 119.229 129.93 118.223V70.984C129.919 70.9529 129.909 70.9322 129.909 70.9011Z" fill="#F2F1F0"/>
</g>
<path opacity="0.2" d="M124.065 125.78C125.206 125.78 126.129 124.858 126.129 123.717V74.9329H73.9954V123.717C73.9954 124.858 74.9182 125.78 76.0588 125.78H124.065Z" fill="#1F1D21"/>
<g filter="url(#filter5_d_1122_62)">
<path d="M126.129 74.9118V74.1031C126.129 73.0973 125.32 72.2886 124.314 72.2886H75.8101C74.8044 72.2886 73.9956 73.0973 73.9956 74.1031V74.9948V75.8139V122.234C73.9956 123.24 74.8044 124.049 75.8101 124.049H124.335C125.341 124.049 126.15 123.24 126.15 122.234V74.9948C126.139 74.9637 126.129 74.9429 126.129 74.9118Z" fill="white"/>
</g>
<path d="M109.987 113.572H99.1937C98.8851 113.58 98.5785 113.522 98.2943 113.401C98.0214 113.29 97.7736 113.125 97.5657 112.916C97.3547 112.709 97.1893 112.461 97.08 112.187C96.9648 111.917 96.9067 111.626 96.9091 111.333C96.9003 111.024 96.9586 110.717 97.08 110.433C97.1893 110.159 97.3547 109.911 97.5657 109.705C97.7736 109.496 98.0214 109.331 98.2943 109.219C98.5785 109.099 98.8851 109.04 99.1937 109.048H109.987C110.58 109.05 111.149 109.286 111.57 109.705C111.778 109.912 111.943 110.159 112.056 110.431C112.169 110.702 112.227 110.993 112.226 111.288C112.227 111.582 112.169 111.873 112.056 112.145C111.943 112.416 111.778 112.663 111.57 112.871C111.366 113.088 111.121 113.261 110.849 113.382C110.577 113.502 110.284 113.567 109.987 113.572Z" fill="url(#paint10_linear_1122_62)"/>
<path d="M92.4211 81.2921L105.571 94.9993C105.87 95.3133 106.1 95.6872 106.245 96.0965C106.39 96.5057 106.442 96.9419 106.398 97.3737C106.356 97.8068 106.224 98.2264 106.011 98.6059C105.784 98.9852 105.477 99.3105 105.112 99.5594L85.1718 113.689C84.8964 113.887 84.5846 114.029 84.2543 114.106C83.924 114.183 83.5816 114.195 83.247 114.139C82.5721 114.023 81.9689 113.649 81.5651 113.096C81.1694 112.537 81.008 111.846 81.1154 111.171C81.2278 110.494 81.6027 109.89 82.1587 109.489L99.8682 96.8071L88.6885 84.7909C88.2348 84.304 87.9922 83.6572 88.0139 82.9921C88.0207 82.654 88.095 82.3208 88.2325 82.0118C88.37 81.7029 88.5678 81.4246 88.8144 81.1932C89.2981 80.7314 89.9446 80.4792 90.6132 80.4917C90.9529 80.4967 91.288 80.5703 91.5987 80.7078C91.9093 80.8454 92.189 81.0441 92.4211 81.2921Z" fill="url(#paint11_linear_1122_62)"/>
<defs>
<filter id="filter0_d_1122_62" x="134.895" y="65.2778" width="25.0534" height="19.6201" filterUnits="userSpaceOnUse" color-interpolation-filters="sRGB">
<feFlood flood-opacity="0" result="BackgroundImageFix"/>
<feColorMatrix in="SourceAlpha" type="matrix" values="0 0 0 0 0 0 0 0 0 0 0 0 0 0 0 0 0 0 127 0" result="hardAlpha"/>
<feOffset dy="1"/>
<feGaussianBlur stdDeviation="2"/>
<feComposite in2="hardAlpha" operator="out"/>
<feColorMatrix type="matrix" values="0 0 0 0 0 0 0 0 0 0 0 0 0 0 0 0 0 0 0.25 0"/>
<feBlend mode="normal" in2="BackgroundImageFix" result="effect1_dropShadow_1122_62"/>
<feBlend mode="normal" in="SourceGraphic" in2="effect1_dropShadow_1122_62" result="shape"/>
</filter>
<filter id="filter1_d_1122_62" x="134.895" y="93.7109" width="25.0534" height="19.6313" filterUnits="userSpaceOnUse" color-interpolation-filters="sRGB">
<feFlood flood-opacity="0" result="BackgroundImageFix"/>
<feColorMatrix in="SourceAlpha" type="matrix" values="0 0 0 0 0 0 0 0 0 0 0 0 0 0 0 0 0 0 127 0" result="hardAlpha"/>
<feOffset dy="1"/>
<feGaussianBlur stdDeviation="2"/>
<feComposite in2="hardAlpha" operator="out"/>
<feColorMatrix type="matrix" values="0 0 0 0 0 0 0 0 0 0 0 0 0 0 0 0 0 0 0.25 0"/>
<feBlend mode="normal" in2="BackgroundImageFix" result="effect1_dropShadow_1122_62"/>
<feBlend mode="normal" in="SourceGraphic" in2="effect1_dropShadow_1122_62" result="shape"/>
</filter>
<filter id="filter2_d_1122_62" x="134.895" y="79.4775" width="25.0534" height="19.6201" filterUnits="userSpaceOnUse" color-interpolation-filters="sRGB">
<feFlood flood-opacity="0" result="BackgroundImageFix"/>
<feColorMatrix in="SourceAlpha" type="matrix" values="0 0 0 0 0 0 0 0 0 0 0 0 0 0 0 0 0 0 127 0" result="hardAlpha"/>
<feOffset dy="1"/>
<feGaussianBlur stdDeviation="2"/>
<feComposite in2="hardAlpha" operator="out"/>
<feColorMatrix type="matrix" values="0 0 0 0 0 0 0 0 0 0 0 0 0 0 0 0 0 0 0.25 0"/>
<feBlend mode="normal" in2="BackgroundImageFix" result="effect1_dropShadow_1122_62"/>
<feBlend mode="normal" in="SourceGraphic" in2="effect1_dropShadow_1122_62" result="shape"/>
</filter>
<filter id="filter3_d_1122_62" x="134.895" y="107.911" width="25.0534" height="19.6313" filterUnits="userSpaceOnUse" color-interpolation-filters="sRGB">
<feFlood flood-opacity="0" result="BackgroundImageFix"/>
<feColorMatrix in="SourceAlpha" type="matrix" values="0 0 0 0 0 0 0 0 0 0 0 0 0 0 0 0 0 0 127 0" result="hardAlpha"/>
<feOffset dy="1"/>
<feGaussianBlur stdDeviation="2"/>
<feComposite in2="hardAlpha" operator="out"/>
<feColorMatrix type="matrix" values="0 0 0 0 0 0 0 0 0 0 0 0 0 0 0 0 0 0 0.25 0"/>
<feBlend mode="normal" in2="BackgroundImageFix" result="effect1_dropShadow_1122_62"/>
<feBlend mode="normal" in="SourceGraphic" in2="effect1_dropShadow_1122_62" result="shape"/>
</filter>
<filter id="filter4_d_1122_62" x="73.7757" y="68.2778" width="60.1541" height="59.76" filterUnits="userSpaceOnUse" color-interpolation-filters="sRGB">
<feFlood flood-opacity="0" result="BackgroundImageFix"/>
<feColorMatrix in="SourceAlpha" type="matrix" values="0 0 0 0 0 0 0 0 0 0 0 0 0 0 0 0 0 0 127 0" result="hardAlpha"/>
<feOffset dy="4"/>
<feGaussianBlur stdDeviation="2"/>
<feComposite in2="hardAlpha" operator="out"/>
<feColorMatrix type="matrix" values="0 0 0 0 0 0 0 0 0 0 0 0 0 0 0 0 0 0 0.25 0"/>
<feBlend mode="normal" in2="BackgroundImageFix" result="effect1_dropShadow_1122_62"/>
<feBlend mode="normal" in="SourceGraphic" in2="effect1_dropShadow_1122_62" result="shape"/>
</filter>
<filter id="filter5_d_1122_62" x="69.9956" y="72.2886" width="60.1541" height="59.76" filterUnits="userSpaceOnUse" color-interpolation-filters="sRGB">
<feFlood flood-opacity="0" result="BackgroundImageFix"/>
<feColorMatrix in="SourceAlpha" type="matrix" values="0 0 0 0 0 0 0 0 0 0 0 0 0 0 0 0 0 0 127 0" result="hardAlpha"/>
<feOffset dy="4"/>
<feGaussianBlur stdDeviation="2"/>
<feComposite in2="hardAlpha" operator="out"/>
<feColorMatrix type="matrix" values="0 0 0 0 0 0 0 0 0 0 0 0 0 0 0 0 0 0 0.25 0"/>
<feBlend mode="normal" in2="BackgroundImageFix" result="effect1_dropShadow_1122_62"/>
<feBlend mode="normal" in="SourceGraphic" in2="effect1_dropShadow_1122_62" result="shape"/>
</filter>
<linearGradient id="paint0_linear_1122_62" x1="89.1588" y1="188.086" x2="93.0688" y2="-83.6338" gradientUnits="userSpaceOnUse">
<stop offset="0.2" stop-color="white"/>
<stop offset="0.63" stop-color="#F4F3F5"/>
<stop offset="1" stop-color="#E8E6DF"/>
</linearGradient>
<linearGradient id="paint1_linear_1122_62" x1="90.4986" y1="9.79834" x2="90.4986" y2="181.196" gradientUnits="userSpaceOnUse">
<stop stop-color="#00ABDE"/>
<stop offset="1" stop-color="#007ED8"/>
</linearGradient>
<linearGradient id="paint2_linear_1122_62" x1="-1818.61" y1="-4731.79" x2="-98.6634" y2="4401.1" gradientUnits="userSpaceOnUse">
<stop offset="0.0435" stop-color="white"/>
<stop offset="0.4857" stop-color="#4DC1EA"/>
<stop offset="0.8452" stop-color="#0078D4"/>
</linearGradient>
<linearGradient id="paint3_linear_1122_62" x1="37.0277" y1="4.58809" x2="203.681" y2="286.984" gradientUnits="userSpaceOnUse">
<stop stop-color="#007ED8"/>
<stop offset="0.7065" stop-color="#002D4C"/>
</linearGradient>
<radialGradient id="paint4_radial_1122_62" cx="0" cy="0" r="1" gradientUnits="userSpaceOnUse" gradientTransform="translate(54.7927 64.4887) rotate(110.526) scale(76.5347 133.481)">
<stop offset="0.06" stop-color="#AE7FE2"/>
<stop offset="1" stop-color="#0078D4"/>
</radialGradient>
<linearGradient id="paint5_linear_1122_62" x1="71.3435" y1="121.533" x2="60.4259" y2="102.657" gradientUnits="userSpaceOnUse">
<stop stop-color="#114A8B"/>
<stop offset="1" stop-color="#0078D4" stop-opacity="0"/>
</linearGradient>
<radialGradient id="paint6_radial_1122_62" cx="0" cy="0" r="1" gradientUnits="userSpaceOnUse" gradientTransform="translate(46.0089 132.677) rotate(-8.37018) scale(71.2188 47.0369)">
<stop offset="0.13" stop-color="#D59DFF"/>
<stop offset="1" stop-color="#5E438F"/>
</radialGradient>
<linearGradient id="paint7_linear_1122_62" x1="98.1563" y1="93.4361" x2="86.4588" y2="110.225" gradientUnits="userSpaceOnUse">
<stop stop-color="#493474"/>
<stop offset="1" stop-color="#8C66BA" stop-opacity="0"/>
</linearGradient>
<radialGradient id="paint8_radial_1122_62" cx="0" cy="0" r="1" gradientUnits="userSpaceOnUse" gradientTransform="translate(116.895 115.956) rotate(-165.763) scale(57.1698 96.2324)">
<stop offset="0.06" stop-color="#50E6FF"/>
<stop offset="1" stop-color="#436DCD"/>
</radialGradient>
<linearGradient id="paint9_linear_1122_62" x1="55.701" y1="80.8665" x2="72.9261" y2="80.8665" gradientUnits="userSpaceOnUse">
<stop stop-color="#2D3F80"/>
<stop offset="1" stop-color="#436DCD" stop-opacity="0"/>
</linearGradient>
<linearGradient id="paint10_linear_1122_62" x1="85.7204" y1="75.0319" x2="120.627" y2="142.147" gradientUnits="userSpaceOnUse">
<stop stop-color="#007ED8"/>
<stop offset="0.71" stop-color="#002D4C"/>
</linearGradient>
<linearGradient id="paint11_linear_1122_62" x1="80.0721" y1="77.9643" x2="114.978" y2="145.088" gradientUnits="userSpaceOnUse">
<stop stop-color="#007ED8"/>
<stop offset="0.71" stop-color="#002D4C"/>
</linearGradient>
</defs>
</svg>
