<svg width="181" height="191" viewBox="0 0 181 191" fill="none" xmlns="http://www.w3.org/2000/svg">
<path d="M90.526 189.869C93.586 189.869 96.596 189.019 99.256 187.399L161.226 149.739C166.766 146.369 170.196 140.039 170.196 133.199V58.4892C170.196 51.6692 166.766 45.3292 161.226 41.9492L99.256 4.28921C93.926 1.04921 87.106 1.06921 81.806 4.28921L19.836 41.9692C14.296 45.3392 10.846 51.6692 10.846 58.5092V133.209C10.846 138.969 13.296 144.389 17.396 147.959V147.989L81.806 187.419C84.446 189.019 87.466 189.869 90.526 189.869ZM91.176 8.8192C93.126 8.8192 95.606 10.0292 97.316 11.0792L158.076 48.2692C161.826 50.5492 163.946 57.1492 163.946 61.8992L163.316 133.199C163.316 137.949 160.116 142.219 156.366 144.499L95.966 180.879C92.536 182.969 89.746 182.969 86.306 180.879L25.096 144.409C21.346 142.129 18.326 137.929 18.326 133.199V59.5592C18.326 54.8192 21.056 49.9292 24.826 47.6392L85.406 11.0792C87.106 10.0392 89.226 8.8192 91.176 8.8192Z" fill="#F2F1F0"/>
<path fill-rule="evenodd" clip-rule="evenodd" d="M98.4261 12.3989C95.9761 10.8989 93.2561 10.1489 90.5261 10.1489C87.7961 10.1489 85.0761 10.9089 82.6261 12.3989L26.4961 46.7289C21.4761 49.7989 18.3661 55.5489 18.3661 61.7989V129.899C18.3661 136.129 21.4661 141.899 26.4961 144.969L82.6261 179.299C85.0761 180.799 87.7961 181.549 90.5261 181.549C93.2561 181.549 95.9761 180.809 98.4261 179.299L154.556 144.969C159.576 141.899 162.686 136.129 162.686 129.899V61.7989C162.686 55.5689 159.586 49.8189 154.556 46.7289L98.4261 12.3989Z" fill="url(#paint0_linear_1210_1669)"/>
<path fill-rule="evenodd" clip-rule="evenodd" d="M90.5261 11.6191C92.2061 11.6191 94.0961 12.4891 96.1561 13.7391L154.626 49.2791C158.276 51.4991 160.686 55.7691 160.686 60.5991V131.079C160.686 135.899 158.276 140.179 154.626 142.399L96.1661 177.939C94.2061 179.129 92.2861 179.879 90.5361 179.879C88.7861 179.879 86.8661 179.129 84.9061 177.939L26.4261 142.409C24.4161 141.179 22.9661 139.979 21.9861 138.369C21.0061 136.769 20.3661 134.549 20.3661 131.089V60.6091C20.3661 55.7791 22.7761 51.5091 26.4261 49.2891L84.8861 13.7491C86.9761 12.4991 88.8361 11.6191 90.5261 11.6191ZM98.2361 181.369L156.696 145.829C161.616 142.839 164.676 137.219 164.676 131.089V60.6091C164.676 54.4791 161.616 48.8591 156.696 45.8691L98.2361 10.3291C96.1261 9.04914 93.4161 7.61914 90.5261 7.61914C87.6261 7.61914 84.9161 9.05914 82.8261 10.3191H82.8161L24.3461 45.8691C19.4261 48.8591 16.3661 54.4791 16.3661 60.6091V131.089C16.3661 135.049 17.1061 138.039 18.5661 140.449C20.0261 142.849 22.0861 144.449 24.3461 145.819L82.8061 181.359C85.0261 182.709 87.6961 183.889 90.5161 183.889C93.3361 183.889 96.0161 182.719 98.2361 181.369Z" fill="url(#paint1_linear_1210_1669)"/>
<path fill-rule="evenodd" clip-rule="evenodd" d="M109.679 52.4581C103.008 44.2275 92.8293 38.9795 81.4112 38.9795C61.3317 38.9795 45.0691 55.2451 45.0691 75.2919C45.0691 78.4212 45.4606 81.469 46.2109 84.37C38.8544 84.5656 32.9496 90.5797 32.9496 97.9791C32.9496 105.509 39.0501 111.604 46.5861 111.604H140.492C148.011 111.604 154.128 105.509 154.128 97.9791C154.128 90.4656 148.028 84.3538 140.492 84.3538H140.247C141.389 81.5505 142.009 78.4864 142.009 75.2756C142.009 61.9111 131.161 51.0565 117.77 51.0565C114.931 51.0891 112.207 51.578 109.679 52.4581Z" fill="url(#paint2_linear_1210_1669)"/>
<path d="M95 23.8479C95.2523 24.0139 95.4617 24.2373 95.6112 24.4997C95.7608 24.7621 95.8462 25.0562 95.8605 25.3579C95.8605 25.9099 95.4708 26.1372 94.9838 25.8612C94.7302 25.695 94.519 25.472 94.3668 25.2099C94.2146 24.9478 94.1255 24.6538 94.1069 24.3512C94.1069 23.8479 94.448 23.6368 95 23.8479Z" fill="#E6F6FC"/>
<path d="M100.942 27.3224C101.199 27.4856 101.412 27.7079 101.564 27.9706C101.717 28.2334 101.804 28.5289 101.819 28.8324C101.819 29.3681 101.413 29.5954 100.942 29.3194C100.688 29.1542 100.476 28.9315 100.324 28.6691C100.171 28.4068 100.083 28.1123 100.066 27.8095C100.033 27.2737 100.423 27.0951 100.942 27.3224Z" fill="#DAF2FB"/>
<path d="M106.836 30.7481C107.091 30.9112 107.303 31.1339 107.453 31.3969C107.603 31.66 107.686 31.9555 107.697 32.2581C107.697 32.8101 107.323 33.0537 106.836 32.7614C106.58 32.5982 106.367 32.3758 106.214 32.1131C106.061 31.8504 105.974 31.5549 105.959 31.2514C105.959 30.6832 106.349 30.4721 106.836 30.7481Z" fill="#CEEEF9"/>
<path d="M112.762 34.1742C113.015 34.3357 113.225 34.5558 113.375 34.8158C113.525 35.0758 113.61 35.3682 113.623 35.668C113.623 36.2362 113.233 36.4634 112.746 36.1874C112.494 36.017 112.286 35.7905 112.136 35.5256C111.987 35.2608 111.901 34.9648 111.885 34.6612C111.885 34.1092 112.308 33.8819 112.762 34.1742Z" fill="#C1E9F8"/>
<path d="M118.672 37.5853C118.926 37.7514 119.137 37.9744 119.289 38.2366C119.442 38.4987 119.531 38.7927 119.549 39.0952C119.549 39.6635 119.159 39.8908 118.672 39.5985C118.417 39.4344 118.204 39.2118 118.052 38.9493C117.899 38.6867 117.812 38.3918 117.796 38.0886C117.796 37.5203 118.185 37.3093 118.672 37.5853Z" fill="#B5E5F6"/>
<path d="M124.582 40.9937C124.836 41.1598 125.047 41.3827 125.199 41.645C125.352 41.907 125.44 42.201 125.459 42.5035C125.459 43.0718 125.069 43.2991 124.582 43.0068C124.327 42.8427 124.114 42.6201 123.962 42.3576C123.809 42.095 123.722 41.8002 123.706 41.497C123.673 40.945 124.095 40.7177 124.582 40.9937Z" fill="#A9E1F5"/>
<path d="M94.9513 37.5198C95.2066 37.684 95.4192 37.9065 95.5716 38.169C95.7241 38.4316 95.8119 38.7265 95.828 39.0297C95.8482 39.1388 95.834 39.2516 95.7875 39.3523C95.7409 39.4529 95.6642 39.5367 95.568 39.5919C95.4717 39.6473 95.3607 39.6711 95.2502 39.6606C95.1398 39.65 95.0353 39.6056 94.9513 39.533C94.6909 39.3703 94.4747 39.1459 94.3218 38.8798C94.1689 38.6136 94.084 38.3137 94.0746 38.0068C94.0746 37.471 94.448 37.2437 94.9513 37.5198Z" fill="#C6EBF8"/>
<path d="M100.942 40.9293C101.198 41.0924 101.409 41.315 101.559 41.578C101.709 41.841 101.793 42.1367 101.803 42.4393C101.803 42.9751 101.397 43.2186 100.942 42.9426C100.683 42.7788 100.468 42.5541 100.315 42.2882C100.162 42.0222 100.077 41.723 100.066 41.4164C100.001 40.8482 100.39 40.6533 100.942 40.9293Z" fill="#BAE7F7"/>
<path d="M106.804 44.3543C107.057 44.5192 107.267 44.7423 107.417 45.005C107.566 45.2675 107.651 45.5622 107.664 45.8642C107.664 46.4163 107.275 46.6436 106.787 46.3675C106.531 46.2006 106.318 45.9754 106.165 45.71C106.013 45.4447 105.926 45.1469 105.911 44.8412C105.911 44.3054 106.317 44.0782 106.804 44.3543Z" fill="#AFE3F6"/>
<path d="M112.714 47.7798C112.969 47.9405 113.181 48.1601 113.334 48.42C113.487 48.6799 113.575 48.9727 113.59 49.2735C113.59 49.8418 113.201 50.0691 112.714 49.7931C112.458 49.6254 112.245 49.3999 112.093 49.1347C111.941 48.8696 111.853 48.5723 111.837 48.2669C111.837 47.7311 112.308 47.4876 112.714 47.7798Z" fill="#A2DFF4"/>
<path d="M118.64 51.19C118.895 51.3542 119.108 51.5768 119.26 51.8393C119.413 52.1018 119.5 52.3968 119.516 52.7C119.516 53.2682 119.111 53.4793 118.623 53.2033C118.37 53.0382 118.16 52.8149 118.01 52.5524C117.861 52.2897 117.776 51.9953 117.763 51.6933C117.763 51.1413 118.153 50.914 118.64 51.19Z" fill="#96DAF3"/>
<path d="M124.55 54.5987C124.803 54.7648 125.015 54.9877 125.167 55.2499C125.319 55.512 125.408 55.806 125.427 56.1087C125.427 56.6769 125.021 56.9041 124.534 56.6118C124.28 56.4469 124.07 56.2238 123.921 55.9611C123.771 55.6985 123.686 55.404 123.673 55.102C123.673 54.55 124.063 54.3227 124.55 54.5987Z" fill="#8AD6F1"/>
<path d="M94.9838 30.7169C95.2343 30.8848 95.4425 31.1086 95.5918 31.3706C95.7411 31.6326 95.8275 31.9257 95.8443 32.2268C95.8443 32.7788 95.4547 33.0062 94.9676 32.7301C94.7123 32.5659 94.4996 32.3434 94.3471 32.0808C94.1947 31.8183 94.1069 31.5233 94.0909 31.2202C94.0909 30.6681 94.448 30.4409 94.9838 30.7169Z" fill="#D5F0FA"/>
<path d="M100.812 33.9307C101.07 34.0929 101.284 34.315 101.436 34.5779C101.589 34.8409 101.676 35.1369 101.689 35.4407C101.689 35.9764 101.3 36.22 100.812 35.944C100.557 35.7797 100.344 35.5572 100.192 35.2947C100.04 35.0322 99.9518 34.7372 99.9357 34.434C99.9357 33.882 100.325 33.5897 100.812 33.9307Z" fill="#CBEDF9"/>
<path d="M106.82 37.5513C107.071 37.7183 107.28 37.9419 107.429 38.2041C107.579 38.4663 107.665 38.7599 107.68 39.0614C107.68 39.6134 107.291 39.8568 106.804 39.5645C106.548 39.4004 106.336 39.1778 106.183 38.9152C106.031 38.6528 105.943 38.3578 105.927 38.0547C105.927 37.5026 106.333 37.2753 106.82 37.5513Z" fill="#BEE8F7"/>
<path d="M112.73 40.9773C112.983 41.14 113.194 41.36 113.347 41.6195C113.499 41.8791 113.588 42.1707 113.607 42.471C113.607 43.0393 113.217 43.2666 112.73 42.9906C112.474 42.825 112.261 42.5996 112.111 42.3337C111.961 42.0679 111.878 41.7695 111.869 41.4644C111.869 40.9286 112.308 40.6851 112.73 40.9773Z" fill="#B2E4F6"/>
<path d="M118.656 44.3865C118.909 44.5526 119.121 44.7757 119.273 45.0378C119.425 45.3 119.514 45.5939 119.533 45.8965C119.533 46.4648 119.143 46.6921 118.656 46.3998C118.401 46.2355 118.188 46.0131 118.036 45.7505C117.883 45.488 117.795 45.193 117.779 44.8899C117.779 44.3378 118.169 44.1105 118.656 44.3865Z" fill="#A6E0F4"/>
<path d="M124.566 47.7955C124.819 47.9626 125.029 48.1858 125.181 48.4477C125.333 48.7096 125.423 49.0031 125.443 49.3053C125.443 49.8736 125.037 50.1009 124.55 49.8086C124.296 49.6436 124.086 49.4206 123.937 49.1579C123.787 48.8953 123.702 48.6008 123.689 48.2988C123.673 47.7468 124.079 47.5195 124.566 47.7955Z" fill="#99DCF3"/>
<path d="M94.935 44.3222C95.1903 44.4866 95.403 44.7092 95.5555 44.9715C95.7079 45.2341 95.7958 45.5291 95.8118 45.8322C95.832 45.9413 95.8178 46.0542 95.7712 46.1548C95.7246 46.2555 95.6479 46.3393 95.5517 46.3945C95.4555 46.4498 95.3444 46.4737 95.234 46.4631C95.1235 46.4526 95.019 46.4081 94.935 46.3355C94.6747 46.1728 94.4585 45.9486 94.3055 45.6823C94.1526 45.4161 94.0677 45.1162 94.0583 44.8093C94.0583 44.2735 94.4479 44.0462 94.935 44.3222Z" fill="#B7E6F6"/>
<path d="M100.942 47.7151C101.193 47.883 101.401 48.1067 101.55 48.3688C101.7 48.6307 101.786 48.9239 101.803 49.2251C101.823 49.3342 101.809 49.4467 101.762 49.5475C101.716 49.6482 101.639 49.732 101.543 49.7873C101.447 49.8425 101.336 49.8666 101.225 49.856C101.115 49.8455 101.01 49.8008 100.926 49.7284C100.671 49.5597 100.459 49.3339 100.307 49.0689C100.155 48.8039 100.067 48.5071 100.049 48.2022C99.9683 47.6664 100.358 47.4229 100.942 47.7151Z" fill="#AAE2F5"/>
<path d="M106.771 51.1577C107.026 51.3218 107.239 51.5444 107.392 51.807C107.544 52.0695 107.632 52.3644 107.648 52.6677C107.648 53.2197 107.258 53.447 106.771 53.171C106.515 53.0041 106.301 52.7789 106.149 52.5134C105.996 52.2481 105.909 51.9503 105.894 51.6448C105.894 51.109 106.284 50.8817 106.771 51.1577Z" fill="#9FDDF4"/>
<path d="M112.697 54.5836C112.952 54.7431 113.164 54.9626 113.314 55.223C113.464 55.4834 113.548 55.7768 113.558 56.0772C113.558 56.6454 113.184 56.8728 112.697 56.5967C112.442 56.429 112.229 56.2035 112.077 55.9384C111.925 55.6732 111.837 55.3759 111.821 55.0705C111.821 54.5185 112.21 54.2914 112.697 54.5836Z" fill="#93D9F2"/>
<path d="M118.623 57.9454C118.879 58.1097 119.091 58.3323 119.244 58.5949C119.396 58.8573 119.484 59.1523 119.5 59.4554C119.5 60.0074 119.094 60.2347 118.607 59.9587C118.354 59.7938 118.144 59.5707 117.994 59.308C117.844 59.0454 117.76 58.7508 117.747 58.4488C117.747 57.9454 118.136 57.7181 118.623 57.9454Z" fill="#86D5F1"/>
<path d="M124.517 61.4014C124.775 61.5647 124.99 61.7867 125.145 62.0492C125.3 62.3116 125.391 62.6071 125.41 62.9113C125.41 63.4796 125.004 63.6907 124.517 63.4147C124.264 63.2495 124.054 63.0264 123.904 62.7639C123.755 62.5012 123.67 62.2067 123.657 61.9047C123.673 61.3527 124.03 61.1903 124.517 61.4014Z" fill="#7AD1EF"/>
<path d="M94.9188 51.1243C95.1714 51.2914 95.3821 51.5147 95.5342 51.7767C95.6863 52.0386 95.7758 52.3321 95.7956 52.6343C95.7956 53.1863 95.3896 53.4136 94.9188 53.1376C94.6616 52.9754 94.4476 52.7535 94.2949 52.4905C94.1422 52.2276 94.0555 51.9314 94.0421 51.6277C94.0421 51.0756 94.448 50.8483 94.9188 51.1243Z" fill="#A7E0F5"/>
<path d="M100.845 54.5176C101.096 54.6855 101.304 54.9092 101.453 55.1713C101.602 55.4332 101.689 55.7264 101.706 56.0276C101.726 56.1367 101.712 56.2492 101.665 56.35C101.618 56.4507 101.542 56.5345 101.445 56.5897C101.349 56.6449 101.238 56.6691 101.128 56.6585C101.017 56.648 100.913 56.6033 100.829 56.5309C100.574 56.3622 100.362 56.1363 100.21 55.8714C100.058 55.6064 99.9695 55.3096 99.9521 55.0047C99.9521 54.4689 100.342 54.2254 100.845 54.5176Z" fill="#9ADCF3"/>
<path d="M106.755 57.9445C107.01 58.1088 107.223 58.3314 107.375 58.5938C107.528 58.8563 107.616 59.1513 107.632 59.4545C107.632 60.0065 107.242 60.2338 106.755 59.9578C106.5 59.7937 106.287 59.5711 106.135 59.3085C105.982 59.046 105.894 58.7511 105.878 58.4478C105.813 57.9445 106.268 57.6847 106.755 57.9445Z" fill="#8FD8F2"/>
<path d="M112.681 61.3698C112.935 61.5385 113.145 61.7646 113.294 62.0298C113.444 62.2951 113.529 62.5919 113.542 62.896C113.542 63.448 113.152 63.6753 112.665 63.3831C112.412 63.2217 112.202 63.0015 112.052 62.7416C111.902 62.4815 111.817 62.1892 111.804 61.8895C111.804 61.3212 112.194 61.0938 112.681 61.3698Z" fill="#82D4F0"/>
<path d="M118.591 64.795C118.85 64.9588 119.066 65.1835 119.219 65.4494C119.371 65.7154 119.457 66.0146 119.468 66.3212C119.468 66.857 119.078 67.0844 118.591 66.8084C118.336 66.6452 118.124 66.4226 117.974 66.1596C117.824 65.8966 117.741 65.6009 117.731 65.2984C117.731 64.7464 118.104 64.5189 118.591 64.795Z" fill="#77D0EF"/>
<path d="M124.501 68.2056C124.757 68.3724 124.971 68.5976 125.123 68.863C125.276 69.1283 125.363 69.4261 125.378 69.7318C125.378 70.2676 124.988 70.4949 124.501 70.2189C124.246 70.0546 124.033 69.832 123.881 69.5696C123.728 69.3071 123.64 69.0121 123.624 68.709C123.673 68.1569 124.014 67.9296 124.501 68.2056Z" fill="#6BCBED"/>
<path d="M94.9026 57.9451C95.1552 58.1146 95.3646 58.3409 95.514 58.6059C95.6635 58.871 95.7488 59.1673 95.7631 59.4713C95.7631 60.0071 95.3734 60.2344 94.9026 59.9584C94.6443 59.796 94.4284 59.5742 94.2731 59.3117C94.1178 59.049 94.0274 58.753 94.0095 58.4484C94.0258 57.9451 94.448 57.6366 94.9026 57.9451Z" fill="#97DBF3"/>
<path d="M100.812 61.3201C101.067 61.4852 101.279 61.708 101.431 61.9704C101.583 62.2326 101.672 62.5271 101.689 62.8301C101.709 62.9392 101.695 63.0517 101.649 63.1525C101.602 63.2532 101.525 63.337 101.429 63.3922C101.333 63.4474 101.222 63.4716 101.111 63.461C101.001 63.4504 100.896 63.4058 100.812 63.3334C100.558 63.1647 100.346 62.9388 100.194 62.6739C100.041 62.4091 99.9531 62.1121 99.9357 61.8072C99.9357 61.2714 100.325 61.0278 100.812 61.3201Z" fill="#8BD7F1"/>
<path d="M106.739 64.7472C106.994 64.9102 107.206 65.133 107.355 65.396C107.505 65.6591 107.589 65.9546 107.599 66.2572C107.599 66.8092 107.226 67.0365 106.739 66.7605C106.482 66.5983 106.268 66.3762 106.115 66.1133C105.962 65.8503 105.875 65.5543 105.862 65.2505C105.813 64.6985 106.252 64.4387 106.739 64.7472Z" fill="#7FD3F0"/>
<path d="M112.665 68.172C112.919 68.3361 113.13 68.5591 113.28 68.8218C113.43 69.0846 113.514 69.3796 113.525 69.682C113.525 70.234 113.136 70.4613 112.649 70.1853C112.397 70.0184 112.188 69.7948 112.039 69.5326C111.89 69.2704 111.804 68.9768 111.788 68.6753C111.788 68.1233 112.178 67.8797 112.665 68.172Z" fill="#73CEEE"/>
<path d="M118.575 71.5822C118.831 71.749 119.045 71.9743 119.197 72.2396C119.35 72.5049 119.437 72.8027 119.452 73.1084C119.452 73.6605 119.062 73.8715 118.575 73.5955C118.322 73.4328 118.11 73.2128 117.958 72.9534C117.806 72.6938 117.717 72.402 117.698 72.1016C117.698 71.5334 118.088 71.3062 118.575 71.5822Z" fill="#67CAED"/>
<path d="M124.485 74.9919C124.741 75.1596 124.953 75.3851 125.105 75.6503C125.258 75.9154 125.345 76.2127 125.362 76.5181C125.362 77.0701 124.972 77.2972 124.485 77.005C124.232 76.8425 124.02 76.6225 123.868 76.3629C123.716 76.1034 123.627 75.8116 123.608 75.5114C123.673 74.9432 123.998 74.7159 124.485 74.9919Z" fill="#5AC6EC"/>
<path d="M130.508 44.4205C130.765 44.5837 130.978 44.8061 131.131 45.0688C131.283 45.3315 131.37 45.627 131.385 45.9305C131.385 46.4825 130.979 46.7098 130.492 46.4338C130.244 46.2639 130.037 46.0399 129.888 45.7782C129.739 45.5166 129.651 45.2243 129.632 44.9238C129.632 44.3555 130.021 44.1445 130.508 44.4205Z" fill="#9CDDF3"/>
<path d="M136.435 47.8457C136.691 48.0089 136.904 48.2312 137.057 48.4939C137.209 48.7566 137.297 49.0522 137.311 49.3557C137.311 49.9077 136.905 50.135 136.418 49.859C136.164 49.6913 135.953 49.4654 135.803 49.2C135.654 48.9345 135.57 48.6372 135.558 48.3328C135.558 47.7808 135.947 47.5697 136.435 47.8457Z" fill="#91D9F2"/>
<path d="M142.361 51.27C142.614 51.4316 142.824 51.6516 142.974 51.9115C143.124 52.1716 143.209 52.4639 143.221 52.7637C143.221 53.332 142.832 53.5593 142.361 53.2833C142.105 53.1156 141.893 52.8899 141.74 52.6248C141.588 52.3596 141.5 52.0623 141.484 51.7571C141.533 51.1888 141.874 50.9778 142.361 51.27Z" fill="#85D4F1"/>
<path d="M148.271 54.6972C148.521 54.8615 148.729 55.0823 148.879 55.3417C149.028 55.6012 149.115 55.8918 149.131 56.1907C149.131 56.759 148.742 56.9865 148.271 56.7105C148.014 56.5426 147.8 56.3174 147.645 56.0524C147.49 55.7876 147.398 55.4903 147.378 55.1841C147.394 54.697 147.784 54.3887 148.271 54.6972Z" fill="#79D0EF"/>
<path d="M154.181 58.0899C154.437 58.253 154.65 58.4753 154.803 58.738C154.955 59.0007 155.043 59.2964 155.058 59.5998C155.078 59.7089 155.064 59.8214 155.017 59.9223C154.971 60.0229 154.894 60.1067 154.797 60.1619C154.701 60.2173 154.59 60.2413 154.48 60.2308C154.369 60.2202 154.265 60.1756 154.181 60.1031C153.922 59.9383 153.708 59.7135 153.555 59.4477C153.402 59.1819 153.316 58.8832 153.304 58.5769C153.304 58.0249 153.694 57.8138 154.181 58.0899Z" fill="#6CCCEE"/>
<path d="M130.46 58.0246C130.715 58.1889 130.928 58.4113 131.08 58.6738C131.232 58.9364 131.32 59.2314 131.336 59.5345C131.336 60.0866 130.947 60.3139 130.46 60.0378C130.203 59.8711 129.99 59.6457 129.837 59.3804C129.685 59.1151 129.598 58.8174 129.583 58.5116C129.583 57.9434 129.989 57.7485 130.46 58.0246Z" fill="#7DD2F0"/>
<path d="M136.386 61.4516C136.643 61.6138 136.857 61.8359 137.01 62.0988C137.163 62.3618 137.249 62.6578 137.263 62.9616C137.263 63.5136 136.873 63.7409 136.386 63.4649C136.132 63.2973 135.921 63.0713 135.771 62.8059C135.621 62.5406 135.537 62.2433 135.525 61.9387C135.525 61.3867 135.915 61.1918 136.386 61.4516Z" fill="#71CEEE"/>
<path d="M142.328 64.8616C142.579 65.0295 142.787 65.2533 142.936 65.5153C143.086 65.7774 143.172 66.0704 143.189 66.3716C143.189 66.9236 142.799 67.1509 142.312 66.8749C142.055 66.7126 141.841 66.4906 141.688 66.2276C141.536 65.9647 141.449 65.6687 141.435 65.365C141.435 64.8129 141.841 64.5856 142.328 64.8616Z" fill="#65C9ED"/>
<path d="M148.238 68.2872C148.489 68.4506 148.698 68.6712 148.848 68.9308C148.997 69.1904 149.083 69.4817 149.099 69.7808C149.099 70.3491 148.709 70.5601 148.222 70.3004C147.965 70.1336 147.752 69.9084 147.6 69.6429C147.447 69.3776 147.36 69.0799 147.345 68.7741C147.345 68.2221 147.751 67.995 148.238 68.2872Z" fill="#59C5EB"/>
<path d="M154.148 71.6955C154.401 71.8626 154.611 72.0858 154.764 72.3477C154.916 72.6098 155.005 72.9033 155.025 73.2056C155.025 73.7577 154.619 73.985 154.148 73.709C153.89 73.5442 153.675 73.3193 153.522 73.0535C153.37 72.7877 153.284 72.489 153.271 72.1827C153.271 71.647 153.661 71.4195 154.148 71.6955Z" fill="#4DC1EA"/>
<path d="M130.476 51.2224C130.733 51.3848 130.947 51.6069 131.1 51.8697C131.253 52.1328 131.339 52.4286 131.353 52.7324C131.353 53.2844 130.963 53.5117 130.476 53.2357C130.222 53.0681 130.011 52.8423 129.861 52.5768C129.711 52.3114 129.627 52.0141 129.615 51.7095C129.615 51.1737 130.005 50.9464 130.476 51.2224Z" fill="#8DD7F2"/>
<path d="M136.419 54.6982C136.674 54.8624 136.887 55.085 137.039 55.3475C137.191 55.61 137.279 55.905 137.295 56.2082C137.295 56.7602 136.89 56.9875 136.402 56.7115C136.149 56.5428 135.939 56.3168 135.789 56.0515C135.64 55.7864 135.555 55.4894 135.542 55.1853C135.542 54.6008 135.931 54.3735 136.419 54.6982Z" fill="#81D3F0"/>
<path d="M142.345 58.0741C142.596 58.2376 142.805 58.4582 142.954 58.7177C143.104 58.9773 143.19 59.2686 143.205 59.5678C143.205 60.1361 142.815 60.3471 142.328 60.0711C142.073 59.9034 141.86 59.6779 141.708 59.4127C141.556 59.1476 141.468 58.8503 141.452 58.5449C141.533 57.9442 141.858 57.7818 142.345 58.0741Z" fill="#75CFEF"/>
<path d="M148.254 61.4838C148.505 61.6481 148.713 61.8689 148.862 62.1283C149.012 62.3878 149.098 62.6784 149.115 62.9773C149.115 63.5456 148.725 63.7729 148.238 63.4969C147.984 63.3274 147.773 63.1014 147.621 62.8366C147.469 62.5717 147.38 62.2754 147.362 61.9707C147.362 61.4187 147.767 61.1915 148.254 61.4838Z" fill="#69CBED"/>
<path d="M154.165 64.893C154.42 65.0572 154.632 65.2798 154.785 65.5423C154.937 65.8049 155.025 66.0999 155.041 66.403C155.062 66.5121 155.047 66.6248 155.001 66.7255C154.954 66.8261 154.877 66.9099 154.781 66.9651C154.685 67.0205 154.574 67.0443 154.463 67.0338C154.353 67.0232 154.249 66.9787 154.165 66.9063C153.908 66.7396 153.695 66.5141 153.542 66.2488C153.39 65.9835 153.303 65.6857 153.288 65.3801C153.288 64.8443 153.678 64.617 154.165 64.893Z" fill="#5CC6EC"/>
<path d="M130.444 64.8283C130.699 64.9927 130.912 65.2153 131.064 65.4776C131.216 65.7402 131.304 66.0352 131.32 66.3383C131.32 66.8903 130.931 67.1176 130.444 66.8416C130.187 66.6749 129.974 66.4497 129.821 66.1842C129.669 65.9189 129.582 65.6212 129.567 65.3154C129.567 64.7796 129.973 64.5523 130.444 64.8283Z" fill="#6ECDEE"/>
<path d="M136.37 68.2383C136.622 68.4054 136.833 68.6285 136.985 68.8905C137.137 69.1524 137.227 69.446 137.247 69.7483C137.247 70.3166 136.857 70.5439 136.37 70.2516C136.115 70.0873 135.902 69.8649 135.749 69.6023C135.597 69.3398 135.509 69.0448 135.493 68.7416C135.509 68.1896 135.899 67.9785 136.37 68.2383Z" fill="#62C8EC"/>
<path d="M142.296 71.6641C142.551 71.8283 142.764 72.0509 142.916 72.3134C143.069 72.576 143.157 72.8708 143.173 73.1741C143.193 73.2832 143.179 73.3957 143.132 73.4965C143.086 73.5972 143.009 73.681 142.913 73.7364C142.816 73.7916 142.705 73.8156 142.595 73.805C142.485 73.7945 142.38 73.7498 142.296 73.6774C142.039 73.5151 141.825 73.2931 141.672 73.0301C141.519 72.7672 141.433 72.4712 141.419 72.1675C141.419 71.6154 141.809 71.3881 142.296 71.6641Z" fill="#56C4EB"/>
<path d="M148.206 75.0721C148.461 75.2364 148.674 75.459 148.826 75.7214C148.979 75.9839 149.067 76.2789 149.083 76.5821C149.083 77.1503 148.677 77.3614 148.206 77.0854C147.946 76.9264 147.73 76.7051 147.576 76.4414C147.423 76.1779 147.338 75.8802 147.329 75.5754C147.329 75.0234 147.719 74.7961 148.206 75.0721Z" fill="#4BBFE9"/>
<path d="M154.132 78.5C154.383 78.6679 154.591 78.8916 154.74 79.1537C154.89 79.4157 154.976 79.709 154.993 80.01C154.993 80.562 154.603 80.7893 154.132 80.5133C153.874 80.3464 153.659 80.1214 153.504 79.8564C153.349 79.5912 153.258 79.2936 153.239 78.9871C153.255 78.4351 153.645 78.224 154.132 78.5Z" fill="#45B9E8"/>
<path d="M130.427 71.6317C130.683 71.7958 130.895 72.0184 131.048 72.281C131.2 72.5435 131.288 72.8385 131.304 73.1416C131.304 73.6937 130.898 73.921 130.411 73.645C130.161 73.4771 129.953 73.2533 129.803 72.9913C129.654 72.7292 129.568 72.436 129.551 72.135C129.551 71.5667 129.94 71.3557 130.427 71.6317Z" fill="#5EC7EC"/>
<path d="M136.353 75.0407C136.607 75.2104 136.819 75.4362 136.971 75.7011C137.123 75.9657 137.212 76.262 137.23 76.5668C137.23 77.1188 136.841 77.3463 136.353 77.054C136.098 76.8944 135.884 76.6751 135.731 76.415C135.579 76.1549 135.491 75.8615 135.477 75.5601C135.477 74.9919 135.883 74.7647 136.353 75.0407Z" fill="#52C3EB"/>
<path d="M142.28 78.4666C142.536 78.6334 142.75 78.8587 142.902 79.124C143.054 79.3893 143.142 79.6871 143.156 79.9928C143.156 80.5286 142.751 80.7559 142.28 80.4799C142.023 80.3176 141.809 80.0956 141.656 79.8326C141.503 79.5697 141.416 79.2737 141.403 78.9699C141.403 78.4179 141.793 78.1906 142.28 78.4666Z" fill="#49BEE9"/>
<path d="M148.19 81.8763C148.446 82.0432 148.659 82.2686 148.812 82.5339C148.964 82.7992 149.052 83.0969 149.066 83.4025C149.066 83.9383 148.66 84.1656 148.19 83.8896C147.93 83.7306 147.713 83.5093 147.56 83.2457C147.407 82.9821 147.322 82.6844 147.313 82.3796C147.313 81.8276 147.703 81.6003 148.19 81.8763Z" fill="#43B7E7"/>
<path d="M154.116 85.3023C154.366 85.4702 154.574 85.6941 154.724 85.9562C154.873 86.2181 154.959 86.5113 154.976 86.8125C154.976 87.3645 154.587 87.5918 154.099 87.3158C153.847 87.1487 153.636 86.9255 153.484 86.6634C153.332 86.4015 153.243 86.108 153.223 85.8057C153.223 85.2374 153.629 85.0263 154.116 85.3023Z" fill="#3CB1E5"/>
<path d="M130.411 78.4171C130.666 78.5814 130.879 78.804 131.031 79.0663C131.184 79.3289 131.272 79.6239 131.288 79.927C131.288 80.4791 130.882 80.7064 130.395 80.4303C130.144 80.2625 129.936 80.0387 129.787 79.7767C129.638 79.5148 129.551 79.2216 129.534 78.9204C129.534 78.3684 129.924 78.141 130.411 78.4171Z" fill="#5DC7EC"/>
<path d="M136.337 81.8438C136.593 82.0079 136.805 82.2307 136.958 82.4932C137.11 82.7556 137.198 83.0506 137.214 83.3538C137.214 83.9058 136.808 84.1331 136.321 83.8571C136.069 83.6911 135.859 83.4677 135.71 83.2054C135.56 82.9428 135.475 82.6489 135.46 82.3473C135.46 81.779 135.85 81.5678 136.337 81.8438Z" fill="#47BBE8"/>
<path d="M142.264 85.2532C142.518 85.4208 142.729 85.6468 142.879 85.9123C143.028 86.1777 143.112 86.475 143.124 86.7794C143.124 87.3152 142.734 87.5425 142.264 87.2665C142.006 87.1043 141.792 86.8822 141.64 86.6194C141.487 86.3563 141.4 86.0603 141.387 85.7566C141.387 85.2045 141.776 84.9772 142.264 85.2532Z" fill="#40B5E6"/>
<path d="M148.173 88.6791C148.43 88.8411 148.642 89.0636 148.792 89.3268C148.942 89.5901 149.025 89.8861 149.034 90.1891C149.034 90.7411 148.644 90.9522 148.173 90.6924C147.916 90.5302 147.702 90.3081 147.549 90.0452C147.397 89.7822 147.31 89.4862 147.297 89.1824C147.297 88.6142 147.686 88.3868 148.173 88.6791Z" fill="#3AAFE5"/>
<path d="M154.1 92.0399C154.35 92.2078 154.558 92.4317 154.708 92.6936C154.857 92.9556 154.943 93.2487 154.96 93.5499C154.96 94.1019 154.571 94.3292 154.083 94.0532C153.827 93.8899 153.614 93.6676 153.461 93.4049C153.309 93.1422 153.221 92.8467 153.207 92.5432C153.207 92.0399 153.613 91.8126 154.1 92.0399Z" fill="#34A9E3"/>
<path d="M94.8863 64.7144C95.1368 64.8825 95.3449 65.1062 95.4943 65.3683C95.6436 65.6303 95.73 65.9234 95.7468 66.2244C95.7468 66.7764 95.3571 67.0037 94.87 66.7277C94.6165 66.5616 94.4053 66.3387 94.2531 66.0765C94.1009 65.8144 94.0118 65.5204 93.9932 65.2177C93.9932 64.6657 94.4479 64.4384 94.8863 64.7144Z" fill="#88D6F1"/>
<path d="M100.796 68.141C101.054 68.3032 101.268 68.5251 101.42 68.7882C101.573 69.051 101.66 69.3472 101.673 69.6509C101.693 69.7601 101.679 69.8726 101.633 69.9734C101.586 70.0741 101.509 70.1578 101.413 70.213C101.317 70.2682 101.206 70.2923 101.095 70.2817C100.985 70.2712 100.88 70.2267 100.796 70.1543C100.545 69.9854 100.336 69.7617 100.184 69.5001C100.032 69.2385 99.9419 68.946 99.9196 68.6443C99.9196 68.0923 100.309 67.8487 100.796 68.141Z" fill="#7CD2F0"/>
<path d="M106.722 71.5489C106.976 71.7139 107.186 71.9369 107.336 72.1996C107.485 72.4622 107.57 72.7569 107.583 73.0589C107.583 73.6109 107.193 73.8382 106.706 73.5622C106.451 73.3979 106.238 73.1753 106.086 72.9127C105.933 72.6504 105.846 72.3553 105.83 72.0522C105.813 71.5002 106.235 71.2729 106.722 71.5489Z" fill="#70CDEE"/>
<path d="M112.632 74.9767C112.889 75.1399 113.102 75.3623 113.255 75.625C113.407 75.8877 113.494 76.1832 113.509 76.4867C113.509 77.0387 113.119 77.266 112.632 76.99C112.378 76.8258 112.167 76.6031 112.018 76.3402C111.868 76.0774 111.784 75.7823 111.772 75.48C111.772 74.9118 112.145 74.6845 112.632 74.9767Z" fill="#63C9ED"/>
<path d="M118.559 78.3851C118.815 78.5518 119.028 78.7772 119.181 79.0425C119.333 79.3079 119.421 79.6057 119.435 79.9113C119.435 80.4471 119.046 80.6744 118.559 80.3984C118.303 80.2342 118.091 80.0116 117.938 79.7491C117.786 79.4865 117.698 79.1915 117.682 78.8884C117.682 78.3364 118.072 78.1091 118.559 78.3851Z" fill="#57C5EB"/>
<path d="M124.469 81.7947C124.725 81.9615 124.939 82.1869 125.091 82.4522C125.243 82.7174 125.331 83.0152 125.346 83.321C125.346 83.873 124.956 84.0841 124.469 83.808C124.228 83.635 124.032 83.4085 123.894 83.1466C123.755 82.8845 123.68 82.5941 123.673 82.2981C123.673 81.746 123.982 81.5187 124.469 81.7947Z" fill="#4CC0EA"/>
<path d="M94.8377 78.3365C95.093 78.5007 95.3057 78.7233 95.4581 78.9858C95.6106 79.2483 95.6984 79.5433 95.7145 79.8465C95.7347 79.9556 95.7205 80.0683 95.6739 80.1691C95.6273 80.2698 95.5506 80.3535 95.4544 80.4087C95.3581 80.4639 95.2471 80.488 95.1367 80.4774C95.0262 80.4669 94.9217 80.4222 94.8377 80.3498C94.5796 80.1886 94.3648 79.9668 94.212 79.7036C94.0592 79.4404 93.973 79.1439 93.961 78.8398C93.961 78.2716 94.3506 78.0605 94.8377 78.3365Z" fill="#69CBED"/>
<path d="M100.764 81.7301C101.019 81.8931 101.231 82.1157 101.381 82.3787C101.53 82.6418 101.614 82.9374 101.624 83.2401C101.641 83.3462 101.625 83.455 101.579 83.5521C101.533 83.6492 101.458 83.7302 101.365 83.7845C101.273 83.8387 101.166 83.8639 101.058 83.8565C100.951 83.8492 100.849 83.8098 100.764 83.7434C100.508 83.5781 100.295 83.3555 100.14 83.0936C99.9846 82.8316 99.8926 82.537 99.871 82.2334C99.8872 81.6814 100.261 81.4378 100.764 81.7301Z" fill="#5DC6EC"/>
<path d="M106.674 85.1727C106.929 85.3368 107.142 85.5594 107.294 85.822C107.447 86.0843 107.535 86.3794 107.551 86.6825C107.551 87.2345 107.161 87.4618 106.674 87.1858C106.42 87.0197 106.209 86.7968 106.057 86.5346C105.905 86.2725 105.816 85.9785 105.797 85.676C105.813 85.1077 106.187 84.8967 106.674 85.1727Z" fill="#50C2EA"/>
<path d="M112.6 88.5975C112.855 88.7569 113.066 88.9766 113.216 89.237C113.366 89.4975 113.45 89.7909 113.46 90.0912C113.46 90.6595 113.087 90.8706 112.6 90.5945C112.345 90.434 112.132 90.2145 111.98 89.9545C111.827 89.6946 111.739 89.4018 111.723 89.1008C111.723 88.5325 112.113 88.3215 112.6 88.5975Z" fill="#49BDE9"/>
<path d="M118.526 92.0403C118.78 92.2064 118.991 92.4295 119.143 92.6915C119.295 92.9537 119.384 93.2476 119.403 93.5503C119.403 94.1185 118.997 94.3296 118.51 94.0536C118.259 93.8865 118.05 93.6629 117.9 93.4007C117.751 93.1385 117.665 92.845 117.649 92.5436C117.649 92.0403 118.039 91.7318 118.526 92.0403Z" fill="#42B6E7"/>
<path d="M124.436 95.4166C124.69 95.5827 124.901 95.8058 125.053 96.0678C125.205 96.33 125.294 96.6241 125.313 96.9265C125.313 97.4948 124.907 97.7059 124.42 97.4299C124.167 97.2647 123.957 97.0417 123.807 96.7791C123.657 96.5164 123.572 96.2219 123.559 95.9199C123.559 95.3679 123.949 95.1406 124.436 95.4166Z" fill="#3BB0E5"/>
<path d="M94.87 71.5341C95.1205 71.702 95.3287 71.9259 95.478 72.1877C95.6273 72.4498 95.7137 72.7429 95.7305 73.044C95.7305 73.6123 95.3408 73.8234 94.8538 73.5474C94.6002 73.3813 94.389 73.1582 94.2368 72.8961C94.0846 72.6339 93.9957 72.3399 93.9771 72.0374C93.9771 71.4691 94.4479 71.2418 94.87 71.5341Z" fill="#77D0EF"/>
<path d="M100.78 74.9435C101.037 75.1057 101.251 75.3278 101.404 75.5906C101.557 75.8537 101.643 76.1497 101.657 76.4534C101.673 76.5612 101.656 76.6713 101.607 76.7691C101.559 76.8668 101.482 76.9475 101.387 77.0004C101.292 77.0534 101.183 77.0759 101.074 77.0654C100.966 77.0547 100.863 77.011 100.78 76.9405C100.525 76.7799 100.312 76.5604 100.16 76.3005C100.007 76.0405 99.9193 75.7478 99.9033 75.4468C99.9033 74.8948 100.277 74.6512 100.78 74.9435Z" fill="#6CCCEE"/>
<path d="M106.706 78.3695C106.959 78.5347 107.17 78.7577 107.319 79.0203C107.469 79.283 107.554 79.5775 107.567 79.8795C107.567 80.4478 107.177 80.6588 106.69 80.3828C106.437 80.2157 106.227 79.9925 106.075 79.7306C105.923 79.4686 105.833 79.1752 105.813 78.8728C105.813 78.3046 106.219 78.0773 106.706 78.3695Z" fill="#61C8EC"/>
<path d="M112.616 81.7802C112.872 81.9479 113.085 82.1736 113.237 82.4387C113.389 82.7039 113.477 83.001 113.493 83.3064C113.493 83.8584 113.103 84.0857 112.616 83.7935C112.363 83.6308 112.152 83.411 111.999 83.1513C111.847 82.8919 111.758 82.6001 111.74 82.2998C111.74 81.7315 112.129 81.5042 112.616 81.7802Z" fill="#55C4EB"/>
<path d="M118.542 85.2045C118.798 85.3686 119.01 85.5912 119.163 85.8537C119.315 86.1163 119.403 86.4111 119.419 86.7144C119.419 87.2827 119.013 87.4938 118.526 87.2177C118.276 87.0499 118.068 86.826 117.918 86.5641C117.769 86.302 117.682 86.0088 117.666 85.7078C117.666 85.1557 118.055 84.9122 118.542 85.2045Z" fill="#4ABEE9"/>
<path d="M124.452 88.6141C124.708 88.7783 124.921 89.0009 125.073 89.2634C125.225 89.526 125.313 89.8208 125.329 90.1241C125.329 90.6924 124.923 90.9034 124.436 90.6274C124.186 90.4594 123.978 90.2356 123.828 89.9736C123.679 89.7115 123.593 89.4185 123.576 89.1174C123.576 88.5654 123.965 88.3219 124.452 88.6141Z" fill="#44B9E7"/>
<path d="M94.8212 85.1401C95.0762 85.3009 95.289 85.5202 95.4415 85.7802C95.5941 86.0401 95.682 86.3328 95.698 86.6339C95.698 87.2021 95.292 87.4132 94.8212 87.1372C94.564 86.975 94.3499 86.7529 94.1973 86.49C94.0446 86.227 93.9579 85.931 93.9445 85.6272C93.9445 85.0589 94.3341 84.8479 94.8212 85.1401Z" fill="#59C5EB"/>
<path d="M100.748 88.5336C101.001 88.6987 101.211 88.9218 101.361 89.1843C101.51 89.447 101.595 89.7415 101.608 90.0435C101.628 90.1526 101.614 90.2653 101.567 90.366C101.521 90.4666 101.444 90.5504 101.348 90.6058C101.252 90.661 101.141 90.685 101.03 90.6745C100.92 90.6639 100.815 90.6193 100.731 90.5468C100.48 90.378 100.271 90.1543 100.119 89.8927C99.9673 89.6311 99.8768 89.3385 99.8546 89.0369C99.8546 88.4849 100.244 88.2413 100.748 88.5336Z" fill="#4DC1EA"/>
<path d="M106.658 92.0407C106.913 92.2012 107.125 92.4207 107.278 92.6807C107.43 92.9406 107.518 93.2334 107.534 93.5344C107.534 94.1027 107.145 94.3137 106.658 94.0377C106.404 93.8715 106.193 93.6485 106.041 93.3863C105.888 93.1243 105.799 92.8302 105.781 92.5277C105.813 91.8945 106.171 91.6835 106.658 92.0407Z" fill="#46BBE8"/>
<path d="M112.584 95.3842C112.838 95.5482 113.049 95.7711 113.199 96.034C113.348 96.2968 113.433 96.5918 113.444 96.8941C113.444 97.4462 113.055 97.6735 112.567 97.3812C112.316 97.2177 112.107 96.9971 111.958 96.7375C111.808 96.478 111.722 96.1867 111.707 95.8875C111.707 95.2868 112.097 95.1082 112.584 95.3842Z" fill="#40B5E6"/>
<path d="M118.494 98.8103C118.751 98.9689 118.965 99.188 119.118 99.4482C119.271 99.7087 119.357 100.003 119.371 100.304C119.371 100.872 118.981 101.083 118.494 100.807C118.24 100.643 118.029 100.42 117.879 100.158C117.729 99.8947 117.645 99.5996 117.633 99.2974C117.633 98.7454 118.007 98.5343 118.494 98.8103Z" fill="#3AAFE4"/>
<path d="M124.404 102.22C124.663 102.38 124.878 102.602 125.031 102.865C125.184 103.128 125.27 103.426 125.28 103.73C125.28 104.282 124.891 104.493 124.404 104.217C124.149 104.054 123.937 103.831 123.787 103.568C123.637 103.305 123.553 103.01 123.543 102.707C123.543 102.155 123.917 101.928 124.404 102.22Z" fill="#34A9E3"/>
<path d="M94.8051 91.9266C95.0583 92.0917 95.2686 92.3148 95.4182 92.5773C95.5679 92.84 95.6527 93.1346 95.6657 93.4366C95.6657 94.0048 95.276 94.2159 94.8051 93.9399C94.545 93.7808 94.3287 93.5595 94.1757 93.296C94.0226 93.0323 93.9376 92.7347 93.9284 92.4299C93.9284 91.8617 94.318 91.6506 94.8051 91.9266Z" fill="#4BBFE9"/>
<path d="M100.731 95.2882C100.983 95.4551 101.192 95.6787 101.341 95.9409C101.49 96.2031 101.576 96.4967 101.592 96.7982C101.592 97.3502 101.186 97.5613 100.715 97.2853C100.463 97.1216 100.252 96.9014 100.1 96.6421C99.9478 96.3829 99.8582 96.0916 99.8384 95.7915C99.8384 95.2882 100.228 95.0609 100.731 95.2882Z" fill="#44B9E8"/>
<path d="M106.641 98.7609C106.895 98.927 107.106 99.1499 107.258 99.4121C107.411 99.6742 107.499 99.9682 107.518 100.271C107.518 100.839 107.128 101.066 106.641 100.774C106.386 100.61 106.173 100.387 106.021 100.125C105.869 99.8624 105.781 99.5674 105.765 99.2642C105.813 98.696 106.154 98.5336 106.641 98.7609Z" fill="#3EB3E6"/>
<path d="M112.567 102.187C112.822 102.351 113.033 102.574 113.182 102.836C113.332 103.099 113.416 103.394 113.428 103.697C113.428 104.249 113.038 104.476 112.551 104.2C112.298 104.035 112.088 103.812 111.938 103.549C111.788 103.287 111.704 102.992 111.691 102.69C111.691 102.122 112.08 101.911 112.567 102.187Z" fill="#38ADE4"/>
<path d="M118.477 105.598C118.731 105.764 118.942 105.987 119.094 106.249C119.247 106.511 119.336 106.805 119.354 107.108C119.354 107.676 118.964 107.904 118.477 107.611C118.221 107.448 118.008 107.226 117.855 106.963C117.703 106.7 117.615 106.405 117.601 106.101C117.617 105.549 117.99 105.322 118.477 105.598Z" fill="#31A6E2"/>
<path d="M124.387 109.023C124.642 109.184 124.855 109.404 125.008 109.663C125.16 109.923 125.248 110.216 125.264 110.517C125.264 111.085 124.874 111.313 124.387 111.037C124.132 110.869 123.919 110.643 123.767 110.378C123.615 110.113 123.527 109.816 123.511 109.51C123.511 108.958 123.9 108.731 124.387 109.023Z" fill="#2BA0E0"/>
<path d="M130.379 85.2196C130.636 85.3829 130.851 85.6048 131.006 85.8674C131.162 86.1298 131.252 86.4253 131.272 86.7295C131.272 87.2815 130.866 87.5089 130.379 87.2328C130.128 87.065 129.92 86.8412 129.771 86.5792C129.621 86.3171 129.535 86.0239 129.518 85.7229C129.518 85.1708 129.908 84.9435 130.379 85.2196Z" fill="#5CC2EB"/>
<path d="M136.321 88.6305C136.575 88.8002 136.786 89.026 136.938 89.2908C137.091 89.5557 137.179 89.852 137.198 90.1567C137.198 90.7087 136.792 90.9361 136.305 90.6438C136.051 90.4834 135.84 90.2636 135.69 90.0033C135.54 89.743 135.456 89.4501 135.444 89.1501C135.444 88.5818 135.834 88.3707 136.321 88.6305Z" fill="#3FB4E6"/>
<path d="M142.247 92.0405C142.5 92.2101 142.709 92.4365 142.859 92.7014C143.008 92.9664 143.093 93.2629 143.108 93.5667C143.108 94.1025 142.718 94.3298 142.247 94.0537C141.988 93.8924 141.771 93.6709 141.616 93.408C141.461 93.1452 141.371 92.8489 141.354 92.5438C141.37 92.0405 141.76 91.7807 142.247 92.0405Z" fill="#39AEE4"/>
<path d="M148.157 95.4654C148.41 95.6351 148.619 95.8614 148.769 96.1264C148.918 96.3915 149.003 96.6878 149.018 96.9916C149.018 97.5436 148.628 97.7547 148.141 97.4787C147.886 97.3145 147.673 97.0919 147.521 96.8294C147.368 96.5669 147.28 96.272 147.264 95.9687C147.264 95.4167 147.67 95.1894 148.157 95.4654Z" fill="#32A8E2"/>
<path d="M154.067 98.8931C154.322 99.0573 154.535 99.28 154.688 99.5426C154.84 99.8049 154.928 100.1 154.944 100.403C154.964 100.512 154.95 100.625 154.903 100.726C154.857 100.826 154.78 100.91 154.684 100.965C154.587 101.021 154.477 101.045 154.366 101.034C154.256 101.023 154.151 100.979 154.067 100.906C153.811 100.743 153.598 100.521 153.445 100.258C153.292 99.9954 153.205 99.7001 153.19 99.3966C153.19 98.8283 153.58 98.6171 154.067 98.8931Z" fill="#2BA1E0"/>
<path d="M130.346 98.8427C130.602 99.0059 130.816 99.2284 130.968 99.4911C131.121 99.7538 131.208 100.049 131.223 100.353C131.223 100.905 130.833 101.116 130.346 100.84C130.091 100.679 129.879 100.46 129.726 100.2C129.573 99.9398 129.486 99.6471 129.469 99.3461C129.469 98.7778 129.875 98.5343 130.346 98.8427Z" fill="#35AAE3"/>
<path d="M136.272 102.269C136.529 102.432 136.742 102.654 136.894 102.917C137.047 103.18 137.134 103.475 137.149 103.779C137.149 104.331 136.759 104.542 136.272 104.266C136.016 104.102 135.803 103.88 135.65 103.617C135.498 103.355 135.41 103.059 135.396 102.756C135.412 102.204 135.801 101.993 136.272 102.269Z" fill="#2FA4E1"/>
<path d="M142.199 105.694C142.454 105.855 142.666 106.074 142.819 106.334C142.971 106.594 143.059 106.887 143.075 107.188C143.075 107.756 142.669 107.967 142.199 107.691C141.941 107.529 141.727 107.307 141.575 107.044C141.422 106.781 141.335 106.485 141.322 106.181C141.322 105.613 141.712 105.402 142.199 105.694Z" fill="#289EDF"/>
<path d="M148.109 109.104C148.364 109.265 148.576 109.484 148.729 109.744C148.881 110.004 148.969 110.297 148.985 110.598C148.985 111.166 148.579 111.377 148.109 111.101C147.85 110.94 147.636 110.718 147.483 110.455C147.33 110.192 147.244 109.895 147.232 109.591C147.232 109.039 147.621 108.812 148.109 109.104Z" fill="#2197DD"/>
<path d="M154.035 112.514C154.289 112.678 154.5 112.901 154.65 113.164C154.799 113.427 154.883 113.722 154.895 114.024C154.895 114.576 154.506 114.787 154.035 114.511C153.778 114.353 153.564 114.134 153.411 113.873C153.258 113.613 153.171 113.319 153.158 113.018C153.158 112.449 153.548 112.238 154.035 112.514Z" fill="#1B92DC"/>
<path d="M130.362 92.04C130.618 92.2077 130.831 92.4333 130.983 92.6984C131.135 92.9635 131.223 93.2608 131.239 93.5662C131.239 94.1182 130.849 94.3455 130.362 94.0533C130.112 93.8878 129.903 93.6672 129.751 93.4082C129.599 93.1493 129.508 92.859 129.486 92.5596C129.502 92.04 129.891 91.7478 130.362 92.04Z" fill="#3DB2E6"/>
<path d="M136.289 95.4499C136.547 95.6158 136.763 95.8407 136.918 96.106C137.074 96.3713 137.164 96.6694 137.182 96.9761C137.182 97.5281 136.776 97.7393 136.289 97.4633C136.037 97.3008 135.827 97.0805 135.678 96.8207C135.528 96.5609 135.442 96.269 135.428 95.9694C135.428 95.4012 135.818 95.1739 136.289 95.4499Z" fill="#37ACE4"/>
<path d="M142.231 98.8753C142.481 99.0432 142.69 99.2669 142.839 99.5289C142.988 99.791 143.075 100.084 143.091 100.385C143.091 100.954 142.702 101.165 142.215 100.889C141.958 100.725 141.745 100.503 141.593 100.24C141.44 99.9775 141.353 99.682 141.338 99.3786C141.338 98.8266 141.744 98.5343 142.231 98.8753Z" fill="#30A6E2"/>
<path d="M148.141 102.286C148.392 102.454 148.6 102.677 148.749 102.939C148.898 103.201 148.985 103.495 149.002 103.796C149.002 104.364 148.612 104.575 148.125 104.299C147.87 104.134 147.658 103.911 147.506 103.649C147.354 103.386 147.265 103.092 147.248 102.789C147.248 102.237 147.654 102.01 148.141 102.286Z" fill="#2AA0E0"/>
<path d="M154.051 105.71C154.307 105.873 154.521 106.095 154.673 106.358C154.826 106.621 154.913 106.916 154.928 107.22C154.948 107.329 154.934 107.442 154.887 107.542C154.841 107.643 154.764 107.727 154.668 107.782C154.571 107.837 154.46 107.861 154.35 107.851C154.239 107.84 154.135 107.796 154.051 107.723C153.797 107.557 153.586 107.334 153.434 107.072C153.282 106.81 153.193 106.516 153.174 106.213C153.174 105.645 153.564 105.418 154.051 105.71Z" fill="#2399DE"/>
<path d="M130.33 105.63C130.585 105.794 130.798 106.017 130.95 106.279C131.103 106.542 131.191 106.837 131.207 107.14C131.207 107.708 130.817 107.919 130.33 107.627C130.075 107.466 129.862 107.247 129.71 106.987C129.557 106.727 129.469 106.434 129.453 106.133C129.453 105.565 129.859 105.354 130.33 105.63Z" fill="#2CA2E1"/>
<path d="M136.256 109.056C136.512 109.22 136.726 109.442 136.878 109.705C137.031 109.967 137.118 110.263 137.133 110.566C137.133 111.118 136.743 111.346 136.256 111.054C136.003 110.891 135.792 110.671 135.639 110.411C135.487 110.152 135.398 109.86 135.379 109.56C135.379 108.992 135.785 108.78 136.256 109.056Z" fill="#269CDF"/>
<path d="M142.182 112.482C142.437 112.643 142.65 112.862 142.803 113.122C142.955 113.382 143.043 113.674 143.059 113.975C143.059 114.544 142.653 114.755 142.182 114.479C141.926 114.316 141.713 114.093 141.56 113.831C141.408 113.568 141.32 113.272 141.305 112.969C141.305 112.417 141.695 112.19 142.182 112.482Z" fill="#1F96DD"/>
<path d="M148.027 115.891C148.283 116.055 148.497 116.277 148.649 116.54C148.802 116.802 148.889 117.098 148.904 117.401C148.904 117.953 148.498 118.164 148.027 117.888C147.769 117.727 147.554 117.505 147.401 117.242C147.249 116.979 147.163 116.683 147.15 116.378C147.215 115.826 147.605 115.615 148.027 115.891Z" fill="#1990DB"/>
<path d="M154.018 119.301C154.269 119.468 154.477 119.692 154.626 119.954C154.776 120.216 154.862 120.509 154.879 120.811C154.879 121.363 154.489 121.59 154.002 121.314C153.749 121.147 153.539 120.924 153.387 120.662C153.235 120.4 153.145 120.106 153.125 119.804C153.125 119.236 153.531 119.025 154.018 119.301Z" fill="#1289D9"/>
<path d="M130.314 112.433C130.57 112.597 130.783 112.819 130.936 113.082C131.088 113.344 131.176 113.64 131.19 113.943C131.19 114.495 130.785 114.723 130.297 114.447C130.047 114.279 129.839 114.055 129.69 113.793C129.54 113.531 129.454 113.238 129.437 112.937C129.437 112.368 129.827 112.157 130.314 112.433Z" fill="#249ADE"/>
<path d="M136.24 115.859C136.496 116.022 136.709 116.245 136.862 116.508C137.015 116.77 137.102 117.066 137.117 117.369C137.117 117.921 136.727 118.149 136.24 117.872C135.983 117.71 135.769 117.488 135.616 117.225C135.463 116.962 135.377 116.666 135.363 116.363C135.363 115.794 135.769 115.583 136.24 115.859Z" fill="#1E94DD"/>
<path d="M142.166 119.284C142.418 119.448 142.629 119.668 142.781 119.927C142.933 120.187 143.023 120.478 143.043 120.778C143.043 121.346 142.637 121.574 142.166 121.298C141.91 121.131 141.696 120.905 141.544 120.64C141.391 120.375 141.304 120.077 141.289 119.771C141.289 119.219 141.679 118.992 142.166 119.284Z" fill="#178EDB"/>
<path d="M148.027 122.693C148.28 122.855 148.49 123.075 148.64 123.335C148.79 123.595 148.875 123.887 148.888 124.187C148.888 124.755 148.498 124.982 148.027 124.706C147.768 124.543 147.552 124.318 147.4 124.052C147.247 123.786 147.161 123.487 147.15 123.18C147.199 122.628 147.589 122.417 148.027 122.693Z" fill="#1088D9"/>
<path d="M154.002 126.136C154.255 126.302 154.464 126.526 154.614 126.788C154.763 127.05 154.849 127.345 154.863 127.646C154.863 128.198 154.473 128.426 153.986 128.15C153.729 127.987 153.515 127.765 153.362 127.502C153.209 127.239 153.123 126.943 153.109 126.64C153.109 126.039 153.515 125.828 154.002 126.136Z" fill="#0A81D7"/>
<path opacity="0.4" d="M28.5331 135.866L90.3031 101.736L152.683 135.226L90.1731 170.196L28.5331 135.866Z" fill="#201D21"/>
<path d="M90.2532 164.506L154.813 127.466L154.733 130.256L90.1232 167.296L90.0132 165.926L90.2532 164.506Z" fill="#243A5E"/>
<path d="M90.2031 164.456L90.2331 167.246L25.5031 131.046L25.3131 128.066L90.2031 164.456Z" fill="#2F76BC"/>
<path d="M25.3232 128.126L90.2532 91.9258L154.813 127.406L90.2532 164.446L25.3232 128.126Z" fill="#141D2F"/>
<path opacity="0.5" d="M29.7632 127.896L90.1031 93.6758L151.693 127.266L90.5032 162.066L29.7632 127.896Z" stroke="url(#paint3_linear_1210_1669)" stroke-width="0.4675" stroke-miterlimit="10" stroke-linejoin="round"/>
<path opacity="0.5" d="M36.5331 127.546L90.1231 96.9058L145.983 127.086L90.4931 158.686L36.5331 127.546Z" stroke="url(#paint4_linear_1210_1669)" stroke-width="0.4675" stroke-miterlimit="10"/>
<path opacity="0.5" d="M42.1431 127.306L90.1431 100.246L140.323 126.966L90.4731 155.406L42.1431 127.306Z" stroke="url(#paint5_linear_1210_1669)" stroke-width="0.4675" stroke-miterlimit="10"/>
<path opacity="0.5" d="M47.5331 126.796L90.0531 103.516L134.763 126.876L90.4531 152.226L47.5331 126.796Z" stroke="url(#paint6_linear_1210_1669)" stroke-width="0.4675" stroke-miterlimit="10"/>
<path opacity="0.5" d="M53.0931 126.926L90.0731 106.846L129.113 126.696L90.5531 148.846L53.0931 126.926Z" stroke="url(#paint7_linear_1210_1669)" stroke-width="0.4675" stroke-miterlimit="10"/>
<path opacity="0.5" d="M58.7531 127.056L90.0931 110.126L123.503 126.616L90.4831 145.616L58.7531 127.056Z" stroke="url(#paint8_linear_1210_1669)" stroke-width="0.4675" stroke-miterlimit="10"/>
<path d="M105.154 38.6259L105.134 45.7259L106.654 46.6059V47.4159L102.824 45.2159L102.844 44.4059L104.374 45.2859L104.394 39.3259L102.824 39.6859L102.444 38.8359L104.614 38.2959L105.154 38.6259Z" fill="#50E6FF"/>
<path d="M111.054 42.0358L111.034 49.1358L112.554 50.0158V50.8258L108.744 48.6258V47.8158L110.274 48.6958L110.294 42.7358L108.724 43.0958L108.344 42.2258L110.514 41.7058L111.054 42.0358Z" fill="#50E6FF"/>
<path d="M116.974 45.426L116.934 52.536L118.454 53.416V54.226L114.644 52.026V51.216L116.174 52.096L116.194 46.136L114.624 46.496L114.244 45.626L116.414 45.106L116.974 45.426Z" fill="#50E6FF"/>
<path d="M122.884 48.8459L122.864 55.9559L124.364 56.8359V57.6459L120.554 55.4459V54.6159L122.104 55.5159V49.5559L120.534 49.9159L120.154 49.0459L122.324 48.5259L122.884 48.8459Z" fill="#50E6FF"/>
<path d="M136.364 58.8658C136.434 59.4258 136.494 60.0358 136.494 60.6858C136.494 61.3358 136.444 61.8758 136.354 62.3258C136.264 62.7758 136.104 63.1158 135.904 63.3558C135.704 63.5858 135.454 63.7158 135.144 63.7358C134.834 63.7558 134.494 63.6258 134.074 63.3958C133.644 63.1458 133.264 62.8358 132.954 62.4358C132.644 62.0758 132.394 61.6458 132.214 61.1758C132.014 60.7058 131.884 60.1858 131.794 59.6458C131.704 59.0858 131.664 58.5258 131.664 57.9158C131.664 57.2658 131.714 56.7258 131.804 56.2758C131.894 55.8258 132.054 55.4858 132.254 55.2458C132.454 55.0158 132.704 54.8858 132.994 54.8658C133.304 54.8458 133.664 54.9758 134.074 55.2058C134.524 55.4558 134.884 55.7658 135.194 56.1258C135.504 56.4858 135.754 56.9058 135.934 57.3558C136.134 57.7958 136.274 58.3058 136.364 58.8658ZM135.284 62.4958C135.534 62.0758 135.664 61.3258 135.664 60.2058C135.664 59.8058 135.644 59.4158 135.614 59.0358L132.684 60.4258C132.794 60.9158 132.954 61.3658 133.194 61.7458C133.424 62.1258 133.714 62.4358 134.074 62.6258C134.634 62.9458 135.054 62.9058 135.284 62.4958ZM132.524 59.4358L135.464 58.0858C135.354 57.6158 135.194 57.2058 134.974 56.8258C134.754 56.4658 134.454 56.1758 134.094 55.9558C133.514 55.6158 133.104 55.6458 132.864 56.0858C132.634 56.5058 132.504 57.2558 132.504 58.3758C132.504 58.5558 132.504 58.7558 132.524 58.9358C132.504 59.0958 132.504 59.2558 132.524 59.4358Z" fill="#50E6FF"/>
<path d="M130.444 55.4659C130.514 56.0259 130.574 56.6359 130.574 57.2859C130.574 57.9359 130.524 58.4759 130.434 58.9259C130.344 59.3759 130.184 59.7159 129.984 59.9559C129.784 60.1859 129.534 60.3159 129.224 60.3359C128.914 60.3559 128.574 60.2259 128.154 59.9959C127.724 59.7459 127.344 59.4359 127.034 59.0359C126.724 58.6759 126.474 58.2459 126.294 57.7759C126.094 57.3059 125.964 56.7859 125.874 56.2459C125.784 55.6859 125.744 55.1259 125.744 54.5159C125.744 53.8659 125.794 53.3259 125.884 52.8759C125.974 52.4259 126.134 52.0859 126.334 51.8459C126.534 51.6159 126.784 51.4859 127.074 51.4659C127.384 51.4459 127.744 51.5759 128.154 51.8059C128.604 52.0559 128.964 52.3659 129.274 52.7259C129.584 53.0859 129.834 53.5059 130.014 53.9559C130.224 54.4059 130.354 54.9059 130.444 55.4659ZM129.384 59.1159C129.634 58.6959 129.764 57.9459 129.764 56.8259C129.764 56.4259 129.744 56.0359 129.714 55.6559L126.784 57.0459C126.894 57.5359 127.054 57.9859 127.294 58.3659C127.524 58.7459 127.814 59.0559 128.174 59.2459C128.714 59.5459 129.124 59.5159 129.384 59.1159ZM126.614 56.0459L129.554 54.6959C129.444 54.2259 129.284 53.8159 129.064 53.4359C128.844 53.0759 128.544 52.7859 128.184 52.5659C127.604 52.2259 127.194 52.2559 126.954 52.6959C126.724 53.1159 126.594 53.8659 126.594 54.9859C126.594 55.1659 126.594 55.3659 126.614 55.5459C126.584 55.7059 126.604 55.8659 126.614 56.0459Z" fill="#50E6FF"/>
<path d="M118.624 62.2359C118.694 62.7959 118.754 63.4059 118.754 64.0559C118.754 64.7059 118.704 65.2459 118.614 65.6959C118.524 66.1459 118.364 66.4859 118.164 66.7259C117.964 66.9559 117.714 67.0859 117.404 67.1059C117.094 67.1259 116.754 66.9959 116.334 66.7659C115.904 66.5159 115.524 66.2059 115.214 65.8059C114.904 65.4459 114.654 65.0159 114.474 64.5459C114.274 64.0759 114.144 63.5559 114.054 63.0159C113.964 62.4559 113.924 61.8959 113.924 61.2859C113.924 60.6359 113.974 60.0959 114.064 59.6459C114.154 59.1959 114.314 58.8559 114.514 58.6159C114.714 58.3859 114.964 58.2559 115.254 58.2359C115.564 58.2159 115.924 58.3459 116.334 58.5759C116.784 58.8259 117.144 59.1359 117.454 59.4959C117.764 59.8559 118.014 60.2759 118.194 60.7259C118.384 61.1759 118.524 61.6759 118.624 62.2359ZM117.534 65.8859C117.784 65.4659 117.914 64.7159 117.914 63.5959C117.914 63.1959 117.894 62.8059 117.864 62.4259L114.934 63.8159C115.044 64.3059 115.204 64.7559 115.444 65.1359C115.674 65.5159 115.964 65.8259 116.324 66.0159C116.884 66.3359 117.304 66.3059 117.534 65.8859ZM114.774 62.8359L117.714 61.4859C117.604 61.0159 117.444 60.6059 117.224 60.2259C117.004 59.8659 116.704 59.5759 116.344 59.3559C115.764 59.0159 115.354 59.0459 115.114 59.4859C114.884 59.9059 114.754 60.6559 114.754 61.7759C114.754 61.9559 114.754 62.1559 114.774 62.3359C114.754 62.4759 114.754 62.6559 114.774 62.8359Z" fill="#50E6FF"/>
<path d="M124.504 65.596C124.574 66.156 124.634 66.766 124.634 67.416C124.634 68.066 124.584 68.606 124.494 69.056C124.404 69.506 124.244 69.846 124.044 70.086C123.844 70.316 123.594 70.446 123.284 70.466C122.974 70.486 122.634 70.356 122.214 70.126C121.784 69.876 121.404 69.566 121.094 69.166C120.784 68.806 120.534 68.376 120.354 67.906C120.154 67.436 120.024 66.916 119.934 66.376C119.844 65.816 119.804 65.256 119.804 64.646C119.804 63.996 119.854 63.456 119.944 63.006C120.034 62.556 120.194 62.216 120.394 61.976C120.594 61.736 120.844 61.616 121.134 61.596C121.444 61.576 121.804 61.706 122.214 61.936C122.664 62.186 123.024 62.496 123.334 62.856C123.644 63.216 123.894 63.636 124.074 64.086C124.274 64.536 124.414 65.036 124.504 65.596ZM123.424 69.246C123.674 68.826 123.804 68.076 123.804 66.956C123.804 66.556 123.784 66.166 123.754 65.786L120.824 67.176C120.934 67.666 121.094 68.116 121.334 68.496C121.564 68.876 121.854 69.186 122.214 69.376C122.774 69.696 123.184 69.656 123.424 69.246ZM120.664 66.196L123.604 64.846C123.494 64.376 123.334 63.966 123.114 63.586C122.894 63.226 122.594 62.936 122.234 62.716C121.654 62.376 121.244 62.406 121.004 62.846C120.774 63.266 120.644 64.016 120.644 65.136C120.644 65.316 120.644 65.516 120.664 65.696C120.644 65.836 120.644 66.016 120.664 66.196Z" fill="#50E6FF"/>
<path d="M106.724 55.4659C106.794 56.0259 106.854 56.6359 106.854 57.2859C106.854 57.9359 106.804 58.4759 106.714 58.9259C106.584 59.3559 106.444 59.7159 106.244 59.9559C106.044 60.1859 105.794 60.3159 105.484 60.3359C105.174 60.3559 104.834 60.2259 104.414 59.9959C103.984 59.7459 103.604 59.4359 103.294 59.0359C102.984 58.6759 102.734 58.2459 102.554 57.7759C102.354 57.3059 102.224 56.7859 102.134 56.2459C102.044 55.6859 102.004 55.1059 102.004 54.4959C102.004 53.8459 102.054 53.3059 102.144 52.8559C102.254 52.4259 102.394 52.0659 102.594 51.8459C102.794 51.6159 103.044 51.4859 103.334 51.4659C103.624 51.4459 104.004 51.5759 104.414 51.8059C104.864 52.0559 105.224 52.3659 105.534 52.7259C105.844 53.0859 106.094 53.5059 106.274 53.9559C106.484 54.4059 106.634 54.9059 106.724 55.4659ZM105.634 59.1159C105.884 58.6959 106.014 57.9459 106.014 56.8259C106.014 56.4259 105.994 56.0359 105.964 55.6559L103.024 57.0259C103.134 57.5159 103.294 57.9659 103.534 58.3459C103.764 58.7259 104.054 59.0359 104.414 59.2259C104.984 59.5459 105.384 59.5159 105.634 59.1159ZM102.874 56.0459L105.814 54.6959C105.704 54.2259 105.544 53.8159 105.324 53.4359C105.094 53.0759 104.804 52.7859 104.424 52.5659C103.844 52.2259 103.434 52.2559 103.194 52.6759C102.964 53.0959 102.834 53.8459 102.834 54.9659C102.834 55.1459 102.834 55.3459 102.854 55.5259C102.854 55.7059 102.854 55.8659 102.874 56.0459Z" fill="#50E6FF"/>
<path d="M118.564 75.7659C118.634 76.3259 118.694 76.9359 118.694 77.5859C118.694 78.2359 118.644 78.7759 118.554 79.2259C118.464 79.6759 118.304 80.0159 118.104 80.2559C117.904 80.4859 117.654 80.6159 117.344 80.6359C117.034 80.6559 116.694 80.5259 116.274 80.2959C115.844 80.0459 115.464 79.7359 115.154 79.3359C114.844 78.9759 114.594 78.5459 114.414 78.0759C114.214 77.6059 114.084 77.0859 113.994 76.5459C113.904 75.9859 113.864 75.4259 113.864 74.8159C113.864 74.1659 113.914 73.6259 114.004 73.1759C114.094 72.7259 114.254 72.3859 114.454 72.1459C114.654 71.9159 114.904 71.7859 115.194 71.7659C115.504 71.7459 115.864 71.8759 116.274 72.1059C116.724 72.3559 117.084 72.6659 117.394 73.0259C117.704 73.3859 117.954 73.8059 118.134 74.2559C118.344 74.6959 118.474 75.2059 118.564 75.7659ZM117.504 79.4059C117.754 78.9859 117.884 78.2359 117.884 77.1159C117.884 76.7159 117.864 76.3259 117.834 75.9459L114.904 77.3359C115.014 77.8259 115.174 78.2759 115.414 78.6559C115.644 79.0359 115.934 79.3459 116.294 79.5359C116.834 79.8659 117.244 79.8259 117.504 79.4059ZM114.734 76.3559L117.674 75.0059C117.564 74.5359 117.404 74.1259 117.184 73.7459C116.964 73.3859 116.664 73.0959 116.304 72.8759C115.724 72.5359 115.314 72.5659 115.074 73.0059C114.844 73.4259 114.714 74.1759 114.714 75.2959C114.714 75.4759 114.714 75.6759 114.734 75.8559C114.704 75.9959 114.714 76.1759 114.734 76.3559Z" fill="#50E6FF"/>
<path d="M136.244 86.076C136.314 86.636 136.374 87.246 136.374 87.896C136.374 88.546 136.324 89.086 136.234 89.536C136.144 89.986 135.984 90.326 135.784 90.566C135.584 90.796 135.334 90.926 135.024 90.946C134.714 90.966 134.374 90.836 133.954 90.606C133.524 90.356 133.144 90.046 132.834 89.646C132.524 89.286 132.274 88.856 132.094 88.386C131.894 87.916 131.774 87.396 131.674 86.856C131.584 86.296 131.544 85.736 131.544 85.126C131.544 84.476 131.594 83.936 131.684 83.486C131.774 83.036 131.934 82.696 132.134 82.456C132.334 82.226 132.584 82.096 132.874 82.076C133.184 82.056 133.544 82.186 133.954 82.416C134.404 82.666 134.764 82.976 135.074 83.336C135.384 83.696 135.634 84.116 135.814 84.566C136.004 85.006 136.154 85.516 136.244 86.076ZM135.154 89.716C135.404 89.296 135.534 88.546 135.534 87.426C135.534 87.026 135.514 86.636 135.484 86.256L132.554 87.646C132.664 88.136 132.824 88.586 133.064 88.966C133.294 89.346 133.584 89.656 133.944 89.846C134.504 90.176 134.924 90.136 135.154 89.716ZM132.394 86.666L135.334 85.316C135.224 84.846 135.064 84.436 134.844 84.056C134.624 83.696 134.324 83.406 133.964 83.186C133.384 82.846 132.974 82.876 132.734 83.316C132.504 83.736 132.374 84.486 132.374 85.606C132.374 85.786 132.374 85.986 132.394 86.166C132.374 86.306 132.394 86.486 132.394 86.666Z" fill="#50E6FF"/>
<path d="M106.734 82.556C106.804 83.116 106.864 83.726 106.864 84.376C106.864 85.026 106.814 85.566 106.724 86.016C106.634 86.466 106.474 86.806 106.274 87.046C106.074 87.276 105.824 87.406 105.514 87.426C105.204 87.446 104.864 87.316 104.444 87.086C104.014 86.836 103.634 86.526 103.324 86.126C103.014 85.766 102.764 85.336 102.584 84.866C102.384 84.396 102.254 83.876 102.164 83.336C102.074 82.776 102.034 82.216 102.034 81.606C102.034 80.956 102.084 80.416 102.174 79.966C102.264 79.516 102.424 79.176 102.624 78.936C102.824 78.706 103.074 78.576 103.364 78.556C103.674 78.536 104.034 78.666 104.444 78.896C104.894 79.146 105.254 79.456 105.564 79.816C105.874 80.176 106.124 80.596 106.304 81.046C106.504 81.486 106.644 81.996 106.734 82.556ZM105.654 86.196C105.904 85.776 106.034 85.026 106.034 83.906C106.034 83.506 106.014 83.116 105.984 82.736L103.054 84.126C103.164 84.616 103.324 85.066 103.564 85.446C103.794 85.826 104.084 86.136 104.444 86.326C105.004 86.636 105.424 86.596 105.654 86.196ZM102.894 83.126L105.834 81.776C105.724 81.306 105.564 80.896 105.344 80.516C105.124 80.156 104.824 79.866 104.464 79.646C103.884 79.306 103.474 79.336 103.234 79.776C103.004 80.196 102.874 80.946 102.874 82.066C102.874 82.246 102.874 82.446 102.894 82.626C102.874 82.786 102.874 82.946 102.894 83.126Z" fill="#50E6FF"/>
<path d="M130.334 96.1658C130.404 96.7258 130.464 97.3358 130.464 97.9858C130.464 98.6358 130.414 99.1758 130.324 99.6258C130.234 100.076 130.074 100.416 129.874 100.656C129.674 100.886 129.424 101.016 129.114 101.036C128.804 101.056 128.464 100.926 128.044 100.696C127.614 100.446 127.234 100.136 126.924 99.7358C126.614 99.3758 126.364 98.9458 126.184 98.4758C125.984 98.0058 125.854 97.4858 125.764 96.9458C125.674 96.3858 125.634 95.8258 125.634 95.2158C125.634 94.5658 125.684 94.0258 125.774 93.5758C125.864 93.1258 126.024 92.7858 126.224 92.5458C126.424 92.3058 126.674 92.1858 126.964 92.1658C127.274 92.1458 127.634 92.2758 128.044 92.5058C128.494 92.7558 128.854 93.0658 129.164 93.4258C129.474 93.7858 129.724 94.2058 129.904 94.6558C130.124 95.1058 130.244 95.6058 130.334 96.1658ZM129.274 99.8158C129.524 99.3958 129.654 98.6458 129.654 97.5258C129.654 97.1258 129.634 96.7358 129.604 96.3558L126.674 97.7458C126.784 98.2358 126.944 98.6858 127.184 99.0658C127.414 99.4458 127.704 99.7558 128.064 99.9458C128.604 100.266 129.024 100.226 129.274 99.8158ZM126.494 96.7658L129.434 95.4158C129.324 94.9458 129.164 94.5358 128.944 94.1558C128.724 93.7958 128.424 93.5058 128.064 93.2858C127.484 92.9458 127.074 92.9758 126.834 93.4158C126.604 93.8358 126.474 94.5858 126.474 95.7058C126.474 95.8858 126.474 96.0858 126.494 96.2658C126.474 96.4058 126.494 96.5858 126.494 96.7658Z" fill="#50E6FF"/>
<path d="M136.224 99.556C136.294 100.116 136.354 100.726 136.354 101.376C136.354 102.026 136.304 102.566 136.214 103.016C136.124 103.466 135.964 103.806 135.764 104.046C135.564 104.276 135.314 104.406 135.004 104.426C134.694 104.446 134.354 104.316 133.934 104.086C133.504 103.836 133.124 103.526 132.814 103.126C132.504 102.766 132.254 102.336 132.074 101.866C131.874 101.396 131.744 100.876 131.654 100.336C131.564 99.776 131.524 99.216 131.524 98.606C131.524 97.956 131.574 97.416 131.664 96.966C131.754 96.516 131.914 96.176 132.114 95.936C132.314 95.706 132.564 95.576 132.854 95.556C133.144 95.536 133.524 95.666 133.934 95.896C134.384 96.146 134.744 96.456 135.054 96.816C135.364 97.176 135.614 97.596 135.794 98.046C136.004 98.496 136.134 99.006 136.224 99.556ZM135.154 103.206C135.404 102.786 135.534 102.036 135.534 100.916C135.534 100.516 135.514 100.126 135.484 99.746L132.554 101.136C132.664 101.626 132.824 102.076 133.064 102.456C133.294 102.836 133.584 103.146 133.944 103.336C134.494 103.656 134.904 103.626 135.154 103.206ZM132.374 100.156L135.314 98.806C135.204 98.336 135.044 97.926 134.824 97.546C134.604 97.186 134.304 96.896 133.944 96.676C133.364 96.336 132.954 96.366 132.714 96.806C132.484 97.226 132.354 97.976 132.354 99.096C132.354 99.276 132.354 99.476 132.374 99.656C132.364 99.796 132.374 99.976 132.374 100.156Z" fill="#50E6FF"/>
<path d="M142.144 102.956C142.214 103.516 142.274 104.126 142.274 104.776C142.274 105.426 142.224 105.966 142.134 106.416C142.044 106.866 141.884 107.206 141.684 107.446C141.484 107.676 141.234 107.806 140.924 107.826C140.614 107.846 140.274 107.716 139.854 107.486C139.424 107.236 139.044 106.926 138.734 106.526C138.424 106.166 138.174 105.736 137.994 105.266C137.794 104.796 137.664 104.276 137.574 103.736C137.484 103.176 137.444 102.616 137.444 102.006C137.444 101.356 137.494 100.816 137.584 100.366C137.674 99.9159 137.834 99.5759 138.034 99.3359C138.234 99.1059 138.484 98.9759 138.774 98.9559C139.064 98.9359 139.444 99.0659 139.854 99.2959C140.304 99.5459 140.664 99.8559 140.974 100.216C141.284 100.576 141.534 100.996 141.714 101.446C141.914 101.886 142.054 102.396 142.144 102.956ZM141.064 106.606C141.314 106.186 141.444 105.436 141.444 104.316C141.444 103.916 141.424 103.526 141.394 103.146L138.464 104.536C138.574 105.026 138.734 105.476 138.974 105.856C139.204 106.236 139.494 106.546 139.854 106.736C140.414 107.036 140.824 107.016 141.064 106.606ZM138.304 103.536L141.244 102.186C141.134 101.716 140.974 101.306 140.754 100.926C140.534 100.566 140.234 100.276 139.874 100.056C139.294 99.7159 138.884 99.7459 138.644 100.186C138.414 100.606 138.284 101.356 138.284 102.476C138.284 102.656 138.284 102.856 138.304 103.036C138.284 103.186 138.284 103.376 138.304 103.536Z" fill="#50E6FF"/>
<path d="M105.154 38.6259L105.134 45.7259L106.654 46.6059V47.4159L102.824 45.2159L102.844 44.4059L104.374 45.2859L104.394 39.3259L102.824 39.6859L102.444 38.8359L104.614 38.2959L105.154 38.6259Z" fill="#50E6FF"/>
<path d="M140.374 58.7758L140.354 65.8758L141.854 66.7558V67.5658L138.044 65.3658V64.5558L139.594 65.4358V59.4758L138.024 59.8358L137.644 58.9658L139.814 58.4458L140.374 58.7758Z" fill="#50E6FF"/>
<path d="M110.814 55.436L110.794 62.546L112.294 63.426V64.236L108.484 62.036V61.226L110.034 62.106V56.146L108.464 56.506L108.084 55.636L110.254 55.116L110.814 55.436Z" fill="#50E6FF"/>
<path d="M128.624 65.8158L128.604 72.9258L130.124 73.7958V74.6058L126.294 72.4058V71.5958L127.844 72.4758L127.864 66.5158L126.274 66.8958L125.894 66.0258L128.064 65.4858L128.624 65.8158Z" fill="#50E6FF"/>
<path d="M134.654 69.206L134.634 76.316L136.154 77.196V78.006L132.324 75.806V74.976L133.874 75.876L133.894 69.916L132.304 70.276L131.924 69.406L134.094 68.886L134.654 69.206Z" fill="#50E6FF"/>
<path d="M140.504 72.6359L140.484 79.7459L142.004 80.6159V81.4259L138.174 79.2259V78.4159L139.724 79.2959L139.744 73.3359L138.154 73.7159L137.774 72.8459L139.944 72.3059L140.504 72.6359Z" fill="#50E6FF"/>
<path d="M146.514 75.966L146.494 83.076L148.014 83.946V84.756L144.184 82.556V81.746L145.734 82.646L145.754 76.686L144.184 77.046L143.784 76.176L145.954 75.636L146.514 75.966Z" fill="#50E6FF"/>
<path d="M146.314 89.5959L146.294 96.7059L147.814 97.5759V98.3859L144.004 96.1859V95.3759L145.534 96.2559L145.554 90.2959L143.984 90.6759L143.604 89.8059L145.774 89.2659L146.314 89.5959Z" fill="#50E6FF"/>
<path d="M140.504 86.2758L140.484 93.3758L142.004 94.2558V95.0658L138.174 92.8658V92.0558L139.724 92.9358L139.744 86.9758L138.154 87.3358L137.774 86.4658L139.944 85.9458L140.504 86.2758Z" fill="#50E6FF"/>
<path d="M128.694 79.466L128.654 86.566L130.174 87.446V88.256L126.364 86.056V85.246L127.894 86.126L127.914 80.166L126.344 80.526L125.964 79.656L128.134 79.136L128.694 79.466Z" fill="#50E6FF"/>
<path d="M122.734 76.0658L122.714 83.1758L124.234 84.0559V84.8659L120.404 82.6659L120.424 81.8559L121.954 82.7359L121.974 76.7758L120.404 77.1358L120.004 76.2659L122.184 75.7458L122.734 76.0658Z" fill="#50E6FF"/>
<path d="M110.964 69.226L110.944 76.326L112.464 77.206V78.016L108.634 75.816V75.006L110.184 75.886L110.204 69.926L108.614 70.286L108.234 69.436L110.404 68.896L110.964 69.226Z" fill="#50E6FF"/>
<path d="M105.074 65.8358L105.054 72.9459L106.574 73.8158V74.6259L102.744 72.4258V71.6058L104.294 72.4859L104.314 66.5458L102.724 66.9058L102.344 66.0358L104.514 65.4958L105.074 65.8358Z" fill="#50E6FF"/>
<path d="M110.944 82.746L110.924 89.846L112.444 90.726V91.536L108.614 89.336V88.526L110.164 89.406L110.184 83.446L108.594 83.806L108.214 82.936L110.384 82.416L110.944 82.746Z" fill="#50E6FF"/>
<path d="M116.794 86.0358L116.774 93.1458L118.294 94.0158V94.8458L114.484 92.6258V91.8158L116.014 92.7158L116.034 86.7558L114.464 87.1158L114.084 86.2458L116.254 85.7258L116.794 86.0358Z" fill="#50E6FF"/>
<path d="M122.684 89.436L122.664 96.546L124.184 97.416V98.226L120.374 96.0259V95.2059L121.904 96.1059L121.924 90.146L120.354 90.506L119.974 89.6359L122.144 89.0959L122.684 89.436Z" fill="#50E6FF"/>
<path d="M146.374 103.136L146.354 110.246L147.874 111.116L147.854 111.926L144.044 109.726V108.916L145.594 109.796L145.614 103.836L144.024 104.216L143.644 103.346L145.814 102.806L146.374 103.136Z" fill="#50E6FF"/>
<path d="M146.464 62.4159L146.444 69.5259L147.944 70.3959V71.2059L144.134 69.0059V68.1959L145.664 69.0759L145.684 63.1159L144.114 63.5059L143.734 62.6359L145.904 62.0959L146.464 62.4159Z" fill="#50E6FF"/>
<path opacity="0.2" d="M57.5739 115.406L60.9239 114.106L113.914 144.816L111.424 146.116L57.5739 115.406Z" fill="#1F1D21"/>
<path opacity="0.2" d="M68.9339 108.706L72.2839 107.406L125.274 138.116L122.784 139.416L68.9339 108.706Z" fill="#1F1D21"/>
<path opacity="0.2" d="M80.1739 102.866L83.5239 101.566L136.514 132.276L134.024 133.576L80.1739 102.866Z" fill="#1F1D21"/>
<path opacity="0.75" d="M136.634 102.976L136.314 101.356L115.224 73.3459L81.0539 68.5859L80.4039 98.0059L136.644 130.556V102.976H136.634Z" fill="white" stroke="#9B9BA0" stroke-miterlimit="10" stroke-linejoin="round"/>
<path opacity="0.8" d="M125.274 113.136L109.054 88.266L91.5339 74.426L71.9639 77.776L72.1839 105.466L125.284 136.176V113.136H125.274Z" fill="#0078D4" stroke="#32B0E7" stroke-width="0.5" stroke-miterlimit="10"/>
<path d="M125.274 113.136L109.054 88.266L91.5339 74.426L71.9639 77.776L72.1839 105.466L125.284 136.176V113.136H125.274Z" stroke="#185A97" stroke-miterlimit="10" stroke-linejoin="round"/>
<path d="M124.084 110.436C124.404 110.326 124.734 110.436 125.164 110.656C125.274 110.766 125.384 110.766 125.484 110.876C125.914 111.306 126.354 111.846 126.674 112.496C126.994 113.146 127.104 113.796 126.994 114.226C126.884 114.766 126.674 115.096 126.234 115.096C125.914 115.206 125.584 115.096 125.154 114.876C125.044 114.766 124.934 114.766 124.834 114.656C124.294 114.226 123.964 113.686 123.644 113.036C123.324 112.386 123.214 111.736 123.324 111.306C123.434 110.866 123.764 110.546 124.084 110.436ZM124.304 113.026C124.524 113.346 124.734 113.676 124.954 113.996C125.064 113.996 125.064 114.106 125.174 114.106C125.394 114.216 125.604 114.326 125.824 114.216C126.044 114.216 126.254 113.996 126.254 113.676C126.254 113.356 126.254 113.026 126.034 112.596C125.814 112.276 125.604 111.946 125.384 111.726L125.164 111.616C124.944 111.506 124.734 111.396 124.514 111.506C124.294 111.616 124.084 111.726 124.084 112.046C124.084 112.276 124.084 112.596 124.304 113.026Z" fill="#185A97"/>
<path d="M125.164 111.516C124.944 111.406 124.734 111.296 124.514 111.406C124.294 111.516 124.084 111.626 124.084 111.946C123.974 112.266 124.084 112.596 124.304 113.026C124.524 113.346 124.734 113.676 124.954 113.996C125.064 113.996 125.064 114.106 125.174 114.106C125.394 114.216 125.604 114.326 125.824 114.216C126.044 114.216 126.254 113.996 126.254 113.676C126.254 113.356 126.254 113.026 126.034 112.596C125.814 112.276 125.604 111.946 125.384 111.726L125.164 111.516Z" fill="#2195DC"/>
<path d="M107.974 85.996C108.294 85.886 108.624 85.996 109.054 86.216C109.164 86.326 109.274 86.326 109.374 86.436C109.804 86.866 110.244 87.406 110.564 88.056C110.884 88.706 110.994 89.356 110.884 89.786C110.774 90.326 110.564 90.656 110.124 90.656C109.804 90.766 109.474 90.656 109.044 90.436C108.934 90.326 108.824 90.326 108.724 90.216C108.184 89.786 107.854 89.246 107.534 88.596C107.214 87.946 107.104 87.296 107.214 86.866C107.324 86.316 107.544 85.996 107.974 85.996ZM108.084 88.486C108.304 88.806 108.514 89.136 108.734 89.456C108.844 89.456 108.844 89.566 108.954 89.566C109.174 89.676 109.384 89.786 109.604 89.676C109.824 89.676 110.034 89.456 110.034 89.136C110.034 88.816 110.034 88.486 109.814 88.056C109.594 87.736 109.384 87.406 109.164 87.186L108.944 87.076C108.724 86.966 108.514 86.856 108.294 86.966C108.074 87.076 107.864 87.186 107.864 87.506C107.864 87.726 107.974 88.156 108.084 88.486Z" fill="#185A97"/>
<path d="M109.054 87.076C108.834 86.966 108.624 86.856 108.404 86.966C108.184 87.076 107.974 87.186 107.974 87.506C107.864 87.826 107.974 88.156 108.194 88.586C108.414 88.906 108.624 89.236 108.844 89.556C108.954 89.556 108.954 89.666 109.064 89.666C109.284 89.776 109.494 89.886 109.714 89.776C109.934 89.776 110.144 89.556 110.144 89.236C110.144 88.916 110.144 88.586 109.924 88.156C109.704 87.836 109.494 87.506 109.274 87.286L109.054 87.076Z" fill="#2195DC"/>
<path d="M90.6639 72.256C90.9839 72.146 91.3139 72.256 91.7439 72.476C91.8539 72.586 91.9639 72.586 92.0639 72.696C92.4939 73.126 92.9339 73.666 93.2539 74.316C93.5739 74.966 93.6839 75.616 93.5739 76.046C93.4639 76.586 93.2539 76.916 92.8139 76.916C92.4939 77.026 92.1639 76.916 91.7339 76.696C91.6239 76.586 91.5139 76.586 91.4139 76.476C90.8739 76.046 90.5439 75.506 90.2239 74.856C89.9039 74.206 89.7939 73.556 89.9039 73.126C90.0239 72.696 90.2339 72.366 90.6639 72.256ZM90.7739 74.746C90.9939 75.066 91.2039 75.396 91.4239 75.716C91.5339 75.716 91.5339 75.826 91.6439 75.826C91.9639 75.936 92.1839 76.046 92.2939 75.936C92.5139 75.936 92.7239 75.716 92.7239 75.396C92.7239 75.076 92.7239 74.746 92.5039 74.316C92.2839 73.996 92.0739 73.666 91.8539 73.446L91.6339 73.336C91.4139 73.226 91.2039 73.116 90.9839 73.226C90.7639 73.336 90.5539 73.446 90.5539 73.766C90.5539 74.086 90.6639 74.426 90.7739 74.746Z" fill="#185A97"/>
<path d="M91.7539 73.336C91.5339 73.226 91.3239 73.116 91.1039 73.226C90.8839 73.336 90.6739 73.446 90.6739 73.766C90.5639 74.086 90.6739 74.416 90.8939 74.846C91.1139 75.166 91.3239 75.496 91.5439 75.816C91.6539 75.816 91.6539 75.926 91.7639 75.926C91.9839 75.926 92.1939 76.036 92.3039 75.926C92.5239 75.926 92.7339 75.706 92.7339 75.386C92.7339 75.066 92.7339 74.736 92.5139 74.306C92.2939 73.986 92.0839 73.656 91.8639 73.436L91.7539 73.336Z" fill="#2195DC"/>
<path d="M71.0939 75.6159C71.4139 75.5059 71.7439 75.6159 72.1739 75.8359C72.2839 75.9459 72.3939 75.9459 72.4939 76.0559C72.9239 76.4859 73.3639 77.0259 73.6839 77.6759C74.0039 78.3259 74.1139 78.9759 74.0039 79.4059C73.8939 79.9459 73.6839 80.2759 73.2439 80.2759C72.9239 80.3859 72.5939 80.2759 72.1639 80.0559C72.0539 79.9459 71.9439 79.9459 71.8439 79.8359C71.3039 79.4059 70.9739 78.8659 70.6539 78.2159C70.3339 77.5659 70.2239 76.9159 70.3339 76.4859C70.4439 75.9359 70.6639 75.6159 71.0939 75.6159ZM71.3139 78.0959C71.5339 78.4159 71.7439 78.7459 71.9639 79.0659C72.0739 79.0659 72.0739 79.1759 72.1839 79.1759C72.4039 79.2859 72.6139 79.3959 72.8339 79.2859C73.0539 79.2859 73.2639 79.0659 73.2639 78.7459C73.2639 78.4259 73.2639 78.0959 73.0439 77.6659C72.8239 77.3459 72.6139 77.0159 72.3939 76.7959L72.1739 76.6859C71.9539 76.5759 71.7439 76.4659 71.5239 76.5759C71.3039 76.6859 71.0939 76.7959 71.0939 77.1159C70.9839 77.3459 71.0939 77.7759 71.3139 78.0959Z" fill="#185A97"/>
<path d="M72.1739 76.6961C71.9539 76.5861 71.7439 76.4761 71.5239 76.5861C71.3039 76.6961 71.0939 76.8061 71.0939 77.1261C70.9839 77.4461 71.0939 77.7761 71.3139 78.2061C71.5339 78.5261 71.7439 78.8561 71.9639 79.1761C72.0739 79.1761 72.0739 79.2861 72.1839 79.2861C72.4039 79.3961 72.6139 79.5061 72.8339 79.3961C73.0539 79.3961 73.2639 79.1761 73.2639 78.8561C73.2639 78.5361 73.2639 78.2061 73.0439 77.7761C72.8239 77.4561 72.6139 77.1261 72.3939 76.9061L72.1739 76.6961Z" fill="#2195DC"/>
<path opacity="0.65" d="M114.354 117.576L105.914 99.8359L92.4039 102.216L76.0639 87.1859L60.4939 72.5859L59.9539 111.846L114.354 143.206V117.576Z" fill="#50E6FF"/>
<path d="M114.354 117.576L105.914 99.8359L92.4039 102.216L76.0739 87.1859L60.8239 73.3359L60.1739 112.596L114.354 143.206V117.576Z" stroke="#32B0E7" stroke-miterlimit="10" stroke-linejoin="round"/>
<path d="M115.324 72.256C115.104 72.146 115.004 72.146 114.784 72.146C114.564 72.146 114.464 72.366 114.464 72.576C114.464 72.796 114.464 73.116 114.574 73.446C114.684 73.766 114.894 73.986 115.114 74.206C115.224 74.206 115.224 74.316 115.334 74.316C115.554 74.426 115.654 74.426 115.874 74.426C116.094 74.426 116.194 74.206 116.194 73.996C116.194 73.786 116.194 73.456 116.084 73.126C115.864 72.696 115.544 72.476 115.324 72.256Z" fill="white"/>
<path d="M114.134 70.6359C114.454 70.5259 114.894 70.6359 115.324 70.8559C115.974 71.1759 116.624 71.9359 117.054 72.8059C117.704 74.2159 117.484 75.6159 116.514 75.7259C116.194 75.8359 115.754 75.7259 115.324 75.5059C115.214 75.3959 115.104 75.3959 115.004 75.2859C114.464 74.8559 114.034 74.2059 113.704 73.5559C113.384 72.9059 113.274 72.1459 113.384 71.6059C113.384 71.1759 113.704 70.7459 114.134 70.6359ZM114.574 73.4459C114.684 73.7659 114.894 73.9859 115.114 74.2059C115.224 74.2059 115.224 74.3159 115.334 74.3159C115.554 74.4259 115.654 74.4259 115.874 74.4259C116.094 74.4259 116.194 74.2059 116.194 73.9959C116.194 73.7759 116.194 73.4559 116.084 73.1259C115.864 72.6959 115.654 72.4759 115.324 72.2559C115.104 72.1459 115.004 72.1459 114.784 72.1459C114.564 72.1459 114.464 72.3659 114.464 72.5759C114.354 72.7959 114.464 73.1259 114.574 73.4459Z" fill="#B2B2B2"/>
<path d="M136.204 100.376C135.984 100.266 135.884 100.266 135.664 100.266C135.444 100.266 135.344 100.486 135.344 100.696C135.344 100.906 135.344 101.236 135.454 101.566C135.564 101.886 135.774 102.106 135.994 102.326C136.104 102.326 136.104 102.436 136.214 102.436C136.434 102.546 136.534 102.546 136.754 102.546C136.974 102.546 137.074 102.326 137.074 102.116C137.074 101.906 137.074 101.576 136.964 101.246C136.744 100.806 136.414 100.486 136.204 100.376Z" fill="white"/>
<path d="M135.014 98.756C135.334 98.646 135.774 98.756 136.204 98.976C136.854 99.296 137.504 100.056 137.934 100.926C138.584 102.336 138.364 103.736 137.394 103.846C137.074 103.956 136.634 103.846 136.204 103.626C136.094 103.516 135.984 103.516 135.884 103.406C135.344 102.976 134.914 102.326 134.584 101.676C134.264 101.026 134.154 100.266 134.264 99.726C134.254 99.186 134.574 98.866 135.014 98.756ZM135.444 101.456C135.554 101.776 135.764 101.996 135.984 102.216C136.094 102.216 136.094 102.326 136.204 102.326C136.424 102.436 136.524 102.436 136.744 102.436C136.964 102.436 137.064 102.216 137.064 102.006C137.064 101.796 137.064 101.466 136.954 101.136C136.734 100.706 136.524 100.486 136.194 100.266C135.974 100.156 135.874 100.156 135.654 100.156C135.434 100.156 135.334 100.376 135.334 100.586C135.224 100.916 135.334 101.246 135.444 101.456Z" fill="#B2B2B2"/>
<path d="M81.1539 67.8261C80.9339 67.7161 80.8339 67.7161 80.6139 67.7161C80.3939 67.7161 80.2939 67.9361 80.2939 68.1461C80.2939 68.3561 80.2939 68.6861 80.4039 69.0161C80.5139 69.3361 80.7239 69.5561 80.9439 69.7761C81.0539 69.7761 81.0539 69.8861 81.1639 69.8861C81.3839 69.9961 81.4839 69.9961 81.7039 69.9961C81.9239 69.9961 82.0239 69.7761 82.0239 69.5661C82.0239 69.3561 82.0239 69.0261 81.9139 68.6961C81.6939 68.2561 81.4739 67.9361 81.1539 67.8261Z" fill="white"/>
<path d="M80.0739 66.206C80.3939 66.096 80.8339 66.206 81.2639 66.426C81.9139 66.746 82.5639 67.506 82.9939 68.376C83.6439 69.786 83.4239 71.186 82.4539 71.296C82.1339 71.406 81.6939 71.296 81.2639 71.076C81.1539 70.966 81.0439 70.966 80.9439 70.856C80.4039 70.426 79.9739 69.776 79.6439 69.126C79.2139 68.476 79.1039 67.826 79.2139 67.286C79.3139 66.636 79.5339 66.306 80.0739 66.206ZM80.3939 69.016C80.5039 69.336 80.7139 69.556 80.9339 69.776C81.0439 69.776 81.0439 69.886 81.1539 69.886C81.3739 69.996 81.4739 69.996 81.6939 69.996C81.9139 69.996 82.0139 69.776 82.0139 69.566C82.0139 69.356 82.0139 69.026 81.9039 68.696C81.6839 68.266 81.4739 68.046 81.1439 67.826C80.9239 67.716 80.8239 67.716 80.6039 67.716C80.3839 67.716 80.2839 67.936 80.2839 68.146C80.2839 68.356 80.2839 68.686 80.3939 69.016Z" fill="#B2B2B2"/>
<path d="M60.8239 70.856C61.3639 71.176 62.0139 71.826 62.3339 72.696C62.6539 73.346 62.7639 73.996 62.6539 74.426C62.5439 74.856 62.2239 75.186 61.8939 75.296C61.5739 75.406 61.2439 75.296 60.8139 75.076C60.7039 74.966 60.5939 74.966 60.4939 74.856C59.9539 74.426 59.5239 73.886 59.3039 73.236C58.6539 71.936 58.8739 70.746 59.7339 70.536C60.0639 70.526 60.4939 70.636 60.8239 70.856ZM59.9539 73.126C60.0639 73.446 60.2739 73.776 60.6039 74.096C60.7139 74.096 60.7139 74.096 60.8239 74.206C61.0439 74.316 61.2539 74.426 61.4739 74.316C61.6939 74.316 61.7939 74.096 61.9039 73.776C62.0139 73.456 61.9039 73.126 61.6839 72.696C61.4639 72.266 61.1439 71.826 60.8139 71.726C60.6039 71.606 60.3839 71.506 60.1739 71.506C59.7339 71.606 59.6339 72.366 59.9539 73.126Z" fill="#32B0E7"/>
<path d="M60.8239 71.7161C60.6039 71.6061 60.3839 71.5061 60.1739 71.5061C59.7439 71.6161 59.6339 72.3761 59.9539 73.1261C60.0639 73.4461 60.2739 73.7761 60.6039 74.0961C60.7139 74.0961 60.7139 74.0961 60.8239 74.2061C61.0439 74.3161 61.2539 74.4261 61.4739 74.3161C61.6939 74.3161 61.7939 74.0961 61.9039 73.7761C62.0139 73.4561 61.9039 73.1261 61.6839 72.6961C61.4639 72.2561 61.1439 71.8261 60.8239 71.7161Z" fill="#50E6FF"/>
<path d="M76.7139 85.5659C77.2539 85.8859 77.9039 86.5359 78.2239 87.4059C78.5439 88.0559 78.6539 88.7059 78.5439 89.1359C78.4339 89.6759 78.2239 90.0059 77.7839 90.1059C77.4639 90.2159 77.1339 90.1059 76.7039 89.8859C76.5939 89.7759 76.4839 89.7759 76.3839 89.6659C75.8439 89.2359 75.5139 88.6959 75.1939 88.0459C74.6539 86.7459 74.8739 85.5559 75.6239 85.3459C76.0639 85.2359 76.3939 85.3459 76.7139 85.5659ZM75.8539 87.8359C76.0739 88.1559 76.2839 88.4859 76.5039 88.7059C76.6139 88.8159 76.6139 88.8159 76.7239 88.8159C76.9439 88.9259 77.1539 89.0359 77.3739 88.9259C77.5939 88.8159 77.8039 88.7059 77.8039 88.3859C77.9139 88.0659 77.8039 87.7359 77.5839 87.3059C77.3639 86.8759 77.0439 86.4359 76.7139 86.2259C76.4939 86.1159 76.2839 86.0059 76.0639 86.1159C75.6339 86.4259 75.5239 87.0759 75.8539 87.8359Z" fill="#32B0E7"/>
<path d="M76.7139 86.4261C76.4939 86.3161 76.2839 86.2061 76.0639 86.3161C75.5239 86.4261 75.4139 87.1861 75.7439 87.9361C75.9639 88.2561 76.1739 88.5861 76.3939 88.8061C76.5039 88.9161 76.5039 88.9161 76.6139 88.9161C76.8339 89.0261 77.0439 89.1361 77.2639 89.0261C77.4839 88.9161 77.6939 88.8061 77.6939 88.4861C77.8039 88.1661 77.6939 87.8361 77.4739 87.4061C77.4739 87.0761 77.1539 86.6461 76.7139 86.4261Z" fill="#50E6FF"/>
<path d="M92.4039 99.7261C92.9439 100.046 93.5939 100.696 93.9139 101.566C94.2339 102.216 94.3439 102.866 94.2339 103.296C94.1239 103.836 93.9139 104.166 93.4739 104.266C93.1539 104.376 92.8239 104.266 92.3939 104.046C92.2839 103.936 92.1739 103.936 92.0739 103.826C91.5339 103.396 91.2039 102.856 90.8839 102.206C90.3439 100.906 90.5639 99.7161 91.3139 99.5061C91.6439 99.4061 91.9639 99.5161 92.4039 99.7261ZM91.4239 101.996C91.6439 102.316 91.8539 102.646 92.0739 102.866C92.1839 102.976 92.1839 102.976 92.2939 102.976C92.5139 103.086 92.7239 103.196 92.9439 103.086C93.1639 102.976 93.3739 102.866 93.3739 102.546C93.4839 102.226 93.3739 101.896 93.1539 101.466C92.9339 101.036 92.6139 100.596 92.2839 100.386C92.0639 100.276 91.8539 100.166 91.6339 100.276C91.2139 100.596 91.1039 101.246 91.4239 101.996Z" fill="#32B0E7"/>
<path d="M92.4039 100.596C92.1839 100.486 91.9739 100.376 91.7539 100.486C91.2139 100.596 91.1039 101.356 91.4339 102.106C91.6539 102.426 91.8639 102.756 92.0839 102.976C92.1939 103.086 92.1939 103.086 92.3039 103.086C92.5239 103.196 92.7339 103.306 92.9539 103.196C93.1739 103.086 93.3839 102.976 93.3839 102.656C93.4939 102.336 93.3839 102.006 93.1639 101.576C93.0439 101.136 92.7239 100.806 92.4039 100.596Z" fill="#50E6FF"/>
<path d="M106.024 97.7861C106.564 98.1061 107.214 98.7561 107.534 99.6261C107.854 100.276 107.964 100.926 107.854 101.356C107.744 101.896 107.534 102.226 107.094 102.326C106.774 102.436 106.444 102.326 106.014 102.106C105.904 101.996 105.794 101.996 105.694 101.886C105.154 101.456 104.824 100.916 104.504 100.266C103.964 98.9661 104.184 97.7761 104.934 97.5661C105.264 97.4561 105.704 97.5661 106.024 97.7861ZM105.164 100.166C105.384 100.486 105.594 100.816 105.814 101.036C105.924 101.146 105.924 101.146 106.034 101.146C106.254 101.256 106.464 101.366 106.684 101.256C106.904 101.146 107.114 101.036 107.114 100.716C107.224 100.396 107.114 100.066 106.894 99.6361C106.674 99.2061 106.354 98.7661 106.024 98.5561C105.804 98.4461 105.594 98.3361 105.374 98.4461C104.944 98.6461 104.834 99.2961 105.164 100.166Z" fill="#32B0E7"/>
<path d="M106.024 98.646C105.804 98.536 105.594 98.426 105.374 98.536C104.834 98.646 104.724 99.406 105.054 100.156C105.274 100.476 105.484 100.806 105.704 101.026C105.814 101.136 105.814 101.136 105.924 101.136C106.144 101.246 106.354 101.356 106.574 101.246C106.794 101.136 107.004 101.026 107.004 100.706C107.114 100.386 107.004 100.056 106.784 99.626C106.674 99.296 106.354 98.866 106.024 98.646Z" fill="#50E6FF"/>
<path d="M114.134 115.086C114.674 115.406 115.324 116.056 115.644 116.926C115.964 117.576 116.074 118.226 115.964 118.656C115.854 119.196 115.644 119.526 115.204 119.626C114.884 119.736 114.554 119.626 114.124 119.406C114.014 119.296 113.804 119.186 113.694 119.186C113.154 118.756 112.824 118.216 112.504 117.566C111.964 116.266 112.184 115.076 112.934 114.866C113.384 114.866 113.704 114.866 114.134 115.086ZM113.164 117.466C113.384 117.786 113.594 118.116 113.814 118.336C113.924 118.446 113.924 118.446 114.034 118.446C114.254 118.556 114.464 118.666 114.684 118.556C114.904 118.446 115.114 118.336 115.114 118.016C115.224 117.696 115.114 117.366 114.894 116.936C114.674 116.506 114.354 116.066 114.024 115.856C113.804 115.746 113.594 115.636 113.374 115.746C112.944 115.946 112.844 116.706 113.164 117.466Z" fill="#32B0E7"/>
<path d="M114.134 115.946C113.914 115.836 113.704 115.726 113.484 115.836C112.944 115.946 112.834 116.706 113.164 117.456C113.384 117.776 113.594 118.106 113.814 118.326C113.924 118.436 113.924 118.436 114.034 118.436C114.254 118.546 114.464 118.656 114.684 118.546C114.904 118.436 115.114 118.326 115.114 118.006C115.224 117.686 115.114 117.356 114.894 116.926C114.784 116.596 114.464 116.166 114.134 115.946Z" fill="#50E6FF"/>
<path d="M78.4238 96.3859C79.0738 96.7659 79.6238 97.7059 79.6238 98.5059L79.4338 136.816L77.0038 135.406L77.1938 97.0959C77.1938 96.3259 77.7538 96.0059 78.4238 96.3859Z" fill="#50E6FF"/>
<path d="M83.2738 89.676C83.9438 90.076 84.5138 91.016 84.4938 91.796L84.3638 139.646L81.9138 138.216L82.0438 90.386C82.0338 89.586 82.5838 89.276 83.2738 89.676Z" fill="#50E6FF"/>
<path d="M87.7837 89.9459C88.4337 90.3259 88.9837 91.2659 88.9837 92.0259L88.8337 142.246L86.4037 140.836L86.5537 90.6159C86.5637 89.8659 87.1137 89.5459 87.7837 89.9459Z" fill="#50E6FF"/>
<path d="M96.6937 126.606C97.3437 126.986 97.8937 127.926 97.8937 128.726L97.8337 147.456L95.4037 146.046L95.4637 127.316C95.4537 126.516 96.0237 126.206 96.6937 126.606Z" fill="#50E6FF"/>
<path d="M55.7637 116.156C56.4337 116.556 57.0037 117.496 57.0037 118.256L56.9837 123.856L54.5537 122.446L54.5737 116.846C54.5637 116.096 55.1137 115.776 55.7637 116.156Z" fill="#50E6FF"/>
<path d="M51.2337 116.366C51.9037 116.766 52.4737 117.706 52.4737 118.466V121.236L50.0437 119.826V117.056C50.0337 116.306 50.5837 115.986 51.2337 116.366Z" fill="#50E6FF"/>
<path d="M101.224 145.226C101.894 145.626 102.464 146.566 102.464 147.326V150.096L100.014 148.666V145.896C99.9837 145.156 100.554 144.846 101.224 145.226Z" fill="#50E6FF"/>
<path d="M92.2037 114.146C92.8737 114.546 93.4437 115.486 93.4437 116.246L93.3637 144.846L90.9337 143.436L91.0137 114.836C90.9937 114.086 91.5537 113.766 92.2037 114.146Z" fill="#50E6FF"/>
<path d="M73.7938 103.516C74.4638 103.916 75.0338 104.856 75.0138 105.616L74.9338 134.216L72.5038 132.806L72.5838 104.206C72.5738 103.446 73.1438 103.136 73.7938 103.516Z" fill="#50E6FF"/>
<path d="M69.3237 94.3459C69.9737 94.7259 70.5237 95.6659 70.5237 96.4259L70.4237 131.616L67.9937 130.206L68.0937 95.0159C68.1137 94.2859 68.6537 93.9759 69.3237 94.3459Z" fill="#50E6FF"/>
<path d="M64.7937 107.726C65.4637 108.126 66.0337 109.066 66.0337 109.846L65.9737 129.036L63.5437 127.626L63.6037 108.436C63.5837 107.666 64.1437 107.346 64.7937 107.726Z" fill="#50E6FF"/>
<path d="M60.3137 100.406C60.9637 100.786 61.5137 101.726 61.5137 102.526L61.4537 126.436L59.0237 125.036L59.0837 101.126C59.0737 100.346 59.6437 100.036 60.3137 100.406Z" fill="#50E6FF"/>
<path d="M105.714 149.206C106.384 149.606 106.954 150.546 106.954 151.326V152.686L104.524 151.286V149.926C104.514 149.146 105.064 148.826 105.714 149.206Z" fill="#50E6FF"/>
<path d="M70.724 119.526L70.674 142.636L37.654 124.806L37.704 101.696L70.724 119.526Z" fill="#185A97"/>
<path d="M70.724 119.526L72.154 118.726V141.836L70.664 142.636L70.724 119.526Z" fill="#1A2C45"/>
<path d="M37.7039 101.696L39.1339 100.896L72.1539 118.726L70.7239 119.526L37.7039 101.696Z" fill="#175A98"/>
<path d="M41.2339 110.126V111.246L48.6339 115.376V114.216L41.2339 110.126Z" fill="white"/>
<path d="M41.234 120.696L41.184 121.866L48.634 125.976V124.836L41.234 120.696Z" fill="#2E76BC"/>
<path d="M41.2339 115.176V116.296L48.6339 120.426V119.276L41.2339 115.176Z" fill="#2E76BC"/>
<path d="M41.2339 112.786V113.956L48.6339 118.056V116.926L41.2339 112.786Z" fill="white"/>
<path d="M41.2339 107.466V108.576L48.6339 112.686V111.566L41.2339 107.466Z" fill="white"/>
<path d="M41.2339 117.936V119.106L48.6339 123.216V122.096L41.2339 117.936Z" fill="#2E76BC"/>
<path opacity="0.3" d="M64.344 134.566C67.084 133.026 67.084 128.086 64.324 123.516C61.574 118.956 57.114 116.496 54.364 118.036C51.624 119.576 51.624 124.516 54.384 129.086C57.144 133.656 61.604 136.106 64.344 134.566Z" fill="#1F1D20"/>
<path d="M64.0739 133.786C66.8139 132.246 66.814 127.306 64.054 122.736C61.304 118.176 56.8439 115.716 54.0939 117.256C51.3539 118.796 51.354 123.736 54.114 128.306C56.874 132.876 61.3339 135.326 64.0739 133.786Z" fill="white"/>
<path d="M59.3539 119.716C60.6539 120.436 61.7039 122.186 61.6939 123.616C61.6939 125.046 60.6339 125.616 59.334 124.896C58.034 124.176 56.9839 122.426 56.9839 120.996C57.0039 119.566 58.0539 118.986 59.3539 119.716Z" fill="url(#paint9_radial_1210_1669)"/>
<path d="M59.334 125.326C61.344 126.446 62.994 129.056 63.204 131.316C63.224 131.456 63.234 131.606 63.204 131.716C63.154 132.296 62.784 132.676 62.074 132.736C61.314 132.806 60.314 132.486 59.314 131.926C58.314 131.366 57.304 130.566 56.544 129.656C55.834 128.806 55.454 128.006 55.404 127.366C55.404 127.216 55.404 127.056 55.434 126.926C55.694 124.956 57.344 124.216 59.334 125.326Z" fill="url(#paint10_radial_1210_1669)"/>
<path d="M101.723 123.836L103.123 123.026L103.273 123.196L101.883 124.006L101.723 123.836Z" fill="#F2F1F0"/>
<path d="M101.883 124.006L103.273 123.196L103.093 140.616L101.693 141.426L101.883 124.006Z" fill="#185A97"/>
<path d="M104.393 114.526L97.9531 110.806C97.4431 110.516 97.0331 109.796 97.0331 109.216C97.0331 108.926 97.1332 108.726 97.3032 108.626L95.9032 109.436C95.7432 109.536 95.6331 109.736 95.6331 110.026C95.6331 110.606 96.0432 111.316 96.5532 111.616L102.993 115.336C103.243 115.486 103.483 115.496 103.643 115.396L105.043 114.586C104.873 114.676 104.643 114.666 104.393 114.526Z" fill="#185A97"/>
<path d="M102.553 111.146C104.183 112.086 105.503 114.366 105.493 116.236L105.473 122.616C105.463 124.486 104.143 125.236 102.513 124.296L101.723 123.836L101.873 123.996L101.683 141.416L100.013 141.866L97.2432 137.846L98.9732 136.636L97.1732 133.506L98.9432 132.416L97.2832 129.696L97.3732 121.316L96.9632 121.086C95.3332 120.146 94.0132 117.866 94.0232 115.996L94.0432 109.616C94.0532 107.746 95.3732 106.996 97.0032 107.936L102.553 111.146ZM102.993 115.336C103.503 115.626 103.913 115.386 103.913 114.816C103.913 114.236 103.503 113.526 103.003 113.236L96.5532 109.506C96.0432 109.216 95.6332 109.446 95.6332 110.026C95.6332 110.606 96.0432 111.316 96.5532 111.616L102.993 115.336Z" fill="url(#paint11_linear_1210_1669)"/>
<path d="M103.953 110.336L98.4131 107.136C97.5931 106.666 96.8531 106.616 96.3131 106.926L94.9131 107.736C95.4531 107.426 96.1931 107.466 97.0131 107.946L102.553 111.146C104.183 112.086 105.503 114.366 105.493 116.236L105.473 122.616C105.473 123.546 105.143 124.196 104.613 124.506L106.013 123.696C106.543 123.386 106.873 122.736 106.873 121.806L106.893 115.426C106.903 113.556 105.583 111.276 103.953 110.336Z" fill="#185A97"/>
<defs>
<linearGradient id="paint0_linear_1210_1669" x1="90.526" y1="10.1489" x2="90.526" y2="181.549" gradientUnits="userSpaceOnUse">
<stop stop-color="#00ABDE"/>
<stop offset="1" stop-color="#007ED8"/>
</linearGradient>
<linearGradient id="paint1_linear_1210_1669" x1="36.6458" y1="4.94024" x2="203.323" y2="287.271" gradientUnits="userSpaceOnUse">
<stop stop-color="#007ED8"/>
<stop offset="0.7065" stop-color="#002D4C"/>
</linearGradient>
<linearGradient id="paint2_linear_1210_1669" x1="90.2537" y1="-2.41148" x2="94.2971" y2="121.353" gradientUnits="userSpaceOnUse">
<stop offset="0.474" stop-color="#50E6FF"/>
<stop offset="1" stop-color="#0078D4"/>
</linearGradient>
<linearGradient id="paint3_linear_1210_1669" x1="76.1976" y1="101.013" x2="105.31" y2="154.24" gradientUnits="userSpaceOnUse">
<stop stop-color="#75D0EB"/>
<stop offset="1" stop-color="#2F76BC"/>
</linearGradient>
<linearGradient id="paint4_linear_1210_1669" x1="78.0833" y1="103.215" x2="104.407" y2="151.342" gradientUnits="userSpaceOnUse">
<stop stop-color="#75D0EB"/>
<stop offset="1" stop-color="#2F76BC"/>
</linearGradient>
<linearGradient id="paint5_linear_1210_1669" x1="79.5489" y1="105.756" x2="103.08" y2="148.779" gradientUnits="userSpaceOnUse">
<stop stop-color="#75D0EB"/>
<stop offset="1" stop-color="#2F76BC"/>
</linearGradient>
<linearGradient id="paint6_linear_1210_1669" x1="80.9952" y1="108.253" x2="101.774" y2="146.245" gradientUnits="userSpaceOnUse">
<stop stop-color="#75D0EB"/>
<stop offset="1" stop-color="#2F76BC"/>
</linearGradient>
<linearGradient id="paint7_linear_1210_1669" x1="82.2875" y1="110.685" x2="100.368" y2="143.742" gradientUnits="userSpaceOnUse">
<stop stop-color="#75D0EB"/>
<stop offset="1" stop-color="#2F76BC"/>
</linearGradient>
<linearGradient id="paint8_linear_1210_1669" x1="83.6574" y1="113.161" x2="98.9707" y2="141.159" gradientUnits="userSpaceOnUse">
<stop stop-color="#75D0EB"/>
<stop offset="1" stop-color="#2F76BC"/>
</linearGradient>
<radialGradient id="paint9_radial_1210_1669" cx="0" cy="0" r="1" gradientUnits="userSpaceOnUse" gradientTransform="translate(56.3392 121.2) scale(16.7427 16.1261)">
<stop stop-color="#4FC2EB"/>
<stop offset="0.585" stop-color="#2E76BC"/>
</radialGradient>
<radialGradient id="paint10_radial_1210_1669" cx="0" cy="0" r="1" gradientUnits="userSpaceOnUse" gradientTransform="translate(56.3392 121.2) scale(16.7427 16.126)">
<stop stop-color="#4FC2EB"/>
<stop offset="0.585" stop-color="#2E76BC"/>
</radialGradient>
<linearGradient id="paint11_linear_1210_1669" x1="85.7512" y1="116.125" x2="151.082" y2="159.778" gradientUnits="userSpaceOnUse">
<stop offset="0.103" stop-color="white"/>
<stop offset="1" stop-color="#96D8EC"/>
</linearGradient>
</defs>
</svg>
