<?xml version="1.0" encoding="UTF-8"?>
<svg width="100px" height="100px" viewBox="0 0 100 100" version="1.1" xmlns="http://www.w3.org/2000/svg" xmlns:xlink="http://www.w3.org/1999/xlink">
    <!-- Generator: Sketch 51.3 (57544) - http://www.bohemiancoding.com/sketch -->
    <title>migrate-your-sql-server-relational-data-to-azure-sql</title>
    <desc>Created with Sketch.</desc>
    <defs>
        <filter x="-1.8%" y="-1.2%" width="103.6%" height="104.9%" filterUnits="objectBoundingBox" id="filter-1">
            <feOffset dx="0" dy="2" in="SourceAlpha" result="shadowOffsetOuter1"></feOffset>
            <feColorMatrix values="0 0 0 0 0   0 0 0 0 0   0 0 0 0 0  0 0 0 0.10193048 0" type="matrix" in="shadowOffsetOuter1" result="shadowMatrixOuter1"></feColorMatrix>
            <feMerge>
                <feMergeNode in="shadowMatrixOuter1"></feMergeNode>
                <feMergeNode in="SourceGraphic"></feMergeNode>
            </feMerge>
        </filter>
    </defs>
    <g id="Badges-FINAL" stroke="none" stroke-width="1" fill="none" fill-rule="evenodd">
        <g id="Working-with-Relational-Data-in-Azure" transform="translate(-576.000000, -586.000000)">
            <g id="migrate-your-sql-server-relational-data-to-azure-sql" transform="translate(576.000000, 586.000000)">
                <rect id="BG" fill="#55A2FF" x="2" y="2" width="96" height="96" rx="48"></rect>
                <path d="M25.9679221,55.2655883 L17.0641559,55.2655883 C14.0638686,55.2655883 11.6229654,52.8246851 11.6229654,49.8243978 C11.6229654,46.8241105 14.0638686,44.3832073 17.0641559,44.3832073 C17.3394999,44.3832073 17.6162932,44.4080835 17.9133773,44.460497 C18.9654809,40.8962353 22.2111609,38.4473632 25.9679221,38.4473632 C30.6048155,38.4473632 34.3770346,42.2195823 34.3770346,46.8564757 C34.3770346,51.4933692 30.6048155,55.2655883 25.9679221,55.2655883 Z" id="Cloud" fill="#FFFFFF" fill-rule="nonzero"></path>
                <g id="DataTanker" filter="url(#filter-1)" transform="translate(22.000000, 9.000000)">
                    <path d="M23.2931138,11.3951464 C22.6402075,11.3951464 22.1103126,10.8652515 22.1103126,10.2123452 L22.1103126,5.48114021 C22.1103126,4.82823392 22.6402075,4.29833897 23.2931138,4.29833897 C23.9460201,4.29833897 24.4759151,4.82823392 24.4759151,5.48114021 L24.4759151,10.2123452 C24.4759151,10.8652515 23.9460201,11.3951464 23.2931138,11.3951464" id="Fill-523-Copy" fill="#30404D"></path>
                    <path d="M18.5619089,11.3951464 C17.9090026,11.3951464 17.3791076,10.8652515 17.3791076,10.2123452 L17.3791076,1.93273648 C17.3791076,1.2798302 17.9090026,0.749935242 18.5619089,0.749935242 C19.2148151,0.749935242 19.7447101,1.2798302 19.7447101,1.93273648 L19.7447101,10.2123452 C19.7447101,10.8652515 19.2148151,11.3951464 18.5619089,11.3951464" id="Fill-524-Copy" fill="#30404D"></path>
                    <g id="Database" transform="translate(27.681609, 28.368328) scale(1, -1) translate(-27.681609, -28.368328) translate(3.681609, 3.368328)">
                        <g id="Lower" transform="translate(6.841292, 23.560623)">
                            <path d="M17.1032302,12.3960488 C7.98676616,12.3960488 0.595373167,9.60724546 0.595373167,6.16485954 L0.595373167,14.4731119 C0.595373167,17.9154979 7.98676616,20.7043012 17.1032302,20.7043012 C26.2203821,20.7043012 33.6110873,17.9154979 33.6110873,14.4731119 L33.6110873,6.16485954 C33.6110873,9.60724546 26.2203821,12.3960488 17.1032302,12.3960488" id="Fill-101" fill="#E1E4E1"></path>
                            <path d="M17.1032302,15.1426186 L17.1032302,17.909959 C17.1032302,18.6957812 16.4532333,19.3216696 15.6732371,19.2967448 C7.22602908,19.0232648 0.595373167,16.3486999 0.595373167,13.0884032 L0.595373167,14.4731119 C0.595373167,17.9154979 7.98676616,20.7043012 17.1032302,20.7043012 C26.2203821,20.7043012 33.6110873,17.9154979 33.6110873,14.4731119 L33.6110873,7.54956828 C33.6110873,10.8237121 26.926093,13.5065853 18.4279857,13.7606793 C17.6892591,13.7828346 17.1032302,14.3983377 17.1032302,15.1426186" id="Fill-106" fill="#D3DAD8"></path>
                            <path d="M33.5223312,6.23663553 C33.5223312,9.68203019 26.1713629,12.4732711 17.1032302,12.4732711 C8.03578168,12.4732711 0.684129209,9.68203019 0.684129209,6.23663553 C0.684129209,2.79124088 8.03578168,0 17.1032302,0 C26.1713629,0 33.5223312,2.79124088 33.5223312,6.23663553" id="Fill-100" stroke="#E1E4E1" stroke-width="0.25" fill="#BAC0C2"></path>
                        </g>
                        <g id="Mid" transform="translate(6.841292, 11.780312)">
                            <path d="M17.1032302,12.4063362 C7.98676616,12.4063362 0.595373167,9.61753278 0.595373167,6.17514687 L0.595373167,14.4833993 C0.595373167,17.9257852 7.98676616,20.7145886 17.1032302,20.7145886 C26.2203821,20.7145886 33.6110873,17.9257852 33.6110873,14.4833993 L33.6110873,6.17514687 C33.6110873,9.61753278 26.2203821,12.4063362 17.1032302,12.4063362" id="Fill-102" fill="#E1E4E1"></path>
                            <path d="M17.1032302,15.1529059 L17.1032302,17.9202464 C17.1032302,18.7060686 16.4532333,19.3319569 15.6732371,19.3070321 C7.22602908,19.0335522 0.595373167,16.3589873 0.595373167,13.0986905 L0.595373167,14.4833993 C0.595373167,17.9257852 7.98676616,20.7145886 17.1032302,20.7145886 C26.2203821,20.7145886 33.6110873,17.9257852 33.6110873,14.4833993 L33.6110873,7.5598556 C33.6110873,10.8339994 26.926093,13.5168726 18.4279857,13.7709666 C17.6892591,13.793122 17.1032302,14.408625 17.1032302,15.1529059" id="Fill-107" fill="#D3DAD8"></path>
                            <path d="M33.5223312,6.23663553 C33.5223312,9.68203019 26.1713629,12.4732711 17.1032302,12.4732711 C8.03578168,12.4732711 0.684129209,9.68203019 0.684129209,6.23663553 C0.684129209,2.79124088 8.03578168,0 17.1032302,0 C26.1713629,0 33.5223312,2.79124088 33.5223312,6.23663553" id="Fill-103" stroke="#E1E4E1" stroke-width="0.25" fill="#BAC0C2"></path>
                        </g>
                        <g id="Top" transform="translate(6.841292, 0.000000)">
                            <path d="M17.1032302,12.4166235 C7.98676616,12.4166235 0.595373167,9.62782011 0.595373167,6.1854342 L0.595373167,14.4936866 C0.595373167,17.9360725 7.98676616,20.7248759 17.1032302,20.7248759 C26.2203821,20.7248759 33.6110873,17.9360725 33.6110873,14.4936866 L33.6110873,6.1854342 C33.6110873,9.62782011 26.2203821,12.4166235 17.1032302,12.4166235" id="Fill-104" fill="#E1E4E1"></path>
                            <path d="M17.1032302,15.1631933 L17.1032302,17.9305337 C17.1032302,18.7163559 16.4532333,19.3422442 15.6732371,19.3173195 C7.22602908,19.0438395 0.595373167,16.3692746 0.595373167,13.1089779 L0.595373167,14.4936866 C0.595373167,17.9360725 7.98676616,20.7248759 17.1032302,20.7248759 C26.2203821,20.7248759 33.6110873,17.9360725 33.6110873,14.4936866 L33.6110873,7.57014293 C33.6110873,10.8442867 26.926093,13.5271599 18.4279857,13.781254 C17.6892591,13.8034093 17.1032302,14.4189123 17.1032302,15.1631933" id="Fill-108" fill="#D3DAD8"></path>
                            <path d="M33.5223312,6.23663553 C33.5223312,9.68203019 26.1713629,12.4732711 17.1032302,12.4732711 C8.03578168,12.4732711 0.684129209,9.68203019 0.684129209,6.23663553 C0.684129209,2.79124088 8.03578168,0 17.1032302,0 C26.1713629,0 33.5223312,2.79124088 33.5223312,6.23663553" id="Fill-105" stroke="#E1E4E1" stroke-width="0.25" fill="#C4CBCD"></path>
                        </g>
                    </g>
                    <g id="Tanker" transform="translate(0.819890, 6.177223)">
                        <path d="M26.6135435,28.6166933 L1.37034934,36.8963019 C0.7585024,37.1825398 0.298114621,37.711252 0.102179352,38.3487819 C-0.0937559165,38.9874945 -0.00600576544,39.6770677 0.342590725,40.2495435 L7.2123457,51.5169081 L7.2123457,65.0540683 C7.2123457,66.0215997 7.81097002,66.8909586 8.72333118,67.2505302 L26.7541841,74.3473377 C27.0414757,74.4597038 27.344394,74.5164782 27.6473124,74.5164782 L27.6473124,28.3872298 C27.2939077,28.3872298 26.9405029,28.4629291 26.6135435,28.6166933" id="Fill-529" fill="#546670"></path>
                        <path d="M54.308319,38.3487819 C54.1155224,37.711252 53.6625096,37.1825398 53.0604637,36.8963019 L28.2216376,28.6166933 C27.8999157,28.4629291 27.5521721,28.3872298 27.2044286,28.3872298 L27.2044286,68.6852681 C27.2044286,70.3506523 25.5283992,71.4944211 23.976564,70.887644 L7.09680745,64.2828819 L7.09680745,65.0540683 C7.09680745,66.0215997 7.68584247,66.8909586 8.58358861,67.2505302 L26.3256072,74.3473377 C26.6082967,74.4597038 26.9063627,74.5164782 27.2044286,74.5164782 C27.5024945,74.5164782 27.8005604,74.4597038 28.0832499,74.3473377 L45.8252685,67.2505302 C46.7230147,66.8909586 47.3120497,66.0215997 47.3120497,65.0540683 L47.3120497,51.5169081 L54.0717588,40.2495435 C54.4147711,39.6770677 54.4999328,38.9874945 54.308319,38.3487819" id="Fill-530" fill="#30404D"></path>
                        <path d="M18.9248199,39.032441 C18.9248199,40.989977 19.983427,42.5808447 21.2904224,42.5808447 C22.5962349,42.5808447 23.6560248,40.989977 23.6560248,39.032441 C23.6560248,37.0713565 22.5962349,35.4840373 21.2904224,35.4840373 C19.983427,35.4840373 18.9248199,37.0713565 18.9248199,39.032441" id="Fill-531" fill="#30404D"></path>
                        <path d="M20.1076211,40.2152422 C20.1076211,38.2541578 21.1662282,36.6668385 22.4732236,36.6668385 C22.7015042,36.6668385 22.9179569,36.7307098 23.1273127,36.8217855 C22.6944074,36.0115666 22.0367699,35.4840373 21.2904224,35.4840373 C19.983427,35.4840373 18.9248199,37.0713565 18.9248199,39.032441 C18.9248199,40.6481475 19.6510598,41.9989065 20.6375161,42.4258978 C20.3110629,41.8179379 20.1076211,41.0562139 20.1076211,40.2152422" id="Fill-532" fill="#182A37"></path>
                        <path d="M30.7528323,39.032441 C30.7528323,40.989977 31.8114394,42.5808447 33.1184348,42.5808447 C34.4242473,42.5808447 35.4840373,40.989977 35.4840373,39.032441 C35.4840373,37.0713565 34.4242473,35.4840373 33.1184348,35.4840373 C31.8114394,35.4840373 30.7528323,37.0713565 30.7528323,39.032441" id="Fill-533" fill="#30404D"></path>
                        <path d="M31.9356335,40.2152422 C31.9356335,38.2541578 32.9954234,36.6668385 34.301236,36.6668385 C34.5295167,36.6668385 34.7459693,36.7307098 34.9553251,36.8217855 C34.5224199,36.0115666 33.8647824,35.4840373 33.1184348,35.4840373 C31.8114394,35.4840373 30.7528323,37.0713565 30.7528323,39.032441 C30.7528323,40.6481475 31.4790723,41.9989065 32.4655285,42.4258978 C32.1390753,41.8179379 31.9356335,41.0562139 31.9356335,40.2152422" id="Fill-534" fill="#182A37"></path>
                    </g>
                </g>
                <path d="M83.1293248,43.4894707 L66.2338931,43.4894707 C63.2395399,43.4894707 60.8032186,41.0531495 60.8032186,38.0587963 C60.8032186,35.7288378 62.2928828,33.6814373 64.4767018,32.9363066 C64.9324984,27.992661 69.069737,24.180406 74.0782007,24.180406 C78.9593874,24.180406 83.0630344,27.8597845 83.6502351,32.6528736 C86.4012217,32.9159777 88.5599993,35.2400409 88.5599993,38.0587963 C88.5599993,41.0531495 86.123678,43.4894707 83.1293248,43.4894707 Z" id="Cloud" fill="#FFFFFF" fill-rule="nonzero" opacity="0.900000036"></path>
                <g id="Azure-Border" stroke="#0078D4" stroke-width="4">
                    <rect x="2" y="2" width="96" height="96" rx="48"></rect>
                </g>
            </g>
        </g>
    </g>
</svg>