<?xml version="1.0" encoding="UTF-8"?>
<svg width="151px" height="161px" viewBox="0 0 151 161" version="1.1" xmlns="http://www.w3.org/2000/svg" xmlns:xlink="http://www.w3.org/1999/xlink">
    <!-- Generator: Sketch 60 (88103) - https://sketch.com -->
    <title>Migrating Cassandra and Mongo DB Workloads to Cosmos DB/migrating-casssandra-and-mongo-db-workloads-to-cosmos-db</title>
    <desc>Created with Sketch.</desc>
    <defs>
        <filter x="-5.4%" y="-5.0%" width="110.7%" height="110.0%" filterUnits="objectBoundingBox" id="filter-1">
            <feOffset dx="1" dy="1" in="SourceAlpha" result="shadowOffsetOuter1"></feOffset>
            <feColorMatrix values="0 0 0 0 0   0 0 0 0 0   0 0 0 0 0  0 0 0 0.150759397 0" type="matrix" in="shadowOffsetOuter1" result="shadowMatrixOuter1"></feColorMatrix>
            <feMerge>
                <feMergeNode in="shadowMatrixOuter1"></feMergeNode>
                <feMergeNode in="SourceGraphic"></feMergeNode>
            </feMerge>
        </filter>
        <path d="M125,150 L15,150 C6.71572875,150 1.01453063e-15,143.284271 0,135 C0,113.333333 0,91.6666667 0,70 C0,31.34 31.33998,0 70.0002438,0 C108.66002,0 140,31.34 140,70 C140,91.6666667 140,113.333333 140,135 C140,143.284271 133.284271,150 125,150 Z" id="path-2"></path>
        <linearGradient x1="50%" y1="0%" x2="50%" y2="100%" id="linearGradient-4">
            <stop stop-color="#9FDEFF" offset="0%"></stop>
            <stop stop-color="#66BAFF" offset="100%"></stop>
        </linearGradient>
        <filter x="-14.1%" y="-11.9%" width="128.2%" height="123.8%" filterUnits="objectBoundingBox" id="filter-5">
            <feOffset dx="0" dy="2" in="SourceAlpha" result="shadowOffsetOuter1"></feOffset>
            <feGaussianBlur stdDeviation="2" in="shadowOffsetOuter1" result="shadowBlurOuter1"></feGaussianBlur>
            <feColorMatrix values="0 0 0 0 0   0 0 0 0 0   0 0 0 0 0  0 0 0 0.1 0" type="matrix" in="shadowBlurOuter1" result="shadowMatrixOuter1"></feColorMatrix>
            <feMerge>
                <feMergeNode in="shadowMatrixOuter1"></feMergeNode>
                <feMergeNode in="SourceGraphic"></feMergeNode>
            </feMerge>
        </filter>
        <linearGradient x1="50%" y1="-9.93901477%" x2="50%" y2="92.7254775%" id="linearGradient-6">
            <stop stop-color="#FFFFFF" offset="0%"></stop>
            <stop stop-color="#EFEFEF" offset="100%"></stop>
        </linearGradient>
        <linearGradient x1="100%" y1="50%" x2="0%" y2="50%" id="linearGradient-7">
            <stop stop-color="#2265B2" offset="0%"></stop>
            <stop stop-color="#225496" offset="37.2782939%"></stop>
            <stop stop-color="#225496" offset="68.536212%"></stop>
            <stop stop-color="#2265B2" offset="100%"></stop>
        </linearGradient>
        <filter x="-34.4%" y="-33.3%" width="169.4%" height="166.7%" filterUnits="objectBoundingBox" id="filter-8">
            <feOffset dx="0" dy="2" in="SourceAlpha" result="shadowOffsetOuter1"></feOffset>
            <feGaussianBlur stdDeviation="2" in="shadowOffsetOuter1" result="shadowBlurOuter1"></feGaussianBlur>
            <feColorMatrix values="0 0 0 0 0   0 0 0 0 0   0 0 0 0 0  0 0 0 0.1 0" type="matrix" in="shadowBlurOuter1" result="shadowMatrixOuter1"></feColorMatrix>
            <feMerge>
                <feMergeNode in="shadowMatrixOuter1"></feMergeNode>
                <feMergeNode in="SourceGraphic"></feMergeNode>
            </feMerge>
        </filter>
        <radialGradient cx="50.0001648%" cy="5.51438126e-05%" fx="50.0001648%" fy="5.51438126e-05%" r="100.000035%" gradientTransform="translate(0.500002,0.000001),scale(0.962963,1.000000),rotate(90.000000),translate(-0.500002,-0.000001)" id="radialGradient-9">
            <stop stop-color="#00ABDE" offset="0%"></stop>
            <stop stop-color="#007ED8" offset="99.9868032%"></stop>
        </radialGradient>
        <path d="M26.6148838,10.521304 C27.8821597,15.7442726 25.8292888,21.2046081 21.4135249,24.3561559 C16.997761,27.5077037 11.0887167,27.7298179 6.44177939,24.9189267 C1.79484209,22.1080355 -0.674849674,16.8176981 0.18432135,11.5147988 C1.04349238,6.21189941 5.06232647,1.94075773 10.3668413,0.69300707 C17.609986,-1.01075641 24.8844593,3.389508 26.6148838,10.521304 Z" id="path-10"></path>
    </defs>
    <g id="Badges" stroke="none" stroke-width="1" fill="none" fill-rule="evenodd">
        <g id="Migrating-Cassandra-and-Mongo-DB-Workloads-to-Cosmos-DB" transform="translate(-24.000000, -15.000000)">
            <g id="Migrating-Cassandra-and-Mongo-DB-Workloads-to-Cosmos-DB/migrating-casssandra-and-mongo-db-workloads-to-cosmos-db" transform="translate(29.000000, 20.000000)">
                <g id="Badge-Plate" filter="url(#filter-1)">
                    <g id="BG">
                        <mask id="mask-3" fill="white">
                            <use xlink:href="#path-2"></use>
                        </mask>
                        <path stroke="#FFFFFF" stroke-width="5" d="M125,152.5 L15,152.5 C5.33501688,152.5 -2.5,144.664983 -2.5,135 C-2.5,118.75 -2.5,118.75 -2.5,102.5 C-2.5,86.25 -2.5,86.25 -2.5,70 C-2.5,29.9592423 29.959314,-2.5 70.0002438,-2.5 C110.040764,-2.5 142.5,29.9593204 142.5,70 C142.5,86.25 142.5,86.25 142.5,102.5 C142.5,118.75 142.5,118.75 142.5,135 C142.5,144.664983 134.664983,152.5 125,152.5 Z"></path>
                        <g id="Color" mask="url(#mask-3)" fill="url(#linearGradient-4)">
                            <rect id="Rectangle" x="0" y="0" width="140" height="150"></rect>
                        </g>
                    </g>
                    <path d="M125,147.5 C131.903559,147.5 137.5,141.903559 137.5,135 C137.5,118.75 137.5,118.75 137.5,102.5 C137.5,86.25 137.5,86.25 137.5,70 C137.5,32.7207412 107.279337,2.5 70.0002438,2.5 C32.7207352,2.5 2.5,32.7206685 2.5,70 C2.5,86.25 2.5,86.25 2.5,102.5 C2.5,118.75 2.5,118.75 2.5,135 C2.5,141.903559 8.09644063,147.5 15,147.5 L125,147.5 Z" id="Inner-Rim" stroke="#0078D4" stroke-width="5"></path>
                    <g id="Group-66" transform="translate(26.695238, 28.000000)">
                        <g id="Group-2" filter="url(#filter-5)" transform="translate(0.304762, 0.000000)">
                            <path d="M79.3723609,28.3705523 C76.3893032,25.4996143 72.6012635,23.596929 68.508721,22.9145802 C67.952563,9.73889142 56.7888243,-0.502916699 43.552076,0.0191004888 C33.0442136,-0.17160645 23.5555547,6.24886049 19.867548,16.0459989 C8.71890856,17.3981706 0.257631999,26.6923938 0,37.8695741 C0.503624945,50.5407819 11.1980267,60.4246622 23.9289481,59.9859423 L26.0334146,59.9859423 L64.7898864,59.9859423 L65.8172687,59.9859423 C76.1231778,59.7921039 84.5121035,51.675316 85,41.4256792 C84.9619372,36.5790925 82.9483811,31.9551538 79.4211191,28.613868" id="Fill-1" fill="url(#linearGradient-6)"></path>
                            <g id="Icon-databases-133-Azure-Database-Migration-Services" transform="translate(14.574150, 29.000000)" fill-rule="nonzero">
                                <path d="M27.9569238,18.9585202 C12.7309351,18.9585202 0.42585034,14.5089686 0.42585034,9 L0.42585034,62.0414798 C0.42585034,67.4798206 12.8552289,71.9293722 27.5840424,72 L27.9569238,72 C43.1207656,72 55.4258503,67.5504484 55.4258503,62.0414798 L55.4258503,9 C55.4258503,14.5089686 43.1207656,18.9585202 27.9569238,18.9585202 Z" id="Path" fill="url(#linearGradient-7)"></path>
                                <path d="M27.9569238,20 C12.9173758,20 0.42585034,15.5319149 0.42585034,10 C0.42585034,4.46808511 12.8552289,0 27.9569238,0 C43.0586187,0 55.4258503,4.46808511 55.4258503,10 C55.4258503,15.5319149 42.9964718,20 27.9569238,20 Z" id="Path" fill="#E8E8E8"></path>
                                <path d="M27.4553054,16 C16.4391051,16 7.42585034,13.2666667 7.42585034,10 C7.42585034,6.73333333 16.380195,4 27.4553054,4 C38.5304159,4 47.4258503,6.66666667 47.4258503,10 C47.4258503,13.2666667 38.4715057,16 27.4553054,16 Z" id="Path" fill="#1D61B3"></path>
                                <path d="M8.42585034,11.4731258 C10.3752112,13.4468937 12.7406227,15.9918921 27.4790586,15.9845954 C35.5766606,16.1451236 42.0341575,15.0704182 46.4258503,11.8478654 C40.8413003,9.78335914 33.2772431,8.86574296 27.4790586,9.03169592 C21.680386,8.85327587 14.0085224,9.3963842 8.42585034,11.4731258 Z" id="Path" fill="#1F5298"></path>
                            </g>
                            <g id="Icon-databases-121-Azure-Cosmos-DB" filter="url(#filter-8)" transform="translate(23.265646, 55.000000)">
                                <path d="M5.23435374,9 C5.12542265,9.00050526 5.0207756,8.96532727 4.94375079,8.90230701 C4.86672598,8.83928675 4.82373063,8.75366649 4.82435488,8.66454384 C4.8205062,6.55109978 2.72744913,4.83859959 0.144349256,4.83545067 C-0.0811783909,4.83545365 -0.264364851,4.6864255 -0.265646259,4.50190597 C-0.265646259,4.31664168 -0.0820850141,4.1664553 0.144349256,4.1664553 C2.72835722,4.16330397 4.82178915,2.44964451 4.82435488,0.335456156 C4.82373063,0.246333513 4.86672598,0.160713249 4.94375079,0.0976929891 C5.0207756,0.0346727292 5.12542265,-0.000505259231 5.23435374,0 C5.34327813,-0.000505259231 5.44792518,0.0346727292 5.52494999,0.0976929891 C5.6019748,0.160713249 5.64497015,0.246333513 5.6443459,0.335456156 C5.64819458,2.44890022 7.74125164,4.16140041 10.3243515,4.16454933 C10.4332793,4.16403858 10.5379263,4.19921657 10.6149511,4.26223683 C10.6919759,4.32525709 10.7349713,4.41087736 10.7343537,4.5 C10.7349713,4.58912264 10.6919759,4.67474291 10.6149511,4.73776317 C10.5379263,4.80078343 10.4332793,4.83596142 10.3243515,4.83545067 C7.74072033,4.83755194 5.64691413,6.55066507 5.6443459,8.66454384 C5.64307317,8.84937508 5.46025538,8.99895319 5.23435374,9 L5.23435374,9 Z" id="Path" fill="#FFFFFF" fill-rule="nonzero"></path>
                                <path d="M33.2343537,36 C33.0900697,36 32.9731044,35.8830037 32.9731044,35.7386815 C32.9710627,34.0946642 31.6391852,32.7624341 29.9956031,32.7603918 C29.8520395,32.7603955 29.7353719,32.6445246 29.7343537,32.5009267 C29.7343537,32.4316207 29.7618781,32.3651533 29.8108719,32.3161466 C29.8598657,32.2671398 29.9263154,32.2396082 29.9956031,32.2396082 C31.6396081,32.2385858 32.9720823,30.9057588 32.9731044,29.2613185 C32.9731044,29.1169963 33.0900697,29 33.2343537,29 C33.3786378,29 33.4956031,29.1169963 33.4956031,29.2613185 C33.4966252,30.9057588 34.8290994,32.2385858 36.4731044,32.2396082 C36.6173884,32.2396082 36.7343537,32.3566044 36.7343537,32.5009267 C36.7343537,32.6452489 36.6173884,32.7622452 36.4731044,32.7622452 C34.8295223,32.7642874 33.4976448,34.0965175 33.4956031,35.7405348 C33.4945849,35.8841328 33.3779173,36 33.2343537,36 Z" id="Path" fill="#FFFFFF" fill-rule="nonzero"></path>
                                <path d="M33.3642038,14.9810578 C34.6329287,20.0945695 32.5777106,25.4404735 28.1568977,28.5259749 C23.7360849,31.6114762 17.8202843,31.8289356 13.1680337,29.0769518 C8.51578316,26.324968 6.04326757,21.1454994 6.90342096,15.9537321 C7.76357435,10.7619647 11.7870035,6.58033269 17.0975835,5.35873095 C24.3490099,3.69067297 31.6318007,7.99872173 33.3642038,14.9810578 Z" id="Path" fill="url(#radialGradient-9)" fill-rule="nonzero"></path>
                                <g id="Clipped" transform="translate(6.734354, 5.000000)">
                                    <mask id="mask-11" fill="white">
                                        <use xlink:href="#path-10"></use>
                                    </mask>
                                    <g id="Path"></g>
                                    <g id="Group" mask="url(#mask-11)" fill="#F2F2F2" fill-rule="nonzero">
                                        <g transform="translate(-0.415385, 4.326787)" id="Path">
                                            <path d="M6.68451134,18.2770699 C7.9910102,18.3107669 9.21337807,17.6444216 9.87785283,16.5362943 C10.5423276,15.4281671 10.5444607,14.052444 9.88342547,12.9423242 C9.22239021,11.8322044 8.00209444,11.1621872 6.69549717,11.191956 C6.70612253,11.0913412 6.71125663,10.9902375 6.71087733,10.8890809 C6.69275078,8.92067159 5.06056751,7.33776512 3.06138462,7.34970123 L0.363264777,7.34970123 C-0.171085214,11.3235908 1.11253927,15.3260539 3.86774453,18.2770699 L6.68451134,18.2770699 Z"></path>
                                            <path d="M27.197253,6.81108405 C27.197253,6.77863315 27.197253,6.74618225 27.1818729,6.71589474 C26.7472718,4.40089767 25.6791459,2.2466171 24.0926575,0.485321288 C23.886838,0.403218729 23.6744474,0.338092981 23.4576765,0.290615868 C22.2879226,-0.0380017576 21.0297153,0.179823772 20.0439618,0.881610848 C19.0582084,1.58339792 18.4538325,2.69160062 18.4041947,3.88833936 C18.2582864,3.87173947 18.1116246,3.86235298 17.9647615,3.86021524 C16.1067606,3.86006928 14.5186413,5.17741637 14.2033358,6.98032303 C13.8880302,8.78322969 14.9371732,10.5477307 16.6882081,11.1595051 C17.066793,11.3055968 17.4702665,11.3790297 17.8768749,11.3759438 L22.3371219,11.3759438 C24.1280499,10.0410233 25.758618,8.50955168 27.197253,6.81108405 L27.197253,6.81108405 Z"></path>
                                        </g>
                                    </g>
                                </g>
                                <path d="M38.0621805,7.638435 C36.693165,5.42513155 33.4915407,4.5626408 29.0188432,5.20950886 C27.4864213,5.42044545 25.9719057,5.73979627 24.4873803,6.16501331 C25.665047,6.5598907 26.7834127,7.10513666 27.8130649,7.78641135 C28.3376002,7.67437212 28.864312,7.5411934 29.3692589,7.46720522 C30.1636126,7.3470842 30.9660267,7.28419883 31.769933,7.27906386 C33.3667181,7.05548875 34.9714707,7.63231929 36.033687,8.81167609 C36.8672846,10.1603749 36.1642767,12.466692 34.1053123,15.1535198 C31.2438274,18.6128304 27.7373634,21.5179635 23.7691369,23.7171228 C19.8898184,26.0687304 15.5897969,27.6908335 11.0932292,28.4988729 C7.68919085,28.9935367 5.25586929,28.4988729 4.42227166,27.1544021 C3.58867402,25.8099312 4.29168195,23.4972722 6.35064635,20.8231281 C6.60529628,20.4912383 6.66841464,20.3284643 6.95788849,19.9944605 C6.82183341,18.848406 6.84085805,17.6899823 7.01447736,16.5487254 C6.08913823,17.4495867 5.23771215,18.4193188 4.46797805,19.4490619 C1.77130058,22.9518736 1.03999822,26.101656 2.40683716,28.3149595 C3.87626719,30.2243381 6.28068211,31.2301353 8.71867305,30.9552804 C9.63041729,30.9505897 10.5405347,30.8799292 11.4414685,30.7438856 C16.2412506,29.8930089 20.833136,28.1718606 24.9770917,25.6704106 C29.2092422,23.3180341 32.9463684,20.2111399 35.9923336,16.5127883 C38.697717,13.0015208 39.4290194,9.85385241 38.0621805,7.638435 L38.0621805,7.638435 Z" id="Path" fill="#50E6FF" fill-rule="nonzero"></path>
                            </g>
                        </g>
                    </g>
                </g>
            </g>
        </g>
    </g>
</svg>