<?xml version="1.0" encoding="UTF-8"?>
<svg width="100px" height="118px" viewBox="0 0 100 118" version="1.1" xmlns="http://www.w3.org/2000/svg" xmlns:xlink="http://www.w3.org/1999/xlink">
    <!-- Generator: Sketch 59.1 (86144) - https://sketch.com -->
    <title>Migrating Open Source Workloads to Azure (DP0-70)/migrating-open-source-workloads-to-azure-dp0-70</title>
    <desc>Created with Sketch.</desc>
    <defs>
        <path d="M42.7425,1.49663266 C44.3745,0.498877554 46.1865,0 48,0 C49.8135,0 51.627,0.498877554 53.256,1.49663266 L90.591,24.3316189 C93.933,26.3773408 96,30.2031485 96,34.3529027 L96,79.6470973 C96,83.7952317 93.933,87.6242789 90.591,89.6683811 L53.256,112.504987 C51.627,113.501122 49.8135,114 48,114 C46.1865,114 44.3745,113.501122 42.7425,112.504987 L5.409,89.6683811 C2.0655,87.6242789 0,83.7952317 0,79.6470973 L0,34.3529027 C0,30.2031485 2.0655,26.3773408 5.409,24.3316189 L42.7425,1.49663266 Z" id="path-1"></path>
    </defs>
    <g id="Badges" stroke="none" stroke-width="1" fill="none" fill-rule="evenodd">
        <g id="Migrating-Open-Source-Workloads-to-Azure-(DP0-70)" transform="translate(-50.000000, -50.000000)">
            <g id="Migrating-Open-Source-Workloads-to-Azure-(DP0-70)/migrating-open-source-workloads-to-azure-dp0-70" transform="translate(50.000000, 50.000000)">
                <g id="Mask" transform="translate(2.000000, 2.000000)">
                    <g id="Hex">
                        <mask id="mask-2" fill="white">
                            <use xlink:href="#path-1"></use>
                        </mask>
                        <use id="Trophy-1" fill="#FF0000" fill-rule="evenodd" xlink:href="#path-1"></use>
                        <g id="Color/Blue" mask="url(#mask-2)" fill="#0078D4" fill-rule="evenodd">
                            <rect id="Rectangle" x="0" y="0" width="96" height="114"></rect>
                        </g>
                    </g>
                    <g id="Group" transform="translate(51.750000, 47.000000)">
                        <path d="M30,15 C30,23.283 23.283,30 15,30 C6.715,30 0,23.283 0,15 C0,6.717 6.715,0 15,0 C23.283,0 30,6.717 30,15" id="Fill-41" stroke="#E1E4E1" stroke-width="2" fill="#0078D4"></path>
                        <g id="Azure-black" transform="translate(4.500000, 5.256730)" fill="#FFFFFF">
                            <polygon id="Path" points="4.78142978 16.2853143 20.9310195 16.2869496 12.2331998 1.2117098 9.58411762 8.4901448 14.6713365 14.5421529"></polygon>
                            <polygon id="Path" points="11.5398598 0.0654094361 5.32269286 5.28181196 0 14.501272 4.80105261 14.501272 4.80105261 14.5159891"></polygon>
                        </g>
                    </g>
                    <g id="Group" transform="translate(14.250000, 42.000000)" fill-rule="nonzero">
                        <g id="Lower" transform="translate(0.000000, 21.463000)">
                            <path d="M0.522,5.497 L0.522,12.905 C0.522,15.975 7.005,18.461 15,18.461 C22.996,18.461 29.478,15.975 29.478,12.905 L29.478,5.497 C29.478,8.567 22.996,11.053 15,11.053 C7.005,11.053 0.522,8.566 0.522,5.497 Z" id="Fill-101" fill="#E1E4E1"></path>
                            <path d="M15,13.502 L15,15.97 C15,16.67 14.43,17.228 13.746,17.206 C6.337,16.962 0.522,14.578 0.522,11.67 L0.522,12.905 C0.522,15.975 7.005,18.461 15,18.461 C22.996,18.461 29.478,15.975 29.478,12.905 L29.478,6.732 C29.478,9.652 23.615,12.043 16.162,12.27 C15.514,12.29 15,12.838 15,13.502" id="Fill-106" fill="#D3DAD8"></path>
                            <path d="M29.4,5.561 C29.4,8.633 22.953,11.122 15,11.122 C7.048,11.122 0.6,8.633 0.6,5.561 C0.6,2.489 7.048,0 15,0 C22.953,0 29.4,2.489 29.4,5.561" id="Fill-100" stroke="#E1E4E1" stroke-width="0.25" fill="#BAC0C2"></path>
                        </g>
                        <g id="Mid" transform="translate(0.000000, 10.732000)">
                            <path d="M15,11.062 C7.005,11.062 0.522,8.576 0.522,5.506 L0.522,12.914 C0.522,15.984 7.005,18.47 15,18.47 C22.996,18.47 29.478,15.984 29.478,12.914 L29.478,5.506 C29.478,8.576 22.996,11.062 15,11.062" id="Fill-102" fill="#E1E4E1"></path>
                            <path d="M15,13.511 L15,15.979 C15,16.679 14.43,17.238 13.746,17.215 C6.337,16.972 0.522,14.587 0.522,11.68 L0.522,12.914 C0.522,15.984 7.005,18.47 15,18.47 C22.996,18.47 29.478,15.984 29.478,12.914 L29.478,6.741 C29.478,9.661 23.615,12.052 16.162,12.279 C15.514,12.299 15,12.848 15,13.511" id="Fill-107" fill="#D3DAD8"></path>
                            <path d="M29.4,5.561 C29.4,8.633 22.953,11.122 15,11.122 C7.048,11.122 0.6,8.633 0.6,5.561 C0.6,2.489 7.048,0 15,0 C22.953,0 29.4,2.489 29.4,5.561" id="Fill-103" stroke="#E1E4E1" stroke-width="0.25" fill="#BAC0C2"></path>
                        </g>
                        <g id="Top">
                            <path d="M15,11.071 C7.005,11.071 0.522,8.585 0.522,5.515 L0.522,12.923 C0.522,15.993 7.005,18.48 15,18.48 C22.996,18.48 29.478,15.993 29.478,12.923 L29.478,5.515 C29.478,8.585 22.996,11.071 15,11.071" id="Fill-104" fill="#E1E4E1"></path>
                            <path d="M15,13.52 L15,15.988 C15,16.688 14.43,17.247 13.746,17.225 C6.337,16.98 0.522,14.595 0.522,11.689 L0.522,12.923 C0.522,15.993 7.005,18.48 15,18.48 C22.996,18.48 29.478,15.993 29.478,12.923 L29.478,6.75 C29.478,9.67 23.615,12.062 16.162,12.288 C15.514,12.308 15,12.857 15,13.52" id="Fill-108" fill="#D3DAD8"></path>
                            <path d="M28.83,5.561 C28.83,8.633 22.638,11.122 15,11.122 C7.362,11.122 1.17,8.633 1.17,5.561 C1.17,2.489 7.362,0 15,0 C22.638,0 28.83,2.489 28.83,5.561" id="Fill-105" stroke="#E1E4E1" fill="#C4CBCD"></path>
                        </g>
                    </g>
                    <g id="Group" transform="translate(29.250000, 31.000000)" stroke="#FFFFFF" stroke-width="2.5">
                        <path d="M0.364,12.732 L0.364,2.818 C0.364,1.7134305 1.2594305,0.818 2.364,0.818 L35.347,0.818 C36.4515695,0.818 37.347,1.7134305 37.347,2.818 L37.347,12.585" id="Path-37"></path>
                        <polyline id="Path-42" points="32.397 8.775 37.351 13.162 42.268 8.692"></polyline>
                    </g>
                </g>
                <g id="Azure-Hex-Border" stroke="#0064B0" stroke-width="4">
                    <path d="M45.5618501,3.25844398 L45.5621963,3.25823359 L6.67338401,26.8942953 C3.79673288,28.6432593 2,31.9508238 2,35.5582677 L2,82.4417323 C2,86.0486597 3.79764663,89.3586805 6.67318764,91.1055853 L45.560618,114.742485 C46.9289662,115.572418 48.4546283,116 50,116 C51.5458817,116 53.0723633,115.572188 54.4362178,114.743457 L93.3268764,91.1055464 C96.2016145,89.3583456 98,86.0476286 98,82.4417323 L98,35.5582677 C98,31.9518547 96.202529,28.6435953 93.3268966,26.8944659 L54.4351916,3.25759524 C53.0721095,2.42798656 51.5462432,2 50,2 C48.4542664,2 46.9292165,2.42775755 45.5618501,3.25844398 Z"></path>
                </g>
            </g>
        </g>
    </g>
</svg>