<svg width="181" height="191" viewBox="0 0 181 191" fill="none" xmlns="http://www.w3.org/2000/svg">
<path d="M90.2425 189.102C93.3025 189.102 96.3125 188.252 98.9725 186.632L160.943 148.972C166.483 145.602 169.913 139.272 169.913 132.432V57.7221C169.913 50.9021 166.483 44.5621 160.943 41.1821L98.9725 3.52212C93.6425 0.282115 86.8225 0.302115 81.5225 3.52212L19.5525 41.2021C14.0125 44.5721 10.5625 50.9021 10.5625 57.7421V132.442C10.5625 138.202 13.0125 143.622 17.1125 147.192V147.222L81.5225 186.652C84.1625 188.252 87.1825 189.102 90.2425 189.102ZM90.8925 8.05211C92.8425 8.05211 95.3225 9.26211 97.0325 10.3121L157.793 47.5021C161.543 49.7821 163.663 56.3821 163.663 61.1321L163.033 132.432C163.033 137.182 159.832 141.452 156.082 143.732L95.6825 180.112C92.2525 182.202 89.4625 182.202 86.0225 180.112L24.8125 143.642C21.0625 141.362 18.0425 137.162 18.0425 132.432V58.7921C18.0425 54.0521 20.7725 49.1621 24.5425 46.8721L85.1225 10.3121C86.8225 9.27211 88.9425 8.05211 90.8925 8.05211Z" fill="#F2F1F0"/>
<path fill-rule="evenodd" clip-rule="evenodd" d="M98.142 11.6318C95.692 10.1318 92.972 9.38184 90.242 9.38184C87.512 9.38184 84.792 10.1418 82.342 11.6318L26.212 45.9618C21.192 49.0318 18.082 54.7818 18.082 61.0318V129.132C18.082 135.362 21.182 141.132 26.212 144.202L82.342 178.532C84.792 180.032 87.512 180.782 90.242 180.782C92.972 180.782 95.692 180.042 98.142 178.532L154.272 144.202C159.292 141.132 162.402 135.362 162.402 129.132V61.0318C162.402 54.8018 159.302 49.0518 154.272 45.9618L98.142 11.6318Z" fill="url(#paint0_linear)"/>
<path fill-rule="evenodd" clip-rule="evenodd" d="M90.242 10.8521C91.922 10.8521 93.812 11.7221 95.872 12.9721L154.342 48.5121C157.992 50.7321 160.402 55.0021 160.402 59.8321V130.312C160.402 135.132 157.992 139.412 154.342 141.632L95.882 177.172C93.922 178.362 92.002 179.112 90.252 179.112C88.502 179.112 86.582 178.362 84.622 177.172L26.142 141.642C24.132 140.412 22.682 139.212 21.702 137.602C20.722 136.002 20.082 133.782 20.082 130.322V59.8421C20.082 55.0121 22.492 50.742 26.142 48.522L84.602 12.9821C86.692 11.7321 88.552 10.8521 90.242 10.8521ZM97.952 180.602L156.412 145.062C161.332 142.072 164.392 136.452 164.392 130.322V59.8421C164.392 53.7121 161.332 48.0921 156.412 45.1021L97.952 9.56205C95.842 8.28205 93.132 6.85205 90.242 6.85205C87.342 6.85205 84.632 8.29205 82.542 9.55205H82.532L24.062 45.1021C19.142 48.0921 16.082 53.7121 16.082 59.8421V130.322C16.082 134.282 16.822 137.272 18.282 139.682C19.742 142.082 21.802 143.682 24.062 145.052L82.522 180.592C84.742 181.942 87.412 183.122 90.232 183.122C93.052 183.122 95.732 181.952 97.952 180.602Z" fill="url(#paint1_linear)"/>
<path opacity="0.15" d="M149.242 80.0021C147.012 79.6921 146.052 79.0521 143.192 77.3221C140.332 75.6021 137.042 74.6421 135.002 74.7121C132.962 74.6521 129.682 75.6021 126.812 77.3221C123.952 79.0421 122.992 79.6721 120.762 80.0021C119.372 80.2021 117.172 80.2321 115.722 80.2221C114.922 80.2121 114.262 80.8721 114.262 81.6721V97.0221C114.262 99.1921 115.412 103.962 117.762 107.282C120.112 110.592 130.252 121.042 135.312 121.042C140.362 121.042 149.882 110.602 152.242 107.282C154.592 103.972 155.742 99.1921 155.742 97.0221V81.6721C155.742 80.8721 155.082 80.2121 154.282 80.2221C152.832 80.2321 150.632 80.2121 149.242 80.0021Z" fill="#1F1D20"/>
<path d="M134.382 117.782C129.302 117.782 119.102 107.362 116.642 103.912C114.222 100.512 113.092 95.6924 113.092 93.5124V78.1724C113.092 77.2324 113.852 76.4724 114.792 76.4724H115.322C116.682 76.4724 118.572 76.4324 119.802 76.2524C121.852 75.9624 122.792 75.4024 125.292 73.8924L125.762 73.6124C128.402 72.0224 131.662 70.9624 133.882 70.9624H134.272C136.492 70.9624 139.742 72.0324 142.392 73.6124L142.862 73.8924C145.362 75.3924 146.292 75.9624 148.352 76.2524C149.592 76.4324 151.472 76.4724 152.832 76.4724H153.352C154.292 76.4724 155.062 77.2324 155.062 78.1724V93.5224C155.062 95.7024 153.932 100.512 151.512 103.922C149.492 106.732 139.742 117.782 134.382 117.782Z" fill="url(#paint2_linear)"/>
<path d="M134.262 71.2122C136.312 71.2122 139.482 72.1622 142.252 73.8322C145.112 75.5522 146.072 76.1822 148.302 76.5122C149.542 76.6922 151.412 76.7322 152.822 76.7322C153.002 76.7322 153.172 76.7322 153.342 76.7322H153.352C154.152 76.7322 154.802 77.3822 154.802 78.1822V93.5322C154.802 95.7022 153.652 100.472 151.302 103.792C148.952 107.102 139.422 117.552 134.372 117.552C129.322 117.552 119.192 107.112 116.822 103.792C114.472 100.482 113.322 95.7022 113.322 93.5322V78.1722C113.322 77.3722 113.972 76.7222 114.772 76.7222H114.782C114.952 76.7222 115.112 76.7222 115.302 76.7222C116.712 76.7222 118.592 76.6822 119.822 76.5022C122.052 76.1922 123.012 75.5522 125.872 73.8222C128.652 72.1522 131.812 71.2022 133.862 71.2022C133.932 71.2022 133.992 71.2022 134.062 71.2022C134.132 71.2122 134.202 71.2122 134.262 71.2122ZM134.262 70.7222C134.192 70.7222 134.122 70.7222 134.052 70.7222C134.012 70.7222 133.942 70.7222 133.872 70.7222C131.582 70.7222 128.352 71.7722 125.622 73.4122L125.142 73.6922C122.682 75.1722 121.762 75.7322 119.752 76.0122C118.522 76.1922 116.652 76.2322 115.302 76.2322H114.792C114.262 76.2322 113.772 76.4422 113.412 76.8022C113.052 77.1622 112.842 77.6522 112.842 78.1722V93.5222C112.842 95.7422 113.992 100.622 116.442 104.062C118.482 106.922 128.862 118.032 134.382 118.032C139.842 118.032 149.692 106.912 151.712 104.062C154.162 100.622 155.312 95.7322 155.312 93.5222V78.1722C155.312 77.1022 154.442 76.2322 153.372 76.2322H152.842C151.492 76.2322 149.612 76.1922 148.392 76.0122C146.392 75.7322 145.472 75.1722 143.002 73.6922L142.522 73.4122C139.792 71.7722 136.562 70.7222 134.262 70.7222Z" fill="white"/>
<g opacity="0.15">
<path opacity="0.15" d="M116.871 81.8419V92.8219C116.871 93.0719 117.081 93.2719 117.321 93.2719H132.691C132.911 93.2719 133.081 93.0919 133.081 92.8819V77.4519C133.081 77.0119 132.691 76.6819 132.261 76.7419C131.421 76.8919 130.041 77.2119 128.701 77.9219C126.541 79.0619 125.261 80.2019 122.471 80.7019C120.541 81.0519 118.591 81.1119 117.571 81.1219C117.191 81.1319 116.871 81.4519 116.871 81.8419Z" fill="#1F1D20"/>
<path opacity="0.15" d="M151.611 81.8421V92.8221C151.611 93.0721 151.401 93.2721 151.161 93.2721H135.831C135.611 93.2721 135.441 93.0921 135.441 92.8821V76.6421C135.441 76.6421 137.681 76.8021 139.821 77.9321C141.971 79.0721 143.261 80.2121 146.051 80.7121C147.981 81.0621 149.901 81.1221 150.911 81.1321C151.301 81.1321 151.611 81.4521 151.611 81.8421Z" fill="#1F1D20"/>
<path opacity="0.15" d="M135.432 113.632V95.9422C135.432 95.7222 135.612 95.5522 135.822 95.5522H151.192C151.412 95.5522 151.552 95.7522 151.502 95.9522C151.142 97.3522 149.662 102.142 145.532 106.382C141.852 110.182 137.482 113.002 135.972 113.922C135.742 114.082 135.432 113.902 135.432 113.632Z" fill="#1F1D20"/>
<path opacity="0.15" d="M133.061 113.632V95.9422C133.061 95.7222 132.881 95.5522 132.671 95.5522H117.291C117.071 95.5522 116.931 95.7522 116.981 95.9522C117.341 97.3522 118.821 102.142 122.951 106.382C126.631 110.182 131.001 113.002 132.511 113.922C132.741 114.082 133.061 113.902 133.061 113.632Z" fill="#1F1D20"/>
</g>
<path d="M116.871 80.7421V91.7221C116.871 91.9721 117.081 92.1721 117.321 92.1721H132.691C132.911 92.1721 133.081 91.9921 133.081 91.7821V76.3421C133.081 75.9021 132.691 75.5721 132.261 75.6321C131.421 75.7821 130.041 76.1021 128.701 76.8121C126.541 77.9521 125.261 79.0921 122.471 79.5921C120.541 79.9421 118.591 80.0021 117.571 80.0121C117.191 80.0321 116.871 80.3421 116.871 80.7421Z" fill="white"/>
<path d="M151.611 80.7422V91.7222C151.611 91.9722 151.401 92.1722 151.161 92.1722H135.831C135.611 92.1722 135.441 91.9922 135.441 91.7822V75.5322C135.441 75.5322 137.681 75.6922 139.821 76.8222C141.971 77.9622 143.261 79.1022 146.051 79.6022C147.981 79.9522 149.901 80.0122 150.911 80.0222C151.301 80.0322 151.611 80.3422 151.611 80.7422Z" fill="white"/>
<path d="M135.432 112.522V94.8421C135.432 94.6221 135.612 94.4521 135.822 94.4521H151.192C151.412 94.4521 151.552 94.6521 151.502 94.8521C151.142 96.2521 149.662 101.042 145.532 105.282C141.852 109.082 137.482 111.902 135.972 112.822C135.742 112.972 135.432 112.802 135.432 112.522Z" fill="white"/>
<path d="M133.061 112.522V94.8421C133.061 94.6221 132.881 94.4521 132.671 94.4521H117.291C117.071 94.4521 116.931 94.6521 116.981 94.8521C117.341 96.2521 118.821 101.042 122.951 105.282C126.631 109.082 131.001 111.902 132.511 112.822C132.741 112.972 133.061 112.802 133.061 112.522Z" fill="white"/>
<path fill-rule="evenodd" clip-rule="evenodd" d="M96.4043 67.0766L84.7766 77.9954L73.0873 77.8054L60.1114 90.0485L49.5012 78.1655L36.9895 78.3521L36.9746 77.3522L49.9429 77.1588L60.1727 88.6158L72.6968 76.7989L84.3875 76.9889L95.7198 66.3477L96.4043 67.0766Z" fill="#D5F9FD"/>
<path fill-rule="evenodd" clip-rule="evenodd" d="M96.0297 77.1025C96.2126 77.181 96.3316 77.3605 96.3326 77.5595L96.3926 89.5595C96.394 89.8357 96.1712 90.0606 95.8951 90.062C95.6189 90.0634 95.394 89.8407 95.3926 89.5645L95.3383 78.7144L83.6154 89.756C83.5178 89.8479 83.3873 89.8968 83.2533 89.8917L72.5566 89.4799L60.714 100.928L60.7101 100.932L49.134 112.368C49.0417 112.459 48.9176 112.511 48.7878 112.512L36.3978 112.642C36.1217 112.645 35.8955 112.423 35.8926 112.147C35.8897 111.871 36.1112 111.645 36.3873 111.642L48.5751 111.514L60.015 100.213L72.0151 88.6125C72.1131 88.5178 72.2456 88.4672 72.3818 88.4724L83.0823 88.8843L95.4898 77.1981C95.6347 77.0616 95.8467 77.024 96.0297 77.1025Z" fill="white"/>
<path d="M62.9129 123.552C62.9129 122.112 61.7529 120.952 60.3129 120.952C58.8729 120.952 57.7129 122.112 57.7129 123.552C57.7129 124.992 58.8729 126.152 60.3129 126.152C61.7329 126.162 62.9129 124.982 62.9129 123.552Z" fill="url(#paint3_linear)"/>
<path d="M74.4129 123.552C74.4129 122.112 73.2529 120.952 71.8129 120.952C70.3729 120.952 69.2129 122.112 69.2129 123.552C69.2129 124.992 70.3729 126.152 71.8129 126.152C73.2529 126.162 74.4129 124.982 74.4129 123.552Z" fill="url(#paint4_linear)"/>
<path d="M39.1316 123.552C39.1316 122.112 37.9716 120.952 36.5316 120.952C35.0916 120.952 33.9316 122.112 33.9316 123.552C33.9316 124.992 35.0916 126.152 36.5316 126.152C37.9516 126.162 39.1316 124.982 39.1316 123.552Z" fill="#3BCAF4"/>
<path d="M51.452 123.552C51.452 122.112 50.292 120.952 48.852 120.952C47.412 120.952 46.252 122.112 46.252 123.552C46.252 124.992 47.412 126.152 48.852 126.152C50.292 126.152 51.452 124.982 51.452 123.552Z" fill="#3BCAF4"/>
<path d="M84.9812 123.552C84.9812 122.112 83.8212 120.952 82.3812 120.952C80.9412 120.952 79.7812 122.112 79.7812 123.552C79.7812 124.992 80.9412 126.152 82.3812 126.152C83.8212 126.162 84.9812 124.982 84.9812 123.552Z" fill="url(#paint5_linear)"/>
<path d="M92.9121 123.552C92.9121 124.992 94.0721 126.152 95.5121 126.152C96.9521 126.152 98.1121 124.992 98.1121 123.552C98.1121 122.112 96.9521 120.952 95.5121 120.952C94.0721 120.952 92.9121 122.112 92.9121 123.552Z" fill="url(#paint6_linear)"/>
<path d="M62.9129 112.092C62.9129 110.652 61.7529 109.492 60.3129 109.492C58.8729 109.492 57.7129 110.652 57.7129 112.092C57.7129 113.532 58.8729 114.692 60.3129 114.692C61.7329 114.692 62.9129 113.532 62.9129 112.092Z" fill="#3BCAF4"/>
<path d="M75.2117 112.092C75.2117 110.652 74.0517 109.492 72.6117 109.492C71.1717 109.492 70.0117 110.652 70.0117 112.092C70.0117 113.532 71.1717 114.692 72.6117 114.692C74.0517 114.692 75.2117 113.532 75.2117 112.092Z" fill="url(#paint7_linear)"/>
<path d="M39.1316 112.092C39.1316 110.652 37.9716 109.492 36.5316 109.492C35.0916 109.492 33.9316 110.652 33.9316 112.092C33.9316 113.532 35.0916 114.692 36.5316 114.692C37.9516 114.692 39.1316 113.532 39.1316 112.092Z" fill="#3BCAF4"/>
<path d="M51.452 112.092C51.452 110.652 50.292 109.492 48.852 109.492C47.412 109.492 46.252 110.652 46.252 112.092C46.252 113.532 47.412 114.692 48.852 114.692C50.292 114.692 51.452 113.532 51.452 112.092Z" fill="#3BCAF4"/>
<path d="M85.782 112.092C85.782 110.652 84.622 109.492 83.182 109.492C81.742 109.492 80.582 110.652 80.582 112.092C80.582 113.532 81.742 114.692 83.182 114.692C84.622 114.692 85.782 113.532 85.782 112.092Z" fill="url(#paint8_linear)"/>
<path d="M98.1023 112.092C98.1023 110.652 96.9423 109.492 95.5023 109.492C94.0623 109.492 92.9023 110.652 92.9023 112.092C92.9023 113.532 94.0623 114.692 95.5023 114.692C96.9423 114.692 98.1023 113.532 98.1023 112.092Z" fill="url(#paint9_linear)"/>
<path d="M62.9129 100.662C62.9129 99.222 61.7529 98.062 60.3129 98.062C58.8729 98.062 57.7129 99.222 57.7129 100.662C57.7129 102.102 58.8729 103.262 60.3129 103.262C61.7329 103.252 62.9129 102.092 62.9129 100.662Z" fill="#3BCAF4"/>
<path d="M72.6118 103.272C74.0518 103.272 75.2118 102.112 75.2118 100.672C75.2118 99.2323 74.0518 98.0723 72.6118 98.0723C71.1718 98.0723 70.0118 99.2323 70.0118 100.672C70.0018 102.112 71.1618 103.272 72.6118 103.272Z" fill="#3BCAF4"/>
<path d="M39.1316 100.662C39.1316 99.222 37.9716 98.062 36.5316 98.062C35.0916 98.062 33.9316 99.222 33.9316 100.662C33.9316 102.102 35.0916 103.262 36.5316 103.262C37.9516 103.252 39.1316 102.092 39.1316 100.662Z" fill="#50E6FF"/>
<path d="M48.8422 103.272C50.2822 103.272 51.4422 102.112 51.4422 100.672C51.4422 99.2323 50.2822 98.0723 48.8422 98.0723C47.4022 98.0723 46.2422 99.2323 46.2422 100.672C46.2422 102.112 47.4022 103.272 48.8422 103.272Z" fill="#3BCAF4"/>
<path d="M85.782 100.662C85.782 99.222 84.622 98.062 83.182 98.062C81.742 98.062 80.582 99.222 80.582 100.662C80.582 102.102 81.742 103.262 83.182 103.262C84.622 103.262 85.782 102.092 85.782 100.662Z" fill="#3BCAF4"/>
<path d="M95.5121 103.272C96.9521 103.272 98.1121 102.112 98.1121 100.672C98.1121 99.2323 96.9521 98.0723 95.5121 98.0723C94.0721 98.0723 92.9121 99.2323 92.9121 100.672C92.9121 102.112 94.0721 103.272 95.5121 103.272Z" fill="url(#paint10_linear)"/>
<path d="M62.9129 89.202C62.9129 87.762 61.7529 86.6021 60.3129 86.6021C58.8729 86.6021 57.7129 87.762 57.7129 89.202C57.7129 90.642 58.8729 91.802 60.3129 91.802C61.7329 91.802 62.9129 90.632 62.9129 89.202Z" fill="#50E6FF"/>
<path d="M75.2117 89.202C75.2117 87.762 74.0517 86.6021 72.6117 86.6021C71.1717 86.6021 70.0117 87.762 70.0117 89.202C70.0117 90.642 71.1717 91.802 72.6117 91.802C74.0517 91.802 75.2117 90.632 75.2117 89.202Z" fill="#50E6FF"/>
<path d="M39.1316 89.202C39.1316 87.762 37.9716 86.6021 36.5316 86.6021C35.0916 86.6021 33.9316 87.762 33.9316 89.202C33.9316 90.642 35.0916 91.802 36.5316 91.802C37.9516 91.802 39.1316 90.632 39.1316 89.202Z" fill="#50E6FF"/>
<path d="M51.4522 89.202C51.4522 87.762 50.2922 86.6021 48.8522 86.6021C47.4122 86.6021 46.2422 87.752 46.2422 89.202C46.2422 90.652 47.4022 91.802 48.8422 91.802C50.2822 91.802 51.4522 90.632 51.4522 89.202Z" fill="#50E6FF"/>
<path d="M85.782 89.202C85.782 87.762 84.622 86.6021 83.182 86.6021C81.742 86.6021 80.582 87.762 80.582 89.202C80.582 90.642 81.742 91.802 83.182 91.802C84.622 91.802 85.782 90.632 85.782 89.202Z" fill="#50E6FF"/>
<path d="M98.1023 89.202C98.1023 87.762 96.9423 86.6021 95.5023 86.6021C94.0623 86.6021 92.9023 87.762 92.9023 89.202C92.9023 90.642 94.0623 91.802 95.5023 91.802C96.9423 91.802 98.1023 90.632 98.1023 89.202Z" fill="#50E6FF"/>
<path d="M62.9129 77.7621C62.9129 76.3221 61.7529 75.1621 60.3129 75.1621C58.8729 75.1621 57.7129 76.3221 57.7129 77.7621C57.7129 79.2021 58.8729 80.3621 60.3129 80.3621C61.7329 80.3621 62.9129 79.2021 62.9129 77.7621Z" fill="#50E6FF"/>
<path d="M75.2117 77.7621C75.2117 76.3221 74.0517 75.1621 72.6117 75.1621C71.1717 75.1621 70.0117 76.3221 70.0117 77.7621C70.0117 79.2021 71.1717 80.3621 72.6117 80.3621C74.0517 80.3621 75.2117 79.2021 75.2117 77.7621Z" fill="#50E6FF"/>
<path d="M39.1316 77.7621C39.1316 76.3221 37.9716 75.1621 36.5316 75.1621C35.0916 75.1621 33.9316 76.3221 33.9316 77.7621C33.9316 79.2021 35.0916 80.3621 36.5316 80.3621C37.9516 80.3621 39.1316 79.2021 39.1316 77.7621Z" fill="#9CEBFF"/>
<path d="M51.452 77.7621C51.452 76.3221 50.292 75.1621 48.852 75.1621C47.412 75.1621 46.252 76.3221 46.252 77.7621C46.252 79.2021 47.412 80.3621 48.852 80.3621C50.292 80.3621 51.452 79.2021 51.452 77.7621Z" fill="#9CEBFF"/>
<path d="M85.782 77.7621C85.782 76.3221 84.622 75.1621 83.182 75.1621C81.742 75.1621 80.582 76.3221 80.582 77.7621C80.582 79.2021 81.742 80.3621 83.182 80.3621C84.622 80.3621 85.782 79.2021 85.782 77.7621Z" fill="#50E6FF"/>
<path d="M98.1023 77.7621C98.1023 76.3221 96.9423 75.1621 95.5023 75.1621C94.0623 75.1621 92.9023 76.3221 92.9023 77.7621C92.9023 79.2021 94.0623 80.3621 95.5023 80.3621C96.9423 80.3621 98.1023 79.2021 98.1023 77.7621Z" fill="#50E6FF"/>
<path d="M62.9129 66.3324C62.9129 64.8924 61.7529 63.7324 60.3129 63.7324C58.8729 63.7324 57.7129 64.8924 57.7129 66.3324C57.7129 67.7724 58.8729 68.9324 60.3129 68.9324C61.7329 68.9324 62.9129 67.7624 62.9129 66.3324Z" fill="#9CEBFF"/>
<path d="M75.2117 66.3324C75.2117 64.8924 74.0517 63.7324 72.6117 63.7324C71.1717 63.7324 70.0117 64.8924 70.0117 66.3324C70.0117 67.7724 71.1717 68.9324 72.6117 68.9324C74.0517 68.9324 75.2117 67.7624 75.2117 66.3324Z" fill="#9CEBFF"/>
<path d="M39.1316 66.3324C39.1316 64.8924 37.9716 63.7324 36.5316 63.7324C35.0916 63.7324 33.9316 64.8924 33.9316 66.3324C33.9316 67.7724 35.0916 68.9324 36.5316 68.9324C37.9516 68.9324 39.1316 67.7624 39.1316 66.3324Z" fill="#9CEBFF"/>
<path d="M51.452 66.3324C51.452 64.8924 50.292 63.7324 48.852 63.7324C47.412 63.7324 46.252 64.8924 46.252 66.3324C46.252 67.7724 47.412 68.9324 48.852 68.9324C50.292 68.9324 51.452 67.7624 51.452 66.3324Z" fill="#9CEBFF"/>
<path d="M85.782 66.3324C85.782 64.8924 84.622 63.7324 83.182 63.7324C81.742 63.7324 80.582 64.8924 80.582 66.3324C80.582 67.7724 81.742 68.9324 83.182 68.9324C84.622 68.9324 85.782 67.7624 85.782 66.3324Z" fill="#9CEBFF"/>
<path d="M98.1023 66.3324C98.1023 64.8924 96.9423 63.7324 95.5023 63.7324C94.0623 63.7324 92.9023 64.8924 92.9023 66.3324C92.9023 67.7724 94.0623 68.9324 95.5023 68.9324C96.9423 68.9324 98.1023 67.7624 98.1023 66.3324Z" fill="#50E6FF"/>
<path d="M106.393 136.132H92.6426C92.0926 136.132 91.6426 135.682 91.6426 135.132C91.6426 134.582 92.0926 134.132 92.6426 134.132H105.383V55.4922H92.6426C92.0926 55.4922 91.6426 55.0422 91.6426 54.4922C91.6426 53.9422 92.0926 53.4922 92.6426 53.4922H106.383C106.933 53.4922 107.383 53.9422 107.383 54.4922V135.132C107.393 135.682 106.943 136.132 106.393 136.132Z" fill="white"/>
<path d="M39.7322 136.132H25.9922C25.4422 136.132 24.9922 135.682 24.9922 135.132V54.4922C24.9922 53.9422 25.4422 53.4922 25.9922 53.4922H39.7322C40.2822 53.4922 40.7322 53.9422 40.7322 54.4922C40.7322 55.0422 40.2822 55.4922 39.7322 55.4922H26.9922V134.132H39.7322C40.2822 134.132 40.7322 134.582 40.7322 135.132C40.7322 135.682 40.2822 136.132 39.7322 136.132Z" fill="white"/>
<path d="M90.5909 69.2822H76.2109V83.6622H90.5909V69.2822Z" fill="#50E6FF"/>
<path d="M83.5319 60.8521C74.9119 60.8521 67.9219 67.8421 67.9219 76.4621C67.9219 85.0821 74.9119 92.0721 83.5319 92.0721C92.1519 92.0721 99.1419 85.0821 99.1419 76.4621C99.1419 67.8421 92.1519 60.8521 83.5319 60.8521ZM71.2419 76.4621C71.2419 73.1821 72.5219 70.092 74.8419 67.772C77.1619 65.452 80.2519 64.1721 83.5319 64.1721C86.3019 64.1721 88.9319 65.0821 91.0819 66.7621L73.8319 84.0121C72.1519 81.8621 71.2419 79.2321 71.2419 76.4621ZM92.2219 85.1521C89.9019 87.4721 86.8119 88.7521 83.5319 88.7521C80.8619 88.7521 78.3219 87.902 76.2219 86.342L93.4119 69.1521C94.9819 71.2621 95.8219 73.7921 95.8219 76.4621C95.8219 79.7421 94.5419 82.8321 92.2219 85.1521Z" fill="url(#paint11_linear)"/>
<defs>
<linearGradient id="paint0_linear" x1="90.2419" y1="9.38114" x2="90.2419" y2="180.782" gradientUnits="userSpaceOnUse">
<stop stop-color="#00ABDE"/>
<stop offset="1" stop-color="#007ED8"/>
</linearGradient>
<linearGradient id="paint1_linear" x1="36.3615" y1="4.17235" x2="203.039" y2="286.503" gradientUnits="userSpaceOnUse">
<stop stop-color="#007ED8"/>
<stop offset="0.7065" stop-color="#002D4C"/>
</linearGradient>
<linearGradient id="paint2_linear" x1="108.288" y1="59.1747" x2="179.314" y2="140.656" gradientUnits="userSpaceOnUse">
<stop stop-color="#5FADE2"/>
<stop offset="0.4975" stop-color="#128DE1"/>
<stop offset="1" stop-color="#0078D6"/>
</linearGradient>
<linearGradient id="paint3_linear" x1="46.6269" y1="114.09" x2="154.94" y2="188.993" gradientUnits="userSpaceOnUse">
<stop stop-color="#007ED8"/>
<stop offset="0.7065" stop-color="#002D4C"/>
</linearGradient>
<linearGradient id="paint4_linear" x1="50.3477" y1="108.71" x2="158.661" y2="183.612" gradientUnits="userSpaceOnUse">
<stop stop-color="#007ED8"/>
<stop offset="0.7065" stop-color="#002D4C"/>
</linearGradient>
<linearGradient id="paint5_linear" x1="53.7657" y1="103.765" x2="162.079" y2="178.667" gradientUnits="userSpaceOnUse">
<stop stop-color="#007ED8"/>
<stop offset="0.7065" stop-color="#002D4C"/>
</linearGradient>
<linearGradient id="paint6_linear" x1="55.3243" y1="95.7583" x2="171.885" y2="176.366" gradientUnits="userSpaceOnUse">
<stop stop-color="#007ED8"/>
<stop offset="0.7065" stop-color="#002D4C"/>
</linearGradient>
<linearGradient id="paint7_linear" x1="55.9679" y1="100.583" x2="164.28" y2="175.484" gradientUnits="userSpaceOnUse">
<stop stop-color="#007ED8"/>
<stop offset="0.7065" stop-color="#002D4C"/>
</linearGradient>
<linearGradient id="paint8_linear" x1="59.3875" y1="95.6373" x2="167.701" y2="170.541" gradientUnits="userSpaceOnUse">
<stop stop-color="#007ED8"/>
<stop offset="0.7065" stop-color="#002D4C"/>
</linearGradient>
<linearGradient id="paint9_linear" x1="63.372" y1="89.8737" x2="171.685" y2="164.778" gradientUnits="userSpaceOnUse">
<stop stop-color="#007ED8"/>
<stop offset="0.7065" stop-color="#002D4C"/>
</linearGradient>
<linearGradient id="paint10_linear" x1="68.7245" y1="82.1374" x2="177.037" y2="157.04" gradientUnits="userSpaceOnUse">
<stop stop-color="#007ED8"/>
<stop offset="0.7065" stop-color="#002D4C"/>
</linearGradient>
<linearGradient id="paint11_linear" x1="55.4553" y1="55.4089" x2="99.2962" y2="88.2896" gradientUnits="userSpaceOnUse">
<stop stop-color="#007ED8"/>
<stop offset="0.7065" stop-color="#002D4C"/>
</linearGradient>
</defs>
</svg>
