<svg width="180" height="190" viewBox="0 0 180 190" fill="none" xmlns="http://www.w3.org/2000/svg">
<path d="M90.0003 189C93.0603 189 96.0703 188.15 98.7303 186.53L160.7 148.87C166.24 145.5 169.67 139.17 169.67 132.33V57.6199C169.67 50.7999 166.24 44.4599 160.7 41.0799L98.7303 3.41994C93.4003 0.179942 86.5803 0.199942 81.2803 3.41994L19.3103 41.0999C13.7703 44.4699 10.3203 50.7999 10.3203 57.6399V132.34C10.3203 138.1 12.7703 143.52 16.8703 147.09V147.12L81.2803 186.55C83.9203 188.15 86.9403 189 90.0003 189ZM90.6503 7.94994C92.6003 7.94994 95.0803 9.15994 96.7903 10.2099L157.55 47.3999C161.3 49.6799 163.42 56.2799 163.42 61.0299L162.79 132.33C162.79 137.08 159.59 141.35 155.84 143.63L95.4403 180.01C92.0103 182.1 89.2203 182.1 85.7803 180.01L24.5703 143.54C20.8203 141.26 17.8003 137.06 17.8003 132.33V58.6899C17.8003 53.9499 20.5303 49.0599 24.3003 46.7699L84.8803 10.2099C86.5803 9.16994 88.7003 7.94994 90.6503 7.94994Z" fill="#F2F1F0"/>
<path fill-rule="evenodd" clip-rule="evenodd" d="M97.8998 11.53C95.4498 10.03 92.7298 9.28003 89.9998 9.28003C87.2698 9.28003 84.5498 10.04 82.0998 11.53L25.9698 45.86C20.9498 48.93 17.8398 54.68 17.8398 60.93V129.03C17.8398 135.26 20.9398 141.03 25.9698 144.1L82.0998 178.43C84.5498 179.93 87.2698 180.68 89.9998 180.68C92.7298 180.68 95.4498 179.94 97.8998 178.43L154.03 144.1C159.05 141.03 162.16 135.26 162.16 129.03V60.93C162.16 54.7 159.06 48.95 154.03 45.86L97.8998 11.53Z" fill="url(#paint0_linear)"/>
<path fill-rule="evenodd" clip-rule="evenodd" d="M89.9998 10.75C91.6798 10.75 93.5698 11.62 95.6298 12.87L154.1 48.41C157.75 50.63 160.16 54.9 160.16 59.73V130.21C160.16 135.03 157.75 139.31 154.1 141.53L95.6398 177.07C93.6798 178.26 91.7598 179.01 90.0098 179.01C88.2598 179.01 86.3398 178.26 84.3798 177.07L25.8998 141.54C23.8898 140.31 22.4398 139.11 21.4598 137.5C20.4798 135.9 19.8398 133.68 19.8398 130.22V59.74C19.8398 54.91 22.2498 50.64 25.8998 48.42L84.3598 12.88C86.4498 11.63 88.3098 10.75 89.9998 10.75ZM97.7098 180.5L156.17 144.96C161.09 141.97 164.15 136.35 164.15 130.22V59.74C164.15 53.61 161.09 47.99 156.17 45L97.7098 9.46C95.5998 8.18 92.8898 6.75 89.9998 6.75C87.0998 6.75 84.3899 8.19 82.2999 9.45H82.2898L23.8198 45C18.8998 47.99 15.8398 53.61 15.8398 59.74V130.22C15.8398 134.18 16.5798 137.17 18.0398 139.58C19.4998 141.98 21.5598 143.58 23.8198 144.95L82.2798 180.49C84.4998 181.84 87.1698 183.02 89.9898 183.02C92.8098 183.02 95.4898 181.85 97.7098 180.5Z" fill="url(#paint1_linear)"/>
<path opacity="0.15" d="M90.0998 163.91L139.14 136.04L144.79 139.61L91.6998 170.39C90.8998 170.85 89.9098 170.85 89.1098 170.39L36.2998 139.61L42.0498 136.27L90.0998 163.91Z" fill="#1F1D20"/>
<path d="M90.4098 94.16V157.16L36.2998 125.47V62.63L90.4098 94.16Z" fill="#32B0E7"/>
<path d="M90.5698 31.1L144.79 61.97L90.4098 94.16L36.2998 62.63L90.5698 31.1Z" fill="#45CAF2"/>
<path d="M144.79 61.98V125.47L90.4102 157.16V94.16L144.79 61.98Z" fill="#156AB3"/>
<path d="M90.4102 157.16V94.16L144.79 125.47L90.4102 157.16Z" fill="#185A97"/>
<path d="M90.4098 157.16V94.16L36.2998 125.47L90.4098 157.16Z" fill="#0078D4"/>
<path d="M29.2502 127.93L28.4902 127.68C28.5702 127.44 36.4402 103.15 39.4402 95.4699C42.4802 87.6599 52.7802 67.2099 63.7602 66.4199C75.8502 65.5799 85.6402 83.1599 90.3502 91.5999L90.9202 92.6199L90.2202 93.0099L89.6502 91.9899C85.0202 83.6899 75.3902 66.3899 63.8202 67.2199C53.2502 67.9799 43.1702 88.0799 40.1902 95.7699C37.1902 103.43 29.3302 127.69 29.2502 127.93Z" fill="white"/>
<path d="M29.2702 128.71L28.4902 128.52C28.6502 127.88 32.3702 112.66 36.0802 106.62C39.8102 100.57 41.5602 98.8899 44.5602 98.4699C47.7002 98.0399 50.8302 99.7199 53.6302 103.34C55.0602 105.49 58.4302 109.68 61.4102 113.38C63.0002 115.36 64.5102 117.23 65.6102 118.65C68.8602 122.86 70.5202 123.81 74.0502 123.53C77.2102 123.27 78.8502 119.95 80.1702 117.28C80.3402 116.94 80.5002 116.61 80.6602 116.3C82.1402 113.41 88.7402 97.2699 90.3402 92.9799C91.9302 88.7299 97.1902 76.5799 99.4302 71.6199C100.88 68.5099 104.73 61.2599 109.32 60.9899C113.5 60.7399 116.23 63.4199 120.84 69.5299C122.65 71.9599 124.15 74.2699 125.47 76.3099C127.67 79.6999 129.41 82.3799 131.57 84.2199C135.15 87.2599 136.93 87.3799 139.59 86.5199C142.48 85.4999 145.77 80.7299 147.23 75.4099C148.07 73.1099 150.46 58.8299 150.48 58.6899L151.27 58.8199C151.17 59.4099 148.84 73.3099 147.99 75.6499C146.45 81.2499 143.02 86.1499 139.85 87.2699C137.02 88.1899 134.88 88.0599 131.06 84.8199C128.81 82.9099 126.95 80.0499 124.81 76.7399C123.5 74.7099 122.01 72.4199 120.21 70.0099C115.24 63.4299 112.81 61.5699 109.38 61.7899C106.5 61.9599 103.05 65.7699 100.17 71.9599C97.9402 76.9099 92.6902 89.0299 91.1002 93.2699C89.4902 97.5699 82.8702 113.76 81.3802 116.67C81.2202 116.98 81.0602 117.3 80.9002 117.64C79.4902 120.49 77.7402 124.03 74.1302 124.33C69.9702 124.67 68.0302 123.08 64.9902 119.15C63.8902 117.73 62.3902 115.86 60.8002 113.89C57.8102 110.18 54.4302 105.97 52.9902 103.82C50.3902 100.46 47.5002 98.8699 44.6802 99.2799C42.1702 99.6299 40.6002 100.86 36.7702 107.05C33.1202 112.98 29.3102 128.56 29.2702 128.71Z" fill="white"/>
<path fill-rule="evenodd" clip-rule="evenodd" d="M147.59 69.73C146.81 71.12 145.87 72.29 144.73 72.77L144.72 72.78H144.71C140.65 74.1 137.54 71.6 135.36 69.18C134.27 67.97 132.77 66.33 131.13 65C129.47 63.66 127.75 62.72 126.2 62.79C124.64 62.86 123.12 63.83 121.75 65.21C120.39 66.58 119.23 68.31 118.38 69.81C117.12 72.15 114.3 78.03 112.4 81.99C111.84 83.16 111.36 84.16 111.02 84.85C110.86 85.18 110.67 85.59 110.46 86.04C109.74 87.6 108.73 89.76 107.47 91.81C105.86 94.45 103.76 97.02 101.17 97.93C98.5303 98.85 95.8003 97.58 93.8203 96.19C92.8103 95.49 91.9603 94.73 91.3703 94.15C91.0703 93.86 90.8403 93.61 90.6703 93.44C90.5903 93.35 90.5303 93.28 90.4803 93.23C90.4603 93.21 90.4403 93.19 90.4303 93.17L90.4203 93.16C90.4203 93.16 90.4203 93.16 90.4503 93.14C90.4803 93.11 90.5603 93.05 90.7303 92.9L90.4303 93.16L90.4203 93.15C90.4103 93.14 90.4003 93.12 90.3803 93.1C90.3403 93.06 90.2803 92.99 90.2103 92.91C90.0603 92.74 89.8403 92.5 89.5703 92.22C89.0203 91.65 88.2503 90.91 87.3603 90.21C86.4703 89.51 85.4703 88.85 84.4703 88.45C83.4703 88.05 82.4903 87.91 81.6203 88.18C79.7703 88.76 78.2803 90.19 77.0203 91.94C75.9503 93.42 75.0803 95.09 74.2903 96.58C74.1503 96.85 74.0103 97.11 73.8703 97.37C73.4403 98.21 72.9203 99.21 72.3403 100.31C70.6303 103.58 68.4303 107.79 66.5803 111.79C65.3403 114.48 63.9403 117.09 62.4203 119.14C60.9003 121.18 59.2003 122.73 57.3203 123.19C55.4203 123.66 53.6703 122.99 52.1903 122C50.7803 121.06 49.5603 119.78 48.6103 118.8C48.5603 118.75 48.5203 118.7 48.4703 118.66H48.4603C48.3303 118.52 48.2003 118.38 48.0703 118.23C47.1803 117.26 46.0703 116.04 44.7503 115.02C43.2303 113.84 41.5003 112.97 39.6103 113.05C37.6503 113.12 36.3403 113.56 35.2803 114.48C34.2103 115.41 33.3503 116.88 32.3803 119.11C31.5403 121.36 30.8403 123.7 30.3603 125.49C30.1203 126.39 29.9303 127.14 29.8003 127.67C29.7403 127.93 29.6903 128.14 29.6503 128.29C29.6303 128.36 29.6203 128.42 29.6103 128.45L29.6003 128.49V128.5L29.2103 128.41C28.8203 128.32 28.8203 128.32 28.8203 128.32V128.31L28.8303 128.27C28.8403 128.23 28.8503 128.18 28.8703 128.1C28.9003 127.96 28.9503 127.74 29.0203 127.48C29.1503 126.94 29.3403 126.18 29.5903 125.28C30.0803 123.47 30.7803 121.1 31.6403 118.82V118.81V118.8C32.6103 116.55 33.5303 114.93 34.7503 113.87C35.9903 112.79 37.5003 112.32 39.5703 112.24C41.7303 112.16 43.6403 113.15 45.2303 114.38C46.6103 115.45 47.7703 116.72 48.6603 117.69C48.7903 117.84 48.9203 117.98 49.0403 118.11C49.0803 118.15 49.1203 118.19 49.1603 118.24C50.1203 119.24 51.2803 120.45 52.6203 121.35C54.0103 122.28 55.5203 122.82 57.1103 122.42C58.7203 122.03 60.2703 120.67 61.7603 118.67C63.2403 116.68 64.6003 114.13 65.8403 111.46C67.7003 107.44 69.9203 103.2 71.6303 99.93C72.2003 98.83 72.7203 97.84 73.1503 97.01V97C73.2803 96.75 73.4203 96.49 73.5603 96.22C74.3503 94.72 75.2503 93 76.3603 91.47C77.6603 89.67 79.2803 88.07 81.3703 87.41C82.4803 87.06 83.6503 87.26 84.7503 87.7C85.8503 88.14 86.9203 88.85 87.8403 89.58C88.7703 90.31 89.5603 91.08 90.1303 91.67C90.4103 91.96 90.6403 92.21 90.7903 92.39C90.8703 92.48 90.9303 92.55 90.9703 92.6C90.9903 92.62 91.0103 92.64 91.0203 92.66L91.0303 92.67L91.0403 92.68C91.0503 92.69 91.0603 92.71 91.0803 92.73C91.1203 92.77 91.1803 92.84 91.2503 92.92C91.4003 93.09 91.6303 93.32 91.9203 93.6C92.5003 94.16 93.3103 94.89 94.2703 95.56C96.2203 96.92 98.6503 97.98 100.9 97.2C103.2 96.39 105.18 94.04 106.78 91.42C108.01 89.41 108.98 87.31 109.71 85.75C109.93 85.29 110.12 84.87 110.29 84.52C110.62 83.84 111.1 82.84 111.65 81.68C113.55 77.72 116.4 71.79 117.66 69.44V69.43C118.53 67.9 119.73 66.1 121.16 64.66C122.58 63.23 124.28 62.1 126.14 62.01C128 61.92 129.93 63.04 131.61 64.39C133.31 65.76 134.84 67.45 135.93 68.66C138.08 71.05 140.87 73.19 144.42 72.04C145.29 71.67 146.12 70.71 146.87 69.36C147.62 68.02 148.26 66.37 148.78 64.76C149.3 63.15 149.7 61.59 149.96 60.44C150.09 59.86 150.2 59.38 150.26 59.05C150.29 58.88 150.32 58.75 150.34 58.67C150.35 58.63 150.35 58.59 150.36 58.57L150.37 58.54L150.76 58.61C151.15 58.68 151.15 58.68 151.15 58.68V58.69V58.72C151.15 58.74 151.14 58.78 151.13 58.82C151.11 58.91 151.09 59.04 151.05 59.21C150.98 59.55 150.88 60.03 150.74 60.62C150.47 61.79 150.07 63.37 149.54 65.01C149.04 66.63 148.38 68.33 147.59 69.73Z" fill="white"/>
<path d="M29.2698 128.33C29.2398 128.33 29.1998 128.33 29.1698 128.32C28.9598 128.26 28.8298 128.05 28.8798 127.83C28.9498 127.57 30.5798 121.39 34.2898 119.85C37.0198 118.88 38.2798 118.98 40.4798 119.76C40.9298 119.92 41.4298 120.14 41.9698 120.36C43.9698 121.21 46.4598 122.27 48.8598 121.68C51.6998 120.98 53.7198 118.12 54.9298 116.41L55.1498 116.1C55.5598 115.53 56.3798 114.23 57.3298 112.73C59.1198 109.91 61.3498 106.41 62.7698 104.59C64.8398 101.93 66.5998 100.4 69.5198 100.4C72.0498 100.4 74.4998 101.5 75.9598 102.15L76.4998 102.39C77.9498 103.04 80.3598 104.14 83.8598 101.33C86.8298 98.9599 89.9098 94.0099 91.9498 90.7299C92.5298 89.7999 93.0198 89.0099 93.3998 88.4599L93.4998 88.3C95.1798 85.78 97.2698 82.6399 100.46 81.8499C103.22 81.2099 106.02 82.3 108.06 83.08C108.36 83.2 108.65 83.31 108.93 83.41C111.08 84.21 113.42 85.0799 116.61 82.4699C119.32 80.2499 121.97 75.9599 123.72 73.1099C124.12 72.4499 124.47 71.8899 124.76 71.4599C124.95 71.1699 125.16 70.8299 125.4 70.4499C127.05 67.7899 129.82 63.3399 133.12 62.9799C136.32 62.6399 137.39 63.1399 139.74 64.2199C140.16 64.4199 140.63 64.63 141.16 64.87C144.37 66.22 144.57 66.0699 147.06 64.1699L147.2 64.0699C149.7 62.1599 150.61 58.5899 150.62 58.5499C150.67 58.3399 150.89 58.1999 151.1 58.2599C151.31 58.3099 151.44 58.5299 151.39 58.7399C151.35 58.8999 150.4 62.6199 147.68 64.6999L147.54 64.8099C144.92 66.8099 144.38 67.0999 140.84 65.6099C140.3 65.3699 139.83 65.1499 139.4 64.9499C137.06 63.8699 136.18 63.4499 133.2 63.7799C130.28 64.0899 127.65 68.34 126.07 70.87C125.83 71.26 125.61 71.6099 125.42 71.8999C125.14 72.3199 124.79 72.8899 124.4 73.5299C122.62 76.4199 119.93 80.7799 117.11 83.0899C113.57 85.9999 110.89 84.9999 108.74 84.1999C108.38 84.0699 108.08 83.95 107.77 83.83C105.72 83.04 103.16 82.0499 100.65 82.6299C97.7698 83.3499 95.8598 86.2099 94.1698 88.7399L94.0598 88.9C93.6798 89.45 93.1998 90.2299 92.6298 91.1499C90.5598 94.4699 87.4398 99.4899 84.3598 101.95C80.4798 105.06 77.6798 103.79 76.1698 103.11L75.6298 102.87C74.2298 102.24 71.8798 101.19 69.5198 101.19C67.1998 101.19 65.6598 102.17 63.3998 105.07C62.0098 106.86 59.7898 110.34 58.0098 113.15C57.0498 114.66 56.2198 115.96 55.7998 116.55L55.5798 116.86C54.3098 118.66 52.1798 121.68 49.0498 122.45C46.3998 123.1 43.7698 121.98 41.6598 121.08C41.1398 120.86 40.6498 120.65 40.2098 120.49C38.1798 119.77 37.0798 119.68 34.5798 120.57C31.2498 121.95 29.6698 127.94 29.6498 128C29.6098 128.21 29.4498 128.33 29.2698 128.33Z" fill="white"/>
<path fill-rule="evenodd" clip-rule="evenodd" d="M90.3298 22.26C90.4898 22.17 90.6798 22.17 90.8398 22.26L151.14 57.82C151.29 57.91 151.39 58.07 151.39 58.25V128.81C151.39 128.99 151.3 129.15 151.14 129.24L90.4198 164.57C90.2598 164.66 90.0698 164.66 89.9198 164.57L28.7998 128.99C28.6498 128.9 28.5498 128.73 28.5498 128.56L28.7498 58.3C28.7498 58.12 28.8498 57.96 28.9998 57.87L90.3298 22.26ZM29.7398 58.59L29.5398 128.27L90.1598 163.56L150.38 128.52V58.54L90.5798 23.27L29.7398 58.59Z" fill="white"/>
<path d="M141.05 140.78C149.38 140.78 156.12 134.03 156.12 125.71C156.12 117.39 149.37 110.64 141.05 110.64C132.72 110.64 125.98 117.39 125.98 125.71C125.98 134.03 132.73 140.78 141.05 140.78Z" fill="#002D4C"/>
<path d="M148.49 118.85L137.23 130.15L133.86 126.76L131.61 129.03L137.23 134.66L150.75 121.11L148.49 118.85Z" fill="#FAF9F8"/>
<path d="M89.7496 94.16C89.7096 94.16 89.6596 94.15 89.6196 94.13L89.4096 94C89.2896 93.93 89.2496 93.78 89.3196 93.66C89.3896 93.54 89.5396 93.5 89.6596 93.57L89.8796 93.7C89.9996 93.77 90.0396 93.92 89.9696 94.04C89.9196 94.12 89.8396 94.16 89.7496 94.16ZM91.0496 93.88C90.9596 93.88 90.8796 93.84 90.8296 93.76C90.7596 93.64 90.7996 93.49 90.9196 93.42L91.1396 93.29C91.2596 93.22 91.4096 93.26 91.4796 93.38C91.5496 93.5 91.5096 93.65 91.3896 93.72L91.1696 93.85C91.1296 93.87 91.0896 93.88 91.0496 93.88ZM88.2396 93.28C88.1996 93.28 88.1496 93.27 88.1096 93.25L87.8896 93.12C87.7696 93.05 87.7296 92.9 87.7996 92.78C87.8696 92.66 88.0196 92.62 88.1396 92.69L88.3596 92.82C88.4796 92.89 88.5196 93.04 88.4496 93.16C88.4096 93.24 88.3296 93.28 88.2396 93.28ZM92.5596 92.99C92.4696 92.99 92.3896 92.95 92.3396 92.87C92.2696 92.75 92.3096 92.6 92.4296 92.53L92.6496 92.4C92.7696 92.33 92.9196 92.37 92.9896 92.49C93.0596 92.61 93.0196 92.76 92.8996 92.83L92.6796 92.96C92.6396 92.98 92.5996 92.99 92.5596 92.99ZM86.7296 92.4C86.6896 92.4 86.6396 92.39 86.5996 92.37L86.3796 92.24C86.2596 92.17 86.2196 92.02 86.2896 91.9C86.3596 91.78 86.5096 91.74 86.6296 91.81L86.8496 91.94C86.9696 92.01 87.0096 92.16 86.9396 92.28C86.8996 92.36 86.8096 92.4 86.7296 92.4ZM94.0596 92.1C93.9696 92.1 93.8896 92.06 93.8396 91.98C93.7696 91.86 93.8096 91.71 93.9296 91.64L94.1496 91.51C94.2696 91.44 94.4196 91.48 94.4896 91.6C94.5596 91.72 94.5196 91.87 94.3996 91.94L94.1796 92.07C94.1496 92.09 94.1096 92.1 94.0596 92.1ZM85.2196 91.52C85.1796 91.52 85.1296 91.51 85.0896 91.49L84.8696 91.36C84.7496 91.29 84.7096 91.14 84.7796 91.02C84.8496 90.9 84.9996 90.86 85.1196 90.93L85.3396 91.06C85.4596 91.13 85.4996 91.28 85.4296 91.4C85.3896 91.48 85.2996 91.52 85.2196 91.52ZM95.5696 91.22C95.4796 91.22 95.3996 91.18 95.3496 91.1C95.2796 90.98 95.3196 90.83 95.4396 90.76L95.6596 90.63C95.7796 90.56 95.9296 90.6 95.9996 90.72C96.0696 90.84 96.0296 90.99 95.9096 91.06L95.6896 91.19C95.6596 91.21 95.6196 91.22 95.5696 91.22ZM83.6996 90.64C83.6596 90.64 83.6096 90.63 83.5696 90.61L83.3496 90.48C83.2296 90.41 83.1896 90.26 83.2596 90.14C83.3296 90.02 83.4796 89.98 83.5996 90.05L83.8196 90.18C83.9396 90.25 83.9796 90.4 83.9096 90.52C83.8696 90.6 83.7896 90.64 83.6996 90.64ZM97.0796 90.33C96.9896 90.33 96.9096 90.29 96.8596 90.21C96.7896 90.09 96.8296 89.94 96.9496 89.87L97.1696 89.74C97.2896 89.67 97.4396 89.71 97.5096 89.83C97.5796 89.95 97.5396 90.1 97.4196 90.17L97.1996 90.3C97.1696 90.32 97.1196 90.33 97.0796 90.33ZM82.1896 89.76C82.1496 89.76 82.0996 89.75 82.0596 89.73L81.8396 89.6C81.7196 89.53 81.6796 89.38 81.7496 89.26C81.8196 89.14 81.9696 89.1 82.0896 89.17L82.3096 89.3C82.4296 89.37 82.4696 89.52 82.3996 89.64C82.3596 89.71 82.2796 89.76 82.1896 89.76ZM98.5896 89.44C98.4996 89.44 98.4196 89.4 98.3696 89.32C98.2996 89.2 98.3396 89.05 98.4596 88.98L98.6796 88.85C98.7996 88.78 98.9496 88.82 99.0196 88.94C99.0896 89.06 99.0496 89.21 98.9296 89.28L98.7096 89.41C98.6796 89.43 98.6296 89.44 98.5896 89.44ZM80.6796 88.88C80.6396 88.88 80.5896 88.87 80.5496 88.85L80.3296 88.72C80.2096 88.65 80.1696 88.5 80.2396 88.38C80.3096 88.26 80.4596 88.22 80.5796 88.29L80.7996 88.42C80.9196 88.49 80.9596 88.64 80.8896 88.76C80.8496 88.84 80.7596 88.88 80.6796 88.88ZM100.1 88.56C100.01 88.56 99.9296 88.52 99.8796 88.44C99.8096 88.32 99.8496 88.17 99.9696 88.1L100.19 87.97C100.31 87.9 100.46 87.94 100.53 88.06C100.6 88.18 100.56 88.33 100.44 88.4L100.22 88.53C100.18 88.55 100.14 88.56 100.1 88.56ZM79.1696 88C79.1296 88 79.0796 87.99 79.0396 87.97L78.8196 87.84C78.6996 87.77 78.6596 87.62 78.7296 87.5C78.7996 87.38 78.9496 87.34 79.0696 87.41L79.2896 87.54C79.4096 87.61 79.4496 87.76 79.3796 87.88C79.3396 87.95 79.2496 88 79.1696 88ZM101.61 87.67C101.52 87.67 101.44 87.63 101.39 87.55C101.32 87.43 101.36 87.28 101.48 87.21L101.7 87.08C101.82 87.01 101.97 87.05 102.04 87.17C102.11 87.29 102.07 87.44 101.95 87.51L101.73 87.64C101.69 87.66 101.65 87.67 101.61 87.67ZM77.6496 87.12C77.6096 87.12 77.5596 87.11 77.5196 87.09L77.2996 86.96C77.1796 86.89 77.1396 86.74 77.2096 86.62C77.2796 86.5 77.4296 86.46 77.5496 86.53L77.7696 86.66C77.8896 86.73 77.9296 86.88 77.8596 87C77.8196 87.07 77.7396 87.12 77.6496 87.12ZM103.11 86.78C103.02 86.78 102.94 86.74 102.89 86.66C102.82 86.54 102.86 86.39 102.98 86.32L103.2 86.19C103.32 86.12 103.47 86.16 103.54 86.28C103.61 86.4 103.57 86.55 103.45 86.62L103.23 86.75C103.2 86.77 103.16 86.78 103.11 86.78ZM76.1396 86.24C76.0996 86.24 76.0496 86.23 76.0096 86.21L75.7896 86.08C75.6696 86.01 75.6296 85.86 75.6996 85.74C75.7696 85.62 75.9196 85.58 76.0396 85.65L76.2596 85.78C76.3796 85.85 76.4196 86 76.3496 86.12C76.3096 86.19 76.2296 86.24 76.1396 86.24ZM104.62 85.89C104.53 85.89 104.45 85.85 104.4 85.77C104.33 85.65 104.37 85.5 104.49 85.43L104.71 85.3C104.83 85.23 104.98 85.27 105.05 85.39C105.12 85.51 105.08 85.66 104.96 85.73L104.74 85.86C104.71 85.88 104.67 85.89 104.62 85.89ZM74.6296 85.36C74.5896 85.36 74.5396 85.35 74.4996 85.33L74.2796 85.2C74.1596 85.13 74.1196 84.98 74.1896 84.86C74.2596 84.74 74.4096 84.7 74.5296 84.77L74.7496 84.9C74.8696 84.97 74.9096 85.12 74.8396 85.24C74.7996 85.31 74.7196 85.36 74.6296 85.36ZM106.13 85.01C106.04 85.01 105.96 84.97 105.91 84.89C105.84 84.77 105.88 84.62 106 84.55L106.22 84.42C106.34 84.35 106.49 84.39 106.56 84.51C106.63 84.63 106.59 84.78 106.47 84.85L106.25 84.98C106.22 85 106.17 85.01 106.13 85.01ZM73.1196 84.48C73.0796 84.48 73.0296 84.47 72.9896 84.45L72.7696 84.32C72.6496 84.25 72.6096 84.1 72.6796 83.98C72.7496 83.86 72.8996 83.82 73.0196 83.89L73.2396 84.02C73.3596 84.09 73.3996 84.24 73.3296 84.36C73.2896 84.43 73.1996 84.48 73.1196 84.48ZM107.64 84.12C107.55 84.12 107.47 84.08 107.42 84C107.35 83.88 107.39 83.73 107.51 83.66L107.73 83.53C107.85 83.46 108 83.5 108.07 83.62C108.14 83.74 108.1 83.89 107.98 83.96L107.76 84.09C107.73 84.11 107.68 84.12 107.64 84.12ZM71.5996 83.6C71.5596 83.6 71.5096 83.59 71.4696 83.57L71.2496 83.44C71.1296 83.37 71.0896 83.22 71.1596 83.1C71.2296 82.98 71.3796 82.94 71.4996 83.01L71.7196 83.14C71.8396 83.21 71.8796 83.36 71.8096 83.48C71.7696 83.55 71.6896 83.6 71.5996 83.6ZM109.15 83.23C109.06 83.23 108.98 83.19 108.93 83.11C108.86 82.99 108.9 82.84 109.02 82.77L109.24 82.64C109.36 82.57 109.51 82.61 109.58 82.73C109.65 82.85 109.61 83 109.49 83.07L109.27 83.2C109.24 83.22 109.19 83.23 109.15 83.23ZM70.0896 82.72C70.0496 82.72 69.9996 82.71 69.9596 82.69L69.7396 82.56C69.6196 82.49 69.5796 82.34 69.6496 82.22C69.7196 82.1 69.8696 82.06 69.9896 82.13L70.2096 82.26C70.3296 82.33 70.3696 82.48 70.2996 82.6C70.2596 82.67 70.1796 82.72 70.0896 82.72ZM110.66 82.35C110.57 82.35 110.49 82.31 110.44 82.23C110.37 82.11 110.41 81.96 110.53 81.89L110.75 81.76C110.87 81.69 111.02 81.73 111.09 81.85C111.16 81.97 111.12 82.12 111 82.19L110.78 82.32C110.74 82.34 110.7 82.35 110.66 82.35ZM68.5796 81.83C68.5396 81.83 68.4896 81.82 68.4496 81.8L68.2296 81.67C68.1096 81.6 68.0696 81.45 68.1396 81.33C68.2096 81.21 68.3596 81.17 68.4796 81.24L68.6996 81.37C68.8196 81.44 68.8596 81.59 68.7896 81.71C68.7496 81.79 68.6696 81.83 68.5796 81.83ZM112.17 81.46C112.08 81.46 112 81.42 111.95 81.34C111.88 81.22 111.92 81.07 112.04 81L112.26 80.87C112.38 80.8 112.53 80.84 112.6 80.96C112.67 81.08 112.63 81.23 112.51 81.3L112.29 81.43C112.25 81.45 112.21 81.46 112.17 81.46ZM67.0696 80.95C67.0296 80.95 66.9796 80.94 66.9396 80.92L66.7196 80.79C66.5996 80.72 66.5596 80.57 66.6296 80.45C66.6996 80.33 66.8496 80.29 66.9696 80.36L67.1896 80.49C67.3096 80.56 67.3496 80.71 67.2796 80.83C67.2396 80.91 67.1496 80.95 67.0696 80.95ZM113.67 80.57C113.58 80.57 113.5 80.53 113.45 80.45C113.38 80.33 113.42 80.18 113.54 80.11L113.76 79.98C113.88 79.91 114.03 79.95 114.1 80.07C114.17 80.19 114.13 80.34 114.01 80.41L113.79 80.54C113.76 80.56 113.72 80.57 113.67 80.57ZM65.5596 80.07C65.5196 80.07 65.4696 80.06 65.4296 80.04L65.2096 79.91C65.0896 79.84 65.0496 79.69 65.1196 79.57C65.1896 79.45 65.3396 79.41 65.4596 79.48L65.6796 79.61C65.7996 79.68 65.8396 79.83 65.7696 79.95C65.7196 80.03 65.6396 80.07 65.5596 80.07ZM115.18 79.68C115.09 79.68 115.01 79.64 114.96 79.56C114.89 79.44 114.93 79.29 115.05 79.22L115.27 79.09C115.39 79.02 115.54 79.06 115.61 79.18C115.68 79.3 115.64 79.45 115.52 79.52L115.3 79.65C115.27 79.67 115.23 79.68 115.18 79.68ZM64.0396 79.19C63.9996 79.19 63.9496 79.18 63.9096 79.16L63.6896 79.03C63.5696 78.96 63.5296 78.81 63.5996 78.69C63.6696 78.57 63.8196 78.53 63.9396 78.6L64.1596 78.73C64.2796 78.8 64.3196 78.95 64.2496 79.07C64.2096 79.15 64.1296 79.19 64.0396 79.19ZM116.69 78.8C116.6 78.8 116.52 78.76 116.47 78.68C116.4 78.56 116.44 78.41 116.56 78.34L116.78 78.21C116.9 78.14 117.05 78.18 117.12 78.3C117.19 78.42 117.15 78.57 117.03 78.64L116.81 78.77C116.78 78.79 116.73 78.8 116.69 78.8ZM62.5296 78.31C62.4896 78.31 62.4396 78.3 62.3996 78.28L62.1796 78.15C62.0596 78.08 62.0196 77.93 62.0896 77.81C62.1596 77.69 62.3096 77.65 62.4296 77.72L62.6496 77.85C62.7696 77.92 62.8096 78.07 62.7396 78.19C62.6996 78.27 62.6196 78.31 62.5296 78.31ZM118.2 77.91C118.11 77.91 118.03 77.87 117.98 77.79C117.91 77.67 117.95 77.52 118.07 77.45L118.29 77.32C118.41 77.25 118.56 77.29 118.63 77.41C118.7 77.53 118.66 77.68 118.54 77.75L118.32 77.88C118.29 77.9 118.24 77.91 118.2 77.91ZM61.0196 77.43C60.9796 77.43 60.9296 77.42 60.8896 77.4L60.6696 77.27C60.5496 77.2 60.5096 77.05 60.5796 76.93C60.6496 76.81 60.7996 76.77 60.9196 76.84L61.1396 76.97C61.2596 77.04 61.2996 77.19 61.2296 77.31C61.1896 77.39 61.0996 77.43 61.0196 77.43ZM119.71 77.02C119.62 77.02 119.54 76.98 119.49 76.9C119.42 76.78 119.46 76.63 119.58 76.56L119.8 76.43C119.92 76.36 120.07 76.4 120.14 76.52C120.21 76.64 120.17 76.79 120.05 76.86L119.83 76.99C119.79 77.01 119.75 77.02 119.71 77.02ZM59.5096 76.55C59.4696 76.55 59.4196 76.54 59.3796 76.52L59.1596 76.39C59.0396 76.32 58.9996 76.17 59.0696 76.05C59.1396 75.93 59.2896 75.89 59.4096 75.96L59.6296 76.09C59.7496 76.16 59.7896 76.31 59.7196 76.43C59.6796 76.51 59.5896 76.55 59.5096 76.55ZM121.22 76.14C121.13 76.14 121.05 76.1 121 76.02C120.93 75.9 120.97 75.75 121.09 75.68L121.31 75.55C121.43 75.48 121.58 75.52 121.65 75.64C121.72 75.76 121.68 75.91 121.56 75.98L121.34 76.11C121.3 76.13 121.26 76.14 121.22 76.14ZM57.9896 75.67C57.9496 75.67 57.8996 75.66 57.8596 75.64L57.6396 75.51C57.5196 75.44 57.4796 75.29 57.5496 75.17C57.6196 75.05 57.7696 75.01 57.8896 75.08L58.1096 75.21C58.2296 75.28 58.2696 75.43 58.1996 75.55C58.1596 75.63 58.0796 75.67 57.9896 75.67ZM122.72 75.25C122.63 75.25 122.55 75.21 122.5 75.13C122.43 75.01 122.47 74.86 122.59 74.79L122.81 74.66C122.93 74.59 123.08 74.63 123.15 74.75C123.22 74.87 123.18 75.02 123.06 75.09L122.84 75.22C122.81 75.24 122.77 75.25 122.72 75.25ZM56.4796 74.79C56.4396 74.79 56.3896 74.78 56.3496 74.76L56.1296 74.63C56.0096 74.56 55.9696 74.41 56.0396 74.29C56.1096 74.17 56.2596 74.13 56.3796 74.2L56.5996 74.33C56.7196 74.4 56.7596 74.55 56.6896 74.67C56.6496 74.75 56.5696 74.79 56.4796 74.79ZM124.23 74.36C124.14 74.36 124.06 74.32 124.01 74.24C123.94 74.12 123.98 73.97 124.1 73.9L124.32 73.77C124.44 73.7 124.59 73.74 124.66 73.86C124.73 73.98 124.69 74.13 124.57 74.2L124.35 74.33C124.32 74.35 124.28 74.36 124.23 74.36ZM54.9696 73.91C54.9296 73.91 54.8796 73.9 54.8396 73.88L54.6196 73.75C54.4996 73.68 54.4596 73.53 54.5296 73.41C54.5996 73.29 54.7496 73.25 54.8696 73.32L55.0896 73.45C55.2096 73.52 55.2496 73.67 55.1796 73.79C55.1396 73.86 55.0596 73.91 54.9696 73.91ZM125.74 73.47C125.65 73.47 125.57 73.43 125.52 73.35C125.45 73.23 125.49 73.08 125.61 73.01L125.83 72.88C125.95 72.81 126.1 72.85 126.17 72.97C126.24 73.09 126.2 73.24 126.08 73.31L125.86 73.44C125.83 73.46 125.79 73.47 125.74 73.47ZM53.4596 73.03C53.4196 73.03 53.3696 73.02 53.3296 73L53.1096 72.87C52.9896 72.8 52.9496 72.65 53.0196 72.53C53.0896 72.41 53.2396 72.37 53.3596 72.44L53.5796 72.57C53.6996 72.64 53.7396 72.79 53.6696 72.91C53.6296 72.98 53.5396 73.03 53.4596 73.03ZM127.25 72.59C127.16 72.59 127.08 72.55 127.03 72.47C126.96 72.35 127 72.2 127.12 72.13L127.34 72C127.46 71.93 127.61 71.97 127.68 72.09C127.75 72.21 127.71 72.36 127.59 72.43L127.37 72.56C127.34 72.58 127.29 72.59 127.25 72.59ZM51.9396 72.15C51.8996 72.15 51.8496 72.14 51.8096 72.12L51.5896 71.99C51.4696 71.92 51.4296 71.77 51.4996 71.65C51.5696 71.53 51.7196 71.49 51.8396 71.56L52.0596 71.69C52.1796 71.76 52.2196 71.91 52.1496 72.03C52.1096 72.1 52.0296 72.15 51.9396 72.15ZM128.76 71.7C128.67 71.7 128.59 71.66 128.54 71.58C128.47 71.46 128.51 71.31 128.63 71.24L128.85 71.11C128.97 71.04 129.12 71.08 129.19 71.2C129.26 71.32 129.22 71.47 129.1 71.54L128.88 71.67C128.85 71.69 128.8 71.7 128.76 71.7ZM50.4296 71.27C50.3896 71.27 50.3396 71.26 50.2996 71.24L50.0796 71.11C49.9596 71.04 49.9196 70.89 49.9896 70.77C50.0596 70.65 50.2096 70.61 50.3296 70.68L50.5496 70.81C50.6696 70.88 50.7096 71.03 50.6396 71.15C50.5996 71.22 50.5196 71.27 50.4296 71.27ZM130.27 70.81C130.18 70.81 130.1 70.77 130.05 70.69C129.98 70.57 130.02 70.42 130.14 70.35L130.36 70.22C130.48 70.15 130.63 70.19 130.7 70.31C130.77 70.43 130.73 70.58 130.61 70.65L130.39 70.78C130.35 70.8 130.31 70.81 130.27 70.81ZM48.9196 70.39C48.8796 70.39 48.8296 70.38 48.7896 70.36L48.5696 70.23C48.4496 70.16 48.4096 70.01 48.4796 69.89C48.5496 69.77 48.6996 69.73 48.8196 69.8L49.0396 69.93C49.1596 70 49.1996 70.15 49.1296 70.27C49.0896 70.34 49.0096 70.39 48.9196 70.39ZM131.78 69.93C131.69 69.93 131.61 69.89 131.56 69.81C131.49 69.69 131.53 69.54 131.65 69.47L131.87 69.34C131.99 69.27 132.14 69.31 132.21 69.43C132.28 69.55 132.24 69.7 132.12 69.77L131.9 69.9C131.86 69.92 131.82 69.93 131.78 69.93ZM47.4096 69.51C47.3696 69.51 47.3196 69.5 47.2796 69.48L47.0596 69.35C46.9396 69.28 46.8996 69.13 46.9696 69.01C47.0396 68.89 47.1896 68.85 47.3096 68.92L47.5296 69.05C47.6496 69.12 47.6896 69.27 47.6196 69.39C47.5796 69.46 47.4896 69.51 47.4096 69.51ZM133.28 69.04C133.19 69.04 133.11 69 133.06 68.92C132.99 68.8 133.03 68.65 133.15 68.58L133.37 68.45C133.49 68.38 133.64 68.42 133.71 68.54C133.78 68.66 133.74 68.81 133.62 68.88L133.41 69C133.37 69.03 133.33 69.04 133.28 69.04ZM45.8896 68.63C45.8496 68.63 45.7996 68.62 45.7596 68.6L45.5396 68.47C45.4196 68.4 45.3796 68.25 45.4496 68.13C45.5196 68.01 45.6696 67.97 45.7896 68.04L46.0096 68.17C46.1296 68.24 46.1696 68.39 46.0996 68.51C46.0596 68.58 45.9796 68.63 45.8896 68.63ZM134.79 68.15C134.7 68.15 134.62 68.11 134.57 68.03C134.5 67.91 134.54 67.76 134.66 67.69L134.88 67.56C135 67.49 135.15 67.53 135.22 67.65C135.29 67.77 135.25 67.92 135.13 67.99L134.91 68.12C134.88 68.14 134.84 68.15 134.79 68.15ZM44.3796 67.75C44.3396 67.75 44.2896 67.74 44.2496 67.72L44.0296 67.59C43.9096 67.52 43.8696 67.37 43.9396 67.25C44.0096 67.13 44.1596 67.09 44.2796 67.16L44.4996 67.29C44.6196 67.36 44.6596 67.51 44.5896 67.63C44.5496 67.7 44.4696 67.75 44.3796 67.75ZM136.3 67.26C136.21 67.26 136.13 67.22 136.08 67.14C136.01 67.02 136.05 66.87 136.17 66.8L136.39 66.67C136.51 66.6 136.66 66.64 136.73 66.76C136.8 66.88 136.76 67.03 136.64 67.1L136.42 67.23C136.39 67.25 136.34 67.26 136.3 67.26ZM42.8696 66.87C42.8296 66.87 42.7796 66.86 42.7396 66.84L42.5196 66.71C42.3996 66.64 42.3596 66.49 42.4296 66.37C42.4996 66.25 42.6496 66.21 42.7696 66.28L42.9996 66.4C43.1196 66.47 43.1596 66.62 43.0896 66.74C43.0396 66.82 42.9596 66.87 42.8696 66.87ZM137.81 66.38C137.72 66.38 137.64 66.34 137.59 66.26C137.52 66.14 137.56 65.99 137.68 65.92L137.9 65.79C138.02 65.72 138.17 65.76 138.24 65.88C138.31 66 138.27 66.15 138.15 66.22L137.93 66.35C137.9 66.37 137.85 66.38 137.81 66.38ZM41.3596 65.98C41.3196 65.98 41.2696 65.97 41.2296 65.95L41.0096 65.82C40.8896 65.75 40.8496 65.6 40.9196 65.48C40.9896 65.36 41.1396 65.32 41.2596 65.39L41.4796 65.52C41.5996 65.59 41.6396 65.74 41.5696 65.86C41.5296 65.94 41.4396 65.98 41.3596 65.98ZM139.32 65.49C139.23 65.49 139.15 65.45 139.1 65.37C139.03 65.25 139.07 65.1 139.19 65.03L139.41 64.9C139.53 64.83 139.68 64.87 139.75 64.99C139.82 65.11 139.78 65.26 139.66 65.33L139.44 65.46C139.4 65.48 139.36 65.49 139.32 65.49ZM39.8496 65.1C39.8096 65.1 39.7596 65.09 39.7196 65.07L39.4996 64.94C39.3796 64.87 39.3396 64.72 39.4096 64.6C39.4796 64.48 39.6296 64.44 39.7496 64.51L39.9696 64.64C40.0896 64.71 40.1296 64.86 40.0596 64.98C40.0196 65.06 39.9296 65.1 39.8496 65.1ZM140.83 64.6C140.74 64.6 140.66 64.56 140.61 64.48C140.54 64.36 140.58 64.21 140.7 64.14L140.92 64.01C141.04 63.94 141.19 63.98 141.26 64.1C141.33 64.22 141.29 64.37 141.17 64.44L140.95 64.57C140.91 64.59 140.87 64.6 140.83 64.6ZM38.3296 64.22C38.2896 64.22 38.2396 64.21 38.1996 64.19L37.9796 64.06C37.8596 63.99 37.8196 63.84 37.8896 63.72C37.9596 63.6 38.1096 63.56 38.2296 63.63L38.4496 63.76C38.5696 63.83 38.6096 63.98 38.5396 64.1C38.4996 64.18 38.4196 64.22 38.3296 64.22ZM142.33 63.72C142.24 63.72 142.16 63.68 142.11 63.6C142.04 63.48 142.08 63.33 142.2 63.26L142.42 63.13C142.54 63.06 142.69 63.1 142.76 63.22C142.83 63.34 142.79 63.49 142.67 63.56L142.45 63.69C142.42 63.71 142.38 63.72 142.33 63.72ZM36.8196 63.34C36.7796 63.34 36.7296 63.33 36.6896 63.31L36.4696 63.18C36.3496 63.11 36.3096 62.96 36.3796 62.84C36.4496 62.72 36.5996 62.68 36.7196 62.75L36.9396 62.88C37.0596 62.95 37.0996 63.1 37.0296 63.22C36.9896 63.3 36.9096 63.34 36.8196 63.34ZM143.84 62.83C143.75 62.83 143.67 62.79 143.62 62.71C143.55 62.59 143.59 62.44 143.71 62.37L143.93 62.24C144.05 62.17 144.2 62.21 144.27 62.33C144.34 62.45 144.3 62.6 144.18 62.67L143.96 62.8C143.93 62.82 143.89 62.83 143.84 62.83ZM35.3096 62.46C35.2696 62.46 35.2196 62.45 35.1796 62.43L34.9596 62.3C34.8396 62.23 34.7996 62.08 34.8696 61.96C34.9396 61.84 35.0896 61.8 35.2096 61.87L35.4296 62C35.5496 62.07 35.5896 62.22 35.5196 62.34C35.4796 62.42 35.3896 62.46 35.3096 62.46ZM145.35 61.94C145.26 61.94 145.18 61.9 145.13 61.82C145.06 61.7 145.1 61.55 145.22 61.48L145.44 61.35C145.56 61.28 145.71 61.32 145.78 61.44C145.85 61.56 145.81 61.71 145.69 61.78L145.47 61.91C145.44 61.93 145.4 61.94 145.35 61.94ZM33.7996 61.58C33.7596 61.58 33.7096 61.57 33.6696 61.55L33.4496 61.42C33.3296 61.35 33.2896 61.2 33.3596 61.08C33.4296 60.96 33.5796 60.92 33.6996 60.99L33.9196 61.12C34.0396 61.19 34.0796 61.34 34.0096 61.46C33.9696 61.54 33.8796 61.58 33.7996 61.58ZM146.86 61.06C146.77 61.06 146.69 61.02 146.64 60.94C146.57 60.82 146.61 60.67 146.73 60.6L146.95 60.47C147.07 60.4 147.22 60.44 147.29 60.56C147.36 60.68 147.32 60.83 147.2 60.9L146.98 61.03C146.95 61.04 146.9 61.06 146.86 61.06ZM32.2796 60.7C32.2396 60.7 32.1896 60.69 32.1496 60.67L31.9296 60.54C31.8096 60.47 31.7696 60.32 31.8396 60.2C31.9096 60.08 32.0596 60.04 32.1796 60.11L32.3996 60.24C32.5196 60.31 32.5596 60.46 32.4896 60.58C32.4496 60.66 32.3696 60.7 32.2796 60.7ZM148.37 60.17C148.28 60.17 148.2 60.13 148.15 60.05C148.08 59.93 148.12 59.78 148.24 59.71L148.46 59.58C148.58 59.51 148.73 59.55 148.8 59.67C148.87 59.79 148.83 59.94 148.71 60.01L148.49 60.14C148.46 60.16 148.41 60.17 148.37 60.17ZM30.7696 59.82C30.7296 59.82 30.6796 59.81 30.6396 59.79L30.4196 59.66C30.2996 59.59 30.2596 59.44 30.3296 59.32C30.3996 59.2 30.5496 59.16 30.6696 59.23L30.8896 59.36C31.0096 59.43 31.0496 59.58 30.9796 59.7C30.9396 59.78 30.8596 59.82 30.7696 59.82ZM149.88 59.28C149.79 59.28 149.71 59.24 149.66 59.16C149.59 59.04 149.63 58.89 149.75 58.82L149.97 58.69C150.09 58.62 150.24 58.66 150.31 58.78C150.38 58.9 150.34 59.05 150.22 59.12L150 59.25C149.96 59.27 149.92 59.28 149.88 59.28ZM29.2596 58.94C29.2196 58.94 29.1696 58.93 29.1296 58.91L28.9096 58.78C28.7896 58.71 28.7496 58.56 28.8196 58.44C28.8896 58.32 29.0396 58.28 29.1596 58.35L29.3796 58.48C29.4996 58.55 29.5396 58.7 29.4696 58.82C29.4296 58.9 29.3496 58.94 29.2596 58.94Z" fill="white"/>
<path d="M90.1699 163.94C90.0299 163.94 89.9199 163.83 89.9199 163.69V163.44C89.9199 163.3 90.0299 163.19 90.1699 163.19C90.3099 163.19 90.4199 163.3 90.4199 163.44V163.69C90.4199 163.83 90.3099 163.94 90.1699 163.94ZM90.1699 162.19C90.0299 162.19 89.9199 162.08 89.9199 161.94V161.69C89.9199 161.55 90.0299 161.44 90.1699 161.44C90.3099 161.44 90.4199 161.55 90.4199 161.69V161.94C90.4199 162.08 90.3099 162.19 90.1699 162.19ZM90.1699 160.44C90.0299 160.44 89.9199 160.33 89.9199 160.19V159.94C89.9199 159.8 90.0299 159.69 90.1699 159.69C90.3099 159.69 90.4199 159.8 90.4199 159.94V160.19C90.4199 160.33 90.3099 160.44 90.1699 160.44ZM90.1699 158.69C90.0299 158.69 89.9199 158.58 89.9199 158.44V158.19C89.9199 158.05 90.0299 157.94 90.1699 157.94C90.3099 157.94 90.4199 158.05 90.4199 158.19V158.44C90.4199 158.58 90.3099 158.69 90.1699 158.69ZM90.1699 156.94C90.0299 156.94 89.9199 156.83 89.9199 156.69V156.44C89.9199 156.3 90.0299 156.19 90.1699 156.19C90.3099 156.19 90.4199 156.3 90.4199 156.44V156.69C90.4199 156.83 90.3099 156.94 90.1699 156.94ZM90.1699 155.19C90.0299 155.19 89.9199 155.08 89.9199 154.94V154.69C89.9199 154.55 90.0299 154.44 90.1699 154.44C90.3099 154.44 90.4199 154.55 90.4199 154.69V154.94C90.4199 155.08 90.3099 155.19 90.1699 155.19ZM90.1699 153.44C90.0299 153.44 89.9199 153.33 89.9199 153.19V152.94C89.9199 152.8 90.0299 152.69 90.1699 152.69C90.3099 152.69 90.4199 152.8 90.4199 152.94V153.19C90.4199 153.33 90.3099 153.44 90.1699 153.44ZM90.1699 151.69C90.0299 151.69 89.9199 151.58 89.9199 151.44V151.19C89.9199 151.05 90.0299 150.94 90.1699 150.94C90.3099 150.94 90.4199 151.05 90.4199 151.19V151.44C90.4199 151.58 90.3099 151.69 90.1699 151.69ZM90.1699 149.94C90.0299 149.94 89.9199 149.83 89.9199 149.69V149.44C89.9199 149.3 90.0299 149.19 90.1699 149.19C90.3099 149.19 90.4199 149.3 90.4199 149.44V149.69C90.4199 149.83 90.3099 149.94 90.1699 149.94ZM90.1699 148.19C90.0299 148.19 89.9199 148.08 89.9199 147.94V147.69C89.9199 147.55 90.0299 147.44 90.1699 147.44C90.3099 147.44 90.4199 147.55 90.4199 147.69V147.94C90.4199 148.08 90.3099 148.19 90.1699 148.19ZM90.1699 146.44C90.0299 146.44 89.9199 146.33 89.9199 146.19V145.94C89.9199 145.8 90.0299 145.69 90.1699 145.69C90.3099 145.69 90.4199 145.8 90.4199 145.94V146.19C90.4199 146.33 90.3099 146.44 90.1699 146.44ZM90.1699 144.69C90.0299 144.69 89.9199 144.58 89.9199 144.44V144.19C89.9199 144.05 90.0299 143.94 90.1699 143.94C90.3099 143.94 90.4199 144.05 90.4199 144.19V144.44C90.4199 144.58 90.3099 144.69 90.1699 144.69ZM90.1699 142.94C90.0299 142.94 89.9199 142.83 89.9199 142.69V142.44C89.9199 142.3 90.0299 142.19 90.1699 142.19C90.3099 142.19 90.4199 142.3 90.4199 142.44V142.69C90.4199 142.83 90.3099 142.94 90.1699 142.94ZM90.1699 141.19C90.0299 141.19 89.9199 141.08 89.9199 140.94V140.69C89.9199 140.55 90.0299 140.44 90.1699 140.44C90.3099 140.44 90.4199 140.55 90.4199 140.69V140.94C90.4199 141.08 90.3099 141.19 90.1699 141.19ZM90.1699 139.44C90.0299 139.44 89.9199 139.33 89.9199 139.19V138.94C89.9199 138.8 90.0299 138.69 90.1699 138.69C90.3099 138.69 90.4199 138.8 90.4199 138.94V139.19C90.4199 139.33 90.3099 139.44 90.1699 139.44ZM90.1699 137.69C90.0299 137.69 89.9199 137.58 89.9199 137.44V137.19C89.9199 137.05 90.0299 136.94 90.1699 136.94C90.3099 136.94 90.4199 137.05 90.4199 137.19V137.44C90.4199 137.58 90.3099 137.69 90.1699 137.69ZM90.1699 135.94C90.0299 135.94 89.9199 135.83 89.9199 135.69V135.44C89.9199 135.3 90.0299 135.19 90.1699 135.19C90.3099 135.19 90.4199 135.3 90.4199 135.44V135.69C90.4199 135.83 90.3099 135.94 90.1699 135.94ZM90.1699 134.19C90.0299 134.19 89.9199 134.08 89.9199 133.94V133.69C89.9199 133.55 90.0299 133.44 90.1699 133.44C90.3099 133.44 90.4199 133.55 90.4199 133.69V133.94C90.4199 134.08 90.3099 134.19 90.1699 134.19ZM90.1699 132.44C90.0299 132.44 89.9199 132.33 89.9199 132.19V131.94C89.9199 131.8 90.0299 131.69 90.1699 131.69C90.3099 131.69 90.4199 131.8 90.4199 131.94V132.19C90.4199 132.33 90.3099 132.44 90.1699 132.44ZM90.1699 130.69C90.0299 130.69 89.9199 130.58 89.9199 130.44V130.19C89.9199 130.05 90.0299 129.94 90.1699 129.94C90.3099 129.94 90.4199 130.05 90.4199 130.19V130.44C90.4199 130.58 90.3099 130.69 90.1699 130.69ZM90.1699 128.94C90.0299 128.94 89.9199 128.83 89.9199 128.69V128.44C89.9199 128.3 90.0299 128.19 90.1699 128.19C90.3099 128.19 90.4199 128.3 90.4199 128.44V128.69C90.4199 128.83 90.3099 128.94 90.1699 128.94ZM90.1699 127.19C90.0299 127.19 89.9199 127.08 89.9199 126.94V126.69C89.9199 126.55 90.0299 126.44 90.1699 126.44C90.3099 126.44 90.4199 126.55 90.4199 126.69V126.94C90.4199 127.08 90.3099 127.19 90.1699 127.19ZM90.1699 125.44C90.0299 125.44 89.9199 125.33 89.9199 125.19V125C89.9199 124.86 90.0299 124.75 90.1699 124.75C90.3099 124.75 90.4199 124.86 90.4199 125V125.19C90.4199 125.33 90.3099 125.44 90.1699 125.44Z" fill="white"/>
<path d="M90.2396 137.46C81.4496 137.46 63.7596 119.38 59.4996 113.39C55.3096 107.5 53.3496 99.1601 53.3496 95.3901V68.6701C53.3496 67.1401 54.5896 65.8901 56.1196 65.8901H57.0396C59.4196 65.8901 62.7096 65.8301 64.8796 65.5201C68.4896 65.0001 70.1296 64.0201 74.4996 61.3901L75.3196 60.9001C79.8896 58.1501 85.5396 56.3101 89.3596 56.3101C89.4796 56.3101 89.5996 56.3101 89.7096 56.3101C89.8096 56.3101 89.9296 56.3101 90.0396 56.3101C93.8596 56.3101 99.5096 58.1501 104.08 60.9001L104.9 61.3901C109.28 64.0201 110.91 65.0101 114.52 65.5201C116.69 65.8301 119.98 65.8901 122.36 65.8901H123.26C124.81 65.8901 126.05 67.1401 126.05 68.6701V95.3901C126.05 99.1701 124.1 107.5 119.9 113.39C116.43 118.29 99.5196 137.46 90.2396 137.46Z" fill="url(#paint2_linear)"/>
<path d="M90.0504 56.5601C93.6204 56.5601 99.1304 58.2101 103.96 61.1101C108.95 64.1101 110.62 65.2101 114.5 65.7701C116.66 66.0801 119.91 66.1501 122.37 66.1501C122.68 66.1501 122.99 66.1501 123.27 66.1501C123.28 66.1501 123.28 66.1501 123.29 66.1501C124.69 66.1501 125.81 67.2801 125.81 68.6801V95.4001C125.81 99.1701 123.81 107.49 119.71 113.26C115.61 119.03 99.0203 137.22 90.2403 137.22C81.4603 137.22 63.8004 119.02 59.7004 113.25C55.6004 107.48 53.6003 99.1601 53.6003 95.3901V68.6701C53.6003 67.2701 54.7303 66.1401 56.1203 66.1401C56.1303 66.1401 56.1304 66.1401 56.1404 66.1401C56.4204 66.1401 56.7304 66.1401 57.0404 66.1401C59.5104 66.1401 62.7604 66.0701 64.9104 65.7601C68.7904 65.2101 70.4603 64.1001 75.4503 61.1001C80.2903 58.2001 85.8004 56.5501 89.3604 56.5501C89.4804 56.5501 89.5903 56.5501 89.7003 56.5601C89.8203 56.5601 89.9304 56.5601 90.0504 56.5601ZM90.0504 56.0601C89.9304 56.0601 89.8104 56.0601 89.6904 56.0701C89.6004 56.0701 89.4904 56.0601 89.3704 56.0601C85.5004 56.0601 79.8103 57.9201 75.2003 60.6801L74.3704 61.1801C70.0304 63.7901 68.4103 64.7701 64.8503 65.2701C62.7003 65.5801 59.4204 65.6401 57.0504 65.6401C56.7404 65.6401 56.4404 65.6401 56.1504 65.6401C55.3204 65.6401 54.5604 65.9601 53.9904 66.5301C53.4204 67.1001 53.1104 67.8601 53.1104 68.6701V95.3901C53.1104 99.2001 55.0804 107.6 59.3004 113.54C63.5804 119.56 81.3704 137.71 90.2504 137.71C99.6204 137.71 116.63 118.46 120.13 113.54C124.36 107.6 126.32 99.2001 126.32 95.3901V68.6701C126.32 67.0001 124.96 65.6401 123.3 65.6401C123 65.6401 122.7 65.6401 122.38 65.6401C120.01 65.6401 116.73 65.5801 114.58 65.2701C111.02 64.7601 109.4 63.7901 105.06 61.1801L104.23 60.6801C99.6104 57.9201 93.9104 56.0601 90.0504 56.0601Z" fill="white"/>
<g opacity="0.15">
<path opacity="0.15" d="M59.7695 75.07V94.19C59.7695 94.62 60.1195 94.98 60.5595 94.98H87.3095C87.6895 94.98 87.9995 94.67 87.9995 94.29V67.42C87.9995 66.65 87.3095 66.07 86.5595 66.2C85.0895 66.45 82.6995 67.02 80.3695 68.26C76.6195 70.24 74.3695 72.21 69.5295 73.1C66.1595 73.72 62.7595 73.83 60.9995 73.83C60.3195 73.83 59.7695 74.39 59.7695 75.07Z" fill="#1F1D20"/>
<path opacity="0.15" d="M120.239 75.07V94.19C120.239 94.62 119.889 94.98 119.449 94.98H92.7691C92.3891 94.98 92.0791 94.67 92.0791 94.29V66.01C92.0791 66.01 95.9691 66.28 99.7091 68.26C103.459 70.24 105.709 72.21 110.549 73.1C113.909 73.71 117.269 73.82 119.009 73.83C119.689 73.83 120.239 74.39 120.239 75.07Z" fill="#1F1D20"/>
<path opacity="0.15" d="M92.0791 130.41V99.6201C92.0791 99.2401 92.3891 98.9301 92.7691 98.9301H119.529C119.899 98.9301 120.169 99.2801 120.069 99.6401C119.429 102.08 116.849 110.41 109.679 117.81C103.279 124.42 95.6591 129.33 93.0291 130.94C92.6091 131.19 92.0791 130.89 92.0791 130.41Z" fill="#1F1D20"/>
<path opacity="0.15" d="M87.9297 130.41V99.6201C87.9297 99.2401 87.6197 98.9301 87.2397 98.9301H60.4897C60.1197 98.9301 59.8497 99.2801 59.9497 99.6401C60.5897 102.08 63.1697 110.41 70.3397 117.81C76.7397 124.42 84.3497 129.33 86.9897 130.94C87.3997 131.19 87.9297 130.9 87.9297 130.41Z" fill="#1F1D20"/>
</g>
<path d="M59.7695 73.15V92.27C59.7695 92.7 60.1195 93.06 60.5595 93.06H87.3095C87.6895 93.06 87.9995 92.75 87.9995 92.37V65.5C87.9995 64.73 87.3095 64.15 86.5595 64.28C85.0895 64.53 82.6995 65.1 80.3695 66.34C76.6195 68.32 74.3695 70.29 69.5295 71.18C66.1595 71.8 62.7595 71.91 60.9995 71.91C60.3195 71.91 59.7695 72.47 59.7695 73.15Z" fill="white"/>
<path d="M120.24 73.15V92.27C120.24 92.7 119.89 93.06 119.45 93.06H92.7701C92.3901 93.06 92.0801 92.75 92.0801 92.37V64.08C92.0801 64.08 95.9701 64.35 99.7101 66.33C103.46 68.31 105.71 70.28 110.55 71.17C113.91 71.78 117.27 71.89 119.01 71.9C119.69 71.91 120.24 72.47 120.24 73.15Z" fill="white"/>
<path d="M92.0801 128.48V97.69C92.0801 97.31 92.3901 97 92.7701 97H119.53C119.9 97 120.17 97.35 120.07 97.71C119.43 100.15 116.85 108.48 109.68 115.88C103.28 122.49 95.6601 127.4 93.0301 129.01C92.6101 129.27 92.0801 128.97 92.0801 128.48Z" fill="white"/>
<path d="M87.9297 128.48V97.69C87.9297 97.31 87.6197 97 87.2397 97H60.4897C60.1197 97 59.8497 97.35 59.9497 97.71C60.5897 100.15 63.1697 108.48 70.3397 115.88C76.7397 122.49 84.3497 127.4 86.9897 129.01C87.3997 129.27 87.9297 128.97 87.9297 128.48Z" fill="white"/>
<defs>
<linearGradient id="paint0_linear" x1="54.144" y1="17.1894" x2="117.641" y2="154.954" gradientUnits="userSpaceOnUse">
<stop stop-color="#5FADE2"/>
<stop offset="0.4975" stop-color="#128DE1"/>
<stop offset="1" stop-color="#0078D6"/>
</linearGradient>
<linearGradient id="paint1_linear" x1="36.1192" y1="4.0713" x2="202.797" y2="286.402" gradientUnits="userSpaceOnUse">
<stop stop-color="#007ED8"/>
<stop offset="0.7065" stop-color="#002D4C"/>
</linearGradient>
<linearGradient id="paint2_linear" x1="45.0077" y1="35.839" x2="168.139" y2="177.097" gradientUnits="userSpaceOnUse">
<stop stop-color="#5FADE2"/>
<stop offset="0.4975" stop-color="#128DE1"/>
<stop offset="1" stop-color="#0078D6"/>
</linearGradient>
</defs>
</svg>
