<svg width="103" height="103" viewBox="0 0 103 103" fill="none" xmlns="http://www.w3.org/2000/svg">
<path d="M51.976 98.2299C26.126 98.2299 5.16602 77.2799 5.16602 51.4199C5.16602 25.5599 26.126 4.60986 51.976 4.60986C77.826 4.60986 98.786 25.5699 98.786 51.4199C98.786 77.2699 77.826 98.2299 51.976 98.2299Z" fill="url(#paint0_linear)"/>
<path fill-rule="evenodd" clip-rule="evenodd" d="M97.8759 51.42C97.8759 76.77 77.3259 97.32 51.9759 97.32C26.6259 97.32 6.07594 76.77 6.07594 51.42C6.07594 26.07 26.6259 5.52003 51.9759 5.52003C77.3259 5.52003 97.8759 26.07 97.8759 51.42ZM51.9759 1.78003C79.3959 1.78003 101.616 24 101.616 51.42C101.616 78.84 79.3859 101.06 51.9759 101.06C24.5559 101.06 2.33594 78.83 2.33594 51.42C2.33594 24 24.5559 1.78003 51.9759 1.78003Z" fill="#F2F1F0"/>
<path fill-rule="evenodd" clip-rule="evenodd" d="M95.0665 51.4198C95.0665 75.2198 75.7765 94.5098 51.9765 94.5098C28.1765 94.5098 8.88648 75.2198 8.88648 51.4198C8.88648 27.6198 28.1765 8.32984 51.9765 8.32984C75.7765 8.32984 95.0665 27.6198 95.0665 51.4198ZM51.9765 4.58984C77.8365 4.58984 98.8065 25.5598 98.8065 51.4198C98.8065 77.2798 77.8365 98.2498 51.9765 98.2498C26.1165 98.2498 5.14648 77.2798 5.14648 51.4198C5.14648 25.5598 26.1065 4.58984 51.9765 4.58984Z" fill="#002D4C"/>
<path opacity="0.15" d="M20.5869 57.06L52.3069 77.45L84.5869 56.98L88.6369 61.66L52.3069 84.82L16.5469 61.66L20.5869 57.06Z" fill="#1F1D20"/>
<path d="M20.5869 52.7599L52.3069 73.1499L84.5869 52.6799L88.6369 57.3599L52.3069 80.5199L16.5469 57.3599L20.5869 52.7599Z" fill="#9CEBFF"/>
<path d="M22.9961 50.13L52.3161 15.54L82.2361 50.17L52.3061 68.89L22.9961 50.13Z" fill="white"/>
<path d="M52.3061 15.54V68.89L22.9961 50.13L52.3061 15.54Z" fill="#9CEBFF"/>
<path d="M52.3066 15.54V68.89L82.2266 50.17L52.3066 15.54Z" fill="url(#paint1_linear)"/>
<path d="M52.3066 43.1201L82.2266 50.1801L52.3066 68.9001V43.1201Z" fill="#53B1E0"/>
<path d="M52.3061 68.9001L22.9961 50.1401L52.3161 43.1201V68.9001H52.3061Z" fill="#C3F1FF"/>
<path d="M52.3066 80.5199L88.6366 57.3499L84.5866 52.6699L52.3066 73.1399V80.5199Z" fill="url(#paint2_linear)"/>
<path d="M30.1948 74.67C38.6048 74.67 45.4248 67.85 45.4248 59.44C45.4248 51.03 38.6048 44.21 30.1948 44.21C21.7848 44.21 14.9648 51.03 14.9648 59.44C14.9648 67.85 21.7848 74.67 30.1948 74.67Z" fill="white"/>
<path opacity="0.15" d="M58.2458 85.5398L43.3358 70.6398C45.4958 67.8298 46.7758 64.3098 46.7758 60.4998C46.7758 51.2898 39.2958 43.8298 30.0958 43.8298C20.8958 43.8298 13.4258 51.2898 13.4258 60.4998C13.4258 69.7098 20.8858 77.1698 30.0958 77.1698C33.7958 77.1698 37.1958 75.9698 39.9758 73.9298L54.9058 88.8598C54.9058 88.8598 56.2058 89.3698 57.5758 87.9198C58.9558 86.4898 58.2458 85.5398 58.2458 85.5398ZM15.9158 60.5598C15.9158 52.7498 22.2458 46.4198 30.0558 46.4198C37.8658 46.4198 44.1958 52.7498 44.1958 60.5598C44.1958 68.3698 37.8458 74.6998 30.0358 74.6998C22.2258 74.6998 15.9158 68.3698 15.9158 60.5598Z" fill="#1F1D20"/>
<path d="M37.4452 52.6399L27.2252 62.9099L24.1552 59.8299L22.1152 61.8899L27.2252 67.0199L39.5052 54.7099L37.4452 52.6399Z" fill="url(#paint3_linear)"/>
<path d="M15.9158 59.6399C15.9158 51.8299 22.2458 45.4999 30.0558 45.4999C37.8658 45.4999 44.1958 51.8299 44.1958 59.6399C44.1958 67.4499 37.8458 73.7799 30.0358 73.7799C22.2258 73.7799 15.9158 67.4499 15.9158 59.6399ZM58.2458 84.6199L43.3358 69.7199C45.4958 66.9099 46.7758 63.3899 46.7758 59.5799C46.7758 50.3699 39.3058 42.9099 30.0958 42.9099C20.8858 42.9099 13.4258 50.3699 13.4258 59.5799C13.4258 68.7899 20.8858 76.2499 30.0958 76.2499C33.7958 76.2499 37.1958 75.0499 39.9758 73.0099L54.9058 87.9399C54.9058 87.9399 56.2058 88.4499 57.5758 86.9999C58.9558 85.5699 58.2458 84.6199 58.2458 84.6199Z" fill="url(#paint4_linear)"/>
<defs>
<linearGradient id="paint0_linear" x1="47.8383" y1="-67.1373" x2="55.3973" y2="149.43" gradientUnits="userSpaceOnUse">
<stop stop-color="#007ED8"/>
<stop offset="0.7065" stop-color="#002D4C"/>
</linearGradient>
<linearGradient id="paint1_linear" x1="69.5941" y1="63.9769" x2="51.3291" y2="29.0441" gradientUnits="userSpaceOnUse">
<stop stop-color="#1988D9"/>
<stop offset="0.9" stop-color="#54AEF0"/>
</linearGradient>
<linearGradient id="paint2_linear" x1="61.773" y1="53.7891" x2="74.4049" y2="75.7906" gradientUnits="userSpaceOnUse">
<stop offset="0.1" stop-color="#54AEF0"/>
<stop offset="0.29" stop-color="#4FABEE"/>
<stop offset="0.51" stop-color="#41A2E9"/>
<stop offset="0.74" stop-color="#2A93E0"/>
<stop offset="0.88" stop-color="#1988D9"/>
</linearGradient>
<linearGradient id="paint3_linear" x1="19.1759" y1="56.906" x2="77.0027" y2="69.7564" gradientUnits="userSpaceOnUse">
<stop stop-color="#007ED8"/>
<stop offset="0.7065" stop-color="#002D4C"/>
</linearGradient>
<linearGradient id="paint4_linear" x1="13.4258" y1="65.4689" x2="58.4283" y2="65.4689" gradientUnits="userSpaceOnUse">
<stop stop-color="#00ABDE"/>
<stop offset="1" stop-color="#007ED8"/>
</linearGradient>
</defs>
</svg>
