<?xml version="1.0" encoding="utf-8"?>
<svg width="103" height="102" viewBox="0 0 103 102" fill="none" xmlns="http://www.w3.org/2000/svg">
    <path d="M 51.995 97.126 C 42.737 97.126 33.686 94.38 25.988 89.237 C 18.29 84.093 12.291 76.783 8.748 68.229 C 5.205 59.676 4.278 50.264 6.084 41.184 C 7.89 32.103 12.349 23.763 18.896 17.216 C 25.442 10.67 33.782 6.211 42.862 4.405 C 51.943 2.599 61.355 3.526 69.908 7.069 C 78.462 10.612 85.772 16.612 90.916 24.31 C 96.06 32.007 98.805 41.058 98.805 50.316 C 98.805 62.73 93.873 74.637 85.095 83.415 C 76.316 92.194 64.41 97.126 51.995 97.126 Z" fill="url(#paint0_linear)"/>
    <path fill-rule="evenodd" clip-rule="evenodd" d="M 97.895 50.316 C 97.895 59.394 95.203 68.268 90.159 75.816 C 85.116 83.365 77.947 89.248 69.56 92.722 C 61.172 96.196 51.944 97.105 43.04 95.334 C 34.136 93.563 25.957 89.191 19.538 82.772 C 13.119 76.353 8.748 68.174 6.977 59.27 C 5.206 50.366 6.115 41.138 9.589 32.75 C 13.063 24.363 18.946 17.195 26.494 12.151 C 34.042 7.108 42.917 4.416 51.995 4.416 C 64.169 4.416 75.843 9.252 84.451 17.86 C 93.059 26.467 97.895 38.142 97.895 50.316 Z M 51.995 0.676 C 61.813 0.676 71.41 3.587 79.573 9.041 C 87.737 14.496 94.099 22.249 97.856 31.319 C 101.614 40.39 102.596 50.371 100.681 60 C 98.765 69.629 94.038 78.474 87.096 85.416 C 80.153 92.359 71.308 97.087 61.679 99.002 C 52.05 100.917 42.069 99.934 32.998 96.177 C 23.928 92.42 16.175 86.057 10.721 77.894 C 5.266 69.731 2.354 60.133 2.354 50.316 C 2.353 43.796 3.637 37.341 6.131 31.318 C 8.625 25.295 12.281 19.822 16.891 15.212 C 21.5 10.602 26.974 6.946 32.997 4.452 C 39.02 1.957 45.476 0.674 51.995 0.676 Z" fill="#F2F1F0"/>
    <path fill-rule="evenodd" clip-rule="evenodd" d="M 95.085 50.315 C 95.085 58.838 92.557 67.169 87.822 74.255 C 83.088 81.341 76.358 86.864 68.484 90.125 C 60.611 93.387 51.947 94.24 43.588 92.577 C 35.229 90.915 27.552 86.811 21.525 80.784 C 15.499 74.758 11.395 67.08 9.732 58.722 C 8.07 50.363 8.923 41.699 12.185 33.825 C 15.446 25.952 20.97 19.222 28.056 14.487 C 35.142 9.752 43.473 7.225 51.995 7.225 C 63.423 7.225 74.383 11.765 82.464 19.846 C 90.545 27.927 95.085 38.887 95.085 50.315 Z M 51.995 3.485 C 61.257 3.485 70.311 6.232 78.012 11.377 C 85.713 16.523 91.715 23.837 95.26 32.394 C 98.804 40.951 99.732 50.367 97.925 59.451 C 96.118 68.535 91.658 76.88 85.108 83.429 C 78.559 89.978 70.215 94.438 61.131 96.245 C 52.047 98.052 42.63 97.125 34.073 93.58 C 25.516 90.036 18.202 84.034 13.057 76.332 C 7.911 68.631 5.165 59.577 5.165 50.315 C 5.165 37.895 10.099 25.984 18.881 17.201 C 27.663 8.419 39.575 3.485 51.995 3.485 Z" fill="url(#paint1_linear)"/>
    <defs>
        <linearGradient id="paint0_linear" x1="50.2246" y1="-13.7795" x2="54.2046" y2="131.99" gradientUnits="userSpaceOnUse" gradientTransform="matrix(1, 0, 0, 1, 0, -0.684658)">
            <stop stop-color="#00ABDE"/>
            <stop offset="1" stop-color="#2E7BBF"/>
        </linearGradient>
        <linearGradient id="paint1_linear" x1="3.42505" y1="-20.62" x2="98.955" y2="120.259" gradientUnits="userSpaceOnUse" gradientTransform="matrix(1, 0, 0, 1, 0, -0.684658)">
            <stop stop-color="#2E7BBF"/>
            <stop offset="0.71" stop-color="#092D4C"/>
        </linearGradient>
        <linearGradient id="gradient-1" x1="50.7415" y1="19.8557" x2="50.7415" y2="30.4318" gradientUnits="userSpaceOnUse" gradientTransform="matrix(1, 0, 0, 1, 0.715696, -0.642812)">
            <stop stop-color="#6A6A6A"/>
            <stop offset="1" stop-color="#343333"/>
        </linearGradient>
        <linearGradient id="paint2_linear" x1="50.9682" y1="85.6743" x2="50.9682" y2="68.937" gradientUnits="userSpaceOnUse" gradientTransform="matrix(1, 0, 0, 1, 0.715696, -0.642812)">
            <stop stop-color="#D2EBFF"/>
            <stop offset="1" stop-color="#F0FFFD"/>
        </linearGradient>
        <linearGradient id="paint3_linear" x1="51.0905" y1="68.3838" x2="51.0905" y2="30.7256" gradientUnits="userSpaceOnUse" gradientTransform="matrix(1, 0, 0, 1, 0.715696, -0.642812)">
            <stop stop-color="#D2EBFF"/>
            <stop offset="1" stop-color="#F0FFFD"/>
        </linearGradient>
        <linearGradient id="paint4_linear" x1="51.0793" y1="25.1845" x2="51.0793" y2="31.4189" gradientUnits="userSpaceOnUse" gradientTransform="matrix(1, 0, 0, 1, 0.715696, -0.642812)">
            <stop stop-color="#6A6A6A"/>
            <stop offset="1" stop-color="#343333"/>
        </linearGradient>
        <linearGradient id="paint5_linear" x1="51.0793" y1="67.6202" x2="51.0793" y2="71.0836" gradientUnits="userSpaceOnUse" gradientTransform="matrix(1, 0, 0, 1, 0.715696, -0.642812)">
            <stop stop-color="#6A6A6A"/>
            <stop offset="1" stop-color="#343333"/>
        </linearGradient>
        <linearGradient id="paint14_linear" x1="53.5647" y1="49.6099" x2="48.1443" y2="49.6099" gradientUnits="userSpaceOnUse" gradientTransform="matrix(1, 0, 0, 1, -5.768803, -2.52915)">
            <stop stop-color="#33BEDD"/>
            <stop offset="1" stop-color="#A5DEF3" stop-opacity="0.5"/>
        </linearGradient>
        <linearGradient id="paint15_linear" x1="53.5647" y1="49.6099" x2="48.1443" y2="49.6099" gradientUnits="userSpaceOnUse" gradientTransform="matrix(1, 0, 0, 1, -5.768803, -2.52915)">
            <stop stop-color="#33BEDD"/>
            <stop offset="1" stop-color="#A5DEF3" stop-opacity="0.5"/>
        </linearGradient>
        <linearGradient id="paint16_linear" x1="37.0643" y1="49.6099" x2="42.4748" y2="49.6099" gradientUnits="userSpaceOnUse" gradientTransform="matrix(1, 0, 0, 1, -5.768803, -2.52915)">
            <stop stop-color="#005CA1"/>
            <stop offset="1" stop-color="#005CA1" stop-opacity="0"/>
        </linearGradient>
        <linearGradient id="paint17_linear" x1="37.0451" y1="49.8399" x2="53.5646" y2="49.8399" gradientUnits="userSpaceOnUse" gradientTransform="matrix(1, 0, 0, 1, -5.768803, -2.52915)">
            <stop stop-color="#005CA1"/>
            <stop offset="0.97" stop-color="#33BEDD"/>
        </linearGradient>
    </defs>
    <path d="M 46.165 24.499 C 46.165 21.579 48.535 19.209 51.455 19.209 C 54.375 19.209 56.745 21.579 56.745 24.499 C 56.745 27.419 54.375 29.789 51.455 29.789 C 48.535 29.789 46.165 27.419 46.165 24.499 Z M 54.535 24.499 C 54.535 22.809 53.155 21.429 51.455 21.429 C 49.755 21.429 48.375 22.809 48.375 24.499 C 48.375 26.189 49.755 27.569 51.455 27.569 C 53.155 27.569 54.535 26.199 54.535 24.499 Z" fill="url(#gradient-1)"/>
    <path d="M 67.885 85.7 L 64.495 79.45 L 39.145 79.45 L 39.145 78.94 L 35.485 85.7 L 33.055 84.38 L 42.105 67.64 L 44.545 68.96 L 40.365 76.68 L 62.995 76.68 L 58.825 68.96 L 61.255 67.64 L 70.315 84.38 L 67.885 85.7 Z" fill="url(#paint2_linear)"/>
    <path d="M 80.015 30.08 L 23.595 30.08 L 23.595 67.74 L 80.015 67.74 L 80.015 30.08 Z" fill="url(#paint3_linear)"/>
    <path fill-rule="evenodd" clip-rule="evenodd" d="M 21.895 24.499 L 81.695 24.499 C 82.305 24.499 82.805 24.999 82.805 25.609 L 82.805 29.669 C 82.805 30.279 82.305 30.779 81.695 30.779 L 21.895 30.779 C 21.285 30.779 20.785 30.279 20.785 29.669 L 20.785 25.609 C 20.785 24.999 21.285 24.499 21.895 24.499 Z" fill="url(#paint4_linear)"/>
    <path fill-rule="evenodd" clip-rule="evenodd" d="M 21.895 66.95 L 81.695 66.95 C 82.305 66.95 82.805 67.45 82.805 68.06 L 82.805 69.33 C 82.805 69.94 82.305 70.44 81.695 70.44 L 21.895 70.44 C 21.285 70.44 20.785 69.94 20.785 69.33 L 20.785 68.06 C 20.785 67.44 21.285 66.95 21.895 66.95 Z" fill="url(#paint5_linear)"/>
    <mask id="mask0" mask-type="alpha" maskUnits="userSpaceOnUse" x="60" y="49" width="16" height="16">
        <path fill-rule="evenodd" clip-rule="evenodd" d="M60 56.9999C60 61.4183 63.5817 65 67.9999 65C72.4182 65 76 61.4183 76 56.9999H67.9999V49C63.5817 49 60 52.5816 60 56.9999Z" fill="white"/>
    </mask>
    <g mask="url(#mask0)" transform="matrix(0.518898, 0, 0, 0.521021, 29.724342, 15.613501)" style="">
        <path fill-rule="evenodd" clip-rule="evenodd" d="M59 66H77V48H59V66Z" fill="#0266AB"/>
    </g>
    <mask id="mask1" mask-type="alpha" maskUnits="userSpaceOnUse" x="69" y="47" width="8" height="8">
        <path fill-rule="evenodd" clip-rule="evenodd" d="M69 55H77C77 50.5817 73.4183 47 69 47V55Z" fill="white"/>
    </mask>
    <g mask="url(#mask1)" transform="matrix(0.518898, 0, 0, 0.521021, 29.724342, 15.613501)" style="">
        <path fill-rule="evenodd" clip-rule="evenodd" d="M69.6665 55.2725H77.6665V46.2725H69.6665V55.2725Z" fill="#2C4A74"/>
    </g>
    <path d="M 78.624 60.171 C 78.759 60.051 78.771 59.844 78.652 59.708 L 70.974 50.978 C 70.855 50.842 70.648 50.829 70.512 50.95 L 69.415 51.928 C 69.281 52.048 69.268 52.255 69.387 52.391 L 77.065 61.121 C 77.185 61.258 77.392 61.27 77.527 61.15 L 78.624 60.171 Z" fill="#C5CCCD" style=""/>
    <path fill-rule="evenodd" clip-rule="evenodd" d="M 64.595 54.918 C 59.168 54.585 55.037 49.898 55.368 44.449 C 55.7 39 60.368 34.852 65.795 35.185 C 71.222 35.517 75.353 40.205 75.021 45.654 C 74.69 51.103 70.022 55.251 64.595 54.918 Z M 64.841 52.691 C 60.643 52.434 57.448 48.808 57.704 44.593 C 57.96 40.377 61.571 37.169 65.77 37.426 C 69.968 37.683 73.164 41.309 72.907 45.525 C 72.651 49.74 69.04 52.949 64.841 52.691 Z" fill="#50E6FF" style=""/>
    <path d="M 36.656 40.021 L 31.345 43.021 L 25.876 40.021 L 31.345 36.831 L 36.656 40.021 Z" fill="#699CD3"/>
    <path d="M 36.656 54.141 L 31.345 50.951 L 31.345 57.331 L 36.656 54.141 Z" fill="#005CA1"/>
    <path d="M 31.345 43.051 L 25.876 40.051 L 25.876 54.171 L 31.345 57.361 L 36.656 54.171 L 31.345 57.361 L 31.345 50.981 L 36.656 54.171 L 36.656 40.051 L 31.345 43.051 Z" fill="#2E76BC"/>
    <path d="M 42.425 40.021 L 47.746 43.021 L 53.206 40.021 L 47.746 36.831 L 42.425 40.021 Z" fill="#A5DEF3"/>
    <path d="M 42.425 54.141 L 47.746 50.951 L 47.746 57.331 L 42.425 54.141 Z" fill="#33BEDD"/>
    <path d="M 47.746 43.051 L 47.746 50.951 L 42.425 54.141 L 42.425 40.021 L 47.746 43.051 Z" fill="url(#paint14_linear)"/>
    <path d="M 47.746 43.051 L 42.425 40.051 L 42.425 54.171 L 47.746 50.981 L 47.746 57.361 L 42.425 54.171 L 47.746 57.361 L 53.206 54.171 L 53.206 40.051 L 47.746 43.051 Z" fill="#74CFEB"/>
    <path d="M 47.746 43.051 L 47.746 50.951 L 42.425 54.141 L 42.425 40.021 L 47.746 43.051 Z" fill="url(#paint15_linear)"/>
    <path d="M 31.345 43.051 L 31.345 50.951 L 36.656 54.141 L 36.656 40.021 L 31.345 43.051 Z" fill="url(#paint16_linear)"/>
    <path d="M 47.746 48.521 C 46.826 50.951 43.036 52.521 39.746 52.521 L 39.436 52.521 C 35.946 52.521 32.306 51.001 31.436 48.521 L 31.436 45.941 C 32.046 48.671 35.686 50.491 39.436 50.491 L 39.746 50.491 C 43.536 50.491 47.036 48.491 47.746 45.941 L 47.746 48.521 Z M 46.226 42.141 C 44.388 43.649 42.074 44.457 39.696 44.421 L 39.385 44.421 C 37.04 44.436 34.754 43.692 32.866 42.301 L 31.496 43.051 C 32.706 45.181 36.205 46.391 39.385 46.391 L 39.696 46.391 C 42.886 46.391 46.376 45.031 47.586 42.901 L 46.226 42.141 Z" fill="url(#paint17_linear)"/>
</svg>