<svg width="180" height="190" viewBox="0 0 180 190" fill="none" xmlns="http://www.w3.org/2000/svg">
<path d="M90.0001 189C93.0601 189 96.0701 188.15 98.7301 186.53L160.7 148.87C166.24 145.5 169.67 139.17 169.67 132.33V57.6201C169.67 50.8001 166.24 44.4601 160.7 41.0801L98.7301 3.42006C93.4001 0.180064 86.5801 0.200064 81.2801 3.42006L19.3101 41.1001C13.7701 44.4701 10.3201 50.8001 10.3201 57.6401V132.34C10.3201 138.1 12.7701 143.52 16.8701 147.09V147.12L81.2801 186.55C83.9201 188.15 86.9401 189 90.0001 189ZM90.6501 7.95006C92.6001 7.95006 95.0801 9.16006 96.7901 10.2101L157.55 47.4001C161.3 49.6801 163.42 56.2801 163.42 61.0301L162.79 132.33C162.79 137.08 159.59 141.35 155.84 143.63L95.4401 180.01C92.0101 182.1 89.2201 182.1 85.7801 180.01L24.5701 143.54C20.8201 141.26 17.8001 137.06 17.8001 132.33V58.6901C17.8001 53.9501 20.5301 49.0601 24.3001 46.7701L84.8801 10.2101C86.5801 9.17006 88.7001 7.95006 90.6501 7.95006Z" fill="#F2F1F0"/>
<path fill-rule="evenodd" clip-rule="evenodd" d="M97.9001 11.5298C95.4501 10.0298 92.7301 9.27979 90.0001 9.27979C87.2701 9.27979 84.5501 10.0398 82.1001 11.5298L25.9701 45.8598C20.9501 48.9298 17.8401 54.6798 17.8401 60.9298V129.03C17.8401 135.26 20.9401 141.03 25.9701 144.1L82.1001 178.43C84.5501 179.93 87.2701 180.68 90.0001 180.68C92.7301 180.68 95.4501 179.94 97.9001 178.43L154.03 144.1C159.05 141.03 162.16 135.26 162.16 129.03V60.9298C162.16 54.6998 159.06 48.9498 154.03 45.8598L97.9001 11.5298Z" fill="url(#paint0_linear)"/>
<path fill-rule="evenodd" clip-rule="evenodd" d="M90.0001 10.75C91.6801 10.75 93.5701 11.62 95.6301 12.87L154.1 48.41C157.75 50.63 160.16 54.9 160.16 59.73V130.21C160.16 135.03 157.75 139.31 154.1 141.53L95.6401 177.07C93.6801 178.26 91.7601 179.01 90.0101 179.01C88.2601 179.01 86.3401 178.26 84.3801 177.07L25.9001 141.54C23.8901 140.31 22.4401 139.11 21.4601 137.5C20.4801 135.9 19.8401 133.68 19.8401 130.22V59.74C19.8401 54.91 22.2501 50.64 25.9001 48.42L84.3601 12.88C86.4501 11.63 88.3101 10.75 90.0001 10.75ZM97.7101 180.5L156.17 144.96C161.09 141.97 164.15 136.35 164.15 130.22V59.74C164.15 53.61 161.09 47.99 156.17 45L97.7101 9.46C95.6001 8.18 92.8901 6.75 90.0001 6.75C87.1001 6.75 84.3901 8.19 82.3001 9.45H82.2901L23.8201 45C18.9001 47.99 15.8401 53.61 15.8401 59.74V130.22C15.8401 134.18 16.5801 137.17 18.0401 139.58C19.5001 141.98 21.5601 143.58 23.8201 144.95L82.2801 180.49C84.5001 181.84 87.1701 183.02 89.9901 183.02C92.8101 183.02 95.4901 181.85 97.7101 180.5Z" fill="url(#paint1_linear)"/>
<path opacity="0.15" d="M86.02 58.2803H29.67C28.45 58.2803 27.47 59.2603 27.47 60.4803V134.02C27.47 135.24 28.45 136.22 29.67 136.22H86.02C87.24 136.22 88.22 135.24 88.22 134.02V60.4803C88.2 59.2603 87.23 58.2803 86.02 58.2803Z" fill="#1F1D20"/>
<path d="M86.02 55.5601H29.67C28.45 55.5601 27.47 56.5401 27.47 57.7601V131.3C27.47 132.52 28.45 133.5 29.67 133.5H86.02C87.24 133.5 88.22 132.52 88.22 131.3V57.7601C88.2 56.5401 87.23 55.5601 86.02 55.5601Z" fill="#F2F2F2"/>
<path opacity="0.15" d="M150.33 58.2803H93.98C92.76 58.2803 91.78 59.2603 91.78 60.4803V134.02C91.78 135.24 92.76 136.22 93.98 136.22H150.33C151.55 136.22 152.53 135.24 152.53 134.02V60.4803C152.51 59.2603 151.53 58.2803 150.33 58.2803Z" fill="#1F1D20"/>
<path d="M150.33 55.5601H93.98C92.76 55.5601 91.78 56.5401 91.78 57.7601V131.3C91.78 132.52 92.76 133.5 93.98 133.5H150.33C151.55 133.5 152.53 132.52 152.53 131.3V57.7601C152.51 56.5401 151.53 55.5601 150.33 55.5601Z" fill="#F2F2F2"/>
<path d="M48.1197 75.8001C48.4197 74.9201 49.2397 74.3301 50.1597 74.3301H63.6997L49.6497 115.97C49.3497 116.85 48.5297 117.44 47.6097 117.44H37.0697C35.5997 117.44 34.5597 115.99 35.0297 114.6L48.1197 75.8001Z" fill="url(#paint2_linear)"/>
<path d="M69.7698 102.35H48.4298C47.5298 102.35 47.0998 103.45 47.7598 104.06L61.4698 116.86C61.8698 117.23 62.3898 117.44 62.9398 117.44H75.0198L69.7698 102.35Z" fill="#0078D4"/>
<path d="M63.6998 74.3398H48.6198L34.0698 117.44H49.1598L52.2598 108.26L62.0898 117.44H75.0198L69.7698 102.35H54.2498L63.6998 74.3398Z" fill="url(#paint3_linear)"/>
<path d="M67.4297 75.8001C67.1297 74.9201 66.3097 74.3301 65.3897 74.3301H50.2297H50.2997C51.2197 74.3301 52.0497 74.9201 52.3397 75.8001L65.4297 114.59C65.8997 115.99 64.8597 117.43 63.3897 117.43H63.1597H78.4797C79.9497 117.43 80.9897 115.98 80.5197 114.59L67.4297 75.8001Z" fill="url(#paint4_linear)"/>
<path d="M122.55 119.88C135.85 119.88 146.63 109.14 146.63 95.8899C146.63 82.6399 135.84 71.8999 122.55 71.8999C109.25 71.8999 98.47 82.6399 98.47 95.8899C98.47 109.14 109.25 119.88 122.55 119.88Z" fill="url(#paint5_radial)"/>
<path d="M122.55 116.76C134.13 116.76 143.51 107.41 143.51 95.88C143.51 84.35 134.13 75 122.55 75C110.97 75 101.59 84.35 101.59 95.88C101.59 107.42 110.97 116.76 122.55 116.76Z" fill="white"/>
<path d="M104.76 97.1299C105.05 101.41 106.88 105.43 109.92 108.46L115.58 102.8C114.05 101.27 113.05 99.2799 112.75 97.1399H104.76V97.1299Z" fill="#9CEBFF"/>
<path d="M134.25 82.4897C131.33 79.9397 127.66 78.4197 123.8 78.1597V86.0597C125.57 86.2597 127.24 86.9497 128.64 88.0397L134.25 82.4897Z" fill="#32BEDD"/>
<path d="M110.85 82.4899L116.51 88.1499C117.91 87.0599 119.59 86.3699 121.35 86.1699V78.1499C117.47 78.4099 113.78 79.9299 110.85 82.4899Z" fill="#32BEDD"/>
<path d="M130.42 89.7998C131.5 91.2098 132.19 92.8797 132.43 94.6397H140.33C140.07 90.7897 138.55 87.1397 136 84.2397L130.42 89.7998Z" fill="#32BEDD"/>
<path d="M114.67 89.8001L109.01 84.1401C106.46 87.0701 104.97 90.7701 104.76 94.6501H112.66C112.9 92.8801 113.59 91.2101 114.67 89.8001Z" fill="#50E6FF"/>
<path d="M137.11 90.2197C136.98 89.9197 136.75 89.6697 136.44 89.5397C136.14 89.4097 135.8 89.3997 135.49 89.5097L123.82 94.2097L124.73 96.4997L136.4 91.8797C136.56 91.8197 136.71 91.7297 136.83 91.6097C136.95 91.4897 137.05 91.3497 137.12 91.1897C137.19 91.0297 137.22 90.8697 137.22 90.6997C137.21 90.5497 137.18 90.3797 137.11 90.2197Z" fill="#F04049"/>
<path d="M122.55 99.2897C124.43 99.2897 125.95 97.7697 125.95 95.8897C125.95 94.0097 124.43 92.4897 122.55 92.4897C120.67 92.4897 119.15 94.0097 119.15 95.8897C119.15 97.7697 120.67 99.2897 122.55 99.2897Z" fill="url(#paint6_radial)"/>
<defs>
<linearGradient id="paint0_linear" x1="89.9997" y1="9.27959" x2="89.9997" y2="180.679" gradientUnits="userSpaceOnUse">
<stop stop-color="#00ABDE"/>
<stop offset="1" stop-color="#007ED8"/>
</linearGradient>
<linearGradient id="paint1_linear" x1="36.1196" y1="4.0708" x2="202.796" y2="286.402" gradientUnits="userSpaceOnUse">
<stop stop-color="#007ED8"/>
<stop offset="0.7065" stop-color="#002D4C"/>
</linearGradient>
<linearGradient id="paint2_linear" x1="55.0995" y1="77.5304" x2="41.0413" y2="119.062" gradientUnits="userSpaceOnUse">
<stop stop-color="#114A8B"/>
<stop offset="1" stop-color="#0669BC"/>
</linearGradient>
<linearGradient id="paint3_linear" x1="59.3891" y1="96.7161" x2="56.0559" y2="97.8533" gradientUnits="userSpaceOnUse">
<stop stop-opacity="0.3"/>
<stop offset="0.0712" stop-opacity="0.2"/>
<stop offset="0.321" stop-opacity="0.1"/>
<stop offset="0.6231" stop-opacity="0.05"/>
<stop offset="1" stop-opacity="0"/>
</linearGradient>
<linearGradient id="paint4_linear" x1="57.6773" y1="76.3189" x2="73.1088" y2="117.432" gradientUnits="userSpaceOnUse">
<stop stop-color="#3CCBF4"/>
<stop offset="1" stop-color="#2892DF"/>
</linearGradient>
<radialGradient id="paint5_radial" cx="0" cy="0" r="1" gradientUnits="userSpaceOnUse" gradientTransform="translate(122.548 95.9815) scale(24.0825)">
<stop offset="0.18" stop-color="#5EA0EF"/>
<stop offset="0.56" stop-color="#5C9FEE"/>
<stop offset="0.69" stop-color="#559CED"/>
<stop offset="0.78" stop-color="#4A97E9"/>
<stop offset="0.86" stop-color="#3990E4"/>
<stop offset="0.93" stop-color="#2387DE"/>
<stop offset="0.99" stop-color="#087BD6"/>
<stop offset="1" stop-color="#0078D4"/>
</radialGradient>
<radialGradient id="paint6_radial" cx="0" cy="0" r="1" gradientUnits="userSpaceOnUse" gradientTransform="translate(122.548 90.6914) scale(7.26982)">
<stop offset="0.19" stop-color="#8C8E90"/>
<stop offset="0.35" stop-color="#848688"/>
<stop offset="0.6" stop-color="#6E7071"/>
<stop offset="0.91" stop-color="#4A4B4C"/>
<stop offset="1" stop-color="#3E3F3F"/>
</radialGradient>
</defs>
</svg>
