<svg width="103" height="103" viewBox="0 0 103 103" fill="none" xmlns="http://www.w3.org/2000/svg">
<path d="M51.8095 98.0375C25.9595 98.0375 4.99951 77.0875 4.99951 51.2275C4.99951 25.3675 25.9595 4.41748 51.8095 4.41748C77.6595 4.41748 98.6195 25.3775 98.6195 51.2275C98.6195 77.0775 77.6595 98.0375 51.8095 98.0375Z" fill="url(#paint0_linear_1145_696)"/>
<path fill-rule="evenodd" clip-rule="evenodd" d="M97.7097 51.2276C97.7097 76.5776 77.1597 97.1276 51.8097 97.1276C26.4597 97.1276 5.90968 76.5776 5.90968 51.2276C5.90968 25.8776 26.4597 5.32765 51.8097 5.32765C77.1597 5.32765 97.7097 25.8776 97.7097 51.2276ZM51.8097 1.58765C79.2297 1.58765 101.45 23.8076 101.45 51.2276C101.45 78.6476 79.2197 100.868 51.8097 100.868C24.3897 100.868 2.16968 78.6376 2.16968 51.2276C2.16968 23.8076 24.3897 1.58765 51.8097 1.58765Z" fill="#F2F1F0"/>
<path fill-rule="evenodd" clip-rule="evenodd" d="M94.8995 51.2276C94.8995 75.0276 75.6095 94.3176 51.8095 94.3176C28.0095 94.3176 8.71949 75.0276 8.71949 51.2276C8.71949 27.4276 28.0095 8.13759 51.8095 8.13759C75.6095 8.13759 94.8995 27.4276 94.8995 51.2276ZM51.8095 4.39758C77.6695 4.39758 98.6395 25.3676 98.6395 51.2276C98.6395 77.0876 77.6695 98.0576 51.8095 98.0576C25.9495 98.0576 4.97949 77.0876 4.97949 51.2276C4.97949 25.3676 25.9395 4.39758 51.8095 4.39758Z" fill="url(#paint1_linear_1145_696)"/>
<path d="M82.908 26.4751H25.7479C24.1279 26.4751 22.8147 27.7883 22.8147 29.4083V70.3473C22.8147 71.9672 24.1279 73.2805 25.7479 73.2805H82.908C84.5279 73.2805 85.8411 71.9672 85.8411 70.3473V29.4083C85.8411 27.7883 84.5279 26.4751 82.908 26.4751Z" fill="#00244D"/>
<path d="M81.0518 28.3314H23.8917C22.2717 28.3314 20.9585 29.6446 20.9585 31.2646V72.2036C20.9585 73.8235 22.2717 75.1368 23.8917 75.1368H81.0518C82.6717 75.1368 83.9849 73.8235 83.9849 72.2036V31.2646C83.9849 29.6446 82.6717 28.3314 81.0518 28.3314Z" fill="#003067"/>
<path d="M79.1954 30.1877H22.0352C20.4153 30.1877 19.1021 31.5009 19.1021 33.1209V74.0599C19.1021 75.6799 20.4153 76.9931 22.0352 76.9931H79.1954C80.8153 76.9931 82.1284 75.6799 82.1284 74.0599V33.1209C82.1284 31.5009 80.8153 30.1877 79.1954 30.1877Z" fill="url(#paint2_linear_1145_696)"/>
<path opacity="0.15" d="M21.086 34.9002V73.6292C21.086 74.7553 22.0049 75.6742 23.131 75.6742H78.184C79.3101 75.6652 80.229 74.7553 80.229 73.6382V34.9002C80.229 33.7741 79.3101 32.8552 78.184 32.8552H23.113C21.9959 32.8732 21.086 33.7831 21.086 34.9002Z" fill="#1F1D20"/>
<path d="M21.086 34.2514V72.9714C21.086 74.0975 22.0049 75.0164 23.131 75.0164H78.184C79.3101 75.0164 80.229 74.0975 80.229 72.9714V34.2514C80.229 33.1253 79.3101 32.2064 78.184 32.2064H23.113C21.9959 32.2064 21.086 33.1253 21.086 34.2514Z" fill="url(#paint3_linear_1145_696)"/>
<g opacity="0.15">
<path opacity="0.15" d="M25.5905 65.6561H29.5183C29.6715 65.6561 29.7886 65.539 29.7886 65.3859C29.7886 65.2327 29.6715 65.1156 29.5183 65.1156H25.8607V42.7196H29.5183C29.6715 42.7196 29.7886 42.6025 29.7886 42.4493C29.7886 42.2962 29.6715 42.1791 29.5183 42.1791H25.5905C25.4373 42.1791 25.3202 42.2962 25.3202 42.4493V65.3859C25.3202 65.53 25.4373 65.6561 25.5905 65.6561Z" fill="#1F1D20"/>
</g>
<path opacity="0.15" d="M32.5724 62.0887C32.5724 61.6743 32.9057 61.35 33.3201 61.35C33.7345 61.35 34.0679 61.6833 34.0679 62.0887C34.0679 62.5031 33.7345 62.8274 33.3201 62.8274C32.9057 62.8274 32.5724 62.4941 32.5724 62.0887Z" fill="#1F1D20"/>
<path opacity="0.15" d="M30.302 62.0887C30.302 62.5031 29.9687 62.8274 29.5543 62.8274C29.1399 62.8274 28.8065 62.4941 28.8065 62.0887C28.8065 61.6743 29.1399 61.35 29.5543 61.35C29.9687 61.35 30.302 61.6833 30.302 62.0887Z" fill="#1F1D20"/>
<path opacity="0.15" d="M32.3383 58.8275C32.3383 58.4131 32.6716 58.0887 33.086 58.0887C33.5004 58.0887 33.8337 58.4221 33.8337 58.8275C33.8337 59.2419 33.5004 59.5662 33.086 59.5662C32.6716 59.5662 32.3383 59.2419 32.3383 58.8275Z" fill="#1F1D20"/>
<path opacity="0.15" d="M28.8246 58.8275C28.8246 58.4131 29.1579 58.0887 29.5723 58.0887C29.9867 58.0887 30.3201 58.4221 30.3201 58.8275C30.3201 59.2419 29.9867 59.5662 29.5723 59.5662C29.1579 59.5662 28.8246 59.2419 28.8246 58.8275Z" fill="#1F1D20"/>
<path opacity="0.15" d="M32.3383 55.5843C32.3383 55.1699 32.6716 54.8456 33.086 54.8456C33.5004 54.8456 33.8337 55.1789 33.8337 55.5843C33.8337 55.9987 33.5004 56.323 33.086 56.323C32.6716 56.323 32.3383 55.9897 32.3383 55.5843Z" fill="#1F1D20"/>
<path opacity="0.15" d="M29.5635 56.323C29.1491 56.323 28.8158 55.9897 28.8158 55.5843C28.8158 55.1699 29.1491 54.8456 29.5635 54.8456C29.978 54.8456 30.3113 55.1789 30.3113 55.5843C30.3023 55.9897 29.9689 56.323 29.5635 56.323Z" fill="#1F1D20"/>
<path opacity="0.15" d="M32.3383 52.3231C32.3383 51.9087 32.6716 51.5844 33.086 51.5844C33.5004 51.5844 33.8337 51.9177 33.8337 52.3231C33.8337 52.7285 33.5004 53.0618 33.086 53.0618C32.6716 53.0618 32.3383 52.7285 32.3383 52.3231Z" fill="#1F1D20"/>
<path opacity="0.15" d="M28.8246 52.3231C28.8246 51.9087 29.1579 51.5844 29.5723 51.5844C29.9867 51.5844 30.3201 51.9177 30.3201 52.3231C30.3201 52.7285 29.9867 53.0618 29.5723 53.0618C29.1579 53.0618 28.8246 52.7285 28.8246 52.3231Z" fill="#1F1D20"/>
<path opacity="0.15" d="M32.3383 49.0709C32.3383 48.6565 32.6716 48.3322 33.086 48.3322C33.5004 48.3322 33.8337 48.6655 33.8337 49.0709C33.8337 49.4853 33.5004 49.8096 33.086 49.8096C32.6716 49.8096 32.3383 49.4763 32.3383 49.0709Z" fill="#1F1D20"/>
<path opacity="0.15" d="M28.8246 49.0709C28.8246 48.6565 29.1579 48.3322 29.5723 48.3322C29.9867 48.3322 30.3201 48.6655 30.3201 49.0709C30.3201 49.4853 29.9867 49.8096 29.5723 49.8096C29.1579 49.8096 28.8246 49.4763 28.8246 49.0709Z" fill="#1F1D20"/>
<path opacity="0.15" d="M32.3383 45.8187C32.3383 45.4043 32.6716 45.08 33.086 45.08C33.5004 45.08 33.8337 45.4133 33.8337 45.8187C33.8337 46.2241 33.5004 46.5574 33.086 46.5574C32.6716 46.5574 32.3383 46.2241 32.3383 45.8187Z" fill="#1F1D20"/>
<path opacity="0.15" d="M28.8246 45.8187C28.8246 45.4043 29.1579 45.08 29.5723 45.08C29.9867 45.08 30.3201 45.4133 30.3201 45.8187C30.3201 46.2241 29.9867 46.5574 29.5723 46.5574C29.1579 46.5574 28.8246 46.2241 28.8246 45.8187Z" fill="#1F1D20"/>
<path d="M32.5724 61.6654C32.5724 61.251 32.9057 60.9266 33.3201 60.9266C33.7345 60.9266 34.0679 61.26 34.0679 61.6654C34.0679 62.0708 33.7345 62.4041 33.3201 62.4041C32.9057 62.4041 32.5724 62.0708 32.5724 61.6654Z" fill="url(#paint4_linear_1145_696)"/>
<path d="M30.302 61.6654C30.302 62.0798 29.9687 62.4041 29.5543 62.4041C29.1399 62.4041 28.8065 62.0708 28.8065 61.6654C28.8065 61.26 29.1399 60.9266 29.5543 60.9266C29.9687 60.9266 30.302 61.26 30.302 61.6654Z" fill="url(#paint5_linear_1145_696)"/>
<path d="M32.338 58.4132C32.338 57.9988 32.6714 57.6744 33.0858 57.6744C33.5002 57.6744 33.8335 58.0078 33.8335 58.4132C33.8335 58.8276 33.5002 59.1519 33.0858 59.1519C32.6714 59.1519 32.338 58.8186 32.338 58.4132Z" fill="url(#paint6_linear_1145_696)"/>
<path d="M28.8246 58.4132C28.8246 57.9988 29.1579 57.6744 29.5723 57.6744C29.9867 57.6744 30.3201 58.0078 30.3201 58.4132C30.3201 58.8276 29.9867 59.1519 29.5723 59.1519C29.1579 59.1519 28.8246 58.8186 28.8246 58.4132Z" fill="url(#paint7_linear_1145_696)"/>
<path d="M32.338 55.161C32.338 54.7466 32.6714 54.4222 33.0858 54.4222C33.5002 54.4222 33.8335 54.7556 33.8335 55.161C33.8335 55.5754 33.5002 55.8997 33.0858 55.8997C32.6714 55.8997 32.338 55.5664 32.338 55.161Z" fill="#3BCAF4"/>
<path d="M29.5635 55.8997C29.1491 55.8997 28.8158 55.5664 28.8158 55.161C28.8158 54.7466 29.1491 54.4222 29.5635 54.4222C29.978 54.4222 30.3113 54.7556 30.3113 55.161C30.3023 55.5664 29.9689 55.8997 29.5635 55.8997Z" fill="url(#paint8_linear_1145_696)"/>
<path d="M32.338 51.8997C32.338 51.4853 32.6714 51.161 33.0858 51.161C33.5002 51.161 33.8335 51.4943 33.8335 51.8997C33.8335 52.3051 33.5002 52.6385 33.0858 52.6385C32.6714 52.6385 32.338 52.3051 32.338 51.8997Z" fill="#50E6FF"/>
<path d="M28.8246 51.8997C28.8246 51.4853 29.1579 51.161 29.5723 51.161C29.9867 51.161 30.3201 51.4943 30.3201 51.8997C30.3201 52.3051 29.9867 52.6385 29.5723 52.6385C29.1579 52.6385 28.8246 52.3051 28.8246 51.8997Z" fill="#50E6FF"/>
<path d="M32.338 48.6475C32.338 48.2331 32.6714 47.9088 33.0858 47.9088C33.5002 47.9088 33.8335 48.2421 33.8335 48.6475C33.8335 49.0619 33.5002 49.3863 33.0858 49.3863C32.6714 49.3863 32.338 49.0529 32.338 48.6475Z" fill="#50E6FF"/>
<path d="M28.8246 48.6475C28.8246 48.2331 29.1579 47.9088 29.5723 47.9088C29.9867 47.9088 30.3201 48.2421 30.3201 48.6475C30.3201 49.0619 29.9867 49.3863 29.5723 49.3863C29.1579 49.3863 28.8246 49.0529 28.8246 48.6475Z" fill="#50E6FF"/>
<path d="M32.338 45.3953C32.338 44.9809 32.6714 44.6566 33.0858 44.6566C33.5002 44.6566 33.8335 44.9899 33.8335 45.3953C33.8335 45.8007 33.5002 46.1341 33.0858 46.1341C32.6714 46.1341 32.338 45.8007 32.338 45.3953Z" fill="#9CEBFF"/>
<path d="M28.8246 45.3953C28.8246 44.9809 29.1579 44.6566 29.5723 44.6566C29.9867 44.6566 30.3201 44.9899 30.3201 45.3953C30.3201 45.8007 29.9867 46.1341 29.5723 46.1341C29.1579 46.1341 28.8246 45.8007 28.8246 45.3953Z" fill="#50E6FF"/>
<path opacity="0.15" d="M35.6575 42.5849V42.2061C35.6575 41.7372 35.2787 41.3584 34.8097 41.3584H19.1297C19.1297 41.3584 19.126 43.1515 19.126 43.6205V44.0414V44.4262L19.0635 62.5447C19.0635 63.0137 19.1297 65.5942 19.1297 65.5942H34.8157C35.2847 65.5942 35.6635 65.2154 35.6635 64.7465V42.627C35.6635 42.612 35.6575 42.5999 35.6575 42.5849Z" fill="#1F1D20"/>
<g filter="url(#filter0_d_1145_696)">
<path d="M34.2618 43.8308V43.4954C34.2618 43.0801 33.9264 42.7446 33.5111 42.7446H13.3977C12.9824 42.7446 12.647 43.0801 12.647 43.4954V43.8681V44.2089V63.457C12.647 63.8723 12.9824 64.2078 13.3977 64.2078H33.5164C33.9317 64.2078 34.2672 63.8723 34.2672 63.457V43.8681C34.2672 43.8548 34.2618 43.8441 34.2618 43.8308Z" fill="white"/>
</g>
<path d="M24.4466 60.4635L16.0317 58.8852V47.9413L24.4466 46.4844V60.4635Z" fill="#2F2C69"/>
<path d="M30.5728 58.5756H24.9636V48.3541H30.5728C30.7439 48.3541 30.8823 48.4925 30.8823 48.6637V58.266C30.8823 58.4372 30.7439 58.5756 30.5728 58.5756Z" fill="#2F2C69"/>
<path d="M25.7552 51.7961H24.9636V57.3543H25.7552V51.7961Z" fill="white"/>
<path d="M26.1502 57.3545H27.7334V53.4487H26.1502V57.3545Z" fill="white"/>
<path d="M28.2142 57.3538H29.7974V50.1092H28.2142V57.3538Z" fill="white"/>
<path d="M19.3717 50.7811H18.2183V55.9095H19.3717V50.7811Z" fill="white"/>
<path d="M22.3827 55.9083H21.0229L19.3025 53.4303L20.9027 50.7811H22.3827L20.5069 53.2409L22.3827 55.9083Z" fill="white"/>
<path fill-rule="evenodd" clip-rule="evenodd" d="M32.4988 53.4353L52.1222 53.4353L52.1222 54.0353L32.4988 54.0353L32.4988 53.4353Z" fill="white"/>
<path fill-rule="evenodd" clip-rule="evenodd" d="M37.8625 40.8349C37.8625 40.6692 37.9969 40.5349 38.1625 40.5349H56.8725V41.1349H38.4625V66.1849H56.8725V66.7849H38.1625C37.9969 66.7849 37.8625 66.6506 37.8625 66.4849V40.8349Z" fill="white"/>
<path d="M72.411 48.9574H42.8719C42.4439 48.9574 42.0928 49.3085 42.0928 49.7365V56.5178C42.0928 56.9457 42.4439 57.2968 42.8719 57.2968H72.411C72.839 57.2968 73.1901 56.9457 73.1901 56.5178V49.7365C73.1901 49.3085 72.839 48.9574 72.411 48.9574Z" fill="url(#paint9_linear_1145_696)"/>
<path d="M72.411 34.8135H42.8719C42.4439 34.8135 42.0928 35.1646 42.0928 35.5926V46.763C42.0928 47.191 42.4439 47.5421 42.8719 47.5421H72.411C72.839 47.5421 73.1901 47.191 73.1901 46.763V35.5926C73.1901 35.1646 72.839 34.8135 72.411 34.8135Z" fill="url(#paint10_linear_1145_696)"/>
<path opacity="0.15" d="M76.099 35.5879H46.5598C46.1319 35.5879 45.7808 35.939 45.7808 36.367V47.5374C45.7808 47.9654 46.1319 48.3165 46.5598 48.3165H76.099C76.527 48.3165 76.8781 47.9654 76.8781 47.5374V36.367C76.8781 35.939 76.527 35.5879 76.099 35.5879Z" fill="#1F1D20"/>
<path opacity="0.15" d="M76.099 49.7333H46.5598C46.1319 49.7333 45.7808 50.0844 45.7808 50.5124V57.2936C45.7808 57.7216 46.1319 58.0727 46.5598 58.0727H76.099C76.527 58.0727 76.8781 57.7216 76.8781 57.2936V50.5124C76.8781 50.0844 76.527 49.7333 76.099 49.7333Z" fill="#1F1D20"/>
<g filter="url(#filter1_d_1145_696)">
<path d="M76.099 34.8135H46.5598C46.1319 34.8135 45.7808 35.1646 45.7808 35.5926V46.763C45.7808 47.191 46.1319 47.5421 46.5598 47.5421H76.099C76.527 47.5421 76.8781 47.191 76.8781 46.763V35.5926C76.8781 35.1646 76.527 34.8135 76.099 34.8135Z" fill="white"/>
</g>
<path d="M49.5554 38.0958H49.2811C49.1055 38.0958 48.9629 38.2385 48.9629 38.414V38.5347C48.9629 38.7103 49.1055 38.853 49.2811 38.853H49.5554C49.731 38.853 49.8736 38.7103 49.8736 38.5347V38.414C49.8736 38.2275 49.731 38.0958 49.5554 38.0958Z" fill="#ACF3FD"/>
<path d="M49.8736 39.9164H48.9629V40.6735H49.8736V39.9164Z" fill="#ACF3FD"/>
<path d="M49.8736 41.5851H48.9629V42.3422H49.8736V41.5851Z" fill="#84ECFD"/>
<path d="M49.8736 43.4174H48.9629V44.1745H49.8736V43.4174Z" fill="#50E6FF"/>
<path d="M54.7348 41.5851H52.2988V42.3422H54.7348V41.5851Z" fill="#84ECFD"/>
<path d="M64.1716 38.0841H52.6829C52.4854 38.0841 52.3318 38.2377 52.3318 38.4352C52.3318 38.6328 52.4854 38.7864 52.6829 38.7864H64.1826C64.3801 38.7864 64.5337 38.6328 64.5337 38.4352C64.5337 38.2377 64.3691 38.0841 64.1716 38.0841Z" fill="#ACF3FD"/>
<path d="M68.012 41.6289H55.9417C55.7442 41.6289 55.5906 41.7825 55.5906 41.98C55.5906 42.1776 55.7442 42.3312 55.9417 42.3312H68.012C68.2095 42.3312 68.3631 42.1776 68.3631 41.98C68.3631 41.7935 68.2095 41.6289 68.012 41.6289Z" fill="#84ECFD"/>
<path d="M60.3417 43.4714H52.8143C52.6168 43.4714 52.4631 43.6251 52.4631 43.8226C52.4631 44.0201 52.6168 44.1737 52.8143 44.1737H60.3417C60.5392 44.1737 60.6928 44.0201 60.6928 43.8226C60.6928 43.636 60.5392 43.4714 60.3417 43.4714Z" fill="#50E6FF"/>
<g filter="url(#filter2_d_1145_696)">
<path d="M76.099 48.9569H46.5598C46.1319 48.9569 45.7808 49.308 45.7808 49.736V56.5173C45.7808 56.9452 46.1319 57.2963 46.5598 57.2963H76.099C76.527 57.2963 76.8781 56.9452 76.8781 56.5173V49.736C76.8781 49.308 76.527 48.9569 76.099 48.9569Z" fill="white"/>
</g>
<path d="M49.5554 52.2216H49.2811C49.1055 52.2216 48.9629 52.3642 48.9629 52.5398V52.6605C48.9629 52.836 49.1055 52.9787 49.2811 52.9787H49.5554C49.731 52.9787 49.8736 52.836 49.8736 52.6605V52.5398C49.8736 52.3642 49.731 52.2216 49.5554 52.2216Z" fill="#34C1F1"/>
<path d="M49.8736 54.0485H48.9629V54.8056H49.8736V54.0485Z" fill="#1497E2"/>
<path d="M64.1716 52.2484H52.6829C52.4854 52.2484 52.3318 52.402 52.3318 52.5995C52.3318 52.7971 52.4854 52.9507 52.6829 52.9507H64.1826C64.3801 52.9507 64.5337 52.7971 64.5337 52.5995C64.5337 52.413 64.3691 52.2484 64.1716 52.2484Z" fill="#34C1F1"/>
<path d="M72.411 58.6572H42.8719C42.4439 58.6572 42.0928 59.0084 42.0928 59.4363V70.6068C42.0928 71.0347 42.4439 71.3858 42.8719 71.3858H72.411C72.839 71.3858 73.1901 71.0347 73.1901 70.6068V59.4363C73.1901 58.9974 72.839 58.6572 72.411 58.6572Z" fill="url(#paint11_linear_1145_696)"/>
<path opacity="0.15" d="M76.099 59.4658H46.5598C46.1319 59.4658 45.7808 59.817 45.7808 60.2449V71.4154C45.7808 71.8433 46.1319 72.1944 46.5598 72.1944H76.099C76.527 72.1944 76.8781 71.8433 76.8781 71.4154V60.2449C76.8781 59.806 76.527 59.4658 76.099 59.4658Z" fill="#1F1D20"/>
<g filter="url(#filter3_d_1145_696)">
<path d="M76.099 58.6592H46.5598C46.1319 58.6592 45.7808 59.0103 45.7808 59.4383V70.6087C45.7808 71.0367 46.1319 71.3878 46.5598 71.3878H76.099C76.527 71.3878 76.8781 71.0367 76.8781 70.6087V59.4383C76.8781 58.9993 76.527 58.6592 76.099 58.6592Z" fill="white"/>
</g>
<path d="M49.5552 61.9316H49.2809C49.1053 61.9316 48.9626 62.0743 48.9626 62.2499V62.3706C48.9626 62.5461 49.1053 62.6888 49.2809 62.6888H49.5552C49.7308 62.6888 49.8734 62.5461 49.8734 62.3706V62.2499C49.8734 62.0743 49.7308 61.9316 49.5552 61.9316Z" fill="#0179CE"/>
<path d="M49.8734 63.7522H48.9626V64.5093H49.8734V63.7522Z" fill="#016CB8"/>
<path d="M49.8734 65.431H48.9626V66.1882H49.8734V65.431Z" fill="#01538D"/>
<path d="M49.8734 67.2532H48.9626V68.0103H49.8734V67.2532Z" fill="#01416E"/>
<path d="M54.7346 65.431H52.2986V66.1882H54.7346V65.431Z" fill="#01538D"/>
<path d="M64.1714 61.9199H52.6827C52.4852 61.9199 52.3315 62.0735 52.3315 62.2711C52.3315 62.4686 52.4852 62.6222 52.6827 62.6222H64.1823C64.3798 62.6222 64.5335 62.4686 64.5335 62.2711C64.5335 62.0845 64.3689 61.9199 64.1714 61.9199Z" fill="#0179CE"/>
<path d="M68.012 65.4749H55.9417C55.7442 65.4749 55.5906 65.6285 55.5906 65.826C55.5906 66.0235 55.7442 66.1771 55.9417 66.1771H68.012C68.2095 66.1771 68.3631 66.0235 68.3631 65.826C68.3631 65.6285 68.2095 65.4749 68.012 65.4749Z" fill="#01538D"/>
<path d="M60.3415 67.3188H52.814C52.6165 67.3188 52.4629 67.4725 52.4629 67.67C52.4629 67.8675 52.6165 68.0211 52.814 68.0211H60.3415C60.539 68.0211 60.6926 67.8675 60.6926 67.67C60.6926 67.4725 60.539 67.3188 60.3415 67.3188Z" fill="#01416E"/>
<defs>
<filter id="filter0_d_1145_696" x="8.64697" y="40.7446" width="29.6201" height="29.4631" filterUnits="userSpaceOnUse" color-interpolation-filters="sRGB">
<feFlood flood-opacity="0" result="BackgroundImageFix"/>
<feColorMatrix in="SourceAlpha" type="matrix" values="0 0 0 0 0 0 0 0 0 0 0 0 0 0 0 0 0 0 127 0" result="hardAlpha"/>
<feOffset dy="2"/>
<feGaussianBlur stdDeviation="2"/>
<feComposite in2="hardAlpha" operator="out"/>
<feColorMatrix type="matrix" values="0 0 0 0 0 0 0 0 0 0 0 0 0 0 0 0 0 0 0.25 0"/>
<feBlend mode="normal" in2="BackgroundImageFix" result="effect1_dropShadow_1145_696"/>
<feBlend mode="normal" in="SourceGraphic" in2="effect1_dropShadow_1145_696" result="shape"/>
</filter>
<filter id="filter1_d_1145_696" x="41.7808" y="33.8135" width="39.0974" height="20.7286" filterUnits="userSpaceOnUse" color-interpolation-filters="sRGB">
<feFlood flood-opacity="0" result="BackgroundImageFix"/>
<feColorMatrix in="SourceAlpha" type="matrix" values="0 0 0 0 0 0 0 0 0 0 0 0 0 0 0 0 0 0 127 0" result="hardAlpha"/>
<feOffset dy="3"/>
<feGaussianBlur stdDeviation="2"/>
<feComposite in2="hardAlpha" operator="out"/>
<feColorMatrix type="matrix" values="0 0 0 0 0 0 0 0 0 0 0 0 0 0 0 0 0 0 0.25 0"/>
<feBlend mode="normal" in2="BackgroundImageFix" result="effect1_dropShadow_1145_696"/>
<feBlend mode="normal" in="SourceGraphic" in2="effect1_dropShadow_1145_696" result="shape"/>
</filter>
<filter id="filter2_d_1145_696" x="41.7808" y="47.9569" width="39.0974" height="16.3395" filterUnits="userSpaceOnUse" color-interpolation-filters="sRGB">
<feFlood flood-opacity="0" result="BackgroundImageFix"/>
<feColorMatrix in="SourceAlpha" type="matrix" values="0 0 0 0 0 0 0 0 0 0 0 0 0 0 0 0 0 0 127 0" result="hardAlpha"/>
<feOffset dy="3"/>
<feGaussianBlur stdDeviation="2"/>
<feComposite in2="hardAlpha" operator="out"/>
<feColorMatrix type="matrix" values="0 0 0 0 0 0 0 0 0 0 0 0 0 0 0 0 0 0 0.25 0"/>
<feBlend mode="normal" in2="BackgroundImageFix" result="effect1_dropShadow_1145_696"/>
<feBlend mode="normal" in="SourceGraphic" in2="effect1_dropShadow_1145_696" result="shape"/>
</filter>
<filter id="filter3_d_1145_696" x="41.7808" y="57.6592" width="39.0974" height="20.7286" filterUnits="userSpaceOnUse" color-interpolation-filters="sRGB">
<feFlood flood-opacity="0" result="BackgroundImageFix"/>
<feColorMatrix in="SourceAlpha" type="matrix" values="0 0 0 0 0 0 0 0 0 0 0 0 0 0 0 0 0 0 127 0" result="hardAlpha"/>
<feOffset dy="3"/>
<feGaussianBlur stdDeviation="2"/>
<feComposite in2="hardAlpha" operator="out"/>
<feColorMatrix type="matrix" values="0 0 0 0 0 0 0 0 0 0 0 0 0 0 0 0 0 0 0.25 0"/>
<feBlend mode="normal" in2="BackgroundImageFix" result="effect1_dropShadow_1145_696"/>
<feBlend mode="normal" in="SourceGraphic" in2="effect1_dropShadow_1145_696" result="shape"/>
</filter>
<linearGradient id="paint0_linear_1145_696" x1="50.0356" y1="-13.562" x2="54.0176" y2="132.208" gradientUnits="userSpaceOnUse">
<stop stop-color="#00ABDE"/>
<stop offset="1" stop-color="#007ED8"/>
</linearGradient>
<linearGradient id="paint1_linear_1145_696" x1="3.23989" y1="-20.395" x2="98.7674" y2="120.486" gradientUnits="userSpaceOnUse">
<stop stop-color="#007ED8"/>
<stop offset="0.7065" stop-color="#002D4C"/>
</linearGradient>
<linearGradient id="paint2_linear_1145_696" x1="50.6152" y1="76.9931" x2="50.6152" y2="30.1039" gradientUnits="userSpaceOnUse">
<stop stop-color="#003067"/>
<stop offset="0.2" stop-color="#003F7C"/>
<stop offset="0.47" stop-color="#004F90"/>
<stop offset="0.74" stop-color="#00589D"/>
<stop offset="1" stop-color="#005BA1"/>
</linearGradient>
<linearGradient id="paint3_linear_1145_696" x1="50.6575" y1="75.0164" x2="50.6575" y2="32.2064" gradientUnits="userSpaceOnUse">
<stop stop-color="#004DAE"/>
<stop offset="0.21" stop-color="#0061C4"/>
<stop offset="0.51" stop-color="#0078DD"/>
<stop offset="0.78" stop-color="#0086EC"/>
<stop offset="1" stop-color="#008BF1"/>
</linearGradient>
<linearGradient id="paint4_linear_1145_696" x1="41.4736" y1="56.0244" x2="10.578" y2="77.39" gradientUnits="userSpaceOnUse">
<stop stop-color="#007ED8"/>
<stop offset="0.7065" stop-color="#002D4C"/>
</linearGradient>
<linearGradient id="paint5_linear_1145_696" x1="41.0238" y1="53.7405" x2="7.77547" y2="76.7332" gradientUnits="userSpaceOnUse">
<stop stop-color="#007ED8"/>
<stop offset="0.7065" stop-color="#002D4C"/>
</linearGradient>
<linearGradient id="paint6_linear_1145_696" x1="39.8699" y1="53.7159" x2="8.97433" y2="75.0815" gradientUnits="userSpaceOnUse">
<stop stop-color="#007ED8"/>
<stop offset="0.7065" stop-color="#002D4C"/>
</linearGradient>
<linearGradient id="paint7_linear_1145_696" x1="38.7278" y1="52.072" x2="7.83239" y2="73.4377" gradientUnits="userSpaceOnUse">
<stop stop-color="#007ED8"/>
<stop offset="0.7065" stop-color="#002D4C"/>
</linearGradient>
<linearGradient id="paint8_linear_1145_696" x1="37.2019" y1="49.8746" x2="6.30633" y2="71.24" gradientUnits="userSpaceOnUse">
<stop stop-color="#007ED8"/>
<stop offset="0.7065" stop-color="#002D4C"/>
</linearGradient>
<linearGradient id="paint9_linear_1145_696" x1="57.6414" y1="48.9574" x2="57.6414" y2="57.2968" gradientUnits="userSpaceOnUse">
<stop offset="0.404514" stop-color="#34C1F1"/>
<stop offset="1" stop-color="#1497E2"/>
</linearGradient>
<linearGradient id="paint10_linear_1145_696" x1="55.4315" y1="28.4299" x2="57.6414" y2="47.5421" gradientUnits="userSpaceOnUse">
<stop stop-color="#D5F9FD"/>
<stop offset="0.300347" stop-color="#ACF3FD"/>
<stop offset="0.638889" stop-color="#84ECFD"/>
<stop offset="0.940972" stop-color="#50E6FF"/>
</linearGradient>
<linearGradient id="paint11_linear_1145_696" x1="54.2591" y1="47.6919" x2="57.6414" y2="71.3858" gradientUnits="userSpaceOnUse">
<stop stop-color="#016CB8"/>
<stop offset="0.35243" stop-color="#016CB8"/>
<stop offset="0.649305" stop-color="#01538D"/>
<stop offset="1" stop-color="#01416E"/>
</linearGradient>
</defs>
</svg>
