<svg width="181" height="191" viewBox="0 0 181 191" fill="none" xmlns="http://www.w3.org/2000/svg">
<path d="M90.0484 189.497C93.1084 189.497 96.1184 188.647 98.7784 187.027L160.748 149.367C166.288 145.997 169.718 139.667 169.718 132.827V58.1168C169.718 51.2968 166.288 44.9568 160.748 41.5768L98.7784 3.91683C93.4484 0.67683 86.6284 0.69683 81.3284 3.91683L19.3584 41.5968C13.8184 44.9668 10.3684 51.2968 10.3684 58.1368V132.837C10.3684 138.597 12.8184 144.017 16.9184 147.587V147.617L81.3284 187.047C83.9684 188.647 86.9884 189.497 90.0484 189.497ZM90.6984 8.44683C92.6484 8.44683 95.1284 9.65683 96.8384 10.7068L157.598 47.8968C161.348 50.1768 163.468 56.7768 163.468 61.5268L162.838 132.827C162.838 137.577 159.638 141.847 155.888 144.127L95.4884 180.507C92.0584 182.597 89.2684 182.597 85.8284 180.507L24.6184 144.037C20.8684 141.757 17.8484 137.557 17.8484 132.827V59.1868C17.8484 54.4468 20.5784 49.5568 24.3484 47.2668L84.9284 10.7068C86.6284 9.66683 88.7484 8.44683 90.6984 8.44683Z" fill="#F2F1F0"/>
<path fill-rule="evenodd" clip-rule="evenodd" d="M97.9484 12.0266C95.4984 10.5266 92.7784 9.77655 90.0484 9.77655C87.3184 9.77655 84.5984 10.5366 82.1484 12.0266L26.0184 46.3566C20.9984 49.4266 17.8884 55.1766 17.8884 61.4266V129.527C17.8884 135.757 20.9884 141.527 26.0184 144.597L82.1484 178.927C84.5984 180.427 87.3184 181.177 90.0484 181.177C92.7784 181.177 95.4984 180.437 97.9484 178.927L154.078 144.597C159.098 141.527 162.208 135.757 162.208 129.527V61.4266C162.208 55.1966 159.108 49.4466 154.078 46.3566L97.9484 12.0266Z" fill="url(#paint0_linear_418_246)"/>
<path fill-rule="evenodd" clip-rule="evenodd" d="M90.0484 11.2468C91.7284 11.2468 93.6184 12.1168 95.6784 13.3668L154.148 48.9068C157.798 51.1268 160.208 55.3968 160.208 60.2268V130.707C160.208 135.527 157.798 139.807 154.148 142.027L95.6884 177.567C93.7284 178.757 91.8084 179.507 90.0584 179.507C88.3084 179.507 86.3884 178.757 84.4284 177.567L25.9484 142.037C23.9384 140.807 22.4884 139.607 21.5084 137.997C20.5284 136.397 19.8884 134.177 19.8884 130.717V60.2368C19.8884 55.4068 22.2984 51.1368 25.9484 48.9168L84.4084 13.3768C86.4984 12.1268 88.3584 11.2468 90.0484 11.2468ZM97.7584 180.997L156.218 145.457C161.138 142.467 164.198 136.847 164.198 130.717V60.2368C164.198 54.1068 161.138 48.4868 156.218 45.4968L97.7584 9.95677C95.6484 8.67677 92.9384 7.24677 90.0484 7.24677C87.1484 7.24677 84.4384 8.68676 82.3484 9.94676H82.3384L23.8684 45.4968C18.9484 48.4868 15.8884 54.1068 15.8884 60.2368V130.717C15.8884 134.677 16.6284 137.667 18.0884 140.077C19.5484 142.477 21.6084 144.077 23.8684 145.447L82.3284 180.987C84.5484 182.337 87.2184 183.517 90.0384 183.517C92.8584 183.517 95.5384 182.347 97.7584 180.997Z" fill="url(#paint1_linear_418_246)"/>
<path opacity="0.2" d="M149.981 141.575L90.4306 176.182L30.4916 141.576L90.0416 106.969L149.981 141.575Z" fill="#003067"/>
<path d="M150.971 130.199L90.2484 165.487L29.1374 130.204L89.8594 94.9157L150.971 130.199Z" fill="#1B93EB"/>
<path d="M150.971 130.199L150.959 134.305L90.2374 169.593L90.2484 165.487L150.971 130.199Z" fill="#1F56A3"/>
<path d="M90.2484 165.487L90.2374 169.593L29.1254 134.31L29.1374 130.204L90.2484 165.487Z" fill="#0078D4"/>
<path fill-rule="evenodd" clip-rule="evenodd" d="M84.1016 68.1971C79.9976 68.8315 75.2194 69.3957 72.5724 69.1006C45.3077 66.0514 32.7809 85.5948 33.7335 99.2393C34.2077 106.032 39.4905 109.666 44.7729 111.604C50.0534 113.54 55.2974 113.766 55.6154 113.759L55.6198 113.959C55.2819 113.966 50.0123 113.738 44.7041 111.792C39.3978 109.845 34.0166 106.167 33.534 99.2532C32.5728 85.4859 45.2041 65.8386 72.5946 68.9019C75.2104 69.1935 79.9615 68.6347 84.0711 67.9995C86.1232 67.6823 88.0111 67.3467 89.386 67.0905C90.0734 66.9624 90.6325 66.8541 91.0198 66.7778C91.2134 66.7397 91.364 66.7096 91.4662 66.689L91.5825 66.6655L91.6214 66.6575C91.6215 66.6575 91.622 66.6574 91.6422 66.7554C91.6623 66.8533 91.6622 66.8533 91.6621 66.8534L91.6224 66.8615L91.5057 66.8851C91.4032 66.9057 91.2523 66.9359 91.0584 66.974C90.6706 67.0504 90.1108 67.1588 89.4226 67.2871C88.0464 67.5436 86.1563 67.8795 84.1016 68.1971Z" fill="#243A5E"/>
<path fill-rule="evenodd" clip-rule="evenodd" d="M41.8648 80.8601C35.7346 86.8171 33.2558 94.7313 33.9381 101.075C34.6153 107.37 39.8716 110.968 45.0925 112.996C47.6972 114.007 50.2771 114.621 52.2397 114.981C53.2206 115.161 54.0463 115.278 54.6425 115.349C55.2454 115.421 55.6019 115.445 55.6524 115.444C55.7517 115.442 55.8341 115.52 55.8363 115.62C55.8384 115.719 55.7596 115.801 55.6603 115.804C55.5795 115.805 55.1964 115.778 54.5999 115.706C53.9968 115.635 53.1636 115.517 52.1747 115.335C50.1974 114.973 47.5941 114.353 44.9622 113.331C39.7101 111.291 34.2801 107.619 33.5802 101.113C32.8855 94.6555 35.4074 86.633 41.6139 80.6019C47.8256 74.5657 57.7172 70.5334 71.7464 72.0351C75.3361 72.4083 80.3376 72.2448 84.45 71.9867C86.5045 71.8577 88.3339 71.7054 89.6497 71.5853C90.3076 71.5252 90.837 71.4732 91.2018 71.4362C91.3843 71.4177 91.5255 71.403 91.6211 71.3929L91.7297 71.3813L91.7659 71.3774C91.766 71.3774 91.7665 71.3774 91.7861 71.5563C91.8057 71.7352 91.8056 71.7352 91.8055 71.7352L91.7683 71.7393L91.659 71.7509C91.5629 71.7611 91.4211 71.7759 91.2381 71.7944C90.8722 71.8315 90.3416 71.8836 89.6825 71.9438C88.3642 72.0641 86.5312 72.2168 84.4725 72.346C80.3587 72.6042 75.331 72.7697 71.7089 72.3932C57.7712 70.9012 47.9897 74.9082 41.8648 80.8601ZM91.7861 71.5563L91.8055 71.7352C91.9043 71.7244 91.9758 71.6355 91.965 71.5367C91.9542 71.4379 91.8648 71.3666 91.7659 71.3774L91.7861 71.5563Z" fill="#2D5C7E"/>
<path fill-rule="evenodd" clip-rule="evenodd" d="M41.1691 83.818C35.3347 89.5083 33.2674 97.0367 34.1496 102.906C35.0225 108.714 40.2532 112.279 45.4161 114.397C47.9872 115.452 50.5173 116.137 52.4301 116.559C53.3861 116.77 54.1867 116.914 54.7597 117.005C55.0462 117.051 55.2752 117.083 55.4379 117.104C55.5193 117.114 55.5834 117.122 55.6292 117.126C55.6606 117.13 55.6783 117.131 55.6861 117.132C55.6916 117.132 55.6923 117.132 55.6894 117.132C55.833 117.129 55.9519 117.243 55.9551 117.386C55.9582 117.53 55.8444 117.649 55.7008 117.652C55.6693 117.653 55.621 117.648 55.5769 117.644C55.5253 117.639 55.4566 117.631 55.3723 117.62C55.2034 117.598 54.9689 117.565 54.6778 117.519C54.0955 117.426 53.2848 117.28 52.3182 117.067C50.3858 116.641 47.8253 115.947 45.2187 114.878C40.0261 112.747 34.5522 109.084 33.6354 102.984C32.7277 96.945 34.8545 89.2503 40.806 83.4458C46.7645 77.6344 56.5348 73.7363 70.8842 75.2448C75.4553 75.6942 80.7257 75.9201 84.8562 76.0337C86.921 76.0904 88.6998 76.1191 89.9622 76.1335C90.5934 76.1408 91.0955 76.1444 91.4397 76.1463C91.6118 76.1472 91.7445 76.1477 91.834 76.148L91.9693 76.1482C91.9694 76.1482 91.9698 76.1482 91.9698 76.4055L91.9693 76.1482C92.1129 76.1483 92.2298 76.2647 92.2298 76.4083C92.2297 76.5519 92.1133 76.6683 91.9697 76.6682L91.9698 76.4082C91.9697 76.6682 91.9698 76.6682 91.9697 76.6682L91.8326 76.668C91.7426 76.6677 91.6095 76.6672 91.4369 76.6663C91.0918 76.6644 90.5886 76.6607 89.9563 76.6535C88.6916 76.639 86.91 76.6103 84.8419 76.5535C80.7069 76.4398 75.4218 76.2134 70.8324 75.7622L70.8307 75.762C56.6034 74.2662 46.9963 78.1346 41.1691 83.818Z" fill="#367F9E"/>
<path fill-rule="evenodd" clip-rule="evenodd" d="M40.4706 86.767C34.9298 92.2033 33.269 99.3389 34.3512 104.727C35.42 110.048 40.6314 113.577 45.741 115.786C48.2804 116.884 50.7618 117.641 52.6258 118.124C53.5573 118.365 54.3333 118.537 54.8833 118.649C55.1584 118.705 55.3764 118.745 55.5286 118.771C55.6049 118.785 55.6635 118.794 55.704 118.8C55.7132 118.801 55.7211 118.802 55.7279 118.803C55.7361 118.805 55.7426 118.805 55.7475 118.806C55.748 118.806 55.7486 118.806 55.7491 118.806C55.9263 118.814 56.0695 118.958 56.0734 119.138C56.0776 119.326 55.9287 119.482 55.741 119.486C55.7105 119.486 55.6793 119.483 55.669 119.481L55.6675 119.481C55.6498 119.479 55.6286 119.476 55.6048 119.473C55.557 119.466 55.4924 119.455 55.4128 119.441C55.2532 119.414 55.0287 119.372 54.7482 119.315C54.187 119.201 53.3993 119.027 52.4553 118.782C50.5683 118.294 48.0516 117.526 45.4712 116.41C40.341 114.192 34.8257 110.542 33.6845 104.861C32.5566 99.2452 34.2912 91.8773 39.9944 86.2816C45.7054 80.6782 55.3605 76.8824 70.0258 78.3307C75.5689 78.8572 81.1078 79.4926 85.2603 79.9964C87.3368 80.2483 89.067 80.4674 90.2782 80.6234C90.8838 80.7014 91.3596 80.7637 91.6841 80.8065L92.0547 80.8556L92.1815 80.8726C92.1816 80.8726 92.1821 80.8726 92.1486 81.1212L92.1815 80.8726C92.3676 80.8976 92.4987 81.0688 92.4737 81.2549C92.4487 81.441 92.2775 81.5716 92.0914 81.5466L92.1232 81.3104C92.0914 81.5466 92.0915 81.5466 92.0914 81.5466L91.9649 81.5297L91.5952 81.4807C91.2713 81.438 90.7961 81.3758 90.1913 81.2978C88.9815 81.142 87.253 80.9232 85.1784 80.6715C81.029 80.1681 75.4962 79.5333 69.9609 79.0076L69.9596 79.0075C55.4409 77.5735 46.0036 81.3383 40.4706 86.767Z" fill="#3EA1BF"/>
<path fill-rule="evenodd" clip-rule="evenodd" d="M39.7709 89.7234C34.5286 94.901 33.2726 101.645 34.55 106.549C35.1782 108.961 36.7835 111.045 38.8854 112.822C40.9862 114.599 43.5579 116.047 46.0689 117.189C48.5778 118.33 51.0118 119.159 52.8278 119.703C53.7353 119.975 54.4871 120.175 55.0148 120.307C55.2788 120.373 55.4862 120.422 55.6286 120.454C55.7 120.47 55.7541 120.481 55.7902 120.489C55.7987 120.49 55.8058 120.492 55.8117 120.493C55.8164 120.494 55.8203 120.495 55.8235 120.495C56.0274 120.52 56.1875 120.691 56.1921 120.903C56.1972 121.135 56.0133 121.327 55.7814 121.332C55.7533 121.333 55.7306 121.33 55.7256 121.33L55.7251 121.329C55.7164 121.329 55.709 121.327 55.7044 121.327C55.6948 121.325 55.6855 121.324 55.678 121.322C55.6623 121.32 55.6433 121.316 55.622 121.312C55.5789 121.303 55.5193 121.29 55.4446 121.273C55.2949 121.24 55.081 121.189 54.8113 121.122C54.2719 120.987 53.5076 120.784 52.5868 120.508C50.746 119.957 48.2743 119.115 45.7212 117.954C43.1702 116.793 40.5237 115.308 38.343 113.464C36.1635 111.621 34.4241 109.398 33.7371 106.761C32.3842 101.567 33.7247 94.5143 39.1807 89.1257C44.6439 83.73 54.1819 80.0475 69.1528 81.4656C76.9326 82.1758 84.6905 83.5375 92.393 85.5447C92.6174 85.6032 92.752 85.8326 92.6935 86.057C92.635 86.2815 92.4056 86.416 92.1811 86.3575C84.522 84.3617 76.8092 83.008 69.0757 82.3021L69.0743 82.3019C54.2681 80.8993 45.006 84.5531 39.7709 89.7234Z" fill="#47C4DF"/>
<path fill-rule="evenodd" clip-rule="evenodd" d="M39.0939 92.6985C34.1487 97.6016 33.2892 103.929 34.7516 108.347C35.4703 110.519 37.1167 112.48 39.2408 114.208C41.3605 115.933 43.919 117.396 46.4006 118.582C48.8797 119.767 51.2672 120.669 53.036 121.274C53.9198 121.576 54.648 121.804 55.1544 121.957C55.4075 122.033 55.6051 122.09 55.7389 122.128C55.8058 122.147 55.8568 122.161 55.8908 122.17L55.9288 122.181L55.9381 122.183L55.9402 122.184L55.8109 122.667C55.6811 123.15 55.6809 123.15 55.6807 123.15L55.6769 123.149L55.6661 123.146L55.6247 123.134C55.5885 123.124 55.5352 123.11 55.466 123.09C55.3274 123.051 55.1248 122.992 54.8664 122.914C54.3496 122.759 53.6094 122.527 52.7122 122.22C50.9188 121.606 48.4933 120.691 45.9693 119.484C43.4477 118.279 40.8129 116.776 38.6097 114.984C36.4109 113.195 34.6049 111.087 33.8023 108.662C32.2219 103.887 33.1722 97.1615 38.3898 91.9883C43.6118 86.8109 53.0382 83.2494 68.3106 84.6127C75.848 85.299 81.9305 86.717 86.1314 87.965C88.2319 88.589 89.8626 89.1706 90.9704 89.5973C91.5244 89.8107 91.9476 89.9853 92.2335 90.1071C92.3765 90.168 92.4852 90.2157 92.5587 90.2485C92.5954 90.2649 92.6234 90.2775 92.6424 90.2862L92.6644 90.2963L92.6703 90.299L92.672 90.2998C92.6722 90.2999 92.6729 90.3002 92.462 90.7535L92.672 90.2998C92.9224 90.4162 93.0318 90.714 92.9154 90.9644C92.7989 91.2148 92.5016 91.3233 92.2513 91.207C92.2512 91.2069 92.2513 91.207 92.2513 91.207L92.2462 91.2046L92.2279 91.1963C92.2158 91.1908 92.1992 91.1832 92.1779 91.1736C92.1697 91.17 92.1609 91.1661 92.1515 91.1619C92.0829 91.1313 91.9794 91.0858 91.8416 91.0271C91.566 90.9097 91.1536 90.7395 90.611 90.5305C89.5258 90.1125 87.92 89.5395 85.8466 88.9236C81.6995 87.6916 75.6834 86.2882 68.2213 85.6087C53.1243 84.2611 44.0348 87.7997 39.0939 92.6985ZM56.2937 122.797C56.2221 123.063 55.9474 123.221 55.6807 123.15L55.8109 122.667L55.9402 122.184C56.2069 122.256 56.3654 122.53 56.2937 122.797Z" fill="#50E6FF"/>
<path opacity="0.15" d="M133.337 132.245L100.916 113.353L70.9637 130.562L103.385 149.066L133.337 132.245Z" fill="url(#paint2_linear_418_246)"/>
<path d="M101.945 82.203L101.787 147.299L71.3993 130.804L71.484 65.4539L101.945 82.203Z" fill="url(#paint3_linear_418_246)"/>
<path d="M101.715 81.8884L101.787 147.239L132.224 130.296L132.151 64.9457L101.715 81.8884Z" fill="url(#paint4_linear_418_246)"/>
<path d="M132.151 64.9943L101.715 82.0459L71.4598 65.3936L101.884 48.4509L132.151 64.9943Z" fill="url(#paint5_linear_418_246)"/>
<path d="M101.715 48.6199C110.477 53.7148 119.323 58.8097 128.158 63.9168C127.512 63.6041 126.805 63.4387 126.088 63.4327L101.715 49.3339V48.6199Z" fill="#2A99ED"/>
<path d="M75.3446 63.9652C83.2229 59.3423 91.1981 54.804 99.0765 50.1811C99.8752 49.697 100.916 49.1403 101.715 48.6683V49.3824L77.4503 63.4812C76.7209 63.4818 76.001 63.6473 75.3446 63.9652V63.9652Z" fill="#4EB3FF"/>
<path d="M101.872 80.6177C98.3625 78.5362 94.7803 76.5515 91.2707 74.482L75.3446 65.2361C75.1431 65.1206 74.976 64.9536 74.8605 64.7521C74.7032 64.4374 75.1025 63.6387 77.414 63.4814L101.787 77.5801V80.3757C101.833 80.449 101.862 80.5317 101.872 80.6177V80.6177Z" fill="#018AF0"/>
<path d="M128.279 65.3084L125.652 66.8332C123.898 67.8619 122.143 68.9026 120.388 69.8587L117.762 71.3714L115.136 72.8842C110.755 75.4377 106.374 77.9791 101.908 80.5326V77.5071L126.112 63.3963C128.424 63.5657 128.823 64.3524 128.75 64.6791C128.657 64.9299 128.493 65.1483 128.279 65.3084V65.3084Z" fill="#01538E"/>
<path d="M79.1688 78.6213V84.1883L76.0949 82.5061V76.8786L79.1688 78.6213Z" fill="#CFF8FF"/>
<path d="M84.8203 81.7792V87.3461L81.7343 85.6398V80.0849L84.8203 81.7792Z" fill="#CFF8FF"/>
<path d="M90.4841 84.8417V90.4449L87.3981 88.7385V83.1837L90.4841 84.8417Z" fill="#CFF8FF"/>
<path d="M96.1478 87.9998V93.5667L93.0618 91.8724V86.2692L96.1478 87.9998Z" fill="#CFF8FF"/>
<path d="M79.1688 86.9591V92.5261L76.0949 90.8318V85.2165L79.1688 86.9591Z" fill="#9BF1FF"/>
<path d="M84.8203 90.1185V95.6491L81.7343 93.9548V88.4121L84.8203 90.1185Z" fill="#9BF1FF"/>
<path d="M90.4841 93.1795V98.7827L87.3981 97.0279V91.4731L90.4841 93.1795Z" fill="#9BF1FF"/>
<path d="M96.1478 96.3258V101.868L93.0618 100.174V94.6073L96.1478 96.3258Z" fill="#9BF1FF"/>
<path d="M79.1688 95.286V100.865L76.0949 99.1708V93.5555L79.1688 95.286Z" fill="#66E9FF"/>
<path d="M84.8203 98.4442V103.987L81.7343 102.281V96.7499L84.8203 98.4442Z" fill="#66E9FF"/>
<path d="M90.4841 101.518V107.121L87.3981 105.402V99.8475L90.4841 101.518Z" fill="#66E9FF"/>
<path d="M96.1478 104.665V110.232L93.0618 108.549V102.946L96.1478 104.665Z" fill="#66E9FF"/>
<path d="M79.1688 103.623V109.202L76.0949 107.508V101.868L79.1688 103.623Z" fill="#EBEBEB"/>
<path d="M84.8203 106.782V112.325L81.7343 110.618V105.088L84.8203 106.782Z" fill="#50E6FF"/>
<path d="M90.4841 109.857V115.46L87.3981 113.741V108.187L90.4841 109.857Z" fill="#50E6FF"/>
<path d="M96.1478 113.003V118.57L93.0618 116.888V111.272L96.1478 113.003Z" fill="#50E6FF"/>
<path d="M79.1688 111.961V117.601L76.0949 115.907V110.291L79.1688 111.961Z" fill="#EBEBEB"/>
<path d="M84.8203 115.181V120.724L81.7343 119.018V113.487L84.8203 115.181Z" fill="#EBEBEB"/>
<path d="M90.4841 118.182V123.798L87.3981 122.079V116.524L90.4841 118.182Z" fill="#EBEBEB"/>
<path d="M96.1478 121.341V126.908L93.0618 125.213V119.61L96.1478 121.341Z" fill="#50E6FF"/>
<path d="M79.1688 120.3V125.879L76.0949 124.185V118.557L79.1688 120.3Z" fill="#EBEBEB"/>
<path d="M84.8203 123.459V129.002L81.7343 127.283V121.753L84.8203 123.459Z" fill="#EBEBEB"/>
<path d="M90.4841 126.52V132.123L87.3981 130.417V124.862L90.4841 126.52Z" fill="#EBEBEB"/>
<path d="M96.1478 129.703V135.27L93.0618 133.576V127.973L96.1478 129.703Z" fill="#EBEBEB"/>
<path d="M124.539 78.1675V83.7344L127.613 82.0522V76.4248L124.539 78.1675Z" fill="#CFF8FF"/>
<path d="M118.887 81.3254V86.8923L121.973 85.186V79.6311L118.887 81.3254Z" fill="#CFF8FF"/>
<path d="M113.224 84.3879V89.9911L116.31 88.2847V82.7299L113.224 84.3879Z" fill="#CFF8FF"/>
<path d="M107.56 87.5462V93.1132L110.646 91.4189V85.8157L107.56 87.5462Z" fill="#CFF8FF"/>
<path d="M124.539 86.5053V92.0723L127.613 90.378V84.7627L124.539 86.5053Z" fill="#9BF1FF"/>
<path d="M118.887 89.6647V95.1953L121.973 93.5011V87.9583L118.887 89.6647Z" fill="#9BF1FF"/>
<path d="M113.224 92.7257V98.3289L116.31 96.5741V91.0193L113.224 92.7257Z" fill="#9BF1FF"/>
<path d="M107.56 95.872V101.415L110.646 99.7204V94.1535L107.56 95.872Z" fill="#9BF1FF"/>
<path d="M124.539 94.8322V100.411L127.613 98.717V93.1017L124.539 94.8322Z" fill="#66E9FF"/>
<path d="M118.887 97.9904V103.533L121.973 101.827V96.2961L118.887 97.9904Z" fill="#66E9FF"/>
<path d="M113.224 101.064V106.667L116.31 104.948V99.3937L113.224 101.064Z" fill="#66E9FF"/>
<path d="M107.56 104.211V109.778L110.646 108.096V102.492L107.56 104.211Z" fill="#66E9FF"/>
<path d="M124.539 103.169V108.748L127.613 107.054V101.415L124.539 103.169Z" fill="#50E6FF"/>
<path d="M118.887 106.328V111.871L121.973 110.165V104.634L118.887 106.328Z" fill="#50E6FF"/>
<path d="M113.224 109.403V115.006L116.31 113.288V107.733L113.224 109.403Z" fill="#50E6FF"/>
<path d="M107.56 112.549V118.116L110.646 116.434V110.818L107.56 112.549Z" fill="#50E6FF"/>
<path d="M124.539 111.508V117.147L127.613 115.453V109.838L124.539 111.508Z" fill="#50E6FF"/>
<path d="M118.887 114.728V120.27L121.973 118.564V113.033L118.887 114.728Z" fill="#50E6FF"/>
<path d="M113.224 117.729V123.344L116.31 121.625V116.071L113.224 117.729Z" fill="#50E6FF"/>
<path d="M107.56 120.887V126.454L110.646 124.76V119.156L107.56 120.887Z" fill="#50E6FF"/>
<path d="M124.539 119.846V125.425L127.613 123.731V118.103L124.539 119.846Z" fill="#50E6FF"/>
<path d="M118.887 123.005V128.548L121.973 126.83V121.299L118.887 123.005Z" fill="#50E6FF"/>
<path d="M113.224 126.066V131.67L116.31 129.963V124.408L113.224 126.066Z" fill="#50E6FF"/>
<path d="M107.56 129.25V134.816L110.646 133.122V127.519L107.56 129.25Z" fill="#50E6FF"/>
<path d="M94.8408 126.036L90.2684 128.538C95.5518 131.778 99.7821 139.222 99.7821 145.369C99.7821 148.502 98.684 150.707 96.9019 151.724L101.474 149.195C103.274 148.178 104.354 145.972 104.354 142.84C104.354 136.72 100.124 129.258 94.8408 126.036Z" fill="#01B5E4"/>
<path d="M86.2001 111.725C85.5211 111.341 84.799 111.039 84.049 110.825L79.4767 113.354C80.2267 113.568 80.9487 113.87 81.6278 114.254C86.2091 116.891 89.9624 123.174 90.2684 128.556L94.8408 126.027C94.5348 120.644 90.7815 114.38 86.2001 111.725Z" fill="#01B5E4"/>
<path d="M51.1426 128.646L89.9624 151.039C92.6626 152.605 95.1288 152.75 96.9019 151.723C98.675 150.697 99.7821 148.501 99.7821 145.369C99.7821 139.222 95.5518 131.778 90.2684 128.538C89.9624 123.137 86.2091 116.891 81.6278 114.236C80.9503 113.849 80.2279 113.546 79.4766 113.336C76.5694 106.72 71.6551 100.627 66.1017 97.4134C61.6013 94.8392 57.605 94.5962 54.6798 96.2793C52.0246 97.8275 50.2875 100.96 49.9995 105.388C47.7403 104.389 45.7242 104.407 44.1941 105.28C42.3939 106.306 41.3138 108.511 41.3138 111.643C41.3138 117.899 45.7062 125.514 51.1426 128.646Z" fill="#009BCC"/>
<path d="M70.674 94.876C66.1736 92.3018 62.1774 92.0589 59.2521 93.742L54.6798 96.2801C57.605 94.588 61.6373 94.831 66.1016 97.4052C71.664 100.618 76.5694 106.712 79.4766 113.327L84.049 110.798C81.1687 104.174 76.2454 98.0802 70.674 94.876Z" fill="#01B5E4"/>
<path fill-rule="evenodd" clip-rule="evenodd" d="M94.6008 125.597C94.7577 125.511 94.9485 125.516 95.1012 125.609C97.8318 127.274 100.265 130.016 102.014 133.104C103.763 136.193 104.855 139.673 104.855 142.84C104.855 146.073 103.736 148.491 101.72 149.63L101.716 149.632L101.716 149.632L97.144 152.161C96.9035 152.294 96.6007 152.208 96.4661 151.968C96.3314 151.729 96.4154 151.425 96.6541 151.289C98.2243 150.393 99.2822 148.397 99.2822 145.369C99.2822 142.402 98.2582 139.089 96.5715 136.11C94.885 133.131 92.5608 130.53 90.0071 128.964C89.8551 128.871 89.7642 128.704 89.7686 128.525C89.7731 128.347 89.872 128.185 90.0285 128.099L94.6008 125.597ZM91.2405 128.576C93.6808 130.269 95.8455 132.798 97.4417 135.617C99.191 138.707 100.282 142.189 100.282 145.369C100.282 147.108 99.9535 148.61 99.3401 149.803L101.228 148.759C101.229 148.759 101.23 148.758 101.23 148.758C102.814 147.862 103.855 145.87 103.855 142.84C103.855 139.886 102.831 136.575 101.144 133.597C99.5111 130.715 97.2809 128.186 94.8242 126.615L91.2405 128.576Z" fill="#50E6FF"/>
<path fill-rule="evenodd" clip-rule="evenodd" d="M83.807 110.387C83.9228 110.323 84.0592 110.307 84.1864 110.343C84.9742 110.569 85.7328 110.886 86.4462 111.289L86.4509 111.292L86.4509 111.292C88.8313 112.671 90.9705 114.97 92.552 117.595C94.1338 120.219 95.1815 123.209 95.34 125.998C95.3509 126.19 95.251 126.371 95.0828 126.464L90.5105 128.993C90.3601 129.076 90.1774 129.076 90.0269 128.993C89.8763 128.91 89.7791 128.756 89.7693 128.584C89.6218 125.99 88.6397 123.152 87.1231 120.633C85.6064 118.114 83.5793 115.954 81.3802 114.688C80.7359 114.324 80.0509 114.037 79.3394 113.834C79.1447 113.779 79.0028 113.611 78.9799 113.41C78.957 113.209 79.0576 113.014 79.2347 112.916L83.807 110.387ZM84.1076 111.363L80.6992 113.249C81.1019 113.414 81.4943 113.604 81.8738 113.818L81.8773 113.82L81.8773 113.82C84.2588 115.191 86.3984 117.491 87.9798 120.117C89.4146 122.5 90.4099 125.185 90.7008 127.745L94.32 125.743C94.1149 123.235 93.1516 120.527 91.6955 118.111C90.179 115.594 88.1518 113.434 85.9518 112.158C85.3671 111.828 84.7488 111.562 84.1076 111.363Z" fill="#50E6FF"/>
<path fill-rule="evenodd" clip-rule="evenodd" d="M59.0062 93.3062C62.1404 91.5048 66.3343 91.8173 70.9222 94.4416L70.9233 94.4422C76.6085 97.7119 81.5951 103.9 84.5075 110.598C84.6103 110.835 84.5165 111.111 84.291 111.235L79.7186 113.764C79.5957 113.833 79.4498 113.846 79.3166 113.801C79.1835 113.756 79.0754 113.657 79.0189 113.528C76.1433 106.985 71.3006 100.986 65.8519 97.8379M59.0062 93.3062L54.6798 95.7078C54.5956 95.7527 54.5122 95.7991 54.4295 95.8469C54.1919 95.9843 54.1095 96.2875 54.2448 96.5262C54.3801 96.765 54.6826 96.8501 54.9225 96.7169L55.1546 96.588C57.8552 95.1528 61.5975 95.3849 65.8515 97.8377M58.5442 94.7064C60.9085 94.6271 63.5697 95.3677 66.3514 96.9716L66.3518 96.9718C71.8861 100.169 76.7472 106.131 79.7106 112.626L83.4067 110.582C80.5363 104.194 75.767 98.3817 70.4253 95.3094C66.0144 92.7865 62.2173 92.6123 59.5015 94.175L59.4949 94.1788L59.4948 94.1787L58.5442 94.7064Z" fill="#50E6FF"/>
<path fill-rule="evenodd" clip-rule="evenodd" d="M54.4305 95.8464C57.565 94.0428 61.7603 94.3546 66.3499 96.9798L66.3521 96.981C71.9583 100.225 76.8895 106.316 79.8399 112.922C80.5488 113.139 81.2316 113.434 81.8758 113.802L81.8785 113.803C84.2586 115.183 86.3978 117.477 87.9795 120.099C89.5126 122.641 90.5438 125.528 90.7504 128.25C93.3905 129.934 95.7394 132.611 97.4417 135.617C99.191 138.707 100.282 142.189 100.282 145.369C100.282 148.608 99.1333 151.01 97.1523 152.157C95.1704 153.304 92.5042 153.092 89.7116 151.472L50.8929 129.079C48.0807 127.459 45.5666 124.699 43.7566 121.566C41.9467 118.433 40.8138 114.88 40.8138 111.644C40.8138 108.41 41.9327 105.994 43.9463 104.846C45.4959 103.962 47.4452 103.893 49.5574 104.67C49.9813 100.484 51.7311 97.4202 54.428 95.8478L54.4305 95.8464ZM54.9304 96.7124C52.4628 98.1518 50.7793 101.102 50.4984 105.421C50.4878 105.584 50.3983 105.731 50.2586 105.816C50.1189 105.901 49.9466 105.912 49.7973 105.846C47.6379 104.891 45.7961 104.942 44.4418 105.715C42.8552 106.619 41.8138 108.614 41.8138 111.644C41.8138 114.663 42.8772 118.045 44.6225 121.066C46.3678 124.087 48.768 126.701 51.3922 128.213L90.2133 150.607C92.821 152.12 95.0872 152.196 96.6515 151.291C98.2168 150.385 99.2821 148.395 99.2821 145.369C99.2821 142.402 98.2581 139.089 96.5714 136.11C94.885 133.131 92.5607 130.53 90.007 128.964C89.8673 128.879 89.7785 128.73 89.7692 128.566C89.6217 125.964 88.6397 123.13 87.1232 120.616C85.6066 118.102 83.579 115.945 81.3782 114.669C80.7368 114.303 80.0528 114.017 79.3416 113.817C79.1975 113.777 79.0791 113.674 79.0189 113.537C76.1436 106.994 71.2922 100.995 65.8523 97.8472C61.4424 95.3251 57.646 95.1506 54.9304 96.7124Z" fill="#50E6FF"/>
<path d="M54.5989 108.882C52.7988 107.829 51.0977 107.721 49.9006 108.423L47.5244 109.791C48.7305 109.098 50.3956 109.197 52.2228 110.259C54.1462 111.507 55.7468 113.193 56.8935 115.178C58.0403 117.163 58.7005 119.392 58.8202 121.681C58.8202 123.769 58.0732 125.282 56.8851 125.93L59.2613 124.544C60.4494 123.859 61.1784 122.383 61.1874 120.304C61.0694 118.015 60.4108 115.787 59.2656 113.802C58.1204 111.816 56.5212 110.131 54.5989 108.882Z" fill="#243A5E"/>
<path d="M52.2227 110.268C54.145 111.515 55.7448 113.199 56.8915 115.183C58.0382 117.166 58.6991 119.393 58.8202 121.681C58.8202 125.875 55.841 127.576 52.1777 125.461C50.2573 124.215 48.6592 122.533 47.514 120.551C46.3689 118.568 45.7093 116.343 45.5892 114.057C45.5982 109.836 48.5684 108.153 52.2227 110.268Z" fill="url(#paint6_linear_418_246)"/>
<defs>
<linearGradient id="paint0_linear_418_246" x1="90.0483" y1="9.77655" x2="90.0483" y2="181.176" gradientUnits="userSpaceOnUse">
<stop stop-color="#00ABDE"/>
<stop offset="1" stop-color="#007ED8"/>
</linearGradient>
<linearGradient id="paint1_linear_418_246" x1="36.1681" y1="4.56787" x2="202.845" y2="286.899" gradientUnits="userSpaceOnUse">
<stop stop-color="#007ED8"/>
<stop offset="0.7065" stop-color="#002D4C"/>
</linearGradient>
<linearGradient id="paint2_linear_418_246" x1="87.5433" y1="114.854" x2="118.657" y2="150.107" gradientUnits="userSpaceOnUse">
<stop/>
<stop offset="0.82" stop-opacity="0"/>
</linearGradient>
<linearGradient id="paint3_linear_418_246" x1="72.2064" y1="72.7478" x2="136.29" y2="147.086" gradientUnits="userSpaceOnUse">
<stop stop-color="#007ED8"/>
<stop offset="0.93266" stop-color="#002D4C"/>
</linearGradient>
<linearGradient id="paint4_linear_418_246" x1="113.462" y1="13.9541" x2="187.868" y2="166.804" gradientUnits="userSpaceOnUse">
<stop stop-color="#007ED8"/>
<stop offset="0.7065" stop-color="#002D4C"/>
</linearGradient>
<linearGradient id="paint5_linear_418_246" x1="94.8288" y1="27.6343" x2="161.651" y2="140.623" gradientUnits="userSpaceOnUse">
<stop stop-color="#007ED8"/>
<stop offset="0.7065" stop-color="#002D4C"/>
</linearGradient>
<linearGradient id="paint6_linear_418_246" x1="43.5871" y1="97.292" x2="56.8371" y2="132.792" gradientUnits="userSpaceOnUse">
<stop stop-color="#008BF1"/>
<stop offset="0.22" stop-color="#0086EC"/>
<stop offset="0.49" stop-color="#0078DD"/>
<stop offset="0.79" stop-color="#0061C4"/>
<stop offset="1" stop-color="#004DAE"/>
</linearGradient>
</defs>
</svg>
