<svg width="103" height="103" viewBox="0 0 103 103" fill="none" xmlns="http://www.w3.org/2000/svg">
<path d="M51.197 98.5786C25.347 98.5786 4.38702 77.6286 4.38702 51.7686C4.38702 25.9086 25.347 4.95862 51.197 4.95862C77.047 4.95862 98.007 25.9186 98.007 51.7686C98.007 77.6186 77.047 98.5786 51.197 98.5786Z" fill="url(#paint0_linear)"/>
<path fill-rule="evenodd" clip-rule="evenodd" d="M97.097 51.7687C97.097 77.1187 76.547 97.6687 51.197 97.6687C25.847 97.6687 5.29701 77.1187 5.29701 51.7687C5.29701 26.4187 25.847 5.86866 51.197 5.86866C76.547 5.86866 97.097 26.4187 97.097 51.7687ZM51.197 2.12866C78.617 2.12866 100.837 24.3487 100.837 51.7687C100.837 79.1887 78.607 101.409 51.197 101.409C23.777 101.409 1.55701 79.1787 1.55701 51.7687C1.55701 24.3487 23.777 2.12866 51.197 2.12866Z" fill="#F2F1F0"/>
<path fill-rule="evenodd" clip-rule="evenodd" d="M94.287 51.7687C94.287 75.5687 74.997 94.8587 51.197 94.8587C27.397 94.8587 8.107 75.5687 8.107 51.7687C8.107 27.9687 27.397 8.67872 51.197 8.67872C74.997 8.67872 94.287 27.9687 94.287 51.7687ZM51.197 4.93872C77.057 4.93872 98.027 25.9087 98.027 51.7687C98.027 77.6287 77.057 98.5987 51.197 98.5987C25.337 98.5987 4.367 77.6287 4.367 51.7687C4.367 25.9087 25.327 4.93872 51.197 4.93872Z" fill="url(#paint1_linear)"/>
<path opacity="0.15" d="M82.1371 36.1588H19.287V72.9488C19.287 74.0688 20.197 74.9588 21.297 74.9588H80.117C81.237 74.9588 82.127 74.0488 82.127 72.9488V36.1588H82.1371Z" fill="#1F1D20"/>
<path d="M82.1371 33.7788H19.287V70.5688C19.287 71.6888 20.197 72.5788 21.297 72.5788H80.117C81.237 72.5788 82.127 71.6688 82.127 70.5688V33.7788H82.1371Z" fill="#9CEBFF"/>
<path d="M79.997 28.3488H21.417C20.227 28.3488 19.277 29.2988 19.277 30.4888V35.0788H82.127V30.4888C82.137 29.2988 81.187 28.3488 79.997 28.3488Z" fill="white"/>
<path d="M55.627 43.1988L54.807 42.3788L50.737 46.4488L49.527 45.2188L48.707 46.0388L50.737 48.0688L55.627 43.1988Z" fill="#0078D4"/>
<path d="M55.627 49.8787L54.807 49.0587L50.737 53.1287L49.527 51.8987L48.707 52.7187L50.737 54.7487L55.627 49.8787Z" fill="#32B0E7"/>
<path d="M55.627 56.5488L54.807 55.7288L50.737 59.7988L49.527 58.5688L48.707 59.3888L50.737 61.4188L55.627 56.5488Z" fill="#45CAF2"/>
<path d="M75.217 44.3488C75.217 43.8288 74.787 43.3988 74.267 43.3988H59.637C59.117 43.3988 58.687 43.8288 58.687 44.3488C58.687 44.8688 59.117 45.2988 59.637 45.2988H74.267C74.807 45.2988 75.217 44.8788 75.217 44.3488Z" fill="#0078D4"/>
<path d="M75.217 51.7487C75.217 51.2287 74.787 50.7987 74.267 50.7987H59.637C59.117 50.7987 58.687 51.2287 58.687 51.7487C58.687 52.2687 59.117 52.6987 59.637 52.6987H74.267C74.807 52.6787 75.217 52.2687 75.217 51.7487Z" fill="#32B0E7"/>
<path d="M75.217 59.1487C75.217 58.6287 74.787 58.1987 74.267 58.1987H59.637C59.117 58.1987 58.687 58.6087 58.687 59.1487C58.687 59.6687 59.117 60.0987 59.637 60.0987H74.267C74.807 60.0787 75.217 59.6687 75.217 59.1487Z" fill="#45CAF2"/>
<path d="M34.4471 61.6788C39.8371 61.6788 44.2271 57.3088 44.2271 51.8988C44.2271 46.5088 39.8571 42.1188 34.4471 42.1188C29.0571 42.1188 24.6671 46.4888 24.6671 51.8988C24.6771 57.3088 29.0471 61.6788 34.4471 61.6788Z" fill="white"/>
<path d="M39.2071 55.8787C38.9471 53.4587 36.8671 51.5487 34.3371 51.5487C31.8471 51.5487 29.7871 53.4087 29.4671 55.8087C29.4271 55.9787 29.4271 56.1587 29.4271 56.3287C29.4871 57.0187 29.9671 57.6687 30.8571 58.1887C32.7671 59.2887 35.8971 59.2887 37.7771 58.1887C38.6671 57.6687 39.1371 57.0187 39.1871 56.3287C39.2471 56.1987 39.2271 56.0287 39.2071 55.8787Z" fill="#0078D4"/>
<path d="M34.357 50.8588C35.997 50.8588 37.297 49.5388 37.297 47.9188C37.297 46.2988 35.977 44.9788 34.357 44.9788C32.717 44.9788 31.417 46.2988 31.417 47.9188C31.407 49.5388 32.727 50.8588 34.357 50.8588Z" fill="#0078D4"/>
<path fill-rule="evenodd" clip-rule="evenodd" d="M84.807 76.4686C84.807 77.1986 84.197 77.7986 83.477 77.7986H71.487C70.767 77.7986 70.157 77.1986 70.157 76.4686V66.4686H84.807V76.4686V76.4686Z" fill="#30404D"/>
<path fill-rule="evenodd" clip-rule="evenodd" d="M84.807 66.4786C84.807 67.2086 84.197 67.8086 83.477 67.8086H71.487C70.767 67.8186 70.157 67.2086 70.157 66.4786V65.1486C70.157 64.4186 70.767 63.8186 71.487 63.8186H83.477C84.207 63.8186 84.807 64.4286 84.807 65.1486V66.4786Z" fill="#546670"/>
<path fill-rule="evenodd" clip-rule="evenodd" d="M83.477 68.1486H78.137C77.777 68.1486 77.467 68.4486 77.467 68.8186V76.4786C77.467 76.8386 77.167 77.1486 76.797 77.1486H71.477C70.757 77.1486 70.147 76.5386 70.147 75.8086V76.4786C70.147 77.2086 70.757 77.8086 71.477 77.8086H83.467C84.197 77.8086 84.797 77.1986 84.797 76.4786V66.8186C84.807 67.5386 84.217 68.1486 83.477 68.1486Z" fill="#182A37"/>
<path fill-rule="evenodd" clip-rule="evenodd" d="M77.487 70.5786C76.307 70.5786 75.347 71.5386 75.347 72.7186C75.347 73.8986 76.307 74.8586 77.487 74.8586C78.667 74.8586 79.617 73.8886 79.617 72.7186C79.627 71.5286 78.667 70.5786 77.487 70.5786Z" fill="#50E6FF"/>
<path fill-rule="evenodd" clip-rule="evenodd" d="M74.487 65.8186C74.487 66.3686 73.887 66.8186 73.157 66.8186C72.427 66.8186 71.827 66.3686 71.827 65.8186C71.827 65.2686 72.427 64.8186 73.157 64.8186C73.887 64.8086 74.487 65.2586 74.487 65.8186Z" fill="#182A37"/>
<path fill-rule="evenodd" clip-rule="evenodd" d="M83.1471 65.8186C83.1471 66.3686 82.5471 66.8186 81.8171 66.8186C81.0871 66.8186 80.4871 66.3786 80.4871 65.8186C80.4871 65.2686 81.0871 64.8186 81.8171 64.8186C82.5471 64.7986 83.1471 65.2586 83.1471 65.8186Z" fill="#182A37"/>
<path fill-rule="evenodd" clip-rule="evenodd" d="M77.487 56.4886C74.547 56.4886 72.147 58.8686 72.147 61.8286V66.4786C72.387 66.6886 72.747 66.8186 73.147 66.8186C73.547 66.8186 73.897 66.6786 74.147 66.4786V61.8286C74.147 59.9986 75.647 58.5086 77.467 58.5086C79.297 58.5086 80.787 60.0086 80.787 61.8286V65.8186C80.787 66.1786 81.227 66.4886 81.787 66.4886C82.337 66.4886 82.787 66.1886 82.787 65.8186V61.8286C82.817 58.8686 80.417 56.4886 77.487 56.4886Z" fill="#30404D"/>
<path fill-rule="evenodd" clip-rule="evenodd" d="M75.567 58.7387C74.287 59.2787 73.477 60.5787 73.477 61.9687V65.3787C73.477 65.8087 73.057 66.1387 72.637 66.0187C72.427 65.9687 72.247 65.8887 72.127 65.7887V66.4587C72.367 66.6687 72.727 66.7987 73.127 66.7987C73.237 66.7987 73.357 66.7887 73.457 66.7587C73.517 66.7487 73.587 66.7287 73.657 66.7087C73.687 66.6987 73.717 66.6887 73.747 66.6687C73.797 66.6487 73.837 66.6287 73.877 66.6087C73.897 66.5987 73.927 66.5887 73.937 66.5687C73.997 66.5287 74.057 66.4887 74.117 66.4487V61.8087C74.117 60.0787 75.437 58.6587 77.117 58.4987C76.657 58.4487 76.117 58.5087 75.567 58.7387Z" fill="#182A37"/>
<path fill-rule="evenodd" clip-rule="evenodd" d="M77.487 56.4886C77.377 56.4886 77.257 56.4986 77.157 56.5086C79.947 56.6886 82.147 58.9886 82.147 61.8186V65.3786C82.147 65.8086 81.727 66.1386 81.307 66.0186C81.097 65.9686 80.917 65.8886 80.797 65.7886V66.4586C81.037 66.6686 81.407 66.7986 81.797 66.7986C82.197 66.7986 82.547 66.6586 82.797 66.4586V61.8186C82.817 58.8686 80.417 56.4886 77.487 56.4886Z" fill="#182A37"/>
<defs>
<linearGradient id="paint0_linear" x1="49.4275" y1="-13.0211" x2="53.4095" y2="132.749" gradientUnits="userSpaceOnUse">
<stop stop-color="#00ABDE"/>
<stop offset="1" stop-color="#007ED8"/>
</linearGradient>
<linearGradient id="paint1_linear" x1="2.6304" y1="-19.8562" x2="98.1579" y2="121.025" gradientUnits="userSpaceOnUse">
<stop stop-color="#007ED8"/>
<stop offset="0.7065" stop-color="#002D4C"/>
</linearGradient>
</defs>
</svg>
