<svg width="181" height="191" viewBox="0 0 181 191" fill="none" xmlns="http://www.w3.org/2000/svg">
<path d="M90.8075 189.801C93.8675 189.801 96.8776 188.951 99.5376 187.331L161.508 149.671C167.048 146.301 170.478 139.971 170.478 133.131V58.4211C170.478 51.6011 167.048 45.2611 161.508 41.8811L99.5376 4.22109C94.2076 0.98109 87.3875 1.00109 82.0875 4.22109L20.1175 41.9011C14.5775 45.2711 11.1275 51.6011 11.1275 58.4411V133.141C11.1275 138.901 13.5775 144.321 17.6775 147.891V147.921L82.0875 187.351C84.7275 188.951 87.7475 189.801 90.8075 189.801ZM91.4576 8.75109C93.4076 8.75109 95.8875 9.96109 97.5975 11.0111L158.358 48.2011C162.108 50.4811 164.228 57.0811 164.228 61.8311L163.598 133.131C163.598 137.881 160.398 142.151 156.648 144.431L96.2476 180.811C92.8176 182.901 90.0275 182.901 86.5875 180.811L25.3775 144.341C21.6275 142.061 18.6075 137.861 18.6075 133.131V59.4911C18.6075 54.7511 21.3375 49.8611 25.1075 47.5711L85.6875 11.0111C87.3875 9.97109 89.5076 8.75109 91.4576 8.75109Z" fill="#F2F1F0"/>
<path fill-rule="evenodd" clip-rule="evenodd" d="M98.7076 12.3308C96.2576 10.8308 93.5376 10.0808 90.8076 10.0808C88.0776 10.0808 85.3576 10.8408 82.9076 12.3308L26.7776 46.6608C21.7576 49.7308 18.6476 55.4808 18.6476 61.7308V129.831C18.6476 136.061 21.7476 141.831 26.7776 144.901L82.9076 179.231C85.3576 180.731 88.0776 181.481 90.8076 181.481C93.5376 181.481 96.2576 180.741 98.7076 179.231L154.838 144.901C159.858 141.831 162.968 136.061 162.968 129.831V61.7308C162.968 55.5008 159.868 49.7508 154.838 46.6608L98.7076 12.3308Z" fill="url(#paint0_linear_943_86)"/>
<path fill-rule="evenodd" clip-rule="evenodd" d="M90.8076 11.551C92.4876 11.551 94.3776 12.421 96.4376 13.671L154.908 49.211C158.558 51.431 160.968 55.701 160.968 60.531V131.011C160.968 135.831 158.558 140.111 154.908 142.331L96.4476 177.871C94.4876 179.061 92.5676 179.811 90.8176 179.811C89.0676 179.811 87.1476 179.061 85.1876 177.871L26.7076 142.341C24.6976 141.111 23.2476 139.911 22.2676 138.301C21.2876 136.701 20.6476 134.481 20.6476 131.021V60.541C20.6476 55.711 23.0576 51.441 26.7076 49.221L85.1676 13.681C87.2576 12.431 89.1176 11.551 90.8076 11.551ZM98.5176 181.301L156.978 145.761C161.898 142.771 164.958 137.151 164.958 131.021V60.541C164.958 54.411 161.898 48.791 156.978 45.801L98.5176 10.261C96.4076 8.98103 93.6976 7.55103 90.8076 7.55103C87.9076 7.55103 85.1976 8.99103 83.1076 10.251H83.0976L24.6276 45.801C19.7076 48.791 16.6476 54.411 16.6476 60.541V131.021C16.6476 134.981 17.3876 137.971 18.8476 140.381C20.3076 142.781 22.3676 144.381 24.6276 145.751L83.0876 181.291C85.3076 182.641 87.9776 183.821 90.7976 183.821C93.6176 183.821 96.2976 182.651 98.5176 181.301Z" fill="url(#paint1_linear_943_86)"/>
<g opacity="0.2">
<path d="M146.225 139.465H125.118C123.829 139.465 122.775 138.411 122.775 137.122V124.189C122.775 122.899 123.829 121.846 125.118 121.846H146.243C147.533 121.827 148.586 122.881 148.586 124.171V137.104C148.568 138.411 147.515 139.465 146.225 139.465Z" fill="#1F1D21"/>
<path d="M146.225 96.415H125.118C123.829 96.415 122.775 95.3615 122.775 94.0719V81.1208C122.775 79.8311 123.829 78.7776 125.118 78.7776H146.243C147.533 78.7776 148.586 79.8311 148.586 81.1208V94.0537C148.568 95.3615 147.515 96.415 146.225 96.415Z" fill="#1F1D21"/>
<path d="M146.225 117.976H125.118C123.829 117.976 122.775 116.923 122.775 115.633V102.7C122.775 101.41 123.829 100.357 125.118 100.357H146.243C147.533 100.339 148.586 101.392 148.586 102.7V115.633C148.568 116.923 147.515 117.976 146.225 117.976Z" fill="#1F1D21"/>
<path d="M146.225 74.9271H125.118C123.829 74.9271 122.775 73.8736 122.775 72.584V59.6329C122.775 58.3432 123.829 57.2897 125.118 57.2897H146.243C147.533 57.2897 148.586 58.3432 148.586 59.6329V72.5658C148.568 73.8736 147.515 74.9271 146.225 74.9271Z" fill="#1F1D21"/>
</g>
<path d="M105.39 64.3333H134.634V65.7864H105.39V64.3333Z" fill="white"/>
<path d="M105.39 85.5674H134.634V87.0205H105.39V85.5674Z" fill="white"/>
<path d="M105.39 106.819H134.634V108.272H105.39V106.819Z" fill="white"/>
<path d="M105.39 128.053H134.634V129.507H105.39V128.053Z" fill="white"/>
<g filter="url(#filter0_d_943_86)">
<path d="M146.187 73.6152H125.08C123.79 73.6152 122.737 72.5617 122.737 71.2721V58.321C122.737 57.0313 123.79 55.9778 125.08 55.9778H146.205C147.495 55.9778 148.548 57.0313 148.548 58.321V71.2539C148.53 72.5617 147.476 73.6152 146.187 73.6152Z" fill="#50E6FF"/>
</g>
<g filter="url(#filter1_d_943_86)">
<path d="M146.187 95.103H125.08C123.79 95.103 122.737 94.0495 122.737 92.7598V79.8088C122.737 78.5191 123.79 77.4656 125.08 77.4656H146.205C147.495 77.4656 148.548 78.5191 148.548 79.8088V92.7417C148.53 94.0495 147.476 95.103 146.187 95.103Z" fill="#50E6FF"/>
</g>
<g filter="url(#filter2_d_943_86)">
<path d="M146.187 116.664H125.08C123.79 116.664 122.737 115.611 122.737 114.321V101.388C122.737 100.098 123.79 99.0449 125.08 99.0449H146.205C147.495 99.0267 148.548 100.08 148.548 101.388V114.321C148.53 115.611 147.476 116.664 146.187 116.664Z" fill="#3BCAF4"/>
</g>
<g filter="url(#filter3_d_943_86)">
<path d="M146.187 138.153H125.08C123.79 138.153 122.737 137.1 122.737 135.81V122.877C122.737 121.587 123.79 120.534 125.08 120.534H146.205C147.495 120.516 148.548 121.569 148.548 122.859V135.792C148.53 137.1 147.476 138.153 146.187 138.153Z" fill="#0078D4"/>
</g>
<path opacity="0.2" d="M112.1 140.833C114.429 140.833 116.317 138.945 116.317 136.616V60.1754H33.6454V136.616C33.6454 138.945 35.5336 140.833 37.8624 140.833H112.1V140.833Z" fill="#1F1D21"/>
<g filter="url(#filter4_d_943_86)">
<path d="M116.349 60.1626V58.8408C116.349 57.2358 115.059 55.9456 113.454 55.9456H36.5407C34.9357 55.9456 33.6454 57.2358 33.6454 58.8408V60.257V61.5472V135.187C33.6454 136.792 34.9357 138.083 36.5407 138.083H113.517C115.122 138.083 116.412 136.792 116.412 135.187V60.257C116.38 60.2255 116.349 60.194 116.349 60.1626Z" fill="#F2F1F0"/>
</g>
<path opacity="0.2" d="M103.596 129.651C104.965 129.651 106.073 128.543 106.073 127.174V68.6095H43.4884V127.174C43.4884 128.543 44.5962 129.651 45.9654 129.651H103.596Z" fill="#1F1D21"/>
<g filter="url(#filter5_d_943_86)">
<path d="M106.073 68.5835V67.6126C106.073 66.4052 105.102 65.4343 103.895 65.4343H45.6669C44.4595 65.4343 43.4887 66.4052 43.4887 67.6126V68.683V69.6664V125.392C43.4887 126.6 44.4595 127.571 45.6669 127.571H103.92C105.127 127.571 106.098 126.6 106.098 125.392V68.683C106.086 68.6457 106.073 68.6208 106.073 68.5835Z" fill="white"/>
</g>
<path opacity="0.15" d="M102.067 132.69C106.808 132.69 110.648 128.849 110.648 124.108C110.648 119.367 106.808 115.527 102.067 115.527C97.3255 115.527 93.4848 119.367 93.4848 124.108C93.4962 128.849 97.3369 132.69 102.067 132.69Z" fill="#1F1D20"/>
<path d="M102.067 131.721C106.808 131.721 110.648 127.881 110.648 123.14C110.648 118.399 106.808 114.558 102.067 114.558C97.3255 114.558 93.4848 118.399 93.4848 123.14C93.4962 127.881 97.3369 131.721 102.067 131.721Z" fill="#002D4C"/>
<path opacity="0.3" d="M106.739 119.39L99.6732 126.49L97.5534 124.359L96.1402 125.784L99.6732 129.328L108.164 120.815L106.739 119.39Z" fill="#1F1D20"/>
<path d="M106.739 118.786L99.6732 125.886L97.5534 123.755L96.1402 125.18L99.6732 128.724L108.164 120.211L106.739 118.786Z" fill="#FAF9F8"/>
<path d="M97.1454 92.4808C96.9352 92.1857 96.6686 91.9351 96.361 91.7437C96.0534 91.5523 95.7109 91.4237 95.3533 91.3655C94.1019 91.1488 92.8483 90.9532 91.5924 90.7787V81.8049C91.594 81.0544 91.3604 80.3223 90.9244 79.7114C90.4885 79.1005 89.8721 78.6416 89.1618 78.3991L89.1352 78.3908H89.1068L76.6472 74.6215C76.0874 74.4334 75.5007 74.3377 74.9101 74.3381C74.3201 74.3377 73.7339 74.4334 73.1747 74.6215L60.7134 78.3874H60.685L60.6584 78.3958C59.9489 78.638 59.3331 79.0962 58.8972 79.7061C58.4613 80.3159 58.2273 81.0469 58.2278 81.7966V90.7704C56.9719 90.946 55.7183 91.1416 54.4669 91.3572C54.1093 91.4154 53.7668 91.5439 53.4592 91.7354C53.1516 91.9268 52.885 92.1773 52.6748 92.4725C52.5012 92.7177 52.3786 92.9953 52.3141 93.2888C52.2497 93.5823 52.2448 93.8858 52.2997 94.1812L54.1335 103.748C54.2614 104.369 54.6255 104.915 55.1487 105.272C55.6719 105.629 56.3133 105.768 56.9375 105.661C57.3709 105.586 57.8044 105.516 58.2395 105.446C58.2645 107.833 59.1763 110.152 60.9568 112.341C62.3154 114.008 64.1859 115.611 66.5148 117.095C68.9909 118.655 71.6278 119.945 74.38 120.941L74.9268 121.128L75.4719 120.936C78.2198 119.918 80.8527 118.613 83.3271 117.043C85.661 115.543 87.5231 113.949 88.8784 112.287C90.6589 110.105 91.5724 107.803 91.5974 105.452C92.0325 105.522 92.466 105.592 92.8994 105.667C93.036 105.69 93.1743 105.702 93.3128 105.702C93.8749 105.703 94.4199 105.509 94.8556 105.154C95.2912 104.799 95.5907 104.304 95.7034 103.753L97.5288 94.1895C97.5824 93.8936 97.5761 93.5898 97.5103 93.2963C97.4444 93.0028 97.3203 92.7255 97.1454 92.4808V92.4808Z" fill="#002050"/>
<path d="M59.9065 105.131V105.354C59.9065 114.244 74.9101 119.367 74.9101 119.367C74.9101 119.367 89.9137 114.113 89.9137 105.354V105.202C79.9656 103.751 69.8614 103.727 59.9065 105.131V105.131Z" fill="#0064B5"/>
<path d="M68.2368 106.458L68.9503 108.653H71.2609L69.3921 110.01L70.1056 112.206L68.2368 110.849L66.3681 112.206L67.0816 110.01L65.2128 108.653H67.5233L68.2368 106.458Z" fill="white"/>
<path d="M81.5833 106.291L82.2968 108.486H84.6057L82.7386 109.843L83.4521 112.039L81.5833 110.682L79.7145 112.039L80.428 109.843L78.5593 108.486H80.8698L81.5833 106.291Z" fill="white"/>
<path d="M74.91 108.44L75.6952 110.854H78.2358L76.1803 112.347L76.9655 114.761L74.91 113.269L72.8546 114.761L73.6397 112.347L71.5843 110.854H74.1249L74.91 108.44Z" fill="white"/>
<path d="M97.1454 92.481C96.9353 92.1859 96.6687 91.9353 96.361 91.7439C96.0534 91.5525 95.7109 91.4239 95.3533 91.3657C93.544 91.0568 91.7308 90.7873 89.9137 90.5572C79.9462 89.3019 69.8607 89.3019 59.8932 90.5572C58.0839 90.7873 56.2751 91.0568 54.4669 91.3657C54.1093 91.4239 53.7668 91.5525 53.4592 91.7439C53.1516 91.9353 52.885 92.1859 52.6748 92.481C52.5012 92.7263 52.3786 93.0039 52.3142 93.2974C52.2497 93.5909 52.2448 93.8943 52.2997 94.1897L54.1335 103.757C54.2615 104.377 54.6255 104.923 55.1487 105.28C55.6719 105.637 56.3134 105.777 56.9375 105.669C58.0922 105.47 59.2492 105.291 60.4083 105.131C70.371 103.75 80.4797 103.799 90.4288 105.274C91.2546 105.395 92.0781 105.527 92.8994 105.669C93.036 105.692 93.1743 105.704 93.3128 105.704C93.8749 105.705 94.4199 105.511 94.8556 105.156C95.2913 104.801 95.5908 104.306 95.7034 103.755L97.5288 94.1914C97.5827 93.8952 97.5765 93.5911 97.5106 93.2973C97.4448 93.0035 97.3206 92.7259 97.1454 92.481V92.481Z" fill="#505050"/>
<path d="M95.1916 92.3057C81.7702 89.9918 68.0517 89.9918 54.6303 92.3057C54.398 92.3425 54.1753 92.425 53.975 92.5483C53.7747 92.6716 53.6008 92.8334 53.4633 93.0242C53.362 93.1651 53.2898 93.3249 53.2512 93.4941C53.2125 93.6633 53.2081 93.8385 53.2383 94.0095L55.072 103.572C55.1506 103.948 55.3725 104.278 55.6905 104.493C56.0085 104.708 56.3978 104.791 56.7758 104.724C68.7822 102.652 81.0547 102.652 93.0611 104.724C93.4379 104.788 93.8249 104.703 94.1411 104.489C94.4573 104.274 94.6784 103.946 94.7582 103.572L96.5819 94.0111C96.6131 93.8402 96.6095 93.6647 96.5714 93.4951C96.5333 93.3256 96.4615 93.1654 96.3602 93.0242C96.2226 92.8332 96.0484 92.6713 95.8478 92.548C95.6472 92.4247 95.4242 92.3423 95.1916 92.3057V92.3057Z" fill="white"/>
<path d="M59.8026 90.8567C59.7304 90.7138 59.8026 82.6912 59.8026 81.2559C59.8026 79.8207 61.1311 79.2821 62.0638 79.0669C62.9981 78.8518 72.9397 75.6924 73.6934 75.4772C74.4472 75.2621 75.4098 75.1899 76.3849 75.5667C77.6145 76.0425 86.5071 78.7796 87.7633 79.2459C89.0195 79.7123 89.9523 79.8599 90.0245 81.5982C90.0968 83.3366 90.0245 90.8567 90.0245 90.8567C90.0245 90.8567 79.1848 89.869 74.2682 89.9774C69.3516 90.0857 59.8026 90.8567 59.8026 90.8567Z" fill="#505050"/>
<defs>
<filter id="filter0_d_943_86" x="118.737" y="53.9778" width="33.8114" height="25.6375" filterUnits="userSpaceOnUse" color-interpolation-filters="sRGB">
<feFlood flood-opacity="0" result="BackgroundImageFix"/>
<feColorMatrix in="SourceAlpha" type="matrix" values="0 0 0 0 0 0 0 0 0 0 0 0 0 0 0 0 0 0 127 0" result="hardAlpha"/>
<feOffset dy="2"/>
<feGaussianBlur stdDeviation="2"/>
<feComposite in2="hardAlpha" operator="out"/>
<feColorMatrix type="matrix" values="0 0 0 0 0 0 0 0 0 0 0 0 0 0 0 0 0 0 0.25 0"/>
<feBlend mode="normal" in2="BackgroundImageFix" result="effect1_dropShadow_943_86"/>
<feBlend mode="normal" in="SourceGraphic" in2="effect1_dropShadow_943_86" result="shape"/>
</filter>
<filter id="filter1_d_943_86" x="118.737" y="75.4656" width="33.8114" height="25.6375" filterUnits="userSpaceOnUse" color-interpolation-filters="sRGB">
<feFlood flood-opacity="0" result="BackgroundImageFix"/>
<feColorMatrix in="SourceAlpha" type="matrix" values="0 0 0 0 0 0 0 0 0 0 0 0 0 0 0 0 0 0 127 0" result="hardAlpha"/>
<feOffset dy="2"/>
<feGaussianBlur stdDeviation="2"/>
<feComposite in2="hardAlpha" operator="out"/>
<feColorMatrix type="matrix" values="0 0 0 0 0 0 0 0 0 0 0 0 0 0 0 0 0 0 0.25 0"/>
<feBlend mode="normal" in2="BackgroundImageFix" result="effect1_dropShadow_943_86"/>
<feBlend mode="normal" in="SourceGraphic" in2="effect1_dropShadow_943_86" result="shape"/>
</filter>
<filter id="filter2_d_943_86" x="118.737" y="97.0447" width="33.8114" height="25.6195" filterUnits="userSpaceOnUse" color-interpolation-filters="sRGB">
<feFlood flood-opacity="0" result="BackgroundImageFix"/>
<feColorMatrix in="SourceAlpha" type="matrix" values="0 0 0 0 0 0 0 0 0 0 0 0 0 0 0 0 0 0 127 0" result="hardAlpha"/>
<feOffset dy="2"/>
<feGaussianBlur stdDeviation="2"/>
<feComposite in2="hardAlpha" operator="out"/>
<feColorMatrix type="matrix" values="0 0 0 0 0 0 0 0 0 0 0 0 0 0 0 0 0 0 0.25 0"/>
<feBlend mode="normal" in2="BackgroundImageFix" result="effect1_dropShadow_943_86"/>
<feBlend mode="normal" in="SourceGraphic" in2="effect1_dropShadow_943_86" result="shape"/>
</filter>
<filter id="filter3_d_943_86" x="118.737" y="118.534" width="33.8114" height="25.6195" filterUnits="userSpaceOnUse" color-interpolation-filters="sRGB">
<feFlood flood-opacity="0" result="BackgroundImageFix"/>
<feColorMatrix in="SourceAlpha" type="matrix" values="0 0 0 0 0 0 0 0 0 0 0 0 0 0 0 0 0 0 127 0" result="hardAlpha"/>
<feOffset dy="2"/>
<feGaussianBlur stdDeviation="2"/>
<feComposite in2="hardAlpha" operator="out"/>
<feColorMatrix type="matrix" values="0 0 0 0 0 0 0 0 0 0 0 0 0 0 0 0 0 0 0.25 0"/>
<feBlend mode="normal" in2="BackgroundImageFix" result="effect1_dropShadow_943_86"/>
<feBlend mode="normal" in="SourceGraphic" in2="effect1_dropShadow_943_86" result="shape"/>
</filter>
<filter id="filter4_d_943_86" x="29.6454" y="55.9456" width="90.7664" height="90.137" filterUnits="userSpaceOnUse" color-interpolation-filters="sRGB">
<feFlood flood-opacity="0" result="BackgroundImageFix"/>
<feColorMatrix in="SourceAlpha" type="matrix" values="0 0 0 0 0 0 0 0 0 0 0 0 0 0 0 0 0 0 127 0" result="hardAlpha"/>
<feOffset dy="4"/>
<feGaussianBlur stdDeviation="2"/>
<feComposite in2="hardAlpha" operator="out"/>
<feColorMatrix type="matrix" values="0 0 0 0 0 0 0 0 0 0 0 0 0 0 0 0 0 0 0.25 0"/>
<feBlend mode="normal" in2="BackgroundImageFix" result="effect1_dropShadow_943_86"/>
<feBlend mode="normal" in="SourceGraphic" in2="effect1_dropShadow_943_86" result="shape"/>
</filter>
<filter id="filter5_d_943_86" x="39.4887" y="63.4343" width="70.6094" height="70.1365" filterUnits="userSpaceOnUse" color-interpolation-filters="sRGB">
<feFlood flood-opacity="0" result="BackgroundImageFix"/>
<feColorMatrix in="SourceAlpha" type="matrix" values="0 0 0 0 0 0 0 0 0 0 0 0 0 0 0 0 0 0 127 0" result="hardAlpha"/>
<feOffset dy="2"/>
<feGaussianBlur stdDeviation="2"/>
<feComposite in2="hardAlpha" operator="out"/>
<feColorMatrix type="matrix" values="0 0 0 0 0 0 0 0 0 0 0 0 0 0 0 0 0 0 0.25 0"/>
<feBlend mode="normal" in2="BackgroundImageFix" result="effect1_dropShadow_943_86"/>
<feBlend mode="normal" in="SourceGraphic" in2="effect1_dropShadow_943_86" result="shape"/>
</filter>
<linearGradient id="paint0_linear_943_86" x1="90.8075" y1="10.0808" x2="90.8075" y2="181.48" gradientUnits="userSpaceOnUse">
<stop stop-color="#00ABDE"/>
<stop offset="1" stop-color="#007ED8"/>
</linearGradient>
<linearGradient id="paint1_linear_943_86" x1="36.9273" y1="4.87213" x2="203.604" y2="287.203" gradientUnits="userSpaceOnUse">
<stop stop-color="#007ED8"/>
<stop offset="0.7065" stop-color="#002D4C"/>
</linearGradient>
</defs>
</svg>
