<svg width="103" height="102" viewBox="0 0 103 102" fill="none" xmlns="http://www.w3.org/2000/svg">
<path d="M51.0168 97.8102C41.7587 97.8102 32.7088 95.065 25.011 89.9215C17.3131 84.7779 11.3127 77.4671 7.76975 68.9137C4.22681 60.3603 3.30049 50.9485 5.10667 41.8683C6.91284 32.788 11.3707 24.447 17.9172 17.9005C24.4637 11.354 32.8047 6.89611 41.885 5.08994C50.9652 3.28377 60.3765 4.21058 68.9299 7.75351C77.4833 11.2965 84.7942 17.2964 89.9377 24.9942C95.0813 32.6921 97.8264 41.742 97.8264 51.0001C97.8264 63.4149 92.895 75.3216 84.1164 84.1002C75.3379 92.8788 63.4316 97.8102 51.0168 97.8102V97.8102Z" fill="url(#paint0_linear)"/>
<path fill-rule="evenodd" clip-rule="evenodd" d="M96.917 51C96.917 60.0782 94.2242 68.9528 89.1807 76.501C84.1371 84.0492 76.9692 89.9322 68.582 93.4062C60.1949 96.8803 50.9653 97.7891 42.0615 96.0181C33.1578 94.247 24.9798 89.8758 18.5605 83.4565C12.1413 77.0373 7.76911 68.8588 5.99805 59.9551C4.22699 51.0513 5.13629 41.8222 8.61035 33.4351C12.0844 25.0479 17.9674 17.8795 25.5156 12.8359C33.0638 7.79238 41.9384 5.1001 51.0166 5.1001C63.19 5.1001 74.8647 9.93603 83.4727 18.5439C92.0806 27.1519 96.917 38.8266 96.917 51V51ZM51.0166 1.36035C60.8345 1.36035 70.4315 4.27156 78.5947 9.72608C86.758 15.1806 93.1208 22.9334 96.8779 32.0039C100.635 41.0744 101.618 51.0554 99.7031 60.6846C97.7878 70.3138 93.0595 79.1588 86.1172 86.1011C79.1749 93.0434 70.3304 97.7712 60.7012 99.6865C51.072 101.602 41.091 100.619 32.0205 96.8618C22.95 93.1047 15.1967 86.7419 9.74219 78.5786C4.28768 70.4154 1.37695 60.8179 1.37695 51C1.37564 44.4808 2.65817 38.0256 5.15234 32.0024C7.64652 25.9792 11.3033 20.5062 15.9131 15.8965C20.5228 11.2867 25.9954 7.63041 32.0186 5.13623C38.0418 2.64205 44.4974 1.35904 51.0166 1.36035V1.36035Z" fill="#F2F1F0"/>
<path fill-rule="evenodd" clip-rule="evenodd" d="M94.1064 51C94.1064 59.5224 91.5795 67.8538 86.8447 74.9399C82.1099 82.0261 75.3805 87.5487 67.5068 90.8101C59.6332 94.0714 50.969 94.9248 42.6104 93.2622C34.2517 91.5996 26.5731 87.4955 20.5469 81.4692C14.5206 75.443 10.4175 67.7654 8.75488 59.4067C7.09225 51.0481 7.94565 42.3839 11.207 34.5103C14.4684 26.6366 19.991 19.9072 27.0771 15.1724C34.1633 10.4376 42.4942 7.91016 51.0166 7.91016C62.4448 7.91016 73.4044 12.4498 81.4854 20.5308C89.5663 28.6117 94.1064 39.5718 94.1064 51ZM51.0166 4.17041C60.2787 4.17041 69.333 6.91675 77.0342 12.0625C84.7353 17.2082 90.7378 24.522 94.2822 33.0791C97.8267 41.6362 98.7532 51.0521 96.9463 60.1362C95.1393 69.2204 90.6792 77.5645 84.1299 84.1138C77.5806 90.6631 69.2365 95.1232 60.1523 96.9302C51.0682 98.7371 41.6528 97.8101 33.0957 94.2656C24.5386 90.7212 17.2248 84.7187 12.0791 77.0176C6.93335 69.3164 4.18652 60.2621 4.18652 51C4.18652 38.5799 9.12002 26.6686 17.9023 17.8862C26.6847 9.1039 38.5965 4.17041 51.0166 4.17041Z" fill="url(#paint1_linear)"/>
<path opacity="0.15" d="M76.7678 22.6419H24.4875C24.219 22.6398 23.9533 22.6912 23.7048 22.7929C23.4563 22.8947 23.2306 23.0442 23.0407 23.234C22.8509 23.4239 22.6998 23.6496 22.598 23.8981C22.4963 24.1466 22.4457 24.4131 22.4478 24.6816V77.5764C22.4457 77.8449 22.4963 78.1114 22.598 78.3598C22.6998 78.6083 22.8509 78.8341 23.0407 79.0239C23.2306 79.2138 23.4563 79.3641 23.7048 79.4658C23.9533 79.5676 24.219 79.6182 24.4875 79.6161H76.7678C77.0363 79.6182 77.3035 79.5676 77.552 79.4658C77.8005 79.3641 78.0262 79.2138 78.2161 79.0239C78.4059 78.8341 78.5555 78.6083 78.6572 78.3598C78.759 78.1114 78.8096 77.8449 78.8074 77.5764V24.6816C78.8032 24.1418 78.5883 23.6252 78.2066 23.2435C77.8249 22.8619 77.3075 22.6461 76.7678 22.6419Z" fill="#1F1D20"/>
<path d="M76.7678 19.8663H24.4875C24.219 19.8641 23.9533 19.9155 23.7048 20.0173C23.4563 20.119 23.2306 20.2693 23.0407 20.4592C22.8509 20.6491 22.6998 20.8748 22.598 21.1233C22.4963 21.3718 22.4457 21.6374 22.4478 21.9059V75.8008C22.4457 76.0693 22.4963 76.3357 22.598 76.5842C22.6998 76.8327 22.8509 77.0584 23.0407 77.2483C23.2306 77.4382 23.4563 77.5885 23.7048 77.6902C23.9533 77.792 24.219 77.8434 24.4875 77.8412H76.7678C77.0363 77.8434 77.3035 77.792 77.552 77.6902C77.8005 77.5885 78.0262 77.4382 78.2161 77.2483C78.4059 77.0584 78.5555 76.8327 78.6572 76.5842C78.759 76.3357 78.8096 76.0693 78.8074 75.8008V21.9059C78.8032 21.3662 78.5883 20.8504 78.2066 20.4687C77.8249 20.087 77.3075 19.8705 76.7678 19.8663Z" fill="#F2F2F3"/>
<path opacity="0.15" d="M48.8691 64.2874C48.8691 63.9975 48.7833 63.7135 48.6222 63.4724C48.4611 63.2313 48.232 63.0435 47.9641 62.9325C47.6962 62.8215 47.4012 62.7925 47.1168 62.8491C46.8324 62.9057 46.5705 63.0453 46.3655 63.2504C46.1605 63.4554 46.0214 63.7167 45.9649 64.0011C45.9083 64.2855 45.9367 64.5804 46.0476 64.8483C46.1586 65.1162 46.3464 65.3453 46.5875 65.5064C46.8286 65.6675 47.1119 65.7533 47.4019 65.7533C47.7896 65.7498 48.1615 65.5941 48.4356 65.3199C48.7098 65.0457 48.8656 64.6752 48.8691 64.2874V64.2874Z" fill="#1F1D20"/>
<path opacity="0.15" d="M35.6071 64.2874C35.6071 63.9975 35.5212 63.7135 35.3601 63.4724C35.199 63.2313 34.9699 63.0435 34.702 62.9325C34.4341 62.8215 34.1392 62.7925 33.8548 62.8491C33.5704 62.9057 33.3098 63.0453 33.1048 63.2504C32.8997 63.4554 32.7594 63.7167 32.7028 64.0011C32.6462 64.2855 32.6759 64.5804 32.7869 64.8483C32.8978 65.1162 33.0856 65.3453 33.3267 65.5064C33.5678 65.6675 33.8512 65.7533 34.1411 65.7533C34.3337 65.7533 34.5241 65.7154 34.702 65.6417C34.8799 65.568 35.0414 65.46 35.1775 65.3238C35.3137 65.1877 35.4217 65.0262 35.4954 64.8483C35.5691 64.6704 35.6071 64.48 35.6071 64.2874Z" fill="#1F1D20"/>
<path opacity="0.15" d="M42.2379 64.2874C42.2379 63.9975 42.1521 63.7135 41.991 63.4724C41.8299 63.2313 41.6008 63.0435 41.3329 62.9325C41.065 62.8215 40.7701 62.7925 40.4856 62.8491C40.2012 62.9057 39.9407 63.0453 39.7356 63.2504C39.5306 63.4554 39.3902 63.7167 39.3337 64.0011C39.2771 64.2855 39.3068 64.5804 39.4177 64.8483C39.5287 65.1162 39.7165 65.3453 39.9576 65.5064C40.1987 65.6675 40.482 65.7533 40.772 65.7533C40.9645 65.7533 41.155 65.7154 41.3329 65.6417C41.5108 65.568 41.6722 65.46 41.8084 65.3238C41.9445 65.1877 42.0526 65.0262 42.1263 64.8483C42.1999 64.6704 42.2379 64.48 42.2379 64.2874Z" fill="#1F1D20"/>
<path opacity="0.15" d="M48.8691 57.5889C48.8691 57.299 48.7833 57.015 48.6222 56.7739C48.4611 56.5328 48.232 56.345 47.9641 56.234C47.6962 56.1231 47.4012 56.094 47.1168 56.1506C46.8324 56.2072 46.5705 56.3469 46.3655 56.5519C46.1605 56.7569 46.0214 57.0182 45.9649 57.3026C45.9083 57.587 45.9367 57.8819 46.0476 58.1498C46.1586 58.4177 46.3464 58.6468 46.5875 58.8079C46.8286 58.969 47.1119 59.0549 47.4019 59.0549C47.7907 59.0549 48.1646 58.9003 48.4396 58.6253C48.7145 58.3504 48.8691 57.9778 48.8691 57.5889V57.5889Z" fill="#1F1D20"/>
<path opacity="0.15" d="M35.6071 57.5889C35.6071 57.299 35.5212 57.015 35.3601 56.7739C35.199 56.5328 34.9699 56.345 34.702 56.234C34.4341 56.1231 34.1392 56.094 33.8548 56.1506C33.5704 56.2072 33.3098 56.3469 33.1048 56.5519C32.8997 56.7569 32.7594 57.0182 32.7028 57.3026C32.6462 57.587 32.6759 57.8819 32.7869 58.1498C32.8978 58.4177 33.0856 58.6468 33.3267 58.8079C33.5678 58.969 33.8512 59.0549 34.1411 59.0549C34.53 59.0549 34.9026 58.9003 35.1775 58.6253C35.4525 58.3504 35.6071 57.9778 35.6071 57.5889Z" fill="#1F1D20"/>
<path opacity="0.15" d="M42.2375 57.589C42.2375 57.2002 42.0829 56.8269 41.808 56.552C41.533 56.277 41.1604 56.1224 40.7716 56.1224C40.3827 56.1224 40.0101 56.277 39.7352 56.552C39.4602 56.8269 39.3057 57.2002 39.3057 57.589C39.3057 57.9778 39.4602 58.3504 39.7352 58.6254C40.0101 58.9003 40.3827 59.0549 40.7716 59.0549C41.1604 59.0549 41.533 58.9003 41.808 58.6254C42.0829 58.3504 42.2375 57.9778 42.2375 57.589Z" fill="#1F1D20"/>
<path opacity="0.15" d="M48.8691 50.8905C48.8691 50.6005 48.7833 50.3165 48.6222 50.0754C48.4611 49.8343 48.232 49.6465 47.9641 49.5355C47.6962 49.4246 47.4012 49.3956 47.1168 49.4521C46.8324 49.5087 46.5705 49.6484 46.3655 49.8534C46.1605 50.0585 46.0214 50.3197 45.9649 50.6041C45.9083 50.8885 45.9367 51.1834 46.0476 51.4513C46.1586 51.7192 46.3464 51.9483 46.5875 52.1094C46.8286 52.2705 47.1119 52.3564 47.4019 52.3564C47.7907 52.3564 48.1646 52.2018 48.4396 51.9268C48.7145 51.6519 48.8691 51.2793 48.8691 50.8905V50.8905Z" fill="#1F1D20"/>
<path opacity="0.15" d="M35.6071 50.8905C35.6071 50.6005 35.5212 50.3165 35.3601 50.0754C35.199 49.8343 34.9699 49.6465 34.702 49.5355C34.4341 49.4246 34.1392 49.3956 33.8548 49.4521C33.5704 49.5087 33.3098 49.6484 33.1048 49.8534C32.8997 50.0585 32.7594 50.3197 32.7028 50.6041C32.6462 50.8885 32.6759 51.1834 32.7869 51.4513C32.8978 51.7192 33.0856 51.9483 33.3267 52.1094C33.5678 52.2705 33.8512 52.3564 34.1411 52.3564C34.53 52.3564 34.9026 52.2018 35.1775 51.9268C35.4525 51.6519 35.6071 51.2793 35.6071 50.8905Z" fill="#1F1D20"/>
<path opacity="0.15" d="M40.7716 52.3564C41.0616 52.3564 41.3449 52.2705 41.586 52.1094C41.8271 51.9483 42.0149 51.7192 42.1258 51.4513C42.2368 51.1834 42.2665 50.8885 42.2099 50.6041C42.1533 50.3197 42.013 50.0585 41.808 49.8534C41.6029 49.6484 41.3423 49.5087 41.0579 49.4521C40.7735 49.3956 40.4786 49.4246 40.2107 49.5355C39.9428 49.6465 39.7137 49.8343 39.5526 50.0754C39.3915 50.3165 39.3057 50.6005 39.3057 50.8905C39.3057 51.2793 39.4602 51.6519 39.7352 51.9268C40.0101 52.2018 40.3827 52.3564 40.7716 52.3564Z" fill="#1F1D20"/>
<path opacity="0.15" d="M48.8691 44.1921C48.8691 43.9021 48.7833 43.6181 48.6222 43.377C48.4611 43.1359 48.232 42.9481 47.9641 42.8372C47.6962 42.7262 47.4012 42.6972 47.1168 42.7538C46.8324 42.8103 46.5705 42.95 46.3655 43.1551C46.1605 43.3601 46.0214 43.6213 45.9649 43.9057C45.9083 44.1901 45.9367 44.4851 46.0476 44.753C46.1586 45.0209 46.3464 45.25 46.5875 45.4111C46.8286 45.5722 47.1119 45.658 47.4019 45.658C47.7907 45.658 48.1646 45.5034 48.4396 45.2285C48.7145 44.9535 48.8691 44.5809 48.8691 44.1921V44.1921Z" fill="#1F1D20"/>
<path opacity="0.15" d="M55.4469 44.1921C55.4469 43.9021 55.3611 43.6181 55.2 43.377C55.0389 43.1359 54.8098 42.9481 54.5419 42.8372C54.274 42.7262 53.979 42.6972 53.6946 42.7538C53.4102 42.8103 53.1496 42.95 52.9446 43.1551C52.7396 43.3601 52.5992 43.6213 52.5427 43.9057C52.4861 44.1901 52.5158 44.4851 52.6267 44.753C52.7377 45.0209 52.9255 45.25 53.1666 45.4111C53.4077 45.5722 53.691 45.658 53.981 45.658C54.3698 45.658 54.7424 45.5034 55.0174 45.2285C55.2923 44.9535 55.4469 44.5809 55.4469 44.1921Z" fill="#1F1D20"/>
<path opacity="0.15" d="M35.6071 44.1921C35.6071 43.9021 35.5212 43.6181 35.3601 43.377C35.199 43.1359 34.9699 42.9481 34.702 42.8372C34.4341 42.7262 34.1392 42.6972 33.8548 42.7538C33.5704 42.8103 33.3098 42.95 33.1048 43.1551C32.8997 43.3601 32.7594 43.6213 32.7028 43.9057C32.6462 44.1901 32.6759 44.4851 32.7869 44.753C32.8978 45.0209 33.0856 45.25 33.3267 45.4111C33.5678 45.5722 33.8512 45.658 34.1411 45.658C34.53 45.658 34.9026 45.5034 35.1775 45.2285C35.4525 44.9535 35.6071 44.5809 35.6071 44.1921Z" fill="#1F1D20"/>
<path opacity="0.15" d="M42.2375 44.1922C42.2375 43.8033 42.0829 43.4301 41.808 43.1551C41.533 42.8802 41.1604 42.7256 40.7716 42.7256C40.3827 42.7256 40.0101 42.8802 39.7352 43.1551C39.4602 43.4301 39.3057 43.8033 39.3057 44.1922C39.3057 44.581 39.4602 44.9536 39.7352 45.2285C40.0101 45.5035 40.3827 45.6581 40.7716 45.6581C41.1604 45.6581 41.533 45.5035 41.808 45.2285C42.0829 44.9536 42.2375 44.581 42.2375 44.1922Z" fill="#1F1D20"/>
<path opacity="0.15" d="M62.1725 44.1921C62.1725 43.9021 62.0866 43.6181 61.9255 43.377C61.7644 43.1359 61.5354 42.9481 61.2675 42.8372C60.9996 42.7262 60.7046 42.6972 60.4202 42.7538C60.1358 42.8103 59.8752 42.95 59.6702 43.1551C59.4651 43.3601 59.3248 43.6213 59.2682 43.9057C59.2117 44.1901 59.2413 44.4851 59.3523 44.753C59.4633 45.0209 59.6511 45.25 59.8922 45.4111C60.1333 45.5722 60.4166 45.658 60.7066 45.658C61.0954 45.658 61.468 45.5034 61.743 45.2285C62.0179 44.9535 62.1725 44.5809 62.1725 44.1921Z" fill="#1F1D20"/>
<path opacity="0.15" d="M68.7627 44.1921C68.7627 43.9021 68.6755 43.6181 68.5144 43.377C68.3533 43.1359 68.1255 42.9481 67.8576 42.8372C67.5897 42.7262 67.2948 42.6972 67.0104 42.7538C66.726 42.8103 66.4641 42.95 66.2591 43.1551C66.054 43.3601 65.915 43.6213 65.8584 43.9057C65.8019 44.1901 65.8302 44.4851 65.9412 44.753C66.0521 45.0209 66.2399 45.25 66.481 45.4111C66.7221 45.5722 67.0055 45.658 67.2954 45.658C67.6843 45.658 68.0582 45.5034 68.3331 45.2285C68.6081 44.9535 68.7627 44.5809 68.7627 44.1921V44.1921Z" fill="#1F1D20"/>
<path opacity="0.15" d="M48.8691 37.5069C48.8691 37.2169 48.7833 36.9336 48.6222 36.6925C48.4611 36.4514 48.232 36.2636 47.9641 36.1526C47.6962 36.0416 47.4012 36.0126 47.1168 36.0692C46.8324 36.1258 46.5705 36.2648 46.3655 36.4698C46.1605 36.6749 46.0214 36.9361 45.9649 37.2205C45.9083 37.5049 45.9367 37.7999 46.0476 38.0677C46.1586 38.3356 46.3464 38.5647 46.5875 38.7258C46.8286 38.8869 47.1119 38.9728 47.4019 38.9728C47.7886 38.9659 48.1582 38.8095 48.4317 38.536C48.7052 38.2626 48.8622 37.8935 48.8691 37.5069Z" fill="#1F1D20"/>
<path opacity="0.15" d="M55.4465 37.5069C55.4465 37.1181 55.2919 36.7448 55.0169 36.4699C54.742 36.1949 54.3694 36.041 53.9806 36.041C53.5917 36.041 53.2191 36.1949 52.9442 36.4699C52.6692 36.7448 52.5146 37.1181 52.5146 37.5069C52.5146 37.8958 52.6692 38.2684 52.9442 38.5433C53.2191 38.8183 53.5917 38.9728 53.9806 38.9728C54.3694 38.9728 54.742 38.8183 55.0169 38.5433C55.2919 38.2684 55.4465 37.8958 55.4465 37.5069Z" fill="#1F1D20"/>
<path opacity="0.15" d="M35.6071 37.5069C35.6071 37.2169 35.5212 36.9336 35.3601 36.6925C35.199 36.4514 34.9699 36.2636 34.702 36.1526C34.4341 36.0416 34.1392 36.0126 33.8548 36.0692C33.5704 36.1258 33.3098 36.2648 33.1048 36.4698C32.8997 36.6749 32.7594 36.9361 32.7028 37.2205C32.6462 37.5049 32.6759 37.7999 32.7869 38.0677C32.8978 38.3356 33.0856 38.5647 33.3267 38.7258C33.5678 38.8869 33.8512 38.9728 34.1411 38.9728C34.5289 38.9693 34.8994 38.8142 35.1736 38.54C35.4478 38.2658 35.6035 37.8946 35.6071 37.5069V37.5069Z" fill="#1F1D20"/>
<path opacity="0.15" d="M42.2378 37.507C42.2378 37.1182 42.0832 36.7449 41.8083 36.47C41.5333 36.195 41.1607 36.0411 40.7719 36.0411C40.5795 36.0392 40.3889 36.0756 40.211 36.1488C40.033 36.222 39.8709 36.3306 39.7355 36.4673C39.6001 36.604 39.4944 36.7662 39.4229 36.9448C39.3513 37.1234 39.3155 37.3146 39.3191 37.507C39.3173 37.6989 39.3533 37.8894 39.4255 38.0672C39.4977 38.245 39.6057 38.4064 39.7407 38.5427C39.8758 38.679 40.0365 38.7874 40.2136 38.8613C40.3907 38.9351 40.58 38.9729 40.7719 38.9729C41.1586 38.966 41.5282 38.8096 41.8017 38.5362C42.0752 38.2627 42.2309 37.8937 42.2378 37.507Z" fill="#1F1D20"/>
<path opacity="0.15" d="M62.1721 37.5069C62.1721 37.1181 62.0175 36.7448 61.7425 36.4699C61.4676 36.1949 61.095 36.041 60.7061 36.041C60.3173 36.041 59.9447 36.1949 59.6698 36.4699C59.3948 36.7448 59.2402 37.1181 59.2402 37.5069C59.2402 37.8958 59.3948 38.2684 59.6698 38.5433C59.9447 38.8183 60.3173 38.9728 60.7061 38.9728C61.095 38.9728 61.4676 38.8183 61.7425 38.5433C62.0175 38.2684 62.1721 37.8958 62.1721 37.5069Z" fill="#1F1D20"/>
<path opacity="0.15" d="M68.7632 37.5069C68.7632 37.1181 68.6086 36.7448 68.3337 36.4699C68.0587 36.1949 67.6848 36.041 67.296 36.041C66.9072 36.041 66.5346 36.1949 66.2596 36.4699C65.9847 36.7448 65.8301 37.1181 65.8301 37.5069C65.8301 37.8958 65.9847 38.2684 66.2596 38.5433C66.5346 38.8183 66.9072 38.9728 67.296 38.9728C67.6827 38.9659 68.0523 38.8096 68.3258 38.5361C68.5993 38.2626 68.7563 37.8936 68.7632 37.5069Z" fill="#1F1D20"/>
<path opacity="0.15" d="M48.8691 30.8083C48.8691 30.5183 48.7833 30.235 48.6222 29.9939C48.4611 29.7528 48.232 29.565 47.9641 29.454C47.6962 29.343 47.4012 29.3134 47.1168 29.3699C46.8324 29.4265 46.5705 29.5662 46.3655 29.7712C46.1605 29.9763 46.0214 30.2375 45.9649 30.5219C45.9083 30.8063 45.9367 31.1012 46.0476 31.3691C46.1586 31.637 46.3464 31.8661 46.5875 32.0272C46.8286 32.1883 47.1119 32.2742 47.4019 32.2742C47.7907 32.2742 48.1646 32.1196 48.4396 31.8446C48.7145 31.5697 48.8691 31.1971 48.8691 30.8083V30.8083Z" fill="#1F1D20"/>
<path opacity="0.15" d="M55.4469 30.8083C55.4469 30.5183 55.3611 30.235 55.2 29.9939C55.0389 29.7528 54.8098 29.565 54.5419 29.454C54.274 29.343 53.979 29.3134 53.6946 29.3699C53.4102 29.4265 53.1496 29.5662 52.9446 29.7712C52.7396 29.9763 52.5992 30.2375 52.5427 30.5219C52.4861 30.8063 52.5158 31.1012 52.6267 31.3691C52.7377 31.637 52.9255 31.8661 53.1666 32.0272C53.4077 32.1883 53.691 32.2742 53.981 32.2742C54.3698 32.2742 54.7424 32.1196 55.0174 31.8446C55.2923 31.5697 55.4469 31.1971 55.4469 30.8083Z" fill="#1F1D20"/>
<path opacity="0.15" d="M35.6071 30.8083C35.6071 30.5183 35.5212 30.235 35.3601 29.9939C35.199 29.7528 34.9699 29.565 34.702 29.454C34.4341 29.343 34.1392 29.3134 33.8548 29.3699C33.5704 29.4265 33.3098 29.5662 33.1048 29.7712C32.8997 29.9763 32.7594 30.2375 32.7028 30.5219C32.6462 30.8063 32.6759 31.1012 32.7869 31.3691C32.8978 31.637 33.0856 31.8661 33.3267 32.0272C33.5678 32.1883 33.8512 32.2742 34.1411 32.2742C34.53 32.2742 34.9026 32.1196 35.1775 31.8446C35.4525 31.5697 35.6071 31.1971 35.6071 30.8083Z" fill="#1F1D20"/>
<path opacity="0.15" d="M42.2375 30.8084C42.2375 30.4196 42.0829 30.0464 41.808 29.7714C41.533 29.4964 41.1604 29.3425 40.7716 29.3425C40.3827 29.3425 40.0101 29.4964 39.7352 29.7714C39.4602 30.0464 39.3057 30.4196 39.3057 30.8084C39.3057 31.1973 39.4602 31.5699 39.7352 31.8448C40.0101 32.1198 40.3827 32.2744 40.7716 32.2744C41.1583 32.2675 41.5279 32.1111 41.8014 31.8376C42.0749 31.5641 42.2306 31.1951 42.2375 30.8084Z" fill="#1F1D20"/>
<path opacity="0.15" d="M62.1725 30.8083C62.1725 30.5183 62.0866 30.235 61.9255 29.9939C61.7644 29.7528 61.5354 29.565 61.2675 29.454C60.9996 29.343 60.7046 29.3134 60.4202 29.3699C60.1358 29.4265 59.8752 29.5662 59.6702 29.7712C59.4651 29.9763 59.3248 30.2375 59.2682 30.5219C59.2117 30.8063 59.2413 31.1012 59.3523 31.3691C59.4633 31.637 59.6511 31.8661 59.8922 32.0272C60.1333 32.1883 60.4166 32.2742 60.7066 32.2742C61.0954 32.2742 61.468 32.1196 61.743 31.8446C62.0179 31.5697 62.1725 31.1971 62.1725 30.8083Z" fill="#1F1D20"/>
<path opacity="0.15" d="M68.7627 30.8083C68.7627 30.5183 68.6755 30.235 68.5144 29.9939C68.3533 29.7528 68.1255 29.565 67.8576 29.454C67.5897 29.343 67.2948 29.3134 67.0104 29.3699C66.726 29.4265 66.4641 29.5662 66.2591 29.7712C66.054 29.9763 65.915 30.2375 65.8584 30.5219C65.8019 30.8063 65.8302 31.1012 65.9412 31.3691C66.0521 31.637 66.2399 31.8661 66.481 32.0272C66.7221 32.1883 67.0055 32.2742 67.2954 32.2742C67.6832 32.2707 68.055 32.1156 68.3292 31.8414C68.6034 31.5672 68.7592 31.196 68.7627 30.8083Z" fill="#1F1D20"/>
<path d="M48.869 63.5476C48.8611 63.2606 48.7684 62.9828 48.6037 62.7476C48.439 62.5125 48.2086 62.3304 47.9417 62.2248C47.6747 62.1193 47.3833 62.0944 47.1023 62.1533C46.8214 62.2122 46.5636 62.3526 46.3615 62.5565C46.1594 62.7604 46.0212 63.0191 45.9648 63.3006C45.9084 63.5821 45.937 63.874 46.0449 64.14C46.1529 64.406 46.3364 64.6342 46.573 64.7968C46.8096 64.9593 47.0885 65.0488 47.3755 65.0542C47.5733 65.056 47.7693 65.0184 47.9522 64.9432C48.135 64.868 48.3003 64.7566 48.4395 64.6161C48.5787 64.4757 48.6891 64.3091 48.7626 64.1255C48.8362 63.942 48.8726 63.7453 48.869 63.5476Z" fill="#2E76BC" stroke="white" stroke-width="0.2" stroke-miterlimit="10"/>
<path d="M35.6071 63.5471C35.6071 63.2572 35.5212 62.9739 35.3601 62.7328C35.199 62.4916 34.9699 62.3039 34.702 62.1929C34.4341 62.0819 34.1392 62.0529 33.8548 62.1095C33.5704 62.166 33.3098 62.3057 33.1048 62.5108C32.8997 62.7158 32.7594 62.9771 32.7028 63.2615C32.6462 63.5459 32.6759 63.8408 32.7869 64.1087C32.8978 64.3766 33.0856 64.605 33.3267 64.7661C33.5678 64.9272 33.8512 65.0137 34.1411 65.0137C34.53 65.0137 34.9026 64.8591 35.1775 64.5842C35.4525 64.3092 35.6071 63.936 35.6071 63.5471Z" fill="#2690CF" stroke="white" stroke-width="0.2" stroke-miterlimit="10"/>
<path d="M42.2379 63.5471C42.2379 63.2572 42.1521 62.9739 41.991 62.7328C41.8299 62.4916 41.6008 62.3039 41.3329 62.1929C41.065 62.0819 40.7701 62.0529 40.4856 62.1095C40.2012 62.166 39.9407 62.3057 39.7356 62.5108C39.5306 62.7158 39.3902 62.9771 39.3337 63.2615C39.2771 63.5459 39.3068 63.8408 39.4177 64.1087C39.5287 64.3766 39.7165 64.605 39.9576 64.7661C40.1987 64.9272 40.482 65.0137 40.772 65.0137C41.1608 65.0137 41.5334 64.8591 41.8084 64.5842C42.0833 64.3092 42.2379 63.936 42.2379 63.5471Z" fill="#2E76BC" stroke="white" stroke-width="0.2" stroke-miterlimit="10"/>
<path d="M48.8696 56.849C48.8669 56.5608 48.7789 56.2799 48.6174 56.0412C48.4558 55.8025 48.2272 55.6169 47.9606 55.5073C47.6941 55.3976 47.4014 55.3686 47.1186 55.4245C46.8359 55.4804 46.576 55.6183 46.3712 55.8212C46.1665 56.0241 46.0265 56.2831 45.968 56.5653C45.9095 56.8476 45.9356 57.1411 46.0428 57.4086C46.1501 57.6762 46.3336 57.9056 46.5709 58.0693C46.8081 58.233 47.0879 58.3234 47.3761 58.3287C47.572 58.3324 47.7669 58.2966 47.9488 58.2237C48.1307 58.1508 48.2956 58.0424 48.4348 57.9045C48.574 57.7665 48.6847 57.6017 48.7593 57.4204C48.8338 57.2392 48.8714 57.045 48.8696 56.849V56.849Z" fill="#2E76BC" stroke="white" stroke-width="0.2" stroke-miterlimit="10"/>
<path d="M35.6071 56.8487C35.6071 56.5587 35.5212 56.2754 35.3601 56.0343C35.199 55.7932 34.9699 55.6054 34.702 55.4944C34.4341 55.3834 34.1392 55.3544 33.8548 55.411C33.5704 55.4676 33.3098 55.6072 33.1048 55.8123C32.8997 56.0173 32.7594 56.2786 32.7028 56.563C32.6462 56.8474 32.6759 57.1416 32.7869 57.4095C32.8978 57.6774 33.0856 57.9065 33.3267 58.0676C33.5678 58.2287 33.8512 58.3152 34.1411 58.3152C34.53 58.3152 34.9026 58.1607 35.1775 57.8857C35.4525 57.6108 35.6071 57.2375 35.6071 56.8487Z" fill="#44C7F0" stroke="white" stroke-width="0.2" stroke-miterlimit="10"/>
<path d="M42.2375 56.8487C42.2375 56.4599 42.0829 56.0873 41.808 55.8123C41.533 55.5374 41.1604 55.3828 40.7716 55.3828C40.3827 55.3828 40.0101 55.5374 39.7352 55.8123C39.4602 56.0873 39.3057 56.4599 39.3057 56.8487C39.3057 57.2376 39.4602 57.6108 39.7352 57.8858C40.0101 58.1607 40.3827 58.3153 40.7716 58.3153C41.1604 58.3153 41.533 58.1607 41.808 57.8858C42.0829 57.6108 42.2375 57.2376 42.2375 56.8487V56.8487Z" fill="#2690CF" stroke="white" stroke-width="0.2" stroke-miterlimit="10"/>
<path d="M48.8692 50.1501C48.8718 49.8608 48.7884 49.5773 48.6301 49.3351C48.4718 49.0928 48.2447 48.9024 47.9786 48.7886C47.7125 48.6749 47.4198 48.6425 47.1353 48.6954C46.8508 48.7483 46.5874 48.8844 46.38 49.0862C46.1726 49.288 46.0296 49.5467 45.9689 49.8296C45.9082 50.1126 45.9334 50.4071 46.0398 50.6762C46.1463 50.9453 46.3301 51.1773 46.5679 51.3422C46.8057 51.5071 47.0864 51.5976 47.3757 51.6029C47.5694 51.6065 47.7617 51.5717 47.9418 51.5005C48.1219 51.4292 48.2864 51.3229 48.4252 51.1878C48.564 51.0528 48.6748 50.8917 48.751 50.7136C48.8271 50.5355 48.8675 50.3438 48.8692 50.1501Z" fill="#2690CF" stroke="white" stroke-width="0.2" stroke-miterlimit="10"/>
<path d="M35.6071 50.1502C35.6071 49.8602 35.5212 49.5769 35.3601 49.3358C35.199 49.0947 34.9699 48.9069 34.702 48.7959C34.4341 48.6849 34.1392 48.6559 33.8548 48.7125C33.5704 48.7691 33.3098 48.9087 33.1048 49.1138C32.8997 49.3188 32.7594 49.5801 32.7028 49.8645C32.6462 50.1489 32.6759 50.4432 32.7869 50.7111C32.8978 50.979 33.0856 51.208 33.3267 51.3691C33.5678 51.5302 33.8512 51.6161 34.1411 51.6161C34.53 51.6161 34.9026 51.4622 35.1775 51.1872C35.4525 50.9123 35.6071 50.539 35.6071 50.1502Z" fill="#44C7F0" stroke="white" stroke-width="0.2" stroke-miterlimit="10"/>
<path d="M40.7716 51.6031C41.0616 51.6031 41.3449 51.5172 41.586 51.3561C41.8271 51.195 42.0149 50.9659 42.1258 50.698C42.2368 50.4301 42.2665 50.1352 42.2099 49.8508C42.1533 49.5664 42.013 49.3052 41.808 49.1001C41.6029 48.8951 41.3423 48.7554 41.0579 48.6988C40.7735 48.6423 40.4786 48.6713 40.2107 48.7822C39.9428 48.8932 39.7137 49.081 39.5526 49.3221C39.3915 49.5632 39.3057 49.8472 39.3057 50.1372C39.3057 50.526 39.4602 50.8986 39.7352 51.1735C40.0101 51.4485 40.3827 51.6031 40.7716 51.6031V51.6031Z" fill="#44C7F0" stroke="white" stroke-width="0.2" stroke-miterlimit="10"/>
<path d="M48.8699 43.4521C48.8778 43.1616 48.799 42.8755 48.644 42.6298C48.489 42.3841 48.2645 42.1901 47.999 42.0722C47.7335 41.9543 47.4393 41.918 47.1531 41.9677C46.8669 42.0175 46.6013 42.1513 46.3912 42.352C46.1811 42.5526 46.0351 42.8112 45.9722 43.0948C45.9093 43.3784 45.9323 43.674 46.0379 43.9446C46.1434 44.2153 46.3276 44.4484 46.5659 44.6145C46.8042 44.7807 47.0859 44.8725 47.3764 44.8779C47.763 44.8851 48.1371 44.7397 48.4167 44.4727C48.6963 44.2056 48.8593 43.8386 48.8699 43.4521V43.4521Z" fill="#74CFEB" stroke="white" stroke-width="0.2" stroke-miterlimit="10"/>
<path d="M55.4468 43.4519C55.4539 43.1554 55.3711 42.8636 55.209 42.6152C55.0469 42.3668 54.8134 42.1737 54.5391 42.0609C54.2648 41.9481 53.9621 41.9209 53.6722 41.9834C53.3822 42.0458 53.1178 42.1945 52.9143 42.4103C52.7107 42.6261 52.5775 42.8987 52.532 43.1918C52.4865 43.485 52.5308 43.7849 52.6594 44.0522C52.788 44.3195 52.9957 44.5419 53.2532 44.6893C53.5106 44.8367 53.8061 44.9022 54.1017 44.8778C54.4623 44.848 54.7991 44.6858 55.0475 44.4226C55.2958 44.1594 55.438 43.8137 55.4468 43.4519V43.4519Z" fill="#2690CF" stroke="white" stroke-width="0.2" stroke-miterlimit="10"/>
<path d="M35.6071 43.4519C35.6071 43.162 35.5212 42.8786 35.3601 42.6375C35.199 42.3964 34.9699 42.2086 34.702 42.0977C34.4341 41.9867 34.1392 41.9577 33.8548 42.0143C33.5704 42.0708 33.3098 42.2105 33.1048 42.4155C32.8997 42.6206 32.7594 42.8818 32.7028 43.1662C32.6462 43.4506 32.6759 43.7449 32.7869 44.0128C32.8978 44.2807 33.0856 44.5098 33.3267 44.6709C33.5678 44.832 33.8512 44.9178 34.1411 44.9178C34.3337 44.9178 34.5241 44.8805 34.702 44.8069C34.8799 44.7332 35.0414 44.6251 35.1775 44.489C35.3137 44.3528 35.4217 44.1907 35.4954 44.0128C35.5691 43.8349 35.6071 43.6445 35.6071 43.4519Z" fill="#74CFEB" stroke="white" stroke-width="0.2" stroke-miterlimit="10"/>
<path d="M42.2375 43.452C42.2375 43.0632 42.0829 42.6906 41.808 42.4156C41.533 42.1407 41.1604 41.9861 40.7716 41.9861C40.3827 41.9861 40.0101 42.1407 39.7352 42.4156C39.4602 42.6906 39.3057 43.0632 39.3057 43.452C39.3057 43.8408 39.4602 44.2141 39.7352 44.489C40.0101 44.764 40.3827 44.9179 40.7716 44.9179C41.1604 44.9179 41.533 44.764 41.808 44.489C42.0829 44.2141 42.2375 43.8408 42.2375 43.452V43.452Z" fill="#44C7F0" stroke="white" stroke-width="0.2" stroke-miterlimit="10"/>
<path d="M62.1725 43.4519C62.1725 43.162 62.0866 42.8786 61.9255 42.6375C61.7644 42.3964 61.5354 42.2086 61.2675 42.0977C60.9996 41.9867 60.7046 41.9577 60.4202 42.0143C60.1358 42.0708 59.8752 42.2105 59.6702 42.4155C59.4651 42.6206 59.3248 42.8818 59.2682 43.1662C59.2117 43.4506 59.2413 43.7449 59.3523 44.0128C59.4633 44.2807 59.6511 44.5098 59.8922 44.6709C60.1333 44.832 60.4166 44.9178 60.7066 44.9178C60.8991 44.9178 61.0896 44.8805 61.2675 44.8069C61.4453 44.7332 61.6068 44.6251 61.743 44.489C61.8791 44.3528 61.9872 44.1907 62.0608 44.0128C62.1345 43.8349 62.1725 43.6445 62.1725 43.4519Z" fill="#2690CF" stroke="white" stroke-width="0.2" stroke-miterlimit="10"/>
<path d="M68.7627 43.4519C68.7627 43.162 68.6755 42.8786 68.5144 42.6375C68.3533 42.3964 68.1255 42.2086 67.8576 42.0977C67.5897 41.9867 67.2948 41.9577 67.0104 42.0143C66.726 42.0708 66.4641 42.2105 66.2591 42.4155C66.054 42.6206 65.915 42.8818 65.8584 43.1662C65.8019 43.4506 65.8302 43.7449 65.9412 44.0128C66.0521 44.2807 66.2399 44.5098 66.481 44.6709C66.7221 44.832 67.0055 44.9178 67.2954 44.9178C67.488 44.9178 67.6798 44.8805 67.8576 44.8069C68.0355 44.7332 68.197 44.6251 68.3331 44.489C68.4693 44.3528 68.5773 44.1907 68.651 44.0128C68.7247 43.8349 68.7627 43.6445 68.7627 43.4519V43.4519Z" fill="#2E76BC" stroke="white" stroke-width="0.2" stroke-miterlimit="10"/>
<path d="M48.8691 36.8073C48.8691 36.5173 48.7833 36.234 48.6222 35.9929C48.4611 35.7518 48.232 35.564 47.9641 35.453C47.6962 35.3421 47.4012 35.313 47.1168 35.3696C46.8324 35.4262 46.5705 35.5659 46.3655 35.7709C46.1605 35.9759 46.0214 36.2365 45.9649 36.5209C45.9083 36.8053 45.9367 37.1003 46.0476 37.3682C46.1586 37.6361 46.3464 37.8652 46.5875 38.0262C46.8286 38.1873 47.1119 38.2732 47.4019 38.2732C47.7886 38.2663 48.1582 38.1099 48.4317 37.8364C48.7052 37.563 48.8622 37.194 48.8691 36.8073Z" fill="#44C7F0" stroke="white" stroke-width="0.2" stroke-miterlimit="10"/>
<path d="M55.4465 36.8073C55.4465 36.4185 55.2919 36.0459 55.0169 35.771C54.742 35.496 54.3694 35.3414 53.9806 35.3414C53.5917 35.3414 53.2191 35.496 52.9442 35.771C52.6692 36.0459 52.5146 36.4185 52.5146 36.8073C52.5146 37.1962 52.6692 37.5688 52.9442 37.8437C53.2191 38.1187 53.5917 38.2733 53.9806 38.2733C54.3694 38.2733 54.742 38.1187 55.0169 37.8437C55.2919 37.5688 55.4465 37.1962 55.4465 36.8073Z" fill="#74CFEB" stroke="white" stroke-width="0.2" stroke-miterlimit="10"/>
<path d="M35.6071 36.8073C35.6071 36.5173 35.5212 36.234 35.3601 35.9929C35.199 35.7518 34.9699 35.564 34.702 35.453C34.4341 35.3421 34.1392 35.313 33.8548 35.3696C33.5704 35.4262 33.3098 35.5659 33.1048 35.7709C32.8997 35.9759 32.7594 36.2365 32.7028 36.5209C32.6462 36.8053 32.6759 37.1003 32.7869 37.3682C32.8978 37.6361 33.0856 37.8652 33.3267 38.0262C33.5678 38.1873 33.8512 38.2732 34.1411 38.2732C34.5289 38.2697 34.8994 38.1146 35.1736 37.8404C35.4478 37.5662 35.6035 37.195 35.6071 36.8073V36.8073Z" fill="#74CFEB" stroke="white" stroke-width="0.2" stroke-miterlimit="10"/>
<path d="M42.2378 36.8076C42.2378 36.4188 42.0832 36.0462 41.8082 35.7712C41.5333 35.4963 41.1607 35.3417 40.7718 35.3417C40.5783 35.338 40.3865 35.3731 40.207 35.4455C40.0275 35.5178 39.8644 35.6258 39.7276 35.7627C39.5907 35.8996 39.4821 36.0626 39.4097 36.2421C39.3373 36.4217 39.3023 36.6141 39.3059 36.8076C39.3041 36.9995 39.3401 37.19 39.4123 37.3678C39.4845 37.5456 39.5912 37.707 39.7263 37.8433C39.8613 37.9797 40.022 38.088 40.1991 38.1619C40.3763 38.2357 40.5668 38.2735 40.7587 38.2735C41.1477 38.2701 41.5201 38.1152 41.7964 37.8414C42.0727 37.5675 42.2308 37.1966 42.2378 36.8076Z" fill="#74CFEB" stroke="white" stroke-width="0.2" stroke-miterlimit="10"/>
<path d="M62.1721 36.8073C62.1721 36.4185 62.0175 36.0459 61.7425 35.771C61.4676 35.496 61.095 35.3414 60.7061 35.3414C60.3173 35.3414 59.9447 35.496 59.6698 35.771C59.3948 36.0459 59.2402 36.4185 59.2402 36.8073C59.2402 37.1962 59.3948 37.5688 59.6698 37.8437C59.9447 38.1187 60.3173 38.2733 60.7061 38.2733C61.095 38.2733 61.4676 38.1187 61.7425 37.8437C62.0175 37.5688 62.1721 37.1962 62.1721 36.8073Z" fill="#2690CF" stroke="white" stroke-width="0.2" stroke-miterlimit="10"/>
<path d="M68.7632 36.8073C68.7632 36.4185 68.6086 36.0459 68.3337 35.771C68.0587 35.496 67.6848 35.3414 67.296 35.3414C66.9072 35.3414 66.5346 35.496 66.2596 35.771C65.9847 36.0459 65.8301 36.4185 65.8301 36.8073C65.8301 37.1962 65.9847 37.5688 66.2596 37.8437C66.5346 38.1187 66.9072 38.2733 67.296 38.2733C67.6827 38.2664 68.0523 38.11 68.3258 37.8365C68.5993 37.563 68.7563 37.194 68.7632 36.8073Z" fill="#2E76BC" stroke="white" stroke-width="0.2" stroke-miterlimit="10"/>
<path d="M48.8691 30.0821C48.8691 29.7921 48.7833 29.5088 48.6222 29.2677C48.4611 29.0266 48.232 28.8388 47.9641 28.7278C47.6962 28.6168 47.4012 28.5878 47.1168 28.6444C46.8324 28.701 46.5705 28.8406 46.3655 29.0457C46.1605 29.2507 46.0214 29.5113 45.9649 29.7957C45.9083 30.0801 45.9367 30.375 46.0476 30.6429C46.1586 30.9108 46.3464 31.1399 46.5875 31.301C46.8286 31.4621 47.1119 31.548 47.4019 31.548C47.7907 31.548 48.1646 31.3934 48.4396 31.1184C48.7145 30.8435 48.8691 30.4709 48.8691 30.0821V30.0821Z" fill="#A5DEF3" stroke="white" stroke-width="0.2" stroke-miterlimit="10"/>
<path d="M55.4469 30.0821C55.4469 29.7921 55.3611 29.5088 55.2 29.2677C55.0389 29.0266 54.8098 28.8388 54.5419 28.7278C54.274 28.6168 53.979 28.5878 53.6946 28.6444C53.4102 28.701 53.1496 28.8406 52.9446 29.0457C52.7396 29.2507 52.5992 29.5113 52.5427 29.7957C52.4861 30.0801 52.5158 30.375 52.6267 30.6429C52.7377 30.9108 52.9255 31.1399 53.1666 31.301C53.4077 31.4621 53.691 31.548 53.981 31.548C54.3698 31.548 54.7424 31.3934 55.0174 31.1184C55.2923 30.8435 55.4469 30.4709 55.4469 30.0821Z" fill="#44C7F0" stroke="white" stroke-width="0.2" stroke-miterlimit="10"/>
<path d="M35.6071 30.0822C35.6071 29.7922 35.5212 29.5089 35.3601 29.2678C35.199 29.0267 34.9699 28.8389 34.702 28.7279C34.4341 28.617 34.1392 28.5879 33.8548 28.6445C33.5704 28.7011 33.3098 28.8408 33.1048 29.0458C32.8997 29.2508 32.7594 29.5114 32.7028 29.7958C32.6462 30.0802 32.6759 30.3752 32.7869 30.6431C32.8978 30.911 33.0856 31.1401 33.3267 31.3012C33.5678 31.4623 33.8512 31.5481 34.1411 31.5481C34.53 31.5481 34.9026 31.3935 35.1775 31.1186C35.4525 30.8436 35.6071 30.471 35.6071 30.0822Z" fill="#74CFEB" stroke="white" stroke-width="0.2" stroke-miterlimit="10"/>
<path d="M42.2375 30.0821C42.2375 29.6933 42.0829 29.3207 41.808 29.0457C41.533 28.7708 41.1604 28.6162 40.7716 28.6162C40.3827 28.6162 40.0101 28.7708 39.7352 29.0457C39.4602 29.3207 39.3057 29.6933 39.3057 30.0821C39.3057 30.471 39.4602 30.8436 39.7352 31.1185C40.0101 31.3935 40.3827 31.548 40.7716 31.548C41.1583 31.5411 41.5279 31.3848 41.8014 31.1113C42.0749 30.8378 42.2306 30.4688 42.2375 30.0821Z" fill="#74CFEB" stroke="white" stroke-width="0.2" stroke-miterlimit="10"/>
<path d="M62.1725 30.0821C62.1725 29.7921 62.0866 29.5088 61.9255 29.2677C61.7644 29.0266 61.5354 28.8388 61.2675 28.7278C60.9996 28.6168 60.7046 28.5878 60.4202 28.6444C60.1358 28.701 59.8752 28.8406 59.6702 29.0457C59.4651 29.2507 59.3248 29.5113 59.2682 29.7957C59.2117 30.0801 59.2413 30.375 59.3523 30.6429C59.4633 30.9108 59.6511 31.1399 59.8922 31.301C60.1333 31.4621 60.4166 31.548 60.7066 31.548C61.0954 31.548 61.468 31.3934 61.743 31.1184C62.0179 30.8435 62.1725 30.4709 62.1725 30.0821Z" fill="#A5DEF3" stroke="white" stroke-width="0.2" stroke-miterlimit="10"/>
<path d="M68.7627 30.0821C68.7627 29.7921 68.6755 29.5088 68.5144 29.2677C68.3533 29.0266 68.1255 28.8388 67.8576 28.7278C67.5897 28.6168 67.2948 28.5878 67.0104 28.6444C66.726 28.701 66.4641 28.8406 66.2591 29.0457C66.054 29.2507 65.915 29.5113 65.8584 29.7957C65.8019 30.0801 65.8302 30.375 65.9412 30.6429C66.0521 30.9108 66.2399 31.1399 66.481 31.301C66.7221 31.4621 67.0055 31.548 67.2954 31.548C67.6832 31.5445 68.055 31.3894 68.3292 31.1152C68.6034 30.841 68.7592 30.4698 68.7627 30.0821V30.0821Z" fill="#2690CF" stroke="white" stroke-width="0.2" stroke-miterlimit="10"/>
<path opacity="0.15" d="M51.4595 63.5449L60.5663 68.7505L69.6455 63.5449L60.5663 58.3531L51.4595 63.5449Z" fill="#1F1D20"/>
<path d="M51.4912 59.1895V62.4845L60.598 67.6769L69.6772 62.4845V59.1895H51.4912Z" fill="#CC2827"/>
<path d="M60.5981 59.1895V67.7439L69.6774 62.5521V59.2564L60.5981 59.1895Z" fill="#E53325"/>
<path d="M51.4912 59.1896L60.598 64.3814L69.6772 59.1896L60.598 53.984L51.4912 59.1896Z" fill="#F15D26"/>
<path d="M51.4912 52.3564V55.6383L60.598 60.8032L69.6772 55.6383V52.3427L51.4912 52.3564Z" fill="#CC2827"/>
<path d="M60.5981 52.3566V60.8171L69.6774 55.6516V52.3566H60.5981Z" fill="#E53325"/>
<path d="M51.4912 52.3565L60.598 57.562L69.6772 52.3565L60.598 47.1647L51.4912 52.3565Z" fill="#F15D26"/>
<path opacity="0.15" d="M74.4293 83.3162C76.3487 83.3162 78.2249 82.7469 79.8208 81.6806C81.4167 80.6142 82.6604 79.0986 83.3949 77.3253C84.1294 75.5521 84.3218 73.6009 83.9474 71.7184C83.5729 69.8359 82.6481 68.1067 81.2909 66.7495C79.9337 65.3923 78.2052 64.4682 76.3227 64.0937C74.4402 63.7193 72.4884 63.9114 70.7151 64.6459C68.9418 65.3804 67.4265 66.6242 66.3602 68.2201C65.2938 69.816 64.7246 71.6922 64.7246 73.6116C64.7246 74.886 64.9754 76.1479 65.4631 77.3253C65.9508 78.5027 66.6659 79.5726 67.567 80.4737C68.4682 81.3749 69.5377 82.0896 70.7151 82.5773C71.8925 83.065 73.1549 83.3162 74.4293 83.3162Z" fill="#1F1D20"/>
<path d="M74.4293 82.5251C76.3487 82.5251 78.2249 81.956 79.8208 80.8897C81.4167 79.8234 82.6604 78.3077 83.3949 76.5344C84.1294 74.7612 84.3218 72.8098 83.9474 70.9274C83.5729 69.0449 82.6481 67.3158 81.2909 65.9586C79.9337 64.6014 78.2052 63.6771 76.3227 63.3027C74.4402 62.9282 72.4884 63.1205 70.7151 63.855C68.9418 64.5895 67.4265 65.8333 66.3602 67.4292C65.2938 69.0251 64.7246 70.9014 64.7246 72.8207C64.7246 74.0951 64.9754 75.357 65.4631 76.5344C65.9508 77.7118 66.6659 78.7817 67.567 79.6828C68.4682 80.584 69.5377 81.2988 70.7151 81.7865C71.8925 82.2742 73.1549 82.5251 74.4293 82.5251Z" fill="#092D4C"/>
<path d="M79.7088 67.8772L71.7053 75.9082L69.3108 73.4997L67.7148 75.1101L71.7128 79.1151L81.3191 69.4806L79.7088 67.8772Z" fill="#FAF9F8"/>
<defs>
<linearGradient id="paint0_linear" x1="49.2467" y1="-13.7795" x2="53.2267" y2="131.99" gradientUnits="userSpaceOnUse">
<stop stop-color="#00ABDE"/>
<stop offset="1" stop-color="#2E7BBF"/>
</linearGradient>
<linearGradient id="paint1_linear" x1="2.45653" y1="-20.6195" x2="97.9761" y2="120.26" gradientUnits="userSpaceOnUse">
<stop stop-color="#2E7BBF"/>
<stop offset="0.71" stop-color="#092D4C"/>
</linearGradient>
</defs>
</svg>
