<svg width="181" height="191" viewBox="0 0 181 191" fill="none" xmlns="http://www.w3.org/2000/svg">
<path d="M90.1622 189.136C93.2222 189.136 96.2322 188.286 98.8922 186.666L160.862 149.006C166.402 145.636 169.832 139.306 169.832 132.466V57.7558C169.832 50.9358 166.402 44.5958 160.862 41.2158L98.8922 3.55581C93.5622 0.315807 86.7422 0.335807 81.4422 3.55581L19.4722 41.2358C13.9322 44.6058 10.4822 50.9358 10.4822 57.7758V132.476C10.4822 138.236 12.9322 143.656 17.0322 147.226V147.256L81.4422 186.686C84.0822 188.286 87.1022 189.136 90.1622 189.136ZM90.8122 8.08581C92.7622 8.08581 95.2422 9.29581 96.9522 10.3458L157.712 47.5358C161.462 49.8158 163.582 56.4158 163.582 61.1658L162.952 132.466C162.952 137.216 159.752 141.486 156.002 143.766L95.6022 180.146C92.1722 182.236 89.3822 182.236 85.9422 180.146L24.7322 143.676C20.9822 141.396 17.9622 137.196 17.9622 132.466V58.8258C17.9622 54.0858 20.6922 49.1958 24.4622 46.9058L85.0422 10.3458C86.7422 9.30581 88.8622 8.08581 90.8122 8.08581Z" fill="#F2F1F0"/>
<path fill-rule="evenodd" clip-rule="evenodd" d="M98.0623 11.6655C95.6123 10.1655 92.8923 9.41553 90.1623 9.41553C87.4323 9.41553 84.7123 10.1755 82.2623 11.6655L26.1323 45.9955C21.1123 49.0655 18.0023 54.8155 18.0023 61.0655V129.166C18.0023 135.396 21.1023 141.166 26.1323 144.236L82.2623 178.566C84.7123 180.066 87.4323 180.816 90.1623 180.816C92.8923 180.816 95.6123 180.076 98.0623 178.566L154.192 144.236C159.212 141.166 162.322 135.396 162.322 129.166V61.0655C162.322 54.8355 159.222 49.0855 154.192 45.9955L98.0623 11.6655Z" fill="url(#paint0_linear_947_13659)"/>
<path fill-rule="evenodd" clip-rule="evenodd" d="M90.1623 10.8857C91.8423 10.8857 93.7323 11.7557 95.7923 13.0057L154.262 48.5457C157.912 50.7657 160.322 55.0357 160.322 59.8657V130.346C160.322 135.166 157.912 139.446 154.262 141.666L95.8023 177.206C93.8423 178.396 91.9223 179.146 90.1723 179.146C88.4223 179.146 86.5023 178.396 84.5423 177.206L26.0623 141.676C24.0523 140.446 22.6023 139.246 21.6223 137.636C20.6423 136.036 20.0023 133.816 20.0023 130.356V59.8757C20.0023 55.0457 22.4123 50.7757 26.0623 48.5557L84.5223 13.0157C86.6123 11.7657 88.4723 10.8857 90.1623 10.8857ZM97.8723 180.636L156.332 145.096C161.252 142.106 164.312 136.486 164.312 130.356V59.8757C164.312 53.7457 161.252 48.1257 156.332 45.1357L97.8723 9.59574C95.7623 8.31574 93.0523 6.88574 90.1623 6.88574C87.2623 6.88574 84.5523 8.32574 82.4623 9.58574H82.4523L23.9823 45.1357C19.0623 48.1257 16.0023 53.7457 16.0023 59.8757V130.356C16.0023 134.316 16.7423 137.306 18.2023 139.716C19.6623 142.116 21.7223 143.716 23.9823 145.086L82.4423 180.626C84.6623 181.976 87.3323 183.156 90.1523 183.156C92.9723 183.156 95.6523 181.986 97.8723 180.636Z" fill="url(#paint1_linear_947_13659)"/>
<g opacity="0.2">
<path d="M145.58 138.8H124.473C123.183 138.8 122.13 137.746 122.13 136.456V123.523C122.13 122.234 123.183 121.18 124.473 121.18H145.598C146.888 121.162 147.941 122.216 147.941 123.505V136.438C147.923 137.746 146.869 138.8 145.58 138.8Z" fill="#1F1D21"/>
<path d="M145.58 95.7498H124.473C123.183 95.7498 122.13 94.6962 122.13 93.4066V80.4555C122.13 79.1658 123.183 78.1123 124.473 78.1123H145.598C146.888 78.1123 147.941 79.1658 147.941 80.4555V93.3884C147.923 94.6962 146.869 95.7498 145.58 95.7498Z" fill="#1F1D21"/>
<path d="M145.58 117.311H124.473C123.183 117.311 122.13 116.257 122.13 114.968V102.035C122.13 100.745 123.183 99.6915 124.473 99.6915H145.598C146.888 99.6733 147.941 100.727 147.941 102.035V114.968C147.923 116.257 146.869 117.311 145.58 117.311Z" fill="#1F1D21"/>
<path d="M145.58 74.2618H124.473C123.183 74.2618 122.13 73.2083 122.13 71.9186V58.9675C122.13 57.6779 123.183 56.6243 124.473 56.6243H145.598C146.888 56.6243 147.941 57.6779 147.941 58.9675V71.9004C147.923 73.2083 146.869 74.2618 145.58 74.2618Z" fill="#1F1D21"/>
</g>
<path d="M104.745 63.6679H133.989V65.1211H104.745V63.6679Z" fill="white"/>
<path d="M104.745 84.9022H133.989V86.3553H104.745V84.9022Z" fill="white"/>
<path d="M104.745 106.154H133.989V107.607H104.745V106.154Z" fill="white"/>
<path d="M104.745 127.388H133.989V128.841H104.745V127.388Z" fill="white"/>
<g filter="url(#filter0_d_947_13659)">
<path d="M145.541 72.95H124.435C123.145 72.95 122.091 71.8965 122.091 70.6068V57.6557C122.091 56.3661 123.145 55.3126 124.435 55.3126H145.56C146.849 55.3126 147.903 56.3661 147.903 57.6557V70.5887C147.885 71.8965 146.831 72.95 145.541 72.95Z" fill="#50E6FF"/>
</g>
<g filter="url(#filter1_d_947_13659)">
<path d="M145.541 94.4378H124.435C123.145 94.4378 122.091 93.3842 122.091 92.0946V79.1435C122.091 77.8538 123.145 76.8003 124.435 76.8003H145.56C146.849 76.8003 147.903 77.8538 147.903 79.1435V92.0764C147.885 93.3842 146.831 94.4378 145.541 94.4378Z" fill="#50E6FF"/>
</g>
<g filter="url(#filter2_d_947_13659)">
<path d="M145.541 115.999H124.435C123.145 115.999 122.091 114.945 122.091 113.656V100.723C122.091 99.4332 123.145 98.3797 124.435 98.3797H145.56C146.849 98.3615 147.903 99.415 147.903 100.723V113.656C147.885 114.945 146.831 115.999 145.541 115.999Z" fill="#3BCAF4"/>
</g>
<g filter="url(#filter3_d_947_13659)">
<path d="M145.541 137.488H124.435C123.145 137.488 122.091 136.434 122.091 135.145V122.212C122.091 120.922 123.145 119.869 124.435 119.869H145.56C146.849 119.85 147.903 120.904 147.903 122.194V135.126C147.885 136.434 146.831 137.488 145.541 137.488Z" fill="#0078D4"/>
</g>
<path opacity="0.2" d="M111.455 140.167C113.784 140.167 115.672 138.279 115.672 135.95V59.5091H33.0001V135.95C33.0001 138.279 34.8883 140.167 37.2171 140.167H111.455V140.167Z" fill="#1F1D21"/>
<g filter="url(#filter4_d_947_13659)">
<path d="M115.704 59.4963V58.1745C115.704 56.5696 114.413 55.2793 112.808 55.2793H35.8954C34.2904 55.2793 33.0001 56.5696 33.0001 58.1745V59.5907V60.881V134.521C33.0001 136.126 34.2904 137.416 35.8954 137.416H112.871C114.476 137.416 115.767 136.126 115.767 134.521V59.5907C115.735 59.5592 115.704 59.5278 115.704 59.4963Z" fill="#F2F1F0"/>
</g>
<path opacity="0.2" d="M102.951 128.984C104.32 128.984 105.428 127.877 105.428 126.507V67.9434H42.8432V126.507C42.8432 127.877 43.951 128.984 45.3201 128.984H102.951Z" fill="#1F1D21"/>
<g filter="url(#filter5_d_947_13659)">
<path d="M105.428 67.9173V66.9464C105.428 65.739 104.457 64.7681 103.25 64.7681H45.0216C43.8142 64.7681 42.8434 65.739 42.8434 66.9464V68.0168V69.0002V124.726C42.8434 125.934 43.8142 126.905 45.0216 126.905H103.275C104.482 126.905 105.453 125.934 105.453 124.726V68.0168C105.44 67.9795 105.428 67.9546 105.428 67.9173Z" fill="white"/>
</g>
<path opacity="0.15" d="M101.421 132.025C106.162 132.025 110.003 128.184 110.003 123.443C110.003 118.702 106.162 114.861 101.421 114.861C96.6802 114.861 92.8395 118.702 92.8395 123.443C92.8509 128.184 96.6916 132.025 101.421 132.025Z" fill="#1F1D20"/>
<path d="M101.421 131.056C106.162 131.056 110.003 127.215 110.003 122.474C110.003 117.733 106.162 113.893 101.421 113.893C96.6802 113.893 92.8395 117.733 92.8395 122.474C92.8509 127.215 96.6916 131.056 101.421 131.056Z" fill="#002D4C"/>
<path opacity="0.3" d="M106.094 118.725L99.0279 125.825L96.9081 123.694L95.4949 125.118L99.0279 128.663L107.518 120.149L106.094 118.725Z" fill="#1F1D20"/>
<path d="M106.094 118.121L99.0279 125.221L96.9081 123.09L95.4949 124.514L99.0279 128.059L107.518 119.545L106.094 118.121Z" fill="#FAF9F8"/>
<path d="M75.5727 73.6777C70.3807 73.6777 65.4013 75.758 61.7297 79.4608C58.0581 83.1636 55.995 88.1858 55.9941 93.4228L55.9941 116.749H88.4884V104.973H95.1498V93.4228C95.1497 90.8298 94.6432 88.2621 93.6594 85.8664C92.6755 83.4708 91.2334 81.294 89.4155 79.4605C87.5976 77.627 85.4394 76.1726 83.0643 75.1804C80.6891 74.1882 78.1435 73.6776 75.5727 73.6777V73.6777Z" fill="url(#paint2_linear_947_13659)"/>
<path fill-rule="evenodd" clip-rule="evenodd" d="M66.8486 99.4083C66.3034 99.4083 65.8563 99.8549 65.8563 100.412C65.8563 100.97 66.3034 101.416 66.8486 101.416C67.3938 101.416 67.8409 100.97 67.8409 100.412C67.8409 99.8549 67.3938 99.4083 66.8486 99.4083ZM65.1563 100.412C65.1563 99.474 65.9111 98.7083 66.8486 98.7083C67.786 98.7083 68.5409 99.474 68.5409 100.412C68.5409 101.35 67.786 102.116 66.8486 102.116C65.9111 102.116 65.1563 101.35 65.1563 100.412Z" fill="white"/>
<path fill-rule="evenodd" clip-rule="evenodd" d="M78.7684 86.8436C78.2232 86.8436 77.7761 87.2902 77.7761 87.8475C77.7761 88.4049 78.2232 88.8515 78.7684 88.8515C79.3135 88.8515 79.7607 88.4049 79.7607 87.8475C79.7607 87.2902 79.3135 86.8436 78.7684 86.8436ZM77.0761 87.8475C77.0761 86.9093 77.8309 86.1436 78.7684 86.1436C79.7058 86.1436 80.4607 86.9093 80.4607 87.8475C80.4607 88.7858 79.7058 89.5515 78.7684 89.5515C77.8309 89.5515 77.0761 88.7858 77.0761 87.8475Z" fill="white"/>
<path fill-rule="evenodd" clip-rule="evenodd" d="M61.2634 92.2591C60.7182 92.2591 60.2711 92.7058 60.2711 93.2631C60.2711 93.8204 60.7182 94.267 61.2634 94.267C61.8086 94.267 62.2557 93.8204 62.2557 93.2631C62.2557 92.7058 61.8086 92.2591 61.2634 92.2591ZM59.5711 93.2631C59.5711 92.3249 60.3259 91.5591 61.2634 91.5591C62.2009 91.5591 62.9557 92.3249 62.9557 93.2631C62.9557 94.2013 62.2009 94.967 61.2634 94.967C60.3259 94.967 59.5711 94.2013 59.5711 93.2631Z" fill="white"/>
<path fill-rule="evenodd" clip-rule="evenodd" d="M64.3787 83.3777C63.8335 83.3777 63.3864 83.8244 63.3864 84.3817C63.3864 84.939 63.8335 85.3856 64.3787 85.3856C64.9239 85.3856 65.371 84.939 65.371 84.3817C65.371 83.8244 64.9239 83.3777 64.3787 83.3777ZM62.6864 84.3817C62.6864 83.4435 63.4412 82.6777 64.3787 82.6777C65.3161 82.6777 66.071 83.4435 66.071 84.3817C66.071 85.3199 65.3161 86.0856 64.3787 86.0856C63.4412 86.0856 62.6864 85.3199 62.6864 84.3817Z" fill="white"/>
<path fill-rule="evenodd" clip-rule="evenodd" d="M71.3589 79.5866C70.8137 79.5866 70.3666 80.0332 70.3666 80.5905C70.3666 81.1478 70.8137 81.5945 71.3589 81.5945C71.9041 81.5945 72.3512 81.1478 72.3512 80.5905C72.3512 80.0332 71.9041 79.5866 71.3589 79.5866ZM69.6666 80.5905C69.6666 79.6523 70.4214 78.8866 71.3589 78.8866C72.2963 78.8866 73.0512 79.6523 73.0512 80.5905C73.0512 81.5287 72.2963 82.2945 71.3589 82.2945C70.4214 82.2945 69.6666 81.5287 69.6666 80.5905Z" fill="white"/>
<path fill-rule="evenodd" clip-rule="evenodd" d="M82.794 80.6153C82.2488 80.6153 81.8017 81.0619 81.8017 81.6192C81.8017 82.1765 82.2488 82.6231 82.794 82.6231C83.3392 82.6231 83.7863 82.1765 83.7863 81.6192C83.7863 81.0619 83.3392 80.6153 82.794 80.6153ZM81.1017 81.6192C81.1017 80.681 81.8565 79.9153 82.794 79.9153C83.7315 79.9153 84.4863 80.681 84.4863 81.6192C84.4863 82.5574 83.7315 83.3231 82.794 83.3231C81.8565 83.3231 81.1017 82.5574 81.1017 81.6192Z" fill="white"/>
<path fill-rule="evenodd" clip-rule="evenodd" d="M88.6489 86.9521C88.1037 86.9521 87.6566 87.3987 87.6566 87.956C87.6566 88.5133 88.1037 88.9599 88.6489 88.9599C89.1941 88.9599 89.6412 88.5133 89.6412 87.956C89.6412 87.3987 89.1941 86.9521 88.6489 86.9521ZM86.9566 87.956C86.9566 87.0178 87.7114 86.2521 88.6489 86.2521C89.5863 86.2521 90.3412 87.0178 90.3412 87.956C90.3412 88.8942 89.5863 89.6599 88.6489 89.6599C87.7114 89.6599 86.9566 88.8942 86.9566 87.956Z" fill="white"/>
<path fill-rule="evenodd" clip-rule="evenodd" d="M86.7147 94.1008C86.1695 94.1008 85.7224 94.5474 85.7224 95.1047C85.7224 95.6621 86.1695 96.1087 86.7147 96.1087C87.2599 96.1087 87.707 95.6621 87.707 95.1047C87.707 94.5474 87.2599 94.1008 86.7147 94.1008ZM85.0224 95.1047C85.0224 94.1665 85.7773 93.4008 86.7147 93.4008C87.6522 93.4008 88.407 94.1665 88.407 95.1047C88.407 96.043 87.6522 96.8087 86.7147 96.8087C85.7773 96.8087 85.0224 96.043 85.0224 95.1047Z" fill="white"/>
<path fill-rule="evenodd" clip-rule="evenodd" d="M81.0235 96.7001C80.4783 96.7001 80.0312 97.1467 80.0312 97.7041C80.0312 98.2614 80.4783 98.708 81.0235 98.708C81.5687 98.708 82.0158 98.2614 82.0158 97.7041C82.0158 97.1467 81.5687 96.7001 81.0235 96.7001ZM79.3312 97.7041C79.3312 96.7659 80.086 96.0001 81.0235 96.0001C81.961 96.0001 82.7158 96.7659 82.7158 97.7041C82.7158 98.6423 81.961 99.408 81.0235 99.408C80.086 99.408 79.3312 98.6423 79.3312 97.7041Z" fill="white"/>
<path fill-rule="evenodd" clip-rule="evenodd" d="M72.325 94.7508C71.7799 94.7508 71.3327 95.1975 71.3327 95.7548C71.3327 96.3121 71.7799 96.7587 72.325 96.7587C72.8702 96.7587 73.3173 96.3121 73.3173 95.7548C73.3173 95.1975 72.8702 94.7508 72.325 94.7508ZM70.6327 95.7548C70.6327 94.8166 71.3876 94.0508 72.325 94.0508C73.2625 94.0508 74.0173 94.8166 74.0173 95.7548C74.0173 96.693 73.2625 97.4587 72.325 97.4587C71.3876 97.4587 70.6327 96.693 70.6327 95.7548Z" fill="white"/>
<path fill-rule="evenodd" clip-rule="evenodd" d="M70.8218 88.0352C70.2766 88.0352 69.8295 88.4818 69.8295 89.0391C69.8295 89.5964 70.2766 90.0431 70.8218 90.0431C71.367 90.0431 71.8141 89.5964 71.8141 89.0391C71.8141 88.4818 71.367 88.0352 70.8218 88.0352ZM69.1295 89.0391C69.1295 88.1009 69.8843 87.3352 70.8218 87.3352C71.7592 87.3352 72.5141 88.1009 72.5141 89.0391C72.5141 89.9773 71.7592 90.7431 70.8218 90.7431C69.8843 90.7431 69.1295 89.9773 69.1295 89.0391Z" fill="white"/>
<path fill-rule="evenodd" clip-rule="evenodd" d="M76.0819 100.816C75.5367 100.816 75.0896 101.262 75.0896 101.819C75.0896 102.377 75.5367 102.823 76.0819 102.823C76.6271 102.823 77.0742 102.377 77.0742 101.819C77.0742 101.262 76.6271 100.816 76.0819 100.816ZM74.3896 101.819C74.3896 100.881 75.1444 100.116 76.0819 100.116C77.0194 100.116 77.7742 100.881 77.7742 101.819C77.7742 102.758 77.0194 103.523 76.0819 103.523C75.1444 103.523 74.3896 102.758 74.3896 101.819Z" fill="white"/>
<path fill-rule="evenodd" clip-rule="evenodd" d="M80.5439 98.8439L77.4297 101.335L76.9924 100.788L80.1066 98.2972L80.5439 98.8439Z" fill="white"/>
<path fill-rule="evenodd" clip-rule="evenodd" d="M85.8638 96.1691L82.5348 98.0104L82.196 97.3979L85.5249 95.5565L85.8638 96.1691Z" fill="white"/>
<path fill-rule="evenodd" clip-rule="evenodd" d="M88.9894 89.3856L87.9693 93.989L87.2859 93.8375L88.306 89.2341L88.9894 89.3856Z" fill="white"/>
<path fill-rule="evenodd" clip-rule="evenodd" d="M65.8873 99.5596L61.8067 94.902L62.3332 94.4407L66.4138 99.0983L65.8873 99.5596Z" fill="white"/>
<path fill-rule="evenodd" clip-rule="evenodd" d="M64.0095 85.4773L61.5934 92.0304L60.9366 91.7882L63.3527 85.2352L64.0095 85.4773Z" fill="white"/>
<path fill-rule="evenodd" clip-rule="evenodd" d="M70.1564 81.6697L65.4315 83.7277L65.152 83.0859L69.8769 81.028L70.1564 81.6697Z" fill="white"/>
<path fill-rule="evenodd" clip-rule="evenodd" d="M81.4682 81.9132L72.6627 80.9384L72.7397 80.2426L81.5452 81.2174L81.4682 81.9132Z" fill="white"/>
<path fill-rule="evenodd" clip-rule="evenodd" d="M87.7108 86.9557L83.5104 82.6766L84.01 82.1863L88.2104 86.4654L87.7108 86.9557Z" fill="white"/>
<path fill-rule="evenodd" clip-rule="evenodd" d="M80.1158 87.4976L87.3105 87.6059L87.3 88.3058L80.1052 88.1975L80.1158 87.4976Z" fill="white"/>
<path fill-rule="evenodd" clip-rule="evenodd" d="M82.2228 82.847L79.5382 86.7463L78.9616 86.3493L81.6462 82.45L82.2228 82.847Z" fill="white"/>
<path fill-rule="evenodd" clip-rule="evenodd" d="M72.2962 81.9244L71.167 87.7517L70.4797 87.6185L71.6089 81.7913L72.2962 81.9244Z" fill="white"/>
<path fill-rule="evenodd" clip-rule="evenodd" d="M77.582 88.6276L72.2128 89.3858L72.115 88.6927L77.4842 87.9344L77.582 88.6276Z" fill="white"/>
<path fill-rule="evenodd" clip-rule="evenodd" d="M65.8574 84.9988L69.7232 88.7898L69.2331 89.2896L65.3673 85.4986L65.8574 84.9988Z" fill="white"/>
<path fill-rule="evenodd" clip-rule="evenodd" d="M80.0879 96.5733L78.7993 89.2079L79.4889 89.0873L80.7775 96.4527L80.0879 96.5733Z" fill="white"/>
<path fill-rule="evenodd" clip-rule="evenodd" d="M79.5745 98.0369L73.561 96.0873L73.7769 95.4214L79.7904 97.371L79.5745 98.0369Z" fill="white"/>
<path fill-rule="evenodd" clip-rule="evenodd" d="M78.4405 89.0534L73.5008 94.6857L72.9745 94.2242L77.9142 88.5918L78.4405 89.0534Z" fill="white"/>
<path fill-rule="evenodd" clip-rule="evenodd" d="M71.7623 90.1973L72.1918 94.7465L71.4949 94.8123L71.0654 90.2631L71.7623 90.1973Z" fill="white"/>
<path fill-rule="evenodd" clip-rule="evenodd" d="M62.4686 92.5085L69.7707 89.3674L70.0473 90.0104L62.7452 93.1515L62.4686 92.5085Z" fill="white"/>
<path fill-rule="evenodd" clip-rule="evenodd" d="M70.9127 96.0983L62.2146 94.3653L62.3513 93.6788L71.0495 95.4118L70.9127 96.0983Z" fill="white"/>
<path fill-rule="evenodd" clip-rule="evenodd" d="M80.0259 88.3507L85.8247 93.7664L85.3469 94.278L79.5481 88.8623L80.0259 88.3507Z" fill="white"/>
<path fill-rule="evenodd" clip-rule="evenodd" d="M67.2002 101.766L67.2002 105.158L66.5002 105.158L66.5002 101.766H67.2002Z" fill="white"/>
<path fill-rule="evenodd" clip-rule="evenodd" d="M71.6271 97.0038L68.1908 99.7117L67.7575 99.1619L71.1938 96.454L71.6271 97.0038Z" fill="white"/>
<path fill-rule="evenodd" clip-rule="evenodd" d="M74.9276 101.389L72.0397 97.3109L72.6109 96.9064L75.4989 100.985L74.9276 101.389Z" fill="white"/>
<path fill-rule="evenodd" clip-rule="evenodd" d="M66.8486 105.654C66.3034 105.654 65.8563 106.1 65.8563 106.658C65.8563 107.215 66.3034 107.662 66.8486 107.662C67.3938 107.662 67.8409 107.215 67.8409 106.658C67.8409 106.1 67.3938 105.654 66.8486 105.654ZM65.1563 106.658C65.1563 105.72 65.9111 104.954 66.8486 104.954C67.786 104.954 68.5409 105.72 68.5409 106.658C68.5409 107.596 67.786 108.362 66.8486 108.362C65.9111 108.362 65.1563 107.596 65.1563 106.658Z" fill="white"/>
<defs>
<filter id="filter0_d_947_13659" x="118.091" y="53.3126" width="33.8114" height="25.6375" filterUnits="userSpaceOnUse" color-interpolation-filters="sRGB">
<feFlood flood-opacity="0" result="BackgroundImageFix"/>
<feColorMatrix in="SourceAlpha" type="matrix" values="0 0 0 0 0 0 0 0 0 0 0 0 0 0 0 0 0 0 127 0" result="hardAlpha"/>
<feOffset dy="2"/>
<feGaussianBlur stdDeviation="2"/>
<feComposite in2="hardAlpha" operator="out"/>
<feColorMatrix type="matrix" values="0 0 0 0 0 0 0 0 0 0 0 0 0 0 0 0 0 0 0.25 0"/>
<feBlend mode="normal" in2="BackgroundImageFix" result="effect1_dropShadow_947_13659"/>
<feBlend mode="normal" in="SourceGraphic" in2="effect1_dropShadow_947_13659" result="shape"/>
</filter>
<filter id="filter1_d_947_13659" x="118.091" y="74.8003" width="33.8114" height="25.6375" filterUnits="userSpaceOnUse" color-interpolation-filters="sRGB">
<feFlood flood-opacity="0" result="BackgroundImageFix"/>
<feColorMatrix in="SourceAlpha" type="matrix" values="0 0 0 0 0 0 0 0 0 0 0 0 0 0 0 0 0 0 127 0" result="hardAlpha"/>
<feOffset dy="2"/>
<feGaussianBlur stdDeviation="2"/>
<feComposite in2="hardAlpha" operator="out"/>
<feColorMatrix type="matrix" values="0 0 0 0 0 0 0 0 0 0 0 0 0 0 0 0 0 0 0.25 0"/>
<feBlend mode="normal" in2="BackgroundImageFix" result="effect1_dropShadow_947_13659"/>
<feBlend mode="normal" in="SourceGraphic" in2="effect1_dropShadow_947_13659" result="shape"/>
</filter>
<filter id="filter2_d_947_13659" x="118.091" y="96.3795" width="33.8114" height="25.6195" filterUnits="userSpaceOnUse" color-interpolation-filters="sRGB">
<feFlood flood-opacity="0" result="BackgroundImageFix"/>
<feColorMatrix in="SourceAlpha" type="matrix" values="0 0 0 0 0 0 0 0 0 0 0 0 0 0 0 0 0 0 127 0" result="hardAlpha"/>
<feOffset dy="2"/>
<feGaussianBlur stdDeviation="2"/>
<feComposite in2="hardAlpha" operator="out"/>
<feColorMatrix type="matrix" values="0 0 0 0 0 0 0 0 0 0 0 0 0 0 0 0 0 0 0.25 0"/>
<feBlend mode="normal" in2="BackgroundImageFix" result="effect1_dropShadow_947_13659"/>
<feBlend mode="normal" in="SourceGraphic" in2="effect1_dropShadow_947_13659" result="shape"/>
</filter>
<filter id="filter3_d_947_13659" x="118.091" y="117.868" width="33.8114" height="25.6195" filterUnits="userSpaceOnUse" color-interpolation-filters="sRGB">
<feFlood flood-opacity="0" result="BackgroundImageFix"/>
<feColorMatrix in="SourceAlpha" type="matrix" values="0 0 0 0 0 0 0 0 0 0 0 0 0 0 0 0 0 0 127 0" result="hardAlpha"/>
<feOffset dy="2"/>
<feGaussianBlur stdDeviation="2"/>
<feComposite in2="hardAlpha" operator="out"/>
<feColorMatrix type="matrix" values="0 0 0 0 0 0 0 0 0 0 0 0 0 0 0 0 0 0 0.25 0"/>
<feBlend mode="normal" in2="BackgroundImageFix" result="effect1_dropShadow_947_13659"/>
<feBlend mode="normal" in="SourceGraphic" in2="effect1_dropShadow_947_13659" result="shape"/>
</filter>
<filter id="filter4_d_947_13659" x="29.0001" y="55.2793" width="90.7664" height="90.137" filterUnits="userSpaceOnUse" color-interpolation-filters="sRGB">
<feFlood flood-opacity="0" result="BackgroundImageFix"/>
<feColorMatrix in="SourceAlpha" type="matrix" values="0 0 0 0 0 0 0 0 0 0 0 0 0 0 0 0 0 0 127 0" result="hardAlpha"/>
<feOffset dy="4"/>
<feGaussianBlur stdDeviation="2"/>
<feComposite in2="hardAlpha" operator="out"/>
<feColorMatrix type="matrix" values="0 0 0 0 0 0 0 0 0 0 0 0 0 0 0 0 0 0 0.25 0"/>
<feBlend mode="normal" in2="BackgroundImageFix" result="effect1_dropShadow_947_13659"/>
<feBlend mode="normal" in="SourceGraphic" in2="effect1_dropShadow_947_13659" result="shape"/>
</filter>
<filter id="filter5_d_947_13659" x="38.8434" y="62.7681" width="70.6094" height="70.1364" filterUnits="userSpaceOnUse" color-interpolation-filters="sRGB">
<feFlood flood-opacity="0" result="BackgroundImageFix"/>
<feColorMatrix in="SourceAlpha" type="matrix" values="0 0 0 0 0 0 0 0 0 0 0 0 0 0 0 0 0 0 127 0" result="hardAlpha"/>
<feOffset dy="2"/>
<feGaussianBlur stdDeviation="2"/>
<feComposite in2="hardAlpha" operator="out"/>
<feColorMatrix type="matrix" values="0 0 0 0 0 0 0 0 0 0 0 0 0 0 0 0 0 0 0.25 0"/>
<feBlend mode="normal" in2="BackgroundImageFix" result="effect1_dropShadow_947_13659"/>
<feBlend mode="normal" in="SourceGraphic" in2="effect1_dropShadow_947_13659" result="shape"/>
</filter>
<linearGradient id="paint0_linear_947_13659" x1="90.1622" y1="9.41553" x2="90.1622" y2="180.815" gradientUnits="userSpaceOnUse">
<stop stop-color="#00ABDE"/>
<stop offset="1" stop-color="#007ED8"/>
</linearGradient>
<linearGradient id="paint1_linear_947_13659" x1="36.282" y1="4.20685" x2="202.959" y2="286.538" gradientUnits="userSpaceOnUse">
<stop stop-color="#007ED8"/>
<stop offset="0.7065" stop-color="#002D4C"/>
</linearGradient>
<linearGradient id="paint2_linear_947_13659" x1="88.0326" y1="120.589" x2="64.0804" y2="84.258" gradientUnits="userSpaceOnUse">
<stop stop-color="#0078D4"/>
<stop offset="0.16" stop-color="#1380DA"/>
<stop offset="0.53" stop-color="#3C91E5"/>
<stop offset="0.82" stop-color="#559CEC"/>
<stop offset="1" stop-color="#5EA0EF"/>
</linearGradient>
</defs>
</svg>
