<svg width="100" height="100" viewBox="0 0 100 100" fill="none" xmlns="http://www.w3.org/2000/svg">
<g clip-path="url(#clip0)">
<path d="M49.6401 96.4501C40.382 96.4501 31.3317 93.7047 23.6339 88.5612C15.936 83.4176 9.93624 76.1069 6.3933 67.5535C2.85036 59.0001 1.92337 49.5882 3.72954 40.5079C5.53571 31.4277 9.99394 23.0869 16.5404 16.5404C23.0869 9.99393 31.4277 5.53571 40.5079 3.72954C49.5882 1.92337 59.0001 2.85036 67.5535 6.3933C76.1069 9.93624 83.4176 15.936 88.5612 23.6339C93.7047 31.3317 96.4501 40.382 96.4501 49.6401C96.4505 55.7874 95.24 61.8746 92.8878 67.554C90.5355 73.2335 87.0875 78.3939 82.7407 82.7407C78.3939 87.0875 73.2335 90.5355 67.554 92.8878C61.8746 95.24 55.7874 96.4505 49.6401 96.4501V96.4501Z" fill="url(#paint0_linear)"/>
<path fill-rule="evenodd" clip-rule="evenodd" d="M95.54 49.64C95.54 58.7182 92.848 67.5925 87.8045 75.1407C82.7609 82.6889 75.5923 88.572 67.2052 92.0461C58.818 95.5201 49.5891 96.4291 40.6854 94.658C31.7816 92.887 23.603 88.5154 17.1838 82.0962C10.7646 75.677 6.39302 67.4984 4.62196 58.5946C2.85089 49.6909 3.75987 40.462 7.23393 32.0748C10.708 23.6877 16.5911 16.5191 24.1393 11.4755C31.6875 6.43199 40.5618 3.74 49.64 3.74C55.6677 3.73998 61.6363 4.9272 67.2052 7.23388C72.774 9.54057 77.834 12.9215 82.0963 17.1837C86.3585 21.446 89.7394 26.5059 92.0461 32.0748C94.3528 37.6437 95.54 43.6123 95.54 49.64V49.64ZM49.64 3.62732e-07C59.4579 3.62732e-07 69.0553 2.91134 77.2185 8.36585C85.3818 13.8204 91.7442 21.5731 95.5014 30.6436C99.2585 39.7141 100.242 49.6951 98.3262 59.3243C96.4108 68.9535 91.6831 77.7985 84.7408 84.7408C77.7985 91.6831 68.9535 96.4108 59.3243 98.3262C49.6951 100.242 39.7141 99.2585 30.6436 95.5014C21.5731 91.7442 13.8204 85.3818 8.36585 77.2185C2.91134 69.0553 3.62732e-07 59.4579 3.62732e-07 49.64C-0.000787738 43.121 1.28265 36.6656 3.77702 30.6427C6.27138 24.6197 9.9278 19.1471 14.5375 14.5375C19.1471 9.9278 24.6197 6.27138 30.6427 3.77702C36.6656 1.28265 43.121 -0.000787738 49.64 3.62732e-07V3.62732e-07Z" fill="#F2F1F0"/>
<path fill-rule="evenodd" clip-rule="evenodd" d="M92.7296 49.6401C92.7296 58.1625 90.2024 66.4935 85.4676 73.5796C80.7328 80.6657 74.0031 86.1887 66.1294 89.4501C58.2557 92.7114 49.5918 93.5648 41.2331 91.9021C32.8745 90.2395 25.1966 86.1356 19.1703 80.1093C13.1441 74.0831 9.04017 66.4052 7.37753 58.0465C5.7149 49.6879 6.56822 41.0239 9.8296 33.1503C13.091 25.2766 18.6139 18.5469 25.7 13.8121C32.7862 9.07727 41.1172 6.55009 49.6396 6.55009C55.2983 6.54974 60.9017 7.66407 66.1298 9.82942C71.3579 11.9948 76.1082 15.1687 80.1096 19.1701C84.1109 23.1714 87.2849 27.9218 89.4502 33.1499C91.6156 38.3779 92.7299 43.9813 92.7296 49.6401V49.6401ZM49.6396 2.81009C58.9017 2.81009 67.9558 5.55662 75.6569 10.7024C83.3581 15.8481 89.3604 23.162 92.9049 31.719C96.4493 40.2761 97.3767 49.692 95.5697 58.7762C93.7628 67.8603 89.3027 76.2046 82.7534 82.7539C76.2041 89.3032 67.8598 93.7633 58.7757 95.5703C49.6915 97.3772 40.2756 96.4498 31.7185 92.9054C23.1614 89.3609 15.8476 83.3586 10.7018 75.6574C5.5561 67.9563 2.80957 58.9022 2.80957 49.6401C2.81076 37.2204 7.745 25.3097 16.5271 16.5276C25.3091 7.7455 37.2198 2.81125 49.6396 2.81006V2.81009Z" fill="#0078D4"/>
<path d="M81.1958 58.3063C81.2169 58.1588 81.259 58.0113 81.2801 57.8849C81.6753 55.7994 81.6065 53.6525 81.0784 51.5966C80.5504 49.5408 79.5761 47.6264 78.2248 45.9895C76.8734 44.3526 75.1782 43.0334 73.2596 42.1255C71.3409 41.2177 69.2459 40.7435 67.1233 40.7366C66.0376 40.7329 64.9553 40.8602 63.9001 41.1158C61.7485 37.7221 58.5531 35.119 54.7945 33.698C51.0359 32.277 46.9175 32.1151 43.0589 33.2365C39.2003 34.358 35.8103 36.7022 33.3989 39.9164C30.9875 43.1306 29.6851 47.0411 29.6878 51.0593C29.6878 51.3121 29.6878 51.5649 29.7088 51.8177C28.745 51.4933 27.7343 51.3296 26.7174 51.3332C24.3765 51.3336 22.1253 52.2337 20.4295 53.8475C18.7337 55.4612 17.7231 57.6651 17.6067 60.0031C17.4904 62.3411 18.2772 64.6344 19.8043 66.4085C21.3315 68.1827 23.4822 69.302 25.8115 69.5348L67.1022 69.619C69.6723 69.616 72.1954 68.9296 74.4128 67.6303C76.6303 66.3309 78.4623 64.4653 79.7212 62.2246C79.7844 62.0982 79.8687 61.9718 79.9319 61.8454C80.4897 60.719 80.9139 59.5312 81.1958 58.3063V58.3063Z" fill="white"/>
<path d="M37.929 64.5799L43.677 58.8319L47.775 62.9289L55.971 54.7329" stroke="#0078D4" stroke-width="1.06643" stroke-miterlimit="10" stroke-linecap="round"/>
<path d="M55.9712 56.9019C57.1689 56.9019 58.1399 55.9309 58.1399 54.7332C58.1399 53.5354 57.1689 52.5645 55.9712 52.5645C54.7735 52.5645 53.8025 53.5354 53.8025 54.7332C53.8025 55.9309 54.7735 56.9019 55.9712 56.9019Z" fill="white" stroke="#0078D4" stroke-width="1.06643" stroke-miterlimit="10" stroke-linecap="round"/>
<path d="M37.929 66.547C38.8 66.547 39.506 65.841 39.506 64.97C39.506 64.0991 38.8 63.3931 37.929 63.3931C37.0581 63.3931 36.3521 64.0991 36.3521 64.97C36.3521 65.841 37.0581 66.547 37.929 66.547Z" fill="white" stroke="#0078D4" stroke-width="1.06643" stroke-miterlimit="10" stroke-linecap="round"/>
<path d="M43.7108 60.3317C44.5054 60.3317 45.1496 59.6876 45.1496 58.8929C45.1496 58.0983 44.5054 57.4541 43.7108 57.4541C42.9162 57.4541 42.272 58.0983 42.272 58.8929C42.272 59.6876 42.9162 60.3317 43.7108 60.3317Z" fill="white" stroke="#0078D4" stroke-width="1.06643" stroke-miterlimit="10" stroke-linecap="round"/>
<path d="M47.8106 64.072C48.6053 64.072 49.2495 63.4278 49.2495 62.6332C49.2495 61.8385 48.6053 61.1943 47.8106 61.1943C47.016 61.1943 46.3718 61.8385 46.3718 62.6332C46.3718 63.4278 47.016 64.072 47.8106 64.072Z" fill="white" stroke="#0078D4" stroke-width="1.06643" stroke-miterlimit="10" stroke-linecap="round"/>
<path opacity="0.2" d="M48.4283 58.6958C48.8028 58.887 49.2171 58.9869 49.6375 58.9873C50.0579 58.9877 50.4725 58.8887 50.8473 58.6982C59.9897 54.0364 64.8649 48.4987 66.3629 40.7804C65.5334 40.8153 64.7089 40.9275 63.9003 41.1157C62.2533 38.5179 59.9861 36.3704 57.3028 34.8668C54.6195 33.3631 51.6043 32.5504 48.5288 32.5018C45.4533 32.4533 42.4139 33.1704 39.6845 34.5886C36.9551 36.0069 34.6212 38.0817 32.8931 40.6262C34.3566 48.4235 39.2303 54.0056 48.4283 58.6958Z" fill="#767676"/>
<path d="M60.4517 58.9146C60.0338 58.9151 59.6331 59.0813 59.3375 59.3769C59.042 59.6724 58.8757 60.0731 58.8752 60.491V62.4608C58.8752 62.8789 59.0413 63.2799 59.337 63.5755C59.6326 63.8712 60.0336 64.0373 60.4517 64.0373C60.8699 64.0373 61.2708 63.8712 61.5665 63.5755C61.8621 63.2799 62.0282 62.8789 62.0282 62.4608V60.491C62.0277 60.0731 61.8615 59.6724 61.5659 59.3768C61.2704 59.0813 60.8697 58.9151 60.4517 58.9146V58.9146Z" fill="#C3F1FF"/>
<path d="M71.6795 51.3052C71.2616 51.3057 70.8609 51.4719 70.5653 51.7675C70.2698 52.063 70.1035 52.4637 70.103 52.8817V62.4609C70.103 62.879 70.2691 63.28 70.5648 63.5756C70.8604 63.8713 71.2614 64.0374 71.6795 64.0374C72.0976 64.0374 72.4986 63.8713 72.7943 63.5756C73.0899 63.28 73.256 62.879 73.256 62.4609V52.8816C73.2555 52.4637 73.0892 52.063 72.7937 51.7675C72.4982 51.4719 72.0975 51.3057 71.6795 51.3052V51.3052Z" fill="#0078D4"/>
<path d="M66.066 55.77C65.648 55.7705 65.2473 55.9368 64.9518 56.2323C64.6563 56.5279 64.49 56.9286 64.4895 57.3465V62.4608C64.4895 62.8789 64.6556 63.2799 64.9512 63.5755C65.2469 63.8712 65.6479 64.0373 66.066 64.0373C66.4841 64.0373 66.8851 63.8712 67.1808 63.5755C67.4764 63.2799 67.6425 62.8789 67.6425 62.4608V57.3465C67.642 56.9286 67.4757 56.5279 67.1802 56.2323C66.8847 55.9368 66.484 55.7705 66.066 55.77V55.77Z" fill="#50E6FF"/>
<path d="M26.9987 58.5823V53.8682C26.1237 53.8682 25.2572 54.0405 24.4488 54.3754C23.6404 54.7102 22.9058 55.201 22.2871 55.8198C21.6683 56.4385 21.1775 57.1731 20.8427 57.9815C20.5078 58.7899 20.3354 59.6564 20.3354 60.5314H25.0496C25.0502 60.0147 25.2557 59.5192 25.6211 59.1538C25.9865 58.7884 26.482 58.5829 26.9987 58.5823V58.5823Z" fill="#50E6FF"/>
<path d="M26.9988 62.4809C26.482 62.4803 25.9866 62.2748 25.6211 61.9094C25.2557 61.544 25.0502 61.0486 25.0496 60.5318V60.5317H20.3354C20.3354 61.8496 20.7262 63.1379 21.4584 64.2337C22.1906 65.3294 23.2312 66.1835 24.4488 66.6878C25.6664 67.1921 27.0061 67.3241 28.2987 67.067C29.5912 66.8099 30.7785 66.1753 31.7104 65.2434L28.3764 61.9094C28.1957 62.0907 27.981 62.2345 27.7446 62.3325C27.5082 62.4306 27.2547 62.481 26.9988 62.4809Z" fill="#1F56A3"/>
<path d="M26.9988 53.8682V58.5823H26.9988C27.3844 58.5821 27.7613 58.6963 28.0819 58.9104C28.4025 59.1245 28.6523 59.429 28.7998 59.7851C28.9473 60.1413 28.9858 60.5333 28.9104 60.9114C28.8351 61.2895 28.6492 61.6367 28.3764 61.9091L31.7104 65.2431C32.6423 64.3112 33.277 63.124 33.5341 61.8314C33.7912 60.5388 33.6592 59.1991 33.1549 57.9815C32.6505 56.764 31.7965 55.7233 30.7007 54.9911C29.6049 54.259 28.3167 53.8682 26.9988 53.8682V53.8682Z" fill="#9CEBFF"/>
<path fill-rule="evenodd" clip-rule="evenodd" d="M49.2012 20.9818C46.1643 24.0527 41.2544 25.2244 35.633 25.3681C35.3042 25.3778 34.9921 25.5154 34.7632 25.7516C34.5343 25.9879 34.4066 26.3041 34.4072 26.6331V35.1303C34.4072 45.0898 38.7785 51.5309 49.3408 56.9167C49.4336 56.9633 49.5359 56.9875 49.6397 56.9875C49.7435 56.9875 49.8459 56.9633 49.9386 56.9167C60.5009 51.5309 64.8723 45.0898 64.8723 35.1303V26.6331C64.8729 26.3041 64.7452 25.9879 64.5163 25.7516C64.2874 25.5154 63.9753 25.3778 63.6465 25.3681C58.0251 25.2244 53.1152 24.0527 50.0783 20.9818C49.9619 20.8656 49.8042 20.8003 49.6397 20.8003C49.4753 20.8003 49.3176 20.8656 49.2012 20.9818V20.9818Z" fill="#0078D4"/>
<path fill-rule="evenodd" clip-rule="evenodd" d="M49.6399 22.0256V56.0274C49.6401 56.1364 49.6684 56.2435 49.7219 56.3385C49.7755 56.4335 49.8526 56.5131 49.9458 56.5697C50.039 56.6263 50.1452 56.6579 50.2542 56.6616C50.3631 56.6654 50.4712 56.641 50.5681 56.5909C60.675 51.2708 64.8724 44.8898 64.8724 35.1304V26.6332C64.873 26.3042 64.7453 25.988 64.5164 25.7518C64.2875 25.5155 63.9755 25.3779 63.6466 25.3682C58.3846 25.2338 53.746 24.1985 50.6835 21.5478C50.5921 21.4685 50.4798 21.4172 50.36 21.4C50.2402 21.3828 50.118 21.4004 50.0079 21.4508C49.8979 21.5011 49.8046 21.5821 49.7394 21.6841C49.6741 21.786 49.6396 21.9045 49.6399 22.0256V22.0256Z" fill="#1F56A3"/>
<path fill-rule="evenodd" clip-rule="evenodd" d="M40.4065 32.7V32.5341L49.6398 25.9385L58.8731 32.5341V32.7H40.4065Z" fill="#C5CCCD"/>
<path fill-rule="evenodd" clip-rule="evenodd" d="M52.7175 43.9849H56.1373V34.4097H52.7175V43.9849Z" fill="#546670"/>
<path fill-rule="evenodd" clip-rule="evenodd" d="M47.9299 43.9849H51.3497V34.4097H47.9299V43.9849Z" fill="#546670"/>
<path fill-rule="evenodd" clip-rule="evenodd" d="M43.1423 43.9849H46.5621V34.4097H43.1423V43.9849Z" fill="#546670"/>
<path fill-rule="evenodd" clip-rule="evenodd" d="M43.1423 34.4097V43.985H44.1683V35.7776C44.1682 35.6878 44.1859 35.5988 44.2203 35.5158C44.2546 35.4328 44.305 35.3574 44.3685 35.2939C44.4321 35.2304 44.5075 35.18 44.5905 35.1457C44.6735 35.1113 44.7624 35.0936 44.8523 35.0937H46.5621V34.4097L43.1423 34.4097Z" fill="#30404D"/>
<path fill-rule="evenodd" clip-rule="evenodd" d="M47.9299 34.4097V43.985H48.9559V35.7776C48.9558 35.6878 48.9735 35.5988 49.0079 35.5159C49.0422 35.4329 49.0926 35.3575 49.1561 35.2939C49.2196 35.2304 49.295 35.18 49.378 35.1457C49.461 35.1113 49.55 35.0936 49.6398 35.0937H51.3497V34.4097L47.9299 34.4097Z" fill="#30404D"/>
<path fill-rule="evenodd" clip-rule="evenodd" d="M52.7175 34.4097V43.985H53.7435V35.7776C53.7434 35.6878 53.7611 35.5988 53.7955 35.5159C53.8298 35.4329 53.8802 35.3574 53.9437 35.2939C54.0072 35.2304 54.0826 35.18 54.1656 35.1457C54.2486 35.1113 54.3376 35.0936 54.4274 35.0937H56.1373V34.4097L52.7175 34.4097Z" fill="#30404D"/>
<path fill-rule="evenodd" clip-rule="evenodd" d="M41.0904 45.3533C41.0906 45.4439 41.1267 45.5307 41.1908 45.5948C41.2549 45.6589 41.3417 45.695 41.4324 45.6953H57.8471C57.9377 45.695 58.0246 45.6589 58.0886 45.5948C58.1527 45.5307 58.1888 45.4439 58.1891 45.3533V44.3274C58.1888 44.2367 58.1527 44.1499 58.0886 44.0858C58.0246 44.0217 57.9377 43.9856 57.8471 43.9854H41.4323C41.3417 43.9856 41.2549 44.0217 41.1908 44.0858C41.1267 44.1499 41.0906 44.2367 41.0903 44.3274L41.0904 45.3533Z" fill="#E1E4E1"/>
<path fill-rule="evenodd" clip-rule="evenodd" d="M41.0904 34.0681C41.0906 34.1587 41.1267 34.2456 41.1908 34.3097C41.2549 34.3737 41.3417 34.4099 41.4324 34.4101H57.8471C57.9377 34.4099 58.0246 34.3737 58.0886 34.3097C58.1527 34.2456 58.1888 34.1587 58.1891 34.0681V33.0422C58.1888 32.9516 58.1527 32.8647 58.0886 32.8007C58.0246 32.7366 57.9377 32.7005 57.8471 32.7002H41.4323C41.3417 32.7005 41.2549 32.7366 41.1908 32.8007C41.1267 32.8647 41.0906 32.9516 41.0903 33.0422L41.0904 34.0681Z" fill="#E1E4E1"/>
<path fill-rule="evenodd" clip-rule="evenodd" d="M40.0645 47.063C40.0647 47.1536 40.1009 47.2404 40.1649 47.3045C40.229 47.3686 40.3159 47.4047 40.4065 47.405H58.8731C58.9637 47.4047 59.0505 47.3686 59.1146 47.3045C59.1787 47.2404 59.2148 47.1536 59.2151 47.063V45.695C59.2148 45.6044 59.1787 45.5176 59.1146 45.4535C59.0505 45.3894 58.9637 45.3533 58.8731 45.353H40.4065C40.3158 45.3533 40.229 45.3894 40.1649 45.4535C40.1008 45.5176 40.0647 45.6044 40.0645 45.695L40.0645 47.063Z" fill="#E1E4E1"/>
<path fill-rule="evenodd" clip-rule="evenodd" d="M41.7744 43.9851H43.1423V35.0938H41.7744V43.9851Z" fill="#E1E4E1"/>
<path fill-rule="evenodd" clip-rule="evenodd" d="M46.562 43.9851H47.9299V35.0938H46.562V43.9851Z" fill="#E1E4E1"/>
<path fill-rule="evenodd" clip-rule="evenodd" d="M51.3496 43.9851H52.7175V35.0938H51.3496V43.9851Z" fill="#E1E4E1"/>
<path fill-rule="evenodd" clip-rule="evenodd" d="M56.1372 43.9851H57.5051V35.0938H56.1372V43.9851Z" fill="#E1E4E1"/>
<path fill-rule="evenodd" clip-rule="evenodd" d="M49.6397 25.5186L40.0645 32.358V33.042H59.215V32.358L49.6397 25.5186ZM49.6397 26.3591L58.0383 32.358H41.2412L49.6397 26.3591Z" fill="#E1E4E1"/>
<path fill-rule="evenodd" clip-rule="evenodd" d="M58.873 47.4047C58.9637 47.4045 59.0505 47.3684 59.1146 47.3043C59.1787 47.2402 59.2148 47.1534 59.215 47.0627V45.6948H50.3237C50.233 45.6949 50.146 45.7309 50.0819 45.795C50.0178 45.8592 49.9817 45.9461 49.9817 46.0368V46.7208C49.9817 46.8115 49.9456 46.8985 49.8815 46.9626C49.8174 47.0268 49.7304 47.0628 49.6397 47.0628H40.0645C40.0647 47.1534 40.1008 47.2403 40.1649 47.3044C40.229 47.3684 40.3158 47.4046 40.4065 47.4048L58.873 47.4047Z" fill="#C5CCCD"/>
<path fill-rule="evenodd" clip-rule="evenodd" d="M58.189 45.3531V44.3271H50.3236C50.2329 44.3272 50.146 44.3632 50.0818 44.4273C50.0177 44.4915 49.9817 44.5785 49.9816 44.6692C49.9816 44.7598 49.9456 44.8468 49.8814 44.9109C49.8173 44.9751 49.7303 45.0111 49.6396 45.0112H41.0903V45.3531L58.189 45.3531Z" fill="#C5CCCD"/>
<path fill-rule="evenodd" clip-rule="evenodd" d="M51.0076 34.4097L51.3496 35.0937H51.6916C51.7823 35.0937 51.8692 35.1298 51.9334 35.1939C51.9975 35.258 52.0335 35.345 52.0336 35.4357V43.9851H52.7176V35.0937L53.0596 34.4097L51.0076 34.4097Z" fill="#C5CCCD"/>
<path fill-rule="evenodd" clip-rule="evenodd" d="M55.7954 34.4097L56.1374 35.0937H56.4794C56.5701 35.0937 56.6571 35.1298 56.7212 35.1939C56.7853 35.258 56.8214 35.345 56.8214 35.4357V43.9851H57.5054V35.0937L57.8474 34.4097L55.7954 34.4097Z" fill="#C5CCCD"/>
<path fill-rule="evenodd" clip-rule="evenodd" d="M46.22 34.4097L46.562 35.0937H46.904C46.9947 35.0937 47.0816 35.1298 47.1458 35.1939C47.2099 35.258 47.2459 35.345 47.246 35.4357V43.9851H47.93V35.0937L48.272 34.4097L46.22 34.4097Z" fill="#C5CCCD"/>
<path fill-rule="evenodd" clip-rule="evenodd" d="M41.4324 34.4097L41.7744 35.0937H42.1164C42.2071 35.0937 42.294 35.1298 42.3582 35.1939C42.4223 35.258 42.4584 35.345 42.4584 35.4357V43.9851H43.1424V35.0937L43.4844 34.4097L41.4324 34.4097Z" fill="#C5CCCD"/>
<path fill-rule="evenodd" clip-rule="evenodd" d="M41.0903 33.042V33.384H48.9557C49.0456 33.384 49.1345 33.4016 49.2175 33.436C49.3005 33.4704 49.3759 33.5207 49.4394 33.5843C49.5029 33.6478 49.5533 33.7232 49.5877 33.8062C49.622 33.8892 49.6397 33.9781 49.6397 34.0679V34.4099H57.8471C57.9377 34.4097 58.0245 34.3736 58.0886 34.3095C58.1527 34.2454 58.1888 34.1586 58.1891 34.0679V33.042H41.0903Z" fill="#C5CCCD"/>
<path fill-rule="evenodd" clip-rule="evenodd" d="M57.1633 32.3583L49.6399 26.8867V26.3594L58.0384 32.3583H57.1633Z" fill="#AAB0B1"/>
<path fill-rule="evenodd" clip-rule="evenodd" d="M42.1166 32.3583L49.64 26.8867V26.3594L41.2415 32.3583H42.1166Z" fill="#AAB0B1"/>
<path d="M48.4102 31.5562V30.0972" stroke="#E1E4E1" stroke-width="0.58294" stroke-miterlimit="10" stroke-linecap="round"/>
<path d="M49.6399 31.5564V28.6821" stroke="#E1E4E1" stroke-width="0.58294" stroke-miterlimit="10" stroke-linecap="round"/>
<path d="M50.8696 31.556V29.3584" stroke="#E1E4E1" stroke-width="0.58294" stroke-miterlimit="10" stroke-linecap="round"/>
</g>
<defs>
<linearGradient id="paint0_linear" x1="47.8697" y1="-15.153" x2="51.8525" y2="130.615" gradientUnits="userSpaceOnUse">
<stop stop-color="#00ABDE"/>
<stop offset="1" stop-color="#007ED8"/>
</linearGradient>
<clipPath id="clip0">
<rect width="99.2799" height="99.28" fill="white"/>
</clipPath>
</defs>
</svg>
