<svg width="100" height="100" viewBox="0 0 100 100" fill="none" xmlns="http://www.w3.org/2000/svg">
<g clip-path="url(#clip0_425_1707)">
<path d="M49.6401 96.4499C40.382 96.4499 31.3317 93.7045 23.6339 88.561C15.936 83.4174 9.93624 76.1067 6.3933 67.5533C2.85036 58.9999 1.92337 49.588 3.72954 40.5077C5.53571 31.4275 9.99394 23.0867 16.5404 16.5402C23.0869 9.99372 31.4277 5.5355 40.5079 3.72933C49.5882 1.92315 59.0001 2.85015 67.5535 6.39308C76.1069 9.93602 83.4176 15.9358 88.5612 23.6336C93.7047 31.3315 96.4501 40.3817 96.4501 49.6399C96.4505 55.7872 95.24 61.8744 92.8878 67.5538C90.5355 73.2332 87.0875 78.3937 82.7407 82.7405C78.3939 87.0873 73.2335 90.5353 67.554 92.8876C61.8746 95.2398 55.7874 96.4503 49.6401 96.4499V96.4499Z" fill="url(#paint0_linear_425_1707)"/>
<path fill-rule="evenodd" clip-rule="evenodd" d="M95.54 49.6399C95.54 58.718 92.848 67.5923 87.8045 75.1406C82.7609 82.6888 75.5923 88.5719 67.2052 92.046C58.818 95.52 49.5891 96.429 40.6854 94.6579C31.7816 92.8869 23.603 88.5153 17.1838 82.0961C10.7646 75.6769 6.39302 67.4983 4.62196 58.5945C2.85089 49.6908 3.75987 40.4618 7.23393 32.0747C10.708 23.6876 16.5911 16.519 24.1393 11.4754C31.6875 6.43187 40.5618 3.73988 49.64 3.73988C55.6677 3.73986 61.6363 4.92708 67.2052 7.23377C72.774 9.54045 77.834 12.9214 82.0963 17.1836C86.3585 21.4458 89.7394 26.5058 92.0461 32.0747C94.3528 37.6435 95.54 43.6122 95.54 49.6399V49.6399ZM49.64 -0.000106449C59.4579 -0.000106449 69.0552 2.91123 77.2185 8.36574C85.3818 13.8203 91.7442 21.573 95.5014 30.6435C99.2585 39.714 100.242 49.695 98.3262 59.3242C96.4108 68.9534 91.6831 77.7984 84.7408 84.7407C77.7985 91.683 68.9535 96.4107 59.3243 98.3261C49.6951 100.241 39.7141 99.2584 30.6436 95.5013C21.5731 91.7441 13.8204 85.3816 8.36584 77.2184C2.91133 69.0551 -1.61629e-06 59.4577 3.61524e-07 49.6399C-0.000786426 43.1208 1.28265 36.6655 3.77702 30.6425C6.27138 24.6196 9.92781 19.147 14.5375 14.5374C19.1471 9.9277 24.6197 6.27127 30.6427 3.77691C36.6656 1.28254 43.121 -0.000894549 49.64 -0.000106449V-0.000106449Z" fill="#F2F1F0"/>
<path fill-rule="evenodd" clip-rule="evenodd" d="M92.7296 49.64C92.7296 58.1624 90.2024 66.4934 85.4676 73.5795C80.7328 80.6656 74.0031 86.1886 66.1294 89.45C58.2557 92.7113 49.5918 93.5647 41.2331 91.902C32.8745 90.2394 25.1966 86.1355 19.1703 80.1092C13.1441 74.083 9.04017 66.4051 7.37753 58.0464C5.7149 49.6878 6.56822 41.0238 9.8296 33.1502C13.091 25.2765 18.6139 18.5468 25.7 13.812C32.7862 9.07718 41.1172 6.55 49.6396 6.55C55.2983 6.54965 60.9017 7.66397 66.1298 9.82933C71.3579 11.9947 76.1082 15.1687 80.1096 19.17C84.1109 23.1713 87.2849 27.9217 89.4502 33.1498C91.6156 38.3778 92.7299 43.9812 92.7296 49.64ZM49.6396 2.81C58.9017 2.81 67.9558 5.55653 75.6569 10.7023C83.3581 15.848 89.3604 23.1619 92.9049 31.7189C96.4493 40.276 97.3767 49.6919 95.5697 58.7761C93.7628 67.8602 89.3027 76.2045 82.7534 82.7538C76.2041 89.3031 67.8598 93.7632 58.7757 95.5702C49.6915 97.3771 40.2756 96.4497 31.7185 92.9053C23.1614 89.3608 15.8476 83.3585 10.7018 75.6574C5.5561 67.9562 2.80957 58.9021 2.80957 49.64C2.81076 37.2203 7.74501 25.3096 16.5271 16.5275C25.3091 7.74544 37.2198 2.81119 49.6396 2.81V2.81Z" fill="#0078D4"/>
<path fill-rule="evenodd" clip-rule="evenodd" d="M92.7296 49.6399C92.7296 58.1623 90.2024 66.4933 85.4676 73.5794C80.7328 80.6655 74.0031 86.1885 66.1294 89.4499C58.2557 92.7112 49.5918 93.5646 41.2331 91.9019C32.8745 90.2393 25.1966 86.1354 19.1703 80.1091C13.1441 74.0829 9.04017 66.405 7.37753 58.0463C5.7149 49.6877 6.56822 41.0237 9.8296 33.1501C13.091 25.2764 18.6139 18.5467 25.7001 13.8119C32.7862 9.07708 41.1172 6.5499 49.6396 6.5499C55.2983 6.54956 60.9017 7.66388 66.1298 9.82923C71.3579 11.9946 76.1082 15.1686 80.1096 19.1699C84.1109 23.1712 87.2849 27.9216 89.4502 33.1497C91.6156 38.3777 92.7299 43.9811 92.7296 49.6399V49.6399ZM49.6396 2.8099C58.9017 2.8099 67.9558 5.55643 75.6569 10.7022C83.3581 15.8479 89.3604 23.1618 92.9048 31.7188C96.4493 40.2759 97.3767 49.6918 95.5697 58.776C93.7628 67.8601 89.3027 76.2044 82.7534 82.7537C76.2041 89.303 67.8598 93.7631 58.7757 95.5701C49.6915 97.377 40.2756 96.4496 31.7185 92.9052C23.1614 89.3607 15.8476 83.3584 10.7018 75.6573C5.5561 67.9561 2.80957 58.902 2.80957 49.6399C2.81075 37.2202 7.74499 25.3095 16.5271 16.5274C25.3091 7.7453 37.2198 2.81105 49.6396 2.80986V2.8099Z" fill="#0078D4"/>
<path d="M26.3174 28.1134C25.1968 28.1166 24.123 28.5633 23.3306 29.3556C22.5383 30.148 22.0917 31.2218 22.0884 32.3424V61.9452H77.065V32.3423C77.0618 31.2217 76.6152 30.148 75.8228 29.3556C75.0304 28.5632 73.9566 28.1166 72.836 28.1133L26.3174 28.1134ZM72.8361 30.2279C73.3966 30.2286 73.934 30.4516 74.3304 30.848C74.7268 31.2444 74.9498 31.7818 74.9506 32.3423V59.8307H24.2029V32.3423C24.2034 31.7817 24.4264 31.2442 24.8228 30.8478C25.2192 30.4514 25.7567 30.2284 26.3174 30.2279H72.8361Z" fill="url(#paint1_linear_425_1707)"/>
<path d="M24.2029 32.3424C24.2034 31.7817 24.4264 31.2442 24.8228 30.8478C25.2193 30.4514 25.7568 30.2284 26.3174 30.2279H72.8361C73.3967 30.2286 73.9341 30.4516 74.3304 30.848C74.7268 31.2444 74.9498 31.7818 74.9506 32.3424V59.8307H24.2029V32.3424Z" fill="url(#paint2_linear_425_1707)"/>
<path d="M15.7449 61.9451V63.0023C15.7481 64.1229 16.1948 65.1967 16.9871 65.9891C17.7795 66.7814 18.8533 67.228 19.9739 67.2313H79.1795C80.3001 67.228 81.3738 66.7814 82.1662 65.9891C82.9586 65.1967 83.4052 64.1229 83.4085 63.0023V61.9451H15.7449Z" fill="url(#paint3_linear_425_1707)"/>
<path fill-rule="evenodd" clip-rule="evenodd" d="M45.3476 64.0596H53.8056C54.3663 64.0594 54.904 63.8365 55.3005 63.44C55.697 63.0435 55.9199 62.5058 55.9201 61.9451H43.2332C43.2332 62.5059 43.456 63.0437 43.8525 63.4402C44.249 63.8367 44.7869 64.0595 45.3476 64.0596V64.0596Z" fill="#003067"/>
<path fill-rule="evenodd" clip-rule="evenodd" d="M61.3922 33.2818C61.2371 33.1267 61.0268 33.0396 60.8074 33.0396C60.5881 33.0396 60.3778 33.1267 60.2226 33.2818L57.4963 36.0061L56.5116 35.0307C56.4885 34.9966 56.4625 34.9645 56.4338 34.9349C56.2798 34.7805 56.0709 34.6932 55.8527 34.6922C55.6346 34.6912 55.4249 34.7764 55.2694 34.9294C55.1139 35.0823 55.0251 35.2906 55.0225 35.5087C55.0199 35.7268 55.1037 35.9371 55.2555 36.0937L55.2456 36.1037L56.914 37.7568C57.0692 37.9118 57.2796 37.9988 57.499 37.9988C57.7183 37.9988 57.9287 37.9118 58.084 37.7568L61.3897 34.4525L61.3922 34.4505C61.469 34.3738 61.5299 34.2827 61.5715 34.1824C61.6131 34.0822 61.6345 33.9747 61.6345 33.8661C61.6345 33.7576 61.6131 33.6501 61.5715 33.5498C61.53 33.4496 61.469 33.3585 61.3922 33.2818V33.2818Z" fill="white"/>
<path d="M62.2641 40.998H55.5222C55.3896 40.998 55.2624 40.9454 55.1687 40.8516C55.0749 40.7578 55.0222 40.6306 55.0222 40.498C55.0222 40.3654 55.0749 40.2382 55.1687 40.1445C55.2624 40.0507 55.3896 39.998 55.5222 39.998H62.2641C62.3967 39.998 62.5239 40.0507 62.6177 40.1445C62.7115 40.2382 62.7641 40.3654 62.7641 40.498C62.7641 40.6306 62.7115 40.7578 62.6177 40.8516C62.5239 40.9454 62.3967 40.998 62.2641 40.998V40.998Z" fill="white"/>
<path d="M65.2868 43.3093H55.5222C55.3896 43.3093 55.2624 43.2566 55.1687 43.1628C55.0749 43.0691 55.0222 42.9419 55.0222 42.8093C55.0222 42.6767 55.0749 42.5495 55.1687 42.4557C55.2624 42.362 55.3896 42.3093 55.5222 42.3093H65.2868C65.4194 42.3093 65.5466 42.362 65.6404 42.4557C65.7342 42.5495 65.7868 42.6767 65.7868 42.8093C65.7868 42.9419 65.7342 43.0691 65.6404 43.1628C65.5466 43.2566 65.4194 43.3093 65.2868 43.3093Z" fill="white"/>
<path fill-rule="evenodd" clip-rule="evenodd" d="M61.3924 46.9154C61.2373 46.7603 61.0269 46.6732 60.8076 46.6732C60.5883 46.6732 60.3779 46.7603 60.2228 46.9154L57.4965 49.6397L56.5117 48.6643C56.4887 48.6302 56.4627 48.5981 56.434 48.5685C56.2798 48.4143 56.071 48.3273 55.8531 48.3264C55.6351 48.3255 55.4255 48.4107 55.2701 48.5636C55.1147 48.7164 55.026 48.9245 55.0233 49.1425C55.0206 49.3605 55.1041 49.5707 55.2557 49.7273L55.2457 49.7373L56.9141 51.3904C57.0694 51.5454 57.2797 51.6324 57.4991 51.6324C57.7185 51.6324 57.9289 51.5454 58.0841 51.3904L61.3899 48.0861L61.3924 48.0841C61.4692 48.0074 61.5301 47.9163 61.5717 47.816C61.6132 47.7158 61.6346 47.6083 61.6346 47.4997C61.6346 47.3912 61.6132 47.2837 61.5717 47.1834C61.5301 47.0832 61.4692 46.9921 61.3924 46.9154V46.9154Z" fill="white"/>
<path d="M62.2641 54.6316H55.5222C55.3896 54.6316 55.2624 54.5789 55.1687 54.4852C55.0749 54.3914 55.0222 54.2642 55.0222 54.1316C55.0222 53.999 55.0749 53.8718 55.1687 53.7781C55.2624 53.6843 55.3896 53.6316 55.5222 53.6316H62.2641C62.3967 53.6316 62.5239 53.6843 62.6177 53.7781C62.7115 53.8718 62.7641 53.999 62.7641 54.1316C62.7641 54.2642 62.7115 54.3914 62.6177 54.4852C62.5239 54.5789 62.3967 54.6316 62.2641 54.6316V54.6316Z" fill="white"/>
<path d="M65.2868 56.9429H55.5222C55.3896 56.9429 55.2624 56.8902 55.1687 56.7964C55.0749 56.7027 55.0222 56.5755 55.0222 56.4429C55.0222 56.3103 55.0749 56.1831 55.1687 56.0893C55.2624 55.9956 55.3896 55.9429 55.5222 55.9429H65.2868C65.4194 55.9429 65.5466 55.9956 65.6404 56.0893C65.7342 56.1831 65.7868 56.3103 65.7868 56.4429C65.7868 56.5755 65.7342 56.7027 65.6404 56.7964C65.5466 56.8902 65.4194 56.9429 65.2868 56.9429Z" fill="white"/>
<path d="M39.2662 51.203C37.7899 51.201 36.3747 50.6131 35.3315 49.5685C34.2883 48.5239 33.7023 47.1079 33.7023 45.6316C33.7023 44.1553 34.2883 42.7393 35.3315 41.6947C36.3747 40.65 37.7899 40.0622 39.2662 40.0602H39.2665V34.8205C37.4885 34.8205 35.738 35.2589 34.1701 36.097C32.6021 36.9351 31.265 38.1469 30.2772 39.6252C29.2894 41.1035 28.6814 42.8025 28.5072 44.5719C28.3329 46.3413 28.5976 48.1263 29.278 49.7689C29.9584 51.4115 31.0333 52.8609 32.4077 53.9888C33.782 55.1167 35.4133 55.8883 37.1571 56.2352C38.9008 56.582 40.7032 56.4935 42.4046 55.9774C44.1059 55.4613 45.6538 54.5336 46.9109 53.2764L43.2039 49.5692C42.6875 50.0874 42.0738 50.4986 41.3981 50.7789C40.7223 51.0593 39.9979 51.2034 39.2662 51.203V51.203Z" fill="white"/>
<path d="M50.0779 45.6317C50.0778 42.7644 48.9388 40.0145 46.9113 37.987C44.8838 35.9595 42.1339 34.8205 39.2666 34.8205V40.0602C40.086 40.0536 40.8965 40.2293 41.6397 40.5745C42.3828 40.9198 43.0398 41.4259 43.5632 42.0564C44.0866 42.6868 44.4632 43.4258 44.6659 44.2197C44.8685 45.0137 44.892 45.8427 44.7348 46.6469L49.8895 47.6039C50.0124 46.9536 50.0755 46.2935 50.0779 45.6317V45.6317Z" fill="#50E6FF"/>
<path d="M44.7348 46.6469C44.5318 47.7533 43.9981 48.7722 43.2041 49.5691V49.5691L46.911 53.2764C48.4556 51.731 49.4943 49.7528 49.8895 47.6039L44.7348 46.6469Z" fill="#0078D4"/>
</g>
<defs>
<linearGradient id="paint0_linear_425_1707" x1="47.8698" y1="-15.1532" x2="51.8525" y2="130.615" gradientUnits="userSpaceOnUse">
<stop stop-color="#00ABDE"/>
<stop offset="1" stop-color="#007ED8"/>
</linearGradient>
<linearGradient id="paint1_linear_425_1707" x1="49.5767" y1="61.9452" x2="49.5767" y2="28.0527" gradientUnits="userSpaceOnUse">
<stop stop-color="#003067"/>
<stop offset="0.16493" stop-color="#003F7C"/>
<stop offset="0.36216" stop-color="#004F90"/>
<stop offset="0.68089" stop-color="#00589D"/>
<stop offset="1" stop-color="#005BA1"/>
</linearGradient>
<linearGradient id="paint2_linear_425_1707" x1="49.5767" y1="59.8307" x2="49.5767" y2="30.1748" gradientUnits="userSpaceOnUse">
<stop stop-color="#005BA1"/>
<stop offset="0.26" stop-color="#00589D"/>
<stop offset="0.53" stop-color="#004F90"/>
<stop offset="0.8" stop-color="#003F7C"/>
<stop offset="1" stop-color="#003067"/>
</linearGradient>
<linearGradient id="paint3_linear_425_1707" x1="49.5767" y1="67.2313" x2="49.5767" y2="61.9451" gradientUnits="userSpaceOnUse">
<stop stop-color="#004DAE"/>
<stop offset="0.21" stop-color="#0061C4"/>
<stop offset="0.51" stop-color="#0078DD"/>
<stop offset="0.78" stop-color="#0086EC"/>
<stop offset="1" stop-color="#008BF1"/>
</linearGradient>
<clipPath id="clip0_425_1707">
<rect width="99.2799" height="99.28" fill="white"/>
</clipPath>
</defs>
</svg>
