<svg width="100" height="100" viewBox="0 0 100 100" fill="none" xmlns="http://www.w3.org/2000/svg">
<g clip-path="url(#clip0_404_2115)">
<path d="M49.6401 96.4499C40.382 96.4499 31.3317 93.7045 23.6339 88.561C15.936 83.4174 9.93624 76.1067 6.3933 67.5533C2.85036 58.9999 1.92337 49.588 3.72954 40.5077C5.53571 31.4275 9.99394 23.0867 16.5404 16.5402C23.0869 9.99372 31.4277 5.5355 40.5079 3.72933C49.5882 1.92315 59.0001 2.85015 67.5535 6.39308C76.1069 9.93602 83.4176 15.9358 88.5612 23.6336C93.7047 31.3315 96.4501 40.3817 96.4501 49.6399C96.4505 55.7872 95.24 61.8744 92.8878 67.5538C90.5355 73.2332 87.0875 78.3937 82.7407 82.7405C78.3939 87.0873 73.2335 90.5353 67.554 92.8876C61.8746 95.2398 55.7874 96.4503 49.6401 96.4499V96.4499Z" fill="url(#paint0_linear_404_2115)"/>
<path fill-rule="evenodd" clip-rule="evenodd" d="M95.54 49.6399C95.54 58.718 92.848 67.5923 87.8045 75.1406C82.7609 82.6888 75.5923 88.5719 67.2052 92.046C58.818 95.52 49.5891 96.429 40.6854 94.6579C31.7816 92.8869 23.603 88.5153 17.1838 82.0961C10.7646 75.6769 6.39302 67.4983 4.62196 58.5945C2.85089 49.6908 3.75987 40.4618 7.23393 32.0747C10.708 23.6876 16.5911 16.519 24.1393 11.4754C31.6875 6.43187 40.5618 3.73988 49.64 3.73988C55.6677 3.73986 61.6363 4.92708 67.2052 7.23377C72.774 9.54045 77.834 12.9214 82.0963 17.1836C86.3585 21.4458 89.7394 26.5058 92.0461 32.0747C94.3528 37.6435 95.54 43.6122 95.54 49.6399V49.6399ZM49.64 -0.000106449C59.4579 -0.000106449 69.0552 2.91123 77.2185 8.36574C85.3818 13.8203 91.7442 21.573 95.5014 30.6435C99.2585 39.714 100.242 49.695 98.3262 59.3242C96.4108 68.9534 91.6831 77.7984 84.7408 84.7407C77.7985 91.683 68.9535 96.4107 59.3243 98.3261C49.6951 100.241 39.7141 99.2584 30.6436 95.5013C21.5731 91.7441 13.8204 85.3816 8.36584 77.2184C2.91133 69.0551 -1.61629e-06 59.4577 3.61524e-07 49.6399C-0.000786426 43.1208 1.28265 36.6655 3.77702 30.6425C6.27138 24.6196 9.92781 19.147 14.5375 14.5374C19.1471 9.9277 24.6197 6.27127 30.6427 3.77691C36.6656 1.28254 43.121 -0.000894549 49.64 -0.000106449V-0.000106449Z" fill="#F2F1F0"/>
<path fill-rule="evenodd" clip-rule="evenodd" d="M92.7296 49.64C92.7296 58.1624 90.2024 66.4934 85.4676 73.5795C80.7328 80.6656 74.0031 86.1886 66.1294 89.45C58.2557 92.7113 49.5918 93.5647 41.2331 91.902C32.8745 90.2394 25.1966 86.1355 19.1703 80.1092C13.1441 74.083 9.04017 66.4051 7.37753 58.0464C5.7149 49.6878 6.56822 41.0238 9.8296 33.1502C13.091 25.2765 18.6139 18.5468 25.7 13.812C32.7862 9.07718 41.1172 6.55 49.6396 6.55C55.2983 6.54965 60.9017 7.66397 66.1298 9.82933C71.3579 11.9947 76.1082 15.1687 80.1096 19.17C84.1109 23.1713 87.2849 27.9217 89.4502 33.1498C91.6156 38.3778 92.7299 43.9812 92.7296 49.64ZM49.6396 2.81C58.9017 2.81 67.9558 5.55653 75.6569 10.7023C83.3581 15.848 89.3604 23.1619 92.9049 31.7189C96.4493 40.276 97.3767 49.6919 95.5697 58.7761C93.7628 67.8602 89.3027 76.2045 82.7534 82.7538C76.2041 89.3031 67.8598 93.7632 58.7757 95.5702C49.6915 97.3771 40.2756 96.4497 31.7185 92.9053C23.1614 89.3608 15.8476 83.3585 10.7018 75.6574C5.5561 67.9562 2.80957 58.9021 2.80957 49.64C2.81076 37.2203 7.74501 25.3096 16.5271 16.5275C25.3091 7.74544 37.2198 2.81119 49.6396 2.81V2.81Z" fill="#0078D4"/>
<path fill-rule="evenodd" clip-rule="evenodd" d="M92.7296 49.6399C92.7296 58.1623 90.2024 66.4933 85.4676 73.5794C80.7328 80.6655 74.0031 86.1885 66.1294 89.4499C58.2557 92.7112 49.5918 93.5646 41.2331 91.9019C32.8745 90.2393 25.1966 86.1354 19.1703 80.1091C13.1441 74.0829 9.04017 66.405 7.37753 58.0463C5.7149 49.6877 6.56822 41.0237 9.8296 33.1501C13.091 25.2764 18.6139 18.5467 25.7001 13.8119C32.7862 9.07708 41.1172 6.5499 49.6396 6.5499C55.2983 6.54956 60.9017 7.66388 66.1298 9.82923C71.3579 11.9946 76.1082 15.1686 80.1096 19.1699C84.1109 23.1712 87.2849 27.9216 89.4502 33.1497C91.6156 38.3777 92.7299 43.9811 92.7296 49.6399V49.6399ZM49.6396 2.8099C58.9017 2.8099 67.9558 5.55643 75.6569 10.7022C83.3581 15.8479 89.3604 23.1618 92.9048 31.7188C96.4493 40.2759 97.3767 49.6918 95.5697 58.776C93.7628 67.8601 89.3027 76.2044 82.7534 82.7537C76.2041 89.303 67.8598 93.7631 58.7757 95.5701C49.6915 97.377 40.2756 96.4496 31.7185 92.9052C23.1614 89.3607 15.8476 83.3584 10.7018 75.6573C5.5561 67.9561 2.80957 58.902 2.80957 49.6399C2.81075 37.2202 7.74499 25.3095 16.5271 16.5274C25.3091 7.7453 37.2198 2.81105 49.6396 2.80986V2.8099Z" fill="#0078D4"/>
<path d="M26.7254 30.8629C25.6244 30.8661 24.5695 31.3049 23.791 32.0833C23.0126 32.8618 22.5738 33.9167 22.5706 35.0177V64.1012H76.5827V35.0177C76.5795 33.9167 76.1408 32.8618 75.3623 32.0833C74.5838 31.3049 73.5289 30.8661 72.4279 30.8629H26.7254ZM72.428 32.9403C72.9787 32.941 73.5067 33.1601 73.8961 33.5495C74.2855 33.939 74.5046 34.4669 74.5054 35.0177V62.0238H24.6479V35.0177C24.6485 34.4669 24.8675 33.9388 25.257 33.5493C25.6465 33.1599 26.1746 32.9408 26.7254 32.9403H72.428Z" fill="url(#paint1_linear_404_2115)"/>
<path d="M24.6479 35.0176C24.6485 34.4668 24.8676 33.9387 25.257 33.5492C25.6465 33.1598 26.1746 32.9407 26.7254 32.9402H72.4279C72.9787 32.9409 73.5067 33.16 73.8961 33.5494C74.2855 33.9389 74.5046 34.4668 74.5053 35.0176V62.0237H24.6479V35.0176Z" fill="url(#paint2_linear_404_2115)"/>
<path d="M16.3384 64.1011V65.1398C16.3416 66.2407 16.7804 67.2956 17.5588 68.0741C18.3373 68.8525 19.3922 69.2913 20.4932 69.2945H78.6602C79.7611 69.2913 80.816 68.8525 81.5945 68.0741C82.3729 67.2956 82.8117 66.2407 82.8149 65.1398V64.1011H16.3384Z" fill="url(#paint3_linear_404_2115)"/>
<path fill-rule="evenodd" clip-rule="evenodd" d="M45.4219 66.1785H53.7315C54.2824 66.1783 54.8107 65.9593 55.2002 65.5698C55.5897 65.1802 55.8087 64.652 55.8089 64.1011H43.3445C43.3445 64.652 43.5634 65.1804 43.953 65.57C44.3426 65.9596 44.871 66.1784 45.4219 66.1785V66.1785Z" fill="#003067"/>
<path d="M62.2798 42.013C62.2798 42.1488 62.2531 42.2832 62.2011 42.4087C62.1492 42.5341 62.073 42.6481 61.977 42.7441C61.881 42.8401 61.767 42.9162 61.6416 42.9682C61.5162 43.0202 61.3817 43.0469 61.2459 43.0469H50.9072C50.633 43.0469 50.37 42.938 50.1761 42.7441C49.9822 42.5502 49.8733 42.2872 49.8733 42.013V42.013C49.8733 41.7388 49.9822 41.4758 50.1761 41.282C50.37 41.0881 50.633 40.9791 50.9072 40.9791H61.2459C61.3817 40.9791 61.5162 41.0059 61.6416 41.0578C61.767 41.1098 61.881 41.186 61.977 41.282C62.073 41.378 62.1492 41.4919 62.2011 41.6174C62.2531 41.7428 62.2798 41.8772 62.2798 42.013V42.013ZM64.3476 42.013C64.3476 41.8772 64.3743 41.7428 64.4263 41.6174C64.4782 41.4919 64.5544 41.378 64.6504 41.282C64.7464 41.1859 64.8604 41.1098 64.9858 41.0578C65.1112 41.0059 65.2457 40.9791 65.3814 40.9791H69.517C69.6527 40.9791 69.7872 41.0059 69.9126 41.0578C70.038 41.1098 70.152 41.1859 70.248 41.282C70.344 41.378 70.4202 41.4919 70.4721 41.6174C70.5241 41.7428 70.5508 41.8772 70.5508 42.013V42.013C70.5508 42.1488 70.5241 42.2832 70.4721 42.4087C70.4202 42.5341 70.344 42.6481 70.248 42.7441C70.152 42.8401 70.038 42.9162 69.9126 42.9682C69.7872 43.0202 69.6527 43.0469 69.517 43.0469H65.3814C65.2457 43.0469 65.1112 43.0202 64.9858 42.9682C64.8604 42.9162 64.7464 42.8401 64.6504 42.7441C64.5544 42.6481 64.4782 42.5341 64.4263 42.4087C64.3743 42.2832 64.3476 42.1488 64.3476 42.013V42.013ZM58.1443 46.1485C58.1443 45.8743 58.2532 45.6114 58.4471 45.4175C58.641 45.2236 58.904 45.1146 59.1782 45.1146H69.517C69.6527 45.1146 69.7872 45.1414 69.9126 45.1933C70.038 45.2453 70.152 45.3215 70.248 45.4175C70.344 45.5135 70.4202 45.6274 70.4721 45.7529C70.5241 45.8783 70.5508 46.0128 70.5508 46.1485V46.1485C70.5508 46.4227 70.4419 46.6857 70.248 46.8796C70.0541 47.0735 69.7912 47.1824 69.517 47.1824H59.1782C58.904 47.1824 58.641 47.0735 58.4471 46.8796C58.2532 46.6857 58.1443 46.4227 58.1443 46.1485V46.1485ZM56.0766 46.1485C56.0766 46.2843 56.0498 46.4187 55.9979 46.5442C55.9459 46.6696 55.8697 46.7836 55.7737 46.8796C55.6777 46.9756 55.5638 47.0517 55.4383 47.1037C55.3129 47.1557 55.1784 47.1824 55.0427 47.1824H50.9072C50.633 47.1824 50.37 47.0735 50.1761 46.8796C49.9822 46.6857 49.8733 46.4227 49.8733 46.1485V46.1485C49.8733 45.8743 49.9822 45.6114 50.1761 45.4175C50.37 45.2236 50.633 45.1146 50.9072 45.1146H55.0427C55.3169 45.1146 55.5799 45.2236 55.7737 45.4175C55.9676 45.6114 56.0766 45.8743 56.0766 46.1485ZM70.5508 37.8775C70.5508 38.1517 70.4419 38.4147 70.248 38.6086C70.0541 38.8025 69.7912 38.9114 69.517 38.9114H50.9072C50.633 38.9114 50.37 38.8025 50.1761 38.6086C49.9822 38.4147 49.8733 38.1517 49.8733 37.8775V37.8775C49.8733 37.6033 49.9822 37.3404 50.1761 37.1465C50.37 36.9526 50.633 36.8436 50.9072 36.8436H69.517C69.7912 36.8436 70.0541 36.9526 70.248 37.1465C70.4419 37.3403 70.5508 37.6033 70.5508 37.8775V37.8775Z" fill="#0078D4"/>
<path d="M62.2798 54.1694C62.2798 54.3052 62.2531 54.4396 62.2011 54.565C62.1492 54.6905 62.073 54.8044 61.977 54.9005C61.881 54.9965 61.767 55.0726 61.6416 55.1246C61.5162 55.1765 61.3817 55.2033 61.2459 55.2033H50.9072C50.7714 55.2033 50.637 55.1765 50.5115 55.1246C50.3861 55.0726 50.2721 54.9965 50.1761 54.9005C50.0801 54.8044 50.0039 54.6905 49.952 54.565C49.9 54.4396 49.8733 54.3052 49.8733 54.1694V54.1694C49.8733 53.8952 49.9822 53.6322 50.1761 53.4383C50.37 53.2444 50.633 53.1355 50.9072 53.1355H61.2459C61.5201 53.1355 61.7831 53.2444 61.977 53.4383C62.1709 53.6322 62.2798 53.8952 62.2798 54.1694ZM64.3476 54.1694C64.3476 53.8952 64.4565 53.6322 64.6504 53.4383C64.8443 53.2444 65.1072 53.1355 65.3814 53.1355H69.517C69.7912 53.1355 70.0541 53.2444 70.248 53.4383C70.4419 53.6322 70.5508 53.8952 70.5508 54.1694V54.1694C70.5508 54.3052 70.5241 54.4396 70.4721 54.565C70.4202 54.6905 70.344 54.8044 70.248 54.9005C70.152 54.9965 70.038 55.0726 69.9126 55.1246C69.7872 55.1765 69.6527 55.2033 69.517 55.2033H65.3814C65.2457 55.2033 65.1112 55.1765 64.9858 55.1246C64.8604 55.0726 64.7464 54.9965 64.6504 54.9005C64.5544 54.8044 64.4782 54.6905 64.4263 54.565C64.3743 54.4396 64.3476 54.3052 64.3476 54.1694V54.1694ZM58.1443 58.3049C58.1443 58.0307 58.2532 57.7677 58.4471 57.5738C58.641 57.3799 58.904 57.271 59.1782 57.271H69.517C69.7912 57.271 70.0541 57.3799 70.248 57.5738C70.4419 57.7677 70.5508 58.0307 70.5508 58.3049C70.5508 58.4407 70.5241 58.5751 70.4721 58.7005C70.4202 58.826 70.344 58.94 70.248 59.036C70.152 59.132 70.038 59.2081 69.9126 59.2601C69.7872 59.312 69.6527 59.3388 69.517 59.3388H59.1782C58.904 59.3388 58.641 59.2299 58.4471 59.036C58.2532 58.8421 58.1443 58.5791 58.1443 58.3049V58.3049ZM56.0766 58.3049C56.0766 58.4407 56.0498 58.5751 55.9979 58.7005C55.9459 58.826 55.8697 58.94 55.7737 59.036C55.6777 59.132 55.5638 59.2081 55.4383 59.2601C55.3129 59.312 55.1784 59.3388 55.0427 59.3388H50.9072C50.7714 59.3388 50.637 59.312 50.5115 59.2601C50.3861 59.2081 50.2721 59.132 50.1761 59.036C50.0801 58.94 50.0039 58.826 49.952 58.7005C49.9 58.5751 49.8733 58.4407 49.8733 58.3049C49.8733 58.0307 49.9822 57.7677 50.1761 57.5738C50.37 57.3799 50.633 57.271 50.9072 57.271H55.0427C55.3169 57.271 55.5799 57.3799 55.7737 57.5738C55.9676 57.7677 56.0766 58.0307 56.0766 58.3049ZM70.5508 50.0339C70.5508 50.1697 70.5241 50.3041 70.4721 50.4295C70.4202 50.555 70.344 50.669 70.248 50.765C70.152 50.861 70.038 50.9371 69.9126 50.9891C69.7872 51.041 69.6527 51.0678 69.517 51.0678H50.9072C50.633 51.0678 50.37 50.9589 50.1761 50.765C49.9822 50.5711 49.8733 50.3081 49.8733 50.0339V50.0339C49.8733 49.7597 49.9822 49.4967 50.1761 49.3028C50.37 49.1089 50.633 49 50.9072 49H69.517C69.7912 49 70.0541 49.1089 70.248 49.3028C70.4419 49.4967 70.5508 49.7597 70.5508 50.0339V50.0339Z" fill="#0078D4"/>
<path d="M34.2511 52.21L40.3539 45.6183C42.5169 45.8252 43.2406 45.3663 43.8786 44.6773C44.2547 44.2163 44.5114 43.6698 44.6261 43.0861C44.7409 42.5023 44.71 41.8992 44.5363 41.3302L42.4135 43.5465C42.3454 43.6177 42.2519 43.6592 42.1534 43.662C42.0549 43.6648 41.9592 43.6288 41.887 43.5617L41.0191 42.7527L40.1511 41.9438C40.0789 41.8765 40.036 41.7835 40.0315 41.6848C40.0271 41.5861 40.0615 41.4897 40.1274 41.4161L42.1739 39.1284C41.5953 38.9967 40.9931 39.0104 40.421 39.1682C39.849 39.3261 39.3249 39.6232 38.8957 40.033C38.2493 40.7314 37.883 41.4686 38.1996 43.4983L31.9854 50.2105C30.6096 50.0974 29.5021 50.1795 28.5926 51.1624C28.2164 51.6233 27.9596 52.1698 27.8448 52.7535C27.7301 53.3373 27.761 53.9403 27.9348 54.5093L30.0574 52.2927C30.1255 52.2214 30.219 52.1798 30.3175 52.177C30.4161 52.1742 30.5118 52.2104 30.5838 52.2777L31.4518 53.087L32.3198 53.8955C32.3921 53.9629 32.4351 54.0559 32.4396 54.1546C32.4441 54.2533 32.4098 54.3499 32.344 54.4236L30.2972 56.7104C30.8634 56.8379 31.452 56.8273 32.0132 56.6797C32.5745 56.532 33.092 56.2516 33.5222 55.862C34.2094 55.1561 34.6159 54.3593 34.2511 52.21Z" fill="#0078D4"/>
<path opacity="0.2" d="M38.5407 44.1023L39.0739 44.598L32.6069 51.5541L32.0737 51.0584L38.5407 44.1023Z" fill="#53B1E0"/>
<path opacity="0.17" d="M36.3706 45.2973L39.0629 47.033L37.9882 48.3406L36.3706 45.2973Z" fill="#1F56A3"/>
<path d="M31.6135 41.9691L32.4154 41.1976L40.2377 49.3274L39.4358 50.0989L31.6135 41.9691Z" fill="#9CEBFF"/>
<path d="M46.5475 53.312L43.8095 50.4595L42.7229 50.4246L42.6995 49.3024L41.5659 48.1212C41.5318 48.0874 41.4913 48.0607 41.4469 48.0426C41.4024 48.0244 41.3549 48.0152 41.3069 48.0155C41.2589 48.0158 41.2114 48.0255 41.1671 48.0441C41.1229 48.0628 41.0828 48.0899 41.049 48.1241L39.5755 49.5476L39.5767 49.5492L39.5753 49.5478L38.1731 50.9022C38.105 50.9681 38.0658 51.0583 38.064 51.1531C38.0623 51.2478 38.0981 51.3395 38.1637 51.4079L39.2972 52.5888L40.3873 52.6804L40.4072 53.7457L43.1448 56.5983C43.269 56.728 43.4175 56.8319 43.5819 56.904C43.7464 56.9762 43.9234 57.0151 44.103 57.0186C44.2825 57.0221 44.4609 56.9901 44.628 56.9244C44.7952 56.8587 44.9477 56.7607 45.0767 56.6359L45.7516 55.984L45.7398 55.9716L45.7524 55.9837L46.4614 55.2989C46.7353 55.0462 46.898 54.6955 46.9142 54.3232C46.9303 53.951 46.7985 53.5874 46.5475 53.312V53.312Z" fill="#50E6FF"/>
<path d="M30.9763 38.9642C30.9337 38.9197 30.8828 38.8841 30.8264 38.8594C30.7701 38.8347 30.7094 38.8214 30.6479 38.8202C30.5863 38.819 30.5252 38.8299 30.4679 38.8524C30.4106 38.8749 30.3583 38.9085 30.314 38.9512L29.4705 39.7661C29.3811 39.8528 29.3296 39.9713 29.3272 40.0958C29.3249 40.2204 29.372 40.3408 29.4581 40.4307L30.8501 41.8815L31.6249 41.9689L32.4263 41.1951L32.3581 40.4043L30.9763 38.9642Z" fill="#9CEBFF"/>
<path d="M30.8196 41.8494L30.8509 41.8818L31.6251 41.9687L32.4265 41.1949L32.3587 40.4041L32.3381 40.3828L30.8196 41.8494Z" fill="#53B1E0"/>
<path d="M44.3726 55.0253C44.4167 55.0712 44.4407 55.1326 44.4395 55.1962C44.4383 55.2598 44.412 55.3203 44.3662 55.3644L44.2326 55.4937C44.21 55.5155 44.1833 55.5327 44.1541 55.5441C44.1249 55.5556 44.0936 55.5612 44.0622 55.5606C44.0308 55.56 43.9999 55.5532 43.9711 55.5406C43.9423 55.5281 43.9163 55.5099 43.8946 55.4873L41.4219 52.9104C41.3779 52.8645 41.3538 52.8031 41.355 52.7395C41.3562 52.6759 41.3826 52.6154 41.4283 52.5713L41.5619 52.442C41.5845 52.4202 41.6112 52.403 41.6405 52.3916C41.6697 52.3801 41.7009 52.3745 41.7323 52.3751C41.7637 52.3757 41.7947 52.3825 41.8234 52.3951C41.8522 52.4076 41.8782 52.4258 41.8999 52.4484L44.3726 55.0253Z" fill="#1B93EB"/>
<path d="M45.4822 53.9531C45.5262 53.9989 45.5503 54.0603 45.5492 54.1238C45.548 54.1873 45.5218 54.2478 45.4762 54.292L45.3424 54.4213C45.3198 54.4431 45.2931 54.4603 45.2639 54.4717C45.2346 54.4832 45.2034 54.4888 45.172 54.4882C45.1406 54.4876 45.1097 54.4808 45.0809 54.4682C45.0521 54.4556 45.0261 54.4375 45.0044 54.4148L42.5329 51.8388C42.489 51.793 42.4649 51.7316 42.4661 51.668C42.4673 51.6045 42.4935 51.544 42.5391 51.4998L42.6727 51.371C42.6953 51.3492 42.7219 51.3321 42.7512 51.3206C42.7804 51.3091 42.8116 51.3035 42.843 51.3042C42.8744 51.3048 42.9053 51.3116 42.9341 51.3242C42.9628 51.3368 42.9888 51.355 43.0105 51.3777L45.4822 53.9531Z" fill="#1B93EB"/>
<path opacity="0.2" d="M36.9779 30.8629C36.9546 31.173 36.9417 31.4853 36.9417 31.7994C36.9388 33.6618 37.349 35.5017 38.1427 37.1865C38.9363 38.8714 40.0937 40.3593 41.5315 41.5431C42.3817 42.2449 43.4495 42.6293 44.552 42.6305C44.634 42.6305 44.717 42.628 44.7991 42.6236L45.0823 42.9503L47.1526 45.0201C47.7203 45.5892 48.4236 46.0044 49.1962 46.2265C49.9687 46.4486 50.7851 46.4703 51.5684 46.2896C52.3516 46.1089 53.076 45.7317 53.6732 45.1936C54.2703 44.6555 54.7207 43.9742 54.9817 43.214C57.1382 42.1837 58.9605 40.5662 60.2395 38.5471C61.5184 36.5281 62.2021 34.1894 62.2122 31.7994C62.2122 31.4838 62.1814 31.1742 62.1587 30.8629H36.9779Z" fill="#003067"/>
<path d="M56.0215 23.3377C55.626 23.0338 55.1542 22.8452 54.6582 22.7927C54.1622 22.7402 53.6614 22.8258 53.211 23.0401C53.0813 22.6363 52.8585 22.2685 52.5605 21.9666L50.5869 19.993C50.2107 19.6163 49.7328 19.3575 49.2118 19.2482C48.6907 19.1389 48.1491 19.1838 47.6532 19.3774C47.1573 19.5711 46.7286 19.9051 46.4196 20.3386C46.1105 20.7721 45.9345 21.2862 45.9131 21.8182C44.156 22.4627 42.6001 23.5595 41.4027 24.9979C40.2052 26.4363 39.4086 28.1652 39.0934 30.0101C38.7781 31.8549 38.9553 33.7503 39.6072 35.5047C40.259 37.2591 41.3623 38.8103 42.8057 40.0018C43.2268 40.354 43.7454 40.5693 44.2922 40.6191C44.8389 40.6689 45.3879 40.5508 45.8657 40.2805C45.943 40.658 46.1003 41.0145 46.3271 41.326L46.374 41.3895L46.5439 41.5838L48.5664 43.6063C48.942 43.9834 49.4194 44.2427 49.9403 44.3524C50.4611 44.4621 51.0026 44.4174 51.4984 44.2239C51.9942 44.0303 52.4227 43.6962 52.7314 43.2627C53.0401 42.8291 53.2156 42.3149 53.2363 41.783C55.2755 41.0245 57.0353 39.6629 58.2814 37.8794C59.5275 36.096 60.2009 33.9753 60.2119 31.7996C60.2174 30.1608 59.8417 28.5432 59.1145 27.0746C58.3872 25.606 57.3283 24.3266 56.0215 23.3377V23.3377Z" fill="white"/>
<path d="M53.7718 25.069C53.7129 25.1463 53.6697 25.2344 53.6448 25.3284C53.62 25.4223 53.6138 25.5203 53.6268 25.6166C53.6398 25.713 53.6716 25.8058 53.7204 25.8898C53.7693 25.9739 53.8342 26.0475 53.9115 26.1064C55.0495 26.9731 55.9017 28.1609 56.3581 29.5166C56.8145 30.8723 56.854 32.3337 56.4717 33.7121C56.0894 35.0905 55.3028 36.3227 54.2133 37.2497C53.1239 38.1767 51.7816 38.7559 50.3597 38.9125L50.3647 38.9076C49.6885 38.9816 49.0054 38.9599 48.3353 38.8431L48.0066 39.1717C47.8812 39.2971 47.805 39.4634 47.7918 39.6403C47.7787 39.8171 47.8295 39.9929 47.935 40.1354L48.0066 40.2184L49.9805 42.1923C50.1126 42.3244 50.2898 42.4017 50.4765 42.4086C50.6631 42.4155 50.8456 42.3516 50.9871 42.2296C51.1286 42.1077 51.2188 41.9367 51.2396 41.7511C51.2603 41.5654 51.2101 41.3787 51.099 41.2286L51.0273 41.1456L50.2868 40.4065C52.0273 40.2628 53.6833 39.5948 55.0364 38.4906C56.3894 37.3864 57.376 35.898 57.8658 34.2217C58.3556 32.5454 58.3257 30.76 57.78 29.101C57.2343 27.442 56.1985 25.9875 54.8092 24.9293C54.7319 24.8703 54.6438 24.8272 54.5498 24.8023C54.4559 24.7774 54.3579 24.7713 54.2616 24.7843C54.1653 24.7973 54.0724 24.8291 53.9884 24.8779C53.9044 24.9268 53.8308 24.9917 53.7718 25.069V25.069Z" fill="#50E6FF"/>
<path d="M48.1263 21.4071C48.0575 21.4758 48.003 21.5574 47.9658 21.6472C47.9286 21.737 47.9095 21.8333 47.9095 21.9305C47.9095 22.0277 47.9286 22.1239 47.9658 22.2137C48.003 22.3035 48.0575 22.3851 48.1263 22.4539L48.8658 23.193C47.154 23.3345 45.5233 23.9832 44.1821 25.0562C42.8409 26.1292 41.8502 27.5778 41.3365 29.2168C40.8228 30.8557 40.8094 32.6107 41.2982 34.2573C41.787 35.9038 42.7556 37.3673 44.0804 38.4605C44.2318 38.5852 44.4264 38.6447 44.6217 38.6259C44.8169 38.6071 44.9966 38.5117 45.1215 38.3605C45.2464 38.2093 45.3062 38.0147 45.2878 37.8195C45.2693 37.6242 45.1742 37.4443 45.0232 37.3192C44.2085 36.6486 43.5527 35.8059 43.1028 34.8515C42.653 33.8971 42.4203 32.8548 42.4215 31.7997C42.4231 30.7556 42.653 29.7245 43.0951 28.7786C43.5371 27.8328 44.1806 26.995 44.9806 26.324C45.7805 25.653 46.7174 25.165 47.7258 24.8943C48.7342 24.6236 49.7895 24.5766 50.818 24.7566L51.1469 24.4277C51.2156 24.359 51.2702 24.2774 51.3074 24.1876C51.3446 24.0978 51.3637 24.0015 51.3637 23.9043C51.3637 23.8071 51.3446 23.7109 51.3074 23.6211C51.2702 23.5313 51.2156 23.4497 51.1469 23.3809L49.1731 21.4071C49.0342 21.2683 48.846 21.1903 48.6497 21.1903C48.4533 21.1903 48.2651 21.2683 48.1263 21.4071V21.4071Z" fill="#50E6FF"/>
<path d="M49.5768 37.7212C52.8472 37.7212 55.4984 35.0701 55.4984 31.7997C55.4984 28.5293 52.8472 25.8782 49.5768 25.8782C46.3064 25.8782 43.6553 28.5293 43.6553 31.7997C43.6553 35.0701 46.3064 37.7212 49.5768 37.7212Z" fill="url(#paint4_linear_404_2115)"/>
<path d="M52.5675 29.7959C52.4988 29.7272 52.4172 29.6727 52.3274 29.6355C52.2376 29.5983 52.1414 29.5791 52.0442 29.5791C51.947 29.5791 51.8507 29.5983 51.7609 29.6355C51.6711 29.6727 51.5895 29.7272 51.5208 29.7959L48.5899 32.7267L47.6329 31.7698C47.4941 31.631 47.3059 31.553 47.1096 31.553C46.9133 31.553 46.725 31.631 46.5862 31.7698C46.4474 31.9086 46.3694 32.0968 46.3694 32.2931C46.3694 32.4894 46.4474 32.6777 46.5862 32.8165L48.0666 34.2969C48.1353 34.3656 48.2169 34.4202 48.3067 34.4574C48.3965 34.4946 48.4927 34.5137 48.5899 34.5137C48.6871 34.5137 48.7834 34.4946 48.8732 34.4574C48.963 34.4202 49.0446 34.3656 49.1133 34.2969L52.5675 30.8427C52.6363 30.7739 52.6908 30.6923 52.728 30.6025C52.7652 30.5127 52.7843 30.4165 52.7843 30.3193C52.7843 30.2221 52.7652 30.1258 52.728 30.036C52.6908 29.9462 52.6363 29.8646 52.5675 29.7959V29.7959Z" fill="white"/>
</g>
<defs>
<linearGradient id="paint0_linear_404_2115" x1="47.8697" y1="-15.1532" x2="51.8525" y2="130.615" gradientUnits="userSpaceOnUse">
<stop stop-color="#00ABDE"/>
<stop offset="1" stop-color="#007ED8"/>
</linearGradient>
<linearGradient id="paint1_linear_404_2115" x1="49.5767" y1="64.1012" x2="49.5767" y2="30.8033" gradientUnits="userSpaceOnUse">
<stop stop-color="#003067"/>
<stop offset="0.16493" stop-color="#003F7C"/>
<stop offset="0.36216" stop-color="#004F90"/>
<stop offset="0.68089" stop-color="#00589D"/>
<stop offset="1" stop-color="#005BA1"/>
</linearGradient>
<linearGradient id="paint2_linear_404_2115" x1="49.5767" y1="62.0237" x2="49.5767" y2="32.8881" gradientUnits="userSpaceOnUse">
<stop stop-color="#005BA1"/>
<stop offset="0.26" stop-color="#00589D"/>
<stop offset="0.53" stop-color="#004F90"/>
<stop offset="0.8" stop-color="#003F7C"/>
<stop offset="1" stop-color="#003067"/>
</linearGradient>
<linearGradient id="paint3_linear_404_2115" x1="49.5766" y1="69.2945" x2="49.5766" y2="64.1011" gradientUnits="userSpaceOnUse">
<stop stop-color="#004DAE"/>
<stop offset="0.21" stop-color="#0061C4"/>
<stop offset="0.51" stop-color="#0078DD"/>
<stop offset="0.78" stop-color="#0086EC"/>
<stop offset="1" stop-color="#008BF1"/>
</linearGradient>
<linearGradient id="paint4_linear_404_2115" x1="49.5768" y1="37.7212" x2="49.5768" y2="25.8782" gradientUnits="userSpaceOnUse">
<stop stop-color="#0078D4"/>
<stop offset="0.325" stop-color="#1B84DC"/>
<stop offset="1" stop-color="#5EA0EF"/>
</linearGradient>
<clipPath id="clip0_404_2115">
<rect width="99.2799" height="99.28" fill="white"/>
</clipPath>
</defs>
</svg>
