<svg width="100" height="100" viewBox="0 0 100 100" fill="none" xmlns="http://www.w3.org/2000/svg">
<g clip-path="url(#clip0_617_403)">
<path d="M49.6401 96.4499C40.382 96.4499 31.3317 93.7045 23.6339 88.561C15.936 83.4174 9.93624 76.1067 6.3933 67.5533C2.85036 58.9999 1.92337 49.588 3.72954 40.5077C5.53571 31.4275 9.99394 23.0867 16.5404 16.5402C23.0869 9.99372 31.4277 5.5355 40.5079 3.72933C49.5882 1.92315 59.0001 2.85015 67.5535 6.39308C76.1069 9.93602 83.4176 15.9358 88.5612 23.6336C93.7047 31.3315 96.4501 40.3817 96.4501 49.6399C96.4505 55.7872 95.24 61.8744 92.8878 67.5538C90.5355 73.2332 87.0875 78.3937 82.7407 82.7405C78.3939 87.0873 73.2335 90.5353 67.554 92.8876C61.8746 95.2398 55.7874 96.4503 49.6401 96.4499V96.4499Z" fill="url(#paint0_linear_617_403)"/>
<path fill-rule="evenodd" clip-rule="evenodd" d="M95.54 49.6399C95.54 58.718 92.848 67.5923 87.8045 75.1406C82.7609 82.6888 75.5923 88.5719 67.2052 92.046C58.818 95.52 49.5891 96.429 40.6854 94.6579C31.7816 92.8869 23.603 88.5153 17.1838 82.0961C10.7646 75.6769 6.39302 67.4983 4.62196 58.5945C2.85089 49.6908 3.75987 40.4618 7.23393 32.0747C10.708 23.6876 16.5911 16.519 24.1393 11.4754C31.6875 6.43187 40.5618 3.73988 49.64 3.73988C55.6677 3.73986 61.6363 4.92708 67.2052 7.23377C72.774 9.54045 77.834 12.9214 82.0963 17.1836C86.3585 21.4458 89.7394 26.5058 92.0461 32.0747C94.3528 37.6435 95.54 43.6122 95.54 49.6399V49.6399ZM49.64 -0.000106449C59.4579 -0.000106449 69.0552 2.91123 77.2185 8.36574C85.3818 13.8203 91.7442 21.573 95.5014 30.6435C99.2585 39.714 100.242 49.695 98.3262 59.3242C96.4108 68.9534 91.6831 77.7984 84.7408 84.7407C77.7985 91.683 68.9535 96.4107 59.3243 98.3261C49.6951 100.241 39.7141 99.2584 30.6436 95.5013C21.5731 91.7441 13.8204 85.3816 8.36584 77.2184C2.91133 69.0551 -1.61629e-06 59.4577 3.61524e-07 49.6399C-0.000786426 43.1208 1.28265 36.6655 3.77702 30.6425C6.27138 24.6196 9.92781 19.147 14.5375 14.5374C19.1471 9.9277 24.6197 6.27127 30.6427 3.77691C36.6656 1.28254 43.121 -0.000894549 49.64 -0.000106449V-0.000106449Z" fill="#F2F1F0"/>
<path fill-rule="evenodd" clip-rule="evenodd" d="M92.7296 49.64C92.7296 58.1624 90.2024 66.4934 85.4676 73.5795C80.7328 80.6656 74.0031 86.1886 66.1294 89.45C58.2557 92.7113 49.5918 93.5647 41.2331 91.902C32.8745 90.2394 25.1966 86.1355 19.1703 80.1092C13.1441 74.083 9.04017 66.4051 7.37753 58.0464C5.7149 49.6878 6.56822 41.0238 9.8296 33.1502C13.091 25.2765 18.6139 18.5468 25.7 13.812C32.7862 9.07718 41.1172 6.55 49.6396 6.55C55.2983 6.54965 60.9017 7.66397 66.1298 9.82933C71.3579 11.9947 76.1082 15.1687 80.1096 19.17C84.1109 23.1713 87.2849 27.9217 89.4502 33.1498C91.6156 38.3778 92.7299 43.9812 92.7296 49.64ZM49.6396 2.81C58.9017 2.81 67.9558 5.55653 75.6569 10.7023C83.3581 15.848 89.3604 23.1619 92.9049 31.7189C96.4493 40.276 97.3767 49.6919 95.5697 58.7761C93.7628 67.8602 89.3027 76.2045 82.7534 82.7538C76.2041 89.3031 67.8598 93.7632 58.7757 95.5702C49.6915 97.3771 40.2756 96.4497 31.7185 92.9053C23.1614 89.3608 15.8476 83.3585 10.7018 75.6574C5.5561 67.9562 2.80957 58.9021 2.80957 49.64C2.81076 37.2203 7.74501 25.3096 16.5271 16.5275C25.3091 7.74544 37.2198 2.81119 49.6396 2.81V2.81Z" fill="#0078D4"/>
<path opacity="0.2" d="M54.3307 39.1217H76.3534C76.4691 39.1214 76.58 39.0753 76.6618 38.9935C76.7436 38.9116 76.7897 38.8008 76.7901 38.6851V21.4912H53.894V38.6851C53.8944 38.8008 53.9405 38.9116 54.0223 38.9935C54.1041 39.0753 54.215 39.1214 54.3307 39.1217V39.1217Z" fill="#003067"/>
<path d="M54.3307 38.2227H76.3534C76.4691 38.2224 76.58 38.1763 76.6618 38.0945C76.7436 38.0126 76.7897 37.9018 76.7901 37.7861V20.5922H53.894V37.7861C53.8944 37.9018 53.9405 38.0126 54.0223 38.0945C54.1041 38.1763 54.215 38.2224 54.3307 38.2227V38.2227Z" fill="#F2F2F2"/>
<path d="M53.894 22.4953H76.7901V20.443C76.7902 20.399 76.7817 20.3554 76.7649 20.3147C76.7481 20.2741 76.7234 20.2371 76.6923 20.206C76.6612 20.1749 76.6243 20.1502 76.5836 20.1335C76.5429 20.1167 76.4993 20.1081 76.4553 20.1082H54.2288C54.1848 20.1081 54.1412 20.1167 54.1006 20.1335C54.0599 20.1502 54.023 20.1749 53.9918 20.206C53.9607 20.2371 53.9361 20.2741 53.9193 20.3147C53.9025 20.3554 53.8939 20.399 53.894 20.443V22.4953Z" fill="#092E4C"/>
<path d="M55.6552 21.9312C55.77 21.9309 55.8821 21.8965 55.9774 21.8324C56.0726 21.7683 56.1467 21.6774 56.1903 21.5712C56.2339 21.4651 56.2451 21.3483 56.2223 21.2358C56.1996 21.1233 56.144 21.02 56.0625 20.9391C55.9811 20.8582 55.8775 20.8032 55.7649 20.7812C55.6522 20.7592 55.5355 20.771 55.4296 20.8153C55.3237 20.8595 55.2333 20.9342 55.1698 21.0299C55.1063 21.1255 55.0727 21.2378 55.073 21.3526C55.0724 21.4291 55.0871 21.5049 55.1161 21.5756C55.1452 21.6463 55.1882 21.7105 55.2424 21.7644C55.2966 21.8183 55.3611 21.8608 55.432 21.8895C55.5029 21.9181 55.5788 21.9323 55.6552 21.9312V21.9312Z" fill="#50E6FF"/>
<path d="M74.7603 23.9727H55.919C55.6707 23.9727 55.4695 24.1739 55.4695 24.4222V36.1348C55.4695 36.383 55.6707 36.5843 55.919 36.5843H74.7603C75.0086 36.5843 75.2098 36.383 75.2098 36.1348V24.4222C75.2098 24.1739 75.0086 23.9727 74.7603 23.9727Z" fill="#E8E8E8"/>
<path opacity="0.2" d="M54.3307 78.9019H76.3534C76.4691 78.9015 76.58 78.8554 76.6618 78.7736C76.7436 78.6918 76.7897 78.5809 76.7901 78.4652V61.2714H53.894V78.4652C53.8944 78.5809 53.9405 78.6918 54.0223 78.7736C54.1042 78.8554 54.215 78.9015 54.3307 78.9019V78.9019Z" fill="#003067"/>
<path d="M54.3307 78.0029H76.3534C76.4691 78.0025 76.58 77.9564 76.6618 77.8746C76.7436 77.7928 76.7897 77.6819 76.7901 77.5662V60.3724H53.894V77.5663C53.8944 77.682 53.9405 77.7928 54.0223 77.8746C54.1042 77.9564 54.215 78.0025 54.3307 78.0029V78.0029Z" fill="#F2F2F2"/>
<path d="M53.894 62.2755H76.7901V60.2232C76.7902 60.1792 76.7817 60.1356 76.7649 60.0949C76.7481 60.0542 76.7234 60.0173 76.6923 59.9862C76.6612 59.9551 76.6243 59.9304 76.5836 59.9136C76.5429 59.8968 76.4993 59.8883 76.4553 59.8884H54.2288C54.1848 59.8883 54.1413 59.8968 54.1006 59.9136C54.0599 59.9304 54.023 59.9551 53.9918 59.9862C53.9607 60.0173 53.9361 60.0542 53.9193 60.0949C53.9025 60.1356 53.8939 60.1792 53.894 60.2232V62.2755Z" fill="#092E4C"/>
<path d="M55.6552 61.7114C55.77 61.7111 55.8821 61.6767 55.9774 61.6126C56.0726 61.5485 56.1467 61.4576 56.1903 61.3514C56.2339 61.2453 56.2451 61.1285 56.2223 61.016C56.1996 60.9035 56.144 60.8002 56.0625 60.7193C55.9811 60.6384 55.8775 60.5834 55.7649 60.5614C55.6522 60.5394 55.5356 60.5512 55.4296 60.5955C55.3237 60.6397 55.2333 60.7144 55.1698 60.8101C55.1063 60.9057 55.0727 61.018 55.073 61.1328C55.0724 61.2093 55.0871 61.2851 55.1161 61.3558C55.1452 61.4265 55.1882 61.4907 55.2424 61.5446C55.2966 61.5985 55.3611 61.641 55.432 61.6697C55.5029 61.6983 55.5788 61.7125 55.6552 61.7114V61.7114Z" fill="#50E6FF"/>
<path d="M74.7603 63.7528H55.919C55.6707 63.7528 55.4695 63.9541 55.4695 64.2023V75.9149C55.4695 76.1632 55.6707 76.3644 55.919 76.3644H74.7603C75.0086 76.3644 75.2098 76.1632 75.2098 75.9149V64.2023C75.2098 63.9541 75.0086 63.7528 74.7603 63.7528Z" fill="#E8E8E8"/>
<path d="M39.2639 49.5051H40.9293C41.9031 49.5051 42.837 49.1183 43.5256 48.4297C44.2141 47.7411 44.601 46.8072 44.601 45.8334V33.2866C44.601 32.8045 44.696 32.327 44.8805 31.8816C45.065 31.4361 45.3355 31.0313 45.6764 30.6904C46.0174 30.3494 46.4221 30.079 46.8676 29.8945C47.3131 29.71 47.7905 29.615 48.2727 29.615H49.2196" stroke="white" stroke-miterlimit="10"/>
<path d="M39.2639 49.505H40.9293C41.4115 49.505 41.8889 49.6 42.3344 49.7845C42.7799 49.969 43.1846 50.2395 43.5256 50.5804C43.8665 50.9214 44.137 51.3261 44.3215 51.7716C44.506 52.2171 44.601 52.6945 44.601 53.1767V65.7235C44.601 66.6973 44.9878 67.6312 45.6764 68.3197C46.365 69.0083 47.2989 69.3952 48.2726 69.3952H49.2196" stroke="white" stroke-miterlimit="10"/>
<path d="M46.2432 49.5052H61.4554C61.9654 49.5052 62.4704 49.4048 62.9415 49.2096C63.4127 49.0144 63.8408 48.7284 64.2014 48.3678C64.5621 48.0072 64.8481 47.579 65.0433 47.1079C65.2384 46.6367 65.3389 46.1317 65.3389 45.6217V41.8109" stroke="white" stroke-miterlimit="10"/>
<path d="M46.2432 49.5052H61.4554C62.4853 49.5052 63.4731 49.9144 64.2014 50.6427C64.9297 51.371 65.3389 52.3588 65.3389 53.3887V57.1996" stroke="white" stroke-miterlimit="10"/>
<path fill-rule="evenodd" clip-rule="evenodd" d="M92.7296 49.6399C92.7296 58.1623 90.2024 66.4933 85.4676 73.5794C80.7328 80.6655 74.0031 86.1885 66.1294 89.4499C58.2557 92.7112 49.5918 93.5646 41.2331 91.9019C32.8745 90.2393 25.1966 86.1354 19.1703 80.1091C13.1441 74.0829 9.04017 66.405 7.37753 58.0463C5.7149 49.6877 6.56822 41.0237 9.8296 33.1501C13.091 25.2764 18.6139 18.5467 25.7001 13.8119C32.7862 9.07708 41.1172 6.5499 49.6396 6.5499C55.2983 6.54956 60.9017 7.66388 66.1298 9.82923C71.3579 11.9946 76.1082 15.1686 80.1096 19.1699C84.1109 23.1712 87.2849 27.9216 89.4502 33.1497C91.6156 38.3777 92.7299 43.9811 92.7296 49.6399V49.6399ZM49.6396 2.8099C58.9017 2.8099 67.9558 5.55643 75.6569 10.7022C83.3581 15.8479 89.3604 23.1618 92.9048 31.7188C96.4493 40.2759 97.3767 49.6918 95.5697 58.776C93.7628 67.8601 89.3027 76.2044 82.7534 82.7537C76.2041 89.303 67.8598 93.7631 58.7757 95.5701C49.6915 97.377 40.2756 96.4496 31.7185 92.9052C23.1614 89.3607 15.8476 83.3584 10.7018 75.6573C5.5561 67.9561 2.80957 58.902 2.80957 49.6399C2.81075 37.2202 7.74499 25.3095 16.5271 16.5274C25.3091 7.7453 37.2198 2.81105 49.6396 2.80986V2.8099Z" fill="#0078D4"/>
<path fill-rule="evenodd" clip-rule="evenodd" d="M19.0596 59.5621H16.4271C16.2526 59.5608 16.0856 59.4905 15.9627 59.3666C15.8397 59.2427 15.7708 59.0752 15.7708 58.9006C15.7708 58.7261 15.8397 58.5586 15.9627 58.4347C16.0856 58.3108 16.2526 58.2405 16.4271 58.2391H19.0596C19.2341 58.2405 19.4011 58.3108 19.524 58.4347C19.647 58.5586 19.7159 58.7261 19.7159 58.9006C19.7159 59.0752 19.647 59.2427 19.524 59.3666C19.4011 59.4905 19.2341 59.5608 19.0596 59.5621V59.5621Z" fill="#003067"/>
<path fill-rule="evenodd" clip-rule="evenodd" d="M23.6664 54.9317H16.4271C16.2526 54.9303 16.0856 54.86 15.9627 54.7361C15.8397 54.6122 15.7708 54.4447 15.7708 54.2702C15.7708 54.0956 15.8397 53.9281 15.9627 53.8042C16.0856 53.6803 16.2526 53.61 16.4271 53.6087H23.6664C23.8409 53.61 24.0079 53.6803 24.1308 53.8042C24.2538 53.9281 24.3228 54.0956 24.3228 54.2702C24.3228 54.4447 24.2538 54.6122 24.1308 54.7361C24.0079 54.86 23.8409 54.9303 23.6664 54.9317V54.9317Z" fill="#FFFFFE"/>
<path fill-rule="evenodd" clip-rule="evenodd" d="M33.5382 54.9317H26.299C26.1244 54.9303 25.9575 54.86 25.8345 54.7361C25.7116 54.6122 25.6426 54.4447 25.6426 54.2702C25.6426 54.0956 25.7116 53.9281 25.8345 53.8042C25.9575 53.6803 26.1244 53.61 26.299 53.6087H33.5382C33.7128 53.61 33.8797 53.6803 34.0026 53.8042C34.1256 53.9281 34.1946 54.0956 34.1946 54.2702C34.1946 54.4447 34.1256 54.6122 34.0026 54.7361C33.8797 54.86 33.7128 54.9303 33.5382 54.9317V54.9317Z" fill="#FFFFFE"/>
<path fill-rule="evenodd" clip-rule="evenodd" d="M38.1449 54.9317H36.1705C35.996 54.9303 35.829 54.86 35.7061 54.7361C35.5831 54.6122 35.5142 54.4447 35.5142 54.2702C35.5142 54.0956 35.5831 53.9281 35.7061 53.8042C35.829 53.6803 35.996 53.61 36.1705 53.6087H38.1449C38.3194 53.61 38.4863 53.6803 38.6093 53.8042C38.7322 53.9281 38.8012 54.0956 38.8012 54.2702C38.8012 54.4447 38.7322 54.6122 38.6093 54.7361C38.4863 54.86 38.3194 54.9303 38.1449 54.9317V54.9317Z" fill="#C3F1FF"/>
<path fill-rule="evenodd" clip-rule="evenodd" d="M28.9315 59.5621H21.8173C21.6427 59.5608 21.4758 59.4905 21.3528 59.3666C21.2299 59.2427 21.1609 59.0752 21.1609 58.9006C21.1609 58.7261 21.2299 58.5586 21.3528 58.4347C21.4758 58.3108 21.6427 58.2405 21.8173 58.2391H28.9315C29.106 58.2405 29.273 58.3108 29.3959 58.4347C29.5188 58.5586 29.5878 58.7261 29.5878 58.9006C29.5878 59.0752 29.5188 59.2427 29.3959 59.3666C29.273 59.4905 29.106 59.5608 28.9315 59.5621V59.5621Z" fill="#C3F1FF"/>
<path fill-rule="evenodd" clip-rule="evenodd" d="M28.9315 50.3012H26.299C26.1244 50.2999 25.9575 50.2296 25.8345 50.1057C25.7116 49.9818 25.6426 49.8143 25.6426 49.6397C25.6426 49.4652 25.7116 49.2977 25.8345 49.1738C25.9575 49.0499 26.1244 48.9796 26.299 48.9782H28.9315C29.106 48.9796 29.2729 49.0499 29.3959 49.1738C29.5188 49.2977 29.5878 49.4652 29.5878 49.6397C29.5878 49.8143 29.5188 49.9818 29.3959 50.1057C29.2729 50.2296 29.106 50.2999 28.9315 50.3012V50.3012Z" fill="#003067"/>
<path fill-rule="evenodd" clip-rule="evenodd" d="M36.5833 50.3012H31.2728C31.0983 50.2999 30.9313 50.2296 30.8084 50.1057C30.6854 49.9818 30.6165 49.8143 30.6165 49.6397C30.6165 49.4652 30.6854 49.2977 30.8084 49.1738C30.9313 49.0499 31.0983 48.9796 31.2728 48.9782H36.5833C36.7579 48.9796 36.9248 49.0499 37.0478 49.1738C37.1707 49.2977 37.2397 49.4652 37.2397 49.6397C37.2397 49.8143 37.1707 49.9818 37.0478 50.1057C36.9248 50.2296 36.7579 50.2999 36.5833 50.3012V50.3012Z" fill="#003067"/>
<path fill-rule="evenodd" clip-rule="evenodd" d="M23.6664 50.3012H16.4271C16.2526 50.2999 16.0856 50.2296 15.9627 50.1057C15.8397 49.9818 15.7708 49.8143 15.7708 49.6397C15.7708 49.4652 15.8397 49.2977 15.9627 49.1738C16.0856 49.0499 16.2526 48.9796 16.4271 48.9782H23.6664C23.8409 48.9796 24.0079 49.0499 24.1308 49.1738C24.2538 49.2977 24.3228 49.4652 24.3228 49.6397C24.3228 49.8143 24.2538 49.9818 24.1308 50.1057C24.0079 50.2296 23.8409 50.2999 23.6664 50.3012V50.3012Z" fill="#50E6FF"/>
<path fill-rule="evenodd" clip-rule="evenodd" d="M26.1343 45.6707H16.4271C16.2526 45.6694 16.0856 45.5991 15.9627 45.4752C15.8397 45.3513 15.7708 45.1838 15.7708 45.0092C15.7708 44.8347 15.8397 44.6672 15.9627 44.5433C16.0856 44.4194 16.2526 44.3491 16.4271 44.3477H26.1343C26.3088 44.3491 26.4758 44.4194 26.5987 44.5433C26.7217 44.6672 26.7906 44.8347 26.7906 45.0092C26.7906 45.1838 26.7217 45.3513 26.5987 45.4752C26.4758 45.5991 26.3088 45.6694 26.1343 45.6707V45.6707Z" fill="#FFFFFE"/>
<path fill-rule="evenodd" clip-rule="evenodd" d="M36.4996 45.6707H29.2604C29.0858 45.6694 28.9189 45.5991 28.7959 45.4752C28.673 45.3513 28.604 45.1838 28.604 45.0092C28.604 44.8347 28.673 44.6672 28.7959 44.5433C28.9189 44.4194 29.0858 44.3491 29.2604 44.3477H36.4996C36.6742 44.3491 36.8411 44.4194 36.9641 44.5433C37.087 44.6672 37.156 44.8347 37.156 45.0092C37.156 45.1838 37.087 45.3513 36.9641 45.4752C36.8411 45.5991 36.6742 45.6694 36.4996 45.6707V45.6707Z" fill="#FFFFFE"/>
<path fill-rule="evenodd" clip-rule="evenodd" d="M16.4273 41.0403C16.3408 41.0403 16.2551 41.0232 16.1752 40.9899C16.0954 40.9566 16.0229 40.9079 15.962 40.8464C15.8384 40.7221 15.769 40.554 15.769 40.3787C15.769 40.2035 15.8384 40.0353 15.962 39.911L17.4711 38.3942L15.962 36.8774C15.8384 36.7531 15.769 36.585 15.769 36.4097C15.769 36.2344 15.8384 36.0663 15.962 35.942C16.0229 35.8806 16.0954 35.8318 16.1753 35.7985C16.2551 35.7652 16.3408 35.7481 16.4273 35.7481C16.5138 35.7481 16.5995 35.7652 16.6793 35.7985C16.7592 35.8318 16.8317 35.8806 16.8926 35.942L18.8669 37.9265C18.9905 38.0508 19.0599 38.219 19.0599 38.3942C19.0599 38.5695 18.9905 38.7376 18.8669 38.8619L16.8925 40.8464C16.8317 40.9079 16.7592 40.9566 16.6793 40.9899C16.5995 41.0232 16.5138 41.0403 16.4273 41.0403Z" fill="#C3F1FF"/>
<path fill-rule="evenodd" clip-rule="evenodd" d="M23.0083 41.04H20.3759C20.2004 41.04 20.0322 40.9703 19.9081 40.8462C19.784 40.7222 19.7144 40.5539 19.7144 40.3785C19.7144 40.2031 19.784 40.0348 19.9081 39.9107C20.0322 39.7867 20.2004 39.717 20.3759 39.717H23.0083C23.1837 39.717 23.352 39.7867 23.476 39.9107C23.6001 40.0348 23.6698 40.2031 23.6698 40.3785C23.6698 40.5539 23.6001 40.7222 23.476 40.8462C23.352 40.9703 23.1837 41.04 23.0083 41.04V41.04Z" fill="#C3F1FF"/>
</g>
<defs>
<linearGradient id="paint0_linear_617_403" x1="47.8698" y1="-15.1532" x2="51.8525" y2="130.615" gradientUnits="userSpaceOnUse">
<stop stop-color="#00ABDE"/>
<stop offset="1" stop-color="#007ED8"/>
</linearGradient>
<clipPath id="clip0_617_403">
<rect width="99.2799" height="99.28" fill="white"/>
</clipPath>
</defs>
</svg>
