<svg width="100" height="100" viewBox="0 0 100 100" fill="none" xmlns="http://www.w3.org/2000/svg">
<g clip-path="url(#clip0_617_527)">
<path d="M49.6401 96.4499C40.382 96.4499 31.3317 93.7045 23.6339 88.561C15.936 83.4174 9.93624 76.1067 6.3933 67.5533C2.85036 58.9999 1.92337 49.588 3.72954 40.5077C5.53571 31.4275 9.99394 23.0867 16.5404 16.5402C23.0869 9.99372 31.4277 5.5355 40.5079 3.72933C49.5882 1.92315 59.0001 2.85015 67.5535 6.39308C76.1069 9.93602 83.4176 15.9358 88.5612 23.6336C93.7047 31.3315 96.4501 40.3817 96.4501 49.6399C96.4505 55.7872 95.24 61.8744 92.8878 67.5538C90.5355 73.2332 87.0875 78.3937 82.7407 82.7405C78.3939 87.0873 73.2335 90.5353 67.554 92.8876C61.8746 95.2398 55.7874 96.4503 49.6401 96.4499V96.4499Z" fill="url(#paint0_linear_617_527)"/>
<path fill-rule="evenodd" clip-rule="evenodd" d="M95.54 49.6399C95.54 58.718 92.848 67.5923 87.8045 75.1406C82.7609 82.6888 75.5923 88.5719 67.2052 92.046C58.818 95.52 49.5891 96.429 40.6854 94.6579C31.7816 92.8869 23.603 88.5153 17.1838 82.0961C10.7646 75.6769 6.39302 67.4983 4.62196 58.5945C2.85089 49.6908 3.75987 40.4618 7.23393 32.0747C10.708 23.6876 16.5911 16.519 24.1393 11.4754C31.6875 6.43187 40.5618 3.73988 49.64 3.73988C55.6677 3.73986 61.6363 4.92708 67.2052 7.23377C72.774 9.54045 77.834 12.9214 82.0963 17.1836C86.3585 21.4458 89.7394 26.5058 92.0461 32.0747C94.3528 37.6435 95.54 43.6122 95.54 49.6399V49.6399ZM49.64 -0.000106449C59.4579 -0.000106449 69.0552 2.91123 77.2185 8.36574C85.3818 13.8203 91.7442 21.573 95.5014 30.6435C99.2585 39.714 100.242 49.695 98.3262 59.3242C96.4108 68.9534 91.6831 77.7984 84.7408 84.7407C77.7985 91.683 68.9535 96.4107 59.3243 98.3261C49.6951 100.241 39.7141 99.2584 30.6436 95.5013C21.5731 91.7441 13.8204 85.3816 8.36584 77.2184C2.91133 69.0551 -1.61629e-06 59.4577 3.61524e-07 49.6399C-0.000786426 43.1208 1.28265 36.6655 3.77702 30.6425C6.27138 24.6196 9.92781 19.147 14.5375 14.5374C19.1471 9.9277 24.6197 6.27127 30.6427 3.77691C36.6656 1.28254 43.121 -0.000894549 49.64 -0.000106449V-0.000106449Z" fill="#F2F1F0"/>
<path fill-rule="evenodd" clip-rule="evenodd" d="M92.7296 49.64C92.7296 58.1624 90.2024 66.4934 85.4676 73.5795C80.7328 80.6656 74.0031 86.1886 66.1294 89.45C58.2557 92.7113 49.5918 93.5647 41.2331 91.902C32.8745 90.2394 25.1966 86.1355 19.1703 80.1092C13.1441 74.083 9.04017 66.4051 7.37753 58.0464C5.7149 49.6878 6.56822 41.0238 9.8296 33.1502C13.091 25.2765 18.6139 18.5468 25.7 13.812C32.7862 9.07718 41.1172 6.55 49.6396 6.55C55.2983 6.54965 60.9017 7.66397 66.1298 9.82933C71.3579 11.9947 76.1082 15.1687 80.1096 19.17C84.1109 23.1713 87.2849 27.9217 89.4502 33.1498C91.6156 38.3778 92.7299 43.9812 92.7296 49.64ZM49.6396 2.81C58.9017 2.81 67.9558 5.55653 75.6569 10.7023C83.3581 15.848 89.3604 23.1619 92.9049 31.7189C96.4493 40.276 97.3767 49.6919 95.5697 58.7761C93.7628 67.8602 89.3027 76.2045 82.7534 82.7538C76.2041 89.3031 67.8598 93.7632 58.7757 95.5702C49.6915 97.3771 40.2756 96.4497 31.7185 92.9053C23.1614 89.3608 15.8476 83.3585 10.7018 75.6574C5.5561 67.9562 2.80957 58.9021 2.80957 49.64C2.81076 37.2203 7.74501 25.3096 16.5271 16.5275C25.3091 7.74544 37.2198 2.81119 49.6396 2.81V2.81Z" fill="#0078D4"/>
<path fill-rule="evenodd" clip-rule="evenodd" d="M92.7296 49.6399C92.7296 58.1623 90.2024 66.4933 85.4676 73.5794C80.7328 80.6655 74.0031 86.1885 66.1294 89.4499C58.2557 92.7112 49.5918 93.5646 41.2331 91.9019C32.8745 90.2393 25.1966 86.1354 19.1703 80.1091C13.1441 74.0829 9.04017 66.405 7.37753 58.0463C5.7149 49.6877 6.56822 41.0237 9.8296 33.1501C13.091 25.2764 18.6139 18.5467 25.7001 13.8119C32.7862 9.07708 41.1172 6.5499 49.6396 6.5499C55.2983 6.54956 60.9017 7.66388 66.1298 9.82923C71.3579 11.9946 76.1082 15.1686 80.1096 19.1699C84.1109 23.1712 87.2849 27.9216 89.4502 33.1497C91.6156 38.3777 92.7299 43.9811 92.7296 49.6399V49.6399ZM49.6396 2.8099C58.9017 2.8099 67.9558 5.55643 75.6569 10.7022C83.3581 15.8479 89.3604 23.1618 92.9048 31.7188C96.4493 40.2759 97.3767 49.6918 95.5697 58.776C93.7628 67.8601 89.3027 76.2044 82.7534 82.7537C76.2041 89.303 67.8598 93.7631 58.7757 95.5701C49.6915 97.377 40.2756 96.4496 31.7185 92.9052C23.1614 89.3607 15.8476 83.3584 10.7018 75.6573C5.5561 67.9561 2.80957 58.902 2.80957 49.6399C2.81075 37.2202 7.74499 25.3095 16.5271 16.5274C25.3091 7.7453 37.2198 2.81105 49.6396 2.80986V2.8099Z" fill="#0078D4"/>
<path d="M43.3781 42.2471H30.7765C30.0625 42.2492 29.3783 42.5337 28.8734 43.0386C28.3685 43.5435 28.0839 44.2277 28.0818 44.9418V57.2196H71.197V48.9838C71.1949 48.2698 70.9104 47.5856 70.4055 47.0807C69.9006 46.5758 69.2164 46.2912 68.5023 46.2891H48.292L45.9131 43.4344C45.6034 43.0628 45.2158 42.7638 44.7777 42.5586C44.3397 42.3534 43.8618 42.2471 43.3781 42.2471Z" fill="url(#paint1_linear_617_527)"/>
<path fill-rule="evenodd" clip-rule="evenodd" d="M37.6989 24.1681C37.0128 24.1701 36.3553 24.4436 35.8701 24.9288C35.3849 25.414 35.1114 26.0715 35.1094 26.7577V63.0117C35.1114 63.6978 35.3849 64.3553 35.8701 64.8406C36.3553 65.3258 37.0128 65.5992 37.6989 65.6012H62.2998C62.9861 65.5993 63.6436 65.3259 64.1289 64.8407C64.6141 64.3554 64.8875 63.6979 64.8894 63.0117V34.5264L54.5311 24.1681H37.6989Z" fill="white"/>
<path fill-rule="evenodd" clip-rule="evenodd" d="M57.1208 34.5264H64.8895L54.5312 24.1681V31.9368C54.5333 32.623 54.8067 33.2805 55.2919 33.7657C55.7771 34.2509 56.4346 34.5244 57.1208 34.5264V34.5264Z" fill="#E8E8E8"/>
<path fill-rule="evenodd" clip-rule="evenodd" d="M58.4156 42.295H41.5834C41.2407 42.294 40.9122 42.1572 40.6702 41.9145C40.4282 41.6718 40.2922 41.343 40.2922 41.0002C40.2922 40.6574 40.4282 40.3286 40.6702 40.0859C40.9122 39.8432 41.2407 39.7064 41.5834 39.7054H58.4156C58.7584 39.7064 59.0868 39.8432 59.3289 40.0859C59.5709 40.3286 59.7068 40.6574 59.7068 41.0002C59.7068 41.343 59.5709 41.6718 59.3289 41.9145C59.0868 42.1572 58.7584 42.294 58.4156 42.295V42.295Z" fill="#0078D4"/>
<path fill-rule="evenodd" clip-rule="evenodd" d="M58.4156 48.1215H41.5834C41.2407 48.1206 40.9122 47.9838 40.6702 47.741C40.4282 47.4983 40.2922 47.1695 40.2922 46.8268C40.2922 46.484 40.4282 46.1552 40.6702 45.9125C40.9122 45.6698 41.2407 45.5329 41.5834 45.532H58.4156C58.7584 45.5329 59.0868 45.6698 59.3289 45.9125C59.5709 46.1552 59.7068 46.484 59.7068 46.8268C59.7068 47.1695 59.5709 47.4983 59.3289 47.741C59.0868 47.9838 58.7584 48.1206 58.4156 48.1215Z" fill="#50E6FF"/>
<path fill-rule="evenodd" clip-rule="evenodd" d="M58.4156 53.9481H41.5834C41.2407 53.9471 40.9122 53.8103 40.6702 53.5676C40.4282 53.3248 40.2922 52.9961 40.2922 52.6533C40.2922 52.3105 40.4282 51.9817 40.6702 51.739C40.9122 51.4963 41.2407 51.3594 41.5834 51.3585H58.4156C58.7584 51.3594 59.0868 51.4963 59.3289 51.739C59.5709 51.9817 59.7068 52.3105 59.7068 52.6533C59.7068 52.9961 59.5709 53.3248 59.3289 53.5676C59.0868 53.8103 58.7584 53.9471 58.4156 53.9481Z" fill="#9CEBFF"/>
<path fill-rule="evenodd" clip-rule="evenodd" d="M58.4156 59.7746H41.5834C41.2407 59.7736 40.9122 59.6368 40.6702 59.3941C40.4282 59.1514 40.2922 58.8226 40.2922 58.4798C40.2922 58.137 40.4282 57.8082 40.6702 57.5655C40.9122 57.3228 41.2407 57.186 41.5834 57.185H58.4156C58.7584 57.186 59.0868 57.3228 59.3289 57.5655C59.5709 57.8082 59.7068 58.137 59.7068 58.4798C59.7068 58.8226 59.5709 59.1514 59.3289 59.3941C59.0868 59.6368 58.7584 59.7736 58.4156 59.7746V59.7746Z" fill="#C3F1FF"/>
<path opacity="0.5" fill-rule="evenodd" clip-rule="evenodd" d="M64.8896 42.295L57.1208 34.5263H64.8896V42.295Z" fill="#F2F2F2"/>
<path d="M44.1914 28.6762V36.4819" stroke="#0078D4" stroke-width="1.43256" stroke-linecap="round" stroke-linejoin="round"/>
<path d="M40.2886 32.5789H48.0943" stroke="#0078D4" stroke-width="1.43256" stroke-linecap="round" stroke-linejoin="round"/>
<path opacity="0.3" d="M32.0864 49.2439C31.0243 49.2439 30.0058 49.6658 29.2548 50.4168C28.5037 51.1678 28.0818 52.1863 28.0818 53.2484V54.7609H35.1094V49.2439H32.0864Z" fill="#000C1A"/>
<path opacity="0.3" d="M71.197 53.2484C71.197 52.7226 71.0935 52.2018 70.8922 51.716C70.691 51.2301 70.3961 50.7887 70.0242 50.4168C69.6524 50.045 69.2109 49.75 68.7251 49.5487C68.2392 49.3475 67.7185 49.2439 67.1926 49.2439H64.8894V54.7609H71.197V53.2484Z" fill="#000C1A"/>
<path opacity="0.2" d="M64.8894 49.2439H35.1094V54.7609H64.8894V49.2439Z" fill="#767676"/>
<path d="M71.197 54.5897V72.5851C71.197 73.0245 71.1105 73.4596 70.9424 73.8655C70.7742 74.2714 70.5278 74.6403 70.2171 74.9509C69.9064 75.2616 69.5376 75.5081 69.1317 75.6762C68.7258 75.8444 68.2907 75.9309 67.8513 75.9309H31.4275C30.5402 75.9309 29.6892 75.5784 29.0617 74.951C28.4343 74.3235 28.0818 73.4725 28.0818 72.5852V54.5897C28.0818 54.1503 28.1683 53.7152 28.3365 53.3093C28.5046 52.9034 28.751 52.5346 29.0617 52.2239C29.3724 51.9132 29.7412 51.6668 30.1472 51.4986C30.5531 51.3305 30.9881 51.244 31.4275 51.244H67.8513C68.7387 51.244 69.5896 51.5964 70.2171 52.2239C70.8445 52.8513 71.197 53.7023 71.197 54.5897V54.5897Z" fill="url(#paint2_linear_617_527)"/>
<path d="M49.5786 55.1001C45.2469 55.1001 45.5174 56.9786 45.5174 56.9786L45.5222 58.9247H49.6559V59.509H43.8803C43.8803 59.509 41.1084 59.1947 41.1084 63.5655C41.1084 67.9363 43.5278 67.7813 43.5278 67.7813H44.9717V65.7531C44.9541 65.434 45.0034 65.1148 45.1163 64.8159C45.2292 64.517 45.4033 64.245 45.6274 64.0172C45.8515 63.7895 46.1207 63.611 46.4177 63.4933C46.7148 63.3756 47.0331 63.3213 47.3524 63.3337H51.4523C51.752 63.3475 52.0513 63.2999 52.3319 63.194C52.6125 63.088 52.8685 62.9258 53.0841 62.7173C53.2998 62.5089 53.4707 62.2586 53.5862 61.9817C53.7017 61.7049 53.7594 61.4074 53.7558 61.1075V57.3649C53.7558 57.3649 54.1055 55.1001 49.5786 55.1001ZM47.2993 56.4088C47.4464 56.4088 47.5902 56.4524 47.7125 56.5341C47.8348 56.6158 47.9301 56.732 47.9864 56.8679C48.0427 57.0037 48.0574 57.1533 48.0287 57.2975C48 57.4418 47.9292 57.5743 47.8252 57.6783C47.7211 57.7823 47.5886 57.8531 47.4444 57.8818C47.3001 57.9105 47.1506 57.8958 47.0147 57.8395C46.8788 57.7832 46.7627 57.6879 46.681 57.5656C46.5992 57.4433 46.5556 57.2995 46.5556 57.1524C46.5555 57.0548 46.5747 56.958 46.612 56.8677C46.6494 56.7775 46.7042 56.6955 46.7732 56.6264C46.8423 56.5573 46.9243 56.5025 47.0146 56.4652C47.1049 56.4278 47.2016 56.4087 47.2993 56.4088V56.4088ZM49.7017 72.0748C54.0334 72.0748 53.7629 70.1962 53.7629 70.1962L53.7581 68.2501H49.6244V67.6658H55.4001C55.4001 67.6658 58.172 67.9802 58.172 63.6093C58.172 59.2385 55.7526 59.3935 55.7526 59.3935H54.3087V61.4218C54.3262 61.7408 54.277 62.06 54.1641 62.3589C54.0512 62.6578 53.8771 62.9299 53.653 63.1576C53.4289 63.3853 53.1597 63.5638 52.8626 63.6815C52.5656 63.7992 52.2472 63.8536 51.9279 63.8411H47.828C47.5283 63.8273 47.229 63.8749 46.9484 63.9809C46.6678 64.0869 46.4118 64.2491 46.1962 64.4575C45.9805 64.666 45.8096 64.9163 45.6941 65.1931C45.5786 65.4699 45.5209 65.7674 45.5245 66.0674V69.8099C45.5245 69.8099 45.1748 72.0747 49.7017 72.0747V72.0748ZM51.981 70.7661C51.8339 70.7661 51.6901 70.7225 51.5678 70.6407C51.4455 70.559 51.3502 70.4429 51.2939 70.307C51.2376 70.1711 51.2229 70.0216 51.2516 69.8773C51.2803 69.7331 51.3511 69.6005 51.4551 69.4965C51.5591 69.3925 51.6917 69.3217 51.8359 69.293C51.9802 69.2643 52.1297 69.279 52.2656 69.3353C52.4015 69.3916 52.5176 69.4869 52.5993 69.6092C52.6811 69.7315 52.7247 69.8753 52.7247 70.0224C52.7248 70.1201 52.7056 70.2168 52.6682 70.3071C52.6309 70.3973 52.5761 70.4794 52.507 70.5484C52.438 70.6175 52.356 70.6723 52.2657 70.7096C52.1754 70.747 52.0787 70.7661 51.981 70.766V70.7661Z" fill="#C3F1FF"/>
</g>
<defs>
<linearGradient id="paint0_linear_617_527" x1="47.8698" y1="-15.1532" x2="51.8525" y2="130.615" gradientUnits="userSpaceOnUse">
<stop stop-color="#00ABDE"/>
<stop offset="1" stop-color="#007ED8"/>
</linearGradient>
<linearGradient id="paint1_linear_617_527" x1="49.6394" y1="42.2471" x2="49.6394" y2="57.2464" gradientUnits="userSpaceOnUse">
<stop stop-color="#005BA1"/>
<stop offset="0.26" stop-color="#00589D"/>
<stop offset="0.53" stop-color="#004F90"/>
<stop offset="0.8" stop-color="#003F7C"/>
<stop offset="1" stop-color="#003067"/>
</linearGradient>
<linearGradient id="paint2_linear_617_527" x1="49.6394" y1="51.244" x2="49.6394" y2="75.9309" gradientUnits="userSpaceOnUse">
<stop stop-color="#008BF1"/>
<stop offset="0.22" stop-color="#0086EC"/>
<stop offset="0.49" stop-color="#0078DD"/>
<stop offset="0.79" stop-color="#0061C4"/>
<stop offset="1" stop-color="#004DAE"/>
</linearGradient>
<clipPath id="clip0_617_527">
<rect width="99.2799" height="99.28" fill="white"/>
</clipPath>
</defs>
</svg>
