<svg width="103" height="103" viewBox="0 0 103 103" fill="none" xmlns="http://www.w3.org/2000/svg">
<path d="M51.8204 98.7377C25.9704 98.7377 5.01038 77.7877 5.01038 51.9277C5.01038 26.0677 25.9704 5.11768 51.8204 5.11768C77.6704 5.11768 98.6304 26.0777 98.6304 51.9277C98.6304 77.7777 77.6704 98.7377 51.8204 98.7377Z" fill="url(#paint0_linear)"/>
<path fill-rule="evenodd" clip-rule="evenodd" d="M97.7204 51.9277C97.7204 77.2777 77.1704 97.8277 51.8204 97.8277C26.4704 97.8277 5.92042 77.2777 5.92042 51.9277C5.92042 26.5777 26.4704 6.02766 51.8204 6.02766C77.1704 6.02766 97.7204 26.5777 97.7204 51.9277ZM51.8204 2.28766C79.2404 2.28766 101.46 24.5077 101.46 51.9277C101.46 79.3477 79.2304 101.568 51.8204 101.568C24.4004 101.568 2.18042 79.3377 2.18042 51.9277C2.18042 24.5077 24.4004 2.28766 51.8204 2.28766Z" fill="#F2F1F0"/>
<path fill-rule="evenodd" clip-rule="evenodd" d="M94.9105 51.9277C94.9105 75.7277 75.6205 95.0177 51.8205 95.0177C28.0205 95.0177 8.73048 75.7277 8.73048 51.9277C8.73048 28.1277 28.0205 8.83769 51.8205 8.83769C75.6205 8.83769 94.9105 28.1277 94.9105 51.9277ZM51.8205 5.09769C77.6805 5.09769 98.6505 26.0677 98.6505 51.9277C98.6505 77.7877 77.6805 98.7577 51.8205 98.7577C25.9605 98.7577 4.99048 77.7877 4.99048 51.9277C4.99048 26.0677 25.9505 5.09769 51.8205 5.09769Z" fill="url(#paint1_linear)"/>
<path fill-rule="evenodd" clip-rule="evenodd" d="M72.5804 77.6775C72.5804 83.0375 61.2704 87.3575 47.3204 87.3575C33.3704 87.3575 22.0604 83.0175 22.0604 77.6775C22.0604 72.3175 33.3704 67.9975 47.3204 67.9975C61.2904 67.9975 72.5804 72.3375 72.5804 77.6775Z" fill="black" fill-opacity="0.1028"/>
<path fill-rule="evenodd" clip-rule="evenodd" d="M72.5304 62.9875C72.5304 68.2175 61.2604 72.4375 47.3504 72.4375C33.4404 72.4375 22.1704 68.2175 22.1704 62.9875C22.1704 57.7575 33.4404 53.5375 47.3504 53.5375C61.2604 53.5375 72.5304 57.7575 72.5304 62.9875Z" fill="#185A97"/>
<path d="M72.5004 27.5875C72.5004 33.0175 61.2604 37.4075 47.3504 37.4075C33.4804 37.4075 22.2004 33.0175 22.2004 27.5875C22.2004 22.1575 33.4404 17.7675 47.3504 17.7675C61.2604 17.7975 72.5004 22.1875 72.5004 27.5875Z" fill="white"/>
<path fill-rule="evenodd" clip-rule="evenodd" d="M47.3504 72.3175C33.4604 72.3175 22.1904 68.1175 22.1904 62.9475V75.4475C22.1904 80.6175 33.4604 84.8175 47.3504 84.8175C61.2404 84.8175 72.5104 80.6175 72.5104 75.4475V62.9475C72.5104 68.1175 61.2404 72.3175 47.3504 72.3175Z" fill="#45CAF2"/>
<path fill-rule="evenodd" clip-rule="evenodd" d="M47.3504 76.4475V80.6175C47.3504 81.8175 46.3504 82.7475 45.1504 82.7175C32.2604 82.2975 22.1504 78.2875 22.1504 73.3875V75.4875C22.1504 80.6575 33.4204 84.8575 47.3104 84.8575C61.2004 84.8575 72.5004 80.6575 72.5004 75.4875V65.0475C72.5004 69.9875 62.2604 74.0275 49.3104 74.4175C48.2504 74.3775 47.3504 75.3175 47.3504 76.4475Z" fill="#185A97"/>
<path fill-rule="evenodd" clip-rule="evenodd" d="M47.3504 54.5775C33.4604 54.5775 22.1904 50.3775 22.1904 45.2075V57.7075C22.1904 62.8775 33.4604 67.0775 47.3504 67.0775C61.2404 67.0775 72.5104 62.8775 72.5104 57.7075V45.2075C72.5104 50.3775 61.2404 54.5775 47.3504 54.5775Z" fill="#C3F1FF"/>
<path fill-rule="evenodd" clip-rule="evenodd" d="M47.3504 58.7175V62.8875C47.3504 64.0875 46.3504 65.0175 45.1504 64.9875C32.2604 64.5675 22.1804 60.5575 22.1804 55.6575V57.7575C22.1804 62.9275 33.4204 67.1275 47.3104 67.1275C61.2004 67.1275 72.4704 62.9275 72.4704 57.7575V47.2775C72.4704 52.2175 62.2604 56.2575 49.3104 56.6475C48.2504 56.6775 47.3504 57.5875 47.3504 58.7175Z" fill="#32B0E7"/>
<path fill-rule="evenodd" clip-rule="evenodd" d="M72.3804 45.3075C72.3804 50.5075 61.1704 54.7075 47.3504 54.7075C33.5304 54.7075 22.3204 50.5075 22.3204 45.3075C22.3204 40.1075 33.5304 35.9075 47.3504 35.9075C61.1704 35.9075 72.3804 40.1075 72.3804 45.3075Z" fill="#BAC0C2"/>
<path d="M72.5504 45.2475C72.5504 50.4775 61.2704 54.7075 47.3604 54.7075C33.4504 54.7075 22.1704 50.4775 22.1704 45.2475C22.1704 40.0175 33.4504 35.7875 47.3604 35.7875C61.2704 35.7875 72.5504 40.0175 72.5504 45.2475Z" fill="#2195DC"/>
<path fill-rule="evenodd" clip-rule="evenodd" d="M47.3504 36.8475C33.4604 36.8475 22.1904 32.6475 22.1904 27.4775V39.9775C22.1904 45.1475 33.4604 49.3475 47.3504 49.3475C61.2404 49.3475 72.5104 45.1475 72.5104 39.9775V27.4775C72.5104 32.6475 61.2404 36.8475 47.3504 36.8475Z" fill="white"/>
<path fill-rule="evenodd" clip-rule="evenodd" d="M47.3504 40.9775V45.1475C47.3504 46.3475 46.3504 47.2775 45.1504 47.2475C32.2604 46.8275 22.1504 42.8175 22.1504 37.9175V40.0175C22.1504 45.1875 33.4204 49.3875 47.3104 49.3875C61.2004 49.3875 72.4704 45.1875 72.4704 40.0175V29.5775C72.4704 34.5175 62.2604 38.5575 49.3104 38.9475C48.2504 38.9475 47.3504 39.8875 47.3504 40.9775Z" fill="#50E6FF"/>
<path fill-rule="evenodd" clip-rule="evenodd" d="M71.3804 27.5475C71.3804 32.7475 60.6204 36.9475 47.3204 36.9475C34.0404 36.9475 23.2604 32.7475 23.2604 27.5475C23.2604 22.3475 34.0204 18.1475 47.3204 18.1475C60.6204 18.1775 71.3804 22.3775 71.3804 27.5475Z" fill="#C3F1FF"/>
<path d="M53.0504 78.9175H80.1704C80.9304 78.9175 81.5404 78.3075 81.5404 77.5475V43.3675C81.5404 42.6075 80.9304 41.9975 80.1704 41.9975H53.0504C52.2904 41.9975 51.6804 42.6075 51.6804 43.3675V77.5475C51.6804 78.3075 52.2904 78.9175 53.0504 78.9175Z" fill="white"/>
<path d="M76.6304 55.7875C76.6304 55.2575 76.2004 54.8275 75.6704 54.8275H57.2404C56.7104 54.8275 56.2804 55.2575 56.2804 55.7875C56.2804 56.3175 56.7104 56.7475 57.2404 56.7475H75.6704C76.2004 56.7475 76.6304 56.3175 76.6304 55.7875Z" fill="#9D9E9D"/>
<path d="M76.6304 60.9875C76.6304 60.4575 76.2004 60.0275 75.6704 60.0275H57.2404C56.7104 60.0275 56.2804 60.4575 56.2804 60.9875C56.2804 61.5175 56.7104 61.9475 57.2404 61.9475H75.6704C76.2004 61.9475 76.6304 61.5175 76.6304 60.9875Z" fill="#9D9E9D"/>
<path d="M75.6704 49.2875H57.2404C56.7104 49.2875 56.2804 49.7175 56.2804 50.2475C56.2804 50.7775 56.7104 51.2075 57.2404 51.2075H75.6704C76.2004 51.2075 76.6304 50.7775 76.6304 50.2475C76.6304 49.7175 76.2004 49.2875 75.6704 49.2875Z" fill="#9D9E9D"/>
<path d="M76.5604 82.9175C80.7204 82.9175 84.1004 79.5475 84.1004 75.3775C84.1004 71.2175 80.7304 67.8375 76.5604 67.8375C72.4004 67.8375 69.0204 71.2075 69.0204 75.3775C69.0404 79.5475 72.4104 82.9175 76.5604 82.9175Z" fill="#002D4C"/>
<path d="M80.6705 71.5575L74.4705 77.7875L72.6005 75.9275L71.3605 77.1775L74.4605 80.2875L81.9205 72.8075L80.6705 71.5575Z" fill="#FAF9F8"/>
<defs>
<linearGradient id="paint0_linear" x1="50.0505" y1="-12.8614" x2="54.0325" y2="132.909" gradientUnits="userSpaceOnUse">
<stop stop-color="#00ABDE"/>
<stop offset="1" stop-color="#007ED8"/>
</linearGradient>
<linearGradient id="paint1_linear" x1="3.25368" y1="-19.6973" x2="98.7817" y2="121.184" gradientUnits="userSpaceOnUse">
<stop stop-color="#007ED8"/>
<stop offset="0.7065" stop-color="#002D4C"/>
</linearGradient>
</defs>
</svg>
