<svg width="106" height="106" viewBox="0 0 106 106" fill="none" xmlns="http://www.w3.org/2000/svg">
<g filter="url(#filter0_d)">
<circle cx="53" cy="53" r="49" fill="#5197D5"/>
<circle cx="53" cy="53" r="50.75" stroke="#F2F1F0" stroke-width="3.5"/>
</g>
<circle cx="53" cy="53" r="48" stroke="#0078D4" stroke-width="4"/>
<g filter="url(#filter1_d)">
<path d="M89.4723 55.801C89.2233 47.7126 83.2367 40.9966 75.3277 39.9332C74.8406 28.5438 65.4199 19.6661 54.1858 20.0096C45.2898 19.9151 37.2919 25.4923 34.1934 33.951C24.5488 35.088 17.2096 43.2679 17 53.1141C17.5646 64.0544 26.5939 72.562 37.3922 72.3279H72.3788H73.2785C82.2043 72.1906 89.3919 64.8552 89.4723 55.801Z" fill="url(#paint0_linear)"/>
</g>
<path d="M55.5807 42.0352H38.3648C37.611 42.0352 37 42.6363 37 43.378V79.6571C37 80.3987 37.611 80.9999 38.3648 80.9999H68.0078C68.7616 80.9999 69.3726 80.3987 69.3726 79.6571V55.6516C69.3726 54.91 68.7616 54.3088 68.0078 54.3088H58.1667C57.4261 54.3088 56.8258 53.7182 56.8258 52.9896V43.378C56.8404 42.6756 56.2929 42.0852 55.5807 42.0352Z" fill="url(#paint1_linear)"/>
<path d="M69.5575 55.1453L56.2038 42V52.6509C56.2038 54.0285 57.3319 55.1453 58.7234 55.1453H69.5575Z" fill="#92C4FC"/>
<rect x="42.7896" y="55.2681" width="9.25159" height="1.82926" rx="0.914628" fill="#92C4FC"/>
<rect x="42.7896" y="51" width="9.25159" height="1.82926" rx="0.914628" fill="#92C4FC"/>
<rect x="42.7896" y="59.5366" width="5.55095" height="1.82926" rx="0.914628" fill="#92C4FC"/>
<rect x="43.4064" y="70.5122" width="4.31741" height="5.48777" fill="#0078D4"/>
<rect x="50.8076" y="65.6343" width="4.31741" height="10.3658" fill="#0266AB"/>
<rect x="58.2089" y="59.5366" width="4.31741" height="16.4633" fill="#114D7C"/>
<circle r="7.5" transform="matrix(-1 0 0 1 65.5 78.5)" fill="#ECF6FC"/>
<path d="M63.148 82.5196C63.1203 82.5284 63.0959 82.5353 63.0653 82.5174C62.8324 82.3823 62.5982 82.2497 62.364 82.1168C62.3488 82.1081 62.3369 82.0996 62.3397 82.0799C62.5823 81.9582 62.8181 81.8242 63.0511 81.6849C63.0589 81.6829 63.0677 81.6826 63.0745 81.6788C64.1613 81.0732 65.2483 80.467 66.3358 79.8624C66.3754 79.8404 66.3874 79.8145 66.385 79.7713C66.3759 79.6102 66.4062 79.4552 66.4778 79.3117C66.5068 79.2533 66.4942 79.2185 66.4549 79.1758C66.2496 78.9537 66.03 78.7485 65.7811 78.5768C65.4323 78.3363 65.057 78.1563 64.6423 78.0648C64.5946 78.0543 64.5679 78.0621 64.5372 78.1059C64.291 78.4586 63.9557 78.6227 63.5273 78.5756C62.9539 78.5126 62.5403 77.9811 62.6079 77.3981C62.6995 76.6094 63.5688 76.1891 64.2251 76.6182C64.2704 76.6479 64.2994 76.6504 64.346 76.6241C65.1475 76.1728 65.9507 75.7245 66.7522 75.2729C66.8858 75.1976 67.027 75.1349 67.1487 75.039C67.1639 75.0345 67.1808 75.0329 67.1944 75.0254C67.3587 74.9338 67.5232 74.8428 67.6858 74.7483C67.7407 74.7165 67.8067 74.701 67.8467 74.6451C67.8827 74.64 67.9148 74.6323 67.9528 74.6553C68.1681 74.7854 68.3864 74.9105 68.6031 75.0385C68.6247 75.0513 68.6563 75.057 68.6576 75.0923C68.5201 75.1492 68.3957 75.2309 68.2671 75.3044C68.1625 75.3641 68.0482 75.4081 67.9578 75.4921C67.9288 75.4891 67.9064 75.5054 67.883 75.5185C66.938 76.0505 65.9929 76.5825 65.0479 77.1146C64.9315 77.1801 64.816 77.2468 64.6991 77.3136C64.7175 77.3399 64.7337 77.3415 64.7498 77.3438C65.0758 77.3892 65.3841 77.4924 65.6805 77.6343C66.2092 77.8876 66.6654 78.2398 67.0618 78.6726C67.0976 78.7116 67.13 78.7314 67.1871 78.7188C67.5992 78.6283 67.9487 78.7411 68.2347 79.0551C68.6065 79.4634 68.57 80.1734 68.1578 80.5395C67.7488 80.9029 67.1988 80.9223 66.7714 80.5829C66.7141 80.5374 66.6763 80.5377 66.6162 80.5715C65.8004 81.03 64.983 81.4854 64.1668 81.9433C64.0615 82.0023 63.9497 82.0512 63.8551 82.1288C63.611 82.244 63.379 82.3806 63.148 82.5196Z" fill="#50E7FE"/>
<path d="M63.051 81.6847C62.8179 81.8239 62.5821 81.958 62.3395 82.0797C61.8764 81.8233 61.4174 81.5588 60.9479 81.3152C60.7895 81.2331 60.741 81.1404 60.7418 80.9622C60.7498 79.327 60.7468 77.6917 60.7451 76.0563C60.7451 75.991 60.7634 75.9549 60.8212 75.9233C62.3606 75.0778 63.8989 74.2305 65.4372 73.383C65.4739 73.3629 65.5029 73.3519 65.5472 73.3763C66.3129 73.8007 67.08 74.2226 67.8467 74.645C67.8067 74.701 67.7407 74.7164 67.6858 74.7482C67.5232 74.8427 67.3587 74.9336 67.1944 75.0253C67.1808 75.0328 67.1641 75.0345 67.1487 75.0389C66.6208 74.7431 66.0925 74.4483 65.5657 74.1503C65.5141 74.1211 65.4779 74.1229 65.4275 74.1517C65.1204 74.3276 64.8111 74.4995 64.5024 74.6726C63.5247 75.2207 62.5467 75.7687 61.5687 76.3163C61.5308 76.3375 61.5096 76.3591 61.5096 76.4098C61.5114 77.8588 61.5112 79.308 61.5097 80.757C61.5097 80.8023 61.5247 80.8251 61.5623 80.8456C61.7142 80.9283 61.8647 81.0132 62.0153 81.0982C62.3608 81.2934 62.7058 81.4891 63.051 81.6847Z" fill="#0279D4"/>
<path d="M63.148 82.5192C63.3789 82.3803 63.611 82.2436 63.8551 82.1288C64.3757 82.4211 64.897 82.7125 65.4161 83.0074C65.4745 83.0407 65.5166 83.0432 65.5763 83.0096C66.8546 82.2897 68.1341 81.5717 69.4145 80.8557C69.4674 80.8261 69.4835 80.795 69.4835 80.7359C69.4817 79.3028 69.4817 77.8697 69.4836 76.4368C69.4838 76.3713 69.4651 76.3366 69.4072 76.3046C68.9228 76.036 68.4406 75.7634 67.9577 75.4921C68.048 75.4082 68.1625 75.3643 68.267 75.3044C68.3957 75.2309 68.5201 75.1492 68.6574 75.0923C69.1689 75.3735 69.68 75.6556 70.1928 75.9343C70.2447 75.9625 70.2472 75.9988 70.2472 76.0467C70.2465 76.9724 70.2467 77.8979 70.2467 78.8236C70.2467 79.5883 70.2457 80.3527 70.2485 81.1173C70.2488 81.1824 70.2264 81.2128 70.173 81.2421C68.636 82.087 67.1 82.9334 65.5635 83.7789C65.5302 83.7973 65.5018 83.8198 65.4539 83.7932C64.6865 83.3668 63.9171 82.9434 63.148 82.5192Z" fill="#0279D4"/>
<defs>
<filter id="filter0_d" x="0.5" y="0.5" width="105.5" height="105.5" filterUnits="userSpaceOnUse" color-interpolation-filters="sRGB">
<feFlood flood-opacity="0" result="BackgroundImageFix"/>
<feColorMatrix in="SourceAlpha" type="matrix" values="0 0 0 0 0 0 0 0 0 0 0 0 0 0 0 0 0 0 127 0"/>
<feOffset dx="0.5" dy="0.5"/>
<feColorMatrix type="matrix" values="0 0 0 0 0.823529 0 0 0 0 0.831373 0 0 0 0 0.835294 0 0 0 1 0"/>
<feBlend mode="normal" in2="BackgroundImageFix" result="effect1_dropShadow"/>
<feBlend mode="normal" in="SourceGraphic" in2="effect1_dropShadow" result="shape"/>
</filter>
<filter id="filter1_d" x="13" y="18" width="80.4723" height="60.3326" filterUnits="userSpaceOnUse" color-interpolation-filters="sRGB">
<feFlood flood-opacity="0" result="BackgroundImageFix"/>
<feColorMatrix in="SourceAlpha" type="matrix" values="0 0 0 0 0 0 0 0 0 0 0 0 0 0 0 0 0 0 127 0"/>
<feOffset dy="2"/>
<feGaussianBlur stdDeviation="2"/>
<feColorMatrix type="matrix" values="0 0 0 0 0 0 0 0 0 0 0 0 0 0 0 0 0 0 0.1 0"/>
<feBlend mode="normal" in2="BackgroundImageFix" result="effect1_dropShadow"/>
<feBlend mode="normal" in="SourceGraphic" in2="effect1_dropShadow" result="shape"/>
</filter>
<linearGradient id="paint0_linear" x1="16.0345" y1="14.7987" x2="16.0345" y2="68.5256" gradientUnits="userSpaceOnUse">
<stop stop-color="#1E9FE0"/>
<stop offset="1" stop-color="#50E6FF"/>
</linearGradient>
<linearGradient id="paint1_linear" x1="69.3726" y1="80.9999" x2="69.3726" y2="42.0352" gradientUnits="userSpaceOnUse">
<stop stop-color="#D2EBFF"/>
<stop offset="1" stop-color="#F0FFFD"/>
</linearGradient>
</defs>
</svg>
