<?xml version="1.0" encoding="UTF-8"?>
<svg width="101px" height="101px" viewBox="0 0 101 101" version="1.1" xmlns="http://www.w3.org/2000/svg" xmlns:xlink="http://www.w3.org/1999/xlink">
    <!-- Generator: Sketch 64 (93537) - https://sketch.com -->
    <title>Data engineering with Azure Databricks/read-and-write-data-in-azure-databricks</title>
    <desc>Created with Sketch.</desc>
    <defs>
        <rect id="path-1" x="0" y="0" width="94.3396226" height="94.3396226" rx="47.1698113"></rect>
        <filter x="-2.9%" y="-2.9%" width="106.4%" height="106.4%" filterUnits="objectBoundingBox" id="filter-3">
            <feMorphology radius="2.5" operator="dilate" in="SourceAlpha" result="shadowSpreadOuter1"></feMorphology>
            <feOffset dx="0.5" dy="0.5" in="shadowSpreadOuter1" result="shadowOffsetOuter1"></feOffset>
            <feMorphology radius="1" operator="erode" in="SourceAlpha" result="shadowInner"></feMorphology>
            <feOffset dx="0.5" dy="0.5" in="shadowInner" result="shadowInner"></feOffset>
            <feComposite in="shadowOffsetOuter1" in2="shadowInner" operator="out" result="shadowOffsetOuter1"></feComposite>
            <feColorMatrix values="0 0 0 0 0.821822822   0 0 0 0 0.831640661   0 0 0 0 0.835737288  0 0 0 1 0" type="matrix" in="shadowOffsetOuter1"></feColorMatrix>
        </filter>
        <linearGradient x1="77.8299825%" y1="11.1997378%" x2="-99.6885927%" y2="253.807911%" id="linearGradient-4">
            <stop stop-color="#FFFFFF" offset="0%"></stop>
            <stop stop-color="#000000" stop-opacity="0.5" offset="100%"></stop>
        </linearGradient>
        <rect id="path-5" x="0" y="0" width="94.3396226" height="94.3396226"></rect>
        <path d="M47.1698113,0 C73.2209788,0 94.3396226,21.1186439 94.3396226,47.1698113 C94.3396226,73.2209788 73.2209788,94.3396226 47.1698113,94.3396226 C21.1186439,94.3396226 0,73.2209788 0,47.1698113 C0,21.1186439 21.1186439,0 47.1698113,0 Z M47.1698113,3.77358491 C23.2027373,3.77358491 3.77358491,23.2027373 3.77358491,47.1698113 C3.77358491,71.1368854 23.2027373,90.5660377 47.1698113,90.5660377 C71.1368854,90.5660377 90.5660377,71.1368854 90.5660377,47.1698113 C90.5660377,23.2027373 71.1368854,3.77358491 47.1698113,3.77358491 Z" id="path-6"></path>
        <linearGradient x1="50%" y1="0%" x2="50%" y2="100%" id="linearGradient-8">
            <stop stop-color="#FB9449" offset="0%"></stop>
            <stop stop-color="#F65B23" offset="100%"></stop>
        </linearGradient>
    </defs>
    <g id="Badges" stroke="none" stroke-width="1" fill="none" fill-rule="evenodd">
        <g id="Data-engineering-with-Azure-Databricks-2" transform="translate(-160.000000, -700.000000)">
            <g id="Data-engineering-with-Azure-Databricks/read-and-write-data-in-azure-databricks" transform="translate(160.000000, 700.000000)">
                <g id="Badge-Plates/Circle">
                    <g id="BG" transform="translate(2.830189, 2.830189)">
                        <mask id="mask-2" fill="white">
                            <use xlink:href="#path-1"></use>
                        </mask>
                        <g>
                            <use fill="black" fill-opacity="1" filter="url(#filter-3)" xlink:href="#path-1"></use>
                            <rect stroke="#F2F1F0" stroke-width="2.5" x="-1.25" y="-1.25" width="96.8396226" height="96.8396226" rx="48.4198113"></rect>
                        </g>
                        <g id="Colors/Azure/BG-Solid-Badges" mask="url(#mask-2)">
                            <g id="Rectangle">
                                <use fill="#0078D4" xlink:href="#path-5"></use>
                                <use fill-opacity="0.4" fill="url(#linearGradient-4)" xlink:href="#path-5"></use>
                            </g>
                        </g>
                    </g>
                    <g id="Border" transform="translate(2.830189, 2.830189)">
                        <mask id="mask-7" fill="white">
                            <use xlink:href="#path-6"></use>
                        </mask>
                        <use id="Boarder" fill="#0078D4" fill-rule="nonzero" xlink:href="#path-6"></use>
                        <g id="Colors/Azure/Border" mask="url(#mask-7)" fill="#27C0F5">
                            <rect id="Rectangle" x="0" y="0" width="94.3396226" height="94.3396226"></rect>
                        </g>
                    </g>
                </g>
                <path d="M38.1609325,62.5294251 C37.9074229,62.5294251 37.7096544,62.4258725 37.5676211,62.2187641 C37.4255878,62.0116558 37.3545722,61.7123152 37.3545722,61.3207334 C37.3545722,60.8906724 37.4287,60.5653021 37.5769579,60.3446129 C37.7252158,60.1239237 37.9391113,60.0135808 38.218651,60.0135808 C38.7539637,60.0135808 39.0216161,60.4294888 39.0216161,61.2613173 C39.0216161,61.6732705 38.9460736,61.9876064 38.7949864,62.2043345 C38.6438992,62.4210626 38.43255,62.5294251 38.1609325,62.5294251 Z M38.1999774,60.3276369 C37.9045934,60.3276369 37.7569036,60.6530072 37.7569036,61.3037574 C37.7569036,61.9126332 37.9017641,62.2170665 38.1914894,62.2170665 C38.4766877,62.2170665 38.6192847,61.9075404 38.6192847,61.2884789 C38.6192847,60.6479144 38.479517,60.3276369 38.1999774,60.3276369 Z M41.152105,60 L41.152105,62.4886827 L40.7582617,62.4886827 L40.7582617,60.4821186 C40.6869621,60.5330469 40.6102879,60.5763353 40.5282368,60.6119851 C40.4461856,60.6476349 40.3525356,60.6790402 40.2472838,60.7062019 L40.2472838,60.370077 C40.3129247,60.3485739 40.3763012,60.3259395 40.4374151,60.3021729 C40.4985291,60.2784064 40.5587933,60.2518109 40.6182096,60.2223857 C40.6776259,60.1929605 40.7376072,60.1601405 40.7981553,60.1239249 C40.8587033,60.0877092 40.921231,60.0464013 40.9857402,60 L41.152105,60 Z M43.401426,62.5294251 C43.1479163,62.5294251 42.9501478,62.4258725 42.8081145,62.2187641 C42.6660812,62.0116558 42.5950656,61.7123152 42.5950656,61.3207334 C42.5950656,60.8906724 42.6691935,60.5653021 42.8174513,60.3446129 C42.9657092,60.1239237 43.1796048,60.0135808 43.4591444,60.0135808 C43.9944572,60.0135808 44.2621096,60.4294888 44.2621096,61.2613173 C44.2621096,61.6732705 44.1865671,61.9876064 44.0354799,62.2043345 C43.8843926,62.4210626 43.6730435,62.5294251 43.401426,62.5294251 Z M43.4404708,60.3276369 C43.1450868,60.3276369 42.997397,60.6530072 42.997397,61.3037574 C42.997397,61.9126332 43.1422575,62.2170665 43.4319828,62.2170665 C43.7171811,62.2170665 43.8597782,61.9075404 43.8597782,61.2884789 C43.8597782,60.6479144 43.7200105,60.3276369 43.4404708,60.3276369 Z M46.3925985,60 L46.3925985,62.4886827 L45.9987551,62.4886827 L45.9987551,60.4821186 C45.9274555,60.5330469 45.8507813,60.5763353 45.7687302,60.6119851 C45.6866791,60.6476349 45.593029,60.6790402 45.4877773,60.7062019 L45.4877773,60.370077 C45.5534182,60.3485739 45.6167946,60.3259395 45.6779086,60.3021729 C45.7390225,60.2784064 45.7992867,60.2518109 45.858703,60.2223857 C45.9181194,60.1929605 45.9781006,60.1601405 46.0386487,60.1239249 C46.0991968,60.0877092 46.1617244,60.0464013 46.2262336,60 L46.3925985,60 Z M48.6419194,62.5294251 C48.3884098,62.5294251 48.1906413,62.4258725 48.048608,62.2187641 C47.9065747,62.0116558 47.8355591,61.7123152 47.8355591,61.3207334 C47.8355591,60.8906724 47.9096869,60.5653021 48.0579448,60.3446129 C48.2062026,60.1239237 48.4200982,60.0135808 48.6996378,60.0135808 C49.2349506,60.0135808 49.502603,60.4294888 49.502603,61.2613173 C49.502603,61.6732705 49.4270605,61.9876064 49.2759733,62.2043345 C49.1248861,62.4210626 48.9135369,62.5294251 48.6419194,62.5294251 Z M48.6809642,60.3276369 C48.3855802,60.3276369 48.2378904,60.6530072 48.2378904,61.3037574 C48.2378904,61.9126332 48.3827509,62.2170665 48.6724762,62.2170665 C48.9576746,62.2170665 49.1002716,61.9075404 49.1002716,61.2884789 C49.1002716,60.6479144 48.9605039,60.3276369 48.6809642,60.3276369 Z M51.6330919,60 L51.6330919,62.4886827 L51.2392485,62.4886827 L51.2392485,60.4821186 C51.1679489,60.5330469 51.0912747,60.5763353 51.0092236,60.6119851 C50.9271725,60.6476349 50.8335225,60.6790402 50.7282707,60.7062019 L50.7282707,60.370077 C50.7939116,60.3485739 50.8572881,60.3259395 50.918402,60.3021729 C50.9795159,60.2784064 51.0397801,60.2518109 51.0991965,60.2223857 C51.1586128,60.1929605 51.2185941,60.1601405 51.2791421,60.1239249 C51.3396902,60.0877092 51.4022179,60.0464013 51.466727,60 L51.6330919,60 Z M53.8824129,62.5294251 C53.6289032,62.5294251 53.4311347,62.4258725 53.2891014,62.2187641 C53.1470681,62.0116558 53.0760525,61.7123152 53.0760525,61.3207334 C53.0760525,60.8906724 53.1501803,60.5653021 53.2984382,60.3446129 C53.4466961,60.1239237 53.6605916,60.0135808 53.9401313,60.0135808 C54.4754441,60.0135808 54.7430964,60.4294888 54.7430964,61.2613173 C54.7430964,61.6732705 54.6675539,61.9876064 54.5164667,62.2043345 C54.3653795,62.4210626 54.1540303,62.5294251 53.8824129,62.5294251 Z M53.9214577,60.3276369 C53.6260737,60.3276369 53.4783839,60.6530072 53.4783839,61.3037574 C53.4783839,61.9126332 53.6232444,62.2170665 53.9129697,62.2170665 C54.198168,62.2170665 54.3407651,61.9075404 54.3407651,61.2884789 C54.3407651,60.6479144 54.2009973,60.3276369 53.9214577,60.3276369 Z M56.8735853,60 L56.8735853,62.4886827 L56.479742,62.4886827 L56.479742,60.4821186 C56.4084424,60.5330469 56.3317682,60.5763353 56.2497171,60.6119851 C56.167666,60.6476349 56.0740159,60.6790402 55.9687641,60.7062019 L55.9687641,60.370077 C56.034405,60.3485739 56.0977815,60.3259395 56.1588954,60.3021729 C56.2200094,60.2784064 56.2802736,60.2518109 56.3396899,60.2223857 C56.3991062,60.1929605 56.4590875,60.1601405 56.5196356,60.1239249 C56.5801836,60.0877092 56.6427113,60.0464013 56.7072205,60 L56.8735853,60 Z M59.1229063,62.5294251 C58.8693967,62.5294251 58.6716281,62.4258725 58.5295948,62.2187641 C58.3875615,62.0116558 58.3165459,61.7123152 58.3165459,61.3207334 C58.3165459,60.8906724 58.3906738,60.5653021 58.5389316,60.3446129 C58.6871895,60.1239237 58.9010851,60.0135808 59.1806247,60.0135808 C59.7159375,60.0135808 59.9835899,60.4294888 59.9835899,61.2613173 C59.9835899,61.6732705 59.9080474,61.9876064 59.7569602,62.2043345 C59.6058729,62.4210626 59.3945238,62.5294251 59.1229063,62.5294251 Z M59.1619511,60.3276369 C58.8665671,60.3276369 58.7188773,60.6530072 58.7188773,61.3037574 C58.7188773,61.9126332 58.8637378,62.2170665 59.1534631,62.2170665 C59.4386615,62.2170665 59.5812585,61.9075404 59.5812585,61.2884789 C59.5812585,60.6479144 59.4414908,60.3276369 59.1619511,60.3276369 Z M62.1140788,60 L62.1140788,62.4886827 L61.7202354,62.4886827 L61.7202354,60.4821186 C61.6489358,60.5330469 61.5722616,60.5763353 61.4902105,60.6119851 C61.4081594,60.6476349 61.3145094,60.6790402 61.2092576,60.7062019 L61.2092576,60.370077 C61.2748985,60.3485739 61.3382749,60.3259395 61.3993889,60.3021729 C61.4605028,60.2784064 61.520767,60.2518109 61.5801833,60.2223857 C61.6395997,60.1929605 61.699581,60.1601405 61.760129,60.1239249 C61.8206771,60.0877092 61.8832047,60.0464013 61.9477139,60 L62.1140788,60 Z M35.9116116,64.7804436 L35.9116116,67.2691263 L35.5177682,67.2691263 L35.5177682,65.2625622 C35.4464686,65.3134905 35.3697944,65.3567789 35.2877433,65.3924287 C35.2056922,65.4280785 35.1120422,65.4594838 35.0067904,65.4866455 L35.0067904,65.1505206 C35.0724313,65.1290175 35.1358078,65.1063831 35.1969217,65.0826166 C35.2580356,65.05885 35.3182998,65.0322546 35.3777162,65.0028293 C35.4371325,64.9734041 35.4971138,64.9405842 35.5576618,64.9043685 C35.6182099,64.8681528 35.6807376,64.826845 35.7452467,64.7804436 L35.9116116,64.7804436 Z M38.2661838,67.2691263 L37.8723404,67.2691263 L37.8723404,65.2625622 C37.8010408,65.3134905 37.7243666,65.3567789 37.6423155,65.3924287 C37.5602644,65.4280785 37.4666144,65.4594838 37.3613626,65.4866455 L37.3613626,65.1505206 C37.4270035,65.1290175 37.49038,65.1063831 37.5514939,65.0826166 C37.6126078,65.05885 37.672872,65.0322546 37.7322884,65.0028293 C37.7917047,64.9734041 37.851686,64.9405842 37.912234,64.9043685 C37.9727821,64.8681528 38.0353098,64.826845 38.0998189,64.7804436 L38.2661838,67.2691263 Z M40.5155048,67.3098687 C40.2619951,67.3098687 40.0642266,67.2063161 39.9221933,66.9992078 C39.78016,66.7920995 39.7091444,66.4927589 39.7091444,66.101177 C39.7091444,65.671116 39.7832722,65.3457458 39.9315301,65.1250566 C40.079788,64.9043674 40.2936835,64.7940244 40.5732232,64.7940244 C41.1085359,64.7940244 41.3761883,65.2099325 41.3761883,66.041761 C41.3761883,66.4537141 41.3006458,66.7680501 41.1495586,66.9847782 C40.9984714,67.2015063 40.7871222,67.3098687 40.5155048,67.3098687 Z M40.5545496,65.1080806 C40.2591656,65.1080806 40.1114758,65.4334508 40.1114758,66.084201 C40.1114758,66.6930768 40.2563363,66.9975102 40.5460616,66.9975102 C40.8312599,66.9975102 40.9738569,66.6879841 40.9738569,66.0689226 C40.9738569,65.428358 40.8340892,65.1080806 40.5545496,65.1080806 Z M43.5066772,64.7804436 L43.5066772,67.2691263 L43.1128339,67.2691263 L43.1128339,65.2625622 C43.0415343,65.3134905 42.9648601,65.3567789 42.882809,65.3924287 C42.8007579,65.4280785 42.7071078,65.4594838 42.601856,65.4866455 L42.601856,65.1505206 C42.6674969,65.1290175 42.7308734,65.1063831 42.7919873,65.0826166 C42.8531013,65.05885 42.9133655,65.0322546 42.9727818,65.0028293 C43.0321981,64.9734041 43.0921794,64.9405842 43.1527275,64.9043685 C43.2132755,64.8681528 43.2758032,64.826845 43.3403124,64.7804436 L43.5066772,64.7804436 Z M45.7559982,67.3098687 C45.5024885,67.3098687 45.30472,67.2063161 45.1626867,66.9992078 C45.0206534,66.7920995 44.9496378,66.4927589 44.9496378,66.101177 C44.9496378,65.671116 45.0237657,65.3457458 45.1720235,65.1250566 C45.3202814,64.9043674 45.534177,64.7940244 45.8137166,64.7940244 C46.3490294,64.7940244 46.6166818,65.2099325 46.6166818,66.041761 C46.6166818,66.4537141 46.5411393,66.7680501 46.3900521,66.9847782 C46.2389648,67.2015063 46.0276157,67.3098687 45.7559982,67.3098687 Z M45.795043,65.1080806 C45.499659,65.1080806 45.3519692,65.4334508 45.3519692,66.084201 C45.3519692,66.6930768 45.4968297,66.9975102 45.786555,66.9975102 C46.0717533,66.9975102 46.2143504,66.6879841 46.2143504,66.0689226 C46.2143504,65.428358 46.0745827,65.1080806 45.795043,65.1080806 Z M48.7471707,64.7804436 L48.7471707,67.2691263 L48.3533273,67.2691263 L48.3533273,65.2625622 C48.2820277,65.3134905 48.2053535,65.3567789 48.1233024,65.3924287 C48.0412513,65.4280785 47.9476013,65.4594838 47.8423495,65.4866455 L47.8423495,65.1505206 C47.9079904,65.1290175 47.9713668,65.1063831 48.0324808,65.0826166 C48.0935947,65.05885 48.1538589,65.0322546 48.2132752,65.0028293 C48.2726916,64.9734041 48.3326729,64.9405842 48.3932209,64.9043685 C48.453769,64.8681528 48.5162966,64.826845 48.5808058,64.7804436 L48.7471707,64.7804436 Z M50.9964916,67.3098687 C50.742982,67.3098687 50.5452135,67.2063161 50.4031802,66.9992078 C50.2611469,66.7920995 50.1901313,66.4927589 50.1901313,66.101177 C50.1901313,65.671116 50.2642591,65.3457458 50.412517,65.1250566 C50.5607748,64.9043674 50.7746704,64.7940244 51.05421,64.7940244 C51.5895228,64.7940244 51.8571752,65.2099325 51.8571752,66.041761 C51.8571752,66.4537141 51.7816327,66.7680501 51.6305455,66.9847782 C51.4794583,67.2015063 51.2681091,67.3098687 50.9964916,67.3098687 Z M51.0355364,65.1080806 C50.7401524,65.1080806 50.5924627,65.4334508 50.5924627,66.084201 C50.5924627,66.6930768 50.7373231,66.9975102 51.0270484,66.9975102 C51.3122468,66.9975102 51.4548438,66.6879841 51.4548438,66.0689226 C51.4548438,65.428358 51.3150761,65.1080806 51.0355364,65.1080806 Z M53.9876641,64.7804436 L53.9876641,67.2691263 L53.5938207,67.2691263 L53.5938207,65.2625622 C53.5225211,65.3134905 53.4458469,65.3567789 53.3637958,65.3924287 C53.2817447,65.4280785 53.1880947,65.4594838 53.0828429,65.4866455 L53.0828429,65.1505206 C53.1484838,65.1290175 53.2118603,65.1063831 53.2729742,65.0826166 C53.3340881,65.05885 53.3943524,65.0322546 53.4537687,65.0028293 C53.513185,64.9734041 53.5731663,64.9405842 53.6337144,64.9043685 C53.6942624,64.8681528 53.7567901,64.826845 53.8212992,64.7804436 L53.9876641,64.7804436 Z M56.2369851,67.3098687 C55.9834754,67.3098687 55.7857069,67.2063161 55.6436736,66.9992078 C55.5016403,66.7920995 55.4306247,66.4927589 55.4306247,66.101177 C55.4306247,65.671116 55.5047525,65.3457458 55.6530104,65.1250566 C55.8012683,64.9043674 56.0151638,64.7940244 56.2947035,64.7940244 C56.8300163,64.7940244 57.0976686,65.2099325 57.0976686,66.041761 C57.0976686,66.4537141 57.0221262,66.7680501 56.8710389,66.9847782 C56.7199517,67.2015063 56.5086025,67.3098687 56.2369851,67.3098687 Z M56.2760299,65.1080806 C55.9806459,65.1080806 55.8329561,65.4334508 55.8329561,66.084201 C55.8329561,66.6930768 55.9778166,66.9975102 56.2675419,66.9975102 C56.5527402,66.9975102 56.6953373,66.6879841 56.6953373,66.0689226 C56.6953373,65.428358 56.5555695,65.1080806 56.2760299,65.1080806 Z M59.2281575,64.7804436 L59.2281575,67.2691263 L58.8343142,67.2691263 L58.8343142,65.2625622 C58.7630146,65.3134905 58.6863404,65.3567789 58.6042893,65.3924287 C58.5222382,65.4280785 58.4285881,65.4594838 58.3233364,65.4866455 L58.3233364,65.1505206 C58.3889772,65.1290175 58.4523537,65.1063831 58.5134676,65.0826166 C58.5745816,65.05885 58.6348458,65.0322546 58.6942621,65.0028293 C58.7536784,64.9734041 58.8136597,64.9405842 58.8742078,64.9043685 C58.9347558,64.8681528 58.9972835,64.826845 59.0617927,64.7804436 L59.2281575,64.7804436 Z M61.4774785,67.3098687 C61.2239689,67.3098687 61.0262003,67.2063161 60.884167,66.9992078 C60.7421337,66.7920995 60.6711182,66.4927589 60.6711182,66.101177 C60.6711182,65.671116 60.745246,65.3457458 60.8935038,65.1250566 C61.0417617,64.9043674 61.2556573,64.7940244 61.5351969,64.7940244 C62.0705097,64.7940244 62.3381621,65.2099325 62.3381621,66.041761 C62.3381621,66.4537141 62.2626196,66.7680501 62.1115324,66.9847782 C61.9604451,67.2015063 61.749096,67.3098687 61.4774785,67.3098687 Z M61.5165233,65.1080806 C61.2211393,65.1080806 61.0734495,65.4334508 61.0734495,66.084201 C61.0734495,66.6930768 61.21831,66.9975102 61.5080353,66.9975102 C61.7932337,66.9975102 61.9358307,66.6879841 61.9358307,66.0689226 C61.9358307,65.428358 61.796063,65.1080806 61.5165233,65.1080806 Z M64.468651,64.7804436 L64.468651,67.2691263 L64.0748076,67.2691263 L64.0748076,65.2625622 C64.003508,65.3134905 63.9268338,65.3567789 63.8447827,65.3924287 C63.7627316,65.4280785 63.6690816,65.4594838 63.5638298,65.4866455 L63.5638298,65.1505206 C63.6294707,65.1290175 63.6928471,65.1063831 63.7539611,65.0826166 C63.815075,65.05885 63.8753392,65.0322546 63.9347555,65.0028293 C63.9941719,64.9734041 64.0541532,64.9405842 64.1147012,64.9043685 C64.1752493,64.8681528 64.237777,64.826845 64.3022861,64.7804436 L64.468651,64.7804436 Z M35.8063603,72.0903124 C35.5528507,72.0903124 35.3550822,71.9867597 35.2130489,71.7796514 C35.0710156,71.5725431 35,71.2732025 35,70.8816206 C35,70.4515596 35.0741278,70.1261894 35.2223857,69.9055002 C35.3706436,69.684811 35.5845391,69.5744681 35.8640788,69.5744681 C36.3993915,69.5744681 36.6670439,69.9903761 36.6670439,70.8222046 C36.6670439,71.2341578 36.5915014,71.5484937 36.4404142,71.7652218 C36.289327,71.9819499 36.0779778,72.0903124 35.8063603,72.0903124 Z M35.8454052,69.8885242 C35.5500212,69.8885242 35.4023314,70.2138944 35.4023314,70.8646446 C35.4023314,71.4735205 35.5471919,71.7779538 35.8369172,71.7779538 C36.1221155,71.7779538 36.2647125,71.4684277 36.2647125,70.8493662 C36.2647125,70.2088017 36.1249448,69.8885242 35.8454052,69.8885242 Z M38.7975328,69.5608873 L38.7975328,72.0495699 L38.4036895,72.0495699 L38.4036895,70.0430059 C38.3323899,70.0939342 38.2557157,70.1372225 38.1736646,70.1728723 C38.0916134,70.2085221 37.9979634,70.2399274 37.8927116,70.2670892 L37.8927116,69.9309642 C37.9583525,69.9094612 38.021729,69.8868267 38.0828429,69.8630602 C38.1439568,69.8392937 38.2042211,69.8126982 38.2636374,69.783273 C38.3230537,69.7538477 38.383035,69.7210278 38.4435831,69.6848121 C38.5041311,69.6485965 38.5666588,69.6072886 38.6311679,69.5608873 L38.7975328,69.5608873 Z M41.0468538,72.0903124 C40.7933441,72.0903124 40.5955756,71.9867597 40.4535423,71.7796514 C40.311509,71.5725431 40.2404934,71.2732025 40.2404934,70.8816206 C40.2404934,70.4515596 40.3146213,70.1261894 40.4628791,69.9055002 C40.611137,69.684811 40.8250326,69.5744681 41.1045722,69.5744681 C41.639885,69.5744681 41.9075373,69.9903761 41.9075373,70.8222046 C41.9075373,71.2341578 41.8319949,71.5484937 41.6809077,71.7652218 C41.5298204,71.9819499 41.3184713,72.0903124 41.0468538,72.0903124 Z M41.0858986,69.8885242 C40.7905146,69.8885242 40.6428248,70.2138944 40.6428248,70.8646446 C40.6428248,71.4735205 40.7876853,71.7779538 41.0774106,71.7779538 C41.3626089,71.7779538 41.505206,71.4684277 41.505206,70.8493662 C41.505206,70.2088017 41.3654382,69.8885242 41.0858986,69.8885242 Z M44.0380263,69.5608873 L44.0380263,72.0495699 L43.6441829,72.0495699 L43.6441829,70.0430059 C43.5728833,70.0939342 43.4962091,70.1372225 43.414158,70.1728723 C43.3321069,70.2085221 43.2384568,70.2399274 43.1332051,70.2670892 L43.1332051,69.9309642 C43.198846,69.9094612 43.2622224,69.8868267 43.3233364,69.8630602 C43.3844503,69.8392937 43.4447145,69.8126982 43.5041308,69.783273 C43.5635472,69.7538477 43.6235284,69.7210278 43.6840765,69.6848121 C43.7446246,69.6485965 43.8071522,69.6072886 43.8716614,69.5608873 L44.0380263,69.5608873 Z M46.2873472,72.0903124 C46.0338376,72.0903124 45.8360691,71.9867597 45.6940358,71.7796514 C45.5520025,71.5725431 45.4809869,71.2732025 45.4809869,70.8816206 C45.4809869,70.4515596 45.5551147,70.1261894 45.7033726,69.9055002 C45.8516304,69.684811 46.065526,69.5744681 46.3450656,69.5744681 C46.8803784,69.5744681 47.1480308,69.9903761 47.1480308,70.8222046 C47.1480308,71.2341578 47.0724883,71.5484937 46.9214011,71.7652218 C46.7703139,71.9819499 46.5589647,72.0903124 46.2873472,72.0903124 Z M46.326392,69.8885242 C46.031008,69.8885242 45.8833182,70.2138944 45.8833182,70.8646446 C45.8833182,71.4735205 46.0281787,71.7779538 46.317904,71.7779538 C46.6031024,71.7779538 46.7456994,71.4684277 46.7456994,70.8493662 C46.7456994,70.2088017 46.6059317,69.8885242 46.326392,69.8885242 Z M49.2785197,69.5608873 L49.2785197,72.0495699 L48.8846763,72.0495699 L48.8846763,70.0430059 C48.8133767,70.0939342 48.7367025,70.1372225 48.6546514,70.1728723 C48.5726003,70.2085221 48.4789503,70.2399274 48.3736985,70.2670892 L48.3736985,69.9309642 C48.4393394,69.9094612 48.5027159,69.8868267 48.5638298,69.8630602 C48.6249437,69.8392937 48.6852079,69.8126982 48.7446243,69.783273 C48.8040406,69.7538477 48.8640219,69.7210278 48.9245699,69.6848121 C48.985118,69.6485965 49.0476457,69.6072886 49.1121548,69.5608873 L49.2785197,69.5608873 Z M51.5278407,72.0903124 C51.274331,72.0903124 51.0765625,71.9867597 50.9345292,71.7796514 C50.7924959,71.5725431 50.7214803,71.2732025 50.7214803,70.8816206 C50.7214803,70.4515596 50.7956081,70.1261894 50.943866,69.9055002 C51.0921239,69.684811 51.3060194,69.5744681 51.5855591,69.5744681 C52.1208718,69.5744681 52.3885242,69.9903761 52.3885242,70.8222046 C52.3885242,71.2341578 52.3129817,71.5484937 52.1618945,71.7652218 C52.0108073,71.9819499 51.7994581,72.0903124 51.5278407,72.0903124 Z M51.5668855,69.8885242 C51.2715015,69.8885242 51.1238117,70.2138944 51.1238117,70.8646446 C51.1238117,71.4735205 51.2686722,71.7779538 51.5583975,71.7779538 C51.8435958,71.7779538 51.9861928,71.4684277 51.9861928,70.8493662 C51.9861928,70.2088017 51.8464251,69.8885242 51.5668855,69.8885242 Z M54.5190131,69.5608873 L54.5190131,72.0495699 L54.1251698,72.0495699 L54.1251698,70.0430059 C54.0538702,70.0939342 53.977196,70.1372225 53.8951449,70.1728723 C53.8130938,70.2085221 53.7194437,70.2399274 53.6141919,70.2670892 L53.6141919,69.9309642 C53.6798328,69.9094612 53.7432093,69.8868267 53.8043232,69.8630602 C53.8654372,69.8392937 53.9257014,69.8126982 53.9851177,69.783273 C54.044534,69.7538477 54.1045153,69.7210278 54.1650634,69.6848121 C54.2256114,69.6485965 54.2881391,69.6072886 54.3526483,69.5608873 L54.5190131,69.5608873 Z M56.7683341,72.0903124 C56.5148244,72.0903124 56.3170559,71.9867597 56.1750226,71.7796514 C56.0329893,71.5725431 55.9619737,71.2732025 55.9619737,70.8816206 C55.9619737,70.4515596 56.0361016,70.1261894 56.1843594,69.9055002 C56.3326173,69.684811 56.5465129,69.5744681 56.8260525,69.5744681 C57.3613653,69.5744681 57.6290177,69.9903761 57.6290177,70.8222046 C57.6290177,71.2341578 57.5534752,71.5484937 57.402388,71.7652218 C57.2513007,71.9819499 57.0399516,72.0903124 56.7683341,72.0903124 Z M56.8073789,69.8885242 C56.5119949,69.8885242 56.3643051,70.2138944 56.3643051,70.8646446 C56.3643051,71.4735205 56.5091656,71.7779538 56.7988909,71.7779538 C57.0840892,71.7779538 57.2266863,71.4684277 57.2266863,70.8493662 C57.2266863,70.2088017 57.0869186,69.8885242 56.8073789,69.8885242 Z M59.7595066,69.5608873 L59.7595066,72.0495699 L59.3656632,72.0495699 L59.3656632,70.0430059 C59.2943636,70.0939342 59.2176894,70.1372225 59.1356383,70.1728723 C59.0535872,70.2085221 58.9599371,70.2399274 58.8546854,70.2670892 L58.8546854,69.9309642 C58.9203263,69.9094612 58.9837027,69.8868267 59.0448167,69.8630602 C59.1059306,69.8392937 59.1661948,69.8126982 59.2256111,69.783273 C59.2850275,69.7538477 59.3450088,69.7210278 59.4055568,69.6848121 C59.4661049,69.6485965 59.5286325,69.6072886 59.5931417,69.5608873 L59.7595066,69.5608873 Z M62.0088275,72.0903124 C61.7553179,72.0903124 61.5575494,71.9867597 61.4155161,71.7796514 C61.2734828,71.5725431 61.2024672,71.2732025 61.2024672,70.8816206 C61.2024672,70.4515596 61.276595,70.1261894 61.4248529,69.9055002 C61.5731107,69.684811 61.7870063,69.5744681 62.0665459,69.5744681 C62.6018587,69.5744681 62.8695111,69.9903761 62.8695111,70.8222046 C62.8695111,71.2341578 62.7939686,71.5484937 62.6428814,71.7652218 C62.4917942,71.9819499 62.280445,72.0903124 62.0088275,72.0903124 Z M62.0478723,69.8885242 C61.7524883,69.8885242 61.6047986,70.2138944 61.6047986,70.8646446 C61.6047986,71.4735205 61.749659,71.7779538 62.0393843,71.7779538 C62.3245827,71.7779538 62.4671797,71.4684277 62.4671797,70.8493662 C62.4671797,70.2088017 62.327412,69.8885242 62.0478723,69.8885242 Z M65,69.5608873 L65,72.0495699 L64.6061566,72.0495699 L64.6061566,70.0430059 C64.534857,70.0939342 64.4581828,70.1372225 64.3761317,70.1728723 C64.2940806,70.2085221 64.2004306,70.2399274 64.0951788,70.2670892 L64.0951788,69.9309642 C64.1608197,69.9094612 64.2241962,69.8868267 64.2853101,69.8630602 C64.346424,69.8392937 64.4066882,69.8126982 64.4661046,69.783273 C64.5255209,69.7538477 64.5855022,69.7210278 64.6460502,69.6848121 C64.7065983,69.6485965 64.769126,69.6072886 64.8336351,69.5608873 L65,69.5608873 Z M35.8063603,76.870756 C35.5528507,76.870756 35.3550822,76.7672034 35.2130489,76.5600951 C35.0710156,76.3529867 35,76.0536461 35,75.6620643 C35,75.2320033 35.0741278,74.9066331 35.2223857,74.6859439 C35.3706436,74.4652547 35.5845391,74.3549117 35.8640788,74.3549117 C36.3993915,74.3549117 36.6670439,74.7708197 36.6670439,75.6026483 C36.6670439,76.0146014 36.5915014,76.3289374 36.4404142,76.5456655 C36.289327,76.7623936 36.0779778,76.870756 35.8063603,76.870756 Z M35.8454052,74.6689679 C35.5500212,74.6689679 35.4023314,74.9943381 35.4023314,75.6450883 C35.4023314,76.2539641 35.5471919,76.5583975 35.8369172,76.5583975 C36.1221155,76.5583975 36.2647125,76.2488714 36.2647125,75.6298099 C36.2647125,74.9892453 36.1249448,74.6689679 35.8454052,74.6689679 Z M38.7975328,74.3413309 L38.7975328,76.8300136 L38.4036895,76.8300136 L38.4036895,74.8234495 C38.3323899,74.8743778 38.2557157,74.9176662 38.1736646,74.953316 C38.0916134,74.9889658 37.9979634,75.0203711 37.8927116,75.0475328 L37.8927116,74.7114079 C37.9583525,74.6899048 38.021729,74.6672704 38.0828429,74.6435038 C38.1439568,74.6197373 38.2042211,74.5931418 38.2636374,74.5637166 C38.3230537,74.5342914 38.383035,74.5014714 38.4435831,74.4652558 C38.5041311,74.4290401 38.5666588,74.3877322 38.6311679,74.3413309 L38.7975328,74.3413309 Z M41.0468538,76.870756 C40.7933441,76.870756 40.5955756,76.7672034 40.4535423,76.5600951 C40.311509,76.3529867 40.2404934,76.0536461 40.2404934,75.6620643 C40.2404934,75.2320033 40.3146213,74.9066331 40.4628791,74.6859439 C40.611137,74.4652547 40.8250326,74.3549117 41.1045722,74.3549117 C41.639885,74.3549117 41.9075373,74.7708197 41.9075373,75.6026483 C41.9075373,76.0146014 41.8319949,76.3289374 41.6809077,76.5456655 C41.5298204,76.7623936 41.3184713,76.870756 41.0468538,76.870756 Z M41.0858986,74.6689679 C40.7905146,74.6689679 40.6428248,74.9943381 40.6428248,75.6450883 C40.6428248,76.2539641 40.7876853,76.5583975 41.0774106,76.5583975 C41.3626089,76.5583975 41.505206,76.2488714 41.505206,75.6298099 C41.505206,74.9892453 41.3654382,74.6689679 41.0858986,74.6689679 Z M44.0380263,74.3413309 L44.0380263,76.8300136 L43.6441829,76.8300136 L43.6441829,74.8234495 C43.5728833,74.8743778 43.4962091,74.9176662 43.414158,74.953316 C43.3321069,74.9889658 43.2384568,75.0203711 43.1332051,75.0475328 L43.1332051,74.7114079 C43.198846,74.6899048 43.2622224,74.6672704 43.3233364,74.6435038 C43.3844503,74.6197373 43.4447145,74.5931418 43.5041308,74.5637166 C43.5635472,74.5342914 43.6235284,74.5014714 43.6840765,74.4652558 C43.7446246,74.4290401 43.8071522,74.3877322 43.8716614,74.3413309 L44.0380263,74.3413309 Z M46.2873472,76.870756 C46.0338376,76.870756 45.8360691,76.7672034 45.6940358,76.5600951 C45.5520025,76.3529867 45.4809869,76.0536461 45.4809869,75.6620643 C45.4809869,75.2320033 45.5551147,74.9066331 45.7033726,74.6859439 C45.8516304,74.4652547 46.065526,74.3549117 46.3450656,74.3549117 C46.8803784,74.3549117 47.1480308,74.7708197 47.1480308,75.6026483 C47.1480308,76.0146014 47.0724883,76.3289374 46.9214011,76.5456655 C46.7703139,76.7623936 46.5589647,76.870756 46.2873472,76.870756 Z M46.326392,74.6689679 C46.031008,74.6689679 45.8833182,74.9943381 45.8833182,75.6450883 C45.8833182,76.2539641 46.0281787,76.5583975 46.317904,76.5583975 C46.6031024,76.5583975 46.7456994,76.2488714 46.7456994,75.6298099 C46.7456994,74.9892453 46.6059317,74.6689679 46.326392,74.6689679 Z M49.2785197,74.3413309 L49.2785197,76.8300136 L48.8846763,76.8300136 L48.8846763,74.8234495 C48.8133767,74.8743778 48.7367025,74.9176662 48.6546514,74.953316 C48.5726003,74.9889658 48.4789503,75.0203711 48.3736985,75.0475328 L48.3736985,74.7114079 C48.4393394,74.6899048 48.5027159,74.6672704 48.5638298,74.6435038 C48.6249437,74.6197373 48.6852079,74.5931418 48.7446243,74.5637166 C48.8040406,74.5342914 48.8640219,74.5014714 48.9245699,74.4652558 C48.985118,74.4290401 49.0476457,74.3877322 49.1121548,74.3413309 L49.2785197,74.3413309 Z M51.5278407,76.870756 C51.274331,76.870756 51.0765625,76.7672034 50.9345292,76.5600951 C50.7924959,76.3529867 50.7214803,76.0536461 50.7214803,75.6620643 C50.7214803,75.2320033 50.7956081,74.9066331 50.943866,74.6859439 C51.0921239,74.4652547 51.3060194,74.3549117 51.5855591,74.3549117 C52.1208718,74.3549117 52.3885242,74.7708197 52.3885242,75.6026483 C52.3885242,76.0146014 52.3129817,76.3289374 52.1618945,76.5456655 C52.0108073,76.7623936 51.7994581,76.870756 51.5278407,76.870756 Z M51.5668855,74.6689679 C51.2715015,74.6689679 51.1238117,74.9943381 51.1238117,75.6450883 C51.1238117,76.2539641 51.2686722,76.5583975 51.5583975,76.5583975 C51.8435958,76.5583975 51.9861928,76.2488714 51.9861928,75.6298099 C51.9861928,74.9892453 51.8464251,74.6689679 51.5668855,74.6689679 Z M54.5190131,74.3413309 L54.5190131,76.8300136 L54.1251698,76.8300136 L54.1251698,74.8234495 C54.0538702,74.8743778 53.977196,74.9176662 53.8951449,74.953316 C53.8130938,74.9889658 53.7194437,75.0203711 53.6141919,75.0475328 L53.6141919,74.7114079 C53.6798328,74.6899048 53.7432093,74.6672704 53.8043232,74.6435038 C53.8654372,74.6197373 53.9257014,74.5931418 53.9851177,74.5637166 C54.044534,74.5342914 54.1045153,74.5014714 54.1650634,74.4652558 C54.2256114,74.4290401 54.2881391,74.3877322 54.3526483,74.3413309 L54.5190131,74.3413309 Z M56.7683341,76.870756 C56.5148244,76.870756 56.3170559,76.7672034 56.1750226,76.5600951 C56.0329893,76.3529867 55.9619737,76.0536461 55.9619737,75.6620643 C55.9619737,75.2320033 56.0361016,74.9066331 56.1843594,74.6859439 C56.3326173,74.4652547 56.5465129,74.3549117 56.8260525,74.3549117 C57.3613653,74.3549117 57.6290177,74.7708197 57.6290177,75.6026483 C57.6290177,76.0146014 57.5534752,76.3289374 57.402388,76.5456655 C57.2513007,76.7623936 57.0399516,76.870756 56.7683341,76.870756 Z M56.8073789,74.6689679 C56.5119949,74.6689679 56.3643051,74.9943381 56.3643051,75.6450883 C56.3643051,76.2539641 56.5091656,76.5583975 56.7988909,76.5583975 C57.0840892,76.5583975 57.2266863,76.2488714 57.2266863,75.6298099 C57.2266863,74.9892453 57.0869186,74.6689679 56.8073789,74.6689679 Z M59.7595066,74.3413309 L59.7595066,76.8300136 L59.3656632,76.8300136 L59.3656632,74.8234495 C59.2943636,74.8743778 59.2176894,74.9176662 59.1356383,74.953316 C59.0535872,74.9889658 58.9599371,75.0203711 58.8546854,75.0475328 L58.8546854,74.7114079 C58.9203263,74.6899048 58.9837027,74.6672704 59.0448167,74.6435038 C59.1059306,74.6197373 59.1661948,74.5931418 59.2256111,74.5637166 C59.2850275,74.5342914 59.3450088,74.5014714 59.4055568,74.4652558 C59.4661049,74.4290401 59.5286325,74.3877322 59.5931417,74.3413309 L59.7595066,74.3413309 Z M62.0088275,76.870756 C61.7553179,76.870756 61.5575494,76.7672034 61.4155161,76.5600951 C61.2734828,76.3529867 61.2024672,76.0536461 61.2024672,75.6620643 C61.2024672,75.2320033 61.276595,74.9066331 61.4248529,74.6859439 C61.5731107,74.4652547 61.7870063,74.3549117 62.0665459,74.3549117 C62.6018587,74.3549117 62.8695111,74.7708197 62.8695111,75.6026483 C62.8695111,76.0146014 62.7939686,76.3289374 62.6428814,76.5456655 C62.4917942,76.7623936 62.280445,76.870756 62.0088275,76.870756 Z M62.0478723,74.6689679 C61.7524883,74.6689679 61.6047986,74.9943381 61.6047986,75.6450883 C61.6047986,76.2539641 61.749659,76.5583975 62.0393843,76.5583975 C62.3245827,76.5583975 62.4671797,76.2488714 62.4671797,75.6298099 C62.4671797,74.9892453 62.327412,74.6689679 62.0478723,74.6689679 Z M65,74.3413309 L65,76.8300136 L64.6061566,76.8300136 L64.6061566,74.8234495 C64.534857,74.8743778 64.4581828,74.9176662 64.3761317,74.953316 C64.2940806,74.9889658 64.2004306,75.0203711 64.0951788,75.0475328 L64.0951788,74.7114079 C64.1608197,74.6899048 64.2241962,74.6672704 64.2853101,74.6435038 C64.346424,74.6197373 64.4066882,74.5931418 64.4661046,74.5637166 C64.5255209,74.5342914 64.5855022,74.5014714 64.6460502,74.4652558 C64.7065983,74.4290401 64.769126,74.3877322 64.8336351,74.3413309 L65,74.3413309 Z M35.8063603,81.6511996 C35.5528507,81.6511996 35.3550822,81.547647 35.2130489,81.3405387 C35.0710156,81.1334304 35,80.8340898 35,80.4425079 C35,80.0124469 35.0741278,79.6870767 35.2223857,79.4663875 C35.3706436,79.2456983 35.5845391,79.1353554 35.8640788,79.1353554 C36.3993915,79.1353554 36.6670439,79.5512634 36.6670439,80.3830919 C36.6670439,80.7950451 36.5915014,81.109381 36.4404142,81.3261091 C36.289327,81.5428372 36.0779778,81.6511996 35.8063603,81.6511996 Z M35.8454052,79.4494115 C35.5500212,79.4494115 35.4023314,79.7747817 35.4023314,80.4255319 C35.4023314,81.0344078 35.5471919,81.3388411 35.8369172,81.3388411 C36.1221155,81.3388411 36.2647125,81.029315 36.2647125,80.4102535 C36.2647125,79.769689 36.1249448,79.4494115 35.8454052,79.4494115 Z M38.7975328,79.1217746 L38.7975328,81.6104572 L38.4036895,81.6104572 L38.4036895,79.6038932 C38.3323899,79.6548214 38.2557157,79.6981098 38.1736646,79.7337596 C38.0916134,79.7694094 37.9979634,79.8008147 37.8927116,79.8279765 L37.8927116,79.4918515 C37.9583525,79.4703485 38.021729,79.447714 38.0828429,79.4239475 C38.1439568,79.400181 38.2042211,79.3735855 38.2636374,79.3441603 C38.3230537,79.314735 38.383035,79.2819151 38.4435831,79.2456994 C38.5041311,79.2094837 38.5666588,79.1681759 38.6311679,79.1217746 L38.7975328,79.1217746 Z M41.0468538,81.6511996 C40.7933441,81.6511996 40.5955756,81.547647 40.4535423,81.3405387 C40.311509,81.1334304 40.2404934,80.8340898 40.2404934,80.4425079 C40.2404934,80.0124469 40.3146213,79.6870767 40.4628791,79.4663875 C40.611137,79.2456983 40.8250326,79.1353554 41.1045722,79.1353554 C41.639885,79.1353554 41.9075373,79.5512634 41.9075373,80.3830919 C41.9075373,80.7950451 41.8319949,81.109381 41.6809077,81.3261091 C41.5298204,81.5428372 41.3184713,81.6511996 41.0468538,81.6511996 Z M41.0858986,79.4494115 C40.7905146,79.4494115 40.6428248,79.7747817 40.6428248,80.4255319 C40.6428248,81.0344078 40.7876853,81.3388411 41.0774106,81.3388411 C41.3626089,81.3388411 41.505206,81.029315 41.505206,80.4102535 C41.505206,79.769689 41.3654382,79.4494115 41.0858986,79.4494115 Z M44.0380263,79.1217746 L44.0380263,81.6104572 L43.6441829,81.6104572 L43.6441829,79.6038932 C43.5728833,79.6548214 43.4962091,79.6981098 43.414158,79.7337596 C43.3321069,79.7694094 43.2384568,79.8008147 43.1332051,79.8279765 L43.1332051,79.4918515 C43.198846,79.4703485 43.2622224,79.447714 43.3233364,79.4239475 C43.3844503,79.400181 43.4447145,79.3735855 43.5041308,79.3441603 C43.5635472,79.314735 43.6235284,79.2819151 43.6840765,79.2456994 C43.7446246,79.2094837 43.8071522,79.1681759 43.8716614,79.1217746 L44.0380263,79.1217746 Z M46.2873472,81.6511996 C46.0338376,81.6511996 45.8360691,81.547647 45.6940358,81.3405387 C45.5520025,81.1334304 45.4809869,80.8340898 45.4809869,80.4425079 C45.4809869,80.0124469 45.5551147,79.6870767 45.7033726,79.4663875 C45.8516304,79.2456983 46.065526,79.1353554 46.3450656,79.1353554 C46.8803784,79.1353554 47.1480308,79.5512634 47.1480308,80.3830919 C47.1480308,80.7950451 47.0724883,81.109381 46.9214011,81.3261091 C46.7703139,81.5428372 46.5589647,81.6511996 46.2873472,81.6511996 Z M46.326392,79.4494115 C46.031008,79.4494115 45.8833182,79.7747817 45.8833182,80.4255319 C45.8833182,81.0344078 46.0281787,81.3388411 46.317904,81.3388411 C46.6031024,81.3388411 46.7456994,81.029315 46.7456994,80.4102535 C46.7456994,79.769689 46.6059317,79.4494115 46.326392,79.4494115 Z M49.2785197,79.1217746 L49.2785197,81.6104572 L48.8846763,81.6104572 L48.8846763,79.6038932 C48.8133767,79.6548214 48.7367025,79.6981098 48.6546514,79.7337596 C48.5726003,79.7694094 48.4789503,79.8008147 48.3736985,79.8279765 L48.3736985,79.4918515 C48.4393394,79.4703485 48.5027159,79.447714 48.5638298,79.4239475 C48.6249437,79.400181 48.6852079,79.3735855 48.7446243,79.3441603 C48.8040406,79.314735 48.8640219,79.2819151 48.9245699,79.2456994 C48.985118,79.2094837 49.0476457,79.1681759 49.1121548,79.1217746 L49.2785197,79.1217746 Z M51.5278407,81.6511996 C51.274331,81.6511996 51.0765625,81.547647 50.9345292,81.3405387 C50.7924959,81.1334304 50.7214803,80.8340898 50.7214803,80.4425079 C50.7214803,80.0124469 50.7956081,79.6870767 50.943866,79.4663875 C51.0921239,79.2456983 51.3060194,79.1353554 51.5855591,79.1353554 C52.1208718,79.1353554 52.3885242,79.5512634 52.3885242,80.3830919 C52.3885242,80.7950451 52.3129817,81.109381 52.1618945,81.3261091 C52.0108073,81.5428372 51.7994581,81.6511996 51.5278407,81.6511996 Z M51.5668855,79.4494115 C51.2715015,79.4494115 51.1238117,79.7747817 51.1238117,80.4255319 C51.1238117,81.0344078 51.2686722,81.3388411 51.5583975,81.3388411 C51.8435958,81.3388411 51.9861928,81.029315 51.9861928,80.4102535 C51.9861928,79.769689 51.8464251,79.4494115 51.5668855,79.4494115 Z M54.5190131,79.1217746 L54.5190131,81.6104572 L54.1251698,81.6104572 L54.1251698,79.6038932 C54.0538702,79.6548214 53.977196,79.6981098 53.8951449,79.7337596 C53.8130938,79.7694094 53.7194437,79.8008147 53.6141919,79.8279765 L53.6141919,79.4918515 C53.6798328,79.4703485 53.7432093,79.447714 53.8043232,79.4239475 C53.8654372,79.400181 53.9257014,79.3735855 53.9851177,79.3441603 C54.044534,79.314735 54.1045153,79.2819151 54.1650634,79.2456994 C54.2256114,79.2094837 54.2881391,79.1681759 54.3526483,79.1217746 L54.5190131,79.1217746 Z M56.7683341,81.6511996 C56.5148244,81.6511996 56.3170559,81.547647 56.1750226,81.3405387 C56.0329893,81.1334304 55.9619737,80.8340898 55.9619737,80.4425079 C55.9619737,80.0124469 56.0361016,79.6870767 56.1843594,79.4663875 C56.3326173,79.2456983 56.5465129,79.1353554 56.8260525,79.1353554 C57.3613653,79.1353554 57.6290177,79.5512634 57.6290177,80.3830919 C57.6290177,80.7950451 57.5534752,81.109381 57.402388,81.3261091 C57.2513007,81.5428372 57.0399516,81.6511996 56.7683341,81.6511996 Z M56.8073789,79.4494115 C56.5119949,79.4494115 56.3643051,79.7747817 56.3643051,80.4255319 C56.3643051,81.0344078 56.5091656,81.3388411 56.7988909,81.3388411 C57.0840892,81.3388411 57.2266863,81.029315 57.2266863,80.4102535 C57.2266863,79.769689 57.0869186,79.4494115 56.8073789,79.4494115 Z M59.7595066,79.1217746 L59.7595066,81.6104572 L59.3656632,81.6104572 L59.3656632,79.6038932 C59.2943636,79.6548214 59.2176894,79.6981098 59.1356383,79.7337596 C59.0535872,79.7694094 58.9599371,79.8008147 58.8546854,79.8279765 L58.8546854,79.4918515 C58.9203263,79.4703485 58.9837027,79.447714 59.0448167,79.4239475 C59.1059306,79.400181 59.1661948,79.3735855 59.2256111,79.3441603 C59.2850275,79.314735 59.3450088,79.2819151 59.4055568,79.2456994 C59.4661049,79.2094837 59.5286325,79.1681759 59.5931417,79.1217746 L59.7595066,79.1217746 Z M62.0088275,81.6511996 C61.7553179,81.6511996 61.5575494,81.547647 61.4155161,81.3405387 C61.2734828,81.1334304 61.2024672,80.8340898 61.2024672,80.4425079 C61.2024672,80.0124469 61.276595,79.6870767 61.4248529,79.4663875 C61.5731107,79.2456983 61.7870063,79.1353554 62.0665459,79.1353554 C62.6018587,79.1353554 62.8695111,79.5512634 62.8695111,80.3830919 C62.8695111,80.7950451 62.7939686,81.109381 62.6428814,81.3261091 C62.4917942,81.5428372 62.280445,81.6511996 62.0088275,81.6511996 Z M62.0478723,79.4494115 C61.7524883,79.4494115 61.6047986,79.7747817 61.6047986,80.4255319 C61.6047986,81.0344078 61.749659,81.3388411 62.0393843,81.3388411 C62.3245827,81.3388411 62.4671797,81.029315 62.4671797,80.4102535 C62.4671797,79.769689 62.327412,79.4494115 62.0478723,79.4494115 Z M65,79.1217746 L65,81.6104572 L64.6061566,81.6104572 L64.6061566,79.6038932 C64.534857,79.6548214 64.4581828,79.6981098 64.3761317,79.7337596 C64.2940806,79.7694094 64.2004306,79.8008147 64.0951788,79.8279765 L64.0951788,79.4918515 C64.1608197,79.4703485 64.2241962,79.447714 64.2853101,79.4239475 C64.346424,79.400181 64.4066882,79.3735855 64.4661046,79.3441603 C64.5255209,79.314735 64.5855022,79.2819151 64.6460502,79.2456994 C64.7065983,79.2094837 64.769126,79.1681759 64.8336351,79.1217746 L65,79.1217746 Z M38.7975328,83.9022182 L38.7975328,86.3909009 L38.4036895,86.3909009 L38.4036895,84.3843368 C38.3323899,84.4352651 38.2557157,84.4785535 38.1736646,84.5142033 C38.0916134,84.5498531 37.9979634,84.5812584 37.8927116,84.6084201 L37.8927116,84.2722952 C37.9583525,84.2507921 38.021729,84.2281577 38.0828429,84.2043911 C38.1439568,84.1806246 38.2042211,84.1540291 38.2636374,84.1246039 C38.3230537,84.0951787 38.383035,84.0623587 38.4435831,84.0261431 C38.5041311,83.9899274 38.5666588,83.9486195 38.6311679,83.9022182 L38.7975328,83.9022182 Z M41.0468538,86.4316433 C40.7933441,86.4316433 40.5955756,86.3280907 40.4535423,86.1209823 C40.311509,85.913874 40.2404934,85.6145334 40.2404934,85.2229516 C40.2404934,84.7928906 40.3146213,84.4675203 40.4628791,84.2468311 C40.611137,84.0261419 40.8250326,83.915799 41.1045722,83.915799 C41.639885,83.915799 41.9075373,84.331707 41.9075373,85.1635355 C41.9075373,85.5754887 41.8319949,85.8898246 41.6809077,86.1065527 C41.5298204,86.3232808 41.3184713,86.4316433 41.0468538,86.4316433 Z M41.0858986,84.2298551 C40.7905146,84.2298551 40.6428248,84.5552254 40.6428248,85.2059756 C40.6428248,85.8148514 40.7876853,86.1192847 41.0774106,86.1192847 C41.3626089,86.1192847 41.505206,85.8097586 41.505206,85.1906971 C41.505206,84.5501326 41.3654382,84.2298551 41.0858986,84.2298551 Z M44.0380263,83.9022182 L44.0380263,86.3909009 L43.6441829,86.3909009 L43.6441829,84.3843368 C43.5728833,84.4352651 43.4962091,84.4785535 43.414158,84.5142033 C43.3321069,84.5498531 43.2384568,84.5812584 43.1332051,84.6084201 L43.1332051,84.2722952 C43.198846,84.2507921 43.2622224,84.2281577 43.3233364,84.2043911 C43.3844503,84.1806246 43.4447145,84.1540291 43.5041308,84.1246039 C43.5635472,84.0951787 43.6235284,84.0623587 43.6840765,84.0261431 C43.7446246,83.9899274 43.8071522,83.9486195 43.8716614,83.9022182 L44.0380263,83.9022182 Z M46.2873472,86.4316433 C46.0338376,86.4316433 45.8360691,86.3280907 45.6940358,86.1209823 C45.5520025,85.913874 45.4809869,85.6145334 45.4809869,85.2229516 C45.4809869,84.7928906 45.5551147,84.4675203 45.7033726,84.2468311 C45.8516304,84.0261419 46.065526,83.915799 46.3450656,83.915799 C46.8803784,83.915799 47.1480308,84.331707 47.1480308,85.1635355 C47.1480308,85.5754887 47.0724883,85.8898246 46.9214011,86.1065527 C46.7703139,86.3232808 46.5589647,86.4316433 46.2873472,86.4316433 Z M46.326392,84.2298551 C46.031008,84.2298551 45.8833182,84.5552254 45.8833182,85.2059756 C45.8833182,85.8148514 46.0281787,86.1192847 46.317904,86.1192847 C46.6031024,86.1192847 46.7456994,85.8097586 46.7456994,85.1906971 C46.7456994,84.5501326 46.6059317,84.2298551 46.326392,84.2298551 Z M49.2785197,83.9022182 L49.2785197,86.3909009 L48.8846763,86.3909009 L48.8846763,84.3843368 C48.8133767,84.4352651 48.7367025,84.4785535 48.6546514,84.5142033 C48.5726003,84.5498531 48.4789503,84.5812584 48.3736985,84.6084201 L48.3736985,84.2722952 C48.4393394,84.2507921 48.5027159,84.2281577 48.5638298,84.2043911 C48.6249437,84.1806246 48.6852079,84.1540291 48.7446243,84.1246039 C48.8040406,84.0951787 48.8640219,84.0623587 48.9245699,84.0261431 C48.985118,83.9899274 49.0476457,83.9486195 49.1121548,83.9022182 L49.2785197,83.9022182 Z M51.5278407,86.4316433 C51.274331,86.4316433 51.0765625,86.3280907 50.9345292,86.1209823 C50.7924959,85.913874 50.7214803,85.6145334 50.7214803,85.2229516 C50.7214803,84.7928906 50.7956081,84.4675203 50.943866,84.2468311 C51.0921239,84.0261419 51.3060194,83.915799 51.5855591,83.915799 C52.1208718,83.915799 52.3885242,84.331707 52.3885242,85.1635355 C52.3885242,85.5754887 52.3129817,85.8898246 52.1618945,86.1065527 C52.0108073,86.3232808 51.7994581,86.4316433 51.5278407,86.4316433 Z M51.5668855,84.2298551 C51.2715015,84.2298551 51.1238117,84.5552254 51.1238117,85.2059756 C51.1238117,85.8148514 51.2686722,86.1192847 51.5583975,86.1192847 C51.8435958,86.1192847 51.9861928,85.8097586 51.9861928,85.1906971 C51.9861928,84.5501326 51.8464251,84.2298551 51.5668855,84.2298551 Z M54.5190131,83.9022182 L54.5190131,86.3909009 L54.1251698,86.3909009 L54.1251698,84.3843368 C54.0538702,84.4352651 53.977196,84.4785535 53.8951449,84.5142033 C53.8130938,84.5498531 53.7194437,84.5812584 53.6141919,84.6084201 L53.6141919,84.2722952 C53.6798328,84.2507921 53.7432093,84.2281577 53.8043232,84.2043911 C53.8654372,84.1806246 53.9257014,84.1540291 53.9851177,84.1246039 C54.044534,84.0951787 54.1045153,84.0623587 54.1650634,84.0261431 C54.2256114,83.9899274 54.2881391,83.9486195 54.3526483,83.9022182 L54.5190131,83.9022182 Z M56.7683341,86.4316433 C56.5148244,86.4316433 56.3170559,86.3280907 56.1750226,86.1209823 C56.0329893,85.913874 55.9619737,85.6145334 55.9619737,85.2229516 C55.9619737,84.7928906 56.0361016,84.4675203 56.1843594,84.2468311 C56.3326173,84.0261419 56.5465129,83.915799 56.8260525,83.915799 C57.3613653,83.915799 57.6290177,84.331707 57.6290177,85.1635355 C57.6290177,85.5754887 57.5534752,85.8898246 57.402388,86.1065527 C57.2513007,86.3232808 57.0399516,86.4316433 56.7683341,86.4316433 Z M56.8073789,84.2298551 C56.5119949,84.2298551 56.3643051,84.5552254 56.3643051,85.2059756 C56.3643051,85.8148514 56.5091656,86.1192847 56.7988909,86.1192847 C57.0840892,86.1192847 57.2266863,85.8097586 57.2266863,85.1906971 C57.2266863,84.5501326 57.0869186,84.2298551 56.8073789,84.2298551 Z M59.7595066,83.9022182 L59.7595066,86.3909009 L59.3656632,86.3909009 L59.3656632,84.3843368 C59.2943636,84.4352651 59.2176894,84.4785535 59.1356383,84.5142033 C59.0535872,84.5498531 58.9599371,84.5812584 58.8546854,84.6084201 L58.8546854,84.2722952 C58.9203263,84.2507921 58.9837027,84.2281577 59.0448167,84.2043911 C59.1059306,84.1806246 59.1661948,84.1540291 59.2256111,84.1246039 C59.2850275,84.0951787 59.3450088,84.0623587 59.4055568,84.0261431 C59.4661049,83.9899274 59.5286325,83.9486195 59.5931417,83.9022182 L59.7595066,83.9022182 Z M62.0088275,86.4316433 C61.7553179,86.4316433 61.5575494,86.3280907 61.4155161,86.1209823 C61.2734828,85.913874 61.2024672,85.6145334 61.2024672,85.2229516 C61.2024672,84.7928906 61.276595,84.4675203 61.4248529,84.2468311 C61.5731107,84.0261419 61.7870063,83.915799 62.0665459,83.915799 C62.6018587,83.915799 62.8695111,84.331707 62.8695111,85.1635355 C62.8695111,85.5754887 62.7939686,85.8898246 62.6428814,86.1065527 C62.4917942,86.3232808 62.280445,86.4316433 62.0088275,86.4316433 Z M62.0478723,84.2298551 C61.7524883,84.2298551 61.6047986,84.5552254 61.6047986,85.2059756 C61.6047986,85.8148514 61.749659,86.1192847 62.0393843,86.1192847 C62.3245827,86.1192847 62.4671797,85.8097586 62.4671797,85.1906971 C62.4671797,84.5501326 62.327412,84.2298551 62.0478723,84.2298551 Z" id="101010101010110101010101010101010101010101010101010101010101010101010101" fill="#FFFFFF" fill-rule="nonzero"></path>
                <g id="Databrick" transform="translate(25.000000, 23.000000)" fill-rule="nonzero">
                    <g id="Lower" transform="translate(3.731343, 19.253731)">
                        <polygon id="Rectangle-8" fill="#E63118" points="42.3607896 11.5536881 42.3639757 11.5519965 42.3639757 19.3166203 21.1819879 30.8720466 21.1819879 23.1108526 42.3639757 11.5554263"></polygon>
                        <polygon id="Rectangle-8" fill="#CC271F" points="0 11.5554263 21.1819879 23.1108526 21.1819879 30.8720466 0 19.3166203 0 11.5534632"></polygon>
                        <polygon id="Rectangle-8" fill="url(#linearGradient-8)" points="0 11.5554263 21.1819879 0 42.3639757 11.5554263 21.1819879 23.1108526"></polygon>
                    </g>
                    <g id="Top" transform="translate(3.731343, 3.731343)">
                        <polygon id="Shadow" fill-opacity="0.093919837" fill="#000000" points="4.409387e-16 20.5106502 0 16.9801218 42.3639757 16.9801218 42.3639757 20.5106502 21.1819879 32.0660765"></polygon>
                        <polygon id="Rectangle-8" fill="#E63118" points="42.3607896 11.5536881 42.3639757 11.5519965 42.3639757 19.3166203 21.1819879 30.8720466 21.1819879 23.1108526 42.3639757 11.5554263"></polygon>
                        <polygon id="Rectangle-8" fill="#CC271F" points="0 11.5554263 21.1819879 23.1108526 21.1819879 30.8720466 0 19.3166203 0 11.5534632"></polygon>
                        <polygon id="Rectangle-8" fill="url(#linearGradient-8)" points="0 11.5554263 21.1819879 0 42.3639757 11.5554263 21.1819879 23.1108526"></polygon>
                    </g>
                </g>
                <rect id="Rectangle" fill="#CC271F" x="35" y="37" width="30" height="2" rx="1"></rect>
                <path d="M38.1609325,16.5294251 C37.9074229,16.5294251 37.7096544,16.4258725 37.5676211,16.2187641 C37.4255878,16.0116558 37.3545722,15.7123152 37.3545722,15.3207334 C37.3545722,14.8906724 37.4287,14.5653021 37.5769579,14.3446129 C37.7252158,14.1239237 37.9391113,14.0135808 38.218651,14.0135808 C38.7539637,14.0135808 39.0216161,14.4294888 39.0216161,15.2613173 C39.0216161,15.6732705 38.9460736,15.9876064 38.7949864,16.2043345 C38.6438992,16.4210626 38.43255,16.5294251 38.1609325,16.5294251 Z M38.1999774,14.3276369 C37.9045934,14.3276369 37.7569036,14.6530072 37.7569036,15.3037574 C37.7569036,15.9126332 37.9017641,16.2170665 38.1914894,16.2170665 C38.4766877,16.2170665 38.6192847,15.9075404 38.6192847,15.2884789 C38.6192847,14.6479144 38.479517,14.3276369 38.1999774,14.3276369 Z M41.152105,14 L41.152105,16.4886827 L40.7582617,16.4886827 L40.7582617,14.4821186 C40.6869621,14.5330469 40.6102879,14.5763353 40.5282368,14.6119851 C40.4461856,14.6476349 40.3525356,14.6790402 40.2472838,14.7062019 L40.2472838,14.370077 C40.3129247,14.3485739 40.3763012,14.3259395 40.4374151,14.3021729 C40.4985291,14.2784064 40.5587933,14.2518109 40.6182096,14.2223857 C40.6776259,14.1929605 40.7376072,14.1601405 40.7981553,14.1239249 C40.8587033,14.0877092 40.921231,14.0464013 40.9857402,14 L41.152105,14 Z M43.401426,16.5294251 C43.1479163,16.5294251 42.9501478,16.4258725 42.8081145,16.2187641 C42.6660812,16.0116558 42.5950656,15.7123152 42.5950656,15.3207334 C42.5950656,14.8906724 42.6691935,14.5653021 42.8174513,14.3446129 C42.9657092,14.1239237 43.1796048,14.0135808 43.4591444,14.0135808 C43.9944572,14.0135808 44.2621096,14.4294888 44.2621096,15.2613173 C44.2621096,15.6732705 44.1865671,15.9876064 44.0354799,16.2043345 C43.8843926,16.4210626 43.6730435,16.5294251 43.401426,16.5294251 Z M43.4404708,14.3276369 C43.1450868,14.3276369 42.997397,14.6530072 42.997397,15.3037574 C42.997397,15.9126332 43.1422575,16.2170665 43.4319828,16.2170665 C43.7171811,16.2170665 43.8597782,15.9075404 43.8597782,15.2884789 C43.8597782,14.6479144 43.7200105,14.3276369 43.4404708,14.3276369 Z M46.3925985,14 L46.3925985,16.4886827 L45.9987551,16.4886827 L45.9987551,14.4821186 C45.9274555,14.5330469 45.8507813,14.5763353 45.7687302,14.6119851 C45.6866791,14.6476349 45.593029,14.6790402 45.4877773,14.7062019 L45.4877773,14.370077 C45.5534182,14.3485739 45.6167946,14.3259395 45.6779086,14.3021729 C45.7390225,14.2784064 45.7992867,14.2518109 45.858703,14.2223857 C45.9181194,14.1929605 45.9781006,14.1601405 46.0386487,14.1239249 C46.0991968,14.0877092 46.1617244,14.0464013 46.2262336,14 L46.3925985,14 Z M48.6419194,16.5294251 C48.3884098,16.5294251 48.1906413,16.4258725 48.048608,16.2187641 C47.9065747,16.0116558 47.8355591,15.7123152 47.8355591,15.3207334 C47.8355591,14.8906724 47.9096869,14.5653021 48.0579448,14.3446129 C48.2062026,14.1239237 48.4200982,14.0135808 48.6996378,14.0135808 C49.2349506,14.0135808 49.502603,14.4294888 49.502603,15.2613173 C49.502603,15.6732705 49.4270605,15.9876064 49.2759733,16.2043345 C49.1248861,16.4210626 48.9135369,16.5294251 48.6419194,16.5294251 Z M48.6809642,14.3276369 C48.3855802,14.3276369 48.2378904,14.6530072 48.2378904,15.3037574 C48.2378904,15.9126332 48.3827509,16.2170665 48.6724762,16.2170665 C48.9576746,16.2170665 49.1002716,15.9075404 49.1002716,15.2884789 C49.1002716,14.6479144 48.9605039,14.3276369 48.6809642,14.3276369 Z M51.6330919,14 L51.6330919,16.4886827 L51.2392485,16.4886827 L51.2392485,14.4821186 C51.1679489,14.5330469 51.0912747,14.5763353 51.0092236,14.6119851 C50.9271725,14.6476349 50.8335225,14.6790402 50.7282707,14.7062019 L50.7282707,14.370077 C50.7939116,14.3485739 50.8572881,14.3259395 50.918402,14.3021729 C50.9795159,14.2784064 51.0397801,14.2518109 51.0991965,14.2223857 C51.1586128,14.1929605 51.2185941,14.1601405 51.2791421,14.1239249 C51.3396902,14.0877092 51.4022179,14.0464013 51.466727,14 L51.6330919,14 Z M53.8824129,16.5294251 C53.6289032,16.5294251 53.4311347,16.4258725 53.2891014,16.2187641 C53.1470681,16.0116558 53.0760525,15.7123152 53.0760525,15.3207334 C53.0760525,14.8906724 53.1501803,14.5653021 53.2984382,14.3446129 C53.4466961,14.1239237 53.6605916,14.0135808 53.9401313,14.0135808 C54.4754441,14.0135808 54.7430964,14.4294888 54.7430964,15.2613173 C54.7430964,15.6732705 54.6675539,15.9876064 54.5164667,16.2043345 C54.3653795,16.4210626 54.1540303,16.5294251 53.8824129,16.5294251 Z M53.9214577,14.3276369 C53.6260737,14.3276369 53.4783839,14.6530072 53.4783839,15.3037574 C53.4783839,15.9126332 53.6232444,16.2170665 53.9129697,16.2170665 C54.198168,16.2170665 54.3407651,15.9075404 54.3407651,15.2884789 C54.3407651,14.6479144 54.2009973,14.3276369 53.9214577,14.3276369 Z M56.8735853,14 L56.8735853,16.4886827 L56.479742,16.4886827 L56.479742,14.4821186 C56.4084424,14.5330469 56.3317682,14.5763353 56.2497171,14.6119851 C56.167666,14.6476349 56.0740159,14.6790402 55.9687641,14.7062019 L55.9687641,14.370077 C56.034405,14.3485739 56.0977815,14.3259395 56.1588954,14.3021729 C56.2200094,14.2784064 56.2802736,14.2518109 56.3396899,14.2223857 C56.3991062,14.1929605 56.4590875,14.1601405 56.5196356,14.1239249 C56.5801836,14.0877092 56.6427113,14.0464013 56.7072205,14 L56.8735853,14 Z M59.1229063,16.5294251 C58.8693967,16.5294251 58.6716281,16.4258725 58.5295948,16.2187641 C58.3875615,16.0116558 58.3165459,15.7123152 58.3165459,15.3207334 C58.3165459,14.8906724 58.3906738,14.5653021 58.5389316,14.3446129 C58.6871895,14.1239237 58.9010851,14.0135808 59.1806247,14.0135808 C59.7159375,14.0135808 59.9835899,14.4294888 59.9835899,15.2613173 C59.9835899,15.6732705 59.9080474,15.9876064 59.7569602,16.2043345 C59.6058729,16.4210626 59.3945238,16.5294251 59.1229063,16.5294251 Z M59.1619511,14.3276369 C58.8665671,14.3276369 58.7188773,14.6530072 58.7188773,15.3037574 C58.7188773,15.9126332 58.8637378,16.2170665 59.1534631,16.2170665 C59.4386615,16.2170665 59.5812585,15.9075404 59.5812585,15.2884789 C59.5812585,14.6479144 59.4414908,14.3276369 59.1619511,14.3276369 Z M62.1140788,14 L62.1140788,16.4886827 L61.7202354,16.4886827 L61.7202354,14.4821186 C61.6489358,14.5330469 61.5722616,14.5763353 61.4902105,14.6119851 C61.4081594,14.6476349 61.3145094,14.6790402 61.2092576,14.7062019 L61.2092576,14.370077 C61.2748985,14.3485739 61.3382749,14.3259395 61.3993889,14.3021729 C61.4605028,14.2784064 61.520767,14.2518109 61.5801833,14.2223857 C61.6395997,14.1929605 61.699581,14.1601405 61.760129,14.1239249 C61.8206771,14.0877092 61.8832047,14.0464013 61.9477139,14 L62.1140788,14 Z M35.9116116,18.7804436 L35.9116116,21.2691263 L35.5177682,21.2691263 L35.5177682,19.2625622 C35.4464686,19.3134905 35.3697944,19.3567789 35.2877433,19.3924287 C35.2056922,19.4280785 35.1120422,19.4594838 35.0067904,19.4866455 L35.0067904,19.1505206 C35.0724313,19.1290175 35.1358078,19.1063831 35.1969217,19.0826166 C35.2580356,19.05885 35.3182998,19.0322546 35.3777162,19.0028293 C35.4371325,18.9734041 35.4971138,18.9405842 35.5576618,18.9043685 C35.6182099,18.8681528 35.6807376,18.826845 35.7452467,18.7804436 L35.9116116,18.7804436 Z M38.2661838,21.2691263 L37.8723404,21.2691263 L37.8723404,19.2625622 C37.8010408,19.3134905 37.7243666,19.3567789 37.6423155,19.3924287 C37.5602644,19.4280785 37.4666144,19.4594838 37.3613626,19.4866455 L37.3613626,19.1505206 C37.4270035,19.1290175 37.49038,19.1063831 37.5514939,19.0826166 C37.6126078,19.05885 37.672872,19.0322546 37.7322884,19.0028293 C37.7917047,18.9734041 37.851686,18.9405842 37.912234,18.9043685 C37.9727821,18.8681528 38.0353098,18.826845 38.0998189,18.7804436 L38.2661838,21.2691263 Z M40.5155048,21.3098687 C40.2619951,21.3098687 40.0642266,21.2063161 39.9221933,20.9992078 C39.78016,20.7920995 39.7091444,20.4927589 39.7091444,20.101177 C39.7091444,19.671116 39.7832722,19.3457458 39.9315301,19.1250566 C40.079788,18.9043674 40.2936835,18.7940244 40.5732232,18.7940244 C41.1085359,18.7940244 41.3761883,19.2099325 41.3761883,20.041761 C41.3761883,20.4537141 41.3006458,20.7680501 41.1495586,20.9847782 C40.9984714,21.2015063 40.7871222,21.3098687 40.5155048,21.3098687 Z M40.5545496,19.1080806 C40.2591656,19.1080806 40.1114758,19.4334508 40.1114758,20.084201 C40.1114758,20.6930768 40.2563363,20.9975102 40.5460616,20.9975102 C40.8312599,20.9975102 40.9738569,20.6879841 40.9738569,20.0689226 C40.9738569,19.428358 40.8340892,19.1080806 40.5545496,19.1080806 Z M43.5066772,18.7804436 L43.5066772,21.2691263 L43.1128339,21.2691263 L43.1128339,19.2625622 C43.0415343,19.3134905 42.9648601,19.3567789 42.882809,19.3924287 C42.8007579,19.4280785 42.7071078,19.4594838 42.601856,19.4866455 L42.601856,19.1505206 C42.6674969,19.1290175 42.7308734,19.1063831 42.7919873,19.0826166 C42.8531013,19.05885 42.9133655,19.0322546 42.9727818,19.0028293 C43.0321981,18.9734041 43.0921794,18.9405842 43.1527275,18.9043685 C43.2132755,18.8681528 43.2758032,18.826845 43.3403124,18.7804436 L43.5066772,18.7804436 Z M45.7559982,21.3098687 C45.5024885,21.3098687 45.30472,21.2063161 45.1626867,20.9992078 C45.0206534,20.7920995 44.9496378,20.4927589 44.9496378,20.101177 C44.9496378,19.671116 45.0237657,19.3457458 45.1720235,19.1250566 C45.3202814,18.9043674 45.534177,18.7940244 45.8137166,18.7940244 C46.3490294,18.7940244 46.6166818,19.2099325 46.6166818,20.041761 C46.6166818,20.4537141 46.5411393,20.7680501 46.3900521,20.9847782 C46.2389648,21.2015063 46.0276157,21.3098687 45.7559982,21.3098687 Z M45.795043,19.1080806 C45.499659,19.1080806 45.3519692,19.4334508 45.3519692,20.084201 C45.3519692,20.6930768 45.4968297,20.9975102 45.786555,20.9975102 C46.0717533,20.9975102 46.2143504,20.6879841 46.2143504,20.0689226 C46.2143504,19.428358 46.0745827,19.1080806 45.795043,19.1080806 Z M48.7471707,18.7804436 L48.7471707,21.2691263 L48.3533273,21.2691263 L48.3533273,19.2625622 C48.2820277,19.3134905 48.2053535,19.3567789 48.1233024,19.3924287 C48.0412513,19.4280785 47.9476013,19.4594838 47.8423495,19.4866455 L47.8423495,19.1505206 C47.9079904,19.1290175 47.9713668,19.1063831 48.0324808,19.0826166 C48.0935947,19.05885 48.1538589,19.0322546 48.2132752,19.0028293 C48.2726916,18.9734041 48.3326729,18.9405842 48.3932209,18.9043685 C48.453769,18.8681528 48.5162966,18.826845 48.5808058,18.7804436 L48.7471707,18.7804436 Z M50.9964916,21.3098687 C50.742982,21.3098687 50.5452135,21.2063161 50.4031802,20.9992078 C50.2611469,20.7920995 50.1901313,20.4927589 50.1901313,20.101177 C50.1901313,19.671116 50.2642591,19.3457458 50.412517,19.1250566 C50.5607748,18.9043674 50.7746704,18.7940244 51.05421,18.7940244 C51.5895228,18.7940244 51.8571752,19.2099325 51.8571752,20.041761 C51.8571752,20.4537141 51.7816327,20.7680501 51.6305455,20.9847782 C51.4794583,21.2015063 51.2681091,21.3098687 50.9964916,21.3098687 Z M51.0355364,19.1080806 C50.7401524,19.1080806 50.5924627,19.4334508 50.5924627,20.084201 C50.5924627,20.6930768 50.7373231,20.9975102 51.0270484,20.9975102 C51.3122468,20.9975102 51.4548438,20.6879841 51.4548438,20.0689226 C51.4548438,19.428358 51.3150761,19.1080806 51.0355364,19.1080806 Z M53.9876641,18.7804436 L53.9876641,21.2691263 L53.5938207,21.2691263 L53.5938207,19.2625622 C53.5225211,19.3134905 53.4458469,19.3567789 53.3637958,19.3924287 C53.2817447,19.4280785 53.1880947,19.4594838 53.0828429,19.4866455 L53.0828429,19.1505206 C53.1484838,19.1290175 53.2118603,19.1063831 53.2729742,19.0826166 C53.3340881,19.05885 53.3943524,19.0322546 53.4537687,19.0028293 C53.513185,18.9734041 53.5731663,18.9405842 53.6337144,18.9043685 C53.6942624,18.8681528 53.7567901,18.826845 53.8212992,18.7804436 L53.9876641,18.7804436 Z M56.2369851,21.3098687 C55.9834754,21.3098687 55.7857069,21.2063161 55.6436736,20.9992078 C55.5016403,20.7920995 55.4306247,20.4927589 55.4306247,20.101177 C55.4306247,19.671116 55.5047525,19.3457458 55.6530104,19.1250566 C55.8012683,18.9043674 56.0151638,18.7940244 56.2947035,18.7940244 C56.8300163,18.7940244 57.0976686,19.2099325 57.0976686,20.041761 C57.0976686,20.4537141 57.0221262,20.7680501 56.8710389,20.9847782 C56.7199517,21.2015063 56.5086025,21.3098687 56.2369851,21.3098687 Z M56.2760299,19.1080806 C55.9806459,19.1080806 55.8329561,19.4334508 55.8329561,20.084201 C55.8329561,20.6930768 55.9778166,20.9975102 56.2675419,20.9975102 C56.5527402,20.9975102 56.6953373,20.6879841 56.6953373,20.0689226 C56.6953373,19.428358 56.5555695,19.1080806 56.2760299,19.1080806 Z M59.2281575,18.7804436 L59.2281575,21.2691263 L58.8343142,21.2691263 L58.8343142,19.2625622 C58.7630146,19.3134905 58.6863404,19.3567789 58.6042893,19.3924287 C58.5222382,19.4280785 58.4285881,19.4594838 58.3233364,19.4866455 L58.3233364,19.1505206 C58.3889772,19.1290175 58.4523537,19.1063831 58.5134676,19.0826166 C58.5745816,19.05885 58.6348458,19.0322546 58.6942621,19.0028293 C58.7536784,18.9734041 58.8136597,18.9405842 58.8742078,18.9043685 C58.9347558,18.8681528 58.9972835,18.826845 59.0617927,18.7804436 L59.2281575,18.7804436 Z M61.4774785,21.3098687 C61.2239689,21.3098687 61.0262003,21.2063161 60.884167,20.9992078 C60.7421337,20.7920995 60.6711182,20.4927589 60.6711182,20.101177 C60.6711182,19.671116 60.745246,19.3457458 60.8935038,19.1250566 C61.0417617,18.9043674 61.2556573,18.7940244 61.5351969,18.7940244 C62.0705097,18.7940244 62.3381621,19.2099325 62.3381621,20.041761 C62.3381621,20.4537141 62.2626196,20.7680501 62.1115324,20.9847782 C61.9604451,21.2015063 61.749096,21.3098687 61.4774785,21.3098687 Z M61.5165233,19.1080806 C61.2211393,19.1080806 61.0734495,19.4334508 61.0734495,20.084201 C61.0734495,20.6930768 61.21831,20.9975102 61.5080353,20.9975102 C61.7932337,20.9975102 61.9358307,20.6879841 61.9358307,20.0689226 C61.9358307,19.428358 61.796063,19.1080806 61.5165233,19.1080806 Z M64.468651,18.7804436 L64.468651,21.2691263 L64.0748076,21.2691263 L64.0748076,19.2625622 C64.003508,19.3134905 63.9268338,19.3567789 63.8447827,19.3924287 C63.7627316,19.4280785 63.6690816,19.4594838 63.5638298,19.4866455 L63.5638298,19.1505206 C63.6294707,19.1290175 63.6928471,19.1063831 63.7539611,19.0826166 C63.815075,19.05885 63.8753392,19.0322546 63.9347555,19.0028293 C63.9941719,18.9734041 64.0541532,18.9405842 64.1147012,18.9043685 C64.1752493,18.8681528 64.237777,18.826845 64.3022861,18.7804436 L64.468651,18.7804436 Z M35.8063603,26.0903124 C35.5528507,26.0903124 35.3550822,25.9867597 35.2130489,25.7796514 C35.0710156,25.5725431 35,25.2732025 35,24.8816206 C35,24.4515596 35.0741278,24.1261894 35.2223857,23.9055002 C35.3706436,23.684811 35.5845391,23.5744681 35.8640788,23.5744681 C36.3993915,23.5744681 36.6670439,23.9903761 36.6670439,24.8222046 C36.6670439,25.2341578 36.5915014,25.5484937 36.4404142,25.7652218 C36.289327,25.9819499 36.0779778,26.0903124 35.8063603,26.0903124 Z M35.8454052,23.8885242 C35.5500212,23.8885242 35.4023314,24.2138944 35.4023314,24.8646446 C35.4023314,25.4735205 35.5471919,25.7779538 35.8369172,25.7779538 C36.1221155,25.7779538 36.2647125,25.4684277 36.2647125,24.8493662 C36.2647125,24.2088017 36.1249448,23.8885242 35.8454052,23.8885242 Z M38.7975328,23.5608873 L38.7975328,26.0495699 L38.4036895,26.0495699 L38.4036895,24.0430059 C38.3323899,24.0939342 38.2557157,24.1372225 38.1736646,24.1728723 C38.0916134,24.2085221 37.9979634,24.2399274 37.8927116,24.2670892 L37.8927116,23.9309642 C37.9583525,23.9094612 38.021729,23.8868267 38.0828429,23.8630602 C38.1439568,23.8392937 38.2042211,23.8126982 38.2636374,23.783273 C38.3230537,23.7538477 38.383035,23.7210278 38.4435831,23.6848121 C38.5041311,23.6485965 38.5666588,23.6072886 38.6311679,23.5608873 L38.7975328,23.5608873 Z M41.0468538,26.0903124 C40.7933441,26.0903124 40.5955756,25.9867597 40.4535423,25.7796514 C40.311509,25.5725431 40.2404934,25.2732025 40.2404934,24.8816206 C40.2404934,24.4515596 40.3146213,24.1261894 40.4628791,23.9055002 C40.611137,23.684811 40.8250326,23.5744681 41.1045722,23.5744681 C41.639885,23.5744681 41.9075373,23.9903761 41.9075373,24.8222046 C41.9075373,25.2341578 41.8319949,25.5484937 41.6809077,25.7652218 C41.5298204,25.9819499 41.3184713,26.0903124 41.0468538,26.0903124 Z M41.0858986,23.8885242 C40.7905146,23.8885242 40.6428248,24.2138944 40.6428248,24.8646446 C40.6428248,25.4735205 40.7876853,25.7779538 41.0774106,25.7779538 C41.3626089,25.7779538 41.505206,25.4684277 41.505206,24.8493662 C41.505206,24.2088017 41.3654382,23.8885242 41.0858986,23.8885242 Z M44.0380263,23.5608873 L44.0380263,26.0495699 L43.6441829,26.0495699 L43.6441829,24.0430059 C43.5728833,24.0939342 43.4962091,24.1372225 43.414158,24.1728723 C43.3321069,24.2085221 43.2384568,24.2399274 43.1332051,24.2670892 L43.1332051,23.9309642 C43.198846,23.9094612 43.2622224,23.8868267 43.3233364,23.8630602 C43.3844503,23.8392937 43.4447145,23.8126982 43.5041308,23.783273 C43.5635472,23.7538477 43.6235284,23.7210278 43.6840765,23.6848121 C43.7446246,23.6485965 43.8071522,23.6072886 43.8716614,23.5608873 L44.0380263,23.5608873 Z M46.2873472,26.0903124 C46.0338376,26.0903124 45.8360691,25.9867597 45.6940358,25.7796514 C45.5520025,25.5725431 45.4809869,25.2732025 45.4809869,24.8816206 C45.4809869,24.4515596 45.5551147,24.1261894 45.7033726,23.9055002 C45.8516304,23.684811 46.065526,23.5744681 46.3450656,23.5744681 C46.8803784,23.5744681 47.1480308,23.9903761 47.1480308,24.8222046 C47.1480308,25.2341578 47.0724883,25.5484937 46.9214011,25.7652218 C46.7703139,25.9819499 46.5589647,26.0903124 46.2873472,26.0903124 Z M46.326392,23.8885242 C46.031008,23.8885242 45.8833182,24.2138944 45.8833182,24.8646446 C45.8833182,25.4735205 46.0281787,25.7779538 46.317904,25.7779538 C46.6031024,25.7779538 46.7456994,25.4684277 46.7456994,24.8493662 C46.7456994,24.2088017 46.6059317,23.8885242 46.326392,23.8885242 Z M49.2785197,23.5608873 L49.2785197,26.0495699 L48.8846763,26.0495699 L48.8846763,24.0430059 C48.8133767,24.0939342 48.7367025,24.1372225 48.6546514,24.1728723 C48.5726003,24.2085221 48.4789503,24.2399274 48.3736985,24.2670892 L48.3736985,23.9309642 C48.4393394,23.9094612 48.5027159,23.8868267 48.5638298,23.8630602 C48.6249437,23.8392937 48.6852079,23.8126982 48.7446243,23.783273 C48.8040406,23.7538477 48.8640219,23.7210278 48.9245699,23.6848121 C48.985118,23.6485965 49.0476457,23.6072886 49.1121548,23.5608873 L49.2785197,23.5608873 Z M51.5278407,26.0903124 C51.274331,26.0903124 51.0765625,25.9867597 50.9345292,25.7796514 C50.7924959,25.5725431 50.7214803,25.2732025 50.7214803,24.8816206 C50.7214803,24.4515596 50.7956081,24.1261894 50.943866,23.9055002 C51.0921239,23.684811 51.3060194,23.5744681 51.5855591,23.5744681 C52.1208718,23.5744681 52.3885242,23.9903761 52.3885242,24.8222046 C52.3885242,25.2341578 52.3129817,25.5484937 52.1618945,25.7652218 C52.0108073,25.9819499 51.7994581,26.0903124 51.5278407,26.0903124 Z M51.5668855,23.8885242 C51.2715015,23.8885242 51.1238117,24.2138944 51.1238117,24.8646446 C51.1238117,25.4735205 51.2686722,25.7779538 51.5583975,25.7779538 C51.8435958,25.7779538 51.9861928,25.4684277 51.9861928,24.8493662 C51.9861928,24.2088017 51.8464251,23.8885242 51.5668855,23.8885242 Z M54.5190131,23.5608873 L54.5190131,26.0495699 L54.1251698,26.0495699 L54.1251698,24.0430059 C54.0538702,24.0939342 53.977196,24.1372225 53.8951449,24.1728723 C53.8130938,24.2085221 53.7194437,24.2399274 53.6141919,24.2670892 L53.6141919,23.9309642 C53.6798328,23.9094612 53.7432093,23.8868267 53.8043232,23.8630602 C53.8654372,23.8392937 53.9257014,23.8126982 53.9851177,23.783273 C54.044534,23.7538477 54.1045153,23.7210278 54.1650634,23.6848121 C54.2256114,23.6485965 54.2881391,23.6072886 54.3526483,23.5608873 L54.5190131,23.5608873 Z M56.7683341,26.0903124 C56.5148244,26.0903124 56.3170559,25.9867597 56.1750226,25.7796514 C56.0329893,25.5725431 55.9619737,25.2732025 55.9619737,24.8816206 C55.9619737,24.4515596 56.0361016,24.1261894 56.1843594,23.9055002 C56.3326173,23.684811 56.5465129,23.5744681 56.8260525,23.5744681 C57.3613653,23.5744681 57.6290177,23.9903761 57.6290177,24.8222046 C57.6290177,25.2341578 57.5534752,25.5484937 57.402388,25.7652218 C57.2513007,25.9819499 57.0399516,26.0903124 56.7683341,26.0903124 Z M56.8073789,23.8885242 C56.5119949,23.8885242 56.3643051,24.2138944 56.3643051,24.8646446 C56.3643051,25.4735205 56.5091656,25.7779538 56.7988909,25.7779538 C57.0840892,25.7779538 57.2266863,25.4684277 57.2266863,24.8493662 C57.2266863,24.2088017 57.0869186,23.8885242 56.8073789,23.8885242 Z M59.7595066,23.5608873 L59.7595066,26.0495699 L59.3656632,26.0495699 L59.3656632,24.0430059 C59.2943636,24.0939342 59.2176894,24.1372225 59.1356383,24.1728723 C59.0535872,24.2085221 58.9599371,24.2399274 58.8546854,24.2670892 L58.8546854,23.9309642 C58.9203263,23.9094612 58.9837027,23.8868267 59.0448167,23.8630602 C59.1059306,23.8392937 59.1661948,23.8126982 59.2256111,23.783273 C59.2850275,23.7538477 59.3450088,23.7210278 59.4055568,23.6848121 C59.4661049,23.6485965 59.5286325,23.6072886 59.5931417,23.5608873 L59.7595066,23.5608873 Z M62.0088275,26.0903124 C61.7553179,26.0903124 61.5575494,25.9867597 61.4155161,25.7796514 C61.2734828,25.5725431 61.2024672,25.2732025 61.2024672,24.8816206 C61.2024672,24.4515596 61.276595,24.1261894 61.4248529,23.9055002 C61.5731107,23.684811 61.7870063,23.5744681 62.0665459,23.5744681 C62.6018587,23.5744681 62.8695111,23.9903761 62.8695111,24.8222046 C62.8695111,25.2341578 62.7939686,25.5484937 62.6428814,25.7652218 C62.4917942,25.9819499 62.280445,26.0903124 62.0088275,26.0903124 Z M62.0478723,23.8885242 C61.7524883,23.8885242 61.6047986,24.2138944 61.6047986,24.8646446 C61.6047986,25.4735205 61.749659,25.7779538 62.0393843,25.7779538 C62.3245827,25.7779538 62.4671797,25.4684277 62.4671797,24.8493662 C62.4671797,24.2088017 62.327412,23.8885242 62.0478723,23.8885242 Z M65,23.5608873 L65,26.0495699 L64.6061566,26.0495699 L64.6061566,24.0430059 C64.534857,24.0939342 64.4581828,24.1372225 64.3761317,24.1728723 C64.2940806,24.2085221 64.2004306,24.2399274 64.0951788,24.2670892 L64.0951788,23.9309642 C64.1608197,23.9094612 64.2241962,23.8868267 64.2853101,23.8630602 C64.346424,23.8392937 64.4066882,23.8126982 64.4661046,23.783273 C64.5255209,23.7538477 64.5855022,23.7210278 64.6460502,23.6848121 C64.7065983,23.6485965 64.769126,23.6072886 64.8336351,23.5608873 L65,23.5608873 Z M35.8063603,30.870756 C35.5528507,30.870756 35.3550822,30.7672034 35.2130489,30.5600951 C35.0710156,30.3529867 35,30.0536461 35,29.6620643 C35,29.2320033 35.0741278,28.9066331 35.2223857,28.6859439 C35.3706436,28.4652547 35.5845391,28.3549117 35.8640788,28.3549117 C36.3993915,28.3549117 36.6670439,28.7708197 36.6670439,29.6026483 C36.6670439,30.0146014 36.5915014,30.3289374 36.4404142,30.5456655 C36.289327,30.7623936 36.0779778,30.870756 35.8063603,30.870756 Z M35.8454052,28.6689679 C35.5500212,28.6689679 35.4023314,28.9943381 35.4023314,29.6450883 C35.4023314,30.2539641 35.5471919,30.5583975 35.8369172,30.5583975 C36.1221155,30.5583975 36.2647125,30.2488714 36.2647125,29.6298099 C36.2647125,28.9892453 36.1249448,28.6689679 35.8454052,28.6689679 Z M38.7975328,28.3413309 L38.7975328,30.8300136 L38.4036895,30.8300136 L38.4036895,28.8234495 C38.3323899,28.8743778 38.2557157,28.9176662 38.1736646,28.953316 C38.0916134,28.9889658 37.9979634,29.0203711 37.8927116,29.0475328 L37.8927116,28.7114079 C37.9583525,28.6899048 38.021729,28.6672704 38.0828429,28.6435038 C38.1439568,28.6197373 38.2042211,28.5931418 38.2636374,28.5637166 C38.3230537,28.5342914 38.383035,28.5014714 38.4435831,28.4652558 C38.5041311,28.4290401 38.5666588,28.3877322 38.6311679,28.3413309 L38.7975328,28.3413309 Z M41.0468538,30.870756 C40.7933441,30.870756 40.5955756,30.7672034 40.4535423,30.5600951 C40.311509,30.3529867 40.2404934,30.0536461 40.2404934,29.6620643 C40.2404934,29.2320033 40.3146213,28.9066331 40.4628791,28.6859439 C40.611137,28.4652547 40.8250326,28.3549117 41.1045722,28.3549117 C41.639885,28.3549117 41.9075373,28.7708197 41.9075373,29.6026483 C41.9075373,30.0146014 41.8319949,30.3289374 41.6809077,30.5456655 C41.5298204,30.7623936 41.3184713,30.870756 41.0468538,30.870756 Z M41.0858986,28.6689679 C40.7905146,28.6689679 40.6428248,28.9943381 40.6428248,29.6450883 C40.6428248,30.2539641 40.7876853,30.5583975 41.0774106,30.5583975 C41.3626089,30.5583975 41.505206,30.2488714 41.505206,29.6298099 C41.505206,28.9892453 41.3654382,28.6689679 41.0858986,28.6689679 Z M44.0380263,28.3413309 L44.0380263,30.8300136 L43.6441829,30.8300136 L43.6441829,28.8234495 C43.5728833,28.8743778 43.4962091,28.9176662 43.414158,28.953316 C43.3321069,28.9889658 43.2384568,29.0203711 43.1332051,29.0475328 L43.1332051,28.7114079 C43.198846,28.6899048 43.2622224,28.6672704 43.3233364,28.6435038 C43.3844503,28.6197373 43.4447145,28.5931418 43.5041308,28.5637166 C43.5635472,28.5342914 43.6235284,28.5014714 43.6840765,28.4652558 C43.7446246,28.4290401 43.8071522,28.3877322 43.8716614,28.3413309 L44.0380263,28.3413309 Z M46.2873472,30.870756 C46.0338376,30.870756 45.8360691,30.7672034 45.6940358,30.5600951 C45.5520025,30.3529867 45.4809869,30.0536461 45.4809869,29.6620643 C45.4809869,29.2320033 45.5551147,28.9066331 45.7033726,28.6859439 C45.8516304,28.4652547 46.065526,28.3549117 46.3450656,28.3549117 C46.8803784,28.3549117 47.1480308,28.7708197 47.1480308,29.6026483 C47.1480308,30.0146014 47.0724883,30.3289374 46.9214011,30.5456655 C46.7703139,30.7623936 46.5589647,30.870756 46.2873472,30.870756 Z M46.326392,28.6689679 C46.031008,28.6689679 45.8833182,28.9943381 45.8833182,29.6450883 C45.8833182,30.2539641 46.0281787,30.5583975 46.317904,30.5583975 C46.6031024,30.5583975 46.7456994,30.2488714 46.7456994,29.6298099 C46.7456994,28.9892453 46.6059317,28.6689679 46.326392,28.6689679 Z M49.2785197,28.3413309 L49.2785197,30.8300136 L48.8846763,30.8300136 L48.8846763,28.8234495 C48.8133767,28.8743778 48.7367025,28.9176662 48.6546514,28.953316 C48.5726003,28.9889658 48.4789503,29.0203711 48.3736985,29.0475328 L48.3736985,28.7114079 C48.4393394,28.6899048 48.5027159,28.6672704 48.5638298,28.6435038 C48.6249437,28.6197373 48.6852079,28.5931418 48.7446243,28.5637166 C48.8040406,28.5342914 48.8640219,28.5014714 48.9245699,28.4652558 C48.985118,28.4290401 49.0476457,28.3877322 49.1121548,28.3413309 L49.2785197,28.3413309 Z M51.5278407,30.870756 C51.274331,30.870756 51.0765625,30.7672034 50.9345292,30.5600951 C50.7924959,30.3529867 50.7214803,30.0536461 50.7214803,29.6620643 C50.7214803,29.2320033 50.7956081,28.9066331 50.943866,28.6859439 C51.0921239,28.4652547 51.3060194,28.3549117 51.5855591,28.3549117 C52.1208718,28.3549117 52.3885242,28.7708197 52.3885242,29.6026483 C52.3885242,30.0146014 52.3129817,30.3289374 52.1618945,30.5456655 C52.0108073,30.7623936 51.7994581,30.870756 51.5278407,30.870756 Z M51.5668855,28.6689679 C51.2715015,28.6689679 51.1238117,28.9943381 51.1238117,29.6450883 C51.1238117,30.2539641 51.2686722,30.5583975 51.5583975,30.5583975 C51.8435958,30.5583975 51.9861928,30.2488714 51.9861928,29.6298099 C51.9861928,28.9892453 51.8464251,28.6689679 51.5668855,28.6689679 Z M54.5190131,28.3413309 L54.5190131,30.8300136 L54.1251698,30.8300136 L54.1251698,28.8234495 C54.0538702,28.8743778 53.977196,28.9176662 53.8951449,28.953316 C53.8130938,28.9889658 53.7194437,29.0203711 53.6141919,29.0475328 L53.6141919,28.7114079 C53.6798328,28.6899048 53.7432093,28.6672704 53.8043232,28.6435038 C53.8654372,28.6197373 53.9257014,28.5931418 53.9851177,28.5637166 C54.044534,28.5342914 54.1045153,28.5014714 54.1650634,28.4652558 C54.2256114,28.4290401 54.2881391,28.3877322 54.3526483,28.3413309 L54.5190131,28.3413309 Z M56.7683341,30.870756 C56.5148244,30.870756 56.3170559,30.7672034 56.1750226,30.5600951 C56.0329893,30.3529867 55.9619737,30.0536461 55.9619737,29.6620643 C55.9619737,29.2320033 56.0361016,28.9066331 56.1843594,28.6859439 C56.3326173,28.4652547 56.5465129,28.3549117 56.8260525,28.3549117 C57.3613653,28.3549117 57.6290177,28.7708197 57.6290177,29.6026483 C57.6290177,30.0146014 57.5534752,30.3289374 57.402388,30.5456655 C57.2513007,30.7623936 57.0399516,30.870756 56.7683341,30.870756 Z M56.8073789,28.6689679 C56.5119949,28.6689679 56.3643051,28.9943381 56.3643051,29.6450883 C56.3643051,30.2539641 56.5091656,30.5583975 56.7988909,30.5583975 C57.0840892,30.5583975 57.2266863,30.2488714 57.2266863,29.6298099 C57.2266863,28.9892453 57.0869186,28.6689679 56.8073789,28.6689679 Z M59.7595066,28.3413309 L59.7595066,30.8300136 L59.3656632,30.8300136 L59.3656632,28.8234495 C59.2943636,28.8743778 59.2176894,28.9176662 59.1356383,28.953316 C59.0535872,28.9889658 58.9599371,29.0203711 58.8546854,29.0475328 L58.8546854,28.7114079 C58.9203263,28.6899048 58.9837027,28.6672704 59.0448167,28.6435038 C59.1059306,28.6197373 59.1661948,28.5931418 59.2256111,28.5637166 C59.2850275,28.5342914 59.3450088,28.5014714 59.4055568,28.4652558 C59.4661049,28.4290401 59.5286325,28.3877322 59.5931417,28.3413309 L59.7595066,28.3413309 Z M62.0088275,30.870756 C61.7553179,30.870756 61.5575494,30.7672034 61.4155161,30.5600951 C61.2734828,30.3529867 61.2024672,30.0536461 61.2024672,29.6620643 C61.2024672,29.2320033 61.276595,28.9066331 61.4248529,28.6859439 C61.5731107,28.4652547 61.7870063,28.3549117 62.0665459,28.3549117 C62.6018587,28.3549117 62.8695111,28.7708197 62.8695111,29.6026483 C62.8695111,30.0146014 62.7939686,30.3289374 62.6428814,30.5456655 C62.4917942,30.7623936 62.280445,30.870756 62.0088275,30.870756 Z M62.0478723,28.6689679 C61.7524883,28.6689679 61.6047986,28.9943381 61.6047986,29.6450883 C61.6047986,30.2539641 61.749659,30.5583975 62.0393843,30.5583975 C62.3245827,30.5583975 62.4671797,30.2488714 62.4671797,29.6298099 C62.4671797,28.9892453 62.327412,28.6689679 62.0478723,28.6689679 Z M65,28.3413309 L65,30.8300136 L64.6061566,30.8300136 L64.6061566,28.8234495 C64.534857,28.8743778 64.4581828,28.9176662 64.3761317,28.953316 C64.2940806,28.9889658 64.2004306,29.0203711 64.0951788,29.0475328 L64.0951788,28.7114079 C64.1608197,28.6899048 64.2241962,28.6672704 64.2853101,28.6435038 C64.346424,28.6197373 64.4066882,28.5931418 64.4661046,28.5637166 C64.5255209,28.5342914 64.5855022,28.5014714 64.6460502,28.4652558 C64.7065983,28.4290401 64.769126,28.3877322 64.8336351,28.3413309 L65,28.3413309 Z M35.8063603,35.6511996 C35.5528507,35.6511996 35.3550822,35.547647 35.2130489,35.3405387 C35.0710156,35.1334304 35,34.8340898 35,34.4425079 C35,34.0124469 35.0741278,33.6870767 35.2223857,33.4663875 C35.3706436,33.2456983 35.5845391,33.1353554 35.8640788,33.1353554 C36.3993915,33.1353554 36.6670439,33.5512634 36.6670439,34.3830919 C36.6670439,34.7950451 36.5915014,35.109381 36.4404142,35.3261091 C36.289327,35.5428372 36.0779778,35.6511996 35.8063603,35.6511996 Z M35.8454052,33.4494115 C35.5500212,33.4494115 35.4023314,33.7747817 35.4023314,34.4255319 C35.4023314,35.0344078 35.5471919,35.3388411 35.8369172,35.3388411 C36.1221155,35.3388411 36.2647125,35.029315 36.2647125,34.4102535 C36.2647125,33.769689 36.1249448,33.4494115 35.8454052,33.4494115 Z M38.7975328,33.1217746 L38.7975328,35.6104572 L38.4036895,35.6104572 L38.4036895,33.6038932 C38.3323899,33.6548214 38.2557157,33.6981098 38.1736646,33.7337596 C38.0916134,33.7694094 37.9979634,33.8008147 37.8927116,33.8279765 L37.8927116,33.4918515 C37.9583525,33.4703485 38.021729,33.447714 38.0828429,33.4239475 C38.1439568,33.400181 38.2042211,33.3735855 38.2636374,33.3441603 C38.3230537,33.314735 38.383035,33.2819151 38.4435831,33.2456994 C38.5041311,33.2094837 38.5666588,33.1681759 38.6311679,33.1217746 L38.7975328,33.1217746 Z M41.0468538,35.6511996 C40.7933441,35.6511996 40.5955756,35.547647 40.4535423,35.3405387 C40.311509,35.1334304 40.2404934,34.8340898 40.2404934,34.4425079 C40.2404934,34.0124469 40.3146213,33.6870767 40.4628791,33.4663875 C40.611137,33.2456983 40.8250326,33.1353554 41.1045722,33.1353554 C41.639885,33.1353554 41.9075373,33.5512634 41.9075373,34.3830919 C41.9075373,34.7950451 41.8319949,35.109381 41.6809077,35.3261091 C41.5298204,35.5428372 41.3184713,35.6511996 41.0468538,35.6511996 Z M41.0858986,33.4494115 C40.7905146,33.4494115 40.6428248,33.7747817 40.6428248,34.4255319 C40.6428248,35.0344078 40.7876853,35.3388411 41.0774106,35.3388411 C41.3626089,35.3388411 41.505206,35.029315 41.505206,34.4102535 C41.505206,33.769689 41.3654382,33.4494115 41.0858986,33.4494115 Z M44.0380263,33.1217746 L44.0380263,35.6104572 L43.6441829,35.6104572 L43.6441829,33.6038932 C43.5728833,33.6548214 43.4962091,33.6981098 43.414158,33.7337596 C43.3321069,33.7694094 43.2384568,33.8008147 43.1332051,33.8279765 L43.1332051,33.4918515 C43.198846,33.4703485 43.2622224,33.447714 43.3233364,33.4239475 C43.3844503,33.400181 43.4447145,33.3735855 43.5041308,33.3441603 C43.5635472,33.314735 43.6235284,33.2819151 43.6840765,33.2456994 C43.7446246,33.2094837 43.8071522,33.1681759 43.8716614,33.1217746 L44.0380263,33.1217746 Z M46.2873472,35.6511996 C46.0338376,35.6511996 45.8360691,35.547647 45.6940358,35.3405387 C45.5520025,35.1334304 45.4809869,34.8340898 45.4809869,34.4425079 C45.4809869,34.0124469 45.5551147,33.6870767 45.7033726,33.4663875 C45.8516304,33.2456983 46.065526,33.1353554 46.3450656,33.1353554 C46.8803784,33.1353554 47.1480308,33.5512634 47.1480308,34.3830919 C47.1480308,34.7950451 47.0724883,35.109381 46.9214011,35.3261091 C46.7703139,35.5428372 46.5589647,35.6511996 46.2873472,35.6511996 Z M46.326392,33.4494115 C46.031008,33.4494115 45.8833182,33.7747817 45.8833182,34.4255319 C45.8833182,35.0344078 46.0281787,35.3388411 46.317904,35.3388411 C46.6031024,35.3388411 46.7456994,35.029315 46.7456994,34.4102535 C46.7456994,33.769689 46.6059317,33.4494115 46.326392,33.4494115 Z M49.2785197,33.1217746 L49.2785197,35.6104572 L48.8846763,35.6104572 L48.8846763,33.6038932 C48.8133767,33.6548214 48.7367025,33.6981098 48.6546514,33.7337596 C48.5726003,33.7694094 48.4789503,33.8008147 48.3736985,33.8279765 L48.3736985,33.4918515 C48.4393394,33.4703485 48.5027159,33.447714 48.5638298,33.4239475 C48.6249437,33.400181 48.6852079,33.3735855 48.7446243,33.3441603 C48.8040406,33.314735 48.8640219,33.2819151 48.9245699,33.2456994 C48.985118,33.2094837 49.0476457,33.1681759 49.1121548,33.1217746 L49.2785197,33.1217746 Z M51.5278407,35.6511996 C51.274331,35.6511996 51.0765625,35.547647 50.9345292,35.3405387 C50.7924959,35.1334304 50.7214803,34.8340898 50.7214803,34.4425079 C50.7214803,34.0124469 50.7956081,33.6870767 50.943866,33.4663875 C51.0921239,33.2456983 51.3060194,33.1353554 51.5855591,33.1353554 C52.1208718,33.1353554 52.3885242,33.5512634 52.3885242,34.3830919 C52.3885242,34.7950451 52.3129817,35.109381 52.1618945,35.3261091 C52.0108073,35.5428372 51.7994581,35.6511996 51.5278407,35.6511996 Z M51.5668855,33.4494115 C51.2715015,33.4494115 51.1238117,33.7747817 51.1238117,34.4255319 C51.1238117,35.0344078 51.2686722,35.3388411 51.5583975,35.3388411 C51.8435958,35.3388411 51.9861928,35.029315 51.9861928,34.4102535 C51.9861928,33.769689 51.8464251,33.4494115 51.5668855,33.4494115 Z M54.5190131,33.1217746 L54.5190131,35.6104572 L54.1251698,35.6104572 L54.1251698,33.6038932 C54.0538702,33.6548214 53.977196,33.6981098 53.8951449,33.7337596 C53.8130938,33.7694094 53.7194437,33.8008147 53.6141919,33.8279765 L53.6141919,33.4918515 C53.6798328,33.4703485 53.7432093,33.447714 53.8043232,33.4239475 C53.8654372,33.400181 53.9257014,33.3735855 53.9851177,33.3441603 C54.044534,33.314735 54.1045153,33.2819151 54.1650634,33.2456994 C54.2256114,33.2094837 54.2881391,33.1681759 54.3526483,33.1217746 L54.5190131,33.1217746 Z M56.7683341,35.6511996 C56.5148244,35.6511996 56.3170559,35.547647 56.1750226,35.3405387 C56.0329893,35.1334304 55.9619737,34.8340898 55.9619737,34.4425079 C55.9619737,34.0124469 56.0361016,33.6870767 56.1843594,33.4663875 C56.3326173,33.2456983 56.5465129,33.1353554 56.8260525,33.1353554 C57.3613653,33.1353554 57.6290177,33.5512634 57.6290177,34.3830919 C57.6290177,34.7950451 57.5534752,35.109381 57.402388,35.3261091 C57.2513007,35.5428372 57.0399516,35.6511996 56.7683341,35.6511996 Z M56.8073789,33.4494115 C56.5119949,33.4494115 56.3643051,33.7747817 56.3643051,34.4255319 C56.3643051,35.0344078 56.5091656,35.3388411 56.7988909,35.3388411 C57.0840892,35.3388411 57.2266863,35.029315 57.2266863,34.4102535 C57.2266863,33.769689 57.0869186,33.4494115 56.8073789,33.4494115 Z M59.7595066,33.1217746 L59.7595066,35.6104572 L59.3656632,35.6104572 L59.3656632,33.6038932 C59.2943636,33.6548214 59.2176894,33.6981098 59.1356383,33.7337596 C59.0535872,33.7694094 58.9599371,33.8008147 58.8546854,33.8279765 L58.8546854,33.4918515 C58.9203263,33.4703485 58.9837027,33.447714 59.0448167,33.4239475 C59.1059306,33.400181 59.1661948,33.3735855 59.2256111,33.3441603 C59.2850275,33.314735 59.3450088,33.2819151 59.4055568,33.2456994 C59.4661049,33.2094837 59.5286325,33.1681759 59.5931417,33.1217746 L59.7595066,33.1217746 Z M62.0088275,35.6511996 C61.7553179,35.6511996 61.5575494,35.547647 61.4155161,35.3405387 C61.2734828,35.1334304 61.2024672,34.8340898 61.2024672,34.4425079 C61.2024672,34.0124469 61.276595,33.6870767 61.4248529,33.4663875 C61.5731107,33.2456983 61.7870063,33.1353554 62.0665459,33.1353554 C62.6018587,33.1353554 62.8695111,33.5512634 62.8695111,34.3830919 C62.8695111,34.7950451 62.7939686,35.109381 62.6428814,35.3261091 C62.4917942,35.5428372 62.280445,35.6511996 62.0088275,35.6511996 Z M62.0478723,33.4494115 C61.7524883,33.4494115 61.6047986,33.7747817 61.6047986,34.4255319 C61.6047986,35.0344078 61.749659,35.3388411 62.0393843,35.3388411 C62.3245827,35.3388411 62.4671797,35.029315 62.4671797,34.4102535 C62.4671797,33.769689 62.327412,33.4494115 62.0478723,33.4494115 Z M65,33.1217746 L65,35.6104572 L64.6061566,35.6104572 L64.6061566,33.6038932 C64.534857,33.6548214 64.4581828,33.6981098 64.3761317,33.7337596 C64.2940806,33.7694094 64.2004306,33.8008147 64.0951788,33.8279765 L64.0951788,33.4918515 C64.1608197,33.4703485 64.2241962,33.447714 64.2853101,33.4239475 C64.346424,33.400181 64.4066882,33.3735855 64.4661046,33.3441603 C64.5255209,33.314735 64.5855022,33.2819151 64.6460502,33.2456994 C64.7065983,33.2094837 64.769126,33.1681759 64.8336351,33.1217746 L65,33.1217746 Z M38.7975328,37.9022182 L38.7975328,40.3909009 L38.4036895,40.3909009 L38.4036895,38.3843368 C38.3323899,38.4352651 38.2557157,38.4785535 38.1736646,38.5142033 C38.0916134,38.5498531 37.9979634,38.5812584 37.8927116,38.6084201 L37.8927116,38.2722952 C37.9583525,38.2507921 38.021729,38.2281577 38.0828429,38.2043911 C38.1439568,38.1806246 38.2042211,38.1540291 38.2636374,38.1246039 C38.3230537,38.0951787 38.383035,38.0623587 38.4435831,38.0261431 C38.5041311,37.9899274 38.5666588,37.9486195 38.6311679,37.9022182 L38.7975328,37.9022182 Z M41.0468538,40.4316433 C40.7933441,40.4316433 40.5955756,40.3280907 40.4535423,40.1209823 C40.311509,39.913874 40.2404934,39.6145334 40.2404934,39.2229516 C40.2404934,38.7928906 40.3146213,38.4675203 40.4628791,38.2468311 C40.611137,38.0261419 40.8250326,37.915799 41.1045722,37.915799 C41.639885,37.915799 41.9075373,38.331707 41.9075373,39.1635355 C41.9075373,39.5754887 41.8319949,39.8898246 41.6809077,40.1065527 C41.5298204,40.3232808 41.3184713,40.4316433 41.0468538,40.4316433 Z M41.0858986,38.2298551 C40.7905146,38.2298551 40.6428248,38.5552254 40.6428248,39.2059756 C40.6428248,39.8148514 40.7876853,40.1192847 41.0774106,40.1192847 C41.3626089,40.1192847 41.505206,39.8097586 41.505206,39.1906971 C41.505206,38.5501326 41.3654382,38.2298551 41.0858986,38.2298551 Z M44.0380263,37.9022182 L44.0380263,40.3909009 L43.6441829,40.3909009 L43.6441829,38.3843368 C43.5728833,38.4352651 43.4962091,38.4785535 43.414158,38.5142033 C43.3321069,38.5498531 43.2384568,38.5812584 43.1332051,38.6084201 L43.1332051,38.2722952 C43.198846,38.2507921 43.2622224,38.2281577 43.3233364,38.2043911 C43.3844503,38.1806246 43.4447145,38.1540291 43.5041308,38.1246039 C43.5635472,38.0951787 43.6235284,38.0623587 43.6840765,38.0261431 C43.7446246,37.9899274 43.8071522,37.9486195 43.8716614,37.9022182 L44.0380263,37.9022182 Z M46.2873472,40.4316433 C46.0338376,40.4316433 45.8360691,40.3280907 45.6940358,40.1209823 C45.5520025,39.913874 45.4809869,39.6145334 45.4809869,39.2229516 C45.4809869,38.7928906 45.5551147,38.4675203 45.7033726,38.2468311 C45.8516304,38.0261419 46.065526,37.915799 46.3450656,37.915799 C46.8803784,37.915799 47.1480308,38.331707 47.1480308,39.1635355 C47.1480308,39.5754887 47.0724883,39.8898246 46.9214011,40.1065527 C46.7703139,40.3232808 46.5589647,40.4316433 46.2873472,40.4316433 Z M46.326392,38.2298551 C46.031008,38.2298551 45.8833182,38.5552254 45.8833182,39.2059756 C45.8833182,39.8148514 46.0281787,40.1192847 46.317904,40.1192847 C46.6031024,40.1192847 46.7456994,39.8097586 46.7456994,39.1906971 C46.7456994,38.5501326 46.6059317,38.2298551 46.326392,38.2298551 Z M49.2785197,37.9022182 L49.2785197,40.3909009 L48.8846763,40.3909009 L48.8846763,38.3843368 C48.8133767,38.4352651 48.7367025,38.4785535 48.6546514,38.5142033 C48.5726003,38.5498531 48.4789503,38.5812584 48.3736985,38.6084201 L48.3736985,38.2722952 C48.4393394,38.2507921 48.5027159,38.2281577 48.5638298,38.2043911 C48.6249437,38.1806246 48.6852079,38.1540291 48.7446243,38.1246039 C48.8040406,38.0951787 48.8640219,38.0623587 48.9245699,38.0261431 C48.985118,37.9899274 49.0476457,37.9486195 49.1121548,37.9022182 L49.2785197,37.9022182 Z M51.5278407,40.4316433 C51.274331,40.4316433 51.0765625,40.3280907 50.9345292,40.1209823 C50.7924959,39.913874 50.7214803,39.6145334 50.7214803,39.2229516 C50.7214803,38.7928906 50.7956081,38.4675203 50.943866,38.2468311 C51.0921239,38.0261419 51.3060194,37.915799 51.5855591,37.915799 C52.1208718,37.915799 52.3885242,38.331707 52.3885242,39.1635355 C52.3885242,39.5754887 52.3129817,39.8898246 52.1618945,40.1065527 C52.0108073,40.3232808 51.7994581,40.4316433 51.5278407,40.4316433 Z M51.5668855,38.2298551 C51.2715015,38.2298551 51.1238117,38.5552254 51.1238117,39.2059756 C51.1238117,39.8148514 51.2686722,40.1192847 51.5583975,40.1192847 C51.8435958,40.1192847 51.9861928,39.8097586 51.9861928,39.1906971 C51.9861928,38.5501326 51.8464251,38.2298551 51.5668855,38.2298551 Z M54.5190131,37.9022182 L54.5190131,40.3909009 L54.1251698,40.3909009 L54.1251698,38.3843368 C54.0538702,38.4352651 53.977196,38.4785535 53.8951449,38.5142033 C53.8130938,38.5498531 53.7194437,38.5812584 53.6141919,38.6084201 L53.6141919,38.2722952 C53.6798328,38.2507921 53.7432093,38.2281577 53.8043232,38.2043911 C53.8654372,38.1806246 53.9257014,38.1540291 53.9851177,38.1246039 C54.044534,38.0951787 54.1045153,38.0623587 54.1650634,38.0261431 C54.2256114,37.9899274 54.2881391,37.9486195 54.3526483,37.9022182 L54.5190131,37.9022182 Z M56.7683341,40.4316433 C56.5148244,40.4316433 56.3170559,40.3280907 56.1750226,40.1209823 C56.0329893,39.913874 55.9619737,39.6145334 55.9619737,39.2229516 C55.9619737,38.7928906 56.0361016,38.4675203 56.1843594,38.2468311 C56.3326173,38.0261419 56.5465129,37.915799 56.8260525,37.915799 C57.3613653,37.915799 57.6290177,38.331707 57.6290177,39.1635355 C57.6290177,39.5754887 57.5534752,39.8898246 57.402388,40.1065527 C57.2513007,40.3232808 57.0399516,40.4316433 56.7683341,40.4316433 Z M56.8073789,38.2298551 C56.5119949,38.2298551 56.3643051,38.5552254 56.3643051,39.2059756 C56.3643051,39.8148514 56.5091656,40.1192847 56.7988909,40.1192847 C57.0840892,40.1192847 57.2266863,39.8097586 57.2266863,39.1906971 C57.2266863,38.5501326 57.0869186,38.2298551 56.8073789,38.2298551 Z M59.7595066,37.9022182 L59.7595066,40.3909009 L59.3656632,40.3909009 L59.3656632,38.3843368 C59.2943636,38.4352651 59.2176894,38.4785535 59.1356383,38.5142033 C59.0535872,38.5498531 58.9599371,38.5812584 58.8546854,38.6084201 L58.8546854,38.2722952 C58.9203263,38.2507921 58.9837027,38.2281577 59.0448167,38.2043911 C59.1059306,38.1806246 59.1661948,38.1540291 59.2256111,38.1246039 C59.2850275,38.0951787 59.3450088,38.0623587 59.4055568,38.0261431 C59.4661049,37.9899274 59.5286325,37.9486195 59.5931417,37.9022182 L59.7595066,37.9022182 Z M62.0088275,40.4316433 C61.7553179,40.4316433 61.5575494,40.3280907 61.4155161,40.1209823 C61.2734828,39.913874 61.2024672,39.6145334 61.2024672,39.2229516 C61.2024672,38.7928906 61.276595,38.4675203 61.4248529,38.2468311 C61.5731107,38.0261419 61.7870063,37.915799 62.0665459,37.915799 C62.6018587,37.915799 62.8695111,38.331707 62.8695111,39.1635355 C62.8695111,39.5754887 62.7939686,39.8898246 62.6428814,40.1065527 C62.4917942,40.3232808 62.280445,40.4316433 62.0088275,40.4316433 Z M62.0478723,38.2298551 C61.7524883,38.2298551 61.6047986,38.5552254 61.6047986,39.2059756 C61.6047986,39.8148514 61.749659,40.1192847 62.0393843,40.1192847 C62.3245827,40.1192847 62.4671797,39.8097586 62.4671797,39.1906971 C62.4671797,38.5501326 62.327412,38.2298551 62.0478723,38.2298551 Z" id="101010101010110101010101010101010101010101010101010101010101010101010101" fill="#FFFFFF" fill-rule="nonzero"></path>
                <rect id="Rectangle" fill="#F97534" x="37" y="39" width="27" height="2"></rect>
            </g>
        </g>
    </g>
</svg>