<?xml version="1.0" encoding="UTF-8"?>
<svg width="100px" height="100px" viewBox="0 0 100 100" version="1.1" xmlns="http://www.w3.org/2000/svg" xmlns:xlink="http://www.w3.org/1999/xlink">
    <!-- Generator: Sketch 52.2 (67145) - http://www.bohemiancoding.com/sketch -->
    <title>Modern Data Warehouse/read-and-write-data-using-azure-databricks</title>
    <desc>Created with Sketch.</desc>
    <defs>
        <rect id="path-1" x="0" y="0" width="96" height="96" rx="48"></rect>
        <filter x="-8.0%" y="-13.0%" width="113.6%" height="125.9%" filterUnits="objectBoundingBox" id="filter-3">
            <feOffset dx="0" dy="1" in="SourceAlpha" result="shadowOffsetOuter1"></feOffset>
            <feColorMatrix values="0 0 0 0 0   0 0 0 0 0   0 0 0 0 0  0 0 0 0.101873868 0" type="matrix" in="shadowOffsetOuter1" result="shadowMatrixOuter1"></feColorMatrix>
            <feMerge>
                <feMergeNode in="shadowMatrixOuter1"></feMergeNode>
                <feMergeNode in="SourceGraphic"></feMergeNode>
            </feMerge>
        </filter>
        <rect id="path-4" x="6" y="14" width="44" height="3" rx="1.5"></rect>
        <filter x="-3.4%" y="-50.0%" width="106.8%" height="200.0%" filterUnits="objectBoundingBox" id="filter-5">
            <feOffset dx="0" dy="1" in="SourceAlpha" result="shadowOffsetInner1"></feOffset>
            <feComposite in="shadowOffsetInner1" in2="SourceAlpha" operator="arithmetic" k2="-1" k3="1" result="shadowInnerInner1"></feComposite>
            <feColorMatrix values="0 0 0 0 0   0 0 0 0 0   0 0 0 0 0  0 0 0 0.5 0" type="matrix" in="shadowInnerInner1"></feColorMatrix>
        </filter>
        <rect id="path-6" x="0" y="0" width="44" height="37" rx="8"></rect>
        <path d="M3.90650883,13.8630658 C5.71202777,13.8630658 7.15569248,15.4901049 7.15569248,17.4621369 C7.15569248,19.4332611 5.71305868,21.0581231 3.90650883,21.0581231 C2.09975232,21.0581231 0.65570583,19.4329918 0.65570583,17.4621369 C0.65570583,15.4897834 2.0996721,13.8630658 3.90650883,13.8630658 Z M3.90650883,19.268712 C4.66536004,19.268712 5.32526139,18.4758583 5.32526139,17.4637189 C5.32526139,16.4488938 4.66563697,15.6556408 3.90650883,15.6556408 C3.14643901,15.6556408 2.48613692,16.4496126 2.48613692,17.4637189 C2.48613692,18.4761098 3.14621318,19.268712 3.90650883,19.268712 Z" id="path-8"></path>
        <filter x="-15.4%" y="-13.9%" width="130.8%" height="155.6%" filterUnits="objectBoundingBox" id="filter-9">
            <feOffset dx="0" dy="2" in="SourceAlpha" result="shadowOffsetOuter1"></feOffset>
            <feColorMatrix values="0 0 0 0 0   0 0 0 0 0   0 0 0 0 0  0 0 0 0.100430254 0" type="matrix" in="shadowOffsetOuter1"></feColorMatrix>
        </filter>
        <path d="M10.6359072,13.8630658 C11.1367963,13.8630658 11.5511227,14.258783 11.5511227,14.7585623 L11.5511227,20.1626266 C11.5511227,20.6621884 11.1354471,21.0581231 10.6359072,21.0581231 C10.1363672,21.0581231 9.72069164,20.6621884 9.72069164,20.1626266 L9.72069164,14.7585623 C9.72069164,14.2590005 10.1363672,13.8630658 10.6359072,13.8630658 Z" id="path-10"></path>
        <filter x="-54.6%" y="-13.9%" width="209.3%" height="155.6%" filterUnits="objectBoundingBox" id="filter-11">
            <feOffset dx="0" dy="2" in="SourceAlpha" result="shadowOffsetOuter1"></feOffset>
            <feColorMatrix values="0 0 0 0 0   0 0 0 0 0   0 0 0 0 0  0 0 0 0.100430254 0" type="matrix" in="shadowOffsetOuter1"></feColorMatrix>
        </filter>
        <path d="M17.3653056,13.8630658 C19.1721423,13.8630658 20.6161085,15.4897834 20.6161085,17.4621369 C20.6161085,19.4329918 19.1720621,21.0581231 17.3653056,21.0581231 C15.5574379,21.0581231 14.1145026,19.4335822 14.1145026,17.4621369 C14.1145026,15.4897834 15.5584688,13.8630658 17.3653056,13.8630658 Z M17.3653056,19.268712 C18.1256012,19.268712 18.7856775,18.4761098 18.7856775,17.4637189 C18.7856775,16.4486419 18.1258784,15.6556408 17.3653056,15.6556408 C16.6052357,15.6556408 15.9449337,16.4496126 15.9449337,17.4637189 C15.9449337,18.4753893 16.6059946,19.268712 17.3653056,19.268712 Z" id="path-12"></path>
        <filter x="-15.4%" y="-13.9%" width="130.8%" height="155.6%" filterUnits="objectBoundingBox" id="filter-13">
            <feOffset dx="0" dy="2" in="SourceAlpha" result="shadowOffsetOuter1"></feOffset>
            <feColorMatrix values="0 0 0 0 0   0 0 0 0 0   0 0 0 0 0  0 0 0 0.100430254 0" type="matrix" in="shadowOffsetOuter1"></feColorMatrix>
        </filter>
        <path d="M24.0963648,21.0597051 C23.5954756,21.0597051 23.1811492,20.6639878 23.1811492,20.1642086 L23.1811492,14.7601443 C23.1811492,14.2605825 23.5968248,13.8646478 24.0963648,13.8646478 C24.5959047,13.8646478 25.0115803,14.2605825 25.0115803,14.7601443 L25.0115803,20.1642086 C25.0115803,20.6637703 24.5959047,21.0597051 24.0963648,21.0597051 Z" id="path-14"></path>
        <filter x="-54.6%" y="-13.9%" width="209.3%" height="155.6%" filterUnits="objectBoundingBox" id="filter-15">
            <feOffset dx="0" dy="2" in="SourceAlpha" result="shadowOffsetOuter1"></feOffset>
            <feColorMatrix values="0 0 0 0 0   0 0 0 0 0   0 0 0 0 0  0 0 0 0.100430254 0" type="matrix" in="shadowOffsetOuter1"></feColorMatrix>
        </filter>
        <path d="M28.4901757,13.8630658 C28.9910648,13.8630658 29.4053912,14.258783 29.4053912,14.7585623 L29.4053912,20.1626266 C29.4053912,20.6621884 28.9897156,21.0581231 28.4901757,21.0581231 C27.9906358,21.0581231 27.5749601,20.6621884 27.5749601,20.1626266 L27.5749601,14.7585623 C27.5749601,14.2590005 27.9906358,13.8630658 28.4901757,13.8630658 Z" id="path-16"></path>
        <filter x="-54.6%" y="-13.9%" width="209.3%" height="155.6%" filterUnits="objectBoundingBox" id="filter-17">
            <feOffset dx="0" dy="2" in="SourceAlpha" result="shadowOffsetOuter1"></feOffset>
            <feColorMatrix values="0 0 0 0 0   0 0 0 0 0   0 0 0 0 0  0 0 0 0.100430254 0" type="matrix" in="shadowOffsetOuter1"></feColorMatrix>
        </filter>
        <path d="M32.8856475,13.8630658 C33.3865366,13.8630658 33.800863,14.258783 33.800863,14.7585623 L33.800863,20.1626266 C33.800863,20.6621884 33.3851874,21.0581231 32.8856475,21.0581231 C32.3861075,21.0581231 31.9704319,20.6621884 31.9704319,20.1626266 L31.9704319,14.7585623 C31.9704319,14.2590005 32.3861075,13.8630658 32.8856475,13.8630658 Z" id="path-18"></path>
        <filter x="-54.6%" y="-13.9%" width="209.3%" height="155.6%" filterUnits="objectBoundingBox" id="filter-19">
            <feOffset dx="0" dy="2" in="SourceAlpha" result="shadowOffsetOuter1"></feOffset>
            <feColorMatrix values="0 0 0 0 0   0 0 0 0 0   0 0 0 0 0  0 0 0 0.100430254 0" type="matrix" in="shadowOffsetOuter1"></feColorMatrix>
        </filter>
        <path d="M39.6167067,21.0597051 C37.8098003,21.0597051 36.3640292,19.4327361 36.3659037,17.4637189 C36.3659037,15.4913654 37.80987,13.8646478 39.6167067,13.8646478 C41.4246546,13.8646478 42.8675097,15.4907743 42.8675097,17.4637189 C42.8675097,19.4345738 41.4234632,21.0597051 39.6167067,21.0597051 Z M39.6167067,15.6540588 C38.8555729,15.6540588 38.1950412,16.447468 38.1963348,17.4621369 C38.1963348,18.4745278 38.856411,19.2671301 39.6167067,19.2671301 C40.3775061,19.2671301 41.0370786,18.4754984 41.0370786,17.4621369 C41.0370786,16.4477809 40.3762952,15.6540588 39.6167067,15.6540588 Z" id="path-20"></path>
        <filter x="-15.4%" y="-13.9%" width="130.8%" height="155.6%" filterUnits="objectBoundingBox" id="filter-21">
            <feOffset dx="0" dy="2" in="SourceAlpha" result="shadowOffsetOuter1"></feOffset>
            <feColorMatrix values="0 0 0 0 0   0 0 0 0 0   0 0 0 0 0  0 0 0 0.100430254 0" type="matrix" in="shadowOffsetOuter1"></feColorMatrix>
        </filter>
        <path d="M39.6167067,23.4522741 C41.4218525,23.4522741 42.8656357,25.0787871 42.8675097,27.0513452 C42.8675097,29.0224279 41.4232884,30.6488738 39.6167067,30.6488738 C37.810125,30.6488738 36.3659037,29.0224279 36.3659037,27.0513452 C36.3659037,25.0789917 37.80987,23.4522741 39.6167067,23.4522741 Z M39.6167067,28.8579203 C40.3756086,28.8579203 41.0357841,28.0648316 41.0370786,27.0513847 C41.0370786,26.0370288 40.3762952,25.2433067 39.6167067,25.2433067 C38.8566369,25.2433067 38.1963348,26.0372785 38.1963348,27.0513847 C38.1963348,28.0651187 38.8562724,28.8579203 39.6167067,28.8579203 Z" id="path-22"></path>
        <filter x="-15.4%" y="-13.9%" width="130.8%" height="155.6%" filterUnits="objectBoundingBox" id="filter-23">
            <feOffset dx="0" dy="2" in="SourceAlpha" result="shadowOffsetOuter1"></feOffset>
            <feColorMatrix values="0 0 0 0 0   0 0 0 0 0   0 0 0 0 0  0 0 0 0.100430254 0" type="matrix" in="shadowOffsetOuter1"></feColorMatrix>
        </filter>
        <path d="M32.8856475,23.4522741 C33.3865366,23.4522741 33.800863,23.8479913 33.800863,24.3477706 L33.800863,29.7518349 C33.800863,30.2513966 33.3851874,30.6473314 32.8856475,30.6473314 C32.3861075,30.6473314 31.9704319,30.2513966 31.9704319,29.7518349 L31.9704319,24.3477706 C31.9704319,23.8482088 32.3861075,23.4522741 32.8856475,23.4522741 Z" id="path-24"></path>
        <filter x="-54.6%" y="-13.9%" width="209.3%" height="155.6%" filterUnits="objectBoundingBox" id="filter-25">
            <feOffset dx="0" dy="2" in="SourceAlpha" result="shadowOffsetOuter1"></feOffset>
            <feColorMatrix values="0 0 0 0 0   0 0 0 0 0   0 0 0 0 0  0 0 0 0.100430254 0" type="matrix" in="shadowOffsetOuter1"></feColorMatrix>
        </filter>
        <path d="M26.1562491,23.4522741 C27.9625062,23.4522741 29.4051775,25.0781953 29.4070521,27.0513452 C29.4070521,29.0224279 27.9628308,30.6488738 26.1562491,30.6488738 C24.3496674,30.6488738 22.9054461,29.0224279 22.9054461,27.0513452 C22.9054461,25.0789917 24.3494124,23.4522741 26.1562491,23.4522741 Z M26.1562491,28.8579203 C26.915151,28.8579203 27.5753265,28.0648316 27.576621,27.0513847 C27.576621,26.0370288 26.9158376,25.2433067 26.1562491,25.2433067 C25.3961793,25.2433067 24.7358772,26.0372785 24.7358772,27.0513847 C24.7358772,28.0651187 25.3958148,28.8579203 26.1562491,28.8579203 Z" id="path-26"></path>
        <filter x="-15.4%" y="-13.9%" width="130.8%" height="155.6%" filterUnits="objectBoundingBox" id="filter-27">
            <feOffset dx="0" dy="2" in="SourceAlpha" result="shadowOffsetOuter1"></feOffset>
            <feColorMatrix values="0 0 0 0 0   0 0 0 0 0   0 0 0 0 0  0 0 0 0.100430254 0" type="matrix" in="shadowOffsetOuter1"></feColorMatrix>
        </filter>
        <path d="M20.3404054,29.7534168 C20.3404054,30.2531961 19.926079,30.6489134 19.4251899,30.6489134 C18.9256499,30.6489134 18.5099743,30.2529786 18.5099743,29.7534168 L18.5099743,24.3493526 C18.5099743,23.8497908 18.9256499,23.4538561 19.4251899,23.4538561 C19.9247298,23.4538561 20.3404054,23.8497908 20.3404054,24.3493526 L20.3404054,29.7534168 Z" id="path-28"></path>
        <filter x="-54.6%" y="-13.9%" width="209.3%" height="155.6%" filterUnits="objectBoundingBox" id="filter-29">
            <feOffset dx="0" dy="2" in="SourceAlpha" result="shadowOffsetOuter1"></feOffset>
            <feColorMatrix values="0 0 0 0 0   0 0 0 0 0   0 0 0 0 0  0 0 0 0.100430254 0" type="matrix" in="shadowOffsetOuter1"></feColorMatrix>
        </filter>
        <path d="M15.031379,30.6489134 C14.5304898,30.6489134 14.1161634,30.2531961 14.1161634,29.7534168 L14.1161634,24.3493526 C14.1161634,23.8497908 14.531839,23.4538561 15.031379,23.4538561 C15.5309189,23.4538561 15.9465945,23.8497908 15.9465945,24.3493526 L15.9465945,29.7534168 C15.9465945,30.2529786 15.5309189,30.6489134 15.031379,30.6489134 Z" id="path-30"></path>
        <filter x="-54.6%" y="-13.9%" width="209.3%" height="155.6%" filterUnits="objectBoundingBox" id="filter-31">
            <feOffset dx="0" dy="2" in="SourceAlpha" result="shadowOffsetOuter1"></feOffset>
            <feColorMatrix values="0 0 0 0 0   0 0 0 0 0   0 0 0 0 0  0 0 0 0.100430254 0" type="matrix" in="shadowOffsetOuter1"></feColorMatrix>
        </filter>
        <path d="M10.6359072,23.4522741 C11.1367963,23.4522741 11.5511227,23.8479913 11.5511227,24.3477706 L11.5511227,29.7518349 C11.5511227,30.2513966 11.1354471,30.6473314 10.6359072,30.6473314 C10.1363672,30.6473314 9.72069164,30.2513966 9.72069164,29.7518349 L9.72069164,24.3477706 C9.72069164,23.8482088 10.1363672,23.4522741 10.6359072,23.4522741 Z" id="path-32"></path>
        <filter x="-54.6%" y="-13.9%" width="209.3%" height="155.6%" filterUnits="objectBoundingBox" id="filter-33">
            <feOffset dx="0" dy="2" in="SourceAlpha" result="shadowOffsetOuter1"></feOffset>
            <feColorMatrix values="0 0 0 0 0   0 0 0 0 0   0 0 0 0 0  0 0 0 0.100430254 0" type="matrix" in="shadowOffsetOuter1"></feColorMatrix>
        </filter>
        <path d="M3.90650883,23.4522741 C5.71202777,23.4522741 7.15569248,25.0793132 7.15569248,27.0513452 C7.15569248,29.0226975 5.71288415,30.6488738 3.90650883,30.6488738 C2.09992712,30.6488738 0.65570583,29.0224279 0.65570583,27.0513452 C0.65570583,25.0789917 2.0996721,23.4522741 3.90650883,23.4522741 Z M3.90650883,28.8579203 C4.66549859,28.8579203 5.32526139,28.064867 5.32526139,27.0513847 C5.32526139,26.0365597 4.66563697,25.2433067 3.90650883,25.2433067 C3.14643901,25.2433067 2.48613692,26.0372785 2.48613692,27.0513847 C2.48613692,28.0651187 3.14607449,28.8579203 3.90650883,28.8579203 Z" id="path-34"></path>
        <filter x="-15.4%" y="-13.9%" width="130.8%" height="155.6%" filterUnits="objectBoundingBox" id="filter-35">
            <feOffset dx="0" dy="2" in="SourceAlpha" result="shadowOffsetOuter1"></feOffset>
            <feColorMatrix values="0 0 0 0 0   0 0 0 0 0   0 0 0 0 0  0 0 0 0.100430254 0" type="matrix" in="shadowOffsetOuter1"></feColorMatrix>
        </filter>
        <path d="M39.6167067,4.3 C41.4218525,4.3 42.8656357,5.92651304 42.8675097,7.89907108 C42.8675097,9.87015377 41.4232884,11.4965997 39.6167067,11.4965997 C37.810125,11.4965997 36.3659037,9.87015377 36.3659037,7.89907108 C36.3659037,5.92671764 37.80987,4.3 39.6167067,4.3 Z M39.6167067,9.70564625 C40.3756086,9.70564625 41.0357841,8.91255751 41.0370786,7.89911062 C41.0370786,6.8847547 40.3762952,6.09103256 39.6167067,6.09103256 C38.8566369,6.09103256 38.1963348,6.88500441 38.1963348,7.89911062 C38.1963348,8.91284461 38.8562724,9.70564625 39.6167067,9.70564625 Z" id="path-36"></path>
        <filter x="-15.4%" y="-13.9%" width="130.8%" height="155.6%" filterUnits="objectBoundingBox" id="filter-37">
            <feOffset dx="0" dy="2" in="SourceAlpha" result="shadowOffsetOuter1"></feOffset>
            <feColorMatrix values="0 0 0 0 0   0 0 0 0 0   0 0 0 0 0  0 0 0 0.100430254 0" type="matrix" in="shadowOffsetOuter1"></feColorMatrix>
        </filter>
        <path d="M32.8856475,4.3 C33.3865366,4.3 33.800863,4.69571723 33.800863,5.19549651 L33.800863,10.5995608 C33.800863,11.0991226 33.3851874,11.4950573 32.8856475,11.4950573 C32.3861075,11.4950573 31.9704319,11.0991226 31.9704319,10.5995608 L31.9704319,5.19549651 C31.9704319,4.69593472 32.3861075,4.3 32.8856475,4.3 Z" id="path-38"></path>
        <filter x="-54.6%" y="-13.9%" width="209.3%" height="155.6%" filterUnits="objectBoundingBox" id="filter-39">
            <feOffset dx="0" dy="2" in="SourceAlpha" result="shadowOffsetOuter1"></feOffset>
            <feColorMatrix values="0 0 0 0 0   0 0 0 0 0   0 0 0 0 0  0 0 0 0.100430254 0" type="matrix" in="shadowOffsetOuter1"></feColorMatrix>
        </filter>
        <path d="M26.1562491,4.3 C27.9625062,4.3 29.4051775,5.9259212 29.4070521,7.89907108 C29.4070521,9.87015377 27.9628308,11.4965997 26.1562491,11.4965997 C24.3496674,11.4965997 22.9054461,9.87015377 22.9054461,7.89907108 C22.9054461,5.92671764 24.3494124,4.3 26.1562491,4.3 Z M26.1562491,9.70564625 C26.915151,9.70564625 27.5753265,8.91255751 27.576621,7.89911062 C27.576621,6.8847547 26.9158376,6.09103256 26.1562491,6.09103256 C25.3961793,6.09103256 24.7358772,6.88500441 24.7358772,7.89911062 C24.7358772,8.91284461 25.3958148,9.70564625 26.1562491,9.70564625 Z" id="path-40"></path>
        <filter x="-15.4%" y="-13.9%" width="130.8%" height="155.6%" filterUnits="objectBoundingBox" id="filter-41">
            <feOffset dx="0" dy="2" in="SourceAlpha" result="shadowOffsetOuter1"></feOffset>
            <feColorMatrix values="0 0 0 0 0   0 0 0 0 0   0 0 0 0 0  0 0 0 0.100430254 0" type="matrix" in="shadowOffsetOuter1"></feColorMatrix>
        </filter>
        <path d="M20.3404054,10.5995608 C20.3404054,11.0993401 19.926079,11.4950573 19.4251899,11.4950573 C18.9256499,11.4950573 18.5099743,11.0991226 18.5099743,10.5995608 L18.5099743,5.19549651 C18.5099743,4.69593472 18.9256499,4.3 19.4251899,4.3 C19.9247298,4.3 20.3404054,4.69593472 20.3404054,5.19549651 L20.3404054,10.5995608 Z" id="path-42"></path>
        <filter x="-54.6%" y="-13.9%" width="209.3%" height="155.6%" filterUnits="objectBoundingBox" id="filter-43">
            <feOffset dx="0" dy="2" in="SourceAlpha" result="shadowOffsetOuter1"></feOffset>
            <feColorMatrix values="0 0 0 0 0   0 0 0 0 0   0 0 0 0 0  0 0 0 0.100430254 0" type="matrix" in="shadowOffsetOuter1"></feColorMatrix>
        </filter>
        <path d="M15.031379,11.4950573 C14.5304898,11.4950573 14.1161634,11.0993401 14.1161634,10.5995608 L14.1161634,5.19549651 C14.1161634,4.69593472 14.531839,4.3 15.031379,4.3 C15.5309189,4.3 15.9465945,4.69593472 15.9465945,5.19549651 L15.9465945,10.5995608 C15.9465945,11.0991226 15.5309189,11.4950573 15.031379,11.4950573 Z" id="path-44"></path>
        <filter x="-54.6%" y="-13.9%" width="209.3%" height="155.6%" filterUnits="objectBoundingBox" id="filter-45">
            <feOffset dx="0" dy="2" in="SourceAlpha" result="shadowOffsetOuter1"></feOffset>
            <feColorMatrix values="0 0 0 0 0   0 0 0 0 0   0 0 0 0 0  0 0 0 0.100430254 0" type="matrix" in="shadowOffsetOuter1"></feColorMatrix>
        </filter>
        <path d="M10.6359072,4.3 C11.1367963,4.3 11.5511227,4.69571723 11.5511227,5.19549651 L11.5511227,10.5995608 C11.5511227,11.0991226 11.1354471,11.4950573 10.6359072,11.4950573 C10.1363672,11.4950573 9.72069164,11.0991226 9.72069164,10.5995608 L9.72069164,5.19549651 C9.72069164,4.69593472 10.1363672,4.3 10.6359072,4.3 Z" id="path-46"></path>
        <filter x="-54.6%" y="-13.9%" width="209.3%" height="155.6%" filterUnits="objectBoundingBox" id="filter-47">
            <feOffset dx="0" dy="2" in="SourceAlpha" result="shadowOffsetOuter1"></feOffset>
            <feColorMatrix values="0 0 0 0 0   0 0 0 0 0   0 0 0 0 0  0 0 0 0.100430254 0" type="matrix" in="shadowOffsetOuter1"></feColorMatrix>
        </filter>
        <path d="M3.90650883,4.3 C5.71202777,4.3 7.15569248,5.92703906 7.15569248,7.89907108 C7.15569248,9.87042341 5.71288415,11.4965997 3.90650883,11.4965997 C2.09992712,11.4965997 0.65570583,9.87015377 0.65570583,7.89907108 C0.65570583,5.92671764 2.0996721,4.3 3.90650883,4.3 Z M3.90650883,9.70564625 C4.66549859,9.70564625 5.32526139,8.91259288 5.32526139,7.89911062 C5.32526139,6.88428559 4.66563697,6.09103256 3.90650883,6.09103256 C3.14643901,6.09103256 2.48613692,6.88500441 2.48613692,7.89911062 C2.48613692,8.91284461 3.14607449,9.70564625 3.90650883,9.70564625 Z" id="path-48"></path>
        <filter x="-15.4%" y="-13.9%" width="130.8%" height="155.6%" filterUnits="objectBoundingBox" id="filter-49">
            <feOffset dx="0" dy="2" in="SourceAlpha" result="shadowOffsetOuter1"></feOffset>
            <feColorMatrix values="0 0 0 0 0   0 0 0 0 0   0 0 0 0 0  0 0 0 0.100430254 0" type="matrix" in="shadowOffsetOuter1"></feColorMatrix>
        </filter>
        <path d="M3.90650883,33.0446464 C5.71177282,33.0446464 7.15569248,34.6714137 7.15569248,36.642175 C7.15569248,38.6135273 5.71288415,40.2397036 3.90650883,40.2397036 C2.09992712,40.2397036 0.65570583,38.6132577 0.65570583,36.642175 C0.65570583,34.6710923 2.09992712,33.0446464 3.90650883,33.0446464 Z M3.90650883,38.4487106 C4.66549859,38.4487106 5.32526139,37.6556572 5.32526139,36.642175 C5.32526139,35.6286927 4.66549859,34.8356394 3.90650883,34.8356394 C3.14607449,34.8356394 2.48613692,35.628441 2.48613692,36.642175 C2.48613692,37.655909 3.14607449,38.4487106 3.90650883,38.4487106 Z" id="path-50"></path>
        <filter x="-15.4%" y="-13.9%" width="130.8%" height="155.6%" filterUnits="objectBoundingBox" id="filter-51">
            <feOffset dx="0" dy="2" in="SourceAlpha" result="shadowOffsetOuter1"></feOffset>
            <feColorMatrix values="0 0 0 0 0   0 0 0 0 0   0 0 0 0 0  0 0 0 0.100430254 0" type="matrix" in="shadowOffsetOuter1"></feColorMatrix>
        </filter>
        <path d="M10.6359072,33.0446464 C11.1367963,33.0446464 11.5511227,33.4403636 11.5511227,33.9401429 L11.5511227,39.3442071 C11.5511227,39.8437689 11.1354471,40.2397036 10.6359072,40.2397036 C10.1363672,40.2397036 9.72069164,39.8437689 9.72069164,39.3442071 L9.72069164,33.9401429 C9.72069164,33.4405811 10.1363672,33.0446464 10.6359072,33.0446464 Z" id="path-52"></path>
        <filter x="-54.6%" y="-13.9%" width="209.3%" height="155.6%" filterUnits="objectBoundingBox" id="filter-53">
            <feOffset dx="0" dy="2" in="SourceAlpha" result="shadowOffsetOuter1"></feOffset>
            <feColorMatrix values="0 0 0 0 0   0 0 0 0 0   0 0 0 0 0  0 0 0 0.100430254 0" type="matrix" in="shadowOffsetOuter1"></feColorMatrix>
        </filter>
        <path d="M17.3653056,33.0446464 C19.1718873,33.0446464 20.6161085,34.6710923 20.6161085,36.642175 C20.6161085,38.6132577 19.1718873,40.2397036 17.3653056,40.2397036 C15.5576125,40.2397036 14.1145026,38.6138485 14.1145026,36.642175 C14.1145026,34.6710923 15.5587238,33.0446464 17.3653056,33.0446464 Z M17.3653056,38.4487106 C18.1257399,38.4487106 18.7856775,37.655909 18.7856775,36.642175 C18.7856775,35.628441 18.1257399,34.8356394 17.3653056,34.8356394 C16.6048712,34.8356394 15.9449337,35.628441 15.9449337,36.642175 C15.9449337,37.6551882 16.6058557,38.4487106 17.3653056,38.4487106 Z" id="path-54"></path>
        <filter x="-15.4%" y="-13.9%" width="130.8%" height="155.6%" filterUnits="objectBoundingBox" id="filter-55">
            <feOffset dx="0" dy="2" in="SourceAlpha" result="shadowOffsetOuter1"></feOffset>
            <feColorMatrix values="0 0 0 0 0   0 0 0 0 0   0 0 0 0 0  0 0 0 0.100430254 0" type="matrix" in="shadowOffsetOuter1"></feColorMatrix>
        </filter>
        <path d="M24.0963648,33.0446464 C24.5959047,33.0446464 25.0115803,33.4405811 25.0115803,33.9401429 L25.0115803,39.3442071 C25.0115803,39.8437689 24.5959047,40.2397036 24.0963648,40.2397036 C23.5968248,40.2397036 23.1811492,39.8437689 23.1811492,39.3442071 L23.1811492,33.9401429 C23.1811492,33.4405811 23.5968248,33.0446464 24.0963648,33.0446464 Z" id="path-56"></path>
        <filter x="-54.6%" y="-13.9%" width="209.3%" height="155.6%" filterUnits="objectBoundingBox" id="filter-57">
            <feOffset dx="0" dy="2" in="SourceAlpha" result="shadowOffsetOuter1"></feOffset>
            <feColorMatrix values="0 0 0 0 0   0 0 0 0 0   0 0 0 0 0  0 0 0 0.100430254 0" type="matrix" in="shadowOffsetOuter1"></feColorMatrix>
        </filter>
        <path d="M28.4901757,33.0446464 C28.9910648,33.0446464 29.4053912,33.4403636 29.4053912,33.9401429 L29.4053912,39.3442071 C29.4053912,39.8437689 28.9897156,40.2397036 28.4901757,40.2397036 C27.9906358,40.2397036 27.5749601,39.8437689 27.5749601,39.3442071 L27.5749601,33.9401429 C27.5749601,33.4405811 27.9906358,33.0446464 28.4901757,33.0446464 Z" id="path-58"></path>
        <filter x="-54.6%" y="-13.9%" width="209.3%" height="155.6%" filterUnits="objectBoundingBox" id="filter-59">
            <feOffset dx="0" dy="2" in="SourceAlpha" result="shadowOffsetOuter1"></feOffset>
            <feColorMatrix values="0 0 0 0 0   0 0 0 0 0   0 0 0 0 0  0 0 0 0.100430254 0" type="matrix" in="shadowOffsetOuter1"></feColorMatrix>
        </filter>
        <path d="M32.8856475,33.0446464 C33.3865366,33.0446464 33.800863,33.4403636 33.800863,33.9401429 L33.800863,39.3442071 C33.800863,39.8437689 33.3851874,40.2397036 32.8856475,40.2397036 C32.3861075,40.2397036 31.9704319,39.8437689 31.9704319,39.3442071 L31.9704319,33.9401429 C31.9704319,33.4405811 32.3861075,33.0446464 32.8856475,33.0446464 Z" id="path-60"></path>
        <filter x="-54.6%" y="-13.9%" width="209.3%" height="155.6%" filterUnits="objectBoundingBox" id="filter-61">
            <feOffset dx="0" dy="2" in="SourceAlpha" result="shadowOffsetOuter1"></feOffset>
            <feColorMatrix values="0 0 0 0 0   0 0 0 0 0   0 0 0 0 0  0 0 0 0.100430254 0" type="matrix" in="shadowOffsetOuter1"></feColorMatrix>
        </filter>
        <path d="M39.6167067,33.0446464 C41.4215974,33.0446464 42.8656352,34.6708873 42.8675097,36.642175 C42.8675097,38.6132577 41.4232884,40.2397036 39.6167067,40.2397036 C37.810125,40.2397036 36.3659037,38.6132577 36.3659037,36.642175 C36.3659037,34.6710923 37.810125,33.0446464 39.6167067,33.0446464 Z M39.6167067,38.4487106 C40.3756086,38.4487106 41.0357841,37.6556219 41.0370786,36.642175 C41.0370786,35.6291618 40.3761565,34.8356394 39.6167067,34.8356394 C38.8562724,34.8356394 38.1963348,35.628441 38.1963348,36.642175 C38.1963348,37.655909 38.8562724,38.4487106 39.6167067,38.4487106 Z" id="path-62"></path>
        <filter x="-15.4%" y="-13.9%" width="130.8%" height="155.6%" filterUnits="objectBoundingBox" id="filter-63">
            <feOffset dx="0" dy="2" in="SourceAlpha" result="shadowOffsetOuter1"></feOffset>
            <feColorMatrix values="0 0 0 0 0   0 0 0 0 0   0 0 0 0 0  0 0 0 0.100430254 0" type="matrix" in="shadowOffsetOuter1"></feColorMatrix>
        </filter>
        <rect id="path-64" x="0" y="36" width="44" height="1" rx="0.5"></rect>
        <filter x="-1.1%" y="-50.0%" width="102.3%" height="200.0%" filterUnits="objectBoundingBox" id="filter-65">
            <feOffset dx="0" dy="1" in="SourceAlpha" result="shadowOffsetInner1"></feOffset>
            <feComposite in="shadowOffsetInner1" in2="SourceAlpha" operator="arithmetic" k2="-1" k3="1" result="shadowInnerInner1"></feComposite>
            <feColorMatrix values="0 0 0 0 0   0 0 0 0 0   0 0 0 0 0  0 0 0 0.5 0" type="matrix" in="shadowInnerInner1"></feColorMatrix>
        </filter>
    </defs>
    <g id="Badges" stroke="none" stroke-width="1" fill="none" fill-rule="evenodd">
        <g id="Modern-Data-Warehouse" transform="translate(-579.000000, -927.000000)">
            <g id="Modern-Data-Warehouse/read-and-write-data-using-azure-databricks" transform="translate(579.000000, 927.000000)">
                <g id="Mask" transform="translate(2.000000, 2.000000)">
                    <mask id="mask-2" fill="white">
                        <use xlink:href="#path-1"></use>
                    </mask>
                    <use id="BG" fill="#55A2FF" xlink:href="#path-1"></use>
                    <g id="Data" filter="url(#filter-3)" mask="url(#mask-2)" fill="#FFFFFF" stroke="#FFFFFF">
                        <g transform="translate(26.000000, 69.000000)">
                            <path d="M3.04491401,0.38035464 C1.45620838,0.38035464 0.163120393,1.83697204 0.163120393,3.62700053 C0.163120393,5.41541313 1.45620838,6.87041465 3.04491401,6.87041465 C4.63361964,6.87041465 5.92501117,5.41541313 5.92501117,3.62700053 C5.92501117,1.83697204 4.63192319,0.38035464 3.04491401,0.38035464 Z M3.04491401,6.04341262 C1.93534734,6.04341262 1.03309582,4.959029 1.03309582,3.62865785 C1.03309582,2.29667081 1.93534734,1.21067131 3.04491401,1.21067131 C4.15278422,1.21067131 5.05503574,2.29505493 5.05503574,3.62865785 C5.05503574,4.959029 4.15278422,6.04341262 3.04491401,6.04341262 Z" id="Fill-1"></path>
                            <path d="M10.0947599,0.38035464 C9.85517738,0.38035464 9.6597722,0.566479816 9.6597722,0.794684314 L9.6597722,6.45608497 C9.6597722,6.68428947 9.85517738,6.87041465 10.0947599,6.87041465 C10.3343424,6.87041465 10.5297476,6.68428947 10.5297476,6.45608497 L10.5297476,0.794684314 C10.5297476,0.566479816 10.3360432,0.38035464 10.0947599,0.38035464 Z" id="Fill-2"></path>
                            <path d="M17.1446058,0.38035464 C15.5559002,0.38035464 14.2628122,1.83697204 14.2628122,3.62700053 C14.2628122,5.41541313 15.5542037,6.87041465 17.1446058,6.87041465 C18.7333115,6.87041465 20.0263994,5.41541313 20.0263994,3.62700053 C20.0263994,1.83697204 18.7333115,0.38035464 17.1446058,0.38035464 Z M17.1446058,6.04341262 C16.0367356,6.04341262 15.1327876,4.959029 15.1327876,3.62865785 C15.1327876,2.29667081 16.0350392,1.21067131 17.1446058,1.21067131 C18.2541725,1.21067131 19.156424,2.29505493 19.156424,3.62865785 C19.156424,4.959029 18.2541725,6.04341262 17.1446058,6.04341262 Z" id="Fill-3"></path>
                            <path d="M24.1961917,6.87207196 C24.4357742,6.87207196 24.6311794,6.68594679 24.6311794,6.45774229 L24.6311794,0.796341632 C24.6311794,0.568137135 24.4357742,0.382011959 24.1961917,0.382011959 C23.9566091,0.382011959 23.761204,0.568137135 23.761204,0.796341632 L23.761204,6.45774229 C23.761204,6.68594679 23.9549083,6.87207196 24.1961917,6.87207196 Z" id="Fill-4"></path>
                            <path d="M28.7992317,0.38035464 C28.5596491,0.38035464 28.364244,0.566479816 28.364244,0.794684314 L28.364244,6.45608497 C28.364244,6.68428947 28.5596491,6.87041465 28.7992317,6.87041465 C29.0388142,6.87041465 29.2342194,6.68428947 29.2342194,6.45608497 L29.2342194,0.794684314 C29.2342194,0.566479816 29.040515,0.38035464 28.7992317,0.38035464 Z" id="Fill-5"></path>
                            <path d="M33.4040116,0.38035464 C33.1644291,0.38035464 32.9690239,0.566479816 32.9690239,0.794684314 L32.9690239,6.45608497 C32.9690239,6.68428947 33.1644291,6.87041465 33.4040116,6.87041465 C33.6435942,6.87041465 33.8389994,6.68428947 33.8389994,6.45608497 L33.8389994,0.794684314 C33.8389994,0.566479816 33.645295,0.38035464 33.4040116,0.38035464 Z" id="Fill-6"></path>
                            <path d="M40.4555975,6.87207196 C42.0443031,6.87207196 43.3373911,5.41707045 43.3373911,3.62865785 C43.3373911,1.83862936 42.0459996,0.382011959 40.4555975,0.382011959 C38.8668919,0.382011959 37.5738039,1.83862936 37.5738039,3.62865785 C37.5721031,5.41545456 38.8668919,6.87207196 40.4555975,6.87207196 Z M40.4555975,1.20901399 C41.5634677,1.20901399 42.4674157,2.29339761 42.4674157,3.62700053 C42.4674157,4.95898756 41.5651642,6.0417553 40.4555975,6.0417553 C39.3460308,6.0417553 38.4437793,4.95737168 38.4437793,3.62700053 C38.4420785,2.29335618 39.3460308,1.20901399 40.4555975,1.20901399 Z" id="Fill-7"></path>
                            <path d="M40.4555975,10.4261919 C38.8668919,10.4261919 37.5738039,11.8828093 37.5738039,13.6728378 C37.5738039,15.4612504 38.8668919,16.9178678 40.4555975,16.9178678 C42.0443031,16.9178678 43.3373911,15.4612504 43.3373911,13.6728378 C43.3356903,11.8828093 42.0426067,10.4261919 40.4555975,10.4261919 Z M40.4555975,16.0892499 C39.3460308,16.0892499 38.4437793,15.0048663 38.4437793,13.6728792 C38.4437793,12.3408922 39.3460308,11.2548927 40.4555975,11.2548927 C41.5634677,11.2548927 42.4674157,12.3392763 42.4674157,13.6728792 C42.4657149,15.0048663 41.5634677,16.0892499 40.4555975,16.0892499 Z" id="Fill-8"></path>
                            <path d="M33.4040116,10.4261919 C33.1644291,10.4261919 32.9690239,10.6123171 32.9690239,10.8405216 L32.9690239,16.5019222 C32.9690239,16.7301267 33.1644291,16.9162519 33.4040116,16.9162519 C33.6435942,16.9162519 33.8389994,16.7301267 33.8389994,16.5019222 L33.8389994,10.8405216 C33.8389994,10.6123171 33.645295,10.4261919 33.4040116,10.4261919 Z" id="Fill-9"></path>
                            <path d="M26.3541657,10.4261919 C24.7654601,10.4261919 23.4723721,11.8828093 23.4723721,13.6728378 C23.4723721,15.4612504 24.7654601,16.9178678 26.3541657,16.9178678 C27.9428714,16.9178678 29.2359593,15.4612504 29.2359593,13.6728378 C29.2342585,11.8828093 27.9428714,10.4261919 26.3541657,10.4261919 Z M26.3541657,16.0892499 C25.2445991,16.0892499 24.3423475,15.0048663 24.3423475,13.6728792 C24.3423475,12.3408922 25.2445991,11.2548927 26.3541657,11.2548927 C27.4620359,11.2548927 28.3659839,12.3392763 28.3659839,13.6728792 C28.3642831,15.0048663 27.4620359,16.0892499 26.3541657,16.0892499 Z" id="Fill-10"></path>
                            <path d="M19.7375676,16.5035796 L19.7375676,10.8421789 C19.7375676,10.6139744 19.5421624,10.4278492 19.3025799,10.4278492 C19.0629973,10.4278492 18.8675922,10.6139744 18.8675922,10.8421789 L18.8675922,16.5035796 C18.8675922,16.7317841 19.0629973,16.9179092 19.3025799,16.9179092 C19.5438632,16.9179092 19.7375676,16.7317841 19.7375676,16.5035796 Z" id="Fill-11"></path>
                            <path d="M14.6995399,16.9179092 C14.9391224,16.9179092 15.1345276,16.7317841 15.1345276,16.5035796 L15.1345276,10.8421789 C15.1345276,10.6139744 14.9391224,10.4278492 14.6995399,10.4278492 C14.4599573,10.4278492 14.2645522,10.6139744 14.2645522,10.8421789 L14.2645522,16.5035796 C14.2645522,16.7317841 14.4582565,16.9179092 14.6995399,16.9179092 Z" id="Fill-12"></path>
                            <path d="M10.0947599,10.4261919 C9.85517738,10.4261919 9.6597722,10.6123171 9.6597722,10.8405216 L9.6597722,16.5019222 C9.6597722,16.7301267 9.85517738,16.9162519 10.0947599,16.9162519 C10.3343424,16.9162519 10.5297476,16.7301267 10.5297476,16.5019222 L10.5297476,10.8405216 C10.5297476,10.6123171 10.3360432,10.4261919 10.0947599,10.4261919 Z" id="Fill-13"></path>
                            <path d="M3.04491401,10.4261919 C1.45620838,10.4261919 0.163120393,11.8828093 0.163120393,13.6728378 C0.163120393,15.4612504 1.45620838,16.9178678 3.04491401,16.9178678 C4.63361964,16.9178678 5.92501117,15.4612504 5.92501117,13.6728378 C5.92501117,11.8828093 4.63192319,10.4261919 3.04491401,10.4261919 Z M3.04491401,16.0892499 C1.93534734,16.0892499 1.03309582,15.0048663 1.03309582,13.6728792 C1.03309582,12.3408922 1.93534734,11.2548927 3.04491401,11.2548927 C4.15278422,11.2548927 5.05503574,12.3392763 5.05503574,13.6728792 C5.05503574,15.0048663 4.15278422,16.0892499 3.04491401,16.0892499 Z" id="Fill-14"></path>
                            <path d="M3.04491401,20.4753438 C1.45620838,20.4753438 0.163120393,21.9319612 0.163120393,23.7203738 C0.163120393,25.5087864 1.45620838,26.9654038 3.04491401,26.9654038 C4.63361964,26.9654038 5.92501117,25.5087864 5.92501117,23.7203738 C5.92501117,21.9319612 4.63192319,20.4753438 3.04491401,20.4753438 Z M3.04491401,26.1367445 C1.93534734,26.1367445 1.03309582,25.0523608 1.03309582,23.7203738 C1.03309582,22.3883868 1.93534734,21.3040032 3.04491401,21.3040032 C4.15278422,21.3040032 5.05503574,22.3883868 5.05503574,23.7203738 C5.05503574,25.0523608 4.15278422,26.1367445 3.04491401,26.1367445 Z" id="Fill-15"></path>
                            <path d="M10.0947599,20.4753438 C9.85517738,20.4753438 9.6597722,20.661469 9.6597722,20.8896735 L9.6597722,26.5510741 C9.6597722,26.7792786 9.85517738,26.9654038 10.0947599,26.9654038 C10.3343424,26.9654038 10.5297476,26.7792786 10.5297476,26.5510741 L10.5297476,20.8896735 C10.5297476,20.661469 10.3360432,20.4753438 10.0947599,20.4753438 Z" id="Fill-16"></path>
                            <path d="M17.1446058,20.4753438 C15.5559002,20.4753438 14.2628122,21.9319612 14.2628122,23.7203738 C14.2628122,25.5087864 15.5542037,26.9654038 17.1446058,26.9654038 C18.7333115,26.9654038 20.0263994,25.5087864 20.0263994,23.7203738 C20.0263994,21.9319612 18.7333115,20.4753438 17.1446058,20.4753438 Z M17.1446058,26.1367445 C16.0367356,26.1367445 15.1327876,25.0523608 15.1327876,23.7203738 C15.1327876,22.3883868 16.0350392,21.3040032 17.1446058,21.3040032 C18.2541725,21.3040032 19.156424,22.3883868 19.156424,23.7203738 C19.156424,25.0523608 18.2541725,26.1367445 17.1446058,26.1367445 Z" id="Fill-17"></path>
                            <path d="M24.1961917,20.4753438 C23.9566091,20.4753438 23.761204,20.661469 23.761204,20.8896735 L23.761204,26.5510741 C23.761204,26.7792786 23.9566091,26.9654038 24.1961917,26.9654038 C24.4357742,26.9654038 24.6311794,26.7792786 24.6311794,26.5510741 L24.6311794,20.8896735 C24.6311794,20.661469 24.4357742,20.4753438 24.1961917,20.4753438 Z" id="Fill-18"></path>
                            <path d="M28.7992317,20.4753438 C28.5596491,20.4753438 28.364244,20.661469 28.364244,20.8896735 L28.364244,26.5510741 C28.364244,26.7792786 28.5596491,26.9654038 28.7992317,26.9654038 C29.0388142,26.9654038 29.2342194,26.7792786 29.2342194,26.5510741 L29.2342194,20.8896735 C29.2342194,20.661469 29.040515,20.4753438 28.7992317,20.4753438 Z" id="Fill-19"></path>
                            <path d="M33.4040116,20.4753438 C33.1644291,20.4753438 32.9690239,20.661469 32.9690239,20.8896735 L32.9690239,26.5510741 C32.9690239,26.7792786 33.1644291,26.9654038 33.4040116,26.9654038 C33.6435942,26.9654038 33.8389994,26.7792786 33.8389994,26.5510741 L33.8389994,20.8896735 C33.8389994,20.661469 33.645295,20.4753438 33.4040116,20.4753438 Z" id="Fill-20"></path>
                            <path d="M40.4555975,20.4753438 C38.8668919,20.4753438 37.5738039,21.9319612 37.5738039,23.7203738 C37.5738039,25.5087864 38.8668919,26.9654038 40.4555975,26.9654038 C42.0443031,26.9654038 43.3373911,25.5087864 43.3373911,23.7203738 C43.3356903,21.9319612 42.0426067,20.4753438 40.4555975,20.4753438 Z M40.4555975,26.1367445 C39.3460308,26.1367445 38.4437793,25.0523608 38.4437793,23.7203738 C38.4437793,22.3883868 39.3460308,21.3040032 40.4555975,21.3040032 C41.5634677,21.3040032 42.4674157,22.3883868 42.4674157,23.7203738 C42.4657149,25.0523608 41.5634677,26.1367445 40.4555975,26.1367445 Z" id="Fill-21"></path>
                        </g>
                    </g>
                    <g id="Databricks" mask="url(#mask-2)">
                        <g transform="translate(20.000000, 17.000000)">
                            <g id="Lower" transform="translate(0.000000, 21.000000)">
                                <polygon id="Shadow" fill-opacity="0.093919837" fill="#000000" fill-rule="nonzero" points="5.82867088e-16 27.4842712 0 22.7533632 56 22.7533632 56 27.4842712 28 42.9685425"></polygon>
                                <polygon id="Rectangle-8" fill="#E63118" fill-rule="nonzero" points="56 15.4796753 56 25.8842712 28 41.3685425 28 30.9685425 55.785378 15.4842712"></polygon>
                                <polygon id="Rectangle-8" fill="#CC271F" fill-rule="nonzero" points="28 30.9685425 28 41.3685425 0 25.8842712 0 15.4816406"></polygon>
                                <polygon id="Rectangle-8" fill="#F65B23" fill-rule="nonzero" points="0 15.4842712 28 0 56 15.4842712 28 30.9685425"></polygon>
                            </g>
                            <g id="Top">
                                <polygon id="Shadow" fill-opacity="0.093919837" fill="#000000" fill-rule="nonzero" points="5.82867088e-16 27.4842712 0 22.7533632 56 22.7533632 56 27.4842712 28 42.9685425"></polygon>
                                <polygon id="Rectangle-8" fill="#E63118" fill-rule="nonzero" points="56 15.4796753 56 25.8842712 28 41.3685425 28 30.9685425 55.785378 15.4842712"></polygon>
                                <polygon id="Rectangle-8" fill="#CC271F" fill-rule="nonzero" points="28 30.9685425 28 41.3685425 0 25.8842712 0 15.4816406"></polygon>
                                <polygon id="Rectangle-8" fill="#F65B23" fill-rule="nonzero" points="0 15.4842712 28 0 56 15.4842712 28 30.9685425"></polygon>
                                <g id="Rectangle-10" fill-rule="nonzero">
                                    <use fill="#383838" xlink:href="#path-4"></use>
                                    <use fill="black" fill-opacity="1" filter="url(#filter-5)" xlink:href="#path-4"></use>
                                    <rect stroke-opacity="0.0993546196" stroke="#FFFFFF" stroke-width="1" x="5.5" y="13.5" width="45" height="4" rx="2"></rect>
                                </g>
                            </g>
                        </g>
                    </g>
                    <g id="Data" mask="url(#mask-2)">
                        <g transform="translate(26.000000, -3.000000)">
                            <mask id="mask-7" fill="white">
                                <use xlink:href="#path-6"></use>
                            </mask>
                            <g id="Rectangle-10" stroke="none" fill="none" fill-rule="nonzero"></g>
                            <g id="Fill-1" stroke="none" fill="none" fill-rule="nonzero" mask="url(#mask-7)">
                                <use fill="black" fill-opacity="1" filter="url(#filter-9)" xlink:href="#path-8"></use>
                                <use fill="#FFFFFF" xlink:href="#path-8"></use>
                            </g>
                            <g id="Fill-2" stroke="none" fill="none" fill-rule="nonzero" mask="url(#mask-7)">
                                <use fill="black" fill-opacity="1" filter="url(#filter-11)" xlink:href="#path-10"></use>
                                <use fill="#FFFFFF" xlink:href="#path-10"></use>
                            </g>
                            <g id="Fill-3" stroke="none" fill="none" fill-rule="nonzero" mask="url(#mask-7)">
                                <use fill="black" fill-opacity="1" filter="url(#filter-13)" xlink:href="#path-12"></use>
                                <use fill="#FFFFFF" xlink:href="#path-12"></use>
                            </g>
                            <g id="Fill-4" stroke="none" fill="none" fill-rule="nonzero" mask="url(#mask-7)">
                                <use fill="black" fill-opacity="1" filter="url(#filter-15)" xlink:href="#path-14"></use>
                                <use fill="#FFFFFF" xlink:href="#path-14"></use>
                            </g>
                            <g id="Fill-5" stroke="none" fill="none" fill-rule="nonzero" mask="url(#mask-7)">
                                <use fill="black" fill-opacity="1" filter="url(#filter-17)" xlink:href="#path-16"></use>
                                <use fill="#FFFFFF" xlink:href="#path-16"></use>
                            </g>
                            <g id="Fill-6" stroke="none" fill="none" fill-rule="nonzero" mask="url(#mask-7)">
                                <use fill="black" fill-opacity="1" filter="url(#filter-19)" xlink:href="#path-18"></use>
                                <use fill="#FFFFFF" xlink:href="#path-18"></use>
                            </g>
                            <g id="Fill-7" stroke="none" fill="none" fill-rule="nonzero" mask="url(#mask-7)">
                                <use fill="black" fill-opacity="1" filter="url(#filter-21)" xlink:href="#path-20"></use>
                                <use fill="#FFFFFF" xlink:href="#path-20"></use>
                            </g>
                            <g id="Fill-8" stroke="none" fill="none" fill-rule="nonzero" mask="url(#mask-7)">
                                <use fill="black" fill-opacity="1" filter="url(#filter-23)" xlink:href="#path-22"></use>
                                <use fill="#FFFFFF" xlink:href="#path-22"></use>
                            </g>
                            <g id="Fill-9" stroke="none" fill="none" fill-rule="nonzero" mask="url(#mask-7)">
                                <use fill="black" fill-opacity="1" filter="url(#filter-25)" xlink:href="#path-24"></use>
                                <use fill="#FFFFFF" xlink:href="#path-24"></use>
                            </g>
                            <g id="Fill-10" stroke="none" fill="none" fill-rule="nonzero" mask="url(#mask-7)">
                                <use fill="black" fill-opacity="1" filter="url(#filter-27)" xlink:href="#path-26"></use>
                                <use fill="#FFFFFF" xlink:href="#path-26"></use>
                            </g>
                            <g id="Fill-11" stroke="none" fill="none" fill-rule="nonzero" mask="url(#mask-7)">
                                <use fill="black" fill-opacity="1" filter="url(#filter-29)" xlink:href="#path-28"></use>
                                <use fill="#FFFFFF" xlink:href="#path-28"></use>
                            </g>
                            <g id="Fill-12" stroke="none" fill="none" fill-rule="nonzero" mask="url(#mask-7)">
                                <use fill="black" fill-opacity="1" filter="url(#filter-31)" xlink:href="#path-30"></use>
                                <use fill="#FFFFFF" xlink:href="#path-30"></use>
                            </g>
                            <g id="Fill-13" stroke="none" fill="none" fill-rule="nonzero" mask="url(#mask-7)">
                                <use fill="black" fill-opacity="1" filter="url(#filter-33)" xlink:href="#path-32"></use>
                                <use fill="#FFFFFF" xlink:href="#path-32"></use>
                            </g>
                            <g id="Fill-14" stroke="none" fill="none" fill-rule="nonzero" mask="url(#mask-7)">
                                <use fill="black" fill-opacity="1" filter="url(#filter-35)" xlink:href="#path-34"></use>
                                <use fill="#FFFFFF" xlink:href="#path-34"></use>
                            </g>
                            <g id="Fill-8" stroke="none" fill="none" fill-rule="nonzero" mask="url(#mask-7)">
                                <use fill="black" fill-opacity="1" filter="url(#filter-37)" xlink:href="#path-36"></use>
                                <use fill="#FFFFFF" xlink:href="#path-36"></use>
                            </g>
                            <g id="Fill-9" stroke="none" fill="none" fill-rule="nonzero" mask="url(#mask-7)">
                                <use fill="black" fill-opacity="1" filter="url(#filter-39)" xlink:href="#path-38"></use>
                                <use fill="#FFFFFF" xlink:href="#path-38"></use>
                            </g>
                            <g id="Fill-10" stroke="none" fill="none" fill-rule="nonzero" mask="url(#mask-7)">
                                <use fill="black" fill-opacity="1" filter="url(#filter-41)" xlink:href="#path-40"></use>
                                <use fill="#FFFFFF" xlink:href="#path-40"></use>
                            </g>
                            <g id="Fill-11" stroke="none" fill="none" fill-rule="nonzero" mask="url(#mask-7)">
                                <use fill="black" fill-opacity="1" filter="url(#filter-43)" xlink:href="#path-42"></use>
                                <use fill="#FFFFFF" xlink:href="#path-42"></use>
                            </g>
                            <g id="Fill-12" stroke="none" fill="none" fill-rule="nonzero" mask="url(#mask-7)">
                                <use fill="black" fill-opacity="1" filter="url(#filter-45)" xlink:href="#path-44"></use>
                                <use fill="#FFFFFF" xlink:href="#path-44"></use>
                            </g>
                            <g id="Fill-13" stroke="none" fill="none" fill-rule="nonzero" mask="url(#mask-7)">
                                <use fill="black" fill-opacity="1" filter="url(#filter-47)" xlink:href="#path-46"></use>
                                <use fill="#FFFFFF" xlink:href="#path-46"></use>
                            </g>
                            <g id="Fill-14" stroke="none" fill="none" fill-rule="nonzero" mask="url(#mask-7)">
                                <use fill="black" fill-opacity="1" filter="url(#filter-49)" xlink:href="#path-48"></use>
                                <use fill="#FFFFFF" xlink:href="#path-48"></use>
                            </g>
                            <g id="Fill-15" stroke="none" fill="none" fill-rule="nonzero" mask="url(#mask-7)">
                                <use fill="black" fill-opacity="1" filter="url(#filter-51)" xlink:href="#path-50"></use>
                                <use fill="#FFFFFF" xlink:href="#path-50"></use>
                            </g>
                            <g id="Fill-16" stroke="none" fill="none" fill-rule="nonzero" mask="url(#mask-7)">
                                <use fill="black" fill-opacity="1" filter="url(#filter-53)" xlink:href="#path-52"></use>
                                <use fill="#FFFFFF" xlink:href="#path-52"></use>
                            </g>
                            <g id="Fill-17" stroke="none" fill="none" fill-rule="nonzero" mask="url(#mask-7)">
                                <use fill="black" fill-opacity="1" filter="url(#filter-55)" xlink:href="#path-54"></use>
                                <use fill="#FFFFFF" xlink:href="#path-54"></use>
                            </g>
                            <g id="Fill-18" stroke="none" fill="none" fill-rule="nonzero" mask="url(#mask-7)">
                                <use fill="black" fill-opacity="1" filter="url(#filter-57)" xlink:href="#path-56"></use>
                                <use fill="#FFFFFF" xlink:href="#path-56"></use>
                            </g>
                            <g id="Fill-19" stroke="none" fill="none" fill-rule="nonzero" mask="url(#mask-7)">
                                <use fill="black" fill-opacity="1" filter="url(#filter-59)" xlink:href="#path-58"></use>
                                <use fill="#FFFFFF" xlink:href="#path-58"></use>
                            </g>
                            <g id="Fill-20" stroke="none" fill="none" fill-rule="nonzero" mask="url(#mask-7)">
                                <use fill="black" fill-opacity="1" filter="url(#filter-61)" xlink:href="#path-60"></use>
                                <use fill="#FFFFFF" xlink:href="#path-60"></use>
                            </g>
                            <g id="Fill-21" stroke="none" fill="none" fill-rule="nonzero" mask="url(#mask-7)">
                                <use fill="black" fill-opacity="1" filter="url(#filter-63)" xlink:href="#path-62"></use>
                                <use fill="#FFFFFF" xlink:href="#path-62"></use>
                            </g>
                            <g id="Rectangle-10" stroke="none" fill="none" opacity="0.394140625" fill-rule="nonzero" mask="url(#mask-7)">
                                <use fill="#383838" xlink:href="#path-64"></use>
                                <use fill="black" fill-opacity="1" filter="url(#filter-65)" xlink:href="#path-64"></use>
                            </g>
                        </g>
                    </g>
                </g>
                <g id="Azure-Border" stroke="#0078D4" stroke-width="4">
                    <rect x="2" y="2" width="96" height="96" rx="48"></rect>
                </g>
            </g>
        </g>
    </g>
</svg>