<svg width="154" height="172" viewBox="0 0 154 172" fill="none" xmlns="http://www.w3.org/2000/svg">
<g filter="url(#filter0_d)">
<path d="M70 6.04145C74.3316 3.54059 79.6684 3.54059 84 6.04145L142.746 39.9585C147.078 42.4594 149.746 47.0812 149.746 52.0829V119.917C149.746 124.919 147.078 129.541 142.746 132.041L84 165.959C79.6684 168.459 74.3316 168.459 70 165.959L11.2539 132.041C6.92225 129.541 4.25387 124.919 4.25387 119.917V52.0829C4.25387 47.0812 6.92225 42.4594 11.2539 39.9585L70 6.04145Z" fill="url(#paint0_linear)"/>
<path d="M84.875 4.52591C80.0019 1.71244 73.9981 1.71244 69.125 4.52591L10.3789 38.443C5.5058 41.2565 2.50387 46.456 2.50387 52.0829V119.917C2.50387 125.544 5.5058 130.744 10.3789 133.557L69.125 167.474C73.9981 170.288 80.0019 170.288 84.875 167.474L143.621 133.557C148.494 130.744 151.496 125.544 151.496 119.917V52.0829C151.496 46.456 148.494 41.2565 143.621 38.443L84.875 4.52591Z" stroke="#F2F1F0" stroke-width="3.5"/>
</g>
<path d="M70.5 7.06218C74.5222 4.73995 79.4778 4.73995 83.5 7.06218L142.112 40.9019C146.134 43.2242 148.612 47.5158 148.612 52.1603V119.84C148.612 124.484 146.134 128.776 142.112 131.098L83.5 164.938C79.4778 167.26 74.5222 167.26 70.5 164.938L11.8878 131.098C7.86563 128.776 5.38784 124.484 5.38784 119.84V52.1603C5.38784 47.5158 7.86563 43.2242 11.8878 40.9019L70.5 7.06218Z" stroke="#0078D4" stroke-width="4"/>
<path opacity="0.4" d="M107.662 90.8731C126.473 101.737 126.577 119.342 107.885 130.206C89.1936 141.071 58.7882 141.071 39.9781 130.206C21.1611 119.342 21.0636 101.73 39.7553 90.8731C58.44 80.0091 88.8454 80.0091 107.662 90.8731Z" fill="#1D4A79"/>
<path d="M106.662 88.7843C125.473 99.6483 125.577 117.254 106.885 128.118C88.1936 138.982 57.7882 138.982 38.9781 128.118C20.1611 117.254 20.0636 99.6413 38.7553 88.7843C57.44 77.9202 87.8454 77.9202 106.662 88.7843Z" fill="#AEE0EE"/>
<path d="M54.2051 52.3637C52.8495 51.1207 51.4355 50.103 49.9672 49.3689C46.3509 47.3917 43.1307 47.2791 40.7574 48.5221L35.2765 51.517C37.6499 50.274 40.7866 51.0832 44.4029 53.0603C45.8712 53.7944 47.1893 55.1083 48.6575 56.3513L51.0017 58.6163L56.5743 54.3409L54.2051 52.3637Z" fill="#AEE0EE"/>
<path d="M62.8481 85.9829L65.5593 84.4563L65.7304 35.0742C64.8252 35.0742 63.9243 35.1868 63.0191 35.3579L62.9065 78.6375L62.7355 79.0338L59.628 80.8399L59.2317 80.7815L47.1813 73.3402L46.7225 73.14L36.4407 55.6629C36.2696 55.6629 36.011 55.5878 35.7858 55.4752C34.9391 55.0247 34.2592 53.7817 34.2592 52.8766C34.2592 51.9172 34.9349 51.521 35.7858 52.0299C36.6325 52.4804 37.3124 53.6691 37.3124 54.6285C37.3124 54.8537 37.3124 55.0247 37.1998 55.1958L47.2022 72.5435L59.0107 79.38L61.7803 77.7407L61.8929 35.7041C55.169 37.5686 50.8186 43.8378 50.8186 53.5023C50.8186 53.8985 50.8186 54.349 50.8186 54.7453L50.9312 57.4565L48.6704 55.3668C47.2022 54.1238 45.9008 53.106 44.4326 52.3719C37.3124 48.5887 31.4937 51.6378 31.4937 59.321C31.4937 62.8248 32.6241 66.779 34.8264 70.508C36.9162 74.1244 39.6858 77.1192 42.6807 79.1506L46.4889 76.869L62.8481 85.9829Z" fill="url(#paint1_linear)"/>
<path d="M108.05 62.1947C102.907 50.6115 94.0938 40.6675 84.4335 35.5245C76.6919 31.3993 69.6302 31.003 64.5455 33.7727L58.9521 36.8801C64.0367 34.1105 71.0984 34.5068 78.84 38.632C88.4461 43.775 97.2597 53.8316 102.457 65.3565L103.078 66.8247L108.672 63.7172L108.05 62.1947Z" fill="#AEE0EE"/>
<path d="M135.905 100.39C135.905 87.7894 126.358 72.2519 114.549 65.9243C112.91 65.0192 111.329 64.3977 109.802 63.9472L108.672 63.6636L95.166 70.9505L96.2963 71.2342C97.823 71.6304 99.4038 72.2519 101.043 73.2113C112.852 79.5389 122.399 95.0221 122.399 107.677C122.399 109.146 122.287 110.447 122.003 111.915C122.003 112.028 121.89 112.311 121.89 112.424C121.494 114.176 120.647 116.153 120.026 116.946C119.913 117.058 119.913 117.171 119.801 117.229C119.688 117.342 121.382 115.536 121.269 115.648C120.364 116.891 125.169 115.536 123.926 116.27L129.69 113.221C131.046 112.487 132.176 111.469 133.082 110.226C133.194 110.113 133.194 110.001 133.307 109.942C133.419 109.83 133.419 109.717 133.532 109.663C134.154 108.816 135 106.893 135.397 105.141C135.397 105.029 135.509 104.745 135.509 104.632L123.701 111.073L135.509 104.632C135.793 103.273 135.905 101.804 135.905 100.39Z" fill="#AEE0EE"/>
<path d="M35.2183 53.4403C35.2183 53.7782 35.648 54.6461 35.986 54.8171C36.2697 54.9882 36.7162 54.1913 36.7162 53.9118C36.7162 53.5738 36.0778 52.9438 35.7357 52.7727C35.3977 52.5432 35.2183 53.0439 35.2183 53.4403Z" fill="#74CFEB"/>
<path d="M59.0064 79.3169L47.198 72.4805L37.1956 55.1327C37.254 54.9617 37.3082 54.7949 37.3082 54.5696C37.3082 53.6103 36.6325 52.4215 35.7816 51.971C34.9348 51.5163 34.2549 51.8584 34.2549 52.8177C34.2549 53.7771 34.9307 54.9659 35.7816 55.4164C36.0068 55.529 36.1778 55.5874 36.4031 55.5874L46.5723 73.1603L46.9686 73.615L59.2275 80.6767L59.6238 80.7351L62.7313 78.929L62.9023 78.5328L63.0149 35.3657C62.6186 35.4241 62.2224 35.5367 61.8303 35.6494L61.7177 77.686L59.0064 79.3169ZM35.7857 54.3444C35.5021 54.1734 35.2185 53.7229 35.2185 53.385C35.2185 53.0472 35.5021 52.8761 35.7857 53.0472C36.0694 53.2182 36.353 53.6686 36.353 54.0065C36.3489 54.3986 36.0694 54.5112 35.7857 54.3444Z" fill="white"/>
<path d="M108.955 69.0309C107.316 68.1257 105.735 67.5042 104.208 67.0537L103.078 66.7701L102.457 65.3019C97.9351 55.2453 90.6481 46.319 82.3976 40.7798L82.285 75.0206L82.2266 100.727L108.897 115.134C116.58 119.26 123.7 118.638 127.542 113.441C127.654 113.328 127.654 113.216 127.767 113.157C127.88 113.045 127.88 112.932 127.992 112.874C128.614 112.027 129.46 110.104 129.857 108.352C129.857 108.239 129.969 107.956 129.969 107.843C130.253 106.375 130.366 105.074 130.366 103.605C130.311 90.8417 120.764 75.3626 108.955 69.0309Z" fill="url(#paint2_linear)"/>
<path d="M77.3674 37.844C76.4622 37.3894 75.5613 36.9973 74.6561 36.6553L74.5435 93.4953L71.9449 95.0219L76.0701 97.2243L77.2005 96.6028L77.3674 37.844Z" fill="url(#paint3_linear)"/>
<path d="M73.4716 36.2629C72.5665 35.9793 71.6655 35.6957 70.7604 35.5288L70.5894 89.4324L66.3515 92.031L70.3641 94.1791L73.3006 92.5398L73.4716 36.2629Z" fill="url(#paint4_linear)"/>
<path d="M81.2675 40.046C80.475 39.5371 79.6866 39.0282 78.8399 38.5778C78.7273 38.5194 78.6146 38.4651 78.5562 38.4067L78.3852 97.5659L77.5385 98.0748L81.0965 99.9935L81.1549 74.2284L81.2675 40.046Z" fill="url(#paint5_linear)"/>
<path d="M66.9189 35.0742L66.7478 85.3614L63.5277 87.5095H63.1315L47.0184 78.1453L44.1487 80.0515L46.351 81.2361L55.1104 85.9829L64.7707 91.1801L69.4591 88.4689L69.6301 35.2995C68.725 35.191 67.8198 35.0742 66.9189 35.0742Z" fill="url(#paint6_linear)"/>
<path d="M70.7608 35.5289C70.3645 35.4163 70.0266 35.3579 69.5762 35.3579L69.4051 88.5273L64.7168 91.2386L66.3561 92.1437L70.5939 89.5451L70.7608 35.5289Z" fill="white"/>
<path d="M74.6564 36.7132C74.2601 36.5422 73.8639 36.4295 73.4676 36.2627L73.2966 92.5396L70.3601 94.1789L71.8868 95.0256L74.4854 93.499L74.6564 36.7132Z" fill="white"/>
<path d="M78.5565 38.4108C78.1603 38.1855 77.764 38.0145 77.3719 37.8477L77.2009 96.6648L76.0705 97.2863L77.5388 98.0788L78.3855 97.5699L78.5565 38.4108Z" fill="white"/>
<path d="M82.3977 40.726C82.0015 40.4424 81.6636 40.2755 81.209 40.0503L81.1547 74.2911L81.0963 100.056L82.2809 100.678L82.3393 74.971L82.3977 40.726Z" fill="white"/>
<path d="M63.1314 87.4509H63.5277L66.7478 85.3028L66.9188 35.0156C66.5226 35.0156 66.1263 35.0156 65.7342 35.0156L65.5632 84.3977L62.852 85.9785L46.4678 76.7103L42.6011 79.0961C42.7138 79.1545 42.9015 79.3047 43.0141 79.3631L44.1611 80.0639L47.0893 78.2411L63.1314 87.4509Z" fill="white"/>
<path opacity="0.1" d="M36.3552 93.772L37.6636 93.0259L50.928 100.241L49.578 100.987L36.3552 93.772Z" fill="black"/>
<path d="M49.5776 81.3788L49.5359 96.1912L36.3131 88.9759L36.3548 74.1636L49.5776 81.3788Z" fill="#092E4C"/>
<path d="M49.5779 81.3829L50.9279 80.6367L50.8759 95.449L49.5258 96.1952L49.5779 81.3829Z" fill="#1A2C45"/>
<path d="M36.3552 74.1534L37.6636 73.4072L50.928 80.6225L49.578 81.3687L36.3552 74.1534Z" fill="#1A2C45"/>
<path opacity="0.1" d="M33.051 96.1114L34.3594 95.3652L47.6239 102.581L46.2738 103.327L33.051 96.1114Z" fill="black"/>
<path d="M46.2737 83.7177L46.232 98.53L33.0092 91.3148L33.0509 76.5024L46.2737 83.7177Z" fill="#1D4A79"/>
<path d="M46.2736 83.7188L47.6237 82.9727L47.5716 97.785L46.2216 98.5311L46.2736 83.7188Z" fill="#243A5E"/>
<path d="M33.051 76.4923L34.3594 75.7461L47.6239 82.9614L46.2738 83.7075L33.051 76.4923Z" fill="#166CB3"/>
<path opacity="0.1" d="M29.7471 98.4468L31.0555 97.7007L44.3199 104.916L42.9664 105.662L29.7471 98.4468Z" fill="black"/>
<path d="M42.9733 86.0541L42.9317 100.866L29.7089 93.6512L29.7505 78.8389L42.9733 86.0541Z" fill="#2E77BC"/>
<path d="M42.9733 86.0543L44.3233 85.3081L44.2713 100.12L42.9212 100.867L42.9733 86.0543Z" fill="#165A98"/>
<path d="M29.7471 78.8282L31.0555 78.082L44.3199 85.2973L42.9664 86.0435L29.7471 78.8282Z" fill="#34AEE4"/>
<path opacity="0.1" d="M52.7001 104.567L54.9248 103.23L85.9341 120.58L83.6471 121.85L52.7001 104.567Z" fill="black"/>
<path d="M94.0232 87.3286L69.8672 100.513" stroke="white" stroke-width="1.5" stroke-miterlimit="10" stroke-linecap="round"/>
<path d="M115.108 74.7444L115.013 94.6655L93.938 82.8282L94.0334 62.6187L115.108 74.7444Z" fill="#243A5E"/>
<path d="M115.108 74.7444L117.611 73.3003L117.515 93.2214L115.013 94.6656L115.108 74.7444Z" fill="#166BB3"/>
<path d="M94.0334 62.6185L96.5357 61.1743L117.61 73.3L115.108 74.7442L94.0334 62.6185Z" fill="#2F94D1"/>
<path d="M125.257 106.412C133.523 101.576 133.502 86.0135 125.214 71.656C116.925 57.2966 103.505 49.5766 95.2404 54.4145C86.9744 59.2506 86.995 74.8129 95.2834 89.1704C103.572 103.528 116.991 111.248 125.257 106.412Z" stroke="white" stroke-width="1.5" stroke-miterlimit="10"/>
<path d="M128.031 91.3383V89.6991L119.561 85.1758V86.815L128.031 91.3383Z" fill="white"/>
<path d="M128.031 84.2338V82.5946L119.561 78.0713V79.7105L128.031 84.2338Z" fill="white"/>
<path d="M128.031 87.8286V86.1893L119.561 81.666V83.3053L128.031 87.8286Z" fill="white"/>
<path d="M82.5885 76.1559L84.3778 75.1118L84.1726 112.682L82.3833 113.766L81.8211 91.7463L82.5885 76.1559Z" fill="#0078D4"/>
<path d="M56.5927 61.1058L58.3641 60.0215L84.3733 75.1121L82.5841 76.1562L71.4111 71.4041L56.5927 61.1058Z" fill="#50E6FF"/>
<path d="M82.5885 76.1564L82.3833 113.762L56.4811 98.8102L56.5927 61.106L82.5885 76.1564Z" fill="#1D4A79"/>
<path d="M70.4295 93.5936C70.8667 93.848 71.2192 94.4548 71.2192 94.9546C71.2192 95.4543 70.8667 95.6596 70.4295 95.4186L60.9789 89.9571C60.5416 89.7027 60.1891 89.0959 60.1891 88.5961C60.1891 88.0964 60.5416 87.8911 60.9789 88.1455L70.4295 93.5936Z" fill="#2195DC"/>
<path d="M70.4384 88.1454C70.8757 88.3997 71.2282 89.0066 71.2282 89.5063C71.2282 90.0061 70.8757 90.2113 70.4384 89.9704L60.9922 84.5088C60.555 84.2545 60.2025 83.6477 60.2025 83.1479C60.2025 82.6482 60.555 82.4429 60.9922 82.6972L70.4384 88.1454Z" fill="#45CAF2"/>
<path d="M70.4518 82.7821C70.8891 83.0364 71.2416 83.6433 71.2416 84.143C71.2416 84.6428 70.8891 84.848 70.4518 84.6071L61.0056 79.1455C60.5684 78.8912 60.2159 78.2844 60.2159 77.7846C60.2159 77.2849 60.5684 77.0796 61.0056 77.334L70.4518 82.7821Z" fill="white"/>
<path d="M78.1354 85.6421L78.7779 86.7621L74.8737 88.9886L73.2584 86.1909L73.9143 85.825L74.8737 87.5028L78.1354 85.6421Z" fill="white"/>
<path d="M78.1131 96.6191L78.7556 97.7391L74.8424 99.9657L73.2272 97.168L73.8831 96.7932L74.8424 98.4709L78.1131 96.6191Z" fill="#2195DC"/>
<path d="M78.122 90.9785L78.7646 92.0985L74.8514 94.325L73.245 91.5273L73.8876 91.1615L74.8603 92.8392L78.122 90.9785Z" fill="#45CAF2"/>
<path fill-rule="evenodd" clip-rule="evenodd" d="M35.8454 85.6235C36.048 85.9848 35.9194 86.4419 35.5581 86.6445L24.5203 92.8343L24.5277 95.3046L19 94.8258L24.5059 87.9924L24.5152 91.1174L34.8244 85.3362C35.1857 85.1336 35.6428 85.2622 35.8454 85.6235ZM37.1776 93.2735L33.0209 92.5119V94.9262L23.1315 100.722C22.7742 100.931 22.6542 101.391 22.8637 101.748C23.0731 102.106 23.5326 102.226 23.89 102.016L33.0209 96.6648V99.0406L37.1776 93.2735Z" fill="white"/>
<g filter="url(#filter1_d)">
<path d="M106.723 75.1618C106.761 75.177 106.795 75.1868 106.836 75.237C107.064 75.5217 107.295 75.8022 107.524 76.0851C107.547 76.1133 107.581 76.139 107.582 76.1823C107.436 76.1695 107.305 76.1942 107.168 76.2066C107.058 76.2166 106.937 76.2019 106.841 76.2496C106.81 76.2288 106.786 76.2351 106.762 76.2371C105.761 76.3185 104.76 76.3997 103.759 76.4813C103.636 76.4913 103.513 76.5033 103.39 76.5145C103.409 76.5571 103.426 76.5687 103.443 76.581C103.789 76.8292 104.115 77.1365 104.429 77.4835C104.989 78.1027 105.472 78.7982 105.892 79.5555C105.93 79.6238 105.964 79.667 106.025 79.6856C106.461 79.8207 106.831 80.1642 107.134 80.7127C107.528 81.4259 107.489 82.2608 107.053 82.458C106.62 82.6539 106.037 82.351 105.584 81.688C105.524 81.5992 105.484 81.5771 105.42 81.5823C104.556 81.6516 103.69 81.7162 102.826 81.7845C102.714 81.7933 102.596 81.786 102.496 81.8235C102.237 81.8171 101.991 81.8443 101.747 81.8751C101.717 81.8694 101.692 81.8632 101.659 81.8235C101.413 81.5223 101.165 81.2235 100.916 80.9242C100.9 80.9047 100.888 80.8874 100.891 80.8653C101.148 80.8623 101.397 80.8405 101.644 80.8107C101.652 80.8129 101.662 80.8177 101.669 80.8172C102.82 80.7313 103.971 80.6446 105.123 80.5601C105.165 80.5571 105.178 80.533 105.175 80.4794C105.166 80.2796 105.198 80.1106 105.274 79.9799C105.304 79.9266 105.291 79.8772 105.249 79.8023C105.032 79.4126 104.799 79.0347 104.536 78.6799C104.166 78.1828 103.769 77.7431 103.329 77.3867C103.279 77.3458 103.251 77.3394 103.218 77.374C102.957 77.6535 102.602 77.6526 102.148 77.3417C101.541 76.9256 101.103 76.039 101.175 75.3757C101.272 74.4784 102.192 74.487 102.888 75.394C102.936 75.4567 102.966 75.4769 103.016 75.4728C103.865 75.4037 104.715 75.3392 105.564 75.2697C105.705 75.2581 105.855 75.2662 105.984 75.2226C106 75.2263 106.018 75.2344 106.032 75.2333C106.206 75.2203 106.381 75.2081 106.553 75.1905C106.611 75.185 106.681 75.2056 106.723 75.1618Z" fill="#50E7FE"/>
<path d="M106.723 75.1618C106.681 75.2056 106.611 75.185 106.553 75.1909C106.381 75.2084 106.206 75.2205 106.032 75.2337C106.018 75.2347 106 75.2268 105.984 75.223C105.425 74.553 104.865 73.884 104.307 73.212C104.253 73.1461 104.214 73.1268 104.161 73.1317C103.836 73.1618 103.508 73.1858 103.181 73.2115C102.146 73.2928 101.11 73.374 100.074 73.4546C100.034 73.4577 100.012 73.4712 100.012 73.5323C100.013 75.2816 100.013 77.03 100.012 78.7773C100.012 78.832 100.028 78.8683 100.067 78.9154C100.228 79.1053 100.388 79.297 100.547 79.4889C100.913 79.9292 101.278 80.37 101.644 80.8108C101.397 80.8406 101.147 80.8625 100.89 80.8654C100.4 80.2814 99.9138 79.6901 99.4165 79.1177C99.249 78.9245 99.1976 78.7837 99.1984 78.5693C99.2069 76.6011 99.2038 74.6263 99.2019 72.6522C99.2019 72.5734 99.2213 72.5407 99.2825 72.5368C100.913 72.4298 102.542 72.3199 104.171 72.2099C104.21 72.2073 104.241 72.2112 104.288 72.267C105.099 73.2334 105.911 74.1973 106.723 75.1618Z" fill="#0279D4"/>
<path d="M106.841 76.2493C106.936 76.2018 107.058 76.2166 107.168 76.2063C107.305 76.194 107.436 76.1693 107.582 76.182C108.124 76.8246 108.665 77.4682 109.208 78.1086C109.263 78.1735 109.266 78.2186 109.266 78.2764C109.265 79.3862 109.265 80.4966 109.265 81.6068C109.265 82.5358 109.264 83.4643 109.267 84.3949C109.267 84.4736 109.244 84.497 109.187 84.5008C107.559 84.6085 105.932 84.7187 104.305 84.8274C104.27 84.8299 104.24 84.8401 104.189 84.7797C103.376 83.8097 102.561 82.8425 101.747 81.8747C101.991 81.8441 102.237 81.8166 102.495 81.8231C103.047 82.4846 103.599 83.1452 104.149 83.8091C104.211 83.8839 104.255 83.9118 104.318 83.9067C105.672 83.7964 107.027 83.689 108.383 83.5845C108.44 83.5803 108.457 83.5522 108.457 83.4809C108.455 81.7508 108.455 80.0218 108.457 78.2941C108.457 78.2152 108.437 78.1622 108.376 78.0893C107.863 77.478 107.352 76.8631 106.841 76.2493Z" fill="#0279D4"/>
</g>
<defs>
<filter id="filter0_d" x="0.753868" y="0.666016" width="152.992" height="171.168" filterUnits="userSpaceOnUse" color-interpolation-filters="sRGB">
<feFlood flood-opacity="0" result="BackgroundImageFix"/>
<feColorMatrix in="SourceAlpha" type="matrix" values="0 0 0 0 0 0 0 0 0 0 0 0 0 0 0 0 0 0 127 0"/>
<feOffset dx="0.5" dy="0.5"/>
<feColorMatrix type="matrix" values="0 0 0 0 0.823529 0 0 0 0 0.831373 0 0 0 0 0.835294 0 0 0 1 0"/>
<feBlend mode="normal" in2="BackgroundImageFix" result="effect1_dropShadow"/>
<feBlend mode="normal" in="SourceGraphic" in2="effect1_dropShadow" result="shape"/>
</filter>
<filter id="filter1_d" x="95.1984" y="70.2095" width="18.0685" height="20.6199" filterUnits="userSpaceOnUse" color-interpolation-filters="sRGB">
<feFlood flood-opacity="0" result="BackgroundImageFix"/>
<feColorMatrix in="SourceAlpha" type="matrix" values="0 0 0 0 0 0 0 0 0 0 0 0 0 0 0 0 0 0 127 0"/>
<feOffset dy="2"/>
<feGaussianBlur stdDeviation="2"/>
<feColorMatrix type="matrix" values="0 0 0 0 0 0 0 0 0 0 0 0 0 0 0 0 0 0 0.15 0"/>
<feBlend mode="normal" in2="BackgroundImageFix" result="effect1_dropShadow"/>
<feBlend mode="normal" in="SourceGraphic" in2="effect1_dropShadow" result="shape"/>
</filter>
<linearGradient id="paint0_linear" x1="77" y1="2.00252" x2="77" y2="170.003" gradientUnits="userSpaceOnUse">
<stop stop-color="#00ABDE"/>
<stop offset="1" stop-color="#007ED8"/>
</linearGradient>
<linearGradient id="paint1_linear" x1="50.8845" y1="29.7023" x2="39.3006" y2="235.882" gradientUnits="userSpaceOnUse">
<stop stop-color="#4FC1EA"/>
<stop offset="0.585" stop-color="#2E76BC"/>
</linearGradient>
<linearGradient id="paint2_linear" x1="108.608" y1="32.944" x2="97.0241" y2="239.125" gradientUnits="userSpaceOnUse">
<stop stop-color="#4FC1EA"/>
<stop offset="0.585" stop-color="#2E76BC"/>
</linearGradient>
<linearGradient id="paint3_linear" x1="77.9181" y1="31.2211" x2="66.3342" y2="237.401" gradientUnits="userSpaceOnUse">
<stop stop-color="#4FC1EA"/>
<stop offset="0.585" stop-color="#2E76BC"/>
</linearGradient>
<linearGradient id="paint4_linear" x1="73.2714" y1="30.9597" x2="61.6886" y2="237.14" gradientUnits="userSpaceOnUse">
<stop stop-color="#4FC1EA"/>
<stop offset="0.585" stop-color="#2E76BC"/>
</linearGradient>
<linearGradient id="paint5_linear" x1="81.9485" y1="31.4471" x2="70.3657" y2="237.627" gradientUnits="userSpaceOnUse">
<stop stop-color="#4FC1EA"/>
<stop offset="0.585" stop-color="#2E76BC"/>
</linearGradient>
<linearGradient id="paint6_linear" x1="59.8401" y1="30.2049" x2="48.2573" y2="236.385" gradientUnits="userSpaceOnUse">
<stop stop-color="#4FC1EA"/>
<stop offset="0.585" stop-color="#2E76BC"/>
</linearGradient>
</defs>
</svg>
