<svg width="160" height="188" viewBox="0 0 160 188" fill="none" xmlns="http://www.w3.org/2000/svg">
<g clip-path="url(#clip0)">
<path d="M79.6779 188C82.7592 187.994 85.7796 187.141 88.4083 185.534L150.384 147.874C153.165 146.11 155.449 143.665 157.019 140.771C158.589 137.876 159.394 134.628 159.356 131.336V56.6207C159.392 53.3283 158.587 50.0812 157.017 47.1871C155.447 44.2929 153.163 41.8476 150.384 40.0829L88.4083 2.4228C85.7749 0.837605 82.7592 0 79.6855 0C76.6118 0 73.5961 0.837605 70.9627 2.4228L8.9876 40.098C6.2045 41.8604 3.91796 44.3048 2.34499 47.1991C0.772021 50.0935 -0.0351786 53.3418 4.1431e-06 56.6358V131.336C-0.0185283 134.119 0.556189 136.874 1.68588 139.418C2.81557 141.962 4.4743 144.236 6.5516 146.089V146.115L70.9627 185.549C73.5884 187.149 76.6032 187.996 79.6779 188V188ZM80.3257 6.95218C82.2776 6.95218 84.7548 8.1651 86.4646 9.20912L147.222 46.4034C150.974 48.6881 153.09 55.2842 153.09 60.0352L152.458 131.336C152.458 136.087 149.259 140.355 145.506 142.64L85.1104 179.021C81.6758 181.109 78.8854 181.109 75.4507 179.021L14.2427 142.549C10.4903 140.265 7.47191 136.072 7.47191 131.336V57.688C7.50442 55.3228 8.11341 53.0013 9.24608 50.9247C10.3787 48.8482 12.0009 47.0792 13.9718 45.7714L74.548 9.20912C76.2577 8.1651 78.3739 6.95218 80.3257 6.95218Z" fill="#F2F1F0"/>
<path fill-rule="evenodd" clip-rule="evenodd" d="M87.5765 10.5337C85.2056 9.0602 82.4697 8.2793 79.6783 8.2793C76.8868 8.2793 74.1509 9.0602 71.7801 10.5337L15.6454 44.8651C13.1193 46.4768 11.047 48.7072 9.625 51.3446C8.203 53.9821 7.47851 56.9392 7.52026 59.9352V128.038C7.48034 131.034 8.20562 133.991 9.62745 136.628C11.0493 139.265 13.1206 141.495 15.6454 143.108L71.7801 177.439C74.1508 178.913 76.8867 179.694 79.6783 179.694C82.4698 179.694 85.2057 178.913 87.5765 177.439L143.711 143.108C146.236 141.496 148.307 139.265 149.729 136.628C151.151 133.991 151.877 131.034 151.837 128.038V59.9352C151.875 56.9397 151.149 53.9839 149.727 51.347C148.305 48.7101 146.234 46.4793 143.711 44.8651L87.5765 10.5337Z" fill="url(#paint0_linear)"/>
<path fill-rule="evenodd" clip-rule="evenodd" d="M79.6783 9.7539C81.3615 9.7539 83.2442 10.6196 85.311 11.8777L143.777 47.4201C145.668 48.6335 147.218 50.3104 148.278 52.2914C149.339 54.2725 149.875 56.4918 149.837 58.7386V129.217C149.875 131.464 149.339 133.683 148.278 135.664C147.218 137.645 145.668 139.322 143.777 140.535L85.312 176.077L85.311 176.078C83.6408 177.217 81.6958 177.888 79.6783 178.021C77.6609 177.888 75.7158 177.217 74.0456 176.078L74.0446 176.077L15.5823 140.537L15.5801 140.536C13.7918 139.572 12.2668 138.185 11.1383 136.496C10.1614 134.893 9.52031 132.678 9.52031 129.217V58.7386C9.48157 56.4919 10.018 54.2726 11.0785 52.2916C12.139 50.3106 13.6885 48.6336 15.5797 47.4202L74.0365 11.8831L74.0406 11.8807C76.1244 10.6277 77.9846 9.7539 79.6783 9.7539ZM87.3908 8.4609L145.855 44.0021C148.333 45.5722 150.368 47.751 151.765 50.3307C153.162 52.9104 153.876 55.8051 153.837 58.7386V129.217C153.876 132.151 153.162 135.045 151.765 137.625C150.368 140.205 148.333 142.384 145.855 143.954L87.3898 179.495C85.0956 181.02 82.4302 181.893 79.6783 182.021C76.9264 181.893 74.261 181.02 71.9667 179.495H71.9658L13.502 143.953L13.4995 143.952C11.1642 142.659 9.18097 140.814 7.72281 138.578C6.12823 135.725 5.36521 132.482 5.52031 129.217V58.7386C5.48125 55.805 6.19436 52.9103 7.59165 50.3305C8.98894 47.7508 11.0238 45.572 13.5022 44.002L71.9667 8.46025L71.9749 8.45537C74.0655 7.19796 76.7734 5.75391 79.6783 5.75391C82.5645 5.75391 85.2816 7.17699 87.3908 8.46085V8.4609Z" fill="#0078D4"/>
<path opacity="0.2" d="M139.887 131.926L80.3369 166.533L20.3979 131.927L79.9479 97.3203L139.887 131.926Z" fill="#003067"/>
<path d="M140.532 120.547L79.81 155.835L18.698 120.552L79.42 85.2637L140.532 120.547Z" fill="#1B93EB"/>
<path d="M140.532 120.547L140.52 124.653L79.798 159.941L79.81 155.835L140.532 120.547Z" fill="#1F56A3"/>
<path d="M79.81 155.834L79.798 159.94L18.686 124.657L18.698 120.551L79.81 155.834Z" fill="#0078D4"/>
<path d="M59.6828 56.1323C58.0656 55.1926 55.8281 55.3229 53.3583 56.7489C52.6508 57.1586 51.9843 57.6353 51.3679 58.1725L52.9158 59.072C53.5322 58.5349 54.1988 58.0582 54.9063 57.6485C57.3761 56.2225 59.6137 56.0921 61.2307 57.0319L59.6828 56.1323Z" fill="#E8E8E8"/>
<path d="M41.6749 57.6442C35.3507 61.2954 30.2422 70.1438 30.2629 77.4188C30.2634 77.6041 30.264 77.7814 30.2784 77.9505C29.6244 78.088 28.9982 78.3349 28.4264 78.6809C26.7915 79.7444 25.431 81.1792 24.4559 82.8683C23.4807 84.5574 22.9184 86.453 22.8148 88.4007C22.7447 89.0939 22.8598 89.7933 23.1483 90.4274C23.4369 91.0616 23.8886 91.6078 24.4573 92.0103L26.0052 92.9098C25.4365 92.5073 24.9848 91.9611 24.6963 91.327C24.4077 90.6928 24.2926 89.9934 24.3628 89.3002C24.4664 87.3526 25.0287 85.457 26.0039 83.7678C26.979 82.0787 28.3395 80.6439 29.9745 79.5804C30.5462 79.2344 31.1723 78.9875 31.8264 78.8501C31.8119 78.6809 31.8114 78.5037 31.8108 78.3184C31.7903 71.0434 36.8987 62.195 43.223 58.5437C46.4059 56.7061 49.2805 56.5244 51.3636 57.735L49.8157 56.8354C47.7325 55.6249 44.8578 55.8065 41.6749 57.6442Z" fill="#E8E8E8"/>
<path d="M43.2229 58.5441C36.8987 62.1954 31.7901 71.0437 31.8107 78.3188C31.8113 78.5041 31.8117 78.6813 31.8263 78.8505C31.1722 78.9879 30.5461 79.2348 29.9743 79.5808C28.3394 80.6443 26.9789 82.0791 26.0037 83.7682C25.0286 85.4573 24.4663 87.353 24.3627 89.3006C24.3722 92.6682 26.6166 94.1242 29.4571 92.8151L54.9503 78.1531C58.5381 75.8405 61.271 72.4177 62.732 68.407C62.7668 68.2981 62.8227 68.1771 62.8574 68.0683C63.1925 67.1007 63.4527 66.1088 63.6356 65.1013C63.6423 64.9925 63.6701 64.8715 63.6838 64.7748C63.7846 64.1054 63.8344 63.4292 63.8326 62.7522C63.8166 57.1046 59.8212 54.8116 54.9062 57.6493C54.1987 58.059 53.5322 58.5357 52.9158 59.0728C50.865 56.5528 47.2964 56.1922 43.2229 58.5441Z" fill="white"/>
<path d="M84.0726 49.6077C83.9177 49.4951 83.7354 49.4259 83.5447 49.4074C83.354 49.3889 83.1618 49.4217 82.9881 49.5024L80.9633 50.6791C81.137 50.5984 81.3292 50.5656 81.5198 50.5841C81.7105 50.6026 81.8928 50.6718 82.0477 50.7844L88.7064 54.6288L90.7312 53.452L84.0726 49.6077Z" fill="#1F56A3"/>
<path d="M88.7061 54.6282L90.7311 53.4512L109.661 64.3802L107.636 65.5572L88.7061 54.6282Z" fill="#C3F1FF"/>
<path d="M95.7936 53.1966C95.5123 52.9917 95.1814 52.8658 94.8351 52.8317C94.4888 52.7976 94.1397 52.8566 93.8239 53.0026L91.7991 54.1793C92.1149 54.0333 92.464 53.9743 92.8103 54.0084C93.1566 54.0425 93.4875 54.1685 93.7688 54.3733L95.6674 55.4694L97.6922 54.2927L95.7936 53.1966Z" fill="#C3F1FF"/>
<path d="M98.2024 54.0256C98.9355 54.5026 99.5454 55.1462 99.9823 55.9039C100.419 56.6616 100.671 57.5118 100.716 58.3853C100.712 59.9872 99.58 60.6321 98.1859 59.8273C97.4523 59.351 96.8417 58.7081 96.404 57.9509C95.9663 57.1936 95.7139 56.3436 95.6674 55.4703C95.6719 53.8684 96.8082 53.2207 98.2024 54.0256Z" fill="#9CEBFF"/>
<path d="M104.644 58.3068L102.741 57.208C102.696 56.3346 102.444 55.4843 102.007 54.7267C101.57 53.969 100.96 53.3254 100.227 52.8484C99.9704 52.6617 99.6684 52.547 99.3524 52.5162C99.0364 52.4854 98.7179 52.5396 98.4299 52.6732L96.405 53.85C96.6931 53.7164 97.0116 53.6622 97.3276 53.693C97.6436 53.7238 97.9456 53.8384 98.2024 54.0251C98.9355 54.5021 99.5454 55.1457 99.9824 55.9034C100.419 56.6611 100.671 57.5113 100.716 58.3848L102.619 59.4835C103.423 60.0045 104.091 60.7081 104.57 61.5369C105.049 62.3658 105.325 63.2962 105.376 64.2522L107.401 63.0755C107.35 62.1195 107.074 61.1891 106.595 60.3602C106.116 59.5314 105.448 58.8277 104.644 58.3068V58.3068Z" fill="#C3F1FF"/>
<path d="M113.924 69.1883C114.367 69.4776 114.737 69.8676 115.001 70.3267C115.266 70.7858 115.418 71.3009 115.446 71.83L115.309 120.045C115.306 121.015 114.621 121.405 113.777 120.918L81.9012 102.515C81.4574 102.226 81.0882 101.837 80.8237 101.379C80.5591 100.921 80.4068 100.407 80.379 99.8783L80.5157 51.6631C80.5185 50.6935 81.204 50.2976 82.0478 50.7847L88.7064 54.6291L88.6998 56.9424C88.7275 57.4715 88.8797 57.9865 89.1442 58.4456C89.4087 58.9047 89.778 59.2947 90.2218 59.584L106.093 68.7474C106.937 69.2346 107.627 68.8413 107.63 67.8717L107.636 65.5584L113.924 69.1883Z" fill="#0078D4"/>
<path d="M83.4201 53.3208C83.2731 53.236 83.1063 53.1914 82.9366 53.1914C82.7669 53.1914 82.6003 53.2361 82.4533 53.321C82.3064 53.4059 82.1843 53.5279 82.0995 53.6749C82.0147 53.8219 81.97 53.9886 81.97 54.1583V78.5869L81.9634 78.5831V94.3394C81.8615 95.539 81.4401 96.6892 80.7429 97.6706C80.0456 98.652 79.0982 99.4286 77.999 99.9197C77.4374 100.196 76.8098 100.31 76.1868 100.249C76.1639 100.245 76.1403 100.249 76.1201 100.26C76.0999 100.272 76.0844 100.29 76.0763 100.312C76.0682 100.334 76.0682 100.357 76.0761 100.379C76.084 100.401 76.0994 100.419 76.1195 100.431C80.8156 103.151 106.681 118.129 107.342 118.456C107.773 118.68 108.252 118.797 108.739 118.797C109.225 118.797 109.704 118.68 110.135 118.456C111.234 117.965 112.181 117.188 112.878 116.207C113.576 115.226 113.997 114.075 114.099 112.876V72.1204C114.099 71.7862 114.011 71.4577 113.844 71.1683C113.677 70.8788 113.437 70.6384 113.147 70.4714L83.4201 53.3208Z" fill="white"/>
<path d="M115.948 68.0107L109.661 64.3809L107.636 65.5576L113.924 69.1875C114.368 69.4767 114.737 69.8668 115.001 70.3259C115.266 70.7849 115.418 71.3 115.446 71.8291L115.309 120.044C115.328 120.232 115.297 120.422 115.219 120.594C115.14 120.766 115.018 120.915 114.864 121.024L116.889 119.847C117.043 119.738 117.165 119.59 117.244 119.418C117.322 119.245 117.353 119.056 117.334 118.868L117.471 70.6524C117.443 70.1233 117.291 69.6082 117.026 69.1491C116.762 68.6901 116.392 68.3 115.948 68.0107V68.0107Z" fill="#1F56A3"/>
<path d="M98.1966 55.6259C98.5255 55.8398 98.7991 56.1285 98.995 56.4684C99.191 56.8082 99.3038 57.1896 99.3243 57.5814C99.3223 58.3 98.8146 58.5893 98.1893 58.2282C97.8602 58.0146 97.5863 57.7262 97.39 57.3866C97.1937 57.0469 97.0804 56.6656 97.0596 56.2739C97.0616 55.5553 97.5713 55.2648 98.1966 55.6259Z" fill="url(#paint1_linear)"/>
<path d="M105.373 64.2185C105.317 63.2688 105.039 62.3456 104.56 61.5232C104.082 60.7009 103.417 60.0025 102.619 59.4843L100.716 58.3856C100.712 59.9875 99.58 60.6324 98.186 59.8276C97.4524 59.3514 96.8418 58.7084 96.4041 57.9512C95.9664 57.194 95.7139 56.344 95.6674 55.4706L93.7689 54.3745C92.2418 53.4928 90.9996 54.1955 90.9946 55.9501L88.7064 54.629L88.6997 56.9423C88.7274 57.4714 88.8797 57.9864 89.1442 58.4455C89.4087 58.9045 89.7779 59.2946 90.2218 59.5839L106.093 68.7473C106.937 69.2344 107.627 68.8412 107.63 67.8716L107.636 65.5583L105.373 64.2185Z" fill="#9CEBFF"/>
<path d="M89.2394 65.3405C90.3219 66.0429 91.2229 66.9914 91.8688 68.1086C92.5147 69.2257 92.8872 70.4798 92.9559 71.7684C92.9491 74.1415 91.2723 75.0878 89.2151 73.9001C88.1315 73.1966 87.2299 72.2466 86.5839 71.1278C85.938 70.009 85.5661 68.7531 85.4987 67.463C85.5054 65.0992 87.1823 64.1528 89.2394 65.3405Z" fill="#0078D4"/>
<path d="M90.6103 69.0693C90.7492 69.1561 90.8635 69.277 90.9423 69.4205C91.1266 69.7304 91.1256 70.072 90.9402 70.1777L89.0698 71.2435C89.0161 71.2656 88.9577 71.2736 88.9 71.267C88.8424 71.2604 88.7873 71.2393 88.74 71.2057C88.6034 71.1208 88.4903 71.003 88.411 70.8632L87.4738 69.2492L87.4819 69.2446C87.3057 68.9301 87.3066 68.5977 87.484 68.4966C87.5375 68.4724 87.5964 68.4627 87.6549 68.4684C87.7133 68.4741 87.7692 68.4952 87.817 68.5294C87.9543 68.6147 88.0667 68.7346 88.143 68.8771L88.191 68.9696L88.7438 69.9176L90.2836 69.0401C90.3355 69.0147 90.3934 69.004 90.451 69.0092C90.5086 69.0143 90.5637 69.0351 90.6103 69.0693Z" fill="white"/>
<path d="M89.2394 78.5944C90.3219 79.2968 91.2229 80.2454 91.8688 81.3625C92.5147 82.4796 92.8872 83.7337 92.9559 85.0223C92.9491 87.3954 91.2723 88.3418 89.2151 87.154C88.1315 86.4505 87.2299 85.5005 86.5839 84.3817C85.938 83.2629 85.5661 82.007 85.4987 80.7169C85.5054 78.353 87.1823 77.4067 89.2394 78.5944Z" stroke="#E8E8E8" stroke-width="0.60517" stroke-miterlimit="10"/>
<path d="M90.6102 82.3252C90.7491 82.412 90.8634 82.5329 90.9422 82.6764C91.1265 82.9862 91.1255 83.3279 90.9401 83.4335L89.0697 84.4994C89.016 84.5214 88.9576 84.5295 88.8999 84.5229C88.8423 84.5163 88.7872 84.4952 88.7399 84.4616C88.6033 84.3767 88.4902 84.2589 88.4109 84.119L87.4736 82.505L87.4817 82.5004C87.3056 82.186 87.3065 81.8536 87.4839 81.7525C87.5374 81.7283 87.5963 81.7185 87.6547 81.7243C87.7132 81.73 87.7691 81.751 87.8169 81.7852C87.9542 81.8705 88.0666 81.9905 88.1429 82.133L88.1909 82.2254L88.7436 83.1735L90.2835 82.296C90.3354 82.2706 90.3933 82.2599 90.4509 82.265C90.5085 82.2702 90.5636 82.291 90.6102 82.3252V82.3252Z" fill="#E8E8E8"/>
<path d="M89.2394 91.1608C90.3219 91.8632 91.2229 92.8118 91.8688 93.9289C92.5147 95.046 92.8872 96.3001 92.9559 97.5887C92.9491 99.9618 91.2723 100.908 89.2151 99.7204C88.1315 99.0169 87.2299 98.0669 86.5839 96.9481C85.938 95.8293 85.5661 94.5734 85.4987 93.2833C85.5054 90.9195 87.1823 89.9731 89.2394 91.1608Z" stroke="#E8E8E8" stroke-width="0.60517" stroke-miterlimit="10"/>
<path d="M90.6103 94.8896C90.7492 94.9764 90.8635 95.0973 90.9423 95.2408C91.1266 95.5507 91.1256 95.8924 90.9402 95.998L89.0698 97.0639C89.0161 97.0859 88.9577 97.0939 88.9 97.0873C88.8424 97.0807 88.7873 97.0596 88.74 97.026C88.6035 96.9411 88.4903 96.8233 88.411 96.6835L87.4738 95.0695L87.4819 95.0649C87.3057 94.7504 87.3066 94.418 87.484 94.317C87.5375 94.2927 87.5964 94.283 87.6549 94.2887C87.7133 94.2945 87.7692 94.3155 87.817 94.3497C87.9543 94.435 88.0667 94.5549 88.143 94.6974L88.191 94.7899L88.7438 95.7379L90.2836 94.8604C90.3355 94.835 90.3934 94.8244 90.451 94.8295C90.5086 94.8346 90.5637 94.8554 90.6103 94.8896Z" fill="#E8E8E8"/>
<path d="M108.244 77.5168C108.466 77.6618 108.651 77.8572 108.784 78.087C108.917 78.3168 108.993 78.5746 109.008 78.8395C109.007 79.3237 108.661 79.5209 108.239 79.2776L97.0406 72.812C96.8177 72.6677 96.6323 72.4725 96.4995 72.2425C96.3667 72.0126 96.2904 71.7544 96.2769 71.4892C96.2782 71.005 96.6178 70.8042 97.0456 71.0512L108.244 77.5168Z" fill="#0078D4"/>
<path d="M103.468 78.7001C103.691 78.8438 103.877 79.0388 104.01 79.2689C104.143 79.4989 104.219 79.7574 104.231 80.0228C104.23 80.507 103.891 80.7005 103.463 80.4535L97.1036 76.7821C96.8826 76.639 96.6986 76.4455 96.567 76.2175C96.4353 75.9894 96.3597 75.7334 96.3463 75.4704C96.3477 74.9788 96.6872 74.7854 97.1086 75.0287L103.468 78.7001Z" fill="#0078D4"/>
<path d="M108.244 89.4328C108.466 89.5779 108.651 89.7732 108.784 90.003C108.917 90.2328 108.993 90.4906 109.008 90.7555C109.007 91.2398 108.661 91.4369 108.239 91.1936L97.0406 84.728C96.8177 84.5837 96.6323 84.3885 96.4995 84.1586C96.3667 83.9286 96.2904 83.6704 96.2769 83.4053C96.2782 82.9211 96.6178 82.7202 97.0456 82.9672L108.244 89.4328Z" fill="#E8E8E8"/>
<path d="M103.468 90.6163C103.69 90.7591 103.876 90.9529 104.009 91.1817C104.141 91.4104 104.218 91.6675 104.231 91.9317C104.23 92.4232 103.891 92.6167 103.463 92.3697L97.1036 88.6983C96.8817 88.5544 96.6972 88.3597 96.5655 88.1303C96.4338 87.9009 96.3587 87.6435 96.3463 87.3792C96.3477 86.895 96.6872 86.7016 97.1086 86.9449L103.468 90.6163Z" fill="#E8E8E8"/>
<path d="M108.244 102.069C108.466 102.213 108.651 102.407 108.784 102.635C108.917 102.864 108.993 103.121 109.008 103.384C109.007 103.869 108.661 104.066 108.239 103.823L97.0406 97.3569C96.8177 97.2126 96.6323 97.0175 96.4995 96.7875C96.3667 96.5576 96.2904 96.2994 96.2769 96.0342C96.2782 95.55 96.6177 95.3565 97.0455 95.6035L108.244 102.069Z" fill="#E8E8E8"/>
<path d="M103.468 103.244C103.691 103.388 103.876 103.583 104.009 103.813C104.142 104.043 104.218 104.301 104.231 104.566C104.23 105.051 103.891 105.244 103.463 104.997L97.1036 101.326C96.8826 101.183 96.6986 100.989 96.567 100.761C96.4353 100.533 96.3597 100.277 96.3463 100.014C96.3477 99.5298 96.6872 99.329 97.1086 99.5723L103.468 103.244Z" fill="#E8E8E8"/>
<path opacity="0.2" d="M119.051 127.943C119.22 128 119.366 128.109 119.47 128.254C119.574 128.399 119.63 128.573 119.63 128.751C119.63 128.929 119.575 129.103 119.472 129.248C119.369 129.393 119.222 129.503 119.054 129.561C118.622 129.781 118.145 129.895 117.66 129.895C117.176 129.895 116.698 129.781 116.267 129.561L99.2834 119.756C99.1146 119.699 98.9678 119.591 98.8634 119.447C98.759 119.303 98.7023 119.13 98.7013 118.952C98.7003 118.774 98.755 118.6 98.8578 118.454C98.9605 118.309 99.1062 118.199 99.2743 118.141C99.7068 117.921 100.185 117.805 100.671 117.805C101.156 117.804 101.635 117.918 102.068 118.137L119.051 127.943Z" fill="#003067"/>
<path d="M111.208 118.931L113.364 117.678L114.42 119.51L112.264 120.763L111.208 118.931Z" fill="#0078D4"/>
<path d="M113.372 115.029C112.725 115.387 112.722 116.576 113.364 117.678C113.005 117.886 112.646 118.095 112.286 118.304C112.011 118.464 111.735 118.624 111.46 118.784L111.208 118.931C110.566 117.829 110.569 116.64 111.216 116.282C111.863 115.906 112.725 115.405 113.372 115.029Z" fill="#0078D4"/>
<path d="M107.758 114.465C103.393 111.944 99.8499 105.807 99.8641 100.791C99.8712 98.2992 100.755 96.5436 102.178 95.7168L100.022 96.9698C98.5989 97.7966 97.7152 99.5522 97.7081 102.044C97.6939 107.06 101.237 113.197 105.602 115.718C107.799 116.986 109.794 117.101 111.235 116.264L113.391 115.011C111.95 115.848 109.955 115.733 107.758 114.465Z" fill="#1F56A3"/>
<path d="M111.216 116.283L113.372 115.03C113.557 114.946 113.76 114.913 113.962 114.934C114.163 114.954 114.356 115.027 114.521 115.145L112.365 116.398C112.2 116.28 112.007 116.207 111.806 116.187C111.604 116.166 111.401 116.199 111.216 116.283V116.283Z" fill="#0078D4"/>
<path d="M113.511 117.608L115.667 116.355L116.728 118.193L114.572 119.446L113.511 117.608Z" fill="#0078D4"/>
<path d="M105.648 97.5196C110.021 100.045 113.549 106.164 113.535 111.189C113.52 116.215 109.97 118.238 105.596 115.713C101.223 113.188 97.6872 107.073 97.7015 102.048C97.7157 97.0227 101.275 94.9946 105.648 97.5196Z" fill="url(#paint2_linear)"/>
<path d="M112.365 116.398L114.521 115.145C115 115.443 115.395 115.86 115.667 116.354L113.511 117.607C113.238 117.112 112.844 116.696 112.365 116.398Z" fill="#0078D4"/>
<path d="M121.186 125.914L116.728 118.192C118.12 116.854 118.948 114.679 118.957 111.813C118.977 104.732 113.983 96.0827 107.821 92.5249C104.72 90.7346 101.906 90.5705 99.874 91.7516L97.718 93.0046C99.7502 91.8234 102.564 91.9876 105.665 93.7779C111.827 97.3357 116.82 105.985 116.801 113.066C116.792 115.932 115.964 118.107 114.572 119.445L119.03 127.167C119.663 128.263 119.659 129.452 119.022 129.815L121.178 128.562C121.815 128.199 121.819 127.01 121.186 125.914Z" fill="#1F56A3"/>
<path d="M119.03 127.168L114.572 119.446C115.964 118.108 116.792 115.933 116.801 113.067C116.821 105.986 111.827 97.3367 105.665 93.7788C99.5023 90.221 94.4763 93.0853 94.4561 100.166C94.436 107.247 99.4297 115.896 105.592 119.454C108.088 120.895 110.398 121.282 112.264 120.763L116.718 128.485C116.991 128.981 117.388 129.399 117.869 129.698C118.034 129.817 118.227 129.89 118.43 129.911C118.632 129.932 118.837 129.899 119.022 129.816C119.659 129.453 119.663 128.264 119.03 127.168ZM105.602 115.717C101.237 113.197 97.694 107.06 97.7082 102.044C97.7225 97.0277 101.289 94.9953 105.654 97.5156C110.02 100.036 113.563 106.173 113.549 111.189C113.534 116.205 109.968 118.238 105.602 115.717Z" fill="#0078D4"/>
<path opacity="0.3" d="M59.0911 121.688C59.0911 121.562 59.0843 121.435 59.0707 121.31C59.0855 121.501 59.0846 121.693 59.068 121.885L59.0657 121.907C59.0844 121.708 59.086 121.508 59.0706 121.308L59.0707 121.31C59.0696 121.299 59.072 121.288 59.0708 121.277L59.0686 121.278C59.0346 120.971 58.9623 120.67 58.8535 120.381L58.8557 120.38L58.8486 120.366C58.7435 120.093 58.6108 119.831 58.4526 119.584C58.4383 119.561 58.4252 119.539 58.4104 119.516C58.2383 119.257 58.0441 119.012 57.8298 118.786C57.817 118.772 57.8093 118.758 57.7964 118.744L57.7909 118.745C57.2733 118.213 56.6825 117.758 56.0364 117.393C53.7685 116.238 51.2597 115.636 48.7149 115.637C46.1701 115.637 43.6615 116.239 41.3938 117.394C39.385 118.561 38.384 120.091 38.3871 121.621L38.386 121.604L38.3831 122.659C38.3903 123.413 38.6177 124.147 39.0373 124.773C39.058 124.805 39.0791 124.837 39.1008 124.869C39.1338 124.918 39.1679 124.966 39.2031 125.014C39.2732 125.11 39.3477 125.205 39.4268 125.3C39.4416 125.317 39.46 125.334 39.4751 125.352C39.4857 125.364 39.4983 125.376 39.509 125.389C39.7332 125.645 39.9774 125.883 40.2393 126.101L40.2616 126.12C40.5751 126.374 40.9063 126.605 41.2526 126.812V126.817C41.3146 126.855 41.3745 126.892 41.4385 126.929C41.5381 126.987 41.6391 127.043 41.7415 127.097C41.7935 127.125 41.8458 127.152 41.8985 127.179L41.9626 127.212L41.9902 127.226C42.0465 127.254 42.1032 127.282 42.1605 127.309L42.1935 127.323C42.3456 127.396 42.5052 127.459 42.6625 127.526C42.7872 127.579 42.9085 127.635 43.0363 127.685C43.1943 127.745 43.3588 127.797 43.521 127.853C43.6556 127.898 43.7872 127.948 43.9247 127.991C44.0787 128.038 44.2379 128.076 44.395 128.119C44.5472 128.16 44.6971 128.205 44.8519 128.241C44.9846 128.273 45.1209 128.296 45.2554 128.324C45.4305 128.361 45.6039 128.401 45.7816 128.432L45.8422 128.442C45.8959 128.452 45.9497 128.461 46.0038 128.469C46.0563 128.478 46.1089 128.486 46.1615 128.494L46.183 128.497C46.2692 128.51 46.3556 128.522 46.4423 128.533L46.5054 128.542C46.5562 128.548 46.608 128.55 46.6591 128.556C46.8556 128.58 47.0536 128.597 47.2517 128.613C47.4111 128.627 47.5696 128.644 47.7297 128.653C47.9237 128.664 48.1183 128.667 48.313 128.672C48.4653 128.676 48.6172 128.686 48.7696 128.686C48.8319 128.686 48.8942 128.686 48.9564 128.685L48.9908 128.685C49.1732 128.683 49.3548 128.67 49.537 128.662C49.6363 128.658 49.7356 128.656 49.8347 128.65C50.0779 128.636 50.319 128.613 50.5602 128.589C50.6481 128.58 50.7362 128.573 50.8238 128.562C50.8981 128.554 50.9737 128.55 51.0477 128.54L51.1112 128.532C51.3539 128.499 51.5947 128.462 51.8338 128.419L51.9022 128.406C52.3939 128.316 52.8761 128.204 53.3442 128.07L53.4181 128.049C53.6561 127.98 53.8902 127.904 54.1204 127.824L54.1539 127.812C54.2286 127.785 54.2978 127.752 54.3714 127.725C54.4844 127.683 54.5938 127.637 54.7046 127.592C54.8831 127.519 55.0611 127.446 55.2332 127.365C55.3735 127.3 55.5072 127.229 55.643 127.159C55.7522 127.102 55.8675 127.052 55.9735 126.992L55.9901 126.983C56.0211 126.965 56.0516 126.947 56.0822 126.93V126.928L56.1097 126.913L56.1776 126.874L56.2376 126.837L56.2711 126.817L56.3377 126.776L56.3629 126.76L56.4535 126.702C56.4766 126.687 56.4994 126.673 56.5423 126.644C56.5655 126.629 56.5882 126.614 56.6292 126.586L56.6987 126.538V126.539L56.7142 126.528C56.7379 126.511 56.7612 126.495 56.797 126.469C56.8214 126.452 56.8451 126.435 56.8764 126.412L56.9525 126.355C57.1087 126.238 57.2565 126.118 57.4044 125.988C57.4227 125.972 57.4405 125.956 57.4769 125.923L57.5235 125.88L57.5495 125.856L57.5899 125.818L57.6199 125.789L57.6548 125.755L57.6912 125.72L57.7188 125.692L57.7825 125.627L57.8453 125.561L57.9017 125.5L57.9058 125.495C57.9557 125.44 57.9996 125.384 58.0466 125.328L58.0464 125.334C58.0722 125.304 58.094 125.273 58.1187 125.242C58.1563 125.196 58.1932 125.149 58.2286 125.102C58.2764 125.038 58.3216 124.974 58.3656 124.91C58.3954 124.866 58.4251 124.822 58.4531 124.778C58.4977 124.708 58.5387 124.637 58.5785 124.567C58.6005 124.527 58.623 124.488 58.6436 124.449C58.6849 124.37 58.7219 124.291 58.7574 124.211C58.7717 124.179 58.7872 124.147 58.8004 124.115C58.8385 124.023 58.8714 123.931 58.902 123.839C58.9088 123.818 58.9171 123.797 58.9237 123.776C58.9585 123.664 58.9878 123.552 59.0116 123.44L59.0131 123.434C59.0632 123.198 59.0891 122.959 59.0905 122.718L59.0935 121.663C59.0935 121.679 59.0914 121.694 59.0912 121.71L59.0911 121.688ZM38.9098 123.5C38.8949 123.474 38.885 123.447 38.8706 123.421C38.8843 123.446 38.9019 123.471 38.916 123.495L38.9098 123.497C38.9233 123.521 38.9453 123.543 38.9595 123.567V123.567C38.9455 123.543 38.9233 123.521 38.9098 123.497V123.5ZM38.3936 121.719C38.3974 121.864 38.4101 122.008 38.4316 122.152C38.4101 122.008 38.3974 121.864 38.3936 121.719V121.719ZM38.4714 122.345C38.4949 122.456 38.522 122.567 38.556 122.677C38.5217 122.567 38.4949 122.456 38.4714 122.345V122.345ZM38.6321 122.897C38.6707 122.999 38.7146 123.101 38.7625 123.202C38.7146 123.1 38.6707 122.999 38.6321 122.897V122.897ZM39.0374 124.768V124.756V124.768ZM39.4319 124.232L39.4343 124.235C39.4517 124.255 39.4617 124.277 39.4793 124.298L39.478 124.297C39.4597 124.275 39.4495 124.253 39.4319 124.232V124.232ZM39.4884 124.308C39.495 124.315 39.5045 124.322 39.5111 124.33L39.521 124.342L39.5127 124.334L39.4884 124.308ZM40.2632 125.064V125.061C40.2492 125.049 40.2398 125.036 40.2258 125.025L40.2266 125.025C40.2404 125.037 40.2494 125.049 40.2632 125.061L40.2698 125.059C40.3677 125.14 40.4694 125.22 40.5748 125.298C40.4705 125.221 40.3613 125.145 40.2646 125.065L40.2632 125.064ZM40.7715 125.446C40.9258 125.554 41.0938 125.657 41.2629 125.76L41.2612 125.761C41.092 125.658 40.9257 125.554 40.7715 125.446V125.446ZM42.6591 126.468C42.7676 126.514 42.8735 126.563 42.9843 126.606C42.8757 126.562 42.7699 126.515 42.6626 126.469L42.6591 126.468ZM44.6797 127.139C44.7387 127.154 44.7954 127.172 44.8547 127.186L44.8544 127.186C44.7952 127.172 44.738 127.155 44.6797 127.139V127.139ZM56.5453 125.589C56.5684 125.574 56.5912 125.559 56.6321 125.531L56.6668 125.507L56.6322 125.531C56.5912 125.559 56.5684 125.574 56.5453 125.589V125.589ZM57.6941 124.665L57.7218 124.637L57.7533 124.605L57.7218 124.637L57.6941 124.665ZM58.547 123.569L58.546 123.571C58.5351 123.59 58.5223 123.608 58.5111 123.627C58.5925 123.482 58.6653 123.334 58.7292 123.181C58.6752 123.313 58.6143 123.443 58.547 123.569H58.547ZM57.9087 124.44C58.0378 124.289 58.158 124.131 58.2689 123.966C58.1865 124.08 58.1155 124.196 58.0203 124.308C57.9834 124.352 57.9482 124.397 57.9087 124.44V124.44ZM58.1217 124.187C58.1001 124.214 58.0764 124.24 58.0544 124.267C58.1304 124.177 58.2021 124.085 58.2695 123.993C58.2566 124.011 58.2446 124.029 58.2312 124.047C58.196 124.094 58.1592 124.141 58.1217 124.187L58.1217 124.187ZM58.3686 123.854L58.3678 123.856C58.3933 123.818 58.4144 123.78 58.4385 123.743C58.446 123.731 58.4575 123.72 58.4651 123.708L58.4558 123.723C58.428 123.767 58.3983 123.811 58.3687 123.854L58.3686 123.854ZM58.6465 123.394L58.6312 123.421C58.6915 123.308 58.7463 123.194 58.7947 123.079L58.7602 123.156C58.7249 123.236 58.6875 123.315 58.6465 123.394L58.6465 123.394ZM58.9048 122.784L58.8932 122.816C58.8965 122.806 58.8967 122.796 58.8999 122.787L58.8817 122.841C58.9334 122.678 58.9736 122.513 59.0022 122.345C58.9773 122.494 58.9432 122.642 58.8999 122.787C58.9141 122.744 58.9303 122.702 58.9429 122.659C58.9368 122.68 58.9331 122.7 58.9267 122.721C58.92 122.742 58.9117 122.763 58.9048 122.784L58.9048 122.784ZM59.0144 122.385C59.0083 122.414 58.9985 122.443 58.9914 122.473C59.0036 122.421 59.0124 122.37 59.0222 122.319C59.0184 122.339 59.02 122.359 59.0158 122.379L59.0144 122.385Z" fill="#003067"/>
<path d="M55.7963 116.744C56.2569 117.212 56.6174 117.769 56.8557 118.381L55.6429 118.686C55.4311 118.065 55.076 117.502 54.6063 117.044L55.7963 116.744Z" fill="#F2BE53"/>
<path d="M39.2953 120.896L53.4114 117.344C53.8942 117.789 54.2432 118.36 54.4194 118.993L40.6976 122.448C40.1129 122.05 39.632 121.518 39.2953 120.896V120.896Z" fill="#F2BE53"/>
<path d="M36.9098 121.497L38.1004 121.197C38.4455 121.806 38.9129 122.337 39.4733 122.756L38.2632 123.061C37.7209 122.626 37.2622 122.096 36.9098 121.497V121.497Z" fill="#F2BE53"/>
<path d="M52.2476 122.815C50.6409 123.627 48.8748 124.075 47.0752 124.126C45.2756 124.178 43.4868 123.832 41.8364 123.112L54.4865 119.928C54.368 120.552 54.1034 121.139 53.7142 121.641C53.325 122.142 52.8224 122.545 52.2476 122.815V122.815Z" fill="#F2BE53"/>
<path d="M55.7957 119.599C55.8189 120.955 54.9435 122.314 53.167 123.346C51.2108 124.338 49.0513 124.863 46.858 124.88C44.6648 124.897 42.4975 124.405 40.5264 123.443C40.468 123.411 40.4101 123.378 40.3529 123.345C40.0466 123.169 39.7527 122.973 39.4734 122.757C38.913 122.337 38.4456 121.807 38.1005 121.198C37.1251 119.395 37.8602 117.348 40.3111 115.924C42.2961 114.915 44.4913 114.389 46.718 114.389C48.9447 114.388 51.14 114.914 53.1252 115.923C53.667 116.228 54.1652 116.605 54.6064 117.044C55.076 117.502 55.4311 118.065 55.643 118.686C55.7384 118.981 55.7898 119.289 55.7957 119.599V119.599ZM41.8365 123.113C43.4869 123.832 45.2757 124.178 47.0753 124.127C48.8749 124.076 50.641 123.628 52.2477 122.815C52.8225 122.545 53.3251 122.143 53.7143 121.641C54.1035 121.139 54.3682 120.552 54.4866 119.928C54.5197 119.615 54.497 119.299 54.4195 118.994C54.2433 118.361 53.8942 117.79 53.4114 117.345C53.05 116.999 52.6471 116.7 52.2118 116.453C50.5106 115.589 48.6292 115.138 46.7209 115.139C44.8127 115.139 42.9314 115.59 41.2304 116.455C39.1644 117.655 38.5208 119.371 39.2953 120.897C39.632 121.519 40.1129 122.051 40.6976 122.448C40.8737 122.575 41.0632 122.697 41.2662 122.814C41.4496 122.92 41.6397 123.02 41.8365 123.113" fill="#EFB252"/>
<path d="M41.2304 116.455C42.9314 115.59 44.8126 115.139 46.7209 115.139C48.6292 115.138 50.5106 115.589 52.2118 116.453C52.6471 116.7 53.05 116.999 53.4114 117.345L39.2953 120.897C38.5208 119.372 39.1644 117.655 41.2304 116.455Z" fill="#F7CB64"/>
<path d="M41.8365 123.113C41.6402 123.02 41.4501 122.92 41.2662 122.814C41.0631 122.697 40.8735 122.575 40.6976 122.448L54.4194 118.994C54.497 119.299 54.5197 119.615 54.4866 119.928L41.8365 123.113Z" fill="#F7CB64"/>
<path d="M40.5263 123.442L39.2555 123.762C39.3175 123.8 39.3775 123.837 39.4415 123.874C35.3862 121.533 35.3648 117.735 39.3938 115.394C41.6614 114.239 44.1701 113.637 46.7149 113.637C49.2597 113.636 51.7685 114.238 54.0364 115.393C57.2959 117.274 57.9506 120.095 55.992 122.347C56.3775 121.94 56.6728 121.456 56.8587 120.927C57.0446 120.398 57.1168 119.836 57.0708 119.277L55.7955 119.598C55.7897 119.288 55.7383 118.981 55.6429 118.686L56.8557 118.38C56.6174 117.769 56.2569 117.212 55.7963 116.744L54.6063 117.043C54.1651 116.605 53.6669 116.228 53.1251 115.922C51.1399 114.914 48.9446 114.388 46.7179 114.388C44.4912 114.388 42.296 114.914 40.311 115.923C37.8601 117.348 37.125 119.395 38.1004 121.197L36.9098 121.497C37.2622 122.096 37.7209 122.626 38.2632 123.061L39.4733 122.756C39.7526 122.972 40.0464 123.169 40.3528 123.345C40.4101 123.378 40.468 123.41 40.5263 123.442Z" fill="#F7CB64"/>
<path d="M54.1128 123.859C51.8423 125.02 49.3291 125.626 46.779 125.629C44.2289 125.632 41.7145 125.03 39.4416 123.874C39.3776 123.837 39.3176 123.8 39.2556 123.762L40.5264 123.442C42.4975 124.404 44.6647 124.896 46.858 124.88C49.0513 124.863 51.2108 124.338 53.1669 123.346C54.9434 122.313 55.8189 120.954 55.7956 119.598L57.0708 119.277C57.1171 119.857 57.0371 120.44 56.8365 120.986C56.6359 121.532 56.3194 122.028 55.9087 122.44L55.8482 122.506L55.7854 122.572L55.7219 122.637L55.6941 122.665L55.6578 122.7L55.6229 122.734L55.5929 122.763L55.5525 122.801L55.5264 122.825L55.4799 122.868L55.4073 122.933C55.2593 123.063 55.1117 123.183 54.9553 123.301C54.9296 123.32 54.9047 123.338 54.8793 123.357C54.848 123.38 54.8242 123.397 54.7999 123.414C54.7641 123.44 54.7407 123.456 54.7172 123.473C54.6787 123.499 54.6554 123.515 54.6322 123.531L54.5453 123.589L54.4565 123.647L54.3659 123.705L54.274 123.762L54.2406 123.782L54.1805 123.819L54.1128 123.859Z" fill="#F2BE53"/>
<path d="M56.3655 122.911C56.3953 122.867 56.4251 122.823 56.4531 122.779C56.4976 122.709 56.5386 122.639 56.5784 122.568C56.6004 122.529 56.623 122.489 56.6436 122.45C56.6849 122.371 56.7219 122.292 56.7574 122.212C56.7717 122.18 56.7872 122.148 56.8005 122.116C56.8385 122.024 56.8715 121.932 56.9019 121.84C56.9088 121.819 56.9171 121.798 56.9237 121.777C56.9585 121.665 56.9878 121.553 57.0116 121.441L57.0131 121.435C57.0631 121.2 57.0891 120.96 57.0905 120.719L57.0935 119.664C57.0935 119.68 57.0914 119.696 57.0911 119.711L57.0913 119.666C57.0904 119.906 57.0653 120.145 57.0161 120.38L57.0146 120.386C56.9909 120.498 56.9613 120.61 56.9267 120.722C56.9201 120.743 56.9119 120.764 56.9049 120.785C56.8746 120.877 56.8414 120.969 56.8036 121.061C56.7902 121.093 56.7747 121.125 56.7603 121.157C56.7249 121.237 56.6877 121.316 56.6465 121.395C56.6261 121.434 56.6035 121.473 56.5816 121.512C56.5418 121.583 56.5005 121.654 56.4559 121.724C56.428 121.768 56.3984 121.812 56.3687 121.855C56.3248 121.92 56.2793 121.984 56.2314 122.048C56.196 122.095 56.1593 122.142 56.1218 122.188C56.0534 122.273 55.9845 122.358 55.9088 122.441L55.8483 122.507L55.7855 122.573L55.7219 122.638L55.6942 122.666L55.6578 122.701L55.623 122.735L55.593 122.764L55.5526 122.802L55.5265 122.826L55.48 122.869L55.4074 122.934C55.2594 123.064 55.1118 123.184 54.9554 123.302C54.9297 123.321 54.9048 123.339 54.8794 123.358C54.8482 123.381 54.8244 123.398 54.8 123.415C54.7643 123.441 54.7409 123.457 54.7173 123.474C54.6789 123.5 54.6556 123.516 54.6323 123.532L54.5454 123.59L54.4566 123.648L54.366 123.706L54.2742 123.763L54.2408 123.783L54.1806 123.82L54.1129 123.859C53.9629 123.947 53.8029 124.024 53.6463 124.105C53.5109 124.175 53.3765 124.246 53.2364 124.311C53.0642 124.391 52.8863 124.465 52.7077 124.538C52.5971 124.583 52.4873 124.629 52.3744 124.671C51.2296 125.091 50.0386 125.372 48.8269 125.508C48.7393 125.519 48.6511 125.526 48.5632 125.535C48.3222 125.559 48.0806 125.582 47.8377 125.596C47.7388 125.602 47.6395 125.604 47.5404 125.608C47.1339 125.626 46.7269 125.628 46.3199 125.618C46.124 125.613 45.9279 125.611 45.7326 125.599C45.5728 125.59 45.4144 125.573 45.2554 125.56C45.0571 125.543 44.8588 125.526 44.6621 125.503C44.189 125.446 43.7236 125.367 43.2652 125.272C43.1284 125.243 42.9896 125.219 42.8546 125.187C42.701 125.151 42.5523 125.106 42.4012 125.066C42.2431 125.023 42.0827 124.984 41.9277 124.937C41.7897 124.894 41.6575 124.844 41.5222 124.798C41.3607 124.743 41.1969 124.691 41.0396 124.631C40.9108 124.581 40.7885 124.524 40.6627 124.471C40.5066 124.404 40.3479 124.341 40.1968 124.269C39.9372 124.146 39.6844 124.015 39.4417 123.875C39.0276 123.638 38.634 123.368 38.2647 123.066L38.2634 123.065V123.062C37.9942 122.84 37.7432 122.597 37.5129 122.335C37.5018 122.323 37.489 122.31 37.4781 122.298C37.2633 122.05 37.073 121.782 36.91 121.498V121.502C36.5715 120.927 36.3909 120.273 36.3862 119.605L36.3832 120.66C36.3905 121.414 36.6179 122.148 37.0374 122.774V122.758V122.769V122.774C37.0581 122.806 37.0793 122.838 37.101 122.87V122.857V122.87C37.134 122.919 37.168 122.967 37.2032 123.015C37.2733 123.111 37.3479 123.206 37.427 123.301V123.291V123.301C37.4418 123.318 37.46 123.335 37.4752 123.353C37.4859 123.365 37.4984 123.377 37.5092 123.39C37.7334 123.646 37.9775 123.884 38.2393 124.102L38.2617 124.121C38.5752 124.375 38.9064 124.606 39.2527 124.813V124.818C39.3147 124.856 39.3746 124.893 39.4387 124.93C39.5382 124.988 39.6392 125.044 39.7417 125.098V125.088V125.098C39.7936 125.126 39.8459 125.153 39.8986 125.18L39.9627 125.213L39.9903 125.227C40.0466 125.255 40.1034 125.283 40.1605 125.31L40.1936 125.324C40.3457 125.397 40.5053 125.46 40.6626 125.527C40.7874 125.58 40.9086 125.636 41.0364 125.686C41.1944 125.746 41.3588 125.799 41.5211 125.854C41.6558 125.9 41.7873 125.95 41.9247 125.992C42.0788 126.039 42.238 126.077 42.3951 126.12C42.5474 126.161 42.6972 126.206 42.852 126.242C42.9847 126.274 43.1211 126.297 43.2555 126.325C43.4307 126.362 43.604 126.402 43.7817 126.433L43.8423 126.444V126.442V126.444C43.896 126.453 43.9498 126.462 44.0038 126.47V126.465V126.47C44.0563 126.479 44.1088 126.487 44.1615 126.495L44.183 126.498C44.2692 126.511 44.3557 126.523 44.4423 126.535L44.5054 126.543C44.5562 126.549 44.6082 126.551 44.6592 126.558C44.8557 126.581 45.0536 126.598 45.2518 126.615C45.4112 126.628 45.5696 126.645 45.7298 126.654C45.9238 126.665 46.1184 126.668 46.313 126.673C46.4654 126.677 46.6173 126.687 46.7697 126.687C46.832 126.687 46.8942 126.687 46.9565 126.686L46.9908 126.686C47.1733 126.684 47.3549 126.671 47.5371 126.664C47.6364 126.659 47.7357 126.657 47.8348 126.651C48.0779 126.637 48.319 126.614 48.5602 126.59C48.6481 126.581 48.7363 126.574 48.8239 126.564C48.8982 126.555 48.9737 126.551 49.0478 126.541L49.1113 126.533C49.354 126.5 49.5948 126.463 49.8338 126.42L49.9022 126.408C50.3939 126.317 50.8761 126.205 51.3443 126.071L51.4181 126.05C51.6561 125.981 51.8902 125.906 52.1205 125.825L52.154 125.813V125.801V125.813C52.2287 125.787 52.2979 125.754 52.3716 125.726C52.4845 125.684 52.594 125.638 52.7047 125.593C52.8832 125.52 53.0612 125.447 53.2332 125.367C53.3735 125.302 53.5073 125.23 53.6431 125.16C53.7522 125.103 53.8677 125.053 53.9736 124.993V124.986V124.993L53.9902 124.984V124.977V124.984C54.0211 124.966 54.0518 124.949 54.0823 124.931V124.929L54.1099 124.914L54.1776 124.875L54.2378 124.838L54.2712 124.818L54.3379 124.777L54.363 124.761L54.4536 124.703L54.5424 124.645L54.6293 124.587L54.6988 124.54V124.54L54.7143 124.529C54.7379 124.512 54.7613 124.496 54.7971 124.47C54.8214 124.453 54.8452 124.436 54.8765 124.413C54.9018 124.394 54.9268 124.376 54.9525 124.357C55.1089 124.239 55.2565 124.119 55.4045 123.989L55.4771 123.924L55.5236 123.881L55.5496 123.857L55.59 123.819L55.62 123.79L55.6549 123.756L55.6913 123.721L55.7189 123.693L55.7825 123.628L55.8453 123.562L55.9017 123.501L55.9058 123.496C55.9558 123.441 55.9997 123.385 56.0466 123.329V123.336C56.0723 123.305 56.0941 123.274 56.1187 123.243C56.1564 123.197 56.1932 123.15 56.2286 123.103C56.2764 123.039 56.3216 122.975 56.3655 122.911Z" fill="#F7CB64"/>
<path d="M55.7963 115.098C56.2569 115.566 56.6174 116.122 56.8557 116.734L55.6429 117.039C55.4311 116.418 55.076 115.856 54.6063 115.397L55.7963 115.098Z" fill="#F2BE53"/>
<path d="M39.2953 119.25L53.4114 115.697C53.8942 116.143 54.2432 116.714 54.4194 117.347L40.6976 120.801C40.1129 120.404 39.632 119.872 39.2953 119.25V119.25Z" fill="#F2BE53"/>
<path d="M36.9098 119.85L38.1004 119.551C38.4455 120.16 38.9129 120.69 39.4733 121.11L38.2632 121.414C37.7209 120.979 37.2622 120.45 36.9098 119.85Z" fill="#F2BE53"/>
<path d="M52.2476 121.168C50.6409 121.981 48.8748 122.429 47.0752 122.48C45.2756 122.531 43.4868 122.185 41.8364 121.466L54.4865 118.281C54.368 118.905 54.1034 119.492 53.7142 119.994C53.325 120.496 52.8224 120.898 52.2476 121.168V121.168Z" fill="#F2BE53"/>
<path d="M55.7957 117.952C55.8189 119.308 54.9435 120.667 53.167 121.7C51.2108 122.692 49.0513 123.217 46.858 123.234C44.6648 123.25 42.4975 122.758 40.5264 121.796C40.468 121.764 40.4101 121.732 40.3529 121.699C40.0466 121.523 39.7527 121.326 39.4734 121.11C38.913 120.691 38.4456 120.16 38.1005 119.551C37.1251 117.749 37.8602 115.702 40.3111 114.277C42.2961 113.268 44.4913 112.742 46.718 112.742C48.9447 112.742 51.14 113.268 53.1252 114.276C53.667 114.582 54.1652 114.959 54.6064 115.397C55.076 115.856 55.4311 116.418 55.643 117.04C55.7384 117.335 55.7898 117.642 55.7957 117.952ZM41.8365 121.466C43.4869 122.186 45.2757 122.532 47.0753 122.481C48.8749 122.429 50.641 121.981 52.2477 121.169C52.8225 120.899 53.3251 120.496 53.7143 119.995C54.1035 119.493 54.3682 118.906 54.4866 118.282C54.5197 117.969 54.497 117.653 54.4195 117.348C54.2433 116.715 53.8942 116.144 53.4114 115.698C53.05 115.352 52.6471 115.053 52.2118 114.807C50.5106 113.942 48.6292 113.492 46.7209 113.492C44.8127 113.492 42.9314 113.943 41.2304 114.808C39.1644 116.009 38.5208 117.725 39.2953 119.251C39.632 119.872 40.1129 120.404 40.6976 120.802C40.8737 120.928 41.0632 121.05 41.2662 121.168C41.4496 121.274 41.6397 121.373 41.8365 121.466" fill="#EFB252"/>
<path d="M41.2304 114.808C42.9314 113.943 44.8126 113.492 46.7209 113.492C48.6292 113.492 50.5106 113.942 52.2118 114.807C52.6471 115.053 53.05 115.353 53.4114 115.698L39.2953 119.251C38.5208 117.725 39.1644 116.009 41.2304 114.808Z" fill="#F7CB64"/>
<path d="M41.8365 121.466C41.6402 121.373 41.4501 121.274 41.2662 121.168C41.0631 121.051 40.8735 120.929 40.6976 120.802L54.4194 117.348C54.497 117.653 54.5197 117.969 54.4866 118.282L41.8365 121.466Z" fill="#F7CB64"/>
<path d="M40.5263 121.796L39.2555 122.116C39.3175 122.154 39.3775 122.191 39.4415 122.228C35.3862 119.886 35.3648 116.089 39.3938 113.747C41.6614 112.593 44.1701 111.99 46.7149 111.99C49.2597 111.99 51.7685 112.592 54.0364 113.746C57.2959 115.628 57.9506 118.449 55.992 120.7C56.3775 120.293 56.6728 119.809 56.8587 119.28C57.0446 118.752 57.1168 118.19 57.0708 117.631L55.7955 117.952C55.7897 117.642 55.7383 117.334 55.6429 117.039L56.8557 116.734C56.6174 116.122 56.2569 115.565 55.7963 115.097L54.6063 115.397C54.1651 114.958 53.6669 114.581 53.1251 114.276C51.1399 113.267 48.9446 112.741 46.7179 112.742C44.4912 112.742 42.296 113.268 40.311 114.277C37.8601 115.701 37.125 117.748 38.1004 119.551L36.9098 119.851C37.2622 120.45 37.7209 120.98 38.2632 121.414L39.4733 121.11C39.7526 121.326 40.0464 121.522 40.3528 121.698C40.4101 121.731 40.468 121.764 40.5263 121.796Z" fill="#F7CB64"/>
<path d="M54.1128 122.212C51.8423 123.373 49.3291 123.98 46.779 123.983C44.2289 123.985 41.7145 123.384 39.4416 122.228C39.3776 122.191 39.3176 122.154 39.2556 122.116L40.5264 121.796C42.4975 122.758 44.6647 123.25 46.858 123.233C49.0513 123.216 51.2108 122.691 53.1669 121.699C54.9434 120.667 55.8189 119.308 55.7956 117.952L57.0708 117.631C57.1171 118.211 57.0371 118.794 56.8365 119.34C56.6359 119.886 56.3194 120.382 55.9087 120.794L55.8482 120.86L55.7854 120.926L55.7219 120.99L55.6941 121.018L55.6578 121.054L55.6229 121.088L55.5929 121.117L55.5525 121.155L55.5264 121.179L55.4799 121.222L55.4073 121.287C55.2593 121.417 55.1117 121.537 54.9553 121.654C54.9296 121.673 54.9047 121.692 54.8793 121.71C54.848 121.733 54.8242 121.751 54.7999 121.768C54.7641 121.793 54.7407 121.81 54.7172 121.826C54.6787 121.853 54.6554 121.869 54.6322 121.885L54.5453 121.943L54.4565 122.001L54.3659 122.059L54.274 122.116L54.2406 122.136L54.1805 122.172L54.1128 122.212Z" fill="#F2BE53"/>
<path d="M56.3655 121.264C56.3953 121.221 56.4251 121.177 56.4531 121.133C56.4976 121.063 56.5386 120.992 56.5784 120.921C56.6004 120.882 56.623 120.843 56.6436 120.804C56.6849 120.725 56.7219 120.645 56.7574 120.566C56.7717 120.533 56.7872 120.502 56.8005 120.469C56.8385 120.378 56.8715 120.286 56.9019 120.194C56.9088 120.173 56.9171 120.152 56.9237 120.131C56.9585 120.019 56.9878 119.907 57.0116 119.794L57.0131 119.788C57.0631 119.553 57.0891 119.313 57.0905 119.073L57.0935 118.018C57.0935 118.033 57.0914 118.049 57.0911 118.065L57.0913 118.019C57.0904 118.259 57.0653 118.498 57.0161 118.733L57.0146 118.739C56.9909 118.852 56.9613 118.964 56.9267 119.076C56.9201 119.097 56.9119 119.118 56.9049 119.139C56.8746 119.231 56.8414 119.323 56.8036 119.414C56.7902 119.446 56.7747 119.479 56.7603 119.511C56.7249 119.59 56.6877 119.67 56.6465 119.749C56.6261 119.788 56.6035 119.827 56.5816 119.866C56.5418 119.937 56.5005 120.008 56.4559 120.078C56.428 120.122 56.3984 120.165 56.3687 120.209C56.3248 120.273 56.2793 120.338 56.2314 120.401C56.196 120.448 56.1593 120.495 56.1218 120.542C56.0534 120.627 55.9845 120.711 55.9088 120.795L55.8483 120.86L55.7855 120.926L55.7219 120.991L55.6942 121.019L55.6578 121.055L55.623 121.089L55.593 121.117L55.5526 121.156L55.5265 121.18L55.48 121.223L55.4074 121.288C55.2594 121.418 55.1118 121.538 54.9554 121.655C54.9297 121.674 54.9048 121.693 54.8794 121.711C54.8482 121.734 54.8244 121.752 54.8 121.769C54.7643 121.794 54.7409 121.811 54.7173 121.827C54.6789 121.854 54.6556 121.87 54.6323 121.886L54.5454 121.944L54.4566 122.002L54.366 122.06L54.2742 122.117L54.2408 122.137L54.1806 122.173L54.1129 122.213C53.9629 122.3 53.8029 122.377 53.6463 122.458C53.5109 122.528 53.3765 122.6 53.2364 122.665C53.0642 122.745 52.8863 122.818 52.7077 122.891C52.5971 122.936 52.4873 122.982 52.3744 123.024C51.2296 123.444 50.0386 123.726 48.8269 123.862C48.7393 123.872 48.6511 123.879 48.5632 123.888C48.3222 123.913 48.0806 123.935 47.8377 123.95C47.7388 123.956 47.6395 123.958 47.5404 123.962C47.1339 123.98 46.7269 123.981 46.3199 123.971C46.124 123.966 45.9279 123.964 45.7326 123.953C45.5728 123.943 45.4144 123.927 45.2554 123.913C45.0571 123.896 44.8588 123.88 44.6621 123.856C44.189 123.799 43.7236 123.72 43.2652 123.625C43.1284 123.597 42.9896 123.573 42.8546 123.541C42.701 123.505 42.5523 123.46 42.4012 123.419C42.2431 123.377 42.0827 123.338 41.9277 123.29C41.7897 123.248 41.6575 123.198 41.5222 123.152C41.3607 123.097 41.1969 123.045 41.0396 122.984C40.9108 122.935 40.7885 122.877 40.6627 122.824C40.5066 122.758 40.3479 122.695 40.1968 122.623C39.9372 122.5 39.6844 122.369 39.4417 122.229C39.0276 121.992 38.634 121.721 38.2647 121.419L38.2634 121.418V121.415C37.9942 121.194 37.7432 120.951 37.5129 120.689C37.5018 120.676 37.489 120.664 37.4781 120.651C37.2633 120.404 37.073 120.136 36.91 119.852V119.855C36.5715 119.28 36.3909 118.626 36.3862 117.959L36.3832 119.014C36.3905 119.767 36.6179 120.502 37.0374 121.128V121.111V121.123V121.128C37.0581 121.16 37.0793 121.192 37.101 121.224V121.211V121.224C37.134 121.272 37.168 121.321 37.2032 121.369C37.2733 121.465 37.3479 121.56 37.427 121.654V121.645V121.654C37.4418 121.672 37.46 121.689 37.4752 121.706C37.4859 121.719 37.4984 121.731 37.5092 121.743C37.7334 122 37.9775 122.238 38.2393 122.456L38.2617 122.474C38.5752 122.728 38.9064 122.96 39.2527 123.167V123.172C39.3147 123.21 39.3746 123.247 39.4387 123.284C39.5382 123.341 39.6392 123.397 39.7417 123.452V123.442V123.452C39.7936 123.48 39.8459 123.507 39.8986 123.534L39.9627 123.566L39.9903 123.58C40.0466 123.608 40.1034 123.636 40.1605 123.664L40.1936 123.678C40.3457 123.75 40.5053 123.814 40.6626 123.88C40.7874 123.933 40.9086 123.99 41.0364 124.039C41.1944 124.1 41.3588 124.152 41.5211 124.207C41.6558 124.253 41.7873 124.303 41.9247 124.345C42.0788 124.392 42.238 124.431 42.3951 124.473C42.5474 124.514 42.6972 124.559 42.852 124.596C42.9847 124.627 43.1211 124.651 43.2555 124.679C43.4307 124.715 43.604 124.756 43.7817 124.787L43.8423 124.797V124.796V124.797C43.896 124.806 43.9498 124.815 44.0038 124.824V124.819V124.824C44.0563 124.832 44.1088 124.84 44.1615 124.848L44.183 124.852C44.2692 124.864 44.3557 124.877 44.4423 124.888L44.5054 124.896C44.5562 124.903 44.6082 124.905 44.6592 124.911C44.8557 124.935 45.0536 124.951 45.2518 124.968C45.4112 124.982 45.5696 124.998 45.7298 125.008C45.9238 125.019 46.1184 125.021 46.313 125.026C46.4654 125.03 46.6173 125.041 46.7697 125.041C46.832 125.041 46.8942 125.041 46.9565 125.04L46.9908 125.039C47.1733 125.037 47.3549 125.025 47.5371 125.017C47.6364 125.013 47.7357 125.011 47.8348 125.005C48.0779 124.99 48.319 124.968 48.5602 124.943C48.6481 124.934 48.7363 124.927 48.8239 124.917C48.8982 124.908 48.9737 124.904 49.0478 124.895L49.1113 124.886C49.354 124.854 49.5948 124.816 49.8338 124.773L49.9022 124.761C50.3939 124.671 50.8761 124.559 51.3443 124.425L51.4181 124.404C51.6561 124.334 51.8902 124.259 52.1205 124.178L52.154 124.166V124.154V124.166C52.2287 124.14 52.2979 124.107 52.3716 124.079C52.4845 124.037 52.594 123.991 52.7047 123.946C52.8832 123.873 53.0612 123.8 53.2332 123.72C53.3735 123.655 53.5073 123.583 53.6431 123.513C53.7522 123.457 53.8677 123.406 53.9736 123.347V123.34V123.347L53.9902 123.337V123.331V123.337C54.0211 123.32 54.0518 123.302 54.0823 123.284V123.283L54.1099 123.268L54.1776 123.228L54.2378 123.192L54.2712 123.172L54.3379 123.13L54.363 123.115L54.4536 123.057L54.5424 122.999L54.6293 122.941L54.6988 122.893V122.893L54.7143 122.882C54.7379 122.866 54.7613 122.85 54.7971 122.824C54.8214 122.807 54.8452 122.789 54.8765 122.767C54.9018 122.748 54.9268 122.73 54.9525 122.71C55.1089 122.593 55.2565 122.473 55.4045 122.343L55.4771 122.278L55.5236 122.235L55.5496 122.211L55.59 122.173L55.62 122.144L55.6549 122.11L55.6913 122.074L55.7189 122.047L55.7825 121.982L55.8453 121.916L55.9017 121.855L55.9058 121.85C55.9558 121.795 55.9997 121.738 56.0466 121.683V121.689C56.0723 121.659 56.0941 121.628 56.1187 121.597C56.1564 121.55 56.1932 121.503 56.2286 121.456C56.2764 121.393 56.3216 121.329 56.3655 121.264Z" fill="#F7CB64"/>
<path d="M55.7963 113.451C56.2569 113.919 56.6174 114.476 56.8557 115.088L55.6429 115.393C55.4311 114.772 55.076 114.209 54.6063 113.751L55.7963 113.451Z" fill="#F2BE53"/>
<path d="M39.2953 117.603L53.4114 114.051C53.8942 114.496 54.2432 115.067 54.4194 115.7L40.6976 119.155C40.1129 118.757 39.632 118.225 39.2953 117.603V117.603Z" fill="#F2BE53"/>
<path d="M36.9098 118.204L38.1004 117.904C38.4455 118.513 38.9129 119.044 39.4733 119.463L38.2632 119.768C37.7209 119.333 37.2622 118.803 36.9098 118.204Z" fill="#F2BE53"/>
<path d="M52.2476 119.522C50.6409 120.334 48.8748 120.782 47.0752 120.833C45.2756 120.885 43.4868 120.539 41.8364 119.819L54.4865 116.635C54.368 117.259 54.1034 117.846 53.7142 118.348C53.325 118.849 52.8224 119.252 52.2476 119.522V119.522Z" fill="#F2BE53"/>
<path d="M55.7957 116.306C55.8189 117.662 54.9435 119.021 53.167 120.053C51.2108 121.045 49.0513 121.57 46.858 121.587C44.6648 121.604 42.4975 121.112 40.5264 120.15C40.468 120.118 40.4101 120.085 40.3529 120.052C40.0466 119.876 39.7527 119.68 39.4734 119.464C38.913 119.044 38.4456 118.514 38.1005 117.905C37.1251 116.102 37.8602 114.055 40.3111 112.631C42.2961 111.622 44.4913 111.096 46.718 111.096C48.9447 111.095 51.14 111.621 53.1252 112.63C53.667 112.935 54.1652 113.312 54.6064 113.751C55.076 114.209 55.4311 114.772 55.643 115.393C55.7384 115.688 55.7898 115.996 55.7957 116.306V116.306ZM41.8365 119.82C43.4869 120.539 45.2757 120.886 47.0753 120.834C48.8749 120.783 50.641 120.335 52.2477 119.522C52.8225 119.252 53.3251 118.85 53.7143 118.348C54.1035 117.846 54.3682 117.259 54.4866 116.635C54.5197 116.322 54.497 116.006 54.4195 115.701C54.2433 115.068 53.8942 114.497 53.4114 114.052C53.05 113.706 52.6471 113.407 52.2118 113.16C50.5106 112.296 48.6292 111.845 46.7209 111.846C44.8127 111.846 42.9314 112.297 41.2304 113.162C39.1644 114.362 38.5208 116.079 39.2953 117.604C39.632 118.226 40.1129 118.758 40.6976 119.155C40.8737 119.282 41.0632 119.404 41.2662 119.521C41.4496 119.627 41.6397 119.727 41.8365 119.82" fill="#EFB252"/>
<path d="M41.2304 113.162C42.9314 112.297 44.8126 111.846 46.7209 111.846C48.6292 111.845 50.5106 112.296 52.2118 113.161C52.6471 113.407 53.05 113.706 53.4114 114.052L39.2953 117.604C38.5208 116.079 39.1644 114.362 41.2304 113.162Z" fill="#F7CB64"/>
<path d="M41.8365 119.82C41.6402 119.727 41.4501 119.627 41.2662 119.521C41.0631 119.404 40.8735 119.282 40.6976 119.155L54.4194 115.701C54.497 116.006 54.5197 116.322 54.4866 116.635L41.8365 119.82Z" fill="#F7CB64"/>
<path d="M40.5263 120.149L39.2555 120.469C39.3175 120.507 39.3775 120.544 39.4415 120.581C35.3862 118.24 35.3648 114.442 39.3938 112.101C41.6615 110.946 44.1701 110.344 46.7149 110.344C49.2597 110.344 51.7685 110.945 54.0364 112.1C57.2959 113.981 57.9506 116.802 55.992 119.054C56.3775 118.647 56.6728 118.163 56.8587 117.634C57.0446 117.105 57.1168 116.543 57.0708 115.984L55.7955 116.305C55.7897 115.995 55.7383 115.688 55.6429 115.393L56.8557 115.087C56.6174 114.476 56.2569 113.919 55.7963 113.451L54.6063 113.75C54.1651 113.312 53.6669 112.935 53.1251 112.629C51.1399 111.621 48.9446 111.095 46.7179 111.095C44.4912 111.095 42.296 111.621 40.311 112.63C37.8601 114.055 37.125 116.102 38.1004 117.904L36.9098 118.204C37.2622 118.803 37.7209 119.333 38.2632 119.768L39.4733 119.463C39.7526 119.679 40.0464 119.876 40.3528 120.052C40.4101 120.085 40.468 120.117 40.5263 120.149Z" fill="#F7CB64"/>
<path d="M54.1128 120.566C51.8423 121.727 49.3291 122.333 46.779 122.336C44.2289 122.339 41.7145 121.737 39.4416 120.581C39.3776 120.544 39.3176 120.507 39.2556 120.469L40.5264 120.149C42.4975 121.111 44.6647 121.603 46.858 121.587C49.0513 121.57 51.2108 121.045 53.1669 120.053C54.9434 119.02 55.8189 117.661 55.7956 116.305L57.0708 115.984C57.1171 116.564 57.0371 117.147 56.8365 117.693C56.6359 118.239 56.3194 118.735 55.9087 119.147L55.8482 119.213L55.7854 119.279L55.7219 119.344L55.6941 119.372L55.6578 119.407L55.6229 119.441L55.5929 119.47L55.5525 119.508L55.5264 119.532L55.4799 119.575L55.4073 119.64C55.2593 119.77 55.1117 119.89 54.9553 120.008C54.9296 120.027 54.9047 120.045 54.8793 120.064C54.848 120.087 54.8242 120.104 54.7999 120.121C54.7641 120.147 54.7407 120.163 54.7172 120.18C54.6787 120.206 54.6554 120.222 54.6322 120.238L54.5453 120.296L54.4565 120.354L54.3659 120.412L54.274 120.469L54.2406 120.489L54.1805 120.526L54.1128 120.566Z" fill="#F2BE53"/>
<path d="M56.3655 119.618C56.3953 119.574 56.4251 119.53 56.4531 119.486C56.4976 119.416 56.5386 119.346 56.5784 119.275C56.6004 119.236 56.623 119.197 56.6436 119.157C56.6849 119.078 56.7219 118.999 56.7574 118.919C56.7717 118.887 56.7872 118.855 56.8005 118.823C56.8385 118.731 56.8715 118.64 56.9019 118.547C56.9088 118.526 56.9171 118.505 56.9237 118.484C56.9585 118.372 56.9878 118.26 57.0116 118.148L57.0131 118.142C57.0631 117.907 57.0891 117.667 57.0905 117.426L57.0935 116.371C57.0935 116.387 57.0914 116.403 57.0911 116.418L57.0913 116.373C57.0904 116.613 57.0653 116.852 57.0161 117.087L57.0146 117.093C56.9909 117.205 56.9613 117.317 56.9267 117.429C56.9201 117.45 56.9119 117.471 56.9049 117.492C56.8746 117.584 56.8414 117.676 56.8036 117.768C56.7902 117.8 56.7747 117.832 56.7603 117.864C56.7249 117.944 56.6877 118.023 56.6465 118.102C56.6261 118.141 56.6035 118.18 56.5816 118.219C56.5418 118.29 56.5005 118.361 56.4559 118.431C56.428 118.475 56.3984 118.519 56.3687 118.562C56.3248 118.627 56.2793 118.691 56.2314 118.755C56.196 118.802 56.1593 118.849 56.1218 118.895C56.0534 118.98 55.9845 119.065 55.9088 119.148L55.8483 119.214L55.7855 119.28L55.7219 119.345L55.6942 119.373L55.6578 119.408L55.623 119.442L55.593 119.471L55.5526 119.509L55.5265 119.533L55.48 119.576L55.4074 119.641C55.2594 119.771 55.1118 119.891 54.9554 120.009C54.9297 120.028 54.9048 120.046 54.8794 120.065C54.8482 120.088 54.8244 120.105 54.8 120.122C54.7643 120.148 54.7409 120.164 54.7173 120.181C54.6789 120.207 54.6556 120.223 54.6323 120.239L54.5454 120.297L54.4566 120.355L54.366 120.413L54.2742 120.47L54.2408 120.49L54.1806 120.527L54.1129 120.567C53.9629 120.654 53.8029 120.731 53.6463 120.812C53.5109 120.882 53.3765 120.953 53.2364 121.018C53.0642 121.098 52.8863 121.172 52.7077 121.245C52.5971 121.29 52.4873 121.336 52.3744 121.378C51.2296 121.798 50.0386 122.079 48.8269 122.216C48.7393 122.226 48.6511 122.233 48.5632 122.242C48.3222 122.266 48.0806 122.289 47.8377 122.303C47.7388 122.309 47.6395 122.311 47.5404 122.315C47.1339 122.333 46.7269 122.335 46.3199 122.325C46.124 122.32 45.9279 122.318 45.7326 122.306C45.5728 122.297 45.4144 122.28 45.2554 122.267C45.0571 122.25 44.8588 122.233 44.6621 122.21C44.189 122.153 43.7236 122.074 43.2652 121.979C43.1284 121.95 42.9896 121.926 42.8546 121.894C42.701 121.858 42.5523 121.813 42.4012 121.773C42.2431 121.73 42.0827 121.691 41.9277 121.644C41.7897 121.601 41.6575 121.551 41.5222 121.505C41.3607 121.45 41.1969 121.398 41.0396 121.338C40.9108 121.288 40.7885 121.231 40.6627 121.178C40.5066 121.112 40.3479 121.048 40.1968 120.976C39.9372 120.853 39.6844 120.722 39.4417 120.582C39.0276 120.346 38.634 120.075 38.2647 119.773L38.2634 119.772V119.769C37.9942 119.547 37.7432 119.304 37.5129 119.042C37.5018 119.03 37.489 119.017 37.4781 119.005C37.2633 118.757 37.073 118.489 36.91 118.205V118.209C36.5715 117.634 36.3909 116.98 36.3862 116.312L36.3832 117.368C36.3905 118.121 36.6179 118.856 37.0374 119.481V119.465V119.476V119.481C37.0581 119.513 37.0793 119.545 37.101 119.577V119.564V119.577C37.134 119.626 37.168 119.674 37.2032 119.722C37.2733 119.818 37.3479 119.913 37.427 120.008V119.998V120.008C37.4418 120.025 37.46 120.042 37.4752 120.06C37.4859 120.072 37.4984 120.084 37.5092 120.097C37.7334 120.353 37.9775 120.591 38.2393 120.809L38.2617 120.828C38.5752 121.082 38.9064 121.313 39.2527 121.52V121.525C39.3147 121.563 39.3746 121.6 39.4387 121.637C39.5382 121.695 39.6392 121.751 39.7417 121.805V121.795V121.805C39.7936 121.833 39.8459 121.86 39.8986 121.887L39.9627 121.92L39.9903 121.934C40.0466 121.962 40.1034 121.99 40.1605 122.017L40.1936 122.031C40.3457 122.104 40.5053 122.167 40.6626 122.234C40.7874 122.287 40.9086 122.343 41.0364 122.393C41.1944 122.453 41.3588 122.506 41.5211 122.561C41.6558 122.607 41.7873 122.657 41.9247 122.699C42.0788 122.746 42.238 122.784 42.3951 122.827C42.5474 122.868 42.6972 122.913 42.852 122.949C42.9847 122.981 43.1211 123.004 43.2555 123.032C43.4307 123.069 43.604 123.109 43.7817 123.14L43.8423 123.151V123.149V123.151C43.896 123.16 43.9498 123.169 44.0038 123.177V123.172V123.177C44.0563 123.186 44.1088 123.194 44.1615 123.202L44.183 123.205C44.2692 123.218 44.3557 123.23 44.4423 123.242L44.5054 123.25C44.5562 123.256 44.6082 123.258 44.6592 123.265C44.8557 123.288 45.0536 123.305 45.2518 123.322C45.4112 123.335 45.5696 123.352 45.7298 123.361C45.9238 123.372 46.1184 123.375 46.313 123.38C46.4654 123.384 46.6173 123.394 46.7697 123.394C46.832 123.394 46.8942 123.394 46.9565 123.393L46.9908 123.393C47.1733 123.391 47.3549 123.378 47.5371 123.37C47.6364 123.366 47.7357 123.364 47.8348 123.358C48.0779 123.344 48.319 123.321 48.5602 123.297C48.6481 123.288 48.7363 123.281 48.8239 123.271C48.8982 123.262 48.9737 123.258 49.0478 123.248L49.1113 123.24C49.354 123.207 49.5948 123.17 49.8338 123.127L49.9022 123.115C50.3939 123.024 50.8761 122.912 51.3443 122.778L51.4181 122.757C51.6561 122.688 51.8902 122.613 52.1205 122.532L52.154 122.52V122.508V122.52C52.2287 122.494 52.2979 122.461 52.3716 122.433C52.4845 122.391 52.594 122.345 52.7047 122.3C52.8832 122.227 53.0612 122.154 53.2332 122.074C53.3735 122.008 53.5073 121.937 53.6431 121.867C53.7522 121.81 53.8677 121.76 53.9736 121.7V121.693V121.7L53.9902 121.691V121.684V121.691C54.0211 121.673 54.0518 121.656 54.0823 121.638V121.636L54.1099 121.622L54.1776 121.582L54.2378 121.545L54.2712 121.525L54.3379 121.484L54.363 121.468L54.4536 121.411L54.5424 121.353L54.6293 121.294L54.6988 121.247V121.247L54.7143 121.236C54.7379 121.219 54.7613 121.203 54.7971 121.177C54.8214 121.16 54.8452 121.143 54.8765 121.12C54.9018 121.101 54.9268 121.083 54.9525 121.064C55.1089 120.946 55.2565 120.826 55.4045 120.696L55.4771 120.631L55.5236 120.588L55.5496 120.564L55.59 120.526L55.62 120.497L55.6549 120.464L55.6913 120.428L55.7189 120.4L55.7825 120.335L55.8453 120.269L55.9017 120.208L55.9058 120.204C55.9558 120.148 55.9997 120.092 56.0466 120.036V120.043C56.0723 120.012 56.0941 119.981 56.1187 119.95C56.1564 119.904 56.1932 119.857 56.2286 119.81C56.2764 119.746 56.3216 119.682 56.3655 119.618Z" fill="#F7CB64"/>
<path d="M55.7963 111.805C56.2569 112.273 56.6174 112.829 56.8557 113.441L55.6429 113.746C55.4311 113.125 55.076 112.563 54.6063 112.104L55.7963 111.805Z" fill="#F2BE53"/>
<path d="M39.2953 115.957L53.4114 112.404C53.8942 112.85 54.2432 113.421 54.4194 114.054L40.6976 117.508C40.1129 117.111 39.632 116.579 39.2953 115.957V115.957Z" fill="#F2BE53"/>
<path d="M36.9098 116.557L38.1004 116.258C38.4455 116.867 38.9129 117.397 39.4733 117.817L38.2632 118.121C37.7209 117.686 37.2622 117.157 36.9098 116.557V116.557Z" fill="#F2BE53"/>
<path d="M52.2476 117.875C50.6409 118.688 48.8748 119.136 47.0752 119.187C45.2756 119.238 43.4868 118.892 41.8364 118.173L54.4865 114.988C54.3681 115.612 54.1034 116.199 53.7142 116.701C53.325 117.203 52.8224 117.605 52.2476 117.875V117.875Z" fill="#F2BE53"/>
<path d="M55.7957 114.659C55.8189 116.015 54.9435 117.374 53.167 118.407C51.2108 119.399 49.0513 119.924 46.858 119.941C44.6648 119.957 42.4975 119.465 40.5264 118.503C40.468 118.471 40.4101 118.439 40.3529 118.406C40.0466 118.23 39.7527 118.033 39.4734 117.817C38.913 117.398 38.4456 116.867 38.1005 116.258C37.1251 114.456 37.8602 112.409 40.3111 110.984C42.2961 109.975 44.4913 109.449 46.718 109.449C48.9447 109.449 51.14 109.975 53.1252 110.983C53.667 111.289 54.1652 111.666 54.6064 112.104C55.076 112.563 55.4311 113.126 55.643 113.747C55.7384 114.042 55.7898 114.349 55.7957 114.659ZM41.8365 118.173C43.4869 118.893 45.2757 119.239 47.0753 119.188C48.8749 119.136 50.641 118.688 52.2477 117.876C52.8225 117.606 53.3251 117.203 53.7143 116.702C54.1035 116.2 54.3682 115.613 54.4866 114.989C54.5197 114.676 54.497 114.36 54.4195 114.055C54.2433 113.422 53.8942 112.851 53.4114 112.405C53.05 112.06 52.6471 111.76 52.2118 111.514C50.5106 110.649 48.6292 110.199 46.7209 110.199C44.8127 110.199 42.9314 110.65 41.2304 111.515C39.1644 112.716 38.5208 114.432 39.2953 115.958C39.632 116.579 40.1129 117.111 40.6976 117.509C40.8737 117.635 41.0632 117.757 41.2662 117.875C41.4496 117.981 41.6397 118.08 41.8365 118.173" fill="#EFB252"/>
<path d="M41.2304 111.515C42.9314 110.65 44.8126 110.199 46.7209 110.199C48.6292 110.199 50.5106 110.65 52.2118 111.514C52.6471 111.76 53.05 112.06 53.4114 112.405L39.2953 115.958C38.5208 114.432 39.1644 112.716 41.2304 111.515Z" fill="#F7CB64"/>
<path d="M41.8365 118.173C41.6402 118.08 41.4501 117.981 41.2662 117.875C41.0631 117.758 40.8735 117.636 40.6976 117.509L54.4194 114.055C54.497 114.36 54.5197 114.676 54.4866 114.989L41.8365 118.173Z" fill="#F7CB64"/>
<path d="M40.5263 118.503L39.2555 118.823C39.3175 118.861 39.3775 118.898 39.4415 118.935C35.3862 116.593 35.3648 112.796 39.3938 110.454C41.6615 109.3 44.1701 108.697 46.7149 108.697C49.2597 108.697 51.7685 109.299 54.0364 110.453C57.2959 112.335 57.9506 115.156 55.992 117.407C56.3775 117 56.6728 116.516 56.8587 115.988C57.0446 115.459 57.1168 114.897 57.0708 114.338L55.7955 114.659C55.7897 114.349 55.7383 114.041 55.6429 113.746L56.8557 113.441C56.6174 112.829 56.2569 112.272 55.7963 111.804L54.6063 112.104C54.1651 111.665 53.6669 111.288 53.1251 110.983C51.1399 109.974 48.9446 109.448 46.7179 109.449C44.4912 109.449 42.296 109.975 40.311 110.984C37.8601 112.408 37.125 114.455 38.1004 116.258L36.9098 116.558C37.2622 117.157 37.7209 117.687 38.2632 118.121L39.4733 117.817C39.7526 118.033 40.0464 118.229 40.3528 118.405C40.4101 118.438 40.468 118.471 40.5263 118.503Z" fill="#F7CB64"/>
<path d="M54.1128 118.919C51.8423 120.08 49.3291 120.687 46.779 120.69C44.2289 120.692 41.7145 120.091 39.4416 118.935C39.3776 118.898 39.3176 118.861 39.2556 118.823L40.5264 118.503C42.4975 119.465 44.6647 119.957 46.858 119.94C49.0513 119.923 51.2108 119.398 53.1669 118.406C54.9434 117.374 55.8189 116.015 55.7956 114.659L57.0708 114.338C57.1171 114.918 57.0371 115.501 56.8365 116.047C56.6359 116.593 56.3194 117.089 55.9087 117.501L55.8482 117.567L55.7854 117.633L55.7219 117.697L55.6941 117.725L55.6578 117.761L55.6229 117.795L55.5929 117.824L55.5525 117.862L55.5264 117.886L55.4799 117.929L55.4073 117.994C55.2593 118.124 55.1117 118.244 54.9553 118.361C54.9296 118.38 54.9047 118.399 54.8793 118.417C54.848 118.44 54.8242 118.458 54.7999 118.475C54.7641 118.5 54.7407 118.517 54.7172 118.533C54.6787 118.56 54.6554 118.576 54.6322 118.592L54.5453 118.65L54.4565 118.708L54.3659 118.766L54.274 118.823L54.2406 118.843L54.1805 118.879L54.1128 118.919Z" fill="#F2BE53"/>
<path d="M56.3655 117.971C56.3953 117.928 56.4251 117.884 56.4531 117.84C56.4976 117.77 56.5386 117.699 56.5784 117.628C56.6004 117.589 56.623 117.55 56.6436 117.511C56.6849 117.432 56.7219 117.352 56.7574 117.273C56.7717 117.241 56.7872 117.209 56.8005 117.176C56.8385 117.085 56.8715 116.993 56.9019 116.901C56.9088 116.88 56.9171 116.859 56.9237 116.838C56.9585 116.726 56.9878 116.614 57.0116 116.501L57.0131 116.495C57.0631 116.26 57.0891 116.02 57.0905 115.78L57.0935 114.725C57.0935 114.74 57.0914 114.756 57.0911 114.772L57.0913 114.726C57.0904 114.966 57.0653 115.206 57.0161 115.44L57.0146 115.446C56.9909 115.559 56.9613 115.671 56.9267 115.783C56.9201 115.804 56.9119 115.825 56.9049 115.846C56.8746 115.938 56.8414 116.03 56.8036 116.121C56.7902 116.154 56.7747 116.186 56.7603 116.218C56.7249 116.297 56.6877 116.377 56.6465 116.456C56.6261 116.495 56.6035 116.534 56.5816 116.573C56.5418 116.644 56.5005 116.715 56.4559 116.785C56.428 116.829 56.3984 116.872 56.3687 116.916C56.3248 116.981 56.2793 117.045 56.2314 117.109C56.196 117.155 56.1593 117.202 56.1218 117.249C56.0534 117.334 55.9845 117.419 55.9088 117.502L55.8483 117.568L55.7855 117.634L55.7219 117.698L55.6942 117.726L55.6578 117.762L55.623 117.796L55.593 117.825L55.5526 117.863L55.5265 117.887L55.48 117.93L55.4074 117.995C55.2594 118.125 55.1118 118.245 54.9554 118.362C54.9297 118.381 54.9048 118.4 54.8794 118.418C54.8482 118.441 54.8244 118.459 54.8 118.476C54.7643 118.501 54.7409 118.518 54.7173 118.534C54.6789 118.561 54.6556 118.577 54.6323 118.593L54.5454 118.651L54.4566 118.709L54.366 118.767L54.2742 118.824L54.2408 118.844L54.1806 118.88L54.1129 118.92C53.9629 119.007 53.8029 119.084 53.6463 119.165C53.5109 119.235 53.3765 119.307 53.2364 119.372C53.0642 119.452 52.8863 119.525 52.7077 119.598C52.5971 119.643 52.4873 119.689 52.3744 119.731C51.2296 120.151 50.0386 120.433 48.8269 120.569C48.7393 120.579 48.6511 120.587 48.5632 120.595C48.3222 120.62 48.0806 120.642 47.8377 120.657C47.7388 120.663 47.6395 120.665 47.5404 120.669C47.1339 120.687 46.7269 120.688 46.3199 120.678C46.124 120.673 45.9279 120.671 45.7326 120.66C45.5728 120.65 45.4144 120.634 45.2554 120.62C45.0571 120.603 44.8588 120.587 44.6621 120.563C44.189 120.506 43.7236 120.427 43.2652 120.332C43.1284 120.304 42.9896 120.28 42.8546 120.248C42.701 120.212 42.5523 120.167 42.4012 120.126C42.2431 120.084 42.0827 120.045 41.9277 119.997C41.7897 119.955 41.6575 119.905 41.5222 119.859C41.3607 119.804 41.1969 119.752 41.0396 119.691C40.9108 119.642 40.7885 119.584 40.6627 119.531C40.5066 119.465 40.3479 119.402 40.1968 119.33C39.9372 119.207 39.6844 119.076 39.4417 118.936C39.0276 118.699 38.634 118.428 38.2647 118.126L38.2634 118.125V118.122C37.9942 117.901 37.7432 117.658 37.5129 117.396C37.5018 117.383 37.489 117.371 37.4781 117.358C37.2633 117.111 37.073 116.843 36.91 116.559V116.562C36.5715 115.987 36.3909 115.333 36.3862 114.666L36.3832 115.721C36.3905 116.474 36.6179 117.209 37.0374 117.835V117.818V117.83V117.835C37.0581 117.867 37.0793 117.899 37.101 117.931V117.918V117.931C37.134 117.979 37.168 118.028 37.2032 118.076C37.2733 118.172 37.3479 118.267 37.427 118.361V118.352V118.361C37.4418 118.379 37.46 118.396 37.4752 118.413C37.4859 118.426 37.4984 118.438 37.5092 118.45C37.7334 118.707 37.9775 118.945 38.2393 119.163L38.2617 119.181C38.5752 119.435 38.9064 119.667 39.2527 119.874V119.879C39.3147 119.917 39.3746 119.954 39.4387 119.991C39.5382 120.048 39.6392 120.104 39.7417 120.159V120.149V120.159C39.7936 120.186 39.8459 120.214 39.8986 120.241L39.9627 120.273L39.9903 120.287C40.0466 120.315 40.1034 120.343 40.1605 120.371L40.1936 120.385C40.3457 120.457 40.5053 120.521 40.6626 120.587C40.7874 120.64 40.9086 120.697 41.0364 120.746C41.1944 120.807 41.3588 120.859 41.5211 120.914C41.6558 120.96 41.7873 121.01 41.9247 121.052C42.0788 121.099 42.238 121.138 42.3951 121.18C42.5474 121.221 42.6972 121.266 42.852 121.303C42.9847 121.334 43.1211 121.358 43.2555 121.386C43.4307 121.422 43.604 121.463 43.7817 121.494L43.8423 121.504V121.503V121.504C43.896 121.513 43.9498 121.522 44.0038 121.531V121.526V121.531C44.0563 121.539 44.1088 121.547 44.1615 121.555L44.183 121.558C44.2692 121.571 44.3557 121.583 44.4423 121.595L44.5054 121.603C44.5562 121.61 44.6082 121.612 44.6592 121.618C44.8557 121.642 45.0536 121.658 45.2518 121.675C45.4112 121.689 45.5696 121.705 45.7298 121.715C45.9238 121.726 46.1184 121.728 46.313 121.733C46.4654 121.737 46.6173 121.748 46.7697 121.748C46.832 121.748 46.8942 121.747 46.9565 121.747L46.9908 121.746C47.1733 121.744 47.3549 121.732 47.5371 121.724C47.6364 121.72 47.7357 121.718 47.8348 121.712C48.0779 121.697 48.319 121.675 48.5602 121.65C48.6481 121.641 48.7363 121.634 48.8239 121.624C48.8982 121.615 48.9737 121.611 49.0478 121.602L49.1113 121.593C49.354 121.561 49.5948 121.523 49.8338 121.48L49.9022 121.468C50.3939 121.378 50.8761 121.266 51.3443 121.132L51.4181 121.111C51.6561 121.041 51.8902 120.966 52.1205 120.885L52.154 120.873V120.861V120.873C52.2287 120.847 52.2979 120.814 52.3716 120.786C52.4845 120.744 52.594 120.698 52.7047 120.653C52.8832 120.58 53.0612 120.507 53.2332 120.427C53.3735 120.362 53.5073 120.29 53.6431 120.22C53.7522 120.164 53.8677 120.113 53.9736 120.054V120.047V120.054L53.9902 120.044V120.038V120.044C54.0211 120.027 54.0518 120.009 54.0823 119.991V119.99L54.1099 119.975L54.1776 119.935L54.2378 119.899L54.2712 119.879L54.3379 119.837L54.363 119.822L54.4536 119.764L54.5424 119.706L54.6293 119.648L54.6988 119.6V119.6L54.7143 119.589C54.7379 119.573 54.7613 119.557 54.7971 119.531C54.8214 119.514 54.8452 119.497 54.8765 119.474C54.9018 119.455 54.9268 119.437 54.9525 119.417C55.1089 119.3 55.2565 119.18 55.4045 119.05L55.4771 118.985L55.5236 118.942L55.5496 118.918L55.59 118.88L55.62 118.851L55.6549 118.817L55.6913 118.781L55.7189 118.754L55.7825 118.689L55.8453 118.623L55.9017 118.562L55.9058 118.557C55.9558 118.502 55.9997 118.446 56.0466 118.39V118.396C56.0723 118.366 56.0941 118.335 56.1187 118.304C56.1564 118.257 56.1932 118.211 56.2286 118.163C56.2764 118.1 56.3216 118.036 56.3655 117.971Z" fill="#F7CB64"/>
<path d="M104.128 132.731L96.9154 136.923C87.7869 142.228 77.8587 143.353 63.223 140.632C63.0393 140.6 62.8623 140.537 62.6994 140.447C62.5672 140.376 62.4564 140.272 62.3783 140.144C60.8658 137.721 60.0011 134.95 59.8672 132.097L59.8627 133.676C59.9966 136.529 60.8613 139.299 62.3739 141.722C62.4519 141.85 62.5628 141.954 62.6949 142.025C62.8578 142.116 63.0348 142.178 63.2185 142.21C77.8542 144.931 87.7824 143.806 96.9108 138.501L104.124 134.31C104.327 134.218 104.503 134.074 104.633 133.892C104.763 133.711 104.842 133.498 104.862 133.275L104.867 131.697C104.846 131.92 104.767 132.133 104.637 132.314C104.507 132.496 104.332 132.64 104.128 132.731Z" fill="#E8E8E8"/>
<path d="M95.8606 121.175C95.9618 121.221 96.0495 121.293 96.1155 121.383C96.1815 121.473 96.2238 121.578 96.2382 121.688C96.395 124.738 99.5498 127.773 104.17 130.668C104.379 130.75 104.558 130.895 104.682 131.082C104.807 131.269 104.871 131.489 104.867 131.714C104.862 131.939 104.789 132.156 104.657 132.338C104.525 132.52 104.34 132.657 104.128 132.731L96.9154 136.922C87.7869 142.227 77.8588 143.352 63.223 140.631C63.0393 140.599 62.8623 140.537 62.6994 140.446C62.5673 140.375 62.4565 140.271 62.3784 140.143C57.6366 131.677 59.5426 125.92 68.6711 120.615L75.8838 116.424C76.435 116.145 77.0429 115.998 77.6604 115.992C78.2779 115.987 78.8883 116.124 79.4443 116.393C84.4573 119.059 89.7079 120.877 94.9734 120.958C95.2826 120.955 95.5876 121.03 95.8606 121.175V121.175Z" fill="white"/>
<path d="M87.787 123.346L87.781 125.499L83.01 128.271L83.016 126.119L87.787 123.346Z" fill="#0078D4"/>
<path d="M84.4226 128.081L84.4165 130.234C84.3784 129.811 84.2279 129.406 83.9807 129.06C83.7334 128.715 83.3984 128.442 83.0103 128.27L83.0163 126.117C83.4045 126.29 83.7395 126.563 83.9868 126.908C84.234 127.253 84.3845 127.658 84.4226 128.081V128.081Z" fill="#0078D4"/>
<path d="M74.8857 130.208L74.8918 128.055C74.9307 127.638 75.0795 127.239 75.3229 126.898C75.5663 126.558 75.8956 126.288 76.2774 126.116C77.3213 125.585 78.4759 125.308 79.6471 125.309C80.8183 125.309 81.9727 125.586 83.0163 126.118L83.0102 128.27C81.9667 127.739 80.8122 127.462 79.641 127.461C78.4698 127.461 77.3152 127.737 76.2713 128.268C75.8895 128.44 75.5602 128.71 75.3168 129.051C75.0734 129.392 74.9246 129.791 74.8857 130.208Z" fill="#1F56A3"/>
<path d="M91.1914 128.102L91.1853 130.254C91.1805 131.953 90.0641 133.648 87.834 134.944L87.8401 132.792C90.0702 131.496 91.1866 129.8 91.1914 128.102Z" fill="#0078D4"/>
<path d="M87.7869 123.346C92.3054 125.954 92.3292 130.183 87.8401 132.792L83.0383 130.02C84.8909 128.943 84.8844 127.197 83.0164 126.118L87.7869 123.346Z" fill="#1490DF"/>
<path d="M87.8401 132.792L87.8341 134.945L83.0321 132.173L83.0381 130.02L87.8401 132.792Z" fill="#1490DF"/>
<path d="M68.1216 130.188L68.1277 128.035C68.1228 129.755 69.2584 131.478 71.5322 132.791C73.5141 133.87 75.7046 134.512 77.9557 134.672L77.9496 136.824C75.6985 136.664 73.508 136.023 71.5261 134.944C69.2523 133.631 68.1167 131.908 68.1216 130.188Z" fill="#1F56A3"/>
<path d="M87.7869 123.345L83.0164 126.118C81.9728 125.586 80.8183 125.309 79.6471 125.308C78.476 125.308 77.3213 125.585 76.2775 126.116C74.4215 127.194 74.4313 128.943 76.2994 130.021C77.1196 130.465 78.0253 130.729 78.9557 130.794L77.9557 134.672C75.7046 134.512 73.5141 133.871 71.5322 132.791C67.0137 130.183 66.9899 125.954 71.4791 123.345C75.9682 120.736 83.2684 120.736 87.7869 123.345Z" fill="#0078D4"/>
<path d="M78.9561 130.793L78.9491 132.946L77.9501 136.824L77.9561 134.671L78.9561 130.793Z" fill="#0078D4"/>
<path d="M83.0383 130.02L87.8401 132.792C84.8039 134.383 81.364 135.037 77.9557 134.673L78.9556 130.794C80.3632 130.946 81.7842 130.676 83.0383 130.02V130.02Z" fill="#50E6FF"/>
<path d="M87.8401 132.791L87.834 134.944C84.7978 136.535 81.3579 137.189 77.9496 136.824L77.9557 134.672C81.364 135.037 84.8039 134.382 87.8401 132.791V132.791Z" fill="#32BEDD"/>
<path opacity="0.3" d="M67.4163 106.452C69.3026 106.452 70.8317 105.711 70.8317 104.797C70.8317 103.883 69.3026 103.143 67.4163 103.143C65.5301 103.143 64.001 103.883 64.001 104.797C64.001 105.711 65.5301 106.452 67.4163 106.452Z" fill="#003067"/>
<path fill-rule="evenodd" clip-rule="evenodd" d="M68.6143 102.689C68.6143 103.33 68.424 103.957 68.0676 104.491C67.7112 105.024 67.2047 105.44 66.612 105.685C66.0193 105.931 65.3671 105.995 64.738 105.87C64.1088 105.745 63.5308 105.436 63.0772 104.982C62.6236 104.529 62.3147 103.951 62.1895 103.322C62.0644 102.692 62.1286 102.04 62.3741 101.448C62.6196 100.855 63.0353 100.348 63.5687 99.992C64.1021 99.6355 64.7292 99.4453 65.3707 99.4453C66.231 99.4453 67.056 99.7871 67.6643 100.395C68.2725 101.004 68.6143 101.829 68.6143 102.689V102.689Z" fill="#C3F1FF"/>
<path fill-rule="evenodd" clip-rule="evenodd" d="M67.6293 100.65L67.6525 100.649C67.6413 100.638 67.6332 100.637 67.6293 100.65Z" fill="#7CB65A"/>
<path opacity="0.3" d="M76.1209 111.206C78.0072 111.206 79.5363 110.465 79.5363 109.551C79.5363 108.637 78.0072 107.896 76.1209 107.896C74.2347 107.896 72.7056 108.637 72.7056 109.551C72.7056 110.465 74.2347 111.206 76.1209 111.206Z" fill="#003067"/>
<path fill-rule="evenodd" clip-rule="evenodd" d="M77.3187 107.445C77.3187 108.086 77.1285 108.713 76.7721 109.247C76.4157 109.78 75.9091 110.196 75.3165 110.441C74.7238 110.687 74.0716 110.751 73.4424 110.626C72.8132 110.501 72.2353 110.192 71.7817 109.738C71.3281 109.285 71.0191 108.707 70.894 108.077C70.7688 107.448 70.8331 106.796 71.0786 106.203C71.3241 105.611 71.7398 105.104 72.2732 104.748C72.8066 104.391 73.4337 104.201 74.0752 104.201C74.9355 104.201 75.7605 104.543 76.3687 105.151C76.977 105.759 77.3187 106.584 77.3187 107.445V107.445Z" fill="#50E6FF"/>
<path fill-rule="evenodd" clip-rule="evenodd" d="M76.3337 105.404L76.3569 105.403C76.3458 105.392 76.3377 105.391 76.3337 105.404Z" fill="#7CB65A"/>
<path opacity="0.3" d="M66.8199 113.946C68.7061 113.946 70.2352 113.205 70.2352 112.291C70.2352 111.378 68.7061 110.637 66.8199 110.637C64.9336 110.637 63.4045 111.378 63.4045 112.291C63.4045 113.205 64.9336 113.946 66.8199 113.946Z" fill="#003067"/>
<path fill-rule="evenodd" clip-rule="evenodd" d="M68.0177 110.183C68.0177 110.825 67.8275 111.452 67.4711 111.985C67.1147 112.518 66.6081 112.934 66.0154 113.18C65.4227 113.425 64.7706 113.489 64.1414 113.364C63.5122 113.239 62.9343 112.93 62.4806 112.477C62.027 112.023 61.7181 111.445 61.593 110.816C61.4678 110.187 61.532 109.534 61.7775 108.942C62.023 108.349 62.4388 107.842 62.9722 107.486C63.5056 107.13 64.1327 106.939 64.7742 106.939C65.6344 106.939 66.4594 107.281 67.0677 107.889C67.676 108.498 68.0177 109.323 68.0177 110.183V110.183Z" fill="#1F56A3"/>
<path fill-rule="evenodd" clip-rule="evenodd" d="M67.0327 108.143L67.0559 108.142C67.0448 108.13 67.0367 108.129 67.0327 108.143Z" fill="#7CB65A"/>
</g>
<defs>
<linearGradient id="paint0_linear" x1="79.6785" y1="8.2793" x2="79.6785" y2="179.694" gradientUnits="userSpaceOnUse">
<stop stop-color="#00ABDE"/>
<stop offset="1" stop-color="#007ED8"/>
</linearGradient>
<linearGradient id="paint1_linear" x1="316.871" y1="221.295" x2="322" y2="221.295" gradientUnits="userSpaceOnUse">
<stop stop-color="#00ABDE"/>
<stop offset="1" stop-color="#007ED8"/>
</linearGradient>
<linearGradient id="paint2_linear" x1="105.618" y1="116.8" x2="105.618" y2="96.4336" gradientUnits="userSpaceOnUse">
<stop stop-color="white" stop-opacity="0.2"/>
<stop offset="1" stop-color="white" stop-opacity="0"/>
</linearGradient>
<clipPath id="clip0">
<rect width="159.356" height="188" fill="white"/>
</clipPath>
</defs>
</svg>
