<svg width="100" height="100" viewBox="0 0 100 100" fill="none" xmlns="http://www.w3.org/2000/svg">
<g clip-path="url(#clip0_370_1798)">
<path d="M49.6401 96.4499C40.382 96.4499 31.3317 93.7045 23.6339 88.561C15.936 83.4174 9.93624 76.1067 6.3933 67.5533C2.85036 58.9999 1.92337 49.588 3.72954 40.5077C5.53571 31.4275 9.99394 23.0867 16.5404 16.5402C23.0869 9.99372 31.4277 5.5355 40.5079 3.72933C49.5882 1.92315 59.0001 2.85015 67.5535 6.39308C76.1069 9.93602 83.4176 15.9358 88.5612 23.6336C93.7047 31.3315 96.4501 40.3817 96.4501 49.6399C96.4505 55.7872 95.24 61.8744 92.8878 67.5538C90.5355 73.2332 87.0875 78.3937 82.7407 82.7405C78.3939 87.0873 73.2335 90.5353 67.554 92.8876C61.8746 95.2398 55.7874 96.4503 49.6401 96.4499V96.4499Z" fill="url(#paint0_linear_370_1798)"/>
<path fill-rule="evenodd" clip-rule="evenodd" d="M95.54 49.6399C95.54 58.718 92.848 67.5923 87.8045 75.1406C82.7609 82.6888 75.5923 88.5719 67.2052 92.046C58.818 95.52 49.5891 96.429 40.6854 94.6579C31.7816 92.8869 23.603 88.5153 17.1838 82.0961C10.7646 75.6769 6.39302 67.4983 4.62196 58.5945C2.85089 49.6908 3.75987 40.4618 7.23393 32.0747C10.708 23.6876 16.5911 16.519 24.1393 11.4754C31.6875 6.43187 40.5618 3.73988 49.64 3.73988C55.6677 3.73986 61.6363 4.92708 67.2052 7.23377C72.774 9.54045 77.834 12.9214 82.0963 17.1836C86.3585 21.4458 89.7394 26.5058 92.0461 32.0747C94.3528 37.6435 95.54 43.6122 95.54 49.6399V49.6399ZM49.64 -0.000106449C59.4579 -0.000106449 69.0552 2.91123 77.2185 8.36574C85.3818 13.8203 91.7442 21.573 95.5014 30.6435C99.2585 39.714 100.242 49.695 98.3262 59.3242C96.4108 68.9534 91.6831 77.7984 84.7408 84.7407C77.7985 91.683 68.9535 96.4107 59.3243 98.3261C49.6951 100.241 39.7141 99.2584 30.6436 95.5013C21.5731 91.7441 13.8204 85.3816 8.36584 77.2184C2.91133 69.0551 -1.61629e-06 59.4577 3.61524e-07 49.6399C-0.000786426 43.1208 1.28265 36.6655 3.77702 30.6425C6.27138 24.6196 9.92781 19.147 14.5375 14.5374C19.1471 9.9277 24.6197 6.27127 30.6427 3.77691C36.6656 1.28254 43.121 -0.000894549 49.64 -0.000106449V-0.000106449Z" fill="#F2F1F0"/>
<path fill-rule="evenodd" clip-rule="evenodd" d="M92.7296 49.64C92.7296 58.1624 90.2024 66.4934 85.4676 73.5795C80.7328 80.6656 74.0031 86.1886 66.1294 89.45C58.2557 92.7113 49.5918 93.5647 41.2331 91.902C32.8745 90.2394 25.1966 86.1355 19.1703 80.1092C13.1441 74.083 9.04017 66.4051 7.37753 58.0464C5.7149 49.6878 6.56822 41.0238 9.8296 33.1502C13.091 25.2765 18.6139 18.5468 25.7 13.812C32.7862 9.07718 41.1172 6.55 49.6396 6.55C55.2983 6.54965 60.9017 7.66397 66.1298 9.82933C71.3579 11.9947 76.1082 15.1687 80.1096 19.17C84.1109 23.1713 87.2849 27.9217 89.4502 33.1498C91.6156 38.3778 92.7299 43.9812 92.7296 49.64ZM49.6396 2.81C58.9017 2.81 67.9558 5.55653 75.6569 10.7023C83.3581 15.848 89.3604 23.1619 92.9049 31.7189C96.4493 40.276 97.3767 49.6919 95.5697 58.7761C93.7628 67.8602 89.3027 76.2045 82.7534 82.7538C76.2041 89.3031 67.8598 93.7632 58.7757 95.5702C49.6915 97.3771 40.2756 96.4497 31.7185 92.9053C23.1614 89.3608 15.8476 83.3585 10.7018 75.6574C5.5561 67.9562 2.80957 58.9021 2.80957 49.64C2.81076 37.2203 7.74501 25.3096 16.5271 16.5275C25.3091 7.74544 37.2198 2.81119 49.6396 2.81V2.81Z" fill="#0078D4"/>
<path fill-rule="evenodd" clip-rule="evenodd" d="M92.7296 49.6399C92.7296 58.1623 90.2024 66.4933 85.4676 73.5794C80.7328 80.6655 74.0031 86.1885 66.1294 89.4499C58.2557 92.7112 49.5918 93.5646 41.2331 91.9019C32.8745 90.2393 25.1966 86.1354 19.1703 80.1091C13.1441 74.0829 9.04017 66.405 7.37753 58.0463C5.7149 49.6877 6.56822 41.0237 9.8296 33.1501C13.091 25.2764 18.6139 18.5467 25.7001 13.8119C32.7862 9.07708 41.1172 6.5499 49.6396 6.5499C55.2983 6.54956 60.9017 7.66388 66.1298 9.82923C71.3579 11.9946 76.1082 15.1686 80.1096 19.1699C84.1109 23.1712 87.2849 27.9216 89.4502 33.1497C91.6156 38.3777 92.7299 43.9811 92.7296 49.6399V49.6399ZM49.6396 2.8099C58.9017 2.8099 67.9558 5.55643 75.6569 10.7022C83.3581 15.8479 89.3604 23.1618 92.9048 31.7188C96.4493 40.2759 97.3767 49.6918 95.5697 58.776C93.7628 67.8601 89.3027 76.2044 82.7534 82.7537C76.2041 89.303 67.8598 93.7631 58.7757 95.5701C49.6915 97.377 40.2756 96.4496 31.7185 92.9052C23.1614 89.3607 15.8476 83.3584 10.7018 75.6573C5.5561 67.9561 2.80957 58.902 2.80957 49.6399C2.81075 37.2202 7.74499 25.3095 16.5271 16.5274C25.3091 7.7453 37.2198 2.81105 49.6396 2.80986V2.8099Z" fill="#0078D4"/>
<path fill-rule="evenodd" clip-rule="evenodd" d="M29.6304 80.525C28.5701 80.5219 27.554 80.0993 26.8042 79.3495C26.0544 78.5997 25.6318 77.5836 25.6287 76.5232V26.5009C25.6318 25.4405 26.0544 24.4244 26.8042 23.6746C27.554 22.9248 28.5701 22.5022 29.6304 22.4991H69.6483C70.7087 22.5022 71.7248 22.9248 72.4746 23.6746C73.2244 24.4244 73.647 25.4405 73.6501 26.5009V76.5232C73.647 77.5836 73.2244 78.5996 72.4746 79.3495C71.7248 80.0993 70.7087 80.5219 69.6483 80.525H29.6304Z" fill="#1F56A3"/>
<path opacity="0.2" fill-rule="evenodd" clip-rule="evenodd" d="M69.6483 22.4991H49.6394V80.525H69.6483C70.7087 80.5219 71.7248 80.0993 72.4746 79.3495C73.2244 78.5997 73.647 77.5836 73.6501 76.5232V26.5009C73.647 25.4405 73.2244 24.4244 72.4746 23.6746C71.7248 22.9248 70.7087 22.5022 69.6483 22.4991Z" fill="#003067"/>
<path fill-rule="evenodd" clip-rule="evenodd" d="M28.6301 75.5228V27.5013C28.6315 26.9711 28.8428 26.463 29.2177 26.088C29.5927 25.7131 30.1008 25.5018 30.631 25.5004H68.648C69.1783 25.5018 69.6864 25.7131 70.0614 26.088C70.4363 26.463 70.6476 26.9711 70.6489 27.5013V75.5228C70.6476 76.053 70.4363 76.5611 70.0614 76.9361C69.6864 77.311 69.1783 77.5223 68.648 77.5236H30.631C30.1008 77.5223 29.5927 77.311 29.2177 76.9361C28.8428 76.5611 28.6315 76.053 28.6301 75.5228V75.5228Z" fill="white"/>
<path opacity="0.2" fill-rule="evenodd" clip-rule="evenodd" d="M38.6345 25.5004H39.635V22.4991H38.6345V25.5004Z" fill="#003067"/>
<path d="M50.2113 60.516H64.9435C65.2063 60.516 65.4665 60.5677 65.7092 60.6683C65.952 60.7688 66.1726 60.9162 66.3584 61.102C66.5442 61.2878 66.6915 61.5084 66.7921 61.7512C66.8926 61.9939 66.9444 62.2541 66.9444 62.5169V62.5169C66.9444 63.0476 66.7336 63.5565 66.3583 63.9317C65.9831 64.307 65.4742 64.5178 64.9435 64.5178H50.2113C49.6807 64.5178 49.1717 64.307 48.7965 63.9317C48.4213 63.5565 48.2104 63.0476 48.2104 62.5169C48.2104 62.2541 48.2622 61.9939 48.3627 61.7512C48.4633 61.5084 48.6107 61.2878 48.7965 61.102C48.9823 60.9162 49.2029 60.7688 49.4456 60.6683C49.6884 60.5677 49.9486 60.516 50.2113 60.516V60.516Z" fill="#E8E8E8"/>
<path d="M50.2113 68.5195H59.9413C60.4719 68.5195 60.9809 68.7303 61.3561 69.1056C61.7314 69.4808 61.9422 69.9897 61.9422 70.5204C61.9422 71.0511 61.7314 71.56 61.3561 71.9353C60.9809 72.3105 60.4719 72.5213 59.9413 72.5213H50.2113C49.6807 72.5213 49.1717 72.3105 48.7965 71.9353C48.4213 71.56 48.2104 71.0511 48.2104 70.5204C48.2104 69.9897 48.4213 69.4808 48.7965 69.1056C49.1717 68.7303 49.6807 68.5195 50.2113 68.5195Z" fill="#E8E8E8"/>
<path opacity="0.2" fill-rule="evenodd" clip-rule="evenodd" d="M58.6435 27.5014H40.6355C40.3704 27.5006 40.1164 27.3949 39.9289 27.2075C39.7414 27.02 39.6358 26.766 39.635 26.5009V27.5014C39.6358 27.7664 39.7414 28.0205 39.9289 28.2079C40.1164 28.3954 40.3704 28.501 40.6355 28.5018H58.6435C58.9086 28.501 59.1626 28.3954 59.35 28.2079C59.5375 28.0205 59.6431 27.7664 59.6439 27.5014V26.5009C59.6431 26.766 59.5375 27.02 59.35 27.2075C59.1626 27.3949 58.9086 27.5006 58.6435 27.5014V27.5014Z" fill="#546670"/>
<path fill-rule="evenodd" clip-rule="evenodd" d="M49.6395 18.4973C50.17 18.4978 50.6786 18.7088 51.0537 19.0839C51.4289 19.4591 51.6398 19.9677 51.6404 20.4982H47.6386C47.6389 19.9676 47.8499 19.4589 48.225 19.0838C48.6002 18.7086 49.1089 18.4977 49.6395 18.4973ZM58.6435 20.4982H53.6413C53.6413 19.4369 53.2196 18.419 52.4692 17.6685C51.7187 16.918 50.7008 16.4964 49.6395 16.4964C48.5781 16.4964 47.5603 16.918 46.8098 17.6685C46.0593 18.419 45.6377 19.4369 45.6377 20.4982H40.6355C40.3704 20.499 40.1164 20.6046 39.9289 20.7921C39.7414 20.9795 39.6358 21.2335 39.635 21.4986V26.5009C39.6358 26.766 39.7414 27.02 39.9289 27.2075C40.1163 27.3949 40.3704 27.5006 40.6355 27.5013H58.6435C58.9086 27.5006 59.1626 27.3949 59.35 27.2075C59.5375 27.02 59.6431 26.766 59.6439 26.5009V21.4986C59.6431 21.2335 59.5375 20.9795 59.35 20.7921C59.1626 20.6046 58.9086 20.499 58.6435 20.4982H58.6435Z" fill="#B3B3B3"/>
<path opacity="0.2" fill-rule="evenodd" clip-rule="evenodd" d="M59.644 26.5009V21.4986C59.6432 21.2335 59.5375 20.9795 59.3501 20.7921C59.1626 20.6046 58.9086 20.499 58.6435 20.4982H54.6417L51.6404 27.5014H58.6435C58.9086 27.5006 59.1626 27.3949 59.3501 27.2075C59.5375 27.02 59.6432 26.766 59.644 26.5009Z" fill="#E8E8E8"/>
<path opacity="0.2" fill-rule="evenodd" clip-rule="evenodd" d="M50.3248 16.5653L49.4904 18.5121C49.5404 18.5081 49.5885 18.4971 49.6395 18.4971C50.17 18.4977 50.6786 18.7087 51.0537 19.0838C51.4289 19.4589 51.6399 19.9675 51.6404 20.498H48.639L45.6377 27.5011H49.6395L53.3161 18.9213C53.0525 18.311 52.641 17.776 52.1187 17.3646C51.5964 16.9533 50.9799 16.6786 50.3248 16.5653V16.5653Z" fill="#E8E8E8"/>
<path d="M38.2755 72.3951C41.5559 72.3951 44.2151 69.7359 44.2151 66.4555C44.2151 63.1752 41.5559 60.516 38.2755 60.516C34.9952 60.516 32.3359 63.1752 32.3359 66.4555C32.3359 69.7359 34.9952 72.3951 38.2755 72.3951Z" fill="#E8E8E8"/>
<path d="M46.3023 49.187H52.9779V55.8626H46.3023V49.187ZM38.5142 40.2863H45.1897V33.6107H39.446C39.3236 33.6107 39.2024 33.6348 39.0894 33.6816C38.9763 33.7284 38.8736 33.7971 38.7871 33.8836C38.7006 33.9701 38.6319 34.0729 38.5851 34.1859C38.5383 34.299 38.5142 34.4201 38.5142 34.5425V40.2863ZM39.446 55.8626H45.1897V49.187H38.5142V54.9308C38.5142 55.1779 38.6123 55.4149 38.7871 55.5897C38.9618 55.7644 39.1988 55.8626 39.446 55.8626V55.8626ZM38.5142 48.0744H45.1897V41.3989H38.5142V48.0744ZM54.0905 55.8626H59.8482C60.0929 55.8589 60.3263 55.7592 60.4981 55.5848C60.6698 55.4104 60.7661 55.1755 60.7661 54.9308V49.187H54.0905V55.8626ZM46.3023 48.0744H52.9779V41.3989H46.3023V48.0744ZM54.0905 48.0744H60.766V41.3989H54.0905V48.0744ZM54.0905 33.6107V40.2863H60.766V34.5425C60.766 34.2977 60.6698 34.0628 60.498 33.8885C60.3263 33.7141 60.0928 33.6143 59.8481 33.6107H54.0905ZM46.3023 40.2863H52.9779V33.6107H46.3023V40.2863Z" fill="url(#paint1_linear_370_1798)"/>
</g>
<defs>
<linearGradient id="paint0_linear_370_1798" x1="47.8698" y1="-15.1532" x2="51.8525" y2="130.615" gradientUnits="userSpaceOnUse">
<stop stop-color="#00ABDE"/>
<stop offset="1" stop-color="#007ED8"/>
</linearGradient>
<linearGradient id="paint1_linear_370_1798" x1="49.6401" y1="55.8626" x2="49.6401" y2="33.6107" gradientUnits="userSpaceOnUse">
<stop stop-color="#5E9624"/>
<stop offset="0.01" stop-color="#5E9724"/>
<stop offset="0.35" stop-color="#6CAB29"/>
<stop offset="0.68" stop-color="#73B82C"/>
<stop offset="1" stop-color="#76BC2D"/>
</linearGradient>
<clipPath id="clip0_370_1798">
<rect width="99.2799" height="99.28" fill="white"/>
</clipPath>
</defs>
</svg>
