<?xml version="1.0" encoding="UTF-8"?>
<svg width="202px" height="168px" viewBox="0 0 202 168" version="1.1" xmlns="http://www.w3.org/2000/svg" xmlns:xlink="http://www.w3.org/1999/xlink">
    <title>Review Microsoft Azure pricing and support/review-microsoft-azure-pricing-and-support</title>
    <defs>
        <path d="M45.9102524,160 L153.401474,160 C163.025776,160 171.28527,153.145229 173.058918,143.685771 L194.818366,27.6353808 C196.853961,16.7788744 189.703199,6.32776127 178.846693,4.29216632 C176.651494,3.8805665 174.402856,3.83957154 172.194113,4.170883 L21.3829699,26.7925545 C10.4594805,28.4310779 2.93252847,38.6146013 4.57105187,49.5380906 C4.64810856,50.0518019 4.74514986,50.5623161 4.86195501,51.0684717 L26.4224285,144.49719 C28.516572,153.571812 36.5971328,160 45.9102524,160 Z" id="path-1"></path>
        <linearGradient x1="50%" y1="0.179476351%" x2="50%" y2="100%" id="linearGradient-3">
            <stop stop-color="#0099BE" offset="0%"></stop>
            <stop stop-color="#006E97" offset="100%"></stop>
        </linearGradient>
        <path d="M169.061361,0.991094726 C171.276638,0.658803101 173.531929,0.699919342 175.733622,1.11273685 C186.50763,3.13286328 193.642764,13.4166469 191.813962,24.181304 L191.752546,24.5250108 L169.928724,140.918729 C168.172065,150.287579 160.071981,157.108938 150.574452,157.278009 L150.213125,157.281223 L42.4038967,157.281223 C33.1861283,157.281223 25.1722476,151.002564 22.944435,142.09043 L22.8584192,141.732549 L1.23416039,48.0274271 C1.11700968,47.5197741 1.01968128,47.0077496 0.942396628,46.4925185 C-0.683675604,35.652037 6.69033349,25.5381684 17.459218,23.7344267 L17.8040517,23.6796911 L169.061361,0.991094726 Z M174.749852,5.30897766 C173.266584,5.02934135 171.750819,4.97631136 170.253638,5.15082405 L169.755337,5.21742374 L18.7906257,27.9861799 C10.5896664,29.2230626 4.93870391,36.9103646 6.16884781,45.1562495 C6.20741539,45.4147751 6.25265129,45.6722282 6.3045064,45.9283489 L6.38724733,46.3114981 L27.9696753,140.347684 C29.5165241,147.087415 35.4139467,151.893338 42.2628432,152.046615 L42.6004263,152.05039 L150.201104,152.05039 C157.315517,152.05039 163.436568,147.033875 164.894298,140.063326 L164.959199,139.735162 L186.740804,22.9302205 C188.269055,14.7348995 182.900523,6.84560035 174.749852,5.30897766 Z" id="path-4"></path>
        <filter x="-16.2%" y="-16.5%" width="132.4%" height="133.7%" filterUnits="objectBoundingBox" id="filter-6">
            <feOffset dx="0" dy="2" in="SourceAlpha" result="shadowOffsetOuter1"></feOffset>
            <feGaussianBlur stdDeviation="2" in="shadowOffsetOuter1" result="shadowBlurOuter1"></feGaussianBlur>
            <feColorMatrix values="0 0 0 0 0   0 0 0 0 0   0 0 0 0 0  0 0 0 0.1 0" type="matrix" in="shadowBlurOuter1" result="shadowMatrixOuter1"></feColorMatrix>
            <feMerge>
                <feMergeNode in="shadowMatrixOuter1"></feMergeNode>
                <feMergeNode in="SourceGraphic"></feMergeNode>
            </feMerge>
        </filter>
        <linearGradient x1="50%" y1="100%" x2="50%" y2="0%" id="linearGradient-7">
            <stop stop-color="#D2EBFF" offset="0%"></stop>
            <stop stop-color="#F0FFFD" offset="100%"></stop>
        </linearGradient>
        <path d="M41.1695076,0 L44.9121901,9.40450254 L50.6010675,11.0465585 L58.9846763,6.568224 L60.1823347,6.568224 L63.326188,10.1508916 L66.0209194,12.8378924 L66.0209194,13.7335593 L61.829115,22.5409505 L63.9250172,28.2135076 L72.4583333,31.199064 L72.4583333,39.5586218 L62.7273588,43.4398451 L61.0805785,49.26168 L65.2723829,57.6212378 L65.2723829,58.8154603 L59.4337982,64.6372952 L49.5531164,60.0096829 L43.864239,62.398128 L41.0198003,71.3547971 L41.0198003,72.5490196 L32.6361915,72.5490196 L29.0432163,62.5474058 L23.2046315,60.1589607 L14.97073,64.3387396 L13.7730716,64.3387396 L7.93448691,58.3676269 L12.4257059,48.6645687 L10.0303891,42.9920116 L1.1976584,40.0064553 L0,40.0064553 L0,31.6468974 L10.0303891,27.914952 L12.5754132,21.6452836 L8.23390152,13.2857258 L8.23390152,12.2407811 L14.0724862,6.41894618 L23.8034607,11.0465585 L30.0911674,8.50883563 L32.9356061,0 L41.1695076,0 Z M36.7542271,18.9258312 C27.474776,18.9258312 19.9522947,26.4577274 19.9522947,35.7487923 C19.9522947,45.0398571 27.474776,52.5717533 36.7542271,52.5717533 C46.0336781,52.5717533 53.5561594,45.0398571 53.5561594,35.7487923 C53.5561594,26.4577274 46.0336781,18.9258312 36.7542271,18.9258312 Z" id="path-8"></path>
        <filter x="0.0%" y="0.0%" width="100.0%" height="100.0%" filterUnits="objectBoundingBox" id="filter-9">
            <feOffset dx="0" dy="0" in="SourceAlpha" result="shadowOffsetOuter1"></feOffset>
            <feColorMatrix values="0 0 0 0 0   0 0 0 0 0   0 0 0 0 0  0 0 0 0.1 0" type="matrix" in="shadowOffsetOuter1"></feColorMatrix>
        </filter>
        <linearGradient x1="49.9774416%" y1="17.9912184%" x2="49.9774416%" y2="124.588364%" id="linearGradient-10">
            <stop stop-color="#32D4F5" offset="0%"></stop>
            <stop stop-color="#31D1F3" offset="47%"></stop>
            <stop stop-color="#2EC9EB" offset="63%"></stop>
            <stop stop-color="#29BADE" offset="77%"></stop>
            <stop stop-color="#22A5CB" offset="89%"></stop>
            <stop stop-color="#198AB3" offset="100%"></stop>
            <stop stop-color="#198AB3" offset="100%"></stop>
        </linearGradient>
        <path d="M2.06792667,14.6639687 L11.4573358,5.10385401 C13.0323903,3.50016401 15.2094531,2.63308805 17.4557701,2.71481035 L21.2037703,2.85116475 C23.774972,2.94470655 25.8554394,4.97425996 26.0126457,7.54235549 L26.2814518,11.9335271 C26.4215989,14.2229485 25.5723163,16.462397 23.9492832,18.0831544 L14.6671963,27.3522268 C13.4948018,28.5229774 11.5953073,28.5216448 10.4245566,27.3492503 C10.4198281,27.3445151 10.4151154,27.3397641 10.4104186,27.3349974 L2.07132386,18.8716726 C0.921908822,17.7051344 0.920396798,15.8323614 2.06792667,14.6639687 Z" id="path-11"></path>
        <filter x="-6.8%" y="-3.3%" width="109.8%" height="109.7%" filterUnits="objectBoundingBox" id="filter-12">
            <feOffset dx="-2" dy="2" in="SourceAlpha" result="shadowOffsetOuter1"></feOffset>
            <feColorMatrix values="0 0 0 0 0   0 0 0 0 0   0 0 0 0 0  0 0 0 0.1 0" type="matrix" in="shadowOffsetOuter1"></feColorMatrix>
        </filter>
        <path d="M10.5909613,10.631001 L18.761208,18.8841343 C19.1372332,19.2639742 19.1372332,19.8798165 18.761208,20.2596565 L13.6548038,25.4178647 C13.2787786,25.7977047 12.6691213,25.7977047 12.293096,25.4178647 L4.12284936,17.1647315 C3.74682414,16.7848915 3.74682414,16.1690493 4.12284936,15.7892093 L9.22925353,10.631001 C9.60527875,10.2511611 10.2149361,10.2511611 10.5909613,10.631001 Z" id="path-13"></path>
        <filter x="-9.9%" y="-3.3%" width="113.2%" height="113.0%" filterUnits="objectBoundingBox" id="filter-14">
            <feOffset dx="-1" dy="1" in="SourceAlpha" result="shadowOffsetOuter1"></feOffset>
            <feColorMatrix values="0 0 0 0 0   0 0 0 0 0   0 0 0 0 0  0 0 0 0.1 0" type="matrix" in="shadowOffsetOuter1"></feColorMatrix>
        </filter>
        <path d="M4.92188311,-0.48511756 C5.46493477,-0.482376852 5.90448727,-0.0428243485 5.90722798,0.500227303 L5.95237784,9.44634932 C5.95508306,9.9823697 5.52274569,10.4190931 4.98672531,10.4217983 C4.98345984,10.4218148 4.9801943,10.4218148 4.97692883,10.4217983 C4.43387718,10.4190576 3.99432468,9.97950511 3.99158397,9.43645346 L3.94643411,0.490331443 C3.94372889,-0.0456889434 4.37606625,-0.482412338 4.91208664,-0.48511756 C4.91535211,-0.48513404 4.91861764,-0.48513404 4.92188311,-0.48511756 Z" id="path-15"></path>
        <filter x="-24.6%" y="-4.5%" width="149.1%" height="118.2%" filterUnits="objectBoundingBox" id="filter-16">
            <feOffset dx="0" dy="1" in="SourceAlpha" result="shadowOffsetOuter1"></feOffset>
            <feColorMatrix values="0 0 0 0 0   0 0 0 0 0   0 0 0 0 0  0 0 0 0.1 0" type="matrix" in="shadowOffsetOuter1"></feColorMatrix>
        </filter>
        <filter x="-12.5%" y="-26.7%" width="125.0%" height="153.3%" filterUnits="objectBoundingBox" id="filter-17">
            <feOffset dx="0" dy="2" in="SourceAlpha" result="shadowOffsetOuter1"></feOffset>
            <feGaussianBlur stdDeviation="2" in="shadowOffsetOuter1" result="shadowBlurOuter1"></feGaussianBlur>
            <feColorMatrix values="0 0 0 0 0   0 0 0 0 0   0 0 0 0 0  0 0 0 0.099071558 0" type="matrix" in="shadowBlurOuter1" result="shadowMatrixOuter1"></feColorMatrix>
            <feMerge>
                <feMergeNode in="shadowMatrixOuter1"></feMergeNode>
                <feMergeNode in="SourceGraphic"></feMergeNode>
            </feMerge>
        </filter>
        <linearGradient x1="50%" y1="0%" x2="50%" y2="100%" id="linearGradient-18">
            <stop stop-color="#F6E4D3" offset="0%"></stop>
            <stop stop-color="#E4B38B" offset="100%"></stop>
        </linearGradient>
        <linearGradient x1="50%" y1="0%" x2="50%" y2="100%" id="linearGradient-19">
            <stop stop-color="#F2F3F2" offset="0%"></stop>
            <stop stop-color="#E1E4E1" offset="100%"></stop>
        </linearGradient>
        <linearGradient x1="50%" y1="0%" x2="50%" y2="100%" id="linearGradient-20">
            <stop stop-color="#FDEEE0" offset="0%"></stop>
            <stop stop-color="#F9D8BE" offset="100%"></stop>
        </linearGradient>
    </defs>
    <g id="Badges" stroke="none" stroke-width="1" fill="none" fill-rule="evenodd">
        <g id="Review-Microsoft-Azure-pricing-and-support" transform="translate(-109.000000, -47.000000)">
            <g id="Review-Microsoft-Azure-pricing-and-support/review-microsoft-azure-pricing-and-support" transform="translate(160.000000, 80.000000)">
                <g id="Trophy-Plates/Trailhead">
                    <g id="BG" transform="translate(-50.000000, -30.474805)">
                        <mask id="mask-2" fill="white">
                            <use xlink:href="#path-1"></use>
                        </mask>
                        <path stroke="#FFFFFF" stroke-width="5" d="M21.0121187,24.3202136 C14.867656,25.241883 9.67846935,28.5668337 6.25581574,33.1974827 C2.83316214,37.8281317 1.17704157,43.764479 2.09871098,49.9089418 C2.18539976,50.4868669 2.29457123,51.0611954 2.42597702,51.6306205 L23.9864505,145.059339 C25.1644062,150.163814 28.0260418,154.523979 31.9028459,157.608026 C35.77965,160.692072 40.6716226,162.5 45.9102524,162.5 L153.401474,162.5 C158.815144,162.5 163.844961,160.572096 167.770781,157.313955 C171.6966,154.055814 174.518421,149.467437 175.516098,144.146492 L197.275547,28.0961021 C198.420569,21.9893173 196.981928,15.9965493 193.730336,11.244222 C190.478743,6.49189465 185.414199,2.98000801 179.307414,1.83498585 C176.837815,1.37193606 174.308098,1.32581673 171.823262,1.69854212 L21.0121187,24.3202136 Z"></path>
                        <g id="Colors/Azure/BG-Gradient-4" mask="url(#mask-2)" fill="url(#linearGradient-3)">
                            <g transform="translate(0.000000, -0.000000)" id="Rectangle">
                                <rect x="0" y="0" width="200" height="160"></rect>
                            </g>
                        </g>
                    </g>
                    <g id="Border" transform="translate(-46.652943, -27.525195)">
                        <mask id="mask-5" fill="white">
                            <use xlink:href="#path-4"></use>
                        </mask>
                        <use fill="#000000" fill-rule="nonzero" xlink:href="#path-4"></use>
                        <g id="Colors/Azure/Border" mask="url(#mask-5)" fill="#27C0F5">
                            <g transform="translate(-3.347057, -2.949610)" id="Rectangle">
                                <rect x="0" y="0" width="200" height="164"></rect>
                            </g>
                        </g>
                    </g>
                </g>
                <g id="Group-10" transform="translate(13.000000, 2.000000)" fill-rule="nonzero">
                    <g id="Group">
                        <g id="gear-w/-Person" filter="url(#filter-6)">
                            <g id="Group-4" transform="translate(0.724583, 0.000000)">
                                <g id="Combined-Shape">
                                    <use fill="black" fill-opacity="1" filter="url(#filter-9)" xlink:href="#path-8"></use>
                                    <use fill="url(#linearGradient-7)" xlink:href="#path-8"></use>
                                </g>
                            </g>
                        </g>
                    </g>
                    <g id="Price-Tag" transform="translate(38.162233, 37.831736) rotate(-45.000000) translate(-38.162233, -37.831736) translate(23.162233, 22.831736)">
                        <g id="Path-28">
                            <use fill="black" fill-opacity="1" filter="url(#filter-12)" xlink:href="#path-11"></use>
                            <use fill="url(#linearGradient-10)" xlink:href="#path-11"></use>
                        </g>
                        <ellipse id="Oval" fill="#19ADCC" cx="20.911188" cy="8.19067917" rx="3.41407151" ry="3.44870702"></ellipse>
                        <ellipse id="Oval" fill="#FFFFFF" cx="20.911188" cy="8.19067917" rx="2.13379469" ry="2.15544189"></ellipse>
                        <g id="Rectangle">
                            <use fill="black" fill-opacity="1" filter="url(#filter-14)" xlink:href="#path-13"></use>
                            <use fill="#19ADCC" xlink:href="#path-13"></use>
                        </g>
                        <g id="Group-9" transform="translate(19.204152, 0.000000)">
                            <g id="Rectangle" transform="translate(4.949406, 4.968340) rotate(-315.000000) translate(-4.949406, -4.968340) ">
                                <use fill="black" fill-opacity="1" filter="url(#filter-16)" xlink:href="#path-15"></use>
                                <use fill="#19ADCC" xlink:href="#path-15"></use>
                            </g>
                        </g>
                    </g>
                </g>
                <g id="Group-7" filter="url(#filter-17)" transform="translate(2.000000, 78.000000)">
                    <path d="M94.0284357,0.453910326 C90.0721167,-0.650988517 85.8134424,0.291207685 82.7279066,2.95361454 L68.63815,15.2790791 C66.7937827,16.8706068 64.4187819,17.749201 61.9591216,17.749201 L48.3788336,17.749201 C47.1270827,17.749201 46.1111689,16.7552358 46.1111689,15.5305287 C46.1111689,14.3058215 47.1270827,13.3118563 48.3788336,13.3118563 C48.3788336,13.3118563 57.8486014,13.3118563 58.2053806,13.3118563 C61.5448948,13.3118563 64.2524865,10.6627615 64.2524865,7.39539663 C64.2524865,4.12803178 61.5448948,1.47893696 58.2053806,1.47893696 C57.8486014,1.47893696 45.4973876,1.47893696 41.5758395,1.47893696 C39.3656223,1.47893696 34.3918777,1.47893696 32.0304829,1.47893696 C27.2230338,1.47893696 23.664312,3.2376046 20.1796672,5.96361339 C17.0790137,8.38936185 10.2034543,14.6859541 7,17.645663 L25.7596341,36 C27.0113851,35.7026979 28.4566434,35.49858 30.1044797,35.49858 L59.7171571,35.49858 C65.4891196,35.49858 70.9814035,33.0624778 74.7850331,28.8159389 L95.2816984,4.80694553 C96.6498561,3.35149645 95.9710684,0.9967455 94.0284357,0.453910326" id="Fill-168" fill="url(#linearGradient-18)"></path>
                    <path d="M28.5526338,40.4087324 L24.4087324,44.5526338 C23.7829498,45.1784164 22.7343825,45.1433115 22.0658636,44.4747926 L0.525207396,22.9341364 C-0.143311516,22.2656175 -0.17841639,21.2170502 0.447366153,20.5912676 L4.59126763,16.4473662 C5.21705017,15.8215836 6.26561751,15.8566885 6.93413642,16.5252074 L28.4747926,38.0658636 C29.1433115,38.7343825 29.1784164,39.7829498 28.5526338,40.4087324" id="Fill-169" fill="url(#linearGradient-19)"></path>
                    <path d="M24,39.5 C24,40.328 23.328,41 22.5,41 C21.672,41 21,40.328 21,39.5 C21,38.672 21.672,38 22.5,38 C23.328,38 24,38.672 24,39.5" id="Fill-176" fill="#8BA6B1"></path>
                    <path d="M55,6.5 C55,5.672 55.6272,5 56.4,5 L59.2,5 C60.747,5 62,6.3425 62,8 C62,9.656 60.747,11 59.2,11 L56.4,11 C55.6272,11 55,10.328 55,9.5 L55,6.5 Z" id="Fill-180" fill="url(#linearGradient-20)"></path>
                    <path d="M55.4720314,11 L58.4160942,11 C59.0004907,11 59.5421982,10.881 60,10.681 C59.5981354,10.285 58.9430815,10 58.1084396,10 L54,10 C54,10.552 54.6594701,11 55.4720314,11" id="Fill-181" fill="#EAC5A7"></path>
                    <path d="M55,6.5 C55,5.39382991 54.766,4.44747082 54.43,4 C54.176,4.25152863 54,4.64341301 54,5.11033908 L54,7.88966092 C54,8.35519733 54.176,8.74847137 54.43,9 C54.766,8.55252918 55,7.60617009 55,6.5" id="Fill-182" fill="#FFFFFE"></path>
                    <path d="M54.43,10.799 C54.61,10.626 54.758,10.343 54.859,10 L54,10 C54,10.335 54.176,10.618 54.43,10.799" id="Fill-183" fill="#F9D8BE"></path>
                </g>
            </g>
        </g>
    </g>
</svg>