<svg width="103" height="102" viewBox="0 0 103 102" fill="none" xmlns="http://www.w3.org/2000/svg">
<path d="M51.1953 97.8103C25.3453 97.8103 4.38525 76.8603 4.38525 51.0003C4.38525 25.1403 25.3453 4.19031 51.1953 4.19031C77.0453 4.19031 98.0052 25.1503 98.0052 51.0003C98.0052 76.8503 77.0453 97.8103 51.1953 97.8103Z" fill="url(#paint0_linear_1111_3104)"/>
<path fill-rule="evenodd" clip-rule="evenodd" d="M97.0952 51.0004C97.0952 76.3504 76.5452 96.9004 51.1952 96.9004C25.8452 96.9004 5.29518 76.3504 5.29518 51.0004C5.29518 25.6504 25.8452 5.10042 51.1952 5.10042C76.5452 5.10042 97.0952 25.6504 97.0952 51.0004ZM51.1952 1.36041C78.6152 1.36041 100.835 23.5804 100.835 51.0004C100.835 78.4204 78.6052 100.64 51.1952 100.64C23.7752 100.64 1.55518 78.4104 1.55518 51.0004C1.55518 23.5804 23.7752 1.36041 51.1952 1.36041Z" fill="#F2F1F0"/>
<path fill-rule="evenodd" clip-rule="evenodd" d="M94.2852 51.0003C94.2852 74.8003 74.9952 94.0903 51.1952 94.0903C27.3952 94.0903 8.10523 74.8003 8.10523 51.0003C8.10523 27.2003 27.3952 7.91029 51.1952 7.91029C74.9952 7.91029 94.2852 27.2003 94.2852 51.0003ZM51.1952 4.17029C77.0552 4.17029 98.0252 25.1403 98.0252 51.0003C98.0252 76.8603 77.0552 97.8303 51.1952 97.8303C25.3352 97.8303 4.36523 76.8603 4.36523 51.0003C4.36523 25.1403 25.3252 4.17029 51.1952 4.17029Z" fill="url(#paint1_linear_1111_3104)"/>
<path opacity="0.15" d="M72.6512 22.7901L28.8512 22.4301C27.9012 22.4201 27.1312 23.1801 27.1312 24.1301L26.6612 81.2901C26.6512 82.2401 27.4112 83.0101 28.3612 83.0101L72.1612 83.3701C73.1112 83.3801 73.8812 82.6201 73.8812 81.6701L74.3512 24.5101C74.3412 23.5701 73.5812 22.8001 72.6512 22.7901Z" fill="#1F1D20"/>
<g filter="url(#filter0_d_1111_3104)">
<path d="M72.6612 20.98L28.8612 20.62C27.9112 20.61 27.1412 21.37 27.1412 22.32L26.6612 79.47C26.6512 80.42 27.4112 81.19 28.3612 81.19L72.1612 81.55C73.1112 81.56 73.8812 80.8 73.8812 79.85L74.3512 22.69C74.3512 21.76 73.6012 20.99 72.6612 20.98Z" fill="#F2F2F2"/>
</g>
<path opacity="0.15" d="M69.6114 22.9402H31.4014V76.1502H69.6114V22.9402Z" fill="#1F1D20"/>
<g filter="url(#filter1_d_1111_3104)">
<path d="M69.6114 22.3299H31.4014V75.5399H69.6114V22.3299Z" fill="white"/>
</g>
<path fill-rule="evenodd" clip-rule="evenodd" d="M52.7912 14.3398C54.0312 15.0098 54.7512 16.3398 54.7412 17.7398V18.0798C54.7412 18.2098 54.7312 18.3198 54.7212 18.4498L57.4112 18.4698C58.2112 18.4798 58.9612 18.8798 59.3612 19.5798C60.4812 21.5698 59.0612 23.5898 57.1912 23.5698L43.6112 23.4698C42.8112 23.4598 42.0612 23.0598 41.6612 22.3598C40.5412 20.3698 41.9612 18.3498 43.8312 18.3698L46.3312 18.3898C46.3212 18.2698 46.3212 18.1498 46.3212 18.0198V17.9098C46.3612 14.8698 49.5912 12.6198 52.7912 14.3398Z" fill="#243A5E"/>
<path d="M50.4915 19.9099C51.4515 19.9199 52.2315 19.1499 52.2415 18.1899C52.2515 17.2299 51.4815 16.4499 50.5215 16.4399C49.5615 16.4299 48.7815 17.1999 48.7715 18.1599C48.7715 19.1199 49.5315 19.8999 50.4915 19.9099Z" fill="#01A4DD"/>
<path d="M81.9064 44.4676L79.8687 46.4325L84.9047 51.6577L87.9467 48.6157L86.9569 44.06L81.9064 44.4676Z" fill="url(#paint2_linear_1111_3104)"/>
<path d="M63.858 62.4576L61.8203 64.408L66.9146 69.6187L69.8401 66.6786L68.8649 62.1083L63.858 62.4576Z" fill="url(#paint3_linear_1111_3104)"/>
<path d="M87.6702 43.7398C86.2584 42.328 84.5118 41.7749 83.7403 42.4881H83.7258L81.4989 44.7441C81.4843 44.7587 81.4989 44.7878 81.528 44.7732C82.3722 44.3075 83.9732 44.8897 85.2977 46.1851C86.4912 47.3786 87.0734 48.805 86.826 49.6928C86.826 49.7219 86.8406 49.7365 86.8551 49.7074L88.8928 47.6842L88.9074 47.6697C88.9074 47.6697 88.9074 47.6697 88.9074 47.6551L88.9219 47.6406C89.6351 46.9128 89.082 45.1662 87.6702 43.7398Z" fill="#092E4C"/>
<path d="M84.0025 47.4077C82.6052 46.0105 80.8877 45.4574 80.0872 46.1414L63.3926 62.836C63.3635 62.8652 63.3926 62.9234 63.4362 62.9088C64.3241 62.5741 65.7942 63.1417 67.0459 64.3934C68.2103 65.5578 68.7925 66.9406 68.5887 67.843C68.5742 67.8866 68.6469 67.9303 68.676 67.8866L85.2688 51.2939C85.9528 50.5225 85.4143 48.805 84.0025 47.4077Z" fill="#092E4C"/>
<path d="M65.721 65.6889C64.2801 64.2479 62.5189 63.7094 61.7621 64.4372V64.4517L60.3939 69.5605C60.6122 69.3422 60.7432 69.7352 61.1508 70.1427C61.5729 70.5503 61.4127 70.4775 61.1944 70.6958L60.2192 71.5691L66.9582 69.6479C67.7005 68.891 67.1474 67.1153 65.721 65.6889Z" fill="#FFBB00"/>
<path d="M61.5439 69.9244C61.1363 69.5168 60.6269 69.3422 60.394 69.5605L59.9428 71.2925C59.8992 71.4672 60.0593 71.6127 60.2194 71.5691L61.9078 71.0742C62.1261 70.8559 61.966 70.3319 61.5439 69.9244Z" fill="#092E4C"/>
<path d="M55.1697 59.1502H43.5018C42.9908 59.1502 42.582 59.5675 42.582 60.07C42.582 60.581 42.9993 60.9898 43.5018 60.9898H55.1612C55.6722 60.9898 56.081 60.5725 56.081 60.07C56.0895 59.559 55.6807 59.1502 55.1697 59.1502Z" fill="#32B0E7"/>
<path d="M55.1697 63.1354H43.5018C42.9908 63.1354 42.582 63.5527 42.582 64.0552C42.582 64.5662 42.9993 64.975 43.5018 64.975H55.1612C55.6722 64.975 56.081 64.5577 56.081 64.0552C56.0895 63.5527 55.6807 63.1354 55.1697 63.1354Z" fill="#0078D4"/>
<path fill-rule="evenodd" clip-rule="evenodd" d="M43.5018 67.4365H49.3272C49.8382 67.4365 50.247 67.8538 50.247 68.3563C50.247 68.8673 49.8297 69.2761 49.3272 69.2761H43.5018C42.9908 69.2761 42.582 68.8588 42.582 68.3563C42.5905 67.8538 42.9993 67.4365 43.5018 67.4365Z" fill="#185A97"/>
<path d="M40.8194 59.0641L40.2658 58.5106L37.4979 61.27L36.6717 60.4438L36.1182 60.9889L37.4979 62.3686L40.8194 59.0641Z" fill="#32B0E7"/>
<path d="M40.8194 63.5868L40.2658 63.0417L37.4979 65.8011L36.6717 64.975L36.1182 65.52L37.4979 66.8997L40.8194 63.5868Z" fill="#0078D4"/>
<path d="M40.8194 68.118L40.2658 67.5645L37.4979 70.3239L36.6717 69.4977L36.1182 70.0513L37.4979 71.431L40.8194 68.118Z" fill="#185A97"/>
<path d="M54.4434 35.9782C52.6685 33.7818 49.9618 32.3841 46.9223 32.3841C41.5976 32.3841 37.2712 36.7103 37.2712 42.035C37.2712 42.8781 37.3821 43.6768 37.5818 44.4533C35.6294 44.4977 34.0542 46.1173 34.0542 48.0697C34.0542 50.0664 35.6738 51.686 37.6706 51.686H62.6301C64.6269 51.686 66.2464 50.0664 66.2464 48.0697C66.2464 46.0729 64.6269 44.4533 62.6301 44.4533H62.5635C62.8741 43.699 63.0294 42.9003 63.0294 42.035C63.0294 38.4852 60.1452 35.601 56.5954 35.601C55.8411 35.601 55.109 35.7341 54.4434 35.9782Z" fill="url(#paint4_linear_1111_3104)"/>
<path d="M60.2554 40.9524H48.1536L47.2561 39.9953H42.436V52.1397H60.2554V40.9524Z" fill="white"/>
<path d="M60.2642 42.5119H42.3677V54.9623H60.2642V42.5119Z" fill="url(#paint5_linear_1111_3104)"/>
<path opacity="0.15" d="M54.5882 53.1844H51.567C51.4806 53.1866 51.3948 53.1703 51.3152 53.1366C51.2388 53.1054 51.1695 53.0591 51.1113 53.0006C51.0522 52.9429 51.0059 52.8734 50.9753 52.7967C50.9431 52.7211 50.9268 52.6397 50.9275 52.5575C50.925 52.4711 50.9413 52.3852 50.9753 52.3057C51.0059 52.229 51.0522 52.1595 51.1113 52.1018C51.1695 52.0433 51.2388 51.9971 51.3152 51.9659C51.3948 51.9322 51.4806 51.9158 51.567 51.918H54.5882C54.7543 51.9186 54.9135 51.9847 55.0313 52.1018C55.0897 52.1599 55.1359 52.229 55.1675 52.305C55.199 52.3811 55.2152 52.4626 55.2151 52.5449C55.2152 52.6272 55.199 52.7088 55.1675 52.7848C55.1359 52.8609 55.0897 52.9299 55.0313 52.988C54.9744 53.0488 54.9058 53.0975 54.8297 53.1312C54.7536 53.1649 54.6715 53.183 54.5882 53.1844V53.1844Z" fill="#1F1D20"/>
<path opacity="0.15" d="M49.6714 44.1484L53.3523 47.9854C53.4362 48.0733 53.5005 48.178 53.5411 48.2926C53.5816 48.4071 53.5962 48.5292 53.5839 48.6501C53.5721 48.7713 53.5352 48.8888 53.4756 48.995C53.4121 49.1012 53.3261 49.1922 53.2239 49.2619L47.6421 53.2172C47.5651 53.2727 47.4778 53.3123 47.3853 53.3339C47.2928 53.3555 47.197 53.3587 47.1033 53.3431C46.9144 53.3106 46.7456 53.2058 46.6325 53.051C46.5218 52.8948 46.4766 52.7014 46.5067 52.5122C46.5381 52.3229 46.6431 52.1537 46.7987 52.0414L51.7561 48.4915L48.6266 45.1278C48.4995 44.9915 48.4317 44.8105 48.4377 44.6243C48.4396 44.5296 48.4604 44.4364 48.4989 44.3499C48.5374 44.2634 48.5928 44.1855 48.6618 44.1207C48.7972 43.9915 48.9782 43.9209 49.1653 43.9243C49.2604 43.9258 49.3542 43.9464 49.4412 43.9849C49.5281 44.0234 49.6064 44.079 49.6714 44.1484V44.1484Z" fill="#1F1D20"/>
<path d="M54.5882 52.9079H51.567C51.4806 52.91 51.3948 52.8937 51.3152 52.86C51.2388 52.8288 51.1695 52.7826 51.1113 52.7241C51.0522 52.6663 51.0059 52.5969 50.9753 52.5201C50.9431 52.4445 50.9268 52.3631 50.9275 52.281C50.925 52.1946 50.9413 52.1087 50.9753 52.0292C51.0059 51.9525 51.0522 51.883 51.1113 51.8252C51.1695 51.7667 51.2388 51.7205 51.3152 51.6893C51.3948 51.6556 51.4806 51.6393 51.567 51.6415H54.5882C54.7543 51.6421 54.9135 51.7081 55.0313 51.8252C55.0897 51.8833 55.1359 51.9524 55.1675 52.0285C55.199 52.1045 55.2152 52.186 55.2151 52.2684C55.2152 52.3507 55.199 52.4323 55.1675 52.5083C55.1359 52.5843 55.0897 52.6534 55.0313 52.7115C54.9744 52.7722 54.9058 52.8209 54.8297 52.8546C54.7536 52.8884 54.6715 52.9065 54.5882 52.9079V52.9079Z" fill="white"/>
<path d="M49.6714 43.872L53.3523 47.7089C53.4362 47.7969 53.5005 47.9015 53.5411 48.0161C53.5816 48.1306 53.5962 48.2527 53.5839 48.3736C53.5721 48.4949 53.5352 48.6123 53.4756 48.7185C53.4121 48.8247 53.3261 48.9158 53.2239 48.9854L47.6421 52.9407C47.5651 52.9962 47.4778 53.0359 47.3853 53.0575C47.2928 53.0791 47.197 53.0822 47.1033 53.0666C46.9144 53.0341 46.7456 52.9294 46.6325 52.7746C46.5218 52.6183 46.4766 52.4249 46.5067 52.2358C46.5381 52.0464 46.6431 51.8772 46.7987 51.765L51.7561 48.215L48.6266 44.8514C48.4995 44.7151 48.4317 44.534 48.4377 44.3478C48.4396 44.2532 48.4604 44.1599 48.4989 44.0734C48.5374 43.987 48.5928 43.909 48.6618 43.8443C48.7972 43.715 48.9782 43.6444 49.1653 43.6479C49.2604 43.6493 49.3542 43.6699 49.4412 43.7084C49.5281 43.7469 49.6064 43.8025 49.6714 43.872V43.872Z" fill="white"/>
<circle cx="63.971" cy="33.8912" r="2.08768" fill="#51E7FF"/>
<defs>
<filter id="filter0_d_1111_3104" x="22.6611" y="18.6199" width="55.6899" height="68.9302" filterUnits="userSpaceOnUse" color-interpolation-filters="sRGB">
<feFlood flood-opacity="0" result="BackgroundImageFix"/>
<feColorMatrix in="SourceAlpha" type="matrix" values="0 0 0 0 0 0 0 0 0 0 0 0 0 0 0 0 0 0 127 0" result="hardAlpha"/>
<feOffset dy="2"/>
<feGaussianBlur stdDeviation="2"/>
<feComposite in2="hardAlpha" operator="out"/>
<feColorMatrix type="matrix" values="0 0 0 0 0 0 0 0 0 0 0 0 0 0 0 0 0 0 0.25 0"/>
<feBlend mode="normal" in2="BackgroundImageFix" result="effect1_dropShadow_1111_3104"/>
<feBlend mode="normal" in="SourceGraphic" in2="effect1_dropShadow_1111_3104" result="shape"/>
</filter>
<filter id="filter1_d_1111_3104" x="27.4014" y="20.3299" width="46.21" height="61.21" filterUnits="userSpaceOnUse" color-interpolation-filters="sRGB">
<feFlood flood-opacity="0" result="BackgroundImageFix"/>
<feColorMatrix in="SourceAlpha" type="matrix" values="0 0 0 0 0 0 0 0 0 0 0 0 0 0 0 0 0 0 127 0" result="hardAlpha"/>
<feOffset dy="2"/>
<feGaussianBlur stdDeviation="2"/>
<feComposite in2="hardAlpha" operator="out"/>
<feColorMatrix type="matrix" values="0 0 0 0 0 0 0 0 0 0 0 0 0 0 0 0 0 0 0.25 0"/>
<feBlend mode="normal" in2="BackgroundImageFix" result="effect1_dropShadow_1111_3104"/>
<feBlend mode="normal" in="SourceGraphic" in2="effect1_dropShadow_1111_3104" result="shape"/>
</filter>
<linearGradient id="paint0_linear_1111_3104" x1="49.4213" y1="-13.7892" x2="53.4033" y2="131.981" gradientUnits="userSpaceOnUse">
<stop stop-color="#00ABDE"/>
<stop offset="1" stop-color="#007ED8"/>
</linearGradient>
<linearGradient id="paint1_linear_1111_3104" x1="2.62563" y1="-20.6223" x2="98.1532" y2="120.259" gradientUnits="userSpaceOnUse">
<stop stop-color="#007ED8"/>
<stop offset="0.7065" stop-color="#002D4C"/>
</linearGradient>
<linearGradient id="paint2_linear_1111_3104" x1="79.0098" y1="36.1515" x2="87.2457" y2="50.0532" gradientUnits="userSpaceOnUse">
<stop offset="0.474" stop-color="#50E6FF"/>
<stop offset="1" stop-color="#0078D4"/>
</linearGradient>
<linearGradient id="paint3_linear_1111_3104" x1="60.9677" y1="54.2907" x2="69.0919" y2="68.0634" gradientUnits="userSpaceOnUse">
<stop offset="0.474" stop-color="#50E6FF"/>
<stop offset="1" stop-color="#0078D4"/>
</linearGradient>
<linearGradient id="paint4_linear_1111_3104" x1="49.2702" y1="21.3702" x2="50.3469" y2="54.2942" gradientUnits="userSpaceOnUse">
<stop offset="0.474" stop-color="#50E6FF"/>
<stop offset="1" stop-color="#0078D4"/>
</linearGradient>
<linearGradient id="paint5_linear_1111_3104" x1="29.132" y1="40.7433" x2="72.851" y2="77.7577" gradientUnits="userSpaceOnUse">
<stop stop-color="#007ED8"/>
<stop offset="0.7065" stop-color="#002D4C"/>
</linearGradient>
</defs>
</svg>
