<svg width="102" height="103" viewBox="0 0 102 103" fill="none" xmlns="http://www.w3.org/2000/svg">
<g clip-path="url(#clip0_2430_322)">
<path d="M50.9999 98.231C25.4034 98.231 4.64886 77.4864 4.64886 51.8799C4.64886 26.2734 25.4034 5.52881 50.9999 5.52881C76.5965 5.52881 97.351 26.2833 97.351 51.8799C97.351 77.4765 76.5965 98.231 50.9999 98.231Z" fill="url(#paint0_linear_2430_322)"/>
<path fill-rule="evenodd" clip-rule="evenodd" d="M96.4501 51.8801C96.4501 76.9816 76.1016 97.3301 51.0001 97.3301C25.8987 97.3301 5.55013 76.9816 5.55013 51.8801C5.55013 26.7787 25.8987 6.43015 51.0001 6.43015C76.1016 6.43015 96.4501 26.7787 96.4501 51.8801ZM51.0001 2.72681C78.1513 2.72681 100.153 24.729 100.153 51.8801C100.153 79.0313 78.1414 101.033 51.0001 101.033C23.849 101.033 1.8468 79.0214 1.8468 51.8801C1.8468 24.729 23.849 2.72681 51.0001 2.72681Z" fill="#F2F1F0"/>
<path d="M93.5175 51.8799C93.5175 75.3637 74.4837 94.3975 50.9999 94.3975C27.5161 94.3975 8.48236 75.3637 8.48236 51.8799C8.48236 28.3961 27.5161 9.36237 50.9999 9.36237C74.4837 9.36237 93.5175 28.3961 93.5175 51.8799ZM97.5208 51.8799C97.5208 26.1906 76.6892 5.35903 50.9999 5.35903C25.3007 5.35903 4.47903 26.1906 4.47903 51.8799C4.47903 77.5692 25.3106 98.4008 50.9999 98.4008C76.6892 98.4008 97.5208 77.5692 97.5208 51.8799Z" fill="url(#paint1_linear_2430_322)" stroke="black" stroke-width="0.3" stroke-linejoin="round"/>
<g filter="url(#filter0_ddddd_2430_322)">
<path d="M22.5762 26.8516C22.5762 25.747 23.4716 24.8516 24.5762 24.8516H78.0054C79.1099 24.8516 80.0054 25.747 80.0054 26.8516V77.6074C80.0054 78.712 79.1099 79.6074 78.0054 79.6074H24.5762C23.4716 79.6074 22.5762 78.712 22.5762 77.6074V26.8516Z" fill="#282828"/>
</g>
<path d="M66.2111 34.6445H42.2211C42.1239 34.6445 42.0277 34.6637 41.9379 34.7009C41.848 34.7381 41.7662 34.7927 41.6975 34.8614C41.6287 34.9302 41.5744 35.0118 41.5372 35.1016C41.5 35.1915 41.4808 35.2877 41.4808 35.385C41.4808 35.4822 41.5 35.5785 41.5372 35.6683C41.5744 35.7582 41.6287 35.8398 41.6975 35.9085C41.7662 35.9773 41.848 36.0318 41.9379 36.069C42.0277 36.1063 42.1239 36.1254 42.2211 36.1254H66.2111C66.4075 36.1254 66.5959 36.0474 66.7348 35.9085C66.8736 35.7697 66.9517 35.5814 66.9517 35.385C66.9517 35.1886 66.8736 35.0003 66.7348 34.8614C66.5959 34.7226 66.4075 34.6445 66.2111 34.6445V34.6445Z" fill="#E9FCFE"/>
<path d="M42.8411 37.7117H42.2211C42.1239 37.7117 42.0277 37.7308 41.9379 37.768C41.848 37.8053 41.7662 37.8598 41.6975 37.9286C41.6287 37.9973 41.5744 38.0789 41.5372 38.1688C41.5 38.2586 41.4808 38.3549 41.4808 38.4521C41.4808 38.5493 41.5 38.6456 41.5372 38.7355C41.5744 38.8253 41.6287 38.9069 41.6975 38.9757C41.7662 39.0444 41.848 39.099 41.9379 39.1362C42.0277 39.1734 42.1239 39.1926 42.2211 39.1926H42.8411C43.0375 39.1926 43.2259 39.1145 43.3648 38.9757C43.5036 38.8368 43.5817 38.6485 43.5817 38.4521C43.5817 38.2557 43.5036 38.0674 43.3648 37.9286C43.2259 37.7897 43.0375 37.7117 42.8411 37.7117Z" fill="#A3A3A3"/>
<path d="M45.4874 37.7117H44.8674C44.7702 37.7117 44.674 37.7308 44.5842 37.768C44.4944 37.8053 44.4125 37.8598 44.3438 37.9286C44.275 37.9973 44.2207 38.0789 44.1835 38.1688C44.1463 38.2586 44.1271 38.3549 44.1271 38.4521C44.1271 38.5493 44.1463 38.6456 44.1835 38.7355C44.2207 38.8253 44.275 38.9069 44.3438 38.9757C44.4125 39.0444 44.4944 39.099 44.5842 39.1362C44.674 39.1734 44.7702 39.1926 44.8674 39.1926H45.4874C45.6838 39.1926 45.8722 39.1145 46.0111 38.9757C46.1499 38.8368 46.228 38.6485 46.228 38.4521C46.228 38.2557 46.1499 38.0674 46.0111 37.9286C45.8722 37.7897 45.6838 37.7117 45.4874 37.7117Z" fill="#A3A3A3"/>
<path d="M66.2366 37.7117H47.6397C47.5424 37.7117 47.4463 37.7308 47.3565 37.768C47.2666 37.8053 47.1848 37.8598 47.116 37.9286C47.0473 37.9973 46.993 38.0789 46.9558 38.1688C46.9185 38.2586 46.8994 38.3549 46.8994 38.4521C46.8994 38.5493 46.9185 38.6456 46.9558 38.7355C46.993 38.8253 47.0473 38.9069 47.116 38.9757C47.1848 39.0444 47.2666 39.099 47.3565 39.1362C47.4463 39.1734 47.5424 39.1926 47.6397 39.1926H66.2366C66.433 39.1926 66.6214 39.1145 66.7603 38.9757C66.8991 38.8368 66.9772 38.6485 66.9772 38.4521C66.9772 38.2557 66.8991 38.0674 66.7603 37.9286C66.6214 37.7897 66.433 37.7117 66.2366 37.7117Z" fill="#A3A3A3"/>
<path d="M42.8411 54.6328H42.2211C42.1239 54.6328 42.0277 54.652 41.9379 54.6892C41.848 54.7264 41.7662 54.7809 41.6975 54.8497C41.6287 54.9185 41.5744 55.0001 41.5372 55.0899C41.5 55.1797 41.4808 55.276 41.4808 55.3733C41.4808 55.4705 41.5 55.5668 41.5372 55.6566C41.5744 55.7464 41.6287 55.8281 41.6975 55.8968C41.7662 55.9656 41.848 56.0201 41.9379 56.0573C42.0277 56.0945 42.1239 56.1137 42.2211 56.1137H42.8411C43.0375 56.1137 43.2259 56.0357 43.3648 55.8968C43.5036 55.758 43.5817 55.5696 43.5817 55.3733C43.5817 55.1769 43.5036 54.9886 43.3648 54.8497C43.2259 54.7108 43.0375 54.6328 42.8411 54.6328Z" fill="#A3A3A3"/>
<path d="M45.4874 54.6328H44.8674C44.7702 54.6328 44.674 54.652 44.5842 54.6892C44.4944 54.7264 44.4125 54.7809 44.3438 54.8497C44.275 54.9185 44.2207 55.0001 44.1835 55.0899C44.1463 55.1797 44.1271 55.276 44.1271 55.3733C44.1271 55.4705 44.1463 55.5668 44.1835 55.6566C44.2207 55.7464 44.275 55.8281 44.3438 55.8968C44.4125 55.9656 44.4944 56.0201 44.5842 56.0573C44.674 56.0945 44.7702 56.1137 44.8674 56.1137H45.4874C45.6838 56.1137 45.8722 56.0357 46.0111 55.8968C46.1499 55.758 46.228 55.5696 46.228 55.3733C46.228 55.1769 46.1499 54.9886 46.0111 54.8497C45.8722 54.7108 45.6838 54.6328 45.4874 54.6328Z" fill="#A3A3A3"/>
<path d="M66.2366 54.6328H47.6397C47.5424 54.6328 47.4463 54.652 47.3565 54.6892C47.2666 54.7264 47.1848 54.7809 47.116 54.8497C47.0473 54.9185 46.993 55.0001 46.9558 55.0899C46.9185 55.1797 46.8994 55.276 46.8994 55.3733C46.8994 55.4705 46.9185 55.5668 46.9558 55.6566C46.993 55.7464 47.0473 55.8281 47.116 55.8968C47.1848 55.9656 47.2666 56.0201 47.3565 56.0573C47.4463 56.0945 47.5424 56.1137 47.6397 56.1137H66.2366C66.433 56.1137 66.6214 56.0357 66.7603 55.8968C66.8991 55.758 66.9772 55.5696 66.9772 55.3733C66.9772 55.1769 66.8991 54.9886 66.7603 54.8497C66.6214 54.7108 66.433 54.6328 66.2366 54.6328Z" fill="#A3A3A3"/>
<path d="M59.851 40.5801H49.0455C48.8491 40.5801 48.6607 40.6581 48.5219 40.797C48.383 40.9358 48.3049 41.1241 48.3049 41.3205C48.3049 41.5169 48.383 41.7052 48.5219 41.8441C48.6607 41.9829 48.8491 42.061 49.0455 42.061H59.8386C59.9363 42.0626 60.0334 42.0446 60.124 42.008C60.2145 41.9714 60.2971 41.9169 60.3662 41.8478C60.4353 41.7787 60.4896 41.6964 60.5262 41.6058C60.5628 41.5152 60.5809 41.4182 60.5792 41.3205C60.5792 41.1263 60.503 40.9398 60.3668 40.8013C60.2306 40.6627 60.0452 40.5833 59.851 40.5801Z" fill="#ACF3FD"/>
<path d="M46.4171 40.5801H42.2211C42.1239 40.5801 42.0277 40.5992 41.9379 40.6365C41.848 40.6737 41.7662 40.7282 41.6975 40.797C41.6287 40.8657 41.5744 40.9473 41.5372 41.0372C41.5 41.127 41.4808 41.2233 41.4808 41.3205C41.4808 41.4178 41.5 41.514 41.5372 41.6039C41.5744 41.6937 41.6287 41.7753 41.6975 41.8441C41.7662 41.9128 41.848 41.9674 41.9379 42.0046C42.0277 42.0418 42.1239 42.061 42.2211 42.061H46.4171C46.5148 42.0626 46.6118 42.0446 46.7024 42.008C46.793 41.9714 46.8752 41.9169 46.9443 41.8478C47.0134 41.7787 47.0677 41.6964 47.1043 41.6058C47.1409 41.5152 47.159 41.4182 47.1573 41.3205C47.1573 41.1241 47.0793 40.9358 46.9404 40.797C46.8015 40.6581 46.6135 40.5801 46.4171 40.5801V40.5801Z" fill="#ACF3FD"/>
<path d="M57.9059 43.5952H42.2211C42.1239 43.5952 42.0277 43.6144 41.9379 43.6516C41.848 43.6888 41.7662 43.7433 41.6975 43.8121C41.6287 43.8809 41.5744 43.9625 41.5372 44.0523C41.5 44.1421 41.4808 44.2384 41.4808 44.3357C41.4808 44.4329 41.5 44.5292 41.5372 44.619C41.5744 44.7089 41.6287 44.7905 41.6975 44.8592C41.7662 44.928 41.848 44.9825 41.9379 45.0197C42.0277 45.0569 42.1239 45.0761 42.2211 45.0761H57.9059C58.0036 45.0778 58.1007 45.0597 58.1913 45.0231C58.2818 44.9865 58.3641 44.932 58.4332 44.8629C58.5023 44.7939 58.5569 44.7116 58.5935 44.621C58.6301 44.5304 58.6482 44.4334 58.6465 44.3357C58.6465 44.1393 58.5684 43.951 58.4296 43.8121C58.2907 43.6732 58.1023 43.5952 57.9059 43.5952V43.5952Z" fill="#84ECFD"/>
<path d="M66.5073 57.3992H42.2211C42.0247 57.3992 41.8363 57.4772 41.6975 57.616C41.5586 57.7549 41.4808 57.9432 41.4808 58.1396C41.4808 58.336 41.5586 58.5243 41.6975 58.6632C41.8363 58.802 42.0247 58.88 42.2211 58.88H66.5073C66.7037 58.88 66.8921 58.802 67.0309 58.6632C67.1698 58.5243 67.2479 58.336 67.2479 58.1396C67.2479 57.9432 67.1698 57.7549 67.0309 57.616C66.8921 57.4772 66.7037 57.3992 66.5073 57.3992V57.3992Z" fill="#45CAF2"/>
<path d="M61.6654 60.3926H42.2705C42.1733 60.3926 42.0769 60.4117 41.987 60.449C41.8972 60.4862 41.8156 60.5407 41.7469 60.6095C41.6781 60.6782 41.6235 60.7598 41.5863 60.8497C41.5491 60.9395 41.53 61.0358 41.53 61.133C41.53 61.2303 41.5491 61.3265 41.5863 61.4164C41.6235 61.5062 41.6781 61.5878 41.7469 61.6566C41.8156 61.7253 41.8972 61.7799 41.987 61.8171C42.0769 61.8543 42.1733 61.8735 42.2705 61.8735H61.6654C61.8618 61.8735 62.0502 61.7954 62.1891 61.6566C62.3279 61.5177 62.406 61.3294 62.406 61.133C62.406 60.9366 62.3279 60.7483 62.1891 60.6095C62.0502 60.4706 61.8618 60.3926 61.6654 60.3926Z" fill="#32B0E7"/>
<path d="M54.678 63.2651H42.2212C42.0248 63.2651 41.8364 63.3431 41.6976 63.482C41.5587 63.6208 41.4809 63.8092 41.4809 64.0055C41.4793 64.1032 41.497 64.2003 41.5337 64.2909C41.5703 64.3814 41.6249 64.4638 41.694 64.5329C41.763 64.602 41.8453 64.6564 41.9359 64.693C42.0265 64.7297 42.1235 64.7477 42.2212 64.746H54.678C54.7757 64.7477 54.8727 64.7297 54.9633 64.693C55.0539 64.6564 55.1361 64.602 55.2052 64.5329C55.2743 64.4638 55.3289 64.3814 55.3655 64.2909C55.4021 64.2003 55.4202 64.1032 55.4185 64.0055C55.4185 63.8092 55.3405 63.6208 55.2016 63.482C55.0627 63.3431 54.8744 63.2651 54.678 63.2651Z" fill="#0078D4"/>
<path d="M46.4171 57.3943H42.2211C42.1239 57.3943 42.0277 57.4135 41.9379 57.4507C41.848 57.4879 41.7662 57.5424 41.6975 57.6112C41.6287 57.6799 41.5744 57.7615 41.5372 57.8514C41.5 57.9412 41.4808 58.0375 41.4808 58.1347C41.4808 58.232 41.5 58.3283 41.5372 58.4181C41.5744 58.5079 41.6287 58.5895 41.6975 58.6583C41.7662 58.727 41.848 58.7816 41.9379 58.8188C42.0277 58.856 42.1239 58.8752 42.2211 58.8752H46.4171C46.5148 58.8768 46.6118 58.8588 46.7024 58.8222C46.793 58.7856 46.8752 58.7311 46.9443 58.662C47.0134 58.5929 47.0677 58.5106 47.1043 58.42C47.1409 58.3295 47.159 58.2324 47.1573 58.1347C47.1573 57.9384 47.0793 57.75 46.9404 57.6112C46.8015 57.4723 46.6135 57.3943 46.4171 57.3943V57.3943Z" fill="#ACF3FD"/>
<path d="M54.5067 60.3926H50.3107C50.2135 60.3926 50.1173 60.4117 50.0275 60.449C49.9376 60.4862 49.8558 60.5407 49.7871 60.6095C49.7183 60.6782 49.664 60.7598 49.6268 60.8497C49.5896 60.9395 49.5704 61.0358 49.5704 61.133C49.5704 61.2303 49.5896 61.3265 49.6268 61.4164C49.664 61.5062 49.7183 61.5878 49.7871 61.6566C49.8558 61.7253 49.9376 61.7799 50.0275 61.8171C50.1173 61.8543 50.2135 61.8735 50.3107 61.8735H54.5067C54.6044 61.8751 54.7014 61.8571 54.792 61.8205C54.8826 61.7839 54.9648 61.7294 55.0339 61.6603C55.103 61.5912 55.1573 61.5089 55.1939 61.4183C55.2305 61.3277 55.2486 61.2307 55.2469 61.133C55.2469 60.9366 55.1689 60.7483 55.03 60.6095C54.8911 60.4706 54.7031 60.3926 54.5067 60.3926V60.3926Z" fill="#ACF3FD"/>
<path d="M64.9257 43.5952H60.7298C60.6325 43.5952 60.5364 43.6144 60.4466 43.6516C60.3567 43.6888 60.2749 43.7433 60.2061 43.8121C60.1374 43.8809 60.0831 43.9625 60.0458 44.0523C60.0086 44.1421 59.9895 44.2384 59.9895 44.3357C59.9895 44.4329 60.0086 44.5292 60.0458 44.619C60.0831 44.7089 60.1374 44.7905 60.2061 44.8592C60.2749 44.928 60.3567 44.9825 60.4466 45.0197C60.5364 45.0569 60.6325 45.0761 60.7298 45.0761H64.9257C65.0234 45.0778 65.1205 45.0597 65.2111 45.0231C65.3016 44.9865 65.3839 44.932 65.453 44.8629C65.5221 44.7939 65.5764 44.7116 65.613 44.621C65.6496 44.5304 65.6677 44.4334 65.666 44.3357C65.666 44.1393 65.5879 43.951 65.4491 43.8121C65.3102 43.6732 65.1221 43.5952 64.9257 43.5952V43.5952Z" fill="#ACF3FD"/>
<path d="M42.8217 46.2668H42.2211C42.1239 46.2668 42.0277 46.286 41.9379 46.3232C41.848 46.3604 41.7662 46.415 41.6975 46.4837C41.6287 46.5525 41.5744 46.6341 41.5372 46.7239C41.5 46.8138 41.4808 46.9101 41.4808 47.0073C41.4808 47.1045 41.5 47.2008 41.5372 47.2906C41.5744 47.3805 41.6287 47.4621 41.6975 47.5308C41.7662 47.5996 41.848 47.6541 41.9379 47.6914C42.0277 47.7286 42.1239 47.7477 42.2211 47.7477H42.8217C42.9194 47.7494 43.0164 47.7314 43.107 47.6947C43.1976 47.6581 43.2798 47.6037 43.3489 47.5346C43.418 47.4655 43.4723 47.3832 43.5089 47.2926C43.5455 47.202 43.5636 47.105 43.5619 47.0073C43.5619 46.8109 43.4839 46.6226 43.345 46.4837C43.2062 46.3449 43.0181 46.2668 42.8217 46.2668Z" fill="#84ECFD"/>
<path d="M42.8217 66.1313H42.2211C42.1239 66.1313 42.0277 66.1505 41.9379 66.1877C41.848 66.2249 41.7662 66.2795 41.6975 66.3482C41.6287 66.417 41.5744 66.4986 41.5372 66.5884C41.5 66.6783 41.4808 66.7746 41.4808 66.8718C41.4808 66.969 41.5 67.0653 41.5372 67.1551C41.5744 67.245 41.6287 67.3266 41.6975 67.3953C41.7662 67.4641 41.848 67.5186 41.9379 67.5559C42.0277 67.5931 42.1239 67.6122 42.2211 67.6122H42.8217C42.9194 67.6139 43.0164 67.5959 43.107 67.5592C43.1976 67.5226 43.2798 67.4682 43.3489 67.3991C43.418 67.33 43.4723 67.2477 43.5089 67.1571C43.5455 67.0665 43.5636 66.9695 43.5619 66.8718C43.5619 66.6754 43.4839 66.4871 43.345 66.3482C43.2062 66.2094 43.0181 66.1313 42.8217 66.1313Z" fill="#0078D4"/>
<circle cx="38.4977" cy="35.3845" r="0.74" fill="#E9FCFE"/>
<circle cx="38.4977" cy="38.4517" r="0.74" fill="#A3A3A3"/>
<circle cx="38.4977" cy="41.3201" r="0.74" fill="#ACF3FD"/>
<circle cx="38.4977" cy="44.3352" r="0.74" fill="#84ECFD"/>
<circle cx="38.4977" cy="47.0068" r="0.74" fill="#84ECFD"/>
<circle cx="38.4977" cy="55.364" r="0.74" fill="#A3A3A3"/>
<circle cx="38.4977" cy="58.1343" r="0.74" fill="#45CAF2"/>
<circle cx="38.4977" cy="61.1326" r="0.74" fill="#32B0E7"/>
<circle cx="38.4977" cy="66.8713" r="0.74" fill="#0078D4"/>
<circle cx="38.4977" cy="64.0051" r="0.74" fill="#0078D4"/>
<path d="M69.8012 34.2705C69.6631 34.2705 69.5512 34.3824 69.5512 34.5205C69.5512 34.6586 69.6631 34.7705 69.8012 34.7705V34.2705ZM33.1816 37.098V47.7651H33.6816V37.098H33.1816ZM35.4316 50.0151H71.1762V49.5151H35.4316V50.0151ZM73.4262 47.7651V36.5205H72.9262V47.7651H73.4262ZM71.1762 34.2705H69.8012V34.7705H71.1762V34.2705ZM35.4316 35.348H35.9078V34.848H35.4316V35.348ZM73.4262 36.5205C73.4262 35.2779 72.4189 34.2705 71.1762 34.2705V34.7705C72.1427 34.7705 72.9262 35.554 72.9262 36.5205H73.4262ZM71.1762 50.0151C72.4189 50.0151 73.4262 49.0077 73.4262 47.7651H72.9262C72.9262 48.7316 72.1427 49.5151 71.1762 49.5151V50.0151ZM33.1816 47.7651C33.1816 49.0077 34.189 50.0151 35.4316 50.0151V49.5151C34.4651 49.5151 33.6816 48.7316 33.6816 47.7651H33.1816ZM33.6816 37.098C33.6816 36.1315 34.4651 35.348 35.4316 35.348V34.848C34.189 34.848 33.1816 35.8554 33.1816 37.098H33.6816Z" fill="white"/>
<path d="M71.2568 33.8136C71.2568 33.4286 70.84 33.1881 70.5067 33.3806L69.2422 34.1111C68.9089 34.3037 68.9091 34.7849 69.2426 34.9772L70.507 35.7063C70.8403 35.8985 71.2568 35.6579 71.2568 35.2731V33.8136Z" fill="white"/>
<path d="M30.4413 38.4741L34.386 45.1865C34.386 45.1865 26.8272 45.1587 26.8952 45.0629C26.96 44.9672 30.4413 38.4741 30.4413 38.4741Z" fill="white"/>
<path d="M35.1489 45.0351L30.9787 38.1899C30.7996 37.8965 30.3702 37.8965 30.1941 38.193L26.1105 45.0382C25.9282 45.344 26.1475 45.7301 26.5028 45.7301H34.7566C35.1149 45.7301 35.3342 45.3409 35.1489 45.0351ZM27.448 44.7139L30.6111 39.2556L33.8206 44.7139H27.448V44.7139Z" fill="#E81E25"/>
<path d="M30.6331 44.3461C30.5312 44.3461 30.4447 44.3121 30.3736 44.2473C30.3026 44.1824 30.2655 44.1021 30.2655 44.0094C30.2655 43.9137 30.3026 43.8303 30.3736 43.7623C30.4447 43.6943 30.5312 43.6604 30.6331 43.6604C30.7319 43.6604 30.8153 43.6943 30.8895 43.7623C30.9605 43.8303 30.9976 43.9137 30.9976 44.0094C30.9976 44.1021 30.9605 44.1824 30.8895 44.2473C30.8153 44.3152 30.7319 44.3461 30.6331 44.3461ZM30.9142 40.6455L30.8679 43.2217H30.3829L30.318 40.6455H30.9142Z" fill="black"/>
</g>
<defs>
<filter id="filter0_ddddd_2430_322" x="4.57617" y="21.8516" width="93.4292" height="121.756" filterUnits="userSpaceOnUse" color-interpolation-filters="sRGB">
<feFlood flood-opacity="0" result="BackgroundImageFix"/>
<feColorMatrix in="SourceAlpha" type="matrix" values="0 0 0 0 0 0 0 0 0 0 0 0 0 0 0 0 0 0 127 0" result="hardAlpha"/>
<feOffset/>
<feColorMatrix type="matrix" values="0 0 0 0 0 0 0 0 0 0 0 0 0 0 0 0 0 0 0.1 0"/>
<feBlend mode="normal" in2="BackgroundImageFix" result="effect1_dropShadow_2430_322"/>
<feColorMatrix in="SourceAlpha" type="matrix" values="0 0 0 0 0 0 0 0 0 0 0 0 0 0 0 0 0 0 127 0" result="hardAlpha"/>
<feOffset dy="3"/>
<feGaussianBlur stdDeviation="3"/>
<feColorMatrix type="matrix" values="0 0 0 0 0 0 0 0 0 0 0 0 0 0 0 0 0 0 0.1 0"/>
<feBlend mode="normal" in2="effect1_dropShadow_2430_322" result="effect2_dropShadow_2430_322"/>
<feColorMatrix in="SourceAlpha" type="matrix" values="0 0 0 0 0 0 0 0 0 0 0 0 0 0 0 0 0 0 127 0" result="hardAlpha"/>
<feOffset dy="11"/>
<feGaussianBlur stdDeviation="5.5"/>
<feColorMatrix type="matrix" values="0 0 0 0 0 0 0 0 0 0 0 0 0 0 0 0 0 0 0.09 0"/>
<feBlend mode="normal" in2="effect2_dropShadow_2430_322" result="effect3_dropShadow_2430_322"/>
<feColorMatrix in="SourceAlpha" type="matrix" values="0 0 0 0 0 0 0 0 0 0 0 0 0 0 0 0 0 0 127 0" result="hardAlpha"/>
<feOffset dy="26"/>
<feGaussianBlur stdDeviation="7.5"/>
<feColorMatrix type="matrix" values="0 0 0 0 0 0 0 0 0 0 0 0 0 0 0 0 0 0 0.05 0"/>
<feBlend mode="normal" in2="effect3_dropShadow_2430_322" result="effect4_dropShadow_2430_322"/>
<feColorMatrix in="SourceAlpha" type="matrix" values="0 0 0 0 0 0 0 0 0 0 0 0 0 0 0 0 0 0 127 0" result="hardAlpha"/>
<feOffset dy="46"/>
<feGaussianBlur stdDeviation="9"/>
<feColorMatrix type="matrix" values="0 0 0 0 0 0 0 0 0 0 0 0 0 0 0 0 0 0 0.01 0"/>
<feBlend mode="normal" in2="effect4_dropShadow_2430_322" result="effect5_dropShadow_2430_322"/>
<feBlend mode="normal" in="SourceGraphic" in2="effect5_dropShadow_2430_322" result="shape"/>
</filter>
<linearGradient id="paint0_linear_2430_322" x1="55.2654" y1="1.77639" x2="58.9908" y2="110.808" gradientUnits="userSpaceOnUse">
<stop offset="0.318529" stop-color="#EFF7FF"/>
<stop offset="1" stop-color="#C7D8EB"/>
</linearGradient>
<linearGradient id="paint1_linear_2430_322" x1="25.6689" y1="10.4636" x2="49.776" y2="139.022" gradientUnits="userSpaceOnUse">
<stop offset="0.0511799" stop-color="#50E6FF"/>
<stop offset="0.49" stop-color="#007ED8"/>
<stop offset="1" stop-color="#002D4C"/>
</linearGradient>
<clipPath id="clip0_2430_322">
<rect width="102" height="102" fill="white" transform="translate(0 0.879883)"/>
</clipPath>
</defs>
</svg>
