<svg width="160" height="188" viewBox="0 0 160 188" fill="none" xmlns="http://www.w3.org/2000/svg">
<g clip-path="url(#clip0)">
<path d="M79.6779 188C82.7592 187.994 85.7796 187.141 88.4083 185.534L150.384 147.874C153.165 146.11 155.449 143.665 157.019 140.771C158.589 137.876 159.394 134.628 159.356 131.336V56.6207C159.392 53.3283 158.587 50.0812 157.017 47.1871C155.447 44.2929 153.163 41.8476 150.384 40.0829L88.4083 2.4228C85.7749 0.837605 82.7592 0 79.6855 0C76.6118 0 73.5961 0.837605 70.9627 2.4228L8.9876 40.098C6.2045 41.8604 3.91796 44.3048 2.34499 47.1991C0.772021 50.0935 -0.0351786 53.3418 4.1431e-06 56.6358V131.336C-0.0185283 134.119 0.556189 136.874 1.68588 139.418C2.81557 141.962 4.4743 144.236 6.5516 146.089V146.115L70.9627 185.549C73.5884 187.149 76.6032 187.996 79.6779 188V188ZM80.3257 6.95218C82.2776 6.95218 84.7548 8.1651 86.4646 9.20912L147.222 46.4034C150.974 48.6881 153.09 55.2842 153.09 60.0352L152.458 131.336C152.458 136.087 149.259 140.355 145.506 142.64L85.1104 179.021C81.6758 181.109 78.8854 181.109 75.4507 179.021L14.2427 142.549C10.4903 140.265 7.47191 136.072 7.47191 131.336V57.688C7.50442 55.3228 8.11341 53.0013 9.24608 50.9247C10.3787 48.8482 12.0009 47.0792 13.9718 45.7714L74.548 9.20912C76.2577 8.1651 78.3739 6.95218 80.3257 6.95218Z" fill="#F2F1F0"/>
<path fill-rule="evenodd" clip-rule="evenodd" d="M87.5765 10.5337C85.2056 9.0602 82.4697 8.2793 79.6783 8.2793C76.8868 8.2793 74.1509 9.0602 71.7801 10.5337L15.6454 44.8651C13.1193 46.4768 11.047 48.7072 9.625 51.3446C8.203 53.9821 7.47851 56.9392 7.52026 59.9352V128.038C7.48034 131.034 8.20562 133.991 9.62745 136.628C11.0493 139.265 13.1206 141.495 15.6454 143.108L71.7801 177.439C74.1508 178.913 76.8867 179.694 79.6783 179.694C82.4698 179.694 85.2057 178.913 87.5765 177.439L143.711 143.108C146.236 141.496 148.307 139.265 149.729 136.628C151.151 133.991 151.877 131.034 151.837 128.038V59.9352C151.875 56.9397 151.149 53.9839 149.727 51.347C148.305 48.7101 146.234 46.4793 143.711 44.8651L87.5765 10.5337Z" fill="url(#paint0_linear)"/>
<path fill-rule="evenodd" clip-rule="evenodd" d="M79.6783 9.7539C81.3615 9.7539 83.2442 10.6196 85.311 11.8777L143.777 47.4201C145.668 48.6335 147.218 50.3104 148.278 52.2914C149.339 54.2725 149.875 56.4918 149.837 58.7386V129.217C149.875 131.464 149.339 133.683 148.278 135.664C147.218 137.645 145.668 139.322 143.777 140.535L85.312 176.077L85.311 176.078C83.6408 177.217 81.6958 177.888 79.6783 178.021C77.6609 177.888 75.7158 177.217 74.0456 176.078L74.0446 176.077L15.5823 140.537L15.5801 140.536C13.7918 139.572 12.2668 138.185 11.1383 136.496C10.1614 134.893 9.52031 132.678 9.52031 129.217V58.7386C9.48157 56.4919 10.018 54.2726 11.0785 52.2916C12.139 50.3106 13.6885 48.6336 15.5797 47.4202L74.0365 11.8831L74.0406 11.8807C76.1244 10.6277 77.9846 9.7539 79.6783 9.7539ZM87.3908 8.4609L145.855 44.0021C148.333 45.5722 150.368 47.751 151.765 50.3307C153.162 52.9104 153.876 55.8051 153.837 58.7386V129.217C153.876 132.151 153.162 135.045 151.765 137.625C150.368 140.205 148.333 142.384 145.855 143.954L87.3898 179.495C85.0956 181.02 82.4302 181.893 79.6783 182.021C76.9264 181.893 74.261 181.02 71.9667 179.495H71.9658L13.502 143.953L13.4995 143.952C11.1642 142.659 9.18097 140.814 7.72281 138.578C6.12823 135.725 5.36521 132.482 5.52031 129.217V58.7386C5.48125 55.805 6.19436 52.9103 7.59165 50.3305C8.98894 47.7508 11.0238 45.572 13.5022 44.002L71.9667 8.46025L71.9749 8.45537C74.0655 7.19796 76.7734 5.75391 79.6783 5.75391C82.5645 5.75391 85.2816 7.17699 87.3908 8.46085V8.4609Z" fill="#0078D4"/>
<path opacity="0.2" d="M139.96 132.028L80.41 166.634L20.464 132.025L80.014 97.418L139.96 132.028Z" fill="#003067"/>
<path d="M140.601 120.648L79.878 155.936L18.767 120.653L79.489 85.3652L140.601 120.648Z" fill="#1B93EB"/>
<path d="M140.601 120.648L140.589 124.754L79.8669 160.042L79.8779 155.936L140.601 120.648Z" fill="#1F56A3"/>
<path d="M79.878 155.935L79.867 160.041L18.755 124.758L18.767 120.652L79.878 155.935Z" fill="#0078D4"/>
<path d="M68.434 109.823L89.624 122.137L110.953 109.823L89.763 97.5078L68.434 109.823Z" fill="url(#paint1_linear)"/>
<path d="M68.434 96.4253L89.624 108.74L110.953 96.4263L89.763 84.1113L68.434 96.4253Z" fill="url(#paint2_linear)"/>
<path d="M68.434 83.0308L89.624 95.3458L110.953 83.0318L89.763 70.7168L68.434 83.0308Z" fill="url(#paint3_linear)"/>
<path d="M68.434 69.6343L89.624 81.9493L110.953 69.6343L89.763 57.3203L68.434 69.6343Z" fill="#0078D4"/>
<path d="M89.6239 122.137L89.6556 133.344L68.4654 121.03L68.4336 109.823L89.6239 122.137ZM68.4336 96.427L68.4654 107.633L89.6556 119.948L89.6239 108.741L68.4336 96.427ZM68.4336 83.0309L68.4654 94.2373L89.6556 106.552L89.6239 95.3453L68.4336 83.0309ZM68.4336 69.6348L68.4654 80.8412L89.6556 93.1557L89.6239 81.9492L68.4336 69.6348Z" fill="url(#paint4_linear)"/>
<path d="M110.953 109.823L110.985 121.029L89.6557 133.344L89.6239 122.137L110.953 109.823ZM89.6239 108.741L89.6557 119.948L110.985 107.633L110.953 96.4269L89.6239 108.741ZM89.6239 95.345L89.6557 106.551L110.985 94.2373L110.953 83.0308L89.6239 95.345ZM89.6239 81.9489L89.6557 93.1554L110.985 80.8412L110.953 69.6348L89.6239 81.9489Z" fill="url(#paint5_linear)"/>
<path d="M84.0477 95.7787C84.564 96.1144 84.9936 96.5674 85.3016 97.1007C85.6095 97.634 85.787 98.2326 85.8195 98.8475C85.8163 99.975 85.0173 100.43 84.0362 99.8638C83.5199 99.5281 83.0903 99.0751 82.7823 98.5418C82.4744 98.0085 82.297 97.41 82.2644 96.795C82.2676 95.6676 83.0666 95.2123 84.0477 95.7787Z" fill="#50E6FF"/>
<path d="M78.5818 92.7475C79.0981 93.0832 79.5277 93.5361 79.8356 94.0694C80.1435 94.6028 80.321 95.2013 80.3536 95.8163C80.3504 96.9437 79.5514 97.399 78.5702 96.8325C78.0539 96.4969 77.6243 96.0439 77.3164 95.5106C77.0085 94.9773 76.831 94.3787 76.7985 93.7637C76.8017 92.6363 77.6006 92.181 78.5818 92.7475Z" fill="#C3F1FF"/>
<path d="M73.3889 90.0951C73.9052 90.4308 74.3348 90.8838 74.6427 91.4171C74.9506 91.9504 75.1281 92.549 75.1607 93.1639C75.1575 94.2914 74.3585 94.7467 73.3773 94.1802C72.861 93.8445 72.4314 93.3915 72.1235 92.8582C71.8156 92.3249 71.6382 91.7263 71.6056 91.1114C71.6088 89.984 72.4078 89.5287 73.3889 90.0951Z" fill="#1F56A3"/>
<path d="M84.0477 82.7475C84.564 83.0832 84.9936 83.5361 85.3016 84.0694C85.6095 84.6028 85.787 85.2013 85.8195 85.8163C85.8163 86.9437 85.0173 87.399 84.0362 86.8325C83.5199 86.4969 83.0903 86.0439 82.7823 85.5106C82.4744 84.9772 82.297 84.3787 82.2644 83.7637C82.2676 82.6363 83.0666 82.181 84.0477 82.7475Z" fill="#C3F1FF"/>
<path d="M78.5818 79.7182C79.0981 80.0538 79.5277 80.5068 79.8356 81.0401C80.1435 81.5735 80.321 82.172 80.3536 82.787C80.3504 83.9144 79.5514 84.3697 78.5702 83.8032C78.0539 83.4675 77.6243 83.0146 77.3164 82.4813C77.0085 81.9479 76.831 81.3494 76.7985 80.7344C76.8017 79.6071 77.6006 79.1517 78.5818 79.7182Z" fill="#1F56A3"/>
<path d="M73.3889 77.0639C73.9052 77.3996 74.3348 77.8525 74.6427 78.3859C74.9506 78.9192 75.1281 79.5177 75.1607 80.1327C75.1575 81.2601 74.3585 81.7154 73.3773 81.149C72.861 80.8133 72.4314 80.3603 72.1235 79.827C71.8156 79.2937 71.6381 78.6951 71.6056 78.0802C71.6088 76.9527 72.4078 76.4974 73.3889 77.0639Z" fill="#50E6FF"/>
<path d="M84.0477 108.986C84.564 109.321 84.9936 109.774 85.3016 110.308C85.6095 110.841 85.787 111.44 85.8195 112.055C85.8163 113.182 85.0173 113.637 84.0362 113.071C83.5199 112.735 83.0903 112.282 82.7823 111.749C82.4744 111.216 82.297 110.617 82.2644 110.002C82.2676 108.875 83.0666 108.419 84.0477 108.986Z" fill="#1F56A3"/>
<path d="M78.5818 105.956C79.0981 106.292 79.5277 106.745 79.8356 107.278C80.1435 107.812 80.321 108.41 80.3536 109.025C80.3504 110.153 79.5514 110.608 78.5702 110.042C78.0539 109.706 77.6243 109.253 77.3164 108.72C77.0085 108.186 76.831 107.588 76.7985 106.973C76.8017 105.845 77.6006 105.39 78.5818 105.956Z" fill="#50E6FF"/>
<path d="M73.3889 103.302C73.9052 103.638 74.3348 104.091 74.6427 104.624C74.9506 105.157 75.1281 105.756 75.1607 106.371C75.1575 107.498 74.3585 107.954 73.3773 107.387C72.861 107.052 72.4314 106.599 72.1235 106.065C71.8156 105.532 71.6382 104.933 71.6056 104.318C71.6088 103.191 72.4078 102.736 73.3889 103.302Z" fill="#C3F1FF"/>
<path d="M84.0477 122.193C84.564 122.528 84.9936 122.981 85.3016 123.515C85.6095 124.048 85.787 124.647 85.8195 125.262C85.8163 126.389 85.0173 126.844 84.0362 126.278C83.5199 125.942 83.0903 125.489 82.7823 124.956C82.4744 124.423 82.297 123.824 82.2644 123.209C82.2676 122.082 83.0666 121.626 84.0477 122.193Z" fill="#C3F1FF"/>
<path d="M78.5818 119.163C79.0981 119.499 79.5277 119.952 79.8356 120.485C80.1435 121.019 80.321 121.617 80.3536 122.232C80.3504 123.36 79.5514 123.815 78.5702 123.249C78.0539 122.913 77.6243 122.46 77.3164 121.927C77.0085 121.393 76.831 120.795 76.7985 120.18C76.8017 119.052 77.6006 118.597 78.5818 119.163Z" fill="#1F56A3"/>
<path d="M73.3889 116.511C73.9052 116.847 74.3348 117.3 74.6427 117.833C74.9506 118.366 75.1281 118.965 75.1607 119.58C75.1575 120.707 74.3585 121.163 73.3773 120.596C72.861 120.261 72.4314 119.808 72.1235 119.274C71.8156 118.741 71.6381 118.142 71.6056 117.527C71.6088 116.4 72.4078 115.945 73.3889 116.511Z" fill="#50E6FF"/>
<path d="M86.4407 71.4807C87.4303 71.9831 88.5244 72.245 89.6342 72.245C90.744 72.245 91.8382 71.9831 92.8277 71.4807C94.5812 70.4617 94.5607 68.8067 92.7956 67.7876C91.8101 67.2853 90.7196 67.0234 89.6134 67.0234C88.5072 67.0235 87.4168 67.2854 86.4313 67.7877C84.6778 68.8067 84.6758 70.4617 86.4407 71.4807" fill="#1F56A3"/>
<path d="M89.6932 69.5416V59.584" stroke="white" stroke-miterlimit="10" stroke-linecap="round"/>
<path d="M89.0161 44.8961C89.6697 45.2914 90.2467 45.8013 90.7194 46.4012C91.2393 47.0535 91.6577 47.7806 91.9604 48.5579C92.2453 49.2641 92.3971 50.017 92.4081 50.7785C92.4317 51.388 92.2597 51.9891 91.9172 52.4938C91.7658 52.7005 91.5683 52.8691 91.3404 52.9863C91.1125 53.1034 90.8605 53.1659 90.6043 53.1688L90.5934 57.0205L89.5909 56.4417L89.604 51.8197C89.8131 51.894 90.0377 51.9141 90.2566 51.8782C90.4756 51.8422 90.6819 51.7515 90.8564 51.6143C90.8698 51.6026 90.8803 51.5942 90.8902 51.5849C90.911 51.5663 90.9292 51.5489 90.947 51.5309C90.9686 51.509 90.9859 51.4902 91.0026 51.4708C91.0404 51.427 91.0752 51.3808 91.1069 51.3325C91.1266 51.3012 91.1386 51.2818 91.1501 51.2618L91.1667 51.2313L91.1896 51.1883L91.2074 51.151L91.2268 51.1091L91.2422 51.072L91.2609 51.0249L91.2726 50.9931C91.2802 50.9717 91.2876 50.95 91.2946 50.9278C91.3113 50.8741 91.3232 50.8328 91.3336 50.7902C91.3455 50.7394 91.3554 50.6871 91.3641 50.6339C91.4341 50.1283 91.3948 49.6136 91.2488 49.1246C91.0712 48.4865 90.7805 47.8856 90.3905 47.3503C90.1251 46.9749 89.8082 46.6387 89.4491 46.3516C89.4173 46.3268 89.4 46.3135 89.3827 46.3005L89.3561 46.2807C89.258 46.2078 89.1562 46.14 89.0512 46.0774L89.0184 46.0583C88.7124 45.8698 88.3657 45.7571 88.0073 45.7298C87.8615 45.7215 87.7154 45.7372 87.5747 45.7761C87.3943 45.8321 87.229 45.9283 87.0913 46.0576C86.9535 46.1869 86.8469 46.3457 86.7796 46.5222C86.6727 46.7941 86.6185 47.0839 86.6198 47.376C86.6161 47.5924 86.6318 47.8086 86.6667 48.0222C86.7307 48.3933 86.8366 48.7559 86.9825 49.1031L87.0176 49.1861C87.0834 49.3384 87.1566 49.4895 87.2376 49.6379C87.5259 50.1741 87.9029 50.6577 88.3528 51.068L88.3494 52.2638L88.3396 55.7193L87.3371 55.1405L87.3481 51.2522C86.8209 50.6055 86.3959 49.8818 86.0881 49.1064C85.7955 48.4004 85.6371 47.6461 85.6211 46.8821C85.5932 46.2795 85.7488 45.6826 86.0673 45.1703C86.2065 44.9639 86.3906 44.7917 86.6058 44.6665C86.821 44.5414 87.0618 44.4665 87.31 44.4475C87.9116 44.4153 88.5082 44.5722 89.0161 44.8961V44.8961Z" fill="white"/>
<path d="M89.0347 46.0699C89.1457 46.1343 89.253 46.205 89.3561 46.2816L89.3827 46.3013L89.4345 46.341C89.6715 46.5283 89.8893 46.7386 90.0847 46.9689C90.491 47.4368 90.8159 47.9697 91.0458 48.5452C91.27 49.0675 91.3901 49.6286 91.3992 50.1969C91.3993 50.3413 91.3879 50.4855 91.3652 50.6282C91.3495 50.7253 91.3273 50.8213 91.2987 50.9154C91.2875 50.9508 91.2802 50.9725 91.2725 50.9939L91.2609 51.0258L91.2422 51.0728L91.2267 51.11L91.2073 51.1518L91.1895 51.1891L91.1666 51.2321L91.1501 51.2626C91.1385 51.2826 91.1265 51.302 91.1143 51.3212C91.0818 51.3722 91.0458 51.4209 91.0067 51.467C90.9858 51.491 90.9686 51.5098 90.9508 51.528C90.9292 51.5497 90.911 51.5671 90.8923 51.5837C90.8802 51.5951 90.8698 51.6035 90.8596 51.6123C90.685 51.7504 90.4783 51.842 90.2587 51.8784C90.0391 51.9148 89.8138 51.8949 89.604 51.8206L89.5909 56.4426L88.3395 55.7201L88.3494 52.2646L88.3527 51.0688C87.9029 50.6585 87.5259 50.175 87.2376 49.6387C87.1566 49.4904 87.0834 49.3393 87.0176 49.1869L86.9949 49.1336L86.9824 49.1039C86.8289 48.7349 86.7208 48.3485 86.6604 47.9534C86.6314 47.7626 86.6178 47.5698 86.6198 47.3769C86.6185 47.0847 86.6727 46.795 86.7796 46.5231C86.8469 46.3466 86.9535 46.1877 87.0912 46.0585C87.229 45.9292 87.3943 45.8329 87.5747 45.777C87.7154 45.738 87.8615 45.7224 88.0073 45.7307C88.2841 45.7501 88.5542 45.8244 88.8021 45.9492C88.8795 45.9848 88.9571 46.0251 89.0347 46.0699Z" fill="url(#paint6_linear)"/>
<path d="M79.151 38.0595L77.7413 38.8787C78.3256 38.5716 78.9679 38.391 79.6266 38.3485C80.2852 38.3059 80.9455 38.4026 81.5643 38.632L82.974 37.8129C82.3551 37.5834 81.6949 37.4868 81.0362 37.5293C80.3776 37.5718 79.7352 37.7524 79.151 38.0595Z" fill="#E8E8E8"/>
<path d="M98.5676 66.1453C98.592 66.3874 98.5517 66.6317 98.4509 66.8532C98.3501 67.0747 98.1924 67.2655 97.9938 67.4062L99.4034 66.587C99.602 66.4463 99.7598 66.2555 99.8605 66.034C99.9613 65.8125 100.002 65.5682 99.9772 65.3261L99.9803 64.2109L98.5708 65.0301L98.5676 66.1453Z" fill="#E8E8E8"/>
<path d="M102.057 53.4538C101.261 51.9575 100.228 50.5995 98.9991 49.4322C98.6246 47.0516 97.7765 44.7703 96.5049 42.7233C95.1377 40.3643 93.2105 38.3784 90.8935 36.941C90.8385 36.906 90.7809 36.8752 90.7212 36.8489L90.5615 36.7493C89.1597 35.8318 87.471 35.4578 85.8129 35.6979C85.3722 35.7859 84.949 35.9455 84.5599 36.1702L83.1504 36.9894C83.5395 36.7647 83.9627 36.6051 84.4033 36.517C86.0615 36.277 87.7502 36.6509 89.152 37.5685L89.3116 37.668C89.3713 37.6944 89.4289 37.7252 89.484 37.7602C91.8009 39.1976 93.7281 41.1835 95.0953 43.5425C96.367 45.5895 97.2151 47.8708 97.5895 50.2513C98.8186 51.4186 99.8513 52.7766 100.648 54.273C101.686 56.1264 102.285 58.1941 102.396 60.3158L102.395 60.426C102.328 62.3833 101.618 63.8519 100.392 64.5643L101.802 63.7452C103.028 63.0327 103.737 61.5642 103.805 59.6067L103.805 59.4967C103.694 57.375 103.096 55.3073 102.057 53.4538V53.4538Z" fill="#E8E8E8"/>
<path d="M95.6282 60.8318C95.7074 60.8825 95.7735 60.9512 95.8211 61.0323C95.8686 61.1134 95.8963 61.2046 95.9018 61.2985L95.8996 62.0761C95.8991 62.2522 95.7775 62.3216 95.6242 62.2331L94.9539 61.8461C94.8738 61.7946 94.8072 61.7248 94.7596 61.6423C94.7119 61.5599 94.6847 61.4672 94.6802 61.3721L94.6824 60.5945C94.6829 60.4257 94.8046 60.3564 94.9579 60.4449L95.6282 60.8318Z" fill="white"/>
<path d="M99.5913 54.7493C100.414 56.2203 100.886 57.861 100.972 59.544C101.016 60.1981 100.885 60.8521 100.592 61.4386C100.299 62.0251 99.8552 62.523 99.306 62.881C98.6418 63.2168 97.8794 63.3037 97.1566 63.1261L97.1614 61.4444C97.1523 61.2542 97.0979 61.069 97.0027 60.9041C96.9075 60.7392 96.7742 60.5994 96.6141 60.4964L90.5934 57.0204L90.6043 53.1688C90.8605 53.1659 91.1126 53.1033 91.3404 52.9862C91.5683 52.869 91.7658 52.7004 91.9172 52.4938C92.2597 51.989 92.4317 51.3879 92.4081 50.7784C92.3972 50.0169 92.2454 49.2641 91.9604 48.5579C91.6577 47.7806 91.2393 47.0534 90.7194 46.4011C90.2467 45.8012 89.6697 45.2913 89.0162 44.896C88.5082 44.572 87.9116 44.4152 87.31 44.4473C87.0617 44.4663 86.821 44.5412 86.6058 44.6664C86.3906 44.7916 86.2065 44.9638 86.0673 45.1702C85.7488 45.6825 85.5932 46.2794 85.6211 46.882C85.6371 47.646 85.7955 48.4004 86.088 49.1063C86.396 49.8818 86.821 50.6055 87.3482 51.2521L87.3372 55.1405L81.3485 51.6829C81.0483 51.5096 80.7985 51.6446 80.7975 51.9968L80.7935 53.437C80.0917 52.6775 79.4684 51.8491 78.933 50.9643C77.7139 49.0264 77.0011 46.8132 76.86 44.5281C76.819 43.8034 76.9525 43.0795 77.2492 42.4171C77.546 41.7547 77.9974 41.1733 78.5656 40.7216C79.1703 40.3682 79.8561 40.1771 80.5564 40.1668C81.2567 40.1566 81.9478 40.3275 82.5627 40.6631C82.7643 40.0793 83.1125 39.5572 83.5739 39.1468C84.0353 38.7363 84.5944 38.4513 85.1977 38.3191C86.5813 38.1259 87.9881 38.4416 89.1567 39.2073C89.1982 39.2313 89.2398 39.2557 89.2815 39.2807C89.347 39.3163 89.4124 39.353 89.4777 39.3907C91.3972 40.5816 92.9942 42.2265 94.1279 44.1803C95.3893 46.1883 96.1322 48.4782 96.2897 50.8443C97.6616 51.8899 98.7884 53.2226 99.5913 54.7493V54.7493Z" fill="url(#paint7_linear)"/>
<path d="M100.648 54.2722C101.686 56.1256 102.285 58.1933 102.396 60.3151L102.395 60.4251C102.326 62.4351 101.58 63.9297 100.292 64.6194C99.7626 64.9002 99.1701 65.0412 98.5708 65.0291L98.5676 66.1442C98.5641 67.3914 97.6802 67.8952 96.5948 67.2685L81.3291 58.4548C80.7579 58.0835 80.2826 57.5823 79.942 56.9923C79.6014 56.4023 79.405 55.7402 79.369 55.0598L79.3731 53.6146C78.8618 52.9749 78.3916 52.3034 77.9654 51.6041C76.478 49.2465 75.6102 46.5515 75.4424 43.769L75.4427 43.6589C75.3952 42.7756 75.559 41.8938 75.9205 41.0865C76.2821 40.2792 76.8309 39.5698 77.5215 39.0171C78.1211 38.648 78.7973 38.4214 79.4982 38.3547C80.199 38.288 80.9059 38.3829 81.5643 38.6322C81.8525 38.0922 82.2564 37.6226 82.7472 37.2568C83.2379 36.891 83.8035 36.6381 84.4033 36.5162C86.0614 36.2762 87.7501 36.6501 89.1519 37.5677L89.3116 37.6672C89.3712 37.6936 89.4288 37.7244 89.4839 37.7594C91.8008 39.1967 93.728 41.1827 95.0952 43.5417C96.3669 45.5887 97.215 47.87 97.5895 50.2505C98.8186 51.4178 99.8513 52.7758 100.648 54.2722V54.2722ZM99.3059 62.8815C99.8551 62.5235 100.299 62.0256 100.592 61.4391C100.885 60.8525 101.016 60.1985 100.972 59.5444C100.886 57.8614 100.413 56.2208 99.5912 54.7498C98.7883 53.2231 97.6615 51.8904 96.2896 50.8448C96.1321 48.4787 95.3892 46.1888 94.1278 44.1808C92.9941 42.227 91.3971 40.5821 89.4776 39.3912C89.4122 39.3535 89.3468 39.3168 89.2814 39.2812C89.2398 39.2563 89.1981 39.2319 89.1565 39.2079C87.988 38.4422 86.5812 38.1265 85.1975 38.3196C84.5943 38.4519 84.0352 38.7369 83.5738 39.1474C83.1124 39.5578 82.7642 40.0799 82.5625 40.6636C81.9477 40.3281 81.2566 40.1572 80.5563 40.1674C79.856 40.1777 79.1702 40.3688 78.5654 40.7221C77.9973 41.1739 77.5459 41.7553 77.2492 42.4177C76.9524 43.08 76.8189 43.8039 76.86 44.5286C77.001 46.8137 77.7138 49.0269 78.9329 50.9648C79.4683 51.8495 80.0916 52.678 80.7933 53.4375L80.7864 55.8782C80.7973 56.068 80.8525 56.2526 80.9475 56.4172C81.0425 56.5818 81.1748 56.7219 81.3337 56.8262L96.5994 65.6398C96.9058 65.8168 97.1493 65.6708 97.1503 65.3259L97.1565 63.1266C97.8792 63.3042 98.6417 63.2173 99.3059 62.8816" fill="white"/>
<path d="M96.614 60.4963L90.5933 57.0202L89.5909 56.4414L88.3395 55.719L87.337 55.1402L81.3483 51.6826C81.0481 51.5093 80.7984 51.6444 80.7974 51.9965L80.7933 53.4368L80.7864 55.8775C80.7973 56.0673 80.8525 56.2519 80.9475 56.4165C81.0425 56.5811 81.1748 56.7212 81.3337 56.8255L96.5994 65.6391C96.9059 65.816 97.1493 65.67 97.1503 65.3252L97.1565 63.1259L97.1613 61.4442C97.1522 61.254 97.0978 61.0688 97.0026 60.9039C96.9074 60.739 96.7742 60.5992 96.614 60.4963V60.4963ZM95.8941 64.0121C95.8936 64.1882 95.772 64.2576 95.6187 64.1691L94.9484 63.7821C94.8683 63.7306 94.8017 63.6607 94.7541 63.5783C94.7064 63.4958 94.6792 63.4032 94.6747 63.3081L94.6769 62.5304C94.6774 62.3617 94.7991 62.2923 94.9524 62.3808L95.6227 62.7678C95.7019 62.8185 95.768 62.8871 95.8156 62.9683C95.8631 63.0494 95.8908 63.1406 95.8963 63.2344L95.8941 64.0121V64.0121ZM95.8996 62.0753C95.8991 62.2514 95.7775 62.3207 95.6242 62.2323L94.9539 61.8453C94.8738 61.7938 94.8072 61.7239 94.7596 61.6414C94.712 61.559 94.6847 61.4664 94.6802 61.3713L94.6824 60.5936C94.6828 60.4249 94.8046 60.3555 94.9578 60.444L95.6282 60.831C95.7074 60.8817 95.7735 60.9503 95.8211 61.0314C95.8686 61.1126 95.8963 61.2038 95.9018 61.2976L95.8996 62.0753" fill="url(#paint8_linear)"/>
<path d="M94.9524 62.3824C94.7991 62.2939 94.6774 62.3632 94.6769 62.532L94.6747 63.3096C94.6792 63.4047 94.7065 63.4974 94.7541 63.5798C94.8017 63.6623 94.8683 63.7321 94.9484 63.7836L95.6187 64.1706C95.772 64.2591 95.8936 64.1898 95.8941 64.0136L95.8963 63.236C95.8908 63.1421 95.8631 63.0509 95.8156 62.9698C95.768 62.8887 95.7019 62.82 95.6227 62.7694L94.9524 62.3824Z" fill="#E1E1E1"/>
<path opacity="0.2" d="M78.3304 141.748C79.0583 142.168 79.0684 142.843 78.3453 143.263L77.9647 143.484C77.5588 143.691 77.1095 143.799 76.6537 143.799C76.198 143.799 75.7487 143.691 75.3428 143.484L42.4427 124.489C42.2846 124.436 42.1472 124.334 42.0499 124.198C41.9526 124.062 41.9001 123.9 41.8999 123.733C41.8997 123.566 41.9517 123.403 42.0486 123.267C42.1455 123.131 42.2826 123.029 42.4405 122.974L42.8211 122.753C43.2251 122.547 43.6722 122.439 44.1257 122.439C44.5793 122.439 45.0263 122.547 45.4303 122.753L78.3304 141.748Z" fill="#003067"/>
<path d="M43.4295 106.873L40.8413 108.377C41.9839 107.713 43.5659 107.807 45.3097 108.814C46.0565 109.251 46.7474 109.778 47.3675 110.382L49.9555 108.878C49.3354 108.274 48.6445 107.747 47.8979 107.31C46.154 106.303 44.572 106.209 43.4295 106.873Z" fill="#E8E8E8"/>
<path d="M75.7348 114.985C75.0356 114.573 74.2898 114.245 73.5133 114.008C71.2526 108.575 67.2851 103.579 62.7466 100.959C59.2021 98.9123 55.9915 98.7218 53.6721 100.07L51.084 101.574C53.4034 100.226 56.614 100.416 60.1585 102.463C64.6971 105.083 68.6645 110.079 70.9253 115.512C71.7017 115.749 72.4474 116.077 73.1467 116.489C78.6305 119.655 83.0507 127.334 83.0329 133.627C83.0351 134.315 82.9745 135 82.8519 135.677C82.8387 135.773 82.8061 135.866 82.7927 135.978C82.6166 136.782 82.3216 137.556 81.9174 138.274C81.8716 138.352 81.8131 138.415 81.7675 138.493C81.3477 139.113 80.7948 139.632 80.1492 140.012L82.7374 138.508C83.383 138.128 83.9358 137.609 84.3556 136.989C84.4012 136.911 84.4596 136.848 84.5054 136.77C84.9097 136.052 85.2047 135.278 85.3808 134.474C85.3941 134.362 85.4268 134.269 85.4399 134.172C85.5626 133.496 85.6232 132.811 85.6209 132.123C85.6388 125.83 81.2185 118.151 75.7348 114.985Z" fill="#E8E8E8"/>
<path d="M60.1584 102.463C64.6969 105.083 68.6644 110.079 70.9251 115.512C71.7016 115.749 72.4473 116.077 73.1466 116.489C78.6303 119.655 83.0506 127.334 83.0327 133.627C83.035 134.314 82.9745 135 82.8519 135.676C82.8386 135.773 82.806 135.866 82.7926 135.978C82.6166 136.782 82.3215 137.556 81.9172 138.274C81.8715 138.352 81.813 138.415 81.7674 138.493C80.0484 140.988 76.7916 141.477 73.069 139.328L44.6474 122.852C42.9974 121.632 41.6366 120.064 40.662 118.258C39.6875 116.452 39.1232 114.454 39.0093 112.406C39.0206 108.418 41.846 106.815 45.3098 108.815C46.0565 109.253 46.7474 109.779 47.3674 110.383C47.3551 110.175 47.3557 109.981 47.3562 109.781C47.3792 101.664 53.1081 98.3922 60.1584 102.463Z" fill="white"/>
<path d="M53.6963 113.36C54.7788 114.062 55.6798 115.011 56.3257 116.128C56.9716 117.245 57.3441 118.499 57.4128 119.788C57.4061 122.161 55.7292 123.107 53.672 121.92C52.5885 121.216 51.6868 120.266 51.0409 119.147C50.3949 118.028 50.023 116.773 49.9556 115.482C49.9623 113.119 51.6392 112.172 53.6963 113.36Z" fill="#0078D4"/>
<path d="M55.0671 117.091C55.206 117.178 55.3203 117.299 55.3991 117.442C55.5834 117.752 55.5824 118.094 55.397 118.199L53.5266 119.265C53.4729 119.287 53.4145 119.295 53.3568 119.288C53.2992 119.282 53.2441 119.261 53.1968 119.227C53.0602 119.142 52.9471 119.025 52.8678 118.885L51.9306 117.271L51.9387 117.266C51.7625 116.952 51.7634 116.619 51.9408 116.518C51.9943 116.494 52.0532 116.484 52.1117 116.49C52.1701 116.496 52.226 116.517 52.2738 116.551C52.4111 116.636 52.5235 116.756 52.5998 116.899L52.6478 116.991L53.2005 117.939L54.7404 117.062C54.7923 117.036 54.8502 117.026 54.9078 117.031C54.9654 117.036 55.0205 117.057 55.0671 117.091Z" fill="white"/>
<path d="M71.486 124.925C71.7088 125.07 71.8942 125.265 72.027 125.495C72.1597 125.725 72.236 125.983 72.2496 126.248C72.2482 126.732 71.9087 126.933 71.481 126.686L60.2823 120.221C60.06 120.076 59.8751 119.88 59.7424 119.65C59.6097 119.421 59.533 119.163 59.5186 118.898C59.5199 118.414 59.8659 118.216 60.2873 118.46L71.486 124.925Z" fill="#0078D4"/>
<path d="M66.7158 126.113C66.9378 126.257 67.1222 126.452 67.2539 126.681C67.3856 126.91 67.4607 127.168 67.4731 127.432C67.4717 127.916 67.1323 128.11 66.7109 127.866L60.3518 124.195C60.1297 124.051 59.9448 123.858 59.8121 123.629C59.6794 123.4 59.6026 123.144 59.588 122.88C59.5894 122.388 59.9353 122.198 60.3567 122.442L66.7158 126.113Z" fill="#0078D4"/>
</g>
<defs>
<linearGradient id="paint0_linear" x1="79.6785" y1="8.2793" x2="79.6785" y2="179.694" gradientUnits="userSpaceOnUse">
<stop stop-color="#00ABDE"/>
<stop offset="1" stop-color="#007ED8"/>
</linearGradient>
<linearGradient id="paint1_linear" x1="89.6937" y1="97.5073" x2="89.6937" y2="122.136" gradientUnits="userSpaceOnUse">
<stop stop-color="#005BA1"/>
<stop offset="0.26" stop-color="#00589D"/>
<stop offset="0.53" stop-color="#004F90"/>
<stop offset="0.8" stop-color="#003F7C"/>
<stop offset="1" stop-color="#003067"/>
</linearGradient>
<linearGradient id="paint2_linear" x1="89.6937" y1="84.1108" x2="89.6937" y2="108.74" gradientUnits="userSpaceOnUse">
<stop stop-color="#005BA1"/>
<stop offset="0.26" stop-color="#00589D"/>
<stop offset="0.53" stop-color="#004F90"/>
<stop offset="0.8" stop-color="#003F7C"/>
<stop offset="1" stop-color="#003067"/>
</linearGradient>
<linearGradient id="paint3_linear" x1="89.6937" y1="70.7163" x2="89.6937" y2="95.3453" gradientUnits="userSpaceOnUse">
<stop stop-color="#005BA1"/>
<stop offset="0.26" stop-color="#00589D"/>
<stop offset="0.53" stop-color="#004F90"/>
<stop offset="0.8" stop-color="#003F7C"/>
<stop offset="1" stop-color="#003067"/>
</linearGradient>
<linearGradient id="paint4_linear" x1="90.1853" y1="82.1931" x2="67.9039" y2="120.786" gradientUnits="userSpaceOnUse">
<stop stop-color="#008BF1"/>
<stop offset="0.22" stop-color="#0086EC"/>
<stop offset="0.49" stop-color="#0078DD"/>
<stop offset="0.79" stop-color="#0061C4"/>
<stop offset="1" stop-color="#004DAE"/>
</linearGradient>
<linearGradient id="paint5_linear" x1="100.304" y1="69.6335" x2="100.304" y2="133.342" gradientUnits="userSpaceOnUse">
<stop stop-color="#005BA1"/>
<stop offset="0.26" stop-color="#00589D"/>
<stop offset="0.53" stop-color="#004F90"/>
<stop offset="0.8" stop-color="#003F7C"/>
<stop offset="1" stop-color="#003067"/>
</linearGradient>
<linearGradient id="paint6_linear" x1="89.0094" y1="56.4425" x2="89.0094" y2="45.7288" gradientUnits="userSpaceOnUse">
<stop stop-color="#76BC2D"/>
<stop offset="0.817" stop-color="#86D633"/>
</linearGradient>
<linearGradient id="paint7_linear" x1="88.9159" y1="63.2101" x2="88.9159" y2="38.2408" gradientUnits="userSpaceOnUse">
<stop stop-color="#0078D4"/>
<stop offset="1" stop-color="#5EA0EF"/>
</linearGradient>
<linearGradient id="paint8_linear" x1="1537.73" y1="978.667" x2="1537.73" y2="779.655" gradientUnits="userSpaceOnUse">
<stop stop-color="#76BC2D"/>
<stop offset="0.817" stop-color="#86D633"/>
</linearGradient>
<clipPath id="clip0">
<rect width="159.356" height="188" fill="white"/>
</clipPath>
</defs>
</svg>
