<?xml version="1.0" encoding="UTF-8"?>
<svg width="100px" height="118px" viewBox="0 0 100 118" version="1.1" xmlns="http://www.w3.org/2000/svg" xmlns:xlink="http://www.w3.org/1999/xlink">
    <!-- Generator: Sketch 53.2 (72643) - https://sketchapp.com -->
    <title>Run massively parallel compute jobs with Azure Batch/run-massively-parallel-compute-jobs-with-azure-batch Copy</title>
    <desc>Created with Sketch.</desc>
    <defs>
        <path d="M42.7425,1.49663266 C44.3745,0.498877554 46.1865,0 48,0 C49.8135,0 51.627,0.498877554 53.256,1.49663266 L90.591,24.3316189 C93.933,26.3773408 96,30.2031485 96,34.3529027 L96,79.6470973 C96,83.7952317 93.933,87.6242789 90.591,89.6683811 L53.256,112.504987 C51.627,113.501122 49.8135,114 48,114 C46.1865,114 44.3745,113.501122 42.7425,112.504987 L5.409,89.6683811 C2.0655,87.6242789 0,83.7952317 0,79.6470973 L0,34.3529027 C0,30.2031485 2.0655,26.3773408 5.409,24.3316189 L42.7425,1.49663266 Z" id="path-1"></path>
        <filter x="-6.9%" y="-8.0%" width="113.8%" height="116.0%" filterUnits="objectBoundingBox" id="filter-3">
            <feOffset dx="0" dy="2" in="SourceAlpha" result="shadowOffsetOuter1"></feOffset>
            <feColorMatrix values="0 0 0 0 0   0 0 0 0 0   0 0 0 0 0  0 0 0 0.0964956975 0" type="matrix" in="shadowOffsetOuter1" result="shadowMatrixOuter1"></feColorMatrix>
            <feMerge>
                <feMergeNode in="shadowMatrixOuter1"></feMergeNode>
                <feMergeNode in="SourceGraphic"></feMergeNode>
            </feMerge>
        </filter>
        <path d="M12.3910828,22.7821655 C6.65200782,22.7821655 2,18.1293584 2,12.3910828 C2,6.65280714 6.65200782,2 12.3910828,2 C18.1293584,2 22.7821655,6.65280714 22.7821655,12.3910828 C22.7821655,18.1293584 18.1293584,22.7821655 12.3910828,22.7821655 Z" id="path-4"></path>
        <filter x="-4.8%" y="-4.8%" width="109.6%" height="119.2%" filterUnits="objectBoundingBox" id="filter-5">
            <feOffset dx="0" dy="2" in="SourceAlpha" result="shadowOffsetOuter1"></feOffset>
            <feColorMatrix values="0 0 0 0 0   0 0 0 0 0   0 0 0 0 0  0 0 0 0.100147192 0" type="matrix" in="shadowOffsetOuter1"></feColorMatrix>
        </filter>
        <filter x="-16.7%" y="-16.7%" width="133.3%" height="133.3%" filterUnits="objectBoundingBox" id="filter-6">
            <feOffset dx="0" dy="2" in="SourceAlpha" result="shadowOffsetOuter1"></feOffset>
            <feColorMatrix values="0 0 0 0 0   0 0 0 0 0   0 0 0 0 0  0 0 0 0.0964956975 0" type="matrix" in="shadowOffsetOuter1" result="shadowMatrixOuter1"></feColorMatrix>
            <feMerge>
                <feMergeNode in="shadowMatrixOuter1"></feMergeNode>
                <feMergeNode in="SourceGraphic"></feMergeNode>
            </feMerge>
        </filter>
    </defs>
    <g id="Badges" stroke="none" stroke-width="1" fill="none" fill-rule="evenodd">
        <g id="Run-massively-parallel-compute-jobs-with-Azure-Batch" transform="translate(-50.000000, -50.000000)">
            <g id="Run-massively-parallel-compute-jobs-with-Azure-Batch/run-massively-parallel-compute-jobs-with-azure-batch-Copy" transform="translate(50.000000, 50.000000)">
                <g id="Mask" transform="translate(2.000000, 2.000000)">
                    <mask id="mask-2" fill="white">
                        <use xlink:href="#path-1"></use>
                    </mask>
                    <use id="Trophy-1" fill="#55A2FF" xlink:href="#path-1"></use>
                </g>
                <g id="Azure-Hex-Border" stroke="#0078D4" stroke-width="4">
                    <path d="M45.5620146,3.25834407 L6.67338401,26.8942953 C3.79673288,28.6432593 2,31.9508238 2,35.5582677 L2,82.4417323 C2,86.0486597 3.79764663,89.3586805 6.67318764,91.1055853 L45.560618,114.742485 C46.9289662,115.572418 48.4546283,116 50,116 C51.5458817,116 53.0723633,115.572188 54.4362178,114.743457 L93.3268764,91.1055464 C96.2016145,89.3583456 98,86.0476286 98,82.4417323 L98,35.5582677 C98,31.9518547 96.202529,28.6435953 93.3268966,26.8944659 L54.4351916,3.25759524 C53.0721095,2.42798656 51.5462432,2 50,2 C48.4543284,2 46.9293388,2.42772325 45.5620146,3.25834407 Z M45.5620146,3.25834407 C45.5619597,3.25837737 45.5619049,3.25841067 45.5618501,3.25844398 L45.5621963,3.25823359 L45.5620146,3.25834407 Z"></path>
                </g>
                <g id="Large-Monitor" transform="translate(22.000000, 34.000000)">
                    <g id="Monitor" filter="url(#filter-3)">
                        <path d="M0,32 L0,37.4 C0,39.38 1.63125,41 3.625,41 L54.375,41 C56.36875,41 58,39.38 58,37.4 L58,32 L0,32" id="Fill-1285" fill="#E1E4E1"></path>
                        <path d="M3.625,0 C1.63125,0 0,1.6 0,3.55555556 L0,32 L58,32 L58,3.55555556 C58,1.6 56.36875,0 54.375,0 L3.625,0 Z M54.375,1.77777778 C55.3745938,1.77777778 56.1875,2.57511111 56.1875,3.55555556 L56.1875,30.2222222 L1.8125,30.2222222 L1.8125,3.55555556 C1.8125,2.57511111 2.62540625,1.77777778 3.625,1.77777778 L54.375,1.77777778 L54.375,1.77777778 Z" id="Fill-1287" fill="#182A37"></path>
                        <path d="M3.83333333,1 L52.6932641,1 C53.7043475,1 57,1.98915484 57,5.00482447 L57,31 L2,31 L2,2.875 C2,1.8409375 2.82225,1 3.83333333,1 Z" id="Fill-1288" fill="#30404D"></path>
                        <path d="M3.83742216,2 L29,2 L20.016843,31 L2,31 L2,3.8125 C2,2.81290625 2.82408384,2 3.83742216,2" id="Fill-1289" fill="#384B58"></path>
                        <path d="M3.625,0 L29,0 L28.4462813,1.77777778 L3.625,1.77777778 C2.62540625,1.77777778 1.8125,2.57511111 1.8125,3.55555556 L1.8125,30.2222222 L19.5849688,30.2222222 L19.03125,32 L0,32 L0,3.55555556 C0,1.6 1.63125,0 3.625,0" id="Fill-1290" fill="#30404D"></path>
                        <polyline id="Fill-1291" fill="#E1E4E1" points="37 49 22 49 23.875 41 35.125 41 37 49"></polyline>
                        <path d="M36,49 L34.2000692,41 L23.4004846,41 L23,42.7777778 L27.0003461,42.7777778 C27.9948079,42.7777778 28.8002769,43.5733333 28.8002769,44.5555556 L28.8002769,49 L36,49" id="Fill-1292" fill="#CDD6D8"></path>
                        <path d="M40,49 C40,49.55 39.5875,50 39.0833333,50 L18.9166667,50 C18.4125,50 18,49.55 18,49 C18,48.45 18.4125,48 18.9166667,48 L39.0833333,48 C39.5875,48 40,48.45 40,49" id="Fill-1293" fill="#E1E4E1"></path>
                        <path d="M18.9166667,50 L39.0833333,50 C39.5875,50 40,49.55 40,49 L18,49 C18,49.55 18.4125,50 18.9166667,50" id="Fill-1294" fill="#CDD6D8"></path>
                    </g>
                    <g id="Group-4" transform="translate(18.000000, 6.000000)" fill="#FFFFFF">
                        <path d="M4.13777372,4 C4.11724453,4 4.09625912,3.99474893 4.07664234,3.9857471 L0.0602189781,2.07960992 C0.0232664234,2.06160626 0,2.02822448 0,1.99296732 C0,1.95733508 0.0232664234,1.92432838 0.0602189781,1.9066998 L4.0524635,0.0129401285 C4.08987226,-0.00431337615 4.1354927,-0.00431337615 4.17244526,0.0129401285 L8.19023723,1.91982746 C8.22764599,1.93745605 8.25,1.97046275 8.25,2.00609499 C8.25,2.0421023 8.22764599,2.07473393 8.19023723,2.09236251 L4.19936131,3.9857471 C4.17974453,3.99474893 4.16012774,4 4.13777372,4" id="Path"></path>
                        <path d="M4.37289228,9 C4.34872731,9 4.32697884,8.99467233 4.30813017,8.984017 L0.065728708,6.73485341 C0.0246482655,6.71398671 0,6.6758051 0,6.63229581 L0,2.11887358 C0,2.07625224 0.0246482655,2.03762665 0.065728708,2.01631598 C0.104875953,1.99456134 0.153205886,1.99456134 0.195252927,2.01631598 L4.43717109,4.26459162 C4.47486844,4.28679024 4.5,4.32541583 4.5,4.36803717 L4.5,8.8814594 C4.5,8.92452471 4.47486844,8.96270633 4.43717109,8.984017 C4.41590592,8.99467233 4.39367415,9 4.37289228,9" id="Path" opacity="0.7"></path>
                        <path d="M4.60760344,9 C4.588259,9 4.57012359,8.99464968 4.55198818,8.98394904 C4.52055347,8.96254777 4.5,8.92420382 4.5,8.88095541 L4.5,4.37687898 C4.5,4.33496815 4.52055347,4.29573248 4.55198818,4.27388535 L8.08919936,2.01605096 C8.12305212,1.99464968 8.16254702,1.99464968 8.19559377,2.01605096 C8.22944653,2.03700637 8.25,2.07624204 8.25,2.11859873 L8.25,6.6222293 C8.25,6.66592357 8.22944653,6.70426752 8.19559377,6.72522293 L4.65959162,8.98394904 C4.64508329,8.99464968 4.62614186,9 4.60760344,9" id="Path" opacity="0.4"></path>
                    </g>
                    <g id="Group-2" transform="translate(30.000000, 6.000000)" fill="#FFFFFF">
                        <path d="M4.13777372,4 C4.11724453,4 4.09625912,3.99474893 4.07664234,3.9857471 L0.0602189781,2.07960992 C0.0232664234,2.06160626 0,2.02822448 0,1.99296732 C0,1.95733508 0.0232664234,1.92432838 0.0602189781,1.9066998 L4.0524635,0.0129401285 C4.08987226,-0.00431337615 4.1354927,-0.00431337615 4.17244526,0.0129401285 L8.19023723,1.91982746 C8.22764599,1.93745605 8.25,1.97046275 8.25,2.00609499 C8.25,2.0421023 8.22764599,2.07473393 8.19023723,2.09236251 L4.19936131,3.9857471 C4.17974453,3.99474893 4.16012774,4 4.13777372,4" id="Path"></path>
                        <path d="M4.37289228,9 C4.34872731,9 4.32697884,8.99467233 4.30813017,8.984017 L0.065728708,6.73485341 C0.0246482655,6.71398671 0,6.6758051 0,6.63229581 L0,2.11887358 C0,2.07625224 0.0246482655,2.03762665 0.065728708,2.01631598 C0.104875953,1.99456134 0.153205886,1.99456134 0.195252927,2.01631598 L4.43717109,4.26459162 C4.47486844,4.28679024 4.5,4.32541583 4.5,4.36803717 L4.5,8.8814594 C4.5,8.92452471 4.47486844,8.96270633 4.43717109,8.984017 C4.41590592,8.99467233 4.39367415,9 4.37289228,9" id="Path" opacity="0.7"></path>
                        <path d="M4.60760344,9 C4.588259,9 4.57012359,8.99464968 4.55198818,8.98394904 C4.52055347,8.96254777 4.5,8.92420382 4.5,8.88095541 L4.5,4.37687898 C4.5,4.33496815 4.52055347,4.29573248 4.55198818,4.27388535 L8.08919936,2.01605096 C8.12305212,1.99464968 8.16254702,1.99464968 8.19559377,2.01605096 C8.22944653,2.03700637 8.25,2.07624204 8.25,2.11859873 L8.25,6.6222293 C8.25,6.66592357 8.22944653,6.70426752 8.19559377,6.72522293 L4.65959162,8.98394904 C4.64508329,8.99464968 4.62614186,9 4.60760344,9" id="Path" opacity="0.4"></path>
                    </g>
                    <g id="Group-5" transform="translate(18.000000, 18.000000)" fill="#FFFFFF">
                        <path d="M4.13777372,4 C4.11724453,4 4.09625912,3.99474893 4.07664234,3.9857471 L0.0602189781,2.07960992 C0.0232664234,2.06160626 0,2.02822448 0,1.99296732 C0,1.95733508 0.0232664234,1.92432838 0.0602189781,1.9066998 L4.0524635,0.0129401285 C4.08987226,-0.00431337615 4.1354927,-0.00431337615 4.17244526,0.0129401285 L8.19023723,1.91982746 C8.22764599,1.93745605 8.25,1.97046275 8.25,2.00609499 C8.25,2.0421023 8.22764599,2.07473393 8.19023723,2.09236251 L4.19936131,3.9857471 C4.17974453,3.99474893 4.16012774,4 4.13777372,4" id="Path"></path>
                        <path d="M4.37289228,9 C4.34872731,9 4.32697884,8.99467233 4.30813017,8.984017 L0.065728708,6.73485341 C0.0246482655,6.71398671 0,6.6758051 0,6.63229581 L0,2.11887358 C0,2.07625224 0.0246482655,2.03762665 0.065728708,2.01631598 C0.104875953,1.99456134 0.153205886,1.99456134 0.195252927,2.01631598 L4.43717109,4.26459162 C4.47486844,4.28679024 4.5,4.32541583 4.5,4.36803717 L4.5,8.8814594 C4.5,8.92452471 4.47486844,8.96270633 4.43717109,8.984017 C4.41590592,8.99467233 4.39367415,9 4.37289228,9" id="Path" opacity="0.7"></path>
                        <path d="M4.60760344,9 C4.588259,9 4.57012359,8.99464968 4.55198818,8.98394904 C4.52055347,8.96254777 4.5,8.92420382 4.5,8.88095541 L4.5,4.37687898 C4.5,4.33496815 4.52055347,4.29573248 4.55198818,4.27388535 L8.08919936,2.01605096 C8.12305212,1.99464968 8.16254702,1.99464968 8.19559377,2.01605096 C8.22944653,2.03700637 8.25,2.07624204 8.25,2.11859873 L8.25,6.6222293 C8.25,6.66592357 8.22944653,6.70426752 8.19559377,6.72522293 L4.65959162,8.98394904 C4.64508329,8.99464968 4.62614186,9 4.60760344,9" id="Path" opacity="0.4"></path>
                    </g>
                    <g id="Group" transform="translate(30.000000, 18.000000)" fill="#FFFFFF">
                        <path d="M4.13777372,4 C4.11724453,4 4.09625912,3.99474893 4.07664234,3.9857471 L0.0602189781,2.07960992 C0.0232664234,2.06160626 0,2.02822448 0,1.99296732 C0,1.95733508 0.0232664234,1.92432838 0.0602189781,1.9066998 L4.0524635,0.0129401285 C4.08987226,-0.00431337615 4.1354927,-0.00431337615 4.17244526,0.0129401285 L8.19023723,1.91982746 C8.22764599,1.93745605 8.25,1.97046275 8.25,2.00609499 C8.25,2.0421023 8.22764599,2.07473393 8.19023723,2.09236251 L4.19936131,3.9857471 C4.17974453,3.99474893 4.16012774,4 4.13777372,4" id="Path"></path>
                        <path d="M4.37289228,9 C4.34872731,9 4.32697884,8.99467233 4.30813017,8.984017 L0.065728708,6.73485341 C0.0246482655,6.71398671 0,6.6758051 0,6.63229581 L0,2.11887358 C0,2.07625224 0.0246482655,2.03762665 0.065728708,2.01631598 C0.104875953,1.99456134 0.153205886,1.99456134 0.195252927,2.01631598 L4.43717109,4.26459162 C4.47486844,4.28679024 4.5,4.32541583 4.5,4.36803717 L4.5,8.8814594 C4.5,8.92452471 4.47486844,8.96270633 4.43717109,8.984017 C4.41590592,8.99467233 4.39367415,9 4.37289228,9" id="Path" opacity="0.7"></path>
                        <path d="M4.60760344,9 C4.588259,9 4.57012359,8.99464968 4.55198818,8.98394904 C4.52055347,8.96254777 4.5,8.92420382 4.5,8.88095541 L4.5,4.37687898 C4.5,4.33496815 4.52055347,4.29573248 4.55198818,4.27388535 L8.08919936,2.01605096 C8.12305212,1.99464968 8.16254702,1.99464968 8.19559377,2.01605096 C8.22944653,2.03700637 8.25,2.07624204 8.25,2.11859873 L8.25,6.6222293 C8.25,6.66592357 8.22944653,6.70426752 8.19559377,6.72522293 L4.65959162,8.98394904 C4.64508329,8.99464968 4.62614186,9 4.60760344,9" id="Path" opacity="0.4"></path>
                    </g>
                </g>
                <g id="Azure-Logo" transform="translate(64.000000, 61.000000)">
                    <path d="M12.3910828,24.7821655 C5.54739244,24.7821655 -1.33582034e-12,19.2338199 -1.33582034e-12,12.3910828 C-1.33582034e-12,5.5483456 5.54739244,4.54747351e-13 12.3910828,4.54747351e-13 C19.2338199,4.54747351e-13 24.7821655,5.5483456 24.7821655,12.3910828 C24.7821655,19.2338199 19.2338199,24.7821655 12.3910828,24.7821655 Z" id="Fill-41" fill="#55A2FF"></path>
                    <g id="Fill-41">
                        <use fill="black" fill-opacity="1" filter="url(#filter-5)" xlink:href="#path-4"></use>
                        <use fill="#F9F9F9" fill-rule="evenodd" xlink:href="#path-4"></use>
                    </g>
                    <g transform="translate(6.000000, 6.000000)" fill="#384B58" id="Path">
                        <polygon points="5 10.9991322 13 11 8.69137303 3 7.37910085 6.86245797 9.89914945 10.0740861"></polygon>
                        <polygon points="8 0 3.68995324 3.97080457 0 10.9887971 3.32832648 10.9887971 3.32832648 11"></polygon>
                    </g>
                </g>
                <g id="Small-Monitor" transform="translate(14.000000, 61.000000)">
                    <g id="Network" filter="url(#filter-6)">
                        <path d="M13.5555556,21 L13.5555556,19.5 C13.5555556,18.675 12.8586667,18 12,18 C11.1405556,18 10.4444444,18.675 10.4444444,19.5 L10.4444444,21 L6.55555556,21 C5.69688889,21 5,21.6675 5,22.5 C5,23.325 5.69688889,23.0119524 6.55555556,23.0119524 L17.4444444,23.0119524 C18.3031111,23.0119524 19,23.325 19,22.5 C19,21.6675 18.3031111,21 17.4444444,21 L13.5555556,21 Z" id="Fill-849" fill="#E1E4E1"></path>
                        <path d="M24,17.5384615 C24,18.3423077 23.325,19 22.5,19 L1.5,19 C0.675,19 0,18.3423077 0,17.5384615 L0,1.46153846 C0,0.657692308 0.675,0 1.5,0 L22.5,0 C23.325,0 24,0.657692308 24,1.46153846 L24,17.5384615" id="Fill-852" fill="#E1E4E1"></path>
                        <path d="M22.5,0 L12,0 L12,19 L22.5,19 C23.325,19 24,18.3423077 24,17.5384615 L24,1.46153846 C24,0.657692308 23.325,0 22.5,0" id="Fill-867" fill="#CDD6D8"></path>
                        <path d="M4.53846154,15 L23.0168221,15 C22.984448,15 23,14.2588235 23,13.3529412 L23,2.64705882 C23,1.74117647 22.3076923,1 21.4615385,1 L4.53846154,1 C3.69230769,1 3,1.74117647 3,2.64705882 L3,13.3529412 C3,14.2588235 3.69230769,15 4.53846154,15 Z" id="Fill-868" fill="#30404D"></path>
                        <path d="M11,1 L7.92307692,15 L1.013499,15 C0.996177297,14.9813716 1,14.2588235 1,13.3529412 L1,2.64705882 C1,1.74117647 1.69230769,1 2.53846154,1 L11,1 Z" id="Fill-869" fill="#384B58"></path>
                    </g>
                    <g id="Group-6" transform="translate(8.444444, 4.000000)" fill="#FFFFFF">
                        <path d="M3.5665659,3 C3.5488707,3 3.53078228,2.9960617 3.51387353,2.98931033 L0.0519059205,1.55970744 C0.0200545602,1.5462047 -8.0913054e-13,1.52116836 -8.0913054e-13,1.49472549 C-8.0913054e-13,1.46800131 0.0200545602,1.44324628 0.0519059205,1.43002485 L3.49303251,0.00970509635 C3.5252771,-0.00323503212 3.56459977,-0.00323503212 3.59645113,0.00970509635 L7.05959842,1.4398706 C7.091843,1.45309203 7.11111111,1.47784706 7.11111111,1.50457124 C7.11111111,1.53157673 7.091843,1.55605045 7.05959842,1.56927188 L3.6196515,2.98931033 C3.60274276,2.9960617 3.58583401,3 3.5665659,3" id="Path"></path>
                        <path d="M3.45512476,8 C3.43603146,8 3.41884748,7.99543343 3.4039547,7.98630028 L0.051933794,6.05844578 C0.0194751727,6.04056004 -4.0456527e-13,6.00783294 -4.0456527e-13,5.97053927 L-4.0456527e-13,2.10189164 C-4.0456527e-13,2.06535906 0.0194751727,2.03225142 0.051933794,2.01398513 C0.0828649507,1.99533829 0.121051564,1.99533829 0.154273917,2.01398513 L3.50591296,3.94107854 C3.53569852,3.96010592 3.55555556,3.99321357 3.55555556,4.02974614 L3.55555556,7.89839377 C3.55555556,7.9353069 3.53569852,7.968034 3.50591296,7.98630028 C3.48911085,7.99543343 3.47154501,8 3.45512476,8" id="Path" opacity="0.7"></path>
                        <path d="M3.65757956,8 C3.63923816,8 3.62204311,7.99541401 3.60484805,7.98624204 C3.57504329,7.96789809 3.55555556,7.93503185 3.55555556,7.89796178 L3.55555556,4.03732484 C3.55555556,4.00140127 3.57504329,3.9677707 3.60484805,3.94904459 L6.95864828,2.01375796 C6.99074572,1.99541401 7.02819273,1.99541401 7.05952594,2.01375796 C7.09162338,2.03171975 7.11111111,2.06535032 7.11111111,2.10165605 L7.11111111,5.96191083 C7.11111111,5.99936306 7.09162338,6.0322293 7.05952594,6.05019108 L3.70687205,7.98624204 C3.69311601,7.99541401 3.67515673,8 3.65757956,8" id="Path" opacity="0.4"></path>
                    </g>
                </g>
            </g>
        </g>
    </g>
</svg>