<svg width="204" height="204" viewBox="0 0 204 204" fill="none" xmlns="http://www.w3.org/2000/svg">
<path d="M102 195.62C50.3 195.62 8.38 153.72 8.38 102C8.38 50.2799 50.3 8.37988 102 8.37988C153.7 8.37988 195.62 50.2999 195.62 102C195.62 153.7 153.7 195.62 102 195.62Z" fill="url(#paint0_linear)"/>
<path fill-rule="evenodd" clip-rule="evenodd" d="M193.8 102C193.8 152.7 152.7 193.8 102 193.8C51.3 193.8 10.2 152.7 10.2 102C10.2 51.2997 51.3 10.1997 102 10.1997C152.7 10.1997 193.8 51.2997 193.8 102ZM102 2.71973C156.84 2.71973 201.28 47.1597 201.28 102C201.28 156.84 156.82 201.28 102 201.28C47.16 201.28 2.71997 156.82 2.71997 102C2.71997 47.1597 47.16 2.71973 102 2.71973Z" fill="#F2F1F0"/>
<path fill-rule="evenodd" clip-rule="evenodd" d="M188.18 102C188.18 149.6 149.6 188.18 102 188.18C54.4 188.18 15.82 149.6 15.82 102C15.82 54.3998 54.4 15.8198 102 15.8198C149.6 15.8198 188.18 54.3998 188.18 102ZM102 8.33984C153.72 8.33984 195.66 50.2798 195.66 102C195.66 153.72 153.72 195.66 102 195.66C50.28 195.66 8.33997 153.72 8.33997 102C8.33997 50.2798 50.26 8.33984 102 8.33984Z" fill="url(#paint1_linear)"/>
<path opacity="0.15" d="M133.46 140.019H45.42C42.96 140.019 40.98 137.999 40.98 135.579V57.3189C40.98 54.8589 42.96 52.8789 45.42 52.8789H133.48C135.94 52.8789 137.92 54.8589 137.92 57.3189V135.539C137.92 137.999 135.9 140.019 133.46 140.019Z" fill="#1F1D20"/>
<path d="M133.46 134.459H45.42C42.96 134.459 40.98 132.479 40.98 130.019V51.7994C40.98 49.3394 42.96 47.3594 45.42 47.3594H133.48C135.94 47.3594 137.92 49.3394 137.92 51.7994V130.019C137.92 132.479 135.9 134.459 133.46 134.459Z" fill="white"/>
<path d="M118.7 73.0597C118.7 71.1997 117.2 69.6797 115.32 69.6797H63.28C61.42 69.6797 59.9 71.1797 59.9 73.0597C59.9 74.9197 61.4 76.4397 63.28 76.4397H115.36C117.2 76.3997 118.7 74.9397 118.7 73.0597Z" fill="#50E6FF"/>
<path d="M72.46 73.0589C72.46 76.7589 75.48 79.7389 79.14 79.7389C82.84 79.7389 85.82 76.7189 85.82 73.0589C85.82 69.3589 82.8 66.3789 79.14 66.3789C75.46 66.3789 72.46 69.3589 72.46 73.0589Z" fill="#0D3868"/>
<path d="M118.7 90.0792C118.7 88.2192 117.2 86.6992 115.32 86.6992H63.28C61.42 86.6992 59.9 88.1992 59.9 90.0792C59.9 91.9392 61.4 93.4592 63.28 93.4592H115.36C117.2 93.4192 118.7 91.9192 118.7 90.0792Z" fill="#32B0E7"/>
<path d="M92.6 90.0394C92.6 93.7394 95.62 96.7194 99.28 96.7194C102.94 96.7194 105.96 93.6994 105.96 90.0394C105.96 86.3394 102.94 83.3594 99.28 83.3594C95.62 83.3594 92.6 86.3794 92.6 90.0394Z" fill="#0D3868"/>
<path d="M118.7 108.02C118.7 106.16 117.2 104.64 115.32 104.64H63.28C61.42 104.64 59.9 106.14 59.9 108.02C59.9 109.88 61.4 111.4 63.28 111.4H115.36C117.2 111.4 118.7 109.92 118.7 108.02Z" fill="#185A97"/>
<path d="M72.7 108.02C72.7 111.72 75.72 114.7 79.38 114.7C83.08 114.7 86.06 111.68 86.06 108.02C86.06 104.32 83.04 101.34 79.38 101.34C75.68 101.34 72.7 104.36 72.7 108.02Z" fill="#0D3868"/>
<path d="M130.42 92.4805L162.14 146.46C162.14 146.46 101.36 146.24 101.9 145.46C102.42 144.7 130.42 92.4805 130.42 92.4805Z" fill="white"/>
<path d="M168.28 145.24L134.74 90.2001C133.3 87.8401 129.84 87.8401 128.44 90.2201L95.6 145.26C94.14 147.72 95.9 150.82 98.76 150.82H165.14C168.02 150.84 169.78 147.7 168.28 145.24ZM106.36 142.66L131.8 98.7601L157.6 142.66H106.36Z" fill="#E81E25"/>
<path d="M131.96 139.7C131.14 139.7 130.44 139.42 129.88 138.9C129.3 138.38 129.02 137.74 129.02 136.98C129.02 136.2 129.32 135.54 129.88 135C130.46 134.46 131.14 134.18 131.96 134.18C132.76 134.18 133.42 134.46 134.02 135C134.6 135.54 134.88 136.22 134.88 136.98C134.88 137.72 134.58 138.38 134.02 138.9C133.42 139.46 132.76 139.7 131.96 139.7ZM134.22 109.94L133.84 130.66H129.94L129.42 109.94H134.22Z" fill="black"/>
<defs>
<linearGradient id="paint0_linear" x1="98.461" y1="-27.5791" x2="106.425" y2="263.962" gradientUnits="userSpaceOnUse">
<stop stop-color="#00ABDE"/>
<stop offset="1" stop-color="#007ED8"/>
</linearGradient>
<linearGradient id="paint1_linear" x1="4.86677" y1="-41.2502" x2="195.922" y2="240.514" gradientUnits="userSpaceOnUse">
<stop stop-color="#007ED8"/>
<stop offset="0.7065" stop-color="#002D4C"/>
</linearGradient>
</defs>
</svg>
