<svg width="100" height="100" viewBox="0 0 100 100" fill="none" xmlns="http://www.w3.org/2000/svg">
<g clip-path="url(#clip0_1229_557)">
<path d="M49.6401 96.4499C40.382 96.4499 31.3317 93.7045 23.6339 88.561C15.936 83.4174 9.93624 76.1067 6.3933 67.5533C2.85036 58.9999 1.92337 49.588 3.72954 40.5077C5.53571 31.4275 9.99394 23.0867 16.5404 16.5402C23.0869 9.99372 31.4277 5.5355 40.5079 3.72933C49.5882 1.92315 59.0001 2.85015 67.5535 6.39308C76.1069 9.93602 83.4176 15.9358 88.5612 23.6336C93.7047 31.3315 96.4501 40.3817 96.4501 49.6399C96.4505 55.7872 95.24 61.8744 92.8878 67.5538C90.5355 73.2332 87.0875 78.3937 82.7407 82.7405C78.3939 87.0873 73.2335 90.5353 67.554 92.8876C61.8746 95.2398 55.7874 96.4503 49.6401 96.4499V96.4499Z" fill="url(#paint0_linear_1229_557)"/>
<path fill-rule="evenodd" clip-rule="evenodd" d="M95.54 49.6399C95.54 58.718 92.848 67.5923 87.8045 75.1406C82.7609 82.6888 75.5923 88.5719 67.2052 92.046C58.818 95.52 49.5891 96.429 40.6854 94.6579C31.7816 92.8869 23.603 88.5153 17.1838 82.0961C10.7646 75.6769 6.39302 67.4983 4.62196 58.5945C2.85089 49.6908 3.75987 40.4618 7.23393 32.0747C10.708 23.6876 16.5911 16.519 24.1393 11.4754C31.6875 6.43187 40.5618 3.73988 49.64 3.73988C55.6677 3.73986 61.6363 4.92708 67.2052 7.23377C72.774 9.54045 77.834 12.9214 82.0963 17.1836C86.3585 21.4458 89.7394 26.5058 92.0461 32.0747C94.3528 37.6435 95.54 43.6122 95.54 49.6399V49.6399ZM49.64 -0.000106449C59.4579 -0.000106449 69.0552 2.91123 77.2185 8.36574C85.3818 13.8203 91.7442 21.573 95.5014 30.6435C99.2585 39.714 100.242 49.695 98.3262 59.3242C96.4108 68.9534 91.6831 77.7984 84.7408 84.7407C77.7985 91.683 68.9535 96.4107 59.3243 98.3261C49.6951 100.241 39.7141 99.2584 30.6436 95.5013C21.5731 91.7441 13.8204 85.3816 8.36584 77.2184C2.91133 69.0551 -1.61629e-06 59.4577 3.61524e-07 49.6399C-0.000786426 43.1208 1.28265 36.6655 3.77702 30.6425C6.27138 24.6196 9.92781 19.147 14.5375 14.5374C19.1471 9.9277 24.6197 6.27127 30.6427 3.77691C36.6656 1.28254 43.121 -0.000894549 49.64 -0.000106449V-0.000106449Z" fill="#F2F1F0"/>
<path fill-rule="evenodd" clip-rule="evenodd" d="M92.7296 49.64C92.7296 58.1624 90.2024 66.4934 85.4676 73.5795C80.7328 80.6656 74.0031 86.1886 66.1294 89.45C58.2557 92.7113 49.5918 93.5647 41.2331 91.902C32.8745 90.2394 25.1966 86.1355 19.1703 80.1092C13.1441 74.083 9.04017 66.4051 7.37753 58.0464C5.7149 49.6878 6.56822 41.0238 9.8296 33.1502C13.091 25.2765 18.6139 18.5468 25.7 13.812C32.7862 9.07718 41.1172 6.55 49.6396 6.55C55.2983 6.54965 60.9017 7.66397 66.1298 9.82933C71.3579 11.9947 76.1082 15.1687 80.1096 19.17C84.1109 23.1713 87.2849 27.9217 89.4502 33.1498C91.6156 38.3778 92.7299 43.9812 92.7296 49.64ZM49.6396 2.81C58.9017 2.81 67.9558 5.55653 75.6569 10.7023C83.3581 15.848 89.3604 23.1619 92.9049 31.7189C96.4493 40.276 97.3767 49.6919 95.5697 58.7761C93.7628 67.8602 89.3027 76.2045 82.7534 82.7538C76.2041 89.3031 67.8598 93.7632 58.7757 95.5702C49.6915 97.3771 40.2756 96.4497 31.7185 92.9053C23.1614 89.3608 15.8476 83.3585 10.7018 75.6574C5.5561 67.9562 2.80957 58.9021 2.80957 49.64C2.81076 37.2203 7.74501 25.3096 16.5271 16.5275C25.3091 7.74544 37.2198 2.81119 49.6396 2.81V2.81Z" fill="#0078D4"/>
<path fill-rule="evenodd" clip-rule="evenodd" d="M92.7301 49.7835C92.7301 58.3059 90.2029 66.6369 85.4681 73.723C80.7333 80.8091 74.0036 86.3321 66.1299 89.5935C58.2562 92.8549 49.5923 93.7082 41.2336 92.0455C32.875 90.3829 25.1971 86.279 19.1708 80.2527C13.1446 74.2265 9.04066 66.5486 7.37802 58.1899C5.71538 49.8313 6.56871 41.1673 9.83009 33.2937C13.0915 25.42 18.6144 18.6903 25.7005 13.9555C32.7867 9.22069 41.1177 6.69351 49.6401 6.69351C55.2988 6.69316 60.9022 7.80748 66.1303 9.97284C71.3584 12.1382 76.1087 15.3122 80.1101 19.3135C84.1114 23.3149 87.2854 28.0652 89.4507 33.2933C91.6161 38.5213 92.7304 44.1248 92.7301 49.7835V49.7835ZM49.6401 2.95351C58.9022 2.95351 67.9563 5.70004 75.6574 10.8458C83.3586 15.9915 89.3609 23.3054 92.9053 31.8624C96.4498 40.4195 97.3772 49.8355 95.5702 58.9196C93.7633 68.0037 89.3032 76.348 82.7539 82.8973C76.2046 89.4466 67.8603 93.9067 58.7761 95.7137C49.692 97.5206 40.2761 96.5932 31.719 93.0488C23.1619 89.5043 15.8481 83.502 10.7023 75.8009C5.55659 68.0997 2.81006 59.0456 2.81006 49.7835C2.81124 37.3638 7.74548 25.4531 16.5276 16.671C25.3096 7.88892 37.2203 2.95467 49.64 2.95348L49.6401 2.95351Z" fill="#0078D4"/>
<path d="M79.4931 37.3385C79.4554 35.6638 78.8162 34.0586 77.6925 32.8164C76.5687 31.5742 75.0354 30.7779 73.3728 30.5731C73.273 28.2358 72.2561 26.032 70.5426 24.4392C68.8291 22.8465 66.557 21.9931 64.2186 22.0641C62.3298 22.0231 60.4745 22.5675 58.9074 23.6227C57.3402 24.6779 56.1379 26.1921 55.4654 27.9576C53.4638 28.2009 51.6172 29.1586 50.2653 30.6547C48.9134 32.1507 48.1471 34.0845 48.1072 36.1005C48.1935 38.3608 49.1725 40.4947 50.8297 42.0342C52.4869 43.5737 54.687 44.3933 56.9475 44.3132H72.0302C72.1574 44.3313 72.2866 44.3313 72.4138 44.3132C74.2679 44.2956 76.0427 43.5584 77.3635 42.2571C78.6844 40.9558 79.4479 39.1922 79.4931 37.3385V37.3385Z" fill="url(#paint1_linear_1229_557)"/>
<path d="M57.5577 35.6123H56.0233C55.9184 35.1574 55.6497 34.757 55.2685 34.4875C54.8873 34.218 54.4202 34.0983 53.9564 34.1511C53.4925 34.2039 53.0643 34.4256 52.7535 34.7738C52.4426 35.1221 52.2708 35.5726 52.2708 36.0395C52.2708 36.5063 52.4426 36.9569 52.7535 37.3051C53.0643 37.6534 53.4925 37.8751 53.9564 37.9279C54.4202 37.9807 54.8873 37.8609 55.2685 37.5914C55.6497 37.322 55.9184 36.9216 56.0233 36.4667H57.5577C57.6502 36.4667 57.7389 36.5034 57.8043 36.5688C57.8697 36.6342 57.9065 36.7229 57.9065 36.8154V44.3132H58.7609V36.8154C58.7609 36.6574 58.7297 36.501 58.6693 36.355C58.6088 36.209 58.5202 36.0764 58.4085 35.9647C58.2968 35.853 58.1641 35.7643 58.0182 35.7039C57.8722 35.6434 57.7157 35.6123 57.5577 35.6123V35.6123ZM54.1576 37.1467C53.9369 37.1467 53.7211 37.0813 53.5376 36.9586C53.3541 36.836 53.2111 36.6617 53.1266 36.4578C53.0421 36.2539 53.02 36.0295 53.0631 35.8131C53.1062 35.5966 53.2124 35.3978 53.3685 35.2417C53.5246 35.0856 53.7234 34.9793 53.9399 34.9363C54.1564 34.8932 54.3807 34.9153 54.5847 34.9998C54.7886 35.0842 54.9629 35.2273 55.0855 35.4108C55.2081 35.5943 55.2735 35.8101 55.2735 36.0308C55.2735 36.3267 55.156 36.6106 54.9467 36.8199C54.7374 37.0291 54.4536 37.1467 54.1576 37.1467V37.1467Z" fill="#9CEBFF"/>
<path d="M63.6954 35.9959V34.2522C63.6954 33.9285 63.5668 33.6181 63.3379 33.3892C63.109 33.1603 62.7986 33.0317 62.4748 33.0317H59.7722C59.7264 33.0317 59.681 33.0227 59.6387 33.0051C59.5964 32.9876 59.558 32.9619 59.5256 32.9295C59.4932 32.8971 59.4675 32.8587 59.45 32.8164C59.4325 32.7741 59.4234 32.7287 59.4234 32.6829V23.4241L59.0224 23.6333L58.5691 23.8775V32.5958C58.5691 32.9149 58.6959 33.2209 58.9215 33.4465C59.1471 33.6721 59.4531 33.7989 59.7722 33.7989H62.4749C62.572 33.7989 62.6651 33.8375 62.7338 33.9061C62.8025 33.9748 62.8411 34.0679 62.8411 34.1651V35.9087C62.3885 36.0136 61.9904 36.2813 61.7225 36.6609C61.4547 37.0404 61.3358 37.5052 61.3886 37.9667C61.4414 38.4283 61.6622 38.8542 62.0088 39.1635C62.3554 39.4727 62.8037 39.6436 63.2683 39.6436C63.7328 39.6436 64.1811 39.4727 64.5277 39.1635C64.8744 38.8542 65.0951 38.4283 65.1479 37.9667C65.2007 37.5052 65.0818 37.0404 64.814 36.6609C64.5461 36.2813 64.148 36.0136 63.6955 35.9087L63.6954 35.9959ZM63.2595 38.9601C63.0388 38.9601 62.823 38.8947 62.6395 38.7721C62.456 38.6494 62.3129 38.4751 62.2285 38.2712C62.144 38.0673 62.1219 37.8429 62.165 37.6265C62.208 37.41 62.3143 37.2111 62.4704 37.0551C62.6265 36.899 62.8253 36.7927 63.0418 36.7497C63.2582 36.7066 63.4826 36.7287 63.6865 36.8132C63.8904 36.8976 64.0647 37.0407 64.1874 37.2242C64.31 37.4077 64.3754 37.6235 64.3754 37.8442C64.3754 37.9907 64.3466 38.1358 64.2905 38.2712C64.2344 38.4066 64.1522 38.5296 64.0486 38.6333C63.945 38.7369 63.8219 38.8191 63.6865 38.8752C63.5512 38.9313 63.406 38.9601 63.2595 38.9601V38.9601Z" fill="#F2F2F2"/>
<path d="M73.4426 32.3168C72.9777 32.3185 72.5296 32.4905 72.183 32.8002C71.8364 33.11 71.6153 33.5361 71.5616 33.9978C71.5079 34.4596 71.6253 34.925 71.8916 35.3061C72.1579 35.6871 72.5546 35.9573 73.0067 36.0656V36.4144C73.0067 36.5115 72.9681 36.6046 72.8994 36.6733C72.8308 36.742 72.7376 36.7805 72.6405 36.7805H69.1532V30.6429C69.1532 30.3238 69.0265 30.0178 68.8008 29.7921C68.5752 29.5665 68.2692 29.4397 67.9501 29.4397H66.1541C66.0492 28.9872 65.7815 28.5891 65.402 28.3212C65.0224 28.0534 64.5576 27.9345 64.0961 27.9873C63.6346 28.0401 63.2086 28.2608 62.8993 28.6075C62.5901 28.9541 62.4192 29.4024 62.4192 29.8669C62.4192 30.3315 62.5901 30.7798 62.8993 31.1264C63.2086 31.473 63.6346 31.6938 64.0961 31.7466C64.5576 31.7994 65.0224 31.6805 65.402 31.4126C65.7815 31.1448 66.0492 30.7467 66.1541 30.2941H68.0198C68.1123 30.2941 68.201 30.3309 68.2664 30.3963C68.3318 30.4617 68.3686 30.5504 68.3686 30.6429V44.3132H69.223V37.635H72.7103C72.8706 37.635 73.0293 37.6034 73.1774 37.5421C73.3255 37.4807 73.46 37.3908 73.5733 37.2775C73.6867 37.1642 73.7766 37.0296 73.8379 36.8815C73.8993 36.7334 73.9308 36.5747 73.9308 36.4144V36.0657C74.3507 35.9709 74.7259 35.7365 74.9951 35.4007C75.2644 35.065 75.4117 34.6478 75.4129 34.2174C75.4131 33.9678 75.3641 33.7206 75.2688 33.49C75.1734 33.2593 75.0336 33.0497 74.8572 32.8731C74.6808 32.6965 74.4714 32.5564 74.2409 32.4607C74.0103 32.365 73.7632 32.3157 73.5136 32.3155C73.4899 32.3155 73.4663 32.3159 73.4426 32.3168ZM64.3058 30.9742C64.0851 30.9741 63.8694 30.9087 63.6859 30.7861C63.5024 30.6634 63.3593 30.4891 63.2749 30.2852C63.1904 30.0813 63.1683 29.8569 63.2114 29.6405C63.2545 29.424 63.3607 29.2252 63.5168 29.0691C63.6729 28.913 63.8717 28.8068 64.0882 28.7637C64.3047 28.7207 64.529 28.7428 64.733 28.8272C64.9369 28.9117 65.1111 29.0547 65.2338 29.2382C65.3564 29.4217 65.4218 29.6375 65.4218 29.8582C65.4218 30.0048 65.393 30.1499 65.3369 30.2853C65.2808 30.4207 65.1986 30.5437 65.095 30.6473C64.9913 30.7509 64.8683 30.8331 64.7329 30.8892C64.5975 30.9453 64.4524 30.9742 64.3058 30.9742V30.9742ZM73.4426 35.3333C73.2219 35.3367 73.0052 35.2747 72.8198 35.1549C72.6344 35.0352 72.4886 34.8632 72.401 34.6606C72.3133 34.458 72.2877 34.234 72.3274 34.0169C72.3671 33.7998 72.4702 33.5993 72.6239 33.4408C72.7775 33.2823 72.9746 33.173 73.1904 33.1265C73.4062 33.0801 73.6309 33.0987 73.8361 33.18C74.0413 33.2612 74.2178 33.4015 74.3432 33.5831C74.4687 33.7647 74.5375 33.9794 74.541 34.2001L74.5411 34.2174C74.5412 34.5103 74.426 34.7916 74.2205 35.0004C74.0149 35.2091 73.7355 35.3287 73.4426 35.3333V35.3333Z" fill="#9CEBFF"/>
<path d="M55.5362 59.6132V50.6777C55.5371 50.6137 55.5189 50.5509 55.4838 50.4975C55.4487 50.444 55.3984 50.4023 55.3394 50.3777C55.2803 50.3531 55.2153 50.3467 55.1526 50.3595C55.0899 50.3722 55.0325 50.4034 54.9877 50.4491L45.8465 59.5904L36.3396 69.0973V75.6561H63.9462C64.2855 75.6622 64.6134 75.5333 64.8577 75.2976C65.102 75.062 65.2427 74.739 65.2488 74.3996C65.2491 74.3842 65.2491 74.3689 65.2488 74.3535V50.6777C65.2497 50.6137 65.2315 50.5509 65.1964 50.4975C65.1613 50.444 65.111 50.4023 65.0519 50.3777C64.9929 50.3531 64.9278 50.3467 64.8652 50.3595C64.8025 50.3722 64.7451 50.4034 64.7003 50.4491L55.5362 59.6132Z" fill="#005BA1"/>
<path d="M36.111 43.8446C30.7405 43.8446 26.3984 42.2677 26.3984 40.2338V53.1915V74.3535C26.3923 74.6929 26.5212 75.0208 26.7569 75.265C26.9925 75.5093 27.3156 75.65 27.6549 75.6561C27.6703 75.6564 27.6857 75.6564 27.701 75.6561H45.8236V40.2338C45.8236 42.2677 41.4815 43.8446 36.111 43.8446Z" fill="url(#paint2_linear_1229_557)"/>
<path d="M59.307 65.3037H55.3992C55.0458 65.3037 54.7593 65.5901 54.7593 65.9436V69.8514C54.7593 70.2048 55.0458 70.4913 55.3992 70.4913H59.307C59.6604 70.4913 59.9469 70.2048 59.9469 69.8514V65.9436C59.9469 65.5901 59.6604 65.3037 59.307 65.3037Z" fill="white"/>
<path d="M50.3029 65.3037H46.395C46.0416 65.3037 45.7551 65.5901 45.7551 65.9436V69.8514C45.7551 70.2048 46.0416 70.4913 46.395 70.4913H50.3029C50.6563 70.4913 50.9428 70.2048 50.9428 69.8514V65.9436C50.9428 65.5901 50.6563 65.3037 50.3029 65.3037Z" fill="white"/>
<path d="M41.2987 65.3037H37.3909C37.0375 65.3037 36.751 65.5901 36.751 65.9436V69.8514C36.751 70.2048 37.0375 70.4913 37.3909 70.4913H41.2987C41.6521 70.4913 41.9386 70.2048 41.9386 69.8514V65.9436C41.9386 65.5901 41.6521 65.3037 41.2987 65.3037Z" fill="white"/>
<path d="M45.8236 40.2338C45.8236 42.1763 41.4815 43.7532 36.111 43.7532C30.7405 43.7532 26.3984 42.2677 26.3984 40.2338C26.3984 38.1999 30.7405 36.8058 36.111 36.8058C41.4815 36.8058 45.8236 38.3827 45.8236 40.2338Z" fill="#EAEAEA"/>
<path d="M43.5384 40.0281C43.5384 41.285 40.2019 42.3134 36.0883 42.3134C31.9747 42.3134 28.6382 41.3307 28.6382 40.0281C28.6382 38.7255 32.1119 37.8114 36.1112 37.8114C40.1105 37.8114 43.5385 38.794 43.5385 40.0281" fill="#50E6FF"/>
<path d="M36.1109 40.5537C34.1127 40.5143 32.1214 40.7998 30.2148 41.3993C32.1159 42.0245 34.1103 42.3183 36.1109 42.2677C38.1116 42.3183 40.106 42.0245 42.0071 41.3993C40.1005 40.7998 38.1091 40.5143 36.1109 40.5537V40.5537Z" fill="#198AB3"/>
<path d="M36.1111 42.3134V34.3047C36.1111 33.5743 36.255 32.8509 36.5345 32.1761C36.814 31.5012 37.2238 30.888 37.7403 30.3715C38.2568 29.855 38.87 29.4452 39.5449 29.1657C40.2198 28.8862 40.9431 28.7423 41.6736 28.7423H49.64" stroke="white" stroke-width="0.75" stroke-miterlimit="10"/>
</g>
<defs>
<linearGradient id="paint0_linear_1229_557" x1="47.8698" y1="-15.1532" x2="51.8525" y2="130.615" gradientUnits="userSpaceOnUse">
<stop stop-color="#00ABDE"/>
<stop offset="1" stop-color="#007ED8"/>
</linearGradient>
<linearGradient id="paint1_linear_1229_557" x1="63.8001" y1="50.8519" x2="63.8001" y2="16.99" gradientUnits="userSpaceOnUse">
<stop stop-color="#0078D4"/>
<stop offset="0.16" stop-color="#1380DA"/>
<stop offset="0.53" stop-color="#3C91E5"/>
<stop offset="0.82" stop-color="#559CEC"/>
<stop offset="1" stop-color="#5EA0EF"/>
</linearGradient>
<linearGradient id="paint2_linear_1229_557" x1="26.3982" y1="57.9451" x2="45.8236" y2="57.9451" gradientUnits="userSpaceOnUse">
<stop stop-color="#005BA1"/>
<stop offset="0.07" stop-color="#0060A9"/>
<stop offset="0.36" stop-color="#0071C8"/>
<stop offset="0.52" stop-color="#0078D4"/>
<stop offset="0.64" stop-color="#0074CD"/>
<stop offset="0.81" stop-color="#006ABB"/>
<stop offset="0.99" stop-color="#005BA1"/>
</linearGradient>
<clipPath id="clip0_1229_557">
<rect width="99.2799" height="99.28" fill="white"/>
</clipPath>
</defs>
</svg>
