<?xml version="1.0" encoding="UTF-8"?>
<svg width="100px" height="100px" viewBox="0 0 100 100" version="1.1" xmlns="http://www.w3.org/2000/svg" xmlns:xlink="http://www.w3.org/1999/xlink">
    <!-- Generator: Sketch 55.2 (78181) - https://sketchapp.com -->
    <title>NA/introduction-to-securing-data-at-rest-on-azure</title>
    <desc>Created with Sketch.</desc>
    <defs>
        <rect id="path-1" x="0" y="0" width="96" height="96" rx="48"></rect>
        <filter x="-8.3%" y="-5.9%" width="116.7%" height="111.8%" filterUnits="objectBoundingBox" id="filter-3">
            <feOffset dx="0" dy="2" in="SourceAlpha" result="shadowOffsetOuter1"></feOffset>
            <feColorMatrix values="0 0 0 0 0   0 0 0 0 0   0 0 0 0 0  0 0 0 0.0963541667 0" type="matrix" in="shadowOffsetOuter1" result="shadowMatrixOuter1"></feColorMatrix>
            <feMerge>
                <feMergeNode in="shadowMatrixOuter1"></feMergeNode>
                <feMergeNode in="SourceGraphic"></feMergeNode>
            </feMerge>
        </filter>
        <filter x="-13.8%" y="-13.2%" width="127.6%" height="123.7%" filterUnits="objectBoundingBox" id="filter-4">
            <feOffset dx="0" dy="2" in="SourceAlpha" result="shadowOffsetOuter1"></feOffset>
            <feColorMatrix values="0 0 0 0 0   0 0 0 0 0   0 0 0 0 0  0 0 0 0.099071558 0" type="matrix" in="shadowOffsetOuter1" result="shadowMatrixOuter1"></feColorMatrix>
            <feMerge>
                <feMergeNode in="shadowMatrixOuter1"></feMergeNode>
                <feMergeNode in="SourceGraphic"></feMergeNode>
            </feMerge>
        </filter>
        <filter x="-26.5%" y="-18.4%" width="159.2%" height="142.8%" filterUnits="objectBoundingBox" id="filter-5">
            <feOffset dx="0" dy="2" in="SourceAlpha" result="shadowOffsetOuter1"></feOffset>
            <feColorMatrix values="0 0 0 0 0   0 0 0 0 0   0 0 0 0 0  0 0 0 0.0979393116 0" type="matrix" in="shadowOffsetOuter1" result="shadowMatrixOuter1"></feColorMatrix>
            <feMerge>
                <feMergeNode in="shadowMatrixOuter1"></feMergeNode>
                <feMergeNode in="SourceGraphic"></feMergeNode>
            </feMerge>
        </filter>
        <polygon id="path-6" points="0 -1.30714883e-13 11.156433 -1.30714883e-13 11.156433 10.359545 0 10.359545"></polygon>
        <filter x="-51.0%" y="-63.2%" width="204.0%" height="236.8%" filterUnits="objectBoundingBox" id="filter-8">
            <feOffset dx="0" dy="2" in="SourceAlpha" result="shadowOffsetOuter1"></feOffset>
            <feColorMatrix values="0 0 0 0 0   0 0 0 0 0   0 0 0 0 0  0 0 0 0.100769928 0" type="matrix" in="shadowOffsetOuter1" result="shadowMatrixOuter1"></feColorMatrix>
            <feMerge>
                <feMergeNode in="shadowMatrixOuter1"></feMergeNode>
                <feMergeNode in="SourceGraphic"></feMergeNode>
            </feMerge>
        </filter>
    </defs>
    <g id="Badges" stroke="none" stroke-width="1" fill="none" fill-rule="evenodd">
        <g id="N/A-36" transform="translate(-50.000000, -1260.000000)">
            <g id="NA/introduction-to-securing-data-at-rest-on-azure" transform="translate(50.000000, 1260.000000)">
                <g id="Mask" transform="translate(2.000000, 2.000000)">
                    <mask id="mask-2" fill="white">
                        <use xlink:href="#path-1"></use>
                    </mask>
                    <use id="BG" fill="#55A2FF" xlink:href="#path-1"></use>
                    <g id="Book-1" filter="url(#filter-3)" mask="url(#mask-2)">
                        <g transform="translate(24.000000, 19.000000)" id="Book">
                            <g transform="translate(0.167481, 0.387536)">
                                <path d="M0.832518557,55.6124645 L0.832518557,61.6124645 C0.839673316,62.8067453 1.6709668,63.6146507 2.83251856,63.6124645 L46.8325186,63.6124645 L46.8325186,55.6124645 L0.832518557,55.6124645 Z" id="Shape" fill="#BE9555" fill-rule="nonzero"></path>
                                <path d="M2.83251856,56.6124645 L2.83251856,60.6124645 C2.86672747,61.717521 3.75260508,62.6147293 4.78807411,62.6124645 L46.8325186,62.6124645 L46.8325186,56.6124645 L2.83251856,56.6124645 Z" id="Shape" fill="#FFFFFF" fill-rule="nonzero"></path>
                                <polygon id="Shape" fill="#4F4D52" fill-rule="nonzero" opacity="0.2" points="2.83251856 56.6124645 2.83251856 57.6124645 46.8325186 57.6124645 46.8325186 56.6124645"></polygon>
                                <polygon id="Shape" fill="#4F4D52" fill-rule="nonzero" opacity="0.2" points="20.8325186 56.6124645 26.8325186 62.6124645 20.8325186 62.6124645"></polygon>
                                <polygon id="Shape" fill="#EF6F59" fill-rule="nonzero" points="21.8325186 66.6124645 17.8325186 64.6124645 14.8325186 66.6124645 14.8325186 56.6124645 21.8325186 56.6124645"></polygon>
                                <polygon id="Shape" fill="#F7CB64" fill-rule="nonzero" points="46.8325186 55.6124645 0.832518557 55.6124645 0.832518557 0.612464493 46.8325186 0.612464493"></polygon>
                                <path d="M23.8325186,51.6124645 C23.8325186,52.7164645 22.9384486,53.6124645 21.8325186,53.6124645 L0.832518557,53.6124645 L0.832518557,55.6124645 L46.8325186,55.6124645 L46.8325186,3.61246449 L25.8325186,3.61246449 C24.7265885,3.61246449 23.8325186,4.50746449 23.8325186,5.61246449 L23.8325186,51.6124645 Z" id="Fill-361" fill-opacity="0.126868207" fill="#000000"></path>
                            </g>
                        </g>
                    </g>
                    <g id="Group-7" opacity="0.983439" mask="url(#mask-2)">
                        <g transform="translate(34.000000, 29.000000)">
                            <g id="Database-Add">
                                <g id="Database" filter="url(#filter-4)">
                                    <g id="Lower" transform="translate(0.000000, 19.720000)">
                                        <path d="M14.5,10.3753658 C6.77112498,10.3753658 0.504753244,8.04116595 0.504753244,5.15992423 L0.504753244,12.1138463 C0.504753244,14.995088 6.77112498,17.3292879 14.5,17.3292879 C22.2294582,17.3292879 28.4952468,14.995088 28.4952468,12.1138463 L28.4952468,5.15992423 C28.4952468,8.04116595 22.2294582,10.3753658 14.5,10.3753658" id="Fill-101" fill="#D8B157"></path>
                                        <path d="M14.5,12.6742165 L14.5,14.9904521 C14.5,15.6481772 13.9489372,16.1720393 13.2876617,16.1511776 C6.12617736,15.9222776 0.504753244,13.6836942 0.504753244,10.9548593 L0.504753244,12.1138463 C0.504753244,14.995088 6.77112498,17.3292879 14.5,17.3292879 C22.2294582,17.3292879 28.4952468,14.995088 28.4952468,12.1138463 L28.4952468,6.31891125 C28.4952468,9.05933604 22.827755,11.3048734 15.6231186,11.5175475 C14.9968313,11.5360913 14.5,12.051261 14.5,12.6742165" id="Fill-106" fill="#F7CB64"></path>
                                        <path d="M28.42,5.22 C28.42,8.10376 22.1879,10.44 14.5,10.44 C6.81268,10.44 0.58,8.10376 0.58,5.22 C0.58,2.33624 6.81268,0 14.5,0 C22.1879,0 28.42,2.33624 28.42,5.22" id="Fill-100" stroke="#D6B15B" stroke-width="0.25" fill="#F9D98E"></path>
                                    </g>
                                    <g id="Mid" transform="translate(0.000000, 9.860000)">
                                        <path d="M14.5,10.3839762 C6.77112498,10.3839762 0.504753244,8.04977633 0.504753244,5.16853462 L0.504753244,12.1224567 C0.504753244,15.0036984 6.77112498,17.3378983 14.5,17.3378983 C22.2294582,17.3378983 28.4952468,15.0036984 28.4952468,12.1224567 L28.4952468,5.16853462 C28.4952468,8.04977633 22.2294582,10.3839762 14.5,10.3839762" id="Fill-102" fill="#D8B157"></path>
                                        <path d="M14.5,12.6828269 L14.5,14.9990625 C14.5,15.6567876 13.9489372,16.1806497 13.2876617,16.159788 C6.12617736,15.930888 0.504753244,13.6923046 0.504753244,10.9634697 L0.504753244,12.1224567 C0.504753244,15.0036984 6.77112498,17.3378983 14.5,17.3378983 C22.2294582,17.3378983 28.4952468,15.0036984 28.4952468,12.1224567 L28.4952468,6.32752163 C28.4952468,9.06794643 22.827755,11.3134838 15.6231186,11.5261579 C14.9968313,11.5447017 14.5,12.0598714 14.5,12.6828269" id="Fill-107" fill="#F7CB64"></path>
                                        <path d="M28.42,5.22 C28.42,8.10376 22.1879,10.44 14.5,10.44 C6.81268,10.44 0.58,8.10376 0.58,5.22 C0.58,2.33624 6.81268,0 14.5,0 C22.1879,0 28.42,2.33624 28.42,5.22" id="Fill-103" stroke="#D6B15B" stroke-width="0.25" fill="#F9D98E"></path>
                                    </g>
                                    <g id="Top">
                                        <path d="M14.5,10.3925866 C6.77112498,10.3925866 0.504753244,8.05838672 0.504753244,5.17714501 L0.504753244,12.1310671 C0.504753244,15.0123088 6.77112498,17.3465086 14.5,17.3465086 C22.2294582,17.3465086 28.4952468,15.0123088 28.4952468,12.1310671 L28.4952468,5.17714501 C28.4952468,8.05838672 22.2294582,10.3925866 14.5,10.3925866" id="Fill-104" fill="#D8B157"></path>
                                        <path d="M14.5,12.6914373 L14.5,15.0076729 C14.5,15.665398 13.9489372,16.1892601 13.2876617,16.1683983 C6.12617736,15.9394984 0.504753244,13.700915 0.504753244,10.9720801 L0.504753244,12.1310671 C0.504753244,15.0123088 6.77112498,17.3465086 14.5,17.3465086 C22.2294582,17.3465086 28.4952468,15.0123088 28.4952468,12.1310671 L28.4952468,6.33613202 C28.4952468,9.07655681 22.827755,11.3220942 15.6231186,11.5347683 C14.9968313,11.5533121 14.5,12.0684818 14.5,12.6914373" id="Fill-108" fill="#F7CB64"></path>
                                        <path d="M27.8689079,5.22 C27.8689079,8.10376 21.8835364,10.44 14.5,10.44 C7.11702062,10.44 1.13109212,8.10376 1.13109212,5.22 C1.13109212,2.33624 7.11702062,0 14.5,0 C21.8835364,0 27.8689079,2.33624 27.8689079,5.22" id="Fill-105" stroke="#D6B15B" stroke-width="1.25" fill="#F9D98D"></path>
                                    </g>
                                </g>
                            </g>
                            <g id="Group-6" opacity="0.8492141" transform="translate(6.960000, 12.120000)">
                                <g id="Blue-Lock" filter="url(#filter-5)">
                                    <g id="Lower" transform="translate(0.000000, 7.238400)">
                                        <path d="M14.9416514,13.1174027 C14.9416514,13.8650712 14.330402,14.4768 13.5833194,14.4768 L1.35833194,14.4768 C0.611249374,14.4768 5.32907052e-14,13.8650712 5.32907052e-14,13.1174027 L5.32907052e-14,2.92192294 L14.9416514,2.92192294 L14.9416514,13.1174027" id="Fill-53" fill="#546670"></path>
                                        <path d="M14.9416514,2.78910826 C14.9416514,3.51958899 14.330402,4.11725505 13.5833194,4.11725505 L1.35833194,4.11725505 C0.611249374,4.11725505 5.32907052e-14,3.51958899 5.32907052e-14,2.78910826 L5.32907052e-14,1.46096147 C5.32907052e-14,0.730480734 0.611249374,0.132814679 1.35833194,0.132814679 L13.5833194,0.132814679 C14.330402,0.132814679 14.9416514,0.730480734 14.9416514,1.46096147 L14.9416514,2.78910826" id="Fill-54" fill="#6E828F"></path>
                                        <path d="M13.5833194,4.47343987 L8.14999166,4.47343987 C7.77475246,4.47343987 7.47082569,4.77601585 7.47082569,5.14958732 L7.47082569,12.9252831 C7.47082569,13.2988545 7.16689892,13.6014305 6.79165972,13.6014305 L1.35833194,13.6014305 C0.611249374,13.6014305 5.32907052e-14,12.9928978 5.32907052e-14,12.2491356 L5.32907052e-14,12.9252831 C5.32907052e-14,13.6690453 0.611249374,14.277578 1.35833194,14.277578 L13.5833194,14.277578 C14.330402,14.277578 14.9416514,13.6690453 14.9416514,12.9252831 L14.9416514,3.12114495 C14.9416514,3.86490716 14.330402,4.47343987 13.5833194,4.47343987" id="Fill-55" fill="#182A37"></path>
                                        <path d="M4.3828844,2.12503486 C4.3828844,2.67488763 3.75847279,3.12114495 2.98833028,3.12114495 C2.21818776,3.12114495 1.59377615,2.67488763 1.59377615,2.12503486 C1.59377615,1.57518209 2.21818776,1.12892477 2.98833028,1.12892477 C3.75847279,1.12892477 4.3828844,1.57518209 4.3828844,2.12503486" id="Fill-60" fill="#30404D"></path>
                                    </g>
                                    <g id="Top" transform="translate(1.992220, 0.000000)">
                                        <mask id="mask-7" fill="white">
                                            <use xlink:href="#path-6"></use>
                                        </mask>
                                        <g id="Clip-62"></g>
                                        <path d="M11.156433,9.36343486 C11.156433,9.91328763 10.5320214,10.359545 9.7618789,10.359545 C8.99173638,10.359545 8.36732477,9.91328763 8.36732477,9.36343486 C8.36732477,8.81358209 8.99173638,8.36732477 9.7618789,8.36732477 C10.5320214,8.36732477 11.156433,8.81358209 11.156433,9.36343486" id="Fill-61" fill="#30404D" mask="url(#mask-7)"></path>
                                        <path d="M5.3789945,0 C2.41315141,0 0,2.39873593 0,5.34686191 L0,10.0136698 C0.246425185,10.2238683 0.604464506,10.359545 1.00856147,10.359545 C1.41265843,10.359545 1.77069775,10.2238683 2.01712294,10.0136698 L2.01712294,5.34686191 C2.01712294,3.50419963 3.52525852,2.00507322 5.3789945,2.00507322 C7.23273047,2.00507322 8.74086606,3.50419963 8.74086606,5.34686191 L8.74086606,9.35700835 C8.74086606,9.72594182 9.19236541,10.0253661 9.74942752,10.0253661 C10.3064896,10.0253661 10.757989,9.72594182 10.757989,9.35700835 L10.757989,5.34686191 C10.757989,2.39873593 8.34483759,0 5.3789945,0" id="Fill-63" fill="#E1E4E1" mask="url(#mask-7)"></path>
                                        <path d="M3.40802466,2.24625368 C2.12669505,2.78644807 1.32814679,4.09375864 1.32814679,5.49377916 L1.32814679,8.91969598 C1.32814679,9.35747433 0.916089248,9.68413462 0.497390972,9.56799618 C0.288871927,9.5100943 0.103927486,9.43378431 0,9.34375192 L0,10.0131378 C0.243382899,10.2236596 0.597001982,10.359545 0.996110092,10.359545 C1.11165886,10.359545 1.22189505,10.3451532 1.32814679,10.3240675 C1.3952182,10.3110145 1.45996536,10.2936104 1.52238826,10.2731942 C1.55459582,10.262484 1.58447912,10.2490963 1.6150265,10.2367126 C1.66084756,10.2179698 1.70534048,10.1978883 1.74784117,10.1754638 C1.77075171,10.1630802 1.79366224,10.151366 1.81557666,10.1379782 C1.87899567,10.0998232 1.93909431,10.0593254 1.99222018,10.0131378 L1.99222018,5.33915103 C1.99222018,3.60644574 3.30509328,2.17797632 4.98055046,2.00929109 C4.48183134,1.95841776 3.95223281,2.01665433 3.40802466,2.24625368" id="Fill-64" fill="#C5CCCD" mask="url(#mask-7)"></path>
                                        <path d="M5.32039978,0 C5.20587056,0 5.09372028,0.00969118722 4.98055046,0.0170431223 C7.82033142,0.190816134 10.0782903,2.51168838 10.0782903,5.34686191 L10.0782903,8.92190746 C10.0782903,9.35901342 9.65653733,9.685172 9.22798733,9.56921193 C9.01456195,9.51139898 8.82526588,9.4352062 8.71889304,9.34531209 L8.71889304,10.0136698 C8.96800259,10.2238683 9.33028197,10.359545 9.73844101,10.359545 C10.1469399,10.359545 10.5088794,10.2238683 10.757989,10.0136698 L10.757989,5.34686191 C10.757989,2.39873593 8.31855053,0 5.32039978,0" id="Fill-65" fill="#C5CCCD" mask="url(#mask-7)"></path>
                                    </g>
                                </g>
                                <g id="Azure-black" filter="url(#filter-8)" transform="translate(3.920800, 13.572000)" fill="#FFFFFF">
                                    <polygon id="Path" points="1.77541594 6.04697926 7.77199865 6.04758645 4.5423689 0.449925859 3.55872532 3.15251695 5.4476853 5.3997175"></polygon>
                                    <polygon id="Path" points="4.28492144 0.0242874958 1.97639497 1.96121528 0 5.38453781 1.78270219 5.38453781 1.78270219 5.3900025"></polygon>
                                </g>
                            </g>
                        </g>
                    </g>
                </g>
                <g id="Azure-Border" stroke="#0078D4" stroke-width="4">
                    <rect x="2" y="2" width="96" height="96" rx="48"></rect>
                </g>
            </g>
        </g>
    </g>
</svg>