<?xml version="1.0" encoding="UTF-8"?>
<svg width="107px" height="107px" viewBox="0 0 107 107" version="1.1" xmlns="http://www.w3.org/2000/svg" xmlns:xlink="http://www.w3.org/1999/xlink">
    <!-- Generator: Sketch 59.1 (86144) - https://sketch.com -->
    <title>Implement virtual machine host security in Azure/protect-your-servers-and-vms-from-brute-force-and-malware-attacks-with-azure-security-center</title>
    <desc>Created with Sketch.</desc>
    <defs>
        <rect id="path-1" x="0" y="0" width="96" height="96" rx="48"></rect>
        <path d="M48.192592,-2.20268248e-13 C49.2510605,-2.20268248e-13 50.1284991,0.873520311 50.1284991,1.93590716 L50.1284991,1.93590716 L50.1284991,9.71096317 C69.6457149,10.6991129 85.3368675,26.4259032 86.3284218,45.9461409 L86.3284218,45.9461409 L94.0680213,45.9461409 C95.1264898,45.9461409 96,46.8235896 96,47.8820481 C96,48.9405166 95.1304081,49.8179552 94.0680213,49.8179552 L94.0680213,49.8179552 L86.3284218,49.8179552 C85.3402721,69.3381929 69.652766,85.1361179 50.1284991,86.1276723 L50.1284991,86.1276723 L50.1284991,93.8318162 C50.1284991,94.8902847 49.2510504,95.7677234 48.192592,95.7677234 C47.1341235,95.7677234 46.2566848,94.8942031 46.2566848,93.8318162 L46.2566848,93.8318162 L46.2566848,86.1276723 C26.5511061,85.1395226 10.8913609,69.342222 9.90768353,49.8179552 L9.90768353,49.8179552 L1.93590716,49.8179552 C0.877438662,49.8179552 -1.77635684e-12,48.9405065 -1.77635684e-12,47.8820481 C-1.77635684e-12,46.8235796 0.873520311,45.9461409 1.93590716,45.9461409 L1.93590716,45.9461409 L9.90768353,45.9461409 C10.8988551,26.4259032 26.5551353,10.6946405 46.2566848,9.71096317 L46.2566848,9.71096317 L46.2566848,1.93590716 C46.2566848,0.877438662 47.1302051,-2.20268248e-13 48.192592,-2.20268248e-13 Z M48.1178311,13.4684503 L48.0866051,13.4684503 C29.0972083,13.4835596 13.6655534,28.9242801 13.6655534,47.9207279 C13.6655534,66.925234 29.1133249,82.3770347 48.1178311,82.3770347 C67.1223372,82.3770347 82.5741379,66.925234 82.5741379,47.9207279 C82.5741379,28.9162218 67.1223372,13.4684503 48.1178311,13.4684503 L48.1178311,13.4684503 Z" id="path-3"></path>
        <filter x="-1.0%" y="-1.0%" width="102.1%" height="104.2%" filterUnits="objectBoundingBox" id="filter-4">
            <feOffset dx="0" dy="2" in="SourceAlpha" result="shadowOffsetOuter1"></feOffset>
            <feColorMatrix values="0 0 0 0 0   0 0 0 0 0   0 0 0 0 0  0 0 0 0.1 0" type="matrix" in="shadowOffsetOuter1"></feColorMatrix>
        </filter>
        <filter x="-13.6%" y="-13.9%" width="127.2%" height="128.7%" filterUnits="objectBoundingBox" id="filter-5">
            <feOffset dx="0" dy="2" in="SourceAlpha" result="shadowOffsetOuter1"></feOffset>
            <feColorMatrix values="0 0 0 0 0   0 0 0 0 0   0 0 0 0 0  0 0 0 0.1 0" type="matrix" in="shadowOffsetOuter1" result="shadowMatrixOuter1"></feColorMatrix>
            <feMerge>
                <feMergeNode in="shadowMatrixOuter1"></feMergeNode>
                <feMergeNode in="SourceGraphic"></feMergeNode>
            </feMerge>
        </filter>
        <filter x="-13.8%" y="-13.8%" width="127.6%" height="127.6%" filterUnits="objectBoundingBox" id="filter-6">
            <feOffset dx="0" dy="2" in="SourceAlpha" result="shadowOffsetOuter1"></feOffset>
            <feColorMatrix values="0 0 0 0 0   0 0 0 0 0   0 0 0 0 0  0 0 0 0.1 0" type="matrix" in="shadowOffsetOuter1" result="shadowMatrixOuter1"></feColorMatrix>
            <feMerge>
                <feMergeNode in="shadowMatrixOuter1"></feMergeNode>
                <feMergeNode in="SourceGraphic"></feMergeNode>
            </feMerge>
        </filter>
        <filter x="-13.6%" y="-13.9%" width="127.2%" height="128.7%" filterUnits="objectBoundingBox" id="filter-7">
            <feOffset dx="0" dy="2" in="SourceAlpha" result="shadowOffsetOuter1"></feOffset>
            <feColorMatrix values="0 0 0 0 0   0 0 0 0 0   0 0 0 0 0  0 0 0 0.1 0" type="matrix" in="shadowOffsetOuter1" result="shadowMatrixOuter1"></feColorMatrix>
            <feMerge>
                <feMergeNode in="shadowMatrixOuter1"></feMergeNode>
                <feMergeNode in="SourceGraphic"></feMergeNode>
            </feMerge>
        </filter>
        <filter x="-10.0%" y="-8.5%" width="120.0%" height="117.0%" filterUnits="objectBoundingBox" id="filter-8">
            <feOffset dx="0" dy="2" in="SourceAlpha" result="shadowOffsetOuter1"></feOffset>
            <feColorMatrix values="0 0 0 0 0   0 0 0 0 0   0 0 0 0 0  0 0 0 0.102921196 0" type="matrix" in="shadowOffsetOuter1" result="shadowMatrixOuter1"></feColorMatrix>
            <feMerge>
                <feMergeNode in="shadowMatrixOuter1"></feMergeNode>
                <feMergeNode in="SourceGraphic"></feMergeNode>
            </feMerge>
        </filter>
        <linearGradient x1="78.4210223%" y1="-7.24023438%" x2="15.5786468%" y2="110.793945%" id="linearGradient-9">
            <stop stop-color="#FFFFFF" offset="0%"></stop>
            <stop stop-color="#000000" stop-opacity="0.5" offset="100%"></stop>
        </linearGradient>
        <rect id="path-10" x="-3" y="-3" width="106" height="106" rx="53"></rect>
        <filter x="-0.5%" y="-0.5%" width="101.9%" height="101.9%" filterUnits="objectBoundingBox" id="filter-11">
            <feOffset dx="1" dy="1" in="SourceAlpha" result="shadowOffsetOuter1"></feOffset>
            <feMorphology radius="4" operator="erode" in="SourceAlpha" result="shadowInner"></feMorphology>
            <feOffset dx="1" dy="1" in="shadowInner" result="shadowInner"></feOffset>
            <feComposite in="shadowOffsetOuter1" in2="shadowInner" operator="out" result="shadowOffsetOuter1"></feComposite>
            <feColorMatrix values="0 0 0 0 0   0 0 0 0 0   0 0 0 0 0  0 0 0 0.15 0" type="matrix" in="shadowOffsetOuter1"></feColorMatrix>
        </filter>
    </defs>
    <g id="Badges" stroke="none" stroke-width="1" fill="none" fill-rule="evenodd">
        <g id="Implement-virtual-machine-host-security-in-Azure" transform="translate(-47.000000, -257.000000)">
            <g id="Implement-virtual-machine-host-security-in-Azure/protect-your-servers-and-vms-from-brute-force-and-malware-attacks-with-azure-security-center" transform="translate(50.000000, 260.000000)">
                <g id="Mask" transform="translate(2.000000, 2.000000)">
                    <g id="Circle-">
                        <mask id="mask-2" fill="white">
                            <use xlink:href="#path-1"></use>
                        </mask>
                        <g id="BG"></g>
                        <g id="Color/Blue" mask="url(#mask-2)" fill="#55A2FF" fill-rule="evenodd">
                            <rect id="Rectangle" x="0" y="0" width="96" height="96"></rect>
                        </g>
                    </g>
                    <g id="Group-2" transform="translate(1.000000, 0.000000)">
                        <g id="Combined-Shape">
                            <use fill="black" fill-opacity="1" filter="url(#filter-4)" xlink:href="#path-3"></use>
                            <use fill="#C2423D" fill-rule="evenodd" xlink:href="#path-3"></use>
                        </g>
                        <g id="Group" filter="url(#filter-5)" transform="translate(21.963855, 50.710843)">
                            <path d="M9.06759055,0.0385599541 C8.32815084,0.0385599541 7.72016553,0.649272507 7.72016553,1.38598497 C7.72016553,2.12269743 8.32814383,2.73340998 9.06759055,2.73340998 L10.3739317,2.73340998 C10.8997492,2.72519321 11.321525,3.13324866 11.3297278,3.65905921 L11.3297278,4.83668021 L10.823078,4.83668021 C7.72292783,4.8175124 5.21709168,7.24941159 5.00620379,10.3030094 L3.68345714,10.3030094 C1.67329168,10.3084849 0.0274126219,11.9352172 1.20792265e-13,13.9453827 L1.20792265e-13,15.2517238 C1.20792265e-13,15.9911635 0.610712553,16.5964146 1.34742501,16.5964146 C2.08413748,16.5964146 2.69485003,15.9884363 2.69485003,15.2517238 L2.69485003,13.9673268 C2.71128358,13.4223414 3.1412481,12.9978594 3.6862615,12.9951252 L4.93504314,12.9951252 L4.93504314,18.2998531 L3.68345714,18.2998531 C1.67055743,18.3162867 0.0274126219,19.9485365 0.00273425129,21.9614363 L0.00273425129,23.2650431 C0.00273425129,24.0044828 0.613446804,24.6124682 1.35015927,24.6124682 C2.0019557,24.6124682 2.55238853,24.1359442 2.67290591,23.5170149 L2.7002975,23.4896303 L2.7002975,21.9779399 C2.71398979,21.427472 3.14942982,21.0002698 3.69991173,20.9920671 L4.93775636,20.9920671 L4.93775636,22.1560168 C4.92679832,25.3958241 7.55317289,28.0440517 10.7929732,28.0578016 L18.0036846,28.0578016 C21.243492,28.0632686 23.8889853,25.4287053 23.897195,22.1888979 L23.897195,20.9921372 L25.1350397,20.9921372 C25.6855076,21.0003539 26.1209125,21.4303185 26.1346539,21.9808144 L26.1346539,23.2624772 C26.1346539,24.0019169 26.7453664,24.6099022 27.4820789,24.6099022 C28.2187914,24.6099022 28.8267697,23.9991896 28.8267697,23.2624772 L28.8267697,21.9588703 C28.8021193,19.9459706 27.1616807,18.3110285 25.1460468,18.2945529 L23.8944608,18.2945529 L23.8944608,12.9898249 L25.1405082,12.9898249 C25.6854935,12.9925592 26.1181783,13.4170552 26.1319196,13.9620266 L26.1319196,15.2464236 C26.1319196,15.9858633 26.7426322,16.5938486 27.4793447,16.5938486 C28.2160571,16.5938486 28.8240354,15.983136 28.8240354,15.2464236 L28.8240354,13.9400824 C28.7966438,11.929917 27.153478,10.3031777 25.1433125,10.2977092 L23.8123631,10.2977092 C23.598748,7.26878972 21.1394572,4.84238708 18.0557756,4.83411422 L17.4943567,4.83411422 L17.4943567,3.65649322 C17.5025735,3.13067566 17.9243212,2.72537549 18.4501528,2.73084399 L19.756494,2.73084399 C20.4959337,2.73084399 21.1011847,2.12013144 21.1011847,1.38341898 C21.1011847,0.646713528 20.4932064,0.0359072545 19.756494,0.0359072545 L18.4583556,0.0359072545 C16.4591271,0.0223016753 14.8159823,1.64359351 14.7967724,3.64275185 L14.7967724,4.83404411 L14.0244516,4.83404411 L14.0244516,3.64275185 C14.0080251,1.6435234 12.3648312,0.022252599 10.3628685,0.0359072545 L9.06759055,0.0385599541 Z" id="Path" fill="#3A3A3A"></path>
                            <path d="M19.6906146,8.500977e-05 C20.4273271,8.500977e-05 21.0353054,0.610891284 21.0353054,1.34759673 C21.0353054,2.0843092 20.4300543,2.69502175 19.6906146,2.69502175 L19.6906146,2.69502175 L18.3842735,2.69502175 C17.8584419,2.68955325 17.4366942,3.09485342 17.4284774,3.62067097 L17.4284774,3.62067097 L17.4284774,4.79829197 L17.9898963,4.79829197 C21.0735779,4.80656483 23.5328687,7.23296747 23.7464838,10.2618869 L23.7464838,10.2618869 L25.0774332,10.2618869 C27.0875987,10.2673554 28.7307645,11.8940947 28.7581561,13.9042602 L28.7581561,13.9042602 L28.7581561,15.2106013 C28.7581561,15.9473138 28.1501778,16.5580263 27.4134653,16.5580263 C26.6767529,16.5580263 26.0660403,15.950041 26.0660403,15.2106013 L26.0660403,15.2106013 L26.0660403,13.9262043 C26.0522989,13.381233 25.6196142,12.956737 25.0746288,12.9540027 L25.0746288,12.9540027 L23.8285814,12.9540027 L23.8285814,18.2587306 L25.0801675,18.2587306 C27.0958014,18.2752063 28.73624,19.9101483 28.7608903,21.923048 L28.7608903,21.923048 L28.7608903,23.2266549 C28.7608903,23.9633674 28.152912,24.5740799 27.4161996,24.5740799 C26.6794871,24.5740799 26.0687746,23.9660946 26.0687746,23.2266549 L26.0687746,23.2266549 L26.0687746,21.9449921 C26.0550332,21.3944962 25.6196282,20.9645317 25.0691603,20.9563149 L25.0691603,20.9563149 L23.8313157,20.9563149 L23.8313157,22.1530757 C23.8231059,25.392883 21.1776126,28.0274463 17.9378053,28.0219793 L17.9378053,28.0219793 L14.6570122,28.021 L14.6570122,4.798 L14.7308931,4.79822186 L14.7308931,3.60692961 C14.750103,1.60777126 16.3932478,-0.0135205695 18.3924762,8.500977e-05 L18.3924762,8.500977e-05 Z" id="Combined-Shape" fill="#2B2A29"></path>
                            <path d="M10.7710291,7.53181067 L18.009083,7.53181067 C19.7618082,7.51537712 21.1803939,8.90931245 21.1996037,10.6593034 L21.1996037,12.8338044 L7.62996935,12.8338044 L7.62996935,10.7086601 C7.62178857,8.95866919 9.02124849,7.54281779 10.7712394,7.53461503 L10.7710291,7.53181067 Z" id="Path" fill="#DF5142"></path>
                            <path d="M14.6569337,7.53181067 L14.6569337,12.8328107 L7.62996935,12.8338044 L7.62996935,10.7086601 C7.62178857,8.95866919 9.02124849,7.54281779 10.7712394,7.53461503 L10.7710291,7.53181067 L14.6569337,7.53181067 Z" id="Combined-Shape" fill="#494949"></path>
                            <path d="M7.62979502,15.5312484 L13.0659773,15.5312484 L13.0659773,25.3654548 L10.82305,25.3654548 C9.05938779,25.3709144 7.63526352,23.9577902 7.62979502,22.1968623 L7.62979502,15.5312484 Z" id="Path" fill="#494949"></path>
                            <path d="M15.7610377,15.5312484 L21.19722,15.5312484 L21.19722,22.1669258 C21.2081781,23.930588 19.8005084,25.3574465 18.0341119,25.3683835 L15.7610377,25.3683835 L15.7610377,15.5312484 Z" id="Path" fill="#494949"></path>
                            <path d="M16.4097374,15.7745267 L21.8459198,15.7745267 L21.8459198,25.608733 L19.6029924,25.608733 C17.8393302,25.6141927 16.4152059,24.2010685 16.4097374,22.4401406 L16.4097374,15.7745267 Z" id="Path" fill="#494949" transform="translate(19.127829, 20.691630) scale(-1, 1) translate(-19.127829, -20.691630) "></path>
                        </g>
                        <g id="Group" filter="url(#filter-6)" transform="translate(53.000000, 36.000000)">
                            <path d="M9.06759055,0.0385599541 C8.32815084,0.0385599541 7.72016553,0.649272507 7.72016553,1.38598497 C7.72016553,2.12269743 8.32814383,2.73340998 9.06759055,2.73340998 L10.3739317,2.73340998 C10.8997492,2.72519321 11.321525,3.13324866 11.3297278,3.65905921 L11.3297278,4.83668021 L10.823078,4.83668021 C7.72292783,4.8175124 5.21709168,7.24941159 5.00620379,10.3030094 L3.68345714,10.3030094 C1.67329168,10.3084849 0.0274126219,11.9352172 1.20792265e-13,13.9453827 L1.20792265e-13,15.2517238 C1.20792265e-13,15.9911635 0.610712553,16.5964146 1.34742501,16.5964146 C2.08413748,16.5964146 2.69485003,15.9884363 2.69485003,15.2517238 L2.69485003,13.9673268 C2.71128358,13.4223414 3.1412481,12.9978594 3.6862615,12.9951252 L4.93504314,12.9951252 L4.93504314,18.2998531 L3.68345714,18.2998531 C1.67055743,18.3162867 0.0274126219,19.9485365 0.00273425129,21.9614363 L0.00273425129,23.2650431 C0.00273425129,24.0044828 0.613446804,24.6124682 1.35015927,24.6124682 C2.0019557,24.6124682 2.55238853,24.1359442 2.67290591,23.5170149 L2.7002975,23.4896303 L2.7002975,21.9779399 C2.71398979,21.427472 3.14942982,21.0002698 3.69991173,20.9920671 L4.93775636,20.9920671 L4.93775636,22.1560168 C4.92679832,25.3958241 7.55317289,28.0440517 10.7929732,28.0578016 L18.0036846,28.0578016 C21.243492,28.0632686 23.8889853,25.4287053 23.897195,22.1888979 L23.897195,20.9921372 L25.1350397,20.9921372 C25.6855076,21.0003539 26.1209125,21.4303185 26.1346539,21.9808144 L26.1346539,23.2624772 C26.1346539,24.0019169 26.7453664,24.6099022 27.4820789,24.6099022 C28.2187914,24.6099022 28.8267697,23.9991896 28.8267697,23.2624772 L28.8267697,21.9588703 C28.8021193,19.9459706 27.1616807,18.3110285 25.1460468,18.2945529 L23.8944608,18.2945529 L23.8944608,12.9898249 L25.1405082,12.9898249 C25.6854935,12.9925592 26.1181783,13.4170552 26.1319196,13.9620266 L26.1319196,15.2464236 C26.1319196,15.9858633 26.7426322,16.5938486 27.4793447,16.5938486 C28.2160571,16.5938486 28.8240354,15.983136 28.8240354,15.2464236 L28.8240354,13.9400824 C28.7966438,11.929917 27.153478,10.3031777 25.1433125,10.2977092 L23.8123631,10.2977092 C23.598748,7.26878972 21.1394572,4.84238708 18.0557756,4.83411422 L17.4943567,4.83411422 L17.4943567,3.65649322 C17.5025735,3.13067566 17.9243212,2.72537549 18.4501528,2.73084399 L19.756494,2.73084399 C20.4959337,2.73084399 21.1011847,2.12013144 21.1011847,1.38341898 C21.1011847,0.646713528 20.4932064,0.0359072545 19.756494,0.0359072545 L18.4583556,0.0359072545 C16.4591271,0.0223016753 14.8159823,1.64359351 14.7967724,3.64275185 L14.7967724,4.83404411 L14.0244516,4.83404411 L14.0244516,3.64275185 C14.0080251,1.6435234 12.3648312,0.022252599 10.3628685,0.0359072545 L9.06759055,0.0385599541 Z" id="Path" fill="#3A3A3A"></path>
                            <path d="M19.6906146,8.500977e-05 C20.4273271,8.500977e-05 21.0353054,0.610891284 21.0353054,1.34759673 C21.0353054,2.0843092 20.4300543,2.69502175 19.6906146,2.69502175 L19.6906146,2.69502175 L18.3842735,2.69502175 C17.8584419,2.68955325 17.4366942,3.09485342 17.4284774,3.62067097 L17.4284774,3.62067097 L17.4284774,4.79829197 L17.9898963,4.79829197 C21.0735779,4.80656483 23.5328687,7.23296747 23.7464838,10.2618869 L23.7464838,10.2618869 L25.0774332,10.2618869 C27.0875987,10.2673554 28.7307645,11.8940947 28.7581561,13.9042602 L28.7581561,13.9042602 L28.7581561,15.2106013 C28.7581561,15.9473138 28.1501778,16.5580263 27.4134653,16.5580263 C26.6767529,16.5580263 26.0660403,15.950041 26.0660403,15.2106013 L26.0660403,15.2106013 L26.0660403,13.9262043 C26.0522989,13.381233 25.6196142,12.956737 25.0746288,12.9540027 L25.0746288,12.9540027 L23.8285814,12.9540027 L23.8285814,18.2587306 L25.0801675,18.2587306 C27.0958014,18.2752063 28.73624,19.9101483 28.7608903,21.923048 L28.7608903,21.923048 L28.7608903,23.2266549 C28.7608903,23.9633674 28.152912,24.5740799 27.4161996,24.5740799 C26.6794871,24.5740799 26.0687746,23.9660946 26.0687746,23.2266549 L26.0687746,23.2266549 L26.0687746,21.9449921 C26.0550332,21.3944962 25.6196282,20.9645317 25.0691603,20.9563149 L25.0691603,20.9563149 L23.8313157,20.9563149 L23.8313157,22.1530757 C23.8231059,25.392883 21.1776126,28.0274463 17.9378053,28.0219793 L17.9378053,28.0219793 L14.6570122,28.021 L14.6570122,4.798 L14.7308931,4.79822186 L14.7308931,3.60692961 C14.750103,1.60777126 16.3932478,-0.0135205695 18.3924762,8.500977e-05 L18.3924762,8.500977e-05 Z" id="Combined-Shape" fill="#2B2A29"></path>
                            <path d="M10.7710291,7.53181067 L18.009083,7.53181067 C19.7618082,7.51537712 21.1803939,8.90931245 21.1996037,10.6593034 L21.1996037,12.8338044 L7.62996935,12.8338044 L7.62996935,10.7086601 C7.62178857,8.95866919 9.02124849,7.54281779 10.7712394,7.53461503 L10.7710291,7.53181067 Z" id="Path" fill="#3B3B3B"></path>
                            <path d="M14.6569337,7.53181067 L14.6569337,12.8328107 L7.62996935,12.8338044 L7.62996935,10.7086601 C7.62178857,8.95866919 9.02124849,7.54281779 10.7712394,7.53461503 L10.7710291,7.53181067 L14.6569337,7.53181067 Z" id="Combined-Shape" fill="#494949"></path>
                            <path d="M7.62979502,15.5312484 L13.0659773,15.5312484 L13.0659773,25.3654548 L10.82305,25.3654548 C9.05938779,25.3709144 7.63526352,23.9577902 7.62979502,22.1968623 L7.62979502,15.5312484 Z" id="Path" fill="#494949"></path>
                            <path d="M15.7610377,15.5312484 L21.19722,15.5312484 L21.19722,22.1669258 C21.2081781,23.930588 19.8005084,25.3574465 18.0341119,25.3683835 L15.7610377,25.3683835 L15.7610377,15.5312484 Z" id="Path" fill="#494949"></path>
                            <path d="M16.4097374,15.7745267 L21.8459198,15.7745267 L21.8459198,25.608733 L19.6029924,25.608733 C17.8393302,25.6141927 16.4152059,24.2010685 16.4097374,22.4401406 L16.4097374,15.7745267 Z" id="Path" fill="#494949" transform="translate(19.127829, 20.691630) scale(-1, 1) translate(-19.127829, -20.691630) "></path>
                        </g>
                        <g id="Group" filter="url(#filter-7)" transform="translate(22.000000, 16.000000)">
                            <path d="M9.06759055,0.0385599541 C8.32815084,0.0385599541 7.72016553,0.649272507 7.72016553,1.38598497 C7.72016553,2.12269743 8.32814383,2.73340998 9.06759055,2.73340998 L10.3739317,2.73340998 C10.8997492,2.72519321 11.321525,3.13324866 11.3297278,3.65905921 L11.3297278,4.83668021 L10.823078,4.83668021 C7.72292783,4.8175124 5.21709168,7.24941159 5.00620379,10.3030094 L3.68345714,10.3030094 C1.67329168,10.3084849 0.0274126219,11.9352172 1.20792265e-13,13.9453827 L1.20792265e-13,15.2517238 C1.20792265e-13,15.9911635 0.610712553,16.5964146 1.34742501,16.5964146 C2.08413748,16.5964146 2.69485003,15.9884363 2.69485003,15.2517238 L2.69485003,13.9673268 C2.71128358,13.4223414 3.1412481,12.9978594 3.6862615,12.9951252 L4.93504314,12.9951252 L4.93504314,18.2998531 L3.68345714,18.2998531 C1.67055743,18.3162867 0.0274126219,19.9485365 0.00273425129,21.9614363 L0.00273425129,23.2650431 C0.00273425129,24.0044828 0.613446804,24.6124682 1.35015927,24.6124682 C2.0019557,24.6124682 2.55238853,24.1359442 2.67290591,23.5170149 L2.7002975,23.4896303 L2.7002975,21.9779399 C2.71398979,21.427472 3.14942982,21.0002698 3.69991173,20.9920671 L4.93775636,20.9920671 L4.93775636,22.1560168 C4.92679832,25.3958241 7.55317289,28.0440517 10.7929732,28.0578016 L18.0036846,28.0578016 C21.243492,28.0632686 23.8889853,25.4287053 23.897195,22.1888979 L23.897195,20.9921372 L25.1350397,20.9921372 C25.6855076,21.0003539 26.1209125,21.4303185 26.1346539,21.9808144 L26.1346539,23.2624772 C26.1346539,24.0019169 26.7453664,24.6099022 27.4820789,24.6099022 C28.2187914,24.6099022 28.8267697,23.9991896 28.8267697,23.2624772 L28.8267697,21.9588703 C28.8021193,19.9459706 27.1616807,18.3110285 25.1460468,18.2945529 L23.8944608,18.2945529 L23.8944608,12.9898249 L25.1405082,12.9898249 C25.6854935,12.9925592 26.1181783,13.4170552 26.1319196,13.9620266 L26.1319196,15.2464236 C26.1319196,15.9858633 26.7426322,16.5938486 27.4793447,16.5938486 C28.2160571,16.5938486 28.8240354,15.983136 28.8240354,15.2464236 L28.8240354,13.9400824 C28.7966438,11.929917 27.153478,10.3031777 25.1433125,10.2977092 L23.8123631,10.2977092 C23.598748,7.26878972 21.1394572,4.84238708 18.0557756,4.83411422 L17.4943567,4.83411422 L17.4943567,3.65649322 C17.5025735,3.13067566 17.9243212,2.72537549 18.4501528,2.73084399 L19.756494,2.73084399 C20.4959337,2.73084399 21.1011847,2.12013144 21.1011847,1.38341898 C21.1011847,0.646713528 20.4932064,0.0359072545 19.756494,0.0359072545 L18.4583556,0.0359072545 C16.4591271,0.0223016753 14.8159823,1.64359351 14.7967724,3.64275185 L14.7967724,4.83404411 L14.0244516,4.83404411 L14.0244516,3.64275185 C14.0080251,1.6435234 12.3648312,0.022252599 10.3628685,0.0359072545 L9.06759055,0.0385599541 Z" id="Path" fill="#3A3A3A"></path>
                            <path d="M19.6906146,8.500977e-05 C20.4273271,8.500977e-05 21.0353054,0.610891284 21.0353054,1.34759673 C21.0353054,2.0843092 20.4300543,2.69502175 19.6906146,2.69502175 L19.6906146,2.69502175 L18.3842735,2.69502175 C17.8584419,2.68955325 17.4366942,3.09485342 17.4284774,3.62067097 L17.4284774,3.62067097 L17.4284774,4.79829197 L17.9898963,4.79829197 C21.0735779,4.80656483 23.5328687,7.23296747 23.7464838,10.2618869 L23.7464838,10.2618869 L25.0774332,10.2618869 C27.0875987,10.2673554 28.7307645,11.8940947 28.7581561,13.9042602 L28.7581561,13.9042602 L28.7581561,15.2106013 C28.7581561,15.9473138 28.1501778,16.5580263 27.4134653,16.5580263 C26.6767529,16.5580263 26.0660403,15.950041 26.0660403,15.2106013 L26.0660403,15.2106013 L26.0660403,13.9262043 C26.0522989,13.381233 25.6196142,12.956737 25.0746288,12.9540027 L25.0746288,12.9540027 L23.8285814,12.9540027 L23.8285814,18.2587306 L25.0801675,18.2587306 C27.0958014,18.2752063 28.73624,19.9101483 28.7608903,21.923048 L28.7608903,21.923048 L28.7608903,23.2266549 C28.7608903,23.9633674 28.152912,24.5740799 27.4161996,24.5740799 C26.6794871,24.5740799 26.0687746,23.9660946 26.0687746,23.2266549 L26.0687746,23.2266549 L26.0687746,21.9449921 C26.0550332,21.3944962 25.6196282,20.9645317 25.0691603,20.9563149 L25.0691603,20.9563149 L23.8313157,20.9563149 L23.8313157,22.1530757 C23.8231059,25.392883 21.1776126,28.0274463 17.9378053,28.0219793 L17.9378053,28.0219793 L14.6570122,28.021 L14.6570122,4.798 L14.7308931,4.79822186 L14.7308931,3.60692961 C14.750103,1.60777126 16.3932478,-0.0135205695 18.3924762,8.500977e-05 L18.3924762,8.500977e-05 Z" id="Combined-Shape" fill="#2B2A29"></path>
                            <path d="M10.7710291,7.53181067 L18.009083,7.53181067 C19.7618082,7.51537712 21.1803939,8.90931245 21.1996037,10.6593034 L21.1996037,12.8338044 L7.62996935,12.8338044 L7.62996935,10.7086601 C7.62178857,8.95866919 9.02124849,7.54281779 10.7712394,7.53461503 L10.7710291,7.53181067 Z" id="Path" fill="#414141"></path>
                            <path d="M14.6569337,7.53181067 L14.6569337,12.8328107 L7.62996935,12.8338044 L7.62996935,10.7086601 C7.62178857,8.95866919 9.02124849,7.54281779 10.7712394,7.53461503 L10.7710291,7.53181067 L14.6569337,7.53181067 Z" id="Combined-Shape" fill="#494949"></path>
                            <path d="M7.62979502,15.5312484 L13.0659773,15.5312484 L13.0659773,25.3654548 L10.82305,25.3654548 C9.05938779,25.3709144 7.63526352,23.9577902 7.62979502,22.1968623 L7.62979502,15.5312484 Z" id="Path" fill="#494949"></path>
                            <path d="M15.7610377,15.5312484 L21.19722,15.5312484 L21.19722,22.1669258 C21.2081781,23.930588 19.8005084,25.3574465 18.0341119,25.3683835 L15.7610377,25.3683835 L15.7610377,15.5312484 Z" id="Path" fill="#494949"></path>
                            <path d="M16.4097374,15.7745267 L21.8459198,15.7745267 L21.8459198,25.608733 L19.6029924,25.608733 C17.8393302,25.6141927 16.4152059,24.2010685 16.4097374,22.4401406 L16.4097374,15.7745267 Z" id="Path" fill="#494949" transform="translate(19.127829, 20.691630) scale(-1, 1) translate(-19.127829, -20.691630) "></path>
                        </g>
                    </g>
                    <g id="Shield" filter="url(#filter-8)" transform="translate(28.000000, 25.000000)">
                        <path d="M19.7647059,1.44117647 C15.9274248,5.77047059 9.16862745,7.20588235 1.46405229,7.20588235 L1.46405229,18.7352941 C1.46405229,30.6221176 6.81662745,38.2718824 19.7647059,44.6764706 C32.7120523,38.2718824 38.0653595,30.6221176 38.0653595,18.7352941 L38.0653595,7.20588235 C30.3615163,7.20588235 23.6019869,5.77047059 19.7647059,1.44117647" id="Fill-22" fill="#7CB65A"></path>
                        <path d="M19.7647059,1.44117647 L19.7647059,30.9852941 C14.756183,30.9852941 10.6604967,27.1733824 10.2849673,22.3382353 C10.2666667,22.57675 10.248366,22.8152647 10.248366,23.0588235 C10.248366,27.6158235 13.5549281,31.4140441 17.9353725,32.2535294 C18.9865621,32.4552941 19.7647059,33.3279265 19.7647059,34.3821471 L19.7647059,44.6764706 C32.7120523,38.2718824 38.0653595,30.6221176 38.0653595,18.7352941 L38.0653595,7.20588235 C30.3615163,7.20588235 23.6019869,5.77047059 19.7647059,1.44117647" id="Fill-23" fill="#629E3F"></path>
                        <path d="M2.92810458,8.61030882 L2.92810458,18.7216029 C2.92810458,29.8885588 7.81803922,36.9820294 19.7647059,43.0573088 C31.7113725,36.9820294 36.6013072,29.8885588 36.6013072,18.7216029 L36.6013072,8.61030882 C28.9055163,8.42439706 23.3692026,6.73822059 19.7647059,3.48044118 C16.1602092,6.73822059 10.6238954,8.42439706 2.92810458,8.61030882 Z M19.7647059,46.1176471 C19.5392418,46.1176471 19.3145098,46.0664853 19.1073464,45.9641618 C5.7149281,39.3361912 0,31.1885 0,18.7216029 L0,7.18642647 C0,6.39017647 0.655163399,5.74452941 1.46405229,5.74452941 C9.89260131,5.74452941 15.5174902,4.01944118 18.6615425,0.470544118 C19.2178824,-0.157088235 20.3115294,-0.157088235 20.8678693,0.470544118 C24.0119216,4.01944118 29.6368105,5.74452941 38.0653595,5.74452941 C38.8735163,5.74452941 39.5294118,6.39017647 39.5294118,7.18642647 L39.5294118,18.7216029 C39.5294118,31.1885 33.8144837,39.3361912 20.4220654,45.9641618 C20.214902,46.0664853 19.9901699,46.1176471 19.7647059,46.1176471 L19.7647059,46.1176471 Z" id="Fill-24" fill="#629E3F"></path>
                        <path d="M29.2810458,21.6176471 C29.2810458,26.79075 25.0206536,30.9852941 19.7647059,30.9852941 C14.5087582,30.9852941 10.248366,26.79075 10.248366,21.6176471 C10.248366,16.4445441 14.5087582,12.25 19.7647059,12.25 C25.0206536,12.25 29.2810458,16.4445441 29.2810458,21.6176471" id="Fill-25" fill="#FFFFFE"></path>
                        <path d="M23.7138179,19.8080837 L23.3009488,19.8080837 L23.3017015,17.3014127 C23.3017015,15.4807071 21.8209174,14 20.0002888,14 C18.1796602,14 16.698876,15.4807841 16.698876,17.3014127 L16.698876,19.8080837 L16.2860069,19.8080837 C15.5760723,19.8080837 15,20.3834051 15,21.0940906 L15,27.0579268 C15,27.7678615 15.5753214,28.3439337 16.2860069,28.3439337 L23.7139931,28.3439337 C24.4239277,28.3439337 25,27.7686123 25,27.0579268 L25,21.0935131 C25,20.3835784 24.4246786,19.808257 23.7139931,19.808257 L23.7138179,19.8080837 Z M17.8537525,17.3014127 C17.8537525,16.1176942 18.8171266,15.1551479 20.0000173,15.1551479 C21.182908,15.1551479 22.1462822,16.118522 22.1462822,17.3014127 L22.1462822,19.8080837 L17.85356,19.8080837 L17.8537525,17.3014127 Z" id="Fill-1" fill="#77B356"></path>
                    </g>
                </g>
                <g id="Azure-Border">
                    <path d="M50,0 C74.5263677,-4.50542066e-15 94.9281966,17.6592499 99.1842495,40.9565123 L94.2027317,73.3905473 C85.8096395,89.2186645 69.1638777,100 50,100 C30.9551233,100 14.3971863,89.3521454 5.95457608,73.6848234 L0.0261464987,48.3675131 C0.887696267,21.508872 22.932015,4.97230817e-15 50,0 Z" id="Combined-Shape" fill="url(#linearGradient-9)" fill-rule="evenodd" opacity="0.400000006" style="mix-blend-mode: overlay;"></path>
                    <g>
                        <use fill="black" fill-opacity="1" filter="url(#filter-11)" xlink:href="#path-10"></use>
                        <rect stroke="#F2F1F0" stroke-width="4" stroke-linejoin="square" x="-1" y="-1" width="102" height="102" rx="51"></rect>
                    </g>
                    <rect stroke="#0078D4" stroke-width="4" x="2" y="2" width="96" height="96" rx="48"></rect>
                </g>
            </g>
        </g>
    </g>
</svg>