<svg width="100" height="100" viewBox="0 0 100 100" fill="none" xmlns="http://www.w3.org/2000/svg">
<g clip-path="url(#clip0_378_1585)">
<path d="M49.6401 96.4499C40.382 96.4499 31.3317 93.7045 23.6339 88.561C15.936 83.4174 9.93624 76.1067 6.3933 67.5533C2.85036 58.9999 1.92337 49.588 3.72954 40.5077C5.53571 31.4275 9.99394 23.0867 16.5404 16.5402C23.0869 9.99372 31.4277 5.5355 40.5079 3.72933C49.5882 1.92315 59.0001 2.85015 67.5535 6.39308C76.1069 9.93602 83.4176 15.9358 88.5612 23.6336C93.7047 31.3315 96.4501 40.3817 96.4501 49.6399C96.4505 55.7872 95.24 61.8744 92.8878 67.5538C90.5355 73.2332 87.0875 78.3937 82.7407 82.7405C78.3939 87.0873 73.2335 90.5353 67.554 92.8876C61.8746 95.2398 55.7874 96.4503 49.6401 96.4499V96.4499Z" fill="url(#paint0_linear_378_1585)"/>
<path fill-rule="evenodd" clip-rule="evenodd" d="M95.54 49.6399C95.54 58.718 92.848 67.5923 87.8045 75.1406C82.7609 82.6888 75.5923 88.5719 67.2052 92.046C58.818 95.52 49.5891 96.429 40.6854 94.6579C31.7816 92.8869 23.603 88.5153 17.1838 82.0961C10.7646 75.6769 6.39302 67.4983 4.62196 58.5945C2.85089 49.6908 3.75987 40.4618 7.23393 32.0747C10.708 23.6876 16.5911 16.519 24.1393 11.4754C31.6875 6.43187 40.5618 3.73988 49.64 3.73988C55.6677 3.73986 61.6363 4.92708 67.2052 7.23377C72.774 9.54045 77.834 12.9214 82.0963 17.1836C86.3585 21.4458 89.7394 26.5058 92.0461 32.0747C94.3528 37.6435 95.54 43.6122 95.54 49.6399V49.6399ZM49.64 -0.000106449C59.4579 -0.000106449 69.0552 2.91123 77.2185 8.36574C85.3818 13.8203 91.7442 21.573 95.5014 30.6435C99.2585 39.714 100.242 49.695 98.3262 59.3242C96.4108 68.9534 91.6831 77.7984 84.7408 84.7407C77.7985 91.683 68.9535 96.4107 59.3243 98.3261C49.6951 100.241 39.7141 99.2584 30.6436 95.5013C21.5731 91.7441 13.8204 85.3816 8.36584 77.2184C2.91133 69.0551 -1.61629e-06 59.4577 3.61524e-07 49.6399C-0.000786426 43.1208 1.28265 36.6655 3.77702 30.6425C6.27138 24.6196 9.92781 19.147 14.5375 14.5374C19.1471 9.9277 24.6197 6.27127 30.6427 3.77691C36.6656 1.28254 43.121 -0.000894549 49.64 -0.000106449V-0.000106449Z" fill="#F2F1F0"/>
<path fill-rule="evenodd" clip-rule="evenodd" d="M92.7296 49.64C92.7296 58.1624 90.2024 66.4934 85.4676 73.5795C80.7328 80.6656 74.0031 86.1886 66.1294 89.45C58.2557 92.7113 49.5918 93.5647 41.2331 91.902C32.8745 90.2394 25.1966 86.1355 19.1703 80.1092C13.1441 74.083 9.04017 66.4051 7.37753 58.0464C5.7149 49.6878 6.56822 41.0238 9.8296 33.1502C13.091 25.2765 18.6139 18.5468 25.7 13.812C32.7862 9.07718 41.1172 6.55 49.6396 6.55C55.2983 6.54965 60.9017 7.66397 66.1298 9.82933C71.3579 11.9947 76.1082 15.1687 80.1096 19.17C84.1109 23.1713 87.2849 27.9217 89.4502 33.1498C91.6156 38.3778 92.7299 43.9812 92.7296 49.64ZM49.6396 2.81C58.9017 2.81 67.9558 5.55653 75.6569 10.7023C83.3581 15.848 89.3604 23.1619 92.9049 31.7189C96.4493 40.276 97.3767 49.6919 95.5697 58.7761C93.7628 67.8602 89.3027 76.2045 82.7534 82.7538C76.2041 89.3031 67.8598 93.7632 58.7757 95.5702C49.6915 97.3771 40.2756 96.4497 31.7185 92.9053C23.1614 89.3608 15.8476 83.3585 10.7018 75.6574C5.5561 67.9562 2.80957 58.9021 2.80957 49.64C2.81076 37.2203 7.74501 25.3096 16.5271 16.5275C25.3091 7.74544 37.2198 2.81119 49.6396 2.81V2.81Z" fill="#0078D4"/>
<path fill-rule="evenodd" clip-rule="evenodd" d="M92.7296 49.6399C92.7296 58.1623 90.2024 66.4933 85.4676 73.5794C80.7328 80.6655 74.0031 86.1885 66.1294 89.4499C58.2557 92.7112 49.5918 93.5646 41.2331 91.9019C32.8745 90.2393 25.1966 86.1354 19.1703 80.1091C13.1441 74.0829 9.04017 66.405 7.37753 58.0463C5.7149 49.6877 6.56822 41.0237 9.8296 33.1501C13.091 25.2764 18.6139 18.5467 25.7001 13.8119C32.7862 9.07708 41.1172 6.5499 49.6396 6.5499C55.2983 6.54956 60.9017 7.66388 66.1298 9.82923C71.3579 11.9946 76.1082 15.1686 80.1096 19.1699C84.1109 23.1712 87.2849 27.9216 89.4502 33.1497C91.6156 38.3777 92.7299 43.9811 92.7296 49.6399V49.6399ZM49.6396 2.8099C58.9017 2.8099 67.9558 5.55643 75.6569 10.7022C83.3581 15.8479 89.3604 23.1618 92.9048 31.7188C96.4493 40.2759 97.3767 49.6918 95.5697 58.776C93.7628 67.8601 89.3027 76.2044 82.7534 82.7537C76.2041 89.303 67.8598 93.7631 58.7757 95.5701C49.6915 97.377 40.2756 96.4496 31.7185 92.9052C23.1614 89.3607 15.8476 83.3584 10.7018 75.6573C5.5561 67.9561 2.80957 58.902 2.80957 49.6399C2.81075 37.2202 7.74499 25.3095 16.5271 16.5274C25.3091 7.7453 37.2198 2.81105 49.6396 2.80986V2.8099Z" fill="#0078D4"/>
<path opacity="0.2" d="M22.7384 76.5111H76.5406C76.8233 76.5102 77.0941 76.3976 77.294 76.1977C77.4939 75.9978 77.6065 75.7269 77.6074 75.4443V33.4391H21.6716V75.4443C21.6725 75.7269 21.7851 75.9978 21.985 76.1977C22.1849 76.3976 22.4558 76.5102 22.7384 76.5111V76.5111Z" fill="#003067"/>
<path d="M22.7384 74.3149H76.5406C76.8233 74.3141 77.0941 74.2014 77.294 74.0015C77.4939 73.8016 77.6065 73.5308 77.6074 73.2481V31.243H21.6716V73.2481C21.6725 73.5308 21.7851 73.8016 21.985 74.0015C22.1849 74.2014 22.4558 74.3141 22.7384 74.3149V74.3149Z" fill="#F2F2F2"/>
<path d="M21.6716 35.8924H77.6074V30.8784C77.6077 30.7709 77.5867 30.6645 77.5457 30.5651C77.5047 30.4657 77.4445 30.3755 77.3685 30.2995C77.2925 30.2235 77.2022 30.1632 77.1028 30.1222C77.0035 30.0812 76.897 30.0603 76.7895 30.0605H22.4895C22.382 30.0603 22.2755 30.0812 22.1762 30.1222C22.0768 30.1632 21.9866 30.2235 21.9106 30.2995C21.8345 30.3755 21.7743 30.4657 21.7333 30.5651C21.6923 30.6644 21.6714 30.7709 21.6716 30.8784L21.6716 35.8924Z" fill="url(#paint1_linear_378_1585)"/>
<path d="M25.9744 34.5142C26.2549 34.5134 26.5288 34.4294 26.7615 34.2728C26.9942 34.1163 27.1753 33.8943 27.2818 33.6348C27.3883 33.3754 27.4155 33.0902 27.3599 32.8153C27.3043 32.5404 27.1685 32.2881 26.9696 32.0904C26.7706 31.8927 26.5175 31.7585 26.2423 31.7046C25.9671 31.6508 25.682 31.6798 25.4233 31.7879C25.1645 31.8961 24.9436 32.0785 24.7885 32.3122C24.6335 32.5459 24.5512 32.8203 24.552 33.1007C24.5505 33.2875 24.5863 33.4728 24.6574 33.6455C24.7285 33.8183 24.8333 33.9751 24.9658 34.1068C25.0983 34.2385 25.2558 34.3423 25.429 34.4123C25.6022 34.4823 25.7877 34.5169 25.9744 34.5142V34.5142Z" fill="#50E6FF"/>
<path d="M72.6491 39.5014H26.6191C26.0126 39.5014 25.521 39.9931 25.521 40.5995V69.2138C25.521 69.8203 26.0126 70.3119 26.6191 70.3119H72.6491C73.2556 70.3119 73.7473 69.8203 73.7473 69.2138V40.5995C73.7473 39.9931 73.2556 39.5014 72.6491 39.5014Z" fill="#E8E8E8"/>
<path d="M48.7615 51.2501H50.5297V68.2254H48.7615V51.2501Z" fill="#32BEDD"/>
<path d="M61.1744 42.7448H38.3286C38.0628 42.754 37.8109 42.8661 37.6262 43.0574C37.4414 43.2488 37.3382 43.5044 37.3384 43.7704V50.2245C37.3383 50.4935 37.444 50.7517 37.6325 50.9436C37.821 51.1354 38.0774 51.2455 38.3463 51.2501H61.1744C61.4418 51.2502 61.6981 51.144 61.8872 50.955C62.0762 50.766 62.1825 50.5097 62.1825 50.2424L62.1823 50.2245V43.7704C62.1847 43.6381 62.1609 43.5066 62.1124 43.3834C62.0639 43.2603 61.9916 43.1479 61.8997 43.0526C61.8078 42.9574 61.698 42.8812 61.5766 42.8284C61.4552 42.7757 61.3246 42.7473 61.1923 42.745C61.1863 42.7449 61.1804 42.7448 61.1744 42.7448Z" fill="url(#paint2_linear_378_1585)"/>
<path d="M61.1039 54.2738H38.258C38.0063 54.296 37.7721 54.4119 37.6018 54.5986C37.4315 54.7852 37.3376 55.0291 37.3385 55.2817V61.7536C37.3362 61.8836 37.3595 62.0128 37.4071 62.1338C37.4547 62.2548 37.5256 62.3653 37.6159 62.4589C37.7062 62.5525 37.814 62.6273 37.9332 62.6793C38.0525 62.7312 38.1807 62.7591 38.3108 62.7615C38.3226 62.7617 38.3345 62.7617 38.3464 62.7615H61.1039C61.3681 62.7568 61.6199 62.6486 61.8052 62.4601C61.9904 62.2715 62.0941 62.0178 62.0941 61.7536V55.2817C62.0897 55.0188 61.9845 54.7676 61.8002 54.5801C61.616 54.3925 61.3667 54.2829 61.1039 54.2738Z" fill="url(#paint3_linear_378_1585)"/>
<path d="M49.7516 72.257C51.2262 72.257 52.4217 71.0615 52.4217 69.5869C52.4217 68.1123 51.2262 66.9169 49.7516 66.9169C48.277 66.9169 47.0815 68.1123 47.0815 69.5869C47.0815 71.0615 48.277 72.257 49.7516 72.257Z" fill="url(#paint4_linear_378_1585)"/>
<path d="M59.6539 44.3362H58.3277C58.1813 44.3362 58.0625 44.455 58.0625 44.6015V45.9277C58.0625 46.0742 58.1813 46.1929 58.3277 46.1929H59.6539C59.8004 46.1929 59.9192 46.0742 59.9192 45.9277V44.6015C59.9192 44.455 59.8004 44.3362 59.6539 44.3362Z" fill="#B4EC36"/>
<path d="M59.6539 47.5368H58.3277C58.1813 47.5368 58.0625 47.6555 58.0625 47.802V49.1282C58.0625 49.2747 58.1813 49.3935 58.3277 49.3935H59.6539C59.8004 49.3935 59.9192 49.2747 59.9192 49.1282V47.802C59.9192 47.6555 59.8004 47.5368 59.6539 47.5368Z" fill="#B4EC36"/>
<path d="M59.6539 55.8122H58.3277C58.1813 55.8122 58.0625 55.931 58.0625 56.0774V57.4036C58.0625 57.5501 58.1813 57.6689 58.3277 57.6689H59.6539C59.8004 57.6689 59.9192 57.5501 59.9192 57.4036V56.0774C59.9192 55.931 59.8004 55.8122 59.6539 55.8122Z" fill="#B4EC36"/>
<path d="M59.6539 59.0128H58.3277C58.1813 59.0128 58.0625 59.1315 58.0625 59.278V60.6042C58.0625 60.7507 58.1813 60.8694 58.3277 60.8694H59.6539C59.8004 60.8694 59.9192 60.7507 59.9192 60.6042V59.278C59.9192 59.1315 59.8004 59.0128 59.6539 59.0128Z" fill="#B4EC36"/>
<path opacity="0.2" d="M36.0061 30.0605C36.1036 32.0564 36.5149 34.0245 37.225 35.8924H62.2073C62.9173 34.0245 63.3287 32.0564 63.4263 30.0605H36.0061Z" fill="#003067"/>
<path opacity="0.2" d="M62.2074 35.8923H37.2251C38.2842 38.5474 39.9809 40.9009 42.1653 42.7448H57.2685C59.4525 40.9008 61.1488 38.5474 62.2074 35.8923Z" fill="#767676"/>
<path opacity="0.2" d="M49.7161 47.1704C50.1641 47.1697 50.6059 47.0644 51.0061 46.8628C53.2597 45.7613 55.364 44.3775 57.2683 42.7448H42.165C44.0786 44.3854 46.1934 45.7756 48.4582 46.8818C48.8508 47.0705 49.2805 47.1691 49.7161 47.1704V47.1704Z" fill="#003067"/>
<path d="M60.5979 20.7833C55.5857 20.7833 52.2419 19.7428 50.3723 17.5983C50.288 17.5089 50.1863 17.4377 50.0735 17.389C49.9607 17.3403 49.8391 17.3152 49.7163 17.3152C49.5934 17.3152 49.4718 17.3403 49.359 17.389C49.2462 17.4377 49.1446 17.5089 49.0603 17.5983C47.1908 19.7428 43.847 20.7833 38.8348 20.7833C38.7204 20.7833 38.607 20.8058 38.5013 20.8496C38.3956 20.8933 38.2995 20.9575 38.2186 21.0384C38.1377 21.1193 38.0736 21.2154 38.0298 21.3211C37.9861 21.4268 37.9636 21.5401 37.9636 21.6546V28.6209C37.9636 36.1516 41.3602 41.0756 49.3247 45.079C49.4467 45.1388 49.5806 45.1702 49.7164 45.1707C49.8526 45.1706 49.9868 45.138 50.1079 45.0755C58.0724 41.0721 61.4691 36.1516 61.4691 28.6209V21.6546C61.4686 21.4237 61.3766 21.2023 61.2134 21.0391C61.0501 20.8758 60.8288 20.7838 60.5979 20.7833V20.7833Z" fill="url(#paint5_linear_378_1585)"/>
<path d="M49.696 18.1878C51.7221 20.512 55.2318 21.655 60.3977 21.655C60.4553 21.655 60.5138 21.6548 60.5719 21.6546V28.6209C60.5719 35.7639 57.3219 40.4452 49.7276 44.2775C42.1106 40.4487 38.8607 35.7663 38.8607 28.6209L38.8347 21.6804C44.1217 21.6804 47.6877 20.538 49.7043 18.2137L49.7163 18.2123L49.696 18.1878H49.696ZM49.7163 17.3152C49.5931 17.3132 49.471 17.3374 49.3579 17.3862C49.2448 17.435 49.1434 17.5073 49.0603 17.5983C47.1908 19.7428 43.8469 20.7833 38.8347 20.7833C38.7203 20.7833 38.607 20.8058 38.5013 20.8495C38.3956 20.8933 38.2995 20.9575 38.2186 21.0384C38.1377 21.1193 38.0735 21.2154 38.0298 21.3211C37.986 21.4268 37.9636 21.5401 37.9636 21.6546V28.6209C37.9636 36.1516 41.3602 41.0756 49.3247 45.079C49.4466 45.1388 49.5805 45.1701 49.7163 45.1707C49.8525 45.1706 49.9867 45.138 50.1078 45.0755C58.0724 41.0721 61.469 36.1516 61.469 28.6209V21.6546C61.4685 21.4237 61.3766 21.2024 61.2133 21.0391C61.0501 20.8758 60.8288 20.7838 60.5979 20.7833C55.5857 20.7833 52.2418 19.7428 50.3723 17.5983C50.2893 17.5073 50.1878 17.435 50.0747 17.3862C49.9616 17.3374 49.8395 17.3132 49.7163 17.3152H49.7163Z" fill="url(#paint6_linear_378_1585)"/>
<path fill-rule="evenodd" clip-rule="evenodd" d="M53.6857 28.1908C53.4741 27.9793 53.1873 27.8606 52.8882 27.8606C52.5891 27.8606 52.3022 27.9793 52.0907 28.1908L48.3729 31.9058L47.03 30.5758C46.9986 30.5292 46.9632 30.4854 46.924 30.4451C46.7139 30.2347 46.4291 30.116 46.1318 30.1147C45.8345 30.1134 45.5487 30.2296 45.3367 30.4381C45.1247 30.6466 45.0037 30.9304 45.0001 31.2277C44.9964 31.525 45.1104 31.8117 45.3172 32.0253L45.3037 32.0389L47.5788 34.2932C47.7905 34.5045 48.0774 34.6232 48.3766 34.6232C48.6757 34.6232 48.9626 34.5045 49.1743 34.2932L53.6823 29.7872L53.6857 29.7845C53.7904 29.6799 53.8735 29.5557 53.9301 29.419C53.9868 29.2822 54.016 29.1357 54.016 28.9877C54.016 28.8396 53.9868 28.6931 53.9301 28.5563C53.8735 28.4196 53.7904 28.2954 53.6857 28.1908V28.1908Z" fill="white"/>
</g>
<defs>
<linearGradient id="paint0_linear_378_1585" x1="47.8697" y1="-15.1532" x2="51.8525" y2="130.615" gradientUnits="userSpaceOnUse">
<stop stop-color="#00ABDE"/>
<stop offset="1" stop-color="#007ED8"/>
</linearGradient>
<linearGradient id="paint1_linear_378_1585" x1="21.6716" y1="32.9764" x2="77.6074" y2="32.9764" gradientUnits="userSpaceOnUse">
<stop stop-color="#005BA1"/>
<stop offset="0.26" stop-color="#00589D"/>
<stop offset="0.53" stop-color="#004F90"/>
<stop offset="0.8" stop-color="#003F7C"/>
<stop offset="1" stop-color="#003067"/>
</linearGradient>
<linearGradient id="paint2_linear_378_1585" x1="49.7604" y1="51.2501" x2="49.7604" y2="42.7448" gradientUnits="userSpaceOnUse">
<stop stop-color="#198AB3"/>
<stop offset="1" stop-color="#32D4F5"/>
</linearGradient>
<linearGradient id="paint3_linear_378_1585" x1="49.7162" y1="62.7616" x2="49.7162" y2="54.2738" gradientUnits="userSpaceOnUse">
<stop stop-color="#198AB3"/>
<stop offset="1" stop-color="#32D4F5"/>
</linearGradient>
<linearGradient id="paint4_linear_378_1585" x1="49.7516" y1="72.257" x2="49.7516" y2="66.9169" gradientUnits="userSpaceOnUse">
<stop stop-color="#198AB3"/>
<stop offset="1" stop-color="#32D4F5"/>
</linearGradient>
<linearGradient id="paint5_linear_378_1585" x1="49.7163" y1="45.1707" x2="49.7163" y2="17.3152" gradientUnits="userSpaceOnUse">
<stop stop-color="#008BF1"/>
<stop offset="0.99498" stop-color="#0078D4"/>
</linearGradient>
<linearGradient id="paint6_linear_378_1585" x1="49.7163" y1="17.3152" x2="49.7163" y2="45.1707" gradientUnits="userSpaceOnUse">
<stop stop-color="#008BF1"/>
<stop offset="0.22" stop-color="#0086EC"/>
<stop offset="0.49" stop-color="#0078DD"/>
<stop offset="0.79" stop-color="#0061C4"/>
<stop offset="1" stop-color="#004DAE"/>
</linearGradient>
<clipPath id="clip0_378_1585">
<rect width="99.2799" height="99.28" fill="white"/>
</clipPath>
</defs>
</svg>
