<?xml version="1.0" encoding="UTF-8"?>
<svg width="100px" height="100px" viewBox="0 0 100 100" version="1.1" xmlns="http://www.w3.org/2000/svg" xmlns:xlink="http://www.w3.org/1999/xlink">
    <!-- Generator: Sketch 54 (76480) - https://sketchapp.com -->
    <title>NA/secure-your-application-with-openid-connect-and-azure-ad</title>
    <desc>Created with Sketch.</desc>
    <defs>
        <rect id="path-1" x="0" y="0" width="96" height="96" rx="48"></rect>
        <filter x="-7.7%" y="-9.1%" width="115.4%" height="118.5%" filterUnits="objectBoundingBox" id="filter-3">
            <feOffset dx="0" dy="2" in="SourceAlpha" result="shadowOffsetOuter1"></feOffset>
            <feColorMatrix values="0 0 0 0 0   0 0 0 0 0   0 0 0 0 0  0 0 0 0.0964956975 0" type="matrix" in="shadowOffsetOuter1" result="shadowMatrixOuter1"></feColorMatrix>
            <feMerge>
                <feMergeNode in="shadowMatrixOuter1"></feMergeNode>
                <feMergeNode in="SourceGraphic"></feMergeNode>
            </feMerge>
        </filter>
        <filter x="-7.7%" y="-9.1%" width="115.4%" height="118.5%" filterUnits="objectBoundingBox" id="filter-4">
            <feOffset dx="0" dy="2" in="SourceAlpha" result="shadowOffsetOuter1"></feOffset>
            <feColorMatrix values="0 0 0 0 0   0 0 0 0 0   0 0 0 0 0  0 0 0 0.0964956975 0" type="matrix" in="shadowOffsetOuter1" result="shadowMatrixOuter1"></feColorMatrix>
            <feMerge>
                <feMergeNode in="shadowMatrixOuter1"></feMergeNode>
                <feMergeNode in="SourceGraphic"></feMergeNode>
            </feMerge>
        </filter>
        <filter x="-6.7%" y="-5.6%" width="113.3%" height="111.4%" filterUnits="objectBoundingBox" id="filter-5">
            <feOffset dx="0" dy="2" in="SourceAlpha" result="shadowOffsetOuter1"></feOffset>
            <feColorMatrix values="0 0 0 0 0   0 0 0 0 0   0 0 0 0 0  0 0 0 0.103742074 0" type="matrix" in="shadowOffsetOuter1" result="shadowMatrixOuter1"></feColorMatrix>
            <feMerge>
                <feMergeNode in="shadowMatrixOuter1"></feMergeNode>
                <feMergeNode in="SourceGraphic"></feMergeNode>
            </feMerge>
        </filter>
    </defs>
    <g id="Badges" stroke="none" stroke-width="1" fill="none" fill-rule="evenodd">
        <g id="N/A-18" transform="translate(-50.000000, -260.000000)">
            <g id="NA/secure-your-application-with-openid-connect-and-azure-ad" transform="translate(50.000000, 260.000000)">
                <g id="Mask" transform="translate(2.000000, 2.000000)">
                    <mask id="mask-2" fill="white">
                        <use xlink:href="#path-1"></use>
                    </mask>
                    <use id="BG" fill="#55A2FF" xlink:href="#path-1"></use>
                    <g id="Web" filter="url(#filter-3)" mask="url(#mask-2)">
                        <g transform="translate(60.111678, 45.734709) rotate(9.000000) translate(-60.111678, -45.734709) translate(34.111678, 23.797209)">
                            <path d="M3.25,43.875 C1.4625,43.875 0,42.4125 0,40.625 L0,3.25 C0,1.4625 1.4625,0 3.25,0 L48.75,0 C50.5375,0 52,1.4625 52,3.25 L52,40.625 C52,42.4125 50.5375,43.875 48.75,43.875 L3.25,43.875" id="Fill-1465" fill="#30404D"></path>
                            <path d="M4.0625,41.4375 C3.16875,41.4375 2.4375,40.70625 2.4375,39.8125 L2.4375,8.9375 C2.4375,8.04375 3.16875,7.3125 4.0625,7.3125 L47.9375,7.3125 C48.83125,7.3125 49.5625,8.04375 49.5625,8.9375 L49.5625,39.8125 C49.5625,40.70625 48.83125,41.4375 47.9375,41.4375 L4.0625,41.4375" id="Fill-1466" fill="#E1E4E1"></path>
                            <path d="M47.125,3.65625 C47.125,2.9826875 47.671,2.4375 48.34375,2.4375 C49.0173125,2.4375 49.5625,2.9826875 49.5625,3.65625 C49.5625,4.329 49.0173125,4.875 48.34375,4.875 C47.671,4.875 47.125,4.329 47.125,3.65625" id="Fill-1467" fill="#DF5142"></path>
                            <path d="M42.25,3.65625 C42.25,2.9826875 42.796,2.4375 43.46875,2.4375 C44.1423125,2.4375 44.6875,2.9826875 44.6875,3.65625 C44.6875,4.329 44.1423125,4.875 43.46875,4.875 C42.796,4.875 42.25,4.329 42.25,3.65625" id="Fill-1468" fill="#697D85"></path>
                            <path d="M37.375,3.65625 C37.375,2.9826875 37.921,2.4375 38.59375,2.4375 C39.2673125,2.4375 39.8125,2.9826875 39.8125,3.65625 C39.8125,4.329 39.2673125,4.875 38.59375,4.875 C37.921,4.875 37.375,4.329 37.375,3.65625" id="Fill-1469" fill="#697D85"></path>
                            <path d="M31.28125,4.875 L3.65625,4.875 C2.9826875,4.875 2.4375,4.329 2.4375,3.65625 C2.4375,2.9835 2.9826875,2.4375 3.65625,2.4375 L31.28125,2.4375 C31.9548125,2.4375 32.5,2.9835 32.5,3.65625 C32.5,4.329 31.9548125,4.875 31.28125,4.875" id="Fill-1470" fill="#697D85"></path>
                            <path d="M21.125,22.75 C21.125,23.196875 20.759375,23.5625 20.3125,23.5625 L7.3125,23.5625 C6.865625,23.5625 6.5,23.196875 6.5,22.75 L6.5,12.1875 C6.5,11.740625 6.865625,11.375 7.3125,11.375 L20.3125,11.375 C20.759375,11.375 21.125,11.740625 21.125,12.1875 L21.125,22.75" id="Fill-1471" fill="#C5CCCD"></path>
                            <path d="M44.6875,13 L24.375,13 C23.9256875,13 23.5625,12.6368125 23.5625,12.1875 C23.5625,11.7381875 23.9256875,11.375 24.375,11.375 L44.6875,11.375 C45.1368125,11.375 45.5,11.7381875 45.5,12.1875 C45.5,12.6368125 45.1368125,13 44.6875,13" id="Fill-1472" fill="#C5CCCD"></path>
                            <path d="M44.6875,17.875 L24.375,17.875 C23.9256875,17.875 23.5625,17.5118125 23.5625,17.0625 C23.5625,16.6131875 23.9256875,16.25 24.375,16.25 L44.6875,16.25 C45.1368125,16.25 45.5,16.6131875 45.5,17.0625 C45.5,17.5118125 45.1368125,17.875 44.6875,17.875" id="Fill-1473" fill="#C5CCCD"></path>
                            <path d="M44.6875,22.75 L24.375,22.75 C23.9256875,22.75 23.5625,22.3868125 23.5625,21.9375 C23.5625,21.4881875 23.9256875,21.125 24.375,21.125 L44.6875,21.125 C45.1368125,21.125 45.5,21.4881875 45.5,21.9375 C45.5,22.3868125 45.1368125,22.75 44.6875,22.75" id="Fill-1474" fill="#C5CCCD"></path>
                            <path d="M44.6875,27.625 L7.3125,27.625 C6.8631875,27.625 6.5,27.2618125 6.5,26.8125 C6.5,26.3631875 6.8631875,26 7.3125,26 L44.6875,26 C45.1368125,26 45.5,26.3631875 45.5,26.8125 C45.5,27.2618125 45.1368125,27.625 44.6875,27.625" id="Fill-1475" fill="#C5CCCD"></path>
                            <path d="M44.6875,32.5 L7.3125,32.5 C6.8631875,32.5 6.5,32.1368125 6.5,31.6875 C6.5,31.2381875 6.8631875,30.875 7.3125,30.875 L44.6875,30.875 C45.1368125,30.875 45.5,31.2381875 45.5,31.6875 C45.5,32.1368125 45.1368125,32.5 44.6875,32.5" id="Fill-1476" fill="#C5CCCD"></path>
                            <path d="M44.6875,37.375 L7.3125,37.375 C6.8631875,37.375 6.5,37.0118125 6.5,36.5625 C6.5,36.1131875 6.8631875,35.75 7.3125,35.75 L44.6875,35.75 C45.1368125,35.75 45.5,36.1131875 45.5,36.5625 C45.5,37.0118125 45.1368125,37.375 44.6875,37.375" id="Fill-1477" fill="#C5CCCD"></path>
                        </g>
                    </g>
                    <g id="Web" filter="url(#filter-4)" mask="url(#mask-2)">
                        <g transform="translate(36.708179, 50.495480) rotate(-11.000000) translate(-36.708179, -50.495480) translate(10.708179, 28.557980)">
                            <path d="M3.25,43.875 C1.4625,43.875 0,42.4125 0,40.625 L0,3.25 C0,1.4625 1.4625,0 3.25,0 L48.75,0 C50.5375,0 52,1.4625 52,3.25 L52,40.625 C52,42.4125 50.5375,43.875 48.75,43.875 L3.25,43.875" id="Fill-1465" fill="#30404D"></path>
                            <path d="M4.0625,41.4375 C3.16875,41.4375 2.4375,40.70625 2.4375,39.8125 L2.4375,8.9375 C2.4375,8.04375 3.16875,7.3125 4.0625,7.3125 L47.9375,7.3125 C48.83125,7.3125 49.5625,8.04375 49.5625,8.9375 L49.5625,39.8125 C49.5625,40.70625 48.83125,41.4375 47.9375,41.4375 L4.0625,41.4375" id="Fill-1466" fill="#E1E4E1"></path>
                            <path d="M47.125,3.65625 C47.125,2.9826875 47.671,2.4375 48.34375,2.4375 C49.0173125,2.4375 49.5625,2.9826875 49.5625,3.65625 C49.5625,4.329 49.0173125,4.875 48.34375,4.875 C47.671,4.875 47.125,4.329 47.125,3.65625" id="Fill-1467" fill="#DF5142"></path>
                            <path d="M42.25,3.65625 C42.25,2.9826875 42.796,2.4375 43.46875,2.4375 C44.1423125,2.4375 44.6875,2.9826875 44.6875,3.65625 C44.6875,4.329 44.1423125,4.875 43.46875,4.875 C42.796,4.875 42.25,4.329 42.25,3.65625" id="Fill-1468" fill="#697D85"></path>
                            <path d="M37.375,3.65625 C37.375,2.9826875 37.921,2.4375 38.59375,2.4375 C39.2673125,2.4375 39.8125,2.9826875 39.8125,3.65625 C39.8125,4.329 39.2673125,4.875 38.59375,4.875 C37.921,4.875 37.375,4.329 37.375,3.65625" id="Fill-1469" fill="#697D85"></path>
                            <path d="M31.28125,4.875 L3.65625,4.875 C2.9826875,4.875 2.4375,4.329 2.4375,3.65625 C2.4375,2.9835 2.9826875,2.4375 3.65625,2.4375 L31.28125,2.4375 C31.9548125,2.4375 32.5,2.9835 32.5,3.65625 C32.5,4.329 31.9548125,4.875 31.28125,4.875" id="Fill-1470" fill="#697D85"></path>
                            <path d="M21.125,22.75 C21.125,23.196875 20.759375,23.5625 20.3125,23.5625 L7.3125,23.5625 C6.865625,23.5625 6.5,23.196875 6.5,22.75 L6.5,12.1875 C6.5,11.740625 6.865625,11.375 7.3125,11.375 L20.3125,11.375 C20.759375,11.375 21.125,11.740625 21.125,12.1875 L21.125,22.75" id="Fill-1471" fill="#C5CCCD"></path>
                            <path d="M44.6875,13 L24.375,13 C23.9256875,13 23.5625,12.6368125 23.5625,12.1875 C23.5625,11.7381875 23.9256875,11.375 24.375,11.375 L44.6875,11.375 C45.1368125,11.375 45.5,11.7381875 45.5,12.1875 C45.5,12.6368125 45.1368125,13 44.6875,13" id="Fill-1472" fill="#C5CCCD"></path>
                            <path d="M44.6875,17.875 L24.375,17.875 C23.9256875,17.875 23.5625,17.5118125 23.5625,17.0625 C23.5625,16.6131875 23.9256875,16.25 24.375,16.25 L44.6875,16.25 C45.1368125,16.25 45.5,16.6131875 45.5,17.0625 C45.5,17.5118125 45.1368125,17.875 44.6875,17.875" id="Fill-1473" fill="#C5CCCD"></path>
                            <path d="M44.6875,22.75 L24.375,22.75 C23.9256875,22.75 23.5625,22.3868125 23.5625,21.9375 C23.5625,21.4881875 23.9256875,21.125 24.375,21.125 L44.6875,21.125 C45.1368125,21.125 45.5,21.4881875 45.5,21.9375 C45.5,22.3868125 45.1368125,22.75 44.6875,22.75" id="Fill-1474" fill="#C5CCCD"></path>
                            <path d="M44.6875,27.625 L7.3125,27.625 C6.8631875,27.625 6.5,27.2618125 6.5,26.8125 C6.5,26.3631875 6.8631875,26 7.3125,26 L44.6875,26 C45.1368125,26 45.5,26.3631875 45.5,26.8125 C45.5,27.2618125 45.1368125,27.625 44.6875,27.625" id="Fill-1475" fill="#C5CCCD"></path>
                            <path d="M44.6875,32.5 L7.3125,32.5 C6.8631875,32.5 6.5,32.1368125 6.5,31.6875 C6.5,31.2381875 6.8631875,30.875 7.3125,30.875 L44.6875,30.875 C45.1368125,30.875 45.5,31.2381875 45.5,31.6875 C45.5,32.1368125 45.1368125,32.5 44.6875,32.5" id="Fill-1476" fill="#C5CCCD"></path>
                            <path d="M44.6875,37.375 L7.3125,37.375 C6.8631875,37.375 6.5,37.0118125 6.5,36.5625 C6.5,36.1131875 6.8631875,35.75 7.3125,35.75 L44.6875,35.75 C45.1368125,35.75 45.5,36.1131875 45.5,36.5625 C45.5,37.0118125 45.1368125,37.375 44.6875,37.375" id="Fill-1477" fill="#C5CCCD"></path>
                        </g>
                    </g>
                    <g id="Shield" filter="url(#filter-5)" mask="url(#mask-2)">
                        <g transform="translate(18.000000, 13.000000)">
                            <path d="M29.7794582,2.20588579 C23.9978315,8.83236671 13.8143598,11.029429 2.20588579,11.029429 L2.20588579,28.6765153 C2.20588579,46.8706613 10.2706042,58.5795031 29.7794582,68.3824595 C49.2872092,58.5795031 57.3530306,46.8706613 57.3530306,28.6765153 L57.3530306,11.029429 C45.7456595,11.029429 35.5610848,8.83236671 29.7794582,2.20588579" id="Fill-12" fill="#546670"></path>
                            <path d="M29.7794582,2.20588579 L29.7794582,47.4265445 C22.2331229,47.4265445 16.0621574,41.5919766 15.4963477,34.1912298 C15.4687741,34.5563039 15.4412005,34.921378 15.4412005,35.2941727 C15.4412005,42.2691835 20.4231936,48.0827955 27.0232039,49.367724 C28.6070299,49.676548 29.7794582,51.0122119 29.7794582,52.6258173 L29.7794582,68.3824595 C49.2872092,58.5795031 57.3530306,46.8706613 57.3530306,28.6765153 L57.3530306,11.029429 C45.7456595,11.029429 35.5610848,8.83236671 29.7794582,2.20588579" id="Fill-13" fill="#182A37"></path>
                            <path d="M3.00710405,11.9366973 L3.00710405,28.2701614 C3.00710405,46.308908 10.7815629,57.7674755 29.7794582,67.5812893 C48.7773535,57.7674755 56.5518123,46.308908 56.5518123,28.2701614 L56.5518123,11.9366973 C44.3145184,11.6363813 35.51107,8.9125853 29.7794582,3.65007169 C24.0478464,8.9125853 15.2443979,11.6363813 3.00710405,11.9366973 Z M29.7794582,70.5883453 C29.4397518,70.5883453 29.1000454,70.5100364 28.7890155,70.3534185 C8.60957224,60.2085497 0,47.7375744 0,28.6555594 L0,10.9996495 C0,9.7808976 0.987133892,8.79266076 2.20588579,8.79266076 C14.9051703,8.79266076 23.3801835,6.15221547 28.1173232,0.720221711 C28.9555598,-0.240441551 30.6033565,-0.240441551 31.4415931,0.720221711 C36.1787329,6.15221547 44.6537461,8.79266076 57.3530306,8.79266076 C58.5706795,8.79266076 59.5589164,9.7808976 59.5589164,10.9996495 L59.5589164,28.6555594 C59.5589164,47.7375744 50.9493441,60.2085497 30.7699009,70.3534185 C30.458871,70.5100364 30.1191646,70.5883453 29.7794582,70.5883453 L29.7794582,70.5883453 Z" id="Fill-14" fill="#30404D"></path>
                            <path d="M44.1177158,33.0882869 C44.1177158,41.0063139 37.6985882,47.4265445 29.7794582,47.4265445 C21.8603282,47.4265445 15.4412005,41.0063139 15.4412005,33.0882869 C15.4412005,25.1702598 21.8603282,18.7500292 29.7794582,18.7500292 C37.6985882,18.7500292 44.1177158,25.1702598 44.1177158,33.0882869" id="Fill-15" fill="#30404D"></path>
                            <g id="Group-7" stroke-width="1" fill="none" transform="translate(17.526808, 20.835637)">
                                <path d="M24.4456512,12.2521429 C24.4456512,18.9831257 18.9826189,24.4410902 12.2526497,24.4410902 C5.52268048,24.4410902 0.0596482267,18.9831257 0.0596482267,12.2521429 C0.0596482267,5.52116015 5.52268048,0.0642091998 12.2526497,0.0642091998 C18.9826189,0.0642091998 24.4456512,5.52116015 24.4456512,12.2521429" id="Fill-367" fill="#6E828F"></path>
                                <path d="M12.2526497,22.4352756 C11.6951974,22.4352756 11.2391001,21.9812054 11.2391001,21.421726 L11.2391001,20.4081764 C11.2391001,19.8486971 11.6951974,19.3946268 12.2526497,19.3946268 C12.810102,19.3946268 13.2661993,19.8486971 13.2661993,20.4081764 L13.2661993,21.421726 C13.2661993,21.9812054 12.810102,22.4352756 12.2526497,22.4352756" id="Fill-368" fill="#546670"></path>
                                <path d="M12.2526497,5.20493268 C11.6951974,5.20493268 11.2391001,4.75086247 11.2391001,4.1913831 L11.2391001,3.17783352 C11.2391001,2.61835415 11.6951974,2.16428394 12.2526497,2.16428394 C12.810102,2.16428394 13.2661993,2.61835415 13.2661993,3.17783352 L13.2661993,4.1913831 C13.2661993,4.75086247 12.810102,5.20493268 12.2526497,5.20493268" id="Fill-369" fill="#546670"></path>
                                <path d="M4.14425305,13.3133293 L3.13070346,13.3133293 C2.57325119,13.3133293 2.11715388,12.8592591 2.11715388,12.2997798 C2.11715388,11.7403004 2.57325119,11.2862302 3.13070346,11.2862302 L4.14425305,11.2862302 C4.70170532,11.2862302 5.15780263,11.7403004 5.15780263,12.2997798 C5.15780263,12.8592591 4.70170532,13.3133293 4.14425305,13.3133293" id="Fill-370" fill="#546670"></path>
                                <path d="M21.374596,13.3133293 L20.3610464,13.3133293 C19.8035941,13.3133293 19.3474968,12.8592591 19.3474968,12.2997798 C19.3474968,11.7403004 19.8035941,11.2862302 20.3610464,11.2862302 L21.374596,11.2862302 C21.9320482,11.2862302 22.3881455,11.7403004 22.3881455,12.2997798 C22.3881455,12.8592591 21.9320482,13.3133293 21.374596,13.3133293" id="Fill-371" fill="#546670"></path>
                                <path d="M5.80647436,19.7625453 C5.54295147,19.7625453 5.27942858,19.664231 5.08685416,19.4655753 C4.69156982,19.070291 4.69156982,18.4287141 5.08685416,18.0324162 L5.80647436,17.3158367 C6.2017587,16.9205523 6.84029494,16.9205523 7.23557927,17.3158367 C7.63086361,17.7121345 7.63086361,18.3537114 7.23557927,18.7489958 L6.51595907,19.4655753 C6.32338465,19.664231 6.05986176,19.7625453 5.80647436,19.7625453" id="Fill-372" fill="#546670"></path>
                                <path d="M17.9893404,7.57967936 C17.7258175,7.57967936 17.4724301,7.4803515 17.2697201,7.28270933 C16.8744358,6.88742499 16.8744358,6.24584811 17.2697201,5.84955022 L17.9893404,5.13195711 C18.3846247,4.73565923 19.0231609,4.73667278 19.4184453,5.13094357 C19.8137296,5.5262279 19.8137296,6.16881834 19.4184453,6.56410268 L18.7089606,7.28169578 C18.5062506,7.4803515 18.2427277,7.57967936 17.9893404,7.57967936" id="Fill-373" fill="#546670"></path>
                                <path d="M6.51595907,7.57967936 C6.26257167,7.57967936 5.99904878,7.4803515 5.79633887,7.28169578 L5.08685416,6.56410268 C4.69156982,6.16881834 4.69156982,5.5262279 5.08685416,5.13094357 C5.4821385,4.73667278 6.12067473,4.73565923 6.51595907,5.13195711 L7.23557927,5.84955022 C7.63086361,6.24584811 7.63086361,6.88742499 7.23557927,7.28270933 C7.03286936,7.4803515 6.77948196,7.57967936 6.51595907,7.57967936" id="Fill-374" fill="#546670"></path>
                                <path d="M18.6988251,19.7625453 C18.4454377,19.7625453 18.1819148,19.664231 17.9893404,19.4655753 L17.2697201,18.7489958 C16.8744358,18.3537114 16.8744358,17.7121345 17.2697201,17.3158367 C17.6650045,16.9205523 18.3035407,16.9205523 18.6988251,17.3158367 L19.4184453,18.0324162 C19.8137296,18.4287141 19.8137296,19.070291 19.4184453,19.4655753 C19.2258708,19.664231 18.9623479,19.7625453 18.6988251,19.7625453" id="Fill-375" fill="#546670"></path>
                                <path d="M17.3203976,13.3133293 L17.2190427,13.3133293 C16.7528099,15.6252359 14.7054397,17.3675277 12.2526497,17.3675277 C9.62755629,17.3675277 7.48896667,15.3637402 7.23557927,12.8065546 C7.21530828,12.9748038 7.1849018,13.1389988 7.1849018,13.3133293 C7.1849018,16.1127533 9.45525286,18.3810773 12.2526497,18.3810773 C14.7054397,18.3810773 16.7528099,16.6387855 17.2190427,14.3268789 L17.3203976,14.3268789 C17.8778499,14.3268789 18.3339472,13.8728087 18.3339472,13.3133293 C18.3339472,13.1237956 18.2731342,12.9565599 18.1819148,12.8065546 C17.9994758,13.1035246 17.695411,13.3133293 17.3203976,13.3133293" id="Fill-376" fill="#30404D"></path>
                                <path d="M17.3203976,11.2862302 L17.2190427,11.2862302 C16.7528099,8.97229648 14.7054397,7.23203185 12.2526497,7.23203185 C9.45525286,7.23203185 7.1849018,9.50035582 7.1849018,12.2997798 C7.1849018,15.0992037 9.45525286,17.3675277 12.2526497,17.3675277 C14.7054397,17.3675277 16.7528099,15.6252359 17.2190427,13.3133293 L17.3203976,13.3133293 C17.8778499,13.3133293 18.3339472,12.8592591 18.3339472,12.2997798 C18.3339472,11.7392868 17.8778499,11.2862302 17.3203976,11.2862302" id="Fill-377" fill="#ADBDC4"></path>
                            </g>
                        </g>
                    </g>
                    <path d="M47.148133,43.8513665 C47.0184265,43.6590659 46.9419355,43.4224813 46.9419355,43.1666667 C46.9419355,42.5223345 47.427201,42 48.0258065,42 C48.6244119,42 49.1096774,42.5223345 49.1096774,43.1666667 C49.1096774,43.403218 49.0442725,43.6233262 48.9318662,43.807182 L50.5145076,45.6991522 C50.6696141,45.5740831 50.8622534,45.5 51.0709677,45.5 C51.5840581,45.5 52,45.9477153 52,46.5 C52,47.0522847 51.5840581,47.5 51.0709677,47.5 C50.8228407,47.5 50.597433,47.3952962 50.4307985,47.2246965 L48.7625984,48.3907935 C48.883156,48.5594744 48.9548387,48.7707265 48.9548387,49 C48.9548387,49.5522847 48.5388968,50 48.0258065,50 C47.5127161,50 47.0967742,49.5522847 47.0967742,49 C47.0967742,48.7797866 47.1629035,48.5761984 47.2749528,48.4109885 L45.6038524,47.242864 C45.4345164,47.4354279 45.1948074,47.5555556 44.9290323,47.5555556 C44.4159419,47.5555556 44,47.1078403 44,46.5555556 C44,46.0032708 44.4159419,45.5555556 44.9290323,45.5555556 C45.0785991,45.5555556 45.219911,45.5935995 45.3450713,45.6611876 L47.148133,43.8513665 Z M47.5450569,44.2125809 L45.7249612,46.0394999 C45.8094508,46.1901561 45.8580645,46.366745 45.8580645,46.5555556 C45.8580645,46.620796 45.8522603,46.6845773 45.8411775,46.7463338 L47.7160815,48.05692 C47.73308,48.0504518 47.7503056,48.044501 47.7677419,48.0390852 L47.7677419,44.3000616 C47.6898763,44.2795908 47.6153088,44.2500654 47.5450569,44.2125809 Z M48.5677419,44.202154 L48.5677419,47.8645771 L50.1699328,46.7446214 C50.1516471,46.6663386 50.1419355,46.5843901 50.1419355,46.5 C50.1419355,46.3779204 50.1622587,46.2609502 50.1994621,46.1527954 L48.5677419,44.202154 Z" id="Combined-Shape" fill="#FFFFFF" mask="url(#mask-2)"></path>
                </g>
                <g id="Azure-Border" stroke="#0078D4" stroke-width="4">
                    <rect x="2" y="2" width="96" height="96" rx="48"></rect>
                </g>
            </g>
        </g>
    </g>
</svg>