<svg width="100" height="100" viewBox="0 0 100 100" fill="none" xmlns="http://www.w3.org/2000/svg">
<g clip-path="url(#clip0_561_674)">
<path d="M49.6401 96.4499C40.382 96.4499 31.3317 93.7045 23.6339 88.561C15.936 83.4174 9.93624 76.1067 6.3933 67.5533C2.85036 58.9999 1.92337 49.588 3.72954 40.5077C5.53571 31.4275 9.99394 23.0867 16.5404 16.5402C23.0869 9.99372 31.4277 5.5355 40.5079 3.72933C49.5882 1.92315 59.0001 2.85015 67.5535 6.39308C76.1069 9.93602 83.4176 15.9358 88.5612 23.6336C93.7047 31.3315 96.4501 40.3817 96.4501 49.6399C96.4505 55.7872 95.24 61.8744 92.8878 67.5538C90.5355 73.2332 87.0875 78.3937 82.7407 82.7405C78.3939 87.0873 73.2335 90.5353 67.554 92.8876C61.8746 95.2398 55.7874 96.4503 49.6401 96.4499V96.4499Z" fill="url(#paint0_linear_561_674)"/>
<path fill-rule="evenodd" clip-rule="evenodd" d="M95.54 49.6399C95.54 58.718 92.848 67.5923 87.8045 75.1406C82.7609 82.6888 75.5923 88.5719 67.2052 92.046C58.818 95.52 49.5891 96.429 40.6854 94.6579C31.7816 92.8869 23.603 88.5153 17.1838 82.0961C10.7646 75.6769 6.39302 67.4983 4.62196 58.5945C2.85089 49.6908 3.75987 40.4618 7.23393 32.0747C10.708 23.6876 16.5911 16.519 24.1393 11.4754C31.6875 6.43187 40.5618 3.73988 49.64 3.73988C55.6677 3.73986 61.6363 4.92708 67.2052 7.23377C72.774 9.54045 77.834 12.9214 82.0963 17.1836C86.3585 21.4458 89.7394 26.5058 92.0461 32.0747C94.3528 37.6435 95.54 43.6122 95.54 49.6399V49.6399ZM49.64 -0.000106449C59.4579 -0.000106449 69.0552 2.91123 77.2185 8.36574C85.3818 13.8203 91.7442 21.573 95.5014 30.6435C99.2585 39.714 100.242 49.695 98.3262 59.3242C96.4108 68.9534 91.6831 77.7984 84.7408 84.7407C77.7985 91.683 68.9535 96.4107 59.3243 98.3261C49.6951 100.241 39.7141 99.2584 30.6436 95.5013C21.5731 91.7441 13.8204 85.3816 8.36584 77.2184C2.91133 69.0551 -1.61629e-06 59.4577 3.61524e-07 49.6399C-0.000786426 43.1208 1.28265 36.6655 3.77702 30.6425C6.27138 24.6196 9.92781 19.147 14.5375 14.5374C19.1471 9.9277 24.6197 6.27127 30.6427 3.77691C36.6656 1.28254 43.121 -0.000894549 49.64 -0.000106449V-0.000106449Z" fill="#F2F1F0"/>
<path fill-rule="evenodd" clip-rule="evenodd" d="M92.7296 49.64C92.7296 58.1624 90.2024 66.4934 85.4676 73.5795C80.7328 80.6656 74.0031 86.1886 66.1294 89.45C58.2557 92.7113 49.5918 93.5647 41.2331 91.902C32.8745 90.2394 25.1966 86.1355 19.1703 80.1092C13.1441 74.083 9.04017 66.4051 7.37753 58.0464C5.7149 49.6878 6.56822 41.0238 9.8296 33.1502C13.091 25.2765 18.6139 18.5468 25.7 13.812C32.7862 9.07718 41.1172 6.55 49.6396 6.55C55.2983 6.54965 60.9017 7.66397 66.1298 9.82933C71.3579 11.9947 76.1082 15.1687 80.1096 19.17C84.1109 23.1713 87.2849 27.9217 89.4502 33.1498C91.6156 38.3778 92.7299 43.9812 92.7296 49.64ZM49.6396 2.81C58.9017 2.81 67.9558 5.55653 75.6569 10.7023C83.3581 15.848 89.3604 23.1619 92.9049 31.7189C96.4493 40.276 97.3767 49.6919 95.5697 58.7761C93.7628 67.8602 89.3027 76.2045 82.7534 82.7538C76.2041 89.3031 67.8598 93.7632 58.7757 95.5702C49.6915 97.3771 40.2756 96.4497 31.7185 92.9053C23.1614 89.3608 15.8476 83.3585 10.7018 75.6574C5.5561 67.9562 2.80957 58.9021 2.80957 49.64C2.81076 37.2203 7.74501 25.3096 16.5271 16.5275C25.3091 7.74544 37.2198 2.81119 49.6396 2.81V2.81Z" fill="#0078D4"/>
<path d="M43.3788 41.087H30.7772C30.0632 41.0891 29.379 41.3737 28.8741 41.8786C28.3692 42.3835 28.0846 43.0677 28.0825 43.7817V56.0596H71.1978V47.8238C71.1957 47.1098 70.9111 46.4256 70.4062 45.9207C69.9013 45.4158 69.2171 45.1312 68.503 45.1291H48.2928L45.9139 42.2744C45.6042 41.9028 45.2166 41.6038 44.7785 41.3986C44.3404 41.1934 43.8626 41.087 43.3788 41.087V41.087Z" fill="url(#paint1_linear_561_674)"/>
<path d="M64.9247 17.4725H34.354C32.8305 17.4725 31.5955 18.7075 31.5955 20.2311V59.7104C31.5955 61.234 32.8305 62.469 34.354 62.469H64.9247C66.4482 62.469 67.6833 61.234 67.6833 59.7104V20.2311C67.6833 18.7075 66.4482 17.4725 64.9247 17.4725Z" fill="#003067"/>
<path d="M55.2696 34.0984C55.2696 33.725 55.4179 33.3668 55.682 33.1027C55.9461 32.8387 56.3042 32.6903 56.6777 32.6903H62.3102C62.6836 32.6903 63.0418 32.8387 63.3058 33.1027C63.5699 33.3668 63.7183 33.725 63.7183 34.0984V34.0984C63.7183 34.4719 63.5699 34.83 63.3058 35.0941C63.0418 35.3582 62.6836 35.5065 62.3102 35.5065H56.6777C56.3042 35.5065 55.9461 35.3582 55.682 35.0941C55.4179 34.83 55.2696 34.4719 55.2696 34.0984V34.0984ZM46.8209 39.7309C46.8209 39.3574 46.9692 38.9993 47.2333 38.7352C47.4974 38.4711 47.8555 38.3228 48.229 38.3228H62.3102C62.6836 38.3228 63.0418 38.4711 63.3058 38.7352C63.5699 38.9993 63.7183 39.3574 63.7183 39.7309C63.7183 40.1044 63.5699 40.4625 63.3058 40.7266C63.0418 40.9907 62.6836 41.139 62.3102 41.139H48.229C47.8555 41.139 47.4974 40.9907 47.2333 40.7266C46.9692 40.4625 46.8209 40.1044 46.8209 39.7309V39.7309ZM44.0046 39.7309C44.0046 40.1044 43.8563 40.4625 43.5922 40.7266C43.3281 40.9907 42.97 41.139 42.5965 41.139H36.964C36.5906 41.139 36.2324 40.9907 35.9683 40.7266C35.7043 40.4625 35.5559 40.1044 35.5559 39.7309C35.5559 39.3574 35.7043 38.9993 35.9683 38.7352C36.2324 38.4711 36.5906 38.3228 36.964 38.3228H42.5965C42.97 38.3228 43.3281 38.4711 43.5922 38.7352C43.8563 38.9993 44.0046 39.3574 44.0046 39.7309V39.7309Z" fill="url(#paint2_linear_561_674)"/>
<path d="M52.4533 34.0985C52.4533 34.472 52.305 34.8301 52.0409 35.0942C51.7768 35.3583 51.4187 35.5066 51.0452 35.5066H36.964C36.5906 35.5066 36.2324 35.3583 35.9683 35.0942C35.7043 34.8301 35.5559 34.472 35.5559 34.0985V34.0985C35.5559 33.7251 35.7043 33.3669 35.9683 33.1028C36.2324 32.8388 36.5906 32.6904 36.964 32.6904H51.0452C51.4187 32.6904 51.7768 32.8388 52.0409 33.1028C52.305 33.3669 52.4533 33.7251 52.4533 34.0985V34.0985ZM63.7183 28.4661C63.7183 28.8395 63.5699 29.1977 63.3058 29.4618C63.0418 29.7258 62.6836 29.8742 62.3102 29.8742H36.964C36.5906 29.8742 36.2324 29.7258 35.9683 29.4618C35.7043 29.1977 35.5559 28.8395 35.5559 28.4661C35.5559 28.0926 35.7043 27.7344 35.9683 27.4704C36.2324 27.2063 36.5906 27.0579 36.964 27.0579H62.3102C62.6836 27.0579 63.0418 27.2063 63.3058 27.4704C63.5699 27.7344 63.7183 28.0926 63.7183 28.4661V28.4661Z" fill="#018BF2"/>
<path d="M55.2696 50.5298C55.2696 50.1564 55.4179 49.7982 55.682 49.5341C55.9461 49.2701 56.3042 49.1217 56.6777 49.1217H62.3102C62.6836 49.1217 63.0418 49.2701 63.3058 49.5341C63.5699 49.7982 63.7183 50.1564 63.7183 50.5298V50.5298C63.7183 50.9033 63.5699 51.2615 63.3058 51.5255C63.0418 51.7896 62.6836 51.938 62.3102 51.938H56.6777C56.3042 51.938 55.9461 51.7896 55.682 51.5255C55.4179 51.2615 55.2696 50.9033 55.2696 50.5298V50.5298ZM46.8209 56.1623C46.8209 55.7888 46.9692 55.4307 47.2333 55.1666C47.4974 54.9025 47.8555 54.7542 48.229 54.7542H62.3102C62.6836 54.7542 63.0418 54.9025 63.3058 55.1666C63.5699 55.4307 63.7183 55.7888 63.7183 56.1623V56.1623C63.7183 56.5358 63.5699 56.8939 63.3058 57.158C63.0418 57.4221 62.6836 57.5704 62.3102 57.5704H48.229C47.8555 57.5704 47.4974 57.4221 47.2333 57.158C46.9692 56.8939 46.8209 56.5358 46.8209 56.1623V56.1623ZM44.0046 56.1623C44.0046 56.5358 43.8563 56.8939 43.5922 57.158C43.3281 57.4221 42.97 57.5704 42.5965 57.5704H36.964C36.5906 57.5704 36.2324 57.4221 35.9683 57.158C35.7043 56.8939 35.5559 56.5358 35.5559 56.1623V56.1623C35.5559 55.7888 35.7043 55.4307 35.9683 55.1666C36.2324 54.9025 36.5906 54.7542 36.964 54.7542H42.5965C42.97 54.7542 43.3281 54.9025 43.5922 55.1666C43.8563 55.4307 44.0046 55.7888 44.0046 56.1623V56.1623Z" fill="url(#paint3_linear_561_674)"/>
<path d="M52.4533 50.5298C52.4533 50.9033 52.305 51.2615 52.0409 51.5255C51.7768 51.7896 51.4187 51.938 51.0452 51.938H36.964C36.5906 51.938 36.2324 51.7896 35.9683 51.5255C35.7043 51.2615 35.5559 50.9033 35.5559 50.5298V50.5298C35.5559 50.1564 35.7043 49.7982 35.9683 49.5341C36.2324 49.2701 36.5906 49.1217 36.964 49.1217H51.0452C51.4187 49.1217 51.7768 49.2701 52.0409 49.5341C52.305 49.7982 52.4533 50.1564 52.4533 50.5298V50.5298ZM63.7183 44.8974C63.7183 45.2708 63.5699 45.629 63.3058 45.8931C63.0418 46.1571 62.6836 46.3055 62.3102 46.3055H36.964C36.5906 46.3055 36.2324 46.1571 35.9683 45.8931C35.7043 45.629 35.5559 45.2708 35.5559 44.8974V44.8974C35.5559 44.5239 35.7043 44.1657 35.9683 43.9017C36.2324 43.6376 36.5906 43.4892 36.964 43.4892H62.3102C62.6836 43.4892 63.0418 43.6376 63.3058 43.9017C63.5699 44.1657 63.7183 44.5239 63.7183 44.8974V44.8974Z" fill="#018BF2"/>
<path d="M62.6439 23.2674C63.2372 23.2674 63.7182 22.7864 63.7182 22.1931C63.7182 21.5997 63.2372 21.1187 62.6439 21.1187C62.0506 21.1187 61.5696 21.5997 61.5696 22.1931C61.5696 22.7864 62.0506 23.2674 62.6439 23.2674Z" fill="#0078D4"/>
<path d="M59.1244 23.2674C59.7177 23.2674 60.1987 22.7864 60.1987 22.1931C60.1987 21.5997 59.7177 21.1187 59.1244 21.1187C58.531 21.1187 58.05 21.5997 58.05 22.1931C58.05 22.7864 58.531 23.2674 59.1244 23.2674Z" fill="#50E6FF"/>
<path d="M55.6048 23.2674C56.1982 23.2674 56.6792 22.7864 56.6792 22.1931C56.6792 21.5997 56.1982 21.1187 55.6048 21.1187C55.0115 21.1187 54.5305 21.5997 54.5305 22.1931C54.5305 22.7864 55.0115 23.2674 55.6048 23.2674Z" fill="white"/>
<path d="M71.1978 53.4296V71.4251C71.1978 72.3124 70.8453 73.1634 70.2178 73.7909C69.5904 74.4183 68.7394 74.7708 67.852 74.7708H31.4282C30.5409 74.7708 29.6899 74.4183 29.0625 73.7909C28.435 73.1634 28.0825 72.3124 28.0825 71.4251V53.4296C28.0825 52.9903 28.1691 52.5552 28.3372 52.1493C28.5053 51.7434 28.7518 51.3745 29.0624 51.0638C29.3731 50.7532 29.742 50.5067 30.1479 50.3386C30.5538 50.1704 30.9889 50.0839 31.4282 50.0839H67.852C68.2914 50.0839 68.7265 50.1704 69.1324 50.3386C69.5383 50.5067 69.9072 50.7532 70.2178 51.0638C70.5285 51.3745 70.775 51.7434 70.9431 52.1493C71.1112 52.5552 71.1978 52.9903 71.1978 53.4296V53.4296Z" fill="url(#paint4_linear_561_674)"/>
<path opacity="0.3" d="M67.6833 48.0839H31.5955V50.0839H67.6833V48.0839Z" fill="#000C1A"/>
<path fill-rule="evenodd" clip-rule="evenodd" d="M92.7296 49.6399C92.7296 58.1623 90.2024 66.4933 85.4676 73.5794C80.7328 80.6655 74.0031 86.1885 66.1294 89.4499C58.2557 92.7112 49.5918 93.5646 41.2331 91.9019C32.8745 90.2393 25.1966 86.1354 19.1703 80.1091C13.1441 74.0829 9.04017 66.405 7.37753 58.0463C5.7149 49.6877 6.56822 41.0237 9.8296 33.1501C13.091 25.2764 18.6139 18.5467 25.7001 13.8119C32.7862 9.07708 41.1172 6.5499 49.6396 6.5499C55.2983 6.54956 60.9017 7.66388 66.1298 9.82923C71.3579 11.9946 76.1082 15.1686 80.1096 19.1699C84.1109 23.1712 87.2849 27.9216 89.4502 33.1497C91.6156 38.3777 92.7299 43.9811 92.7296 49.6399V49.6399ZM49.6396 2.8099C58.9017 2.8099 67.9558 5.55643 75.6569 10.7022C83.3581 15.8479 89.3604 23.1618 92.9048 31.7188C96.4493 40.2759 97.3767 49.6918 95.5697 58.776C93.7628 67.8601 89.3027 76.2044 82.7534 82.7537C76.2041 89.303 67.8598 93.7631 58.7757 95.5701C49.6915 97.377 40.2756 96.4496 31.7185 92.9052C23.1614 89.3607 15.8476 83.3584 10.7018 75.6573C5.5561 67.9561 2.80957 58.902 2.80957 49.6399C2.81075 37.2202 7.74499 25.3095 16.5271 16.5274C25.3091 7.7453 37.2198 2.81105 49.6396 2.80986V2.8099Z" fill="#0078D4"/>
<path opacity="0.2" d="M61.4375 74.7708C61.3519 74.4673 61.242 74.1711 61.1089 73.8851C61.1118 73.7806 61.1138 73.6742 61.1138 73.5643C61.1058 72.551 60.9323 71.5457 60.6001 70.5883C60.3244 69.8026 59.9687 69.0473 59.5386 68.3344C59.1611 67.7097 58.7466 67.1082 58.2974 66.5331C57.9858 66.1332 57.6782 65.7367 57.3364 65.2875C57.3335 65.143 57.3316 64.5868 57.3316 64.5868C57.3228 63.8827 57.2788 63.1679 57.1997 62.4584C57.0918 61.4638 56.8133 60.4952 56.3765 59.5951C55.8448 58.5091 55.0335 57.5843 54.0259 56.9159C52.8248 56.1559 51.423 55.7743 50.0025 55.8207H49.9995C49.0193 55.8324 48.0481 56.009 47.1265 56.3432C46.0619 56.7352 45.1202 57.4021 44.397 58.2763C43.7643 59.0486 43.3008 59.9452 43.0366 60.9081C42.8035 61.7612 42.6885 62.6423 42.6948 63.5268C42.6945 63.9475 42.7157 64.3679 42.7583 64.7865C42.772 64.9271 42.7798 65.0697 42.7798 65.182C42.7837 65.3609 42.7569 65.5391 42.7007 65.7089C42.6269 65.8987 42.5241 66.0759 42.396 66.2343C42.0523 66.6684 41.7075 67.1391 41.354 67.6518C40.9594 68.2251 40.6015 68.823 40.2827 69.4417C39.9357 70.1156 39.6494 70.8191 39.4272 71.5438C39.3071 71.9378 39.2132 72.3394 39.146 72.7459C38.7892 72.9639 38.4591 73.223 38.1626 73.5179C37.8021 73.8841 37.5048 74.3074 37.2827 74.7708L61.4375 74.7708Z" fill="#003067"/>
<path d="M53.8529 83.6264C53.1759 83.6402 52.5057 83.4883 51.9008 83.184C51.4891 82.9646 51.1268 82.6632 50.8363 82.2982L50.4447 82.2675C50.14 82.2426 49.8324 82.2309 49.5179 82.2309C49.3161 82.2316 49.1146 82.2482 48.9154 82.2807C48.8363 82.2934 48.7572 82.3065 48.6791 82.3207L48.6273 82.3729C48.3215 82.6723 47.963 82.9125 47.5697 83.0814C47.0878 83.2859 46.5697 83.3913 46.0463 83.3915H46.0385C45.6516 83.3913 45.2655 83.3557 44.8851 83.285C44.4291 83.2036 43.9884 83.0525 43.5785 82.8368C43.352 82.7236 43.1112 82.6417 42.8627 82.5931C42.4642 82.5199 42.044 82.4535 41.6019 82.3939C41.38 82.3653 41.1596 82.3252 40.9418 82.2738C40.5333 82.1786 40.1488 82.0007 39.8119 81.7509C39.4475 81.4844 39.151 81.1358 38.9464 80.7333C38.7418 80.3309 38.6348 79.8859 38.6342 79.4345C38.6288 79.0174 38.681 78.6015 38.7894 78.1986C38.805 78.14 38.8135 78.0796 38.8148 78.019C38.8148 78.019 38.8099 77.9623 38.8021 77.9067C38.77 77.6795 38.7498 77.4508 38.7416 77.2216C38.7178 76.8029 38.7797 76.3837 38.9236 75.9897C39.0676 75.5958 39.2904 75.2354 39.5785 74.9306C39.9883 74.5338 40.4848 74.2377 41.0287 74.0659L41.0307 74.0639C41.0426 73.4069 41.1468 72.7548 41.3403 72.1269C41.5273 71.5166 41.7685 70.9242 42.061 70.3568C42.341 69.8138 42.6551 69.289 43.0014 68.7856C43.3276 68.3124 43.6469 67.8764 43.9643 67.475C44.2251 67.1487 44.433 66.7834 44.5805 66.3925C44.7138 66.0092 44.7812 65.606 44.7797 65.2001C44.7793 64.994 44.7686 64.788 44.7475 64.5829C44.712 64.232 44.6944 63.8795 44.6948 63.5268C44.6884 62.8258 44.7781 62.1272 44.9614 61.4506C45.1509 60.755 45.4843 60.107 45.9399 59.5483C46.4416 58.9446 47.0943 58.4845 47.8315 58.2148C48.5425 57.9602 49.2912 57.8268 50.0463 57.8202H50.0502C51.0605 57.7814 52.0592 58.0464 52.9174 58.581C53.6312 59.0546 54.2059 59.7099 54.5824 60.4794C54.9173 61.1725 55.1303 61.9181 55.2123 62.6835C55.2836 63.3241 55.3236 63.9716 55.3314 64.6113V64.8158C55.3314 65.0848 55.3353 65.3237 55.3412 65.5336C55.3442 65.6311 55.3566 65.7281 55.3783 65.8232C55.4002 65.9188 55.4319 66.0119 55.473 66.101C55.53 66.2126 55.5991 66.3175 55.679 66.414C56.0247 66.8681 56.3695 67.3134 56.719 67.7621C57.1194 68.2742 57.4885 68.8098 57.8245 69.3661C58.1842 69.9616 58.4817 70.5925 58.7122 71.249C58.9725 72.0023 59.1081 72.7932 59.1136 73.5903C59.1136 73.8408 59.1003 74.0912 59.0736 74.3403C59.3324 74.7395 59.5128 75.1844 59.6048 75.6513C59.6234 75.7455 59.6419 75.8207 59.6615 75.8895L59.7269 76.0243C59.7425 76.0458 59.7669 76.0741 59.7943 76.1059C60.0305 76.3689 60.223 76.6681 60.3646 76.9921C60.5484 77.3897 60.6446 77.8221 60.6468 78.2601C60.6521 78.8443 60.4651 79.4139 60.1146 79.8812C59.8916 80.177 59.6198 80.4326 59.3109 80.6371C59.0717 80.8014 58.8203 80.9471 58.5589 81.0731C58.3929 81.1522 58.2356 81.2313 58.0774 81.3133C57.9048 81.3937 57.7394 81.489 57.5833 81.598C57.4649 81.6888 57.3566 81.7919 57.26 81.9056C57.0768 82.1117 56.879 82.3044 56.6682 82.4823C56.4467 82.6698 56.2117 82.8409 55.9651 82.994C55.6426 83.1969 55.2927 83.3526 54.9261 83.4564C54.6273 83.5401 54.3212 83.5949 54.012 83.62L53.9319 83.6263L53.8529 83.6264Z" fill="url(#paint5_linear_561_674)"/>
<path d="M56.8894 75.0322C57.0955 75.1147 57.2732 75.2554 57.4008 75.4371C57.5216 75.6253 57.6048 75.8351 57.6458 76.055C57.6742 76.197 57.7062 76.3284 57.7417 76.4491C57.7757 76.5658 57.8184 76.6798 57.8695 76.79C57.9193 76.8967 57.9763 76.9999 58.0399 77.099C58.1168 77.2152 58.2023 77.3256 58.2956 77.4292C58.3973 77.5431 58.48 77.6726 58.5406 77.8127C58.6078 77.9525 58.6441 78.1051 58.6472 78.2601C58.6517 78.409 58.6067 78.5551 58.5193 78.6756C58.4306 78.7926 58.3225 78.8934 58.1997 78.9739C58.0375 79.0869 57.8665 79.1866 57.6884 79.2722C57.5108 79.3574 57.3333 79.4462 57.1557 79.5385C56.8908 79.6649 56.6377 79.8147 56.3993 79.986C56.1656 80.1614 55.9513 80.3614 55.7602 80.5825C55.6412 80.7156 55.513 80.8402 55.3766 80.9554C55.2289 81.0803 55.0722 81.1942 54.9079 81.2963C54.746 81.399 54.5702 81.4779 54.3859 81.5307C54.2119 81.5797 54.0335 81.6119 53.8533 81.6265C53.5001 81.6393 53.1492 81.5662 52.8306 81.4135C52.5231 81.2311 52.278 80.96 52.1274 80.6358C52.0917 80.5531 52.0324 80.4827 51.957 80.4334C51.8685 80.396 51.7753 80.3709 51.68 80.3588C51.3178 80.3304 50.9591 80.302 50.604 80.2736C50.2489 80.2452 49.8867 80.231 49.5174 80.231C49.2105 80.2317 48.9042 80.2566 48.6012 80.3055C48.2887 80.3553 47.9798 80.4156 47.6744 80.4867C47.593 80.5145 47.5247 80.5714 47.4826 80.6465C47.4031 80.757 47.314 80.8604 47.2163 80.9554C47.0831 81.082 46.9278 81.183 46.7582 81.2537C46.5174 81.3484 46.2606 81.3954 46.0018 81.3922C45.748 81.3903 45.4948 81.3653 45.2455 81.3176C44.9928 81.2738 44.7485 81.1911 44.5211 81.0726C44.1111 80.8628 43.6736 80.7122 43.2214 80.6252C42.7953 80.547 42.3443 80.476 41.8684 80.4121C41.7108 80.3918 41.5544 80.3634 41.3997 80.3269C41.2572 80.2944 41.123 80.2328 41.0055 80.1458C40.8968 80.0661 40.8061 79.9645 40.7392 79.8475C40.6668 79.6982 40.6303 79.534 40.6327 79.3681C40.6321 79.1522 40.6608 78.9372 40.7179 78.7289C40.7756 78.5169 40.8078 78.2987 40.8138 78.0791C40.814 77.9258 40.8033 77.7727 40.7818 77.621C40.7596 77.462 40.7454 77.302 40.7392 77.1416C40.7269 76.9981 40.7432 76.8537 40.7871 76.7165C40.831 76.5794 40.9016 76.4523 40.9948 76.3426C41.2068 76.149 41.4627 76.01 41.7406 75.9378C41.8859 75.8935 42.0228 75.8251 42.1454 75.7354C42.2583 75.6507 42.3651 75.5581 42.465 75.4584C42.5665 75.3564 42.6592 75.2459 42.742 75.1281C42.8312 75.0023 42.9273 74.8814 43.0296 74.7659C43.0506 74.7384 43.0619 74.7047 43.0616 74.67C43.0616 74.5848 43.0581 74.5031 43.0509 74.425C43.0438 74.3469 43.0367 74.2617 43.0296 74.1693C43.0315 73.6745 43.1069 73.1826 43.2534 72.7099C43.405 72.2138 43.6011 71.7325 43.8394 71.2717C44.0802 70.804 44.3506 70.3521 44.649 69.9188C44.9473 69.4856 45.242 69.0843 45.5332 68.715C45.9274 68.2209 46.2403 67.6671 46.46 67.0744C46.6707 66.4791 46.7788 65.8523 46.7796 65.2207C46.7798 64.9397 46.7655 64.6588 46.737 64.3792C46.7083 64.096 46.6941 63.8115 46.6944 63.5269C46.6879 63.0092 46.7524 62.493 46.8861 61.9929C47.0005 61.5647 47.2038 61.1654 47.4827 60.821C47.763 60.487 48.127 60.2333 48.5374 60.0859C49.0373 59.9107 49.563 59.8207 50.0927 59.8196C50.694 59.7893 51.2907 59.9375 51.8079 60.2457C52.2289 60.524 52.5674 60.9103 52.788 61.3643C53.0221 61.8499 53.1699 62.3726 53.2248 62.909C53.2887 63.4771 53.3242 64.0524 53.3313 64.6348V64.8159C53.3313 65.1071 53.3348 65.3663 53.3419 65.5936C53.3489 65.8195 53.3774 66.0442 53.4272 66.2647C53.4792 66.4919 53.5542 66.7132 53.6509 66.9252C53.7717 67.1798 53.9218 67.4193 54.0983 67.639C54.4392 68.0864 54.7872 68.5374 55.1423 68.9919C55.4935 69.4407 55.8172 69.9103 56.1118 70.3981C56.4008 70.8766 56.64 71.3835 56.8255 71.9109C57.0141 72.4595 57.1113 73.0353 57.1131 73.6154C57.1145 74.0966 57.039 74.5749 56.8894 75.0322V75.0322ZM47.9514 63.9317C48.0392 63.9281 48.1256 63.9544 48.1964 64.0063C48.263 64.0595 48.3144 64.1293 48.3456 64.2087C48.3802 64.2908 48.4052 64.3765 48.4201 64.4643C48.4346 64.5524 48.4417 64.6415 48.4415 64.7307C48.4439 64.7892 48.433 64.8475 48.4095 64.9011C48.386 64.9464 48.3533 64.9863 48.3136 65.0183L48.1857 65.1248C48.1396 65.1638 48.0969 65.2066 48.0579 65.2527C48.0069 65.332 47.9375 65.3978 47.8555 65.4444C47.7712 65.4936 47.6894 65.5469 47.6105 65.6042C47.5348 65.6589 47.4636 65.7195 47.3974 65.7853C47.3643 65.8209 47.3387 65.8629 47.3222 65.9087C47.3057 65.9545 47.2987 66.0031 47.3015 66.0517C47.3022 66.0843 47.3115 66.1163 47.3283 66.1443C47.3451 66.1723 47.3689 66.1955 47.3974 66.2115C47.5562 66.3116 47.6821 66.456 47.7596 66.6269C47.8307 66.7903 47.9088 66.9501 47.994 67.1063C48.0761 67.2588 48.1885 67.393 48.3242 67.5005C48.5105 67.6214 48.7314 67.6776 48.9528 67.6603H49.0167C49.2998 67.6464 49.5763 67.57 49.8263 67.4366C50.082 67.3016 50.3377 67.1596 50.5933 67.0104C50.6375 66.9851 50.6839 66.9637 50.7318 66.9465C50.7816 66.9291 50.8283 66.9039 50.8703 66.872L51.648 66.2647C51.6613 66.2192 51.6719 66.173 51.68 66.1262C51.6871 66.0836 51.6942 66.0339 51.7013 65.9771C51.7042 65.9092 51.6856 65.842 51.648 65.7853C51.6128 65.7359 51.5696 65.6927 51.5202 65.6575C51.4658 65.62 51.4041 65.5946 51.3391 65.5829C51.2739 65.5703 51.2097 65.5525 51.1473 65.5297C50.9775 65.4944 50.8152 65.4295 50.6679 65.3379C50.5216 65.2469 50.364 65.1752 50.1992 65.1248C50.1841 65.1203 50.1704 65.1121 50.1592 65.1009C50.1481 65.0898 50.1398 65.076 50.1353 65.0609C50.119 65.0191 50.1047 64.9764 50.0927 64.9331C50.0788 64.8883 50.0752 64.841 50.082 64.7946C50.0899 64.7589 50.0862 64.7215 50.0714 64.6881C50.0717 64.5989 50.0788 64.5098 50.0927 64.4217C50.1075 64.3277 50.14 64.2373 50.1886 64.1554C50.23 64.0793 50.2883 64.0138 50.359 63.9637C50.4433 63.9152 50.5388 63.8895 50.636 63.8891C50.7307 63.8821 50.8254 63.9013 50.91 63.9445C50.9945 63.9877 51.0655 64.0533 51.1154 64.1341C51.214 64.2947 51.2691 64.4783 51.2752 64.6667C51.2769 64.7514 51.2586 64.8354 51.2219 64.9117C51.186 64.9846 51.1677 65.0649 51.1687 65.1461C51.1661 65.1686 51.1697 65.1914 51.1791 65.2121C51.1885 65.2327 51.2033 65.2504 51.2219 65.2633C51.2647 65.2869 51.3118 65.3014 51.3604 65.3059C51.5237 65.3059 51.6303 65.2668 51.68 65.1887C51.7376 65.0806 51.7669 64.9596 51.7652 64.8372C51.7638 64.6553 51.7496 64.4737 51.7226 64.2939C51.6961 64.1012 51.6386 63.9141 51.5522 63.7398C51.4726 63.5766 51.3601 63.4316 51.2219 63.3137C51.0742 63.1957 50.8888 63.1352 50.6999 63.1433C50.5547 63.1295 50.4082 63.1471 50.2703 63.1949C50.1324 63.2427 50.0065 63.3195 49.9009 63.4203C49.7199 63.6582 49.6292 63.9527 49.6452 64.2512C49.6453 64.3581 49.6524 64.4649 49.6666 64.5708C49.6807 64.6768 49.6878 64.7835 49.6879 64.8904C49.6879 64.9259 49.6843 64.9437 49.6772 64.9437C49.6552 64.939 49.6337 64.9319 49.6133 64.9224C49.5778 64.9082 49.5352 64.8904 49.4854 64.8691C49.4337 64.8471 49.3803 64.8293 49.3257 64.8158C49.2699 64.8018 49.2127 64.7946 49.1552 64.7945C49.141 64.7945 49.1055 64.7981 49.0487 64.8052C48.9921 64.8123 48.9352 64.8158 48.8782 64.8158C48.7788 64.8158 48.7291 64.7981 48.7291 64.7626C48.7291 64.656 48.722 64.5211 48.7078 64.3577C48.6927 64.1906 48.657 64.026 48.6012 63.8677C48.5536 63.7217 48.4816 63.5848 48.3882 63.4629C48.3409 63.4079 48.2819 63.364 48.2156 63.3345C48.1493 63.305 48.0772 63.2907 48.0047 63.2925C47.8904 63.29 47.7796 63.332 47.6957 63.4097C47.6081 63.4907 47.5328 63.584 47.472 63.6867C47.4067 63.7973 47.3667 63.921 47.3548 64.0489C47.3406 64.1838 47.3264 64.2974 47.3122 64.3898C47.3205 64.5778 47.3527 64.7639 47.4081 64.9438C47.4391 65.0462 47.4783 65.1459 47.5253 65.2421C47.5679 65.3273 47.6176 65.3699 47.6744 65.3699C47.7276 65.3612 47.7763 65.3349 47.8129 65.2953C47.836 65.2795 47.8555 65.2589 47.8702 65.2351C47.8848 65.2112 47.8944 65.1846 47.8981 65.1568C47.8986 65.1471 47.8957 65.1375 47.8898 65.1298C47.884 65.122 47.8756 65.1165 47.8661 65.1142C47.8455 65.1072 47.824 65.1036 47.8022 65.1036C47.7764 65.1028 47.7511 65.0956 47.7288 65.0826C47.7065 65.0696 47.6877 65.0511 47.6744 65.029C47.6376 64.9768 47.6089 64.9193 47.5892 64.8585C47.5678 64.7946 47.5465 64.7272 47.5252 64.6561C47.5062 64.6052 47.4989 64.5505 47.5039 64.4963C47.5019 64.3623 47.535 64.2301 47.5999 64.1128C47.6368 64.0538 47.689 64.0059 47.7509 63.9741C47.8127 63.9422 47.882 63.9276 47.9515 63.9317H47.9514ZM45.6291 80.5186C45.7969 80.5188 45.9644 80.5046 46.1298 80.476C46.2917 80.4481 46.4471 80.3903 46.5879 80.3055C46.7231 80.2274 46.8338 80.113 46.9075 79.9753C46.9849 79.8155 47.0284 79.6414 47.0353 79.464C47.0354 79.3369 47.0138 79.2108 46.9714 79.0911C46.9281 78.9692 46.8671 78.8543 46.7903 78.7502C46.7061 78.6167 46.6135 78.4886 46.5133 78.3667C46.413 78.2448 46.3205 78.1167 46.2363 77.9832C46.1013 77.7843 45.9699 77.589 45.8421 77.3972C45.7143 77.2055 45.5864 77.0031 45.4586 76.79C45.345 76.6054 45.2384 76.4207 45.139 76.236C45.0349 76.0444 44.9137 75.8625 44.7768 75.6927C44.6899 75.5846 44.5897 75.4879 44.4785 75.4051C44.365 75.3199 44.2263 75.2749 44.0843 75.2772C43.9355 75.2745 43.791 75.3277 43.6795 75.4264C43.5536 75.5384 43.4361 75.6594 43.328 75.7886C43.2022 75.9358 43.067 76.0745 42.9231 76.2041C42.7556 76.3493 42.5597 76.4582 42.3479 76.5236C42.1889 76.566 42.0427 76.6465 41.9217 76.758C41.8678 76.8207 41.8268 76.8934 41.8012 76.9721C41.7756 77.0507 41.7659 77.1337 41.7726 77.2161C41.7727 77.3587 41.7834 77.5012 41.8046 77.6422C41.8259 77.7843 41.8401 77.9263 41.8472 78.0684C41.8484 78.2529 41.8196 78.4364 41.762 78.6117C41.7067 78.7729 41.6779 78.9419 41.6768 79.1124C41.6694 79.192 41.6844 79.2721 41.7202 79.3437C41.756 79.4152 41.811 79.4753 41.8792 79.5172C42.021 79.5977 42.1762 79.6518 42.3373 79.677C42.5503 79.7125 42.7527 79.7409 42.9445 79.7622C43.1344 79.7832 43.3229 79.8152 43.5091 79.8581C43.6938 79.9007 43.8784 79.9469 44.0631 79.9966C44.2662 80.0536 44.4626 80.1322 44.649 80.2309C44.7112 80.26 44.7753 80.2849 44.8408 80.3055L45.1284 80.4014C45.235 80.4369 45.3344 80.4653 45.4267 80.4866C45.4929 80.5041 45.5607 80.5148 45.6291 80.5186V80.5186ZM49.5281 79.2402C49.7427 79.2387 49.9566 79.2173 50.1673 79.1763C50.6308 79.0881 51.0792 78.9339 51.4989 78.7182C51.6941 78.6186 51.8796 78.5009 52.0529 78.3667C52.0703 78.3477 52.0847 78.3261 52.0955 78.3028C52.1093 78.2756 52.12 78.247 52.1275 78.2175V78.2069C52.1726 78.0386 52.2082 77.8679 52.234 77.6955C52.2624 77.5109 52.2873 77.3227 52.3086 77.1309C52.3299 76.9392 52.3548 76.751 52.3832 76.5663C52.4116 76.3816 52.4364 76.2005 52.4578 76.023C52.4862 75.8312 52.5217 75.6466 52.5643 75.469C52.605 75.2971 52.6621 75.1294 52.7347 74.9683C52.8047 74.8136 52.9022 74.6728 53.0224 74.5528C53.1621 74.4181 53.3199 74.3034 53.4911 74.2119V74.1906L53.4805 74.1586C53.4829 74.0866 53.505 74.0166 53.5444 73.9562C53.5922 73.8779 53.6456 73.8031 53.7042 73.7325C53.7607 73.6609 53.8292 73.5997 53.9066 73.5514C53.9776 73.5088 54.0525 73.4731 54.1303 73.4449C54.0877 73.2744 54.0415 73.104 53.9918 72.9335C53.9421 72.7631 53.8995 72.5926 53.864 72.4222C53.8213 72.1665 53.7787 71.9499 53.7361 71.7723C53.6969 71.606 53.6471 71.4423 53.587 71.2823C53.5262 71.126 53.4437 70.979 53.342 70.8456C53.2354 70.7035 53.1041 70.5331 52.9478 70.3342C52.8888 70.2677 52.8353 70.1964 52.788 70.1211C52.7507 70.037 52.729 69.9467 52.7241 69.8548C52.717 69.8051 52.6957 69.7128 52.6602 69.5778C52.6247 69.4429 52.5785 69.2866 52.5217 69.1091C52.4649 68.9315 52.401 68.7469 52.3299 68.5551C52.2645 68.3757 52.1861 68.2012 52.0956 68.0331C52.0103 67.8768 51.9322 67.7455 51.8612 67.6389C51.7902 67.5324 51.7156 67.4791 51.6375 67.4791C51.4211 67.4936 51.212 67.5633 51.0303 67.6815C50.7959 67.8165 50.5473 67.9656 50.2845 68.129C50.0218 68.2923 49.7661 68.445 49.5175 68.587C49.3168 68.7153 49.0845 68.7853 48.8464 68.7895C48.6339 68.7897 48.4275 68.7184 48.2605 68.587C48.0802 68.4495 47.9159 68.2923 47.7705 68.1183C47.6213 67.9408 47.497 67.7881 47.3976 67.6602C47.2982 67.5324 47.2236 67.4614 47.1739 67.4472C47.1171 67.4472 47.0851 67.4898 47.078 67.575C47.0709 67.6602 47.0674 67.7561 47.0674 67.8626V68.0437C47.0709 68.0738 47.0634 68.1041 47.0461 68.129C46.9679 68.2923 46.8827 68.4521 46.7904 68.6084C46.698 68.7646 46.6057 68.9244 46.5134 69.0878C46.4233 69.2459 46.3518 69.4139 46.3003 69.5884C46.2501 69.7618 46.2215 69.9407 46.2151 70.1211C46.2151 70.228 46.2222 70.3348 46.2364 70.4407C46.2514 70.5496 46.2876 70.6546 46.3429 70.7496L46.3216 70.7922C46.2669 70.8679 46.2064 70.9391 46.1405 71.0053C46.0729 71.0737 46.0123 71.1487 45.9594 71.229C45.699 71.6143 45.5112 72.0439 45.4054 72.4967C45.2989 72.9509 45.2418 73.4152 45.235 73.8817C45.235 74.0027 45.2421 74.1236 45.2563 74.2439C45.2704 74.3641 45.2776 74.485 45.2776 74.6061C45.2772 74.6454 45.2737 74.6845 45.2669 74.7232C45.2602 74.762 45.2566 74.8011 45.2563 74.8404C45.4076 74.8578 45.5532 74.9088 45.6824 74.9896C45.8669 75.0958 46.0448 75.2132 46.215 75.3411C46.4111 75.4871 46.593 75.6511 46.7584 75.8311C46.9288 76.0158 47.0921 76.1969 47.2484 76.3744C47.3915 76.5313 47.5068 76.7114 47.5893 76.9071C47.6489 77.0481 47.6953 77.1943 47.7277 77.3439C47.7313 77.4261 47.718 77.5082 47.6887 77.5852C47.6594 77.6621 47.6147 77.7323 47.5573 77.7913C47.4348 77.9107 47.29 78.0049 47.1312 78.0683C47.2465 78.2748 47.398 78.4588 47.5786 78.6116C47.7526 78.7585 47.9462 78.8804 48.1539 78.9738C48.3684 79.0687 48.5938 79.1367 48.825 79.1762C49.0571 79.218 49.2923 79.2394 49.5281 79.2402H49.5281ZM53.8 80.753C53.9479 80.7532 54.0951 80.7316 54.2368 80.6891C54.4518 80.6275 54.6565 80.5341 54.844 80.4121C55.0339 80.2867 55.2059 80.1362 55.3553 79.9646C55.538 79.7531 55.7414 79.5603 55.9626 79.3894C56.1893 79.2175 56.4318 79.0677 56.687 78.9419C56.8077 78.8851 56.9249 78.8318 57.0385 78.7821C57.1592 78.7288 57.2766 78.6683 57.3901 78.601C57.471 78.549 57.5461 78.4883 57.6138 78.4199C57.6481 78.3868 57.6752 78.3471 57.6935 78.3031C57.7119 78.2591 57.721 78.2119 57.7203 78.1643C57.7207 78.1094 57.7098 78.055 57.6883 78.0045C57.6628 77.9476 57.6306 77.894 57.5924 77.8447C57.4859 77.6955 57.3936 77.557 57.3154 77.4292C57.2367 77.3002 57.169 77.1647 57.113 77.0244L56.9426 76.5982C56.8814 76.4422 56.8316 76.282 56.7934 76.1188C56.7784 76.068 56.7531 76.0209 56.7189 75.9804C56.6101 75.8278 56.4489 75.7207 56.2662 75.6794C56.0834 75.6382 55.8919 75.6657 55.7281 75.7566C55.6145 75.8206 55.4938 75.888 55.3659 75.9591C55.2381 76.0301 55.1103 76.0975 54.9824 76.1615C54.8569 76.2248 54.7182 76.2577 54.5776 76.2573C54.4518 76.2624 54.3279 76.2248 54.226 76.1508C54.1281 76.073 54.0481 75.9748 53.9917 75.8632C53.931 75.7495 53.8776 75.6321 53.8319 75.5116C53.7893 75.398 53.7467 75.2808 53.704 75.1601C53.6482 75.2511 53.584 75.3367 53.5123 75.4157C53.4393 75.4971 53.3815 75.5909 53.3418 75.6927C53.2461 75.9197 53.1886 76.1608 53.1714 76.4065C53.1359 76.8184 53.0897 77.2197 53.0329 77.6103C52.9741 78.0091 52.8778 78.4014 52.7453 78.7821C52.7078 78.9042 52.6793 79.0288 52.66 79.155C52.6392 79.2856 52.625 79.4172 52.6174 79.5492C52.6063 79.8676 52.7212 80.1777 52.937 80.4121C53.0484 80.527 53.183 80.6168 53.3318 80.6756C53.4806 80.7343 53.6402 80.7607 53.8 80.753H53.8Z" fill="url(#paint6_linear_561_674)"/>
</g>
<defs>
<linearGradient id="paint0_linear_561_674" x1="47.8698" y1="-15.1532" x2="51.8525" y2="130.615" gradientUnits="userSpaceOnUse">
<stop stop-color="#00ABDE"/>
<stop offset="1" stop-color="#007ED8"/>
</linearGradient>
<linearGradient id="paint1_linear_561_674" x1="49.6401" y1="41.087" x2="49.6401" y2="56.0864" gradientUnits="userSpaceOnUse">
<stop stop-color="#005BA1"/>
<stop offset="0.26" stop-color="#00589D"/>
<stop offset="0.53" stop-color="#004F90"/>
<stop offset="0.8" stop-color="#003F7C"/>
<stop offset="1" stop-color="#003067"/>
</linearGradient>
<linearGradient id="paint2_linear_561_674" x1="49.6371" y1="32.6903" x2="49.6371" y2="41.139" gradientUnits="userSpaceOnUse">
<stop stop-color="#F0F0F0"/>
<stop offset="0.33" stop-color="#ECECEC"/>
<stop offset="0.68" stop-color="#DFDFDF"/>
<stop offset="1" stop-color="#CCCCCC"/>
</linearGradient>
<linearGradient id="paint3_linear_561_674" x1="1433.45" y1="464.138" x2="1433.45" y2="535.519" gradientUnits="userSpaceOnUse">
<stop stop-color="#F0F0F0"/>
<stop offset="0.33" stop-color="#ECECEC"/>
<stop offset="0.68" stop-color="#DFDFDF"/>
<stop offset="1" stop-color="#CCCCCC"/>
</linearGradient>
<linearGradient id="paint4_linear_561_674" x1="49.6401" y1="50.0839" x2="49.6401" y2="74.7708" gradientUnits="userSpaceOnUse">
<stop stop-color="#008BF1"/>
<stop offset="0.22" stop-color="#0086EC"/>
<stop offset="0.49" stop-color="#0078DD"/>
<stop offset="0.79" stop-color="#0061C4"/>
<stop offset="1" stop-color="#004DAE"/>
</linearGradient>
<linearGradient id="paint5_linear_561_674" x1="49.6405" y1="82.7001" x2="49.6405" y2="58.3824" gradientUnits="userSpaceOnUse">
<stop stop-color="#F2F2F2"/>
<stop offset="0.44" stop-color="#FBFBFB"/>
<stop offset="1" stop-color="white"/>
</linearGradient>
<linearGradient id="paint6_linear_561_674" x1="934.894" y1="1840.28" x2="934.894" y2="1364.62" gradientUnits="userSpaceOnUse">
<stop stop-color="#004DAE"/>
<stop offset="0.21" stop-color="#0061C4"/>
<stop offset="0.51" stop-color="#0078DD"/>
<stop offset="0.78" stop-color="#0086EC"/>
<stop offset="1" stop-color="#008BF1"/>
</linearGradient>
<clipPath id="clip0_561_674">
<rect width="99.2799" height="99.28" fill="white"/>
</clipPath>
</defs>
</svg>
