<svg width="102" height="102" viewBox="0 0 102 102" fill="none" xmlns="http://www.w3.org/2000/svg">
<g clip-path="url(#clip0_6_7309)">
<path d="M52.5 97.9651C42.9873 97.9661 33.6879 95.1461 25.778 89.8617C17.868 84.5773 11.7028 77.0659 8.06196 68.2775C4.42114 59.4891 3.46828 49.8184 5.32387 40.4884C7.17947 31.1584 11.7602 22.5883 18.4867 15.8617C25.2132 9.13523 33.7834 4.55453 43.1134 2.69893C52.4433 0.843333 62.114 1.79621 70.9025 5.43703C79.6909 9.07785 87.2022 15.2431 92.4866 23.153C97.771 31.063 100.591 40.3623 100.59 49.8751C100.591 56.1905 99.3472 62.4442 96.9307 68.279C94.5142 74.1139 90.9719 79.4156 86.5062 83.8813C82.0405 88.347 76.7389 91.8893 70.904 94.3058C65.0692 96.7223 58.8154 97.9657 52.5 97.9651V97.9651Z" fill="url(#paint0_linear_6_7309)"/>
<path d="M86.695 80.03L86.97 79.57C84.9412 76.9311 82.2304 74.8963 79.13 73.685C74.66 71.915 69.38 71.595 63.44 72.73C58.675 73.64 54.055 75.36 49.58 77.025L48.36 77.48C38.43 81.16 26.93 84.86 16.14 82.095C15.325 81.885 14.53 81.63 13.74 81.36C13.97 81.625 14.215 81.86 14.465 82.135C14.965 82.295 15.495 82.445 16.015 82.58C26.945 85.38 38.515 81.66 48.515 77.95L49.74 77.495C54.195 75.835 58.795 74.125 63.52 73.22C69.365 72.105 74.55 72.415 78.93 74.15C82.0169 75.346 84.7069 77.3829 86.695 80.03V80.03Z" fill="url(#paint1_linear_6_7309)"/>
<path d="M86.535 80.2951L86.7 80.0201C85.4241 78.7704 84.0061 77.6746 82.475 76.7551C81.0317 75.8783 79.5122 75.1336 77.935 74.5301C75.9236 73.7695 73.8417 73.2101 71.72 72.8601C68.4306 72.3271 65.0856 72.2263 61.77 72.5601C61.325 72.6051 60.885 72.6501 60.45 72.7101C58.2663 72.9713 56.1109 73.4298 54.01 74.0801C51.4159 74.9726 48.8879 76.0469 46.445 77.2951L46.22 77.4051C44.98 77.9951 43.93 78.4901 42.85 78.9601C38.1794 81.0783 33.2317 82.5227 28.155 83.2501C23.8144 83.8515 19.4017 83.6823 15.12 82.7501C15.365 82.9751 15.62 83.1951 15.855 83.4001C19.9311 84.1845 24.1083 84.2942 28.22 83.7251C33.3435 82.9945 38.337 81.5383 43.05 79.4001C44.14 78.9001 45.19 78.4301 46.435 77.8351L46.66 77.7251C49.082 76.4884 51.5882 75.424 54.16 74.5401C56.2308 73.8954 58.3564 73.4418 60.51 73.1851C60.945 73.1301 61.38 73.0801 61.815 73.0401C65.0888 72.7069 68.3921 72.8061 71.64 73.3351C73.7299 73.6774 75.7801 74.2285 77.76 74.9801C79.3084 75.5713 80.7996 76.3027 82.215 77.1651C83.7488 78.0844 85.1673 79.1839 86.44 80.4401L86.535 80.2951Z" fill="url(#paint2_linear_6_7309)"/>
<path d="M86.5 80.3551C84.9205 79.2773 83.2663 78.3132 81.55 77.4701C79.9879 76.6873 78.3838 75.9913 76.745 75.3851C74.6455 74.6096 72.4955 73.9781 70.31 73.4951C66.9573 72.7453 63.5305 72.378 60.095 72.4001C59.64 72.4001 59.185 72.4001 58.73 72.4301C56.4429 72.4757 54.1718 72.8221 51.975 73.4601C49.16 74.3251 46.665 75.8001 44.25 77.2301L44.08 77.3301C43.035 77.9501 41.91 78.6051 40.76 79.2151C36.0441 81.7372 30.8966 83.3518 25.585 83.9751C22.5308 84.3205 19.4455 84.2853 16.4 83.8701C16.68 84.0851 16.945 84.2901 17.205 84.4701C18.581 84.6293 19.9649 84.7112 21.35 84.7151C22.7834 84.7147 24.2156 84.6345 25.64 84.4751C31.0147 83.8424 36.223 82.2075 40.995 79.6551C42.155 79.0401 43.285 78.3851 44.335 77.7601L44.505 77.6601C46.895 76.2451 49.365 74.7851 52.12 73.9351C54.2765 73.3121 56.5057 72.9759 58.75 72.9351C59.2 72.9351 59.65 72.9051 60.1 72.9051C63.4986 72.8832 66.8886 73.2472 70.205 73.9901C72.3671 74.4665 74.4938 75.0913 76.57 75.8601C78.1912 76.46 79.7786 77.1477 81.325 77.9201C83.0341 78.7531 84.6787 79.7124 86.245 80.7901L86.5 80.3551Z" fill="url(#paint3_linear_6_7309)"/>
<path d="M86.37 80.57C84.735 79.845 82.715 79.03 80.625 78.185C79.245 77.63 77.425 76.905 75.55 76.235C73.22 75.405 70.985 74.695 68.9 74.13C65.4692 73.1625 61.9528 72.5295 58.4 72.24C57.93 72.205 57.46 72.175 56.99 72.155C54.6118 71.9807 52.2213 72.2107 49.92 72.835C46.92 73.725 44.42 75.495 42 77.205L41.925 77.26C40.925 77.985 39.795 78.76 38.65 79.465C33.9024 82.3698 28.5554 84.1549 23.015 84.685C21.2398 84.8492 19.4549 84.8809 17.675 84.78L17.75 84.83C18.01 85 18.28 85.16 18.55 85.33C18.925 85.33 19.295 85.33 19.67 85.33C20.8033 85.33 21.9333 85.2783 23.06 85.175C28.6848 84.6343 34.1124 82.8183 38.93 79.865C40.09 79.145 41.205 78.365 42.235 77.645L42.305 77.59C44.695 75.9 47.16 74.155 50.085 73.29C52.3308 72.6799 54.6642 72.4567 56.985 72.63C57.455 72.63 57.92 72.68 58.385 72.71C61.8987 73.0012 65.3763 73.6291 68.77 74.585C70.84 75.15 73.065 75.855 75.385 76.68C77.25 77.35 79.065 78.07 80.435 78.62C82.5 79.455 84.495 80.265 86.115 80.98L86.37 80.57Z" fill="url(#paint4_linear_6_7309)"/>
<path d="M86.33 80.64C84.0893 80.1842 81.8758 79.6033 79.7 78.9C78.15 78.4 76.53 77.84 74.96 77.295L73.99 76.96C71.855 76.22 69.64 75.46 67.49 74.765C63.9872 73.5797 60.3937 72.6818 56.745 72.08C56.245 72.005 55.775 71.94 55.285 71.88C53.235 71.635 50.545 71.455 47.905 72.21C44.735 73.12 42.235 75.21 39.81 77.21C38.85 78.005 37.73 78.92 36.58 79.74C31.8096 83.0558 26.2346 85.0264 20.44 85.445C19.91 85.485 19.37 85.51 18.835 85.525C19.11 85.68 19.395 85.84 19.68 85.99C19.95 85.99 20.215 85.99 20.48 85.945C26.3647 85.5168 32.0258 83.5135 36.87 80.145C38.035 79.315 39.16 78.395 40.14 77.585C42.515 75.625 44.97 73.585 48.045 72.71C50.6 71.98 53.225 72.16 55.225 72.395C55.725 72.455 56.19 72.52 56.67 72.595C60.2929 73.1935 63.8612 74.0848 67.34 75.26C69.485 75.945 71.69 76.715 73.84 77.455L74.805 77.79C76.38 78.335 78.005 78.9 79.56 79.395C81.6935 80.0884 83.8635 80.6642 86.06 81.12L86.33 80.64Z" fill="url(#paint5_linear_6_7309)"/>
<path d="M86.09 81.0449L86.39 80.5449C83.8229 80.5877 81.2621 80.2765 78.78 79.6199C77.16 79.2249 75.38 78.6899 73.165 77.9449C71.165 77.2699 69.165 76.5299 67.165 75.8099L66.06 75.4049C62.4726 74.0023 58.7983 72.8332 55.06 71.9049C54.56 71.7949 54.06 71.6899 53.56 71.5949C51.41 71.1849 48.6 70.8099 45.865 71.5949C42.525 72.5249 40.06 74.8599 37.675 77.1249C36.625 78.1249 35.59 79.0849 34.49 79.9749C30.515 83.1799 25.205 85.3199 19.695 85.9749L20.49 86.3749C25.7041 85.6663 30.6397 83.5969 34.8 80.3749C35.92 79.4749 36.96 78.4999 38.02 77.4949C40.36 75.2749 42.78 72.9949 46.02 72.0849C48.65 71.3499 51.39 71.7149 53.485 72.1149C53.985 72.2099 54.485 72.3149 54.985 72.4249C58.7063 73.3393 62.364 74.4951 65.935 75.8849L67.045 76.2899C69 77.0099 71.045 77.7499 73.045 78.4299C75.275 79.1799 77.045 79.7149 78.7 80.1149C81.1128 80.7428 83.5968 81.0554 86.09 81.0449V81.0449Z" fill="url(#paint6_linear_6_7309)"/>
<path d="M86.535 80.295L86.595 80.195C84.325 80.865 81.17 80.945 77.855 80.335C75.8619 79.958 73.8971 79.4434 71.975 78.795C69.435 77.96 66.975 76.975 64.665 76.035L63.24 75.445C60.0236 74.0461 56.7357 72.8178 53.39 71.765C52.89 71.615 52.36 71.47 51.84 71.335C49.6 70.76 46.67 70.195 43.84 70.965C40.34 71.915 37.905 74.525 35.555 77.05C34.61 78.05 33.555 79.215 32.41 80.22C28.9357 83.2461 24.7325 85.3141 20.215 86.22C20.45 86.34 20.69 86.46 20.93 86.57C25.3078 85.5885 29.3698 83.5257 32.745 80.57C33.885 79.57 34.965 78.385 35.92 77.365C38.225 74.865 40.605 72.335 43.97 71.42C46.695 70.685 49.54 71.235 51.72 71.795C52.22 71.93 52.745 72.07 53.25 72.22C56.5801 73.2677 59.8529 74.4894 63.055 75.88L64.48 76.47C66.785 77.415 69.27 78.405 71.825 79.245C73.7695 79.8976 75.7556 80.4188 77.77 80.805C80.96 81.385 83.94 81.365 86.225 80.805L86.535 80.295Z" fill="url(#paint7_linear_6_7309)"/>
<path d="M86.535 80.295C86.685 80.04 86.835 79.795 86.995 79.53C84.525 80.97 80.885 81.53 76.935 81.03C74.8434 80.7552 72.7826 80.2832 70.78 79.62C68.2136 78.7679 65.6993 77.7661 63.25 76.62C62.25 76.16 61.25 75.6966 60.25 75.23C57.48 73.94 54.615 72.605 51.71 71.56C51.185 71.37 50.65 71.185 50.115 71.015C47.795 70.27 44.755 69.515 41.805 70.29C38.12 71.26 35.625 74.29 33.425 76.925L33.32 77.055C32.365 78.2 31.375 79.385 30.32 80.425C27.513 83.1419 24.0934 85.1433 20.35 86.26L21.005 86.575C24.6313 85.4164 27.9396 83.4327 30.67 80.78C31.735 79.725 32.73 78.53 33.695 77.375L33.8 77.245C36.06 74.52 38.395 71.705 41.92 70.775C44.745 70.03 47.695 70.775 49.955 71.49C50.485 71.66 51.01 71.84 51.53 72.03C54.415 73.07 57.27 74.4 60.03 75.685C61.03 76.1483 62.03 76.6117 63.03 77.075C65.4979 78.2216 68.0305 79.2233 70.615 80.075C72.6476 80.7439 74.7384 81.221 76.86 81.5C80.535 81.96 83.965 81.5 86.485 80.3C86.5018 80.3004 86.5186 80.2987 86.535 80.295V80.295Z" fill="url(#paint8_linear_6_7309)"/>
<path d="M87.09 79.41C87.325 79.015 87.56 78.615 87.785 78.215C85.165 80.77 80.785 82.12 76.035 81.775C73.8513 81.5998 71.6952 81.1719 69.61 80.5C66.9466 79.6363 64.3539 78.5681 61.855 77.305C60.48 76.625 59.1 75.905 57.765 75.21C55.265 73.91 52.68 72.565 50.045 71.455C49.5 71.225 48.955 71.005 48.405 70.795C46 69.88 42.85 68.93 39.785 69.72C35.95 70.72 33.485 73.9999 31.315 76.9049L31.17 77.095C30.245 78.33 29.285 79.595 28.26 80.725C26.0054 83.1204 23.2569 84.9971 20.205 86.225L20.795 86.515C23.7574 85.2633 26.426 83.407 28.63 81.065C29.67 79.93 30.63 78.64 31.57 77.395L31.715 77.205C33.84 74.365 36.245 71.145 39.91 70.205C42.84 69.455 45.91 70.375 48.225 71.265C48.77 71.475 49.315 71.69 49.85 71.92C52.465 73.025 55.04 74.365 57.535 75.66C58.87 76.355 60.255 77.075 61.635 77.755C64.1553 79.0323 66.7716 80.1105 69.46 80.98C71.5824 81.6649 73.7771 82.1012 76 82.2799C80.285 82.5899 84.275 81.55 87.03 79.51L87.09 79.41Z" fill="url(#paint9_linear_6_7309)"/>
<path d="M87.925 77.9199C88.145 77.5249 88.355 77.1299 88.55 76.7199C88.5909 76.6425 88.636 76.5674 88.685 76.4949L88.505 76.3749C85.85 80.2899 80.715 82.6399 75.1 82.4999C69.395 82.3549 63.99 79.8249 60.42 77.9399C58.77 77.0599 57.115 76.1099 55.52 75.1949C52.6525 73.476 49.6931 71.9154 46.655 70.5199C44.155 69.4399 40.915 68.2999 37.73 69.0949C33.73 70.0949 31.34 73.6349 29.015 77.0599C28.1304 78.4125 27.1775 79.7192 26.16 80.9749C24.3777 83.0493 22.2135 84.762 19.785 86.0199C19.96 86.1149 20.14 86.1999 20.32 86.2899C22.6846 85.022 24.7935 83.3267 26.54 81.2899C27.5688 80.0189 28.5334 78.6973 29.43 77.3299C31.7 73.9849 34.05 70.5249 37.85 69.5699C40.89 68.8049 44.045 69.9199 46.455 70.9699C49.4748 72.3584 52.4174 73.9091 55.27 75.6149C56.87 76.5399 58.525 77.4899 60.185 78.3699C63.8 80.2849 69.275 82.8449 75.085 82.9899C80.24 83.1199 85 81.1849 87.925 77.9199Z" fill="white"/>
<path d="M86.39 18.285L85.39 18.6501L84.435 19.0101L82.495 19.72H82.45C81.72 19.985 80.99 20.2451 80.255 20.5001H80.21C78.245 21.1801 76.595 21.705 75.03 22.16C74.4533 22.3234 73.8733 22.49 73.29 22.66C72.735 22.81 72.175 22.9551 71.615 23.0901C71.055 23.2251 70.52 23.3501 69.975 23.4651C69.43 23.5801 68.89 23.695 68.345 23.795L66.77 24.0651H66.715C66.215 24.1501 65.665 24.22 65.135 24.285C64.605 24.35 64.065 24.4051 63.52 24.4501C62.975 24.4951 62.42 24.53 61.905 24.55C61.39 24.57 60.79 24.5901 60.285 24.5901C57.5651 24.6015 54.8548 24.2655 52.22 23.5901C49.3692 22.8315 46.6221 21.7266 44.04 20.3C41.5478 18.9281 39.1294 17.426 36.795 15.8L34.045 13.905L33.76 14.3151C34.675 14.9501 35.59 15.5851 36.515 16.2151C38.8645 17.8418 41.2978 19.3438 43.805 20.7151C46.4222 22.1589 49.2062 23.2772 52.095 24.045C54.7508 24.7174 57.4805 25.0533 60.22 25.045C60.76 25.045 61.31 25.0451 61.925 25.0051C62.425 25.0051 62.995 24.9501 63.56 24.9001C64.125 24.8501 64.655 24.8 65.195 24.735C65.735 24.67 66.265 24.6001 66.755 24.5201H66.81C67.355 24.4351 67.895 24.3451 68.435 24.2451C68.975 24.1451 69.53 24.035 70.08 23.915C70.63 23.795 71.185 23.67 71.735 23.535C72.285 23.4 72.86 23.255 73.42 23.105C73.98 22.955 74.59 22.79 75.17 22.605C76.735 22.15 78.375 21.6051 80.335 20.9551H80.38C81.115 20.7001 81.85 20.455 82.58 20.175H82.645L84.605 19.4601L85.605 19.0901L86.605 18.7101L86.785 18.6451L86.39 18.285Z" fill="url(#paint10_linear_6_7309)"/>
<path d="M85.515 17.415H85.475L84.63 17.805C84.105 18.05 83.59 18.305 83.07 18.55L82.305 18.92L81.85 19.13C81.1833 19.4633 80.4967 19.7817 79.79 20.085C79.595 20.18 79.4 20.265 79.2 20.355L78.96 20.46C77.67 21.03 76.335 21.565 74.995 22.055H74.945C74.375 22.265 73.84 22.45 73.31 22.62C72.385 22.93 71.395 23.225 70.365 23.505C69.865 23.64 69.365 23.765 68.835 23.885C68.305 24.005 67.835 24.115 67.335 24.215L67.115 24.265C66.69 24.35 66.275 24.42 65.85 24.49C65.35 24.58 64.85 24.655 64.325 24.725L64.36 24.975L64.26 24.735C63.76 24.8 63.285 24.855 62.79 24.9C62.295 24.945 61.79 24.99 61.235 25.025C60.68 25.06 60.235 25.08 59.665 25.09C56.0854 25.1705 52.5144 24.7051 49.075 23.71C46.6421 22.9786 44.2874 22.0088 42.045 20.815H41.995C39.6113 19.5387 37.301 18.1298 35.075 16.595C33.575 15.595 32.125 14.555 31.02 13.775L30.73 14.18C31.835 14.965 33.3 15.995 34.795 17.01C37.048 18.5625 39.3849 19.9896 41.795 21.285L41.855 21.315C44.1104 22.5083 46.4766 23.4796 48.92 24.215C52.1829 25.158 55.5635 25.6311 58.96 25.62H59.66C60.225 25.62 60.75 25.585 61.25 25.555C61.75 25.525 62.335 25.48 62.83 25.425C63.325 25.37 63.83 25.325 64.33 25.26H64.4C64.9 25.19 65.4 25.115 65.935 25.025C66.365 24.955 66.79 24.88 67.255 24.785L67.45 24.745C67.95 24.645 68.45 24.53 68.95 24.41C69.45 24.29 69.975 24.165 70.485 24.03C71.53 23.745 72.53 23.445 73.485 23.135C73.985 22.965 74.535 22.785 75.095 22.58H75.14C76.51 22.08 77.865 21.54 79.185 20.955L79.42 20.85C79.625 20.76 79.825 20.675 80.02 20.58C80.72 20.265 81.41 19.94 82.105 19.615H82.15L82.565 19.42L83.33 19.05L84.89 18.31L85.725 17.92L85.8 17.885L85.935 17.825L85.515 17.415Z" fill="url(#paint11_linear_6_7309)"/>
<path d="M84.53 16.42C84.235 16.565 83.945 16.715 83.655 16.87C82.87 17.285 82.03 17.76 81.015 18.37L80.97 18.4L80.165 18.875L79.165 19.475L79.1 19.505C78.24 20.005 77.53 20.405 76.87 20.755C76.115 21.155 75.37 21.53 74.625 21.865C73.625 22.32 72.625 22.74 71.625 23.115C71.21 23.27 70.785 23.42 70.35 23.57C69.43 23.88 68.51 24.155 67.62 24.395H67.58L67.415 24.435H67.365C67.015 24.53 66.66 24.62 66.3 24.7C65.845 24.81 65.385 24.91 64.88 25.005C64.375 25.1 63.92 25.18 63.435 25.255C62.95 25.33 62.435 25.41 61.935 25.465H61.8H61.725C61.305 25.515 60.885 25.555 60.46 25.585C60.035 25.615 59.46 25.655 58.96 25.675C54.5529 25.8452 50.1508 25.2289 45.96 23.855C43.9907 23.1985 42.075 22.3911 40.23 21.44C37.896 20.231 35.6354 18.8853 33.46 17.41C31.855 16.34 30.315 15.245 29.145 14.41L28.73 14.11L28.03 13.61L27.735 14.015L28.435 14.515L28.855 14.815C30.025 15.655 31.57 16.75 33.185 17.815C35.3741 19.3051 37.6516 20.6609 40.005 21.875C41.873 22.837 43.812 23.6544 45.805 24.32C49.5878 25.5608 53.5439 26.1921 57.525 26.19C58.025 26.19 58.495 26.19 58.98 26.19C59.465 26.19 60.005 26.14 60.51 26.1C61.015 26.06 61.365 26.025 61.8 25.975H61.865L62.02 25.95C62.495 25.9 62.985 25.83 63.52 25.745C64.055 25.66 64.495 25.585 64.98 25.49C65.465 25.395 65.98 25.29 66.415 25.18C66.78 25.1 67.145 25.01 67.535 24.905L67.735 24.855H67.82L67.845 24.825C68.7283 24.5917 69.6383 24.3183 70.575 24.005C71 23.855 71.43 23.705 71.845 23.55C72.845 23.17 73.89 22.745 74.885 22.285C75.63 21.945 76.385 21.57 77.155 21.165C77.81 20.815 78.505 20.425 79.345 19.94L79.405 19.905C79.775 19.695 80.135 19.485 80.495 19.27L81.35 18.77C82.35 18.18 83.185 17.715 83.96 17.305C84.25 17.145 84.55 16.99 84.845 16.845L84.975 16.785L84.53 16.42Z" fill="url(#paint12_linear_6_7309)"/>
<path d="M83.45 15.3801C83.15 15.5201 82.855 15.675 82.55 15.845C81.77 16.27 80.95 16.7751 79.97 17.4351L79.915 17.475C79.375 17.845 78.835 18.225 78.3 18.605L78.03 18.795C77 19.52 75.89 20.2951 74.755 20.9951C74.52 21.1401 74.285 21.285 74.045 21.425C72.7216 22.201 71.3486 22.8891 69.935 23.485C69.55 23.645 69.17 23.8001 68.78 23.9451C68.39 24.0901 67.99 24.2451 67.585 24.3851H67.53L67.39 24.4351L67.305 24.4651C66.61 24.7001 65.865 24.9251 65.095 25.1351H65.055C64.625 25.2551 64.18 25.365 63.695 25.47C63.21 25.575 62.785 25.6751 62.33 25.7551C61.875 25.8351 61.4 25.9251 60.925 25.9901C60.45 26.0551 59.98 26.125 59.49 26.17L59.235 26.2001H59.095C58.745 26.2351 58.395 26.26 58.04 26.28C52.8327 26.5864 47.6184 25.8119 42.725 24.0051C41.2585 23.4684 39.823 22.8508 38.425 22.155C36.1415 21.0154 33.9321 19.7329 31.81 18.3151C30.525 17.4701 29.175 16.5401 27.565 15.3901L27.025 15.0001L26.08 14.3151L26.015 14.2651C25.645 14.0001 25.275 13.7351 24.91 13.4601L24.615 13.8651C24.98 14.1351 25.35 14.405 25.725 14.67C25.749 14.6948 25.7758 14.7166 25.805 14.735L26.73 15.405L27.27 15.795C28.89 16.95 30.245 17.885 31.535 18.73C33.6743 20.1598 35.9021 21.4523 38.205 22.6C39.6177 23.3082 41.0701 23.9343 42.555 24.475C46.7831 26.0295 51.2502 26.8333 55.755 26.85C56.53 26.85 57.3 26.825 58.07 26.78C58.43 26.78 58.785 26.7301 59.15 26.6951H59.285L59.55 26.66C60.05 26.615 60.525 26.555 60.995 26.48C61.465 26.405 61.96 26.3351 62.425 26.2401C62.89 26.1451 63.345 26.0651 63.805 25.9501C64.265 25.8351 64.725 25.7401 65.155 25.6251H65.19C65.97 25.4151 66.725 25.1901 67.425 24.9551L67.56 24.91L67.675 24.8651H67.745L67.775 24.8301C68.18 24.6951 68.58 24.5501 68.96 24.3951C69.34 24.2401 69.74 24.0951 70.13 23.9301C71.5636 23.3241 72.9565 22.626 74.3 21.8401L75.02 21.405C76.165 20.695 77.28 19.9051 78.31 19.1901L78.585 18.9951C79.085 18.6301 79.635 18.2551 80.2 17.8651L80.295 17.8201C81.235 17.1851 82.025 16.7 82.795 16.285C83.095 16.115 83.39 15.9651 83.685 15.8251L83.845 15.7551L83.45 15.3801Z" fill="url(#paint13_linear_6_7309)"/>
<path d="M82.305 14.355C81.995 14.49 81.69 14.64 81.375 14.8C80.4768 15.2786 79.6145 15.8217 78.795 16.425H78.755C78.145 16.875 77.545 17.3451 77.045 17.7501L75.89 18.6951C75.055 19.3901 74.16 20.125 73.245 20.8C73.05 20.95 72.86 21.085 72.665 21.225C71.2824 22.2072 69.8168 23.0671 68.285 23.795C67.9517 23.955 67.6183 24.1101 67.285 24.2601L67.165 24.3151H67.115C66.815 24.4451 66.515 24.5651 66.215 24.6851C65.915 24.8051 65.475 24.97 65.105 25.105H65.06C64.23 25.4 63.4 25.65 62.595 25.86C62.1583 25.9867 61.7183 26.0967 61.275 26.1901C60.775 26.3001 60.335 26.395 59.905 26.47C59.475 26.545 58.93 26.6351 58.525 26.6901C58.025 26.7601 57.565 26.81 57.11 26.85C56.92 26.85 56.735 26.89 56.55 26.905C50.7549 27.2839 44.95 26.3313 39.58 24.1201C38.655 23.7551 37.725 23.35 36.82 22.915C34.5785 21.831 32.4076 20.6069 30.32 19.2501C28.995 18.3951 27.625 17.4651 26.13 16.3951L25.73 16.11L24.68 15.345L24.63 15.3101C23.83 14.7367 23.0383 14.1534 22.255 13.5601L21.85 13.8801L21.91 13.9301C22.715 14.5301 23.52 15.1251 24.305 15.6901C24.3268 15.7158 24.3541 15.7363 24.385 15.7501C24.73 16.0101 25.085 16.2501 25.435 16.5151L25.835 16.8C27.335 17.875 28.72 18.8 30.05 19.67C32.1571 21.038 34.348 22.2721 36.61 23.3651C37.525 23.8051 38.465 24.2151 39.4 24.5851C44.0214 26.4707 48.9589 27.4615 53.95 27.5051C54.8333 27.5051 55.7133 27.4701 56.59 27.4001C56.785 27.4001 56.98 27.37 57.165 27.345C57.62 27.31 58.09 27.2551 58.6 27.1851C59.01 27.1301 59.495 27.0551 60 26.9601C60.505 26.8651 60.89 26.7901 61.39 26.6801C61.89 26.5701 62.29 26.47 62.73 26.345C63.535 26.135 64.36 25.88 65.19 25.595H65.235C65.63 25.455 66.015 25.305 66.405 25.155L67.27 24.8001H67.315L67.5 24.72C67.85 24.57 68.195 24.4151 68.53 24.2501C70.0873 23.5109 71.5764 22.6359 72.98 21.6351C73.18 21.4951 73.375 21.3551 73.57 21.2051C74.49 20.5251 75.39 19.7851 76.235 19.0851L77.385 18.1451C77.885 17.7551 78.435 17.305 79.05 16.85H79.09C79.897 16.2536 80.7477 15.7188 81.635 15.2501C81.94 15.0851 82.245 14.9451 82.55 14.8051C82.615 14.8051 82.68 14.76 82.745 14.73L82.305 14.355Z" fill="url(#paint14_linear_6_7309)"/>
<path d="M81.235 13.35H81.185C80.865 13.465 80.54 13.595 80.15 13.77C79.1927 14.2211 78.286 14.7725 77.445 15.415C76.9 15.815 76.355 16.26 75.775 16.775C75.055 17.415 74.355 18.075 73.775 18.635C73.275 19.135 72.775 19.6 72.23 20.07C71.685 20.54 71.105 21.07 70.585 21.49C69.3751 22.4616 68.0798 23.3217 66.715 24.06L66.655 24.09C66.365 24.245 66.075 24.4 65.77 24.55C65.465 24.7 65.105 24.875 64.77 25.05C64.435 25.225 64.04 25.365 63.67 25.515C63.3 25.665 62.965 25.795 62.57 25.935C61.77 26.22 60.94 26.48 60.11 26.7H60.06C59.645 26.805 59.225 26.91 58.8 27C58.375 27.09 57.905 27.19 57.46 27.265C57.015 27.34 56.55 27.415 56.1 27.475C55.435 27.565 54.735 27.63 53.97 27.68C48.325 28.02 42.415 26.89 36.405 24.315C36.03 24.15 35.655 23.985 35.28 23.815C33.0712 22.7889 30.9316 21.6197 28.875 20.315C27.605 19.525 26.245 18.62 24.71 17.54C24.2267 17.2066 23.7467 16.8617 23.27 16.505L23.22 16.47C22.445 15.91 21.68 15.345 20.915 14.775L20.85 14.73L20.445 15.05L20.53 15.115L20.615 15.18C21.38 15.75 22.15 16.315 22.9 16.855C22.9228 16.8762 22.9479 16.8947 22.975 16.91C23.45 17.26 23.935 17.605 24.425 17.95C25.965 19.035 27.33 19.95 28.61 20.74C30.6854 22.0571 32.8431 23.2395 35.07 24.28L36.21 24.78C41.1822 26.9937 46.5528 28.1727 51.995 28.245C52.665 28.245 53.335 28.245 53.995 28.185C54.775 28.135 55.495 28.065 56.16 27.975C56.62 27.915 57.08 27.845 57.54 27.765C58 27.685 58.455 27.595 58.905 27.495C59.325 27.405 59.75 27.3 60.165 27.19H60.21C61.06 26.965 61.91 26.69 62.71 26.405C63.11 26.265 63.48 26.125 63.83 25.975C64.18 25.825 64.575 25.675 64.945 25.505C65.315 25.335 65.63 25.19 65.945 25.005C66.26 24.82 66.52 24.71 66.8 24.56L66.885 24.515C68.2856 23.7609 69.6144 22.8806 70.855 21.885C71.355 21.455 71.925 20.985 72.52 20.445C73.115 19.905 73.555 19.49 74.075 19.005C74.66 18.445 75.355 17.79 76.075 17.155C76.64 16.655 77.175 16.215 77.725 15.805C78.5355 15.1924 79.4067 14.6646 80.325 14.23C80.695 14.065 81.01 13.935 81.325 13.83L81.62 13.735L81.235 13.35Z" fill="url(#paint15_linear_6_7309)"/>
<path d="M80.32 12.41L80.065 12.4601L79.92 12.4951C79.5809 12.5868 79.2471 12.697 78.92 12.8251C77.8923 13.2231 76.9221 13.7561 76.035 14.41C75.4562 14.8387 74.9004 15.2977 74.37 15.785C73.43 16.65 72.535 17.6051 71.63 18.5801L70.99 19.2651C70.22 20.0851 69.38 20.9551 68.49 21.7651C67.7039 22.478 66.8685 23.1346 65.99 23.73C65.69 23.94 65.375 24.1401 65.06 24.3351C64.745 24.5301 64.515 24.6601 64.24 24.8351C63.965 25.0101 63.625 25.1701 63.31 25.3351C62.995 25.5001 62.64 25.6701 62.31 25.8351C61.98 26.0001 61.61 26.155 61.25 26.3C60.89 26.445 60.525 26.595 60.12 26.735H60.065C59.3 27.01 58.485 27.265 57.645 27.48C57.185 27.605 56.765 27.705 56.365 27.79C55.965 27.875 55.49 27.965 55.055 28.04C53.8526 28.246 52.6386 28.378 51.42 28.4351C45.815 28.6901 39.92 27.4351 33.85 24.7401C33.705 24.6851 33.555 24.615 33.41 24.55L33.26 24.48C31.2866 23.5611 29.3669 22.5311 27.51 21.3951C26.155 20.5651 24.805 19.6751 23.375 18.6851C22.875 18.3501 22.415 18.0151 21.935 17.6851L21.885 17.6501C21.09 17.0751 20.295 16.4951 19.49 15.8851H19.46L19.055 16.2051L19.21 16.3251C20 16.9151 20.7933 17.4984 21.59 18.0751L21.645 18.1151C22.145 18.4601 22.605 18.7951 23.09 19.1151C24.525 20.1151 25.885 21.0051 27.25 21.8401C29.1236 22.9891 31.0618 24.0291 33.055 24.9551L33.205 25.0251C33.355 25.0951 33.51 25.165 33.655 25.22C39.24 27.72 44.715 28.9901 49.945 28.9901C50.445 28.9901 50.945 28.9901 51.445 28.9551C52.6836 28.8961 53.9175 28.7625 55.14 28.5551C55.58 28.4801 56.025 28.395 56.465 28.3C56.905 28.205 57.305 28.11 57.775 27.985C58.61 27.765 59.43 27.515 60.2 27.235H60.255C60.68 27.085 61.08 26.93 61.445 26.78C61.81 26.63 62.165 26.47 62.52 26.28C62.875 26.09 63.21 25.955 63.555 25.78C63.9 25.605 64.19 25.45 64.5 25.28C64.81 25.11 65.065 24.96 65.34 24.78C65.615 24.6 65.98 24.375 66.285 24.165C67.1884 23.5586 68.0488 22.8903 68.86 22.165C69.77 21.355 70.615 20.475 71.395 19.665L72.035 18.98C72.935 17.98 73.82 17.0601 74.75 16.2101C75.2654 15.7345 75.8062 15.2871 76.37 14.8701L76.41 14.8401C77.2496 14.2214 78.1676 13.717 79.14 13.3401C79.4462 13.2211 79.7583 13.1176 80.075 13.03H80.16H80.22C80.395 12.985 80.58 12.96 80.76 12.925C80.59 12.685 80.45 12.555 80.32 12.41Z" fill="url(#paint16_linear_6_7309)"/>
<path d="M79.59 11.5851C79.385 11.5851 79.185 11.6201 78.99 11.6501C78.6144 11.7017 78.2421 11.7752 77.875 11.8701L77.685 11.9301C76.5958 12.2407 75.5653 12.729 74.635 13.3751L74.555 13.425C73.9606 13.842 73.3959 14.2997 72.865 14.795C71.696 15.9239 70.6005 17.1264 69.585 18.3951L69.37 18.66C68.42 19.8 67.435 20.9751 66.37 22.0051C65.97 22.4101 65.54 22.8001 65.095 23.1801L65.02 23.24C64.52 23.67 63.97 24.0851 63.37 24.5001C63.145 24.6501 62.925 24.8051 62.695 24.9501L62.625 24.99C62.33 25.18 62.04 25.3551 61.76 25.5151C61.48 25.6751 61.1 25.8901 60.81 26.0151C60.52 26.1401 60.14 26.3651 59.81 26.5151C59.48 26.6651 59.09 26.8451 58.73 27.0151C58.37 27.1851 57.965 27.3251 57.575 27.4651C56.795 27.7451 55.99 27.9951 55.185 28.2051C54.77 28.3151 54.355 28.4101 53.94 28.5001H53.865C52.2044 28.8505 50.5163 29.0546 48.82 29.11C43.615 29.28 38.1 28.11 32.445 25.675C31.63 25.32 30.83 24.9501 30.06 24.5701C28.775 23.9351 27.465 23.2251 26.175 22.4551C24.885 21.6851 23.55 20.8401 22.04 19.8151C21.565 19.4901 21.085 19.1601 20.61 18.8151L20.545 18.7701C19.805 18.2701 19.045 17.6901 18.19 17.0601L18 16.915L17.59 17.235H17.62L17.885 17.4351C18.74 18.0651 19.515 18.63 20.26 19.155L20.34 19.2101C20.81 19.5451 21.285 19.8801 21.76 20.2101C23.26 21.2401 24.635 22.1101 25.92 22.865C27.205 23.62 28.54 24.3651 29.84 24.9951C30.615 25.3801 31.425 25.755 32.245 26.115C37.605 28.43 42.835 29.615 47.815 29.615H48.815C50.5553 29.5584 52.287 29.3476 53.99 28.985H54.09C54.495 28.895 54.905 28.8001 55.31 28.6951C56.13 28.4801 56.95 28.2251 57.745 27.9401C58.14 27.7951 58.535 27.645 58.92 27.485C59.305 27.325 59.66 27.17 60.02 26.985C60.38 26.8 60.695 26.665 61.06 26.485C61.425 26.305 61.675 26.1601 62.03 25.9501C62.295 25.8051 62.57 25.6351 62.855 25.4501L62.92 25.41C63.18 25.25 63.42 25.08 63.675 24.91C64.26 24.505 64.79 24.1001 65.295 23.6801L65.365 23.6201C65.865 23.2151 66.31 22.79 66.74 22.36C67.8 21.315 68.79 20.125 69.74 18.98L69.96 18.72C70.958 17.4627 72.0387 16.2734 73.195 15.16C73.6914 14.6977 74.2175 14.2685 74.77 13.8751L74.855 13.8201C75.7586 13.1882 76.7605 12.71 77.82 12.405L77.99 12.355C78.3372 12.264 78.6895 12.1939 79.045 12.1451C79.3584 12.101 79.6738 12.0726 79.99 12.0601C79.87 11.9051 79.73 11.7451 79.59 11.5851Z" fill="url(#paint17_linear_6_7309)"/>
<path d="M79.16 10.995C78.7908 10.9655 78.4203 10.9555 78.05 10.9651C77.5301 10.9678 77.0114 11.0163 76.5 11.11C76.285 11.15 76.065 11.195 75.85 11.25C74.861 11.5124 73.9182 11.9255 73.055 12.475L73.015 12.505C72.4034 12.9029 71.8249 13.3494 71.285 13.8401C70.1047 14.9757 69.0256 16.212 68.06 17.535C67.885 17.76 67.71 17.99 67.56 18.22L67.355 18.49C66.4197 19.7968 65.4184 21.0551 64.355 22.2601L64.32 22.295C64.195 22.425 64.075 22.56 63.95 22.685C63.2794 23.3782 62.5592 24.0216 61.795 24.61C61.575 24.785 61.35 24.955 61.115 25.11C60.88 25.265 60.585 25.485 60.315 25.66C60.045 25.835 59.73 26.0351 59.43 26.2151C59.13 26.3951 58.76 26.6051 58.455 26.7651C58.15 26.9251 57.76 27.1201 57.405 27.2651C57.05 27.4101 56.75 27.5701 56.315 27.7651C55.88 27.9601 55.58 28.0601 55.205 28.2001C54.43 28.4801 53.62 28.73 52.805 28.94C50.6696 29.4963 48.4763 29.8 46.27 29.845C41.47 29.945 36.375 28.8951 31.155 26.7151C29.78 26.1451 28.35 25.4751 26.915 24.7151C26.255 24.3701 25.595 24.005 24.945 23.625C23.615 22.87 22.23 22.005 20.82 21.06C20.32 20.74 19.855 20.41 19.38 20.06L19.315 20.0151C18.49 19.4401 17.7 18.8701 16.955 18.3201C16.865 18.2601 16.78 18.19 16.69 18.125C16.595 18.265 16.5 18.4 16.4 18.53L16.66 18.725C17.405 19.275 18.205 19.845 19.02 20.415C19.0416 20.4363 19.0671 20.4533 19.095 20.4651C19.57 20.8051 20.055 21.1351 20.54 21.4651C21.96 22.4151 23.36 23.285 24.695 24.05C25.345 24.43 26.015 24.8001 26.695 25.1501C28.145 25.9101 29.585 26.5901 30.975 27.1501C35.6075 29.1658 40.5936 30.2432 45.645 30.3201H46.29C48.5351 30.2753 50.7671 29.9666 52.94 29.4001C53.77 29.1851 54.595 28.9301 55.39 28.6451C55.77 28.5001 56.145 28.3551 56.515 28.2001C56.96 28.0151 57.315 27.8601 57.63 27.7001C57.945 27.5401 58.335 27.365 58.695 27.17C59.055 26.975 59.335 26.825 59.695 26.61C60.055 26.395 60.3 26.24 60.595 26.045C60.89 25.85 61.155 25.675 61.415 25.485C61.675 25.295 61.89 25.1351 62.115 24.9551C62.8972 24.3532 63.6342 23.6947 64.32 22.985C64.445 22.86 64.57 22.7251 64.695 22.5901L64.73 22.555C65.809 21.3375 66.8253 20.0659 67.775 18.745L67.98 18.475C68.15 18.245 68.32 18.02 68.48 17.795C69.4279 16.4942 70.4887 15.2794 71.65 14.165C72.1798 13.6809 72.7483 13.2411 73.35 12.85C74.1684 12.3293 75.0623 11.938 76 11.69C76.205 11.635 76.415 11.595 76.615 11.555C77.1004 11.4691 77.5921 11.4239 78.085 11.42C78.5861 11.412 79.0872 11.437 79.585 11.495C79.425 11.36 79.29 11.185 79.16 10.995Z" fill="url(#paint18_linear_6_7309)"/>
<path d="M78.985 10.7451C78.4265 10.609 77.8606 10.5055 77.29 10.4351C76.6561 10.3614 76.0169 10.3447 75.38 10.3851C74.0157 10.4675 72.6899 10.87 71.51 11.5601H71.47L71.42 11.61C70.7772 11.9866 70.1742 12.4272 69.62 12.925C68.4108 14.064 67.3294 15.3316 66.395 16.7051C65.96 17.3151 65.535 17.9401 65.11 18.5701C64.3 19.7601 63.465 20.9901 62.575 22.0701C62.465 22.2051 62.355 22.345 62.24 22.475C61.5916 23.2468 60.8845 23.9673 60.125 24.6301C59.915 24.8151 59.705 24.99 59.495 25.165C59.285 25.34 58.995 25.5551 58.75 25.7401C58.505 25.9251 58.2 26.1401 57.915 26.3251C57.63 26.5101 57.275 26.745 56.99 26.91C56.705 27.075 56.355 27.29 55.99 27.48C55.625 27.67 55.34 27.825 54.95 27.98C54.56 28.135 54.275 28.2951 53.925 28.4451H53.875L53.84 28.4851C53.48 28.6301 53.115 28.775 52.745 28.91C49.8298 29.959 46.7581 30.5067 43.66 30.53C38.9354 30.5137 34.2595 29.5745 29.895 27.7651C27.8156 26.9374 25.7914 25.9771 23.835 24.8901L23.71 24.8151C22.34 24.0551 20.955 23.2151 19.585 22.3151C19.085 21.9951 18.61 21.675 18.135 21.345L18.065 21.3001C17.305 20.8001 16.51 20.2201 15.7 19.6301L15.515 19.4951L15.155 19.845L15.41 20.035C16.22 20.625 17.02 21.1901 17.785 21.7151L17.85 21.7601C18.35 22.0901 18.82 22.41 19.31 22.73C20.65 23.61 22.005 24.4351 23.34 25.1801V25.29H23.525C25.521 26.4027 27.587 27.3847 29.71 28.23C34.0473 30.0182 38.6841 30.9683 43.375 31.03H43.665C46.8192 31.004 49.9464 30.4462 52.915 29.3801C53.29 29.2451 53.66 29.0951 54.025 28.9451H54.075L54.115 28.905C54.47 28.755 54.82 28.6001 55.165 28.4351C55.51 28.2701 55.91 28.0701 56.23 27.8951C56.55 27.7201 56.93 27.5101 57.23 27.3151C57.53 27.1201 57.82 26.9601 58.18 26.7151C58.54 26.4701 58.76 26.3201 59.035 26.1151C59.31 25.9101 59.535 25.7301 59.795 25.5251C60.055 25.3201 60.23 25.165 60.44 24.975C61.2173 24.2986 61.9411 23.5631 62.605 22.7751C62.725 22.6401 62.84 22.495 62.95 22.355C63.85 21.24 64.695 20.0001 65.505 18.8C65.93 18.175 66.355 17.5501 66.785 16.9451C67.6983 15.6017 68.7563 14.3626 69.94 13.2501C70.4741 12.7656 71.0572 12.3383 71.68 11.975H71.715C72.4037 11.5721 73.1461 11.2691 73.92 11.0751C74.4035 10.954 74.8974 10.8786 75.395 10.85C76.0035 10.8105 76.6143 10.8256 77.22 10.8951C77.9688 10.9882 78.7093 11.1386 79.435 11.345C79.285 11.185 79.13 10.9601 78.985 10.7451Z" fill="white"/>
<path opacity="0.17" d="M50.73 92.3301C42.4437 92.3311 34.3433 89.8748 27.453 85.2719C20.5627 80.669 15.1922 74.1263 12.0205 66.4711C8.84878 58.8158 8.0184 50.392 9.63437 42.2648C11.2503 34.1377 15.24 26.6722 21.099 20.8126C26.9579 14.9529 34.4229 10.9624 42.5498 9.34543C50.6768 7.72849 59.1008 8.55785 66.7564 11.7286C74.412 14.8994 80.9554 20.2692 85.5591 27.1589C90.1628 34.0486 92.62 42.1488 92.62 50.4351C92.6206 55.9366 91.5376 61.3843 89.4327 66.4672C87.3278 71.5501 84.2424 76.1686 80.3525 80.059C76.4626 83.9494 71.8444 87.0354 66.7617 89.1409C61.6791 91.2464 56.2315 92.3301 50.73 92.3301V92.3301Z" fill="#F2F1F0"/>
<path opacity="0.17" d="M50.73 87.5751C43.3844 87.5751 36.2037 85.3969 30.0961 81.3159C23.9885 77.2349 19.2281 71.4344 16.4171 64.648C13.6061 57.8615 12.8706 50.3939 14.3036 43.1894C15.7367 35.985 19.2739 29.3672 24.468 24.1731C29.6622 18.979 36.2799 15.4417 43.4843 14.0087C50.6888 12.5756 58.1564 13.3112 64.9429 16.1222C71.7293 18.9332 77.5298 23.6936 81.6108 29.8012C85.6918 35.9089 87.87 43.0895 87.87 50.4351C87.8706 55.3126 86.9104 60.1424 85.0442 64.6487C83.178 69.155 80.4423 73.2496 76.9934 76.6985C73.5445 80.1474 69.4499 82.8831 64.9436 84.7493C60.4373 86.6155 55.6075 87.5757 50.73 87.5751V87.5751Z" fill="white" stroke="white" stroke-miterlimit="10"/>
<path opacity="0.17" d="M50.73 81.0801C44.669 81.0801 38.7441 79.2828 33.7045 75.9155C28.665 72.5481 24.7371 67.7621 22.4177 62.1624C20.0982 56.5628 19.4914 50.4011 20.6738 44.4565C21.8563 38.512 24.7749 33.0515 29.0607 28.7657C33.3465 24.48 38.8069 21.5613 44.7514 20.3789C50.696 19.1965 56.8577 19.8033 62.4573 22.1227C68.057 24.4422 72.8431 28.3701 76.2104 33.4096C79.5777 38.4491 81.375 44.374 81.375 50.4351C81.3756 54.4596 80.5834 58.4448 79.0436 62.1631C77.5038 65.8815 75.2465 69.2601 72.4007 72.1058C69.555 74.9516 66.1764 77.2088 62.4581 78.7487C58.7398 80.2885 54.7545 81.0807 50.73 81.0801V81.0801Z" fill="white" stroke="white" stroke-miterlimit="10"/>
<path fill-rule="evenodd" clip-rule="evenodd" d="M89.4101 17.445C89.1151 17.105 88.8151 16.77 88.5051 16.445C88.1951 16.12 87.8701 15.76 87.5401 15.445C87.2101 15.13 86.915 14.81 86.595 14.5C86.4 14.305 86.2 14.115 86 13.93C85.905 13.835 85.805 13.745 85.705 13.655C85.455 13.42 85.2051 13.185 84.9451 12.96C84.8451 12.865 84.7401 12.775 84.6351 12.685L84.405 12.485L84.21 12.315C74.6873 4.14336 62.4862 -0.230732 49.9407 0.0294029C37.3951 0.289538 25.3859 5.16561 16.21 13.725C15.775 14.13 15.35 14.54 14.93 14.96C14.51 15.38 14.09 15.815 13.685 16.255C13.28 16.695 12.87 17.14 12.475 17.595C5.13212 26.0612 0.780423 36.7092 0.0918193 47.8949C-0.596784 59.0807 2.41601 70.182 8.66503 79.485C9.16503 80.19 9.63503 80.885 10.165 81.56C10.56 82.09 10.965 82.61 11.385 83.125C11.735 83.56 12.09 83.985 12.46 84.41C12.83 84.835 13.115 85.155 13.46 85.52C13.805 85.885 14.04 86.14 14.335 86.445C14.63 86.75 14.8 86.945 15.04 87.165L15.54 87.665C15.63 87.76 15.725 87.845 15.815 87.935L15.89 88.005C25.4049 96.9917 38.0105 101.976 51.0984 101.928C64.1862 101.879 76.7544 96.8007 86.2022 87.7435C95.65 78.6862 101.254 66.3435 101.855 53.2694C102.456 40.1953 98.0073 27.3906 89.43 17.505L89.4101 17.445ZM57.49 97.71C57.4656 97.7177 57.4394 97.7177 57.415 97.71C50.7704 98.6245 44.0071 98.11 37.5772 96.2009C31.1474 94.2919 25.1991 91.0323 20.13 86.64L20.05 86.57L20.01 86.53L19.775 86.33L19.665 86.23C19.485 86.07 19.305 85.91 19.125 85.73C18.945 85.55 18.65 85.29 18.415 85.065C18.18 84.84 17.855 84.53 17.59 84.255C17.325 83.98 16.98 83.64 16.685 83.32C16.39 83 15.995 82.585 15.685 82.205C9.67837 75.4055 5.75888 67.0187 4.39591 58.049C3.03294 49.0793 4.28427 39.9068 8.00004 31.63C8.0104 31.6126 8.01878 31.5942 8.02503 31.575C9.95137 27.3216 12.4974 23.377 15.58 19.87C15.975 19.42 16.38 18.98 16.795 18.545C17.21 18.11 17.62 17.685 18.05 17.27C18.48 16.855 18.905 16.44 19.345 16.045C19.785 15.65 20.23 15.255 20.68 14.885C21.13 14.515 21.59 14.125 22.055 13.765C29.5877 7.90621 38.7197 4.46885 48.246 3.90648C57.7724 3.34411 67.2454 5.68314 75.4151 10.615C75.8051 10.85 76.185 11.09 76.565 11.335C76.945 11.58 77.38 11.87 77.78 12.15C78.18 12.43 78.62 12.735 79.03 13.04C79.44 13.345 79.865 13.67 80.275 13.995C80.685 14.32 81.1051 14.66 81.5101 14.995C81.9151 15.33 82.3051 15.68 82.6901 16.035C83.0751 16.39 83.4301 16.715 83.7901 17.065C84.1501 17.415 84.4401 17.7 84.7551 18.025C85.0701 18.35 85.2851 18.57 85.5351 18.845C93.1313 27.0052 97.5907 37.593 98.1216 48.729C98.6525 59.8651 95.2206 70.8291 88.435 79.675V79.675C88.185 80 87.935 80.32 87.675 80.635C87.6393 80.6867 87.5992 80.7352 87.555 80.78C87.495 80.86 87.43 80.94 87.36 81.02C87.3295 81.0638 87.2961 81.1056 87.2601 81.145C79.7626 90.1519 69.1731 96.036 57.565 97.645L57.49 97.71Z" fill="#F2F1F0"/>
<path fill-rule="evenodd" clip-rule="evenodd" d="M86.485 18.515C86.21 18.215 85.935 17.92 85.65 17.63C85.365 17.34 85 16.965 84.65 16.63C84.3 16.295 83.93 15.935 83.56 15.595C83.19 15.255 82.8 14.905 82.41 14.595C82.02 14.285 81.645 13.94 81.25 13.625C80.855 13.31 80.4901 13.015 80.1051 12.725C79.7201 12.435 79.38 12.18 79.015 11.92C78.65 11.66 78.365 11.455 78.015 11.235C77.665 11.015 77.515 10.88 77.225 10.705C69.1756 5.46424 59.7422 2.75179 50.1384 2.91664C40.5347 3.08148 31.1999 6.11607 23.335 11.63H23.31L23.265 11.66C22.08 12.495 20.935 13.37 19.84 14.315C19.39 14.69 18.945 15.08 18.51 15.48C18.075 15.88 17.64 16.29 17.22 16.705C16.8 17.12 16.37 17.555 15.965 17.99C15.56 18.425 15.145 18.87 14.75 19.325C7.2331 27.9318 3.02551 38.9333 2.88076 50.3596C2.736 61.7859 6.66354 72.8905 13.96 81.685C14.33 82.135 14.715 82.58 15.105 83.015C15.425 83.375 15.745 83.725 16.075 84.07C16.405 84.415 16.665 84.685 16.97 84.99C17.275 85.295 17.47 85.49 17.755 85.755C18.04 86.02 18.17 86.1499 18.38 86.3449L18.815 86.74L18.85 86.775C18.91 86.83 18.97 86.885 19.035 86.935C27.49 94.4647 38.3312 98.7688 49.6485 99.0889C60.9658 99.409 72.0329 95.7247 80.9 88.685L80.95 88.645C83.5111 86.6159 85.8568 84.3289 87.95 81.82V81.82C87.985 81.78 88.02 81.745 88.05 81.705L88.085 81.66C88.205 81.52 88.32 81.38 88.43 81.235C95.6648 72.2799 99.4477 61.027 99.0917 49.5201C98.7357 38.0133 94.2645 27.0158 86.49 18.525L86.485 18.515ZM85.255 79.045C85.115 79.22 84.97 79.39 84.825 79.545C84.68 79.7 84.57 79.85 84.435 80.005C84.3 80.16 84.21 80.265 84.09 80.395L83.805 80.715L83.69 80.84C83.6594 80.8774 83.6259 80.9125 83.59 80.945V80.945L83.475 81.065C75.8833 89.2563 65.4758 94.2751 54.3391 95.1152C43.2024 95.9553 32.1597 92.5546 23.425 85.5949L23.365 85.55C23.331 85.5281 23.2992 85.503 23.27 85.475L23.1 85.335C23.035 85.29 22.975 85.24 22.915 85.19L22.635 84.955C22.545 84.885 22.46 84.81 22.375 84.73C22.29 84.65 22.135 84.53 22.015 84.425C21.775 84.22 21.515 84.01 21.305 83.8C21.095 83.59 20.805 83.3349 20.545 83.0949C12.1989 75.1827 7.25989 64.3328 6.77367 52.8426C6.28744 41.3524 10.2922 30.124 17.94 21.535C18.33 21.09 18.735 20.655 19.15 20.23C19.565 19.805 19.98 19.385 20.405 18.975C20.83 18.565 21.265 18.17 21.71 17.785C22.155 17.4 22.605 17.005 23.065 16.635C23.525 16.265 23.99 15.89 24.465 15.54C24.94 15.19 25.42 14.83 25.91 14.5C32.5549 9.9286 40.3221 7.25872 48.3732 6.77848C56.4244 6.29825 64.4539 8.02593 71.595 11.775C72.135 12.05 72.67 12.3449 73.2 12.6549C73.73 12.9649 74.235 13.265 74.74 13.59C75.245 13.915 75.74 14.235 76.24 14.59C76.74 14.945 77.185 15.26 77.645 15.59C78.105 15.92 78.525 16.265 78.95 16.62C79.375 16.975 79.755 17.275 80.145 17.62C80.535 17.965 80.835 18.23 81.175 18.55C81.515 18.87 81.735 19.05 82.01 19.345L82.6 19.935C90.162 27.6277 94.6558 37.8163 95.2376 48.5877C95.8194 59.3591 92.4493 69.9724 85.7601 78.435C85.5901 78.685 85.415 78.855 85.255 79.045V79.045Z" fill="url(#paint19_linear_6_7309)"/>
<path d="M31.6558 50.2029C32.6418 40.8993 29.2918 32.9175 24.1732 32.375C19.0545 31.8325 14.1057 38.9347 13.1196 48.2383C12.1336 57.5419 15.4837 65.5238 20.6023 66.0663C25.7209 66.6088 30.6697 59.5065 31.6558 50.2029Z" fill="url(#paint20_linear_6_7309)" stroke="white" stroke-miterlimit="10"/>
<path d="M31.6978 50.2118C32.6241 41.4711 29.5618 33.9812 24.8578 33.4827C20.1539 32.9841 15.5896 39.6657 14.6632 48.4063C13.7368 57.147 16.7991 64.6368 21.5031 65.1354C26.207 65.6339 30.7714 58.9524 31.6978 50.2118Z" fill="url(#paint21_linear_6_7309)" stroke="white" stroke-miterlimit="10"/>
<path d="M31.7398 50.2154C32.6065 42.0377 29.832 35.0398 25.5427 34.5852C21.2533 34.1306 17.0735 40.3914 16.2068 48.5692C15.3401 56.7469 18.1146 63.7448 22.404 64.1994C26.6933 64.654 30.8731 58.3932 31.7398 50.2154Z" fill="url(#paint22_linear_6_7309)" stroke="white" stroke-miterlimit="10"/>
<path d="M31.7768 50.2188C32.5839 42.604 30.0971 36.0981 26.2225 35.6874C22.3478 35.2768 18.5524 41.1168 17.7454 48.7316C16.9383 56.3464 19.4251 62.8523 23.2998 63.263C27.1745 63.6736 30.9698 57.8336 31.7768 50.2188Z" fill="url(#paint23_linear_6_7309)" stroke="white" stroke-miterlimit="10"/>
<path d="M31.8193 50.2226C32.5667 43.1708 30.3677 37.1568 26.9077 36.7901C23.4477 36.4234 20.0369 41.8428 19.2895 48.8946C18.5421 55.9464 20.7411 61.9604 24.2011 62.3271C27.6611 62.6938 31.0719 57.2744 31.8193 50.2226Z" fill="url(#paint24_linear_6_7309)" stroke="white" stroke-miterlimit="10"/>
<path d="M31.8613 50.2263C32.5494 43.7347 30.6384 38.2105 27.593 37.8877C24.5476 37.565 21.5212 42.5658 20.8331 49.0575C20.1451 55.5491 22.0561 61.0733 25.1014 61.3961C28.1468 61.7188 31.1733 56.718 31.8613 50.2263Z" fill="url(#paint25_linear_6_7309)" stroke="white" stroke-miterlimit="10"/>
<path d="M31.9033 50.2352C32.5317 44.3064 30.9085 39.2743 28.2778 38.9954C25.647 38.7166 23.005 43.2967 22.3766 49.2255C21.7483 55.1542 23.3715 60.1864 26.0023 60.4652C28.633 60.744 31.2749 56.1639 31.9033 50.2352Z" fill="url(#paint26_linear_6_7309)" stroke="white" stroke-miterlimit="10"/>
<path d="M31.9403 50.2384C32.509 44.8726 31.1736 40.3324 28.9575 40.0975C26.7414 39.8626 24.484 44.022 23.9153 49.3878C23.3466 54.7536 24.682 59.2938 26.8981 59.5287C29.1141 59.7635 31.3716 55.6041 31.9403 50.2384Z" fill="url(#paint27_linear_6_7309)" stroke="white" stroke-miterlimit="10"/>
<path d="M31.9823 50.2422C32.4914 45.4394 31.4437 41.3911 29.6423 41.2002C27.8409 41.0093 25.9679 44.748 25.4589 49.5508C24.9498 54.3536 25.9975 58.4018 27.7989 58.5928C29.6003 58.7837 31.4733 55.045 31.9823 50.2422Z" fill="url(#paint28_linear_6_7309)" stroke="white" stroke-miterlimit="10"/>
<path d="M32.0198 50.246C32.4692 46.0061 31.7094 42.4498 30.3226 42.3029C28.9359 42.1559 27.4474 45.4739 26.998 49.7137C26.5486 53.9536 27.3085 57.5099 28.6953 57.6569C30.082 57.8039 31.5705 54.4859 32.0198 50.246Z" fill="#8EABFB" stroke="white" stroke-miterlimit="10"/>
<path d="M78.8627 66.0518C83.9813 65.5093 87.3314 57.5274 86.3454 48.2238C85.3593 38.9202 80.4105 31.818 75.2918 32.3605C70.1732 32.903 66.8231 40.8848 67.8092 50.1884C68.7952 59.492 73.744 66.5943 78.8627 66.0518Z" fill="url(#paint29_linear_6_7309)" stroke="white" stroke-miterlimit="10"/>
<path d="M77.963 65.1152C82.667 64.6167 85.7293 57.1268 84.8029 48.3861C83.8765 39.6455 79.3122 32.964 74.6082 33.4625C69.9043 33.9611 66.8419 41.4509 67.7683 50.1916C68.6947 58.9322 73.259 65.6138 77.963 65.1152Z" fill="url(#paint30_linear_6_7309)" stroke="white" stroke-miterlimit="10"/>
<path d="M77.0633 64.1837C81.3526 63.7291 84.1272 56.7312 83.2604 48.5535C82.3937 40.3758 78.2139 34.1149 73.9246 34.5696C69.6353 35.0242 66.8607 42.0221 67.7274 50.1998C68.5942 58.3775 72.774 64.6383 77.0633 64.1837Z" fill="url(#paint31_linear_6_7309)" stroke="white" stroke-miterlimit="10"/>
<path d="M76.1681 63.2423C80.0428 62.8316 82.5296 56.3257 81.7225 48.711C80.9154 41.0962 77.1201 35.256 73.2455 35.6667C69.3708 36.0774 66.884 42.5833 67.6911 50.1981C68.4981 57.8129 72.2934 63.653 76.1681 63.2423Z" fill="url(#paint32_linear_6_7309)" stroke="white" stroke-miterlimit="10"/>
<path d="M75.2635 62.3063C78.7235 61.9396 80.9225 55.9256 80.1751 48.8738C79.4277 41.822 76.0169 36.4026 72.5569 36.7694C69.0969 37.1361 66.8979 43.15 67.6453 50.2018C68.3927 57.2536 71.8035 62.673 75.2635 62.3063Z" fill="url(#paint33_linear_6_7309)" stroke="white" stroke-miterlimit="10"/>
<path d="M74.3643 61.3797C77.4097 61.057 79.3207 55.5328 78.6327 49.0411C77.9446 42.5495 74.9181 37.5486 71.8727 37.8714C68.8274 38.1942 66.9164 43.7183 67.6044 50.21C68.2925 56.7016 71.3189 61.7025 74.3643 61.3797Z" fill="url(#paint34_linear_6_7309)" stroke="white" stroke-miterlimit="10"/>
<path d="M73.4696 60.4433C76.1003 60.1645 77.7235 55.1323 77.0952 49.2036C76.4668 43.2749 73.8248 38.6947 71.1941 38.9735C68.5634 39.2524 66.9402 44.2846 67.5685 50.2133C68.1969 56.142 70.8389 60.7221 73.4696 60.4433Z" fill="url(#paint35_linear_6_7309)" stroke="white" stroke-miterlimit="10"/>
<path d="M72.5695 59.5069C74.7855 59.272 76.121 54.7317 75.5523 49.366C74.9836 44.0002 72.7261 39.8408 70.51 40.0757C68.294 40.3106 66.9585 44.8508 67.5272 50.2165C68.0959 55.5823 70.3534 59.7417 72.5695 59.5069Z" fill="url(#paint36_linear_6_7309)" stroke="white" stroke-miterlimit="10"/>
<path d="M71.6648 58.5708C73.4662 58.3799 74.5139 54.3316 74.0048 49.5288C73.4958 44.726 71.6228 40.9873 69.8214 41.1782C68.02 41.3692 66.9723 45.4174 67.4814 50.2202C67.9904 55.023 69.8634 58.7617 71.6648 58.5708Z" fill="url(#paint37_linear_6_7309)" stroke="white" stroke-miterlimit="10"/>
<path d="M70.7701 57.6343C72.1569 57.4873 72.9168 53.9311 72.4674 49.6912C72.018 45.4513 70.5296 42.1333 69.1428 42.2803C67.756 42.4272 66.9961 45.9835 67.4455 50.2234C67.8949 54.4633 69.3834 57.7812 70.7701 57.6343Z" fill="#8EABFB" stroke="white" stroke-miterlimit="10"/>
<path opacity="0.3" d="M69.46 54.1851C68.9 55.7951 67.8 64.7501 60.46 65.1851C53.12 65.6201 54.545 62.3851 50.11 62.3851H49.955C45.695 62.3851 46.955 65.6401 39.605 65.1851C32.255 64.7301 30.365 55.7801 29.85 54.1851H69.46Z" fill="#D8ECFF"/>
<path opacity="0.25" d="M46.46 58.2501C47.315 57.0551 48.095 55.98 48.36 55.66" stroke="white" stroke-width="0.5" stroke-miterlimit="10"/>
<path opacity="0.25" d="M30.17 53.6851C31.2832 56.1411 32.6614 58.4683 34.28 60.6251C34.8943 61.3956 35.6747 62.0176 36.563 62.4444C37.4513 62.8712 38.4245 63.0919 39.41 63.0901H39.495C40.5483 63.0842 41.585 62.8271 42.5189 62.3402C43.4529 61.8532 44.2572 61.1503 44.865 60.29L44.95 60.17" stroke="white" stroke-width="0.5" stroke-miterlimit="10"/>
<path opacity="0.25" d="M45.0939 58.5004L44.8109 58.9246C44.7128 59.0716 44.7525 59.2703 44.8995 59.3684L45.6731 59.8845C45.8201 59.9826 46.0188 59.943 46.1169 59.7959L46.4 59.3717C46.498 59.2247 46.4584 59.026 46.3114 58.9279L45.5377 58.4118C45.3907 58.3137 45.192 58.3533 45.0939 58.5004Z" fill="white"/>
<path opacity="0.25" d="M45.0426 58.442L44.7374 58.8995C44.6286 59.0626 44.6726 59.2831 44.8357 59.3919L45.6759 59.9524C45.839 60.0612 46.0594 60.0172 46.1682 59.8541L46.4734 59.3966C46.5822 59.2335 46.5383 59.0131 46.3752 58.9043L45.535 58.3437C45.3719 58.2349 45.1514 58.2789 45.0426 58.442Z" stroke="white" stroke-miterlimit="10"/>
<path opacity="0.25" d="M51.09 55.6851C51.355 56.0051 52.14 57.0801 52.99 58.2751" stroke="white" stroke-width="0.5" stroke-miterlimit="10"/>
<path opacity="0.25" d="M54.35 60.1501L54.435 60.2701C55.0422 61.1309 55.8463 61.8342 56.7804 62.3212C57.7145 62.8083 58.7515 63.065 59.805 63.0701H59.885C60.8712 63.0719 61.8451 62.8512 62.7342 62.4244C63.6233 61.9976 64.4046 61.3757 65.02 60.605C66.6368 58.4471 68.0149 56.1201 69.13 53.665" stroke="white" stroke-width="0.5" stroke-miterlimit="10"/>
<path opacity="0.25" d="M53.7541 58.4103L52.9805 58.9264C52.8335 59.0245 52.7938 59.2232 52.8919 59.3702L53.1749 59.7945C53.273 59.9415 53.4717 59.9811 53.6187 59.883L54.3923 59.3669C54.5394 59.2688 54.579 59.0701 54.481 58.9231L54.1979 58.4989C54.0998 58.3519 53.9011 58.3122 53.7541 58.4103Z" fill="white"/>
<path opacity="0.25" d="M53.761 58.3396L52.9209 58.9001C52.7578 59.009 52.7137 59.2294 52.8226 59.3925L53.1278 59.85C53.2366 60.0131 53.4571 60.0571 53.6202 59.9483L54.4603 59.3878C54.6234 59.2789 54.6674 59.0585 54.5586 58.8954L54.2534 58.4379C54.1445 58.2748 53.9241 58.2308 53.761 58.3396Z" stroke="white" stroke-miterlimit="10"/>
<path d="M49.645 47.925C57.4018 47.925 63.69 45.232 63.69 41.91C63.69 38.588 57.4018 35.895 49.645 35.895C41.8881 35.895 35.6 38.588 35.6 41.91C35.6 45.232 41.8881 47.925 49.645 47.925Z" fill="url(#paint38_linear_6_7309)"/>
<path d="M43.15 50.545H56.15V53.235C56.15 53.5936 56.0794 53.9486 55.9422 54.2798C55.805 54.611 55.6039 54.912 55.3504 55.1655C55.0969 55.419 54.796 55.6201 54.4647 55.7573C54.1335 55.8945 53.7785 55.9651 53.42 55.9651H45.92C45.5613 55.971 45.205 55.9061 44.8715 55.774C44.5379 55.6419 44.2337 55.4452 43.9764 55.1953C43.719 54.9454 43.5135 54.6471 43.3717 54.3176C43.2299 53.988 43.1546 53.6338 43.15 53.2751V50.545Z" fill="#3C4049"/>
<path d="M52.6028 51.5428C52.6548 50.0636 51.4977 48.8224 50.0185 48.7705C48.5393 48.7186 47.2981 49.8756 47.2462 51.3549C47.1942 52.8341 48.3513 54.0753 49.8305 54.1272C51.3097 54.1791 52.5509 53.0221 52.6028 51.5428Z" fill="#363A3D"/>
<path d="M69.955 51.4901C70.08 49.0251 72.545 40.8801 58.555 40.3251H40.74C26.74 40.8801 29.21 49.0251 29.335 51.4901H69.955Z" fill="#020814"/>
<path d="M51.4782 46.6128C51.5255 45.6087 50.75 44.7564 49.7459 44.709C48.7419 44.6617 47.8896 45.4373 47.8422 46.4413C47.7949 47.4453 48.5704 48.2977 49.5745 48.345C50.5785 48.3924 51.4308 47.6168 51.4782 46.6128Z" fill="#D8ECFF"/>
<path d="M49.645 47.55C50.2304 47.55 50.705 47.0755 50.705 46.4901C50.705 45.9046 50.2304 45.4301 49.645 45.4301C49.0596 45.4301 48.585 45.9046 48.585 46.4901C48.585 47.0755 49.0596 47.55 49.645 47.55Z" fill="#020307"/>
<path d="M69.46 54.16H29.835L29.33 51.49H69.965L69.46 54.16Z" fill="url(#paint39_linear_6_7309)"/>
<path d="M37.72 47.135C37.7199 47.6842 37.5319 48.2168 37.1872 48.6443C36.8424 49.0719 36.3617 49.3685 35.825 49.485C35.6618 49.5277 35.4938 49.5495 35.325 49.55H33.17C32.5295 49.55 31.9152 49.2955 31.4623 48.8426C31.0094 48.3897 30.755 47.7755 30.755 47.135C30.755 46.4945 31.0094 45.8802 31.4623 45.4273C31.9152 44.9744 32.5295 44.72 33.17 44.72H35.325C35.4938 44.7205 35.6618 44.7423 35.825 44.785C36.2779 44.8743 36.693 45.0992 37.015 45.43C37.4664 45.8826 37.7199 46.4958 37.72 47.135V47.135Z" fill="#363A3D"/>
<path d="M32.765 48.76C33.6625 48.76 34.39 48.0325 34.39 47.135C34.39 46.2375 33.6625 45.51 32.765 45.51C31.8676 45.51 31.14 46.2375 31.14 47.135C31.14 48.0325 31.8676 48.76 32.765 48.76Z" fill="#2A2C2D"/>
<path d="M32.75 48.04C33.2332 48.04 33.625 47.6483 33.625 47.165C33.625 46.6818 33.2332 46.29 32.75 46.29C32.2668 46.29 31.875 46.6818 31.875 47.165C31.875 47.6483 32.2668 48.04 32.75 48.04Z" fill="#1C1E23"/>
<path d="M32.75 47.67C33.0289 47.67 33.255 47.4439 33.255 47.165C33.255 46.8861 33.0289 46.66 32.75 46.66C32.4711 46.66 32.245 46.8861 32.245 47.165C32.245 47.4439 32.4711 47.67 32.75 47.67Z" fill="#4B5264"/>
<path d="M32.75 47.455C32.9102 47.455 33.04 47.3252 33.04 47.165C33.04 47.0048 32.9102 46.875 32.75 46.875C32.5899 46.875 32.46 47.0048 32.46 47.165C32.46 47.3252 32.5899 47.455 32.75 47.455Z" fill="#020307"/>
<path d="M35.715 48.76C36.6125 48.76 37.34 48.0325 37.34 47.135C37.34 46.2375 36.6125 45.51 35.715 45.51C34.8176 45.51 34.09 46.2375 34.09 47.135C34.09 48.0325 34.8176 48.76 35.715 48.76Z" fill="#2A2C2D"/>
<path d="M35.725 48.04C36.2082 48.04 36.6 47.6483 36.6 47.165C36.6 46.6818 36.2082 46.29 35.725 46.29C35.2417 46.29 34.85 46.6818 34.85 47.165C34.85 47.6483 35.2417 48.04 35.725 48.04Z" fill="#1C1E23"/>
<path d="M35.725 47.67C36.0039 47.67 36.23 47.4439 36.23 47.165C36.23 46.8861 36.0039 46.66 35.725 46.66C35.4461 46.66 35.22 46.8861 35.22 47.165C35.22 47.4439 35.4461 47.67 35.725 47.67Z" fill="#4B5264"/>
<path d="M35.725 47.455C35.8852 47.455 36.015 47.3252 36.015 47.165C36.015 47.0048 35.8852 46.875 35.725 46.875C35.5648 46.875 35.435 47.0048 35.435 47.165C35.435 47.3252 35.5648 47.455 35.725 47.455Z" fill="#020307"/>
<path d="M68.885 47.135C68.8847 47.6849 68.6959 48.2181 68.3502 48.6457C68.0045 49.0733 67.5226 49.3695 66.985 49.485C66.8218 49.5281 66.6538 49.55 66.485 49.55H64.325C63.6845 49.55 63.0703 49.2955 62.6174 48.8426C62.1645 48.3897 61.91 47.7755 61.91 47.135C61.91 46.4945 62.1645 45.8802 62.6174 45.4273C63.0703 44.9744 63.6845 44.72 64.325 44.72H66.485C66.6538 44.72 66.8218 44.7418 66.985 44.785C67.4398 44.873 67.8568 45.0981 68.18 45.43C68.6314 45.8826 68.8849 46.4958 68.885 47.135V47.135Z" fill="#363A3D"/>
<path d="M63.93 48.76C64.8275 48.76 65.555 48.0325 65.555 47.135C65.555 46.2375 64.8275 45.51 63.93 45.51C63.0325 45.51 62.305 46.2375 62.305 47.135C62.305 48.0325 63.0325 48.76 63.93 48.76Z" fill="#2A2C2D"/>
<path d="M63.915 48.04C64.3982 48.04 64.79 47.6483 64.79 47.165C64.79 46.6818 64.3982 46.29 63.915 46.29C63.4317 46.29 63.04 46.6818 63.04 47.165C63.04 47.6483 63.4317 48.04 63.915 48.04Z" fill="#1C1E23"/>
<path d="M63.915 47.67C64.1939 47.67 64.42 47.4439 64.42 47.165C64.42 46.8861 64.1939 46.66 63.915 46.66C63.6361 46.66 63.41 46.8861 63.41 47.165C63.41 47.4439 63.6361 47.67 63.915 47.67Z" fill="#4B5264"/>
<path d="M63.915 47.455C64.0752 47.455 64.205 47.3252 64.205 47.165C64.205 47.0048 64.0752 46.875 63.915 46.875C63.7548 46.875 63.625 47.0048 63.625 47.165C63.625 47.3252 63.7548 47.455 63.915 47.455Z" fill="#020307"/>
<path d="M66.88 48.76C67.7775 48.76 68.505 48.0325 68.505 47.135C68.505 46.2375 67.7775 45.51 66.88 45.51C65.9825 45.51 65.255 46.2375 65.255 47.135C65.255 48.0325 65.9825 48.76 66.88 48.76Z" fill="#2A2C2D"/>
<path d="M66.885 48.04C67.3683 48.04 67.76 47.6483 67.76 47.165C67.76 46.6818 67.3683 46.29 66.885 46.29C66.4018 46.29 66.01 46.6818 66.01 47.165C66.01 47.6483 66.4018 48.04 66.885 48.04Z" fill="#1C1E23"/>
<path d="M66.885 47.67C67.1639 47.67 67.39 47.4439 67.39 47.165C67.39 46.8861 67.1639 46.66 66.885 46.66C66.6061 46.66 66.38 46.8861 66.38 47.165C66.38 47.4439 66.6061 47.67 66.885 47.67Z" fill="#4B5264"/>
<path d="M66.885 47.455C67.0451 47.455 67.175 47.3252 67.175 47.165C67.175 47.0048 67.0451 46.875 66.885 46.875C66.7248 46.875 66.595 47.0048 66.595 47.165C66.595 47.3252 66.7248 47.455 66.885 47.455Z" fill="#020307"/>
</g>
<defs>
<linearGradient id="paint0_linear_6_7309" x1="46.84" y1="-9.13996" x2="54.995" y2="75.9001" gradientUnits="userSpaceOnUse">
<stop stop-color="#00ABDE"/>
<stop offset="1" stop-color="#007ED8"/>
</linearGradient>
<linearGradient id="paint1_linear_6_7309" x1="89.575" y1="77.805" x2="-2.32501" y2="77.805" gradientUnits="userSpaceOnUse">
<stop stop-color="#D4A6DE"/>
<stop offset="0.53" stop-color="#ADB4ED"/>
<stop offset="1" stop-color="#88C1FB"/>
</linearGradient>
<linearGradient id="paint2_linear_6_7309" x1="86.9479" y1="78.2351" x2="-8.1926" y2="78.2351" gradientUnits="userSpaceOnUse">
<stop stop-color="#D9B0E2"/>
<stop offset="0.59" stop-color="#B2BEF0"/>
<stop offset="1" stop-color="#95C8FB"/>
</linearGradient>
<linearGradient id="paint3_linear_6_7309" x1="83.4374" y1="78.5551" x2="-15.1646" y2="78.5551" gradientUnits="userSpaceOnUse">
<stop stop-color="#DEBAE5"/>
<stop offset="0.66" stop-color="#B7C8F4"/>
<stop offset="1" stop-color="#A2CFFC"/>
</linearGradient>
<linearGradient id="paint4_linear_6_7309" x1="95.2471" y1="78.74" x2="-4.47231" y2="78.74" gradientUnits="userSpaceOnUse">
<stop stop-color="#E2C4E9"/>
<stop offset="0.79" stop-color="#BBD2F8"/>
<stop offset="1" stop-color="#B0D6FC"/>
</linearGradient>
<linearGradient id="paint5_linear_6_7309" x1="93.5862" y1="78.82" x2="-8.96407" y2="78.82" gradientUnits="userSpaceOnUse">
<stop stop-color="#E7CEED"/>
<stop offset="0.93" stop-color="#C0DCFC"/>
<stop offset="1" stop-color="#BDDDFD"/>
</linearGradient>
<linearGradient id="paint6_linear_6_7309" x1="-13.4503" y1="78.7649" x2="92.1337" y2="78.7649" gradientUnits="userSpaceOnUse">
<stop stop-color="#ECD7F0"/>
<stop offset="1" stop-color="#CAE3FD"/>
</linearGradient>
<linearGradient id="paint7_linear_6_7309" x1="-17.9377" y1="78.59" x2="90.6554" y2="78.59" gradientUnits="userSpaceOnUse">
<stop stop-color="#F1E1F4"/>
<stop offset="1" stop-color="#D7EAFE"/>
</linearGradient>
<linearGradient id="paint8_linear_6_7309" x1="-24.6546" y1="78.32" x2="88.9442" y2="78.32" gradientUnits="userSpaceOnUse">
<stop stop-color="#F5EBF8"/>
<stop offset="1" stop-color="#E5F1FE"/>
</linearGradient>
<linearGradient id="paint9_linear_6_7309" x1="-26.6601" y1="77.97" x2="89.3649" y2="77.97" gradientUnits="userSpaceOnUse">
<stop stop-color="#FAF5FB"/>
<stop offset="1" stop-color="#F2F8FF"/>
</linearGradient>
<linearGradient id="paint10_linear_6_7309" x1="24125.7" y1="11640.7" x2="30035.8" y2="11640.7" gradientUnits="userSpaceOnUse">
<stop stop-color="#D4A6DE"/>
<stop offset="0.53" stop-color="#ADB4ED"/>
<stop offset="1" stop-color="#88C1FB"/>
</linearGradient>
<linearGradient id="paint11_linear_6_7309" x1="24775.8" y1="12381" x2="31166.9" y2="12381" gradientUnits="userSpaceOnUse">
<stop stop-color="#D9B0E2"/>
<stop offset="0.59" stop-color="#B2BEF0"/>
<stop offset="1" stop-color="#95C8FB"/>
</linearGradient>
<linearGradient id="paint12_linear_6_7309" x1="25336.4" y1="13153.8" x2="32200.6" y2="13153.8" gradientUnits="userSpaceOnUse">
<stop stop-color="#DEBAE5"/>
<stop offset="0.66" stop-color="#B7C8F4"/>
<stop offset="1" stop-color="#A2CFFC"/>
</linearGradient>
<linearGradient id="paint13_linear_6_7309" x1="25851.9" y1="14006.1" x2="33201.1" y2="14006.1" gradientUnits="userSpaceOnUse">
<stop stop-color="#E2C4E9"/>
<stop offset="0.79" stop-color="#BBD2F8"/>
<stop offset="1" stop-color="#B0D6FC"/>
</linearGradient>
<linearGradient id="paint14_linear_6_7309" x1="26203.7" y1="14597.3" x2="34017.7" y2="14597.3" gradientUnits="userSpaceOnUse">
<stop stop-color="#E7CEED"/>
<stop offset="0.93" stop-color="#C0DCFC"/>
<stop offset="1" stop-color="#BDDDFD"/>
</linearGradient>
<linearGradient id="paint15_linear_6_7309" x1="25949.5" y1="15596.8" x2="34078.4" y2="15596.8" gradientUnits="userSpaceOnUse">
<stop stop-color="#ECD7F0"/>
<stop offset="1" stop-color="#CAE3FD"/>
</linearGradient>
<linearGradient id="paint16_linear_6_7309" x1="25796.9" y1="17354.8" x2="34309.1" y2="17354.8" gradientUnits="userSpaceOnUse">
<stop stop-color="#F1E1F4"/>
<stop offset="1" stop-color="#D7EAFE"/>
</linearGradient>
<linearGradient id="paint17_linear_6_7309" x1="25704.5" y1="18868.4" x2="34672" y2="18868.4" gradientUnits="userSpaceOnUse">
<stop stop-color="#F5EBF8"/>
<stop offset="1" stop-color="#E5F1FE"/>
</linearGradient>
<linearGradient id="paint18_linear_6_7309" x1="25641.7" y1="20259.2" x2="34918.5" y2="20259.2" gradientUnits="userSpaceOnUse">
<stop stop-color="#FAF5FB"/>
<stop offset="1" stop-color="#F2F8FF"/>
</linearGradient>
<linearGradient id="paint19_linear_6_7309" x1="1.10503" y1="-22.58" x2="99.245" y2="122.15" gradientUnits="userSpaceOnUse">
<stop stop-color="#007ED8"/>
<stop offset="0.71" stop-color="#002D4C"/>
</linearGradient>
<linearGradient id="paint20_linear_6_7309" x1="-54051.1" y1="18609.6" x2="-52782.4" y2="18667.5" gradientUnits="userSpaceOnUse">
<stop stop-color="#D4A6DE"/>
<stop offset="0.53" stop-color="#ADB4ED"/>
<stop offset="1" stop-color="#88C1FB"/>
</linearGradient>
<linearGradient id="paint21_linear_6_7309" x1="13.5109" y1="45.8526" x2="30.7646" y2="46.6411" gradientUnits="userSpaceOnUse">
<stop stop-color="#CCA7E1"/>
<stop offset="0.6" stop-color="#A5B5F0"/>
<stop offset="1" stop-color="#89BFFB"/>
</linearGradient>
<linearGradient id="paint22_linear_6_7309" x1="22.6082" y1="48.8712" x2="38.1496" y2="49.5814" gradientUnits="userSpaceOnUse">
<stop stop-color="#C4A7E4"/>
<stop offset="0.67" stop-color="#9DB5F3"/>
<stop offset="1" stop-color="#89BCFB"/>
</linearGradient>
<linearGradient id="paint23_linear_6_7309" x1="22.9009" y1="51.9656" x2="36.9485" y2="52.6075" gradientUnits="userSpaceOnUse">
<stop stop-color="#BDA8E8"/>
<stop offset="0.77" stop-color="#96B6F6"/>
<stop offset="1" stop-color="#8ABAFB"/>
</linearGradient>
<linearGradient id="paint24_linear_6_7309" x1="22.4636" y1="61.9705" x2="35.0384" y2="62.5451" gradientUnits="userSpaceOnUse">
<stop stop-color="#B5A8EB"/>
<stop offset="0.93" stop-color="#8EB6FA"/>
<stop offset="1" stop-color="#8BB7FB"/>
</linearGradient>
<linearGradient id="paint25_linear_6_7309" x1="34.5583" y1="58.498" x2="23.4834" y2="57.992" gradientUnits="userSpaceOnUse">
<stop stop-color="#ADA9EE"/>
<stop offset="1" stop-color="#8BB5FB"/>
</linearGradient>
<linearGradient id="paint26_linear_6_7309" x1="34.4209" y1="51.4855" x2="24.8631" y2="51.0487" gradientUnits="userSpaceOnUse">
<stop stop-color="#A5A9F1"/>
<stop offset="1" stop-color="#8CB2FB"/>
</linearGradient>
<linearGradient id="paint27_linear_6_7309" x1="33.577" y1="51.0982" x2="25.5188" y2="50.7299" gradientUnits="userSpaceOnUse">
<stop stop-color="#9EAAF5"/>
<stop offset="1" stop-color="#8DB0FB"/>
</linearGradient>
<linearGradient id="paint28_linear_6_7309" x1="34.0106" y1="51.8043" x2="27.3634" y2="51.5005" gradientUnits="userSpaceOnUse">
<stop stop-color="#96AAF8"/>
<stop offset="1" stop-color="#8DADFB"/>
</linearGradient>
<linearGradient id="paint29_linear_6_7309" x1="3997.24" y1="35628.4" x2="3300.36" y2="35662.2" gradientUnits="userSpaceOnUse">
<stop stop-color="#D4A6DE"/>
<stop offset="0.53" stop-color="#ADB4ED"/>
<stop offset="1" stop-color="#88C1FB"/>
</linearGradient>
<linearGradient id="paint30_linear_6_7309" x1="-133.705" y1="33770.5" x2="-724.817" y2="33797.5" gradientUnits="userSpaceOnUse">
<stop stop-color="#CCA7E1"/>
<stop offset="0.6" stop-color="#A5B5F0"/>
<stop offset="1" stop-color="#89BFFB"/>
</linearGradient>
<linearGradient id="paint31_linear_6_7309" x1="-3432.4" y1="31794.6" x2="-3917.91" y2="31816.8" gradientUnits="userSpaceOnUse">
<stop stop-color="#C4A7E4"/>
<stop offset="0.67" stop-color="#9DB5F3"/>
<stop offset="1" stop-color="#89BCFB"/>
</linearGradient>
<linearGradient id="paint32_linear_6_7309" x1="-6091.58" y1="29740.5" x2="-6488.06" y2="29758.6" gradientUnits="userSpaceOnUse">
<stop stop-color="#BDA8E8"/>
<stop offset="0.77" stop-color="#96B6F6"/>
<stop offset="1" stop-color="#8ABAFB"/>
</linearGradient>
<linearGradient id="paint33_linear_6_7309" x1="-8111.1" y1="27387.9" x2="-8427.97" y2="27402.4" gradientUnits="userSpaceOnUse">
<stop stop-color="#B5A8EB"/>
<stop offset="0.93" stop-color="#8EB6FA"/>
<stop offset="1" stop-color="#8BB7FB"/>
</linearGradient>
<linearGradient id="paint34_linear_6_7309" x1="-9681.49" y1="25270.5" x2="-9435.85" y2="25259.3" gradientUnits="userSpaceOnUse">
<stop stop-color="#ADA9EE"/>
<stop offset="1" stop-color="#8BB5FB"/>
</linearGradient>
<linearGradient id="paint35_linear_6_7309" x1="-10236.1" y1="23484" x2="-10053" y2="23475.6" gradientUnits="userSpaceOnUse">
<stop stop-color="#A5A9F1"/>
<stop offset="1" stop-color="#8CB2FB"/>
</linearGradient>
<linearGradient id="paint36_linear_6_7309" x1="-10160.9" y1="21392.9" x2="-10030.9" y2="21386.9" gradientUnits="userSpaceOnUse">
<stop stop-color="#9EAAF5"/>
<stop offset="1" stop-color="#8DB0FB"/>
</linearGradient>
<linearGradient id="paint37_linear_6_7309" x1="-9576.65" y1="19236.1" x2="-9489.44" y2="19232.1" gradientUnits="userSpaceOnUse">
<stop stop-color="#96AAF8"/>
<stop offset="1" stop-color="#8DADFB"/>
</linearGradient>
<linearGradient id="paint38_linear_6_7309" x1="49.155" y1="41.735" x2="98.17" y2="59.17" gradientUnits="userSpaceOnUse">
<stop stop-color="#020814"/>
<stop offset="0.7" stop-color="#919498"/>
<stop offset="1" stop-color="#D0D2D3"/>
</linearGradient>
<linearGradient id="paint39_linear_6_7309" x1="30.5" y1="48.035" x2="227.215" y2="96.63" gradientUnits="userSpaceOnUse">
<stop stop-color="#020814"/>
<stop offset="0.2" stop-color="#2A2F39"/>
<stop offset="0.29" stop-color="#3C414A"/>
<stop offset="0.46" stop-color="#60656B"/>
<stop offset="0.6" stop-color="#7C8085"/>
<stop offset="0.78" stop-color="#A3A6A9"/>
<stop offset="1" stop-color="#D0D2D3"/>
</linearGradient>
<clipPath id="clip0_6_7309">
<rect width="102" height="102" fill="white"/>
</clipPath>
</defs>
</svg>
