<svg width="100" height="100" viewBox="0 0 100 100" fill="none" xmlns="http://www.w3.org/2000/svg">
<g clip-path="url(#clip0)">
<path d="M49.6401 96.4499C40.382 96.4499 31.3317 93.7045 23.6339 88.561C15.936 83.4174 9.93624 76.1067 6.3933 67.5533C2.85036 58.9999 1.92337 49.588 3.72954 40.5077C5.53571 31.4275 9.99394 23.0867 16.5404 16.5402C23.0869 9.99372 31.4277 5.5355 40.5079 3.72933C49.5882 1.92315 59.0001 2.85015 67.5535 6.39308C76.1069 9.93602 83.4176 15.9358 88.5612 23.6336C93.7047 31.3315 96.4501 40.3817 96.4501 49.6399C96.4505 55.7872 95.24 61.8744 92.8878 67.5538C90.5355 73.2332 87.0875 78.3937 82.7407 82.7405C78.3939 87.0873 73.2335 90.5353 67.554 92.8876C61.8746 95.2398 55.7874 96.4503 49.6401 96.4499V96.4499Z" fill="url(#paint0_linear)"/>
<path fill-rule="evenodd" clip-rule="evenodd" d="M95.54 49.6399C95.54 58.718 92.848 67.5923 87.8045 75.1406C82.7609 82.6888 75.5923 88.5719 67.2052 92.046C58.818 95.52 49.5891 96.429 40.6854 94.6579C31.7816 92.8869 23.603 88.5153 17.1838 82.0961C10.7646 75.6769 6.39302 67.4983 4.62196 58.5945C2.85089 49.6908 3.75987 40.4618 7.23393 32.0747C10.708 23.6876 16.5911 16.519 24.1393 11.4754C31.6875 6.43187 40.5618 3.73988 49.64 3.73988C55.6677 3.73986 61.6363 4.92708 67.2052 7.23377C72.774 9.54045 77.834 12.9214 82.0963 17.1836C86.3585 21.4458 89.7394 26.5058 92.0461 32.0747C94.3528 37.6435 95.54 43.6122 95.54 49.6399V49.6399ZM49.64 -0.000106449C59.4579 -0.000106449 69.0552 2.91123 77.2185 8.36574C85.3818 13.8203 91.7442 21.573 95.5014 30.6435C99.2585 39.714 100.242 49.695 98.3262 59.3242C96.4108 68.9534 91.6831 77.7984 84.7408 84.7407C77.7985 91.683 68.9535 96.4107 59.3243 98.3261C49.6951 100.241 39.7141 99.2584 30.6436 95.5013C21.5731 91.7441 13.8204 85.3816 8.36584 77.2184C2.91133 69.0551 -1.61629e-06 59.4577 3.61524e-07 49.6399C-0.000786426 43.1208 1.28265 36.6655 3.77702 30.6425C6.27138 24.6196 9.92781 19.147 14.5375 14.5374C19.1471 9.9277 24.6197 6.27127 30.6427 3.77691C36.6656 1.28254 43.121 -0.000894549 49.64 -0.000106449V-0.000106449Z" fill="#F2F1F0"/>
<path fill-rule="evenodd" clip-rule="evenodd" d="M92.7296 49.64C92.7296 58.1624 90.2024 66.4934 85.4676 73.5795C80.7328 80.6656 74.0031 86.1886 66.1294 89.45C58.2557 92.7113 49.5918 93.5647 41.2331 91.902C32.8745 90.2394 25.1966 86.1355 19.1703 80.1092C13.1441 74.083 9.04017 66.4051 7.37753 58.0464C5.7149 49.6878 6.56822 41.0238 9.8296 33.1502C13.091 25.2765 18.6139 18.5468 25.7 13.812C32.7862 9.07718 41.1172 6.55 49.6396 6.55C55.2983 6.54965 60.9017 7.66397 66.1298 9.82933C71.3579 11.9947 76.1082 15.1687 80.1096 19.17C84.1109 23.1713 87.2849 27.9217 89.4502 33.1498C91.6156 38.3778 92.7299 43.9812 92.7296 49.64ZM49.6396 2.81C58.9017 2.81 67.9558 5.55653 75.6569 10.7023C83.3581 15.848 89.3604 23.1619 92.9049 31.7189C96.4493 40.276 97.3767 49.6919 95.5697 58.7761C93.7628 67.8602 89.3027 76.2045 82.7534 82.7538C76.2041 89.3031 67.8598 93.7632 58.7757 95.5702C49.6915 97.3771 40.2756 96.4497 31.7185 92.9053C23.1614 89.3608 15.8476 83.3585 10.7018 75.6574C5.5561 67.9562 2.80957 58.9021 2.80957 49.64C2.81076 37.2203 7.74501 25.3096 16.5271 16.5275C25.3091 7.74544 37.2198 2.81119 49.6396 2.81V2.81Z" fill="#0078D4"/>
<path fill-rule="evenodd" clip-rule="evenodd" d="M92.7296 49.6399C92.7296 58.1623 90.2024 66.4933 85.4676 73.5794C80.7328 80.6655 74.0031 86.1885 66.1294 89.4499C58.2557 92.7112 49.5918 93.5646 41.2331 91.9019C32.8745 90.2393 25.1966 86.1354 19.1703 80.1091C13.1441 74.0829 9.04017 66.405 7.37753 58.0463C5.7149 49.6877 6.56822 41.0237 9.8296 33.1501C13.091 25.2764 18.6139 18.5467 25.7001 13.8119C32.7862 9.07708 41.1172 6.5499 49.6396 6.5499C55.2983 6.54956 60.9017 7.66388 66.1298 9.82923C71.3579 11.9946 76.1082 15.1686 80.1096 19.1699C84.1109 23.1712 87.2849 27.9216 89.4502 33.1497C91.6156 38.3777 92.7299 43.9811 92.7296 49.6399V49.6399ZM49.6396 2.8099C58.9017 2.8099 67.9558 5.55643 75.6569 10.7022C83.3581 15.8479 89.3604 23.1618 92.9048 31.7188C96.4493 40.2759 97.3767 49.6918 95.5697 58.776C93.7628 67.8601 89.3027 76.2044 82.7534 82.7537C76.2041 89.303 67.8598 93.7631 58.7757 95.5701C49.6915 97.377 40.2756 96.4496 31.7185 92.9052C23.1614 89.3607 15.8476 83.3584 10.7018 75.6573C5.5561 67.9561 2.80957 58.902 2.80957 49.6399C2.81075 37.2202 7.74499 25.3095 16.5271 16.5274C25.3091 7.7453 37.2198 2.81105 49.6396 2.80986V2.8099Z" fill="#0078D4"/>
<path d="M67.0792 65.0818L32.201 65.0825C31.5379 65.085 30.9028 65.3508 30.4356 65.8214C29.9684 66.2921 29.7073 66.929 29.7097 67.5922V73.8664C29.7073 74.5296 29.9684 75.1666 30.4356 75.6372C30.9029 76.1079 31.5379 76.3737 32.201 76.3761H67.0792C67.7425 76.3735 68.3775 76.1076 68.8447 75.6368C69.3119 75.1661 69.573 74.529 69.5705 73.8658V67.5915C69.573 66.9284 69.3118 66.2914 68.8446 65.8208C68.3774 65.3501 67.7424 65.0843 67.0792 65.0818V65.0818Z" fill="url(#paint1_linear)"/>
<path fill-rule="evenodd" clip-rule="evenodd" d="M38.7945 71.5844C38.5609 71.3481 38.4299 71.0294 38.4299 70.6972C38.4299 70.365 38.5609 70.0462 38.7945 69.81C38.9098 69.6936 39.0469 69.6013 39.1981 69.5382C39.3493 69.4752 39.5114 69.4427 39.6752 69.4427C39.839 69.4427 40.0011 69.4752 40.1523 69.5382C40.3035 69.6013 40.4407 69.6936 40.5559 69.81C40.7896 70.0461 40.9207 70.3649 40.9207 70.6972C40.9207 71.0294 40.7896 71.3482 40.5559 71.5844C40.4407 71.7008 40.3035 71.7932 40.1524 71.8563C40.0012 71.9194 39.839 71.9519 39.6752 71.9519C39.5114 71.9519 39.3492 71.9194 39.198 71.8563C39.0469 71.7932 38.9097 71.7008 38.7945 71.5844V71.5844Z" fill="#0078D4"/>
<path fill-rule="evenodd" clip-rule="evenodd" d="M35.0619 71.5957C34.8284 71.3595 34.6975 71.0407 34.6975 70.7085C34.6975 70.3764 34.8284 70.0576 35.0619 69.8214C35.1772 69.705 35.3144 69.6126 35.4656 69.5496C35.6168 69.4865 35.779 69.4541 35.9429 69.4541C36.1067 69.4541 36.2689 69.4865 36.4201 69.5496C36.5713 69.6126 36.7086 69.705 36.8239 69.8214C37.0573 70.0576 37.1882 70.3764 37.1882 70.7085C37.1882 71.0407 37.0573 71.3594 36.8239 71.5957C36.7086 71.7122 36.5714 71.8046 36.4202 71.8677C36.2689 71.9308 36.1067 71.9632 35.9429 71.9632C35.779 71.9632 35.6168 71.9308 35.4656 71.8677C35.3144 71.8046 35.1771 71.7122 35.0619 71.5957Z" fill="#0078D4"/>
<path fill-rule="evenodd" clip-rule="evenodd" d="M49.6399 67.592V73.8663C49.6406 74.0305 49.6089 74.1932 49.5466 74.3451C49.4843 74.4971 49.3928 74.6353 49.2771 74.7518C49.1614 74.8683 49.0239 74.9609 48.8724 75.0243C48.7209 75.0877 48.5584 75.1206 48.3942 75.1212H30.0552C30.2705 75.5008 30.5824 75.8169 30.9592 76.0372C31.336 76.2576 31.7643 76.3745 32.2008 76.376H67.0791C67.7423 76.3734 68.3773 76.1074 68.8445 75.6367C69.3117 75.166 69.5728 74.5289 69.5704 73.8657V67.5914C69.5681 67.1502 69.449 66.7175 69.2253 66.3372H50.8855C50.7214 66.3378 50.5589 66.3707 50.4074 66.4341C50.2559 66.4974 50.1184 66.59 50.0028 66.7065C49.8871 66.8231 49.7955 66.9613 49.7332 67.1132C49.671 67.2651 49.6393 67.4278 49.6399 67.592V67.592Z" fill="url(#paint2_linear)"/>
<path d="M67.0792 53.7881H32.201C31.5379 53.7906 30.9028 54.0564 30.4356 54.527C29.9684 54.9977 29.7073 55.6346 29.7097 56.2978V62.572C29.7073 63.2352 29.9684 63.8722 30.4356 64.3428C30.9029 64.8135 31.5379 65.0793 32.201 65.0818H67.0792C67.7425 65.0791 68.3775 64.8132 68.8447 64.3424C69.3119 63.8717 69.573 63.2346 69.5705 62.5714V56.2972C69.5717 55.9688 69.5082 55.6435 69.3837 55.3397C69.2591 55.0359 69.0759 54.7596 68.8446 54.5266C68.6132 54.2936 68.3383 54.1085 68.0354 53.9818C67.7325 53.8551 67.4076 53.7892 67.0792 53.7881V53.7881Z" fill="url(#paint3_linear)"/>
<path fill-rule="evenodd" clip-rule="evenodd" d="M38.7945 60.2902C38.5609 60.054 38.4299 59.7352 38.4299 59.403C38.4299 59.0708 38.5609 58.7521 38.7945 58.5158C38.9098 58.3995 39.0469 58.3071 39.1981 58.2441C39.3493 58.181 39.5114 58.1486 39.6752 58.1486C39.839 58.1486 40.0011 58.181 40.1523 58.2441C40.3035 58.3071 40.4407 58.3995 40.5559 58.5158C40.7896 58.752 40.9207 59.0708 40.9207 59.403C40.9207 59.7353 40.7896 60.0541 40.5559 60.2902C40.4407 60.4067 40.3035 60.4991 40.1524 60.5622C40.0012 60.6253 39.839 60.6577 39.6752 60.6577C39.5114 60.6577 39.3492 60.6253 39.198 60.5622C39.0469 60.4991 38.9097 60.4067 38.7945 60.2902V60.2902Z" fill="#0078D4"/>
<path fill-rule="evenodd" clip-rule="evenodd" d="M35.0619 60.3016C34.8284 60.0653 34.6975 59.7465 34.6975 59.4144C34.6975 59.0822 34.8284 58.7635 35.0619 58.5272C35.1772 58.4108 35.3144 58.3184 35.4656 58.2554C35.6168 58.1924 35.779 58.1599 35.9429 58.1599C36.1067 58.1599 36.2689 58.1924 36.4201 58.2554C36.5713 58.3184 36.7086 58.4108 36.8239 58.5272C37.0573 58.7635 37.1882 59.0822 37.1882 59.4144C37.1882 59.7465 37.0573 60.0653 36.8239 60.3016C36.7086 60.418 36.5714 60.5105 36.4202 60.5735C36.2689 60.6366 36.1067 60.6691 35.9429 60.6691C35.779 60.6691 35.6168 60.6366 35.4656 60.5735C35.3144 60.5105 35.1771 60.418 35.0619 60.3016Z" fill="#0078D4"/>
<path fill-rule="evenodd" clip-rule="evenodd" d="M49.6399 56.2979V62.5721C49.6406 62.7363 49.6089 62.8991 49.5466 63.051C49.4843 63.2029 49.3928 63.3411 49.2771 63.4577C49.1614 63.5742 49.0239 63.6668 48.8724 63.7302C48.7209 63.7936 48.5584 63.8265 48.3942 63.827H30.0552C30.2705 64.2067 30.5824 64.5227 30.9592 64.7431C31.336 64.9634 31.7643 65.0803 32.2008 65.0818H67.0791C67.7423 65.0792 68.3773 64.8133 68.8445 64.3425C69.3117 63.8718 69.5728 63.2347 69.5704 62.5715V56.2972C69.5681 55.856 69.449 55.4233 69.2253 55.0431H50.8855C50.7214 55.0436 50.5589 55.0765 50.4074 55.1399C50.2559 55.2033 50.1184 55.2959 50.0028 55.4124C49.8871 55.5289 49.7955 55.6671 49.7332 55.819C49.671 55.971 49.6393 56.1337 49.6399 56.2979V56.2979Z" fill="url(#paint4_linear)"/>
<path d="M67.0792 42.4943H32.201C31.5379 42.4968 30.9029 42.7626 30.4357 43.2333C29.9685 43.7039 29.7073 44.3409 29.7097 45.004V51.2783C29.7073 51.9415 29.9685 52.5784 30.4357 53.0491C30.9029 53.5197 31.5379 53.7855 32.201 53.788H67.0792C67.7425 53.7854 68.3775 53.5195 68.8447 53.0487C69.3119 52.5779 69.573 51.9409 69.5705 51.2777V45.0034C69.5717 44.6751 69.5082 44.3497 69.3837 44.0459C69.2591 43.7421 69.0759 43.4659 68.8446 43.2329C68.6132 42.9999 68.3383 42.8147 68.0354 42.688C67.7325 42.5613 67.4076 42.4955 67.0792 42.4943V42.4943Z" fill="url(#paint5_linear)"/>
<path fill-rule="evenodd" clip-rule="evenodd" d="M38.7945 48.9964C38.5609 48.7602 38.4299 48.4415 38.4299 48.1093C38.4299 47.7771 38.5609 47.4583 38.7945 47.2221C38.9098 47.1057 39.0469 47.0133 39.1981 46.9503C39.3493 46.8873 39.5114 46.8548 39.6752 46.8548C39.839 46.8548 40.0011 46.8873 40.1523 46.9503C40.3035 47.0133 40.4407 47.1057 40.5559 47.2221C40.7896 47.4582 40.9207 47.777 40.9207 48.1093C40.9207 48.4415 40.7896 48.7603 40.5559 48.9964C40.4407 49.1129 40.3035 49.2053 40.1524 49.2684C40.0012 49.3315 39.839 49.364 39.6752 49.364C39.5114 49.364 39.3492 49.3315 39.198 49.2684C39.0469 49.2053 38.9097 49.1129 38.7945 48.9964V48.9964Z" fill="#0078D4"/>
<path fill-rule="evenodd" clip-rule="evenodd" d="M35.0619 49.0078C34.8284 48.7715 34.6975 48.4527 34.6975 48.1206C34.6975 47.7885 34.8284 47.4697 35.0619 47.2334C35.1772 47.117 35.3144 47.0247 35.4656 46.9616C35.6168 46.8986 35.779 46.8661 35.9429 46.8661C36.1067 46.8661 36.2689 46.8986 36.4201 46.9616C36.5713 47.0247 36.7086 47.117 36.8239 47.2334C37.0573 47.4697 37.1882 47.7885 37.1882 48.1206C37.1882 48.4527 37.0573 48.7715 36.8239 49.0078C36.7086 49.1242 36.5714 49.2167 36.4202 49.2797C36.2689 49.3428 36.1067 49.3753 35.9429 49.3753C35.779 49.3753 35.6168 49.3428 35.4656 49.2797C35.3144 49.2167 35.1771 49.1242 35.0619 49.0078V49.0078Z" fill="#0078D4"/>
<path fill-rule="evenodd" clip-rule="evenodd" d="M49.6399 45.0041V51.2784C49.6406 51.4426 49.6089 51.6053 49.5466 51.7572C49.4844 51.9092 49.3928 52.0474 49.2771 52.1639C49.1614 52.2804 49.0239 52.373 48.8724 52.4364C48.7209 52.4997 48.5584 52.5326 48.3942 52.5332H30.0552C30.2705 52.9129 30.5824 53.2289 30.9592 53.4493C31.336 53.6697 31.7643 53.7865 32.2008 53.7881H67.0791C67.7423 53.7855 68.3773 53.5195 68.8445 53.0488C69.3117 52.578 69.5728 51.941 69.5704 51.2777V45.0035C69.5681 44.5623 69.449 44.1296 69.2253 43.7493H50.8855C50.7214 43.7498 50.5589 43.7828 50.4074 43.8461C50.2559 43.9095 50.1184 44.0021 50.0028 44.1186C49.8871 44.2352 49.7955 44.3733 49.7333 44.5253C49.671 44.6772 49.6393 44.8399 49.6399 45.0041Z" fill="url(#paint6_linear)"/>
<path d="M67.0792 31.2007H32.201C31.5379 31.2031 30.9029 31.4689 30.4357 31.9396C29.9685 32.4102 29.7073 33.0472 29.7097 33.7104V39.9846C29.7073 40.6478 29.9685 41.2847 30.4357 41.7554C30.9029 42.2261 31.5379 42.4919 32.201 42.4943H67.0792C67.7425 42.4917 68.3775 42.2258 68.8447 41.755C69.3119 41.2843 69.573 40.6472 69.5705 39.984V33.7097C69.5717 33.3814 69.5082 33.0561 69.3837 32.7523C69.2591 32.4485 69.0759 32.1722 68.8446 31.9392C68.6132 31.7062 68.3383 31.5211 68.0354 31.3944C67.7325 31.2676 67.4076 31.2018 67.0792 31.2007V31.2007Z" fill="url(#paint7_linear)"/>
<path fill-rule="evenodd" clip-rule="evenodd" d="M38.7945 37.7027C38.5609 37.4665 38.4299 37.1477 38.4299 36.8155C38.4299 36.4833 38.5609 36.1645 38.7945 35.9283C38.9098 35.812 39.0469 35.7196 39.1981 35.6565C39.3493 35.5935 39.5114 35.5611 39.6752 35.5611C39.839 35.5611 40.0011 35.5935 40.1523 35.6565C40.3035 35.7196 40.4407 35.812 40.5559 35.9283C40.7896 36.1645 40.9207 36.4833 40.9207 36.8155C40.9207 37.1477 40.7896 37.4666 40.5559 37.7027C40.4407 37.8191 40.3035 37.9116 40.1524 37.9746C40.0012 38.0377 39.839 38.0702 39.6752 38.0702C39.5114 38.0702 39.3492 38.0377 39.198 37.9746C39.0469 37.9116 38.9097 37.8191 38.7945 37.7027V37.7027Z" fill="#0078D4"/>
<path fill-rule="evenodd" clip-rule="evenodd" d="M35.0619 37.714C34.8284 37.4777 34.6975 37.159 34.6975 36.8268C34.6975 36.4947 34.8284 36.1759 35.0619 35.9397C35.1772 35.8233 35.3144 35.7309 35.4656 35.6679C35.6168 35.6048 35.779 35.5724 35.9429 35.5724C36.1067 35.5724 36.2689 35.6048 36.4201 35.6679C36.5713 35.7309 36.7086 35.8233 36.8239 35.9397C37.0573 36.1759 37.1882 36.4947 37.1882 36.8268C37.1882 37.159 37.0573 37.4777 36.8239 37.714C36.7086 37.8305 36.5714 37.9229 36.4202 37.986C36.2689 38.0491 36.1067 38.0815 35.9429 38.0815C35.779 38.0815 35.6168 38.0491 35.4656 37.986C35.3144 37.9229 35.1771 37.8305 35.0619 37.714Z" fill="#0078D4"/>
<path fill-rule="evenodd" clip-rule="evenodd" d="M49.6399 33.7104V39.9846C49.6406 40.1488 49.6089 40.3115 49.5466 40.4635C49.4844 40.6154 49.3928 40.7536 49.2771 40.8701C49.1614 40.9866 49.0239 41.0792 48.8724 41.1426C48.7209 41.206 48.5584 41.2389 48.3942 41.2394H30.0552C30.2705 41.6191 30.5824 41.9351 30.9592 42.1555C31.336 42.3759 31.7643 42.4928 32.2008 42.4943H67.0791C67.7423 42.4917 68.3773 42.2258 68.8445 41.755C69.3117 41.2842 69.5728 40.6472 69.5704 39.984V33.7097C69.5681 33.2685 69.449 32.8358 69.2253 32.4555H50.8855C50.7214 32.4561 50.5589 32.489 50.4074 32.5524C50.2559 32.6157 50.1184 32.7083 50.0028 32.8249C49.8871 32.9414 49.7955 33.0796 49.7332 33.2315C49.671 33.3834 49.6393 33.5462 49.6399 33.7104V33.7104Z" fill="url(#paint8_linear)"/>
<path fill-rule="evenodd" clip-rule="evenodd" d="M64.5883 69.4744H57.1144C56.7832 69.4768 56.4665 69.6101 56.2331 69.8452C55.9998 70.0803 55.8689 70.398 55.8689 70.7292C55.8689 71.0604 55.9998 71.3782 56.2331 71.6133C56.4665 71.8483 56.7832 71.9816 57.1144 71.9841H64.5883C64.9195 71.9816 65.2363 71.8483 65.4696 71.6133C65.7029 71.3782 65.8338 71.0604 65.8338 70.7292C65.8338 70.398 65.7029 70.0803 65.4696 69.8452C65.2363 69.6101 64.9195 69.4768 64.5883 69.4744V69.4744Z" fill="#9CEBFF"/>
<path fill-rule="evenodd" clip-rule="evenodd" d="M64.5883 58.1802H57.1144C56.7831 58.1825 56.4661 58.3157 56.2327 58.5508C55.9992 58.7859 55.8682 59.1038 55.8682 59.4351C55.8682 59.7664 55.9992 60.0843 56.2327 60.3194C56.4661 60.5544 56.7831 60.6877 57.1144 60.6899H64.5883C64.9196 60.6877 65.2365 60.5544 65.47 60.3194C65.7035 60.0843 65.8345 59.7664 65.8345 59.4351C65.8345 59.1038 65.7035 58.7859 65.47 58.5508C65.2365 58.3157 64.9196 58.1825 64.5883 58.1802V58.1802Z" fill="#9CEBFF"/>
<path fill-rule="evenodd" clip-rule="evenodd" d="M64.5883 46.8865H57.1144C56.7831 46.8888 56.4661 47.022 56.2326 47.257C55.9992 47.4921 55.8682 47.81 55.8682 48.1413C55.8682 48.4726 55.9992 48.7905 56.2326 49.0256C56.4661 49.2607 56.7831 49.3939 57.1144 49.3962H64.5883C64.9196 49.3939 65.2365 49.2607 65.47 49.0256C65.7035 48.7905 65.8345 48.4726 65.8345 48.1413C65.8345 47.81 65.7035 47.4921 65.47 47.257C65.2365 47.022 64.9196 46.8888 64.5883 46.8865Z" fill="#9CEBFF"/>
<path fill-rule="evenodd" clip-rule="evenodd" d="M64.5883 35.5927H57.1144C56.7832 35.5952 56.4665 35.7285 56.2331 35.9635C55.9998 36.1986 55.8689 36.5164 55.8689 36.8476C55.8689 37.1787 55.9998 37.4965 56.2331 37.7316C56.4665 37.9666 56.7832 38.0999 57.1144 38.1024H64.5883C64.9195 38.0999 65.2363 37.9666 65.4696 37.7316C65.7029 37.4965 65.8338 37.1787 65.8338 36.8476C65.8338 36.5164 65.7029 36.1986 65.4696 35.9635C65.2363 35.7285 64.9195 35.5952 64.5883 35.5927V35.5927Z" fill="#9CEBFF"/>
<path fill-rule="evenodd" clip-rule="evenodd" d="M40.0926 71.118C39.9002 71.3116 39.6492 71.4361 39.3787 71.4719C39.1081 71.5078 38.8333 71.4531 38.5972 71.3163C38.689 71.4854 38.8194 71.6305 38.9777 71.7398C39.136 71.8492 39.3178 71.9198 39.5085 71.9459C39.6991 71.9719 39.8932 71.9528 40.0751 71.89C40.257 71.8271 40.4215 71.7224 40.5554 71.5842C40.7891 71.3481 40.9202 71.0292 40.9202 70.697C40.9202 70.3648 40.7891 70.046 40.5554 69.8098C40.476 69.7321 40.3865 69.6655 40.2894 69.6116C40.4251 69.8498 40.4793 70.1259 40.4438 70.3978C40.4083 70.6697 40.285 70.9226 40.0926 71.118Z" fill="#003067"/>
<path fill-rule="evenodd" clip-rule="evenodd" d="M36.3604 71.1296C36.1681 71.3232 35.917 71.4476 35.6465 71.4835C35.3759 71.5194 35.1011 71.4646 34.865 71.3278C34.9569 71.4969 35.0873 71.6421 35.2456 71.7515C35.404 71.8609 35.5859 71.9315 35.7766 71.9576C35.9673 71.9836 36.1614 71.9645 36.3434 71.9016C36.5253 71.8388 36.6899 71.734 36.8238 71.5957C36.9621 71.4606 37.0669 71.2949 37.1298 71.112C37.1928 70.9292 37.212 70.7341 37.1861 70.5424C37.1602 70.3508 37.0899 70.1678 36.9807 70.0082C36.8715 69.8486 36.7265 69.7167 36.5572 69.6231C36.6932 69.8613 36.7476 70.1374 36.7121 70.4094C36.6766 70.6814 36.553 70.9343 36.3604 71.1296V71.1296Z" fill="#003067"/>
<path fill-rule="evenodd" clip-rule="evenodd" d="M40.0926 59.8239C39.9001 60.0173 39.6491 60.1417 39.3786 60.1775C39.1081 60.2134 38.8334 60.1588 38.5972 60.0222C38.689 60.1912 38.8194 60.3363 38.9777 60.4457C39.136 60.5551 39.3178 60.6257 39.5085 60.6517C39.6991 60.6778 39.8932 60.6587 40.0751 60.5958C40.257 60.533 40.4215 60.4283 40.5554 60.2901C40.7891 60.0539 40.9202 59.7351 40.9202 59.4029C40.9202 59.0706 40.7891 58.7518 40.5554 58.5157C40.4762 58.4378 40.3867 58.3711 40.2894 58.3174C40.4251 58.5557 40.4793 58.8318 40.4438 59.1037C40.4083 59.3756 40.285 59.6285 40.0926 59.8239V59.8239Z" fill="#003067"/>
<path fill-rule="evenodd" clip-rule="evenodd" d="M36.3604 59.8354C36.1681 60.029 35.917 60.1535 35.6465 60.1894C35.3759 60.2252 35.1011 60.1705 34.865 60.0337C34.9569 60.2028 35.0873 60.3479 35.2456 60.4573C35.404 60.5667 35.5859 60.6373 35.7766 60.6634C35.9673 60.6895 36.1614 60.6703 36.3434 60.6075C36.5253 60.5446 36.6899 60.4398 36.8238 60.3016C36.9621 60.1664 37.0669 60.0008 37.1298 59.8179C37.1927 59.635 37.212 59.4399 37.1861 59.2483C37.1602 59.0566 37.0899 58.8737 36.9807 58.7141C36.8715 58.5544 36.7265 58.4225 36.5572 58.3289C36.6932 58.5671 36.7476 58.8433 36.7121 59.1153C36.6765 59.3872 36.553 59.6401 36.3604 59.8354V59.8354Z" fill="#003067"/>
<path fill-rule="evenodd" clip-rule="evenodd" d="M40.0926 48.5301C39.9002 48.7235 39.6491 48.8479 39.3786 48.8838C39.1081 48.9196 38.8334 48.865 38.5972 48.7284C38.689 48.8974 38.8194 49.0425 38.9777 49.1519C39.136 49.2613 39.3178 49.3319 39.5085 49.3579C39.6991 49.384 39.8932 49.3649 40.0751 49.3021C40.257 49.2392 40.4215 49.1345 40.5554 48.9963C40.7891 48.7601 40.9202 48.4413 40.9202 48.1091C40.9202 47.7769 40.7891 47.458 40.5554 47.2219C40.4762 47.144 40.3867 47.0773 40.2894 47.0236C40.4251 47.2619 40.4793 47.538 40.4438 47.8099C40.4083 48.0818 40.285 48.3347 40.0926 48.5301V48.5301Z" fill="#003067"/>
<path fill-rule="evenodd" clip-rule="evenodd" d="M36.3604 48.5416C36.168 48.7352 35.917 48.8597 35.6465 48.8955C35.3759 48.9314 35.1011 48.8767 34.865 48.7399C34.9569 48.909 35.0873 49.0541 35.2456 49.1635C35.404 49.2729 35.5859 49.3435 35.7766 49.3696C35.9673 49.3957 36.1614 49.3765 36.3434 49.3137C36.5253 49.2508 36.6899 49.146 36.8238 49.0078C36.9621 48.8726 37.0669 48.707 37.1298 48.5241C37.1927 48.3412 37.212 48.1462 37.1861 47.9545C37.1602 47.7629 37.0899 47.5799 36.9807 47.4203C36.8715 47.2607 36.7265 47.1288 36.5572 47.0352C36.6932 47.2734 36.7476 47.5495 36.712 47.8215C36.6765 48.0934 36.553 48.3463 36.3604 48.5416V48.5416Z" fill="#003067"/>
<path fill-rule="evenodd" clip-rule="evenodd" d="M40.0926 37.2363C39.9002 37.4298 39.6491 37.5541 39.3786 37.59C39.1081 37.6259 38.8334 37.5712 38.5972 37.4346C38.689 37.6037 38.8194 37.7488 38.9777 37.8581C39.136 37.9675 39.3178 38.0381 39.5085 38.0642C39.6991 38.0903 39.8932 38.0711 40.0751 38.0083C40.257 37.9455 40.4215 37.8407 40.5554 37.7025C40.7891 37.4664 40.9202 37.1476 40.9202 36.8153C40.9202 36.4831 40.7891 36.1643 40.5554 35.9281C40.4762 35.8503 40.3867 35.7836 40.2894 35.7299C40.4251 35.9682 40.4793 36.2442 40.4438 36.5161C40.4083 36.788 40.285 37.0409 40.0926 37.2363V37.2363Z" fill="#003067"/>
<path fill-rule="evenodd" clip-rule="evenodd" d="M36.3604 37.2478C36.1681 37.4414 35.917 37.5659 35.6465 37.6018C35.3759 37.6376 35.1011 37.5829 34.865 37.4461C34.9569 37.6152 35.0873 37.7604 35.2456 37.8698C35.404 37.9792 35.5859 38.0497 35.7766 38.0758C35.9673 38.1019 36.1614 38.0827 36.3434 38.0199C36.5253 37.957 36.6899 37.8523 36.8238 37.714C36.9621 37.5789 37.0669 37.4132 37.1298 37.2303C37.1928 37.0474 37.212 36.8524 37.1861 36.6607C37.1602 36.4691 37.0899 36.2861 36.9807 36.1265C36.8715 35.9669 36.7265 35.835 36.5572 35.7414C36.6932 35.9796 36.7476 36.2557 36.7121 36.5277C36.6765 36.7997 36.553 37.0526 36.3604 37.2478V37.2478Z" fill="#003067"/>
<path fill-rule="evenodd" clip-rule="evenodd" d="M57.1143 70.1018H64.5883C64.8646 70.1031 65.1326 70.1963 65.3501 70.3667C65.5676 70.5371 65.7223 70.775 65.7897 71.043C65.8404 70.8584 65.8477 70.6647 65.8111 70.4769C65.7745 70.289 65.6948 70.1122 65.5785 69.9603C65.4621 69.8084 65.3122 69.6855 65.1404 69.6012C64.9686 69.5169 64.7796 69.4735 64.5883 69.4744H57.1143C56.923 69.4735 56.7341 69.517 56.5623 69.6013C56.3905 69.6856 56.2406 69.8085 56.1243 69.9604C56.0079 70.1123 55.9283 70.2891 55.8916 70.4769C55.855 70.6647 55.8623 70.8584 55.9129 71.043C55.9803 70.775 56.135 70.5371 56.3525 70.3667C56.57 70.1963 56.838 70.1031 57.1143 70.1018Z" fill="#50E6FF"/>
<path fill-rule="evenodd" clip-rule="evenodd" d="M57.1143 58.8077H64.5883C64.8646 58.8089 65.1326 58.9021 65.3501 59.0725C65.5676 59.2429 65.7223 59.4808 65.7897 59.7488C65.8404 59.5643 65.8477 59.3705 65.8111 59.1827C65.7745 58.9949 65.6948 58.8181 65.5785 58.6662C65.4621 58.5143 65.3122 58.3913 65.1404 58.307C64.9686 58.2227 64.7796 58.1793 64.5883 58.1802H57.1143C56.923 58.1794 56.7341 58.2228 56.5623 58.3071C56.3905 58.3915 56.2406 58.5144 56.1243 58.6663C56.0079 58.8182 55.9283 58.995 55.8916 59.1828C55.855 59.3706 55.8623 59.5643 55.9129 59.7488C55.9803 59.4808 56.135 59.2429 56.3525 59.0725C56.57 58.9021 56.838 58.8089 57.1143 58.8077V58.8077Z" fill="#50E6FF"/>
<path fill-rule="evenodd" clip-rule="evenodd" d="M57.1143 47.5139H64.5883C64.8646 47.5152 65.1326 47.6083 65.3501 47.7787C65.5676 47.9491 65.7223 48.1871 65.7897 48.455C65.8404 48.2705 65.8477 48.0768 65.8111 47.8889C65.7745 47.7011 65.6948 47.5243 65.5785 47.3724C65.4621 47.2205 65.3122 47.0976 65.1404 47.0133C64.9686 46.929 64.7796 46.8856 64.5883 46.8865H57.1143C56.923 46.8856 56.7341 46.9291 56.5623 47.0134C56.3905 47.0977 56.2406 47.2206 56.1243 47.3725C56.0079 47.5244 55.9283 47.7012 55.8916 47.889C55.855 48.0768 55.8623 48.2705 55.9129 48.455C55.9803 48.1871 56.135 47.9491 56.3525 47.7787C56.57 47.6083 56.838 47.5152 57.1143 47.5139V47.5139Z" fill="#50E6FF"/>
<path fill-rule="evenodd" clip-rule="evenodd" d="M57.1143 36.2201H64.5883C64.8646 36.2214 65.1326 36.3146 65.3501 36.485C65.5676 36.6554 65.7223 36.8933 65.7897 37.1613C65.8404 36.9767 65.8477 36.783 65.8111 36.5952C65.7745 36.4073 65.6948 36.2306 65.5785 36.0786C65.4621 35.9267 65.3122 35.8038 65.1404 35.7195C64.9686 35.6352 64.7796 35.5918 64.5883 35.5927H57.1143C56.923 35.5918 56.7341 35.6353 56.5623 35.7196C56.3905 35.8039 56.2406 35.9268 56.1243 36.0788C56.0079 36.2307 55.9283 36.4074 55.8916 36.5952C55.855 36.783 55.8623 36.9768 55.9129 37.1613C55.9803 36.8933 56.135 36.6554 56.3525 36.485C56.57 36.3146 56.838 36.2214 57.1143 36.2201V36.2201Z" fill="#50E6FF"/>
<path opacity="0.2" d="M48.3274 51.1867C48.7368 51.3843 49.1853 51.4876 49.6399 51.4889C50.1057 51.4885 50.565 51.3788 50.9807 51.1686C60.4774 46.3948 64.7877 40.2188 64.9238 31.2007H34.355C34.4911 40.2213 38.8018 46.3989 48.3274 51.1867Z" fill="#003067"/>
<path d="M61.9509 21.8968C56.28 21.8968 52.4968 20.7196 50.3815 18.2932C50.2862 18.1921 50.1711 18.1115 50.0435 18.0564C49.9159 18.0014 49.7783 17.9729 49.6393 17.9729C49.5003 17.9729 49.3628 18.0014 49.2351 18.0564C49.1075 18.1115 48.9925 18.1921 48.8971 18.2932C46.7819 20.7196 42.9987 21.8968 37.3279 21.8968C37.1985 21.8968 37.0703 21.9222 36.9506 21.9717C36.831 22.0213 36.7223 22.0939 36.6308 22.1854C36.5393 22.277 36.4667 22.3856 36.4172 22.5053C36.3677 22.6249 36.3422 22.7531 36.3423 22.8825V30.7643C36.3423 39.2846 40.1852 44.8556 49.1963 49.3852C49.3343 49.4528 49.4858 49.4883 49.6394 49.4889C49.7935 49.4888 49.9454 49.4519 50.0824 49.3812C59.0935 44.8517 62.9366 39.2846 62.9366 30.7643V22.8825C62.936 22.6213 62.832 22.3709 62.6473 22.1861C62.4625 22.0014 62.2121 21.8974 61.9509 21.8968Z" fill="url(#paint9_linear)"/>
<path d="M49.6165 18.9602C51.9089 21.5899 55.8796 22.883 61.7244 22.883C61.7897 22.883 61.8557 22.8829 61.9215 22.8825V30.7643C61.9215 38.8459 58.2445 44.1424 49.6522 48.4783C41.0343 44.1464 37.3573 38.8487 37.3573 30.7643L37.328 22.9118C43.3097 22.9118 47.3442 21.6192 49.6259 18.9896L49.6394 18.9879L49.6164 18.9602H49.6165ZM49.6394 17.973C49.5001 17.9707 49.3618 17.9981 49.2339 18.0533C49.1059 18.1085 48.9912 18.1903 48.8972 18.2932C46.782 20.7196 42.9988 21.8968 37.328 21.8968C37.1985 21.8968 37.0703 21.9222 36.9507 21.9717C36.8311 22.0213 36.7224 22.0939 36.6309 22.1854C36.5393 22.2769 36.4667 22.3856 36.4172 22.5053C36.3677 22.6249 36.3422 22.7531 36.3423 22.8825V30.7643C36.3423 39.2846 40.1853 44.8556 49.1964 49.3852C49.3343 49.4528 49.4858 49.4882 49.6394 49.4889C49.7936 49.4888 49.9454 49.4519 50.0824 49.3812C59.0935 44.8517 62.9365 39.2846 62.9365 30.7643V22.8825C62.936 22.6213 62.832 22.3709 62.6473 22.1862C62.4626 22.0014 62.2122 21.8974 61.9509 21.8968C56.28 21.8968 52.4968 20.7196 50.3816 18.2932C50.2876 18.1903 50.1729 18.1085 50.0449 18.0533C49.917 17.9981 49.7788 17.9707 49.6394 17.973H49.6394Z" fill="url(#paint10_linear)"/>
<path fill-rule="evenodd" clip-rule="evenodd" d="M55.2046 30.2776C54.9652 30.0385 54.6407 29.9041 54.3023 29.9041C53.9639 29.9041 53.6394 30.0385 53.4 30.2776L49.1937 34.4809L47.6744 32.9761C47.6389 32.9233 47.5987 32.8738 47.5545 32.8282C47.3167 32.5901 46.9945 32.4556 46.658 32.454C46.3215 32.4525 45.9981 32.584 45.7582 32.8199C45.5182 33.0559 45.3813 33.3771 45.3773 33.7136C45.3732 34.05 45.5024 34.3745 45.7365 34.6161L45.7212 34.6314L48.2953 37.182C48.5348 37.4211 48.8594 37.5554 49.1979 37.5554C49.5363 37.5554 49.8609 37.4211 50.1004 37.182L55.2008 32.084L55.2046 32.0809C55.3231 31.9626 55.4171 31.822 55.4812 31.6673C55.5453 31.5126 55.5783 31.3468 55.5783 31.1793C55.5783 31.0118 55.5453 30.846 55.4812 30.6913C55.4171 30.5366 55.3231 30.396 55.2046 30.2776V30.2776Z" fill="white"/>
</g>
<defs>
<linearGradient id="paint0_linear" x1="47.8697" y1="-15.1532" x2="51.8525" y2="130.615" gradientUnits="userSpaceOnUse">
<stop stop-color="#00ABDE"/>
<stop offset="1" stop-color="#007ED8"/>
</linearGradient>
<linearGradient id="paint1_linear" x1="49.6401" y1="65.0818" x2="49.6401" y2="76.3964" gradientUnits="userSpaceOnUse">
<stop stop-color="#005BA1"/>
<stop offset="0.26" stop-color="#00589D"/>
<stop offset="0.53" stop-color="#004F90"/>
<stop offset="0.8" stop-color="#003F7C"/>
<stop offset="1" stop-color="#003067"/>
</linearGradient>
<linearGradient id="paint2_linear" x1="49.8128" y1="66.3372" x2="49.8128" y2="76.376" gradientUnits="userSpaceOnUse">
<stop stop-color="#008BF1"/>
<stop offset="0.22" stop-color="#0086EC"/>
<stop offset="0.49" stop-color="#0078DD"/>
<stop offset="0.79" stop-color="#0061C4"/>
<stop offset="1" stop-color="#004DAE"/>
</linearGradient>
<linearGradient id="paint3_linear" x1="49.6401" y1="53.7881" x2="49.6401" y2="65.102" gradientUnits="userSpaceOnUse">
<stop stop-color="#005BA1"/>
<stop offset="0.26" stop-color="#00589D"/>
<stop offset="0.53" stop-color="#004F90"/>
<stop offset="0.8" stop-color="#003F7C"/>
<stop offset="1" stop-color="#003067"/>
</linearGradient>
<linearGradient id="paint4_linear" x1="49.8128" y1="55.0431" x2="49.8128" y2="65.0819" gradientUnits="userSpaceOnUse">
<stop stop-color="#008BF1"/>
<stop offset="0.22" stop-color="#0086EC"/>
<stop offset="0.49" stop-color="#0078DD"/>
<stop offset="0.79" stop-color="#0061C4"/>
<stop offset="1" stop-color="#004DAE"/>
</linearGradient>
<linearGradient id="paint5_linear" x1="49.6401" y1="42.4943" x2="49.6401" y2="53.8082" gradientUnits="userSpaceOnUse">
<stop stop-color="#005BA1"/>
<stop offset="0.26" stop-color="#00589D"/>
<stop offset="0.53" stop-color="#004F90"/>
<stop offset="0.8" stop-color="#003F7C"/>
<stop offset="1" stop-color="#003067"/>
</linearGradient>
<linearGradient id="paint6_linear" x1="49.8128" y1="43.7493" x2="49.8128" y2="53.7881" gradientUnits="userSpaceOnUse">
<stop stop-color="#008BF1"/>
<stop offset="0.22" stop-color="#0086EC"/>
<stop offset="0.49" stop-color="#0078DD"/>
<stop offset="0.79" stop-color="#0061C4"/>
<stop offset="1" stop-color="#004DAE"/>
</linearGradient>
<linearGradient id="paint7_linear" x1="49.6401" y1="31.2007" x2="49.6401" y2="42.5146" gradientUnits="userSpaceOnUse">
<stop stop-color="#005BA1"/>
<stop offset="0.26" stop-color="#00589D"/>
<stop offset="0.53" stop-color="#004F90"/>
<stop offset="0.8" stop-color="#003F7C"/>
<stop offset="1" stop-color="#003067"/>
</linearGradient>
<linearGradient id="paint8_linear" x1="49.8128" y1="32.4555" x2="49.8128" y2="42.4943" gradientUnits="userSpaceOnUse">
<stop stop-color="#008BF1"/>
<stop offset="0.22" stop-color="#0086EC"/>
<stop offset="0.49" stop-color="#0078DD"/>
<stop offset="0.79" stop-color="#0061C4"/>
<stop offset="1" stop-color="#004DAE"/>
</linearGradient>
<linearGradient id="paint9_linear" x1="49.6394" y1="49.4889" x2="49.6394" y2="17.9729" gradientUnits="userSpaceOnUse">
<stop stop-color="#008BF1"/>
<stop offset="0.99498" stop-color="#0078D4"/>
</linearGradient>
<linearGradient id="paint10_linear" x1="49.6394" y1="17.9728" x2="49.6394" y2="49.489" gradientUnits="userSpaceOnUse">
<stop stop-color="#008BF1"/>
<stop offset="0.22" stop-color="#0086EC"/>
<stop offset="0.49" stop-color="#0078DD"/>
<stop offset="0.79" stop-color="#0061C4"/>
<stop offset="1" stop-color="#004DAE"/>
</linearGradient>
<clipPath id="clip0">
<rect width="99.2799" height="99.28" fill="white"/>
</clipPath>
</defs>
</svg>
