<svg width="100" height="100" viewBox="0 0 100 100" fill="none" xmlns="http://www.w3.org/2000/svg">
<g clip-path="url(#clip0)">
<path d="M49.6401 96.4501C40.382 96.4501 31.3317 93.7047 23.6339 88.5612C15.936 83.4176 9.93624 76.1069 6.3933 67.5535C2.85036 59.0001 1.92337 49.5882 3.72954 40.5079C5.53571 31.4277 9.99394 23.0869 16.5404 16.5404C23.0869 9.99394 31.4277 5.53571 40.5079 3.72954C49.5882 1.92337 59.0001 2.85036 67.5535 6.3933C76.1069 9.93624 83.4176 15.936 88.5612 23.6339C93.7047 31.3317 96.4501 40.382 96.4501 49.6401C96.4505 55.7874 95.24 61.8746 92.8878 67.554C90.5355 73.2335 87.0875 78.3939 82.7407 82.7407C78.3939 87.0875 73.2335 90.5355 67.554 92.8878C61.8746 95.24 55.7874 96.4505 49.6401 96.4501V96.4501Z" fill="url(#paint0_linear)"/>
<path fill-rule="evenodd" clip-rule="evenodd" d="M95.54 49.64C95.54 58.7182 92.848 67.5924 87.8045 75.1407C82.7609 82.6889 75.5923 88.572 67.2052 92.0461C58.818 95.5201 49.5891 96.4291 40.6854 94.658C31.7816 92.887 23.603 88.5154 17.1838 82.0962C10.7646 75.677 6.39302 67.4984 4.62196 58.5946C2.85089 49.6909 3.75987 40.462 7.23393 32.0748C10.708 23.6877 16.5911 16.5191 24.1393 11.4755C31.6875 6.43198 40.5618 3.73999 49.64 3.73999C55.6677 3.73997 61.6363 4.92719 67.2052 7.23387C72.774 9.54056 77.834 12.9215 82.0963 17.1837C86.3585 21.446 89.7394 26.5059 92.0461 32.0748C94.3528 37.6436 95.54 43.6123 95.54 49.64V49.64ZM49.64 3.62732e-07C59.4579 3.62732e-07 69.0552 2.91134 77.2185 8.36585C85.3818 13.8204 91.7442 21.5731 95.5014 30.6436C99.2585 39.7141 100.242 49.6951 98.3262 59.3243C96.4108 68.9535 91.6831 77.7985 84.7408 84.7408C77.7985 91.6831 68.9535 96.4108 59.3243 98.3262C49.6951 100.242 39.7141 99.2585 30.6436 95.5014C21.5731 91.7442 13.8204 85.3818 8.36584 77.2185C2.91133 69.0552 -1.61629e-06 59.4579 3.61524e-07 49.64C-0.000786426 43.1209 1.28265 36.6656 3.77702 30.6427C6.27138 24.6197 9.92781 19.1471 14.5375 14.5375C19.1471 9.9278 24.6197 6.27138 30.6427 3.77701C36.6656 1.28265 43.121 -0.000787738 49.64 3.62732e-07V3.62732e-07Z" fill="#F2F1F0"/>
<path fill-rule="evenodd" clip-rule="evenodd" d="M92.7296 49.6401C92.7296 58.1625 90.2024 66.4935 85.4676 73.5796C80.7328 80.6657 74.0031 86.1886 66.1294 89.45C58.2558 92.7114 49.5918 93.5647 41.2332 91.9021C32.8745 90.2395 25.1966 86.1355 19.1704 80.1093C13.1441 74.083 9.0402 66.4051 7.37756 58.0465C5.71493 49.6879 6.56825 41.0239 9.82963 33.1502C13.091 25.2766 18.614 18.5468 25.7001 13.812C32.7862 9.07724 41.1172 6.55006 49.6396 6.55006C55.2984 6.54971 60.9018 7.66404 66.1298 9.82939C71.3579 11.9947 76.1083 15.1687 80.1096 19.1701C84.1109 23.1714 87.2849 27.9217 89.4503 33.1498C91.6156 38.3779 92.7299 43.9813 92.7296 49.6401ZM49.6396 2.81006C58.9017 2.81006 67.9558 5.55659 75.657 10.7023C83.3581 15.8481 89.3604 23.1619 92.9049 31.719C96.4493 40.2761 97.3767 49.692 95.5698 58.7761C93.7628 67.8603 89.3027 76.2046 82.7534 82.7539C76.2041 89.3032 67.8598 93.7633 58.7757 95.5702C49.6916 97.3772 40.2756 96.4498 31.7185 92.9053C23.1615 89.3609 15.8476 83.3586 10.7019 75.6574C5.55613 67.9563 2.8096 58.9022 2.8096 49.6401C2.81079 37.2203 7.74504 25.3096 16.5271 16.5276C25.3092 7.7455 37.2199 2.81125 49.6396 2.81006V2.81006Z" fill="#0078D4"/>
<path fill-rule="evenodd" clip-rule="evenodd" d="M92.7295 49.6401C92.7295 58.1625 90.2023 66.4935 85.4675 73.5796C80.7327 80.6657 74.003 86.1887 66.1293 89.4501C58.2556 92.7114 49.5917 93.5648 41.233 91.9021C32.8744 90.2395 25.1965 86.1356 19.1702 80.1093C13.144 74.0831 9.04008 66.4052 7.37744 58.0465C5.7148 49.6879 6.56813 41.0239 9.82951 33.1503C13.0909 25.2766 18.6138 18.5469 25.7 13.8121C32.7861 9.07728 41.1171 6.5501 49.6395 6.5501C55.2982 6.54975 60.9016 7.66408 66.1297 9.82943C71.3578 11.9948 76.1081 15.1688 80.1095 19.1701C84.1108 23.1714 87.2848 27.9218 89.4501 33.1499C91.6155 38.3779 92.7298 43.9813 92.7295 49.6401V49.6401ZM49.6395 2.8101C58.9016 2.8101 67.9557 5.55663 75.6568 10.7024C83.358 15.8481 89.3603 23.162 92.9048 31.719C96.4492 40.2761 97.3766 49.692 95.5696 58.7762C93.7627 67.8603 89.3026 76.2046 82.7533 82.7539C76.204 89.3032 67.8597 93.7633 58.7756 95.5703C49.6914 97.3772 40.2755 96.4498 31.7184 92.9054C23.1614 89.3609 15.8475 83.3586 10.7018 75.6575C5.55601 67.9563 2.80948 58.9022 2.80948 49.6401C2.81066 37.2204 7.7449 25.3097 16.527 16.5276C25.309 7.7455 37.2197 2.81125 49.6395 2.81006V2.8101Z" fill="#0078D4"/>
<path opacity="0.2" fill-rule="evenodd" clip-rule="evenodd" d="M65.1717 65.687C57.7485 65.687 51.5131 67.6481 49.6394 70.3148C47.7658 67.6481 41.5308 65.687 34.1072 65.687C25.2039 65.687 17.9852 68.5044 17.9852 71.9821C17.9852 75.4597 25.2039 78.277 34.1072 78.277C41.5308 78.277 47.7658 76.316 49.6394 73.6494C51.5131 76.316 57.7485 78.277 65.1717 78.277C74.0757 78.277 81.2938 75.4597 81.2938 71.9821C81.2937 68.5044 74.0758 65.687 65.1717 65.687Z" fill="#003067"/>
<path d="M34.1072 69.6108C26.9335 69.6108 21.1173 67.4443 21.1173 64.77V71.2244C21.1173 73.8986 26.9335 76.0651 34.1072 76.0651C41.2813 76.0651 47.0969 73.8986 47.0969 71.2244V64.77C47.097 67.4443 41.2813 69.6108 34.1072 69.6108Z" fill="url(#paint1_linear)"/>
<path d="M34.1072 71.7444V73.8942C34.1063 74.0395 34.0762 74.1832 34.0187 74.3166C33.9613 74.4501 33.8776 74.5706 33.7726 74.6711C33.6676 74.7716 33.5436 74.85 33.4077 74.9016C33.2719 74.9532 33.1271 74.977 32.9819 74.9716C26.335 74.7591 21.1173 72.6814 21.1173 70.1486V71.2244C21.1173 73.8986 26.9335 76.0651 34.1072 76.0651C41.2813 76.0651 47.0969 73.8986 47.0969 71.2244V65.8457C47.0969 68.3893 41.8366 70.4735 35.1496 70.6709C34.8705 70.6794 34.6056 70.7963 34.411 70.9966C34.2165 71.197 34.1075 71.4652 34.1072 71.7444V71.7444Z" fill="url(#paint2_linear)"/>
<path d="M34.1071 69.7388C41.2802 69.7388 47.0952 67.5393 47.0952 64.8262C47.0952 62.113 41.2802 59.9136 34.1071 59.9136C26.9339 59.9136 21.119 62.113 21.119 64.8262C21.119 67.5393 26.9339 69.7388 34.1071 69.7388Z" fill="#003067"/>
<path d="M34.1072 60.4672C26.9335 60.4672 21.1173 58.3007 21.1173 55.6265V62.0808C21.1173 64.7551 26.9335 66.9216 34.1072 66.9216C41.2813 66.9216 47.0969 64.7551 47.0969 62.0808V55.6265C47.097 58.3007 41.2813 60.4672 34.1072 60.4672Z" fill="url(#paint3_linear)"/>
<path d="M34.1072 62.6009V64.7507C34.1063 64.896 34.0762 65.0397 34.0187 65.1731C33.9613 65.3066 33.8776 65.4271 33.7726 65.5276C33.6677 65.6281 33.5436 65.7065 33.4078 65.7581C33.2719 65.8097 33.1271 65.8335 32.9819 65.8281C26.335 65.6157 21.1173 63.5379 21.1173 61.0051V62.0808C21.1173 64.7551 26.9335 66.9216 34.1072 66.9216C41.2813 66.9216 47.0969 64.7551 47.0969 62.0808V56.7021C47.0969 59.2457 41.8366 61.3299 35.1496 61.5273C34.8705 61.5359 34.6056 61.6527 34.411 61.8531C34.2165 62.0534 34.1075 62.3216 34.1072 62.6009V62.6009Z" fill="url(#paint4_linear)"/>
<path d="M34.1071 60.5865C41.2802 60.5865 47.0952 58.387 47.0952 55.6738C47.0952 52.9607 41.2802 50.7612 34.1071 50.7612C26.9339 50.7612 21.119 52.9607 21.119 55.6738C21.119 58.387 26.9339 60.5865 34.1071 60.5865Z" fill="#003067"/>
<path d="M34.1072 51.3237C26.9335 51.3237 21.1173 49.1572 21.1173 46.4829V52.9373C21.1173 55.6115 26.9335 57.778 34.1072 57.778C41.2813 57.778 47.0969 55.6115 47.0969 52.9373V46.4829C47.097 49.1572 41.2813 51.3237 34.1072 51.3237Z" fill="url(#paint5_linear)"/>
<path d="M34.1072 53.4573V55.6071C34.1063 55.7524 34.0762 55.8961 34.0187 56.0295C33.9613 56.163 33.8776 56.2835 33.7726 56.384C33.6676 56.4845 33.5436 56.5629 33.4077 56.6145C33.2719 56.6661 33.1271 56.6899 32.9819 56.6845C26.335 56.472 21.1173 54.3943 21.1173 51.8615V52.9372C21.1173 55.6115 26.9335 57.778 34.1072 57.778C41.2813 57.778 47.0969 55.6115 47.0969 52.9372V47.5586C47.0969 50.1022 41.8366 52.1864 35.1496 52.3837C34.8705 52.3923 34.6056 52.5091 34.411 52.7095C34.2165 52.9098 34.1075 53.178 34.1072 53.4573Z" fill="url(#paint6_linear)"/>
<path fill-rule="evenodd" clip-rule="evenodd" d="M46.5157 46.5227C46.5157 49.1993 40.9604 51.3677 34.1073 51.3677C27.2547 51.3677 21.6988 49.1993 21.6988 46.5227C21.6988 43.8461 27.2547 41.6777 34.1073 41.6777C40.9604 41.6777 46.5157 43.8461 46.5157 46.5227Z" fill="#003067"/>
<path d="M34.1071 51.9734C26.8098 51.9734 21.094 49.5792 21.094 46.5228C21.094 43.4665 26.8098 41.0723 34.1071 41.0723C41.4043 41.0723 47.1216 43.4665 47.1216 46.5228C47.1216 49.5791 41.4043 51.9734 34.1071 51.9734ZM34.1071 42.2834C27.1522 42.2834 22.3051 44.5174 22.3051 46.5228C22.3051 48.5283 27.1523 50.7623 34.1071 50.7623C41.0634 50.7623 45.9106 48.5283 45.9106 46.5228C45.9106 44.5174 41.0634 42.2834 34.1071 42.2834V42.2834Z" fill="url(#paint7_linear)"/>
<path opacity="0.2" d="M52.0154 20.4571C52.0154 20.9271 51.8761 21.3864 51.615 21.7772C51.3539 22.1679 50.9828 22.4724 50.5487 22.6523C50.1145 22.8321 49.6368 22.8792 49.1759 22.7875C48.715 22.6958 48.2916 22.4695 47.9593 22.1372C47.627 21.8049 47.4008 21.3816 47.3091 20.9207C47.2174 20.4598 47.2645 19.982 47.4443 19.5479C47.6241 19.1137 47.9287 18.7426 48.3194 18.4816C48.7101 18.2205 49.1695 18.0811 49.6394 18.0811C50.2694 18.0819 50.8733 18.3325 51.3187 18.7779C51.7641 19.2233 52.0147 19.8272 52.0154 20.4571V20.4571ZM56.4065 19.1774L55.3016 18.9318C55.1873 18.8901 55.094 18.8051 55.042 18.6951C55.0383 18.683 55.0339 18.6711 55.0289 18.6595L54.724 17.9186C54.7188 17.9058 54.7129 17.893 54.7065 17.8806C54.6651 17.767 54.6706 17.6416 54.7217 17.5321L55.3294 16.5769C55.4538 16.3701 55.5068 16.1283 55.4805 15.8884C55.4542 15.6486 55.35 15.4239 55.1838 15.249L54.8476 14.9128C54.6711 14.7495 54.4467 14.6472 54.2076 14.6209C53.9686 14.5947 53.7274 14.646 53.5197 14.7672L52.5643 15.3747C52.5034 15.4052 52.4358 15.4199 52.3678 15.4175C52.3158 15.4194 52.264 15.41 52.216 15.3901C52.2036 15.3835 52.1908 15.3776 52.1777 15.3726L51.4371 15.0675C51.4255 15.0626 51.4136 15.0583 51.4015 15.0547C51.2915 15.0025 51.2064 14.9091 51.1648 14.7947L50.9194 13.6901C50.861 13.4559 50.7275 13.2473 50.5392 13.0963C50.3509 12.9453 50.1183 12.8601 49.877 12.854H49.4018C49.1606 12.8601 48.928 12.9451 48.7397 13.0961C48.5515 13.2471 48.418 13.4557 48.3597 13.6899L48.114 14.7952C48.0722 14.9093 47.9872 15.0025 47.8774 15.0546C47.8652 15.0582 47.8534 15.0627 47.8415 15.0675L47.1009 15.3725C47.0878 15.3777 47.0751 15.3835 47.0626 15.3901C47.0146 15.4101 46.9628 15.4194 46.9108 15.4174C46.8427 15.4197 46.7751 15.405 46.7141 15.3747L45.7592 14.7674C45.5514 14.6462 45.3103 14.595 45.0712 14.6212C44.8321 14.6474 44.6078 14.7497 44.4312 14.913L44.095 15.249C43.9288 15.424 43.8245 15.6486 43.7982 15.8885C43.7719 16.1285 43.825 16.3704 43.9494 16.5772L44.5572 17.5321C44.608 17.6417 44.6135 17.7669 44.5724 17.8804C44.566 17.893 44.5598 17.9058 44.5546 17.9187L44.2497 18.6595C44.245 18.6712 44.2405 18.683 44.2367 18.6952C44.1846 18.8052 44.0913 18.8903 43.977 18.932L42.8724 19.1772C42.6382 19.2356 42.4295 19.3691 42.2785 19.5574C42.1275 19.7457 42.0424 19.9783 42.0363 20.2196V20.6948C42.0424 20.936 42.1274 21.1686 42.2784 21.3568C42.4294 21.545 42.638 21.6786 42.8721 21.7369L43.9772 21.9823C44.0914 22.0241 44.1846 22.1092 44.2367 22.2192C44.2405 22.2313 44.245 22.2432 44.2497 22.2548L44.5546 22.9957C44.5598 23.0085 44.5657 23.0211 44.5724 23.0337C44.6135 23.1473 44.608 23.2727 44.5569 23.3822L43.9494 24.3371C43.825 24.5439 43.7718 24.7859 43.7981 25.0258C43.8244 25.2657 43.9288 25.4904 44.095 25.6653L44.4312 26.0015C44.6079 26.1647 44.8323 26.267 45.0713 26.2932C45.3104 26.3194 45.5516 26.2682 45.7594 26.1472L46.7138 25.5396C46.7749 25.5092 46.8426 25.4945 46.9108 25.4969C46.9628 25.4948 47.0147 25.5041 47.0627 25.5242C47.0753 25.5304 47.0879 25.5365 47.1009 25.5418L47.8415 25.8468L47.8774 25.8597C47.9873 25.9118 48.0723 26.0051 48.114 26.1194L48.3597 27.2242C48.418 27.4584 48.5514 27.667 48.7397 27.8181C48.9279 27.9691 49.1606 28.0542 49.4018 28.0603H49.877C50.1183 28.0541 50.3509 27.969 50.5391 27.818C50.7273 27.667 50.8608 27.4584 50.9191 27.2242L51.1648 26.1194C51.2065 26.0051 51.2915 25.9118 51.4015 25.8597L51.4371 25.8468L52.1777 25.5418C52.1908 25.5365 52.2036 25.5304 52.2159 25.5242C52.2639 25.5042 52.3156 25.4949 52.3675 25.4969C52.4356 25.4944 52.5033 25.5092 52.5643 25.5396L53.5194 26.1469C53.7272 26.2681 53.9684 26.3194 54.2075 26.2933C54.4466 26.2671 54.671 26.1648 54.8476 26.0015L55.1836 25.6655C55.3499 25.4905 55.4542 25.2659 55.4805 25.0259C55.5069 24.786 55.4538 24.544 55.3295 24.3371L54.7217 23.3822C54.6964 23.328 54.682 23.2693 54.6794 23.2096C54.6768 23.1498 54.686 23.0901 54.7065 23.0339C54.7129 23.0213 54.7188 23.0087 54.7241 22.9959L55.0289 22.2548C55.034 22.2432 55.0383 22.2313 55.042 22.2192C55.0941 22.1091 55.1875 22.024 55.3019 21.9823L56.4063 21.7369C56.6405 21.6786 56.8492 21.5452 57.0003 21.3569C57.1513 21.1687 57.2365 20.936 57.2426 20.6947V20.2196C57.2365 19.9783 57.1514 19.7457 57.0004 19.5574C56.8493 19.3692 56.6407 19.2357 56.4065 19.1774V19.1774Z" fill="#003067"/>
<path d="M52.0154 19.8062C52.0154 20.2762 51.8761 20.7355 51.615 21.1263C51.3539 21.517 50.9829 21.8215 50.5487 22.0014C50.1145 22.1812 49.6368 22.2283 49.1759 22.1366C48.715 22.0449 48.2916 21.8186 47.9594 21.4863C47.6271 21.154 47.4008 20.7307 47.3091 20.2698C47.2174 19.8089 47.2645 19.3311 47.4443 18.897C47.6241 18.4628 47.9287 18.0918 48.3194 17.8307C48.7101 17.5696 49.1695 17.4302 49.6394 17.4302C50.2694 17.431 50.8733 17.6816 51.3187 18.127C51.7641 18.5724 52.0147 19.1763 52.0154 19.8062V19.8062ZM56.4065 18.5265L55.3017 18.2809C55.1873 18.2392 55.094 18.1542 55.042 18.0442C55.0383 18.0321 55.034 18.0202 55.0289 18.0086L54.7241 17.2677C54.7188 17.2549 54.7129 17.2421 54.7065 17.2297C54.6651 17.1161 54.6706 16.9908 54.7217 16.8812L55.3295 15.926C55.4538 15.7192 55.5068 15.4774 55.4805 15.2375C55.4542 14.9977 55.35 14.773 55.1838 14.5981L54.8476 14.2619C54.6711 14.0986 54.4467 13.9963 54.2077 13.97C53.9686 13.9438 53.7274 13.9951 53.5197 14.1163L52.5643 14.7238C52.5034 14.7543 52.4358 14.769 52.3678 14.7666C52.3158 14.7685 52.264 14.7591 52.216 14.7392C52.2036 14.7326 52.1908 14.7267 52.1777 14.7217L51.4371 14.4166C51.4255 14.4117 51.4136 14.4074 51.4015 14.4038C51.2915 14.3516 51.2065 14.2582 51.1648 14.1438L50.9194 13.0392C50.861 12.805 50.7275 12.5964 50.5392 12.4454C50.3509 12.2944 50.1183 12.2093 49.8771 12.2031H49.4019C49.1606 12.2092 48.928 12.2943 48.7398 12.4453C48.5515 12.5962 48.418 12.8048 48.3597 13.039L48.1141 14.1443C48.0722 14.2584 47.9872 14.3516 47.8774 14.4038C47.8653 14.4073 47.8534 14.4118 47.8415 14.4166L47.101 14.7217C47.0879 14.7268 47.0751 14.7327 47.0627 14.7392C47.0147 14.7592 46.9629 14.7685 46.9109 14.7666C46.8428 14.7688 46.7752 14.7541 46.7141 14.7238L45.7592 14.1165C45.5515 13.9954 45.3103 13.9441 45.0713 13.9704C44.8322 13.9966 44.6079 14.0989 44.4313 14.2622L44.0951 14.5982C43.9289 14.7731 43.8246 14.9978 43.7983 15.2377C43.772 15.4776 43.8251 15.7195 43.9495 15.9263L44.5572 16.8812C44.6081 16.9908 44.6135 17.116 44.5724 17.2296C44.566 17.2422 44.5598 17.255 44.5546 17.2678L44.2498 18.0086C44.245 18.0203 44.2405 18.0322 44.2367 18.0443C44.1847 18.1543 44.0914 18.2394 43.977 18.2812L42.8724 18.5264C42.6382 18.5847 42.4296 18.7182 42.2786 18.9065C42.1275 19.0948 42.0424 19.3274 42.0363 19.5687V20.0439C42.0424 20.2851 42.1275 20.5177 42.2785 20.7059C42.4295 20.8942 42.638 21.0277 42.8722 21.086L43.9773 21.3315C44.0915 21.3733 44.1847 21.4584 44.2367 21.5683C44.2405 21.5805 44.245 21.5923 44.2498 21.604L44.5546 22.3448C44.5598 22.3576 44.5658 22.3702 44.5724 22.3828C44.6136 22.4965 44.608 22.6218 44.557 22.7314L43.9495 23.6863C43.825 23.8931 43.7719 24.135 43.7982 24.3749C43.8245 24.6149 43.9288 24.8395 44.0951 25.0145L44.4313 25.3507C44.608 25.5139 44.8323 25.6161 45.0714 25.6423C45.3105 25.6686 45.5517 25.6174 45.7595 25.4963L46.7139 24.8888C46.775 24.8584 46.8427 24.8437 46.9109 24.846C46.9629 24.8439 47.0147 24.8532 47.0627 24.8733C47.0753 24.8795 47.0879 24.8857 47.101 24.8909L47.8416 25.196L47.8775 25.2088C47.9873 25.261 48.0723 25.3543 48.1141 25.4685L48.3598 26.5733C48.418 26.8076 48.5515 27.0162 48.7398 27.1672C48.928 27.3183 49.1606 27.4034 49.4019 27.4094H49.8771C50.1183 27.4033 50.3509 27.3182 50.5391 27.1671C50.7274 27.0161 50.8609 26.8075 50.9192 26.5733L51.1649 25.4685C51.2066 25.3542 51.2916 25.2609 51.4015 25.2088L51.4372 25.196L52.1777 24.8909C52.1908 24.8857 52.2036 24.8795 52.216 24.8733C52.2639 24.8533 52.3157 24.844 52.3676 24.846C52.4357 24.8436 52.5033 24.8583 52.5643 24.8888L53.5195 25.4961C53.7272 25.6173 53.9684 25.6686 54.2075 25.6424C54.4466 25.6162 54.671 25.514 54.8476 25.3507L55.1836 25.0147C55.3499 24.8397 55.4542 24.615 55.4806 24.375C55.5069 24.1351 55.4539 23.8931 55.3295 23.6862L54.7217 22.7313C54.6965 22.6771 54.6821 22.6185 54.6795 22.5587C54.6769 22.4989 54.6861 22.4392 54.7065 22.383C54.713 22.3704 54.7189 22.3578 54.7241 22.345L55.029 21.604C55.034 21.5923 55.0384 21.5804 55.042 21.5683C55.0942 21.4582 55.1875 21.3731 55.302 21.3314L56.4063 21.086C56.6406 21.0278 56.8492 20.8943 57.0003 20.706C57.1514 20.5178 57.2365 20.2852 57.2427 20.0439V19.5687C57.2366 19.3274 57.1515 19.0948 57.0004 18.9065C56.8494 18.7183 56.6407 18.5848 56.4065 18.5265V18.5265Z" fill="url(#paint8_linear)"/>
<path opacity="0.6" d="M52.0154 19.8067C52.0154 20.2766 51.8761 20.736 51.615 21.1267C51.3539 21.5174 50.9828 21.822 50.5487 22.0018C50.1145 22.1816 49.6368 22.2287 49.1759 22.137C48.715 22.0453 48.2916 21.819 47.9593 21.4867C47.6271 21.1545 47.4008 20.7311 47.3091 20.2702C47.2174 19.8093 47.2645 19.3316 47.4443 18.8974C47.6241 18.4633 47.9287 18.0922 48.3194 17.8311C48.7101 17.57 49.1695 17.4307 49.6394 17.4307C50.2694 17.4314 50.8733 17.682 51.3187 18.1274C51.7641 18.5728 52.0147 19.1767 52.0154 19.8067V19.8067Z" fill="url(#paint9_linear)"/>
<path d="M39.356 37.2124L35.6571 35.0522V32.1489C36.1499 31.8063 36.5196 31.3143 36.7117 30.7456C36.9037 30.1769 36.9079 29.5616 36.7236 28.9903C36.5393 28.419 36.1764 27.9221 35.6882 27.5728C35.2001 27.2235 34.6126 27.0403 34.0125 27.0502C33.4123 27.0601 32.8312 27.2626 32.3549 27.6279C31.8785 27.9931 31.5322 28.5018 31.3669 29.0788C31.2016 29.6558 31.2261 30.2707 31.4368 30.8328C31.6475 31.3948 32.0332 31.8743 32.5371 32.2005V35.0666L28.853 37.201V43.2876L34.1076 46.3344L39.3627 43.2872L39.356 37.2124Z" fill="white"/>
<path d="M36.1565 39.065C36.3615 39.427 36.4688 39.836 36.4678 40.252C36.4668 40.668 36.3575 41.0765 36.1508 41.4375C35.9441 41.7985 35.647 42.0994 35.2888 42.3108C34.9305 42.5222 34.5235 42.6367 34.1075 42.6431V45.2044L38.3849 42.7242V37.7725L36.1565 39.065Z" fill="#32BEDD"/>
<path d="M35.2675 35.9565V38.1505C35.4415 38.251 35.6019 38.3735 35.7445 38.5149C35.9069 38.6785 36.0444 38.8649 36.1528 39.0682L38.3792 37.7737L35.2675 35.9565Z" fill="#9CEBFF"/>
<path d="M32.3381 38.5443C32.5102 38.3689 32.7092 38.222 32.9276 38.1093V35.9697L29.8302 37.764L31.9832 39.0175C32.0819 38.846 32.2011 38.6871 32.3381 38.5443V38.5443Z" fill="#9CEBFF"/>
<path d="M34.0589 42.6482C33.6343 42.65 33.2168 42.5391 32.849 42.3269C32.4812 42.1147 32.1763 41.8088 31.9653 41.4403C31.7543 41.0719 31.6448 40.654 31.6479 40.2294C31.6511 39.8048 31.7668 39.3886 31.9832 39.0233L29.8302 37.7642V42.7245L34.1075 45.2047V42.6434C34.0933 42.6434 34.077 42.6482 34.0589 42.6482Z" fill="#50E6FF"/>
<path d="M32.7816 41.5361C33.1266 41.875 33.592 42.0629 34.0756 42.0586C34.5591 42.0543 35.0212 41.8581 35.36 41.5132C35.6989 41.1682 35.8869 40.7028 35.8826 40.2192C35.8783 39.7357 35.6821 39.2736 35.3371 38.9347C35.1501 38.753 34.9259 38.614 34.6799 38.5274V30.6968H33.5142V38.5055C33.2129 38.5974 32.9408 38.7662 32.7246 38.9953C32.5084 39.2244 32.3557 39.5058 32.2815 39.8119C32.2072 40.1181 32.214 40.4382 32.3012 40.7409C32.3884 41.0436 32.553 41.3183 32.7787 41.538L32.7816 41.5361Z" fill="url(#paint10_linear)"/>
<path d="M34.0589 31.68C35.0657 31.68 35.8818 30.8639 35.8818 29.8571C35.8818 28.8503 35.0657 28.0342 34.0589 28.0342C33.0521 28.0342 32.236 28.8503 32.236 29.8571C32.236 30.8639 33.0521 31.68 34.0589 31.68Z" fill="url(#paint11_linear)"/>
<path d="M65.1716 69.6108C57.9979 69.6108 52.1817 67.4443 52.1817 64.77V71.2244C52.1817 73.8986 57.9979 76.0651 65.1716 76.0651C72.3457 76.0651 78.1613 73.8986 78.1613 71.2244V64.77C78.1613 67.4443 72.3457 69.6108 65.1716 69.6108Z" fill="url(#paint12_linear)"/>
<path d="M65.1716 71.7444V73.8942C65.1707 74.0395 65.1406 74.1832 65.0831 74.3166C65.0256 74.4501 64.9419 74.5706 64.837 74.6711C64.732 74.7716 64.608 74.85 64.4721 74.9016C64.3363 74.9532 64.1915 74.977 64.0463 74.9716C57.3994 74.7591 52.1817 72.6814 52.1817 70.1486V71.2244C52.1817 73.8986 57.9979 76.0651 65.1716 76.0651C72.3457 76.0651 78.1613 73.8986 78.1613 71.2244V65.8457C78.1613 68.3893 72.901 70.4735 66.214 70.6709C65.9349 70.6794 65.67 70.7963 65.4754 70.9966C65.2809 71.197 65.1719 71.4652 65.1716 71.7444V71.7444Z" fill="url(#paint13_linear)"/>
<path d="M65.1715 69.7388C72.3446 69.7388 78.1596 67.5393 78.1596 64.8262C78.1596 62.113 72.3446 59.9136 65.1715 59.9136C57.9983 59.9136 52.1833 62.113 52.1833 64.8262C52.1833 67.5393 57.9983 69.7388 65.1715 69.7388Z" fill="#003067"/>
<path d="M65.1716 60.4672C57.9979 60.4672 52.1817 58.3007 52.1817 55.6265V62.0808C52.1817 64.7551 57.9979 66.9216 65.1716 66.9216C72.3457 66.9216 78.1613 64.7551 78.1613 62.0808V55.6265C78.1613 58.3007 72.3457 60.4672 65.1716 60.4672Z" fill="url(#paint14_linear)"/>
<path d="M65.1716 62.6009V64.7507C65.1707 64.896 65.1406 65.0397 65.0831 65.1731C65.0257 65.3066 64.942 65.4271 64.837 65.5276C64.7321 65.6281 64.608 65.7065 64.4721 65.7581C64.3363 65.8097 64.1915 65.8335 64.0463 65.8281C57.3994 65.6157 52.1817 63.5379 52.1817 61.0051V62.0808C52.1817 64.7551 57.9979 66.9216 65.1716 66.9216C72.3457 66.9216 78.1613 64.7551 78.1613 62.0808V56.7021C78.1613 59.2457 72.901 61.3299 66.214 61.5273C65.9348 61.5359 65.67 61.6527 65.4754 61.8531C65.2809 62.0534 65.1719 62.3216 65.1716 62.6009V62.6009Z" fill="url(#paint15_linear)"/>
<path d="M65.1715 60.5865C72.3446 60.5865 78.1596 58.387 78.1596 55.6738C78.1596 52.9607 72.3446 50.7612 65.1715 50.7612C57.9983 50.7612 52.1833 52.9607 52.1833 55.6738C52.1833 58.387 57.9983 60.5865 65.1715 60.5865Z" fill="#003067"/>
<path d="M65.1716 51.3237C57.9979 51.3237 52.1817 49.1572 52.1817 46.4829V52.9373C52.1817 55.6115 57.9979 57.778 65.1716 57.778C72.3457 57.778 78.1613 55.6115 78.1613 52.9373V46.4829C78.1613 49.1572 72.3457 51.3237 65.1716 51.3237Z" fill="url(#paint16_linear)"/>
<path d="M65.1716 53.4573V55.6071C65.1707 55.7524 65.1406 55.8961 65.0831 56.0295C65.0256 56.163 64.9419 56.2835 64.837 56.384C64.732 56.4845 64.608 56.5629 64.4721 56.6145C64.3363 56.6661 64.1915 56.6899 64.0463 56.6845C57.3994 56.472 52.1817 54.3943 52.1817 51.8615V52.9372C52.1817 55.6115 57.9979 57.778 65.1716 57.778C72.3457 57.778 78.1613 55.6115 78.1613 52.9372V47.5586C78.1613 50.1022 72.901 52.1864 66.214 52.3837C65.9348 52.3923 65.67 52.5091 65.4754 52.7095C65.2809 52.9098 65.1719 53.178 65.1716 53.4573V53.4573Z" fill="url(#paint17_linear)"/>
<path fill-rule="evenodd" clip-rule="evenodd" d="M77.5801 46.5227C77.5801 49.1993 72.0247 51.3677 65.1717 51.3677C58.3191 51.3677 52.7632 49.1993 52.7632 46.5227C52.7632 43.8461 58.3191 41.6777 65.1717 41.6777C72.0247 41.6777 77.5801 43.8461 77.5801 46.5227Z" fill="#003067"/>
<path d="M65.1715 51.9734C57.8742 51.9734 52.1584 49.5792 52.1584 46.5228C52.1584 43.4665 57.8742 41.0723 65.1715 41.0723C72.4687 41.0723 78.186 43.4665 78.186 46.5228C78.186 49.5792 72.4687 51.9734 65.1715 51.9734ZM65.1715 42.2834C58.2166 42.2834 53.3695 44.5174 53.3695 46.5228C53.3695 48.5283 58.2167 50.7623 65.1715 50.7623C72.1277 50.7623 76.975 48.5283 76.975 46.5228C76.975 44.5174 72.1277 42.2834 65.1715 42.2834V42.2834Z" fill="url(#paint18_linear)"/>
<path d="M70.4204 37.2124L66.7215 35.0522V32.1489C67.2143 31.8063 67.584 31.3143 67.776 30.7456C67.968 30.1769 67.9722 29.5616 67.7879 28.9903C67.6037 28.419 67.2407 27.9221 66.7526 27.5728C66.2645 27.2235 65.677 27.0403 65.0768 27.0502C64.4767 27.0601 63.8956 27.2626 63.4192 27.6279C62.9429 27.9931 62.5965 28.5018 62.4312 29.0788C62.2659 29.6558 62.2905 30.2707 62.5011 30.8328C62.7118 31.3948 63.0976 31.8743 63.6015 32.2005V35.0666L59.9174 37.201V43.2876L65.172 46.3344L70.4271 43.2872L70.4204 37.2124Z" fill="white"/>
<path d="M67.2209 39.065C67.4259 39.427 67.5332 39.836 67.5322 40.252C67.5312 40.668 67.4219 41.0765 67.2152 41.4375C67.0085 41.7985 66.7114 42.0994 66.3532 42.3108C65.9949 42.5222 65.5879 42.6367 65.1719 42.6431V45.2044L69.4493 42.7242V37.7725L67.2209 39.065Z" fill="#32BEDD"/>
<path d="M66.3319 35.9565V38.1505C66.5059 38.251 66.6662 38.3735 66.8089 38.5149C66.9712 38.6785 67.1088 38.8649 67.2172 39.0682L69.4436 37.7737L66.3319 35.9565Z" fill="#9CEBFF"/>
<path d="M63.4024 38.5443C63.5745 38.3689 63.7735 38.222 63.9919 38.1093V35.9697L60.8946 37.764L63.0476 39.0175C63.1463 38.846 63.2654 38.6871 63.4024 38.5443Z" fill="#9CEBFF"/>
<path d="M65.1233 42.6482C64.6987 42.6499 64.2812 42.5391 63.9134 42.3269C63.5456 42.1147 63.2407 41.8088 63.0297 41.4403C62.8187 41.0718 62.7091 40.654 62.7123 40.2294C62.7154 39.8048 62.8311 39.3886 63.0476 39.0233L60.8946 37.7642V42.7245L65.1719 45.2047V42.6434C65.1576 42.6434 65.1414 42.6482 65.1233 42.6482Z" fill="#50E6FF"/>
<path d="M63.846 41.5361C64.191 41.875 64.6564 42.0629 65.14 42.0586C65.6235 42.0543 66.0855 41.8581 66.4244 41.5132C66.7633 41.1682 66.9513 40.7028 66.947 40.2192C66.9427 39.7357 66.7465 39.2736 66.4015 38.9347C66.2145 38.753 65.9903 38.614 65.7443 38.5274V30.6968H64.5786V38.5055C64.2773 38.5974 64.0052 38.7662 63.789 38.9953C63.5728 39.2244 63.4201 39.5058 63.3459 39.8119C63.2716 40.1181 63.2784 40.4382 63.3656 40.7409C63.4528 41.0436 63.6174 41.3183 63.8431 41.538L63.846 41.5361Z" fill="url(#paint19_linear)"/>
<path d="M65.1233 31.68C66.13 31.68 66.9462 30.8639 66.9462 29.8571C66.9462 28.8503 66.13 28.0342 65.1233 28.0342C64.1165 28.0342 63.3004 28.8503 63.3004 29.8571C63.3004 30.8639 64.1165 31.68 65.1233 31.68Z" fill="url(#paint20_linear)"/>
<path fill-rule="evenodd" clip-rule="evenodd" d="M33.608 19.8062C33.608 19.53 33.8319 19.3062 34.108 19.3062H39.363V20.3062H34.608V24.3912H33.608V19.8062Z" fill="white"/>
<path fill-rule="evenodd" clip-rule="evenodd" d="M64.571 20.3062H59.816V19.3062H65.071C65.3471 19.3062 65.571 19.53 65.571 19.8062V24.3912H64.571V20.3062Z" fill="white"/>
</g>
<defs>
<linearGradient id="paint0_linear" x1="47.8698" y1="-15.153" x2="51.8525" y2="130.615" gradientUnits="userSpaceOnUse">
<stop stop-color="#00ABDE"/>
<stop offset="1" stop-color="#007ED8"/>
</linearGradient>
<linearGradient id="paint1_linear" x1="34.1071" y1="64.77" x2="34.1071" y2="76.0651" gradientUnits="userSpaceOnUse">
<stop stop-color="#32BEDD"/>
<stop offset="0.18" stop-color="#32CAEA"/>
<stop offset="0.41" stop-color="#32D2F2"/>
<stop offset="0.78" stop-color="#32D4F5"/>
</linearGradient>
<linearGradient id="paint2_linear" x1="34.1071" y1="65.8457" x2="34.1071" y2="76.0651" gradientUnits="userSpaceOnUse">
<stop stop-color="#008BF1"/>
<stop offset="0.22" stop-color="#0086EC"/>
<stop offset="0.49" stop-color="#0078DD"/>
<stop offset="0.79" stop-color="#0061C4"/>
<stop offset="1" stop-color="#004DAE"/>
</linearGradient>
<linearGradient id="paint3_linear" x1="34.1071" y1="55.6265" x2="34.1071" y2="66.9216" gradientUnits="userSpaceOnUse">
<stop stop-color="#32BEDD"/>
<stop offset="0.18" stop-color="#32CAEA"/>
<stop offset="0.41" stop-color="#32D2F2"/>
<stop offset="0.78" stop-color="#32D4F5"/>
</linearGradient>
<linearGradient id="paint4_linear" x1="34.1071" y1="56.7021" x2="34.1071" y2="66.9216" gradientUnits="userSpaceOnUse">
<stop stop-color="#008BF1"/>
<stop offset="0.22" stop-color="#0086EC"/>
<stop offset="0.49" stop-color="#0078DD"/>
<stop offset="0.79" stop-color="#0061C4"/>
<stop offset="1" stop-color="#004DAE"/>
</linearGradient>
<linearGradient id="paint5_linear" x1="34.1071" y1="46.4829" x2="34.1071" y2="57.778" gradientUnits="userSpaceOnUse">
<stop stop-color="#32BEDD"/>
<stop offset="0.18" stop-color="#32CAEA"/>
<stop offset="0.41" stop-color="#32D2F2"/>
<stop offset="0.78" stop-color="#32D4F5"/>
</linearGradient>
<linearGradient id="paint6_linear" x1="34.1071" y1="47.5586" x2="34.1071" y2="57.778" gradientUnits="userSpaceOnUse">
<stop stop-color="#008BF1"/>
<stop offset="0.22" stop-color="#0086EC"/>
<stop offset="0.49" stop-color="#0078DD"/>
<stop offset="0.79" stop-color="#0061C4"/>
<stop offset="1" stop-color="#004DAE"/>
</linearGradient>
<linearGradient id="paint7_linear" x1="34.1078" y1="51.9734" x2="34.1078" y2="41.0527" gradientUnits="userSpaceOnUse">
<stop stop-color="#005BA1"/>
<stop offset="0.26" stop-color="#00589D"/>
<stop offset="0.53" stop-color="#004F90"/>
<stop offset="0.8" stop-color="#003F7C"/>
<stop offset="1" stop-color="#003067"/>
</linearGradient>
<linearGradient id="paint8_linear" x1="49.6395" y1="27.4094" x2="49.6395" y2="12.2031" gradientUnits="userSpaceOnUse">
<stop stop-color="#CCCCCC"/>
<stop offset="1" stop-color="white"/>
</linearGradient>
<linearGradient id="paint9_linear" x1="283.15" y1="122.841" x2="283.15" y2="100.26" gradientUnits="userSpaceOnUse">
<stop stop-color="#CCCCCC"/>
<stop offset="1" stop-color="white"/>
</linearGradient>
<linearGradient id="paint10_linear" x1="34.0563" y1="30.4659" x2="34.0563" y2="42.1027" gradientUnits="userSpaceOnUse">
<stop stop-color="#E6E6E6"/>
<stop offset="1" stop-color="#999999"/>
</linearGradient>
<linearGradient id="paint11_linear" x1="34.0589" y1="28.1153" x2="34.0589" y2="31.7611" gradientUnits="userSpaceOnUse">
<stop stop-color="#50E6FF"/>
<stop offset="1" stop-color="#32BEDD"/>
</linearGradient>
<linearGradient id="paint12_linear" x1="65.1715" y1="64.77" x2="65.1715" y2="76.0651" gradientUnits="userSpaceOnUse">
<stop stop-color="#32BEDD"/>
<stop offset="0.18" stop-color="#32CAEA"/>
<stop offset="0.41" stop-color="#32D2F2"/>
<stop offset="0.78" stop-color="#32D4F5"/>
</linearGradient>
<linearGradient id="paint13_linear" x1="65.1715" y1="65.8457" x2="65.1715" y2="76.0651" gradientUnits="userSpaceOnUse">
<stop stop-color="#008BF1"/>
<stop offset="0.22" stop-color="#0086EC"/>
<stop offset="0.49" stop-color="#0078DD"/>
<stop offset="0.79" stop-color="#0061C4"/>
<stop offset="1" stop-color="#004DAE"/>
</linearGradient>
<linearGradient id="paint14_linear" x1="65.1715" y1="55.6265" x2="65.1715" y2="66.9216" gradientUnits="userSpaceOnUse">
<stop stop-color="#32BEDD"/>
<stop offset="0.18" stop-color="#32CAEA"/>
<stop offset="0.41" stop-color="#32D2F2"/>
<stop offset="0.78" stop-color="#32D4F5"/>
</linearGradient>
<linearGradient id="paint15_linear" x1="65.1715" y1="56.7021" x2="65.1715" y2="66.9216" gradientUnits="userSpaceOnUse">
<stop stop-color="#008BF1"/>
<stop offset="0.22" stop-color="#0086EC"/>
<stop offset="0.49" stop-color="#0078DD"/>
<stop offset="0.79" stop-color="#0061C4"/>
<stop offset="1" stop-color="#004DAE"/>
</linearGradient>
<linearGradient id="paint16_linear" x1="65.1715" y1="46.4829" x2="65.1715" y2="57.778" gradientUnits="userSpaceOnUse">
<stop stop-color="#32BEDD"/>
<stop offset="0.18" stop-color="#32CAEA"/>
<stop offset="0.41" stop-color="#32D2F2"/>
<stop offset="0.78" stop-color="#32D4F5"/>
</linearGradient>
<linearGradient id="paint17_linear" x1="65.1715" y1="47.5586" x2="65.1715" y2="57.778" gradientUnits="userSpaceOnUse">
<stop stop-color="#008BF1"/>
<stop offset="0.22" stop-color="#0086EC"/>
<stop offset="0.49" stop-color="#0078DD"/>
<stop offset="0.79" stop-color="#0061C4"/>
<stop offset="1" stop-color="#004DAE"/>
</linearGradient>
<linearGradient id="paint18_linear" x1="34.1078" y1="51.9734" x2="34.1078" y2="41.0527" gradientUnits="userSpaceOnUse">
<stop stop-color="#005BA1"/>
<stop offset="0.26" stop-color="#00589D"/>
<stop offset="0.53" stop-color="#004F90"/>
<stop offset="0.8" stop-color="#003F7C"/>
<stop offset="1" stop-color="#003067"/>
</linearGradient>
<linearGradient id="paint19_linear" x1="-1758.74" y1="8183.79" x2="-1758.74" y2="8051.57" gradientUnits="userSpaceOnUse">
<stop stop-color="#E6E6E6"/>
<stop offset="1" stop-color="#999999"/>
</linearGradient>
<linearGradient id="paint20_linear" x1="-1755.53" y1="2652.79" x2="-1755.53" y2="2639.5" gradientUnits="userSpaceOnUse">
<stop stop-color="#50E6FF"/>
<stop offset="1" stop-color="#32BEDD"/>
</linearGradient>
<clipPath id="clip0">
<rect width="99.2799" height="99.28" fill="white"/>
</clipPath>
</defs>
</svg>
