<svg width="102" height="103" viewBox="0 0 102 103" fill="none" xmlns="http://www.w3.org/2000/svg">
<path d="M50.9999 98.1108C25.4034 98.1108 4.64886 77.3662 4.64886 51.7598C4.64886 26.1533 25.4034 5.40869 50.9999 5.40869C76.5965 5.40869 97.351 26.1632 97.351 51.7598C97.351 77.3563 76.5965 98.1108 50.9999 98.1108Z" fill="url(#paint0_linear_2208_1020)"/>
<path fill-rule="evenodd" clip-rule="evenodd" d="M96.4501 51.7603C96.4501 76.8617 76.1016 97.2103 51.0001 97.2103C25.8987 97.2103 5.55013 76.8617 5.55013 51.7603C5.55013 26.6588 25.8987 6.31027 51.0001 6.31027C76.1016 6.31027 96.4501 26.6588 96.4501 51.7603ZM51.0001 2.60693C78.1513 2.60693 100.153 24.6091 100.153 51.7603C100.153 78.9114 78.1414 100.914 51.0001 100.914C23.849 100.914 1.8468 78.9015 1.8468 51.7603C1.8468 24.6091 23.849 2.60693 51.0001 2.60693Z" fill="#F2F1F0"/>
<path d="M93.5175 51.7596C93.5175 75.2434 74.4837 94.2771 50.9999 94.2771C27.5161 94.2771 8.48236 75.2434 8.48236 51.7596C8.48236 28.2757 27.5161 9.24201 50.9999 9.24201C74.4837 9.24201 93.5175 28.2757 93.5175 51.7596ZM97.5208 51.7596C97.5208 26.0702 76.6892 5.23867 50.9999 5.23867C25.3007 5.23867 4.47903 26.0703 4.47903 51.7596C4.47903 77.4489 25.3106 98.2804 50.9999 98.2804C76.6892 98.2804 97.5208 77.4489 97.5208 51.7596Z" fill="url(#paint1_linear_2208_1020)" stroke="black" stroke-width="0.3" stroke-linejoin="round"/>
<path d="M79.4932 35.4485C79.4482 35.4135 79.3871 35.407 79.3358 35.4318C79.2844 35.4567 79.2515 35.5085 79.2511 35.5656L79.2094 40.477H79.2055H79.1659H79.1257H79.0848H79.0432H79.0009H78.9579H78.9142H78.8699H78.8249H78.7792H78.7328H78.6858H78.6381H78.5897H78.5407H78.491H78.4407H78.3897H78.3381H78.2859H78.233H78.1794H78.1253H78.0705H78.0151H77.959H77.9024H77.8451H77.7872H77.7287H77.6696H77.6099H77.5496H77.4887H77.4272H77.3652H77.3025H77.2392H77.1754H77.111H77.046H76.9805H76.9143H76.8477H76.7804H76.7126H76.6443H76.5754H76.5059H76.4359H76.3654H76.2943H76.2227H76.1505H76.0779H76.0047H75.931H75.8567H75.782H75.7067H75.6309H75.5546H75.4779H75.4006H75.3228H75.2445H75.1658H75.0865H75.0068H74.9266H74.8459H74.7647H74.6831H74.601H74.5184H74.4354H74.3519H74.268H74.1836H74.0988H74.0135H73.9278H73.8416H73.755H73.668H73.5806H73.4927H73.4044H73.3157H73.2265H73.137H73.047H72.9567H72.8659H72.7747H72.6832H72.5912H72.4989H72.4062H72.3131H72.2196H72.1257H72.0315H71.9369H71.8419H71.7465H71.6508H71.5548H71.4584H71.3616H71.2645H71.167H71.0692H70.9711H70.8726H70.7738H70.6747H70.5752H70.4754H70.3754H70.2749H70.1742H70.0732H69.9718H69.8702H69.7683H69.666H69.5635H69.4607H69.3576H69.2542H69.1505H69.0466H68.9423H68.8379H68.7331H68.6281H68.5228H68.4173H68.3115H68.2054H68.0991H67.9926H67.8858H67.7788H67.6716H67.5641H67.4564H67.3484H67.2403H67.1319H67.0233H66.9145H66.8055H66.6963H66.5869H66.4773H66.3674H66.2574H66.1472H66.0369H65.9263H65.8155H65.7046H65.5935H65.4823H65.3708H65.2592H65.1475H65.0356H64.9235H64.8113H64.6989H64.5864H64.4737H64.361H64.248H64.135H64.0218H63.9085H63.795H63.6815H63.5678H63.4541H63.3402H63.2262H63.1121H62.9979H62.8836H62.7692H62.6547H62.5402H62.4255H62.3108H62.196H62.0812H61.9662H61.8512H61.7361H61.621H61.5058H61.3906H61.2753H61.1599H61.0445H60.9291H60.8136H60.6981H60.5826H60.4671H60.3515H60.2359H60.1202H60.0046H59.8889H59.7733H59.6576H59.5419H59.4263H59.3106H59.195H59.0793H58.9637H58.8481H58.7325H58.6169H58.5013H58.3858H58.2703H58.1549H58.0395H57.9241H57.8088H57.6935H57.5783H57.4632H57.3481H57.233H57.1181H57.0032H56.8883H56.7736H56.6589H56.5443H56.4298H56.3153H56.201H56.0868H55.9726H55.8586H55.7446H55.6308H55.5171H55.4035H55.29H55.1766H55.0634H54.9503H54.8373H54.7244H54.6117H54.4991H54.3867H54.2744H54.1623H54.0503H53.9384H53.8268H53.7152H53.6039H53.4927H53.3817H53.2709H53.1602H53.0498H52.9395H52.8294H52.7195H52.6098H52.5002H52.3909H52.2818H52.1729H52.0642H51.9558H51.8475H51.7395H51.6316H51.524H51.4167H51.3096H51.2027H51.096H50.9896H50.8834H50.7775H50.6719H50.5665H50.4613H50.3564H50.2518H50.1475H50.0434H49.9396H49.8361H49.7328H49.6299H49.5272H49.4248H49.3227H49.221H49.1195H49.0183H48.9174H48.8169H48.7166H48.6167H48.5171H48.4178H48.3188H48.2202H48.1219H48.0239H47.9263H47.829H47.7321H47.6355H47.5393H47.4434H47.3479H47.2528H47.158H47.0635H46.9695H46.8758H46.7825H46.6896H46.5971H46.505H46.4132H46.3219H46.2309H46.1404H46.0502H45.9605H45.8711H45.7822H45.6937H45.6056H45.518H45.4307H45.3439H45.2576H45.1717H45.0862H45.0011H44.9165H44.8324H44.7487H44.6654H44.5826H44.5003H44.4185H44.3371H44.2562H44.1757H44.0958H44.0163H43.9373H43.8588H43.7808H43.7032H43.6262H43.5497H43.4737H43.3982H43.3232H43.2487H43.1747H43.1013H43.0284H42.956H42.8841H42.8128H42.742H42.6717H42.602H42.5328H42.4642H42.3961H42.3286H42.2617H42.1953H42.1295H42.0642H41.9995H41.9354H41.8719H41.8089H41.7466H41.6848H41.6236H41.563H41.5031H41.4437H41.3849H41.3267H41.2691H41.2122H41.1559H41.1001H41.045H40.9906H40.9368H40.8836H40.831H40.7791H40.7278H40.6772H40.6272H40.5778H40.5292H40.4811H40.4338H40.3871H40.3411H40.2957H40.2511H40.2071H40.1638H40.1211H40.0792H40.0379H39.9974H39.9575H39.9184H39.8799H39.8422H39.8052H39.7688H39.7332H39.6984H39.6642H39.6308H39.5981H39.5661H39.5349H39.5044H39.4747H39.4457H39.4174H39.3899H39.3632H39.3372H39.312H39.2875H39.2638H39.2409H39.2188H39.1974H39.1769H39.1571C35.8128 40.477 31.2262 41.7877 27.8938 45.5574C26.2261 47.4441 25.6217 49.1351 25.4382 50.3626C25.3466 50.9755 25.3602 51.4708 25.3974 51.8149C25.4159 51.9869 25.4404 52.1211 25.4605 52.2133C25.4706 52.2594 25.4796 52.295 25.4862 52.3196C25.4895 52.3319 25.4923 52.3415 25.4942 52.3482L25.4966 52.3562L25.4974 52.3586L25.4976 52.3594L25.4977 52.3597C25.4978 52.3598 25.4978 52.3599 25.6407 52.3143L25.4978 52.3599C25.5176 52.4221 25.5754 52.4643 25.6407 52.4643H34.2553C34.3272 52.4643 34.389 52.4133 34.4026 52.3427C34.4026 52.3427 34.4026 52.3426 34.4026 52.3426L34.4029 52.3411L34.4046 52.3332C34.4062 52.3259 34.4088 52.3145 34.4125 52.2992C34.42 52.2687 34.432 52.2229 34.45 52.1639C34.4859 52.046 34.5454 51.8758 34.6388 51.6706C34.8256 51.2603 35.1478 50.7109 35.6884 50.1606C36.766 49.0637 38.7283 47.9467 42.2664 47.9467H42.3085H42.3512H42.3945H42.4384H42.4828H42.5278H42.5733H42.6194H42.666H42.7132H42.7609H42.8091H42.8579H42.9073H42.9571H43.0075H43.0585H43.1099H43.1619H43.2144H43.2675H43.321H43.3751H43.4296H43.4847H43.5403H43.5964H43.653H43.7101H43.7677H43.8258H43.8843H43.9434H44.003H44.063H44.1235H44.1845H44.246H44.3079H44.3703H44.4332H44.4966H44.5604H44.6247H44.6894H44.7546H44.8203H44.8863H44.9529H45.0199H45.0873H45.1552H45.2235H45.2922H45.3614H45.431H45.5011H45.5715H45.6424H45.7137H45.7854H45.8576H45.9301H46.0031H46.0765H46.1502H46.2244H46.299H46.374H46.4493H46.5251H46.6012H46.6778H46.7547H46.832H46.9097H46.9878H47.0662H47.145H47.2242H47.3037H47.3836H47.4639H47.5445H47.6255H47.7068H47.7885H47.8706H47.953H48.0357H48.1188H48.2022H48.2859H48.37H48.4544H48.5391H48.6242H48.7096H48.7953H48.8813H48.9677H49.0543H49.1413H49.2286H49.3161H49.404H49.4922H49.5807H49.6695H49.7585H49.8479H49.9375H50.0275H50.1177H50.2082H50.2989H50.39H50.4813H50.5729H50.6648H50.7569H50.8493H50.9419H51.0348H51.128H51.2214H51.315H51.4089H51.5031H51.5975H51.6921H51.787H51.8821H51.9774H52.073H52.1688H52.2648H52.361H52.4575H52.5541H52.651H52.7481H52.8454H52.9429H53.0406H53.1385H53.2366H53.335H53.4335H53.5322H53.631H53.7301H53.8293H53.9288H54.0284H54.1282H54.2281H54.3283H54.4286H54.529H54.6296H54.7304H54.8314H54.9325H55.0337H55.1351H55.2367H55.3384H55.4402H55.5422H55.6443H55.7465H55.8489H55.9514H56.0541H56.1568H56.2597H56.3627H56.4658H56.5691H56.6724H56.7759H56.8794H56.9831H57.0869H57.1907H57.2947H57.3987H57.5029H57.6071H57.7115H57.8159H57.9204H58.0249H58.1296H58.2343H58.3391H58.4439H58.5489H58.6539H58.7589H58.864H58.9692H59.0744H59.1797H59.285H59.3903H59.4957H59.6012H59.7067H59.8122H59.9177H60.0233H60.1289H60.2346H60.3402H60.4459H60.5516H60.6573H60.763H60.8688H60.9745H61.0802H61.186H61.2917H61.3975H61.5032H61.6089H61.7147H61.8204H61.9261H62.0317H62.1374H62.243H62.3486H62.4542H62.5598H62.6653H62.7707H62.8762H62.9816H63.0869H63.1922H63.2975H63.4027H63.5079H63.613H63.718H63.823H63.9279H64.0327H64.1375H64.2422H64.3468H64.4514H64.5559H64.6603H64.7646H64.8688H64.9729H65.077H65.1809H65.2848H65.3885H65.4922H65.5957H65.6992H65.8025H65.9057H66.0088H66.1118H66.2146H66.3174H66.42H66.5225H66.6248H66.7271H66.8291H66.9311H67.0329H67.1346H67.2361H67.3375H67.4387H67.5398H67.6407H67.7414H67.842H67.9425H68.0427H68.1428H68.2428H68.3425H68.4421H68.5415H68.6407H68.7397H68.8386H68.9372H69.0357H69.134H69.2321H69.3299H69.4276H69.5251H69.6223H69.7194H69.8163H69.9129H70.0093H70.1055H70.2015H70.2972H70.3927H70.488H70.5831H70.6779H70.7725H70.8668H70.9609H71.0548H71.1484H71.2418H71.3349H71.4277H71.5203H71.6127H71.7048H71.7966H71.8881H71.9794H72.0704H72.1611H72.2516H72.3417H72.4316H72.5212H72.6105H72.6995H72.7882H72.8767H72.9648H73.0526H73.1402H73.2274H73.3143H73.4009H73.4872H73.5731H73.6588H73.7441H73.8291H73.9138H73.9982H74.0822H74.1659H74.2492H74.3322H74.4149H74.4972H74.5792H74.6608H74.7421H74.823H74.9036H74.9838H75.0636H75.1431H75.2222H75.3009H75.3793H75.4573H75.5349H75.6122H75.689H75.7655H75.8416H75.9173H75.9926H76.0675H76.142H76.2161H76.2898H76.3631H76.436H76.5084H76.5805H76.6522H76.7234H76.7942H76.8646H76.9345H77.0041H77.0732H77.1418H77.2101H77.2779H77.3452H77.4121H77.4786H77.5446H77.6102H77.6753H77.7399H77.8041H77.8679H77.9311H77.9939H78.0563H78.1181H78.1795H78.2404H78.3009H78.3608H78.4203H78.4793H78.5378H78.5957H78.6533H78.7103H78.7668H78.8228H78.8783H78.9333H78.9877H79.0417H79.0952H79.1461L79.1047 52.8254C79.1042 52.8836 79.1375 52.9369 79.1901 52.962C79.2428 52.9871 79.3051 52.9795 79.3501 52.9424L90.19 44.0107C90.2252 43.9818 90.2452 43.9384 90.2446 43.8929C90.244 43.8474 90.2227 43.8046 90.1868 43.7766L79.4932 35.4485ZM21.6638 68.07C21.7087 68.1056 21.77 68.1125 21.8217 68.0878C21.8735 68.0631 21.9066 68.011 21.907 67.9537L21.9465 63.1887H21.9521H21.9867H22.0219H22.0579H22.0946H22.132H22.1701H22.2089H22.2484H22.2886H22.3296H22.3712H22.4135H22.4564H22.5001H22.5445H22.5895H22.6352H22.6815H22.7286H22.7763H22.8246H22.8737H22.9233H22.9737H23.0246H23.0762H23.1285H23.1814H23.2349H23.2891H23.3439H23.3993H23.4553H23.512H23.5693H23.6271H23.6856H23.7447H23.8044H23.8647H23.9256H23.9871H24.0492H24.1119H24.1751H24.2389H24.3034H24.3683H24.4339H24.5H24.5667H24.6339H24.7017H24.7701H24.839H24.9084H24.9784H25.049H25.1201H25.1917H25.2638H25.3365H25.4097H25.4834H25.5576H25.6324H25.7077H25.7834H25.8597H25.9365H26.0138H26.0916H26.1698H26.2486H26.3278H26.4076H26.4878H26.5685H26.6496H26.7313H26.8134H26.8959H26.9789H27.0624H27.1464H27.2307H27.3156H27.4008H27.4866H27.5727H27.6593H27.7463H27.8338H27.9217H28.01H28.0987H28.1878H28.2774H28.3673H28.4577H28.5484H28.6396H28.7312H28.8231H28.9155H29.0082H29.1013H29.1948H29.2886H29.3829H29.4775H29.5725H29.6678H29.7635H29.8596H29.956H30.0528H30.1499H30.2473H30.3451H30.4433H30.5417H30.6405H30.7397H30.8391H30.9389H31.039H31.1394H31.2401H31.3412H31.4425H31.5441H31.6461H31.7483H31.8509H31.9537H32.0568H32.1602H32.2638H32.3678H32.472H32.5765H32.6812H32.7863H32.8916H32.9971H33.1029H33.2089H33.3152H33.4217H33.5285H33.6355H33.7428H33.8503H33.958H34.0659H34.1741H34.2824H34.391H34.4998H34.6088H34.7181H34.8275H34.9371H35.0469H35.1569H35.2671H35.3775H35.4881H35.5988H35.7097H35.8208H35.9321H36.0435H36.1551H36.2669H36.3788H36.4909H36.6031H36.7154H36.828H36.9406H37.0534H37.1663H37.2794H37.3926H37.5059H37.6193H37.7329H37.8465H37.9603H38.0742H38.1882H38.3023H38.4165H38.5308H38.6451H38.7596H38.8742H38.9888H39.1035H39.2183H39.3332H39.4481H39.5632H39.6782H39.7934H39.9085H40.0238H40.1391H40.2544H40.3698H40.4852H40.6007H40.7162H40.8317H40.9473H41.0629H41.1785H41.2941H41.4098H41.5254H41.6411H41.7567H41.8724H41.9881H42.1037H42.2194H42.335H42.4507H42.5663H42.6819H42.7975H42.913H43.0285H43.144H43.2594H43.3749H43.4902H43.6055H43.7208H43.836H43.9512H44.0663H44.1813H44.2963H44.4112H44.526H44.6408H44.7555H44.8701H44.9846H45.099H45.2133H45.3276H45.4417H45.5558H45.6697H45.7835H45.8973H46.0109H46.1244H46.2377H46.351H46.4641H46.5771H46.6899H46.8026H46.9152H47.0277H47.14H47.2521H47.3641H47.4759H47.5876H47.6991H47.8104H47.9216H48.0326H48.1435H48.2541H48.3646H48.4749H48.585H48.6949H48.8046H48.9141H49.0234H49.1325H49.2414H49.3501H49.4586H49.5669H49.6749H49.7827H49.8903H49.9977H50.1048H50.2117H50.3183H50.4247H50.5309H50.6368H50.7425H50.8479H50.953H51.0579H51.1625H51.2669H51.3709H51.4748H51.5783H51.6815H51.7845H51.8871H51.9895H52.0916H52.1934H52.2949H52.3961H52.4969H52.5975H52.6977H52.7977H52.8973H52.9966H53.0955H53.1942H53.2924H53.3904H53.488H53.5853H53.6822H53.7788H53.8751H53.9709H54.0664H54.1616H54.2564H54.3508H54.4448H54.5385H54.6318H54.7247H54.8172H54.9094H55.0011H55.0925H55.1834H55.274H55.3641H55.4539H55.5432H55.6321H55.7206H55.8087H55.8964H55.9836H56.0704H56.1568H56.2427H56.3282H56.4132H56.4978H56.582H56.6657H56.7489H56.8317H56.914H56.9959H57.0773H57.1582H57.2386H57.3186H57.3981H57.4771H57.5556H57.6336H57.7111H57.7881H57.8646H57.9407H58.0162H58.0912H58.1657H58.2396H58.3131H58.386H58.4584H58.5303H58.6016H58.6724H58.7426H58.8124H58.8815H58.9501H59.0182H59.0857H59.1527H59.2191H59.2849H59.3501H59.4148H59.4789H59.5425H59.6054H59.6678H59.7295H59.7907H59.8513H59.9113H59.9707H60.0295H60.0876H60.1452H60.2022H60.2585H60.3142H60.3693H60.4238H60.4776H60.5308H60.5834H60.6353H60.6866H60.7372H60.7872H60.8365H60.8852H60.9332H60.9806H61.0272H61.0733H61.1186H61.1633H61.2073H61.2506H61.2932H61.3352H61.3764H61.417H61.4568H61.496H61.5344H61.5722H61.6092H61.6455H61.6811H61.716H61.7501H61.7836H61.8163H61.8482H61.8795H61.9099H61.9397H61.9687H61.9969H62.0244H62.0512H62.0771H62.1024H62.1268H62.1505H62.1734H62.1956H62.2169H62.2375H62.2573C65.6033 63.1887 69.9695 61.9013 73.313 58.1329L73.3132 58.1327C74.978 56.2495 75.8288 54.4151 76.2633 53.0491C76.4805 52.3662 76.5937 51.8004 76.6526 51.4041C76.682 51.2059 76.6979 51.0501 76.7064 50.9431C76.7107 50.8896 76.7131 50.8483 76.7145 50.82L76.7158 50.7875L76.7161 50.7787L76.7162 50.7762L76.7162 50.7755L76.7162 50.7752C76.7162 50.7751 76.7162 50.7751 76.5662 50.7722L76.7162 50.7751C76.7169 50.735 76.7017 50.6964 76.6738 50.6677C76.6459 50.639 76.6077 50.6226 76.5676 50.6222L66.9288 50.5308C66.8524 50.53 66.7877 50.5868 66.7784 50.6626C66.7784 50.6626 66.7784 50.6627 66.7784 50.6627L66.7784 50.6629L66.7782 50.6649L66.7768 50.6744C66.7756 50.6831 66.7736 50.6965 66.7706 50.7143C66.7646 50.75 66.7549 50.8032 66.7399 50.8715C66.7099 51.0082 66.659 51.205 66.576 51.4418C66.4099 51.9156 66.1157 52.5481 65.6036 53.1805C64.5842 54.4397 62.6851 55.719 59.1541 55.719H59.1119H59.0692H59.0259H58.9821H58.9377H58.8927H58.8472H58.8011H58.7545H58.7073H58.6596H58.6113H58.5625H58.5132H58.4633H58.4129H58.362H58.3105H58.2585H58.206H58.153H58.0994H58.0454H57.9908H57.9357H57.8801H57.824H57.7674H57.7104H57.6528H57.5947H57.5361H57.477H57.4175H57.3574H57.2969H57.2359H57.1745H57.1125H57.0501H56.9872H56.9239H56.86H56.7958H56.731H56.6658H56.6002H56.5341H56.4676H56.4006H56.3331H56.2653H56.197H56.1282H56.059H55.9894H55.9194H55.8489H55.778H55.7067H55.635H55.5629H55.4903H55.4173H55.344H55.2702H55.196H55.1214H55.0465H54.9711H54.8953H54.8192H54.7427H54.6657H54.5884H54.5107H54.4327H54.3543H54.2754H54.1963H54.1167H54.0368H53.9566H53.8759H53.7949H53.7136H53.6319H53.5499H53.4675H53.3848H53.3017H53.2183H53.1345H53.0505H52.9661H52.8813H52.7963H52.7109H52.6252H52.5391H52.4528H52.3661H52.2792H52.1919H52.1043H52.0164H51.9282H51.8398H51.751H51.6619H51.5726H51.4829H51.393H51.3028H51.2123H51.1215H51.0305H50.9391H50.8475H50.7557H50.6636H50.5712H50.4785H50.3856H50.2925H50.1991H50.1054H50.0115H49.9174H49.823H49.7283H49.6335H49.5384H49.443H49.3475H49.2517H49.1557H49.0594H48.963H48.8663H48.7694H48.6723H48.575H48.4775H48.3798H48.2819H48.1838H48.0855H47.987H47.8883H47.7894H47.6903H47.5911H47.4917H47.3921H47.2923H47.1923H47.0922H46.9919H46.8914H46.7908H46.69H46.5891H46.488H46.3867H46.2853H46.1838H46.0821H45.9803H45.8783H45.7762H45.6739H45.5715H45.469H45.3664H45.2636H45.1608H45.0577H44.9546H44.8514H44.748H44.6446H44.541H44.4374H44.3336H44.2297H44.1258H44.0217H43.9176H43.8133H43.709H43.6046H43.5001H43.3955H43.2909H43.1862H43.0814H42.9765H42.8716H42.7666H42.6615H42.5564H42.4513H42.3461H42.2408H42.1355H42.0301H41.9247H41.8193H41.7138H41.6083H41.5027H41.3971H41.2915H41.1859H41.0802H40.9746H40.8689H40.7631H40.6574H40.5517H40.446H40.3402H40.2345H40.1287H40.023H39.9172H39.8115H39.7058H39.6001H39.4944H39.3887H39.2831H39.1774H39.0718H38.9662H38.8607H38.7552H38.6497H38.5443H38.4389H38.3335H38.2282H38.123H38.0177H37.9126H37.8075H37.7025H37.5975H37.4926H37.3877H37.2829H37.1782H37.0736H36.969H36.8646H36.7602H36.6559H36.5516H36.4475H36.3435H36.2395H36.1357H36.0319H35.9283H35.8247H35.7213H35.618H35.5148H35.4117H35.3087H35.2058H35.1031H35.0005H34.898H34.7956H34.6934H34.5913H34.4893H34.3875H34.2859H34.1843H34.083H33.9818H33.8807H33.7798H33.679H33.5784H33.478H33.3777H33.2776H33.1777H33.0779H32.9784H32.879H32.7797H32.6807H32.5819H32.4832H32.3847H32.2865H32.1884H32.0905H31.9928H31.8954H31.7981H31.701H31.6042H31.5076H31.4111H31.315H31.219H31.1232H31.0277H30.9324H30.8374H30.7425H30.648H30.5536H30.4595H30.3656H30.272H30.1787H30.0856H29.9927H29.9001H29.8078H29.7157H29.6239H29.5323H29.4411H29.3501H29.2593H29.1689H29.0787H28.9888H28.8993H28.8099H28.7209H28.6322H28.5438H28.4556H28.3678H28.2803H28.1931H28.1062H28.0196H27.9333H27.8473H27.7617H27.6763H27.5913H27.5066H27.4223H27.3383H27.2546H27.1712H27.0882H27.0056H26.9232H26.8413H26.7596H26.6784H26.5974H26.5169H26.4367H26.3568H26.2773H26.1982H26.1195H26.0411H25.9631H25.8855H25.8083H25.7314H25.655H25.5789H25.5032H25.4279H25.353H25.2785H25.2044H25.1307H25.0574H24.9845H24.912H24.8399H24.7683H24.6971H24.6263H24.5559H24.4859H24.4164H24.3473H24.2786H24.2104H24.1426H24.0752H24.0083H23.9418H23.8758H23.8103H23.7452H23.6805H23.6163H23.5526H23.4893H23.4265H23.3642H23.3023H23.2409H23.18H23.1196H23.0596H23.0002H22.9412H22.8827H22.8247H22.7672H22.7102H22.6537H22.5977H22.5422H22.4872H22.4327H22.3787H22.3253H22.2723H22.2199H22.168H22.1167H22.0658H22.0155H22.0083L22.0412 51.7548C22.0416 51.6963 22.008 51.6428 21.9551 51.6179C21.9022 51.5929 21.8395 51.601 21.7947 51.6387L11.8083 60.0216C11.7738 60.0506 11.7542 60.0935 11.7548 60.1386C11.7554 60.1836 11.7763 60.226 11.8116 60.254L21.6638 68.07Z" fill="url(#paint2_linear_2208_1020)" stroke="black" stroke-width="0.3" stroke-linejoin="round"/>
<g filter="url(#filter0_dddd_2208_1020)">
<path d="M72.3374 69.688V69.6875L72.3374 33.8318L72.3374 33.8314C72.3347 32.928 71.9747 32.0625 71.3359 31.4237C70.6971 30.7849 69.8315 30.4249 68.9281 30.4223H68.9277L33.0721 30.4223L33.0717 30.4223C32.1683 30.4249 31.3027 30.7849 30.664 31.4237C30.0252 32.0625 29.6652 32.9281 29.6625 33.8314V33.8318L29.6625 69.6875L29.6625 69.688C29.6652 70.5913 30.0252 71.4569 30.664 72.0957C31.3027 72.7344 32.1683 73.0944 33.0717 73.0971H33.0721H68.9277H68.9281C69.8315 73.0945 70.6971 72.7344 71.3359 72.0957C71.9747 71.4569 72.3347 70.5913 72.3374 69.688Z" fill="url(#paint3_linear_2208_1020)" stroke="black" stroke-width="0.3"/>
<path d="M39.3504 59.149C39.7618 59.149 40.0953 58.8155 40.0953 58.4041C40.0953 57.9927 39.7618 57.6592 39.3504 57.6592C38.939 57.6592 38.6055 57.9927 38.6055 58.4041C38.6055 58.8155 38.939 59.149 39.3504 59.149Z" fill="white"/>
<path d="M41.2168 47.6078C41.2168 47.6078 41.1473 47.5284 41.1175 47.4787C41.0877 47.429 41.0877 47.3794 41.0877 47.3198V46.0485C40.8593 45.9392 40.6706 45.7704 40.5315 45.5519C40.3925 45.3433 40.323 45.095 40.3329 44.8368C40.323 44.6481 40.3428 44.4693 40.4024 44.2905C40.462 44.1118 40.5613 43.9528 40.6904 43.8138C40.8196 43.6747 40.9685 43.5655 41.1374 43.496C41.3062 43.4264 41.4949 43.3867 41.6737 43.3867C41.8525 43.3867 42.0412 43.4264 42.21 43.496C42.3789 43.5655 42.5378 43.6747 42.657 43.8138C42.7861 43.9528 42.8755 44.1118 42.945 44.2905C43.0046 44.4693 43.0344 44.6481 43.0145 44.8368C43.0145 45.1645 42.8953 45.4724 42.6868 45.7207C42.4683 45.969 42.1703 46.118 41.8525 46.1677V47.141L50.682 54.8681L50.1854 55.4442L41.2069 47.5979L41.2168 47.6078ZM42.2597 44.8467C42.2597 44.7673 42.2597 44.6779 42.2398 44.5984C42.21 44.519 42.1703 44.4494 42.1206 44.3799C42.0611 44.3203 42.0015 44.2707 41.922 44.2309C41.8425 44.2011 41.7631 44.1813 41.6836 44.1813C41.6042 44.1813 41.5148 44.2011 41.4453 44.2309C41.3658 44.2607 41.3062 44.3104 41.2466 44.3799C41.187 44.4395 41.1473 44.519 41.1274 44.5984C41.0976 44.6779 41.0976 44.7573 41.1076 44.8467C41.1274 44.9957 41.197 45.1248 41.2963 45.2241C41.4055 45.3235 41.5446 45.3731 41.6936 45.3731C41.8425 45.3731 41.9816 45.3235 42.0908 45.2241C42.2001 45.1248 42.2696 44.9957 42.2796 44.8467H42.2597Z" fill="url(#paint4_linear_2208_1020)"/>
<path d="M39.112 47.7869C39.112 47.7869 39.0425 47.7075 39.0127 47.6578C38.9928 47.6082 38.9829 47.5585 38.9829 47.4989V41.9171C38.9829 41.8575 38.9928 41.7979 39.0226 41.7483C39.0524 41.6986 39.0822 41.649 39.1319 41.6192L40.4628 40.626C40.4032 40.4671 40.3635 40.2982 40.3635 40.1294C40.3635 39.8314 40.4628 39.5434 40.6515 39.305C40.8402 39.0666 41.0984 38.9077 41.3865 38.8382C41.6745 38.7687 41.9824 38.7985 42.2505 38.9177C42.5187 39.0368 42.7471 39.2554 42.8763 39.5136C43.0153 39.7817 43.055 40.0797 43.0054 40.3777C42.9458 40.6756 42.7968 40.9339 42.5684 41.1325C42.3399 41.3311 42.0618 41.4404 41.7639 41.4603C41.4659 41.4801 41.1679 41.3907 40.9296 41.2219L39.7278 42.1058V47.3301L50.9808 57.4508L50.4643 58.007L39.1021 47.777L39.112 47.7869ZM41.7142 40.7054C41.7937 40.7054 41.8731 40.6955 41.9426 40.6657C42.0122 40.6359 42.0817 40.5962 42.1314 40.5366C42.1909 40.4869 42.2307 40.4174 42.2605 40.3479C42.2903 40.2783 42.3101 40.1989 42.3101 40.1194C42.3101 40.04 42.3101 39.9506 42.2903 39.8711C42.2605 39.7917 42.2207 39.7222 42.1711 39.6526C42.1115 39.593 42.0519 39.5434 41.9724 39.5037C41.893 39.4739 41.8135 39.454 41.7341 39.454C41.6546 39.454 41.5652 39.4739 41.4957 39.5037C41.4162 39.5334 41.3467 39.5831 41.2971 39.6526C41.2375 39.7122 41.1977 39.7917 41.1779 39.8711C41.1481 39.9506 41.1481 40.03 41.158 40.1194C41.158 40.1989 41.1779 40.2783 41.2077 40.3479C41.2375 40.4174 41.2871 40.4869 41.3368 40.5366C41.3964 40.5862 41.456 40.6359 41.5354 40.6657C41.605 40.6955 41.6844 40.7054 41.7639 40.7054H41.744H41.7142Z" fill="url(#paint5_linear_2208_1020)"/>
<path d="M37.2052 48.4328C37.2052 48.4328 37.1356 48.3534 37.1058 48.3037C37.086 48.2541 37.076 48.2044 37.076 48.1448V38.6895C37.076 38.6299 37.086 38.5704 37.1158 38.5207C37.1456 38.471 37.1853 38.4214 37.225 38.3916L40.3139 36.0377C40.2046 35.8391 40.155 35.6205 40.145 35.3921C40.145 35.0942 40.2344 34.8061 40.4132 34.5777C40.592 34.3393 40.8403 34.1705 41.1283 34.091C41.4163 34.0116 41.7143 34.0314 41.9924 34.1307C42.2705 34.24 42.4989 34.4386 42.6479 34.6869C42.7969 34.9352 42.8664 35.2332 42.8366 35.5312C42.8068 35.8291 42.6777 36.0973 42.4691 36.3158C42.2705 36.5343 42.0023 36.6733 41.7044 36.723C41.4163 36.7727 41.1184 36.723 40.8502 36.584L37.8209 38.8584V47.9561L50.9808 59.6858L50.4743 60.2519L37.2052 48.4328ZM42.0818 35.402C42.0818 35.3226 42.0818 35.2332 42.0619 35.1537C42.0321 35.0743 41.9924 35.0048 41.9427 34.9352C41.8831 34.8756 41.8235 34.826 41.7441 34.7863C41.6646 34.7565 41.5852 34.7366 41.5057 34.7366C41.4263 34.7366 41.3369 34.7565 41.2674 34.7863C41.1879 34.8161 41.1283 34.8657 41.0687 34.9352C41.0091 34.9948 40.9694 35.0743 40.9495 35.1537C40.9197 35.2332 40.9197 35.3127 40.9297 35.402C40.9495 35.551 41.0191 35.6801 41.1184 35.7795C41.2276 35.8788 41.3667 35.9284 41.5157 35.9284C41.6646 35.9284 41.8037 35.8788 41.9129 35.7795C42.0222 35.6801 42.0917 35.551 42.1016 35.402H42.0818Z" fill="url(#paint6_linear_2208_1020)"/>
<path d="M35.7448 45.3939V48.2841L50.9507 61.6923L50.4541 62.2584L35.1191 48.7409C35.1191 48.7409 35.0495 48.6615 35.0198 48.6118C34.9999 48.5622 34.99 48.5125 34.99 48.4529V45.4236C34.6821 45.3343 34.4139 45.1356 34.2351 44.8575C34.0563 44.5894 33.9868 44.2616 34.0365 43.9339C34.0861 43.616 34.2451 43.3181 34.4834 43.1095C34.7317 42.9009 35.0396 42.7817 35.3674 42.7817C35.6951 42.7817 36.003 42.9009 36.2513 43.1095C36.4996 43.3181 36.6585 43.616 36.6983 43.9339C36.7479 44.2517 36.6685 44.5794 36.4996 44.8575C36.3208 45.1257 36.0527 45.3343 35.7448 45.4236V45.3839V45.3939ZM35.3674 43.5266C35.2482 43.5266 35.1389 43.5564 35.0396 43.626C34.9403 43.6955 34.8708 43.7849 34.8211 43.8941C34.7715 44.0034 34.7615 44.1226 34.7913 44.2318C34.8112 44.351 34.8708 44.4503 34.9502 44.5298C35.0297 44.6092 35.1389 44.6688 35.2482 44.6887C35.3674 44.7085 35.4866 44.6986 35.5859 44.6589C35.6951 44.6092 35.7845 44.5397 35.854 44.4404C35.9236 44.3411 35.9534 44.2318 35.9534 44.1126C35.9534 44.0332 35.9434 43.9537 35.9136 43.8842C35.8838 43.8147 35.8441 43.7451 35.7845 43.6856C35.7249 43.626 35.6653 43.5862 35.5958 43.5564C35.5263 43.5266 35.4468 43.5068 35.3674 43.5068V43.5266Z" fill="url(#paint7_linear_2208_1020)"/>
<path d="M35.2086 50.0715H35.4668C35.4668 50.0715 35.5562 50.0715 35.6059 50.0914C35.6456 50.1112 35.6853 50.1311 35.7251 50.1609L50.9508 63.6287L50.4443 64.1849L35.3278 50.8164H35.1589C35.0696 51.0448 34.9305 51.2534 34.7319 51.4024C34.5432 51.5514 34.3147 51.6507 34.0664 51.6805C33.8181 51.7103 33.5798 51.6805 33.3513 51.5812C33.1229 51.4819 32.9342 51.3229 32.7951 51.1243C32.6561 50.9257 32.5766 50.6873 32.5568 50.439C32.5369 50.1907 32.5965 49.9523 32.7057 49.7338C32.815 49.5153 32.9938 49.3365 33.2023 49.2074C33.4109 49.0783 33.6493 49.0088 33.8976 49.0088C34.2055 49.0088 34.4935 49.118 34.7319 49.3067C34.9702 49.4955 35.1391 49.7636 35.2086 50.0516V50.0715ZM33.8976 49.7835C33.7784 49.7835 33.6691 49.8133 33.5698 49.8828C33.4705 49.9424 33.3911 50.0417 33.3513 50.151C33.3017 50.2602 33.2917 50.3794 33.3116 50.4986C33.3315 50.6178 33.3911 50.7171 33.4705 50.8065C33.55 50.8859 33.6592 50.9455 33.7784 50.9654C33.8976 50.9853 34.0168 50.9753 34.126 50.9257C34.2353 50.876 34.3247 50.8065 34.3942 50.7072C34.4538 50.6078 34.4935 50.4887 34.4935 50.3794C34.4935 50.2205 34.4339 50.0715 34.3247 49.9623C34.2154 49.853 34.0664 49.7934 33.9075 49.7934L33.8976 49.7835Z" fill="url(#paint8_linear_2208_1020)"/>
<path d="M32.0196 66.3105C32.2877 66.3105 32.546 66.39 32.7645 66.539C32.983 66.688 33.1618 66.8965 33.2611 67.1448C33.3604 67.3931 33.3902 67.6613 33.3405 67.9195C33.2909 68.1778 33.1618 68.4261 32.973 68.6148C32.7843 68.8035 32.546 68.9326 32.2778 68.9823C32.0096 69.0319 31.7415 69.012 31.5031 68.9028C31.2548 68.8035 31.0462 68.6247 30.8973 68.4062C30.7483 68.1877 30.6688 67.9195 30.6688 67.6613C30.6688 67.3037 30.8079 66.9561 31.0661 66.7078C31.3144 66.4595 31.662 66.3105 32.0196 66.3105ZM32.0196 68.2473C32.1785 68.2473 32.3275 68.1877 32.4367 68.0784C32.546 67.9692 32.6056 67.8202 32.6056 67.6613C32.6056 67.5421 32.5758 67.4329 32.5062 67.3335C32.4467 67.2342 32.3473 67.1548 32.2381 67.115C32.1288 67.0654 32.0096 67.0554 31.8905 67.0753C31.7713 67.0952 31.672 67.1548 31.5826 67.2342C31.5031 67.3137 31.4435 67.4229 31.4237 67.5421C31.4038 67.6613 31.4137 67.7805 31.4634 67.8897C31.513 67.999 31.5826 68.0884 31.6819 68.1579C31.7812 68.2175 31.9004 68.2572 32.0096 68.2572L32.0196 68.2473Z" fill="url(#paint9_linear_2208_1020)"/>
<path d="M59.3935 45.5127C59.8049 45.5127 60.1384 45.1792 60.1384 44.7678C60.1384 44.3565 59.8049 44.0229 59.3935 44.0229C58.9821 44.0229 58.6486 44.3565 58.6486 44.7678C58.6486 45.1792 58.9821 45.5127 59.3935 45.5127Z" fill="white"/>
<path d="M61.7177 59.149C62.1291 59.149 62.4626 58.8155 62.4626 58.4041C62.4626 57.9927 62.1291 57.6592 61.7177 57.6592C61.3063 57.6592 60.9728 57.9927 60.9728 58.4041C60.9728 58.8155 61.3063 59.149 61.7177 59.149Z" fill="white"/>
<path d="M59.8492 47.6078C59.8492 47.6078 59.9187 47.5284 59.9485 47.4787C59.9684 47.429 59.9783 47.3794 59.9783 47.3198V46.0485C60.2067 45.9392 60.3954 45.7704 60.5345 45.5519C60.6735 45.3433 60.7431 45.095 60.7331 44.8368C60.7431 44.6481 60.7232 44.4693 60.6636 44.2905C60.604 44.1118 60.5047 43.9528 60.3756 43.8138C60.2465 43.6747 60.0975 43.5655 59.9286 43.496C59.7598 43.4264 59.5711 43.3867 59.3923 43.3867C59.2135 43.3867 59.0248 43.4264 58.856 43.496C58.6871 43.5655 58.5282 43.6747 58.409 43.8138C58.2799 43.9528 58.1905 44.1118 58.121 44.2905C58.0614 44.4693 58.0316 44.6481 58.0515 44.8368C58.0515 45.1645 58.1707 45.4724 58.3792 45.7207C58.5977 45.969 58.8957 46.118 59.2135 46.1677V47.141L49.9569 55.176L50.4535 55.7521L59.8492 47.5979V47.6078ZM58.8063 44.8467C58.8063 44.7673 58.8063 44.6779 58.8262 44.5984C58.856 44.519 58.8957 44.4494 58.9454 44.3799C59.005 44.3203 59.0646 44.2707 59.144 44.2309C59.2235 44.2011 59.3029 44.1813 59.3824 44.1813C59.4618 44.1813 59.5512 44.2011 59.6207 44.2309C59.7002 44.2607 59.7598 44.3104 59.8194 44.3799C59.879 44.4395 59.9187 44.519 59.9386 44.5984C59.9684 44.6779 59.9684 44.7573 59.9584 44.8467C59.9386 44.9957 59.869 45.1248 59.7697 45.2241C59.6605 45.3235 59.5214 45.3731 59.3724 45.3731C59.2235 45.3731 59.0844 45.3235 58.9752 45.2241C58.8659 45.1248 58.7964 44.9957 58.7865 44.8467H58.8063Z" fill="url(#paint10_linear_2208_1020)"/>
<path d="M61.9656 47.7869C61.9656 47.7869 62.0351 47.7075 62.0649 47.6578C62.0848 47.6082 62.0947 47.5585 62.0947 47.4989V41.9171C62.0947 41.8575 62.0848 41.7979 62.055 41.7483C62.0252 41.6986 61.9954 41.649 61.9458 41.6192L60.6149 40.626C60.6745 40.4671 60.7142 40.2982 60.7142 40.1294C60.7142 39.8314 60.6149 39.5434 60.4262 39.305C60.2374 39.0666 59.9792 38.9077 59.6912 38.8382C59.4032 38.7687 59.0953 38.7985 58.8271 38.9177C58.5589 39.0368 58.3305 39.2554 58.2014 39.5136C58.0623 39.7817 58.0226 40.0797 58.0723 40.3777C58.1319 40.6756 58.2808 40.9339 58.5093 41.1325C58.7377 41.3311 59.0158 41.4404 59.3138 41.4603C59.6117 41.4801 59.9097 41.3907 60.1481 41.2219L61.3498 42.1058V47.3301L49.9976 57.4011L50.514 57.9573L61.9755 47.777L61.9656 47.7869ZM59.3634 40.7054C59.284 40.7054 59.2145 40.6955 59.135 40.6657C59.0655 40.6359 58.9959 40.5962 58.9463 40.5366C58.8867 40.4869 58.847 40.4174 58.8172 40.3479C58.7874 40.2783 58.7675 40.1989 58.7675 40.1194C58.7675 40.04 58.7675 39.9506 58.7874 39.8711C58.8172 39.7917 58.8569 39.7222 58.9066 39.6526C58.9662 39.593 59.0257 39.5434 59.1052 39.5037C59.1847 39.4739 59.2641 39.454 59.3436 39.454C59.423 39.454 59.5124 39.4739 59.5819 39.5037C59.6614 39.5334 59.721 39.5831 59.7806 39.6526C59.8402 39.7122 59.8799 39.7917 59.8998 39.8711C59.9296 39.9506 59.9296 40.03 59.9196 40.1194C59.9196 40.1989 59.8998 40.2783 59.87 40.3479C59.8402 40.4174 59.7905 40.4869 59.7409 40.5366C59.6813 40.5862 59.6217 40.6359 59.5422 40.6657C59.4727 40.6955 59.3932 40.7054 59.3138 40.7054H59.3336H59.3634Z" fill="url(#paint11_linear_2208_1020)"/>
<path d="M63.8613 48.4328C63.8613 48.4328 63.9308 48.3534 63.9606 48.3037C63.9804 48.254 63.9904 48.2044 63.9904 48.1448V38.6895C63.9904 38.6299 63.9804 38.5704 63.9506 38.5207C63.9209 38.471 63.8811 38.4214 63.8414 38.3916L60.7525 36.0377C60.8618 35.8391 60.9115 35.6205 60.9214 35.3921C60.9214 35.0942 60.832 34.8061 60.6532 34.5777C60.4745 34.3393 60.2261 34.1705 59.9381 34.091C59.6501 34.0116 59.3521 34.0314 59.074 34.1307C58.7959 34.24 58.5675 34.4386 58.4185 34.6869C58.2695 34.9352 58.2 35.2332 58.2298 35.5312C58.2596 35.8291 58.3887 36.0973 58.5973 36.3158C58.7959 36.5343 59.0641 36.6733 59.3621 36.723C59.6501 36.7727 59.9481 36.723 60.2162 36.584L63.2455 38.8584V47.9561L49.9465 59.7156L50.4531 60.2817L63.8613 48.4328ZM58.9847 35.402C58.9847 35.3226 58.9847 35.2332 59.0045 35.1537C59.0343 35.0743 59.074 35.0048 59.1237 34.9352C59.1833 34.8756 59.2429 34.826 59.3223 34.7863C59.4018 34.7565 59.4813 34.7366 59.5607 34.7366C59.6402 34.7366 59.7296 34.7565 59.7991 34.7863C59.8785 34.8161 59.9381 34.8657 59.9977 34.9352C60.0573 34.9948 60.097 35.0743 60.1169 35.1537C60.1467 35.2332 60.1467 35.3127 60.1368 35.402C60.1169 35.551 60.0474 35.6801 59.9481 35.7795C59.8388 35.8788 59.6998 35.9284 59.5508 35.9284C59.4018 35.9284 59.2627 35.8788 59.1535 35.7795C59.0442 35.6801 58.9747 35.551 58.9648 35.402H58.9847Z" fill="url(#paint12_linear_2208_1020)"/>
<path d="M65.2428 45.5024V48.3926L50.0369 61.8008L50.5335 62.367L65.8685 48.8396C65.8685 48.8396 65.938 48.7601 65.9678 48.7105C65.9877 48.6608 65.9976 48.6111 65.9976 48.5515V45.5223C66.3055 45.4329 66.5736 45.2343 66.7524 44.9562C66.9312 44.688 67.0007 44.3602 66.9511 44.0325C66.9014 43.7147 66.7425 43.4167 66.5041 43.2081C66.2558 42.9996 65.9479 42.8804 65.6202 42.8804C65.2924 42.8804 64.9845 42.9996 64.7362 43.2081C64.4879 43.4167 64.329 43.7147 64.2893 44.0325C64.2396 44.3503 64.3191 44.6781 64.4879 44.9562C64.6667 45.2243 64.9349 45.4329 65.2428 45.5223V45.4826V45.5024ZM65.6202 43.6352C65.7394 43.6352 65.8486 43.665 65.9479 43.7345C66.0472 43.804 66.1168 43.8934 66.1664 44.0027C66.2161 44.1119 66.226 44.2311 66.1962 44.3404C66.1764 44.4596 66.1168 44.5589 66.0373 44.6383C65.9579 44.7178 65.8486 44.7774 65.7394 44.7972C65.6202 44.8171 65.501 44.8072 65.4017 44.7675C65.2924 44.7178 65.203 44.6483 65.1335 44.5489C65.064 44.4496 65.0342 44.3404 65.0342 44.2212C65.0342 44.1417 65.0441 44.0623 65.0739 43.9928C65.1037 43.9232 65.1434 43.8537 65.203 43.7941C65.2626 43.7345 65.3222 43.6948 65.3917 43.665C65.4613 43.6352 65.5407 43.6153 65.6202 43.6153V43.6352Z" fill="url(#paint13_linear_2208_1020)"/>
<path d="M65.8683 50.0715H65.6101C65.6101 50.0715 65.5207 50.0715 65.471 50.0914C65.4313 50.1112 65.3916 50.1311 65.3519 50.1609L49.9871 63.6585L50.4936 64.2147L65.7392 50.8164H65.908C65.9974 51.0448 66.1365 51.2534 66.3351 51.4024C66.5238 51.5514 66.7523 51.6507 67.0006 51.6805C67.2489 51.7103 67.4872 51.6805 67.7157 51.5812C67.9441 51.4819 68.1328 51.3229 68.2719 51.1243C68.4109 50.9257 68.4904 50.6873 68.5102 50.439C68.5301 50.1907 68.4705 49.9523 68.3613 49.7338C68.252 49.5153 68.0732 49.3365 67.8647 49.2074C67.6561 49.0783 67.4177 49.0088 67.1694 49.0088C66.8615 49.0088 66.5735 49.118 66.3351 49.3067C66.0968 49.4955 65.9279 49.7636 65.8584 50.0516L65.8683 50.0715ZM67.1793 49.7835C67.2985 49.7835 67.4078 49.8133 67.5071 49.8828C67.6064 49.9424 67.6859 50.0417 67.7256 50.151C67.7753 50.2602 67.7852 50.3794 67.7653 50.4986C67.7455 50.6178 67.6859 50.7171 67.6064 50.8065C67.527 50.8859 67.4177 50.9455 67.2985 50.9654C67.1793 50.9853 67.0602 50.9753 66.9509 50.9257C66.8417 50.876 66.7523 50.8065 66.6827 50.7072C66.6232 50.6078 66.5834 50.4887 66.5834 50.3794C66.5834 50.2205 66.643 50.0715 66.7523 49.9623C66.8615 49.853 67.0105 49.7934 67.1694 49.7934L67.1793 49.7835Z" fill="url(#paint14_linear_2208_1020)"/>
<path d="M69.0572 66.3101C68.789 66.3101 68.5308 66.3895 68.3123 66.5385C68.0938 66.6875 67.915 66.896 67.8157 67.1443C67.7164 67.3926 67.6866 67.6608 67.7362 67.919C67.7859 68.1773 67.915 68.4256 68.1037 68.6143C68.2924 68.803 68.5308 68.9321 68.799 68.9818C69.0572 69.0314 69.3353 69.0116 69.5737 68.9023C69.822 68.803 70.0305 68.6242 70.1795 68.4057C70.3285 68.1872 70.4079 67.919 70.4079 67.6608C70.4079 67.3033 70.2689 66.9556 70.0107 66.7073C69.7524 66.459 69.4147 66.3101 69.0572 66.3101ZM69.0572 68.2468C68.8983 68.2468 68.7493 68.1872 68.64 68.078C68.5308 67.9687 68.4712 67.8197 68.4712 67.6608C68.4712 67.5416 68.501 67.4324 68.5705 67.3331C68.6301 67.2337 68.7294 67.1543 68.8387 67.1145C68.9479 67.0649 69.0671 67.055 69.1863 67.0748C69.3055 67.0947 69.4048 67.1543 69.4942 67.2337C69.5836 67.3132 69.6332 67.4224 69.6531 67.5416C69.673 67.6608 69.663 67.78 69.6134 67.8892C69.5637 67.9985 69.4942 68.0879 69.3949 68.1574C69.2956 68.217 69.1764 68.2567 69.0671 68.2567L69.0572 68.2468Z" fill="url(#paint15_linear_2208_1020)"/>
<path d="M43.9193 68.177C43.9193 68.1174 43.9094 68.0479 43.8796 67.9982C43.8498 67.9386 43.81 67.8989 43.7604 67.8592L38.0395 64.0751C38.0395 64.0055 38.0395 63.936 38.0395 63.8665C38.0098 63.5288 37.8608 63.211 37.6125 62.9826C37.3642 62.7541 37.0364 62.625 36.6987 62.625C36.361 62.625 36.0333 62.7541 35.785 62.9826C35.5367 63.211 35.3778 63.5288 35.3579 63.8665C35.3579 64.1446 35.4374 64.4028 35.5963 64.6313C35.7552 64.8597 35.9737 65.0285 36.222 65.1279C36.4802 65.2272 36.7583 65.2371 37.0265 65.1775C37.2946 65.108 37.533 64.969 37.7118 64.7604L43.1645 68.4054V72.7755H43.9392V68.177H43.9193ZM37.245 64.1148C37.2152 64.1943 37.1755 64.2638 37.1258 64.3333C37.0761 64.4028 37.0066 64.4426 36.9272 64.4823C36.8477 64.5121 36.7683 64.5319 36.6888 64.5319C36.6093 64.5319 36.52 64.5121 36.4504 64.4823C36.371 64.4525 36.3014 64.4028 36.2518 64.3333C36.2021 64.2638 36.1525 64.1943 36.1326 64.1148C36.1127 64.0353 36.1028 63.9559 36.1127 63.8665C36.1127 63.787 36.1326 63.7175 36.1624 63.6381C36.1922 63.5586 36.2319 63.499 36.2915 63.4494C36.3511 63.3997 36.4107 63.35 36.4802 63.3202C36.5497 63.2904 36.6292 63.2805 36.7087 63.2805C36.8676 63.2805 37.0166 63.3401 37.1258 63.4494C37.2351 63.5586 37.2946 63.7076 37.2946 63.8665C37.2946 63.946 37.2946 64.0353 37.2748 64.1148H37.245Z" fill="url(#paint16_linear_2208_1020)"/>
<path d="M42.5981 70.899C42.5981 70.8394 42.5783 70.7799 42.5584 70.7203C42.5286 70.6706 42.4889 70.6209 42.4392 70.5812L38.0592 67.6016C38.0592 67.552 38.0592 67.4924 38.0592 67.4427C38.0592 67.0852 37.9202 66.7475 37.6619 66.4992C37.4136 66.2509 37.066 66.1019 36.7184 66.1019C36.4304 66.1019 36.1523 66.1913 35.9238 66.3601L33.3217 64.4929C33.4309 64.2943 33.4905 64.0658 33.5004 63.8374H33.5203C33.5203 63.5692 33.4408 63.311 33.2919 63.0826C33.1429 62.8641 32.9343 62.6853 32.686 62.586C32.4377 62.4866 32.1695 62.4568 31.9014 62.5065C31.6431 62.5562 31.3948 62.6853 31.2061 62.874C31.0174 63.0627 30.8883 63.3011 30.8387 63.5692C30.789 63.8275 30.8188 64.1056 30.9181 64.3539C31.0174 64.6022 31.1962 64.8107 31.4147 64.9597C31.6332 65.1087 31.9014 65.1881 32.1695 65.1881C32.3781 65.1881 32.5867 65.1285 32.7754 65.0292L35.4769 66.966C35.4173 67.1249 35.3875 67.2838 35.3875 67.4526C35.3875 67.8102 35.5266 68.1578 35.7848 68.4061C36.0331 68.6544 36.3807 68.8034 36.7383 68.8034C36.9369 68.8034 37.1256 68.7537 37.3044 68.6743C37.4832 68.5948 37.6421 68.4657 37.7613 68.3167L41.8532 71.1076V72.7762H42.6081V70.899H42.5981ZM32.7257 64.0857C32.6959 64.1651 32.6562 64.2347 32.6065 64.3042C32.547 64.3638 32.4874 64.4134 32.4079 64.4532C32.3285 64.483 32.249 64.5028 32.1695 64.5028C32.0901 64.5028 32.0007 64.483 31.9312 64.4532C31.8616 64.4234 31.7822 64.3737 31.7325 64.3042C31.6729 64.2446 31.6332 64.1651 31.6133 64.0857C31.5836 64.0062 31.5836 63.9268 31.5935 63.8374C31.5935 63.7579 31.6133 63.6884 31.6431 63.609C31.6729 63.5394 31.7127 63.4699 31.7723 63.4202C31.8319 63.3706 31.8914 63.3209 31.961 63.2911C32.0305 63.2613 32.1 63.2514 32.1795 63.2514H32.1993C32.2788 63.2514 32.3483 63.2613 32.4178 63.2911C32.4874 63.3209 32.5569 63.3607 32.6165 63.4202C32.6761 63.4699 32.7158 63.5394 32.7456 63.609C32.7754 63.6785 32.7953 63.7579 32.7953 63.8374C32.7953 63.9168 32.7953 64.0062 32.7754 64.0857H32.7257ZM37.1256 67.8598C37.0164 67.9691 36.8674 68.0386 36.7085 68.0386C36.629 68.0386 36.5496 68.0188 36.48 67.989C36.4105 67.9592 36.341 67.9194 36.2913 67.8598C36.2417 67.8003 36.192 67.7407 36.1622 67.6711C36.1324 67.6016 36.1125 67.5222 36.1125 67.4427C36.1324 67.2937 36.2019 67.1646 36.3013 67.0653C36.4105 66.966 36.5496 66.9163 36.6985 66.9163C36.8475 66.9163 36.9866 66.966 37.0958 67.0653C37.2051 67.1646 37.2746 67.2937 37.2945 67.4427C37.2945 67.6016 37.2349 67.7506 37.1256 67.8598Z" fill="url(#paint17_linear_2208_1020)"/>
<path d="M38.1585 71.6139C38.1585 71.5245 38.1585 71.4351 38.1585 71.3457C38.1585 71.0775 38.079 70.8193 37.93 70.5909C37.7811 70.3724 37.5725 70.1936 37.3242 70.0943C37.0759 69.9949 36.8077 69.9651 36.5396 70.0148C36.2813 70.0645 36.033 70.1936 35.8443 70.3823C35.6556 70.571 35.5265 70.8094 35.4768 71.0775C35.4272 71.3358 35.457 71.6139 35.5563 71.8622C35.6556 72.1105 35.8344 72.319 36.0529 72.468C36.2714 72.617 36.5396 72.6964 36.8077 72.6964C36.9865 72.6964 37.1653 72.6567 37.3242 72.5872C37.493 72.5177 37.6321 72.4183 37.7612 72.2892L38.5955 72.7858H40.0853L38.1485 71.6238L38.1585 71.6139ZM37.3738 71.594C37.3441 71.6734 37.3043 71.743 37.2547 71.8125C37.1951 71.8721 37.1355 71.9217 37.056 71.9615C36.9766 71.9913 36.8971 72.0111 36.8177 72.0111C36.7382 72.0111 36.6488 71.9913 36.5793 71.9615C36.4998 71.9317 36.4303 71.882 36.3806 71.8125C36.3211 71.7529 36.2813 71.6734 36.2615 71.594C36.2317 71.5145 36.2317 71.4351 36.2416 71.3457C36.2416 71.2662 36.2615 71.1967 36.2913 71.1173C36.3211 71.0477 36.3608 70.9782 36.4204 70.9285C36.48 70.8789 36.5396 70.8292 36.6091 70.7994C36.6786 70.7696 36.7581 70.7597 36.8375 70.7597C36.917 70.7597 36.9865 70.7597 37.066 70.7994C37.1355 70.8292 37.205 70.869 37.2547 70.9285C37.3043 70.9881 37.354 71.0477 37.3838 71.1173C37.4136 71.1868 37.4235 71.2662 37.4235 71.3457C37.4235 71.4251 37.4235 71.5145 37.4036 71.594H37.3738Z" fill="url(#paint18_linear_2208_1020)"/>
<path d="M57.9226 68.4054L63.3752 64.7604C63.554 64.969 63.7924 65.108 64.0605 65.1775C64.3287 65.247 64.6068 65.2272 64.865 65.1279C65.1233 65.0285 65.3418 64.8597 65.4907 64.6313C65.6497 64.4028 65.7291 64.1347 65.7291 63.8665C65.6993 63.5288 65.5503 63.211 65.302 62.9826C65.0537 62.7541 64.726 62.625 64.3883 62.625C64.0506 62.625 63.7228 62.7541 63.4745 62.9826C63.2262 63.211 63.0673 63.5288 63.0475 63.8665C63.0475 63.936 63.0475 64.0055 63.0475 64.0751L57.3266 67.8592C57.277 67.8989 57.2372 67.9386 57.2075 67.9982C57.1777 68.0578 57.1677 68.1174 57.1677 68.177V72.7755H57.9424V68.4054H57.9226ZM63.9612 63.4494C64.0705 63.3401 64.2194 63.2805 64.3784 63.2805C64.4578 63.2805 64.5373 63.2904 64.6068 63.3202C64.6763 63.35 64.7458 63.3898 64.7955 63.4494C64.8551 63.499 64.8948 63.5685 64.9246 63.6381C64.9544 63.7076 64.9743 63.787 64.9743 63.8665C64.9743 63.946 64.9743 64.0353 64.9544 64.1148C64.9345 64.1943 64.8849 64.2638 64.8352 64.3333C64.7756 64.3929 64.716 64.4426 64.6366 64.4823C64.5571 64.5121 64.4777 64.5319 64.3982 64.5319C64.3188 64.5319 64.2294 64.5121 64.1599 64.4823C64.0804 64.4525 64.0109 64.4028 63.9612 64.3333C63.9116 64.2638 63.8619 64.1943 63.842 64.1148C63.8222 64.0353 63.8122 63.9559 63.8222 63.8665C63.8222 63.7076 63.8818 63.5586 63.991 63.4494H63.9612Z" fill="url(#paint19_linear_2208_1020)"/>
<path d="M59.2342 71.1069L63.3261 68.316C63.4553 68.4649 63.6042 68.5841 63.783 68.6735C63.9618 68.753 64.1505 68.8026 64.3491 68.8026C64.7067 68.8026 65.0543 68.6636 65.3026 68.4053C65.5509 68.157 65.6999 67.8094 65.6999 67.4519C65.6999 67.283 65.6701 67.1241 65.6105 66.9652L68.312 65.0285C68.5007 65.1278 68.7093 65.1874 68.9179 65.1874C69.186 65.1874 69.4443 65.1079 69.6727 64.9589C69.8912 64.81 70.07 64.6014 70.1693 64.3531C70.2686 64.1048 70.2984 63.8366 70.2487 63.5685C70.1991 63.3102 70.07 63.0619 69.8813 62.8732C69.6925 62.6845 69.4542 62.5554 69.186 62.5057C68.9278 62.4561 68.6497 62.4759 68.4014 62.5852C68.1531 62.6845 67.9445 62.8633 67.7955 63.0818C67.6466 63.3003 67.5671 63.5685 67.5671 63.8366H67.587C67.587 64.0651 67.6466 64.2935 67.7657 64.4921L65.1636 66.3594C64.9351 66.1905 64.657 66.1011 64.369 66.1011C64.0114 66.1011 63.6738 66.2402 63.4255 66.4984C63.1772 66.7467 63.0282 67.0943 63.0282 67.4419C63.0282 67.4916 63.0282 67.5512 63.0282 67.6009L58.6482 70.5805C58.5985 70.6103 58.5588 70.6599 58.529 70.7195C58.4992 70.7692 58.4893 70.8387 58.4893 70.8983V72.7754H59.2441V71.1069H59.2342ZM68.3716 63.6181C68.4014 63.5486 68.4511 63.4791 68.5007 63.4294C68.5603 63.3798 68.6199 63.3301 68.6994 63.3003C68.7689 63.2705 68.8483 63.2606 68.9179 63.2606H68.9377C69.0172 63.2606 69.0867 63.2705 69.1562 63.3003C69.2257 63.3301 69.2953 63.3698 69.3449 63.4294C69.4045 63.4791 69.4443 63.5486 69.474 63.6181C69.5038 63.6877 69.5237 63.7671 69.5237 63.8466C69.5237 63.926 69.5237 64.0154 69.5038 64.0949C69.474 64.1743 69.4343 64.2438 69.3847 64.3134C69.3251 64.373 69.2655 64.4226 69.186 64.4623C69.1066 64.4921 69.0271 64.512 68.9477 64.512C68.8682 64.512 68.7788 64.4921 68.7093 64.4623C68.6298 64.4325 68.5603 64.3829 68.5106 64.3134C68.451 64.2538 68.4113 64.1743 68.3915 64.0949C68.3617 64.0154 68.3617 63.936 68.3716 63.8466C68.3716 63.7671 68.3915 63.6877 68.4213 63.6181H68.3716ZM63.9717 67.0745C64.081 66.9751 64.22 66.9255 64.369 66.9255C64.518 66.9255 64.657 66.9751 64.7663 67.0745C64.8755 67.1738 64.9451 67.3029 64.9649 67.4519C64.9649 67.5313 64.9451 67.6108 64.9153 67.6803C64.8855 67.7498 64.8457 67.8194 64.7861 67.869C64.7266 67.9286 64.667 67.9683 64.5974 67.9981C64.5279 68.0279 64.4485 68.0478 64.369 68.0478C64.2101 68.0478 64.0611 67.9783 63.9519 67.869C63.8426 67.7598 63.783 67.6108 63.783 67.4519C63.8029 67.3029 63.8724 67.1738 63.9717 67.0745Z" fill="url(#paint20_linear_2208_1020)"/>
<path d="M63.297 72.2797C63.4162 72.4088 63.5652 72.5081 63.734 72.5776C63.9029 72.6472 64.0717 72.6869 64.2505 72.6869C64.5187 72.6869 64.7769 72.6074 65.0053 72.4585C65.2338 72.3095 65.4026 72.1009 65.5019 71.8526C65.6013 71.6043 65.6311 71.3361 65.5814 71.068C65.5317 70.8097 65.4026 70.5614 65.2139 70.3727C65.0252 70.184 64.7868 70.0549 64.5187 70.0053C64.2604 69.9556 63.9823 69.9755 63.734 70.0847C63.4857 70.184 63.2772 70.3628 63.1282 70.5813C62.9792 70.7998 62.8998 71.068 62.8998 71.3361C62.8998 71.4255 62.8998 71.5149 62.8998 71.6043L60.963 72.7664H62.4528L63.2871 72.2698L63.297 72.2797ZM63.7142 71.1176C63.744 71.0481 63.7837 70.9786 63.8433 70.9289C63.893 70.8693 63.9625 70.8296 64.032 70.7998C64.1015 70.77 64.181 70.7502 64.2604 70.7502C64.3399 70.7502 64.4094 70.77 64.4889 70.7998C64.5584 70.8296 64.6279 70.8693 64.6776 70.9289C64.7372 70.9786 64.7769 71.0481 64.8067 71.1176C64.8365 71.1872 64.8564 71.2666 64.8564 71.3461C64.8564 71.4255 64.8564 71.5149 64.8365 71.5944C64.8166 71.6738 64.767 71.7434 64.7173 71.8129C64.6577 71.8725 64.5981 71.9221 64.5187 71.9619C64.4392 71.9917 64.3598 72.0115 64.2803 72.0115C64.2008 72.0115 64.1115 71.9917 64.0419 71.9619C63.9625 71.9321 63.893 71.8824 63.8433 71.8129C63.7837 71.7533 63.744 71.6738 63.7241 71.5944C63.7042 71.5149 63.6943 71.4355 63.7042 71.3461C63.7042 71.2666 63.7142 71.1872 63.744 71.1176H63.7142Z" fill="url(#paint21_linear_2208_1020)"/>
<path d="M47.6627 67.2344V66.9563L42.7166 63.5298V62.1393C42.9748 62.0996 43.2033 61.9804 43.392 61.8116C43.5807 61.6427 43.7197 61.4143 43.7893 61.166C43.8588 60.9177 43.8488 60.6595 43.7793 60.4112C43.6999 60.1629 43.5608 59.9443 43.3622 59.7854C43.1635 59.6166 42.9252 59.5173 42.6669 59.4775C42.4087 59.4477 42.1505 59.4775 41.922 59.5967C41.6936 59.706 41.495 59.8748 41.3559 60.0933C41.2169 60.3118 41.1473 60.5601 41.1473 60.8184C41.1473 61.0865 41.2268 61.3448 41.3758 61.5633C41.5248 61.7818 41.7234 61.9605 41.9717 62.0599V63.7384C41.9717 63.798 41.9916 63.8576 42.0114 63.9171C42.0412 63.9668 42.0809 64.0165 42.1306 64.0562L46.9476 67.3437L46.9278 72.7666H47.7323L47.6727 67.2543L47.6627 67.2344ZM42.369 61.3944C42.2498 61.3746 42.1505 61.315 42.0611 61.2355C41.9816 61.156 41.922 61.0468 41.9022 60.9276C41.8823 60.8084 41.8922 60.6892 41.9419 60.58C41.9916 60.4707 42.0611 60.3814 42.1604 60.3118C42.2597 60.2522 42.3789 60.2125 42.4882 60.2125C42.6471 60.2125 42.7961 60.2721 42.9053 60.3814C43.0146 60.4906 43.0741 60.6396 43.0741 60.7985C43.0741 60.9177 43.0444 61.0269 42.9748 61.1263C42.9152 61.2256 42.8159 61.305 42.7067 61.3448C42.5974 61.3845 42.4782 61.4044 42.359 61.3845L42.369 61.3944Z" fill="url(#paint22_linear_2208_1020)"/>
<path d="M46.0643 67.9195L45.8855 67.5619L39.7475 63.3806V59.6859C40.0554 59.5965 40.3236 59.3978 40.5024 59.1197C40.6811 58.8516 40.7507 58.5238 40.701 58.1961C40.6513 57.8782 40.4924 57.5803 40.2541 57.3717C40.0058 57.1631 39.6979 57.0439 39.3701 57.0439C39.0423 57.0439 38.7345 57.1631 38.4862 57.3717C38.2379 57.5803 38.0789 57.8782 38.0392 58.1961C37.9995 58.5139 38.069 58.8416 38.2379 59.1197C38.4067 59.3978 38.6848 59.5965 38.9927 59.6859V63.5693C38.9927 63.6289 39.0126 63.6885 39.0423 63.748C39.0721 63.7977 39.1119 63.8474 39.1615 63.8871L45.3889 68.1181L45.4088 72.7564H46.0941L46.0742 67.9195H46.0643ZM39.3602 58.9906C39.2807 58.9906 39.2013 58.9807 39.1317 58.9509C39.0622 58.9211 38.9927 58.8814 38.943 58.8218C38.8834 58.7721 38.8437 58.7026 38.8139 58.6331C38.7841 58.5635 38.7643 58.4841 38.7643 58.4046C38.7643 58.2457 38.8238 58.0967 38.9331 57.9875C39.0423 57.8782 39.1913 57.8186 39.3502 57.8186C39.4297 57.8186 39.4992 57.8385 39.5787 57.8683C39.6482 57.8981 39.7177 57.9378 39.7674 57.9974C39.817 58.057 39.8667 58.1166 39.8965 58.1861C39.9263 58.2556 39.9362 58.3351 39.9362 58.4146C39.9362 58.494 39.9263 58.5635 39.8965 58.643C39.8667 58.7125 39.827 58.782 39.7674 58.8317C39.7177 58.8814 39.6482 58.931 39.5787 58.9608C39.5092 58.9906 39.4297 59.0005 39.3502 59.0005L39.3602 58.9906Z" fill="url(#paint23_linear_2208_1020)"/>
<path d="M54.1987 67.2639L58.9462 64.036C58.9958 64.0062 59.0356 63.9565 59.0653 63.8969C59.0951 63.8473 59.1051 63.7778 59.1051 63.7182V62.0397C59.3434 61.9304 59.552 61.7616 59.701 61.5431C59.85 61.3245 59.9294 61.0663 59.9294 60.7982C59.9294 60.5399 59.8599 60.2916 59.7209 60.0731C59.5818 59.8546 59.3832 59.6858 59.1547 59.5765C58.9263 59.4673 58.6581 59.4275 58.4098 59.4573C58.1516 59.4871 57.9132 59.5964 57.7146 59.7652C57.516 59.9341 57.3769 60.1526 57.2975 60.3909C57.218 60.6392 57.218 60.8975 57.2875 61.1458C57.357 61.3941 57.4961 61.6225 57.6848 61.7914C57.8735 61.9602 58.1119 62.0794 58.3602 62.1191V63.5096L53.7716 66.6183L53.4339 67.0056L53.3644 72.7364H54.149L54.2086 67.2539L54.1987 67.2639ZM58.092 61.1358C58.0324 61.0365 57.9927 60.9173 57.9927 60.8081C57.9927 60.6492 58.0523 60.5002 58.1615 60.3909C58.2708 60.2817 58.4198 60.2221 58.5787 60.2221C58.6979 60.2221 58.8071 60.2519 58.9064 60.3214C59.0058 60.381 59.0852 60.4803 59.1249 60.5896C59.1746 60.6988 59.1845 60.818 59.1647 60.9372C59.1448 61.0564 59.0852 61.1557 59.0058 61.2451C58.9263 61.3245 58.817 61.3841 58.6979 61.404C58.5787 61.4239 58.4595 61.4139 58.3502 61.3643C58.241 61.3146 58.1516 61.2451 58.0821 61.1458L58.092 61.1358Z" fill="url(#paint24_linear_2208_1020)"/>
<path d="M62.5915 57.381C62.3432 57.1724 62.0353 57.0532 61.7076 57.0532C61.3798 57.0532 61.0719 57.1724 60.8236 57.381C60.5753 57.5896 60.4164 57.8875 60.3767 58.2053C60.327 58.5232 60.4065 58.8509 60.5753 59.129C60.7541 59.3972 61.0223 59.6057 61.3302 59.6951V63.3898L55.2716 67.5017L55.0432 67.7798L55.0929 72.7656H55.7682L55.6888 68.1274L61.9162 63.8964C61.9658 63.8566 62.0055 63.8169 62.0353 63.7573C62.0651 63.7077 62.085 63.6481 62.085 63.5785V59.6951C62.3929 59.6057 62.6611 59.4071 62.8398 59.129C63.0186 58.8608 63.0881 58.5331 63.0385 58.2053C62.9888 57.8875 62.8299 57.5896 62.5915 57.381ZM62.2638 58.6324C62.234 58.7019 62.1943 58.7715 62.1347 58.8211C62.0751 58.8708 62.0155 58.9204 61.946 58.9502C61.8764 58.98 61.797 58.99 61.7175 58.99C61.6381 58.99 61.5685 58.98 61.4891 58.9502C61.4196 58.9204 61.35 58.8807 61.3004 58.8211C61.2507 58.7715 61.201 58.7019 61.1713 58.6324C61.1415 58.5629 61.1315 58.4834 61.1315 58.404C61.1315 58.3245 61.1415 58.2451 61.1713 58.1755C61.201 58.106 61.2408 58.0365 61.3004 57.9868C61.35 57.9272 61.4196 57.8875 61.4891 57.8577C61.5586 57.8279 61.6381 57.8081 61.7175 57.8081C61.8764 57.8081 62.0254 57.8676 62.1347 57.9769C62.2439 58.0862 62.3035 58.2351 62.3035 58.394C62.3035 58.4735 62.2836 58.543 62.2538 58.6225L62.2638 58.6324Z" fill="url(#paint25_linear_2208_1020)"/>
<g filter="url(#filter1_biii_2208_1020)">
<path d="M62.1045 61.8369C62.1045 61.9553 62.0086 62.0512 61.8903 62.0512H58.9003C58.782 62.0512 58.686 61.9553 58.686 61.8369V42.2567C58.686 42.1384 58.782 42.0425 58.9003 42.0425H61.8903C62.0086 42.0425 62.1045 42.1384 62.1045 42.2567V61.8369Z" fill="white"/>
<path d="M58.9003 62.2243H61.8903C62.1042 62.2243 62.2776 62.0509 62.2776 61.8369V42.2567C62.2776 42.0428 62.1042 41.8694 61.8903 41.8694H58.9003C58.6864 41.8694 58.5129 42.0428 58.5129 42.2567V61.8369C58.5129 62.0509 58.6864 62.2243 58.9003 62.2243Z" stroke="black" stroke-width="0.346175" stroke-linejoin="round"/>
</g>
<g filter="url(#filter2_biii_2208_1020)">
<path d="M55.8297 61.7623C55.8817 61.9023 55.7782 62.0512 55.6288 62.0512H52.4468C52.356 62.0512 52.2751 61.994 52.2448 61.9083L50.5458 57.1012C50.5156 57.0156 50.4346 56.9583 50.3438 56.9583H42.7793C42.6875 56.9583 42.6059 57.0168 42.5764 57.1037L40.945 61.9059C40.9155 61.9928 40.8339 62.0512 40.7421 62.0512H37.5769C37.4273 62.0512 37.3237 61.9019 37.3762 61.7618L44.7085 42.1816C44.7399 42.0979 44.8198 42.0425 44.9092 42.0425H48.3511C48.4406 42.0425 48.5207 42.0982 48.5519 42.1821L55.8297 61.7623ZM49.3149 54.2514C49.4623 54.2514 49.5657 54.106 49.5173 53.9668L46.8396 46.2703C46.7573 46.014 46.6704 45.6046 46.579 45.0421C46.5764 45.0263 46.5627 45.0145 46.5467 45.0145V45.0145C46.5306 45.0145 46.5169 45.0263 46.5143 45.0422C46.4317 45.5593 46.3402 45.9687 46.2397 46.2703L43.5887 53.9674C43.5408 54.1065 43.6442 54.2514 43.7913 54.2514H49.3149Z" fill="white"/>
<path d="M46.6749 46.3232L46.6748 46.3232L46.6762 46.3271L49.3538 54.0236C49.3631 54.0504 49.3432 54.0783 49.3149 54.0783H43.7913C43.763 54.0783 43.7432 54.0505 43.7524 54.0238L46.4033 46.3266L46.4033 46.3266L46.4039 46.325C46.4532 46.177 46.5 46.0057 46.5443 45.8115C46.5884 46.0186 46.6319 46.1895 46.6749 46.3232ZM52.4468 62.2243H55.6288C55.8988 62.2243 56.086 61.955 55.9919 61.702L48.7142 42.1218C48.6578 41.9701 48.513 41.8694 48.3511 41.8694H44.9092C44.7477 41.8694 44.6031 41.9696 44.5464 42.1209L37.2141 61.7011C37.1193 61.9543 37.3065 62.2243 37.5769 62.2243H40.7421C40.908 62.2243 41.0555 62.1186 41.1089 61.9615L42.7403 57.1593C42.746 57.1426 42.7617 57.1314 42.7793 57.1314H50.3438C50.3613 57.1314 50.3768 57.1424 50.3826 57.1589L52.0816 61.966C52.1363 62.1208 52.2826 62.2243 52.4468 62.2243Z" stroke="black" stroke-width="0.346175" stroke-linejoin="round"/>
</g>
<path fill-rule="evenodd" clip-rule="evenodd" d="M62.6004 62.0517C62.6004 62.326 62.3781 62.5483 62.1038 62.5483H58.6853C58.4111 62.5483 58.1887 62.326 58.1887 62.0517V42.043C58.1887 41.7687 58.4111 41.5464 58.6853 41.5464H62.1038C62.3781 41.5464 62.6004 41.7687 62.6004 42.043V62.0517ZM62.1038 62.0517V42.043H58.6853V62.0517H62.1038Z" fill="black"/>
<path fill-rule="evenodd" clip-rule="evenodd" d="M56.3441 62.3352C56.2513 62.4687 56.099 62.5483 55.9363 62.5483H52.2946C52.0841 62.5483 51.8965 62.4156 51.8264 62.2172L50.1434 57.4554H42.9809L41.3651 62.2114C41.2967 62.4128 41.1076 62.5483 40.8949 62.5483H37.2671C37.1043 62.5483 36.9518 62.4685 36.859 62.3347C36.7662 62.2008 36.7449 62.03 36.802 61.8775L44.2949 41.8688C44.3675 41.6749 44.5528 41.5464 44.7599 41.5464H48.4993C48.7069 41.5464 48.8925 41.6754 48.9648 41.87L56.4018 61.8787C56.4585 62.0311 56.4369 62.2016 56.3441 62.3352ZM42.6251 56.9588H50.4946L52.2946 62.0517H55.9363L48.4993 42.043H44.7599L37.2671 62.0517H40.8949L42.6251 56.9588ZM46.2838 46.1271C46.368 45.8394 46.4456 45.4718 46.5165 45.0242C46.517 45.0212 46.5175 45.0181 46.518 45.015H46.5738C46.5743 45.018 46.5748 45.021 46.5753 45.024C46.6527 45.5031 46.7269 45.8724 46.7979 46.132C46.8117 46.1824 46.8254 46.2286 46.8389 46.2708L49.6156 54.2519H43.4902L46.2389 46.2708C46.2541 46.2253 46.269 46.1775 46.2838 46.1271ZM44.1864 53.7553H48.917L46.5398 46.9223L44.1864 53.7553Z" fill="black"/>
</g>
<defs>
<filter id="filter0_dddd_2208_1020" x="28.5125" y="30.2725" width="51.9749" height="54.9746" filterUnits="userSpaceOnUse" color-interpolation-filters="sRGB">
<feFlood flood-opacity="0" result="BackgroundImageFix"/>
<feColorMatrix in="SourceAlpha" type="matrix" values="0 0 0 0 0 0 0 0 0 0 0 0 0 0 0 0 0 0 127 0" result="hardAlpha"/>
<feOffset dy="1"/>
<feGaussianBlur stdDeviation="0.5"/>
<feColorMatrix type="matrix" values="0 0 0 0 0 0 0 0 0 0 0 0 0 0 0 0 0 0 0.1 0"/>
<feBlend mode="normal" in2="BackgroundImageFix" result="effect1_dropShadow_2208_1020"/>
<feColorMatrix in="SourceAlpha" type="matrix" values="0 0 0 0 0 0 0 0 0 0 0 0 0 0 0 0 0 0 127 0" result="hardAlpha"/>
<feOffset dx="1" dy="2"/>
<feGaussianBlur stdDeviation="1"/>
<feColorMatrix type="matrix" values="0 0 0 0 0 0 0 0 0 0 0 0 0 0 0 0 0 0 0.09 0"/>
<feBlend mode="normal" in2="effect1_dropShadow_2208_1020" result="effect2_dropShadow_2208_1020"/>
<feColorMatrix in="SourceAlpha" type="matrix" values="0 0 0 0 0 0 0 0 0 0 0 0 0 0 0 0 0 0 127 0" result="hardAlpha"/>
<feOffset dx="2" dy="5"/>
<feGaussianBlur stdDeviation="1.5"/>
<feColorMatrix type="matrix" values="0 0 0 0 0 0 0 0 0 0 0 0 0 0 0 0 0 0 0.05 0"/>
<feBlend mode="normal" in2="effect2_dropShadow_2208_1020" result="effect3_dropShadow_2208_1020"/>
<feColorMatrix in="SourceAlpha" type="matrix" values="0 0 0 0 0 0 0 0 0 0 0 0 0 0 0 0 0 0 127 0" result="hardAlpha"/>
<feOffset dx="4" dy="8"/>
<feGaussianBlur stdDeviation="2"/>
<feColorMatrix type="matrix" values="0 0 0 0 0 0 0 0 0 0 0 0 0 0 0 0 0 0 0.01 0"/>
<feBlend mode="normal" in2="effect3_dropShadow_2208_1020" result="effect4_dropShadow_2208_1020"/>
<feBlend mode="normal" in="SourceGraphic" in2="effect4_dropShadow_2208_1020" result="shape"/>
</filter>
<filter id="filter1_biii_2208_1020" x="49.0905" y="32.447" width="22.6094" height="39.1998" filterUnits="userSpaceOnUse" color-interpolation-filters="sRGB">
<feFlood flood-opacity="0" result="BackgroundImageFix"/>
<feGaussianBlur in="BackgroundImageFix" stdDeviation="4.62465"/>
<feComposite in2="SourceAlpha" operator="in" result="effect1_backgroundBlur_2208_1020"/>
<feBlend mode="normal" in="SourceGraphic" in2="effect1_backgroundBlur_2208_1020" result="shape"/>
<feColorMatrix in="SourceAlpha" type="matrix" values="0 0 0 0 0 0 0 0 0 0 0 0 0 0 0 0 0 0 127 0" result="hardAlpha"/>
<feOffset dx="0.578081" dy="-0.578081"/>
<feGaussianBlur stdDeviation="0.289041"/>
<feComposite in2="hardAlpha" operator="arithmetic" k2="-1" k3="1"/>
<feColorMatrix type="matrix" values="0 0 0 0 0 0 0 0 0 0 0 0 0 0 0 0 0 0 0.1 0"/>
<feBlend mode="multiply" in2="shape" result="effect2_innerShadow_2208_1020"/>
<feColorMatrix in="SourceAlpha" type="matrix" values="0 0 0 0 0 0 0 0 0 0 0 0 0 0 0 0 0 0 127 0" result="hardAlpha"/>
<feOffset dx="1.15616" dy="-1.15616"/>
<feGaussianBlur stdDeviation="1.73424"/>
<feComposite in2="hardAlpha" operator="arithmetic" k2="-1" k3="1"/>
<feColorMatrix type="matrix" values="0 0 0 0 0 0 0 0 0 0 0 0 0 0 0 0 0 0 0.1 0"/>
<feBlend mode="multiply" in2="effect2_innerShadow_2208_1020" result="effect3_innerShadow_2208_1020"/>
<feColorMatrix in="SourceAlpha" type="matrix" values="0 0 0 0 0 0 0 0 0 0 0 0 0 0 0 0 0 0 127 0" result="hardAlpha"/>
<feOffset dy="0.578081"/>
<feGaussianBlur stdDeviation="0.433561"/>
<feComposite in2="hardAlpha" operator="arithmetic" k2="-1" k3="1"/>
<feColorMatrix type="matrix" values="0 0 0 0 1 0 0 0 0 1 0 0 0 0 1 0 0 0 0.25 0"/>
<feBlend mode="normal" in2="effect3_innerShadow_2208_1020" result="effect4_innerShadow_2208_1020"/>
</filter>
<filter id="filter2_biii_2208_1020" x="27.7666" y="32.447" width="37.6724" height="39.1998" filterUnits="userSpaceOnUse" color-interpolation-filters="sRGB">
<feFlood flood-opacity="0" result="BackgroundImageFix"/>
<feGaussianBlur in="BackgroundImageFix" stdDeviation="4.62465"/>
<feComposite in2="SourceAlpha" operator="in" result="effect1_backgroundBlur_2208_1020"/>
<feBlend mode="normal" in="SourceGraphic" in2="effect1_backgroundBlur_2208_1020" result="shape"/>
<feColorMatrix in="SourceAlpha" type="matrix" values="0 0 0 0 0 0 0 0 0 0 0 0 0 0 0 0 0 0 127 0" result="hardAlpha"/>
<feOffset dx="0.578081" dy="-0.578081"/>
<feGaussianBlur stdDeviation="0.289041"/>
<feComposite in2="hardAlpha" operator="arithmetic" k2="-1" k3="1"/>
<feColorMatrix type="matrix" values="0 0 0 0 0 0 0 0 0 0 0 0 0 0 0 0 0 0 0.1 0"/>
<feBlend mode="multiply" in2="shape" result="effect2_innerShadow_2208_1020"/>
<feColorMatrix in="SourceAlpha" type="matrix" values="0 0 0 0 0 0 0 0 0 0 0 0 0 0 0 0 0 0 127 0" result="hardAlpha"/>
<feOffset dx="1.15616" dy="-1.15616"/>
<feGaussianBlur stdDeviation="1.73424"/>
<feComposite in2="hardAlpha" operator="arithmetic" k2="-1" k3="1"/>
<feColorMatrix type="matrix" values="0 0 0 0 0 0 0 0 0 0 0 0 0 0 0 0 0 0 0.1 0"/>
<feBlend mode="multiply" in2="effect2_innerShadow_2208_1020" result="effect3_innerShadow_2208_1020"/>
<feColorMatrix in="SourceAlpha" type="matrix" values="0 0 0 0 0 0 0 0 0 0 0 0 0 0 0 0 0 0 127 0" result="hardAlpha"/>
<feOffset dy="0.578081"/>
<feGaussianBlur stdDeviation="0.433561"/>
<feComposite in2="hardAlpha" operator="arithmetic" k2="-1" k3="1"/>
<feColorMatrix type="matrix" values="0 0 0 0 1 0 0 0 0 1 0 0 0 0 1 0 0 0 0.25 0"/>
<feBlend mode="normal" in2="effect3_innerShadow_2208_1020" result="effect4_innerShadow_2208_1020"/>
</filter>
<linearGradient id="paint0_linear_2208_1020" x1="55.2654" y1="1.65627" x2="58.9908" y2="110.688" gradientUnits="userSpaceOnUse">
<stop offset="0.318529" stop-color="#EFF7FF"/>
<stop offset="1" stop-color="#C7D8EB"/>
</linearGradient>
<linearGradient id="paint1_linear_2208_1020" x1="25.6689" y1="10.3432" x2="49.776" y2="138.901" gradientUnits="userSpaceOnUse">
<stop offset="0.0511799" stop-color="#50E6FF"/>
<stop offset="0.49" stop-color="#007ED8"/>
<stop offset="1" stop-color="#002D4C"/>
</linearGradient>
<linearGradient id="paint2_linear_2208_1020" x1="14.2085" y1="51.0192" x2="93.7223" y2="111.49" gradientUnits="userSpaceOnUse">
<stop offset="0.0511799" stop-color="#50E6FF"/>
<stop offset="0.49" stop-color="#007ED8"/>
<stop offset="1" stop-color="#002D4C"/>
</linearGradient>
<linearGradient id="paint3_linear_2208_1020" x1="65.9147" y1="58.7222" x2="28.9094" y2="40.2195" gradientUnits="userSpaceOnUse">
<stop stop-color="#004DAE"/>
<stop offset="0.21" stop-color="#0061C4"/>
<stop offset="0.51" stop-color="#0078DD"/>
<stop offset="0.78" stop-color="#0086EC"/>
<stop offset="1" stop-color="#008BF1"/>
</linearGradient>
<linearGradient id="paint4_linear_2208_1020" x1="37.0255" y1="36.196" x2="71.6683" y2="94.6756" gradientUnits="userSpaceOnUse">
<stop stop-color="#50E6FF"/>
<stop offset="0.62" stop-color="#0078D4"/>
</linearGradient>
<linearGradient id="paint5_linear_2208_1020" x1="37.215" y1="37.2888" x2="69.2656" y2="91.4083" gradientUnits="userSpaceOnUse">
<stop stop-color="#50E6FF"/>
<stop offset="0.62" stop-color="#0078D4"/>
</linearGradient>
<linearGradient id="paint6_linear_2208_1020" x1="37.5031" y1="37.4778" x2="66.1371" y2="85.8367" gradientUnits="userSpaceOnUse">
<stop stop-color="#50E6FF"/>
<stop offset="0.62" stop-color="#0078D4"/>
</linearGradient>
<linearGradient id="paint7_linear_2208_1020" x1="33.818" y1="39.683" x2="62.8294" y2="88.6676" gradientUnits="userSpaceOnUse">
<stop stop-color="#50E6FF"/>
<stop offset="0.62" stop-color="#0078D4"/>
</linearGradient>
<linearGradient id="paint8_linear_2208_1020" x1="30.1135" y1="37.5473" x2="72.7814" y2="109.594" gradientUnits="userSpaceOnUse">
<stop stop-color="#50E6FF"/>
<stop offset="0.62" stop-color="#0078D4"/>
</linearGradient>
<linearGradient id="paint9_linear_2208_1020" x1="20.2104" y1="47.7377" x2="49.2218" y2="96.7223" gradientUnits="userSpaceOnUse">
<stop stop-color="#50E6FF"/>
<stop offset="0.62" stop-color="#0078D4"/>
</linearGradient>
<linearGradient id="paint10_linear_2208_1020" x1="64.0901" y1="35.9079" x2="28.3349" y2="96.2845" gradientUnits="userSpaceOnUse">
<stop stop-color="#50E6FF"/>
<stop offset="0.62" stop-color="#0078D4"/>
</linearGradient>
<linearGradient id="paint11_linear_2208_1020" x1="63.8626" y1="37.2888" x2="31.7922" y2="91.4281" gradientUnits="userSpaceOnUse">
<stop stop-color="#50E6FF"/>
<stop offset="0.62" stop-color="#0078D4"/>
</linearGradient>
<linearGradient id="paint12_linear_2208_1020" x1="63.5732" y1="37.4878" x2="34.8201" y2="86.0155" gradientUnits="userSpaceOnUse">
<stop stop-color="#50E6FF"/>
<stop offset="0.62" stop-color="#0078D4"/>
</linearGradient>
<linearGradient id="paint13_linear_2208_1020" x1="67.1696" y1="39.7915" x2="38.1582" y2="88.7761" gradientUnits="userSpaceOnUse">
<stop stop-color="#50E6FF"/>
<stop offset="0.62" stop-color="#0078D4"/>
</linearGradient>
<linearGradient id="paint14_linear_2208_1020" x1="70.9436" y1="37.4877" x2="28.087" y2="109.832" gradientUnits="userSpaceOnUse">
<stop stop-color="#50E6FF"/>
<stop offset="0.62" stop-color="#0078D4"/>
</linearGradient>
<linearGradient id="paint15_linear_2208_1020" x1="80.8564" y1="47.7372" x2="51.8451" y2="96.7218" gradientUnits="userSpaceOnUse">
<stop stop-color="#50E6FF"/>
<stop offset="0.62" stop-color="#0078D4"/>
</linearGradient>
<linearGradient id="paint16_linear_2208_1020" x1="26.5085" y1="44.0025" x2="55.5298" y2="92.9871" gradientUnits="userSpaceOnUse">
<stop stop-color="#50E6FF"/>
<stop offset="0.62" stop-color="#0078D4"/>
</linearGradient>
<linearGradient id="paint17_linear_2208_1020" x1="23.7472" y1="45.642" x2="52.7586" y2="94.6266" gradientUnits="userSpaceOnUse">
<stop stop-color="#50E6FF"/>
<stop offset="0.62" stop-color="#0078D4"/>
</linearGradient>
<linearGradient id="paint18_linear_2208_1020" x1="22.4759" y1="46.3965" x2="51.4872" y2="95.3811" gradientUnits="userSpaceOnUse">
<stop stop-color="#50E6FF"/>
<stop offset="0.62" stop-color="#0078D4"/>
</linearGradient>
<linearGradient id="paint19_linear_2208_1020" x1="74.5586" y1="44.0025" x2="45.5473" y2="92.9871" gradientUnits="userSpaceOnUse">
<stop stop-color="#50E6FF"/>
<stop offset="0.62" stop-color="#0078D4"/>
</linearGradient>
<linearGradient id="paint20_linear_2208_1020" x1="77.3203" y1="45.6412" x2="48.309" y2="94.6258" gradientUnits="userSpaceOnUse">
<stop stop-color="#50E6FF"/>
<stop offset="0.62" stop-color="#0078D4"/>
</linearGradient>
<linearGradient id="paint21_linear_2208_1020" x1="78.6022" y1="46.3969" x2="49.5909" y2="95.3815" gradientUnits="userSpaceOnUse">
<stop stop-color="#50E6FF"/>
<stop offset="0.62" stop-color="#0078D4"/>
</linearGradient>
<linearGradient id="paint22_linear_2208_1020" x1="18.8798" y1="21.8651" x2="79.2167" y2="123.728" gradientUnits="userSpaceOnUse">
<stop stop-color="#50E6FF"/>
<stop offset="0.62" stop-color="#0078D4"/>
</linearGradient>
<linearGradient id="paint23_linear_2208_1020" x1="24.8595" y1="35.5412" x2="67.279" y2="107.161" gradientUnits="userSpaceOnUse">
<stop stop-color="#50E6FF"/>
<stop offset="0.62" stop-color="#0078D4"/>
</linearGradient>
<linearGradient id="paint24_linear_2208_1020" x1="81.5812" y1="22.8877" x2="22.8731" y2="121.999" gradientUnits="userSpaceOnUse">
<stop stop-color="#50E6FF"/>
<stop offset="0.62" stop-color="#0078D4"/>
</linearGradient>
<linearGradient id="paint25_linear_2208_1020" x1="75.8507" y1="36.1563" x2="34.6032" y2="105.79" gradientUnits="userSpaceOnUse">
<stop stop-color="#50E6FF"/>
<stop offset="0.62" stop-color="#0078D4"/>
</linearGradient>
</defs>
</svg>
