<svg width="103" height="103" viewBox="0 0 103 103" fill="none" xmlns="http://www.w3.org/2000/svg">
<path d="M51.9036 98.017C26.0536 98.017 5.09357 77.067 5.09357 51.207C5.09357 25.347 26.0536 4.39697 51.9036 4.39697C77.7536 4.39697 98.7136 25.357 98.7136 51.207C98.7136 77.057 77.7536 98.017 51.9036 98.017Z" fill="url(#paint0_linear)"/>
<path fill-rule="evenodd" clip-rule="evenodd" d="M97.8036 51.2069C97.8036 76.5569 77.2535 97.1069 51.9035 97.1069C26.5535 97.1069 6.00355 76.5569 6.00355 51.2069C6.00355 25.8569 26.5535 5.30689 51.9035 5.30689C77.2535 5.30689 97.8036 25.8569 97.8036 51.2069ZM51.9035 1.56689C79.3235 1.56689 101.544 23.7869 101.544 51.2069C101.544 78.6269 79.3135 100.847 51.9035 100.847C24.4835 100.847 2.26355 78.6169 2.26355 51.2069C2.26355 23.7869 24.4835 1.56689 51.9035 1.56689Z" fill="#F2F1F0"/>
<path fill-rule="evenodd" clip-rule="evenodd" d="M94.9935 51.207C94.9935 75.007 75.7035 94.297 51.9035 94.297C28.1035 94.297 8.81355 75.007 8.81355 51.207C8.81355 27.407 28.1035 8.11695 51.9035 8.11695C75.7035 8.11695 94.9935 27.407 94.9935 51.207ZM51.9035 4.37695C77.7635 4.37695 98.7336 25.347 98.7336 51.207C98.7336 77.067 77.7635 98.037 51.9035 98.037C26.0435 98.037 5.07355 77.067 5.07355 51.207C5.07355 25.347 26.0335 4.37695 51.9035 4.37695Z" fill="#0078D4"/>
<path d="M80.9036 60.5371H68.7336V61.6871H80.9036V60.5371Z" fill="white"/>
<path d="M80.9036 51.6968H68.7336V52.8468H80.9036V51.6968Z" fill="white"/>
<path d="M80.9036 42.8569H68.7336V44.0069H80.9036V42.8569Z" fill="white"/>
<path d="M80.9036 34.0068H68.7336V35.1568H80.9036V34.0068Z" fill="white"/>
<path d="M85.7136 30.687H76.9236C76.3836 30.687 75.9536 31.127 75.9536 31.657V37.037C75.9536 37.577 76.3936 38.007 76.9236 38.007H85.7236C86.2636 38.017 86.6936 37.577 86.6936 37.037V31.657C86.6836 31.127 86.2536 30.687 85.7136 30.687Z" fill="#50E6FF"/>
<path d="M85.7136 48.6069H76.9236C76.3836 48.6069 75.9536 49.0469 75.9536 49.5769V54.9669C75.9536 55.5069 76.3936 55.9369 76.9236 55.9369H85.7236C86.2636 55.9369 86.6936 55.4969 86.6936 54.9669V49.5869C86.6836 49.0469 86.2536 48.6069 85.7136 48.6069Z" fill="#0078D4"/>
<path d="M85.7136 39.6372H76.9236C76.3836 39.6372 75.9536 40.0772 75.9536 40.6072V45.9872C75.9536 46.5272 76.3936 46.9572 76.9236 46.9572H85.7236C86.2636 46.9672 86.6936 46.5272 86.6936 45.9872V40.6072C86.6836 40.0672 86.2536 39.6372 85.7136 39.6372Z" fill="#32B0E7"/>
<path d="M85.7136 57.5469H76.9236C76.3836 57.5469 75.9536 57.9869 75.9536 58.5169V63.9069C75.9536 64.4469 76.3936 64.8769 76.9236 64.8769H85.7236C86.2636 64.8769 86.6936 64.4369 86.6936 63.9069V58.5269C86.6836 57.9869 86.2536 57.5469 85.7136 57.5469Z" fill="#185A97"/>
<mask id="mask0" mask-type="alpha" maskUnits="userSpaceOnUse" x="27" y="23" width="46" height="61">
<path d="M29.0936 23.0171H70.3136C71.4636 23.0171 72.3836 23.9471 72.3836 25.0871V81.0971C72.3836 82.2471 71.4536 83.1671 70.3136 83.1671H29.0936C27.9436 83.1671 27.0236 82.2371 27.0236 81.0971V25.0871C27.0136 23.9471 27.9436 23.0171 29.0936 23.0171Z" fill="white"/>
</mask>
<g mask="url(#mask0)">
<g opacity="0.15">
<path opacity="0.15" d="M29.0936 23.0171H70.3136C71.4636 23.0171 72.3836 23.9471 72.3836 25.0871V81.0971C72.3836 82.2471 71.4536 83.1671 70.3136 83.1671H29.0936C27.9436 83.1671 27.0236 82.2371 27.0236 81.0971V25.0871C27.0136 23.9471 27.9436 23.0171 29.0936 23.0171Z" fill="#1F1D20"/>
</g>
</g>
<mask id="mask1" mask-type="alpha" maskUnits="userSpaceOnUse" x="27" y="21" width="46" height="61">
<path d="M29.0936 21.687H70.3136C71.4636 21.687 72.3836 22.617 72.3836 23.757V79.767C72.3836 80.917 71.4536 81.837 70.3136 81.837H29.0936C27.9436 81.837 27.0236 80.907 27.0236 79.767V23.767C27.0136 22.617 27.9436 21.687 29.0936 21.687Z" fill="white"/>
</mask>
<g mask="url(#mask1)">
<path d="M29.0936 21.687H70.3136C71.4636 21.687 72.3836 22.617 72.3836 23.757V79.767C72.3836 80.917 71.4536 81.837 70.3136 81.837H29.0936C27.9436 81.837 27.0236 80.907 27.0236 79.767V23.767C27.0136 22.617 27.9436 21.687 29.0936 21.687Z" fill="#F2F1F0"/>
<g opacity="0.15">
<g opacity="0.15">
<g opacity="0.15">
<path opacity="0.15" d="M35.1736 54.497H64.2236V32.127H35.1736V54.497Z" fill="#1F1D20"/>
</g>
</g>
</g>
<path fill-rule="evenodd" clip-rule="evenodd" d="M49.7036 13.7969C52.1936 13.7969 54.2136 15.8169 54.2136 18.3069V18.4269C54.2136 18.5569 54.2036 18.6969 54.1936 18.8269H56.8836C58.3936 18.8269 59.6236 20.0569 59.6236 21.5669C59.6236 23.0769 58.3936 24.3069 56.8836 24.3069H42.5236C41.0136 24.3069 39.7836 23.0769 39.7836 21.5669C39.7836 20.0569 41.0136 18.8269 42.5236 18.8269H45.2136C45.2036 18.6969 45.1936 18.5669 45.1936 18.4269V18.3069C45.1936 15.8169 47.2136 13.7969 49.7036 13.7969Z" fill="#0078D4"/>
<path d="M35.1736 53.7372H64.2236V31.3672H35.1736V53.7372Z" fill="#0078D4"/>
<path d="M35.1736 53.7372H64.2236V31.3672H35.1736V53.7372Z" fill="#0078D4"/>
<path d="M42.7035 60.167C38.8035 60.167 35.6335 63.337 35.6335 67.237C35.6335 71.137 38.8035 74.307 42.7035 74.307C46.6035 74.307 49.7735 71.137 49.7735 67.237C49.7735 63.337 46.6135 60.167 42.7035 60.167ZM42.7035 70.537C40.8835 70.537 39.4035 69.057 39.4035 67.237C39.4035 65.417 40.8935 63.937 42.7035 63.937C44.5135 63.937 46.0035 65.417 46.0035 67.237C46.0035 69.067 44.5235 70.537 42.7035 70.537Z" fill="#0078D4"/>
<path d="M42.6935 63.937L42.6735 60.167C40.1935 60.177 38.0035 61.467 36.7535 63.417L39.8535 65.587C40.4135 64.607 41.4835 63.937 42.6935 63.937Z" fill="#50E6FF"/>
<path d="M39.3935 67.2372C39.3935 66.6372 39.5535 66.0772 39.8335 65.5872L36.7435 63.4072L36.7335 63.4372C36.0335 64.5272 35.6235 65.8272 35.6235 67.2272C35.6235 68.2672 35.8435 69.2572 36.2535 70.1472L39.7035 68.6272C39.5135 68.2172 39.3935 67.7372 39.3935 67.2372Z" fill="#3BCAF4"/>
<path d="M60.9436 41.8867H37.9636V43.1267H60.9436V41.8867Z" fill="#3BCAF4"/>
<path d="M49.7035 45.397C51.2278 45.397 52.4635 44.1613 52.4635 42.637C52.4635 41.1126 51.2278 39.877 49.7035 39.877C48.1792 39.877 46.9435 41.1126 46.9435 42.637C46.9435 44.1613 48.1792 45.397 49.7035 45.397Z" fill="white"/>
<path d="M59.0636 45.397C60.5879 45.397 61.8236 44.1613 61.8236 42.637C61.8236 41.1126 60.5879 39.877 59.0636 39.877C57.5393 39.877 56.3036 41.1126 56.3036 42.637C56.3036 44.1613 57.5393 45.397 59.0636 45.397Z" fill="#ACF3FD"/>
<path d="M40.3436 45.397C41.8679 45.397 43.1036 44.1613 43.1036 42.637C43.1036 41.1126 41.8679 39.877 40.3436 39.877C38.8192 39.877 37.5836 41.1126 37.5836 42.637C37.5836 44.1613 38.8192 45.397 40.3436 45.397Z" fill="#ACF3FD"/>
<path d="M63.5536 73.3271C63.9936 73.3271 64.3536 72.9671 64.3536 72.5271V70.8771C64.3536 70.4371 63.9936 70.0771 63.5536 70.0771C63.1136 70.0771 62.7536 70.4371 62.7536 70.8771V72.5271C62.7436 72.9671 63.1036 73.3271 63.5536 73.3271Z" fill="#185A97"/>
<path d="M60.2936 73.3271C60.7336 73.3271 61.0936 72.9671 61.0936 72.5271V69.2771C61.0936 68.8371 60.7336 68.4771 60.2936 68.4771C59.8536 68.4771 59.4936 68.8371 59.4936 69.2771V72.5271C59.4936 72.9671 59.8536 73.3271 60.2936 73.3271Z" fill="#0078D4"/>
<path d="M53.8336 73.327C54.2736 73.327 54.6336 72.967 54.6336 72.527V61.947C54.6336 61.507 54.2736 61.147 53.8336 61.147C53.3936 61.147 53.0336 61.507 53.0336 61.947V72.517C53.0336 72.967 53.3836 73.327 53.8336 73.327Z" fill="#50E6FF"/>
<path d="M57.0936 73.3268C57.5336 73.3268 57.8936 72.9668 57.8936 72.5268V66.0168C57.8936 65.5768 57.5336 65.2168 57.0936 65.2168C56.6536 65.2168 56.2936 65.5768 56.2936 66.0168V72.5268C56.2836 72.9668 56.6536 73.3268 57.0936 73.3268Z" fill="#32B0E7"/>
</g>
<defs>
<linearGradient id="paint0_linear" x1="50.1337" y1="-13.583" x2="54.1157" y2="132.187" gradientUnits="userSpaceOnUse">
<stop stop-color="#00ABDE"/>
<stop offset="1" stop-color="#007ED8"/>
</linearGradient>
</defs>
</svg>
