<svg width="103" height="102" viewBox="0 0 103 102" fill="none" xmlns="http://www.w3.org/2000/svg">
<g clip-path="url(#clip0_1557_440)">
<g filter="url(#filter0_ddddd_1557_440)">
<path d="M50.5892 96.851C24.9927 96.851 4.23816 76.1063 4.23816 50.4999C4.23816 24.8934 24.9927 4.1488 50.5892 4.1488C76.1858 4.1488 96.9403 24.9033 96.9403 50.4999C96.9403 76.0964 76.1858 96.851 50.5892 96.851Z" fill="white"/>
</g>
<path fill-rule="evenodd" clip-rule="evenodd" d="M96.0395 50.5004C96.0395 75.6018 75.691 95.9504 50.5895 95.9504C25.488 95.9504 5.13949 75.6018 5.13949 50.5004C5.13949 25.3989 25.488 5.05038 50.5895 5.05038C75.691 5.05038 96.0395 25.3989 96.0395 50.5004ZM50.5895 1.34705C77.7407 1.34705 99.7428 23.3492 99.7428 50.5004C99.7428 77.6516 77.7308 99.6537 50.5895 99.6537C23.4383 99.6537 1.43616 77.6417 1.43616 50.5004C1.43616 23.3492 23.4383 1.34705 50.5895 1.34705Z" fill="#F2F1F0"/>
<path fill-rule="evenodd" clip-rule="evenodd" d="M93.2568 50.4999C93.2568 74.0666 74.1559 93.1675 50.5893 93.1675C27.0226 93.1675 7.92172 74.0666 7.92172 50.4999C7.92172 26.9332 27.0226 7.83237 50.5893 7.83237C74.1559 7.83237 93.2568 26.9332 93.2568 50.4999ZM50.5893 4.12903C76.1957 4.12903 96.9601 24.8934 96.9601 50.4999C96.9601 76.1064 76.1957 96.8708 50.5893 96.8708C24.9828 96.8708 4.21838 76.1064 4.21838 50.4999C4.21838 24.8934 24.9729 4.12903 50.5893 4.12903Z" fill="#F37726"/>
<g filter="url(#filter1_ddddd_1557_440)">
<path d="M25.3023 76.6598H75.0137C75.5558 76.6598 75.9994 76.2163 75.9994 75.6741V36.8628H24.3167V75.6741C24.3167 76.2163 24.7602 76.6598 25.3023 76.6598Z" fill="#F2F2F2"/>
</g>
<path d="M24.3167 41.1589H75.9994V36.5262C75.9994 36.1073 75.6626 35.7705 75.2437 35.7705H25.0723C24.6534 35.7705 24.3167 36.1073 24.3167 36.5262V41.1589Z" fill="#092E4C"/>
<path d="M28.2923 39.8854C29.0151 39.8854 29.6065 39.3022 29.6065 38.5712C29.6065 37.8401 29.0069 37.2651 28.2923 37.2651C27.5694 37.2651 26.978 37.8483 26.978 38.5794C26.978 39.3104 27.553 39.8854 28.2923 39.8854Z" fill="#32B0E7"/>
<g filter="url(#filter2_ddddd_1557_440)">
<path d="M51.8956 47.5291V47.1525C51.8956 46.6843 51.5191 46.3077 51.0509 46.3077H28.4683C28.0001 46.3077 27.6235 46.6843 27.6235 47.1525V47.5677V47.9491V69.5613C27.6235 70.0295 28.0001 70.4061 28.4683 70.4061H51.0605C51.5288 70.4061 51.9053 70.0295 51.9053 69.5613V47.5677C51.9005 47.5532 51.8956 47.5436 51.8956 47.5291Z" fill="white"/>
</g>
<path d="M34.6327 64.6035H32.1562V67.8379H34.6279V64.6035H34.6327Z" fill="#45CAF2"/>
<path d="M38.3257 62.4554H35.8154V67.838H38.3353V62.4554H38.3257Z" fill="#32B0E7"/>
<path d="M42.8006 58.9655H39.5663V67.8237H42.8006V58.9655Z" fill="#0078D1"/>
<path d="M47.8694 55.3448H44.1523V67.8236H47.8694V55.3448Z" fill="#185A97"/>
<path d="M33.6141 61.5618L33.1652 61.3494L36.5685 55.18L41.1062 55.629L45.8129 51.9119L46.1798 52.245L41.2752 56.1793L36.8436 55.7593L33.6141 61.5618Z" fill="url(#paint0_linear_1557_440)"/>
<path d="M32.8852 62.6288C33.479 62.7881 34.0921 62.4357 34.2514 61.8419C34.4107 61.2482 34.0583 60.6351 33.4645 60.4758C32.8707 60.3165 32.2576 60.6689 32.0983 61.2626C31.939 61.8612 32.2914 62.4695 32.8852 62.6288Z" fill="#45CAF2"/>
<path d="M36.4864 56.6864C37.0802 56.8457 37.6933 56.4933 37.8526 55.8996C38.0119 55.3058 37.6595 54.6927 37.0657 54.5334C36.4719 54.3741 35.8588 54.7265 35.6995 55.3203C35.5402 55.914 35.8926 56.5271 36.4864 56.6864Z" fill="#32B0E7"/>
<path d="M40.7973 56.947C41.3911 57.1063 42.0042 56.7539 42.1635 56.1602C42.3228 55.5664 41.9704 54.9533 41.3766 54.794C40.7828 54.6347 40.1698 54.9871 40.0105 55.5809C39.8511 56.1747 40.2035 56.7829 40.7973 56.947Z" fill="#0078D1"/>
<path d="M45.3446 53.1091C46.0929 53.5194 46.986 53.0029 47.0101 52.1485C47.0198 51.7478 46.7929 51.3568 46.4453 51.1637C45.697 50.7534 44.804 51.2699 44.7798 52.1243C44.7702 52.525 44.9922 52.916 45.3446 53.1091Z" fill="#005599"/>
<path d="M55.2975 59.1264C55.2975 59.7952 55.2441 60.0131 55.1067 60.1736C54.9538 60.3115 54.7554 60.3878 54.5496 60.3877L54.603 60.7698C54.922 60.7742 55.2315 60.6612 55.4731 60.4526C55.603 60.2938 55.6997 60.1105 55.7574 59.9136C55.8152 59.7166 55.8326 59.5099 55.8088 59.306V56.776H55.2975V59.1111V59.1264Z" fill="#4E4E4E"/>
<path d="M59.1109 58.8246C59.1109 59.1112 59.1109 59.3673 59.1338 59.589H58.6797L58.6492 59.1342C58.5542 59.2951 58.4184 59.428 58.2555 59.5192C58.0927 59.6105 57.9085 59.657 57.7219 59.654C57.2792 59.654 56.7526 59.4131 56.7526 58.4309V56.799H57.264V58.3277C57.264 58.859 57.4281 59.2144 57.8898 59.2144C57.9849 59.2154 58.0791 59.1975 58.1671 59.1615C58.2549 59.1256 58.3349 59.0724 58.4021 59.0051C58.4692 58.9379 58.5224 58.8579 58.5582 58.7698C58.5941 58.6817 58.6121 58.5872 58.611 58.4921V56.7799H59.1224V58.8093L59.1109 58.8246Z" fill="#4E4E4E"/>
<path d="M60.0802 57.708C60.0802 57.3526 60.0802 57.0621 60.0574 56.7984H60.5153L60.5382 57.2761C60.6402 57.1035 60.7871 56.9619 60.9632 56.8663C61.1393 56.7708 61.3378 56.7248 61.538 56.7334C62.2172 56.7334 62.7286 57.3029 62.7286 58.1513C62.7286 59.1527 62.1142 59.6495 61.4502 59.6495C61.2803 59.6571 61.1112 59.6206 60.9594 59.5436C60.8077 59.4666 60.6784 59.3518 60.5839 59.21V60.7387H60.0802V57.7195V57.708ZM60.5839 58.4533C60.5854 58.5226 60.593 58.5917 60.6069 58.6596C60.6502 58.8293 60.7488 58.9797 60.8869 59.0871C61.0252 59.1943 61.1952 59.2524 61.37 59.252C61.9082 59.252 62.2249 58.8125 62.2249 58.1743C62.2249 57.6163 61.9273 57.1386 61.3891 57.1386C61.1762 57.156 60.9769 57.2507 60.8288 57.4047C60.6805 57.5588 60.5935 57.7618 60.5839 57.9755V58.4533Z" fill="#4E4E4E"/>
<path d="M63.6398 56.7955L64.2542 58.4427C64.3191 58.6261 64.3877 58.8478 64.4335 59.0121C64.487 58.844 64.5442 58.63 64.6129 58.4312L65.17 56.7955H65.7081L64.9448 58.7829C64.5633 59.7382 64.3305 60.2313 63.9794 60.5294C63.8025 60.6912 63.587 60.8044 63.3536 60.8581L63.2277 60.43C63.3908 60.3764 63.5423 60.292 63.6741 60.1817C63.8603 60.0297 64.0081 59.8358 64.1053 59.6159C64.1262 59.5779 64.1404 59.5366 64.1474 59.4936C64.143 59.4476 64.1314 59.4024 64.113 59.36L63.075 56.7878H63.6322L63.6398 56.7955Z" fill="#4E4E4E"/>
<path d="M67.0656 55.9934V56.796H67.7982V57.1782H67.0656V58.684C67.0656 59.028 67.1648 59.2266 67.4471 59.2266C67.5474 59.2283 67.6475 59.2168 67.7448 59.1923L67.7677 59.5745C67.6218 59.625 67.4678 59.6483 67.3136 59.6432C67.2114 59.6496 67.109 59.6339 67.0135 59.5969C66.9181 59.56 66.8316 59.5027 66.7602 59.4292C66.6048 59.221 66.5339 58.9616 66.5618 58.7031V57.1744H66.1268V56.7922H66.5695V56.1119L67.0656 55.9934Z" fill="#4E4E4E"/>
<path d="M68.7401 58.2815C68.7297 58.4111 68.7476 58.5414 68.7925 58.6634C68.8373 58.7854 68.9081 58.8963 68.9999 58.9882C69.0917 59.0802 69.2023 59.1511 69.3242 59.1959C69.446 59.2408 69.5761 59.2588 69.7055 59.2485C69.9674 59.2543 70.2273 59.2048 70.4688 59.1032L70.5566 59.4853C70.2603 59.6075 69.9418 59.6662 69.6216 59.6573C69.435 59.6702 69.2477 59.6423 69.0727 59.5759C68.8978 59.5094 68.7392 59.4058 68.608 59.2722C68.4768 59.1386 68.376 58.9781 68.3125 58.8019C68.249 58.6256 68.2243 58.4376 68.2401 58.2509C68.2401 57.4101 68.7401 56.7451 69.5568 56.7451C70.4726 56.7451 70.7016 57.5477 70.7016 58.0598C70.7065 58.1387 70.7065 58.2179 70.7016 58.2968H68.7286L68.7401 58.2815ZM70.236 57.8993C70.2507 57.7971 70.2434 57.693 70.2145 57.5939C70.1857 57.4948 70.136 57.403 70.0687 57.3248C70.0015 57.2465 69.9182 57.1837 69.8246 57.1404C69.731 57.0971 69.6293 57.0744 69.5262 57.0738C69.3165 57.089 69.1201 57.1821 68.9753 57.3348C68.8307 57.4875 68.7481 57.6888 68.744 57.8993H70.236Z" fill="#4E4E4E"/>
<path d="M71.4776 57.6656C71.4776 57.3369 71.4776 57.0541 71.4547 56.7942H71.9126V57.3407H71.9356C71.9836 57.1721 72.083 57.0225 72.2197 56.913C72.3564 56.8034 72.5239 56.7392 72.6987 56.7292C72.7469 56.7229 72.7956 56.7229 72.8437 56.7292V57.207C72.7855 57.2002 72.7266 57.2002 72.6683 57.207C72.4951 57.2137 72.3302 57.2833 72.2044 57.4029C72.0787 57.5225 72.0008 57.6838 71.9851 57.8567C71.9709 57.9349 71.9633 58.0141 71.9623 58.0936V59.5804H71.4586V57.6694L71.4776 57.6656Z" fill="#4E4E4E"/>
<path d="M71.2536 49.1195C71.2692 49.3762 71.2083 49.6319 71.0784 49.8538C70.9485 50.0757 70.7555 50.2539 70.5241 50.3656C70.2929 50.4773 70.0335 50.5175 69.7792 50.4811C69.525 50.4447 69.2874 50.3333 69.0965 50.1611C68.9057 49.989 68.7703 49.7638 68.7077 49.5144C68.6451 49.2649 68.6581 49.0024 68.745 48.7603C68.8318 48.5182 68.9887 48.3076 69.1955 48.1551C69.4024 48.0026 69.6499 47.9153 69.9065 47.9042C70.0747 47.8949 70.2432 47.919 70.4021 47.9752C70.5609 48.0313 70.7072 48.1183 70.8324 48.2313C70.9576 48.3442 71.0593 48.4809 71.1315 48.6333C71.2038 48.7857 71.2452 48.951 71.2536 49.1195Z" fill="#767677"/>
<path d="M63.7077 64.0869C60.2733 64.0869 57.2547 62.8525 55.694 61.0295C56.2995 62.6696 57.3923 64.0843 58.825 65.0836C60.2577 66.0829 61.9619 66.6185 63.7077 66.6185C65.4537 66.6185 67.1576 66.0829 68.5904 65.0836C70.0231 64.0843 71.1159 62.6696 71.7214 61.0295C70.1645 62.8525 67.1575 64.0869 63.7077 64.0869Z" fill="#F37726"/>
<path d="M63.7077 52.2326C67.1421 52.2326 70.1607 53.467 71.7214 55.29C71.1159 53.65 70.0231 52.2352 68.5904 51.236C67.1576 50.2367 65.4537 49.701 63.7077 49.701C61.9619 49.701 60.2577 50.2367 58.825 51.236C57.3923 52.2352 56.2995 53.65 55.694 55.29C57.2547 53.4632 60.2579 52.2326 63.7077 52.2326Z" fill="#F37726"/>
<path d="M58.9798 67.634C58.9999 67.9574 58.9235 68.2795 58.7601 68.5592C58.5969 68.839 58.3542 69.0636 58.0629 69.2048C57.7716 69.3458 57.445 69.3968 57.1246 69.3513C56.8044 69.3059 56.5047 69.1658 56.2641 68.9493C56.0235 68.7327 55.8528 68.4492 55.7735 68.135C55.6944 67.8209 55.7104 67.4901 55.8194 67.1851C55.9286 66.8801 56.126 66.6145 56.3863 66.4222C56.6468 66.2299 56.9584 66.1196 57.2816 66.1052C57.4933 66.0939 57.7052 66.1244 57.9052 66.1952C58.1052 66.2658 58.2893 66.3753 58.4469 66.5173C58.6046 66.6592 58.7328 66.8309 58.8243 67.0225C58.9156 67.2142 58.9686 67.4219 58.9798 67.634Z" fill="#9E9E9E"/>
<path d="M56.0843 51.8163C55.8992 51.8214 55.7168 51.7716 55.5599 51.6731C55.403 51.5747 55.2787 51.432 55.2026 51.263C55.1266 51.0939 55.102 50.9062 55.1322 50.7232C55.1624 50.5403 55.2459 50.3704 55.3722 50.2349C55.4985 50.0993 55.6621 50.0042 55.8422 49.9615C56.0224 49.9189 56.2111 49.9305 56.3847 49.9949C56.5583 50.0594 56.7089 50.1738 56.8178 50.3238C56.9266 50.4737 56.9887 50.6526 56.9963 50.8379C57.0036 51.0884 56.9119 51.3316 56.7411 51.5148C56.5704 51.698 56.3343 51.8063 56.0843 51.8163Z" fill="#616262"/>
<path d="M41.9311 33.5894C41.7808 33.5379 41.6358 33.4863 41.47 33.4346C41.5891 33.0374 41.7083 32.6451 41.8171 32.2839C42.0709 32.2839 42.2989 32.3097 42.5164 32.2787C43.2985 32.1755 43.8114 31.6955 43.9928 30.8338C44.4434 28.6767 44.8682 26.5144 45.3032 24.3521C45.3136 24.3005 45.3136 24.2541 45.324 24.1715C44.7283 24.1715 44.1482 24.1715 43.5317 24.1715C43.5783 23.7896 43.6146 23.4438 43.6716 23.1033C43.6819 23.0568 43.8114 23 43.8891 23C44.3708 22.9897 44.8578 22.9897 45.3395 23C45.5105 23.0052 45.5985 22.9639 45.6348 22.773C45.7488 22.1486 45.8783 21.5241 46.0286 20.91C46.3082 19.7592 46.9921 18.9955 48.1835 18.7323C48.2146 18.7271 48.2353 18.6961 48.2612 18.6807C48.66 18.6807 49.0537 18.6807 49.4525 18.6807C49.5924 18.7271 49.7323 18.7787 49.9033 18.8355C49.8048 19.2277 49.7064 19.6147 49.608 19.9863C49.3334 19.9863 49.0693 19.9553 48.8206 19.9914C48.1576 20.0947 47.7276 20.5023 47.5411 21.1268C47.3598 21.7254 47.2459 22.3395 47.0957 22.9897C47.8312 22.9897 48.5305 22.9897 49.2557 22.9897C49.1574 23.3716 49.0797 23.7122 48.9709 24.0425C48.9501 24.0992 48.8154 24.156 48.7325 24.156C48.1213 24.1663 47.51 24.1612 46.8781 24.1612C46.733 24.8785 46.5879 25.5803 46.4481 26.2873C46.1063 27.9593 45.7799 29.6365 45.4224 31.3033C45.1635 32.5161 44.4434 33.3004 43.1899 33.5482C43.1691 33.5534 43.1536 33.5792 43.1381 33.5946C42.7288 33.5896 42.3299 33.5894 41.9311 33.5894Z" fill="#0494E0"/>
<path d="M30.1204 24.4038C30.5555 24.4038 30.9958 24.4038 31.462 24.4038C31.462 24.6515 31.462 24.8579 31.462 25.1005C32.3893 23.9239 34.2748 23.9858 34.9586 25.2553C35.2642 24.7909 35.6631 24.4657 36.207 24.3316C37.6159 23.9755 38.8178 24.7651 38.9006 26.1996C38.9732 27.4588 38.9214 28.7284 38.9266 29.9927C38.9266 30.0752 38.9266 30.1631 38.9266 30.2611C38.4759 30.2611 38.0408 30.2611 37.5745 30.2611C37.5745 30.1631 37.5745 30.07 37.5745 29.9824C37.5745 28.8883 37.5797 27.7995 37.5745 26.7054C37.5693 26.1016 37.3052 25.6991 36.8338 25.5598C36.0464 25.3276 35.2798 25.8281 35.2487 26.6435C35.2124 27.753 35.2331 28.8625 35.228 29.972C35.228 30.065 35.228 30.1579 35.228 30.2611C34.7617 30.2611 34.3266 30.2611 33.85 30.2611C33.85 30.1785 33.85 30.0856 33.85 29.9979C33.85 28.8883 33.8552 27.7789 33.85 26.6693C33.8449 26.0913 33.5703 25.6888 33.1041 25.5546C32.2856 25.3224 31.5345 25.8488 31.519 26.6951C31.4983 27.7891 31.5138 28.878 31.5086 29.972C31.5086 30.065 31.5086 30.1579 31.5086 30.2869C31.0269 30.2869 30.571 30.2869 30.1204 30.2869C30.1204 28.3259 30.1204 26.3648 30.1204 24.4038Z" fill="#030303"/>
<path d="M68.935 24.4241C68.5465 25.2034 68.1942 25.9155 67.8419 26.6277C67.2722 27.7733 66.6972 28.919 66.1377 30.0646C66.0548 30.2349 65.9616 30.2813 65.7854 30.2762C65.4073 30.2659 65.0292 30.2711 64.6355 30.2711C64.4128 28.8931 64.19 27.536 63.962 26.1013C63.6461 26.6948 63.3612 27.2263 63.0762 27.7527C62.6619 28.5268 62.2474 29.2957 61.8433 30.075C61.7709 30.2143 61.6881 30.2762 61.5274 30.2711C61.1233 30.2607 60.7194 30.2659 60.2894 30.2659C60.0562 28.3101 59.8232 26.3749 59.5901 24.419C60.1132 24.419 60.6054 24.419 61.1182 24.419C61.2218 25.7194 61.3202 27.0148 61.429 28.3772C61.4964 28.2636 61.5378 28.1965 61.5741 28.1294C62.2112 26.958 62.8535 25.7917 63.4804 24.6202C63.5632 24.4603 63.6565 24.4035 63.8377 24.4086C64.2314 24.4241 64.6304 24.4138 65.0447 24.4138C65.2364 25.7401 65.4229 27.0302 65.6146 28.3772C65.6819 28.2482 65.7234 28.1707 65.7595 28.0881C66.319 26.9269 66.8733 25.7659 67.4276 24.6047C67.4949 24.4603 67.5727 24.4035 67.7383 24.4086C68.1165 24.4344 68.4947 24.4241 68.935 24.4241Z" fill="#0494E0"/>
<path d="M50.758 21.4719C51.2294 21.4719 51.6748 21.4719 52.1618 21.4719C51.5247 24.3928 50.8875 27.2982 50.2504 30.2139C49.7893 30.2139 49.3439 30.2139 48.8517 30.2139C49.4889 27.2982 50.1208 24.3928 50.758 21.4719Z" fill="#0494E0"/>
<path d="M57.207 24.8059C56.6269 25.2291 56.0674 25.6367 55.4769 26.0702C55.4769 25.8225 55.4769 25.6161 55.4769 25.3787C54.8554 25.389 54.3735 25.6419 54.0057 26.1167C53.4981 26.772 53.5033 27.4378 54.0109 28.4492C53.7261 28.6557 53.4359 28.8672 53.151 29.0789C52.3896 28.3254 52.1564 26.5915 53.1406 25.3735C54.1249 24.1453 55.9327 23.8718 57.207 24.8059Z" fill="#45C8EB"/>
<path d="M56.9274 25.9781C57.2174 25.7665 57.4971 25.5601 57.7769 25.3536C58.6057 26.2103 58.8336 27.9959 57.7095 29.2343C56.5906 30.4677 54.819 30.4574 53.8141 29.6937C54.3838 29.2757 54.9486 28.8628 55.5442 28.4241C55.5442 28.6667 55.5442 28.8731 55.5442 29.1157C56.2072 29.1001 56.7149 28.8319 57.0619 28.3106C57.5904 27.521 57.4919 26.7419 56.9274 25.9781Z" fill="#0494E0"/>
<path d="M40.6464 21.5856C41.1177 21.5856 41.5632 21.5856 42.019 21.5856C42.019 24.4806 42.019 27.3602 42.019 30.2604C41.5581 30.2604 41.1073 30.2604 40.6464 30.2604C40.6464 27.3706 40.6464 24.4858 40.6464 21.5856Z" fill="#030303"/>
</g>
<defs>
<filter id="filter0_ddddd_1557_440" x="-5.40755" y="2.21966" width="111.994" height="131.285" filterUnits="userSpaceOnUse" color-interpolation-filters="sRGB">
<feFlood flood-opacity="0" result="BackgroundImageFix"/>
<feColorMatrix in="SourceAlpha" type="matrix" values="0 0 0 0 0 0 0 0 0 0 0 0 0 0 0 0 0 0 127 0" result="hardAlpha"/>
<feOffset/>
<feColorMatrix type="matrix" values="0 0 0 0 0 0 0 0 0 0 0 0 0 0 0 0 0 0 0.1 0"/>
<feBlend mode="normal" in2="BackgroundImageFix" result="effect1_dropShadow_1557_440"/>
<feColorMatrix in="SourceAlpha" type="matrix" values="0 0 0 0 0 0 0 0 0 0 0 0 0 0 0 0 0 0 127 0" result="hardAlpha"/>
<feOffset dy="1.92914"/>
<feGaussianBlur stdDeviation="1.92914"/>
<feColorMatrix type="matrix" values="0 0 0 0 0 0 0 0 0 0 0 0 0 0 0 0 0 0 0.1 0"/>
<feBlend mode="normal" in2="effect1_dropShadow_1557_440" result="effect2_dropShadow_1557_440"/>
<feColorMatrix in="SourceAlpha" type="matrix" values="0 0 0 0 0 0 0 0 0 0 0 0 0 0 0 0 0 0 127 0" result="hardAlpha"/>
<feOffset dy="5.78742"/>
<feGaussianBlur stdDeviation="2.89371"/>
<feColorMatrix type="matrix" values="0 0 0 0 0 0 0 0 0 0 0 0 0 0 0 0 0 0 0.09 0"/>
<feBlend mode="normal" in2="effect2_dropShadow_1557_440" result="effect3_dropShadow_1557_440"/>
<feColorMatrix in="SourceAlpha" type="matrix" values="0 0 0 0 0 0 0 0 0 0 0 0 0 0 0 0 0 0 127 0" result="hardAlpha"/>
<feOffset dy="15.4331"/>
<feGaussianBlur stdDeviation="4.82285"/>
<feColorMatrix type="matrix" values="0 0 0 0 0 0 0 0 0 0 0 0 0 0 0 0 0 0 0.05 0"/>
<feBlend mode="normal" in2="effect3_dropShadow_1557_440" result="effect4_dropShadow_1557_440"/>
<feColorMatrix in="SourceAlpha" type="matrix" values="0 0 0 0 0 0 0 0 0 0 0 0 0 0 0 0 0 0 127 0" result="hardAlpha"/>
<feOffset dy="27.008"/>
<feGaussianBlur stdDeviation="4.82285"/>
<feColorMatrix type="matrix" values="0 0 0 0 0 0 0 0 0 0 0 0 0 0 0 0 0 0 0.01 0"/>
<feBlend mode="normal" in2="effect4_dropShadow_1557_440" result="effect5_dropShadow_1557_440"/>
<feBlend mode="normal" in="SourceGraphic" in2="effect5_dropShadow_1557_440" result="shape"/>
</filter>
<filter id="filter1_ddddd_1557_440" x="19.3167" y="36.8628" width="59.6827" height="54.797" filterUnits="userSpaceOnUse" color-interpolation-filters="sRGB">
<feFlood flood-opacity="0" result="BackgroundImageFix"/>
<feColorMatrix in="SourceAlpha" type="matrix" values="0 0 0 0 0 0 0 0 0 0 0 0 0 0 0 0 0 0 127 0" result="hardAlpha"/>
<feOffset/>
<feColorMatrix type="matrix" values="0 0 0 0 0 0 0 0 0 0 0 0 0 0 0 0 0 0 0.1 0"/>
<feBlend mode="normal" in2="BackgroundImageFix" result="effect1_dropShadow_1557_440"/>
<feColorMatrix in="SourceAlpha" type="matrix" values="0 0 0 0 0 0 0 0 0 0 0 0 0 0 0 0 0 0 127 0" result="hardAlpha"/>
<feOffset dy="1"/>
<feGaussianBlur stdDeviation="0.5"/>
<feColorMatrix type="matrix" values="0 0 0 0 0 0 0 0 0 0 0 0 0 0 0 0 0 0 0.1 0"/>
<feBlend mode="normal" in2="effect1_dropShadow_1557_440" result="effect2_dropShadow_1557_440"/>
<feColorMatrix in="SourceAlpha" type="matrix" values="0 0 0 0 0 0 0 0 0 0 0 0 0 0 0 0 0 0 127 0" result="hardAlpha"/>
<feOffset dy="3"/>
<feGaussianBlur stdDeviation="1.5"/>
<feColorMatrix type="matrix" values="0 0 0 0 0 0 0 0 0 0 0 0 0 0 0 0 0 0 0.09 0"/>
<feBlend mode="normal" in2="effect2_dropShadow_1557_440" result="effect3_dropShadow_1557_440"/>
<feColorMatrix in="SourceAlpha" type="matrix" values="0 0 0 0 0 0 0 0 0 0 0 0 0 0 0 0 0 0 127 0" result="hardAlpha"/>
<feOffset dx="-1" dy="6"/>
<feGaussianBlur stdDeviation="2"/>
<feColorMatrix type="matrix" values="0 0 0 0 0 0 0 0 0 0 0 0 0 0 0 0 0 0 0.05 0"/>
<feBlend mode="normal" in2="effect3_dropShadow_1557_440" result="effect4_dropShadow_1557_440"/>
<feColorMatrix in="SourceAlpha" type="matrix" values="0 0 0 0 0 0 0 0 0 0 0 0 0 0 0 0 0 0 127 0" result="hardAlpha"/>
<feOffset dx="-1" dy="11"/>
<feGaussianBlur stdDeviation="2"/>
<feColorMatrix type="matrix" values="0 0 0 0 0 0 0 0 0 0 0 0 0 0 0 0 0 0 0.01 0"/>
<feBlend mode="normal" in2="effect4_dropShadow_1557_440" result="effect5_dropShadow_1557_440"/>
<feBlend mode="normal" in="SourceGraphic" in2="effect5_dropShadow_1557_440" result="shape"/>
</filter>
<filter id="filter2_ddddd_1557_440" x="24.6235" y="45.3077" width="30.2817" height="35.0983" filterUnits="userSpaceOnUse" color-interpolation-filters="sRGB">
<feFlood flood-opacity="0" result="BackgroundImageFix"/>
<feColorMatrix in="SourceAlpha" type="matrix" values="0 0 0 0 0 0 0 0 0 0 0 0 0 0 0 0 0 0 127 0" result="hardAlpha"/>
<feOffset/>
<feColorMatrix type="matrix" values="0 0 0 0 0 0 0 0 0 0 0 0 0 0 0 0 0 0 0.1 0"/>
<feBlend mode="normal" in2="BackgroundImageFix" result="effect1_dropShadow_1557_440"/>
<feColorMatrix in="SourceAlpha" type="matrix" values="0 0 0 0 0 0 0 0 0 0 0 0 0 0 0 0 0 0 127 0" result="hardAlpha"/>
<feOffset/>
<feGaussianBlur stdDeviation="0.5"/>
<feColorMatrix type="matrix" values="0 0 0 0 0 0 0 0 0 0 0 0 0 0 0 0 0 0 0.1 0"/>
<feBlend mode="normal" in2="effect1_dropShadow_1557_440" result="effect2_dropShadow_1557_440"/>
<feColorMatrix in="SourceAlpha" type="matrix" values="0 0 0 0 0 0 0 0 0 0 0 0 0 0 0 0 0 0 127 0" result="hardAlpha"/>
<feOffset dy="2"/>
<feGaussianBlur stdDeviation="1"/>
<feColorMatrix type="matrix" values="0 0 0 0 0 0 0 0 0 0 0 0 0 0 0 0 0 0 0.09 0"/>
<feBlend mode="normal" in2="effect2_dropShadow_1557_440" result="effect3_dropShadow_1557_440"/>
<feColorMatrix in="SourceAlpha" type="matrix" values="0 0 0 0 0 0 0 0 0 0 0 0 0 0 0 0 0 0 127 0" result="hardAlpha"/>
<feOffset dy="4"/>
<feGaussianBlur stdDeviation="1"/>
<feColorMatrix type="matrix" values="0 0 0 0 0 0 0 0 0 0 0 0 0 0 0 0 0 0 0.05 0"/>
<feBlend mode="normal" in2="effect3_dropShadow_1557_440" result="effect4_dropShadow_1557_440"/>
<feColorMatrix in="SourceAlpha" type="matrix" values="0 0 0 0 0 0 0 0 0 0 0 0 0 0 0 0 0 0 127 0" result="hardAlpha"/>
<feOffset dy="7"/>
<feGaussianBlur stdDeviation="1.5"/>
<feColorMatrix type="matrix" values="0 0 0 0 0 0 0 0 0 0 0 0 0 0 0 0 0 0 0.01 0"/>
<feBlend mode="normal" in2="effect4_dropShadow_1557_440" result="effect5_dropShadow_1557_440"/>
<feBlend mode="normal" in="SourceGraphic" in2="effect5_dropShadow_1557_440" result="shape"/>
</filter>
<linearGradient id="paint0_linear_1557_440" x1="33.1736" y1="60.6151" x2="46.6155" y2="53.8724" gradientUnits="userSpaceOnUse">
<stop offset="0.128472" stop-color="#16B2E6"/>
<stop offset="0.331597" stop-color="#32B0E7"/>
<stop offset="0.649305" stop-color="#0078D1"/>
<stop offset="0.920139" stop-color="#185A97"/>
</linearGradient>
<clipPath id="clip0_1557_440">
<rect width="102" height="102" fill="white" transform="translate(0.0893555)"/>
</clipPath>
</defs>
</svg>
