<?xml version="1.0" encoding="UTF-8"?>
<svg width="102px" height="102px" viewBox="0 0 102 102" version="1.1" xmlns="http://www.w3.org/2000/svg" xmlns:xlink="http://www.w3.org/1999/xlink">
    <title>NA/train-a-machine-learning-model</title>
    <defs>
        <rect id="path-1" x="0" y="0" width="94.3396226" height="94.3396226" rx="47.1698113"></rect>
        <filter x="-2.9%" y="-2.9%" width="106.4%" height="106.4%" filterUnits="objectBoundingBox" id="filter-3">
            <feMorphology radius="2.5" operator="dilate" in="SourceAlpha" result="shadowSpreadOuter1"></feMorphology>
            <feOffset dx="0.5" dy="0.5" in="shadowSpreadOuter1" result="shadowOffsetOuter1"></feOffset>
            <feMorphology radius="1" operator="erode" in="SourceAlpha" result="shadowInner"></feMorphology>
            <feOffset dx="0.5" dy="0.5" in="shadowInner" result="shadowInner"></feOffset>
            <feComposite in="shadowOffsetOuter1" in2="shadowInner" operator="out" result="shadowOffsetOuter1"></feComposite>
            <feColorMatrix values="0 0 0 0 0.821822822   0 0 0 0 0.831640661   0 0 0 0 0.835737288  0 0 0 1 0" type="matrix" in="shadowOffsetOuter1"></feColorMatrix>
        </filter>
        <linearGradient x1="77.8299825%" y1="11.1997378%" x2="-99.6885927%" y2="253.807911%" id="linearGradient-4">
            <stop stop-color="#FFFFFF" offset="0%"></stop>
            <stop stop-color="#000000" stop-opacity="0.5" offset="100%"></stop>
        </linearGradient>
        <rect id="path-5" x="0" y="0" width="94.3396226" height="94.3396226"></rect>
        <path d="M47.1698113,0 C73.2209788,0 94.3396226,21.1186439 94.3396226,47.1698113 C94.3396226,73.2209788 73.2209788,94.3396226 47.1698113,94.3396226 C21.1186439,94.3396226 0,73.2209788 0,47.1698113 C0,21.1186439 21.1186439,0 47.1698113,0 Z M47.1698113,3.77358491 C23.2027373,3.77358491 3.77358491,23.2027373 3.77358491,47.1698113 C3.77358491,71.1368854 23.2027373,90.5660377 47.1698113,90.5660377 C71.1368854,90.5660377 90.5660377,71.1368854 90.5660377,47.1698113 C90.5660377,23.2027373 71.1368854,3.77358491 47.1698113,3.77358491 Z" id="path-6"></path>
        <linearGradient x1="-78.2380608%" y1="50%" x2="100%" y2="50%" id="linearGradient-8">
            <stop stop-color="#C28626" offset="0%"></stop>
            <stop stop-color="#EFB252" offset="100%"></stop>
        </linearGradient>
        <linearGradient x1="67.5100829%" y1="262.628762%" x2="67.5100829%" y2="50%" id="linearGradient-9">
            <stop stop-color="#646363" offset="0%"></stop>
            <stop stop-color="#30404D" offset="100%"></stop>
        </linearGradient>
        <linearGradient x1="-78.2380608%" y1="50%" x2="100%" y2="50%" id="linearGradient-10">
            <stop stop-color="#C28626" offset="0%"></stop>
            <stop stop-color="#EFB252" offset="100%"></stop>
        </linearGradient>
        <filter x="-25.1%" y="-27.2%" width="150.6%" height="154.3%" filterUnits="objectBoundingBox" id="filter-11">
            <feOffset dx="0" dy="2" in="SourceAlpha" result="shadowOffsetOuter1"></feOffset>
            <feGaussianBlur stdDeviation="2" in="shadowOffsetOuter1" result="shadowBlurOuter1"></feGaussianBlur>
            <feColorMatrix values="0 0 0 0 0   0 0 0 0 0   0 0 0 0 0  0 0 0 0.1 0" type="matrix" in="shadowBlurOuter1" result="shadowMatrixOuter1"></feColorMatrix>
            <feMerge>
                <feMergeNode in="shadowMatrixOuter1"></feMergeNode>
                <feMergeNode in="SourceGraphic"></feMergeNode>
            </feMerge>
        </filter>
        <linearGradient x1="50%" y1="100%" x2="50%" y2="0%" id="linearGradient-12">
            <stop stop-color="#CCCCCC" offset="15%"></stop>
            <stop stop-color="#707070" offset="100%"></stop>
        </linearGradient>
        <polygon id="path-13" points="0 0.0347039275 47.7280346 0.0347039275 47.7280346 31.5284837 0 31.5284837"></polygon>
        <linearGradient x1="50%" y1="0.670396959%" x2="50%" y2="100%" id="linearGradient-15">
            <stop stop-color="#6A6A6A" offset="0%"></stop>
            <stop stop-color="#343333" offset="100%"></stop>
        </linearGradient>
        <linearGradient x1="49.0240872%" y1="3.10884741%" x2="50.0473976%" y2="98.0679576%" id="linearGradient-16">
            <stop stop-color="#32D4F5" offset="0%"></stop>
            <stop stop-color="#31D1F3" offset="32%"></stop>
            <stop stop-color="#2EC9EB" offset="53%"></stop>
            <stop stop-color="#29BADE" offset="70%"></stop>
            <stop stop-color="#22A5CB" offset="86%"></stop>
            <stop stop-color="#198AB3" offset="100%"></stop>
            <stop stop-color="#198AB3" offset="100%"></stop>
        </linearGradient>
    </defs>
    <g id="Badges" stroke="none" stroke-width="1" fill="none" fill-rule="evenodd">
        <g id="N/A-16" transform="translate(-159.000000, -1269.000000)">
            <g id="NA/train-a-machine-learning-model" transform="translate(160.000000, 1270.000000)">
                <g id="Badge-Plates/Circle">
                    <g id="BG" transform="translate(2.830189, 2.830189)">
                        <mask id="mask-2" fill="white">
                            <use xlink:href="#path-1"></use>
                        </mask>
                        <g>
                            <use fill="black" fill-opacity="1" filter="url(#filter-3)" xlink:href="#path-1"></use>
                            <rect stroke="#F2F1F0" stroke-width="2.5" x="-1.25" y="-1.25" width="96.8396226" height="96.8396226" rx="48.4198113"></rect>
                        </g>
                        <g id="Colors/Microsoft-365/BG-Solid-Badge" mask="url(#mask-2)">
                            <g id="Rectangle">
                                <use fill="#0078D4" xlink:href="#path-5"></use>
                                <use fill-opacity="0.4" fill="url(#linearGradient-4)" xlink:href="#path-5"></use>
                            </g>
                        </g>
                    </g>
                    <g id="Border" transform="translate(2.830189, 2.830189)">
                        <mask id="mask-7" fill="white">
                            <use xlink:href="#path-6"></use>
                        </mask>
                        <use id="Boarder" fill="#0078D4" fill-rule="nonzero" xlink:href="#path-6"></use>
                        <g id="Colors/Microsoft-365/Border" mask="url(#mask-7)" fill="#0076D7">
                            <rect id="Microsoft-365/Border" x="0" y="0" width="94.3396226" height="94.3396226"></rect>
                        </g>
                    </g>
                </g>
                <g id="Group-5" transform="translate(5.000000, 32.000000)">
                    <g id="Arm" transform="translate(46.000000, 20.727764) rotate(8.000000) translate(-46.000000, -20.727764) translate(1.803922, 6.747371)">
                        <path d="M77.4108639,16.9196224 L81.5247071,12.1870341 C82.154395,11.4628198 82.1068291,10.3723733 81.4164718,9.70574001 L76.4466678,4.90730863 C75.801898,4.28435457 75.7841309,3.25668814 76.4069816,2.61181844 C77.0293345,1.96691648 77.110511,1.26158314 77.7554129,1.88393608 L85.1172169,9.78962236 C85.7128506,10.4290329 85.764534,11.403417 85.2398835,12.1022498 L81.0385502,17.6935047 C81.5787671,18.2304863 81.6730428,19.0708305 81.2652422,19.7141673 C80.8574417,20.3575041 80.0572213,20.6308421 79.34106,20.3714263 L78.0422365,19.8987988 C77.2773088,19.6199487 76.837209,18.8176634 77.0130992,18.0227204 C77.0040796,17.6330733 77.133962,17.2380145 77.409962,16.9196224 L77.4108639,16.9196224 L77.4108639,16.9196224 Z" id="Combined-Shape" fill="#3A3939" fill-rule="nonzero" transform="translate(80.776211, 11.055729) rotate(-15.000000) translate(-80.776211, -11.055729) "></path>
                        <g id="Weight" transform="translate(14.377441, 16.655814) rotate(151.000000) translate(-14.377441, -16.655814) translate(1.749990, 10.793069)" fill-rule="nonzero">
                            <path d="M0,2.3252549 C0,1.89862745 0.349058824,1.54956863 0.775686275,1.54956863 L2.71219608,1.54956863 C3.13792157,1.54956863 3.48698039,1.89862745 3.48698039,2.3252549 L3.48698039,9.29831373 C3.48698039,9.72494118 3.13792157,10.074 2.71129412,10.074 L0.775686275,10.074 C0.348050371,10.0725128 0.00189157558,9.72595107 0.000901960784,9.29831373 L0.000901960784,2.3252549" id="Fill-245" fill="url(#linearGradient-8)"></path>
                            <path d="M7.16788235,4.64960784 L17.6279216,4.64960784 C17.9490196,4.64960784 18.2087843,5.17003922 18.2087843,5.81223529 C18.2087843,6.45262745 17.9490196,6.97396078 17.6279216,6.97396078 L7.16788235,6.97396078 C6.84678431,6.97396078 6.58611765,6.45352941 6.58611765,5.81223529 C6.58611765,5.17003922 6.84678431,4.64870588 7.16788235,4.64870588" id="Fill-246" fill="url(#linearGradient-9)"></path>
                            <path d="M7.74784314,4.26176471 C8.17627451,4.26176471 8.52352941,4.22117647 8.52352941,4.64960784 L8.52352941,6.97396078 C8.52352941,7.4014902 8.17627451,7.36180392 7.74784314,7.36180392 C7.32031373,7.36180392 6.97396078,7.4014902 6.97396078,6.97396078 L6.97396078,4.64960784 C6.97396078,4.22117647 7.32031373,4.26176471 7.7487451,4.26176471" id="Fill-247" fill="#282626"></path>
                            <path d="M17.0470588,4.26176471 C17.4745882,4.26176471 17.8218431,4.22117647 17.8218431,4.64960784 L17.8218431,6.97396078 C17.8218431,7.4014902 17.4745882,7.36180392 17.0461569,7.36180392 C16.6195294,7.36180392 16.2722745,7.4014902 16.2722745,6.97396078 L16.2722745,4.64960784 C16.2722745,4.22117647 16.6195294,4.26176471 17.0470588,4.26176471" id="Fill-248" fill="#282626"></path>
                            <path d="M3.48698039,0.775686275 C3.48698039,0.349058824 3.83513725,0 4.26176471,0 L6.19917647,0 C6.62490196,0 6.97396078,0.349058824 6.97396078,0.775686275 L6.97396078,10.8487843 C6.97396078,11.2745098 6.62490196,11.6235686 6.19827451,11.6235686 L4.26266667,11.6235686 C3.83467848,11.6225768 3.48797226,11.2758705 3.48698039,10.8478824 L3.48698039,0.775686275" id="Fill-249" fill="#EFB252"></path>
                            <path d="M24.794902,9.29921569 C24.794902,9.72494118 24.4467451,10.073098 24.0210196,10.073098 L22.0836078,10.073098 C21.6563227,10.0716135 21.310308,9.72559888 21.3088235,9.29831373 L21.3088235,2.32435294 C21.3088235,1.89772549 21.6569804,1.54956863 22.0836078,1.54956863 L24.0201176,1.54956863 C24.4467451,1.54956863 24.7958039,1.89772549 24.7958039,2.3252549 L24.7958039,9.29831373" id="Fill-250" fill="url(#linearGradient-10)"></path>
                            <path d="M21.3088235,10.8487843 C21.3088235,11.2745098 20.9606667,11.6235686 20.5340392,11.6235686 L18.5984314,11.6235686 C18.1704432,11.6225768 17.823737,11.2758705 17.8227451,10.8478824 L17.8227451,0.775686275 C17.8227451,0.349058824 18.1718039,0.000901960784 18.5984314,0.000901960784 L20.5349412,0.000901960784 C20.9606667,0.000901960784 21.3097255,0.349058824 21.3097255,0.776588235 L21.3097255,10.8496863" id="Fill-251" fill="#EFB252"></path>
                        </g>
                        <path d="M30.6603529,12.3667843 L27.8597647,17.9995294 C27.2229804,17.5972549 26.8594902,17.4890196 26.7701961,17.6748235 C26.68,17.8606275 27.0434902,17.9688627 27.8597647,17.9995294 L24.5757255,24.9374118 L13.4491373,16.5401569 L14.3132157,14.6036471" id="Path-2" stroke="#3A3939" stroke-width="3.2" stroke-linecap="round" stroke-linejoin="round"></path>
                    </g>
                    <g id="Computer" filter="url(#filter-11)" transform="translate(32.311698, 2.705882)">
                        <g id="Group-17">
                            <path d="M33.8198596,40.9527903 C28.9295937,40.1688039 28.7372799,36.584866 28.7372799,30.7889664 L19.0391683,30.7889664 C19.0391683,36.584866 18.8743279,40.1688039 13.984062,40.9527903 C12.5858444,41.1104699 11.5303951,42.3190777 11.5388776,43.7527418 L36.2650439,43.7527418 C36.2735264,42.3190777 35.2180771,41.1104699 33.8198596,40.9527903 Z" id="Path" fill="url(#linearGradient-12)" fill-rule="nonzero"></path>
                            <g id="Group-7">
                                <g id="Group-3">
                                    <mask id="mask-14" fill="white">
                                        <use xlink:href="#path-13"></use>
                                    </mask>
                                    <g id="Clip-2"></g>
                                    <path d="M46.147439,0.0347039275 C47.0204529,0.0347039275 47.7280346,0.735267904 47.7280346,1.59962338 L47.7280346,29.9635642 C47.7280346,30.8279197 47.0204529,31.5284837 46.147439,31.5284837 L1.58052587,31.5284837 C0.707651346,31.5284837 -6.96850169e-05,30.8279197 -6.96850169e-05,29.9635642 L-6.96850169e-05,1.59962338 C-6.96850169e-05,0.735267904 0.707651346,0.0347039275 1.58052587,0.0347039275 L46.147439,0.0347039275 Z" id="Fill-1" fill="url(#linearGradient-15)" mask="url(#mask-14)"></path>
                                </g>
                            </g>
                        </g>
                    </g>
                </g>
                <g id="Icon-iot-200-Machine-Learning-Studio-Web-Services" transform="translate(48.000000, 37.000000)" fill-rule="nonzero">
                    <path d="M21.7822222,16.8711111 C17.8315308,19.77115 12.2896689,18.9960167 9.28627183,15.1233182 C6.28287472,11.2506197 6.91133105,5.6902144 10.7033333,2.58555556 L10.8044444,2.51333333 C14.7749408,-0.310727425 20.2690897,0.519014821 23.228533,4.3896551 C26.1879762,8.26029539 25.5483924,13.7798132 21.7822222,16.8711111" id="a7c013d6-5689-4e8e-b37e-dee5ff9f4ca6" fill="#F2F2F2"></path>
                    <path d="M23.4577778,4.33333333 C20.465356,0.33811492 14.8015711,-0.476539073 10.8044444,2.51333333 L10.7033333,2.58555556 C6.91133105,5.6902144 6.28287472,11.2506197 9.28627183,15.1233182 C12.2896689,18.9960167 17.8315308,19.77115 21.7822222,16.8711111 L21.7822222,16.8711111 C25.6359766,13.8306929 26.3779057,8.27901694 23.4577778,4.33333333 Z M8.39222222,9.14333333 C8.47411095,8.07320159 8.77395619,7.03111647 9.27333333,6.08111111 L11.4544444,6.08111111 C11.2132277,7.08536297 11.0729019,8.11119354 11.0355556,9.14333333 L8.39222222,9.14333333 Z M12.7255556,6.08111111 L15.73,6.08111111 L15.73,9.14333333 L12.2055556,9.14333333 C12.240282,8.10811481 12.3954001,7.08045775 12.6677778,6.08111111 L12.7255556,6.08111111 Z M16.8855556,6.08111111 L19.89,6.08111111 C20.1623777,7.08045775 20.3174958,8.10811481 20.3522222,9.14333333 L16.8855556,9.14333333 L16.8855556,6.08111111 Z M15.73,10.2988889 L15.73,13.3755556 L12.6677778,13.3755556 C12.3964523,12.3710719 12.2413625,11.3387556 12.2055556,10.2988889 L15.73,10.2988889 Z M16.8855556,10.2988889 L20.3522222,10.2988889 C20.3164152,11.3387556 20.1613254,12.3710719 19.89,13.3755556 L16.8277778,13.3755556 L16.8855556,10.2988889 Z M21.5222222,10.2988889 L24.1511111,10.2988889 C24.0674701,11.3714785 23.7729533,12.4170132 23.2844444,13.3755556 L21.0311111,13.3755556 C21.284339,12.3682858 21.4296021,11.3369172 21.4644444,10.2988889 L21.5222222,10.2988889 Z M21.5222222,9.14333333 C21.4877854,8.11002593 21.3425085,7.08340208 21.0888889,6.08111111 L23.2844444,6.08111111 C23.7822717,7.03082275 24.0773946,8.07359037 24.1511111,9.14333333 L21.5222222,9.14333333 Z M22.5477778,4.91111111 L20.6844444,4.91111111 C20.3848002,4.05201097 19.9561922,3.24350044 19.4133333,2.51333333 C20.6222172,3.04449016 21.6796451,3.86858887 22.49,4.91111111 L22.5477778,4.91111111 Z M19.4855556,4.91111111 L16.8855556,4.91111111 L16.8855556,2.02222222 C18.1046031,2.58068403 19.0288397,3.63095299 19.4277778,4.91111111 L19.4855556,4.91111111 Z M15.73,2.02222222 L15.73,4.91111111 L13.0722222,4.91111111 C13.4697595,3.59787238 14.4187021,2.5224041 15.6722222,1.96444444 L15.73,2.02222222 Z M11.4255556,3.49555556 L11.4255556,3.49555556 C11.9164412,3.1251725 12.449858,2.81482094 13.0144444,2.57111111 C12.4992813,3.28630159 12.0950932,4.07519893 11.8155556,4.91111111 L10.01,4.91111111 C10.414554,4.37644606 10.8908905,3.90010951 11.4255556,3.49555556 L11.4255556,3.49555556 Z M8.39222222,10.2988889 L11.0355556,10.2988889 C11.0729016,11.3357903 11.213221,12.3664121 11.4544444,13.3755556 L9.27333333,13.3755556 C8.76451789,12.4241909 8.46415169,11.3753712 8.39222222,10.2988889 L8.39222222,10.2988889 Z M10.0244444,14.6322222 L10.0244444,14.6322222 L11.8155556,14.6322222 C12.1119578,15.4971949 12.540761,16.3109466 13.0866667,17.0444444 C11.8713442,16.4900436 10.8174175,15.6349711 10.0244444,14.56 L10.0244444,14.6322222 Z M13.0722222,14.6322222 L15.6722222,14.6322222 L15.6722222,17.5211111 C14.4091965,16.9537099 13.4587441,15.8606896 13.0722222,14.5311111 L13.0722222,14.6322222 Z M16.8277778,17.5211111 L16.8277778,14.6322222 L19.4277778,14.6322222 C19.0051695,15.9073001 18.0596449,16.9421242 16.8277778,17.4777778 L16.8277778,17.5211111 Z M21.0744444,15.8888889 L21.0744444,15.8888889 C20.5627425,16.2941589 19.9992517,16.6293387 19.3988889,16.8855556 C19.9579119,16.1581421 20.3923327,15.3429929 20.6844444,14.4733333 L22.49,14.4733333 C22.0776993,15.0011983 21.6023095,15.4765881 21.0744444,15.8888889 Z" id="Shape" fill="#0078D4"></path>
                    <path d="M15.6722222,25.3066667 L1.28555556,25.3066667 C0.837777778,25.3066667 0.563333333,24.57 0.823333333,24.1944444 L5.77777778,16.9722222 C5.84545371,16.8802688 5.8809853,16.7685981 5.87888889,16.6544444 L5.87888889,11.8733333 C5.87888889,11.7137844 5.74954893,11.5844444 5.59,11.5844444 L5.33,11.5844444 C5.17939881,11.5884626 5.03376625,11.5304029 4.92723723,11.4238739 C4.82070821,11.3173449 4.76264847,11.1717123 4.76666667,11.0211111 L4.76666667,10.7611111 C4.76666667,10.4499907 5.01887959,10.1977778 5.33,10.1977778 L11.6422222,10.1977778 C11.950137,10.2053841 12.1979493,10.4531964 12.2055556,10.7611111 L12.2055556,11.0211111 C12.190162,11.3208955 11.9424013,11.5559505 11.6422222,11.5555556 L11.3677778,11.5555556 C11.2924174,11.5554511 11.2203298,11.58634 11.1684253,11.6409763 C11.1165208,11.6956126 11.0893669,11.7691884 11.0933333,11.8444444 L11.0933333,16.64 C11.0912369,16.7541537 11.1267685,16.8658244 11.1944444,16.9577778 L16.1488889,24.18 C16.4088889,24.5555556 16.1344444,25.3066667 15.6722222,25.3066667 Z" id="Path" fill="url(#linearGradient-16)"></path>
                    <path d="M3.23555556,23.4 L6.80333333,18.2 C6.95666101,17.9852255 7.03760912,17.7272034 7.03444444,17.4633333 L7.03444444,15.3688889 C7.03444444,15.1375429 7.22198739,14.95 7.45333333,14.95 L9.47555556,14.95 C9.7069015,14.95 9.89444444,15.1375429 9.89444444,15.3688889 L9.89444444,17.6077778 C9.89112638,17.7824158 9.94154994,17.9538559 10.0388889,18.0988889 L13.6933333,23.4 C13.7563278,23.4967471 13.7618966,23.6200484 13.7078798,23.7220801 C13.653863,23.8241119 13.5487589,23.8888217 13.4333333,23.8911111 L3.49555556,23.8911111 C3.375423,23.90002 3.26140287,23.8369976 3.20503998,23.7305344 C3.14867708,23.6240711 3.16065369,23.4943446 3.23555556,23.4 Z" id="Path" fill="#FFFFFF"></path>
                </g>
            </g>
        </g>
    </g>
</svg>