<svg width="103" height="103" viewBox="0 0 103 103" fill="none" xmlns="http://www.w3.org/2000/svg">
<path d="M51.7426 98.4424C25.8926 98.4424 4.93262 77.4924 4.93262 51.6324C4.93262 25.7724 25.8926 4.8224 51.7426 4.8224C77.5926 4.8224 98.5526 25.7824 98.5526 51.6324C98.5526 77.4824 77.5926 98.4424 51.7426 98.4424Z" fill="url(#paint0_linear_1148_1847)"/>
<path fill-rule="evenodd" clip-rule="evenodd" d="M97.6425 51.6325C97.6425 76.9825 77.0925 97.5325 51.7425 97.5325C26.3925 97.5325 5.84254 76.9825 5.84254 51.6325C5.84254 26.2825 26.3925 5.73251 51.7425 5.73251C77.0925 5.73251 97.6425 26.2825 97.6425 51.6325ZM51.7425 1.99251C79.1625 1.99251 101.383 24.2125 101.383 51.6325C101.383 79.0525 79.1525 101.273 51.7425 101.273C24.3225 101.273 2.10254 79.0425 2.10254 51.6325C2.10254 24.2125 24.3225 1.99251 51.7425 1.99251Z" fill="#F2F1F0"/>
<path fill-rule="evenodd" clip-rule="evenodd" d="M94.8321 51.6324C94.8321 75.4324 75.5421 94.7224 51.7421 94.7224C27.9421 94.7224 8.65211 75.4324 8.65211 51.6324C8.65211 27.8324 27.9421 8.5424 51.7421 8.5424C75.5421 8.5424 94.8321 27.8324 94.8321 51.6324ZM51.7421 4.8024C77.6021 4.8024 98.5721 25.7724 98.5721 51.6324C98.5721 77.4924 77.6021 98.4624 51.7421 98.4624C25.8821 98.4624 4.91211 77.4924 4.91211 51.6324C4.91211 25.7724 25.8721 4.8024 51.7421 4.8024Z" fill="url(#paint1_linear_1148_1847)"/>
<path opacity="0.2" d="M77.9053 80.38C79.1501 80.38 80.1573 79.3728 80.1573 78.128V24.8818H23.2559V78.128C23.2559 79.3728 24.2631 80.38 25.5079 80.38H77.9053Z" fill="#1F1D21"/>
<path d="M80.1574 24.8584V23.9757C80.1574 22.8779 79.2746 21.9952 78.1769 21.9952H25.2363C24.1386 21.9952 23.2559 22.8779 23.2559 23.9757V24.9489V25.8429V76.5088C23.2559 77.6066 24.1386 78.4893 25.2363 78.4893H78.1995C79.2973 78.4893 80.18 77.6066 80.18 76.5088V24.9489C80.1687 24.915 80.1574 24.8923 80.1574 24.8584Z" fill="url(#paint2_linear_1148_1847)"/>
<path d="M69.7012 27.753H30.2162C29.6442 27.753 29.1748 28.2224 29.1748 28.7944V43.726C29.1748 44.298 29.6442 44.7674 30.2162 44.7674H69.7012C70.2733 44.7674 70.7426 44.298 70.7426 43.726V28.7944C70.7426 28.2224 70.2733 27.753 69.7012 27.753Z" fill="url(#paint3_linear_1148_1847)"/>
<path d="M69.7012 59.6253H30.2162C29.6442 59.6253 29.1748 60.0946 29.1748 60.6667V75.5982C29.1748 76.1703 29.6442 76.6396 30.2162 76.6396H69.7012C70.2733 76.6396 70.7426 76.1703 70.7426 75.5982V60.6667C70.7426 60.08 70.2733 59.6253 69.7012 59.6253Z" fill="url(#paint4_linear_1148_1847)"/>
<path d="M69.7012 46.6596H30.2162C29.6442 46.6596 29.1748 47.129 29.1748 47.701V56.7656C29.1748 57.3376 29.6442 57.807 30.2162 57.807H69.7012C70.2733 57.807 70.7426 57.3376 70.7426 56.7656V47.701C70.7426 47.129 70.2733 46.6596 69.7012 46.6596Z" fill="url(#paint5_linear_1148_1847)"/>
<path opacity="0.15" d="M74.6309 28.7882H35.1459C34.5739 28.7882 34.1045 29.2575 34.1045 29.8296V44.7611C34.1045 45.3332 34.5739 45.8025 35.1459 45.8025H74.6309C75.203 45.8025 75.6723 45.3332 75.6723 44.7611V29.8296C75.6723 29.2575 75.203 28.7882 74.6309 28.7882Z" fill="#1F1D20"/>
<path opacity="0.15" d="M74.6309 60.7066H35.1459C34.5739 60.7066 34.1045 61.1759 34.1045 61.748V76.6795C34.1045 77.2516 34.5739 77.7209 35.1459 77.7209H74.6309C75.203 77.7209 75.6723 77.2516 75.6723 76.6795V61.748C75.6723 61.1613 75.203 60.7066 74.6309 60.7066Z" fill="#1F1D20"/>
<path opacity="0.15" d="M74.6309 47.6954H35.1459C34.5739 47.6954 34.1045 48.1648 34.1045 48.7368V57.8013C34.1045 58.3734 34.5739 58.8427 35.1459 58.8427H74.6309C75.203 58.8427 75.6723 58.3734 75.6723 57.8013V48.7368C75.6723 48.1648 75.203 47.6954 74.6309 47.6954Z" fill="#1F1D20"/>
<path d="M74.6309 27.753H35.1459C34.5739 27.753 34.1045 28.2223 34.1045 28.7944V43.7259C34.1045 44.298 34.5739 44.7673 35.1459 44.7673H74.6309C75.203 44.7673 75.6723 44.298 75.6723 43.7259V28.7944C75.6723 28.2223 75.203 27.753 74.6309 27.753Z" fill="#282828"/>
<path d="M39.1504 32.1389H38.7838C38.5491 32.1389 38.3584 32.3296 38.3584 32.5643V32.7256C38.3584 32.9603 38.5491 33.151 38.7838 33.151H39.1504C39.3851 33.151 39.5758 32.9603 39.5758 32.7256V32.5643C39.5758 32.3149 39.3851 32.1389 39.1504 32.1389Z" fill="#D5F9FD"/>
<path d="M39.5758 34.5735H38.3584V35.5856H39.5758V34.5735Z" fill="#ACF3FD"/>
<path d="M39.5758 36.8032H38.3584V37.8153H39.5758V36.8032Z" fill="#84ECFD"/>
<path d="M39.5758 39.2529H38.3584V40.265H39.5758V39.2529Z" fill="#50E6FF"/>
<path d="M46.0736 36.8032H42.8174V37.8153H46.0736V36.8032Z" fill="#84ECFD"/>
<path d="M58.6876 32.1244H43.3307C43.0667 32.1244 42.8613 32.3298 42.8613 32.5938C42.8613 32.8578 43.0667 33.0631 43.3307 33.0631H58.7023C58.9663 33.0631 59.1716 32.8578 59.1716 32.5938C59.1716 32.3298 58.9516 32.1244 58.6876 32.1244Z" fill="#D5F9FD"/>
<path d="M63.8214 36.8622H47.6871C47.4231 36.8622 47.2178 37.0675 47.2178 37.3315C47.2178 37.5955 47.4231 37.8009 47.6871 37.8009H63.8214C64.0855 37.8009 64.2908 37.5955 64.2908 37.3315C64.2908 37.0822 64.0855 36.8622 63.8214 36.8622Z" fill="#84ECFD"/>
<path d="M53.5684 39.3259H43.5065C43.2425 39.3259 43.0371 39.5312 43.0371 39.7952C43.0371 40.0592 43.2425 40.2646 43.5065 40.2646H53.5684C53.8324 40.2646 54.0378 40.0592 54.0378 39.7952C54.0378 39.5459 53.8324 39.3259 53.5684 39.3259Z" fill="#50E6FF"/>
<path d="M74.6309 59.6253H35.1459C34.5739 59.6253 34.1045 60.0946 34.1045 60.6667V75.5982C34.1045 76.1703 34.5739 76.6396 35.1459 76.6396H74.6309C75.203 76.6396 75.6723 76.1703 75.6723 75.5982V60.6667C75.6723 60.08 75.203 59.6253 74.6309 59.6253Z" fill="#282828"/>
<path d="M39.1504 63.9968H38.7838C38.5491 63.9968 38.3584 64.1875 38.3584 64.4222V64.5835C38.3584 64.8182 38.5491 65.0089 38.7838 65.0089H39.1504C39.3851 65.0089 39.5758 64.8182 39.5758 64.5835V64.4222C39.5758 64.1875 39.3851 63.9968 39.1504 63.9968Z" fill="#0179CE"/>
<path d="M39.5758 66.4312H38.3584V67.4433H39.5758V66.4312Z" fill="#016CB8"/>
<path d="M39.5758 68.6755H38.3584V69.6876H39.5758V68.6755Z" fill="#01538D"/>
<path d="M39.5758 71.1106H38.3584V72.1227H39.5758V71.1106Z" fill="#01416E"/>
<path d="M46.0736 68.6755H42.8174V69.6876H46.0736V68.6755Z" fill="#01538D"/>
<path d="M58.6876 63.9821H43.3307C43.0667 63.9821 42.8613 64.1875 42.8613 64.4515C42.8613 64.7155 43.0667 64.9208 43.3307 64.9208H58.7023C58.9663 64.9208 59.1716 64.7155 59.1716 64.4515C59.1716 64.2021 58.9516 63.9821 58.6876 63.9821Z" fill="#0179CE"/>
<path d="M63.8214 68.7339H47.6871C47.4231 68.7339 47.2178 68.9392 47.2178 69.2032C47.2178 69.4672 47.4231 69.6726 47.6871 69.6726H63.8214C64.0855 69.6726 64.2908 69.4672 64.2908 69.2032C64.2908 68.9392 64.0855 68.7339 63.8214 68.7339Z" fill="#01538D"/>
<path d="M53.5684 71.1982H43.5065C43.2425 71.1982 43.0371 71.4035 43.0371 71.6675C43.0371 71.9315 43.2425 72.1369 43.5065 72.1369H53.5684C53.8324 72.1369 54.0378 71.9315 54.0378 71.6675C54.0378 71.4035 53.8324 71.1982 53.5684 71.1982Z" fill="#01416E"/>
<path d="M74.6309 46.6596H35.1459C34.5739 46.6596 34.1045 47.129 34.1045 47.701V56.7656C34.1045 57.3376 34.5739 57.807 35.1459 57.807H74.6309C75.203 57.807 75.6723 57.3376 75.6723 56.7656V47.701C75.6723 47.129 75.203 46.6596 74.6309 46.6596Z" fill="#282828"/>
<path d="M39.1504 51.0307H38.7838C38.5491 51.0307 38.3584 51.2214 38.3584 51.4561V51.6174C38.3584 51.8521 38.5491 52.0428 38.7838 52.0428H39.1504C39.3851 52.0428 39.5758 51.8521 39.5758 51.6174V51.4561C39.5758 51.2214 39.3851 51.0307 39.1504 51.0307Z" fill="#34C1F1"/>
<path d="M39.5758 53.466H38.3584V54.4781H39.5758V53.466Z" fill="#1497E2"/>
<path d="M58.6876 51.0163H43.3307C43.0667 51.0163 42.8613 51.2217 42.8613 51.4857C42.8613 51.7497 43.0667 51.9551 43.3307 51.9551H58.7023C58.9663 51.9551 59.1716 51.7497 59.1716 51.4857C59.1716 51.2364 58.9516 51.0163 58.6876 51.0163Z" fill="#34C1F1"/>
<path d="M73.1031 32.5738L77.8925 40.7237C77.8925 40.7237 68.7149 40.69 68.7974 40.5737C68.8762 40.4575 73.1031 32.5738 73.1031 32.5738Z" fill="white"/>
<path d="M78.8193 40.54L73.7561 32.2288C73.5386 31.8724 73.0172 31.8724 72.8034 32.2325L67.8452 40.5437C67.6239 40.915 67.8902 41.3838 68.3215 41.3838H78.343C78.7781 41.3838 79.0444 40.9113 78.8193 40.54ZM69.4692 40.1499L73.3098 33.5227L77.2066 40.1499H69.4692V40.1499Z" fill="#E81E25"/>
<path d="M73.336 39.7036C73.2122 39.7036 73.1072 39.6624 73.0209 39.5836C72.9347 39.5049 72.8896 39.4074 72.8896 39.2948C72.8896 39.1786 72.9347 39.0773 73.0209 38.9948C73.1072 38.9123 73.2122 38.871 73.336 38.871C73.456 38.871 73.5572 38.9123 73.6473 38.9948C73.7335 39.0773 73.7785 39.1786 73.7785 39.2948C73.7785 39.4074 73.7335 39.5049 73.6473 39.5836C73.5572 39.6661 73.456 39.7036 73.336 39.7036ZM73.6773 35.2105L73.621 38.3384H73.0322L72.9534 35.2105H73.6773Z" fill="black"/>
<path opacity="0.15" d="M81.0416 80.6577C81.392 80.6577 81.6699 80.3798 81.6699 80.0294V58.7509H59.7812V80.0354C59.7812 80.3858 60.0592 80.6637 60.4096 80.6637L81.0416 80.6577Z" fill="#1F1D20"/>
<path d="M81.6638 58.9323V58.5939C81.6638 58.171 81.3255 57.8327 80.9026 57.8327H60.5425C60.1196 57.8327 59.7812 58.171 59.7812 58.5939V58.9685V59.3129V79.3649C59.7812 79.7878 60.1196 80.1261 60.5425 80.1261H80.9086C81.3316 80.1261 81.6699 79.7878 81.6699 79.3649V58.9745C81.6699 58.9564 81.6638 58.9504 81.6638 58.9323Z" fill="white"/>
<path d="M74.0193 62.0639L74.9234 62.0682L74.88 71.2339L73.976 71.2296L74.0193 62.0639Z" fill="#1F56A3"/>
<path d="M76.3022 77.1275L76.3213 73.9152L75.7079 73.2799L76.3294 72.6126L76.3374 71.2825C76.3367 71.2436 76.3282 71.2051 76.3126 71.1694C76.297 71.1336 76.2744 71.1014 76.2463 71.0743C76.2182 71.0473 76.185 71.0261 76.1487 71.0119C76.1123 70.9977 76.0736 70.9908 76.0346 70.9916L74.3701 70.9872L74.3699 70.9888L74.3699 70.9871L72.786 70.9827C72.709 70.9826 72.6351 71.013 72.5804 71.0672C72.5258 71.1214 72.4948 71.1951 72.4943 71.2721L72.4863 72.6019L73.0698 73.2724L72.4784 73.9044L72.459 77.1165C72.458 77.2624 72.4857 77.407 72.5407 77.5421C72.5957 77.6773 72.6768 77.8002 72.7795 77.9038C72.8821 78.0075 73.0042 78.0899 73.1388 78.1462C73.2734 78.2025 73.4178 78.2317 73.5636 78.232L74.3259 78.2341L74.326 78.2202L74.3265 78.2344L75.1274 78.2367C75.43 78.2444 75.7234 78.1322 75.9435 77.9243C76.1636 77.7165 76.2926 77.4301 76.3022 77.1275V77.1275Z" fill="#0078D4"/>
<path d="M75.3492 59.9522C75.3496 59.9022 75.34 59.8527 75.3212 59.8064C75.3023 59.7601 75.2745 59.7179 75.2393 59.6824C75.2042 59.6469 75.1623 59.6186 75.1162 59.5993C75.0701 59.58 75.0206 59.57 74.9706 59.5698L74.0178 59.5672C73.9166 59.5671 73.8195 59.607 73.7476 59.6783C73.6758 59.7496 73.6351 59.8464 73.6344 59.9476L73.6244 61.5809L74.0264 62.0704L74.9314 62.0731L75.3393 61.5737L75.3492 59.9522Z" fill="#1F56A3"/>
<path d="M73.6249 61.5447L73.6248 61.5813L74.0268 62.0702L74.9318 62.0729L75.3399 61.5737L75.34 61.5496L73.6249 61.5447Z" fill="#003067"/>
<path d="M74.065 76.8949C74.0647 76.9466 74.044 76.996 74.0073 77.0324C73.9706 77.0688 73.921 77.0891 73.8693 77.089L73.7183 77.0886C73.6928 77.0886 73.6675 77.0835 73.644 77.0736C73.6204 77.0637 73.5991 77.0493 73.5811 77.0312C73.5632 77.0131 73.549 76.9916 73.5393 76.968C73.5297 76.9444 73.5248 76.9191 73.5249 76.8936L73.5426 73.9921C73.5429 73.9405 73.5637 73.8911 73.6003 73.8547C73.637 73.8183 73.6866 73.798 73.7383 73.7981L73.8894 73.7984C73.9149 73.7985 73.9401 73.8036 73.9637 73.8135C73.9872 73.8233 74.0085 73.8377 74.0265 73.8559C74.0445 73.874 74.0587 73.8955 74.0683 73.9191C74.078 73.9427 74.0828 73.968 74.0827 73.9935L74.065 76.8949Z" fill="#1B93EB"/>
<path d="M75.3178 76.8981C75.3175 76.9497 75.2968 76.9991 75.2602 77.0355C75.2236 77.0719 75.1741 77.0923 75.1225 77.0922L74.9713 77.0918C74.9457 77.0917 74.9205 77.0866 74.897 77.0768C74.8734 77.0669 74.8521 77.0525 74.8341 77.0344C74.8162 77.0163 74.802 76.9948 74.7923 76.9711C74.7827 76.9475 74.7778 76.9222 74.7779 76.8967L74.7959 73.9965C74.7962 73.9449 74.817 73.8955 74.8536 73.8591C74.8902 73.8227 74.9398 73.8023 74.9914 73.8024L75.1421 73.8029C75.1676 73.803 75.1928 73.8081 75.2164 73.818C75.2399 73.8278 75.2612 73.8422 75.2792 73.8604C75.2971 73.8785 75.3113 73.9 75.3209 73.9236C75.3305 73.9473 75.3354 73.9726 75.3352 73.9981L75.3178 76.8981Z" fill="#1B93EB"/>
<path d="M68.9798 72.9194L68.931 64.4255C70.5575 63.1701 70.7604 62.3857 70.7554 61.4977C70.717 60.9365 70.5409 60.3934 70.2427 59.9163C69.9446 59.4393 69.5335 59.043 69.0458 58.7626L69.0133 61.6643C69.0123 61.7575 68.9746 61.8465 68.9084 61.9122C68.8423 61.9778 68.7529 62.0148 68.6597 62.0151L67.5378 62.0178L66.416 62.0205C66.3226 62.0207 66.2329 61.9843 66.166 61.9191C66.0992 61.8539 66.0606 61.765 66.0585 61.6717L65.9922 58.77C65.5077 59.0531 65.1009 59.4518 64.8082 59.9305C64.5154 60.4092 64.3458 60.953 64.3145 61.5132C64.3197 62.4131 64.5434 63.1587 66.0738 64.3548L66.1236 73.0039C65.1011 73.8151 64.3898 74.5877 64.3974 75.8539C64.4356 76.4151 64.6116 76.9583 64.9097 77.4354C65.2079 77.9124 65.619 78.3086 66.1067 78.589L66.1388 75.6872C66.1398 75.594 66.1774 75.5049 66.2436 75.4392C66.3099 75.3736 66.3993 75.3367 66.4925 75.3365L67.6147 75.3341L68.7363 75.3311C68.8297 75.3309 68.9195 75.3673 68.9864 75.4325C69.0533 75.4977 69.092 75.5865 69.0943 75.6799L69.1598 78.5811C69.633 78.3031 70.0324 77.9155 70.3243 77.4508C70.6162 76.9861 70.7921 76.458 70.8372 75.9111C70.8553 74.9796 70.6208 74.1669 68.9798 72.9194Z" fill="#092E4C"/>
<path opacity="0.2" d="M66.6996 64.5511L67.3879 64.5486L67.4209 73.5294L66.7325 73.532L66.6996 64.5511Z" fill="#53B1E0"/>
<defs>
<linearGradient id="paint0_linear_1148_1847" x1="49.9687" y1="-13.1571" x2="53.9507" y2="132.613" gradientUnits="userSpaceOnUse">
<stop stop-color="#00ABDE"/>
<stop offset="1" stop-color="#007ED8"/>
</linearGradient>
<linearGradient id="paint1_linear_1148_1847" x1="3.17251" y1="-19.9902" x2="98.7" y2="120.891" gradientUnits="userSpaceOnUse">
<stop stop-color="#007ED8"/>
<stop offset="0.7065" stop-color="#002D4C"/>
</linearGradient>
<linearGradient id="paint2_linear_1148_1847" x1="51.7179" y1="21.9952" x2="51.7179" y2="78.4893" gradientUnits="userSpaceOnUse">
<stop stop-color="#282827"/>
<stop offset="1" stop-color="#282827" stop-opacity="0"/>
</linearGradient>
<linearGradient id="paint3_linear_1148_1847" x1="49.9587" y1="27.753" x2="49.9587" y2="44.7674" gradientUnits="userSpaceOnUse">
<stop stop-color="#D5F9FD"/>
<stop offset="0.300347" stop-color="#ACF3FD"/>
<stop offset="0.638889" stop-color="#84ECFD"/>
<stop offset="0.940972" stop-color="#50E6FF"/>
</linearGradient>
<linearGradient id="paint4_linear_1148_1847" x1="49.9587" y1="59.6253" x2="49.9587" y2="76.6396" gradientUnits="userSpaceOnUse">
<stop stop-color="#016CB8"/>
<stop offset="0.35243" stop-color="#016CB8"/>
<stop offset="0.649305" stop-color="#01538D"/>
<stop offset="1" stop-color="#01416E"/>
</linearGradient>
<linearGradient id="paint5_linear_1148_1847" x1="49.9587" y1="46.6596" x2="49.9587" y2="57.807" gradientUnits="userSpaceOnUse">
<stop offset="0.404514" stop-color="#34C1F1"/>
<stop offset="1" stop-color="#1497E2"/>
</linearGradient>
</defs>
</svg>
