<?xml version="1.0" encoding="UTF-8"?>
<svg width="107px" height="107px" viewBox="0 0 107 107" version="1.1" xmlns="http://www.w3.org/2000/svg" xmlns:xlink="http://www.w3.org/1999/xlink">
    <!-- Generator: Sketch 61 (89581) - https://sketch.com -->
    <title>NA/Using-IAAS-Support-with-Azure-for-SAP-workloads Copy</title>
    <desc>Created with Sketch.</desc>
    <defs>
        <rect id="path-1" x="0" y="0" width="100" height="100" rx="50"></rect>
        <filter x="-5.9%" y="-7.0%" width="111.8%" height="114.0%" filterUnits="objectBoundingBox" id="filter-3">
            <feOffset dx="0" dy="2" in="SourceAlpha" result="shadowOffsetOuter1"></feOffset>
            <feColorMatrix values="0 0 0 0 0   0 0 0 0 0   0 0 0 0 0  0 0 0 0.102921196 0" type="matrix" in="shadowOffsetOuter1" result="shadowMatrixOuter1"></feColorMatrix>
            <feMerge>
                <feMergeNode in="shadowMatrixOuter1"></feMergeNode>
                <feMergeNode in="SourceGraphic"></feMergeNode>
            </feMerge>
        </filter>
        <filter x="-9.5%" y="-15.4%" width="119.0%" height="130.8%" filterUnits="objectBoundingBox" id="filter-4">
            <feOffset dx="0" dy="2" in="SourceAlpha" result="shadowOffsetOuter1"></feOffset>
            <feColorMatrix values="0 0 0 0 0   0 0 0 0 0   0 0 0 0 0  0 0 0 0.0964956975 0" type="matrix" in="shadowOffsetOuter1" result="shadowMatrixOuter1"></feColorMatrix>
            <feMerge>
                <feMergeNode in="shadowMatrixOuter1"></feMergeNode>
                <feMergeNode in="SourceGraphic"></feMergeNode>
            </feMerge>
        </filter>
        <linearGradient x1="78.4210223%" y1="-7.24023438%" x2="15.5786468%" y2="110.793945%" id="linearGradient-5">
            <stop stop-color="#FFFFFF" offset="0%"></stop>
            <stop stop-color="#000000" stop-opacity="0.5" offset="100%"></stop>
        </linearGradient>
        <rect id="path-6" x="-3" y="-3" width="106" height="106" rx="53"></rect>
        <filter x="-0.5%" y="-0.5%" width="101.9%" height="101.9%" filterUnits="objectBoundingBox" id="filter-7">
            <feOffset dx="1" dy="1" in="SourceAlpha" result="shadowOffsetOuter1"></feOffset>
            <feMorphology radius="4" operator="erode" in="SourceAlpha" result="shadowInner"></feMorphology>
            <feOffset dx="1" dy="1" in="shadowInner" result="shadowInner"></feOffset>
            <feComposite in="shadowOffsetOuter1" in2="shadowInner" operator="out" result="shadowOffsetOuter1"></feComposite>
            <feColorMatrix values="0 0 0 0 0   0 0 0 0 0   0 0 0 0 0  0 0 0 0.15 0" type="matrix" in="shadowOffsetOuter1"></feColorMatrix>
        </filter>
    </defs>
    <g id="Badges" stroke="none" stroke-width="1" fill="none" fill-rule="evenodd">
        <g id="N/A-76" transform="translate(-47.000000, -657.000000)">
            <g id="NA/Using-IAAS-Support-with-Azure-for-SAP-workloads-Copy" transform="translate(50.000000, 660.000000)">
                <g id="Mask" transform="translate(2.000000, 2.000000)">
                    <g id="Circle-" transform="translate(-2.000000, -0.000000)">
                        <mask id="mask-2" fill="white">
                            <use xlink:href="#path-1"></use>
                        </mask>
                        <g id="BG"></g>
                        <g id="Color/Blue" mask="url(#mask-2)" fill="#55A2FF" fill-rule="evenodd">
                            <rect id="Rectangle" x="0" y="0" width="100" height="100"></rect>
                        </g>
                    </g>
                    <g id="Giving" filter="url(#filter-3)" transform="translate(14.000000, 28.000000)">
                        <path d="M13.4050667,17.2411105 C11.6382,15.4683833 8.7754,15.4661105 7.00513333,17.2320196 C6.87593333,16.1990651 6.8,15.1604287 6.8,14.1195196 L6.8,3.60247417 C6.8,1.75588326 5.42186667,0.101337802 3.58246667,0.00474689263 C1.6218,-0.0975258346 0,1.46611053 0,3.40929235 L0,22.7945196 C0,25.8229287 1.29426667,28.7070196 3.55413333,30.7161105 L10.4255333,36.8229287 C11.7243333,37.9763378 12.4666667,39.6320196 12.4666667,41.370656 L12.4666667,43.1820196 L27.2,43.1820196 L27.2,36.9592923 C27.2,33.1888378 25.7062667,29.5740651 23.0486,26.9092923 L13.4050667,17.2411105 Z" id="Fill-113" fill="#E9C19F"></path>
                        <path d="M14.7333333,40.2342923 L14.7333333,40.2342923 C14.7333333,38.495656 13.991,36.8399742 12.6922,35.6865651 L5.8208,29.5797469 C3.56093333,27.570656 2.26666667,24.6865651 2.26666667,21.658156 L2.26666667,4.54565598 C2.26666667,3.91838326 1.75893333,3.40929235 1.13333333,3.40929235 C0.507733333,3.40929235 0,3.91838326 0,4.54565598 L0,22.7945196 C0,25.8229287 1.29426667,28.7070196 3.55413333,30.7161105 L10.4255333,36.8229287 C11.7243333,37.9763378 12.4666667,39.6320196 12.4666667,41.370656 L12.4666667,43.1820196 L27.2,43.1820196 C26.4746667,42.4547469 25.4898,42.045656 24.4641333,42.045656 L16.5398667,42.045656 C15.5425333,42.045656 14.7333333,41.2342923 14.7333333,40.2342923" id="Fill-114" fill="#D6A983"></path>
                        <path d="M8.5,23.095656 C7.39726667,21.9899742 6.8476,20.170656 8.20646667,18.5286105 C9.0474,17.5115651 7.30093333,16.8149742 6.55633333,17.9036105 C6.47133333,18.0274742 6.38746667,18.1661105 6.30473333,18.320656 C5.25866667,20.2729287 5.72333333,22.6990651 7.2862,24.2661105 L13.2883333,30.4274742 C13.6113333,30.7592923 14.1428667,30.7672469 14.4760667,30.445656 C14.8115333,30.1195196 14.8206,29.583156 14.4942,29.2479287 L8.5,23.095656" id="Fill-115" fill="#D6A983"></path>
                        <path d="M12.4666667,43.1820196 L27.2,43.1820196 C28.4512,43.1820196 29.4666667,44.1990651 29.4666667,45.4547469 L29.4666667,50.0002014 L10.2,50.0002014 L10.2,45.4547469 C10.2,44.1990651 11.2143333,43.1820196 12.4666667,43.1820196" id="Fill-116" fill="#E1E4E1"></path>
                        <path d="M17,47.7274742 C18.2523333,47.7274742 19.2666667,46.7104287 19.2666667,45.4547469 C19.2666667,44.1990651 20.2821333,43.1820196 21.5333333,43.1820196 L27.2,43.1820196 C28.4523333,43.1820196 29.4666667,44.1990651 29.4666667,45.4547469 L29.4666667,56.2016686 L10.2,50.0002014 C10.2,48.7445196 11.2154667,47.7274742 12.4666667,47.7274742 L17,47.7274742 Z" id="Fill-117" fill="#CDD3D1"></path>
                        <path d="M26.0666667,45.4547469 C25.4410667,45.4547469 24.9333333,45.9638378 24.9333333,46.5911105 C24.9333333,47.2183833 25.4410667,47.7274742 26.0666667,47.7274742 C26.6922667,47.7274742 27.2,47.2183833 27.2,46.5911105 C27.2,45.9638378 26.6922667,45.4547469 26.0666667,45.4547469" id="Fill-118" fill="#7694A3"></path>
                        <path d="M13.4050667,21.9240651 L11.8025333,23.5308833 C11.3605333,23.9752014 10.6431333,23.9752014 10.2,23.5308833 L8.59746667,21.9240651 C7.71233333,21.0365651 7.71233333,19.5967923 8.59746667,18.7092923 C9.4826,17.8217923 10.9174,17.8217923 11.8025333,18.7092923 L13.4050667,20.3172469 C13.8482,20.7604287 13.8482,21.4797469 13.4050667,21.9240651" id="Fill-119" fill="#D49B6C"></path>
                        <path d="M11.8025333,21.9240651 C11.1656,22.5627014 10.8063333,23.2990651 10.8176667,23.8274742 C11.1667333,23.8865651 11.5339333,23.8002014 11.8025333,23.5308833 L13.4050667,21.9240651 C13.6748,21.6547469 13.7598,21.2854287 13.702,20.9365651 C13.1738667,20.9252014 12.4406,21.2842923 11.8025333,21.9240651" id="Fill-120" fill="#D9B090"></path>
                        <path d="M44.9514,26.9092923 L54.5949333,17.2411105 C56.3618,15.4683833 59.2246,15.4661105 60.9948667,17.2320196 C61.1240667,16.1990651 61.2,15.1604287 61.2,14.1195196 L61.2,3.60247417 C61.2,1.75588326 62.5781333,0.101337802 64.4175333,0.00474689263 C66.3782,-0.0975258346 68,1.46611053 68,3.40929235 L68,22.7945196 C68,25.8229287 66.7057333,28.7070196 64.4458667,30.7161105 L57.5744667,36.8229287 C56.2756667,37.9763378 55.5333333,39.6320196 55.5333333,41.370656 L55.5333333,43.1820196 L40.8,43.1820196 L40.8,36.9592923 C40.8,33.1888378 42.2937333,29.5740651 44.9514,26.9092923" id="Fill-121" fill="#E9C19F"></path>
                        <path d="M53.2666667,40.2342923 L53.2666667,40.2342923 C53.2666667,38.495656 54.009,36.8399742 55.3078,35.6865651 L62.1792,29.5797469 C64.4390667,27.570656 65.7333333,24.6865651 65.7333333,21.658156 L65.7333333,4.54565598 C65.7333333,3.91838326 66.2410667,3.40929235 66.8666667,3.40929235 C67.4922667,3.40929235 68,3.91838326 68,4.54565598 L68,22.7945196 C68,25.8229287 66.7057333,28.7070196 64.4458667,30.7161105 L57.5744667,36.8229287 C56.2756667,37.9763378 55.5333333,39.6320196 55.5333333,41.370656 L55.5333333,43.1820196 L40.8,43.1820196 C41.5253333,42.4547469 42.5102,42.045656 43.5358667,42.045656 L51.4601333,42.045656 C52.4574667,42.045656 53.2666667,41.2342923 53.2666667,40.2342923" id="Fill-122" fill="#D6A983"></path>
                        <path d="M59.5,23.095656 C60.6027333,21.9899742 61.1524,20.170656 59.7935333,18.5286105 C58.9526,17.5115651 60.6990667,16.8149742 61.4436667,17.9036105 C61.5286667,18.0274742 61.6125333,18.1661105 61.6952667,18.320656 C62.7413333,20.2729287 62.2766667,22.6990651 60.7138,24.2661105 L54.7116667,30.4274742 C54.3886667,30.7592923 53.8571333,30.7672469 53.5239333,30.445656 C53.1884667,30.1195196 53.1794,29.583156 53.5058,29.2479287 L59.5,23.095656" id="Fill-123" fill="#D6A983"></path>
                        <path d="M57.8,45.4547469 L57.8,50.0002014 L38.5333333,50.0002014 L38.5333333,45.4547469 C38.5333333,44.1990651 39.5488,43.1820196 40.8,43.1820196 L55.5333333,43.1820196 C56.7856667,43.1820196 57.8,44.1990651 57.8,45.4547469" id="Fill-124" fill="#E1E4E1"></path>
                        <path d="M51,47.7274742 C49.7476667,47.7274742 48.7333333,46.7104287 48.7333333,45.4547469 C48.7333333,44.1990651 47.719,43.1820196 46.4666667,43.1820196 L40.8,43.1820196 C39.5476667,43.1820196 38.5333333,44.1990651 38.5333333,45.4547469 L38.5333333,56.2016686 L57.8,50.0002014 C57.8,48.7445196 56.7856667,47.7274742 55.5333333,47.7274742 L51,47.7274742 Z" id="Fill-125" fill="#CDD3D1"></path>
                        <path d="M41.9333333,45.4547469 C42.5589333,45.4547469 43.0666667,45.9638378 43.0666667,46.5911105 C43.0666667,47.2183833 42.5589333,47.7274742 41.9333333,47.7274742 C41.3077333,47.7274742 40.8,47.2183833 40.8,46.5911105 C40.8,45.9638378 41.3077333,45.4547469 41.9333333,45.4547469" id="Fill-126" fill="#7694A3"></path>
                        <path d="M56.1974667,23.5308833 C56.6394667,23.9752014 57.3568667,23.9752014 57.8,23.5308833 L59.4025333,21.9240651 C60.2876667,21.0365651 60.2876667,19.5967923 59.4025333,18.7092923 C58.5174,17.8217923 57.0826,17.8217923 56.1974667,18.7092923 L54.5949333,20.3172469 C54.1518,20.7604287 54.1518,21.4797469 54.5949333,21.9240651 L56.1974667,23.5308833 Z" id="Fill-127" fill="#D49B6C"></path>
                        <path d="M56.1974667,21.9240651 C56.8344,22.5627014 57.1936667,23.2990651 57.1823333,23.8274742 C56.8332667,23.8865651 56.4660667,23.8002014 56.1974667,23.5308833 L54.5949333,21.9240651 C54.3252,21.6547469 54.2402,21.2854287 54.298,20.9365651 C54.8261333,20.9252014 55.5594,21.2842923 56.1974667,21.9240651" id="Fill-128" fill="#D9B090"></path>
                    </g>
                    <g id="One-Cloud" filter="url(#filter-4)" transform="translate(27.000000, 13.000000)">
                        <path d="M9.1875,7.8 C9.25378125,7.8 9.31809375,7.80845 9.38371875,7.80975 C10.2919687,3.35465 14.2655625,0 19.03125,0 C23.291625,0 26.908875,2.68515 28.279125,6.4363 C29.056125,6.0645 29.9236875,5.85 30.84375,5.85 C34.1059688,5.85 36.75,8.46885 36.75,11.7 C36.75,11.7923 36.7401563,11.88135 36.7362188,11.97235 C39.7720313,12.818 42,15.57335 42,18.85 C42,22.79875 38.7679688,26 34.78125,26 L9.1875,26 C4.113375,26 0,21.9258 0,16.9 C0,11.8742 4.113375,7.8 9.1875,7.8" id="Fill-11" fill="#FFFFFF"></path>
                        <path d="M35.7954851,11.7525331 C36.2066649,11.7869577 36.6049449,11.8700961 36.9887127,12 C36.9919377,11.9090673 37,11.8200831 37,11.7278514 C37,9.7818914 36.2098898,8.06261367 35,7 C35.5794141,7.96388672 35.9250202,9.14601195 35.9250202,10.4288127 C35.9250202,10.8847753 35.8771836,11.3264484 35.7954851,11.7525331" id="Fill-12" fill="#C4CBCD"></path>
                        <path d="M34.5920178,26 C38.9981839,26 41.856956,23.0728388 41.9953482,19.2898121 C42.0873921,16.7779228 40.8059585,14.549634 38.8221193,13.2557072 C39.8097958,14.6787735 40.2700151,16.4734322 39.9305625,18.3788724 C39.4559817,21.0420574 37.3487645,23.232364 34.6442413,23.8856578 C33.1330245,24.2509199 31.6864343,24.131276 30.4050007,23.6780218 C31.1250319,22.7328981 31.5552228,21.5681108 31.5552228,20.3026706 C31.5552228,18.406093 30.5956164,16.7304451 29.1261784,15.6947972 C30.0120191,16.8773096 30.4480851,18.3972305 30.1628144,20.0241345 C29.7528601,22.3651039 27.8081885,24.2515529 25.3948111,24.6497329 C24.8934658,24.7320277 24.4019123,24.7522849 23.9266787,24.7174679 C22.064259,24.5794659 20.5282361,23.2532542 20.0099181,21.5130366 C19.8884985,21.104095 19.8049409,20.6850247 19.8049409,20.3026706 C19.8049409,20.0728783 19.8219136,19.8475173 19.8506365,19.6253215 C19.9655281,18.6846291 20.3147726,17.8142038 20.8435353,17.0716518 C20.0928228,17.3641147 19.2996788,17.575549 18.471284,17.680633 C18.4823814,17.5002176 18.4993541,17.3210682 18.4993541,17.1374876 C18.4993541,14.2052621 17.0246937,11.6136103 14.7621117,10 C16.1310195,11.8066864 16.8236333,14.1254995 16.4326101,16.6145994 C15.8405264,20.3849654 12.7090763,23.4216419 8.8210386,23.9958061 C6.25425482,24.3749951 3.86307246,23.7033432 2,22.3758655 C3.66397047,24.5699703 6.33650679,26 9.36024598,26 L25.6800819,26 L34.5920178,26 Z" id="Fill-13" fill="#E6E6E6"></path>
                        <path d="M25.4674297,14.6586667 C26.2036174,14.6586667 26.9080119,14.7826667 27.5657765,15 C28.472234,13.526 29,11.8186667 29,9.992 C29,6.72 27.3269747,3.824 24.7524375,2 C26.0828034,3.67066667 26.8804578,5.74133333 26.8804578,7.992 C26.8804578,10.64 25.7818285,13.0393333 24,14.8253333 C24.4719514,14.72 24.9615656,14.6586667 25.4674297,14.6586667" id="Fill-14" fill="#E6E6E6"></path>
                    </g>
                    <g id="Azure-black" transform="translate(40.000000, 21.000000)" fill="#212121">
                        <polygon id="Path" points="4 11.9988068 16 12 9.53705954 1 7.56865128 6.3108797 11.3487242 10.7268684"></polygon>
                        <polygon id="Path" points="9 0 4.15119739 3.97080457 0 10.9887971 3.74436729 10.9887971 3.74436729 11"></polygon>
                    </g>
                </g>
                <g id="Azure-Border">
                    <path d="M50,0 C74.5263677,-4.50542066e-15 94.9281966,17.6592499 99.1842495,40.9565123 L94.2027317,73.3905473 C85.8096395,89.2186645 69.1638777,100 50,100 C30.9551233,100 14.3971863,89.3521454 5.95457608,73.6848234 L0.0261464987,48.3675131 C0.887696267,21.508872 22.932015,4.97230817e-15 50,0 Z" id="Combined-Shape" fill="url(#linearGradient-5)" fill-rule="evenodd" opacity="0.400000006" style="mix-blend-mode: overlay;"></path>
                    <g>
                        <use fill="black" fill-opacity="1" filter="url(#filter-7)" xlink:href="#path-6"></use>
                        <rect stroke="#F2F1F0" stroke-width="4" stroke-linejoin="square" x="-1" y="-1" width="102" height="102" rx="51"></rect>
                    </g>
                    <rect stroke="#0078D4" stroke-width="4" x="2" y="2" width="96" height="96" rx="48"></rect>
                </g>
            </g>
        </g>
    </g>
</svg>