<svg width="103" height="103" viewBox="0 0 103 103" fill="none" xmlns="http://www.w3.org/2000/svg">
<path d="M51.1176 98.5057C25.2676 98.5057 4.30762 77.5557 4.30762 51.6957C4.30762 25.8357 25.2676 4.88574 51.1176 4.88574C76.9676 4.88574 97.9276 25.8457 97.9276 51.6957C97.9276 77.5457 76.9676 98.5057 51.1176 98.5057Z" fill="url(#paint0_linear)"/>
<path fill-rule="evenodd" clip-rule="evenodd" d="M97.0178 51.6957C97.0178 77.0457 76.4678 97.5957 51.1178 97.5957C25.7678 97.5957 5.21778 77.0457 5.21778 51.6957C5.21778 26.3457 25.7678 5.79566 51.1178 5.79566C76.4678 5.79566 97.0178 26.3457 97.0178 51.6957ZM51.1178 2.05566C78.5378 2.05566 100.758 24.2757 100.758 51.6957C100.758 79.1157 78.5278 101.336 51.1178 101.336C23.6978 101.336 1.47778 79.1057 1.47778 51.6957C1.47778 24.2757 23.6978 2.05566 51.1178 2.05566Z" fill="#F2F1F0"/>
<path fill-rule="evenodd" clip-rule="evenodd" d="M94.2076 51.6952C94.2076 75.4952 74.9176 94.7852 51.1176 94.7852C27.3176 94.7852 8.0276 75.4952 8.0276 51.6952C8.0276 27.8952 27.3176 8.60523 51.1176 8.60523C74.9176 8.60523 94.2076 27.8952 94.2076 51.6952ZM51.1176 4.86523C76.9776 4.86523 97.9476 25.8352 97.9476 51.6952C97.9476 77.5552 76.9776 98.5252 51.1176 98.5252C25.2576 98.5252 4.2876 77.5552 4.2876 51.6952C4.2876 25.8352 25.2476 4.86523 51.1176 4.86523Z" fill="url(#paint1_linear)"/>
<path d="M89.0076 52.595C89.0476 52.415 89.0776 52.255 89.1176 52.075C89.3276 51.015 89.4276 49.915 89.4276 48.785C89.4276 39.135 81.6076 31.335 71.9776 31.335C70.6276 31.335 69.3076 31.485 68.0776 31.785C64.0976 25.505 57.0876 21.335 49.0976 21.335C36.6976 21.335 26.6476 31.415 26.6476 43.785C26.6476 44.095 26.6476 44.395 26.6576 44.695C25.5276 44.315 24.3176 44.105 23.0576 44.105C16.9376 44.105 11.9976 49.055 11.9976 55.165C11.9976 60.905 16.3576 65.615 21.9576 66.165L71.9776 66.255C78.5576 66.255 84.2576 62.625 87.2376 57.285C87.3176 57.135 87.3976 56.985 87.4776 56.825C87.9376 55.895 88.6076 54.455 89.0076 52.595Z" fill="white"/>
<path d="M36.3275 38.1856C36.4675 37.7656 36.8675 37.4756 37.3075 37.4756H43.8375L37.0575 57.5556C36.9175 57.9756 36.5175 58.2656 36.0775 58.2656H30.9975C30.2875 58.2656 29.7875 57.5656 30.0175 56.8956L36.3275 38.1856Z" fill="url(#paint2_linear)"/>
<path d="M46.7676 50.9951H36.4776C36.0476 50.9951 35.8376 51.5251 36.1476 51.8151L42.7576 57.9851C42.9476 58.1651 43.2076 58.2651 43.4676 58.2651H49.2976L46.7676 50.9951Z" fill="#0078D4"/>
<path d="M43.8376 37.4854H36.5576L29.5376 58.2754H36.8176L38.3076 53.8454L43.0476 58.2754H49.2876L46.7576 50.9953H39.2776L43.8376 37.4854Z" fill="url(#paint3_linear)"/>
<path d="M45.6377 38.1856C45.4977 37.7656 45.0977 37.4756 44.6577 37.4756H37.3477H37.3777C37.8277 37.4756 38.2177 37.7556 38.3577 38.1856L44.6677 56.8956C44.8977 57.5656 44.3977 58.2656 43.6877 58.2656H43.5777H50.9677C51.6777 58.2656 52.1777 57.5656 51.9477 56.8956L45.6377 38.1856Z" fill="url(#paint4_linear)"/>
<path opacity="0.2" d="M77.6877 68.7354L64.2377 76.1954L55.3777 70.9854L68.8277 63.5254L77.6877 68.7354Z" fill="#1F1D21"/>
<path d="M77.3177 42.7957L64.1678 50.4257L55.1978 45.2657L68.3478 37.6357L77.3177 42.7957Z" fill="url(#paint5_linear)"/>
<path d="M77.3177 42.7959L77.2677 66.7859L64.1177 74.4459L64.1677 50.4259L77.3177 42.7959Z" fill="url(#paint6_linear)"/>
<path d="M64.1577 50.4256L64.1077 74.4456L55.1677 69.2856L55.1977 45.2656L64.1577 50.4256Z" fill="url(#paint7_linear)"/>
<path d="M58.1077 63.3454L58.1377 62.7354L58.6677 63.0554V63.6654L58.1077 63.3454Z" fill="white"/>
<path d="M58.1377 62.1354V61.5254L58.6677 61.8154V62.4454L58.1377 62.1354Z" fill="white"/>
<path d="M58.1377 60.9454V60.3154L58.6677 60.6354V61.2454L58.1377 60.9454Z" fill="white"/>
<path d="M59.1877 63.9459V63.3359L59.7177 63.6559V64.2659L59.1877 63.9459Z" fill="white"/>
<path d="M59.1877 62.736V62.126L59.7177 62.446V63.056L59.1877 62.736Z" fill="white"/>
<path d="M59.1877 61.5553V60.9453L59.7177 61.2353V61.8453L59.1877 61.5553Z" fill="white"/>
<path d="M60.2478 64.5753V63.9453L60.7778 64.2653V64.8753L60.2478 64.5753Z" fill="white"/>
<path d="M60.2478 63.3454V62.7354L60.7778 63.0554V63.6654L60.2478 63.3454Z" fill="white"/>
<path d="M60.2478 62.1559V61.5459L60.7778 61.8359V62.4659L60.2478 62.1559Z" fill="white"/>
<path d="M58.5377 55.7153C58.3277 55.5853 58.1477 55.2953 58.1477 55.0353C58.1477 54.7953 58.3277 54.6953 58.5377 54.7953C58.7477 54.9253 58.9277 55.2153 58.9277 55.4753C58.8977 55.7353 58.7477 55.8453 58.5377 55.7153Z" fill="white"/>
<path d="M60.3778 56.7954C60.1678 56.6654 59.9878 56.3754 59.9878 56.1154C59.9878 55.8754 60.1678 55.7754 60.3778 55.8754C60.5878 55.9854 60.7678 56.2954 60.7678 56.5554C60.7678 56.8154 60.5878 56.9254 60.3778 56.7954Z" fill="white"/>
<path d="M58.5377 53.606C58.3277 53.476 58.1477 53.186 58.1477 52.926C58.1477 52.686 58.3277 52.586 58.5377 52.686C58.7477 52.816 58.9277 53.106 58.9277 53.366C58.9277 53.636 58.7477 53.716 58.5377 53.606Z" fill="white"/>
<path d="M60.3778 54.6655C60.1678 54.5355 59.9878 54.2455 59.9878 53.9855C59.9878 53.7455 60.1678 53.6455 60.3778 53.7455C60.5878 53.8755 60.7678 54.1655 60.7678 54.4255C60.7678 54.6855 60.5878 54.7955 60.3778 54.6655Z" fill="white"/>
<path d="M58.5377 59.7361C58.3277 59.6061 58.1477 59.3161 58.1477 59.0561C58.1477 58.7961 58.3277 58.7161 58.5377 58.8161C58.7477 58.9461 58.9277 59.2361 58.9277 59.4961C58.9277 59.7561 58.7477 59.8661 58.5377 59.7361ZM58.5377 59.1361C58.4577 59.0861 58.4077 59.1361 58.4077 59.2161C58.4077 59.2961 58.4577 59.3961 58.5377 59.4561C58.6177 59.5061 58.6677 59.4561 58.6677 59.3761C58.6677 59.2961 58.6077 59.1861 58.5377 59.1361Z" fill="white"/>
<path d="M58.5377 57.6062C58.3277 57.4762 58.1477 57.1862 58.1477 56.9262C58.1477 56.6662 58.3277 56.5862 58.5377 56.6862C58.7477 56.8162 58.9277 57.1062 58.9277 57.3662C58.9277 57.6362 58.7477 57.7362 58.5377 57.6062ZM58.5377 57.0262C58.4577 56.9762 58.4077 57.0262 58.4077 57.1062C58.4077 57.1862 58.4577 57.2862 58.5377 57.3462C58.6177 57.3962 58.6677 57.3462 58.6677 57.2662C58.6677 57.1562 58.6077 57.0562 58.5377 57.0262Z" fill="white"/>
<path d="M60.3778 60.8162C60.1678 60.6862 59.9878 60.3962 59.9878 60.1362C59.9878 59.8762 60.1678 59.7962 60.3778 59.8962C60.5878 60.0262 60.7678 60.3162 60.7678 60.5762C60.7678 60.8462 60.5878 60.9262 60.3778 60.8162ZM60.3778 60.2162C60.2978 60.1662 60.2478 60.2162 60.2478 60.2962C60.2478 60.3762 60.2978 60.4762 60.3778 60.5362C60.4578 60.5862 60.5078 60.5362 60.5078 60.4562C60.5078 60.3462 60.4578 60.2662 60.3778 60.2162Z" fill="white"/>
<path d="M60.3778 58.6853C60.1678 58.5553 59.9878 58.2653 59.9878 58.0053C59.9878 57.7453 60.1678 57.6653 60.3778 57.7653C60.5878 57.8953 60.7678 58.1853 60.7678 58.4453C60.7678 58.7153 60.5878 58.8153 60.3778 58.6853ZM60.3778 58.0853C60.2978 58.0353 60.2478 58.0853 60.2478 58.1653C60.2478 58.2453 60.2978 58.3453 60.3778 58.4053C60.4578 58.4553 60.5078 58.4053 60.5078 58.3253C60.5078 58.2153 60.4578 58.1353 60.3778 58.0853Z" fill="white"/>
<path opacity="0.15" d="M82.2876 72.4252C84.9376 73.6752 84.9376 75.7052 82.3576 77.0052C79.7876 78.2552 75.5076 78.2552 72.9276 77.0152C70.3576 75.7652 70.2776 73.6852 72.8576 72.4352C75.4376 71.1952 79.7076 71.1952 82.2876 72.4252Z" fill="#1F1D20"/>
<path d="M84.5777 72.2051V73.5051C84.5777 74.5151 83.8576 75.5151 82.5676 76.3851C79.8277 77.9751 75.3577 77.9751 72.6177 76.3951C71.1777 75.5251 70.5977 74.5251 70.5977 73.5151V72.2151C70.5977 73.2251 71.3277 74.3751 72.6177 75.0951C75.3677 76.6851 79.8277 76.6851 82.5676 75.0851C83.8677 74.3651 84.5777 73.3551 84.5777 72.2051Z" fill="#E6E6E6"/>
<path d="M82.8175 62.1551C81.3875 62.9451 79.5575 63.3551 77.7175 63.4151C75.7775 63.4151 73.8775 63.0151 72.4575 62.1551C70.9675 61.2951 70.2875 60.2151 70.2875 60.2651L70.2275 72.9651C70.2275 73.4851 70.4575 73.9451 70.7475 74.2851C71.0875 74.6251 71.6675 75.1451 72.3975 75.5451C73.8875 76.4051 75.7775 76.8051 77.7075 76.8051C79.5375 76.8051 81.4275 76.4051 82.7375 75.5451C84.1675 74.7451 84.8475 73.6051 84.8475 72.5751L84.9075 59.7051C84.9875 60.7851 84.2475 61.3551 82.8175 62.1551Z" fill="url(#paint8_linear)"/>
<path d="M82.8175 56.7753C85.6775 58.4253 85.6775 61.1253 82.8775 62.7853C80.0175 64.4453 75.3275 64.4453 72.4675 62.7953C69.6075 61.1453 69.6075 58.4453 72.4075 56.7853C75.2675 55.1253 79.9475 55.1253 82.8175 56.7753Z" fill="white"/>
<path d="M81.5576 57.4655C83.7876 58.7255 83.7876 60.7855 81.6176 62.0955C79.4476 63.3555 75.8476 63.3555 73.6576 62.1055C71.4876 60.8455 71.4376 58.7255 73.6076 57.4655C75.7776 56.2055 79.3876 56.2055 81.5576 57.4655Z" fill="#9CEBFF"/>
<path d="M73.6075 58.2756C75.7775 57.0156 79.3775 57.0156 81.5675 58.2656C82.4875 58.8456 83.0575 59.4656 83.1675 60.2056C83.3975 59.1756 82.8875 58.1956 81.5675 57.4556C79.3975 56.1956 75.7975 56.2056 73.6075 57.4656C72.3475 58.1556 71.8375 59.1856 72.0575 60.1556C72.2375 59.4756 72.6875 58.7856 73.6075 58.2756Z" fill="#50E6FF"/>
<defs>
<linearGradient id="paint0_linear" x1="49.3474" y1="-13.0973" x2="53.3304" y2="132.671" gradientUnits="userSpaceOnUse">
<stop stop-color="#00ABDE"/>
<stop offset="1" stop-color="#007ED8"/>
</linearGradient>
<linearGradient id="paint1_linear" x1="51.1176" y1="-1.79667" x2="51.1176" y2="99.967" gradientUnits="userSpaceOnUse">
<stop stop-color="#007ED8"/>
<stop offset="0.7065" stop-color="#002D4C"/>
</linearGradient>
<linearGradient id="paint2_linear" x1="39.6921" y1="39.0222" x2="32.9129" y2="59.0496" gradientUnits="userSpaceOnUse">
<stop stop-color="#114A8B"/>
<stop offset="1" stop-color="#0669BC"/>
</linearGradient>
<linearGradient id="paint3_linear" x1="41.7607" y1="48.274" x2="40.1534" y2="48.8223" gradientUnits="userSpaceOnUse">
<stop stop-opacity="0.3"/>
<stop offset="0.0712" stop-opacity="0.2"/>
<stop offset="0.321" stop-opacity="0.1"/>
<stop offset="0.6231" stop-opacity="0.05"/>
<stop offset="1" stop-opacity="0"/>
</linearGradient>
<linearGradient id="paint4_linear" x1="40.9354" y1="38.4377" x2="48.3769" y2="58.2639" gradientUnits="userSpaceOnUse">
<stop stop-color="#3CCBF4"/>
<stop offset="1" stop-color="#2892DF"/>
</linearGradient>
<linearGradient id="paint5_linear" x1="62.7257" y1="42.0207" x2="87.5843" y2="56.1993" gradientUnits="userSpaceOnUse">
<stop stop-color="#3CCBF4"/>
<stop offset="1" stop-color="#2892DF"/>
</linearGradient>
<linearGradient id="paint6_linear" x1="71.5706" y1="30.304" x2="70.6499" y2="60.6867" gradientUnits="userSpaceOnUse">
<stop stop-color="#3CCBF4"/>
<stop offset="1" stop-color="#2892DF"/>
</linearGradient>
<linearGradient id="paint7_linear" x1="57.0179" y1="46.4708" x2="60.1482" y2="62.3066" gradientUnits="userSpaceOnUse">
<stop stop-color="#3CCBF4"/>
<stop offset="1" stop-color="#2892DF"/>
</linearGradient>
<linearGradient id="paint8_linear" x1="77.4489" y1="66.4289" x2="99.0051" y2="98.8816" gradientUnits="userSpaceOnUse">
<stop stop-color="#15548F"/>
<stop offset="0.4179" stop-color="#243A5E"/>
<stop offset="0.9677" stop-color="#1A2C45"/>
</linearGradient>
</defs>
</svg>
