<svg width="100" height="100" viewBox="0 0 100 100" fill="none" xmlns="http://www.w3.org/2000/svg">
<g clip-path="url(#clip0)">
<path d="M49.6401 96.4501C40.382 96.4501 31.3317 93.7047 23.6339 88.5612C15.936 83.4176 9.93624 76.1069 6.3933 67.5535C2.85036 59.0001 1.92337 49.5882 3.72954 40.5079C5.53571 31.4277 9.99394 23.0869 16.5404 16.5404C23.0869 9.99393 31.4277 5.53571 40.5079 3.72954C49.5882 1.92337 59.0001 2.85036 67.5535 6.3933C76.1069 9.93624 83.4176 15.936 88.5612 23.6339C93.7047 31.3317 96.4501 40.382 96.4501 49.6401C96.4505 55.7874 95.24 61.8746 92.8878 67.554C90.5355 73.2335 87.0875 78.3939 82.7407 82.7407C78.3939 87.0875 73.2335 90.5355 67.554 92.8878C61.8746 95.24 55.7874 96.4505 49.6401 96.4501V96.4501Z" fill="url(#paint0_linear)"/>
<path fill-rule="evenodd" clip-rule="evenodd" d="M95.54 49.64C95.54 58.7182 92.848 67.5925 87.8045 75.1407C82.7609 82.6889 75.5923 88.572 67.2052 92.0461C58.818 95.5201 49.5891 96.4291 40.6854 94.658C31.7816 92.887 23.603 88.5154 17.1838 82.0962C10.7646 75.677 6.39302 67.4984 4.62196 58.5946C2.85089 49.6909 3.75987 40.462 7.23393 32.0748C10.708 23.6877 16.5911 16.5191 24.1393 11.4755C31.6875 6.43199 40.5618 3.74 49.64 3.74C55.6677 3.73998 61.6363 4.9272 67.2052 7.23388C72.774 9.54057 77.834 12.9215 82.0963 17.1837C86.3585 21.446 89.7394 26.5059 92.0461 32.0748C94.3528 37.6437 95.54 43.6123 95.54 49.64V49.64ZM49.64 3.62732e-07C59.4579 3.62732e-07 69.0553 2.91134 77.2185 8.36585C85.3818 13.8204 91.7442 21.5731 95.5014 30.6436C99.2585 39.7141 100.242 49.6951 98.3262 59.3243C96.4108 68.9535 91.6831 77.7985 84.7408 84.7408C77.7985 91.6831 68.9535 96.4108 59.3243 98.3262C49.6951 100.242 39.7141 99.2585 30.6436 95.5014C21.5731 91.7442 13.8204 85.3818 8.36585 77.2185C2.91134 69.0553 3.62732e-07 59.4579 3.62732e-07 49.64C-0.000787738 43.121 1.28265 36.6656 3.77702 30.6427C6.27138 24.6197 9.9278 19.1471 14.5375 14.5375C19.1471 9.9278 24.6197 6.27138 30.6427 3.77702C36.6656 1.28265 43.121 -0.000787738 49.64 3.62732e-07V3.62732e-07Z" fill="#F2F1F0"/>
<path fill-rule="evenodd" clip-rule="evenodd" d="M92.7296 49.6406C92.7296 58.163 90.2024 66.494 85.4676 73.5801C80.7328 80.6662 74.0031 86.1892 66.1294 89.4505C58.2557 92.7119 49.5918 93.5653 41.2331 91.9026C32.8745 90.24 25.1966 86.1361 19.1703 80.1098C13.1441 74.0836 9.04017 66.4057 7.37753 58.047C5.7149 49.6884 6.56822 41.0244 9.8296 33.1507C13.091 25.2771 18.6139 18.5473 25.7 13.8126C32.7862 9.07776 41.1172 6.55058 49.6396 6.55058C55.2983 6.55023 60.9017 7.66455 66.1298 9.82991C71.3579 11.9953 76.1082 15.1692 80.1096 19.1706C84.1109 23.1719 87.2849 27.9223 89.4502 33.1503C91.6156 38.3784 92.7299 43.9818 92.7296 49.6406V49.6406ZM49.6396 2.81058C58.9017 2.81058 67.9558 5.55711 75.6569 10.7029C83.3581 15.8486 89.3604 23.1624 92.9049 31.7195C96.4493 40.2766 97.3767 49.6925 95.5697 58.7767C93.7628 67.8608 89.3027 76.2051 82.7534 82.7544C76.2041 89.3037 67.8598 93.7638 58.7757 95.5708C49.6915 97.3777 40.2756 96.4503 31.7185 92.9059C23.1614 89.3614 15.8476 83.3591 10.7018 75.6579C5.5561 67.9568 2.80957 58.9027 2.80957 49.6406C2.81076 37.2209 7.745 25.3101 16.5271 16.5281C25.3091 7.74599 37.2198 2.81174 49.6396 2.81055V2.81058Z" fill="#0078D4"/>
<path fill-rule="evenodd" clip-rule="evenodd" d="M74.0151 38.5138C71.1829 38.5189 68.4445 39.5295 66.2878 41.3654C64.1312 43.2013 62.6965 45.7433 62.2393 48.5385C61.7821 51.3336 62.3322 54.2002 63.7916 56.6275C65.2509 59.0549 67.5246 60.8853 70.2077 61.7925C70.7941 61.8658 71.0125 61.4993 71.0125 61.206V59.1564C67.7197 59.8895 66.9881 57.5467 66.9881 57.5467C66.7844 56.8164 66.314 56.1891 65.6701 55.7888C64.572 55.0572 65.742 55.0572 65.742 55.0572C66.121 55.114 66.4825 55.2553 66.7995 55.4708C67.1165 55.6863 67.3809 55.9703 67.5731 56.3019C67.7315 56.5955 67.9462 56.8549 68.2049 57.0653C68.4636 57.2757 68.7614 57.433 69.081 57.5282C69.4006 57.6234 69.7359 57.6546 70.0676 57.62C70.3993 57.5855 70.7209 57.4858 71.0141 57.3267C71.0572 56.7198 71.3168 56.1486 71.7456 55.717C69.1096 55.4238 66.3284 54.399 66.3284 49.7866C66.3023 48.5908 66.7497 47.4331 67.5731 46.5656C67.2428 45.5576 67.295 44.4632 67.7197 43.4912C67.7197 43.4912 68.7445 43.198 71.0126 44.7359C71.9897 44.4655 73.0017 44.342 74.0152 44.3694C75.0261 44.3784 76.0328 44.5014 77.0163 44.7359C79.2858 43.1995 80.3106 43.4912 80.3106 43.4912C80.7295 44.4903 80.7809 45.6055 80.4557 46.6389C81.2619 47.5172 81.7065 48.6677 81.7004 49.8599C81.7004 54.4722 78.9177 55.4237 76.2847 55.717C76.5694 56.003 76.7888 56.3472 76.9277 56.7261C77.0667 57.105 77.1219 57.5094 77.0896 57.9117V61.206C77.0896 61.4992 77.308 61.8643 77.8944 61.7925C80.5833 60.8833 82.8609 59.047 84.3198 56.6121C85.7786 54.1773 86.3235 51.3028 85.8569 48.503C85.3904 45.7032 83.9428 43.1607 81.7732 41.3305C79.6036 39.5004 76.8536 38.5019 74.0152 38.5138L74.0151 38.5138Z" fill="white"/>
<path d="M52.2878 54.0744L58.2775 50.6156C58.3578 50.5693 58.4244 50.5027 58.4707 50.4224C58.5171 50.3422 58.5414 50.2511 58.5414 50.1585C58.5414 50.0658 58.5171 49.9748 58.4707 49.8946C58.4244 49.8143 58.3578 49.7477 58.2775 49.7014L52.2878 46.2426C52.2076 46.1963 52.1165 46.1719 52.0239 46.1719C51.9312 46.1719 51.8402 46.1963 51.7599 46.2426C51.6797 46.2889 51.613 46.3556 51.5667 46.4358C51.5203 46.5161 51.496 46.6071 51.496 46.6998V49.5742H42.2876V50.7436H51.4959V53.6172C51.4959 53.7099 51.5203 53.8009 51.5666 53.8812C51.613 53.9615 51.6796 54.0281 51.7599 54.0744C51.8401 54.1208 51.9312 54.1451 52.0238 54.1451C52.1165 54.1451 52.2076 54.1207 52.2878 54.0744V54.0744Z" fill="white"/>
<path d="M52.1794 79.0417L52.1502 79.0437C50.6127 79.1521 49.0691 79.1418 47.5331 79.0128C47.401 79.0015 47.2788 78.9382 47.1934 78.8369C47.1079 78.7355 47.0662 78.6044 47.0774 78.4723C47.0886 78.3402 47.1518 78.2179 47.253 78.1324C47.3543 78.0468 47.4854 78.005 47.6175 78.0161C49.102 78.1409 50.5939 78.151 52.0799 78.0462C52.2137 78.0361 52.3461 78.079 52.4486 78.1655C52.5512 78.2519 52.6157 78.3752 52.6284 78.5088C52.6346 78.5734 52.6279 78.6386 52.6086 78.7006C52.5893 78.7625 52.5578 78.82 52.516 78.8696C52.4742 78.9193 52.4229 78.9601 52.3651 78.9896C52.3073 79.0191 52.2442 79.0368 52.1794 79.0417V79.0417ZM56.6996 78.3633C56.5741 78.372 56.45 78.3331 56.3519 78.2543C56.2539 78.1755 56.1892 78.0627 56.1706 77.9383C56.1521 77.8139 56.1812 77.6871 56.252 77.5831C56.3228 77.4792 56.4302 77.4058 56.5528 77.3775C58.0135 77.039 59.4454 76.5863 60.8354 76.0238C60.8963 75.9987 60.9617 75.9859 61.0276 75.9861C61.0935 75.9864 61.1587 75.9997 61.2195 76.0252C61.2803 76.0508 61.3354 76.0881 61.3817 76.1351C61.428 76.182 61.4645 76.2376 61.4893 76.2988C61.514 76.3599 61.5263 76.4253 61.5257 76.4912C61.525 76.5572 61.5113 76.6223 61.4853 76.6829C61.4594 76.7435 61.4217 76.7984 61.3745 76.8444C61.3272 76.8904 61.2714 76.9266 61.2101 76.9509C59.7717 77.5332 58.2898 78.0015 56.7781 78.3514C56.7523 78.3575 56.726 78.3615 56.6996 78.3633V78.3633ZM43.0999 78.2704C43.0476 78.274 42.9951 78.2695 42.9442 78.2569C41.4368 77.8832 39.9609 77.392 38.5302 76.7877C38.4085 76.7358 38.3122 76.6378 38.2626 76.515C38.213 76.3923 38.2141 76.2549 38.2656 76.133C38.3171 76.0111 38.4149 75.9145 38.5375 75.8646C38.6601 75.8146 38.7975 75.8153 38.9196 75.8665C40.3021 76.4508 41.7283 76.9255 43.1852 77.2864C43.3008 77.3151 43.4023 77.3841 43.4715 77.481C43.5407 77.5778 43.5731 77.6962 43.5628 77.8148C43.5525 77.9334 43.5002 78.0445 43.4154 78.128C43.3305 78.2115 43.2187 78.262 43.0999 78.2704L43.0999 78.2704ZM65.1458 74.9392C65.0337 74.9471 64.9223 74.9171 64.8294 74.854C64.7365 74.7909 64.6676 74.6984 64.6337 74.5913C64.5998 74.4843 64.603 74.3689 64.6426 74.2639C64.6823 74.1588 64.7561 74.0702 64.8523 74.0122C66.1355 73.2372 67.356 72.363 68.5027 71.3975C68.553 71.3553 68.611 71.3234 68.6736 71.3036C68.7362 71.2838 68.8021 71.2765 68.8675 71.2822C68.9329 71.2878 68.9965 71.3063 69.0548 71.3366C69.113 71.3668 69.1648 71.4083 69.207 71.4585C69.2492 71.5088 69.2812 71.5668 69.301 71.6294C69.3207 71.692 69.328 71.7579 69.3224 71.8233C69.3167 71.8887 69.2982 71.9523 69.2679 72.0106C69.2377 72.0688 69.1963 72.1205 69.146 72.1628C67.9597 73.1622 66.6968 74.067 65.3689 74.8687C65.3011 74.9095 65.2247 74.9337 65.1458 74.9392V74.9392ZM34.7024 74.7187C34.5971 74.7264 34.492 74.7003 34.4025 74.6444C33.0858 73.823 31.8353 72.9002 30.6621 71.8844C30.6121 71.8416 30.5711 71.7893 30.5413 71.7306C30.5116 71.6719 30.4938 71.6079 30.4889 71.5423C30.484 71.4766 30.4921 71.4107 30.5127 71.3482C30.5334 71.2857 30.5661 71.228 30.6092 71.1782C30.6522 71.1284 30.7047 71.0876 30.7635 71.0582C30.8224 71.0287 30.8864 71.0112 30.9521 71.0066C31.0177 71.002 31.0836 71.0104 31.146 71.0313C31.2084 71.0522 31.266 71.0853 31.3156 71.1285C32.4502 72.1098 33.6593 73.0014 34.932 73.7954C35.0215 73.8514 35.0911 73.9342 35.1307 74.0321C35.1703 74.13 35.1779 74.2379 35.1524 74.3404C35.1269 74.4429 35.0696 74.5347 34.9888 74.6026C34.908 74.6705 34.8077 74.7112 34.7024 74.7187V74.7187ZM72.1156 69.0704C72.017 69.0773 71.9185 69.0549 71.8326 69.0058C71.7468 68.9568 71.6774 68.8834 71.6332 68.795C71.589 68.7065 71.5721 68.6069 71.5845 68.5088C71.5969 68.4107 71.6382 68.3185 71.703 68.2438C72.6857 67.1108 73.5786 65.9029 74.3736 64.6311C74.4082 64.5753 74.4536 64.5268 74.5071 64.4885C74.5605 64.4502 74.621 64.4229 74.685 64.408C74.7491 64.3931 74.8154 64.391 74.8803 64.4018C74.9451 64.4126 75.0072 64.4361 75.063 64.4709C75.1187 64.5057 75.1671 64.5512 75.2052 64.6048C75.2434 64.6583 75.2706 64.7188 75.2853 64.7829C75.3001 64.847 75.302 64.9133 75.291 64.9782C75.2801 65.043 75.2564 65.105 75.2215 65.1607C74.3987 66.4767 73.4747 67.7267 72.458 68.8994C72.415 68.9491 72.3626 68.9897 72.3039 69.0191C72.2451 69.0484 72.1811 69.0659 72.1156 69.0704V69.0704ZM27.8128 68.7528C27.7343 68.7584 27.6556 68.7454 27.5832 68.7147C27.5108 68.6841 27.4466 68.6367 27.396 68.5765C26.3948 67.3912 25.4885 66.1289 24.6854 64.8012C24.6169 64.6877 24.5962 64.5516 24.628 64.4228C24.6598 64.294 24.7414 64.1831 24.8549 64.1145C24.9685 64.0459 25.1046 64.0252 25.2334 64.0569C25.3622 64.0886 25.4731 64.1702 25.5418 64.2837C26.3172 65.5664 27.1924 66.7861 28.1592 67.9315C28.2188 68.0019 28.2578 68.0875 28.2718 68.1788C28.2857 68.2701 28.2741 68.3634 28.2382 68.4485C28.2023 68.5336 28.1436 68.607 28.0685 68.6607C27.9934 68.7145 27.9049 68.7463 27.8128 68.7528V68.7528ZM23.0967 60.9562C22.9915 60.9636 22.8866 60.9376 22.797 60.8818C22.7075 60.8261 22.6378 60.7435 22.598 60.6458C22.0143 59.2075 21.5443 57.7258 21.1922 56.2141C21.1622 56.0848 21.1847 55.949 21.2549 55.8363C21.3251 55.7237 21.4371 55.6436 21.5664 55.6136C21.6957 55.5836 21.8316 55.6061 21.9442 55.6763C22.0568 55.7465 22.1369 55.8585 22.1669 55.9878C22.5066 57.4483 22.9607 58.8799 23.525 60.2691C23.5748 60.392 23.5738 60.5296 23.5222 60.6517C23.4706 60.7739 23.3726 60.8705 23.2498 60.9204C23.201 60.9405 23.1493 60.9526 23.0967 60.9562ZM21.7949 42.9994C21.743 43.003 21.6908 42.9986 21.6403 42.9863C21.5115 42.9545 21.4007 42.8729 21.3321 42.7594C21.2635 42.6459 21.2428 42.5099 21.2745 42.3811C21.6462 40.8731 22.1359 39.3966 22.7392 37.9654C22.7908 37.8431 22.8889 37.7464 23.0119 37.6964C23.1348 37.6464 23.2726 37.6473 23.3949 37.699C23.5172 37.7506 23.614 37.8487 23.664 37.9716C23.714 38.0946 23.713 38.2324 23.6614 38.3547C23.0777 39.737 22.604 41.1632 22.2449 42.6201C22.2196 42.7228 22.1624 42.8148 22.0816 42.8829C22.0007 42.9511 21.9003 42.9918 21.7949 42.9994ZM75.0237 34.8516C74.9321 34.8581 74.8405 34.8392 74.7589 34.797C74.6774 34.7548 74.609 34.691 74.5614 34.6125C73.7818 33.3318 72.9035 32.1139 71.9345 30.9698C71.8918 30.9198 71.8593 30.8617 71.8391 30.7991C71.8188 30.7365 71.8111 30.6705 71.8164 30.6049C71.8218 30.5393 71.84 30.4753 71.8701 30.4168C71.9001 30.3582 71.9415 30.3062 71.9917 30.2637C72.0419 30.2211 72.1001 30.1889 72.1628 30.1689C72.2255 30.1489 72.2916 30.1415 72.3571 30.1471C72.4227 30.1527 72.4866 30.1712 72.545 30.2015C72.6034 30.2318 72.6553 30.2733 72.6976 30.3238C73.7007 31.5073 74.6095 32.7676 75.4156 34.0932C75.4602 34.1664 75.4852 34.2499 75.4882 34.3356C75.4912 34.4213 75.4721 34.5063 75.4327 34.5825C75.3934 34.6587 75.335 34.7235 75.2634 34.7706C75.1917 34.8177 75.1092 34.8456 75.0236 34.8516H75.0237ZM25.338 34.5991C25.233 34.6069 25.1282 34.5808 25.0391 34.5247C24.9833 34.4901 24.9348 34.4448 24.8965 34.3915C24.8583 34.3381 24.8308 34.2777 24.8159 34.2138C24.8009 34.1498 24.7987 34.0836 24.8094 34.0188C24.82 33.954 24.8433 33.8919 24.878 33.8361C25.6986 32.5188 26.6202 31.267 27.6342 30.092C27.6771 30.0422 27.7294 30.0013 27.7881 29.9716C27.8468 29.942 27.9107 29.9243 27.9763 29.9194C28.0418 29.9145 28.1077 29.9226 28.1701 29.9432C28.2326 29.9639 28.2903 29.9966 28.3401 30.0396C28.3898 30.0825 28.4306 30.1349 28.4601 30.1936C28.4896 30.2524 28.5073 30.3164 28.512 30.382C28.5167 30.4475 28.5085 30.5134 28.4877 30.5758C28.467 30.6382 28.4341 30.6959 28.391 30.7455C27.411 31.8811 26.5205 33.0911 25.7278 34.3645C25.6859 34.4316 25.6287 34.4878 25.561 34.5285C25.4933 34.5693 25.4169 34.5935 25.338 34.5991V34.5991ZM69.1326 27.8995C69.0009 27.9088 68.8708 27.8657 68.7707 27.7796C67.6348 26.8001 66.4241 25.9106 65.1499 25.1194C65.0372 25.0494 64.9569 24.9376 64.9267 24.8084C64.8965 24.6793 64.9188 24.5434 64.9888 24.4307C65.0587 24.3181 65.1706 24.2378 65.2997 24.2076C65.4288 24.1773 65.5647 24.1997 65.6774 24.2696C66.9955 25.0888 68.2482 26.009 69.4241 27.0218C69.4991 27.0865 69.5531 27.172 69.5795 27.2675C69.6058 27.363 69.6032 27.4642 69.5719 27.5582C69.5407 27.6522 69.4823 27.7348 69.4041 27.7955C69.3258 27.8563 69.2313 27.8925 69.1325 27.8995H69.1326ZM31.2966 27.7027C31.1914 27.7101 31.0866 27.684 30.9971 27.6283C30.9076 27.5725 30.8381 27.4899 30.7984 27.3922C30.7587 27.2946 30.7509 27.1868 30.7762 27.0845C30.8014 26.9821 30.8583 26.8903 30.9389 26.8223C32.1235 25.8203 33.3849 24.9127 34.7115 24.108C34.7676 24.0739 34.83 24.0513 34.8949 24.0413C34.9598 24.0314 35.026 24.0343 35.0898 24.0499C35.1536 24.0656 35.2137 24.0936 35.2666 24.1325C35.3195 24.1713 35.3643 24.2202 35.3984 24.2764C35.4324 24.3326 35.4551 24.3949 35.465 24.4598C35.475 24.5247 35.472 24.5909 35.4564 24.6547C35.4408 24.7185 35.4127 24.7786 35.3739 24.8315C35.335 24.8845 35.2861 24.9292 35.2299 24.9633C33.9482 25.7412 32.7292 26.6179 31.5839 27.5855C31.5032 27.6543 31.4024 27.6954 31.2966 27.7027H31.2966ZM61.3869 23.0942C61.3087 23.0998 61.2303 23.0869 61.1581 23.0565C59.775 22.4748 58.3483 22.003 56.8911 21.6455C56.7623 21.6141 56.6513 21.5328 56.5824 21.4195C56.5136 21.3062 56.4925 21.1702 56.524 21.0414C56.5554 20.9126 56.6367 20.8016 56.75 20.7327C56.8633 20.6639 56.9993 20.6428 57.1281 20.6743C58.6366 21.0442 60.1136 21.5325 61.5454 22.1344C61.6491 22.1779 61.7351 22.2552 61.7895 22.3536C61.8439 22.452 61.8635 22.5659 61.8452 22.6769C61.8269 22.7879 61.7717 22.8894 61.6885 22.9651C61.6053 23.0409 61.4991 23.0863 61.3869 23.0942V23.0942ZM39.0893 22.98C38.9706 22.9885 38.8527 22.9544 38.7569 22.8837C38.661 22.8131 38.5936 22.7105 38.5667 22.5946C38.5397 22.4786 38.5551 22.3568 38.6099 22.2512C38.6648 22.1455 38.7555 22.0629 38.8659 22.0182C40.3033 21.4326 41.7847 20.9612 43.2963 20.6085C43.3603 20.5935 43.4266 20.5912 43.4914 20.6019C43.5562 20.6125 43.6183 20.6358 43.6742 20.6705C43.73 20.7051 43.7784 20.7504 43.8167 20.8038C43.855 20.8572 43.8824 20.9176 43.8974 20.9816C43.9123 21.0456 43.9145 21.1119 43.9038 21.1767C43.893 21.2416 43.8697 21.3036 43.8349 21.3594C43.8002 21.4152 43.7548 21.4636 43.7014 21.5018C43.648 21.5401 43.5875 21.5674 43.5235 21.5822C42.063 21.9233 40.6315 22.3787 39.2425 22.9442C39.1937 22.9644 39.142 22.9765 39.0893 22.98V22.98ZM52.5348 20.9251C52.509 20.9269 52.4831 20.9267 52.4574 20.9247C50.9917 20.8048 49.5191 20.7965 48.0522 20.8999C47.9153 20.9111 47.7793 20.8697 47.672 20.7841C47.5646 20.6986 47.494 20.5753 47.4744 20.4394C47.465 20.3767 47.4685 20.3128 47.4847 20.2515C47.501 20.1903 47.5296 20.133 47.5688 20.0833C47.6081 20.0335 47.6571 19.9923 47.7129 19.9623C47.7687 19.9323 47.8301 19.914 47.8932 19.9086L47.9819 19.9024C49.4996 19.7954 51.0234 19.804 52.5399 19.9281C52.6654 19.9385 52.7823 19.9959 52.8674 20.0887C52.9524 20.1816 52.9993 20.3031 52.9987 20.429C52.998 20.5549 52.9499 20.676 52.8639 20.7679C52.7779 20.8599 52.6603 20.9161 52.5347 20.9251L52.5348 20.9251Z" fill="white"/>
<path d="M15.9308 57.8125C15.7737 57.9468 15.5824 58.0349 15.3782 58.0669C15.174 58.099 14.965 58.0738 14.7743 57.9941L12.7434 57.1421C12.5408 57.0576 12.3676 56.9153 12.2454 56.733C12.1232 56.5507 12.0573 56.3364 12.0562 56.1169V44.1996C12.0573 43.9801 12.1232 43.7658 12.2454 43.5835C12.3676 43.4012 12.5408 43.2589 12.7434 43.1744L14.7743 42.3363C14.965 42.2567 15.174 42.2315 15.3782 42.2635C15.5824 42.2956 15.7737 42.3836 15.9308 42.5179L16.3862 42.895C16.2938 42.8286 16.1849 42.789 16.0715 42.7806C15.9581 42.7722 15.8446 42.7953 15.7434 42.8473C15.6423 42.8993 15.5575 42.9782 15.4984 43.0754C15.4393 43.1725 15.4081 43.2841 15.4084 43.3979V56.9186C15.4081 57.0323 15.4393 57.1439 15.4984 57.2411C15.5575 57.3382 15.6423 57.4172 15.7434 57.4692C15.8446 57.5212 15.9581 57.5443 16.0715 57.5359C16.1849 57.5274 16.2938 57.4878 16.3862 57.4215L15.9308 57.8125Z" fill="#52218A"/>
<path d="M12.7434 57.1424C12.5408 57.0579 12.3676 56.9156 12.2454 56.7333C12.1232 56.551 12.0573 56.3367 12.0562 56.1172V56.025C12.0575 56.154 12.0975 56.2796 12.171 56.3856C12.2444 56.4916 12.348 56.5732 12.4683 56.6198C12.5885 56.6664 12.72 56.6759 12.8457 56.6471C12.9715 56.6182 13.0856 56.5524 13.1736 56.458L30.4936 37.3083C30.7389 37.0642 31.0537 36.902 31.3948 36.844C31.7359 36.786 32.0866 36.835 32.3988 36.9843L37.9244 39.6437C38.209 39.7806 38.4492 39.995 38.6172 40.2624C38.7853 40.5298 38.8743 40.8392 38.8742 41.155V41.2193C38.874 41.0189 38.817 40.8227 38.7098 40.6535C38.6026 40.4843 38.4495 40.3489 38.2684 40.2632C38.0873 40.1775 37.8857 40.1449 37.6868 40.1693C37.4879 40.1936 37.3001 40.2739 37.145 40.4008L16.3862 57.4218L15.9308 57.8129C15.7737 57.9472 15.5824 58.0352 15.3782 58.0673C15.174 58.0993 14.965 58.0741 14.7743 57.9945L12.7434 57.1424Z" fill="#6C33AF"/>
<path d="M12.7434 43.1751C12.5408 43.2596 12.3676 43.4019 12.2454 43.5843C12.1232 43.7666 12.0573 43.9809 12.0562 44.2004V44.2926C12.0575 44.1636 12.0975 44.038 12.171 43.9319C12.2444 43.8259 12.348 43.7443 12.4683 43.6977C12.5885 43.6511 12.72 43.6416 12.8457 43.6705C12.9715 43.6993 13.0856 43.7652 13.1736 43.8596L30.4936 63.0093C30.7389 63.2534 31.0537 63.4155 31.3948 63.4735C31.7359 63.5315 32.0866 63.4826 32.3988 63.3333L37.9244 60.6739C38.209 60.537 38.4492 60.3225 38.6172 60.0551C38.7853 59.7878 38.8743 59.4784 38.8742 59.1625V59.0983C38.874 59.2986 38.817 59.4948 38.7098 59.6641C38.6026 59.8333 38.4495 59.9686 38.2684 60.0543C38.0873 60.1401 37.8857 60.1726 37.6868 60.1483C37.4879 60.1239 37.3001 60.0437 37.145 59.9168L16.3862 42.8958L15.9308 42.5047C15.7723 42.3727 15.5803 42.2872 15.3762 42.2576C15.1721 42.2281 14.9637 42.2556 14.7743 42.3371L12.7434 43.1751Z" fill="#854CC7"/>
<path d="M32.3988 63.3329C32.0867 63.4822 31.736 63.5311 31.3949 63.4731C31.0537 63.4151 30.7389 63.253 30.4937 63.0089C30.6313 63.1456 30.8063 63.2385 30.9967 63.2759C31.187 63.3134 31.3842 63.2937 31.5634 63.2193C31.7425 63.1449 31.8957 63.0193 32.0036 62.858C32.1115 62.6968 32.1693 62.5073 32.1698 62.3133V38.0094C32.1704 37.815 32.1134 37.6247 32.0059 37.4626C31.8985 37.3005 31.7454 37.174 31.5659 37.0989C31.3865 37.0239 31.1889 37.0037 30.9981 37.041C30.8072 37.0782 30.6317 37.1712 30.4937 37.3083C30.7389 37.0642 31.0537 36.902 31.3949 36.844C31.736 36.786 32.0867 36.835 32.3988 36.9843L37.9245 39.6409C38.2091 39.7778 38.4493 39.9922 38.6173 40.2596C38.7853 40.527 38.8744 40.8364 38.8743 41.1522V59.1649C38.8744 59.4808 38.7853 59.7902 38.6173 60.0576C38.4493 60.3249 38.2091 60.5394 37.9245 60.6762L32.3988 63.3329Z" fill="#B179F1"/>
<g opacity="0.25">
<path opacity="0.25" fill-rule="evenodd" clip-rule="evenodd" d="M31.3009 63.4564C31.6702 63.5406 32.0572 63.4973 32.3987 63.3334L37.9244 60.6768C38.209 60.5399 38.4492 60.3255 38.6172 60.0581C38.7852 59.7907 38.8743 59.4813 38.8742 59.1655V41.1527C38.8743 40.8369 38.7852 40.5275 38.6172 40.2601C38.4492 39.9927 38.209 39.7783 37.9244 39.6414L32.3987 36.9847C32.087 36.8338 31.7358 36.7838 31.3943 36.8419C31.0528 36.9 30.7379 37.0632 30.4936 37.3087L21.5877 47.1587L16.3862 42.8958L15.9308 42.5047C15.7939 42.3876 15.6306 42.3054 15.455 42.265C15.2794 42.2246 15.0967 42.2273 14.9223 42.2728C14.8713 42.2841 14.8216 42.301 14.7743 42.3231L12.7434 43.1751C12.5533 43.2536 12.3885 43.383 12.2673 43.5491C12.146 43.7152 12.073 43.9116 12.0562 44.1165V56.2015C12.073 56.4065 12.146 56.6028 12.2673 56.7689C12.3885 56.935 12.5533 57.0645 12.7434 57.143L14.7743 57.981C14.8216 58.0032 14.8713 58.02 14.9223 58.0313C15.0967 58.0768 15.2794 58.0795 15.455 58.0391C15.6306 57.9988 15.7939 57.9165 15.9308 57.7994L16.3862 57.4223L21.5877 53.1594L30.4936 63.0094C30.7155 63.231 30.9952 63.3858 31.3009 63.4564V63.4564ZM32.1697 44.4826L25.2445 50.1591L32.1697 55.8356V44.4826ZM15.4084 46.3236L18.8752 50.1591L15.4084 53.9946V46.3236Z" fill="url(#paint1_linear)"/>
</g>
</g>
<defs>
<linearGradient id="paint0_linear" x1="47.8697" y1="-15.153" x2="51.8525" y2="130.615" gradientUnits="userSpaceOnUse">
<stop stop-color="#00ABDE"/>
<stop offset="1" stop-color="#007ED8"/>
</linearGradient>
<linearGradient id="paint1_linear" x1="25.4652" y1="36.8193" x2="25.4652" y2="63.4984" gradientUnits="userSpaceOnUse">
<stop stop-color="white"/>
<stop offset="1" stop-color="white" stop-opacity="0"/>
</linearGradient>
<clipPath id="clip0">
<rect width="99.2799" height="99.28" fill="white"/>
</clipPath>
</defs>
</svg>
