<svg width="103" height="103" viewBox="0 0 103 103" fill="none" xmlns="http://www.w3.org/2000/svg">
<path d="M51.1176 98.1156C25.2676 98.1156 4.30762 77.1656 4.30762 51.3056C4.30762 25.4456 25.2676 4.49561 51.1176 4.49561C76.9676 4.49561 97.9276 25.4556 97.9276 51.3056C97.9276 77.1556 76.9676 98.1156 51.1176 98.1156Z" fill="url(#paint0_linear)"/>
<path fill-rule="evenodd" clip-rule="evenodd" d="M97.0178 51.3055C97.0178 76.6555 76.4678 97.2055 51.1178 97.2055C25.7678 97.2055 5.21778 76.6555 5.21778 51.3055C5.21778 25.9555 25.7678 5.40553 51.1178 5.40553C76.4678 5.40553 97.0178 25.9555 97.0178 51.3055ZM51.1178 1.66553C78.5378 1.66553 100.758 23.8855 100.758 51.3055C100.758 78.7255 78.5278 100.946 51.1178 100.946C23.6978 100.946 1.47778 78.7155 1.47778 51.3055C1.47778 23.8855 23.6978 1.66553 51.1178 1.66553Z" fill="#F2F1F0"/>
<path fill-rule="evenodd" clip-rule="evenodd" d="M94.2076 51.3056C94.2076 75.1056 74.9176 94.3956 51.1176 94.3956C27.3176 94.3956 8.0276 75.1056 8.0276 51.3056C8.0276 27.5056 27.3176 8.21559 51.1176 8.21559C74.9176 8.21559 94.2076 27.5056 94.2076 51.3056ZM51.1176 4.47559C76.9776 4.47559 97.9476 25.4456 97.9476 51.3056C97.9476 77.1656 76.9776 98.1356 51.1176 98.1356C25.2576 98.1356 4.2876 77.1656 4.2876 51.3056C4.2876 25.4456 25.2476 4.47559 51.1176 4.47559Z" fill="url(#paint1_linear)"/>
<path d="M28.7078 74.8252V80.8252C28.7178 82.0152 29.5478 82.8252 30.7078 82.8252H74.7078V74.8252H28.7078Z" fill="#BE9555"/>
<path d="M30.7078 75.8252V79.8252C30.7378 80.9352 31.6278 81.8252 32.6678 81.8252H74.7078V75.8252H30.7078Z" fill="white"/>
<path opacity="0.2" d="M30.7078 75.8252V76.8252H74.7078V75.8252H30.7078Z" fill="#4F4D52"/>
<path opacity="0.2" d="M48.7078 75.8252L54.7078 81.8252H48.7078V75.8252Z" fill="#4F4D52"/>
<path d="M49.7078 85.8252L45.7078 83.8252L42.7078 85.8252V75.8252H49.7078V85.8252Z" fill="#EF6F59"/>
<path d="M74.7078 74.8252H28.7078V19.8252H74.7078V74.8252Z" fill="#F7CB64"/>
<path fill-rule="evenodd" clip-rule="evenodd" d="M51.7078 70.8252C51.7078 71.9252 50.8178 72.8252 49.7078 72.8252H28.7078V74.8252H74.7078V22.8252H53.7078C52.5978 22.8252 51.7078 23.7252 51.7078 24.8252V70.8252Z" fill="black" fill-opacity="0.1269"/>
<path opacity="0.2" d="M41.4978 71.0458H69.6778C70.2378 71.0458 70.6978 70.5858 70.6978 70.0258V25.1558H32.7178V70.0058C32.7178 70.5658 33.1778 71.0258 33.7378 71.0258H37.1178L41.4978 71.0458Z" fill="#1F1D21"/>
<path d="M70.6978 24.7257V24.2957C70.6978 23.7657 70.2678 23.3457 69.7478 23.3457H33.6678C33.1478 23.3457 32.7178 23.7757 32.7178 24.2957V24.7757V25.2057V69.6957H37.1178H41.4978H69.7478C70.2778 69.6957 70.6978 69.2657 70.6978 68.7457V24.7657C70.7078 24.7557 70.6978 24.7457 70.6978 24.7257Z" fill="white"/>
<path d="M42.6677 56.4557H46.6677V65.7157H44.5177V58.1757H42.6677V56.4557ZM52.2477 65.8857C49.9677 65.8857 48.2777 64.1557 48.2777 61.0957C48.2777 58.0357 49.9677 56.3057 52.2477 56.3057C54.5377 56.3057 56.2177 58.0357 56.2177 61.0957C56.2177 64.1557 54.5377 65.8857 52.2477 65.8857ZM52.2477 64.0657C53.3177 64.0657 54.0577 63.1957 54.0577 61.0857C54.0577 58.9857 53.3177 58.1057 52.2477 58.1057C51.1877 58.1057 50.4477 58.9757 50.4477 61.0857C50.4477 63.1957 51.1877 64.0657 52.2477 64.0657ZM56.7577 56.4557H60.7577V65.7157H58.6177V58.1757H56.7677V56.4557H56.7577Z" fill="#4C3B12"/>
<path d="M46.6576 29.6359C46.8176 29.1559 47.2676 28.8359 47.7776 28.8359H55.1876L47.4976 51.6159C47.3376 52.0959 46.8876 52.4159 46.3776 52.4159H40.6176C39.8076 52.4159 39.2376 51.6259 39.4976 50.8559L46.6576 29.6359Z" fill="url(#paint2_linear)"/>
<path d="M58.4976 44.1558H46.8276C46.3376 44.1558 46.0976 44.7558 46.4576 45.0958L53.9576 52.0958C54.1776 52.2958 54.4676 52.4158 54.7576 52.4158H61.3676L58.4976 44.1558Z" fill="#0078D4"/>
<path d="M55.1875 28.8359H46.9375L38.9775 52.4159H47.2275L48.9175 47.3959L54.2975 52.4159H61.3675L58.4975 44.1659H50.0075L55.1875 28.8359Z" fill="url(#paint3_linear)"/>
<path d="M57.2276 29.6359C57.0676 29.1559 56.6176 28.8359 56.1076 28.8359H47.8176H47.8576C48.3676 28.8359 48.8176 29.1559 48.9776 29.6359L56.1376 50.8559C56.3976 51.6159 55.8276 52.4159 55.0176 52.4159H54.8876H63.2676C64.0776 52.4159 64.6476 51.6259 64.3876 50.8559L57.2276 29.6359Z" fill="url(#paint4_linear)"/>
<defs>
<linearGradient id="paint0_linear" x1="49.3474" y1="-13.4883" x2="53.3304" y2="132.28" gradientUnits="userSpaceOnUse">
<stop stop-color="#00ABDE"/>
<stop offset="1" stop-color="#007ED8"/>
</linearGradient>
<linearGradient id="paint1_linear" x1="51.1176" y1="-2.18631" x2="51.1176" y2="99.5774" gradientUnits="userSpaceOnUse">
<stop stop-color="#007ED8"/>
<stop offset="0.7065" stop-color="#002D4C"/>
</linearGradient>
<linearGradient id="paint2_linear" x1="50.4779" y1="30.5794" x2="42.7868" y2="53.301" gradientUnits="userSpaceOnUse">
<stop stop-color="#114A8B"/>
<stop offset="1" stop-color="#0669BC"/>
</linearGradient>
<linearGradient id="paint3_linear" x1="52.8245" y1="41.0754" x2="51.001" y2="41.6975" gradientUnits="userSpaceOnUse">
<stop stop-opacity="0.3"/>
<stop offset="0.0712" stop-opacity="0.2"/>
<stop offset="0.321" stop-opacity="0.1"/>
<stop offset="0.6231" stop-opacity="0.05"/>
<stop offset="1" stop-opacity="0"/>
</linearGradient>
<linearGradient id="paint4_linear" x1="51.8882" y1="29.9163" x2="60.3305" y2="52.4094" gradientUnits="userSpaceOnUse">
<stop stop-color="#3CCBF4"/>
<stop offset="1" stop-color="#2892DF"/>
</linearGradient>
</defs>
</svg>
