<svg width="181" height="191" viewBox="0 0 181 191" fill="none" xmlns="http://www.w3.org/2000/svg">
<path d="M90.5003 189.783C93.5603 189.783 96.5703 188.933 99.2303 187.313L161.2 149.653C166.74 146.283 170.17 139.953 170.17 133.113V58.4033C170.17 51.5833 166.74 45.2433 161.2 41.8633L99.2303 4.20327C93.9003 0.963268 87.0803 0.983268 81.7803 4.20327L19.8103 41.8833C14.2703 45.2533 10.8203 51.5833 10.8203 58.4233V133.123C10.8203 138.883 13.2703 144.303 17.3703 147.873V147.903L81.7803 187.333C84.4203 188.933 87.4403 189.783 90.5003 189.783ZM91.1503 8.73327C93.1003 8.73327 95.5803 9.94327 97.2903 10.9933L158.05 48.1833C161.8 50.4633 163.92 57.0633 163.92 61.8133L163.29 133.113C163.29 137.863 160.09 142.133 156.34 144.413L95.9403 180.793C92.5103 182.883 89.7203 182.883 86.2803 180.793L25.0703 144.323C21.3203 142.043 18.3003 137.843 18.3003 133.113V59.4733C18.3003 54.7333 21.0303 49.8433 24.8003 47.5533L85.3803 10.9933C87.0803 9.95327 89.2003 8.73327 91.1503 8.73327Z" fill="#F2F1F0"/>
<path fill-rule="evenodd" clip-rule="evenodd" d="M98.3998 12.3134C95.9498 10.8134 93.2298 10.0634 90.4998 10.0634C87.7698 10.0634 85.0498 10.8234 82.5998 12.3134L26.4698 46.6434C21.4498 49.7134 18.3398 55.4634 18.3398 61.7134V129.813C18.3398 136.043 21.4398 141.813 26.4698 144.883L82.5998 179.213C85.0498 180.713 87.7698 181.463 90.4998 181.463C93.2298 181.463 95.9498 180.723 98.3998 179.213L154.53 144.883C159.55 141.813 162.66 136.043 162.66 129.813V61.7134C162.66 55.4834 159.56 49.7334 154.53 46.6434L98.3998 12.3134Z" fill="url(#paint0_linear)"/>
<path fill-rule="evenodd" clip-rule="evenodd" d="M90.4998 11.5333C92.1798 11.5333 94.0698 12.4033 96.1298 13.6533L154.6 49.1933C158.25 51.4133 160.66 55.6833 160.66 60.5133V130.993C160.66 135.813 158.25 140.093 154.6 142.313L96.1398 177.853C94.1798 179.043 92.2598 179.793 90.5098 179.793C88.7598 179.793 86.8398 179.043 84.8798 177.853L26.3998 142.323C24.3898 141.093 22.9398 139.893 21.9598 138.283C20.9798 136.683 20.3398 134.463 20.3398 131.003V60.5233C20.3398 55.6933 22.7498 51.4233 26.3998 49.2033L84.8598 13.6633C86.9498 12.4133 88.8098 11.5333 90.4998 11.5333ZM98.2098 181.283L156.67 145.743C161.59 142.753 164.65 137.133 164.65 131.003V60.5233C164.65 54.3933 161.59 48.7733 156.67 45.7833L98.2098 10.2433C96.0998 8.96333 93.3898 7.53333 90.4998 7.53333C87.5998 7.53333 84.8899 8.97333 82.7999 10.2333H82.7898L24.3198 45.7833C19.3998 48.7733 16.3398 54.3933 16.3398 60.5233V131.003C16.3398 134.963 17.0798 137.953 18.5398 140.363C19.9998 142.763 22.0598 144.363 24.3198 145.733L82.7798 181.273C84.9998 182.623 87.6698 183.803 90.4898 183.803C93.3098 183.803 95.9898 182.633 98.2098 181.283Z" fill="url(#paint1_linear)"/>
<path opacity="0.15" d="M153.49 130.743C156.75 132.593 156.75 135.563 153.49 137.413L97.14 170.213C94.02 172.063 88.77 172.063 85.51 170.213L27.28 136.583C24.02 134.733 24.02 131.763 27.28 129.913L83.63 97.1132C86.75 95.2632 92 95.2632 95.26 97.1132L153.49 130.743Z" fill="#1F1D20"/>
<path d="M153.49 132.353V132.493L97.2798 165.133C94.0198 166.983 88.9098 166.983 85.6498 165.133L27.4298 131.503V131.643C25.8698 130.643 24.8398 129.503 24.8398 128.233V130.633C24.8398 131.923 25.8698 133.043 27.4298 134.043L85.6298 167.543C88.8898 169.393 94.1498 169.393 97.2598 167.543L153.47 134.893C155.03 134.043 155.88 132.623 155.88 131.483V129.083C155.9 130.353 155.19 131.503 153.49 132.353Z" fill="#989899"/>
<path d="M153.49 126.023C156.75 127.873 156.75 130.843 153.49 132.693L97.1398 165.493C94.0198 167.343 88.7698 167.343 85.5098 165.493L27.2898 131.843C25.5998 130.893 24.7798 129.643 24.8498 128.403C24.8998 127.233 25.7198 126.073 27.2898 125.173L83.6398 92.3732C86.7598 90.5232 92.0098 90.5232 95.2698 92.3732L153.49 126.023Z" fill="#CDCDD0"/>
<path opacity="0.4" d="M120.72 119.453L79.7597 143.553L52.2197 127.343L94.0297 104.153L120.72 119.453Z" fill="#1F1D21"/>
<path d="M120.62 42.2233L79.9202 65.8233L52.1602 49.8733L92.8602 26.2733L120.62 42.2233Z" fill="#296089"/>
<path d="M120.62 42.2233L120.46 116.453L79.7598 140.143L79.9198 65.8333L120.62 42.2233Z" fill="#1D4A79"/>
<path d="M79.9201 65.8233L79.7601 140.133L52.0801 124.183L52.1601 49.8733L79.9201 65.8233Z" fill="#24547F"/>
<path d="M61.2002 105.793L61.2802 103.923L62.9102 104.903V106.773L61.2002 105.793Z" fill="white"/>
<path d="M61.2803 102.043V100.173L62.9103 101.073V103.023L61.2803 102.043Z" fill="white"/>
<path d="M61.2803 98.3833V96.4333L62.9103 97.4133V99.2833L61.2803 98.3833Z" fill="white"/>
<path d="M64.5303 107.663V105.793L66.1603 106.773V108.643L64.5303 107.663Z" fill="white"/>
<path d="M64.5303 103.923V102.053L66.1603 103.033V104.903L64.5303 103.923Z" fill="white"/>
<path d="M64.5303 100.253V98.3833L66.1603 99.2833V101.153L64.5303 100.253Z" fill="white"/>
<path d="M67.79 109.613V107.663L69.42 108.643V110.513L67.79 109.613Z" fill="white"/>
<path d="M67.79 105.793V103.923L69.42 104.903V106.773L67.79 105.793Z" fill="white"/>
<path d="M67.79 102.133V100.263L69.42 101.163V103.113L67.79 102.133Z" fill="white"/>
<path d="M62.5003 82.1833C61.8503 81.7733 61.2803 80.8833 61.2803 80.0633C61.2803 79.3333 61.8503 79.0033 62.5003 79.3333C63.1503 79.7433 63.7203 80.6333 63.7203 81.4533C63.6403 82.2633 63.1503 82.5933 62.5003 82.1833Z" fill="white"/>
<path d="M68.2005 85.5233C67.5505 85.1133 66.9805 84.2233 66.9805 83.4033C66.9805 82.6733 67.5505 82.3433 68.2005 82.6733C68.8505 83.0033 69.4205 83.9733 69.4205 84.7933C69.4205 85.6033 68.8505 85.9333 68.2005 85.5233Z" fill="white"/>
<path d="M62.5003 75.6733C61.8503 75.2633 61.2803 74.3733 61.2803 73.5533C61.2803 72.8233 61.8503 72.4933 62.5003 72.8233C63.1503 73.2333 63.7203 74.1233 63.7203 74.9433C63.7203 75.7533 63.1503 76.0033 62.5003 75.6733Z" fill="white"/>
<path d="M68.2005 78.9333C67.5505 78.5233 66.9805 77.6333 66.9805 76.8133C66.9805 76.0833 67.5505 75.7533 68.2005 76.0833C68.8505 76.4933 69.4205 77.3833 69.4205 78.2033C69.4205 79.0133 68.8505 79.3333 68.2005 78.9333Z" fill="white"/>
<path d="M62.5003 94.6434C61.8503 94.2334 61.2803 93.3434 61.2803 92.5234C61.2803 91.7134 61.8503 91.4634 62.5003 91.7934C63.1503 92.2034 63.7203 93.0934 63.7203 93.9134C63.7203 94.7234 63.1503 95.0434 62.5003 94.6434ZM62.5003 92.7634C62.2603 92.6034 62.0903 92.7634 62.0903 93.0034C62.0903 93.2434 62.2503 93.5734 62.5003 93.7334C62.7403 93.8934 62.9103 93.7334 62.9103 93.4934C62.9103 93.2534 62.7403 92.9334 62.5003 92.7634Z" fill="white"/>
<path d="M62.5003 88.0433C61.8503 87.6333 61.2803 86.7433 61.2803 85.9233C61.2803 85.1133 61.8503 84.8633 62.5003 85.1933C63.1503 85.6033 63.7203 86.4933 63.7203 87.3133C63.7203 88.1333 63.1503 88.4533 62.5003 88.0433ZM62.5003 86.2533C62.2603 86.0933 62.0903 86.2533 62.0903 86.4933C62.0903 86.7333 62.2503 87.0633 62.5003 87.2233C62.7403 87.3833 62.9103 87.2233 62.9103 86.9833C62.9103 86.6633 62.7403 86.3333 62.5003 86.2533Z" fill="white"/>
<path d="M68.2005 97.9733C67.5505 97.5633 66.9805 96.6733 66.9805 95.8533C66.9805 95.0433 67.5505 94.7933 68.2005 95.1233C68.8505 95.5333 69.4205 96.4233 69.4205 97.2433C69.4205 98.0633 68.8505 98.3033 68.2005 97.9733ZM68.2005 96.1033C67.9605 95.9433 67.7905 96.1033 67.7905 96.3433C67.7905 96.5833 67.9505 96.9133 68.2005 97.0733C68.4505 97.2333 68.6105 97.0733 68.6105 96.8333C68.6005 96.5133 68.4405 96.2633 68.2005 96.1033Z" fill="white"/>
<path d="M68.2005 91.3833C67.5505 90.9733 66.9805 90.0833 66.9805 89.2633C66.9805 88.4433 67.5505 88.2033 68.2005 88.5333C68.8505 88.9433 69.4205 89.8333 69.4205 90.6533C69.4205 91.4633 68.8505 91.7933 68.2005 91.3833ZM68.2005 89.5133C67.9605 89.3533 67.7905 89.5133 67.7905 89.7533C67.7905 89.9933 67.9505 90.3233 68.2005 90.4833C68.4505 90.6433 68.6105 90.4833 68.6105 90.2433C68.6005 89.9233 68.4405 89.6733 68.2005 89.5133Z" fill="white"/>
<path opacity="0.15" d="M96.5294 129.543H145.209C147.109 129.543 148.629 128.013 148.629 126.123V75.2233H93.1094V126.123C93.1094 128.013 94.6294 129.543 96.5294 129.543Z" fill="#1F1D20"/>
<path d="M94.5194 127.813H147.209C147.989 127.813 148.629 127.183 148.629 126.393V73.4833H93.1094V126.413C93.1094 127.183 93.7394 127.813 94.5194 127.813Z" fill="#EBEBEB"/>
<path d="M93.1094 76.9933H148.629V72.5433C148.629 71.9533 148.139 71.4633 147.549 71.4633H94.1894C93.5994 71.4633 93.1094 71.9533 93.1094 72.5433V76.9933Z" fill="#11A6EA"/>
<path d="M96.0097 75.4632C96.7397 75.4632 97.3397 74.8732 97.3397 74.1332C97.3397 73.3932 96.7397 72.8132 96.0097 72.8132C95.2797 72.8132 94.6797 73.4032 94.6797 74.1432C94.6797 74.8932 95.2597 75.4632 96.0097 75.4632Z" fill="url(#paint2_linear)"/>
<path d="M143.35 83.6932H98.3898C98.0898 83.6932 97.8398 83.9932 97.8398 84.3732V122.133C97.8398 122.503 98.0898 122.813 98.3898 122.813H143.34C143.64 122.813 143.89 122.513 143.89 122.133V84.3732C143.9 84.0032 143.65 83.6932 143.35 83.6932Z" fill="#11A6EA"/>
<path d="M108.22 94.5332L108.24 102.813L118.62 102.853L118.59 93.0632L108.22 94.5332Z" fill="white"/>
<path d="M108.239 103.793L108.259 112.263L118.579 113.743L118.549 103.893L108.239 103.793Z" fill="white"/>
<path d="M119.63 103.893L119.66 113.813L133.52 115.743L133.49 103.853L119.63 103.893Z" fill="white"/>
<path d="M119.6 92.7932L119.63 102.773L133.49 102.663L133.45 90.7832L119.6 92.7932Z" fill="white"/>
<path d="M47.0898 134.253L49.3998 132.913C49.7798 132.693 50.2698 132.703 50.8098 132.943L48.4998 134.283C47.9598 134.043 47.4698 134.033 47.0898 134.253Z" fill="#727272"/>
<path d="M53.649 133.113L51.339 134.453C50.709 134.823 49.799 134.793 48.499 134.273L50.809 132.933C52.109 133.453 53.019 133.483 53.649 133.113Z" fill="#727272"/>
<path d="M65.3496 144.013L67.6596 142.673C68.2296 143.073 68.7596 143.693 69.1496 144.413C69.5296 145.133 69.7396 145.893 69.7396 146.543L67.4296 147.883C67.4296 147.223 67.2296 146.463 66.8396 145.753C66.4596 145.033 65.9296 144.413 65.3496 144.013Z" fill="#727272"/>
<path d="M61.059 131.833L63.369 130.493C63.349 136.023 63.509 139.533 67.659 142.673L65.349 144.013C61.199 140.873 61.049 137.353 61.059 131.833Z" fill="#727272"/>
<path d="M52.8193 127.073L55.1293 125.733L63.3693 130.493L61.0593 131.833L52.8193 127.073Z" fill="#898989"/>
<path d="M61.0599 131.833C61.0399 137.363 61.1999 140.873 65.3499 144.013C65.9199 144.413 66.4499 145.033 66.8399 145.753C67.2199 146.473 67.4299 147.233 67.4299 147.883L46.4199 135.753C46.4199 135.093 46.6299 134.573 47.0199 134.303C47.4099 134.033 47.9299 134.023 48.5099 134.283C52.6699 135.933 52.8199 132.593 52.8299 127.073L61.0599 131.833Z" fill="url(#paint3_linear)"/>
<path d="M77.8896 110.283L78.9397 109.503L80.1996 108.943C80.9696 109.393 81.5996 110.473 81.5996 111.353L79.2896 112.693C79.2896 111.813 78.6596 110.733 77.8896 110.283Z" fill="url(#paint4_linear)"/>
<path d="M37.6699 87.5434L39.9799 86.1934C40.2299 86.0434 40.5899 86.0634 40.9799 86.2934L38.6699 87.6334C38.2799 87.4134 37.9299 87.3934 37.6699 87.5434Z" fill="#5494D3"/>
<path d="M81.1098 141.073L78.7998 142.413C79.0498 142.263 79.2098 141.963 79.2098 141.523L81.5198 140.183C81.5098 140.613 81.3598 140.923 81.1098 141.073Z" fill="#0072C6"/>
<path d="M79.2794 112.693L81.5894 111.353L81.5095 140.183L79.1895 141.523L79.2794 112.693Z" fill="#0072C6"/>
<path d="M38.6699 87.6433L40.9899 86.3033L80.2099 108.943L77.8899 110.283L38.6699 87.6433Z" fill="url(#paint5_linear)"/>
<path d="M77.8895 110.283C78.6595 110.733 79.2895 111.813 79.2895 112.693L79.2095 141.523C79.2095 142.403 78.5795 142.763 77.8095 142.313L38.5895 119.673C37.8195 119.223 37.1895 118.143 37.1895 117.263L37.2695 88.4333C37.2695 87.5533 37.8995 87.1933 38.6795 87.6433L77.8895 110.283Z" fill="url(#paint6_linear)"/>
<path d="M51.4196 106.173L58.4296 114.903L51.3896 115.493L58.3797 124.233L51.3896 115.493L51.4196 106.173Z" fill="#9CEBFF"/>
<path d="M58.4296 114.903L58.3797 124.233L51.3896 115.493L58.4296 114.903Z" fill="#C3F1FF"/>
<path d="M58.4199 114.893L65.3899 123.563L58.3799 124.213L58.4199 114.893Z" fill="#9CEBFF"/>
<path d="M58.4292 105.543L65.4192 114.253L64.7792 114.313L58.4192 114.903L51.4092 106.163L58.4292 105.543Z" fill="#C3F1FF"/>
<path d="M64.7799 114.313L65.4199 114.253L65.3899 123.573L58.4199 114.913L64.7799 114.313Z" fill="#50E6FF"/>
<defs>
<linearGradient id="paint0_linear" x1="90.4997" y1="10.0637" x2="90.4997" y2="181.464" gradientUnits="userSpaceOnUse">
<stop stop-color="#00ABDE"/>
<stop offset="1" stop-color="#007ED8"/>
</linearGradient>
<linearGradient id="paint1_linear" x1="36.6193" y1="4.85463" x2="203.297" y2="287.186" gradientUnits="userSpaceOnUse">
<stop stop-color="#007ED8"/>
<stop offset="0.7065" stop-color="#002D4C"/>
</linearGradient>
<linearGradient id="paint2_linear" x1="94.6766" y1="74.1411" x2="97.3428" y2="74.1411" gradientUnits="userSpaceOnUse">
<stop stop-color="#76C0FD"/>
<stop offset="1" stop-color="#63B2FB"/>
</linearGradient>
<linearGradient id="paint3_linear" x1="54.2132" y1="153.392" x2="64.067" y2="110.692" gradientUnits="userSpaceOnUse">
<stop offset="0.15" stop-color="#CCCCCC"/>
<stop offset="1" stop-color="#707070"/>
</linearGradient>
<linearGradient id="paint4_linear" x1="79.2661" y1="106.08" x2="80.5695" y2="118.896" gradientUnits="userSpaceOnUse">
<stop stop-color="#0078D4"/>
<stop offset="0.82" stop-color="#5EA0EF"/>
</linearGradient>
<linearGradient id="paint5_linear" x1="46.2116" y1="88.3709" x2="86.6156" y2="118.674" gradientUnits="userSpaceOnUse">
<stop stop-color="#A5CAF6"/>
<stop offset="1" stop-color="#5EA0EF"/>
</linearGradient>
<linearGradient id="paint6_linear" x1="51.141" y1="139.187" x2="61.2138" y2="104.808" gradientUnits="userSpaceOnUse">
<stop stop-color="#0078D4"/>
<stop offset="0.82" stop-color="#5EA0EF"/>
</linearGradient>
</defs>
</svg>
