<svg width="154" height="172" viewBox="0 0 154 172" fill="none" xmlns="http://www.w3.org/2000/svg">
<g filter="url(#filter0_d)">
<path d="M70 6.04145C74.3316 3.54059 79.6684 3.54059 84 6.04145L142.746 39.9585C147.078 42.4594 149.746 47.0812 149.746 52.0829V119.917C149.746 124.919 147.078 129.541 142.746 132.041L84 165.959C79.6684 168.459 74.3316 168.459 70 165.959L11.2539 132.041C6.92225 129.541 4.25387 124.919 4.25387 119.917V52.0829C4.25387 47.0812 6.92225 42.4594 11.2539 39.9585L70 6.04145Z" fill="url(#paint0_linear)"/>
<path d="M84.875 4.52591C80.0019 1.71244 73.9981 1.71244 69.125 4.52591L10.3789 38.443C5.5058 41.2565 2.50387 46.456 2.50387 52.0829V119.917C2.50387 125.544 5.5058 130.744 10.3789 133.557L69.125 167.474C73.9981 170.288 80.0019 170.288 84.875 167.474L143.621 133.557C148.494 130.744 151.496 125.544 151.496 119.917V52.0829C151.496 46.456 148.494 41.2565 143.621 38.443L84.875 4.52591Z" stroke="#F2F1F0" stroke-width="3.5"/>
</g>
<path d="M70.5 7.06218C74.5222 4.73995 79.4778 4.73995 83.5 7.06218L142.112 40.9019C146.134 43.2242 148.612 47.5158 148.612 52.1603V119.84C148.612 124.484 146.134 128.776 142.112 131.098L83.5 164.938C79.4778 167.26 74.5222 167.26 70.5 164.938L11.8878 131.098C7.86563 128.776 5.38784 124.484 5.38784 119.84V52.1603C5.38784 47.5158 7.86563 43.2242 11.8878 40.9019L70.5 7.06218Z" stroke="#0078D4" stroke-width="4"/>
<path d="M120.195 119.708L77.765 144.342L35.0549 119.708L77.4851 95.0737L120.195 119.708Z" fill="#185A97"/>
<path d="M120.195 105.871L77.765 130.545L35.0549 105.871L77.4851 81.2363L120.195 105.871Z" fill="#0078D4"/>
<path d="M120.195 89.6748L77.765 114.309L35.0549 89.6748L77.4851 65.0005L120.195 89.6748Z" fill="#32B0E7"/>
<path d="M120.195 72.1186L77.765 96.7529L35.0549 72.1186L77.4851 47.4443L120.195 72.1186Z" fill="#50E6FF"/>
<path d="M34.7463 62.8218L27.4571 58.5488V124.905L34.7463 129.178" stroke="white" stroke-width="2.58039" stroke-miterlimit="10" stroke-linecap="round" stroke-linejoin="round"/>
<path d="M34.3692 59.9307L38.3908 64.9577L34.3692 65.3347V59.9307Z" fill="white"/>
<path d="M34.3692 126.162L38.3908 131.189L34.3692 131.566V126.162Z" fill="white"/>
<path d="M108.652 97.5799C109.239 96.7 109.695 95.7223 109.923 94.7446L118.657 97.5473C118.071 98.4272 117.614 99.3723 117.354 100.35L108.652 97.5799Z" fill="#185A97"/>
<path d="M102.493 99.4058C102.851 100.09 103.405 100.481 104.122 100.579L95.0949 116.32C94.7364 115.635 94.1498 115.244 93.4003 115.146L102.493 99.4058Z" fill="#185A97"/>
<path d="M82.1896 116.939C82.874 116.092 83.428 115.082 83.819 114.071L89.62 117.298C88.903 118.178 88.2838 119.22 87.8927 120.296L82.1896 116.939Z" fill="#185A97"/>
<path d="M124.458 94.1584C124.328 94.0281 124.197 93.8977 124.034 93.8325L125.794 94.8754C125.957 94.9731 126.088 95.0709 126.218 95.2013C125.696 94.8754 125.012 94.4517 124.458 94.1584Z" fill="#ACD1EF"/>
<path d="M122.829 95.8853L124.588 96.9281C125.012 97.1562 125.273 97.6777 125.273 98.3946C125.273 99.8286 124.262 101.621 122.992 102.371L121.232 101.328C122.503 100.611 123.513 98.8183 123.513 97.3518C123.513 96.6348 123.252 96.1134 122.829 95.8853Z" fill="#0078D7"/>
<path d="M121.329 102.502L119.57 101.459C119.993 101.687 120.58 101.654 121.199 101.296L122.959 102.339C122.34 102.697 121.753 102.73 121.329 102.502Z" fill="#0078D7"/>
<path d="M121.199 96.0483C121.851 95.6898 122.405 95.6573 122.829 95.8854L124.588 96.9282C124.165 96.7001 123.578 96.7327 122.959 97.0912C122.438 96.7653 121.721 96.3416 121.199 96.0483Z" fill="white"/>
<path d="M118.918 99.993C118.918 98.5265 119.928 96.7666 121.199 96.0171L122.959 97.0599C121.688 97.7769 120.678 99.5693 120.678 101.036C120.678 101.753 120.938 102.274 121.362 102.502L119.602 101.46C119.146 101.231 118.918 100.71 118.918 99.993Z" fill="white"/>
<path d="M120.124 104.587L118.364 103.544C117.647 103.12 117.191 102.24 117.191 101.002C117.191 100.448 117.288 99.8614 117.451 99.2422C117.712 98.2645 118.168 97.2868 118.755 96.4395C119.439 95.4292 120.287 94.5819 121.199 94.0605C121.818 93.702 122.405 93.5391 122.926 93.5391C123.35 93.5391 123.708 93.6368 124.034 93.8324L125.794 94.8752C125.468 94.6797 125.11 94.5819 124.686 94.5819C124.165 94.5819 123.578 94.7449 122.959 95.1034C122.046 95.6248 121.199 96.4721 120.515 97.4824C119.928 98.3623 119.472 99.34 119.211 100.285C119.048 100.872 118.95 101.491 118.95 102.045C118.95 103.283 119.407 104.163 120.124 104.587Z" fill="#0078D7"/>
<path d="M126.25 95.1688C126.707 95.6576 127 96.4072 127 97.3849C127 99.8942 125.175 103.055 122.991 104.326C120.808 105.597 118.95 104.555 118.95 102.045C118.95 101.491 119.048 100.905 119.211 100.285C119.472 99.3076 119.928 98.33 120.515 97.4826C121.199 96.4724 122.046 95.625 122.959 95.1036C123.578 94.7451 124.165 94.5822 124.686 94.5822C125.305 94.5496 125.827 94.7777 126.25 95.1688ZM122.991 102.338C124.262 101.621 125.273 99.8291 125.273 98.3625C125.273 96.896 124.23 96.3094 122.959 97.059C121.688 97.7759 120.678 99.5684 120.678 101.035C120.678 102.469 121.721 103.055 122.991 102.338Z" fill="#243A5E"/>
<path d="M122.959 97.0589C124.23 96.342 125.273 96.9286 125.273 98.3625C125.273 99.7964 124.262 101.589 122.991 102.338C121.72 103.055 120.678 102.469 120.678 101.035C120.678 99.5683 121.688 97.8085 122.959 97.0589Z" fill="white"/>
<path d="M108.359 90.6711C108.229 90.5408 108.098 90.4104 107.935 90.3452L109.695 91.3881C109.858 91.4858 109.988 91.5836 110.119 91.714C109.597 91.3881 108.88 90.997 108.359 90.6711Z" fill="#ACD1EF"/>
<path d="M106.697 92.3984L108.457 93.4413C108.88 93.6694 109.141 94.1909 109.141 94.9078C109.141 96.3418 108.131 98.1342 106.86 98.8837L105.1 97.8409C106.371 97.1239 107.381 95.3315 107.381 93.865C107.381 93.148 107.12 92.6592 106.697 92.3984Z" fill="#0078D7"/>
<path d="M105.23 99.0466L103.47 98.0038C103.894 98.2319 104.481 98.1993 105.1 97.8408L106.86 98.8837C106.208 99.2422 105.654 99.2748 105.23 99.0466Z" fill="#0078D7"/>
<path d="M105.067 92.5615C105.719 92.203 106.273 92.1704 106.697 92.3986L108.457 93.4414C108.033 93.2133 107.446 93.2459 106.827 93.6044C106.306 93.2785 105.621 92.8874 105.067 92.5615Z" fill="white"/>
<path d="M102.786 96.5374C102.786 95.0709 103.796 93.3111 105.067 92.5615L106.827 93.6044C105.556 94.3213 104.546 96.1138 104.546 97.5803C104.546 98.2973 104.807 98.8187 105.23 99.0468L103.47 98.0039C103.047 97.7758 102.786 97.2544 102.786 96.5374Z" fill="white"/>
<path d="M104.024 101.1L102.265 100.057C101.548 99.6335 101.091 98.7536 101.091 97.5152C101.091 96.9612 101.189 96.3746 101.352 95.7554C101.613 94.7777 102.069 93.8 102.656 92.9527C103.34 91.9424 104.187 91.0951 105.1 90.5737C105.719 90.2152 106.306 90.0522 106.827 90.0522C107.251 90.0522 107.609 90.15 107.935 90.3456L109.695 91.3884C109.369 91.1929 109.011 91.0951 108.587 91.0951C108.065 91.0951 107.479 91.2581 106.86 91.6165C105.947 92.138 105.1 92.9853 104.415 93.9956C103.829 94.8755 103.373 95.8532 103.112 96.7982C102.949 97.3849 102.851 98.0041 102.851 98.5581C102.819 99.7965 103.275 100.676 104.024 101.1Z" fill="#0078D7"/>
<path d="M110.119 91.7143C110.575 92.2032 110.868 92.9527 110.868 93.9304C110.868 96.4398 109.043 99.6009 106.86 100.872C104.676 102.143 102.819 101.1 102.819 98.5907C102.819 98.0366 102.916 97.45 103.079 96.8308C103.34 95.8532 103.796 94.8755 104.383 94.0282C105.067 93.0179 105.915 92.1706 106.827 91.6491C107.446 91.2906 108.033 91.1277 108.554 91.1277C109.174 91.0625 109.728 91.2906 110.119 91.7143ZM106.86 98.884C108.131 98.167 109.141 96.3746 109.141 94.9081C109.141 93.4415 108.098 92.8549 106.827 93.6045C105.556 94.3215 104.546 96.1139 104.546 97.5804C104.546 99.0143 105.589 99.6009 106.86 98.884Z" fill="#243A5E"/>
<path d="M106.86 93.6053C108.131 92.8883 109.174 93.475 109.174 94.9089C109.174 96.3428 108.163 98.1352 106.892 98.8848C105.621 99.6018 104.578 99.0152 104.578 97.5812C104.546 96.1147 105.589 94.3223 106.86 93.6053Z" fill="white"/>
<path d="M94.8017 114.364C94.6713 114.234 94.541 114.103 94.378 114.038L96.1378 115.081C96.3008 115.179 96.4312 115.276 96.5615 115.407C96.0401 115.081 95.3231 114.657 94.8017 114.364Z" fill="#ACD1EF"/>
<path d="M93.1396 116.09L94.8994 117.133C95.3231 117.361 95.5838 117.883 95.5838 118.6C95.5838 120.034 94.5735 121.826 93.3025 122.576L91.5427 121.533C92.8137 120.816 93.824 119.023 93.824 117.557C93.824 116.84 93.5633 116.318 93.1396 116.09Z" fill="#0078D7"/>
<path d="M91.6731 122.707L89.9132 121.664C90.3369 121.892 90.9235 121.859 91.5427 121.501L93.3025 122.544C92.6507 122.935 92.0967 122.967 91.6731 122.707Z" fill="#0078D7"/>
<path d="M91.5101 116.255C92.1619 115.896 92.716 115.864 93.1396 116.092L94.8994 117.135C94.4758 116.907 93.8892 116.939 93.27 117.298C92.7485 116.972 92.0316 116.548 91.5101 116.255Z" fill="white"/>
<path d="M89.2289 120.23C89.2289 118.764 90.2392 117.004 91.5101 116.254L93.27 117.297C91.999 118.014 90.9887 119.807 90.9887 121.273C90.9887 121.99 91.2494 122.512 91.6731 122.74L89.9133 121.697C89.4896 121.436 89.2289 120.947 89.2289 120.23Z" fill="white"/>
<path d="M90.4672 124.792L88.7074 123.749C87.9904 123.325 87.5341 122.446 87.5341 121.207C87.5341 120.653 87.6319 120.066 87.7949 119.447C88.0556 118.47 88.5118 117.492 89.0984 116.645C89.7828 115.634 90.6301 114.787 91.5426 114.266C92.1618 113.907 92.7485 113.744 93.2699 113.744C93.6935 113.744 94.052 113.842 94.3779 114.037L96.1377 115.08C95.8119 114.885 95.4534 114.787 95.0297 114.787C94.5083 114.787 93.9217 114.95 93.3025 115.308C92.39 115.83 91.5426 116.677 90.8583 117.687C90.2717 118.567 89.8154 119.545 89.5547 120.49C89.3917 121.077 89.294 121.696 89.294 122.25C89.2614 123.488 89.7176 124.368 90.4672 124.792Z" fill="#0078D7"/>
<path d="M96.5615 115.376C97.0177 115.865 97.3111 116.614 97.3111 117.592C97.3111 120.101 95.486 123.262 93.3026 124.533C91.1191 125.804 89.2615 124.762 89.2615 122.252C89.2615 121.698 89.3592 121.112 89.5222 120.492C89.7829 119.515 90.2392 118.537 90.8258 117.69C91.5101 116.679 92.3575 115.832 93.27 115.311C93.8892 114.952 94.4758 114.789 94.9972 114.789C95.6164 114.757 96.1704 114.985 96.5615 115.376ZM93.3026 122.545C94.5735 121.829 95.5838 120.036 95.5838 118.57C95.5838 117.103 94.541 116.516 93.27 117.266C91.999 117.983 90.9887 119.775 90.9887 121.242C90.9887 122.708 92.0316 123.295 93.3026 122.545Z" fill="#243A5E"/>
<path d="M93.2699 117.264C94.5409 116.548 95.5837 117.134 95.5837 118.568C95.5837 120.002 94.5735 121.794 93.3025 122.544C92.0315 123.261 90.9886 122.674 90.9886 121.24C90.9886 119.806 92.0315 118.014 93.2699 117.264Z" fill="white"/>
<path d="M82.6784 108.987C82.548 108.856 82.4176 108.726 82.2547 108.661L84.0145 109.704C84.1775 109.801 84.3078 109.899 84.4382 110.029C83.9168 109.704 83.1998 109.28 82.6784 108.987Z" fill="#ACD1EF"/>
<path d="M81.0164 110.714L82.7762 111.757C83.1999 111.985 83.4606 112.506 83.4606 113.223C83.4606 114.657 82.4503 116.45 81.1793 117.199L79.4195 116.156C80.6905 115.439 81.7008 113.647 81.7008 112.18C81.7008 111.463 81.44 110.942 81.0164 110.714Z" fill="#0078D7"/>
<path d="M79.5499 117.33L77.79 116.287C78.2137 116.515 78.8003 116.483 79.4195 116.124L81.1793 117.167C80.5275 117.525 79.9735 117.558 79.5499 117.33Z" fill="#0078D7"/>
<path d="M79.3868 110.876C80.0386 110.518 80.5926 110.485 81.0163 110.714L82.7761 111.756C82.3524 111.528 81.7658 111.561 81.1466 111.919C80.6252 111.593 79.9082 111.17 79.3868 110.876Z" fill="white"/>
<path d="M77.1056 114.821C77.1056 113.355 78.1159 111.595 79.3869 110.845L81.1467 111.888C79.8757 112.605 78.8655 114.397 78.8655 115.864C78.8655 116.581 79.1262 117.102 79.5498 117.33L77.79 116.288C77.3664 116.06 77.1056 115.538 77.1056 114.821Z" fill="white"/>
<path d="M78.344 119.416L76.5842 118.373C75.8672 117.949 75.411 117.07 75.411 115.831C75.411 115.277 75.5087 114.691 75.6717 114.071C75.9324 113.094 76.3887 112.116 76.9753 111.269C77.6596 110.258 78.507 109.411 79.4195 108.89C80.0387 108.531 80.6253 108.368 81.1467 108.368C81.5704 108.368 81.9289 108.466 82.2548 108.661L84.0146 109.704C83.6887 109.509 83.3302 109.411 82.9065 109.411C82.3851 109.411 81.7985 109.574 81.1793 109.932C80.2668 110.454 79.4195 111.301 78.7351 112.311C78.1485 113.191 77.6922 114.169 77.4315 115.114C77.2686 115.701 77.1708 116.32 77.1708 116.874C77.1382 118.112 77.5945 118.992 78.344 119.416Z" fill="#0078D7"/>
<path d="M84.4382 109.997C84.8944 110.486 85.1877 111.236 85.1877 112.213C85.1877 114.723 83.3627 117.884 81.1793 119.155C78.9958 120.426 77.1382 119.383 77.1382 116.874C77.1382 116.32 77.2359 115.733 77.3989 115.114C77.6596 114.136 78.1158 113.159 78.7025 112.311C79.3868 111.301 80.2342 110.454 81.1467 109.932C81.7659 109.574 82.3525 109.411 82.8739 109.411C83.4931 109.378 84.0471 109.606 84.4382 109.997ZM81.1793 117.167C82.4502 116.45 83.4605 114.658 83.4605 113.191C83.4605 111.725 82.4176 111.138 81.1467 111.888C79.8757 112.605 78.8654 114.397 78.8654 115.863C78.8654 117.297 79.9083 117.917 81.1793 117.167Z" fill="#243A5E"/>
<path d="M81.1467 111.887C82.4177 111.17 83.4606 111.756 83.4606 113.19C83.4606 114.624 82.4503 116.416 81.1793 117.166C79.9083 117.883 78.8655 117.296 78.8655 115.862C78.8655 114.396 79.9083 112.636 81.1467 111.887Z" fill="white"/>
<path d="M73.9792 77.6253L76.7553 76.0063L76.7436 81.0151L73.9616 82.6281L73.9792 77.6253Z" fill="#175A98"/>
<path d="M67.486 71.4362L70.2621 69.8231L73.383 68.0464L70.6011 69.6595L67.486 71.4362Z" fill="#2E76BC"/>
<path d="M73.9792 67.7361L76.7611 66.1172L76.7495 70.7226L73.9675 72.3357L73.9792 67.7361Z" fill="#2E76BC"/>
<path d="M70.601 69.6589L73.383 68.0459L76.7611 66.1172L73.9792 67.7361L70.601 69.6589Z" fill="#2E76BC"/>
<path d="M59.0465 32.2078L61.8285 30.5889L61.8168 34.6449L59.0348 36.258L59.0465 32.2078Z" fill="#35AFE4"/>
<path d="M53.7631 27.1228L56.5451 25.5098L60.0693 27.5436L57.2873 29.1626L53.7631 27.1228Z" fill="#96D8EC"/>
<path d="M85.709 71.5935L82.9271 73.2124C82.3309 73.5572 81.6705 73.8027 80.9633 73.9371C79.8529 74.1534 78.6431 74.0891 77.3748 73.7676C76.2702 73.4871 75.1247 73.0137 73.9733 72.3416L76.7553 70.7227C77.9125 71.3889 79.058 71.8682 80.1568 72.1487C81.425 72.4702 82.6407 72.5286 83.7453 72.3182C84.4525 72.1838 85.1071 71.9383 85.709 71.5935Z" fill="#2F94D1"/>
<path d="M65.119 42.5462L67.9009 40.9272C66.7554 41.5935 65.8378 42.6397 65.2066 44.0131C64.2423 46.1055 63.9793 48.864 64.4527 51.9382C64.9319 55.03 66.1184 58.2912 67.8659 61.3245L65.0839 62.9434C63.3364 59.916 62.15 56.6489 61.6707 53.5572C61.1973 50.483 61.4603 47.7244 62.4246 45.6321C63.0559 44.2528 63.9734 43.2124 65.119 42.5462Z" fill="#175A98"/>
<path d="M77.4099 59.49L80.1919 57.8711L80.1509 72.1491L77.369 73.7622L77.4099 59.49Z" fill="#35AFE4"/>
<path d="M59.0524 30.1795L61.8343 28.5605L65.3702 30.6061L62.5883 32.2192L59.0524 30.1795Z" fill="#96D8EC"/>
<path d="M62.5883 32.2195L65.3703 30.6064L65.3644 32.6286L62.5824 34.2476L62.5883 32.2195Z" fill="#35AFE4"/>
<path d="M57.299 25.1009L60.081 23.4819L61.846 24.4989L59.0641 26.1178L57.299 25.1009Z" fill="#96D8EC"/>
<path d="M59.0641 26.1179L61.846 24.499L61.8343 28.5609L59.0524 30.1799L59.0641 26.1179Z" fill="#35AFE4"/>
<path d="M59.064 26.1185L59.0524 30.1804L62.5883 32.2201L62.5824 34.2482L59.0465 32.2084L59.0348 36.2587L57.2756 35.2417L57.2873 31.1857L53.7573 29.1518L53.7631 27.1238L57.2873 29.1635L57.299 25.1016L59.064 26.1185Z" fill="white"/>
<path d="M66.3814 53.1251L69.1633 51.5062L76.8722 47.2397L74.0902 48.8528L66.3814 53.1251Z" fill="#75CFEB"/>
<path d="M74.0902 48.8528L76.8722 47.2397L84.5401 60.384L81.7582 62.0029L74.0902 48.8528Z" fill="#35AFE4"/>
<path d="M74.0902 48.8525L81.7582 61.9968L77.4099 59.4836L77.369 73.7617C76.2644 73.4812 75.1189 73.0078 73.9675 72.3356L73.9792 67.7302L70.6011 69.653L70.642 55.5737L66.3814 53.1132L74.0902 48.8525Z" fill="white"/>
<path d="M75.2474 33.3816L78.0294 31.7627L78.0118 37.2565L75.2299 38.8696L75.2474 33.3816Z" fill="#2E76BC"/>
<path d="M61.8811 36.9827L64.6631 35.3637C65.4754 34.8903 66.3696 34.563 67.3398 34.376C70.1569 33.8383 73.4824 34.5981 76.8722 36.556C77.2521 36.7723 77.6378 37.006 78.0118 37.2515L75.2299 38.8704C74.85 38.625 74.4642 38.3912 74.0902 38.1749C70.6946 36.217 67.3749 35.4573 64.5579 35.9949C63.5877 36.1761 62.6935 36.5093 61.8811 36.9827Z" fill="#2E76BC"/>
<path d="M75.2474 33.3816L78.0294 31.7627L84.47 42.9373L81.6939 44.5504L75.2474 33.3816Z" fill="#2F94D1"/>
<path d="M75.2474 33.3823L81.6939 44.5511L75.2065 48.2507L75.2182 44.1479C74.8383 43.879 74.4526 43.6394 74.0785 43.4231C71.5946 41.9854 69.1575 41.4302 67.0827 41.8217C65.0021 42.2192 63.3831 43.5459 62.4305 45.6323C61.4662 47.7247 61.2032 50.4833 61.6766 53.5575C62.1558 56.6492 63.3422 59.9104 65.0897 62.9437L61.846 64.7905C59.4615 60.6468 57.8426 56.1933 57.1997 51.997C56.5568 47.7948 56.9016 44.0368 58.2166 41.1847C59.5316 38.3326 61.735 36.5267 64.5637 35.9948C67.3808 35.4571 70.7063 36.2169 74.0961 38.1748C74.476 38.391 74.8617 38.6248 75.2357 38.8703L75.2474 33.3823Z" fill="#2E76BC"/>
<path d="M88.9352 77.1867L86.1532 78.8056C87.7254 77.8939 88.9819 76.4562 89.8469 74.5684C91.1561 71.7104 91.5068 67.9408 90.8522 63.7327C90.1917 59.513 88.5611 55.0654 86.1707 50.9158L88.9527 49.2969C91.349 53.4406 92.9737 57.8941 93.6341 62.108C94.2887 66.3101 93.9381 70.0857 92.6289 72.9436C91.7698 74.8431 90.5073 76.275 88.9352 77.1867Z" fill="#2F94D1"/>
<path d="M86.1708 50.9219C88.567 55.0656 90.1918 59.5191 90.8522 63.7388C91.5068 67.941 91.1561 71.7165 89.8469 74.5745C88.5436 77.4266 86.3344 79.2442 83.5174 79.7936C80.6886 80.3371 77.369 79.5773 73.9733 77.6311L73.9616 82.6398L67.486 71.436L70.6011 69.6593L73.9792 67.7364L73.9675 72.3419C75.1247 73.0082 76.2702 73.4874 77.369 73.7679C78.6372 74.0894 79.8529 74.1478 80.9575 73.9374C83.0264 73.5458 84.657 72.225 85.6097 70.1268C86.5682 68.0287 86.8253 65.2701 86.3461 62.1842C85.8727 59.11 84.6804 55.8371 82.9212 52.7921L86.1708 50.9219Z" fill="#2E76BC"/>
<path d="M82.9271 52.786L85.709 51.173L88.9527 49.3027L86.1707 50.9217L82.9271 52.786Z" fill="#2E76BC"/>
<defs>
<filter id="filter0_d" x="0.753868" y="0.666016" width="152.992" height="171.168" filterUnits="userSpaceOnUse" color-interpolation-filters="sRGB">
<feFlood flood-opacity="0" result="BackgroundImageFix"/>
<feColorMatrix in="SourceAlpha" type="matrix" values="0 0 0 0 0 0 0 0 0 0 0 0 0 0 0 0 0 0 127 0"/>
<feOffset dx="0.5" dy="0.5"/>
<feColorMatrix type="matrix" values="0 0 0 0 0.823529 0 0 0 0 0.831373 0 0 0 0 0.835294 0 0 0 1 0"/>
<feBlend mode="normal" in2="BackgroundImageFix" result="effect1_dropShadow"/>
<feBlend mode="normal" in="SourceGraphic" in2="effect1_dropShadow" result="shape"/>
</filter>
<linearGradient id="paint0_linear" x1="77" y1="2.00252" x2="77" y2="170.003" gradientUnits="userSpaceOnUse">
<stop stop-color="#00ABDE"/>
<stop offset="1" stop-color="#007ED8"/>
</linearGradient>
</defs>
</svg>
