<svg width="100" height="100" viewBox="0 0 100 100" fill="none" xmlns="http://www.w3.org/2000/svg">
<g clip-path="url(#clip0_364_7362)">
<path d="M49.6401 96.4499C40.382 96.4499 31.3317 93.7045 23.6339 88.561C15.936 83.4174 9.93624 76.1067 6.3933 67.5533C2.85036 58.9999 1.92337 49.588 3.72954 40.5077C5.53571 31.4275 9.99394 23.0867 16.5404 16.5402C23.0869 9.99372 31.4277 5.5355 40.5079 3.72933C49.5882 1.92315 59.0001 2.85015 67.5535 6.39308C76.1069 9.93602 83.4176 15.9358 88.5612 23.6336C93.7047 31.3315 96.4501 40.3817 96.4501 49.6399C96.4505 55.7872 95.24 61.8744 92.8878 67.5538C90.5355 73.2332 87.0875 78.3937 82.7407 82.7405C78.3939 87.0873 73.2335 90.5353 67.554 92.8876C61.8746 95.2398 55.7874 96.4503 49.6401 96.4499V96.4499Z" fill="url(#paint0_linear_364_7362)"/>
<path fill-rule="evenodd" clip-rule="evenodd" d="M95.54 49.6399C95.54 58.718 92.848 67.5923 87.8045 75.1406C82.7609 82.6888 75.5923 88.5719 67.2052 92.046C58.818 95.52 49.5891 96.429 40.6854 94.6579C31.7816 92.8869 23.603 88.5153 17.1838 82.0961C10.7646 75.6769 6.39302 67.4983 4.62196 58.5945C2.85089 49.6908 3.75987 40.4618 7.23393 32.0747C10.708 23.6876 16.5911 16.519 24.1393 11.4754C31.6875 6.43187 40.5618 3.73988 49.64 3.73988C55.6677 3.73986 61.6363 4.92708 67.2052 7.23377C72.774 9.54045 77.834 12.9214 82.0963 17.1836C86.3585 21.4458 89.7394 26.5058 92.0461 32.0747C94.3528 37.6435 95.54 43.6122 95.54 49.6399V49.6399ZM49.64 -0.000106449C59.4579 -0.000106449 69.0552 2.91123 77.2185 8.36574C85.3818 13.8203 91.7442 21.573 95.5014 30.6435C99.2585 39.714 100.242 49.695 98.3262 59.3242C96.4108 68.9534 91.6831 77.7984 84.7408 84.7407C77.7985 91.683 68.9535 96.4107 59.3243 98.3261C49.6951 100.241 39.7141 99.2584 30.6436 95.5013C21.5731 91.7441 13.8204 85.3816 8.36584 77.2184C2.91133 69.0551 -1.61629e-06 59.4577 3.61524e-07 49.6399C-0.000786426 43.1208 1.28265 36.6655 3.77702 30.6425C6.27138 24.6196 9.92781 19.147 14.5375 14.5374C19.1471 9.9277 24.6197 6.27127 30.6427 3.77691C36.6656 1.28254 43.121 -0.000894549 49.64 -0.000106449V-0.000106449Z" fill="#F2F1F0"/>
<path fill-rule="evenodd" clip-rule="evenodd" d="M92.7296 49.64C92.7296 58.1624 90.2024 66.4934 85.4676 73.5795C80.7328 80.6656 74.0031 86.1886 66.1294 89.45C58.2557 92.7113 49.5918 93.5647 41.2331 91.902C32.8745 90.2394 25.1966 86.1355 19.1703 80.1092C13.1441 74.083 9.04017 66.4051 7.37753 58.0464C5.7149 49.6878 6.56822 41.0238 9.8296 33.1502C13.091 25.2765 18.6139 18.5468 25.7 13.812C32.7862 9.07718 41.1172 6.55 49.6396 6.55C55.2983 6.54965 60.9017 7.66397 66.1298 9.82933C71.3579 11.9947 76.1082 15.1687 80.1096 19.17C84.1109 23.1713 87.2849 27.9217 89.4502 33.1498C91.6156 38.3778 92.7299 43.9812 92.7296 49.64ZM49.6396 2.81C58.9017 2.81 67.9558 5.55653 75.6569 10.7023C83.3581 15.848 89.3604 23.1619 92.9049 31.7189C96.4493 40.276 97.3767 49.6919 95.5697 58.7761C93.7628 67.8602 89.3027 76.2045 82.7534 82.7538C76.2041 89.3031 67.8598 93.7632 58.7757 95.5702C49.6915 97.3771 40.2756 96.4497 31.7185 92.9053C23.1614 89.3608 15.8476 83.3585 10.7018 75.6574C5.5561 67.9562 2.80957 58.9021 2.80957 49.64C2.81076 37.2203 7.74501 25.3096 16.5271 16.5275C25.3091 7.74544 37.2198 2.81119 49.6396 2.81V2.81Z" fill="#0078D4"/>
<path fill-rule="evenodd" clip-rule="evenodd" d="M92.7296 49.6399C92.7296 58.1623 90.2024 66.4933 85.4676 73.5794C80.7328 80.6655 74.0031 86.1885 66.1294 89.4499C58.2557 92.7112 49.5918 93.5646 41.2331 91.9019C32.8745 90.2393 25.1966 86.1354 19.1703 80.1091C13.1441 74.0829 9.04017 66.405 7.37753 58.0463C5.7149 49.6877 6.56822 41.0237 9.8296 33.1501C13.091 25.2764 18.6139 18.5467 25.7001 13.8119C32.7862 9.07708 41.1172 6.5499 49.6396 6.5499C55.2983 6.54956 60.9017 7.66388 66.1298 9.82923C71.3579 11.9946 76.1082 15.1686 80.1096 19.1699C84.1109 23.1712 87.2849 27.9216 89.4502 33.1497C91.6156 38.3777 92.7299 43.9811 92.7296 49.6399V49.6399ZM49.6396 2.8099C58.9017 2.8099 67.9558 5.55643 75.6569 10.7022C83.3581 15.8479 89.3604 23.1618 92.9048 31.7188C96.4493 40.2759 97.3767 49.6918 95.5697 58.776C93.7628 67.8601 89.3027 76.2044 82.7534 82.7537C76.2041 89.303 67.8598 93.7631 58.7757 95.5701C49.6915 97.377 40.2756 96.4496 31.7185 92.9052C23.1614 89.3607 15.8476 83.3584 10.7018 75.6573C5.5561 67.9561 2.80957 58.902 2.80957 49.6399C2.81075 37.2202 7.74499 25.3095 16.5271 16.5274C25.3091 7.7453 37.2198 2.81105 49.6396 2.80986V2.8099Z" fill="#0078D4"/>
<path d="M74.0859 23.4927H31.4814C29.7361 23.4927 28.3213 24.9076 28.3213 26.6529V66.0381C28.3213 67.7834 29.7361 69.1983 31.4814 69.1983H74.0859C75.8312 69.1983 77.2461 67.7834 77.2461 66.0381V26.6529C77.2461 24.9076 75.8312 23.4927 74.0859 23.4927Z" fill="#00244D"/>
<path d="M70.9416 26.637H28.3372C26.5919 26.637 25.177 28.0519 25.177 29.7972V69.1824C25.177 70.9277 26.5919 72.3426 28.3372 72.3426H70.9416C72.687 72.3426 74.1018 70.9277 74.1018 69.1824V29.7972C74.1018 28.0519 72.687 26.637 70.9416 26.637Z" fill="#003067"/>
<path d="M67.7974 29.7813H25.1929C23.4476 29.7813 22.0327 31.1961 22.0327 32.9415V72.3267C22.0327 74.072 23.4476 75.4869 25.1929 75.4869H67.7974C69.5427 75.4869 70.9575 74.072 70.9575 72.3267V32.9415C70.9575 31.1961 69.5427 29.7813 67.7974 29.7813Z" fill="url(#paint1_linear_364_7362)"/>
<path d="M67.7972 44.3837H25.1928C25.0405 44.3837 24.8896 44.3537 24.7489 44.2954C24.6081 44.2371 24.4802 44.1517 24.3725 44.0439C24.2648 43.9362 24.1793 43.8083 24.121 43.6676C24.0627 43.5268 24.0327 43.376 24.0327 43.2236V32.9415C24.0327 32.7891 24.0627 32.6383 24.121 32.4975C24.1793 32.3568 24.2648 32.2289 24.3725 32.1212C24.4802 32.0134 24.6081 31.928 24.7489 31.8697C24.8896 31.8114 25.0405 31.7814 25.1928 31.7814H67.7972C68.1049 31.7814 68.4 31.9036 68.6175 32.1212C68.8351 32.3387 68.9573 32.6338 68.9573 32.9415V43.2236C68.9573 43.5313 68.8351 43.8264 68.6175 44.0439C68.4 44.2615 68.1049 44.3837 67.7972 44.3837ZM68.9573 57.7751V47.493C68.9573 47.3407 68.9273 47.1898 68.869 47.049C68.8107 46.9083 68.7253 46.7804 68.6175 46.6727C68.5098 46.5649 68.3819 46.4795 68.2412 46.4212C68.1004 46.3629 67.9496 46.3329 67.7972 46.3329H25.1928C24.8852 46.3329 24.5901 46.4551 24.3725 46.6727C24.1549 46.8902 24.0327 47.1853 24.0327 47.493V57.7751C24.0327 58.0828 24.1549 58.3779 24.3725 58.5955C24.5901 58.813 24.8852 58.9353 25.1928 58.9353H67.7972C67.9496 58.9353 68.1004 58.9052 68.2412 58.8469C68.3819 58.7886 68.5098 58.7032 68.6175 58.5955C68.7253 58.4877 68.8107 58.3598 68.869 58.2191C68.9273 58.0783 68.9573 57.9275 68.9573 57.7751V57.7751ZM68.9573 72.3267V62.0445C68.9573 61.7368 68.8351 61.4418 68.6175 61.2242C68.4 61.0066 68.1049 60.8844 67.7972 60.8844H25.1928C25.0405 60.8844 24.8896 60.9144 24.7489 60.9727C24.6081 61.031 24.4802 61.1165 24.3725 61.2242C24.2648 61.3319 24.1793 61.4598 24.121 61.6006C24.0627 61.7413 24.0327 61.8922 24.0327 62.0445V72.3267C24.0327 72.479 24.0627 72.6299 24.121 72.7706C24.1793 72.9114 24.2648 73.0393 24.3725 73.147C24.4802 73.2547 24.6081 73.3402 24.7489 73.3985C24.8896 73.4568 25.0405 73.4868 25.1928 73.4868H67.7972C68.1049 73.4868 68.4 73.3645 68.6175 73.147C68.8351 72.9294 68.9573 72.6343 68.9573 72.3267Z" fill="url(#paint2_linear_364_7362)"/>
<path d="M29.9337 40.6604C31.3575 40.6604 32.5117 39.5062 32.5117 38.0824C32.5117 36.6586 31.3575 35.5044 29.9337 35.5044C28.5099 35.5044 27.3557 36.6586 27.3557 38.0824C27.3557 39.5062 28.5099 40.6604 29.9337 40.6604Z" fill="#50E6FF"/>
<path d="M29.9337 55.212C31.3575 55.212 32.5117 54.0578 32.5117 52.634C32.5117 51.2102 31.3575 50.056 29.9337 50.056C28.5099 50.056 27.3557 51.2102 27.3557 52.634C27.3557 54.0578 28.5099 55.212 29.9337 55.212Z" fill="#1B93EB"/>
<path d="M29.9337 69.7635C31.3575 69.7635 32.5117 68.6093 32.5117 67.1855C32.5117 65.7617 31.3575 64.6075 29.9337 64.6075C28.5099 64.6075 27.3557 65.7617 27.3557 67.1855C27.3557 68.6093 28.5099 69.7635 29.9337 69.7635Z" fill="#0078D4"/>
<path d="M37.5281 38.0824H62.0766" stroke="#50E6FF" stroke-width="1.70517" stroke-miterlimit="10" stroke-linecap="round"/>
<path d="M37.5281 52.6676H62.0766" stroke="#1B93EB" stroke-width="1.70517" stroke-miterlimit="10" stroke-linecap="round"/>
<path d="M37.5281 67.1855H62.0766" stroke="#0078D4" stroke-width="1.70517" stroke-miterlimit="10" stroke-linecap="round"/>
<path opacity="0.2" fill-rule="evenodd" clip-rule="evenodd" d="M37.7612 29.7813C37.9585 31.8934 38.9371 33.8557 40.5052 35.2842C42.0734 36.7127 44.1183 37.5044 46.2395 37.5044C48.3607 37.5044 50.4056 36.7127 51.9738 35.2842C53.5419 33.8557 54.5205 31.8934 54.7178 29.7813H37.7612Z" fill="#003067"/>
<path fill-rule="evenodd" clip-rule="evenodd" d="M46.2654 35.5046C44.9762 35.5046 43.7159 35.1223 42.6439 34.406C41.5719 33.6898 40.7364 32.6717 40.243 31.4806C39.7497 30.2895 39.6206 28.9788 39.8721 27.7144C40.1236 26.4499 40.7444 25.2884 41.6561 24.3768C42.5677 23.4651 43.7292 22.8443 44.9937 22.5928C46.2581 22.3413 47.5688 22.4704 48.7599 22.9637C49.951 23.4571 50.969 24.2926 51.6853 25.3646C52.4016 26.4366 52.7839 27.6969 52.7838 28.9861C52.7838 30.7149 52.097 32.3729 50.8746 33.5953C49.6522 34.8177 47.9942 35.5045 46.2654 35.5046V35.5046Z" fill="white"/>
<path fill-rule="evenodd" clip-rule="evenodd" d="M49.2599 27.178C49.1069 27.0252 48.8996 26.9393 48.6834 26.9393C48.4672 26.9393 48.2598 27.0252 48.1069 27.178L45.4192 29.8637L44.4484 28.9022C44.4257 28.8685 44.4001 28.8369 44.3718 28.8077C44.2199 28.6555 44.014 28.5695 43.799 28.5685C43.5839 28.5674 43.3772 28.6515 43.2239 28.8023C43.0706 28.9531 42.9831 29.1583 42.9805 29.3734C42.978 29.5884 43.0605 29.7957 43.2102 29.9501L43.2004 29.9599L44.8451 31.5896C44.9982 31.7424 45.2056 31.8282 45.4219 31.8282C45.6381 31.8282 45.8455 31.7424 45.9986 31.5896L49.2575 28.3321L49.2599 28.3301C49.3356 28.2545 49.3957 28.1647 49.4366 28.0659C49.4776 27.967 49.4987 27.8611 49.4987 27.7541C49.4987 27.6471 49.4776 27.5411 49.4366 27.4423C49.3956 27.3434 49.3356 27.2536 49.2599 27.178V27.178Z" fill="#0078D4"/>
<path fill-rule="evenodd" clip-rule="evenodd" d="M46.2654 35.5046C44.9762 35.5046 43.7159 35.1223 42.6439 34.406C41.5719 33.6898 40.7364 32.6717 40.243 31.4806C39.7497 30.2895 39.6206 28.9788 39.8721 27.7144C40.1236 26.4499 40.7444 25.2884 41.6561 24.3768C42.5677 23.4651 43.7292 22.8443 44.9937 22.5928C46.2581 22.3413 47.5688 22.4704 48.7599 22.9637C49.951 23.4571 50.969 24.2926 51.6853 25.3646C52.4016 26.4366 52.7839 27.6969 52.7838 28.9861C52.7838 30.7149 52.097 32.3729 50.8746 33.5953C49.6522 34.8177 47.9942 35.5045 46.2654 35.5046V35.5046Z" fill="white"/>
<path fill-rule="evenodd" clip-rule="evenodd" d="M49.2599 27.178C49.1069 27.0252 48.8996 26.9393 48.6834 26.9393C48.4672 26.9393 48.2598 27.0252 48.1069 27.178L45.4192 29.8637L44.4484 28.9022C44.4257 28.8685 44.4001 28.8369 44.3718 28.8077C44.2199 28.6555 44.014 28.5695 43.799 28.5685C43.5839 28.5674 43.3772 28.6515 43.2239 28.8023C43.0706 28.9531 42.9831 29.1583 42.9805 29.3734C42.978 29.5884 43.0605 29.7957 43.2102 29.9501L43.2004 29.9599L44.8451 31.5896C44.9982 31.7424 45.2056 31.8282 45.4219 31.8282C45.6381 31.8282 45.8455 31.7424 45.9986 31.5896L49.2575 28.3321L49.2599 28.3301C49.3356 28.2545 49.3957 28.1647 49.4366 28.0659C49.4776 27.967 49.4987 27.8611 49.4987 27.7541C49.4987 27.6471 49.4776 27.5411 49.4366 27.4423C49.3956 27.3434 49.3356 27.2536 49.2599 27.178V27.178Z" fill="#0078D4"/>
</g>
<defs>
<linearGradient id="paint0_linear_364_7362" x1="47.8698" y1="-15.1532" x2="51.8525" y2="130.615" gradientUnits="userSpaceOnUse">
<stop stop-color="#00ABDE"/>
<stop offset="1" stop-color="#007ED8"/>
</linearGradient>
<linearGradient id="paint1_linear_364_7362" x1="46.4951" y1="75.4869" x2="46.4951" y2="29.6994" gradientUnits="userSpaceOnUse">
<stop stop-color="#003067"/>
<stop offset="0.2" stop-color="#003F7C"/>
<stop offset="0.47" stop-color="#004F90"/>
<stop offset="0.74" stop-color="#00589D"/>
<stop offset="1" stop-color="#005BA1"/>
</linearGradient>
<linearGradient id="paint2_linear_364_7362" x1="46.495" y1="73.4868" x2="46.495" y2="31.7814" gradientUnits="userSpaceOnUse">
<stop stop-color="#004DAE"/>
<stop offset="0.21" stop-color="#0061C4"/>
<stop offset="0.51" stop-color="#0078DD"/>
<stop offset="0.78" stop-color="#0086EC"/>
<stop offset="1" stop-color="#008BF1"/>
</linearGradient>
<clipPath id="clip0_364_7362">
<rect width="99.2799" height="99.28" fill="white"/>
</clipPath>
</defs>
</svg>
