<svg width="103" height="103" viewBox="0 0 103 103" fill="none" xmlns="http://www.w3.org/2000/svg">
<path d="M51.3442 98.4052C25.4942 98.4052 4.53418 77.4552 4.53418 51.5952C4.53418 25.7352 25.4942 4.78516 51.3442 4.78516C77.1942 4.78516 98.1542 25.7452 98.1542 51.5952C98.1542 77.4452 77.1942 98.4052 51.3442 98.4052Z" fill="url(#paint0_linear)"/>
<path fill-rule="evenodd" clip-rule="evenodd" d="M97.2443 51.5951C97.2443 76.9451 76.6943 97.4951 51.3443 97.4951C25.9943 97.4951 5.44435 76.9451 5.44435 51.5951C5.44435 26.2451 25.9943 5.69508 51.3443 5.69508C76.6943 5.69508 97.2443 26.2451 97.2443 51.5951ZM51.3443 1.95508C78.7643 1.95508 100.984 24.1751 100.984 51.5951C100.984 79.0151 78.7543 101.235 51.3443 101.235C23.9243 101.235 1.70435 79.0051 1.70435 51.5951C1.70435 24.1751 23.9243 1.95508 51.3443 1.95508Z" fill="#F2F1F0"/>
<path fill-rule="evenodd" clip-rule="evenodd" d="M94.4342 51.5951C94.4342 75.3951 75.1442 94.6851 51.3442 94.6851C27.5442 94.6851 8.25416 75.3951 8.25416 51.5951C8.25416 27.7951 27.5442 8.50514 51.3442 8.50514C75.1442 8.50514 94.4342 27.7951 94.4342 51.5951ZM51.3442 4.76514C77.2042 4.76514 98.1742 25.7351 98.1742 51.5951C98.1742 77.4551 77.2042 98.4251 51.3442 98.4251C25.4842 98.4251 4.51416 77.4551 4.51416 51.5951C4.51416 25.7351 25.4742 4.76514 51.3442 4.76514Z" fill="url(#paint1_linear)"/>
<path opacity="0.15" d="M65.1443 86.335L25.1743 81.515L34.1543 76.415L76.7643 80.195L65.1443 86.335Z" fill="#1F1D20"/>
<path d="M40.6843 44.3651L38.3943 44.2051L39.4643 29.1451C39.9643 22.0951 45.8943 16.5351 52.9643 16.4951C52.9943 16.4951 53.0143 16.4951 53.0443 16.4951C60.3943 16.4951 66.4943 22.4551 66.6543 29.8151L66.9643 44.0051L64.6643 44.0551L64.3543 29.8651C64.2243 23.7451 59.1543 18.7951 53.0443 18.7951C53.0243 18.7951 53.0043 18.7951 52.9843 18.7951C47.1043 18.8251 42.1743 23.4451 41.7643 29.3051L40.6843 44.3651Z" fill="#767778"/>
<path d="M58.7944 44.8851L58.4144 29.1951C58.2744 23.3751 53.7844 18.6851 47.9744 18.2851C44.9444 18.0751 42.0444 19.0751 39.7744 21.0751C37.5144 23.0851 36.1744 25.8551 36.0144 28.8751L35.2644 43.1351L32.9644 43.0151L33.7144 28.7551C33.9044 25.1151 35.5144 21.7751 38.2444 19.3551C40.9744 16.9351 44.4744 15.7351 48.1244 15.9851C55.1244 16.4651 60.5344 22.1151 60.7044 29.1351L61.0844 44.8251L58.7944 44.8851Z" fill="#4C4C4C"/>
<path fill-rule="evenodd" clip-rule="evenodd" d="M65.1442 83.875L25.0842 79.345L26.9742 35.125H65.1442V83.875Z" fill="url(#paint2_linear)"/>
<path fill-rule="evenodd" clip-rule="evenodd" d="M65.1443 83.875L76.4843 78.585L74.5943 35.125H65.1443V83.875Z" fill="url(#paint3_linear)"/>
<path opacity="0.15" d="M61.4942 61.1654C61.5142 61.0854 61.5242 61.0254 61.5542 60.9554C61.6742 60.5254 61.7342 60.0654 61.7642 59.6054C61.9842 55.5854 58.9142 52.1654 54.9142 51.9454C54.3542 51.9154 53.8042 51.9454 53.2742 52.0354C51.7642 49.3254 48.9442 47.4254 45.6242 47.2454C40.4642 46.9554 36.0542 50.9154 35.7642 56.0654C35.7542 56.1954 35.7542 56.3154 35.7442 56.4454C35.2942 56.2654 34.7942 56.1454 34.2642 56.1154C31.7242 55.9754 29.5442 57.9254 29.4042 60.4654C29.2742 62.8554 30.9742 64.9154 33.2842 65.2754L54.0842 66.4754C56.8242 66.6254 59.2742 65.2554 60.6442 63.1054C60.6842 63.0454 60.7142 62.9854 60.7642 62.9154C60.9642 62.5154 61.2742 61.9354 61.4942 61.1654Z" fill="#1F1D20"/>
<path d="M61.4942 60.3153C61.5142 60.2353 61.5242 60.1753 61.5542 60.1053C61.6742 59.6753 61.7342 59.2153 61.7642 58.7553C61.9842 54.7353 58.9142 51.3153 54.9142 51.0953C54.3542 51.0653 53.8042 51.0953 53.2742 51.1853C51.7642 48.4753 48.9442 46.5753 45.6242 46.3953C40.4642 46.1053 36.0542 50.0653 35.7642 55.2153C35.7542 55.3453 35.7542 55.4653 35.7442 55.5953C35.2942 55.4153 34.7942 55.2953 34.2642 55.2653C31.7242 55.1253 29.5442 57.0753 29.4042 59.6153C29.2742 62.0053 30.9742 64.0653 33.2842 64.4253L54.0842 65.6253C56.8242 65.7753 59.2742 64.4053 60.6442 62.2553C60.6842 62.1953 60.7142 62.1353 60.7642 62.0653C60.9642 61.6653 61.2742 61.0853 61.4942 60.3153Z" fill="white"/>
<defs>
<linearGradient id="paint0_linear" x1="49.5743" y1="-13.1944" x2="53.5563" y2="132.576" gradientUnits="userSpaceOnUse">
<stop stop-color="#00ABDE"/>
<stop offset="1" stop-color="#007ED8"/>
</linearGradient>
<linearGradient id="paint1_linear" x1="2.77686" y1="-20.0294" x2="98.3039" y2="120.852" gradientUnits="userSpaceOnUse">
<stop stop-color="#007ED8"/>
<stop offset="0.7065" stop-color="#002D4C"/>
</linearGradient>
<linearGradient id="paint2_linear" x1="43.117" y1="21.9249" x2="47.3191" y2="96.3031" gradientUnits="userSpaceOnUse">
<stop stop-color="#B77AF4"/>
<stop offset="0.24" stop-color="#B376F2"/>
<stop offset="0.5" stop-color="#A669EE"/>
<stop offset="0.75" stop-color="#9255E6"/>
<stop offset="1" stop-color="#773ADC"/>
</linearGradient>
<linearGradient id="paint3_linear" x1="75.3691" y1="112.278" x2="62.2424" y2="-13.6561" gradientUnits="userSpaceOnUse">
<stop stop-color="#773ADC"/>
<stop offset="0.82" stop-color="#A67AF4"/>
</linearGradient>
</defs>
</svg>
