<svg xmlns="http://www.w3.org/2000/svg" xmlns:xlink="http://www.w3.org/1999/xlink" viewBox="0 0 496.52 222.79">
  <defs>
    <linearGradient id="linear-gradient" x1="143.96" y1="339.23" x2="166.59" y2="339.23" gradientTransform="matrix(1, 0, 0, -1, 0, 547.32)" gradientUnits="userSpaceOnUse">
      <stop offset="0" stop-color="#005ba1"/>
      <stop offset="0.07" stop-color="#0060a9"/>
      <stop offset="0.36" stop-color="#0071c8"/>
      <stop offset="0.52" stop-color="#0078d4"/>
      <stop offset="0.64" stop-color="#0074cd"/>
      <stop offset="0.82" stop-color="#006abb"/>
      <stop offset="1" stop-color="#005ba1"/>
    </linearGradient>
    <radialGradient id="radial-gradient" cx="155.91" cy="338.51" r="12.48" gradientTransform="matrix(1, 0, 0, -1, 0, 547.32)" gradientUnits="userSpaceOnUse">
      <stop offset="0" stop-color="#f2f2f2"/>
      <stop offset="0.58" stop-color="#eee"/>
      <stop offset="1" stop-color="#e6e6e6"/>
    </radialGradient>
    <linearGradient id="linear-gradient-2" x1="360.52" y1="402.83" x2="360.52" y2="432.83" gradientTransform="matrix(1, 0, 0, -1, 0, 547.32)" gradientUnits="userSpaceOnUse">
      <stop offset="0" stop-color="#0078d4"/>
      <stop offset="0.82" stop-color="#5ea0ef"/>
    </linearGradient>
    <radialGradient id="radial-gradient-2" cx="417.16" cy="84.77" r="9" gradientUnits="userSpaceOnUse">
      <stop offset="0.45" stop-color="#0078d4"/>
      <stop offset="0.81" stop-color="#0063af"/>
      <stop offset="1" stop-color="#005ba1"/>
    </radialGradient>
    <radialGradient id="radial-gradient-3" cx="110.32" cy="84.77" xlink:href="#radial-gradient-2"/>
    <radialGradient id="radial-gradient-4" cx="200.82" cy="44.77" xlink:href="#radial-gradient-2"/>
    <radialGradient id="radial-gradient-5" cx="313.35" cy="129.22" xlink:href="#radial-gradient-2"/>
    <radialGradient id="radial-gradient-6" cx="155.69" cy="163.01" xlink:href="#radial-gradient-2"/>
    <linearGradient id="linear-gradient-3" x1="364.41" y1="494.96" x2="364.41" y2="518.56" gradientTransform="matrix(1, 0, 0, -1, 0, 547.32)" gradientUnits="userSpaceOnUse">
      <stop offset="0" stop-color="#0078d4"/>
      <stop offset="0.16" stop-color="#1380da"/>
      <stop offset="0.53" stop-color="#3c91e5"/>
      <stop offset="0.82" stop-color="#559cec"/>
      <stop offset="1" stop-color="#5ea0ef"/>
    </linearGradient>
    <linearGradient id="linear-gradient-4" x1="357.07" y1="486.74" x2="357.07" y2="522.41" gradientTransform="matrix(1, 0, 0, -1, 0, 547.32)" gradientUnits="userSpaceOnUse">
      <stop offset="0" stop-color="#198ab3"/>
      <stop offset="0.11" stop-color="#22a5cb"/>
      <stop offset="0.23" stop-color="#29bade"/>
      <stop offset="0.37" stop-color="#2ec9eb"/>
      <stop offset="0.53" stop-color="#31d1f3"/>
      <stop offset="0.78" stop-color="#32d4f5"/>
    </linearGradient>
    <linearGradient id="linear-gradient-5" x1="143.96" y1="500.45" x2="166.29" y2="500.45" xlink:href="#linear-gradient"/>
    <linearGradient id="linear-gradient-6" x1="143.96" y1="415.73" x2="166.29" y2="415.73" xlink:href="#linear-gradient"/>
  </defs>
  <title>3-01-azure-sql-migration-sql-db</title>
  <g id="Shapes">
    <rect width="496.52" height="222.79" fill="#fff"/>
    <g>
      <path d="M155.27,199.23c-6.24,0-11.31-1.76-11.31-4.09V217c0,2.24,5,4.06,11.15,4.09h.16c6.25,0,11.32-1.76,11.32-4.09V195.14C166.59,197.41,161.52,199.23,155.27,199.23Z" fill="url(#linear-gradient)"/>
      <path d="M166.59,195.14c0,2.27-5.07,4.09-11.32,4.09S144,197.47,144,195.14,149,191,155.27,191s11.32,1.77,11.32,4.1" fill="#e8e8e8"/>
      <path d="M164,194.8c0,1.45-3.9,2.61-8.69,2.61s-8.68-1.16-8.68-2.61,3.9-2.59,8.68-2.59,8.69,1.16,8.69,2.59" fill="#50e6ff"/>
      <path d="M155.27,195.45a20.71,20.71,0,0,0-6.86,1,20.19,20.19,0,0,0,6.86.95,19.56,19.56,0,0,0,6.87-1A21,21,0,0,0,155.27,195.45Z" fill="#198ab3"/>
      <path d="M162.16,210.28v-6h-1.59v7.29h4.34v-1.29Zm-12.6-2.95a3.07,3.07,0,0,1-.9-.55.78.78,0,0,1-.22-.56.6.6,0,0,1,.27-.53,1.23,1.23,0,0,1,.74-.21,2.82,2.82,0,0,1,1.76.51v-1.52a4.58,4.58,0,0,0-1.76-.28,2.9,2.9,0,0,0-1.92.6,1.89,1.89,0,0,0-.74,1.57c0,.9.56,1.61,1.76,2.14a4.55,4.55,0,0,1,1.09.63.74.74,0,0,1,.27.57.68.68,0,0,1-.28.54,1.49,1.49,0,0,1-.8.2,3,3,0,0,1-1.92-.74v1.64a3.85,3.85,0,0,0,1.89.42,3.34,3.34,0,0,0,2.08-.58,1.91,1.91,0,0,0,.58-1.61,1.84,1.84,0,0,0-.44-1.23A4.21,4.21,0,0,0,149.56,207.33Zm9.24,2.81a4.17,4.17,0,0,0,.59-2.23,4,4,0,0,0-.59-1.87,3.13,3.13,0,0,0-1.23-1.32,3.54,3.54,0,0,0-1.77-.46,3.73,3.73,0,0,0-1.9.48,3.23,3.23,0,0,0-1.29,1.3,4.42,4.42,0,0,0-.46,2,4,4,0,0,0,.42,1.77,3.21,3.21,0,0,0,1.22,1.31,3.65,3.65,0,0,0,1.77.52l1.51,1.77h2.14L157,211.48A3.15,3.15,0,0,0,158.8,210.14ZM157,209.7a1.65,1.65,0,0,1-1.34.61,1.6,1.6,0,0,1-1.34-.63,2.68,2.68,0,0,1-.52-1.77,2.65,2.65,0,0,1,.52-1.76,1.71,1.71,0,0,1,1.37-.65,1.52,1.52,0,0,1,1.33.65,2.89,2.89,0,0,1,.47,1.76A2.6,2.6,0,0,1,157,209.7Z" fill="url(#radial-gradient)"/>
    </g>
    <g>
      <line x1="175.03" y1="44.77" x2="332" y2="44.77" fill="none" stroke="#3c3c41" stroke-miterlimit="10"/>
      <polygon points="176.13 48.51 169.65 44.77 176.13 41.03 176.13 48.51" fill="#3c3c41"/>
      <polygon points="330.91 48.51 337.38 44.77 330.91 41.03 330.91 48.51" fill="#3c3c41"/>
    </g>
    <g>
      <line x1="175.03" y1="129.77" x2="344.57" y2="129.77" fill="none" stroke="#3c3c41" stroke-miterlimit="10"/>
      <polygon points="176.13 133.51 169.65 129.77 176.13 126.03 176.13 133.51" fill="#3c3c41"/>
    </g>
    <g>
      <path d="M135.6,129.77H116a5,5,0,0,1-5-5v-75a5,5,0,0,1,5-5h25" fill="none" stroke="#3c3c41" stroke-miterlimit="10"/>
      <polygon points="134.5 126.03 140.98 129.77 134.5 133.51 134.5 126.03" fill="#3c3c41"/>
    </g>
    <g>
      <path d="M380.85,129.77h31.31a5,5,0,0,0,5-5v-75a5,5,0,0,0-5-5h-28.5" fill="none" stroke="#3c3c41" stroke-miterlimit="10"/>
      <polygon points="381.94 133.51 375.47 129.77 381.94 126.03 381.94 133.51" fill="#3c3c41"/>
    </g>
    <g>
      <g>
        <path d="M362.21,114.72H349.45a1,1,0,0,0-1,1v27.59a1,1,0,0,0,1,1h22.16a1,1,0,0,0,1-1h0V125a1,1,0,0,0-1-1h-7.35a1,1,0,0,1-1-1v-7.31a1,1,0,0,0-1-1Z" fill="#fff"/>
        <path d="M361.75,116v6.92a2.53,2.53,0,0,0,2.53,2.53h7.06V143H349.76V116h12m.48-1.52h-13a1,1,0,0,0-1,1v28a1,1,0,0,0,1,1h22.49a1,1,0,0,0,1-1V125a1,1,0,0,0-1-.93h-7.48a1,1,0,0,1-1-1v-7.5A1,1,0,0,0,362.23,114.49Z" fill="url(#linear-gradient-2)"/>
        <path d="M372.38,124.15l-9.44-9.43v7.68a1.76,1.76,0,0,0,1.76,1.77Z" fill="#0078d4"/>
      </g>
      <g>
        <path d="M354.16,132.4l2.76-1.51V129.3l-5,2.8v.72l5,2.5v-1.55Z" fill="#0078d4"/>
        <path d="M357.14,136.91h1.59l3.67-9h-1.59Z" fill="#0078d4"/>
        <path d="M367.73,132.06l-5-2.79v1.62l2.76,1.51-2.76,1.33v1.59l5-2.5Z" fill="#0078d4"/>
      </g>
    </g>
    <g>
      <line x1="155.27" y1="147.27" x2="155.27" y2="182.89" fill="none" stroke="#3c3c41" stroke-miterlimit="10"/>
      <polygon points="151.53 181.79 155.27 188.27 159.01 181.79 151.53 181.79" fill="#3c3c41"/>
    </g>
    <g>
      <circle cx="417.16" cy="84.77" r="9" fill="url(#radial-gradient-2)"/>
      <path d="M419.67,89.07H414.4v-.65a2.61,2.61,0,0,1,.11-.75,3.5,3.5,0,0,1,.3-.65,3.54,3.54,0,0,1,.44-.58,6.75,6.75,0,0,1,.54-.53c.19-.17.39-.33.59-.49l.58-.48c.18-.15.34-.3.49-.45a3,3,0,0,0,.38-.45,2,2,0,0,0,.25-.5,1.69,1.69,0,0,0,.09-.56,1.73,1.73,0,0,0-.1-.59,1.22,1.22,0,0,0-.29-.41,1.12,1.12,0,0,0-.44-.25,1.63,1.63,0,0,0-.55-.09,2.58,2.58,0,0,0-1.05.24,3.67,3.67,0,0,0-1,.72V81.29a4.13,4.13,0,0,1,.52-.33,2.87,2.87,0,0,1,.54-.24,3.76,3.76,0,0,1,.6-.15,4.5,4.5,0,0,1,.66,0,3.33,3.33,0,0,1,1,.15,2.1,2.1,0,0,1,.79.44,1.89,1.89,0,0,1,.51.72,2.59,2.59,0,0,1,.18,1,3.17,3.17,0,0,1-.13.91,2.65,2.65,0,0,1-.36.76,3.5,3.5,0,0,1-.56.67c-.22.21-.46.43-.73.65l-.68.54q-.33.25-.6.51a2.78,2.78,0,0,0-.44.49.94.94,0,0,0-.17.51v0h3.79Z" fill="#fff"/>
    </g>
    <g>
      <circle cx="110.32" cy="84.77" r="9" fill="url(#radial-gradient-3)"/>
      <path d="M107.71,88.76V87.48a2.86,2.86,0,0,0,1.85.65,2.11,2.11,0,0,0,1.34-.38,1.23,1.23,0,0,0,.5-1c0-1-.73-1.43-2.19-1.43h-.65V84.2h.63c1.29,0,1.93-.45,1.93-1.35s-.5-1.24-1.51-1.24a2.46,2.46,0,0,0-1.58.6V81a4.05,4.05,0,0,1,2-.48,2.68,2.68,0,0,1,1.79.56,1.77,1.77,0,0,1,.67,1.44,2,2,0,0,1-1.68,2.13v0a2.23,2.23,0,0,1,1.43.63,1.91,1.91,0,0,1,.53,1.37,2.26,2.26,0,0,1-.85,1.83,3.44,3.44,0,0,1-2.24.69A3.81,3.81,0,0,1,107.71,88.76Z" fill="#fff"/>
    </g>
    <g>
      <circle cx="200.82" cy="44.77" r="9" fill="url(#radial-gradient-4)"/>
      <path d="M202,40.48v8.59h-1.36V42.15a4.42,4.42,0,0,1-.8.44,5.23,5.23,0,0,1-1,.33V41.76a6.42,6.42,0,0,0,.66-.24q.32-.12.63-.27l.62-.34c.21-.13.42-.27.64-.43Z" fill="#fff"/>
    </g>
    <g>
      <circle cx="313.35" cy="129.22" r="9" fill="url(#radial-gradient-5)"/>
      <path d="M315.31,125.12v5.42h1.25v1.14h-1.25v1.84H314v-1.84h-3.81v-1.15c.35-.38.7-.8,1.06-1.25s.71-.92,1-1.39.65-.94.93-1.41a11.33,11.33,0,0,0,.72-1.36ZM314,130.54V127a20,20,0,0,1-1.27,2c-.41.57-.8,1.08-1.17,1.52Z" fill="#fff"/>
    </g>
    <g>
      <circle cx="155.69" cy="163.01" r="9" fill="url(#radial-gradient-6)"/>
      <path d="M153.27,167.12v-1.31a2.91,2.91,0,0,0,1.67.56,2,2,0,0,0,1.38-.44,1.42,1.42,0,0,0,.52-1.16,1.28,1.28,0,0,0-.53-1.11,2.46,2.46,0,0,0-1.52-.4c-.22,0-.68,0-1.38.07l.3-4.42h4.14v1.16h-3l-.14,2.11.74,0a2.87,2.87,0,0,1,2.06.69,2.42,2.42,0,0,1,.73,1.87,2.58,2.58,0,0,1-.83,2,3.29,3.29,0,0,1-2.3.76A3.77,3.77,0,0,1,153.27,167.12Z" fill="#fff"/>
    </g>
    <g>
      <path d="M380.52,45.67a7.25,7.25,0,0,0-6.29-7,9.14,9.14,0,0,0-9.4-8.73,9.37,9.37,0,0,0-8.89,6.11,8.65,8.65,0,0,0-7.65,8.4,8.9,8.9,0,0,0,9.07,8.42h16A7.31,7.31,0,0,0,380.52,45.67Z" fill="url(#linear-gradient-3)"/>
      <path d="M373.63,47.2a7.44,7.44,0,0,0-6.45-7.15,9.34,9.34,0,0,0-9.66-8.89,9.6,9.6,0,0,0-9.2,6.2,8.88,8.88,0,0,0-7.8,8.53,9,9,0,0,0,9.33,8.67h16.31A7.53,7.53,0,0,0,373.63,47.2Z" fill="url(#linear-gradient-4)"/>
      <g id="b1b7ddb8-8ec2-480f-967f-c2bf89d2fe16">
        <path d="M351.23,43.09h1.89a.47.47,0,0,1,.37.16l4.45,4.44a.53.53,0,0,1,0,.75l0,0-6.05,5.93a.52.52,0,0,1-.37.16h-1.8a.55.55,0,0,1-.46-.64.57.57,0,0,1,.15-.3l5.13-5.2a.51.51,0,0,0,0-.72l0,0L350.85,44a.53.53,0,0,1,0-.75A.55.55,0,0,1,351.23,43.09Zm7.62-7.49h1.93a.55.55,0,0,1,.38.18l3.4,3.44a.54.54,0,0,1,0,.76h0l-4.44,4.24a.55.55,0,0,1-.38.16h-1.62a.56.56,0,0,1-.53-.58.51.51,0,0,1,.13-.33l3.4-3.42a.58.58,0,0,0,0-.76l-2.65-2.67a.54.54,0,0,1,.38-1Zm4,8.89h1.89a.57.57,0,0,1,.37.16l2.78,2.77a.56.56,0,0,1,0,.76l-4,4.07a.54.54,0,0,1-.38.15h-1.82a.54.54,0,0,1-.38-.91l3.16-3.2a.56.56,0,0,0,0-.76l-2-2a.53.53,0,0,1,0-.75.49.49,0,0,1,.3-.16Z" fill="#fff"/>
      </g>
    </g>
    <g>
      <path d="M155.12,38.14c-6.16,0-11.16-1.76-11.16-4v21.5c0,2.22,4.91,4,11,4h.15c6.17,0,11.17-1.76,11.17-4V34.09C166.29,36.33,161.29,38.14,155.12,38.14Z" fill="url(#linear-gradient-5)"/>
      <path d="M166.29,34.09c0,2.24-5,4-11.17,4S144,36.33,144,34.09,149,30,155.12,30s11.17,1.76,11.17,4.05" fill="#e8e8e8"/>
      <path d="M163.68,33.76c0,1.42-3.84,2.57-8.56,2.57s-8.52-1.15-8.52-2.57,3.81-2.57,8.52-2.57,8.56,1.16,8.56,2.57" fill="#50e6ff"/>
      <path d="M155.12,34.36a21,21,0,0,0-6.76,1,23.48,23.48,0,0,0,13.56,0A20.89,20.89,0,0,0,155.12,34.36Z" fill="#198ab3"/>
      <path d="M162,48.72V42.77h-1.64v7.29h4.33V48.72ZM149.4,45.78a3.59,3.59,0,0,1-.9-.54.89.89,0,0,1-.14-.57.68.68,0,0,1,.28-.54,1.31,1.31,0,0,1,.74-.2,2.89,2.89,0,0,1,1.76.52V42.93a4.78,4.78,0,0,0-1.76-.28,3.1,3.1,0,0,0-2.11.62,2,2,0,0,0-.72,1.58c0,.9.56,1.6,1.76,2.13a5.47,5.47,0,0,1,1.07.63.73.73,0,0,1,.29.57.66.66,0,0,1-.29.54,1.23,1.23,0,0,1-.79.21,2.8,2.8,0,0,1-2-.79v1.64a4.12,4.12,0,0,0,1.89.4,3.45,3.45,0,0,0,2.07-.56,1.91,1.91,0,0,0,.76-1.62,1.74,1.74,0,0,0-.44-1.23A4.23,4.23,0,0,0,149.4,45.78Zm9.16,2.77a4.28,4.28,0,0,0,.58-2.24,4.21,4.21,0,0,0-.44-1.94,3.33,3.33,0,0,0-1.23-1.32,3.53,3.53,0,0,0-1.77-.45,3.73,3.73,0,0,0-1.91.47,3.31,3.31,0,0,0-1.29,1.36,4.28,4.28,0,0,0-.46,2,4,4,0,0,0,.43,1.85,3.22,3.22,0,0,0,1.19,1.32,3.53,3.53,0,0,0,1.76.51l1.5,1.76H159l-2.11-2A3.24,3.24,0,0,0,158.56,48.55Zm-1.64-.46a1.76,1.76,0,0,1-2.48.21,1,1,0,0,1-.21-.21,3.32,3.32,0,0,1,0-3.52,1.62,1.62,0,0,1,1.38-.65,1.57,1.57,0,0,1,1.32.65,2.89,2.89,0,0,1,.47,1.76,2.55,2.55,0,0,1-.49,1.81Z" fill="#f2f2f2"/>
      <path d="M169.16,60l.42-1.39.83-.47,1.42.63.92-.93V57.7l-.65-1.25.38-.88,1.43-.51h.16V53.78h-.18l-1.41-.43-.45-.81.61-1.44-.93-.9h-.11l-1.25.64-.86-.53-.56-1.57h-1.31v.19l-.42,1.4-.9.38-1.53-.7-.9.93.09.18.67,1.3-.35.9-1.66.51v1.3h.2l1.39.42.39.9L163.91,58l.93.91.16-.09,1.3-.67.9.36.6,1.56h1.29ZM167,55.82a1.88,1.88,0,0,1,2.63-2.68h0A1.88,1.88,0,0,1,167,55.82Z" fill="#949494"/>
    </g>
    <g>
      <path d="M155.12,122.87c-6.16,0-11.16-1.76-11.16-4.05v21.49c0,2.22,4.91,4,11,4.05h.15c6.17,0,11.17-1.76,11.17-4.05V118.82C166.29,121.05,161.29,122.87,155.12,122.87Z" fill="url(#linear-gradient-6)"/>
      <path d="M166.29,118.82c0,2.23-5,4.05-11.17,4.05S144,121.05,144,118.82s5-4,11.16-4,11.17,1.76,11.17,4" fill="#e8e8e8"/>
      <path d="M163.68,118.48c0,1.43-3.84,2.57-8.56,2.57s-8.52-1.14-8.52-2.57,3.81-2.57,8.52-2.57,8.56,1.17,8.56,2.57" fill="#50e6ff"/>
      <path d="M155.12,119.08a21.24,21.24,0,0,0-6.76,1,23.48,23.48,0,0,0,13.56,0A21.16,21.16,0,0,0,155.12,119.08Z" fill="#198ab3"/>
      <path d="M162,133.45V127.5h-1.64v7.29h4.33v-1.34Zm-12.59-2.94a3.62,3.62,0,0,1-.9-.55.84.84,0,0,1-.14-.56.7.7,0,0,1,.28-.55,1.3,1.3,0,0,1,.74-.19,3,3,0,0,1,1.76.51v-1.51a4.79,4.79,0,0,0-1.76-.29,3.1,3.1,0,0,0-2.11.62,2,2,0,0,0-.72,1.59c0,.89.56,1.6,1.76,2.13a4.63,4.63,0,0,1,1.07.63.7.7,0,0,1,.29.56.68.68,0,0,1-.29.55,1.36,1.36,0,0,1-.79.21,2.85,2.85,0,0,1-2-.79v1.63a4,4,0,0,0,1.89.41,3.52,3.52,0,0,0,2.07-.56,1.92,1.92,0,0,0,.76-1.62,1.75,1.75,0,0,0-.44-1.24A4.35,4.35,0,0,0,149.4,130.51Zm9.16,2.76a4.25,4.25,0,0,0,.58-2.23,4.18,4.18,0,0,0-.44-1.94,3.26,3.26,0,0,0-1.23-1.32,3.65,3.65,0,0,0-1.77-.46,3.74,3.74,0,0,0-1.91.48,3.35,3.35,0,0,0-1.29,1.35,4.32,4.32,0,0,0-.46,2,4,4,0,0,0,.43,1.85,3.22,3.22,0,0,0,1.19,1.32,3.63,3.63,0,0,0,1.76.51l1.5,1.76H159l-2.11-2A3.19,3.19,0,0,0,158.56,133.27Zm-1.64-.46a1.76,1.76,0,0,1-2.48.22,1.45,1.45,0,0,1-.21-.22,3.32,3.32,0,0,1,0-3.52,1.64,1.64,0,0,1,1.38-.65,1.6,1.6,0,0,1,1.32.65,2.89,2.89,0,0,1,.47,1.76,2.57,2.57,0,0,1-.49,1.82Z" fill="#f2f2f2"/>
      <path d="M169.16,144.7l.42-1.39.83-.48,1.42.64.92-.94v-.1l-.65-1.25.38-.88,1.43-.51h.16V138.5h-.18l-1.41-.42-.45-.81.61-1.44-.93-.9h-.11l-1.25.63-.86-.53-.56-1.56h-1.31v.19l-.42,1.39-.9.39-1.53-.71-.9.94.09.17.67,1.31-.35.89-1.66.51v1.31h.2l1.39.42.39.9-.69,1.51.93.92.16-.09,1.3-.67.9.35.6,1.57h1.29ZM167,140.54a1.87,1.87,0,1,1,2.63-2.67h0a1.87,1.87,0,1,1-2.63,2.67Z" fill="#949494"/>
    </g>
  </g>
  <g id="Text">
    <g>
      <path d="M10.66,81.89a4.92,4.92,0,0,1-2.32.49,3.77,3.77,0,0,1-2.87-1.15,4.26,4.26,0,0,1-1.08-3A4.45,4.45,0,0,1,5.6,74.94,4.12,4.12,0,0,1,8.68,73.7a4.92,4.92,0,0,1,2,.34v1a4,4,0,0,0-2-.5,3.07,3.07,0,0,0-2.35,1,3.66,3.66,0,0,0-.9,2.59,3.44,3.44,0,0,0,.84,2.44,2.86,2.86,0,0,0,2.21.91,4.1,4.1,0,0,0,2.19-.56Z" fill="#1e1e1e"/>
      <path d="M14.75,82.38a2.76,2.76,0,0,1-2.12-.84,3.12,3.12,0,0,1-.8-2.23A3.23,3.23,0,0,1,12.66,77a3,3,0,0,1,2.23-.85,2.68,2.68,0,0,1,2.09.82,3.76,3.76,0,0,1-.05,4.6A2.88,2.88,0,0,1,14.75,82.38Zm.07-5.47a1.84,1.84,0,0,0-1.47.63,2.63,2.63,0,0,0-.53,1.73A2.49,2.49,0,0,0,13.36,81a1.85,1.85,0,0,0,1.46.61,1.75,1.75,0,0,0,1.43-.6,3.23,3.23,0,0,0,0-3.45A1.73,1.73,0,0,0,14.82,76.91Z" fill="#1e1e1e"/>
      <path d="M20.26,81.37h0V85h-1V76.24h1v1.05h0a2.27,2.27,0,0,1,2.07-1.19,2.21,2.21,0,0,1,1.81.8,3.31,3.31,0,0,1,.65,2.16,3.69,3.69,0,0,1-.73,2.41,2.43,2.43,0,0,1-2,.91A2,2,0,0,1,20.26,81.37Zm0-2.42v.84a1.73,1.73,0,0,0,.49,1.26,1.71,1.71,0,0,0,2.59-.15,3,3,0,0,0,.5-1.85,2.39,2.39,0,0,0-.47-1.57,1.51,1.51,0,0,0-1.25-.57,1.7,1.7,0,0,0-1.35.58A2.15,2.15,0,0,0,20.23,79Z" fill="#1e1e1e"/>
      <path d="M31.1,76.24l-2.76,7q-.73,1.86-2.07,1.86a2.28,2.28,0,0,1-.63-.07v-.86a1.8,1.8,0,0,0,.57.1,1.18,1.18,0,0,0,1.09-.87l.48-1.13-2.34-6H26.5l1.63,4.62s.06.21.12.45h0c0-.09.06-.24.12-.44l1.71-4.63Z" fill="#1e1e1e"/>
      <path d="M40.54,82.24h-1v-1h0a2.42,2.42,0,0,1-3.87.35A3.28,3.28,0,0,1,35,79.38,3.62,3.62,0,0,1,35.76,77a2.5,2.5,0,0,1,2-.89,1.93,1.93,0,0,1,1.8,1h0V73.36h1Zm-1-2.71v-.89a1.73,1.73,0,0,0-.48-1.23,1.6,1.6,0,0,0-1.22-.5,1.66,1.66,0,0,0-1.38.64,2.79,2.79,0,0,0-.5,1.78A2.56,2.56,0,0,0,36.48,81a1.57,1.57,0,0,0,1.3.6,1.63,1.63,0,0,0,1.3-.58A2.17,2.17,0,0,0,39.58,79.53Z" fill="#1e1e1e"/>
      <path d="M46.78,82.24h-1V81.3h0A2,2,0,0,1,44,82.38a2,2,0,0,1-1.4-.48A1.61,1.61,0,0,1,42,80.65c0-1.13.66-1.78,2-2l1.8-.25q0-1.53-1.23-1.53a2.91,2.91,0,0,0-2,.74v-1a3.76,3.76,0,0,1,2-.56c1.41,0,2.11.74,2.11,2.24Zm-1-3-1.45.2a2.54,2.54,0,0,0-1,.33,1,1,0,0,0-.34.84.9.9,0,0,0,.31.72,1.19,1.19,0,0,0,.83.28,1.57,1.57,0,0,0,1.19-.5,1.79,1.79,0,0,0,.46-1.27Z" fill="#1e1e1e"/>
      <path d="M51.38,82.18a1.82,1.82,0,0,1-.9.19c-1,0-1.58-.59-1.58-1.76V77.06h-1v-.82h1V74.77l1-.31v1.78h1.52v.82H49.86v3.38a1.37,1.37,0,0,0,.21.86.83.83,0,0,0,.68.26,1.05,1.05,0,0,0,.63-.2Z" fill="#1e1e1e"/>
      <path d="M57,82.24H56V81.3h0a2,2,0,0,1-1.85,1.08,2,2,0,0,1-1.4-.48,1.61,1.61,0,0,1-.51-1.25c0-1.13.66-1.78,2-2l1.8-.25q0-1.53-1.23-1.53a2.91,2.91,0,0,0-2,.74v-1a3.76,3.76,0,0,1,2-.56c1.41,0,2.11.74,2.11,2.24Zm-1-3-1.44.2a2.53,2.53,0,0,0-1,.33,1,1,0,0,0-.34.84.9.9,0,0,0,.31.72,1.2,1.2,0,0,0,.84.28,1.56,1.56,0,0,0,1.18-.5A1.79,1.79,0,0,0,56,79.8Z" fill="#1e1e1e"/>
      <path d="M59.75,81.37h0v.87h-1V73.36h1v3.93h0a2.27,2.27,0,0,1,2.07-1.19,2.21,2.21,0,0,1,1.81.8,3.31,3.31,0,0,1,.65,2.16,3.69,3.69,0,0,1-.73,2.41,2.42,2.42,0,0,1-2,.91A2,2,0,0,1,59.75,81.37Zm0-2.42v.84a1.77,1.77,0,0,0,.48,1.26,1.72,1.72,0,0,0,2.59-.15,3,3,0,0,0,.5-1.85,2.39,2.39,0,0,0-.46-1.57,1.54,1.54,0,0,0-1.26-.57,1.68,1.68,0,0,0-1.34.58A2.15,2.15,0,0,0,59.73,79Z" fill="#1e1e1e"/>
      <path d="M70.11,82.24h-1V81.3h0a2,2,0,0,1-1.85,1.08,2,2,0,0,1-1.4-.48,1.61,1.61,0,0,1-.51-1.25c0-1.13.66-1.78,2-2l1.8-.25q0-1.53-1.23-1.53a2.91,2.91,0,0,0-2,.74v-1a3.76,3.76,0,0,1,2-.56c1.41,0,2.11.74,2.11,2.24Zm-1-3-1.44.2a2.53,2.53,0,0,0-1,.33,1,1,0,0,0-.34.84.9.9,0,0,0,.31.72,1.2,1.2,0,0,0,.84.28,1.56,1.56,0,0,0,1.18-.5,1.79,1.79,0,0,0,.46-1.27Z" fill="#1e1e1e"/>
      <path d="M71.56,82V81a2.84,2.84,0,0,0,1.73.58c.84,0,1.27-.28,1.27-.84a.76.76,0,0,0-.11-.41,1.07,1.07,0,0,0-.3-.3,2.44,2.44,0,0,0-.43-.23l-.54-.21c-.26-.11-.49-.21-.7-.32a2.47,2.47,0,0,1-.5-.36,1.35,1.35,0,0,1-.3-.46,1.66,1.66,0,0,1-.11-.61,1.39,1.39,0,0,1,.2-.74,1.78,1.78,0,0,1,.51-.55,2.26,2.26,0,0,1,.74-.33,3.56,3.56,0,0,1,2.24.16v1a2.68,2.68,0,0,0-1.52-.43,1.75,1.75,0,0,0-.48.06,1.33,1.33,0,0,0-.38.17.88.88,0,0,0-.24.27.77.77,0,0,0-.08.34.87.87,0,0,0,.08.39.83.83,0,0,0,.25.28,1.68,1.68,0,0,0,.4.23l.53.21c.27.11.51.21.72.32a2.42,2.42,0,0,1,.54.36,1.41,1.41,0,0,1,.34.47,1.46,1.46,0,0,1,.12.62,1.51,1.51,0,0,1-.2.78,1.58,1.58,0,0,1-.52.54,2.26,2.26,0,0,1-.76.32,3.68,3.68,0,0,1-.89.11A3.39,3.39,0,0,1,71.56,82Z" fill="#1e1e1e"/>
      <path d="M81.84,79.48H77.6A2.3,2.3,0,0,0,78.14,81a1.88,1.88,0,0,0,1.42.54,2.89,2.89,0,0,0,1.86-.67v.91a3.47,3.47,0,0,1-2.09.57,2.53,2.53,0,0,1-2-.82,3.35,3.35,0,0,1-.72-2.3A3.28,3.28,0,0,1,77.4,77a2.54,2.54,0,0,1,2-.88,2.24,2.24,0,0,1,1.82.76A3.18,3.18,0,0,1,81.84,79Zm-1-.82a1.9,1.9,0,0,0-.4-1.29,1.36,1.36,0,0,0-1.1-.46,1.56,1.56,0,0,0-1.15.48,2.25,2.25,0,0,0-.59,1.27Z" fill="#1e1e1e"/>
      <path d="M89.09,82.38A2.79,2.79,0,0,1,87,81.54a3.12,3.12,0,0,1-.79-2.23A3.19,3.19,0,0,1,87,77a3,3,0,0,1,2.23-.85,2.68,2.68,0,0,1,2.09.82,3.32,3.32,0,0,1,.76,2.3,3.25,3.25,0,0,1-.82,2.3A2.85,2.85,0,0,1,89.09,82.38Zm.07-5.47a1.84,1.84,0,0,0-1.47.63,2.58,2.58,0,0,0-.54,1.73A2.49,2.49,0,0,0,87.7,81a1.85,1.85,0,0,0,1.46.61,1.75,1.75,0,0,0,1.43-.6,3.23,3.23,0,0,0,0-3.45A1.73,1.73,0,0,0,89.16,76.91Z" fill="#1e1e1e"/>
      <path d="M96.74,77.21A1.18,1.18,0,0,0,96,77a1.23,1.23,0,0,0-1,.58,2.7,2.7,0,0,0-.41,1.58v3.06h-1v-6h1v1.24h0a2.07,2.07,0,0,1,.63-1,1.43,1.43,0,0,1,1-.36,1.41,1.41,0,0,1,.57.09Z" fill="#1e1e1e"/>
      <path d="M15.84,95.44h-1V92c0-1.25-.46-1.87-1.39-1.87a1.51,1.51,0,0,0-1.18.54A2,2,0,0,0,11.83,92v3.4h-1V86.56h1v3.88h0a2.18,2.18,0,0,1,2-1.14c1.35,0,2,.81,2,2.44Z" fill="#1e1e1e"/>
      <path d="M22,95.44H21V94.5h0a2,2,0,0,1-1.85,1.08,1.93,1.93,0,0,1-1.4-.48,1.61,1.61,0,0,1-.51-1.25c0-1.13.66-1.78,2-2l1.8-.25c0-1-.41-1.53-1.24-1.53a2.9,2.9,0,0,0-1.95.74v-1a3.76,3.76,0,0,1,2-.56c1.41,0,2.11.74,2.11,2.24Zm-1-3-1.45.2a2.65,2.65,0,0,0-1,.33,1,1,0,0,0-.34.84.9.9,0,0,0,.32.72,1.19,1.19,0,0,0,.83.28,1.55,1.55,0,0,0,1.18-.5A1.8,1.8,0,0,0,21,93Z" fill="#1e1e1e"/>
      <path d="M24.72,95.44h-1V86.56h1Z" fill="#1e1e1e"/>
      <path d="M29.45,95.38a1.82,1.82,0,0,1-.9.19C27.5,95.57,27,95,27,93.81V90.26H26v-.82h1V88l1-.31v1.78h1.51v.82H27.94v3.38a1.45,1.45,0,0,0,.2.86.84.84,0,0,0,.68.26,1,1,0,0,0,.63-.2Z" fill="#1e1e1e"/>
      <path d="M36.8,95.38a1.76,1.76,0,0,1-.89.19c-1,0-1.58-.59-1.58-1.76V90.26h-1v-.82h1V88l1-.31v1.78H36.8v.82H35.29v3.38a1.37,1.37,0,0,0,.21.86.81.81,0,0,0,.68.26,1,1,0,0,0,.62-.2Z" fill="#1e1e1e"/>
      <path d="M41.22,90.41a1.18,1.18,0,0,0-.73-.19,1.23,1.23,0,0,0-1,.58,2.72,2.72,0,0,0-.41,1.58v3.06h-1v-6h1v1.24h0a2.07,2.07,0,0,1,.63-1,1.4,1.4,0,0,1,.94-.36,1.5,1.5,0,0,1,.58.09Z" fill="#1e1e1e"/>
      <path d="M46.55,95.44h-1V94.5h0a2,2,0,0,1-1.85,1.08,2,2,0,0,1-1.4-.48,1.61,1.61,0,0,1-.51-1.25c0-1.13.66-1.78,2-2l1.8-.25q0-1.53-1.23-1.53a2.91,2.91,0,0,0-2,.74v-1a3.76,3.76,0,0,1,2-.56c1.41,0,2.11.74,2.11,2.24Zm-1-3-1.44.2a2.53,2.53,0,0,0-1,.33,1,1,0,0,0-.34.84.9.9,0,0,0,.31.72,1.2,1.2,0,0,0,.84.28,1.56,1.56,0,0,0,1.18-.5A1.79,1.79,0,0,0,45.59,93Z" fill="#1e1e1e"/>
      <path d="M53.34,95.44h-1V92c0-1.28-.46-1.91-1.39-1.91a1.5,1.5,0,0,0-1.19.54A2,2,0,0,0,49.33,92v3.42h-1v-6h1v1h0a2.16,2.16,0,0,1,2-1.14,1.83,1.83,0,0,1,1.5.63,2.84,2.84,0,0,1,.52,1.84Z" fill="#1e1e1e"/>
      <path d="M54.79,95.22v-1a2.84,2.84,0,0,0,1.73.58c.84,0,1.27-.28,1.27-.84a.76.76,0,0,0-.11-.41,1.07,1.07,0,0,0-.3-.3A2.44,2.44,0,0,0,57,93l-.53-.21a6.76,6.76,0,0,1-.7-.32,2.29,2.29,0,0,1-.51-.36,1.35,1.35,0,0,1-.3-.46A1.66,1.66,0,0,1,54.8,91a1.39,1.39,0,0,1,.2-.74,1.78,1.78,0,0,1,.51-.55,2.26,2.26,0,0,1,.74-.33,3.41,3.41,0,0,1,.85-.11,3.46,3.46,0,0,1,1.4.27v1A2.74,2.74,0,0,0,57,90.11a1.75,1.75,0,0,0-.48.06,1.33,1.33,0,0,0-.38.17.88.88,0,0,0-.24.27.77.77,0,0,0-.08.34.87.87,0,0,0,.08.39.83.83,0,0,0,.25.28,1.68,1.68,0,0,0,.4.23l.53.21c.27.11.51.21.72.32a2.42,2.42,0,0,1,.54.36,1.41,1.41,0,0,1,.34.47,1.46,1.46,0,0,1,.12.62,1.42,1.42,0,0,1-.2.78,1.58,1.58,0,0,1-.52.54,2.26,2.26,0,0,1-.76.32,3.68,3.68,0,0,1-.89.11A3.41,3.41,0,0,1,54.79,95.22Z" fill="#1e1e1e"/>
      <path d="M64.54,95.44h-1V94.5h0a2,2,0,0,1-1.85,1.08,2,2,0,0,1-1.4-.48,1.61,1.61,0,0,1-.51-1.25c0-1.13.66-1.78,2-2l1.8-.25c0-1-.41-1.53-1.24-1.53a2.9,2.9,0,0,0-2,.74v-1a3.76,3.76,0,0,1,2-.56c1.41,0,2.11.74,2.11,2.24Zm-1-3-1.45.2a2.54,2.54,0,0,0-1,.33,1,1,0,0,0-.34.84.9.9,0,0,0,.31.72,1.19,1.19,0,0,0,.83.28,1.58,1.58,0,0,0,1.19-.5A1.79,1.79,0,0,0,63.58,93Z" fill="#1e1e1e"/>
      <path d="M70.44,95.16a3.1,3.1,0,0,1-1.64.42,2.72,2.72,0,0,1-2.07-.84,3,3,0,0,1-.79-2.16,3.35,3.35,0,0,1,.85-2.38,3,3,0,0,1,2.27-.9,3.2,3.2,0,0,1,1.39.29v1A2.38,2.38,0,0,0,69,90.11a1.91,1.91,0,0,0-1.5.66,2.46,2.46,0,0,0-.59,1.73,2.36,2.36,0,0,0,.55,1.66,1.89,1.89,0,0,0,1.49.61,2.38,2.38,0,0,0,1.47-.52Z" fill="#1e1e1e"/>
      <path d="M74.68,95.38a1.82,1.82,0,0,1-.9.19c-1,0-1.57-.59-1.57-1.76V90.26h-1v-.82h1V88l1-.31v1.78h1.51v.82H73.17v3.38a1.45,1.45,0,0,0,.2.86.84.84,0,0,0,.68.26,1.05,1.05,0,0,0,.63-.2Z" fill="#1e1e1e"/>
      <path d="M76.45,87.92a.62.62,0,0,1-.44-.18.61.61,0,0,1-.18-.45.59.59,0,0,1,.18-.44.62.62,0,0,1,.44-.18.61.61,0,0,1,.45.18.6.6,0,0,1,0,.88A.62.62,0,0,1,76.45,87.92Zm.47,7.52H76v-6h1Z" fill="#1e1e1e"/>
      <path d="M81.38,95.58a2.79,2.79,0,0,1-2.13-.84,3.1,3.1,0,0,1-.79-2.23,3.23,3.23,0,0,1,.82-2.36,3,3,0,0,1,2.24-.85,2.68,2.68,0,0,1,2.09.82,3.32,3.32,0,0,1,.75,2.3,3.25,3.25,0,0,1-.81,2.3A2.85,2.85,0,0,1,81.38,95.58Zm.07-5.47a1.84,1.84,0,0,0-1.47.63,2.58,2.58,0,0,0-.54,1.73A2.42,2.42,0,0,0,80,94.16a1.85,1.85,0,0,0,1.46.61,1.75,1.75,0,0,0,1.43-.6,3.23,3.23,0,0,0,0-3.45A1.73,1.73,0,0,0,81.45,90.11Z" fill="#1e1e1e"/>
      <path d="M90.88,95.44h-1V92c0-1.28-.47-1.91-1.4-1.91a1.52,1.52,0,0,0-1.19.54A2,2,0,0,0,86.86,92v3.42h-1v-6h1v1h0a2.17,2.17,0,0,1,2-1.14,1.85,1.85,0,0,1,1.51.63,2.84,2.84,0,0,1,.52,1.84Z" fill="#1e1e1e"/>
      <path d="M92.33,95.22v-1a2.82,2.82,0,0,0,1.73.58q1.26,0,1.26-.84a.68.68,0,0,0-.11-.41,1.17,1.17,0,0,0-.29-.3,2.86,2.86,0,0,0-.43-.23L94,92.78a6.76,6.76,0,0,1-.7-.32,2.22,2.22,0,0,1-.5-.36,1.38,1.38,0,0,1-.31-.46,1.66,1.66,0,0,1-.1-.61,1.38,1.38,0,0,1,.19-.74,1.7,1.7,0,0,1,.52-.55,2.21,2.21,0,0,1,.73-.33,3.49,3.49,0,0,1,.86-.11,3.41,3.41,0,0,1,1.39.27v1a2.7,2.7,0,0,0-1.52-.43,1.88,1.88,0,0,0-.49.06,1.26,1.26,0,0,0-.37.17.88.88,0,0,0-.24.27.67.67,0,0,0-.09.34.75.75,0,0,0,.09.39.83.83,0,0,0,.25.28,1.68,1.68,0,0,0,.4.23l.53.21c.26.11.5.21.71.32a2.42,2.42,0,0,1,.54.36,1.37,1.37,0,0,1,.47,1.09,1.51,1.51,0,0,1-.2.78,1.68,1.68,0,0,1-.52.54,2.35,2.35,0,0,1-.76.32,3.76,3.76,0,0,1-.9.11A3.37,3.37,0,0,1,92.33,95.22Z" fill="#1e1e1e"/>
    </g>
    <g>
      <path d="M179.44,204.65h-1.09l-.89-2.35H173.9l-.84,2.35H172l3.22-8.4h1Zm-2.3-3.24-1.32-3.58a4.87,4.87,0,0,1-.13-.56h0a2.52,2.52,0,0,1-.14.56l-1.3,3.58Z" fill="#1e1e1e"/>
      <path d="M184.73,198.93l-3.55,4.9h3.52v.82h-4.93v-.3l3.55-4.88H180.1v-.82h4.63Z" fill="#1e1e1e"/>
      <path d="M190.83,204.65h-1v-1h0a2,2,0,0,1-1.85,1.09c-1.43,0-2.14-.85-2.14-2.55v-3.59h1v3.44c0,1.26.49,1.89,1.46,1.89a1.47,1.47,0,0,0,1.15-.51,2,2,0,0,0,.46-1.36v-3.46h1Z" fill="#1e1e1e"/>
      <path d="M195.9,199.62a1.25,1.25,0,0,0-.73-.19,1.23,1.23,0,0,0-1,.58,2.74,2.74,0,0,0-.41,1.58v3.06h-1v-6h1v1.24h0a2.17,2.17,0,0,1,.63-1,1.39,1.39,0,0,1,.94-.35,1.52,1.52,0,0,1,.58.08Z" fill="#1e1e1e"/>
      <path d="M201.76,201.89h-4.24a2.28,2.28,0,0,0,.54,1.55,1.88,1.88,0,0,0,1.42.54,2.94,2.94,0,0,0,1.86-.66v.9a3.47,3.47,0,0,1-2.09.57,2.53,2.53,0,0,1-2-.81,3.34,3.34,0,0,1-.73-2.3,3.29,3.29,0,0,1,.79-2.29,2.58,2.58,0,0,1,2-.88,2.29,2.29,0,0,1,1.83.76,3.19,3.19,0,0,1,.64,2.12Zm-1-.81a2,2,0,0,0-.4-1.3,1.37,1.37,0,0,0-1.1-.46,1.54,1.54,0,0,0-1.16.49,2.18,2.18,0,0,0-.58,1.27Z" fill="#1e1e1e"/>
      <path d="M206.24,204.31v-1.16a2.23,2.23,0,0,0,.48.32,5,5,0,0,0,.58.24,4.61,4.61,0,0,0,.62.14,3.07,3.07,0,0,0,.57.06,2.22,2.22,0,0,0,1.36-.34,1.26,1.26,0,0,0,.3-1.56,1.76,1.76,0,0,0-.41-.46,4.57,4.57,0,0,0-.63-.4l-.77-.4c-.3-.15-.57-.3-.83-.45a3.4,3.4,0,0,1-.66-.51,2.26,2.26,0,0,1-.44-.62,1.88,1.88,0,0,1-.16-.82,1.93,1.93,0,0,1,.25-1,2.32,2.32,0,0,1,.66-.7,3.19,3.19,0,0,1,.94-.41,4.24,4.24,0,0,1,1.07-.13,4.08,4.08,0,0,1,1.81.3v1.11a3.26,3.26,0,0,0-1.91-.52,2.88,2.88,0,0,0-.65.07,1.78,1.78,0,0,0-.57.22,1.18,1.18,0,0,0-.41.39,1,1,0,0,0-.16.59,1.18,1.18,0,0,0,.12.55,1.31,1.31,0,0,0,.36.43,3,3,0,0,0,.57.37c.22.13.48.26.77.4s.59.31.86.47a4.46,4.46,0,0,1,.71.55,2.53,2.53,0,0,1,.48.66,1.84,1.84,0,0,1,.18.83,2.12,2.12,0,0,1-.24,1.05,2,2,0,0,1-.66.7,2.88,2.88,0,0,1-1,.39,5.24,5.24,0,0,1-1.14.12l-.49,0q-.3,0-.6-.09a5.5,5.5,0,0,1-.58-.16A1.57,1.57,0,0,1,206.24,204.31Z" fill="#1e1e1e"/>
      <path d="M216.39,204.79a3.68,3.68,0,0,1-2.86-1.18,4.33,4.33,0,0,1-1.08-3.06,4.6,4.6,0,0,1,1.1-3.23,3.82,3.82,0,0,1,3-1.21,3.6,3.6,0,0,1,2.8,1.17,4.38,4.38,0,0,1,1.07,3.07,4.63,4.63,0,0,1-1.09,3.25,3.58,3.58,0,0,1-.55.49l2.36,1.69h-1.79l-1.58-1.18A4.52,4.52,0,0,1,216.39,204.79Zm.07-7.79a2.73,2.73,0,0,0-2.15.95,4.28,4.28,0,0,0,0,5,2.64,2.64,0,0,0,2.1.95,2.76,2.76,0,0,0,2.18-.9,3.73,3.73,0,0,0,.8-2.53,3.81,3.81,0,0,0-.78-2.57A2.62,2.62,0,0,0,216.46,197Z" fill="#1e1e1e"/>
      <path d="M226.41,204.65h-4.36v-8.4h1v7.51h3.37Z" fill="#1e1e1e"/>
      <path d="M177.93,217.85h-1v-1h0a2.22,2.22,0,0,1-2.07,1.16,2.25,2.25,0,0,1-1.8-.8,3.33,3.33,0,0,1-.68-2.2,3.59,3.59,0,0,1,.75-2.38,2.48,2.48,0,0,1,2-.9,2,2,0,0,1,1.8,1h0V209h1Zm-1-2.71v-.89a1.73,1.73,0,0,0-.48-1.23,1.78,1.78,0,0,0-2.6.14,2.82,2.82,0,0,0-.51,1.79,2.53,2.53,0,0,0,.49,1.63,1.57,1.57,0,0,0,1.3.6,1.64,1.64,0,0,0,1.3-.58A2.16,2.16,0,0,0,177,215.14Z" fill="#1e1e1e"/>
      <path d="M184.17,217.85h-1v-.94h0a2,2,0,0,1-1.85,1.08,2,2,0,0,1-1.4-.47,1.65,1.65,0,0,1-.51-1.26c0-1.12.66-1.78,2-2l1.8-.25c0-1-.41-1.53-1.24-1.53a3,3,0,0,0-1.95.74v-1a3.76,3.76,0,0,1,2-.56c1.41,0,2.11.75,2.11,2.24Zm-1-3-1.45.2a2.25,2.25,0,0,0-1,.33,1,1,0,0,0-.34.84.92.92,0,0,0,.31.72,1.24,1.24,0,0,0,.83.27,1.51,1.51,0,0,0,1.18-.5,1.78,1.78,0,0,0,.47-1.27Z" fill="#1e1e1e"/>
      <path d="M188.76,217.79a1.76,1.76,0,0,1-.89.19c-1.05,0-1.58-.58-1.58-1.76v-3.55h-1v-.82h1v-1.46l1-.31v1.77h1.51v.82h-1.51v3.38a1.35,1.35,0,0,0,.21.86.78.78,0,0,0,.68.26.94.94,0,0,0,.62-.2Z" fill="#1e1e1e"/>
      <path d="M194.34,217.85h-1v-.94h0a2.2,2.2,0,0,1-3.25.61,1.65,1.65,0,0,1-.51-1.26c0-1.12.66-1.78,2-2l1.8-.25q0-1.53-1.23-1.53a3,3,0,0,0-2,.74v-1a3.76,3.76,0,0,1,2-.56c1.41,0,2.11.75,2.11,2.24Zm-1-3-1.45.2a2.25,2.25,0,0,0-1,.33,1,1,0,0,0-.34.84.92.92,0,0,0,.31.72,1.25,1.25,0,0,0,.84.27,1.53,1.53,0,0,0,1.18-.5,1.77,1.77,0,0,0,.46-1.27Z" fill="#1e1e1e"/>
      <path d="M197.14,217h0v.87h-1V209h1v3.94h0a2.26,2.26,0,0,1,2.07-1.2,2.2,2.2,0,0,1,1.81.81,3.28,3.28,0,0,1,.65,2.16,3.72,3.72,0,0,1-.73,2.41,2.45,2.45,0,0,1-2,.9A2,2,0,0,1,197.14,217Zm0-2.42v.84a1.82,1.82,0,0,0,.49,1.27,1.73,1.73,0,0,0,2.59-.15,3.09,3.09,0,0,0,.5-1.86,2.47,2.47,0,0,0-.46-1.57,1.54,1.54,0,0,0-1.26-.57,1.7,1.7,0,0,0-1.35.58A2.15,2.15,0,0,0,197.11,214.56Z" fill="#1e1e1e"/>
      <path d="M207.5,217.85h-1v-.94h0a2.2,2.2,0,0,1-3.25.61,1.65,1.65,0,0,1-.51-1.26c0-1.12.66-1.78,2-2l1.8-.25q0-1.53-1.23-1.53a3,3,0,0,0-2,.74v-1a3.76,3.76,0,0,1,2-.56c1.41,0,2.11.75,2.11,2.24Zm-1-3-1.45.2a2.25,2.25,0,0,0-1,.33,1,1,0,0,0-.34.84.92.92,0,0,0,.31.72,1.25,1.25,0,0,0,.84.27,1.53,1.53,0,0,0,1.18-.5,1.77,1.77,0,0,0,.46-1.27Z" fill="#1e1e1e"/>
      <path d="M209,217.64v-1a2.82,2.82,0,0,0,1.73.58q1.26,0,1.26-.84a.76.76,0,0,0-.1-.41,1,1,0,0,0-.3-.29,1.59,1.59,0,0,0-.43-.23l-.54-.22a5.79,5.79,0,0,1-.7-.32,2,2,0,0,1-.5-.36,1.38,1.38,0,0,1-.31-.46,1.79,1.79,0,0,1-.1-.6,1.42,1.42,0,0,1,.2-.75,1.67,1.67,0,0,1,.51-.55,2.77,2.77,0,0,1,.74-.33,3.56,3.56,0,0,1,2.24.16v1a2.7,2.7,0,0,0-1.52-.43,1.88,1.88,0,0,0-.49.06,1.4,1.4,0,0,0-.37.17,1,1,0,0,0-.24.27.66.66,0,0,0-.08.34.82.82,0,0,0,.08.4.94.94,0,0,0,.25.28,2.11,2.11,0,0,0,.4.22l.53.22a6.21,6.21,0,0,1,.72.31,2.82,2.82,0,0,1,.54.36,1.57,1.57,0,0,1,.34.47,1.64,1.64,0,0,1-.08,1.4,1.58,1.58,0,0,1-.52.54,2.28,2.28,0,0,1-.76.33,3.68,3.68,0,0,1-.89.1A3.51,3.51,0,0,1,209,217.64Z" fill="#1e1e1e"/>
      <path d="M219.23,215.09H215a2.28,2.28,0,0,0,.54,1.55,1.87,1.87,0,0,0,1.42.54,3,3,0,0,0,1.86-.66v.9a3.5,3.5,0,0,1-2.09.57,2.56,2.56,0,0,1-2-.81,3.39,3.39,0,0,1-.72-2.3,3.29,3.29,0,0,1,.79-2.29,2.58,2.58,0,0,1,2-.88,2.27,2.27,0,0,1,1.82.76,3.2,3.2,0,0,1,.65,2.12Zm-1-.81a1.91,1.91,0,0,0-.4-1.3,1.36,1.36,0,0,0-1.1-.46,1.54,1.54,0,0,0-1.15.49,2.19,2.19,0,0,0-.59,1.27Z" fill="#1e1e1e"/>
    </g>
    <g>
      <path d="M431,84.56v3.18h-1v-8.4h2.31a3,3,0,0,1,2.09.65,2.37,2.37,0,0,1,.74,1.85,2.58,2.58,0,0,1-.82,2,3.14,3.14,0,0,1-2.23.76Zm0-4.33v3.44h1a2.3,2.3,0,0,0,1.55-.46,1.65,1.65,0,0,0,.54-1.32c0-1.11-.66-1.66-2-1.66Z" fill="#1e1e1e"/>
      <path d="M439.74,82.71a1.18,1.18,0,0,0-.73-.19,1.2,1.2,0,0,0-1,.58,2.62,2.62,0,0,0-.42,1.58v3.06h-1v-6h1V83h0a2,2,0,0,1,.62-1,1.45,1.45,0,0,1,.95-.36,1.65,1.65,0,0,1,.57.08Z" fill="#1e1e1e"/>
      <path d="M445.61,85h-4.24a2.3,2.3,0,0,0,.54,1.55,1.87,1.87,0,0,0,1.42.54,2.93,2.93,0,0,0,1.86-.67v.9a3.43,3.43,0,0,1-2.09.58,2.53,2.53,0,0,1-2-.82,3.36,3.36,0,0,1-.73-2.3,3.29,3.29,0,0,1,.8-2.28,2.53,2.53,0,0,1,2-.88,2.25,2.25,0,0,1,1.82.76,3.17,3.17,0,0,1,.65,2.11Zm-1-.82a2,2,0,0,0-.4-1.29,1.36,1.36,0,0,0-1.1-.46,1.55,1.55,0,0,0-1.15.48,2.25,2.25,0,0,0-.59,1.27Z" fill="#1e1e1e"/>
      <path d="M448,86.87h0V90.5h-1V81.74h1v1.05h0a2.3,2.3,0,0,1,2.08-1.19,2.21,2.21,0,0,1,1.81.8,3.37,3.37,0,0,1,.65,2.16,3.69,3.69,0,0,1-.73,2.41,2.44,2.44,0,0,1-2,.91A2,2,0,0,1,448,86.87Zm0-2.42v.84a1.77,1.77,0,0,0,.48,1.26,1.73,1.73,0,0,0,2.6-.15,3,3,0,0,0,.49-1.86,2.43,2.43,0,0,0-.46-1.57,1.54,1.54,0,0,0-1.25-.56,1.7,1.7,0,0,0-1.35.58A2.15,2.15,0,0,0,448,84.45Z" fill="#1e1e1e"/>
      <path d="M458.41,87.74h-1V86.8h0a2,2,0,0,1-1.84,1.08,1.93,1.93,0,0,1-1.4-.48,1.62,1.62,0,0,1-.51-1.26q0-1.68,2-2l1.8-.25c0-1-.41-1.53-1.24-1.53a2.94,2.94,0,0,0-1.95.73v-1a3.7,3.7,0,0,1,2-.56c1.41,0,2.12.74,2.12,2.24Zm-1-3-1.45.2a2.49,2.49,0,0,0-1,.33,1,1,0,0,0-.34.84.9.9,0,0,0,.32.72,1.18,1.18,0,0,0,.83.28,1.55,1.55,0,0,0,1.18-.5,1.8,1.8,0,0,0,.47-1.27Z" fill="#1e1e1e"/>
      <path d="M463.35,82.71a1.18,1.18,0,0,0-.73-.19,1.23,1.23,0,0,0-1,.58,2.7,2.7,0,0,0-.41,1.58v3.06h-1v-6h1V83h0a2.09,2.09,0,0,1,.63-1,1.42,1.42,0,0,1,.94-.36,1.71,1.71,0,0,1,.58.08Z" fill="#1e1e1e"/>
      <path d="M469.21,85H465a2.21,2.21,0,0,0,.54,1.55,1.85,1.85,0,0,0,1.41.54,2.94,2.94,0,0,0,1.87-.67v.9a3.45,3.45,0,0,1-2.09.58,2.52,2.52,0,0,1-2-.82,3.81,3.81,0,0,1,.07-4.58,2.51,2.51,0,0,1,2-.88,2.25,2.25,0,0,1,1.82.76,3.17,3.17,0,0,1,.64,2.11Zm-1-.82a2,2,0,0,0-.4-1.29,1.37,1.37,0,0,0-1.1-.46,1.55,1.55,0,0,0-1.15.48,2.19,2.19,0,0,0-.59,1.27Z" fill="#1e1e1e"/>
      <path d="M476.92,79.7a1.24,1.24,0,0,0-.64-.16c-.67,0-1,.42-1,1.27v.93h1.41v.82h-1.41v5.18h-.95V82.56h-1v-.82h1v-1a2.06,2.06,0,0,1,.54-1.5,1.87,1.87,0,0,1,1.36-.54,1.92,1.92,0,0,1,.7.1Z" fill="#1e1e1e"/>
      <path d="M478.2,80.21a.6.6,0,0,1-.44-.17.61.61,0,0,1-.18-.45.57.57,0,0,1,.18-.44.6.6,0,0,1,.44-.18.61.61,0,0,1,.45.18.58.58,0,0,1,.19.44.6.6,0,0,1-.19.44A.61.61,0,0,1,478.2,80.21Zm.47,7.53h-1v-6h1Z" fill="#1e1e1e"/>
      <path d="M485,81.74l-2,3,2,3h-1.12l-1.17-1.95c-.08-.12-.16-.27-.27-.45h0l-.28.45-1.2,1.95h-1.1l2-2.94-2-3.06H481l1.16,2.05c.09.15.17.31.26.47h0l1.5-2.52Z" fill="#1e1e1e"/>
      <path d="M491,85h-4.24a2.3,2.3,0,0,0,.54,1.55,1.87,1.87,0,0,0,1.42.54,2.93,2.93,0,0,0,1.86-.67v.9a3.43,3.43,0,0,1-2.09.58,2.52,2.52,0,0,1-2-.82,3.36,3.36,0,0,1-.73-2.3,3.29,3.29,0,0,1,.8-2.28,2.53,2.53,0,0,1,2-.88,2.25,2.25,0,0,1,1.82.76,3.17,3.17,0,0,1,.65,2.11Zm-1-.82a2,2,0,0,0-.4-1.29,1.36,1.36,0,0,0-1.1-.46,1.55,1.55,0,0,0-1.15.48,2.25,2.25,0,0,0-.59,1.27Z" fill="#1e1e1e"/>
      <path d="M492,87.52v-1a2.81,2.81,0,0,0,1.72.58c.85,0,1.27-.28,1.27-.84a.76.76,0,0,0-.11-.41,1.17,1.17,0,0,0-.29-.3,2.86,2.86,0,0,0-.43-.23l-.54-.21a6.76,6.76,0,0,1-.7-.32,2.22,2.22,0,0,1-.5-.36,1.38,1.38,0,0,1-.31-.46,1.66,1.66,0,0,1-.1-.61,1.44,1.44,0,0,1,.19-.75,1.78,1.78,0,0,1,.52-.54,2.21,2.21,0,0,1,.73-.33,3.05,3.05,0,0,1,.85-.11,3.46,3.46,0,0,1,1.4.27v1a2.7,2.7,0,0,0-1.52-.43,1.83,1.83,0,0,0-.49.06,1.26,1.26,0,0,0-.37.17.62.62,0,0,0-.24.27.67.67,0,0,0-.09.34.75.75,0,0,0,.09.39.74.74,0,0,0,.25.28,1.82,1.82,0,0,0,.39.23l.54.21a6.81,6.81,0,0,1,.71.32,2.42,2.42,0,0,1,.54.36,1.32,1.32,0,0,1,.34.47,1.46,1.46,0,0,1,.12.62,1.5,1.5,0,0,1-.19.78,1.61,1.61,0,0,1-.53.54,2.21,2.21,0,0,1-.75.32,3.82,3.82,0,0,1-.9.11A3.34,3.34,0,0,1,492,87.52Z" fill="#1e1e1e"/>
    </g>
    <g>
      <path d="M220.89,37.64H219.8l-.89-2.36h-3.56l-.84,2.36h-1.1l3.22-8.4h1Zm-2.3-3.24-1.32-3.58a2.75,2.75,0,0,1-.13-.56h0a3.23,3.23,0,0,1-.14.56l-1.31,3.58Z" fill="#1e1e1e"/>
      <path d="M221.63,37.42v-1a2.84,2.84,0,0,0,1.73.58c.85,0,1.27-.28,1.27-.84a.76.76,0,0,0-.11-.41,1.17,1.17,0,0,0-.29-.3,3,3,0,0,0-.44-.23l-.53-.21a6.76,6.76,0,0,1-.7-.32,2.29,2.29,0,0,1-.51-.36,1.52,1.52,0,0,1-.3-.46,1.62,1.62,0,0,1-.11-.61,1.39,1.39,0,0,1,.2-.74,1.78,1.78,0,0,1,.51-.55,2.26,2.26,0,0,1,.74-.33,3.41,3.41,0,0,1,.85-.11,3.46,3.46,0,0,1,1.4.27v1a2.74,2.74,0,0,0-1.53-.43,1.75,1.75,0,0,0-.48.06,1.33,1.33,0,0,0-.38.17,1,1,0,0,0-.24.27.77.77,0,0,0-.08.34.87.87,0,0,0,.08.39,1,1,0,0,0,.25.29,2.48,2.48,0,0,0,.4.22l.53.21c.27.11.51.21.72.32a2.82,2.82,0,0,1,.54.36,1.41,1.41,0,0,1,.34.47,1.46,1.46,0,0,1,.12.62,1.5,1.5,0,0,1-.19.78,1.71,1.71,0,0,1-.53.54,2.26,2.26,0,0,1-.76.32,3.24,3.24,0,0,1-.89.11A3.41,3.41,0,0,1,221.63,37.42Z" fill="#1e1e1e"/>
      <path d="M226.72,37.42v-1a2.84,2.84,0,0,0,1.73.58c.85,0,1.27-.28,1.27-.84a.76.76,0,0,0-.11-.41,1.17,1.17,0,0,0-.29-.3,3,3,0,0,0-.44-.23l-.53-.21a6.76,6.76,0,0,1-.7-.32,2.55,2.55,0,0,1-.51-.36,1.52,1.52,0,0,1-.3-.46,1.63,1.63,0,0,1-.1-.61,1.38,1.38,0,0,1,.19-.74,1.7,1.7,0,0,1,.52-.55,2.21,2.21,0,0,1,.73-.33,3.59,3.59,0,0,1,2.25.16v1a2.71,2.71,0,0,0-1.53-.43,1.75,1.75,0,0,0-.48.06,1.15,1.15,0,0,0-.37.17.76.76,0,0,0-.24.27.67.67,0,0,0-.09.34.75.75,0,0,0,.09.39.93.93,0,0,0,.24.29,2.48,2.48,0,0,0,.4.22l.54.21c.26.11.5.21.71.32a2.82,2.82,0,0,1,.54.36,1.41,1.41,0,0,1,.34.47,1.46,1.46,0,0,1,.12.62,1.5,1.5,0,0,1-.19.78,1.61,1.61,0,0,1-.53.54,2.3,2.3,0,0,1-.75.32,3.36,3.36,0,0,1-.9.11A3.41,3.41,0,0,1,226.72,37.42Z" fill="#1e1e1e"/>
      <path d="M237,34.88h-4.23a2.25,2.25,0,0,0,.53,1.55,1.88,1.88,0,0,0,1.42.54,2.94,2.94,0,0,0,1.87-.67v.91a3.53,3.53,0,0,1-2.1.57,2.51,2.51,0,0,1-2-.82,3.31,3.31,0,0,1-.73-2.3,3.28,3.28,0,0,1,.79-2.28,2.55,2.55,0,0,1,2-.88,2.25,2.25,0,0,1,1.82.76,3.18,3.18,0,0,1,.64,2.12Zm-1-.81a2,2,0,0,0-.4-1.3,1.37,1.37,0,0,0-1.1-.46,1.57,1.57,0,0,0-1.16.48,2.24,2.24,0,0,0-.58,1.28Z" fill="#1e1e1e"/>
      <path d="M238.09,37.42v-1a2.84,2.84,0,0,0,1.73.58c.84,0,1.27-.28,1.27-.84a.76.76,0,0,0-.11-.41,1.07,1.07,0,0,0-.3-.3,2.44,2.44,0,0,0-.43-.23l-.53-.21c-.27-.11-.5-.21-.71-.32a2.47,2.47,0,0,1-.5-.36,1.35,1.35,0,0,1-.3-.46,1.62,1.62,0,0,1-.11-.61,1.39,1.39,0,0,1,.2-.74,1.78,1.78,0,0,1,.51-.55,2.26,2.26,0,0,1,.74-.33,3.41,3.41,0,0,1,.85-.11,3.5,3.5,0,0,1,1.4.27v1a2.74,2.74,0,0,0-1.53-.43,1.75,1.75,0,0,0-.48.06,1.33,1.33,0,0,0-.38.17,1,1,0,0,0-.24.27.77.77,0,0,0-.08.34.87.87,0,0,0,.08.39,1,1,0,0,0,.25.29,2.11,2.11,0,0,0,.4.22l.53.21c.27.11.51.21.72.32a2.82,2.82,0,0,1,.54.36,1.41,1.41,0,0,1,.34.47,1.46,1.46,0,0,1,.12.62,1.42,1.42,0,0,1-.2.78,1.58,1.58,0,0,1-.52.54,2.26,2.26,0,0,1-.76.32,3.24,3.24,0,0,1-.89.11A3.41,3.41,0,0,1,238.09,37.42Z" fill="#1e1e1e"/>
      <path d="M243.18,37.42v-1a2.84,2.84,0,0,0,1.73.58c.85,0,1.27-.28,1.27-.84a.76.76,0,0,0-.11-.41,1.17,1.17,0,0,0-.29-.3,3,3,0,0,0-.44-.23l-.53-.21a6.76,6.76,0,0,1-.7-.32,2.55,2.55,0,0,1-.51-.36,1.52,1.52,0,0,1-.3-.46,1.63,1.63,0,0,1-.1-.61,1.38,1.38,0,0,1,.19-.74,1.78,1.78,0,0,1,.51-.55,2.26,2.26,0,0,1,.74-.33,3.59,3.59,0,0,1,2.25.16v1a2.71,2.71,0,0,0-1.53-.43,1.75,1.75,0,0,0-.48.06,1.15,1.15,0,0,0-.37.17.91.91,0,0,0-.25.27.77.77,0,0,0-.08.34.87.87,0,0,0,.08.39,1,1,0,0,0,.25.29,2.48,2.48,0,0,0,.4.22l.54.21c.26.11.5.21.71.32a2.82,2.82,0,0,1,.54.36,1.41,1.41,0,0,1,.34.47,1.46,1.46,0,0,1,.12.62,1.5,1.5,0,0,1-.19.78,1.61,1.61,0,0,1-.53.54,2.3,2.3,0,0,1-.75.32,3.36,3.36,0,0,1-.9.11A3.41,3.41,0,0,1,243.18,37.42Z" fill="#1e1e1e"/>
      <path d="M257.05,37.64h-1v-1h0A2.21,2.21,0,0,1,254,37.78a2.24,2.24,0,0,1-1.81-.81,3.28,3.28,0,0,1-.67-2.19,3.57,3.57,0,0,1,.75-2.38,2.46,2.46,0,0,1,2-.9,1.91,1.91,0,0,1,1.8,1h0V28.76h1Zm-1-2.71V34a1.73,1.73,0,0,0-.48-1.23,1.64,1.64,0,0,0-1.22-.5A1.67,1.67,0,0,0,253,33a2.87,2.87,0,0,0-.5,1.78,2.56,2.56,0,0,0,.48,1.64,1.6,1.6,0,0,0,1.3.6,1.65,1.65,0,0,0,1.31-.58A2.17,2.17,0,0,0,256.09,34.93Z" fill="#1e1e1e"/>
      <path d="M263.29,37.64h-1V36.7h0a2.2,2.2,0,0,1-3.25.61,1.68,1.68,0,0,1-.5-1.26c0-1.13.66-1.78,2-2l1.8-.25c0-1-.42-1.53-1.24-1.53a2.94,2.94,0,0,0-2,.74v-1a3.76,3.76,0,0,1,2-.56c1.41,0,2.12.75,2.12,2.24Zm-1-3-1.45.2a2.59,2.59,0,0,0-1,.33,1,1,0,0,0-.34.85.92.92,0,0,0,.31.71,1.2,1.2,0,0,0,.84.28,1.55,1.55,0,0,0,1.18-.5,1.8,1.8,0,0,0,.47-1.27Z" fill="#1e1e1e"/>
      <path d="M267.88,37.58a1.8,1.8,0,0,1-.9.19c-1.05,0-1.57-.59-1.57-1.76V32.46h-1v-.82h1V30.17l1-.31v1.78h1.51v.82h-1.51v3.38a1.45,1.45,0,0,0,.2.86.84.84,0,0,0,.68.26,1,1,0,0,0,.63-.2Z" fill="#1e1e1e"/>
      <path d="M273.46,37.64h-1V36.7h0a2,2,0,0,1-1.84,1.08,2,2,0,0,1-1.4-.47,1.65,1.65,0,0,1-.51-1.26c0-1.13.66-1.78,2-2l1.8-.25c0-1-.41-1.53-1.24-1.53a2.94,2.94,0,0,0-2,.74v-1a3.76,3.76,0,0,1,2-.56c1.41,0,2.12.75,2.12,2.24Zm-1-3-1.45.2a2.65,2.65,0,0,0-1,.33,1,1,0,0,0-.34.85.9.9,0,0,0,.32.71,1.18,1.18,0,0,0,.83.28,1.55,1.55,0,0,0,1.18-.5,1.8,1.8,0,0,0,.47-1.27Z" fill="#1e1e1e"/>
      <path d="M276.25,36.77h0v.87h-1V28.76h1v3.93h0a2.3,2.3,0,0,1,2.08-1.19,2.23,2.23,0,0,1,1.81.8,3.37,3.37,0,0,1,.65,2.16,3.73,3.73,0,0,1-.73,2.42,2.46,2.46,0,0,1-2,.9A2,2,0,0,1,276.25,36.77Zm0-2.42v.84a1.77,1.77,0,0,0,.48,1.26,1.73,1.73,0,0,0,2.6-.15,3,3,0,0,0,.49-1.85,2.39,2.39,0,0,0-.46-1.57,1.52,1.52,0,0,0-1.25-.57,1.7,1.7,0,0,0-1.35.58A2.15,2.15,0,0,0,276.23,34.35Z" fill="#1e1e1e"/>
      <path d="M286.62,37.64h-1V36.7h0a2,2,0,0,1-1.84,1.08,2,2,0,0,1-1.4-.47,1.65,1.65,0,0,1-.51-1.26c0-1.13.66-1.78,2-2l1.8-.25c0-1-.41-1.53-1.24-1.53a2.9,2.9,0,0,0-1.95.74v-1a3.7,3.7,0,0,1,2-.56c1.41,0,2.12.75,2.12,2.24Zm-1-3-1.45.2a2.65,2.65,0,0,0-1,.33,1,1,0,0,0-.34.85.9.9,0,0,0,.32.71A1.18,1.18,0,0,0,284,37a1.55,1.55,0,0,0,1.18-.5,1.8,1.8,0,0,0,.47-1.27Z" fill="#1e1e1e"/>
      <path d="M288.07,37.42v-1a2.82,2.82,0,0,0,1.73.58q1.26,0,1.26-.84a.76.76,0,0,0-.11-.41,1.17,1.17,0,0,0-.29-.3,2.86,2.86,0,0,0-.43-.23l-.54-.21a6.76,6.76,0,0,1-.7-.32,2.22,2.22,0,0,1-.5-.36,1.38,1.38,0,0,1-.31-.46,1.63,1.63,0,0,1-.1-.61,1.38,1.38,0,0,1,.19-.74,1.7,1.7,0,0,1,.52-.55,2.21,2.21,0,0,1,.73-.33,3.49,3.49,0,0,1,.86-.11,3.45,3.45,0,0,1,1.39.27v1a2.7,2.7,0,0,0-1.52-.43,1.83,1.83,0,0,0-.49.06,1.26,1.26,0,0,0-.37.17.76.76,0,0,0-.24.27.67.67,0,0,0-.09.34.75.75,0,0,0,.09.39.84.84,0,0,0,.25.29,2.11,2.11,0,0,0,.4.22l.53.21c.26.11.5.21.71.32a2.82,2.82,0,0,1,.54.36,1.41,1.41,0,0,1,.34.47,1.32,1.32,0,0,1,.13.62,1.51,1.51,0,0,1-.2.78,1.61,1.61,0,0,1-.53.54,2.21,2.21,0,0,1-.75.32,3.74,3.74,0,0,1-2.5-.25Z" fill="#1e1e1e"/>
      <path d="M298.34,34.88h-4.23a2.21,2.21,0,0,0,.54,1.55,1.85,1.85,0,0,0,1.41.54,2.94,2.94,0,0,0,1.87-.67v.91a3.52,3.52,0,0,1-2.09.57,2.52,2.52,0,0,1-2-.82,3.81,3.81,0,0,1,.07-4.58,2.51,2.51,0,0,1,2-.88,2.25,2.25,0,0,1,1.82.76,3.18,3.18,0,0,1,.64,2.12Zm-1-.81a2,2,0,0,0-.4-1.3,1.37,1.37,0,0,0-1.1-.46,1.55,1.55,0,0,0-1.15.48,2.19,2.19,0,0,0-.59,1.28Z" fill="#1e1e1e"/>
    </g>
    <g>
      <path d="M238.3,123.41V115h2.32q4.44,0,4.44,4.09a4.14,4.14,0,0,1-1.23,3.13,4.57,4.57,0,0,1-3.3,1.18Zm1-7.51v6.62h1.26a3.55,3.55,0,0,0,2.57-.88,3.34,3.34,0,0,0,.92-2.51c0-2.15-1.15-3.23-3.43-3.23Z" fill="#1e1e1e"/>
      <path d="M251.41,120.65h-4.24a2.3,2.3,0,0,0,.54,1.55,1.87,1.87,0,0,0,1.42.54,3,3,0,0,0,1.86-.66v.9a3.5,3.5,0,0,1-2.09.57,2.52,2.52,0,0,1-2-.82,3.36,3.36,0,0,1-.73-2.3,3.29,3.29,0,0,1,.8-2.28,2.53,2.53,0,0,1,2-.88,2.25,2.25,0,0,1,1.82.76,3.2,3.2,0,0,1,.65,2.12Zm-1-.81a2,2,0,0,0-.4-1.3,1.36,1.36,0,0,0-1.1-.46,1.52,1.52,0,0,0-1.15.49,2.19,2.19,0,0,0-.59,1.27Z" fill="#1e1e1e"/>
      <path d="M253.84,122.54h0v3.63h-1v-8.76h1v1.06h0a2.29,2.29,0,0,1,2.08-1.2,2.19,2.19,0,0,1,1.81.81,3.33,3.33,0,0,1,.65,2.16,3.78,3.78,0,0,1-.73,2.41,2.46,2.46,0,0,1-2,.9A2,2,0,0,1,253.84,122.54Zm0-2.42V121a1.77,1.77,0,0,0,.48,1.26,1.73,1.73,0,0,0,2.6-.14,3.09,3.09,0,0,0,.49-1.86,2.41,2.41,0,0,0-.46-1.57,1.52,1.52,0,0,0-1.25-.57,1.7,1.7,0,0,0-1.35.58A2.15,2.15,0,0,0,253.82,120.12Z" fill="#1e1e1e"/>
      <path d="M260.88,123.41h-1v-8.88h1Z" fill="#1e1e1e"/>
      <path d="M265.33,123.55a2.79,2.79,0,0,1-2.13-.84,3.1,3.1,0,0,1-.79-2.23,3.25,3.25,0,0,1,.83-2.36,3,3,0,0,1,2.23-.85,2.69,2.69,0,0,1,2.09.83,3.75,3.75,0,0,1-.05,4.59A2.88,2.88,0,0,1,265.33,123.55Zm.07-5.47a1.84,1.84,0,0,0-1.47.63,2.59,2.59,0,0,0-.54,1.74,2.46,2.46,0,0,0,.55,1.68,1.85,1.85,0,0,0,1.46.61,1.75,1.75,0,0,0,1.43-.6,2.58,2.58,0,0,0,.5-1.72,2.61,2.61,0,0,0-.5-1.73A1.73,1.73,0,0,0,265.4,118.08Z" fill="#1e1e1e"/>
      <path d="M274.63,117.41l-2.76,7c-.49,1.24-1.19,1.87-2.08,1.87a2.12,2.12,0,0,1-.62-.08v-.86a1.7,1.7,0,0,0,.56.1,1.17,1.17,0,0,0,1.09-.86l.48-1.14-2.34-6H270l1.62,4.62c0,.06.06.21.12.46h0q0-.15.12-.45l1.7-4.63Z" fill="#1e1e1e"/>
      <path d="M281.91,115.37a1.35,1.35,0,0,0-.64-.16c-.67,0-1,.43-1,1.28v.92h1.41v.82h-1.41v5.18h-.95v-5.18h-1v-.82h1v-1a2,2,0,0,1,.54-1.49,1.84,1.84,0,0,1,1.36-.55,1.89,1.89,0,0,1,.7.1Z" fill="#1e1e1e"/>
      <path d="M283.19,115.89a.62.62,0,0,1-.44-.18.59.59,0,0,1-.18-.44.61.61,0,0,1,.18-.45.62.62,0,0,1,.44-.18.61.61,0,0,1,.45.18.62.62,0,0,1,.19.45.63.63,0,0,1-.19.44A.61.61,0,0,1,283.19,115.89Zm.47,7.52h-1v-6h1Z" fill="#1e1e1e"/>
      <path d="M290,117.41l-2,3,2,3h-1.12l-1.18-1.94-.27-.46h0l-.27.46-1.21,1.94h-1.1l2-2.94-1.95-3.06H286l1.16,2c.09.15.17.31.26.47h0l1.5-2.52Z" fill="#1e1e1e"/>
      <path d="M295.94,120.65H291.7a2.3,2.3,0,0,0,.54,1.55,1.87,1.87,0,0,0,1.42.54,3,3,0,0,0,1.86-.66v.9a3.5,3.5,0,0,1-2.09.57,2.53,2.53,0,0,1-2-.82,3.35,3.35,0,0,1-.72-2.3,3.28,3.28,0,0,1,.79-2.28,2.54,2.54,0,0,1,2-.88,2.24,2.24,0,0,1,1.82.76,3.2,3.2,0,0,1,.65,2.12Zm-1-.81a1.91,1.91,0,0,0-.4-1.3,1.36,1.36,0,0,0-1.1-.46,1.54,1.54,0,0,0-1.15.49,2.19,2.19,0,0,0-.59,1.27Z" fill="#1e1e1e"/>
      <path d="M297,123.19v-1a2.82,2.82,0,0,0,1.73.58q1.26,0,1.26-.84a.68.68,0,0,0-.11-.41,1,1,0,0,0-.29-.29,2.19,2.19,0,0,0-.43-.24l-.54-.21a5.16,5.16,0,0,1-.7-.32,2.22,2.22,0,0,1-.5-.36,1.38,1.38,0,0,1-.31-.46,1.59,1.59,0,0,1-.1-.61,1.38,1.38,0,0,1,.19-.74,1.7,1.7,0,0,1,.52-.55,2.71,2.71,0,0,1,.73-.33,3.49,3.49,0,0,1,.86-.11,3.41,3.41,0,0,1,1.39.27v1a2.7,2.7,0,0,0-1.52-.43,1.88,1.88,0,0,0-.49.06,1.26,1.26,0,0,0-.37.17,1,1,0,0,0-.24.27.67.67,0,0,0-.09.34.82.82,0,0,0,.09.4,1.07,1.07,0,0,0,.25.28,2.11,2.11,0,0,0,.4.22l.53.22a6.85,6.85,0,0,1,.71.31,2.53,2.53,0,0,1,.54.36,1.45,1.45,0,0,1,.35.47,1.48,1.48,0,0,1,.12.63,1.5,1.5,0,0,1-.2.77,1.68,1.68,0,0,1-.52.54,2.37,2.37,0,0,1-.76.33,3.76,3.76,0,0,1-.9.1A3.37,3.37,0,0,1,297,123.19Z" fill="#1e1e1e"/>
    </g>
    <g>
      <path d="M321.72,10.2V1.8H324q4.44,0,4.44,4.09A4.14,4.14,0,0,1,327.25,9,4.59,4.59,0,0,1,324,10.2Zm1-7.51V9.31H324a3.55,3.55,0,0,0,2.57-.88,3.34,3.34,0,0,0,.92-2.51c0-2.15-1.15-3.23-3.43-3.23Z" fill="#1e1e1e"/>
      <path d="M334.3,10.2h-1V9.26h0a2,2,0,0,1-1.84,1.08,2,2,0,0,1-1.4-.47,1.65,1.65,0,0,1-.51-1.26c0-1.12.66-1.78,2-2l1.8-.25c0-1-.41-1.53-1.24-1.53a3,3,0,0,0-2,.74v-1a3.76,3.76,0,0,1,2-.56c1.41,0,2.12.75,2.12,2.24Zm-1-3-1.45.2a2.35,2.35,0,0,0-1,.33,1,1,0,0,0-.34.84.9.9,0,0,0,.32.71,1.18,1.18,0,0,0,.83.28,1.51,1.51,0,0,0,1.18-.5,1.78,1.78,0,0,0,.47-1.27Z" fill="#1e1e1e"/>
      <path d="M338.89,10.14a1.76,1.76,0,0,1-.89.19c-1.05,0-1.58-.59-1.58-1.76V5h-1V4.2h1V2.74l1-.31V4.2h1.51V5h-1.51V8.4a1.37,1.37,0,0,0,.21.86.78.78,0,0,0,.68.26.94.94,0,0,0,.62-.2Z" fill="#1e1e1e"/>
      <path d="M344.47,10.2h-1V9.26h0a2,2,0,0,1-1.85,1.08,2,2,0,0,1-1.4-.47,1.65,1.65,0,0,1-.51-1.26c0-1.12.66-1.78,2-2l1.8-.25c0-1-.41-1.53-1.24-1.53a3,3,0,0,0-1.95.74v-1a3.76,3.76,0,0,1,2-.56c1.41,0,2.11.75,2.11,2.24Zm-1-3-1.45.2a2.35,2.35,0,0,0-1,.33,1,1,0,0,0-.33.84.89.89,0,0,0,.31.71,1.19,1.19,0,0,0,.83.28A1.51,1.51,0,0,0,343,9a1.78,1.78,0,0,0,.47-1.27Z" fill="#1e1e1e"/>
      <path d="M358.26,10.2h-1V4.56c0-.44,0-1,.08-1.63h0a4.19,4.19,0,0,1-.25.81l-2.87,6.46h-.48l-2.86-6.41a4.54,4.54,0,0,1-.26-.86h0c0,.34,0,.88,0,1.65V10.2h-.95V1.8H351l2.58,5.86a7,7,0,0,1,.38,1h0c.17-.46.3-.81.4-1L357,1.8h1.23Z" fill="#1e1e1e"/>
      <path d="M360.84,2.68a.61.61,0,0,1-.62-.62.61.61,0,0,1,.18-.45.59.59,0,0,1,.44-.18.6.6,0,0,1,.44.18.58.58,0,0,1,.19.45.58.58,0,0,1-.19.44A.6.6,0,0,1,360.84,2.68Zm.46,7.52h-1v-6h1Z" fill="#1e1e1e"/>
      <path d="M368.37,9.72c0,2.2-1.05,3.31-3.16,3.31a4.31,4.31,0,0,1-1.95-.43v-1a4,4,0,0,0,1.94.57c1.47,0,2.21-.79,2.21-2.36V9.19h0a2.43,2.43,0,0,1-3.87.35,3.22,3.22,0,0,1-.68-2.15A3.75,3.75,0,0,1,363.58,5a2.46,2.46,0,0,1,2-.9,2,2,0,0,1,1.8,1h0V4.2h1Zm-1-2.23V6.6a1.72,1.72,0,0,0-.48-1.22,1.62,1.62,0,0,0-1.21-.51,1.64,1.64,0,0,0-1.39.65,2.85,2.85,0,0,0-.51,1.81,2.48,2.48,0,0,0,.49,1.6,1.56,1.56,0,0,0,1.28.6A1.65,1.65,0,0,0,366.9,9,2.12,2.12,0,0,0,367.41,7.49Z" fill="#1e1e1e"/>
      <path d="M373.45,5.17a1.18,1.18,0,0,0-.73-.19,1.23,1.23,0,0,0-1,.58,2.72,2.72,0,0,0-.41,1.58V10.2h-1v-6h1V5.44h0a2.17,2.17,0,0,1,.63-1,1.39,1.39,0,0,1,.94-.35,1.52,1.52,0,0,1,.58.08Z" fill="#1e1e1e"/>
      <path d="M378.78,10.2h-1V9.26h0a2.2,2.2,0,0,1-3.25.61A1.65,1.65,0,0,1,374,8.61c0-1.12.66-1.78,2-2l1.8-.25q0-1.53-1.23-1.53a3,3,0,0,0-2,.74v-1a3.76,3.76,0,0,1,2-.56c1.41,0,2.11.75,2.11,2.24Zm-1-3-1.44.2a2.25,2.25,0,0,0-1,.33.93.93,0,0,0-.34.84.89.89,0,0,0,.31.71,1.2,1.2,0,0,0,.84.28,1.53,1.53,0,0,0,1.18-.5,1.77,1.77,0,0,0,.46-1.27Z" fill="#1e1e1e"/>
      <path d="M383.38,10.14a1.82,1.82,0,0,1-.9.19c-1.05,0-1.58-.59-1.58-1.76V5h-1V4.2h1V2.74l1-.31V4.2h1.51V5h-1.51V8.4a1.38,1.38,0,0,0,.2.86.8.8,0,0,0,.68.26,1,1,0,0,0,.63-.2Z" fill="#1e1e1e"/>
      <path d="M385.15,2.68a.6.6,0,0,1-.44-.18.59.59,0,0,1-.18-.44.61.61,0,0,1,.18-.45.6.6,0,0,1,.44-.18.61.61,0,0,1,.45.18.62.62,0,0,1,0,.89A.61.61,0,0,1,385.15,2.68Zm.47,7.52h-1v-6h1Z" fill="#1e1e1e"/>
      <path d="M390.07,10.34A2.79,2.79,0,0,1,388,9.5a3.1,3.1,0,0,1-.79-2.23A3.24,3.24,0,0,1,388,4.91a3,3,0,0,1,2.24-.85,2.69,2.69,0,0,1,2.09.83,3.27,3.27,0,0,1,.75,2.29,3.25,3.25,0,0,1-.81,2.3A2.87,2.87,0,0,1,390.07,10.34Zm.07-5.47a1.83,1.83,0,0,0-1.46.63,2.59,2.59,0,0,0-.54,1.74,2.41,2.41,0,0,0,.55,1.68,1.84,1.84,0,0,0,1.45.61,1.77,1.77,0,0,0,1.44-.6,2.63,2.63,0,0,0,.5-1.72,2.66,2.66,0,0,0-.5-1.73A1.75,1.75,0,0,0,390.14,4.87Z" fill="#1e1e1e"/>
      <path d="M399.58,10.2h-1V6.78c0-1.27-.47-1.91-1.4-1.91a1.5,1.5,0,0,0-1.19.54,2,2,0,0,0-.47,1.37V10.2h-1v-6h1v1h0a2.17,2.17,0,0,1,2-1.14,1.83,1.83,0,0,1,1.51.64,2.85,2.85,0,0,1,.52,1.83Z" fill="#1e1e1e"/>
      <path d="M325.92,23.4h-1.09l-.89-2.35h-3.57l-.83,2.35h-1.1l3.22-8.4h1Zm-2.31-3.24-1.31-3.58a2.59,2.59,0,0,1-.13-.56h0a3.36,3.36,0,0,1-.13.56l-1.31,3.58Z" fill="#1e1e1e"/>
      <path d="M326.66,23.18v-1a2.82,2.82,0,0,0,1.73.58c.84,0,1.27-.28,1.27-.84a.76.76,0,0,0-.11-.41,1,1,0,0,0-.3-.29,1.59,1.59,0,0,0-.43-.23l-.54-.22a6.6,6.6,0,0,1-.7-.32,2.47,2.47,0,0,1-.5-.36,1.35,1.35,0,0,1-.3-.46,1.57,1.57,0,0,1-.11-.6,1.4,1.4,0,0,1,.2-.75,1.78,1.78,0,0,1,.51-.55,2.77,2.77,0,0,1,.74-.33,3.56,3.56,0,0,1,2.24.16v1a2.68,2.68,0,0,0-1.52-.43,1.88,1.88,0,0,0-.49.06,1.4,1.4,0,0,0-.37.17,1,1,0,0,0-.24.27.77.77,0,0,0-.08.34,1,1,0,0,0,.08.4,1.07,1.07,0,0,0,.25.28,2.11,2.11,0,0,0,.4.22l.53.22a6.21,6.21,0,0,1,.72.31,2.82,2.82,0,0,1,.54.36,1.41,1.41,0,0,1,.34.47,1.48,1.48,0,0,1,.12.63,1.5,1.5,0,0,1-.2.77,1.58,1.58,0,0,1-.52.54,2.28,2.28,0,0,1-.76.33,3.68,3.68,0,0,1-.89.1A3.39,3.39,0,0,1,326.66,23.18Z" fill="#1e1e1e"/>
      <path d="M331.75,23.18v-1a2.84,2.84,0,0,0,1.73.58c.85,0,1.27-.28,1.27-.84a.76.76,0,0,0-.11-.41,1,1,0,0,0-.29-.29,1.83,1.83,0,0,0-.44-.23l-.53-.22a5.16,5.16,0,0,1-.7-.32,2.29,2.29,0,0,1-.51-.36,1.52,1.52,0,0,1-.3-.46,1.57,1.57,0,0,1-.11-.6,1.4,1.4,0,0,1,.2-.75,1.78,1.78,0,0,1,.51-.55,2.77,2.77,0,0,1,.74-.33,3.41,3.41,0,0,1,.85-.11,3.46,3.46,0,0,1,1.4.27v1a2.74,2.74,0,0,0-1.53-.43,1.75,1.75,0,0,0-.48.06,1.33,1.33,0,0,0-.38.17,1,1,0,0,0-.24.27.77.77,0,0,0-.08.34,1,1,0,0,0,.08.4,1.07,1.07,0,0,0,.25.28,2.48,2.48,0,0,0,.4.22L334,20a6.21,6.21,0,0,1,.72.31,2.82,2.82,0,0,1,.54.36,1.41,1.41,0,0,1,.34.47,1.48,1.48,0,0,1,.12.63,1.49,1.49,0,0,1-.19.77,1.71,1.71,0,0,1-.53.54,2.32,2.32,0,0,1-.75.33,3.82,3.82,0,0,1-.9.1A3.41,3.41,0,0,1,331.75,23.18Z" fill="#1e1e1e"/>
      <path d="M337.7,15.88a.6.6,0,0,1-.44-.18.59.59,0,0,1-.18-.44.61.61,0,0,1,.18-.45.6.6,0,0,1,.44-.18.62.62,0,0,1,.63.63.6.6,0,0,1-.18.44A.61.61,0,0,1,337.7,15.88Zm.47,7.52h-1v-6h1Z" fill="#1e1e1e"/>
      <path d="M339.75,23.18v-1a2.82,2.82,0,0,0,1.73.58c.84,0,1.27-.28,1.27-.84a.76.76,0,0,0-.11-.41,1,1,0,0,0-.3-.29,1.59,1.59,0,0,0-.43-.23l-.54-.22a6.6,6.6,0,0,1-.7-.32,2.22,2.22,0,0,1-.5-.36,1.35,1.35,0,0,1-.3-.46,1.57,1.57,0,0,1-.11-.6,1.4,1.4,0,0,1,.2-.75,1.78,1.78,0,0,1,.51-.55,2.77,2.77,0,0,1,.74-.33,3.56,3.56,0,0,1,2.24.16v1a2.68,2.68,0,0,0-1.52-.43,1.88,1.88,0,0,0-.49.06,1.4,1.4,0,0,0-.37.17,1,1,0,0,0-.24.27.77.77,0,0,0-.08.34,1,1,0,0,0,.08.4,1.07,1.07,0,0,0,.25.28,2.11,2.11,0,0,0,.4.22L342,20a6.21,6.21,0,0,1,.72.31,2.82,2.82,0,0,1,.54.36,1.41,1.41,0,0,1,.34.47,1.48,1.48,0,0,1,.12.63,1.5,1.5,0,0,1-.2.77,1.58,1.58,0,0,1-.52.54,2.28,2.28,0,0,1-.76.33,3.68,3.68,0,0,1-.89.1A3.39,3.39,0,0,1,339.75,23.18Z" fill="#1e1e1e"/>
      <path d="M348,23.34a1.82,1.82,0,0,1-.9.19c-1,0-1.57-.59-1.57-1.76V18.22h-1V17.4h1V15.94l1-.31V17.4H348v.82h-1.51V21.6a1.45,1.45,0,0,0,.2.86.81.81,0,0,0,.68.26,1,1,0,0,0,.63-.2Z" fill="#1e1e1e"/>
      <path d="M353.57,23.4h-1v-.94h0a2.2,2.2,0,0,1-3.25.61,1.68,1.68,0,0,1-.5-1.26c0-1.12.66-1.78,2-2l1.8-.25c0-1-.42-1.53-1.24-1.53a3,3,0,0,0-2,.74v-1a3.76,3.76,0,0,1,2-.56c1.41,0,2.12.75,2.12,2.24Zm-1-3-1.45.2a2.3,2.3,0,0,0-1,.33,1.08,1.08,0,0,0,0,1.56,1.2,1.2,0,0,0,.83.27,1.51,1.51,0,0,0,1.18-.5,1.78,1.78,0,0,0,.47-1.27Z" fill="#1e1e1e"/>
      <path d="M360.36,23.4h-1V20c0-1.27-.47-1.91-1.4-1.91a1.52,1.52,0,0,0-1.19.54,2,2,0,0,0-.47,1.37V23.4h-1v-6h1v1h0a2.17,2.17,0,0,1,2-1.14,1.83,1.83,0,0,1,1.51.64,2.85,2.85,0,0,1,.52,1.83Z" fill="#1e1e1e"/>
      <path d="M365,23.34a1.76,1.76,0,0,1-.89.19c-1.05,0-1.58-.59-1.58-1.76V18.22h-1V17.4h1V15.94l1-.31V17.4H365v.82h-1.51V21.6a1.37,1.37,0,0,0,.21.86.78.78,0,0,0,.68.26.94.94,0,0,0,.62-.2Z" fill="#1e1e1e"/>
      <path d="M372,25.31h-.85a7.49,7.49,0,0,1-1.82-5.11,7.78,7.78,0,0,1,1.82-5.2h.86a7.91,7.91,0,0,0-1.84,5.18A7.75,7.75,0,0,0,372,25.31Z" fill="#1e1e1e"/>
      <path d="M373.27,23.4V15h2.32Q380,15,380,19.09a4.14,4.14,0,0,1-1.23,3.13,4.55,4.55,0,0,1-3.3,1.18Zm1-7.51v6.62h1.25a3.55,3.55,0,0,0,2.57-.88,3.3,3.3,0,0,0,.92-2.51q0-3.23-3.43-3.23Z" fill="#1e1e1e"/>
      <path d="M390.25,23.4h-1V17.76c0-.44,0-1,.09-1.63h0a4.19,4.19,0,0,1-.25.81l-2.87,6.46h-.48L382.86,17a5.64,5.64,0,0,1-.25-.86h0c0,.34.05.88.05,1.65V23.4h-.95V15H383l2.58,5.86a8.52,8.52,0,0,1,.38,1h0c.17-.46.3-.81.4-1L389,15h1.23Z" fill="#1e1e1e"/>
      <path d="M399,23.4h-1.09L397,21.05h-3.57l-.83,2.35h-1.1l3.22-8.4h1Zm-2.31-3.24-1.32-3.58a3.61,3.61,0,0,1-.12-.56h0a3.36,3.36,0,0,1-.13.56l-1.31,3.58Z" fill="#1e1e1e"/>
      <path d="M400.1,25.31h-.86a7.75,7.75,0,0,0,1.83-5.13A7.86,7.86,0,0,0,399.23,15h.87a7.73,7.73,0,0,1,1.82,5.2A7.44,7.44,0,0,1,400.1,25.31Z" fill="#1e1e1e"/>
    </g>
    <g>
      <path d="M177.7,167.31h-1v-5.63c0-.45,0-1,.08-1.64h0a7.28,7.28,0,0,1-.25.82l-2.88,6.45h-.48l-2.86-6.41a4.44,4.44,0,0,1-.25-.86h0c0,.34.05.89.05,1.65v5.62h-1v-8.4h1.3l2.58,5.86a7.92,7.92,0,0,1,.39,1h0c.17-.46.31-.81.41-1l2.63-5.84h1.23Z" fill="#1e1e1e"/>
      <path d="M180.27,159.79a.64.64,0,0,1-.44-.17.65.65,0,0,1,0-.9.6.6,0,0,1,.44-.18.62.62,0,0,1,.63.63.6.6,0,0,1-.18.44A.61.61,0,0,1,180.27,159.79Zm.47,7.52h-1v-6h1Z" fill="#1e1e1e"/>
      <path d="M187.81,166.83q0,3.31-3.17,3.31a4.23,4.23,0,0,1-1.94-.42v-1a4,4,0,0,0,1.93.56c1.48,0,2.21-.79,2.21-2.36v-.65h0a2.42,2.42,0,0,1-3.86.35,3.19,3.19,0,0,1-.69-2.15,3.73,3.73,0,0,1,.74-2.43,2.44,2.44,0,0,1,2-.91,2,2,0,0,1,1.8,1h0v-.84h1Zm-1-2.23v-.88a1.73,1.73,0,0,0-.48-1.23,1.58,1.58,0,0,0-1.2-.51,1.68,1.68,0,0,0-1.4.65,2.93,2.93,0,0,0-.5,1.81,2.51,2.51,0,0,0,.48,1.61,1.56,1.56,0,0,0,1.28.6,1.67,1.67,0,0,0,1.32-.58A2.12,2.12,0,0,0,186.84,164.6Z" fill="#1e1e1e"/>
      <path d="M192.88,162.29a1.18,1.18,0,0,0-.73-.2,1.25,1.25,0,0,0-1,.58,2.75,2.75,0,0,0-.41,1.59v3.05h-1v-6h1v1.24h0a2.08,2.08,0,0,1,.62-1,1.47,1.47,0,0,1,.95-.35,1.65,1.65,0,0,1,.57.08Z" fill="#1e1e1e"/>
      <path d="M198.22,167.31h-1v-.93h0a2,2,0,0,1-1.84,1.08A2,2,0,0,1,194,167a1.68,1.68,0,0,1-.5-1.26c0-1.12.66-1.77,2-2l1.8-.25c0-1-.42-1.53-1.24-1.53a3,3,0,0,0-2,.74v-1a3.68,3.68,0,0,1,2-.57c1.41,0,2.12.75,2.12,2.24Zm-1-3-1.45.2a2.3,2.3,0,0,0-1,.33,1,1,0,0,0-.34.84.93.93,0,0,0,.32.72,1.21,1.21,0,0,0,.83.28,1.55,1.55,0,0,0,1.18-.5,1.81,1.81,0,0,0,.47-1.27Z" fill="#1e1e1e"/>
      <path d="M202.81,167.26a1.92,1.92,0,0,1-.9.18c-1,0-1.57-.58-1.57-1.75v-3.56h-1v-.82h1v-1.46l1-.31v1.77h1.51v.82H201.3v3.39a1.45,1.45,0,0,0,.2.86.83.83,0,0,0,.68.25,1,1,0,0,0,.63-.19Z" fill="#1e1e1e"/>
      <path d="M208.92,164.55h-4.24a2.28,2.28,0,0,0,.54,1.55,1.87,1.87,0,0,0,1.42.55,3,3,0,0,0,1.86-.67v.9a3.5,3.5,0,0,1-2.09.58,2.56,2.56,0,0,1-2-.82,3.37,3.37,0,0,1-.73-2.3,3.25,3.25,0,0,1,.8-2.28,2.54,2.54,0,0,1,2-.89,2.24,2.24,0,0,1,1.82.77,3.15,3.15,0,0,1,.65,2.11Zm-1-.81a1.93,1.93,0,0,0-.4-1.29,1.36,1.36,0,0,0-1.1-.47,1.52,1.52,0,0,0-1.15.49,2.22,2.22,0,0,0-.59,1.27Z" fill="#1e1e1e"/>
      <path d="M216.44,167.26a2,2,0,0,1-.9.18c-1,0-1.57-.58-1.57-1.75v-3.56h-1v-.82h1v-1.46l1-.31v1.77h1.51v.82h-1.51v3.39a1.45,1.45,0,0,0,.2.86.83.83,0,0,0,.68.25,1,1,0,0,0,.63-.19Z" fill="#1e1e1e"/>
      <path d="M222.7,167.31h-1v-3.45c0-1.25-.46-1.88-1.39-1.88a1.55,1.55,0,0,0-1.19.54,2.05,2.05,0,0,0-.48,1.4v3.39h-1v-8.88h1v3.88h0a2.17,2.17,0,0,1,2-1.14c1.35,0,2,.82,2,2.45Z" fill="#1e1e1e"/>
      <path d="M229.34,164.55H225.1a2.28,2.28,0,0,0,.54,1.55,1.87,1.87,0,0,0,1.42.55,3,3,0,0,0,1.86-.67v.9a3.5,3.5,0,0,1-2.09.58,2.56,2.56,0,0,1-2-.82,3.37,3.37,0,0,1-.73-2.3,3.25,3.25,0,0,1,.8-2.28,2.54,2.54,0,0,1,2-.89,2.26,2.26,0,0,1,1.82.77,3.15,3.15,0,0,1,.65,2.11Zm-1-.81a1.93,1.93,0,0,0-.4-1.29,1.36,1.36,0,0,0-1.1-.47,1.52,1.52,0,0,0-1.15.49,2.22,2.22,0,0,0-.59,1.27Z" fill="#1e1e1e"/>
      <path d="M239.2,167.31h-1v-1h0a2.21,2.21,0,0,1-2.06,1.17,2.24,2.24,0,0,1-1.81-.81,3.31,3.31,0,0,1-.67-2.19,3.6,3.6,0,0,1,.75-2.39,2.46,2.46,0,0,1,2-.9,1.92,1.92,0,0,1,1.8,1h0v-3.72h1Zm-1-2.71v-.88a1.7,1.7,0,0,0-.48-1.23,1.61,1.61,0,0,0-1.22-.51,1.68,1.68,0,0,0-1.39.65,2.85,2.85,0,0,0-.5,1.78,2.56,2.56,0,0,0,.48,1.64,1.6,1.6,0,0,0,1.3.6,1.68,1.68,0,0,0,1.31-.58A2.2,2.2,0,0,0,238.24,164.6Z" fill="#1e1e1e"/>
      <path d="M245.44,167.31h-1v-.93h0a2,2,0,0,1-1.84,1.08,2,2,0,0,1-1.41-.48,1.68,1.68,0,0,1-.5-1.26c0-1.12.66-1.77,2-2l1.8-.25c0-1-.41-1.53-1.24-1.53a3,3,0,0,0-2,.74v-1a3.68,3.68,0,0,1,2-.57c1.41,0,2.12.75,2.12,2.24Zm-1-3-1.45.2a2.35,2.35,0,0,0-1,.33,1,1,0,0,0-.34.84.93.93,0,0,0,.32.72,1.22,1.22,0,0,0,.83.28,1.55,1.55,0,0,0,1.18-.5,1.81,1.81,0,0,0,.47-1.27Z" fill="#1e1e1e"/>
      <path d="M250,167.26a1.87,1.87,0,0,1-.89.18c-1,0-1.58-.58-1.58-1.75v-3.56h-1v-.82h1v-1.46l1-.31v1.77H250v.82h-1.51v3.39a1.37,1.37,0,0,0,.21.86.81.81,0,0,0,.68.25,1,1,0,0,0,.62-.19Z" fill="#1e1e1e"/>
      <path d="M255.61,167.31h-1v-.93h0a2,2,0,0,1-1.85,1.08,2,2,0,0,1-1.4-.48,1.65,1.65,0,0,1-.51-1.26c0-1.12.66-1.77,2-2l1.8-.25c0-1-.41-1.53-1.24-1.53a3,3,0,0,0-1.95.74v-1a3.68,3.68,0,0,1,2-.57c1.41,0,2.11.75,2.11,2.24Zm-1-3-1.45.2a2.35,2.35,0,0,0-1,.33,1,1,0,0,0-.34.84.93.93,0,0,0,.32.72,1.24,1.24,0,0,0,.83.28,1.55,1.55,0,0,0,1.18-.5,1.81,1.81,0,0,0,.47-1.27Z" fill="#1e1e1e"/>
      <path d="M258.41,166.45h0v.86h-1v-8.88h1v3.94h0a2.26,2.26,0,0,1,2.07-1.2,2.2,2.2,0,0,1,1.81.81,3.37,3.37,0,0,1,.65,2.16,3.71,3.71,0,0,1-.73,2.41,2.46,2.46,0,0,1-2,.91A2,2,0,0,1,258.41,166.45Zm0-2.42v.84a1.77,1.77,0,0,0,.49,1.26,1.71,1.71,0,0,0,2.59-.15,3.09,3.09,0,0,0,.5-1.86,2.41,2.41,0,0,0-.47-1.57,1.52,1.52,0,0,0-1.25-.57,1.71,1.71,0,0,0-1.35.59A2.11,2.11,0,0,0,258.38,164Z" fill="#1e1e1e"/>
      <path d="M268.77,167.31h-1v-.93h0a2,2,0,0,1-1.85,1.08,2,2,0,0,1-1.4-.48,1.65,1.65,0,0,1-.51-1.26c0-1.12.66-1.77,2-2l1.8-.25c0-1-.41-1.53-1.24-1.53a3,3,0,0,0-1.95.74v-1a3.68,3.68,0,0,1,2-.57c1.41,0,2.11.75,2.11,2.24Zm-1-3-1.45.2a2.35,2.35,0,0,0-1,.33,1,1,0,0,0-.34.84.93.93,0,0,0,.32.72,1.24,1.24,0,0,0,.83.28,1.55,1.55,0,0,0,1.18-.5,1.81,1.81,0,0,0,.47-1.27Z" fill="#1e1e1e"/>
      <path d="M270.22,167.1v-1a2.88,2.88,0,0,0,1.73.58c.84,0,1.26-.28,1.26-.85a.65.65,0,0,0-.11-.4,1,1,0,0,0-.29-.3,2.18,2.18,0,0,0-.43-.23l-.54-.22a5.79,5.79,0,0,1-.7-.32,1.74,1.74,0,0,1-.5-.36,1.29,1.29,0,0,1-.31-.46,1.57,1.57,0,0,1-.1-.6,1.44,1.44,0,0,1,.19-.75,1.58,1.58,0,0,1,.52-.54,2.21,2.21,0,0,1,.73-.33,3.08,3.08,0,0,1,.86-.12,3.41,3.41,0,0,1,1.39.27v1a2.71,2.71,0,0,0-1.52-.44,1.88,1.88,0,0,0-.49.06,1.06,1.06,0,0,0-.37.18.85.85,0,0,0-.24.26.7.7,0,0,0-.09.35.8.8,0,0,0,.09.39.94.94,0,0,0,.25.28,1.67,1.67,0,0,0,.4.22l.53.22c.27.1.5.21.71.31a2,2,0,0,1,.54.37,1.41,1.41,0,0,1,.35.46,1.54,1.54,0,0,1,.12.63,1.47,1.47,0,0,1-.2.77,1.82,1.82,0,0,1-.52.55,2.49,2.49,0,0,1-.76.32,3.76,3.76,0,0,1-.9.11A3.37,3.37,0,0,1,270.22,167.1Z" fill="#1e1e1e"/>
      <path d="M280.5,164.55h-4.24a2.19,2.19,0,0,0,.54,1.55,1.86,1.86,0,0,0,1.42.55,3,3,0,0,0,1.86-.67v.9a3.52,3.52,0,0,1-2.09.58,2.55,2.55,0,0,1-2-.82,3.37,3.37,0,0,1-.73-2.3,3.25,3.25,0,0,1,.8-2.28,2.54,2.54,0,0,1,2-.89,2.26,2.26,0,0,1,1.82.77,3.15,3.15,0,0,1,.65,2.11Zm-1-.81a1.93,1.93,0,0,0-.4-1.29A1.36,1.36,0,0,0,278,162a1.52,1.52,0,0,0-1.15.49,2.16,2.16,0,0,0-.59,1.27Z" fill="#1e1e1e"/>
    </g>
  </g>
</svg>
