<svg id="Shapes" xmlns="http://www.w3.org/2000/svg" xmlns:xlink="http://www.w3.org/1999/xlink" viewBox="0 0 50.16 48.55">
  <defs>
    <clipPath id="clip-path">
      <path d="M49.48,17.17a5.51,5.51,0,0,1-9.66,5.31l0-.07a5.51,5.51,0,0,1,9.69-5.24" fill="none"/>
    </clipPath>
    <clipPath id="clip-path-2">
      <path d="M41.83,40.3a5.51,5.51,0,0,1-9.66,5.31l0-.07a5.51,5.51,0,0,1,9.69-5.24" fill="none"/>
    </clipPath>
    <clipPath id="clip-path-3">
      <path d="M17.47,40.39A5.51,5.51,0,0,1,7.81,45.7l0-.07a5.51,5.51,0,0,1,9.69-5.24" fill="none"/>
    </clipPath>
    <clipPath id="clip-path-4">
      <path d="M29.66,2.83A5.51,5.51,0,1,1,20,8.14l0-.06a5.51,5.51,0,0,1,9.69-5.25" fill="none"/>
    </clipPath>
    <clipPath id="clip-path-5">
      <path d="M10.33,17.49A5.52,5.52,0,1,1,.66,22.8l0-.06a5.52,5.52,0,0,1,9.7-5.25" fill="none"/>
    </clipPath>
    <clipPath id="clip-path-6">
      <path d="M29.69,23.08A5.51,5.51,0,1,1,20,28.39l0-.06a5.51,5.51,0,0,1,9.69-5.25" fill="none"/>
    </clipPath>
  </defs>
  <title>nf-1-3-star-network</title>
  <rect width="50.16" height="48.55" fill="#fff"/>
  <line x1="24.84" y1="25.75" x2="24.84" y2="5.5" fill="none" stroke="#000"/>
  <line x1="24.87" y1="25.75" x2="44.66" y2="19.84" fill="none" stroke="#000"/>
  <line x1="24.87" y1="25.75" x2="5.5" y2="20.25" fill="none" stroke="#000"/>
  <line x1="37.01" y1="43.05" x2="24.87" y2="25.75" fill="none" stroke="#000"/>
  <line x1="12.65" y1="43.05" x2="24.87" y2="25.75" fill="none" stroke="#000"/>
  <g id="ee75dd06-1aca-4f76-9d11-d05a284020ad">
    <g clip-path="url(#clip-path)">
      <rect x="38.45" y="13.62" width="12.4" height="12.44" transform="translate(18.07 60.84) rotate(-81)" fill="#0078d4"/>
      <circle cx="44.65" cy="19.83" r="5.51" fill="#0078d4"/>
      <circle cx="44.65" cy="19.83" r="5.47" fill="#0178d4"/>
      <circle cx="44.65" cy="19.83" r="5.42" fill="#0279d5"/>
      <circle cx="44.65" cy="19.83" r="5.37" fill="#0379d5"/>
      <circle cx="44.65" cy="19.83" r="5.32" fill="#047ad5"/>
      <circle cx="44.65" cy="19.83" r="5.27" fill="#057ad5"/>
      <circle cx="44.65" cy="19.83" r="5.23" fill="#067bd6"/>
      <circle cx="44.65" cy="19.83" r="5.18" fill="#077bd6"/>
      <circle cx="44.65" cy="19.83" r="5.13" fill="#087bd6"/>
      <circle cx="44.65" cy="19.83" r="5.08" fill="#097cd7"/>
      <circle cx="44.65" cy="19.83" r="5.03" fill="#0a7cd7"/>
      <circle cx="44.65" cy="19.83" r="4.98" fill="#0b7dd7"/>
      <circle cx="44.65" cy="19.83" r="4.94" fill="#0c7dd7"/>
      <circle cx="44.65" cy="19.83" r="4.89" fill="#0d7ed8"/>
      <circle cx="44.65" cy="19.83" r="4.84" fill="#0e7ed8"/>
      <circle cx="44.65" cy="19.83" r="4.79" fill="#0f7ed8"/>
      <circle cx="44.65" cy="19.83" r="4.74" fill="#107fd9"/>
      <circle cx="44.65" cy="19.83" r="4.7" fill="#117fd9"/>
      <circle cx="44.65" cy="19.83" r="4.65" fill="#1280d9"/>
      <circle cx="44.65" cy="19.83" r="4.6" fill="#1380da"/>
      <circle cx="44.65" cy="19.83" r="4.55" fill="#1481da"/>
      <circle cx="44.65" cy="19.83" r="4.5" fill="#1581da"/>
      <circle cx="44.65" cy="19.83" r="4.46" fill="#1681da"/>
      <circle cx="44.65" cy="19.83" r="4.41" fill="#1782db"/>
      <circle cx="44.65" cy="19.83" r="4.36" fill="#1882db"/>
      <circle cx="44.65" cy="19.83" r="4.31" fill="#1983db"/>
      <circle cx="44.65" cy="19.83" r="4.26" fill="#1a83dc"/>
      <circle cx="44.65" cy="19.83" r="4.22" fill="#1b84dc"/>
      <circle cx="44.65" cy="19.83" r="4.17" fill="#1c84dc"/>
      <circle cx="44.65" cy="19.83" r="4.12" fill="#1d84dc"/>
      <circle cx="44.65" cy="19.83" r="4.07" fill="#1e85dd"/>
      <circle cx="44.65" cy="19.83" r="4.02" fill="#1f85dd"/>
      <circle cx="44.65" cy="19.83" r="3.97" fill="#2086dd"/>
      <circle cx="44.65" cy="19.83" r="3.93" fill="#2186de"/>
      <circle cx="44.65" cy="19.83" r="3.88" fill="#2287de"/>
      <circle cx="44.65" cy="19.83" r="3.83" fill="#2387de"/>
      <circle cx="44.65" cy="19.83" r="3.78" fill="#2487de"/>
      <circle cx="44.65" cy="19.83" r="3.73" fill="#2588df"/>
      <circle cx="44.65" cy="19.83" r="3.69" fill="#2688df"/>
      <circle cx="44.65" cy="19.83" r="3.64" fill="#2789df"/>
      <circle cx="44.65" cy="19.83" r="3.59" fill="#2889e0"/>
      <circle cx="44.65" cy="19.83" r="3.54" fill="#298ae0"/>
      <circle cx="44.65" cy="19.83" r="3.49" fill="#2a8ae0"/>
      <circle cx="44.65" cy="19.83" r="3.45" fill="#2b8ae0"/>
      <circle cx="44.65" cy="19.83" r="3.4" fill="#2c8be1"/>
      <circle cx="44.65" cy="19.83" r="3.35" fill="#2d8be1"/>
      <circle cx="44.65" cy="19.83" r="3.3" fill="#2e8ce1"/>
      <circle cx="44.65" cy="19.83" r="3.25" fill="#308ce2"/>
      <circle cx="44.65" cy="19.83" r="3.21" fill="#318de2"/>
      <circle cx="44.65" cy="19.83" r="3.16" fill="#328de2"/>
      <circle cx="44.65" cy="19.83" r="3.11" fill="#338ee3"/>
      <circle cx="44.65" cy="19.83" r="3.06" fill="#348ee3"/>
      <circle cx="44.65" cy="19.83" r="3.01" fill="#358ee3"/>
      <circle cx="44.65" cy="19.83" r="2.96" fill="#368fe3"/>
      <circle cx="44.65" cy="19.83" r="2.92" fill="#378fe4"/>
      <circle cx="44.65" cy="19.83" r="2.87" fill="#3890e4"/>
      <circle cx="44.65" cy="19.83" r="2.82" fill="#3990e4"/>
      <circle cx="44.65" cy="19.83" r="2.77" fill="#3a91e5"/>
      <circle cx="44.65" cy="19.83" r="2.72" fill="#3b91e5"/>
      <circle cx="44.65" cy="19.83" r="2.68" fill="#3c91e5"/>
      <circle cx="44.65" cy="19.83" r="2.63" fill="#3d92e5"/>
      <circle cx="44.65" cy="19.83" r="2.58" fill="#3e92e6"/>
      <circle cx="44.65" cy="19.83" r="2.53" fill="#3f93e6"/>
      <circle cx="44.65" cy="19.83" r="2.48" fill="#4093e6"/>
      <circle cx="44.65" cy="19.83" r="2.44" fill="#4194e7"/>
      <circle cx="44.65" cy="19.83" r="2.39" fill="#4294e7"/>
      <circle cx="44.65" cy="19.83" r="2.34" fill="#4394e7"/>
      <circle cx="44.65" cy="19.83" r="2.29" fill="#4495e7"/>
      <circle cx="44.65" cy="19.83" r="2.24" fill="#4595e8"/>
      <circle cx="44.65" cy="19.83" r="2.2" fill="#4696e8"/>
      <circle cx="44.65" cy="19.83" r="2.15" fill="#4796e8"/>
      <circle cx="44.65" cy="19.83" r="2.1" fill="#4897e9"/>
      <circle cx="44.65" cy="19.83" r="2.05" fill="#4997e9"/>
      <circle cx="44.65" cy="19.83" r="2" fill="#4a97e9"/>
      <circle cx="44.65" cy="19.83" r="1.95" fill="#4b98e9"/>
      <circle cx="44.65" cy="19.83" r="1.91" fill="#4c98ea"/>
      <circle cx="44.65" cy="19.83" r="1.86" fill="#4d99ea"/>
      <circle cx="44.65" cy="19.83" r="1.81" fill="#4e99ea"/>
      <circle cx="44.65" cy="19.83" r="1.76" fill="#4f9aeb"/>
      <circle cx="44.65" cy="19.83" r="1.71" fill="#509aeb"/>
      <circle cx="44.65" cy="19.83" r="1.67" fill="#519aeb"/>
      <circle cx="44.65" cy="19.83" r="1.62" fill="#529bec"/>
      <circle cx="44.65" cy="19.83" r="1.57" fill="#539bec"/>
      <circle cx="44.65" cy="19.83" r="1.52" fill="#549cec"/>
      <circle cx="44.65" cy="19.83" r="1.47" fill="#559cec"/>
      <circle cx="44.65" cy="19.83" r="1.43" fill="#569ded"/>
      <circle cx="44.65" cy="19.83" r="1.38" fill="#579ded"/>
      <circle cx="44.65" cy="19.83" r="1.33" fill="#589ded"/>
      <circle cx="44.65" cy="19.83" r="1.28" fill="#599eee"/>
      <circle cx="44.65" cy="19.83" r="1.23" fill="#5a9eee"/>
      <circle cx="44.65" cy="19.83" r="1.18" fill="#5b9fee"/>
      <circle cx="44.65" cy="19.83" r="1.14" fill="#5c9fee"/>
      <circle cx="44.65" cy="19.83" r="1.09" fill="#5da0ef"/>
      <circle cx="44.65" cy="19.83" r="1.04" fill="#5ea0ef"/>
    </g>
  </g>
  <g id="ee75dd06-1aca-4f76-9d11-d05a284020ad-2" data-name="ee75dd06-1aca-4f76-9d11-d05a284020ad">
    <g clip-path="url(#clip-path-2)">
      <rect x="30.8" y="36.75" width="12.4" height="12.44" transform="translate(-11.23 72.79) rotate(-81)" fill="#0078d4"/>
      <circle cx="37" cy="42.96" r="5.51" fill="#0078d4"/>
      <circle cx="37" cy="42.96" r="5.47" fill="#0178d4"/>
      <circle cx="37" cy="42.96" r="5.42" fill="#0279d5"/>
      <circle cx="37" cy="42.96" r="5.37" fill="#0379d5"/>
      <circle cx="37" cy="42.96" r="5.32" fill="#047ad5"/>
      <circle cx="37" cy="42.96" r="5.27" fill="#057ad5"/>
      <circle cx="37" cy="42.96" r="5.23" fill="#067bd6"/>
      <circle cx="37" cy="42.96" r="5.18" fill="#077bd6"/>
      <circle cx="37" cy="42.96" r="5.13" fill="#087bd6"/>
      <circle cx="37" cy="42.96" r="5.08" fill="#097cd7"/>
      <circle cx="37" cy="42.96" r="5.03" fill="#0a7cd7"/>
      <circle cx="37" cy="42.96" r="4.98" fill="#0b7dd7"/>
      <circle cx="37" cy="42.96" r="4.94" fill="#0c7dd7"/>
      <circle cx="37" cy="42.96" r="4.89" fill="#0d7ed8"/>
      <circle cx="37" cy="42.96" r="4.84" fill="#0e7ed8"/>
      <circle cx="37" cy="42.96" r="4.79" fill="#0f7ed8"/>
      <circle cx="37" cy="42.96" r="4.74" fill="#107fd9"/>
      <circle cx="37" cy="42.96" r="4.7" fill="#117fd9"/>
      <circle cx="37" cy="42.96" r="4.65" fill="#1280d9"/>
      <circle cx="37" cy="42.96" r="4.6" fill="#1380da"/>
      <circle cx="37" cy="42.96" r="4.55" fill="#1481da"/>
      <circle cx="37" cy="42.96" r="4.5" fill="#1581da"/>
      <circle cx="37" cy="42.96" r="4.46" fill="#1681da"/>
      <circle cx="37" cy="42.96" r="4.41" fill="#1782db"/>
      <circle cx="37" cy="42.96" r="4.36" fill="#1882db"/>
      <circle cx="37" cy="42.96" r="4.31" fill="#1983db"/>
      <circle cx="37" cy="42.96" r="4.26" fill="#1a83dc"/>
      <circle cx="37" cy="42.96" r="4.22" fill="#1b84dc"/>
      <circle cx="37" cy="42.96" r="4.17" fill="#1c84dc"/>
      <circle cx="37" cy="42.96" r="4.12" fill="#1d84dc"/>
      <circle cx="37" cy="42.96" r="4.07" fill="#1e85dd"/>
      <circle cx="37" cy="42.96" r="4.02" fill="#1f85dd"/>
      <circle cx="37" cy="42.96" r="3.97" fill="#2086dd"/>
      <circle cx="37" cy="42.96" r="3.93" fill="#2186de"/>
      <circle cx="37" cy="42.96" r="3.88" fill="#2287de"/>
      <circle cx="37" cy="42.96" r="3.83" fill="#2387de"/>
      <circle cx="37" cy="42.96" r="3.78" fill="#2487de"/>
      <circle cx="37" cy="42.96" r="3.73" fill="#2588df"/>
      <circle cx="37" cy="42.96" r="3.69" fill="#2688df"/>
      <circle cx="37" cy="42.96" r="3.64" fill="#2789df"/>
      <circle cx="37" cy="42.96" r="3.59" fill="#2889e0"/>
      <circle cx="37" cy="42.96" r="3.54" fill="#298ae0"/>
      <circle cx="37" cy="42.96" r="3.49" fill="#2a8ae0"/>
      <circle cx="37" cy="42.96" r="3.45" fill="#2b8ae0"/>
      <circle cx="37" cy="42.96" r="3.4" fill="#2c8be1"/>
      <circle cx="37" cy="42.96" r="3.35" fill="#2d8be1"/>
      <circle cx="37" cy="42.96" r="3.3" fill="#2e8ce1"/>
      <circle cx="37" cy="42.96" r="3.25" fill="#308ce2"/>
      <circle cx="37" cy="42.96" r="3.21" fill="#318de2"/>
      <circle cx="37" cy="42.96" r="3.16" fill="#328de2"/>
      <circle cx="37" cy="42.96" r="3.11" fill="#338ee3"/>
      <circle cx="37" cy="42.96" r="3.06" fill="#348ee3"/>
      <circle cx="37" cy="42.96" r="3.01" fill="#358ee3"/>
      <circle cx="37" cy="42.96" r="2.96" fill="#368fe3"/>
      <circle cx="37" cy="42.96" r="2.92" fill="#378fe4"/>
      <circle cx="37" cy="42.96" r="2.87" fill="#3890e4"/>
      <circle cx="37" cy="42.96" r="2.82" fill="#3990e4"/>
      <circle cx="37" cy="42.96" r="2.77" fill="#3a91e5"/>
      <circle cx="37" cy="42.96" r="2.72" fill="#3b91e5"/>
      <circle cx="37" cy="42.96" r="2.68" fill="#3c91e5"/>
      <circle cx="37" cy="42.96" r="2.63" fill="#3d92e5"/>
      <circle cx="37" cy="42.96" r="2.58" fill="#3e92e6"/>
      <circle cx="37" cy="42.96" r="2.53" fill="#3f93e6"/>
      <circle cx="37" cy="42.96" r="2.48" fill="#4093e6"/>
      <circle cx="37" cy="42.96" r="2.44" fill="#4194e7"/>
      <circle cx="37" cy="42.96" r="2.39" fill="#4294e7"/>
      <circle cx="37" cy="42.96" r="2.34" fill="#4394e7"/>
      <circle cx="37" cy="42.96" r="2.29" fill="#4495e7"/>
      <circle cx="37" cy="42.96" r="2.24" fill="#4595e8"/>
      <circle cx="37" cy="42.96" r="2.2" fill="#4696e8"/>
      <circle cx="37" cy="42.96" r="2.15" fill="#4796e8"/>
      <circle cx="37" cy="42.96" r="2.1" fill="#4897e9"/>
      <circle cx="37" cy="42.96" r="2.05" fill="#4997e9"/>
      <circle cx="37" cy="42.96" r="2" fill="#4a97e9"/>
      <circle cx="37" cy="42.96" r="1.95" fill="#4b98e9"/>
      <circle cx="37" cy="42.96" r="1.91" fill="#4c98ea"/>
      <circle cx="37" cy="42.96" r="1.86" fill="#4d99ea"/>
      <circle cx="37" cy="42.96" r="1.81" fill="#4e99ea"/>
      <circle cx="37" cy="42.96" r="1.76" fill="#4f9aeb"/>
      <circle cx="37" cy="42.96" r="1.71" fill="#509aeb"/>
      <circle cx="37" cy="42.96" r="1.67" fill="#519aeb"/>
      <circle cx="37" cy="42.96" r="1.62" fill="#529bec"/>
      <circle cx="37" cy="42.96" r="1.57" fill="#539bec"/>
      <circle cx="37" cy="42.96" r="1.52" fill="#549cec"/>
      <circle cx="37" cy="42.96" r="1.47" fill="#559cec"/>
      <circle cx="37" cy="42.96" r="1.43" fill="#569ded"/>
      <circle cx="37" cy="42.96" r="1.38" fill="#579ded"/>
      <circle cx="37" cy="42.96" r="1.33" fill="#589ded"/>
      <circle cx="37" cy="42.96" r="1.28" fill="#599eee"/>
      <circle cx="37" cy="42.96" r="1.23" fill="#5a9eee"/>
      <circle cx="37" cy="42.96" r="1.18" fill="#5b9fee"/>
      <circle cx="37" cy="42.96" r="1.14" fill="#5c9fee"/>
      <circle cx="37" cy="42.96" r="1.09" fill="#5da0ef"/>
      <circle cx="37" cy="42.96" r="1.04" fill="#5ea0ef"/>
    </g>
  </g>
  <g id="ee75dd06-1aca-4f76-9d11-d05a284020ad-3" data-name="ee75dd06-1aca-4f76-9d11-d05a284020ad">
    <g clip-path="url(#clip-path-3)">
      <rect x="6.44" y="36.84" width="12.4" height="12.44" transform="translate(-31.87 48.81) rotate(-81)" fill="#0078d4"/>
      <circle cx="12.64" cy="43.05" r="5.51" fill="#0078d4"/>
      <circle cx="12.64" cy="43.05" r="5.47" fill="#0178d4"/>
      <circle cx="12.64" cy="43.05" r="5.42" fill="#0279d5"/>
      <circle cx="12.64" cy="43.05" r="5.37" fill="#0379d5"/>
      <circle cx="12.64" cy="43.05" r="5.32" fill="#047ad5"/>
      <circle cx="12.64" cy="43.05" r="5.27" fill="#057ad5"/>
      <circle cx="12.64" cy="43.05" r="5.23" fill="#067bd6"/>
      <circle cx="12.64" cy="43.05" r="5.18" fill="#077bd6"/>
      <circle cx="12.64" cy="43.05" r="5.13" fill="#087bd6"/>
      <circle cx="12.64" cy="43.05" r="5.08" fill="#097cd7"/>
      <circle cx="12.64" cy="43.05" r="5.03" fill="#0a7cd7"/>
      <circle cx="12.64" cy="43.05" r="4.98" fill="#0b7dd7"/>
      <circle cx="12.64" cy="43.05" r="4.94" fill="#0c7dd7"/>
      <circle cx="12.64" cy="43.05" r="4.89" fill="#0d7ed8"/>
      <circle cx="12.64" cy="43.05" r="4.84" fill="#0e7ed8"/>
      <circle cx="12.64" cy="43.05" r="4.79" fill="#0f7ed8"/>
      <circle cx="12.64" cy="43.05" r="4.74" fill="#107fd9"/>
      <circle cx="12.64" cy="43.05" r="4.7" fill="#117fd9"/>
      <circle cx="12.64" cy="43.05" r="4.65" fill="#1280d9"/>
      <circle cx="12.64" cy="43.05" r="4.6" fill="#1380da"/>
      <circle cx="12.64" cy="43.05" r="4.55" fill="#1481da"/>
      <circle cx="12.64" cy="43.05" r="4.5" fill="#1581da"/>
      <circle cx="12.64" cy="43.05" r="4.46" fill="#1681da"/>
      <circle cx="12.64" cy="43.05" r="4.41" fill="#1782db"/>
      <circle cx="12.64" cy="43.05" r="4.36" fill="#1882db"/>
      <circle cx="12.64" cy="43.05" r="4.31" fill="#1983db"/>
      <circle cx="12.64" cy="43.05" r="4.26" fill="#1a83dc"/>
      <circle cx="12.64" cy="43.05" r="4.22" fill="#1b84dc"/>
      <circle cx="12.64" cy="43.05" r="4.17" fill="#1c84dc"/>
      <circle cx="12.64" cy="43.05" r="4.12" fill="#1d84dc"/>
      <circle cx="12.64" cy="43.05" r="4.07" fill="#1e85dd"/>
      <circle cx="12.64" cy="43.05" r="4.02" fill="#1f85dd"/>
      <circle cx="12.64" cy="43.05" r="3.97" fill="#2086dd"/>
      <circle cx="12.64" cy="43.05" r="3.93" fill="#2186de"/>
      <circle cx="12.64" cy="43.05" r="3.88" fill="#2287de"/>
      <circle cx="12.64" cy="43.05" r="3.83" fill="#2387de"/>
      <circle cx="12.64" cy="43.05" r="3.78" fill="#2487de"/>
      <circle cx="12.64" cy="43.05" r="3.73" fill="#2588df"/>
      <circle cx="12.64" cy="43.05" r="3.69" fill="#2688df"/>
      <circle cx="12.64" cy="43.05" r="3.64" fill="#2789df"/>
      <circle cx="12.64" cy="43.05" r="3.59" fill="#2889e0"/>
      <circle cx="12.64" cy="43.05" r="3.54" fill="#298ae0"/>
      <circle cx="12.64" cy="43.05" r="3.49" fill="#2a8ae0"/>
      <circle cx="12.64" cy="43.05" r="3.45" fill="#2b8ae0"/>
      <circle cx="12.64" cy="43.05" r="3.4" fill="#2c8be1"/>
      <circle cx="12.64" cy="43.05" r="3.35" fill="#2d8be1"/>
      <circle cx="12.64" cy="43.05" r="3.3" fill="#2e8ce1"/>
      <circle cx="12.64" cy="43.05" r="3.25" fill="#308ce2"/>
      <circle cx="12.64" cy="43.05" r="3.21" fill="#318de2"/>
      <circle cx="12.64" cy="43.05" r="3.16" fill="#328de2"/>
      <circle cx="12.64" cy="43.05" r="3.11" fill="#338ee3"/>
      <circle cx="12.64" cy="43.05" r="3.06" fill="#348ee3"/>
      <circle cx="12.64" cy="43.05" r="3.01" fill="#358ee3"/>
      <circle cx="12.64" cy="43.05" r="2.96" fill="#368fe3"/>
      <circle cx="12.64" cy="43.05" r="2.92" fill="#378fe4"/>
      <circle cx="12.64" cy="43.05" r="2.87" fill="#3890e4"/>
      <circle cx="12.64" cy="43.05" r="2.82" fill="#3990e4"/>
      <circle cx="12.64" cy="43.05" r="2.77" fill="#3a91e5"/>
      <circle cx="12.64" cy="43.05" r="2.72" fill="#3b91e5"/>
      <circle cx="12.64" cy="43.05" r="2.68" fill="#3c91e5"/>
      <circle cx="12.64" cy="43.05" r="2.63" fill="#3d92e5"/>
      <circle cx="12.64" cy="43.05" r="2.58" fill="#3e92e6"/>
      <circle cx="12.64" cy="43.05" r="2.53" fill="#3f93e6"/>
      <circle cx="12.64" cy="43.05" r="2.48" fill="#4093e6"/>
      <circle cx="12.64" cy="43.05" r="2.44" fill="#4194e7"/>
      <circle cx="12.64" cy="43.05" r="2.39" fill="#4294e7"/>
      <circle cx="12.64" cy="43.05" r="2.34" fill="#4394e7"/>
      <circle cx="12.64" cy="43.05" r="2.29" fill="#4495e7"/>
      <circle cx="12.64" cy="43.05" r="2.24" fill="#4595e8"/>
      <circle cx="12.64" cy="43.05" r="2.2" fill="#4696e8"/>
      <circle cx="12.64" cy="43.05" r="2.15" fill="#4796e8"/>
      <circle cx="12.64" cy="43.05" r="2.1" fill="#4897e9"/>
      <circle cx="12.64" cy="43.05" r="2.05" fill="#4997e9"/>
      <circle cx="12.64" cy="43.05" r="2" fill="#4a97e9"/>
      <circle cx="12.64" cy="43.05" r="1.95" fill="#4b98e9"/>
      <circle cx="12.64" cy="43.05" r="1.91" fill="#4c98ea"/>
      <circle cx="12.64" cy="43.05" r="1.86" fill="#4d99ea"/>
      <circle cx="12.64" cy="43.05" r="1.81" fill="#4e99ea"/>
      <circle cx="12.64" cy="43.05" r="1.76" fill="#4f9aeb"/>
      <circle cx="12.64" cy="43.05" r="1.71" fill="#509aeb"/>
      <circle cx="12.64" cy="43.05" r="1.67" fill="#519aeb"/>
      <circle cx="12.64" cy="43.05" r="1.62" fill="#529bec"/>
      <circle cx="12.64" cy="43.05" r="1.57" fill="#539bec"/>
      <circle cx="12.64" cy="43.05" r="1.52" fill="#549cec"/>
      <circle cx="12.64" cy="43.05" r="1.47" fill="#559cec"/>
      <circle cx="12.64" cy="43.05" r="1.43" fill="#569ded"/>
      <circle cx="12.64" cy="43.05" r="1.38" fill="#579ded"/>
      <circle cx="12.64" cy="43.05" r="1.33" fill="#589ded"/>
      <circle cx="12.64" cy="43.05" r="1.28" fill="#599eee"/>
      <circle cx="12.64" cy="43.05" r="1.23" fill="#5a9eee"/>
      <circle cx="12.64" cy="43.05" r="1.18" fill="#5b9fee"/>
      <circle cx="12.64" cy="43.05" r="1.14" fill="#5c9fee"/>
      <circle cx="12.64" cy="43.05" r="1.09" fill="#5da0ef"/>
      <circle cx="12.64" cy="43.05" r="1.04" fill="#5ea0ef"/>
    </g>
  </g>
  <g id="ee75dd06-1aca-4f76-9d11-d05a284020ad-4" data-name="ee75dd06-1aca-4f76-9d11-d05a284020ad">
    <g clip-path="url(#clip-path-4)">
      <rect x="18.63" y="-0.71" width="12.4" height="12.44" transform="translate(15.51 29.17) rotate(-81)" fill="#0078d4"/>
      <circle cx="24.83" cy="5.5" r="5.51" fill="#0078d4"/>
      <circle cx="24.83" cy="5.5" r="5.47" fill="#0178d4"/>
      <circle cx="24.83" cy="5.5" r="5.42" fill="#0279d5"/>
      <circle cx="24.83" cy="5.5" r="5.37" fill="#0379d5"/>
      <circle cx="24.83" cy="5.5" r="5.32" fill="#047ad5"/>
      <circle cx="24.83" cy="5.5" r="5.27" fill="#057ad5"/>
      <circle cx="24.83" cy="5.5" r="5.23" fill="#067bd6"/>
      <circle cx="24.83" cy="5.5" r="5.18" fill="#077bd6"/>
      <circle cx="24.83" cy="5.5" r="5.13" fill="#087bd6"/>
      <circle cx="24.83" cy="5.5" r="5.08" fill="#097cd7"/>
      <circle cx="24.83" cy="5.5" r="5.03" fill="#0a7cd7"/>
      <circle cx="24.83" cy="5.5" r="4.98" fill="#0b7dd7"/>
      <circle cx="24.83" cy="5.5" r="4.94" fill="#0c7dd7"/>
      <circle cx="24.83" cy="5.5" r="4.89" fill="#0d7ed8"/>
      <circle cx="24.83" cy="5.5" r="4.84" fill="#0e7ed8"/>
      <circle cx="24.83" cy="5.5" r="4.79" fill="#0f7ed8"/>
      <circle cx="24.83" cy="5.5" r="4.74" fill="#107fd9"/>
      <circle cx="24.83" cy="5.5" r="4.7" fill="#117fd9"/>
      <circle cx="24.83" cy="5.5" r="4.65" fill="#1280d9"/>
      <circle cx="24.83" cy="5.5" r="4.6" fill="#1380da"/>
      <circle cx="24.83" cy="5.5" r="4.55" fill="#1481da"/>
      <circle cx="24.83" cy="5.5" r="4.5" fill="#1581da"/>
      <circle cx="24.83" cy="5.5" r="4.46" fill="#1681da"/>
      <circle cx="24.83" cy="5.5" r="4.41" fill="#1782db"/>
      <circle cx="24.83" cy="5.5" r="4.36" fill="#1882db"/>
      <circle cx="24.83" cy="5.5" r="4.31" fill="#1983db"/>
      <circle cx="24.83" cy="5.5" r="4.26" fill="#1a83dc"/>
      <circle cx="24.83" cy="5.5" r="4.22" fill="#1b84dc"/>
      <circle cx="24.83" cy="5.5" r="4.17" fill="#1c84dc"/>
      <circle cx="24.83" cy="5.5" r="4.12" fill="#1d84dc"/>
      <circle cx="24.83" cy="5.5" r="4.07" fill="#1e85dd"/>
      <circle cx="24.83" cy="5.5" r="4.02" fill="#1f85dd"/>
      <circle cx="24.83" cy="5.5" r="3.97" fill="#2086dd"/>
      <circle cx="24.83" cy="5.5" r="3.93" fill="#2186de"/>
      <circle cx="24.83" cy="5.5" r="3.88" fill="#2287de"/>
      <circle cx="24.83" cy="5.5" r="3.83" fill="#2387de"/>
      <circle cx="24.83" cy="5.5" r="3.78" fill="#2487de"/>
      <circle cx="24.83" cy="5.5" r="3.73" fill="#2588df"/>
      <circle cx="24.83" cy="5.5" r="3.69" fill="#2688df"/>
      <circle cx="24.83" cy="5.5" r="3.64" fill="#2789df"/>
      <circle cx="24.83" cy="5.5" r="3.59" fill="#2889e0"/>
      <circle cx="24.83" cy="5.5" r="3.54" fill="#298ae0"/>
      <circle cx="24.83" cy="5.5" r="3.49" fill="#2a8ae0"/>
      <circle cx="24.83" cy="5.5" r="3.45" fill="#2b8ae0"/>
      <circle cx="24.83" cy="5.5" r="3.4" fill="#2c8be1"/>
      <circle cx="24.83" cy="5.5" r="3.35" fill="#2d8be1"/>
      <circle cx="24.83" cy="5.5" r="3.3" fill="#2e8ce1"/>
      <circle cx="24.83" cy="5.5" r="3.25" fill="#308ce2"/>
      <circle cx="24.83" cy="5.5" r="3.21" fill="#318de2"/>
      <circle cx="24.83" cy="5.5" r="3.16" fill="#328de2"/>
      <circle cx="24.83" cy="5.5" r="3.11" fill="#338ee3"/>
      <circle cx="24.83" cy="5.5" r="3.06" fill="#348ee3"/>
      <circle cx="24.83" cy="5.5" r="3.01" fill="#358ee3"/>
      <circle cx="24.83" cy="5.5" r="2.96" fill="#368fe3"/>
      <circle cx="24.83" cy="5.5" r="2.92" fill="#378fe4"/>
      <circle cx="24.83" cy="5.5" r="2.87" fill="#3890e4"/>
      <circle cx="24.83" cy="5.5" r="2.82" fill="#3990e4"/>
      <circle cx="24.83" cy="5.5" r="2.77" fill="#3a91e5"/>
      <circle cx="24.83" cy="5.5" r="2.72" fill="#3b91e5"/>
      <circle cx="24.83" cy="5.5" r="2.68" fill="#3c91e5"/>
      <circle cx="24.83" cy="5.5" r="2.63" fill="#3d92e5"/>
      <circle cx="24.83" cy="5.5" r="2.58" fill="#3e92e6"/>
      <circle cx="24.83" cy="5.5" r="2.53" fill="#3f93e6"/>
      <circle cx="24.83" cy="5.5" r="2.48" fill="#4093e6"/>
      <circle cx="24.83" cy="5.5" r="2.44" fill="#4194e7"/>
      <circle cx="24.83" cy="5.5" r="2.39" fill="#4294e7"/>
      <circle cx="24.83" cy="5.5" r="2.34" fill="#4394e7"/>
      <circle cx="24.83" cy="5.5" r="2.29" fill="#4495e7"/>
      <circle cx="24.83" cy="5.5" r="2.24" fill="#4595e8"/>
      <circle cx="24.83" cy="5.5" r="2.2" fill="#4696e8"/>
      <circle cx="24.83" cy="5.5" r="2.15" fill="#4796e8"/>
      <circle cx="24.83" cy="5.5" r="2.1" fill="#4897e9"/>
      <circle cx="24.83" cy="5.5" r="2.05" fill="#4997e9"/>
      <circle cx="24.83" cy="5.5" r="2" fill="#4a97e9"/>
      <circle cx="24.83" cy="5.5" r="1.95" fill="#4b98e9"/>
      <circle cx="24.83" cy="5.5" r="1.91" fill="#4c98ea"/>
      <circle cx="24.83" cy="5.5" r="1.86" fill="#4d99ea"/>
      <circle cx="24.83" cy="5.5" r="1.81" fill="#4e99ea"/>
      <circle cx="24.83" cy="5.5" r="1.76" fill="#4f9aeb"/>
      <circle cx="24.83" cy="5.5" r="1.71" fill="#509aeb"/>
      <circle cx="24.83" cy="5.5" r="1.67" fill="#519aeb"/>
      <circle cx="24.83" cy="5.5" r="1.62" fill="#529bec"/>
      <circle cx="24.83" cy="5.5" r="1.57" fill="#539bec"/>
      <circle cx="24.83" cy="5.5" r="1.52" fill="#549cec"/>
      <circle cx="24.83" cy="5.5" r="1.47" fill="#559cec"/>
      <circle cx="24.83" cy="5.5" r="1.43" fill="#569ded"/>
      <circle cx="24.83" cy="5.5" r="1.38" fill="#579ded"/>
      <circle cx="24.83" cy="5.5" r="1.33" fill="#589ded"/>
      <circle cx="24.83" cy="5.5" r="1.28" fill="#599eee"/>
      <circle cx="24.83" cy="5.5" r="1.23" fill="#5a9eee"/>
      <circle cx="24.83" cy="5.5" r="1.18" fill="#5b9fee"/>
      <circle cx="24.83" cy="5.5" r="1.14" fill="#5c9fee"/>
      <circle cx="24.83" cy="5.5" r="1.09" fill="#5da0ef"/>
      <circle cx="24.83" cy="5.5" r="1.04" fill="#5ea0ef"/>
    </g>
  </g>
  <g id="ee75dd06-1aca-4f76-9d11-d05a284020ad-5" data-name="ee75dd06-1aca-4f76-9d11-d05a284020ad">
    <g clip-path="url(#clip-path-5)">
      <rect x="-0.71" y="13.95" width="12.4" height="12.44" transform="translate(-15.28 22.44) rotate(-81)" fill="#0078d4"/>
      <circle cx="5.49" cy="20.16" r="5.51" fill="#0078d4"/>
      <circle cx="5.49" cy="20.16" r="5.47" fill="#0178d4"/>
      <circle cx="5.49" cy="20.16" r="5.42" fill="#0279d5"/>
      <circle cx="5.49" cy="20.16" r="5.37" fill="#0379d5"/>
      <circle cx="5.49" cy="20.16" r="5.32" fill="#047ad5"/>
      <circle cx="5.49" cy="20.16" r="5.27" fill="#057ad5"/>
      <circle cx="5.49" cy="20.16" r="5.23" fill="#067bd6"/>
      <circle cx="5.49" cy="20.16" r="5.18" fill="#077bd6"/>
      <circle cx="5.49" cy="20.16" r="5.13" fill="#087bd6"/>
      <circle cx="5.49" cy="20.16" r="5.08" fill="#097cd7"/>
      <circle cx="5.49" cy="20.16" r="5.03" fill="#0a7cd7"/>
      <circle cx="5.49" cy="20.16" r="4.98" fill="#0b7dd7"/>
      <circle cx="5.49" cy="20.16" r="4.94" fill="#0c7dd7"/>
      <circle cx="5.49" cy="20.16" r="4.89" fill="#0d7ed8"/>
      <circle cx="5.49" cy="20.16" r="4.84" fill="#0e7ed8"/>
      <circle cx="5.49" cy="20.16" r="4.79" fill="#0f7ed8"/>
      <circle cx="5.49" cy="20.16" r="4.74" fill="#107fd9"/>
      <circle cx="5.49" cy="20.16" r="4.7" fill="#117fd9"/>
      <circle cx="5.49" cy="20.16" r="4.65" fill="#1280d9"/>
      <circle cx="5.49" cy="20.16" r="4.6" fill="#1380da"/>
      <circle cx="5.49" cy="20.16" r="4.55" fill="#1481da"/>
      <circle cx="5.49" cy="20.16" r="4.5" fill="#1581da"/>
      <circle cx="5.49" cy="20.16" r="4.46" fill="#1681da"/>
      <circle cx="5.49" cy="20.16" r="4.41" fill="#1782db"/>
      <circle cx="5.49" cy="20.16" r="4.36" fill="#1882db"/>
      <circle cx="5.49" cy="20.16" r="4.31" fill="#1983db"/>
      <circle cx="5.49" cy="20.16" r="4.26" fill="#1a83dc"/>
      <circle cx="5.49" cy="20.16" r="4.22" fill="#1b84dc"/>
      <circle cx="5.49" cy="20.16" r="4.17" fill="#1c84dc"/>
      <circle cx="5.49" cy="20.16" r="4.12" fill="#1d84dc"/>
      <circle cx="5.49" cy="20.16" r="4.07" fill="#1e85dd"/>
      <circle cx="5.49" cy="20.16" r="4.02" fill="#1f85dd"/>
      <circle cx="5.49" cy="20.16" r="3.97" fill="#2086dd"/>
      <circle cx="5.49" cy="20.16" r="3.93" fill="#2186de"/>
      <circle cx="5.49" cy="20.16" r="3.88" fill="#2287de"/>
      <circle cx="5.49" cy="20.16" r="3.83" fill="#2387de"/>
      <circle cx="5.49" cy="20.16" r="3.78" fill="#2487de"/>
      <circle cx="5.49" cy="20.16" r="3.73" fill="#2588df"/>
      <circle cx="5.49" cy="20.16" r="3.69" fill="#2688df"/>
      <circle cx="5.49" cy="20.16" r="3.64" fill="#2789df"/>
      <circle cx="5.49" cy="20.16" r="3.59" fill="#2889e0"/>
      <circle cx="5.49" cy="20.16" r="3.54" fill="#298ae0"/>
      <circle cx="5.49" cy="20.16" r="3.49" fill="#2a8ae0"/>
      <circle cx="5.49" cy="20.16" r="3.45" fill="#2b8ae0"/>
      <circle cx="5.49" cy="20.16" r="3.4" fill="#2c8be1"/>
      <circle cx="5.49" cy="20.16" r="3.35" fill="#2d8be1"/>
      <circle cx="5.49" cy="20.16" r="3.3" fill="#2e8ce1"/>
      <circle cx="5.49" cy="20.16" r="3.25" fill="#308ce2"/>
      <circle cx="5.49" cy="20.16" r="3.21" fill="#318de2"/>
      <circle cx="5.49" cy="20.16" r="3.16" fill="#328de2"/>
      <circle cx="5.49" cy="20.16" r="3.11" fill="#338ee3"/>
      <circle cx="5.49" cy="20.16" r="3.06" fill="#348ee3"/>
      <circle cx="5.49" cy="20.16" r="3.01" fill="#358ee3"/>
      <circle cx="5.49" cy="20.16" r="2.96" fill="#368fe3"/>
      <circle cx="5.49" cy="20.16" r="2.92" fill="#378fe4"/>
      <circle cx="5.49" cy="20.16" r="2.87" fill="#3890e4"/>
      <circle cx="5.49" cy="20.16" r="2.82" fill="#3990e4"/>
      <circle cx="5.49" cy="20.16" r="2.77" fill="#3a91e5"/>
      <circle cx="5.49" cy="20.16" r="2.72" fill="#3b91e5"/>
      <circle cx="5.49" cy="20.16" r="2.68" fill="#3c91e5"/>
      <circle cx="5.49" cy="20.16" r="2.63" fill="#3d92e5"/>
      <circle cx="5.49" cy="20.16" r="2.58" fill="#3e92e6"/>
      <circle cx="5.49" cy="20.16" r="2.53" fill="#3f93e6"/>
      <circle cx="5.49" cy="20.16" r="2.48" fill="#4093e6"/>
      <circle cx="5.49" cy="20.16" r="2.44" fill="#4194e7"/>
      <circle cx="5.49" cy="20.16" r="2.39" fill="#4294e7"/>
      <circle cx="5.49" cy="20.16" r="2.34" fill="#4394e7"/>
      <circle cx="5.49" cy="20.16" r="2.29" fill="#4495e7"/>
      <circle cx="5.49" cy="20.16" r="2.24" fill="#4595e8"/>
      <circle cx="5.49" cy="20.16" r="2.2" fill="#4696e8"/>
      <circle cx="5.49" cy="20.16" r="2.15" fill="#4796e8"/>
      <circle cx="5.49" cy="20.16" r="2.1" fill="#4897e9"/>
      <circle cx="5.49" cy="20.16" r="2.05" fill="#4997e9"/>
      <circle cx="5.49" cy="20.16" r="2" fill="#4a97e9"/>
      <circle cx="5.49" cy="20.16" r="1.95" fill="#4b98e9"/>
      <circle cx="5.49" cy="20.16" r="1.91" fill="#4c98ea"/>
      <circle cx="5.49" cy="20.16" r="1.86" fill="#4d99ea"/>
      <circle cx="5.49" cy="20.16" r="1.81" fill="#4e99ea"/>
      <circle cx="5.49" cy="20.16" r="1.76" fill="#4f9aeb"/>
      <circle cx="5.49" cy="20.16" r="1.71" fill="#509aeb"/>
      <circle cx="5.49" cy="20.16" r="1.67" fill="#519aeb"/>
      <circle cx="5.49" cy="20.16" r="1.62" fill="#529bec"/>
      <circle cx="5.49" cy="20.16" r="1.57" fill="#539bec"/>
      <circle cx="5.49" cy="20.16" r="1.52" fill="#549cec"/>
      <circle cx="5.49" cy="20.16" r="1.47" fill="#559cec"/>
      <circle cx="5.49" cy="20.16" r="1.43" fill="#569ded"/>
      <circle cx="5.49" cy="20.16" r="1.38" fill="#579ded"/>
      <circle cx="5.49" cy="20.16" r="1.33" fill="#589ded"/>
      <circle cx="5.49" cy="20.16" r="1.28" fill="#599eee"/>
      <circle cx="5.49" cy="20.16" r="1.23" fill="#5a9eee"/>
      <circle cx="5.49" cy="20.16" r="1.18" fill="#5b9fee"/>
      <circle cx="5.49" cy="20.16" r="1.14" fill="#5c9fee"/>
      <circle cx="5.49" cy="20.16" r="1.09" fill="#5da0ef"/>
      <circle cx="5.49" cy="20.16" r="1.04" fill="#5ea0ef"/>
    </g>
  </g>
  <g id="ee75dd06-1aca-4f76-9d11-d05a284020ad-6" data-name="ee75dd06-1aca-4f76-9d11-d05a284020ad">
    <g clip-path="url(#clip-path-6)">
      <rect x="18.66" y="19.54" width="12.4" height="12.44" transform="translate(-4.47 46.28) rotate(-81)" fill="#0078d4"/>
      <circle cx="24.86" cy="25.75" r="5.51" fill="#0078d4"/>
      <circle cx="24.86" cy="25.75" r="5.47" fill="#0178d4"/>
      <circle cx="24.86" cy="25.75" r="5.42" fill="#0279d5"/>
      <circle cx="24.86" cy="25.75" r="5.37" fill="#0379d5"/>
      <circle cx="24.86" cy="25.75" r="5.32" fill="#047ad5"/>
      <circle cx="24.86" cy="25.75" r="5.27" fill="#057ad5"/>
      <circle cx="24.86" cy="25.75" r="5.23" fill="#067bd6"/>
      <circle cx="24.86" cy="25.75" r="5.18" fill="#077bd6"/>
      <circle cx="24.86" cy="25.75" r="5.13" fill="#087bd6"/>
      <circle cx="24.86" cy="25.75" r="5.08" fill="#097cd7"/>
      <circle cx="24.86" cy="25.75" r="5.03" fill="#0a7cd7"/>
      <circle cx="24.86" cy="25.75" r="4.98" fill="#0b7dd7"/>
      <circle cx="24.86" cy="25.75" r="4.94" fill="#0c7dd7"/>
      <circle cx="24.86" cy="25.75" r="4.89" fill="#0d7ed8"/>
      <circle cx="24.86" cy="25.75" r="4.84" fill="#0e7ed8"/>
      <circle cx="24.86" cy="25.75" r="4.79" fill="#0f7ed8"/>
      <circle cx="24.86" cy="25.75" r="4.74" fill="#107fd9"/>
      <circle cx="24.86" cy="25.75" r="4.7" fill="#117fd9"/>
      <circle cx="24.86" cy="25.75" r="4.65" fill="#1280d9"/>
      <circle cx="24.86" cy="25.75" r="4.6" fill="#1380da"/>
      <circle cx="24.86" cy="25.75" r="4.55" fill="#1481da"/>
      <circle cx="24.86" cy="25.75" r="4.5" fill="#1581da"/>
      <circle cx="24.86" cy="25.75" r="4.46" fill="#1681da"/>
      <circle cx="24.86" cy="25.75" r="4.41" fill="#1782db"/>
      <circle cx="24.86" cy="25.75" r="4.36" fill="#1882db"/>
      <circle cx="24.86" cy="25.75" r="4.31" fill="#1983db"/>
      <circle cx="24.86" cy="25.75" r="4.26" fill="#1a83dc"/>
      <circle cx="24.86" cy="25.75" r="4.22" fill="#1b84dc"/>
      <circle cx="24.86" cy="25.75" r="4.17" fill="#1c84dc"/>
      <circle cx="24.86" cy="25.75" r="4.12" fill="#1d84dc"/>
      <circle cx="24.86" cy="25.75" r="4.07" fill="#1e85dd"/>
      <circle cx="24.86" cy="25.75" r="4.02" fill="#1f85dd"/>
      <circle cx="24.86" cy="25.75" r="3.97" fill="#2086dd"/>
      <circle cx="24.86" cy="25.75" r="3.93" fill="#2186de"/>
      <circle cx="24.86" cy="25.75" r="3.88" fill="#2287de"/>
      <circle cx="24.86" cy="25.75" r="3.83" fill="#2387de"/>
      <circle cx="24.86" cy="25.75" r="3.78" fill="#2487de"/>
      <circle cx="24.86" cy="25.75" r="3.73" fill="#2588df"/>
      <circle cx="24.86" cy="25.75" r="3.69" fill="#2688df"/>
      <circle cx="24.86" cy="25.75" r="3.64" fill="#2789df"/>
      <circle cx="24.86" cy="25.75" r="3.59" fill="#2889e0"/>
      <circle cx="24.86" cy="25.75" r="3.54" fill="#298ae0"/>
      <circle cx="24.86" cy="25.75" r="3.49" fill="#2a8ae0"/>
      <circle cx="24.86" cy="25.75" r="3.45" fill="#2b8ae0"/>
      <circle cx="24.86" cy="25.75" r="3.4" fill="#2c8be1"/>
      <circle cx="24.86" cy="25.75" r="3.35" fill="#2d8be1"/>
      <circle cx="24.86" cy="25.75" r="3.3" fill="#2e8ce1"/>
      <circle cx="24.86" cy="25.75" r="3.25" fill="#308ce2"/>
      <circle cx="24.86" cy="25.75" r="3.21" fill="#318de2"/>
      <circle cx="24.86" cy="25.75" r="3.16" fill="#328de2"/>
      <circle cx="24.86" cy="25.75" r="3.11" fill="#338ee3"/>
      <circle cx="24.86" cy="25.75" r="3.06" fill="#348ee3"/>
      <circle cx="24.86" cy="25.75" r="3.01" fill="#358ee3"/>
      <circle cx="24.86" cy="25.75" r="2.96" fill="#368fe3"/>
      <circle cx="24.86" cy="25.75" r="2.92" fill="#378fe4"/>
      <circle cx="24.86" cy="25.75" r="2.87" fill="#3890e4"/>
      <circle cx="24.86" cy="25.75" r="2.82" fill="#3990e4"/>
      <circle cx="24.86" cy="25.75" r="2.77" fill="#3a91e5"/>
      <circle cx="24.86" cy="25.75" r="2.72" fill="#3b91e5"/>
      <circle cx="24.86" cy="25.75" r="2.68" fill="#3c91e5"/>
      <circle cx="24.86" cy="25.75" r="2.63" fill="#3d92e5"/>
      <circle cx="24.86" cy="25.75" r="2.58" fill="#3e92e6"/>
      <circle cx="24.86" cy="25.75" r="2.53" fill="#3f93e6"/>
      <circle cx="24.86" cy="25.75" r="2.48" fill="#4093e6"/>
      <circle cx="24.86" cy="25.75" r="2.44" fill="#4194e7"/>
      <circle cx="24.86" cy="25.75" r="2.39" fill="#4294e7"/>
      <circle cx="24.86" cy="25.75" r="2.34" fill="#4394e7"/>
      <circle cx="24.86" cy="25.75" r="2.29" fill="#4495e7"/>
      <circle cx="24.86" cy="25.75" r="2.24" fill="#4595e8"/>
      <circle cx="24.86" cy="25.75" r="2.2" fill="#4696e8"/>
      <circle cx="24.86" cy="25.75" r="2.15" fill="#4796e8"/>
      <circle cx="24.86" cy="25.75" r="2.1" fill="#4897e9"/>
      <circle cx="24.86" cy="25.75" r="2.05" fill="#4997e9"/>
      <circle cx="24.86" cy="25.75" r="2" fill="#4a97e9"/>
      <circle cx="24.86" cy="25.75" r="1.95" fill="#4b98e9"/>
      <circle cx="24.86" cy="25.75" r="1.91" fill="#4c98ea"/>
      <circle cx="24.86" cy="25.75" r="1.86" fill="#4d99ea"/>
      <circle cx="24.86" cy="25.75" r="1.81" fill="#4e99ea"/>
      <circle cx="24.86" cy="25.75" r="1.76" fill="#4f9aeb"/>
      <circle cx="24.86" cy="25.75" r="1.71" fill="#509aeb"/>
      <circle cx="24.86" cy="25.75" r="1.67" fill="#519aeb"/>
      <circle cx="24.86" cy="25.75" r="1.62" fill="#529bec"/>
      <circle cx="24.86" cy="25.75" r="1.57" fill="#539bec"/>
      <circle cx="24.86" cy="25.75" r="1.52" fill="#549cec"/>
      <circle cx="24.86" cy="25.75" r="1.47" fill="#559cec"/>
      <circle cx="24.86" cy="25.75" r="1.43" fill="#569ded"/>
      <circle cx="24.86" cy="25.75" r="1.38" fill="#579ded"/>
      <circle cx="24.86" cy="25.75" r="1.33" fill="#589ded"/>
      <circle cx="24.86" cy="25.75" r="1.28" fill="#599eee"/>
      <circle cx="24.86" cy="25.75" r="1.23" fill="#5a9eee"/>
      <circle cx="24.86" cy="25.75" r="1.18" fill="#5b9fee"/>
      <circle cx="24.86" cy="25.75" r="1.14" fill="#5c9fee"/>
      <circle cx="24.86" cy="25.75" r="1.09" fill="#5da0ef"/>
      <circle cx="24.86" cy="25.75" r="1.04" fill="#5ea0ef"/>
    </g>
  </g>
</svg>
