<svg xmlns="http://www.w3.org/2000/svg" xmlns:xlink="http://www.w3.org/1999/xlink" viewBox="0 0 298 450">
  <defs>
    <symbol id="NSG" data-name="NSG" viewBox="0 0 36.6 49.9">
      <path d="M31.2,6h0c-11-1.2-12.9-6-12.9-6S15.8,6.2,0,6.2V31.8c0,3.1,1.7,6,4.1,8.5h0c5.4,5.7,14.2,9.6,14.2,9.6s18.3-8,18.3-18.1V6.2C34.6,6.2,32.8,6.1,31.2,6Z" fill="#3999c6"/>
      <path d="M22.9,16.5,31.2,6c-11-1.2-12.9-6-12.9-6S15.8,6.2,0,6.2V31.8c0,3.1,1.7,6,4.1,8.5l6.2-7.8Z" fill="#59b4d9" opacity="0.4" style="isolation: isolate"/>
      <g>
        <path d="M3.8,24.4v6.1c0,2.5,1.4,4.8,3.3,6.8,4.3,4.6,11.3,7.6,11.3,7.6V24.4Z" fill="#fff" opacity="0.3" style="isolation: isolate"/>
        <path d="M18.3,44.9s14.6-6.4,14.6-14.4V24.4H18.3Z" fill="#fff" opacity="0.7" style="isolation: isolate"/>
        <path d="M18.3,5.1h0s-2,5-14.6,5V24.4H18.3Z" fill="#fff" opacity="0.7" style="isolation: isolate"/>
        <path d="M28.5,9.9c-8.7-1-10.2-4.7-10.2-4.7V24.4H32.9V10.1C31.3,10.1,29.8,10,28.5,9.9Z" fill="#fff" opacity="0.3" style="isolation: isolate"/>
      </g>
      <g>
        <path d="M13.32,29.25H11.55l-4.69-7.2a3.83,3.83,0,0,1-.29-.57h0a11.85,11.85,0,0,1,0,1.35v6.42H5v-9.8H6.9l4.53,7c.19.29.31.49.37.6h0a8,8,0,0,1-.07-1.31V19.45h1.56Z" fill="#3e3e3e"/>
        <path d="M15.3,28.86V27.19a2.42,2.42,0,0,0,.54.36,3.28,3.28,0,0,0,.66.28,5.84,5.84,0,0,0,.69.18,3.83,3.83,0,0,0,.65.06,2.78,2.78,0,0,0,1.52-.34,1.13,1.13,0,0,0,.51-1,1.08,1.08,0,0,0-.17-.6,1.75,1.75,0,0,0-.47-.47,5.13,5.13,0,0,0-.71-.41l-.87-.4q-.49-.27-.93-.54A3.83,3.83,0,0,1,16,23.7a2.52,2.52,0,0,1-.5-.75,2.4,2.4,0,0,1-.18-1,2.23,2.23,0,0,1,.31-1.2,2.77,2.77,0,0,1,.82-.85,3.9,3.9,0,0,1,1.16-.49,5.9,5.9,0,0,1,1.33-.16,5.4,5.4,0,0,1,2.24.35v1.61A3.6,3.6,0,0,0,19,20.63a4.39,4.39,0,0,0-.72.07,2.11,2.11,0,0,0-.64.23,1.37,1.37,0,0,0-.46.4,1,1,0,0,0-.18.6,1.15,1.15,0,0,0,.14.57,1.46,1.46,0,0,0,.4.43,3.73,3.73,0,0,0,.64.39l.88.41a8.94,8.94,0,0,1,1,.56,4,4,0,0,1,.8.65,2.68,2.68,0,0,1,.55.79,2.25,2.25,0,0,1,.2,1,2.33,2.33,0,0,1-1.11,2.09,3.58,3.58,0,0,1-1.17.46,6.33,6.33,0,0,1-1.4.15c-.17,0-.37,0-.61,0s-.48-.06-.73-.11l-.71-.17A2,2,0,0,1,15.3,28.86Z" fill="#3e3e3e"/>
        <path d="M31,28.58a7,7,0,0,1-3.41.83,4.76,4.76,0,0,1-3.52-1.35,4.85,4.85,0,0,1-1.35-3.58,5,5,0,0,1,1.48-3.74A5.09,5.09,0,0,1,28,19.28a7,7,0,0,1,2.75.48v1.68A4.77,4.77,0,0,0,28,20.68a3.44,3.44,0,0,0-2.57,1,3.65,3.65,0,0,0-1,2.67A3.86,3.86,0,0,0,25.31,27a3,3,0,0,0,2.34,1,3.68,3.68,0,0,0,1.75-.39V25.29H27.34V23.92H31Z" fill="#3e3e3e"/>
      </g>
    </symbol>
    <symbol id="IZ_VirtualNetwork" data-name="IZ_VirtualNetwork" viewBox="0 0 50.08 28.71">
      <path d="M49.74,15.08a1.37,1.37,0,0,0,0-1.8l-2.4-2.4L36.54.38a1.14,1.14,0,0,0-1.7,0h0a1.19,1.19,0,0,0,0,1.8l11.3,11.1a1.27,1.27,0,0,1,0,1.8l-11.5,11.5a1.27,1.27,0,0,0,0,1.8h0a1.24,1.24,0,0,0,1.7,0L47,17.77l.1-.1Z" fill="#6197c2"/>
      <path d="M.34,15.08a1.37,1.37,0,0,1,0-1.8l2.4-2.4L13.54.38a1.14,1.14,0,0,1,1.7,0h0a1.19,1.19,0,0,1,0,1.8L4.14,13.27a1.27,1.27,0,0,0,0,1.8l11.3,11.5a1.27,1.27,0,0,1,0,1.8h0a1.24,1.24,0,0,1-1.7,0L2.84,17.88l-.1-.11Z" fill="#6197c2"/>
      <path d="M18.24,14.17a3.33,3.33,0,0,1-3.3,3.3,3.66,3.66,0,0,1-3.5-3.3,3.37,3.37,0,0,1,3.5-3.29A3.26,3.26,0,0,1,18.24,14.17Z" fill="#91b82b"/>
      <path d="M28.34,14.17a3.33,3.33,0,0,1-3.3,3.3,3.66,3.66,0,0,1-3.5-3.3A3.51,3.51,0,0,1,25,10.88,3.33,3.33,0,0,1,28.34,14.17Z" fill="#91b82b"/>
      <circle cx="35.24" cy="14.17" r="3.3" fill="#91b82b"/>
    </symbol>
  </defs>
  <title>2-azure-network</title>
  <g id="Shapes">
    <rect x="1" width="297" height="450" fill="#fff"/>
    <g>
      <g>
        <rect x="26.5" y="52.49" width="270" height="360" rx="5" fill="#fff"/>
        <rect x="26.5" y="52.49" width="270" height="360" rx="5" fill="#0072c6" opacity="0.05"/>
      </g>
      <path d="M290.35,413h-1v-1h1Zm-3,0h-1v-1h1Zm-3,0h-1v-1h1Zm-3,0h-1v-1h1Zm-3,0h-1v-1h1Zm-3,0h-1v-1h1Zm-3,0h-1v-1h1Zm-3,0h-1v-1h1Zm-3,0h-1v-1h1Zm-3,0h-1v-1h1Zm-3,0h-1v-1h1Zm-3,0h-1v-1h1Zm-3,0h-1v-1h1Zm-3,0h-1v-1h1Zm-3,0h-1v-1h1Zm-3,0h-1v-1h1Zm-3,0h-1v-1h1Zm-3,0h-1v-1h1Zm-3,0h-1v-1h1Zm-3,0h-1v-1h1Zm-3,0h-1v-1h1Zm-3,0h-1v-1h1Zm-3,0h-1v-1h1Zm-3,0h-1v-1h1Zm-3,0h-1v-1h1Zm-3,0h-1v-1h1Zm-3,0h-1v-1h1Zm-3,0h-1v-1h1Zm-3,0h-1v-1h1Zm-3,0h-1v-1h1Zm-3,0h-1v-1h1Zm-3,0h-1v-1h1Zm-3,0h-1v-1h1Zm-3,0h-1v-1h1Zm-3,0h-1v-1h1Zm-3,0h-1v-1h1Zm-3,0h-1v-1h1Zm-3,0h-1v-1h1Zm-3,0h-1v-1h1Zm-3,0h-1v-1h1Zm-3,0h-1v-1h1Zm-3,0h-1v-1h1Zm-3,0h-1v-1h1Zm-3,0h-1v-1h1Zm-3,0h-1v-1h1Zm-3,0h-1v-1h1Zm-3,0h-1v-1h1Zm-3,0h-1v-1h1Zm-3,0h-1v-1h1Zm-3,0h-1v-1h1Zm-3,0h-1v-1h1Zm-3,0h-1v-1h1Zm-3,0h-1v-1h1Zm-3,0h-1v-1h1Zm-3,0h-1v-1h1Zm-3,0h-1v-1h1Zm-3,0h-1v-1h1Zm-3,0h-1v-1h1Zm-3,0h-1v-1h1Zm-3,0h-1v-1h1Zm-3,0h-1v-1h1Zm-3,0h-1v-1h1Zm-3,0h-1v-1h1Zm-3,0h-1v-1h1Zm-3,0h-1v-1h1Zm-3,0h-1v-1h1Zm-3,0h-1v-1h1Zm-3,0h-1v-1h1Zm-3,0h-1v-1h1Zm-3,0h-1v-1h1Zm-3,0h-1v-1h1Zm-3,0h-1v-1h1Zm-3,0h-1v-1h1Zm-3,0h-1v-1h1Zm-3,0h-1v-1h1Zm-3,0h-1v-1h1Zm-3,0h-1v-1h1Zm-30,0h-1l0-1h1Zm260.15-.08-.17-1a4.7,4.7,0,0,0,.87-.24l.36.93A5.09,5.09,0,0,1,292.43,412.91Zm-263.3-.46a6,6,0,0,1-.93-.57l.6-.8a4.66,4.66,0,0,0,.77.47Zm266.2-1-.7-.72a4.82,4.82,0,0,0,.58-.69l.82.57A4.73,4.73,0,0,1,295.33,411.43ZM26.75,410.24a5,5,0,0,1-.46-1l.95-.32a4,4,0,0,0,.37.82Zm270.14-1.66-1-.2a4.41,4.41,0,0,0,.09-.89l1-.06v.06A5.6,5.6,0,0,1,296.89,408.58ZM27,407.11H26v-1h1Zm270-1.68h-1v-1h1ZM27,404.11H26v-1h1Zm270-1.68h-1v-1h1ZM27,401.11H26v-1h1Zm270-1.68h-1v-1h1ZM27,398.11H26v-1h1Zm270-1.68h-1v-1h1ZM27,395.11H26v-1h1Zm270-1.68h-1v-1h1ZM27,392.11H26v-1h1Zm270-1.69h-1v-1h1ZM27,389.11H26v-1h1Zm270-1.69h-1v-1h1ZM27,386.11H26v-1h1Zm270-1.69h-1v-1h1ZM27,383.11H26v-1h1Zm270-1.69h-1v-1h1ZM27,380.11H26v-1h1Zm270-1.69h-1v-1h1ZM27,377.1H26v-1h1Zm270-1.68h-1v-1h1ZM27,374.1H26v-1h1Zm270-1.68h-1v-1h1ZM27,371.1H26v-1h1Zm270-1.68h-1v-1h1ZM27,368.1H26v-1h1Zm270-1.68h-1v-1h1ZM27,365.1H26v-1h1Zm270-1.68h-1v-1h1ZM27,362.1H26v-1h1Zm270-1.68h-1v-1h1ZM27,359.1H26v-1h1Zm270-1.68h-1v-1h1ZM27,356.1H26v-1h1Zm270-1.69h-1v-1h1ZM27,353.1H26v-1h1Zm270-1.69h-1v-1h1ZM27,350.1H26v-1h1Zm270-1.69h-1v-1h1ZM27,347.1H26v-1h1Zm270-1.69h-1v-1h1ZM27,344.1H26v-1h1Zm270-1.69h-1v-1h1ZM27,341.1H26v-1h1Zm270-1.69h-1v-1h1ZM27,338.09H26v-1h1Zm270-1.68h-1v-1h1ZM27,335.09H26v-1h1Zm270-1.68h-1v-1h1ZM27,332.09H26v-1h1Zm270-1.68h-1v-1h1ZM27,329.09H26v-1h1Zm270-1.68h-1v-1h1ZM27,326.09H26v-1h1Zm270-1.68h-1v-1h1ZM27,323.09H26v-1h1Zm270-1.68h-1v-1h1ZM27,320.09H26v-1h1Zm270-1.69h-1v-1h1ZM27,317.09H26v-1h1Zm270-1.69h-1v-1h1ZM27,314.09H26v-1h1Zm270-1.69h-1v-1h1ZM27,311.09H26v-1h1Zm270-1.69h-1v-1h1ZM27,308.09H26v-1h1Zm270-1.69h-1v-1h1ZM27,305.08H26v-1h1Zm270-1.68h-1v-1h1ZM27,302.08H26v-1h1Zm270-1.68h-1v-1h1ZM27,299.08H26v-1h1Zm270-1.68h-1v-1h1ZM27,296.08H26v-1h1Zm270-1.68h-1v-1h1ZM27,293.08H26v-1h1Zm270-1.68h-1v-1h1ZM27,290.08H26v-1h1Zm270-1.68h-1v-1h1ZM27,287.08H26v-1h1Zm270-1.68h-1v-1h1ZM27,284.08H26v-1h1Zm270-1.69h-1v-1h1ZM27,281.08H26v-1h1Zm270-1.69h-1v-1h1ZM27,278.08H26v-1h1Zm270-1.69h-1v-1h1ZM27,275.08H26v-1h1Zm270-1.69h-1v-1h1ZM27,272.08H26v-1h1Zm270-1.69h-1v-1h1ZM27,269.07H26v-1h1Zm270-1.68h-1v-1h1ZM27,266.07H26v-1h1Zm270-1.68h-1v-1h1ZM27,263.07H26v-1h1Zm270-1.68h-1v-1h1ZM27,260.07H26v-1h1Zm270-1.68h-1v-1h1ZM27,257.07H26v-1h1Zm270-1.68h-1v-1h1ZM27,254.07H26v-1h1Zm270-1.68h-1v-1h1ZM27,251.07H26v-1h1Zm270-1.68h-1v-1h1ZM27,248.07H26v-1h1Zm270-1.69h-1v-1h1ZM27,245.07H26v-1h1Zm270-1.69h-1v-1h1ZM27,242.07H26v-1h1Zm270-1.69h-1v-1h1ZM27,239.07H26v-1h1Zm270-1.69h-1v-1h1ZM27,236.07H26v-1h1Zm270-1.69h-1v-1h1ZM27,233.06H26v-1h1Zm270-1.68h-1v-1h1ZM27,230.06H26v-1h1Zm270-1.68h-1v-1h1ZM27,227.06H26v-1h1Zm270-1.68h-1v-1h1ZM27,224.06H26v-1h1Zm270-1.68h-1v-1h1ZM27,221.06H26v-1h1Zm270-1.68h-1v-1h1ZM27,218.06H26v-1h1Zm270-1.68h-1v-1h1ZM27,215.06H26v-1h1Zm270-1.68h-1v-1h1ZM27,212.06H26v-1h1Zm270-1.69h-1v-1h1ZM27,209.06H26v-1h1Zm270-1.69h-1v-1h1ZM27,206.06H26v-1h1Zm270-1.69h-1v-1h1ZM27,203.06H26v-1h1Zm270-1.69h-1v-1h1ZM27,200.06H26v-1h1Zm270-1.69h-1v-1h1ZM27,197.05H26v-1h1Zm270-1.68h-1v-1h1ZM27,194.05H26v-1h1Zm270-1.68h-1v-1h1ZM27,191.05H26v-1h1Zm270-1.68h-1v-1h1ZM27,188.05H26v-1h1Zm270-1.68h-1v-1h1ZM27,185.05H26v-1h1Zm270-1.68h-1v-1h1ZM27,182.05H26v-1h1Zm270-1.68h-1v-1h1ZM27,179.05H26v-1h1Zm270-1.69h-1v-1h1ZM27,176.05H26v-1h1Zm270-1.69h-1v-1h1ZM27,173.05H26v-1h1Zm270-1.69h-1v-1h1ZM27,170.05H26v-1h1Zm270-1.69h-1v-1h1ZM27,167.05H26v-1h1Zm270-1.69h-1v-1h1ZM27,164.05H26v-1h1Zm270-1.69h-1v-1h1ZM27,161H26v-1h1Zm270-1.68h-1v-1h1ZM27,158H26v-1h1Zm270-1.68h-1v-1h1ZM27,155H26v-1h1Zm270-1.68h-1v-1h1ZM27,152H26v-1h1Zm270-1.68h-1v-1h1ZM27,149H26v-1h1Zm270-1.68h-1v-1h1ZM27,146H26v-1h1Zm270-1.68h-1v-1h1ZM27,143H26v-1h1Zm270-1.69h-1v-1h1ZM27,140H26v-1h1Zm270-1.69h-1v-1h1ZM27,137H26v-1h1Zm270-1.69h-1v-1h1ZM27,134H26v-1h1Zm270-1.69h-1v-1h1ZM27,131H26v-1h1Zm270-1.69h-1v-1h1ZM27,128H26v-1h1Zm270-1.69h-1v-1h1ZM27,125H26v-1h1Zm270-1.68h-1v-1h1ZM27,122H26v-1h1Zm270-1.68h-1v-1h1ZM27,119H26v-1h1Zm270-1.68h-1v-1h1ZM27,116H26v-1h1Zm270-1.68h-1v-1h1ZM27,113H26v-1h1Zm270-1.68h-1v-1h1ZM27,110H26v-1h1Zm270-1.68h-1v-1h1ZM27,107H26v-1h1Zm270-1.69h-1v-1h1ZM27,104H26v-1h1Zm270-1.69h-1v-1h1ZM27,101H26v-1h1Zm270-1.69h-1v-1h1ZM27,98H26V97h1Zm270-1.69h-1v-1h1ZM27,95H26V94h1Zm270-1.69h-1v-1h1ZM27,92H26V91h1Zm270-1.69h-1v-1h1ZM27,89H26V88h1Zm270-1.68h-1v-1h1ZM27,86H26V85h1Zm270-1.68h-1v-1h1ZM27,83H26V82h1Zm270-1.68h-1v-1h1ZM27,80H26V79h1Zm270-1.68h-1v-1h1ZM27,77H26V76h1Zm270-1.68h-1v-1h1ZM27,74H26V73h1Zm270-1.68h-1v-1h1ZM27,71H26V70h1Zm270-1.69h-1v-1h1ZM27,68H26V67h1Zm270-1.69h-1v-1h1ZM27,65H26V64h1Zm270-1.69h-1v-1h1ZM27,62H26V61h1Zm270-1.69h-1v-1h1ZM27,59H26V58h1Zm269-1.67a4.43,4.43,0,0,0-.12-.89l1-.23a4.94,4.94,0,0,1,.15,1.09ZM27.19,56.18l-1-.29a5.25,5.25,0,0,1,.42-1l.88.48A4.93,4.93,0,0,0,27.19,56.18Zm267.94-1.35a4.7,4.7,0,0,0-.6-.66l.67-.74a5.69,5.69,0,0,1,.74.81ZM28.69,54l-.63-.78a6,6,0,0,1,.92-.6l.46.89A4.6,4.6,0,0,0,28.69,54ZM293,53.24a4.25,4.25,0,0,0-.87-.21l.14-1a5.57,5.57,0,0,1,1.07.26ZM31.16,53l-.08-1h1v1h-1Zm259,0h-1V52h1Zm-3,0h-1V52h1Zm-3,0h-1V52h1Zm-3,0h-1V52h1Zm-3,0h-1V52h1Zm-3,0h-1V52h1Zm-3,0h-1V52h1Zm-3,0h-1V52h1Zm-3,0h-1V52h1Zm-3,0h-1V52h1Zm-3,0h-1V52h1Zm-3,0h-1V52h1Zm-3,0h-1V52h1Zm-3,0h-1V52h1Zm-3,0h-1V52h1Zm-3,0h-1V52h1Zm-3,0h-1V52h1Zm-3,0h-1V52h1Zm-3,0h-1V52h1Zm-3,0h-1V52h1Zm-3,0h-1V52h1Zm-3,0h-1V52h1Zm-3,0h-1V52h1Zm-3,0h-1V52h1Zm-3,0h-1V52h1Zm-3,0h-1V52h1Zm-3,0h-1V52h1Zm-3,0h-1V52h1Zm-3,0h-1V52h1Zm-3,0h-1V52h1Zm-3,0h-1V52h1Zm-3,0h-1V52h1Zm-3,0h-1V52h1Zm-3,0h-1V52h1Zm-3,0h-1V52h1Zm-3,0h-1V52h1Zm-3,0h-1V52h1Zm-3,0h-1V52h1Zm-3,0h-1V52h1Zm-3,0h-1V52h1Zm-3,0h-1V52h1Zm-3,0h-1V52h1Zm-3,0h-1V52h1Zm-3,0h-1V52h1Zm-3,0h-1V52h1Zm-3,0h-1V52h1Zm-3,0h-1V52h1Zm-3,0h-1V52h1Zm-3,0h-1V52h1Zm-3,0h-1V52h1Zm-3,0h-1V52h1Zm-3,0h-1V52h1Zm-3,0h-1V52h1Zm-3,0h-1V52h1Zm-3,0h-1V52h1Zm-3,0h-1V52h1Zm-3,0h-1V52h1Zm-3,0h-1V52h1Zm-3,0h-1V52h1Zm-3,0h-1V52h1Zm-3,0h-1V52h1Zm-3,0h-1V52h1Zm-3,0h-1V52h1Zm-3,0h-1V52h1Zm-3,0h-1V52h1Zm-3,0h-1V52h1Zm-3,0h-1V52h1Zm-3,0h-1V52h1Zm-3,0h-1V52h1Zm-3,0h-1V52h1Zm-3,0h-1V52h1Zm-3,0h-1V52h1Zm-3,0h-1V52h1Zm-3,0h-1V52h1Zm-3,0h-1V52h1Zm-3,0h-1V52h1Zm-3,0h-1V52h1Zm-3,0h-1V52h1Zm-3,0h-1V52h1Zm-3,0h-1V52h1Zm-3,0h-1V52h1Zm-3,0h-1V52h1Zm-3,0h-1V52h1Zm-3,0h-1V52h1Zm-3,0h-1V52h1Zm-3,0h-1V52h1Z" fill="#0072c6"/>
    </g>
    <g>
      <path d="M43.46,47a7.51,7.51,0,0,0-3.11.67A11.47,11.47,0,1,0,18.42,41.1,6.24,6.24,0,0,0,7.7,45.42a.92.92,0,0,0,0,.16A8.28,8.28,0,0,0,9.32,62H43.46a7.51,7.51,0,1,0,0-15" fill="#d2d2d2" fill-rule="evenodd"/>
      <path d="M25.73,49.55l5.05,6L21,57.32H37l-8.65-15Z" fill="#0078d4" fill-rule="evenodd"/>
      <path d="M21.66,46.5l-5.38,9.25h4.85v0l6.81-14.51Z" fill="#0078d4" fill-rule="evenodd"/>
    </g>
    <g>
      <g style="isolation: isolate">
        <path d="M161.77,9.78a9.06,9.06,0,0,1,17.89-.29,6.15,6.15,0,0,1,8.69.8,6.37,6.37,0,0,1,1.22,2.35,5.42,5.42,0,0,1,2.58,10.53,5.76,5.76,0,0,1-1.3.15H160.51a6.91,6.91,0,0,1-5.39-6.76A6.75,6.75,0,0,1,161.77,9.78Z" fill="#fff"/>
        <path d="M161.77,9.78a9.06,9.06,0,0,1,17.89-.29,6.15,6.15,0,0,1,8.69.8,6.37,6.37,0,0,1,1.22,2.35,5.42,5.42,0,0,1,2.58,10.53,5.76,5.76,0,0,1-1.3.15H160.51a6.91,6.91,0,0,1-5.39-6.76A6.75,6.75,0,0,1,161.77,9.78Z" fill="#3c3c41" opacity="0.6"/>
        <path d="M161.77,9.78a9.06,9.06,0,0,1,17.89-.29,6.15,6.15,0,0,1,8.69.8,6.37,6.37,0,0,1,1.22,2.35,5.42,5.42,0,0,1,2.58,10.53,5.76,5.76,0,0,1-1.3.15H160.51a6.91,6.91,0,0,1-5.39-6.76A6.75,6.75,0,0,1,161.77,9.78Z" fill="none" stroke="#fff" stroke-miterlimit="10" stroke-width="2"/>
      </g>
      <g style="isolation: isolate">
        <path d="M160.73,9.78a9.06,9.06,0,0,0-17.9-.29,6.14,6.14,0,0,0-8.68.8,6.22,6.22,0,0,0-1.22,2.35,5.42,5.42,0,0,0-2.58,10.53,5.7,5.7,0,0,0,1.3.15H162a6.92,6.92,0,0,0,5.39-6.76A6.75,6.75,0,0,0,160.73,9.78Z" fill="#fff"/>
        <path d="M160.73,9.78a9.06,9.06,0,0,0-17.9-.29,6.14,6.14,0,0,0-8.68.8,6.22,6.22,0,0,0-1.22,2.35,5.42,5.42,0,0,0-2.58,10.53,5.7,5.7,0,0,0,1.3.15H162a6.92,6.92,0,0,0,5.39-6.76A6.75,6.75,0,0,0,160.73,9.78Z" fill="#3c3c41" opacity="0.6"/>
        <path d="M160.73,9.78a9.06,9.06,0,0,0-17.9-.29,6.14,6.14,0,0,0-8.68.8,6.22,6.22,0,0,0-1.22,2.35,5.42,5.42,0,0,0-2.58,10.53,5.7,5.7,0,0,0,1.3.15H162a6.92,6.92,0,0,0,5.39-6.76A6.75,6.75,0,0,0,160.73,9.78Z" fill="none" stroke="#fff" stroke-miterlimit="10" stroke-width="2"/>
      </g>
      <g style="isolation: isolate">
        <path d="M151.88,11.75a7.75,7.75,0,0,1,15.3-.25,5.25,5.25,0,0,1,7.42.68,5.31,5.31,0,0,1,1.05,2,4.63,4.63,0,0,1,2.2,9,4.67,4.67,0,0,1-1.11.13H150.8a5.9,5.9,0,0,1-4.61-5.78A5.78,5.78,0,0,1,151.88,11.75Z" fill="#fff"/>
        <path d="M151.88,11.75a7.75,7.75,0,0,1,15.3-.25,5.25,5.25,0,0,1,7.42.68,5.31,5.31,0,0,1,1.05,2,4.63,4.63,0,0,1,2.2,9,4.67,4.67,0,0,1-1.11.13H150.8a5.9,5.9,0,0,1-4.61-5.78A5.78,5.78,0,0,1,151.88,11.75Z" fill="#3c3c41" opacity="0.6"/>
        <path d="M151.88,11.75a7.75,7.75,0,0,1,15.3-.25,5.25,5.25,0,0,1,7.42.68,5.31,5.31,0,0,1,1.05,2,4.63,4.63,0,0,1,2.2,9,4.67,4.67,0,0,1-1.11.13H150.8a5.9,5.9,0,0,1-4.61-5.78A5.78,5.78,0,0,1,151.88,11.75Z" fill="none" stroke="#fff" stroke-miterlimit="10" stroke-width="2"/>
      </g>
    </g>
    <g>
      <line x1="161.25" y1="41.99" x2="161.25" y2="71.6" fill="none" stroke="#231f20" stroke-miterlimit="10"/>
      <polygon points="157.51 70.51 161.25 76.99 164.99 70.51 157.51 70.51" fill="#231f20"/>
    </g>
    <g>
      <rect x="56" y="91.99" width="210" height="135" fill="#fff"/>
      <rect x="56" y="91.99" width="210" height="135" fill="#3c3c41" opacity="0.18"/>
    </g>
    <g>
      <rect x="56" y="266.99" width="210" height="135" fill="#fff"/>
      <rect x="56" y="266.99" width="210" height="135" fill="#3c3c41" opacity="0.18"/>
    </g>
    <g>
      <path d="M109.31,146.56h-7.68c.9,3.22-.34,3.73-5.77,3.73V152h18.43v-1.7C108.92,150.29,108.41,149.84,109.31,146.56Z" fill="#7a7a7a"/>
      <path d="M117.57,126h-25A1.57,1.57,0,0,0,91,127.57V145a1.57,1.57,0,0,0,1.53,1.58h25a1.72,1.72,0,0,0,1.69-1.58V127.57A1.72,1.72,0,0,0,117.57,126Zm-.46,2.14v16.23h-24V128.13l24,0Z" fill="#3e3e3e"/>
      <polygon points="117.06 128.13 117.06 144.41 93.15 144.41 93.15 128.13 117.11 128.13 117.06 128.13" fill="#00bbf1"/>
      <path d="M93.15,144.41h0V128.13H115l2.55-2.14h-25A1.57,1.57,0,0,0,91,127.57V145a1.57,1.57,0,0,0,1.53,1.58h.62l2.6-2.15Z" fill="#7a7a7a"/>
      <polygon points="93.15 144.41 93.15 144.41 93.15 128.13 115.02 128.13 115.02 128.13 93.15 128.13 93.15 144.41" fill="#59b4d9"/>
      <rect x="95.92" y="150.29" width="18.48" height="1.7" fill="#b0b0b0"/>
      <circle cx="105.02" cy="127.17" r="0.4" fill="#bac84a"/>
      <path d="M105.13,136h-.06l-5-2.88c-.06,0-.06-.06-.06-.11a.21.21,0,0,1,.06-.12l4.92-2.82h.17l5,2.88c.06,0,.06.06.06.11s0,.12-.06.12L105.24,136Z" fill="#fff" opacity="0.9" style="isolation: isolate"/>
      <path d="M104.4,142.94h-.06l-5-2.82c-.06,0-.06-.06-.06-.12v-5.76c0-.06,0-.11.06-.11h.16l5,2.82c.06,0,.06.06.06.12v5.7a.21.21,0,0,1-.06.12C104.45,142.94,104.45,142.94,104.4,142.94Z" fill="#fff" opacity="0.8" style="isolation: isolate"/>
      <path d="M105.81,142.94h-.06s0-.05,0-.11v-5.71a.22.22,0,0,1,0-.11l5-2.83h.17s0,.06,0,.12V140a.22.22,0,0,1,0,.12l-5,2.82Z" fill="#fff" opacity="0.5" style="isolation: isolate"/>
    </g>
    <g>
      <path d="M165.56,146.56h-7.68c.9,3.22-.34,3.73-5.77,3.73V152h18.43v-1.7C165.17,150.29,164.66,149.84,165.56,146.56Z" fill="#7a7a7a"/>
      <path d="M173.82,126h-25a1.57,1.57,0,0,0-1.53,1.58V145a1.57,1.57,0,0,0,1.53,1.58h25a1.72,1.72,0,0,0,1.69-1.58V127.57A1.72,1.72,0,0,0,173.82,126Zm-.46,2.14v16.23h-24V128.13l24,0Z" fill="#3e3e3e"/>
      <polygon points="173.31 128.13 173.31 144.41 149.4 144.41 149.4 128.13 173.36 128.13 173.31 128.13" fill="#00bbf1"/>
      <path d="M149.4,144.41h0V128.13h21.87l2.55-2.14h-25a1.57,1.57,0,0,0-1.53,1.58V145a1.57,1.57,0,0,0,1.53,1.58h.62l2.6-2.15Z" fill="#7a7a7a"/>
      <polygon points="149.4 144.41 149.4 144.41 149.4 128.13 171.27 128.13 171.27 128.13 149.4 128.13 149.4 144.41" fill="#59b4d9"/>
      <rect x="152.17" y="150.29" width="18.48" height="1.7" fill="#b0b0b0"/>
      <circle cx="161.27" cy="127.17" r="0.4" fill="#bac84a"/>
      <path d="M161.38,136h-.06l-5-2.88c-.06,0-.06-.06-.06-.11a.21.21,0,0,1,.06-.12l4.92-2.82h.17l5,2.88c.06,0,.06.06.06.11s0,.12-.06.12L161.49,136Z" fill="#fff" opacity="0.9" style="isolation: isolate"/>
      <path d="M160.65,142.94h-.06l-5-2.82c-.06,0-.06-.06-.06-.12v-5.76c0-.06,0-.11.06-.11h.16l5,2.82c.06,0,.06.06.06.12v5.7a.21.21,0,0,1-.06.12C160.7,142.94,160.7,142.94,160.65,142.94Z" fill="#fff" opacity="0.8" style="isolation: isolate"/>
      <path d="M162.06,142.94H162c-.05,0-.05-.05-.05-.11v-5.71A.22.22,0,0,1,162,137l5-2.83h.17s0,.06,0,.12V140a.22.22,0,0,1,0,.12l-5,2.82Z" fill="#fff" opacity="0.5" style="isolation: isolate"/>
    </g>
    <g>
      <path d="M221.81,146.56h-7.68c.9,3.22-.34,3.73-5.77,3.73V152h18.43v-1.7C221.42,150.29,220.91,149.84,221.81,146.56Z" fill="#7a7a7a"/>
      <path d="M230.07,126H205a1.57,1.57,0,0,0-1.53,1.58V145a1.57,1.57,0,0,0,1.53,1.58h25a1.72,1.72,0,0,0,1.69-1.58V127.57A1.72,1.72,0,0,0,230.07,126Zm-.46,2.14v16.23h-24V128.13l24,0Z" fill="#3e3e3e"/>
      <polygon points="229.56 128.13 229.56 144.41 205.65 144.41 205.65 128.13 229.61 128.13 229.56 128.13" fill="#00bbf1"/>
      <path d="M205.65,144.41h0V128.13h21.87l2.55-2.14H205a1.57,1.57,0,0,0-1.53,1.58V145a1.57,1.57,0,0,0,1.53,1.58h.62l2.6-2.15Z" fill="#7a7a7a"/>
      <polygon points="205.65 144.41 205.65 144.41 205.65 128.13 227.52 128.13 227.52 128.13 205.65 128.13 205.65 144.41" fill="#59b4d9"/>
      <rect x="208.42" y="150.29" width="18.48" height="1.7" fill="#b0b0b0"/>
      <circle cx="217.52" cy="127.17" r="0.4" fill="#bac84a"/>
      <path d="M217.63,136h-.06l-5-2.88c-.06,0-.06-.06-.06-.11a.21.21,0,0,1,.06-.12l4.92-2.82h.17l5,2.88c.06,0,.06.06.06.11s0,.12-.06.12L217.74,136Z" fill="#fff" opacity="0.9" style="isolation: isolate"/>
      <path d="M216.9,142.94h-.06l-5-2.82c-.06,0-.06-.06-.06-.12v-5.76c0-.06,0-.11.06-.11H212l5,2.82c.06,0,.06.06.06.12v5.7a.21.21,0,0,1-.06.12C217,142.94,217,142.94,216.9,142.94Z" fill="#fff" opacity="0.8" style="isolation: isolate"/>
      <path d="M218.31,142.94h-.06c-.05,0-.05-.05-.05-.11v-5.71a.22.22,0,0,1,.05-.11l5-2.83h.17s0,.06,0,.12V140a.22.22,0,0,1,0,.12l-5,2.82Z" fill="#fff" opacity="0.5" style="isolation: isolate"/>
    </g>
    <use width="36.6" height="49.9" transform="translate(71.2 82.99) scale(0.52)" xlink:href="#NSG"/>
    <g>
      <path d="M161.25,109a2.76,2.76,0,0,1-2-.81L147.06,95.94a2.74,2.74,0,0,1-.81-2,2.78,2.78,0,0,1,.81-2L159.29,79.8a2.78,2.78,0,0,1,3.92,0L175.44,92a2.76,2.76,0,0,1,0,3.91l-12.23,12.24a2.78,2.78,0,0,1-2,.81" fill="#7fba00"/>
      <path d="M173.62,93.78l-4-4v2.8h-4.21a4.37,4.37,0,0,0-3-3v-4h2.77l-4-4-4,4h2.77v4a4.37,4.37,0,0,0-3,3h-4.21V89.83l-4,4,4,4V95h4.21a4.4,4.4,0,0,0,3,3v2.78a3.36,3.36,0,0,0-1.52,2.42,2.71,2.71,0,0,0,5.42,0,3.38,3.38,0,0,0-1.5-2.41V98a4.37,4.37,0,0,0,3-3h4.22v2.77Z" fill="#fff"/>
      <path d="M161.25,90.63a3.16,3.16,0,1,0,3.15,3.15A3.16,3.16,0,0,0,161.25,90.63Z" fill="#59b4d9"/>
      <path d="M163.21,79.8a2.78,2.78,0,0,0-3.92,0L147.06,92a2.78,2.78,0,0,0-.81,2,2.74,2.74,0,0,0,.81,2l6.93,6.93,13-19.26Z" fill="#fff" opacity="0.15" style="isolation: isolate"/>
    </g>
    <line x1="161.25" y1="111.49" x2="161.25" y2="123.99" fill="none" stroke="#231f20" stroke-miterlimit="10"/>
    <path d="M154,107H111a5,5,0,0,0-5,5v12" fill="none" stroke="#231f20" stroke-miterlimit="10"/>
    <path d="M169.54,107h43a5,5,0,0,1,5,5v12" fill="none" stroke="#231f20" stroke-miterlimit="10"/>
    <g>
      <path d="M109.31,321.56h-7.68c.9,3.22-.34,3.73-5.77,3.73V327h18.43v-1.7C108.92,325.29,108.41,324.84,109.31,321.56Z" fill="#7a7a7a"/>
      <path d="M117.57,301h-25A1.57,1.57,0,0,0,91,302.57V320a1.57,1.57,0,0,0,1.53,1.58h25a1.72,1.72,0,0,0,1.69-1.58V302.57A1.72,1.72,0,0,0,117.57,301Zm-.46,2.14v16.23h-24V303.13l24-.05Z" fill="#3e3e3e"/>
      <polygon points="117.06 303.13 117.06 319.41 93.15 319.41 93.15 303.13 117.11 303.13 117.06 303.13" fill="#00bbf1"/>
      <path d="M93.15,319.41h0V303.13H115l2.55-2.14h-25A1.57,1.57,0,0,0,91,302.57V320a1.57,1.57,0,0,0,1.53,1.58h.62l2.6-2.15Z" fill="#7a7a7a"/>
      <polygon points="93.15 319.41 93.15 319.41 93.15 303.13 115.02 303.13 115.02 303.13 93.15 303.13 93.15 319.41" fill="#59b4d9"/>
      <rect x="95.92" y="325.29" width="18.48" height="1.7" fill="#b0b0b0"/>
      <circle cx="105.02" cy="302.17" r="0.4" fill="#bac84a"/>
      <path d="M105.13,311h-.06l-5-2.88c-.06,0-.06-.06-.06-.11a.21.21,0,0,1,.06-.12l4.92-2.82h.17l5,2.88c.06,0,.06.06.06.11s0,.12-.06.12L105.24,311Z" fill="#fff" opacity="0.9" style="isolation: isolate"/>
      <path d="M104.4,317.94h-.06l-5-2.82c-.06,0-.06-.06-.06-.12v-5.76c0-.06,0-.11.06-.11h.16l5,2.82c.06,0,.06.06.06.12v5.7a.21.21,0,0,1-.06.12C104.45,317.94,104.45,317.94,104.4,317.94Z" fill="#fff" opacity="0.8" style="isolation: isolate"/>
      <path d="M105.81,317.94h-.06s0-.05,0-.11v-5.71a.22.22,0,0,1,0-.11l5-2.83h.17s0,.06,0,.12V315a.22.22,0,0,1,0,.12l-5,2.82Z" fill="#fff" opacity="0.5" style="isolation: isolate"/>
    </g>
    <g>
      <path d="M165.56,321.56h-7.68c.9,3.22-.34,3.73-5.77,3.73V327h18.43v-1.7C165.17,325.29,164.66,324.84,165.56,321.56Z" fill="#7a7a7a"/>
      <path d="M173.82,301h-25a1.57,1.57,0,0,0-1.53,1.58V320a1.57,1.57,0,0,0,1.53,1.58h25a1.72,1.72,0,0,0,1.69-1.58V302.57A1.72,1.72,0,0,0,173.82,301Zm-.46,2.14v16.23h-24V303.13l24-.05Z" fill="#3e3e3e"/>
      <polygon points="173.31 303.13 173.31 319.41 149.4 319.41 149.4 303.13 173.36 303.13 173.31 303.13" fill="#00bbf1"/>
      <path d="M149.4,319.41h0V303.13h21.87l2.55-2.14h-25a1.57,1.57,0,0,0-1.53,1.58V320a1.57,1.57,0,0,0,1.53,1.58h.62l2.6-2.15Z" fill="#7a7a7a"/>
      <polygon points="149.4 319.41 149.4 319.41 149.4 303.13 171.27 303.13 171.27 303.13 149.4 303.13 149.4 319.41" fill="#59b4d9"/>
      <rect x="152.17" y="325.29" width="18.48" height="1.7" fill="#b0b0b0"/>
      <circle cx="161.27" cy="302.17" r="0.4" fill="#bac84a"/>
      <path d="M161.38,311h-.06l-5-2.88c-.06,0-.06-.06-.06-.11a.21.21,0,0,1,.06-.12l4.92-2.82h.17l5,2.88c.06,0,.06.06.06.11s0,.12-.06.12L161.49,311Z" fill="#fff" opacity="0.9" style="isolation: isolate"/>
      <path d="M160.65,317.94h-.06l-5-2.82c-.06,0-.06-.06-.06-.12v-5.76c0-.06,0-.11.06-.11h.16l5,2.82c.06,0,.06.06.06.12v5.7a.21.21,0,0,1-.06.12C160.7,317.94,160.7,317.94,160.65,317.94Z" fill="#fff" opacity="0.8" style="isolation: isolate"/>
      <path d="M162.06,317.94H162c-.05,0-.05-.05-.05-.11v-5.71A.22.22,0,0,1,162,312l5-2.83h.17s0,.06,0,.12V315a.22.22,0,0,1,0,.12l-5,2.82Z" fill="#fff" opacity="0.5" style="isolation: isolate"/>
    </g>
    <g>
      <path d="M221.81,321.56h-7.68c.9,3.22-.34,3.73-5.77,3.73V327h18.43v-1.7C221.42,325.29,220.91,324.84,221.81,321.56Z" fill="#7a7a7a"/>
      <path d="M230.07,301H205a1.57,1.57,0,0,0-1.53,1.58V320a1.57,1.57,0,0,0,1.53,1.58h25a1.72,1.72,0,0,0,1.69-1.58V302.57A1.72,1.72,0,0,0,230.07,301Zm-.46,2.14v16.23h-24V303.13l24-.05Z" fill="#3e3e3e"/>
      <polygon points="229.56 303.13 229.56 319.41 205.65 319.41 205.65 303.13 229.61 303.13 229.56 303.13" fill="#00bbf1"/>
      <path d="M205.65,319.41h0V303.13h21.87l2.55-2.14H205a1.57,1.57,0,0,0-1.53,1.58V320a1.57,1.57,0,0,0,1.53,1.58h.62l2.6-2.15Z" fill="#7a7a7a"/>
      <polygon points="205.65 319.41 205.65 319.41 205.65 303.13 227.52 303.13 227.52 303.13 205.65 303.13 205.65 319.41" fill="#59b4d9"/>
      <rect x="208.42" y="325.29" width="18.48" height="1.7" fill="#b0b0b0"/>
      <circle cx="217.52" cy="302.17" r="0.4" fill="#bac84a"/>
      <path d="M217.63,311h-.06l-5-2.88c-.06,0-.06-.06-.06-.11a.21.21,0,0,1,.06-.12l4.92-2.82h.17l5,2.88c.06,0,.06.06.06.11s0,.12-.06.12L217.74,311Z" fill="#fff" opacity="0.9" style="isolation: isolate"/>
      <path d="M216.9,317.94h-.06l-5-2.82c-.06,0-.06-.06-.06-.12v-5.76c0-.06,0-.11.06-.11H212l5,2.82c.06,0,.06.06.06.12v5.7a.21.21,0,0,1-.06.12C217,317.94,217,317.94,216.9,317.94Z" fill="#fff" opacity="0.8" style="isolation: isolate"/>
      <path d="M218.31,317.94h-.06c-.05,0-.05-.05-.05-.11v-5.71a.22.22,0,0,1,.05-.11l5-2.83h.17s0,.06,0,.12V315a.22.22,0,0,1,0,.12l-5,2.82Z" fill="#fff" opacity="0.5" style="isolation: isolate"/>
    </g>
    <use width="36.6" height="49.9" transform="translate(71.2 257.99) scale(0.52)" xlink:href="#NSG"/>
    <g>
      <path d="M161.25,284a2.76,2.76,0,0,1-2-.81l-12.23-12.24a2.74,2.74,0,0,1-.81-1.95,2.78,2.78,0,0,1,.81-2l12.23-12.23a2.78,2.78,0,0,1,3.92,0L175.44,267a2.76,2.76,0,0,1,0,3.91l-12.23,12.24a2.78,2.78,0,0,1-2,.81" fill="#7fba00"/>
      <path d="M173.62,268.78l-4-4v2.8h-4.21a4.37,4.37,0,0,0-3-3v-4h2.77l-4-4-4,4h2.77v4a4.37,4.37,0,0,0-3,3h-4.21v-2.77l-4,4,4,4V270h4.21a4.4,4.4,0,0,0,3,3v2.78a3.36,3.36,0,0,0-1.52,2.42,2.71,2.71,0,0,0,5.42,0,3.38,3.38,0,0,0-1.5-2.41V273a4.37,4.37,0,0,0,3-3h4.22v2.77Z" fill="#fff"/>
      <path d="M161.25,265.63a3.16,3.16,0,1,0,3.15,3.15A3.16,3.16,0,0,0,161.25,265.63Z" fill="#59b4d9"/>
      <path d="M163.21,254.8a2.78,2.78,0,0,0-3.92,0L147.06,267a2.78,2.78,0,0,0-.81,2,2.74,2.74,0,0,0,.81,1.95l6.93,6.93,13-19.26Z" fill="#fff" opacity="0.15" style="isolation: isolate"/>
    </g>
    <line x1="161.25" y1="286.49" x2="161.25" y2="298.99" fill="none" stroke="#231f20" stroke-miterlimit="10"/>
    <path d="M154,282H111a5,5,0,0,0-5,5v12" fill="none" stroke="#231f20" stroke-miterlimit="10"/>
    <path d="M169.54,282h43a5,5,0,0,1,5,5v12" fill="none" stroke="#231f20" stroke-miterlimit="10"/>
    <g>
      <line x1="161.25" y1="226.99" x2="161.25" y2="246.6" fill="none" stroke="#231f20" stroke-miterlimit="10"/>
      <polygon points="157.51 245.51 161.25 251.99 164.99 245.51 157.51 245.51" fill="#231f20"/>
    </g>
    <use width="50.08" height="28.71" transform="translate(33.71 405.03) scale(0.52)" xlink:href="#IZ_VirtualNetwork"/>
  </g>
  <g id="Text">
    <g>
      <path d="M142.68,36.14h-1V27.73h1Z"/>
      <path d="M149.61,36.14h-1V32.71c0-1.27-.46-1.91-1.39-1.91a1.48,1.48,0,0,0-1.19.55,2,2,0,0,0-.48,1.36v3.43h-1v-6h1v1h0a2.15,2.15,0,0,1,2-1.13,1.83,1.83,0,0,1,1.5.63,2.82,2.82,0,0,1,.52,1.84Z"/>
      <path d="M154.11,36.08a2,2,0,0,1-.9.18c-1.05,0-1.58-.58-1.58-1.75V31h-1v-.82h1V28.67l1-.31v1.78h1.52V31h-1.52v3.38a1.37,1.37,0,0,0,.21.86.83.83,0,0,0,.68.26,1.05,1.05,0,0,0,.63-.2Z"/>
      <path d="M160.11,33.38h-4.24a2.27,2.27,0,0,0,.54,1.54,1.85,1.85,0,0,0,1.42.55,2.89,2.89,0,0,0,1.86-.67v.9a3.48,3.48,0,0,1-2.09.58,2.56,2.56,0,0,1-2-.82,3.37,3.37,0,0,1-.72-2.3,3.26,3.26,0,0,1,.79-2.28,2.54,2.54,0,0,1,2-.88,2.22,2.22,0,0,1,1.82.76,3.15,3.15,0,0,1,.65,2.11Zm-1-.82a2,2,0,0,0-.41-1.29,1.36,1.36,0,0,0-1.09-.47,1.58,1.58,0,0,0-1.16.49,2.22,2.22,0,0,0-.59,1.27Z"/>
      <path d="M164.69,31.11a1.18,1.18,0,0,0-.73-.19,1.2,1.2,0,0,0-1,.58,2.62,2.62,0,0,0-.42,1.58v3.06h-1v-6h1v1.23h0a2.08,2.08,0,0,1,.62-1,1.49,1.49,0,0,1,1-.35,1.65,1.65,0,0,1,.57.08Z"/>
      <path d="M170.75,36.14h-1V32.71c0-1.27-.47-1.91-1.4-1.91a1.48,1.48,0,0,0-1.19.55,2,2,0,0,0-.47,1.36v3.43h-1v-6h1v1h0a2.15,2.15,0,0,1,2-1.13,1.82,1.82,0,0,1,1.5.63,2.82,2.82,0,0,1,.53,1.84Z"/>
      <path d="M177.36,33.38h-4.24a2.27,2.27,0,0,0,.54,1.54,1.84,1.84,0,0,0,1.42.55,2.91,2.91,0,0,0,1.86-.67v.9a3.48,3.48,0,0,1-2.09.58,2.56,2.56,0,0,1-2-.82,3.37,3.37,0,0,1-.72-2.3,3.26,3.26,0,0,1,.79-2.28,2.54,2.54,0,0,1,2-.88,2.24,2.24,0,0,1,1.82.76,3.15,3.15,0,0,1,.65,2.11Zm-1-.82a1.9,1.9,0,0,0-.4-1.29,1.36,1.36,0,0,0-1.1-.47,1.57,1.57,0,0,0-1.15.49,2.22,2.22,0,0,0-.59,1.27Z"/>
      <path d="M181.59,36.08a2,2,0,0,1-.9.18c-1.05,0-1.57-.58-1.57-1.75V31h-1v-.82h1V28.67l1-.31v1.78h1.51V31h-1.51v3.38a1.45,1.45,0,0,0,.2.86.84.84,0,0,0,.68.26,1.05,1.05,0,0,0,.63-.2Z"/>
    </g>
    <g>
      <path d="M61.85,45.39H59.79l-.6-1.87h-3l-.59,1.87h-2L56.62,37h2.24Zm-3.09-3.32-.91-2.83a4.38,4.38,0,0,1-.14-.75h0a3.16,3.16,0,0,1-.15.73l-.91,2.85Z" fill="#1e1e1e"/>
      <path d="M67.78,45.39H62.39v-.77l3-3.87H62.69V39.39h5.06v.91L64.9,44h2.88Z" fill="#1e1e1e"/>
      <path d="M74.54,45.39H72.7v-.91h0a2.12,2.12,0,0,1-1.84,1.06c-1.39,0-2.08-.85-2.08-2.53V39.39h1.84v3.46c0,.84.34,1.27,1,1.27a1,1,0,0,0,.8-.35,1.41,1.41,0,0,0,.3-1V39.39h1.84Z" fill="#1e1e1e"/>
      <path d="M80,41.06a1.61,1.61,0,0,0-.78-.18,1.11,1.11,0,0,0-.94.44,1.9,1.9,0,0,0-.34,1.2v2.87H76.07v-6h1.85V40.5h0a1.61,1.61,0,0,1,1.58-1.22,1.35,1.35,0,0,1,.46.07Z" fill="#1e1e1e"/>
      <path d="M86.31,42.92H82.4c.06.87.61,1.3,1.64,1.3a3.15,3.15,0,0,0,1.74-.47v1.34a4.5,4.5,0,0,1-2.16.45,2.8,2.8,0,0,1-3.06-3.06,3.19,3.19,0,0,1,.87-2.36,2.87,2.87,0,0,1,2.13-.88,2.62,2.62,0,0,1,2,.78,3,3,0,0,1,.72,2.12Zm-1.72-1.14c0-.86-.34-1.29-1-1.29a1,1,0,0,0-.77.37,1.68,1.68,0,0,0-.4.92Z" fill="#1e1e1e"/>
    </g>
    <g>
      <path d="M179.55,71.17v3.18h-1V66h2.31a3.07,3.07,0,0,1,2.08.65,2.35,2.35,0,0,1,.75,1.86,2.55,2.55,0,0,1-.83,2,3.13,3.13,0,0,1-2.22.76Zm0-4.33v3.44h1a2.32,2.32,0,0,0,1.56-.46,1.64,1.64,0,0,0,.53-1.32c0-1.11-.65-1.66-2-1.66Z" fill="#1e1e1e"/>
      <path d="M190,74.35h-1V73.4h0a2,2,0,0,1-1.86,1.09c-1.42,0-2.14-.85-2.14-2.55V68.35h1v3.43c0,1.27.48,1.9,1.45,1.9a1.47,1.47,0,0,0,1.16-.52,2,2,0,0,0,.45-1.35V68.35h1Z" fill="#1e1e1e"/>
      <path d="M192.93,73.48h0v.87h-1V65.47h1V69.4h0A2.3,2.3,0,0,1,195,68.21a2.2,2.2,0,0,1,1.81.81,3.32,3.32,0,0,1,.65,2.15,3.73,3.73,0,0,1-.73,2.42,2.46,2.46,0,0,1-2,.9A2,2,0,0,1,192.93,73.48Zm0-2.42v.84a1.77,1.77,0,0,0,.48,1.26A1.73,1.73,0,0,0,196,73a3,3,0,0,0,.5-1.85,2.41,2.41,0,0,0-.47-1.57,1.52,1.52,0,0,0-1.25-.57,1.7,1.7,0,0,0-1.35.58A2.15,2.15,0,0,0,192.91,71.06Z" fill="#1e1e1e"/>
      <path d="M200,74.35h-1V65.47h1Z" fill="#1e1e1e"/>
      <path d="M202.4,66.83a.6.6,0,0,1-.44-.18.59.59,0,0,1-.18-.44.61.61,0,0,1,.18-.45.6.6,0,0,1,.44-.18.61.61,0,0,1,.45.18.62.62,0,0,1,.19.45.63.63,0,0,1-.19.44A.61.61,0,0,1,202.4,66.83Zm.47,7.52h-1v-6h1Z" fill="#1e1e1e"/>
      <path d="M208.91,74.07a3.1,3.1,0,0,1-1.64.42,2.72,2.72,0,0,1-2.07-.83,3,3,0,0,1-.79-2.17,3.3,3.3,0,0,1,.85-2.38,3,3,0,0,1,2.26-.9,3.24,3.24,0,0,1,1.4.29v1a2.4,2.4,0,0,0-1.43-.47,1.93,1.93,0,0,0-1.51.66,2.5,2.5,0,0,0-.59,1.73,2.36,2.36,0,0,0,.56,1.66,1.87,1.87,0,0,0,1.48.61,2.41,2.41,0,0,0,1.48-.52Z" fill="#1e1e1e"/>
      <path d="M218,66.84h-3.28v2.9h3v.89h-3v3.72h-1V66H218Z" fill="#1e1e1e"/>
      <path d="M223.39,74.35h-1v-.94h0a2,2,0,0,1-1.85,1.08,2,2,0,0,1-1.4-.47,1.65,1.65,0,0,1-.51-1.26c0-1.12.66-1.78,2-2l1.8-.25c0-1-.41-1.53-1.24-1.53a2.9,2.9,0,0,0-1.95.74v-1a3.76,3.76,0,0,1,2-.56c1.41,0,2.11.75,2.11,2.24Zm-1-3-1.45.2a2.37,2.37,0,0,0-1,.34.93.93,0,0,0-.34.84.89.89,0,0,0,.31.71,1.19,1.19,0,0,0,.83.28,1.51,1.51,0,0,0,1.18-.5,1.75,1.75,0,0,0,.47-1.27Z" fill="#1e1e1e"/>
      <path d="M229.29,74.07a3.1,3.1,0,0,1-1.64.42,2.75,2.75,0,0,1-2.07-.83,3,3,0,0,1-.79-2.17,3.35,3.35,0,0,1,.85-2.38,3,3,0,0,1,2.27-.9,3.2,3.2,0,0,1,1.39.29v1a2.38,2.38,0,0,0-1.43-.47,1.91,1.91,0,0,0-1.5.66,2.46,2.46,0,0,0-.59,1.73,2.36,2.36,0,0,0,.55,1.66,1.89,1.89,0,0,0,1.49.61,2.38,2.38,0,0,0,1.47-.52Z" fill="#1e1e1e"/>
      <path d="M231.24,66.83a.6.6,0,0,1-.44-.18.59.59,0,0,1-.18-.44.61.61,0,0,1,.18-.45.6.6,0,0,1,.44-.18.64.64,0,0,1,.45.18.61.61,0,0,1,.18.45.62.62,0,0,1-.18.44A.64.64,0,0,1,231.24,66.83Zm.47,7.52h-1v-6h1Z" fill="#1e1e1e"/>
      <path d="M238.63,74.35h-1V70.93c0-1.28-.46-1.91-1.39-1.91a1.54,1.54,0,0,0-1.2.54,2,2,0,0,0-.47,1.37v3.42h-1v-6h1v1h0a2.16,2.16,0,0,1,2-1.14,1.83,1.83,0,0,1,1.51.64,2.79,2.79,0,0,1,.52,1.83Z" fill="#1e1e1e"/>
      <path d="M245.56,73.87q0,3.3-3.16,3.3a4.31,4.31,0,0,1-2-.42v-1a4,4,0,0,0,1.94.56c1.47,0,2.21-.78,2.21-2.35v-.66h0a2.25,2.25,0,0,1-2.06,1.15,2.28,2.28,0,0,1-1.81-.8,3.22,3.22,0,0,1-.68-2.15,3.73,3.73,0,0,1,.74-2.43,2.46,2.46,0,0,1,2-.9,2,2,0,0,1,1.8,1h0v-.83h1Zm-1-2.23v-.89a1.72,1.72,0,0,0-.48-1.22,1.58,1.58,0,0,0-1.2-.51,1.66,1.66,0,0,0-1.4.65,2.85,2.85,0,0,0-.5,1.81,2.48,2.48,0,0,0,.48,1.6,1.56,1.56,0,0,0,1.28.6,1.69,1.69,0,0,0,1.32-.57A2.18,2.18,0,0,0,244.6,71.64Z" fill="#1e1e1e"/>
      <path d="M182.93,87.55h-4.36v-8.4h1v7.51h3.38Z" fill="#1e1e1e"/>
      <path d="M186.59,87.69a2.79,2.79,0,0,1-2.12-.84,3.1,3.1,0,0,1-.79-2.23,3.24,3.24,0,0,1,.82-2.36,3,3,0,0,1,2.24-.85,2.69,2.69,0,0,1,2.09.83,3.77,3.77,0,0,1-.06,4.59A2.87,2.87,0,0,1,186.59,87.69Zm.08-5.47a1.84,1.84,0,0,0-1.47.63,2.59,2.59,0,0,0-.54,1.74,2.41,2.41,0,0,0,.55,1.68,1.85,1.85,0,0,0,1.46.61,1.77,1.77,0,0,0,1.43-.6,3.23,3.23,0,0,0,0-3.45A1.74,1.74,0,0,0,186.67,82.22Z" fill="#1e1e1e"/>
      <path d="M195.41,87.55h-1v-.94h0a2.2,2.2,0,0,1-3.25.61,1.65,1.65,0,0,1-.51-1.26c0-1.12.66-1.78,2-2l1.8-.25q0-1.53-1.23-1.53a2.91,2.91,0,0,0-2,.74V82a3.76,3.76,0,0,1,2-.56c1.41,0,2.11.75,2.11,2.24Zm-1-3-1.45.19a2.37,2.37,0,0,0-1,.34.93.93,0,0,0-.34.84.89.89,0,0,0,.31.71,1.2,1.2,0,0,0,.84.28,1.53,1.53,0,0,0,1.18-.5,1.79,1.79,0,0,0,.46-1.27Z" fill="#1e1e1e"/>
      <path d="M202.34,87.55h-1v-1h0a2.21,2.21,0,0,1-2.06,1.16,2.25,2.25,0,0,1-1.81-.8,3.33,3.33,0,0,1-.68-2.2,3.57,3.57,0,0,1,.75-2.38,2.48,2.48,0,0,1,2-.9,1.91,1.91,0,0,1,1.8,1h0V78.67h1Zm-1-2.71V84a1.73,1.73,0,0,0-.48-1.23,1.62,1.62,0,0,0-1.22-.5,1.66,1.66,0,0,0-1.38.64,2.87,2.87,0,0,0-.5,1.78,2.54,2.54,0,0,0,.48,1.64,1.59,1.59,0,0,0,1.3.6,1.63,1.63,0,0,0,1.3-.58A2.11,2.11,0,0,0,201.38,84.84Z" fill="#1e1e1e"/>
      <path d="M207.71,87.55v-8.4h2.39a2.67,2.67,0,0,1,1.73.53,1.74,1.74,0,0,1,.63,1.39,2.07,2.07,0,0,1-.38,1.24,2.14,2.14,0,0,1-1.07.75v0a2.1,2.1,0,0,1,1.36.64,2,2,0,0,1,.51,1.41,2.2,2.2,0,0,1-.77,1.74,2.87,2.87,0,0,1-2,.67Zm1-7.51v2.71h1a1.91,1.91,0,0,0,1.27-.39,1.34,1.34,0,0,0,.46-1.1c0-.81-.53-1.22-1.61-1.22Zm0,3.6v3H210a2,2,0,0,0,1.34-.41,1.4,1.4,0,0,0,.48-1.13c0-1-.68-1.48-2-1.48Z" fill="#1e1e1e"/>
      <path d="M218.75,87.55h-1v-.94h0a2,2,0,0,1-1.85,1.08,2,2,0,0,1-1.4-.47A1.65,1.65,0,0,1,214,86c0-1.12.66-1.78,2-2l1.8-.25c0-1-.41-1.53-1.24-1.53a2.9,2.9,0,0,0-2,.74V82a3.76,3.76,0,0,1,2-.56c1.41,0,2.11.75,2.11,2.24Zm-1-3-1.45.19a2.48,2.48,0,0,0-1,.34,1,1,0,0,0-.33.84.89.89,0,0,0,.31.71,1.19,1.19,0,0,0,.83.28,1.51,1.51,0,0,0,1.18-.5,1.8,1.8,0,0,0,.47-1.27Z" fill="#1e1e1e"/>
      <path d="M221.52,87.55h-1V78.67h1Z" fill="#1e1e1e"/>
      <path d="M227.76,87.55h-1v-.94h0a2,2,0,0,1-1.85,1.08,2,2,0,0,1-1.4-.47A1.65,1.65,0,0,1,223,86c0-1.12.66-1.78,2-2l1.8-.25q0-1.53-1.23-1.53a2.91,2.91,0,0,0-2,.74V82a3.76,3.76,0,0,1,2-.56c1.41,0,2.11.75,2.11,2.24Zm-1-3-1.45.19a2.37,2.37,0,0,0-1,.34.93.93,0,0,0-.34.84.89.89,0,0,0,.31.71,1.2,1.2,0,0,0,.84.28,1.53,1.53,0,0,0,1.18-.5,1.79,1.79,0,0,0,.46-1.27Z" fill="#1e1e1e"/>
      <path d="M234.55,87.55h-1V84.13c0-1.28-.46-1.91-1.39-1.91a1.5,1.5,0,0,0-1.19.54,2,2,0,0,0-.48,1.37v3.42h-1v-6h1v1h0a2.16,2.16,0,0,1,2-1.14,1.82,1.82,0,0,1,1.5.64,2.79,2.79,0,0,1,.52,1.83Z" fill="#1e1e1e"/>
      <path d="M240.45,87.27a3.08,3.08,0,0,1-1.64.42,2.75,2.75,0,0,1-2.07-.83,3.06,3.06,0,0,1-.79-2.17,3.35,3.35,0,0,1,.85-2.38,3,3,0,0,1,2.27-.9,3.27,3.27,0,0,1,1.4.29v1a2.42,2.42,0,0,0-1.43-.47,1.92,1.92,0,0,0-1.51.66,2.46,2.46,0,0,0-.59,1.73,2.36,2.36,0,0,0,.55,1.66,1.91,1.91,0,0,0,1.49.61,2.38,2.38,0,0,0,1.47-.52Z" fill="#1e1e1e"/>
      <path d="M246.73,84.79h-4.24a2.3,2.3,0,0,0,.54,1.55,1.88,1.88,0,0,0,1.42.54,2.89,2.89,0,0,0,1.86-.67v.91a3.47,3.47,0,0,1-2.09.57,2.53,2.53,0,0,1-2-.82,3.35,3.35,0,0,1-.72-2.3,3.28,3.28,0,0,1,.79-2.28,2.54,2.54,0,0,1,2-.88,2.22,2.22,0,0,1,1.82.76,3.18,3.18,0,0,1,.65,2.12Zm-1-.81a2,2,0,0,0-.41-1.3,1.35,1.35,0,0,0-1.09-.46,1.57,1.57,0,0,0-1.16.48A2.25,2.25,0,0,0,242.5,84Z" fill="#1e1e1e"/>
      <path d="M251.31,82.52a1.18,1.18,0,0,0-.73-.19,1.2,1.2,0,0,0-1,.58,2.64,2.64,0,0,0-.42,1.58v3.06h-1v-6h1v1.24h0a2,2,0,0,1,.62-1,1.45,1.45,0,0,1,1-.36,1.41,1.41,0,0,1,.57.09Z" fill="#1e1e1e"/>
    </g>
    <g>
      <path d="M103.36,158.58,100.25,167H99.17l-3-8.41h1.1l2.32,6.67a3.51,3.51,0,0,1,.17.74h0a3.52,3.52,0,0,1,.19-.76l2.37-6.65Z" fill="#1e1e1e"/>
      <path d="M113.14,167h-1v-5.64c0-.45,0-1,.08-1.63h0a7,7,0,0,1-.25.81L109.09,167h-.48l-2.86-6.41a4.93,4.93,0,0,1-.25-.86h0c0,.33,0,.88,0,1.64V167h-1v-8.41h1.3l2.58,5.86a7.92,7.92,0,0,1,.39,1h0c.17-.46.3-.8.41-1l2.63-5.84h1.23Z" fill="#1e1e1e"/>
    </g>
    <g>
      <path d="M159.48,158.58,156.37,167h-1.08l-3-8.41h1.1l2.32,6.67a3.51,3.51,0,0,1,.17.74h0a3.52,3.52,0,0,1,.19-.76l2.37-6.65Z" fill="#1e1e1e"/>
      <path d="M169.26,167h-1v-5.64c0-.45,0-1,.08-1.63h0a5.18,5.18,0,0,1-.26.81L165.21,167h-.48l-2.86-6.41a4.93,4.93,0,0,1-.25-.86h0c0,.33,0,.88,0,1.64V167h-.95v-8.41H162l2.58,5.86a7.92,7.92,0,0,1,.39,1h0c.17-.46.3-.8.4-1l2.64-5.84h1.23Z" fill="#1e1e1e"/>
    </g>
    <g>
      <path d="M215.86,158.58,212.75,167h-1.08l-3-8.41h1.1l2.32,6.67a3.51,3.51,0,0,1,.17.74h0a3.52,3.52,0,0,1,.19-.76l2.37-6.65Z" fill="#1e1e1e"/>
      <path d="M225.64,167h-1v-5.64c0-.45,0-1,.08-1.63h0a7,7,0,0,1-.25.81L221.59,167h-.48l-2.86-6.41a4.93,4.93,0,0,1-.25-.86h0c0,.33.05.88.05,1.64V167h-1v-8.41h1.3l2.58,5.86a7.92,7.92,0,0,1,.39,1h0c.17-.46.3-.8.41-1l2.63-5.84h1.23Z" fill="#1e1e1e"/>
    </g>
    <g>
      <path d="M67,199.68H63.75v2.9h3v.89h-3v3.72h-1v-8.4H67Z" fill="#1e1e1e"/>
      <path d="M71.32,202.16a1.18,1.18,0,0,0-.73-.19,1.23,1.23,0,0,0-1,.58,2.7,2.7,0,0,0-.41,1.58v3.06h-1v-6h1v1.23h0a2.09,2.09,0,0,1,.63-1,1.42,1.42,0,0,1,.94-.36,1.75,1.75,0,0,1,.58.08Z" fill="#1e1e1e"/>
      <path d="M74.88,207.33a2.77,2.77,0,0,1-2.12-.84,3.12,3.12,0,0,1-.8-2.23,3.23,3.23,0,0,1,.83-2.36,3,3,0,0,1,2.23-.85,2.71,2.71,0,0,1,2.1.82,3.29,3.29,0,0,1,.75,2.29,3.21,3.21,0,0,1-.81,2.3A2.84,2.84,0,0,1,74.88,207.33Zm.07-5.47a1.81,1.81,0,0,0-1.46.63,2.56,2.56,0,0,0-.54,1.73,2.46,2.46,0,0,0,.54,1.68,1.87,1.87,0,0,0,1.46.62,1.75,1.75,0,0,0,1.43-.6,3.17,3.17,0,0,0,0-3.45A1.73,1.73,0,0,0,75,201.86Z" fill="#1e1e1e"/>
      <path d="M84.33,207.19h-1v-3.42c0-1.28-.46-1.91-1.39-1.91a1.54,1.54,0,0,0-1.2.54,2,2,0,0,0-.47,1.37v3.42h-1v-6h1v1h0a2.16,2.16,0,0,1,2-1.13,1.85,1.85,0,0,1,1.51.63,2.84,2.84,0,0,1,.52,1.84Z" fill="#1e1e1e"/>
      <path d="M88.82,207.13a1.87,1.87,0,0,1-.89.19c-1.05,0-1.58-.59-1.58-1.76V202h-1v-.82h1v-1.47l1-.31v1.78h1.51V202H87.31v3.38a1.37,1.37,0,0,0,.21.86.81.81,0,0,0,.68.26,1,1,0,0,0,.62-.2Z" fill="#1e1e1e"/>
      <path d="M94.83,204.43H90.59a2.3,2.3,0,0,0,.54,1.55,1.87,1.87,0,0,0,1.42.54,2.93,2.93,0,0,0,1.86-.67v.9a3.43,3.43,0,0,1-2.09.58,2.53,2.53,0,0,1-2-.82,3.36,3.36,0,0,1-.73-2.3,3.29,3.29,0,0,1,.8-2.28,2.53,2.53,0,0,1,2-.88,2.24,2.24,0,0,1,1.82.76,3.17,3.17,0,0,1,.65,2.11Zm-1-.82a2,2,0,0,0-.4-1.29,1.36,1.36,0,0,0-1.1-.46,1.55,1.55,0,0,0-1.15.48,2.25,2.25,0,0,0-.59,1.27Z" fill="#1e1e1e"/>
      <path d="M101.26,207.19h-1v-3.42c0-1.28-.47-1.91-1.39-1.91a1.52,1.52,0,0,0-1.2.54,2,2,0,0,0-.47,1.37v3.42h-1v-6h1v1h0a2.18,2.18,0,0,1,2-1.13,1.85,1.85,0,0,1,1.51.63,2.84,2.84,0,0,1,.52,1.84Z" fill="#1e1e1e"/>
      <path d="M108.19,207.19h-1v-1h0a2.42,2.42,0,0,1-3.87.35,3.3,3.3,0,0,1-.68-2.19,3.62,3.62,0,0,1,.75-2.39,2.5,2.5,0,0,1,2-.89,1.93,1.93,0,0,1,1.8,1h0v-3.71h1Zm-1-2.71v-.89a1.73,1.73,0,0,0-.48-1.23,1.6,1.6,0,0,0-1.22-.5,1.66,1.66,0,0,0-1.38.64,2.79,2.79,0,0,0-.5,1.78,2.56,2.56,0,0,0,.48,1.64,1.57,1.57,0,0,0,1.3.6,1.63,1.63,0,0,0,1.3-.58A2.19,2.19,0,0,0,107.23,204.48Z" fill="#1e1e1e"/>
      <path d="M113.16,206.85v-1.16a1.89,1.89,0,0,0,.48.31,3,3,0,0,0,.58.24,3.72,3.72,0,0,0,.62.15,3,3,0,0,0,.58.05,2.28,2.28,0,0,0,1.35-.33,1.15,1.15,0,0,0,.45-1,1.1,1.1,0,0,0-.15-.59,1.62,1.62,0,0,0-.41-.46,3.68,3.68,0,0,0-.62-.4l-.78-.4c-.29-.15-.57-.3-.82-.46a3.17,3.17,0,0,1-.66-.5,1.85,1.85,0,0,1-.61-1.44,2,2,0,0,1,.25-1,2.13,2.13,0,0,1,.67-.7,3,3,0,0,1,.93-.41,4.29,4.29,0,0,1,1.07-.13,4.1,4.1,0,0,1,1.81.29v1.11a3.29,3.29,0,0,0-1.91-.51,3.47,3.47,0,0,0-.64.06,2,2,0,0,0-.58.22,1.3,1.3,0,0,0-.41.4,1.07,1.07,0,0,0-.16.58,1.22,1.22,0,0,0,.12.56,1.42,1.42,0,0,0,.36.43,4,4,0,0,0,.57.37l.78.4c.3.15.58.3.85.47a3.59,3.59,0,0,1,.71.54,2.32,2.32,0,0,1,.48.66,1.89,1.89,0,0,1,.18.84,2.14,2.14,0,0,1-.24,1.05,1.93,1.93,0,0,1-.66.7,2.8,2.8,0,0,1-.95.39,5.24,5.24,0,0,1-1.14.12l-.49,0-.6-.1a4.74,4.74,0,0,1-.57-.15A2,2,0,0,1,113.16,206.85Z" fill="#1e1e1e"/>
      <path d="M124.51,207.19h-1v-.95h0a2,2,0,0,1-1.86,1.09c-1.42,0-2.14-.85-2.14-2.56v-3.58h1v3.43c0,1.27.48,1.9,1.45,1.9a1.47,1.47,0,0,0,1.16-.52,2,2,0,0,0,.45-1.35v-3.46h1Z" fill="#1e1e1e"/>
      <path d="M127.31,206.32h0v.87h-1v-8.88h1v3.93h0a2.27,2.27,0,0,1,2.07-1.19,2.21,2.21,0,0,1,1.81.8,3.32,3.32,0,0,1,.66,2.16,3.69,3.69,0,0,1-.74,2.41,2.4,2.4,0,0,1-2,.91A2,2,0,0,1,127.31,206.32Zm0-2.42v.84a1.79,1.79,0,0,0,.48,1.26,1.59,1.59,0,0,0,1.23.52,1.6,1.6,0,0,0,1.37-.67,3,3,0,0,0,.49-1.86,2.43,2.43,0,0,0-.46-1.57,1.56,1.56,0,0,0-1.26-.56,1.69,1.69,0,0,0-1.34.58A2.13,2.13,0,0,0,127.29,203.9Z" fill="#1e1e1e"/>
      <path d="M138.31,207.19h-1v-3.42c0-1.28-.47-1.91-1.4-1.91a1.5,1.5,0,0,0-1.19.54,2,2,0,0,0-.47,1.37v3.42h-1v-6h1v1h0a2.17,2.17,0,0,1,2-1.13,1.85,1.85,0,0,1,1.51.63,2.9,2.9,0,0,1,.52,1.84Z" fill="#1e1e1e"/>
      <path d="M144.92,204.43h-4.24a2.3,2.3,0,0,0,.54,1.55,1.88,1.88,0,0,0,1.42.54,2.89,2.89,0,0,0,1.86-.67v.9a3.41,3.41,0,0,1-2.09.58,2.53,2.53,0,0,1-2-.82,3.35,3.35,0,0,1-.72-2.3,3.28,3.28,0,0,1,.79-2.28,2.54,2.54,0,0,1,2-.88,2.26,2.26,0,0,1,1.83.76,3.17,3.17,0,0,1,.64,2.11Zm-1-.82a2,2,0,0,0-.41-1.29,1.35,1.35,0,0,0-1.09-.46,1.57,1.57,0,0,0-1.16.48,2.18,2.18,0,0,0-.58,1.27Z" fill="#1e1e1e"/>
      <path d="M149.15,207.13a1.91,1.91,0,0,1-.9.19c-1.05,0-1.57-.59-1.57-1.76V202h-1v-.82h1v-1.47l1-.31v1.78h1.51V202h-1.51v3.38a1.45,1.45,0,0,0,.2.86.84.84,0,0,0,.68.26,1,1,0,0,0,.63-.2Z" fill="#1e1e1e"/>
      <path d="M65.91,221.59H65v-7.26a2.79,2.79,0,0,1-.33.25,5.06,5.06,0,0,1-.48.29c-.18.09-.36.18-.56.26a3.56,3.56,0,0,1-.58.19v-1a5.46,5.46,0,0,0,.67-.24c.24-.1.47-.21.7-.33a7,7,0,0,0,.65-.39,3.91,3.91,0,0,0,.52-.39h.37Z" fill="#1e1e1e"/>
      <path d="M73.6,217.35a8.68,8.68,0,0,1-.19,1.87,4.41,4.41,0,0,1-.56,1.37,2.34,2.34,0,0,1-2.07,1.14,2.33,2.33,0,0,1-1.13-.27,2.43,2.43,0,0,1-.84-.82,4.26,4.26,0,0,1-.51-1.31,7.84,7.84,0,0,1-.18-1.77,8.71,8.71,0,0,1,.19-1.95,4.32,4.32,0,0,1,.54-1.41,2.47,2.47,0,0,1,.89-.87A2.52,2.52,0,0,1,71,213C72.71,213,73.6,214.48,73.6,217.35Zm-1,.1c0-2.4-.57-3.59-1.7-3.59s-1.8,1.22-1.8,3.65c0,2.27.59,3.4,1.76,3.4S72.61,219.76,72.61,217.45Z" fill="#1e1e1e"/>
      <path d="M75.3,221.72a.63.63,0,0,1-.46-.2.62.62,0,0,1-.19-.46.66.66,0,0,1,.19-.47.62.62,0,0,1,.46-.19.64.64,0,0,1,.47.19.66.66,0,0,1,.19.47.62.62,0,0,1-.19.46A.65.65,0,0,1,75.3,221.72Z" fill="#1e1e1e"/>
      <path d="M79.78,221.59h-1v-7.26a2.14,2.14,0,0,1-.33.25,5.06,5.06,0,0,1-.48.29c-.18.09-.36.18-.56.26a3.56,3.56,0,0,1-.58.19v-1a5.46,5.46,0,0,0,.67-.24c.24-.1.47-.21.7-.33a5.88,5.88,0,0,0,.65-.39,4.87,4.87,0,0,0,.53-.39h.36Z" fill="#1e1e1e"/>
      <path d="M87.47,217.35a8.68,8.68,0,0,1-.19,1.87,4.41,4.41,0,0,1-.55,1.37,2.4,2.4,0,0,1-.89.85,2.36,2.36,0,0,1-1.19.29,2.16,2.16,0,0,1-2-1.09,4,4,0,0,1-.52-1.31,7.88,7.88,0,0,1-.17-1.77,9.38,9.38,0,0,1,.18-1.95,4.32,4.32,0,0,1,.54-1.41A2.34,2.34,0,0,1,84.83,213Q87.47,213,87.47,217.35Zm-1,.1c0-2.4-.56-3.59-1.7-3.59s-1.8,1.22-1.8,3.65c0,2.27.59,3.4,1.76,3.4S86.48,219.76,86.48,217.45Z" fill="#1e1e1e"/>
      <path d="M89.17,221.72a.63.63,0,0,1-.46-.2.66.66,0,0,1-.19-.46.7.7,0,0,1,.19-.47.62.62,0,0,1,.46-.19.63.63,0,0,1,.47.19.66.66,0,0,1,.19.47.62.62,0,0,1-.19.46A.63.63,0,0,1,89.17,221.72Z" fill="#1e1e1e"/>
      <path d="M93.65,221.59h-1v-7.26a2,2,0,0,1-.32.25l-.48.29c-.18.09-.37.18-.57.26a3.46,3.46,0,0,1-.57.19v-1a6.12,6.12,0,0,0,.67-.24c.23-.1.47-.21.69-.33a5.88,5.88,0,0,0,.65-.39,4.87,4.87,0,0,0,.53-.39h.36Z" fill="#1e1e1e"/>
      <path d="M101.34,217.35a8.09,8.09,0,0,1-.19,1.87,4.41,4.41,0,0,1-.55,1.37,2.4,2.4,0,0,1-.89.85,2.54,2.54,0,0,1-2.32,0,2.41,2.41,0,0,1-.83-.82,4,4,0,0,1-.52-1.31,8.5,8.5,0,0,1-.17-1.77,9.38,9.38,0,0,1,.18-1.95,4.56,4.56,0,0,1,.54-1.41A2.34,2.34,0,0,1,98.7,213Q101.34,213,101.34,217.35Zm-1,.1c0-2.4-.57-3.59-1.71-3.59s-1.8,1.22-1.8,3.65c0,2.27.59,3.4,1.77,3.4S100.36,219.76,100.36,217.45Z" fill="#1e1e1e"/>
      <path d="M103,221.72a.65.65,0,0,1-.46-.2.66.66,0,0,1-.19-.46.7.7,0,0,1,.19-.47.63.63,0,0,1,.46-.19.63.63,0,0,1,.47.19.67.67,0,0,1,.2.47.68.68,0,0,1-.67.66Z" fill="#1e1e1e"/>
      <path d="M110.27,217.35a8.68,8.68,0,0,1-.19,1.87,4.41,4.41,0,0,1-.55,1.37,2.4,2.4,0,0,1-.89.85,2.36,2.36,0,0,1-1.19.29,2.16,2.16,0,0,1-2-1.09,4,4,0,0,1-.52-1.31,7.84,7.84,0,0,1-.18-1.77,9.33,9.33,0,0,1,.19-1.95,4.32,4.32,0,0,1,.54-1.41,2.47,2.47,0,0,1,.89-.87,2.52,2.52,0,0,1,1.21-.29Q110.28,213,110.27,217.35Zm-1,.1c0-2.4-.57-3.59-1.7-3.59s-1.8,1.22-1.8,3.65c0,2.27.59,3.4,1.76,3.4S109.28,219.76,109.28,217.45Z" fill="#1e1e1e"/>
      <path d="M115.12,213.19l-4,9.79h-.9l4-9.79Z" fill="#1e1e1e"/>
      <path d="M119.56,215.39a1.79,1.79,0,0,0-.12-.68,1.25,1.25,0,0,0-.33-.47,1.42,1.42,0,0,0-.49-.29,2,2,0,0,0-.61-.09,1.75,1.75,0,0,0-.55.08,2.57,2.57,0,0,0-.52.21,2.94,2.94,0,0,0-.49.32,3.47,3.47,0,0,0-.45.41v-1a3,3,0,0,1,.91-.6,3.14,3.14,0,0,1,1.22-.21,3,3,0,0,1,1,.15,2.3,2.3,0,0,1,.76.44,2.19,2.19,0,0,1,.51.71,2.43,2.43,0,0,1,.18,1,3.58,3.58,0,0,1-.11.9,3.08,3.08,0,0,1-.35.76,3.67,3.67,0,0,1-.58.69,7.52,7.52,0,0,1-.83.66l-1,.72a4.34,4.34,0,0,0-.61.56,1.67,1.67,0,0,0-.32.53,1.8,1.8,0,0,0-.09.6h4.18v.86h-5.18v-.42a3.87,3.87,0,0,1,.11-.95,2.59,2.59,0,0,1,.39-.78,4.38,4.38,0,0,1,.71-.73c.29-.25.64-.53,1.07-.84a6.7,6.7,0,0,0,.76-.62,3.31,3.31,0,0,0,.5-.6,2.16,2.16,0,0,0,.26-.61A2.27,2.27,0,0,0,119.56,215.39Z" fill="#1e1e1e"/>
      <path d="M126.24,213.19v5.54h1.08v.88h-1.08v2h-.95v-2h-4v-.83c.37-.41.74-.86,1.12-1.33s.73-.94,1.07-1.43.66-1,1-1.45a11.65,11.65,0,0,0,.73-1.38Zm-3.81,5.54h2.86v-4.11c-.29.51-.57,1-.83,1.37s-.51.77-.75,1.1-.46.62-.67.89S122.62,218.5,122.43,218.73Z" fill="#1e1e1e"/>
    </g>
    <g>
      <path d="M128.82,175.08l-2.37,8.41h-1.16l-1.73-6.14a4.56,4.56,0,0,1-.13-.86h0a4.62,4.62,0,0,1-.16.84l-1.74,6.16h-1.14l-2.46-8.41H119l1.79,6.45a3.88,3.88,0,0,1,.14.84h0a5.39,5.39,0,0,1,.18-.84l1.86-6.45h.94l1.78,6.5a4.7,4.7,0,0,1,.15.78h0a4.35,4.35,0,0,1,.16-.81l1.71-6.47Z" fill="#3c3c41"/>
      <path d="M134.29,180.73h-4.23a2.16,2.16,0,0,0,.54,1.54,1.82,1.82,0,0,0,1.41.55,2.94,2.94,0,0,0,1.87-.67v.9a3.45,3.45,0,0,1-2.09.58,2.55,2.55,0,0,1-2-.82,3.83,3.83,0,0,1,.06-4.58,2.55,2.55,0,0,1,2-.88,2.25,2.25,0,0,1,1.82.76,3.17,3.17,0,0,1,.64,2.11Zm-1-.82a2,2,0,0,0-.4-1.29,1.38,1.38,0,0,0-1.1-.47,1.6,1.6,0,0,0-1.16.49,2.24,2.24,0,0,0-.58,1.27Z" fill="#3c3c41"/>
      <path d="M136.73,182.62h0v.87h-1V174.6h1v3.94h0a2.25,2.25,0,0,1,2.07-1.19,2.18,2.18,0,0,1,1.81.8,3.32,3.32,0,0,1,.66,2.16,3.71,3.71,0,0,1-.74,2.41,2.42,2.42,0,0,1-2,.91A2,2,0,0,1,136.73,182.62Zm0-2.42V181a1.8,1.8,0,0,0,.48,1.26,1.59,1.59,0,0,0,1.23.52,1.6,1.6,0,0,0,1.37-.67,3,3,0,0,0,.49-1.86,2.43,2.43,0,0,0-.46-1.57,1.54,1.54,0,0,0-1.26-.57,1.7,1.7,0,0,0-1.34.59A2.13,2.13,0,0,0,136.71,180.2Z" fill="#3c3c41"/>
      <path d="M145.82,183.15V182a2.83,2.83,0,0,0,.48.31,3,3,0,0,0,.59.24,6.23,6.23,0,0,0,.62.15,2.87,2.87,0,0,0,.57.05,2.29,2.29,0,0,0,1.36-.33,1.14,1.14,0,0,0,.44-1,1.27,1.27,0,0,0-.14-.6,1.79,1.79,0,0,0-.42-.46,3.91,3.91,0,0,0-.62-.39l-.78-.41a9.13,9.13,0,0,1-.82-.45,3.81,3.81,0,0,1-.66-.5A1.9,1.9,0,0,1,146,178a1.94,1.94,0,0,1-.16-.82,1.9,1.9,0,0,1,.25-1,2.21,2.21,0,0,1,.66-.7,3,3,0,0,1,.93-.41,4.3,4.3,0,0,1,1.07-.14,4,4,0,0,1,1.81.3v1.11a3.29,3.29,0,0,0-1.91-.52,3.48,3.48,0,0,0-.64.07,1.83,1.83,0,0,0-.57.22,1.18,1.18,0,0,0-.41.39,1,1,0,0,0-.16.59,1.25,1.25,0,0,0,.12.56,1.38,1.38,0,0,0,.35.42,3.76,3.76,0,0,0,.57.38l.78.4a8.54,8.54,0,0,1,.85.47,3.59,3.59,0,0,1,.71.54,2.36,2.36,0,0,1,.49.66,1.89,1.89,0,0,1,.18.84,2.15,2.15,0,0,1-.25,1,2.07,2.07,0,0,1-.65.7,2.94,2.94,0,0,1-1,.39,5.09,5.09,0,0,1-1.13.12l-.49,0-.6-.1a4.45,4.45,0,0,1-.58-.15A2,2,0,0,1,145.82,183.15Z" fill="#3c3c41"/>
      <path d="M157.29,180.73h-4.24a2.16,2.16,0,0,0,.54,1.54,1.82,1.82,0,0,0,1.42.55,2.93,2.93,0,0,0,1.86-.67v.9a3.45,3.45,0,0,1-2.09.58,2.55,2.55,0,0,1-2-.82,3.81,3.81,0,0,1,.07-4.58,2.53,2.53,0,0,1,2-.88,2.25,2.25,0,0,1,1.82.76,3.17,3.17,0,0,1,.65,2.11Zm-1-.82a2,2,0,0,0-.4-1.29,1.36,1.36,0,0,0-1.1-.47,1.56,1.56,0,0,0-1.15.49,2.19,2.19,0,0,0-.59,1.27Z" fill="#3c3c41"/>
      <path d="M161.87,178.46a1.18,1.18,0,0,0-.73-.19,1.23,1.23,0,0,0-1,.58,2.7,2.7,0,0,0-.41,1.58v3.06h-1v-6h1v1.23h0a2.09,2.09,0,0,1,.63-1,1.42,1.42,0,0,1,.94-.36,1.75,1.75,0,0,1,.58.08Z" fill="#3c3c41"/>
      <path d="M167.63,177.49l-2.39,6h-1l-2.27-6h1l1.53,4.36a4.38,4.38,0,0,1,.21.83h0a3.7,3.7,0,0,1,.19-.81l1.59-4.38Z" fill="#3c3c41"/>
      <path d="M173.48,180.73h-4.24a2.26,2.26,0,0,0,.54,1.54,1.85,1.85,0,0,0,1.42.55,2.89,2.89,0,0,0,1.86-.67v.9a3.41,3.41,0,0,1-2.09.58,2.58,2.58,0,0,1-2-.82,3.35,3.35,0,0,1-.72-2.3,3.28,3.28,0,0,1,.79-2.28,2.54,2.54,0,0,1,2-.88,2.26,2.26,0,0,1,1.83.76,3.17,3.17,0,0,1,.64,2.11Zm-1-.82a2,2,0,0,0-.41-1.29,1.36,1.36,0,0,0-1.09-.47,1.58,1.58,0,0,0-1.16.49,2.24,2.24,0,0,0-.58,1.27Z" fill="#3c3c41"/>
      <path d="M178.06,178.46a1.16,1.16,0,0,0-.72-.19,1.21,1.21,0,0,0-1,.58,2.62,2.62,0,0,0-.42,1.58v3.06h-1v-6h1v1.23h0a2,2,0,0,1,.62-1,1.45,1.45,0,0,1,1-.36,1.65,1.65,0,0,1,.57.08Z" fill="#3c3c41"/>
      <path d="M188.77,175.08l-3.11,8.41h-1.09l-3-8.41h1.09l2.33,6.67a4.27,4.27,0,0,1,.17.74h0a4.22,4.22,0,0,1,.19-.76l2.38-6.65Z" fill="#3c3c41"/>
      <path d="M198.54,183.49h-1v-5.64c0-.45,0-1,.08-1.63h0a5.42,5.42,0,0,1-.25.81l-2.87,6.46H194l-2.87-6.41a6,6,0,0,1-.25-.86h0c0,.33,0,.88,0,1.64v5.63H190v-8.41h1.31l2.57,5.86a7.92,7.92,0,0,1,.39,1h0c.16-.46.3-.8.4-1l2.63-5.84h1.23Z" fill="#3c3c41"/>
      <path d="M200.26,183.27v-1a2.82,2.82,0,0,0,1.73.58q1.26,0,1.26-.84a.66.66,0,0,0-.11-.41,1.17,1.17,0,0,0-.29-.3,2.86,2.86,0,0,0-.43-.23l-.54-.21-.7-.32a2,2,0,0,1-.5-.37,1.21,1.21,0,0,1-.31-.46,1.57,1.57,0,0,1-.1-.6,1.44,1.44,0,0,1,.19-.75,1.78,1.78,0,0,1,.52-.54,2.21,2.21,0,0,1,.73-.33,3.07,3.07,0,0,1,.86-.11,3.41,3.41,0,0,1,1.39.27v1a2.71,2.71,0,0,0-1.52-.44,1.87,1.87,0,0,0-.49.07,1.05,1.05,0,0,0-.37.17.78.78,0,0,0-.24.27.64.64,0,0,0-.09.34.78.78,0,0,0,.09.39.83.83,0,0,0,.25.28,2.11,2.11,0,0,0,.4.23l.53.21a6,6,0,0,1,.71.32,1.82,1.82,0,0,1,.54.36,1.41,1.41,0,0,1,.35.46,1.54,1.54,0,0,1,.12.63,1.45,1.45,0,0,1-.2.77,1.71,1.71,0,0,1-.52.55,2.6,2.6,0,0,1-.76.32,3.76,3.76,0,0,1-.9.11A3.37,3.37,0,0,1,200.26,183.27Z" fill="#3c3c41"/>
    </g>
    <g>
      <path d="M179.55,248.87h-1v-8.4h1Z" fill="#1e1e1e"/>
      <path d="M186.61,248.87h-1v-3.42c0-1.28-.46-1.91-1.39-1.91a1.54,1.54,0,0,0-1.2.54,2,2,0,0,0-.47,1.37v3.42h-1v-6h1v1h0a2.16,2.16,0,0,1,2-1.14,1.85,1.85,0,0,1,1.51.63,2.84,2.84,0,0,1,.52,1.84Z" fill="#1e1e1e"/>
      <path d="M191.21,248.81a1.82,1.82,0,0,1-.9.19c-1.05,0-1.58-.59-1.58-1.76v-3.55h-1v-.82h1V241.4l1-.31v1.78h1.52v.82h-1.52v3.38a1.37,1.37,0,0,0,.21.86.83.83,0,0,0,.68.26,1.05,1.05,0,0,0,.63-.2Z" fill="#1e1e1e"/>
      <path d="M197.31,246.11h-4.23a2.25,2.25,0,0,0,.53,1.55,1.88,1.88,0,0,0,1.42.54,2.94,2.94,0,0,0,1.87-.67v.91a3.53,3.53,0,0,1-2.1.57,2.51,2.51,0,0,1-2-.82,3.83,3.83,0,0,1,.06-4.58,2.54,2.54,0,0,1,2-.88,2.26,2.26,0,0,1,1.83.76,3.18,3.18,0,0,1,.64,2.12Zm-1-.81a2,2,0,0,0-.4-1.3,1.37,1.37,0,0,0-1.1-.46,1.57,1.57,0,0,0-1.16.48,2.24,2.24,0,0,0-.58,1.28Z" fill="#1e1e1e"/>
      <path d="M201.89,243.84a1.14,1.14,0,0,0-.72-.19,1.21,1.21,0,0,0-1,.58,2.64,2.64,0,0,0-.41,1.58v3.06h-1v-6h1v1.24h0a2,2,0,0,1,.63-1,1.54,1.54,0,0,1,1.51-.27Z" fill="#1e1e1e"/>
      <path d="M207.92,248.87h-1v-3.42c0-1.28-.47-1.91-1.4-1.91a1.5,1.5,0,0,0-1.19.54,2,2,0,0,0-.47,1.37v3.42h-1v-6h1v1h0a2.16,2.16,0,0,1,2-1.14,1.85,1.85,0,0,1,1.51.63,2.9,2.9,0,0,1,.52,1.84Z" fill="#1e1e1e"/>
      <path d="M214,248.87h-1v-.94h0a2,2,0,0,1-1.85,1.08,2,2,0,0,1-1.4-.47,1.65,1.65,0,0,1-.51-1.26c0-1.13.66-1.78,2-2l1.8-.25q0-1.53-1.23-1.53a2.91,2.91,0,0,0-2,.74v-1a3.76,3.76,0,0,1,2-.56c1.41,0,2.11.75,2.11,2.24Zm-1-3-1.45.2a2.54,2.54,0,0,0-1,.33,1,1,0,0,0-.34.85.89.89,0,0,0,.31.71,1.2,1.2,0,0,0,.84.28,1.56,1.56,0,0,0,1.18-.5,1.79,1.79,0,0,0,.46-1.27Z" fill="#1e1e1e"/>
      <path d="M216.79,248.87h-1V240h1Z" fill="#1e1e1e"/>
      <path d="M182.93,262.07h-4.36v-8.4h1v7.51h3.38Z" fill="#1e1e1e"/>
      <path d="M186.59,262.21a2.79,2.79,0,0,1-2.12-.84,3.1,3.1,0,0,1-.79-2.23,3.24,3.24,0,0,1,.82-2.36,3,3,0,0,1,2.24-.85,2.66,2.66,0,0,1,2.09.83,3.77,3.77,0,0,1-.06,4.59A2.87,2.87,0,0,1,186.59,262.21Zm.08-5.47a1.84,1.84,0,0,0-1.47.63,2.58,2.58,0,0,0-.54,1.73,2.42,2.42,0,0,0,.55,1.69,1.85,1.85,0,0,0,1.46.61,1.77,1.77,0,0,0,1.43-.6,3.23,3.23,0,0,0,0-3.45A1.74,1.74,0,0,0,186.67,256.74Z" fill="#1e1e1e"/>
      <path d="M195.41,262.07h-1v-.94h0a2.2,2.2,0,0,1-3.25.61,1.65,1.65,0,0,1-.51-1.26c0-1.13.66-1.78,2-2l1.8-.25q0-1.53-1.23-1.53a2.91,2.91,0,0,0-2,.74v-1a3.76,3.76,0,0,1,2-.56c1.41,0,2.11.75,2.11,2.24Zm-1-3-1.45.2a2.54,2.54,0,0,0-1,.33,1,1,0,0,0-.34.85.89.89,0,0,0,.31.71,1.2,1.2,0,0,0,.84.28,1.56,1.56,0,0,0,1.18-.5,1.79,1.79,0,0,0,.46-1.27Z" fill="#1e1e1e"/>
      <path d="M202.34,262.07h-1v-1h0a2.42,2.42,0,0,1-3.87.35,3.28,3.28,0,0,1-.68-2.19,3.57,3.57,0,0,1,.75-2.38,2.48,2.48,0,0,1,2-.9,1.91,1.91,0,0,1,1.8,1h0v-3.71h1Zm-1-2.71v-.89a1.73,1.73,0,0,0-.48-1.23,1.62,1.62,0,0,0-1.22-.5,1.66,1.66,0,0,0-1.38.64,2.87,2.87,0,0,0-.5,1.78,2.56,2.56,0,0,0,.48,1.64,1.59,1.59,0,0,0,1.3.6,1.63,1.63,0,0,0,1.3-.58A2.11,2.11,0,0,0,201.38,259.36Z" fill="#1e1e1e"/>
      <path d="M207.71,262.07v-8.4h2.39a2.67,2.67,0,0,1,1.73.53,1.74,1.74,0,0,1,.63,1.39,2.07,2.07,0,0,1-.38,1.24,2.14,2.14,0,0,1-1.07.75v0a2.16,2.16,0,0,1,1.36.65,2,2,0,0,1,.51,1.41,2.2,2.2,0,0,1-.77,1.74,2.87,2.87,0,0,1-2,.67Zm1-7.51v2.71h1a1.91,1.91,0,0,0,1.27-.39,1.34,1.34,0,0,0,.46-1.1c0-.81-.53-1.22-1.61-1.22Zm0,3.6v3H210a2,2,0,0,0,1.34-.41,1.4,1.4,0,0,0,.48-1.13c0-1-.68-1.48-2-1.48Z" fill="#1e1e1e"/>
      <path d="M218.75,262.07h-1v-.94h0a2,2,0,0,1-1.85,1.08,2,2,0,0,1-1.4-.47,1.65,1.65,0,0,1-.51-1.26c0-1.13.66-1.78,2-2l1.8-.25c0-1-.41-1.53-1.24-1.53a2.9,2.9,0,0,0-2,.74v-1a3.76,3.76,0,0,1,2-.56c1.41,0,2.11.75,2.11,2.24Zm-1-3-1.45.2a2.65,2.65,0,0,0-1,.33,1,1,0,0,0-.33.85.89.89,0,0,0,.31.71,1.19,1.19,0,0,0,.83.28,1.55,1.55,0,0,0,1.18-.5,1.8,1.8,0,0,0,.47-1.27Z" fill="#1e1e1e"/>
      <path d="M221.52,262.07h-1v-8.88h1Z" fill="#1e1e1e"/>
      <path d="M227.76,262.07h-1v-.94h0a2,2,0,0,1-1.85,1.08,2,2,0,0,1-1.4-.47,1.65,1.65,0,0,1-.51-1.26c0-1.13.66-1.78,2-2l1.8-.25q0-1.53-1.23-1.53a2.91,2.91,0,0,0-2,.74v-1a3.76,3.76,0,0,1,2-.56c1.41,0,2.11.75,2.11,2.24Zm-1-3-1.45.2a2.54,2.54,0,0,0-1,.33,1,1,0,0,0-.34.85.89.89,0,0,0,.31.71,1.2,1.2,0,0,0,.84.28,1.56,1.56,0,0,0,1.18-.5,1.79,1.79,0,0,0,.46-1.27Z" fill="#1e1e1e"/>
      <path d="M234.55,262.07h-1v-3.42c0-1.28-.46-1.91-1.39-1.91a1.5,1.5,0,0,0-1.19.54,2,2,0,0,0-.48,1.37v3.42h-1v-6h1v1h0a2.16,2.16,0,0,1,2-1.14,1.84,1.84,0,0,1,1.5.63,2.84,2.84,0,0,1,.52,1.84Z" fill="#1e1e1e"/>
      <path d="M240.45,261.79a3.08,3.08,0,0,1-1.64.42,2.75,2.75,0,0,1-2.07-.83,3.06,3.06,0,0,1-.79-2.17,3.35,3.35,0,0,1,.85-2.38,3,3,0,0,1,2.27-.9,3.27,3.27,0,0,1,1.4.29v1a2.42,2.42,0,0,0-1.43-.47,1.92,1.92,0,0,0-1.51.66,2.46,2.46,0,0,0-.59,1.73,2.36,2.36,0,0,0,.55,1.66,1.91,1.91,0,0,0,1.49.61,2.38,2.38,0,0,0,1.47-.52Z" fill="#1e1e1e"/>
      <path d="M246.73,259.31h-4.24a2.3,2.3,0,0,0,.54,1.55,1.88,1.88,0,0,0,1.42.54,2.89,2.89,0,0,0,1.86-.67v.91a3.47,3.47,0,0,1-2.09.57,2.53,2.53,0,0,1-2-.82,3.35,3.35,0,0,1-.72-2.3,3.28,3.28,0,0,1,.79-2.28,2.54,2.54,0,0,1,2-.88,2.22,2.22,0,0,1,1.82.76,3.18,3.18,0,0,1,.65,2.12Zm-1-.81a2,2,0,0,0-.41-1.3,1.35,1.35,0,0,0-1.09-.46,1.57,1.57,0,0,0-1.16.48,2.25,2.25,0,0,0-.59,1.28Z" fill="#1e1e1e"/>
      <path d="M251.31,257a1.18,1.18,0,0,0-.73-.19,1.2,1.2,0,0,0-1,.58,2.64,2.64,0,0,0-.42,1.58v3.06h-1v-6h1v1.24h0a2,2,0,0,1,.62-1,1.45,1.45,0,0,1,1-.36,1.41,1.41,0,0,1,.57.09Z" fill="#1e1e1e"/>
    </g>
    <g>
      <path d="M103.36,333.58,100.25,342H99.17l-3-8.41h1.1l2.32,6.67a3.51,3.51,0,0,1,.17.74h0a3.52,3.52,0,0,1,.19-.76l2.37-6.65Z" fill="#1e1e1e"/>
      <path d="M113.14,342h-1v-5.64c0-.45,0-1,.08-1.63h0a7,7,0,0,1-.25.81L109.09,342h-.48l-2.86-6.41a4.93,4.93,0,0,1-.25-.86h0c0,.33,0,.88,0,1.64V342h-1v-8.41h1.3l2.58,5.86a7.92,7.92,0,0,1,.39,1h0c.17-.46.3-.8.41-1l2.63-5.84h1.23Z" fill="#1e1e1e"/>
    </g>
    <g>
      <path d="M159.48,333.58,156.37,342h-1.08l-3-8.41h1.1l2.32,6.67a3.51,3.51,0,0,1,.17.74h0a3.52,3.52,0,0,1,.19-.76l2.37-6.65Z" fill="#1e1e1e"/>
      <path d="M169.26,342h-1v-5.64c0-.45,0-1,.08-1.63h0a5.18,5.18,0,0,1-.26.81L165.21,342h-.48l-2.86-6.41a4.93,4.93,0,0,1-.25-.86h0c0,.33,0,.88,0,1.64V342h-.95v-8.41H162l2.58,5.86a7.92,7.92,0,0,1,.39,1h0c.17-.46.3-.8.4-1l2.64-5.84h1.23Z" fill="#1e1e1e"/>
    </g>
    <g>
      <path d="M215.86,333.58,212.75,342h-1.08l-3-8.41h1.1l2.32,6.67a3.51,3.51,0,0,1,.17.74h0a3.52,3.52,0,0,1,.19-.76l2.37-6.65Z" fill="#1e1e1e"/>
      <path d="M225.64,342h-1v-5.64c0-.45,0-1,.08-1.63h0a7,7,0,0,1-.25.81L221.59,342h-.48l-2.86-6.41a4.93,4.93,0,0,1-.25-.86h0c0,.33.05.88.05,1.64V342h-1v-8.41h1.3l2.58,5.86a7.92,7.92,0,0,1,.39,1h0c.17-.46.3-.8.41-1l2.63-5.84h1.23Z" fill="#1e1e1e"/>
    </g>
    <g>
      <path d="M62.77,382.19v-8.4h2.39a2.61,2.61,0,0,1,1.73.53,1.73,1.73,0,0,1,.63,1.39,2,2,0,0,1-.38,1.24,2.14,2.14,0,0,1-1.07.75v0a2.15,2.15,0,0,1,1.36.64,2,2,0,0,1,.51,1.41,2.22,2.22,0,0,1-.77,1.75,2.87,2.87,0,0,1-2,.67Zm1-7.51v2.71h1A1.91,1.91,0,0,0,66,377a1.36,1.36,0,0,0,.46-1.1c0-.82-.53-1.22-1.61-1.22Zm0,3.59v3h1.34a2,2,0,0,0,1.34-.41,1.42,1.42,0,0,0,.48-1.13c0-1-.68-1.49-2-1.49Z" fill="#1e1e1e"/>
      <path d="M73.79,382.19h-1v-.94h0A2,2,0,0,1,71,382.33a2,2,0,0,1-1.41-.48,1.62,1.62,0,0,1-.51-1.26c0-1.12.67-1.77,2-1.95l1.79-.25q0-1.53-1.23-1.53a3,3,0,0,0-2,.73v-1a3.68,3.68,0,0,1,2-.56c1.41,0,2.12.74,2.12,2.24Zm-1-3-1.44.2a2.3,2.3,0,0,0-1,.33,1,1,0,0,0-.34.84.9.9,0,0,0,.31.72,1.2,1.2,0,0,0,.84.28,1.56,1.56,0,0,0,1.18-.5,1.79,1.79,0,0,0,.46-1.27Z" fill="#1e1e1e"/>
      <path d="M79.66,381.91a3.1,3.1,0,0,1-1.64.42,2.69,2.69,0,0,1-2.07-.84,3,3,0,0,1-.79-2.16A3.3,3.3,0,0,1,76,377a3,3,0,0,1,2.27-.9,3.23,3.23,0,0,1,1.39.29v1a2.44,2.44,0,0,0-1.43-.46,2,2,0,0,0-1.51.66,2.49,2.49,0,0,0-.59,1.73,2.38,2.38,0,0,0,.56,1.66,1.89,1.89,0,0,0,1.48.61,2.39,2.39,0,0,0,1.48-.52Z" fill="#1e1e1e"/>
      <path d="M85.92,382.19H84.58l-2.65-2.88h0v2.88h-1v-8.88h1v5.63h0l2.52-2.75h1.26l-2.79,2.89Z" fill="#1e1e1e"/>
      <path d="M91.44,379.43H87.21a2.21,2.21,0,0,0,.54,1.55,1.85,1.85,0,0,0,1.41.54,2.94,2.94,0,0,0,1.87-.67v.9a3.46,3.46,0,0,1-2.1.58,2.51,2.51,0,0,1-2-.82,3.83,3.83,0,0,1,.06-4.58,2.55,2.55,0,0,1,2-.88,2.25,2.25,0,0,1,1.82.76,3.17,3.17,0,0,1,.64,2.11Zm-1-.82a2,2,0,0,0-.4-1.29,1.37,1.37,0,0,0-1.1-.46,1.57,1.57,0,0,0-1.16.48,2.24,2.24,0,0,0-.58,1.27Z" fill="#1e1e1e"/>
      <path d="M97.88,382.19h-1v-3.42c0-1.28-.47-1.91-1.4-1.91a1.5,1.5,0,0,0-1.19.54,2,2,0,0,0-.47,1.37v3.42h-1v-6h1v1h0a2.17,2.17,0,0,1,2-1.13,1.83,1.83,0,0,1,1.5.63,2.84,2.84,0,0,1,.53,1.84Z" fill="#1e1e1e"/>
      <path d="M104.81,382.19h-1v-1h0a2.21,2.21,0,0,1-2.06,1.16,2.24,2.24,0,0,1-1.81-.81,3.29,3.29,0,0,1-.67-2.19,3.62,3.62,0,0,1,.75-2.39,2.48,2.48,0,0,1,2-.89,1.91,1.91,0,0,1,1.8,1h0v-3.71h1Zm-1-2.71v-.89a1.73,1.73,0,0,0-.48-1.23,1.6,1.6,0,0,0-1.22-.5,1.67,1.67,0,0,0-1.39.64,2.85,2.85,0,0,0-.5,1.78,2.56,2.56,0,0,0,.48,1.64,1.6,1.6,0,0,0,1.3.6,1.65,1.65,0,0,0,1.31-.58A2.19,2.19,0,0,0,103.85,379.48Z" fill="#1e1e1e"/>
      <path d="M109.78,381.85v-1.16a2,2,0,0,0,.47.31,3,3,0,0,0,.59.24,3.3,3.3,0,0,0,.62.15,3,3,0,0,0,.57.05,2.29,2.29,0,0,0,1.36-.33,1.15,1.15,0,0,0,.45-1,1.1,1.1,0,0,0-.15-.59,1.52,1.52,0,0,0-.42-.46,3.32,3.32,0,0,0-.62-.4l-.78-.4c-.29-.15-.56-.3-.82-.46a3.81,3.81,0,0,1-.66-.5,2.06,2.06,0,0,1-.44-.62,1.94,1.94,0,0,1-.16-.82,1.9,1.9,0,0,1,.25-1,2.21,2.21,0,0,1,.66-.7,3.19,3.19,0,0,1,.94-.41,4.24,4.24,0,0,1,1.07-.13,4.13,4.13,0,0,1,1.81.29v1.11a3.33,3.33,0,0,0-1.91-.51,3.57,3.57,0,0,0-.65.06,2,2,0,0,0-.57.22,1.21,1.21,0,0,0-.41.4,1,1,0,0,0-.16.58,1.22,1.22,0,0,0,.12.56,1.54,1.54,0,0,0,.35.43,4.18,4.18,0,0,0,.58.37l.77.4c.3.15.59.3.86.47a3.9,3.9,0,0,1,.71.54,2.53,2.53,0,0,1,.48.66,1.89,1.89,0,0,1,.18.84,2.14,2.14,0,0,1-.24,1.05,2.11,2.11,0,0,1-.66.7,2.88,2.88,0,0,1-1,.39,5.24,5.24,0,0,1-1.14.12l-.49,0-.6-.1a4.91,4.91,0,0,1-.58-.15A1.93,1.93,0,0,1,109.78,381.85Z" fill="#1e1e1e"/>
      <path d="M121.13,382.19h-1v-.95h0a2,2,0,0,1-1.85,1.09c-1.43,0-2.14-.85-2.14-2.56v-3.58h.95v3.43c0,1.27.48,1.9,1.45,1.9a1.46,1.46,0,0,0,1.16-.52,2,2,0,0,0,.46-1.35v-3.46h1Z" fill="#1e1e1e"/>
      <path d="M123.93,381.32h0v.87h-1v-8.88h1v3.93h0a2.27,2.27,0,0,1,2.07-1.19,2.23,2.23,0,0,1,1.81.8,3.37,3.37,0,0,1,.65,2.16,3.69,3.69,0,0,1-.73,2.41,2.44,2.44,0,0,1-2,.91A2,2,0,0,1,123.93,381.32Zm0-2.42v.84a1.75,1.75,0,0,0,.49,1.26,1.71,1.71,0,0,0,2.59-.15,3,3,0,0,0,.5-1.86,2.43,2.43,0,0,0-.47-1.57,1.53,1.53,0,0,0-1.25-.56,1.7,1.7,0,0,0-1.35.58A2.13,2.13,0,0,0,123.9,378.9Z" fill="#1e1e1e"/>
      <path d="M134.92,382.19h-1v-3.42c0-1.28-.46-1.91-1.39-1.91a1.5,1.5,0,0,0-1.19.54,2,2,0,0,0-.48,1.37v3.42h-1v-6h1v1h0a2.17,2.17,0,0,1,2-1.13,1.84,1.84,0,0,1,1.5.63,2.84,2.84,0,0,1,.52,1.84Z" fill="#1e1e1e"/>
      <path d="M141.54,379.43H137.3a2.21,2.21,0,0,0,.54,1.55,1.85,1.85,0,0,0,1.42.54,2.93,2.93,0,0,0,1.86-.67v.9a3.45,3.45,0,0,1-2.09.58,2.52,2.52,0,0,1-2-.82,3.81,3.81,0,0,1,.07-4.58,2.53,2.53,0,0,1,2-.88,2.25,2.25,0,0,1,1.82.76,3.17,3.17,0,0,1,.65,2.11Zm-1-.82a2,2,0,0,0-.4-1.29,1.36,1.36,0,0,0-1.1-.46,1.55,1.55,0,0,0-1.15.48,2.19,2.19,0,0,0-.59,1.27Z" fill="#1e1e1e"/>
      <path d="M145.77,382.13a1.94,1.94,0,0,1-.9.19c-1.05,0-1.58-.59-1.58-1.76V377h-1v-.82h1v-1.47l1-.31v1.78h1.52V377h-1.52v3.38a1.37,1.37,0,0,0,.21.86.83.83,0,0,0,.68.26,1.05,1.05,0,0,0,.63-.2Z" fill="#1e1e1e"/>
      <path d="M65.91,396.59H65v-7.26a2.79,2.79,0,0,1-.33.25,5.06,5.06,0,0,1-.48.29c-.18.09-.36.18-.56.26a3.56,3.56,0,0,1-.58.19v-1a5.46,5.46,0,0,0,.67-.24c.24-.1.47-.21.7-.33a7,7,0,0,0,.65-.39,3.91,3.91,0,0,0,.52-.39h.37Z" fill="#1e1e1e"/>
      <path d="M73.6,392.35a8.68,8.68,0,0,1-.19,1.87,4.41,4.41,0,0,1-.56,1.37,2.34,2.34,0,0,1-2.07,1.14,2.33,2.33,0,0,1-1.13-.27,2.43,2.43,0,0,1-.84-.82,4.26,4.26,0,0,1-.51-1.31,7.84,7.84,0,0,1-.18-1.77,8.71,8.71,0,0,1,.19-1.95,4.32,4.32,0,0,1,.54-1.41,2.39,2.39,0,0,1,.89-.87A2.52,2.52,0,0,1,71,388C72.71,388,73.6,389.48,73.6,392.35Zm-1,.09c0-2.39-.57-3.58-1.7-3.58s-1.8,1.22-1.8,3.65c0,2.27.59,3.4,1.76,3.4S72.61,394.76,72.61,392.44Z" fill="#1e1e1e"/>
      <path d="M75.3,396.72a.63.63,0,0,1-.46-.2.62.62,0,0,1-.19-.46.66.66,0,0,1,.19-.47.62.62,0,0,1,.46-.19.64.64,0,0,1,.47.19.66.66,0,0,1,.19.47.62.62,0,0,1-.19.46A.65.65,0,0,1,75.3,396.72Z" fill="#1e1e1e"/>
      <path d="M79.78,396.59h-1v-7.26a2.14,2.14,0,0,1-.33.25,5.06,5.06,0,0,1-.48.29c-.18.09-.36.18-.56.26a3.56,3.56,0,0,1-.58.19v-1a5.46,5.46,0,0,0,.67-.24c.24-.1.47-.21.7-.33a5.88,5.88,0,0,0,.65-.39,4.87,4.87,0,0,0,.53-.39h.36Z" fill="#1e1e1e"/>
      <path d="M87.47,392.35a8.68,8.68,0,0,1-.19,1.87,4.41,4.41,0,0,1-.55,1.37,2.4,2.4,0,0,1-.89.85,2.36,2.36,0,0,1-1.19.29,2.16,2.16,0,0,1-2-1.09,4,4,0,0,1-.52-1.31,7.88,7.88,0,0,1-.17-1.77,9.38,9.38,0,0,1,.18-1.95,4.32,4.32,0,0,1,.54-1.41,2.46,2.46,0,0,1,.89-.87,2.53,2.53,0,0,1,1.22-.29Q87.47,388,87.47,392.35Zm-1,.09c0-2.39-.56-3.58-1.7-3.58s-1.8,1.22-1.8,3.65c0,2.27.59,3.4,1.76,3.4S86.48,394.76,86.48,392.44Z" fill="#1e1e1e"/>
      <path d="M89.17,396.72a.63.63,0,0,1-.46-.2.66.66,0,0,1-.19-.46.7.7,0,0,1,.19-.47.62.62,0,0,1,.46-.19.63.63,0,0,1,.47.19.66.66,0,0,1,.19.47.62.62,0,0,1-.19.46A.63.63,0,0,1,89.17,396.72Z" fill="#1e1e1e"/>
      <path d="M95.24,390.39a1.79,1.79,0,0,0-.12-.68,1.25,1.25,0,0,0-.33-.47,1.42,1.42,0,0,0-.49-.29,2,2,0,0,0-.61-.09,1.7,1.7,0,0,0-.55.08,2.57,2.57,0,0,0-.52.21,3,3,0,0,0-.5.32,4.2,4.2,0,0,0-.44.41v-1a2.88,2.88,0,0,1,.91-.6,3.14,3.14,0,0,1,1.22-.21,2.91,2.91,0,0,1,1,.15,2.25,2.25,0,0,1,.77.44,2,2,0,0,1,.5.71,2.27,2.27,0,0,1,.19,1,3.16,3.16,0,0,1-.12.9,2.73,2.73,0,0,1-.34.76,3.73,3.73,0,0,1-.59.69,7.58,7.58,0,0,1-.82.66c-.4.28-.72.53-1,.72a5,5,0,0,0-.61.56,1.63,1.63,0,0,0-.31.53,1.8,1.8,0,0,0-.09.6h4.18v.86H91.35v-.42a3.43,3.43,0,0,1,.12-.95,2.59,2.59,0,0,1,.39-.78,4.73,4.73,0,0,1,.7-.74c.29-.24.65-.52,1.07-.83a8.24,8.24,0,0,0,.77-.62,3.23,3.23,0,0,0,.49-.6,1.93,1.93,0,0,0,.27-.61A2.69,2.69,0,0,0,95.24,390.39Z" fill="#1e1e1e"/>
      <path d="M102.92,392.35a8.68,8.68,0,0,1-.19,1.87,4.41,4.41,0,0,1-.55,1.37,2.4,2.4,0,0,1-.89.85,2.36,2.36,0,0,1-1.19.29,2.16,2.16,0,0,1-2-1.09,4,4,0,0,1-.52-1.31,7.88,7.88,0,0,1-.17-1.77,9.38,9.38,0,0,1,.18-1.95,4.32,4.32,0,0,1,.54-1.41,2.46,2.46,0,0,1,.89-.87,2.53,2.53,0,0,1,1.22-.29Q102.92,388,102.92,392.35Zm-1,.09c0-2.39-.56-3.58-1.7-3.58s-1.8,1.22-1.8,3.65c0,2.27.59,3.4,1.76,3.4S101.93,394.76,101.93,392.44Z" fill="#1e1e1e"/>
      <path d="M104.62,396.72a.63.63,0,0,1-.46-.2.66.66,0,0,1-.19-.46.7.7,0,0,1,.19-.47.62.62,0,0,1,.46-.19.63.63,0,0,1,.47.19.67.67,0,0,1,.2.47.68.68,0,0,1-.67.66Z" fill="#1e1e1e"/>
      <path d="M111.84,392.35a8.09,8.09,0,0,1-.19,1.87,4.18,4.18,0,0,1-.55,1.37,2.34,2.34,0,0,1-2.07,1.14,2.3,2.3,0,0,1-1.13-.27,2.43,2.43,0,0,1-.84-.82,4.26,4.26,0,0,1-.51-1.31,7.84,7.84,0,0,1-.18-1.77,8.71,8.71,0,0,1,.19-1.95,4.32,4.32,0,0,1,.54-1.41,2.39,2.39,0,0,1,.89-.87,2.52,2.52,0,0,1,1.21-.29Q111.84,388,111.84,392.35Zm-1,.09c0-2.39-.57-3.58-1.7-3.58s-1.8,1.22-1.8,3.65c0,2.27.58,3.4,1.76,3.4S110.86,394.76,110.86,392.44Z" fill="#1e1e1e"/>
      <path d="M116.7,388.19l-4,9.79h-.9l4-9.79Z" fill="#1e1e1e"/>
      <path d="M121.14,390.39a1.79,1.79,0,0,0-.12-.68,1.25,1.25,0,0,0-.33-.47,1.42,1.42,0,0,0-.49-.29,2,2,0,0,0-.61-.09,1.75,1.75,0,0,0-.55.08,2.95,2.95,0,0,0-1,.53,3.47,3.47,0,0,0-.45.41v-1a2.88,2.88,0,0,1,.91-.6,3.14,3.14,0,0,1,1.22-.21,3,3,0,0,1,1,.15,2.3,2.3,0,0,1,.76.44,2,2,0,0,1,.5.71,2.27,2.27,0,0,1,.19,1,3.16,3.16,0,0,1-.12.9,2.73,2.73,0,0,1-.34.76,4.09,4.09,0,0,1-.58.69,8.92,8.92,0,0,1-.83.66c-.4.28-.72.53-1,.72a5,5,0,0,0-.61.56,1.63,1.63,0,0,0-.31.53,1.8,1.8,0,0,0-.09.6h4.18v.86h-5.19v-.42a3.43,3.43,0,0,1,.12-.95,2.59,2.59,0,0,1,.39-.78,4.73,4.73,0,0,1,.7-.74c.3-.24.65-.52,1.07-.83a8.24,8.24,0,0,0,.77-.62,3.23,3.23,0,0,0,.49-.6,1.93,1.93,0,0,0,.27-.61A2.69,2.69,0,0,0,121.14,390.39Z" fill="#1e1e1e"/>
      <path d="M127.82,388.19v5.54h1.08v.88h-1.08v2h-.95v-2h-4v-.83c.37-.41.74-.86,1.11-1.33s.74-.94,1.08-1.43.66-1,1-1.45a13.34,13.34,0,0,0,.73-1.38ZM124,393.73h2.87v-4.11c-.29.51-.57,1-.83,1.37s-.51.77-.75,1.1-.46.62-.68.89S124.2,393.5,124,393.73Z" fill="#1e1e1e"/>
    </g>
    <g>
      <path d="M69,421.28l-3.11,8.4H64.82l-3-8.4h1.1l2.32,6.66a3.51,3.51,0,0,1,.17.74h0a3.44,3.44,0,0,1,.19-.75L68,421.28Z" fill="#1e1e1e"/>
      <path d="M70.66,422.16a.6.6,0,0,1-.44-.18.61.61,0,0,1-.18-.45.59.59,0,0,1,.18-.44.6.6,0,0,1,.44-.18.63.63,0,0,1,.45.18.63.63,0,0,1,0,.88A.6.6,0,0,1,70.66,422.16Zm.47,7.52h-1v-6h1Z" fill="#1e1e1e"/>
      <path d="M76.08,424.65a1.14,1.14,0,0,0-.72-.19,1.21,1.21,0,0,0-1,.58,2.64,2.64,0,0,0-.41,1.58v3.06H73v-6h1v1.24h0a2.07,2.07,0,0,1,.63-1,1.54,1.54,0,0,1,1.51-.27Z" fill="#1e1e1e"/>
      <path d="M80.31,429.62a1.82,1.82,0,0,1-.9.19c-1,0-1.58-.59-1.58-1.76V424.5h-1v-.82h1v-1.47l1-.31v1.78h1.51v.82H78.8v3.38a1.38,1.38,0,0,0,.2.86.83.83,0,0,0,.68.26,1.05,1.05,0,0,0,.63-.2Z" fill="#1e1e1e"/>
      <path d="M86.42,429.68h-1v-.95h0a2,2,0,0,1-1.85,1.09c-1.43,0-2.14-.85-2.14-2.55v-3.59h1v3.43c0,1.27.49,1.9,1.46,1.9a1.45,1.45,0,0,0,1.15-.52,1.94,1.94,0,0,0,.46-1.35v-3.46h1Z" fill="#1e1e1e"/>
      <path d="M92.56,429.68h-1v-.94h0a2,2,0,0,1-1.85,1.08,2,2,0,0,1-1.4-.47,1.65,1.65,0,0,1-.51-1.26c0-1.13.66-1.78,2-2l1.8-.25q0-1.53-1.23-1.53a2.91,2.91,0,0,0-2,.74v-1a3.76,3.76,0,0,1,2-.56c1.41,0,2.11.74,2.11,2.24Zm-1-3-1.45.2a2.54,2.54,0,0,0-1,.33,1,1,0,0,0-.34.85.89.89,0,0,0,.31.71A1.2,1.2,0,0,0,90,429a1.56,1.56,0,0,0,1.18-.5,1.79,1.79,0,0,0,.46-1.27Z" fill="#1e1e1e"/>
      <path d="M95.27,429.68h-1V420.8h1Z" fill="#1e1e1e"/>
      <path d="M107.4,429.68h-1.21l-4.32-6.7a2.65,2.65,0,0,1-.27-.53h0a7.27,7.27,0,0,1,0,1.16v6.07h-1v-8.4h1.27l4.21,6.59a5.88,5.88,0,0,1,.34.56h0a11.14,11.14,0,0,1,0-1.24v-5.91h1Z" fill="#1e1e1e"/>
      <path d="M114.25,426.92H110a2.3,2.3,0,0,0,.54,1.55A1.88,1.88,0,0,0,112,429a2.89,2.89,0,0,0,1.86-.67v.91a3.47,3.47,0,0,1-2.09.57,2.53,2.53,0,0,1-2-.82,3.35,3.35,0,0,1-.72-2.3,3.28,3.28,0,0,1,.79-2.28,2.54,2.54,0,0,1,2-.88,2.24,2.24,0,0,1,1.82.76,3.18,3.18,0,0,1,.65,2.12Zm-1-.82a1.9,1.9,0,0,0-.4-1.29,1.36,1.36,0,0,0-1.1-.46,1.56,1.56,0,0,0-1.15.48,2.25,2.25,0,0,0-.59,1.27Z" fill="#1e1e1e"/>
      <path d="M118.48,429.62a1.82,1.82,0,0,1-.9.19c-1,0-1.57-.59-1.57-1.76V424.5h-1v-.82h1v-1.47l1-.31v1.78h1.51v.82H117v3.38a1.45,1.45,0,0,0,.2.86.84.84,0,0,0,.68.26,1.05,1.05,0,0,0,.63-.2Z" fill="#1e1e1e"/>
      <path d="M127.65,423.68l-1.8,6h-1l-1.24-4.3a2.26,2.26,0,0,1-.09-.55h0a2.44,2.44,0,0,1-.12.54L122,429.68h-1l-1.82-6h1l1.24,4.51a2.38,2.38,0,0,1,.08.54h0a2.33,2.33,0,0,1,.11-.55l1.38-4.5H124l1.24,4.52a3.36,3.36,0,0,1,.09.54h0a2.61,2.61,0,0,1,.1-.54l1.22-4.52Z" fill="#1e1e1e"/>
      <path d="M131.15,429.82A2.79,2.79,0,0,1,129,429a3.1,3.1,0,0,1-.79-2.23,3.23,3.23,0,0,1,.82-2.36,3,3,0,0,1,2.23-.85,2.69,2.69,0,0,1,2.1.82,3.32,3.32,0,0,1,.75,2.3,3.25,3.25,0,0,1-.81,2.3A2.87,2.87,0,0,1,131.15,429.82Zm.07-5.47a1.83,1.83,0,0,0-1.46.63,2.58,2.58,0,0,0-.54,1.73,2.47,2.47,0,0,0,.54,1.69,1.86,1.86,0,0,0,1.46.61,1.79,1.79,0,0,0,1.44-.6,3.23,3.23,0,0,0,0-3.45A1.76,1.76,0,0,0,131.22,424.35Z" fill="#1e1e1e"/>
      <path d="M138.75,424.65a1.16,1.16,0,0,0-.72-.19,1.21,1.21,0,0,0-1,.58,2.64,2.64,0,0,0-.42,1.58v3.06h-1v-6h1v1.24h0a2,2,0,0,1,.62-1,1.45,1.45,0,0,1,1-.36,1.41,1.41,0,0,1,.57.09Z" fill="#1e1e1e"/>
      <path d="M144.81,429.68h-1.35l-2.65-2.88h0v2.88h-1V420.8h1v5.63h0l2.52-2.75h1.26l-2.78,2.89Z" fill="#1e1e1e"/>
      <path d="M65.91,444.08H65v-7.26a2.79,2.79,0,0,1-.33.25,3.58,3.58,0,0,1-.48.29c-.18.09-.36.18-.56.26a5,5,0,0,1-.58.2v-1a5.34,5.34,0,0,0,.67-.23,6.44,6.44,0,0,0,.7-.34c.23-.12.44-.25.65-.38a5,5,0,0,0,.52-.4h.37Z" fill="#1e1e1e"/>
      <path d="M73.6,439.84a8.62,8.62,0,0,1-.19,1.87,4.47,4.47,0,0,1-.56,1.38,2.55,2.55,0,0,1-.88.85,2.47,2.47,0,0,1-1.19.29,2.34,2.34,0,0,1-1.13-.28,2.49,2.49,0,0,1-.84-.81,4.48,4.48,0,0,1-.51-1.31,7.93,7.93,0,0,1-.18-1.78,8.77,8.77,0,0,1,.19-1.95,4.32,4.32,0,0,1,.54-1.41,2.36,2.36,0,0,1,.89-.86,2.41,2.41,0,0,1,1.21-.29C72.71,435.54,73.6,437,73.6,439.84Zm-1,.1c0-2.39-.57-3.59-1.7-3.59s-1.8,1.22-1.8,3.65c0,2.27.59,3.41,1.76,3.41S72.61,442.25,72.61,439.94Z" fill="#1e1e1e"/>
      <path d="M75.3,444.21a.66.66,0,0,1-.46-.19.64.64,0,0,1-.19-.47.62.62,0,0,1,.19-.46.63.63,0,0,1,.46-.2.65.65,0,0,1,.47.2.62.62,0,0,1,.19.46.64.64,0,0,1-.19.47A.68.68,0,0,1,75.3,444.21Z" fill="#1e1e1e"/>
      <path d="M79.78,444.08h-1v-7.26a2.14,2.14,0,0,1-.33.25,3.58,3.58,0,0,1-.48.29c-.18.09-.36.18-.56.26a5,5,0,0,1-.58.2v-1a5.34,5.34,0,0,0,.67-.23,6.44,6.44,0,0,0,.7-.34c.23-.12.45-.25.65-.38a6.62,6.62,0,0,0,.53-.4h.36Z" fill="#1e1e1e"/>
      <path d="M87.47,439.84a8.62,8.62,0,0,1-.19,1.87,4.47,4.47,0,0,1-.55,1.38,2.57,2.57,0,0,1-.89.85,2.47,2.47,0,0,1-1.19.29,2.34,2.34,0,0,1-1.13-.28,2.38,2.38,0,0,1-.83-.81,4.22,4.22,0,0,1-.52-1.31,8,8,0,0,1-.17-1.78,9.45,9.45,0,0,1,.18-1.95,4.32,4.32,0,0,1,.54-1.41,2.36,2.36,0,0,1,2.11-1.15Q87.47,435.54,87.47,439.84Zm-1,.1c0-2.39-.56-3.59-1.7-3.59S83,437.57,83,440c0,2.27.59,3.41,1.76,3.41S86.48,442.25,86.48,439.94Z" fill="#1e1e1e"/>
      <path d="M89.17,444.21a.66.66,0,0,1-.46-.19.68.68,0,0,1-.19-.47.66.66,0,0,1,.19-.46.64.64,0,0,1,.93,0,.62.62,0,0,1,.19.46.64.64,0,0,1-.19.47A.67.67,0,0,1,89.17,444.21Z" fill="#1e1e1e"/>
      <path d="M96.39,439.84a8,8,0,0,1-.19,1.87,4.24,4.24,0,0,1-.55,1.38,2.55,2.55,0,0,1-.88.85,2.47,2.47,0,0,1-1.19.29,2.31,2.31,0,0,1-1.13-.28,2.49,2.49,0,0,1-.84-.81,4.22,4.22,0,0,1-.51-1.31,7.93,7.93,0,0,1-.18-1.78,8.77,8.77,0,0,1,.19-1.95,4.32,4.32,0,0,1,.54-1.41,2.36,2.36,0,0,1,2.1-1.15Q96.39,435.54,96.39,439.84Zm-1,.1c0-2.39-.57-3.59-1.71-3.59s-1.79,1.22-1.79,3.65c0,2.27.58,3.41,1.76,3.41S95.41,442.25,95.41,439.94Z" fill="#1e1e1e"/>
      <path d="M98.1,444.21a.66.66,0,0,1-.46-.19.64.64,0,0,1-.19-.47.62.62,0,0,1,.19-.46.63.63,0,0,1,.46-.2.65.65,0,0,1,.47.2.62.62,0,0,1,.19.46.64.64,0,0,1-.19.47A.68.68,0,0,1,98.1,444.21Z" fill="#1e1e1e"/>
      <path d="M105.32,439.84a8,8,0,0,1-.19,1.87,4.47,4.47,0,0,1-.55,1.38,2.57,2.57,0,0,1-.89.85,2.44,2.44,0,0,1-1.19.29,2.34,2.34,0,0,1-1.13-.28,2.46,2.46,0,0,1-.83-.81,4.22,4.22,0,0,1-.52-1.31,8.61,8.61,0,0,1-.17-1.78,9.45,9.45,0,0,1,.18-1.95,4.83,4.83,0,0,1,.54-1.41,2.36,2.36,0,0,1,2.11-1.15Q105.32,435.54,105.32,439.84Zm-1,.1c0-2.39-.57-3.59-1.71-3.59s-1.8,1.22-1.8,3.65c0,2.27.59,3.41,1.77,3.41S104.34,442.25,104.34,439.94Z" fill="#1e1e1e"/>
      <path d="M110.17,435.68l-4,9.79h-.89l4-9.79Z" fill="#1e1e1e"/>
      <path d="M114.05,444.08h-1v-7.26a2.79,2.79,0,0,1-.33.25,3.58,3.58,0,0,1-.48.29c-.18.09-.36.18-.56.26a5,5,0,0,1-.58.2v-1a5.34,5.34,0,0,0,.67-.23,6.44,6.44,0,0,0,.7-.34c.23-.12.44-.25.65-.38a5,5,0,0,0,.52-.4h.37Z" fill="#1e1e1e"/>
      <path d="M121.65,441.41a3.15,3.15,0,0,1-.2,1.13,2.72,2.72,0,0,1-.55.9,2.38,2.38,0,0,1-.84.58,2.59,2.59,0,0,1-1,.21,2.4,2.4,0,0,1-1.14-.27,2.45,2.45,0,0,1-.85-.76,3.85,3.85,0,0,1-.53-1.21,6.55,6.55,0,0,1-.18-1.61,7.28,7.28,0,0,1,.25-2,4.88,4.88,0,0,1,.69-1.53,3.24,3.24,0,0,1,1.08-1,2.88,2.88,0,0,1,1.41-.34,3.37,3.37,0,0,1,1.39.24v.91a2.87,2.87,0,0,0-1.37-.34,2.13,2.13,0,0,0-1,.25,2.36,2.36,0,0,0-.77.71,3.49,3.49,0,0,0-.5,1.12,5.8,5.8,0,0,0-.17,1.44h0a2,2,0,0,1,1.92-1.05,2.57,2.57,0,0,1,1,.19,2.17,2.17,0,0,1,.76.53,2.31,2.31,0,0,1,.48.82A3.21,3.21,0,0,1,121.65,441.41Zm-1,.13a2.39,2.39,0,0,0-.12-.79,1.7,1.7,0,0,0-.31-.6,1.33,1.33,0,0,0-.52-.38,1.67,1.67,0,0,0-.69-.13,1.59,1.59,0,0,0-.66.13,1.64,1.64,0,0,0-.53.37,1.68,1.68,0,0,0-.35.54,1.75,1.75,0,0,0-.12.65,2.64,2.64,0,0,0,.12.81,2,2,0,0,0,.35.66,1.56,1.56,0,0,0,1.21.61,1.59,1.59,0,0,0,.66-.14,1.39,1.39,0,0,0,.51-.39,1.83,1.83,0,0,0,.33-.58A2.33,2.33,0,0,0,120.67,441.54Z" fill="#1e1e1e"/>
    </g>
    <g>
      <path d="M106.29,359.49v-8.41h2.32q4.44,0,4.44,4.1a4.11,4.11,0,0,1-1.24,3.13,4.6,4.6,0,0,1-3.3,1.18Zm1-7.51v6.62h1.25a3.58,3.58,0,0,0,2.58-.89,3.32,3.32,0,0,0,.92-2.51q0-3.22-3.44-3.22Z" fill="#3c3c41"/>
      <path d="M118.87,359.49h-1v-.94h0a2,2,0,0,1-1.84,1.08,2,2,0,0,1-1.41-.48,1.61,1.61,0,0,1-.5-1.26q0-1.68,2-1.95l1.79-.26q0-1.53-1.23-1.53a3,3,0,0,0-2,.74v-1a3.68,3.68,0,0,1,2-.56c1.41,0,2.12.74,2.12,2.23Zm-1-3-1.44.2a2.3,2.3,0,0,0-1,.33,1,1,0,0,0-.34.84.91.91,0,0,0,.31.72,1.2,1.2,0,0,0,.84.28,1.56,1.56,0,0,0,1.18-.5,1.8,1.8,0,0,0,.46-1.27Z" fill="#3c3c41"/>
      <path d="M123.46,359.43a1.94,1.94,0,0,1-.9.19c-1,0-1.57-.59-1.57-1.76v-3.55h-1v-.82h1V352l1-.31v1.78h1.51v.82H122v3.38a1.45,1.45,0,0,0,.2.86.84.84,0,0,0,.68.26,1.05,1.05,0,0,0,.63-.2Z" fill="#3c3c41"/>
      <path d="M129,359.49h-1v-.94h0a2,2,0,0,1-1.84,1.08,2,2,0,0,1-1.41-.48,1.65,1.65,0,0,1-.5-1.26q0-1.68,2-1.95l1.8-.26c0-1-.42-1.53-1.24-1.53a3,3,0,0,0-2,.74v-1a3.68,3.68,0,0,1,2-.56c1.41,0,2.12.74,2.12,2.23Zm-1-3-1.45.2a2.3,2.3,0,0,0-1,.33,1.1,1.1,0,0,0,0,1.56,1.2,1.2,0,0,0,.84.28,1.55,1.55,0,0,0,1.18-.5,1.81,1.81,0,0,0,.47-1.27Z" fill="#3c3c41"/>
      <path d="M131.83,358.62h0v.87h-1V350.6h1v3.94h0a2.27,2.27,0,0,1,2.08-1.19,2.16,2.16,0,0,1,1.8.8,3.32,3.32,0,0,1,.66,2.16,3.71,3.71,0,0,1-.74,2.41,2.4,2.4,0,0,1-2,.91A2,2,0,0,1,131.83,358.62Zm0-2.42V357a1.8,1.8,0,0,0,.48,1.26,1.59,1.59,0,0,0,1.23.52,1.6,1.6,0,0,0,1.37-.67,3,3,0,0,0,.49-1.86,2.43,2.43,0,0,0-.46-1.57,1.53,1.53,0,0,0-1.25-.57,1.71,1.71,0,0,0-1.35.59A2.13,2.13,0,0,0,131.81,356.2Z" fill="#3c3c41"/>
      <path d="M142.2,359.49h-1v-.94h0a2,2,0,0,1-1.84,1.08,2,2,0,0,1-1.41-.48,1.65,1.65,0,0,1-.5-1.26q0-1.68,2-1.95l1.8-.26c0-1-.42-1.53-1.24-1.53a3,3,0,0,0-2,.74v-1a3.68,3.68,0,0,1,2-.56c1.41,0,2.12.74,2.12,2.23Zm-1-3-1.45.2a2.3,2.3,0,0,0-1,.33,1.1,1.1,0,0,0,0,1.56,1.2,1.2,0,0,0,.84.28,1.55,1.55,0,0,0,1.18-.5,1.81,1.81,0,0,0,.47-1.27Z" fill="#3c3c41"/>
      <path d="M143.64,359.27v-1a2.84,2.84,0,0,0,1.73.58c.85,0,1.27-.28,1.27-.84a.73.73,0,0,0-.11-.41,1.17,1.17,0,0,0-.29-.3,3,3,0,0,0-.44-.23l-.53-.21c-.27-.11-.5-.22-.7-.32a2.23,2.23,0,0,1-.51-.37,1.31,1.31,0,0,1-.3-.46,1.57,1.57,0,0,1-.1-.6,1.44,1.44,0,0,1,.19-.75,1.78,1.78,0,0,1,.52-.54,2.21,2.21,0,0,1,.73-.33,3.05,3.05,0,0,1,.85-.11,3.46,3.46,0,0,1,1.4.27v1a2.72,2.72,0,0,0-1.53-.44,1.73,1.73,0,0,0-.48.07,1,1,0,0,0-.37.17.62.62,0,0,0-.24.27.64.64,0,0,0-.09.34.78.78,0,0,0,.09.39.8.8,0,0,0,.24.28,2.48,2.48,0,0,0,.4.23l.54.21a6.81,6.81,0,0,1,.71.32,2.12,2.12,0,0,1,.54.36,1.38,1.38,0,0,1,.34.46,1.54,1.54,0,0,1,.12.63,1.44,1.44,0,0,1-.19.77,1.64,1.64,0,0,1-.53.55,2.54,2.54,0,0,1-.75.32,3.82,3.82,0,0,1-.9.11A3.41,3.41,0,0,1,143.64,359.27Z" fill="#3c3c41"/>
      <path d="M153.92,356.73h-4.23a2.2,2.2,0,0,0,.53,1.54,1.85,1.85,0,0,0,1.42.55,2.94,2.94,0,0,0,1.87-.67v.9a3.46,3.46,0,0,1-2.1.58,2.54,2.54,0,0,1-2-.82,3.83,3.83,0,0,1,.06-4.58,2.55,2.55,0,0,1,2-.88,2.25,2.25,0,0,1,1.82.76,3.17,3.17,0,0,1,.64,2.11Zm-1-.82a2,2,0,0,0-.4-1.29,1.38,1.38,0,0,0-1.1-.47,1.58,1.58,0,0,0-1.16.49,2.24,2.24,0,0,0-.58,1.27Z" fill="#3c3c41"/>
      <path d="M158.4,359.15V358a2.21,2.21,0,0,0,.48.31,3,3,0,0,0,.58.24c.21.06.41.11.62.15a3,3,0,0,0,.57.05,2.29,2.29,0,0,0,1.36-.33,1.15,1.15,0,0,0,.45-1,1.16,1.16,0,0,0-.15-.6,1.94,1.94,0,0,0-.41-.46,4.56,4.56,0,0,0-.63-.39l-.77-.41a7,7,0,0,1-.82-.45,3.54,3.54,0,0,1-.67-.5,2.26,2.26,0,0,1-.44-.62,1.94,1.94,0,0,1-.16-.82,1.9,1.9,0,0,1,.25-1,2.21,2.21,0,0,1,.66-.7,3.19,3.19,0,0,1,.94-.41,4.24,4.24,0,0,1,1.07-.14,4.08,4.08,0,0,1,1.81.3v1.11a3.31,3.31,0,0,0-1.91-.52,3.59,3.59,0,0,0-.65.07,2,2,0,0,0-.57.22,1.27,1.27,0,0,0-.41.39,1,1,0,0,0-.16.59,1.25,1.25,0,0,0,.12.56,1.28,1.28,0,0,0,.36.42,3,3,0,0,0,.57.38l.77.4c.3.15.59.3.86.47a3.59,3.59,0,0,1,.71.54,2.53,2.53,0,0,1,.48.66,1.89,1.89,0,0,1,.18.84,2.14,2.14,0,0,1-.24,1.05,2.1,2.1,0,0,1-.66.7,2.8,2.8,0,0,1-1,.39,5.24,5.24,0,0,1-1.14.12l-.49,0-.6-.1a5.47,5.47,0,0,1-.58-.15A1.93,1.93,0,0,1,158.4,359.15Z" fill="#3c3c41"/>
      <path d="M169.86,356.73h-4.24a2.26,2.26,0,0,0,.54,1.54,1.85,1.85,0,0,0,1.42.55,2.89,2.89,0,0,0,1.86-.67v.9a3.41,3.41,0,0,1-2.09.58,2.56,2.56,0,0,1-2-.82,3.35,3.35,0,0,1-.72-2.3,3.28,3.28,0,0,1,.79-2.28,2.54,2.54,0,0,1,2-.88,2.22,2.22,0,0,1,1.82.76,3.17,3.17,0,0,1,.65,2.11Zm-1-.82a2,2,0,0,0-.41-1.29,1.36,1.36,0,0,0-1.09-.47,1.58,1.58,0,0,0-1.16.49,2.25,2.25,0,0,0-.59,1.27Z" fill="#3c3c41"/>
      <path d="M174.44,354.46a1.18,1.18,0,0,0-.73-.19,1.2,1.2,0,0,0-1,.58,2.62,2.62,0,0,0-.42,1.58v3.06h-1v-6h1v1.23h0a2,2,0,0,1,.62-1,1.45,1.45,0,0,1,1-.36,1.65,1.65,0,0,1,.57.08Z" fill="#3c3c41"/>
      <path d="M180.2,353.49l-2.39,6h-.94l-2.28-6h1.06l1.52,4.36a3.25,3.25,0,0,1,.21.83h0a4.41,4.41,0,0,1,.18-.81l1.6-4.38Z" fill="#3c3c41"/>
      <path d="M186.05,356.73h-4.23a2.16,2.16,0,0,0,.54,1.54,1.82,1.82,0,0,0,1.42.55,2.93,2.93,0,0,0,1.86-.67v.9a3.45,3.45,0,0,1-2.09.58,2.55,2.55,0,0,1-2-.82,3.81,3.81,0,0,1,.07-4.58,2.53,2.53,0,0,1,2-.88,2.25,2.25,0,0,1,1.82.76,3.17,3.17,0,0,1,.64,2.11Zm-1-.82a2,2,0,0,0-.4-1.29,1.36,1.36,0,0,0-1.1-.47,1.56,1.56,0,0,0-1.15.49,2.19,2.19,0,0,0-.59,1.27Z" fill="#3c3c41"/>
      <path d="M190.64,354.46a1.18,1.18,0,0,0-.73-.19,1.23,1.23,0,0,0-1,.58,2.7,2.7,0,0,0-.41,1.58v3.06h-1v-6h1v1.23h0a2.09,2.09,0,0,1,.63-1,1.4,1.4,0,0,1,.94-.36,1.75,1.75,0,0,1,.58.08Z" fill="#3c3c41"/>
      <path d="M201.34,351.08l-3.11,8.41h-1.08l-3.05-8.41h1.1l2.32,6.67a3.51,3.51,0,0,1,.17.74h0a4.3,4.3,0,0,1,.2-.76l2.37-6.65Z" fill="#3c3c41"/>
      <path d="M211.12,359.49h-1v-5.64c0-.45,0-1,.08-1.63h0a5.18,5.18,0,0,1-.26.81l-2.87,6.46h-.48l-2.86-6.41a4.79,4.79,0,0,1-.26-.86h0c0,.33.05.88.05,1.64v5.63h-.95v-8.41h1.3l2.58,5.86a6.32,6.32,0,0,1,.38,1h0c.17-.46.3-.8.4-1l2.63-5.84h1.24Z" fill="#3c3c41"/>
      <path d="M212.83,359.27v-1a2.84,2.84,0,0,0,1.73.58c.84,0,1.27-.28,1.27-.84a.73.73,0,0,0-.11-.41,1.07,1.07,0,0,0-.3-.3A2.44,2.44,0,0,0,215,357l-.53-.21c-.27-.11-.5-.22-.71-.32a2.16,2.16,0,0,1-.5-.37,1.19,1.19,0,0,1-.3-.46,1.57,1.57,0,0,1-.11-.6,1.45,1.45,0,0,1,.2-.75,1.87,1.87,0,0,1,.51-.54,2.26,2.26,0,0,1,.74-.33,3,3,0,0,1,.85-.11,3.46,3.46,0,0,1,1.4.27v1a2.74,2.74,0,0,0-1.53-.44,1.73,1.73,0,0,0-.48.07,1.1,1.1,0,0,0-.38.17.78.78,0,0,0-.24.27.74.74,0,0,0-.08.34.9.9,0,0,0,.08.39.83.83,0,0,0,.25.28,2.11,2.11,0,0,0,.4.23l.53.21a6.17,6.17,0,0,1,.72.32,2.12,2.12,0,0,1,.54.36,1.38,1.38,0,0,1,.34.46,1.54,1.54,0,0,1,.12.63,1.36,1.36,0,0,1-.2.77,1.61,1.61,0,0,1-.52.55,2.49,2.49,0,0,1-.76.32,3.68,3.68,0,0,1-.89.11A3.41,3.41,0,0,1,212.83,359.27Z" fill="#3c3c41"/>
    </g>
  </g>
</svg>
