<svg xmlns="http://www.w3.org/2000/svg" xmlns:xlink="http://www.w3.org/1999/xlink" viewBox="0 0 343.96 314.72">
  <defs>
    <symbol id="Azure_Firewall" data-name="Azure Firewall" viewBox="0 0 49.9 49.9">
      <path d="M19.55,10A11.92,11.92,0,0,1,43.24,12,12.81,12.81,0,0,1,43,14.23a8.1,8.1,0,0,1,6.87,8.29c0,4.61-3.45,8.38-7.68,8.38H20.27A10.45,10.45,0,0,1,10.1,20.3,10.28,10.28,0,0,1,19.55,10Z" fill="#59b4d9"/>
      <g>
        <g>
          <path d="M15,27.9a1,1,0,0,1-1-1v-5a1,1,0,0,1,1-1H26a1,1,0,0,1,1,1v5a1,1,0,0,1-1,1Z" fill="#dd5900"/>
          <path d="M26,21.9v5H15v-5H26m0-2H15a2,2,0,0,0-2,2v5a2,2,0,0,0,2,2H26a2,2,0,0,0,2-2v-5a2,2,0,0,0-2-2Z" fill="#a0a1a2"/>
        </g>
        <g>
          <path d="M28,27.9a1,1,0,0,1-1-1v-5a1,1,0,0,1,1-1H39a1,1,0,0,1,1,1v5a1,1,0,0,1-1,1Z" fill="#ba141a"/>
          <path d="M39,21.9v5H28v-5H39m0-2H28a2,2,0,0,0-2,2v5a2,2,0,0,0,2,2H39a2,2,0,0,0,2-2v-5a2,2,0,0,0-2-2Z" fill="#a0a1a2"/>
        </g>
        <g>
          <path d="M2,27.9a1,1,0,0,1-1-1v-5a1,1,0,0,1,1-1H13a1,1,0,0,1,1,1v5a1,1,0,0,1-1,1Z" fill="#ba141a"/>
          <path d="M13,21.9v5H2v-5H13m0-2H2a2,2,0,0,0-2,2v5a2,2,0,0,0,2,2H13a2,2,0,0,0,2-2v-5a2,2,0,0,0-2-2Z" fill="#a0a1a2"/>
        </g>
        <g>
          <path d="M15,34.9a1,1,0,0,1-1-1v-5a1,1,0,0,1,1-1H26a1,1,0,0,1,1,1v5a1,1,0,0,1-1,1Z" fill="#ba141a"/>
          <path d="M26,28.9v5H15v-5H26m0-2H15a2,2,0,0,0-2,2v5a2,2,0,0,0,2,2H26a2,2,0,0,0,2-2v-5a2,2,0,0,0-2-2Z" fill="#a0a1a2"/>
        </g>
        <g>
          <path d="M2,41.9a1,1,0,0,1-1-1v-5a1,1,0,0,1,1-1H13a1,1,0,0,1,1,1v5a1,1,0,0,1-1,1Z" fill="#dd5900"/>
          <path d="M13,35.9v5H2v-5H13m0-2H2a2,2,0,0,0-2,2v5a2,2,0,0,0,2,2H13a2,2,0,0,0,2-2v-5a2,2,0,0,0-2-2Z" fill="#a0a1a2"/>
        </g>
        <g>
          <path d="M2,34.9a1,1,0,0,1-1-1v-5a1,1,0,0,1,1-1H13a1,1,0,0,1,1,1v5a1,1,0,0,1-1,1Z" fill="#ba141a"/>
          <path d="M13,28.9v5H2v-5H13m0-2H2a2,2,0,0,0-2,2v5a2,2,0,0,0,2,2H13a2,2,0,0,0,2-2v-5a2,2,0,0,0-2-2Z" fill="#a0a1a2"/>
        </g>
        <g>
          <path d="M15,48.9a1,1,0,0,1-1-1v-5a1,1,0,0,1,1-1H26a1,1,0,0,1,1,1v5a1,1,0,0,1-1,1Z" fill="#ba141a"/>
          <path d="M26,42.9v5H15v-5H26m0-2H15a2,2,0,0,0-2,2v5a2,2,0,0,0,2,2H26a2,2,0,0,0,2-2v-5a2,2,0,0,0-2-2Z" fill="#a0a1a2"/>
        </g>
        <g>
          <path d="M28,41.9a1,1,0,0,1-1-1v-5a1,1,0,0,1,1-1H39a1,1,0,0,1,1,1v5a1,1,0,0,1-1,1Z" fill="#ba141a"/>
          <path d="M39,35.9v5H28v-5H39m0-2H28a2,2,0,0,0-2,2v5a2,2,0,0,0,2,2H39a2,2,0,0,0,2-2v-5a2,2,0,0,0-2-2Z" fill="#a0a1a2"/>
        </g>
        <g>
          <path d="M28,34.9a1,1,0,0,1-1-1v-5a1,1,0,0,1,1-1H39a1,1,0,0,1,1,1v5a1,1,0,0,1-1,1Z" fill="#ba141a"/>
          <path d="M39,28.9v5H28v-5H39m0-2H28a2,2,0,0,0-2,2v5a2,2,0,0,0,2,2H39a2,2,0,0,0,2-2v-5a2,2,0,0,0-2-2Z" fill="#a0a1a2"/>
        </g>
        <g>
          <path d="M15,41.9a1,1,0,0,1-1-1v-5a1,1,0,0,1,1-1H26a1,1,0,0,1,1,1v5a1,1,0,0,1-1,1Z" fill="#ba141a"/>
          <path d="M26,35.9v5H15v-5H26m0-2H15a2,2,0,0,0-2,2v5a2,2,0,0,0,2,2H26a2,2,0,0,0,2-2v-5a2,2,0,0,0-2-2Z" fill="#a0a1a2"/>
        </g>
        <g>
          <path d="M28,48.9a1,1,0,0,1-1-1v-5a1,1,0,0,1,1-1H39a1,1,0,0,1,1,1v5a1,1,0,0,1-1,1Z" fill="#dd5900"/>
          <path d="M39,42.9v5H28v-5H39m0-2H28a2,2,0,0,0-2,2v5a2,2,0,0,0,2,2H39a2,2,0,0,0,2-2v-5a2,2,0,0,0-2-2Z" fill="#a0a1a2"/>
        </g>
        <g>
          <path d="M2,48.9a1,1,0,0,1-1-1v-5a1,1,0,0,1,1-1H13a1,1,0,0,1,1,1v5a1,1,0,0,1-1,1Z" fill="#ba141a"/>
          <path d="M13,42.9v5H2v-5H13m0-2H2a2,2,0,0,0-2,2v5a2,2,0,0,0,2,2H13a2,2,0,0,0,2-2v-5a2,2,0,0,0-2-2Z" fill="#a0a1a2"/>
        </g>
      </g>
    </symbol>
  </defs>
  <title>2-on-premises-network</title>
  <g id="Shapes">
    <rect width="343.96" height="314.72" fill="#fff"/>
    <g>
      <rect x="199.08" y="46.49" width="145" height="140" fill="#fff"/>
      <rect x="199.08" y="46.49" width="145" height="140" fill="#3c3c41" opacity="0.15"/>
    </g>
    <g>
      <g style="isolation: isolate">
        <path d="M87.19,8.79a9.06,9.06,0,0,1,17.89-.28,6.15,6.15,0,0,1,8.69.8A6.27,6.27,0,0,1,115,11.66a5.42,5.42,0,0,1,2.58,10.52,5.2,5.2,0,0,1-1.3.16H85.93a6.93,6.93,0,0,1-5.4-6.77A6.76,6.76,0,0,1,87.19,8.79Z" fill="#fff"/>
        <path d="M87.19,8.79a9.06,9.06,0,0,1,17.89-.28,6.15,6.15,0,0,1,8.69.8A6.27,6.27,0,0,1,115,11.66a5.42,5.42,0,0,1,2.58,10.52,5.2,5.2,0,0,1-1.3.16H85.93a6.93,6.93,0,0,1-5.4-6.77A6.76,6.76,0,0,1,87.19,8.79Z" fill="#3c3c41" opacity="0.6"/>
        <path d="M87.19,8.79a9.06,9.06,0,0,1,17.89-.28,6.15,6.15,0,0,1,8.69.8A6.27,6.27,0,0,1,115,11.66a5.42,5.42,0,0,1,2.58,10.52,5.2,5.2,0,0,1-1.3.16H85.93a6.93,6.93,0,0,1-5.4-6.77A6.76,6.76,0,0,1,87.19,8.79Z" fill="none" stroke="#fff" stroke-miterlimit="10" stroke-width="2"/>
      </g>
      <g style="isolation: isolate">
        <path d="M86.14,8.79a9.06,9.06,0,0,0-17.89-.28,6.16,6.16,0,0,0-9.9,3.15,5.42,5.42,0,0,0-2.58,10.52,5.14,5.14,0,0,0,1.3.16H87.4a6.92,6.92,0,0,0,5.39-6.77A6.75,6.75,0,0,0,86.14,8.79Z" fill="#fff"/>
        <path d="M86.14,8.79a9.06,9.06,0,0,0-17.89-.28,6.16,6.16,0,0,0-9.9,3.15,5.42,5.42,0,0,0-2.58,10.52,5.14,5.14,0,0,0,1.3.16H87.4a6.92,6.92,0,0,0,5.39-6.77A6.75,6.75,0,0,0,86.14,8.79Z" fill="#3c3c41" opacity="0.6"/>
        <path d="M86.14,8.79a9.06,9.06,0,0,0-17.89-.28,6.16,6.16,0,0,0-9.9,3.15,5.42,5.42,0,0,0-2.58,10.52,5.14,5.14,0,0,0,1.3.16H87.4a6.92,6.92,0,0,0,5.39-6.77A6.75,6.75,0,0,0,86.14,8.79Z" fill="none" stroke="#fff" stroke-miterlimit="10" stroke-width="2"/>
      </g>
      <g style="isolation: isolate">
        <path d="M77.29,10.76a7.75,7.75,0,0,1,15.3-.25,5.26,5.26,0,0,1,7.43.68,5.33,5.33,0,0,1,1,2,4.63,4.63,0,0,1,2.2,9,4.56,4.56,0,0,1-1.11.14H76.22a5.92,5.92,0,0,1-4.61-5.79A5.77,5.77,0,0,1,77.29,10.76Z" fill="#fff"/>
        <path d="M77.29,10.76a7.75,7.75,0,0,1,15.3-.25,5.26,5.26,0,0,1,7.43.68,5.33,5.33,0,0,1,1,2,4.63,4.63,0,0,1,2.2,9,4.56,4.56,0,0,1-1.11.14H76.22a5.92,5.92,0,0,1-4.61-5.79A5.77,5.77,0,0,1,77.29,10.76Z" fill="#3c3c41" opacity="0.6"/>
        <path d="M77.29,10.76a7.75,7.75,0,0,1,15.3-.25,5.26,5.26,0,0,1,7.43.68,5.33,5.33,0,0,1,1,2,4.63,4.63,0,0,1,2.2,9,4.56,4.56,0,0,1-1.11.14H76.22a5.92,5.92,0,0,1-4.61-5.79A5.77,5.77,0,0,1,77.29,10.76Z" fill="none" stroke="#fff" stroke-miterlimit="10" stroke-width="2"/>
      </g>
    </g>
    <line x1="86.66" y1="38" x2="86.66" y2="54.5" fill="none" stroke="#000"/>
    <use width="49.9" height="49.9" transform="translate(67.66 55.5) scale(0.76 0.76)" xlink:href="#Azure_Firewall"/>
    <g>
      <rect x="94.82" y="114.13" width="16.28" height="16.28" transform="translate(116.61 -36.99) rotate(45)" fill="#fff"/>
      <path d="M114.83,120.26,104.3,109.73a2.38,2.38,0,0,0-3.43,0L90.34,120.26a2.38,2.38,0,0,0,0,3.43l10.58,10.58a2.36,2.36,0,0,0,1.72.73,2.44,2.44,0,0,0,1.71-.73l10.59-10.58a2.39,2.39,0,0,0,.72-1.72A3.1,3.1,0,0,0,114.83,120.26Zm-12.24-8.77,3.42,3.43h-2.39v5h-2v-5H99.16Zm-9.66,11.73v-2H97.6v-2.44l3.43,3.42-3.43,3.43v-2.39Zm9.66,9.65-3.43-3.42h2.39v-4.88h2v4.88H106Zm9.65-9.65h-4.62v2.44l-3.43-3.43,3.43-3.42v2.39h4.62Z" fill="#0072c6"/>
    </g>
    <g>
      <rect x="58.32" y="114.13" width="16.28" height="16.28" transform="translate(105.92 -11.18) rotate(45)" fill="#fff"/>
      <path d="M78.33,120.26,67.8,109.73a2.38,2.38,0,0,0-3.43,0L53.84,120.26a2.38,2.38,0,0,0,0,3.43l10.58,10.58a2.36,2.36,0,0,0,1.72.73,2.44,2.44,0,0,0,1.71-.73l10.59-10.58a2.39,2.39,0,0,0,.72-1.72A3.1,3.1,0,0,0,78.33,120.26Zm-12.24-8.77,3.42,3.43H67.12v5h-2v-5H62.66Zm-9.66,11.73v-2H61.1v-2.44l3.43,3.42-3.43,3.43v-2.39Zm9.66,9.65-3.43-3.42h2.39v-4.88h2v4.88h2.44Zm9.65-9.65H71.12v2.44l-3.43-3.43,3.43-3.42v2.39h4.62Z" fill="#0072c6"/>
    </g>
    <g>
      <path d="M94.84,295.13h19.58v11.76h-9.14v1.3h2.61v1.31h-6.53v-1.31H104v-1.3H94.84Zm2.32,15.68H112.1l2.32,3.4v.51H94.84v-.51Zm16-5.23v-9.14h-17v9.14ZM97,313.42H112.3l-.9-1.31H97.85Z" fill="#1e1e1e"/>
      <path d="M122,295.13h19.59v11.76h-9.14v1.3h2.61v1.31h-6.53v-1.31h2.61v-1.3H122Zm2.33,15.68H139.3l2.33,3.4v.51H122v-.51Zm15.95-5.23v-9.14h-17v9.14Zm-16.16,7.84h15.35l-.9-1.31H125.06Z" fill="#1e1e1e"/>
      <path d="M149.25,295.13h19.59v11.76h-9.15v1.3h2.62v1.31h-6.53v-1.31h2.61v-1.3h-9.14Zm2.32,15.68h14.94l2.33,3.4v.51H149.25v-.51Zm16-5.23v-9.14h-17v9.14Zm-16.16,7.84h15.34l-.89-1.31H152.27Z" fill="#1e1e1e"/>
    </g>
    <g>
      <path d="M0,295.13H19.59v11.76H10.45v1.3h2.61v1.31H6.53v-1.31H9.14v-1.3H0Zm2.33,15.68H17.26l2.33,3.4v.51H0v-.51Zm16-5.23v-9.14h-17v9.14ZM2.12,313.42H17.47l-.9-1.31H3Z" fill="#1e1e1e"/>
      <path d="M27.21,295.13H46.79v11.76H37.65v1.3h2.61v1.31H33.74v-1.31h2.61v-1.3H27.21Zm2.32,15.68H44.47l2.32,3.4v.51H27.21v-.51Zm16-5.23v-9.14h-17v9.14Zm-16.16,7.84H44.67l-.9-1.31H30.23Z" fill="#1e1e1e"/>
      <path d="M54.41,295.13H74v11.76H64.86v1.3h2.61v1.31H60.94v-1.31h2.61v-1.3H54.41Zm2.33,15.68H71.67l2.33,3.4v.51H54.41v-.51Zm15.95-5.23v-9.14h-17v9.14Zm-16.16,7.84H71.88l-.9-1.31H57.43Z" fill="#1e1e1e"/>
    </g>
    <g id="Router_stackable_" data-name="Router (stackable)">
      <g>
        <g>
          <path d="M49.21,156.54l-4.58-4.44H29.05l-4.57,4.44h.22a1.31,1.31,0,0,0-.22.73v6.26a1.22,1.22,0,0,0,1.18,1.25H48a1.23,1.23,0,0,0,1.19-1.25v-6.26a1.32,1.32,0,0,0-.23-.73Z" fill="#fff" stroke="#fff" stroke-linejoin="round" stroke-width="2" fill-rule="evenodd"/>
          <circle cx="33.99" cy="161.61" r="1.27" fill="none"/>
          <path d="M48,158.5H25.69c-.66,0-1.19.4-1.19.9v4.53a1.08,1.08,0,0,0,1.19.91H48a1.08,1.08,0,0,0,1.19-.91V159.4C49.23,158.9,48.7,158.5,48,158.5Zm-19.73,4.43a1.27,1.27,0,1,1,1.27-1.26A1.26,1.26,0,0,1,28.31,162.93Zm5.7,0a1.27,1.27,0,0,1,0-2.53,1.27,1.27,0,1,1,0,2.53Zm5.71,0A1.27,1.27,0,1,1,41,161.67,1.26,1.26,0,0,1,39.72,162.93Zm5.71,0a1.27,1.27,0,1,1,1.27-1.26A1.26,1.26,0,0,1,45.43,162.93Z" fill-rule="evenodd"/>
          <polygon points="44.66 152.15 29.08 152.15 24.5 156.59 49.23 156.59 44.66 152.15" fill-rule="evenodd"/>
        </g>
        <g id="lowPriority40x40">
          <polygon points="52.6 148.52 52.6 152.1 53.73 150.98 53.73 146.5 49.24 146.5 48.12 147.62 51.71 147.62 47.9 151.43 48.79 152.33 52.6 148.52" fill="none" stroke="#fff" stroke-miterlimit="10" stroke-width="2"/>
        </g>
        <g id="lowPriority40x40-2" data-name="lowPriority40x40">
          <polygon points="52.6 170.48 52.6 166.9 53.73 168.02 53.73 172.5 49.24 172.5 48.12 171.38 51.71 171.38 47.9 167.57 48.79 166.67 52.6 170.48" fill="none" stroke="#fff" stroke-miterlimit="10" stroke-width="2"/>
        </g>
        <g id="lowPriority40x40-3" data-name="lowPriority40x40">
          <polygon points="21.87 148.52 21.87 152.1 20.75 150.98 20.75 146.5 25.23 146.5 26.36 147.62 22.77 147.62 26.58 151.43 25.68 152.33 21.87 148.52" fill="none" stroke="#fff" stroke-miterlimit="10" stroke-width="2"/>
        </g>
        <g id="lowPriority40x40-4" data-name="lowPriority40x40">
          <polygon points="21.24 170.48 21.24 166.9 20.12 168.02 20.12 172.5 24.6 172.5 25.72 171.38 22.13 171.38 25.95 167.57 25.05 166.67 21.24 170.48" fill="none" stroke="#fff" stroke-miterlimit="10" stroke-width="2"/>
        </g>
        <path d="M28.36,163a1.27,1.27,0,1,1,1.27-1.27A1.27,1.27,0,0,1,28.36,163Zm5.71,0a1.27,1.27,0,1,1,1.27-1.27A1.27,1.27,0,0,1,34.07,163Zm5.7,0A1.27,1.27,0,1,1,41,161.72,1.26,1.26,0,0,1,39.77,163Zm5.71,0a1.27,1.27,0,1,1,1.27-1.27A1.27,1.27,0,0,1,45.48,163Z" fill="none"/>
        <circle cx="34.07" cy="161.72" r="1.27" fill="none"/>
        <g id="lowPriority40x40-5" data-name="lowPriority40x40">
          <polygon points="52.76 148.52 52.76 152.1 53.88 150.98 53.88 146.5 49.4 146.5 48.28 147.62 51.87 147.62 48.05 151.43 48.95 152.33 52.76 148.52"/>
        </g>
        <g id="lowPriority40x40-6" data-name="lowPriority40x40">
          <polygon points="52.76 170.48 52.76 166.9 53.88 168.02 53.88 172.5 49.4 172.5 48.28 171.38 51.87 171.38 48.05 167.57 48.95 166.67 52.76 170.48"/>
        </g>
        <g id="lowPriority40x40-7" data-name="lowPriority40x40">
          <polygon points="22.03 148.52 22.03 152.1 20.91 150.98 20.91 146.5 25.39 146.5 26.51 147.62 22.93 147.62 26.74 151.43 25.84 152.33 22.03 148.52"/>
        </g>
        <g id="lowPriority40x40-8" data-name="lowPriority40x40">
          <polygon points="21.39 170.48 21.39 166.9 20.27 168.02 20.27 172.5 24.76 172.5 25.88 171.38 22.29 171.38 26.1 167.57 25.21 166.67 21.39 170.48"/>
        </g>
      </g>
      <path d="M51.77,121.66H42.19a5,5,0,0,0-5,5V146.5" fill="none" stroke="#000" stroke-miterlimit="10"/>
      <g>
        <g>
          <path d="M144,156.54l-4.57-4.44H123.89l-4.58,4.44h.22a1.31,1.31,0,0,0-.22.73v6.26a1.22,1.22,0,0,0,1.19,1.25h22.35a1.22,1.22,0,0,0,1.19-1.25v-6.26a1.31,1.31,0,0,0-.22-.73Z" fill="#fff" stroke="#fff" stroke-linejoin="round" stroke-width="2" fill-rule="evenodd"/>
          <circle cx="128.82" cy="161.61" r="1.27" fill="none"/>
          <path d="M142.88,158.5H120.53c-.66,0-1.19.4-1.19.9v4.53a1.08,1.08,0,0,0,1.19.91h22.35a1.08,1.08,0,0,0,1.19-.91V159.4C144.07,158.9,143.54,158.5,142.88,158.5Zm-19.74,4.43a1.27,1.27,0,1,1,1.27-1.26A1.26,1.26,0,0,1,123.14,162.93Zm5.71,0a1.27,1.27,0,1,1,1.27-1.26A1.26,1.26,0,0,1,128.85,162.93Zm5.71,0a1.27,1.27,0,1,1,1.26-1.26A1.26,1.26,0,0,1,134.56,162.93Zm5.7,0a1.27,1.27,0,0,1,0-2.53,1.27,1.27,0,1,1,0,2.53Z" fill-rule="evenodd"/>
          <polygon points="139.49 152.15 123.91 152.15 119.34 156.59 144.07 156.59 139.49 152.15" fill-rule="evenodd"/>
        </g>
        <g id="lowPriority40x40-9" data-name="lowPriority40x40">
          <polygon points="147.44 148.52 147.44 152.1 148.56 150.98 148.56 146.5 144.08 146.5 142.96 147.62 146.54 147.62 142.73 151.43 143.63 152.33 147.44 148.52" fill="none" stroke="#fff" stroke-miterlimit="10" stroke-width="2"/>
        </g>
        <g id="lowPriority40x40-10" data-name="lowPriority40x40">
          <polygon points="147.44 170.48 147.44 166.9 148.56 168.02 148.56 172.5 144.08 172.5 142.96 171.38 146.54 171.38 142.73 167.57 143.63 166.67 147.44 170.48" fill="none" stroke="#fff" stroke-miterlimit="10" stroke-width="2"/>
        </g>
        <g id="lowPriority40x40-11" data-name="lowPriority40x40">
          <polygon points="116.71 148.52 116.71 152.1 115.58 150.98 115.58 146.5 120.07 146.5 121.19 147.62 117.6 147.62 121.41 151.43 120.52 152.33 116.71 148.52" fill="none" stroke="#fff" stroke-miterlimit="10" stroke-width="2"/>
        </g>
        <g id="lowPriority40x40-12" data-name="lowPriority40x40">
          <polygon points="116.07 170.48 116.07 166.9 114.95 168.02 114.95 172.5 119.44 172.5 120.56 171.38 116.97 171.38 120.78 167.57 119.88 166.67 116.07 170.48" fill="none" stroke="#fff" stroke-miterlimit="10" stroke-width="2"/>
        </g>
        <path d="M123.19,163a1.27,1.27,0,1,1,1.27-1.27A1.26,1.26,0,0,1,123.19,163Zm5.71,0a1.27,1.27,0,1,1,1.27-1.27A1.27,1.27,0,0,1,128.9,163Zm5.71,0a1.27,1.27,0,1,1,1.27-1.27A1.27,1.27,0,0,1,134.61,163Zm5.71,0a1.27,1.27,0,1,1,1.27-1.27A1.27,1.27,0,0,1,140.32,163Z" fill="none"/>
        <circle cx="128.9" cy="161.72" r="1.27" fill="none"/>
        <g id="lowPriority40x40-13" data-name="lowPriority40x40">
          <polygon points="147.6 148.52 147.6 152.1 148.72 150.98 148.72 146.5 144.24 146.5 143.11 147.62 146.7 147.62 142.89 151.43 143.79 152.33 147.6 148.52"/>
        </g>
        <g id="lowPriority40x40-14" data-name="lowPriority40x40">
          <polygon points="147.6 170.48 147.6 166.9 148.72 168.02 148.72 172.5 144.24 172.5 143.11 171.38 146.7 171.38 142.89 167.57 143.79 166.67 147.6 170.48"/>
        </g>
        <g id="lowPriority40x40-15" data-name="lowPriority40x40">
          <polygon points="116.86 148.52 116.86 152.1 115.74 150.98 115.74 146.5 120.23 146.5 121.35 147.62 117.76 147.62 121.57 151.43 120.68 152.33 116.86 148.52"/>
        </g>
        <g id="lowPriority40x40-16" data-name="lowPriority40x40">
          <polygon points="116.23 170.48 116.23 166.9 115.11 168.02 115.11 172.5 119.59 172.5 120.71 171.38 117.13 171.38 120.94 167.57 120.04 166.67 116.23 170.48"/>
        </g>
      </g>
      <g>
        <g>
          <path d="M49.21,206.54l-4.58-4.44H29.05l-4.57,4.44h.22a1.31,1.31,0,0,0-.22.73v6.26a1.22,1.22,0,0,0,1.18,1.25H48a1.23,1.23,0,0,0,1.19-1.25v-6.26a1.32,1.32,0,0,0-.23-.73Z" fill="#fff" stroke="#fff" stroke-linejoin="round" stroke-width="2" fill-rule="evenodd"/>
          <circle cx="33.99" cy="211.61" r="1.27" fill="none"/>
          <path d="M48,208.5H25.69c-.66,0-1.19.4-1.19.9v4.53a1.08,1.08,0,0,0,1.19.91H48a1.08,1.08,0,0,0,1.19-.91V209.4C49.23,208.9,48.7,208.5,48,208.5Zm-19.73,4.43a1.27,1.27,0,1,1,1.27-1.26A1.26,1.26,0,0,1,28.31,212.93Zm5.7,0a1.27,1.27,0,0,1,0-2.53,1.27,1.27,0,1,1,0,2.53Zm5.71,0A1.27,1.27,0,1,1,41,211.67,1.26,1.26,0,0,1,39.72,212.93Zm5.71,0a1.27,1.27,0,1,1,1.27-1.26A1.26,1.26,0,0,1,45.43,212.93Z" fill-rule="evenodd"/>
          <polygon points="44.66 202.15 29.08 202.15 24.5 206.59 49.23 206.59 44.66 202.15" fill-rule="evenodd"/>
        </g>
        <g id="lowPriority40x40-17" data-name="lowPriority40x40">
          <polygon points="52.6 198.52 52.6 202.1 53.73 200.98 53.73 196.5 49.24 196.5 48.12 197.62 51.71 197.62 47.9 201.43 48.79 202.33 52.6 198.52" fill="none" stroke="#fff" stroke-miterlimit="10" stroke-width="2"/>
        </g>
        <g id="lowPriority40x40-18" data-name="lowPriority40x40">
          <polygon points="52.6 220.48 52.6 216.9 53.73 218.02 53.73 222.5 49.24 222.5 48.12 221.38 51.71 221.38 47.9 217.57 48.79 216.67 52.6 220.48" fill="none" stroke="#fff" stroke-miterlimit="10" stroke-width="2"/>
        </g>
        <g id="lowPriority40x40-19" data-name="lowPriority40x40">
          <polygon points="21.87 198.52 21.87 202.1 20.75 200.98 20.75 196.5 25.23 196.5 26.36 197.62 22.77 197.62 26.58 201.43 25.68 202.33 21.87 198.52" fill="none" stroke="#fff" stroke-miterlimit="10" stroke-width="2"/>
        </g>
        <g id="lowPriority40x40-20" data-name="lowPriority40x40">
          <polygon points="21.24 220.48 21.24 216.9 20.12 218.02 20.12 222.5 24.6 222.5 25.72 221.38 22.13 221.38 25.95 217.57 25.05 216.67 21.24 220.48" fill="none" stroke="#fff" stroke-miterlimit="10" stroke-width="2"/>
        </g>
        <path d="M28.36,213a1.27,1.27,0,1,1,1.27-1.27A1.27,1.27,0,0,1,28.36,213Zm5.71,0a1.27,1.27,0,1,1,1.27-1.27A1.27,1.27,0,0,1,34.07,213Zm5.7,0A1.27,1.27,0,1,1,41,211.72,1.26,1.26,0,0,1,39.77,213Zm5.71,0a1.27,1.27,0,1,1,1.27-1.27A1.27,1.27,0,0,1,45.48,213Z" fill="none"/>
        <circle cx="34.07" cy="211.72" r="1.27" fill="none"/>
        <g id="lowPriority40x40-21" data-name="lowPriority40x40">
          <polygon points="52.76 198.52 52.76 202.1 53.88 200.98 53.88 196.5 49.4 196.5 48.28 197.62 51.87 197.62 48.05 201.43 48.95 202.33 52.76 198.52"/>
        </g>
        <g id="lowPriority40x40-22" data-name="lowPriority40x40">
          <polygon points="52.76 220.48 52.76 216.9 53.88 218.02 53.88 222.5 49.4 222.5 48.28 221.38 51.87 221.38 48.05 217.57 48.95 216.67 52.76 220.48"/>
        </g>
        <g id="lowPriority40x40-23" data-name="lowPriority40x40">
          <polygon points="22.03 198.52 22.03 202.1 20.91 200.98 20.91 196.5 25.39 196.5 26.51 197.62 22.93 197.62 26.74 201.43 25.84 202.33 22.03 198.52"/>
        </g>
        <g id="lowPriority40x40-24" data-name="lowPriority40x40">
          <polygon points="21.39 220.48 21.39 216.9 20.27 218.02 20.27 222.5 24.76 222.5 25.88 221.38 22.29 221.38 26.1 217.57 25.21 216.67 21.39 220.48"/>
        </g>
      </g>
      <g>
        <g>
          <path d="M144,206.54l-4.57-4.44H123.89l-4.58,4.44h.22a1.31,1.31,0,0,0-.22.73v6.26a1.22,1.22,0,0,0,1.19,1.25h22.35a1.22,1.22,0,0,0,1.19-1.25v-6.26a1.31,1.31,0,0,0-.22-.73Z" fill="#fff" stroke="#fff" stroke-linejoin="round" stroke-width="2" fill-rule="evenodd"/>
          <circle cx="128.82" cy="211.61" r="1.27" fill="none"/>
          <path d="M142.88,208.5H120.53c-.66,0-1.19.4-1.19.9v4.53a1.08,1.08,0,0,0,1.19.91h22.35a1.08,1.08,0,0,0,1.19-.91V209.4C144.07,208.9,143.54,208.5,142.88,208.5Zm-19.74,4.43a1.27,1.27,0,1,1,1.27-1.26A1.26,1.26,0,0,1,123.14,212.93Zm5.71,0a1.27,1.27,0,1,1,1.27-1.26A1.26,1.26,0,0,1,128.85,212.93Zm5.71,0a1.27,1.27,0,1,1,1.26-1.26A1.26,1.26,0,0,1,134.56,212.93Zm5.7,0a1.27,1.27,0,0,1,0-2.53,1.27,1.27,0,1,1,0,2.53Z" fill-rule="evenodd"/>
          <polygon points="139.49 202.15 123.91 202.15 119.34 206.59 144.07 206.59 139.49 202.15" fill-rule="evenodd"/>
        </g>
        <g id="lowPriority40x40-25" data-name="lowPriority40x40">
          <polygon points="147.44 198.52 147.44 202.1 148.56 200.98 148.56 196.5 144.08 196.5 142.96 197.62 146.54 197.62 142.73 201.43 143.63 202.33 147.44 198.52" fill="none" stroke="#fff" stroke-miterlimit="10" stroke-width="2"/>
        </g>
        <g id="lowPriority40x40-26" data-name="lowPriority40x40">
          <polygon points="147.44 220.48 147.44 216.9 148.56 218.02 148.56 222.5 144.08 222.5 142.96 221.38 146.54 221.38 142.73 217.57 143.63 216.67 147.44 220.48" fill="none" stroke="#fff" stroke-miterlimit="10" stroke-width="2"/>
        </g>
        <g id="lowPriority40x40-27" data-name="lowPriority40x40">
          <polygon points="116.71 198.52 116.71 202.1 115.58 200.98 115.58 196.5 120.07 196.5 121.19 197.62 117.6 197.62 121.41 201.43 120.52 202.33 116.71 198.52" fill="none" stroke="#fff" stroke-miterlimit="10" stroke-width="2"/>
        </g>
        <g id="lowPriority40x40-28" data-name="lowPriority40x40">
          <polygon points="116.07 220.48 116.07 216.9 114.95 218.02 114.95 222.5 119.44 222.5 120.56 221.38 116.97 221.38 120.78 217.57 119.88 216.67 116.07 220.48" fill="none" stroke="#fff" stroke-miterlimit="10" stroke-width="2"/>
        </g>
        <path d="M123.19,213a1.27,1.27,0,1,1,1.27-1.27A1.26,1.26,0,0,1,123.19,213Zm5.71,0a1.27,1.27,0,1,1,1.27-1.27A1.27,1.27,0,0,1,128.9,213Zm5.71,0a1.27,1.27,0,1,1,1.27-1.27A1.27,1.27,0,0,1,134.61,213Zm5.71,0a1.27,1.27,0,1,1,1.27-1.27A1.27,1.27,0,0,1,140.32,213Z" fill="none"/>
        <circle cx="128.9" cy="211.72" r="1.27" fill="none"/>
        <g id="lowPriority40x40-29" data-name="lowPriority40x40">
          <polygon points="147.6 198.52 147.6 202.1 148.72 200.98 148.72 196.5 144.24 196.5 143.11 197.62 146.7 197.62 142.89 201.43 143.79 202.33 147.6 198.52"/>
        </g>
        <g id="lowPriority40x40-30" data-name="lowPriority40x40">
          <polygon points="147.6 220.48 147.6 216.9 148.72 218.02 148.72 222.5 144.24 222.5 143.11 221.38 146.7 221.38 142.89 217.57 143.79 216.67 147.6 220.48"/>
        </g>
        <g id="lowPriority40x40-31" data-name="lowPriority40x40">
          <polygon points="116.86 198.52 116.86 202.1 115.74 200.98 115.74 196.5 120.23 196.5 121.35 197.62 117.76 197.62 121.57 201.43 120.68 202.33 116.86 198.52"/>
        </g>
        <g id="lowPriority40x40-32" data-name="lowPriority40x40">
          <polygon points="116.23 220.48 116.23 216.9 115.11 218.02 115.11 222.5 119.59 222.5 120.71 221.38 117.13 221.38 120.94 217.57 120.04 216.67 116.23 220.48"/>
        </g>
      </g>
      <path d="M117.7,121.66h9.58a5,5,0,0,1,5,5V146.5" fill="none" stroke="#000" stroke-miterlimit="10"/>
      <line x1="37" y1="218.81" x2="37" y2="248.35" fill="none" stroke="#000"/>
      <line x1="131.84" y1="218.81" x2="131.84" y2="248.35" fill="none" stroke="#000"/>
      <line x1="37" y1="268.26" x2="37" y2="292.44" fill="none" stroke="#000"/>
      <line x1="131.84" y1="268.26" x2="131.84" y2="292.44" fill="none" stroke="#000"/>
      <line x1="37" y1="169.6" x2="37" y2="199.15" fill="none" stroke="#000"/>
      <line x1="131.84" y1="169.6" x2="131.84" y2="199.15" fill="none" stroke="#000"/>
      <line x1="271.58" y1="96.49" x2="271.58" y2="123.92" fill="none" stroke="#000"/>
      <line x1="276.7" y1="96.49" x2="307.85" y2="123.92" fill="none" stroke="#000"/>
      <line x1="266.7" y1="96.49" x2="233.58" y2="123.92" fill="none" stroke="#000"/>
      <path d="M39.29,268.61a60.59,60.59,0,0,0,21.4,23.83" fill="none" stroke="#000" stroke-linecap="round" stroke-width="0.5"/>
      <path d="M34.36,268.61A60.64,60.64,0,0,1,13,292.44" fill="none" stroke="#000" stroke-linecap="round" stroke-width="0.5"/>
      <path d="M134.14,268.61a60.59,60.59,0,0,0,21.4,23.83" fill="none" stroke="#000" stroke-linecap="round" stroke-width="0.5"/>
      <path d="M129.21,268.61a60.64,60.64,0,0,1-21.39,23.83" fill="none" stroke="#000" stroke-linecap="round" stroke-width="0.5"/>
    </g>
    <g>
      <path d="M39.81,256.83H34.27v5.55h5.54Z" fill="#50e6ff"/>
      <path d="M47.51,249.09H43.1v1.09h2.51l-5.13,5.13.77.77,5.17-5.17v2.6h1.09v-4.42Z" fill="#0072c6"/>
      <path d="M47.49,270.08h0v-4.4H46.4v2.51l-5.13-5.13-.77.77L45.67,269H43.08v1.09h4.41Z" fill="#0072c6"/>
      <path d="M26.49,270.09H30.9V269H28.39l5.13-5.13-.77-.77-5.17,5.17v-2.6H26.49v4.42Z" fill="#0072c6"/>
      <path d="M26.51,249.09h0v4.41H27.6V251l5.13,5.13.77-.77-5.17-5.17h2.6v-1.09Z" fill="#0072c6"/>
    </g>
    <g>
      <path d="M134.64,256.83H129.1v5.55h5.54Z" fill="#50e6ff"/>
      <path d="M142.34,249.09h-4.4v1.09h2.51l-5.14,5.13.77.77,5.17-5.17v2.6h1.09v-4.42Z" fill="#0072c6"/>
      <path d="M142.32,270.08h0v-4.4h-1.09v2.51l-5.14-5.13-.77.77L140.5,269h-2.59v1.09h4.41Z" fill="#0072c6"/>
      <path d="M121.33,270.09h4.41V269h-2.52l5.14-5.13-.77-.77-5.17,5.17v-2.6h-1.09v4.42Z" fill="#0072c6"/>
      <path d="M121.35,249.09h0v4.41h1.09V251l5.14,5.13.77-.77-5.17-5.17h2.59v-1.09Z" fill="#0072c6"/>
    </g>
    <g>
      <path d="M274.39,78.23h-5.54v5.55h5.54Z" fill="#50e6ff"/>
      <path d="M282.09,70.49h-4.41v1.09h2.52l-5.14,5.13.77.77L281,72.31v2.6h1.09V70.49Z" fill="#0072c6"/>
      <path d="M282.07,91.48h0v-4.4H281v2.51l-5.13-5.13-.77.77,5.17,5.17h-2.59v1.09h4.41Z" fill="#0072c6"/>
      <path d="M261.08,91.49h4.41V90.4H263l5.13-5.13-.77-.77-5.17,5.17v-2.6h-1.09v4.42Z" fill="#0072c6"/>
      <path d="M261.1,70.49h0V74.9h1.09V72.39l5.14,5.13.77-.77-5.17-5.17h2.59V70.49Z" fill="#0072c6"/>
    </g>
    <line x1="71.66" y1="94.5" x2="71.66" y2="109.5" fill="none" stroke="#000"/>
    <line x1="96.66" y1="94.5" x2="96.66" y2="109.5" fill="none" stroke="#000"/>
    <line x1="80.43" y1="121.45" x2="88.46" y2="121.45" fill="none" stroke="#000"/>
    <line x1="51.36" y1="160.45" x2="117.7" y2="160.45" fill="none" stroke="#000"/>
    <line x1="107.15" y1="71.42" x2="198.96" y2="71.42" fill="none" stroke="#000"/>
    <line x1="51.36" y1="210.35" x2="117.7" y2="210.35" fill="none" stroke="#000"/>
    <line x1="51.36" y1="259.68" x2="117.7" y2="259.68" fill="none" stroke="#000"/>
    <path d="M40.69,218.81c22.22,18.22,48.92,30.28,76,36.41" fill="none" stroke="#1e1e1e" stroke-linecap="round" stroke-linejoin="round" stroke-width="0.5"/>
    <path d="M127.6,218.81c-22.22,18.22-48.92,30.28-76,36.41" fill="none" stroke="#1e1e1e" stroke-linecap="round" stroke-linejoin="round" stroke-width="0.5"/>
    <path d="M40.69,169.6c22.22,18.22,48.92,30.28,76,36.41" fill="none" stroke="#1e1e1e" stroke-linecap="round" stroke-linejoin="round" stroke-width="0.5"/>
    <path d="M127.6,169.6c-22.22,18.22-48.92,30.28-76,36.41" fill="none" stroke="#1e1e1e" stroke-linecap="round" stroke-linejoin="round" stroke-width="0.5"/>
    <path d="M71.2,135c9.23,7.66,29.9,19.37,45.46,21.79" fill="none" stroke="#1e1e1e" stroke-linecap="round" stroke-linejoin="round" stroke-width="0.5"/>
    <path d="M98.47,135c-9.23,7.66-29.9,19.37-45.47,21.79" fill="none" stroke="#1e1e1e" stroke-linecap="round" stroke-linejoin="round" stroke-width="0.5"/>
    <g>
      <path d="M277.74,146.64a1,1,0,0,1-1.05,1.05H266.48a1,1,0,0,1-1.05-1.05v-18.9a1,1,0,0,1,1.05-1h10.21a1,1,0,0,1,1.05,1Z" fill="#3e3e3e"/>
      <path d="M267.19,138a1.33,1.33,0,0,1,1.35-1.35h6.13A1.32,1.32,0,0,1,276,138h0a1.32,1.32,0,0,1-1.34,1.34h-6.13a1.36,1.36,0,0,1-1.35-1.34Z" fill="#1e1e1e"/>
      <circle cx="268.62" cy="138.03" r="0.88" fill="#b8d432"/>
      <path d="M267.19,134a1.33,1.33,0,0,1,1.35-1.35h6.13A1.32,1.32,0,0,1,276,134h0a1.32,1.32,0,0,1-1.34,1.34h-6.13a1.36,1.36,0,0,1-1.35-1.34Z" fill="#1e1e1e"/>
      <circle cx="268.62" cy="134.04" r="0.88" fill="#b8d432"/>
      <path d="M267.19,130.09a1.32,1.32,0,0,1,1.35-1.34h6.13a1.32,1.32,0,0,1,1.34,1.34h0a1.32,1.32,0,0,1-1.34,1.34h-6.13a1.38,1.38,0,0,1-1.35-1.34Z" fill="#1e1e1e"/>
      <circle cx="268.62" cy="130.09" r="0.88" fill="#b8d432"/>
    </g>
    <g>
      <path d="M314,146.64a1,1,0,0,1-1.05,1.05H302.75a1,1,0,0,1-1.05-1.05v-18.9a1,1,0,0,1,1.05-1H313a1,1,0,0,1,1.05,1Z" fill="#3e3e3e"/>
      <path d="M303.46,138a1.33,1.33,0,0,1,1.35-1.35h6.13a1.32,1.32,0,0,1,1.34,1.35h0a1.32,1.32,0,0,1-1.34,1.34h-6.13a1.36,1.36,0,0,1-1.35-1.34Z" fill="#1e1e1e"/>
      <circle cx="304.89" cy="138.03" r="0.88" fill="#b8d432"/>
      <path d="M303.46,134a1.33,1.33,0,0,1,1.35-1.35h6.13a1.32,1.32,0,0,1,1.34,1.35h0a1.32,1.32,0,0,1-1.34,1.34h-6.13a1.36,1.36,0,0,1-1.35-1.34Z" fill="#1e1e1e"/>
      <circle cx="304.89" cy="134.04" r="0.88" fill="#b8d432"/>
      <path d="M303.46,130.09a1.32,1.32,0,0,1,1.35-1.34h6.13a1.32,1.32,0,0,1,1.34,1.34h0a1.32,1.32,0,0,1-1.34,1.34h-6.13a1.38,1.38,0,0,1-1.35-1.34Z" fill="#1e1e1e"/>
      <circle cx="304.89" cy="130.09" r="0.88" fill="#b8d432"/>
    </g>
    <g>
      <path d="M239.73,146.64a1,1,0,0,1-1,1.05h-10.2a1,1,0,0,1-1-1.05v-18.9a1,1,0,0,1,1-1h10.2a1,1,0,0,1,1,1Z" fill="#3e3e3e"/>
      <path d="M229.19,138a1.33,1.33,0,0,1,1.35-1.35h6.13A1.33,1.33,0,0,1,238,138h0a1.33,1.33,0,0,1-1.34,1.34h-6.13a1.36,1.36,0,0,1-1.35-1.34Z" fill="#1e1e1e"/>
      <circle cx="230.62" cy="138.03" r="0.88" fill="#b8d432"/>
      <path d="M229.19,134a1.33,1.33,0,0,1,1.35-1.35h6.13A1.33,1.33,0,0,1,238,134h0a1.33,1.33,0,0,1-1.34,1.34h-6.13a1.36,1.36,0,0,1-1.35-1.34Z" fill="#1e1e1e"/>
      <circle cx="230.62" cy="134.04" r="0.88" fill="#b8d432"/>
      <path d="M229.19,130.09a1.32,1.32,0,0,1,1.35-1.34h6.13a1.32,1.32,0,0,1,1.34,1.34h0a1.32,1.32,0,0,1-1.34,1.34h-6.13a1.38,1.38,0,0,1-1.35-1.34Z" fill="#1e1e1e"/>
      <circle cx="230.62" cy="130.09" r="0.88" fill="#b8d432"/>
    </g>
  </g>
  <g id="Text">
    <g>
      <path d="M57.62,35.15h-1v-8.4h1Z"/>
      <path d="M64.55,35.15h-1V31.73c0-1.28-.47-1.91-1.4-1.91a1.52,1.52,0,0,0-1.19.54,2,2,0,0,0-.47,1.37v3.42h-1v-6h1v1h0a2.17,2.17,0,0,1,2-1.14,1.85,1.85,0,0,1,1.51.63,2.84,2.84,0,0,1,.52,1.84Z"/>
      <path d="M69,35.09a1.76,1.76,0,0,1-.89.19c-1.06,0-1.58-.59-1.58-1.76V30h-1v-.82h1V27.68l1-.31v1.78H69V30H67.53v3.38a1.37,1.37,0,0,0,.21.86.8.8,0,0,0,.67.26,1,1,0,0,0,.63-.2Z"/>
      <path d="M75,32.39H70.81a2.21,2.21,0,0,0,.54,1.55,1.85,1.85,0,0,0,1.42.54,2.93,2.93,0,0,0,1.86-.67v.91a3.52,3.52,0,0,1-2.09.57,2.52,2.52,0,0,1-2-.82,3.31,3.31,0,0,1-.73-2.3,3.29,3.29,0,0,1,.8-2.28,2.53,2.53,0,0,1,2-.88,2.25,2.25,0,0,1,1.82.76A3.18,3.18,0,0,1,75,31.89Zm-1-.82a2,2,0,0,0-.4-1.29,1.36,1.36,0,0,0-1.1-.46,1.55,1.55,0,0,0-1.15.48,2.19,2.19,0,0,0-.59,1.27Z"/>
      <path d="M79.63,30.12a1.18,1.18,0,0,0-.73-.19,1.23,1.23,0,0,0-1,.58,2.72,2.72,0,0,0-.41,1.58v3.06h-1v-6h1v1.24h0a2.07,2.07,0,0,1,.63-1,1.4,1.4,0,0,1,.94-.36,1.5,1.5,0,0,1,.58.09Z"/>
      <path d="M85.68,35.15h-1V31.73c0-1.28-.46-1.91-1.39-1.91a1.54,1.54,0,0,0-1.2.54,2,2,0,0,0-.47,1.37v3.42h-1v-6h1v1h0a2.15,2.15,0,0,1,2-1.14,1.85,1.85,0,0,1,1.51.63,2.84,2.84,0,0,1,.52,1.84Z"/>
      <path d="M92.29,32.39H88.06a2.21,2.21,0,0,0,.54,1.55,1.85,1.85,0,0,0,1.41.54,2.94,2.94,0,0,0,1.87-.67v.91a3.52,3.52,0,0,1-2.09.57,2.52,2.52,0,0,1-2-.82,3.31,3.31,0,0,1-.73-2.3,3.29,3.29,0,0,1,.8-2.28,2.51,2.51,0,0,1,2-.88,2.25,2.25,0,0,1,1.82.76,3.18,3.18,0,0,1,.64,2.12Zm-1-.82a2,2,0,0,0-.4-1.29,1.37,1.37,0,0,0-1.1-.46,1.55,1.55,0,0,0-1.15.48,2.19,2.19,0,0,0-.59,1.27Z"/>
      <path d="M96.52,35.09a1.76,1.76,0,0,1-.89.19c-1,0-1.58-.59-1.58-1.76V30H93v-.82h1V27.68l1-.31v1.78h1.51V30H95v3.38a1.37,1.37,0,0,0,.21.86.81.81,0,0,0,.68.26,1,1,0,0,0,.62-.2Z"/>
      <path d="M101.81,26.75l-4,9.79h-.89l4-9.79Z"/>
      <path d="M103.85,35.15h-1v-8.4h1Z"/>
      <path d="M105.58,34.81V33.65a2.23,2.23,0,0,0,.48.32,3.69,3.69,0,0,0,.58.23,3.5,3.5,0,0,0,.62.15,3,3,0,0,0,.57,0,2.29,2.29,0,0,0,1.36-.33,1.15,1.15,0,0,0,.45-1,1.1,1.1,0,0,0-.15-.59,1.76,1.76,0,0,0-.41-.46,3.79,3.79,0,0,0-.63-.4l-.77-.4c-.3-.15-.57-.3-.82-.45a3.57,3.57,0,0,1-.67-.51,2.26,2.26,0,0,1-.44-.62,2.15,2.15,0,0,1,.09-1.82,2.21,2.21,0,0,1,.66-.7,3.19,3.19,0,0,1,.94-.41,5.22,5.22,0,0,1,2.88.16V28a3.31,3.31,0,0,0-1.91-.51,3.57,3.57,0,0,0-.65.06,2,2,0,0,0-.57.22,1.31,1.31,0,0,0-.41.4,1,1,0,0,0-.16.58,1.22,1.22,0,0,0,.12.56,1.31,1.31,0,0,0,.36.43,3,3,0,0,0,.57.37c.22.12.48.26.77.4s.59.3.86.47a3.9,3.9,0,0,1,.71.54,2.42,2.42,0,0,1,.48.67,1.84,1.84,0,0,1,.18.83,2.14,2.14,0,0,1-.24,1,2,2,0,0,1-.66.7,2.8,2.8,0,0,1-1,.39,5.24,5.24,0,0,1-1.14.12l-.49,0c-.2,0-.4-.06-.6-.1A5.47,5.47,0,0,1,106,35,1.93,1.93,0,0,1,105.58,34.81Z"/>
      <path d="M113.16,32v3.18h-1v-8.4h2.31a3.08,3.08,0,0,1,2.09.65,2.33,2.33,0,0,1,.74,1.85,2.54,2.54,0,0,1-.82,2,3.13,3.13,0,0,1-2.22.76Zm0-4.33v3.44h1a2.32,2.32,0,0,0,1.56-.46,1.67,1.67,0,0,0,.53-1.32c0-1.11-.65-1.66-2-1.66Z"/>
    </g>
    <g>
      <path d="M160.78,161.31a4.92,4.92,0,0,1-2.32.5,3.74,3.74,0,0,1-2.87-1.16,4.26,4.26,0,0,1-1.08-3,4.43,4.43,0,0,1,1.21-3.25,4.13,4.13,0,0,1,3.08-1.25,4.91,4.91,0,0,1,2,.35v1.05a4,4,0,0,0-2-.51,3.08,3.08,0,0,0-2.35,1,3.65,3.65,0,0,0-.9,2.58,3.47,3.47,0,0,0,.84,2.45,2.86,2.86,0,0,0,2.21.91,4.2,4.2,0,0,0,2.19-.56Z" fill="#1e1e1e"/>
      <path d="M164.69,161.81a2.79,2.79,0,0,1-2.13-.84,3.12,3.12,0,0,1-.79-2.23,3.23,3.23,0,0,1,.83-2.36,3,3,0,0,1,2.23-.85,2.68,2.68,0,0,1,2.09.82,3.25,3.25,0,0,1,.76,2.29,3.18,3.18,0,0,1-.82,2.3A2.82,2.82,0,0,1,164.69,161.81Zm.07-5.48a1.84,1.84,0,0,0-1.47.63,2.59,2.59,0,0,0-.54,1.74,2.46,2.46,0,0,0,.55,1.68,1.85,1.85,0,0,0,1.46.62,1.75,1.75,0,0,0,1.43-.6,2.67,2.67,0,0,0,.5-1.72,2.71,2.71,0,0,0-.5-1.74A1.76,1.76,0,0,0,164.76,156.33Z" fill="#1e1e1e"/>
      <path d="M172.29,156.64a1.18,1.18,0,0,0-.73-.19,1.23,1.23,0,0,0-1,.58,2.7,2.7,0,0,0-.41,1.58v3.06h-1v-6h1v1.23h0a2.09,2.09,0,0,1,.63-1,1.4,1.4,0,0,1,.94-.36,1.75,1.75,0,0,1,.58.08Z" fill="#1e1e1e"/>
      <path d="M178.16,158.91h-4.23a2.18,2.18,0,0,0,.54,1.54,1.82,1.82,0,0,0,1.42.55,2.93,2.93,0,0,0,1.86-.67v.9a3.45,3.45,0,0,1-2.09.58,2.55,2.55,0,0,1-2-.82,3.33,3.33,0,0,1-.73-2.3,3.29,3.29,0,0,1,.8-2.28,2.53,2.53,0,0,1,2-.88,2.25,2.25,0,0,1,1.82.76,3.17,3.17,0,0,1,.64,2.11Zm-1-.82a2,2,0,0,0-.4-1.29,1.36,1.36,0,0,0-1.1-.47,1.56,1.56,0,0,0-1.15.49,2.19,2.19,0,0,0-.59,1.27Z" fill="#1e1e1e"/>
    </g>
    <g>
      <path d="M161.56,263h-1.09l-.89-2.35H156l-.84,2.35h-1.09l3.22-8.4h1Zm-2.3-3.24-1.32-3.58a4.87,4.87,0,0,1-.13-.56h0a3.36,3.36,0,0,1-.13.56l-1.31,3.58Z" fill="#1e1e1e"/>
      <path d="M166.63,262.77a3.17,3.17,0,0,1-1.64.41,2.75,2.75,0,0,1-2.07-.83,3.06,3.06,0,0,1-.79-2.17,3.35,3.35,0,0,1,.85-2.38,3,3,0,0,1,2.27-.9,3.2,3.2,0,0,1,1.39.29v1a2.44,2.44,0,0,0-1.42-.47,1.92,1.92,0,0,0-1.51.66,2.46,2.46,0,0,0-.59,1.73,2.36,2.36,0,0,0,.55,1.66,1.91,1.91,0,0,0,1.49.61,2.38,2.38,0,0,0,1.47-.52Z" fill="#1e1e1e"/>
      <path d="M172,262.77a3.19,3.19,0,0,1-1.64.41,2.72,2.72,0,0,1-2.07-.83,3,3,0,0,1-.79-2.17,3.3,3.3,0,0,1,.85-2.38,3,3,0,0,1,2.27-.9,3.23,3.23,0,0,1,1.39.29v1a2.47,2.47,0,0,0-1.43-.47,1.93,1.93,0,0,0-1.51.66,2.5,2.5,0,0,0-.59,1.73,2.36,2.36,0,0,0,.56,1.66,1.89,1.89,0,0,0,1.48.61,2.41,2.41,0,0,0,1.48-.52Z" fill="#1e1e1e"/>
      <path d="M178.19,260.28H174a2.21,2.21,0,0,0,.54,1.55,1.85,1.85,0,0,0,1.41.54,3,3,0,0,0,1.87-.66v.9a3.52,3.52,0,0,1-2.09.57,2.52,2.52,0,0,1-2-.82,3.81,3.81,0,0,1,.07-4.58,2.51,2.51,0,0,1,2-.88,2.25,2.25,0,0,1,1.82.76,3.19,3.19,0,0,1,.64,2.12Zm-1-.81a2,2,0,0,0-.4-1.3,1.37,1.37,0,0,0-1.1-.46,1.52,1.52,0,0,0-1.15.49,2.13,2.13,0,0,0-.59,1.27Z" fill="#1e1e1e"/>
      <path d="M179.27,262.82v-1a2.82,2.82,0,0,0,1.73.58q1.26,0,1.26-.84a.68.68,0,0,0-.11-.41,1,1,0,0,0-.29-.29,2.19,2.19,0,0,0-.43-.24l-.54-.21a5.79,5.79,0,0,1-.7-.32,2.22,2.22,0,0,1-.5-.36,1.38,1.38,0,0,1-.31-.46,1.59,1.59,0,0,1-.1-.61,1.38,1.38,0,0,1,.19-.74,1.7,1.7,0,0,1,.52-.55,2.71,2.71,0,0,1,.73-.33,3.49,3.49,0,0,1,.86-.11,3.41,3.41,0,0,1,1.39.27v1a2.7,2.7,0,0,0-1.52-.43,1.88,1.88,0,0,0-.49.06,1.26,1.26,0,0,0-.37.17,1,1,0,0,0-.24.27.67.67,0,0,0-.09.34.82.82,0,0,0,.09.4,1.07,1.07,0,0,0,.25.28,2.11,2.11,0,0,0,.4.22l.53.22a6,6,0,0,1,.71.31,2.3,2.3,0,0,1,.54.36,1.45,1.45,0,0,1,.35.47,1.48,1.48,0,0,1,.12.63,1.5,1.5,0,0,1-.2.77,1.68,1.68,0,0,1-.52.54,2.28,2.28,0,0,1-.76.33,3.76,3.76,0,0,1-.9.1A3.37,3.37,0,0,1,179.27,262.82Z" fill="#1e1e1e"/>
      <path d="M184.36,262.82v-1a2.82,2.82,0,0,0,1.73.58q1.26,0,1.26-.84a.76.76,0,0,0-.1-.41,1,1,0,0,0-.3-.29,2.19,2.19,0,0,0-.43-.24l-.54-.21a5.79,5.79,0,0,1-.7-.32,2.22,2.22,0,0,1-.5-.36,1.38,1.38,0,0,1-.31-.46,1.81,1.81,0,0,1-.1-.61,1.48,1.48,0,0,1,.19-.74,1.82,1.82,0,0,1,.52-.55,2.77,2.77,0,0,1,.74-.33,3.56,3.56,0,0,1,2.24.16v1a2.7,2.7,0,0,0-1.52-.43,1.88,1.88,0,0,0-.49.06,1.26,1.26,0,0,0-.37.17,1,1,0,0,0-.24.27.66.66,0,0,0-.08.34.82.82,0,0,0,.08.4,1.07,1.07,0,0,0,.25.28,2.11,2.11,0,0,0,.4.22l.53.22a6.21,6.21,0,0,1,.72.31,2.82,2.82,0,0,1,.54.36,1.57,1.57,0,0,1,.34.47,1.48,1.48,0,0,1,.12.63,1.5,1.5,0,0,1-.2.77,1.58,1.58,0,0,1-.52.54,2.28,2.28,0,0,1-.76.33,3.68,3.68,0,0,1-.89.1A3.39,3.39,0,0,1,184.36,262.82Z" fill="#1e1e1e"/>
    </g>
    <g>
      <path d="M259.75,64.49v-8.4h2.32q4.44,0,4.44,4.09a4.14,4.14,0,0,1-1.23,3.13,4.55,4.55,0,0,1-3.3,1.18Zm1-7.51V63.6H262a3.55,3.55,0,0,0,2.57-.89,3.31,3.31,0,0,0,.92-2.5c0-2.16-1.14-3.23-3.43-3.23Z" fill="#1e1e1e"/>
      <path d="M276.67,64.49h-1V58.85c0-.44,0-1,.08-1.63h0a4.19,4.19,0,0,1-.25.81l-2.87,6.46h-.48l-2.86-6.41a4.54,4.54,0,0,1-.26-.86h0c0,.33.05.88.05,1.64v5.63h-.95v-8.4h1.3L272,62a7.5,7.5,0,0,1,.38,1h0c.17-.46.3-.8.4-1l2.63-5.83h1.23Z" fill="#1e1e1e"/>
      <path d="M284.26,56.32l-4.92,7.28h4.8v.89h-6.27v-.28L282.75,57h-4.49v-.89h6Z" fill="#1e1e1e"/>
    </g>
    <g>
      <path d="M155.06,213v-8.4h2.32q4.44,0,4.44,4.09a4.14,4.14,0,0,1-1.23,3.13,4.6,4.6,0,0,1-3.3,1.18Zm1-7.51v6.62h1.26a3.55,3.55,0,0,0,2.57-.89,3.32,3.32,0,0,0,.92-2.51q0-3.22-3.43-3.22Z" fill="#1e1e1e"/>
      <path d="M163.79,205.46a.6.6,0,0,1-.44-.17.61.61,0,0,1-.18-.45.57.57,0,0,1,.18-.44.6.6,0,0,1,.44-.18.61.61,0,0,1,.45.18.58.58,0,0,1,.19.44.6.6,0,0,1-.19.44A.61.61,0,0,1,163.79,205.46Zm.47,7.53h-1v-6h1Z" fill="#1e1e1e"/>
      <path d="M165.74,212.77v-1a2.84,2.84,0,0,0,1.73.58c.84,0,1.27-.28,1.27-.84a.76.76,0,0,0-.11-.41,1.07,1.07,0,0,0-.3-.3,2.44,2.44,0,0,0-.43-.23l-.53-.21c-.27-.11-.5-.21-.71-.32a2.47,2.47,0,0,1-.5-.36,1.35,1.35,0,0,1-.3-.46,1.66,1.66,0,0,1-.11-.61,1.45,1.45,0,0,1,.2-.75,1.87,1.87,0,0,1,.51-.54,2.26,2.26,0,0,1,.74-.33,3,3,0,0,1,.85-.11,3.46,3.46,0,0,1,1.4.27v1a2.74,2.74,0,0,0-1.53-.43,1.75,1.75,0,0,0-.48.06,1.33,1.33,0,0,0-.38.17.78.78,0,0,0-.24.27.74.74,0,0,0-.08.34.87.87,0,0,0,.08.39.83.83,0,0,0,.25.28,1.68,1.68,0,0,0,.4.23l.53.21a6.17,6.17,0,0,1,.72.32,2.12,2.12,0,0,1,.54.36,1.32,1.32,0,0,1,.34.47,1.46,1.46,0,0,1,.12.62,1.42,1.42,0,0,1-.2.78,1.67,1.67,0,0,1-.52.54,2.26,2.26,0,0,1-.76.32,3.68,3.68,0,0,1-.89.11A3.41,3.41,0,0,1,165.74,212.77Z" fill="#1e1e1e"/>
      <path d="M174,212.93a1.94,1.94,0,0,1-.9.19c-1,0-1.58-.59-1.58-1.76v-3.55h-1V207h1v-1.47l1-.31V207H174v.82h-1.52v3.38a1.37,1.37,0,0,0,.21.86.83.83,0,0,0,.68.26,1.05,1.05,0,0,0,.63-.2Z" fill="#1e1e1e"/>
      <path d="M178.35,208a1.18,1.18,0,0,0-.73-.19,1.23,1.23,0,0,0-1,.58,2.7,2.7,0,0,0-.41,1.58V213h-1v-6h1v1.23h0a2.09,2.09,0,0,1,.63-1,1.42,1.42,0,0,1,.94-.36,1.71,1.71,0,0,1,.58.08Z" fill="#1e1e1e"/>
      <path d="M179.91,205.46a.57.57,0,0,1-.43-.17.58.58,0,0,1-.19-.45.55.55,0,0,1,.19-.44.58.58,0,0,1,.43-.18.61.61,0,0,1,.45.18.55.55,0,0,1,.19.44.56.56,0,0,1-.19.44A.61.61,0,0,1,179.91,205.46Zm.47,7.53h-1v-6h1Z" fill="#1e1e1e"/>
      <path d="M183.19,212.12h0V213h-1v-8.88h1V208h0a2.3,2.3,0,0,1,2.08-1.19,2.23,2.23,0,0,1,1.81.8,3.37,3.37,0,0,1,.65,2.16,3.69,3.69,0,0,1-.73,2.41,2.44,2.44,0,0,1-2,.91A2,2,0,0,1,183.19,212.12Zm0-2.42v.84a1.79,1.79,0,0,0,.48,1.26,1.73,1.73,0,0,0,2.6-.15,3,3,0,0,0,.5-1.86,2.43,2.43,0,0,0-.47-1.57,1.54,1.54,0,0,0-1.25-.56,1.7,1.7,0,0,0-1.35.58A2.13,2.13,0,0,0,183.17,209.7Z" fill="#1e1e1e"/>
      <path d="M194.09,213h-1v-1h0a2,2,0,0,1-1.86,1.09c-1.43,0-2.14-.85-2.14-2.56V207h.95v3.43c0,1.27.49,1.9,1.46,1.9a1.44,1.44,0,0,0,1.15-.52,2,2,0,0,0,.46-1.36V207h1Z" fill="#1e1e1e"/>
      <path d="M198.76,212.93a1.87,1.87,0,0,1-.89.19c-1.05,0-1.58-.59-1.58-1.76v-3.55h-1V207h1v-1.47l1-.31V207h1.51v.82h-1.51v3.38a1.37,1.37,0,0,0,.21.86.81.81,0,0,0,.68.26,1,1,0,0,0,.62-.2Z" fill="#1e1e1e"/>
      <path d="M200.45,205.46a.6.6,0,0,1-.44-.17.61.61,0,0,1-.18-.45.57.57,0,0,1,.18-.44.6.6,0,0,1,.44-.18.63.63,0,0,1,.45.18.57.57,0,0,1,.18.44.59.59,0,0,1-.18.44A.63.63,0,0,1,200.45,205.46Zm.47,7.53h-1v-6h1Z" fill="#1e1e1e"/>
      <path d="M205.29,213.13a2.79,2.79,0,0,1-2.12-.84,3.12,3.12,0,0,1-.79-2.23,3.23,3.23,0,0,1,.82-2.36,3,3,0,0,1,2.24-.85,2.68,2.68,0,0,1,2.09.82,3.29,3.29,0,0,1,.75,2.29,3.21,3.21,0,0,1-.81,2.3A2.84,2.84,0,0,1,205.29,213.13Zm.08-5.47a1.84,1.84,0,0,0-1.47.63,2.56,2.56,0,0,0-.54,1.73,2.41,2.41,0,0,0,.55,1.68,1.85,1.85,0,0,0,1.46.62,1.77,1.77,0,0,0,1.43-.6,3.23,3.23,0,0,0,0-3.45A1.74,1.74,0,0,0,205.37,207.66Z" fill="#1e1e1e"/>
      <path d="M214.74,213h-1v-3.42c0-1.28-.46-1.91-1.39-1.91a1.5,1.5,0,0,0-1.19.54,2,2,0,0,0-.47,1.37V213h-1v-6h1v1h0a2.17,2.17,0,0,1,2-1.13,1.83,1.83,0,0,1,1.5.63,2.84,2.84,0,0,1,.52,1.84Z" fill="#1e1e1e"/>
    </g>
    <g>
      <path d="M270.05,162.52h-1v-5.63c0-.45,0-1,.08-1.64h0a5.64,5.64,0,0,1-.25.82L266,162.52h-.48l-2.87-6.41a4.44,4.44,0,0,1-.25-.86h0c0,.34,0,.89,0,1.65v5.62h-.95v-8.4h1.3l2.58,5.86a7.92,7.92,0,0,1,.39,1h0c.17-.46.31-.81.41-1l2.63-5.84h1.23Z" fill="#1e1e1e"/>
      <path d="M276.33,162.52h-1v-.93h0a2,2,0,0,1-1.85,1.07,1.93,1.93,0,0,1-1.4-.47,1.65,1.65,0,0,1-.51-1.26c0-1.12.66-1.77,2-2l1.8-.25c0-1-.41-1.53-1.24-1.53a3,3,0,0,0-1.95.74v-1a3.73,3.73,0,0,1,2-.56c1.41,0,2.12.75,2.12,2.24Zm-1-3-1.45.2a2.35,2.35,0,0,0-1,.33,1,1,0,0,0-.34.84.93.93,0,0,0,.32.72,1.22,1.22,0,0,0,.83.28,1.52,1.52,0,0,0,1.18-.51,1.77,1.77,0,0,0,.47-1.26Z" fill="#1e1e1e"/>
      <path d="M278.55,155a.6.6,0,0,1-.44-.18.57.57,0,0,1-.18-.44.61.61,0,0,1,.18-.45.6.6,0,0,1,.44-.18.63.63,0,0,1,.45.18.61.61,0,0,1,.18.45.6.6,0,0,1-.18.44A.63.63,0,0,1,278.55,155Zm.47,7.52h-1v-6h1Z" fill="#1e1e1e"/>
      <path d="M281.81,162.52h-1v-8.88h1Z" fill="#1e1e1e"/>
      <path d="M255.63,176.58v-1.16a2.36,2.36,0,0,0,.48.32,5.19,5.19,0,0,0,.59.24,6.23,6.23,0,0,0,.62.15,3.88,3.88,0,0,0,.57.05,2.22,2.22,0,0,0,1.36-.34,1.13,1.13,0,0,0,.44-1,1.25,1.25,0,0,0-.14-.59,1.64,1.64,0,0,0-.42-.46,3.91,3.91,0,0,0-.62-.4l-.78-.4-.82-.45a3.81,3.81,0,0,1-.66-.5,2.05,2.05,0,0,1-.44-.63,2.13,2.13,0,0,1,.09-1.81,2.24,2.24,0,0,1,.66-.71,3,3,0,0,1,.93-.41,4.29,4.29,0,0,1,1.07-.13,4,4,0,0,1,1.81.3v1.11a3.22,3.22,0,0,0-1.91-.52,2.79,2.79,0,0,0-.64.07,1.62,1.62,0,0,0-.57.22,1.18,1.18,0,0,0-.41.39,1,1,0,0,0-.16.59,1.18,1.18,0,0,0,.12.55,1.41,1.41,0,0,0,.35.43,4.69,4.69,0,0,0,.57.38l.78.39c.3.15.59.31.85.47a4,4,0,0,1,.71.55,2.36,2.36,0,0,1,.49.66,1.84,1.84,0,0,1,.18.83,2.09,2.09,0,0,1-.25,1,2,2,0,0,1-.65.7,2.94,2.94,0,0,1-1,.39,5.09,5.09,0,0,1-1.13.12l-.49,0-.6-.09a4.45,4.45,0,0,1-.58-.15A2,2,0,0,1,255.63,176.58Z" fill="#1e1e1e"/>
      <path d="M267.06,174.16h-4.23a2.19,2.19,0,0,0,.54,1.55,1.85,1.85,0,0,0,1.41.54,3,3,0,0,0,1.87-.66v.9a3.52,3.52,0,0,1-2.09.57,2.54,2.54,0,0,1-2-.81,3.85,3.85,0,0,1,.06-4.59,2.58,2.58,0,0,1,2-.88,2.28,2.28,0,0,1,1.82.76,3.19,3.19,0,0,1,.64,2.12Zm-1-.81a2,2,0,0,0-.4-1.3,1.4,1.4,0,0,0-1.1-.46,1.56,1.56,0,0,0-1.16.49,2.21,2.21,0,0,0-.58,1.27Z" fill="#1e1e1e"/>
      <path d="M271.64,171.9a1.14,1.14,0,0,0-.72-.2,1.25,1.25,0,0,0-1,.58,2.67,2.67,0,0,0-.41,1.58v3.06h-1v-6h1v1.24h0a2.17,2.17,0,0,1,.63-1,1.61,1.61,0,0,1,1.51-.27Z" fill="#1e1e1e"/>
      <path d="M277.89,170.92l-2.39,6h-.95l-2.27-6h1.05l1.53,4.36a4.27,4.27,0,0,1,.21.84h0a3.7,3.7,0,0,1,.19-.81l1.59-4.39Z" fill="#1e1e1e"/>
      <path d="M283.59,174.16h-4.24a2.28,2.28,0,0,0,.54,1.55,1.87,1.87,0,0,0,1.42.54,3,3,0,0,0,1.86-.66v.9a3.5,3.5,0,0,1-2.09.57,2.56,2.56,0,0,1-2-.81,3.39,3.39,0,0,1-.72-2.3,3.29,3.29,0,0,1,.79-2.29,2.58,2.58,0,0,1,2-.88,2.27,2.27,0,0,1,1.82.76,3.2,3.2,0,0,1,.65,2.12Zm-1-.81a1.91,1.91,0,0,0-.4-1.3,1.39,1.39,0,0,0-1.1-.46,1.54,1.54,0,0,0-1.15.49,2.22,2.22,0,0,0-.59,1.27Z" fill="#1e1e1e"/>
      <path d="M288.17,171.9a1.18,1.18,0,0,0-.73-.2,1.22,1.22,0,0,0-1,.58,2.67,2.67,0,0,0-.42,1.58v3.06h-1v-6h1v1.24h0a2.08,2.08,0,0,1,.62-1,1.47,1.47,0,0,1,1-.35,1.44,1.44,0,0,1,.57.08Z" fill="#1e1e1e"/>
    </g>
    <g>
      <path d="M302.8,162.52v-8.4h2.32q4.44,0,4.44,4.1a4.12,4.12,0,0,1-1.23,3.12,4.55,4.55,0,0,1-3.3,1.18Zm1-7.51v6.62H305a3.55,3.55,0,0,0,2.57-.88,3.3,3.3,0,0,0,.92-2.51q0-3.23-3.43-3.23Z" fill="#1e1e1e"/>
      <path d="M317.93,162.52h-1.2l-4.33-6.69a2.94,2.94,0,0,1-.27-.53h0a9.28,9.28,0,0,1,0,1.15v6.07h-1v-8.4h1.28l4.2,6.59c.18.28.29.46.34.56h0A8.58,8.58,0,0,1,317,160v-5.92h1Z" fill="#1e1e1e"/>
      <path d="M319.67,162.18V161a2,2,0,0,0,.47.32,6.07,6.07,0,0,0,.59.24c.21.06.41.11.62.15a4.13,4.13,0,0,0,.57.05,2.22,2.22,0,0,0,1.36-.34,1.14,1.14,0,0,0,.45-1,1.15,1.15,0,0,0-.15-.59,1.64,1.64,0,0,0-.42-.46,3.91,3.91,0,0,0-.62-.4l-.78-.4-.82-.45a3.81,3.81,0,0,1-.66-.5,2.24,2.24,0,0,1-.44-.63,2.13,2.13,0,0,1,.09-1.81,2.24,2.24,0,0,1,.66-.71,3.19,3.19,0,0,1,.94-.41,4.24,4.24,0,0,1,1.07-.13,4.11,4.11,0,0,1,1.81.3v1.11a3.26,3.26,0,0,0-1.91-.52,2.88,2.88,0,0,0-.65.07,1.78,1.78,0,0,0-.57.22,1.18,1.18,0,0,0-.41.39,1,1,0,0,0-.16.59,1.18,1.18,0,0,0,.12.55,1.41,1.41,0,0,0,.35.43,4.17,4.17,0,0,0,.58.38l.77.39c.3.15.59.31.86.47a4.46,4.46,0,0,1,.71.55,2.53,2.53,0,0,1,.48.66,1.84,1.84,0,0,1,.18.83,1.94,1.94,0,0,1-.9,1.75,2.88,2.88,0,0,1-.95.39,5.24,5.24,0,0,1-1.14.12l-.49,0q-.3,0-.6-.09a5.47,5.47,0,0,1-.58-.15A1.91,1.91,0,0,1,319.67,162.18Z" fill="#1e1e1e"/>
      <path d="M302.41,176.58v-1.16a1.91,1.91,0,0,0,.48.32,5,5,0,0,0,.58.24c.21.06.41.11.62.15a4.13,4.13,0,0,0,.57.05,2.22,2.22,0,0,0,1.36-.34,1.14,1.14,0,0,0,.45-1,1.15,1.15,0,0,0-.15-.59,1.76,1.76,0,0,0-.41-.46,4.57,4.57,0,0,0-.63-.4l-.77-.4c-.3-.15-.57-.3-.82-.45a3.54,3.54,0,0,1-.67-.5,2.47,2.47,0,0,1-.44-.63,2.13,2.13,0,0,1,.09-1.81,2.24,2.24,0,0,1,.66-.71,3.19,3.19,0,0,1,.94-.41,4.29,4.29,0,0,1,1.07-.13,4.08,4.08,0,0,1,1.81.3v1.11a3.24,3.24,0,0,0-1.91-.52,2.88,2.88,0,0,0-.65.07,1.78,1.78,0,0,0-.57.22,1.27,1.27,0,0,0-.41.39,1,1,0,0,0-.16.59,1.18,1.18,0,0,0,.12.55,1.31,1.31,0,0,0,.36.43,3.51,3.51,0,0,0,.57.38l.77.39c.31.15.59.31.86.47a4,4,0,0,1,.71.55,2.53,2.53,0,0,1,.48.66,1.84,1.84,0,0,1,.18.83,2.09,2.09,0,0,1-.24,1,1.93,1.93,0,0,1-.66.7,2.8,2.8,0,0,1-1,.39,5.24,5.24,0,0,1-1.14.12l-.49,0-.6-.09a4.74,4.74,0,0,1-.57-.15A1.81,1.81,0,0,1,302.41,176.58Z" fill="#1e1e1e"/>
      <path d="M313.84,174.16H309.6a2.28,2.28,0,0,0,.54,1.55,1.87,1.87,0,0,0,1.42.54,3,3,0,0,0,1.86-.66v.9a3.5,3.5,0,0,1-2.09.57,2.56,2.56,0,0,1-2-.81,3.39,3.39,0,0,1-.72-2.3,3.29,3.29,0,0,1,.79-2.29,2.58,2.58,0,0,1,2-.88,2.27,2.27,0,0,1,1.82.76,3.2,3.2,0,0,1,.65,2.12Zm-1-.81a1.91,1.91,0,0,0-.4-1.3,1.39,1.39,0,0,0-1.1-.46,1.54,1.54,0,0,0-1.15.49,2.22,2.22,0,0,0-.59,1.27Z" fill="#1e1e1e"/>
      <path d="M318.42,171.9a1.18,1.18,0,0,0-.73-.2,1.25,1.25,0,0,0-1,.58,2.74,2.74,0,0,0-.41,1.58v3.06h-1v-6h1v1.24h0a2.08,2.08,0,0,1,.62-1,1.47,1.47,0,0,1,1-.35,1.44,1.44,0,0,1,.57.08Z" fill="#1e1e1e"/>
      <path d="M324.66,170.92l-2.39,6h-.94l-2.28-6h1.06l1.52,4.36a3.21,3.21,0,0,1,.21.84h0a4.41,4.41,0,0,1,.18-.81l1.6-4.39Z" fill="#1e1e1e"/>
      <path d="M330.36,174.16h-4.23a2.19,2.19,0,0,0,.54,1.55,1.85,1.85,0,0,0,1.41.54,3,3,0,0,0,1.87-.66v.9a3.52,3.52,0,0,1-2.09.57,2.54,2.54,0,0,1-2-.81,3.85,3.85,0,0,1,.06-4.59,2.58,2.58,0,0,1,2-.88,2.28,2.28,0,0,1,1.82.76,3.19,3.19,0,0,1,.64,2.12Zm-1-.81a2,2,0,0,0-.4-1.3,1.4,1.4,0,0,0-1.1-.46,1.56,1.56,0,0,0-1.16.49,2.21,2.21,0,0,0-.58,1.27Z" fill="#1e1e1e"/>
      <path d="M335,171.9a1.18,1.18,0,0,0-.73-.2,1.25,1.25,0,0,0-1,.58,2.67,2.67,0,0,0-.41,1.58v3.06h-1v-6h1v1.24h0a2.17,2.17,0,0,1,.63-1,1.44,1.44,0,0,1,.94-.35,1.52,1.52,0,0,1,.58.08Z" fill="#1e1e1e"/>
    </g>
    <g>
      <path d="M226.61,154.12l-2.37,8.4h-1.16l-1.73-6.14a4.33,4.33,0,0,1-.13-.85h0a4.62,4.62,0,0,1-.16.84l-1.74,6.15h-1.14l-2.46-8.4h1.08l1.79,6.45a3.88,3.88,0,0,1,.14.84h0a5,5,0,0,1,.18-.84l1.86-6.45h.94l1.78,6.49a5.06,5.06,0,0,1,.15.79h0a4.2,4.2,0,0,1,.16-.81l1.71-6.47Z" fill="#1e1e1e"/>
      <path d="M232.2,159.76H228a2.28,2.28,0,0,0,.54,1.55,1.89,1.89,0,0,0,1.42.55,3,3,0,0,0,1.86-.67v.9a3.47,3.47,0,0,1-2.09.57,2.56,2.56,0,0,1-2-.81,3.39,3.39,0,0,1-.72-2.3,3.29,3.29,0,0,1,.79-2.29,2.58,2.58,0,0,1,2-.88,2.27,2.27,0,0,1,1.82.76,3.2,3.2,0,0,1,.65,2.12Zm-1-.81a1.91,1.91,0,0,0-.4-1.3,1.39,1.39,0,0,0-1.1-.46,1.54,1.54,0,0,0-1.15.49A2.22,2.22,0,0,0,228,159Z" fill="#1e1e1e"/>
      <path d="M234.64,161.66h0v.86h-1v-8.88h1v3.94h0a2.26,2.26,0,0,1,2.07-1.2,2.2,2.2,0,0,1,1.81.81,3.35,3.35,0,0,1,.65,2.16,3.72,3.72,0,0,1-.73,2.41,2.45,2.45,0,0,1-2,.9A2,2,0,0,1,234.64,161.66Zm0-2.42v.83a1.77,1.77,0,0,0,.49,1.27,1.71,1.71,0,0,0,2.59-.15,3.09,3.09,0,0,0,.5-1.86,2.41,2.41,0,0,0-.47-1.57,1.51,1.51,0,0,0-1.25-.57,1.73,1.73,0,0,0-1.35.58A2.16,2.16,0,0,0,234.61,159.24Z" fill="#1e1e1e"/>
      <path d="M207.13,176.58v-1.16a1.91,1.91,0,0,0,.48.32,5,5,0,0,0,.58.24c.21.06.41.11.62.15a4.13,4.13,0,0,0,.57.05,2.22,2.22,0,0,0,1.36-.34,1.14,1.14,0,0,0,.45-1,1.15,1.15,0,0,0-.15-.59,1.76,1.76,0,0,0-.41-.46,4.57,4.57,0,0,0-.63-.4l-.77-.4c-.3-.15-.57-.3-.82-.45a3.54,3.54,0,0,1-.67-.5,2.47,2.47,0,0,1-.44-.63,2.13,2.13,0,0,1,.09-1.81,2.24,2.24,0,0,1,.66-.71,3.19,3.19,0,0,1,.94-.41,4.24,4.24,0,0,1,1.07-.13,4.08,4.08,0,0,1,1.81.3v1.11a3.24,3.24,0,0,0-1.91-.52,2.88,2.88,0,0,0-.65.07,1.78,1.78,0,0,0-.57.22,1.18,1.18,0,0,0-.41.39,1,1,0,0,0-.16.59,1.18,1.18,0,0,0,.12.55,1.31,1.31,0,0,0,.36.43,3.51,3.51,0,0,0,.57.38l.77.39c.3.15.59.31.86.47a4.46,4.46,0,0,1,.71.55,2.53,2.53,0,0,1,.48.66,1.84,1.84,0,0,1,.18.83,2.09,2.09,0,0,1-.24,1,2,2,0,0,1-.66.7,2.88,2.88,0,0,1-.95.39,5.24,5.24,0,0,1-1.14.12l-.49,0-.6-.09a5.47,5.47,0,0,1-.58-.15A1.91,1.91,0,0,1,207.13,176.58Z" fill="#1e1e1e"/>
      <path d="M218.56,174.16h-4.24a2.28,2.28,0,0,0,.54,1.55,1.87,1.87,0,0,0,1.42.54,3,3,0,0,0,1.86-.66v.9a3.5,3.5,0,0,1-2.09.57,2.56,2.56,0,0,1-2-.81,3.39,3.39,0,0,1-.73-2.3,3.29,3.29,0,0,1,.8-2.29,2.56,2.56,0,0,1,2-.88,2.28,2.28,0,0,1,1.82.76,3.2,3.2,0,0,1,.65,2.12Zm-1-.81a2,2,0,0,0-.4-1.3,1.39,1.39,0,0,0-1.1-.46,1.52,1.52,0,0,0-1.15.49,2.22,2.22,0,0,0-.59,1.27Z" fill="#1e1e1e"/>
      <path d="M223.14,171.9a1.18,1.18,0,0,0-.73-.2,1.25,1.25,0,0,0-1,.58,2.74,2.74,0,0,0-.41,1.58v3.06h-1v-6h1v1.24h0a2.17,2.17,0,0,1,.63-1,1.46,1.46,0,0,1,.94-.35,1.49,1.49,0,0,1,.58.08Z" fill="#1e1e1e"/>
      <path d="M229.38,170.92l-2.39,6h-.94l-2.28-6h1.06l1.52,4.36a4.27,4.27,0,0,1,.21.84h0a4.38,4.38,0,0,1,.19-.81l1.6-4.39Z" fill="#1e1e1e"/>
      <path d="M235.08,174.16h-4.23a2.23,2.23,0,0,0,.53,1.55,1.88,1.88,0,0,0,1.42.54,3,3,0,0,0,1.87-.66v.9a3.53,3.53,0,0,1-2.1.57,2.53,2.53,0,0,1-2-.81,3.34,3.34,0,0,1-.73-2.3,3.29,3.29,0,0,1,.79-2.29,2.58,2.58,0,0,1,2-.88,2.28,2.28,0,0,1,1.82.76,3.19,3.19,0,0,1,.64,2.12Zm-1-.81a2,2,0,0,0-.4-1.3,1.4,1.4,0,0,0-1.1-.46,1.54,1.54,0,0,0-1.16.49,2.21,2.21,0,0,0-.58,1.27Z" fill="#1e1e1e"/>
      <path d="M239.66,171.9a1.14,1.14,0,0,0-.72-.2,1.24,1.24,0,0,0-1,.58,2.67,2.67,0,0,0-.41,1.58v3.06h-1v-6h1v1.24h0a2.17,2.17,0,0,1,.63-1,1.61,1.61,0,0,1,1.51-.27Z" fill="#1e1e1e"/>
    </g>
  </g>
</svg>
