<?xml version="1.0" encoding="UTF-8" standalone="no"?>
<!DOCTYPE svg PUBLIC "-//W3C//DTD SVG 1.1//EN" "http://www.w3.org/Graphics/SVG/1.1/DTD/svg11.dtd">
<!-- Generated by Microsoft Visio, SVG Export flow-direction1_V3.svg Page-1 -->
<svg xmlns="http://www.w3.org/2000/svg" xmlns:xlink="http://www.w3.org/1999/xlink" xmlns:ev="http://www.w3.org/2001/xml-events"
		width="4.1875in" height="6.375in" viewBox="0 0 301.5 459" xml:space="preserve" color-interpolation-filters="sRGB"
		class="st33">
	<style type="text/css">
	<![CDATA[
		.st1 {fill:#ffffff;stroke:none;stroke-linecap:round;stroke-linejoin:round;stroke-width:0.75}
		.st2 {fill:none;stroke:#3c3c41;stroke-dasharray:3,1.5;stroke-linecap:butt;stroke-width:1.5}
		.st3 {fill:#ffffff;stroke:#ffffff;stroke-linecap:round;stroke-linejoin:round;stroke-width:0.75}
		.st4 {fill:url(#grad0-12);stroke:none;stroke-linecap:butt;stroke-width:0.75}
		.st5 {fill:#9cebff;stroke:none;stroke-linecap:butt;stroke-width:0.75}
		.st6 {fill:#ffffff;stroke:none;stroke-linecap:butt;stroke-width:0.75}
		.st7 {fill:#86d633;stroke:none;stroke-linecap:butt;stroke-width:0.75}
		.st8 {fill:#3c3c41;font-family:Segoe UI;font-size:1.00001em}
		.st9 {stroke:#3c3c41;stroke-linecap:butt;stroke-width:1.5}
		.st10 {fill:url(#grad0-45);stroke:none;stroke-linecap:butt;stroke-width:0.75}
		.st11 {fill:#767676;stroke:none;stroke-linecap:butt;stroke-width:0.75}
		.st12 {fill:#f2f2f2;stroke:none;stroke-linecap:butt;stroke-width:0.75}
		.st13 {fill:#ebebeb;stroke:none;stroke-linecap:round;stroke-linejoin:round;stroke-width:0.75}
		.st14 {fill:#3c3c41;font-family:Segoe UI Semibold;font-size:1.00001em}
		.st15 {fill:url(#grad0-118);stroke:none;stroke-linecap:butt;stroke-width:0.75}
		.st16 {fill:#50e6ff;stroke:none;stroke-linecap:butt;stroke-width:0.75}
		.st17 {fill:#c3f1ff;stroke:none;stroke-linecap:butt;stroke-width:0.75}
		.st18 {fill:url(#grad0-132);stroke:none;stroke-linecap:butt;stroke-width:0.75}
		.st19 {fill:#005ba1;stroke:none;stroke-linecap:butt;stroke-width:0.75}
		.st20 {fill:#0078d4;stroke:none;stroke-linecap:butt;stroke-width:0.75}
		.st21 {marker-end:url(#mrkr4-218);stroke:#0078d4;stroke-linecap:butt;stroke-width:2.5}
		.st22 {fill:#0078d4;fill-opacity:1;stroke:#0078d4;stroke-opacity:1;stroke-width:0.49800796812749}
		.st23 {marker-start:url(#mrkr4-224);stroke:#0078d4;stroke-dasharray:5,2.5;stroke-linecap:butt;stroke-width:2.5}
		.st24 {fill:url(#grad0-242);stroke:none;stroke-linecap:butt;stroke-width:0.75}
		.st25 {fill:url(#grad0-246);stroke:none;stroke-linecap:butt;stroke-width:0.75}
		.st26 {fill:#1490df;stroke:none;stroke-linecap:butt;stroke-width:0.75}
		.st27 {font-size:1em}
		.st28 {fill:#ffffff;stroke:#3c3c41;stroke-linecap:round;stroke-linejoin:round;stroke-width:1.5}
		.st29 {fill:url(#grad0-273);stroke:none;stroke-linecap:butt;stroke-width:0.75}
		.st30 {fill:none;stroke:none;stroke-linecap:round;stroke-linejoin:round;stroke-width:0.75}
		.st31 {fill:#000000;font-family:Segoe UI;font-size:1.00001em}
		.st32 {marker-end:url(#mrkr4-218);stroke:#0078d4;stroke-dasharray:5,2.5;stroke-linecap:butt;stroke-width:2.5}
		.st33 {fill:none;fill-rule:evenodd;font-size:12px;overflow:visible;stroke-linecap:square;stroke-miterlimit:3}
	]]>
	</style>

	<defs id="Patterns_And_Gradients">
		<linearGradient id="grad0-12" x1="0" y1="0" x2="1" y2="0" gradientTransform="rotate(-45 0.5 0.5)">
			<stop offset="0" stop-color="#238ab0" stop-opacity="1"/>
			<stop offset="0.11" stop-color="#2da4c8" stop-opacity="1"/>
			<stop offset="0.775" stop-color="#3ed3f2" stop-opacity="1"/>
		</linearGradient>
		<linearGradient id="grad0-45" x1="0" y1="0" x2="1" y2="0" gradientTransform="rotate(-90 0.5 0.5)">
			<stop offset="0" stop-color="#32bedd" stop-opacity="1"/>
			<stop offset="0.18" stop-color="#32caea" stop-opacity="1"/>
			<stop offset="0.41" stop-color="#32d2f2" stop-opacity="1"/>
			<stop offset="0.78" stop-color="#32d4f5" stop-opacity="1"/>
		</linearGradient>
		<linearGradient id="grad0-118" x1="0" y1="0" x2="1" y2="0" gradientTransform="rotate(-90 0.5 0.5)">
			<stop offset="0" stop-color="#0078d4" stop-opacity="1"/>
			<stop offset="0.82" stop-color="#5ea0ef" stop-opacity="1"/>
		</linearGradient>
		<linearGradient id="grad0-132" x1="0" y1="0" x2="1" y2="0" gradientTransform="rotate(-90 0.5 0.5)">
			<stop offset="0.15" stop-color="#cccccc" stop-opacity="1"/>
			<stop offset="1" stop-color="#707070" stop-opacity="1"/>
		</linearGradient>
		<linearGradient id="grad0-242" x1="0" y1="0" x2="1" y2="0" gradientTransform="rotate(44.92 0.5 0.5)">
			<stop offset="0" stop-color="#86d633" stop-opacity="1"/>
			<stop offset="1" stop-color="#5e9624" stop-opacity="1"/>
		</linearGradient>
		<linearGradient id="grad0-246" x1="0" y1="0" x2="1" y2="0" gradientTransform="rotate(45.175215904905 0.5 0.5)">
			<stop offset="0" stop-color="#86d633" stop-opacity="1"/>
			<stop offset="1" stop-color="#5e9624" stop-opacity="1"/>
		</linearGradient>
		<linearGradient id="grad0-273" x1="0" y1="0" x2="1" y2="0" gradientTransform="rotate(-90 0.5 0.5)">
			<stop offset="0" stop-color="#1988d9" stop-opacity="1"/>
			<stop offset="0.22" stop-color="#218ddc" stop-opacity="1"/>
			<stop offset="0.56" stop-color="#379ce5" stop-opacity="1"/>
			<stop offset="0.9" stop-color="#54aef0" stop-opacity="1"/>
		</linearGradient>
	</defs>
	<defs id="Markers">
		<g id="lend4">
			<path d="M 2 1 L 0 0 L 2 -1 L 2 1 " style="stroke:none"/>
		</g>
		<marker id="mrkr4-218" class="st22" refX="-4.016" orient="auto" markerUnits="strokeWidth" overflow="visible">
			<use xlink:href="#lend4" transform="scale(-2.008,-2.008) "/>
		</marker>
		<marker id="mrkr4-224" class="st22" refX="3.872" orient="auto" markerUnits="strokeWidth" overflow="visible">
			<use xlink:href="#lend4" transform="scale(2.008) "/>
		</marker>
	</defs>
	<g>
		<title>VBackground-1</title>
		<g id="shape2-1">
			<title>Solid</title>
			<rect x="0" y="0" width="301.5" height="459" class="st1"/>
		</g>
	</g>
	<g>
		<title>Page-1</title>
		<g id="shape1121-3" transform="translate(29.5663,-159)">
			<title>Sheet.1121</title>
			<path d="M0 459 L243 459 L243 272.25 L0 272.25 L0 459 Z" class="st2"/>
		</g>
		<g id="shape1545-5" transform="translate(124.518,-341.32)">
			<title>Sheet.1545</title>
			<rect x="0" y="452.391" width="52.3637" height="6.60937" class="st3"/>
		</g>
		<g id="group1108-7" transform="translate(127.588,-319.37)">
			<title>10310 NAT</title>
			<desc>NAT</desc>
			<g id="group1109-8">
				<title>Sheet.1109</title>
				<g id="shape1110-9" transform="translate(-301.377,134.438) rotate(-45)">
					<title>Sheet.1110</title>
					<path d="M0 457.5 A1.503 1.503 -180 0 0 1.5 459 L31.29 459 A1.503 1.503 -180 0 0 32.79 457.5 L32.79 427.71 A1.503
								 1.503 -180 0 0 31.29 426.21 L1.5 426.21 A1.503 1.503 -180 0 0 -0 427.71 L0 457.5 Z" class="st4"/>
				</g>
				<g id="shape1111-13" transform="translate(9.93207,-9.03237)">
					<title>Sheet.1111</title>
					<path d="M26.2 447.56 L25.29 446.65 L25.29 443.14 L18.03 443.14 L18.03 447.01 L21.29 447.01 L13.1 455.2 L4.92
								 447.01 L8.23 447.01 L8.23 443.14 L0.25 443.14 L0.25 447.01 L0.55 447.01 L0 447.56 L11.44 459 L13.1
								 457.34 L14.76 459 L26.2 447.56 Z" class="st5"/>
				</g>
				<g id="group1112-15" transform="translate(4.7251,-17.268)">
					<title>Sheet.1112</title>
					<g id="shape1113-16" transform="translate(-319.534,135.122) rotate(-45.121)">
						<title>e7444779-97d4-41c0-b615-8f20dff</title>
						<ellipse cx="4.01045" cy="454.969" rx="4.01045" ry="4.0308" class="st6"/>
					</g>
					<g id="shape1114-18" transform="translate(-319.201,132.334) rotate(-45.061)">
						<title>f49a3027-2a70-4956-8377-b9fde06</title>
						<ellipse cx="2.27861" cy="456.699" rx="2.27861" ry="2.3015" class="st7"/>
					</g>
					<g id="shape1115-20" transform="translate(-294.009,135.124) rotate(-45.121)">
						<title>a1afee39-6bd9-4799-a876-a587d30</title>
						<ellipse cx="4.01045" cy="454.969" rx="4.01045" ry="4.0308" class="st6"/>
					</g>
					<g id="shape1116-22" transform="translate(-293.674,132.337) rotate(-45.061)">
						<title>e3be4992-7cb5-4729-a727-b6df384</title>
						<ellipse cx="2.27861" cy="456.699" rx="2.27861" ry="2.3015" class="st7"/>
					</g>
				</g>
				<g id="group1117-24" transform="translate(17.3366,-4.42893)">
					<title>Sheet.1117</title>
					<g id="shape1118-25" transform="translate(0.23858,-2.39603)">
						<title>Sheet.1118</title>
						<path d="M10.8 431.97 L5.71 426.89 a0.381464 0.381464 -180 0 0 -0.541678 5.68434E-14 L0.09 431.97 a0.381464
									 0.381464 -180 0 0 0.269568 0.653574 L3.24 432.63 a0.272111 0.272111 0 0 1 0.272111 0.272111
									 L3.51 459 L7.39 459 L7.39 432.9 a0.272111 0.272111 0 0 1 0.254309 -0.272111 L10.52 432.63 a0.381464
									 0.381464 -180 0 0 0.277197 -0.653574 Z" class="st6"/>
					</g>
					<g id="shape1119-27" transform="translate(-319.534,135.124) rotate(-45.121)">
						<title>b39a4da1-83b2-4022-9206-dc01785</title>
						<ellipse cx="4.01045" cy="454.969" rx="4.01045" ry="4.0308" class="st6"/>
					</g>
					<g id="shape1120-29" transform="translate(-319.201,132.337) rotate(-45.061)">
						<title>fc8023b8-202d-4292-8ba0-f1db060</title>
						<ellipse cx="2.27861" cy="456.699" rx="2.27861" ry="2.3015" class="st7"/>
					</g>
				</g>
			</g>
			<g id="shape1108-31">
				<text x="11.68" y="470.92" class="st8">NAT</text>			</g>
		</g>
		<g id="shape1195-33" transform="translate(166.007,-354.745)">
			<title>Sheet.1195</title>
			<path d="M0 459 L51.37 459 L51.37 425.25" class="st9"/>
		</g>
		<g id="shape1196-36" transform="translate(134.746,-354.745) scale(-1,1)">
			<title>Sheet.1196</title>
			<path d="M0 459 L52.36 459 L52.36 425.25" class="st9"/>
		</g>
		<g id="group1473-39" transform="translate(62.5071,-406.114)">
			<title>Sheet.1473</title>
			<g id="group1130-40" transform="translate(133.778,-0.00137497)">
				<title>10372 Public IP Prefixes</title>
				<desc>IP prefix</desc>
				<g id="group1131-41">
					<title>Sheet.1131</title>
					<g id="shape1132-42" transform="translate(-2.29816E-13,-15.0958)">
						<title>Sheet.1132</title>
						<path d="M0 443.6 L26.04 443.6 L26.04 458.12 a0.875865 0.875865 0 0 1 -0.875865 0.875865 L0.88 459 a0.875865
									 0.875865 0 0 1 -0.875865 -0.875865 L0 443.6 Z" class="st10"/>
					</g>
					<g id="shape1133-46" transform="translate(-2.29816E-13,-30.5007)">
						<title>Sheet.1133</title>
						<path d="M0.88 453.44 L25.17 453.44 a0.875865 0.875865 0 0 1 0.875865 0.875865 L26.04 459 L0 459 L0 454.31
									 a0.875865 0.875865 0 0 1 0.875865 -0.875865 Z" class="st11"/>
					</g>
					<g id="shape1134-48" transform="translate(3.50346,-32.1494)">
						<title>Sheet.1134</title>
						<path d="M0 458.56 a0.437943 0.437943 -180 0 0 0.437933 0.437933 L18.6 459 a0.437943 0.437943 -180 0 0 0.437933
									 -0.437933 L19.04 457.2 a0.437943 0.437943 -180 0 0 -0.437933 -0.437933 L0.44 456.76 a0.437943
									 0.437943 -180 0 0 -0.437933 0.437933 L0 458.56 Z" class="st12"/>
					</g>
					<g id="shape1135-50" transform="translate(10.1497,-7.57366)">
						<title>Sheet.1135</title>
						<path d="M0 443.6 L26.07 443.6 L26.07 458.12 a0.875865 0.875865 0 0 1 -0.875865 0.875865 L0.88 459 a0.875865
									 0.875865 0 0 1 -0.875865 -0.875865 L0 443.6 Z" class="st10"/>
					</g>
					<g id="shape1136-53" transform="translate(10.1755,-22.9786)">
						<title>Sheet.1136</title>
						<path d="M0.85 453.46 L25.14 453.46 a0.875865 0.875865 0 0 1 0.875865 0.875865 L26.02 459 L0 459 L0 454.34
									 a0.875865 0.875865 0 0 1 0.850104 -0.875865 Z" class="st11"/>
					</g>
					<g id="shape1137-55" transform="translate(13.6532,-24.6015)">
						<title>Sheet.1137</title>
						<path d="M0 458.56 a0.437943 0.437943 -180 0 0 0.437933 0.437933 L18.6 459 a0.437943 0.437943 -180 0 0 0.437933
									 -0.437933 L19.04 457.2 a0.437943 0.437943 -180 0 0 -0.437933 -0.437933 L0.44 456.76 a0.437943
									 0.437943 -180 0 0 -0.437933 0.437933 L0 458.56 Z" class="st12"/>
					</g>
					<g id="group1138-57" transform="translate(20.3252,-1.7053E-13)">
						<title>Sheet.1138</title>
						<g id="shape1139-58">
							<title>Sheet.1139</title>
							<path d="M0 443.6 L26.04 443.6 L26.04 458.12 a0.875865 0.875865 0 0 1 -0.875865 0.875865 L0.88 459 a0.875865
										 0.875865 0 0 1 -0.875865 -0.875865 L0 443.6 Z" class="st10"/>
						</g>
						<g id="shape1140-61" transform="translate(0,-15.4049)">
							<title>Sheet.1140</title>
							<path d="M0.88 453.44 L25.17 453.44 a0.875865 0.875865 0 0 1 0.875865 0.875865 L26.04 459 L0 459 L0 454.31
										 a0.875865 0.875865 0 0 1 0.875865 -0.875865 Z" class="st11"/>
						</g>
						<g id="group1141-63" transform="translate(5.0491,-6.54323)">
							<title>Sheet.1141</title>
							<g id="shape1142-64" transform="translate(11.7211,0)">
								<title>Sheet.1142</title>
								<ellipse cx="2.11238" cy="456.888" rx="2.11238" ry="2.11238" class="st12"/>
							</g>
							<g id="shape1143-66" transform="translate(5.95073,0)">
								<title>Sheet.1143</title>
								<ellipse cx="2.11238" cy="456.888" rx="2.11238" ry="2.11238" class="st12"/>
							</g>
							<g id="shape1144-68">
								<title>Sheet.1144</title>
								<ellipse cx="2.11238" cy="456.888" rx="2.11238" ry="2.11238" class="st12"/>
							</g>
						</g>
						<g id="shape1145-70" transform="translate(3.50346,-17.0536)">
							<title>Sheet.1145</title>
							<path d="M0 458.56 a0.437943 0.437943 -180 0 0 0.437933 0.437933 L18.6 459 a0.437943 0.437943 -180 0
										 0 0.437933 -0.437933 L19.04 457.2 a0.437943 0.437943 -180 0 0 -0.437933 -0.437933 L0.44
										 456.76 a0.437943 0.437943 -180 0 0 -0.437933 0.437933 L0 458.56 Z" class="st12"/>
						</g>
					</g>
				</g>
				<g id="shape1130-72">
					<text x="1.75" y="472.86" class="st8">IP prefix</text>				</g>
			</g>
			<g id="group1146-74">
				<title>10069 Public IP Addresses</title>
				<desc>Public IP</desc>
				<g id="shape1147-75">
					<title>Sheet.1147</title>
					<path d="M1.16 435.62 L40.71 435.62 L40.71 457.67 A1.32606 1.32606 0 0 1 39.39 459 L2.49 459 A1.32606 1.32606
								 0 0 1 1.16 457.67 L1.16 435.62 Z" class="st10"/>
				</g>
				<g id="shape1148-78" transform="translate(0,-23.3805)">
					<title>Sheet.1148</title>
					<path d="M2.49 450.58 L39.39 450.58 A1.32606 1.32606 0 0 1 40.71 451.9 L40.71 459 L1.16 459 L1.16 451.88 A1.32606
								 1.32606 0 0 1 2.49 450.58 Z" class="st11"/>
				</g>
				<g id="shape1149-80" transform="translate(26.6142,-9.93379)">
					<title>Sheet.1149</title>
					<ellipse cx="3.21045" cy="455.79" rx="3.21045" ry="3.21045" class="st12"/>
				</g>
				<g id="shape1150-82" transform="translate(17.8669,-9.93379)">
					<title>Sheet.1150</title>
					<ellipse cx="3.21045" cy="455.79" rx="3.21045" ry="3.21045" class="st12"/>
				</g>
				<g id="shape1151-84" transform="translate(8.84037,-9.93379)">
					<title>Sheet.1151</title>
					<ellipse cx="3.21045" cy="455.79" rx="3.21045" ry="3.21045" class="st12"/>
				</g>
				<g id="shape1152-86" transform="translate(6.49069,-25.893)">
					<title>Sheet.1152</title>
					<path d="M0 458.35 a0.651411 0.651411 -180 0 0 0.651396 0.651396 L28.27 459 a0.651411 0.651411 -180 0 0 0.651396
								 -0.651396 L28.92 456.25 a0.651411 0.651411 -180 0 0 -0.651396 -0.651396 L0.65 455.6 a0.651411 0.651411
								 -180 0 0 -0.651396 0.651396 L0 458.35 Z" class="st12"/>
				</g>
				<g id="shape1146-88">
					<text x="-1.46" y="472.97" class="st8">Public IP</text>				</g>
			</g>
			<g id="group1466-90" transform="translate(66.8888,-0.285859)">
				<title>10069 Public IP Addresses.1466</title>
				<desc>Public IP</desc>
				<g id="shape1467-91">
					<title>Sheet.1467</title>
					<path d="M1.16 435.62 L40.71 435.62 L40.71 457.67 A1.32606 1.32606 0 0 1 39.39 459 L2.49 459 A1.32606 1.32606
								 0 0 1 1.16 457.67 L1.16 435.62 Z" class="st10"/>
				</g>
				<g id="shape1468-94" transform="translate(0,-23.3805)">
					<title>Sheet.1468</title>
					<path d="M2.49 450.58 L39.39 450.58 A1.32606 1.32606 0 0 1 40.71 451.9 L40.71 459 L1.16 459 L1.16 451.88 A1.32606
								 1.32606 0 0 1 2.49 450.58 Z" class="st11"/>
				</g>
				<g id="shape1469-96" transform="translate(26.6142,-9.93379)">
					<title>Sheet.1469</title>
					<ellipse cx="3.21045" cy="455.79" rx="3.21045" ry="3.21045" class="st12"/>
				</g>
				<g id="shape1470-98" transform="translate(17.8669,-9.93379)">
					<title>Sheet.1470</title>
					<ellipse cx="3.21045" cy="455.79" rx="3.21045" ry="3.21045" class="st12"/>
				</g>
				<g id="shape1471-100" transform="translate(8.84037,-9.93379)">
					<title>Sheet.1471</title>
					<ellipse cx="3.21045" cy="455.79" rx="3.21045" ry="3.21045" class="st12"/>
				</g>
				<g id="shape1472-102" transform="translate(6.49069,-25.893)">
					<title>Sheet.1472</title>
					<path d="M0 458.35 a0.651411 0.651411 -180 0 0 0.651396 0.651396 L28.27 459 a0.651411 0.651411 -180 0 0 0.651396
								 -0.651396 L28.92 456.25 a0.651411 0.651411 -180 0 0 -0.651396 -0.651396 L0.65 455.6 a0.651411 0.651411
								 -180 0 0 -0.651396 0.651396 L0 458.35 Z" class="st12"/>
				</g>
				<g id="shape1466-104">
					<text x="-1.46" y="472.97" class="st8">Public IP</text>				</g>
			</g>
		</g>
		<g id="shape1474-106" transform="translate(-308.124,90.75) rotate(-90)">
			<title>Sheet.1474</title>
			<path d="M0 459 L20.25 459" class="st9"/>
		</g>
		<g id="group1496-109" transform="translate(160.066,-175.513)">
			<title>Sheet.1496</title>
			<g id="group1495-110" transform="translate(0,-6.49969)">
				<title>Sheet.1495</title>
				<g id="shape1476-111">
					<title>Sheet.1476</title>
					<desc>Subnet B</desc>
					<rect x="0" y="363.938" width="95.625" height="95.0625" class="st13"/>
					<text x="23.3" y="382.07" class="st14">Subnet B</text>				</g>
				<g id="group1477-114" transform="translate(11.3035,-35.2795)">
					<title>10021 Virtual Machine</title>
					<desc>VM</desc>
					<g id="shape1478-115" transform="translate(0,-8.07494)">
						<title>Sheet.1478</title>
						<path d="M-0 457.95 A1.04645 1.04645 -180 0 0 1.05 459 L30.35 459 A1.04645 1.04645 -180 0 0 31.39 457.95
									 L31.39 439.12 A1.04645 1.04645 -180 0 0 30.35 438.07 L1.05 438.07 A1.04645 1.04645 -180 0 0
									 -0 439.12 L0 457.95 Z" class="st15"/>
					</g>
					<g id="shape1479-119" transform="translate(15.6964,-12.4351)">
						<title>Sheet.1479</title>
						<path d="M5.23 449.84 L5.23 455.93 L0 459 L0 452.9 L5.23 449.84 Z" class="st16"/>
					</g>
					<g id="shape1480-121" transform="translate(10.4643,-18.5218)">
						<title>Sheet.1480</title>
						<path d="M10.46 455.93 L5.23 459 L0 455.93 L5.23 452.88 L10.46 455.93 Z" class="st17"/>
					</g>
					<g id="shape1481-123" transform="translate(10.4643,-12.4351)">
						<title>Sheet.1481</title>
						<path d="M5.23 452.91 L5.23 459 L0 455.93 L0 449.84 L5.23 452.91 Z" class="st5"/>
					</g>
					<g id="shape1482-125" transform="translate(10.4643,-12.4351)">
						<title>Sheet.1482</title>
						<path d="M0 455.93 L5.23 452.9 L5.23 459 L0 455.93 Z" class="st17"/>
					</g>
					<g id="shape1483-127" transform="translate(15.6964,-12.4351)">
						<title>Sheet.1483</title>
						<path d="M5.23 455.93 L0 452.9 L0 459 L5.23 455.93 Z" class="st5"/>
					</g>
					<g id="shape1484-129" transform="translate(7.84821,0)">
						<title>Sheet.1484</title>
						<path d="M14.14 457.26 C11.04 456.77 10.92 454.54 10.92 450.93 L4.76 450.93 C4.76 454.54 4.66 456.77 1.55
									 457.26 A1.74405 1.74405 -180 0 0 0 459 L15.7 459 A1.74405 1.74405 -180 0 0 14.14 457.26 Z"
								class="st18"/>
					</g>
					<g id="shape1477-133">
						<text x="6.58" y="472.85" class="st8">VM</text>					</g>
				</g>
			</g>
		</g>
		<g id="group1497-135" transform="translate(47.8543,-175.513)">
			<title>Sheet.1497</title>
			<g id="group1498-136" transform="translate(0,-6.49969)">
				<title>Sheet.1498</title>
				<g id="shape1499-137">
					<title>Sheet.1499</title>
					<desc>Subnet A</desc>
					<rect x="0" y="363.938" width="95.625" height="95.0625" class="st13"/>
					<text x="22.89" y="382.07" class="st14">Subnet A</text>				</g>
				<g id="group1500-140" transform="translate(11.3035,-35.2795)">
					<title>10021 Virtual Machine</title>
					<desc>VM</desc>
					<g id="shape1501-141" transform="translate(0,-8.07494)">
						<title>Sheet.1501</title>
						<path d="M-0 457.95 A1.04645 1.04645 -180 0 0 1.05 459 L30.35 459 A1.04645 1.04645 -180 0 0 31.39 457.95
									 L31.39 439.12 A1.04645 1.04645 -180 0 0 30.35 438.07 L1.05 438.07 A1.04645 1.04645 -180 0 0
									 -0 439.12 L0 457.95 Z" class="st15"/>
					</g>
					<g id="shape1502-144" transform="translate(15.6964,-12.4351)">
						<title>Sheet.1502</title>
						<path d="M5.23 449.84 L5.23 455.93 L0 459 L0 452.9 L5.23 449.84 Z" class="st16"/>
					</g>
					<g id="shape1503-146" transform="translate(10.4643,-18.5218)">
						<title>Sheet.1503</title>
						<path d="M10.46 455.93 L5.23 459 L0 455.93 L5.23 452.88 L10.46 455.93 Z" class="st17"/>
					</g>
					<g id="shape1504-148" transform="translate(10.4643,-12.4351)">
						<title>Sheet.1504</title>
						<path d="M5.23 452.91 L5.23 459 L0 455.93 L0 449.84 L5.23 452.91 Z" class="st5"/>
					</g>
					<g id="shape1505-150" transform="translate(10.4643,-12.4351)">
						<title>Sheet.1505</title>
						<path d="M0 455.93 L5.23 452.9 L5.23 459 L0 455.93 Z" class="st17"/>
					</g>
					<g id="shape1506-152" transform="translate(15.6964,-12.4351)">
						<title>Sheet.1506</title>
						<path d="M5.23 455.93 L0 452.9 L0 459 L5.23 455.93 Z" class="st5"/>
					</g>
					<g id="shape1507-154" transform="translate(7.84821,0)">
						<title>Sheet.1507</title>
						<path d="M14.14 457.26 C11.04 456.77 10.92 454.54 10.92 450.93 L4.76 450.93 C4.76 454.54 4.66 456.77 1.55
									 457.26 A1.74405 1.74405 -180 0 0 0 459 L15.7 459 A1.74405 1.74405 -180 0 0 14.14 457.26 Z"
								class="st18"/>
					</g>
					<g id="shape1500-157">
						<text x="6.58" y="472.85" class="st8">VM</text>					</g>
				</g>
				<g id="group1508-159" transform="translate(53.0449,-35.2795)">
					<title>10021 Virtual Machine.1485</title>
					<desc>VM</desc>
					<g id="shape1509-160" transform="translate(0,-8.07494)">
						<title>Sheet.1509</title>
						<path d="M-0 457.95 A1.04645 1.04645 -180 0 0 1.05 459 L30.35 459 A1.04645 1.04645 -180 0 0 31.39 457.95
									 L31.39 439.12 A1.04645 1.04645 -180 0 0 30.35 438.07 L1.05 438.07 A1.04645 1.04645 -180 0 0
									 -0 439.12 L0 457.95 Z" class="st15"/>
					</g>
					<g id="shape1510-163" transform="translate(15.6964,-12.4351)">
						<title>Sheet.1510</title>
						<path d="M5.23 449.84 L5.23 455.93 L0 459 L0 452.9 L5.23 449.84 Z" class="st16"/>
					</g>
					<g id="shape1511-165" transform="translate(10.4643,-18.5218)">
						<title>Sheet.1511</title>
						<path d="M10.46 455.93 L5.23 459 L0 455.93 L5.23 452.88 L10.46 455.93 Z" class="st17"/>
					</g>
					<g id="shape1512-167" transform="translate(10.4643,-12.4351)">
						<title>Sheet.1512</title>
						<path d="M5.23 452.91 L5.23 459 L0 455.93 L0 449.84 L5.23 452.91 Z" class="st5"/>
					</g>
					<g id="shape1513-169" transform="translate(10.4643,-12.4351)">
						<title>Sheet.1513</title>
						<path d="M0 455.93 L5.23 452.9 L5.23 459 L0 455.93 Z" class="st17"/>
					</g>
					<g id="shape1514-171" transform="translate(15.6964,-12.4351)">
						<title>Sheet.1514</title>
						<path d="M5.23 455.93 L0 452.9 L0 459 L5.23 455.93 Z" class="st5"/>
					</g>
					<g id="shape1515-173" transform="translate(7.84821,0)">
						<title>Sheet.1515</title>
						<path d="M14.14 457.26 C11.04 456.77 10.92 454.54 10.92 450.93 L4.76 450.93 C4.76 454.54 4.66 456.77 1.55
									 457.26 A1.74405 1.74405 -180 0 0 0 459 L15.7 459 A1.74405 1.74405 -180 0 0 14.14 457.26 Z"
								class="st18"/>
					</g>
					<g id="shape1508-176">
						<text x="6.58" y="472.85" class="st8">VM</text>					</g>
				</g>
			</g>
		</g>
		<g id="group1522-178" transform="translate(213.182,-217.263)">
			<title>10034 VM Scale Sets</title>
			<desc>VMSS</desc>
			<g id="shape1523-179" transform="translate(0,-17.3453)">
				<title>Sheet.1523</title>
				<path d="M0 458.42 a0.57537 0.57537 -180 0 0 0.575357 0.575357 L16.53 459 a0.57537 0.57537 -180 0 0 0.575357 -0.575357
							 L17.11 448.15 a0.57537 0.57537 -180 0 0 -0.575357 -0.575357 L0.58 447.58 a0.57537 0.57537 -180 0 0 -0.575357
							 0.575357 L0 458.42 Z" class="st19"/>
			</g>
			<g id="shape1524-181" transform="translate(8.56267,-19.7314)">
				<title>Sheet.1524</title>
				<path d="M2.84 454.01 L2.84 457.34 L0 459 L0 455.68 L2.84 454.01 Z" class="st16"/>
			</g>
			<g id="shape1525-183" transform="translate(5.7028,-23.0481)">
				<title>Sheet.1525</title>
				<path d="M5.7 457.32 L2.86 459 L0 457.32 L2.86 455.65 L5.7 457.32 Z" class="st17"/>
			</g>
			<g id="shape1526-185" transform="translate(5.7028,-19.7314)">
				<title>Sheet.1526</title>
				<path d="M2.86 455.68 L2.86 459 L0 457.34 L0 454.01 L2.86 455.68 Z" class="st5"/>
			</g>
			<g id="shape1527-187" transform="translate(6.71814,-10.7964)">
				<title>Sheet.1527</title>
				<path d="M0 458.42 a0.57537 0.57537 -180 0 0 0.575357 0.575357 L16.53 459 a0.57537 0.57537 -180 0 0 0.575357 -0.575357
							 L17.11 448.15 a0.57537 0.57537 -180 0 0 -0.575357 -0.575357 L0.58 447.58 a0.57537 0.57537 -180 0 0 -0.575357
							 0.575357 L0 458.42 Z" class="st20"/>
			</g>
			<g id="shape1528-189" transform="translate(15.2808,-13.1655)">
				<title>Sheet.1528</title>
				<path d="M2.84 454.01 L2.84 457.32 L0 459 L0 455.67 L2.84 454.01 Z" class="st16"/>
			</g>
			<g id="shape1529-191" transform="translate(12.4209,-16.4992)">
				<title>Sheet.1529</title>
				<path d="M5.7 457.34 L2.86 459 L0 457.34 L2.86 455.67 L5.7 457.34 Z" class="st17"/>
			</g>
			<g id="shape1530-193" transform="translate(12.4209,-13.1655)">
				<title>Sheet.1530</title>
				<path d="M2.86 455.67 L2.86 459 L0 457.32 L0 454.01 L2.86 455.67 Z" class="st5"/>
			</g>
			<g id="shape1531-195" transform="translate(11.6594,-4.43363)">
				<title>Sheet.1531</title>
				<path d="M0 458.42 a0.57537 0.57537 -180 0 0 0.575357 0.575357 L16.53 459 a0.57537 0.57537 -180 0 0 0.575357 -0.575357
							 L17.11 448.15 a0.57537 0.57537 -180 0 0 -0.575357 -0.575357 L0.58 447.58 a0.57537 0.57537 -180 0 0 -0.575357
							 0.575357 L0 458.42 Z" class="st15"/>
			</g>
			<g id="shape1532-198" transform="translate(20.2221,-6.80275)">
				<title>Sheet.1532</title>
				<path d="M2.84 454.01 L2.84 457.32 L0 459 L0 455.67 L2.84 454.01 Z" class="st16"/>
			</g>
			<g id="shape1533-200" transform="translate(17.3622,-10.1195)">
				<title>Sheet.1533</title>
				<path d="M5.7 457.32 L2.86 459 L0 457.32 L2.86 455.65 L5.7 457.32 Z" class="st17"/>
			</g>
			<g id="shape1534-202" transform="translate(17.3622,-6.80275)">
				<title>Sheet.1534</title>
				<path d="M2.86 455.68 L2.86 459 L0 457.32 L0 454.01 L2.86 455.68 Z" class="st5"/>
			</g>
			<g id="shape1535-204" transform="translate(17.3622,-6.80275)">
				<title>Sheet.1535</title>
				<path d="M0 457.32 L2.86 455.67 L2.86 459 L0 457.32 Z" class="st17"/>
			</g>
			<g id="shape1536-206" transform="translate(20.2221,-6.80275)">
				<title>Sheet.1536</title>
				<path d="M2.84 457.32 L0 455.67 L0 459 L2.84 457.32 Z" class="st5"/>
			</g>
			<g id="shape1537-208" transform="translate(16.0254,5.68434E-14)">
				<title>Sheet.1537</title>
				<path d="M7.62 458.04 C5.92 457.76 5.92 456.55 5.92 454.65 L2.54 454.65 C2.54 456.61 2.54 457.83 0.85 458.04 a0.998414
							 0.998414 -180 0 0 -0.846113 0.964569 L8.46 459 a0.998414 0.998414 -180 0 0 -0.846113 -0.964569 Z"
						class="st18"/>
			</g>
			<g id="shape1522-211">
				<text x="-0.11" y="472.6" class="st8">VMSS</text>			</g>
		</g>
		<g id="shape1547-213" transform="translate(170.132,-277.076)">
			<title>Sheet.1547</title>
			<path d="M74.25 459 L74.25 401.58 L10.04 401.58" class="st21"/>
		</g>
		<g id="shape1548-219" transform="translate(172.382,-277.076)">
			<title>Sheet.1548</title>
			<path d="M40.5 449.32 L40.5 448.96 L40.5 424.08 L0 424.08" class="st23"/>
		</g>
		<g id="shape1552-225" transform="translate(131.882,-277.258) scale(-1,1)">
			<title>Sheet.1552</title>
			<path d="M73.5 459 L73.5 401.76 L10.04 401.76" class="st21"/>
		</g>
		<g id="shape1553-230" transform="translate(130.081,-277.258) scale(-1,1)">
			<title>Sheet.1553</title>
			<path d="M40.5 449.32 L40.5 448.96 L40.5 424.26 L0 424.26" class="st23"/>
		</g>
		<g id="group1566-235" transform="translate(239.104,-152.076)">
			<title>Sheet.1566</title>
			<g id="shape1192-236" transform="translate(2.13053,-3.70278)">
				<title>Sheet.1192</title>
				<rect x="0" y="452.391" width="18.4822" height="6.60937" class="st3"/>
			</g>
			<g id="group1191-238">
				<title>Sheet.1191</title>
				<desc>Virtual network</desc>
				<g id="shape1184-239" transform="translate(15.165,-5.55235)">
					<title>Sheet.1184</title>
					<ellipse cx="1.51856" cy="457.481" rx="1.51856" ry="1.51856" class="st24"/>
				</g>
				<g id="shape1185-243" transform="translate(10.3213,-5.53926)">
					<title>Sheet.1185</title>
					<ellipse cx="1.51856" cy="457.481" rx="1.51856" ry="1.51856" class="st25"/>
				</g>
				<g id="shape1186-247" transform="translate(5.47765,-5.53926)">
					<title>Sheet.1186</title>
					<ellipse cx="1.51856" cy="457.481" rx="1.51856" ry="1.51856" class="st25"/>
				</g>
				<g id="shape1187-250" transform="translate(328.259,772.455) rotate(134.92)">
					<title>Sheet.1187</title>
					<path d="M3.42 448.74 L4.65 448.74 a0.39273 0.39273 0 0 1 0.39273 0.39273 L5.04 458.21 a0.78546 0.78546 0 0 1
								 -0.78546 0.78546 L3.02 459 L3.02 449.13 a0.39273 0.39273 0 0 1 0.39273 -0.39273 Z" class="st16"/>
				</g>
				<g id="shape1188-252" transform="translate(321.688,124.799) rotate(44.92)">
					<title>Sheet.1188</title>
					<path d="M3.35 448.88 L4.58 448.88 a0.39273 0.39273 0 0 1 0.39273 0.39273 L4.97 459 L3.74 459 a0.78546 0.78546
								 0 0 1 -0.78546 -0.78546 L2.96 449.27 a0.39273 0.39273 0 0 1 0.39273 -0.39273 Z" class="st26"/>
				</g>
				<g id="shape1189-254" transform="translate(327.133,120.498) rotate(45.08)">
					<title>Sheet.1189</title>
					<path d="M18.52 448.74 L19.75 448.74 a0.78546 0.78546 0 0 1 0.78546 0.78546 L20.54 458.61 a0.39273 0.39273 0
								 0 1 -0.39273 0.39273 L18.92 459 a0.39273 0.39273 0 0 1 -0.39273 -0.39273 L18.52 448.74 Z"
							class="st16"/>
				</g>
				<g id="shape1190-256" transform="translate(354.023,756.608) rotate(135.08)">
					<title>Sheet.1190</title>
					<path d="M19.39 448.88 L20.62 448.88 L20.62 458.61 a0.39273 0.39273 0 0 1 -0.39273 0.39273 L18.98 459 a0.39273
								 0.39273 0 0 1 -0.39273 -0.39273 L18.59 449.67 a0.78546 0.78546 0 0 1 0.78546 -0.78546 L19.39 448.88
								 Z" class="st26"/>
				</g>
				<g id="shape1191-258">
					<text x="-5.5" y="471.37" class="st8">Virtual <tspan x="-9.79" dy="1.2em" class="st27">network</tspan></text>				</g>
			</g>
		</g>
		<g id="shape1840-261" transform="translate(73.3821,-277.076)">
			<title>Sheet.1840</title>
			<path d="M0 459 L0 412.83 L67.5 412.83" class="st9"/>
		</g>
		<g id="shape1841-264" transform="translate(228.632,-277.076) scale(-1,1)">
			<title>Sheet.1841</title>
			<path d="M0 459 L0 412.83 L67.5 412.83" class="st9"/>
		</g>
		<g id="shape1842-267" transform="translate(30.6321,-24)">
			<title>Sheet.1842</title>
			<rect x="0" y="381.375" width="245.812" height="77.625" class="st28"/>
		</g>
		<g id="group1554-269" transform="translate(22.5696,-90.3849)">
			<title>10005 Information</title>
			<g id="shape1555-270">
				<title>b3492ff9-55dd-4864-be78-9e79f35</title>
				<path d="M16.41 459 A11.6975 11.6975 0 0 1 2.08 440.51 L2.2 440.43 A11.6932 11.6932 0 0 1 16.41 459 Z" class="st29"/>
			</g>
			<g id="shape1556-274" transform="translate(7.55246,-2.18732)">
				<title>Sheet.1556</title>
				<path d="M1.69 447.93 A1.70584 1.70584 0 0 1 0.47 447.47 A1.37568 1.37568 0 0 1 0 446.39 A1.37568 1.37568 0 0 1 0.47
							 445.3 A1.80214 1.80214 0 0 1 1.69 444.94 A1.76086 1.76086 0 0 1 2.92 445.35 A1.37568 1.37568 0 0 1 3.4
							 446.44 A1.37568 1.37568 0 0 1 2.92 447.54 A1.70584 1.70584 0 0 1 1.69 447.93 ZM2.57 459 L0.77 459 a0.577784
							 0.577784 0 0 1 -0.577784 -0.577784 L0.19 450.02 a0.577784 0.577784 0 0 1 0.577784 -0.577784 L2.57 449.44
							 a0.577784 0.577784 0 0 1 0.577784 0.577784 L3.15 458.42 a0.577784 0.577784 0 0 1 -0.577784 0.577784
							 Z" class="st6"/>
			</g>
		</g>
		<g id="shape1563-276" transform="translate(30.0696,-63.7451)">
			<title>Sheet.1563</title>
			<desc>Flow direction for origination (“request”)</desc>
			<rect x="0" y="421.864" width="241.875" height="37.1363" class="st30"/>
			<text x="129.43" y="436.65" class="st31">Flow direction <tspan x="99.02" dy="1.223em" class="st27">for origination </tspan>(“request”)</text>		</g>
		<g id="shape1557-280" transform="translate(113.882,-84) scale(-1,1)">
			<title>Sheet.1557</title>
			<path d="M0 459 L52.96 459" class="st21"/>
		</g>
		<g id="shape1561-285" transform="translate(30.0696,-27.7437)">
			<title>Sheet.1561</title>
			<desc>Flow direction for return (“reply”)</desc>
			<rect x="0" y="421.864" width="241.875" height="37.1363" class="st30"/>
			<text x="129.43" y="436.65" class="st31">Flow direction <tspan x="118.54" dy="1.223em" class="st27">for return </tspan>(“reply”)</text>		</g>
		<g id="shape1558-289" transform="translate(53.8821,-48)">
			<title>Sheet.1558</title>
			<path d="M0 459 L52.96 459" class="st32"/>
		</g>
	</g>
</svg>
