<svg xmlns="http://www.w3.org/2000/svg" xmlns:xlink="http://www.w3.org/1999/xlink" viewBox="0 0 388 192">
  <defs>
    <linearGradient id="linear-gradient" x1="27.351" y1="45.128" x2="27.351" y2="64.175" gradientUnits="userSpaceOnUse">
      <stop offset="0.18" stop-color="#8bc63f"/>
      <stop offset="0.27" stop-color="#82c341"/>
      <stop offset="0.56" stop-color="#6bae44"/>
      <stop offset="0.82" stop-color="#629c42"/>
      <stop offset="1" stop-color="#5e9741"/>
    </linearGradient>
    <linearGradient id="linear-gradient-2" x1="27.351" y1="72.027" x2="27.351" y2="91.074" xlink:href="#linear-gradient"/>
    <linearGradient id="linear-gradient-3" x1="27.351" y1="99.527" x2="27.351" y2="118.574" xlink:href="#linear-gradient"/>
    <linearGradient id="linear-gradient-4" x1="27.351" y1="154.527" x2="27.351" y2="173.574" xlink:href="#linear-gradient"/>
    <linearGradient id="linear-gradient-5" x1="27.351" y1="127.027" x2="27.351" y2="146.074" xlink:href="#linear-gradient"/>
  </defs>
  <g id="Shapes">
    <rect width="388" height="192" fill="#fff"/>
    <rect x="4.999" y="33.251" width="169.003" height="154" fill="#b6d43a" opacity="0.15"/>
    <rect x="187.598" y="33.251" width="195.403" height="154" fill="#737474" opacity="0.15"/>
    <g>
      <path d="M27.351,64.172a9.312,9.312,0,0,1-9.521-9.1c0-.141,0-.283,0-.424a9.312,9.312,0,0,1,9.1-9.521c.141,0,.283,0,.424,0a9.312,9.312,0,0,1,9.521,9.1c0,.142,0,.283,0,.424a9.312,9.312,0,0,1-9.1,9.521C27.633,64.175,27.492,64.175,27.351,64.172Z" fill="url(#linear-gradient)"/>
      <path d="M27.351,45.606A8.848,8.848,0,0,1,36.4,54.251c0,.133,0,.267,0,.4A8.847,8.847,0,0,1,27.752,63.7c-.134,0-.268,0-.4,0a8.846,8.846,0,0,1-9.045-8.644c0-.134,0-.267,0-.4a8.847,8.847,0,0,1,8.644-9.045c.134,0,.267,0,.4,0m0-.952a9.762,9.762,0,0,0-10,9.521c0,.159,0,.317,0,.476a9.761,9.761,0,0,0,9.521,10c.158,0,.317,0,.476,0a9.762,9.762,0,0,0,10-9.521c0-.158,0-.317,0-.476a9.762,9.762,0,0,0-9.521-10C27.668,44.65,27.51,44.65,27.351,44.654Z" fill="#6cbe45"/>
      <polygon points="21.638 54.651 21.638 54.651 23.066 53.223 23.066 53.223 23.066 53.223 25.923 56.079 31.635 50.367 31.635 50.367 31.635 50.367 33.064 51.795 33.064 51.795 33.064 51.795 25.923 58.936 21.638 54.651" fill="#fff"/>
    </g>
    <g>
      <path d="M27.351,91.072a9.312,9.312,0,0,1-9.521-9.1c0-.142,0-.283,0-.424a9.312,9.312,0,0,1,9.1-9.521c.141,0,.283,0,.424,0a9.312,9.312,0,0,1,9.521,9.1c0,.141,0,.283,0,.424a9.312,9.312,0,0,1-9.1,9.521C27.633,91.075,27.492,91.075,27.351,91.072Z" fill="url(#linear-gradient-2)"/>
      <path d="M27.351,72.506A8.846,8.846,0,0,1,36.4,81.15c0,.134,0,.267,0,.4A8.848,8.848,0,0,1,27.752,90.6c-.134,0-.268,0-.4,0a8.848,8.848,0,0,1-9.045-8.645c0-.133,0-.267,0-.4a8.847,8.847,0,0,1,8.644-9.045c.134,0,.267,0,.4,0m0-.952a9.761,9.761,0,0,0-10,9.521c0,.158,0,.317,0,.476a9.762,9.762,0,0,0,9.521,10c.158,0,.317,0,.476,0a9.762,9.762,0,0,0,10-9.521c0-.159,0-.317,0-.476a9.762,9.762,0,0,0-9.521-10C27.668,71.55,27.51,71.55,27.351,71.554Z" fill="#6cbe45"/>
      <polygon points="21.638 81.551 21.638 81.551 23.066 80.123 23.066 80.123 23.066 80.123 25.923 82.979 31.635 77.266 31.635 77.266 31.635 77.266 33.064 78.695 33.064 78.695 33.064 78.695 25.923 85.835 21.638 81.551" fill="#fff"/>
    </g>
    <g>
      <path d="M27.351,118.572a9.312,9.312,0,0,1-9.521-9.1c0-.142,0-.283,0-.424a9.312,9.312,0,0,1,9.1-9.521c.141,0,.283,0,.424,0a9.312,9.312,0,0,1,9.521,9.1c0,.141,0,.283,0,.424a9.312,9.312,0,0,1-9.1,9.521C27.633,118.575,27.492,118.575,27.351,118.572Z" fill="url(#linear-gradient-3)"/>
      <path d="M27.351,100.006A8.846,8.846,0,0,1,36.4,108.65c0,.134,0,.267,0,.4a8.848,8.848,0,0,1-8.644,9.045c-.134,0-.268,0-.4,0a8.848,8.848,0,0,1-9.045-8.645c0-.133,0-.267,0-.4a8.847,8.847,0,0,1,8.644-9.045c.134,0,.267,0,.4,0m0-.952a9.761,9.761,0,0,0-10,9.521c0,.158,0,.317,0,.476a9.762,9.762,0,0,0,9.521,10c.158,0,.317,0,.476,0a9.762,9.762,0,0,0,10-9.521c0-.159,0-.317,0-.476a9.762,9.762,0,0,0-9.521-10C27.668,99.05,27.51,99.05,27.351,99.054Z" fill="#6cbe45"/>
      <polygon points="21.638 109.051 21.638 109.051 23.066 107.623 23.066 107.623 23.066 107.623 25.923 110.479 31.635 104.766 31.635 104.766 31.635 104.766 33.064 106.195 33.064 106.195 33.064 106.195 25.923 113.335 21.638 109.051" fill="#fff"/>
    </g>
    <g>
      <path d="M27.351,173.572a9.312,9.312,0,0,1-9.521-9.1c0-.142,0-.283,0-.424a9.312,9.312,0,0,1,9.1-9.521c.141,0,.283,0,.424,0a9.312,9.312,0,0,1,9.521,9.1c0,.141,0,.283,0,.424a9.312,9.312,0,0,1-9.1,9.521C27.633,173.575,27.492,173.575,27.351,173.572Z" fill="url(#linear-gradient-4)"/>
      <path d="M27.351,155.006A8.846,8.846,0,0,1,36.4,163.65c0,.134,0,.267,0,.4a8.848,8.848,0,0,1-8.644,9.045c-.134,0-.268,0-.4,0a8.848,8.848,0,0,1-9.045-8.645c0-.133,0-.267,0-.4a8.847,8.847,0,0,1,8.644-9.045c.134,0,.267,0,.4,0m0-.952a9.761,9.761,0,0,0-10,9.521c0,.158,0,.317,0,.476a9.762,9.762,0,0,0,9.521,10c.158,0,.317,0,.476,0a9.762,9.762,0,0,0,10-9.521c0-.159,0-.317,0-.476a9.762,9.762,0,0,0-9.521-10C27.668,154.05,27.51,154.05,27.351,154.054Z" fill="#6cbe45"/>
      <polygon points="21.638 164.051 21.638 164.051 23.066 162.623 23.066 162.623 23.066 162.623 25.923 165.479 31.635 159.766 31.635 159.766 31.635 159.766 33.064 161.195 33.064 161.195 33.064 161.195 25.923 168.335 21.638 164.051" fill="#fff"/>
    </g>
    <g>
      <path d="M27.351,146.072a9.312,9.312,0,0,1-9.521-9.1c0-.142,0-.283,0-.424a9.312,9.312,0,0,1,9.1-9.521c.141,0,.283,0,.424,0a9.312,9.312,0,0,1,9.521,9.1c0,.141,0,.283,0,.424a9.312,9.312,0,0,1-9.1,9.521C27.633,146.075,27.492,146.075,27.351,146.072Z" fill="url(#linear-gradient-5)"/>
      <path d="M27.351,127.506A8.846,8.846,0,0,1,36.4,136.15c0,.134,0,.267,0,.4a8.848,8.848,0,0,1-8.644,9.045c-.134,0-.268,0-.4,0a8.848,8.848,0,0,1-9.045-8.645c0-.133,0-.267,0-.4a8.847,8.847,0,0,1,8.644-9.045c.134,0,.267,0,.4,0m0-.952a9.761,9.761,0,0,0-10,9.521c0,.158,0,.317,0,.476a9.762,9.762,0,0,0,9.521,10c.158,0,.317,0,.476,0a9.762,9.762,0,0,0,10-9.521c0-.159,0-.317,0-.476a9.762,9.762,0,0,0-9.521-10C27.668,126.55,27.51,126.55,27.351,126.554Z" fill="#6cbe45"/>
      <polygon points="21.638 136.551 21.638 136.551 23.066 135.123 23.066 135.123 23.066 135.123 25.923 137.979 31.635 132.266 31.635 132.266 31.635 132.266 33.064 133.695 33.064 133.695 33.064 133.695 25.923 140.835 21.638 136.551" fill="#fff"/>
    </g>
    <polygon points="216.43 48.824 213.266 45.643 207.438 51.471 201.611 45.643 198.43 48.824 204.241 54.651 198.43 60.462 201.611 63.643 207.422 57.831 213.249 63.66 216.43 60.479 210.602 54.651 216.43 48.824" fill="#b32025"/>
    <polygon points="216.43 75.615 213.266 72.434 207.438 78.262 201.611 72.434 198.43 75.615 204.241 81.442 198.43 87.253 201.611 90.434 207.422 84.623 213.249 90.451 216.43 87.27 210.602 81.442 216.43 75.615" fill="#b32025"/>
  </g>
  <g id="Text">
    <g>
      <path d="M37.421,20.051H36.2l-2.7-9.343a6.585,6.585,0,0,1-.155-.641,3.97,3.97,0,0,1-.065-.6h-.035a5.622,5.622,0,0,1-.255,1.222L30.2,20.051H28.975l-3.717-12.6h1.3l2.778,9.888c.064.217.115.423.153.62s.069.385.093.567h.035a8.466,8.466,0,0,1,.29-1.187L32.86,7.447h.923l2.769,9.923q.078.3.14.585c.041.19.072.376.1.558h.035a3.084,3.084,0,0,1,.07-.4q.052-.219.123-.492l2.76-10.178h1.276Z" fill="#2f2f2f"/>
      <path d="M48.829,20.051V14.76a3.684,3.684,0,0,0-.545-2.228,1.993,1.993,0,0,0-1.7-.716,2.522,2.522,0,0,0-1.9.852,3.136,3.136,0,0,0-.589,1.006,3.857,3.857,0,0,0-.219,1.341v5.036H42.756V6.727h1.125v5.88h.035a3.334,3.334,0,0,1,3.023-1.767,2.75,2.75,0,0,1,2.259.923,4.217,4.217,0,0,1,.756,2.724v5.564Z" fill="#2f2f2f"/>
      <path d="M57.649,20.051v-1.6h-.035a3.3,3.3,0,0,1-1.2,1.336,3.171,3.171,0,0,1-1.718.475,3.5,3.5,0,0,1-1.173-.185,2.508,2.508,0,0,1-.888-.523,2.3,2.3,0,0,1-.563-.813,2.707,2.707,0,0,1-.2-1.046,2.57,2.57,0,0,1,.756-1.946,4.053,4.053,0,0,1,2.285-.945l2.733-.4q0-2.592-2.013-2.592a4.4,4.4,0,0,0-2.918,1.151V11.736a3.873,3.873,0,0,1,.637-.364,5.932,5.932,0,0,1,.752-.282,6.192,6.192,0,0,1,.813-.184,5.2,5.2,0,0,1,.813-.066,2.923,2.923,0,0,1,2.273.844,3.626,3.626,0,0,1,.768,2.513v5.854Zm-2.32-4.368a7.093,7.093,0,0,0-1.037.219,2.139,2.139,0,0,0-.712.356,1.327,1.327,0,0,0-.413.554,2.2,2.2,0,0,0-.132.813,1.728,1.728,0,0,0,.127.668,1.507,1.507,0,0,0,.369.532,1.673,1.673,0,0,0,.59.347,2.337,2.337,0,0,0,.786.123,2.588,2.588,0,0,0,1.964-.861,2.968,2.968,0,0,0,.572-.967,3.534,3.534,0,0,0,.206-1.222v-.887Z" fill="#2f2f2f"/>
      <path d="M65.177,19.945a2.777,2.777,0,0,1-1.265.29q-2.179,0-2.18-2.513V12.035H60.15v-.984h1.582V8.783l1.125-.369v2.637h2.32v.984h-2.32v5.511a2.256,2.256,0,0,0,.3,1.318,1.174,1.174,0,0,0,1.011.4,1.817,1.817,0,0,0,1.01-.317Z" fill="#2f2f2f"/>
      <path d="M68.347,11.385h-1.01V7.447h1.01Z" fill="#2f2f2f"/>
      <path d="M70.364,18.434a3.513,3.513,0,0,0,.554.36,4.816,4.816,0,0,0,.615.273,3.876,3.876,0,0,0,.637.171,3.5,3.5,0,0,0,.611.057q2,0,2-1.5a1.191,1.191,0,0,0-.141-.593,1.537,1.537,0,0,0-.4-.457,3.367,3.367,0,0,0-.633-.382q-.369-.177-.835-.37a8.367,8.367,0,0,1-1.072-.518,3.239,3.239,0,0,1-.738-.576,2.07,2.07,0,0,1-.431-.685,2.392,2.392,0,0,1-.141-.849,2.138,2.138,0,0,1,.26-1.063,2.454,2.454,0,0,1,.7-.791,3.257,3.257,0,0,1,1.015-.5,4.226,4.226,0,0,1,1.209-.171,4.468,4.468,0,0,1,2.039.439v1.187a3.949,3.949,0,0,0-2.18-.65,2.648,2.648,0,0,0-.769.1,1.778,1.778,0,0,0-.593.3,1.37,1.37,0,0,0-.382.461,1.279,1.279,0,0,0-.136.594,1.5,1.5,0,0,0,.105.584,1.269,1.269,0,0,0,.33.453,2.764,2.764,0,0,0,.58.386c.236.123.526.255.865.4a10.873,10.873,0,0,1,1.125.523,3.49,3.49,0,0,1,.783.562,1.983,1.983,0,0,1,.457.677,2.334,2.334,0,0,1,.149.866,2.3,2.3,0,0,1-.25,1.081,2.347,2.347,0,0,1-.695.8,3.213,3.213,0,0,1-1.041.492,4.836,4.836,0,0,1-1.3.167,4.32,4.32,0,0,1-2.294-.571Z" fill="#2f2f2f"/>
      <path d="M83.671,8.775a.786.786,0,0,1-.563-.229.771.771,0,0,1-.237-.58.746.746,0,0,1,.237-.567.794.794,0,0,1,.563-.224.881.881,0,0,1,.316.057.759.759,0,0,1,.26.163.835.835,0,0,1,.176.25.784.784,0,0,1,.065.321.82.82,0,0,1-.061.316.777.777,0,0,1-.176.26.839.839,0,0,1-.26.171A.808.808,0,0,1,83.671,8.775Zm-.554,11.276v-9h1.125v9Z" fill="#2f2f2f"/>
      <path d="M93,20.051V14.865q0-3.049-2.215-3.049a2.556,2.556,0,0,0-1.09.232,2.611,2.611,0,0,0-.865.646,3.02,3.02,0,0,0-.572.98,3.551,3.551,0,0,0-.206,1.227v5.15H86.924v-9h1.125v1.564h.035A3.252,3.252,0,0,1,91.1,10.84a2.72,2.72,0,0,1,2.25.958,4.317,4.317,0,0,1,.774,2.769v5.484Z" fill="#2f2f2f"/>
      <path d="M102.734,19.647a4.721,4.721,0,0,1-2.426.624,4.164,4.164,0,0,1-1.74-.334,3.816,3.816,0,0,1-1.318-.954,4.221,4.221,0,0,1-.835-1.441,5.431,5.431,0,0,1-.29-1.807,5.794,5.794,0,0,1,.307-1.9,4.537,4.537,0,0,1,.9-1.556,4.246,4.246,0,0,1,1.441-1.05,4.676,4.676,0,0,1,1.951-.387,4.76,4.76,0,0,1,2.039.431v1.195a3.779,3.779,0,0,0-2.126-.65,3.218,3.218,0,0,0-1.424.3,3.045,3.045,0,0,0-1.05.826,3.662,3.662,0,0,0-.65,1.222,4.767,4.767,0,0,0-.225,1.481,4.939,4.939,0,0,0,.189,1.379,3.4,3.4,0,0,0,.58,1.165,2.816,2.816,0,0,0,.989.8,3.109,3.109,0,0,0,1.406.3,3.743,3.743,0,0,0,2.285-.756Z" fill="#2f2f2f"/>
      <path d="M104.61,20.051V6.727h1.125V20.051Z" fill="#2f2f2f"/>
      <path d="M114.381,20.051V18.522h-.036a3.006,3.006,0,0,1-2.838,1.74q-3.209,0-3.208-3.92V11.051h1.125v5.08A4.014,4.014,0,0,0,110,18.522a2.055,2.055,0,0,0,1.762.773,2.48,2.48,0,0,0,1.06-.224,2.423,2.423,0,0,0,.826-.633,2.964,2.964,0,0,0,.54-.98,3.927,3.927,0,0,0,.194-1.265V11.051h1.125v9Z" fill="#2f2f2f"/>
      <path d="M124.6,20.051V18.469h-.035a3.208,3.208,0,0,1-1.278,1.323,3.77,3.77,0,0,1-1.886.47,3.683,3.683,0,0,1-1.534-.312,3.284,3.284,0,0,1-1.182-.9,4.16,4.16,0,0,1-.759-1.424,6.126,6.126,0,0,1-.269-1.89,6.385,6.385,0,0,1,.294-1.99,4.6,4.6,0,0,1,.836-1.547,3.72,3.72,0,0,1,1.3-1,3.936,3.936,0,0,1,1.691-.356,2.922,2.922,0,0,1,2.786,1.556h.035V6.727h1.125V20.051Zm0-5.432a2.944,2.944,0,0,0-.2-1.1,2.736,2.736,0,0,0-.562-.888,2.656,2.656,0,0,0-.866-.6,2.769,2.769,0,0,0-1.112-.219,2.858,2.858,0,0,0-1.23.263,2.667,2.667,0,0,0-.962.761,3.633,3.633,0,0,0-.625,1.208,5.4,5.4,0,0,0-.224,1.617,5.327,5.327,0,0,0,.2,1.529,3.3,3.3,0,0,0,.576,1.143,2.5,2.5,0,0,0,.892.712,2.654,2.654,0,0,0,1.151.246,2.989,2.989,0,0,0,1.235-.246,2.693,2.693,0,0,0,.931-.677,3.026,3.026,0,0,0,.59-1.011,3.677,3.677,0,0,0,.206-1.239Z" fill="#2f2f2f"/>
      <path d="M129.048,15.753a5.028,5.028,0,0,0,.219,1.485,3.151,3.151,0,0,0,.607,1.117,2.6,2.6,0,0,0,.963.7,3.208,3.208,0,0,0,1.278.242,4.574,4.574,0,0,0,2.874-1.063v1.107a5.242,5.242,0,0,1-3.129.923,4.129,4.129,0,0,1-1.643-.317,3.389,3.389,0,0,1-1.257-.918,4.182,4.182,0,0,1-.8-1.481,6.555,6.555,0,0,1-.281-2,5.528,5.528,0,0,1,.307-1.872,4.626,4.626,0,0,1,.853-1.49,3.923,3.923,0,0,1,1.292-.984,3.756,3.756,0,0,1,1.635-.356,3.69,3.69,0,0,1,1.538.3,3.02,3.02,0,0,1,1.12.866,3.912,3.912,0,0,1,.69,1.371,6.432,6.432,0,0,1,.238,1.811v.562Zm5.343-.984a3.424,3.424,0,0,0-.668-2.18,2.188,2.188,0,0,0-1.784-.773,2.737,2.737,0,0,0-1.059.2,2.508,2.508,0,0,0-.857.584,3.138,3.138,0,0,0-.61.932,4.626,4.626,0,0,0-.339,1.235Z" fill="#2f2f2f"/>
      <path d="M144.068,20.051V18.469h-.035a3.214,3.214,0,0,1-1.278,1.323,3.77,3.77,0,0,1-1.886.47,3.68,3.68,0,0,1-1.534-.312,3.284,3.284,0,0,1-1.182-.9,4.179,4.179,0,0,1-.76-1.424,6.158,6.158,0,0,1-.268-1.89,6.356,6.356,0,0,1,.294-1.99,4.582,4.582,0,0,1,.836-1.547,3.726,3.726,0,0,1,1.3-1,3.944,3.944,0,0,1,1.692-.356,2.923,2.923,0,0,1,2.786,1.556h.035V6.727h1.125V20.051Zm0-5.432a2.944,2.944,0,0,0-.2-1.1,2.722,2.722,0,0,0-.563-.888,2.641,2.641,0,0,0-.865-.6,2.772,2.772,0,0,0-1.112-.219,2.862,2.862,0,0,0-1.231.263,2.664,2.664,0,0,0-.961.761,3.633,3.633,0,0,0-.625,1.208,5.4,5.4,0,0,0-.224,1.617,5.327,5.327,0,0,0,.2,1.529,3.3,3.3,0,0,0,.576,1.143,2.5,2.5,0,0,0,.892.712,2.651,2.651,0,0,0,1.151.246,2.993,2.993,0,0,0,1.235-.246,2.7,2.7,0,0,0,.931-.677,3.043,3.043,0,0,0,.59-1.011,3.677,3.677,0,0,0,.206-1.239Z" fill="#2f2f2f"/>
      <path d="M149.3,16.553a3.2,3.2,0,0,1-.149-.585,4.2,4.2,0,0,1-.062-.716,2.237,2.237,0,0,1,.141-.813,3.231,3.231,0,0,1,.369-.69,4.585,4.585,0,0,1,.532-.624q.3-.3.628-.606c.176-.164.344-.331.506-.5a3.69,3.69,0,0,0,.426-.545,2.955,2.955,0,0,0,.3-.62,2.148,2.148,0,0,0,.114-.707,1.912,1.912,0,0,0-.163-.809,1.712,1.712,0,0,0-.447-.593,2.009,2.009,0,0,0-.678-.369,2.691,2.691,0,0,0-.839-.128,3.666,3.666,0,0,0-1.459.286,4.2,4.2,0,0,0-1.248.839V8.124a5.077,5.077,0,0,1,1.341-.668,4.831,4.831,0,0,1,1.472-.22,4.125,4.125,0,0,1,1.235.181,2.889,2.889,0,0,1,1,.531,2.543,2.543,0,0,1,.668.866,2.731,2.731,0,0,1,.246,1.191,2.9,2.9,0,0,1-.136.9,3.359,3.359,0,0,1-.361.765,4.661,4.661,0,0,1-.5.659c-.187.205-.381.4-.58.589-.252.24-.474.456-.663.646a4.7,4.7,0,0,0-.479.549,2.17,2.17,0,0,0-.294.536,1.7,1.7,0,0,0-.1.607A2.931,2.931,0,0,0,150.2,16a4.753,4.753,0,0,0,.171.558Zm.545,3.656a.823.823,0,0,1-.316-.061.8.8,0,0,1-.264-.176.919.919,0,0,1-.184-.268.786.786,0,0,1-.071-.33.863.863,0,0,1,.066-.338.808.808,0,0,1,.18-.264.9.9,0,0,1,.269-.176.8.8,0,0,1,.32-.066.859.859,0,0,1,.594.238.884.884,0,0,1,.189.268.814.814,0,0,1,.07.338.8.8,0,0,1-.07.33.9.9,0,0,1-.189.268.852.852,0,0,1-.594.237Z" fill="#2f2f2f"/>
    </g>
    <g>
      <path d="M51.858,59.651h-1.6l-3.788-4.484a2.9,2.9,0,0,1-.259-.342h-.028v4.826H45.036v-9.8h1.148v4.608h.028a2.762,2.762,0,0,1,.259-.335l3.664-4.273h1.429l-4.2,4.7Z" fill="#2f2f2f"/>
      <path d="M58.353,59.651H57.232V58.544h-.027a2.3,2.3,0,0,1-2.16,1.271q-2.5,0-2.5-2.98V52.651h1.114v4.006q0,2.214,1.7,2.215a1.719,1.719,0,0,0,1.351-.6,2.322,2.322,0,0,0,.529-1.583V52.651h1.121Z" fill="#2f2f2f"/>
      <path d="M61.609,58.639h-.027v1.012H60.461V49.288h1.121v4.593h.027a2.651,2.651,0,0,1,2.42-1.394,2.561,2.561,0,0,1,2.108.94,3.875,3.875,0,0,1,.763,2.519,4.343,4.343,0,0,1-.854,2.813,2.848,2.848,0,0,1-2.338,1.056A2.3,2.3,0,0,1,61.609,58.639Zm-.027-2.823v.978a2.083,2.083,0,0,0,.563,1.473,2.012,2.012,0,0,0,3.029-.175,3.573,3.573,0,0,0,.578-2.167,2.828,2.828,0,0,0-.54-1.832,1.792,1.792,0,0,0-1.463-.663,1.985,1.985,0,0,0-1.572.68A2.5,2.5,0,0,0,61.582,55.816Z" fill="#2f2f2f"/>
      <path d="M74.306,56.431H69.364a2.617,2.617,0,0,0,.629,1.8,2.165,2.165,0,0,0,1.654.636,3.439,3.439,0,0,0,2.174-.78v1.053a4.06,4.06,0,0,1-2.44.67,2.955,2.955,0,0,1-2.331-.954,3.9,3.9,0,0,1-.848-2.683,3.824,3.824,0,0,1,.926-2.662,2.97,2.97,0,0,1,2.3-1.029,2.631,2.631,0,0,1,2.126.889,3.705,3.705,0,0,1,.752,2.467Zm-1.148-.95a2.282,2.282,0,0,0-.469-1.511,1.593,1.593,0,0,0-1.281-.54A1.809,1.809,0,0,0,70.061,54a2.569,2.569,0,0,0-.683,1.483Z" fill="#2f2f2f"/>
      <path d="M79.653,56.192H75.921V55.31h3.732Z" fill="#2f2f2f"/>
      <path d="M86.458,59.651H85.337V58.557h-.028a2.345,2.345,0,0,1-2.153,1.258,2.3,2.3,0,0,1-1.637-.554,1.919,1.919,0,0,1-.592-1.469q0-1.962,2.311-2.284l2.1-.293q0-1.785-1.443-1.785a3.446,3.446,0,0,0-2.283.862V53.143a4.346,4.346,0,0,1,2.379-.656q2.468,0,2.468,2.611ZM85.337,56.11l-1.689.232a2.743,2.743,0,0,0-1.176.387,1.116,1.116,0,0,0-.4.981,1.068,1.068,0,0,0,.366.837,1.413,1.413,0,0,0,.974.325,1.8,1.8,0,0,0,1.378-.585,2.088,2.088,0,0,0,.543-1.48Z" fill="#2f2f2f"/>
      <path d="M89.628,58.639H89.6v4.232H88.479V52.651H89.6v1.23h.028a2.651,2.651,0,0,1,2.42-1.394,2.562,2.562,0,0,1,2.112.94,3.891,3.891,0,0,1,.759,2.519,4.332,4.332,0,0,1-.855,2.813,2.843,2.843,0,0,1-2.338,1.056A2.342,2.342,0,0,1,89.628,58.639ZM89.6,55.816v.978a2.084,2.084,0,0,0,.565,1.473,2.011,2.011,0,0,0,3.028-.175,3.573,3.573,0,0,0,.577-2.167,2.817,2.817,0,0,0-.54-1.832,1.788,1.788,0,0,0-1.463-.663,1.989,1.989,0,0,0-1.572.68A2.5,2.5,0,0,0,89.6,55.816Z" fill="#2f2f2f"/>
      <path d="M97.193,50.874a.713.713,0,0,1-.513-.205.694.694,0,0,1-.212-.52.717.717,0,0,1,.725-.731.724.724,0,0,1,.523.208.731.731,0,0,1,0,1.036A.72.72,0,0,1,97.193,50.874Zm.547,8.777H96.619v-7H97.74Z" fill="#2f2f2f"/>
      <path d="M99.457,59.4V58.2a3.32,3.32,0,0,0,2.016.677q1.478,0,1.477-.985a.856.856,0,0,0-.126-.475,1.259,1.259,0,0,0-.342-.345,2.634,2.634,0,0,0-.506-.27c-.194-.08-.4-.163-.626-.249a8.341,8.341,0,0,1-.816-.373,2.483,2.483,0,0,1-.588-.424,1.568,1.568,0,0,1-.355-.536,1.879,1.879,0,0,1-.121-.705,1.675,1.675,0,0,1,.226-.871,2.006,2.006,0,0,1,.6-.636,2.8,2.8,0,0,1,.858-.386,3.781,3.781,0,0,1,.994-.13,4.022,4.022,0,0,1,1.627.314v1.135A3.171,3.171,0,0,0,102,53.43a2.081,2.081,0,0,0-.568.072,1.376,1.376,0,0,0-.433.2.923.923,0,0,0-.281.311.818.818,0,0,0-.1.4.961.961,0,0,0,.1.458,1.019,1.019,0,0,0,.291.328,2.241,2.241,0,0,0,.464.26q.275.115.622.253a8.495,8.495,0,0,1,.834.365,2.867,2.867,0,0,1,.629.424,1.646,1.646,0,0,1,.4.544,1.756,1.756,0,0,1,.139.731,1.73,1.73,0,0,1-.228.9,1.956,1.956,0,0,1-.612.636,2.789,2.789,0,0,1-.882.376,4.35,4.35,0,0,1-1.046.123A3.972,3.972,0,0,1,99.457,59.4Z" fill="#2f2f2f"/>
      <path d="M111.412,56.431h-4.943a2.627,2.627,0,0,0,.629,1.8,2.172,2.172,0,0,0,1.655.636,3.437,3.437,0,0,0,2.174-.78v1.053a4.063,4.063,0,0,1-2.441.67,2.959,2.959,0,0,1-2.331-.954,3.907,3.907,0,0,1-.848-2.683,3.825,3.825,0,0,1,.927-2.662,2.968,2.968,0,0,1,2.3-1.029,2.63,2.63,0,0,1,2.126.889,3.7,3.7,0,0,1,.752,2.467Zm-1.149-.95a2.277,2.277,0,0,0-.467-1.511,1.6,1.6,0,0,0-1.283-.54,1.808,1.808,0,0,0-1.346.568,2.576,2.576,0,0,0-.684,1.483Z" fill="#2f2f2f"/>
      <path d="M116.745,53.786a1.366,1.366,0,0,0-.848-.226,1.43,1.43,0,0,0-1.2.677,3.13,3.13,0,0,0-.482,1.846v3.568h-1.122v-7h1.122v1.442h.027a2.443,2.443,0,0,1,.731-1.151,1.669,1.669,0,0,1,1.1-.414,1.821,1.821,0,0,1,.67.1Z" fill="#2f2f2f"/>
      <path d="M124.018,52.651l-2.789,7h-1.1l-2.653-7h1.231l1.777,5.086a4.573,4.573,0,0,1,.246.978h.028a4.538,4.538,0,0,1,.218-.951l1.86-5.113Z" fill="#2f2f2f"/>
      <path d="M130.659,56.431h-4.942a2.622,2.622,0,0,0,.628,1.8,2.172,2.172,0,0,0,1.655.636,3.437,3.437,0,0,0,2.174-.78v1.053a4.063,4.063,0,0,1-2.441.67,2.96,2.96,0,0,1-2.331-.954,3.907,3.907,0,0,1-.848-2.683,3.825,3.825,0,0,1,.927-2.662,2.968,2.968,0,0,1,2.3-1.029,2.63,2.63,0,0,1,2.126.889,3.7,3.7,0,0,1,.752,2.467Zm-1.149-.95a2.277,2.277,0,0,0-.467-1.511,1.6,1.6,0,0,0-1.283-.54,1.808,1.808,0,0,0-1.346.568,2.576,2.576,0,0,0-.684,1.483Z" fill="#2f2f2f"/>
      <path d="M135.993,53.786a1.368,1.368,0,0,0-.848-.226,1.432,1.432,0,0,0-1.2.677,3.13,3.13,0,0,0-.481,1.846v3.568h-1.121v-7h1.121v1.442h.027a2.435,2.435,0,0,1,.731-1.151,1.669,1.669,0,0,1,1.1-.414,1.828,1.828,0,0,1,.67.1Z" fill="#2f2f2f"/>
      <path d="M51.858,86.651h-1.6l-3.788-4.484a2.9,2.9,0,0,1-.259-.342h-.028v4.826H45.036v-9.8h1.148v4.608h.028a2.762,2.762,0,0,1,.259-.335l3.664-4.273h1.429l-4.2,4.7Z" fill="#2f2f2f"/>
      <path d="M58.353,86.651H57.232V85.544h-.027a2.3,2.3,0,0,1-2.16,1.271q-2.5,0-2.5-2.98V79.651h1.114v4.006q0,2.214,1.7,2.215a1.719,1.719,0,0,0,1.351-.605,2.322,2.322,0,0,0,.529-1.583V79.651h1.121Z" fill="#2f2f2f"/>
      <path d="M61.609,85.639h-.027v1.012H60.461V76.288h1.121v4.593h.027a2.651,2.651,0,0,1,2.42-1.394,2.561,2.561,0,0,1,2.108.94,3.875,3.875,0,0,1,.763,2.519,4.343,4.343,0,0,1-.854,2.813,2.848,2.848,0,0,1-2.338,1.056A2.3,2.3,0,0,1,61.609,85.639Zm-.027-2.823v.978a2.083,2.083,0,0,0,.563,1.473,2.012,2.012,0,0,0,3.029-.175,3.573,3.573,0,0,0,.578-2.167,2.828,2.828,0,0,0-.54-1.832,1.792,1.792,0,0,0-1.463-.663,1.985,1.985,0,0,0-1.572.68A2.5,2.5,0,0,0,61.582,82.816Z" fill="#2f2f2f"/>
      <path d="M74.306,83.431H69.364a2.617,2.617,0,0,0,.629,1.805,2.165,2.165,0,0,0,1.654.636,3.439,3.439,0,0,0,2.174-.78v1.053a4.06,4.06,0,0,1-2.44.67,2.955,2.955,0,0,1-2.331-.954,3.9,3.9,0,0,1-.848-2.683,3.824,3.824,0,0,1,.926-2.662,2.97,2.97,0,0,1,2.3-1.029,2.631,2.631,0,0,1,2.126.889,3.705,3.705,0,0,1,.752,2.467Zm-1.148-.95a2.282,2.282,0,0,0-.469-1.511,1.593,1.593,0,0,0-1.281-.54A1.809,1.809,0,0,0,70.061,81a2.569,2.569,0,0,0-.683,1.483Z" fill="#2f2f2f"/>
      <path d="M77.1,86.651H75.98V76.288H77.1Z" fill="#2f2f2f"/>
      <path d="M84.939,83.431H80a2.617,2.617,0,0,0,.629,1.805,2.168,2.168,0,0,0,1.654.636,3.435,3.435,0,0,0,2.174-.78v1.053a4.061,4.061,0,0,1-2.441.67,2.96,2.96,0,0,1-2.331-.954,3.907,3.907,0,0,1-.847-2.683,3.824,3.824,0,0,1,.926-2.662,2.97,2.97,0,0,1,2.3-1.029,2.63,2.63,0,0,1,2.126.889,3.7,3.7,0,0,1,.752,2.467Zm-1.148-.95a2.277,2.277,0,0,0-.468-1.511,1.6,1.6,0,0,0-1.282-.54A1.809,1.809,0,0,0,80.694,81a2.576,2.576,0,0,0-.684,1.483Z" fill="#2f2f2f"/>
      <path d="M89.864,86.583a2.162,2.162,0,0,1-1.046.218q-1.839,0-1.839-2.05V80.608h-1.2v-.957h1.2V77.942L88.1,77.58v2.071h1.764v.957H88.1v3.944a1.623,1.623,0,0,0,.24,1,.952.952,0,0,0,.793.3,1.184,1.184,0,0,0,.731-.232Z" fill="#2f2f2f"/>
      <path d="M51.858,113.651h-1.6l-3.788-4.484a2.9,2.9,0,0,1-.259-.342h-.028v4.826H45.036v-9.8h1.148v4.608h.028a2.762,2.762,0,0,1,.259-.335l3.664-4.273h1.429l-4.2,4.7Z" fill="#2f2f2f"/>
      <path d="M58.353,113.651H57.232v-1.107h-.027a2.3,2.3,0,0,1-2.16,1.271q-2.5,0-2.5-2.98v-4.184h1.114v4.006q0,2.214,1.7,2.215a1.719,1.719,0,0,0,1.351-.605,2.322,2.322,0,0,0,.529-1.583v-4.033h1.121Z" fill="#2f2f2f"/>
      <path d="M61.609,112.639h-.027v1.012H60.461V103.288h1.121v4.593h.027a2.651,2.651,0,0,1,2.42-1.394,2.561,2.561,0,0,1,2.108.94,3.875,3.875,0,0,1,.763,2.519,4.343,4.343,0,0,1-.854,2.813,2.848,2.848,0,0,1-2.338,1.056A2.3,2.3,0,0,1,61.609,112.639Zm-.027-2.823v.978a2.083,2.083,0,0,0,.563,1.473,2.012,2.012,0,0,0,3.029-.175,3.573,3.573,0,0,0,.578-2.167,2.828,2.828,0,0,0-.54-1.832,1.792,1.792,0,0,0-1.463-.663,1.985,1.985,0,0,0-1.572.68A2.5,2.5,0,0,0,61.582,109.816Z" fill="#2f2f2f"/>
      <path d="M74.306,110.431H69.364a2.617,2.617,0,0,0,.629,1.805,2.165,2.165,0,0,0,1.654.636,3.439,3.439,0,0,0,2.174-.78v1.053a4.06,4.06,0,0,1-2.44.67,2.955,2.955,0,0,1-2.331-.954,3.9,3.9,0,0,1-.848-2.683,3.824,3.824,0,0,1,.926-2.662,2.97,2.97,0,0,1,2.3-1.029,2.631,2.631,0,0,1,2.126.889,3.705,3.705,0,0,1,.752,2.467Zm-1.148-.95a2.282,2.282,0,0,0-.469-1.511,1.593,1.593,0,0,0-1.281-.54,1.809,1.809,0,0,0-1.347.568,2.569,2.569,0,0,0-.683,1.483Z" fill="#2f2f2f"/>
      <path d="M79.653,110.192H75.921v-.882h3.732Z" fill="#2f2f2f"/>
      <path d="M86.5,113.33a3.649,3.649,0,0,1-1.914.485,3.172,3.172,0,0,1-2.417-.974,3.529,3.529,0,0,1-.919-2.526,3.881,3.881,0,0,1,.991-2.779,3.467,3.467,0,0,1,2.645-1.049,3.677,3.677,0,0,1,1.627.342v1.148a2.848,2.848,0,0,0-1.668-.547,2.256,2.256,0,0,0-1.76.769,2.919,2.919,0,0,0-.687,2.02,2.778,2.778,0,0,0,.646,1.942,2.227,2.227,0,0,0,1.733.711,2.811,2.811,0,0,0,1.723-.609Z" fill="#2f2f2f"/>
      <path d="M90.939,113.815a3.245,3.245,0,0,1-2.477-.981,3.627,3.627,0,0,1-.927-2.6,3.784,3.784,0,0,1,.964-2.755,3.467,3.467,0,0,1,2.6-.991,3.141,3.141,0,0,1,2.445.964,3.824,3.824,0,0,1,.878,2.673,3.764,3.764,0,0,1-.947,2.683A3.319,3.319,0,0,1,90.939,113.815Zm.082-6.385a2.135,2.135,0,0,0-1.709.735,3.021,3.021,0,0,0-.629,2.027,2.854,2.854,0,0,0,.636,1.962,2.162,2.162,0,0,0,1.7.718,2.052,2.052,0,0,0,1.672-.7,3.056,3.056,0,0,0,.584-2,3.108,3.108,0,0,0-.584-2.024A2.042,2.042,0,0,0,91.021,107.43Z" fill="#2f2f2f"/>
      <path d="M101.952,113.651h-1.121v-3.992q0-2.229-1.627-2.229a1.765,1.765,0,0,0-1.392.633,2.346,2.346,0,0,0-.55,1.6v3.992H96.141v-7h1.121v1.162h.028a2.526,2.526,0,0,1,2.3-1.326,2.14,2.14,0,0,1,1.756.742,3.3,3.3,0,0,1,.609,2.143Z" fill="#2f2f2f"/>
      <path d="M107.18,113.583a2.153,2.153,0,0,1-1.045.218q-1.839,0-1.839-2.05v-4.143h-1.2v-.957h1.2v-1.709l1.121-.362v2.071h1.763v.957h-1.763v3.944a1.637,1.637,0,0,0,.239,1,.954.954,0,0,0,.793.3,1.182,1.182,0,0,0,.731-.232Z" fill="#2f2f2f"/>
      <path d="M112.212,107.786a1.368,1.368,0,0,0-.848-.226,1.429,1.429,0,0,0-1.2.677,3.123,3.123,0,0,0-.483,1.846v3.568h-1.121v-7h1.121v1.442h.028a2.443,2.443,0,0,1,.731-1.151,1.667,1.667,0,0,1,1.1-.414,1.824,1.824,0,0,1,.67.1Z" fill="#2f2f2f"/>
      <path d="M116.354,113.815a3.245,3.245,0,0,1-2.477-.981,3.632,3.632,0,0,1-.927-2.6,3.784,3.784,0,0,1,.964-2.755,3.467,3.467,0,0,1,2.6-.991,3.141,3.141,0,0,1,2.445.964,3.824,3.824,0,0,1,.878,2.673,3.764,3.764,0,0,1-.947,2.683A3.319,3.319,0,0,1,116.354,113.815Zm.082-6.385a2.135,2.135,0,0,0-1.709.735,3.021,3.021,0,0,0-.629,2.027,2.854,2.854,0,0,0,.636,1.962,2.162,2.162,0,0,0,1.7.718,2.052,2.052,0,0,0,1.672-.7,3.056,3.056,0,0,0,.584-2,3.108,3.108,0,0,0-.584-2.024A2.042,2.042,0,0,0,116.436,107.43Z" fill="#2f2f2f"/>
      <path d="M122.671,113.651H121.55V103.288h1.121Z" fill="#2f2f2f"/>
      <path d="M125.9,113.651H124.78V103.288H125.9Z" fill="#2f2f2f"/>
      <path d="M133.74,110.431H128.8a2.608,2.608,0,0,0,.629,1.805,2.165,2.165,0,0,0,1.654.636,3.441,3.441,0,0,0,2.174-.78v1.053a4.063,4.063,0,0,1-2.441.67,2.958,2.958,0,0,1-2.331-.954,3.9,3.9,0,0,1-.848-2.683,3.829,3.829,0,0,1,.926-2.662,2.972,2.972,0,0,1,2.3-1.029,2.631,2.631,0,0,1,2.126.889,3.705,3.705,0,0,1,.752,2.467Zm-1.148-.95a2.288,2.288,0,0,0-.469-1.511,1.6,1.6,0,0,0-1.281-.54A1.807,1.807,0,0,0,129.5,108a2.57,2.57,0,0,0-.684,1.483Z" fill="#2f2f2f"/>
      <path d="M139.073,107.786a1.368,1.368,0,0,0-.848-.226,1.432,1.432,0,0,0-1.2.677,3.13,3.13,0,0,0-.481,1.846v3.568h-1.121v-7h1.121v1.442h.027a2.435,2.435,0,0,1,.731-1.151,1.669,1.669,0,0,1,1.1-.414,1.828,1.828,0,0,1,.67.1Z" fill="#2f2f2f"/>
      <path d="M51.858,140.651h-1.6l-3.788-4.484a2.9,2.9,0,0,1-.259-.342h-.028v4.826H45.036v-9.8h1.148v4.608h.028a2.762,2.762,0,0,1,.259-.335l3.664-4.273h1.429l-4.2,4.7Z" fill="#2f2f2f"/>
      <path d="M58.353,140.651H57.232v-1.107h-.027a2.3,2.3,0,0,1-2.16,1.271q-2.5,0-2.5-2.98v-4.184h1.114v4.006q0,2.214,1.7,2.215a1.719,1.719,0,0,0,1.351-.605,2.322,2.322,0,0,0,.529-1.583v-4.033h1.121Z" fill="#2f2f2f"/>
      <path d="M61.609,139.639h-.027v1.012H60.461V130.288h1.121v4.593h.027a2.651,2.651,0,0,1,2.42-1.394,2.561,2.561,0,0,1,2.108.94,3.875,3.875,0,0,1,.763,2.519,4.343,4.343,0,0,1-.854,2.813,2.848,2.848,0,0,1-2.338,1.056A2.3,2.3,0,0,1,61.609,139.639Zm-.027-2.823v.978a2.083,2.083,0,0,0,.563,1.473,2.012,2.012,0,0,0,3.029-.175,3.573,3.573,0,0,0,.578-2.167,2.828,2.828,0,0,0-.54-1.832,1.792,1.792,0,0,0-1.463-.663,1.985,1.985,0,0,0-1.572.68A2.5,2.5,0,0,0,61.582,136.816Z" fill="#2f2f2f"/>
      <path d="M74.306,137.431H69.364a2.617,2.617,0,0,0,.629,1.8,2.165,2.165,0,0,0,1.654.636,3.439,3.439,0,0,0,2.174-.78v1.053a4.06,4.06,0,0,1-2.44.67,2.955,2.955,0,0,1-2.331-.954,3.9,3.9,0,0,1-.848-2.683,3.824,3.824,0,0,1,.926-2.662,2.97,2.97,0,0,1,2.3-1.029,2.631,2.631,0,0,1,2.126.889,3.705,3.705,0,0,1,.752,2.467Zm-1.148-.95a2.282,2.282,0,0,0-.469-1.511,1.593,1.593,0,0,0-1.281-.54,1.809,1.809,0,0,0-1.347.568,2.569,2.569,0,0,0-.683,1.483Z" fill="#2f2f2f"/>
      <path d="M79.653,137.192H75.921v-.882h3.732Z" fill="#2f2f2f"/>
      <path d="M82.711,139.639h-.028v4.232H81.562v-10.22h1.121v1.23h.028a2.649,2.649,0,0,1,2.42-1.394,2.562,2.562,0,0,1,2.112.94A3.891,3.891,0,0,1,88,136.946a4.337,4.337,0,0,1-.855,2.813,2.846,2.846,0,0,1-2.338,1.056A2.341,2.341,0,0,1,82.711,139.639Zm-.028-2.823v.978a2.083,2.083,0,0,0,.564,1.473,2.011,2.011,0,0,0,3.028-.175,3.566,3.566,0,0,0,.578-2.167,2.823,2.823,0,0,0-.54-1.832,1.789,1.789,0,0,0-1.463-.663,1.987,1.987,0,0,0-1.572.68A2.5,2.5,0,0,0,82.683,136.816Z" fill="#2f2f2f"/>
      <path d="M93.369,134.786a1.368,1.368,0,0,0-.848-.226,1.432,1.432,0,0,0-1.2.677,3.13,3.13,0,0,0-.481,1.846v3.568H89.718v-7H90.84v1.442h.027a2.435,2.435,0,0,1,.731-1.151,1.669,1.669,0,0,1,1.1-.414,1.828,1.828,0,0,1,.67.1Z" fill="#2f2f2f"/>
      <path d="M97.511,140.815a3.247,3.247,0,0,1-2.478-.981,3.636,3.636,0,0,1-.926-2.6,3.784,3.784,0,0,1,.964-2.755,3.47,3.47,0,0,1,2.605-.991,3.138,3.138,0,0,1,2.443.964,3.82,3.82,0,0,1,.879,2.673,3.764,3.764,0,0,1-.947,2.683A3.319,3.319,0,0,1,97.511,140.815Zm.082-6.385a2.129,2.129,0,0,0-1.708.735,3.015,3.015,0,0,0-.629,2.027,2.858,2.858,0,0,0,.635,1.962,2.164,2.164,0,0,0,1.7.718,2.048,2.048,0,0,0,1.671-.7,3.056,3.056,0,0,0,.585-2,3.108,3.108,0,0,0-.585-2.024A2.038,2.038,0,0,0,97.593,134.43Z" fill="#2f2f2f"/>
      <path d="M107.657,133.651l-2.352,3.541,2.311,3.459H106.31l-1.374-2.27c-.087-.141-.189-.318-.307-.533H104.6q-.034.061-.321.533l-1.4,2.27h-1.292l2.385-3.432-2.283-3.568H103l1.353,2.393c.1.177.2.359.294.546h.028l1.75-2.939Z" fill="#2f2f2f"/>
      <path d="M115.049,133.651l-3.22,8.121q-.861,2.174-2.42,2.174a2.586,2.586,0,0,1-.732-.089v-1a2.089,2.089,0,0,0,.664.123,1.373,1.373,0,0,0,1.271-1.011l.561-1.327-2.735-6.986h1.244l1.894,5.387q.035.1.143.533h.041c.024-.109.069-.283.137-.52l1.989-5.4Z" fill="#2f2f2f"/>
      <path d="M51.858,167.651h-1.6l-3.788-4.484a2.9,2.9,0,0,1-.259-.342h-.028v4.826H45.036v-9.8h1.148v4.608h.028a2.762,2.762,0,0,1,.259-.335l3.664-4.273h1.429l-4.2,4.7Z" fill="#2f2f2f"/>
      <path d="M58.353,167.651H57.232v-1.107h-.027a2.3,2.3,0,0,1-2.16,1.271q-2.5,0-2.5-2.98v-4.184h1.114v4.006q0,2.214,1.7,2.215a1.719,1.719,0,0,0,1.351-.605,2.322,2.322,0,0,0,.529-1.583v-4.033h1.121Z" fill="#2f2f2f"/>
      <path d="M61.609,166.639h-.027v1.012H60.461V157.288h1.121v4.593h.027a2.651,2.651,0,0,1,2.42-1.394,2.561,2.561,0,0,1,2.108.94,3.875,3.875,0,0,1,.763,2.519,4.343,4.343,0,0,1-.854,2.813,2.848,2.848,0,0,1-2.338,1.056A2.3,2.3,0,0,1,61.609,166.639Zm-.027-2.823v.978a2.083,2.083,0,0,0,.563,1.473,2.012,2.012,0,0,0,3.029-.175,3.573,3.573,0,0,0,.578-2.167,2.828,2.828,0,0,0-.54-1.832,1.792,1.792,0,0,0-1.463-.663,1.985,1.985,0,0,0-1.572.68A2.5,2.5,0,0,0,61.582,163.816Z" fill="#2f2f2f"/>
      <path d="M74.306,164.431H69.364a2.617,2.617,0,0,0,.629,1.8,2.165,2.165,0,0,0,1.654.636,3.439,3.439,0,0,0,2.174-.78v1.053a4.06,4.06,0,0,1-2.44.67,2.955,2.955,0,0,1-2.331-.954,3.9,3.9,0,0,1-.848-2.683,3.824,3.824,0,0,1,.926-2.662,2.97,2.97,0,0,1,2.3-1.029,2.631,2.631,0,0,1,2.126.889,3.705,3.705,0,0,1,.752,2.467Zm-1.148-.95a2.282,2.282,0,0,0-.469-1.511,1.593,1.593,0,0,0-1.281-.54,1.809,1.809,0,0,0-1.347.568,2.569,2.569,0,0,0-.683,1.483Z" fill="#2f2f2f"/>
      <path d="M79.653,164.192H75.921v-.882h3.732Z" fill="#2f2f2f"/>
      <path d="M81.1,167.4v-1.2a3.322,3.322,0,0,0,2.017.677q1.476,0,1.476-.985a.856.856,0,0,0-.126-.475,1.269,1.269,0,0,0-.341-.345,2.7,2.7,0,0,0-.506-.27c-.195-.08-.4-.163-.626-.249a8.366,8.366,0,0,1-.817-.373,2.5,2.5,0,0,1-.588-.424,1.568,1.568,0,0,1-.355-.536,1.9,1.9,0,0,1-.12-.705,1.674,1.674,0,0,1,.225-.871,2.017,2.017,0,0,1,.6-.636,2.8,2.8,0,0,1,.858-.386,3.794,3.794,0,0,1,1-.13,4.029,4.029,0,0,1,1.627.314v1.135a3.175,3.175,0,0,0-1.778-.506,2.074,2.074,0,0,0-.567.072,1.382,1.382,0,0,0-.434.2.909.909,0,0,0-.28.311.819.819,0,0,0-.1.4.961.961,0,0,0,.1.458,1,1,0,0,0,.29.328,2.25,2.25,0,0,0,.465.26q.273.115.622.253a8.6,8.6,0,0,1,.834.365,2.891,2.891,0,0,1,.629.424,1.643,1.643,0,0,1,.4.544,1.756,1.756,0,0,1,.14.731,1.721,1.721,0,0,1-.229.9,1.945,1.945,0,0,1-.612.636,2.789,2.789,0,0,1-.882.376,4.344,4.344,0,0,1-1.046.123A3.978,3.978,0,0,1,81.1,167.4Z" fill="#2f2f2f"/>
      <path d="M92.213,167.33a3.649,3.649,0,0,1-1.914.485,3.172,3.172,0,0,1-2.417-.974,3.529,3.529,0,0,1-.919-2.526,3.881,3.881,0,0,1,.991-2.779,3.467,3.467,0,0,1,2.645-1.049,3.677,3.677,0,0,1,1.627.342v1.148a2.848,2.848,0,0,0-1.668-.547,2.256,2.256,0,0,0-1.76.769,2.919,2.919,0,0,0-.687,2.02,2.778,2.778,0,0,0,.646,1.942,2.225,2.225,0,0,0,1.733.711,2.811,2.811,0,0,0,1.723-.609Z" fill="#2f2f2f"/>
      <path d="M99.511,167.651H98.39v-4.033q0-2.189-1.627-2.188a1.771,1.771,0,0,0-1.38.633,2.354,2.354,0,0,0-.561,1.623v3.965H93.7V157.288h1.121v4.525h.027a2.545,2.545,0,0,1,2.3-1.326q2.364,0,2.365,2.851Z" fill="#2f2f2f"/>
      <path d="M107.215,164.431h-4.943a2.617,2.617,0,0,0,.629,1.8,2.167,2.167,0,0,0,1.654.636,3.439,3.439,0,0,0,2.174-.78v1.053a4.058,4.058,0,0,1-2.44.67,2.956,2.956,0,0,1-2.331-.954,3.9,3.9,0,0,1-.848-2.683,3.829,3.829,0,0,1,.926-2.662,2.972,2.972,0,0,1,2.3-1.029,2.631,2.631,0,0,1,2.126.889,3.705,3.705,0,0,1,.752,2.467Zm-1.149-.95a2.282,2.282,0,0,0-.469-1.511,1.593,1.593,0,0,0-1.281-.54,1.81,1.81,0,0,0-1.347.568,2.569,2.569,0,0,0-.683,1.483Z" fill="#2f2f2f"/>
      <path d="M114.946,167.651h-1.121v-1.189H113.8a2.826,2.826,0,0,1-4.516.413,3.857,3.857,0,0,1-.789-2.56,4.19,4.19,0,0,1,.875-2.782,2.886,2.886,0,0,1,2.331-1.046,2.245,2.245,0,0,1,2.1,1.135h.027v-4.334h1.121Zm-1.121-3.165v-1.032a2.007,2.007,0,0,0-.561-1.436,1.879,1.879,0,0,0-1.421-.588,1.938,1.938,0,0,0-1.614.752,3.3,3.3,0,0,0-.588,2.078,2.964,2.964,0,0,0,.564,1.911,1.844,1.844,0,0,0,1.514.7,1.916,1.916,0,0,0,1.521-.677A2.52,2.52,0,0,0,113.825,164.486Z" fill="#2f2f2f"/>
      <path d="M122.773,167.651h-1.121v-1.107h-.027a2.3,2.3,0,0,1-2.16,1.271q-2.5,0-2.5-2.98v-4.184h1.114v4.006q0,2.214,1.7,2.215a1.719,1.719,0,0,0,1.351-.605,2.322,2.322,0,0,0,.529-1.583v-4.033h1.121Z" fill="#2f2f2f"/>
      <path d="M126,167.651H124.88V157.288H126Z" fill="#2f2f2f"/>
      <path d="M133.839,164.431H128.9a2.617,2.617,0,0,0,.629,1.8,2.167,2.167,0,0,0,1.654.636,3.437,3.437,0,0,0,2.174-.78v1.053a4.058,4.058,0,0,1-2.44.67,2.956,2.956,0,0,1-2.331-.954,3.9,3.9,0,0,1-.848-2.683,3.829,3.829,0,0,1,.926-2.662,2.972,2.972,0,0,1,2.3-1.029,2.631,2.631,0,0,1,2.126.889,3.705,3.705,0,0,1,.752,2.467Zm-1.149-.95a2.282,2.282,0,0,0-.469-1.511,1.593,1.593,0,0,0-1.281-.54,1.81,1.81,0,0,0-1.347.568,2.569,2.569,0,0,0-.683,1.483Z" fill="#2f2f2f"/>
      <path d="M139.172,161.786a1.37,1.37,0,0,0-.848-.226,1.431,1.431,0,0,0-1.2.677,3.123,3.123,0,0,0-.482,1.846v3.568h-1.121v-7h1.121v1.442h.028a2.435,2.435,0,0,1,.731-1.151,1.665,1.665,0,0,1,1.1-.414,1.832,1.832,0,0,1,.67.1Z" fill="#2f2f2f"/>
    </g>
    <g>
      <path d="M217.946,20.051h-1.222l-2.7-9.343c-.064-.223-.115-.436-.153-.641a3.98,3.98,0,0,1-.067-.6h-.035a5.506,5.506,0,0,1-.255,1.222l-2.795,9.36H209.5l-3.718-12.6h1.3l2.777,9.888a6.36,6.36,0,0,1,.154.62q.057.294.092.567h.035a8.613,8.613,0,0,1,.29-1.187l2.954-9.888h.922l2.769,9.923q.079.3.141.585t.1.558h.035a3.1,3.1,0,0,1,.071-.4q.052-.219.123-.492L220.3,7.447h1.274Z" fill="#2f2f2f"/>
      <path d="M229.354,20.051V14.76a3.677,3.677,0,0,0-.545-2.228,1.992,1.992,0,0,0-1.7-.716,2.518,2.518,0,0,0-1.9.852,3.1,3.1,0,0,0-.589,1.006,3.833,3.833,0,0,0-.22,1.341v5.036h-1.125V6.727h1.125v5.88h.035a3.334,3.334,0,0,1,3.024-1.767,2.748,2.748,0,0,1,2.258.923,4.217,4.217,0,0,1,.756,2.724v5.564Z" fill="#2f2f2f"/>
      <path d="M238.175,20.051v-1.6h-.036a3.3,3.3,0,0,1-1.2,1.336,3.171,3.171,0,0,1-1.718.475,3.5,3.5,0,0,1-1.172-.185,2.5,2.5,0,0,1-.889-.523,2.309,2.309,0,0,1-.563-.813,2.726,2.726,0,0,1-.2-1.046,2.57,2.57,0,0,1,.756-1.946,4.056,4.056,0,0,1,2.285-.945l2.734-.4q0-2.592-2.013-2.592a4.4,4.4,0,0,0-2.918,1.151V11.736a3.792,3.792,0,0,1,.637-.364,5.932,5.932,0,0,1,.752-.282,6.177,6.177,0,0,1,.812-.184,5.21,5.21,0,0,1,.814-.066,2.922,2.922,0,0,1,2.272.844A3.621,3.621,0,0,1,239.3,14.2v5.854Zm-2.321-4.368a7.093,7.093,0,0,0-1.037.219,2.149,2.149,0,0,0-.712.356,1.336,1.336,0,0,0-.413.554,2.2,2.2,0,0,0-.132.813,1.728,1.728,0,0,0,.127.668,1.507,1.507,0,0,0,.369.532,1.691,1.691,0,0,0,.59.347,2.341,2.341,0,0,0,.786.123,2.588,2.588,0,0,0,1.964-.861,2.951,2.951,0,0,0,.572-.967,3.534,3.534,0,0,0,.207-1.222v-.887Z" fill="#2f2f2f"/>
      <path d="M245.7,19.945a2.784,2.784,0,0,1-1.266.29q-2.18,0-2.179-2.513V12.035h-1.582v-.984h1.582V8.783l1.125-.369v2.637h2.32v.984h-2.32v5.511a2.257,2.257,0,0,0,.3,1.318,1.176,1.176,0,0,0,1.011.4,1.818,1.818,0,0,0,1.011-.317Z" fill="#2f2f2f"/>
      <path d="M248.873,11.385h-1.011V7.447h1.011Z" fill="#2f2f2f"/>
      <path d="M250.889,18.434a3.56,3.56,0,0,0,.554.36,4.816,4.816,0,0,0,.615.273,3.876,3.876,0,0,0,.637.171,3.5,3.5,0,0,0,.611.057q2,0,2-1.5a1.2,1.2,0,0,0-.14-.593,1.555,1.555,0,0,0-.405-.457,3.325,3.325,0,0,0-.632-.382q-.371-.177-.835-.37a8.385,8.385,0,0,1-1.073-.518,3.261,3.261,0,0,1-.738-.576,2.086,2.086,0,0,1-.431-.685,2.415,2.415,0,0,1-.14-.849,2.138,2.138,0,0,1,.26-1.063,2.443,2.443,0,0,1,.7-.791,3.263,3.263,0,0,1,1.014-.5,4.231,4.231,0,0,1,1.209-.171,4.465,4.465,0,0,1,2.039.439v1.187a3.946,3.946,0,0,0-2.179-.65,2.66,2.66,0,0,0-.77.1,1.8,1.8,0,0,0-.593.3,1.356,1.356,0,0,0-.381.461,1.279,1.279,0,0,0-.137.594,1.5,1.5,0,0,0,.105.584,1.281,1.281,0,0,0,.33.453,2.747,2.747,0,0,0,.581.386q.354.184.865.4a11.072,11.072,0,0,1,1.125.523,3.5,3.5,0,0,1,.782.562,1.983,1.983,0,0,1,.457.677,2.517,2.517,0,0,1-.1,1.947,2.347,2.347,0,0,1-.7.8,3.2,3.2,0,0,1-1.041.492,4.831,4.831,0,0,1-1.3.167,4.32,4.32,0,0,1-2.294-.571Z" fill="#2f2f2f"/>
      <path d="M269.716,20.051V14.865q0-3.049-2.215-3.049a2.556,2.556,0,0,0-1.09.232,2.611,2.611,0,0,0-.865.646,3.04,3.04,0,0,0-.573.98,3.575,3.575,0,0,0-.206,1.227v5.15h-1.125v-9h1.125v1.564h.035a3.252,3.252,0,0,1,3.015-1.775,2.72,2.72,0,0,1,2.25.958,4.317,4.317,0,0,1,.774,2.769v5.484Z" fill="#2f2f2f"/>
      <path d="M277.151,20.262a4.594,4.594,0,0,1-1.8-.334A3.844,3.844,0,0,1,274,18.983a4.158,4.158,0,0,1-.861-1.463,5.668,5.668,0,0,1-.3-1.89,5.973,5.973,0,0,1,.316-2.013,4.238,4.238,0,0,1,.9-1.507,3.847,3.847,0,0,1,1.411-.945,4.993,4.993,0,0,1,1.845-.325,4.589,4.589,0,0,1,1.758.321,3.585,3.585,0,0,1,1.327.927,4.116,4.116,0,0,1,.835,1.477,6.22,6.22,0,0,1,.29,1.977,5.765,5.765,0,0,1-.3,1.921,4.332,4.332,0,0,1-.866,1.489,3.827,3.827,0,0,1-1.371.967A4.633,4.633,0,0,1,277.151,20.262Zm.088-8.446a3.392,3.392,0,0,0-1.336.254,2.8,2.8,0,0,0-1.023.743,3.346,3.346,0,0,0-.656,1.195,5.225,5.225,0,0,0-.228,1.6,4.746,4.746,0,0,0,.228,1.521,3.446,3.446,0,0,0,.646,1.16,2.8,2.8,0,0,0,1.015.743,3.634,3.634,0,0,0,2.672.009,2.648,2.648,0,0,0,.985-.73,3.236,3.236,0,0,0,.611-1.173,5.577,5.577,0,0,0,.206-1.582,4.219,4.219,0,0,0-.808-2.782A2.851,2.851,0,0,0,277.239,11.816Z" fill="#2f2f2f"/>
      <path d="M287.408,19.945a2.784,2.784,0,0,1-1.266.29q-2.179,0-2.179-2.513V12.035h-1.582v-.984h1.582V8.783l1.125-.369v2.637h2.32v.984h-2.32v5.511a2.257,2.257,0,0,0,.3,1.318,1.176,1.176,0,0,0,1.011.4,1.818,1.818,0,0,0,1.011-.317Z" fill="#2f2f2f"/>
      <path d="M294.747,8.775a.788.788,0,0,1-.563-.229.771.771,0,0,1-.237-.58.746.746,0,0,1,.237-.567.8.8,0,0,1,.563-.224.877.877,0,0,1,.316.057.759.759,0,0,1,.26.163.835.835,0,0,1,.176.25.784.784,0,0,1,.065.321.82.82,0,0,1-.061.316.763.763,0,0,1-.176.26.839.839,0,0,1-.26.171A.808.808,0,0,1,294.747,8.775Zm-.554,11.276v-9h1.125v9Z" fill="#2f2f2f"/>
      <path d="M304.072,20.051V14.865q0-3.049-2.215-3.049a2.559,2.559,0,0,0-1.09.232,2.611,2.611,0,0,0-.865.646,3.038,3.038,0,0,0-.572.98,3.551,3.551,0,0,0-.206,1.227v5.15H298v-9h1.125v1.564h.035a3.252,3.252,0,0,1,3.015-1.775,2.722,2.722,0,0,1,2.25.958,4.323,4.323,0,0,1,.773,2.769v5.484Z" fill="#2f2f2f"/>
      <path d="M313.81,19.647a4.72,4.72,0,0,1-2.425.624,4.165,4.165,0,0,1-1.741-.334,3.826,3.826,0,0,1-1.318-.954,4.237,4.237,0,0,1-.835-1.441,5.456,5.456,0,0,1-.29-1.807,5.768,5.768,0,0,1,.308-1.9,4.535,4.535,0,0,1,.9-1.556,4.255,4.255,0,0,1,1.441-1.05,4.678,4.678,0,0,1,1.952-.387,4.767,4.767,0,0,1,2.039.431v1.195a3.785,3.785,0,0,0-2.127-.65,3.221,3.221,0,0,0-1.424.3,3.045,3.045,0,0,0-1.05.826,3.662,3.662,0,0,0-.65,1.222,4.767,4.767,0,0,0-.225,1.481,4.939,4.939,0,0,0,.19,1.379,3.38,3.38,0,0,0,.58,1.165,2.8,2.8,0,0,0,.988.8,3.109,3.109,0,0,0,1.406.3,3.74,3.74,0,0,0,2.285-.756Z" fill="#2f2f2f"/>
      <path d="M315.686,20.051V6.727h1.125V20.051Z" fill="#2f2f2f"/>
      <path d="M325.456,20.051V18.522h-.035a3.008,3.008,0,0,1-2.839,1.74q-3.209,0-3.208-3.92V11.051H320.5v5.08a4.014,4.014,0,0,0,.575,2.391,2.057,2.057,0,0,0,1.763.773,2.478,2.478,0,0,0,1.059-.224,2.414,2.414,0,0,0,.826-.633,2.946,2.946,0,0,0,.54-.98,3.927,3.927,0,0,0,.194-1.265V11.051h1.125v9Z" fill="#2f2f2f"/>
      <path d="M335.677,20.051V18.469h-.036a3.2,3.2,0,0,1-1.278,1.323,3.77,3.77,0,0,1-1.886.47,3.683,3.683,0,0,1-1.534-.312,3.293,3.293,0,0,1-1.182-.9A4.16,4.16,0,0,1,329,17.625a6.126,6.126,0,0,1-.269-1.89,6.385,6.385,0,0,1,.294-1.99,4.6,4.6,0,0,1,.836-1.547,3.72,3.72,0,0,1,1.3-1,3.939,3.939,0,0,1,1.691-.356,2.922,2.922,0,0,1,2.786,1.556h.036V6.727H336.8V20.051Zm0-5.432a2.945,2.945,0,0,0-.2-1.1,2.72,2.72,0,0,0-.562-.888,2.641,2.641,0,0,0-.865-.6,2.774,2.774,0,0,0-1.113-.219,2.858,2.858,0,0,0-1.23.263,2.675,2.675,0,0,0-.962.761,3.633,3.633,0,0,0-.625,1.208,5.919,5.919,0,0,0-.022,3.146,3.3,3.3,0,0,0,.577,1.143,2.5,2.5,0,0,0,.891.712,2.656,2.656,0,0,0,1.152.246,2.985,2.985,0,0,0,1.234-.246,2.706,2.706,0,0,0,.932-.677,3.041,3.041,0,0,0,.589-1.011,3.678,3.678,0,0,0,.207-1.239Z" fill="#2f2f2f"/>
      <path d="M340.123,15.753a5.027,5.027,0,0,0,.22,1.485,3.134,3.134,0,0,0,.606,1.117,2.607,2.607,0,0,0,.963.7,3.211,3.211,0,0,0,1.278.242,4.574,4.574,0,0,0,2.874-1.063v1.107a5.242,5.242,0,0,1-3.129.923,4.129,4.129,0,0,1-1.643-.317,3.405,3.405,0,0,1-1.257-.918,4.2,4.2,0,0,1-.8-1.481,6.586,6.586,0,0,1-.281-2,5.528,5.528,0,0,1,.307-1.872,4.645,4.645,0,0,1,.853-1.49,3.923,3.923,0,0,1,1.292-.984,3.756,3.756,0,0,1,1.635-.356,3.687,3.687,0,0,1,1.538.3,3.02,3.02,0,0,1,1.12.866,3.912,3.912,0,0,1,.69,1.371,6.4,6.4,0,0,1,.238,1.811v.562Zm5.344-.984a3.436,3.436,0,0,0-.668-2.18,2.191,2.191,0,0,0-1.785-.773,2.74,2.74,0,0,0-1.059.2,2.518,2.518,0,0,0-.857.584,3.138,3.138,0,0,0-.61.932,4.664,4.664,0,0,0-.339,1.235Z" fill="#2f2f2f"/>
      <path d="M355.143,20.051V18.469h-.035a3.208,3.208,0,0,1-1.278,1.323,3.77,3.77,0,0,1-1.886.47,3.683,3.683,0,0,1-1.534-.312,3.284,3.284,0,0,1-1.182-.9,4.179,4.179,0,0,1-.76-1.424,6.158,6.158,0,0,1-.268-1.89,6.385,6.385,0,0,1,.294-1.99,4.582,4.582,0,0,1,.836-1.547,3.72,3.72,0,0,1,1.3-1,3.936,3.936,0,0,1,1.691-.356,2.922,2.922,0,0,1,2.786,1.556h.035V6.727h1.125V20.051Zm0-5.432a2.944,2.944,0,0,0-.2-1.1,2.736,2.736,0,0,0-.562-.888,2.656,2.656,0,0,0-.866-.6,2.769,2.769,0,0,0-1.112-.219,2.858,2.858,0,0,0-1.23.263,2.667,2.667,0,0,0-.962.761,3.633,3.633,0,0,0-.625,1.208,5.4,5.4,0,0,0-.224,1.617,5.327,5.327,0,0,0,.2,1.529,3.3,3.3,0,0,0,.576,1.143,2.5,2.5,0,0,0,.892.712,2.654,2.654,0,0,0,1.151.246,2.989,2.989,0,0,0,1.235-.246,2.7,2.7,0,0,0,.931-.677,3.026,3.026,0,0,0,.59-1.011,3.677,3.677,0,0,0,.206-1.239Z" fill="#2f2f2f"/>
      <path d="M360.38,16.553a3.111,3.111,0,0,1-.15-.585,4.2,4.2,0,0,1-.061-.716,2.259,2.259,0,0,1,.14-.813,3.231,3.231,0,0,1,.369-.69,4.657,4.657,0,0,1,.532-.624q.3-.3.629-.606.262-.246.5-.5a3.625,3.625,0,0,0,.426-.545,2.955,2.955,0,0,0,.3-.62,2.148,2.148,0,0,0,.114-.707,1.9,1.9,0,0,0-.163-.809,1.712,1.712,0,0,0-.447-.593,2,2,0,0,0-.678-.369,2.686,2.686,0,0,0-.839-.128,3.666,3.666,0,0,0-1.459.286,4.2,4.2,0,0,0-1.248.839V8.124a5.077,5.077,0,0,1,1.341-.668,4.831,4.831,0,0,1,1.472-.22,4.125,4.125,0,0,1,1.235.181,2.889,2.889,0,0,1,1,.531,2.531,2.531,0,0,1,.668.866,2.731,2.731,0,0,1,.246,1.191,2.927,2.927,0,0,1-.135.9,3.362,3.362,0,0,1-.362.765,4.661,4.661,0,0,1-.5.659q-.28.308-.58.589-.378.36-.663.646a4.794,4.794,0,0,0-.479.549,2.17,2.17,0,0,0-.294.536,1.7,1.7,0,0,0-.1.607,2.978,2.978,0,0,0,.084.734,4.952,4.952,0,0,0,.171.558Zm.545,3.656a.81.81,0,0,1-.581-.237.919.919,0,0,1-.184-.268.785.785,0,0,1-.07-.33.863.863,0,0,1,.065-.338.811.811,0,0,1,.181-.264.884.884,0,0,1,.268-.176.8.8,0,0,1,.321-.066.859.859,0,0,1,.593.238.884.884,0,0,1,.189.268.8.8,0,0,1,.07.338.785.785,0,0,1-.07.33.9.9,0,0,1-.189.268.852.852,0,0,1-.593.237Z" fill="#2f2f2f"/>
    </g>
    <g>
      <path d="M233.339,59.651H231.93l-5.045-7.813a3.28,3.28,0,0,1-.314-.616h-.041a10.167,10.167,0,0,1,.055,1.347v7.082h-1.149v-9.8h1.491l4.908,7.691c.2.319.337.537.4.656h.028a10.275,10.275,0,0,1-.069-1.442V49.848h1.149Z" fill="#2f2f2f"/>
      <path d="M238.6,59.815a3.246,3.246,0,0,1-2.477-.981,3.632,3.632,0,0,1-.927-2.6,3.784,3.784,0,0,1,.965-2.755,3.467,3.467,0,0,1,2.6-.991,3.139,3.139,0,0,1,2.444.964,3.824,3.824,0,0,1,.878,2.673,3.759,3.759,0,0,1-.947,2.683A3.317,3.317,0,0,1,238.6,59.815Zm.082-6.385a2.135,2.135,0,0,0-1.709.735,3.026,3.026,0,0,0-.628,2.027,2.854,2.854,0,0,0,.636,1.962,2.162,2.162,0,0,0,1.7.718,2.05,2.05,0,0,0,1.672-.7,3.056,3.056,0,0,0,.584-2,3.108,3.108,0,0,0-.584-2.024A2.04,2.04,0,0,0,238.677,53.43Z" fill="#2f2f2f"/>
      <path d="M249.837,59.651h-1.121V58.462h-.028a2.824,2.824,0,0,1-4.514.413,3.846,3.846,0,0,1-.79-2.56,4.2,4.2,0,0,1,.875-2.782,2.886,2.886,0,0,1,2.331-1.046,2.242,2.242,0,0,1,2.1,1.135h.028V49.288h1.121Zm-1.121-3.165V55.454a2,2,0,0,0-.561-1.436,1.881,1.881,0,0,0-1.422-.588,1.936,1.936,0,0,0-1.613.752,3.3,3.3,0,0,0-.588,2.078,2.969,2.969,0,0,0,.563,1.911,1.846,1.846,0,0,0,1.515.7,1.915,1.915,0,0,0,1.521-.677A2.52,2.52,0,0,0,248.716,56.486Z" fill="#2f2f2f"/>
      <path d="M257.658,56.431h-4.942a2.617,2.617,0,0,0,.628,1.8,2.17,2.17,0,0,0,1.655.636,3.441,3.441,0,0,0,2.174-.78v1.053a4.063,4.063,0,0,1-2.441.67,2.96,2.96,0,0,1-2.331-.954,3.9,3.9,0,0,1-.848-2.683,3.825,3.825,0,0,1,.927-2.662,2.968,2.968,0,0,1,2.3-1.029,2.631,2.631,0,0,1,2.126.889,3.7,3.7,0,0,1,.752,2.467Zm-1.148-.95a2.277,2.277,0,0,0-.469-1.511,1.594,1.594,0,0,0-1.281-.54,1.807,1.807,0,0,0-1.347.568,2.576,2.576,0,0,0-.684,1.483Z" fill="#2f2f2f"/>
      <path d="M266.114,59.815a3.248,3.248,0,0,1-2.478-.981,3.631,3.631,0,0,1-.926-2.6,3.784,3.784,0,0,1,.964-2.755,3.466,3.466,0,0,1,2.6-.991,3.139,3.139,0,0,1,2.444.964,3.824,3.824,0,0,1,.878,2.673,3.763,3.763,0,0,1-.946,2.683A3.32,3.32,0,0,1,266.114,59.815Zm.082-6.385a2.132,2.132,0,0,0-1.709.735,3.021,3.021,0,0,0-.629,2.027,2.854,2.854,0,0,0,.636,1.962,2.162,2.162,0,0,0,1.7.718,2.048,2.048,0,0,0,1.671-.7,3.051,3.051,0,0,0,.585-2,3.1,3.1,0,0,0-.585-2.024A2.038,2.038,0,0,0,266.2,53.43Z" fill="#2f2f2f"/>
      <path d="M272.465,58.639h-.028v4.232h-1.121V52.651h1.121v1.23h.028a2.649,2.649,0,0,1,2.42-1.394,2.562,2.562,0,0,1,2.112.94,3.891,3.891,0,0,1,.759,2.519,4.343,4.343,0,0,1-.855,2.813,2.844,2.844,0,0,1-2.338,1.056A2.341,2.341,0,0,1,272.465,58.639Zm-.028-2.823v.978A2.08,2.08,0,0,0,273,58.267a2.01,2.01,0,0,0,3.027-.175,3.566,3.566,0,0,0,.578-2.167,2.823,2.823,0,0,0-.54-1.832,1.791,1.791,0,0,0-1.463-.663,1.987,1.987,0,0,0-1.572.68A2.5,2.5,0,0,0,272.437,55.816Z" fill="#2f2f2f"/>
      <path d="M285.162,56.431h-4.944a2.627,2.627,0,0,0,.629,1.8,2.172,2.172,0,0,0,1.655.636,3.437,3.437,0,0,0,2.174-.78v1.053a4.06,4.06,0,0,1-2.44.67,2.96,2.96,0,0,1-2.332-.954,3.907,3.907,0,0,1-.848-2.683,3.825,3.825,0,0,1,.927-2.662,2.97,2.97,0,0,1,2.3-1.029,2.633,2.633,0,0,1,2.127.889,3.705,3.705,0,0,1,.752,2.467Zm-1.149-.95a2.282,2.282,0,0,0-.468-1.511,1.6,1.6,0,0,0-1.282-.54,1.809,1.809,0,0,0-1.347.568,2.576,2.576,0,0,0-.684,1.483Z" fill="#2f2f2f"/>
      <path d="M290.5,53.786a1.366,1.366,0,0,0-.848-.226,1.429,1.429,0,0,0-1.2.677,3.123,3.123,0,0,0-.482,1.846v3.568h-1.122v-7h1.122v1.442h.027a2.443,2.443,0,0,1,.731-1.151,1.667,1.667,0,0,1,1.1-.414,1.824,1.824,0,0,1,.67.1Z" fill="#2f2f2f"/>
      <path d="M296.672,59.651h-1.121V58.557h-.028a2.346,2.346,0,0,1-2.153,1.258,2.3,2.3,0,0,1-1.638-.554,1.922,1.922,0,0,1-.591-1.469q0-1.962,2.311-2.284l2.1-.293q0-1.785-1.443-1.785a3.442,3.442,0,0,0-2.283.862V53.143a4.342,4.342,0,0,1,2.379-.656q2.467,0,2.468,2.611Zm-1.121-3.541-1.689.232a2.743,2.743,0,0,0-1.176.387,1.113,1.113,0,0,0-.4.981,1.068,1.068,0,0,0,.366.837,1.413,1.413,0,0,0,.974.325,1.8,1.8,0,0,0,1.378-.585,2.093,2.093,0,0,0,.543-1.48Z" fill="#2f2f2f"/>
      <path d="M301.929,59.583a2.151,2.151,0,0,1-1.044.218q-1.84,0-1.84-2.05V53.608h-1.2v-.957h1.2V50.942l1.121-.362v2.071h1.763v.957h-1.763v3.944a1.629,1.629,0,0,0,.24,1.005.953.953,0,0,0,.793.3,1.181,1.181,0,0,0,.73-.232Z" fill="#2f2f2f"/>
      <path d="M303.885,50.874a.709.709,0,0,1-.512-.205.691.691,0,0,1-.213-.52.719.719,0,0,1,.725-.731.724.724,0,0,1,.523.208.731.731,0,0,1,0,1.036A.72.72,0,0,1,303.885,50.874Zm.546,8.777H303.31v-7h1.121Z" fill="#2f2f2f"/>
      <path d="M312.361,59.651H311.24V55.659q0-2.229-1.627-2.229a1.763,1.763,0,0,0-1.391.633,2.341,2.341,0,0,0-.55,1.6v3.992h-1.121v-7h1.121v1.162h.027a2.528,2.528,0,0,1,2.3-1.326,2.142,2.142,0,0,1,1.757.742,3.307,3.307,0,0,1,.608,2.143Z" fill="#2f2f2f"/>
      <path d="M320.435,59.09q0,3.856-3.691,3.856a4.962,4.962,0,0,1-2.27-.492V61.333a4.67,4.67,0,0,0,2.256.656q2.584,0,2.584-2.748v-.766h-.027a2.832,2.832,0,0,1-4.508.407,3.729,3.729,0,0,1-.8-2.5,4.355,4.355,0,0,1,.858-2.837,2.866,2.866,0,0,1,2.348-1.053,2.28,2.28,0,0,1,2.1,1.135h.027v-.971h1.121Zm-1.121-2.6V55.454a2,2,0,0,0-.564-1.429,1.857,1.857,0,0,0-1.4-.595,1.947,1.947,0,0,0-1.627.756,3.369,3.369,0,0,0-.587,2.115,2.888,2.888,0,0,0,.564,1.87,1.82,1.82,0,0,0,1.493.7,1.947,1.947,0,0,0,1.534-.67A2.5,2.5,0,0,0,319.314,56.486Z" fill="#2f2f2f"/>
      <path d="M326.116,59.4V58.2a3.316,3.316,0,0,0,2.017.677q1.476,0,1.476-.985a.848.848,0,0,0-.127-.475,1.231,1.231,0,0,0-.342-.345,2.6,2.6,0,0,0-.5-.27c-.194-.08-.4-.163-.625-.249a8.154,8.154,0,0,1-.817-.373,2.463,2.463,0,0,1-.588-.424,1.554,1.554,0,0,1-.355-.536,1.9,1.9,0,0,1-.12-.705,1.674,1.674,0,0,1,.225-.871,2.017,2.017,0,0,1,.6-.636,2.79,2.79,0,0,1,.857-.386,3.8,3.8,0,0,1,1-.13,4.022,4.022,0,0,1,1.627.314v1.135a3.169,3.169,0,0,0-1.777-.506,2.064,2.064,0,0,0-.567.072,1.382,1.382,0,0,0-.434.2.923.923,0,0,0-.281.311.818.818,0,0,0-.1.4.961.961,0,0,0,.1.458,1.019,1.019,0,0,0,.291.328,2.225,2.225,0,0,0,.465.26c.181.077.389.161.622.253a8.711,8.711,0,0,1,.834.365,2.891,2.891,0,0,1,.629.424,1.654,1.654,0,0,1,.4.544,1.923,1.923,0,0,1-.088,1.633,1.956,1.956,0,0,1-.612.636,2.8,2.8,0,0,1-.882.376,4.356,4.356,0,0,1-1.046.123A3.97,3.97,0,0,1,326.116,59.4Z" fill="#2f2f2f"/>
      <path d="M338.179,52.651l-3.22,8.121q-.861,2.173-2.42,2.174a2.573,2.573,0,0,1-.731-.089V61.852a2.077,2.077,0,0,0,.662.123,1.373,1.373,0,0,0,1.272-1.011l.56-1.327-2.734-6.986h1.244l1.895,5.387c.022.068.07.246.142.533h.041c.024-.109.069-.283.137-.52l1.99-5.4Z" fill="#2f2f2f"/>
      <path d="M338.959,59.4V58.2a3.315,3.315,0,0,0,2.015.677q1.478,0,1.477-.985a.848.848,0,0,0-.126-.475,1.259,1.259,0,0,0-.342-.345,2.6,2.6,0,0,0-.506-.27c-.194-.08-.4-.163-.626-.249a8.341,8.341,0,0,1-.816-.373,2.5,2.5,0,0,1-.588-.424,1.583,1.583,0,0,1-.355-.536,1.879,1.879,0,0,1-.12-.705,1.674,1.674,0,0,1,.225-.871,2.006,2.006,0,0,1,.6-.636,2.8,2.8,0,0,1,.858-.386,3.788,3.788,0,0,1,1-.13,4.026,4.026,0,0,1,1.627.314v1.135a3.174,3.174,0,0,0-1.777-.506,2.084,2.084,0,0,0-.569.072,1.386,1.386,0,0,0-.433.2.923.923,0,0,0-.281.311.828.828,0,0,0-.1.4.973.973,0,0,0,.1.458,1.019,1.019,0,0,0,.291.328,2.241,2.241,0,0,0,.464.26q.274.115.623.253a8.6,8.6,0,0,1,.834.365,2.916,2.916,0,0,1,.629.424,1.643,1.643,0,0,1,.4.544,1.772,1.772,0,0,1,.139.731,1.73,1.73,0,0,1-.228.9,1.963,1.963,0,0,1-.611.636,2.8,2.8,0,0,1-.883.376,4.348,4.348,0,0,1-1.045.123A3.967,3.967,0,0,1,338.959,59.4Z" fill="#2f2f2f"/>
      <path d="M348.611,59.583a2.155,2.155,0,0,1-1.045.218q-1.839,0-1.84-2.05V53.608h-1.2v-.957h1.2V50.942l1.121-.362v2.071h1.764v.957h-1.764v3.944a1.622,1.622,0,0,0,.241,1.005.952.952,0,0,0,.793.3,1.181,1.181,0,0,0,.73-.232Z" fill="#2f2f2f"/>
      <path d="M355.6,56.431h-4.942a2.612,2.612,0,0,0,.629,1.8,2.167,2.167,0,0,0,1.654.636,3.435,3.435,0,0,0,2.174-.78v1.053a4.061,4.061,0,0,1-2.441.67,2.958,2.958,0,0,1-2.331-.954,3.907,3.907,0,0,1-.847-2.683,3.824,3.824,0,0,1,.926-2.662,2.97,2.97,0,0,1,2.3-1.029,2.63,2.63,0,0,1,2.126.889,3.705,3.705,0,0,1,.752,2.467Zm-1.148-.95a2.288,2.288,0,0,0-.468-1.511,1.6,1.6,0,0,0-1.282-.54,1.809,1.809,0,0,0-1.347.568,2.562,2.562,0,0,0-.683,1.483Z" fill="#2f2f2f"/>
      <path d="M367.226,59.651h-1.121v-4.02a3.024,3.024,0,0,0-.359-1.681,1.36,1.36,0,0,0-1.206-.52,1.491,1.491,0,0,0-1.22.657,2.5,2.5,0,0,0-.5,1.572v3.992H361.7V55.5q0-2.065-1.593-2.065a1.475,1.475,0,0,0-1.217.619,2.564,2.564,0,0,0-.478,1.61v3.992h-1.121v-7h1.121v1.107h.027a2.378,2.378,0,0,1,2.174-1.271,2.024,2.024,0,0,1,1.983,1.449,2.5,2.5,0,0,1,2.324-1.449q2.311,0,2.31,2.851Z" fill="#2f2f2f"/>
      <path d="M233.339,86.651H231.93l-5.045-7.813a3.28,3.28,0,0,1-.314-.616h-.041a10.167,10.167,0,0,1,.055,1.347v7.082h-1.149v-9.8h1.491l4.908,7.691c.2.319.337.537.4.656h.028a10.275,10.275,0,0,1-.069-1.442V76.848h1.149Z" fill="#2f2f2f"/>
      <path d="M238.6,86.815a3.246,3.246,0,0,1-2.477-.981,3.632,3.632,0,0,1-.927-2.6,3.784,3.784,0,0,1,.965-2.755,3.467,3.467,0,0,1,2.6-.991,3.139,3.139,0,0,1,2.444.964,3.824,3.824,0,0,1,.878,2.673,3.759,3.759,0,0,1-.947,2.683A3.317,3.317,0,0,1,238.6,86.815Zm.082-6.385a2.135,2.135,0,0,0-1.709.735,3.026,3.026,0,0,0-.628,2.027,2.854,2.854,0,0,0,.636,1.962,2.162,2.162,0,0,0,1.7.718,2.05,2.05,0,0,0,1.672-.7,3.056,3.056,0,0,0,.584-2,3.108,3.108,0,0,0-.584-2.024A2.04,2.04,0,0,0,238.677,80.43Z" fill="#2f2f2f"/>
      <path d="M249.837,86.651h-1.121V85.462h-.028a2.824,2.824,0,0,1-4.514.413,3.846,3.846,0,0,1-.79-2.56,4.2,4.2,0,0,1,.875-2.782,2.886,2.886,0,0,1,2.331-1.046,2.242,2.242,0,0,1,2.1,1.135h.028V76.288h1.121Zm-1.121-3.165V82.454a2,2,0,0,0-.561-1.436,1.881,1.881,0,0,0-1.422-.588,1.936,1.936,0,0,0-1.613.752,3.3,3.3,0,0,0-.588,2.078,2.969,2.969,0,0,0,.563,1.911,1.846,1.846,0,0,0,1.515.7,1.915,1.915,0,0,0,1.521-.677A2.52,2.52,0,0,0,248.716,83.486Z" fill="#2f2f2f"/>
      <path d="M257.658,83.431h-4.942a2.617,2.617,0,0,0,.628,1.805,2.17,2.17,0,0,0,1.655.636,3.441,3.441,0,0,0,2.174-.78v1.053a4.063,4.063,0,0,1-2.441.67,2.96,2.96,0,0,1-2.331-.954,3.9,3.9,0,0,1-.848-2.683,3.825,3.825,0,0,1,.927-2.662,2.968,2.968,0,0,1,2.3-1.029,2.631,2.631,0,0,1,2.126.889,3.7,3.7,0,0,1,.752,2.467Zm-1.148-.95a2.277,2.277,0,0,0-.469-1.511,1.594,1.594,0,0,0-1.281-.54,1.807,1.807,0,0,0-1.347.568,2.576,2.576,0,0,0-.684,1.483Z" fill="#2f2f2f"/>
      <path d="M263.762,77.874a.71.71,0,0,1-.512-.2.694.694,0,0,1-.212-.52.717.717,0,0,1,.724-.731.721.721,0,0,1,.523.208.729.729,0,0,1,0,1.036A.717.717,0,0,1,263.762,77.874Zm.547,8.777h-1.121v-7h1.121Z" fill="#2f2f2f"/>
      <path d="M276.367,86.651h-1.121v-4.02a3.024,3.024,0,0,0-.359-1.681,1.361,1.361,0,0,0-1.206-.52,1.494,1.494,0,0,0-1.22.657,2.508,2.508,0,0,0-.5,1.572v3.992h-1.121V82.5q0-2.066-1.594-2.065a1.475,1.475,0,0,0-1.217.619,2.564,2.564,0,0,0-.478,1.61v3.992h-1.122v-7h1.122v1.107h.027a2.38,2.38,0,0,1,2.174-1.271,2.03,2.03,0,0,1,1.252.4,2.008,2.008,0,0,1,.73,1.049,2.5,2.5,0,0,1,2.324-1.449q2.311,0,2.311,2.851Z" fill="#2f2f2f"/>
      <path d="M283.4,86.651h-1.121V85.557h-.027a2.348,2.348,0,0,1-2.154,1.258,2.3,2.3,0,0,1-1.637-.554,1.918,1.918,0,0,1-.591-1.469q0-1.962,2.31-2.284l2.1-.293q0-1.785-1.442-1.785a3.445,3.445,0,0,0-2.284.862V80.143a4.346,4.346,0,0,1,2.379-.656q2.469,0,2.468,2.611Zm-1.121-3.541-1.688.232a2.733,2.733,0,0,0-1.176.387,1.111,1.111,0,0,0-.4.981,1.068,1.068,0,0,0,.366.837,1.417,1.417,0,0,0,.974.325,1.8,1.8,0,0,0,1.378-.585,2.093,2.093,0,0,0,.543-1.48Z" fill="#2f2f2f"/>
      <path d="M291.47,86.09q0,3.856-3.691,3.856a4.958,4.958,0,0,1-2.269-.492V88.333a4.669,4.669,0,0,0,2.255.656q2.585,0,2.584-2.748v-.766h-.027a2.832,2.832,0,0,1-4.508.407,3.729,3.729,0,0,1-.8-2.505,4.356,4.356,0,0,1,.859-2.837,2.863,2.863,0,0,1,2.348-1.053,2.278,2.278,0,0,1,2.1,1.135h.027v-.971h1.121Zm-1.121-2.6V82.454a2,2,0,0,0-.563-1.429,1.86,1.86,0,0,0-1.405-.595,1.946,1.946,0,0,0-1.627.756,3.37,3.37,0,0,0-.588,2.115,2.894,2.894,0,0,0,.564,1.87,1.823,1.823,0,0,0,1.494.7,1.95,1.95,0,0,0,1.535-.67A2.5,2.5,0,0,0,290.349,83.486Z" fill="#2f2f2f"/>
      <path d="M299.293,83.431h-4.944a2.627,2.627,0,0,0,.629,1.805,2.17,2.17,0,0,0,1.655.636,3.432,3.432,0,0,0,2.173-.78v1.053a4.054,4.054,0,0,1-2.439.67,2.96,2.96,0,0,1-2.332-.954,3.9,3.9,0,0,1-.848-2.683,3.825,3.825,0,0,1,.927-2.662,2.97,2.97,0,0,1,2.3-1.029,2.633,2.633,0,0,1,2.127.889,3.705,3.705,0,0,1,.752,2.467Zm-1.149-.95a2.288,2.288,0,0,0-.468-1.511,1.6,1.6,0,0,0-1.282-.54,1.809,1.809,0,0,0-1.347.568,2.57,2.57,0,0,0-.684,1.483Z" fill="#2f2f2f"/>
    </g>
  </g>
</svg>
