<?xml version="1.0" encoding="iso-8859-1"?>
<!-- Generator: Adobe Illustrator 28.6.0, SVG Export Plug-In . SVG Version: 9.03 Build 54939)  -->
<svg version="1.1" id="Layer_1" xmlns="http://www.w3.org/2000/svg" xmlns:xlink="http://www.w3.org/1999/xlink" x="0px" y="0px"
	 viewBox="0 0 160 188" style="enable-background:new 0 0 160 188;" xml:space="preserve">
<g>
	<defs>
		<rect id="SVGID_1_" y="0" width="159.356" height="188"/>
	</defs>
	<clipPath id="SVGID_00000046339449226601863620000010137951436463346614_">
		<use xlink:href="#SVGID_1_"  style="overflow:visible;"/>
	</clipPath>
	<g style="clip-path:url(#SVGID_00000046339449226601863620000010137951436463346614_);">
		<path style="fill:#F2F1F0;" d="M79.678,188c3.081-0.006,6.102-0.859,8.73-2.466l61.976-37.66c2.781-1.764,5.065-4.209,6.635-7.103
			c1.57-2.895,2.375-6.143,2.337-9.435V56.621c0.036-3.292-0.769-6.54-2.339-9.434c-1.57-2.894-3.854-5.34-6.633-7.104L88.408,2.423
			C85.775,0.838,82.759,0,79.686,0s-6.089,0.838-8.723,2.423L8.988,40.098c-2.783,1.762-5.07,4.207-6.643,7.101
			C0.772,50.093-0.035,53.342,0,56.636v74.7c-0.019,2.783,0.556,5.538,1.686,8.082s2.788,4.818,4.866,6.671v0.026l64.411,39.434
			C73.588,187.149,76.603,187.996,79.678,188L79.678,188z M80.326,6.952c1.952,0,4.429,1.213,6.139,2.257l60.757,37.194
			c3.752,2.285,5.868,8.881,5.868,13.632l-0.632,71.301c0,4.751-3.199,9.019-6.952,11.304L85.11,179.021
			c-3.435,2.088-6.225,2.088-9.66,0l-61.208-36.472c-3.752-2.284-6.771-6.477-6.771-11.213V57.688
			c0.033-2.365,0.641-4.687,1.774-6.763c1.133-2.076,2.755-3.846,4.726-5.153L74.548,9.209C76.258,8.165,78.374,6.952,80.326,6.952z
			"/>
		
			<linearGradient id="SVGID_00000000189019361083380460000018184099523434928536_" gradientUnits="userSpaceOnUse" x1="79.6786" y1="179.6125" x2="79.6786" y2="8.1978" gradientTransform="matrix(1 0 0 -1 0 187.8898)">
			<stop  offset="0" style="stop-color:#00ABDE"/>
			<stop  offset="1" style="stop-color:#007ED8"/>
		</linearGradient>
		<path style="fill-rule:evenodd;clip-rule:evenodd;fill:url(#SVGID_00000000189019361083380460000018184099523434928536_);" d="
			M87.576,10.532c-2.371-1.474-5.107-2.254-7.898-2.254c-2.791,0-5.527,0.781-7.898,2.254L15.645,44.863
			c-2.526,1.612-4.598,3.842-6.02,6.479c-1.422,2.637-2.146,5.594-2.105,8.591v68.103c-0.04,2.996,0.685,5.953,2.107,8.59
			c1.422,2.637,3.493,4.867,6.018,6.48l56.135,34.331c2.371,1.474,5.107,2.255,7.898,2.255c2.792,0,5.527-0.781,7.898-2.255
			l56.134-34.331c2.525-1.612,4.596-3.843,6.018-6.48c1.422-2.637,2.148-5.594,2.108-8.59V59.933
			c0.038-2.996-0.688-5.951-2.11-8.588c-1.422-2.637-3.493-4.868-6.016-6.482L87.576,10.532z"/>
		<path style="fill-rule:evenodd;clip-rule:evenodd;fill:#0078D4;" d="M79.678,9.754c1.683,0,3.566,0.866,5.633,2.124l58.466,35.542
			c1.891,1.213,3.441,2.89,4.501,4.871c1.061,1.981,1.597,4.2,1.559,6.447v70.478c0.038,2.247-0.498,4.466-1.559,6.447
			c-1.06,1.981-2.61,3.658-4.501,4.871l-58.465,35.542l-0.001,0.001c-1.67,1.139-3.615,1.81-5.633,1.943
			c-2.017-0.133-3.963-0.804-5.633-1.943l-0.001-0.001l-58.462-35.54l-0.002-0.001c-1.788-0.964-3.313-2.351-4.442-4.04
			c-0.977-1.603-1.618-3.818-1.618-7.279V58.739c-0.039-2.247,0.498-4.466,1.558-6.447s2.61-3.658,4.501-4.871l58.457-35.537
			l0.004-0.002C76.124,10.628,77.985,9.754,79.678,9.754z M87.391,8.461l58.464,35.541c2.478,1.57,4.513,3.749,5.91,6.329
			s2.111,5.474,2.072,8.408v70.478c0.039,2.934-0.675,5.828-2.072,8.408s-3.432,4.759-5.91,6.329L87.39,179.495
			c-2.294,1.525-4.96,2.398-7.712,2.526c-2.752-0.128-5.417-1.001-7.712-2.526h-0.001l-58.464-35.542l-0.002-0.001
			c-2.335-1.293-4.319-3.138-5.777-5.374c-1.595-2.853-2.358-6.096-2.202-9.361V58.739c-0.039-2.934,0.674-5.828,2.071-8.408
			c1.397-2.58,3.432-4.759,5.911-6.329L71.967,8.46l0.008-0.005c2.091-1.257,4.799-2.701,7.703-2.701
			C82.564,5.754,85.282,7.177,87.391,8.461L87.391,8.461z"/>
		<path style="opacity:0.2;fill:#003067;enable-background:new    ;" d="M139.959,132.028l-59.55,34.607L20.47,132.029l59.55-34.607
			L139.959,132.028z"/>
		<path style="fill:#1B93EB;" d="M140.532,120.545L79.81,155.833L18.698,120.55L79.42,85.262L140.532,120.545z"/>
		<path style="fill:#1F56A3;" d="M140.532,120.547l-0.012,4.106l-60.722,35.288l0.012-4.106L140.532,120.547z"/>
		<path style="fill:#0078D4;" d="M79.81,155.834l-0.012,4.106l-61.112-35.283l0.012-4.106L79.81,155.834z"/>
		<path style="fill:#1F56A3;" d="M77.111,128.441l-0.005,1.676l0.004,0.602l0.004-1.677L77.111,128.441z"/>
		<path style="fill:#1F56A3;" d="M106.119,125.507c0.103-0.087,0.187-0.195,0.246-0.316c0.058-0.122,0.091-0.255,0.095-0.39
			l0.005-1.676c-0.004,0.135-0.037,0.268-0.096,0.389c-0.058,0.122-0.142,0.23-0.245,0.317l-1.32,1.208
			c-0.064,0.068-0.098,0.16-0.095,0.254l-0.005,1.676c-0.003-0.094,0.031-0.185,0.095-0.254L106.119,125.507z"/>
		<path style="fill:#1F56A3;" d="M82.593,126.714c0.031,0.031,0.055,0.069,0.07,0.11c0.016,0.042,0.023,0.086,0.021,0.13
			l0.005-1.676c0.002-0.045-0.005-0.089-0.021-0.13c-0.016-0.041-0.04-0.079-0.07-0.111l-1.333-1.208
			c-0.106-0.088-0.192-0.198-0.252-0.322c-0.06-0.124-0.093-0.26-0.097-0.398l-0.005,1.677c0.003,0.138,0.036,0.273,0.097,0.398
			c0.06,0.124,0.146,0.234,0.252,0.322L82.593,126.714z"/>
		<path style="fill:#1F56A3;" d="M108.511,130.358l-2.411,0.311c-0.216,0.034-0.415,0.139-0.565,0.298l-0.692,0.986
			c-0.06,0.07-0.092,0.159-0.091,0.251l-0.005,1.676c-0.001-0.092,0.031-0.181,0.091-0.251l0.692-0.985
			c0.15-0.16,0.349-0.265,0.566-0.298l2.411-0.311c1.02-0.132,1.824-0.71,1.816-1.319l0.004-1.677
			C110.335,129.648,109.531,130.227,108.511,130.358z"/>
		<path style="fill:#1F56A3;" d="M81.727,132.483c0.094,0.048,0.173,0.122,0.228,0.213l0.712,0.98
			c0.041,0.054,0.062,0.12,0.058,0.188l0.005-1.676c0.004-0.068-0.017-0.135-0.058-0.188l-0.712-0.981
			c-0.055-0.091-0.134-0.164-0.228-0.212c-0.114-0.066-0.238-0.113-0.367-0.137l-2.414-0.31c-0.388-0.048-0.763-0.171-1.104-0.362
			c-0.192-0.085-0.36-0.217-0.488-0.384c-0.128-0.167-0.212-0.363-0.243-0.571l-0.005,1.676c0.032,0.208,0.115,0.405,0.243,0.572
			c0.128,0.167,0.296,0.298,0.488,0.383c0.341,0.192,0.716,0.315,1.104,0.362l2.414,0.311
			C81.489,132.371,81.613,132.417,81.727,132.483L81.727,132.483z"/>
		<path style="fill:#1F56A3;" d="M105.865,135.33l-0.731,0.425c-0.904,0.44-1.946,0.506-2.9,0.184l-2.089-0.768
			c-0.251-0.066-0.514-0.073-0.768-0.02l-1.686,0.412c-0.236,0.031-0.45,0.153-0.596,0.341l-0.533,1.4
			c-0.251,0.362-0.593,0.651-0.992,0.836c-0.399,0.186-0.841,0.262-1.279,0.22h-1.038c-0.577,0.001-1.145-0.143-1.65-0.42
			c-0.274-0.138-0.495-0.362-0.629-0.639l-0.544-1.397c-0.059-0.092-0.143-0.167-0.241-0.215c-0.085-0.051-0.178-0.088-0.275-0.109
			l-1.704-0.409c-0.277-0.068-0.566-0.067-0.842,0.003l-2.081,0.768c-0.954,0.322-1.997,0.255-2.902-0.185l-0.74-0.427
			c-0.188-0.088-0.349-0.225-0.467-0.396c-0.118-0.172-0.187-0.371-0.202-0.579l-0.005,1.677c0.015,0.207,0.085,0.407,0.202,0.578
			c0.118,0.171,0.279,0.308,0.467,0.397l0.74,0.427c0.906,0.44,1.948,0.506,2.902,0.184l2.081-0.768
			c0.276-0.07,0.565-0.07,0.842-0.002l1.704,0.409c0.097,0.02,0.19,0.057,0.275,0.109c0.098,0.048,0.182,0.122,0.241,0.214
			l0.544,1.398c0.133,0.276,0.354,0.501,0.629,0.638c0.506,0.277,1.074,0.422,1.65,0.421h1.038c0.438,0.041,0.88-0.035,1.279-0.22
			c0.399-0.186,0.742-0.475,0.992-0.837l0.533-1.4c0.146-0.187,0.36-0.31,0.596-0.341l1.686-0.412
			c0.254-0.053,0.517-0.046,0.768,0.02l2.09,0.769c0.953,0.322,1.995,0.255,2.9-0.185l0.73-0.424
			c0.185-0.088,0.343-0.223,0.459-0.392c0.115-0.169,0.184-0.365,0.199-0.569l0.005-1.677c-0.015,0.204-0.084,0.401-0.2,0.569
			C106.208,135.107,106.05,135.242,105.865,135.33z"/>
		<path style="fill:#0078D4;" d="M106.173,133.648c0.566,0.513,0.431,1.251-0.309,1.681l-0.73,0.424
			c-0.905,0.441-1.947,0.507-2.9,0.185l-2.09-0.768c-0.251-0.066-0.514-0.073-0.768-0.02l-1.686,0.411
			c-0.236,0.031-0.45,0.154-0.596,0.342l-0.533,1.4c-0.251,0.362-0.593,0.65-0.992,0.836c-0.399,0.186-0.841,0.262-1.279,0.22
			h-1.038c-0.577,0.001-1.145-0.144-1.65-0.421c-0.274-0.137-0.495-0.362-0.628-0.638l-0.545-1.397
			c-0.059-0.093-0.143-0.167-0.241-0.215c-0.085-0.052-0.178-0.088-0.275-0.109l-1.704-0.409c-0.277-0.068-0.566-0.067-0.842,0.002
			l-2.081,0.769c-0.954,0.321-1.996,0.255-2.902-0.185l-0.74-0.427c-0.744-0.43-0.888-1.167-0.328-1.68l1.319-1.208
			c0.054-0.06,0.087-0.135,0.093-0.215c0.007-0.08-0.013-0.16-0.057-0.228l-0.712-0.98c-0.055-0.091-0.134-0.164-0.228-0.212
			c-0.114-0.067-0.238-0.113-0.367-0.137l-2.414-0.311c-0.388-0.047-0.763-0.17-1.104-0.362c-0.192-0.084-0.36-0.216-0.488-0.383
			c-0.128-0.167-0.212-0.363-0.243-0.571l-0.004-0.602c-0.008-0.609,0.796-1.187,1.816-1.319l2.415-0.313
			c0.215-0.031,0.412-0.137,0.557-0.298l0.701-0.986c0.058-0.068,0.09-0.154,0.089-0.243c0-0.089-0.033-0.175-0.092-0.242
			l-1.333-1.208c-0.566-0.513-0.43-1.251,0.309-1.681l0.73-0.424c0.905-0.44,1.947-0.507,2.9-0.185l2.09,0.769
			c0.251,0.064,0.514,0.071,0.768,0.02l1.686-0.412c0.237-0.032,0.452-0.155,0.6-0.344l0.529-1.397
			c0.251-0.362,0.593-0.651,0.992-0.837c0.399-0.185,0.841-0.261,1.279-0.22h1.038c0.578-0.001,1.148,0.145,1.655,0.423
			c0.273,0.137,0.494,0.359,0.628,0.634l0.544,1.397c0.054,0.094,0.135,0.169,0.232,0.215c0.087,0.051,0.181,0.088,0.28,0.111
			l1.704,0.41c0.277,0.068,0.566,0.067,0.842-0.003l2.081-0.768c0.954-0.322,1.996-0.256,2.902,0.184l0.74,0.427
			c0.744,0.43,0.887,1.168,0.328,1.681l-1.32,1.208c-0.054,0.059-0.087,0.135-0.093,0.215c-0.007,0.08,0.013,0.16,0.056,0.227
			l0.713,0.981c0.055,0.087,0.132,0.159,0.223,0.209c0.116,0.069,0.244,0.115,0.376,0.137l2.415,0.311
			c0.387,0.048,0.761,0.171,1.101,0.363c0.193,0.084,0.361,0.216,0.489,0.383c0.127,0.167,0.21,0.364,0.241,0.573l0.003,0.601
			c0.008,0.609-0.796,1.188-1.816,1.319l-2.411,0.311c-0.216,0.034-0.415,0.138-0.565,0.298l-0.693,0.986
			c-0.058,0.067-0.091,0.154-0.091,0.243c0,0.09,0.031,0.176,0.089,0.244L106.173,133.648z M90.064,130.866
			c1.137,0.578,2.394,0.879,3.669,0.879c1.275,0,2.532-0.301,3.669-0.879c2.018-1.172,2.003-3.08-0.024-4.25
			c-1.137-0.579-2.395-0.88-3.671-0.881c-1.276,0-2.534,0.301-3.672,0.878C88.018,127.786,88.033,129.694,90.064,130.866"/>
		<path style="fill:#1F56A3;" d="M90.064,130.866c1.137,0.577,2.394,0.878,3.669,0.878c1.275,0,2.532-0.301,3.669-0.878
			c2.018-1.173,2.003-3.081-0.024-4.251c-1.137-0.578-2.395-0.88-3.671-0.881c-1.276,0-2.534,0.301-3.672,0.879
			C88.019,127.785,88.034,129.693,90.064,130.866"/>
		<path style="opacity:0.2;fill:#003067;enable-background:new    ;" d="M98.948,127.09c-1.665-0.847-3.507-1.289-5.375-1.289
			c-1.868,0-3.71,0.442-5.375,1.29c-2.959,1.719-2.944,4.507,0.035,6.226c1.306,0.712,2.75,1.134,4.234,1.24
			c2.247,0.24,4.514-0.191,6.515-1.24C101.942,131.597,101.926,128.81,98.948,127.09z M93.127,132
			c-0.613-0.043-1.21-0.216-1.751-0.509c-0.269-0.09-0.503-0.262-0.67-0.492c-0.166-0.23-0.257-0.506-0.258-0.79
			c-0.002-0.284,0.086-0.561,0.249-0.793c0.164-0.231,0.396-0.406,0.664-0.499c0.688-0.35,1.449-0.533,2.221-0.532
			c0.772,0,1.533,0.183,2.221,0.533c0.269,0.09,0.503,0.262,0.669,0.492c0.166,0.229,0.257,0.505,0.258,0.789
			c0.002,0.283-0.086,0.56-0.249,0.791c-0.164,0.232-0.396,0.407-0.663,0.5C94.991,131.923,94.055,132.1,93.127,132L93.127,132z"/>
		<path style="fill:#0078D4;" d="M98.948,123.305l-0.004,1.419l-3.144,1.827l0.004-1.419L98.948,123.305z"/>
		<path style="fill:#0078D4;" d="M96.73,126.427l-0.004,1.419c-0.025-0.278-0.124-0.545-0.287-0.773
			c-0.163-0.228-0.384-0.408-0.64-0.521l0.004-1.419c0.256,0.113,0.477,0.293,0.64,0.521
			C96.606,125.882,96.705,126.149,96.73,126.427L96.73,126.427z"/>
		<path style="fill:#1F56A3;" d="M90.444,127.827l0.004-1.419c0.026-0.275,0.124-0.538,0.284-0.762
			c0.16-0.225,0.377-0.403,0.629-0.516c0.688-0.35,1.449-0.533,2.221-0.532c0.772,0,1.533,0.183,2.221,0.533l-0.004,1.419
			c-0.688-0.35-1.449-0.533-2.221-0.533c-0.772-0.001-1.533,0.182-2.221,0.532c-0.252,0.113-0.469,0.291-0.629,0.515
			C90.568,127.289,90.47,127.552,90.444,127.827L90.444,127.827z"/>
		<path style="fill:#0078D4;" d="M101.192,126.441l-0.004,1.419c-0.062,0.665-0.299,1.301-0.687,1.844s-0.913,0.974-1.522,1.248
			l0.004-1.419c0.609-0.274,1.134-0.704,1.522-1.248C100.893,127.742,101.13,127.106,101.192,126.441L101.192,126.441z"/>
		<path style="fill:#1490DF;" d="M98.948,123.305c2.979,1.719,2.994,4.507,0.035,6.226l-3.165-1.827
			c0.268-0.093,0.5-0.268,0.663-0.499c0.164-0.232,0.251-0.509,0.249-0.792c-0.002-0.284-0.092-0.56-0.258-0.789
			c-0.166-0.23-0.4-0.402-0.669-0.492L98.948,123.305z"/>
		<path style="fill:#1490DF;" d="M98.983,129.53l-0.004,1.419l-3.165-1.827l0.004-1.419L98.983,129.53z"/>
		<path style="fill:#1F56A3;" d="M85.985,127.817l0.004-1.419c0.061,0.676,0.301,1.322,0.696,1.873
			c0.395,0.551,0.929,0.987,1.549,1.262c1.306,0.712,2.75,1.135,4.234,1.24l-0.004,1.419c-1.484-0.105-2.928-0.528-4.234-1.24
			c-0.619-0.275-1.154-0.711-1.549-1.262C86.286,129.139,86.046,128.492,85.985,127.817L85.985,127.817z"/>
		<path style="fill:#0078D4;" d="M98.948,123.305l-3.145,1.828c-0.688-0.351-1.449-0.533-2.221-0.534
			c-0.772,0-1.533,0.183-2.221,0.533c-0.268,0.093-0.5,0.267-0.664,0.499c-0.164,0.232-0.251,0.509-0.249,0.793
			c0.002,0.284,0.092,0.56,0.258,0.79c0.166,0.23,0.4,0.402,0.67,0.492c0.541,0.293,1.138,0.466,1.751,0.509l-0.659,2.557
			c-1.484-0.106-2.928-0.529-4.234-1.24c-2.979-1.72-2.994-4.507-0.035-6.227c1.665-0.847,3.507-1.289,5.375-1.289
			C95.441,122.016,97.283,122.458,98.948,123.305L98.948,123.305z"/>
		<path style="fill:#0078D4;" d="M93.127,128.215l-0.004,1.419l-0.659,2.556l0.004-1.419L93.127,128.215z"/>
		<path style="fill:#50E6FF;" d="M95.818,127.703l3.165,1.828c-2.001,1.048-4.269,1.48-6.516,1.239l0.659-2.556
			C94.054,128.314,94.991,128.136,95.818,127.703L95.818,127.703z"/>
		<path style="fill:#32BEDD;" d="M98.983,129.531l-0.004,1.419c-2.001,1.049-4.269,1.48-6.516,1.24l0.004-1.419
			C94.714,131.011,96.982,130.58,98.983,129.531L98.983,129.531z"/>
		<path style="fill:#FFFFFF;" d="M42.753,73.769c-0.251,0.162-0.46,0.382-0.609,0.64c-0.149,0.259-0.235,0.549-0.25,0.848
			c0.002,0.543,0.386,0.762,0.865,0.485l13.006-7.509c0.25-0.161,0.458-0.38,0.608-0.637s0.236-0.547,0.251-0.844
			c-0.001-0.55-0.386-0.769-0.865-0.493L42.753,73.769z"/>
		<path style="fill:#1F56A3;" d="M39.211,83.305c-0.251,0.162-0.46,0.382-0.609,0.64c-0.149,0.259-0.235,0.549-0.25,0.848
			c0.002,0.543,0.386,0.762,0.865,0.485l26.522-15.312c0.248-0.161,0.455-0.38,0.604-0.636s0.234-0.545,0.249-0.841
			c-0.001-0.55-0.386-0.769-0.858-0.496L39.211,83.305z"/>
		<path style="fill:#50E6FF;" d="M23.011,85.169c-0.25,0.163-0.459,0.382-0.608,0.641c-0.149,0.259-0.235,0.549-0.251,0.847
			c0.002,0.543,0.392,0.758,0.865,0.485l13.012-7.512c0.249-0.161,0.455-0.38,0.604-0.636c0.148-0.257,0.234-0.545,0.249-0.841
			c-0.002-0.55-0.386-0.769-0.858-0.497L23.011,85.169z"/>
		<path style="fill:#FFFFFF;" d="M22.99,77.694c-0.25,0.163-0.459,0.382-0.608,0.641c-0.149,0.259-0.235,0.549-0.251,0.847
			c0.002,0.543,0.392,0.758,0.865,0.485l26.522-15.312c0.25-0.161,0.458-0.38,0.608-0.637c0.149-0.257,0.236-0.547,0.251-0.844
			c-0.002-0.55-0.386-0.769-0.865-0.493L22.99,77.694z"/>
		<path style="fill:#C3F1FF;" d="M24.035,54.891c-0.263,0.163-0.48,0.389-0.631,0.658c-0.344,0.595-0.342,1.241,0.004,1.445
			l5.835,3.318l-5.797,10.034c-0.344,0.595-0.342,1.241,0.01,1.434c0.1,0.048,0.211,0.068,0.322,0.057
			c0.11-0.011,0.216-0.051,0.305-0.117c0.263-0.162,0.478-0.39,0.625-0.662l6.917-11.982l0.051-0.169l-0.051-0.117l-6.963-3.968
			c-0.101-0.045-0.212-0.062-0.322-0.05C24.229,54.785,24.124,54.826,24.035,54.891L24.035,54.891z"/>
		<path style="fill:#C3F1FF;" d="M31.151,66.609c-0.25,0.163-0.459,0.382-0.608,0.641c-0.149,0.258-0.235,0.549-0.251,0.847
			c0.002,0.543,0.392,0.758,0.865,0.485l9.309-5.374c0.249-0.162,0.455-0.38,0.604-0.636c0.148-0.257,0.234-0.545,0.249-0.841
			c-0.002-0.55-0.386-0.769-0.858-0.497L31.151,66.609z"/>
		<path style="fill:#50E6FF;" d="M56.12,58.565c-0.251,0.162-0.46,0.382-0.609,0.64c-0.149,0.259-0.235,0.549-0.25,0.848
			c0.002,0.543,0.386,0.762,0.865,0.486l9.571-5.526c0.249-0.161,0.455-0.38,0.604-0.636c0.148-0.257,0.234-0.545,0.249-0.841
			c-0.002-0.55-0.386-0.769-0.858-0.496L56.12,58.565z"/>
		<path style="fill:#FFFFFF;" d="M23.033,92.644c-0.25,0.163-0.459,0.382-0.608,0.641c-0.149,0.259-0.235,0.549-0.251,0.847
			c0.002,0.543,0.392,0.758,0.865,0.485l9.571-5.526c0.249-0.162,0.457-0.38,0.606-0.638c0.149-0.257,0.236-0.546,0.253-0.843
			c-0.002-0.55-0.392-0.766-0.865-0.493L23.033,92.644z"/>
		<path style="fill:#1F56A3;" d="M62.488,62.376c-0.249,0.162-0.457,0.382-0.605,0.64c-0.148,0.258-0.233,0.547-0.248,0.845
			c0.002,0.543,0.386,0.762,0.858,0.489l13.012-7.512c0.249-0.162,0.457-0.38,0.606-0.638c0.149-0.257,0.236-0.546,0.253-0.843
			c-0.002-0.55-0.392-0.766-0.865-0.493L62.488,62.376z"/>
		<path style="fill:#F2F2F2;" d="M74.409,49.27l54.299,31.349l-0.118,41.67c-0.002,0.651-0.47,0.917-1.044,0.586L75.321,92.723
			c-0.299-0.196-0.549-0.459-0.727-0.769c-0.179-0.31-0.282-0.657-0.302-1.014L74.409,49.27z"/>
		<path style="fill:#E8E8E8;" d="M128.59,122.286l0.118-41.67l2.572-1.495l-0.118,41.67c0.012,0.127-0.009,0.254-0.062,0.37
			c-0.053,0.116-0.136,0.215-0.24,0.288l-2.572,1.495c0.104-0.073,0.187-0.173,0.24-0.288
			C128.581,122.54,128.602,122.412,128.59,122.286z"/>
		<path style="fill:#1F56A3;" d="M77.228,41.669c0.09-0.042,0.19-0.058,0.29-0.049c0.099,0.01,0.194,0.046,0.274,0.105l52.706,30.43
			c0.232,0.15,0.425,0.352,0.563,0.591c0.139,0.238,0.219,0.506,0.235,0.782l-0.016,5.596l-2.572,1.495l0.016-5.596
			c-0.016-0.275-0.096-0.543-0.235-0.782c-0.138-0.238-0.331-0.441-0.563-0.591L75.22,43.22c-0.08-0.059-0.175-0.095-0.274-0.105
			s-0.199,0.007-0.289,0.049L77.228,41.669z"/>
		<path style="fill:#0078D4;" d="M127.926,73.649c0.232,0.15,0.425,0.352,0.563,0.591c0.139,0.238,0.219,0.506,0.235,0.782
			l-0.016,5.596L74.409,49.268l0.015-5.185l0.001-0.411c0.001-0.5,0.352-0.708,0.795-0.453L127.926,73.649z"/>
		<path style="fill:#50E6FF;" d="M79.54,47.609c0.401,0.26,0.735,0.611,0.974,1.024c0.239,0.413,0.378,0.877,0.404,1.354
			c-0.002,0.884-0.626,1.23-1.387,0.79c-0.402-0.257-0.737-0.606-0.975-1.019c-0.238-0.413-0.374-0.877-0.395-1.354
			C78.163,47.52,78.787,47.174,79.54,47.609z"/>
		
			<linearGradient id="SVGID_00000116955003634302354040000002350164407300682168_" gradientUnits="userSpaceOnUse" x1="93.588" y1="75.8588" x2="93.588" y2="117.1437" gradientTransform="matrix(1 0 0 -1 0 187.8898)">
			<stop  offset="0" style="stop-color:#1D4A79"/>
			<stop  offset="1" style="stop-color:#45CAF2"/>
		</linearGradient>
		<path style="fill:url(#SVGID_00000116955003634302354040000002350164407300682168_);" d="M93.588,70.746L75.784,81.067v20.642
			l17.804,10.322l17.804-10.322V81.067L93.588,70.746z"/>
		<path style="fill:#156AB3;stroke:#0078D4;stroke-width:0.1613;stroke-linejoin:round;" d="M111.263,81.164v20.481l-17.675,10.224
			V91.388L111.263,81.164z"/>
		<path style="fill:#1D4A79;stroke:#0078D4;stroke-width:0.1613;stroke-linejoin:round;" d="M111.263,81.167L93.588,91.391
			L75.913,81.167L93.588,70.91L111.263,81.167z"/>
		<path style="opacity:0.3;fill:#003067;enable-background:new    ;" d="M111.263,113.522l-17.675,10.225l-17.675-10.225
			l17.675-10.256L111.263,113.522z"/>
		<path style="fill:#185A97;stroke:#0078D4;stroke-width:0.1613;stroke-linejoin:round;" d="M93.588,91.388v20.481l-17.675-10.224
			V81.164L93.588,91.388z"/>
		<path style="fill:#1D4A79;stroke:#0078D4;stroke-width:0.1613;stroke-linejoin:round;" d="M75.913,101.648l17.675-10.257v20.481
			L75.913,101.648z"/>
		<path style="fill:#185A97;stroke:#0078D4;stroke-width:0.1613;stroke-linejoin:round;" d="M111.263,101.648L93.588,91.391v20.481
			L111.263,101.648z"/>
		<path style="opacity:0.2;fill-rule:evenodd;clip-rule:evenodd;fill:#003067;enable-background:new    ;" d="M55.366,128.856
			l6.503,4.645l1.858,8.826l4.357-4.357l4.933,3.892l12.077-21.831L55.366,128.856z"/>
		<path style="fill-rule:evenodd;clip-rule:evenodd;fill:#FFFFFF;" d="M85.094,112.598l-23.225,13.47l-6.503-4.645L85.094,112.598z"
			/>
		<path style="fill-rule:evenodd;clip-rule:evenodd;fill:#FFFFFF;" d="M85.094,112.598l-12.077,21.831l-4.933-3.892l-3.893-3.075
			L85.094,112.598z"/>
		<path style="fill-rule:evenodd;clip-rule:evenodd;fill:#F2F2F2;" d="M68.084,130.536l-4.357,4.357l0.465-7.432L68.084,130.536z"/>
		<path style="fill-rule:evenodd;clip-rule:evenodd;fill:#E8E8E8;" d="M85.094,112.598l-20.903,14.864l-0.465,7.432l-1.858-8.826
			L85.094,112.598z"/>
		<path style="fill:none;stroke:#FFFFFF;stroke-linecap:round;stroke-linejoin:round;stroke-dasharray:4,4;" d="M35.289,111.871
			l-11.915,6.685c-2.398,1.345-2.402,3.553-0.007,4.905l23.004,12.994c1.342,0.663,2.825,0.993,4.321,0.961s2.964-0.424,4.277-1.144
			l5.312-3.306"/>
		<path style="opacity:0.2;fill:#003067;enable-background:new    ;" d="M37.226,124.244c-0.1,0.033-0.186,0.097-0.248,0.182
			c-0.062,0.085-0.095,0.187-0.096,0.292c-0.001,0.105,0.032,0.208,0.092,0.293c0.061,0.086,0.147,0.15,0.246,0.184
			c0.254,0.13,0.535,0.198,0.821,0.198c0.285,0,0.567-0.068,0.821-0.198l25.73-14.855c0.1-0.033,0.186-0.096,0.248-0.181
			c0.062-0.085,0.095-0.187,0.096-0.292c0.001-0.105-0.032-0.208-0.092-0.294c-0.061-0.085-0.147-0.15-0.246-0.184
			c-0.254-0.13-0.535-0.198-0.821-0.198c-0.285,0-0.567,0.068-0.821,0.198L37.226,124.244z"/>
		<path style="fill:#E8E8E8;" d="M48.378,67.244c5.865-3.386,11.189-3.693,15.04-1.455l1.625,0.945
			c-3.851-2.238-9.175-1.931-15.04,1.455c-11.677,6.742-21.146,23.171-21.108,36.623c0.019,6.694,2.389,11.409,6.204,13.626
			l-1.625-0.945c-3.815-2.217-6.185-6.932-6.204-13.626C27.231,90.416,36.701,73.986,48.378,67.244z"/>
		<path style="fill:#FFFFFF;" d="M71.247,80.357c0.038,13.452-9.431,29.881-21.106,36.621c-11.677,6.742-21.208,1.283-21.247-12.169
			c-0.038-13.452,9.431-29.882,21.108-36.623C61.678,61.445,71.209,66.905,71.247,80.357z M36.953,110.964
			c0.962,0.994,2.174,1.71,3.509,2.072c1.485,0.379,3.039,0.399,4.533,0.061c0.051-0.004,0.1-0.021,0.143-0.048l0.125-0.073
			c0.257-0.144,0.47-0.355,0.618-0.611c0.145-0.248,0.221-0.53,0.219-0.818l-0.009-3.161c-0.275,0.229-0.547,0.443-0.822,0.638
			c-0.275,0.192-0.55,0.371-0.822,0.528c-0.692,0.452-1.502,0.692-2.328,0.689c-0.336-0.04-0.655-0.173-0.921-0.383
			c-0.266-0.209-0.469-0.488-0.587-0.805c-0.151-0.241-0.272-0.457-0.368-0.644c-0.091-0.182-0.215-0.345-0.365-0.481
			c-0.143-0.129-0.303-0.238-0.475-0.324c-0.209-0.102-0.427-0.184-0.652-0.245c-0.093-0.031-0.216-0.067-0.364-0.118
			c-0.052-0.016-0.099-0.045-0.137-0.085c-0.037-0.04-0.064-0.088-0.077-0.141c-0.013-0.053-0.012-0.109,0.004-0.161
			c0.015-0.053,0.044-0.1,0.083-0.138l0.221-0.238c0.069-0.075,0.149-0.14,0.238-0.191l0.189-0.109
			c0.235-0.132,0.492-0.219,0.759-0.257c0.228-0.033,0.461-0.018,0.683,0.043c0.21,0.059,0.408,0.154,0.586,0.28
			c0.172,0.121,0.327,0.264,0.461,0.426c0.297,0.393,0.715,0.677,1.19,0.808c0.593,0.074,1.193-0.078,1.68-0.425
			c0.336-0.197,0.654-0.423,0.949-0.675c0.321-0.273,0.622-0.568,0.9-0.884c0.066-0.527,0.176-1.048,0.328-1.557
			c0.162-0.537,0.396-1.051,0.694-1.527c-1.012,0.497-2.098,0.828-3.215,0.98c-0.798,0.117-1.612-0.034-2.314-0.429
			c-0.68-0.455-1.175-1.137-1.399-1.923c-0.345-1.158-0.504-2.363-0.47-3.571c0.001-0.99,0.138-1.975,0.405-2.928
			c0.295-1.055,0.712-2.072,1.243-3.031c-0.123-0.291-0.209-0.596-0.256-0.909c-0.056-0.345-0.084-0.695-0.084-1.045
			c0.011-0.503,0.058-1.005,0.141-1.502c0.086-0.526,0.2-1.048,0.342-1.562c0.051-0.054,0.11-0.1,0.174-0.137l0.174-0.101
			c0.331-0.19,0.689-0.329,1.061-0.412c0.364-0.084,0.735-0.14,1.108-0.165c0.349-0.026,0.699-0.022,1.047,0.014
			c0.303,0.03,0.604,0.074,0.903,0.134c1.242-1.131,2.599-2.129,4.05-2.977c1.266-0.75,2.629-1.322,4.051-1.701
			c0.252-0.352,0.553-0.746,0.899-1.174c0.348-0.432,0.701-0.849,1.058-1.249c0.344-0.387,0.708-0.756,1.091-1.104
			c0.324-0.301,0.68-0.566,1.06-0.793l0.174-0.1c0.053-0.033,0.112-0.055,0.174-0.064c0.162,0.377,0.285,0.77,0.367,1.172
			c0.089,0.436,0.133,0.88,0.132,1.325c0,0.381-0.026,0.761-0.078,1.138c-0.053,0.406-0.136,0.807-0.25,1.201
			c0.567,0.4,1.005,0.958,1.258,1.604c0.293,0.778,0.434,1.605,0.417,2.437c0.007,1.389-0.148,2.773-0.463,4.126
			c-0.299,1.234-0.765,2.422-1.384,3.53c-0.63,1.124-1.406,2.16-2.307,3.08c-0.984,0.999-2.058,1.905-3.208,2.708
			c0.214,0.107,0.403,0.26,0.551,0.449c0.148,0.188,0.253,0.407,0.308,0.64c0.163,0.564,0.245,1.148,0.243,1.735
			c-0.01,0.882-0.013,1.74-0.01,2.574l0.007,2.546c0.001,0.28,0.075,0.46,0.223,0.544c0.1,0.038,0.208,0.05,0.313,0.033
			c0.106-0.016,0.205-0.06,0.289-0.126c0.044-0.038,0.091-0.072,0.142-0.099c0.051-0.028,0.099-0.061,0.142-0.1
			c1.678-1.62,3.192-3.403,4.518-5.322c1.336-1.926,2.503-3.964,3.486-6.092c0.956-2.061,1.709-4.21,2.248-6.416
			c0.508-2.041,0.768-4.135,0.774-6.237c0.006-1.555-0.196-3.104-0.601-4.605c-0.337-1.258-0.892-2.447-1.642-3.512
			c-0.665-0.95-1.54-1.735-2.556-2.296c-1.018-0.549-2.134-0.894-3.285-1.016c-1.298-0.128-2.609-0.014-3.866,0.337
			c-1.51,0.415-2.958,1.03-4.304,1.83c-1.537,0.905-2.979,1.964-4.303,3.159c-1.402,1.26-2.696,2.635-3.87,4.11
			c-1.215,1.518-2.307,3.129-3.268,4.819c-0.958,1.681-1.8,3.426-2.52,5.223c-0.701,1.744-1.248,3.547-1.634,5.387
			c-0.367,1.734-0.553,3.5-0.555,5.272c-0.013,1.805,0.265,3.599,0.824,5.315C35.153,108.562,35.925,109.87,36.953,110.964"/>
		<path d="M50.019,73.85c-1.537,0.905-2.979,1.964-4.303,3.159c-1.402,1.26-2.696,2.635-3.87,4.11
			c-1.215,1.518-2.307,3.129-3.268,4.819c-0.958,1.681-1.8,3.426-2.52,5.223c-0.701,1.744-1.248,3.547-1.634,5.387
			c-0.367,1.734-0.553,3.5-0.555,5.272c-0.013,1.804,0.265,3.599,0.824,5.315c0.46,1.429,1.232,2.737,2.26,3.83
			c0.962,0.995,2.174,1.711,3.509,2.073c1.485,0.378,3.039,0.399,4.533,0.061c0.051-0.005,0.1-0.021,0.142-0.049l0.125-0.072
			c0.257-0.145,0.47-0.356,0.618-0.611c0.145-0.248,0.221-0.531,0.219-0.818l-0.009-3.162c-0.275,0.23-0.547,0.443-0.822,0.639
			c-0.275,0.192-0.55,0.371-0.822,0.528c-0.692,0.452-1.502,0.692-2.328,0.689c-0.336-0.041-0.655-0.173-0.921-0.383
			c-0.266-0.209-0.469-0.488-0.587-0.806c-0.151-0.24-0.272-0.456-0.368-0.643c-0.091-0.182-0.214-0.345-0.365-0.481
			c-0.143-0.129-0.303-0.238-0.475-0.325c-0.194-0.094-0.396-0.174-0.603-0.236c-0.143-0.039-0.266-0.076-0.413-0.126
			c-0.052-0.016-0.099-0.045-0.137-0.085c-0.037-0.04-0.064-0.088-0.077-0.142c-0.013-0.053-0.011-0.108,0.004-0.161
			c0.015-0.052,0.044-0.1,0.083-0.138l0.221-0.237c0.069-0.075,0.149-0.14,0.238-0.191l0.189-0.109
			c0.235-0.132,0.492-0.219,0.759-0.258c0.228-0.032,0.461-0.017,0.684,0.044c0.21,0.059,0.408,0.154,0.586,0.28
			c0.172,0.12,0.327,0.264,0.461,0.426c0.297,0.393,0.715,0.677,1.19,0.807c0.593,0.075,1.193-0.077,1.68-0.424
			c0.336-0.197,0.654-0.423,0.949-0.676c0.321-0.272,0.622-0.567,0.9-0.884c0.066-0.526,0.176-1.047,0.327-1.556
			c0.162-0.538,0.396-1.051,0.694-1.527c-1.012,0.497-2.098,0.828-3.215,0.98c-0.798,0.117-1.612-0.034-2.314-0.429
			c-0.68-0.455-1.175-1.137-1.399-1.924c-0.345-1.157-0.504-2.363-0.47-3.57c0.002-0.99,0.138-1.975,0.405-2.928
			c0.295-1.055,0.712-2.072,1.243-3.031c-0.123-0.291-0.209-0.596-0.256-0.909c-0.056-0.345-0.084-0.695-0.084-1.045
			c0.011-0.503,0.058-1.005,0.141-1.502c0.086-0.526,0.2-1.048,0.342-1.562c0.051-0.054,0.11-0.1,0.174-0.137l0.174-0.101
			c0.331-0.19,0.689-0.329,1.061-0.412c0.364-0.084,0.735-0.14,1.108-0.165c0.349-0.026,0.699-0.022,1.047,0.014
			c0.303,0.03,0.604,0.074,0.903,0.134c1.242-1.131,2.599-2.129,4.05-2.977c1.266-0.75,2.629-1.322,4.051-1.701
			c0.252-0.352,0.554-0.746,0.899-1.174c0.348-0.432,0.701-0.849,1.058-1.249c0.344-0.387,0.708-0.756,1.091-1.104
			c0.324-0.301,0.68-0.566,1.06-0.793l0.174-0.101c0.053-0.033,0.112-0.055,0.174-0.064c0.162,0.377,0.285,0.77,0.367,1.172
			c0.089,0.436,0.133,0.88,0.132,1.325c0,0.381-0.026,0.761-0.078,1.138c-0.053,0.406-0.136,0.807-0.25,1.201
			c0.567,0.4,1.005,0.958,1.258,1.604c0.293,0.778,0.434,1.605,0.417,2.437c0.007,1.389-0.148,2.773-0.463,4.126
			c-0.299,1.234-0.765,2.422-1.384,3.53c-0.63,1.124-1.406,2.16-2.307,3.08c-0.984,0.999-2.058,1.905-3.208,2.708
			c0.214,0.107,0.403,0.26,0.551,0.449c0.148,0.188,0.253,0.407,0.308,0.64c0.163,0.564,0.245,1.148,0.243,1.735
			c-0.01,0.882-0.013,1.739-0.01,2.574l0.007,2.546c0.001,0.279,0.075,0.46,0.223,0.544c0.1,0.038,0.208,0.049,0.313,0.033
			c0.106-0.016,0.205-0.06,0.289-0.127c0.044-0.038,0.091-0.071,0.142-0.099c0.051-0.027,0.099-0.061,0.142-0.099
			c1.678-1.62,3.192-3.403,4.518-5.323c1.336-1.925,2.502-3.963,3.486-6.091c0.956-2.061,1.709-4.21,2.248-6.416
			c0.508-2.041,0.768-4.135,0.774-6.237c0.006-1.555-0.196-3.104-0.601-4.605c-0.337-1.258-0.893-2.447-1.642-3.512
			c-0.666-0.95-1.54-1.736-2.556-2.295c-1.018-0.549-2.134-0.894-3.285-1.016c-1.298-0.128-2.609-0.014-3.866,0.337
			C52.813,72.435,51.366,73.05,50.019,73.85L50.019,73.85z"/>
	</g>
</g>
</svg>
