<?xml version="1.0" encoding="UTF-8"?>
<svg xmlns="http://www.w3.org/2000/svg" xmlns:xlink="http://www.w3.org/1999/xlink" version="1.1" viewBox="0 0 160 188">
  <defs>
    <style>
      .cls-1, .cls-2 {
        fill: none;
      }

      .cls-3, .cls-4, .cls-5, .cls-6, .cls-7, .cls-8 {
        fill-rule: evenodd;
      }

      .cls-3, .cls-9 {
        fill: #e8e8e8;
      }

      .cls-10 {
        fill: #50e6ff;
      }

      .cls-4, .cls-11 {
        fill: #fff;
      }

      .cls-12 {
        fill: #1b93eb;
      }

      .cls-13 {
        fill: #f2f1f0;
      }

      .cls-14 {
        fill: #c3f1ff;
      }

      .cls-15 {
        fill: url(#linear-gradient-7);
      }

      .cls-16 {
        fill: url(#linear-gradient-5);
      }

      .cls-17 {
        fill: url(#linear-gradient-6);
      }

      .cls-18 {
        fill: url(#linear-gradient-4);
      }

      .cls-19 {
        fill: url(#linear-gradient-3);
      }

      .cls-20 {
        fill: url(#linear-gradient-2);
      }

      .cls-21 {
        fill: #156ab3;
      }

      .cls-21, .cls-22, .cls-2, .cls-23 {
        stroke-linejoin: round;
      }

      .cls-21, .cls-22, .cls-23 {
        stroke: #0078d4;
        stroke-width: .2px;
      }

      .cls-24, .cls-7 {
        fill: #0078d4;
      }

      .cls-5, .cls-25, .cls-26, .cls-27 {
        fill: #003067;
      }

      .cls-5, .cls-26 {
        opacity: .2;
      }

      .cls-5, .cls-26, .cls-27 {
        isolation: isolate;
      }

      .cls-6, .cls-28 {
        fill: #f2f2f2;
      }

      .cls-29 {
        fill: #1f56a3;
      }

      .cls-30 {
        fill: #32bedd;
      }

      .cls-22 {
        fill: #185a97;
      }

      .cls-27 {
        opacity: .3;
      }

      .cls-8 {
        fill: url(#linear-gradient);
      }

      .cls-2 {
        stroke: #fff;
        stroke-dasharray: 4 4;
        stroke-linecap: round;
      }

      .cls-31 {
        clip-path: url(#clippath);
      }

      .cls-32 {
        fill: #1490df;
      }

      .cls-23 {
        fill: #1d4a79;
      }
    </style>
    <clipPath id="clippath">
      <rect class="cls-1" y="0" width="159.4" height="188"/>
    </clipPath>
    <linearGradient id="linear-gradient" x1="79.6" y1="662.2" x2="79.6" y2="833.6" gradientTransform="translate(0 -654)" gradientUnits="userSpaceOnUse">
      <stop offset="0" stop-color="#00abde"/>
      <stop offset="1" stop-color="#007ed8"/>
    </linearGradient>
    <linearGradient id="linear-gradient-2" x1="93.6" y1="766" x2="93.6" y2="724.8" gradientTransform="translate(0 -654)" gradientUnits="userSpaceOnUse">
      <stop offset="0" stop-color="#1d4a79"/>
      <stop offset="1" stop-color="#45caf2"/>
    </linearGradient>
    <linearGradient id="linear-gradient-3" x1="62.1" y1="736.1" x2="62.1" y2="761.3" gradientTransform="translate(0 -654)" gradientUnits="userSpaceOnUse">
      <stop offset="0" stop-color="#008bf1"/>
      <stop offset="1" stop-color="#004dae"/>
    </linearGradient>
    <linearGradient id="linear-gradient-4" x1="48.4" y1="773.9" x2="48.4" y2="738.7" gradientTransform="translate(0 -654)" gradientUnits="userSpaceOnUse">
      <stop offset="0" stop-color="#008bf1"/>
      <stop offset=".2" stop-color="#0086ec"/>
      <stop offset=".5" stop-color="#0078dd"/>
      <stop offset=".8" stop-color="#0061c4"/>
      <stop offset="1" stop-color="#004dae"/>
    </linearGradient>
    <linearGradient id="linear-gradient-5" x1="34.6" y1="773.8" x2="34.6" y2="753.2" gradientTransform="translate(0 -654)" gradientUnits="userSpaceOnUse">
      <stop offset="0" stop-color="#005ba1"/>
      <stop offset=".3" stop-color="#00589d"/>
      <stop offset=".5" stop-color="#004f90"/>
      <stop offset=".8" stop-color="#003f7c"/>
      <stop offset="1" stop-color="#003067"/>
    </linearGradient>
    <linearGradient id="linear-gradient-6" x1="37.3" y1="775.8" x2="37.3" y2="750.1" gradientTransform="translate(0 -654)" gradientUnits="userSpaceOnUse">
      <stop offset="0" stop-color="#004dae"/>
      <stop offset="1" stop-color="#008bf1"/>
    </linearGradient>
    <linearGradient id="linear-gradient-7" x1="508.3" y1="763.7" x2="878.6" y2="763.7" gradientTransform="translate(0 -654)" gradientUnits="userSpaceOnUse">
      <stop offset="0" stop-color="#008bf1"/>
      <stop offset="1" stop-color="#004dae"/>
    </linearGradient>
  </defs>
  <!-- Generator: Adobe Illustrator 28.6.0, SVG Export Plug-In . SVG Version: 1.2.0 Build 709)  -->
  <g>
    <g id="Layer_1">
      <g id="Layer_1-2" data-name="Layer_1">
        <g class="cls-31">
          <g>
            <path class="cls-13" d="M79.7,188c3.1,0,6.1-.9,8.7-2.5l62-37.7c2.8-1.8,5.1-4.2,6.6-7.1,1.6-2.9,2.4-6.1,2.3-9.4V56.6c0-3.3-.8-6.5-2.3-9.4-1.6-2.9-3.9-5.3-6.6-7.1L88.4,2.4C85.8.8,82.8,0,79.7,0s-6.1.8-8.7,2.4L9,40.1c-2.8,1.8-5.1,4.2-6.6,7.1-1.6,2.9-2.4,6.1-2.4,9.4v74.7c0,2.8.6,5.5,1.7,8.1,1.1,2.5,2.8,4.8,4.9,6.7h0l64.4,39.5c2.6,1.6,5.6,2.4,8.7,2.5h0ZM80.3,7c2,0,4.4,1.2,6.1,2.3l60.8,37.2c3.8,2.3,5.9,8.9,5.9,13.6l-.6,71.3c0,4.8-3.2,9-7,11.3l-60.4,36.4c-3.4,2.1-6.2,2.1-9.7,0l-61.2-36.5c-3.8-2.3-6.8-6.5-6.8-11.2V57.7c0-2.4.6-4.7,1.8-6.8,1.1-2.1,2.8-3.8,4.7-5.2L74.5,9.2c1.7-1,3.8-2.3,5.8-2.3h0Z"/>
            <path class="cls-8" d="M87.6,10.5c-2.4-1.5-5.1-2.3-7.9-2.3s-5.5.8-7.9,2.3L15.6,44.9c-2.5,1.6-4.6,3.8-6,6.5-1.4,2.6-2.1,5.6-2.1,8.6v68.1c0,3,.7,6,2.1,8.6s3.5,4.9,6,6.5l56.1,34.3c2.4,1.5,5.1,2.3,7.9,2.3s5.5-.8,7.9-2.3l56.1-34.3c2.5-1.6,4.6-3.8,6-6.5,1.4-2.6,2.1-5.6,2.1-8.6V59.9c0-3-.7-6-2.1-8.6-1.4-2.6-3.5-4.9-6-6.5L87.6,10.5Z"/>
            <path class="cls-7" d="M79.7,9.8c1.7,0,3.6.9,5.6,2.1l58.5,35.5c1.9,1.2,3.4,2.9,4.5,4.9s1.6,4.2,1.6,6.4v70.5c0,2.2-.5,4.5-1.6,6.4-1.1,2-2.6,3.7-4.5,4.9l-58.5,35.5h0c-1.7,1.1-3.6,1.8-5.6,1.9-2-.1-4-.8-5.6-1.9h0l-58.5-35.5h0c-1.8-1-3.3-2.4-4.4-4-1-1.6-1.6-3.8-1.6-7.3V58.7c0-2.2.5-4.5,1.6-6.4s2.6-3.7,4.5-4.9L74,11.9h0c2.1-1.3,3.9-2.1,5.6-2.1h0ZM87.4,8.5l58.5,35.5c2.5,1.6,4.5,3.7,5.9,6.3s2.1,5.5,2.1,8.4v70.5c0,2.9-.7,5.8-2.1,8.4s-3.4,4.8-5.9,6.3l-58.5,35.5c-2.3,1.5-5,2.4-7.7,2.5-2.8-.1-5.4-1-7.7-2.5h0l-58.5-35.5h0c-2.3-1.3-4.3-3.1-5.8-5.4-1.6-2.9-2.4-6.1-2.2-9.4V58.7c0-2.9.7-5.8,2.1-8.4s3.4-4.8,5.9-6.3L72,8.5h0c2.1-1.3,4.8-2.7,7.7-2.7s5.6,1.4,7.7,2.7h0Z"/>
            <path class="cls-26" d="M140,132l-59.6,34.6-59.9-34.6,59.5-34.6,59.9,34.6h.1Z"/>
            <path class="cls-12" d="M140.5,120.5l-60.7,35.3-61.1-35.3,60.7-35.3,61.1,35.3Z"/>
            <path class="cls-29" d="M140.5,120.5v4.1l-60.7,35.3v-4.1l60.7-35.3h0Z"/>
            <path class="cls-24" d="M79.8,155.8v4.1l-61.1-35.3v-4.1l61.1,35.3Z"/>
            <path class="cls-29" d="M106.1,125.5c0,0,.2-.2.2-.3v-2.1.4c0,0,0,.2-.2.3l-1.3,1.2v2-.3l1.3-1.2Z"/>
            <path class="cls-29" d="M82.6,126.7h0v.2-1.7h0v-.2l-1.3-1.2c0,0-.2-.2-.3-.3v-.4,2.1c0,0,0,.2.3.3l1.3,1.2Z"/>
            <path class="cls-29" d="M77.1,128.4v2.3-2.3Z"/>
            <path class="cls-29" d="M108.5,130.4l-2.4.3c-.2,0-.4.1-.6.3l-.7,1v2-.3l.7-1c0-.2.3-.3.6-.3l2.4-.3c1-.1,1.8-.7,1.8-1.3v-1.7c0,.6-.8,1.2-1.8,1.3Z"/>
            <path class="cls-29" d="M81.7,132.5s.2.1.2.2l.7,1v.2-1.9l-.7-1s0-.2-.2-.2-.2-.1-.4-.1l-2.4-.3c-.4,0-.8-.2-1.1-.4-.2,0-.4-.2-.5-.4s-.2-.4-.2-.6v1.7c0,.2,0,.4.2.6,0,.2.3.3.5.4.3.2.7.3,1.1.4l2.4.3c0,0,.3,0,.4.1h0Z"/>
            <path class="cls-29" d="M105.9,135.3l-.7.4c-.9.4-1.9.5-2.9.2l-2.1-.8h-.8l-1.7.4c-.2,0-.4.2-.6.3l-.5,1.4c-.3.4-.6.7-1,.8-.4.2-.8.3-1.3.2h-1c-.6,0-1.1-.1-1.7-.4-.3-.1-.5-.4-.6-.6l-.5-1.4s0-.2-.2-.2c0,0-.2,0-.3-.1l-1.7-.4h-.8l-2.1.8c-1,.3-2,.3-2.9-.2l-.7-.4c-.2,0-.3-.2-.5-.4,0-.2-.2-.4-.2-.6v1.7c0,.2,0,.4.2.6,0,.2.3.3.5.4l.7.4c.9.4,1.9.5,2.9.2l2.1-.8h.8l1.7.4s.2,0,.3.1c0,0,.2.1.2.2l.5,1.4c0,.3.4.5.6.6.5.3,1.1.4,1.7.4h1c.4,0,.9,0,1.3-.2s.7-.5,1-.8l.5-1.4c0-.2.4-.3.6-.3l1.7-.4h.8l2.1.8c1,.3,2,.3,2.9-.2l.7-.4c.2,0,.3-.2.5-.4,0-.2.2-.4.2-.6v-1.7c0,.2,0,.4-.2.6,0,.2-.3.3-.5.4Z"/>
            <path class="cls-24" d="M106.2,133.7c.6.5.4,1.3-.3,1.7l-.7.4c-.9.4-1.9.5-2.9.2l-2.1-.8h-.8l-1.7.4c-.2,0-.4.2-.6.3l-.5,1.4c-.3.4-.6.6-1,.8s-.8.3-1.3.2h-1c-.6,0-1.1-.1-1.7-.4-.3-.1-.5-.4-.6-.6l-.5-1.4s0-.2-.2-.2c0,0-.2,0-.3-.1l-1.7-.4h-.8l-2.1.8c-1,.3-2,.3-2.9-.2l-.7-.4c-.7-.4-.9-1.2-.3-1.7l1.3-1.2v-.4l-.7-1s0-.2-.2-.2-.2-.1-.4-.1l-2.4-.3c-.4,0-.8-.2-1.1-.4-.2,0-.4-.2-.5-.4s-.2-.4-.2-.6v-.6c0-.6.8-1.2,1.8-1.3l2.4-.3c.2,0,.4,0,.6-.3l.7-1v-.4l-1.3-1.2c-.6-.5-.4-1.3.3-1.7l.7-.4c.9-.4,1.9-.5,2.9-.2l2.1.8h.8l1.7-.4c.2,0,.5-.2.6-.3l.5-1.4c.3-.4.6-.7,1-.8.4-.2.8-.3,1.3-.2h1c.6,0,1.1,0,1.7.4.3,0,.5.4.6.6l.5,1.4s0,.2.2.2c0,0,.2,0,.3,0l1.7.4h.8l2.1-.8c1-.3,2-.3,2.9.2l.7.4c.7.4.9,1.2.3,1.7l-1.3,1.2v.4l.7,1s0,.2.2.2.2,0,.4,0l2.4.3c.4,0,.8.2,1.1.4.2,0,.4.2.5.4,0,.2.2.4.2.6v.6c0,.6-.8,1.2-1.8,1.3l-2.4.3c-.2,0-.4.1-.6.3l-.7,1v.4l1.3,1.2ZM90.1,130.9c1.1.6,2.4.9,3.7.9s2.5-.3,3.7-.9c2-1.2,2-3.1,0-4.2-1.1-.6-2.4-.9-3.7-.9s-2.5.3-3.7.9c-2,1.2-2,3.1,0,4.3"/>
            <path class="cls-29" d="M90.1,130.9c1.1.6,2.4.9,3.7.9s2.5-.3,3.7-.9c2-1.2,2-3.1,0-4.2-1.1-.6-2.4-.9-3.7-.9s-2.5.3-3.7.9c-2,1.2-2,3.1,0,4.3"/>
            <path class="cls-26" d="M98.9,127.1c-1.7-.8-3.5-1.3-5.4-1.3s-3.7.4-5.4,1.3c-3,1.7-2.9,4.5,0,6.2,1.3.7,2.8,1.1,4.2,1.2,2.2.2,4.5-.2,6.5-1.2,3-1.7,2.9-4.5,0-6.2h.1ZM93.1,132c-.6,0-1.2-.2-1.8-.5-.3,0-.5-.3-.7-.5s-.3-.5-.3-.8,0-.6.2-.8.4-.4.7-.5c.7-.4,1.4-.5,2.2-.5s1.5.2,2.2.5c.3,0,.5.3.7.5s.3.5.3.8,0,.6-.2.8-.4.4-.7.5c-.8.4-1.8.6-2.7.5h.1Z"/>
            <path class="cls-24" d="M98.9,123.3v1.4l-3.1,1.8v-1.4l3.1-1.8Z"/>
            <path class="cls-24" d="M96.7,126.4v1.4c0-.3,0-.5-.3-.8-.2-.2-.4-.4-.6-.5v-1.4c.3,0,.5.3.6.5.2.2.3.5.3.8h0Z"/>
            <path class="cls-29" d="M90.4,127.8v-1.4c0-.3,0-.5.3-.8.2-.2.4-.4.6-.5.7-.4,1.4-.5,2.2-.5s1.5.2,2.2.5v1.4c-.7-.4-1.5-.5-2.2-.5s-1.5.2-2.2.5c-.3,0-.5.3-.6.5-.2.2-.3.5-.3.8h0Z"/>
            <path class="cls-24" d="M101.2,126.4v1.4c0,.7-.3,1.3-.7,1.8-.4.5-.9,1-1.5,1.2v-1.4c.6-.3,1.1-.7,1.5-1.2s.6-1.2.7-1.8h0Z"/>
            <path class="cls-32" d="M98.9,123.3c3,1.7,3,4.5,0,6.2l-3.2-1.8c.3,0,.5-.3.7-.5s.3-.5.2-.8c0-.3,0-.6-.3-.8-.2-.2-.4-.4-.7-.5l3.1-1.8h.2Z"/>
            <path class="cls-32" d="M99,129.5v1.4l-3.2-1.8v-1.4l3.2,1.8h0Z"/>
            <path class="cls-29" d="M86,127.8v-1.4c0,.7.3,1.3.7,1.9.4.6.9,1,1.5,1.3,1.3.7,2.8,1.1,4.2,1.2v1.4c-1.5-.1-2.9-.5-4.2-1.2-.6-.3-1.2-.7-1.5-1.3-.4-.6-.6-1.2-.7-1.9h0Z"/>
            <path class="cls-24" d="M98.9,123.3l-3.1,1.8c-.7-.4-1.4-.5-2.2-.5s-1.5.2-2.2.5c-.3,0-.5.3-.7.5s-.3.5-.2.8c0,.3,0,.6.3.8.2.2.4.4.7.5.5.3,1.1.5,1.8.5l-.7,2.6c-1.5-.1-2.9-.5-4.2-1.2-3-1.7-3-4.5,0-6.2,1.7-.8,3.5-1.3,5.4-1.3s3.7.4,5.4,1.3h-.3Z"/>
            <path class="cls-24" d="M93.1,128.2v1.4l-.7,2.6v-1.4l.7-2.6Z"/>
            <path class="cls-10" d="M95.8,127.7l3.2,1.8c-2,1-4.3,1.5-6.5,1.2l.7-2.6c.9,0,1.9,0,2.7-.5h0Z"/>
            <path class="cls-30" d="M99,129.5v1.4c-2,1-4.3,1.5-6.5,1.2v-1.4c2.3.2,4.5-.2,6.5-1.2h0Z"/>
            <path class="cls-11" d="M42.8,73.8c-.3.2-.5.4-.6.6,0,.3-.2.5-.2.8,0,.5.4.8.9.5l13-7.5c.3-.2.5-.4.6-.6s.2-.5.3-.8c0-.6-.4-.8-.9-.5l-13,7.5h0Z"/>
            <path class="cls-29" d="M39.2,83.3c-.3.2-.5.4-.6.6,0,.3-.2.5-.2.8,0,.5.4.8.9.5l26.5-15.3c.2-.2.5-.4.6-.6s.2-.5.2-.8c0-.6-.4-.8-.9-.5,0,0-26.5,15.3-26.5,15.3Z"/>
            <path class="cls-10" d="M23,85.2c-.3.2-.5.4-.6.6-.1.3-.2.5-.3.8,0,.5.4.8.9.5l13-7.5c.2-.2.5-.4.6-.6,0-.3.2-.5.2-.8,0-.6-.4-.8-.9-.5l-13,7.5h.1Z"/>
            <path class="cls-11" d="M23,77.7c-.3.2-.5.4-.6.6-.1.3-.2.5-.3.8,0,.5.4.8.9.5l26.5-15.3c.3-.2.5-.4.6-.6,0-.3.2-.5.3-.8,0-.6-.4-.8-.9-.5,0,0-26.5,15.3-26.5,15.3Z"/>
            <path class="cls-14" d="M24,54.9c-.3.2-.5.4-.6.7-.3.6-.3,1.2,0,1.4l5.8,3.3-5.8,10c-.3.6-.3,1.2,0,1.4h.3c.1,0,.2,0,.3,0,.3-.2.5-.4.6-.7l6.9-12v-.2h0c0,0-7-4.1-7-4.1h-.3c-.1,0-.2,0-.3,0h0v.2Z"/>
            <path class="cls-14" d="M31.2,66.6c-.3.2-.5.4-.6.6-.1.3-.2.5-.3.8,0,.5.4.8.9.5l9.3-5.4c.2-.2.5-.4.6-.6,0-.3.2-.5.2-.8,0-.6-.4-.8-.9-.5l-9.3,5.4h.1Z"/>
            <path class="cls-10" d="M56.1,58.6c-.3.2-.5.4-.6.6,0,.3-.2.5-.2.8,0,.5.4.8.9.5l9.6-5.5c.2-.2.5-.4.6-.6,0-.3.2-.5.2-.8,0-.6-.4-.8-.9-.5l-9.6,5.5Z"/>
            <path class="cls-11" d="M23,92.6c-.3.2-.5.4-.6.6-.1.3-.2.5-.3.8,0,.5.4.8.9.5l9.6-5.5c.2-.2.5-.4.6-.6,0-.3.2-.5.3-.8,0-.6-.4-.8-.9-.5,0,0-9.6,5.5-9.6,5.5Z"/>
            <path class="cls-29" d="M62.5,62.4c-.2.2-.5.4-.6.6,0,.3-.2.5-.2.8,0,.5.4.8.9.5l13-7.5c.2-.2.5-.4.6-.6,0-.3.2-.5.3-.8,0-.6-.4-.8-.9-.5l-13,7.5h-.1Z"/>
            <path class="cls-28" d="M74.4,49.3l54.3,31.3v41.7c-.1.7-.6.9-1.2.6l-52.2-30.2c-.3-.2-.5-.5-.7-.8s-.3-.7-.3-1v-41.7h0Z"/>
            <path class="cls-9" d="M128.6,122.3v-41.7c.1,0,2.7-1.5,2.7-1.5v41.7c-.1,0-.1.3-.2.4,0,0-.1.2-.2.3l-2.6,1.5c.1,0,.2-.2.2-.3v-.4h.1Z"/>
            <path class="cls-29" d="M77.2,41.7h.3s.2,0,.3,0l52.7,30.4c.2,0,.4.4.6.6.1.2.2.5.2.8v5.6l-2.6,1.5v-5.6c0-.3,0-.5-.2-.8-.1-.2-.3-.4-.6-.6l-52.7-30.4s-.2,0-.3,0-.2,0-.3,0c0,0,2.6-1.5,2.6-1.5Z"/>
            <path class="cls-24" d="M127.9,73.6c.2,0,.4.4.6.6.1.2.2.5.2.8v5.6l-54.3-31.3v-5.6c0-.5.4-.7.8-.5,0,0,52.7,30.4,52.7,30.4Z"/>
            <path class="cls-10" d="M79.5,47.6c.4.3.7.6,1,1,.2.4.4.9.4,1.4,0,.9-.6,1.2-1.4.8-.4-.3-.7-.6-1-1-.2-.4-.4-.9-.4-1.4,0-.9.6-1.2,1.4-.8Z"/>
            <path class="cls-20" d="M93.6,70.7l-17.8,10.3v20.6l17.8,10.3,17.8-10.3v-20.6s-17.8-10.3-17.8-10.3Z"/>
            <path class="cls-21" d="M111.3,81.2v20.5l-17.7,10.2v-20.5l17.7-10.2Z"/>
            <path class="cls-23" d="M111.3,81.2l-17.7,10.2-17.7-10.2,17.7-10.3,17.7,10.3Z"/>
            <path class="cls-27" d="M111.3,113.5l-17.7,10.2-17.7-10.2,17.7-10.3,17.7,10.3Z"/>
            <path class="cls-22" d="M93.6,91.4v20.5l-17.7-10.2v-20.5s17.7,10.2,17.7,10.2Z"/>
            <path class="cls-23" d="M75.9,101.6l17.7-10.3v20.5s-17.7-10.2-17.7-10.2Z"/>
            <path class="cls-22" d="M111.3,101.6l-17.7-10.3v20.5l17.7-10.2Z"/>
            <path class="cls-26" d="M27.6,119.1c-.1,0-.2,0-.3.3,0,0-.1.3-.1.4s0,.3.1.4c0,0,.2.2.3.2l15.6,9c.3.2.7.3,1.1.2.4,0,.8-.1,1.1-.3.6-.4.6-.9,0-1.3h-.2c0,0,27.1-16.5,27.1-16.5h.2c.3.3.7.4,1.1.4s.8,0,1.1-.3c0,0,.2,0,.3-.3,0,0,0-.3,0-.4s0-.3,0-.4c0,0-.2-.2-.3-.2l-15.6-9c-.3-.2-.7-.3-1.1-.2-.4,0-.8,0-1.1.3,0,0-.2,0-.3.3,0,0,0,.3,0,.4s0,.3,0,.4c0,0,.2.2.3.2h.2c0,0-27.1,16.5-27.1,16.5h-.2c-.3-.3-.7-.4-1.1-.4s-.8,0-1.1.3h0Z"/>
            <path class="cls-24" d="M64.3,82.4c-2.7-1.6-5.1-1.8-6.9-.8l-2,1.1c1.8-1,4.2-.8,6.9.8,5.3,3.2,9.5,10.8,9.4,16.9,0,3.1-1.2,5.2-2.9,6.2l2-1.1c1.8-1,2.9-3.1,2.9-6.2,0-6.2-4.1-13.8-9.4-16.9Z"/>
            <path class="cls-19" d="M62.3,83.5c5.3,3.2,9.5,10.8,9.4,16.9,0,6.2-4.5,8.6-9.8,5.4s-9.5-10.8-9.4-16.9c0-6.2,4.5-8.6,9.8-5.4Z"/>
            <path class="cls-18" d="M62.3,85.8c-2.1-1.3-4-1.4-5.5-.6l-27.4,15.3h0c-1.4.8-2.3,2.5-2.3,4.9s.8,5.3,2.1,7.6c1.3,2.3,3.1,4.3,5.3,5.8,2.2,1.3,4.3,1.4,5.7.5,0,0-.2,0-.3.2l27.4-15.3c1.4-.8,2.3-2.5,2.3-4.9s-.8-5.3-2.1-7.6c-1.3-2.3-3.1-4.3-5.3-5.8h0Z"/>
            <path class="cls-25" d="M42,118.1l-2,1.1c1.4-.8,2.3-2.5,2.3-4.9l2-1.1c0,2.4-.9,4.1-2.3,4.9Z"/>
            <path class="cls-25" d="M29.4,100.3l2-1.1c1.4-.8,3.4-.6,5.5.6l-2,1.1c-2.1-1.3-4.1-1.4-5.5-.6Z"/>
            <path class="cls-25" d="M34.9,101l2-1.1c4.2,2.5,7.5,8.6,7.4,13.4l-2,1.1c0-4.9-3.2-10.9-7.4-13.4Z"/>
            <path class="cls-25" d="M40,119.3c3-1.7,3.1-7.3.2-12.5-2.9-5.2-7.7-8.1-10.8-6.4-3,1.7-3.1,7.3-.2,12.5,2.9,5.2,7.7,8.1,10.8,6.4Z"/>
            <path class="cls-16" d="M36.6,117.5c-2.2-1.5-4-3.5-5.3-5.8s-2-4.9-2.1-7.6c0-2.4.9-4.1,2.3-4.9l-2,1.1c-1.4.8-2.3,2.5-2.3,4.9s.8,5.3,2.1,7.6c1.3,2.3,3.1,4.3,5.3,5.8h0c2.1,1.3,4.1,1.4,5.5.6l2-1.1c-1.4.8-3.4.6-5.5-.6Z"/>
            <path class="cls-17" d="M37,97.5c-2.7-1.6-5.1-1.8-6.9-.8l-2,1.1c1.8-1,4.2-.8,6.9.8,5.3,3.2,9.5,10.8,9.4,16.9,0,3.1-1.2,5.2-2.9,6.2l2-1.1c1.8-1,2.9-3.1,2.9-6.2,0-6.2-4.1-13.8-9.4-16.9Z"/>
            <path class="cls-15" d="M35,98.6c5.3,3.2,9.5,10.8,9.4,16.9s-4.5,8.6-9.8,5.4-9.5-10.8-9.4-16.9c.1-6.2,4.5-8.6,9.8-5.4ZM34.6,118.6c4.2,2.5,7.7.6,7.8-4.3,0-4.9-3.2-10.9-7.4-13.4s-7.7-.6-7.8,4.3c0,4.9,3.2,10.9,7.4,13.4"/>
            <path class="cls-5" d="M55.4,128.9l6.5,4.6,1.9,8.8,4.4-4.4,4.9,3.9,12.1-21.8-29.7,8.8h-.1Z"/>
            <path class="cls-4" d="M85.1,112.6l-23.2,13.5-6.5-4.6,29.7-8.8h0Z"/>
            <path class="cls-4" d="M85.1,112.6l-12.1,21.8-4.9-3.9-3.9-3.1,20.9-14.9h0Z"/>
            <path class="cls-6" d="M68.1,130.5l-4.4,4.4.5-7.4,3.9,3.1h0Z"/>
            <path class="cls-3" d="M85.1,112.6l-20.9,14.9-.5,7.4-1.9-8.8,23.2-13.5h0Z"/>
            <path class="cls-2" d="M35.3,111.9l-11.9,6.7c-2.4,1.3-2.4,3.6,0,4.9l23,13c1.3.7,2.8,1,4.3,1s3-.4,4.3-1.1l5.3-3.3"/>
          </g>
        </g>
      </g>
    </g>
  </g>
</svg>