<svg width="181" height="191" viewBox="0 0 181 191" fill="none" xmlns="http://www.w3.org/2000/svg">
<path d="M90.2057 189.98C87.1494 189.98 84.1384 189.133 81.4754 187.514L19.5003 149.854C13.9625 146.479 10.5278 140.155 10.5278 133.316V58.6007C10.5278 51.7768 13.9625 45.4371 19.5003 42.0629L81.4754 4.40278C86.8013 1.16482 93.6253 1.17995 98.921 4.40278L160.896 42.078C166.434 45.4522 169.884 51.7768 169.884 58.6158V133.316C169.884 139.081 167.432 144.497 163.332 148.068V148.095L98.921 187.529C96.2883 189.133 93.2621 189.98 90.2057 189.98ZM89.5579 8.93215C87.6061 8.93215 85.1288 10.1451 83.4191 11.1891L22.6624 48.3834C18.91 50.6681 16.7944 57.2642 16.7944 62.0152L17.4263 133.316C17.4263 138.067 20.6253 142.334 24.3777 144.619L84.7732 181.001C88.2079 183.089 90.9982 183.089 94.4329 181.001L155.641 144.529C159.393 142.244 162.412 138.052 162.412 133.316V59.668C162.412 54.9321 159.679 50.0361 155.912 47.7514L95.3357 11.1891C93.6259 10.1451 91.5098 8.93215 89.5579 8.93215Z" fill="#F2F1F0"/>
<path fill-rule="evenodd" clip-rule="evenodd" d="M82.3074 12.5128C84.7586 11.0148 87.4821 10.2583 90.2056 10.2583C92.9291 10.2583 95.6526 11.0148 98.1038 12.5128L154.238 46.8442C159.262 49.9157 162.364 55.6653 162.364 61.9143V130.017C162.364 136.251 159.262 142.016 154.238 145.087L98.1038 179.419C95.6526 180.917 92.9291 181.673 90.2056 181.673C87.4821 181.673 84.7586 180.932 82.3074 179.419L26.1728 145.087C21.1494 142.016 18.0476 136.251 18.0476 130.017V61.9143C18.0476 55.6805 21.1494 49.9308 26.1728 46.8442L82.3074 12.5128Z" fill="url(#paint0_linear)"/>
<path fill-rule="evenodd" clip-rule="evenodd" d="M90.2056 11.7343C88.5223 11.7343 86.6397 12.5999 84.5729 13.858L26.1071 49.4004C22.4606 51.6167 20.0476 55.8938 20.0476 60.7189V131.197C20.0476 136.023 22.4604 140.299 26.107 142.516L84.5719 178.058L84.5729 178.058C86.5309 179.25 88.4552 180.002 90.2056 180.002C91.956 180.002 93.8803 179.25 95.8383 178.058L95.8393 178.058L154.302 142.517C154.302 142.517 154.303 142.517 154.304 142.516C156.317 141.288 157.763 140.088 158.746 138.476C159.722 136.874 160.364 134.659 160.364 131.197V60.7189C160.364 55.8938 157.951 51.6168 154.304 49.4006L95.8474 13.8635C95.846 13.8627 95.8447 13.8618 95.8433 13.861C93.7595 12.6081 91.8993 11.7343 90.2056 11.7343ZM82.4931 10.4412C84.6023 9.15733 87.3194 7.73425 90.2056 7.73425C93.1105 7.73425 95.8184 9.17831 97.909 10.4357L97.9171 10.4406L156.382 45.9824C161.299 48.971 164.364 54.5895 164.364 60.7189V131.197C164.364 135.154 163.628 138.152 162.161 140.558C160.7 142.954 158.637 144.558 156.384 145.932L156.382 145.934L97.9181 181.475C97.9178 181.475 97.9174 181.476 97.9171 181.476C95.6993 182.826 93.0243 184.002 90.2056 184.002C87.3869 184.002 84.7119 182.826 82.4941 181.476M82.4931 181.475L24.0295 145.934C24.0294 145.934 24.0295 145.934 24.0295 145.934C19.1122 142.945 16.0476 137.327 16.0476 131.197V60.7189C16.0476 54.5896 19.112 48.9712 24.0293 45.9825C24.0294 45.9824 24.0292 45.9825 24.0293 45.9825L82.4931 10.4412" fill="#0078D4"/>
<path d="M55.2672 109.597C55.2672 109.597 108.72 133.329 113.574 136.749C118.428 140.184 116.725 151.326 113.858 153.611C111.005 155.896 106.719 157.046 102.418 152.76C98.1162 148.473 54.1322 125.04 51.2646 121.321C48.412 117.602 46.9782 110.747 49.5471 110.463C52.1308 110.18 55.2672 109.597 55.2672 109.597Z" fill="#243A5E"/>
<path d="M47.3965 107.984L68.4849 95.5132C69.8291 94.7067 71.7259 94.7067 73.8765 96.0508L53.1017 108.193C50.9361 107.133 48.7406 107.178 47.3965 107.984Z" fill="#35AFE4"/>
<path d="M53.1016 108.208L73.8764 96.0658L127.314 126.832L106.271 138.975L53.1016 108.208Z" fill="#35AFE4"/>
<path d="M132.139 144.635L111.364 156.777C112.708 155.971 113.514 154.343 113.514 151.923C113.514 147.338 110.274 141.394 106.226 138.974L127.001 126.832C131.048 129.267 134.558 134.927 134.289 139.781C134.304 142.215 133.483 143.828 132.139 144.635Z" fill="#35AFE4"/>
<path d="M106.256 138.974C110.303 141.409 113.813 147.069 113.544 151.923C113.544 156.508 110.303 158.674 105.987 156.239L53.1016 125.473C49.0542 123.039 45.5444 117.378 45.5444 112.524C45.5444 107.939 49.0542 105.773 53.1016 108.208L106.256 138.974ZM93.0383 144.366C95.2039 145.441 96.8169 144.635 96.8169 142.2C96.8169 139.766 95.2039 136.809 93.0383 135.733C90.8727 134.658 89.2597 135.465 89.2597 137.899C89.2597 140.05 90.8727 143.022 93.0383 144.366ZM79.8057 136.54C81.9713 137.615 83.5843 136.809 83.5843 134.374C83.5843 131.94 81.9713 128.983 79.8057 127.892C77.6401 126.817 76.0271 127.624 76.0271 130.043C76.0271 132.493 77.6551 135.465 79.8057 136.54ZM106.256 151.923C108.422 152.999 110.035 152.192 110.035 149.758C110.035 147.323 108.422 144.366 106.256 143.291C104.09 142.215 102.477 143.022 102.477 145.456C102.477 147.876 104.105 150.579 106.256 151.923ZM66.3193 128.983C68.4849 130.058 70.0979 129.252 70.0979 126.817C70.0979 124.383 68.4849 121.426 66.3193 120.335C64.1537 119.26 62.5407 120.066 62.5407 122.501C62.5407 124.666 64.4374 127.639 66.3193 128.983ZM54.9237 121.769C57.0893 122.844 58.7023 122.038 58.7023 119.603C58.7023 117.169 57.0893 114.212 54.9237 113.122C52.7581 112.046 51.1451 112.853 51.1451 115.287C51.1451 117.453 53.0419 120.425 54.9237 121.769Z" fill="#2E76BC"/>
<path d="M73.3987 90.5247L83.5994 84.5656L88.8715 81.5935L78.6708 87.5526L73.3987 90.5247Z" fill="#50E6FF"/>
<path d="M103.403 113.659L113.604 107.7V116.183L103.403 122.023V113.659Z" fill="#50E6FF"/>
<path d="M66.0654 57.5329L76.2661 51.5737L83.7039 55.9199L73.3986 61.7595L66.0654 57.5329Z" fill="#50E6FF"/>
<path d="M110.05 94.0792C100.999 88.9266 93.6657 76.2168 93.7852 65.8966C93.7852 60.7439 95.6222 57.1893 98.5943 55.4718L88.3936 61.4309C85.4215 63.1485 83.704 66.703 83.5845 71.8557C83.5845 82.161 90.7982 94.8708 99.8489 100.038C104.434 102.667 108.556 102.906 111.528 101.188L121.729 95.2292C118.757 96.9468 114.635 96.7078 110.05 94.0792Z" fill="#ACF3FD"/>
<path d="M121.161 112.061L131.362 106.102L136.515 115.153L126.314 120.993L121.161 112.061Z" fill="#50E6FF"/>
<path d="M78.6707 38.5205L88.8714 32.5614L94.024 41.4926L83.8233 47.4518L78.6707 38.5205Z" fill="#50E6FF"/>
<path d="M73.5181 41.3881L83.8233 35.429L88.8565 32.5614L78.6558 38.5205L73.5181 41.3881Z" fill="#50E6FF"/>
<path d="M126.433 100.606L136.634 94.6469C135.947 99.68 134.11 103.578 131.362 106.102L121.161 112.061C123.909 109.537 125.746 105.639 126.433 100.606Z" fill="#50E6FF"/>
<path d="M83.8235 47.4518L94.0242 41.4927C97.6833 40.4622 101.925 40.8057 106.734 42.7472L96.5333 48.7064C91.7242 46.7648 87.3781 46.4213 83.8235 47.4518Z" fill="#50E6FF"/>
<path d="M126.433 92.4663L136.634 86.5072L144.072 90.7488L133.871 96.7079L126.433 92.4663Z" fill="#50E6FF"/>
<path d="M133.871 96.7079L144.072 90.7488V98.8884L133.767 104.848L133.871 96.7079Z" fill="#ACF3FD"/>
<path d="M121.281 74.9474L131.481 68.9883C134.23 74.7085 136.067 80.6676 136.634 86.5072L126.433 92.4664C125.866 86.6267 124.029 80.563 121.281 74.9474Z" fill="#50E6FF"/>
<path d="M103.642 52.8433L113.843 46.8842C118.533 50.3192 122.894 55.0238 126.448 60.1765L116.248 66.1356C112.693 60.968 108.332 56.2784 103.642 52.8433Z" fill="#50E6FF"/>
<path d="M96.5332 40.3574L106.734 34.3983L113.828 38.5204L103.627 44.4796L96.5332 40.3574Z" fill="#ACF3FD"/>
<path d="M103.642 44.4796L113.843 38.5205V47.0037L103.642 52.8433V44.4796Z" fill="#50E6FF"/>
<path d="M121.505 63.268L131.706 57.3088L136.739 66.016L126.433 71.9752L121.505 63.268Z" fill="#ACF3FD"/>
<path d="M116.233 66.1356L126.433 60.296L131.706 57.3239L121.505 63.283L116.233 66.1356Z" fill="#50E6FF"/>
<path d="M126.433 92.4664L133.767 96.7079V104.848L126.329 100.606C125.642 105.639 123.805 109.537 121.057 112.061L126.209 120.993L121.176 123.86L116.024 114.929C112.469 115.959 108.123 115.616 103.314 113.674V122.157L96.2195 118.035V109.552C91.5299 106.117 87.1688 101.413 83.6142 96.2599L78.3421 99.232L73.3089 90.5248L78.6856 87.5527C75.9375 81.8325 74.1005 75.7539 73.4135 70.0337L66.0803 65.7921V57.6525L73.4135 61.8941C74.1005 56.8609 75.9375 52.9628 78.6856 50.4388L73.533 41.3881L78.6856 38.5205L83.8382 47.4517C87.4974 46.4212 91.739 46.7647 96.5481 48.7063V40.2231L103.642 44.3452V52.8284C108.332 56.2635 112.693 60.9681 116.248 66.1207L121.52 63.1486L126.553 71.8558L121.281 74.9474C124.029 80.563 125.866 86.6267 126.433 92.4664ZM99.8637 100.038C108.914 105.191 116.248 101.069 116.248 90.7637C116.248 80.4585 108.914 67.7486 99.9832 62.5811C90.9325 57.4284 83.5993 61.5505 83.5993 71.8558C83.5993 82.1611 90.813 94.7664 99.8637 100.038Z" fill="#0078D4"/>
<path opacity="0.2" d="M54.3562 103.757L115.351 138.855L124.552 133.389L64.1985 98.3955L54.3562 103.757Z" fill="#1F1D21"/>
<path d="M118.129 79.0247L125.403 74.7383L125.298 129.745L117.92 133.911L118.129 79.0247Z" fill="#1D4A79"/>
<path d="M117.92 133.926L55.8496 98.0821L55.9542 49.0648L118.025 84.9092L117.92 133.926Z" fill="#243A5E"/>
<path d="M56.0737 41.6868L118.144 77.5312V79.0247V84.9092L56.0737 49.0647V43.1803V41.6868V41.6868ZM65.7069 52.918C66.5582 53.4557 67.305 53.0226 67.305 52.0667C67.305 51.1109 66.5582 49.8264 65.7069 49.3933C64.8556 48.8557 64.1089 49.2888 64.1089 50.2446C64.0939 51.2154 64.8407 52.4998 65.7069 52.918ZM60.7783 50.1401C61.6296 50.6777 62.3764 50.2446 62.3764 49.2888C62.3764 48.3329 61.6296 47.0485 60.7783 46.6154C59.927 46.0777 59.1802 46.5108 59.1802 47.4667C59.1802 48.4225 59.927 49.6024 60.7783 50.1401ZM70.7251 55.8154C71.5764 56.3531 72.3232 55.92 72.3232 54.9641C72.3232 54.0083 71.5764 52.7239 70.7251 52.2907C69.8738 51.7531 69.1271 52.1862 69.1271 53.142C69.1271 54.0979 69.8738 55.3823 70.7251 55.8154Z" fill="#156AB3"/>
<path d="M60.7785 46.4957C61.6298 47.0334 62.3765 48.2133 62.3765 49.2737C62.3765 50.2295 61.6298 50.6627 60.7785 50.125C59.9271 49.5873 59.1804 48.4074 59.1804 47.347C59.1655 46.3912 59.9271 45.9581 60.7785 46.4957Z" fill="#50E6FF"/>
<path d="M65.7069 49.3932C66.5582 49.9309 67.305 51.1108 67.305 52.0666C67.305 53.0225 66.5582 53.4556 65.7069 52.9179C64.8556 52.3803 64.1089 51.2004 64.1089 50.14C64.0939 49.2887 64.8407 48.8556 65.7069 49.3932Z" fill="#50E6FF"/>
<path d="M70.7253 52.2758C71.5766 52.8134 72.3233 53.9933 72.3233 54.9492C72.3233 55.905 71.5766 56.3381 70.7253 55.8005C69.874 55.2628 69.1272 54.0829 69.1272 53.1271C69.1272 52.1712 69.874 51.7381 70.7253 52.2758Z" fill="#50E6FF"/>
<path d="M118.129 77.5311L125.403 73.2448V80.7422L118.025 84.9091L118.129 77.5311Z" fill="#185A97"/>
<path d="M56.0737 41.6868L63.3472 37.4004L125.418 73.2448L118.144 77.5312L56.0737 41.6868Z" fill="#2195DC"/>
<path d="M86.0038 73.5883C94.8604 78.6961 101.984 91.0475 101.955 101.398C101.925 109.433 97.3994 113.615 91.022 112.435C90.9175 112.405 90.8279 112.36 90.7383 112.3C90.1707 111.972 89.9467 111.374 89.9467 110.911L89.9616 105.908C89.9616 104.116 89.4987 102.787 88.8863 101.89C92.4558 103.414 96.1896 103.966 96.2195 96.9917C96.2195 94.856 95.6071 92.8846 94.5318 91.0027C94.6812 90.7339 95.3084 89.1209 94.3825 86.0891C94.3825 86.0891 94.3078 86.0293 94.1734 85.9546C93.6954 85.6858 92.411 85.1481 90.0363 85.5514C88.6324 84.3864 87.3928 83.4903 86.0038 82.6838C84.5999 81.8773 83.2109 81.2501 81.9564 80.8767C79.8953 77.9344 78.581 76.9189 77.9986 76.5753C77.7447 76.426 77.6252 76.4111 77.6252 76.4111C76.8336 78.4721 77.2966 80.5182 77.6103 81.0559C76.52 81.8624 75.8927 83.117 75.8927 85.0735C75.8778 92.0333 79.5966 95.7969 83.3304 98.6645C82.8674 98.9333 82.3895 99.3664 82.2252 100.531C81.822 100.457 81.135 100.322 80.3882 99.8892C79.4323 99.3366 78.357 98.2911 77.5804 96.245C77.5356 96.1255 76.6544 93.9151 75.1011 92.8397C75.0265 92.7949 73.5479 91.9436 74.9369 93.8105C74.9817 93.8703 75.8778 94.8859 76.6395 97.4697C76.6693 97.619 77.3414 100.576 80.4927 102.398C80.9707 102.667 81.4934 102.921 82.0759 103.115L82.0609 106.147C82.0609 106.61 81.822 106.939 81.1648 106.55C81.0603 106.49 80.9557 106.416 80.8213 106.311C74.4589 100.307 69.9634 90.7488 69.9933 82.7137C69.9784 72.5578 77.1473 68.4805 86.0038 73.5883Z" fill="#50E6FF"/>
<path d="M95.5623 152.954C94.8902 146.92 89.7077 142.171 83.4499 142.171C77.2369 142.171 72.1141 146.815 71.3375 152.805C71.2329 153.223 71.2329 153.686 71.2329 154.104C71.3972 155.806 72.5771 157.464 74.8024 158.749C79.5667 161.482 87.333 161.482 92.0376 158.749C94.2629 157.449 95.413 155.806 95.5623 154.104C95.6818 153.73 95.622 153.312 95.5623 152.954Z" fill="white"/>
<path d="M83.4499 140.423C87.5122 140.423 90.783 137.167 90.783 133.135C90.783 129.102 87.4973 125.846 83.4499 125.846C79.3875 125.846 76.1167 129.102 76.1167 133.135C76.1167 137.152 79.4024 140.423 83.4499 140.423Z" fill="white"/>
<path d="M66.8121 136.719C66.14 130.685 60.9575 125.936 54.6996 125.936C48.4866 125.936 43.3638 130.581 42.5872 136.57C42.4827 136.988 42.4827 137.451 42.4827 137.869C42.647 139.572 43.8268 141.23 46.0522 142.514C50.8165 145.247 58.5828 145.247 63.2874 142.514C65.5127 141.215 66.6627 139.572 66.8121 137.869C66.9166 137.496 66.8569 137.093 66.8121 136.719Z" fill="white"/>
<path d="M54.6997 124.203C58.762 124.203 62.0328 120.948 62.0328 116.915C62.0328 112.883 58.7471 109.627 54.6997 109.627C50.6373 109.627 47.3665 112.883 47.3665 116.915C47.3516 120.918 50.6522 124.203 54.6997 124.203Z" fill="white"/>
<defs>
<linearGradient id="paint0_linear" x1="90.2056" y1="10.2609" x2="90.2056" y2="181.676" gradientUnits="userSpaceOnUse">
<stop stop-color="#00ABDE"/>
<stop offset="1" stop-color="#007ED8"/>
</linearGradient>
</defs>
</svg>
