<svg width="181" height="191" viewBox="0 0 181 191" fill="none" xmlns="http://www.w3.org/2000/svg">
<path d="M90.4347 189.157C87.3784 189.157 84.3674 188.31 81.7044 186.691L19.7293 149.031C14.1915 145.657 10.7568 139.332 10.7568 132.493V57.778C10.7568 50.9541 14.1915 44.6144 19.7293 41.2402L81.7044 3.58008C87.0304 0.342128 93.8543 0.357259 99.15 3.58008L161.125 41.2554C166.663 44.6295 170.113 50.9541 170.113 57.7931V132.493C170.113 138.258 167.661 143.675 163.561 147.245V147.272L99.15 186.706C96.5173 188.31 93.4911 189.157 90.4347 189.157ZM89.7869 8.10946C87.8351 8.10946 85.3578 9.32238 83.6481 10.3664L22.8914 47.5607C19.139 49.8454 17.0234 56.4415 17.0234 61.1926L17.6553 132.493C17.6553 137.244 20.8543 141.512 24.6067 143.796L85.0022 180.178C88.4369 182.266 91.2272 182.266 94.6619 180.178L155.87 143.706C159.622 141.421 162.641 137.229 162.641 132.493V58.8453C162.641 54.1095 159.908 49.2135 156.141 46.9287L95.5647 10.3664C93.8549 9.32238 91.7388 8.10946 89.7869 8.10946Z" fill="#F2F1F0"/>
<path fill-rule="evenodd" clip-rule="evenodd" d="M82.5366 11.6901C84.9878 10.1922 87.7113 9.43567 90.4348 9.43567C93.1583 9.43567 95.8819 10.1922 98.333 11.6901L154.468 46.0215C159.491 49.0931 162.593 54.8427 162.593 61.0916V129.195C162.593 135.428 159.491 141.193 154.468 144.265L98.333 178.596C95.8819 180.094 93.1583 180.851 90.4348 180.851C87.7113 180.851 84.9878 180.109 82.5366 178.596L26.402 144.265C21.3786 141.193 18.2769 135.428 18.2769 129.195V61.0916C18.2769 54.8578 21.3786 49.1082 26.402 46.0215L82.5366 11.6901Z" fill="url(#paint0_linear)"/>
<path d="M97.1075 11.327L155.572 46.8688C159.854 49.4713 162.593 54.419 162.593 59.8963V130.375C162.593 137.793 159.839 140.8 155.572 143.402L97.1075 178.944C95.0194 180.215 92.7196 181.179 90.4348 181.179C88.1501 181.179 85.8503 180.215 83.7622 178.944L25.2975 143.402C21.0155 140.8 18.2769 135.852 18.2769 130.375V59.8963C18.2769 54.419 21.0155 49.4713 25.2975 46.8688L83.7622 11.327C85.8503 10.056 88.1501 8.91162 90.4348 8.91162C92.7347 8.91162 95.0194 10.0711 97.1075 11.327Z" stroke="#0078D4" stroke-width="4"/>
<mask id="mask0" mask-type="alpha" maskUnits="userSpaceOnUse" x="32" y="51" width="116" height="87">
<path d="M145.925 51.2136H34.303C33.3748 51.2136 32.6167 51.9716 32.6167 52.8999V136.241C32.6167 137.17 33.3748 137.928 34.303 137.928H145.925C146.854 137.928 147.612 137.17 147.612 136.241V52.9154C147.612 51.9716 146.854 51.2136 145.925 51.2136Z" fill="white"/>
</mask>
<g mask="url(#mask0)">
<path d="M147.612 51.2136H32.6167V137.943H147.627V51.2136H147.612Z" fill="#2B3136"/>
<path d="M145.925 51.2136H34.303C33.3748 51.2136 32.6167 51.9716 32.6167 52.8999V136.241C32.6167 137.17 33.3748 137.928 34.303 137.928H145.925C146.854 137.928 147.612 137.17 147.612 136.241V52.9154C147.612 51.9716 146.854 51.2136 145.925 51.2136Z" fill="url(#paint1_linear)"/>
<path d="M34.303 51.2136H145.925C146.854 51.2136 147.612 51.9716 147.612 52.8999V64.7351H32.6167V52.8999C32.6167 51.9716 33.3748 51.2136 34.303 51.2136Z" fill="url(#paint2_linear)"/>
<path d="M140 56.7985C139.319 56.1178 138.313 56.1178 137.633 56.7985C137.292 57.1389 137.122 57.4792 137.122 57.9898C137.122 58.5003 137.292 58.8407 137.633 59.181C137.973 59.5214 138.313 59.6916 138.824 59.6916C139.334 59.6916 139.675 59.5214 140.015 59.181C140.355 58.8407 140.526 58.3301 140.526 57.9898C140.51 57.4792 140.34 57.1389 140 56.7985Z" fill="white"/>
<path d="M130.362 56.288C129.341 56.288 128.675 57.1389 128.675 57.9743C128.675 58.9954 129.356 59.6606 130.362 59.6606C131.367 59.6606 132.048 58.9799 132.048 57.9743C132.063 57.1389 131.383 56.288 130.362 56.288Z" fill="white"/>
<path d="M120.723 56.7985C120.383 57.1389 120.213 57.4792 120.213 57.9898C120.213 58.5003 120.383 58.8407 120.723 59.181C121.064 59.5214 121.404 59.6916 121.915 59.6916C122.425 59.6916 122.766 59.5214 123.106 59.181C123.446 58.8407 123.616 58.5003 123.616 57.9898C123.616 57.4792 123.446 57.1389 123.106 56.7985C122.58 56.1178 121.404 56.1178 120.723 56.7985Z" fill="white"/>
<path fill-rule="evenodd" clip-rule="evenodd" d="M57.0293 137.943H60.634V65.6788H57.0293V137.943Z" fill="url(#paint3_linear)"/>
<path fill-rule="evenodd" clip-rule="evenodd" d="M47.8558 98.1058C47.8558 99.4053 46.8038 100.457 45.5197 100.457C44.2201 100.457 43.1836 99.4053 43.1836 98.1058C43.1836 96.8062 44.2356 95.7542 45.5197 95.7542C46.8038 95.7542 47.8558 96.8062 47.8558 98.1058Z" fill="white"/>
<path fill-rule="evenodd" clip-rule="evenodd" d="M47.8558 109.817C47.8558 111.117 46.8038 112.169 45.5197 112.169C44.2201 112.169 43.1836 111.117 43.1836 109.817C43.1836 108.518 44.2356 107.466 45.5197 107.466C46.8038 107.481 47.8558 108.518 47.8558 109.817Z" fill="white"/>
<path fill-rule="evenodd" clip-rule="evenodd" d="M47.8558 123.88C47.8558 125.18 46.8038 126.232 45.5197 126.232C44.2201 126.232 43.1836 125.18 43.1836 123.88C43.1836 122.581 44.2356 121.529 45.5197 121.529C46.8038 121.544 47.8558 122.581 47.8558 123.88Z" fill="white"/>
<path fill-rule="evenodd" clip-rule="evenodd" d="M91.53 123.88H72.2223C71.2477 123.88 70.4741 123.354 70.4741 122.704C70.4741 122.055 71.2631 121.529 72.2223 121.529H91.53C92.5046 121.529 93.2782 122.055 93.2782 122.704C93.2937 123.354 92.5046 123.88 91.53 123.88Z" fill="#FFFFFE"/>
<path fill-rule="evenodd" clip-rule="evenodd" d="M106.908 123.88H97.3935C96.5116 123.88 95.8154 123.354 95.8154 122.704C95.8154 122.055 96.5271 121.529 97.3935 121.529H106.908C107.79 121.529 108.486 122.055 108.486 122.704C108.502 123.354 107.79 123.88 106.908 123.88Z" fill="white"/>
<path fill-rule="evenodd" clip-rule="evenodd" d="M91.53 112.169H72.2223C71.2477 112.169 70.4741 111.643 70.4741 110.993C70.4741 110.343 71.2631 109.817 72.2223 109.817H91.53C92.5046 109.817 93.2782 110.343 93.2782 110.993C93.2937 111.643 92.5046 112.169 91.53 112.169Z" fill="#FFFFFE"/>
<path fill-rule="evenodd" clip-rule="evenodd" d="M112.199 112.169H97.1769C96.4188 112.169 95.8154 111.643 95.8154 110.993C95.8154 110.343 96.4188 109.817 97.1769 109.817H112.199C112.957 109.817 113.561 110.343 113.561 110.993C113.576 111.643 112.957 112.169 112.199 112.169Z" fill="#FFFFFE"/>
<path fill-rule="evenodd" clip-rule="evenodd" d="M124.22 112.169H118.14C117.026 112.169 116.113 111.643 116.113 110.993C116.113 110.343 117.026 109.817 118.14 109.817H124.22C125.349 109.817 126.247 110.343 126.247 110.993C126.247 111.643 125.334 112.169 124.22 112.169Z" fill="white"/>
<path fill-rule="evenodd" clip-rule="evenodd" d="M72.2223 100.442C71.2477 100.442 70.4741 99.9158 70.4741 99.2661C70.4741 98.6163 71.2631 98.0903 72.2223 98.0903H91.53C92.5046 98.0903 93.2782 98.6163 93.2782 99.2661C93.2782 99.9158 92.4892 100.442 91.53 100.442H72.2223Z" fill="#FFFFFE"/>
</g>
<path d="M76.152 90.3239V81.1806L80.685 88.5757H82.9128L87.4767 80.9331L87.5231 90.3239H92.1334L92.087 72.5943H87.9563L81.8762 82.8205L75.6415 72.5943H71.5107V90.3239H76.152Z" fill="white"/>
<path fill-rule="evenodd" clip-rule="evenodd" d="M105.453 90.3239L97.7021 82.573H102.142V72.5943H108.795V82.573H113.235L105.453 90.3239Z" fill="white"/>
<path opacity="0.2" d="M112.307 154.482L117.459 157.591L152.253 137L147.271 133.751L112.307 154.482Z" fill="#1F1D21"/>
<path d="M138.143 94.594L134.863 92.691L148.849 99.9005L152.113 101.803L138.143 94.594Z" fill="#0093BF"/>
<path d="M134.864 92.691L114.365 104.526C113.529 105.006 112.849 106.151 112.849 107.079L112.972 152.177C112.972 152.625 113.127 152.935 113.39 153.089L116.654 154.992C116.391 154.838 116.237 154.528 116.237 154.079L116.113 108.982C116.113 108.069 116.794 106.924 117.629 106.429L138.128 94.594L134.864 92.691Z" fill="#B6DAFC"/>
<path d="M138.143 94.594L152.129 101.803L152.222 133.318C152.222 134.246 151.541 135.391 150.706 135.87L117.784 154.884C116.948 155.364 116.268 155.008 116.252 154.079L116.128 108.982C116.128 108.069 116.809 106.924 117.645 106.429L138.143 94.594Z" fill="url(#paint4_linear)"/>
<path d="M123.941 122.643C124.807 122.148 125.519 122.503 125.519 123.478C125.519 124.437 124.823 125.613 123.956 126.108C123.09 126.603 122.378 126.247 122.378 125.288C122.378 124.329 123.075 123.153 123.941 122.643Z" fill="#83B9F9"/>
<path d="M123.956 129.079C124.822 128.583 125.534 128.955 125.534 129.914C125.534 130.873 124.838 132.049 123.972 132.559C123.105 133.055 122.394 132.683 122.394 131.724C122.394 130.765 123.09 129.589 123.956 129.079Z" fill="#83B9F9"/>
<path d="M123.988 136.009C124.854 135.514 125.566 135.87 125.566 136.845C125.566 137.804 124.869 138.98 124.003 139.475C123.137 139.97 122.425 139.614 122.425 138.655C122.41 137.696 123.106 136.52 123.988 136.009Z" fill="#83B9F9"/>
<path d="M145.585 125.087C146.188 124.747 146.668 125.01 146.668 125.659C146.668 126.325 146.188 127.145 145.585 127.485L128.907 137.123C128.304 137.464 127.824 137.216 127.824 136.551C127.824 135.886 128.304 135.066 128.907 134.725L145.476 125.149L145.585 125.087Z" fill="#83B9F9"/>
<path d="M128.706 130.022C128.351 130.239 127.995 130.223 127.794 129.991C127.562 129.728 127.562 129.218 127.794 128.692C127.995 128.228 128.335 127.825 128.691 127.624C128.753 127.593 128.815 127.562 128.877 127.531L145.446 117.955L145.554 117.893C145.616 117.847 145.678 117.8 145.74 117.769C146.096 117.568 146.436 117.568 146.637 117.8C146.869 118.063 146.869 118.574 146.637 119.1C146.436 119.548 146.096 119.966 145.74 120.167C145.678 120.198 145.616 120.229 145.57 120.245L128.892 129.883C128.83 129.945 128.768 129.991 128.706 130.022Z" fill="#83B9F9"/>
<path d="M128.861 122.766C128.257 123.107 127.778 122.844 127.778 122.179C127.778 121.513 128.257 120.693 128.861 120.353L145.43 110.777L145.538 110.715C146.142 110.374 146.621 110.637 146.621 111.287C146.621 111.952 146.142 112.788 145.538 113.128L128.861 122.766Z" fill="#83B9F9"/>
<path d="M138.189 94.5011L152.175 101.819L140.866 108.348C139.412 109.183 138.236 108.549 138.236 106.94L138.189 94.5011Z" fill="#92C4FC"/>
<defs>
<linearGradient id="paint0_linear" x1="90.4348" y1="9.43824" x2="90.4348" y2="180.853" gradientUnits="userSpaceOnUse">
<stop stop-color="#00ABDE"/>
<stop offset="1" stop-color="#007ED8"/>
</linearGradient>
<linearGradient id="paint1_linear" x1="198.459" y1="39.9701" x2="41.2145" y2="119.231" gradientUnits="userSpaceOnUse">
<stop stop-color="#434640"/>
<stop offset="1" stop-color="#313638"/>
</linearGradient>
<linearGradient id="paint2_linear" x1="268.505" y1="56.9379" x2="51.8142" y2="58.2163" gradientUnits="userSpaceOnUse">
<stop stop-color="#535759"/>
<stop offset="1" stop-color="#3C4145"/>
</linearGradient>
<linearGradient id="paint3_linear" x1="58.8301" y1="65.6743" x2="58.8301" y2="137.944" gradientUnits="userSpaceOnUse">
<stop stop-color="#00A7E4"/>
<stop offset="1" stop-color="#00A2E2"/>
</linearGradient>
<linearGradient id="paint4_linear" x1="137.55" y1="132.511" x2="126.44" y2="118.185" gradientUnits="userSpaceOnUse">
<stop stop-color="#D2EBFF"/>
<stop offset="1" stop-color="#F0FFFD"/>
</linearGradient>
</defs>
</svg>
