<svg width="181" height="191" viewBox="0 0 181 191" fill="none" xmlns="http://www.w3.org/2000/svg">
<path d="M90.4347 189.157C87.3784 189.157 84.3674 188.31 81.7044 186.691L19.7293 149.031C14.1915 145.657 10.7568 139.332 10.7568 132.493V57.778C10.7568 50.9541 14.1915 44.6144 19.7293 41.2402L81.7044 3.58008C87.0304 0.342128 93.8543 0.357259 99.15 3.58008L161.125 41.2554C166.663 44.6295 170.113 50.9541 170.113 57.7931V132.493C170.113 138.258 167.661 143.675 163.561 147.245V147.272L99.15 186.706C96.5173 188.31 93.4911 189.157 90.4347 189.157ZM89.7869 8.10946C87.8351 8.10946 85.3578 9.32238 83.6481 10.3664L22.8914 47.5607C19.139 49.8454 17.0234 56.4415 17.0234 61.1926L17.6553 132.493C17.6553 137.244 20.8543 141.512 24.6067 143.796L85.0022 180.178C88.4369 182.266 91.2272 182.266 94.6619 180.178L155.87 143.706C159.622 141.421 162.641 137.229 162.641 132.493V58.8453C162.641 54.1095 159.908 49.2135 156.141 46.9287L95.5647 10.3664C93.8549 9.32238 91.7388 8.10946 89.7869 8.10946Z" fill="#F2F1F0"/>
<path fill-rule="evenodd" clip-rule="evenodd" d="M82.5366 11.6901C84.9878 10.1922 87.7113 9.43567 90.4348 9.43567C93.1583 9.43567 95.8819 10.1922 98.333 11.6901L154.468 46.0215C159.491 49.0931 162.593 54.8427 162.593 61.0916V129.195C162.593 135.428 159.491 141.193 154.468 144.265L98.333 178.596C95.8819 180.094 93.1583 180.851 90.4348 180.851C87.7113 180.851 84.9878 180.109 82.5366 178.596L26.402 144.265C21.3786 141.193 18.2769 135.428 18.2769 129.195V61.0916C18.2769 54.8578 21.3786 49.1082 26.402 46.0215L82.5366 11.6901Z" fill="url(#paint0_linear)"/>
<path d="M97.1075 11.327L155.572 46.8688C159.854 49.4713 162.593 54.419 162.593 59.8963V130.375C162.593 137.793 159.839 140.8 155.572 143.402L97.1075 178.944C95.0194 180.215 92.7196 181.179 90.4348 181.179C88.1501 181.179 85.8503 180.215 83.7622 178.944L25.2975 143.402C21.0155 140.8 18.2769 135.852 18.2769 130.375V59.8963C18.2769 54.419 21.0155 49.4713 25.2975 46.8688L83.7622 11.327C85.8503 10.056 88.1501 8.91162 90.4348 8.91162C92.7347 8.91162 95.0194 10.0711 97.1075 11.327Z" stroke="#0078D4" stroke-width="4"/>
<path fill-rule="evenodd" clip-rule="evenodd" d="M132.529 64.9163L105.006 48.0808L105.919 46.588L133.441 63.4231C136.846 65.5018 138.926 69.3728 138.926 73.5496V77.999H137.176V73.5496C137.176 69.94 135.378 66.656 132.529 64.9167L132.529 64.9163Z" fill="white"/>
<path d="M141.614 72.8882L138.172 81.8621L134.609 76.9317L141.614 72.8882Z" fill="white"/>
<path fill-rule="evenodd" clip-rule="evenodd" d="M57.5013 58.0772L46.8763 64.5694C46.8759 64.5696 46.8755 64.5699 46.8751 64.5701C44.0237 66.3255 42.2271 69.6112 42.2271 73.204V115.608C42.2271 119.204 44.0256 122.502 46.8737 124.241L45.9617 125.735C42.5567 123.656 40.4771 119.769 40.4771 115.608V73.204C40.4771 69.0408 42.5581 65.172 45.9591 63.079L45.9615 63.0775L45.9615 63.0775L56.5889 56.5839L57.5013 58.0772Z" fill="white"/>
<path d="M57.3608 61.4191L59.841 56.128L50.7168 57.5259" fill="white"/>
<path fill-rule="evenodd" clip-rule="evenodd" d="M128.621 129.849C131.47 128.11 133.268 124.811 133.268 121.216H135.018C135.018 125.376 132.939 129.263 129.534 131.342M129.534 131.342L94.5856 152.732L94.5833 152.733C92.9154 153.747 91.075 154.258 89.2135 154.258C87.3541 154.258 85.4971 153.748 83.8406 152.731C83.8405 152.731 83.8407 152.731 83.8406 152.731L75.9048 147.877L76.818 146.384L84.7559 151.24C86.1358 152.087 87.6758 152.508 89.2135 152.508C90.7488 152.508 92.2752 152.088 93.6735 151.238C93.6738 151.238 93.6733 151.238 93.6735 151.238L128.621 129.849" fill="white"/>
<path d="M82.1638 146.709L73.0396 145.311L75.5198 150.603" fill="white"/>
<path fill-rule="evenodd" clip-rule="evenodd" d="M131.031 103.132C131.031 111.475 113.414 118.224 91.6934 118.224C69.9726 118.224 52.3555 111.475 52.3555 103.132C52.3555 94.7896 69.9726 88.0404 91.6934 88.0404C113.414 88.0404 131.031 94.8047 131.031 103.132Z" fill="black" fill-opacity="0.1028"/>
<path fill-rule="evenodd" clip-rule="evenodd" d="M91.693 96.0373C76.4509 96.0373 64.1099 91.4376 64.1099 85.7556V99.4645C64.1099 105.146 76.4659 109.746 91.693 109.746C106.935 109.746 119.276 105.146 119.276 99.4645V85.7556C119.276 91.4376 106.92 96.0373 91.693 96.0373Z" fill="#E1E4E1"/>
<path fill-rule="evenodd" clip-rule="evenodd" d="M91.693 100.577V105.146C91.693 106.439 90.6107 107.476 89.3029 107.431C75.1882 106.98 64.1099 102.561 64.1099 97.1947V99.4796C64.1099 105.162 76.4659 109.761 91.693 109.761C106.935 109.761 119.276 105.162 119.276 99.4796V88.0555C119.276 93.4519 108.108 97.8862 93.9026 98.3071C92.67 98.3221 91.693 99.3443 91.693 100.577Z" fill="#D3DAD8"/>
<path fill-rule="evenodd" clip-rule="evenodd" d="M119.126 85.8759C119.126 91.5578 106.845 96.1726 91.6931 96.1726C76.5411 96.1726 64.2603 91.5729 64.2603 85.8759C64.2603 80.1939 76.5411 75.5792 91.6931 75.5792C106.845 75.5942 119.126 80.1939 119.126 85.8759Z" fill="#BAC0C2"/>
<path d="M119.126 85.8759C119.126 91.5578 106.845 96.1726 91.6931 96.1726C76.5411 96.1726 64.2603 91.5729 64.2603 85.8759C64.2603 80.1939 76.5411 75.5792 91.6931 75.5792C106.845 75.5942 119.126 80.1939 119.126 85.8759Z" stroke="#E1E4E1" stroke-width="0.375792"/>
<path fill-rule="evenodd" clip-rule="evenodd" d="M91.693 76.6164C76.4509 76.6164 64.1099 72.0167 64.1099 66.3347V80.0436C64.1099 85.7256 76.4659 90.3253 91.693 90.3253C106.935 90.3253 119.276 85.7256 119.276 80.0436V66.3347C119.276 72.0167 106.92 76.6164 91.693 76.6164Z" fill="#E1E4E1"/>
<path fill-rule="evenodd" clip-rule="evenodd" d="M91.693 81.1559V85.7255C91.693 87.0183 90.6107 88.0554 89.3029 88.0103C75.1882 87.5594 64.1099 83.1401 64.1099 77.7738V80.0586C64.1099 85.7406 76.4659 90.3403 91.693 90.3403C106.935 90.3403 119.276 85.7406 119.276 80.0586V68.6345C119.276 74.0309 108.108 78.4652 93.9026 78.8861C92.67 78.9162 91.693 79.9233 91.693 81.1559Z" fill="#D3DAD8"/>
<path fill-rule="evenodd" clip-rule="evenodd" d="M119.126 66.4399C119.126 72.1219 106.845 76.7366 91.6931 76.7366C76.5411 76.7366 64.2603 72.1369 64.2603 66.4399C64.2603 60.7429 76.5411 56.1432 91.6931 56.1432C106.845 56.1582 119.126 60.7579 119.126 66.4399Z" fill="#BAC0C2"/>
<path d="M119.126 66.4399C119.126 72.1219 106.845 76.7366 91.6931 76.7366C76.5411 76.7366 64.2603 72.1369 64.2603 66.4399C64.2603 60.7429 76.5411 56.1432 91.6931 56.1432C106.845 56.1582 119.126 60.7579 119.126 66.4399Z" stroke="#E1E4E1" stroke-width="0.375792"/>
<path fill-rule="evenodd" clip-rule="evenodd" d="M91.693 57.1954C76.4509 57.1954 64.1099 52.5957 64.1099 46.9138V60.6226C64.1099 66.3046 76.4659 70.9043 91.693 70.9043C106.935 70.9043 119.276 66.3046 119.276 60.6226V46.9138C119.276 52.5957 106.92 57.1954 91.693 57.1954Z" fill="#E1E4E1"/>
<path fill-rule="evenodd" clip-rule="evenodd" d="M91.693 61.735V66.3046C91.693 67.5974 90.6107 68.6345 89.3029 68.5895C75.1882 68.1385 64.1099 63.7192 64.1099 58.3529V60.6377C64.1099 66.3197 76.4659 70.9194 91.693 70.9194C106.935 70.9194 119.276 66.3197 119.276 60.6377V49.2136C119.276 54.61 108.108 59.0443 93.9026 59.4652C92.67 59.4953 91.693 60.5024 91.693 61.735Z" fill="#D3DAD8"/>
<path fill-rule="evenodd" clip-rule="evenodd" d="M118.044 47.004C118.044 52.6859 106.244 57.3007 91.6933 57.3007C77.1426 57.3007 65.3428 52.701 65.3428 47.004C65.3428 41.322 77.1426 36.7073 91.6933 36.7073C106.244 36.7223 118.044 41.322 118.044 47.004Z" fill="#C4CBCD"/>
<path d="M118.044 47.004C118.044 52.6859 106.244 57.3007 91.6933 57.3007C77.1426 57.3007 65.3428 52.701 65.3428 47.004C65.3428 41.322 77.1426 36.7073 91.6933 36.7073C106.244 36.7223 118.044 41.322 118.044 47.004Z" stroke="#E1E4E1" stroke-width="3.38213"/>
<path opacity="0.4" d="M27.5381 131.572L56.1734 115.518L84.5532 131.572L56.1734 147.626L27.5381 131.572Z" fill="#1F1D20"/>
<path d="M56.1734 110.227V142.289L27.5381 126.13V94.173L56.1734 110.227Z" fill="#2F94D1"/>
<path d="M56.1729 110.227L84.5527 94.173V126.13L56.1729 142.335V110.227Z" fill="#2E76BC"/>
<path d="M27.5381 94.173L56.1734 78.1192L84.5532 94.173L56.1734 110.227L27.5381 94.173Z" fill="#4BC8EF"/>
<path d="M56.1733 142.184L27.7334 125.589V127.032L56.1733 143.432C56.2635 143.492 56.0681 143.522 56.1733 143.522C56.2785 143.522 56.0831 143.492 56.1733 143.432L84.3878 127.438V125.995L56.1733 142.184Z" fill="#1D4A79"/>
<path d="M56.1733 138.862L27.7334 122.282V123.725L56.1733 140.14C56.2635 140.2 56.0681 140.23 56.1733 140.23C56.2785 140.23 56.0831 140.2 56.1733 140.14L84.3878 124.101V122.643L56.1733 138.862Z" fill="#1D4A79"/>
<path d="M56.1733 135.555L27.7334 118.975V120.418L56.1733 136.818C56.2635 136.878 56.0681 136.908 56.1733 136.908C56.2785 136.908 56.0831 136.878 56.1733 136.818L84.3878 120.779V119.336L56.1733 135.555Z" fill="#1D4A79"/>
<path d="M56.1733 132.188L27.7334 115.653V117.096L56.1733 133.451C56.2635 133.511 56.0681 133.541 56.1733 133.541C56.2785 133.541 56.0831 133.511 56.1733 133.451L84.3878 117.412V115.969L56.1733 132.188Z" fill="#1D4A79"/>
<path d="M56.1733 128.836L27.7334 112.301V113.744L56.1733 130.099C56.2635 130.159 56.0681 130.189 56.1733 130.189C56.2785 130.189 56.0831 130.159 56.1733 130.099L84.3878 114.105V112.662L56.1733 128.836Z" fill="#1D4A79"/>
<path d="M56.1733 125.529L27.7334 108.994V110.437L56.1733 126.792C56.2635 126.852 56.0681 126.882 56.1733 126.882C56.2785 126.882 56.0831 126.852 56.1733 126.792L84.3878 110.798V109.355L56.1733 125.529Z" fill="#1D4A79"/>
<path d="M56.1733 122.162L27.7334 105.627V107.07L56.1733 123.425C56.2635 123.485 56.0681 123.515 56.1733 123.515C56.2785 123.515 56.0831 123.485 56.1733 123.425L84.3878 107.431V105.988L56.1733 122.162Z" fill="#1D4A79"/>
<path d="M56.1733 118.855L27.7334 102.32V103.763L56.1733 120.118C56.2635 120.178 56.0681 120.208 56.1733 120.208C56.2785 120.208 56.0831 120.178 56.1733 120.118L84.3878 104.124V102.681L56.1733 118.855Z" fill="#1D4A79"/>
<path d="M56.1733 115.488L27.7334 98.9531V100.396L56.1733 116.751C56.2635 116.811 56.0681 116.841 56.1733 116.841C56.2785 116.841 56.0831 116.811 56.1733 116.751L84.3878 100.757V99.3138L56.1733 115.488Z" fill="#1D4A79"/>
<path d="M56.1733 112.226L27.7334 95.6462V97.0892L56.1733 113.489C56.2635 113.549 56.0681 113.579 56.1733 113.579C56.2785 113.579 56.0831 113.549 56.1733 113.489L84.3878 97.45V96.0069L56.1733 112.226Z" fill="#1D4A79"/>
<path d="M153.233 128.22C152.151 118.464 143.778 110.783 133.647 110.783C123.605 110.783 115.308 118.284 114.06 127.964C113.895 128.626 113.895 129.377 113.895 130.054C114.151 132.805 116.075 135.48 119.667 137.555C127.363 141.974 139.93 141.974 147.536 137.555C151.128 135.465 152.977 132.805 153.233 130.054C153.398 129.468 153.323 128.806 153.233 128.22Z" fill="white"/>
<path d="M133.662 109.476C140.216 109.476 145.522 104.199 145.522 97.6757C145.522 91.1669 140.216 85.8758 133.662 85.8758C127.108 85.8758 121.802 91.1519 121.802 97.6757C121.802 104.199 127.108 109.476 133.662 109.476Z" fill="white"/>
<defs>
<linearGradient id="paint0_linear" x1="90.4348" y1="9.43824" x2="90.4348" y2="180.853" gradientUnits="userSpaceOnUse">
<stop stop-color="#00ABDE"/>
<stop offset="1" stop-color="#007ED8"/>
</linearGradient>
</defs>
</svg>
