<svg width="1114" height="359" xmlns="http://www.w3.org/2000/svg" xmlns:xlink="http://www.w3.org/1999/xlink" overflow="hidden"><defs><clipPath id="clip0"><rect x="100" y="297" width="1114" height="359"/></clipPath></defs><g clip-path="url(#clip0)" transform="translate(-100 -297)"><path d="M102.508 333.909 137.186 333.909 137.186 359.509 102.508 359.509Z" fill="#FFFFFF" fill-rule="evenodd"/><path d="M137.186 333.909 171.864 333.909 171.864 359.509 137.186 359.509Z" fill="#FFFFFF" fill-rule="evenodd"/><path d="M171.864 333.909 206.542 333.909 206.542 359.509 171.864 359.509Z" fill="#FFFFFF" fill-rule="evenodd"/><path d="M206.542 333.909 241.22 333.909 241.22 359.509 206.542 359.509Z" fill="#FFFFFF" fill-rule="evenodd"/><path d="M241.22 333.909 275.898 333.909 275.898 359.509 241.22 359.509Z" fill="#FFFF00" fill-rule="evenodd"/><path d="M275.898 333.909 310.576 333.909 310.576 359.509 275.898 359.509Z" fill="#FFFF00" fill-rule="evenodd"/><path d="M310.576 333.909 345.254 333.909 345.254 359.509 310.576 359.509Z" fill="#FFFF00" fill-rule="evenodd"/><path d="M345.254 333.909 379.932 333.909 379.932 359.509 345.254 359.509Z" fill="#FFFF00" fill-rule="evenodd"/><path d="M379.932 333.909 414.611 333.909 414.611 359.509 379.932 359.509Z" fill="#FFFFFF" fill-rule="evenodd"/><path d="M414.611 333.909 449.288 333.909 449.288 359.509 414.611 359.509Z" fill="#FFFFFF" fill-rule="evenodd"/><path d="M449.288 333.909 483.966 333.909 483.966 359.509 449.288 359.509Z" fill="#FFFFFF" fill-rule="evenodd"/><path d="M483.966 333.909 518.645 333.909 518.645 359.509 483.966 359.509Z" fill="#FFFFFF" fill-rule="evenodd"/><path d="M518.645 333.909 553.323 333.909 553.323 359.509 518.645 359.509Z" fill="#FFFF00" fill-rule="evenodd"/><path d="M553.323 333.909 588 333.909 588 359.509 553.323 359.509Z" fill="#FFFF00" fill-rule="evenodd"/><path d="M588 333.909 622.678 333.909 622.678 359.509 588 359.509Z" fill="#FFFF00" fill-rule="evenodd"/><path d="M622.678 333.909 657.357 333.909 657.357 359.509 622.678 359.509Z" fill="#FFFF00" fill-rule="evenodd"/><path d="M657.357 333.909 692.035 333.909 692.035 359.509 657.357 359.509Z" fill="#FFFFFF" fill-rule="evenodd"/><path d="M692.035 333.909 726.713 333.909 726.713 359.509 692.035 359.509Z" fill="#FFFFFF" fill-rule="evenodd"/><path d="M726.713 333.909 761.391 333.909 761.391 359.509 726.713 359.509Z" fill="#FFFFFF" fill-rule="evenodd"/><path d="M796.068 333.909 830.747 333.909 830.747 359.509 796.068 359.509Z" fill="#FFFF00" fill-rule="evenodd"/><path d="M830.747 333.909 865.425 333.909 865.425 359.509 830.747 359.509Z" fill="#FFFF00" fill-rule="evenodd"/><path d="M865.425 333.909 900.103 333.909 900.103 359.509 865.425 359.509Z" fill="#FFFF00" fill-rule="evenodd"/><path d="M900.103 333.909 934.781 333.909 934.781 359.509 900.103 359.509Z" fill="#FFFF00" fill-rule="evenodd"/><path d="M1073.49 333.909 1108.17 333.909 1108.17 359.509 1073.49 359.509Z" fill="#FFFF00" fill-rule="evenodd"/><path d="M1108.17 333.909 1142.85 333.909 1142.85 359.509 1108.17 359.509Z" fill="#FFFF00" fill-rule="evenodd"/><path d="M1142.85 333.909 1177.53 333.909 1177.53 359.509 1142.85 359.509Z" fill="#FFFF00" fill-rule="evenodd"/><path d="M1177.53 333.909 1212.2 333.909 1212.2 359.509 1177.53 359.509Z" fill="#FFFF00" fill-rule="evenodd"/><path d="M102.508 359.509 137.186 359.509 137.186 385.109 102.508 385.109Z" fill="#FFFFFF" fill-rule="evenodd"/><path d="M137.186 359.509 171.864 359.509 171.864 385.109 137.186 385.109Z" fill="#FFFFFF" fill-rule="evenodd"/><path d="M171.864 359.509 206.542 359.509 206.542 385.109 171.864 385.109Z" fill="#FFFFFF" fill-rule="evenodd"/><path d="M206.542 359.509 241.22 359.509 241.22 385.109 206.542 385.109Z" fill="#FFFFFF" fill-rule="evenodd"/><path d="M241.22 359.509 275.898 359.509 275.898 385.109 241.22 385.109Z" fill="#FFFFFF" fill-rule="evenodd"/><path d="M275.898 359.509 310.576 359.509 310.576 385.109 275.898 385.109Z" fill="#FFFFFF" fill-rule="evenodd"/><path d="M310.576 359.509 345.254 359.509 345.254 385.109 310.576 385.109Z" fill="#FFFFFF" fill-rule="evenodd"/><path d="M345.254 359.509 379.932 359.509 379.932 385.109 345.254 385.109Z" fill="#FFFFFF" fill-rule="evenodd"/><path d="M379.932 359.509 414.611 359.509 414.611 385.109 379.932 385.109Z" fill="#FFFFFF" fill-rule="evenodd"/><path d="M414.611 359.509 449.288 359.509 449.288 385.109 414.611 385.109Z" fill="#FFFFFF" fill-rule="evenodd"/><path d="M449.288 359.509 483.966 359.509 483.966 385.109 449.288 385.109Z" fill="#FFFFFF" fill-rule="evenodd"/><path d="M483.966 359.509 518.645 359.509 518.645 385.109 483.966 385.109Z" fill="#FFFFFF" fill-rule="evenodd"/><path d="M518.645 359.509 553.323 359.509 553.323 385.109 518.645 385.109Z" fill="#FFFFFF" fill-rule="evenodd"/><path d="M553.323 359.509 588 359.509 588 385.109 553.323 385.109Z" fill="#FFFFFF" fill-rule="evenodd"/><path d="M588 359.509 622.678 359.509 622.678 385.109 588 385.109Z" fill="#FFFFFF" fill-rule="evenodd"/><path d="M622.678 359.509 657.357 359.509 657.357 385.109 622.678 385.109Z" fill="#FFFFFF" fill-rule="evenodd"/><path d="M657.357 359.509 692.035 359.509 692.035 385.109 657.357 385.109Z" fill="#FFFFFF" fill-rule="evenodd"/><path d="M692.035 359.509 726.713 359.509 726.713 385.109 692.035 385.109Z" fill="#FFFFFF" fill-rule="evenodd"/><path d="M726.713 359.509 761.391 359.509 761.391 385.109 726.713 385.109Z" fill="#FFFFFF" fill-rule="evenodd"/><path d="M761.391 359.509 796.068 359.509 796.068 385.109 761.391 385.109Z" fill="#FFFFFF" fill-rule="evenodd"/><path d="M796.068 359.509 830.747 359.509 830.747 385.109 796.068 385.109Z" fill="#FFFFFF" fill-rule="evenodd"/><path d="M830.747 359.509 865.425 359.509 865.425 385.109 830.747 385.109Z" fill="#FFFFFF" fill-rule="evenodd"/><path d="M865.425 359.509 900.103 359.509 900.103 385.109 865.425 385.109Z" fill="#FFFFFF" fill-rule="evenodd"/><path d="M900.103 359.509 934.781 359.509 934.781 385.109 900.103 385.109Z" fill="#FFFFFF" fill-rule="evenodd"/><path d="M934.781 359.509 969.459 359.509 969.459 385.109 934.781 385.109Z" fill="#FFFFFF" fill-rule="evenodd"/><path d="M969.459 359.509 1004.14 359.509 1004.14 385.109 969.459 385.109Z" fill="#FFFFFF" fill-rule="evenodd"/><path d="M1004.14 359.509 1038.81 359.509 1038.81 385.109 1004.14 385.109Z" fill="#FFFFFF" fill-rule="evenodd"/><path d="M1038.81 359.509 1073.49 359.509 1073.49 385.109 1038.81 385.109Z" fill="#FFFFFF" fill-rule="evenodd"/><path d="M1073.49 359.509 1108.17 359.509 1108.17 385.109 1073.49 385.109Z" fill="#FFFFFF" fill-rule="evenodd"/><path d="M1108.17 359.509 1142.85 359.509 1142.85 385.109 1108.17 385.109Z" fill="#FFFFFF" fill-rule="evenodd"/><path d="M1142.85 359.509 1177.53 359.509 1177.53 385.109 1142.85 385.109Z" fill="#FFFFFF" fill-rule="evenodd"/><path d="M1177.53 359.509 1212.2 359.509 1212.2 385.109 1177.53 385.109Z" fill="#FFFFFF" fill-rule="evenodd"/><path d="M137.186 333.242 137.186 360.175" stroke="#000000" stroke-width="1.33333" stroke-linejoin="round" stroke-miterlimit="10" fill="none" fill-rule="evenodd"/><path d="M171.864 333.242 171.864 360.175" stroke="#000000" stroke-width="1.33333" stroke-linejoin="round" stroke-miterlimit="10" fill="none" fill-rule="evenodd"/><path d="M206.542 333.242 206.542 360.175" stroke="#000000" stroke-width="1.33333" stroke-linejoin="round" stroke-miterlimit="10" fill="none" fill-rule="evenodd"/><path d="M241.22 333.242 241.22 360.175" stroke="#000000" stroke-width="1.33333" stroke-linejoin="round" stroke-miterlimit="10" fill="none" fill-rule="evenodd"/><path d="M275.898 333.242 275.898 360.175" stroke="#000000" stroke-width="1.33333" stroke-linejoin="round" stroke-miterlimit="10" fill="none" fill-rule="evenodd"/><path d="M310.576 333.242 310.576 360.175" stroke="#000000" stroke-width="1.33333" stroke-linejoin="round" stroke-miterlimit="10" fill="none" fill-rule="evenodd"/><path d="M345.254 333.242 345.254 360.175" stroke="#000000" stroke-width="1.33333" stroke-linejoin="round" stroke-miterlimit="10" fill="none" fill-rule="evenodd"/><path d="M379.932 333.242 379.932 360.175" stroke="#000000" stroke-width="1.33333" stroke-linejoin="round" stroke-miterlimit="10" fill="none" fill-rule="evenodd"/><path d="M414.611 333.242 414.611 360.175" stroke="#000000" stroke-width="1.33333" stroke-linejoin="round" stroke-miterlimit="10" fill="none" fill-rule="evenodd"/><path d="M449.288 333.242 449.288 360.175" stroke="#000000" stroke-width="1.33333" stroke-linejoin="round" stroke-miterlimit="10" fill="none" fill-rule="evenodd"/><path d="M483.966 333.242 483.966 360.175" stroke="#000000" stroke-width="1.33333" stroke-linejoin="round" stroke-miterlimit="10" fill="none" fill-rule="evenodd"/><path d="M518.645 333.242 518.645 360.175" stroke="#000000" stroke-width="1.33333" stroke-linejoin="round" stroke-miterlimit="10" fill="none" fill-rule="evenodd"/><path d="M553.323 333.242 553.323 360.175" stroke="#000000" stroke-width="1.33333" stroke-linejoin="round" stroke-miterlimit="10" fill="none" fill-rule="evenodd"/><path d="M588 333.242 588 360.175" stroke="#000000" stroke-width="1.33333" stroke-linejoin="round" stroke-miterlimit="10" fill="none" fill-rule="evenodd"/><path d="M622.678 333.242 622.678 360.175" stroke="#000000" stroke-width="1.33333" stroke-linejoin="round" stroke-miterlimit="10" fill="none" fill-rule="evenodd"/><path d="M657.357 333.242 657.357 360.175" stroke="#000000" stroke-width="1.33333" stroke-linejoin="round" stroke-miterlimit="10" fill="none" fill-rule="evenodd"/><path d="M692.035 333.242 692.035 360.175" stroke="#000000" stroke-width="1.33333" stroke-linejoin="round" stroke-miterlimit="10" fill="none" fill-rule="evenodd"/><path d="M726.713 333.242 726.713 360.175" stroke="#000000" stroke-width="1.33333" stroke-linejoin="round" stroke-miterlimit="10" fill="none" fill-rule="evenodd"/><path d="M761.391 333.242 761.391 360.175" stroke="#000000" stroke-width="1.33333" stroke-linejoin="round" stroke-miterlimit="10" fill="none" fill-rule="evenodd"/><path d="M796.068 333.242 796.068 360.175" stroke="#000000" stroke-width="1.33333" stroke-linejoin="round" stroke-miterlimit="10" fill="none" fill-rule="evenodd"/><path d="M830.747 333.242 830.747 360.175" stroke="#000000" stroke-width="1.33333" stroke-linejoin="round" stroke-miterlimit="10" fill="none" fill-rule="evenodd"/><path d="M865.425 333.242 865.425 360.175" stroke="#000000" stroke-width="1.33333" stroke-linejoin="round" stroke-miterlimit="10" fill="none" fill-rule="evenodd"/><path d="M900.103 333.242 900.103 360.175" stroke="#000000" stroke-width="1.33333" stroke-linejoin="round" stroke-miterlimit="10" fill="none" fill-rule="evenodd"/><path d="M934.781 333.242 934.781 360.175" stroke="#000000" stroke-width="1.33333" stroke-linejoin="round" stroke-miterlimit="10" fill="none" fill-rule="evenodd"/><path d="M969.459 333.242 969.459 360.175" stroke="#000000" stroke-width="1.33333" stroke-linejoin="round" stroke-miterlimit="10" fill="none" fill-rule="evenodd"/><path d="M1004.14 333.242 1004.14 360.175" stroke="#000000" stroke-width="1.33333" stroke-linejoin="round" stroke-miterlimit="10" fill="none" fill-rule="evenodd"/><path d="M1038.81 333.242 1038.81 360.175" stroke="#000000" stroke-width="1.33333" stroke-linejoin="round" stroke-miterlimit="10" fill="none" fill-rule="evenodd"/><path d="M1073.49 333.242 1073.49 360.175" stroke="#000000" stroke-width="1.33333" stroke-linejoin="round" stroke-miterlimit="10" fill="none" fill-rule="evenodd"/><path d="M1108.17 333.242 1108.17 360.175" stroke="#000000" stroke-width="1.33333" stroke-linejoin="round" stroke-miterlimit="10" fill="none" fill-rule="evenodd"/><path d="M1142.85 333.242 1142.85 360.175" stroke="#000000" stroke-width="1.33333" stroke-linejoin="round" stroke-miterlimit="10" fill="none" fill-rule="evenodd"/><path d="M1177.53 333.242 1177.53 360.175" stroke="#000000" stroke-width="1.33333" stroke-linejoin="round" stroke-miterlimit="10" fill="none" fill-rule="evenodd"/><path d="M101.842 359.509 1212.87 359.509" stroke="#000000" stroke-width="1.33333" stroke-linejoin="round" stroke-miterlimit="10" fill="none" fill-rule="evenodd"/><path d="M102.508 333.242 102.508 360.175" stroke="#000000" stroke-width="1.33333" stroke-linejoin="round" stroke-miterlimit="10" fill="none" fill-rule="evenodd"/><path d="M1212.2 333.242 1212.2 360.175" stroke="#000000" stroke-width="1.33333" stroke-linejoin="round" stroke-miterlimit="10" fill="none" fill-rule="evenodd"/><path d="M101.842 333.909 1212.87 333.909" stroke="#000000" stroke-width="1.33333" stroke-linejoin="round" stroke-miterlimit="10" fill="none" fill-rule="evenodd"/><text font-family="Segoe UI,Segoe UI_MSFontService,sans-serif" font-weight="400" font-size="13" transform="translate(116.264 352)">0<tspan x="34.678" y="0">0</tspan><tspan x="69.356" y="0">0</tspan><tspan x="104.034" y="0">0</tspan><tspan x="138.712" y="0">0</tspan><tspan x="173.39" y="0">0</tspan><tspan x="208.068" y="0">0</tspan><tspan x="242.746" y="0">0</tspan><tspan x="277.424" y="0">0</tspan><tspan x="312.102" y="0">0</tspan><tspan x="346.78" y="0">0</tspan><tspan x="381.458" y="0">0</tspan><tspan x="416.136" y="0">0</tspan><tspan x="450.814" y="0">0</tspan><tspan x="485.492" y="0">0</tspan><tspan x="520.17" y="0">0</tspan><tspan x="554.848" y="0">0</tspan><tspan x="589.526" y="0">0</tspan><tspan x="624.204" y="0">0</tspan><tspan x="658.882" y="0">0</tspan><tspan x="693.56" y="0">1</tspan><tspan x="728.238" y="0">1</tspan><tspan x="762.916" y="0">1</tspan><tspan x="797.594" y="0">1</tspan><tspan x="832.272" y="0">0</tspan><tspan x="866.95" y="0">0</tspan><tspan x="901.628" y="0">0</tspan><tspan x="936.306" y="0">0</tspan><tspan x="970.984" y="0">1</tspan><tspan x="1005.66" y="0">1</tspan><tspan x="1040.34" y="0">0</tspan><tspan x="1075.02" y="0">0</tspan><tspan x="-3.58336" y="25">31</tspan><tspan x="31.0946" y="25">30</tspan><tspan x="65.7727" y="25">29</tspan><tspan x="100.451" y="25">28</tspan><tspan x="135.129" y="25">27</tspan><tspan x="169.807" y="25">26</tspan><tspan x="204.485" y="25">25</tspan><tspan x="239.163" y="25">24</tspan><tspan x="273.841" y="25">23</tspan><tspan x="308.519" y="25">22</tspan><tspan x="343.197" y="25">21</tspan><tspan x="377.875" y="25">20</tspan><tspan x="412.553" y="25">19</tspan><tspan x="447.231" y="25">18</tspan><tspan x="481.909" y="25">17</tspan><tspan x="516.587" y="25">16</tspan><tspan x="551.265" y="25">15</tspan><tspan x="585.943" y="25">14</tspan><tspan x="620.621" y="25">13</tspan><tspan x="655.299" y="25">12</tspan><tspan x="689.977" y="25">11</tspan><tspan x="724.655" y="25">10</tspan><tspan x="762.916" y="25">9</tspan><tspan x="797.594" y="25">8</tspan><tspan x="832.272" y="25">7</tspan><tspan x="866.95" y="25">6</tspan><tspan x="901.628" y="25">5</tspan><tspan x="936.306" y="25">4</tspan><tspan x="970.984" y="25">3</tspan><tspan x="1005.66" y="25">2</tspan><tspan x="1040.34" y="25">1</tspan><tspan x="1075.02" y="25">0</tspan><tspan font-size="19" x="-4.15564" y="-30">Current Event Flags Group</tspan><tspan font-size="19" x="628.447" y="-30">Corresponding hexadecimal value:</tspan><tspan font-size="19" x="953.836" y="-30">0x00000F0C</tspan></text><path d="M102.508 428.282 137.186 428.282 137.186 453.882 102.508 453.882Z" fill="#FFFFFF" fill-rule="evenodd"/><path d="M137.186 428.282 171.864 428.282 171.864 453.882 137.186 453.882Z" fill="#FFFFFF" fill-rule="evenodd"/><path d="M171.864 428.282 206.542 428.282 206.542 453.882 171.864 453.882Z" fill="#FFFFFF" fill-rule="evenodd"/><path d="M206.542 428.282 241.22 428.282 241.22 453.882 206.542 453.882Z" fill="#FFFFFF" fill-rule="evenodd"/><path d="M241.22 428.282 275.898 428.282 275.898 453.882 241.22 453.882Z" fill="#FFFF00" fill-rule="evenodd"/><path d="M275.898 428.282 310.576 428.282 310.576 453.882 275.898 453.882Z" fill="#FFFF00" fill-rule="evenodd"/><path d="M310.576 428.282 345.254 428.282 345.254 453.882 310.576 453.882Z" fill="#FFFF00" fill-rule="evenodd"/><path d="M345.254 428.282 379.932 428.282 379.932 453.882 345.254 453.882Z" fill="#FFFF00" fill-rule="evenodd"/><path d="M379.932 428.282 414.611 428.282 414.611 453.882 379.932 453.882Z" fill="#FFFFFF" fill-rule="evenodd"/><path d="M414.611 428.282 449.288 428.282 449.288 453.882 414.611 453.882Z" fill="#FFFFFF" fill-rule="evenodd"/><path d="M449.288 428.282 483.966 428.282 483.966 453.882 449.288 453.882Z" fill="#FFFFFF" fill-rule="evenodd"/><path d="M483.966 428.282 518.645 428.282 518.645 453.882 483.966 453.882Z" fill="#FFFFFF" fill-rule="evenodd"/><path d="M518.645 428.282 553.323 428.282 553.323 453.882 518.645 453.882Z" fill="#FFFF00" fill-rule="evenodd"/><path d="M553.323 428.282 588 428.282 588 453.882 553.323 453.882Z" fill="#FFFF00" fill-rule="evenodd"/><path d="M588 428.282 622.678 428.282 622.678 453.882 588 453.882Z" fill="#FFFF00" fill-rule="evenodd"/><path d="M622.678 428.282 657.357 428.282 657.357 453.882 622.678 453.882Z" fill="#FFFF00" fill-rule="evenodd"/><path d="M657.357 428.282 692.035 428.282 692.035 453.882 657.357 453.882Z" fill="#FFFFFF" fill-rule="evenodd"/><path d="M692.035 428.282 726.713 428.282 726.713 453.882 692.035 453.882Z" fill="#FFFFFF" fill-rule="evenodd"/><path d="M726.713 428.282 761.391 428.282 761.391 453.882 726.713 453.882Z" fill="#FFFFFF" fill-rule="evenodd"/><path d="M796.068 428.282 830.747 428.282 830.747 453.882 796.068 453.882Z" fill="#FFFF00" fill-rule="evenodd"/><path d="M830.747 428.282 865.425 428.282 865.425 453.882 830.747 453.882Z" fill="#FFFF00" fill-rule="evenodd"/><path d="M865.425 428.282 900.103 428.282 900.103 453.882 865.425 453.882Z" fill="#FFFF00" fill-rule="evenodd"/><path d="M900.103 428.282 934.781 428.282 934.781 453.882 900.103 453.882Z" fill="#FFFF00" fill-rule="evenodd"/><path d="M1073.49 428.282 1108.17 428.282 1108.17 453.882 1073.49 453.882Z" fill="#FFFF00" fill-rule="evenodd"/><path d="M1108.17 428.282 1142.85 428.282 1142.85 453.882 1108.17 453.882Z" fill="#FFFF00" fill-rule="evenodd"/><path d="M1142.85 428.282 1177.53 428.282 1177.53 453.882 1142.85 453.882Z" fill="#FFFF00" fill-rule="evenodd"/><path d="M1177.53 428.282 1212.2 428.282 1212.2 453.882 1177.53 453.882Z" fill="#FFFF00" fill-rule="evenodd"/><path d="M102.508 453.882 137.186 453.882 137.186 479.482 102.508 479.482Z" fill="#FFFFFF" fill-rule="evenodd"/><path d="M137.186 453.882 171.864 453.882 171.864 479.482 137.186 479.482Z" fill="#FFFFFF" fill-rule="evenodd"/><path d="M171.864 453.882 206.542 453.882 206.542 479.482 171.864 479.482Z" fill="#FFFFFF" fill-rule="evenodd"/><path d="M206.542 453.882 241.22 453.882 241.22 479.482 206.542 479.482Z" fill="#FFFFFF" fill-rule="evenodd"/><path d="M241.22 453.882 275.898 453.882 275.898 479.482 241.22 479.482Z" fill="#FFFFFF" fill-rule="evenodd"/><path d="M275.898 453.882 310.576 453.882 310.576 479.482 275.898 479.482Z" fill="#FFFFFF" fill-rule="evenodd"/><path d="M310.576 453.882 345.254 453.882 345.254 479.482 310.576 479.482Z" fill="#FFFFFF" fill-rule="evenodd"/><path d="M345.254 453.882 379.932 453.882 379.932 479.482 345.254 479.482Z" fill="#FFFFFF" fill-rule="evenodd"/><path d="M379.932 453.882 414.611 453.882 414.611 479.482 379.932 479.482Z" fill="#FFFFFF" fill-rule="evenodd"/><path d="M414.611 453.882 449.288 453.882 449.288 479.482 414.611 479.482Z" fill="#FFFFFF" fill-rule="evenodd"/><path d="M449.288 453.882 483.966 453.882 483.966 479.482 449.288 479.482Z" fill="#FFFFFF" fill-rule="evenodd"/><path d="M483.966 453.882 518.645 453.882 518.645 479.482 483.966 479.482Z" fill="#FFFFFF" fill-rule="evenodd"/><path d="M518.645 453.882 553.323 453.882 553.323 479.482 518.645 479.482Z" fill="#FFFFFF" fill-rule="evenodd"/><path d="M553.323 453.882 588 453.882 588 479.482 553.323 479.482Z" fill="#FFFFFF" fill-rule="evenodd"/><path d="M588 453.882 622.678 453.882 622.678 479.482 588 479.482Z" fill="#FFFFFF" fill-rule="evenodd"/><path d="M622.678 453.882 657.357 453.882 657.357 479.482 622.678 479.482Z" fill="#FFFFFF" fill-rule="evenodd"/><path d="M657.357 453.882 692.035 453.882 692.035 479.482 657.357 479.482Z" fill="#FFFFFF" fill-rule="evenodd"/><path d="M692.035 453.882 726.713 453.882 726.713 479.482 692.035 479.482Z" fill="#FFFFFF" fill-rule="evenodd"/><path d="M726.713 453.882 761.391 453.882 761.391 479.482 726.713 479.482Z" fill="#FFFFFF" fill-rule="evenodd"/><path d="M761.391 453.882 796.068 453.882 796.068 479.482 761.391 479.482Z" fill="#FFFFFF" fill-rule="evenodd"/><path d="M796.068 453.882 830.747 453.882 830.747 479.482 796.068 479.482Z" fill="#FFFFFF" fill-rule="evenodd"/><path d="M830.747 453.882 865.425 453.882 865.425 479.482 830.747 479.482Z" fill="#FFFFFF" fill-rule="evenodd"/><path d="M865.425 453.882 900.103 453.882 900.103 479.482 865.425 479.482Z" fill="#FFFFFF" fill-rule="evenodd"/><path d="M900.103 453.882 934.781 453.882 934.781 479.482 900.103 479.482Z" fill="#FFFFFF" fill-rule="evenodd"/><path d="M934.781 453.882 969.459 453.882 969.459 479.482 934.781 479.482Z" fill="#FFFFFF" fill-rule="evenodd"/><path d="M969.459 453.882 1004.14 453.882 1004.14 479.482 969.459 479.482Z" fill="#FFFFFF" fill-rule="evenodd"/><path d="M1004.14 453.882 1038.81 453.882 1038.81 479.482 1004.14 479.482Z" fill="#FFFFFF" fill-rule="evenodd"/><path d="M1038.81 453.882 1073.49 453.882 1073.49 479.482 1038.81 479.482Z" fill="#FFFFFF" fill-rule="evenodd"/><path d="M1073.49 453.882 1108.17 453.882 1108.17 479.482 1073.49 479.482Z" fill="#FFFFFF" fill-rule="evenodd"/><path d="M1108.17 453.882 1142.85 453.882 1142.85 479.482 1108.17 479.482Z" fill="#FFFFFF" fill-rule="evenodd"/><path d="M1142.85 453.882 1177.53 453.882 1177.53 479.482 1142.85 479.482Z" fill="#FFFFFF" fill-rule="evenodd"/><path d="M1177.53 453.882 1212.2 453.882 1212.2 479.482 1177.53 479.482Z" fill="#FFFFFF" fill-rule="evenodd"/><path d="M137.186 427.615 137.186 454.549" stroke="#000000" stroke-width="1.33333" stroke-linejoin="round" stroke-miterlimit="10" fill="none" fill-rule="evenodd"/><path d="M171.864 427.615 171.864 454.549" stroke="#000000" stroke-width="1.33333" stroke-linejoin="round" stroke-miterlimit="10" fill="none" fill-rule="evenodd"/><path d="M206.542 427.615 206.542 454.549" stroke="#000000" stroke-width="1.33333" stroke-linejoin="round" stroke-miterlimit="10" fill="none" fill-rule="evenodd"/><path d="M241.22 427.615 241.22 454.549" stroke="#000000" stroke-width="1.33333" stroke-linejoin="round" stroke-miterlimit="10" fill="none" fill-rule="evenodd"/><path d="M275.898 427.615 275.898 454.549" stroke="#000000" stroke-width="1.33333" stroke-linejoin="round" stroke-miterlimit="10" fill="none" fill-rule="evenodd"/><path d="M310.576 427.615 310.576 454.549" stroke="#000000" stroke-width="1.33333" stroke-linejoin="round" stroke-miterlimit="10" fill="none" fill-rule="evenodd"/><path d="M345.254 427.615 345.254 454.549" stroke="#000000" stroke-width="1.33333" stroke-linejoin="round" stroke-miterlimit="10" fill="none" fill-rule="evenodd"/><path d="M379.932 427.615 379.932 454.549" stroke="#000000" stroke-width="1.33333" stroke-linejoin="round" stroke-miterlimit="10" fill="none" fill-rule="evenodd"/><path d="M414.611 427.615 414.611 454.549" stroke="#000000" stroke-width="1.33333" stroke-linejoin="round" stroke-miterlimit="10" fill="none" fill-rule="evenodd"/><path d="M449.288 427.615 449.288 454.549" stroke="#000000" stroke-width="1.33333" stroke-linejoin="round" stroke-miterlimit="10" fill="none" fill-rule="evenodd"/><path d="M483.966 427.615 483.966 454.549" stroke="#000000" stroke-width="1.33333" stroke-linejoin="round" stroke-miterlimit="10" fill="none" fill-rule="evenodd"/><path d="M518.645 427.615 518.645 454.549" stroke="#000000" stroke-width="1.33333" stroke-linejoin="round" stroke-miterlimit="10" fill="none" fill-rule="evenodd"/><path d="M553.323 427.615 553.323 454.549" stroke="#000000" stroke-width="1.33333" stroke-linejoin="round" stroke-miterlimit="10" fill="none" fill-rule="evenodd"/><path d="M588 427.615 588 454.549" stroke="#000000" stroke-width="1.33333" stroke-linejoin="round" stroke-miterlimit="10" fill="none" fill-rule="evenodd"/><path d="M622.678 427.615 622.678 454.549" stroke="#000000" stroke-width="1.33333" stroke-linejoin="round" stroke-miterlimit="10" fill="none" fill-rule="evenodd"/><path d="M657.357 427.615 657.357 454.549" stroke="#000000" stroke-width="1.33333" stroke-linejoin="round" stroke-miterlimit="10" fill="none" fill-rule="evenodd"/><path d="M692.035 427.615 692.035 454.549" stroke="#000000" stroke-width="1.33333" stroke-linejoin="round" stroke-miterlimit="10" fill="none" fill-rule="evenodd"/><path d="M726.713 427.615 726.713 454.549" stroke="#000000" stroke-width="1.33333" stroke-linejoin="round" stroke-miterlimit="10" fill="none" fill-rule="evenodd"/><path d="M761.391 427.615 761.391 454.549" stroke="#000000" stroke-width="1.33333" stroke-linejoin="round" stroke-miterlimit="10" fill="none" fill-rule="evenodd"/><path d="M796.068 427.615 796.068 454.549" stroke="#000000" stroke-width="1.33333" stroke-linejoin="round" stroke-miterlimit="10" fill="none" fill-rule="evenodd"/><path d="M830.747 427.615 830.747 454.549" stroke="#000000" stroke-width="1.33333" stroke-linejoin="round" stroke-miterlimit="10" fill="none" fill-rule="evenodd"/><path d="M865.425 427.615 865.425 454.549" stroke="#000000" stroke-width="1.33333" stroke-linejoin="round" stroke-miterlimit="10" fill="none" fill-rule="evenodd"/><path d="M900.103 427.615 900.103 454.549" stroke="#000000" stroke-width="1.33333" stroke-linejoin="round" stroke-miterlimit="10" fill="none" fill-rule="evenodd"/><path d="M934.781 427.615 934.781 454.549" stroke="#000000" stroke-width="1.33333" stroke-linejoin="round" stroke-miterlimit="10" fill="none" fill-rule="evenodd"/><path d="M969.459 427.615 969.459 454.549" stroke="#000000" stroke-width="1.33333" stroke-linejoin="round" stroke-miterlimit="10" fill="none" fill-rule="evenodd"/><path d="M1004.14 427.615 1004.14 454.549" stroke="#000000" stroke-width="1.33333" stroke-linejoin="round" stroke-miterlimit="10" fill="none" fill-rule="evenodd"/><path d="M1038.81 427.615 1038.81 454.549" stroke="#000000" stroke-width="1.33333" stroke-linejoin="round" stroke-miterlimit="10" fill="none" fill-rule="evenodd"/><path d="M1073.49 427.615 1073.49 454.549" stroke="#000000" stroke-width="1.33333" stroke-linejoin="round" stroke-miterlimit="10" fill="none" fill-rule="evenodd"/><path d="M1108.17 427.615 1108.17 454.549" stroke="#000000" stroke-width="1.33333" stroke-linejoin="round" stroke-miterlimit="10" fill="none" fill-rule="evenodd"/><path d="M1142.85 427.615 1142.85 454.549" stroke="#000000" stroke-width="1.33333" stroke-linejoin="round" stroke-miterlimit="10" fill="none" fill-rule="evenodd"/><path d="M1177.53 427.615 1177.53 454.549" stroke="#000000" stroke-width="1.33333" stroke-linejoin="round" stroke-miterlimit="10" fill="none" fill-rule="evenodd"/><path d="M101.842 453.882 1212.87 453.882" stroke="#000000" stroke-width="1.33333" stroke-linejoin="round" stroke-miterlimit="10" fill="none" fill-rule="evenodd"/><path d="M102.508 427.615 102.508 454.549" stroke="#000000" stroke-width="1.33333" stroke-linejoin="round" stroke-miterlimit="10" fill="none" fill-rule="evenodd"/><path d="M1212.2 427.615 1212.2 454.549" stroke="#000000" stroke-width="1.33333" stroke-linejoin="round" stroke-miterlimit="10" fill="none" fill-rule="evenodd"/><path d="M101.842 428.282 1212.87 428.282" stroke="#000000" stroke-width="1.33333" stroke-linejoin="round" stroke-miterlimit="10" fill="none" fill-rule="evenodd"/><text font-family="Segoe UI,Segoe UI_MSFontService,sans-serif" font-weight="400" font-size="13" transform="translate(116.264 446)">0<tspan x="34.678" y="0">0</tspan><tspan x="69.356" y="0">0</tspan><tspan x="104.034" y="0">0</tspan><tspan x="138.712" y="0">0</tspan><tspan x="173.39" y="0">0</tspan><tspan x="208.068" y="0">0</tspan><tspan x="242.746" y="0">0</tspan><tspan x="277.424" y="0">0</tspan><tspan x="312.102" y="0">0</tspan><tspan x="346.78" y="0">0</tspan><tspan x="381.458" y="0">0</tspan><tspan x="416.136" y="0">0</tspan><tspan x="450.814" y="0">0</tspan><tspan x="485.492" y="0">0</tspan><tspan x="520.17" y="0">0</tspan><tspan x="554.848" y="0">0</tspan><tspan x="589.526" y="0">0</tspan><tspan x="624.204" y="0">0</tspan><tspan x="658.882" y="0">0</tspan><tspan x="693.56" y="0">0</tspan><tspan x="728.238" y="0">0</tspan><tspan x="762.916" y="0">0</tspan><tspan x="797.594" y="0">1</tspan><tspan x="832.272" y="0">0</tspan><tspan x="866.95" y="0">0</tspan><tspan x="901.628" y="0">0</tspan><tspan x="936.306" y="0">1</tspan><tspan x="970.984" y="0">0</tspan><tspan x="1005.66" y="0">0</tspan><tspan x="1040.34" y="0">0</tspan><tspan x="1075.02" y="0">1</tspan><tspan x="-3.58336" y="26">31</tspan><tspan x="31.0946" y="26">30</tspan><tspan x="65.7727" y="26">29</tspan><tspan x="100.451" y="26">28</tspan><tspan x="135.129" y="26">27</tspan><tspan x="169.807" y="26">26</tspan><tspan x="204.485" y="26">25</tspan><tspan x="239.163" y="26">24</tspan><tspan x="273.841" y="26">23</tspan><tspan x="308.519" y="26">22</tspan><tspan x="343.197" y="26">21</tspan><tspan x="377.875" y="26">20</tspan><tspan x="412.553" y="26">19</tspan><tspan x="447.231" y="26">18</tspan><tspan x="481.909" y="26">17</tspan><tspan x="516.587" y="26">16</tspan><tspan x="551.265" y="26">15</tspan><tspan x="585.943" y="26">14</tspan><tspan x="620.621" y="26">13</tspan><tspan x="655.299" y="26">12</tspan><tspan x="689.977" y="26">11</tspan><tspan x="724.655" y="26">10</tspan><tspan x="762.916" y="26">9</tspan><tspan x="797.594" y="26">8</tspan><tspan x="832.272" y="26">7</tspan><tspan x="866.95" y="26">6</tspan><tspan x="901.628" y="26">5</tspan><tspan x="936.306" y="26">4</tspan><tspan x="970.984" y="26">3</tspan><tspan x="1005.66" y="26">2</tspan><tspan x="1040.34" y="26">1</tspan><tspan x="1075.02" y="26">0</tspan><tspan font-size="19" x="-4.15564" y="-30">Specified Event Flags Group (</tspan><tspan fill="#0878D3" font-size="19" x="236.158" y="-30">flags_to_set</tspan><tspan font-size="19" x="331.678" y="-30">):</tspan><tspan font-size="19" x="628.447" y="-30">Corresponding hexadecimal value:</tspan><tspan font-size="19" x="954.509" y="-30">0x00000111</tspan></text><path d="M664 489 664 517.049 660 517.049 660 489ZM672 515.048 662 535.049 652 515.049Z" fill="#0878D3"/><path d="M102.508 600.862 137.186 600.862 137.186 626.462 102.508 626.462Z" fill="#FFFFFF" fill-rule="evenodd"/><path d="M137.186 600.862 171.864 600.862 171.864 626.462 137.186 626.462Z" fill="#FFFFFF" fill-rule="evenodd"/><path d="M171.864 600.862 206.542 600.862 206.542 626.462 171.864 626.462Z" fill="#FFFFFF" fill-rule="evenodd"/><path d="M206.542 600.862 241.22 600.862 241.22 626.462 206.542 626.462Z" fill="#FFFFFF" fill-rule="evenodd"/><path d="M241.22 600.862 275.898 600.862 275.898 626.462 241.22 626.462Z" fill="#FFFF00" fill-rule="evenodd"/><path d="M275.898 600.862 310.576 600.862 310.576 626.462 275.898 626.462Z" fill="#FFFF00" fill-rule="evenodd"/><path d="M310.576 600.862 345.254 600.862 345.254 626.462 310.576 626.462Z" fill="#FFFF00" fill-rule="evenodd"/><path d="M345.254 600.862 379.932 600.862 379.932 626.462 345.254 626.462Z" fill="#FFFF00" fill-rule="evenodd"/><path d="M379.932 600.862 414.611 600.862 414.611 626.462 379.932 626.462Z" fill="#FFFFFF" fill-rule="evenodd"/><path d="M414.611 600.862 449.288 600.862 449.288 626.462 414.611 626.462Z" fill="#FFFFFF" fill-rule="evenodd"/><path d="M449.288 600.862 483.966 600.862 483.966 626.462 449.288 626.462Z" fill="#FFFFFF" fill-rule="evenodd"/><path d="M483.966 600.862 518.645 600.862 518.645 626.462 483.966 626.462Z" fill="#FFFFFF" fill-rule="evenodd"/><path d="M518.645 600.862 553.323 600.862 553.323 626.462 518.645 626.462Z" fill="#FFFF00" fill-rule="evenodd"/><path d="M553.323 600.862 588 600.862 588 626.462 553.323 626.462Z" fill="#FFFF00" fill-rule="evenodd"/><path d="M588 600.862 622.678 600.862 622.678 626.462 588 626.462Z" fill="#FFFF00" fill-rule="evenodd"/><path d="M622.678 600.862 657.357 600.862 657.357 626.462 622.678 626.462Z" fill="#FFFF00" fill-rule="evenodd"/><path d="M657.357 600.862 692.035 600.862 692.035 626.462 657.357 626.462Z" fill="#FFFFFF" fill-rule="evenodd"/><path d="M692.035 600.862 726.713 600.862 726.713 626.462 692.035 626.462Z" fill="#FFFFFF" fill-rule="evenodd"/><path d="M726.713 600.862 761.391 600.862 761.391 626.462 726.713 626.462Z" fill="#FFFFFF" fill-rule="evenodd"/><path d="M796.068 600.862 830.747 600.862 830.747 626.462 796.068 626.462Z" fill="#FFFF00" fill-rule="evenodd"/><path d="M830.747 600.862 865.425 600.862 865.425 626.462 830.747 626.462Z" fill="#FFFF00" fill-rule="evenodd"/><path d="M865.425 600.862 900.103 600.862 900.103 626.462 865.425 626.462Z" fill="#FFFF00" fill-rule="evenodd"/><path d="M900.103 600.862 934.781 600.862 934.781 626.462 900.103 626.462Z" fill="#FFFF00" fill-rule="evenodd"/><path d="M1073.49 600.862 1108.17 600.862 1108.17 626.462 1073.49 626.462Z" fill="#FFFF00" fill-rule="evenodd"/><path d="M1108.17 600.862 1142.85 600.862 1142.85 626.462 1108.17 626.462Z" fill="#FFFF00" fill-rule="evenodd"/><path d="M1142.85 600.862 1177.53 600.862 1177.53 626.462 1142.85 626.462Z" fill="#FFFF00" fill-rule="evenodd"/><path d="M1177.53 600.862 1212.2 600.862 1212.2 626.462 1177.53 626.462Z" fill="#FFFF00" fill-rule="evenodd"/><path d="M102.508 626.462 137.186 626.462 137.186 652.062 102.508 652.062Z" fill="#FFFFFF" fill-rule="evenodd"/><path d="M137.186 626.462 171.864 626.462 171.864 652.062 137.186 652.062Z" fill="#FFFFFF" fill-rule="evenodd"/><path d="M171.864 626.462 206.542 626.462 206.542 652.062 171.864 652.062Z" fill="#FFFFFF" fill-rule="evenodd"/><path d="M206.542 626.462 241.22 626.462 241.22 652.062 206.542 652.062Z" fill="#FFFFFF" fill-rule="evenodd"/><path d="M241.22 626.462 275.898 626.462 275.898 652.062 241.22 652.062Z" fill="#FFFFFF" fill-rule="evenodd"/><path d="M275.898 626.462 310.576 626.462 310.576 652.062 275.898 652.062Z" fill="#FFFFFF" fill-rule="evenodd"/><path d="M310.576 626.462 345.254 626.462 345.254 652.062 310.576 652.062Z" fill="#FFFFFF" fill-rule="evenodd"/><path d="M345.254 626.462 379.932 626.462 379.932 652.062 345.254 652.062Z" fill="#FFFFFF" fill-rule="evenodd"/><path d="M379.932 626.462 414.611 626.462 414.611 652.062 379.932 652.062Z" fill="#FFFFFF" fill-rule="evenodd"/><path d="M414.611 626.462 449.288 626.462 449.288 652.062 414.611 652.062Z" fill="#FFFFFF" fill-rule="evenodd"/><path d="M449.288 626.462 483.966 626.462 483.966 652.062 449.288 652.062Z" fill="#FFFFFF" fill-rule="evenodd"/><path d="M483.966 626.462 518.645 626.462 518.645 652.062 483.966 652.062Z" fill="#FFFFFF" fill-rule="evenodd"/><path d="M518.645 626.462 553.323 626.462 553.323 652.062 518.645 652.062Z" fill="#FFFFFF" fill-rule="evenodd"/><path d="M553.323 626.462 588 626.462 588 652.062 553.323 652.062Z" fill="#FFFFFF" fill-rule="evenodd"/><path d="M588 626.462 622.678 626.462 622.678 652.062 588 652.062Z" fill="#FFFFFF" fill-rule="evenodd"/><path d="M622.678 626.462 657.357 626.462 657.357 652.062 622.678 652.062Z" fill="#FFFFFF" fill-rule="evenodd"/><path d="M657.357 626.462 692.035 626.462 692.035 652.062 657.357 652.062Z" fill="#FFFFFF" fill-rule="evenodd"/><path d="M692.035 626.462 726.713 626.462 726.713 652.062 692.035 652.062Z" fill="#FFFFFF" fill-rule="evenodd"/><path d="M726.713 626.462 761.391 626.462 761.391 652.062 726.713 652.062Z" fill="#FFFFFF" fill-rule="evenodd"/><path d="M761.391 626.462 796.068 626.462 796.068 652.062 761.391 652.062Z" fill="#FFFFFF" fill-rule="evenodd"/><path d="M796.068 626.462 830.747 626.462 830.747 652.062 796.068 652.062Z" fill="#FFFFFF" fill-rule="evenodd"/><path d="M830.747 626.462 865.425 626.462 865.425 652.062 830.747 652.062Z" fill="#FFFFFF" fill-rule="evenodd"/><path d="M865.425 626.462 900.103 626.462 900.103 652.062 865.425 652.062Z" fill="#FFFFFF" fill-rule="evenodd"/><path d="M900.103 626.462 934.781 626.462 934.781 652.062 900.103 652.062Z" fill="#FFFFFF" fill-rule="evenodd"/><path d="M934.781 626.462 969.459 626.462 969.459 652.062 934.781 652.062Z" fill="#FFFFFF" fill-rule="evenodd"/><path d="M969.459 626.462 1004.14 626.462 1004.14 652.062 969.459 652.062Z" fill="#FFFFFF" fill-rule="evenodd"/><path d="M1004.14 626.462 1038.81 626.462 1038.81 652.062 1004.14 652.062Z" fill="#FFFFFF" fill-rule="evenodd"/><path d="M1038.81 626.462 1073.49 626.462 1073.49 652.062 1038.81 652.062Z" fill="#FFFFFF" fill-rule="evenodd"/><path d="M1073.49 626.462 1108.17 626.462 1108.17 652.062 1073.49 652.062Z" fill="#FFFFFF" fill-rule="evenodd"/><path d="M1108.17 626.462 1142.85 626.462 1142.85 652.062 1108.17 652.062Z" fill="#FFFFFF" fill-rule="evenodd"/><path d="M1142.85 626.462 1177.53 626.462 1177.53 652.062 1142.85 652.062Z" fill="#FFFFFF" fill-rule="evenodd"/><path d="M1177.53 626.462 1212.2 626.462 1212.2 652.062 1177.53 652.062Z" fill="#FFFFFF" fill-rule="evenodd"/><path d="M137.186 600.195 137.186 627.129" stroke="#000000" stroke-width="1.33333" stroke-linejoin="round" stroke-miterlimit="10" fill="none" fill-rule="evenodd"/><path d="M171.864 600.195 171.864 627.129" stroke="#000000" stroke-width="1.33333" stroke-linejoin="round" stroke-miterlimit="10" fill="none" fill-rule="evenodd"/><path d="M206.542 600.195 206.542 627.129" stroke="#000000" stroke-width="1.33333" stroke-linejoin="round" stroke-miterlimit="10" fill="none" fill-rule="evenodd"/><path d="M241.22 600.195 241.22 627.129" stroke="#000000" stroke-width="1.33333" stroke-linejoin="round" stroke-miterlimit="10" fill="none" fill-rule="evenodd"/><path d="M275.898 600.195 275.898 627.129" stroke="#000000" stroke-width="1.33333" stroke-linejoin="round" stroke-miterlimit="10" fill="none" fill-rule="evenodd"/><path d="M310.576 600.195 310.576 627.129" stroke="#000000" stroke-width="1.33333" stroke-linejoin="round" stroke-miterlimit="10" fill="none" fill-rule="evenodd"/><path d="M345.254 600.195 345.254 627.129" stroke="#000000" stroke-width="1.33333" stroke-linejoin="round" stroke-miterlimit="10" fill="none" fill-rule="evenodd"/><path d="M379.932 600.195 379.932 627.129" stroke="#000000" stroke-width="1.33333" stroke-linejoin="round" stroke-miterlimit="10" fill="none" fill-rule="evenodd"/><path d="M414.611 600.195 414.611 627.129" stroke="#000000" stroke-width="1.33333" stroke-linejoin="round" stroke-miterlimit="10" fill="none" fill-rule="evenodd"/><path d="M449.288 600.195 449.288 627.129" stroke="#000000" stroke-width="1.33333" stroke-linejoin="round" stroke-miterlimit="10" fill="none" fill-rule="evenodd"/><path d="M483.966 600.195 483.966 627.129" stroke="#000000" stroke-width="1.33333" stroke-linejoin="round" stroke-miterlimit="10" fill="none" fill-rule="evenodd"/><path d="M518.645 600.195 518.645 627.129" stroke="#000000" stroke-width="1.33333" stroke-linejoin="round" stroke-miterlimit="10" fill="none" fill-rule="evenodd"/><path d="M553.323 600.195 553.323 627.129" stroke="#000000" stroke-width="1.33333" stroke-linejoin="round" stroke-miterlimit="10" fill="none" fill-rule="evenodd"/><path d="M588 600.195 588 627.129" stroke="#000000" stroke-width="1.33333" stroke-linejoin="round" stroke-miterlimit="10" fill="none" fill-rule="evenodd"/><path d="M622.678 600.195 622.678 627.129" stroke="#000000" stroke-width="1.33333" stroke-linejoin="round" stroke-miterlimit="10" fill="none" fill-rule="evenodd"/><path d="M657.357 600.195 657.357 627.129" stroke="#000000" stroke-width="1.33333" stroke-linejoin="round" stroke-miterlimit="10" fill="none" fill-rule="evenodd"/><path d="M692.035 600.195 692.035 627.129" stroke="#000000" stroke-width="1.33333" stroke-linejoin="round" stroke-miterlimit="10" fill="none" fill-rule="evenodd"/><path d="M726.713 600.195 726.713 627.129" stroke="#000000" stroke-width="1.33333" stroke-linejoin="round" stroke-miterlimit="10" fill="none" fill-rule="evenodd"/><path d="M761.391 600.195 761.391 627.129" stroke="#000000" stroke-width="1.33333" stroke-linejoin="round" stroke-miterlimit="10" fill="none" fill-rule="evenodd"/><path d="M796.068 600.195 796.068 627.129" stroke="#000000" stroke-width="1.33333" stroke-linejoin="round" stroke-miterlimit="10" fill="none" fill-rule="evenodd"/><path d="M830.747 600.195 830.747 627.129" stroke="#000000" stroke-width="1.33333" stroke-linejoin="round" stroke-miterlimit="10" fill="none" fill-rule="evenodd"/><path d="M865.425 600.195 865.425 627.129" stroke="#000000" stroke-width="1.33333" stroke-linejoin="round" stroke-miterlimit="10" fill="none" fill-rule="evenodd"/><path d="M900.103 600.195 900.103 627.129" stroke="#000000" stroke-width="1.33333" stroke-linejoin="round" stroke-miterlimit="10" fill="none" fill-rule="evenodd"/><path d="M934.781 600.195 934.781 627.129" stroke="#000000" stroke-width="1.33333" stroke-linejoin="round" stroke-miterlimit="10" fill="none" fill-rule="evenodd"/><path d="M969.459 600.195 969.459 627.129" stroke="#000000" stroke-width="1.33333" stroke-linejoin="round" stroke-miterlimit="10" fill="none" fill-rule="evenodd"/><path d="M1004.14 600.195 1004.14 627.129" stroke="#000000" stroke-width="1.33333" stroke-linejoin="round" stroke-miterlimit="10" fill="none" fill-rule="evenodd"/><path d="M1038.81 600.195 1038.81 627.129" stroke="#000000" stroke-width="1.33333" stroke-linejoin="round" stroke-miterlimit="10" fill="none" fill-rule="evenodd"/><path d="M1073.49 600.195 1073.49 627.129" stroke="#000000" stroke-width="1.33333" stroke-linejoin="round" stroke-miterlimit="10" fill="none" fill-rule="evenodd"/><path d="M1108.17 600.195 1108.17 627.129" stroke="#000000" stroke-width="1.33333" stroke-linejoin="round" stroke-miterlimit="10" fill="none" fill-rule="evenodd"/><path d="M1142.85 600.195 1142.85 627.129" stroke="#000000" stroke-width="1.33333" stroke-linejoin="round" stroke-miterlimit="10" fill="none" fill-rule="evenodd"/><path d="M1177.53 600.195 1177.53 627.129" stroke="#000000" stroke-width="1.33333" stroke-linejoin="round" stroke-miterlimit="10" fill="none" fill-rule="evenodd"/><path d="M101.842 626.462 1212.87 626.462" stroke="#000000" stroke-width="1.33333" stroke-linejoin="round" stroke-miterlimit="10" fill="none" fill-rule="evenodd"/><path d="M102.508 600.195 102.508 627.129" stroke="#000000" stroke-width="1.33333" stroke-linejoin="round" stroke-miterlimit="10" fill="none" fill-rule="evenodd"/><path d="M1212.2 600.195 1212.2 627.129" stroke="#000000" stroke-width="1.33333" stroke-linejoin="round" stroke-miterlimit="10" fill="none" fill-rule="evenodd"/><path d="M101.842 600.862 900.769 600.862" stroke="#000000" stroke-width="1.33333" stroke-linejoin="round" stroke-miterlimit="10" fill="none" fill-rule="evenodd"/><path d="M900.769 600.862 934.114 600.862" stroke="#000000" stroke-linejoin="round" stroke-miterlimit="10" fill="none" fill-rule="evenodd"/><path d="M934.114 600.862 1212.87 600.862" stroke="#000000" stroke-width="1.33333" stroke-linejoin="round" stroke-miterlimit="10" fill="none" fill-rule="evenodd"/><text font-family="Segoe UI,Segoe UI_MSFontService,sans-serif" font-weight="400" font-size="13" transform="translate(116.264 619)">0<tspan x="34.678" y="0">0</tspan><tspan x="69.356" y="0">0</tspan><tspan x="104.034" y="0">0</tspan><tspan x="138.712" y="0">0</tspan><tspan x="173.39" y="0">0</tspan><tspan x="208.068" y="0">0</tspan><tspan x="242.746" y="0">0</tspan><tspan x="277.424" y="0">0</tspan><tspan x="312.102" y="0">0</tspan><tspan x="346.78" y="0">0</tspan><tspan x="381.458" y="0">0</tspan><tspan x="416.136" y="0">0</tspan><tspan x="450.814" y="0">0</tspan><tspan x="485.492" y="0">0</tspan><tspan x="520.17" y="0">0</tspan><tspan x="554.848" y="0">0</tspan><tspan x="589.526" y="0">0</tspan><tspan x="624.204" y="0">0</tspan><tspan x="658.882" y="0">0</tspan><tspan x="693.56" y="0">1</tspan><tspan x="728.238" y="0">1</tspan><tspan x="762.916" y="0">1</tspan><tspan x="797.594" y="0">1</tspan><tspan x="832.272" y="0">0</tspan><tspan x="866.95" y="0">0</tspan><tspan x="901.628" y="0">0</tspan><tspan x="936.306" y="0">1</tspan><tspan x="970.984" y="0">1</tspan><tspan x="1005.66" y="0">1</tspan><tspan x="1040.34" y="0">0</tspan><tspan x="1075.02" y="0">1</tspan><tspan x="-3.58336" y="25">31</tspan><tspan x="31.0946" y="25">30</tspan><tspan x="65.7727" y="25">29</tspan><tspan x="100.451" y="25">28</tspan><tspan x="135.129" y="25">27</tspan><tspan x="169.807" y="25">26</tspan><tspan x="204.485" y="25">25</tspan><tspan x="239.163" y="25">24</tspan><tspan x="273.841" y="25">23</tspan><tspan x="308.519" y="25">22</tspan><tspan x="343.197" y="25">21</tspan><tspan x="377.875" y="25">20</tspan><tspan x="412.553" y="25">19</tspan><tspan x="447.231" y="25">18</tspan><tspan x="481.909" y="25">17</tspan><tspan x="516.587" y="25">16</tspan><tspan x="551.265" y="25">15</tspan><tspan x="585.943" y="25">14</tspan><tspan x="620.621" y="25">13</tspan><tspan x="655.299" y="25">12</tspan><tspan x="689.977" y="25">11</tspan><tspan x="724.655" y="25">10</tspan><tspan x="762.916" y="25">9</tspan><tspan x="797.594" y="25">8</tspan><tspan x="832.272" y="25">7</tspan><tspan x="866.95" y="25">6</tspan><tspan x="901.628" y="25">5</tspan><tspan x="936.306" y="25">4</tspan><tspan x="970.984" y="25">3</tspan><tspan x="1005.66" y="25">2</tspan><tspan x="1040.34" y="25">1</tspan><tspan x="1075.02" y="25">0</tspan><tspan font-size="19" x="-4.15564" y="-30">Result of </tspan><tspan fill="#0878D3" font-size="19" x="72.4844" y="-30">TX_OR</tspan><tspan font-size="19" x="126.098" y="-30">:</tspan><tspan font-size="19" x="628.447" y="-30">Corresponding hexadecimal value:</tspan><tspan font-size="19" x="952.32" y="-30">0x00000F1D</tspan><tspan font-size="19" x="411.259" y="-62">New Value of Event Flags Group:</tspan></text></g></svg>