<svg width="1119" height="359" xmlns="http://www.w3.org/2000/svg" xmlns:xlink="http://www.w3.org/1999/xlink" overflow="hidden"><defs><clipPath id="clip0"><rect x="96" y="169" width="1119" height="359"/></clipPath></defs><g clip-path="url(#clip0)" transform="translate(-96 -169)"><path d="M98.4521 205.458 133.13 205.458 133.13 231.058 98.4521 231.058Z" fill="#FFFFFF" fill-rule="evenodd"/><path d="M133.13 205.458 167.808 205.458 167.808 231.058 133.13 231.058Z" fill="#FFFFFF" fill-rule="evenodd"/><path d="M167.808 205.458 202.486 205.458 202.486 231.058 167.808 231.058Z" fill="#FFFFFF" fill-rule="evenodd"/><path d="M202.486 205.458 237.164 205.458 237.164 231.058 202.486 231.058Z" fill="#FFFFFF" fill-rule="evenodd"/><path d="M237.164 205.458 271.842 205.458 271.842 231.058 237.164 231.058Z" fill="#FFFF00" fill-rule="evenodd"/><path d="M271.842 205.458 306.52 205.458 306.52 231.058 271.842 231.058Z" fill="#FFFF00" fill-rule="evenodd"/><path d="M306.52 205.458 341.198 205.458 341.198 231.058 306.52 231.058Z" fill="#FFFF00" fill-rule="evenodd"/><path d="M341.198 205.458 375.876 205.458 375.876 231.058 341.198 231.058Z" fill="#FFFF00" fill-rule="evenodd"/><path d="M375.876 205.458 410.554 205.458 410.554 231.058 375.876 231.058Z" fill="#FFFFFF" fill-rule="evenodd"/><path d="M410.554 205.458 445.232 205.458 445.232 231.058 410.554 231.058Z" fill="#FFFFFF" fill-rule="evenodd"/><path d="M445.232 205.458 479.91 205.458 479.91 231.058 445.232 231.058Z" fill="#FFFFFF" fill-rule="evenodd"/><path d="M479.91 205.458 514.588 205.458 514.588 231.058 479.91 231.058Z" fill="#FFFFFF" fill-rule="evenodd"/><path d="M514.588 205.458 549.266 205.458 549.266 231.058 514.588 231.058Z" fill="#FFFF00" fill-rule="evenodd"/><path d="M549.266 205.458 583.944 205.458 583.944 231.058 549.266 231.058Z" fill="#FFFF00" fill-rule="evenodd"/><path d="M583.944 205.458 618.622 205.458 618.622 231.058 583.944 231.058Z" fill="#FFFF00" fill-rule="evenodd"/><path d="M618.622 205.458 653.3 205.458 653.3 231.058 618.622 231.058Z" fill="#FFFF00" fill-rule="evenodd"/><path d="M653.3 205.458 687.978 205.458 687.978 231.058 653.3 231.058Z" fill="#FFFFFF" fill-rule="evenodd"/><path d="M687.978 205.458 722.656 205.458 722.656 231.058 687.978 231.058Z" fill="#FFFFFF" fill-rule="evenodd"/><path d="M722.656 205.458 757.334 205.458 757.334 231.058 722.656 231.058Z" fill="#FFFFFF" fill-rule="evenodd"/><path d="M792.012 205.458 826.69 205.458 826.69 231.058 792.012 231.058Z" fill="#FFFF00" fill-rule="evenodd"/><path d="M826.69 205.458 861.368 205.458 861.368 231.058 826.69 231.058Z" fill="#FFFF00" fill-rule="evenodd"/><path d="M861.368 205.458 896.046 205.458 896.046 231.058 861.368 231.058Z" fill="#FFFF00" fill-rule="evenodd"/><path d="M896.046 205.458 930.724 205.458 930.724 231.058 896.046 231.058Z" fill="#FFFF00" fill-rule="evenodd"/><path d="M1069.44 205.458 1104.11 205.458 1104.11 231.058 1069.44 231.058Z" fill="#FFFF00" fill-rule="evenodd"/><path d="M1104.11 205.458 1138.79 205.458 1138.79 231.058 1104.11 231.058Z" fill="#FFFF00" fill-rule="evenodd"/><path d="M1138.79 205.458 1173.47 205.458 1173.47 231.058 1138.79 231.058Z" fill="#FFFF00" fill-rule="evenodd"/><path d="M1173.47 205.458 1208.15 205.458 1208.15 231.058 1173.47 231.058Z" fill="#FFFF00" fill-rule="evenodd"/><path d="M98.4521 231.058 133.13 231.058 133.13 256.658 98.4521 256.658Z" fill="#FFFFFF" fill-rule="evenodd"/><path d="M133.13 231.058 167.808 231.058 167.808 256.658 133.13 256.658Z" fill="#FFFFFF" fill-rule="evenodd"/><path d="M167.808 231.058 202.486 231.058 202.486 256.658 167.808 256.658Z" fill="#FFFFFF" fill-rule="evenodd"/><path d="M202.486 231.058 237.164 231.058 237.164 256.658 202.486 256.658Z" fill="#FFFFFF" fill-rule="evenodd"/><path d="M237.164 231.058 271.842 231.058 271.842 256.658 237.164 256.658Z" fill="#FFFFFF" fill-rule="evenodd"/><path d="M271.842 231.058 306.52 231.058 306.52 256.658 271.842 256.658Z" fill="#FFFFFF" fill-rule="evenodd"/><path d="M306.52 231.058 341.198 231.058 341.198 256.658 306.52 256.658Z" fill="#FFFFFF" fill-rule="evenodd"/><path d="M341.198 231.058 375.876 231.058 375.876 256.658 341.198 256.658Z" fill="#FFFFFF" fill-rule="evenodd"/><path d="M375.876 231.058 410.554 231.058 410.554 256.658 375.876 256.658Z" fill="#FFFFFF" fill-rule="evenodd"/><path d="M410.554 231.058 445.232 231.058 445.232 256.658 410.554 256.658Z" fill="#FFFFFF" fill-rule="evenodd"/><path d="M445.232 231.058 479.91 231.058 479.91 256.658 445.232 256.658Z" fill="#FFFFFF" fill-rule="evenodd"/><path d="M479.91 231.058 514.588 231.058 514.588 256.658 479.91 256.658Z" fill="#FFFFFF" fill-rule="evenodd"/><path d="M514.588 231.058 549.266 231.058 549.266 256.658 514.588 256.658Z" fill="#FFFFFF" fill-rule="evenodd"/><path d="M549.266 231.058 583.944 231.058 583.944 256.658 549.266 256.658Z" fill="#FFFFFF" fill-rule="evenodd"/><path d="M583.944 231.058 618.622 231.058 618.622 256.658 583.944 256.658Z" fill="#FFFFFF" fill-rule="evenodd"/><path d="M618.622 231.058 653.3 231.058 653.3 256.658 618.622 256.658Z" fill="#FFFFFF" fill-rule="evenodd"/><path d="M653.3 231.058 687.978 231.058 687.978 256.658 653.3 256.658Z" fill="#FFFFFF" fill-rule="evenodd"/><path d="M687.978 231.058 722.656 231.058 722.656 256.658 687.978 256.658Z" fill="#FFFFFF" fill-rule="evenodd"/><path d="M722.656 231.058 757.334 231.058 757.334 256.658 722.656 256.658Z" fill="#FFFFFF" fill-rule="evenodd"/><path d="M757.334 231.058 792.012 231.058 792.012 256.658 757.334 256.658Z" fill="#FFFFFF" fill-rule="evenodd"/><path d="M792.012 231.058 826.69 231.058 826.69 256.658 792.012 256.658Z" fill="#FFFFFF" fill-rule="evenodd"/><path d="M826.69 231.058 861.368 231.058 861.368 256.658 826.69 256.658Z" fill="#FFFFFF" fill-rule="evenodd"/><path d="M861.368 231.058 896.046 231.058 896.046 256.658 861.368 256.658Z" fill="#FFFFFF" fill-rule="evenodd"/><path d="M896.046 231.058 930.724 231.058 930.724 256.658 896.046 256.658Z" fill="#FFFFFF" fill-rule="evenodd"/><path d="M930.724 231.058 965.402 231.058 965.402 256.658 930.724 256.658Z" fill="#FFFFFF" fill-rule="evenodd"/><path d="M965.402 231.058 1000.08 231.058 1000.08 256.658 965.402 256.658Z" fill="#FFFFFF" fill-rule="evenodd"/><path d="M1000.08 231.058 1034.76 231.058 1034.76 256.658 1000.08 256.658Z" fill="#FFFFFF" fill-rule="evenodd"/><path d="M1034.76 231.058 1069.44 231.058 1069.44 256.658 1034.76 256.658Z" fill="#FFFFFF" fill-rule="evenodd"/><path d="M1069.44 231.058 1104.11 231.058 1104.11 256.658 1069.44 256.658Z" fill="#FFFFFF" fill-rule="evenodd"/><path d="M1104.11 231.058 1138.79 231.058 1138.79 256.658 1104.11 256.658Z" fill="#FFFFFF" fill-rule="evenodd"/><path d="M1138.79 231.058 1173.47 231.058 1173.47 256.658 1138.79 256.658Z" fill="#FFFFFF" fill-rule="evenodd"/><path d="M1173.47 231.058 1208.15 231.058 1208.15 256.658 1173.47 256.658Z" fill="#FFFFFF" fill-rule="evenodd"/><path d="M133.13 204.791 133.13 231.725" stroke="#000000" stroke-width="1.33333" stroke-linejoin="round" stroke-miterlimit="10" fill="none" fill-rule="evenodd"/><path d="M167.808 204.791 167.808 231.725" stroke="#000000" stroke-width="1.33333" stroke-linejoin="round" stroke-miterlimit="10" fill="none" fill-rule="evenodd"/><path d="M202.486 204.791 202.486 231.725" stroke="#000000" stroke-width="1.33333" stroke-linejoin="round" stroke-miterlimit="10" fill="none" fill-rule="evenodd"/><path d="M237.164 204.791 237.164 231.725" stroke="#000000" stroke-width="1.33333" stroke-linejoin="round" stroke-miterlimit="10" fill="none" fill-rule="evenodd"/><path d="M271.842 204.791 271.842 231.725" stroke="#000000" stroke-width="1.33333" stroke-linejoin="round" stroke-miterlimit="10" fill="none" fill-rule="evenodd"/><path d="M306.52 204.791 306.52 231.725" stroke="#000000" stroke-width="1.33333" stroke-linejoin="round" stroke-miterlimit="10" fill="none" fill-rule="evenodd"/><path d="M341.198 204.791 341.198 231.725" stroke="#000000" stroke-width="1.33333" stroke-linejoin="round" stroke-miterlimit="10" fill="none" fill-rule="evenodd"/><path d="M375.876 204.791 375.876 231.725" stroke="#000000" stroke-width="1.33333" stroke-linejoin="round" stroke-miterlimit="10" fill="none" fill-rule="evenodd"/><path d="M410.554 204.791 410.554 231.725" stroke="#000000" stroke-width="1.33333" stroke-linejoin="round" stroke-miterlimit="10" fill="none" fill-rule="evenodd"/><path d="M445.232 204.791 445.232 231.725" stroke="#000000" stroke-width="1.33333" stroke-linejoin="round" stroke-miterlimit="10" fill="none" fill-rule="evenodd"/><path d="M479.91 204.791 479.91 231.725" stroke="#000000" stroke-width="1.33333" stroke-linejoin="round" stroke-miterlimit="10" fill="none" fill-rule="evenodd"/><path d="M514.588 204.791 514.588 231.725" stroke="#000000" stroke-width="1.33333" stroke-linejoin="round" stroke-miterlimit="10" fill="none" fill-rule="evenodd"/><path d="M549.266 204.791 549.266 231.725" stroke="#000000" stroke-width="1.33333" stroke-linejoin="round" stroke-miterlimit="10" fill="none" fill-rule="evenodd"/><path d="M583.944 204.791 583.944 231.725" stroke="#000000" stroke-width="1.33333" stroke-linejoin="round" stroke-miterlimit="10" fill="none" fill-rule="evenodd"/><path d="M618.622 204.791 618.622 231.725" stroke="#000000" stroke-width="1.33333" stroke-linejoin="round" stroke-miterlimit="10" fill="none" fill-rule="evenodd"/><path d="M653.3 204.791 653.3 231.725" stroke="#000000" stroke-width="1.33333" stroke-linejoin="round" stroke-miterlimit="10" fill="none" fill-rule="evenodd"/><path d="M687.978 204.791 687.978 231.725" stroke="#000000" stroke-width="1.33333" stroke-linejoin="round" stroke-miterlimit="10" fill="none" fill-rule="evenodd"/><path d="M722.656 204.791 722.656 231.725" stroke="#000000" stroke-width="1.33333" stroke-linejoin="round" stroke-miterlimit="10" fill="none" fill-rule="evenodd"/><path d="M757.334 204.791 757.334 231.725" stroke="#000000" stroke-width="1.33333" stroke-linejoin="round" stroke-miterlimit="10" fill="none" fill-rule="evenodd"/><path d="M792.012 204.791 792.012 231.725" stroke="#000000" stroke-width="1.33333" stroke-linejoin="round" stroke-miterlimit="10" fill="none" fill-rule="evenodd"/><path d="M826.69 204.791 826.69 231.725" stroke="#000000" stroke-width="1.33333" stroke-linejoin="round" stroke-miterlimit="10" fill="none" fill-rule="evenodd"/><path d="M861.368 204.791 861.368 231.725" stroke="#000000" stroke-width="1.33333" stroke-linejoin="round" stroke-miterlimit="10" fill="none" fill-rule="evenodd"/><path d="M896.046 204.791 896.046 231.725" stroke="#000000" stroke-width="1.33333" stroke-linejoin="round" stroke-miterlimit="10" fill="none" fill-rule="evenodd"/><path d="M930.724 204.791 930.724 231.725" stroke="#000000" stroke-width="1.33333" stroke-linejoin="round" stroke-miterlimit="10" fill="none" fill-rule="evenodd"/><path d="M965.402 204.791 965.402 231.725" stroke="#000000" stroke-width="1.33333" stroke-linejoin="round" stroke-miterlimit="10" fill="none" fill-rule="evenodd"/><path d="M1000.08 204.791 1000.08 231.725" stroke="#000000" stroke-width="1.33333" stroke-linejoin="round" stroke-miterlimit="10" fill="none" fill-rule="evenodd"/><path d="M1034.76 204.791 1034.76 231.725" stroke="#000000" stroke-width="1.33333" stroke-linejoin="round" stroke-miterlimit="10" fill="none" fill-rule="evenodd"/><path d="M1069.44 204.791 1069.44 231.725" stroke="#000000" stroke-width="1.33333" stroke-linejoin="round" stroke-miterlimit="10" fill="none" fill-rule="evenodd"/><path d="M1104.11 204.791 1104.11 231.725" stroke="#000000" stroke-width="1.33333" stroke-linejoin="round" stroke-miterlimit="10" fill="none" fill-rule="evenodd"/><path d="M1138.79 204.791 1138.79 231.725" stroke="#000000" stroke-width="1.33333" stroke-linejoin="round" stroke-miterlimit="10" fill="none" fill-rule="evenodd"/><path d="M1173.47 204.791 1173.47 231.725" stroke="#000000" stroke-width="1.33333" stroke-linejoin="round" stroke-miterlimit="10" fill="none" fill-rule="evenodd"/><path d="M97.7854 231.058 1208.81 231.058" stroke="#000000" stroke-width="1.33333" stroke-linejoin="round" stroke-miterlimit="10" fill="none" fill-rule="evenodd"/><path d="M98.4521 204.791 98.4521 231.725" stroke="#000000" stroke-width="1.33333" stroke-linejoin="round" stroke-miterlimit="10" fill="none" fill-rule="evenodd"/><path d="M1208.15 204.791 1208.15 231.725" stroke="#000000" stroke-width="1.33333" stroke-linejoin="round" stroke-miterlimit="10" fill="none" fill-rule="evenodd"/><path d="M97.7854 205.458 1208.81 205.458" stroke="#000000" stroke-width="1.33333" stroke-linejoin="round" stroke-miterlimit="10" fill="none" fill-rule="evenodd"/><text font-family="Segoe UI,Segoe UI_MSFontService,sans-serif" font-weight="400" font-size="13" transform="translate(112.208 223)">0<tspan x="34.678" y="0">0</tspan><tspan x="69.356" y="0">0</tspan><tspan x="104.034" y="0">0</tspan><tspan x="138.712" y="0">0</tspan><tspan x="173.39" y="0">0</tspan><tspan x="208.068" y="0">0</tspan><tspan x="242.746" y="0">0</tspan><tspan x="277.424" y="0">0</tspan><tspan x="312.102" y="0">0</tspan><tspan x="346.78" y="0">0</tspan><tspan x="381.458" y="0">0</tspan><tspan x="416.136" y="0">0</tspan><tspan x="450.814" y="0">0</tspan><tspan x="485.492" y="0">0</tspan><tspan x="520.17" y="0">0</tspan><tspan x="554.848" y="0">0</tspan><tspan x="589.526" y="0">0</tspan><tspan x="624.204" y="0">0</tspan><tspan x="658.882" y="0">0</tspan><tspan x="693.56" y="0">1</tspan><tspan x="728.238" y="0">1</tspan><tspan x="762.916" y="0">1</tspan><tspan x="797.594" y="0">1</tspan><tspan x="832.272" y="0">0</tspan><tspan x="866.95" y="0">0</tspan><tspan x="901.628" y="0">0</tspan><tspan x="936.306" y="0">0</tspan><tspan x="970.984" y="0">1</tspan><tspan x="1005.66" y="0">1</tspan><tspan x="1040.34" y="0">0</tspan><tspan x="1075.02" y="0">0</tspan><tspan x="-3.58336" y="26">31</tspan><tspan x="31.0947" y="26">30</tspan><tspan x="65.7726" y="26">29</tspan><tspan x="100.451" y="26">28</tspan><tspan x="135.129" y="26">27</tspan><tspan x="169.807" y="26">26</tspan><tspan x="204.485" y="26">25</tspan><tspan x="239.163" y="26">24</tspan><tspan x="273.841" y="26">23</tspan><tspan x="308.519" y="26">22</tspan><tspan x="343.197" y="26">21</tspan><tspan x="377.875" y="26">20</tspan><tspan x="412.553" y="26">19</tspan><tspan x="447.231" y="26">18</tspan><tspan x="481.909" y="26">17</tspan><tspan x="516.587" y="26">16</tspan><tspan x="551.265" y="26">15</tspan><tspan x="585.943" y="26">14</tspan><tspan x="620.621" y="26">13</tspan><tspan x="655.299" y="26">12</tspan><tspan x="689.977" y="26">11</tspan><tspan x="724.655" y="26">10</tspan><tspan x="762.916" y="26">9</tspan><tspan x="797.594" y="26">8</tspan><tspan x="832.272" y="26">7</tspan><tspan x="866.95" y="26">6</tspan><tspan x="901.628" y="26">5</tspan><tspan x="936.306" y="26">4</tspan><tspan x="970.984" y="26">3</tspan><tspan x="1005.66" y="26">2</tspan><tspan x="1040.34" y="26">1</tspan><tspan x="1075.02" y="26">0</tspan></text><path d="M98.4521 299.831 133.13 299.831 133.13 325.431 98.4521 325.431Z" fill="#FFFFFF" fill-rule="evenodd"/><path d="M133.13 299.831 167.808 299.831 167.808 325.431 133.13 325.431Z" fill="#FFFFFF" fill-rule="evenodd"/><path d="M167.808 299.831 202.486 299.831 202.486 325.431 167.808 325.431Z" fill="#FFFFFF" fill-rule="evenodd"/><path d="M202.486 299.831 237.164 299.831 237.164 325.431 202.486 325.431Z" fill="#FFFFFF" fill-rule="evenodd"/><path d="M237.164 299.831 271.842 299.831 271.842 325.431 237.164 325.431Z" fill="#FFFF00" fill-rule="evenodd"/><path d="M271.842 299.831 306.52 299.831 306.52 325.431 271.842 325.431Z" fill="#FFFF00" fill-rule="evenodd"/><path d="M306.52 299.831 341.198 299.831 341.198 325.431 306.52 325.431Z" fill="#FFFF00" fill-rule="evenodd"/><path d="M341.198 299.831 375.876 299.831 375.876 325.431 341.198 325.431Z" fill="#FFFF00" fill-rule="evenodd"/><path d="M375.876 299.831 410.554 299.831 410.554 325.431 375.876 325.431Z" fill="#FFFFFF" fill-rule="evenodd"/><path d="M410.554 299.831 445.232 299.831 445.232 325.431 410.554 325.431Z" fill="#FFFFFF" fill-rule="evenodd"/><path d="M445.232 299.831 479.91 299.831 479.91 325.431 445.232 325.431Z" fill="#FFFFFF" fill-rule="evenodd"/><path d="M479.91 299.831 514.588 299.831 514.588 325.431 479.91 325.431Z" fill="#FFFFFF" fill-rule="evenodd"/><path d="M514.588 299.831 549.266 299.831 549.266 325.431 514.588 325.431Z" fill="#FFFF00" fill-rule="evenodd"/><path d="M549.266 299.831 583.944 299.831 583.944 325.431 549.266 325.431Z" fill="#FFFF00" fill-rule="evenodd"/><path d="M583.944 299.831 618.622 299.831 618.622 325.431 583.944 325.431Z" fill="#FFFF00" fill-rule="evenodd"/><path d="M618.622 299.831 653.3 299.831 653.3 325.431 618.622 325.431Z" fill="#FFFF00" fill-rule="evenodd"/><path d="M653.3 299.831 687.978 299.831 687.978 325.431 653.3 325.431Z" fill="#FFFFFF" fill-rule="evenodd"/><path d="M687.978 299.831 722.656 299.831 722.656 325.431 687.978 325.431Z" fill="#FFFFFF" fill-rule="evenodd"/><path d="M722.656 299.831 757.334 299.831 757.334 325.431 722.656 325.431Z" fill="#FFFFFF" fill-rule="evenodd"/><path d="M792.012 299.831 826.69 299.831 826.69 325.431 792.012 325.431Z" fill="#FFFF00" fill-rule="evenodd"/><path d="M826.69 299.831 861.368 299.831 861.368 325.431 826.69 325.431Z" fill="#FFFF00" fill-rule="evenodd"/><path d="M861.368 299.831 896.046 299.831 896.046 325.431 861.368 325.431Z" fill="#FFFF00" fill-rule="evenodd"/><path d="M896.046 299.831 930.724 299.831 930.724 325.431 896.046 325.431Z" fill="#FFFF00" fill-rule="evenodd"/><path d="M1069.44 299.831 1104.11 299.831 1104.11 325.431 1069.44 325.431Z" fill="#FFFF00" fill-rule="evenodd"/><path d="M1104.11 299.831 1138.79 299.831 1138.79 325.431 1104.11 325.431Z" fill="#FFFF00" fill-rule="evenodd"/><path d="M1138.79 299.831 1173.47 299.831 1173.47 325.431 1138.79 325.431Z" fill="#FFFF00" fill-rule="evenodd"/><path d="M1173.47 299.831 1208.15 299.831 1208.15 325.431 1173.47 325.431Z" fill="#FFFF00" fill-rule="evenodd"/><path d="M98.4521 325.431 133.13 325.431 133.13 351.031 98.4521 351.031Z" fill="#FFFFFF" fill-rule="evenodd"/><path d="M133.13 325.431 167.808 325.431 167.808 351.031 133.13 351.031Z" fill="#FFFFFF" fill-rule="evenodd"/><path d="M167.808 325.431 202.486 325.431 202.486 351.031 167.808 351.031Z" fill="#FFFFFF" fill-rule="evenodd"/><path d="M202.486 325.431 237.164 325.431 237.164 351.031 202.486 351.031Z" fill="#FFFFFF" fill-rule="evenodd"/><path d="M237.164 325.431 271.842 325.431 271.842 351.031 237.164 351.031Z" fill="#FFFFFF" fill-rule="evenodd"/><path d="M271.842 325.431 306.52 325.431 306.52 351.031 271.842 351.031Z" fill="#FFFFFF" fill-rule="evenodd"/><path d="M306.52 325.431 341.198 325.431 341.198 351.031 306.52 351.031Z" fill="#FFFFFF" fill-rule="evenodd"/><path d="M341.198 325.431 375.876 325.431 375.876 351.031 341.198 351.031Z" fill="#FFFFFF" fill-rule="evenodd"/><path d="M375.876 325.431 410.554 325.431 410.554 351.031 375.876 351.031Z" fill="#FFFFFF" fill-rule="evenodd"/><path d="M410.554 325.431 445.232 325.431 445.232 351.031 410.554 351.031Z" fill="#FFFFFF" fill-rule="evenodd"/><path d="M445.232 325.431 479.91 325.431 479.91 351.031 445.232 351.031Z" fill="#FFFFFF" fill-rule="evenodd"/><path d="M479.91 325.431 514.588 325.431 514.588 351.031 479.91 351.031Z" fill="#FFFFFF" fill-rule="evenodd"/><path d="M514.588 325.431 549.266 325.431 549.266 351.031 514.588 351.031Z" fill="#FFFFFF" fill-rule="evenodd"/><path d="M549.266 325.431 583.944 325.431 583.944 351.031 549.266 351.031Z" fill="#FFFFFF" fill-rule="evenodd"/><path d="M583.944 325.431 618.622 325.431 618.622 351.031 583.944 351.031Z" fill="#FFFFFF" fill-rule="evenodd"/><path d="M618.622 325.431 653.3 325.431 653.3 351.031 618.622 351.031Z" fill="#FFFFFF" fill-rule="evenodd"/><path d="M653.3 325.431 687.978 325.431 687.978 351.031 653.3 351.031Z" fill="#FFFFFF" fill-rule="evenodd"/><path d="M687.978 325.431 722.656 325.431 722.656 351.031 687.978 351.031Z" fill="#FFFFFF" fill-rule="evenodd"/><path d="M722.656 325.431 757.334 325.431 757.334 351.031 722.656 351.031Z" fill="#FFFFFF" fill-rule="evenodd"/><path d="M757.334 325.431 792.012 325.431 792.012 351.031 757.334 351.031Z" fill="#FFFFFF" fill-rule="evenodd"/><path d="M792.012 325.431 826.69 325.431 826.69 351.031 792.012 351.031Z" fill="#FFFFFF" fill-rule="evenodd"/><path d="M826.69 325.431 861.368 325.431 861.368 351.031 826.69 351.031Z" fill="#FFFFFF" fill-rule="evenodd"/><path d="M861.368 325.431 896.046 325.431 896.046 351.031 861.368 351.031Z" fill="#FFFFFF" fill-rule="evenodd"/><path d="M896.046 325.431 930.724 325.431 930.724 351.031 896.046 351.031Z" fill="#FFFFFF" fill-rule="evenodd"/><path d="M930.724 325.431 965.402 325.431 965.402 351.031 930.724 351.031Z" fill="#FFFFFF" fill-rule="evenodd"/><path d="M965.402 325.431 1000.08 325.431 1000.08 351.031 965.402 351.031Z" fill="#FFFFFF" fill-rule="evenodd"/><path d="M1000.08 325.431 1034.76 325.431 1034.76 351.031 1000.08 351.031Z" fill="#FFFFFF" fill-rule="evenodd"/><path d="M1034.76 325.431 1069.44 325.431 1069.44 351.031 1034.76 351.031Z" fill="#FFFFFF" fill-rule="evenodd"/><path d="M1069.44 325.431 1104.11 325.431 1104.11 351.031 1069.44 351.031Z" fill="#FFFFFF" fill-rule="evenodd"/><path d="M1104.11 325.431 1138.79 325.431 1138.79 351.031 1104.11 351.031Z" fill="#FFFFFF" fill-rule="evenodd"/><path d="M1138.79 325.431 1173.47 325.431 1173.47 351.031 1138.79 351.031Z" fill="#FFFFFF" fill-rule="evenodd"/><path d="M1173.47 325.431 1208.15 325.431 1208.15 351.031 1173.47 351.031Z" fill="#FFFFFF" fill-rule="evenodd"/><path d="M133.13 299.165 133.13 326.098" stroke="#000000" stroke-width="1.33333" stroke-linejoin="round" stroke-miterlimit="10" fill="none" fill-rule="evenodd"/><path d="M167.808 299.165 167.808 326.098" stroke="#000000" stroke-width="1.33333" stroke-linejoin="round" stroke-miterlimit="10" fill="none" fill-rule="evenodd"/><path d="M202.486 299.165 202.486 326.098" stroke="#000000" stroke-width="1.33333" stroke-linejoin="round" stroke-miterlimit="10" fill="none" fill-rule="evenodd"/><path d="M237.164 299.165 237.164 326.098" stroke="#000000" stroke-width="1.33333" stroke-linejoin="round" stroke-miterlimit="10" fill="none" fill-rule="evenodd"/><path d="M271.842 299.165 271.842 326.098" stroke="#000000" stroke-width="1.33333" stroke-linejoin="round" stroke-miterlimit="10" fill="none" fill-rule="evenodd"/><path d="M306.52 299.165 306.52 326.098" stroke="#000000" stroke-width="1.33333" stroke-linejoin="round" stroke-miterlimit="10" fill="none" fill-rule="evenodd"/><path d="M341.198 299.165 341.198 326.098" stroke="#000000" stroke-width="1.33333" stroke-linejoin="round" stroke-miterlimit="10" fill="none" fill-rule="evenodd"/><path d="M375.876 299.165 375.876 326.098" stroke="#000000" stroke-width="1.33333" stroke-linejoin="round" stroke-miterlimit="10" fill="none" fill-rule="evenodd"/><path d="M410.554 299.165 410.554 326.098" stroke="#000000" stroke-width="1.33333" stroke-linejoin="round" stroke-miterlimit="10" fill="none" fill-rule="evenodd"/><path d="M445.232 299.165 445.232 326.098" stroke="#000000" stroke-width="1.33333" stroke-linejoin="round" stroke-miterlimit="10" fill="none" fill-rule="evenodd"/><path d="M479.91 299.165 479.91 326.098" stroke="#000000" stroke-width="1.33333" stroke-linejoin="round" stroke-miterlimit="10" fill="none" fill-rule="evenodd"/><path d="M514.588 299.165 514.588 326.098" stroke="#000000" stroke-width="1.33333" stroke-linejoin="round" stroke-miterlimit="10" fill="none" fill-rule="evenodd"/><path d="M549.266 299.165 549.266 326.098" stroke="#000000" stroke-width="1.33333" stroke-linejoin="round" stroke-miterlimit="10" fill="none" fill-rule="evenodd"/><path d="M583.944 299.165 583.944 326.098" stroke="#000000" stroke-width="1.33333" stroke-linejoin="round" stroke-miterlimit="10" fill="none" fill-rule="evenodd"/><path d="M618.622 299.165 618.622 326.098" stroke="#000000" stroke-width="1.33333" stroke-linejoin="round" stroke-miterlimit="10" fill="none" fill-rule="evenodd"/><path d="M653.3 299.165 653.3 326.098" stroke="#000000" stroke-width="1.33333" stroke-linejoin="round" stroke-miterlimit="10" fill="none" fill-rule="evenodd"/><path d="M687.978 299.165 687.978 326.098" stroke="#000000" stroke-width="1.33333" stroke-linejoin="round" stroke-miterlimit="10" fill="none" fill-rule="evenodd"/><path d="M722.656 299.165 722.656 326.098" stroke="#000000" stroke-width="1.33333" stroke-linejoin="round" stroke-miterlimit="10" fill="none" fill-rule="evenodd"/><path d="M757.334 299.165 757.334 326.098" stroke="#000000" stroke-width="1.33333" stroke-linejoin="round" stroke-miterlimit="10" fill="none" fill-rule="evenodd"/><path d="M792.012 299.165 792.012 326.098" stroke="#000000" stroke-width="1.33333" stroke-linejoin="round" stroke-miterlimit="10" fill="none" fill-rule="evenodd"/><path d="M826.69 299.165 826.69 326.098" stroke="#000000" stroke-width="1.33333" stroke-linejoin="round" stroke-miterlimit="10" fill="none" fill-rule="evenodd"/><path d="M861.368 299.165 861.368 326.098" stroke="#000000" stroke-width="1.33333" stroke-linejoin="round" stroke-miterlimit="10" fill="none" fill-rule="evenodd"/><path d="M896.046 299.165 896.046 326.098" stroke="#000000" stroke-width="1.33333" stroke-linejoin="round" stroke-miterlimit="10" fill="none" fill-rule="evenodd"/><path d="M930.724 299.165 930.724 326.098" stroke="#000000" stroke-width="1.33333" stroke-linejoin="round" stroke-miterlimit="10" fill="none" fill-rule="evenodd"/><path d="M965.402 299.165 965.402 326.098" stroke="#000000" stroke-width="1.33333" stroke-linejoin="round" stroke-miterlimit="10" fill="none" fill-rule="evenodd"/><path d="M1000.08 299.165 1000.08 326.098" stroke="#000000" stroke-width="1.33333" stroke-linejoin="round" stroke-miterlimit="10" fill="none" fill-rule="evenodd"/><path d="M1034.76 299.165 1034.76 326.098" stroke="#000000" stroke-width="1.33333" stroke-linejoin="round" stroke-miterlimit="10" fill="none" fill-rule="evenodd"/><path d="M1069.44 299.165 1069.44 326.098" stroke="#000000" stroke-width="1.33333" stroke-linejoin="round" stroke-miterlimit="10" fill="none" fill-rule="evenodd"/><path d="M1104.11 299.165 1104.11 326.098" stroke="#000000" stroke-width="1.33333" stroke-linejoin="round" stroke-miterlimit="10" fill="none" fill-rule="evenodd"/><path d="M1138.79 299.165 1138.79 326.098" stroke="#000000" stroke-width="1.33333" stroke-linejoin="round" stroke-miterlimit="10" fill="none" fill-rule="evenodd"/><path d="M1173.47 299.165 1173.47 326.098" stroke="#000000" stroke-width="1.33333" stroke-linejoin="round" stroke-miterlimit="10" fill="none" fill-rule="evenodd"/><path d="M97.7854 325.431 1208.81 325.431" stroke="#000000" stroke-width="1.33333" stroke-linejoin="round" stroke-miterlimit="10" fill="none" fill-rule="evenodd"/><path d="M98.4521 299.165 98.4521 326.098" stroke="#000000" stroke-width="1.33333" stroke-linejoin="round" stroke-miterlimit="10" fill="none" fill-rule="evenodd"/><path d="M1208.15 299.165 1208.15 326.098" stroke="#000000" stroke-width="1.33333" stroke-linejoin="round" stroke-miterlimit="10" fill="none" fill-rule="evenodd"/><path d="M97.7854 299.831 1208.81 299.831" stroke="#000000" stroke-width="1.33333" stroke-linejoin="round" stroke-miterlimit="10" fill="none" fill-rule="evenodd"/><text font-family="Segoe UI,Segoe UI_MSFontService,sans-serif" font-weight="400" font-size="13" transform="translate(112.208 318)">0<tspan x="34.678" y="0">0</tspan><tspan x="69.356" y="0">0</tspan><tspan x="104.034" y="0">0</tspan><tspan x="138.712" y="0">0</tspan><tspan x="173.39" y="0">0</tspan><tspan x="208.068" y="0">0</tspan><tspan x="242.746" y="0">0</tspan><tspan x="277.424" y="0">0</tspan><tspan x="312.102" y="0">0</tspan><tspan x="346.78" y="0">0</tspan><tspan x="381.458" y="0">0</tspan><tspan x="416.136" y="0">0</tspan><tspan x="450.814" y="0">0</tspan><tspan x="485.492" y="0">0</tspan><tspan x="520.17" y="0">0</tspan><tspan x="554.848" y="0">0</tspan><tspan x="589.526" y="0">0</tspan><tspan x="624.204" y="0">0</tspan><tspan x="658.882" y="0">0</tspan><tspan x="693.56" y="0">0</tspan><tspan x="728.238" y="0">0</tspan><tspan x="762.916" y="0">0</tspan><tspan x="797.594" y="0">1</tspan><tspan x="832.272" y="0">0</tspan><tspan x="866.95" y="0">0</tspan><tspan x="901.628" y="0">0</tspan><tspan x="936.306" y="0">1</tspan><tspan x="970.984" y="0">0</tspan><tspan x="1005.66" y="0">0</tspan><tspan x="1040.34" y="0">0</tspan><tspan x="1075.02" y="0">1</tspan><tspan x="-3.58336" y="25">31</tspan><tspan x="31.0947" y="25">30</tspan><tspan x="65.7726" y="25">29</tspan><tspan x="100.451" y="25">28</tspan><tspan x="135.129" y="25">27</tspan><tspan x="169.807" y="25">26</tspan><tspan x="204.485" y="25">25</tspan><tspan x="239.163" y="25">24</tspan><tspan x="273.841" y="25">23</tspan><tspan x="308.519" y="25">22</tspan><tspan x="343.197" y="25">21</tspan><tspan x="377.875" y="25">20</tspan><tspan x="412.553" y="25">19</tspan><tspan x="447.231" y="25">18</tspan><tspan x="481.909" y="25">17</tspan><tspan x="516.587" y="25">16</tspan><tspan x="551.265" y="25">15</tspan><tspan x="585.943" y="25">14</tspan><tspan x="620.621" y="25">13</tspan><tspan x="655.299" y="25">12</tspan><tspan x="689.977" y="25">11</tspan><tspan x="724.655" y="25">10</tspan><tspan x="762.916" y="25">9</tspan><tspan x="797.594" y="25">8</tspan><tspan x="832.272" y="25">7</tspan><tspan x="866.95" y="25">6</tspan><tspan x="901.628" y="25">5</tspan><tspan x="936.306" y="25">4</tspan><tspan x="970.984" y="25">3</tspan><tspan x="1005.66" y="25">2</tspan><tspan x="1040.34" y="25">1</tspan><tspan x="1075.02" y="25">0</tspan></text><path d="M660 361 660 389.048 656 389.049 656 361ZM668 387.048 658 407.048 648 387.049Z" fill="#0878D3"/><path d="M98.4521 472.411 133.13 472.411 133.13 498.011 98.4521 498.011Z" fill="#FFFFFF" fill-rule="evenodd"/><path d="M133.13 472.411 167.808 472.411 167.808 498.011 133.13 498.011Z" fill="#FFFFFF" fill-rule="evenodd"/><path d="M167.808 472.411 202.486 472.411 202.486 498.011 167.808 498.011Z" fill="#FFFFFF" fill-rule="evenodd"/><path d="M202.486 472.411 237.164 472.411 237.164 498.011 202.486 498.011Z" fill="#FFFFFF" fill-rule="evenodd"/><path d="M237.164 472.411 271.842 472.411 271.842 498.011 237.164 498.011Z" fill="#FFFF00" fill-rule="evenodd"/><path d="M271.842 472.411 306.52 472.411 306.52 498.011 271.842 498.011Z" fill="#FFFF00" fill-rule="evenodd"/><path d="M306.52 472.411 341.198 472.411 341.198 498.011 306.52 498.011Z" fill="#FFFF00" fill-rule="evenodd"/><path d="M341.198 472.411 375.876 472.411 375.876 498.011 341.198 498.011Z" fill="#FFFF00" fill-rule="evenodd"/><path d="M375.876 472.411 410.554 472.411 410.554 498.011 375.876 498.011Z" fill="#FFFFFF" fill-rule="evenodd"/><path d="M410.554 472.411 445.232 472.411 445.232 498.011 410.554 498.011Z" fill="#FFFFFF" fill-rule="evenodd"/><path d="M445.232 472.411 479.91 472.411 479.91 498.011 445.232 498.011Z" fill="#FFFFFF" fill-rule="evenodd"/><path d="M479.91 472.411 514.588 472.411 514.588 498.011 479.91 498.011Z" fill="#FFFFFF" fill-rule="evenodd"/><path d="M514.588 472.411 549.266 472.411 549.266 498.011 514.588 498.011Z" fill="#FFFF00" fill-rule="evenodd"/><path d="M549.266 472.411 583.944 472.411 583.944 498.011 549.266 498.011Z" fill="#FFFF00" fill-rule="evenodd"/><path d="M583.944 472.411 618.622 472.411 618.622 498.011 583.944 498.011Z" fill="#FFFF00" fill-rule="evenodd"/><path d="M618.622 472.411 653.3 472.411 653.3 498.011 618.622 498.011Z" fill="#FFFF00" fill-rule="evenodd"/><path d="M653.3 472.411 687.978 472.411 687.978 498.011 653.3 498.011Z" fill="#FFFFFF" fill-rule="evenodd"/><path d="M687.978 472.411 722.656 472.411 722.656 498.011 687.978 498.011Z" fill="#FFFFFF" fill-rule="evenodd"/><path d="M722.656 472.411 757.334 472.411 757.334 498.011 722.656 498.011Z" fill="#FFFFFF" fill-rule="evenodd"/><path d="M792.012 472.411 826.69 472.411 826.69 498.011 792.012 498.011Z" fill="#FFFF00" fill-rule="evenodd"/><path d="M826.69 472.411 861.368 472.411 861.368 498.011 826.69 498.011Z" fill="#FFFF00" fill-rule="evenodd"/><path d="M861.368 472.411 896.046 472.411 896.046 498.011 861.368 498.011Z" fill="#FFFF00" fill-rule="evenodd"/><path d="M896.046 472.411 930.724 472.411 930.724 498.011 896.046 498.011Z" fill="#FFFF00" fill-rule="evenodd"/><path d="M1069.44 472.411 1104.11 472.411 1104.11 498.011 1069.44 498.011Z" fill="#FFFF00" fill-rule="evenodd"/><path d="M1104.11 472.411 1138.79 472.411 1138.79 498.011 1104.11 498.011Z" fill="#FFFF00" fill-rule="evenodd"/><path d="M1138.79 472.411 1173.47 472.411 1173.47 498.011 1138.79 498.011Z" fill="#FFFF00" fill-rule="evenodd"/><path d="M1173.47 472.411 1208.15 472.411 1208.15 498.011 1173.47 498.011Z" fill="#FFFF00" fill-rule="evenodd"/><path d="M98.4521 498.011 133.13 498.011 133.13 523.611 98.4521 523.611Z" fill="#FFFFFF" fill-rule="evenodd"/><path d="M133.13 498.011 167.808 498.011 167.808 523.611 133.13 523.611Z" fill="#FFFFFF" fill-rule="evenodd"/><path d="M167.808 498.011 202.486 498.011 202.486 523.611 167.808 523.611Z" fill="#FFFFFF" fill-rule="evenodd"/><path d="M202.486 498.011 237.164 498.011 237.164 523.611 202.486 523.611Z" fill="#FFFFFF" fill-rule="evenodd"/><path d="M237.164 498.011 271.842 498.011 271.842 523.611 237.164 523.611Z" fill="#FFFFFF" fill-rule="evenodd"/><path d="M271.842 498.011 306.52 498.011 306.52 523.611 271.842 523.611Z" fill="#FFFFFF" fill-rule="evenodd"/><path d="M306.52 498.011 341.198 498.011 341.198 523.611 306.52 523.611Z" fill="#FFFFFF" fill-rule="evenodd"/><path d="M341.198 498.011 375.876 498.011 375.876 523.611 341.198 523.611Z" fill="#FFFFFF" fill-rule="evenodd"/><path d="M375.876 498.011 410.554 498.011 410.554 523.611 375.876 523.611Z" fill="#FFFFFF" fill-rule="evenodd"/><path d="M410.554 498.011 445.232 498.011 445.232 523.611 410.554 523.611Z" fill="#FFFFFF" fill-rule="evenodd"/><path d="M445.232 498.011 479.91 498.011 479.91 523.611 445.232 523.611Z" fill="#FFFFFF" fill-rule="evenodd"/><path d="M479.91 498.011 514.588 498.011 514.588 523.611 479.91 523.611Z" fill="#FFFFFF" fill-rule="evenodd"/><path d="M514.588 498.011 549.266 498.011 549.266 523.611 514.588 523.611Z" fill="#FFFFFF" fill-rule="evenodd"/><path d="M549.266 498.011 583.944 498.011 583.944 523.611 549.266 523.611Z" fill="#FFFFFF" fill-rule="evenodd"/><path d="M583.944 498.011 618.622 498.011 618.622 523.611 583.944 523.611Z" fill="#FFFFFF" fill-rule="evenodd"/><path d="M618.622 498.011 653.3 498.011 653.3 523.611 618.622 523.611Z" fill="#FFFFFF" fill-rule="evenodd"/><path d="M653.3 498.011 687.978 498.011 687.978 523.611 653.3 523.611Z" fill="#FFFFFF" fill-rule="evenodd"/><path d="M687.978 498.011 722.656 498.011 722.656 523.611 687.978 523.611Z" fill="#FFFFFF" fill-rule="evenodd"/><path d="M722.656 498.011 757.334 498.011 757.334 523.611 722.656 523.611Z" fill="#FFFFFF" fill-rule="evenodd"/><path d="M757.334 498.011 792.012 498.011 792.012 523.611 757.334 523.611Z" fill="#FFFFFF" fill-rule="evenodd"/><path d="M792.012 498.011 826.69 498.011 826.69 523.611 792.012 523.611Z" fill="#FFFFFF" fill-rule="evenodd"/><path d="M826.69 498.011 861.368 498.011 861.368 523.611 826.69 523.611Z" fill="#FFFFFF" fill-rule="evenodd"/><path d="M861.368 498.011 896.046 498.011 896.046 523.611 861.368 523.611Z" fill="#FFFFFF" fill-rule="evenodd"/><path d="M896.046 498.011 930.724 498.011 930.724 523.611 896.046 523.611Z" fill="#FFFFFF" fill-rule="evenodd"/><path d="M930.724 498.011 965.402 498.011 965.402 523.611 930.724 523.611Z" fill="#FFFFFF" fill-rule="evenodd"/><path d="M965.402 498.011 1000.08 498.011 1000.08 523.611 965.402 523.611Z" fill="#FFFFFF" fill-rule="evenodd"/><path d="M1000.08 498.011 1034.76 498.011 1034.76 523.611 1000.08 523.611Z" fill="#FFFFFF" fill-rule="evenodd"/><path d="M1034.76 498.011 1069.44 498.011 1069.44 523.611 1034.76 523.611Z" fill="#FFFFFF" fill-rule="evenodd"/><path d="M1069.44 498.011 1104.11 498.011 1104.11 523.611 1069.44 523.611Z" fill="#FFFFFF" fill-rule="evenodd"/><path d="M1104.11 498.011 1138.79 498.011 1138.79 523.611 1104.11 523.611Z" fill="#FFFFFF" fill-rule="evenodd"/><path d="M1138.79 498.011 1173.47 498.011 1173.47 523.611 1138.79 523.611Z" fill="#FFFFFF" fill-rule="evenodd"/><path d="M1173.47 498.011 1208.15 498.011 1208.15 523.611 1173.47 523.611Z" fill="#FFFFFF" fill-rule="evenodd"/><path d="M133.13 471.745 133.13 498.678" stroke="#000000" stroke-width="1.33333" stroke-linejoin="round" stroke-miterlimit="10" fill="none" fill-rule="evenodd"/><path d="M167.808 471.745 167.808 498.678" stroke="#000000" stroke-width="1.33333" stroke-linejoin="round" stroke-miterlimit="10" fill="none" fill-rule="evenodd"/><path d="M202.486 471.745 202.486 498.678" stroke="#000000" stroke-width="1.33333" stroke-linejoin="round" stroke-miterlimit="10" fill="none" fill-rule="evenodd"/><path d="M237.164 471.745 237.164 498.678" stroke="#000000" stroke-width="1.33333" stroke-linejoin="round" stroke-miterlimit="10" fill="none" fill-rule="evenodd"/><path d="M271.842 471.745 271.842 498.678" stroke="#000000" stroke-width="1.33333" stroke-linejoin="round" stroke-miterlimit="10" fill="none" fill-rule="evenodd"/><path d="M306.52 471.745 306.52 498.678" stroke="#000000" stroke-width="1.33333" stroke-linejoin="round" stroke-miterlimit="10" fill="none" fill-rule="evenodd"/><path d="M341.198 471.745 341.198 498.678" stroke="#000000" stroke-width="1.33333" stroke-linejoin="round" stroke-miterlimit="10" fill="none" fill-rule="evenodd"/><path d="M375.876 471.745 375.876 498.678" stroke="#000000" stroke-width="1.33333" stroke-linejoin="round" stroke-miterlimit="10" fill="none" fill-rule="evenodd"/><path d="M410.554 471.745 410.554 498.678" stroke="#000000" stroke-width="1.33333" stroke-linejoin="round" stroke-miterlimit="10" fill="none" fill-rule="evenodd"/><path d="M445.232 471.745 445.232 498.678" stroke="#000000" stroke-width="1.33333" stroke-linejoin="round" stroke-miterlimit="10" fill="none" fill-rule="evenodd"/><path d="M479.91 471.745 479.91 498.678" stroke="#000000" stroke-width="1.33333" stroke-linejoin="round" stroke-miterlimit="10" fill="none" fill-rule="evenodd"/><path d="M514.588 471.745 514.588 498.678" stroke="#000000" stroke-width="1.33333" stroke-linejoin="round" stroke-miterlimit="10" fill="none" fill-rule="evenodd"/><path d="M549.266 471.745 549.266 498.678" stroke="#000000" stroke-width="1.33333" stroke-linejoin="round" stroke-miterlimit="10" fill="none" fill-rule="evenodd"/><path d="M583.944 471.745 583.944 498.678" stroke="#000000" stroke-width="1.33333" stroke-linejoin="round" stroke-miterlimit="10" fill="none" fill-rule="evenodd"/><path d="M618.622 471.745 618.622 498.678" stroke="#000000" stroke-width="1.33333" stroke-linejoin="round" stroke-miterlimit="10" fill="none" fill-rule="evenodd"/><path d="M653.3 471.745 653.3 498.678" stroke="#000000" stroke-width="1.33333" stroke-linejoin="round" stroke-miterlimit="10" fill="none" fill-rule="evenodd"/><path d="M687.978 471.745 687.978 498.678" stroke="#000000" stroke-width="1.33333" stroke-linejoin="round" stroke-miterlimit="10" fill="none" fill-rule="evenodd"/><path d="M722.656 471.745 722.656 498.678" stroke="#000000" stroke-width="1.33333" stroke-linejoin="round" stroke-miterlimit="10" fill="none" fill-rule="evenodd"/><path d="M757.334 471.745 757.334 498.678" stroke="#000000" stroke-width="1.33333" stroke-linejoin="round" stroke-miterlimit="10" fill="none" fill-rule="evenodd"/><path d="M792.012 471.745 792.012 498.678" stroke="#000000" stroke-width="1.33333" stroke-linejoin="round" stroke-miterlimit="10" fill="none" fill-rule="evenodd"/><path d="M826.69 471.745 826.69 498.678" stroke="#000000" stroke-width="1.33333" stroke-linejoin="round" stroke-miterlimit="10" fill="none" fill-rule="evenodd"/><path d="M861.368 471.745 861.368 498.678" stroke="#000000" stroke-width="1.33333" stroke-linejoin="round" stroke-miterlimit="10" fill="none" fill-rule="evenodd"/><path d="M896.046 470.411 896.046 525.611" stroke="#FF0000" stroke-width="4" stroke-linejoin="round" stroke-miterlimit="10" fill="none" fill-rule="evenodd"/><path d="M930.724 470.411 930.724 525.611" stroke="#FF0000" stroke-width="4" stroke-linejoin="round" stroke-miterlimit="10" fill="none" fill-rule="evenodd"/><path d="M965.402 471.745 965.402 498.678" stroke="#000000" stroke-width="1.33333" stroke-linejoin="round" stroke-miterlimit="10" fill="none" fill-rule="evenodd"/><path d="M1000.08 471.745 1000.08 498.678" stroke="#000000" stroke-width="1.33333" stroke-linejoin="round" stroke-miterlimit="10" fill="none" fill-rule="evenodd"/><path d="M1034.76 471.745 1034.76 498.678" stroke="#000000" stroke-width="1.33333" stroke-linejoin="round" stroke-miterlimit="10" fill="none" fill-rule="evenodd"/><path d="M1069.44 471.745 1069.44 498.678" stroke="#000000" stroke-width="1.33333" stroke-linejoin="round" stroke-miterlimit="10" fill="none" fill-rule="evenodd"/><path d="M1104.11 471.745 1104.11 498.678" stroke="#000000" stroke-width="1.33333" stroke-linejoin="round" stroke-miterlimit="10" fill="none" fill-rule="evenodd"/><path d="M1138.79 471.745 1138.79 498.678" stroke="#000000" stroke-width="1.33333" stroke-linejoin="round" stroke-miterlimit="10" fill="none" fill-rule="evenodd"/><path d="M1173.47 471.745 1173.47 498.678" stroke="#000000" stroke-width="1.33333" stroke-linejoin="round" stroke-miterlimit="10" fill="none" fill-rule="evenodd"/><path d="M97.7854 498.011 1208.81 498.011" stroke="#000000" stroke-width="1.33333" stroke-linejoin="round" stroke-miterlimit="10" fill="none" fill-rule="evenodd"/><path d="M98.4521 471.745 98.4521 498.678" stroke="#000000" stroke-width="1.33333" stroke-linejoin="round" stroke-miterlimit="10" fill="none" fill-rule="evenodd"/><path d="M1208.15 471.745 1208.15 498.678" stroke="#000000" stroke-width="1.33333" stroke-linejoin="round" stroke-miterlimit="10" fill="none" fill-rule="evenodd"/><path d="M97.7854 472.411 894.046 472.411" stroke="#000000" stroke-width="1.33333" stroke-linejoin="round" stroke-miterlimit="10" fill="none" fill-rule="evenodd"/><path d="M894.046 472.411 932.724 472.411" stroke="#FF0000" stroke-width="4" stroke-linejoin="round" stroke-miterlimit="10" fill="none" fill-rule="evenodd"/><path d="M932.724 472.411 1208.81 472.411" stroke="#000000" stroke-width="1.33333" stroke-linejoin="round" stroke-miterlimit="10" fill="none" fill-rule="evenodd"/><path d="M894.046 523.611 932.724 523.611" stroke="#FF0000" stroke-width="4" stroke-linejoin="round" stroke-miterlimit="10" fill="none" fill-rule="evenodd"/><text font-family="Segoe UI,Segoe UI_MSFontService,sans-serif" font-weight="400" font-size="13" transform="translate(112.208 490)">0<tspan x="34.678" y="0">0</tspan><tspan x="69.356" y="0">0</tspan><tspan x="104.034" y="0">0</tspan><tspan x="138.712" y="0">0</tspan><tspan x="173.39" y="0">0</tspan><tspan x="208.068" y="0">0</tspan><tspan x="242.746" y="0">0</tspan><tspan x="277.424" y="0">0</tspan><tspan x="312.102" y="0">0</tspan><tspan x="346.78" y="0">0</tspan><tspan x="381.458" y="0">0</tspan><tspan x="416.136" y="0">0</tspan><tspan x="450.814" y="0">0</tspan><tspan x="485.492" y="0">0</tspan><tspan x="520.17" y="0">0</tspan><tspan x="554.848" y="0">0</tspan><tspan x="589.526" y="0">0</tspan><tspan x="624.204" y="0">0</tspan><tspan x="658.882" y="0">0</tspan><tspan x="693.56" y="0">0</tspan><tspan x="728.238" y="0">0</tspan><tspan x="762.916" y="0">0</tspan><tspan x="797.594" y="0">1</tspan><tspan x="832.272" y="0">0</tspan><tspan x="866.95" y="0">0</tspan><tspan x="901.628" y="0">0</tspan><tspan x="936.306" y="0">0</tspan><tspan x="970.984" y="0">0</tspan><tspan x="1005.66" y="0">0</tspan><tspan x="1040.34" y="0">0</tspan><tspan x="1075.02" y="0">0</tspan><tspan x="-3.58336" y="26">31</tspan><tspan x="31.0947" y="26">30</tspan><tspan x="65.7726" y="26">29</tspan><tspan x="100.451" y="26">28</tspan><tspan x="135.129" y="26">27</tspan><tspan x="169.807" y="26">26</tspan><tspan x="204.485" y="26">25</tspan><tspan x="239.163" y="26">24</tspan><tspan x="273.841" y="26">23</tspan><tspan x="308.519" y="26">22</tspan><tspan x="343.197" y="26">21</tspan><tspan x="377.875" y="26">20</tspan><tspan x="412.553" y="26">19</tspan><tspan x="447.231" y="26">18</tspan><tspan x="481.909" y="26">17</tspan><tspan x="516.587" y="26">16</tspan><tspan x="551.265" y="26">15</tspan><tspan x="585.943" y="26">14</tspan><tspan x="620.621" y="26">13</tspan><tspan x="655.299" y="26">12</tspan><tspan x="689.977" y="26">11</tspan><tspan x="724.655" y="26">10</tspan><tspan x="762.916" y="26">9</tspan><tspan x="797.594" y="26">8</tspan><tspan x="832.272" y="26">7</tspan><tspan x="866.95" y="26">6</tspan><tspan x="901.628" y="26">5</tspan><tspan x="936.306" y="26">4</tspan><tspan x="970.984" y="26">3</tspan><tspan x="1005.66" y="26">2</tspan><tspan x="1040.34" y="26">1</tspan><tspan x="1075.02" y="26">0</tspan><tspan font-size="19" x="-4.15565" y="-297">Current event flags group</tspan><tspan font-size="19" x="666.343" y="-297">Corresponding hexadecimal value:</tspan><tspan font-size="19" x="991.732" y="-297">0x00000F0C</tspan><tspan font-size="19" x="-4.15565" y="-202">Specified event flags group (</tspan><tspan fill="#0878D3" font-size="19" x="231.324" y="-202">flags_to_set</tspan><tspan font-size="19" x="326.844" y="-202">):</tspan><tspan font-size="19" x="663.816" y="-202">Corresponding hexadecimal value:</tspan><tspan font-size="19" x="989.879" y="-202">0x00000111</tspan><tspan font-size="19" x="-4.15565" y="-30">Result of </tspan><tspan fill="#0878D3" font-size="19" x="72.4844" y="-30">TX_AND</tspan><tspan font-size="19" x="140.098" y="-30">:</tspan><tspan font-size="19" x="663.815" y="-30">Corresponding hexadecimal value:</tspan><tspan font-size="19" x="989.878" y="-30">0x00000100</tspan><tspan font-size="19" x="411.259" y="-61">New value of event flags group</tspan></text></g></svg>