<?xml version="1.0" encoding="UTF-8"?>
<svg width="100px" height="100px" viewBox="0 0 100 100" version="1.1" xmlns="http://www.w3.org/2000/svg" xmlns:xlink="http://www.w3.org/1999/xlink">
    <!-- Generator: Sketch 58 (84663) - https://sketch.com -->
    <title>NA/creating-and-configuring-a-hdinsight-cluster</title>
    <desc>Created with Sketch.</desc>
    <defs>
        <rect id="path-1" x="0" y="0" width="96" height="96" rx="48"></rect>
        <filter x="-5.6%" y="-7.3%" width="111.3%" height="114.5%" filterUnits="objectBoundingBox" id="filter-3">
            <feOffset dx="0" dy="2" in="SourceAlpha" result="shadowOffsetOuter1"></feOffset>
            <feColorMatrix values="0 0 0 0 0   0 0 0 0 0   0 0 0 0 0  0 0 0 0.10033326 0" type="matrix" in="shadowOffsetOuter1" result="shadowMatrixOuter1"></feColorMatrix>
            <feMerge>
                <feMergeNode in="shadowMatrixOuter1"></feMergeNode>
                <feMergeNode in="SourceGraphic"></feMergeNode>
            </feMerge>
        </filter>
    </defs>
    <g id="Badges" stroke="none" stroke-width="1" fill="none" fill-rule="evenodd">
        <g id="N/A-52" transform="translate(-50.000000, -660.000000)">
            <g id="NA/creating-and-configuring-a-hdinsight-cluster" transform="translate(50.000000, 660.000000)">
                <g id="Mask" transform="translate(2.000000, 2.000000)">
                    <mask id="mask-2" fill="white">
                        <use xlink:href="#path-1"></use>
                    </mask>
                    <use id="BG" fill="#55A2FF" xlink:href="#path-1"></use>
                    <g id="HD-Insight" filter="url(#filter-3)" mask="url(#mask-2)">
                        <g transform="translate(16.463203, 21.500000)">
                            <polygon id="Path" fill="#F7CB64" fill-rule="evenodd" points="24.02403 12.5707134 19.1354193 13.408761 14.8055069 15.3642053 11.0342929 17.7386733 7.40275344 22.0685857 5.44730914 24.1637046 3.49186483 24.8620776 2.93316646 23.6050063 3.91088861 22.3479349 4.0505632 20.5321652 4.74893617 20.5321652 5.30763454 21.0908636 5.16795995 19.2750939 4.46958698 18.7163955 4.46958698 18.0180225 2.79349186 18.9957447 1.11739675 20.8115144 0.838047559 22.4876095 1.53642053 23.8843554 2.0951189 26.1191489 3.35219024 26.6778473 4.74893617 26.6778473 6.00600751 25.8397997 5.16795995 30.1697121 6.00600751 34.9186483 5.02828536 37.1534418 2.0951189 40.3659574 2.51414268 42.4610763 4.0505632 44.6958698 6.70438048 46.5116395 8.240801 46.7909887 9.77722153 46.7909887 8.79949937 50.9812265 12.4310388 52.5176471 17.0403004 53.0763454 18.5767209 51.9589487 18.7163955 49.3051314 20.5321652 46.371965 20.6718398 43.9974969 24.8620776 44.4165207 28.7729662 43.9974969 24.8620776 46.371965 25.5604506 49.1654568 27.9349186 53.0763454 30.4490613 54.0540676 32.264831 53.3556946 33.1028786 51.6795995 37.1534418 48.6067584 37.9914894 49.3051314 44.2768461 49.5844806 45.5339174 48.4670839 45.673592 46.6513141 45.2545682 45.9529412 44.975219 41.0643304 42.8801001 36.8740926 43.1594493 34.9186483 44.4165207 35.6170213 48.0480601 38.9692115 49.7241552 39.1088861 51.6795995 38.2708385 53.6350438 36.8740926 54.612766 33.661577 60.1997497 34.0806008 63.6916145 32.6838548 66.4851064 30.1697121 68.4405507 26.3984981 68.9992491 21.9289111 68.5802253 16.9006258 67.4628285 12.2913642 66.3454318 10.7549437 64.8090113 10.3359199 62.155194 13.2690864 59.7807259 14.1071339 57.685607 10.6152691 55.5904881 8.65982478 54.3334168 7.96145181 49.8638298 4.0505632 46.0926158 2.0951189 42.4610763 1.81576971 38.131164 2.51414268 34.3599499 3.91088861 31.8458073 6.00600751 29.7506884 8.52015019 27.6555695 9.07884856"></polygon>
                            <polygon id="Path" fill="#1E1E1E" fill-rule="evenodd" points="5.16795995 22.0685857 5.72665832 22.7669587 5.86633292 21.9289111 5.44730914 21.9289111"></polygon>
                            <path d="M69.4182728,16.6212766 C69.1389237,14.5261577 68.5802253,12.4310388 67.7421777,11.0342929 C67.6025031,10.8946183 67.4628285,10.6152691 67.3231539,10.4755945 C66.9041302,10.0565707 66.3454318,9.77722153 65.7867334,9.49787234 C65.228035,9.21852315 64.5296621,9.21852315 63.9709637,9.49787234 C63.8312891,9.63754693 63.6916145,9.63754693 63.5519399,9.77722153 C63.2725907,10.0565707 62.9932416,10.4755945 62.7138924,10.8946183 C62.4345432,11.3136421 62.0155194,11.8723404 61.7361702,12.1516896 C61.3171464,12.5707134 60.7584481,12.710388 60.1997497,12.9897372 C59.9204005,12.4310388 59.7807259,11.8723404 59.3617021,11.4533166 C58.9426783,10.8946183 58.6633292,10.3359199 58.1046308,9.77722153 C57.685607,9.35819775 57.4062578,9.07884856 56.987234,8.65982478 C56.5682103,8.38047559 56.1491865,8.10112641 55.7301627,7.82177722 C54.4730914,6.98372966 53.4953692,6.1456821 52.3779725,5.16795995 C51.9589487,4.74893617 51.4002503,4.32991239 50.9812265,3.91088861 C48.4670839,1.81576971 46.0926158,0.838047559 43.5784731,0.698372966 C41.0643304,0.558698373 38.4105131,1.25707134 35.1979975,2.51414268 C33.661577,3.21251564 32.5441802,3.91088861 31.5664581,4.74893617 C30.5887359,5.58698373 29.890363,6.56470588 28.9126408,7.82177722 C28.3539424,7.82177722 27.9349186,7.96145181 27.5158949,8.10112641 C26.9571965,8.240801 26.5381727,8.65982478 25.8397997,9.21852315 C25.420776,9.63754693 25.0017522,10.0565707 24.5827284,10.3359199 L24.5827284,10.3359199 C24.1637046,10.7549437 23.8843554,11.0342929 23.4653317,11.4533166 C20.5321652,11.8723404 18.2973717,12.4310388 16.2022528,13.2690864 C14.1071339,14.1071339 12.1516896,15.2245307 10.1962453,16.9006258 C9.35819775,17.5989987 8.65982478,18.2973717 8.10112641,19.1354193 C7.54242804,19.9734668 6.98372966,20.6718398 6.56470588,21.5098874 C6.1456821,21.9289111 5.72665832,22.3479349 5.30763454,22.7669587 C4.88861076,23.1859825 4.46958698,23.4653317 3.91088861,23.6050063 L3.91088861,23.6050063 C3.63153942,23.7446809 3.49186483,23.7446809 3.49186483,23.7446809 C3.49186483,23.7446809 3.49186483,23.6050063 3.49186483,23.6050063 C4.1902378,22.9066333 4.32991239,21.9289111 4.32991239,20.951189 C4.46958698,21.0908636 4.46958698,21.2305382 4.60926158,21.3702128 C4.74893617,21.5098874 4.74893617,21.649562 4.88861076,21.7892365 L5.16795995,21.5098874 L5.58698373,21.649562 C5.72665832,20.951189 5.86633292,20.252816 5.72665832,19.4147685 C5.58698373,18.9957447 5.44730914,18.5767209 5.02828536,18.2973717 C5.02828536,18.1576971 5.16795995,18.1576971 5.16795995,18.0180225 C5.30763454,17.7386733 5.44730914,17.4593242 5.44730914,17.0403004 L5.16795995,16.9006258 L5.16795995,16.9006258 L5.44730914,17.0403004 L5.86633292,16.7609512 L5.30763454,16.9006258 C4.46958698,17.0403004 2.79349186,18.0180225 1.53642053,19.2750939 C1.11739675,19.6941176 0.698372966,20.252816 0.41902378,20.8115144 C0,21.5098874 0,22.0685857 0,22.6272841 C0.139674593,23.1859825 0.41902378,23.6050063 0.838047559,24.1637046 C0.977722153,24.5827284 0.977722153,24.8620776 1.11739675,25.1414268 C1.25707134,25.420776 1.39674593,25.7001252 1.39674593,25.9794743 C1.81576971,26.6778473 2.37446809,27.2365457 2.93316646,27.3762203 C3.49186483,27.5158949 4.0505632,27.5158949 4.60926158,27.3762203 C4.46958698,28.0745932 4.46958698,28.7729662 4.32991239,29.4713392 C4.32991239,30.4490613 4.32991239,31.5664581 4.46958698,32.8235294 C4.46958698,33.1028786 4.46958698,33.3822278 4.60926158,33.661577 C4.60926158,33.9409262 4.74893617,34.2202753 4.74893617,34.4996245 C4.60926158,34.7789737 4.46958698,35.0583229 4.46958698,35.3376721 C4.32991239,35.7566959 4.1902378,36.3153942 3.91088861,36.734418 C3.49186483,37.1534418 3.21251564,37.432791 2.79349186,37.8518148 C2.51414268,38.131164 2.0951189,38.5501877 1.81576971,38.8295369 C1.81576971,38.8295369 1.67609512,38.9692115 1.53642053,39.1088861 C0.838047559,39.8072591 0.698372966,39.9469337 0.838047559,41.0643304 C0.977722153,41.7627034 1.25707134,42.4610763 1.53642053,43.2991239 C1.81576971,43.9974969 2.37446809,44.5561952 2.93316646,45.2545682 C3.91088861,46.0926158 5.16795995,46.9306633 6.42503129,47.4893617 C7.12340426,47.7687109 7.96145181,47.9083855 8.65982478,47.7687109 C8.65982478,47.9083855 8.65982478,48.0480601 8.52015019,48.0480601 C8.38047559,48.3274093 8.240801,48.6067584 8.10112641,49.0257822 C7.26307885,50.9812265 8.10112641,51.9589487 9.49787234,52.5176471 C10.1962453,52.7969962 11.0342929,53.0763454 11.7326658,53.21602 C11.8723404,53.21602 12.012015,53.3556946 12.2913642,53.3556946 C13.1294118,53.6350438 14.8055069,54.0540676 16.2022528,54.1937422 C17.7386733,54.3334168 19.1354193,53.914393 19.5544431,52.5176471 C19.6941176,51.9589487 19.8337922,51.5399249 19.8337922,51.1209011 C19.8337922,50.7018773 19.8337922,50.2828536 19.8337922,49.8638298 C20.252816,48.8861076 20.5321652,48.6067584 20.8115144,48.1877347 C20.8115144,48.0480601 20.951189,48.0480601 20.951189,47.9083855 C21.2305382,47.3496871 21.5098874,47.0703379 21.5098874,46.6513141 C21.5098874,46.2322904 21.5098874,45.8132666 21.5098874,45.2545682 C21.5098874,45.2545682 21.5098874,45.1148936 21.5098874,44.975219 C22.3479349,45.1148936 23.3256571,45.1148936 24.1637046,45.1148936 C24.5827284,45.1148936 25.0017522,45.1148936 25.5604506,45.1148936 C25.420776,45.1148936 25.2811014,45.2545682 25.1414268,45.2545682 C25.1414268,45.2545682 25.0017522,45.2545682 25.0017522,45.3942428 C23.7446809,45.9529412 23.7446809,47.2100125 24.1637046,48.3274093 C24.4430538,49.444806 25.1414268,50.5622028 25.7001252,51.1209011 C26.6778473,52.5176471 27.5158949,53.7747184 28.493617,54.3334168 C29.6110138,55.0317897 30.8680851,55.0317897 32.5441802,54.1937422 C33.3822278,53.7747184 33.661577,53.21602 33.9409262,52.6573217 C34.0806008,52.5176471 34.2202753,52.2382979 34.3599499,52.0986233 C34.6392991,51.8192741 35.4773467,51.1209011 36.4550688,50.4225282 C36.734418,50.143179 37.0137672,50.0035044 37.432791,49.7241552 C37.7121402,49.8638298 37.8518148,50.0035044 38.2708385,50.143179 C38.6898623,50.2828536 39.2485607,50.2828536 39.8072591,50.2828536 C40.2262829,50.2828536 41.7627034,50.2828536 42.7404255,50.2828536 C43.0197747,50.2828536 43.2991239,50.2828536 43.4387985,50.2828536 C44.4165207,50.2828536 45.2545682,50.2828536 45.8132666,49.8638298 C46.5116395,49.444806 46.7909887,48.8861076 46.9306633,47.7687109 C46.9306633,47.2100125 46.9306633,46.9306633 46.9306633,46.6513141 C46.9306633,46.371965 46.7909887,46.0926158 46.5116395,45.673592 C46.5116395,45.1148936 46.5116395,44.6958698 46.5116395,44.1371715 C46.5116395,43.5784731 46.5116395,43.0197747 46.5116395,42.6007509 C46.5116395,42.0420526 46.371965,41.4833542 46.2322904,40.9246558 C46.0926158,40.3659574 45.9529412,39.9469337 45.673592,39.3882353 C45.5339174,38.9692115 45.3942428,38.6898623 45.2545682,38.2708385 L44.975219,38.4105131 L44.975219,38.4105131 L45.2545682,38.2708385 L45.2545682,38.2708385 C45.1148936,37.7121402 44.8355444,37.1534418 44.5561952,36.5947434 C44.5561952,36.4550688 44.5561952,36.3153942 44.5561952,36.1757196 C44.6958698,36.3153942 44.975219,36.5947434 45.1148936,36.734418 L45.9529412,37.5724656 C46.5116395,38.131164 47.0703379,38.6898623 47.7687109,39.1088861 C48.4670839,39.5279099 49.1654568,39.8072591 50.143179,39.6675845 C51.1209011,39.6675845 52.2382979,39.2485607 53.21602,38.5501877 C54.0540676,37.8518148 54.7524406,37.0137672 55.1714643,36.0360451 C55.3111389,35.7566959 55.3111389,35.4773467 55.4508135,35.1979975 C55.4508135,34.9186483 55.5904881,34.7789737 55.5904881,34.4996245 C56.987234,34.7789737 58.6633292,34.7789737 60.0600751,34.6392991 C61.456821,34.4996245 62.9932416,34.0806008 64.1106383,33.5219024 C65.926408,32.5441802 67.1834793,31.1474343 68.1612015,29.4713392 L68.1612015,29.4713392 C69.2785982,27.6555695 69.8372966,25.420776 70.1166458,23.1859825 C69.9769712,21.5098874 69.8372966,18.9957447 69.4182728,16.6212766 Z M48.4670839,33.5219024 C48.0480601,34.9186483 47.3496871,37.2931164 49.3051314,37.7121402 C50.0035044,37.8518148 50.4225282,37.8518148 51.4002503,37.2931164 C50.5622028,37.432791 50.143179,37.432791 49.5844806,37.2931164 C49.0257822,37.1534418 48.746433,36.8740926 48.6067584,36.4550688 C48.746433,36.5947434 49.0257822,36.5947434 49.5844806,36.734418 C50.9812265,37.0137672 52.3779725,36.4550688 52.6573217,35.3376721 C52.7969962,34.7789737 52.7969962,34.4996245 53.0763454,33.661577 C53.3556946,33.8012516 53.6350438,33.8012516 54.0540676,33.9409262 C53.914393,34.4996245 53.6350438,35.0583229 53.4953692,35.7566959 C53.0763454,37.2931164 51.2605757,38.5501877 49.5844806,38.4105131 C48.0480601,38.4105131 47.2100125,37.432791 46.0926158,36.5947434 C45.3942428,36.0360451 44.6958698,35.3376721 43.9974969,34.7789737 C42.1817272,34.2202753 40.6453066,33.5219024 38.9692115,32.264831 C40.2262829,33.661577 41.0643304,34.4996245 42.7404255,35.1979975 C42.4610763,37.7121402 41.6230288,39.5279099 40.9246558,41.902378 C40.6453066,43.0197747 37.9914894,47.3496871 37.1534418,47.7687109 C36.5947434,48.0480601 33.3822278,50.8415519 32.6838548,51.2605757 C32.264831,51.8192741 31.8458073,52.6573217 31.1474343,53.0763454 C29.0523154,54.1937422 27.6555695,52.0986233 26.5381727,50.2828536 C25.9794743,49.444806 24.5827284,47.0703379 25.8397997,46.371965 C26.9571965,45.8132666 27.6555695,45.2545682 28.9126408,44.5561952 C29.0523154,44.8355444 29.3316646,45.2545682 29.6110138,45.5339174 C29.6110138,45.1148936 29.4713392,44.8355444 29.4713392,44.4165207 C29.3316646,43.7181477 29.3316646,43.2991239 29.4713392,42.6007509 C29.4713392,42.0420526 29.6110138,41.3436796 29.6110138,40.7849812 C29.4713392,41.4833542 29.0523154,42.0420526 28.9126408,42.7404255 C28.7729662,43.0197747 28.7729662,43.1594493 28.7729662,43.4387985 C26.1191489,43.9974969 23.3256571,43.9974969 20.6718398,43.5784731 C20.5321652,42.6007509 20.252816,41.4833542 20.1131414,40.7849812 C20.1131414,41.6230288 20.1131414,43.9974969 20.1131414,45.2545682 C20.1131414,46.2322904 20.1131414,46.6513141 19.5544431,47.4893617 C19.1354193,48.3274093 18.8560701,48.4670839 18.1576971,49.8638298 C18.1576971,50.7018773 18.1576971,51.2605757 18.0180225,52.0986233 C17.5989987,53.4953692 13.8277847,52.3779725 12.8500626,52.0986233 C11.5929912,51.8192741 9.07884856,51.2605757 9.63754693,49.5844806 C10.1962453,48.1877347 10.6152691,46.6513141 10.8946183,44.5561952 C8.65982478,41.3436796 6.56470588,36.8740926 6.1456821,32.8235294 C5.86633292,29.7506884 6.00600751,27.7952441 6.70438048,25.9794743 C7.82177722,23.0463079 9.21852315,20.3924906 11.5929912,18.2973717 C14.8055069,15.5038798 17.7386733,14.3864831 22.4876095,13.6881101 C21.3702128,14.9451815 20.252816,16.3419274 18.9957447,17.7386733 C17.7386733,19.1354193 17.0403004,20.6718398 16.2022528,22.2082603 C15.0848561,24.4430538 15.0848561,25.2811014 16.6212766,27.0968711 C17.8783479,28.7729662 18.5767209,29.4713392 18.9957447,31.1474343 C18.5767209,32.1251564 18.4370463,32.8235294 18.2973717,34.0806008 C19.8337922,35.7566959 20.951189,36.8740926 22.3479349,37.1534418 C23.7446809,37.432791 25.0017522,37.432791 26.2588235,36.734418 C29.0523154,35.3376721 31.7061327,33.3822278 34.9186483,33.2425532 C36.4550688,29.6110138 36.3153942,26.5381727 35.4773467,22.9066333 C35.0583229,20.5321652 34.7789737,18.1576971 34.6392991,15.783229 C34.0806008,18.2973717 33.9409262,20.5321652 34.3599499,23.0463079 C34.9186483,26.1191489 35.3376721,29.4713392 33.8012516,32.1251564 C30.8680851,32.4045056 28.3539424,34.0806008 25.7001252,35.4773467 C24.5827284,36.0360451 23.6050063,36.0360451 22.3479349,35.7566959 C21.5098874,35.6170213 20.8115144,34.9186483 19.5544431,33.5219024 C19.5544431,32.1251564 19.8337922,31.5664581 20.3924906,30.3093867 C21.3702128,28.3539424 22.4876095,26.5381727 23.7446809,24.5827284 C22.3479349,26.3984981 20.951189,27.9349186 19.8337922,29.6110138 C19.4147685,28.3539424 18.7163955,27.6555695 17.7386733,26.2588235 C16.7609512,24.8620776 16.6212766,24.3033792 17.3196496,22.6272841 C18.1576971,20.951189 18.7163955,19.5544431 20.1131414,18.1576971 C22.3479349,15.6435544 24.4430538,12.9897372 26.9571965,10.4755945 C28.3539424,9.21852315 28.9126408,9.21852315 30.5887359,8.93917397 C32.264831,8.65982478 33.8012516,8.38047559 35.4773467,7.96145181 C33.8012516,8.240801 32.264831,8.38047559 30.7284105,8.38047559 C30.7284105,8.38047559 30.7284105,8.38047559 30.7284105,8.38047559 C32.264831,6.42503129 33.1028786,5.30763454 35.6170213,4.1902378 C41.7627034,1.53642053 45.673592,1.25707134 50.4225282,5.30763454 C51.6795995,6.42503129 52.7969962,7.40275344 54.0540676,8.240801 C53.6350438,8.240801 53.21602,8.38047559 52.6573217,8.52015019 C53.3556946,8.38047559 54.0540676,8.52015019 54.7524406,8.65982478 C54.8921151,8.79949937 55.1714643,8.93917397 55.3111389,9.07884856 C56.1491865,9.63754693 56.7078849,9.91689612 57.2665832,10.7549437 C57.9649562,11.5929912 58.38398,12.5707134 58.9426783,13.5484355 C58.6633292,13.408761 58.38398,13.408761 58.1046308,13.2690864 C57.9649562,13.1294118 57.685607,13.1294118 57.5459324,13.1294118 C57.1269086,13.1294118 56.8475594,13.1294118 56.4285357,13.408761 C56.4285357,13.408761 56.4285357,13.408761 56.4285357,13.408761 C55.8698373,13.6881101 55.1714643,13.9674593 54.612766,13.9674593 C54.8921151,14.1071339 55.4508135,14.1071339 55.7301627,13.9674593 C55.7301627,13.9674593 55.8698373,13.9674593 55.8698373,13.9674593 C55.7301627,14.1071339 55.7301627,14.3864831 55.5904881,14.6658323 C55.5904881,14.9451815 55.5904881,15.3642053 55.7301627,15.6435544 C55.7301627,15.6435544 55.7301627,15.6435544 55.7301627,15.6435544 C55.7301627,15.783229 55.8698373,15.783229 55.8698373,15.9229036 C55.5904881,16.0625782 55.4508135,16.0625782 55.1714643,16.2022528 C56.2888611,16.0625782 57.4062578,16.0625782 58.5236546,16.2022528 C58.6633292,16.6212766 58.6633292,16.9006258 58.8030038,17.3196496 C58.6633292,17.3196496 58.5236546,17.3196496 58.38398,17.3196496 C58.38398,17.3196496 58.38398,17.3196496 58.38398,17.3196496 C57.8252816,16.9006258 57.2665832,16.9006258 56.4285357,17.179975 C54.0540676,17.7386733 54.612766,19.1354193 53.4953692,21.2305382 C54.612766,19.8337922 54.612766,18.2973717 56.4285357,17.8783479 C56.8475594,17.7386733 57.1269086,17.5989987 57.4062578,17.7386733 C56.8475594,18.0180225 56.4285357,18.4370463 56.1491865,18.9957447 C55.5904881,20.5321652 56.0095119,21.649562 55.3111389,23.0463079 C56.0095119,21.7892365 56.0095119,20.6718398 56.7078849,19.2750939 C56.987234,18.8560701 57.8252816,18.0180225 58.2443054,18.0180225 C58.38398,18.0180225 58.5236546,18.0180225 58.6633292,18.0180225 C58.8030038,18.8560701 58.8030038,19.6941176 58.8030038,20.252816 C58.6633292,21.5098874 58.38398,23.3256571 58.2443054,24.02403 C58.9426783,23.1859825 59.2220275,21.5098874 59.5013767,20.252816 C59.7807259,18.9957447 59.7807259,17.4593242 59.5013767,16.0625782 C59.0823529,14.1071339 61.0377972,14.5261577 62.155194,13.5484355 C62.9932416,12.8500626 63.5519399,11.8723404 64.2503129,11.1739675 C64.9486859,10.4755945 66.2057572,11.4533166 66.4851064,12.2913642 C67.7421777,15.3642053 68.3008761,20.252816 68.0215269,23.4653317 C67.6025031,26.9571965 65.926408,30.8680851 62.853567,32.5441802 C58.9426783,34.7789737 54.1937422,33.3822278 50.2828536,32.1251564 C49.444806,31.8458073 48.8861076,31.4267835 48.1877347,31.0077597 C48.6067584,31.7061327 48.746433,32.6838548 48.4670839,33.5219024 Z M44.975219,47.6290363 C44.8355444,49.0257822 44.4165207,49.1654568 43.0197747,49.1654568 C42.4610763,49.1654568 40.0866083,49.1654568 39.5279099,49.0257822 C38.6898623,48.8861076 38.2708385,48.8861076 37.9914894,48.746433 C39.2485607,47.7687109 41.4833542,43.8578223 41.902378,42.4610763 C42.3214018,41.0643304 42.8801001,39.8072591 43.1594493,38.4105131 C43.2991239,38.9692115 43.4387985,39.5279099 43.7181477,40.0866083 C44.1371715,41.0643304 44.2768461,41.6230288 44.4165207,42.7404255 C44.4165207,43.8578223 44.4165207,44.975219 44.5561952,46.0926158 C44.975219,46.7909887 44.975219,46.9306633 44.975219,47.6290363 Z M4.1902378,18.5767209 C3.91088861,18.9957447 3.77121402,19.4147685 3.77121402,19.6941176 C3.35219024,21.2305382 3.91088861,22.6272841 2.51414268,23.7446809 C3.21251564,25.0017522 3.07284105,25.5604506 4.60926158,25.0017522 C5.16795995,24.722403 5.72665832,24.4430538 6.1456821,24.02403 C6.00600751,24.5827284 5.72665832,25.1414268 5.58698373,25.7001252 C5.58698373,25.8397997 5.58698373,25.8397997 5.44730914,25.9794743 C4.32991239,26.3984981 2.93316646,26.6778473 2.37446809,25.5604506 C2.0951189,25.0017522 1.95544431,24.4430538 1.81576971,23.7446809 C1.33226763e-15,21.9289111 2.65381727,19.4147685 4.1902378,18.5767209 Z M4.32991239,20.252816 C4.32991239,20.1131414 4.32991239,19.8337922 4.46958698,19.6941176 C4.46958698,19.5544431 4.46958698,19.5544431 4.60926158,19.4147685 C5.02828536,19.6941176 5.02828536,19.9734668 5.16795995,20.5321652 C4.88861076,20.252816 4.60926158,20.1131414 4.32991239,20.252816 Z M5.72665832,36.5947434 C6.56470588,39.3882353 7.96145181,42.3214018 9.49787234,44.6958698 C9.49787234,44.6958698 9.49787234,44.6958698 9.49787234,44.6958698 C9.35819775,45.1148936 9.21852315,45.5339174 9.07884856,45.8132666 C7.96145181,47.3496871 5.16795995,45.1148936 4.32991239,44.2768461 C3.35219024,43.2991239 2.79349186,42.1817272 2.65381727,41.204005 C2.51414268,40.505632 2.65381727,40.505632 3.21251564,39.9469337 C3.91088861,39.2485607 4.60926158,38.5501877 5.30763454,37.8518148 C5.44730914,37.432791 5.58698373,37.0137672 5.72665832,36.5947434 Z M58.9426783,13.5484355 C58.9426783,13.6881101 59.0823529,13.8277847 59.0823529,13.9674593 C59.0823529,13.9674593 58.9426783,14.1071339 58.9426783,14.1071339 C58.8030038,13.9674593 58.6633292,13.6881101 58.5236546,13.5484355 C58.6633292,13.5484355 58.8030038,13.5484355 58.9426783,13.5484355 Z" id="Shape" fill="#1E1E1E" fill-rule="nonzero"></path>
                            <path d="M62.4345432,15.2245307 C64.3899875,14.5261577 65.3677096,12.9897372 65.7867334,11.0342929 C64.9486859,12.5707134 63.8312891,13.9674593 62.155194,14.6658323 C61.3171464,15.0848561 60.7584481,14.9451815 59.7807259,14.8055069 C60.7584481,15.2245307 61.456821,15.5038798 62.4345432,15.2245307 Z" id="Path" fill="#1E1E1E" fill-rule="evenodd"></path>
                            <path d="M51.2605757,17.179975 C50.7018773,17.179975 50.0035044,17.3196496 49.1654568,17.4593242 C49.1654568,17.179975 49.0257822,17.0403004 49.0257822,16.7609512 C48.746433,16.2022528 48.3274093,15.783229 47.7687109,15.6435544 C48.1877347,15.3642053 48.746433,15.0848561 49.1654568,14.8055069 C48.0480601,15.3642053 46.7909887,15.2245307 45.8132666,15.783229 C44.975219,16.3419274 43.8578223,18.1576971 43.0197747,18.8560701 C43.5784731,18.5767209 44.1371715,18.1576971 44.6958698,17.7386733 C44.6958698,18.0180225 44.8355444,18.4370463 44.975219,18.7163955 C45.2545682,19.1354193 45.5339174,19.5544431 45.9529412,19.6941176 C45.673592,20.1131414 45.3942428,20.5321652 45.2545682,21.0908636 C46.7909887,19.2750939 49.0257822,17.7386733 51.2605757,17.179975 Z" id="Path" fill="#1E1E1E" fill-rule="evenodd"></path>
                            <path d="M41.204005,15.0848561 C41.6230288,13.408761 42.1817272,11.8723404 44.6958698,10.7549437 C41.3436796,11.5929912 40.7849812,12.9897372 41.204005,15.0848561 Z" id="Path" fill="#1E1E1E" fill-rule="evenodd"></path>
                            <path d="M46.6513141,31.0077597 C46.5116395,31.4267835 46.5116395,32.1251564 46.371965,32.5441802 C46.5116395,31.9854819 46.7909887,31.2871089 47.0703379,30.8680851 C47.3496871,30.3093867 47.4893617,30.3093867 48.0480601,30.0300375 C48.4670839,29.890363 49.1654568,29.4713392 49.444806,29.3316646 C49.0257822,29.3316646 48.3274093,29.6110138 47.9083855,29.6110138 C46.9306633,29.7506884 46.7909887,30.0300375 46.6513141,31.0077597 Z" id="Path" fill="#1E1E1E" fill-rule="evenodd"></path>
                            <path d="M28.7729662,12.1516896 C27.5158949,13.408761 26.3984981,17.4593242 25.9794743,19.1354193 C26.5381727,17.7386733 28.0745932,13.9674593 29.19199,12.9897372 C29.4713392,12.710388 29.7506884,12.5707134 30.0300375,12.4310388 C29.19199,13.8277847 29.3316646,14.1071339 29.6110138,15.9229036 C29.890363,14.1071339 30.4490613,13.2690864 31.5664581,11.8723404 C32.6838548,11.5929912 33.8012516,11.1739675 35.0583229,10.7549437 C33.661577,10.8946183 32.4045056,11.0342929 31.0077597,11.1739675 C29.7506884,11.4533166 29.4713392,11.4533166 28.7729662,12.1516896 Z" id="Path" fill="#1E1E1E" fill-rule="evenodd"></path>
                            <path d="M45.3942428,19.2750939 C45.1148936,18.8560701 45.3942428,18.2973717 45.8132666,18.0180225 C46.2322904,17.7386733 46.7909887,18.0180225 47.0703379,18.4370463 C47.0703379,18.4370463 47.0703379,18.5767209 47.0703379,18.5767209 C46.6513141,18.8560701 46.2322904,19.2750939 45.8132666,19.6941176 C45.673592,19.6941176 45.3942428,19.5544431 45.3942428,19.2750939" id="Path" fill="#FFFACB" fill-rule="evenodd"></path>
                            <path d="M55.7301627,15.2245307 C55.7301627,14.8055069 56.1491865,14.5261577 56.4285357,14.5261577 C56.8475594,14.5261577 57.1269086,14.9451815 57.1269086,15.2245307 C57.1269086,15.3642053 57.1269086,15.3642053 57.1269086,15.5038798 C56.7078849,15.5038798 56.4285357,15.6435544 56.0095119,15.783229 C55.8698373,15.783229 55.7301627,15.5038798 55.7301627,15.2245307" id="Path" fill="#FFFACB" fill-rule="evenodd"></path>
                        </g>
                    </g>
                    <g id="Gear-1" mask="url(#mask-2)" fill-rule="nonzero">
                        <g transform="translate(25.750000, 35.998711) rotate(-45.000000) translate(-25.750000, -35.998711) translate(10.750000, 20.998711)">
                            <path d="M17.8,14.91 C17.8,13.184 16.352,11.77 14.562,11.77 C12.772,11.77 11.324,13.184 11.324,14.91 C11.324,16.635 12.773,18.05 14.562,18.05 C16.352,18.05 17.801,16.635 17.801,14.91 L17.8,14.91 Z M25.067,11.316 L26.845,11.702 C28.138,11.982 29.125,13.184 29.125,14.496 L29.125,15.324 C29.125,16.634 28.138,17.837 26.845,18.117 L25.067,18.503 L24.586,19.645 L25.55,21.125 C26.27,22.232 26.097,23.776 25.15,24.701 L24.551,25.286 C23.629,26.186 22.051,26.356 20.956,25.674 L19.416,24.717 L18.212,25.201 L17.82,26.923 C17.53,28.199 16.306,29.158 14.986,29.158 L14.139,29.158 C12.819,29.158 11.594,28.198 11.305,26.923 L10.913,25.201 L9.709,24.716 L8.169,25.674 C7.07,26.356 5.495,26.185 4.573,25.286 L3.973,24.7 C3.027,23.776 2.853,22.23 3.575,21.125 L4.538,19.645 L4.058,18.503 L2.279,18.117 C0.987,17.837 0,16.635 0,15.324 L0,14.496 C0,13.184 0.987,11.983 2.28,11.702 L4.057,11.316 L4.539,10.174 L3.575,8.694 C2.854,7.588 3.027,6.044 3.974,5.119 L4.574,4.534 C5.494,3.634 7.072,3.464 8.169,4.146 L9.709,5.103 L10.913,4.618 L11.305,2.896 C11.595,1.62 12.819,0.66 14.139,0.66 L14.986,0.66 C16.306,0.66 17.53,1.62 17.821,2.895 L18.212,4.617 L19.415,5.102 L20.956,4.144 C22.053,3.462 23.63,3.632 24.551,4.532 L25.151,5.118 C26.097,6.043 26.271,7.587 25.551,8.693 L24.586,10.173 L25.066,11.315 L25.067,11.316 Z" id="Fill-376" stroke="#55A2FF" stroke-width="2" fill="#546670"></path>
                            <path d="M9.382,23.862 C9.49180854,23.8086417 9.61298285,23.7828964 9.735,23.787 C9.85340695,23.7819428 9.97095299,23.809255 10.075,23.866 L11.402,24.4 C11.4230513,24.4081296 11.4443996,24.4154681 11.466,24.422 C11.624,24.472 11.854,24.718 11.89,24.877 L12.33,26.81 C12.517,27.63 13.337,28.273 14.197,28.273 L15.048,28.273 C15.908,28.273 16.728,27.63 16.915,26.81 L17.355,24.877 C17.391,24.718 17.621,24.472 17.779,24.422 C17.8006253,24.4155451 17.8219766,24.4082056 17.843,24.4 L19.17,23.866 C19.2740831,23.8093499 19.3916025,23.782044 19.51,23.787 C19.67,23.787 19.805,23.826 19.862,23.862 L21.573,24.925 C22.283,25.367 23.358,25.25 23.953,24.67 L24.554,24.083 C25.162,23.488 25.277,22.467 24.815,21.758 L23.727,20.088 C23.637,19.951 23.623,19.621 23.699,19.478 C23.7106262,19.4561378 23.7213029,19.4337836 23.731,19.411 L24.277,18.114 C24.2858988,18.0938115 24.2935793,18.0731077 24.3,18.052 C24.351,17.897 24.603,17.672 24.766,17.638 L26.744,17.208 C27.584,17.026 28.242,16.225 28.242,15.385 L28.242,14.553 C28.242,13.713 27.584,12.912 26.745,12.73 L24.765,12.3 C24.603,12.265 24.351,12.04 24.3,11.886 C24.2936173,11.8645532 24.2859365,11.8435144 24.277,11.823 L23.731,10.527 C23.7213853,10.5041793 23.7107069,10.4818214 23.699,10.46 C23.623,10.317 23.638,9.986 23.727,9.85 L24.815,8.18 C25.277,7.47 25.115,6.495 24.508,5.9 L23.946,5.352 L17.444,11.702 C18.215,12.455 18.879,13.822 18.879,14.969 C18.879,17.261 16.969,19.126 14.623,19.126 C13.449,19.126 12.174,18.356 11.403,17.604 L4.731,24.12 L5.293,24.67 C5.886,25.248 6.96,25.366 7.673,24.924 L9.383,23.861 L9.382,23.862 Z" id="Fill-377" stroke="none" fill="#30404D"></path>
                        </g>
                    </g>
                </g>
                <g id="Azure-Border" stroke="#0078D4" stroke-width="4">
                    <rect x="2" y="2" width="96" height="96" rx="48"></rect>
                </g>
            </g>
        </g>
    </g>
</svg>