<svg width="100" height="100" viewBox="0 0 100 100" fill="none" xmlns="http://www.w3.org/2000/svg">
<g clip-path="url(#clip0)">
<path d="M49.6401 96.4501C40.382 96.4501 31.3317 93.7047 23.6339 88.5612C15.936 83.4176 9.93624 76.1069 6.3933 67.5535C2.85036 59.0001 1.92337 49.5882 3.72954 40.5079C5.53571 31.4277 9.99394 23.0869 16.5404 16.5404C23.0869 9.99393 31.4277 5.53571 40.5079 3.72954C49.5882 1.92337 59.0001 2.85036 67.5535 6.3933C76.1069 9.93624 83.4176 15.936 88.5612 23.6339C93.7047 31.3317 96.4501 40.382 96.4501 49.6401C96.4505 55.7874 95.24 61.8746 92.8878 67.554C90.5355 73.2335 87.0875 78.3939 82.7407 82.7407C78.3939 87.0875 73.2335 90.5355 67.554 92.8878C61.8746 95.24 55.7874 96.4505 49.6401 96.4501V96.4501Z" fill="url(#paint0_linear)"/>
<path fill-rule="evenodd" clip-rule="evenodd" d="M95.54 49.64C95.54 58.7182 92.848 67.5925 87.8045 75.1407C82.7609 82.6889 75.5923 88.572 67.2052 92.0461C58.818 95.5201 49.5891 96.4291 40.6854 94.658C31.7816 92.887 23.603 88.5154 17.1838 82.0962C10.7646 75.677 6.39302 67.4984 4.62196 58.5946C2.85089 49.6909 3.75987 40.462 7.23393 32.0748C10.708 23.6877 16.5911 16.5191 24.1393 11.4755C31.6875 6.43199 40.5618 3.74 49.64 3.74C55.6677 3.73998 61.6363 4.9272 67.2052 7.23388C72.774 9.54057 77.834 12.9215 82.0963 17.1837C86.3585 21.446 89.7394 26.5059 92.0461 32.0748C94.3528 37.6437 95.54 43.6123 95.54 49.64V49.64ZM49.64 3.62732e-07C59.4579 3.62732e-07 69.0553 2.91134 77.2185 8.36585C85.3818 13.8204 91.7442 21.5731 95.5014 30.6436C99.2585 39.7141 100.242 49.6951 98.3262 59.3243C96.4108 68.9535 91.6831 77.7985 84.7408 84.7408C77.7985 91.6831 68.9535 96.4108 59.3243 98.3262C49.6951 100.242 39.7141 99.2585 30.6436 95.5014C21.5731 91.7442 13.8204 85.3818 8.36585 77.2185C2.91134 69.0553 3.62732e-07 59.4579 3.62732e-07 49.64C-0.000787738 43.121 1.28265 36.6656 3.77702 30.6427C6.27138 24.6197 9.9278 19.1471 14.5375 14.5375C19.1471 9.9278 24.6197 6.27138 30.6427 3.77702C36.6656 1.28265 43.121 -0.000787738 49.64 3.62732e-07V3.62732e-07Z" fill="#F2F1F0"/>
<path fill-rule="evenodd" clip-rule="evenodd" d="M92.7296 49.6406C92.7296 58.163 90.2024 66.494 85.4676 73.5801C80.7328 80.6662 74.0031 86.1892 66.1294 89.4505C58.2557 92.7119 49.5918 93.5653 41.2331 91.9026C32.8745 90.24 25.1966 86.1361 19.1703 80.1098C13.1441 74.0836 9.04017 66.4057 7.37753 58.047C5.7149 49.6884 6.56822 41.0244 9.8296 33.1507C13.091 25.2771 18.6139 18.5473 25.7 13.8126C32.7862 9.07776 41.1172 6.55058 49.6396 6.55058C55.2983 6.55023 60.9017 7.66455 66.1298 9.82991C71.3579 11.9953 76.1082 15.1692 80.1096 19.1706C84.1109 23.1719 87.2849 27.9223 89.4502 33.1503C91.6156 38.3784 92.7299 43.9818 92.7296 49.6406V49.6406ZM49.6396 2.81058C58.9017 2.81058 67.9558 5.55711 75.6569 10.7029C83.3581 15.8486 89.3604 23.1624 92.9049 31.7195C96.4493 40.2766 97.3767 49.6925 95.5697 58.7767C93.7628 67.8608 89.3027 76.2051 82.7534 82.7544C76.2041 89.3037 67.8598 93.7638 58.7757 95.5708C49.6915 97.3777 40.2756 96.4503 31.7185 92.9059C23.1614 89.3614 15.8476 83.3591 10.7018 75.6579C5.5561 67.9568 2.80957 58.9027 2.80957 49.6406C2.81076 37.2209 7.745 25.3101 16.5271 16.5281C25.3091 7.74599 37.2198 2.81174 49.6396 2.81055V2.81058Z" fill="#0078D4"/>
<path d="M40.117 42.544C40.8775 42.544 41.494 41.9275 41.494 41.167C41.494 40.4065 40.8775 39.79 40.117 39.79C39.3565 39.79 38.74 40.4065 38.74 41.167C38.74 41.9275 39.3565 42.544 40.117 42.544Z" fill="#0078D4"/>
<path d="M44.8782 42.544C45.6387 42.544 46.2552 41.9275 46.2552 41.167C46.2552 40.4065 45.6387 39.79 44.8782 39.79C44.1177 39.79 43.5012 40.4065 43.5012 41.167C43.5012 41.9275 44.1177 42.544 44.8782 42.544Z" fill="#0078D4"/>
<path d="M49.6397 42.544C50.4002 42.544 51.0167 41.9275 51.0167 41.167C51.0167 40.4065 50.4002 39.79 49.6397 39.79C48.8792 39.79 48.2627 40.4065 48.2627 41.167C48.2627 41.9275 48.8792 42.544 49.6397 42.544Z" fill="#0078D4"/>
<path d="M54.4009 42.544C55.1614 42.544 55.7779 41.9275 55.7779 41.167C55.7779 40.4065 55.1614 39.79 54.4009 39.79C53.6404 39.79 53.0239 40.4065 53.0239 41.167C53.0239 41.9275 53.6404 42.544 54.4009 42.544Z" fill="#0078D4"/>
<path d="M59.1621 42.544C59.9226 42.544 60.5391 41.9275 60.5391 41.167C60.5391 40.4065 59.9226 39.79 59.1621 39.79C58.4017 39.79 57.7852 40.4065 57.7852 41.167C57.7852 41.9275 58.4017 42.544 59.1621 42.544Z" fill="#0078D4"/>
<path d="M40.117 46.7803C40.8775 46.7803 41.494 46.1638 41.494 45.4034C41.494 44.6429 40.8775 44.0264 40.117 44.0264C39.3565 44.0264 38.74 44.6429 38.74 45.4034C38.74 46.1638 39.3565 46.7803 40.117 46.7803Z" fill="#0078D4"/>
<path d="M44.8782 46.7803C45.6387 46.7803 46.2552 46.1638 46.2552 45.4034C46.2552 44.6429 45.6387 44.0264 44.8782 44.0264C44.1177 44.0264 43.5012 44.6429 43.5012 45.4034C43.5012 46.1638 44.1177 46.7803 44.8782 46.7803Z" fill="#0078D4"/>
<path d="M49.6397 46.7803C50.4002 46.7803 51.0167 46.1638 51.0167 45.4034C51.0167 44.6429 50.4002 44.0264 49.6397 44.0264C48.8792 44.0264 48.2627 44.6429 48.2627 45.4034C48.2627 46.1638 48.8792 46.7803 49.6397 46.7803Z" fill="white"/>
<path d="M54.4009 46.7803C55.1614 46.7803 55.7779 46.1638 55.7779 45.4034C55.7779 44.6429 55.1614 44.0264 54.4009 44.0264C53.6404 44.0264 53.0239 44.6429 53.0239 45.4034C53.0239 46.1638 53.6404 46.7803 54.4009 46.7803Z" fill="#0078D4"/>
<path d="M59.1621 46.7803C59.9226 46.7803 60.5391 46.1638 60.5391 45.4034C60.5391 44.6429 59.9226 44.0264 59.1621 44.0264C58.4017 44.0264 57.7852 44.6429 57.7852 45.4034C57.7852 46.1638 58.4017 46.7803 59.1621 46.7803Z" fill="#0078D4"/>
<path d="M40.117 51.0167C40.8775 51.0167 41.494 50.4002 41.494 49.6397C41.494 48.8792 40.8775 48.2627 40.117 48.2627C39.3565 48.2627 38.74 48.8792 38.74 49.6397C38.74 50.4002 39.3565 51.0167 40.117 51.0167Z" fill="#0078D4"/>
<path d="M44.8782 51.0167C45.6387 51.0167 46.2552 50.4002 46.2552 49.6397C46.2552 48.8792 45.6387 48.2627 44.8782 48.2627C44.1177 48.2627 43.5012 48.8792 43.5012 49.6397C43.5012 50.4002 44.1177 51.0167 44.8782 51.0167Z" fill="white"/>
<path d="M49.6397 51.0167C50.4002 51.0167 51.0167 50.4002 51.0167 49.6397C51.0167 48.8792 50.4002 48.2627 49.6397 48.2627C48.8792 48.2627 48.2627 48.8792 48.2627 49.6397C48.2627 50.4002 48.8792 51.0167 49.6397 51.0167Z" fill="white"/>
<path d="M54.4009 51.0167C55.1614 51.0167 55.7779 50.4002 55.7779 49.6397C55.7779 48.8792 55.1614 48.2627 54.4009 48.2627C53.6404 48.2627 53.0239 48.8792 53.0239 49.6397C53.0239 50.4002 53.6404 51.0167 54.4009 51.0167Z" fill="white"/>
<path d="M59.1621 51.0167C59.9226 51.0167 60.5391 50.4002 60.5391 49.6397C60.5391 48.8792 59.9226 48.2627 59.1621 48.2627C58.4017 48.2627 57.7852 48.8792 57.7852 49.6397C57.7852 50.4002 58.4017 51.0167 59.1621 51.0167Z" fill="#0078D4"/>
<path d="M40.117 55.253C40.8775 55.253 41.494 54.6365 41.494 53.876C41.494 53.1155 40.8775 52.499 40.117 52.499C39.3565 52.499 38.74 53.1155 38.74 53.876C38.74 54.6365 39.3565 55.253 40.117 55.253Z" fill="#0078D4"/>
<path d="M44.8782 55.253C45.6387 55.253 46.2552 54.6365 46.2552 53.876C46.2552 53.1155 45.6387 52.499 44.8782 52.499C44.1177 52.499 43.5012 53.1155 43.5012 53.876C43.5012 54.6365 44.1177 55.253 44.8782 55.253Z" fill="#0078D4"/>
<path d="M49.6397 55.253C50.4002 55.253 51.0167 54.6365 51.0167 53.876C51.0167 53.1155 50.4002 52.499 49.6397 52.499C48.8792 52.499 48.2627 53.1155 48.2627 53.876C48.2627 54.6365 48.8792 55.253 49.6397 55.253Z" fill="white"/>
<path d="M54.4009 55.253C55.1614 55.253 55.7779 54.6365 55.7779 53.876C55.7779 53.1155 55.1614 52.499 54.4009 52.499C53.6404 52.499 53.0239 53.1155 53.0239 53.876C53.0239 54.6365 53.6404 55.253 54.4009 55.253Z" fill="#0078D4"/>
<path d="M59.1621 55.253C59.9226 55.253 60.5391 54.6365 60.5391 53.876C60.5391 53.1155 59.9226 52.499 59.1621 52.499C58.4017 52.499 57.7852 53.1155 57.7852 53.876C57.7852 54.6365 58.4017 55.253 59.1621 55.253Z" fill="#0078D4"/>
<path d="M40.117 59.4903C40.8775 59.4903 41.494 58.8738 41.494 58.1133C41.494 57.3528 40.8775 56.7363 40.117 56.7363C39.3565 56.7363 38.74 57.3528 38.74 58.1133C38.74 58.8738 39.3565 59.4903 40.117 59.4903Z" fill="#0078D4"/>
<path d="M44.8782 59.4903C45.6387 59.4903 46.2552 58.8738 46.2552 58.1133C46.2552 57.3528 45.6387 56.7363 44.8782 56.7363C44.1177 56.7363 43.5012 57.3528 43.5012 58.1133C43.5012 58.8738 44.1177 59.4903 44.8782 59.4903Z" fill="#0078D4"/>
<path d="M49.6397 59.4903C50.4002 59.4903 51.0167 58.8738 51.0167 58.1133C51.0167 57.3528 50.4002 56.7363 49.6397 56.7363C48.8792 56.7363 48.2627 57.3528 48.2627 58.1133C48.2627 58.8738 48.8792 59.4903 49.6397 59.4903Z" fill="#0078D4"/>
<path d="M54.4009 59.4903C55.1614 59.4903 55.7779 58.8738 55.7779 58.1133C55.7779 57.3528 55.1614 56.7363 54.4009 56.7363C53.6404 56.7363 53.0239 57.3528 53.0239 58.1133C53.0239 58.8738 53.6404 59.4903 54.4009 59.4903Z" fill="#0078D4"/>
<path d="M59.1621 59.4903C59.9226 59.4903 60.5391 58.8738 60.5391 58.1133C60.5391 57.3528 59.9226 56.7363 59.1621 56.7363C58.4017 56.7363 57.7852 57.3528 57.7852 58.1133C57.7852 58.8738 58.4017 59.4903 59.1621 59.4903Z" fill="#0078D4"/>
<path d="M67.8032 43.4124L76.1434 40.5527C74.2487 35.0292 70.676 30.2355 65.9244 26.8414C61.1727 23.4472 55.4795 21.6221 49.6401 21.6211V30.421C53.6429 30.4278 57.5439 31.6829 60.7996 34.0116C64.0553 36.3403 66.5035 39.6265 67.8032 43.4124V43.4124Z" fill="#0078D4"/>
<path d="M77.6586 49.6402C77.6595 46.5481 77.1474 43.4773 76.1434 40.5527L67.8032 43.4125C68.4984 45.4154 68.8552 47.5201 68.859 49.6403H77.6586V49.6402Z" fill="#50E6FF"/>
<path d="M49.6399 68.8593C44.5426 68.8593 39.6542 66.8344 36.0499 63.2302C32.4456 59.6259 30.4207 54.7374 30.4207 49.6402C30.4207 44.5429 32.4456 39.6545 36.0499 36.0502C39.6542 32.4459 44.5426 30.421 49.6399 30.421H49.6402V21.6211H49.6396C45.04 21.6201 40.5109 22.7515 36.4521 24.9155C32.3932 27.0794 28.9296 30.2092 26.3668 34.0288C23.804 37.8483 22.221 42.24 21.7574 46.8162C21.2938 51.3924 21.964 56.0123 23.7087 60.2682C25.4534 64.5241 28.2191 68.285 31.7615 71.2189C35.3039 74.1529 39.5141 76.1696 44.0204 77.0911C48.5268 78.0125 53.1907 77.8104 57.6005 76.5026C62.0103 75.1948 66.0303 72.8214 69.3056 69.5921L63.1208 63.3172C59.5333 66.8692 54.6884 68.861 49.6399 68.8593Z" fill="#1F56A3"/>
<path d="M77.6585 49.6396H68.8588C68.8596 52.1864 68.3525 54.7077 67.3672 57.0561C66.3819 59.4045 64.9382 61.5329 63.1206 63.3167L69.3054 69.5916C71.9544 66.9884 74.0576 63.883 75.4919 60.4571C76.9262 57.0312 77.6627 53.3537 77.6585 49.6396V49.6396Z" fill="#9CEBFF"/>
<path d="M76.8557 36.1547C78.3478 36.1547 79.5575 34.945 79.5575 33.4528C79.5575 31.9606 78.3478 30.751 76.8557 30.751C75.3635 30.751 74.1538 31.9606 74.1538 33.4528C74.1538 34.945 75.3635 36.1547 76.8557 36.1547Z" fill="#FFE452"/>
<path d="M82.5378 39.9345C82.5452 39.882 82.5602 39.8295 82.5677 39.7846C82.7084 39.0424 82.6839 38.2784 82.496 37.5468C82.3081 36.8152 81.9614 36.134 81.4805 35.5515C80.9996 34.969 80.3964 34.4995 79.7136 34.1764C79.0308 33.8534 78.2853 33.6846 77.5299 33.6822C77.1436 33.6809 76.7585 33.7262 76.3829 33.8171C75.6173 32.6095 74.4802 31.6831 73.1426 31.1775C71.8051 30.6718 70.3396 30.6142 68.9665 31.0132C67.5934 31.4123 66.387 32.2465 65.5289 33.3903C64.6708 34.5341 64.2073 35.9257 64.2082 37.3556C64.2082 37.4456 64.2082 37.5355 64.2157 37.6255C63.8728 37.51 63.5131 37.4518 63.1512 37.4531C62.3182 37.4532 61.517 37.7735 60.9136 38.3478C60.3101 38.922 59.9505 39.7063 59.909 40.5383C59.8676 41.3703 60.1476 42.1864 60.6911 42.8178C61.2346 43.4491 61.9999 43.8474 62.8288 43.9302L77.5224 43.9602C78.437 43.9592 79.3349 43.7149 80.124 43.2525C80.9131 42.7901 81.565 42.1262 82.013 41.3289C82.0355 41.2839 82.0655 41.2389 82.088 41.1939C82.2865 40.793 82.4374 40.3704 82.5378 39.9345V39.9345Z" fill="white"/>
<path d="M12.7633 57.6862C12.7574 57.645 12.7457 57.6037 12.7398 57.5682C12.6291 56.9843 12.6483 56.3831 12.7962 55.8074C12.9441 55.2318 13.2169 54.6957 13.5953 54.2373C13.9737 53.779 14.4483 53.4096 14.9856 53.1554C15.5228 52.9012 16.1095 52.7684 16.7039 52.7665C17.0079 52.7654 17.3109 52.8011 17.6064 52.8726C18.2089 51.9224 19.1036 51.1934 20.1561 50.7956C21.2086 50.3977 22.3618 50.3523 23.4422 50.6663C24.5227 50.9804 25.4719 51.6368 26.1472 52.5368C26.8224 53.4368 27.1871 54.5318 27.1863 55.657C27.1863 55.7277 27.1863 55.7985 27.1804 55.8693C27.4503 55.7785 27.7333 55.7326 28.0181 55.7336C28.6736 55.7338 29.3039 55.9858 29.7788 56.4377C30.2536 56.8896 30.5366 57.5067 30.5692 58.1613C30.6018 58.816 30.3814 59.4582 29.9538 59.955C29.5262 60.4517 28.924 60.7652 28.2718 60.8304L16.7098 60.854C15.9901 60.8531 15.2836 60.6609 14.6627 60.2971C14.0418 59.9332 13.5288 59.4108 13.1763 58.7834C13.1586 58.748 13.135 58.7126 13.1173 58.6772C12.9611 58.3618 12.8423 58.0292 12.7633 57.6862V57.6862Z" fill="white"/>
<path d="M49.6396 45.4036V27.208" stroke="white" stroke-width="0.5" stroke-miterlimit="10"/>
<path d="M49.6397 27.2081C50.4002 27.2081 51.0167 26.5916 51.0167 25.8311C51.0167 25.0706 50.4002 24.4541 49.6397 24.4541C48.8792 24.4541 48.2627 25.0706 48.2627 25.8311C48.2627 26.5916 48.8792 27.2081 49.6397 27.2081Z" stroke="white" stroke-width="0.5" stroke-miterlimit="10"/>
<path d="M54.4009 74.6407C55.1614 74.6407 55.7779 74.0242 55.7779 73.2637C55.7779 72.5032 55.1614 71.8867 54.4009 71.8867C53.6404 71.8867 53.0239 72.5032 53.0239 73.2637C53.0239 74.0242 53.6404 74.6407 54.4009 74.6407Z" stroke="white" stroke-width="0.5" stroke-miterlimit="10"/>
<path d="M30.9773 55.253C31.7378 55.253 32.3543 54.6365 32.3543 53.876C32.3543 53.1155 31.7378 52.499 30.9773 52.499C30.2168 52.499 29.6003 53.1155 29.6003 53.876C29.6003 54.6365 30.2168 55.253 30.9773 55.253Z" stroke="white" stroke-width="0.5" stroke-miterlimit="10"/>
<path d="M54.4009 49.6396V71.8861" stroke="white" stroke-width="0.5" stroke-miterlimit="10"/>
<path d="M49.6397 53.877H32.3545" stroke="white" stroke-width="0.5" stroke-miterlimit="10"/>
<path d="M22.0129 59.7284C24.2616 59.7284 26.0846 57.9054 26.0846 55.6567C26.0846 53.4079 24.2616 51.585 22.0129 51.585C19.7641 51.585 17.9412 53.4079 17.9412 55.6567C17.9412 57.9054 19.7641 59.7284 22.0129 59.7284Z" fill="white"/>
<path d="M22.0129 56.144C22.7582 56.144 23.3623 55.5399 23.3623 54.7947C23.3623 54.0494 22.7582 53.4453 22.0129 53.4453C21.2677 53.4453 20.6636 54.0494 20.6636 54.7947C20.6636 55.5399 21.2677 56.144 22.0129 56.144Z" fill="#0078D4"/>
<path d="M23.8435 58.1138C23.9558 58.0262 24.0299 57.8986 24.0504 57.7577C24.0708 57.6167 24.0361 57.4733 23.9534 57.3574C23.7345 57.0461 23.4439 56.792 23.1062 56.6166C22.7685 56.4412 22.3935 56.3496 22.0129 56.3496C21.6323 56.3496 21.2574 56.4412 20.9196 56.6166C20.5819 56.792 20.2913 57.0461 20.0724 57.3574C19.9897 57.4733 19.955 57.6167 19.9755 57.7577C19.9959 57.8986 20.07 58.0262 20.1823 58.1138C20.711 58.5084 21.3531 58.7217 22.0129 58.7217C22.6727 58.7217 23.3148 58.5084 23.8435 58.1138H23.8435Z" fill="#0078D4"/>
<path d="M70.9171 42.4861C73.751 42.4861 76.0483 40.1888 76.0483 37.3549C76.0483 34.521 73.751 32.2236 70.9171 32.2236C68.0832 32.2236 65.7859 34.521 65.7859 37.3549C65.7859 40.1888 68.0832 42.4861 70.9171 42.4861Z" fill="white"/>
<path d="M70.9173 37.9693C71.8564 37.9693 72.6178 37.208 72.6178 36.2688C72.6178 35.3297 71.8564 34.5684 70.9173 34.5684C69.9781 34.5684 69.2168 35.3297 69.2168 36.2688C69.2168 37.208 69.9781 37.9693 70.9173 37.9693Z" fill="#0078D4"/>
<path d="M73.2241 40.4518C73.3656 40.3413 73.4589 40.1806 73.4847 40.0029C73.5105 39.8253 73.4668 39.6446 73.3626 39.4985C73.0867 39.1062 72.7205 38.786 72.2949 38.5649C71.8693 38.3439 71.3967 38.2285 70.9171 38.2285C70.4375 38.2285 69.965 38.3439 69.5394 38.5649C69.1137 38.786 68.7475 39.1062 68.4717 39.4985C68.3675 39.6446 68.3237 39.8253 68.3495 40.003C68.3753 40.1806 68.4687 40.3413 68.6102 40.4518C69.2765 40.9491 70.0857 41.2178 70.9171 41.2178C71.7486 41.2178 72.5578 40.9491 73.2241 40.4518V40.4518Z" fill="#0078D4"/>
</g>
<defs>
<linearGradient id="paint0_linear" x1="47.8697" y1="-15.153" x2="51.8525" y2="130.615" gradientUnits="userSpaceOnUse">
<stop stop-color="#00ABDE"/>
<stop offset="1" stop-color="#007ED8"/>
</linearGradient>
<clipPath id="clip0">
<rect width="99.2799" height="99.28" fill="white"/>
</clipPath>
</defs>
</svg>
