<?xml version="1.0" encoding="UTF-8"?>
<svg width="107px" height="107px" viewBox="0 0 107 107" version="1.1" xmlns="http://www.w3.org/2000/svg" xmlns:xlink="http://www.w3.org/1999/xlink">
    <!-- Generator: Sketch 61 (89581) - https://sketch.com -->
    <title>Cloud Administration Basics/Provision-and-manage-cloud-services </title>
    <desc>Created with Sketch.</desc>
    <defs>
        <rect id="path-1" x="0" y="0" width="100" height="100" rx="50"></rect>
        <filter x="-5.5%" y="-8.9%" width="111.0%" height="117.8%" filterUnits="objectBoundingBox" id="filter-3">
            <feOffset dx="0" dy="2" in="SourceAlpha" result="shadowOffsetOuter1"></feOffset>
            <feColorMatrix values="0 0 0 0 0   0 0 0 0 0   0 0 0 0 0  0 0 0 0.0964956975 0" type="matrix" in="shadowOffsetOuter1" result="shadowMatrixOuter1"></feColorMatrix>
            <feMerge>
                <feMergeNode in="shadowMatrixOuter1"></feMergeNode>
                <feMergeNode in="SourceGraphic"></feMergeNode>
            </feMerge>
        </filter>
        <filter x="-7.8%" y="-7.7%" width="116.8%" height="115.4%" filterUnits="objectBoundingBox" id="filter-4">
            <feOffset dx="0" dy="2" in="SourceAlpha" result="shadowOffsetOuter1"></feOffset>
            <feColorMatrix values="0 0 0 0 0   0 0 0 0 0   0 0 0 0 0  0 0 0 0.0964956975 0" type="matrix" in="shadowOffsetOuter1" result="shadowMatrixOuter1"></feColorMatrix>
            <feMerge>
                <feMergeNode in="shadowMatrixOuter1"></feMergeNode>
                <feMergeNode in="SourceGraphic"></feMergeNode>
            </feMerge>
        </filter>
        <path d="M29.4184962,5.50120879 L16.2054135,0.415406593 C15.5305263,0.153186813 14.4297744,0.153186813 13.753985,0.415406593 L0.54,5.50120879 C-0.127669173,5.76342857 -0.127669173,6.18243956 0.54,6.44420879 L13.753985,11.530011 C14.4297744,11.7917802 15.5305263,11.7917802 16.2054135,11.530011 L29.4184962,6.44420879 C30.0924812,6.18243956 30.0924812,5.76342857 29.4184962,5.50120879" id="path-5"></path>
        <filter x="-1.7%" y="-4.3%" width="103.3%" height="117.4%" filterUnits="objectBoundingBox" id="filter-6">
            <feOffset dx="0" dy="1" in="SourceAlpha" result="shadowOffsetOuter1"></feOffset>
            <feColorMatrix values="0 0 0 0 0.0549019608   0 0 0 0 0.0901960784   0 0 0 0 0.121568627  0 0 0 1 0" type="matrix" in="shadowOffsetOuter1"></feColorMatrix>
        </filter>
        <linearGradient x1="78.4210223%" y1="-7.24023438%" x2="15.5786468%" y2="110.793945%" id="linearGradient-7">
            <stop stop-color="#FFFFFF" offset="0%"></stop>
            <stop stop-color="#000000" stop-opacity="0.5" offset="100%"></stop>
        </linearGradient>
        <rect id="path-8" x="-3" y="-3" width="106" height="106" rx="53"></rect>
        <filter x="-0.5%" y="-0.5%" width="101.9%" height="101.9%" filterUnits="objectBoundingBox" id="filter-9">
            <feOffset dx="1" dy="1" in="SourceAlpha" result="shadowOffsetOuter1"></feOffset>
            <feMorphology radius="4" operator="erode" in="SourceAlpha" result="shadowInner"></feMorphology>
            <feOffset dx="1" dy="1" in="shadowInner" result="shadowInner"></feOffset>
            <feComposite in="shadowOffsetOuter1" in2="shadowInner" operator="out" result="shadowOffsetOuter1"></feComposite>
            <feColorMatrix values="0 0 0 0 0   0 0 0 0 0   0 0 0 0 0  0 0 0 0.15 0" type="matrix" in="shadowOffsetOuter1"></feColorMatrix>
        </filter>
    </defs>
    <g id="Badges" stroke="none" stroke-width="1" fill="none" fill-rule="evenodd">
        <g id="Cloud-Administration-Basics" transform="translate(-47.000000, -857.000000)">
            <g id="Cloud-Administration-Basics/Provision-and-manage-cloud-services-" transform="translate(50.000000, 860.000000)">
                <g id="Mask" transform="translate(2.000000, 2.000000)">
                    <g id="Circle-" transform="translate(-2.000000, -0.000000)">
                        <mask id="mask-2" fill="white">
                            <use xlink:href="#path-1"></use>
                        </mask>
                        <g id="BG"></g>
                        <g id="Color/Blue" mask="url(#mask-2)" fill="#55A2FF" fill-rule="evenodd">
                            <rect id="Rectangle" x="0" y="0" width="100" height="100"></rect>
                        </g>
                    </g>
                    <g id="One-Cloud" filter="url(#filter-3)" transform="translate(12.000000, 25.000000)">
                        <path d="M16.5872093,13.5 C16.7008343,13.5 16.8110843,13.514625 16.9235843,13.516875 C18.4805843,5.806125 25.2924593,0 33.4622093,0 C40.7657093,0 46.9667093,4.647375 49.3157093,11.13975 C50.6477093,10.49625 52.1349593,10.125 53.7122093,10.125 C59.3045843,10.125 63.8372093,14.657625 63.8372093,20.25 C63.8372093,20.40975 63.8203343,20.563875 63.8135843,20.721375 C69.0178343,22.185 72.8372093,26.953875 72.8372093,32.625 C72.8372093,39.459375 67.2965843,45 60.4622093,45 L16.5872093,45 C7.8887093,45 0.837209302,37.9485 0.837209302,29.25 C0.837209302,20.5515 7.8887093,13.5 16.5872093,13.5" id="Fill-11" fill="#FFFFFF"></path>
                        <path d="M64.8089911,21 C64.8170534,20.8545077 64.8372093,20.712133 64.8372093,20.5645622 C64.8372093,17.4510262 62.8283875,13.9158946 59.803663,12.2157127 C61.2521983,13.7579315 62.1497597,16.4336191 62.1497597,18.4861003 C62.1497597,19.2156404 62.0301682,19.9223175 61.825922,20.604053 C62.8538715,20.6591322 63.8495716,20.7921538 64.8089911,21 Z" id="Fill-12" fill="#C4CBCD"></path>
                        <path d="M60.2436396,45 C67.7341219,45 72.5940345,39.8774679 72.8293012,33.2571711 C72.9857758,28.861365 70.8073388,24.9618595 67.4348121,22.6974876 C69.1138621,25.1878536 69.896235,28.3285064 69.3191656,31.6630267 C68.5123782,36.3236004 64.930109,40.156637 60.3324195,41.2999011 C57.763351,41.9391098 55.3041475,41.7297329 53.1257106,40.9365381 C54.3497635,39.2825717 55.081088,37.2441939 55.081088,35.0296736 C55.081088,31.7106627 53.4497572,28.7782789 50.9517126,26.9658952 C52.4576418,29.0352918 53.198954,31.6951533 52.7139937,34.5422354 C52.0170715,38.6389318 48.7111297,41.9402176 44.6083882,42.6370326 C43.7561011,42.7810485 42.9204602,42.8164985 42.1125631,42.7555687 C38.9464496,42.5140653 36.3352106,40.1931949 35.45407,37.147814 C35.2476568,36.4321662 35.1056089,35.6987933 35.1056089,35.0296736 C35.1056089,34.6275371 35.1344624,34.2331553 35.1832913,33.8443126 C35.3786071,32.1981009 35.9723227,30.6748566 36.8712193,29.3753907 C35.5950081,29.8872008 34.2466633,30.2572107 32.838392,30.4411078 C32.8572578,30.1253808 32.8861112,29.8118694 32.8861112,29.4906034 C32.8861112,24.3592087 30.3791886,19.823818 26.5327991,17 C28.8599424,20.1617013 30.037386,24.2196241 29.3726464,28.575549 C28.3661042,35.1736894 23.042639,40.4878734 16.4329749,41.4926607 C12.0694425,42.1562413 8.00443249,40.9808506 4.8372093,38.6577646 C7.66595909,42.4974481 12.2092708,45 17.3496275,45 L45.0933485,45 L60.2436396,45 Z" id="Fill-13" fill="#E6E6E6"></path>
                        <path d="M48.8292963,26 C50.0983369,23.6189231 50.8372093,20.8609231 50.8372093,17.9101538 C50.8372093,12.6246154 48.4949739,7.94646154 44.8906218,5 C46.7531341,7.69876923 47.8698503,11.0436923 47.8698503,14.6793846 C47.8698503,18.9569231 46.3317691,22.8327692 43.8372093,25.7178462 C44.4979413,25.5476923 45.1834012,25.4486154 45.8916109,25.4486154 C46.9222736,25.4486154 47.9084259,25.6489231 48.8292963,26 Z" id="Fill-14" fill="#E6E6E6"></path>
                    </g>
                    <g id="Gear" filter="url(#filter-4)" transform="translate(24.319678, 38.226136)">
                        <path d="M31.3343707,26 C31.3343707,29.0863083 28.7973993,31.5972222 25.6803225,31.5972222 C22.5626802,31.5972222 20.0262742,29.0863083 20.0262742,26 C20.0262742,22.9136917 22.5626802,20.4027778 25.6803225,20.4027778 C28.7973993,20.4027778 31.3343707,22.9136917 31.3343707,26 Z M41.7836173,22.9853361 L39.1544849,22.4065833 C38.9390657,22.3595667 38.6037806,22.0573167 38.5364974,21.8491 C38.5280164,21.8205542 38.5172737,21.7925681 38.5054002,21.7651417 L37.7799858,20.0199278 C37.7675469,19.9897028 37.7534117,19.9594778 37.7381458,19.9303722 C37.6363729,19.7372681 37.6561621,19.2922889 37.7743317,19.1092597 L39.2206373,16.8591764 C39.8341015,15.90485 39.6814422,14.5307319 38.8740441,13.7308889 L38.0739963,12.9388819 C37.2852565,12.1575097 35.8576094,12.0013472 34.9139487,12.5957722 L32.6404559,14.0269819 C32.5646916,14.0756778 32.3854583,14.1277319 32.1728661,14.1277319 C31.9987214,14.1277319 31.8692437,14.0930292 31.8115724,14.0633639 C31.7827368,14.0476917 31.7516395,14.0342583 31.7205422,14.0219444 L29.9581754,13.3032611 C29.9304706,13.2920667 29.9022003,13.2814319 29.8733647,13.2730361 C29.6635995,13.2064292 29.3577155,12.8745139 29.3102215,12.6607 L28.7261583,10.0585514 C28.4779456,8.95421944 27.3884104,8.08888889 26.2457273,8.08888889 L25.1149176,8.08888889 C23.9716691,8.08888889 22.8826994,8.95421944 22.6350521,10.0579917 L22.0504235,12.6618194 C22.0023641,12.8745139 21.6970455,13.2064292 21.4872803,13.2730361 C21.4584446,13.2814319 21.4301744,13.2920667 21.4019041,13.3032611 L19.6395373,14.0219444 C19.60844,14.0342583 19.5779082,14.0476917 19.5485071,14.0633639 C19.4914012,14.0930292 19.3619235,14.1277319 19.1872134,14.1277319 C18.9746212,14.1277319 18.7953879,14.0751181 18.7190582,14.0269819 L16.4466962,12.5963319 C15.5030356,12.0019069 14.074823,12.1586292 13.2866487,12.9394417 L12.4866008,13.7308889 C11.6786373,14.5312917 11.5265434,15.9054097 12.1400077,16.8597361 L13.5863132,19.1092597 C13.7039174,19.2928486 13.7237066,19.7367083 13.6224991,19.9298125 C13.6072332,19.9594778 13.5925327,19.9897028 13.5800938,20.0199278 L12.8546794,21.7651417 C12.8433713,21.7925681 12.8326286,21.8205542 12.8235821,21.8491 C12.7562989,22.0573167 12.4215793,22.3595667 12.2055946,22.4071431 L9.57702759,22.9847764 C8.46148386,23.2304944 7.587368,24.3085194 7.587368,25.4402778 L7.587368,26.5597222 C7.587368,27.6909208 8.46148386,28.7695056 9.57646218,29.0146639 L12.20616,29.5928569 C12.4215793,29.6404333 12.7562989,29.9426833 12.8235821,30.1509 C12.8326286,30.1794458 12.8433713,30.2074319 12.8546794,30.2348583 L13.5800938,31.9800722 C13.5925327,32.0102972 13.6066678,32.0399625 13.6224991,32.0696278 C13.7237066,32.2621722 13.7039174,32.7071514 13.5857478,32.8907403 L12.1400077,35.1402639 C11.525978,36.0945903 11.6786373,37.4692681 12.4866008,38.2691111 L13.2866487,39.0611181 C14.0742576,39.8402514 15.500774,39.9992125 16.4472616,39.4042278 L18.7184928,37.9730181 C18.7953879,37.9243222 18.9746212,37.8722681 19.1872134,37.8722681 C19.3619235,37.8722681 19.4914012,37.9064111 19.5485071,37.9366361 C19.5784736,37.9511889 19.60844,37.9657417 19.6395373,37.9780556 L21.4019041,38.6967389 C21.4301744,38.7079333 21.4584446,38.7180083 21.4872803,38.7269639 C21.6970455,38.7935708 22.0023641,39.1254861 22.0504235,39.3387403 L22.6350521,41.9414486 C22.8826994,43.0457806 23.9716691,43.9111111 25.1149176,43.9111111 L26.2457273,43.9111111 C27.3884104,43.9111111 28.4773801,43.0457806 28.7255929,41.9414486 L29.3102215,39.3387403 C29.3577155,39.1254861 29.6635995,38.7935708 29.8733647,38.7269639 C29.9022003,38.7180083 29.9304706,38.7079333 29.9581754,38.6967389 L31.7205422,37.9780556 C31.7516395,37.9657417 31.7821714,37.9511889 31.8115724,37.9366361 C31.8692437,37.9064111 31.9987214,37.8722681 32.1723007,37.8722681 C32.3848929,37.8722681 32.5646916,37.9243222 32.6404559,37.9730181 L34.9133833,39.4036681 C35.8564785,39.9992125 37.2852565,39.8413708 38.0739963,39.0611181 L38.8734787,38.2696708 C39.6814422,37.4698278 39.8341015,36.09515 39.2206373,35.1402639 L37.7743317,32.8907403 C37.6561621,32.7071514 37.6363729,32.2627319 37.7381458,32.0701875 C37.7534117,32.0405222 37.7675469,32.0108569 37.7799858,31.9806319 L38.5054002,30.2348583 C38.5172737,30.2074319 38.5280164,30.1794458 38.5364974,30.1509 C38.6037806,29.9426833 38.9390657,29.6404333 39.1550503,29.5928569 L41.7830519,29.0146639 C42.8991611,28.7695056 43.7732769,27.6909208 43.7732769,26.5597222 L43.7732769,25.4402778 C43.7732769,24.3085194 42.8991611,23.2304944 41.7836173,22.9853361 L41.7836173,22.9853361 Z" id="Fill-376" fill="#2B3A47" transform="translate(25.680322, 26.000000) rotate(-45.000000) translate(-25.680322, -26.000000) "></path>
                        <path d="M18.2517357,36.568951 L20.4651322,35.1667221 C20.540068,35.1190104 20.7150411,35.0684874 20.922888,35.0695372 C21.0936984,35.0703999 21.2204564,35.1047585 21.2764384,35.1348903 C21.3058085,35.1494104 21.3351787,35.1639305 21.3656433,35.1762451 L23.0922573,35.8947097 C23.1199523,35.9059048 23.1476418,35.9159944 23.1758785,35.9249811 C23.3812938,35.9917971 23.681453,36.3210999 23.7295033,36.5319443 L24.3140647,39.1052319 C24.5616926,40.1970786 25.6306717,41.057045 26.748402,41.0626902 L27.853971,41.068302 C28.9711484,41.0739165 30.0314951,40.2247046 30.2686592,39.1353064 L30.8272562,36.5677924 C30.8726264,36.3574199 31.1700272,36.0311351 31.374778,35.9663908 C31.4029254,35.9576888 31.4305143,35.9478784 31.4575449,35.9369597 L33.1769894,35.2358998 C33.2073312,35.2238924 33.2371089,35.209671 33.2657811,35.195444 C33.3220144,35.165879 33.4484317,35.1327991 33.6181366,35.1336562 C33.8259835,35.134706 34.0020287,35.1870018 34.0763447,35.2354673 L36.3056743,36.6595821 C37.2306894,37.2523909 38.6267885,37.1035637 39.394031,36.336891 L40.1717205,35.5592158 C40.95766,34.7732908 41.100055,33.4164308 40.4955209,32.4703685 L39.0702777,30.2416266 C38.95383,30.0597331 38.9322658,29.6207325 39.0308066,29.4310807 C39.0455839,29.401859 39.0592555,29.3726318 39.071266,29.3428434 L39.7717807,27.6223222 C39.7832524,27.5952949 39.7936157,27.5677092 39.801765,27.5395596 C39.8665078,27.3342597 40.1928014,27.0374172 40.4037278,26.9914979 L42.9701861,26.4334588 C44.0601598,26.1968548 44.9093847,25.1359749 44.9037703,24.0188179 L44.8981587,22.9132692 C44.8925135,21.7955594 44.0325316,20.7265997 42.940665,20.478976 L40.3673303,19.894425 C40.1564849,19.8469282 39.8271761,19.5467744 39.7603562,19.3408101 C39.751922,19.3125768 39.7412795,19.284885 39.7295342,19.2577404 L39.0116067,17.5306079 C38.9992947,17.5006967 38.9853243,17.4707771 38.970254,17.4419574 C38.8697896,17.2507477 38.8869175,16.8113898 39.0015365,16.6312161 L40.404336,14.4162048 C40.999347,13.4767538 40.8432412,12.1189389 40.0498754,11.3250374 L39.6565273,10.9316965 L31.098642,19.4894236 C32.1047908,20.4955541 32.7319946,21.8806225 32.7396918,23.4046215 C32.7550861,26.4526193 30.2872664,28.9198378 27.2397655,28.904446 C25.7157387,28.8967487 24.330645,28.2695561 23.324499,27.2639784 L14.7671637,35.8211554 L15.159959,36.2144935 C15.9338741,36.9878446 17.3293422,37.1518765 18.2517357,36.568951" id="Fill-377" fill="#152735" transform="translate(29.835467, 25.999999) rotate(-45.000000) translate(-29.835467, -25.999999) "></path>
                        <path d="M26.0930209,32.1863284 C23.0998042,32.1863284 20.6734723,29.5996173 20.6734723,26.4085506 C20.6734723,23.2174839 23.0998042,20.6307728 26.0930209,20.6307728 C29.0862376,20.6307728 31.5125695,23.2174839 31.5125695,26.4085506 C31.5125695,29.5996173 29.0862376,32.1863284 26.0930209,32.1863284 Z" id="Fill-378" fill="#8BA6B1" transform="translate(26.093021, 26.408551) rotate(-45.000000) translate(-26.093021, -26.408551) "></path>
                    </g>
                    <path d="M50,56.2261364 C45.8162779,56.2261364 42.412632,59.8148864 42.412632,64.2261364 C42.412632,68.6371364 45.8162779,72.2261364 50,72.2261364 C54.1837221,72.2261364 57.587368,68.6371364 57.587368,64.2261364 C57.587368,59.8148864 54.1837221,56.2261364 50,56.2261364 L55.4257972,61.6679005" id="Fill-109" fill="#7CB65A"></path>
                    <path d="M53.8289944,61.4898364 C53.4872711,61.1382364 52.9328096,61.1382364 52.5910862,61.4898364 L49.1245345,65.0535364 L47.4089138,63.2898364 C47.0671904,62.9382364 46.5127289,62.9382364 46.1710056,63.2898364 C45.8289904,63.6411364 45.8289904,64.2111364 46.1710056,64.5624364 L48.5055803,66.9624364 C48.6762961,67.1382364 48.9004153,67.2261364 49.1245345,67.2261364 C49.3486536,67.2261364 49.5727728,67.1382364 49.7434886,66.9624364 L53.8289944,62.7624364 C54.1710096,62.4111364 54.1710096,61.8411364 53.8289944,61.4898364" id="Fill-110" fill="#FFFFFE"></path>
                    <g id="Graduate" transform="translate(31.000000, 12.000000)">
                        <path d="M14.982406,13.0988242 L14.982406,18.2729341 C14.982406,18.2729341 14.982406,18.2729341 14.986015,18.2729341 C16.8942857,18.2729341 21.063609,16.2923187 22.0786466,15.7958132 L14.982406,13.0988242" id="Fill-84" stroke="#13202B" stroke-width="0.6" fill="#13202B"></path>
                        <path d="M6.38706767,14.0521868 C6.38706767,14.7726154 6.95729323,15.5061099 7.65879699,15.6827253 C7.65879699,15.6827253 12.7971429,18.272033 14.978797,18.272033 C14.9796992,18.272033 14.9815038,18.272033 14.9815038,18.272033 L14.9815038,13.0988242 L6.38706767,9.83279121 L6.38706767,14.0521868" id="Fill-81" stroke="#1E3346" stroke-width="0.6" fill="#1E3346"></path>
                        <path d="M14.9815038,12.8636374 L14.9815038,11.7264505 C14.537594,11.7264505 14.0923308,11.6611209 13.753985,11.530011 L6.38706767,8.6956044 L6.38706767,9.83279121 L14.9815038,13.0988242 L14.9815038,12.8636374" id="Fill-82" stroke="#0B1720" stroke-width="0.6" fill="#0E171F"></path>
                        <path d="M22.3051128,15.6840769 C23.0075188,15.5047582 23.5777444,14.7717143 23.5777444,14.0508352 L23.5777444,8.69425275 L16.2081203,11.5282088 C15.8724812,11.6611209 15.427218,11.7273516 14.982406,11.7273516 L14.982406,13.0988242 L22.0786466,15.7958132 C22.2243609,15.7246264 22.3051128,15.6840769 22.3051128,15.6840769" id="Fill-83" stroke="#0B1720" stroke-width="0.6" fill="#0E171F"></path>
                        <path d="M15.8476692,5.85353846 C15.8476692,6.16712088 15.4263158,6.42213187 14.9075188,6.42213187 C14.3878195,6.42213187 13.9673684,6.16712088 13.9673684,5.85353846 C13.9673684,5.5386044 14.3878195,5.28449451 14.9075188,5.28449451 C15.4263158,5.28449451 15.8476692,5.5386044 15.8476692,5.85353846" id="Fill-85" fill="#0E171F"></path>
                        <path d="M25.1607519,7.95535165 L25.5257143,7.65889011 L15.0406015,5.47642857 C14.8403008,5.43407692 14.6485714,5.56158242 14.6088722,5.75892308 L25.1607519,7.93823077 L25.1607519,7.95535165" id="Fill-86" fill="#27435C"></path>
                        <path d="M25.1607519,7.95535165 L25.1607519,15.775989 C25.3619549,15.775989 25.5257143,15.6124396 25.5257143,15.411044 L25.5257143,7.65889011 L25.1607519,7.95535165" id="Fill-87" fill="#13202B"></path>
                        <path d="M24.7953383,8.25226374 L24.7953383,15.411044 C24.7953383,15.6124396 24.9581955,15.775989 25.1607519,15.775989 L25.1607519,7.95535165 L24.7953383,8.25226374" id="Fill-88" fill="#27435C"></path>
                        <path d="M25.1607519,7.93823077 L14.6088722,5.75892308 C14.5664662,5.95626374 14.6932331,6.1490989 14.8917293,6.1900989 L24.7953383,8.25226374 L25.1607519,7.95535165 L25.1607519,7.93823077" id="Fill-89" fill="#0E171F"></path>
                        <path d="M24.2666165,16.8631648 C23.9792481,17.3411978 23.7933835,18.035044 23.7933835,18.8208022 C23.7933835,19.3781319 23.8858647,19.8908571 24.0410526,20.3148242 L25.1607519,20.3148242 L25.1607519,16.8631648 L24.2666165,16.8631648" id="Fill-90" fill="#E49306"></path>
                        <path d="M26.5276692,18.8208022 C26.5276692,18.035044 26.3418045,17.3416484 26.0544361,16.8631648 L25.1607519,16.8631648 L25.1607519,20.3148242 L26.2809023,20.3148242 C26.4360902,19.8908571 26.5276692,19.3781319 26.5276692,18.8208022" id="Fill-91" fill="#BA7805"></path>
                        <path d="M25.1607519,16.6991648 L26.0413534,16.6991648 C26.1027068,16.5721099 26.146015,16.4342418 26.146015,16.2837582 C26.146015,15.8602418 25.8780451,15.502956 25.5027068,15.3637363 L25.1607519,15.3637363 L25.1607519,16.6991648" id="Fill-92" fill="#E49306"></path>
                        <path d="M25.1607519,15.3637363 L24.8183459,15.3637363 C24.4430075,15.502956 24.1759398,15.8602418 24.1759398,16.2837582 C24.1759398,16.4342418 24.2183459,16.5721099 24.2796992,16.6991648 L25.1607519,16.6991648 L25.1607519,15.3637363" id="Fill-93" fill="#F5B400"></path>
                        <path d="M25.1607519,16.8631648 L26.0544361,16.8631648 C26.0386466,16.8361319 26.0228571,16.8068462 26.0057143,16.7811648 C26.0210526,16.7554835 26.0287218,16.7261978 26.0413534,16.6991648 L25.1607519,16.6991648 L25.1607519,16.8631648" id="Fill-94" fill="#13202B"></path>
                        <path d="M25.1607519,16.6991648 L24.2796992,16.6991648 C24.2932331,16.7261978 24.3,16.7554835 24.3148872,16.7811648 C24.2981955,16.8068462 24.2833083,16.8361319 24.2666165,16.8631648 L25.1607519,16.8631648 L25.1607519,16.6991648" id="Fill-95" fill="#1E3346"></path>
                        <g id="Fill-80">
                            <use fill="black" fill-opacity="1" filter="url(#filter-6)" xlink:href="#path-5"></use>
                            <use fill="#1E3346" fill-rule="evenodd" xlink:href="#path-5"></use>
                        </g>
                    </g>
                </g>
                <g id="Azure-Border">
                    <path d="M50,0 C74.5263677,-4.50542066e-15 94.9281966,17.6592499 99.1842495,40.9565123 L94.2027317,73.3905473 C85.8096395,89.2186645 69.1638777,100 50,100 C30.9551233,100 14.3971863,89.3521454 5.95457608,73.6848234 L0.0261464987,48.3675131 C0.887696267,21.508872 22.932015,4.97230817e-15 50,0 Z" id="Combined-Shape" fill="url(#linearGradient-7)" fill-rule="evenodd" opacity="0.400000006" style="mix-blend-mode: overlay;"></path>
                    <g>
                        <use fill="black" fill-opacity="1" filter="url(#filter-9)" xlink:href="#path-8"></use>
                        <rect stroke="#F2F1F0" stroke-width="4" stroke-linejoin="square" x="-1" y="-1" width="102" height="102" rx="51"></rect>
                    </g>
                    <rect stroke="#0078D4" stroke-width="4" x="2" y="2" width="96" height="96" rx="48"></rect>
                </g>
            </g>
        </g>
    </g>
</svg>