<?xml version="1.0" encoding="UTF-8"?>
<svg width="107px" height="107px" viewBox="0 0 107 107" version="1.1" xmlns="http://www.w3.org/2000/svg" xmlns:xlink="http://www.w3.org/1999/xlink">
    <!-- Generator: Sketch 61.2 (89653) - https://sketch.com -->
    <title>Safeguard cloud resources with Carnegie Mellon/Cloud-security</title>
    <desc>Created with Sketch.</desc>
    <defs>
        <rect id="path-1" x="0" y="0" width="100" height="100" rx="50"></rect>
        <filter x="-5.6%" y="-8.9%" width="111.1%" height="117.8%" filterUnits="objectBoundingBox" id="filter-3">
            <feOffset dx="0" dy="2" in="SourceAlpha" result="shadowOffsetOuter1"></feOffset>
            <feColorMatrix values="0 0 0 0 0   0 0 0 0 0   0 0 0 0 0  0 0 0 0.0964956975 0" type="matrix" in="shadowOffsetOuter1" result="shadowMatrixOuter1"></feColorMatrix>
            <feMerge>
                <feMergeNode in="shadowMatrixOuter1"></feMergeNode>
                <feMergeNode in="SourceGraphic"></feMergeNode>
            </feMerge>
        </filter>
        <filter x="-11.1%" y="-9.5%" width="122.2%" height="119.0%" filterUnits="objectBoundingBox" id="filter-4">
            <feOffset dx="0" dy="2" in="SourceAlpha" result="shadowOffsetOuter1"></feOffset>
            <feColorMatrix values="0 0 0 0 0   0 0 0 0 0   0 0 0 0 0  0 0 0 0.102921196 0" type="matrix" in="shadowOffsetOuter1" result="shadowMatrixOuter1"></feColorMatrix>
            <feMerge>
                <feMergeNode in="shadowMatrixOuter1"></feMergeNode>
                <feMergeNode in="SourceGraphic"></feMergeNode>
            </feMerge>
        </filter>
        <path d="M29.4184962,5.50120879 L16.2054135,0.415406593 C15.5305263,0.153186813 14.4297744,0.153186813 13.753985,0.415406593 L0.54,5.50120879 C-0.127669173,5.76342857 -0.127669173,6.18243956 0.54,6.44420879 L13.753985,11.530011 C14.4297744,11.7917802 15.5305263,11.7917802 16.2054135,11.530011 L29.4184962,6.44420879 C30.0924812,6.18243956 30.0924812,5.76342857 29.4184962,5.50120879" id="path-5"></path>
        <filter x="-1.7%" y="-4.3%" width="103.3%" height="117.4%" filterUnits="objectBoundingBox" id="filter-6">
            <feOffset dx="0" dy="1" in="SourceAlpha" result="shadowOffsetOuter1"></feOffset>
            <feColorMatrix values="0 0 0 0 0.0549019608   0 0 0 0 0.0901960784   0 0 0 0 0.121568627  0 0 0 1 0" type="matrix" in="shadowOffsetOuter1"></feColorMatrix>
        </filter>
        <linearGradient x1="78.4210223%" y1="-7.24023438%" x2="15.5786468%" y2="110.793945%" id="linearGradient-7">
            <stop stop-color="#FFFFFF" offset="0%"></stop>
            <stop stop-color="#000000" stop-opacity="0.5" offset="100%"></stop>
        </linearGradient>
        <rect id="path-8" x="-3" y="-3" width="106" height="106" rx="53"></rect>
        <filter x="-0.5%" y="-0.5%" width="101.9%" height="101.9%" filterUnits="objectBoundingBox" id="filter-9">
            <feOffset dx="1" dy="1" in="SourceAlpha" result="shadowOffsetOuter1"></feOffset>
            <feMorphology radius="4" operator="erode" in="SourceAlpha" result="shadowInner"></feMorphology>
            <feOffset dx="1" dy="1" in="shadowInner" result="shadowInner"></feOffset>
            <feComposite in="shadowOffsetOuter1" in2="shadowInner" operator="out" result="shadowOffsetOuter1"></feComposite>
            <feColorMatrix values="0 0 0 0 0   0 0 0 0 0   0 0 0 0 0  0 0 0 0.15 0" type="matrix" in="shadowOffsetOuter1"></feColorMatrix>
        </filter>
    </defs>
    <g id="Badges" stroke="none" stroke-width="1" fill="none" fill-rule="evenodd">
        <g id="Safeguard-cloud-resources-with-Carnegie-Mellon" transform="translate(-47.000000, -457.000000)">
            <g id="Safeguard-cloud-resources-with-Carnegie-Mellon/Cloud-security" transform="translate(50.000000, 460.000000)">
                <g id="Mask" transform="translate(2.000000, 2.000000)">
                    <g id="Circle-" transform="translate(-2.000000, -0.000000)">
                        <mask id="mask-2" fill="white">
                            <use xlink:href="#path-1"></use>
                        </mask>
                        <g id="BG"></g>
                        <g id="Color/Blue" mask="url(#mask-2)" fill="#55A2FF" fill-rule="evenodd">
                            <rect id="Rectangle" x="0" y="0" width="100" height="100"></rect>
                        </g>
                    </g>
                    <g id="One-Cloud" filter="url(#filter-3)" transform="translate(13.000000, 22.000000)">
                        <path d="M15.75,13.5 C15.863625,13.5 15.973875,13.514625 16.086375,13.516875 C17.643375,5.806125 24.45525,0 32.625,0 C39.9285,0 46.1295,4.647375 48.4785,11.13975 C49.8105,10.49625 51.29775,10.125 52.875,10.125 C58.467375,10.125 63,14.657625 63,20.25 C63,20.40975 62.983125,20.563875 62.976375,20.721375 C68.180625,22.185 72,26.953875 72,32.625 C72,39.459375 66.459375,45 59.625,45 L15.75,45 C7.0515,45 0,37.9485 0,29.25 C0,20.5515 7.0515,13.5 15.75,13.5" id="Fill-11" fill="#FFFFFF"></path>
                        <path d="M60.5909702,20.5545596 C61.4133298,20.6165238 62.2098898,20.766173 62.9774254,21 C62.9838753,20.8363211 63,20.6761496 63,20.5101325 C63,17.0074045 61.4197796,13.9127046 59,12 C60.1588283,13.7349961 60.8500403,15.8628215 60.8500403,18.1718628 C60.8500403,18.9925955 60.7543671,19.7876072 60.5909702,20.5545596" id="Fill-12" fill="#C4CBCD"></path>
                        <path d="M59.2212308,45 C66.8218672,45 71.7532491,39.8774679 71.9919756,33.2571711 C72.1507513,28.861365 69.9402785,24.9618595 66.5181558,22.6974876 C68.2218977,25.1878536 69.0157761,28.3285064 68.4302204,31.6630267 C67.6115685,36.3236004 63.9766188,40.156637 59.3113163,41.2999011 C56.7044673,41.9391098 54.2090991,41.7297329 51.9986263,40.9365381 C53.24068,39.2825717 53.9827593,37.2441939 53.9827593,35.0296736 C53.9827593,31.7106627 52.3274383,28.7782789 49.7926577,26.9658952 C51.3207329,29.0352918 52.0729468,31.6951533 51.5808548,34.5422354 C50.8736837,38.6389318 47.5191251,41.9402176 43.3560492,42.6370326 C42.4912285,42.7810485 41.6432987,42.8164985 40.8235207,42.7555687 C37.6108468,42.5140653 34.9612072,40.1931949 34.0671087,37.147814 C33.8576599,36.4321662 33.7135231,35.6987933 33.7135231,35.0296736 C33.7135231,34.6275371 33.7428009,34.2331553 33.7923479,33.8443126 C33.990536,32.1981009 34.5929828,30.6748566 35.5050984,29.3753907 C34.2101194,29.8872008 32.841946,30.2572107 31.4129648,30.4411078 C31.432108,30.1253808 31.4613858,29.8118694 31.4613858,29.4906034 C31.4613858,24.3592087 28.9175966,19.823818 25.0146426,17 C27.3760086,20.1617013 28.5707675,24.2196241 27.8962523,28.575549 C26.8749081,35.1736894 21.4731566,40.4878734 14.7662916,41.4926607 C10.3385896,42.1562413 6.2138,40.9808506 3,38.6577646 C5.87034905,42.4974481 10.4804742,45 15.6964243,45 L43.8481412,45 L59.2212308,45 Z" id="Fill-13" fill="#E6E6E6"></path>
                        <path d="M44.3478875,24.422359 C45.5257878,24.422359 46.652819,24.6322051 47.7052423,25 C49.1555744,22.5055385 50,19.6162051 50,16.5249231 C50,10.9876923 47.3231595,6.08676923 43.2039,3 C45.3324855,5.82728205 46.6087325,9.33148718 46.6087325,13.1403077 C46.6087325,17.6215385 44.8509255,21.6819487 42,24.7044103 C42.7551222,24.5261538 43.538505,24.422359 44.3478875,24.422359" id="Fill-14" fill="#E6E6E6"></path>
                    </g>
                    <g id="Shield" filter="url(#filter-4)" transform="translate(31.000000, 42.000000)">
                        <path d="M17.5,1 C14.04028,5.00533333 7.9465,6.33333333 1,6.33333333 L1,17 C1,27.9973333 5.82592,35.0746667 17.5,41 C29.17342,35.0746667 34,27.9973333 34,17 L34,6.33333333 C27.05416,6.33333333 20.95972,5.00533333 17.5,1" id="Fill-22" fill="#7CB65A"></path>
                        <path d="M17.5526316,1 L17.5526316,28.3333333 C13.0513158,28.3333333 9.37039474,24.8066667 9.03289474,20.3333333 C9.01644737,20.554 9,20.7746667 9,21 C9,25.216 11.9717105,28.73 15.9085526,29.5066667 C16.8532895,29.6933333 17.5526316,30.5006667 17.5526316,31.476 L17.5526316,41 C29.1888158,35.0746667 34,27.9973333 34,17 L34,6.33333333 C27.0763158,6.33333333 21.0013158,5.00533333 17.5526316,1" id="Fill-23" fill="#629E3F"></path>
                        <path d="M2.66666667,7.84166468 L2.66666667,17.0501287 C2.66666667,27.2199952 7.12,33.680095 18,39.2129171 C28.88,33.680095 33.3333333,27.2199952 33.3333333,17.0501287 L33.3333333,7.84166468 C26.3246667,7.67235284 21.2826667,6.13673384 18,3.16983918 C14.7173333,6.13673384 9.67533333,7.67235284 2.66666667,7.84166468 Z M18,42 C17.7946667,42 17.59,41.9534064 17.4013333,41.8602193 C5.20466667,35.8240554 0,28.4038656 0,17.0501287 L0,6.54491975 C0,5.81976633 0.596666667,5.23176863 1.33333333,5.23176863 C9.00933333,5.23176863 14.132,3.66071226 16.9953333,0.428693638 C17.502,-0.142897879 18.498,-0.142897879 19.0046667,0.428693638 C21.868,3.66071226 26.9906667,5.23176863 34.6666667,5.23176863 C35.4026667,5.23176863 36,5.81976633 36,6.54491975 L36,17.0501287 C36,28.4038656 30.7953333,35.8240554 18.5986667,41.8602193 C18.41,41.9534064 18.2053333,42 18,42 L18,42 Z" id="Fill-24" fill="#629E3F"></path>
                        <path d="M26,19.5 C26,24.1939615 22.1946154,28 17.5,28 C12.8053846,28 9,24.1939615 9,19.5 C9,14.8060385 12.8053846,11 17.5,11 C22.1946154,11 26,14.8060385 26,19.5" id="Fill-25" fill="#FFFFFE"></path>
                        <path d="M22.3954807,16.3905163 C21.906983,15.8698279 21.1145033,15.8698279 20.626631,16.3905163 L16.5034849,20.7853661 L15.0142236,19.2119672 C14.9785714,19.1586316 14.9422937,19.1052961 14.8966338,19.0572941 C14.4081361,18.5366057 13.6156564,18.5366057 13.1277841,19.0572941 C12.6436647,19.5713155 12.6405373,20.4046835 13.1146491,20.9267053 L13.0996377,20.9427059 L15.6228129,23.6094837 C16.1113107,24.1301721 16.9037904,24.1301721 17.3922881,23.6094837 L22.3917279,18.2792616 C22.3929788,18.2785949 22.3942298,18.2772616 22.3954807,18.2759282 C22.8839785,17.7552398 22.8839785,16.9098712 22.3954807,16.3905163" id="Fill-26" fill="#7CB65A"></path>
                    </g>
                    <g id="Graduate" transform="translate(31.000000, 11.000000)">
                        <path d="M14.982406,13.0988242 L14.982406,18.2729341 C14.982406,18.2729341 14.982406,18.2729341 14.986015,18.2729341 C16.8942857,18.2729341 21.063609,16.2923187 22.0786466,15.7958132 L14.982406,13.0988242" id="Fill-84" stroke="#13202B" stroke-width="0.6" fill="#13202B"></path>
                        <path d="M6.38706767,14.0521868 C6.38706767,14.7726154 6.95729323,15.5061099 7.65879699,15.6827253 C7.65879699,15.6827253 12.7971429,18.272033 14.978797,18.272033 C14.9796992,18.272033 14.9815038,18.272033 14.9815038,18.272033 L14.9815038,13.0988242 L6.38706767,9.83279121 L6.38706767,14.0521868" id="Fill-81" stroke="#1E3346" stroke-width="0.6" fill="#1E3346"></path>
                        <path d="M14.9815038,12.8636374 L14.9815038,11.7264505 C14.537594,11.7264505 14.0923308,11.6611209 13.753985,11.530011 L6.38706767,8.6956044 L6.38706767,9.83279121 L14.9815038,13.0988242 L14.9815038,12.8636374" id="Fill-82" stroke="#0B1720" stroke-width="0.6" fill="#0E171F"></path>
                        <path d="M22.3051128,15.6840769 C23.0075188,15.5047582 23.5777444,14.7717143 23.5777444,14.0508352 L23.5777444,8.69425275 L16.2081203,11.5282088 C15.8724812,11.6611209 15.427218,11.7273516 14.982406,11.7273516 L14.982406,13.0988242 L22.0786466,15.7958132 C22.2243609,15.7246264 22.3051128,15.6840769 22.3051128,15.6840769" id="Fill-83" stroke="#0B1720" stroke-width="0.6" fill="#0E171F"></path>
                        <path d="M15.8476692,5.85353846 C15.8476692,6.16712088 15.4263158,6.42213187 14.9075188,6.42213187 C14.3878195,6.42213187 13.9673684,6.16712088 13.9673684,5.85353846 C13.9673684,5.5386044 14.3878195,5.28449451 14.9075188,5.28449451 C15.4263158,5.28449451 15.8476692,5.5386044 15.8476692,5.85353846" id="Fill-85" fill="#0E171F"></path>
                        <path d="M25.1607519,7.95535165 L25.5257143,7.65889011 L15.0406015,5.47642857 C14.8403008,5.43407692 14.6485714,5.56158242 14.6088722,5.75892308 L25.1607519,7.93823077 L25.1607519,7.95535165" id="Fill-86" fill="#27435C"></path>
                        <path d="M25.1607519,7.95535165 L25.1607519,15.775989 C25.3619549,15.775989 25.5257143,15.6124396 25.5257143,15.411044 L25.5257143,7.65889011 L25.1607519,7.95535165" id="Fill-87" fill="#13202B"></path>
                        <path d="M24.7953383,8.25226374 L24.7953383,15.411044 C24.7953383,15.6124396 24.9581955,15.775989 25.1607519,15.775989 L25.1607519,7.95535165 L24.7953383,8.25226374" id="Fill-88" fill="#27435C"></path>
                        <path d="M25.1607519,7.93823077 L14.6088722,5.75892308 C14.5664662,5.95626374 14.6932331,6.1490989 14.8917293,6.1900989 L24.7953383,8.25226374 L25.1607519,7.95535165 L25.1607519,7.93823077" id="Fill-89" fill="#0E171F"></path>
                        <path d="M24.2666165,16.8631648 C23.9792481,17.3411978 23.7933835,18.035044 23.7933835,18.8208022 C23.7933835,19.3781319 23.8858647,19.8908571 24.0410526,20.3148242 L25.1607519,20.3148242 L25.1607519,16.8631648 L24.2666165,16.8631648" id="Fill-90" fill="#E49306"></path>
                        <path d="M26.5276692,18.8208022 C26.5276692,18.035044 26.3418045,17.3416484 26.0544361,16.8631648 L25.1607519,16.8631648 L25.1607519,20.3148242 L26.2809023,20.3148242 C26.4360902,19.8908571 26.5276692,19.3781319 26.5276692,18.8208022" id="Fill-91" fill="#BA7805"></path>
                        <path d="M25.1607519,16.6991648 L26.0413534,16.6991648 C26.1027068,16.5721099 26.146015,16.4342418 26.146015,16.2837582 C26.146015,15.8602418 25.8780451,15.502956 25.5027068,15.3637363 L25.1607519,15.3637363 L25.1607519,16.6991648" id="Fill-92" fill="#E49306"></path>
                        <path d="M25.1607519,15.3637363 L24.8183459,15.3637363 C24.4430075,15.502956 24.1759398,15.8602418 24.1759398,16.2837582 C24.1759398,16.4342418 24.2183459,16.5721099 24.2796992,16.6991648 L25.1607519,16.6991648 L25.1607519,15.3637363" id="Fill-93" fill="#F5B400"></path>
                        <path d="M25.1607519,16.8631648 L26.0544361,16.8631648 C26.0386466,16.8361319 26.0228571,16.8068462 26.0057143,16.7811648 C26.0210526,16.7554835 26.0287218,16.7261978 26.0413534,16.6991648 L25.1607519,16.6991648 L25.1607519,16.8631648" id="Fill-94" fill="#13202B"></path>
                        <path d="M25.1607519,16.6991648 L24.2796992,16.6991648 C24.2932331,16.7261978 24.3,16.7554835 24.3148872,16.7811648 C24.2981955,16.8068462 24.2833083,16.8361319 24.2666165,16.8631648 L25.1607519,16.8631648 L25.1607519,16.6991648" id="Fill-95" fill="#1E3346"></path>
                        <g id="Fill-80">
                            <use fill="black" fill-opacity="1" filter="url(#filter-6)" xlink:href="#path-5"></use>
                            <use fill="#1E3346" fill-rule="evenodd" xlink:href="#path-5"></use>
                        </g>
                    </g>
                </g>
                <g id="Azure-Border">
                    <path d="M50,0 C74.5263677,-4.50542066e-15 94.9281966,17.6592499 99.1842495,40.9565123 L94.2027317,73.3905473 C85.8096395,89.2186645 69.1638777,100 50,100 C30.9551233,100 14.3971863,89.3521454 5.95457608,73.6848234 L0.0261464987,48.3675131 C0.887696267,21.508872 22.932015,4.97230817e-15 50,0 Z" id="Combined-Shape" fill="url(#linearGradient-7)" fill-rule="evenodd" opacity="0.400000006" style="mix-blend-mode: overlay;"></path>
                    <g>
                        <use fill="black" fill-opacity="1" filter="url(#filter-9)" xlink:href="#path-8"></use>
                        <rect stroke="#F2F1F0" stroke-width="4" stroke-linejoin="square" x="-1" y="-1" width="102" height="102" rx="51"></rect>
                    </g>
                    <rect stroke="#0078D4" stroke-width="4" x="2" y="2" width="96" height="96" rx="48"></rect>
                </g>
            </g>
        </g>
    </g>
</svg>