<svg xmlns="http://www.w3.org/2000/svg" xmlns:xlink="http://www.w3.org/1999/xlink" viewBox="0 0 286.26 215.7">
  <defs>
    <linearGradient id="linear-gradient" x1="130.81" y1="100.31" x2="130.81" y2="26.63" gradientUnits="userSpaceOnUse">
      <stop offset="0"/>
      <stop offset="1" stop-color="#fff"/>
    </linearGradient>
    <linearGradient id="linear-gradient-2" x1="146.23" y1="109.94" x2="201.44" y2="109.94" xlink:href="#linear-gradient"/>
    <linearGradient id="linear-gradient-3" x1="70.43" y1="109.94" x2="120.86" y2="109.94" gradientUnits="userSpaceOnUse">
      <stop offset="0" stop-color="#fff"/>
      <stop offset="1"/>
    </linearGradient>
    <linearGradient id="linear-gradient-4" x1="87.19" y1="106.69" x2="87.19" y2="80.08" xlink:href="#linear-gradient"/>
    <linearGradient id="linear-gradient-5" x1="94.25" y1="103.08" x2="94.25" y2="52.59" xlink:href="#linear-gradient"/>
    <linearGradient id="linear-gradient-6" x1="109.91" y1="100.81" x2="109.91" y2="38.91" xlink:href="#linear-gradient"/>
    <linearGradient id="linear-gradient-7" x1="170.92" y1="106.69" x2="170.92" y2="83.89" xlink:href="#linear-gradient"/>
    <linearGradient id="linear-gradient-8" x1="163.53" y1="103.08" x2="163.53" y2="61.79" xlink:href="#linear-gradient"/>
    <linearGradient id="linear-gradient-9" x1="154.07" y1="100.81" x2="154.07" y2="36.69" xlink:href="#linear-gradient"/>
    <linearGradient id="linear-gradient-10" x1="179.12" y1="142.97" x2="179.12" y2="114.19" xlink:href="#linear-gradient-3"/>
    <linearGradient id="linear-gradient-11" x1="166.54" y1="164.01" x2="166.54" y2="117.81" xlink:href="#linear-gradient-3"/>
    <linearGradient id="linear-gradient-12" x1="153.45" y1="182.05" x2="153.45" y2="120.07" xlink:href="#linear-gradient-3"/>
    <linearGradient id="linear-gradient-13" x1="86.76" y1="141.11" x2="86.76" y2="114.19" xlink:href="#linear-gradient-3"/>
    <linearGradient id="linear-gradient-14" x1="93.77" y1="169.1" x2="93.77" y2="117.81" xlink:href="#linear-gradient-3"/>
    <linearGradient id="linear-gradient-15" x1="106.96" y1="192.19" x2="106.96" y2="120.07" xlink:href="#linear-gradient-3"/>
    <linearGradient id="linear-gradient-16" x1="132.41" y1="190.62" x2="132.41" y2="120.28" xlink:href="#linear-gradient-3"/>
    <linearGradient id="linear-gradient-17" x1="141.66" y1="228.68" x2="127.53" y2="255.45" gradientTransform="matrix(1, 0, 0, -1, 0, 336.29)" gradientUnits="userSpaceOnUse">
      <stop offset="0" stop-color="#1988d9"/>
      <stop offset="0.9" stop-color="#54aef0"/>
    </linearGradient>
    <linearGradient id="linear-gradient-18" x1="135.58" y1="236.46" x2="145.35" y2="219.61" gradientTransform="matrix(1, 0, 0, -1, 0, 336.29)" gradientUnits="userSpaceOnUse">
      <stop offset="0.1" stop-color="#54aef0"/>
      <stop offset="0.29" stop-color="#4fabee"/>
      <stop offset="0.51" stop-color="#41a2e9"/>
      <stop offset="0.74" stop-color="#2a93e0"/>
      <stop offset="0.88" stop-color="#1988d9"/>
    </linearGradient>
    <linearGradient id="linear-gradient-19" x1="81.13" y1="200.69" x2="81.13" y2="208.56" gradientUnits="userSpaceOnUse">
      <stop offset="0" stop-color="#86bbe5"/>
      <stop offset="1" stop-color="#116cb3"/>
    </linearGradient>
    <clipPath id="clip-path">
      <path d="M219.93,75.84V87.65a.77.77,0,0,0,.8.71h2.18a.78.78,0,0,0,.81-.71V75.84a1.91,1.91,0,0,0-3.78,0" fill="none"/>
    </clipPath>
    <clipPath id="clip-path-2">
      <path d="M213.78,84.82l7.09-12.27,9,5.18L222.77,90Z" fill="none"/>
    </clipPath>
    <clipPath id="clip-path-3">
      <path d="M210,75.84V87.65a.75.75,0,0,1-.79.71h-2.2a.76.76,0,0,1-.79-.71V75.84a1.91,1.91,0,0,1,3.78,0" fill="none"/>
    </clipPath>
    <clipPath id="clip-path-4">
      <path d="M200.12,77.73l9-5.18,7.09,12.27-9,5.19Z" fill="none"/>
    </clipPath>
    <linearGradient id="linear-gradient-20" y1="244.23" x2="67.91" y2="244.23" gradientTransform="translate(0 -140.11)" gradientUnits="userSpaceOnUse">
      <stop offset="0.01" stop-color="#5bc0a4"/>
      <stop offset="1" stop-color="#211646"/>
    </linearGradient>
  </defs>
  <title>2-azure-ad</title>
  <g id="Shapes">
    <rect width="286.26" height="215.7" fill="#fff"/>
    <g>
      <line x1="130.81" y1="100.31" x2="130.81" y2="26.63" fill="none" stroke-miterlimit="10" stroke-dasharray="1 2" stroke="url(#linear-gradient)"/>
      <line x1="201.44" y1="109.94" x2="146.23" y2="109.94" fill="none" stroke-miterlimit="10" stroke-dasharray="1 2" stroke="url(#linear-gradient-2)"/>
      <line x1="120.86" y1="109.94" x2="70.43" y2="109.94" fill="none" stroke-miterlimit="10" stroke-dasharray="1 2" stroke="url(#linear-gradient-3)"/>
      <line x1="122.45" y1="106.22" x2="51.92" y2="80.55" fill="none" stroke-miterlimit="10" stroke-dasharray="1 2" stroke="url(#linear-gradient-4)"/>
      <line x1="123.87" y1="102.69" x2="64.62" y2="52.98" fill="none" stroke-miterlimit="10" stroke-dasharray="1 2" stroke="url(#linear-gradient-5)"/>
      <line x1="127.63" y1="100.56" x2="92.18" y2="39.16" fill="none" stroke-miterlimit="10" stroke-dasharray="1 2" stroke="url(#linear-gradient-6)"/>
      <line x1="140.89" y1="106.22" x2="200.95" y2="84.36" fill="none" stroke-miterlimit="10" stroke-dasharray="1 2" stroke="url(#linear-gradient-7)"/>
      <line x1="139.47" y1="102.69" x2="187.59" y2="62.17" fill="none" stroke-miterlimit="10" stroke-dasharray="1 2" stroke="url(#linear-gradient-8)"/>
      <line x1="135.7" y1="100.56" x2="172.44" y2="36.94" fill="none" stroke-miterlimit="10" stroke-dasharray="1 2" stroke="url(#linear-gradient-9)"/>
      <line x1="140.89" y1="114.66" x2="217.35" y2="142.5" fill="none" stroke-miterlimit="10" stroke-dasharray="1 2" stroke="url(#linear-gradient-10)"/>
      <line x1="139.47" y1="118.19" x2="193.61" y2="163.62" fill="none" stroke-miterlimit="10" stroke-dasharray="1 2" stroke="url(#linear-gradient-11)"/>
      <line x1="135.7" y1="120.32" x2="171.2" y2="181.8" fill="none" stroke-miterlimit="10" stroke-dasharray="1 2" stroke="url(#linear-gradient-12)"/>
      <line x1="122.45" y1="114.66" x2="51.08" y2="140.64" fill="none" stroke-miterlimit="10" stroke-dasharray="1 2" stroke="url(#linear-gradient-13)"/>
      <line x1="123.87" y1="118.19" x2="63.66" y2="168.71" fill="none" stroke-miterlimit="10" stroke-dasharray="1 2" stroke="url(#linear-gradient-14)"/>
      <line x1="127.63" y1="120.32" x2="86.29" y2="191.94" fill="none" stroke-miterlimit="10" stroke-dasharray="1 2" stroke="url(#linear-gradient-15)"/>
      <line x1="132.41" y1="120.28" x2="132.41" y2="190.62" fill="none" stroke-miterlimit="10" stroke-dasharray="1 2" stroke="url(#linear-gradient-16)"/>
    </g>
    <g>
      <ellipse cx="133.18" cy="113.4" rx="52.57" ry="27.5" transform="translate(-41.18 127.39) rotate(-45)" fill="#fff"/>
      <ellipse cx="133.18" cy="113.4" rx="52.57" ry="27.5" transform="translate(-41.18 127.39) rotate(-45)" fill="#3c3c41" opacity="0.15"/>
    </g>
    <g>
      <polygon points="104.28 98.98 128.46 114.67 153.06 98.92 156.15 102.52 128.46 120.35 101.2 102.52 104.28 98.98" fill="#50e6ff"/>
      <polygon points="106.12 96.97 128.46 70.35 151.26 97 128.46 111.41 106.12 96.97" fill="#fff"/>
      <polygon points="128.46 70.35 128.46 111.41 106.12 96.97 128.46 70.35" fill="#50e6ff"/>
      <polygon points="128.46 70.35 128.46 111.41 151.26 97 128.46 70.35" fill="url(#linear-gradient-17)"/>
      <polygon points="128.46 91.56 151.26 97 128.46 111.41 128.46 91.56" fill="#53b1e0"/>
      <polygon points="128.46 111.41 106.12 96.97 128.46 91.56 128.46 111.41" fill="#9cebff"/>
      <polygon points="128.46 120.35 156.15 102.52 153.06 98.92 128.46 114.67 128.46 120.35" fill="url(#linear-gradient-18)"/>
    </g>
    <g>
      <polygon points="123.19 21.7 144.81 21.7 133.17 1.54 129.63 11.27 136.42 19.37 123.19 21.7"/>
      <polygon points="132.24 0 123.93 6.98 116.81 19.32 123.23 19.32 123.23 19.34 132.24 0"/>
    </g>
    <g>
      <polygon points="181.83 12.86 169.65 17.43 169.62 17.43 169.62 31.11 173.78 29.48 173.78 18.36 181.83 16.43 181.83 32.79 169.63 31.11 181.83 35.62 181.83 35.62 188.61 33.74 188.61 33.72 188.61 33.72 188.61 33.72 188.61 33.72 188.61 14.81 181.83 12.86" fill="#fff"/>
      <polygon points="188.62 14.83 188.62 33.74 181.84 35.62 169.63 31.11 181.8 32.8 181.8 16.45 173.78 18.36 173.78 29.47 169.62 31.11 169.62 17.43 181.8 12.85 188.62 14.83" fill="#d83b01"/>
    </g>
    <g>
      <path d="M81.16,193.61a11.27,11.27,0,0,1,9.92,6.23H80.6s-2-.06-3.66,2.34a4.88,4.88,0,0,0-.42,4.08c-.84-1.43-4.48-7.75-4.48-7.75A10.94,10.94,0,0,1,81.16,193.61Z" fill="#e53029"/>
      <path d="M90.74,210.16a11.27,11.27,0,0,1-10.35,5.48l5.24-9.07s1-1.68-.19-4.34a4.94,4.94,0,0,0-3.33-2.41h9A10.93,10.93,0,0,1,90.74,210.16Z" fill="#fdd900"/>
      <path d="M71.62,210.21a11.26,11.26,0,0,1,.43-11.71l5.24,9.07s.93,1.75,3.85,2a4.9,4.9,0,0,0,3.75-1.68c-.82,1.45-4.48,7.75-4.48,7.75A10.91,10.91,0,0,1,71.62,210.21Z" fill="#66b44b"/>
      <path d="M80.39,215.7l1.47-6.15a5,5,0,0,0,3-1.62C84,209.41,80.39,215.7,80.39,215.7Z" fill="#61ab48"/>
      <path d="M76.22,204.72a4.91,4.91,0,1,1,4.91,4.91A4.91,4.91,0,0,1,76.22,204.72Z" fill="#fff"/>
      <path d="M77,204.72a4.09,4.09,0,1,1,4.09,4.09A4.09,4.09,0,0,1,77,204.72Z" fill="url(#linear-gradient-19)"/>
      <path d="M91.06,199.82,85,201.6a4.92,4.92,0,0,0-2.88-1.78Z" fill="#f0ce00"/>
      <path d="M76.4,206c-.85-1.48-4.36-7.53-4.36-7.53l4.5,4.45a4.43,4.43,0,0,0-.29,2.3Z" fill="#d92f27"/>
    </g>
    <g>
      <path d="M235.49,138.53a5.43,5.43,0,0,0-4.8,2.89,5.43,5.43,0,0,0-8.06-1.8V135h0a1.09,1.09,0,0,0-1.09-1.06,1.08,1.08,0,0,0-1.09,1.06h0v9h0a5.44,5.44,0,0,0,10.24,2.46,5.44,5.44,0,1,0,4.8-8Zm-9.6,8.7a3.26,3.26,0,1,1,3.26-3.26A3.26,3.26,0,0,1,225.89,147.23Zm9.6,0a3.26,3.26,0,1,1,3.27-3.26A3.26,3.26,0,0,1,235.49,147.23Z" fill="#0075c9"/>
      <path d="M248.25,147.7,245.46,144l2.79-3.73h0a1.09,1.09,0,0,0-1.74-1.3h0l-2.41,3.21L241.7,139h0a1.09,1.09,0,0,0-1.74,1.3h0l2.78,3.73L240,147.7h0a1.09,1.09,0,0,0,1.74,1.3h0l2.4-3.21,2.41,3.21h0a1.09,1.09,0,0,0,1.74-1.3Z" fill="#0075c9"/>
    </g>
    <g>
      <rect x="172.53" y="183.41" width="10.56" height="13.07" transform="translate(-63.41 92.44) rotate(-24.88)" fill="#ed3024"/>
      <g>
        <path d="M179,193.14a2.92,2.92,0,0,0-2,.12,1.12,1.12,0,0,0-.72,1.38c.15.32.49.46,1.05.47.16,0,.28,0,1.3-.17,2-.31,3.1.18,3.77,1.62,1.05,2.26.21,4.26-2.27,5.41a6.82,6.82,0,0,1-4,.51l.14-2.63a3.88,3.88,0,0,0,2.79,0c.77-.36,1.09-1,.81-1.57s-.71-.64-2.11-.43a5.46,5.46,0,0,1-2.36.08,2.7,2.7,0,0,1-1.66-1.61,3.56,3.56,0,0,1,1.86-5,7.77,7.77,0,0,1,3.58-.68Z" fill="#a69f9c"/>
        <path d="M202.25,192.84H204c.88-3,2.23-4.48,3.87-4.48,1.3,0,2,.78,2,1.35a.41.41,0,0,1-.45.43c-.79,0-.71-1.38-1.74-1.38s-1.73,1.36-2.48,4.07h1.57l-.12.43h-1.59l-2,6.73c-1,3.33-2,5.43-4.6,5.43-1.14,0-2-.53-2-1.3a.61.61,0,0,1,.62-.62c.38,0,.6.25.6.68,0,.11,0,.24,0,.37s.32.47.87.47c1.58,0,2.33-1.84,3.36-5.23l2-6.53h-1.75l.11-.43" fill="#231f20"/>
        <path d="M209,198.74a1.63,1.63,0,0,1-1.46-.77,3.19,3.19,0,0,1-.56-2.06,2.9,2.9,0,0,1,.78-2.31,1.41,1.41,0,0,1,1.14-.48,2.54,2.54,0,0,1,1.94,2.67c0,1.58-.72,3-1.84,3m-.18.44a3.37,3.37,0,0,0,3.26-3.24,3.26,3.26,0,0,0-1-2.4,3.12,3.12,0,0,0-2.07-.86,3.2,3.2,0,0,0-2,.71,3.14,3.14,0,0,0-1.27,2.37,3.1,3.1,0,0,0,.81,2.4,3,3,0,0,0,2.24,1" fill="#231f20"/>
        <path d="M213.47,195.08c0-.94-.27-1.1-.42-1.16s-.35-.09-.39-.1-.11,0-.11-.11v-.08a.15.15,0,0,1,.11-.14,6.75,6.75,0,0,0,1.46-.75c.11-.07.31-.15.31.12l.08,1h.05a2.55,2.55,0,0,1,1.77-1.29.67.67,0,0,1,.75.65.7.7,0,0,1-.62.72.9.9,0,0,1-.42-.11.91.91,0,0,0-.49-.12,1,1,0,0,0-.87.62,1.5,1.5,0,0,0-.15.47v3.09c0,.46.11.61.42.61h.69c.09,0,.1,0,.1.13v.26c0,.09,0,.14-.07.14s-.77-.05-1.56-.05-1.54.05-1.62.05-.09,0-.09-.15v-.25c0-.1,0-.13.16-.13h.57c.23,0,.33-.09.33-.28,0-.49,0-1,0-1.77Z" fill="#231f20"/>
        <path d="M218,195.44a4.16,4.16,0,0,0,.75,2.24,1.89,1.89,0,0,0,1.6.75,2,2,0,0,0,1.62-.64.09.09,0,0,1,.12,0l.15.15c.06.06.07.11,0,.19a3.4,3.4,0,0,1-2.37,1.05,2.71,2.71,0,0,1-2.29-1,3.08,3.08,0,0,1-.66-2,3.3,3.3,0,0,1,3.15-3.46c1.54,0,2,.89,2,1.2a.51.51,0,0,1-.55.51.92.92,0,0,1-.81-.59,1,1,0,0,0-1-.65c-.84,0-1.73.77-1.73,2.29" fill="#231f20"/>
        <path d="M223.55,194.64c.28-1.09.9-1.52,1.55-1.52,1,0,1.14,1,1.14,1.32,0,.13-.12.2-.4.2Zm3.58.44c.24,0,.42,0,.42-.23a2.2,2.2,0,0,0-2.17-2.17,2.77,2.77,0,0,0-2.11.78,3.31,3.31,0,0,0-.92,2.35,3.51,3.51,0,0,0,.64,2.32,2.71,2.71,0,0,0,2.32,1.05,2.66,2.66,0,0,0,2.34-1.61c.07-.16,0-.2,0-.22l-.19-.1a.1.1,0,0,0-.13.07,2,2,0,0,1-1.79,1,2.3,2.3,0,0,1-2.09-2.53,3.68,3.68,0,0,1,.05-.71Z" fill="#231f20"/>
        <path d="M190.45,194.61c0,.77,0,3,0,3.45,0,.25.08.46.39.46h.66c.13,0,.16,0,.16.13v.25c0,.09,0,.15-.09.15s-.75-.05-1.66-.05a10.73,10.73,0,0,0-1.21.05c-.07,0-.1-.06-.1-.15v-.25c0-.1,0-.13.19-.13h.25c.16,0,.31-.11.32-.37,0-.46,0-3,0-3.85v-.93c0-1,0-2.38,0-2.76,0-.82,0-.83-.63-.93l-.4-.06c-.06,0-.09-.05-.09-.08v-.11c0-.05.05-.08.14-.11a5.64,5.64,0,0,0,1.72-.85.47.47,0,0,1,.31-.12c.1,0,.13.07.12.27,0,.81-.06,3.87-.06,4.68Z" fill="#a69f9c"/>
        <path d="M193,194.64c.28-1.09.9-1.52,1.54-1.52,1,0,1.14,1,1.14,1.32,0,.13-.12.2-.4.2Zm3.58.44c.23,0,.41,0,.41-.23a2.2,2.2,0,0,0-2.17-2.17,2.75,2.75,0,0,0-2.1.78,3.33,3.33,0,0,0-.93,2.35,3.46,3.46,0,0,0,.65,2.32,2.68,2.68,0,0,0,2.31,1.05,2.65,2.65,0,0,0,2.34-1.61c.08-.16,0-.2,0-.22l-.19-.1s-.1,0-.13.07a2,2,0,0,1-1.78,1,2.31,2.31,0,0,1-2.1-2.53,3.68,3.68,0,0,1,.05-.71Z" fill="#a69f9c"/>
        <path d="M197.92,198.75c-.07,0-.07-.13-.09-.2l-.25-1.4a.09.09,0,0,1,.09-.12l.19-.05a.13.13,0,0,1,.14.09l.36.72c.3.55.51.92,1.29.92a1.07,1.07,0,0,0,1.16-1c0-.67-.32-1.05-1.43-1.36-.87-.25-1.74-.71-1.74-1.87a2,2,0,0,1,2.07-1.8,2.75,2.75,0,0,1,1.35.31c.22.1.25.18.27.27l.22,1c0,.06,0,.1-.11.13l-.17.06c-.06,0-.09,0-.14-.07l-.5-.68a1.11,1.11,0,0,0-1-.58,1,1,0,0,0-1.13,1c0,.85.69,1,1.41,1.22,1.08.31,1.76.75,1.77,1.89a2,2,0,0,1-2.24,1.94,2.73,2.73,0,0,1-1.49-.43" fill="#a69f9c"/>
        <path d="M186.4,197.66c0,.4-.78.88-1.21.86a.78.78,0,0,1-.77-.85c0-1.22,1.45-1.45,2-1.82Zm1.07-1.14v-2.31a1.34,1.34,0,0,0-.32-1.06,1.63,1.63,0,0,0-1.18-.46,3.27,3.27,0,0,0-1.8.53,1.72,1.72,0,0,0-1,1.33c0,.34.11.48.35.49.6,0,.78-.28.78-.8,0-.26-.13-.49.07-.67a1.67,1.67,0,0,1,1-.36,1.19,1.19,0,0,1,.89.36,1.83,1.83,0,0,1,.2.84v1a9.25,9.25,0,0,1-1.66.77c-1.17.46-1.48,1-1.48,1.71,0,.93.53,1.25.89,1.27a2.76,2.76,0,0,0,.87,0,3,3,0,0,0,1.46-.82h0a1,1,0,0,0,1,.88,1.08,1.08,0,0,0,1-.66c.09-.15.06-.22,0-.27l-.15-.12c-.06-.05-.09,0-.15,0a.35.35,0,0,1-.37.19c-.26,0-.44-.13-.44-1Z" fill="#a69f9c"/>
        <path d="M190.45,194.61c0,.77,0,3,0,3.45,0,.25.08.46.39.46h.66c.13,0,.16,0,.16.13v.25c0,.09,0,.15-.09.15s-.75-.05-1.66-.05a10.73,10.73,0,0,0-1.21.05c-.07,0-.1-.06-.1-.15v-.25c0-.1,0-.13.19-.13h.25c.16,0,.31-.11.32-.37,0-.46,0-3,0-3.85v-.93c0-1,0-2.38,0-2.76,0-.82,0-.83-.63-.93l-.4-.06c-.06,0-.09-.05-.09-.08v-.11c0-.05.05-.08.14-.11a5.64,5.64,0,0,0,1.72-.85.47.47,0,0,1,.31-.12c.1,0,.13.07.12.27,0,.81-.06,3.87-.06,4.68Z" fill="#a69f9c"/>
        <path d="M193,194.64c.28-1.09.9-1.52,1.54-1.52,1,0,1.14,1,1.14,1.32,0,.13-.12.2-.4.2Zm3.58.44c.23,0,.41,0,.41-.23a2.2,2.2,0,0,0-2.17-2.17,2.75,2.75,0,0,0-2.1.78,3.33,3.33,0,0,0-.93,2.35,3.46,3.46,0,0,0,.65,2.32,2.68,2.68,0,0,0,2.31,1.05,2.65,2.65,0,0,0,2.34-1.61c.08-.16,0-.2,0-.22l-.19-.1s-.1,0-.13.07a2,2,0,0,1-1.78,1,2.31,2.31,0,0,1-2.1-2.53,3.68,3.68,0,0,1,.05-.71Z" fill="#a69f9c"/>
        <path d="M197.92,198.75c-.07,0-.07-.13-.09-.2l-.25-1.4a.09.09,0,0,1,.09-.12l.19-.05a.13.13,0,0,1,.14.09l.36.72c.3.55.51.92,1.29.92a1.07,1.07,0,0,0,1.16-1c0-.67-.32-1.05-1.43-1.36-.87-.25-1.74-.71-1.74-1.87a2,2,0,0,1,2.07-1.8,2.75,2.75,0,0,1,1.35.31c.22.1.25.18.27.27l.22,1c0,.06,0,.1-.11.13l-.17.06c-.06,0-.09,0-.14-.07l-.5-.68a1.11,1.11,0,0,0-1-.58,1,1,0,0,0-1.13,1c0,.85.69,1,1.41,1.22,1.08.31,1.76.75,1.77,1.89a2,2,0,0,1-2.24,1.94,2.73,2.73,0,0,1-1.49-.43" fill="#a69f9c"/>
        <path d="M186.4,197.66c0,.4-.78.88-1.21.86a.78.78,0,0,1-.77-.85c0-1.22,1.45-1.45,2-1.82Zm1.07-1.14v-2.31a1.34,1.34,0,0,0-.32-1.06,1.63,1.63,0,0,0-1.18-.46,3.27,3.27,0,0,0-1.8.53,1.72,1.72,0,0,0-1,1.33c0,.34.11.48.35.49.6,0,.78-.28.78-.8,0-.26-.13-.49.07-.67a1.67,1.67,0,0,1,1-.36,1.19,1.19,0,0,1,.89.36,1.83,1.83,0,0,1,.2.84v1a9.25,9.25,0,0,1-1.66.77c-1.17.46-1.48,1-1.48,1.71,0,.93.53,1.25.89,1.27a2.76,2.76,0,0,0,.87,0,3,3,0,0,0,1.46-.82h0a1,1,0,0,0,1,.88,1.08,1.08,0,0,0,1-.66c.09-.15.06-.22,0-.27l-.15-.12c-.06-.05-.09,0-.15,0a.35.35,0,0,1-.37.19c-.26,0-.44-.13-.44-1Z" fill="#a69f9c"/>
        <polygon points="228.99 192.77 228.99 192.92 228.59 192.92 228.59 193.96 228.43 193.96 228.43 192.92 228.03 192.92 228.03 192.77 228.99 192.77" fill="#231f20"/>
        <path d="M229.13,192.77h.23l.35,1,.34-1h.22V194h-.15v-1l-.34,1h-.16l-.34-1v.17a.72.72,0,0,1,0,.13v.7h-.16Z" fill="#231f20"/>
      </g>
    </g>
    <g id="g2699">
      <g id="g2476">
        <polyline id="path2478" points="113.29 213 133.51 213 153.29 193.22 113.29 193.22 113.29 213" fill="#004990"/>
      </g>
      <path d="M137.26,202.69h-.86v-3.18h.86c1.16,0,2.08.39,2.08,1.57s-.92,1.61-2.08,1.61M127.93,205a3.66,3.66,0,0,1-1.26-.22l1.25-3.94h0l1.22,4A3.75,3.75,0,0,1,127.93,205Zm9.1-8h-3.94v9.36l-3.43-9.36h-3.41l-2.94,7.82c-.31-2-2.35-2.65-4-3.16-1.06-.34-2.18-.84-2.17-1.4s.6-.87,1.78-.81a6.44,6.44,0,0,1,2.88.78l1.37-2.39a10.73,10.73,0,0,0-4.46-1.05h0a5.4,5.4,0,0,0-3.94,1.44,3.31,3.31,0,0,0-.94,2.29,3.08,3.08,0,0,0,1.35,2.75,9.28,9.28,0,0,0,2.68,1.23c1.09.33,2,.63,2,1.26a.85.85,0,0,1-.26.61,1.72,1.72,0,0,1-1.26.4,5.44,5.44,0,0,1-3.26-.93l-1.22,2.41a9.09,9.09,0,0,0,4.46,1.19h.2a5.4,5.4,0,0,0,3.39-1.14l.14-.12-.39,1h3.57l.6-1.82a6.82,6.82,0,0,0,4.16,0l.58,1.81h5.83v-3.78h1.27c3.07,0,4.89-1.56,4.89-4.19,0-2.92-1.77-4.26-5.53-4.26" fill="#fff"/>
      <g id="g2484">
        <path d="M139.15,211.65v-.46h.31c.15,0,.32,0,.32.23s-.17.23-.36.23Zm0,.2h.26l.39.63h.25l-.42-.65a.37.37,0,0,0,.38-.4c0-.3-.17-.43-.52-.43h-.56v1.48h.22Zm.28,1.18a1.29,1.29,0,1,0-1.31-1.29A1.29,1.29,0,0,0,139.43,213Zm-1.06-1.29a1.05,1.05,0,0,1,1.06-1.07,1.08,1.08,0,1,1-1.06,1.07" fill="#004990"/>
      </g>
    </g>
    <g>
      <path d="M11.57,40.29h1.15a6.93,6.93,0,0,1,4.67,11.4,1.23,1.23,0,0,1-2-.3c-.55-1.21-1-2.47-1.51-3.69-.49,1.18-.93,2.39-1.44,3.56a1.22,1.22,0,0,1-1.6.74A1.72,1.72,0,0,1,10,50.9c-.7-1.76-1.42-3.52-2.13-5.29H9.55l1.72,4.26c.44-1.06.86-2.13,1.28-3.2a1.84,1.84,0,0,1,1-1.19,1.21,1.21,0,0,1,1.46.75c.57,1.29,1,2.62,1.6,3.91A5.67,5.67,0,0,0,17.44,47,5.36,5.36,0,0,0,13,42a6.23,6.23,0,0,0-6.67,4.32,6.31,6.31,0,0,0,2.18,6.89,6,6,0,0,0,5.39,1.06c0,.55,0,1.1,0,1.65l-1,.17H11.64a7.91,7.91,0,0,1-5.22-2.6,8.19,8.19,0,0,1-2-4.68V47.63a8.14,8.14,0,0,1,2-4.75A8.05,8.05,0,0,1,11.57,40.29Z" fill="#373e4c"/>
      <path d="M32.78,42.85h1.58c0,1.67,0,3.34,0,5l2.32-2.24h1.8l-2.32,2.3c.85,1.34,1.71,2.66,2.57,4H36.87l-1.79-3-.72.68c0,.76,0,1.52,0,2.28H32.78Z" fill="#373e4c"/>
      <path d="M47.15,42.87h1.57v9H47.15Z" fill="#373e4c"/>
      <path d="M22.22,45.53a3.33,3.33,0,0,1,4.17,2.06,3.36,3.36,0,0,1-2.31,4.35,3.34,3.34,0,0,1-1.86-6.41Zm.36,1.33c-1.57.69-1.38,3.47.36,3.79,1.37.31,2.38-1.27,2-2.49A1.73,1.73,0,0,0,22.58,46.86Z" fill="#373e4c"/>
      <path d="M29.41,46.21A2.82,2.82,0,0,1,32,45.55c-.1.49-.21,1-.31,1.47a1.71,1.71,0,0,0-2.2.95c-.1,1.31,0,2.62,0,3.94H27.85V45.62h1.56Z" fill="#373e4c"/>
      <path d="M41,46.19a2.79,2.79,0,0,1,3.69-.14,3.63,3.63,0,0,1-.23,5.32,3.43,3.43,0,0,1-3.47.32c0,.93,0,1.85,0,2.78H39.48c0-3,0-5.91,0-8.86H41C41,45.75,41,46,41,46.19Zm1,.68c-1.34.57-1.11,2.25-1,3.42a2.16,2.16,0,0,0,2.55-.15A2.37,2.37,0,0,0,44,47.58,1.51,1.51,0,0,0,42.08,46.87Z" fill="#373e4c"/>
      <path d="M50.33,46.23a4.31,4.31,0,0,1,3.53-.71,2.16,2.16,0,0,1,1.74,2c0,1.45,0,2.9,0,4.36H54.24c0-.15-.07-.45-.09-.59a2.6,2.6,0,0,1-3.34.27,2.12,2.12,0,0,1,.2-3.31,5.31,5.31,0,0,1,3.18-.43c-.11-.33-.17-.73-.51-.91a2.69,2.69,0,0,0-2.62.31Zm1.88,2.86a.91.91,0,0,0-.27,1.55A1.57,1.57,0,0,0,54.25,49,4.83,4.83,0,0,0,52.21,49.09Z" fill="#373e4c"/>
      <path d="M57.65,46.44a3.45,3.45,0,0,1,4.88-.07l-.9,1a2.22,2.22,0,0,0-2.21-.48,2.08,2.08,0,0,0,.11,3.68A2.24,2.24,0,0,0,61.67,50l.85,1a3.52,3.52,0,0,1-2.78,1.06,3.38,3.38,0,0,1-2.36-1.34A3.62,3.62,0,0,1,57.65,46.44Z" fill="#373e4c"/>
      <path d="M64.1,46.22a3.14,3.14,0,0,1,5.31,2.62v.31c-1.6,0-3.19,0-4.78,0a2,2,0,0,0,.91,1.28,2.94,2.94,0,0,0,3-.47l.81,1a4,4,0,0,1-4.46.76A3.47,3.47,0,0,1,64.1,46.22ZM64.62,48c1.09,0,2.18,0,3.26,0a1.93,1.93,0,0,0-.63-1A1.74,1.74,0,0,0,64.62,48Z" fill="#373e4c"/>
    </g>
    <g>
      <path d="M225.74,107.37a3.49,3.49,0,0,0-2.23.8v-.72h-2v7.93h2.11v-5.07a2.54,2.54,0,0,1,1.93-1,2.08,2.08,0,0,1,.85.13v-2a3.28,3.28,0,0,0-.63,0" fill="#2a3e40" fill-rule="evenodd"/>
      <path d="M207.28,113a3.33,3.33,0,0,0,2.17.78c.57,0,1-.28,1-.67,0-1.19-3.83-.77-3.83-3.32,0-1.52,1.47-2.47,3-2.47a4.86,4.86,0,0,1,2.67.81l-1,1.53a2.71,2.71,0,0,0-1.52-.54c-.58,0-1.07.23-1.07.64,0,1,3.83.62,3.83,3.37,0,1.52-1.49,2.45-3.15,2.45a5.39,5.39,0,0,1-3.17-1.06Z" fill="#2a3e40" fill-rule="evenodd"/>
      <path d="M220.57,111.34a3.85,3.85,0,0,0-3.73-4.06,3.91,3.91,0,0,0-3.84,4.14,4,4,0,0,0,4.14,4.12,4.3,4.3,0,0,0,3.24-1.42l-1.21-1.21a2.77,2.77,0,0,1-2,.91,2.07,2.07,0,0,1-2.13-1.88h5.47A2.86,2.86,0,0,0,220.57,111.34Zm-5.42-1a1.71,1.71,0,0,1,1.69-1.39,1.59,1.59,0,0,1,1.57,1.39Z" fill="#2a3e40" fill-rule="evenodd"/>
      <polygon points="231.41 112.29 233.58 107.45 235.78 107.45 232.15 115.38 230.68 115.38 227.05 107.45 229.25 107.45 231.41 112.29" fill="#2a3e40" fill-rule="evenodd"/>
      <g>
        <path d="M237.56,103.72a1.36,1.36,0,1,1-1.39,1.36,1.36,1.36,0,0,1,1.39-1.36" fill="#2a3e40" fill-rule="evenodd"/>
        <rect x="236.5" y="107.45" width="2.12" height="7.93" fill="#2a3e40"/>
      </g>
      <path d="M247.37,113.76a4.19,4.19,0,0,1-3.58,1.78,4.11,4.11,0,0,1-4.24-4.12,4.15,4.15,0,0,1,4.25-4.14,4.23,4.23,0,0,1,3.33,1.59l-1.5,1.32a2.31,2.31,0,0,0-1.83-.94,2.17,2.17,0,0,0,0,4.33,2.29,2.29,0,0,0,1.89-1Z" fill="#2a3e40" fill-rule="evenodd"/>
      <path d="M255.06,114.12a4.29,4.29,0,0,1-3.24,1.42,4,4,0,0,1-4.14-4.12,3.91,3.91,0,0,1,3.85-4.14,3.85,3.85,0,0,1,3.73,4.06,3.73,3.73,0,0,1,0,.6h-5.47a2.07,2.07,0,0,0,2.13,1.88,2.79,2.79,0,0,0,2-.91Zm-2-3.73a1.58,1.58,0,0,0-1.56-1.39,1.72,1.72,0,0,0-1.7,1.39Z" fill="#2a3e40" fill-rule="evenodd"/>
      <path d="M256.1,115.38v-7.93h2v.64a3.42,3.42,0,0,1,2.23-.81,3.53,3.53,0,0,1,2.73,1.28,4,4,0,0,1,.82,2.78v4H261.8v-4.2a1.92,1.92,0,0,0-.47-1.49,1.66,1.66,0,0,0-1.19-.44,2.5,2.5,0,0,0-1.92,1v5.15Z" fill="#2a3e40" fill-rule="evenodd"/>
      <path d="M269.37,107.28a4.64,4.64,0,0,0-3.19,8,.91.91,0,0,0,1.19.06,3.33,3.33,0,0,1,3.95,0,.91.91,0,0,0,1.2-.07,4.64,4.64,0,0,0-3.15-8m0,7a2.32,2.32,0,1,1,2.31-2.31,2.25,2.25,0,0,1-2.31,2.31" fill="#82b5a1" fill-rule="evenodd"/>
      <polygon points="278.15 115.38 276.57 115.38 273.43 107.45 275.54 107.45 277.27 111.98 278.96 107.45 280.73 107.45 282.4 111.98 284.14 107.45 286.25 107.45 283.11 115.38 281.53 115.38 279.84 110.86 278.15 115.38" fill="#2a3e40" fill-rule="evenodd"/>
      <polygon points="285.09 114.37 285.09 114.54 284.83 114.54 284.83 115.38 284.63 115.38 284.63 114.54 284.37 114.54 284.37 114.37 285.09 114.37" fill="#2a3e40"/>
      <polygon points="285.75 114.97 286.12 114.37 286.25 114.37 286.25 115.38 286.06 115.38 286.06 114.82 285.82 115.21 285.68 115.21 285.44 114.82 285.44 115.38 285.25 115.38 285.25 114.37 285.38 114.37 285.75 114.97" fill="#2a3e40"/>
    </g>
    <g>
      <g>
        <path d="M44.93,141.86a1.79,1.79,0,1,0-1.79,1.79A1.79,1.79,0,0,0,44.93,141.86Z" fill="none"/>
        <path d="M39.46,143.17a.14.14,0,0,0-.18-.06,5.54,5.54,0,0,1-1.72.34,3.89,3.89,0,0,1-3.92-3.85,3.66,3.66,0,0,1,3.66-3.84,4.65,4.65,0,0,1,2.76.78.15.15,0,0,0,.23,0,14.81,14.81,0,0,1,1.06-1.71c0-.07,0-.15-.19-.31a7.11,7.11,0,0,0-3.72-1.11A6.16,6.16,0,0,0,31,139.64a6.37,6.37,0,0,0,6.55,6.25,6.68,6.68,0,0,0,3.13-.77s.15-.07.07-.18A6.78,6.78,0,0,1,39.46,143.17Z" fill="none"/>
        <path d="M39.46,143.17a.14.14,0,0,0-.18-.06,5.54,5.54,0,0,1-1.72.34,3.89,3.89,0,0,1-3.92-3.85,3.66,3.66,0,0,1,3.66-3.84,4.65,4.65,0,0,1,2.76.78.15.15,0,0,0,.23,0,14.81,14.81,0,0,1,1.06-1.71c0-.07,0-.15-.19-.31a7.11,7.11,0,0,0-3.72-1.11A6.16,6.16,0,0,0,31,139.64a6.37,6.37,0,0,0,6.55,6.25,6.68,6.68,0,0,0,3.13-.77s.15-.07.07-.18A6.78,6.78,0,0,1,39.46,143.17Z" fill="none"/>
        <path d="M39.53,148.11a.61.61,0,0,1,.54.33l.42-.21a1,1,0,0,0-1-.55,1.18,1.18,0,1,0,0,2.35,1.06,1.06,0,0,0,1-.56l-.42-.2a.61.61,0,0,1-.54.33.71.71,0,0,1-.71-.75A.7.7,0,0,1,39.53,148.11Z" fill="none"/>
        <path d="M34.12,147.68a1.18,1.18,0,1,0,1.19,1.17A1.14,1.14,0,0,0,34.12,147.68Zm0,1.92a.75.75,0,1,1,.69-.75A.69.69,0,0,1,34.12,149.6Z" fill="none"/>
        <path d="M31.69,148.11a.61.61,0,0,1,.54.33l.42-.21a1.06,1.06,0,0,0-1-.55,1.18,1.18,0,1,0,0,2.35,1.06,1.06,0,0,0,1-.56l-.42-.2a.61.61,0,0,1-.54.33.71.71,0,0,1-.71-.75A.7.7,0,0,1,31.69,148.11Z" fill="none"/>
        <polygon points="37.36 149.14 36.3 147.74 35.79 147.74 35.79 150 36.29 150 36.29 148.51 37.37 150 37.85 150 37.85 147.74 37.36 147.74 37.36 149.14" fill="none"/>
        <path d="M42.44,149.07a.49.49,0,0,1-.53.53.5.5,0,0,1-.54-.53v-1.33h-.5v1.34a1,1,0,0,0,2.07,0v-1.34h-.5Z" fill="none"/>
        <path d="M45.33,148.46a.7.7,0,0,0-.77-.72H43.51V150H44v-.81h.37l.44.81h.56l-.51-.87A.66.66,0,0,0,45.33,148.46Zm-.84.31H44v-.61h.52a.31.31,0,0,1,.34.31A.3.3,0,0,1,44.49,148.77Z" fill="none"/>
        <path d="M44.93,141.86a1.79,1.79,0,1,0-1.79,1.79A1.79,1.79,0,0,0,44.93,141.86Z" fill="none"/>
        <path d="M34.12,148.11a.75.75,0,1,0,.69.74A.69.69,0,0,0,34.12,148.11Z" fill="#0075c9"/>
        <path d="M48,132a1.15,1.15,0,0,0-1.15-1.15H29.06A1.14,1.14,0,0,0,27.91,132v19.5a1.15,1.15,0,0,0,1.15,1.15H46.88A1.16,1.16,0,0,0,48,151.45ZM31.69,149.6a.61.61,0,0,0,.54-.33l.42.2a1.06,1.06,0,0,1-1,.56,1.18,1.18,0,1,1,0-2.35,1.06,1.06,0,0,1,1,.55l-.42.21a.61.61,0,0,0-.54-.33.7.7,0,0,0-.71.74A.71.71,0,0,0,31.69,149.6Zm2.43.43a1.18,1.18,0,1,1,1.19-1.18A1.14,1.14,0,0,1,34.12,150Zm3.73,0h-.48l-1.08-1.49V150h-.5v-2.26h.51l1.06,1.4v-1.4h.49Zm1.68-.4a.61.61,0,0,0,.54-.33l.42.2a1.06,1.06,0,0,1-1,.56,1.18,1.18,0,1,1,0-2.35,1,1,0,0,1,1,.55l-.42.21a.61.61,0,0,0-.54-.33.7.7,0,0,0-.71.74A.71.71,0,0,0,39.53,149.6Zm1.17-4.48a6.68,6.68,0,0,1-3.13.77A6.37,6.37,0,0,1,31,139.64a6.16,6.16,0,0,1,6.42-6.28,7.11,7.11,0,0,1,3.72,1.11c.24.16.24.24.19.31a14.81,14.81,0,0,0-1.06,1.71.15.15,0,0,1-.23,0,4.65,4.65,0,0,0-2.76-.78,3.66,3.66,0,0,0-3.66,3.84,3.89,3.89,0,0,0,3.92,3.85,5.54,5.54,0,0,0,1.72-.34.14.14,0,0,1,.18.06,6.78,6.78,0,0,0,1.31,1.77C40.85,145.05,40.7,145.12,40.7,145.12Zm2.24,4a1,1,0,0,1-2.07,0v-1.34h.5v1.33a.5.5,0,0,0,.54.53.49.49,0,0,0,.53-.53v-1.33h.5Zm-1.58-7.22a1.79,1.79,0,1,1,1.78,1.79A1.79,1.79,0,0,1,41.36,141.86ZM44.78,150l-.44-.81H44V150h-.46v-2.26h1.05a.7.7,0,0,1,.77.72.66.66,0,0,1-.5.67l.51.87Z" fill="#0075c9"/>
        <path d="M44.49,148.16H44v.61h.52a.3.3,0,0,0,.34-.3A.31.31,0,0,0,44.49,148.16Z" fill="#0075c9"/>
      </g>
      <path d="M49.91,151.91a.7.7,0,1,1-.7-.68A.68.68,0,0,1,49.91,151.91Zm-1.22,0a.53.53,0,1,0,1.05,0,.53.53,0,1,0-1.05,0Zm.42.35H49v-.68l.26,0a.43.43,0,0,1,.24.05.23.23,0,0,1,.06.15.17.17,0,0,1-.14.16h0a.19.19,0,0,1,.13.16c0,.11,0,.15,0,.17h-.17a.44.44,0,0,1-.06-.16c0-.08,0-.11-.14-.11h-.07Zm0-.38h.08c.08,0,.15,0,.15-.1s0-.1-.14-.1h-.09Z" fill="#686562"/>
    </g>
    <g>
      <path d="M189.88,168.84l0,.17c0,.24.07.49.12.73.12.49.26,1,.39,1.48.23.84.45,1.68.68,2.52.06.23.12.27.35.28h1.17a.29.29,0,0,0,.27-.22l0-.11,1.23-4.56c.08-.3.17-.61.25-.92s-.05-.35-.26-.35h-.66c-.23,0-.31.08-.36.3-.23,1-.47,2.07-.69,3.11-.11.48-.2,1-.3,1.44,0,.22-.06.44-.09.67a.55.55,0,0,1,0-.17c-.06-.32-.1-.64-.18-1-.3-1.14-.61-2.27-.92-3.41-.06-.24-.13-.48-.19-.72a.36.36,0,0,0-.26-.26h-.18c-.26,0-.53,0-.79,0s-.36.07-.43.33v0c-.25,1-.51,1.92-.76,2.88a15.83,15.83,0,0,0-.49,2.06,1.7,1.7,0,0,1,0,.22c0-.1,0-.21-.05-.31a8,8,0,0,0-.15-1c-.25-1.09-.52-2.17-.78-3.25-.06-.24-.11-.48-.17-.72s-.13-.26-.34-.27h-.8a.24.24,0,0,0-.19.24l0,.13.13.49c.3,1.08.59,2.16.88,3.23.17.61.33,1.22.5,1.82,0,.19.12.24.31.25h1.1c.3,0,.36-.11.42-.32.12-.5.26-1,.39-1.49.22-.8.44-1.6.64-2.4.08-.31.11-.63.17-.94Zm22.58-13.28a14.78,14.78,0,0,0-2.54.22,15.35,15.35,0,0,0-2.86.81,14.69,14.69,0,0,0-3.19,1.73,14.94,14.94,0,0,0-2.92,2.75,14.54,14.54,0,0,0-1.9,3,5.79,5.79,0,0,0-.25.57.83.83,0,0,0,1.15,1,.86.86,0,0,0,.41-.43c.21-.44.41-.89.65-1.32a13.17,13.17,0,0,1,3.19-3.78,12.86,12.86,0,0,1,3.18-1.91,13.21,13.21,0,0,1,4.8-1,13.71,13.71,0,0,1,2.12.12,12.24,12.24,0,0,1,1.78.37,13.16,13.16,0,0,1,8.29,6.92q.16.33.3.66a.85.85,0,0,0,1,.47.83.83,0,0,0,.55-1.15c-.19-.42-.39-.84-.6-1.24a14.12,14.12,0,0,0-2-2.8,15,15,0,0,0-3.1-2.63,14.69,14.69,0,0,0-3.73-1.72A14.87,14.87,0,0,0,212.46,155.56Zm7.93,17.66.07.24a2,2,0,0,0,0,.24.31.31,0,0,0,.31.26h.36c.22,0,.38-.09.38-.39,0-2,0-3.92,0-5.88v-2.44a.28.28,0,0,0-.31-.32h-.58a.51.51,0,0,0-.2.06.29.29,0,0,0-.1.27v3.21a.2.2,0,0,1,0,.13c-.05-.06-.09-.12-.14-.17a1.71,1.71,0,0,0-.85-.58,2.41,2.41,0,0,0-1.48,0,2.05,2.05,0,0,0-1,.71,2.81,2.81,0,0,0-.55,1.36,7.13,7.13,0,0,0,0,2,3.3,3.3,0,0,0,.33,1,2,2,0,0,0,1.2,1,2.94,2.94,0,0,0,1.32.06,1.77,1.77,0,0,0,1-.55Zm-8.46-2.5.1-.07,2.4-2.41.08-.09a.17.17,0,0,0-.11-.28h-.91a.46.46,0,0,0-.36.17l-.39.44L211,170.4l-.27.28h0v-5.43a.26.26,0,0,0-.19-.26l-.17,0h-.46c-.27,0-.36.1-.36.36v8.42a.22.22,0,0,0,.15.23.43.43,0,0,0,.19,0h.49c.25,0,.35-.11.35-.35v-2.81l.08.09c.34.42.67.85,1,1.27s.85,1.08,1.28,1.61a.43.43,0,0,0,.4.19h.93a.17.17,0,0,0,.12-.27.18.18,0,0,0-.05-.07l-2.05-2.39Zm21.51,1.68c-.06-.21-.1-.42-.17-.61l-1.08-2.85c-.11-.27-.21-.55-.31-.82a.36.36,0,0,0-.34-.25h-.84c-.2,0-.27.13-.19.32.42,1,.85,2,1.28,3s.75,1.76,1.13,2.64a.31.31,0,0,1,0,.19,3.49,3.49,0,0,1-.37.89,1.69,1.69,0,0,1-1,.77.59.59,0,0,0-.14.06.27.27,0,0,0-.12.4c0,.08.11.16.15.24a.36.36,0,0,0,.48.17l.3-.11a2.43,2.43,0,0,0,1.52-1.53c.17-.49.35-1,.52-1.49l1.44-4.13c.13-.37.26-.73.38-1.1.06-.17,0-.28-.2-.31h-.74a.39.39,0,0,0-.42.3c-.12.42-.27.83-.4,1.25l-.93,3Zm-5.5.81c0,.16.07.31.1.45a.33.33,0,0,0,.36.31h.38a.3.3,0,0,0,.31-.34c0-.45,0-.9,0-1.34,0-.64,0-1.28,0-1.92a3.2,3.2,0,0,0-.33-1.29,2.21,2.21,0,0,0-1.46-1.21,3.34,3.34,0,0,0-1.69,0,2.37,2.37,0,0,0-1.31.84,2.85,2.85,0,0,0-.53,1.11,4.73,4.73,0,0,0-.11,1.5,3.83,3.83,0,0,0,.26,1.16,2.42,2.42,0,0,0,1.24,1.35,2.84,2.84,0,0,0,1.44.24,1.66,1.66,0,0,0,1.12-.56C227.78,173.41,227.85,173.31,227.94,173.21ZM201.71,171a4,4,0,0,0-.24-1.55,2.5,2.5,0,0,0-1.72-1.61,3.33,3.33,0,0,0-1.63-.06,2.55,2.55,0,0,0-1.91,1.53,3.73,3.73,0,0,0-.29,1.27,4,4,0,0,0,.19,1.57,2.57,2.57,0,0,0,1.75,1.75,3.26,3.26,0,0,0,1.64.07,2.52,2.52,0,0,0,1.92-1.55A3.75,3.75,0,0,0,201.71,171ZM205,168.7s0-.09-.05-.14l-.15-.49a.27.27,0,0,0-.23-.2,3.25,3.25,0,0,0-.54,0,.25.25,0,0,0-.23.26v5.61a.24.24,0,0,0,.16.24.58.58,0,0,0,.18,0h.55a.3.3,0,0,0,.33-.35V171.1c0-.34,0-.69,0-1a1.58,1.58,0,0,1,.3-.83.88.88,0,0,1,.91-.41l.53.1a1.17,1.17,0,0,0,.26,0,.25.25,0,0,0,.27-.19,5.54,5.54,0,0,0,.17-.58.24.24,0,0,0-.1-.27.79.79,0,0,0-.34-.14,1.8,1.8,0,0,0-1.54.4A6.13,6.13,0,0,0,205,168.7Zm31.64,3.62a.81.81,0,0,0-.83.82.83.83,0,0,0,.82.84.84.84,0,0,0,.84-.83A.82.82,0,0,0,236.67,172.32Z" fill="#fff"/>
      <path d="M212.46,155.56a14.87,14.87,0,0,1,4.33.62,14.69,14.69,0,0,1,3.73,1.72,15,15,0,0,1,3.1,2.63,14.12,14.12,0,0,1,2,2.8c.21.4.41.82.6,1.24a.83.83,0,0,1-.55,1.15.85.85,0,0,1-1-.47q-.13-.33-.3-.66a13.16,13.16,0,0,0-8.29-6.92,12.24,12.24,0,0,0-1.78-.37,13.71,13.71,0,0,0-2.12-.12,13.21,13.21,0,0,0-4.8,1,12.86,12.86,0,0,0-3.18,1.91,13.17,13.17,0,0,0-3.19,3.78c-.24.43-.44.88-.65,1.32a.86.86,0,0,1-.41.43.83.83,0,0,1-1.15-1,5.79,5.79,0,0,1,.25-.57,14.54,14.54,0,0,1,1.9-3,14.94,14.94,0,0,1,2.92-2.75,14.69,14.69,0,0,1,3.19-1.73,15.35,15.35,0,0,1,2.86-.81A14.78,14.78,0,0,1,212.46,155.56Z" fill="#f38c01"/>
      <path d="M189.83,168.87c-.06.31-.09.63-.17.94-.2.8-.42,1.6-.64,2.4-.13.49-.27,1-.39,1.49-.06.21-.12.32-.42.32h-1.1c-.19,0-.26-.06-.31-.25-.17-.6-.33-1.21-.5-1.82-.29-1.07-.58-2.15-.88-3.23l-.13-.49,0-.13a.24.24,0,0,1,.19-.24h.8c.21,0,.29.07.34.27s.11.48.17.72c.26,1.08.53,2.16.78,3.25a8,8,0,0,1,.15,1c0,.1,0,.21.05.31a1.7,1.7,0,0,0,0-.22,15.83,15.83,0,0,1,.49-2.06c.25-1,.51-1.92.76-2.88v0c.07-.26.16-.33.43-.33s.53,0,.79,0h.18a.36.36,0,0,1,.26.26c.06.24.13.48.19.72.31,1.14.62,2.27.92,3.41.08.31.12.63.18,1a.55.55,0,0,0,0,.17c0-.23.05-.45.09-.67.1-.48.19-1,.3-1.44.22-1,.46-2.07.69-3.11,0-.22.13-.3.36-.3h.66c.21,0,.33.11.26.35s-.17.62-.25.92l-1.23,4.56,0,.11a.29.29,0,0,1-.27.22h-1.17c-.23,0-.29-.05-.35-.28-.23-.84-.45-1.68-.68-2.52-.13-.5-.27-1-.39-1.48-.05-.24-.08-.49-.12-.73l0-.17a.44.44,0,0,0,0-.2h0Z" fill="#0268ac"/>
      <path d="M220.39,173.22l-.21.25a1.77,1.77,0,0,1-1,.55,2.94,2.94,0,0,1-1.32-.06,2,2,0,0,1-1.2-1,3.3,3.3,0,0,1-.33-1,7.13,7.13,0,0,1,0-2,2.81,2.81,0,0,1,.55-1.36,2.05,2.05,0,0,1,1-.71,2.41,2.41,0,0,1,1.48,0,1.71,1.71,0,0,1,.85.58c.05.05.09.11.14.17a.2.2,0,0,0,0-.13v-3.21a.29.29,0,0,1,.1-.27.51.51,0,0,1,.2-.06h.58a.28.28,0,0,1,.31.32v2.44c0,2,0,3.92,0,5.88,0,.3-.16.39-.38.39h-.36a.31.31,0,0,1-.31-.26,2,2,0,0,1,0-.24Zm-2.86-2.16c0,.19,0,.52.08.84a1.94,1.94,0,0,0,.23.73,1.05,1.05,0,0,0,.71.54,1.5,1.5,0,0,0,.73,0,1.14,1.14,0,0,0,.69-.46,2.09,2.09,0,0,0,.36-.92,5.6,5.6,0,0,0,0-1.53,3,3,0,0,0-.24-.86,1.49,1.49,0,0,0-.46-.57,1.32,1.32,0,0,0-1.09-.18,1,1,0,0,0-.69.52c-.06.13-.12.27-.17.4A5.13,5.13,0,0,0,217.53,171.06Z" fill="#0369ac"/>
      <path d="M211.93,170.72l.49.56,2.05,2.39a.18.18,0,0,1,.05.07.17.17,0,0,1-.12.27h-.93a.43.43,0,0,1-.4-.19c-.43-.53-.85-1.07-1.28-1.61s-.66-.85-1-1.27l-.08-.09v2.81c0,.24-.1.35-.35.35h-.49a.43.43,0,0,1-.19,0,.22.22,0,0,1-.15-.23v-8.42c0-.26.09-.36.36-.36h.46l.17,0a.26.26,0,0,1,.19.26v5.43h0l.27-.28,1.74-1.93.39-.44a.46.46,0,0,1,.36-.17h.91a.17.17,0,0,1,.11.28l-.08.09-2.4,2.41Z" fill="#0268ab"/>
      <path d="M233.44,172.4l0,0,.93-3c.13-.42.28-.83.4-1.25a.39.39,0,0,1,.42-.3H236c.18,0,.26.14.2.31-.12.37-.25.73-.38,1.1l-1.44,4.13c-.17.5-.35,1-.52,1.49a2.43,2.43,0,0,1-1.52,1.53l-.3.11a.36.36,0,0,1-.48-.17c0-.08-.1-.16-.15-.24a.27.27,0,0,1,.12-.4.59.59,0,0,1,.14-.06,1.69,1.69,0,0,0,1-.77A3.49,3.49,0,0,0,233,174a.31.31,0,0,0,0-.19c-.38-.88-.76-1.76-1.13-2.64s-.86-2-1.28-3c-.08-.19,0-.32.19-.32h.84a.36.36,0,0,1,.34.25c.1.27.2.55.31.82l1.08,2.85C233.34,172,233.38,172.19,233.44,172.4Z" fill="#0268ac"/>
      <path d="M227.94,173.21c-.09.1-.16.2-.24.28a1.66,1.66,0,0,1-1.12.56,2.84,2.84,0,0,1-1.44-.24,2.42,2.42,0,0,1-1.24-1.35,3.83,3.83,0,0,1-.26-1.16,4.73,4.73,0,0,1,.11-1.5,2.85,2.85,0,0,1,.53-1.11,2.37,2.37,0,0,1,1.31-.84,3.34,3.34,0,0,1,1.69,0,2.21,2.21,0,0,1,1.46,1.21,3.2,3.2,0,0,1,.33,1.29c0,.64,0,1.28,0,1.92,0,.44,0,.89,0,1.34a.3.3,0,0,1-.31.34h-.38a.33.33,0,0,1-.36-.31C228,173.52,228,173.37,227.94,173.21Zm-3.06-2.29c0,.24,0,.48.06.73a2.56,2.56,0,0,0,.21.8,1.16,1.16,0,0,0,.74.68,1.65,1.65,0,0,0,1,0,1.19,1.19,0,0,0,.74-.56,2.52,2.52,0,0,0,.27-.8,5.64,5.64,0,0,0,.06-1.16,3,3,0,0,0-.21-1.11,1.3,1.3,0,0,0-.79-.81,1.72,1.72,0,0,0-.9,0,1.18,1.18,0,0,0-.8.57,2.09,2.09,0,0,0-.21.54A5.55,5.55,0,0,0,224.88,170.92Z" fill="#0268ac"/>
      <path d="M201.71,171a3.75,3.75,0,0,1-.29,1.42A2.52,2.52,0,0,1,199.5,174a3.26,3.26,0,0,1-1.64-.07,2.57,2.57,0,0,1-1.75-1.75,4,4,0,0,1-.19-1.57,3.73,3.73,0,0,1,.29-1.27,2.55,2.55,0,0,1,1.91-1.53,3.33,3.33,0,0,1,1.63.06,2.5,2.5,0,0,1,1.72,1.61A4,4,0,0,1,201.71,171Zm-1.3-.12v-.26a3.39,3.39,0,0,0-.22-1.13,1.4,1.4,0,0,0-.94-.86,1.76,1.76,0,0,0-.91,0,1.3,1.3,0,0,0-.78.57,2.31,2.31,0,0,0-.3.75,5,5,0,0,0,0,1.55,2.69,2.69,0,0,0,.25.91,1.38,1.38,0,0,0,.79.69,1.75,1.75,0,0,0,.85.06,1.43,1.43,0,0,0,.57-.23,1.69,1.69,0,0,0,.59-.91A4,4,0,0,0,200.41,170.92Z" fill="#0268ac"/>
      <path d="M205,168.7a6.13,6.13,0,0,1,.51-.51,1.8,1.8,0,0,1,1.54-.4.79.79,0,0,1,.34.14.24.24,0,0,1,.1.27,5.54,5.54,0,0,1-.17.58.25.25,0,0,1-.27.19,1.17,1.17,0,0,1-.26,0l-.53-.1a.88.88,0,0,0-.91.41,1.58,1.58,0,0,0-.3.83c0,.34,0,.69,0,1v2.57a.3.3,0,0,1-.33.35h-.55a.58.58,0,0,1-.18,0,.24.24,0,0,1-.16-.24v-5.61a.25.25,0,0,1,.23-.26,3.25,3.25,0,0,1,.54,0,.27.27,0,0,1,.23.2l.15.49C205,168.61,205,168.66,205,168.7Z" fill="#0369ac"/>
      <path d="M236.67,172.32a.82.82,0,0,1,.83.83.84.84,0,0,1-.84.83.83.83,0,0,1-.82-.84A.81.81,0,0,1,236.67,172.32Zm0,.14a.69.69,0,0,0,0,1.37.68.68,0,0,0,.7-.67A.69.69,0,0,0,236.68,172.46Z" fill="#1070af"/>
      <path d="M189.83,168.87v-.23h0a.44.44,0,0,1,0,.2Z" fill="#a8cde2"/>
      <path d="M236.68,172.46a.69.69,0,0,1,.67.7.68.68,0,0,1-.7.67.69.69,0,0,1,0-1.37Zm.21.74.13-.1a.25.25,0,0,0-.12-.4,2.18,2.18,0,0,0-.57,0v.92h.22v-.36c.08,0,.11,0,.14.06s.09.2.14.3h.25Z" fill="#f7fafc"/>
      <path d="M236.89,173.2l.19.39h-.25c-.05-.1-.1-.2-.14-.3s-.06-.09-.14-.06v.36h-.22v-.92a2.18,2.18,0,0,1,.57,0,.25.25,0,0,1,.12.4Zm-.33-.38v.26h.17c.08,0,.11-.06.11-.12s0-.11-.12-.12Z" fill="#0a6dae"/>
      <path d="M236.56,172.82h.16q.12,0,.12.12c0,.06,0,.1-.11.12h-.17Z" fill="#f5f8fb"/>
    </g>
    <g>
      <path d="M18.43,171.68a2.21,2.21,0,0,1-1.32,2.08A2.27,2.27,0,0,1,18.94,176c0,1.67-1.36,2.56-3.42,2.56H11.21V169.3h4.16C17.23,169.3,18.43,170.21,18.43,171.68Zm-1.66.25c0-.75-.56-1.19-1.61-1.19H12.81v2.46H15C16.08,173.2,16.77,172.79,16.77,171.93Zm.51,3.89c0-.79-.62-1.25-1.9-1.25H12.81v2.55h2.7c1.12,0,1.81-.44,1.81-1.28Z"/>
      <path d="M20,178.57V168.9h1.6v9.67Z"/>
      <path d="M27.32,178.57v-.86a2.83,2.83,0,0,1-2.26,1,2.23,2.23,0,0,1-2.49-2.16h0c0-1.51,1.21-2.25,2.84-2.25a5.66,5.66,0,0,1,1.91.27v-.17c0-1-.61-1.5-1.72-1.5a4.93,4.93,0,0,0-2,.43l-.44-1.28a5.87,5.87,0,0,1,2.67-.55c2.06,0,3.06,1.11,3.06,2.95v4.12Zm0-3a4.57,4.57,0,0,0-1.6-.28c-1,0-1.6.41-1.6,1.11h0c0,.67.6,1,1.35,1,1.06,0,1.85-.6,1.85-1.47Z"/>
      <path d="M33.39,178.72a3.57,3.57,0,0,1-3.62-3.52v-.1a3.62,3.62,0,0,1,3.55-3.67h.08a3.52,3.52,0,0,1,2.78,1.2l-1,1.08a2.37,2.37,0,0,0-1.81-.88,2.1,2.1,0,0,0-2,2.19v0a2.11,2.11,0,0,0,2,2.25h.1a2.47,2.47,0,0,0,1.81-.87l1,1A3.55,3.55,0,0,1,33.39,178.72Z"/>
      <path d="M43.59,178.57H41.77l-2.13-3-1,1v2h-1.6V168.9h1.6v5.77l2.9-3.1h1.95l-2.78,2.85Z"/>
      <path d="M48.43,178.71a2.82,2.82,0,0,1-2.36-1.23v1.11H44.46V168.9h1.6v3.84a2.77,2.77,0,0,1,2.37-1.31,3.66,3.66,0,0,1,0,7.28Zm-.37-5.89A2.11,2.11,0,0,0,46,175a.19.19,0,0,0,0,.08A2.11,2.11,0,0,0,48,177.32h.09a2.27,2.27,0,0,0,0-4.5Z"/>
      <path d="M56,178.72a3.62,3.62,0,0,1-3.71-3.52v-.1a3.73,3.73,0,1,1,3.83,3.62Zm0-5.89a2.11,2.11,0,0,0-2.11,2.11v.12a2.17,2.17,0,0,0,2.06,2.26H56a2.11,2.11,0,0,0,2.12-2.09.53.53,0,0,0,0-.13,2.16,2.16,0,0,0-2.07-2.26Z"/>
      <path d="M65,178.57v-.86a2.85,2.85,0,0,1-2.26,1,2.23,2.23,0,0,1-2.49-2.16h0c0-1.51,1.2-2.25,2.83-2.25a6,6,0,0,1,1.93.29v-.19c0-1-.61-1.5-1.72-1.5a4.93,4.93,0,0,0-2,.43l-.44-1.28a6.14,6.14,0,0,1,2.66-.55c2.07,0,3.08,1.11,3.08,2.95v4.12Zm0-3a4.65,4.65,0,0,0-1.6-.28c-1,0-1.6.41-1.6,1.11h0c0,.67.59,1,1.35,1,1,0,1.85-.6,1.85-1.47Z"/>
      <path d="M69.42,178.57h-1.6v-7h1.6v1.58a2.46,2.46,0,0,1,2.47-1.7v1.69H71.8c-1.41,0-2.38.91-2.38,2.78Z"/>
      <path d="M77.69,178.57V177.4a2.77,2.77,0,0,1-2.38,1.31,3.66,3.66,0,0,1,0-7.28,2.91,2.91,0,0,1,2.38,1.23V168.9h1.6v9.67Zm-2-5.75a2,2,0,0,0-2,2.25,2.08,2.08,0,0,0,1.9,2.25h.11a2.1,2.1,0,0,0,2-2.18v-.07a2.11,2.11,0,0,0-2-2.25Z"/>
      <path d="M81.21,169.46a.56.56,0,1,1-.55-.56A.55.55,0,0,1,81.21,169.46Zm-1,0a.45.45,0,0,0,.45.45.46.46,0,0,0,.48-.45.47.47,0,0,0-.93,0Zm.49-.3c.15,0,.22.05.22.18a.15.15,0,0,1-.07.13s0,0,.06.15,0,.11,0,.14h-.17a.17.17,0,0,1,0-.1c0-.13,0-.13-.09-.13h-.1v.23h-.14v-.59Zm-.12.25h.1c.07,0,.09,0,.09-.06s0-.07-.09-.07h-.11Z"/>
    </g>
    <g>
      <g>
        <path d="M267,87.51h-1.12l1.25-2.84-2.8-6.79h1.14l2.23,5.67,2.24-5.65H271L267,87.53ZM262.09,79V77.88h1v6.89h-1v-1.1a2.82,2.82,0,0,1-2.47,1.22,3.57,3.57,0,0,1,0-7.12A2.88,2.88,0,0,1,262.09,79Zm.05,2.33a2.39,2.39,0,0,0-2.38-2.62,2.63,2.63,0,0,0,0,5.24,2.39,2.39,0,0,0,2.38-2.61ZM253.89,79V75.13h1v9.64h-1v-1.1a2.81,2.81,0,0,1-2.47,1.22,3.56,3.56,0,0,1,0-7.1A2.81,2.81,0,0,1,253.89,79Zm.06,2.33a2.4,2.4,0,0,0-2.39-2.62,2.63,2.63,0,0,0,0,5.24A2.4,2.4,0,0,0,254,81.34Zm-10.33,6.18h-1.13l1.26-2.84-2.81-6.79h1.14l2.22,5.66,2.27-5.66h1.12Zm-9.12-2.74V80.66a1.82,1.82,0,0,0-1.87-2,1.77,1.77,0,0,0-1.7,1.93v4.14h-1V80.62a2.66,2.66,0,0,1,2.55-2.84,3.32,3.32,0,0,1,2.6,1.64,3.37,3.37,0,0,1,2.63-1.65,2.66,2.66,0,0,1,2.56,2.84v4.16h-1V80.64a1.76,1.76,0,0,0-1.71-1.93,1.81,1.81,0,0,0-1.85,2v4.12H234.5Z" fill="#293440"/>
        <path d="M267,87.74h0l-.08,0h-1a.2.2,0,0,1-.18-.09.23.23,0,0,1,0-.21l1.22-2.75L264.09,78a.21.21,0,0,1,0-.2.22.22,0,0,1,.18-.1h1.14a.22.22,0,0,1,.2.14l2,5.16,2-5.14a.22.22,0,0,1,.2-.14H271a.22.22,0,0,1,.18.1.21.21,0,0,1,0,.2l-4.08,9.63A.21.21,0,0,1,267,87.74Zm-.79-.45h.66l3.88-9.18h-.66l-2.19,5.52a.24.24,0,0,1-.2.14h0a.24.24,0,0,1-.2-.14l-2.17-5.53h-.67l2.68,6.49a.17.17,0,0,1,0,.17Zm-22.55.43h-1.13a.21.21,0,0,1-.18-.09.22.22,0,0,1,0-.21l1.22-2.75L240.74,78a.21.21,0,0,1,0-.2.22.22,0,0,1,.18-.1h1.14a.22.22,0,0,1,.2.14l2,5.15,2.07-5.15a.22.22,0,0,1,.2-.14h1.12a.22.22,0,0,1,.18.1.21.21,0,0,1,0,.2l-4.08,9.63A.21.21,0,0,1,243.62,87.72Zm-.8-.43h.65l3.9-9.19h-.66l-2.21,5.52a.21.21,0,0,1-.2.13h0a.21.21,0,0,1-.2-.13l-2.17-5.52h-.67L244,84.59a.25.25,0,0,1,0,.17Zm8.75-2.18h-.15a3.77,3.77,0,0,1,0-7.53h.05a3.06,3.06,0,0,1,2.21.85V75.13a.21.21,0,0,1,.21-.21h1a.21.21,0,0,1,.22.21v9.64a.22.22,0,0,1-.22.22h-1a.21.21,0,0,1-.21-.22v-.51A3.08,3.08,0,0,1,251.57,85.11ZM251.46,78h0a3.34,3.34,0,0,0,0,6.67h0a2.6,2.6,0,0,0,2.29-1.12.21.21,0,0,1,.24-.09.22.22,0,0,1,.15.21v.89h.59V75.35h-.59V79a.22.22,0,0,1-.22.22h0a.24.24,0,0,1-.18-.09A2.6,2.6,0,0,0,251.46,78Zm8.3,7.1h-.14a3.78,3.78,0,0,1,0-7.54,3,3,0,0,1,2.25.85v-.53a.22.22,0,0,1,.22-.22h1a.21.21,0,0,1,.21.22v6.89a.21.21,0,0,1-.21.22h-1a.22.22,0,0,1-.22-.22v-.52A3,3,0,0,1,259.76,85.1Zm0-7.11h-.13a3.35,3.35,0,0,0,0,6.68h0a2.61,2.61,0,0,0,2.28-1.12.22.22,0,0,1,.24-.09.22.22,0,0,1,.15.21v.89h.6V78.1h-.6V79a.22.22,0,0,1-.15.21.21.21,0,0,1-.24-.09A2.62,2.62,0,0,0,259.75,78Zm-24.11,7h-1.15a.21.21,0,0,1-.2-.13.2.2,0,0,1,0-.13V80.66a1.61,1.61,0,0,0-1.65-1.74,1.56,1.56,0,0,0-1.48,1.72v4.14a.21.21,0,0,1-.22.21h-1a.21.21,0,0,1-.22-.21V80.62a3.17,3.17,0,0,1,.84-2.22,2.72,2.72,0,0,1,1.93-.84,3.43,3.43,0,0,1,2.6,1.47,3.53,3.53,0,0,1,2.63-1.47,2.69,2.69,0,0,1,1.93.83,3.18,3.18,0,0,1,.84,2.22v4.16a.21.21,0,0,1-.21.22h-1a.21.21,0,0,1-.21-.22V80.64a1.54,1.54,0,0,0-1.5-1.71,1.59,1.59,0,0,0-1.64,1.73v4.12A.21.21,0,0,1,235.64,85Zm-.93-.43h.71v-3.9a2,2,0,0,1,2.07-2.16,2,2,0,0,1,1.93,2.14v3.92h.6v-4A2.43,2.43,0,0,0,237.68,78a3.13,3.13,0,0,0-2.44,1.53.21.21,0,0,1-.19.11.22.22,0,0,1-.18-.1A3.14,3.14,0,0,0,232.45,78a2.42,2.42,0,0,0-2.33,2.62v3.94h.6V80.64a2,2,0,0,1,1.91-2.15,2,2,0,0,1,2.08,2.17Zm25-.39a2.84,2.84,0,0,1,0-5.67,2.6,2.6,0,0,1,2.6,2.83h0A2.61,2.61,0,0,1,259.76,84.17Zm0-5.24a2.41,2.41,0,0,0,0,4.81,2.18,2.18,0,0,0,2.17-2.4h0A2.18,2.18,0,0,0,259.76,78.93Zm-8.2,5.24a2.84,2.84,0,0,1,0-5.67,2.6,2.6,0,0,1,2.61,2.83.09.09,0,0,1,0,0A2.6,2.6,0,0,1,251.56,84.17Zm0-5.24a2.41,2.41,0,0,0,0,4.81,2.18,2.18,0,0,0,2.17-2.4.07.07,0,0,1,0,0A2.18,2.18,0,0,0,251.56,78.93Z" fill="#293440"/>
      </g>
      <g clip-path="url(#clip-path)">
        <g clip-path="url(#clip-path-2)">
          <polygon points="222.55 90.01 229.85 77.35 229.85 90.01 222.55 90.01" fill="#21acd5"/>
          <polygon points="216.96 90.01 227.04 72.55 229.85 72.55 229.85 77.35 222.55 90.01 216.96 90.01" fill="#21acd5"/>
          <polygon points="216.81 90.01 226.9 72.55 227.04 72.55 216.96 90.01 216.81 90.01" fill="#21acd5"/>
          <polygon points="216.67 90.01 226.75 72.55 226.9 72.55 216.81 90.01 216.67 90.01" fill="#21abd4"/>
          <polygon points="216.53 90.01 226.61 72.55 226.75 72.55 216.67 90.01 216.53 90.01" fill="#21aad3"/>
          <polygon points="216.38 90.01 226.47 72.55 226.61 72.55 216.53 90.01 216.38 90.01" fill="#21a9d2"/>
          <polygon points="216.24 90.01 226.32 72.55 226.47 72.55 216.38 90.01 216.24 90.01" fill="#20a9d1"/>
          <polygon points="216.1 90.01 226.18 72.55 226.32 72.55 216.24 90.01 216.1 90.01" fill="#20a8d0"/>
          <polygon points="215.95 90.01 226.04 72.55 226.18 72.55 216.1 90.01 215.95 90.01" fill="#20a7cf"/>
          <polygon points="215.81 90.01 225.89 72.55 226.04 72.55 215.95 90.01 215.81 90.01" fill="#20a6ce"/>
          <polygon points="215.67 90.01 225.75 72.55 225.89 72.55 215.81 90.01 215.67 90.01" fill="#20a5cd"/>
          <polygon points="215.52 90.01 225.61 72.55 225.75 72.55 215.67 90.01 215.52 90.01" fill="#20a4cc"/>
          <polygon points="215.38 90.01 225.46 72.55 225.61 72.55 215.52 90.01 215.38 90.01" fill="#20a4cb"/>
          <polygon points="215.24 90.01 225.32 72.55 225.46 72.55 215.38 90.01 215.24 90.01" fill="#20a3ca"/>
          <polygon points="215.09 90.01 225.18 72.55 225.32 72.55 215.24 90.01 215.09 90.01" fill="#1fa2c9"/>
          <polygon points="214.95 90.01 225.03 72.55 225.18 72.55 215.09 90.01 214.95 90.01" fill="#1fa1c8"/>
          <polygon points="214.81 90.01 224.89 72.55 225.03 72.55 214.95 90.01 214.81 90.01" fill="#1fa0c7"/>
          <polygon points="214.66 90.01 224.75 72.55 224.89 72.55 214.81 90.01 214.66 90.01" fill="#1f9fc6"/>
          <polygon points="214.52 90.01 224.6 72.55 224.75 72.55 214.66 90.01 214.52 90.01" fill="#1f9fc5"/>
          <polygon points="214.38 90.01 224.46 72.55 224.6 72.55 214.52 90.01 214.38 90.01" fill="#1f9ec4"/>
          <polygon points="214.23 90.01 224.32 72.55 224.46 72.55 214.38 90.01 214.23 90.01" fill="#1f9dc3"/>
          <polygon points="214.09 90.01 224.17 72.55 224.32 72.55 214.23 90.01 214.09 90.01" fill="#1f9cc2"/>
          <polygon points="213.95 90.01 224.03 72.55 224.17 72.55 214.09 90.01 213.95 90.01" fill="#1e9bc0"/>
          <polygon points="213.8 90.01 223.89 72.55 224.03 72.55 213.95 90.01 213.8 90.01" fill="#1e9abf"/>
          <polygon points="213.78 89.79 223.74 72.55 223.89 72.55 213.8 90.01 213.78 90.01 213.78 89.79" fill="#1e99be"/>
          <polygon points="213.78 89.55 223.6 72.55 223.74 72.55 213.78 89.79 213.78 89.55" fill="#1e99bd"/>
          <polygon points="213.78 89.3 223.46 72.55 223.6 72.55 213.78 89.55 213.78 89.3" fill="#1e98bc"/>
          <polygon points="213.78 89.05 223.31 72.55 223.46 72.55 213.78 89.3 213.78 89.05" fill="#1e97bb"/>
          <polygon points="213.78 88.8 223.17 72.55 223.31 72.55 213.78 89.05 213.78 88.8" fill="#1e96ba"/>
          <polygon points="213.78 88.55 223.03 72.55 223.17 72.55 213.78 88.8 213.78 88.55" fill="#1d95b9"/>
          <polygon points="213.78 88.3 222.88 72.55 223.03 72.55 213.78 88.55 213.78 88.3" fill="#1d94b8"/>
          <polygon points="213.78 88.06 222.74 72.55 222.88 72.55 213.78 88.3 213.78 88.06" fill="#1d94b7"/>
          <polygon points="213.78 87.81 222.6 72.55 222.74 72.55 213.78 88.06 213.78 87.81" fill="#1d93b6"/>
          <polygon points="213.78 87.56 222.45 72.55 222.6 72.55 213.78 87.81 213.78 87.56" fill="#1d92b5"/>
          <polygon points="213.78 87.31 222.31 72.55 222.45 72.55 213.78 87.56 213.78 87.31" fill="#1d91b4"/>
          <polygon points="213.78 87.06 222.17 72.55 222.31 72.55 213.78 87.31 213.78 87.06" fill="#1d90b3"/>
          <polygon points="213.78 86.81 222.02 72.55 222.17 72.55 213.78 87.06 213.78 86.81" fill="#1d8fb2"/>
          <polygon points="213.78 86.57 221.88 72.55 222.02 72.55 213.78 86.81 213.78 86.57" fill="#1c8fb1"/>
          <polygon points="213.78 86.32 221.74 72.55 221.88 72.55 213.78 86.57 213.78 86.32" fill="#1c8eb0"/>
          <polygon points="213.78 86.07 221.59 72.55 221.74 72.55 213.78 86.32 213.78 86.07" fill="#1c8daf"/>
          <polygon points="213.78 85.82 221.45 72.55 221.59 72.55 213.78 86.07 213.78 85.82" fill="#1c8cae"/>
          <polygon points="221.45 72.55 213.78 85.82 213.78 72.55 221.45 72.55" fill="#1c8cae"/>
        </g>
      </g>
      <g clip-path="url(#clip-path-3)">
        <g clip-path="url(#clip-path-4)">
          <polygon points="200.12 76.96 207.65 90.01 200.12 90.01 200.12 76.96" fill="#21acd5"/>
          <polygon points="202.97 72.55 213.05 90.01 207.65 90.01 200.12 76.96 200.12 72.55 202.97 72.55" fill="#21acd5"/>
          <polygon points="203.11 72.55 213.19 90.01 213.05 90.01 202.97 72.55 203.11 72.55" fill="#21acd5"/>
          <polygon points="203.25 72.55 213.33 90.01 213.19 90.01 203.11 72.55 203.25 72.55" fill="#21abd4"/>
          <polygon points="203.39 72.55 213.47 90.01 213.33 90.01 203.25 72.55 203.39 72.55" fill="#21aad3"/>
          <polygon points="203.53 72.55 213.61 90.01 213.47 90.01 203.39 72.55 203.53 72.55" fill="#21a9d2"/>
          <polygon points="203.66 72.55 213.75 90.01 213.61 90.01 203.53 72.55 203.66 72.55" fill="#20a9d1"/>
          <polygon points="203.8 72.55 213.89 90.01 213.75 90.01 203.66 72.55 203.8 72.55" fill="#20a8d0"/>
          <polygon points="203.94 72.55 214.02 90.01 213.89 90.01 203.8 72.55 203.94 72.55" fill="#20a7cf"/>
          <polygon points="204.08 72.55 214.16 90.01 214.02 90.01 203.94 72.55 204.08 72.55" fill="#20a6ce"/>
          <polygon points="204.22 72.55 214.3 90.01 214.16 90.01 204.08 72.55 204.22 72.55" fill="#20a5cd"/>
          <polygon points="204.36 72.55 214.44 90.01 214.3 90.01 204.22 72.55 204.36 72.55" fill="#20a4cc"/>
          <polygon points="204.5 72.55 214.58 90.01 214.44 90.01 204.36 72.55 204.5 72.55" fill="#20a4cb"/>
          <polygon points="204.63 72.55 214.72 90.01 214.58 90.01 204.5 72.55 204.63 72.55" fill="#20a3ca"/>
          <polygon points="204.77 72.55 214.86 90.01 214.72 90.01 204.63 72.55 204.77 72.55" fill="#1fa2c9"/>
          <polygon points="204.91 72.55 214.99 90.01 214.86 90.01 204.77 72.55 204.91 72.55" fill="#1fa1c8"/>
          <polygon points="205.05 72.55 215.13 90.01 214.99 90.01 204.91 72.55 205.05 72.55" fill="#1fa0c7"/>
          <polygon points="205.19 72.55 215.27 90.01 215.13 90.01 205.05 72.55 205.19 72.55" fill="#1f9fc6"/>
          <polygon points="205.33 72.55 215.41 90.01 215.27 90.01 205.19 72.55 205.33 72.55" fill="#1f9fc5"/>
          <polygon points="205.47 72.55 215.55 90.01 215.41 90.01 205.33 72.55 205.47 72.55" fill="#1f9ec4"/>
          <polygon points="205.6 72.55 215.69 90.01 215.55 90.01 205.47 72.55 205.6 72.55" fill="#1f9dc3"/>
          <polygon points="205.74 72.55 215.83 90.01 215.69 90.01 205.6 72.55 205.74 72.55" fill="#1f9cc2"/>
          <polygon points="205.88 72.55 215.97 90.01 215.83 90.01 205.74 72.55 205.88 72.55" fill="#1e9bc0"/>
          <polygon points="206.02 72.55 216.1 90.01 215.97 90.01 205.88 72.55 206.02 72.55" fill="#1e9abf"/>
          <polygon points="206.16 72.55 216.19 89.91 216.19 90.01 216.1 90.01 206.02 72.55 206.16 72.55" fill="#1e99be"/>
          <polygon points="206.3 72.55 216.19 89.67 216.19 89.91 206.16 72.55 206.3 72.55" fill="#1e99bd"/>
          <polygon points="206.44 72.55 216.19 89.43 216.19 89.67 206.3 72.55 206.44 72.55" fill="#1e98bc"/>
          <polygon points="206.57 72.55 216.19 89.19 216.19 89.43 206.44 72.55 206.57 72.55" fill="#1e97bb"/>
          <polygon points="206.71 72.55 216.19 88.95 216.19 89.19 206.57 72.55 206.71 72.55" fill="#1e96ba"/>
          <polygon points="206.85 72.55 216.19 88.71 216.19 88.95 206.71 72.55 206.85 72.55" fill="#1d95b9"/>
          <polygon points="206.99 72.55 216.19 88.47 216.19 88.71 206.85 72.55 206.99 72.55" fill="#1d94b8"/>
          <polygon points="207.13 72.55 216.19 88.23 216.19 88.47 206.99 72.55 207.13 72.55" fill="#1d94b7"/>
          <polygon points="207.27 72.55 216.19 87.99 216.19 88.23 207.13 72.55 207.27 72.55" fill="#1d93b6"/>
          <polygon points="207.41 72.55 216.19 87.75 216.19 87.99 207.27 72.55 207.41 72.55" fill="#1d92b5"/>
          <polygon points="207.54 72.55 216.19 87.51 216.19 87.75 207.41 72.55 207.54 72.55" fill="#1d91b4"/>
          <polygon points="207.68 72.55 216.19 87.27 216.19 87.51 207.54 72.55 207.68 72.55" fill="#1d90b3"/>
          <polygon points="207.82 72.55 216.19 87.03 216.19 87.27 207.68 72.55 207.82 72.55" fill="#1d8fb2"/>
          <polygon points="207.96 72.55 216.19 86.79 216.19 87.03 207.82 72.55 207.96 72.55" fill="#1c8fb1"/>
          <polygon points="208.1 72.55 216.19 86.55 216.19 86.79 207.96 72.55 208.1 72.55" fill="#1c8eb0"/>
          <polygon points="208.24 72.55 216.19 86.31 216.19 86.55 208.1 72.55 208.24 72.55" fill="#1c8daf"/>
          <polygon points="208.38 72.55 216.19 86.07 216.19 86.31 208.24 72.55 208.38 72.55" fill="#1c8cae"/>
          <polygon points="216.19 86.07 208.38 72.55 216.19 72.55 216.19 86.07" fill="#1c8cae"/>
        </g>
      </g>
      <path d="M213.88,90.68a.75.75,0,0,1-.8-.69V84.36a5,5,0,0,0-1.75-3.51L206.83,77a1.51,1.51,0,0,1-.57-1.17,1.78,1.78,0,0,1,1.89-1.63,2,2,0,0,1,1.35.5L215,79.37l5.47-4.7a2.1,2.1,0,0,1,1.36-.49,1.78,1.78,0,0,1,1.89,1.63,1.51,1.51,0,0,1-.57,1.17l-4.51,3.87a5,5,0,0,0-1.74,3.5V90a.76.76,0,0,1-.81.69" fill="#21acd5"/>
    </g>
    <g>
      <g>
        <path d="M225.81,47.37a1.57,1.57,0,0,0,0,3.14,1.83,1.83,0,0,0,1.34-.53l.7,1a2.89,2.89,0,1,1-2.1-4.93,2.91,2.91,0,0,1,2.15.81l-.8,1A1.74,1.74,0,0,0,225.81,47.37Z" fill="#39396d"/>
        <polygon points="228.88 43.85 230.27 43.85 230.27 51.66 228.88 51.66 228.88 43.85" fill="#39396d"/>
        <path d="M231.53,49a2.78,2.78,0,0,1,2.74-2.88A2.7,2.7,0,0,1,237,48.83a2.77,2.77,0,0,1,0,.46h-4a1.53,1.53,0,0,0,1.56,1.3,1.85,1.85,0,0,0,1.32-.56l.72.94a2.94,2.94,0,0,1-5-2Zm1.44-.54h2.62a1.29,1.29,0,0,0-1.3-1.16A1.34,1.34,0,0,0,233,48.41Z" fill="#39396d"/>
        <polygon points="243.04 46.23 241.08 51.66 239.28 51.66 237.31 46.23 238.83 46.23 240.21 50.42 241.62 46.23 243.04 46.23" fill="#39396d"/>
        <path d="M243.42,49a2.79,2.79,0,0,1,2.75-2.88,2.7,2.7,0,0,1,2.73,2.76,2.77,2.77,0,0,1,0,.46h-4a1.52,1.52,0,0,0,1.55,1.3,1.88,1.88,0,0,0,1.33-.56l.72.94a2.82,2.82,0,0,1-2.1.85A2.86,2.86,0,0,1,243.42,49Zm1.44-.54h2.62a1.27,1.27,0,0,0-1.29-1.16A1.36,1.36,0,0,0,244.86,48.41Zm6.62,3.25h-1.39V46.23h1.39v.59a1.55,1.55,0,0,1,1.32-.75,1.4,1.4,0,0,1,.88.27l-.58,1.31a1.24,1.24,0,0,0-.72-.23c-.55,0-.9.46-.9,1.2Zm8.2-4.29a1.57,1.57,0,0,0,0,3.14A1.81,1.81,0,0,0,261,50l.71,1a2.85,2.85,0,1,1,0-4.12l-.79,1A1.74,1.74,0,0,0,259.68,47.37Z" fill="#39396d"/>
        <polygon points="262.75 43.85 264.13 43.85 264.13 51.66 262.75 51.66 262.75 43.85" fill="#39396d"/>
        <path d="M265.39,49a2.83,2.83,0,1,1,2.83,2.87A2.84,2.84,0,0,1,265.39,49Zm4.27,0a1.45,1.45,0,1,0-2.88,0,1.45,1.45,0,1,0,2.88,0Zm3.95.22a1.17,1.17,0,1,0,2.32,0V46.23h1.38v3a2.54,2.54,0,0,1-5.08,0v-3h1.39v2.93Zm10.55-5.31v7.81h-1.39v-.59a2.14,2.14,0,0,1-1.66.75,2.89,2.89,0,0,1,0-5.75,2.12,2.12,0,0,1,1.66.7V43.85Zm-1.39,5.09a1.45,1.45,0,1,0-2.88,0,1.45,1.45,0,1,0,2.88,0Z" fill="#39396d"/>
      </g>
      <polygon points="217.39 42.62 217.39 53.72 215.33 51.06 214.18 48.17 214.18 48.17 215.27 45.23 217.39 42.62" fill="#ab2b4a"/>
      <polygon points="198.16 42.62 198.16 53.72 199.98 51.14 201.37 48.17 201.37 48.17 199.96 45.34 198.16 42.62" fill="#e87a68"/>
      <polygon points="214.18 48.17 208.12 48.55 201.37 48.17 204.19 42.62 207.78 37.07 211.68 43.16 214.18 48.17" fill="#d74d4e"/>
      <polygon points="217.39 42.62 214.18 48.17 207.78 37.07 217.39 42.62" fill="#bd3246"/>
      <polygon points="207.78 37.07 201.37 48.17 198.16 42.62 207.78 37.07" fill="#f19175"/>
      <polygon points="214.18 48.17 211.99 52.96 207.78 59.26 203.44 52.75 201.37 48.17 214.18 48.17" fill="#cf3942"/>
      <polygon points="207.78 59.26 198.16 53.72 201.37 48.17 207.78 59.26" fill="#e0625b"/>
      <polygon points="207.77 59.26 217.39 53.72 214.18 48.17 207.77 59.26" fill="#9a244f"/>
    </g>
    <g>
      <path d="M0,104.12a4.59,4.59,0,0,1,4.61-4.77,4,4,0,0,1,4.12,3l-1.46.49a2.54,2.54,0,0,0-2.66-2,3.31,3.31,0,0,0,0,6.59,2.72,2.72,0,0,0,2.72-2l1.42.47a4.1,4.1,0,0,1-4.14,3A4.54,4.54,0,0,1,0,104.12Zm9.61,4.58V99.36h1.5v9.34Zm8.92-3.15a3.27,3.27,0,1,1-3.27-3.33A3.19,3.19,0,0,1,18.53,105.55Zm-1.51,0a1.76,1.76,0,1,0-3.5,0,1.76,1.76,0,1,0,3.5,0Zm4.7,3.32a2.32,2.32,0,0,1-2.37-2.5v-4h1.5v3.69c0,.77.36,1.43,1.26,1.43a1.26,1.26,0,0,0,1.32-1.4v-3.71h1.49v5.13a8.77,8.77,0,0,0,.07,1.15H23.55a5.58,5.58,0,0,1,0-.7,2,2,0,0,1-1.79.86Zm10.39-1.33a8.51,8.51,0,0,0,.07,1.14H30.74c0-.26-.06-.53-.07-.81a2.08,2.08,0,0,1-1.84,1,3.32,3.32,0,0,1,0-6.61,1.92,1.92,0,0,1,1.85.9V99.34h1.45Zm-3.12,0a1.78,1.78,0,0,0,1.67-2c0-1.2-.67-2-1.65-2a1.75,1.75,0,0,0-1.7,2C27.31,106.74,28,107.53,29,107.53Zm10.45,1.17v-3.91H35.15v3.91H33.6V99.36h1.55v4h4.29v-4H41v9.34Zm8.68-1.8a2.81,2.81,0,0,1-2.83,2,3.34,3.34,0,0,1-.15-6.66,2.94,2.94,0,0,1,3.07,3.27,4.05,4.05,0,0,1,0,.48h-4.6a1.68,1.68,0,0,0,1.72,1.63,1.52,1.52,0,0,0,1.57-1.1Zm-1.42-2a1.4,1.4,0,0,0-1.55-1.39,1.51,1.51,0,0,0-1.54,1.39Zm3.93.24,1.61-.24c.36,0,.47-.24.47-.46,0-.52-.36-1-1.19-1a1.23,1.23,0,0,0-1.3,1.13l-1.37-.32a2.46,2.46,0,0,1,2.65-2.05c1.93,0,2.67,1.1,2.67,2.34v3.14a5.66,5.66,0,0,0,.08,1H52.86a3.57,3.57,0,0,1-.07-.81,2.17,2.17,0,0,1-1.94,1A2,2,0,0,1,48.73,107a1.93,1.93,0,0,1,1.9-1.89Zm2.08,1v-.28l-1.63.25c-.47.08-.84.34-.84.85a.84.84,0,0,0,.91.82,1.44,1.44,0,0,0,1.56-1.64Zm2.68,2.61V99.36h1.5v9.34Zm4.73-6.29h1.3v1.33h-1.3v2.91c0,.56.24.79.8.79a4.36,4.36,0,0,0,.52,0v1.24a2.65,2.65,0,0,1-.91.14,1.73,1.73,0,0,1-1.88-1.87v-3.16H57.49v-1.33h.33a.9.9,0,0,0,1-1v-1h1.35Zm3.7,6.29h-1.5V99.36h1.5V103a2.21,2.21,0,0,1,1.79-.79,2.23,2.23,0,0,1,2.3,2.49v4H66.42V105a1.22,1.22,0,0,0-1.3-1.39,1.3,1.3,0,0,0-1.3,1.42Z" fill="url(#linear-gradient-20)"/>
      <path d="M69,99.14a.95.95,0,1,1-.93,1h0A.93.93,0,0,1,69,99.14Zm0,1.7a.76.76,0,1,0-.73-.75A.73.73,0,0,0,69,100.84Zm-.11-.25h-.2v-1h.36a.33.33,0,0,1,.35.3v0a.31.31,0,0,1-.22.3l.23.4h-.22l-.21-.39h-.08Zm.12-.55c.12,0,.18-.06.18-.15s-.06-.15-.18-.15h-.12v.3Z" fill="#201747"/>
      <path d="M48.93,118.57l-1.56-4.34a.54.54,0,0,1,0-.21.37.37,0,0,1,.38-.37.4.4,0,0,1,.39.32l1.29,3.73L50.69,114a.39.39,0,0,1,.37-.31h0a.41.41,0,0,1,.4.31l1.28,3.74L54.09,114a.37.37,0,0,1,.74,0h0a1.55,1.55,0,0,1,0,.21l-1.57,4.36a.44.44,0,0,1-.42.33h0a.42.42,0,0,1-.42-.33l-1.28-3.69-1.29,3.69a.42.42,0,0,1-.42.33h0c-.19,0-.34-.11-.42-.33" fill="#727173"/>
      <path d="M60.28,114a.38.38,0,0,1,.37-.39A.39.39,0,0,1,61,114v.91a2.09,2.09,0,0,1,1.77-1.26.36.36,0,0,1,.38.35v0a.39.39,0,0,1-.34.39A2.08,2.08,0,0,0,61,116.79v1.74a.38.38,0,0,1-.37.39h0a.38.38,0,0,1-.38-.38h0V114" fill="#727173"/>
      <path d="M65.66,118.92a2.52,2.52,0,0,1-2.52-2.65v0a2.49,2.49,0,0,1,2.41-2.64,2.38,2.38,0,0,1,2.34,2.57.37.37,0,0,1-.35.37H63.9a1.76,1.76,0,0,0,1.77,1.72,2,2,0,0,0,1.45-.59.45.45,0,0,1,.21-.1.33.33,0,0,1,.22.58,2.55,2.55,0,0,1-1.89.77m1.48-3a1.66,1.66,0,0,0-1.6-1.72A1.73,1.73,0,0,0,63.91,116Z" fill="#727173"/>
      <path d="M54.86,117.32v0c0-1.08.88-1.65,2.19-1.65a5.51,5.51,0,0,1,1.57.22v-.19c0-.92-.56-1.4-1.52-1.4a2.53,2.53,0,0,0-1.19.24l-.14,0a.34.34,0,0,1-.34-.33.31.31,0,0,1,.21-.31,3.37,3.37,0,0,1,1.54-.29,2.22,2.22,0,0,1,1.65.56,2,2,0,0,1,.53,1.49v2.82a.36.36,0,0,1-.35.38h0a.34.34,0,0,1-.37-.34V118a2.25,2.25,0,0,1-1.85.88,1.7,1.7,0,0,1-1.91-1.57m3.78-.4v-.5a5.51,5.51,0,0,0-1.51-.22c-1,0-1.49.42-1.49,1.06v0c0,.64.59,1,1.29,1a1.55,1.55,0,0,0,1.71-1.38" fill="#727173"/>
      <path d="M35.24,114a.71.71,0,0,0-.94-.35.72.72,0,0,0-.35.95l1.6,3.48c.25.54.51.82,1,.82s.77-.31,1-.82c0,0,1.39-3,1.41-3.07a.22.22,0,0,1,.2-.13.22.22,0,0,1,.22.22v3a.73.73,0,0,0,.73.82.75.75,0,0,0,.76-.82v-2.44a.75.75,0,0,1,.8-.77.72.72,0,0,1,.75.77v2.44a.75.75,0,1,0,1.5,0v-2.44a.75.75,0,0,1,.79-.77.72.72,0,0,1,.76.77v2.44a.75.75,0,1,0,1.5,0v-2.77a1.73,1.73,0,0,0-1.79-1.73,2.33,2.33,0,0,0-1.6.68,1.76,1.76,0,0,0-1.54-.68,2.52,2.52,0,0,0-1.51.68,1.77,1.77,0,0,0-1.34-.68,1.66,1.66,0,0,0-1.62,1.1l-1,2.42L35.24,114" fill="#727173"/>
      <path d="M67.9,114.25h0a.62.62,0,1,1,1.24,0h0a.64.64,0,0,1-.62.63.61.61,0,0,1-.62-.62h0m1.12,0h0a.51.51,0,0,0-.49-.51h0a.5.5,0,0,0-.5.51h0a.5.5,0,0,0,.5.5.49.49,0,0,0,.5-.5" fill="#727173"/>
      <path d="M68.28,114a.08.08,0,0,1,.07-.07h.21a.35.35,0,0,1,.18.06.19.19,0,0,1,0,.28s0,0-.06,0l.09.11s0,0,0,0a.07.07,0,0,1-.07.06.05.05,0,0,1-.06,0l-.13-.16h-.11v.13s0,.07,0,.07h0a.06.06,0,0,1-.07-.07Zm.27.23a.1.1,0,0,0,.11-.09h0s0-.09-.11-.09h-.13v.18Z" fill="#727173"/>
      <path d="M29,117.17a1.46,1.46,0,0,1-1.4,1.59,1.2,1.2,0,0,1-1.11-.64v.57H26v-4.11h.44v1.64a1.21,1.21,0,0,1,1.11-.64A1.45,1.45,0,0,1,29,117.17Zm-.47,0a1,1,0,1,0-2,0,1,1,0,1,0,2,0Z" fill="#727074"/>
      <path d="M29.71,119.65l.11-.37a.76.76,0,0,0,.36.08.45.45,0,0,0,.44-.27l.18-.37-1.32-3.06H30L31,118.19l1-2.53h.47L31.13,119a1,1,0,0,1-.93.72A2,2,0,0,1,29.71,119.65Z" fill="#727074"/>
    </g>
    <g>
      <circle cx="39.41" cy="75.24" r="11.5" fill="#8ad2f0"/>
      <circle cx="39.41" cy="75.24" r="9.58" fill="#111212"/>
      <path d="M44.29,72.85l-2.13.28c0-.18,0-.34,0-.5a1.79,1.79,0,0,0-.77-1.34,3.64,3.64,0,0,0-3.4-.55,1.73,1.73,0,0,0-1,.86,1.18,1.18,0,0,0,.4,1.68,6.09,6.09,0,0,0,1.42.59c1,.29,2,.5,3,.79a5.56,5.56,0,0,1,1.35.58,2.88,2.88,0,0,1,1.14,3.92,3.79,3.79,0,0,1-2.34,1.9,7.4,7.4,0,0,1-5.08-.14,4.1,4.1,0,0,1-2.53-3.29,2.51,2.51,0,0,1,0-.27.17.17,0,0,1,0,0L36.45,77a6.82,6.82,0,0,0,.1.92,2.37,2.37,0,0,0,1.78,1.86,5.12,5.12,0,0,0,2.8,0,1.76,1.76,0,0,0,1.33-2.11,1.25,1.25,0,0,0-.81-1,12.37,12.37,0,0,0-1.58-.45,20.47,20.47,0,0,1-3.17-.81,6.65,6.65,0,0,1-.61-.27,2.94,2.94,0,0,1-1-4.41,3.59,3.59,0,0,1,2-1.32,6.62,6.62,0,0,1,4.06.05A4.17,4.17,0,0,1,44.29,72.85Z" fill="#fcfcfc"/>
    </g>
    <g>
      <path d="M74.84,12.24H98.72V36.12l-.77,0H75.7c-.27,0-.54,0-.85,0V23.87C74.85,20,74.84,16.11,74.84,12.24ZM86.77,33.36h8.59c.5,0,.66-.15.66-.65q0-8.55,0-17.12c0-.55-.18-.7-.73-.7-5.66,0-11.33,0-17,0-.57,0-.74.17-.74.74q0,8.5,0,17c0,.59.19.74.75.74C81.13,33.35,84,33.36,86.77,33.36Z" fill="#eeac07"/>
      <path d="M74.84,12.24c0,3.87,0,7.75,0,11.63V36c.31,0,.58,0,.85,0H98l.77,0a2.08,2.08,0,0,1-.48.11H74.72V12.71A2,2,0,0,1,74.84,12.24Z" fill="#fefefe"/>
      <path d="M86.77,33.36c-2.82,0-5.64,0-8.47,0-.56,0-.75-.15-.75-.74q0-8.49,0-17c0-.57.17-.75.74-.74,5.67,0,11.34,0,17,0,.55,0,.73.15.73.7q0,8.57,0,17.12c0,.5-.16.66-.66.65Zm4-4.85c-.49-.44-1-.83-1.43-1.29s-.59-.41-1-.09A3.5,3.5,0,0,1,84,27a3.61,3.61,0,0,1,4.39-5.73c.18.12.54.25.64.16.59-.51,1.13-1.09,1.68-1.64a6.23,6.23,0,0,0-8.76-.22A6.31,6.31,0,0,0,82,28.93,6.23,6.23,0,0,0,90.72,28.51Zm.83-5.92a1.6,1.6,0,0,0-1.65,1.6,1.67,1.67,0,0,0,1.59,1.62,1.62,1.62,0,0,0,1.63-1.62A1.55,1.55,0,0,0,91.55,22.59Z" fill="#fefdf8"/>
      <path d="M90.72,28.51a6.23,6.23,0,0,1-8.69.42,6.31,6.31,0,0,1-.13-9.37,6.23,6.23,0,0,1,8.76.22c-.55.55-1.09,1.13-1.68,1.64-.1.09-.46,0-.64-.16A3.61,3.61,0,0,0,84,27a3.5,3.5,0,0,0,4.32.14c.43-.32.67-.29,1,.09S90.23,28.07,90.72,28.51Z" fill="#edac09"/>
      <path d="M91.55,22.59a1.55,1.55,0,0,1,1.57,1.6,1.62,1.62,0,0,1-1.63,1.62,1.67,1.67,0,0,1-1.59-1.62A1.6,1.6,0,0,1,91.55,22.59Z" fill="#ecad0e"/>
    </g>
  </g>
  <g id="Text">
    <g>
      <path d="M120.69,133.88h-2.06L118,132h-3l-.59,1.87h-2l3.06-8.4h2.24Zm-3.09-3.32-.9-2.83a3.54,3.54,0,0,1-.15-.75h0a3.16,3.16,0,0,1-.15.73l-.91,2.85Z" fill="#1e1e1e"/>
      <path d="M126.31,133.88h-5.38v-.77l3-3.86h-2.72v-1.37h5.07v.91l-2.86,3.73h2.88Z" fill="#1e1e1e"/>
      <path d="M133,133.88h-1.85V133h0A2.1,2.1,0,0,1,129.3,134c-1.39,0-2.09-.84-2.09-2.53v-3.62h1.85v3.46c0,.85.33,1.27,1,1.27a1,1,0,0,0,.79-.35,1.41,1.41,0,0,0,.3-.95v-3.43H133Z" fill="#1e1e1e"/>
      <path d="M138.48,129.55a1.61,1.61,0,0,0-.78-.18,1.12,1.12,0,0,0-.94.44,1.93,1.93,0,0,0-.34,1.21v2.86h-1.85v-6h1.85V129h0a1.59,1.59,0,0,1,1.58-1.21,1.14,1.14,0,0,1,.46.07Z" fill="#1e1e1e"/>
      <path d="M144.69,131.41h-3.92c.06.87.61,1.3,1.65,1.3a3.23,3.23,0,0,0,1.74-.46v1.33A4.56,4.56,0,0,1,142,134a2.8,2.8,0,0,1-3.06-3.06,3.23,3.23,0,0,1,.86-2.36,2.91,2.91,0,0,1,2.14-.88,2.63,2.63,0,0,1,2,.78,3,3,0,0,1,.72,2.12ZM143,130.27c0-.86-.35-1.29-1-1.29a1,1,0,0,0-.77.37,1.68,1.68,0,0,0-.4.92Z" fill="#1e1e1e"/>
      <path d="M91.34,147.08H89.27l-.59-1.87h-3l-.59,1.87H83l3.06-8.4h2.25Zm-3.1-3.32-.9-2.83a3.59,3.59,0,0,1-.14-.75h0a3.76,3.76,0,0,1-.14.73l-.92,2.85Z" fill="#1e1e1e"/>
      <path d="M96.75,146.86a3.57,3.57,0,0,1-1.81.37,3.06,3.06,0,0,1-2.24-.84,2.89,2.89,0,0,1-.85-2.16,3.17,3.17,0,0,1,.91-2.41,3.38,3.38,0,0,1,2.45-.89,3.13,3.13,0,0,1,1.54.29v1.57a2.13,2.13,0,0,0-1.3-.44,1.71,1.71,0,0,0-1.26.47,1.73,1.73,0,0,0-.46,1.28,1.71,1.71,0,0,0,.44,1.26,1.66,1.66,0,0,0,1.23.45,2.5,2.5,0,0,0,1.35-.43Z" fill="#1e1e1e"/>
      <path d="M101.59,147a2.67,2.67,0,0,1-1.24.22q-1.95,0-1.95-2v-2.74h-1v-1.37h1v-1.29l1.84-.53v1.82h1.35v1.37h-1.35v2.42c0,.63.25.94.75.94a1.31,1.31,0,0,0,.6-.17Z" fill="#1e1e1e"/>
      <path d="M103.57,140.13a1.07,1.07,0,0,1-.77-.28.88.88,0,0,1-.3-.68.87.87,0,0,1,.3-.68,1.16,1.16,0,0,1,.77-.26,1.14,1.14,0,0,1,.77.26.87.87,0,0,1,.3.68.89.89,0,0,1-.3.69A1.1,1.1,0,0,1,103.57,140.13Zm.91,7h-1.85v-6h1.85Z" fill="#1e1e1e"/>
      <path d="M111.76,141.08l-2.24,6h-2.11l-2.12-6h2l1,3.7a5.3,5.3,0,0,1,.21,1.06h0a6.23,6.23,0,0,1,.22-1l1.06-3.73Z" fill="#1e1e1e"/>
      <path d="M117.82,144.61h-3.91c.06.87.61,1.3,1.64,1.3a3.23,3.23,0,0,0,1.74-.46v1.33a4.5,4.5,0,0,1-2.16.45,2.8,2.8,0,0,1-3.06-3.06,3.19,3.19,0,0,1,.87-2.36,2.91,2.91,0,0,1,2.13-.88,2.62,2.62,0,0,1,2,.78,3,3,0,0,1,.72,2.12Zm-1.72-1.14c0-.86-.34-1.29-1-1.29a1,1,0,0,0-.77.37,1.68,1.68,0,0,0-.4.92Z" fill="#1e1e1e"/>
      <path d="M122.41,147.08v-8.4h3c3,0,4.48,1.36,4.48,4.09a4.16,4.16,0,0,1-1.22,3.14,4.52,4.52,0,0,1-3.26,1.17Zm1.9-6.86v5.33h.93a2.53,2.53,0,0,0,1.93-.74,2.78,2.78,0,0,0,.7-2,2.55,2.55,0,0,0-.69-1.89,2.64,2.64,0,0,0-2-.69Z" fill="#1e1e1e"/>
      <path d="M132,140.13a1.06,1.06,0,0,1-.77-.28.88.88,0,0,1-.3-.68.87.87,0,0,1,.3-.68,1.14,1.14,0,0,1,.77-.26,1.16,1.16,0,0,1,.77.26.86.86,0,0,1,.29.68.88.88,0,0,1-.29.69A1.11,1.11,0,0,1,132,140.13Zm.91,7h-1.85v-6h1.85Z" fill="#1e1e1e"/>
      <path d="M138.4,142.75a1.61,1.61,0,0,0-.78-.18,1.14,1.14,0,0,0-.94.44,1.93,1.93,0,0,0-.34,1.21v2.86h-1.85v-6h1.85v1.11h0A1.61,1.61,0,0,1,138,141a1.12,1.12,0,0,1,.45.07Z" fill="#1e1e1e"/>
      <path d="M144.61,144.61H140.7c.06.87.61,1.3,1.64,1.3a3.23,3.23,0,0,0,1.74-.46v1.33a4.5,4.5,0,0,1-2.16.45,2.8,2.8,0,0,1-3.06-3.06,3.19,3.19,0,0,1,.87-2.36,2.91,2.91,0,0,1,2.13-.88,2.62,2.62,0,0,1,2,.78,3,3,0,0,1,.72,2.12Zm-1.72-1.14c0-.86-.35-1.29-1-1.29a1,1,0,0,0-.77.37,1.68,1.68,0,0,0-.4.92Z" fill="#1e1e1e"/>
      <path d="M150.26,146.86a3.57,3.57,0,0,1-1.81.37,3.06,3.06,0,0,1-2.24-.84,2.9,2.9,0,0,1-.86-2.16,3.18,3.18,0,0,1,.92-2.41,3.38,3.38,0,0,1,2.45-.89,3.13,3.13,0,0,1,1.54.29v1.57a2.13,2.13,0,0,0-1.3-.44,1.71,1.71,0,0,0-1.26.47,1.74,1.74,0,0,0-.47,1.28,1.72,1.72,0,0,0,.45,1.26,1.64,1.64,0,0,0,1.22.45,2.53,2.53,0,0,0,1.36-.43Z" fill="#1e1e1e"/>
      <path d="M155.1,147a2.7,2.7,0,0,1-1.24.22c-1.3,0-2-.68-2-2v-2.74h-1v-1.37h1v-1.29l1.85-.53v1.82h1.35v1.37h-1.35v2.42c0,.63.25.94.74.94a1.31,1.31,0,0,0,.61-.17Z" fill="#1e1e1e"/>
      <path d="M159,147.23a3.24,3.24,0,0,1-2.36-.84,3.06,3.06,0,0,1-.85-2.29,3,3,0,0,1,.89-2.32,3.31,3.31,0,0,1,2.4-.85,3.17,3.17,0,0,1,2.35.85,3,3,0,0,1,.85,2.22,3.16,3.16,0,0,1-.88,2.36A3.24,3.24,0,0,1,159,147.23Zm.05-4.88a1.23,1.23,0,0,0-1,.45,2,2,0,0,0-.36,1.28c0,1.15.46,1.73,1.39,1.73s1.33-.59,1.33-1.78S159.89,142.35,159,142.35Z" fill="#1e1e1e"/>
      <path d="M167.34,142.75a1.61,1.61,0,0,0-.78-.18,1.14,1.14,0,0,0-.94.44,1.93,1.93,0,0,0-.34,1.21v2.86h-1.85v-6h1.85v1.11h0a1.6,1.6,0,0,1,1.59-1.21,1.12,1.12,0,0,1,.45.07Z" fill="#1e1e1e"/>
      <path d="M174.4,141.08,172,147.56c-.59,1.56-1.47,2.34-2.65,2.34a3.46,3.46,0,0,1-1.11-.15v-1.48a1.64,1.64,0,0,0,.81.22,1,1,0,0,0,1-.68l.32-.74-2.44-6h2.05l1.12,3.65a5.07,5.07,0,0,1,.17.8h0a7.31,7.31,0,0,1,.19-.79l1.13-3.66Z" fill="#1e1e1e"/>
    </g>
  </g>
</svg>
