<svg xmlns="http://www.w3.org/2000/svg" xmlns:xlink="http://www.w3.org/1999/xlink" viewBox="0 0 416.32 198.23">
  <defs>
    <linearGradient id="linear-gradient" x1="29.66" y1="448.7" x2="21.18" y2="464.76" gradientTransform="matrix(1, 0, 0, -1, 0, 478.76)" gradientUnits="userSpaceOnUse">
      <stop offset="0" stop-color="#1988d9"/>
      <stop offset="0.9" stop-color="#54aef0"/>
    </linearGradient>
    <linearGradient id="linear-gradient-2" x1="26.01" y1="453.37" x2="31.87" y2="443.26" gradientTransform="matrix(1, 0, 0, -1, 0, 478.76)" gradientUnits="userSpaceOnUse">
      <stop offset="0.1" stop-color="#54aef0"/>
      <stop offset="0.29" stop-color="#4fabee"/>
      <stop offset="0.51" stop-color="#41a2e9"/>
      <stop offset="0.74" stop-color="#2a93e0"/>
      <stop offset="0.88" stop-color="#1988d9"/>
    </linearGradient>
    <linearGradient id="linear-gradient-3" x1="137.88" y1="414.56" x2="137.88" y2="440.56" gradientTransform="matrix(1, 0, 0, -1, 0, 478.76)" gradientUnits="userSpaceOnUse">
      <stop offset="0" stop-color="#0078d4"/>
      <stop offset="0.16" stop-color="#1380da"/>
      <stop offset="0.53" stop-color="#3c91e5"/>
      <stop offset="0.82" stop-color="#559cec"/>
      <stop offset="1" stop-color="#5ea0ef"/>
    </linearGradient>
    <linearGradient id="linear-gradient-4" x1="133.8" y1="380.79" x2="133.8" y2="360.51" gradientTransform="matrix(1, 0, 0, -1, 0, 478.76)" gradientUnits="userSpaceOnUse">
      <stop offset="0.1" stop-color="#54aef0"/>
      <stop offset="1" stop-color="#1988d9"/>
    </linearGradient>
    <linearGradient id="linear-gradient-5" x1="134.87" y1="391.66" x2="136.34" y2="373.24" xlink:href="#linear-gradient-4"/>
    <linearGradient id="linear-gradient-6" x1="145.99" y1="361.06" x2="145.99" y2="374.15" gradientTransform="matrix(1, 0, 0, -1, 0, 478.76)" gradientUnits="userSpaceOnUse">
      <stop offset="0" stop-color="#76bc2d"/>
      <stop offset="0.6" stop-color="#81ce31"/>
      <stop offset="0.82" stop-color="#86d633"/>
    </linearGradient>
    <radialGradient id="radial-gradient" cx="96.13" cy="330.89" r="8.99" gradientTransform="matrix(1.01, 0, 0, -1.14, 16.33, 542.74)" gradientUnits="userSpaceOnUse">
      <stop offset="0.2" stop-color="#ffd70f"/>
      <stop offset="0.44" stop-color="#ffcb12"/>
      <stop offset="0.87" stop-color="#feac19"/>
      <stop offset="1" stop-color="#fea11b"/>
    </radialGradient>
    <linearGradient id="linear-gradient-7" x1="162.38" y1="300.06" x2="162.38" y2="326.06" gradientTransform="matrix(1, 0, 0, -1, 0, 478.76)" gradientUnits="userSpaceOnUse">
      <stop offset="0" stop-color="#5e9624"/>
      <stop offset="0.01" stop-color="#5e9724"/>
      <stop offset="0.35" stop-color="#6cab29"/>
      <stop offset="0.68" stop-color="#73b82c"/>
      <stop offset="1" stop-color="#76bc2d"/>
    </linearGradient>
    <linearGradient id="linear-gradient-8" x1="238.66" y1="448.7" x2="230.18" y2="464.76" xlink:href="#linear-gradient"/>
    <linearGradient id="linear-gradient-9" x1="235.01" y1="453.37" x2="240.87" y2="443.26" xlink:href="#linear-gradient-2"/>
    <linearGradient id="linear-gradient-10" x1="272.8" y1="432.29" x2="272.8" y2="412.01" xlink:href="#linear-gradient-4"/>
    <linearGradient id="linear-gradient-11" x1="273.87" y1="443.16" x2="275.34" y2="424.74" xlink:href="#linear-gradient-4"/>
    <linearGradient id="linear-gradient-12" x1="284.99" y1="412.56" x2="284.99" y2="425.65" xlink:href="#linear-gradient-6"/>
    <linearGradient id="linear-gradient-13" x1="301.38" y1="300.06" x2="301.38" y2="326.06" gradientTransform="matrix(1, 0, 0, -1, 0, 478.76)" gradientUnits="userSpaceOnUse">
      <stop offset="0.16" stop-color="#6f4bb2"/>
      <stop offset="0.32" stop-color="#7450b5"/>
      <stop offset="0.51" stop-color="#825dbf"/>
      <stop offset="0.72" stop-color="#9a72ce"/>
      <stop offset="0.94" stop-color="#bb90e4"/>
      <stop offset="1" stop-color="#c69aeb"/>
    </linearGradient>
    <linearGradient id="linear-gradient-14" x1="252.71" y1="292.44" x2="252.71" y2="331.98" xlink:href="#linear-gradient-3"/>
  </defs>
  <g id="Shapes">
    <rect width="416.32" height="198.23" fill="#fff"/>
    <g>
      <rect x="0.65" y="0.7" width="205" height="197" fill="#fff"/>
      <rect x="0.65" y="0.7" width="205" height="197" fill="#50e6ff" opacity="0.05"/>
      <rect x="0.65" y="0.7" width="205" height="197" fill="none" stroke="#0072c6" stroke-miterlimit="10" stroke-width="0.5" opacity="0.4"/>
    </g>
    <g>
      <rect x="10.65" y="27.7" width="185" height="95" fill="#fff"/>
      <rect x="10.65" y="27.7" width="185" height="95" fill="#0072c6" opacity="0.22"/>
    </g>
    <g>
      <rect x="10.65" y="137.93" width="185" height="49.77" fill="#fff"/>
      <rect x="10.65" y="137.93" width="185" height="49.77" fill="#3c3c41" opacity="0.1"/>
    </g>
    <g>
      <polygon points="7.23 24.88 21.74 34.3 36.5 24.85 38.35 27.01 21.74 37.7 5.38 27.01 7.23 24.88" fill="#50e6ff"/>
      <polygon points="8.33 23.67 21.74 7.7 35.42 23.69 21.74 32.34 8.33 23.67" fill="#fff"/>
      <polygon points="21.74 7.7 21.74 32.34 8.33 23.67 21.74 7.7" fill="#50e6ff"/>
      <polygon points="21.74 7.7 21.74 32.34 35.42 23.69 21.74 7.7" fill="url(#linear-gradient)"/>
      <polygon points="21.74 20.43 35.42 23.69 21.74 32.34 21.74 20.43" fill="#53b1e0"/>
      <polygon points="21.74 32.34 8.33 23.67 21.74 20.43 21.74 32.34" fill="#9cebff"/>
      <polygon points="21.74 37.7 38.35 27.01 36.5 24.85 21.74 34.3 21.74 37.7" fill="url(#linear-gradient-2)"/>
    </g>
    <path d="M134,56.4h7.8v7.8H134ZM124.88,46h7.8V38.2H126a1.09,1.09,0,0,0-1.09,1.09ZM126,64.2h6.71V56.4h-7.8v6.71A1.09,1.09,0,0,0,126,64.2Zm-1.09-9.1h7.8V47.3h-7.8Zm18.2,9.1h6.71a1.09,1.09,0,0,0,1.09-1.09h0V56.4h-7.8ZM134,55.1h7.8V47.3H134Zm9.1,0h7.8V47.3h-7.8Zm0-16.9V46h7.8V39.29a1.09,1.09,0,0,0-1.09-1.09h-6.71ZM134,46h7.8V38.2H134Z" fill="url(#linear-gradient-3)"/>
    <g>
      <path d="M138.6,104.72a.85.85,0,0,1,.86-.86h4.91a11,11,0,0,0-8.91-4.08c-7.51,0-11.46,4.72-12.21,12.42a2.16,2.16,0,0,0,1.92,2.38h13.45Z" fill="url(#linear-gradient-4)"/>
      <path d="M135.46,101.41a6.9,6.9,0,0,1-3.71-1.09l3.68,9.58,3.64-9.53A6.68,6.68,0,0,1,135.46,101.41Z" fill="#fff" opacity="0.8" style="isolation: isolate"/>
      <circle cx="135.46" cy="94.55" r="6.85" fill="url(#linear-gradient-5)"/>
      <path d="M144,113.78H148v3.92H144Zm-4.58-5.24h3.92v-3.92H140a.55.55,0,0,0-.56.55Zm.55,9.16h3.36v-3.92h-3.91v3.35a.55.55,0,0,0,.53.57Zm-.55-4.58h3.92v-3.89h-3.92Zm9.14,4.58H152a.53.53,0,0,0,.53-.53v-3.38H148.6ZM144,113.12H148v-3.89H144Zm4.56,0h3.93v-3.89H148.6Zm0-8.5v3.92h3.93v-3.35a.54.54,0,0,0-.52-.56H148.6ZM144,108.54H148v-3.92H144Z" fill="url(#linear-gradient-6)"/>
    </g>
    <g>
      <line x1="137.88" y1="67.7" x2="137.88" y2="79.24" fill="none" stroke="#3c3c41" stroke-miterlimit="10"/>
      <polygon points="134.14 78.14 137.88 84.62 141.62 78.14 134.14 78.14" fill="#3c3c41"/>
    </g>
    <g>
      <g>
        <path d="M112.49,167.16h-4.6a.28.28,0,0,1-.32-.23.08.08,0,0,1,0-.07.2.2,0,0,1,0-.11l5.61-13.87a.28.28,0,0,1,.2-.18h5.45a.29.29,0,0,1,.27.29h0a.54.54,0,0,1,0,.18L112.58,164h6.34a.31.31,0,0,1,.28.24.32.32,0,0,1-.08.2L108.6,178.39c-.1.08-.82.82-.47-.3h0Z" fill="url(#radial-gradient)"/>
        <g>
          <path d="M108.36,171.68l-.85.86a.4.4,0,0,1-.56,0l-6.33-6.32a.77.77,0,0,1,0-1.09l.86-.86h0l6.88,6.86A.39.39,0,0,1,108.36,171.68Z" fill="#50e6ff"/>
          <path d="M107.36,158.86l.86.86a.39.39,0,0,1,0,.55l-6.76,6.78h0l-.85-.86a.77.77,0,0,1,0-1.09l6.22-6.24a.39.39,0,0,1,.55,0Z" fill="#1490df"/>
        </g>
        <g>
          <path d="M125.29,164.25l.85.86a.76.76,0,0,1,0,1.09h0l-6.33,6.31a.4.4,0,0,1-.56,0h0l-.85-.85a.4.4,0,0,1,0-.56h0l6.88-6.86Z" fill="#50e6ff"/>
          <path d="M126.15,166.2l-.86.85h0l-6.75-6.78a.38.38,0,0,1,0-.55h0l.85-.85a.39.39,0,0,1,.56,0h0l6.21,6.23a.77.77,0,0,1,0,1.09Z" fill="#1490df"/>
        </g>
      </g>
      <path d="M158.48,170.9h7.8v7.8h-7.8Zm-9.1-10.4h7.8v-7.8h-6.71a1.09,1.09,0,0,0-1.09,1.09Zm1.09,18.2h6.71v-7.8h-7.8v6.71a1.09,1.09,0,0,0,1.09,1.09Zm-1.09-9.1h7.8v-7.8h-7.8Zm18.2,9.1h6.73a1.09,1.09,0,0,0,1.07-1.09V170.9h-7.8Zm-9.1-9.1h7.8v-7.8h-7.8Zm9.1,0h7.8v-7.8h-7.8Zm0-16.9v7.8h7.8v-6.71a1.1,1.1,0,0,0-1.07-1.09Zm-9.1,7.8h7.8v-7.8h-7.8Z" fill="url(#linear-gradient-7)"/>
    </g>
    <g>
      <path d="M112.88,144.32V134.7a5,5,0,0,1,5-5h40a5,5,0,0,1,5,5v9.62" fill="none" stroke="#3c3c41" stroke-miterlimit="10"/>
      <polygon points="116.62 143.23 112.88 149.7 109.14 143.23 116.62 143.23" fill="#3c3c41"/>
      <polygon points="159.14 143.23 162.88 149.7 166.62 143.23 159.14 143.23" fill="#3c3c41"/>
    </g>
    <line x1="137.88" y1="129.7" x2="137.88" y2="117.7" fill="none" stroke="#3c3c41" stroke-miterlimit="10"/>
    <g>
      <rect x="210.65" y="0.7" width="205" height="197" fill="#fff"/>
      <rect x="210.65" y="0.7" width="205" height="197" fill="#50e6ff" opacity="0.05"/>
      <rect x="210.65" y="0.7" width="205" height="197" fill="none" stroke="#0072c6" stroke-miterlimit="10" stroke-width="0.5" opacity="0.4"/>
    </g>
    <g>
      <rect x="220.65" y="27.7" width="185" height="95" fill="#fff"/>
      <rect x="220.65" y="27.7" width="185" height="95" fill="#0072c6" opacity="0.22"/>
    </g>
    <g>
      <rect x="220.65" y="137.93" width="185" height="49.77" fill="#fff"/>
      <rect x="220.65" y="137.93" width="185" height="49.77" fill="#3c3c41" opacity="0.1"/>
    </g>
    <g>
      <polygon points="216.23 24.88 230.74 34.3 245.5 24.85 247.35 27.01 230.74 37.7 214.38 27.01 216.23 24.88" fill="#50e6ff"/>
      <polygon points="217.33 23.67 230.74 7.7 244.42 23.69 230.74 32.34 217.33 23.67" fill="#fff"/>
      <polygon points="230.74 7.7 230.74 32.34 217.33 23.67 230.74 7.7" fill="#50e6ff"/>
      <polygon points="230.74 7.7 230.74 32.34 244.42 23.69 230.74 7.7" fill="url(#linear-gradient-8)"/>
      <polygon points="230.74 20.43 244.42 23.69 230.74 32.34 230.74 20.43" fill="#53b1e0"/>
      <polygon points="230.74 32.34 217.33 23.67 230.74 20.43 230.74 32.34" fill="#9cebff"/>
      <polygon points="230.74 37.7 247.35 27.01 245.5 24.85 230.74 34.3 230.74 37.7" fill="url(#linear-gradient-9)"/>
    </g>
    <g>
      <path d="M277.6,53.22a.85.85,0,0,1,.86-.86h4.91a11,11,0,0,0-8.91-4.08C267,48.28,263,53,262.25,60.7a2.16,2.16,0,0,0,1.92,2.38h13.45Z" fill="url(#linear-gradient-10)"/>
      <path d="M274.46,49.91a6.9,6.9,0,0,1-3.71-1.09l3.68,9.58,3.64-9.53A6.68,6.68,0,0,1,274.46,49.91Z" fill="#fff" opacity="0.8" style="isolation: isolate"/>
      <circle cx="274.46" cy="43.05" r="6.85" fill="url(#linear-gradient-11)"/>
      <path d="M283,62.28H287V66.2H283ZM278.46,57h3.92V53.12H279a.55.55,0,0,0-.56.55ZM279,66.2h3.36V62.28h-3.91v3.35a.55.55,0,0,0,.53.57Zm-.55-4.58h3.92V57.73h-3.92Zm9.14,4.58H291a.53.53,0,0,0,.53-.53V62.29H287.6ZM283,61.62H287V57.73H283Zm4.56,0h3.93V57.73H287.6Zm0-8.5V57h3.93V53.69a.54.54,0,0,0-.52-.56H287.6ZM283,57H287V53.12H283Z" fill="url(#linear-gradient-12)"/>
    </g>
    <path d="M297.48,170.9h7.8v7.8h-7.8Zm-9.1-10.4h7.8v-7.8h-6.71a1.09,1.09,0,0,0-1.09,1.09Zm1.09,18.2h6.71v-7.8h-7.8v6.71a1.09,1.09,0,0,0,1.09,1.09Zm-1.09-9.1h7.8v-7.8h-7.8Zm18.2,9.1h6.73a1.09,1.09,0,0,0,1.07-1.09V170.9h-7.8Zm-9.1-9.1h7.8v-7.8h-7.8Zm9.1,0h7.8v-7.8h-7.8Zm0-16.9v7.8h7.8v-6.71a1.1,1.1,0,0,0-1.07-1.09Zm-9.1,7.8h7.8v-7.8h-7.8Z" fill="url(#linear-gradient-13)"/>
    <g>
      <path d="M251.88,144.32V134.7a5,5,0,0,1,5-5h40a5,5,0,0,1,5,5v9.62" fill="none" stroke="#3c3c41" stroke-miterlimit="10"/>
      <polygon points="255.62 143.23 251.88 149.7 248.14 143.23 255.62 143.23" fill="#3c3c41"/>
      <polygon points="298.14 143.23 301.88 149.7 305.62 143.23 298.14 143.23" fill="#3c3c41"/>
    </g>
    <line x1="276.88" y1="129.7" x2="276.88" y2="68.7" fill="none" stroke="#3c3c41" stroke-miterlimit="10"/>
    <g>
      <path d="M271,170.54a8.15,8.15,0,0,0-7.15-7.9,10.37,10.37,0,0,0-10.69-9.93A10.68,10.68,0,0,0,243,159.59a9.78,9.78,0,0,0-8.59,9.51,10,10,0,0,0,10.32,9.59h17.62a1.62,1.62,0,0,0,.44,0A8.36,8.36,0,0,0,271,170.54Z" fill="url(#linear-gradient-14)"/>
      <path d="M245.42,168.53h-1.8a2.22,2.22,0,1,0,0,1h1.8a.41.41,0,0,1,.4.41v8.76h1v-8.76A1.4,1.4,0,0,0,245.42,168.53Zm-4,1.79a1.31,1.31,0,1,1,1.3-1.3,1.31,1.31,0,0,1-1.3,1.3Z" fill="#9cebff"/>
      <path d="M252.58,169v-2a1.42,1.42,0,0,0-1.42-1.43H248a.41.41,0,0,1-.41-.4V154.3l-.46.24-.53.28V165a1.41,1.41,0,0,0,1.4,1.41h3.16a.43.43,0,0,1,.43.43h0v2a2.21,2.21,0,1,0,1,0Zm-.51,3.46h0a1.31,1.31,0,1,1,1.31-1.31,1.31,1.31,0,0,1-1.31,1.31Z" fill="#f2f2f2"/>
      <path d="M264,164.68a2.22,2.22,0,0,0-.5,4.38v.4a.43.43,0,0,1-.43.43H259v-7.17a1.41,1.41,0,0,0-1.41-1.4h-2.1a2.19,2.19,0,0,0-2.15-1.73,2.22,2.22,0,1,0,2.15,2.73h2.18a.4.4,0,0,1,.41.4v16h1v-7.8h4.07a1.42,1.42,0,0,0,1.42-1.43v-.4a2.22,2.22,0,0,0,1.73-2.16h0a2.21,2.21,0,0,0-2.21-2.22Zm-10.66-1.57h0a1.3,1.3,0,1,1,1.3-1.3,1.31,1.31,0,0,1-1.3,1.3ZM264,168.2h0a1.3,1.3,0,1,1,1.29-1.32v0A1.3,1.3,0,0,1,264,168.2Z" fill="#9cebff"/>
    </g>
    <g>
      <line x1="155.23" y1="50.7" x2="255.06" y2="50.7" fill="none" stroke="#3c3c41" stroke-miterlimit="10"/>
      <polygon points="253.97 54.44 260.44 50.7 253.97 46.96 253.97 54.44" fill="#3c3c41"/>
    </g>
  </g>
  <g id="Text">
    <g>
      <path d="M51.89,22.7H50.36l-.75-2.13H46.3l-.72,2.13H44.05l3.15-8.4h1.57Zm-2.65-3.27-1.17-3.35c0-.11-.07-.29-.11-.53h0a4.88,4.88,0,0,1-.12.53l-1.15,3.35Z" fill="#1e1e1e"/>
      <path d="M57.68,17.27l-3.24,4.37h3.23V22.7H52.54v-.51l3.31-4.43h-3V16.7h4.83Z" fill="#1e1e1e"/>
      <path d="M64,22.7H62.68v-.95h0a2,2,0,0,1-1.84,1.09q-2.13,0-2.13-2.55V16.7h1.36v3.45c0,1.08.42,1.62,1.25,1.62a1.25,1.25,0,0,0,1-.45,1.7,1.7,0,0,0,.39-1.17V16.7H64Z" fill="#1e1e1e"/>
      <path d="M69.2,18a1.13,1.13,0,0,0-.71-.19,1.22,1.22,0,0,0-1,.54,2.43,2.43,0,0,0-.4,1.48V22.7H65.72v-6h1.36v1.24h0a2.14,2.14,0,0,1,.61-1,1.44,1.44,0,0,1,.93-.35,1.21,1.21,0,0,1,.56.11Z" fill="#1e1e1e"/>
      <path d="M75.28,20.07H71.19a1.74,1.74,0,0,0,.52,1.29,1.89,1.89,0,0,0,1.34.45,2.9,2.9,0,0,0,1.76-.58v1.1a4,4,0,0,1-2.16.51A2.69,2.69,0,0,1,70.57,22a3.28,3.28,0,0,1-.75-2.3,3.14,3.14,0,0,1,.83-2.28,2.69,2.69,0,0,1,2-.89,2.39,2.39,0,0,1,1.91.79,3.29,3.29,0,0,1,.67,2.2Zm-1.31-1A1.71,1.71,0,0,0,73.62,18a1.13,1.13,0,0,0-.93-.4,1.36,1.36,0,0,0-1,.42,2,2,0,0,0-.5,1.12Z" fill="#1e1e1e"/>
      <path d="M86.93,22.7H85.4l-.75-2.13H81.34l-.73,2.13H79.09l3.15-8.4h1.57Zm-2.65-3.27-1.17-3.35c0-.11-.07-.29-.11-.53h0a4.88,4.88,0,0,1-.12.53L81.7,19.43Z" fill="#1e1e1e"/>
      <path d="M88,22.7V14.3h2.43q4.64,0,4.64,4.1a4,4,0,0,1-1.29,3.12,4.9,4.9,0,0,1-3.45,1.18Zm1.39-7.21v6h1.11a3.11,3.11,0,0,0,2.29-.81,3.1,3.1,0,0,0,.82-2.29q0-2.94-3.06-2.94Z" fill="#1e1e1e"/>
      <path d="M105.31,15.49h-2.42V22.7H101.5V15.49H99.09V14.3h6.22Z" fill="#1e1e1e"/>
      <path d="M110.58,20.07h-4.09a1.74,1.74,0,0,0,.52,1.29,1.89,1.89,0,0,0,1.34.45,3,3,0,0,0,1.77-.58v1.1a4.08,4.08,0,0,1-2.17.51,2.69,2.69,0,0,1-2.08-.81,3.28,3.28,0,0,1-.75-2.3,3.14,3.14,0,0,1,.83-2.28,2.71,2.71,0,0,1,2.06-.89,2.38,2.38,0,0,1,1.9.79,3.29,3.29,0,0,1,.67,2.2Zm-1.31-1a1.76,1.76,0,0,0-.34-1.14,1.16,1.16,0,0,0-.94-.4,1.32,1.32,0,0,0-1,.42,2,2,0,0,0-.51,1.12Z" fill="#1e1e1e"/>
      <path d="M117.24,22.7h-1.36V19.32c0-1.12-.4-1.68-1.19-1.68a1.31,1.31,0,0,0-1,.47,1.71,1.71,0,0,0-.4,1.17V22.7h-1.37v-6h1.37v1h0a2.14,2.14,0,0,1,2-1.14,1.82,1.82,0,0,1,1.49.64,2.88,2.88,0,0,1,.52,1.84Z" fill="#1e1e1e"/>
      <path d="M123.49,22.7h-1.32v-.93h0a2,2,0,0,1-1.82,1.07,1.94,1.94,0,0,1-1.39-.48,1.69,1.69,0,0,1-.5-1.27c0-1.13.65-1.79,2-2l1.78-.25c0-.86-.41-1.28-1.22-1.28a2.85,2.85,0,0,0-1.93.74V17.13a4.16,4.16,0,0,1,2.19-.57,2,2,0,0,1,2.27,2.24Zm-1.31-2.94-1.26.17a1.93,1.93,0,0,0-.88.29.83.83,0,0,0-.3.73.8.8,0,0,0,.27.62,1.09,1.09,0,0,0,.73.24,1.34,1.34,0,0,0,1-.43,1.56,1.56,0,0,0,.41-1.1Z" fill="#1e1e1e"/>
      <path d="M130.45,22.7h-1.36V19.32c0-1.12-.4-1.68-1.19-1.68a1.31,1.31,0,0,0-1,.47,1.71,1.71,0,0,0-.4,1.17V22.7H125.1v-6h1.37v1h0a2.14,2.14,0,0,1,2-1.14,1.82,1.82,0,0,1,1.49.64,2.88,2.88,0,0,1,.52,1.84Z" fill="#1e1e1e"/>
      <path d="M135.18,22.64a2.36,2.36,0,0,1-1.05.2,1.51,1.51,0,0,1-1.74-1.68V17.77h-1V16.7h1V15.32l1.36-.39V16.7h1.43v1.07h-1.43v3a1.16,1.16,0,0,0,.19.76.83.83,0,0,0,.65.23.92.92,0,0,0,.59-.2Z" fill="#1e1e1e"/>
      <path d="M146.71,22.7h-1.53l-.76-2.13h-3.3l-.73,2.13h-1.52L142,14.3h1.57Zm-2.66-3.27-1.16-3.35a3.59,3.59,0,0,1-.11-.53h0a3.43,3.43,0,0,1-.11.53l-1.16,3.35Z" fill="#1e1e1e"/>
    </g>
    <g>
      <path d="M20.23,160.37v-1.44a2,2,0,0,0,.46.32,4.72,4.72,0,0,0,.56.24q.3.09.6.15a3.74,3.74,0,0,0,.55.05,2.4,2.4,0,0,0,1.31-.29A1,1,0,0,0,24,158a1.52,1.52,0,0,0-.4-.4,4.91,4.91,0,0,0-.61-.35l-.75-.35c-.28-.15-.55-.31-.79-.46a3.8,3.8,0,0,1-.65-.52,2.22,2.22,0,0,1-.42-.64,2,2,0,0,1-.16-.84,1.91,1.91,0,0,1,.27-1,2.29,2.29,0,0,1,.7-.72,3.15,3.15,0,0,1,1-.42,4.87,4.87,0,0,1,1.14-.14,4.55,4.55,0,0,1,1.92.3v1.38a3,3,0,0,0-1.84-.52,3.15,3.15,0,0,0-.61.06,2,2,0,0,0-.56.19,1.2,1.2,0,0,0-.39.35.85.85,0,0,0-.15.51,1,1,0,0,0,.11.48,1.38,1.38,0,0,0,.35.38,3.8,3.8,0,0,0,.55.33c.21.11.47.22.75.35a9.48,9.48,0,0,1,.83.48A3.83,3.83,0,0,1,25,157a2.35,2.35,0,0,1,.46.67,1.93,1.93,0,0,1,.18.85,2.16,2.16,0,0,1-.26,1.08,2,2,0,0,1-.7.71,2.88,2.88,0,0,1-1,.4,5.81,5.81,0,0,1-1.2.12l-.52,0-.63-.09a5.44,5.44,0,0,1-.61-.15A2,2,0,0,1,20.23,160.37Z" fill="#1e1e1e"/>
      <path d="M32.15,160.7H30.79v-.95h0a2,2,0,0,1-1.84,1.09q-2.13,0-2.13-2.55V154.7h1.36v3.45c0,1.08.42,1.61,1.25,1.61a1.24,1.24,0,0,0,1-.44,1.72,1.72,0,0,0,.39-1.17V154.7h1.36Z" fill="#1e1e1e"/>
      <path d="M35.21,159.84h0v.86H33.83v-8.88h1.36v3.94h0a2.24,2.24,0,0,1,2-1.2,2.15,2.15,0,0,1,1.78.81,3.33,3.33,0,0,1,.64,2.16,3.78,3.78,0,0,1-.72,2.41,2.39,2.39,0,0,1-2,.9A1.93,1.93,0,0,1,35.21,159.84Zm0-2.39v.74a1.65,1.65,0,0,0,.41,1.12,1.4,1.4,0,0,0,1.07.45,1.37,1.37,0,0,0,1.18-.58,2.74,2.74,0,0,0,.44-1.65,2.12,2.12,0,0,0-.41-1.38,1.29,1.29,0,0,0-1.08-.5,1.46,1.46,0,0,0-1.17.51A1.89,1.89,0,0,0,35.18,157.45Z" fill="#1e1e1e"/>
      <path d="M40.7,160.51v-1.25a2.76,2.76,0,0,0,1.68.58c.82,0,1.23-.25,1.23-.73a.58.58,0,0,0-.1-.35,1,1,0,0,0-.28-.25,1.56,1.56,0,0,0-.43-.2l-.54-.2a5.84,5.84,0,0,1-.66-.31,2.19,2.19,0,0,1-.5-.38,1.2,1.2,0,0,1-.29-.47,1.63,1.63,0,0,1-.1-.61,1.5,1.5,0,0,1,.2-.77,1.8,1.8,0,0,1,.55-.55,2.66,2.66,0,0,1,.79-.34,3.44,3.44,0,0,1,.91-.12,4.35,4.35,0,0,1,1.49.25V156a2.53,2.53,0,0,0-1.46-.43,2.16,2.16,0,0,0-.46.05,1.5,1.5,0,0,0-.36.15,1,1,0,0,0-.23.22.6.6,0,0,0-.08.29.67.67,0,0,0,.08.33.82.82,0,0,0,.25.24,1.92,1.92,0,0,0,.38.19l.52.18c.26.11.49.21.7.32a2.33,2.33,0,0,1,.52.38,1.36,1.36,0,0,1,.34.48A1.75,1.75,0,0,1,45,159a1.49,1.49,0,0,1-.21.8,1.67,1.67,0,0,1-.56.56,2.65,2.65,0,0,1-.81.33,3.85,3.85,0,0,1-1,.11A4.08,4.08,0,0,1,40.7,160.51Z" fill="#1e1e1e"/>
      <path d="M50.56,160.43a3.43,3.43,0,0,1-1.71.41A2.9,2.9,0,0,1,46.7,160a3,3,0,0,1-.82-2.17,3.24,3.24,0,0,1,.88-2.38,3.15,3.15,0,0,1,2.36-.9,3.47,3.47,0,0,1,1.45.29v1.26a2.22,2.22,0,0,0-1.34-.46,1.84,1.84,0,0,0-1.41.58,2.13,2.13,0,0,0-.55,1.53,2,2,0,0,0,.52,1.47,1.81,1.81,0,0,0,1.39.53,2.14,2.14,0,0,0,1.38-.52Z" fill="#1e1e1e"/>
      <path d="M55.39,156a1.13,1.13,0,0,0-.71-.2,1.23,1.23,0,0,0-1,.55,2.43,2.43,0,0,0-.4,1.48v2.87H51.91v-6h1.36v1.24h0a2.14,2.14,0,0,1,.61-1,1.44,1.44,0,0,1,.93-.35,1.09,1.09,0,0,1,.56.11Z" fill="#1e1e1e"/>
      <path d="M57.05,153.44a.84.84,0,0,1-.57-.21.76.76,0,0,1,0-1.11.8.8,0,0,1,.57-.22.83.83,0,0,1,.59.22.75.75,0,0,1,0,1.1A.83.83,0,0,1,57.05,153.44Zm.68,7.26H56.37v-6h1.36Z" fill="#1e1e1e"/>
      <path d="M60.8,159.82h0v3.64H59.42V154.7h1.36v1.06h0a2.24,2.24,0,0,1,2-1.2,2.15,2.15,0,0,1,1.78.8,3.37,3.37,0,0,1,.64,2.16,3.73,3.73,0,0,1-.72,2.4,2.39,2.39,0,0,1-2,.91A2,2,0,0,1,60.8,159.82Zm0-2.37v.74a1.61,1.61,0,0,0,.42,1.12,1.49,1.49,0,0,0,2.25-.13,2.81,2.81,0,0,0,.43-1.65,2.18,2.18,0,0,0-.4-1.38,1.31,1.31,0,0,0-1.09-.5,1.49,1.49,0,0,0-1.17.51A1.94,1.94,0,0,0,60.77,157.45Z" fill="#1e1e1e"/>
      <path d="M69.78,160.64a2.35,2.35,0,0,1-1,.2c-1.17,0-1.75-.56-1.75-1.68v-3.39H66V154.7h1v-1.39l1.36-.38v1.77h1.43v1.07H68.35v3a1.18,1.18,0,0,0,.19.76.83.83,0,0,0,.65.23.92.92,0,0,0,.59-.2Z" fill="#1e1e1e"/>
      <path d="M71.56,153.44a.82.82,0,0,1-.57-.21.76.76,0,0,1,0-1.11.78.78,0,0,1,.57-.22.81.81,0,0,1,.58.22.75.75,0,0,1,0,1.1A.81.81,0,0,1,71.56,153.44Zm.67,7.26H70.87v-6h1.36Z" fill="#1e1e1e"/>
      <path d="M76.6,160.84a3,3,0,0,1-2.22-.84,3,3,0,0,1-.83-2.23,3,3,0,0,1,3.19-3.21,2.91,2.91,0,0,1,2.2.83,3.19,3.19,0,0,1,.78,2.29,3.13,3.13,0,0,1-.85,2.3A3,3,0,0,1,76.6,160.84Zm.06-5.19a1.55,1.55,0,0,0-1.26.55,2.34,2.34,0,0,0-.46,1.54,2.19,2.19,0,0,0,.47,1.48,1.57,1.57,0,0,0,1.25.54,1.49,1.49,0,0,0,1.24-.53,2.39,2.39,0,0,0,.43-1.52,2.44,2.44,0,0,0-.43-1.53A1.52,1.52,0,0,0,76.66,155.65Z" fill="#1e1e1e"/>
      <path d="M86.41,160.7H85.05v-3.38c0-1.12-.39-1.68-1.19-1.68a1.3,1.3,0,0,0-1,.47,1.72,1.72,0,0,0-.41,1.17v3.42H81.07v-6h1.36v1h0a2.13,2.13,0,0,1,1.94-1.14,1.82,1.82,0,0,1,1.5.64,2.85,2.85,0,0,1,.51,1.83Z" fill="#1e1e1e"/>
      <path d="M54.57,166.51v8.59H53.21v-6.92a4.33,4.33,0,0,1-.79.44,5.79,5.79,0,0,1-1,.33v-1.16l.65-.23.63-.28c.2-.1.41-.21.62-.34s.42-.27.65-.43Z" fill="#1e1e1e"/>
    </g>
    <g>
      <path d="M63.73,55.85H62.65l-.88-2.34H58.22l-.83,2.34H56.3l3.21-8.36h1Zm-2.28-3.22-1.32-3.56a3.91,3.91,0,0,1-.12-.56h0a3.62,3.62,0,0,1-.13.56l-1.3,3.56Z" fill="#1e1e1e"/>
      <path d="M65.81,55h0v3.61h-1V49.88h1v1h0a2.27,2.27,0,0,1,2.07-1.19,2.19,2.19,0,0,1,1.8.8,3.34,3.34,0,0,1,.64,2.15,3.73,3.73,0,0,1-.72,2.4,2.44,2.44,0,0,1-2,.9A2,2,0,0,1,65.81,55Zm0-2.4v.83a1.8,1.8,0,0,0,.48,1.26,1.72,1.72,0,0,0,2.58-.15,3,3,0,0,0,.49-1.85,2.4,2.4,0,0,0-.46-1.56,1.49,1.49,0,0,0-1.24-.56,1.68,1.68,0,0,0-1.34.58A2.1,2.1,0,0,0,65.79,52.58Z" fill="#1e1e1e"/>
      <path d="M72.78,55h0v3.61h-1V49.88h1v1h0a2.26,2.26,0,0,1,2.06-1.19,2.19,2.19,0,0,1,1.8.8,3.34,3.34,0,0,1,.65,2.15,3.73,3.73,0,0,1-.73,2.4,2.43,2.43,0,0,1-2,.9A2,2,0,0,1,72.78,55Zm0-2.4v.83a1.77,1.77,0,0,0,.49,1.26,1.59,1.59,0,0,0,1.22.51,1.62,1.62,0,0,0,1.36-.66,3.11,3.11,0,0,0,.49-1.85,2.46,2.46,0,0,0-.46-1.56,1.51,1.51,0,0,0-1.25-.56,1.69,1.69,0,0,0-1.34.58A2.1,2.1,0,0,0,72.75,52.58Z" fill="#1e1e1e"/>
      <path d="M79.73,55.85h-1V47h1Z" fill="#1e1e1e"/>
      <path d="M82,48.37a.6.6,0,0,1-.44-.18.59.59,0,0,1-.18-.44.61.61,0,0,1,.18-.45.6.6,0,0,1,.44-.17.62.62,0,0,1,.45.17.61.61,0,0,1,.18.45.6.6,0,0,1-.18.44A.63.63,0,0,1,82,48.37Zm.47,7.48h-1v-6h1Z" fill="#1e1e1e"/>
      <path d="M88.4,55.57a3.07,3.07,0,0,1-1.63.42,2.71,2.71,0,0,1-2.06-.83A3,3,0,0,1,83.92,53a3.3,3.3,0,0,1,.85-2.36,2.93,2.93,0,0,1,2.25-.9,3.2,3.2,0,0,1,1.39.29v1A2.43,2.43,0,0,0,87,50.55a1.91,1.91,0,0,0-1.5.65,2.49,2.49,0,0,0-.59,1.72,2.43,2.43,0,0,0,.55,1.66,1.91,1.91,0,0,0,1.48.6,2.38,2.38,0,0,0,1.47-.52Z" fill="#1e1e1e"/>
      <path d="M94.16,55.85h-1v-.94h0A2,2,0,0,1,91.34,56,1.92,1.92,0,0,1,90,55.51a1.61,1.61,0,0,1-.5-1.25c0-1.11.65-1.76,2-1.94l1.79-.25c0-1-.41-1.52-1.23-1.52a2.91,2.91,0,0,0-1.94.73v-1a3.69,3.69,0,0,1,2-.56c1.41,0,2.11.74,2.11,2.23Zm-1-3-1.44.2a2.3,2.3,0,0,0-1,.33,1.07,1.07,0,0,0,0,1.55,1.2,1.2,0,0,0,.83.27,1.51,1.51,0,0,0,1.17-.5,1.76,1.76,0,0,0,.46-1.26Z" fill="#1e1e1e"/>
      <path d="M98.65,55.79a1.87,1.87,0,0,1-.89.18c-1,0-1.57-.58-1.57-1.74V50.7h-1v-.82h1V48.42l1-.3v1.76h1.5v.82h-1.5v3.36a1.41,1.41,0,0,0,.2.85.8.8,0,0,0,.68.26.94.94,0,0,0,.62-.2Z" fill="#1e1e1e"/>
      <path d="M100.33,48.37a.6.6,0,0,1-.44-.18.59.59,0,0,1-.18-.44.61.61,0,0,1,.18-.45.6.6,0,0,1,.44-.17.62.62,0,0,1,.45.17.61.61,0,0,1,.18.45.6.6,0,0,1-.18.44A.63.63,0,0,1,100.33,48.37Zm.47,7.48h-1v-6h1Z" fill="#1e1e1e"/>
      <path d="M105.15,56a2.76,2.76,0,0,1-2.11-.84,3.09,3.09,0,0,1-.79-2.22,3.19,3.19,0,0,1,.82-2.34,2.94,2.94,0,0,1,2.22-.85,2.7,2.7,0,0,1,2.08.82,3.76,3.76,0,0,1-.05,4.57A2.85,2.85,0,0,1,105.15,56Zm.07-5.44a1.82,1.82,0,0,0-1.46.62,2.61,2.61,0,0,0-.53,1.73,2.43,2.43,0,0,0,.54,1.67,1.82,1.82,0,0,0,1.45.61,1.77,1.77,0,0,0,1.43-.6,2.61,2.61,0,0,0,.49-1.7,2.68,2.68,0,0,0-.49-1.73A1.77,1.77,0,0,0,105.22,50.55Z" fill="#1e1e1e"/>
      <path d="M114.55,55.85h-1V52.44q0-1.89-1.38-1.89a1.5,1.5,0,0,0-1.19.53,2,2,0,0,0-.47,1.36v3.41h-1v-6h1v1h0a2.18,2.18,0,0,1,2-1.13,1.84,1.84,0,0,1,1.5.63,2.87,2.87,0,0,1,.52,1.83Z" fill="#1e1e1e"/>
    </g>
    <g>
      <path d="M78.53,97.36V96.2a2,2,0,0,0,.47.32,5.19,5.19,0,0,0,.59.24c.21.06.41.11.62.15a4.13,4.13,0,0,0,.57,0,2.22,2.22,0,0,0,1.36-.34,1.14,1.14,0,0,0,.45-1,1.15,1.15,0,0,0-.15-.59A1.64,1.64,0,0,0,82,94.6a3.91,3.91,0,0,0-.62-.4l-.78-.4-.82-.45a3.81,3.81,0,0,1-.66-.5,2.24,2.24,0,0,1-.44-.63,2.13,2.13,0,0,1,.09-1.81,2.11,2.11,0,0,1,.66-.7,3,3,0,0,1,.94-.41,4.24,4.24,0,0,1,1.07-.14,4.11,4.11,0,0,1,1.81.3v1.11a3.26,3.26,0,0,0-1.91-.52,2.88,2.88,0,0,0-.65.07,1.78,1.78,0,0,0-.57.22,1.18,1.18,0,0,0-.41.39,1,1,0,0,0-.16.59,1.18,1.18,0,0,0,.12.55,1.41,1.41,0,0,0,.35.43,3.43,3.43,0,0,0,.58.38l.77.39c.3.15.59.31.86.47a4.46,4.46,0,0,1,.71.55,2.53,2.53,0,0,1,.48.66,1.84,1.84,0,0,1,.18.83,1.94,1.94,0,0,1-.9,1.75,2.88,2.88,0,0,1-1,.39,5.24,5.24,0,0,1-1.14.12l-.49,0q-.3,0-.6-.09a4.91,4.91,0,0,1-.58-.15A1.57,1.57,0,0,1,78.53,97.36Z" fill="#1e1e1e"/>
      <path d="M90,94.94H85.72a2.19,2.19,0,0,0,.54,1.55,1.86,1.86,0,0,0,1.42.55,3,3,0,0,0,1.86-.67v.9a3.52,3.52,0,0,1-2.09.57,2.54,2.54,0,0,1-2-.81,3.37,3.37,0,0,1-.73-2.3,3.25,3.25,0,0,1,.8-2.28,2.54,2.54,0,0,1,2-.89,2.28,2.28,0,0,1,1.82.76A3.2,3.2,0,0,1,90,94.44Zm-1-.81a2,2,0,0,0-.4-1.3,1.39,1.39,0,0,0-1.1-.46,1.52,1.52,0,0,0-1.15.49,2.16,2.16,0,0,0-.59,1.27Z" fill="#1e1e1e"/>
      <path d="M94.54,92.68a1.18,1.18,0,0,0-.73-.2,1.25,1.25,0,0,0-1,.58,2.75,2.75,0,0,0-.41,1.59v3h-1v-6h1v1.24h0A2.17,2.17,0,0,1,93,92,1.46,1.46,0,0,1,94,91.6a1.75,1.75,0,0,1,.58.08Z" fill="#1e1e1e"/>
      <path d="M100.78,91.7l-2.39,6h-1l-2.27-6h1.06l1.52,4.36a4.27,4.27,0,0,1,.21.84h0a4.38,4.38,0,0,1,.19-.81l1.59-4.39Z" fill="#1e1e1e"/>
      <path d="M102.34,90.18a.6.6,0,0,1-.44-.18.57.57,0,0,1-.18-.44.61.61,0,0,1,.18-.45.6.6,0,0,1,.44-.18.62.62,0,0,1,.63.63.6.6,0,0,1-.18.44A.61.61,0,0,1,102.34,90.18Zm.47,7.52h-1v-6h1Z" fill="#1e1e1e"/>
      <path d="M108.75,97.43a3.13,3.13,0,0,1-1.65.41A2.71,2.71,0,0,1,105,97a3.06,3.06,0,0,1-.78-2.17,3.36,3.36,0,0,1,.84-2.38,3,3,0,0,1,2.27-.9,3.13,3.13,0,0,1,1.4.3v1a2.47,2.47,0,0,0-1.43-.47,1.92,1.92,0,0,0-1.51.66,2.52,2.52,0,0,0-.59,1.73,2.39,2.39,0,0,0,.55,1.67,1.94,1.94,0,0,0,1.49.61,2.44,2.44,0,0,0,1.48-.53Z" fill="#1e1e1e"/>
      <path d="M114.9,94.94h-4.24a2.28,2.28,0,0,0,.54,1.55,1.89,1.89,0,0,0,1.42.55,3,3,0,0,0,1.86-.67v.9a3.47,3.47,0,0,1-2.09.57,2.57,2.57,0,0,1-2-.81,3.37,3.37,0,0,1-.72-2.3,3.25,3.25,0,0,1,.79-2.28,2.55,2.55,0,0,1,2-.89,2.29,2.29,0,0,1,1.83.76,3.19,3.19,0,0,1,.64,2.12Zm-1-.81a2,2,0,0,0-.41-1.3,1.38,1.38,0,0,0-1.09-.46,1.54,1.54,0,0,0-1.16.49,2.21,2.21,0,0,0-.58,1.27Z" fill="#1e1e1e"/>
      <path d="M72.46,111.24h0v3.62h-1V106.1h1v1.06h0a2.29,2.29,0,0,1,2.08-1.2,2.19,2.19,0,0,1,1.81.81,3.37,3.37,0,0,1,.65,2.16,3.71,3.71,0,0,1-.73,2.41,2.46,2.46,0,0,1-2,.9A2,2,0,0,1,72.46,111.24Zm0-2.42v.83a1.81,1.81,0,0,0,.48,1.27,1.65,1.65,0,0,0,1.23.52,1.63,1.63,0,0,0,1.37-.67,3.09,3.09,0,0,0,.49-1.86,2.41,2.41,0,0,0-.46-1.57,1.52,1.52,0,0,0-1.25-.57,1.73,1.73,0,0,0-1.35.58A2.16,2.16,0,0,0,72.44,108.82Z" fill="#1e1e1e"/>
      <path d="M81.61,107.08a1.18,1.18,0,0,0-.73-.2,1.25,1.25,0,0,0-1,.58,2.75,2.75,0,0,0-.41,1.59v3h-1v-6h1v1.24h0a2.08,2.08,0,0,1,.62-1,1.47,1.47,0,0,1,1-.35,1.65,1.65,0,0,1,.57.08Z" fill="#1e1e1e"/>
      <path d="M83.18,104.58a.59.59,0,0,1-.44-.18.58.58,0,0,1-.19-.44.62.62,0,0,1,.19-.45.59.59,0,0,1,.44-.18.6.6,0,0,1,.44.18.58.58,0,0,1,.19.45.58.58,0,0,1-.19.44A.6.6,0,0,1,83.18,104.58Zm.46,7.52h-1v-6h1Z" fill="#1e1e1e"/>
      <path d="M90.45,112.1h-1v-3.42c0-1.27-.46-1.91-1.39-1.91a1.54,1.54,0,0,0-1.2.54,2,2,0,0,0-.47,1.37v3.42h-1v-6h1v1h0a2.15,2.15,0,0,1,2-1.14,1.83,1.83,0,0,1,1.51.64,2.8,2.8,0,0,1,.52,1.84Z" fill="#1e1e1e"/>
      <path d="M96.33,111.83a3.1,3.1,0,0,1-1.64.41,2.7,2.7,0,0,1-2.07-.83,3,3,0,0,1-.79-2.17,3.32,3.32,0,0,1,.85-2.38A3,3,0,0,1,95,106a3.06,3.06,0,0,1,1.39.3v1a2.45,2.45,0,0,0-1.43-.47,2,2,0,0,0-1.51.66,2.51,2.51,0,0,0-.58,1.73,2.39,2.39,0,0,0,.55,1.67,1.92,1.92,0,0,0,1.48.61,2.4,2.4,0,0,0,1.48-.53Z" fill="#1e1e1e"/>
      <path d="M98.11,104.58a.6.6,0,0,1-.44-.18.57.57,0,0,1-.18-.44.61.61,0,0,1,.18-.45.6.6,0,0,1,.44-.18.64.64,0,0,1,.45.18.61.61,0,0,1,.18.45.6.6,0,0,1-.18.44A.64.64,0,0,1,98.11,104.58Zm.47,7.52h-1v-6h1Z" fill="#1e1e1e"/>
      <path d="M101.39,111.24h0v3.62h-1V106.1h1v1.06h0a2.26,2.26,0,0,1,2.07-1.2,2.18,2.18,0,0,1,1.81.81,3.31,3.31,0,0,1,.65,2.16,3.71,3.71,0,0,1-.73,2.41,2.45,2.45,0,0,1-2,.9A2,2,0,0,1,101.39,111.24Zm0-2.42v.83a1.82,1.82,0,0,0,.49,1.27,1.72,1.72,0,0,0,2.59-.15,3.09,3.09,0,0,0,.5-1.86,2.47,2.47,0,0,0-.46-1.57,1.54,1.54,0,0,0-1.26-.57,1.73,1.73,0,0,0-1.35.58A2.16,2.16,0,0,0,101.36,108.82Z" fill="#1e1e1e"/>
      <path d="M111.71,112.1h-1v-.93h0a2,2,0,0,1-1.84,1.07,2,2,0,0,1-1.41-.47,1.64,1.64,0,0,1-.5-1.26c0-1.12.66-1.77,2-2l1.79-.25q0-1.53-1.23-1.53a3,3,0,0,0-2,.74v-1a3.68,3.68,0,0,1,2-.57c1.41,0,2.12.75,2.12,2.24Zm-1-3-1.44.2a2.3,2.3,0,0,0-1,.33,1,1,0,0,0-.34.84.92.92,0,0,0,.31.72,1.25,1.25,0,0,0,.84.28,1.54,1.54,0,0,0,1.18-.51,1.76,1.76,0,0,0,.46-1.26Z" fill="#1e1e1e"/>
      <path d="M114.41,112.1h-1v-8.88h1Z" fill="#1e1e1e"/>
    </g>
    <g>
      <path d="M260.89,22.7h-1.53l-.75-2.13H255.3l-.72,2.13h-1.53l3.15-8.4h1.57Zm-2.65-3.27-1.17-3.35c0-.11-.07-.29-.11-.53h0a4.88,4.88,0,0,1-.12.53l-1.15,3.35Z" fill="#1e1e1e"/>
      <path d="M266.68,17.27l-3.24,4.37h3.23V22.7h-5.13v-.51l3.31-4.43h-3V16.7h4.83Z" fill="#1e1e1e"/>
      <path d="M273,22.7h-1.36v-.95h0a2,2,0,0,1-1.84,1.09q-2.13,0-2.13-2.55V16.7h1.36v3.45c0,1.08.42,1.62,1.25,1.62a1.25,1.25,0,0,0,1-.45,1.7,1.7,0,0,0,.39-1.17V16.7H273Z" fill="#1e1e1e"/>
      <path d="M278.2,18a1.13,1.13,0,0,0-.71-.19,1.22,1.22,0,0,0-1,.54,2.43,2.43,0,0,0-.4,1.48V22.7h-1.36v-6h1.36v1.24h0a2.14,2.14,0,0,1,.61-1,1.44,1.44,0,0,1,.93-.35,1.21,1.21,0,0,1,.56.11Z" fill="#1e1e1e"/>
      <path d="M284.28,20.07h-4.09a1.74,1.74,0,0,0,.52,1.29,1.89,1.89,0,0,0,1.34.45,2.9,2.9,0,0,0,1.76-.58v1.1a4,4,0,0,1-2.16.51,2.69,2.69,0,0,1-2.08-.81,3.28,3.28,0,0,1-.75-2.3,3.17,3.17,0,0,1,.82-2.28,2.72,2.72,0,0,1,2.06-.89,2.4,2.4,0,0,1,1.91.79,3.29,3.29,0,0,1,.67,2.2Zm-1.31-1a1.71,1.71,0,0,0-.35-1.14,1.13,1.13,0,0,0-.93-.4,1.36,1.36,0,0,0-1,.42,2,2,0,0,0-.5,1.12Z" fill="#1e1e1e"/>
      <path d="M295.93,22.7H294.4l-.75-2.13h-3.31l-.73,2.13h-1.52l3.15-8.4h1.57Zm-2.65-3.27-1.17-3.35c0-.11-.07-.29-.11-.53h0a4.88,4.88,0,0,1-.12.53l-1.16,3.35Z" fill="#1e1e1e"/>
      <path d="M297,22.7V14.3h2.43q4.63,0,4.64,4.1a4,4,0,0,1-1.29,3.12,4.9,4.9,0,0,1-3.45,1.18Zm1.39-7.21v6h1.11a3.11,3.11,0,0,0,2.29-.81,3.1,3.1,0,0,0,.82-2.29q0-2.94-3.06-2.94Z" fill="#1e1e1e"/>
      <path d="M314.31,15.49h-2.42V22.7H310.5V15.49h-2.41V14.3h6.22Z" fill="#1e1e1e"/>
      <path d="M319.58,20.07h-4.09a1.74,1.74,0,0,0,.52,1.29,1.89,1.89,0,0,0,1.34.45,3,3,0,0,0,1.77-.58v1.1a4.08,4.08,0,0,1-2.17.51,2.69,2.69,0,0,1-2.08-.81,3.28,3.28,0,0,1-.75-2.3,3.14,3.14,0,0,1,.83-2.28,2.71,2.71,0,0,1,2.06-.89,2.38,2.38,0,0,1,1.9.79,3.29,3.29,0,0,1,.67,2.2Zm-1.31-1a1.76,1.76,0,0,0-.34-1.14,1.16,1.16,0,0,0-.94-.4,1.32,1.32,0,0,0-1,.42,2,2,0,0,0-.51,1.12Z" fill="#1e1e1e"/>
      <path d="M326.23,22.7h-1.35V19.32c0-1.12-.4-1.68-1.19-1.68a1.31,1.31,0,0,0-1,.47,1.71,1.71,0,0,0-.4,1.17V22.7h-1.37v-6h1.37v1h0a2.14,2.14,0,0,1,1.94-1.14,1.82,1.82,0,0,1,1.5.64,2.88,2.88,0,0,1,.51,1.84Z" fill="#1e1e1e"/>
      <path d="M332.49,22.7h-1.32v-.93h0a2,2,0,0,1-1.82,1.07,1.94,1.94,0,0,1-1.39-.48,1.69,1.69,0,0,1-.5-1.27c0-1.13.65-1.79,2-2l1.78-.25c0-.86-.41-1.28-1.22-1.28a2.85,2.85,0,0,0-1.93.74V17.13a4.16,4.16,0,0,1,2.19-.57,2,2,0,0,1,2.27,2.24Zm-1.31-2.94-1.26.17a1.93,1.93,0,0,0-.88.29.83.83,0,0,0-.3.73.8.8,0,0,0,.27.62,1.09,1.09,0,0,0,.73.24,1.34,1.34,0,0,0,1-.43,1.56,1.56,0,0,0,.41-1.1Z" fill="#1e1e1e"/>
      <path d="M339.45,22.7h-1.36V19.32c0-1.12-.4-1.68-1.19-1.68a1.31,1.31,0,0,0-1,.47,1.71,1.71,0,0,0-.4,1.17V22.7H334.1v-6h1.37v1h0a2.14,2.14,0,0,1,1.95-1.14,1.82,1.82,0,0,1,1.49.64,2.88,2.88,0,0,1,.52,1.84Z" fill="#1e1e1e"/>
      <path d="M344.18,22.64a2.36,2.36,0,0,1-1.05.2,1.51,1.51,0,0,1-1.74-1.68V17.77h-1V16.7h1V15.32l1.36-.39V16.7h1.43v1.07h-1.43v3a1.16,1.16,0,0,0,.19.76.83.83,0,0,0,.65.23.92.92,0,0,0,.59-.2Z" fill="#1e1e1e"/>
      <path d="M348.81,22.7V14.3h2.66a3.16,3.16,0,0,1,1.93.53,1.66,1.66,0,0,1,.72,1.39,2,2,0,0,1-.41,1.25,2.19,2.19,0,0,1-1.12.75v0a2.23,2.23,0,0,1,1.39.64,2,2,0,0,1,.52,1.41,2.15,2.15,0,0,1-.85,1.75,3.4,3.4,0,0,1-2.15.66Zm1.39-7.28v2.39h.9a1.74,1.74,0,0,0,1.14-.34,1.2,1.2,0,0,0,.41-1q0-1.08-1.44-1.08Zm0,3.51v2.66h1.18a1.82,1.82,0,0,0,1.21-.36,1.23,1.23,0,0,0,.42-1c0-.87-.6-1.31-1.81-1.31Z" fill="#1e1e1e"/>
    </g>
    <g>
      <path d="M328.23,160.37v-1.44a2,2,0,0,0,.46.32,4.72,4.72,0,0,0,.56.24q.3.09.6.15a3.74,3.74,0,0,0,.55.05,2.4,2.4,0,0,0,1.31-.29A1,1,0,0,0,332,158a1.52,1.52,0,0,0-.4-.4,4.91,4.91,0,0,0-.61-.35l-.75-.35c-.28-.15-.55-.31-.79-.46a3.8,3.8,0,0,1-.65-.52,2.22,2.22,0,0,1-.42-.64,2,2,0,0,1-.16-.84,1.91,1.91,0,0,1,.27-1,2.29,2.29,0,0,1,.7-.72,3.15,3.15,0,0,1,1-.42,4.87,4.87,0,0,1,1.14-.14,4.55,4.55,0,0,1,1.92.3v1.38a3,3,0,0,0-1.84-.52,3.15,3.15,0,0,0-.61.06,2,2,0,0,0-.56.19,1.2,1.2,0,0,0-.39.35.85.85,0,0,0-.15.51,1,1,0,0,0,.11.48,1.38,1.38,0,0,0,.35.38,3.8,3.8,0,0,0,.55.33c.21.11.47.22.75.35a9.48,9.48,0,0,1,.83.48,3.83,3.83,0,0,1,.69.56,2.35,2.35,0,0,1,.46.67,1.93,1.93,0,0,1,.18.85,2.16,2.16,0,0,1-.26,1.08,2,2,0,0,1-.7.71,2.88,2.88,0,0,1-1,.4,5.81,5.81,0,0,1-1.2.12l-.52,0-.63-.09a5.44,5.44,0,0,1-.61-.15A2,2,0,0,1,328.23,160.37Z" fill="#1e1e1e"/>
      <path d="M340.15,160.7h-1.36v-.95h0a2,2,0,0,1-1.84,1.09q-2.13,0-2.13-2.55V154.7h1.36v3.45c0,1.08.42,1.61,1.25,1.61a1.24,1.24,0,0,0,1-.44,1.72,1.72,0,0,0,.39-1.17V154.7h1.36Z" fill="#1e1e1e"/>
      <path d="M343.21,159.84h0v.86h-1.36v-8.88h1.36v3.94h0a2.22,2.22,0,0,1,2-1.2,2.15,2.15,0,0,1,1.78.81,3.33,3.33,0,0,1,.64,2.16,3.78,3.78,0,0,1-.72,2.41,2.39,2.39,0,0,1-2,.9A1.93,1.93,0,0,1,343.21,159.84Zm0-2.39v.74a1.61,1.61,0,0,0,.42,1.12,1.4,1.4,0,0,0,1.07.45,1.37,1.37,0,0,0,1.18-.58,2.74,2.74,0,0,0,.43-1.65,2.12,2.12,0,0,0-.4-1.38,1.29,1.29,0,0,0-1.08-.5,1.46,1.46,0,0,0-1.17.51A1.9,1.9,0,0,0,343.17,157.45Z" fill="#1e1e1e"/>
      <path d="M348.7,160.51v-1.25a2.76,2.76,0,0,0,1.68.58c.82,0,1.23-.25,1.23-.73a.58.58,0,0,0-.1-.35.89.89,0,0,0-.29-.25,1.37,1.37,0,0,0-.42-.2l-.54-.2a5.12,5.12,0,0,1-.66-.31,2,2,0,0,1-.5-.38,1.2,1.2,0,0,1-.29-.47,1.63,1.63,0,0,1-.1-.61,1.5,1.5,0,0,1,.2-.77,1.8,1.8,0,0,1,.55-.55,2.55,2.55,0,0,1,.79-.34,3.39,3.39,0,0,1,.91-.12,4.35,4.35,0,0,1,1.49.25V156a2.53,2.53,0,0,0-1.46-.43,2.16,2.16,0,0,0-.46.05,1.5,1.5,0,0,0-.36.15.81.81,0,0,0-.23.22.6.6,0,0,0-.08.29.67.67,0,0,0,.08.33.82.82,0,0,0,.25.24,1.92,1.92,0,0,0,.38.19l.52.18c.26.11.49.21.7.32a2.33,2.33,0,0,1,.52.38,1.22,1.22,0,0,1,.33.48,1.56,1.56,0,0,1,.12.64,1.49,1.49,0,0,1-.21.8,1.67,1.67,0,0,1-.56.56,2.65,2.65,0,0,1-.81.33,3.85,3.85,0,0,1-1,.11A4.08,4.08,0,0,1,348.7,160.51Z" fill="#1e1e1e"/>
      <path d="M358.56,160.43a3.43,3.43,0,0,1-1.71.41,2.9,2.9,0,0,1-2.15-.83,3,3,0,0,1-.82-2.17,3.24,3.24,0,0,1,.88-2.38,3.15,3.15,0,0,1,2.36-.9,3.47,3.47,0,0,1,1.45.29v1.26a2.22,2.22,0,0,0-1.34-.46,1.84,1.84,0,0,0-1.41.58,2.13,2.13,0,0,0-.55,1.53,2,2,0,0,0,.52,1.47,1.81,1.81,0,0,0,1.39.53,2.14,2.14,0,0,0,1.38-.52Z" fill="#1e1e1e"/>
      <path d="M363.39,156a1.13,1.13,0,0,0-.71-.2,1.23,1.23,0,0,0-1,.55,2.43,2.43,0,0,0-.4,1.48v2.87h-1.36v-6h1.36v1.24h0a2.14,2.14,0,0,1,.61-1,1.44,1.44,0,0,1,.93-.35,1.09,1.09,0,0,1,.56.11Z" fill="#1e1e1e"/>
      <path d="M365.05,153.44a.84.84,0,0,1-.57-.21.76.76,0,0,1,0-1.11.8.8,0,0,1,.57-.22.83.83,0,0,1,.59.22.75.75,0,0,1,0,1.1A.83.83,0,0,1,365.05,153.44Zm.68,7.26h-1.36v-6h1.36Z" fill="#1e1e1e"/>
      <path d="M368.8,159.82h0v3.64h-1.36V154.7h1.36v1.06h0a2.24,2.24,0,0,1,2-1.2,2.15,2.15,0,0,1,1.78.8,3.37,3.37,0,0,1,.64,2.16,3.73,3.73,0,0,1-.72,2.4,2.39,2.39,0,0,1-2,.91A2,2,0,0,1,368.8,159.82Zm0-2.37v.74a1.61,1.61,0,0,0,.42,1.12,1.49,1.49,0,0,0,2.25-.13,2.81,2.81,0,0,0,.43-1.65,2.18,2.18,0,0,0-.4-1.38,1.31,1.31,0,0,0-1.09-.5,1.49,1.49,0,0,0-1.17.51A1.94,1.94,0,0,0,368.77,157.45Z" fill="#1e1e1e"/>
      <path d="M377.78,160.64a2.35,2.35,0,0,1-1,.2c-1.17,0-1.75-.56-1.75-1.68v-3.39h-1V154.7h1v-1.39l1.36-.38v1.77h1.43v1.07h-1.43v3a1.18,1.18,0,0,0,.19.76.83.83,0,0,0,.65.23.92.92,0,0,0,.59-.2Z" fill="#1e1e1e"/>
      <path d="M379.56,153.44a.82.82,0,0,1-.57-.21.76.76,0,0,1,0-1.11.78.78,0,0,1,.57-.22.81.81,0,0,1,.58.22.75.75,0,0,1,0,1.1A.81.81,0,0,1,379.56,153.44Zm.67,7.26h-1.36v-6h1.36Z" fill="#1e1e1e"/>
      <path d="M384.6,160.84a3,3,0,0,1-2.22-.84,3,3,0,0,1-.83-2.23,3,3,0,0,1,3.19-3.21,2.91,2.91,0,0,1,2.2.83,3.19,3.19,0,0,1,.78,2.29,3.13,3.13,0,0,1-.85,2.3A3,3,0,0,1,384.6,160.84Zm.06-5.19a1.55,1.55,0,0,0-1.26.55,2.34,2.34,0,0,0-.46,1.54,2.19,2.19,0,0,0,.47,1.48,1.57,1.57,0,0,0,1.25.54,1.49,1.49,0,0,0,1.24-.53,2.39,2.39,0,0,0,.43-1.52,2.44,2.44,0,0,0-.43-1.53A1.52,1.52,0,0,0,384.66,155.65Z" fill="#1e1e1e"/>
      <path d="M394.41,160.7h-1.36v-3.38c0-1.12-.39-1.68-1.19-1.68a1.3,1.3,0,0,0-1,.47,1.72,1.72,0,0,0-.41,1.17v3.42h-1.36v-6h1.36v1h0a2.13,2.13,0,0,1,1.94-1.14,1.82,1.82,0,0,1,1.5.64,2.85,2.85,0,0,1,.51,1.83Z" fill="#1e1e1e"/>
      <path d="M363.9,175.1h-5.28v-.65a2.36,2.36,0,0,1,.12-.75,2.93,2.93,0,0,1,.29-.65,4.21,4.21,0,0,1,.44-.58c.17-.18.35-.36.54-.53s.39-.33.59-.49l.58-.48c.18-.15.35-.3.5-.45a2.67,2.67,0,0,0,.38-.45,1.92,1.92,0,0,0,.24-.5,1.69,1.69,0,0,0,.09-.56,1.47,1.47,0,0,0-.1-.58A1.06,1.06,0,0,0,362,168a1.16,1.16,0,0,0-.43-.25,1.69,1.69,0,0,0-.56-.09,2.5,2.5,0,0,0-1,.24,3.57,3.57,0,0,0-1,.72v-1.3a5.13,5.13,0,0,1,.52-.34,3,3,0,0,1,.55-.24,3.4,3.4,0,0,1,.59-.14,3.53,3.53,0,0,1,.66-.05,3.33,3.33,0,0,1,1,.15,2.1,2.1,0,0,1,.79.44,1.89,1.89,0,0,1,.51.72,2.59,2.59,0,0,1,.18,1,2.86,2.86,0,0,1-.13.91,2.78,2.78,0,0,1-.35.76,4.42,4.42,0,0,1-.56.67c-.22.21-.47.43-.74.65s-.45.36-.67.54a6.57,6.57,0,0,0-.61.51,2.51,2.51,0,0,0-.44.5.87.87,0,0,0-.16.5v0h3.79Z" fill="#1e1e1e"/>
    </g>
    <g>
      <path d="M300.09,51.36V50.2a1.91,1.91,0,0,0,.48.32,5,5,0,0,0,.58.24c.21.06.41.11.62.15a4.13,4.13,0,0,0,.58.05,2.2,2.2,0,0,0,1.35-.34,1.14,1.14,0,0,0,.45-1,1.15,1.15,0,0,0-.15-.59,1.76,1.76,0,0,0-.41-.46,4.57,4.57,0,0,0-.63-.4l-.77-.4c-.3-.15-.57-.3-.82-.45a3.17,3.17,0,0,1-.66-.5,2.28,2.28,0,0,1-.45-.63,2,2,0,0,1-.16-.82,2,2,0,0,1,.25-1,2,2,0,0,1,.67-.7,2.8,2.8,0,0,1,.93-.41,4.3,4.3,0,0,1,1.07-.14,4.08,4.08,0,0,1,1.81.3v1.11a3.24,3.24,0,0,0-1.91-.52,2.79,2.79,0,0,0-.64.07,1.75,1.75,0,0,0-.58.22,1.27,1.27,0,0,0-.41.39,1.1,1.1,0,0,0-.16.59,1.18,1.18,0,0,0,.12.55,1.31,1.31,0,0,0,.36.43,3,3,0,0,0,.57.38q.33.18.78.39c.3.15.58.31.85.47a4,4,0,0,1,.71.55,2.53,2.53,0,0,1,.48.66,1.84,1.84,0,0,1,.18.83,2.09,2.09,0,0,1-.24,1.05,1.93,1.93,0,0,1-.66.7,2.8,2.8,0,0,1-.95.39,5.24,5.24,0,0,1-1.14.12l-.49,0-.6-.09a4.74,4.74,0,0,1-.57-.15A1.5,1.5,0,0,1,300.09,51.36Z" fill="#1e1e1e"/>
      <path d="M311.52,48.94h-4.24a2.28,2.28,0,0,0,.54,1.55,1.89,1.89,0,0,0,1.42.55,3,3,0,0,0,1.86-.67v.9a3.47,3.47,0,0,1-2.09.57,2.56,2.56,0,0,1-2-.81,3.37,3.37,0,0,1-.72-2.3,3.25,3.25,0,0,1,.79-2.28,2.55,2.55,0,0,1,2-.89,2.27,2.27,0,0,1,1.82.76,3.2,3.2,0,0,1,.65,2.12Zm-1-.81a1.91,1.91,0,0,0-.4-1.3,1.39,1.39,0,0,0-1.1-.46,1.54,1.54,0,0,0-1.15.49,2.22,2.22,0,0,0-.59,1.27Z" fill="#1e1e1e"/>
      <path d="M316.1,46.68a1.18,1.18,0,0,0-.73-.2,1.22,1.22,0,0,0-1,.58,2.68,2.68,0,0,0-.42,1.59V51.7h-1v-6h1v1.24h0a2.08,2.08,0,0,1,.62-1,1.47,1.47,0,0,1,.95-.35,1.65,1.65,0,0,1,.57.08Z" fill="#1e1e1e"/>
      <path d="M322.34,45.7l-2.39,6H319l-2.28-6h1.06l1.52,4.36a3.21,3.21,0,0,1,.21.84h0a4.41,4.41,0,0,1,.18-.81l1.6-4.39Z" fill="#1e1e1e"/>
      <path d="M323.91,44.18a.59.59,0,0,1-.44-.18.55.55,0,0,1-.19-.44.63.63,0,0,1,.63-.63.6.6,0,0,1,.44.18.58.58,0,0,1,.19.45.58.58,0,0,1-.19.44A.6.6,0,0,1,323.91,44.18Zm.46,7.52h-1v-6h1Z" fill="#1e1e1e"/>
      <path d="M330.31,51.43a3.1,3.1,0,0,1-1.64.41A2.68,2.68,0,0,1,326.6,51a3,3,0,0,1-.79-2.17,3.32,3.32,0,0,1,.85-2.38,3,3,0,0,1,2.27-.9,3.09,3.09,0,0,1,1.39.3v1a2.45,2.45,0,0,0-1.43-.47,1.93,1.93,0,0,0-1.51.66,2.52,2.52,0,0,0-.59,1.73,2.39,2.39,0,0,0,.56,1.67,1.92,1.92,0,0,0,1.48.61,2.4,2.4,0,0,0,1.48-.53Z" fill="#1e1e1e"/>
      <path d="M336.46,48.94h-4.23a2.19,2.19,0,0,0,.54,1.55,1.85,1.85,0,0,0,1.41.55,3,3,0,0,0,1.87-.67v.9a3.52,3.52,0,0,1-2.09.57,2.54,2.54,0,0,1-2-.81,3.33,3.33,0,0,1-.73-2.3,3.25,3.25,0,0,1,.8-2.28,2.52,2.52,0,0,1,2-.89,2.28,2.28,0,0,1,1.82.76,3.19,3.19,0,0,1,.64,2.12Zm-1-.81a2,2,0,0,0-.4-1.3,1.4,1.4,0,0,0-1.1-.46,1.52,1.52,0,0,0-1.15.49,2.16,2.16,0,0,0-.59,1.27Z" fill="#1e1e1e"/>
      <path d="M301.34,65.24h0v3.62h-1V60.1h1v1.06h0a2.26,2.26,0,0,1,2.07-1.2,2.18,2.18,0,0,1,1.81.81,3.31,3.31,0,0,1,.65,2.16,3.71,3.71,0,0,1-.73,2.41,2.45,2.45,0,0,1-2,.9A2,2,0,0,1,301.34,65.24Zm0-2.42v.83a1.82,1.82,0,0,0,.49,1.27,1.72,1.72,0,0,0,2.59-.15,3.09,3.09,0,0,0,.5-1.86,2.47,2.47,0,0,0-.46-1.57,1.54,1.54,0,0,0-1.26-.57,1.73,1.73,0,0,0-1.35.58A2.16,2.16,0,0,0,301.31,62.82Z" fill="#1e1e1e"/>
      <path d="M310.48,61.08a1.14,1.14,0,0,0-.72-.2,1.24,1.24,0,0,0-1,.58,2.68,2.68,0,0,0-.41,1.59v3h-1v-6h1v1.24h0a2.09,2.09,0,0,1,.63-1,1.44,1.44,0,0,1,.94-.35,1.65,1.65,0,0,1,.57.08Z" fill="#1e1e1e"/>
      <path d="M312.05,58.58a.6.6,0,0,1-.44-.18.57.57,0,0,1-.18-.44.61.61,0,0,1,.18-.45.6.6,0,0,1,.44-.18.62.62,0,0,1,.63.63.6.6,0,0,1-.18.44A.61.61,0,0,1,312.05,58.58Zm.47,7.52h-1v-6h1Z" fill="#1e1e1e"/>
      <path d="M319.33,66.1h-1V62.68c0-1.27-.46-1.91-1.39-1.91a1.5,1.5,0,0,0-1.19.54,2,2,0,0,0-.47,1.37V66.1h-1v-6h1v1h0a2.16,2.16,0,0,1,2-1.14,1.81,1.81,0,0,1,1.5.64,2.8,2.8,0,0,1,.53,1.84Z" fill="#1e1e1e"/>
      <path d="M325.21,65.83a3.13,3.13,0,0,1-1.65.41,2.71,2.71,0,0,1-2.07-.83,3.06,3.06,0,0,1-.78-2.17,3.36,3.36,0,0,1,.84-2.38,3,3,0,0,1,2.27-.9,3.13,3.13,0,0,1,1.4.3v1a2.47,2.47,0,0,0-1.43-.47,1.92,1.92,0,0,0-1.51.66,2.52,2.52,0,0,0-.59,1.73,2.39,2.39,0,0,0,.55,1.67,1.94,1.94,0,0,0,1.49.61,2.44,2.44,0,0,0,1.48-.53Z" fill="#1e1e1e"/>
      <path d="M327,58.58a.6.6,0,0,1-.44-.18.57.57,0,0,1-.18-.44.61.61,0,0,1,.18-.45.6.6,0,0,1,.44-.18.61.61,0,0,1,.45.18.62.62,0,0,1,0,.89A.61.61,0,0,1,327,58.58Zm.47,7.52h-1v-6h1Z" fill="#1e1e1e"/>
      <path d="M330.26,65.24h0v3.62h-1V60.1h1v1.06h0a2.28,2.28,0,0,1,2.08-1.2,2.2,2.2,0,0,1,1.81.81,3.37,3.37,0,0,1,.65,2.16,3.71,3.71,0,0,1-.74,2.41,2.42,2.42,0,0,1-2,.9A2,2,0,0,1,330.26,65.24Zm0-2.42v.83a1.81,1.81,0,0,0,.48,1.27,1.73,1.73,0,0,0,2.6-.15,3.09,3.09,0,0,0,.49-1.86,2.41,2.41,0,0,0-.46-1.57,1.53,1.53,0,0,0-1.25-.57,1.73,1.73,0,0,0-1.35.58A2.16,2.16,0,0,0,330.24,62.82Z" fill="#1e1e1e"/>
      <path d="M340.58,66.1h-1v-.93h0a2,2,0,0,1-1.84,1.07,1.93,1.93,0,0,1-1.4-.47,1.65,1.65,0,0,1-.51-1.26c0-1.12.66-1.77,2-2l1.8-.25c0-1-.41-1.53-1.24-1.53a3,3,0,0,0-2,.74v-1a3.68,3.68,0,0,1,2-.57c1.41,0,2.12.75,2.12,2.24Zm-1-3-1.45.2a2.35,2.35,0,0,0-1,.33,1,1,0,0,0-.34.84.93.93,0,0,0,.32.72,1.22,1.22,0,0,0,.83.28,1.52,1.52,0,0,0,1.18-.51,1.77,1.77,0,0,0,.47-1.26Z" fill="#1e1e1e"/>
      <path d="M343.28,66.1h-1V57.22h1Z" fill="#1e1e1e"/>
    </g>
  </g>
</svg>
