<?xml version="1.0" encoding="UTF-8" standalone="no"?>
<!DOCTYPE svg PUBLIC "-//W3C//DTD SVG 1.1//EN" "http://www.w3.org/Graphics/SVG/1.1/DTD/svg11.dtd">
<svg width="100%" height="100%" viewBox="0 0 100 100" version="1.1" xmlns="http://www.w3.org/2000/svg" xmlns:xlink="http://www.w3.org/1999/xlink" xml:space="preserve" xmlns:serif="http://www.serif.com/" style="fill-rule:evenodd;clip-rule:evenodd;stroke-linejoin:round;stroke-miterlimit:2;">
    <g>
        <path d="M49.64,96.45C40.382,96.45 31.332,93.705 23.634,88.561C15.936,83.418 9.936,76.107 6.393,67.553C2.85,59 1.923,49.588 3.73,40.508C5.536,31.428 9.994,23.087 16.54,16.54C23.087,9.994 31.428,5.536 40.508,3.729C49.588,1.923 59,2.85 67.554,6.393C76.107,9.936 83.418,15.936 88.561,23.634C93.705,31.332 96.45,40.382 96.45,49.64C96.451,55.787 95.24,61.874 92.888,67.554C90.536,73.233 87.088,78.394 82.741,82.741C78.394,87.087 73.234,90.535 67.554,92.888C61.875,95.24 55.787,96.45 49.64,96.45Z" style="fill:url(#_Linear1);fill-rule:nonzero;"/>
        <path d="M49.5,87C42.083,87 34.833,84.801 28.666,80.68C22.499,76.56 17.693,70.703 14.855,63.851C12.016,56.998 11.274,49.458 12.721,42.184C14.168,34.91 17.739,28.228 22.984,22.984C28.228,17.739 34.91,14.168 42.184,12.721C49.458,11.274 56.998,12.016 63.851,14.855C70.703,17.693 76.56,22.499 80.68,28.666C84.801,34.833 87,42.083 87,49.5C87,54.425 86.031,59.301 84.146,63.851C82.262,68.401 79.5,72.535 76.017,76.017C72.535,79.5 68.401,82.262 63.851,84.146C59.301,86.031 54.425,87 49.5,87Z" style="fill:rgb(254,255,255);fill-rule:nonzero;"/>
        <path d="M95.54,49.64C95.54,58.718 92.848,67.593 87.805,75.141C82.761,82.689 75.592,88.572 67.205,92.046C58.818,95.52 49.589,96.429 40.685,94.658C31.782,92.887 23.603,88.515 17.184,82.096C10.765,75.677 6.393,67.498 4.622,58.595C2.851,49.691 3.76,40.462 7.234,32.075C10.708,23.688 16.591,16.519 24.139,11.476C31.688,6.432 40.562,3.74 49.64,3.74C55.668,3.74 61.636,4.927 67.205,7.234C72.774,9.541 77.834,12.922 82.096,17.184C86.359,21.446 89.739,26.506 92.046,32.075C94.353,37.644 95.54,43.612 95.54,49.64ZM49.64,0C59.458,0 69.055,2.911 77.219,8.366C85.382,13.82 91.744,21.573 95.501,30.644C99.259,39.714 100.242,49.695 98.326,59.324C96.411,68.954 91.683,77.799 84.741,84.741C77.799,91.683 68.954,96.411 59.324,98.326C49.695,100.242 39.714,99.259 30.644,95.501C21.573,91.744 13.82,85.382 8.366,77.219C2.911,69.055 0,59.458 0,49.64C-0.001,43.121 1.283,36.666 3.777,30.643C6.271,24.62 9.928,19.147 14.538,14.538C19.147,9.928 24.62,6.271 30.643,3.777C36.666,1.283 43.121,-0.001 49.64,0Z" style="fill:rgb(242,241,240);"/>
        <path d="M92.73,49.64C92.73,58.163 90.202,66.494 85.468,73.58C80.733,80.666 74.003,86.189 66.129,89.45C58.256,92.711 49.592,93.565 41.233,91.902C32.875,90.24 25.197,86.136 19.17,80.109C13.144,74.083 9.04,66.405 7.378,58.047C5.715,49.688 6.568,41.024 9.83,33.15C13.091,25.277 18.614,18.547 25.7,13.812C32.786,9.077 41.117,6.55 49.64,6.55C55.298,6.55 60.902,7.664 66.13,9.829C71.358,11.995 76.108,15.169 80.11,19.17C84.111,23.171 87.285,27.922 89.45,33.15C91.616,38.378 92.73,43.981 92.73,49.64ZM49.64,2.81C58.902,2.81 67.956,5.557 75.657,10.702C83.358,15.848 89.36,23.162 92.905,31.719C96.449,40.276 97.377,49.692 95.57,58.776C93.763,67.86 89.303,76.205 82.753,82.754C76.204,89.303 67.86,93.763 58.776,95.57C49.692,97.377 40.276,96.45 31.718,92.905C23.161,89.361 15.848,83.359 10.702,75.657C5.556,67.956 2.81,58.902 2.81,49.64C2.811,37.22 7.745,25.31 16.527,16.528C25.309,7.746 37.22,2.811 49.64,2.81L49.64,2.81Z" style="fill:rgb(0,120,212);"/>
        <path d="M92.764,49.64C92.764,58.163 90.237,66.494 85.502,73.58C80.767,80.666 74.037,86.189 66.164,89.45C58.29,92.711 49.626,93.565 41.267,91.902C32.909,90.24 25.231,86.136 19.205,80.109C13.178,74.083 9.074,66.405 7.412,58.047C5.749,49.688 6.602,41.024 9.864,33.15C13.125,25.277 18.648,18.547 25.734,13.812C32.82,9.077 41.151,6.55 49.674,6.55C55.333,6.55 60.936,7.664 66.164,9.829C71.392,11.995 76.142,15.169 80.144,19.17C84.145,23.171 87.319,27.922 89.484,33.15C91.65,38.378 92.764,43.981 92.764,49.64ZM49.674,2.81C58.936,2.81 67.99,5.557 75.691,10.702C83.392,15.848 89.395,23.162 92.939,31.719C96.484,40.276 97.411,49.692 95.604,58.776C93.797,67.86 89.337,76.205 82.788,82.754C76.238,89.303 67.894,93.763 58.81,95.57C49.726,97.377 40.31,96.45 31.753,92.905C23.196,89.361 15.882,83.359 10.736,75.657C5.59,67.956 2.844,58.902 2.844,49.64C2.845,37.22 7.779,25.31 16.561,16.528C25.343,7.746 37.254,2.811 49.674,2.81L49.674,2.81Z" style="fill:rgb(0,120,212);"/>
        <g>
            <path d="M44.297,72.988C43.832,72.988 43.425,72.872 43.134,72.579C42.785,72.288 42.61,71.82 42.552,71.352C42.552,70.885 42.726,70.476 43.075,70.184L44.705,68.49C44.996,68.197 45.403,68.022 45.868,68.022C46.334,68.022 46.741,68.197 47.09,68.49C47.73,69.132 47.789,70.243 47.149,70.885L45.461,72.521C45.345,72.638 45.112,72.813 44.937,72.872C44.705,72.988 44.472,72.988 44.297,72.988Z" style="fill:rgb(0,90,159);"/>
            <path d="M38.472,67.3C38.004,67.3 37.593,67.128 37.3,66.84C36.949,66.553 36.832,66.095 36.773,65.635C36.773,65.233 36.89,64.774 37.242,64.486L44.683,57.252C44.976,56.908 45.386,56.736 45.855,56.736C46.324,56.736 46.734,56.908 47.086,57.252C47.73,57.884 47.789,58.975 47.144,59.606L39.703,66.783C39.527,66.955 39.351,67.071 39.117,67.127C38.941,67.242 38.707,67.3 38.472,67.3Z" style="fill:rgb(0,90,159);"/>
            <path d="M52.538,64.862C52.131,64.862 51.724,64.689 51.375,64.343L51.317,64.285C50.678,63.65 50.678,62.612 51.317,61.978L56.084,57.248C56.724,56.555 57.77,56.555 58.468,57.248C59.107,57.882 59.165,58.978 58.526,59.613L53.701,64.343C53.41,64.631 53.003,64.862 52.538,64.862Z" style="fill:rgb(0,90,159);"/>
            <path d="M32.762,61.702C32.357,61.702 31.894,61.528 31.605,61.237C31.258,60.946 31.085,60.481 31.085,60.075C31.085,59.61 31.2,59.145 31.547,58.796L33.167,57.168C33.456,56.878 33.918,56.646 34.381,56.646C34.786,56.646 35.248,56.878 35.538,57.168C36.174,57.808 36.231,58.912 35.595,59.551L34.034,61.12C33.861,61.295 33.629,61.47 33.456,61.47C33.224,61.644 32.935,61.702 32.762,61.702Z" style="fill:rgb(0,90,159);"/>
            <path d="M27.005,56.014C26.595,56.014 26.185,55.841 25.834,55.554C25.482,55.267 25.306,54.808 25.306,54.406C25.306,53.947 25.482,53.487 25.834,53.2L33.216,45.966C33.509,45.679 33.978,45.45 34.388,45.45C34.857,45.45 35.267,45.679 35.619,45.966C36.263,46.598 36.322,47.689 35.677,48.32L28.236,55.497C28.06,55.669 27.884,55.841 27.65,55.841C27.474,55.956 27.24,56.014 27.005,56.014Z" style="fill:rgb(0,90,159);"/>
            <path d="M52.529,53.485C52.118,53.485 51.707,53.37 51.355,53.024L51.296,52.966C51.003,52.678 50.768,52.216 50.768,51.755C50.768,51.293 51.003,50.947 51.296,50.602L56.109,45.813C56.754,45.179 57.811,45.179 58.515,45.813C58.809,46.101 58.985,46.563 58.985,47.024C58.985,47.429 58.867,47.89 58.574,48.178L53.703,52.966C53.409,53.37 52.998,53.485 52.529,53.485Z" style="fill:rgb(0,90,159);"/>
            <path d="M41.062,53.485C40.592,53.485 40.182,53.37 39.829,53.024L39.771,52.966C39.477,52.678 39.301,52.216 39.301,51.755C39.301,51.293 39.477,50.947 39.771,50.602L44.642,45.813C45.288,45.179 46.344,45.179 46.99,45.813C47.283,46.101 47.518,46.563 47.518,47.024C47.518,47.429 47.342,47.89 47.048,48.178L42.177,52.966C41.884,53.37 41.473,53.485 41.062,53.485Z" style="fill:rgb(0,90,159);"/>
            <path d="M64.068,53.485C63.602,53.485 63.194,53.313 62.844,53.026L62.786,52.968C62.145,52.336 62.145,51.302 62.786,50.612L70.188,43.373C70.829,42.741 71.878,42.741 72.519,43.373C73.16,44.005 73.16,45.039 72.519,45.728L65.234,53.026C64.942,53.313 64.534,53.485 64.068,53.485Z" style="fill:rgb(0,90,159);"/>
            <path d="M41.046,42.199C40.579,42.199 40.171,42.028 39.821,41.686L39.763,41.629C39.121,41.002 39.121,39.976 39.763,39.35L44.606,34.619C44.897,34.334 45.364,34.163 45.773,34.163C46.239,34.163 46.648,34.334 46.998,34.619C47.64,35.303 47.698,36.329 47.056,37.013L42.213,41.686C41.863,42.028 41.455,42.199 41.046,42.199Z" style="fill:rgb(0,90,159);"/>
            <path d="M52.543,42.199C52.135,42.199 51.669,41.971 51.377,41.684L51.319,41.628C50.678,40.999 50.678,39.97 51.319,39.341L58.663,32.141C59.304,31.455 60.353,31.455 60.994,32.141C61.693,32.769 61.693,33.798 60.994,34.426L53.767,41.684C53.417,41.971 53.009,42.199 52.543,42.199Z" style="fill:rgb(0,90,159);"/>
            <path d="M63.951,42.199C63.477,42.199 63.063,41.972 62.708,41.688C62.413,41.404 62.235,40.949 62.235,40.494C62.235,40.097 62.413,39.699 62.708,39.359L64.365,37.768C65.015,37.143 66.08,37.143 66.731,37.768C67.382,38.392 67.382,39.472 66.731,40.097L65.193,41.688C64.897,41.972 64.483,42.199 63.951,42.199C63.951,42.199 64.01,42.199 63.951,42.199Z" style="fill:rgb(0,90,159);"/>
            <path d="M52.554,30.913C52.145,30.913 51.736,30.741 51.385,30.399C51.092,30.114 50.858,29.714 50.858,29.258C50.858,28.801 51.092,28.401 51.385,28.059L52.964,26.517C53.607,25.947 54.66,25.947 55.362,26.517C56.005,27.146 56.005,28.173 55.362,28.801L53.724,30.399C53.432,30.741 53.022,30.913 52.554,30.913Z" style="fill:rgb(0,90,159);"/>
            <path d="M53.748,72.898C53.282,72.898 52.932,72.726 52.583,72.437L45.185,65.118C44.893,64.829 44.719,64.368 44.719,63.908C44.719,63.504 44.893,63.1 45.185,62.755C45.826,62.121 46.932,62.063 47.631,62.697L54.971,69.959C55.437,70.477 55.554,71.169 55.321,71.803C55.029,72.437 54.389,72.898 53.748,72.898Z" style="fill:rgb(80,230,255);"/>
            <path d="M59.497,67.21C59.024,67.21 58.609,67.037 58.314,66.75L56.656,65.141C56.005,64.509 56.005,63.475 56.656,62.843C57.307,62.153 58.432,62.153 59.083,62.785L60.74,64.337C61.214,64.854 61.332,65.544 61.095,66.176C60.8,66.75 60.208,67.21 59.497,67.21Z" style="fill:rgb(0,120,212);"/>
            <path d="M65.289,61.612C64.819,61.612 64.349,61.438 64.055,61.091L56.651,53.794C56.005,53.158 56.005,52.116 56.651,51.478C56.945,51.189 57.415,50.957 57.885,50.957C58.297,50.957 58.767,51.131 59.06,51.42L66.464,58.716C66.993,59.238 67.111,59.932 66.817,60.57C66.582,61.148 65.936,61.612 65.289,61.612Z" style="fill:rgb(80,230,255);"/>
            <path d="M51.174,58.993C50.763,58.993 50.352,58.879 50.058,58.593L45.184,53.848C44.538,53.22 44.538,52.191 45.184,51.562C45.478,51.276 45.947,51.048 46.417,51.048C46.828,51.048 47.298,51.219 47.592,51.504L52.465,56.192C52.759,56.478 52.935,56.935 52.935,57.392C52.935,57.85 52.759,58.25 52.465,58.593C52.113,58.822 51.643,58.993 51.174,58.993Z" style="fill:rgb(0,120,212);"/>
            <path d="M39.701,58.993C39.23,58.993 38.817,58.879 38.523,58.591L33.692,53.822C33.338,53.535 33.161,53.075 33.161,52.673C33.161,52.213 33.338,51.811 33.692,51.467C34.34,50.835 35.459,50.777 36.107,51.409L40.938,56.12C41.233,56.465 41.468,56.867 41.468,57.327C41.468,57.787 41.233,58.189 40.938,58.534C40.585,58.821 40.113,58.993 39.701,58.993Z" style="fill:rgb(80,230,255);"/>
            <path d="M70.986,55.923C70.518,55.923 70.05,55.752 69.758,55.466L68.179,53.808C67.828,53.522 67.653,53.064 67.653,52.664C67.653,52.206 67.828,51.806 68.179,51.463C68.822,50.834 69.933,50.777 70.577,51.406L72.156,53.007C72.682,53.465 72.799,54.151 72.507,54.779C72.273,55.466 71.688,55.923 70.986,55.923Z" style="fill:rgb(0,120,212);"/>
            <path d="M28.226,47.797C27.761,47.797 27.354,47.622 27.005,47.271L25.436,45.692C24.855,44.99 24.855,43.937 25.436,43.293C26.075,42.651 27.121,42.651 27.761,43.293L29.446,44.931C29.737,45.224 29.911,45.692 29.911,46.101C29.911,46.569 29.795,47.037 29.446,47.329C29.097,47.563 28.691,47.797 28.226,47.797Z" style="fill:rgb(80,230,255);"/>
            <path d="M39.765,47.797C39.295,47.797 38.884,47.624 38.59,47.277L31.189,40.057C30.543,39.421 30.543,38.382 31.189,37.688C31.835,37.053 32.893,37.053 33.539,37.688L40.94,44.967C41.233,45.255 41.468,45.718 41.468,46.122C41.468,46.584 41.233,46.988 40.94,47.335C40.646,47.624 40.176,47.797 39.765,47.797Z" style="fill:rgb(0,120,212);"/>
            <path d="M51.175,47.797C50.764,47.797 50.353,47.624 50.059,47.336L45.188,42.548C44.895,42.26 44.719,41.855 44.719,41.394C44.719,40.932 44.895,40.529 45.188,40.183C45.834,39.548 46.949,39.49 47.594,40.125L52.466,44.913C52.759,45.201 52.935,45.663 52.935,46.066C52.935,46.528 52.759,46.932 52.466,47.278C52.114,47.624 51.644,47.797 51.175,47.797Z" style="fill:rgb(80,230,255);"/>
            <path d="M62.703,47.797C62.233,47.797 61.821,47.624 61.469,47.335L56.651,42.536C56.005,41.9 56.005,40.86 56.651,40.224C56.945,39.935 57.415,39.761 57.885,39.761C58.296,39.761 58.766,39.877 59.06,40.166L63.936,44.965C64.583,45.6 64.583,46.641 63.936,47.277C63.584,47.566 63.173,47.797 62.703,47.797Z" style="fill:rgb(0,120,212);"/>
            <path d="M39.762,36.511C39.291,36.511 38.879,36.338 38.526,35.993L36.937,34.442C36.231,33.81 36.231,32.776 36.937,32.087C37.585,31.455 38.644,31.455 39.291,32.087L40.939,33.696C41.233,33.983 41.468,34.442 41.468,34.902C41.468,35.305 41.233,35.764 40.939,36.051C40.644,36.281 40.174,36.511 39.762,36.511Z" style="fill:rgb(80,230,255);"/>
            <path d="M51.182,36.42C50.774,36.42 50.365,36.248 50.072,35.961L42.653,28.727C42.01,28.096 42.01,27.062 42.653,26.431C43.354,25.856 44.405,25.856 45.048,26.431L52.409,33.607C52.702,33.894 52.935,34.354 52.935,34.813C52.935,35.215 52.702,35.617 52.409,35.961C52.117,36.248 51.65,36.42 51.182,36.42Z" style="fill:rgb(0,120,212);"/>
        </g>
        <g>
            <path d="M44.297,72.988C43.832,72.988 43.425,72.872 43.134,72.579C42.785,72.288 42.61,71.82 42.552,71.352C42.552,70.885 42.726,70.476 43.075,70.184L44.705,68.49C44.996,68.197 45.403,68.022 45.868,68.022C46.334,68.022 46.741,68.197 47.09,68.49C47.73,69.132 47.789,70.243 47.149,70.885L45.461,72.521C45.345,72.638 45.112,72.813 44.937,72.872C44.705,72.988 44.472,72.988 44.297,72.988Z" style="fill:rgb(0,90,159);"/>
            <path d="M38.472,67.3C38.004,67.3 37.593,67.128 37.3,66.84C36.949,66.553 36.832,66.095 36.773,65.635C36.773,65.233 36.89,64.774 37.242,64.486L44.683,57.252C44.976,56.908 45.386,56.736 45.855,56.736C46.324,56.736 46.734,56.908 47.086,57.252C47.73,57.884 47.789,58.975 47.144,59.606L39.703,66.783C39.527,66.955 39.351,67.071 39.117,67.127C38.941,67.242 38.707,67.3 38.472,67.3Z" style="fill:rgb(0,90,159);"/>
            <path d="M52.538,64.862C52.131,64.862 51.724,64.689 51.375,64.343L51.317,64.285C50.678,63.65 50.678,62.612 51.317,61.978L56.084,57.248C56.724,56.555 57.77,56.555 58.468,57.248C59.107,57.882 59.165,58.978 58.526,59.613L53.701,64.343C53.41,64.631 53.003,64.862 52.538,64.862Z" style="fill:rgb(0,90,159);"/>
            <path d="M32.762,61.702C32.357,61.702 31.894,61.528 31.605,61.237C31.258,60.946 31.085,60.481 31.085,60.075C31.085,59.61 31.2,59.145 31.547,58.796L33.167,57.168C33.456,56.878 33.918,56.646 34.381,56.646C34.786,56.646 35.248,56.878 35.538,57.168C36.174,57.808 36.231,58.912 35.595,59.551L34.034,61.12C33.861,61.295 33.629,61.47 33.456,61.47C33.224,61.644 32.935,61.702 32.762,61.702Z" style="fill:rgb(0,90,159);"/>
            <path d="M27.005,56.014C26.595,56.014 26.185,55.841 25.834,55.554C25.482,55.267 25.306,54.808 25.306,54.406C25.306,53.947 25.482,53.487 25.834,53.2L33.216,45.966C33.509,45.679 33.978,45.45 34.388,45.45C34.857,45.45 35.267,45.679 35.619,45.966C36.263,46.598 36.322,47.689 35.677,48.32L28.236,55.497C28.06,55.669 27.884,55.841 27.65,55.841C27.474,55.956 27.24,56.014 27.005,56.014Z" style="fill:rgb(0,90,159);"/>
            <path d="M52.529,53.485C52.118,53.485 51.707,53.37 51.355,53.024L51.296,52.966C51.003,52.678 50.768,52.216 50.768,51.755C50.768,51.293 51.003,50.947 51.296,50.602L56.109,45.813C56.754,45.179 57.811,45.179 58.515,45.813C58.809,46.101 58.985,46.563 58.985,47.024C58.985,47.429 58.867,47.89 58.574,48.178L53.703,52.966C53.409,53.37 52.998,53.485 52.529,53.485Z" style="fill:rgb(0,90,159);"/>
            <path d="M41.062,53.485C40.592,53.485 40.182,53.37 39.829,53.024L39.771,52.966C39.477,52.678 39.301,52.216 39.301,51.755C39.301,51.293 39.477,50.947 39.771,50.602L44.642,45.813C45.288,45.179 46.344,45.179 46.99,45.813C47.283,46.101 47.518,46.563 47.518,47.024C47.518,47.429 47.342,47.89 47.048,48.178L42.177,52.966C41.884,53.37 41.473,53.485 41.062,53.485Z" style="fill:rgb(0,90,159);"/>
            <path d="M64.068,53.485C63.602,53.485 63.194,53.313 62.844,53.026L62.786,52.968C62.145,52.336 62.145,51.302 62.786,50.612L70.188,43.373C70.829,42.741 71.878,42.741 72.519,43.373C73.16,44.005 73.16,45.039 72.519,45.728L65.234,53.026C64.942,53.313 64.534,53.485 64.068,53.485Z" style="fill:rgb(0,90,159);"/>
            <path d="M41.046,42.199C40.579,42.199 40.171,42.028 39.821,41.686L39.763,41.629C39.121,41.002 39.121,39.976 39.763,39.35L44.606,34.619C44.897,34.334 45.364,34.163 45.773,34.163C46.239,34.163 46.648,34.334 46.998,34.619C47.64,35.303 47.698,36.329 47.056,37.013L42.213,41.686C41.863,42.028 41.455,42.199 41.046,42.199Z" style="fill:rgb(0,90,159);"/>
            <path d="M52.543,42.199C52.135,42.199 51.669,41.971 51.377,41.684L51.319,41.628C50.678,40.999 50.678,39.97 51.319,39.341L58.663,32.141C59.304,31.455 60.353,31.455 60.994,32.141C61.693,32.769 61.693,33.798 60.994,34.426L53.767,41.684C53.417,41.971 53.009,42.199 52.543,42.199Z" style="fill:rgb(0,90,159);"/>
            <path d="M63.951,42.199C63.477,42.199 63.063,41.972 62.708,41.688C62.413,41.404 62.235,40.949 62.235,40.494C62.235,40.097 62.413,39.699 62.708,39.359L64.365,37.768C65.015,37.143 66.08,37.143 66.731,37.768C67.382,38.392 67.382,39.472 66.731,40.097L65.193,41.688C64.897,41.972 64.483,42.199 63.951,42.199C63.951,42.199 64.01,42.199 63.951,42.199Z" style="fill:rgb(0,90,159);"/>
            <path d="M52.554,30.913C52.145,30.913 51.736,30.741 51.385,30.399C51.092,30.114 50.858,29.714 50.858,29.258C50.858,28.801 51.092,28.401 51.385,28.059L52.964,26.517C53.607,25.947 54.66,25.947 55.362,26.517C56.005,27.146 56.005,28.173 55.362,28.801L53.724,30.399C53.432,30.741 53.022,30.913 52.554,30.913Z" style="fill:rgb(0,90,159);"/>
            <path d="M53.748,72.898C53.282,72.898 52.932,72.726 52.583,72.437L45.185,65.118C44.893,64.829 44.719,64.368 44.719,63.908C44.719,63.504 44.893,63.1 45.185,62.755C45.826,62.121 46.932,62.063 47.631,62.697L54.971,69.959C55.437,70.477 55.554,71.169 55.321,71.803C55.029,72.437 54.389,72.898 53.748,72.898Z" style="fill:rgb(80,230,255);"/>
            <path d="M59.497,67.21C59.024,67.21 58.609,67.037 58.314,66.75L56.656,65.141C56.005,64.509 56.005,63.475 56.656,62.843C57.307,62.153 58.432,62.153 59.083,62.785L60.74,64.337C61.214,64.854 61.332,65.544 61.095,66.176C60.8,66.75 60.208,67.21 59.497,67.21Z" style="fill:rgb(0,120,212);"/>
            <path d="M65.289,61.612C64.819,61.612 64.349,61.438 64.055,61.091L56.651,53.794C56.005,53.158 56.005,52.116 56.651,51.478C56.945,51.189 57.415,50.957 57.885,50.957C58.297,50.957 58.767,51.131 59.06,51.42L66.464,58.716C66.993,59.238 67.111,59.932 66.817,60.57C66.582,61.148 65.936,61.612 65.289,61.612Z" style="fill:rgb(80,230,255);"/>
            <path d="M51.174,58.993C50.763,58.993 50.352,58.879 50.058,58.593L45.184,53.848C44.538,53.22 44.538,52.191 45.184,51.562C45.478,51.276 45.947,51.048 46.417,51.048C46.828,51.048 47.298,51.219 47.592,51.504L52.465,56.192C52.759,56.478 52.935,56.935 52.935,57.392C52.935,57.85 52.759,58.25 52.465,58.593C52.113,58.822 51.643,58.993 51.174,58.993Z" style="fill:rgb(0,120,212);"/>
            <path d="M39.701,58.993C39.23,58.993 38.817,58.879 38.523,58.591L33.692,53.822C33.338,53.535 33.161,53.075 33.161,52.673C33.161,52.213 33.338,51.811 33.692,51.467C34.34,50.835 35.459,50.777 36.107,51.409L40.938,56.12C41.233,56.465 41.468,56.867 41.468,57.327C41.468,57.787 41.233,58.189 40.938,58.534C40.585,58.821 40.113,58.993 39.701,58.993Z" style="fill:rgb(80,230,255);"/>
            <path d="M70.986,55.923C70.518,55.923 70.05,55.752 69.758,55.466L68.179,53.808C67.828,53.522 67.653,53.064 67.653,52.664C67.653,52.206 67.828,51.806 68.179,51.463C68.822,50.834 69.933,50.777 70.577,51.406L72.156,53.007C72.682,53.465 72.799,54.151 72.507,54.779C72.273,55.466 71.688,55.923 70.986,55.923Z" style="fill:rgb(0,120,212);"/>
            <path d="M28.226,47.797C27.761,47.797 27.354,47.622 27.005,47.271L25.436,45.692C24.855,44.99 24.855,43.937 25.436,43.293C26.075,42.651 27.121,42.651 27.761,43.293L29.446,44.931C29.737,45.224 29.911,45.692 29.911,46.101C29.911,46.569 29.795,47.037 29.446,47.329C29.097,47.563 28.691,47.797 28.226,47.797Z" style="fill:rgb(80,230,255);"/>
            <path d="M39.765,47.797C39.295,47.797 38.884,47.624 38.59,47.277L31.189,40.057C30.543,39.421 30.543,38.382 31.189,37.688C31.835,37.053 32.893,37.053 33.539,37.688L40.94,44.967C41.233,45.255 41.468,45.718 41.468,46.122C41.468,46.584 41.233,46.988 40.94,47.335C40.646,47.624 40.176,47.797 39.765,47.797Z" style="fill:rgb(0,120,212);"/>
            <path d="M51.175,47.797C50.764,47.797 50.353,47.624 50.059,47.336L45.188,42.548C44.895,42.26 44.719,41.855 44.719,41.394C44.719,40.932 44.895,40.529 45.188,40.183C45.834,39.548 46.949,39.49 47.594,40.125L52.466,44.913C52.759,45.201 52.935,45.663 52.935,46.066C52.935,46.528 52.759,46.932 52.466,47.278C52.114,47.624 51.644,47.797 51.175,47.797Z" style="fill:rgb(80,230,255);"/>
            <path d="M62.703,47.797C62.233,47.797 61.821,47.624 61.469,47.335L56.651,42.536C56.005,41.9 56.005,40.86 56.651,40.224C56.945,39.935 57.415,39.761 57.885,39.761C58.296,39.761 58.766,39.877 59.06,40.166L63.936,44.965C64.583,45.6 64.583,46.641 63.936,47.277C63.584,47.566 63.173,47.797 62.703,47.797Z" style="fill:rgb(0,120,212);"/>
            <path d="M39.762,36.511C39.291,36.511 38.879,36.338 38.526,35.993L36.937,34.442C36.231,33.81 36.231,32.776 36.937,32.087C37.585,31.455 38.644,31.455 39.291,32.087L40.939,33.696C41.233,33.983 41.468,34.442 41.468,34.902C41.468,35.305 41.233,35.764 40.939,36.051C40.644,36.281 40.174,36.511 39.762,36.511Z" style="fill:rgb(80,230,255);"/>
            <path d="M51.182,36.42C50.774,36.42 50.365,36.248 50.072,35.961L42.653,28.727C42.01,28.096 42.01,27.062 42.653,26.431C43.354,25.856 44.405,25.856 45.048,26.431L52.409,33.607C52.702,33.894 52.935,34.354 52.935,34.813C52.935,35.215 52.702,35.617 52.409,35.961C52.117,36.248 51.65,36.42 51.182,36.42Z" style="fill:rgb(0,120,212);"/>
        </g>
    </g>
    <defs>
        <linearGradient id="_Linear1" x1="0" y1="0" x2="1" y2="0" gradientUnits="userSpaceOnUse" gradientTransform="matrix(3.9828,145.768,-145.768,3.9828,47.8697,-15.1531)"><stop offset="0" style="stop-color:rgb(0,171,222);stop-opacity:1"/><stop offset="1" style="stop-color:rgb(0,126,216);stop-opacity:1"/></linearGradient>
    </defs>
</svg>
