<?xml version="1.0" encoding="UTF-8"?>
<svg width="107px" height="107px" viewBox="0 0 107 107" version="1.1" xmlns="http://www.w3.org/2000/svg" xmlns:xlink="http://www.w3.org/1999/xlink">
    <!-- Generator: Sketch 61 (89581) - https://sketch.com -->
    <title>NA/Introduction-to-implementing-lambda-architecture-for-IoT-solutions</title>
    <desc>Created with Sketch.</desc>
    <defs>
        <rect id="path-1" x="0" y="0" width="100" height="100" rx="50"></rect>
        <filter x="-9.8%" y="-44.4%" width="119.5%" height="188.9%" filterUnits="objectBoundingBox" id="filter-3">
            <feOffset dx="0" dy="2" in="SourceAlpha" result="shadowOffsetOuter1"></feOffset>
            <feColorMatrix values="0 0 0 0 0   0 0 0 0 0   0 0 0 0 0  0 0 0 0.103911911 0" type="matrix" in="shadowOffsetOuter1" result="shadowMatrixOuter1"></feColorMatrix>
            <feMerge>
                <feMergeNode in="shadowMatrixOuter1"></feMergeNode>
                <feMergeNode in="SourceGraphic"></feMergeNode>
            </feMerge>
        </filter>
        <filter x="-4.3%" y="-15.4%" width="108.7%" height="130.8%" filterUnits="objectBoundingBox" id="filter-4">
            <feOffset dx="0" dy="2" in="SourceAlpha" result="shadowOffsetOuter1"></feOffset>
            <feColorMatrix values="0 0 0 0 0   0 0 0 0 0   0 0 0 0 0  0 0 0 0.103911911 0" type="matrix" in="shadowOffsetOuter1" result="shadowMatrixOuter1"></feColorMatrix>
            <feMerge>
                <feMergeNode in="shadowMatrixOuter1"></feMergeNode>
                <feMergeNode in="SourceGraphic"></feMergeNode>
            </feMerge>
        </filter>
        <filter x="-6.2%" y="-9.1%" width="112.5%" height="115.5%" filterUnits="objectBoundingBox" id="filter-5">
            <feOffset dx="0" dy="2" in="SourceAlpha" result="shadowOffsetOuter1"></feOffset>
            <feColorMatrix values="0 0 0 0 0   0 0 0 0 0   0 0 0 0 0  0 0 0 0.099071558 0" type="matrix" in="shadowOffsetOuter1" result="shadowMatrixOuter1"></feColorMatrix>
            <feMerge>
                <feMergeNode in="shadowMatrixOuter1"></feMergeNode>
                <feMergeNode in="SourceGraphic"></feMergeNode>
            </feMerge>
        </filter>
        <linearGradient x1="78.4210223%" y1="-7.24023438%" x2="15.5786468%" y2="110.793945%" id="linearGradient-6">
            <stop stop-color="#FFFFFF" offset="0%"></stop>
            <stop stop-color="#000000" stop-opacity="0.5" offset="100%"></stop>
        </linearGradient>
        <rect id="path-7" x="-3" y="-3" width="106" height="106" rx="53"></rect>
        <filter x="-0.5%" y="-0.5%" width="101.9%" height="101.9%" filterUnits="objectBoundingBox" id="filter-8">
            <feOffset dx="1" dy="1" in="SourceAlpha" result="shadowOffsetOuter1"></feOffset>
            <feMorphology radius="4" operator="erode" in="SourceAlpha" result="shadowInner"></feMorphology>
            <feOffset dx="1" dy="1" in="shadowInner" result="shadowInner"></feOffset>
            <feComposite in="shadowOffsetOuter1" in2="shadowInner" operator="out" result="shadowOffsetOuter1"></feComposite>
            <feColorMatrix values="0 0 0 0 0   0 0 0 0 0   0 0 0 0 0  0 0 0 0.15 0" type="matrix" in="shadowOffsetOuter1"></feColorMatrix>
        </filter>
    </defs>
    <g id="Badges" stroke="none" stroke-width="1" fill="none" fill-rule="evenodd">
        <g id="N/A-80" transform="translate(-47.000000, -257.000000)">
            <g id="NA/Introduction-to-implementing-lambda-architecture-for-IoT-solutions" transform="translate(50.000000, 260.000000)">
                <g id="Mask" transform="translate(2.000000, 2.000000)">
                    <g id="Circle-" transform="translate(-2.000000, 0.000000)">
                        <mask id="mask-2" fill="white">
                            <use xlink:href="#path-1"></use>
                        </mask>
                        <g id="BG"></g>
                        <g id="Color/Blue" mask="url(#mask-2)" fill="#55A2FF" fill-rule="evenodd">
                            <rect id="Rectangle" x="0" y="0" width="100" height="100"></rect>
                        </g>
                    </g>
                    <g id="Browser-Pipe" transform="translate(-5.000000, 37.000000)">
                        <g id="Pipe" filter="url(#filter-3)" transform="translate(69.000000, 6.000000)">
                            <polygon id="Fill-68" fill="#006FC3" points="0.361885914 8.08464813 40.3618859 8.08464813 40.3618859 0.0846481326 0.361885914 0.0846481326"></polygon>
                            <polygon id="Fill-69" fill-opacity="0.0901268116" fill="#000000" points="0.361885914 8.08464813 40.3618859 8.08464813 40.3618859 4.08464813 0.361885914 4.08464813"></polygon>
                        </g>
                        <g id="Knob-Pipe" filter="url(#filter-4)">
                            <path d="M29.376,1.14935554 L25.0208,4.77815554 L16,4.77815554 C15.116,4.77815554 14.4,5.49415554 14.4,6.37815554 L14.4,14.3781555 C14.4,15.2621555 15.116,15.9781555 16,15.9781555 L25.0208,15.9781555 L29.376,19.6069555 C29.6688,19.8517555 30.0328,19.9781555 30.4,19.9781555 C30.6304,19.9781555 30.8624,19.9285555 31.0784,19.8269555 C31.6408,19.5637555 32,18.9989555 32,18.3781555 L32,2.37815554 C32,1.75735554 31.6408,1.19255554 31.0784,0.928555541 C30.516,0.666955541 29.8512,0.751755541 29.376,1.14935554 Z" id="Fill-65" fill="#DF5142"></path>
                            <path d="M5,10.0846481 L3,13.188164 L7.2,16.8448686 L4,16.8448686 C4.3568,15.4672686 5.7104,14.3781555 7.2,14.3781555 L14.4,14.3781555 L14.4,6.37815554 L7.2,6.37815554 C1.0144,6.37815554 5,3.89904813 5,10.0846481 Z" id="Fill-68" fill="#ED5C4C"></path>
                            <path d="M0,17.5781555 L4,24 L5.2,25.7142857 L4,17.5781555 C4,15.8109555 5.4328,14.3781555 7.2,14.3781555 L14.4,14.3781555 L14.4,10.3781555 L7.2,10.3781555 C3.2232,10.3781555 0,13.6013555 0,17.5781555 Z" id="Fill-69" fill-opacity="0.0901268116" fill="#000000"></path>
                            <path d="M31.0784,0.928555541 C30.8616,0.827755541 30.6304,0.794155541 30.4,0.794155541 L30.4,8.77815554 C30.4,9.66215554 29.684,10.3781555 28.8,10.3781555 L14.4,10.3781555 L14.4,14.3781555 C14.4,15.2621555 15.116,15.9781555 16,15.9781555 L25.0208,15.9781555 L29.376,19.6069555 C29.6688,19.8517555 30.0328,19.9781555 30.4,19.9781555 C30.6304,19.9781555 30.8624,19.9285555 31.0784,19.8269555 C31.6408,19.5637555 32,18.9989555 32,18.3781555 L32,2.37815554 C32,1.75735554 31.6408,1.19255554 31.0784,0.928555541" id="Fill-72" fill-opacity="0.115942029" fill="#000000"></path>
                            <path d="M91.0784,0.928555541 C90.516,0.666955541 89.8512,0.751755541 89.376,1.14935554 L85.0208,4.77815554 L76,4.77815554 C75.116,4.77815554 74.4,5.49415554 74.4,6.37815554 L74.4,14.3781555 C74.4,15.2621555 75.116,15.9781555 76,15.9781555 L85.0208,15.9781555 L89.376,19.6069555 C89.6688,19.8517555 90.0328,19.9781555 90.4,19.9781555 C90.6304,19.9781555 90.8624,19.9285555 91.0784,19.8269555 C91.6408,19.5637555 92,18.9989555 92,18.3781555 L92,2.37815554 C92,1.75735554 91.6408,1.19255554 91.0784,0.928555541" id="Fill-65" fill="#005BA0" transform="translate(83.200000, 10.378341) scale(-1, 1) translate(-83.200000, -10.378341) "></path>
                            <path d="M91.0784,0.928555541 C90.8616,0.827755541 90.6304,0.794155541 90.4,0.794155541 L90.4,8.77815554 C90.4,9.66215554 89.684,10.3781555 88.8,10.3781555 L74.4,10.3781555 L74.4,14.3781555 C74.4,15.2621555 75.116,15.9781555 76,15.9781555 L85.0208,15.9781555 L89.376,19.6069555 C89.6688,19.8517555 90.0328,19.9781555 90.4,19.9781555 C90.6304,19.9781555 90.8624,19.9285555 91.0784,19.8269555 C91.6408,19.5637555 92,18.9989555 92,18.3781555 L92,2.37815554 C92,1.75735554 91.6408,1.19255554 91.0784,0.928555541" id="Fill-72" fill-opacity="0.115942029" fill="#000000" transform="translate(83.200000, 10.386156) scale(-1, 1) translate(-83.200000, -10.386156) "></path>
                        </g>
                    </g>
                    <g id="Database-Speed" transform="translate(16.000000, 17.000000)">
                        <g id="Database" filter="url(#filter-5)">
                            <path d="M63.4612971,53.114746 C63.4612971,59.7817485 49.3758122,65.1829324 32,65.1829324 C14.6254987,65.1829324 0.538702899,59.7817485 0.538702899,53.114746 C0.538702899,46.4477435 14.6254987,41.0465596 32,41.0465596 C49.3758122,41.0465596 63.4612971,46.4477435 63.4612971,53.114746" id="Shadow" fill-opacity="0.102807971" fill="#000000"></path>
                            <g id="Lower" transform="translate(9.142857, 31.085714)">
                                <path d="M22.8571429,16.3552564 C10.6736945,16.3552564 0.795670138,12.6757296 0.795670138,8.13387071 L0.795670138,19.0957183 C0.795670138,23.6375772 10.6736945,27.317104 22.8571429,27.317104 C35.0415104,27.317104 44.9186156,23.6375772 44.9186156,19.0957183 L44.9186156,8.13387071 C44.9186156,12.6757296 35.0415104,16.3552564 22.8571429,16.3552564" id="Fill-101" fill="#E1E4E1"></path>
                                <path d="M22.8571429,19.9790605 L22.8571429,23.6302693 C22.8571429,24.6670774 21.9884724,25.4928699 20.9460678,25.4599844 C9.65702835,25.0991569 0.795670138,21.5703554 0.795670138,17.2687437 L0.795670138,19.0957183 C0.795670138,23.6375772 10.6736945,27.317104 22.8571429,27.317104 C35.0415104,27.317104 44.9186156,23.6375772 44.9186156,19.0957183 L44.9186156,9.96084532 C44.9186156,14.2807268 35.9846384,17.8204901 24.627576,18.1557399 C23.6403251,18.1849715 22.8571429,18.9970617 22.8571429,19.9790605" id="Fill-106" fill="#D3DAD8"></path>
                                <path d="M44.8,8.22857143 C44.8,12.7744 34.976,16.4571429 22.8571429,16.4571429 C10.7392,16.4571429 0.914285714,12.7744 0.914285714,8.22857143 C0.914285714,3.68274286 10.7392,0 22.8571429,0 C34.976,0 44.8,3.68274286 44.8,8.22857143" id="Fill-100" stroke="#E1E4E1" stroke-width="0.25" fill="#BAC0C2"></path>
                            </g>
                            <g id="Mid" transform="translate(9.142857, 15.542857)">
                                <path d="M22.8571429,16.3688294 C10.6736945,16.3688294 0.795670138,12.6893026 0.795670138,8.14744374 L0.795670138,19.1092913 C0.795670138,23.6511502 10.6736945,27.3306771 22.8571429,27.3306771 C35.0415104,27.3306771 44.9186156,23.6511502 44.9186156,19.1092913 L44.9186156,8.14744374 C44.9186156,12.6893026 35.0415104,16.3688294 22.8571429,16.3688294" id="Fill-102" fill="#E1E4E1"></path>
                                <path d="M22.8571429,19.9926336 L22.8571429,23.6438423 C22.8571429,24.6806504 21.9884724,25.5064429 20.9460678,25.4735574 C9.65702835,25.1127299 0.795670138,21.5839284 0.795670138,17.2823167 L0.795670138,19.1092913 C0.795670138,23.6511502 10.6736945,27.3306771 22.8571429,27.3306771 C35.0415104,27.3306771 44.9186156,23.6511502 44.9186156,19.1092913 L44.9186156,9.97441834 C44.9186156,14.2942998 35.9846384,17.8340631 24.627576,18.1693129 C23.6403251,18.1985445 22.8571429,19.0106347 22.8571429,19.9926336" id="Fill-107" fill="#D3DAD8"></path>
                                <path d="M44.8,8.22857143 C44.8,12.7744 34.976,16.4571429 22.8571429,16.4571429 C10.7392,16.4571429 0.914285714,12.7744 0.914285714,8.22857143 C0.914285714,3.68274286 10.7392,0 22.8571429,0 C34.976,0 44.8,3.68274286 44.8,8.22857143" id="Fill-103" stroke="#E1E4E1" stroke-width="0.25" fill="#BAC0C2"></path>
                            </g>
                            <g id="Top" transform="translate(9.142857, 0.000000)">
                                <path d="M22.8571429,16.3824025 C10.6736945,16.3824025 0.795670138,12.7028756 0.795670138,8.16101676 L0.795670138,19.1228644 C0.795670138,23.6647232 10.6736945,27.3442501 22.8571429,27.3442501 C35.0415104,27.3442501 44.9186156,23.6647232 44.9186156,19.1228644 L44.9186156,8.16101676 C44.9186156,12.7028756 35.0415104,16.3824025 22.8571429,16.3824025" id="Fill-104" fill="#E1E4E1"></path>
                                <path d="M22.8571429,20.0062066 L22.8571429,23.6574153 C22.8571429,24.6942234 21.9884724,25.5200159 20.9460678,25.4871304 C9.65702835,25.1263029 0.795670138,21.5975015 0.795670138,17.2958898 L0.795670138,19.1228644 C0.795670138,23.6647232 10.6736945,27.3442501 22.8571429,27.3442501 C35.0415104,27.3442501 44.9186156,23.6647232 44.9186156,19.1228644 L44.9186156,9.98799136 C44.9186156,14.3078728 35.9846384,17.8476361 24.627576,18.1828859 C23.6403251,18.2121175 22.8571429,19.0242077 22.8571429,20.0062066" id="Fill-108" fill="#D3DAD8"></path>
                                <path d="M43.9312834,8.22857143 C43.9312834,12.7744 34.496215,16.4571429 22.8571429,16.4571429 C11.2189488,16.4571429 1.78300236,12.7744 1.78300236,8.22857143 C1.78300236,3.68274286 11.2189488,0 22.8571429,0 C34.496215,0 43.9312834,3.68274286 43.9312834,8.22857143" id="Fill-105" stroke="#E1E4E1" stroke-width="2.25" fill="#C4CBCD"></path>
                            </g>
                        </g>
                        <path d="M30.2857143,20 C32.179262,20 33.7142857,21.5350237 33.7142857,23.4285714 C33.7142857,24.4073975 33.3041065,25.2904211 32.6462579,25.9151324 L34.567,28.571 C36.8687475,28.5714286 38.7438858,30.3789987 38.8522007,32.6494961 L38.8571429,32.8571429 C38.8571429,33.4606073 38.7324171,34.0349406 38.5073381,34.5557702 L41.0929039,38.8788532 C41.2027651,38.8645308 41.3148055,38.8571429 41.4285714,38.8571429 C42.8487322,38.8571429 44,40.0084106 44,41.4285714 C44,42.8487322 42.8487322,44 41.4285714,44 C40.0084106,44 38.8571429,42.8487322 38.8571429,41.4285714 C38.8571429,41.0228677 38.9510977,40.6391084 39.1184358,40.2978649 L36.8425013,36.4923159 C36.1840463,36.9045547 35.4055667,37.1428571 34.5714286,37.1428571 C34.530931,37.1428571 34.4905645,37.1422954 34.4503367,37.1411794 L31.6423146,41.8337892 C31.8695535,42.2172418 32,42.6648157 32,43.1428571 C32,44.5630179 30.8487322,45.7142857 29.4285714,45.7142857 C28.0084106,45.7142857 26.8571429,44.5630179 26.8571429,43.1428571 C26.8571429,41.7226964 28.0084106,40.5714286 29.4285714,40.5714286 C29.4768261,40.5714286 29.5247703,40.5727577 29.5723694,40.5753815 L32.0966878,36.3565703 C31.2543627,35.7598068 30.6369088,34.8665665 30.3963509,33.8288741 L24.7492552,34.225007 C24.2941469,34.9480789 23.4889002,35.4285714 22.5714286,35.4285714 C21.1512678,35.4285714 20,34.2773036 20,32.8571429 C20,31.4369821 21.1512678,30.2857143 22.5714286,30.2857143 C23.6064475,30.2857143 24.4986425,30.8972163 24.906439,31.7786459 L30.5463635,31.3819515 C30.8524171,30.5471282 31.4107801,29.8340162 32.1290751,29.334993 L30.336,26.856 L30.2857143,26.8571429 C28.4552848,26.8571429 26.9598761,25.4227485 26.862216,23.6166875 L26.8571429,23.4285714 C26.8571429,21.5350237 28.3921666,20 30.2857143,20 Z" id="Combined-Shape" fill="#0078D4"></path>
                    </g>
                </g>
                <g id="Azure-Border">
                    <path d="M50,0 C74.5263677,-4.50542066e-15 94.9281966,17.6592499 99.1842495,40.9565123 L94.2027317,73.3905473 C85.8096395,89.2186645 69.1638777,100 50,100 C30.9551233,100 14.3971863,89.3521454 5.95457608,73.6848234 L0.0261464987,48.3675131 C0.887696267,21.508872 22.932015,4.97230817e-15 50,0 Z" id="Combined-Shape" fill="url(#linearGradient-6)" fill-rule="evenodd" opacity="0.400000006" style="mix-blend-mode: overlay;"></path>
                    <g>
                        <use fill="black" fill-opacity="1" filter="url(#filter-8)" xlink:href="#path-7"></use>
                        <rect stroke="#F2F1F0" stroke-width="4" stroke-linejoin="square" x="-1" y="-1" width="102" height="102" rx="51"></rect>
                    </g>
                    <rect stroke="#0078D4" stroke-width="4" x="2" y="2" width="96" height="96" rx="48"></rect>
                </g>
            </g>
        </g>
    </g>
</svg>