<svg width="103" height="103" viewBox="0 0 103 103" fill="none" xmlns="http://www.w3.org/2000/svg">
<path d="M51.1205 98.3739C25.2705 98.3739 4.31049 77.4239 4.31049 51.5639C4.31049 25.7039 25.2705 4.75391 51.1205 4.75391C76.9705 4.75391 97.9305 25.7139 97.9305 51.5639C97.9305 77.4139 76.9705 98.3739 51.1205 98.3739Z" fill="url(#paint0_linear)"/>
<path fill-rule="evenodd" clip-rule="evenodd" d="M97.0205 51.5638C97.0205 76.9138 76.4705 97.4638 51.1205 97.4638C25.7705 97.4638 5.22047 76.9138 5.22047 51.5638C5.22047 26.2138 25.7705 5.66383 51.1205 5.66383C76.4705 5.66383 97.0205 26.2138 97.0205 51.5638ZM51.1205 1.92383C78.5405 1.92383 100.76 24.1438 100.76 51.5638C100.76 78.9838 78.5305 101.204 51.1205 101.204C23.7005 101.204 1.48047 78.9738 1.48047 51.5638C1.48047 24.1438 23.7005 1.92383 51.1205 1.92383Z" fill="#F2F1F0"/>
<path fill-rule="evenodd" clip-rule="evenodd" d="M94.2105 51.5634C94.2105 75.3634 74.9205 94.6534 51.1205 94.6534C27.3205 94.6534 8.03047 75.3634 8.03047 51.5634C8.03047 27.7634 27.3205 8.4734 51.1205 8.4734C74.9205 8.4734 94.2105 27.7634 94.2105 51.5634ZM51.1205 4.7334C76.9805 4.7334 97.9505 25.7034 97.9505 51.5634C97.9505 77.4234 76.9805 98.3934 51.1205 98.3934C25.2605 98.3934 4.29047 77.4234 4.29047 51.5634C4.29047 25.7034 25.2505 4.7334 51.1205 4.7334Z" fill="#0078D4"/>
<path d="M43.2305 72.7441H35.3705V35.4141H43.2305" stroke="white" stroke-width="1.5" stroke-miterlimit="10" stroke-linejoin="round"/>
<path d="M73.1204 52.8541H62.3304V35.4141H51.5304" stroke="white" stroke-width="1.5" stroke-miterlimit="10" stroke-linejoin="round"/>
<path d="M55.1805 35.4141H72.7205" stroke="white" stroke-width="1.5" stroke-miterlimit="10" stroke-linejoin="round"/>
<path d="M43.2104 50.793H25.7904" stroke="white" stroke-width="1.5" stroke-miterlimit="10" stroke-linejoin="round"/>
<path d="M58.4906 31.1836H39.9906V42.0136C39.9906 42.3436 40.2606 42.6036 40.5806 42.6036H57.8906C58.2206 42.6036 58.4806 42.3336 58.4806 42.0136L58.4906 31.1836Z" fill="#50E6FF"/>
<path d="M57.8606 29.5732H40.6206C40.2706 29.5732 39.9906 29.8532 39.9906 30.2032V31.5532H58.4906V30.2032C58.4906 29.8532 58.2106 29.5732 57.8606 29.5732Z" fill="white"/>
<path d="M30.6605 46.0537H12.1605V56.8837C12.1605 57.2137 12.4305 57.4737 12.7505 57.4737H30.0605C30.3905 57.4737 30.6505 57.2037 30.6505 56.8837V46.0537H30.6605Z" fill="#9CEBFF"/>
<path d="M30.0305 44.4531H12.8005C12.4505 44.4531 12.1705 44.7331 12.1705 45.0831V46.4331H30.6705V45.0831C30.6605 44.7331 30.3805 44.4531 30.0305 44.4531Z" fill="white"/>
<path d="M85.1205 31.1836H66.6205V42.0136C66.6205 42.3436 66.8905 42.6036 67.2105 42.6036H84.5205C84.8505 42.6036 85.1105 42.3336 85.1105 42.0136L85.1205 31.1836Z" fill="#9B9BA0"/>
<path d="M84.4905 29.5732H67.2505C66.9005 29.5732 66.6205 29.8532 66.6205 30.2032V31.5532H85.1205V30.2032C85.1205 29.8532 84.8405 29.5732 84.4905 29.5732Z" fill="#78787D"/>
<path d="M85.5404 48.3633H67.0404V59.1933C67.0404 59.5233 67.3104 59.7833 67.6304 59.7833H84.9404C85.2704 59.7833 85.5304 59.5133 85.5304 59.1933V48.3633H85.5404Z" fill="#45CAF2"/>
<path d="M84.9104 46.7637H67.6804C67.3304 46.7637 67.0504 47.0437 67.0504 47.3937V48.7437H85.5504V47.3937C85.5404 47.0437 85.2604 46.7637 84.9104 46.7637Z" fill="white"/>
<path d="M58.4906 68.6436H39.9906V79.4736C39.9906 79.8036 40.2606 80.0636 40.5806 80.0636H57.8906C58.2206 80.0636 58.4806 79.7936 58.4806 79.4736L58.4906 68.6436Z" fill="#EBEBEB"/>
<path d="M57.8606 67.043H40.6206C40.2706 67.043 39.9906 67.323 39.9906 67.673V69.023H58.4906V67.673C58.4906 67.323 58.2106 67.043 57.8606 67.043Z" fill="#78787D"/>
<path d="M58.4906 47.8232H39.9906V63.1632C39.9906 63.7032 40.4206 64.1332 40.9606 64.1332H57.5206C58.0606 64.1332 58.4906 63.7032 58.4906 63.1632V47.8232Z" fill="#CDCDD0"/>
<path d="M57.6006 46.2236H40.8806C40.3906 46.2236 39.9906 46.6236 39.9906 47.1136V48.2136H58.4906V47.1136C58.4906 46.6136 58.0906 46.2236 57.6006 46.2236Z" fill="#78787D"/>
<path d="M24.1705 48.8135L19.8405 53.1635L18.5405 51.8535L17.6705 52.7235L19.8405 54.8935L25.0505 49.6735L24.1705 48.8135Z" fill="#002D4C"/>
<path d="M52.2303 33.3633L47.9003 37.7133L46.6003 36.4033L45.7303 37.2733L47.9003 39.4433L53.1103 34.2233L52.2303 33.3633Z" fill="#002D4C"/>
<path d="M79.3004 50.6533L74.9704 55.0033L73.6704 53.6933L72.8004 54.5633L74.9704 56.7333L80.1804 51.5133L79.3004 50.6533Z" fill="#002D4C"/>
<defs>
<linearGradient id="paint0_linear" x1="49.3501" y1="-13.2291" x2="53.3329" y2="132.539" gradientUnits="userSpaceOnUse">
<stop stop-color="#00ABDE"/>
<stop offset="1" stop-color="#007ED8"/>
</linearGradient>
</defs>
</svg>
