<svg width="260" height="153" viewBox="0 0 260 153" fill="none"
    xmlns="http://www.w3.org/2000/svg">
    <path d="M0 8C0 3.58172 3.58172 0 8 0H252C256.418 0 260 3.58172 260 8V153H0V8Z" fill="#F2F2F2"/>
    <path d="M201.75 76.7226L201.735 81.8796C201.718 87.6736 197.895 93.4536 190.258 97.8736C174.892 106.764 149.884 106.764 134.41 97.8736C126.622 93.3916 122.733 87.5146 122.75 81.6486L122.765 76.4916C122.75 82.3576 126.637 88.2346 134.425 92.7106C149.899 101.605 174.907 101.605 190.273 92.7106C197.91 88.2966 201.733 82.5136 201.75 76.7226Z" fill="#C8C8C8"/>
    <path d="M190.09 61.6976C205.567 70.6436 205.648 85.1476 190.272 94.0976C174.896 103.048 149.891 103.039 134.414 94.0976C118.937 85.1566 118.851 70.6386 134.224 61.6976C149.597 52.7566 174.613 52.7516 190.09 61.6976Z" fill="white"/>
    <path d="M158.567 70.5916L155.531 81.9199L185.964 90.0744L188.999 78.7461L158.567 70.5916Z" fill="url(#paint0_radial)"/>
    <path d="M139.297 70.2086L136.148 81.96L166.286 90.0352L169.435 78.2839L139.297 70.2086Z" fill="url(#paint1_radial)"/>
    <path d="M181.283 65.3348L183.348 64.1348L185.548 71.9068L183.486 73.1108L181.283 65.3348Z" fill="#773ADC"/>
    <path d="M188.526 52.1109C188.161 43.8709 183.598 34.7909 177.603 28.7889C174.698 25.8919 170.973 23.2349 166.951 22.3749C165.479 22.0402 163.952 22.0235 162.473 22.3259C160.904 22.7804 159.423 23.4939 158.09 24.4369C161.742 22.3049 166.29 23.4869 169.931 25.5939L169.917 25.6019C174.917 28.5019 179.071 33.4369 181.874 38.4259C183.926 42.0186 185.355 45.9334 186.098 50.0039C187.046 55.5559 186.444 62.3349 181.639 65.1399L183.704 63.9349C187.606 61.6559 188.732 56.6939 188.526 52.1109Z" fill="url(#paint2_linear)"/>
    <path d="M186.489 54.4278C186.518 43.8278 179.1 30.9278 169.918 25.6018C160.736 20.2758 153.274 24.5488 153.244 35.1468C153.214 45.7448 160.628 58.6468 169.81 63.9758C171.245 64.8303 172.794 65.4777 174.41 65.8988L183.486 73.1108L181.286 65.3378C184.476 63.6848 186.473 59.8988 186.489 54.4278Z" fill="url(#paint3_linear)"/>
    <path d="M171.431 35.129L170.87 51.211L167.19 49.086L166.658 32.376L171.431 35.129ZM169.073 57.956C165.592 55.946 165.5 50.415 169.073 52.478C172.577 54.501 172.549 59.963 169.073 57.956Z" fill="#F5EDFD"/>
    <path d="M144.713 31.6109C153.893 36.9109 161.307 49.7519 161.277 60.3029C161.247 70.8539 153.781 75.1109 144.604 69.8109C143.825 69.359 143.071 68.8643 142.346 68.3289L134.705 69.1819L135.634 61.6049C131.047 55.5449 128.016 47.8549 128.035 41.1109C128.065 30.5579 135.531 26.3109 144.713 31.6109Z" fill="url(#paint4_linear)"/>
    <path d="M163.342 59.0988C163.327 64.3448 161.476 68.0328 158.496 69.7668L156.431 70.9668C159.418 69.2328 161.261 65.5448 161.281 60.2988C161.188 55.9888 160.207 51.7444 158.399 47.8308H158.405C156.778 44.158 154.61 40.7501 151.972 37.7208C149.899 35.305 147.447 33.2415 144.713 31.6108C140.093 28.9388 135.903 28.6948 132.883 30.4488L134.945 29.2488C137.967 27.4938 142.154 27.7428 146.779 30.4108C149.514 32.0428 151.968 34.1065 154.045 36.5218C156.686 39.5481 158.854 42.9567 160.475 46.6318C162.279 50.5455 163.256 54.79 163.342 59.0988Z" fill="url(#paint5_linear)"/>
    <path d="M141.457 55.1838C141.088 53.8608 140.944 51.8838 141.673 50.7428C142.051 50.193 142.595 49.7796 143.226 49.5638C143.832 49.36 144.394 49.0415 144.879 48.6258C145.773 47.7258 145.531 45.9938 144.836 44.8498C144.185 43.8394 143.211 43.0793 142.073 42.6934C140.935 42.3075 139.7 42.3186 138.568 42.7248V37.7248C141.13 37.4368 144.221 39.2328 146.168 40.9378C147.694 42.2326 148.846 43.912 149.504 45.8018C150.033 47.3229 150.132 48.9601 149.791 50.5338C148.908 53.6288 145.691 52.7218 145.018 54.7008C144.794 55.5883 144.87 56.525 145.234 57.3648L141.457 55.1838ZM143.557 63.6668C142.797 63.2205 142.156 62.5958 141.69 61.8468C141.224 61.0977 140.947 60.2466 140.883 59.3668C140.883 57.7328 142.096 57.3438 143.557 58.1878C147.054 60.2108 147.075 65.6988 143.556 63.6668H143.557Z" fill="#D9F4FF"/>
    <rect x="65.5566" y="98.2016" width="64.2949" height="29.8257" transform="rotate(15 65.5566 98.2016)" fill="url(#paint6_radial)"/>
    <path d="M80.4451 84.6904L62.8281 74.5074V61.2834L80.4451 71.4664V84.6904Z" fill="#C3ADF7" stroke="#341A6E" stroke-miterlimit="10"/>
    <path d="M102.634 64.1764L85.4551 54.2584V41.0334L102.634 50.9514V64.1764Z" fill="#C3ADF7" stroke="#341A6E" stroke-miterlimit="10"/>
    <path d="M131.265 97.2374L108.359 84.0124V70.7884L131.265 84.0124V97.2374Z" fill="#C3ADF7" stroke="#341A6E" stroke-miterlimit="10"/>
    <path d="M119.812 123.685L100.486 112.527V99.3034L119.812 110.461V123.685Z" fill="#C3ADF7" stroke="#341A6E" stroke-miterlimit="10"/>
    <path d="M99.7714 57.5644L88.3184 50.9514V47.6454L99.7714 54.2584V57.5644Z" fill="#341A6E"/>
    <path d="M82.5931 47.6454L65.4141 37.7274V34.4214L82.5931 44.3394V47.6454Z" fill="#949494"/>
    <path d="M88.3191 67.4824L65.4141 54.2584V50.9514L88.3191 64.1764V67.4824Z" fill="#949494"/>
    <path d="M105.497 77.4004L94.0449 70.7884V67.4824L105.497 74.0944V77.4004Z" fill="#949494"/>
    <path d="M128.404 90.6254L111.225 80.7064V77.4004L128.404 87.3184V90.6254Z" fill="#341A6E"/>
    <path d="M76.8671 77.4004L65.4141 70.7884V67.4824L76.8671 74.0944V77.4004Z" fill="#341A6E"/>
    <path d="M128.403 107.155L82.5918 80.7064V77.4004L128.403 103.849V107.155Z" fill="#949494"/>
    <path d="M122.676 117.073L128.403 120.379V123.685L122.676 120.379V117.073Z" fill="#949494"/>
    <path d="M102.635 105.502L116.951 113.767V117.073L102.635 108.808V105.502Z" fill="#341A6E"/>
    <path d="M65.4141 84.0124L96.9091 102.196V105.502L65.4141 87.3184V84.0124Z" fill="#949494"/>
    <path d="M128.404 74.0944L105.498 60.8704V57.5644L128.404 70.7884V74.0944Z" fill="#949494"/>
    <defs>
        <radialGradient id="paint0_radial" cx="0" cy="0" r="1" gradientUnits="userSpaceOnUse" gradientTransform="translate(172.35 80.509) rotate(105) scale(5.86358 15.7532)">
            <stop stop-opacity="0.15"/>
            <stop offset="1" stop-opacity="0"/>
        </radialGradient>
        <radialGradient id="paint1_radial" cx="0" cy="0" r="1" gradientUnits="userSpaceOnUse" gradientTransform="translate(152.873 80.303) rotate(105) scale(6.08255 15.6002)">
            <stop stop-opacity="0.15"/>
            <stop offset="1" stop-opacity="0"/>
        </radialGradient>
        <linearGradient id="paint2_linear" x1="172.56" y1="28.8943" x2="175.38" y2="64.1733" gradientUnits="userSpaceOnUse">
            <stop stop-color="#DAC7FF"/>
            <stop offset="0.65" stop-color="#9C6CF0"/>
            <stop offset="1" stop-color="#6C4BA6"/>
        </linearGradient>
        <linearGradient id="paint3_linear" x1="155.952" y1="28.268" x2="185.379" y2="67.3562" gradientUnits="userSpaceOnUse">
            <stop stop-color="#C9ADFF"/>
            <stop offset="1" stop-color="#9567E6"/>
        </linearGradient>
        <linearGradient id="paint4_linear" x1="134.75" y1="31.5001" x2="150.407" y2="73.8797" gradientUnits="userSpaceOnUse">
            <stop stop-color="#45CAF2"/>
            <stop offset="1" stop-color="#2EA1D4"/>
        </linearGradient>
        <linearGradient id="paint5_linear" x1="148.112" y1="29.4335" x2="148.112" y2="69.75" gradientUnits="userSpaceOnUse">
            <stop stop-color="#84ECFD"/>
            <stop offset="0.744792" stop-color="#32B0E7"/>
            <stop offset="1" stop-color="#156AB3"/>
        </linearGradient>
        <radialGradient id="paint6_radial" cx="0" cy="0" r="1" gradientUnits="userSpaceOnUse" gradientTransform="translate(97.7041 113.114) rotate(90) scale(14.9129 32.1474)">
            <stop stop-opacity="0.15"/>
            <stop offset="1" stop-opacity="0"/>
        </radialGradient>
    </defs>
</svg>
