<svg width="260" height="153" viewBox="0 0 260 153" fill="none"
    xmlns="http://www.w3.org/2000/svg">
    <path d="M0 8C0 3.58172 3.58172 0 8 0H252C256.418 0 260 3.58172 260 8V153H0V8Z" fill="#F2F2F2"/>
    <path d="M185.97 69.6327L185.957 74.2022C185.943 79.3338 182.555 84.4577 175.788 88.3729C162.173 96.2499 140.014 96.25 126.303 88.369C119.402 84.4027 115.956 79.1959 115.971 73.9978L115.984 69.4283C115.969 74.6264 119.415 79.833 126.315 83.7995C140.027 91.6805 162.186 91.6804 175.801 83.8034C182.568 79.8882 185.956 74.7643 185.97 69.6327Z" fill="#C8C8C8"/>
    <path d="M175.638 56.3199C189.351 64.2463 189.424 77.0985 175.799 85.0251C162.181 92.9476 140.018 92.9477 126.304 85.0212C112.591 77.0947 112.518 64.2426 126.136 56.3202C139.761 48.3934 161.924 48.3933 175.638 56.3199Z" fill="white"/>
    <path d="M133.867 57.9541L166.94 66.8161L163.002 81.5138L129.929 72.6518L133.867 57.9541Z" fill="url(#paint0_radial)"/>
    <path d="M170.928 59.9422C168.683 58.812 167.56 59.9249 167.56 63.281V70.7581C167.56 75.8422 165.358 77.1466 160.955 74.6714V71.5313C162.208 72.2209 163.096 72.3187 163.621 71.8246C164.146 71.3306 164.409 70.1696 164.409 68.3416V61.1386C164.409 57.6325 165.481 56.1245 167.625 56.6147V56.515C166.536 55.4378 165.687 54.1429 165.132 52.7149C164.578 51.2868 164.332 49.758 164.409 48.2282V40.9255C164.409 37.702 163.258 35.392 160.955 33.9958V30.8057C163.031 31.9383 164.749 33.628 165.916 35.6846C167.083 37.7411 167.652 40.0827 167.56 42.4455V49.7236C167.56 53.1461 168.683 55.5886 170.928 57.051V59.9422Z" fill="#0078D4"/>
    <path d="M134.795 59.954C132.724 58.8365 131.006 57.1629 129.835 55.1218C128.664 53.0806 128.086 50.753 128.167 48.4012V40.924C128.167 37.5673 127.045 35.1583 124.801 33.6969V30.8054C127.045 31.9354 128.167 30.7886 128.167 27.3651V20.0874C128.167 14.9363 130.376 13.6031 134.794 16.0877V19.2778C132.506 18.0233 131.362 19.0077 131.362 22.2309V29.5342C131.362 33.0233 130.283 34.5436 128.124 34.0951V34.1948C129.223 35.2578 130.081 36.5445 130.639 37.9677C131.198 39.3911 131.444 40.9178 131.361 42.4446V49.6476C131.298 51.1497 131.559 52.6479 132.127 54.0398C132.719 55.21 133.648 56.1761 134.795 56.8135V59.954Z" fill="#0078D4"/>
    <path d="M138.21 39.9894L142.034 37.7814L147.73 47.6472L151.824 45.2835L154.047 49.1326L159.526 52.296C160.098 51.353 160.416 50.1323 160.457 48.7231C160.459 47.0449 160.036 45.1576 159.241 43.2927C158.445 41.4279 157.311 39.6666 155.979 38.2252C154.646 36.7839 153.172 35.725 151.739 35.1787C150.305 34.6324 148.974 34.6224 147.908 35.1499C146.843 33.392 145.512 31.8648 144.078 30.7558C142.644 29.6467 141.171 29.004 139.838 28.9066C138.506 28.8092 137.372 29.2613 136.576 30.2075C135.781 31.1536 135.358 32.5526 135.359 34.2327C135.401 35.69 135.719 37.2782 136.291 38.8813L138.21 39.9894Z" fill="#0078D4"/>
    <path d="M153.163 51.0884L151.825 48.7713L147.731 51.135L142.035 41.2692L139.095 42.9665L137.543 42.0704C141.137 50.2086 147.909 59.5652 147.909 59.5652C147.909 59.5652 154.681 58.0285 158.275 54.0398L153.163 51.0884Z" fill="#0078D4"/>
    <path d="M179.726 62.3764C178.05 61.3445 176.671 59.8947 175.724 58.1692C174.778 56.4437 174.296 54.5017 174.326 52.5337C174.326 47.8246 176.739 46.7332 180.068 48.6548C181.767 49.6729 183.162 51.1287 184.106 52.87C185.051 54.6114 185.51 56.5744 185.436 58.5539C185.436 62.717 183.279 64.4277 179.726 62.3764ZM179.954 51.2188C177.917 50.0428 177.075 51.6258 177.075 53.9894C177.075 56.3088 177.889 58.7421 179.905 59.9063C181.938 61.0793 182.72 59.4358 182.72 57.0982C182.72 54.8171 181.912 52.3491 179.954 51.2188ZM195.522 57.9716L180.556 76.4549L178.23 75.1118L193.179 56.6193L195.522 57.9716ZM193.423 84.1094C191.747 83.0775 190.368 81.6277 189.421 79.9022C188.475 78.1766 187.993 76.2346 188.023 74.2666C188.023 69.5568 190.437 68.4665 193.765 70.3877C195.464 71.4058 196.859 72.8616 197.803 74.6029C198.747 76.3443 199.207 78.3073 199.133 80.2867C199.133 84.4416 196.983 86.1648 193.423 84.1094ZM193.651 72.9517C191.613 71.775 190.772 73.36 190.772 75.7223C190.772 78.043 191.586 80.4751 193.602 81.6392C195.635 82.8122 196.417 81.1689 196.417 78.8311C196.417 76.5498 195.609 74.0818 193.651 72.9517H193.651Z" fill="#0078D4"/>
    <rect x="67.6523" y="100.808" width="64.2949" height="29.8257" transform="rotate(15 67.6523 100.808)" fill="url(#paint1_radial)"/>
    <path d="M104.728 66.7826L87.5488 56.8646V43.6396L104.728 53.5576V66.7826Z" fill="#AAE2A6" stroke="#1B9117" stroke-miterlimit="10"/>
    <path d="M82.5389 87.033L64.9219 76.85V63.625L82.5389 73.808V87.033Z" fill="#FFC483" stroke="#D15900" stroke-miterlimit="10"/>
    <path d="M133.359 99.844L110.453 86.619V73.395L133.359 86.619V99.844Z" fill="#FFC483" stroke="#D15900" stroke-miterlimit="10"/>
    <path d="M121.906 126.292L102.58 115.134V101.91L121.906 113.068V126.292Z" fill="#C3ADF7" stroke="#341A6E" stroke-miterlimit="10"/>
    <path d="M101.865 60.171L90.4121 53.558V50.252L101.865 56.865V60.171Z" fill="#1B9117"/>
    <path d="M84.6868 50.2518L67.5078 40.3338V37.0278L84.6868 46.9458V50.2518Z" fill="#949494"/>
    <path d="M90.4128 70.0886L67.5078 56.8646V53.5576L90.4128 66.7826V70.0886Z" fill="#949494"/>
    <path d="M107.591 80.0069L96.1387 73.3949V70.0889L107.591 76.7009V80.0069Z" fill="#949494"/>
    <path d="M130.497 93.2318L113.318 83.3128V80.0068L130.497 89.9248V93.2318Z" fill="#D15900"/>
    <path d="M78.9608 80.0069L67.5078 73.3949V70.0889L78.9608 76.7009V80.0069Z" fill="#D15900"/>
    <path d="M130.497 109.762L84.6855 83.3128V80.0068L130.497 106.456V109.762Z" fill="#949494"/>
    <path d="M124.77 119.68L130.497 122.986V126.292L124.77 122.986V119.68Z" fill="#949494"/>
    <path d="M104.729 108.109L119.045 116.374V119.68L104.729 111.415V108.109Z" fill="#341A6E"/>
    <path d="M67.5078 86.6187L99.0028 104.803V108.109L67.5078 89.9247V86.6187Z" fill="#949494"/>
    <path d="M130.496 76.7009L107.59 63.4769V60.1709L130.496 73.3949V76.7009Z" fill="#949494"/>
    <defs>
        <radialGradient id="paint0_radial" cx="0" cy="0" r="1" gradientUnits="userSpaceOnUse" gradientTransform="translate(148.435 69.7339) rotate(105) scale(7.60808 17.12)">
            <stop stop-opacity="0.15"/>
            <stop offset="1" stop-opacity="0"/>
        </radialGradient>
        <radialGradient id="paint1_radial" cx="0" cy="0" r="1" gradientUnits="userSpaceOnUse" gradientTransform="translate(99.7998 115.721) rotate(90) scale(14.9129 32.1474)">
            <stop stop-opacity="0.15"/>
            <stop offset="1" stop-opacity="0"/>
        </radialGradient>
    </defs>
</svg>
