<?xml version="1.0" encoding="UTF-8"?>
<svg xmlns="http://www.w3.org/2000/svg" version="1.1" viewBox="0 0 1184 605">
  <!-- Generator: Adobe Illustrator 30.2.1, SVG Export Plug-In . SVG Version: 2.1.1 Build 1)  -->
  <defs>
    <style>
      .st0 {
        fill: #fff;
      }

      .st1 {
        fill: #c2b6e0;
      }

      .st2 {
        fill: #9ec5e5;
      }

      .st3 {
        fill: #c2dad3;
      }

      .st4 {
        fill: none;
        stroke: #000;
        stroke-miterlimit: 10;
        stroke-width: 3px;
      }
    </style>
  </defs>
  <rect class="st0" width="1184" height="605"/>
  <g id="Layer_1">
    <g>
      <line class="st4" x1="415.05" y1="140.91" x2="582.01" y2="299.38"/>
      <path d="M407.7,149.48c-4.52-4.29-4.7-11.43-.42-15.95s11.43-4.7,15.95-.42c4.52,4.29,4.7,11.43.42,15.95-4.29,4.52-11.43,4.7-15.95.42Z"/>
    </g>
    <g>
      <line class="st4" x1="440.24" y1="444.72" x2="582.01" y2="299.38"/>
      <circle cx="440.63" cy="444.32" r="11.28" transform="translate(-103.67 135.6) rotate(-15.68)"/>
    </g>
    <rect class="st1" x="197.61" y="40.6" width="200" height="200"/>
    <g>
      <path d="M220.31,111.4l7.03-19.61h5.24l6.86,19.61h-4.65l-1.35-3.92h-7.19l-1.33,3.92h-4.61ZM227.26,103.87h5.13l-2.09-6.85c-.07-.25-.14-.47-.21-.68-.06-.21-.13-.44-.19-.72h-.11c-.05.23-.11.45-.18.67-.06.22-.14.46-.22.71l-2.13,6.86Z"/>
      <path d="M254.64,111.39h-4.32v-1.78h-.05c-.44.64-1.05,1.15-1.84,1.54-.79.39-1.58.58-2.37.58-1.62,0-2.85-.49-3.68-1.48s-1.25-2.37-1.25-4.17v-8.7h4.31v8.04c0,.89.19,1.61.57,2.14s.95.8,1.71.8,1.38-.28,1.87-.85c.49-.56.74-1.28.74-2.15v-7.98h4.32v14Z"/>
      <path d="M267.38,110.41c-.43.39-.96.71-1.59.96s-1.31.38-2.05.38c-1.6,0-2.79-.37-3.57-1.11-.77-.74-1.16-1.84-1.16-3.31v-6.74h-2.27v-3.19h2.27v-3.57l4.31-.77v4.33h3.36v3.19h-3.36v6.71c0,.43.09.75.28.97.19.22.45.33.79.33.2,0,.4-.03.61-.1s.42-.21.65-.42l1.74,2.32Z"/>
      <path d="M282.98,111.4h-4.31v-8.07c0-.94-.19-1.66-.58-2.16-.39-.5-.94-.75-1.66-.75-.77,0-1.39.28-1.86.85-.47.57-.71,1.28-.71,2.15v7.98h-4.32v-20.73h4.32v8.48h.05c.45-.61,1.08-1.11,1.89-1.5.81-.39,1.62-.59,2.42-.59,1.49,0,2.66.47,3.5,1.41.84.94,1.26,2.35,1.26,4.22v8.71Z"/>
      <path d="M298.71,105.63h-9.13c.06.9.38,1.62.94,2.15s1.3.8,2.21.8c.56,0,1.06-.14,1.52-.41.46-.27.87-.68,1.24-1.23l3.17,1.8c-.8,1.04-1.7,1.8-2.69,2.28-.99.48-2.1.72-3.31.72-2.32,0-4.12-.63-5.41-1.88-1.29-1.25-1.94-3-1.94-5.24s.67-4.17,2.02-5.52c1.35-1.36,3.01-2.04,4.98-2.04s3.62.61,4.74,1.82c1.12,1.21,1.67,3.04,1.67,5.47v1.29ZM294.7,102.9c0-.96-.2-1.67-.61-2.15-.41-.48-.95-.72-1.63-.72-.82,0-1.48.27-1.99.82s-.81,1.23-.92,2.05h5.15Z"/>
      <path d="M314.87,111.4h-4.31v-8.04c0-.89-.19-1.61-.57-2.14s-.95-.8-1.71-.8-1.38.28-1.87.85c-.49.57-.74,1.28-.74,2.15v7.98h-4.32v-14h4.32v1.78h.05c.46-.64,1.09-1.15,1.9-1.54.81-.39,1.63-.58,2.45-.58,1.58,0,2.77.49,3.58,1.48.81.98,1.22,2.37,1.22,4.17v8.7Z"/>
      <path d="M327.39,110.41c-.43.39-.96.71-1.59.96s-1.31.38-2.05.38c-1.6,0-2.79-.37-3.57-1.11-.77-.74-1.16-1.84-1.16-3.31v-6.74h-2.27v-3.19h2.27v-3.57l4.31-.77v4.33h3.36v3.19h-3.36v6.71c0,.43.09.75.28.97.19.22.45.33.79.33.2,0,.4-.03.61-.1s.42-.21.65-.42l1.74,2.32Z"/>
      <path d="M331.66,95.57c-.75,0-1.36-.23-1.83-.69-.47-.46-.71-1.03-.71-1.72s.24-1.29.71-1.74c.47-.45,1.08-.67,1.83-.67s1.37.22,1.84.67c.47.45.7,1.03.7,1.74s-.23,1.29-.7,1.74c-.47.45-1.08.67-1.84.67ZM333.82,111.4h-4.32v-14h4.32v14Z"/>
      <path d="M349.83,108.16c-.63,1.18-1.48,2.07-2.56,2.67s-2.32.91-3.71.91c-2.24,0-3.99-.64-5.26-1.93-1.26-1.29-1.89-2.98-1.89-5.07,0-2.38.7-4.25,2.09-5.62s3.21-2.05,5.44-2.05c1.38,0,2.59.32,3.64.96,1.05.64,1.75,1.58,2.12,2.81l-3.5,1.3c-.27-.59-.6-1.03-.99-1.31-.39-.28-.86-.42-1.43-.42-.85,0-1.56.33-2.13.98-.57.65-.85,1.67-.85,3.06,0,1.31.27,2.27.81,2.88.54.61,1.22.92,2.05.92.63,0,1.16-.13,1.59-.4.43-.27.83-.7,1.2-1.29l3.39,1.6Z"/>
      <path d="M354.49,95.57c-.75,0-1.36-.23-1.83-.69-.47-.46-.71-1.03-.71-1.72s.24-1.29.71-1.74c.47-.45,1.08-.67,1.83-.67s1.37.22,1.84.67c.47.45.7,1.03.7,1.74s-.23,1.29-.7,1.74c-.47.45-1.08.67-1.84.67ZM356.65,111.4h-4.32v-14h4.32v14Z"/>
      <path d="M369.44,110.41c-.43.39-.96.71-1.59.96s-1.31.38-2.05.38c-1.6,0-2.79-.37-3.57-1.11-.77-.74-1.16-1.84-1.16-3.31v-6.74h-2.27v-3.19h2.27v-3.57l4.31-.77v4.33h3.36v3.19h-3.36v6.71c0,.43.09.75.28.97.19.22.45.33.79.33.2,0,.4-.03.61-.1s.42-.21.65-.42l1.74,2.32Z"/>
      <path d="M385.58,97.4l-6.04,16.06c-.55,1.45-1.28,2.56-2.21,3.34-.93.78-2.1,1.17-3.52,1.17-.67,0-1.31-.08-1.94-.24-.63-.16-1.2-.42-1.72-.77l1.98-2.79c.3.21.54.35.73.41.19.06.38.1.58.1.41,0,.75-.09,1.02-.28.27-.19.49-.48.68-.88l.77-1.71-5.52-14.41h4.68l2.65,8.3c.1.31.18.61.25.9.06.29.13.61.21.98h.05c.07-.36.15-.67.23-.94.08-.27.17-.57.27-.91l2.46-8.33h4.4Z"/>
    </g>
    <g>
      <path d="M249.23,151.29h-9.43v-16.8h9.06v2.39h-6.27v4.72h5.81v2.38h-5.81v4.92h6.64v2.39Z"/>
      <path d="M250.92,149.31l1.69-1.42c.42.59.88,1,1.37,1.24s1.05.36,1.66.36,1.09-.13,1.45-.4.55-.65.55-1.15c0-.38-.17-.7-.5-.97s-.86-.48-1.58-.61c-1.55-.29-2.62-.74-3.23-1.35s-.91-1.37-.91-2.27c0-1.12.4-2.03,1.21-2.71s1.83-1.03,3.07-1.03c.87,0,1.67.15,2.4.46s1.31.77,1.74,1.41l-1.66,1.37c-.34-.4-.7-.69-1.1-.88s-.87-.29-1.41-.29-1.01.12-1.33.36-.49.58-.49,1.02c0,.39.15.7.46.93s.9.42,1.78.59c1.34.23,2.35.66,3.01,1.27s1,1.44,1,2.48c0,1.2-.43,2.15-1.29,2.83s-1.93,1.03-3.19,1.03c-1.08,0-2.02-.2-2.81-.6s-1.43-.95-1.89-1.66Z"/>
      <path d="M269.72,150.48c-.36.34-.78.61-1.25.8s-1.01.28-1.61.28c-1.14,0-2-.29-2.58-.86s-.87-1.42-.87-2.53v-6.75h-2.02v-2.13h2.02v-2.94l2.72-.48v3.42h3.06v2.13h-3.06v6.66c0,.48.1.83.29,1.05s.48.34.87.34c.2,0,.4-.04.6-.12s.4-.23.62-.46l1.22,1.58Z"/>
      <path d="M280.99,151.29h-2.64v-1.49h-.05c-.42.58-.94,1.02-1.55,1.32s-1.29.45-2.04.45c-1.11,0-2.02-.32-2.72-.95s-1.06-1.46-1.06-2.48c0-1.1.35-1.99,1.06-2.65s1.72-1.08,3.04-1.22l3.33-.38v-.57c0-.74-.21-1.3-.62-1.67s-.96-.56-1.63-.56-1.22.15-1.68.45-.83.72-1.12,1.28l-2.04-1.04c.41-.8,1.05-1.46,1.92-1.98s1.91-.77,3.12-.77c1.52,0,2.67.4,3.47,1.19s1.2,1.94,1.2,3.45v7.64ZM278.37,146.41v-.66l-2.89.32c-.66.07-1.15.25-1.45.55s-.46.7-.46,1.2.17.92.52,1.24.8.47,1.35.47c.88,0,1.58-.29,2.12-.88s.81-1.33.81-2.23Z"/>
      <path d="M286.85,149.99h-.05v1.3h-2.73v-17.77h2.73v7.42h.05c.45-.62,1.02-1.1,1.7-1.44s1.46-.5,2.34-.5c1.6,0,2.85.53,3.73,1.6s1.33,2.53,1.33,4.39c0,1.99-.49,3.59-1.46,4.78s-2.31,1.79-4.01,1.79c-.8,0-1.51-.13-2.13-.4s-1.12-.66-1.51-1.18ZM286.77,144.77v1.46c0,.88.29,1.62.87,2.22s1.33.9,2.25.9c1.05,0,1.85-.38,2.42-1.14s.85-1.81.85-3.15c0-1.23-.27-2.17-.8-2.84s-1.27-1-2.21-1c-.99,0-1.8.33-2.43,1s-.94,1.52-.94,2.55Z"/>
      <path d="M298.49,151.29v-17.77h2.73v17.77h-2.73Z"/>
      <path d="M305.9,137.1c-.52,0-.94-.17-1.26-.5s-.49-.73-.49-1.2.16-.88.49-1.21.74-.49,1.26-.49.95.16,1.27.49.49.73.49,1.21-.16.89-.49,1.21-.75.49-1.27.49ZM307.26,151.29h-2.73v-12h2.73v12Z"/>
      <path d="M309.81,149.31l1.69-1.42c.42.59.88,1,1.37,1.24s1.05.36,1.66.36,1.09-.13,1.45-.4.55-.65.55-1.15c0-.38-.17-.7-.5-.97s-.86-.48-1.58-.61c-1.55-.29-2.62-.74-3.23-1.35s-.91-1.37-.91-2.27c0-1.12.4-2.03,1.21-2.71s1.83-1.03,3.07-1.03c.87,0,1.67.15,2.4.46s1.31.77,1.74,1.41l-1.66,1.37c-.34-.4-.7-.69-1.1-.88s-.87-.29-1.41-.29-1.01.12-1.33.36-.49.58-.49,1.02c0,.39.15.7.46.93s.9.42,1.78.59c1.34.23,2.35.66,3.01,1.27s1,1.44,1,2.48c0,1.2-.43,2.15-1.29,2.83s-1.93,1.03-3.19,1.03c-1.08,0-2.02-.2-2.81-.6s-1.43-.95-1.89-1.66Z"/>
      <path d="M332.22,151.29h-2.72v-7.03c0-1.01-.2-1.77-.59-2.27s-.98-.76-1.76-.76c-.85,0-1.54.3-2.07.91s-.79,1.38-.79,2.32v6.83h-2.73v-17.77h2.73v7.38h.05c.42-.6.97-1.07,1.64-1.4s1.4-.5,2.18-.5c1.29,0,2.29.41,3,1.24s1.07,2.04,1.07,3.65v7.39Z"/>
      <path d="M345.55,145.96h-8.29c.02,1.16.34,2.03.94,2.61s1.35.87,2.23.87c.62,0,1.18-.15,1.66-.44s.89-.73,1.23-1.31l2.1,1.14c-.55.88-1.24,1.55-2.09,2.03s-1.85.71-2.99.71c-1.77,0-3.18-.53-4.24-1.59s-1.59-2.59-1.59-4.58.54-3.44,1.63-4.62,2.46-1.77,4.1-1.77,2.99.5,3.92,1.51,1.39,2.47,1.39,4.38v1.05ZM342.92,144.01c0-.94-.23-1.66-.7-2.18s-1.11-.77-1.92-.77-1.54.28-2.07.85-.85,1.27-.96,2.1h5.66Z"/>
      <path d="M347.29,149.31l1.69-1.42c.42.59.88,1,1.37,1.24s1.05.36,1.66.36,1.09-.13,1.45-.4.55-.65.55-1.15c0-.38-.17-.7-.5-.97s-.86-.48-1.58-.61c-1.55-.29-2.62-.74-3.23-1.35s-.91-1.37-.91-2.27c0-1.12.4-2.03,1.21-2.71s1.83-1.03,3.07-1.03c.87,0,1.67.15,2.4.46s1.31.77,1.74,1.41l-1.66,1.37c-.34-.4-.7-.69-1.1-.88s-.87-.29-1.41-.29-1.01.12-1.33.36-.49.58-.49,1.02c0,.39.15.7.46.93s.9.42,1.78.59c1.34.23,2.35.66,3.01,1.27s1,1.44,1,2.48c0,1.2-.43,2.15-1.29,2.83s-1.93,1.03-3.19,1.03c-1.08,0-2.02-.2-2.81-.6s-1.43-.95-1.89-1.66Z"/>
      <path d="M242.69,180.09v-17.77h2.73v17.77h-2.73Z"/>
      <path d="M258.99,174.76h-8.29c.02,1.16.34,2.03.94,2.61s1.35.87,2.23.87c.62,0,1.18-.15,1.66-.44s.89-.73,1.23-1.31l2.1,1.14c-.55.88-1.24,1.55-2.09,2.03s-1.85.71-2.99.71c-1.77,0-3.18-.53-4.24-1.59s-1.59-2.59-1.59-4.58.54-3.44,1.63-4.62,2.46-1.77,4.1-1.77,2.99.5,3.92,1.51,1.39,2.47,1.39,4.38v1.05ZM256.36,172.81c0-.94-.23-1.66-.7-2.18s-1.11-.77-1.92-.77-1.54.28-2.07.85-.85,1.27-.96,2.1h5.66Z"/>
      <path d="M272.6,179.4c0,2.02-.55,3.59-1.65,4.69s-2.62,1.65-4.56,1.65c-1.24,0-2.32-.22-3.25-.66s-1.7-1.07-2.32-1.89l1.98-1.48c.45.63.97,1.11,1.54,1.42s1.27.47,2.08.47c1.09,0,1.93-.31,2.54-.94s.91-1.55.91-2.79v-1.38h-.05c-.44.62-.97,1.09-1.6,1.41s-1.41.48-2.34.48c-1.56,0-2.82-.53-3.76-1.58s-1.42-2.52-1.42-4.4c0-2.06.54-3.68,1.62-4.84s2.44-1.75,4.07-1.75c.71,0,1.37.13,1.97.4s1.09.65,1.45,1.15h.05v-1.27h2.73v11.31ZM269.89,174.51v-1.39c0-.86-.29-1.59-.87-2.19s-1.32-.9-2.24-.9c-1.02,0-1.82.37-2.41,1.1s-.89,1.78-.89,3.14c0,1.21.28,2.16.83,2.85s1.31,1.04,2.29,1.04,1.77-.34,2.38-1.01.91-1.55.91-2.64Z"/>
      <path d="M277.26,165.9c-.52,0-.94-.17-1.26-.5s-.49-.73-.49-1.2.16-.88.49-1.21.74-.49,1.26-.49.95.16,1.27.49.49.73.49,1.21-.16.89-.49,1.21-.75.49-1.27.49ZM278.62,180.09h-2.73v-12h2.73v12Z"/>
      <path d="M288.98,179.28c-.36.34-.78.61-1.25.8s-1.01.28-1.61.28c-1.14,0-2-.29-2.58-.86s-.87-1.42-.87-2.53v-6.75h-2.02v-2.13h2.02v-2.94l2.72-.48v3.42h3.06v2.13h-3.06v6.66c0,.48.1.83.29,1.05s.48.34.87.34c.2,0,.4-.04.6-.12s.4-.23.62-.46l1.22,1.58Z"/>
      <path d="M292.46,165.9c-.52,0-.94-.17-1.26-.5s-.49-.73-.49-1.2.16-.88.49-1.21.74-.49,1.26-.49.95.16,1.27.49.49.73.49,1.21-.16.89-.49,1.21-.75.49-1.27.49ZM293.82,180.09h-2.73v-12h2.73v12Z"/>
      <path d="M315.08,180.09h-2.72v-6.91c0-1.09-.19-1.88-.56-2.39s-.97-.76-1.79-.76c-.73,0-1.33.32-1.82.96s-.73,1.41-.73,2.33v6.79h-2.72v-7.03c0-1.01-.2-1.77-.59-2.27s-.98-.76-1.77-.76-1.36.3-1.83.91-.7,1.4-.7,2.4v6.76h-2.73v-12h2.73v1.62h.05c.41-.6.94-1.07,1.59-1.4s1.37-.5,2.15-.5c.83,0,1.54.19,2.13.58s1.02.9,1.27,1.53c.48-.71,1.07-1.24,1.75-1.59s1.47-.52,2.35-.52c1.25,0,2.22.41,2.91,1.22s1.03,2.02,1.03,3.63v7.43Z"/>
      <path d="M327.32,180.09h-2.64v-1.49h-.05c-.42.58-.94,1.02-1.55,1.32s-1.29.45-2.04.45c-1.11,0-2.02-.32-2.72-.95s-1.06-1.46-1.06-2.48c0-1.1.35-1.99,1.06-2.65s1.72-1.08,3.04-1.22l3.33-.38v-.57c0-.74-.21-1.3-.62-1.67s-.96-.56-1.63-.56-1.22.15-1.68.45-.83.72-1.12,1.28l-2.04-1.04c.41-.8,1.05-1.46,1.92-1.98s1.91-.77,3.12-.77c1.52,0,2.67.4,3.47,1.19s1.2,1.94,1.2,3.45v7.64ZM324.7,175.21v-.66l-2.89.32c-.66.07-1.15.25-1.45.55s-.46.7-.46,1.2.17.92.52,1.24.8.47,1.35.47c.88,0,1.58-.29,2.12-.88s.81-1.33.81-2.23Z"/>
      <path d="M340.63,177.85c-.53.84-1.22,1.47-2.06,1.89s-1.77.63-2.78.63c-1.94,0-3.45-.56-4.53-1.67s-1.62-2.58-1.62-4.4c0-2.01.58-3.59,1.73-4.75s2.65-1.74,4.49-1.74c1.04,0,1.98.22,2.81.66s1.47,1.09,1.9,1.96l-2.13,1.08c-.38-.54-.78-.92-1.2-1.14s-.92-.33-1.48-.33c-.97,0-1.77.36-2.4,1.08s-.94,1.72-.94,3.01.31,2.26.93,2.95,1.46,1.04,2.5,1.04c.53,0,1.02-.11,1.47-.33s.85-.6,1.21-1.13l2.1,1.21Z"/>
      <path d="M353.98,168.09l-5.58,14.39c-.41,1.07-.97,1.88-1.67,2.43s-1.55.83-2.55.83c-.48,0-.94-.05-1.37-.16s-.83-.27-1.21-.5l1.18-1.92c.24.14.46.24.66.3s.4.09.61.09c.37,0,.68-.09.94-.28s.5-.52.71-1l.88-2.04-4.71-12.14h2.98l2.75,7.96c.09.24.15.46.2.64s.1.42.16.69h.06c.05-.27.11-.5.17-.68s.13-.39.21-.63l2.78-7.98h2.8Z"/>
    </g>
    <rect class="st2" x="209.22" y="358.06" width="176.78" height="176.78" transform="translate(-228.52 341.2) rotate(-45)"/>
    <g>
      <path d="M249.9,422.81h-4.42v-19.61h4.42v19.61Z"/>
      <path d="M267.18,422.81h-4.31v-8.04c0-.89-.19-1.61-.57-2.14s-.95-.8-1.71-.8-1.38.28-1.87.85-.74,1.28-.74,2.15v7.98h-4.32v-14h4.32v1.78h.05c.46-.64,1.09-1.15,1.9-1.54.81-.39,1.63-.58,2.45-.58,1.58,0,2.77.49,3.58,1.48s1.22,2.37,1.22,4.17v8.7Z"/>
      <path d="M279.7,421.81c-.43.39-.96.71-1.59.96s-1.31.38-2.05.38c-1.6,0-2.79-.37-3.57-1.11s-1.16-1.84-1.16-3.31v-6.74h-2.27v-3.19h2.27v-3.57l4.31-.77v4.33h3.36v3.19h-3.36v6.71c0,.43.09.75.28.97s.45.33.79.33c.2,0,.4-.03.61-.1s.42-.21.65-.42l1.74,2.32Z"/>
      <path d="M294.44,417.04h-9.13c.06.9.38,1.62.94,2.15s1.3.8,2.21.8c.56,0,1.06-.14,1.52-.41s.87-.68,1.24-1.23l3.17,1.8c-.8,1.04-1.7,1.8-2.69,2.28s-2.1.72-3.31.72c-2.32,0-4.12-.63-5.41-1.88-1.29-1.25-1.94-3-1.94-5.24s.67-4.17,2.02-5.52,3.01-2.04,4.98-2.04,3.62.61,4.74,1.82,1.67,3.04,1.67,5.47v1.29ZM290.44,414.31c0-.96-.2-1.67-.61-2.15s-.95-.72-1.63-.72c-.82,0-1.48.27-1.99.82s-.81,1.23-.92,2.05h5.15Z"/>
      <path d="M311.02,421.65c0,2.41-.71,4.3-2.13,5.67s-3.4,2.06-5.94,2.06c-1.58,0-2.9-.27-3.96-.8s-1.94-1.27-2.63-2.21l2.99-2.17c.44.63.94,1.12,1.5,1.47.56.35,1.28.53,2.17.53,1.13,0,2.03-.33,2.69-1s.99-1.62.99-2.86v-1.09h-.05c-.5.64-1.12,1.12-1.87,1.44s-1.61.48-2.6.48c-1.68,0-3.08-.6-4.22-1.81-1.14-1.21-1.71-2.92-1.71-5.13,0-2.47.67-4.38,2-5.72,1.33-1.34,2.9-2.02,4.72-2.02.7,0,1.39.14,2.05.41s1.21.68,1.64,1.23h.05v-1.3h4.32v12.84ZM306.76,416.08v-1.11c0-.87-.28-1.61-.83-2.22s-1.27-.92-2.15-.92c-.98,0-1.75.37-2.31,1.11s-.83,1.75-.83,3.05c0,1.19.26,2.13.78,2.8s1.28,1,2.27,1c.85,0,1.57-.33,2.17-.98s.9-1.56.9-2.72Z"/>
      <path d="M323.33,412.58c-.3-.1-.6-.17-.89-.23-.29-.05-.58-.08-.86-.08-.86,0-1.55.34-2.09,1.03-.54.69-.81,1.62-.81,2.81v6.69h-4.32v-14h4.32v2.49h.05c.34-.91.82-1.59,1.44-2.05s1.36-.68,2.23-.68c.34,0,.66.03.96.08.31.05.61.13.91.25l-.94,3.69Z"/>
      <path d="M328.11,406.98c-.75,0-1.36-.23-1.83-.69-.47-.46-.71-1.03-.71-1.72s.24-1.29.71-1.74,1.08-.67,1.83-.67,1.37.22,1.84.67.7,1.03.7,1.74-.23,1.29-.7,1.74-1.08.67-1.84.67ZM330.27,422.81h-4.32v-14h4.32v14Z"/>
      <path d="M343.07,421.81c-.43.39-.96.71-1.59.96s-1.31.38-2.05.38c-1.6,0-2.79-.37-3.57-1.11s-1.16-1.84-1.16-3.31v-6.74h-2.27v-3.19h2.27v-3.57l4.31-.77v4.33h3.36v3.19h-3.36v6.71c0,.43.09.75.28.97s.45.33.79.33c.2,0,.4-.03.61-.1s.42-.21.65-.42l1.74,2.32Z"/>
      <path d="M359.2,408.81l-6.04,16.06c-.55,1.45-1.28,2.56-2.21,3.34s-2.1,1.17-3.52,1.17c-.67,0-1.31-.08-1.94-.24-.63-.16-1.2-.42-1.72-.77l1.98-2.79c.3.21.54.35.73.41s.38.1.58.1c.41,0,.75-.09,1.02-.28.27-.19.49-.48.68-.88l.77-1.71-5.52-14.41h4.68l2.65,8.3c.1.31.18.61.25.9s.13.61.21.98h.05c.07-.36.15-.67.23-.94.08-.27.17-.57.27-.91l2.46-8.33h4.4Z"/>
    </g>
    <g>
      <path d="M263.31,458.55c-.57,1.17-1.44,2.13-2.61,2.88s-2.58,1.12-4.22,1.12c-2.48,0-4.49-.75-6.01-2.25s-2.28-3.53-2.28-6.09c0-2.71.76-4.89,2.29-6.54s3.5-2.48,5.91-2.48c1.64,0,3.03.37,4.18,1.11s2.01,1.78,2.58,3.11l-2.45.96c-.44-.91-1.01-1.58-1.72-2.02s-1.56-.66-2.56-.66c-1.55,0-2.82.59-3.81,1.76s-1.49,2.7-1.49,4.58.49,3.32,1.48,4.39,2.31,1.62,3.97,1.62c1.04,0,1.92-.23,2.64-.7s1.28-1.11,1.69-1.94l2.41,1.15Z"/>
      <path d="M271.4,462.55c-1.9,0-3.41-.56-4.52-1.68s-1.68-2.62-1.68-4.51c0-1.91.6-3.46,1.78-4.62s2.71-1.75,4.59-1.75,3.38.57,4.48,1.72,1.64,2.63,1.64,4.45-.58,3.39-1.73,4.59-2.67,1.8-4.56,1.8ZM271.5,460.34c1.08,0,1.91-.37,2.51-1.11s.89-1.74.89-2.99-.3-2.19-.9-2.92-1.43-1.11-2.5-1.11-1.93.38-2.57,1.14-.96,1.75-.96,2.96.32,2.24.95,2.96,1.49,1.07,2.58,1.07Z"/>
      <path d="M290.92,462.27h-2.72v-7.02c0-.99-.2-1.75-.6-2.27s-.99-.78-1.77-.78c-.85,0-1.54.3-2.08.91s-.8,1.38-.8,2.31v6.84h-2.73v-12h2.73v1.63h.05c.42-.61.97-1.08,1.65-1.41s1.41-.5,2.2-.5c1.33,0,2.34.42,3.04,1.27s1.04,2.05,1.04,3.62v7.39Z"/>
      <path d="M300.47,446.85c-.2-.13-.41-.24-.63-.31s-.45-.11-.71-.11c-.52,0-.91.16-1.18.47s-.4.79-.4,1.42v1.95h2.78v2.13h-2.78v9.87h-2.72v-9.87h-2.04v-2.13h2.04v-1.97c0-1.25.37-2.24,1.11-2.97s1.77-1.1,3.09-1.1c.45,0,.88.05,1.31.16s.84.27,1.25.49l-1.11,1.97Z"/>
      <path d="M303.58,448.08c-.52,0-.94-.17-1.26-.5s-.49-.73-.49-1.2.16-.88.49-1.21.74-.49,1.26-.49.95.16,1.27.49.49.73.49,1.21-.16.89-.49,1.21-.75.49-1.27.49ZM304.94,462.27h-2.73v-12h2.73v12Z"/>
      <path d="M315.08,452.72c-.22-.09-.44-.15-.67-.21s-.47-.08-.73-.08c-.8,0-1.46.36-1.96,1.08s-.75,1.66-.75,2.81v5.94h-2.73v-12h2.73v2.17h.05c.28-.77.7-1.35,1.24-1.76s1.18-.62,1.9-.62c.3,0,.59.02.84.07s.54.14.83.27l-.75,2.32Z"/>
      <path d="M335.48,462.27h-2.72v-6.91c0-1.09-.19-1.88-.56-2.39s-.97-.76-1.79-.76c-.73,0-1.33.32-1.82.96s-.73,1.41-.73,2.33v6.79h-2.72v-7.03c0-1.01-.2-1.77-.59-2.27s-.98-.76-1.77-.76-1.36.3-1.83.91-.7,1.4-.7,2.4v6.76h-2.73v-12h2.73v1.62h.05c.41-.6.94-1.07,1.59-1.4s1.37-.5,2.15-.5c.83,0,1.54.19,2.13.58s1.02.9,1.27,1.53c.48-.71,1.07-1.24,1.75-1.59s1.47-.52,2.35-.52c1.25,0,2.22.41,2.91,1.22s1.03,2.02,1.03,3.63v7.43Z"/>
      <path d="M337.81,460.29l1.69-1.42c.42.59.88,1,1.37,1.24s1.05.36,1.66.36,1.09-.13,1.45-.4.55-.65.55-1.15c0-.38-.17-.7-.5-.97s-.86-.48-1.58-.61c-1.55-.29-2.62-.74-3.23-1.35s-.91-1.37-.91-2.27c0-1.12.4-2.03,1.21-2.71s1.83-1.03,3.07-1.03c.87,0,1.67.15,2.4.46s1.31.77,1.74,1.41l-1.66,1.37c-.34-.4-.7-.69-1.1-.88s-.87-.29-1.41-.29-1.01.12-1.33.36-.49.58-.49,1.02c0,.39.15.7.46.93s.9.42,1.78.59c1.34.23,2.35.66,3.01,1.27s1,1.44,1,2.48c0,1.2-.43,2.15-1.29,2.83s-1.93,1.03-3.19,1.03c-1.08,0-2.02-.2-2.81-.6s-1.43-.95-1.89-1.66Z"/>
      <path d="M244.75,489.09l1.69-1.42c.42.59.88,1,1.37,1.24s1.05.36,1.66.36,1.09-.13,1.45-.4.55-.65.55-1.15c0-.38-.17-.7-.5-.97s-.86-.48-1.58-.61c-1.55-.29-2.62-.74-3.23-1.35s-.91-1.37-.91-2.27c0-1.12.4-2.03,1.21-2.71s1.83-1.03,3.07-1.03c.87,0,1.67.15,2.4.46s1.31.77,1.74,1.41l-1.66,1.37c-.34-.4-.7-.69-1.1-.88s-.87-.29-1.41-.29-1.01.12-1.33.36-.49.58-.49,1.02c0,.39.15.7.46.93s.9.42,1.78.59c1.34.23,2.35.66,3.01,1.27s1,1.44,1,2.48c0,1.2-.43,2.15-1.29,2.83s-1.93,1.03-3.19,1.03c-1.08,0-2.02-.2-2.81-.6s-1.43-.95-1.89-1.66Z"/>
      <path d="M263.55,490.26c-.36.34-.78.61-1.25.8s-1.01.28-1.61.28c-1.14,0-2-.29-2.58-.86s-.87-1.42-.87-2.53v-6.75h-2.02v-2.13h2.02v-2.94l2.72-.48v3.42h3.06v2.13h-3.06v6.66c0,.48.1.83.29,1.05s.48.34.87.34c.2,0,.4-.04.6-.12s.4-.23.62-.46l1.22,1.58Z"/>
      <path d="M274.82,491.07h-2.64v-1.49h-.05c-.42.58-.94,1.02-1.55,1.32s-1.29.45-2.04.45c-1.11,0-2.02-.32-2.72-.95s-1.06-1.46-1.06-2.48c0-1.1.35-1.99,1.06-2.65s1.72-1.08,3.04-1.22l3.33-.38v-.57c0-.74-.21-1.3-.62-1.67s-.96-.56-1.63-.56-1.22.15-1.68.45-.83.72-1.12,1.28l-2.04-1.04c.41-.8,1.05-1.46,1.92-1.98s1.91-.77,3.12-.77c1.52,0,2.67.4,3.47,1.19s1.2,1.94,1.2,3.45v7.64ZM272.19,486.2v-.66l-2.89.32c-.66.07-1.15.25-1.45.55s-.46.7-.46,1.2.17.92.52,1.24.8.47,1.35.47c.88,0,1.58-.29,2.12-.88s.81-1.33.81-2.23Z"/>
      <path d="M288.6,491.07h-2.72v-7.02c0-.99-.2-1.75-.6-2.27s-.99-.78-1.77-.78c-.85,0-1.54.3-2.08.91s-.8,1.38-.8,2.31v6.84h-2.73v-12h2.73v1.63h.05c.42-.61.97-1.08,1.65-1.41s1.41-.5,2.2-.5c1.33,0,2.34.42,3.04,1.27s1.04,2.05,1.04,3.62v7.39Z"/>
      <path d="M300,489.41c-.44.64-.99,1.12-1.65,1.45s-1.42.49-2.26.49c-1.61,0-2.88-.53-3.8-1.6s-1.39-2.53-1.39-4.4c0-2.02.52-3.61,1.55-4.79s2.42-1.77,4.14-1.77c.75,0,1.43.15,2.03.45s1.06.67,1.38,1.12h.05v-7.05h2.73v17.77h-2.73v-1.66h-.05ZM293.67,485.25c0,1.22.28,2.17.83,2.86s1.32,1.03,2.3,1.03,1.8-.34,2.39-1.03.89-1.57.89-2.65v-1.37c0-.88-.29-1.61-.86-2.2s-1.32-.88-2.23-.88c-1.02,0-1.83.37-2.43,1.1s-.89,1.78-.89,3.14Z"/>
      <path d="M315.25,491.07h-2.64v-1.49h-.05c-.42.58-.94,1.02-1.55,1.32s-1.29.45-2.04.45c-1.11,0-2.02-.32-2.72-.95s-1.06-1.46-1.06-2.48c0-1.1.35-1.99,1.06-2.65s1.72-1.08,3.04-1.22l3.33-.38v-.57c0-.74-.21-1.3-.62-1.67s-.96-.56-1.63-.56-1.22.15-1.68.45-.83.72-1.12,1.28l-2.04-1.04c.41-.8,1.05-1.46,1.92-1.98s1.91-.77,3.12-.77c1.52,0,2.67.4,3.47,1.19s1.2,1.94,1.2,3.45v7.64ZM312.62,486.2v-.66l-2.89.32c-.66.07-1.15.25-1.45.55s-.46.7-.46,1.2.17.92.52,1.24.8.47,1.35.47c.88,0,1.58-.29,2.12-.88s.81-1.33.81-2.23Z"/>
      <path d="M325.17,481.52c-.22-.09-.44-.15-.67-.21s-.47-.08-.73-.08c-.8,0-1.46.36-1.96,1.08s-.75,1.66-.75,2.81v5.94h-2.73v-12h2.73v2.17h.05c.28-.77.7-1.35,1.24-1.76s1.18-.62,1.9-.62c.3,0,.59.02.84.07s.54.14.83.27l-.75,2.32Z"/>
      <path d="M335.94,489.41c-.44.64-.99,1.12-1.65,1.45s-1.42.49-2.26.49c-1.61,0-2.88-.53-3.8-1.6s-1.39-2.53-1.39-4.4c0-2.02.52-3.61,1.55-4.79s2.42-1.77,4.14-1.77c.75,0,1.43.15,2.03.45s1.06.67,1.38,1.12h.05v-7.05h2.73v17.77h-2.73v-1.66h-.05ZM329.62,485.25c0,1.22.28,2.17.83,2.86s1.32,1.03,2.3,1.03,1.8-.34,2.39-1.03.89-1.57.89-2.65v-1.37c0-.88-.29-1.61-.86-2.2s-1.32-.88-2.23-.88c-1.02,0-1.83.37-2.43,1.1s-.89,1.78-.89,3.14Z"/>
      <path d="M341.28,489.09l1.69-1.42c.42.59.88,1,1.37,1.24s1.05.36,1.66.36,1.09-.13,1.45-.4.55-.65.55-1.15c0-.38-.17-.7-.5-.97s-.86-.48-1.58-.61c-1.55-.29-2.62-.74-3.23-1.35s-.91-1.37-.91-2.27c0-1.12.4-2.03,1.21-2.71s1.83-1.03,3.07-1.03c.87,0,1.67.15,2.4.46s1.31.77,1.74,1.41l-1.66,1.37c-.34-.4-.7-.69-1.1-.88s-.87-.29-1.41-.29-1.01.12-1.33.36-.49.58-.49,1.02c0,.39.15.7.46.93s.9.42,1.78.59c1.34.23,2.35.66,3.01,1.27s1,1.44,1,2.48c0,1.2-.43,2.15-1.29,2.83s-1.93,1.03-3.19,1.03c-1.08,0-2.02-.2-2.81-.6s-1.43-.95-1.89-1.66Z"/>
    </g>
    <circle class="st3" cx="915.37" cy="302.5" r="123.74"/>
    <g>
      <path d="M892.68,259.52h-6.75v20.58h-5.7v-20.58h-6.75v-4.62h19.2v4.62Z"/>
      <path d="M904.2,266.96c-.39-.13-.77-.23-1.14-.29s-.74-.1-1.11-.1c-1.1,0-2,.44-2.69,1.33s-1.04,2.09-1.04,3.61v8.6h-5.55v-18h5.55v3.2h.07c.43-1.17,1.05-2.05,1.85-2.64s1.75-.88,2.87-.88c.43,0,.85.03,1.24.1s.78.17,1.17.33l-1.21,4.75Z"/>
      <path d="M924.01,280.09h-5.55v-2.29h-.07c-.56.82-1.35,1.48-2.36,1.98s-2.03.75-3.05.75c-2.09,0-3.67-.63-4.74-1.9s-1.61-3.05-1.61-5.36v-11.18h5.54v10.34c0,1.15.25,2.07.74,2.75s1.22,1.03,2.2,1.03,1.78-.36,2.41-1.09.95-1.65.95-2.76v-10.27h5.55v18Z"/>
      <path d="M927.15,277.8l2.62-3.38c.91.86,1.76,1.44,2.53,1.76s1.56.47,2.37.47,1.43-.14,1.85-.41.64-.68.64-1.22c0-.41-.21-.76-.62-1.04s-1.07-.48-1.99-.6c-2.39-.35-4.1-1.01-5.12-1.97s-1.53-2.21-1.53-3.76c0-1.7.62-3.12,1.87-4.27s2.94-1.72,5.07-1.72c1.27,0,2.46.18,3.59.53s2.09.88,2.88,1.6l-2.69,3.22c-.69-.52-1.34-.89-1.94-1.13s-1.23-.36-1.89-.36c-.74,0-1.27.13-1.61.4s-.5.64-.5,1.12c0,.41.21.76.63,1.04s1.17.48,2.23.6c2.11.25,3.71.84,4.81,1.78s1.64,2.28,1.64,4.02c0,1.85-.7,3.33-2.1,4.43s-3.18,1.65-5.33,1.65c-1.46,0-2.85-.23-4.15-.69s-2.4-1.14-3.29-2.06Z"/>
      <path d="M957.23,278.82c-.55.5-1.23.92-2.04,1.24s-1.69.48-2.64.48c-2.06,0-3.59-.47-4.59-1.42s-1.49-2.37-1.49-4.25v-8.67h-2.92v-4.1h2.92v-4.59l5.54-.98v5.57h4.32v4.1h-4.32v8.63c0,.55.12.97.36,1.25s.58.42,1.01.42c.26,0,.52-.04.78-.13s.54-.27.83-.54l2.23,2.99Z"/>
    </g>
    <g>
      <path d="M861.09,318.98h-10.86v-19.61h3.25v16.79h7.6v2.82Z"/>
      <path d="M869.62,319.31c-2.21,0-3.97-.65-5.28-1.96s-1.96-3.06-1.96-5.26c0-2.23.7-4.03,2.08-5.39s3.16-2.04,5.36-2.04,3.95.67,5.22,2.01,1.91,3.07,1.91,5.2-.67,3.95-2.02,5.35-3.12,2.1-5.33,2.1ZM869.74,316.73c1.26,0,2.23-.43,2.93-1.29s1.04-2.03,1.04-3.49-.35-2.55-1.05-3.41-1.67-1.29-2.92-1.29-2.25.44-2.99,1.33-1.12,2.04-1.12,3.45.37,2.62,1.11,3.45,1.74,1.25,3.01,1.25Z"/>
      <path d="M892.4,318.98h-3.17v-8.19c0-1.16-.23-2.04-.7-2.65s-1.15-.91-2.06-.91c-.99,0-1.8.36-2.43,1.07s-.94,1.61-.94,2.69v7.98h-3.19v-14h3.19v1.9h.05c.49-.71,1.13-1.26,1.92-1.65s1.64-.58,2.56-.58c1.55,0,2.73.49,3.54,1.48s1.22,2.39,1.22,4.22v8.63Z"/>
      <path d="M908.95,318.17c0,2.36-.64,4.18-1.92,5.47s-3.06,1.93-5.33,1.93c-1.45,0-2.71-.26-3.79-.77s-1.98-1.25-2.71-2.21l2.31-1.72c.53.74,1.13,1.29,1.8,1.65s1.48.55,2.43.55c1.27,0,2.25-.36,2.96-1.09s1.06-1.81,1.06-3.25v-1.61h-.05c-.51.72-1.13,1.27-1.87,1.64s-1.64.56-2.73.56c-1.82,0-3.29-.61-4.39-1.84s-1.65-2.94-1.65-5.13c0-2.41.63-4.29,1.89-5.65s2.85-2.04,4.75-2.04c.83,0,1.59.16,2.3.46s1.27.76,1.7,1.34h.05v-1.48h3.19v13.19ZM905.8,312.47v-1.63c0-1-.34-1.85-1.01-2.56s-1.54-1.05-2.61-1.05c-1.18,0-2.12.43-2.82,1.29s-1.04,2.08-1.04,3.66c0,1.41.32,2.52.96,3.33s1.53,1.21,2.67,1.21,2.06-.39,2.78-1.18,1.07-1.81,1.07-3.08Z"/>
      <path d="M912.7,312.5v-2.34h7.46v2.34h-7.46Z"/>
      <path d="M932,318.04c-.42.4-.91.71-1.46.93s-1.18.33-1.87.33c-1.33,0-2.34-.33-3.01-1s-1.02-1.65-1.02-2.95v-7.88h-2.35v-2.49h2.35v-3.43l3.17-.56v3.99h3.57v2.49h-3.57v7.77c0,.56.11.97.33,1.23s.56.4,1.02.4c.24,0,.47-.05.7-.14s.47-.27.72-.53l1.42,1.85Z"/>
      <path d="M946.44,312.76h-9.67c.03,1.35.39,2.36,1.1,3.04s1.57,1.02,2.6,1.02c.73,0,1.38-.17,1.94-.51s1.04-.85,1.44-1.52l2.45,1.33c-.64,1.02-1.45,1.81-2.44,2.37s-2.15.83-3.49.83c-2.06,0-3.71-.62-4.95-1.86s-1.86-3.02-1.86-5.35.64-4.01,1.91-5.39,2.86-2.06,4.78-2.06,3.49.59,4.57,1.76,1.62,2.88,1.62,5.11v1.23ZM943.37,310.49c0-1.09-.27-1.94-.82-2.54s-1.29-.9-2.24-.9-1.8.33-2.42.99-.99,1.48-1.12,2.45h6.6Z"/>
      <path d="M957.33,307.84c-.25-.1-.52-.18-.79-.24s-.55-.09-.85-.09c-.94,0-1.7.42-2.28,1.26s-.88,1.93-.88,3.28v6.93h-3.19v-14h3.19v2.53h.05c.33-.89.81-1.58,1.45-2.06s1.38-.72,2.21-.72c.36,0,.68.03.98.08s.62.16.97.31l-.88,2.71Z"/>
      <path d="M981.11,318.98h-3.17v-8.07c0-1.27-.22-2.2-.65-2.79s-1.13-.89-2.08-.89c-.85,0-1.56.37-2.13,1.11s-.85,1.65-.85,2.71v7.92h-3.17v-8.2c0-1.18-.23-2.06-.68-2.65s-1.14-.89-2.06-.89-1.59.35-2.13,1.06-.82,1.64-.82,2.8v7.89h-3.19v-14h3.19v1.89h.05c.47-.7,1.09-1.25,1.85-1.63s1.6-.58,2.51-.58c.97,0,1.8.23,2.49.68s1.18,1.05,1.48,1.78c.57-.83,1.25-1.45,2.04-1.85s1.71-.61,2.74-.61c1.46,0,2.59.47,3.39,1.42s1.2,2.36,1.2,4.24v8.67Z"/>
      <path d="M858.46,349.97c-.62.98-1.42,1.72-2.4,2.21s-2.06.73-3.25.73c-2.26,0-4.02-.65-5.28-1.95s-1.89-3.01-1.89-5.13c0-2.34.67-4.19,2.02-5.54s3.09-2.03,5.24-2.03c1.21,0,2.31.25,3.28.77s1.71,1.27,2.21,2.28l-2.49,1.26c-.44-.63-.9-1.07-1.4-1.33s-1.07-.39-1.73-.39c-1.13,0-2.06.42-2.8,1.26s-1.1,2.01-1.1,3.51.36,2.63,1.09,3.45,1.7,1.22,2.92,1.22c.62,0,1.19-.13,1.72-.39s1-.7,1.42-1.32l2.45,1.41Z"/>
      <path d="M867.65,352.91c-2.21,0-3.97-.65-5.28-1.96s-1.96-3.06-1.96-5.26c0-2.23.7-4.03,2.08-5.39s3.16-2.04,5.36-2.04,3.95.67,5.22,2.01,1.91,3.07,1.91,5.2-.67,3.95-2.02,5.35-3.12,2.1-5.33,2.1ZM867.77,350.33c1.26,0,2.23-.43,2.93-1.29s1.04-2.03,1.04-3.49-.35-2.55-1.05-3.41-1.67-1.29-2.92-1.29-2.25.44-2.99,1.33-1.12,2.04-1.12,3.45.37,2.62,1.11,3.45,1.74,1.25,3.01,1.25Z"/>
      <path d="M890.43,352.58h-3.17v-8.19c0-1.16-.23-2.04-.7-2.65s-1.15-.91-2.06-.91c-.99,0-1.8.36-2.43,1.07s-.94,1.61-.94,2.69v7.98h-3.19v-14h3.19v1.9h.05c.49-.71,1.13-1.26,1.92-1.65s1.64-.58,2.56-.58c1.55,0,2.73.49,3.54,1.48s1.22,2.39,1.22,4.22v8.63Z"/>
      <path d="M901.57,334.59c-.24-.16-.48-.28-.73-.36s-.53-.13-.83-.13c-.6,0-1.06.18-1.37.55s-.47.92-.47,1.66v2.27h3.24v2.49h-3.24v11.51h-3.17v-11.51h-2.38v-2.49h2.38v-2.3c0-1.46.43-2.61,1.29-3.47s2.06-1.28,3.6-1.28c.52,0,1.03.06,1.52.18s.98.31,1.46.57l-1.3,2.3Z"/>
      <path d="M905.19,336.02c-.6,0-1.09-.19-1.47-.58s-.57-.85-.57-1.4.19-1.03.57-1.41.87-.57,1.47-.57,1.11.19,1.48.57.57.85.57,1.41-.19,1.04-.57,1.42-.87.57-1.48.57ZM906.78,352.58h-3.19v-14h3.19v14Z"/>
      <path d="M920.36,350.64c-.51.75-1.15,1.31-1.93,1.7s-1.65.57-2.64.57c-1.88,0-3.36-.62-4.44-1.87s-1.62-2.96-1.62-5.13c0-2.35.6-4.22,1.81-5.59s2.82-2.06,4.83-2.06c.88,0,1.67.17,2.37.52s1.24.78,1.61,1.31h.05v-8.23h3.19v20.73h-3.19v-1.94h-.05ZM912.97,345.79c0,1.42.32,2.53.97,3.34s1.54,1.2,2.68,1.2,2.1-.4,2.79-1.2,1.04-1.83,1.04-3.09v-1.6c0-1.02-.33-1.88-1-2.56s-1.54-1.03-2.6-1.03c-1.19,0-2.14.43-2.83,1.29s-1.04,2.08-1.04,3.66Z"/>
      <path d="M939.43,346.36h-9.67c.03,1.35.39,2.36,1.1,3.04s1.57,1.02,2.6,1.02c.73,0,1.38-.17,1.94-.51s1.04-.85,1.44-1.52l2.45,1.33c-.64,1.02-1.45,1.81-2.44,2.37s-2.15.83-3.49.83c-2.06,0-3.71-.62-4.95-1.86s-1.86-3.02-1.86-5.35.64-4.01,1.91-5.39,2.86-2.06,4.78-2.06,3.49.59,4.57,1.76,1.62,2.88,1.62,5.11v1.23ZM936.35,344.09c0-1.09-.27-1.94-.82-2.54s-1.29-.9-2.24-.9-1.8.33-2.42.99-.99,1.48-1.12,2.45h6.6Z"/>
      <path d="M954.81,352.58h-3.17v-8.19c0-1.16-.23-2.04-.7-2.65s-1.15-.91-2.06-.91c-.99,0-1.8.36-2.43,1.07s-.94,1.61-.94,2.69v7.98h-3.19v-14h3.19v1.9h.05c.49-.71,1.13-1.26,1.92-1.65s1.64-.58,2.56-.58c1.55,0,2.73.49,3.54,1.48s1.22,2.39,1.22,4.22v8.63Z"/>
      <path d="M970.31,349.97c-.62.98-1.42,1.72-2.4,2.21s-2.06.73-3.25.73c-2.26,0-4.02-.65-5.28-1.95s-1.89-3.01-1.89-5.13c0-2.34.67-4.19,2.02-5.54s3.09-2.03,5.24-2.03c1.21,0,2.31.25,3.28.77s1.71,1.27,2.21,2.28l-2.49,1.26c-.44-.63-.9-1.07-1.4-1.33s-1.07-.39-1.73-.39c-1.13,0-2.06.42-2.8,1.26s-1.1,2.01-1.1,3.51.36,2.63,1.09,3.45,1.7,1.22,2.92,1.22c.62,0,1.19-.13,1.72-.39s1-.7,1.42-1.32l2.45,1.41Z"/>
      <path d="M985.15,346.36h-9.67c.03,1.35.39,2.36,1.1,3.04s1.57,1.02,2.6,1.02c.73,0,1.38-.17,1.94-.51s1.04-.85,1.44-1.52l2.45,1.33c-.64,1.02-1.45,1.81-2.44,2.37s-2.15.83-3.49.83c-2.06,0-3.71-.62-4.95-1.86s-1.86-3.02-1.86-5.35.64-4.01,1.91-5.39,2.86-2.06,4.78-2.06,3.49.59,4.57,1.76,1.62,2.88,1.62,5.11v1.23ZM982.07,344.09c0-1.09-.27-1.94-.82-2.54s-1.29-.9-2.24-.9-1.8.33-2.42.99-.99,1.48-1.12,2.45h6.6Z"/>
    </g>
    <g>
      <line class="st4" x1="582.01" y1="299.38" x2="742.15" y2="299.38"/>
      <polygon points="737.77 314.34 763.68 299.38 737.77 284.42 737.77 314.34"/>
    </g>
  </g>
</svg>