<svg width="39" height="38" xmlns="http://www.w3.org/2000/svg" xmlns:xlink="http://www.w3.org/1999/xlink" overflow="hidden"><defs><clipPath id="clip0"><rect x="41" y="490" width="39" height="38"/></clipPath></defs><g clip-path="url(#clip0)" transform="translate(-41 -490)"><path d="M10.2402 26.9598C10.3549 27.4701 10.6447 27.9241 11.0592 28.2431L15.464 31.6271 15.464 34.4019C15.464 34.6205 15.6412 34.7977 15.8599 34.7977 16.0785 34.7977 16.2557 34.6205 16.2557 34.4019L16.2557 31.4331C16.2558 31.3102 16.1987 31.1942 16.1013 31.1192L11.5417 27.6161C11.2742 27.4099 11.087 27.1167 11.0125 26.7872L8.62917 16.1635C8.4413 15.3161 8.97588 14.477 9.8232 14.2891 9.87256 14.2781 9.92243 14.2696 9.97263 14.2635 10.8012 14.1948 11.5499 14.7575 11.7143 15.5725L13.4955 22.6607C13.5478 22.873 13.7622 23.0027 13.9745 22.9505 14.1527 22.9066 14.2774 22.746 14.2757 22.5625L14.2757 7.1824C14.2618 6.35716 14.8709 5.65361 15.6896 5.54919 16.5538 5.46373 17.3236 6.09492 17.409 6.95903 17.4141 7.00997 17.4166 7.06115 17.4167 7.11233 17.4182 7.15421 17.4266 7.19554 17.4416 7.23465L17.4416 18.6042C17.4416 18.8228 17.6188 19 17.8374 19 18.0561 19 18.2333 18.8228 18.2333 18.6042L18.2333 4.8074C18.2194 3.98204 18.8287 3.27841 19.6476 3.17419 20.5122 3.08893 21.2821 3.72069 21.3674 4.58525 21.3724 4.63592 21.3749 4.68682 21.375 4.73773L21.375 18.6042C21.375 18.8228 21.5522 19 21.7708 19 21.9895 19 22.1667 18.8228 22.1667 18.6042L22.1667 7.1824C22.1527 6.35732 22.7616 5.65377 23.5802 5.54919 24.4445 5.46349 25.2146 6.09469 25.3003 6.95899 25.3054 7.00993 25.3079 7.06111 25.308 7.11233L25.308 18.6042C25.308 18.8228 25.4852 19 25.7038 19 25.9225 19 26.0997 18.8228 26.0997 18.6042L26.0997 11.2591C26.1317 11.2029 26.1493 11.1397 26.1507 11.075 26.1507 10.2074 26.854 9.50388 27.7216 9.5038 27.7735 9.5038 27.8253 9.50637 27.877 9.51148 28.6991 9.62053 29.3081 10.3297 29.2917 11.1589L29.2917 24.8033C29.2919 26.3367 28.824 27.8335 27.9506 29.0938L27.3208 30.0042C26.8166 30.7312 26.5457 31.5945 26.5442 32.4793L26.5402 34.4035C26.5402 34.6221 26.7174 34.7993 26.9361 34.7993L26.9361 34.7993C27.1547 34.7993 27.3319 34.6221 27.3319 34.4035L27.3359 32.4765C27.337 31.7543 27.5579 31.0495 27.9692 30.4558L28.6025 29.5418C29.5667 28.1509 30.0833 26.4989 30.0833 24.8065L30.0833 11.1589C30.0971 9.92267 29.179 8.87379 27.9518 8.72377 27.288 8.66072 26.6282 8.87933 26.1333 9.32623 26.1214 9.33692 26.1111 9.34919 26.0997 9.35987L26.0997 7.2109C26.1025 5.89479 25.0683 4.80997 23.7536 4.75 23.168 4.74624 22.6022 4.9611 22.1667 5.35246L22.1667 4.82006C22.1841 3.61291 21.3084 2.57789 20.1151 2.39519 18.82 2.22489 17.6321 3.13669 17.4618 4.43175 17.4485 4.5332 17.4417 4.63541 17.4416 4.73773L17.4416 5.37502C17.0085 4.97428 16.4404 4.75115 15.8504 4.75 14.5262 4.79742 13.4787 5.88747 13.4841 7.21248L13.4841 19.3301C13.4834 19.3322 13.4811 19.3333 13.4791 19.3327 13.4779 19.3323 13.4769 19.3313 13.4765 19.3301L12.487 15.3864C12.2303 14.1767 11.1051 13.3534 9.87446 13.475 8.57981 13.6327 7.65819 14.8102 7.81597 16.1049 7.82539 16.1823 7.83865 16.2592 7.85571 16.3353Z" transform="matrix(1.02632 0 0 1 41 490)"/></g></svg>