<svg width="72" height="72" xmlns="http://www.w3.org/2000/svg" xmlns:xlink="http://www.w3.org/1999/xlink" overflow="hidden"><defs><clipPath id="clip0"><rect x="227" y="191" width="72" height="72"/></clipPath></defs><g clip-path="url(#clip0)" transform="translate(-227 -191)"><path d="M290 248.75 269 248.75 269 245.75 263.75 245.75 263.75 239 284 239C285.657 239 287 237.657 287 236L287 228.5C286.997 227.635 286.619 226.814 285.964 226.25 286.619 225.686 286.997 224.865 287 224L287 216.5C286.997 215.635 286.619 214.814 285.964 214.25 286.619 213.686 286.997 212.865 287 212L287 204.5C287 202.843 285.657 201.5 284 201.5L242 201.5C240.343 201.5 239 202.843 239 204.5L239 212C239.003 212.865 239.381 213.686 240.036 214.25 239.381 214.814 239.003 215.635 239 216.5L239 224C239.003 224.865 239.381 225.686 240.036 226.25 239.381 226.814 239.003 227.635 239 228.5L239 236C239 237.657 240.343 239 242 239L262.25 239 262.25 245.75 257 245.75 257 248.75 236 248.75 236 250.25 257 250.25 257 253.25 269 253.25 269 250.25 290 250.25ZM240.5 212 240.5 204.5C240.5 203.672 241.172 203 242 203L284 203C284.828 203 285.5 203.672 285.5 204.5L285.5 212C285.5 212.828 284.828 213.5 284 213.5L242 213.5C241.172 213.5 240.5 212.828 240.5 212ZM240.5 224 240.5 216.5C240.5 215.672 241.172 215 242 215L284 215C284.828 215 285.5 215.672 285.5 216.5L285.5 224C285.5 224.828 284.828 225.5 284 225.5L242 225.5C241.172 225.5 240.5 224.828 240.5 224ZM240.5 236 240.5 228.5C240.5 227.672 241.172 227 242 227L284 227C284.828 227 285.5 227.672 285.5 228.5L285.5 236C285.5 236.828 284.828 237.5 284 237.5L242 237.5C241.172 237.5 240.5 236.828 240.5 236ZM267.5 251.75 258.5 251.75 258.5 247.25 267.5 247.25Z"/><path d="M248 208.25C248 209.078 247.328 209.75 246.5 209.75 245.672 209.75 245 209.078 245 208.25 245 207.422 245.672 206.75 246.5 206.75 247.328 206.75 248 207.422 248 208.25Z"/><path d="M255.5 208.25C255.5 209.078 254.828 209.75 254 209.75 253.172 209.75 252.5 209.078 252.5 208.25 252.5 207.422 253.172 206.75 254 206.75 254.828 206.75 255.5 207.422 255.5 208.25Z"/><path d="M263 208.25C263 209.078 262.328 209.75 261.5 209.75 260.672 209.75 260 209.078 260 208.25 260 207.422 260.672 206.75 261.5 206.75 262.328 206.75 263 207.422 263 208.25Z"/><path d="M248 220.25C248 221.078 247.328 221.75 246.5 221.75 245.672 221.75 245 221.078 245 220.25 245 219.422 245.672 218.75 246.5 218.75 247.328 218.75 248 219.422 248 220.25Z"/><path d="M255.5 220.25C255.5 221.078 254.828 221.75 254 221.75 253.172 221.75 252.5 221.078 252.5 220.25 252.5 219.422 253.172 218.75 254 218.75 254.828 218.75 255.5 219.422 255.5 220.25Z"/><path d="M263 220.25C263 221.078 262.328 221.75 261.5 221.75 260.672 221.75 260 221.078 260 220.25 260 219.422 260.672 218.75 261.5 218.75 262.328 218.75 263 219.422 263 220.25Z"/><path d="M248 232.25C248 233.078 247.328 233.75 246.5 233.75 245.672 233.75 245 233.078 245 232.25 245 231.422 245.672 230.75 246.5 230.75 247.328 230.75 248 231.422 248 232.25Z"/><path d="M255.5 232.25C255.5 233.078 254.828 233.75 254 233.75 253.172 233.75 252.5 233.078 252.5 232.25 252.5 231.422 253.172 230.75 254 230.75 254.828 230.75 255.5 231.422 255.5 232.25Z"/><path d="M263 232.25C263 233.078 262.328 233.75 261.5 233.75 260.672 233.75 260 233.078 260 232.25 260 231.422 260.672 230.75 261.5 230.75 262.328 230.75 263 231.422 263 232.25Z"/></g></svg>