<svg width="72" height="72" xmlns="http://www.w3.org/2000/svg" xmlns:xlink="http://www.w3.org/1999/xlink" overflow="hidden"><defs><clipPath id="clip0"><rect x="132" y="200" width="72" height="72"/></clipPath></defs><g clip-path="url(#clip0)" transform="translate(-132 -200)"><path d="M201.825 229.775 193.35 215.675 192.6 214.4 191.325 215.225 185.625 218.75C184.95 219.125 184.425 219.8 184.2 220.55 184.05 221.075 184.05 221.675 184.275 222.2 182.7 222.725 181.125 223.025 179.475 223.025 177.225 222.95 174.975 222.575 172.8 221.9 171.75 221.6 170.625 221.375 169.5 221.15L169.35 221.15 169.35 221.15C169.275 221.15 169.2 221.15 169.2 221.15L169.05 221.15 168.9 221.15C168.75 221.15 168.675 221.15 168.525 221.15L168.525 221.15C167.25 221.15 165.975 221.675 165.15 222.65L164.55 223.325C163.575 222.95 162.525 222.725 161.475 222.725 161.25 222.725 161.1 222.725 160.875 222.725 160.425 222.725 160.05 222.8 159.6 222.8 158.625 222.875 157.65 222.95 156.675 222.95 155.025 223.025 153.375 222.65 151.875 221.975 151.95 221.525 151.95 221.075 151.875 220.55 151.65 219.8 151.125 219.125 150.45 218.75L144.825 215.225 143.55 214.4 142.8 215.675 134.175 229.775 133.425 231.05 134.7 231.8 140.475 235.325C141.525 236 142.8 235.925 143.775 235.175L148.65 240.875 148.725 241.025 148.875 241.1 148.875 241.1 147.825 242.3C146.475 243.875 146.625 246.2 148.125 247.55L148.125 247.55 148.125 247.55C148.8 248.15 149.625 248.45 150.525 248.45 150.675 248.45 150.825 248.45 150.975 248.45 151.5 248.375 151.95 248.225 152.4 247.925 152.475 248.825 152.925 249.725 153.6 250.325L153.6 250.325 153.6 250.325C154.275 250.925 155.1 251.225 156 251.225 156.075 251.225 156.225 251.225 156.3 251.225 156.675 251.225 157.05 251.15 157.425 251 157.5 251.825 157.875 252.65 158.55 253.175L158.55 253.175 158.55 253.175C159.15 253.7 159.9 254 160.65 254 160.8 254 160.875 254 161.025 254 161.55 254 162 253.775 162.45 253.55 162.6 254.075 162.9 254.6 163.35 254.975 163.95 255.5 164.7 255.8 165.525 255.725L165.675 255.725 165.825 255.725C166.275 255.65 166.725 255.425 167.1 255.2L167.175 255.275 168.225 256.1 168.3 256.175 168.375 256.25C169.05 256.7 169.875 256.925 170.625 256.925 170.775 256.925 170.925 256.925 171.075 256.925 172.95 256.775 174.45 255.425 174.975 253.625 176.625 253.325 177.975 252.05 178.425 250.4 180.15 250.025 181.5 248.75 181.875 247.1 181.95 247.1 182.1 247.1 182.175 247.1 184.575 246.875 186.375 244.775 186.225 242.375 186.225 242.225 186.225 242 186.225 241.85L186.825 241.1 192 235.1C192.975 235.925 194.325 235.925 195.45 235.25L201.225 231.725 202.5 230.975 201.825 229.775ZM141.225 234.05 135.45 230.525 144 216.425 149.7 219.95C150.3 220.25 150.6 221 150.375 221.6L149.925 222.35 143.4 233.15 142.95 233.825C142.725 234.05 142.35 234.2 141.975 234.2 141.75 234.275 141.45 234.2 141.225 234.05ZM150.825 246.95C150.75 246.95 150.675 246.95 150.6 246.95 149.4 246.95 148.425 245.9 148.425 244.7 148.425 244.175 148.65 243.65 148.95 243.275L152.925 238.775C153.375 238.325 153.975 238.025 154.65 238.025 155.175 238.025 155.7 238.25 156.075 238.55 156.975 239.375 157.125 240.8 156.3 241.7L152.325 246.2C151.95 246.65 151.425 246.875 150.825 246.95ZM156.375 249.8C156.3 249.8 156.225 249.8 156.15 249.8 154.95 249.8 153.975 248.75 153.975 247.55 153.975 247.025 154.2 246.5 154.5 246.125L157.95 242.15C158.4 241.7 159 241.4 159.675 241.4 160.2 241.4 160.725 241.625 161.1 241.925 162 242.75 162.15 244.175 161.325 245.075L157.875 249.05C157.5 249.5 156.975 249.8 156.375 249.8L156.375 249.8ZM161.1 252.575C161.025 252.575 160.95 252.575 160.875 252.575 160.425 252.575 160.05 252.425 159.675 252.125 158.925 251.45 158.85 250.25 159.525 249.5L162.975 245.525C163.35 245.15 163.875 244.925 164.4 244.925 164.85 244.925 165.3 245.075 165.6 245.375 166.35 246.05 166.425 247.25 165.75 248L162.3 251.975C162 252.35 161.55 252.575 161.1 252.575L161.1 252.575ZM165.675 254.375C165.3 254.375 164.85 254.3 164.55 254 163.95 253.475 163.875 252.5 164.4 251.9L167.325 248.525C167.625 248.225 168 248 168.45 248 168.825 248 169.125 248.15 169.425 248.375 170.025 248.9 170.1 249.875 169.575 250.475L166.65 253.85C166.425 254.15 166.05 254.3 165.675 254.375L165.675 254.375ZM182.175 245.6C182.1 245.6 181.95 245.6 181.875 245.6 181.425 245.6 180.975 245.45 180.6 245.3 180.6 245.45 180.675 245.6 180.675 245.75 180.825 247.4 179.625 248.825 177.975 248.975 177.975 248.975 177.975 248.975 177.975 248.975 177.75 248.975 177.45 248.975 177.225 248.9L177.225 248.975C177.375 250.625 176.175 252.05 174.525 252.2 174.525 252.2 174.525 252.2 174.525 252.2 174.3 252.2 174 252.2 173.775 252.125L173.775 252.2C173.925 253.85 172.725 255.275 171.075 255.425 171.075 255.425 171.075 255.425 171.075 255.425 171 255.425 170.925 255.425 170.85 255.425 170.325 255.425 169.8 255.275 169.275 254.975L168.3 254.225 170.7 251.45C171.75 250.175 171.6 248.3 170.4 247.25 169.875 246.8 169.2 246.5 168.45 246.5 168.225 246.5 167.925 246.5 167.7 246.575 167.625 245.675 167.25 244.85 166.575 244.25 165.975 243.725 165.15 243.425 164.325 243.425L164.325 243.425C163.95 243.425 163.65 243.5 163.275 243.575 163.275 242.525 162.825 241.55 162 240.8 161.325 240.2 160.5 239.825 159.6 239.9L159.6 239.9C159.15 239.9 158.7 239.975 158.25 240.125 158.175 239.075 157.725 238.1 156.975 237.425 156.3 236.825 155.475 236.45 154.575 236.525L154.575 236.525C153.525 236.525 152.475 236.975 151.725 237.8L149.775 240.05 149.7 239.975 144.6 234.05 151.125 223.25C152.775 224.075 154.65 224.45 156.525 224.375 158.025 224.375 159.525 224.225 160.875 224.075 161.025 224.075 161.175 224.075 161.325 224.075 162 224.075 162.675 224.15 163.275 224.375L159.15 229.25C158.325 230.15 157.95 231.35 158.025 232.55 158.1 233.75 158.7 234.8 159.6 235.625L159.6 235.625 159.6 235.625C160.425 236.3 161.475 236.675 162.525 236.675 162.675 236.675 162.75 236.675 162.9 236.675 164.1 236.6 165.225 236 165.975 235.1L171.075 229.25 171.075 229.25 171.9 230 183.975 240.35C184.5 240.8 184.8 241.55 184.8 242.225 184.8 242.3 184.8 242.525 184.8 242.525 184.95 244.1 183.75 245.45 182.175 245.6 182.175 245.6 182.175 245.6 182.175 245.6ZM185.85 240.125C185.625 239.75 185.325 239.45 185.025 239.15L171 227.075 164.85 234.125C164.325 234.725 163.65 235.1 162.825 235.175 162.75 235.175 162.675 235.175 162.6 235.175 161.85 235.175 161.175 234.875 160.575 234.425 159.3 233.375 159.15 231.575 160.2 230.3 160.2 230.3 160.275 230.225 160.275 230.225L166.2 223.475C166.8 222.8 167.625 222.5 168.45 222.5 168.525 222.5 168.6 222.5 168.75 222.5 168.9 222.5 168.975 222.575 169.125 222.575 172.575 223.25 175.725 224.45 179.4 224.45 181.275 224.45 183.15 224.15 184.875 223.475L189.225 230.525 191.25 233.9 185.85 240.125ZM194.775 234.05C194.55 234.2 194.25 234.275 194.025 234.275 193.65 234.275 193.275 234.125 192.975 233.825L192.525 233.075 190.5 229.775 185.775 221.975C185.325 221.3 185.55 220.475 186.15 220.025 186.225 220.025 186.225 219.95 186.3 219.95L192.075 216.425 200.55 230.525 194.775 234.05Z"/></g></svg>