<svg xmlns="http://www.w3.org/2000/svg" viewBox="0 0 482.02 229.28">
  <title>6-resources</title>
  <g id="Shapes">
    <rect width="482.02" height="229.28" fill="#fff"/>
    <g>
      <rect x="323.23" width="158.79" height="110" fill="#fff"/>
      <rect x="323.23" width="158.79" height="110" fill="#75757a" opacity="0.3"/>
    </g>
    <path d="M31.71,108.77a13,13,0,0,1-1.47,6,13.36,13.36,0,0,1-4,4.72,18.42,18.42,0,0,1,7.32,6.58,17.42,17.42,0,0,1,2.73,9.35H31.71a12.61,12.61,0,0,0-1.08-5.17A13.5,13.5,0,0,0,27.71,126a13.94,13.94,0,0,0-4.32-2.87,13.63,13.63,0,0,0-10.54,0A13.82,13.82,0,0,0,8.53,126a13.5,13.5,0,0,0-2.92,4.23,12.61,12.61,0,0,0-1.08,5.17H0a17.25,17.25,0,0,1,.71-4.91,17.64,17.64,0,0,1,2-4.44,18.36,18.36,0,0,1,7.33-6.58A13.36,13.36,0,0,1,6,114.78a13,13,0,0,1-1.47-6,12.62,12.62,0,0,1,1.08-5.18,13.5,13.5,0,0,1,2.92-4.23,13.82,13.82,0,0,1,4.32-2.87,13.34,13.34,0,0,1,5.27-1.06,13.57,13.57,0,0,1,6.12,1.45,13.29,13.29,0,0,1,4.81,4A16.41,16.41,0,0,1,31.71,108.77Zm-13.59,8.89a8.87,8.87,0,0,0,3.5-.71A9.63,9.63,0,0,0,24.51,115a9.15,9.15,0,0,0,1.94-2.82,8.49,8.49,0,0,0,0-6.89,9.08,9.08,0,0,0-1.94-2.83,9.45,9.45,0,0,0-2.89-1.91,9,9,0,0,0-7,0,9.11,9.11,0,0,0-4.82,4.74,8.6,8.6,0,0,0,0,6.89,9.35,9.35,0,0,0,2,2.82A9.54,9.54,0,0,0,14.6,117,8.82,8.82,0,0,0,18.12,117.66Z"/>
    <g>
      <line x1="36.24" y1="115.43" x2="70.51" y2="115.43" fill="none" stroke="#000" stroke-miterlimit="10"/>
      <polygon points="69.41 119.17 75.89 115.44 69.41 111.69 69.41 119.17"/>
    </g>
    <path d="M128.27,112.09,108,91.83a4.57,4.57,0,0,0-6.58,0L81.17,112.09a4.58,4.58,0,0,0,0,6.59L101.52,139a4.53,4.53,0,0,0,3.3,1.39,4.67,4.67,0,0,0,3.29-1.39l20.36-20.36a4.53,4.53,0,0,0,1.4-3.3A6,6,0,0,0,128.27,112.09ZM104.72,95.23l6.59,6.58h-4.6v9.58h-3.89v-9.58H98.13ZM86.16,117.78v-3.89h9V109.2l6.58,6.58-6.58,6.59v-4.59Zm18.56,18.56-6.59-6.58h4.59v-9.39h3.89v9.39h4.7Zm18.56-18.56H114.4v4.69l-6.59-6.59,6.59-6.58v4.59h8.88Z" fill="#0072c6"/>
    <g>
      <rect x="323.23" y="120" width="158.79" height="109.28" fill="#fff"/>
      <rect x="323.23" y="120" width="158.79" height="109.28" fill="#75757a" opacity="0.3"/>
    </g>
    <path d="M415.72,158.54A15.89,15.89,0,0,0,403,152.28,16,16,0,0,0,390.33,178a15.8,15.8,0,0,0,12.7,6.26,16.14,16.14,0,0,0,9.73-3.3A16,16,0,0,0,415.72,158.54Zm.75,13.35c-.57-.42-1.39-1.06-2.43-1.89a3.14,3.14,0,0,0-.34-2.93,3,3,0,0,0-3.91-.69c-1.4-1.26-2.94-2.71-4.57-4.34,4.85-2.65,8.41-2.37,8.72-2.34.05.07.11.12.16.19A13.84,13.84,0,0,1,416.47,171.89Zm-8.78,3.77a3,3,0,0,0-.5-1.08,2.71,2.71,0,0,0-3.67-.65,24.47,24.47,0,0,1-3.73-2.47l-.34-.28a4.21,4.21,0,0,0-.59-4.11.34.34,0,0,0-.08-.09c.28-.29.56-.58.87-.86a26.48,26.48,0,0,1,3.64-3h0l0,0a.1.1,0,0,0,0,0c1.75,1.61,3.59,3.13,5.34,4.49a3,3,0,0,0,.25,3.05,3.06,3.06,0,0,0,4.23.59,1.53,1.53,0,0,0,.18-.18c1.25.89,2.24,1.56,2.81,1.95a14,14,0,0,1-1.56,3.05A14.41,14.41,0,0,1,407.69,175.66Zm4.28-18a15,15,0,0,0-9.28,1.72h0c-1.25-1.34-2.58-2.83-3.94-4.34a13.9,13.9,0,0,1,4.27-.67A13.72,13.72,0,0,1,412,157.67Zm-17.43-.42a13.82,13.82,0,0,1,2.33-1.44,27.45,27.45,0,0,0,3.77,4.75,23.28,23.28,0,0,0-3.85,3.34c-.45.51-.9,1-1.3,1.52a4,4,0,0,0-2.16.62,11.6,11.6,0,0,1-1.68-5.81A14,14,0,0,1,394.54,157.25Zm-4.48,5.94a10.74,10.74,0,0,0,1.59,4.77,4.2,4.2,0,0,0,.51,4.28h0a26.79,26.79,0,0,0-.63,3.93A13.88,13.88,0,0,1,390.06,163.19Zm21.42,16.18a13.86,13.86,0,0,1-17.4-.39,19,19,0,0,1,.7-5.17,4.21,4.21,0,0,0,3.13-.69l.36.27a22.81,22.81,0,0,0,4,2.53,2.67,2.67,0,0,0,.55,2.06,2.81,2.81,0,0,0,3.9.5,3.08,3.08,0,0,0,.66-.74,24.9,24.9,0,0,0,5.36.56A16,16,0,0,1,411.48,179.37Z"/>
    <g>
      <path d="M369.22,55.32h-9.46c1.11,4-.42,4.59-7.1,4.59V62h22.68V59.91C368.73,59.91,368.11,59.36,369.22,55.32Z" fill="#7a7a7a"/>
      <path d="M379.38,30H348.56A1.93,1.93,0,0,0,346.68,32V53.37a1.93,1.93,0,0,0,1.88,2h30.82a2.11,2.11,0,0,0,2.08-2V32A2.11,2.11,0,0,0,379.38,30Zm-.56,2.64v20h-29.5v-20l29.5-.07Z" fill="#3e3e3e"/>
      <polygon points="378.75 32.64 378.75 52.68 349.32 52.68 349.32 32.64 378.82 32.64 378.75 32.64" fill="#00bbf1"/>
      <path d="M349.32,52.68h0v-20h26.93L379.38,30H348.56A1.93,1.93,0,0,0,346.68,32V53.37a1.93,1.93,0,0,0,1.88,2h.76l3.2-2.64Z" fill="#7a7a7a"/>
      <polygon points="349.32 52.68 349.32 52.68 349.32 32.64 376.25 32.64 376.25 32.64 349.32 32.64 349.32 52.68" fill="#59b4d9"/>
      <rect x="352.73" y="59.91" width="22.75" height="2.09" fill="#b0b0b0"/>
      <path d="M364.07,42.31H364l-6.12-3.54c-.07,0-.07-.07-.07-.14a.24.24,0,0,1,.07-.14L363.93,35h.21l6.12,3.55c.07,0,.07.07.07.14s0,.13-.07.13l-6.05,3.48Z" fill="#fff" opacity="0.9" style="isolation: isolate"/>
      <path d="M363.17,50.87h-.07L357,47.39c-.07,0-.07-.07-.07-.14V40.16c0-.07,0-.14.07-.14h.2l6.13,3.48c.07,0,.07.07.07.13v7a.24.24,0,0,1-.07.14C363.24,50.87,363.24,50.87,363.17,50.87Z" fill="#fff" opacity="0.8" style="isolation: isolate"/>
      <path d="M364.91,50.87h-.07c-.07,0-.07-.07-.07-.14v-7a.21.21,0,0,1,.07-.13L371,40.09h.21c.07,0,.07.07.07.14v7a.24.24,0,0,1-.07.14l-6.12,3.48Z" fill="#fff" opacity="0.5" style="isolation: isolate"/>
    </g>
    <g>
      <path d="M369.22,93.76h-9.46c1.11,4-.42,4.59-7.1,4.59v2.08h22.68V98.35C368.73,98.35,368.11,97.79,369.22,93.76Z" fill="#7a7a7a"/>
      <path d="M379.38,68.43H348.56a1.93,1.93,0,0,0-1.88,1.95V91.81a1.93,1.93,0,0,0,1.88,2h30.82a2.12,2.12,0,0,0,2.08-2V70.38A2.12,2.12,0,0,0,379.38,68.43Zm-.56,2.65V91h-29.5v-20l29.5-.07Z" fill="#3e3e3e"/>
      <polygon points="378.75 71.08 378.75 91.11 349.32 91.11 349.32 71.08 378.82 71.08 378.75 71.08" fill="#00bbf1"/>
      <path d="M349.32,91.11h0v-20h26.93l3.13-2.65H348.56a1.93,1.93,0,0,0-1.88,1.95V91.81a1.93,1.93,0,0,0,1.88,2h.76l3.2-2.65Z" fill="#7a7a7a"/>
      <polygon points="349.32 91.11 349.32 91.11 349.32 71.08 376.25 71.08 376.25 71.08 349.32 71.08 349.32 91.11" fill="#59b4d9"/>
      <rect x="352.73" y="98.35" width="22.75" height="2.09" fill="#b0b0b0"/>
      <path d="M364.07,80.75H364l-6.12-3.55c-.07,0-.07-.07-.07-.14a.24.24,0,0,1,.07-.14l6.05-3.48h.21L370.26,77c.07,0,.07.07.07.14s0,.14-.07.14l-6.05,3.48Z" fill="#fff" opacity="0.9" style="isolation: isolate"/>
      <path d="M363.17,89.3h-.07L357,85.83c-.07,0-.07-.07-.07-.14v-7.1c0-.07,0-.14.07-.14h.2l6.13,3.48c.07,0,.07.07.07.14v7a.21.21,0,0,1-.07.13C363.24,89.3,363.24,89.3,363.17,89.3Z" fill="#fff" opacity="0.8" style="isolation: isolate"/>
      <path d="M364.91,89.3h-.07c-.07,0-.07-.07-.07-.13v-7a.24.24,0,0,1,.07-.14L371,78.52h.21c.07,0,.07.07.07.14v7a.24.24,0,0,1-.07.14l-6.12,3.47Z" fill="#fff" opacity="0.5" style="isolation: isolate"/>
    </g>
    <g>
      <path d="M125.24,103.31h58.34a5,5,0,0,0,5-5V60a5,5,0,0,1,5-5H317.85" fill="none" stroke="#000" stroke-miterlimit="10"/>
      <polygon points="316.75 58.74 323.23 55 316.75 51.26 316.75 58.74"/>
    </g>
    <g>
      <path d="M125.24,126.42h58.34a5,5,0,0,1,5,5v38.31a5,5,0,0,0,5,5H317.85" fill="none" stroke="#000" stroke-miterlimit="10"/>
      <polygon points="316.75 178.47 323.23 174.73 316.75 170.99 316.75 178.47"/>
    </g>
  </g>
  <g id="Text">
    <g>
      <path d="M365.87,203.77H364v-8.89h1.85Z" fill="#1e1e1e"/>
      <path d="M368.34,196.82a1.12,1.12,0,0,1-.77-.28.9.9,0,0,1-.3-.68.85.85,0,0,1,.3-.68,1.11,1.11,0,0,1,.77-.27,1.1,1.1,0,0,1,.77.27.85.85,0,0,1,.3.68.89.89,0,0,1-.3.69A1.1,1.1,0,0,1,368.34,196.82Zm.92,7H367.4v-6h1.86Z" fill="#1e1e1e"/>
      <path d="M375.33,203.55a3.69,3.69,0,0,1-1.81.36,3.06,3.06,0,0,1-2.24-.84,2.86,2.86,0,0,1-.85-2.16,3.19,3.19,0,0,1,.91-2.41,3.4,3.4,0,0,1,2.46-.88,3.1,3.1,0,0,1,1.53.28v1.57A2.11,2.11,0,0,0,374,199a1.82,1.82,0,0,0-1.29,3,1.66,1.66,0,0,0,1.23.45,2.42,2.42,0,0,0,1.35-.43Z" fill="#1e1e1e"/>
      <path d="M382,201.29H378c.06.87.61,1.31,1.65,1.31a3.24,3.24,0,0,0,1.74-.47v1.34a4.68,4.68,0,0,1-2.16.44,3.07,3.07,0,0,1-2.26-.8,3,3,0,0,1-.8-2.25,3.24,3.24,0,0,1,.86-2.37,2.9,2.9,0,0,1,2.14-.87,2.63,2.63,0,0,1,2,.78,3,3,0,0,1,.71,2.11Zm-1.71-1.13q0-1.29-1.05-1.29a1,1,0,0,0-.77.37,1.71,1.71,0,0,0-.39.92Z" fill="#1e1e1e"/>
      <path d="M388.93,203.77h-1.85v-3.34c0-.93-.33-1.39-1-1.39a1,1,0,0,0-.8.37,1.43,1.43,0,0,0-.31.93v3.43h-1.85v-6H385v.95h0a2.1,2.1,0,0,1,1.93-1.1c1.32,0,2,.82,2,2.47Z" fill="#1e1e1e"/>
      <path d="M390.11,203.61v-1.5a4.13,4.13,0,0,0,.92.41,2.93,2.93,0,0,0,.85.13,1.86,1.86,0,0,0,.78-.13.43.43,0,0,0,.28-.41.41.41,0,0,0-.12-.3,1.53,1.53,0,0,0-.34-.2,3.72,3.72,0,0,0-.44-.16l-.46-.16A3.71,3.71,0,0,1,391,201a1.84,1.84,0,0,1-.46-.36,1.47,1.47,0,0,1-.28-.47,2,2,0,0,1-.1-.64,1.7,1.7,0,0,1,.22-.87,1.85,1.85,0,0,1,.59-.59,2.43,2.43,0,0,1,.84-.34,4.46,4.46,0,0,1,1-.11,5.62,5.62,0,0,1,.81.06,5.88,5.88,0,0,1,.81.18v1.43a3,3,0,0,0-.76-.31,3,3,0,0,0-.78-.1,1.9,1.9,0,0,0-.35,0,.85.85,0,0,0-.28.1.49.49,0,0,0-.19.15.36.36,0,0,0-.07.22.39.39,0,0,0,.1.28.89.89,0,0,0,.28.21l.37.15.42.14a5.19,5.19,0,0,1,.67.28,2.12,2.12,0,0,1,.51.36,1.37,1.37,0,0,1,.33.48,1.8,1.8,0,0,1,.11.65,1.73,1.73,0,0,1-.23.91,1.93,1.93,0,0,1-.62.62,2.65,2.65,0,0,1-.88.34,4.48,4.48,0,0,1-1,.11A5.5,5.5,0,0,1,390.11,203.61Z" fill="#1e1e1e"/>
      <path d="M401.22,201.29h-3.91c.06.87.61,1.31,1.65,1.31a3.24,3.24,0,0,0,1.74-.47v1.34a4.7,4.7,0,0,1-2.17.44,2.78,2.78,0,0,1-3-3,3.2,3.2,0,0,1,.86-2.37,2.9,2.9,0,0,1,2.14-.87,2.63,2.63,0,0,1,2,.78,3,3,0,0,1,.71,2.11Zm-1.71-1.13q0-1.29-1.05-1.29a1,1,0,0,0-.77.37,1.64,1.64,0,0,0-.39.92Z" fill="#1e1e1e"/>
      <path d="M406.32,199.44a1.55,1.55,0,0,0-.78-.19,1.12,1.12,0,0,0-1,.45,1.94,1.94,0,0,0-.34,1.2v2.87H402.4v-6h1.85v1.11h0a1.6,1.6,0,0,1,1.58-1.22,1.17,1.17,0,0,1,.46.07Z" fill="#1e1e1e"/>
      <path d="M412.64,201.29h-3.91c.06.87.61,1.31,1.65,1.31a3.24,3.24,0,0,0,1.74-.47v1.34a4.7,4.7,0,0,1-2.17.44,2.78,2.78,0,0,1-3.05-3,3.24,3.24,0,0,1,.86-2.37,2.9,2.9,0,0,1,2.14-.87,2.63,2.63,0,0,1,2,.78,3,3,0,0,1,.71,2.11Zm-1.71-1.13q0-1.29-1.05-1.29a1,1,0,0,0-.77.37,1.71,1.71,0,0,0-.39.92Z" fill="#1e1e1e"/>
      <path d="M419.62,203.77h-1.85v-3.34c0-.93-.33-1.39-1-1.39a1,1,0,0,0-.8.37,1.43,1.43,0,0,0-.31.93v3.43h-1.85v-6h1.85v.95h0a2.1,2.1,0,0,1,1.93-1.1c1.32,0,2,.82,2,2.47Z" fill="#1e1e1e"/>
      <path d="M426.5,201.29h-3.91c.06.87.61,1.31,1.65,1.31a3.24,3.24,0,0,0,1.74-.47v1.34a4.7,4.7,0,0,1-2.17.44,2.78,2.78,0,0,1-3.05-3,3.2,3.2,0,0,1,.86-2.37,2.9,2.9,0,0,1,2.14-.87,2.63,2.63,0,0,1,2,.78,3,3,0,0,1,.71,2.11Zm-1.71-1.13q0-1.29-1.05-1.29a1,1,0,0,0-.77.37,1.64,1.64,0,0,0-.39.92Z" fill="#1e1e1e"/>
      <path d="M436.25,197.77l-1.73,6h-1.94l-.89-3.52a4.36,4.36,0,0,1-.1-.77h0a4.91,4.91,0,0,1-.12.75l-.95,3.54h-1.92l-1.69-6h1.88l.83,3.91a5,5,0,0,1,.09.67h0a3.56,3.56,0,0,1,.11-.69l1-3.89h1.76l.93,3.91c0,.1,0,.32.08.68h0a5.31,5.31,0,0,1,.1-.68l.78-3.91Z" fill="#1e1e1e"/>
      <path d="M442,203.77h-1.76v-.87h0a1.94,1.94,0,0,1-1.79,1,1.85,1.85,0,0,1-1.37-.49,1.79,1.79,0,0,1-.5-1.32c0-1.17.69-1.84,2.07-2l1.63-.22c0-.65-.36-1-1.07-1a3.64,3.64,0,0,0-2,.64v-1.4a4.67,4.67,0,0,1,1.06-.35,5.63,5.63,0,0,1,1.22-.15,2.27,2.27,0,0,1,2.57,2.56Zm-1.74-2.44v-.41l-1.09.14c-.6.08-.91.35-.91.82a.71.71,0,0,0,.22.52.89.89,0,0,0,.6.2,1.1,1.1,0,0,0,.85-.36A1.29,1.29,0,0,0,440.3,201.33Z" fill="#1e1e1e"/>
      <path d="M445.35,203.77H443.5v-8.89h1.85Z" fill="#1e1e1e"/>
      <path d="M379.39,218.17h-2.07l-.59-1.87h-3l-.59,1.87h-2l3-8.41h2.25Zm-3.1-3.33-.9-2.82a3.57,3.57,0,0,1-.14-.76h-.05a3.22,3.22,0,0,1-.14.74l-.92,2.84Z" fill="#1e1e1e"/>
      <path d="M382.13,217.47h0v3.45h-1.86v-8.75h1.86v.9h0a2.36,2.36,0,0,1,3.73-.25,3.43,3.43,0,0,1,.63,2.18,3.63,3.63,0,0,1-.74,2.4,2.4,2.4,0,0,1-2,.91A1.87,1.87,0,0,1,382.13,217.47Zm-.05-2.46v.48a1.57,1.57,0,0,0,.32,1,1.08,1.08,0,0,0,.87.39,1.12,1.12,0,0,0,1-.49,2.34,2.34,0,0,0,.35-1.38c0-1.06-.41-1.58-1.23-1.58a1.15,1.15,0,0,0-.93.43A1.69,1.69,0,0,0,382.08,215Z" fill="#1e1e1e"/>
      <path d="M389.59,217.47h0v3.45h-1.85v-8.75h1.85v.9h0a2.36,2.36,0,0,1,3.73-.25A3.37,3.37,0,0,1,394,215a3.68,3.68,0,0,1-.74,2.4,2.41,2.41,0,0,1-2,.91A1.88,1.88,0,0,1,389.59,217.47Zm0-2.46v.48a1.52,1.52,0,0,0,.33,1,1.06,1.06,0,0,0,.86.39,1.12,1.12,0,0,0,1-.49,2.34,2.34,0,0,0,.35-1.38c0-1.06-.41-1.58-1.23-1.58a1.15,1.15,0,0,0-.93.43A1.69,1.69,0,0,0,389.54,215Z" fill="#1e1e1e"/>
      <path d="M398.27,217.84V216a3.54,3.54,0,0,0,2.31.85,2.77,2.77,0,0,0,.62-.06,1.32,1.32,0,0,0,.45-.18.87.87,0,0,0,.27-.27A.77.77,0,0,0,402,216a.7.7,0,0,0-.14-.44,1.63,1.63,0,0,0-.38-.35,3.87,3.87,0,0,0-.58-.32l-.72-.31a3.73,3.73,0,0,1-1.47-1,2.21,2.21,0,0,1-.48-1.43,2.33,2.33,0,0,1,.26-1.13,2.44,2.44,0,0,1,.72-.78,3.11,3.11,0,0,1,1.05-.44,5.2,5.2,0,0,1,1.27-.15,7.92,7.92,0,0,1,1.16.08,5.17,5.17,0,0,1,.94.24v1.76a2.59,2.59,0,0,0-.46-.26,3.24,3.24,0,0,0-.52-.19,4.76,4.76,0,0,0-.52-.1,2.89,2.89,0,0,0-.5,0,2.58,2.58,0,0,0-.58.06,1.57,1.57,0,0,0-.45.17,1,1,0,0,0-.28.27.69.69,0,0,0,0,.73,1.36,1.36,0,0,0,.32.31,3.66,3.66,0,0,0,.5.3l.66.29a7,7,0,0,1,.91.45,3.37,3.37,0,0,1,.68.54,1.9,1.9,0,0,1,.44.68,2.44,2.44,0,0,1,.16.89,2.34,2.34,0,0,1-.27,1.18,2.25,2.25,0,0,1-.72.78,3,3,0,0,1-1.07.42,5.85,5.85,0,0,1-1.28.13,6.86,6.86,0,0,1-1.31-.12A3.52,3.52,0,0,1,398.27,217.84Z" fill="#1e1e1e"/>
      <path d="M410.6,215.69h-3.92c.06.87.61,1.31,1.65,1.31a3.24,3.24,0,0,0,1.74-.47v1.34a4.68,4.68,0,0,1-2.16.44,2.78,2.78,0,0,1-3.06-3.05,3.2,3.2,0,0,1,.87-2.37,2.87,2.87,0,0,1,2.13-.87,2.63,2.63,0,0,1,2,.78,3,3,0,0,1,.72,2.11Zm-1.72-1.13c0-.86-.35-1.29-1-1.29a1,1,0,0,0-.77.37,1.65,1.65,0,0,0-.4.92Z" fill="#1e1e1e"/>
      <path d="M415.69,213.84a1.5,1.5,0,0,0-.78-.19,1.1,1.1,0,0,0-.94.45,1.88,1.88,0,0,0-.34,1.2v2.87h-1.86v-6h1.86v1.11h0a1.6,1.6,0,0,1,1.58-1.22,1.14,1.14,0,0,1,.46.07Z" fill="#1e1e1e"/>
      <path d="M422.64,212.17l-2.23,6H418.3l-2.13-6h2l1,3.69a5.38,5.38,0,0,1,.21,1.07h0a6,6,0,0,1,.22-1l1.06-3.73Z" fill="#1e1e1e"/>
      <path d="M424.4,211.22a1.12,1.12,0,0,1-.77-.28.91.91,0,0,1-.3-.68.85.85,0,0,1,.3-.68,1.11,1.11,0,0,1,.77-.27,1.1,1.1,0,0,1,.77.27.85.85,0,0,1,.3.68.89.89,0,0,1-.3.69A1.1,1.1,0,0,1,424.4,211.22Zm.92,6.95h-1.86v-6h1.86Z" fill="#1e1e1e"/>
      <path d="M431.39,218a3.69,3.69,0,0,1-1.81.36,3.06,3.06,0,0,1-2.24-.84,2.88,2.88,0,0,1-.85-2.16,3.19,3.19,0,0,1,.91-2.41,3.4,3.4,0,0,1,2.46-.88,3.1,3.1,0,0,1,1.53.28v1.57a2.09,2.09,0,0,0-1.29-.43,1.82,1.82,0,0,0-1.29,3,1.66,1.66,0,0,0,1.23.45,2.42,2.42,0,0,0,1.35-.43Z" fill="#1e1e1e"/>
      <path d="M438,215.69H434.1c.06.87.61,1.31,1.65,1.31a3.24,3.24,0,0,0,1.74-.47v1.34a4.68,4.68,0,0,1-2.16.44,3.09,3.09,0,0,1-2.26-.8,3,3,0,0,1-.8-2.25,3.24,3.24,0,0,1,.86-2.37,2.9,2.9,0,0,1,2.14-.87,2.63,2.63,0,0,1,2,.78,3,3,0,0,1,.72,2.11Zm-1.72-1.13c0-.86-.35-1.29-1-1.29a1,1,0,0,0-.78.37,1.71,1.71,0,0,0-.39.92Z" fill="#1e1e1e"/>
    </g>
    <g>
      <g>
        <path d="M388.11,12.88l-2.23,6h-2.11l-2.13-6h2l1.05,3.7a5.91,5.91,0,0,1,.2,1.07h0a5.87,5.87,0,0,1,.21-1l1.07-3.74Z"/>
        <path d="M398.46,18.88h-1.84V15.46c0-.87-.32-1.31-1-1.31a.91.91,0,0,0-.75.4,1.6,1.6,0,0,0-.28,1v3.35h-1.86V15.43c0-.85-.31-1.28-.94-1.28a.92.92,0,0,0-.76.38,1.65,1.65,0,0,0-.28,1v3.33h-1.85v-6h1.85v.94h0a2.17,2.17,0,0,1,.81-.78,2.2,2.2,0,0,1,1.13-.3,1.72,1.72,0,0,1,1.74,1.12,2.22,2.22,0,0,1,2-1.12c1.3,0,1.95.8,1.95,2.41Z"/>
        <path d="M402,16v2.89h-1.89v-8.4h3c2.12,0,3.18.89,3.18,2.68a2.58,2.58,0,0,1-.91,2.05,3.63,3.63,0,0,1-2.44.78Zm0-4.06v2.62h.75c1,0,1.51-.44,1.51-1.32s-.51-1.3-1.51-1.3Z"/>
        <path d="M410,19a3.23,3.23,0,0,1-2.36-.84,3.05,3.05,0,0,1-.86-2.28,3.05,3.05,0,0,1,.89-2.33,3.38,3.38,0,0,1,2.41-.84,3.2,3.2,0,0,1,2.35.84,3,3,0,0,1,.85,2.22,3.18,3.18,0,0,1-.88,2.36A3.24,3.24,0,0,1,410,19Zm0-4.88a1.21,1.21,0,0,0-1,.46,2,2,0,0,0-.37,1.27c0,1.16.47,1.73,1.4,1.73s1.33-.59,1.33-1.77S410.92,14.15,410,14.15Z"/>
        <path d="M417.32,19a3.23,3.23,0,0,1-2.36-.84,3.05,3.05,0,0,1-.86-2.28,3.05,3.05,0,0,1,.89-2.33,3.37,3.37,0,0,1,2.41-.84,3.18,3.18,0,0,1,2.34.84,3,3,0,0,1,.85,2.22,3.18,3.18,0,0,1-.87,2.36A3.27,3.27,0,0,1,417.32,19Zm0-4.88a1.24,1.24,0,0,0-1,.46,2,2,0,0,0-.36,1.27c0,1.16.46,1.73,1.39,1.73s1.33-.59,1.33-1.77S418.26,14.15,417.36,14.15Z"/>
        <path d="M423.64,18.88h-1.85V10h1.85Z"/>
      </g>
      <g>
        <path d="M388.11,12.88l-2.23,6h-2.11l-2.13-6h2l1.05,3.7a5.91,5.91,0,0,1,.2,1.07h0a5.87,5.87,0,0,1,.21-1l1.07-3.74Z" fill="#1e1e1e"/>
        <path d="M398.46,18.88h-1.84V15.46c0-.87-.32-1.31-1-1.31a.91.91,0,0,0-.75.4,1.6,1.6,0,0,0-.28,1v3.35h-1.86V15.43c0-.85-.31-1.28-.94-1.28a.92.92,0,0,0-.76.38,1.65,1.65,0,0,0-.28,1v3.33h-1.85v-6h1.85v.94h0a2.17,2.17,0,0,1,.81-.78,2.2,2.2,0,0,1,1.13-.3,1.72,1.72,0,0,1,1.74,1.12,2.22,2.22,0,0,1,2-1.12c1.3,0,1.95.8,1.95,2.41Z" fill="#1e1e1e"/>
        <path d="M402,16v2.89h-1.89v-8.4h3c2.12,0,3.18.89,3.18,2.68a2.58,2.58,0,0,1-.91,2.05,3.63,3.63,0,0,1-2.44.78Zm0-4.06v2.62h.75c1,0,1.51-.44,1.51-1.32s-.51-1.3-1.51-1.3Z" fill="#1e1e1e"/>
        <path d="M410,19a3.23,3.23,0,0,1-2.36-.84,3.05,3.05,0,0,1-.86-2.28,3.05,3.05,0,0,1,.89-2.33,3.38,3.38,0,0,1,2.41-.84,3.2,3.2,0,0,1,2.35.84,3,3,0,0,1,.85,2.22,3.18,3.18,0,0,1-.88,2.36A3.24,3.24,0,0,1,410,19Zm0-4.88a1.21,1.21,0,0,0-1,.46,2,2,0,0,0-.37,1.27c0,1.16.47,1.73,1.4,1.73s1.33-.59,1.33-1.77S410.92,14.15,410,14.15Z" fill="#1e1e1e"/>
        <path d="M417.32,19a3.23,3.23,0,0,1-2.36-.84,3.05,3.05,0,0,1-.86-2.28,3.05,3.05,0,0,1,.89-2.33,3.37,3.37,0,0,1,2.41-.84,3.18,3.18,0,0,1,2.34.84,3,3,0,0,1,.85,2.22,3.18,3.18,0,0,1-.87,2.36A3.27,3.27,0,0,1,417.32,19Zm0-4.88a1.24,1.24,0,0,0-1,.46,2,2,0,0,0-.36,1.27c0,1.16.46,1.73,1.39,1.73s1.33-.59,1.33-1.77S418.26,14.15,417.36,14.15Z" fill="#1e1e1e"/>
        <path d="M423.64,18.88h-1.85V10h1.85Z" fill="#1e1e1e"/>
      </g>
    </g>
    <g>
      <g>
        <path d="M365.11,138.16h-1.75v-.86h0a2,2,0,0,1-1.78,1,1.88,1.88,0,0,1-1.38-.5,1.79,1.79,0,0,1-.5-1.32c0-1.16.69-1.84,2.07-2l1.63-.21c0-.66-.36-1-1.07-1a3.72,3.72,0,0,0-2,.64v-1.39a4.22,4.22,0,0,1,1.06-.35,5.18,5.18,0,0,1,1.22-.16,2.27,2.27,0,0,1,2.57,2.56Zm-1.74-2.44v-.4l-1.09.14q-.9.12-.9.81a.66.66,0,0,0,.22.52.8.8,0,0,0,.59.2,1.1,1.1,0,0,0,.85-.36A1.29,1.29,0,0,0,363.37,135.72Z"/>
        <path d="M368.45,137.46h0v3.46h-1.86v-8.76h1.86v.9h0a2.36,2.36,0,0,1,3.73-.25,3.45,3.45,0,0,1,.63,2.18,3.67,3.67,0,0,1-.74,2.41,2.43,2.43,0,0,1-2,.91A1.86,1.86,0,0,1,368.45,137.46ZM368.4,135v.48a1.59,1.59,0,0,0,.32,1,1.08,1.08,0,0,0,.87.39,1.14,1.14,0,0,0,1-.49,2.4,2.4,0,0,0,.35-1.39c0-1-.41-1.58-1.23-1.58a1.18,1.18,0,0,0-.93.43A1.73,1.73,0,0,0,368.4,135Z"/>
        <path d="M375.91,137.46h0v3.46H374v-8.76h1.85v.9h0a2.36,2.36,0,0,1,3.73-.25,3.39,3.39,0,0,1,.64,2.18,3.73,3.73,0,0,1-.74,2.41,2.44,2.44,0,0,1-2,.91A1.86,1.86,0,0,1,375.91,137.46Zm-.05-2.46v.48a1.54,1.54,0,0,0,.33,1,1.06,1.06,0,0,0,.86.39,1.12,1.12,0,0,0,1-.49,2.4,2.4,0,0,0,.35-1.39c0-1-.41-1.58-1.23-1.58a1.18,1.18,0,0,0-.93.43A1.73,1.73,0,0,0,375.86,135Z"/>
        <path d="M381.28,137.84V136a3.45,3.45,0,0,0,1.11.64,3.4,3.4,0,0,0,1.21.22,2.3,2.3,0,0,0,.62-.07,1.57,1.57,0,0,0,.45-.17.83.83,0,0,0,.26-.27A.69.69,0,0,0,385,136a.74.74,0,0,0-.14-.44,1.47,1.47,0,0,0-.38-.36,4.45,4.45,0,0,0-.58-.31c-.22-.11-.46-.21-.72-.31a3.66,3.66,0,0,1-1.47-1,2.19,2.19,0,0,1-.48-1.43,2.32,2.32,0,0,1,.26-1.12,2.25,2.25,0,0,1,.72-.78,3.33,3.33,0,0,1,1-.45,5.75,5.75,0,0,1,1.27-.14,6.81,6.81,0,0,1,1.16.08,4.22,4.22,0,0,1,.93.24v1.75a2.9,2.9,0,0,0-.46-.26,3.82,3.82,0,0,0-.51-.18,3.21,3.21,0,0,0-.52-.11l-.5,0a2.58,2.58,0,0,0-.58.06,1.57,1.57,0,0,0-.45.17.81.81,0,0,0-.28.27.6.6,0,0,0-.1.35.67.67,0,0,0,.11.37,1.38,1.38,0,0,0,.32.32,2.54,2.54,0,0,0,.5.29,7,7,0,0,0,.66.3,6.86,6.86,0,0,1,.9.45,2.87,2.87,0,0,1,.69.53,2.08,2.08,0,0,1,.44.69,2.4,2.4,0,0,1,.15.89,2.48,2.48,0,0,1-.26,1.18,2.08,2.08,0,0,1-.73.77,3.15,3.15,0,0,1-1.06.43,6.53,6.53,0,0,1-1.28.13,7,7,0,0,1-1.32-.12A4.42,4.42,0,0,1,381.28,137.84Z"/>
        <path d="M393.61,135.69H389.7c.06.87.61,1.3,1.65,1.3a3.23,3.23,0,0,0,1.74-.46v1.33a4.57,4.57,0,0,1-2.17.45,2.79,2.79,0,0,1-3.05-3.06,3.19,3.19,0,0,1,.86-2.36,2.87,2.87,0,0,1,2.14-.88,2.63,2.63,0,0,1,2,.78,3.05,3.05,0,0,1,.71,2.12Zm-1.71-1.14q0-1.29-1-1.29a1,1,0,0,0-.77.37,1.67,1.67,0,0,0-.39.92Z"/>
        <path d="M398.71,133.83a1.66,1.66,0,0,0-.78-.18,1.14,1.14,0,0,0-.95.44,2,2,0,0,0-.34,1.21v2.86h-1.85v-6h1.85v1.11h0a1.6,1.6,0,0,1,1.58-1.22,1.15,1.15,0,0,1,.46.08Z"/>
        <path d="M405.66,132.16l-2.24,6h-2.11l-2.12-6h2l1,3.7a5.3,5.3,0,0,1,.21,1.06h0a6.23,6.23,0,0,1,.22-1l1.06-3.73Z"/>
        <path d="M407.42,131.21a1.07,1.07,0,0,1-.77-.28.88.88,0,0,1-.3-.68.87.87,0,0,1,.3-.68,1.27,1.27,0,0,1,1.54,0,.86.86,0,0,1,.29.68.88.88,0,0,1-.29.69A1.11,1.11,0,0,1,407.42,131.21Zm.91,6.95h-1.85v-6h1.85Z"/>
        <path d="M414.41,137.94a3.57,3.57,0,0,1-1.81.37,3.06,3.06,0,0,1-2.24-.84,2.89,2.89,0,0,1-.85-2.16,3.17,3.17,0,0,1,.91-2.41,3.38,3.38,0,0,1,2.45-.89,3.13,3.13,0,0,1,1.54.29v1.57a2.13,2.13,0,0,0-1.3-.44,1.71,1.71,0,0,0-1.26.47,1.73,1.73,0,0,0-.46,1.28,1.67,1.67,0,0,0,.44,1.25,1.63,1.63,0,0,0,1.23.46,2.5,2.5,0,0,0,1.35-.43Z"/>
        <path d="M421,135.69h-3.91c.06.87.61,1.3,1.65,1.3a3.23,3.23,0,0,0,1.74-.46v1.33a4.57,4.57,0,0,1-2.17.45,2.81,2.81,0,0,1-3.06-3.06,3.19,3.19,0,0,1,.87-2.36,2.87,2.87,0,0,1,2.13-.88,2.64,2.64,0,0,1,2,.78,3.05,3.05,0,0,1,.71,2.12Zm-1.71-1.14q0-1.29-1.05-1.29a1,1,0,0,0-.77.37,1.67,1.67,0,0,0-.39.92Z"/>
        <path d="M424.26,135.27v2.89h-1.9v-8.4h3c2.11,0,3.17.89,3.17,2.68a2.55,2.55,0,0,1-.91,2,3.57,3.57,0,0,1-2.43.79Zm0-4.06v2.62H425c1,0,1.51-.44,1.51-1.32s-.5-1.3-1.51-1.3Z"/>
        <path d="M432.26,138.31a3.24,3.24,0,0,1-2.36-.84,3.5,3.5,0,0,1,0-4.62,3.34,3.34,0,0,1,2.4-.84,3.2,3.2,0,0,1,2.35.84,3,3,0,0,1,.85,2.23,3.16,3.16,0,0,1-.88,2.36A3.24,3.24,0,0,1,432.26,138.31Zm.05-4.88a1.23,1.23,0,0,0-1,.45,2,2,0,0,0-.36,1.28c0,1.15.46,1.73,1.39,1.73s1.33-.59,1.33-1.78S433.2,133.43,432.31,133.43Z"/>
        <path d="M439.6,138.31a3.23,3.23,0,0,1-2.36-.84,3.49,3.49,0,0,1,0-4.62,3.38,3.38,0,0,1,2.41-.84,3.16,3.16,0,0,1,2.34.84,3,3,0,0,1,.85,2.23,3.19,3.19,0,0,1-.87,2.36A3.27,3.27,0,0,1,439.6,138.31Zm0-4.88a1.23,1.23,0,0,0-1,.45,2,2,0,0,0-.37,1.28c0,1.15.47,1.73,1.4,1.73s1.33-.59,1.33-1.78S440.54,133.43,439.65,133.43Z"/>
        <path d="M445.93,138.16h-1.86v-8.88h1.86Z"/>
      </g>
      <g>
        <path d="M365.11,138.16h-1.75v-.86h0a2,2,0,0,1-1.78,1,1.88,1.88,0,0,1-1.38-.5,1.79,1.79,0,0,1-.5-1.32c0-1.16.69-1.84,2.07-2l1.63-.21c0-.66-.36-1-1.07-1a3.72,3.72,0,0,0-2,.64v-1.39a4.22,4.22,0,0,1,1.06-.35,5.18,5.18,0,0,1,1.22-.16,2.27,2.27,0,0,1,2.57,2.56Zm-1.74-2.44v-.4l-1.09.14q-.9.12-.9.81a.66.66,0,0,0,.22.52.8.8,0,0,0,.59.2,1.1,1.1,0,0,0,.85-.36A1.29,1.29,0,0,0,363.37,135.72Z" fill="#1e1e1e"/>
        <path d="M368.45,137.46h0v3.46h-1.86v-8.76h1.86v.9h0a2.36,2.36,0,0,1,3.73-.25,3.45,3.45,0,0,1,.63,2.18,3.67,3.67,0,0,1-.74,2.41,2.43,2.43,0,0,1-2,.91A1.86,1.86,0,0,1,368.45,137.46ZM368.4,135v.48a1.59,1.59,0,0,0,.32,1,1.08,1.08,0,0,0,.87.39,1.14,1.14,0,0,0,1-.49,2.4,2.4,0,0,0,.35-1.39c0-1-.41-1.58-1.23-1.58a1.18,1.18,0,0,0-.93.43A1.73,1.73,0,0,0,368.4,135Z" fill="#1e1e1e"/>
        <path d="M375.91,137.46h0v3.46H374v-8.76h1.85v.9h0a2.36,2.36,0,0,1,3.73-.25,3.39,3.39,0,0,1,.64,2.18,3.73,3.73,0,0,1-.74,2.41,2.44,2.44,0,0,1-2,.91A1.86,1.86,0,0,1,375.91,137.46Zm-.05-2.46v.48a1.54,1.54,0,0,0,.33,1,1.06,1.06,0,0,0,.86.39,1.12,1.12,0,0,0,1-.49,2.4,2.4,0,0,0,.35-1.39c0-1-.41-1.58-1.23-1.58a1.18,1.18,0,0,0-.93.43A1.73,1.73,0,0,0,375.86,135Z" fill="#1e1e1e"/>
        <path d="M381.28,137.84V136a3.45,3.45,0,0,0,1.11.64,3.4,3.4,0,0,0,1.21.22,2.3,2.3,0,0,0,.62-.07,1.57,1.57,0,0,0,.45-.17.83.83,0,0,0,.26-.27A.69.69,0,0,0,385,136a.74.74,0,0,0-.14-.44,1.47,1.47,0,0,0-.38-.36,4.45,4.45,0,0,0-.58-.31c-.22-.11-.46-.21-.72-.31a3.66,3.66,0,0,1-1.47-1,2.19,2.19,0,0,1-.48-1.43,2.32,2.32,0,0,1,.26-1.12,2.25,2.25,0,0,1,.72-.78,3.33,3.33,0,0,1,1-.45,5.75,5.75,0,0,1,1.27-.14,6.81,6.81,0,0,1,1.16.08,4.22,4.22,0,0,1,.93.24v1.75a2.9,2.9,0,0,0-.46-.26,3.82,3.82,0,0,0-.51-.18,3.21,3.21,0,0,0-.52-.11l-.5,0a2.58,2.58,0,0,0-.58.06,1.57,1.57,0,0,0-.45.17.81.81,0,0,0-.28.27.6.6,0,0,0-.1.35.67.67,0,0,0,.11.37,1.38,1.38,0,0,0,.32.32,2.54,2.54,0,0,0,.5.29,7,7,0,0,0,.66.3,6.86,6.86,0,0,1,.9.45,2.87,2.87,0,0,1,.69.53,2.08,2.08,0,0,1,.44.69,2.4,2.4,0,0,1,.15.89,2.48,2.48,0,0,1-.26,1.18,2.08,2.08,0,0,1-.73.77,3.15,3.15,0,0,1-1.06.43,6.53,6.53,0,0,1-1.28.13,7,7,0,0,1-1.32-.12A4.42,4.42,0,0,1,381.28,137.84Z" fill="#1e1e1e"/>
        <path d="M393.61,135.69H389.7c.06.87.61,1.3,1.65,1.3a3.23,3.23,0,0,0,1.74-.46v1.33a4.57,4.57,0,0,1-2.17.45,2.79,2.79,0,0,1-3.05-3.06,3.19,3.19,0,0,1,.86-2.36,2.87,2.87,0,0,1,2.14-.88,2.63,2.63,0,0,1,2,.78,3.05,3.05,0,0,1,.71,2.12Zm-1.71-1.14q0-1.29-1-1.29a1,1,0,0,0-.77.37,1.67,1.67,0,0,0-.39.92Z" fill="#1e1e1e"/>
        <path d="M398.71,133.83a1.66,1.66,0,0,0-.78-.18,1.14,1.14,0,0,0-.95.44,2,2,0,0,0-.34,1.21v2.86h-1.85v-6h1.85v1.11h0a1.6,1.6,0,0,1,1.58-1.22,1.15,1.15,0,0,1,.46.08Z" fill="#1e1e1e"/>
        <path d="M405.66,132.16l-2.24,6h-2.11l-2.12-6h2l1,3.7a5.3,5.3,0,0,1,.21,1.06h0a6.23,6.23,0,0,1,.22-1l1.06-3.73Z" fill="#1e1e1e"/>
        <path d="M407.42,131.21a1.07,1.07,0,0,1-.77-.28.88.88,0,0,1-.3-.68.87.87,0,0,1,.3-.68,1.27,1.27,0,0,1,1.54,0,.86.86,0,0,1,.29.68.88.88,0,0,1-.29.69A1.11,1.11,0,0,1,407.42,131.21Zm.91,6.95h-1.85v-6h1.85Z" fill="#1e1e1e"/>
        <path d="M414.41,137.94a3.57,3.57,0,0,1-1.81.37,3.06,3.06,0,0,1-2.24-.84,2.89,2.89,0,0,1-.85-2.16,3.17,3.17,0,0,1,.91-2.41,3.38,3.38,0,0,1,2.45-.89,3.13,3.13,0,0,1,1.54.29v1.57a2.13,2.13,0,0,0-1.3-.44,1.71,1.71,0,0,0-1.26.47,1.73,1.73,0,0,0-.46,1.28,1.67,1.67,0,0,0,.44,1.25,1.63,1.63,0,0,0,1.23.46,2.5,2.5,0,0,0,1.35-.43Z" fill="#1e1e1e"/>
        <path d="M421,135.69h-3.91c.06.87.61,1.3,1.65,1.3a3.23,3.23,0,0,0,1.74-.46v1.33a4.57,4.57,0,0,1-2.17.45,2.81,2.81,0,0,1-3.06-3.06,3.19,3.19,0,0,1,.87-2.36,2.87,2.87,0,0,1,2.13-.88,2.64,2.64,0,0,1,2,.78,3.05,3.05,0,0,1,.71,2.12Zm-1.71-1.14q0-1.29-1.05-1.29a1,1,0,0,0-.77.37,1.67,1.67,0,0,0-.39.92Z" fill="#1e1e1e"/>
        <path d="M424.26,135.27v2.89h-1.9v-8.4h3c2.11,0,3.17.89,3.17,2.68a2.55,2.55,0,0,1-.91,2,3.57,3.57,0,0,1-2.43.79Zm0-4.06v2.62H425c1,0,1.51-.44,1.51-1.32s-.5-1.3-1.51-1.3Z" fill="#1e1e1e"/>
        <path d="M432.26,138.31a3.24,3.24,0,0,1-2.36-.84,3.5,3.5,0,0,1,0-4.62,3.34,3.34,0,0,1,2.4-.84,3.2,3.2,0,0,1,2.35.84,3,3,0,0,1,.85,2.23,3.16,3.16,0,0,1-.88,2.36A3.24,3.24,0,0,1,432.26,138.31Zm.05-4.88a1.23,1.23,0,0,0-1,.45,2,2,0,0,0-.36,1.28c0,1.15.46,1.73,1.39,1.73s1.33-.59,1.33-1.78S433.2,133.43,432.31,133.43Z" fill="#1e1e1e"/>
        <path d="M439.6,138.31a3.23,3.23,0,0,1-2.36-.84,3.49,3.49,0,0,1,0-4.62,3.38,3.38,0,0,1,2.41-.84,3.16,3.16,0,0,1,2.34.84,3,3,0,0,1,.85,2.23,3.19,3.19,0,0,1-.87,2.36A3.27,3.27,0,0,1,439.6,138.31Zm0-4.88a1.23,1.23,0,0,0-1,.45,2,2,0,0,0-.37,1.28c0,1.15.47,1.73,1.4,1.73s1.33-.59,1.33-1.78S440.54,133.43,439.65,133.43Z" fill="#1e1e1e"/>
        <path d="M445.93,138.16h-1.86v-8.88h1.86Z" fill="#1e1e1e"/>
      </g>
    </g>
    <g>
      <path d="M56,72.32l-2.23,6H51.7l-2.13-6h2l1,3.69a5.27,5.27,0,0,1,.2,1.07h0a5.87,5.87,0,0,1,.21-1l1.07-3.73Z" fill="#1e1e1e"/>
      <path d="M62,75.84H58.13c.06.88.61,1.31,1.64,1.31a3.16,3.16,0,0,0,1.75-.47V78a4.58,4.58,0,0,1-2.17.44,3,3,0,0,1-2.25-.8,3,3,0,0,1-.81-2.25A3.23,3.23,0,0,1,57.16,73a2.9,2.9,0,0,1,2.13-.87,2.6,2.6,0,0,1,2,.78A3,3,0,0,1,62,75.07Zm-1.71-1.13q0-1.29-1-1.29a1,1,0,0,0-.77.37,1.64,1.64,0,0,0-.39.92Z" fill="#1e1e1e"/>
      <path d="M69,78.32H67.14V74.91c0-.88-.32-1.32-1-1.32a1,1,0,0,0-.79.37,1.38,1.38,0,0,0-.31.94v3.42H63.22V69.43h1.85v3.78h0a2.09,2.09,0,0,1,1.84-1q2,0,2,2.46Z" fill="#1e1e1e"/>
      <path d="M71.36,71.37a1.05,1.05,0,0,1-.76-.28.9.9,0,0,1-.3-.68.85.85,0,0,1,.3-.68,1.09,1.09,0,0,1,.76-.27,1.12,1.12,0,0,1,.78.27.88.88,0,0,1,.29.68.91.91,0,0,1-.29.69A1.12,1.12,0,0,1,71.36,71.37Zm.92,6.95H70.43v-6h1.85Z" fill="#1e1e1e"/>
      <path d="M78.36,78.1a3.69,3.69,0,0,1-1.81.36,3.08,3.08,0,0,1-2.24-.83,2.91,2.91,0,0,1-.86-2.17,3.19,3.19,0,0,1,.92-2.41,3.42,3.42,0,0,1,2.45-.88,3.14,3.14,0,0,1,1.54.28V74a2.12,2.12,0,0,0-1.3-.43,1.7,1.7,0,0,0-1.26.46,1.76,1.76,0,0,0-.47,1.29,1.69,1.69,0,0,0,.45,1.25,1.64,1.64,0,0,0,1.22.46,2.46,2.46,0,0,0,1.36-.44Z" fill="#1e1e1e"/>
      <path d="M81.52,78.32H79.67V69.43h1.85Z" fill="#1e1e1e"/>
      <path d="M88.49,75.84H84.57c.07.88.61,1.31,1.65,1.31A3.15,3.15,0,0,0,88,76.68V78a4.56,4.56,0,0,1-2.16.44,3,3,0,0,1-2.26-.8,3.08,3.08,0,0,1-.8-2.25A3.23,3.23,0,0,1,83.61,73a2.88,2.88,0,0,1,2.13-.87,2.63,2.63,0,0,1,2,.78,3,3,0,0,1,.72,2.12Zm-1.72-1.13c0-.86-.35-1.29-1-1.29a1,1,0,0,0-.77.37,1.65,1.65,0,0,0-.4.92Z" fill="#1e1e1e"/>
      <path d="M97.12,78.32H95.06l-.6-1.87h-3l-.6,1.87h-2l3.06-8.4h2.25ZM94,75l-.9-2.83a3.59,3.59,0,0,1-.14-.75h0a3.16,3.16,0,0,1-.15.73L91.88,75Z" fill="#1e1e1e"/>
      <path d="M99.87,77.62h0v3.46H98V72.32h1.85v.9h0a2.16,2.16,0,0,1,1.92-1,2.2,2.2,0,0,1,1.81.8,3.43,3.43,0,0,1,.63,2.18,3.73,3.73,0,0,1-.74,2.41,2.42,2.42,0,0,1-2,.9A1.87,1.87,0,0,1,99.87,77.62Zm-.06-2.46v.48a1.52,1.52,0,0,0,.33,1,1.06,1.06,0,0,0,.86.4,1.14,1.14,0,0,0,1-.49,2.32,2.32,0,0,0,.35-1.39c0-1-.41-1.58-1.23-1.58a1.15,1.15,0,0,0-.93.43A1.73,1.73,0,0,0,99.81,75.16Z" fill="#1e1e1e"/>
      <path d="M107.33,77.62h0v3.46h-1.85V72.32h1.85v.9h0a2.36,2.36,0,0,1,3.73-.25,3.43,3.43,0,0,1,.64,2.18,3.68,3.68,0,0,1-.75,2.41,2.42,2.42,0,0,1-2,.9A1.87,1.87,0,0,1,107.33,77.62Zm0-2.46v.48a1.52,1.52,0,0,0,.33,1,1,1,0,0,0,.86.4,1.15,1.15,0,0,0,1-.49,2.4,2.4,0,0,0,.35-1.39c0-1-.41-1.58-1.23-1.58a1.15,1.15,0,0,0-.93.43A1.73,1.73,0,0,0,107.28,75.16Z" fill="#1e1e1e"/>
      <path d="M120.06,77.76a6.08,6.08,0,0,1-3.06.7,4.43,4.43,0,0,1-3.2-1.12,4.08,4.08,0,0,1-1.16-3.09A4.32,4.32,0,0,1,113.91,71a4.67,4.67,0,0,1,3.4-1.25,7.09,7.09,0,0,1,2.36.37v1.78a4.63,4.63,0,0,0-2.38-.56,2.54,2.54,0,0,0-1.92.76,2.78,2.78,0,0,0-.74,2,2.85,2.85,0,0,0,.66,2,2.36,2.36,0,0,0,1.8.71,2.51,2.51,0,0,0,1.08-.2V75h-1.69V73.53h3.58Z" fill="#1e1e1e"/>
      <path d="M126.59,78.32h-1.75v-.86h0a1.94,1.94,0,0,1-1.78,1,1.88,1.88,0,0,1-1.38-.49,1.79,1.79,0,0,1-.5-1.32c0-1.17.69-1.84,2.07-2l1.63-.21c0-.66-.36-1-1.07-1a3.64,3.64,0,0,0-2,.64v-1.4a4.67,4.67,0,0,1,1.06-.35,5.63,5.63,0,0,1,1.22-.15,2.27,2.27,0,0,1,2.57,2.56Zm-1.74-2.44v-.4l-1.09.14c-.6.07-.9.35-.9.81a.67.67,0,0,0,.22.52.84.84,0,0,0,.59.2,1.1,1.1,0,0,0,.85-.36A1.29,1.29,0,0,0,124.85,75.88Z" fill="#1e1e1e"/>
      <path d="M131.59,78.25a2.78,2.78,0,0,1-1.23.21c-1.31,0-2-.67-2-2V73.68h-1V72.32h1V71l1.84-.52v1.82h1.35v1.36h-1.35v2.43c0,.62.25.94.75.94a1.27,1.27,0,0,0,.6-.17Z" fill="#1e1e1e"/>
      <path d="M138,75.84H134.1c.07.88.62,1.31,1.65,1.31a3.15,3.15,0,0,0,1.74-.47V78a4.51,4.51,0,0,1-2.16.44,3,3,0,0,1-2.26-.8,3.08,3.08,0,0,1-.8-2.25,3.23,3.23,0,0,1,.87-2.37,2.9,2.9,0,0,1,2.13-.87,2.62,2.62,0,0,1,2,.78,3,3,0,0,1,.72,2.12Zm-1.72-1.13c0-.86-.35-1.29-1-1.29a1,1,0,0,0-.77.37,1.65,1.65,0,0,0-.4.92Z" fill="#1e1e1e"/>
      <path d="M147.77,72.32l-1.73,6h-1.95l-.88-3.52a3.59,3.59,0,0,1-.1-.77h0a4,4,0,0,1-.11.75l-1,3.54h-1.92l-1.7-6h1.89l.83,3.91c0,.19.06.41.08.67h0a3.92,3.92,0,0,1,.1-.69l1-3.89h1.77l.92,3.91a4.44,4.44,0,0,1,.09.68h0c0-.23,0-.45.09-.68l.78-3.91Z" fill="#1e1e1e"/>
      <path d="M153.55,78.32H151.8v-.86h0a2,2,0,0,1-1.79,1,1.89,1.89,0,0,1-1.38-.49,1.79,1.79,0,0,1-.5-1.32c0-1.17.69-1.84,2.07-2l1.63-.21c0-.66-.35-1-1.07-1a3.58,3.58,0,0,0-2,.64v-1.4a4.57,4.57,0,0,1,1-.35,5.7,5.7,0,0,1,1.22-.15,2.26,2.26,0,0,1,2.57,2.56Zm-1.74-2.44v-.4l-1.09.14c-.6.07-.9.35-.9.81A.67.67,0,0,0,150,77a.86.86,0,0,0,.59.2,1.1,1.1,0,0,0,.85-.36A1.29,1.29,0,0,0,151.81,75.88Z" fill="#1e1e1e"/>
      <path d="M160.53,72.32l-2.44,6.48c-.59,1.56-1.47,2.34-2.65,2.34a3.18,3.18,0,0,1-1.11-.16V79.51a1.63,1.63,0,0,0,.81.21,1,1,0,0,0,1-.67l.32-.74-2.44-6h2.05L157.18,76a4.62,4.62,0,0,1,.17.8h0a5.22,5.22,0,0,1,.19-.79l1.13-3.66Z" fill="#1e1e1e"/>
    </g>
    <g>
      <path d="M193.34,36.6l-4,9.79h-.9l4-9.79Z" fill="#1e1e1e"/>
      <path d="M200.6,36.6,197.49,45H196.4l-3-8.4h1.09l2.33,6.66A4.27,4.27,0,0,1,197,44h0a3.5,3.5,0,0,1,.2-.75l2.37-6.65Z" fill="#1e1e1e"/>
      <path d="M205.74,42.24H201.5a2.3,2.3,0,0,0,.54,1.55,1.88,1.88,0,0,0,1.42.54,2.89,2.89,0,0,0,1.86-.67v.91a3.47,3.47,0,0,1-2.09.57,2.53,2.53,0,0,1-2-.82,3.35,3.35,0,0,1-.72-2.3,3.28,3.28,0,0,1,.79-2.28,2.54,2.54,0,0,1,2-.88,2.24,2.24,0,0,1,1.82.76,3.18,3.18,0,0,1,.65,2.12Zm-1-.81a1.91,1.91,0,0,0-.4-1.3,1.36,1.36,0,0,0-1.1-.46,1.56,1.56,0,0,0-1.15.48,2.25,2.25,0,0,0-.59,1.28Z" fill="#1e1e1e"/>
      <path d="M212.17,45h-1V41.54c0-1.25-.46-1.87-1.39-1.87a1.53,1.53,0,0,0-1.19.54,2,2,0,0,0-.48,1.39V45h-1V36.12h1V40h0a2.17,2.17,0,0,1,2-1.14c1.35,0,2,.81,2,2.44Z" fill="#1e1e1e"/>
      <path d="M214.48,37.48a.59.59,0,0,1-.44-.18.56.56,0,0,1-.19-.44.63.63,0,0,1,.63-.63.6.6,0,0,1,.44.18.58.58,0,0,1,.19.45.59.59,0,0,1-.19.44A.6.6,0,0,1,214.48,37.48Zm.46,7.52h-1V39h1Z" fill="#1e1e1e"/>
      <path d="M221,44.72a3.1,3.1,0,0,1-1.64.42,2.72,2.72,0,0,1-2.07-.83,3,3,0,0,1-.79-2.17,3.3,3.3,0,0,1,.85-2.38,3,3,0,0,1,2.27-.9,3.23,3.23,0,0,1,1.39.29v1a2.38,2.38,0,0,0-1.43-.47,1.93,1.93,0,0,0-1.51.66,2.5,2.5,0,0,0-.59,1.73,2.36,2.36,0,0,0,.56,1.66,1.89,1.89,0,0,0,1.48.61,2.39,2.39,0,0,0,1.48-.52Z" fill="#1e1e1e"/>
      <path d="M223.39,45h-1V36.12h1Z" fill="#1e1e1e"/>
      <path d="M230.16,42.24h-4.24a2.3,2.3,0,0,0,.54,1.55,1.88,1.88,0,0,0,1.42.54,2.89,2.89,0,0,0,1.86-.67v.91a3.47,3.47,0,0,1-2.09.57,2.54,2.54,0,0,1-2-.82,3.35,3.35,0,0,1-.72-2.3,3.28,3.28,0,0,1,.79-2.28,2.54,2.54,0,0,1,2-.88,2.26,2.26,0,0,1,1.83.76,3.18,3.18,0,0,1,.64,2.12Zm-1-.81a2,2,0,0,0-.41-1.3,1.34,1.34,0,0,0-1.09-.46,1.57,1.57,0,0,0-1.16.48,2.24,2.24,0,0,0-.58,1.28Z" fill="#1e1e1e"/>
      <path d="M237.77,45h-1.18l-1.4-2.36a5.74,5.74,0,0,0-.38-.55,1.68,1.68,0,0,0-.37-.38,1.36,1.36,0,0,0-.41-.22,1.88,1.88,0,0,0-.49-.06h-.81V45h-1V36.6h2.51a3.31,3.31,0,0,1,1,.14,2.38,2.38,0,0,1,.81.41,2.16,2.16,0,0,1,.53.7,2.33,2.33,0,0,1,.2,1,2.28,2.28,0,0,1-.14.8,2,2,0,0,1-.37.66,2.14,2.14,0,0,1-.59.48,3,3,0,0,1-.77.32v0a1.81,1.81,0,0,1,.66.5,2.75,2.75,0,0,1,.28.37l.31.48Zm-5-7.51v3h1.33a1.92,1.92,0,0,0,.69-.12,1.55,1.55,0,0,0,.54-.32,1.38,1.38,0,0,0,.36-.51,1.78,1.78,0,0,0,.12-.67,1.31,1.31,0,0,0-.43-1.05,1.84,1.84,0,0,0-1.27-.38Z" fill="#1e1e1e"/>
      <path d="M243.26,42.24H239a2.21,2.21,0,0,0,.54,1.55,1.85,1.85,0,0,0,1.41.54,2.94,2.94,0,0,0,1.87-.67v.91a3.53,3.53,0,0,1-2.1.57,2.51,2.51,0,0,1-2-.82,3.83,3.83,0,0,1,.06-4.58,2.55,2.55,0,0,1,2-.88,2.25,2.25,0,0,1,1.82.76,3.18,3.18,0,0,1,.64,2.12Zm-1-.81a2,2,0,0,0-.4-1.3,1.37,1.37,0,0,0-1.1-.46,1.57,1.57,0,0,0-1.16.48,2.24,2.24,0,0,0-.58,1.28Z" fill="#1e1e1e"/>
      <path d="M249.84,44.52q0,3.3-3.17,3.3a4.23,4.23,0,0,1-1.94-.42v-1a3.92,3.92,0,0,0,1.93.56c1.48,0,2.22-.78,2.22-2.35V44h0a2.42,2.42,0,0,1-3.86.35,3.17,3.17,0,0,1-.68-2.15,3.73,3.73,0,0,1,.73-2.43,2.46,2.46,0,0,1,2-.9,2,2,0,0,1,1.8,1h0V39h1Zm-1-2.23V41.4a1.73,1.73,0,0,0-.49-1.22,1.58,1.58,0,0,0-1.2-.51,1.66,1.66,0,0,0-1.4.65,2.91,2.91,0,0,0-.5,1.81,2.48,2.48,0,0,0,.48,1.6,1.57,1.57,0,0,0,1.28.6,1.69,1.69,0,0,0,1.32-.57A2.14,2.14,0,0,0,248.88,42.29Z" fill="#1e1e1e"/>
      <path d="M252.27,37.48a.62.62,0,0,1-.44-.18.59.59,0,0,1-.18-.44.61.61,0,0,1,.18-.45.62.62,0,0,1,.44-.18.61.61,0,0,1,.45.18.58.58,0,0,1,.19.45.59.59,0,0,1-.19.44A.61.61,0,0,1,252.27,37.48Zm.47,7.52h-1V39h1Z" fill="#1e1e1e"/>
      <path d="M254.32,44.78v-1a2.84,2.84,0,0,0,1.73.58c.85,0,1.27-.28,1.27-.84a.76.76,0,0,0-.11-.41,1,1,0,0,0-.29-.29,2.28,2.28,0,0,0-.44-.24l-.53-.21a6.76,6.76,0,0,1-.7-.32,2.55,2.55,0,0,1-.51-.36,1.52,1.52,0,0,1-.3-.46,1.63,1.63,0,0,1-.1-.61,1.38,1.38,0,0,1,.19-.74,1.7,1.7,0,0,1,.52-.55,2.71,2.71,0,0,1,.73-.33,3.59,3.59,0,0,1,2.25.16v1a2.71,2.71,0,0,0-1.53-.43,1.75,1.75,0,0,0-.48.06,1.15,1.15,0,0,0-.37.17.76.76,0,0,0-.24.27.67.67,0,0,0-.09.34.75.75,0,0,0,.09.39.93.93,0,0,0,.24.29,2.48,2.48,0,0,0,.4.22l.54.22a6.85,6.85,0,0,1,.71.31,2.82,2.82,0,0,1,.54.36,1.41,1.41,0,0,1,.34.47,1.46,1.46,0,0,1,.12.62,1.5,1.5,0,0,1-.19.78,1.61,1.61,0,0,1-.53.54,2.32,2.32,0,0,1-.75.33,3.82,3.82,0,0,1-.9.1A3.41,3.41,0,0,1,254.32,44.78Z" fill="#1e1e1e"/>
      <path d="M262.56,44.94a1.76,1.76,0,0,1-.89.19c-1.05,0-1.58-.59-1.58-1.76V39.82h-1V39h1V37.54l1-.32V39h1.51v.82h-1.51V43.2a1.37,1.37,0,0,0,.21.86.81.81,0,0,0,.68.26,1,1,0,0,0,.62-.2Z" fill="#1e1e1e"/>
      <path d="M267,40a1.18,1.18,0,0,0-.73-.19,1.23,1.23,0,0,0-1,.58,2.64,2.64,0,0,0-.41,1.58V45h-1V39h1v1.24h0a2.12,2.12,0,0,1,.63-1,1.4,1.4,0,0,1,.94-.36A1.5,1.5,0,0,1,267,39Z" fill="#1e1e1e"/>
      <path d="M272.31,45h-1v-.94h0a2.2,2.2,0,0,1-3.25.61,1.65,1.65,0,0,1-.51-1.26c0-1.12.66-1.78,2-2l1.8-.25q0-1.53-1.23-1.53a2.91,2.91,0,0,0-2,.74v-1a3.76,3.76,0,0,1,2-.56c1.41,0,2.11.75,2.11,2.24Zm-1-3-1.45.19a2.37,2.37,0,0,0-1,.34.93.93,0,0,0-.34.84.89.89,0,0,0,.31.71,1.2,1.2,0,0,0,.84.28,1.53,1.53,0,0,0,1.18-.5,1.79,1.79,0,0,0,.46-1.27Z" fill="#1e1e1e"/>
      <path d="M276.91,44.94a1.82,1.82,0,0,1-.9.19c-1.05,0-1.58-.59-1.58-1.76V39.82h-1V39h1V37.54l1-.32V39h1.51v.82H275.4V43.2a1.38,1.38,0,0,0,.2.86.83.83,0,0,0,.68.26,1.05,1.05,0,0,0,.63-.2Z" fill="#1e1e1e"/>
      <path d="M278.68,37.48a.6.6,0,0,1-.44-.18.59.59,0,0,1-.18-.44.61.61,0,0,1,.18-.45.6.6,0,0,1,.44-.18.61.61,0,0,1,.45.18.62.62,0,0,1,.19.45.63.63,0,0,1-.19.44A.61.61,0,0,1,278.68,37.48Zm.47,7.52h-1V39h1Z" fill="#1e1e1e"/>
      <path d="M283.6,45.14a2.79,2.79,0,0,1-2.12-.84,3.1,3.1,0,0,1-.79-2.23,3.24,3.24,0,0,1,.82-2.36,3,3,0,0,1,2.23-.85,2.66,2.66,0,0,1,2.1.83,3.77,3.77,0,0,1-.06,4.59A2.87,2.87,0,0,1,283.6,45.14Zm.07-5.47a1.83,1.83,0,0,0-1.46.63,2.59,2.59,0,0,0-.54,1.74,2.41,2.41,0,0,0,.55,1.68,1.84,1.84,0,0,0,1.45.61,1.77,1.77,0,0,0,1.44-.6,3.23,3.23,0,0,0,0-3.45A1.75,1.75,0,0,0,283.67,39.67Z" fill="#1e1e1e"/>
      <path d="M293.11,45h-1V41.58c0-1.28-.47-1.91-1.4-1.91a1.5,1.5,0,0,0-1.19.54,2,2,0,0,0-.47,1.37V45h-1V39h1v1h0a2.17,2.17,0,0,1,2-1.14,1.83,1.83,0,0,1,1.51.64,2.85,2.85,0,0,1,.52,1.83Z" fill="#1e1e1e"/>
      <path d="M298.71,36.6l-4,9.79h-.9l4-9.79Z" fill="#1e1e1e"/>
      <path d="M303.19,38.53l-1.6.33,1.11,1.42-.64.45-.92-1.55-.92,1.55-.65-.45,1.11-1.42-1.61-.33.26-.73,1.54.58-.14-1.78h.81l-.14,1.78L303,37.8Z" fill="#1e1e1e"/>
    </g>
    <g>
      <path d="M193.34,182.48l-4,9.8h-.9l4-9.8Z" fill="#1e1e1e"/>
      <path d="M198.71,190.88h-4.35v-8.4h1V190h3.37Z" fill="#1e1e1e"/>
      <path d="M200.37,183.36a.59.59,0,0,1-.44-.18.57.57,0,0,1-.18-.44.61.61,0,0,1,.18-.45.59.59,0,0,1,.44-.18.64.64,0,0,1,.45.18.61.61,0,0,1,.18.45.6.6,0,0,1-.18.44A.64.64,0,0,1,200.37,183.36Zm.47,7.52h-1v-6h1Z" fill="#1e1e1e"/>
      <path d="M206.87,190.61a3.19,3.19,0,0,1-1.64.41,2.68,2.68,0,0,1-2.07-.83,3,3,0,0,1-.79-2.17,3.32,3.32,0,0,1,.85-2.38,3,3,0,0,1,2.27-.9,3.06,3.06,0,0,1,1.39.3v1a2.45,2.45,0,0,0-1.43-.47,2,2,0,0,0-1.51.66,2.51,2.51,0,0,0-.58,1.73,2.4,2.4,0,0,0,.55,1.67,1.92,1.92,0,0,0,1.48.61,2.4,2.4,0,0,0,1.48-.53Z" fill="#1e1e1e"/>
      <path d="M213.15,188.12h-4.24a2.28,2.28,0,0,0,.54,1.55,1.87,1.87,0,0,0,1.42.55,3,3,0,0,0,1.86-.67v.9a3.5,3.5,0,0,1-2.09.57,2.54,2.54,0,0,1-2-.81,3.39,3.39,0,0,1-.73-2.3,3.29,3.29,0,0,1,.8-2.29,2.56,2.56,0,0,1,2-.88,2.28,2.28,0,0,1,1.82.76,3.2,3.2,0,0,1,.65,2.12Zm-1-.81a2,2,0,0,0-.4-1.3,1.39,1.39,0,0,0-1.1-.46,1.52,1.52,0,0,0-1.15.49,2.22,2.22,0,0,0-.59,1.27Z" fill="#1e1e1e"/>
      <path d="M219.58,190.88h-1v-3.42c0-1.27-.47-1.91-1.4-1.91a1.52,1.52,0,0,0-1.19.54,2,2,0,0,0-.47,1.37v3.42h-1v-6h1v1h0a2.17,2.17,0,0,1,2-1.14,1.83,1.83,0,0,1,1.51.64,2.8,2.8,0,0,1,.52,1.84Z" fill="#1e1e1e"/>
      <path d="M221,190.67v-1a2.83,2.83,0,0,0,1.73.59c.84,0,1.26-.29,1.26-.85a.78.78,0,0,0-.11-.41,1,1,0,0,0-.29-.29,2.18,2.18,0,0,0-.43-.23l-.54-.22a5.16,5.16,0,0,1-.7-.32,2,2,0,0,1-.5-.36,1.29,1.29,0,0,1-.31-.46,1.57,1.57,0,0,1-.1-.6,1.44,1.44,0,0,1,.19-.75,1.7,1.7,0,0,1,.52-.55,2.71,2.71,0,0,1,.73-.33,3.49,3.49,0,0,1,.86-.11,3.41,3.41,0,0,1,1.39.27v1a2.78,2.78,0,0,0-1.52-.43,1.83,1.83,0,0,0-.49.06,1.06,1.06,0,0,0-.37.18.66.66,0,0,0-.24.26.69.69,0,0,0-.09.34.78.78,0,0,0,.34.68,2.11,2.11,0,0,0,.4.22l.53.22a6.85,6.85,0,0,1,.71.31,2.82,2.82,0,0,1,.54.36,1.45,1.45,0,0,1,.35.47,1.54,1.54,0,0,1,.12.63,1.5,1.5,0,0,1-.2.77,1.74,1.74,0,0,1-.53.55,2.43,2.43,0,0,1-.75.32,3.82,3.82,0,0,1-.9.1A3.49,3.49,0,0,1,221,190.67Z" fill="#1e1e1e"/>
      <path d="M231.3,188.12h-4.23a2.19,2.19,0,0,0,.54,1.55,1.85,1.85,0,0,0,1.41.55,3,3,0,0,0,1.87-.67v.9a3.52,3.52,0,0,1-2.09.57,2.54,2.54,0,0,1-2-.81,3.34,3.34,0,0,1-.73-2.3,3.29,3.29,0,0,1,.8-2.29,2.56,2.56,0,0,1,2-.88,2.28,2.28,0,0,1,1.82.76,3.19,3.19,0,0,1,.64,2.12Zm-1-.81a2,2,0,0,0-.4-1.3,1.4,1.4,0,0,0-1.1-.46,1.52,1.52,0,0,0-1.15.49,2.16,2.16,0,0,0-.59,1.27Z" fill="#1e1e1e"/>
      <path d="M238.91,190.88h-1.17l-1.41-2.35A5,5,0,0,0,236,188a2,2,0,0,0-.38-.38,1.07,1.07,0,0,0-.41-.21,1.49,1.49,0,0,0-.49-.07h-.81v3.57h-1v-8.4h2.5a3.64,3.64,0,0,1,1,.14,2.23,2.23,0,0,1,.81.42,1.88,1.88,0,0,1,.54.7,2.45,2.45,0,0,1,.19,1,2.53,2.53,0,0,1-.13.8,2.15,2.15,0,0,1-.38.66,2.51,2.51,0,0,1-.58.49,3.1,3.1,0,0,1-.77.31v0a2,2,0,0,1,.36.22,2,2,0,0,1,.3.28l.28.37c.09.14.19.3.3.49Zm-5-7.51v3h1.34a2.15,2.15,0,0,0,.68-.11,1.61,1.61,0,0,0,.54-.32,1.57,1.57,0,0,0,.36-.51,1.83,1.83,0,0,0,.13-.68,1.32,1.32,0,0,0-.44-1.05,1.88,1.88,0,0,0-1.26-.38Z" fill="#1e1e1e"/>
      <path d="M244.41,188.12h-4.24a2.23,2.23,0,0,0,.54,1.55,1.86,1.86,0,0,0,1.42.55,3,3,0,0,0,1.86-.67v.9a3.5,3.5,0,0,1-2.09.57,2.54,2.54,0,0,1-2-.81,3.39,3.39,0,0,1-.73-2.3,3.29,3.29,0,0,1,.8-2.29,2.56,2.56,0,0,1,2-.88,2.28,2.28,0,0,1,1.82.76,3.2,3.2,0,0,1,.65,2.12Zm-1-.81a2,2,0,0,0-.4-1.3,1.39,1.39,0,0,0-1.1-.46,1.52,1.52,0,0,0-1.15.49,2.22,2.22,0,0,0-.59,1.27Z" fill="#1e1e1e"/>
      <path d="M250.84,190.88h-1v-3.42c0-1.27-.47-1.91-1.4-1.91a1.52,1.52,0,0,0-1.19.54,2,2,0,0,0-.47,1.37v3.42h-1v-6h1v1h0a2.17,2.17,0,0,1,2-1.14,1.83,1.83,0,0,1,1.51.64,2.8,2.8,0,0,1,.52,1.84Z" fill="#1e1e1e"/>
      <path d="M257.47,188.12h-4.23a2.23,2.23,0,0,0,.53,1.55,1.89,1.89,0,0,0,1.42.55,3,3,0,0,0,1.87-.67v.9a3.53,3.53,0,0,1-2.1.57,2.53,2.53,0,0,1-2-.81,3.34,3.34,0,0,1-.73-2.3,3.29,3.29,0,0,1,.79-2.29,2.58,2.58,0,0,1,2-.88,2.28,2.28,0,0,1,1.82.76,3.19,3.19,0,0,1,.64,2.12Zm-1-.81a2,2,0,0,0-.4-1.3,1.4,1.4,0,0,0-1.1-.46,1.54,1.54,0,0,0-1.16.49,2.21,2.21,0,0,0-.58,1.27Z" fill="#1e1e1e"/>
      <path d="M266.48,184.88l-1.79,6h-1l-1.24-4.29a3,3,0,0,1-.09-.56h0a3.75,3.75,0,0,1-.13.55l-1.34,4.3h-1l-1.82-6h1l1.24,4.51a3,3,0,0,1,.09.54h0a2.43,2.43,0,0,1,.11-.55l1.38-4.5h.88l1.24,4.53a3,3,0,0,1,.09.54h.05a1.94,1.94,0,0,1,.1-.54l1.21-4.53Z" fill="#1e1e1e"/>
      <path d="M271.89,190.88h-1V190h0a2,2,0,0,1-1.85,1.07,2,2,0,0,1-1.4-.47,1.65,1.65,0,0,1-.51-1.26c0-1.12.66-1.77,2-2l1.8-.25c0-1-.41-1.53-1.24-1.53a3,3,0,0,0-1.95.74v-1a3.76,3.76,0,0,1,2-.56c1.41,0,2.11.75,2.11,2.24Zm-1-3-1.45.2a2.25,2.25,0,0,0-1,.33,1,1,0,0,0-.34.84.92.92,0,0,0,.31.72,1.24,1.24,0,0,0,.83.28,1.56,1.56,0,0,0,1.19-.51,1.76,1.76,0,0,0,.46-1.26Z" fill="#1e1e1e"/>
      <path d="M274.66,190.88h-1V182h1Z" fill="#1e1e1e"/>
      <path d="M280.4,182.48l-4,9.8h-.9l4-9.8Z" fill="#1e1e1e"/>
      <path d="M284.88,184.41l-1.6.33,1.11,1.43-.64.44-.92-1.55-.92,1.55-.65-.44,1.11-1.43-1.61-.33.26-.73,1.54.58-.14-1.78h.81l-.13,1.78,1.54-.58Z" fill="#1e1e1e"/>
    </g>
    <g>
      <path d="M399.11,41l-1.8,6h-1l-1.23-4.29a3,3,0,0,1-.1-.56h0a2.44,2.44,0,0,1-.12.54L393.49,47h-1l-1.81-6h1L393,45.51a3.12,3.12,0,0,1,.08.54h.05a2.38,2.38,0,0,1,.1-.55l1.38-4.5h.88l1.25,4.52a5.29,5.29,0,0,1,.08.54h0a2.61,2.61,0,0,1,.1-.54L398.16,41Z" fill="#1e1e1e"/>
      <path d="M404.92,44.24h-4.23a2.21,2.21,0,0,0,.54,1.55,1.85,1.85,0,0,0,1.42.54,2.93,2.93,0,0,0,1.86-.67v.91a3.52,3.52,0,0,1-2.09.57,2.52,2.52,0,0,1-2-.82,3.81,3.81,0,0,1,.07-4.58,2.53,2.53,0,0,1,2-.88,2.25,2.25,0,0,1,1.82.76,3.18,3.18,0,0,1,.64,2.12Zm-1-.81a2,2,0,0,0-.4-1.3,1.37,1.37,0,0,0-1.1-.46,1.55,1.55,0,0,0-1.15.48,2.19,2.19,0,0,0-.59,1.28Z" fill="#1e1e1e"/>
      <path d="M407.36,46.13h0V47h-1V38.12h1v3.93h0a2.29,2.29,0,0,1,2.08-1.19,2.17,2.17,0,0,1,1.8.81,3.27,3.27,0,0,1,.66,2.15,3.74,3.74,0,0,1-.74,2.42,2.42,2.42,0,0,1-2,.9A2,2,0,0,1,407.36,46.13Zm0-2.42v.84a1.77,1.77,0,0,0,.48,1.26,1.59,1.59,0,0,0,1.23.52,1.6,1.6,0,0,0,1.37-.67,3,3,0,0,0,.49-1.85,2.41,2.41,0,0,0-.46-1.57,1.53,1.53,0,0,0-1.25-.57,1.7,1.7,0,0,0-1.35.58A2.15,2.15,0,0,0,407.34,43.71Z" fill="#1e1e1e"/>
      <path d="M413,46.66V45.5a2.42,2.42,0,0,0,.47.32,4.24,4.24,0,0,0,.59.23,3.5,3.5,0,0,0,.62.15,3.07,3.07,0,0,0,.57.06,2.29,2.29,0,0,0,1.36-.34,1.15,1.15,0,0,0,.45-1,1.13,1.13,0,0,0-.15-.59,1.76,1.76,0,0,0-.41-.46,4.57,4.57,0,0,0-.63-.4l-.78-.4-.82-.45a3.85,3.85,0,0,1-.66-.51,2.06,2.06,0,0,1-.44-.62,1.91,1.91,0,0,1-.16-.82,1.93,1.93,0,0,1,.25-1,2.32,2.32,0,0,1,.66-.7,3.19,3.19,0,0,1,.94-.41,4.24,4.24,0,0,1,1.07-.13,4.11,4.11,0,0,1,1.81.3v1.1a3.33,3.33,0,0,0-1.91-.51,2.88,2.88,0,0,0-.65.07,1.77,1.77,0,0,0-.57.21,1.31,1.31,0,0,0-.41.4,1,1,0,0,0-.16.58,1.22,1.22,0,0,0,.12.56,1.41,1.41,0,0,0,.35.43,3.42,3.42,0,0,0,.58.37c.22.12.48.26.77.4s.59.31.86.47a4.41,4.41,0,0,1,.71.54,2.42,2.42,0,0,1,.48.67,1.84,1.84,0,0,1,.18.83,2.14,2.14,0,0,1-.24,1,2.11,2.11,0,0,1-.66.7,2.88,2.88,0,0,1-.95.39,5.24,5.24,0,0,1-1.14.12l-.49,0a4.17,4.17,0,0,1-.6-.1,5.47,5.47,0,0,1-.58-.15A1.93,1.93,0,0,1,413,46.66Z" fill="#1e1e1e"/>
      <path d="M424.41,44.24h-4.24a2.25,2.25,0,0,0,.54,1.55,1.85,1.85,0,0,0,1.42.54,2.93,2.93,0,0,0,1.86-.67v.91a3.5,3.5,0,0,1-2.09.57,2.52,2.52,0,0,1-2-.82,3.36,3.36,0,0,1-.73-2.3,3.29,3.29,0,0,1,.8-2.28,2.53,2.53,0,0,1,2-.88,2.25,2.25,0,0,1,1.82.76,3.18,3.18,0,0,1,.65,2.12Zm-1-.81a2,2,0,0,0-.4-1.3,1.36,1.36,0,0,0-1.1-.46,1.55,1.55,0,0,0-1.15.48,2.25,2.25,0,0,0-.59,1.28Z" fill="#1e1e1e"/>
      <path d="M429,42a1.18,1.18,0,0,0-.73-.19,1.23,1.23,0,0,0-1,.58,2.72,2.72,0,0,0-.41,1.58V47h-1V41h1v1.24h0a2.12,2.12,0,0,1,.63-1,1.42,1.42,0,0,1,.94-.36A1.46,1.46,0,0,1,429,41Z" fill="#1e1e1e"/>
      <path d="M435.23,41l-2.39,6h-.95l-2.27-6h1.06l1.52,4.36a4.27,4.27,0,0,1,.21.84h0a3.94,3.94,0,0,1,.19-.82L434.21,41Z" fill="#1e1e1e"/>
      <path d="M440.93,44.24h-4.24a2.3,2.3,0,0,0,.54,1.55,1.88,1.88,0,0,0,1.42.54,2.89,2.89,0,0,0,1.86-.67v.91a3.47,3.47,0,0,1-2.09.57,2.53,2.53,0,0,1-2-.82,3.35,3.35,0,0,1-.72-2.3,3.28,3.28,0,0,1,.79-2.28,2.54,2.54,0,0,1,2-.88,2.26,2.26,0,0,1,1.83.76,3.18,3.18,0,0,1,.64,2.12Zm-1-.81a2,2,0,0,0-.41-1.3,1.35,1.35,0,0,0-1.09-.46,1.57,1.57,0,0,0-1.16.48,2.24,2.24,0,0,0-.58,1.28Z" fill="#1e1e1e"/>
      <path d="M445.51,42a1.16,1.16,0,0,0-.72-.19,1.21,1.21,0,0,0-1,.58,2.64,2.64,0,0,0-.42,1.58V47h-1V41h1v1.24h0a2,2,0,0,1,.62-1,1.45,1.45,0,0,1,.95-.36,1.41,1.41,0,0,1,.57.09Z" fill="#1e1e1e"/>
      <path d="M449.56,47h-1V39.74a2.67,2.67,0,0,1-.32.26l-.48.28c-.18.09-.37.18-.57.26a3.54,3.54,0,0,1-.57.2v-1a4.45,4.45,0,0,0,.67-.23,6.3,6.3,0,0,0,.69-.34c.23-.12.45-.25.65-.38a6.62,6.62,0,0,0,.53-.4h.36Z" fill="#1e1e1e"/>
    </g>
    <g>
      <path d="M399.11,76l-1.8,6h-1l-1.23-4.29a3,3,0,0,1-.1-.56h0a2.44,2.44,0,0,1-.12.54L393.49,82h-1l-1.81-6h1L393,80.51a3.12,3.12,0,0,1,.08.54h.05a2.38,2.38,0,0,1,.1-.55l1.38-4.5h.88l1.25,4.52a5.29,5.29,0,0,1,.08.54h0a2.61,2.61,0,0,1,.1-.54L398.16,76Z" fill="#1e1e1e"/>
      <path d="M404.92,79.24h-4.23a2.21,2.21,0,0,0,.54,1.55,1.85,1.85,0,0,0,1.42.54,2.93,2.93,0,0,0,1.86-.67v.91a3.52,3.52,0,0,1-2.09.57,2.52,2.52,0,0,1-2-.82,3.81,3.81,0,0,1,.07-4.58,2.53,2.53,0,0,1,2-.88,2.25,2.25,0,0,1,1.82.76,3.18,3.18,0,0,1,.64,2.12Zm-1-.81a2,2,0,0,0-.4-1.3,1.37,1.37,0,0,0-1.1-.46,1.55,1.55,0,0,0-1.15.48,2.19,2.19,0,0,0-.59,1.28Z" fill="#1e1e1e"/>
      <path d="M407.36,81.13h0V82h-1V73.12h1v3.93h0a2.29,2.29,0,0,1,2.08-1.19,2.17,2.17,0,0,1,1.8.81,3.27,3.27,0,0,1,.66,2.15,3.74,3.74,0,0,1-.74,2.42,2.42,2.42,0,0,1-2,.9A2,2,0,0,1,407.36,81.13Zm0-2.42v.84a1.77,1.77,0,0,0,.48,1.26,1.59,1.59,0,0,0,1.23.52,1.6,1.6,0,0,0,1.37-.67,3,3,0,0,0,.49-1.85,2.41,2.41,0,0,0-.46-1.57,1.53,1.53,0,0,0-1.25-.57,1.7,1.7,0,0,0-1.35.58A2.15,2.15,0,0,0,407.34,78.71Z" fill="#1e1e1e"/>
      <path d="M413,81.66V80.5a2.42,2.42,0,0,0,.47.32,4.24,4.24,0,0,0,.59.23,3.5,3.5,0,0,0,.62.15,3.07,3.07,0,0,0,.57.06,2.29,2.29,0,0,0,1.36-.34,1.15,1.15,0,0,0,.45-1,1.13,1.13,0,0,0-.15-.59,1.76,1.76,0,0,0-.41-.46,4.57,4.57,0,0,0-.63-.4l-.78-.4-.82-.45a3.85,3.85,0,0,1-.66-.51,2.06,2.06,0,0,1-.44-.62,1.91,1.91,0,0,1-.16-.82,1.93,1.93,0,0,1,.25-1,2.32,2.32,0,0,1,.66-.7,3.19,3.19,0,0,1,.94-.41,4.24,4.24,0,0,1,1.07-.13,4.11,4.11,0,0,1,1.81.3v1.1a3.33,3.33,0,0,0-1.91-.51,2.88,2.88,0,0,0-.65.07,1.77,1.77,0,0,0-.57.21,1.31,1.31,0,0,0-.41.4,1,1,0,0,0-.16.58,1.22,1.22,0,0,0,.12.56,1.41,1.41,0,0,0,.35.43,3.42,3.42,0,0,0,.58.37c.22.12.48.26.77.4s.59.31.86.47a4.41,4.41,0,0,1,.71.54,2.42,2.42,0,0,1,.48.67,1.84,1.84,0,0,1,.18.83,2.14,2.14,0,0,1-.24,1.05,2.11,2.11,0,0,1-.66.7,2.88,2.88,0,0,1-.95.39,5.24,5.24,0,0,1-1.14.12l-.49,0a4.17,4.17,0,0,1-.6-.1,5.47,5.47,0,0,1-.58-.15A1.93,1.93,0,0,1,413,81.66Z" fill="#1e1e1e"/>
      <path d="M424.41,79.24h-4.24a2.25,2.25,0,0,0,.54,1.55,1.85,1.85,0,0,0,1.42.54,2.93,2.93,0,0,0,1.86-.67v.91a3.5,3.5,0,0,1-2.09.57,2.52,2.52,0,0,1-2-.82,3.36,3.36,0,0,1-.73-2.3,3.29,3.29,0,0,1,.8-2.28,2.53,2.53,0,0,1,2-.88,2.25,2.25,0,0,1,1.82.76,3.18,3.18,0,0,1,.65,2.12Zm-1-.81a2,2,0,0,0-.4-1.3,1.36,1.36,0,0,0-1.1-.46,1.55,1.55,0,0,0-1.15.48,2.25,2.25,0,0,0-.59,1.28Z" fill="#1e1e1e"/>
      <path d="M429,77a1.18,1.18,0,0,0-.73-.19,1.23,1.23,0,0,0-1,.58,2.72,2.72,0,0,0-.41,1.58V82h-1V76h1v1.24h0a2.12,2.12,0,0,1,.63-1,1.42,1.42,0,0,1,.94-.36A1.46,1.46,0,0,1,429,76Z" fill="#1e1e1e"/>
      <path d="M435.23,76l-2.39,6h-.95l-2.27-6h1.06l1.52,4.36a4.27,4.27,0,0,1,.21.84h0a3.94,3.94,0,0,1,.19-.82L434.21,76Z" fill="#1e1e1e"/>
      <path d="M440.93,79.24h-4.24a2.3,2.3,0,0,0,.54,1.55,1.88,1.88,0,0,0,1.42.54,2.89,2.89,0,0,0,1.86-.67v.91a3.47,3.47,0,0,1-2.09.57,2.53,2.53,0,0,1-2-.82,3.35,3.35,0,0,1-.72-2.3,3.28,3.28,0,0,1,.79-2.28,2.54,2.54,0,0,1,2-.88,2.26,2.26,0,0,1,1.83.76,3.18,3.18,0,0,1,.64,2.12Zm-1-.81a2,2,0,0,0-.41-1.3,1.35,1.35,0,0,0-1.09-.46,1.57,1.57,0,0,0-1.16.48,2.24,2.24,0,0,0-.58,1.28Z" fill="#1e1e1e"/>
      <path d="M445.51,77a1.16,1.16,0,0,0-.72-.19,1.21,1.21,0,0,0-1,.58,2.64,2.64,0,0,0-.42,1.58V82h-1V76h1v1.24h0a2,2,0,0,1,.62-1,1.45,1.45,0,0,1,.95-.36,1.41,1.41,0,0,1,.57.09Z" fill="#1e1e1e"/>
      <path d="M449.87,75.8a1.71,1.71,0,0,0-.12-.67,1.37,1.37,0,0,0-.33-.48,1.26,1.26,0,0,0-.49-.28,1.74,1.74,0,0,0-.61-.1,2,2,0,0,0-.55.08,2.57,2.57,0,0,0-.52.21,3.84,3.84,0,0,0-.5.32,4.32,4.32,0,0,0-.44.42v-1a2.58,2.58,0,0,1,.91-.6,3.14,3.14,0,0,1,1.22-.21,2.91,2.91,0,0,1,.95.15,2.09,2.09,0,0,1,.76.43,1.93,1.93,0,0,1,.51.71,2.47,2.47,0,0,1,.19,1,3.16,3.16,0,0,1-.12.9,2.73,2.73,0,0,1-.34.76,3.73,3.73,0,0,1-.59.69,8.71,8.71,0,0,1-.82.67c-.4.28-.72.52-1,.72a4.3,4.3,0,0,0-.61.56,1.49,1.49,0,0,0-.31.52,1.79,1.79,0,0,0-.1.6h4.19V82H446v-.42a3.43,3.43,0,0,1,.12-1,2.44,2.44,0,0,1,.39-.77,4,4,0,0,1,.7-.74c.29-.25.65-.53,1.07-.83a6.87,6.87,0,0,0,.77-.63,3.23,3.23,0,0,0,.49-.6,1.93,1.93,0,0,0,.27-.61A2.69,2.69,0,0,0,449.87,75.8Z" fill="#1e1e1e"/>
    </g>
  </g>
</svg>
