<svg width="100" height="100" viewBox="0 0 100 100" fill="none" xmlns="http://www.w3.org/2000/svg">
<g clip-path="url(#clip0)">
<path d="M49.6401 96.4501C40.382 96.4501 31.3317 93.7047 23.6339 88.5612C15.936 83.4176 9.93624 76.1069 6.3933 67.5535C2.85036 59.0001 1.92337 49.5882 3.72954 40.5079C5.53571 31.4277 9.99394 23.0869 16.5404 16.5404C23.0869 9.99393 31.4277 5.53571 40.5079 3.72954C49.5882 1.92337 59.0001 2.85036 67.5535 6.3933C76.1069 9.93624 83.4176 15.936 88.5612 23.6339C93.7047 31.3317 96.4501 40.382 96.4501 49.6401C96.4505 55.7874 95.24 61.8746 92.8878 67.554C90.5355 73.2335 87.0875 78.3939 82.7407 82.7407C78.3939 87.0875 73.2335 90.5355 67.554 92.8878C61.8746 95.24 55.7874 96.4505 49.6401 96.4501V96.4501Z" fill="url(#paint0_linear)"/>
<path fill-rule="evenodd" clip-rule="evenodd" d="M95.54 49.64C95.54 58.7182 92.848 67.5925 87.8045 75.1407C82.7609 82.6889 75.5923 88.572 67.2052 92.0461C58.818 95.5201 49.5891 96.4291 40.6854 94.658C31.7816 92.887 23.603 88.5154 17.1838 82.0962C10.7646 75.677 6.39302 67.4984 4.62196 58.5946C2.85089 49.6909 3.75987 40.462 7.23393 32.0748C10.708 23.6877 16.5911 16.5191 24.1393 11.4755C31.6875 6.43199 40.5618 3.74 49.64 3.74C55.6677 3.73998 61.6363 4.9272 67.2052 7.23388C72.774 9.54057 77.834 12.9215 82.0963 17.1837C86.3585 21.446 89.7394 26.5059 92.0461 32.0748C94.3528 37.6437 95.54 43.6123 95.54 49.64V49.64ZM49.64 3.62732e-07C59.4579 3.62732e-07 69.0553 2.91134 77.2185 8.36585C85.3818 13.8204 91.7442 21.5731 95.5014 30.6436C99.2585 39.7141 100.242 49.6951 98.3262 59.3243C96.4108 68.9535 91.6831 77.7985 84.7408 84.7408C77.7985 91.6831 68.9535 96.4108 59.3243 98.3262C49.6951 100.242 39.7141 99.2585 30.6436 95.5014C21.5731 91.7442 13.8204 85.3818 8.36585 77.2185C2.91134 69.0553 3.62732e-07 59.4579 3.62732e-07 49.64C-0.000787738 43.121 1.28265 36.6656 3.77702 30.6427C6.27138 24.6197 9.9278 19.1471 14.5375 14.5375C19.1471 9.9278 24.6197 6.27138 30.6427 3.77702C36.6656 1.28265 43.121 -0.000787738 49.64 3.62732e-07V3.62732e-07Z" fill="#F2F1F0"/>
<path fill-rule="evenodd" clip-rule="evenodd" d="M92.7296 49.6406C92.7296 58.163 90.2024 66.494 85.4676 73.5801C80.7328 80.6662 74.0031 86.1892 66.1294 89.4505C58.2557 92.7119 49.5918 93.5653 41.2331 91.9026C32.8745 90.24 25.1966 86.1361 19.1703 80.1098C13.1441 74.0836 9.04017 66.4057 7.37753 58.047C5.7149 49.6884 6.56822 41.0244 9.8296 33.1507C13.091 25.2771 18.6139 18.5473 25.7 13.8126C32.7862 9.07776 41.1172 6.55058 49.6396 6.55058C55.2983 6.55023 60.9017 7.66455 66.1298 9.82991C71.3579 11.9953 76.1082 15.1692 80.1096 19.1706C84.1109 23.1719 87.2849 27.9223 89.4502 33.1503C91.6156 38.3784 92.7299 43.9818 92.7296 49.6406V49.6406ZM49.6396 2.81058C58.9017 2.81058 67.9558 5.55711 75.6569 10.7029C83.3581 15.8486 89.3604 23.1624 92.9049 31.7195C96.4493 40.2766 97.3767 49.6925 95.5697 58.7767C93.7628 67.8608 89.3027 76.2051 82.7534 82.7544C76.2041 89.3037 67.8598 93.7638 58.7757 95.5708C49.6915 97.3777 40.2756 96.4503 31.7185 92.9059C23.1614 89.3614 15.8476 83.3591 10.7018 75.6579C5.5561 67.9568 2.80957 58.9027 2.80957 49.6406C2.81076 37.2209 7.745 25.3101 16.5271 16.5281C25.3091 7.74599 37.2198 2.81174 49.6396 2.81055V2.81058Z" fill="#0078D4"/>
<path fill-rule="evenodd" clip-rule="evenodd" d="M92.7296 49.6405C92.7296 58.1629 90.2024 66.494 85.4676 73.5801C80.7328 80.6662 74.0031 86.1891 66.1294 89.4505C58.2557 92.7119 49.5918 93.5652 41.2331 91.9026C32.8745 90.24 25.1966 86.136 19.1703 80.1098C13.1441 74.0835 9.04017 66.4056 7.37753 58.047C5.7149 49.6883 6.56822 41.0244 9.8296 33.1507C13.091 25.277 18.6139 18.5473 25.7001 13.8125C32.7862 9.07773 41.1172 6.55055 49.6396 6.55055C55.2983 6.5502 60.9017 7.66452 66.1298 9.82988C71.3579 11.9952 76.1082 15.1692 80.1096 19.1705C84.1109 23.1719 87.2849 27.9222 89.4502 33.1503C91.6156 38.3784 92.7299 43.9818 92.7296 49.6405V49.6405ZM49.6396 2.81055C58.9017 2.81055 67.9558 5.55708 75.6569 10.7028C83.3581 15.8486 89.3604 23.1624 92.9048 31.7195C96.4493 40.2765 97.3767 49.6925 95.5697 58.7766C93.7628 67.8608 89.3027 76.2051 82.7534 82.7544C76.2041 89.3036 67.8598 93.7638 58.7757 95.5707C49.6915 97.3777 40.2756 96.4503 31.7185 92.9058C23.1614 89.3614 15.8476 83.3591 10.7018 75.6579C5.5561 67.9568 2.80957 58.9026 2.80957 49.6405C2.81076 37.2208 7.74501 25.3101 16.5271 16.5281C25.3091 7.74599 37.2198 2.81174 49.6396 2.81055V2.81055Z" fill="#0078D4"/>
<path opacity="0.2" d="M49.6334 80.5584C63.337 80.5584 74.446 79.12 74.446 77.3456C74.446 75.5712 63.337 74.1328 49.6334 74.1328C35.9298 74.1328 24.8208 75.5712 24.8208 77.3456C24.8208 79.12 35.9298 80.5584 49.6334 80.5584Z" fill="#003067"/>
<path fill-rule="evenodd" clip-rule="evenodd" d="M58.1359 75.1658L51.4398 68.4697V65.6048C51.4387 65.1265 51.2479 64.6681 50.9092 64.3303C50.5706 63.9925 50.1118 63.8027 49.6334 63.8027C49.1551 63.8027 48.6963 63.9925 48.3577 64.3303C48.019 64.6681 47.8282 65.1265 47.8271 65.6048V68.4697L41.131 75.1657C40.9633 75.3334 40.8303 75.5325 40.7395 75.7517C40.6488 75.9708 40.6021 76.2056 40.6021 76.4428C40.6021 76.68 40.6488 76.9149 40.7395 77.134C40.8303 77.3531 40.9633 77.5522 41.131 77.7199C41.2987 77.8876 41.4978 78.0206 41.717 78.1114C41.9361 78.2022 42.1709 78.2489 42.4081 78.2489C42.6453 78.2489 42.8801 78.2022 43.0993 78.1114C43.3184 78.0206 43.5175 77.8876 43.6852 77.7199L47.8271 73.578V75.5397C47.8282 76.018 48.019 76.4764 48.3577 76.8142C48.6963 77.152 49.1551 77.3418 49.6334 77.3418C50.1118 77.3418 50.5706 77.152 50.9092 76.8142C51.2479 76.4764 51.4387 76.018 51.4398 75.5397V73.578L55.5817 77.7199C55.9204 78.0586 56.3798 78.2489 56.8588 78.2489C57.3378 78.2489 57.7972 78.0586 58.1359 77.7199C58.4746 77.3812 58.6648 76.9218 58.6648 76.4428C58.6648 75.9638 58.4746 75.5045 58.1359 75.1658H58.1359Z" fill="#1F56A3"/>
<path fill-rule="evenodd" clip-rule="evenodd" d="M76.7291 31.2832V63.7972C76.7277 64.2758 76.537 64.7345 76.1985 65.0729C75.8601 65.4114 75.4014 65.6021 74.9228 65.6035H24.3454C23.8668 65.6021 23.4081 65.4114 23.0697 65.0729C22.7312 64.7345 22.5405 64.2758 22.5391 63.7972V31.2832H76.7291Z" fill="#F2F2F2"/>
<path fill-rule="evenodd" clip-rule="evenodd" d="M49.634 27.6706C49.155 27.6704 48.6956 27.4801 48.3569 27.1414C48.0182 26.8026 47.8278 26.3433 47.8276 25.8643V24.0579C47.8288 23.5796 48.0196 23.1213 48.3582 22.7834C48.6968 22.4456 49.1556 22.2559 49.634 22.2559C50.1123 22.2559 50.5711 22.4456 50.9097 22.7834C51.2484 23.1213 51.4392 23.5796 51.4403 24.0579V25.8643C51.4401 26.3433 51.2498 26.8027 50.911 27.1414C50.5723 27.4801 50.113 27.6704 49.634 27.6706Z" fill="#1F56A3"/>
<path fill-rule="evenodd" clip-rule="evenodd" d="M78.5352 30.381C78.5345 30.6203 78.4391 30.8497 78.2699 31.0189C78.1006 31.1881 77.8713 31.2835 77.632 31.2842H21.6356C21.3963 31.2835 21.167 31.1881 20.9977 31.0189C20.8285 30.8497 20.7331 30.6203 20.7324 30.381V26.7684C20.7331 26.5291 20.8285 26.2998 20.9977 26.1305C21.167 25.9613 21.3963 25.8659 21.6356 25.8652H77.632C77.8713 25.8659 78.1006 25.9613 78.2699 26.1305C78.4391 26.2998 78.5345 26.5291 78.5352 26.7684V30.381Z" fill="#1F56A3"/>
<path fill-rule="evenodd" clip-rule="evenodd" d="M22.5391 33.0895H76.7291V31.2832H22.5391V33.0895Z" fill="#C5CCCD"/>
<path fill-rule="evenodd" clip-rule="evenodd" d="M42.514 76.3365C42.4128 76.4376 42.2892 76.5134 42.1532 76.5576C42.0172 76.6019 41.8726 76.6134 41.7313 76.5912C41.59 76.569 41.456 76.5138 41.3401 76.4299C41.2242 76.3461 41.1297 76.2361 41.0644 76.1089C40.974 75.9297 40.9011 75.7421 40.8467 75.5489C40.6291 75.9279 40.5566 76.3731 40.6428 76.8015C40.7289 77.23 40.9678 77.6125 41.315 77.878C41.6622 78.1434 42.094 78.2737 42.5301 78.2445C42.9661 78.2153 43.3767 78.0286 43.6854 77.7192L49.6336 71.9263V69.2168L42.514 76.3365Z" fill="#003067"/>
<path fill-rule="evenodd" clip-rule="evenodd" d="M56.7535 76.3365C56.8546 76.4376 56.9783 76.5133 57.1143 76.5576C57.2503 76.6018 57.3948 76.6133 57.5361 76.5911C57.6774 76.5689 57.8114 76.5137 57.9273 76.4299C58.0432 76.3461 58.1377 76.2361 58.203 76.1089C58.2935 75.9297 58.3664 75.7421 58.4207 75.5489C58.6383 75.9279 58.7108 76.3731 58.6246 76.8015C58.5385 77.23 58.2996 77.6125 57.9524 77.878C57.6052 78.1434 57.1734 78.2736 56.7374 78.2444C56.3013 78.2152 55.8907 78.0286 55.5821 77.7192L49.6338 71.9263V69.2168L56.7535 76.3365Z" fill="#003067"/>
<path fill-rule="evenodd" clip-rule="evenodd" d="M49.6338 71.0234V75.393C49.6328 75.5383 49.597 75.6813 49.5294 75.81C49.4618 75.9387 49.3644 76.0493 49.2453 76.1326C49.1262 76.2159 48.9888 76.2694 48.8448 76.2888C48.7007 76.3081 48.5541 76.2927 48.4173 76.2437C48.2376 76.1824 48.0638 76.105 47.8979 76.0125C48.008 76.4218 48.2589 76.7792 48.6065 77.0217C48.9541 77.2642 49.3761 77.3764 49.7982 77.3384C50.259 77.2798 50.6818 77.0527 50.985 76.7007C51.2882 76.3488 51.4504 75.8971 51.4402 75.4327V71.0234H49.6338Z" fill="#003067"/>
<path fill-rule="evenodd" clip-rule="evenodd" d="M47.8276 65.6035V66.5067H48.6531C48.7819 66.5067 48.9095 66.532 49.0285 66.5813C49.1475 66.6306 49.2557 66.7028 49.3468 66.7939C49.4378 66.885 49.5101 66.9931 49.5594 67.1121C49.6087 67.2312 49.634 67.3587 49.634 67.4875C49.6339 67.6163 49.6593 67.7439 49.7086 67.8629C49.7578 67.9819 49.8301 68.0901 49.9212 68.1812C50.0123 68.2722 50.1204 68.3445 50.2394 68.3938C50.3584 68.4431 50.486 68.4684 50.6148 68.4684H51.4403V65.6035H47.8276Z" fill="#003067"/>
<path fill-rule="evenodd" clip-rule="evenodd" d="M21.6356 31.2842H77.632C77.8713 31.2835 78.1006 31.1881 78.2699 31.0189C78.4391 30.8497 78.5345 30.6203 78.5352 30.381V26.7684C78.5345 26.5291 78.4391 26.2998 78.2699 26.1305C78.1006 25.9613 77.8713 25.8659 77.632 25.8652H49.6338V27.6716C49.6337 27.9111 49.5385 28.1407 49.3692 28.3101C49.1998 28.4795 48.9702 28.5746 48.7306 28.5747H20.7324V30.3811C20.7331 30.6204 20.8285 30.8497 20.9977 31.0189C21.167 31.1881 21.3963 31.2835 21.6356 31.2842V31.2842Z" fill="#003067"/>
<path fill-rule="evenodd" clip-rule="evenodd" d="M49.6338 23.9704V25.8644H51.4401V24.0581C51.44 23.9564 51.4316 23.8549 51.4148 23.7546C51.3626 23.5396 51.2334 23.3513 51.0516 23.2253C50.8697 23.0993 50.648 23.0444 50.4284 23.071C50.2088 23.0976 50.0066 23.2039 49.8601 23.3697C49.7137 23.5355 49.6331 23.7492 49.6338 23.9704V23.9704Z" fill="#003067"/>
<path d="M58.5593 59.9542H35.6131C35.4597 59.9528 35.3086 59.9172 35.1708 59.8498C35.033 59.7825 34.912 59.6851 34.8167 59.5649C34.7214 59.4448 34.6542 59.3048 34.62 59.1552C34.5859 59.0057 34.5856 58.8504 34.6193 58.7008L39.3554 38.6105C39.4491 38.2276 39.6685 37.8872 39.9785 37.6438C40.2885 37.4003 40.6712 37.2679 41.0654 37.2676H63.7251C63.8785 37.2689 64.0296 37.3046 64.1674 37.3719C64.3052 37.4393 64.4262 37.5366 64.5215 37.6568C64.6168 37.777 64.684 37.917 64.7181 38.0665C64.7523 38.2161 64.7526 38.3713 64.7189 38.521L59.9201 58.8888C59.8442 59.1925 59.6692 59.4622 59.4227 59.6552C59.1762 59.8482 58.8724 59.9534 58.5593 59.9542V59.9542Z" fill="url(#paint1_linear)"/>
<path d="M55.2369 56.9628H49.5967C49.2856 56.9628 48.9873 56.8393 48.7673 56.6193C48.5474 56.3994 48.4238 56.1011 48.4238 55.79C48.4238 55.479 48.5474 55.1806 48.7673 54.9607C48.9873 54.7408 49.2856 54.6172 49.5967 54.6172H55.2369C55.548 54.6172 55.8463 54.7408 56.0663 54.9607C56.2862 55.1806 56.4098 55.479 56.4098 55.79C56.4098 56.1011 56.2862 56.3994 56.0663 56.6193C55.8463 56.8393 55.548 56.9628 55.2369 56.9628V56.9628Z" fill="white"/>
<path d="M46.0349 40.0502L52.9197 47.2304C53.0775 47.3947 53.198 47.5911 53.2732 47.8062C53.3483 48.0213 53.3761 48.25 53.3549 48.4769C53.3337 48.7037 53.2638 48.9233 53.1501 49.1207C53.0363 49.3181 52.8814 49.4887 52.6958 49.6209L42.2478 57.0249C41.9558 57.2338 41.5927 57.3182 41.2384 57.2594C40.8841 57.2007 40.5677 57.0036 40.3588 56.7115C40.1498 56.4195 40.0655 56.0564 40.1242 55.7021C40.183 55.3478 40.3801 55.0314 40.6721 54.8225L49.9473 48.1795L44.0921 41.8856C43.8535 41.6271 43.7263 41.285 43.7383 40.9334C43.7503 40.5818 43.9005 40.2491 44.1562 40.0075C44.412 39.7659 44.7526 39.6349 45.1043 39.6429C45.456 39.6509 45.7904 39.7973 46.0349 40.0502L46.0349 40.0502Z" fill="white"/>
<path opacity="0.2" fill-rule="evenodd" clip-rule="evenodd" d="M76.729 65.6051V54.3035C76.6051 54.2844 76.4803 54.2717 76.355 54.2656H52.9644C51.9899 54.2679 51.0562 54.6566 50.368 55.3464C49.6798 56.0362 49.2934 56.9709 49.2935 57.9453V65.6051H76.729Z" fill="#767676"/>
<path fill-rule="evenodd" clip-rule="evenodd" d="M76.3548 57.1055H52.9643C52.7422 57.1063 52.5296 57.1951 52.3729 57.3525C52.2163 57.51 52.1286 57.7231 52.1289 57.9451V77.2579C52.1286 77.48 52.2164 77.693 52.373 77.8505C52.5296 78.0079 52.7423 78.0967 52.9643 78.0976H76.3548C76.5768 78.0967 76.7894 78.0078 76.946 77.8504C77.1026 77.693 77.1904 77.4799 77.1902 77.2579V57.9451C77.1904 57.7231 77.1027 57.51 76.9461 57.3526C76.7895 57.1952 76.5768 57.1063 76.3548 57.1055V57.1055Z" fill="#0078D4"/>
<path fill-rule="evenodd" clip-rule="evenodd" d="M76.3552 56.2656H52.9647C52.5208 56.2681 52.096 56.4461 51.783 56.7607C51.4699 57.0754 51.2941 57.5011 51.2939 57.945V77.2577C51.2941 77.7016 51.4699 78.1273 51.783 78.442C52.096 78.7567 52.5209 78.9346 52.9647 78.9371H76.3552C76.7991 78.9346 77.2239 78.7567 77.5369 78.442C77.85 78.1274 78.0258 77.7016 78.026 77.2577V57.945C78.0258 57.5011 77.85 57.0754 77.537 56.7607C77.2239 56.4461 76.7991 56.2681 76.3552 56.2656V56.2656ZM76.3552 57.1053C76.5772 57.1062 76.7899 57.1951 76.9465 57.3525C77.1031 57.5099 77.1908 57.723 77.1906 57.945V77.2577C77.1908 77.4798 77.103 77.6928 76.9464 77.8502C76.7898 78.0076 76.5772 78.0965 76.3552 78.0974H52.9647C52.7427 78.0965 52.53 78.0077 52.3734 77.8503C52.2168 77.6929 52.129 77.4798 52.1293 77.2577V57.945C52.129 57.7229 52.2167 57.5098 52.3733 57.3524C52.53 57.195 52.7426 57.1061 52.9647 57.1053H76.3552Z" fill="#1F56A3"/>
<path fill-rule="evenodd" clip-rule="evenodd" d="M55.8882 78.0976H56.7235V57.1055H55.8882V78.0976Z" fill="#1F56A3"/>
<path fill-rule="evenodd" clip-rule="evenodd" d="M54.8148 64.242C54.814 64.4071 54.7642 64.5682 54.6719 64.705C54.5796 64.8418 54.4489 64.9482 54.2961 65.0108C54.1434 65.0733 53.9756 65.0893 53.8138 65.0565C53.6521 65.0238 53.5036 64.9439 53.3872 64.8269C53.2708 64.7099 53.1917 64.5611 53.1598 64.3991C53.1279 64.2372 53.1447 64.0694 53.208 63.917C53.2714 63.7646 53.3785 63.6344 53.5158 63.5428C53.6531 63.4512 53.8144 63.4023 53.9794 63.4023C54.2015 63.403 54.4143 63.4918 54.5709 63.6493C54.7276 63.8067 54.8153 64.0199 54.8148 64.242Z" fill="white"/>
<path fill-rule="evenodd" clip-rule="evenodd" d="M54.8148 67.1814C54.814 67.3465 54.7643 67.5076 54.672 67.6444C54.5796 67.7812 54.4489 67.8876 54.2962 67.9502C54.1434 68.0128 53.9756 68.0287 53.8138 67.996C53.6521 67.9633 53.5036 67.8834 53.3872 67.7664C53.2708 67.6494 53.1917 67.5005 53.1598 67.3386C53.1279 67.1767 53.1447 67.0089 53.208 66.8565C53.2714 66.7041 53.3785 66.5739 53.5158 66.4823C53.6531 66.3907 53.8144 66.3418 53.9794 66.3418C54.2015 66.3425 54.4143 66.4313 54.5709 66.5887C54.7276 66.7462 54.8153 66.9593 54.8148 67.1814V67.1814Z" fill="white"/>
<path fill-rule="evenodd" clip-rule="evenodd" d="M54.8148 70.119C54.814 70.284 54.7642 70.4451 54.6719 70.5819C54.5796 70.7187 54.4489 70.8251 54.2961 70.8877C54.1434 70.9503 53.9756 70.9662 53.8138 70.9335C53.6521 70.9008 53.5036 70.8209 53.3872 70.7039C53.2708 70.5869 53.1917 70.438 53.1598 70.2761C53.1279 70.1141 53.1447 69.9464 53.208 69.794C53.2714 69.6416 53.3785 69.5114 53.5158 69.4198C53.6531 69.3282 53.8144 69.2793 53.9794 69.2793C54.2015 69.28 54.4143 69.3688 54.5709 69.5262C54.7276 69.6837 54.8153 69.8969 54.8148 70.119V70.119Z" fill="white"/>
<path fill-rule="evenodd" clip-rule="evenodd" d="M54.8148 73.0584C54.814 73.2234 54.7643 73.3845 54.672 73.5214C54.5796 73.6582 54.4489 73.7646 54.2962 73.8272C54.1434 73.8897 53.9756 73.9057 53.8138 73.873C53.6521 73.8402 53.5036 73.7603 53.3872 73.6433C53.2708 73.5263 53.1917 73.3775 53.1598 73.2155C53.1279 73.0536 53.1447 72.8859 53.208 72.7335C53.2714 72.5811 53.3785 72.4508 53.5158 72.3592C53.6531 72.2676 53.8144 72.2187 53.9794 72.2188C54.2015 72.2194 54.4143 72.3082 54.5709 72.4657C54.7276 72.6231 54.8153 72.8363 54.8148 73.0584V73.0584Z" fill="white"/>
<path fill-rule="evenodd" clip-rule="evenodd" d="M54.8148 75.9979C54.814 76.1629 54.7642 76.324 54.6719 76.4608C54.5796 76.5977 54.4489 76.7041 54.2961 76.7666C54.1434 76.8292 53.9756 76.8451 53.8138 76.8124C53.6521 76.7797 53.5036 76.6998 53.3872 76.5828C53.2708 76.4658 53.1917 76.3169 53.1598 76.155C53.1279 75.9931 53.1447 75.8253 53.208 75.6729C53.2714 75.5205 53.3785 75.3903 53.5158 75.2987C53.6531 75.2071 53.8144 75.1582 53.9794 75.1582C54.2015 75.1589 54.4143 75.2477 54.5709 75.4051C54.7276 75.5626 54.8153 75.7758 54.8148 75.9979V75.9979Z" fill="white"/>
<path fill-rule="evenodd" clip-rule="evenodd" d="M62.9889 76.4178H58.3944C58.2834 76.4173 58.1771 76.3728 58.0988 76.2941C58.0205 76.2154 57.9766 76.109 57.9766 75.998C57.9766 75.887 58.0205 75.7805 58.0988 75.7018C58.1771 75.6231 58.2834 75.5787 58.3944 75.5781H62.9889C63.0999 75.5787 63.2062 75.6231 63.2845 75.7018C63.3628 75.7805 63.4067 75.887 63.4067 75.998C63.4067 76.109 63.3628 76.2154 63.2845 76.2941C63.2062 76.3728 63.0999 76.4173 62.9889 76.4178V76.4178Z" fill="#FFFFFE"/>
<path fill-rule="evenodd" clip-rule="evenodd" d="M67.1656 76.4178H64.6595C64.5485 76.4173 64.4422 76.3728 64.3639 76.2941C64.2857 76.2154 64.2417 76.109 64.2417 75.998C64.2417 75.887 64.2857 75.7805 64.3639 75.7018C64.4422 75.6231 64.5485 75.5787 64.6595 75.5781H67.1656C67.2766 75.5787 67.3829 75.6231 67.4612 75.7018C67.5395 75.7805 67.5835 75.887 67.5835 75.998C67.5835 76.109 67.5395 76.2154 67.4612 76.2941C67.3829 76.3728 67.2766 76.4173 67.1656 76.4178V76.4178Z" fill="#50E6FF"/>
<path fill-rule="evenodd" clip-rule="evenodd" d="M60.0651 73.4784H58.3944C58.2834 73.4778 58.1771 73.4334 58.0988 73.3547C58.0205 73.276 57.9766 73.1695 57.9766 73.0585C57.9766 72.9475 58.0205 72.841 58.0988 72.7624C58.1771 72.6837 58.2834 72.6392 58.3944 72.6387H60.0651C60.1761 72.6392 60.2824 72.6837 60.3607 72.7624C60.439 72.841 60.4829 72.9475 60.4829 73.0585C60.4829 73.1695 60.439 73.276 60.3607 73.3547C60.2824 73.4334 60.1761 73.4778 60.0651 73.4784V73.4784Z" fill="#003067"/>
<path fill-rule="evenodd" clip-rule="evenodd" d="M62.9889 70.5389H58.3944C58.2834 70.5384 58.1771 70.4939 58.0988 70.4152C58.0205 70.3365 57.9766 70.2301 57.9766 70.1191C57.9766 70.0081 58.0205 69.9016 58.0988 69.8229C58.1771 69.7442 58.2834 69.6998 58.3944 69.6992H62.9889C63.0999 69.6998 63.2062 69.7442 63.2845 69.8229C63.3628 69.9016 63.4067 70.0081 63.4067 70.1191C63.4067 70.2301 63.3628 70.3365 63.2845 70.4152C63.2062 70.4939 63.0999 70.5384 62.9889 70.5389V70.5389Z" fill="#FFFFFE"/>
<path fill-rule="evenodd" clip-rule="evenodd" d="M69.2541 70.5389H64.6595C64.5485 70.5384 64.4422 70.4939 64.3639 70.4152C64.2857 70.3365 64.2417 70.2301 64.2417 70.1191C64.2417 70.0081 64.2857 69.9016 64.3639 69.8229C64.4422 69.7442 64.5485 69.6998 64.6595 69.6992H69.2541C69.3651 69.6998 69.4714 69.7442 69.5497 69.8229C69.6279 69.9016 69.6719 70.0081 69.6719 70.1191C69.6719 70.2301 69.6279 70.3365 69.5497 70.4152C69.4714 70.4939 69.3651 70.5384 69.2541 70.5389V70.5389Z" fill="#FFFFFE"/>
<path fill-rule="evenodd" clip-rule="evenodd" d="M72.1782 70.5389H70.9251C70.8141 70.5384 70.7079 70.4939 70.6296 70.4152C70.5513 70.3365 70.5073 70.2301 70.5073 70.1191C70.5073 70.0081 70.5513 69.9016 70.6296 69.8229C70.7079 69.7442 70.8141 69.6998 70.9251 69.6992H72.1782C72.2892 69.6998 72.3954 69.7442 72.4737 69.8229C72.552 69.9016 72.596 70.0081 72.596 70.1191C72.596 70.2301 72.552 70.3365 72.4737 70.4152C72.3954 70.4939 72.2892 70.5384 72.1782 70.5389V70.5389Z" fill="#C3F1FF"/>
<path fill-rule="evenodd" clip-rule="evenodd" d="M66.3305 73.4784H61.8153C61.7043 73.4778 61.598 73.4334 61.5197 73.3547C61.4414 73.276 61.3975 73.1695 61.3975 73.0585C61.3975 72.9475 61.4414 72.841 61.5197 72.7624C61.598 72.6837 61.7043 72.6392 61.8153 72.6387H66.3305C66.4415 72.6392 66.5478 72.6837 66.626 72.7624C66.7043 72.841 66.7483 72.9475 66.7483 73.0585C66.7483 73.1695 66.7043 73.276 66.626 73.3547C66.5478 73.4334 66.4415 73.4778 66.3305 73.4784V73.4784Z" fill="#C3F1FF"/>
<path fill-rule="evenodd" clip-rule="evenodd" d="M66.3304 67.6014H64.6596C64.5488 67.6007 64.4427 67.5561 64.3646 67.4774C64.2865 67.3988 64.2427 67.2924 64.2427 67.1816C64.2427 67.0707 64.2865 66.9644 64.3646 66.8857C64.4427 66.8071 64.5488 66.7625 64.6596 66.7617H66.3304C66.4413 66.7625 66.5473 66.8071 66.6254 66.8857C66.7036 66.9644 66.7474 67.0707 66.7474 67.1816C66.7474 67.2924 66.7036 67.3988 66.6254 67.4774C66.5473 67.5561 66.4413 67.6007 66.3304 67.6014V67.6014Z" fill="#003067"/>
<path fill-rule="evenodd" clip-rule="evenodd" d="M62.9891 67.6014H58.3945C58.2837 67.6007 58.1776 67.5561 58.0995 67.4774C58.0214 67.3988 57.9775 67.2924 57.9775 67.1816C57.9775 67.0707 58.0214 66.9644 58.0995 66.8857C58.1776 66.8071 58.2837 66.7625 58.3945 66.7617H62.9891C63.0999 66.7625 63.206 66.8071 63.2841 66.8857C63.3622 66.9644 63.406 67.0707 63.406 67.1816C63.406 67.2924 63.3622 67.3988 63.2841 67.4774C63.206 67.5561 63.0999 67.6007 62.9891 67.6014V67.6014Z" fill="#50E6FF"/>
<path fill-rule="evenodd" clip-rule="evenodd" d="M62.9889 64.662H58.3944C58.2834 64.6614 58.1771 64.6169 58.0988 64.5383C58.0205 64.4596 57.9766 64.3531 57.9766 64.2421C57.9766 64.1311 58.0205 64.0246 58.0988 63.946C58.1771 63.8673 58.2834 63.8228 58.3944 63.8223H62.9889C63.0999 63.8228 63.2062 63.8673 63.2845 63.946C63.3628 64.0246 63.4067 64.1311 63.4067 64.2421C63.4067 64.3531 63.3628 64.4596 63.2845 64.5383C63.2062 64.6169 63.0999 64.6614 62.9889 64.662V64.662Z" fill="#FFFFFE"/>
<path fill-rule="evenodd" clip-rule="evenodd" d="M58.3943 61.7221C58.3394 61.7221 58.2851 61.7113 58.2344 61.6902C58.1837 61.6691 58.1377 61.6381 58.099 61.5991C58.0206 61.5202 57.9766 61.4135 57.9766 61.3023C57.9766 61.191 58.0206 61.0843 58.099 61.0054L59.0568 60.0428L58.099 59.0801C58.0206 59.0012 57.9766 58.8945 57.9766 58.7832C57.9766 58.672 58.0206 58.5653 58.099 58.4864C58.1377 58.4474 58.1837 58.4164 58.2344 58.3953C58.2851 58.3742 58.3394 58.3633 58.3943 58.3633C58.4493 58.3633 58.5036 58.3742 58.5543 58.3953C58.605 58.4164 58.651 58.4474 58.6896 58.4864L59.9427 59.7459C60.0212 59.8248 60.0652 59.9315 60.0652 60.0428C60.0652 60.154 60.0212 60.2607 59.9427 60.3396L58.6896 61.5991C58.651 61.6381 58.605 61.6691 58.5543 61.6902C58.5036 61.7113 58.4493 61.7221 58.3943 61.7221V61.7221Z" fill="#C3F1FF"/>
<path fill-rule="evenodd" clip-rule="evenodd" d="M62.5714 61.7225H60.9007C60.7897 61.7219 60.6834 61.6774 60.6052 61.5988C60.5269 61.5201 60.4829 61.4136 60.4829 61.3026C60.4829 61.1916 60.5269 61.0852 60.6052 61.0065C60.6834 60.9278 60.7897 60.8834 60.9007 60.8828H62.5714C62.6824 60.8834 62.7887 60.9278 62.867 61.0065C62.9453 61.0852 62.9892 61.1916 62.9892 61.3026C62.9892 61.4136 62.9453 61.5201 62.867 61.5988C62.7887 61.6774 62.6824 61.7219 62.5714 61.7225V61.7225Z" fill="#C3F1FF"/>
</g>
<defs>
<linearGradient id="paint0_linear" x1="47.8698" y1="-15.153" x2="51.8525" y2="130.615" gradientUnits="userSpaceOnUse">
<stop stop-color="#00ABDE"/>
<stop offset="1" stop-color="#007ED8"/>
</linearGradient>
<linearGradient id="paint1_linear" x1="71.4713" y1="86.3735" x2="33.0384" y2="19.8057" gradientUnits="userSpaceOnUse">
<stop stop-color="#002D4C"/>
<stop offset="1" stop-color="#007ED8"/>
</linearGradient>
<clipPath id="clip0">
<rect width="99.2799" height="99.28" fill="white"/>
</clipPath>
</defs>
</svg>
