<svg xmlns="http://www.w3.org/2000/svg" xmlns:xlink="http://www.w3.org/1999/xlink" viewBox="0 0 440.114 429.111">
  <defs>
    <linearGradient id="linear-gradient" x1="57.792" y1="1348.86" x2="72.207" y2="1348.86" gradientTransform="matrix(1, 0, 0, -1, 0, 1449.2)" gradientUnits="userSpaceOnUse">
      <stop offset="0" stop-color="#b77af4"/>
      <stop offset="1" stop-color="#773adc"/>
    </linearGradient>
    <linearGradient id="linear-gradient-2" x1="73.364" y1="1348.735" x2="87.754" y2="1348.735" xlink:href="#linear-gradient"/>
    <linearGradient id="linear-gradient-3" x1="50.421" y1="1335.326" x2="64.81" y2="1335.326" xlink:href="#linear-gradient"/>
    <linearGradient id="linear-gradient-4" x1="65.943" y1="1335.414" x2="80.332" y2="1335.414" xlink:href="#linear-gradient"/>
    <linearGradient id="linear-gradient-5" x1="81.465" y1="1335.301" x2="95.88" y2="1335.301" xlink:href="#linear-gradient"/>
    <linearGradient id="linear-gradient-6" x1="57.615" y1="1321.64" x2="72.031" y2="1321.64" xlink:href="#linear-gradient"/>
    <linearGradient id="linear-gradient-7" x1="73.163" y1="1321.54" x2="87.578" y2="1321.54" xlink:href="#linear-gradient"/>
    <linearGradient id="linear-gradient-8" x1="308" y1="54.8" x2="308" y2="156" gradientUnits="userSpaceOnUse">
      <stop offset="0" stop-color="#f0f0f0"/>
      <stop offset="0.33" stop-color="#ececec"/>
      <stop offset="0.68" stop-color="#dfdfdf"/>
      <stop offset="1" stop-color="#ccc"/>
    </linearGradient>
    <linearGradient id="linear-gradient-9" x1="194.471" y1="1388.839" x2="194.471" y2="1407.6" gradientTransform="matrix(1, 0, 0, -1, 0, 1449.2)" gradientUnits="userSpaceOnUse">
      <stop offset="0" stop-color="#2e76bc"/>
      <stop offset="0.82" stop-color="#699cd3"/>
    </linearGradient>
    <linearGradient id="linear-gradient-10" x1="194.471" y1="1381.6" x2="194.471" y2="1388.839" gradientTransform="matrix(1, 0, 0, -1, 0, 1449.2)" gradientUnits="userSpaceOnUse">
      <stop offset="0.15" stop-color="#cccccb"/>
      <stop offset="1" stop-color="#707071"/>
    </linearGradient>
    <linearGradient id="linear-gradient-11" x1="241.9" y1="1334.8" x2="241.9" y2="1354.8" gradientTransform="matrix(1, 0, 0, -1, 0, 1449.2)" gradientUnits="userSpaceOnUse">
      <stop offset="0" stop-color="#2e76bc"/>
      <stop offset="0.16" stop-color="#347dc0"/>
      <stop offset="0.53" stop-color="#4c8dcb"/>
      <stop offset="0.82" stop-color="#6198d1"/>
      <stop offset="1" stop-color="#699cd3"/>
    </linearGradient>
    <linearGradient id="linear-gradient-12" x1="312.3" y1="1334.8" x2="312.3" y2="1354.8" xlink:href="#linear-gradient-11"/>
    <linearGradient id="linear-gradient-13" x1="382.9" y1="1334.8" x2="382.9" y2="1354.8" xlink:href="#linear-gradient-11"/>
    <linearGradient id="linear-gradient-15" x1="194.471" y1="1261.239" x2="194.471" y2="1280" xlink:href="#linear-gradient-9"/>
    <linearGradient id="linear-gradient-16" x1="194.471" y1="1254" x2="194.471" y2="1261.239" xlink:href="#linear-gradient-10"/>
    <linearGradient id="linear-gradient-17" x1="241.9" y1="1207.2" x2="241.9" y2="1227.2" xlink:href="#linear-gradient-11"/>
    <linearGradient id="linear-gradient-18" x1="312.3" y1="1207.2" x2="312.3" y2="1227.2" xlink:href="#linear-gradient-11"/>
    <linearGradient id="linear-gradient-19" x1="382.9" y1="1207.2" x2="382.9" y2="1227.2" xlink:href="#linear-gradient-11"/>
    <linearGradient id="linear-gradient-21" x1="194.471" y1="1133.639" x2="194.471" y2="1152.4" xlink:href="#linear-gradient-9"/>
    <linearGradient id="linear-gradient-22" x1="194.471" y1="1126.4" x2="194.471" y2="1133.639" xlink:href="#linear-gradient-10"/>
    <linearGradient id="linear-gradient-23" x1="241.9" y1="1079.6" x2="241.9" y2="1099.6" xlink:href="#linear-gradient-11"/>
    <linearGradient id="linear-gradient-24" x1="312.3" y1="1079.6" x2="312.3" y2="1099.6" xlink:href="#linear-gradient-11"/>
    <linearGradient id="linear-gradient-25" x1="382.9" y1="1079.6" x2="382.9" y2="1099.6" xlink:href="#linear-gradient-11"/>
  </defs>
  <g id="Shapes">
    <rect width="440.114" height="429.111" fill="#fff"/>
    <g>
      <rect x="158.4" y="24" width="277.2" height="400.4" fill="#fff"/>
      <rect x="158.4" y="24" width="277.2" height="400.4" fill="#326ce5" opacity="0.1"/>
      <rect x="158.4" y="24" width="277.2" height="400.4" fill="none" stroke="#326ce5" stroke-width="0.25"/>
    </g>
    <g>
      <path d="M148.342,36.776a2.44,2.44,0,0,1-1.924-.931l-7.242-9a2.43,2.43,0,0,1-.476-2.111L141.286,13.5a2.451,2.451,0,0,1,1.345-1.676L153.1,6.816a2.458,2.458,0,0,1,2.152,0l10.47,4.986a2.451,2.451,0,0,1,1.345,1.676l2.586,11.236a2.5,2.5,0,0,1-.476,2.11l-7.242,9a2.505,2.505,0,0,1-1.924.931l-11.67.02Z" fill="#326de6"/>
      <path d="M154.156,7.085a2.028,2.028,0,0,1,.849.186l10.469,4.987A2.008,2.008,0,0,1,166.55,13.6l2.587,11.235a1.933,1.933,0,0,1-.394,1.7l-7.241,9a1.972,1.972,0,0,1-1.552.745H148.342a1.972,1.972,0,0,1-1.552-.745l-7.242-9a2.071,2.071,0,0,1-.393-1.7L141.742,13.6a1.974,1.974,0,0,1,1.076-1.345L153.287,7.25a2.505,2.505,0,0,1,.869-.165Zm0-.973h0a3.138,3.138,0,0,0-1.283.29L142.4,11.409a2.931,2.931,0,0,0-1.614,2.007L138.2,24.652a2.934,2.934,0,0,0,.579,2.524l7.242,9a2.92,2.92,0,0,0,2.3,1.1h11.608a2.922,2.922,0,0,0,2.3-1.1l7.242-9a2.92,2.92,0,0,0,.579-2.524l-2.586-11.236a2.934,2.934,0,0,0-1.614-2.007L155.418,6.4a2.967,2.967,0,0,0-1.262-.29Z" fill="#fff"/>
      <path d="M164.647,23.948h-.021c-.021,0-.041,0-.041-.021-.042,0-.083-.02-.125-.02a2.775,2.775,0,0,0-.393-.042.8.8,0,0,1-.207-.02h-.02a5.464,5.464,0,0,1-1.118-.187.4.4,0,0,1-.227-.227c0-.021-.021-.021-.021-.042h0l-.269-.082a8.182,8.182,0,0,0-.145-2.918,8.506,8.506,0,0,0-1.158-2.71l.206-.187v-.041a.466.466,0,0,1,.1-.31,6.042,6.042,0,0,1,.931-.642h0c.062-.041.124-.062.186-.1a3.073,3.073,0,0,0,.352-.207c.021-.021.062-.041.1-.083.021-.021.042-.021.042-.041h0a.691.691,0,0,0,.145-.931.59.59,0,0,0-.476-.228.762.762,0,0,0-.455.166h0l-.042.041c-.041.021-.062.062-.1.083a3.381,3.381,0,0,0-.269.289.944.944,0,0,1-.145.145h0a5.234,5.234,0,0,1-.828.745.336.336,0,0,1-.186.062.258.258,0,0,1-.124-.021H160.3l-.249.166a9.893,9.893,0,0,0-.848-.786,8.263,8.263,0,0,0-4.325-1.718l-.02-.269-.042-.041a.433.433,0,0,1-.165-.269,7.266,7.266,0,0,1,.062-1.117v-.021a.76.76,0,0,1,.041-.207c.021-.124.042-.248.062-.393v-.186h0a.631.631,0,0,0-1.1-.476.656.656,0,0,0-.186.476h0v.165a1.186,1.186,0,0,0,.062.393c.02.063.02.125.041.207v.021a5.4,5.4,0,0,1,.062,1.117.433.433,0,0,1-.165.269l-.042.042h0l-.02.269a10.254,10.254,0,0,0-1.118.165,7.98,7.98,0,0,0-4.1,2.318l-.207-.145h-.041c-.041,0-.083.02-.124.02a.328.328,0,0,1-.186-.062,5.5,5.5,0,0,1-.828-.765h0a.9.9,0,0,0-.145-.145,3.544,3.544,0,0,0-.269-.29c-.02-.02-.062-.041-.1-.082-.021-.021-.042-.021-.042-.042h0a.723.723,0,0,0-.455-.165.589.589,0,0,0-.476.227.69.69,0,0,0,.145.931h0c.021,0,.021.021.042.021.041.021.062.062.1.083a3.073,3.073,0,0,0,.352.207.823.823,0,0,1,.186.1h0a6.042,6.042,0,0,1,.931.642.38.38,0,0,1,.1.31v.041h0l.207.187a.745.745,0,0,0-.1.165,8.058,8.058,0,0,0-1.159,5.463l-.269.082c0,.021-.02.021-.02.042a.488.488,0,0,1-.228.227,5.225,5.225,0,0,1-1.117.187h-.021a.728.728,0,0,0-.207.02,2.79,2.79,0,0,0-.393.042c-.041,0-.083.02-.124.02a.074.074,0,0,0-.062.021h0a.678.678,0,0,0-.538.766.638.638,0,0,0,.662.475.467.467,0,0,0,.165-.02h0c.021,0,.042,0,.042-.021.041,0,.083-.021.124-.021a1.957,1.957,0,0,0,.372-.144c.062-.021.125-.063.187-.083h.02a5.114,5.114,0,0,1,1.076-.311h.042a.46.46,0,0,1,.269.1c.02,0,.02.021.041.021h0l.29-.042a7.975,7.975,0,0,0,3.6,4.49l-.124.269c0,.021.02.021.02.041a.426.426,0,0,1,.042.332,5.889,5.889,0,0,1-.538.972v.021c-.042.062-.083.1-.124.165-.083.1-.145.207-.228.331a.451.451,0,0,0-.062.1.073.073,0,0,1-.021.041h0a.656.656,0,0,0,.269.89.559.559,0,0,0,.249.062.744.744,0,0,0,.62-.393h0a.073.073,0,0,1,.021-.042.464.464,0,0,1,.062-.1,3.775,3.775,0,0,0,.124-.373l.062-.186h0a4.857,4.857,0,0,1,.435-1.034.529.529,0,0,1,.269-.186c.02,0,.02,0,.041-.021h0l.145-.269a8.079,8.079,0,0,0,2.9.538,7.5,7.5,0,0,0,1.8-.207,9.31,9.31,0,0,0,1.076-.31l.124.227c.021,0,.021,0,.041.021a.382.382,0,0,1,.269.186,7.03,7.03,0,0,1,.435,1.035v.02l.062.186a2.548,2.548,0,0,0,.124.373c.021.041.041.062.062.1a.073.073,0,0,0,.021.042h0a.7.7,0,0,0,.621.393.558.558,0,0,0,.248-.062.614.614,0,0,0,.31-.373.743.743,0,0,0-.041-.517h0c0-.021-.021-.021-.021-.041a.451.451,0,0,0-.062-.1,1.885,1.885,0,0,0-.228-.331c-.041-.062-.082-.1-.124-.165v-.021a4.71,4.71,0,0,1-.538-.972.58.58,0,0,1,.021-.332c0-.02.021-.02.021-.041h0l-.1-.248a8.216,8.216,0,0,0,3.6-4.532l.248.042c.02,0,.02-.021.041-.021a.53.53,0,0,1,.269-.1h.042a5.04,5.04,0,0,1,1.075.31h.021c.062.021.124.062.186.083a2.066,2.066,0,0,0,.373.145c.041,0,.083.02.124.02a.075.075,0,0,1,.062.021h0a.452.452,0,0,0,.166.021.7.7,0,0,0,.662-.476.8.8,0,0,0-.6-.683Zm-9.58-1.014-.911.435-.91-.435-.228-.972.621-.787h1.014l.621.787-.207.972Zm5.4-2.152a6.515,6.515,0,0,1,.145,2.09l-3.166-.91a.562.562,0,0,1-.393-.662.5.5,0,0,1,.124-.228l2.5-2.255a6.6,6.6,0,0,1,.786,1.965Zm-1.779-3.207L155.977,19.5a.55.55,0,0,1-.724-.124.464.464,0,0,1-.1-.227l-.186-3.373a6.287,6.287,0,0,1,3.725,1.8Zm-6-1.7c.228-.042.435-.083.662-.125l-.186,3.311a.566.566,0,0,1-.559.538.5.5,0,0,1-.248-.062L149.6,17.575a6.318,6.318,0,0,1,3.083-1.7Zm-4.076,2.938,2.462,2.193a.549.549,0,0,1,.062.765.41.41,0,0,1-.248.166l-3.207.931a6.658,6.658,0,0,1,.931-4.055Zm-.559,5.607,3.29-.559a.56.56,0,0,1,.58.435.6.6,0,0,1-.021.331h0l-1.262,3.041a6.517,6.517,0,0,1-2.587-3.248Zm7.553,4.117a6.727,6.727,0,0,1-1.449.166,7,7,0,0,1-2.089-.331l1.634-2.959a.544.544,0,0,1,.662-.145.887.887,0,0,1,.249.228h0l1.593,2.876c-.187.062-.393.1-.6.165Zm4.034-2.876a6.559,6.559,0,0,1-1.986,2.007l-1.3-3.124a.555.555,0,0,1,.289-.641.653.653,0,0,1,.29-.062l3.31.558a4.16,4.16,0,0,1-.6,1.262Z" fill="#fff"/>
    </g>
    <g>
      <polygon points="64.987 94 57.792 95.333 57.792 105.145 64.987 106.679 72.207 103.786 72.207 96.465 64.987 94" fill="url(#linear-gradient)"/>
      <path d="M65.263,106.528l6.591-2.666a.5.5,0,0,0,.3-.353V96.868a.526.526,0,0,0-.327-.453l-6.666-2.264h-.3L58.32,95.358a.5.5,0,0,0-.377.453v8.881a.477.477,0,0,0,.377.478l6.616,1.383A.785.785,0,0,0,65.263,106.528Z" fill="none"/>
      <path d="M57.792,95.333v9.812l7.27,1.534V94.1Zm3.069,9.057-2.038-.4V96.44l2.038-.327Zm3.17.579-2.34-.378V95.962l2.34-.4Z" fill="#341a6e"/>
      <polygon points="80.559 94.126 73.364 95.459 73.364 105.27 80.559 106.805 87.754 103.887 87.754 96.591 80.559 94.126" fill="url(#linear-gradient-2)"/>
      <path d="M73.364,95.459v9.811l7.22,1.535V94.226Zm3.044,9.057-2.038-.4V96.566l2.038-.327Zm3.17.578-2.34-.377V96.088l2.34-.428Z" fill="#341a6e"/>
      <polygon points="57.615 107.535 50.421 108.868 50.421 118.679 57.615 120.214 64.836 117.321 64.836 110 57.615 107.535" fill="url(#linear-gradient-3)"/>
      <path d="M50.4,108.868V118.6l7.271,1.534V107.56Zm3.044,9.082-2.037-.428v-7.547l2.037-.352Zm3.2.654-2.339-.378V109.5l2.339-.4Z" fill="#341a6e"/>
      <polygon points="73.138 107.434 65.943 108.767 65.943 118.579 73.138 120.138 80.332 117.22 80.332 109.899 73.138 107.434" fill="url(#linear-gradient-4)"/>
      <path d="M65.943,108.767V118.6l7.245,1.534V107.56Zm3.044,9.082-2.038-.428v-7.547l2.038-.352Zm3.169.554-2.339-.378V109.4l2.339-.4Z" fill="#341a6e"/>
      <polygon points="88.66 107.56 81.465 108.893 81.465 118.704 88.66 120.239 95.88 117.346 95.88 110.025 88.66 107.56" fill="url(#linear-gradient-5)"/>
      <path d="M81.465,108.893V118.6l7.27,1.534V107.56Zm3.069,9.082-2.038-.428V110l2.038-.352Zm3.17.553-2.34-.377v-8.629l2.34-.4Z" fill="#341a6e"/>
      <polygon points="64.81 121.22 57.615 122.528 57.615 132.34 64.81 133.899 72.031 130.981 72.031 123.686 64.81 121.22" fill="url(#linear-gradient-6)"/>
      <path d="M65.087,133.7l6.566-2.516a.452.452,0,0,0,.3-.452v-6.541a.5.5,0,0,0-.327-.554l-6.641-2.264a.425.425,0,0,0-.3,0l-6.541,1.182a.479.479,0,0,0-.4.478v8.906a.478.478,0,0,0,.378.478l6.616,1.283A.572.572,0,0,0,65.087,133.7Z" fill="none"/>
      <path d="M57.615,122.528v9.812l7.271,1.559v-12.78Zm3.07,9.082-2.038-.428v-7.547l2.038-.352Zm3.169.579-2.339-.378v-8.654l2.339-.4Z" fill="#341a6e"/>
      <polygon points="80.358 121.321 73.163 122.654 73.163 132.465 80.358 134 87.578 131.107 87.578 123.786 80.358 121.321" fill="url(#linear-gradient-7)"/>
      <path d="M73.163,122.654v9.811L80.433,134V121.421Zm3.069,9.082-2.038-.428v-7.547l2.038-.352Zm3.17.553-2.34-.377v-8.629l2.34-.4Z" fill="#341a6e"/>
    </g>
    <rect x="193.6" y="54.8" width="228.8" height="101.2" stroke="#777677" stroke-width="0.25" fill="url(#linear-gradient-8)"/>
    <g>
      <rect x="180.4" y="41.6" width="28.142" height="18.761" rx="0.938" fill="url(#linear-gradient-9)"/>
      <polygon points="199.161 48.245 199.161 53.701 194.471 56.453 194.471 50.981 199.161 48.245" fill="#74cfeb"/>
      <polygon points="199.161 48.245 194.471 50.996 189.781 48.245 194.471 45.509 199.161 48.245" fill="#c6eaf8"/>
      <polygon points="194.471 50.996 194.471 56.453 189.781 53.701 189.781 48.245 194.471 50.996" fill="#a5def3"/>
      <polygon points="189.781 53.701 194.471 50.981 194.471 56.453 189.781 53.701" fill="#c6eaf8"/>
      <polygon points="199.161 53.701 194.471 50.981 194.471 56.453 199.161 53.701" fill="#a5def3"/>
      <path d="M200.115,66.037c-2.783-.438-2.892-2.439-2.892-5.676H191.7c0,3.237-.094,5.238-2.877,5.676a1.564,1.564,0,0,0-1.392,1.563h14.071A1.562,1.562,0,0,0,200.115,66.037Z" fill="url(#linear-gradient-10)"/>
    </g>
    <g>
      <rect x="211.2" y="82.8" width="61.4" height="64.4" fill="#fff"/>
      <g opacity="0.65">
        <path d="M272.35,83.05v63.9h-60.9V83.05h60.9m.25-.25H211.2v64.4h61.4V82.8Z" fill="#505150"/>
      </g>
    </g>
    <path d="M238.9,108.4h6v6h-6Zm-7-8h6v-6h-5.163a.837.837,0,0,0-.837.837Zm.837,14H237.9v-6h-6v5.162a.838.838,0,0,0,.837.838Zm-.837-7h6v-6h-6Zm14,7h5.162a.838.838,0,0,0,.838-.838h0V108.4h-6Zm-7-7h6v-6h-6Zm7,0h6v-6h-6Zm0-13v6h6V95.237a.838.838,0,0,0-.838-.837H245.9Zm-7,6h6v-6h-6Z" fill="url(#linear-gradient-11)"/>
    <g>
      <rect x="281.6" y="82.8" width="61.4" height="64.4" fill="#fff"/>
      <g opacity="0.65">
        <path d="M342.75,83.05v63.9h-60.9V83.05h60.9m.25-.25H281.6v64.4H343V82.8Z" fill="#505150"/>
      </g>
    </g>
    <path d="M309.3,108.4h6v6h-6Zm-7-8h6v-6h-5.163a.837.837,0,0,0-.837.837Zm.837,14H308.3v-6h-6v5.162a.838.838,0,0,0,.837.838Zm-.837-7h6v-6h-6Zm14,7h5.162a.838.838,0,0,0,.838-.838h0V108.4h-6Zm-7-7h6v-6h-6Zm7,0h6v-6h-6Zm0-13v6h6V95.237a.838.838,0,0,0-.838-.837H316.3Zm-7,6h6v-6h-6Z" fill="url(#linear-gradient-12)"/>
    <g>
      <rect x="352.2" y="82.8" width="61.4" height="64.4" fill="#fff"/>
      <g opacity="0.65">
        <path d="M413.35,83.05v63.9h-60.9V83.05h60.9m.25-.25H352.2v64.4h61.4V82.8Z" fill="#505150"/>
      </g>
    </g>
    <path d="M379.9,108.4h6v6h-6Zm-7-8h6v-6h-5.163a.837.837,0,0,0-.837.837Zm.837,14H378.9v-6h-6v5.162a.838.838,0,0,0,.837.838Zm-.837-7h6v-6h-6Zm14,7h5.162a.838.838,0,0,0,.838-.838h0V108.4h-6Zm-7-7h6v-6h-6Zm7,0h6v-6h-6Zm0-13v6h6V95.237a.838.838,0,0,0-.838-.837H386.9Zm-7,6h6v-6h-6Z" fill="url(#linear-gradient-13)"/>
    <rect x="193.6" y="182.4" width="228.8" height="101.2" stroke="#777677" stroke-width="0.25" fill="url(#linear-gradient-8)"/>
    <g>
      <rect x="180.4" y="169.2" width="28.142" height="18.761" rx="0.938" fill="url(#linear-gradient-15)"/>
      <polygon points="199.161 175.845 199.161 181.301 194.471 184.053 194.471 178.581 199.161 175.845" fill="#74cfeb"/>
      <polygon points="199.161 175.845 194.471 178.596 189.781 175.845 194.471 173.109 199.161 175.845" fill="#c6eaf8"/>
      <polygon points="194.471 178.596 194.471 184.053 189.781 181.301 189.781 175.845 194.471 178.596" fill="#a5def3"/>
      <polygon points="189.781 181.301 194.471 178.581 194.471 184.053 189.781 181.301" fill="#c6eaf8"/>
      <polygon points="199.161 181.301 194.471 178.581 194.471 184.053 199.161 181.301" fill="#a5def3"/>
      <path d="M200.115,193.637c-2.783-.438-2.892-2.439-2.892-5.676H191.7c0,3.237-.094,5.238-2.877,5.676a1.564,1.564,0,0,0-1.392,1.563h14.071A1.562,1.562,0,0,0,200.115,193.637Z" fill="url(#linear-gradient-16)"/>
    </g>
    <g>
      <rect x="211.2" y="210.4" width="61.4" height="64.4" fill="#fff"/>
      <g opacity="0.65">
        <path d="M272.35,210.65v63.9h-60.9v-63.9h60.9m.25-.25H211.2v64.4h61.4V210.4Z" fill="#505150"/>
      </g>
    </g>
    <path d="M238.9,236h6v6h-6Zm-7-8h6v-6h-5.163a.837.837,0,0,0-.837.837Zm.837,14H237.9v-6h-6v5.162a.838.838,0,0,0,.837.838Zm-.837-7h6v-6h-6Zm14,7h5.162a.838.838,0,0,0,.838-.838h0V236h-6Zm-7-7h6v-6h-6Zm7,0h6v-6h-6Zm0-13v6h6v-5.163a.838.838,0,0,0-.838-.837H245.9Zm-7,6h6v-6h-6Z" fill="url(#linear-gradient-17)"/>
    <g>
      <rect x="281.6" y="210.4" width="61.4" height="64.4" fill="#fff"/>
      <g opacity="0.65">
        <path d="M342.75,210.65v63.9h-60.9v-63.9h60.9m.25-.25H281.6v64.4H343V210.4Z" fill="#505150"/>
      </g>
    </g>
    <path d="M309.3,236h6v6h-6Zm-7-8h6v-6h-5.163a.837.837,0,0,0-.837.837Zm.837,14H308.3v-6h-6v5.162a.838.838,0,0,0,.837.838Zm-.837-7h6v-6h-6Zm14,7h5.162a.838.838,0,0,0,.838-.838h0V236h-6Zm-7-7h6v-6h-6Zm7,0h6v-6h-6Zm0-13v6h6v-5.163a.838.838,0,0,0-.838-.837H316.3Zm-7,6h6v-6h-6Z" fill="url(#linear-gradient-18)"/>
    <g>
      <rect x="352.2" y="210.4" width="61.4" height="64.4" fill="#fff"/>
      <g opacity="0.65">
        <path d="M413.35,210.65v63.9h-60.9v-63.9h60.9m.25-.25H352.2v64.4h61.4V210.4Z" fill="#505150"/>
      </g>
    </g>
    <path d="M379.9,236h6v6h-6Zm-7-8h6v-6h-5.163a.837.837,0,0,0-.837.837Zm.837,14H378.9v-6h-6v5.162a.838.838,0,0,0,.837.838Zm-.837-7h6v-6h-6Zm14,7h5.162a.838.838,0,0,0,.838-.838h0V236h-6Zm-7-7h6v-6h-6Zm7,0h6v-6h-6Zm0-13v6h6v-5.163a.838.838,0,0,0-.838-.837H386.9Zm-7,6h6v-6h-6Z" fill="url(#linear-gradient-19)"/>
    <rect x="193.6" y="310" width="228.8" height="101.2" stroke="#777677" stroke-width="0.25" fill="url(#linear-gradient-8)"/>
    <g>
      <rect x="180.4" y="296.8" width="28.142" height="18.761" rx="0.938" fill="url(#linear-gradient-21)"/>
      <polygon points="199.161 303.445 199.161 308.901 194.471 311.653 194.471 306.181 199.161 303.445" fill="#74cfeb"/>
      <polygon points="199.161 303.445 194.471 306.196 189.781 303.445 194.471 300.709 199.161 303.445" fill="#c6eaf8"/>
      <polygon points="194.471 306.196 194.471 311.653 189.781 308.901 189.781 303.445 194.471 306.196" fill="#a5def3"/>
      <polygon points="189.781 308.901 194.471 306.181 194.471 311.653 189.781 308.901" fill="#c6eaf8"/>
      <polygon points="199.161 308.901 194.471 306.181 194.471 311.653 199.161 308.901" fill="#a5def3"/>
      <path d="M200.115,321.237c-2.783-.438-2.892-2.439-2.892-5.676H191.7c0,3.237-.094,5.238-2.877,5.676a1.564,1.564,0,0,0-1.392,1.563h14.071A1.562,1.562,0,0,0,200.115,321.237Z" fill="url(#linear-gradient-22)"/>
    </g>
    <g>
      <rect x="211.2" y="338" width="61.4" height="64.4" fill="#fff"/>
      <g opacity="0.65">
        <path d="M272.35,338.25v63.9h-60.9v-63.9h60.9m.25-.25H211.2v64.4h61.4V338Z" fill="#505150"/>
      </g>
    </g>
    <path d="M238.9,363.6h6v6h-6Zm-7-8h6v-6h-5.163a.837.837,0,0,0-.837.837Zm.837,14H237.9v-6h-6v5.162a.838.838,0,0,0,.837.838Zm-.837-7h6v-6h-6Zm14,7h5.162a.838.838,0,0,0,.838-.838h0V363.6h-6Zm-7-7h6v-6h-6Zm7,0h6v-6h-6Zm0-13v6h6v-5.163a.838.838,0,0,0-.838-.837H245.9Zm-7,6h6v-6h-6Z" fill="url(#linear-gradient-23)"/>
    <g>
      <rect x="281.6" y="338" width="61.4" height="64.4" fill="#fff"/>
      <g opacity="0.65">
        <path d="M342.75,338.25v63.9h-60.9v-63.9h60.9M343,338H281.6v64.4H343V338Z" fill="#505150"/>
      </g>
    </g>
    <path d="M309.3,363.6h6v6h-6Zm-7-8h6v-6h-5.163a.837.837,0,0,0-.837.837Zm.837,14H308.3v-6h-6v5.162a.838.838,0,0,0,.837.838Zm-.837-7h6v-6h-6Zm14,7h5.162a.838.838,0,0,0,.838-.838h0V363.6h-6Zm-7-7h6v-6h-6Zm7,0h6v-6h-6Zm0-13v6h6v-5.163a.838.838,0,0,0-.838-.837H316.3Zm-7,6h6v-6h-6Z" fill="url(#linear-gradient-24)"/>
    <g>
      <rect x="352.2" y="338" width="61.4" height="64.4" fill="#fff"/>
      <g opacity="0.65">
        <path d="M413.35,338.25v63.9h-60.9v-63.9h60.9m.25-.25H352.2v64.4h61.4V338Z" fill="#505150"/>
      </g>
    </g>
    <path d="M379.9,363.6h6v6h-6Zm-7-8h6v-6h-5.163a.837.837,0,0,0-.837.837Zm.837,14H378.9v-6h-6v5.162a.838.838,0,0,0,.837.838Zm-.837-7h6v-6h-6Zm14,7h5.162a.838.838,0,0,0,.838-.838h0V363.6h-6Zm-7-7h6v-6h-6Zm7,0h6v-6h-6Zm0-13v6h6v-5.163a.838.838,0,0,0-.838-.837H386.9Zm-7,6h6v-6h-6Z" fill="url(#linear-gradient-25)"/>
  </g>
  <g id="Text">
    <g>
      <path d="M181.87,17.6h-2.79l-2.857-4.259a4.1,4.1,0,0,1-.26-.54h-.034v4.8h-2.208V7.8h2.208v4.635h.034c.055-.127.147-.31.274-.547L178.944,7.8h2.632l-3.418,4.676Z" fill="#2f2f2f"/>
      <path d="M189.022,17.6h-2.153V16.534h-.035a2.445,2.445,0,0,1-2.139,1.237q-2.434,0-2.434-2.946V10.6h2.153v4.033q0,1.484,1.176,1.484a1.164,1.164,0,0,0,.93-.407,1.642,1.642,0,0,0,.349-1.1V10.6h2.153Z" fill="#2f2f2f"/>
      <path d="M192.977,16.787h-.027V17.6h-2.161V7.237h2.161v4.416h.027a2.563,2.563,0,0,1,2.276-1.224,2.5,2.5,0,0,1,2.085.93,4,4,0,0,1,.732,2.543,4.333,4.333,0,0,1-.855,2.809,2.78,2.78,0,0,1-2.283,1.06A2.206,2.206,0,0,1,192.977,16.787Zm-.062-2.954v.718a1.637,1.637,0,0,0,.39,1.121,1.267,1.267,0,0,0,1,.445,1.329,1.329,0,0,0,1.146-.571,2.767,2.767,0,0,0,.406-1.617,2.2,2.2,0,0,0-.372-1.357,1.259,1.259,0,0,0-1.064-.489,1.371,1.371,0,0,0-1.076.486A1.841,1.841,0,0,0,192.915,13.833Z" fill="#2f2f2f"/>
      <path d="M205.807,14.715h-4.566q.108,1.524,1.921,1.525a3.75,3.75,0,0,0,2.03-.547v1.558a5.329,5.329,0,0,1-2.523.52,3.55,3.55,0,0,1-2.631-.94,3.551,3.551,0,0,1-.937-2.622,3.743,3.743,0,0,1,1.012-2.761,3.366,3.366,0,0,1,2.488-1.019,3.057,3.057,0,0,1,2.368.909,3.5,3.5,0,0,1,.838,2.468Zm-2-1.326q0-1.5-1.217-1.5a1.163,1.163,0,0,0-.9.431,1.956,1.956,0,0,0-.461,1.073Z" fill="#2f2f2f"/>
      <path d="M211.738,12.548a1.878,1.878,0,0,0-.909-.212,1.312,1.312,0,0,0-1.1.516,2.257,2.257,0,0,0-.4,1.4V17.6h-2.16v-7h2.16v1.3h.028a1.869,1.869,0,0,1,1.845-1.422,1.384,1.384,0,0,1,.534.082Z" fill="#2f2f2f"/>
      <path d="M219.49,17.6h-2.154V13.71q0-1.626-1.162-1.627a1.154,1.154,0,0,0-.923.431,1.639,1.639,0,0,0-.362,1.094V17.6h-2.16v-7h2.16v1.107h.027a2.476,2.476,0,0,1,2.249-1.278q2.323,0,2.325,2.885Z" fill="#2f2f2f"/>
      <path d="M227.511,14.715h-4.566q.11,1.524,1.921,1.525a3.745,3.745,0,0,0,2.03-.547v1.558a5.323,5.323,0,0,1-2.523.52,3.554,3.554,0,0,1-2.631-.94,3.555,3.555,0,0,1-.937-2.622,3.747,3.747,0,0,1,1.012-2.761,3.368,3.368,0,0,1,2.488-1.019,3.058,3.058,0,0,1,2.369.909,3.5,3.5,0,0,1,.837,2.468Zm-2-1.326q0-1.5-1.217-1.5a1.163,1.163,0,0,0-.9.431,1.957,1.957,0,0,0-.462,1.073Z" fill="#2f2f2f"/>
      <path d="M233.078,17.518a3.206,3.206,0,0,1-1.443.253q-2.283,0-2.283-2.372V12.193h-1.135V10.6h1.135V9.089l2.153-.615V10.6h1.573v1.593h-1.573v2.83q0,1.094.868,1.094a1.463,1.463,0,0,0,.705-.2Z" fill="#2f2f2f"/>
      <path d="M240.563,14.715H236q.111,1.524,1.921,1.525a3.746,3.746,0,0,0,2.031-.547v1.558a5.326,5.326,0,0,1-2.523.52,3.555,3.555,0,0,1-2.632-.94,3.554,3.554,0,0,1-.936-2.622,3.747,3.747,0,0,1,1.012-2.761,3.365,3.365,0,0,1,2.488-1.019,3.061,3.061,0,0,1,2.369.909,3.5,3.5,0,0,1,.837,2.468Zm-2-1.326q0-1.5-1.217-1.5a1.161,1.161,0,0,0-.9.431,1.957,1.957,0,0,0-.462,1.073Z" fill="#2f2f2f"/>
      <path d="M241.551,17.415v-1.75a4.577,4.577,0,0,0,1.064.479,3.505,3.505,0,0,0,1,.157,2.152,2.152,0,0,0,.906-.157.507.507,0,0,0,.331-.479.442.442,0,0,0-.15-.341,1.392,1.392,0,0,0-.386-.24,4.256,4.256,0,0,0-.517-.184c-.186-.055-.366-.116-.54-.185a5.328,5.328,0,0,1-.734-.338,2.107,2.107,0,0,1-.533-.421,1.659,1.659,0,0,1-.329-.553,2.215,2.215,0,0,1-.113-.745,1.919,1.919,0,0,1,.257-1.012,2.081,2.081,0,0,1,.684-.694,3.1,3.1,0,0,1,.977-.4,5.048,5.048,0,0,1,1.145-.127,6.318,6.318,0,0,1,.943.072,7.05,7.05,0,0,1,.943.208v1.668a3.429,3.429,0,0,0-.878-.359,3.74,3.74,0,0,0-.919-.119,2.123,2.123,0,0,0-.4.037,1.307,1.307,0,0,0-.332.11.6.6,0,0,0-.225.184.427.427,0,0,0-.083.257.47.47,0,0,0,.124.328,1.07,1.07,0,0,0,.321.236,3.164,3.164,0,0,0,.441.177c.161.053.322.106.482.161a6.276,6.276,0,0,1,.779.328,2.549,2.549,0,0,1,.6.417,1.627,1.627,0,0,1,.382.561,2.248,2.248,0,0,1-.136,1.828,2.171,2.171,0,0,1-.718.718,3.247,3.247,0,0,1-1.032.4,5.681,5.681,0,0,1-1.214.127A6.257,6.257,0,0,1,241.551,17.415Z" fill="#2f2f2f"/>
      <path d="M259.271,17.251a6.46,6.46,0,0,1-2.8.52,4.728,4.728,0,0,1-3.549-1.326,4.85,4.85,0,0,1-1.292-3.534A5.182,5.182,0,0,1,253.08,9.1a5.084,5.084,0,0,1,3.771-1.463,7.038,7.038,0,0,1,2.42.363v2.125a4.287,4.287,0,0,0-2.242-.587,2.972,2.972,0,0,0-2.229.868,3.221,3.221,0,0,0-.848,2.351,3.16,3.16,0,0,0,.8,2.266,2.829,2.829,0,0,0,2.155.845,4.6,4.6,0,0,0,2.365-.629Z" fill="#2f2f2f"/>
      <path d="M262.881,17.6h-2.16V7.237h2.16Z" fill="#2f2f2f"/>
      <path d="M271.338,17.6h-2.153V16.534h-.034a2.444,2.444,0,0,1-2.14,1.237q-2.433,0-2.433-2.946V10.6h2.153v4.033q0,1.484,1.176,1.484a1.162,1.162,0,0,0,.929-.407,1.637,1.637,0,0,0,.349-1.1V10.6h2.153Z" fill="#2f2f2f"/>
      <path d="M272.8,17.415v-1.75a4.589,4.589,0,0,0,1.063.479,3.517,3.517,0,0,0,1,.157,2.152,2.152,0,0,0,.906-.157.507.507,0,0,0,.331-.479.44.44,0,0,0-.151-.341,1.4,1.4,0,0,0-.385-.24,4.381,4.381,0,0,0-.517-.184c-.186-.055-.367-.116-.54-.185a5.221,5.221,0,0,1-.734-.338,2.073,2.073,0,0,1-.533-.421,1.626,1.626,0,0,1-.329-.553,2.191,2.191,0,0,1-.113-.745,1.928,1.928,0,0,1,.256-1.012,2.1,2.1,0,0,1,.684-.694,3.119,3.119,0,0,1,.978-.4,5.048,5.048,0,0,1,1.145-.127,6.338,6.338,0,0,1,.943.072,7.05,7.05,0,0,1,.943.208v1.668a3.421,3.421,0,0,0-.879-.359,3.728,3.728,0,0,0-.919-.119,2.113,2.113,0,0,0-.4.037,1.307,1.307,0,0,0-.332.11.613.613,0,0,0-.226.184.432.432,0,0,0-.082.257.474.474,0,0,0,.123.328,1.075,1.075,0,0,0,.322.236,3.115,3.115,0,0,0,.441.177c.161.053.322.106.482.161a6.341,6.341,0,0,1,.779.328,2.549,2.549,0,0,1,.6.417,1.655,1.655,0,0,1,.382.561,2.248,2.248,0,0,1-.136,1.828,2.165,2.165,0,0,1-.719.718,3.241,3.241,0,0,1-1.031.4,5.7,5.7,0,0,1-1.214.127A6.252,6.252,0,0,1,272.8,17.415Z" fill="#2f2f2f"/>
      <path d="M283.611,17.518a3.206,3.206,0,0,1-1.443.253q-2.283,0-2.283-2.372V12.193H278.75V10.6h1.135V9.089l2.153-.615V10.6h1.573v1.593h-1.573v2.83q0,1.094.869,1.094a1.456,1.456,0,0,0,.7-.2Z" fill="#2f2f2f"/>
      <path d="M291.1,14.715h-4.566q.109,1.524,1.921,1.525a3.745,3.745,0,0,0,2.03-.547v1.558a5.329,5.329,0,0,1-2.523.52,3.551,3.551,0,0,1-2.631-.94,3.555,3.555,0,0,1-.937-2.622,3.743,3.743,0,0,1,1.012-2.761,3.368,3.368,0,0,1,2.488-1.019,3.06,3.06,0,0,1,2.369.909,3.5,3.5,0,0,1,.837,2.468Zm-2-1.326q0-1.5-1.217-1.5a1.16,1.16,0,0,0-.9.431,1.95,1.95,0,0,0-.462,1.073Z" fill="#2f2f2f"/>
      <path d="M297.028,12.548a1.878,1.878,0,0,0-.909-.212,1.311,1.311,0,0,0-1.1.516,2.251,2.251,0,0,0-.4,1.4V17.6h-2.16v-7h2.16v1.3h.028a1.869,1.869,0,0,1,1.846-1.422,1.388,1.388,0,0,1,.533.082Z" fill="#2f2f2f"/>
    </g>
    <g>
      <path d="M45.077,65.639H42.288L39.43,61.38a4.1,4.1,0,0,1-.26-.54h-.034v4.8H36.928v-9.8h2.208v4.635h.034c.055-.127.146-.31.274-.547l2.707-4.088h2.632l-3.418,4.676Z" fill="#2f2f2f"/>
      <path d="M52.228,65.639H50.075V64.573h-.034A2.445,2.445,0,0,1,47.9,65.81q-2.433,0-2.433-2.946V58.639h2.153v4.033q0,1.484,1.176,1.484a1.162,1.162,0,0,0,.929-.407,1.637,1.637,0,0,0,.349-1.1V58.639h2.153Z" fill="#2f2f2f"/>
      <path d="M56.184,64.826h-.027v.813H54V55.276h2.161v4.416h.027a2.563,2.563,0,0,1,2.276-1.224,2.5,2.5,0,0,1,2.085.93,4,4,0,0,1,.732,2.543,4.339,4.339,0,0,1-.855,2.809,2.781,2.781,0,0,1-2.283,1.06A2.206,2.206,0,0,1,56.184,64.826Zm-.062-2.954v.718a1.637,1.637,0,0,0,.39,1.121,1.265,1.265,0,0,0,1,.445,1.326,1.326,0,0,0,1.145-.571,2.76,2.76,0,0,0,.407-1.617,2.191,2.191,0,0,0-.373-1.357,1.258,1.258,0,0,0-1.063-.489,1.37,1.37,0,0,0-1.076.486A1.843,1.843,0,0,0,56.122,61.872Z" fill="#2f2f2f"/>
      <path d="M69.014,62.754H64.447q.109,1.524,1.921,1.525a3.745,3.745,0,0,0,2.03-.547V65.29a5.322,5.322,0,0,1-2.522.52,3.258,3.258,0,0,1-3.568-3.562,3.746,3.746,0,0,1,1.011-2.761,3.372,3.372,0,0,1,2.489-1.019,3.057,3.057,0,0,1,2.368.909,3.5,3.5,0,0,1,.838,2.468Zm-2-1.326q0-1.5-1.217-1.5a1.163,1.163,0,0,0-.9.431,1.957,1.957,0,0,0-.462,1.073Z" fill="#2f2f2f"/>
      <path d="M74.945,60.587a1.881,1.881,0,0,0-.909-.212,1.308,1.308,0,0,0-1.1.517,2.252,2.252,0,0,0-.4,1.4v3.343h-2.16v-7h2.16v1.3h.028a1.869,1.869,0,0,1,1.846-1.422,1.388,1.388,0,0,1,.533.082Z" fill="#2f2f2f"/>
      <path d="M82.7,65.639H80.543v-3.89q0-1.626-1.162-1.627a1.154,1.154,0,0,0-.923.431,1.644,1.644,0,0,0-.362,1.094v3.992h-2.16v-7H78.1v1.107h.027a2.476,2.476,0,0,1,2.249-1.278q2.325,0,2.325,2.885Z" fill="#2f2f2f"/>
      <path d="M90.718,62.754H86.152q.109,1.524,1.921,1.525a3.745,3.745,0,0,0,2.03-.547V65.29a5.329,5.329,0,0,1-2.523.52,3.259,3.259,0,0,1-3.568-3.562,3.743,3.743,0,0,1,1.012-2.761,3.372,3.372,0,0,1,2.488-1.019,3.06,3.06,0,0,1,2.369.909,3.5,3.5,0,0,1,.837,2.468Zm-2-1.326q0-1.5-1.217-1.5a1.16,1.16,0,0,0-.9.431,1.95,1.95,0,0,0-.462,1.073Z" fill="#2f2f2f"/>
      <path d="M96.284,65.557a3.206,3.206,0,0,1-1.443.253q-2.283,0-2.283-2.372V60.232H91.423V58.639h1.135V57.128l2.153-.615v2.126h1.573v1.593H94.711v2.83q0,1.093.868,1.094a1.46,1.46,0,0,0,.705-.2Z" fill="#2f2f2f"/>
      <path d="M103.77,62.754H99.2q.11,1.524,1.92,1.525a3.746,3.746,0,0,0,2.031-.547V65.29a5.332,5.332,0,0,1-2.523.52,3.258,3.258,0,0,1-3.568-3.562,3.743,3.743,0,0,1,1.012-2.761,3.369,3.369,0,0,1,2.488-1.019,3.063,3.063,0,0,1,2.369.909,3.5,3.5,0,0,1,.837,2.468Zm-2-1.326q0-1.5-1.217-1.5a1.16,1.16,0,0,0-.9.431,1.95,1.95,0,0,0-.462,1.073Z" fill="#2f2f2f"/>
      <path d="M104.758,65.454V63.7a4.589,4.589,0,0,0,1.063.479,3.517,3.517,0,0,0,1,.157,2.152,2.152,0,0,0,.906-.157.507.507,0,0,0,.331-.479.442.442,0,0,0-.15-.341,1.422,1.422,0,0,0-.386-.24,4.568,4.568,0,0,0-.517-.184c-.186-.055-.367-.116-.54-.185a5.11,5.11,0,0,1-.734-.338A2.091,2.091,0,0,1,105.2,62a1.64,1.64,0,0,1-.329-.554,2.191,2.191,0,0,1-.113-.745,1.928,1.928,0,0,1,.256-1.012,2.1,2.1,0,0,1,.684-.694,3.119,3.119,0,0,1,.978-.4,5.048,5.048,0,0,1,1.145-.127,6.338,6.338,0,0,1,.943.072,7.05,7.05,0,0,1,.943.208v1.668a3.391,3.391,0,0,0-.878-.358,3.7,3.7,0,0,0-.919-.12,2.116,2.116,0,0,0-.4.037,1.307,1.307,0,0,0-.332.11.6.6,0,0,0-.225.184.426.426,0,0,0-.082.257.474.474,0,0,0,.123.328,1.07,1.07,0,0,0,.321.236,3.115,3.115,0,0,0,.441.177c.161.053.323.106.482.161a6.276,6.276,0,0,1,.779.328,2.549,2.549,0,0,1,.6.417,1.641,1.641,0,0,1,.382.561,2.248,2.248,0,0,1-.136,1.828,2.165,2.165,0,0,1-.719.718,3.241,3.241,0,0,1-1.031.4,5.7,5.7,0,0,1-1.214.127A6.252,6.252,0,0,1,104.758,65.454Z" fill="#2f2f2f"/>
      <path d="M36.654,82.09a6.469,6.469,0,0,1-2.8.52A4.723,4.723,0,0,1,30.3,81.284a4.847,4.847,0,0,1-1.292-3.535,5.18,5.18,0,0,1,1.452-3.814,5.083,5.083,0,0,1,3.77-1.463,7.064,7.064,0,0,1,2.42.362V74.96a4.287,4.287,0,0,0-2.242-.588,2.976,2.976,0,0,0-2.229.869,3.223,3.223,0,0,0-.847,2.351,3.156,3.156,0,0,0,.8,2.266,2.825,2.825,0,0,0,2.153.845,4.594,4.594,0,0,0,2.365-.629Z" fill="#2f2f2f"/>
      <path d="M41.4,82.61a3.762,3.762,0,0,1-2.751-.981,4.055,4.055,0,0,1,.038-5.38,3.924,3.924,0,0,1,2.809-.981,3.715,3.715,0,0,1,2.734.981,3.485,3.485,0,0,1,.992,2.594A3.7,3.7,0,0,1,44.2,81.6,3.808,3.808,0,0,1,41.4,82.61Zm.055-5.688a1.44,1.44,0,0,0-1.189.527,2.317,2.317,0,0,0-.424,1.49q0,2.016,1.627,2.016,1.551,0,1.552-2.071Q43.017,76.922,41.451,76.922Z" fill="#2f2f2f"/>
      <path d="M53.359,82.439H51.205v-3.89q0-1.626-1.162-1.627a1.152,1.152,0,0,0-.922.431,1.639,1.639,0,0,0-.363,1.094v3.992H46.6v-7h2.16v1.107h.028a2.475,2.475,0,0,1,2.249-1.278q2.324,0,2.324,2.885Z" fill="#2f2f2f"/>
      <path d="M59.208,82.357a3.2,3.2,0,0,1-1.442.253q-2.283,0-2.284-2.372V77.032H54.348V75.439h1.134V73.928l2.154-.615v2.126h1.572v1.593H57.636v2.83q0,1.094.868,1.093a1.455,1.455,0,0,0,.7-.2Z" fill="#2f2f2f"/>
      <path d="M65.124,77.387a1.875,1.875,0,0,0-.909-.212,1.309,1.309,0,0,0-1.1.516,2.251,2.251,0,0,0-.4,1.405v3.343h-2.16v-7h2.16v1.3h.028a1.868,1.868,0,0,1,1.845-1.422,1.381,1.381,0,0,1,.533.082Z" fill="#2f2f2f"/>
      <path d="M69.551,82.61a3.764,3.764,0,0,1-2.752-.981,4.057,4.057,0,0,1,.038-5.38,3.926,3.926,0,0,1,2.809-.981,3.719,3.719,0,0,1,2.735.981,3.489,3.489,0,0,1,.991,2.594A3.7,3.7,0,0,1,72.35,81.6,3.805,3.805,0,0,1,69.551,82.61Zm.054-5.688a1.441,1.441,0,0,0-1.189.527,2.317,2.317,0,0,0-.424,1.49q0,2.016,1.627,2.016,1.552,0,1.552-2.071Q71.171,76.922,69.605,76.922Z" fill="#2f2f2f"/>
      <path d="M76.928,82.439h-2.16V72.076h2.16Z" fill="#2f2f2f"/>
      <path d="M85.028,79.062v3.377H82.82v-9.8h3.459q3.7,0,3.7,3.124a3,3,0,0,1-1.063,2.389,4.211,4.211,0,0,1-2.841.913Zm0-4.731v3.056H85.9q1.764,0,1.764-1.545,0-1.511-1.764-1.511Z" fill="#2f2f2f"/>
      <path d="M93.247,82.439h-2.16V72.076h2.16Z" fill="#2f2f2f"/>
      <path d="M100.913,82.439H98.869v-1h-.028a2.281,2.281,0,0,1-2.085,1.176,2.178,2.178,0,0,1-1.6-.578,2.065,2.065,0,0,1-.585-1.541q0-2.037,2.413-2.352l1.9-.253q0-1.148-1.244-1.148a4.245,4.245,0,0,0-2.379.745V75.856a5.322,5.322,0,0,1,1.235-.41,6.443,6.443,0,0,1,1.424-.178,2.644,2.644,0,0,1,2.995,2.987ZM98.882,79.6v-.472l-1.271.165q-1.053.137-1.053.95a.789.789,0,0,0,.256.605.988.988,0,0,0,.694.236,1.279,1.279,0,0,0,.991-.421A1.52,1.52,0,0,0,98.882,79.6Z" fill="#2f2f2f"/>
      <path d="M109.37,82.439h-2.154v-3.89q0-1.626-1.162-1.627a1.153,1.153,0,0,0-.923.431,1.644,1.644,0,0,0-.362,1.094v3.992h-2.16v-7h2.16v1.107h.027a2.476,2.476,0,0,1,2.249-1.278q2.325,0,2.325,2.885Z" fill="#2f2f2f"/>
      <path d="M117.391,79.554h-4.566q.109,1.524,1.921,1.525a3.754,3.754,0,0,0,2.03-.547V82.09a5.341,5.341,0,0,1-2.523.52,3.258,3.258,0,0,1-3.568-3.562,3.743,3.743,0,0,1,1.012-2.761,3.366,3.366,0,0,1,2.488-1.019,3.061,3.061,0,0,1,2.369.909,3.5,3.5,0,0,1,.837,2.468Zm-2-1.326q0-1.5-1.217-1.5a1.16,1.16,0,0,0-.9.431,1.95,1.95,0,0,0-.462,1.073Z" fill="#2f2f2f"/>
    </g>
    <g>
      <path d="M224.788,50.4h-1.409l-5.045-7.814a3.213,3.213,0,0,1-.314-.615h-.041a10.167,10.167,0,0,1,.055,1.347V50.4h-1.149V40.6h1.49l4.909,7.691q.308.477.4.656h.027a10.486,10.486,0,0,1-.068-1.443V40.6h1.149Z" fill="#2f2f2f"/>
      <path d="M230.044,50.564a3.245,3.245,0,0,1-2.477-.981,3.632,3.632,0,0,1-.927-2.6,3.784,3.784,0,0,1,.964-2.755,3.463,3.463,0,0,1,2.6-.991,3.141,3.141,0,0,1,2.445.964,3.822,3.822,0,0,1,.878,2.672,3.764,3.764,0,0,1-.947,2.684A3.317,3.317,0,0,1,230.044,50.564Zm.082-6.385a2.135,2.135,0,0,0-1.709.735,3.019,3.019,0,0,0-.629,2.027,2.855,2.855,0,0,0,.636,1.962,2.162,2.162,0,0,0,1.7.718,2.048,2.048,0,0,0,1.672-.705,3.053,3.053,0,0,0,.584-2,3.1,3.1,0,0,0-.584-2.023A2.04,2.04,0,0,0,230.126,44.179Z" fill="#2f2f2f"/>
      <path d="M241.286,50.4h-1.122V49.21h-.027a2.587,2.587,0,0,1-2.406,1.354,2.619,2.619,0,0,1-2.11-.94,3.858,3.858,0,0,1-.789-2.56,4.19,4.19,0,0,1,.875-2.782,2.884,2.884,0,0,1,2.331-1.046,2.244,2.244,0,0,1,2.1,1.135h.027V40.037h1.122Zm-1.122-3.165V46.2a2.006,2.006,0,0,0-.56-1.436,1.881,1.881,0,0,0-1.422-.588,1.934,1.934,0,0,0-1.613.752,3.29,3.29,0,0,0-.588,2.078,2.963,2.963,0,0,0,.563,1.911,1.845,1.845,0,0,0,1.515.7,1.913,1.913,0,0,0,1.52-.677A2.52,2.52,0,0,0,240.164,47.235Z" fill="#2f2f2f"/>
      <path d="M249.107,47.18h-4.943a2.619,2.619,0,0,0,.629,1.8,2.169,2.169,0,0,0,1.655.636,3.436,3.436,0,0,0,2.173-.78v1.053a4.058,4.058,0,0,1-2.44.67,2.956,2.956,0,0,1-2.331-.954A3.9,3.9,0,0,1,243,46.927a3.829,3.829,0,0,1,.926-2.662,2.972,2.972,0,0,1,2.3-1.029,2.634,2.634,0,0,1,2.126.888,3.708,3.708,0,0,1,.752,2.468Zm-1.149-.95a2.282,2.282,0,0,0-.468-1.511,1.6,1.6,0,0,0-1.282-.54,1.809,1.809,0,0,0-1.346.567,2.575,2.575,0,0,0-.684,1.484Z" fill="#2f2f2f"/>
      <path d="M258.452,50.4H257.33V41.93a2.456,2.456,0,0,1-.379.3,5.9,5.9,0,0,1-.561.332q-.31.163-.656.308a4.746,4.746,0,0,1-.673.225V41.957a6.434,6.434,0,0,0,.782-.276c.277-.117.547-.247.814-.39s.518-.294.756-.451a6.069,6.069,0,0,0,.615-.462h.424Z" fill="#2f2f2f"/>
    </g>
    <g>
      <path d="M232.337,73.5v3.7h-1.148V67.4h2.693a3.559,3.559,0,0,1,2.438.766,2.733,2.733,0,0,1,.864,2.16,2.97,2.97,0,0,1-.96,2.283,3.669,3.669,0,0,1-2.595.889Zm0-5.059v4.02h1.2a2.694,2.694,0,0,0,1.816-.543,1.926,1.926,0,0,0,.625-1.535q0-1.943-2.3-1.942Z" fill="#2f2f2f"/>
      <path d="M241.52,77.364a3.251,3.251,0,0,1-2.479-.981,3.635,3.635,0,0,1-.925-2.6,3.787,3.787,0,0,1,.963-2.755,3.47,3.47,0,0,1,2.6-.991,3.136,3.136,0,0,1,2.443.964,3.82,3.82,0,0,1,.879,2.673,3.759,3.759,0,0,1-.947,2.683A3.318,3.318,0,0,1,241.52,77.364Zm.082-6.385a2.134,2.134,0,0,0-1.709.735,3.015,3.015,0,0,0-.629,2.027A2.852,2.852,0,0,0,239.9,75.7a2.159,2.159,0,0,0,1.7.718,2.05,2.05,0,0,0,1.671-.7,3.056,3.056,0,0,0,.585-2,3.108,3.108,0,0,0-.585-2.024A2.04,2.04,0,0,0,241.6,70.979Z" fill="#2f2f2f"/>
      <path d="M252.76,77.2h-1.121V76.011h-.027a2.825,2.825,0,0,1-4.515.413,3.857,3.857,0,0,1-.79-2.56,4.2,4.2,0,0,1,.875-2.782,2.887,2.887,0,0,1,2.331-1.046,2.244,2.244,0,0,1,2.1,1.135h.027V66.837h1.121Zm-1.121-3.165V73a2,2,0,0,0-.56-1.436,1.881,1.881,0,0,0-1.422-.588,1.939,1.939,0,0,0-1.614.752,3.3,3.3,0,0,0-.588,2.078,2.964,2.964,0,0,0,.565,1.911,1.844,1.844,0,0,0,1.514.7,1.915,1.915,0,0,0,1.521-.677A2.519,2.519,0,0,0,251.639,74.035Z" fill="#2f2f2f"/>
    </g>
    <g>
      <path d="M231.642,134h-1.271l-1.04-2.748h-4.156L224.2,134h-1.279l3.76-9.8h1.19Zm-2.687-3.78-1.538-4.177a3.98,3.98,0,0,1-.15-.656h-.027a3.7,3.7,0,0,1-.158.656l-1.524,4.177Z" fill="#2f2f2f"/>
      <path d="M234.063,132.989h-.027v4.231h-1.122V127h1.122v1.231h.027a2.649,2.649,0,0,1,2.42-1.395,2.565,2.565,0,0,1,2.112.94,3.894,3.894,0,0,1,.759,2.519,4.335,4.335,0,0,1-.855,2.813,2.845,2.845,0,0,1-2.337,1.056A2.342,2.342,0,0,1,234.063,132.989Zm-.027-2.824v.978a2.079,2.079,0,0,0,.563,1.473,2.012,2.012,0,0,0,3.028-.174,3.57,3.57,0,0,0,.578-2.167,2.823,2.823,0,0,0-.54-1.832,1.786,1.786,0,0,0-1.462-.663,1.985,1.985,0,0,0-1.573.68A2.5,2.5,0,0,0,234.036,130.165Z" fill="#2f2f2f"/>
      <path d="M242.219,132.989h-.027v4.231h-1.121V127h1.121v1.231h.027a2.65,2.65,0,0,1,2.42-1.395,2.564,2.564,0,0,1,2.112.94,3.894,3.894,0,0,1,.759,2.519,4.341,4.341,0,0,1-.854,2.813,2.848,2.848,0,0,1-2.338,1.056A2.343,2.343,0,0,1,242.219,132.989Zm-.027-2.824v.978a2.079,2.079,0,0,0,.563,1.473,2.013,2.013,0,0,0,3.029-.174,3.577,3.577,0,0,0,.578-2.167,2.828,2.828,0,0,0-.54-1.832,1.789,1.789,0,0,0-1.463-.663,1.981,1.981,0,0,0-1.572.68A2.494,2.494,0,0,0,242.192,130.165Z" fill="#2f2f2f"/>
      <path d="M260.874,134H259.6l-1.039-2.748h-4.156L253.43,134h-1.278l3.76-9.8H257.1Zm-2.686-3.78-1.538-4.177a3.857,3.857,0,0,1-.151-.656h-.027a3.8,3.8,0,0,1-.157.656l-1.525,4.177Z" fill="#2f2f2f"/>
    </g>
    <g>
      <path d="M302.738,73.5v3.7h-1.149V67.4h2.694a3.558,3.558,0,0,1,2.437.766,2.733,2.733,0,0,1,.864,2.16,2.97,2.97,0,0,1-.96,2.283,3.665,3.665,0,0,1-2.594.889Zm0-5.059v4.02h1.2a2.692,2.692,0,0,0,1.815-.543,1.926,1.926,0,0,0,.625-1.535q0-1.943-2.3-1.942Z" fill="#2f2f2f"/>
      <path d="M311.92,77.364a3.247,3.247,0,0,1-2.478-.981,3.636,3.636,0,0,1-.926-2.6,3.784,3.784,0,0,1,.964-2.755,3.467,3.467,0,0,1,2.6-.991,3.139,3.139,0,0,1,2.444.964,3.82,3.82,0,0,1,.879,2.673,3.76,3.76,0,0,1-.948,2.683A3.315,3.315,0,0,1,311.92,77.364ZM312,70.979a2.135,2.135,0,0,0-1.709.735,3.015,3.015,0,0,0-.629,2.027A2.852,2.852,0,0,0,310.3,75.7a2.159,2.159,0,0,0,1.7.718,2.048,2.048,0,0,0,1.671-.7,3.056,3.056,0,0,0,.585-2,3.108,3.108,0,0,0-.585-2.024A2.038,2.038,0,0,0,312,70.979Z" fill="#2f2f2f"/>
      <path d="M323.161,77.2h-1.122V76.011h-.027a2.587,2.587,0,0,1-2.406,1.353,2.615,2.615,0,0,1-2.109-.94,3.857,3.857,0,0,1-.79-2.56,4.2,4.2,0,0,1,.875-2.782,2.889,2.889,0,0,1,2.331-1.046,2.243,2.243,0,0,1,2.1,1.135h.027V66.837h1.122Zm-1.122-3.165V73a2,2,0,0,0-.56-1.436,1.879,1.879,0,0,0-1.422-.588,1.936,1.936,0,0,0-1.613.752,3.3,3.3,0,0,0-.588,2.078,2.964,2.964,0,0,0,.564,1.911,1.844,1.844,0,0,0,1.514.7,1.914,1.914,0,0,0,1.521-.677A2.519,2.519,0,0,0,322.039,74.035Z" fill="#2f2f2f"/>
    </g>
    <g>
      <path d="M302.544,134h-1.271l-1.039-2.748h-4.156L295.1,134h-1.278l3.759-9.8h1.19Zm-2.686-3.78-1.538-4.177a3.857,3.857,0,0,1-.151-.656h-.027a3.8,3.8,0,0,1-.157.656l-1.525,4.177Z" fill="#2f2f2f"/>
      <path d="M304.965,132.989h-.027v4.231h-1.121V127h1.121v1.231h.027a2.65,2.65,0,0,1,2.42-1.395,2.563,2.563,0,0,1,2.112.94,3.894,3.894,0,0,1,.759,2.519,4.341,4.341,0,0,1-.854,2.813,2.848,2.848,0,0,1-2.338,1.056A2.343,2.343,0,0,1,304.965,132.989Zm-.027-2.824v.978a2.079,2.079,0,0,0,.563,1.473,2.013,2.013,0,0,0,3.029-.174,3.577,3.577,0,0,0,.578-2.167,2.828,2.828,0,0,0-.54-1.832,1.789,1.789,0,0,0-1.463-.663,1.983,1.983,0,0,0-1.572.68A2.494,2.494,0,0,0,304.938,130.165Z" fill="#2f2f2f"/>
      <path d="M313.121,132.989h-.027v4.231h-1.121V127h1.121v1.231h.027a2.65,2.65,0,0,1,2.42-1.395,2.566,2.566,0,0,1,2.113.94,3.894,3.894,0,0,1,.759,2.519,4.341,4.341,0,0,1-.855,2.813,2.847,2.847,0,0,1-2.338,1.056A2.344,2.344,0,0,1,313.121,132.989Zm-.027-2.824v.978a2.08,2.08,0,0,0,.564,1.473,2.012,2.012,0,0,0,3.028-.174,3.57,3.57,0,0,0,.578-2.167,2.828,2.828,0,0,0-.54-1.832,1.788,1.788,0,0,0-1.463-.663,1.983,1.983,0,0,0-1.572.68A2.494,2.494,0,0,0,313.094,130.165Z" fill="#2f2f2f"/>
      <path d="M324.189,134v-9.8h2.789a3.05,3.05,0,0,1,2.017.622,2.01,2.01,0,0,1,.745,1.62,2.382,2.382,0,0,1-.452,1.449,2.428,2.428,0,0,1-1.244.875v.027a2.5,2.5,0,0,1,1.586.749,2.3,2.3,0,0,1,.6,1.644,2.564,2.564,0,0,1-.9,2.037,3.358,3.358,0,0,1-2.277.779Zm1.148-8.763V128.4h1.176a2.232,2.232,0,0,0,1.483-.455,1.583,1.583,0,0,0,.541-1.282q0-1.428-1.88-1.428Zm0,4.2v3.527H326.9a2.333,2.333,0,0,0,1.568-.478,1.639,1.639,0,0,0,.558-1.313q0-1.735-2.365-1.736Z" fill="#2f2f2f"/>
    </g>
    <g>
      <path d="M373.337,73.5v3.7h-1.148V67.4h2.693a3.559,3.559,0,0,1,2.438.766,2.733,2.733,0,0,1,.864,2.16,2.97,2.97,0,0,1-.96,2.283,3.669,3.669,0,0,1-2.595.889Zm0-5.059v4.02h1.2a2.694,2.694,0,0,0,1.816-.543,1.926,1.926,0,0,0,.625-1.535q0-1.943-2.3-1.942Z" fill="#2f2f2f"/>
      <path d="M382.52,77.364a3.251,3.251,0,0,1-2.479-.981,3.635,3.635,0,0,1-.925-2.6,3.787,3.787,0,0,1,.963-2.755,3.47,3.47,0,0,1,2.605-.991,3.136,3.136,0,0,1,2.443.964,3.82,3.82,0,0,1,.879,2.673,3.759,3.759,0,0,1-.947,2.683A3.318,3.318,0,0,1,382.52,77.364Zm.082-6.385a2.134,2.134,0,0,0-1.709.735,3.015,3.015,0,0,0-.629,2.027A2.852,2.852,0,0,0,380.9,75.7a2.159,2.159,0,0,0,1.7.718,2.05,2.05,0,0,0,1.671-.7,3.056,3.056,0,0,0,.585-2,3.108,3.108,0,0,0-.585-2.024A2.04,2.04,0,0,0,382.6,70.979Z" fill="#2f2f2f"/>
      <path d="M393.76,77.2h-1.121V76.011h-.027a2.825,2.825,0,0,1-4.515.413,3.857,3.857,0,0,1-.79-2.56,4.2,4.2,0,0,1,.875-2.782,2.887,2.887,0,0,1,2.331-1.046,2.244,2.244,0,0,1,2.1,1.135h.027V66.837h1.121Zm-1.121-3.165V73a2,2,0,0,0-.56-1.436,1.881,1.881,0,0,0-1.422-.588,1.939,1.939,0,0,0-1.614.752,3.3,3.3,0,0,0-.588,2.078,2.964,2.964,0,0,0,.565,1.911,1.844,1.844,0,0,0,1.514.7,1.915,1.915,0,0,0,1.521-.677A2.519,2.519,0,0,0,392.639,74.035Z" fill="#2f2f2f"/>
    </g>
    <g>
      <path d="M372.823,134h-1.272l-1.039-2.748h-4.156L365.378,134H364.1l3.76-9.8h1.189Zm-2.687-3.78-1.538-4.177a3.98,3.98,0,0,1-.15-.656h-.028a3.539,3.539,0,0,1-.157.656l-1.524,4.177Z" fill="#2f2f2f"/>
      <path d="M375.244,132.989h-.028v4.231H374.1V127h1.121v1.231h.028a2.65,2.65,0,0,1,2.419-1.395,2.566,2.566,0,0,1,2.113.94,3.894,3.894,0,0,1,.759,2.519,4.335,4.335,0,0,1-.855,2.813,2.844,2.844,0,0,1-2.338,1.056A2.343,2.343,0,0,1,375.244,132.989Zm-.028-2.824v.978a2.081,2.081,0,0,0,.565,1.473,2.012,2.012,0,0,0,3.028-.174,3.577,3.577,0,0,0,.577-2.167,2.823,2.823,0,0,0-.54-1.832,1.786,1.786,0,0,0-1.463-.663,1.984,1.984,0,0,0-1.572.68A2.494,2.494,0,0,0,375.216,130.165Z" fill="#2f2f2f"/>
      <path d="M383.4,132.989h-.028v4.231h-1.121V127h1.121v1.231h.028a2.651,2.651,0,0,1,2.42-1.395,2.565,2.565,0,0,1,2.112.94,3.894,3.894,0,0,1,.759,2.519,4.33,4.33,0,0,1-.855,2.813,2.843,2.843,0,0,1-2.338,1.056A2.343,2.343,0,0,1,383.4,132.989Zm-.028-2.824v.978a2.081,2.081,0,0,0,.565,1.473,2.012,2.012,0,0,0,3.028-.174,3.577,3.577,0,0,0,.577-2.167,2.817,2.817,0,0,0-.54-1.832,1.785,1.785,0,0,0-1.463-.663,1.986,1.986,0,0,0-1.572.68A2.5,2.5,0,0,0,383.372,130.165Z" fill="#2f2f2f"/>
      <path d="M401.139,133.59a5.748,5.748,0,0,1-2.707.574,4.367,4.367,0,0,1-3.35-1.346,4.976,4.976,0,0,1-1.257-3.534,5.205,5.205,0,0,1,1.415-3.8,4.8,4.8,0,0,1,3.589-1.449,5.75,5.75,0,0,1,2.31.4v1.224a4.67,4.67,0,0,0-2.324-.588,3.565,3.565,0,0,0-2.737,1.128,4.241,4.241,0,0,0-1.05,3.014,4.042,4.042,0,0,0,.981,2.854,3.336,3.336,0,0,0,2.573,1.063,4.832,4.832,0,0,0,2.557-.656Z" fill="#2f2f2f"/>
    </g>
    <g>
      <path d="M224.788,178h-1.409l-5.045-7.813a3.243,3.243,0,0,1-.314-.615h-.041a10.137,10.137,0,0,1,.055,1.346V178h-1.149v-9.8h1.49l4.909,7.69q.308.478.4.656h.027a10.468,10.468,0,0,1-.068-1.442v-6.9h1.149Z" fill="#2f2f2f"/>
      <path d="M230.044,178.164a3.245,3.245,0,0,1-2.477-.981,3.629,3.629,0,0,1-.927-2.6,3.781,3.781,0,0,1,.964-2.754,3.464,3.464,0,0,1,2.6-.992,3.144,3.144,0,0,1,2.445.964,3.826,3.826,0,0,1,.878,2.673,3.76,3.76,0,0,1-.947,2.683A3.313,3.313,0,0,1,230.044,178.164Zm.082-6.384a2.135,2.135,0,0,0-1.709.735,3.016,3.016,0,0,0-.629,2.026,2.852,2.852,0,0,0,.636,1.962,2.159,2.159,0,0,0,1.7.718,2.05,2.05,0,0,0,1.672-.7,3.053,3.053,0,0,0,.584-2,3.1,3.1,0,0,0-.584-2.023A2.04,2.04,0,0,0,230.126,171.78Z" fill="#2f2f2f"/>
      <path d="M241.286,178h-1.122v-1.189h-.027a2.588,2.588,0,0,1-2.406,1.353,2.618,2.618,0,0,1-2.11-.939,3.859,3.859,0,0,1-.789-2.561,4.191,4.191,0,0,1,.875-2.782,2.887,2.887,0,0,1,2.331-1.046,2.246,2.246,0,0,1,2.1,1.135h.027v-4.334h1.122Zm-1.122-3.165V173.8a2,2,0,0,0-.56-1.435,1.877,1.877,0,0,0-1.422-.588,1.932,1.932,0,0,0-1.613.752,3.286,3.286,0,0,0-.588,2.078,2.962,2.962,0,0,0,.563,1.91,1.842,1.842,0,0,0,1.515.7,1.91,1.91,0,0,0,1.52-.677A2.52,2.52,0,0,0,240.164,174.835Z" fill="#2f2f2f"/>
      <path d="M249.107,174.781h-4.943a2.615,2.615,0,0,0,.629,1.8,2.169,2.169,0,0,0,1.655.636,3.441,3.441,0,0,0,2.173-.779V177.5a4.064,4.064,0,0,1-2.44.669,2.956,2.956,0,0,1-2.331-.953,3.9,3.9,0,0,1-.848-2.683,3.83,3.83,0,0,1,.926-2.663,2.972,2.972,0,0,1,2.3-1.029,2.634,2.634,0,0,1,2.126.889,3.706,3.706,0,0,1,.752,2.468Zm-1.149-.951a2.279,2.279,0,0,0-.468-1.51,1.6,1.6,0,0,0-1.282-.54,1.809,1.809,0,0,0-1.346.567,2.573,2.573,0,0,0-.684,1.483Z" fill="#2f2f2f"/>
      <path d="M258.78,170.768a2.013,2.013,0,0,0-.141-.786,1.527,1.527,0,0,0-.953-.889,2.235,2.235,0,0,0-.711-.109,2.359,2.359,0,0,0-.643.089,3.084,3.084,0,0,0-.612.246,3.747,3.747,0,0,0-.574.376,4.072,4.072,0,0,0-.516.485v-1.2a3.364,3.364,0,0,1,1.056-.7,3.738,3.738,0,0,1,1.426-.242,3.45,3.45,0,0,1,1.114.174,2.558,2.558,0,0,1,.889.509,2.35,2.35,0,0,1,.59.827,2.782,2.782,0,0,1,.216,1.128,3.9,3.9,0,0,1-.133,1.053,3.24,3.24,0,0,1-.4.889,4.255,4.255,0,0,1-.68.8,9.432,9.432,0,0,1-.963.78q-.692.492-1.139.841a5.114,5.114,0,0,0-.711.652,1.911,1.911,0,0,0-.369.609,2.139,2.139,0,0,0-.106.7H260.3v1h-6.05v-.485a4,4,0,0,1,.137-1.107,2.878,2.878,0,0,1,.451-.91,5.042,5.042,0,0,1,.824-.861q.509-.43,1.248-.971a7.909,7.909,0,0,0,.891-.731,3.781,3.781,0,0,0,.578-.7,2.526,2.526,0,0,0,.311-.708A3.071,3.071,0,0,0,258.78,170.768Z" fill="#2f2f2f"/>
    </g>
    <g>
      <path d="M232.337,201.1V204.8h-1.148V195h2.693a3.559,3.559,0,0,1,2.438.766,2.735,2.735,0,0,1,.864,2.16,2.97,2.97,0,0,1-.96,2.283,3.669,3.669,0,0,1-2.595.889Zm0-5.058v4.019h1.2a2.694,2.694,0,0,0,1.816-.543,1.925,1.925,0,0,0,.625-1.535q0-1.943-2.3-1.941Z" fill="#2f2f2f"/>
      <path d="M241.52,204.964a3.251,3.251,0,0,1-2.479-.981,3.635,3.635,0,0,1-.925-2.6,3.787,3.787,0,0,1,.963-2.755,3.47,3.47,0,0,1,2.6-.991,3.136,3.136,0,0,1,2.443.964,3.822,3.822,0,0,1,.879,2.673,3.756,3.756,0,0,1-.947,2.683A3.318,3.318,0,0,1,241.52,204.964Zm.082-6.385a2.134,2.134,0,0,0-1.709.735,3.015,3.015,0,0,0-.629,2.027,2.852,2.852,0,0,0,.636,1.962,2.159,2.159,0,0,0,1.7.718,2.05,2.05,0,0,0,1.671-.7,3.053,3.053,0,0,0,.585-2,3.11,3.11,0,0,0-.585-2.024A2.04,2.04,0,0,0,241.6,198.579Z" fill="#2f2f2f"/>
      <path d="M252.76,204.8h-1.121v-1.189h-.027a2.825,2.825,0,0,1-4.515.413,3.857,3.857,0,0,1-.79-2.56,4.2,4.2,0,0,1,.875-2.782,2.887,2.887,0,0,1,2.331-1.046,2.246,2.246,0,0,1,2.1,1.135h.027v-4.334h1.121Zm-1.121-3.165V200.6a2,2,0,0,0-.56-1.436,1.881,1.881,0,0,0-1.422-.588,1.939,1.939,0,0,0-1.614.752,3.3,3.3,0,0,0-.588,2.079,2.963,2.963,0,0,0,.565,1.91,1.841,1.841,0,0,0,1.514.7,1.915,1.915,0,0,0,1.521-.677A2.519,2.519,0,0,0,251.639,201.635Z" fill="#2f2f2f"/>
    </g>
    <g>
      <path d="M231.642,261.6h-1.271l-1.04-2.748h-4.156L224.2,261.6h-1.279l3.76-9.8h1.19Zm-2.687-3.78-1.538-4.177a4.005,4.005,0,0,1-.15-.656h-.027a3.719,3.719,0,0,1-.158.656l-1.524,4.177Z" fill="#2f2f2f"/>
      <path d="M234.063,260.588h-.027v4.232h-1.122V254.6h1.122v1.23h.027a2.65,2.65,0,0,1,2.42-1.394,2.562,2.562,0,0,1,2.112.94,3.891,3.891,0,0,1,.759,2.519,4.337,4.337,0,0,1-.855,2.813,2.845,2.845,0,0,1-2.337,1.056A2.341,2.341,0,0,1,234.063,260.588Zm-.027-2.823v.978a2.083,2.083,0,0,0,.563,1.473,2.011,2.011,0,0,0,3.028-.175,3.566,3.566,0,0,0,.578-2.167,2.823,2.823,0,0,0-.54-1.832,1.786,1.786,0,0,0-1.462-.663,1.988,1.988,0,0,0-1.573.68A2.5,2.5,0,0,0,234.036,257.765Z" fill="#2f2f2f"/>
      <path d="M242.219,260.588h-.027v4.232h-1.121V254.6h1.121v1.23h.027a2.651,2.651,0,0,1,2.42-1.394,2.561,2.561,0,0,1,2.112.94,3.891,3.891,0,0,1,.759,2.519,4.343,4.343,0,0,1-.854,2.813,2.848,2.848,0,0,1-2.338,1.056A2.342,2.342,0,0,1,242.219,260.588Zm-.027-2.823v.978a2.083,2.083,0,0,0,.563,1.473,2.012,2.012,0,0,0,3.029-.175,3.573,3.573,0,0,0,.578-2.167,2.828,2.828,0,0,0-.54-1.832,1.789,1.789,0,0,0-1.463-.663,1.985,1.985,0,0,0-1.572.68A2.5,2.5,0,0,0,242.192,257.765Z" fill="#2f2f2f"/>
      <path d="M260.874,261.6H259.6l-1.039-2.748h-4.156l-.978,2.748h-1.278l3.76-9.8H257.1Zm-2.686-3.78-1.538-4.177a3.881,3.881,0,0,1-.151-.656h-.027a3.823,3.823,0,0,1-.157.656l-1.525,4.177Z" fill="#2f2f2f"/>
    </g>
    <g>
      <path d="M302.738,201.1V204.8h-1.149V195h2.694a3.558,3.558,0,0,1,2.437.766,2.735,2.735,0,0,1,.864,2.16,2.97,2.97,0,0,1-.96,2.283,3.665,3.665,0,0,1-2.594.889Zm0-5.058v4.019h1.2a2.692,2.692,0,0,0,1.815-.543,1.925,1.925,0,0,0,.625-1.535q0-1.943-2.3-1.941Z" fill="#2f2f2f"/>
      <path d="M311.92,204.964a3.247,3.247,0,0,1-2.478-.981,3.636,3.636,0,0,1-.926-2.6,3.784,3.784,0,0,1,.964-2.755,3.467,3.467,0,0,1,2.6-.991,3.139,3.139,0,0,1,2.444.964,3.822,3.822,0,0,1,.879,2.673,3.756,3.756,0,0,1-.948,2.683A3.315,3.315,0,0,1,311.92,204.964Zm.082-6.385a2.135,2.135,0,0,0-1.709.735,3.015,3.015,0,0,0-.629,2.027,2.852,2.852,0,0,0,.636,1.962,2.159,2.159,0,0,0,1.7.718,2.048,2.048,0,0,0,1.671-.7,3.053,3.053,0,0,0,.585-2,3.11,3.11,0,0,0-.585-2.024A2.038,2.038,0,0,0,312,198.579Z" fill="#2f2f2f"/>
      <path d="M323.161,204.8h-1.122v-1.189h-.027a2.587,2.587,0,0,1-2.406,1.353,2.615,2.615,0,0,1-2.109-.94,3.857,3.857,0,0,1-.79-2.56,4.2,4.2,0,0,1,.875-2.782,2.889,2.889,0,0,1,2.331-1.046,2.245,2.245,0,0,1,2.1,1.135h.027v-4.334h1.122Zm-1.122-3.165V200.6a2,2,0,0,0-.56-1.436,1.879,1.879,0,0,0-1.422-.588,1.936,1.936,0,0,0-1.613.752,3.3,3.3,0,0,0-.588,2.079,2.963,2.963,0,0,0,.564,1.91,1.841,1.841,0,0,0,1.514.7,1.914,1.914,0,0,0,1.521-.677A2.519,2.519,0,0,0,322.039,201.635Z" fill="#2f2f2f"/>
    </g>
    <g>
      <path d="M302.544,261.6h-1.271l-1.039-2.748h-4.156L295.1,261.6h-1.278l3.759-9.8h1.19Zm-2.686-3.78-1.538-4.177a3.881,3.881,0,0,1-.151-.656h-.027a3.823,3.823,0,0,1-.157.656l-1.525,4.177Z" fill="#2f2f2f"/>
      <path d="M304.965,260.588h-.027v4.232h-1.121V254.6h1.121v1.23h.027a2.651,2.651,0,0,1,2.42-1.394,2.56,2.56,0,0,1,2.112.94,3.891,3.891,0,0,1,.759,2.519,4.343,4.343,0,0,1-.854,2.813,2.848,2.848,0,0,1-2.338,1.056A2.342,2.342,0,0,1,304.965,260.588Zm-.027-2.823v.978a2.083,2.083,0,0,0,.563,1.473,2.012,2.012,0,0,0,3.029-.175,3.573,3.573,0,0,0,.578-2.167,2.828,2.828,0,0,0-.54-1.832,1.789,1.789,0,0,0-1.463-.663,1.986,1.986,0,0,0-1.572.68A2.5,2.5,0,0,0,304.938,257.765Z" fill="#2f2f2f"/>
      <path d="M313.121,260.588h-.027v4.232h-1.121V254.6h1.121v1.23h.027a2.651,2.651,0,0,1,2.42-1.394,2.563,2.563,0,0,1,2.113.94,3.891,3.891,0,0,1,.759,2.519,4.343,4.343,0,0,1-.855,2.813,2.847,2.847,0,0,1-2.338,1.056A2.343,2.343,0,0,1,313.121,260.588Zm-.027-2.823v.978a2.083,2.083,0,0,0,.564,1.473,2.011,2.011,0,0,0,3.028-.175,3.566,3.566,0,0,0,.578-2.167,2.828,2.828,0,0,0-.54-1.832,1.788,1.788,0,0,0-1.463-.663,1.986,1.986,0,0,0-1.572.68A2.5,2.5,0,0,0,313.094,257.765Z" fill="#2f2f2f"/>
      <path d="M324.189,261.6v-9.8h2.789a3.055,3.055,0,0,1,2.017.622,2.013,2.013,0,0,1,.745,1.62,2.383,2.383,0,0,1-.452,1.45,2.434,2.434,0,0,1-1.244.875v.027a2.5,2.5,0,0,1,1.586.749,2.3,2.3,0,0,1,.6,1.644,2.566,2.566,0,0,1-.9,2.037,3.363,3.363,0,0,1-2.277.779Zm1.148-8.764V256h1.176a2.232,2.232,0,0,0,1.483-.454,1.585,1.585,0,0,0,.541-1.282q0-1.429-1.88-1.429Zm0,4.2v3.527H326.9a2.333,2.333,0,0,0,1.568-.479,1.635,1.635,0,0,0,.558-1.312q0-1.737-2.365-1.736Z" fill="#2f2f2f"/>
    </g>
    <g>
      <path d="M373.337,201.1V204.8h-1.148V195h2.693a3.559,3.559,0,0,1,2.438.766,2.735,2.735,0,0,1,.864,2.16,2.97,2.97,0,0,1-.96,2.283,3.669,3.669,0,0,1-2.595.889Zm0-5.058v4.019h1.2a2.694,2.694,0,0,0,1.816-.543,1.925,1.925,0,0,0,.625-1.535q0-1.943-2.3-1.941Z" fill="#2f2f2f"/>
      <path d="M382.52,204.964a3.251,3.251,0,0,1-2.479-.981,3.635,3.635,0,0,1-.925-2.6,3.787,3.787,0,0,1,.963-2.755,3.47,3.47,0,0,1,2.605-.991,3.136,3.136,0,0,1,2.443.964,3.822,3.822,0,0,1,.879,2.673,3.756,3.756,0,0,1-.947,2.683A3.318,3.318,0,0,1,382.52,204.964Zm.082-6.385a2.134,2.134,0,0,0-1.709.735,3.015,3.015,0,0,0-.629,2.027,2.852,2.852,0,0,0,.636,1.962,2.159,2.159,0,0,0,1.7.718,2.05,2.05,0,0,0,1.671-.7,3.053,3.053,0,0,0,.585-2,3.11,3.11,0,0,0-.585-2.024A2.04,2.04,0,0,0,382.6,198.579Z" fill="#2f2f2f"/>
      <path d="M393.76,204.8h-1.121v-1.189h-.027a2.825,2.825,0,0,1-4.515.413,3.857,3.857,0,0,1-.79-2.56,4.2,4.2,0,0,1,.875-2.782,2.887,2.887,0,0,1,2.331-1.046,2.246,2.246,0,0,1,2.1,1.135h.027v-4.334h1.121Zm-1.121-3.165V200.6a2,2,0,0,0-.56-1.436,1.881,1.881,0,0,0-1.422-.588,1.939,1.939,0,0,0-1.614.752,3.3,3.3,0,0,0-.588,2.079,2.963,2.963,0,0,0,.565,1.91,1.841,1.841,0,0,0,1.514.7,1.915,1.915,0,0,0,1.521-.677A2.519,2.519,0,0,0,392.639,201.635Z" fill="#2f2f2f"/>
    </g>
    <g>
      <path d="M372.823,261.6h-1.272l-1.039-2.748h-4.156l-.978,2.748H364.1l3.76-9.8h1.189Zm-2.687-3.78-1.538-4.177a4.005,4.005,0,0,1-.15-.656h-.028a3.559,3.559,0,0,1-.157.656l-1.524,4.177Z" fill="#2f2f2f"/>
      <path d="M375.244,260.588h-.028v4.232H374.1V254.6h1.121v1.23h.028a2.651,2.651,0,0,1,2.419-1.394,2.563,2.563,0,0,1,2.113.94,3.891,3.891,0,0,1,.759,2.519,4.337,4.337,0,0,1-.855,2.813,2.844,2.844,0,0,1-2.338,1.056A2.342,2.342,0,0,1,375.244,260.588Zm-.028-2.823v.978a2.084,2.084,0,0,0,.565,1.473,2.011,2.011,0,0,0,3.028-.175,3.573,3.573,0,0,0,.577-2.167,2.823,2.823,0,0,0-.54-1.832,1.786,1.786,0,0,0-1.463-.663,1.987,1.987,0,0,0-1.572.68A2.5,2.5,0,0,0,375.216,257.765Z" fill="#2f2f2f"/>
      <path d="M383.4,260.588h-.028v4.232h-1.121V254.6h1.121v1.23h.028a2.652,2.652,0,0,1,2.42-1.394,2.562,2.562,0,0,1,2.112.94,3.891,3.891,0,0,1,.759,2.519,4.332,4.332,0,0,1-.855,2.813,2.843,2.843,0,0,1-2.338,1.056A2.342,2.342,0,0,1,383.4,260.588Zm-.028-2.823v.978a2.084,2.084,0,0,0,.565,1.473,2.011,2.011,0,0,0,3.028-.175,3.573,3.573,0,0,0,.577-2.167,2.817,2.817,0,0,0-.54-1.832,1.785,1.785,0,0,0-1.463-.663,1.989,1.989,0,0,0-1.572.68A2.5,2.5,0,0,0,383.372,257.765Z" fill="#2f2f2f"/>
      <path d="M401.139,261.19a5.748,5.748,0,0,1-2.707.574,4.367,4.367,0,0,1-3.35-1.347,4.974,4.974,0,0,1-1.257-3.534,5.207,5.207,0,0,1,1.415-3.8,4.8,4.8,0,0,1,3.589-1.449,5.731,5.731,0,0,1,2.31.4v1.223a4.681,4.681,0,0,0-2.324-.588,3.565,3.565,0,0,0-2.737,1.128,4.244,4.244,0,0,0-1.05,3.015,4.043,4.043,0,0,0,.981,2.854,3.34,3.34,0,0,0,2.573,1.063,4.832,4.832,0,0,0,2.557-.656Z" fill="#2f2f2f"/>
    </g>
    <g>
      <path d="M224.788,305.6h-1.409l-5.045-7.813a3.221,3.221,0,0,1-.314-.616h-.041a10.167,10.167,0,0,1,.055,1.347V305.6h-1.149v-9.8h1.49l4.909,7.691c.205.319.337.537.4.656h.027a10.478,10.478,0,0,1-.068-1.442v-6.9h1.149Z" fill="#2f2f2f"/>
      <path d="M230.044,305.764a3.245,3.245,0,0,1-2.477-.981,3.632,3.632,0,0,1-.927-2.6,3.784,3.784,0,0,1,.964-2.755,3.467,3.467,0,0,1,2.6-.991,3.141,3.141,0,0,1,2.445.964,3.823,3.823,0,0,1,.878,2.673,3.764,3.764,0,0,1-.947,2.683A3.317,3.317,0,0,1,230.044,305.764Zm.082-6.385a2.135,2.135,0,0,0-1.709.735,3.021,3.021,0,0,0-.629,2.027,2.854,2.854,0,0,0,.636,1.962,2.162,2.162,0,0,0,1.7.718,2.05,2.05,0,0,0,1.672-.7,3.056,3.056,0,0,0,.584-2,3.108,3.108,0,0,0-.584-2.024A2.04,2.04,0,0,0,230.126,299.379Z" fill="#2f2f2f"/>
      <path d="M241.286,305.6h-1.122v-1.189h-.027a2.588,2.588,0,0,1-2.406,1.353,2.616,2.616,0,0,1-2.11-.94,3.857,3.857,0,0,1-.789-2.56,4.19,4.19,0,0,1,.875-2.782,2.887,2.887,0,0,1,2.331-1.046,2.244,2.244,0,0,1,2.1,1.135h.027v-4.334h1.122Zm-1.122-3.165V301.4a2.006,2.006,0,0,0-.56-1.436,1.881,1.881,0,0,0-1.422-.588,1.934,1.934,0,0,0-1.613.752,3.29,3.29,0,0,0-.588,2.078,2.963,2.963,0,0,0,.563,1.911,1.845,1.845,0,0,0,1.515.7,1.913,1.913,0,0,0,1.52-.677A2.52,2.52,0,0,0,240.164,302.435Z" fill="#2f2f2f"/>
      <path d="M249.107,302.38h-4.943a2.617,2.617,0,0,0,.629,1.805,2.169,2.169,0,0,0,1.655.636,3.436,3.436,0,0,0,2.173-.78v1.053a4.058,4.058,0,0,1-2.44.67,2.956,2.956,0,0,1-2.331-.954,3.9,3.9,0,0,1-.848-2.683,3.829,3.829,0,0,1,.926-2.662,2.972,2.972,0,0,1,2.3-1.029,2.631,2.631,0,0,1,2.126.889,3.705,3.705,0,0,1,.752,2.467Zm-1.149-.95a2.282,2.282,0,0,0-.468-1.511,1.6,1.6,0,0,0-1.282-.54,1.807,1.807,0,0,0-1.346.568,2.57,2.57,0,0,0-.684,1.483Z" fill="#2f2f2f"/>
      <path d="M260.017,302.825a2.845,2.845,0,0,1-.25,1.206,2.648,2.648,0,0,1-.7.93,3.249,3.249,0,0,1-1.09.6,4.423,4.423,0,0,1-1.4.212,4.075,4.075,0,0,1-2.229-.533v-1.2a3.572,3.572,0,0,0,2.27.779,3.1,3.1,0,0,0,.925-.13,2.054,2.054,0,0,0,.711-.376,1.645,1.645,0,0,0,.458-.595,1.841,1.841,0,0,0,.162-.786q0-1.922-2.735-1.921h-.813v-.95h.772q2.42,0,2.42-1.805,0-1.666-1.846-1.668a3.141,3.141,0,0,0-1.948.7v-1.087a4.256,4.256,0,0,1,2.229-.561,3.423,3.423,0,0,1,1.114.171,2.561,2.561,0,0,1,.854.479,2.12,2.12,0,0,1,.55.738,2.277,2.277,0,0,1,.2.95,2.393,2.393,0,0,1-1.956,2.488v.028a3.1,3.1,0,0,1,.923.242,2.463,2.463,0,0,1,.732.489,2.183,2.183,0,0,1,.481.708A2.26,2.26,0,0,1,260.017,302.825Z" fill="#2f2f2f"/>
    </g>
    <g>
      <path d="M232.337,328.7v3.7h-1.148v-9.8h2.693a3.554,3.554,0,0,1,2.438.766,2.733,2.733,0,0,1,.864,2.16,2.97,2.97,0,0,1-.96,2.283,3.674,3.674,0,0,1-2.595.889Zm0-5.059v4.02h1.2a2.689,2.689,0,0,0,1.816-.544,1.923,1.923,0,0,0,.625-1.534q0-1.942-2.3-1.942Z" fill="#2f2f2f"/>
      <path d="M241.52,332.564a3.251,3.251,0,0,1-2.479-.981,3.635,3.635,0,0,1-.925-2.6,3.787,3.787,0,0,1,.963-2.755,3.466,3.466,0,0,1,2.6-.991,3.136,3.136,0,0,1,2.443.964,3.817,3.817,0,0,1,.879,2.672,3.76,3.76,0,0,1-.947,2.684A3.318,3.318,0,0,1,241.52,332.564Zm.082-6.385a2.131,2.131,0,0,0-1.709.735,3.014,3.014,0,0,0-.629,2.027,2.855,2.855,0,0,0,.636,1.962,2.162,2.162,0,0,0,1.7.718,2.047,2.047,0,0,0,1.671-.7,3.053,3.053,0,0,0,.585-2,3.1,3.1,0,0,0-.585-2.023A2.04,2.04,0,0,0,241.6,326.179Z" fill="#2f2f2f"/>
      <path d="M252.76,332.4h-1.121v-1.19h-.027a2.588,2.588,0,0,1-2.407,1.354,2.616,2.616,0,0,1-2.108-.94,3.859,3.859,0,0,1-.79-2.56,4.2,4.2,0,0,1,.875-2.782,2.884,2.884,0,0,1,2.331-1.046,2.244,2.244,0,0,1,2.1,1.135h.027v-4.334h1.121Zm-1.121-3.165V328.2a2,2,0,0,0-.56-1.436,1.881,1.881,0,0,0-1.422-.588,1.939,1.939,0,0,0-1.614.752,3.3,3.3,0,0,0-.588,2.078,2.964,2.964,0,0,0,.565,1.911,1.844,1.844,0,0,0,1.514.7,1.915,1.915,0,0,0,1.521-.677A2.519,2.519,0,0,0,251.639,329.235Z" fill="#2f2f2f"/>
    </g>
    <g>
      <path d="M231.642,389.2h-1.271l-1.04-2.748h-4.156L224.2,389.2h-1.279l3.76-9.8h1.19Zm-2.687-3.78-1.538-4.177a4.005,4.005,0,0,1-.15-.656h-.027a3.719,3.719,0,0,1-.158.656l-1.524,4.177Z" fill="#2f2f2f"/>
      <path d="M234.063,388.188h-.027v4.232h-1.122V382.2h1.122v1.231h.027a2.649,2.649,0,0,1,2.42-1.395,2.565,2.565,0,0,1,2.112.94,3.891,3.891,0,0,1,.759,2.519,4.337,4.337,0,0,1-.855,2.813,2.845,2.845,0,0,1-2.337,1.056A2.341,2.341,0,0,1,234.063,388.188Zm-.027-2.823v.978a2.081,2.081,0,0,0,.563,1.473,2.012,2.012,0,0,0,3.028-.174,3.57,3.57,0,0,0,.578-2.167,2.824,2.824,0,0,0-.54-1.833,1.789,1.789,0,0,0-1.462-.663,1.986,1.986,0,0,0-1.573.681A2.5,2.5,0,0,0,234.036,385.365Z" fill="#2f2f2f"/>
      <path d="M242.219,388.188h-.027v4.232h-1.121V382.2h1.121v1.231h.027a2.65,2.65,0,0,1,2.42-1.395,2.564,2.564,0,0,1,2.112.94,3.891,3.891,0,0,1,.759,2.519,4.343,4.343,0,0,1-.854,2.813,2.848,2.848,0,0,1-2.338,1.056A2.342,2.342,0,0,1,242.219,388.188Zm-.027-2.823v.978a2.081,2.081,0,0,0,.563,1.473,2.013,2.013,0,0,0,3.029-.174,3.577,3.577,0,0,0,.578-2.167,2.83,2.83,0,0,0-.54-1.833,1.792,1.792,0,0,0-1.463-.663,1.982,1.982,0,0,0-1.572.681A2.494,2.494,0,0,0,242.192,385.365Z" fill="#2f2f2f"/>
      <path d="M260.874,389.2H259.6l-1.039-2.748h-4.156l-.978,2.748h-1.278l3.76-9.8H257.1Zm-2.686-3.78-1.538-4.177a3.881,3.881,0,0,1-.151-.656h-.027a3.823,3.823,0,0,1-.157.656l-1.525,4.177Z" fill="#2f2f2f"/>
    </g>
    <g>
      <path d="M302.738,328.7v3.7h-1.149v-9.8h2.694a3.553,3.553,0,0,1,2.437.766,2.733,2.733,0,0,1,.864,2.16,2.97,2.97,0,0,1-.96,2.283,3.669,3.669,0,0,1-2.594.889Zm0-5.059v4.02h1.2a2.686,2.686,0,0,0,1.815-.544,1.923,1.923,0,0,0,.625-1.534q0-1.942-2.3-1.942Z" fill="#2f2f2f"/>
      <path d="M311.92,332.564a3.247,3.247,0,0,1-2.478-.981,3.636,3.636,0,0,1-.926-2.6,3.784,3.784,0,0,1,.964-2.755,3.463,3.463,0,0,1,2.6-.991,3.139,3.139,0,0,1,2.444.964,3.817,3.817,0,0,1,.879,2.672,3.761,3.761,0,0,1-.948,2.684A3.315,3.315,0,0,1,311.92,332.564Zm.082-6.385a2.132,2.132,0,0,0-1.709.735,3.014,3.014,0,0,0-.629,2.027,2.855,2.855,0,0,0,.636,1.962,2.162,2.162,0,0,0,1.7.718,2.046,2.046,0,0,0,1.671-.7,3.053,3.053,0,0,0,.585-2,3.1,3.1,0,0,0-.585-2.023A2.038,2.038,0,0,0,312,326.179Z" fill="#2f2f2f"/>
      <path d="M323.161,332.4h-1.122v-1.19h-.027a2.586,2.586,0,0,1-2.406,1.354,2.618,2.618,0,0,1-2.109-.94,3.859,3.859,0,0,1-.79-2.56,4.2,4.2,0,0,1,.875-2.782,2.886,2.886,0,0,1,2.331-1.046,2.243,2.243,0,0,1,2.1,1.135h.027v-4.334h1.122Zm-1.122-3.165V328.2a2,2,0,0,0-.56-1.436,1.879,1.879,0,0,0-1.422-.588,1.936,1.936,0,0,0-1.613.752,3.3,3.3,0,0,0-.588,2.078,2.964,2.964,0,0,0,.564,1.911,1.844,1.844,0,0,0,1.514.7,1.914,1.914,0,0,0,1.521-.677A2.519,2.519,0,0,0,322.039,329.235Z" fill="#2f2f2f"/>
    </g>
    <g>
      <path d="M302.544,389.2h-1.271l-1.039-2.748h-4.156L295.1,389.2h-1.278l3.759-9.8h1.19Zm-2.686-3.78-1.538-4.177a3.881,3.881,0,0,1-.151-.656h-.027a3.823,3.823,0,0,1-.157.656l-1.525,4.177Z" fill="#2f2f2f"/>
      <path d="M304.965,388.188h-.027v4.232h-1.121V382.2h1.121v1.231h.027a2.65,2.65,0,0,1,2.42-1.395,2.563,2.563,0,0,1,2.112.94,3.891,3.891,0,0,1,.759,2.519,4.343,4.343,0,0,1-.854,2.813,2.848,2.848,0,0,1-2.338,1.056A2.342,2.342,0,0,1,304.965,388.188Zm-.027-2.823v.978a2.081,2.081,0,0,0,.563,1.473,2.013,2.013,0,0,0,3.029-.174,3.577,3.577,0,0,0,.578-2.167,2.83,2.83,0,0,0-.54-1.833,1.792,1.792,0,0,0-1.463-.663,1.984,1.984,0,0,0-1.572.681A2.494,2.494,0,0,0,304.938,385.365Z" fill="#2f2f2f"/>
      <path d="M313.121,388.188h-.027v4.232h-1.121V382.2h1.121v1.231h.027a2.65,2.65,0,0,1,2.42-1.395,2.566,2.566,0,0,1,2.113.94,3.891,3.891,0,0,1,.759,2.519,4.343,4.343,0,0,1-.855,2.813,2.847,2.847,0,0,1-2.338,1.056A2.343,2.343,0,0,1,313.121,388.188Zm-.027-2.823v.978a2.082,2.082,0,0,0,.564,1.473,2.012,2.012,0,0,0,3.028-.174,3.57,3.57,0,0,0,.578-2.167,2.83,2.83,0,0,0-.54-1.833,1.791,1.791,0,0,0-1.463-.663,1.984,1.984,0,0,0-1.572.681A2.494,2.494,0,0,0,313.094,385.365Z" fill="#2f2f2f"/>
      <path d="M324.189,389.2v-9.8h2.789a3.055,3.055,0,0,1,2.017.622,2.014,2.014,0,0,1,.745,1.621,2.382,2.382,0,0,1-.452,1.449,2.434,2.434,0,0,1-1.244.875v.027a2.5,2.5,0,0,1,1.586.749,2.3,2.3,0,0,1,.6,1.644,2.566,2.566,0,0,1-.9,2.037,3.363,3.363,0,0,1-2.277.779Zm1.148-8.764V383.6h1.176a2.232,2.232,0,0,0,1.483-.454,1.585,1.585,0,0,0,.541-1.282q0-1.428-1.88-1.429Zm0,4.2v3.527H326.9a2.338,2.338,0,0,0,1.568-.478,1.639,1.639,0,0,0,.558-1.313q0-1.737-2.365-1.736Z" fill="#2f2f2f"/>
    </g>
    <g>
      <path d="M373.337,328.7v3.7h-1.148v-9.8h2.693a3.554,3.554,0,0,1,2.438.766,2.733,2.733,0,0,1,.864,2.16,2.97,2.97,0,0,1-.96,2.283,3.674,3.674,0,0,1-2.595.889Zm0-5.059v4.02h1.2a2.689,2.689,0,0,0,1.816-.544,1.923,1.923,0,0,0,.625-1.534q0-1.942-2.3-1.942Z" fill="#2f2f2f"/>
      <path d="M382.52,332.564a3.251,3.251,0,0,1-2.479-.981,3.635,3.635,0,0,1-.925-2.6,3.787,3.787,0,0,1,.963-2.755,3.466,3.466,0,0,1,2.605-.991,3.136,3.136,0,0,1,2.443.964,3.817,3.817,0,0,1,.879,2.672,3.76,3.76,0,0,1-.947,2.684A3.318,3.318,0,0,1,382.52,332.564Zm.082-6.385a2.131,2.131,0,0,0-1.709.735,3.014,3.014,0,0,0-.629,2.027,2.855,2.855,0,0,0,.636,1.962,2.162,2.162,0,0,0,1.7.718,2.047,2.047,0,0,0,1.671-.7,3.053,3.053,0,0,0,.585-2,3.1,3.1,0,0,0-.585-2.023A2.04,2.04,0,0,0,382.6,326.179Z" fill="#2f2f2f"/>
      <path d="M393.76,332.4h-1.121v-1.19h-.027a2.588,2.588,0,0,1-2.407,1.354,2.616,2.616,0,0,1-2.108-.94,3.859,3.859,0,0,1-.79-2.56,4.2,4.2,0,0,1,.875-2.782,2.884,2.884,0,0,1,2.331-1.046,2.244,2.244,0,0,1,2.1,1.135h.027v-4.334h1.121Zm-1.121-3.165V328.2a2,2,0,0,0-.56-1.436,1.881,1.881,0,0,0-1.422-.588,1.939,1.939,0,0,0-1.614.752,3.3,3.3,0,0,0-.588,2.078,2.964,2.964,0,0,0,.565,1.911,1.844,1.844,0,0,0,1.514.7,1.915,1.915,0,0,0,1.521-.677A2.519,2.519,0,0,0,392.639,329.235Z" fill="#2f2f2f"/>
    </g>
    <g>
      <path d="M372.823,389.2h-1.272l-1.039-2.748h-4.156l-.978,2.748H364.1l3.76-9.8h1.189Zm-2.687-3.78-1.538-4.177a4.005,4.005,0,0,1-.15-.656h-.028a3.559,3.559,0,0,1-.157.656l-1.524,4.177Z" fill="#2f2f2f"/>
      <path d="M375.244,388.188h-.028v4.232H374.1V382.2h1.121v1.231h.028a2.65,2.65,0,0,1,2.419-1.395,2.566,2.566,0,0,1,2.113.94,3.891,3.891,0,0,1,.759,2.519,4.337,4.337,0,0,1-.855,2.813,2.844,2.844,0,0,1-2.338,1.056A2.342,2.342,0,0,1,375.244,388.188Zm-.028-2.823v.978a2.083,2.083,0,0,0,.565,1.473,2.012,2.012,0,0,0,3.028-.174,3.577,3.577,0,0,0,.577-2.167,2.824,2.824,0,0,0-.54-1.833,1.789,1.789,0,0,0-1.463-.663,1.985,1.985,0,0,0-1.572.681A2.494,2.494,0,0,0,375.216,385.365Z" fill="#2f2f2f"/>
      <path d="M383.4,388.188h-.028v4.232h-1.121V382.2h1.121v1.231h.028a2.651,2.651,0,0,1,2.42-1.395,2.565,2.565,0,0,1,2.112.94,3.891,3.891,0,0,1,.759,2.519,4.332,4.332,0,0,1-.855,2.813,2.843,2.843,0,0,1-2.338,1.056A2.342,2.342,0,0,1,383.4,388.188Zm-.028-2.823v.978a2.083,2.083,0,0,0,.565,1.473,2.012,2.012,0,0,0,3.028-.174,3.577,3.577,0,0,0,.577-2.167,2.818,2.818,0,0,0-.54-1.833,1.788,1.788,0,0,0-1.463-.663,1.986,1.986,0,0,0-1.572.681A2.5,2.5,0,0,0,383.372,385.365Z" fill="#2f2f2f"/>
      <path d="M401.139,388.79a5.748,5.748,0,0,1-2.707.574,4.367,4.367,0,0,1-3.35-1.347,4.973,4.973,0,0,1-1.257-3.534,5.2,5.2,0,0,1,1.415-3.8,4.8,4.8,0,0,1,3.589-1.45,5.748,5.748,0,0,1,2.31.4v1.223a4.681,4.681,0,0,0-2.324-.588,3.565,3.565,0,0,0-2.737,1.128,4.244,4.244,0,0,0-1.05,3.015,4.043,4.043,0,0,0,.981,2.854,3.34,3.34,0,0,0,2.573,1.063,4.832,4.832,0,0,0,2.557-.656Z" fill="#2f2f2f"/>
    </g>
  </g>
</svg>
