<?xml version="1.0" encoding="UTF-8"?>
<svg width="251px" height="280px" viewBox="0 0 251 280" version="1.1" xmlns="http://www.w3.org/2000/svg" xmlns:xlink="http://www.w3.org/1999/xlink">
    <!-- Generator: Sketch 51.2 (57519) - http://www.bohemiancoding.com/sketch -->
    <title>3-unionfs-diagram</title>
    <desc>Created with Sketch.</desc>
    <defs></defs>
    <g id="Page-1" stroke="none" stroke-width="1" fill="none" fill-rule="evenodd">
        <g id="3-unionfs-diagram">
            <g id="Shapes">
                <rect id="Rectangle-path" fill="#FFFFFF" fill-rule="nonzero" x="0.13" y="0" width="250.12" height="279.74"></rect>
                <g id="Group" transform="translate(140.000000, 190.000000)" fill-rule="nonzero">
                    <polygon id="Shape" fill="#75B9D1" points="110.13 28.02 0.62 89.74 0.62 62.36 110.13 0.64"></polygon>
                    <polygon id="Shape" fill="#0072C6" opacity="0.5" points="110.13 28.02 0.62 89.74 0.62 62.36 110.13 0.64"></polygon>
                </g>
                <g id="Group" transform="translate(0.000000, 171.000000)" fill-rule="nonzero">
                    <polygon id="Shape" fill="#198AB3" points="140.62 108.74 0.13 27.62 0.13 0.24 140.62 81.36"></polygon>
                    <polygon id="Shape" fill="#0072C6" opacity="0.5" points="140.62 108.74 0.13 27.62 0.13 0.24 140.62 81.36"></polygon>
                </g>
                <g id="Group" transform="translate(140.000000, 163.000000)" fill-rule="nonzero">
                    <polygon id="Shape" fill="#75B9D1" points="110.13 27.64 0.62 89.36 0.62 61.98 110.13 0.26"></polygon>
                    <polygon id="Shape" fill="#5BCBE4" points="110.13 27.64 0.62 89.36 0.62 61.98 110.13 0.26"></polygon>
                </g>
                <g id="Group" transform="translate(0.000000, 143.000000)" fill-rule="nonzero">
                    <polygon id="Shape" fill="#198AB3" points="140.62 109.36 0.13 28.24 0.13 0.87 140.62 81.98"></polygon>
                    <polygon id="Shape" fill="#32BEDD" points="140.62 109.36 0.13 28.24 0.13 0.87 140.62 81.98"></polygon>
                </g>
                <g id="Group" transform="translate(140.000000, 135.000000)" fill-rule="nonzero">
                    <polygon id="Shape" fill="#E3E3E4" points="110.13 28.26 0.62 89.98 0.62 62.6 110.13 0.88"></polygon>
                    <polygon id="Shape" fill="#3C3C41" opacity="0.25" points="110.13 28.26 0.62 89.98 0.62 62.6 110.13 0.88"></polygon>
                </g>
                <g id="Group" transform="translate(0.000000, 116.000000)" fill-rule="nonzero">
                    <polygon id="Shape" fill="#C8C8CA" points="140.62 108.98 0.13 27.87 0.13 0.49 140.62 81.61"></polygon>
                    <polygon id="Shape" fill="#3C3C41" opacity="0.25" points="140.62 108.98 0.13 27.87 0.13 0.49 140.62 81.61"></polygon>
                </g>
                <g id="Group" transform="translate(140.000000, 108.000000)" fill-rule="nonzero">
                    <polygon id="Shape" fill="#E3E3E4" points="110.13 27.88 0.62 89.6 0.62 62.22 110.13 0.5"></polygon>
                    <polygon id="Shape" fill="#3C3C41" opacity="0.25" points="110.13 27.88 0.62 89.6 0.62 62.22 110.13 0.5"></polygon>
                </g>
                <g id="Group" transform="translate(0.000000, 89.000000)" fill-rule="nonzero">
                    <polygon id="Shape" fill="#C8C8CA" points="140.62 108.6 0.13 27.48 0.13 0.11 140.62 81.22"></polygon>
                    <polygon id="Shape" fill="#3C3C41" opacity="0.25" points="140.62 108.6 0.13 27.48 0.13 0.11 140.62 81.22"></polygon>
                </g>
                <g id="Group" transform="translate(140.000000, 81.000000)" fill-rule="nonzero">
                    <polygon id="Shape" fill="#E3E3E4" points="110.13 27.49 0.62 89.22 0.62 61.84 110.13 0.12"></polygon>
                    <polygon id="Shape" fill="#EBEBEB" opacity="0.25" points="110.13 27.49 0.62 89.22 0.62 61.84 110.13 0.12"></polygon>
                </g>
                <g id="Group" transform="translate(0.000000, 61.000000)" fill-rule="nonzero">
                    <polygon id="Shape" fill="#C8C8CA" points="140.62 109.22 0.13 28.1 0.13 0.72 140.62 81.84"></polygon>
                    <polygon id="Shape" fill="#EBEBEB" opacity="0.25" points="140.62 109.22 0.13 28.1 0.13 0.72 140.62 81.84"></polygon>
                </g>
                <polygon id="Shape" fill="#EBEBEB" fill-rule="nonzero" points="140.62 142.84 0.13 61.73 109.63 0 250.13 81.12"></polygon>
                <polyline id="Shape" stroke="#CEC9C9" stroke-width="0.5" points="0.13 115.95 140.62 197.1 250.13 135.38"></polyline>
            </g>
            <g id="Text" transform="translate(15.000000, 81.000000)" fill-rule="nonzero">
                <g id="Group" transform="translate(12.000000, 115.000000)" fill="#FFFFFF">
                    <path d="M0.86,9.25 L0.86,0.9 L3.51,2.43 C4.24079746,2.82725385 4.88101336,3.37211844 5.39,4.03 C5.79694679,4.55087224 6.02491307,5.18917781 6.04,5.85 C6.09855996,6.2312853 5.94536087,6.61428303 5.64,6.85 C5.33907278,7.03089543 4.97518215,7.07456231 4.64,6.97 C5.15081281,7.32793147 5.57459974,7.79614768 5.88,8.34 C6.17439983,8.82649157 6.33642891,9.38152737 6.35,9.95 C6.35,10.71 6.11,11.18 5.63,11.35 C4.94555712,11.485722 4.23575585,11.3219218 3.68,10.9 L0.86,9.25 Z M2.5,3.25 L2.5,5.25 L3.22,5.66 C3.44867472,5.8316016 3.73986315,5.897119 4.02,5.84 C4.22,5.76 4.32,5.56 4.32,5.23 C4.23791513,4.51687026 3.77994478,3.90242671 3.12,3.62 L2.5,3.25 Z M2.5,6.62 L2.5,8.82 L3.39,9.34 C3.64271366,9.53462456 3.96694035,9.61112749 4.28,9.55 C4.5,9.47 4.6,9.26 4.6,8.91 C4.60512404,8.55225599 4.49658052,8.2021156 4.29,7.91 C4.05768494,7.57942834 3.75337558,7.30589183 3.4,7.11 L2.5,6.62 Z" id="Shape"></path>
                    <path d="M9.88,14.6 C9.03402322,14.1234115 8.3273284,13.4339531 7.83,12.6 C7.34579595,11.782592 7.09021245,10.8500576 7.09,9.9 C7.09,8.9 7.35,8.29 7.86,8.03 C8.57445882,7.79262913 9.36045497,7.93177678 9.95,8.4 C10.7793336,8.88128656 11.4687134,9.57066637 11.95,10.4 C12.4254436,11.1950558 12.6776344,12.1036335 12.68,13.03 C12.68,14.03 12.43,14.66 11.92,14.94 C11.41,15.22 10.76,15.11 9.88,14.6 Z M9.88,9.78 C9.5,9.56 9.2,9.54 8.99,9.72 C8.73988385,10.0245715 8.62759586,10.4193906 8.68,10.81 C8.5883774,11.7787934 9.05831142,12.7147777 9.89,13.22 C10.65,13.67 11.04,13.3 11.04,12.12 C11.1345693,11.1917651 10.7022633,10.2885543 9.92,9.78 L9.88,9.78 Z" id="Shape"></path>
                    <path d="M16.23,18.27 C15.3980678,17.7920998 14.7079002,17.1019322 14.23,16.27 C13.7384548,15.4589011 13.4790265,14.5284182 13.48,13.58 C13.48,12.58 13.74,11.97 14.25,11.71 C14.9644588,11.4726291 15.750455,11.6117768 16.34,12.08 C17.1699039,12.5605447 17.8594553,13.2500961 18.34,14.08 C18.8197643,14.8773649 19.0754215,15.789439 19.08,16.72 C19.08,17.72 18.82,18.34 18.32,18.63 C17.6086795,18.887917 16.8140359,18.7510406 16.23,18.27 Z M16.23,13.45 C15.85,13.23 15.56,13.21 15.35,13.39 C15.095711,13.6887147 14.9794862,14.0809733 15.03,14.47 C14.9392868,15.4413242 15.4085127,16.379776 16.24,16.89 C17.01,17.33 17.39,16.97 17.39,15.79 C17.4845693,14.8617651 17.0522633,13.9585543 16.27,13.45 L16.23,13.45 Z" id="Shape"></path>
                    <path d="M23.21,22.09 C22.8260324,22.0394639 22.4594211,21.8989867 22.14,21.68 C21.0444047,21.0904645 20.3864599,19.9225151 20.45,18.68 L20.45,16 L19.6,15.52 L19.6,14.16 L20.45,14.65 L20.45,13.36 L22.04,13.76 L22.04,15.57 L23.21,16.24 L23.21,17.6 L22,16.88 L22,19.29 C21.9524266,19.8115683 22.2042013,20.3151178 22.65,20.59 C22.8061071,20.6851407 22.9874863,20.7304855 23.17,20.72 L23.21,22.09 Z" id="Shape"></path>
                    <polygon id="Shape" points="31.35 20 28.78 18.52 28.78 20.52 31.14 22 31.14 23.53 28.78 22.17 28.78 25.41 27.14 24.41 27.14 16.06 31.35 18.49"></polygon>
                    <path d="M33.1,21 C32.8285439,20.8383008 32.6016992,20.6114561 32.44,20.34 C32.2743369,20.0945649 32.18397,19.8060859 32.18,19.51 C32.18,19.24 32.26,19.06 32.44,18.99 C32.6662168,18.9169953 32.9139587,18.9620393 33.1,19.11 C33.376045,19.2647336 33.6069744,19.4887695 33.77,19.76 C33.9338177,20.0025952 34.0241004,20.2873332 34.03,20.58 C34.0603419,20.79599 33.9577689,21.0090263 33.77,21.12 C33.5404314,21.191181 33.2905928,21.1464338 33.1,21 Z M33.89,28.36 L32.29,27.44 L32.29,21.44 L33.89,22.37 L33.89,28.36 Z" id="Shape"></path>
                    <polygon id="Shape" points="36.82 30 35.22 29.08 35.22 20.25 36.82 21.18"></polygon>
                    <path d="M42.86,31 L39.47,29 C39.5241477,29.9117904 40.0674391,30.7229014 40.89,31.12 C41.3346788,31.4187204 41.8653063,31.5627981 42.4,31.53 L42.4,32.86 C41.7316867,32.8125733 41.0872262,32.5920093 40.53,32.22 C39.7046637,31.7644795 39.0146235,31.0985908 38.53,30.29 C38.0690958,29.4871113 37.8308944,28.5757322 37.84,27.65 C37.84,26.65 38.09,26.03 38.59,25.74 C39.1941563,25.4551896 39.9063467,25.5283335 40.44,25.93 C41.1792707,26.3557164 41.7852728,26.979033 42.19,27.73 C42.6082005,28.4821206 42.8251989,29.3294479 42.82,30.19 L42.86,31 Z M41.37,29 C41.4360557,28.2777937 41.0873985,27.5804792 40.47,27.2 C40.268328,27.0608929 40.001672,27.0608929 39.8,27.2 C39.5918845,27.3825865 39.4687783,27.643282 39.46,27.92 L41.37,29 Z" id="Shape"></path>
                    <path d="M46.5,35.28 L46.5,33.42 C46.7863969,33.853851 47.1219545,34.2531646 47.5,34.61 C47.7970505,34.9219484 48.1331671,35.1942028 48.5,35.42 C48.6692674,35.5247905 48.8505829,35.6087329 49.04,35.67 C49.1654101,35.7123118 49.2979721,35.7293069 49.43,35.72 C49.5230842,35.7081557 49.6067245,35.6572442 49.66,35.58 C49.7158043,35.4938378 49.7437356,35.392587 49.74,35.29 C49.7334828,35.1158715 49.6891215,34.9452513 49.61,34.79 C49.5199709,34.5954006 49.4093387,34.4110137 49.28,34.24 C49.1263213,34.0295246 48.9593124,33.829114 48.78,33.64 C48.59,33.42 48.38,33.2 48.16,32.97 C47.6561339,32.4570167 47.2284463,31.8744186 46.89,31.24 C46.6202523,30.7242477 46.4763337,30.1520001 46.47,29.57 C46.4437733,29.2210773 46.5239683,28.8724033 46.7,28.57 C46.8463112,28.3587487 47.0683308,28.2119293 47.32,28.16 C47.6254431,28.1161075 47.9369001,28.1434883 48.23,28.24 C48.6095799,28.3644803 48.9749422,28.5287257 49.32,28.73 C49.6664304,28.9294828 50.0003827,29.1498913 50.32,29.39 C50.6034191,29.610905 50.8738677,29.847965 51.13,30.1 L51.13,31.84 C51.0081567,31.6707644 50.8744895,31.5103637 50.73,31.36 C50.5935004,31.203507 50.446493,31.0564996 50.29,30.92 C50.1475023,30.7878151 49.9972346,30.6642617 49.84,30.55 L49.41,30.26 C49.2462783,30.1701103 49.0757548,30.0932075 48.9,30.03 C48.7712599,30.0044043 48.6387401,30.0044043 48.51,30.03 C48.4160372,30.0401503 48.3298344,30.0868434 48.27,30.16 C48.2048838,30.24206 48.1727842,30.3454921 48.18,30.45 C48.1844743,30.5985484 48.2184679,30.7447209 48.28,30.88 C48.3511226,31.0499089 48.441729,31.210987 48.55,31.36 C48.67,31.52 48.82,31.7 48.99,31.9 C49.16,32.1 49.35,32.3 49.56,32.52 C49.77,32.74 50.11,33.13 50.34,33.42 C50.5625036,33.6973406 50.7631081,33.9915605 50.94,34.3 C51.0977412,34.5824147 51.2251187,34.8807462 51.32,35.19 C51.4122206,35.5151376 51.4560245,35.8520905 51.45,36.19 C51.4649716,36.5379805 51.3854959,36.883527 51.22,37.19 C51.0788921,37.4110642 50.8492695,37.5605011 50.59,37.6 C50.2789634,37.6329721 49.9644954,37.5953726 49.67,37.49 C49.2833757,37.3546286 48.9114737,37.1804042 48.56,36.97 C48.1636267,36.7435187 47.7857825,36.4860496 47.43,36.2 C47.0860114,35.9297103 46.7739926,35.6210466 46.5,35.28 Z" id="Shape"></path>
                    <path d="M57.3,35.87 L55.19,41.09 C54.68,42.35 53.92,42.68 52.89,42.09 C52.5275362,41.9013243 52.1913439,41.6659898 51.89,41.39 L51.89,39.92 C52.0791336,40.1680628 52.3131945,40.3783784 52.58,40.54 C52.99,40.78 53.28,40.72 53.44,40.37 L53.72,39.79 L51.61,32.62 L53.38,33.62 L54.38,37.81 C54.4467415,38.0997855 54.4935181,38.3938095 54.52,38.69 C54.5575765,38.4557126 54.6144364,38.2249283 54.69,38 L55.69,34.93 L57.3,35.87 Z" id="Shape"></path>
                    <path d="M57.63,41.87 L57.63,40.38 C57.86717,40.6865731 58.127966,40.9741175 58.41,41.24 C58.6380821,41.4543524 58.8896819,41.6422137 59.16,41.8 C59.3607277,41.9363521 59.5898401,42.0252614 59.83,42.06 C59.99,42.06 60.08,41.97 60.08,41.79 C60.0765556,41.663839 60.0346909,41.5417337 59.96,41.44 C59.8821335,41.3056905 59.7880992,41.1814308 59.68,41.07 C59.5574853,40.9358715 59.4272649,40.8089902 59.29,40.69 L58.89,40.3 C58.69,40.0933333 58.51,39.8933333 58.35,39.7 C58.1997912,39.5153187 58.0659522,39.3179061 57.95,39.11 C57.8511467,38.9145985 57.7707964,38.7103748 57.71,38.5 C57.6514831,38.2748193 57.6245587,38.0425961 57.63,37.81 C57.6102846,37.5460072 57.6769728,37.2827647 57.82,37.06 C57.9393801,36.896653 58.1196914,36.7884662 58.32,36.76 C58.5670122,36.7339898 58.8167019,36.7647735 59.05,36.85 C59.3474572,36.9423595 59.6328132,37.0699305 59.9,37.23 C60.1408642,37.3715547 60.37449,37.5250802 60.6,37.69 C60.8450529,37.8723261 61.0788159,38.0693549 61.3,38.28 L61.3,39.7 C61.1067213,39.4520781 60.8889549,39.2242609 60.65,39.02 C60.4397996,38.8275906 60.2082974,38.6598354 59.96,38.52 C59.8685272,38.463262 59.7713223,38.4163355 59.67,38.38 C59.5870549,38.3686248 59.5029451,38.3686248 59.42,38.38 C59.3576894,38.3771487 59.2967166,38.3986685 59.25,38.44 C59.2061251,38.4892118 59.1844272,38.5543057 59.19,38.62 C59.1926266,38.7388649 59.2234748,38.8554024 59.28,38.96 C59.3533803,39.0746653 59.4335221,39.1848602 59.52,39.29 C59.62,39.41 59.73,39.52 59.85,39.64 L60.21,39.98 C60.42,40.19 60.61,40.39 60.79,40.59 C60.9528975,40.7811187 61.1000453,40.9851192 61.23,41.2 C61.3509133,41.4050146 61.4482009,41.6230729 61.52,41.85 C61.5813135,42.0782301 61.611586,42.3136829 61.61,42.55 C61.6334086,42.8314279 61.5630913,43.1126971 61.41,43.35 C61.2812848,43.5176877 61.09002,43.6259508 60.88,43.65 C60.6191421,43.6718184 60.3566313,43.6377261 60.11,43.55 C59.7988557,43.4392518 59.4977576,43.3020849 59.21,43.14 C58.6295319,42.7883386 58.0982382,42.3612861 57.63,41.87 Z" id="Shape"></path>
                    <path d="M65.66,46.59 C65.2756679,46.5475176 64.9079505,46.4100532 64.59,46.19 C63.488742,45.605074 62.8258754,44.4353094 62.89,43.19 L62.89,40.46 L62.05,39.97 L62.05,38.62 L62.89,39.1 L62.89,37.81 L64.49,38.21 L64.49,40 L65.66,40.68 L65.66,42.04 L64.49,41.36 L64.49,43.77 C64.4388285,44.2924891 64.6863977,44.7992324 65.13,45.08 C65.2911977,45.171632 65.4746976,45.2166414 65.66,45.21 L65.66,46.59 Z" id="Shape"></path>
                    <path d="M71.22,47.42 L67.83,45.42 C67.8902366,46.3325784 68.4364263,47.1423141 69.26,47.54 C69.6995756,47.8408789 70.2289761,47.9820523 70.76,47.94 L70.76,49.27 C70.0899679,49.2311827 69.4433094,49.0098665 68.89,48.63 C67.2410595,47.7071292 66.2254839,45.9595726 66.24,44.07 C66.24,43.0766667 66.49,42.4366667 66.99,42.15 C67.5959732,41.868032 68.3082894,41.9450391 68.84,42.35 C69.5796744,42.7740317 70.1885295,43.393265 70.6,44.14 C71.0101671,44.8948465 71.2234051,45.7409199 71.22,46.6 L71.22,47.42 Z M69.73,45.42 C69.8009343,44.6968829 69.4510543,43.9971229 68.83,43.62 C68.6302381,43.4748893 68.3597619,43.4748893 68.16,43.62 C67.9543622,43.8002283 67.8314958,44.0568023 67.82,44.33 L69.73,45.42 Z" id="Shape"></path>
                    <path d="M80.49,55.23 L78.89,54.3 L78.89,50.9 C78.9722582,50.1974409 78.6510561,49.508598 78.06,49.12 C77.8761293,48.9614393 77.6038707,48.9614393 77.42,49.12 C77.229644,49.3524322 77.1396838,49.6511002 77.17,49.95 L77.17,53.29 L75.56,52.36 L75.56,49 C75.6378406,48.3139659 75.3250717,47.6420921 74.75,47.26 C74.47,47.1 74.25,47.1 74.09,47.26 C73.89689,47.5026749 73.8070807,47.8116189 73.84,48.12 L73.84,51.44 L72.24,50.51 L72.24,44.51 L73.84,45.44 L73.84,46.37 C74.0106452,46.1518651 74.2641129,46.0142683 74.54,45.99 C74.8928703,45.9776539 75.2412963,46.0717289 75.54,46.26 C76.2874682,46.7013591 76.8302203,47.4202361 77.05,48.26 C77.45,47.75 78.05,47.72 78.8,48.16 C79.9623422,48.8717016 80.6180441,50.1831053 80.49,51.54 L80.49,55.23 Z" id="Shape"></path>
                </g>
                <g id="Group" transform="translate(168.000000, 139.000000)" fill="#FFFFFF">
                    <path d="M6.42,22.5 L4.35,23.69 L2.23,21.29 C2.15129881,21.1806345 2.0842666,21.0633281 2.03,20.94 L2.03,25 L0.39,26 L0.39,17.65 L2.03,16.7 L2.03,20.65 C2.03,20.51 2.14,20.32 2.24,20.06 L4.24,15.42 L6.19,14.29 L3.65,19.74 L6.42,22.5 Z" id="Shape"></path>
                    <path d="M11.42,17.15 L8.03,19.15 C8.08,19.98 8.56,20.15 9.46,19.62 C10.0430672,19.2802711 10.5529155,18.8282056 10.96,18.29 L10.96,19.61 C10.4316529,20.2261658 9.79858771,20.7441282 9.09,21.14 C8.25,21.62 7.58333333,21.73 7.09,21.47 C6.62,21.2 6.39,20.59 6.39,19.63 C6.38723942,18.6529824 6.64621218,17.6930567 7.14,16.85 C7.57537402,16.0519265 8.21349181,15.3827651 8.99,14.91 C9.75,14.48 10.33,14.4 10.75,14.67 C11.2313007,15.1162598 11.4630075,15.770271 11.37,16.42 L11.42,17.15 Z M9.93,16.88 C9.93,16.03 9.63,15.77 9.03,16.12 C8.74135339,16.3029318 8.50935358,16.5626331 8.36,16.87 C8.17020262,17.2207596 8.04807924,17.6040913 8,18 L9.93,16.88 Z" id="Shape"></path>
                    <path d="M27.4199998,8.15000029 L24.0299998,10.1500003 C24.0799998,10.9800003 24.5599998,11.1500003 25.4599998,10.6200003 C26.0430671,10.2802714 26.5529153,9.82820591 26.9599998,9.29000029 L26.9599998,10.6100003 C26.4316527,11.2261661 25.7985876,11.7441285 25.0899998,12.1400003 C24.2499998,12.6200003 23.5833332,12.7300003 23.0899998,12.4700003 C22.6199998,12.2000003 22.3899998,11.5900003 22.3899998,10.6300003 C22.3872393,9.65298269 22.646212,8.69305698 23.1399998,7.85000029 C23.5753739,7.05192679 24.2134917,6.38276543 24.9899998,5.91000029 C25.7499998,5.48000029 26.3299998,5.40000029 26.7499998,5.67000029 C27.2313005,6.11626012 27.4630073,6.77027128 27.3699998,7.42000029 L27.4199998,8.15000029 Z M25.9299998,7.88000029 C25.9299998,7.03000029 25.6299998,6.77000029 25.0299998,7.12000029 C24.7413532,7.3029321 24.5093534,7.56263337 24.3599998,7.87000029 C24.1702025,8.22075986 24.0480791,8.60409158 23.9999998,9.00000029 L25.9299998,7.88000029 Z" id="Shape"></path>
                    <path d="M15.83,12.76 C15.5910065,12.7634148 15.3581856,12.8363885 15.16,12.97 C14.798216,13.1801021 14.5114272,13.4983677 14.34,13.88 C14.1352873,14.3072834 14.0325903,14.7762665 14.04,15.25 L14.04,18.09 L12.44,19.02 L12.44,13.02 L14.04,12.09 L14.04,13.2 C14.2040734,12.3740878 14.6991398,11.6513632 15.41,11.2 C15.5297313,11.1244412 15.6617009,11.0702998 15.8,11.04 L15.83,12.76 Z" id="Shape"></path>
                    <path d="M21.6,13.73 L20,14.66 L20,11.34 C20,10.42 19.71,10.12 19.13,10.46 C18.8355393,10.643355 18.5996095,10.9070412 18.45,11.22 C18.2728618,11.5560324 18.1801936,11.9301373 18.18,12.31 L18.18,15.71 L16.58,16.63 L16.58,10.63 L18.18,9.7 L18.18,10.65 C18.4978506,9.81563338 19.08572,9.11159811 19.85,8.65 C21,7.99 21.58,8.47 21.58,10.11 L21.6,13.73 Z" id="Shape"></path>
                    <polygon id="Shape" points="30.09 8.83 28.49 9.75 28.49 0.93 30.09 0"></polygon>
                </g>
                <g id="Group" transform="translate(25.000000, 95.000000)" fill="#000000">
                    <path d="M0.4,8.94 L0.4,0.59 L3.05,2.12 C3.77624245,2.51547254 4.41289615,3.05679842 4.92,3.71 C5.33508223,4.22706051 5.56717246,4.86706691 5.58,5.53 C5.61613509,5.89396988 5.46559757,6.25149651 5.18,6.48 C4.88182316,6.66876743 4.51437231,6.71286154 4.18,6.6 C4.6837821,6.97223729 5.1001569,7.45004444 5.4,8 C5.69444838,8.48280828 5.85655131,9.03464806 5.87,9.6 C5.87,10.36 5.63,10.83 5.15,11.01 C4.46414689,11.1415948 3.75473179,10.9742456 3.2,10.55 L0.4,8.94 Z M2.04,2.94 L2.04,4.94 L2.76,5.35 C2.98867472,5.5216016 3.27986315,5.587119 3.56,5.53 C3.75,5.46 3.85,5.25 3.85,4.92 C3.76791513,4.20687026 3.30994478,3.59242671 2.65,3.31 L2.04,2.94 Z M2.04,6.32 L2.04,8.52 L2.93,9.03 C3.18271366,9.22462456 3.50694035,9.30112749 3.82,9.24 C4.03,9.16 4.14,8.95 4.14,8.6 C4.14506368,8.24071544 4.03270617,7.88959821 3.82,7.6 C3.59133142,7.26987286 3.29036204,6.99626434 2.94,6.8 L2.04,6.32 Z" id="Shape"></path>
                    <path d="M11.28,15.21 L9.76,14.34 L9.76,13.48 C9.41,13.95 8.89,13.98 8.21,13.59 C7.70925377,13.3063542 7.29195156,12.8959496 7,12.4 C6.71928024,11.9280059 6.57075338,11.3891643 6.57,10.84 C6.57,9.68 7.16,9.36 8.36,9.84 L9.77,10.44 C9.77826176,9.79935487 9.42141774,9.20978648 8.85,8.92 C8.32355855,8.58786629 7.69637828,8.45321741 7.08,8.54 L7.08,7.15 C7.39353885,7.16697527 7.70318294,7.22755781 8,7.33 C8.34615449,7.45376898 8.68077282,7.60769341 9,7.79 C10.4163865,8.53329614 11.2827674,10.0212957 11.23,11.62 L11.28,15.21 Z M9.77,11.92 L9.77,11.52 L8.77,11.11 C8.25,10.89 7.99,11.01 7.99,11.47 C7.99735002,11.6929692 8.0628477,11.9101457 8.18,12.1 C8.30911299,12.3072706 8.48782746,12.4791114 8.7,12.6 C8.90889122,12.765578 9.19687649,12.7892481 9.43,12.66 C9.6648719,12.4897054 9.7937823,12.2091357 9.77,11.92 Z" id="Shape"></path>
                    <path d="M12.3,15.65 L12.3,14.16 C12.5432587,14.4644794 12.8072177,14.7518272 13.09,15.02 C13.3187817,15.2364098 13.5702356,15.4275148 13.84,15.59 C14.0423722,15.7213104 14.2710763,15.8066478 14.51,15.84 C14.67,15.84 14.75,15.76 14.75,15.58 C14.7508785,15.4515939 14.7124981,15.3259854 14.64,15.22 C14.5596672,15.0873467 14.4658351,14.9633542 14.36,14.85 C14.24,14.72 14.11,14.6 13.97,14.47 C13.8293436,14.3477288 13.6957924,14.2175164 13.57,14.08 C13.37,13.87 13.18,13.67 13.03,13.48 C12.8775292,13.2970108 12.7435429,13.099381 12.63,12.89 C12.5210352,12.6992884 12.4401999,12.4938322 12.39,12.28 C12.3286472,12.0585964 12.2983576,11.8297412 12.3,11.6 C12.2824234,11.3361976 12.3489442,11.0736155 12.49,10.85 C12.6117033,10.6843335 12.7960707,10.5758821 13,10.55 C13.246249,10.5204346 13.4959987,10.5478044 13.73,10.63 C14.0267208,10.7243019 14.3118568,10.8517745 14.58,11.01 C14.8231267,11.151564 15.0569384,11.3085519 15.28,11.48 C15.51,11.66 15.75,11.85 15.98,12.06 L15.98,13.48 C15.7806658,13.2341518 15.5597898,13.0065825 15.32,12.8 C15.1106122,12.6110275 14.8828064,12.4435232 14.64,12.3 C14.5485272,12.243262 14.4513223,12.1963355 14.35,12.16 C14.2670549,12.1486248 14.1829451,12.1486248 14.1,12.16 C14.0376894,12.1571487 13.9767166,12.1786685 13.93,12.22 C13.8881878,12.2742594 13.8669324,12.3415681 13.87,12.41 C13.871392,12.5258717 13.9023721,12.6394654 13.96,12.74 C14.0263515,12.8623768 14.1069082,12.9764988 14.2,13.08 L14.53,13.42 L14.89,13.76 C15.1,13.97 15.29,14.18 15.46,14.38 C15.6282949,14.5691797 15.778923,14.7733645 15.91,14.99 C16.031807,15.1897098 16.1259969,15.405001 16.19,15.63 C16.2596096,15.8601241 16.2933388,16.0996014 16.29,16.34 C16.3126821,16.6182174 16.2423345,16.8960906 16.09,17.13 C15.9612848,17.2976877 15.77002,17.4059508 15.56,17.43 C15.2990508,17.45688 15.0354267,17.4226431 14.79,17.33 C14.4756677,17.2272758 14.1737955,17.0897563 13.89,16.92 C13.3081,16.566075 12.7737784,16.1392898 12.3,15.65 Z" id="Shape"></path>
                    <path d="M21.92,18.9 L18.53,16.9 C18.5887311,17.8368991 19.1517101,18.6679633 20,19.07 C20.4446453,19.3679875 20.9761443,19.5087819 21.51,19.47 L21.51,20.8 C20.8368179,20.7614733 20.1868636,20.5402122 19.63,20.16 C17.9857351,19.2323853 16.9719204,17.4878588 16.98,15.6 C16.98,14.6 17.24,13.97 17.74,13.68 C18.3425003,13.3974864 19.0522691,13.4746352 19.58,13.88 C20.3239107,14.2985187 20.9341133,14.9191225 21.34,15.67 C21.7547173,16.423062 21.9682576,17.2703345 21.96,18.13 L21.92,18.9 Z M20.44,16.9 C20.5079807,16.1722464 20.154673,15.4695134 19.53,15.09 C19.3323755,14.9496773 19.0676245,14.9496773 18.87,15.09 C18.6606418,15.2684512 18.5340427,15.5252665 18.52,15.8 L20.44,16.9 Z" id="Shape"></path>
                    <polygon id="Shape" points="27.54 24.6 25.9 23.66 25.9 15.31 27.54 16.26"></polygon>
                    <path d="M37.24,30.2 L35.64,29.28 L35.64,25.88 C35.7175355,25.1782103 35.3974309,24.4917211 34.81,24.1 C34.6213975,23.9440441 34.3486025,23.9440441 34.16,24.1 C33.9725414,24.3339654 33.8829459,24.6314223 33.91,24.93 L33.91,28.27 L32.31,27.34 L32.31,23.9 C32.3889747,23.2141396 32.070903,22.543086 31.49,22.17 C31.22,22.01 31,22.01 30.84,22.17 C30.6443242,22.4152342 30.5543637,22.7282968 30.59,23.04 L30.59,26.36 L28.99,25.43 L28.99,19.43 L30.59,20.35 L30.59,21.29 C30.7545406,21.0647684 31.0114873,20.925283 31.29,20.91 C31.6434509,20.89243 31.9934238,20.9869227 32.29,21.18 C33.0419795,21.6162858 33.5863352,22.3372867 33.8,23.18 C34.19,22.67 34.8,22.63 35.54,23.08 C36.7043543,23.7907585 37.3635839,25.1014619 37.24,26.46 L37.24,30.2 Z" id="Shape"></path>
                    <path d="M42.86,33.45 L41.34,32.57 L41.34,31.72 C41,32.18 40.48,32.22 39.8,31.82 C39.3062479,31.5428939 38.8954344,31.1389848 38.61,30.65 C38.3249601,30.1756949 38.1729674,29.6333572 38.17,29.08 C38.17,27.93 38.77,27.6 39.96,28.08 L41.38,28.68 C41.3849351,28.0400496 41.0237198,27.4535602 40.45,27.17 C39.9287032,26.834392 39.3033261,26.6993674 38.69,26.79 L38.69,25.4 C39.0002622,25.4171188 39.3065848,25.4777101 39.6,25.58 C39.9688228,25.6948344 40.3242054,25.8490571 40.66,26.04 C42.0759899,26.7824411 42.9395536,28.272283 42.88,29.87 L42.86,33.45 Z M41.36,30.16 L41.36,29.76 L40.36,29.35 C39.84,29.13 39.58,29.25 39.58,29.71 C39.5823143,29.9337678 39.6482101,30.1522645 39.77,30.34 C39.8985138,30.5416488 40.0733739,30.7096517 40.28,30.83 C40.4888302,31.0032193 40.7823934,31.0309888 41.02,30.9 C41.2533207,30.7284371 41.3818095,30.4487849 41.36,30.16 Z" id="Shape"></path>
                    <path d="M49.25,36.46 C49.25,37.56 48.97,38.26 48.41,38.55 C47.85,38.84 47.05,38.67 45.99,38.06 C45.366788,37.7155589 44.8029411,37.2732598 44.32,36.75 L44.32,35.2 C44.7653587,35.7851308 45.3144834,36.2834106 45.94,36.67 C46.2927495,36.9571561 46.7663878,37.0473729 47.2,36.91 C47.5,36.75 47.65,36.39 47.65,35.83 L47.65,35.36 C47.2833333,35.8133333 46.7433333,35.8333333 46.03,35.42 C45.3454302,35.0192724 44.7954628,34.4240545 44.45,33.71 C44.0590231,32.9387982 43.860051,32.0845901 43.87,31.22 C43.7808109,30.4918399 44.0146457,29.7611062 44.51,29.22 C45.0369483,28.8676891 45.7329459,28.9043206 46.22,29.31 C46.8667799,29.6903816 47.3695639,30.274033 47.65,30.97 L47.65,30.28 L49.25,31.21 L49.25,36.46 Z M47.67,33.36 L47.67,32.89 C47.66636,32.4941332 47.5631944,32.1055426 47.37,31.76 C47.2085511,31.4120048 46.9475535,31.1196875 46.62,30.92 C46.26,30.71 45.98,30.71 45.78,30.92 C45.533999,31.257515 45.4233948,31.6749568 45.47,32.09 C45.4642865,32.5560454 45.5633956,33.0174155 45.76,33.44 C45.9295808,33.8113636 46.2087476,34.1219367 46.56,34.33 C46.89,34.52 47.15,34.53 47.36,34.33 C47.5952095,34.0646855 47.7077481,33.7125484 47.67,33.36 Z" id="Shape"></path>
                    <path d="M55.27,38.16 L51.88,36.16 C51.9403189,37.069701 52.48172,37.87799 53.3,38.28 C53.7433344,38.5808751 54.2758537,38.7219398 54.81,38.68 L54.81,40.01 C54.1399679,39.9711827 53.4933094,39.7498665 52.94,39.37 C51.2831273,38.4552142 50.2645321,36.7024618 50.29,34.81 C50.29,33.8233333 50.54,33.1833333 51.04,32.89 C51.6459732,32.608032 52.3582894,32.6850391 52.89,33.09 C53.6296744,33.5140317 54.2385295,34.133265 54.65,34.88 C55.0601671,35.6348465 55.2734051,36.4809199 55.27,37.34 L55.27,38.16 Z M53.78,36.16 C53.8475922,35.4347981 53.4990247,34.7337902 52.88,34.35 C52.678328,34.2108929 52.411672,34.2108929 52.21,34.35 C51.998253,34.5255283 51.8740041,34.7849892 51.87,35.06 L53.78,36.16 Z" id="Shape"></path>
                </g>
                <g id="Group" transform="translate(38.000000, 75.000000)" fill="#000000">
                    <polygon id="Shape" points="2.42 9.37 0.78 8.43 0.78 0.08 2.42 1.02"></polygon>
                    <path d="M12.11,15 L10.52,14.08 L10.52,10.68 C10.6001638,9.97538876 10.2748624,9.28605957 9.68,8.9 C9.49779158,8.73702784 9.22220842,8.73702784 9.04,8.9 C8.84761718,9.13134789 8.75739523,9.43088477 8.79,9.73 L8.79,13.06 L7.19,12.14 L7.19,8.7 C7.26897467,8.01413962 6.950903,7.34308599 6.37,6.97 C6.17819101,6.81249417 5.90180899,6.81249417 5.71,6.97 C5.51886944,7.21723775 5.43266284,7.52973667 5.47,7.84 L5.47,11.16 L3.86,10.23 L3.86,4.23 L5.47,5.15 L5.47,6.08 C5.63356764,5.85365887 5.89108692,5.71386269 6.17,5.7 C6.52374849,5.67960756 6.87458728,5.77433404 7.17,5.97 C7.91666667,6.41 8.45666667,7.13 8.67,7.97 C9.07,7.46 9.67,7.42 10.42,7.87 C11.5807166,8.57838092 12.2365135,9.88609421 12.11,11.24 L12.11,15 Z" id="Shape"></path>
                    <path d="M17.74,18.22 L16.22,17.34 L16.22,16.49 C15.87,16.95 15.36,16.99 14.67,16.59 C14.1758452,16.308977 13.765183,15.9017658 13.48,15.41 C13.1964829,14.9392022 13.0477382,14.3995701 13.05,13.85 C13.05,12.69 13.65,12.37 14.84,12.85 L16.25,13.45 C16.2568126,12.8122896 15.8998327,12.2263768 15.33,11.94 C14.8065809,11.60022 14.1777497,11.4616639 13.56,11.55 L13.56,10.17 C13.8736532,10.1860499 14.1834258,10.2466576 14.48,10.35 C14.8504019,10.4605444 15.2062602,10.6149735 15.54,10.81 C16.9559899,11.5524411 17.8195536,13.042283 17.76,14.64 L17.74,18.22 Z M16.23,14.93 L16.23,14.52 L15.29,14.12 C14.77,13.9 14.51,14.02 14.51,14.48 C14.5108107,14.7008808 14.5769152,14.9165903 14.7,15.1 C14.8195547,15.3113435 14.9963307,15.4846533 15.21,15.6 C15.4209611,15.7680118 15.7112767,15.7954741 15.95,15.67 C16.1609315,15.4854848 16.2659521,15.2079306 16.23,14.93 Z" id="Shape"></path>
                    <path d="M24.13,21.23 C24.13,22.33 23.85,23.03 23.29,23.31 C22.73,23.59 21.92,23.44 20.86,22.82 C20.2380881,22.482201 19.6770222,22.042812 19.2,21.52 L19.2,20 C19.6402155,20.5898259 20.1903085,21.0889844 20.82,21.47 C21.1750466,21.7521843 21.6460793,21.8419049 22.08,21.71 C22.37,21.55 22.52,21.19 22.52,20.63 L22.52,20.16 C22.16,20.62 21.62,20.64 20.9,20.23 C20.2191351,19.8277309 19.6727891,19.2326662 19.33,18.52 C18.9347375,17.7463905 18.7323233,16.8887032 18.74,16.02 C18.6520974,15.2901934 18.8898375,14.5586854 19.39,14.02 C19.8166667,13.6733333 20.3866667,13.7033333 21.1,14.11 C21.744024,14.4909066 22.2434527,15.0747458 22.52,15.77 L22.52,15 L24.13,15.92 L24.13,21.23 Z M22.54,18.13 L22.54,17.66 C22.5398512,17.2649453 22.4401112,16.8763033 22.25,16.53 C22.0829124,16.1826089 21.8189914,15.8909067 21.49,15.69 C21.14,15.48 20.86,15.48 20.66,15.69 C20.4103307,16.0257574 20.2993374,16.4446674 20.35,16.86 C20.3442865,17.3260454 20.4433956,17.7874155 20.64,18.21 C20.8069271,18.5799536 21.0824608,18.890365 21.43,19.1 C21.6682547,19.2851619 22.0017453,19.2851619 22.24,19.1 C22.4716139,18.8330501 22.5804651,18.4810981 22.54,18.13 Z" id="Shape"></path>
                    <path d="M30.14,22.93 L26.75,20.93 C26.8182904,21.8398025 27.3620169,22.6458864 28.18,23.05 C28.6226571,23.3523585 29.1557079,23.493564 29.69,23.45 L29.69,24.78 C29.0168179,24.7414733 28.3668636,24.5202122 27.81,24.14 C26.1649169,23.2145218 25.1534646,21.4674678 25.17,19.58 C25.17,18.5866667 25.42,17.9466667 25.92,17.66 C26.5225003,17.3774864 27.2322691,17.4546352 27.76,17.86 C28.5039107,18.2785187 29.1141133,18.8991225 29.52,19.65 C29.9347173,20.403062 30.1482576,21.2503345 30.14,22.11 L30.14,22.93 Z M28.66,20.93 C28.7279807,20.2022464 28.374673,19.4995134 27.75,19.12 C27.5523755,18.9796773 27.2876245,18.9796773 27.09,19.12 C26.8806418,19.2984512 26.7540427,19.5552665 26.74,19.83 L28.66,20.93 Z" id="Shape"></path>
                </g>
                <g id="Group" transform="translate(131.000000, 95.000000)" fill="#000000">
                    <path d="M6.37,59.33 C5.77160088,59.9873622 5.06882666,60.5414727 4.29,60.97 C3.17,61.62 2.29,61.75 1.66,61.36 C1.03,60.97 0.66,60.16 0.66,58.91 C0.721219133,56.1517739 2.17875346,53.6133291 4.53,52.17 C5.08073366,51.8215767 5.69090091,51.5775098 6.33,51.45 L6.33,53.26 C5.74144427,53.2294463 5.15888654,53.3908779 4.67,53.72 C3.97320251,54.1217978 3.39925444,54.7061185 3.01,55.41 C2.59529978,56.1308778 2.3779963,56.9483528 2.38,57.78 C2.2958443,58.3776314 2.52200385,58.9769542 2.98,59.37 C3.36666667,59.6233333 3.89666667,59.5533333 4.57,59.16 C5.24993205,58.7600057 5.84728341,58.2339292 6.33,57.61 L6.37,59.33 Z" id="Shape"></path>
                    <path d="M10.83,52.75 C10.5910065,52.7534148 10.3581856,52.8263885 10.16,52.96 C9.79821603,53.1701021 9.51142722,53.4883677 9.34,53.87 C9.13470179,54.293524 9.03193279,54.7594101 9.04,55.23 L9.04,58.08 L7.44,59.01 L7.44,53.01 L9.04,52.08 L9.04,53.19 C9.21052935,52.3668203 9.70402,51.646396 10.41,51.19 C10.5317717,51.1133718 10.6678685,51.0623355 10.81,51.04 L10.83,52.75 Z" id="Shape"></path>
                    <path d="M16.31,51.43 L12.92,53.43 C12.97,54.26 13.45,54.43 14.35,53.9 C14.9330672,53.5602711 15.4429155,53.1082056 15.85,52.57 L15.85,53.89 C15.3216529,54.5061658 14.6885877,55.0241282 13.98,55.42 C13.14,55.9 12.49,56.01 12.03,55.75 C11.56,55.48 11.33,54.87 11.33,53.91 C11.3272394,52.9329824 11.5862122,51.9730567 12.08,51.13 C12.515374,50.3319265 13.1534918,49.6627651 13.93,49.19 C14.69,48.76 15.27,48.68 15.69,48.95 C16.1713007,49.3962598 16.4030075,50.050271 16.31,50.7 L16.31,51.43 Z M14.82,51.16 C14.82,50.31 14.52,50.05 13.92,50.4 C13.6313534,50.5829318 13.3993536,50.8426331 13.25,51.15 C13.0695177,51.4960034 12.9542642,51.8722721 12.91,52.26 L14.82,51.16 Z" id="Shape"></path>
                    <path d="M21.64,50.81 L20.12,51.69 L20.12,50.83 C19.832356,51.6173975 19.2858527,52.283779 18.57,52.72 C18.07,53.01 17.67,53.08 17.38,52.91 C17.09,52.74 16.95,52.4 16.95,51.85 C17.0073005,50.6135418 17.6790899,49.4876378 18.74,48.85 L20.15,47.85 C20.15,47.19 19.84,47.04 19.23,47.4 C18.5365521,47.827356 17.9349082,48.3882105 17.46,49.05 L17.46,47.67 C17.7401938,47.3501849 18.0480537,47.0557102 18.38,46.79 C18.6920808,46.5098573 19.0265265,46.2556786 19.38,46.03 C20.8733333,45.17 21.6166667,45.59 21.61,47.29 L21.64,50.81 Z M20.13,49.26 L20.13,48.86 L19.19,49.54 C18.7331088,49.8020665 18.4368528,50.2745761 18.4,50.8 C18.3781518,50.9619958 18.4522777,51.1219515 18.59,51.21 C18.7692375,51.2640885 18.9636083,51.2267095 19.11,51.11 C19.4255702,50.925343 19.682196,50.6548454 19.85,50.33 C20.0286022,50.0012693 20.1246896,49.6340781 20.13,49.26 Z" id="Shape"></path>
                    <path d="M26,48.24 C25.6940453,48.5764946 25.3320052,48.8573295 24.93,49.07 C23.8,49.73 23.23,49.38 23.23,48.07 L23.23,45.3 L22.39,45.79 L22.39,44.43 L23.23,43.94 L23.23,42.66 L24.83,41.21 L24.83,43 L26,42.33 L26,43.69 L24.83,44.36 L24.83,46.77 C24.83,47.39 25.05,47.58 25.48,47.33 C25.6775498,47.2024069 25.8531524,47.0436892 26,46.86 L26,48.24 Z" id="Shape"></path>
                    <path d="M31.53,42.64 L28.15,44.64 C28.15,45.47 28.67,45.64 29.57,45.11 C30.1560433,44.7704815 30.6692084,44.3184884 31.08,43.78 L31.08,45.1 C30.5500609,45.7145344 29.9173038,46.2322447 29.21,46.63 C28.37,47.11 27.72,47.22 27.21,46.96 C26.7,46.7 26.52,46.08 26.52,45.12 C26.5172394,44.1429824 26.7762122,43.1830567 27.27,42.34 C27.7018398,41.5426178 28.3365659,40.8733958 29.11,40.4 C29.87,39.97 30.46,39.89 30.87,40.16 C31.28,40.43 31.49,41.02 31.49,41.91 L31.53,42.64 Z M30.05,42.37 C30.05,41.52 29.75,41.26 29.14,41.61 C28.8546963,41.7939466 28.6261799,42.0536244 28.48,42.36 C28.2976951,42.70601 28.1791394,43.0820009 28.13,43.47 L30.05,42.37 Z" id="Shape"></path>
                    <path d="M38.74,33.52 C38.5313709,33.5440513 38.3302493,33.6122281 38.15,33.72 C37.6456293,34.0048822 37.3470264,34.5516745 37.38,35.13 L37.38,35.76 L38.57,35.07 L38.57,36.43 L37.38,37.12 L37.38,41.72 L35.78,42.65 L35.78,38 L34.91,38.5 L34.91,37.15 L35.78,36.64 L35.78,35.9 C35.7800947,35.1918683 35.9812253,34.4983144 36.36,33.9 C36.7441353,33.2643319 37.284632,32.7376058 37.93,32.37 C38.1823506,32.2136818 38.4548691,32.0925625 38.74,32.01 L38.74,33.52 Z" id="Shape"></path>
                    <path d="M42.71,34.34 C42.4711899,34.3445496 42.2386827,34.417425 42.04,34.55 C41.6815192,34.7641465 41.3957926,35.0812333 41.22,35.46 C41.0233721,35.8896553 40.9243343,36.3575234 40.93,36.83 L40.93,39.67 L39.32,40.6 L39.32,34.6 L40.93,33.67 L40.93,34.78 C41.0907307,33.9526852 41.5866243,33.228753 42.3,32.78 C42.4160397,32.6975185 42.549467,32.6427791 42.69,32.62 L42.71,34.34 Z" id="Shape"></path>
                    <path d="M46,36.89 C45.4335778,37.3339213 44.6812964,37.4618091 44,37.23 C43.51,36.96 43.26,36.35 43.26,35.39 C43.2599239,34.416962 43.526214,33.4624678 44.03,32.63 C44.5479176,31.7986101 45.2666324,31.1108447 46.12,30.63 C46.98,30.14 47.66,30.02 48.12,30.3 C48.58,30.58 48.85,31.17 48.85,32.08 C48.8540044,33.0616649 48.5913218,34.0259867 48.09,34.87 C47.5832657,35.7155479 46.8623135,36.4123534 46,36.89 Z M46,32.02 C45.6083352,32.2548194 45.2977972,32.6037385 45.11,33.02 C44.8942109,33.4722753 44.7880088,33.9690269 44.8,34.47 C44.8,35.61 45.2,35.95 46.01,35.47 C46.8238561,34.9442563 47.2694491,34.0026988 47.16,33.04 C47.21,31.91 46.82,31.57 46.05,32 L46,32.02 Z" id="Shape"></path>
                    <path d="M58.13,29.74 L56.53,30.67 L56.53,27.27 C56.53,26.4 56.25,26.13 55.7,26.45 C55.4076946,26.6273749 55.1798969,26.893723 55.05,27.21 C54.8882558,27.5614043 54.8030401,27.9431707 54.8,28.33 L54.8,31.66 L53.2,32.59 L53.2,29.15 C53.2,28.31 52.93,28.05 52.38,28.36 C52.0923364,28.538354 51.8656571,28.799907 51.73,29.11 C51.5583642,29.4722265 51.4728027,29.8692319 51.48,30.27 L51.48,33.58 L49.88,34.51 L49.88,28.51 L51.48,27.58 L51.48,28.51 C51.6552509,28.0849894 51.8910226,27.6875458 52.18,27.33 C52.4567805,26.9807662 52.7958278,26.6857951 53.18,26.46 C53.91,26.04 54.42,26.12 54.69,26.7 C55.014373,25.8173572 55.6275545,25.0702625 56.43,24.58 C57.56,23.93 58.13,24.41 58.13,26.01 L58.13,29.74 Z" id="Shape"></path>
                    <path d="M68.35,20.22 C68.474082,22.4818524 67.3137266,24.6207742 65.35,25.75 C63.35,26.89 62.35,26.2233333 62.35,23.75 L62.35,19 L64,18 L64,22.84 C64,24.1733333 64.46,24.5833333 65.38,24.07 C66.315332,23.4885141 66.8388545,22.4259574 66.73,21.33 L66.73,16.42 L68.37,15.47 L68.35,20.22 Z" id="Shape"></path>
                    <path d="M71.35,21.42 L71.35,22.12 L69.75,23.04 L69.75,14.21 L71.35,13.29 L71.35,17.05 C71.6704267,16.214126 72.2619802,15.5098957 73.03,15.05 C73.7,14.66 74.22,14.63 74.58,14.95 C75.0108666,15.4642953 75.2099229,16.1338483 75.13,16.8 C75.1343787,17.7572714 74.9152305,18.7023481 74.49,19.56 C74.1262105,20.3408195 73.5377953,20.9953878 72.8,21.44 C72.16,21.79 71.67,21.79 71.35,21.42 Z M71.35,18.93 L71.35,19.54 C71.3135047,19.8347036 71.4215015,20.1289017 71.64,20.33 C71.8721679,20.4725288 72.1691154,20.4524648 72.38,20.28 C72.7624334,20.0455007 73.060175,19.6952165 73.23,19.28 C73.4403482,18.7909334 73.5426774,18.2622328 73.53,17.73 C73.5754302,17.3741014 73.4783834,17.014669 73.26,16.73 C73.07,16.56 72.81,16.57 72.47,16.73 C72.1217778,16.932785 71.8429326,17.2360292 71.67,17.6 C71.4326399,18.0034162 71.3050743,18.4619629 71.3,18.93 L71.35,18.93 Z" id="Shape"></path>
                    <path d="M81.14,16.46 L79.55,17.38 L79.55,16.47 C79.2528951,17.2925613 78.6943915,17.9950816 77.96,18.47 C76.76,19.1366667 76.16,18.6466667 76.16,17 L76.16,13.4 L77.75,12.48 L77.75,15.91 C77.75,16.76 78.05,17.01 78.63,16.67 C78.9246321,16.4926586 79.1636702,16.2362989 79.32,15.93 C79.492551,15.5926737 79.5817096,15.2188931 79.58,14.84 L79.58,11.43 L81.17,10.5 L81.14,16.46 Z" id="Shape"></path>
                    <path d="M87.48,12.8 L85.89,13.72 L85.89,10.4 C85.89,9.48 85.6,9.18 85.02,9.52 C84.7255393,9.703355 84.4896095,9.96704124 84.34,10.28 C84.1628618,10.6160324 84.0701936,10.9901373 84.07,11.37 L84.07,14.77 L82.47,15.69 L82.47,9.69 L84.07,8.76 L84.07,9.71 C84.3762297,8.85341467 84.9652858,8.12679454 85.74,7.65 C86.89,6.99 87.46,7.48 87.46,9.11 L87.48,12.8 Z" id="Shape"></path>
                    <path d="M91.83,10.21 C91.5239103,10.5490391 91.1620113,10.8331467 90.76,11.05 C89.63,11.7 89.07,11.35 89.07,10.05 L89.07,7.31 L88.23,7.8 L88.23,6.4 L89.07,5.92 L89.07,4.63 L90.67,3.18 L90.67,5 L91.83,4.33 L91.83,5.69 L90.67,6.36 L90.67,8.77 C90.67,9.39 90.88,9.58 91.31,9.33 C91.511848,9.20810033 91.6883838,9.04853909 91.83,8.86 L91.83,10.21 Z" id="Shape"></path>
                    <path d="M97.76,6.87 L96.16,7.79 L96.16,6.88 C95.8628951,7.70256126 95.3043915,8.4050816 94.57,8.88 C93.37,9.54666667 92.77,9.05666667 92.77,7.41 L92.77,3.81 L94.37,2.89 L94.37,6.32 C94.37,7.16 94.66,7.42 95.24,7.08 C95.5393795,6.90858204 95.7799107,6.650621 95.93,6.34 C96.102551,6.00267368 96.1917096,5.62889307 96.19,5.25 L96.19,1.83 L97.79,0.91 L97.76,6.87 Z" id="Shape"></path>
                </g>
                <g id="Group" transform="translate(157.000000, 80.000000)" fill="#000000">
                    <path d="M7.31,32.43 L5.52,33.43 L5,31.9 L2.41,33.39 L1.89,35.55 L0.12,36.55 L2.77,26.67 L4.71,25.55 L7.31,32.43 Z M4.63,30.67 L3.85,28.32 C3.78287369,28.0989661 3.74258418,27.8706589 3.73,27.64 C3.70874239,27.9097882 3.66526156,28.1773625 3.6,28.44 L2.81,31.73 L4.63,30.67 Z" id="Shape"></path>
                    <path d="M13.05,29.11 L11.45,30.04 L11.45,29.22 C11.1380832,30.0112944 10.5716409,30.6762484 9.84,31.11 C9.19,31.49 8.67,31.53 8.27,31.23 C7.80455236,30.7297341 7.58801357,30.0470864 7.68,29.37 C7.67464065,28.4146574 7.89748712,27.4718455 8.33,26.62 C8.70782453,25.8390739 9.30567119,25.1856136 10.05,24.74 C10.72,24.35 11.18,24.36 11.45,24.74 L11.45,21.19 L13.05,20.26 L13.05,29.11 Z M11.48,27.11 L11.48,26.66 C11.5164953,26.3652964 11.4084985,26.0710983 11.19,25.87 C10.9485353,25.7223606 10.6403435,25.742373 10.42,25.92 C10.043158,26.1555909 9.75214425,26.5062099 9.59,26.92 C9.38339874,27.3926411 9.28107619,27.9042539 9.29,28.42 C9.2501896,28.7786048 9.35451053,29.1383321 9.58,29.42 C9.77,29.59 10.04,29.58 10.38,29.42 C10.7306286,29.2051015 11.0064875,28.88734 11.17,28.51 C11.3834056,28.0782657 11.4897347,27.6014994 11.48,27.12 L11.48,27.11 Z" id="Shape"></path>
                    <path d="M19.51,25.39 L17.9,26.31 L17.9,25.49 C17.5913175,26.2858003 17.0243477,26.954895 16.29,27.39 C15.64,27.76 15.12,27.8 14.73,27.5 C14.2531694,27.0061202 14.0316534,26.3194208 14.13,25.64 C14.1238014,24.6833823 14.3503081,23.739604 14.79,22.89 C15.1670573,22.1117327 15.7608455,21.4589129 16.5,21.01 C17.17,20.63 17.64,20.63 17.9,21.01 L17.9,17.46 L19.51,16.54 L19.51,25.39 Z M17.93,23.39 L17.93,23 C17.957274,22.7034553 17.8509631,22.4101838 17.64,22.2 C17.3964671,22.055171 17.0881588,22.0791951 16.87,22.26 C16.4897296,22.4916461 16.1976354,22.8435668 16.04,23.26 C15.8323762,23.7287947 15.7299758,24.2373835 15.74,24.75 C15.7045096,25.1082202 15.8083661,25.4663459 16.03,25.75 C16.22,25.93 16.49,25.91 16.83,25.75 C17.1818615,25.5337227 17.4605874,25.2166719 17.63,24.84 C17.8449045,24.3877422 17.9478021,23.890404 17.93,23.39 Z" id="Shape"></path>
                    <path d="M30.43,19.08 L28.77,20.08 L25.77,16.56 C25.6394318,16.4082058 25.5191634,16.2478478 25.41,16.08 C25.41,16.36 25.41,16.8 25.41,17.41 L25.41,22 L23.86,22.89 L23.86,14.54 L25.63,13.54 L28.51,16.96 C28.6448909,17.1072125 28.76857,17.2643183 28.88,17.43 C28.856591,17.053697 28.856591,16.676303 28.88,16.3 L28.88,11.68 L30.43,10.79 L30.43,19.08 Z" id="Shape"></path>
                    <path d="M37,14.59 C36.9998341,15.6466737 36.7129777,16.6835043 36.17,17.59 C35.5726219,18.5591389 34.7357532,19.3581246 33.74,19.91 C33.242861,20.242079 32.6738732,20.4511649 32.08,20.52 L32.08,19 C32.6448692,19.033632 33.2065509,18.8940838 33.69,18.6 C34.2062071,18.3061561 34.6396615,17.8864622 34.95,17.38 C35.2476951,16.8996918 35.4036823,16.3450706 35.4,15.78 L35.4,15.31 C35.0909884,16.1189576 34.5208825,16.8016769 33.78,17.25 C33.12,17.63 32.59,17.67 32.2,17.36 C31.7459601,16.8695817 31.5334368,16.2026984 31.62,15.54 C31.6058141,14.5740944 31.8290152,13.6194808 32.27,12.76 C32.6436682,11.9794466 33.2382494,11.3257551 33.98,10.88 C34.61,10.52 35.08,10.52 35.4,10.88 L35.4,10.18 L37,9.26 L37,14.59 Z M35.42,13.32 L35.42,12.85 C35.4442358,12.5568302 35.3381584,12.2678606 35.13,12.06 C34.9051892,11.8899917 34.5948108,11.8899917 34.37,12.06 C33.9894289,12.2939588 33.6947577,12.6447579 33.53,13.06 C33.320249,13.5386947 33.2178514,14.0575093 33.23,14.58 C33.1879175,14.9387968 33.2924883,15.2993855 33.52,15.58 C33.71,15.76 33.97,15.75 34.31,15.58 C34.6627911,15.369307 34.9421217,15.05506 35.11,14.68 C35.3293742,14.2604038 35.442673,13.7934753 35.44,13.32 L35.42,13.32 Z" id="Shape"></path>
                    <path d="M39.15,7.14 C38.9570011,7.28144639 38.7080935,7.3223118 38.48,7.25 C38.2997189,7.13784461 38.2018922,6.93045204 38.23,6.72 C38.2337916,6.42535451 38.3204275,6.13772353 38.48,5.89 C38.6501569,5.62716204 38.8796482,5.40794648 39.15,5.25 C39.3408836,5.1046513 39.58861,5.05658499 39.82,5.12 C39.99,5.2 40.07,5.37 40.07,5.65 C40.0664717,5.94781074 39.9798899,6.23872545 39.82,6.49 C39.651065,6.75648284 39.4214786,6.97921596 39.15,7.14 Z M39.94,13.59 L38.34,14.51 L38.34,8.51 L39.94,7.58 L39.94,13.59 Z" id="Shape"></path>
                    <path d="M46.29,9.92 L44.69,10.84 L44.69,7.53 C44.69,6.61 44.4,6.31 43.83,6.64 C43.529648,6.82366597 43.2897496,7.09137862 43.14,7.41 C42.9707624,7.74496945 42.8817509,8.11470966 42.88,8.49 L42.88,11.89 L41.27,12.82 L41.27,6.82 L42.88,5.89 L42.88,6.83 C43.1839109,5.97470162 43.773815,5.25056777 44.55,4.78 C45.7,4.11 46.27,4.6 46.27,6.24 L46.29,9.92 Z" id="Shape"></path>
                    <path d="M52.63,0.3 L50.91,4.18 L52.62,6.27 L50.77,7.33 L50.02,6.16 C49.9394542,6.02732778 49.8660172,5.89046806 49.8,5.75 C49.7407424,5.9667096 49.6706543,6.18031119 49.59,6.39 L48.84,8.45 L47,9.53 L48.76,5.53 L47.11,3.53 L48.97,2.46 L49.71,3.7 C49.7966102,3.83814552 49.8670716,3.98577906 49.92,4.14 C49.9760902,3.90159343 50.0496215,3.66763027 50.14,3.44 L50.89,1.35 L52.63,0.3 Z" id="Shape"></path>
                </g>
                <g id="Group" transform="translate(37.000000, 46.000000)" fill="#000000">
                    <polygon id="Shape" points="2.29 10 0.65 9 0.65 0.65 2.29 1.59"></polygon>
                    <path d="M12,15.58 L10.4,14.66 L10.4,11.26 C10.47988,10.5578264 10.1592321,9.87017193 9.57,9.48 C9.38451453,9.31561111 9.10548547,9.31561111 8.92,9.48 C8.73610584,9.71543987 8.65013646,10.0127507 8.68,10.31 L8.68,13.64 L7.07,12.72 L7.07,9.3 C7.14864637,8.61659527 6.83525101,7.94724469 6.26,7.57 C5.98,7.41 5.76,7.4 5.6,7.57 C5.40016772,7.81306869 5.30969166,8.12792538 5.35,8.44 L5.35,11.75 L3.75,10.83 L3.75,4.83 L5.35,5.76 L5.35,6.69 C5.52249042,6.47561207 5.77569897,6.34177326 6.05,6.32 C6.40397449,6.29738887 6.75550868,6.3923031 7.05,6.59 C7.80197948,7.02628576 8.34633517,7.74728668 8.56,8.59 C8.95,8.08 9.56,8.04 10.3,8.48 C11.4661746,9.18908031 12.1260164,10.5010011 12,11.86 L12,15.58 Z" id="Shape"></path>
                    <path d="M17.61,18.83 L16.1,18 L16.1,17.15 C15.75,17.62 15.23,17.66 14.55,17.26 C14.0356027,16.9629093 13.61603,16.5259989 13.34,16 C13.0529757,15.5302216 12.9007527,14.9905217 12.9,14.44 C12.9,13.28 13.5,12.96 14.69,13.44 L16.11,14.04 C16.1173615,13.3993749 15.7554142,12.811697 15.18,12.53 C14.6600231,12.1909093 14.0345477,12.0523096 13.42,12.14 L13.42,10.8 C13.7314461,10.8070528 14.0393223,10.8679514 14.33,10.98 C14.7004019,11.0905444 15.0562602,11.2449735 15.39,11.44 C16.8043945,12.1790401 17.6680917,13.6652218 17.61,15.26 L17.61,18.83 Z M16.11,15.54 L16.11,15.13 L15.11,14.73 C14.59,14.51 14.33,14.62 14.33,15.09 C14.3308107,15.3108808 14.3969152,15.5265903 14.52,15.71 C14.649113,15.9172706 14.8278275,16.0891114 15.04,16.21 C15.34,16.38 15.58,16.41 15.77,16.28 C16.0033207,16.1084371 16.1318095,15.8287849 16.11,15.54 Z" id="Shape"></path>
                    <path d="M24,21.83 C24,22.94 23.72,23.64 23.16,23.92 C22.6,24.2 21.8,24.04 20.74,23.43 C20.1173166,23.088881 19.5534681,22.649957 19.07,22.13 L19.07,20.58 C19.5153587,21.1651308 20.0644834,21.6634106 20.69,22.05 C21.23,22.36 21.69,22.44 21.95,22.28 C22.21,22.12 22.4,21.77 22.4,21.21 L22.4,20.73 C22.03,21.19 21.49,21.21 20.78,20.8 C20.0939525,20.3966141 19.5438309,19.7977476 19.2,19.08 C18.8090231,18.3087982 18.610051,17.4545901 18.62,16.59 C18.5307015,15.860058 18.7686287,15.1279743 19.27,14.59 C19.7,14.25 20.27,14.28 20.98,14.69 C21.6215957,15.0737903 22.1202276,15.6566981 22.4,16.35 L22.4,15.66 L24,16.58 L24,21.83 Z M22.42,18.74 L22.42,18.27 C22.4138688,17.8725429 22.3145387,17.4820727 22.13,17.13 C21.9590548,16.7878528 21.6958008,16.5003517 21.37,16.3 C21.01,16.09 20.73,16.09 20.53,16.3 C20.2884132,16.6393232 20.1814974,17.0562949 20.23,17.47 C20.2203832,17.9364275 20.3196798,18.3986701 20.52,18.82 C20.6869271,19.1899536 20.9624608,19.500365 21.31,19.71 C21.64,19.9 21.91,19.91 22.11,19.71 C22.3497874,19.4473125 22.4630011,19.0930632 22.42,18.74 Z" id="Shape"></path>
                    <path d="M30,23.53 L26.61,21.58 C26.6743054,22.4911811 27.219246,23.2990649 28.04,23.7 C28.4815609,23.9965295 29.0094201,24.137292 29.54,24.1 L29.54,25.43 C28.8709374,25.3862906 28.2255407,25.1654062 27.67,24.79 C26.8393585,24.341701 26.1475956,23.6741497 25.67,22.86 C25.202744,22.0629252 24.9607953,21.1538895 24.97,20.23 C24.97,19.2433333 25.22,18.6033333 25.72,18.31 C26.3259732,18.028032 27.0382894,18.1050391 27.57,18.51 C28.3116005,18.9315309 28.9210625,19.5513815 29.33,20.3 C29.7447173,21.053062 29.9582576,21.9003345 29.95,22.76 L30,23.53 Z M28.51,21.53 C28.5775922,20.8047981 28.2290247,20.1037902 27.61,19.72 C27.408328,19.5808929 27.141672,19.5808929 26.94,19.72 C26.7318845,19.9025865 26.6087783,20.163282 26.6,20.44 L28.51,21.53 Z" id="Shape"></path>
                </g>
                <g id="Group" transform="translate(161.000000, 57.000000)" fill="#000000">
                    <path d="M7.51,25.82 L5.73,26.82 L5.21,25.26 L2.62,26.76 L2.11,28.91 L0.33,29.91 L2.98,20.03 L4.98,18.91 L7.51,25.82 Z M4.83,24.07 L4.05,21.71 C3.9809533,21.4894298 3.9406211,21.2608806 3.93,21.03 C3.91034126,21.2999783 3.86683837,21.5676884 3.8,21.83 L3.01,25.12 L4.83,24.07 Z" id="Shape"></path>
                    <path d="M13.26,22.51 L11.65,23.43 L11.65,22.61 C11.3413175,23.4058003 10.7743477,24.074895 10.04,24.51 C9.39,24.88 8.87,24.92 8.48,24.62 C8.00316937,24.1261202 7.78165345,23.4394208 7.88,22.76 C7.87380136,21.8033823 8.10030814,20.859604 8.54,20.01 C8.91705728,19.2317327 9.5108455,18.5789129 10.25,18.13 C10.92,17.75 11.39,17.75 11.65,18.13 L11.65,14.6 L13.26,13.68 L13.26,22.51 Z M11.68,20.51 L11.68,20.07 C11.7198769,19.7719653 11.6115932,19.4732518 11.39,19.27 C11.1464671,19.125171 10.8381588,19.1491951 10.62,19.33 C10.2397296,19.5616461 9.94763536,19.9135668 9.79,20.33 C9.5823762,20.7987947 9.47997577,21.3073835 9.49,21.82 C9.45450964,22.1782202 9.55836609,22.5363459 9.78,22.82 C9.97,23 10.24,22.98 10.58,22.82 C10.9318615,22.6037227 11.2105874,22.2866719 11.38,21.91 C11.5871734,21.4728983 11.6898775,20.9936126 11.68,20.51 Z" id="Shape"></path>
                    <path d="M19.71,18.78 L18.11,19.7 L18.11,18.88 C17.7916625,19.667422 17.226797,20.330525 16.5,20.77 C16.0542166,21.1367821 15.4263481,21.1847721 14.93,20.89 C14.4607275,20.3919744 14.2435967,19.7074604 14.34,19.03 C14.3282845,18.0739452 14.5514847,17.1296366 14.99,16.28 C15.3678245,15.4990739 15.9656712,14.8456136 16.71,14.4 C17.38,14.01 17.84,14.02 18.11,14.4 L18.11,10.86 L19.71,9.93 L19.71,18.78 Z M18.14,16.78 L18.14,16.33 C18.175662,16.0304608 18.0638259,15.7322313 17.84,15.53 C17.5988695,15.389875 17.2961554,15.4137735 17.08,15.59 C16.7003691,15.8250472 16.4059921,16.1754962 16.24,16.59 C16.0332998,17.0590879 15.9309409,17.5674707 15.94,18.08 C15.9065651,18.4380281 16.0102054,18.7954084 16.23,19.08 C16.43,19.25 16.69,19.24 17.04,19.08 C17.3906286,18.8651015 17.6664875,18.54734 17.83,18.17 C18.0386377,17.7401543 18.1447506,17.2677808 18.14,16.79 L18.14,16.78 Z" id="Shape"></path>
                    <path d="M30.48,12.56 L28.7,13.56 L28.18,12 L25.59,13.5 L25.08,15.65 L23.3,16.65 L25.95,6.78 L27.95,5.65 L30.48,12.56 Z M27.8,10.8 L27.02,8.45 C26.9518959,8.22920113 26.911585,8.00077284 26.9,7.77 C26.8795381,8.03988339 26.8360464,8.30752409 26.77,8.57 L25.98,11.86 L27.8,10.8 Z" id="Shape"></path>
                    <path d="M32.86,10.5 L32.86,13.93 L31.25,14.86 L31.25,6.15 L32.86,5.23 L32.86,6.12 C33.1778506,5.28563338 33.76572,4.58159811 34.53,4.12 C35.2,3.73 35.72,3.69 36.09,4.01 C36.5208666,4.52429531 36.7199229,5.19384833 36.64,5.86 C36.6443787,6.81727145 36.4252305,7.76234809 36,8.62 C35.629451,9.40524454 35.0343656,10.0629705 34.29,10.51 C33.66,10.87 33.19,10.87 32.86,10.5 Z M32.81,8.08 L32.81,8.55 C32.7668419,8.86324794 32.8743821,9.1784521 33.1,9.4 C33.29,9.55 33.53,9.53 33.84,9.4 C34.2247801,9.16825207 34.5232685,8.81708928 34.69,8.4 C34.8994496,7.91065718 35.0017405,7.38215381 34.99,6.85 C34.99,5.8 34.64,5.48 33.93,5.85 C33.5804271,6.06308036 33.2993104,6.37196163 33.12,6.74 C32.9142892,7.15663255 32.8081671,7.61535361 32.81,8.08 Z" id="Shape"></path>
                    <path d="M39.32,6.76 L39.32,10.2 L37.72,11.13 L37.72,2.42 L39.32,1.5 L39.32,2.39 C39.6456536,1.56022995 40.2316349,0.858455917 40.99,0.39 C41.66,0.01 42.18,-0.03 42.55,0.29 C42.9836313,0.798859835 43.1832397,1.46664066 43.1,2.13 C43.1116571,3.09127172 42.8921626,4.04127147 42.46,4.9 C42.089451,5.68524454 41.4943656,6.34297051 40.75,6.79 C40.13,7.14 39.65,7.13 39.32,6.76 Z M39.32,4.34 L39.32,4.82 C39.2832885,5.1307739 39.3857732,5.44188811 39.6,5.67 C39.79,5.82 40.04,5.8 40.35,5.67 C40.7310779,5.43392142 41.028398,5.08413304 41.2,4.67 C41.4094496,4.18065718 41.5117405,3.65215381 41.5,3.12 C41.5,2.12 41.14,1.75 40.43,2.12 C40.0833976,2.33368466 39.8056642,2.64266307 39.63,3.01 C39.4049706,3.41749924 39.284702,3.87451985 39.28,4.34 L39.32,4.34 Z" id="Shape"></path>
                </g>
                <g id="Group" fill="#000000">
                    <path d="M6.09,10.32 C5.34445911,10.229501 4.62953067,9.96952706 4,9.56 C1.78688122,8.26811255 0.421556585,5.90256402 0.41,3.34 C0.41,2.01 0.77,1.13 1.49,0.72 C2.21,0.31 3.14,0.42 4.29,1.09 C4.94451029,1.45367701 5.54666619,1.90445293 6.08,2.43 L6.08,4.24 C5.62430769,3.65242243 5.06095146,3.15694045 4.42,2.78 C3.94861807,2.40841803 3.31190036,2.32403375 2.76,2.56 C2.28302037,2.9665606 2.04878268,3.58993509 2.14,4.21 C2.13491412,5.00522449 2.3383394,5.78789464 2.73,6.48 C3.10146084,7.16407245 3.65530652,7.73176427 4.33,8.12 C4.84979617,8.45681661 5.46110278,8.62448928 6.08,8.6 L6.09,10.32 Z" id="Shape"></path>
                    <path d="M9.62,12.79 C8.78952176,12.3102032 8.09979682,11.6204782 7.62,10.79 C7.12716499,9.97579221 6.86770697,9.04174335 6.87,8.09 C6.87,7.09 7.13,6.48 7.65,6.22 C8.36160703,5.98809815 9.14201928,6.12692148 9.73,6.59 C10.5593336,7.07128656 11.2487134,7.76066637 11.73,8.59 C12.2084912,9.38425382 12.4641189,10.2927684 12.47,11.22 C12.47,12.22 12.21,12.85 11.71,13.13 C11.21,13.41 10.5,13.3 9.62,12.79 Z M9.62,7.97 C9.24,7.75 8.95,7.73 8.74,7.91 C8.50052952,8.21926375 8.39922953,8.61361014 8.46,9 C8.37323356,9.96787597 8.84194801,10.9014312 9.67,11.41 C10.44,11.86 10.82,11.49 10.82,10.31 C10.8992604,9.38298055 10.4508723,8.49006968 9.66,8 L9.62,7.97 Z" id="Shape"></path>
                    <path d="M18.51,17.78 L16.91,16.86 L16.91,13.54 C16.9945624,12.802275 16.66344,12.078426 16.05,11.66 C15.8439729,11.5114904 15.5660271,11.5114904 15.36,11.66 C15.1545559,11.8644667 15.054929,12.152278 15.09,12.44 L15.09,15.84 L13.49,14.91 L13.49,8.91 L15.09,9.84 L15.09,10.78 C15.48,10.28 16.03,10.23 16.76,10.66 C17.9490496,11.3844694 18.620642,12.7237722 18.49,14.11 L18.51,17.78 Z" id="Shape"></path>
                    <path d="M22.86,20.22 C22.474862,20.1809339 22.1063177,20.0431604 21.79,19.82 C20.6923092,19.2314153 20.0308473,18.0641294 20.09,16.82 L20.09,14.09 L19.25,13.6 L19.25,12.25 L20.09,12.73 L20.09,11.45 L21.69,11.85 L21.69,13.66 L22.86,14.33 L22.86,15.69 L21.69,15 L21.69,17.41 C21.6408893,17.9345647 21.8925749,18.441808 22.34,18.72 C22.4982741,18.8098451 22.6780664,18.8547932 22.86,18.85 L22.86,20.22 Z" id="Shape"></path>
                    <path d="M28.2,23.37 L26.68,22.5 L26.68,21.64 C26.33,22.11 25.81,22.14 25.13,21.75 C24.6378469,21.4663471 24.2277959,21.059742 23.94,20.57 C23.6592802,20.0980059 23.5107534,19.5591643 23.51,19.01 C23.51,17.85 24.1,17.53 25.3,18.01 L26.71,18.61 C26.7182618,17.9693549 26.3614177,17.3797865 25.79,17.09 C25.2554693,16.7600909 24.6205122,16.63239 24,16.73 L24,15.34 C24.3135389,15.3569753 24.6231829,15.4175578 24.92,15.52 C25.2950618,15.6436991 25.6568521,15.8044948 26,16 C27.4198683,16.7396522 28.2876552,18.2300665 28.23,19.83 L28.2,23.37 Z M26.69,20.08 L26.69,19.68 L25.75,19.27 C25.22,19.05 24.96,19.17 24.96,19.63 C24.96735,19.8529692 25.0328477,20.0701457 25.15,20.26 C25.279113,20.4672706 25.4578275,20.6391114 25.67,20.76 C25.8788912,20.925578 26.1668765,20.9492481 26.4,20.82 C26.6161622,20.6386594 26.7253962,20.3599243 26.69,20.08 Z" id="Shape"></path>
                    <path d="M30.26,17.66 C29.9885439,17.4983008 29.7616992,17.2714561 29.6,17 C29.4343369,16.7545649 29.34397,16.4660859 29.34,16.17 C29.34,15.9 29.42,15.72 29.6,15.65 C29.8262168,15.5769953 30.0739587,15.6220393 30.26,15.77 C30.536045,15.9247336 30.7669744,16.1487695 30.93,16.42 C31.0938177,16.6625952 31.1841004,16.9473332 31.19,17.24 C31.2203419,17.45599 31.1177689,17.6690263 30.93,17.78 C30.7004314,17.851181 30.4505928,17.8064338 30.26,17.66 Z M31.05,25.02 L29.45,24.1 L29.45,18.1 L31.05,19.02 L31.05,25.02 Z" id="Shape"></path>
                    <path d="M37.41,28.69 L35.81,27.77 L35.81,24.45 C35.8924186,23.7102669 35.5572331,22.9859581 34.94,22.57 C34.7381525,22.4199909 34.4618475,22.4199909 34.26,22.57 C34.0545559,22.7744667 33.954929,23.062278 33.99,23.35 L33.99,26.75 L32.39,25.82 L32.39,19.82 L33.99,20.75 L33.99,21.69 C34.37,21.19 34.93,21.14 35.66,21.57 C36.8498337,22.285934 37.5286737,23.6164602 37.41,25 L37.41,28.69 Z" id="Shape"></path>
                    <path d="M43.37,29.68 L39.98,27.68 C40.0403189,28.589701 40.58172,29.39799 41.4,29.8 C41.84499,30.0980382 42.3753828,30.2420522 42.91,30.21 L42.91,31.53 C42.2399679,31.4911827 41.5933094,31.2698665 41.04,30.89 C39.3910595,29.9671292 38.3754839,28.2195726 38.39,26.33 C38.39,25.3366667 38.64,24.6966667 39.14,24.41 C39.7459732,24.128032 40.4582894,24.2050391 40.99,24.61 C41.7296744,25.0340317 42.3385295,25.653265 42.75,26.4 C43.1601671,27.1548465 43.3734051,28.0009199 43.37,28.86 L43.37,29.68 Z M41.88,27.68 C41.9484776,26.9573395 41.599215,26.2588143 40.98,25.88 C40.7802381,25.7348893 40.5097619,25.7348893 40.31,25.88 C40.098253,26.0555283 39.9740041,26.3149892 39.97,26.59 L41.88,27.68 Z" id="Shape"></path>
                    <path d="M47.78,30.38 C47.5892872,30.1508208 47.3589644,29.9577562 47.1,29.81 C46.76,29.61 46.48,29.6 46.29,29.81 C46.0629026,30.0911844 45.9551853,30.450242 45.99,30.81 L45.99,33.66 L44.39,32.73 L44.39,26.73 L45.99,27.66 L45.99,28.76 C46.25,28.1 46.7,27.96 47.36,28.34 C47.5053576,28.422874 47.6397408,28.5236614 47.76,28.64 L47.78,30.38 Z" id="Shape"></path>
                    <polygon id="Shape" points="55.76 32.47 53.19 31 53.19 33 55.55 34.37 55.55 35.89 53.19 34.53 53.19 37.77 51.55 36.83 51.55 28.48 55.76 30.91"></polygon>
                    <path d="M57.51,33.39 C57.2339976,33.2342137 57.0057863,33.0060024 56.85,32.73 C56.6861823,32.4874048 56.5958996,32.2026668 56.59,31.91 C56.59,31.63 56.67,31.45 56.85,31.38 C57.0765371,31.3122597 57.3218059,31.356854 57.51,31.5 C57.7841688,31.6572377 58.0145282,31.8807208 58.18,32.15 C58.3422984,32.3933273 58.4324369,32.6776102 58.44,32.97 C58.4703419,33.18599 58.3677689,33.3990263 58.18,33.51 C57.9505432,33.5829382 57.6998781,33.5380429 57.51,33.39 Z M58.3,40.76 L56.7,39.83 L56.7,33.83 L58.3,34.75 L58.3,40.76 Z" id="Shape"></path>
                    <polygon id="Shape" points="61.23 42.45 59.63 41.52 59.63 32.69 61.23 33.62"></polygon>
                    <path d="M67.27,43.47 L63.88,41.47 C63.9403189,42.379701 64.48172,43.18799 65.3,43.59 C65.7452798,43.8865817 66.2762889,44.0272463 66.81,43.99 L66.81,45.32 C66.1406505,45.2777287 65.4948863,45.0567185 64.94,44.68 C64.1123494,44.227621 63.4215665,43.5610155 62.94,42.75 C62.4803664,41.9502292 62.2421927,41.0424074 62.25,40.12 C62.25,39.1333333 62.5,38.4933333 63,38.2 C63.6059732,37.918032 64.3182894,37.9950391 64.85,38.4 C65.5888952,38.8217312 66.1950725,39.441764 66.6,40.19 C67.0182005,40.9421206 67.2351989,41.7894479 67.23,42.65 L67.27,43.47 Z M65.78,41.47 C65.8464546,40.7452313 65.4930487,40.0461865 64.87,39.67 C64.6723755,39.5296773 64.4076245,39.5296773 64.21,39.67 C63.9981646,39.8507925 63.8713181,40.1117338 63.86,40.39 L65.78,41.47 Z" id="Shape"></path>
                    <path d="M70.91,47.71 L70.91,45.85 C71.1963969,46.283851 71.5319545,46.6831646 71.91,47.04 C72.2093478,47.3523337 72.5450792,47.6276334 72.91,47.86 C73.081421,47.9607353 73.2622816,48.0444671 73.45,48.11 C73.5787401,48.1355957 73.7112599,48.1355957 73.84,48.11 C73.9318117,48.1018148 74.0156347,48.0544366 74.07,47.98 C74.1260164,47.8902282 74.1538789,47.7857439 74.15,47.68 C74.1481566,47.5052169 74.1035223,47.3335466 74.02,47.18 C73.9299709,46.9854006 73.8193387,46.8010137 73.69,46.63 C73.55,46.44 73.38,46.24 73.19,46.03 L72.57,45.36 C72.0661339,44.8470167 71.6384463,44.2644186 71.3,43.63 C71.030353,43.117798 70.8863919,42.5488088 70.88,41.97 C70.851174,41.6208854 70.9315464,41.2714403 71.11,40.97 C71.2488848,40.7513114 71.4743945,40.6021841 71.73,40.56 C72.0352516,40.5101786 72.3481231,40.5376838 72.64,40.64 C73.0228579,40.7558742 73.3892031,40.9205615 73.73,41.13 C74.0807165,41.3224569 74.4151577,41.5431882 74.73,41.79 C75.0181916,42.005071 75.2890262,42.2424693 75.54,42.5 L75.54,44.24 C75.4182728,44.0675262 75.2846123,43.9037921 75.14,43.75 C75.000927,43.5959313 74.8540687,43.449073 74.7,43.31 C74.5575023,43.1778151 74.4072346,43.0542617 74.25,42.94 C74.1,42.83 73.95,42.74 73.82,42.66 C73.6605321,42.561845 73.4891339,42.4845477 73.31,42.43 C73.1819402,42.3982366 73.0480598,42.3982366 72.92,42.43 C72.8272349,42.4365278 72.7408813,42.4797046 72.68,42.55 C72.6150441,42.6359966 72.5831083,42.7424492 72.59,42.85 C72.5957444,42.9983804 72.6296818,43.1443111 72.69,43.28 C72.7652843,43.4446728 72.855671,43.6020125 72.96,43.75 C73.08,43.92 73.23,44.1 73.39,44.29 L73.97,44.91 C74.2566667,45.2233333 74.5166667,45.5233333 74.75,45.81 C74.9702542,46.088999 75.1707426,46.3830486 75.35,46.69 C75.5137,46.9729808 75.6413578,47.2753281 75.73,47.59 C75.8239991,47.9147694 75.867838,48.2519918 75.86,48.59 C75.8775435,48.9382118 75.7979104,49.2844426 75.63,49.59 C75.4918676,49.8139908 75.2607404,49.9644069 75,50 C74.68895,50.0381792 74.3732807,50.0004361 74.08,49.89 C73.6952422,49.7541546 73.3236984,49.5834452 72.97,49.38 C72.57191,49.1524921 72.1938822,48.8915525 71.84,48.6 C71.4976653,48.3390775 71.185711,48.0405406 70.91,47.71 Z" id="Shape"></path>
                    <path d="M81.71,48.31 L79.6,53.53 C79.09,54.78 78.33,55.12 77.3,54.53 C76.9392688,54.3345029 76.6034988,54.0961062 76.3,53.82 L76.3,52.35 C76.492262,52.5988534 76.7297489,52.8091988 77,52.97 C77.41,53.21 77.7,53.15 77.86,52.8 L78.14,52.22 L76.03,45.05 L77.8,46.05 L78.8,50.24 C78.8667415,50.5297855 78.9135181,50.8238095 78.94,51.12 C78.9787502,50.8859524 79.0355872,50.6552612 79.11,50.43 L80.11,47.36 L81.71,48.31 Z" id="Shape"></path>
                    <path d="M82,54.3 L82,52.81 C82.23717,53.1165731 82.497966,53.4041175 82.78,53.67 C83.0107061,53.8841315 83.2619155,54.0750507 83.53,54.24 C83.7330814,54.3698958 83.9614671,54.4551143 84.2,54.49 C84.36,54.49 84.45,54.41 84.45,54.23 C84.4466985,54.1007353 84.4049176,53.9753927 84.33,53.87 C84.2471789,53.7390528 84.1535171,53.6152854 84.05,53.5 C83.93,53.37 83.8,53.25 83.66,53.12 C83.52,52.99 83.39,52.87 83.26,52.73 C83.13,52.59 82.88,52.32 82.72,52.13 C82.5675292,51.9470108 82.4335429,51.749381 82.32,51.54 C82.2194575,51.3453603 82.1390409,51.1409682 82.08,50.93 C82.022148,50.7080986 81.9952268,50.4792691 82,50.25 C81.9772455,49.9857515 82.0441784,49.7215426 82.19,49.5 C82.3060203,49.3330176 82.4880648,49.2237909 82.69,49.2 C82.936247,49.1700736 83.1860789,49.1974525 83.42,49.28 C83.7167208,49.3743019 84.0018568,49.5017745 84.27,49.66 C84.5,49.8 84.73,49.95 84.97,50.13 C85.21,50.31 85.44,50.5 85.67,50.71 L85.67,52.13 C85.4741177,51.8843398 85.2565781,51.6567598 85.02,51.45 C84.807205,51.2607957 84.5760597,51.0932991 84.33,50.95 C84.2364044,50.8972225 84.1395415,50.8504611 84.04,50.81 L83.79,50.76 C83.7276894,50.7571487 83.6667166,50.7786685 83.62,50.82 C83.5781878,50.8742594 83.5569324,50.9415681 83.56,51.01 C83.561392,51.1258717 83.5923721,51.2394654 83.65,51.34 C83.7232438,51.4579547 83.803383,51.5714852 83.89,51.68 L84.22,52.02 L84.58,52.36 C84.79,52.57 84.98,52.78 85.16,52.98 C85.3251804,53.1693165 85.4724759,53.3735216 85.6,53.59 C85.7208416,53.7915317 85.8181454,54.0062711 85.89,54.23 C85.951256,54.4616472 85.9815199,54.7003953 85.98,54.94 C86.0042392,55.2183452 85.9337648,55.4967191 85.78,55.73 C85.6512848,55.8976877 85.46002,56.0059508 85.25,56.03 C84.9923193,56.0575559 84.731782,56.0232747 84.49,55.93 C84.1724019,55.8274998 83.8671917,55.6899875 83.58,55.52 C83.0025004,55.1838026 82.4713481,54.7736723 82,54.3 Z" id="Shape"></path>
                    <path d="M90.07,59 C89.6817016,58.961285 89.3098381,58.8235578 88.99,58.6 C87.8944047,58.0104645 87.2364599,56.8425151 87.3,55.6 L87.3,52.87 L86.46,52.39 L86.46,51.03 L87.3,51.51 L87.3,50.23 L88.9,50.63 L88.9,52.44 L90.07,53.11 L90.07,54.47 L88.9,53.79 L88.9,56.2 C88.8464256,56.7229196 89.0945813,57.2308633 89.54,57.51 C89.6996921,57.6053573 89.8843084,57.6506405 90.07,57.64 L90.07,59 Z" id="Shape"></path>
                    <path d="M95.63,59.85 L92.24,57.85 C92.2981699,58.7632842 92.8449977,59.5739659 93.67,59.97 C94.1109625,60.2686532 94.6384325,60.4128283 95.17,60.38 L95.17,61.71 C94.5019618,61.6612216 93.857837,61.4407725 93.3,61.07 C92.4717601,60.6184231 91.7807859,59.9516329 91.3,59.14 C90.832744,58.3429252 90.5907953,57.4338895 90.6,56.51 C90.6,55.5166667 90.85,54.8766667 91.35,54.59 C91.9541563,54.3051896 92.6663467,54.3783335 93.2,54.78 C93.9396744,55.2040317 94.5485295,55.823265 94.96,56.57 C95.3713942,57.3279762 95.5846575,58.1775898 95.58,59.04 L95.63,59.85 Z M94.14,57.85 C94.2060557,57.1277937 93.8573985,56.4304792 93.24,56.05 C93.0402381,55.9048893 92.7697619,55.9048893 92.57,56.05 C92.3618845,56.2325865 92.2387783,56.493282 92.23,56.77 L94.14,57.85 Z" id="Shape"></path>
                    <path d="M104.9,67.66 L103.3,66.74 L103.3,63.34 C103.384671,62.6370539 103.062903,61.9469985 102.47,61.56 C102.289617,61.3923177 102.010383,61.3923177 101.83,61.56 C101.639205,61.788278 101.549013,62.0841055 101.58,62.38 L101.58,65.72 L99.97,64.79 L99.97,61.36 C100.045506,60.6743479 99.7332763,60.0036328 99.16,59.62 C98.88,59.47 98.66,59.46 98.5,59.62 C98.3053155,59.865745 98.2154749,60.1783902 98.25,60.49 L98.25,63.8 L96.65,62.88 L96.65,56.88 L98.25,57.81 L98.25,58.74 C98.4224904,58.5256121 98.675699,58.3917733 98.95,58.37 C99.3024371,58.3487763 99.6525327,58.4398012 99.95,58.63 C100.698208,59.0705295 101.241221,59.7897515 101.46,60.63 C101.86,60.11 102.46,60.08 103.21,60.52 C104.407504,61.2477817 105.068483,62.6088509 104.9,64 L104.9,67.66 Z" id="Shape"></path>
                </g>
                <g id="Group" transform="translate(159.000000, 28.000000)" fill="#000000">
                    <path d="M10.86,18.78 L8.94,28.24 L7.12,29.24 L5.91,24.58 C5.84349823,24.2942763 5.80333014,24.0030577 5.79,23.71 C5.76069055,24.0455338 5.71396084,24.3793174 5.65,24.71 L4.41,30.78 L2.51,32 L0.6,24.76 L2.39,23.76 L3.39,28.76 C3.4392061,29.0577679 3.46926778,29.3583847 3.48,29.66 C3.50735633,29.3038308 3.55745854,28.9497751 3.63,28.6 L4.95,22.3 L6.7,21.3 L7.9,26.22 C7.95514801,26.4939019 7.99189685,26.7711886 8.01,27.05 C8.02871353,26.7149358 8.06543322,26.3811204 8.12,26.05 L9.12,19.9 L10.86,18.78 Z" id="Shape"></path>
                    <path d="M14.74,20.59 C14.5011899,20.5945496 14.2686827,20.667425 14.07,20.8 C13.708216,21.0101021 13.4214272,21.3283677 13.25,21.71 C13.0481517,22.1343636 12.9488167,22.6002105 12.96,23.07 L12.96,25.92 L11.35,26.85 L11.35,20.85 L13,20 L13,21.11 C13.1640734,20.2840878 13.6591398,19.5613632 14.37,19.11 C14.4883502,19.0317973 14.6208272,18.9774478 14.76,18.95 L14.74,20.59 Z" id="Shape"></path>
                    <path d="M16.3,17.08 C16.1145059,17.2298549 15.864069,17.2715944 15.64,17.19 C15.46,17.11 15.38,16.93 15.38,16.66 C15.3829624,16.3668559 15.4735067,16.0812928 15.64,15.84 C15.8020042,15.5714095 16.0289676,15.3478849 16.3,15.19 C16.4919373,15.0466364 16.7402361,15.002165 16.97,15.07 C17.14,15.15 17.22,15.32 17.22,15.6 C17.2162084,15.8946455 17.1295725,16.1822765 16.97,16.43 C16.807341,16.7015213 16.5763246,16.9256417 16.3,17.08 Z M17.09,23.53 L15.49,24.46 L15.49,18.46 L17.09,17.53 L17.09,23.53 Z" id="Shape"></path>
                    <path d="M21.51,20.91 C21.2024684,21.2474909 20.8408496,21.5313785 20.44,21.75 C19.31,22.4 18.74,22.05 18.74,20.75 L18.74,18 L17.9,18.48 L17.9,17.13 L18.74,16.64 L18.74,15.35 L20.34,13.91 L20.34,15.72 L21.51,15.04 L21.51,16.4 L20.34,17.07 L20.34,19.48 C20.34,20.1 20.55,20.29 20.98,20.04 C21.1854412,19.9191404 21.365443,19.7595162 21.51,19.57 L21.51,20.91 Z" id="Shape"></path>
                    <path d="M27.07,15.32 L23.68,17.32 C23.74,18.16 24.21,18.32 25.11,17.8 C25.6933677,17.4564758 26.203126,17.0010918 26.61,16.46 L26.61,17.79 C26.0812399,18.4030398 25.4481402,18.917645 24.74,19.31 C23.9,19.8033333 23.2333333,19.9133333 22.74,19.64 C22.28,19.37 22.04,18.76 22.04,17.81 C22.0359956,16.8283351 22.2986782,15.8640133 22.8,15.02 C23.2273137,14.2219643 23.863264,13.5549077 24.64,13.09 C25.4,12.65 25.98,12.57 26.4,12.85 C26.8781684,13.2941119 27.1095894,13.9435836 27.02,14.59 L27.07,15.32 Z M25.59,15.04 C25.59,14.19 25.28,13.94 24.68,14.28 C24.392202,14.4654136 24.1632488,14.7290567 24.02,15.04 C23.8305304,15.3829797 23.7115323,15.7603734 23.67,16.15 L25.59,15.04 Z" id="Shape"></path>
                    <path d="M32.4,14.7 L30.88,15.57 L30.88,14.72 C30.5988246,15.5110701 30.0507205,16.1794034 29.33,16.61 C28.9955338,16.8800289 28.5443628,16.955856 28.14,16.81 C27.85,16.65 27.71,16.29 27.71,15.75 C27.7742787,14.5156513 28.4442604,13.392777 29.5,12.75 L30.91,11.75 C30.91,11.1 30.6,10.95 29.99,11.3 C29.2941148,11.7283381 28.6920461,12.2929901 28.22,12.96 L28.22,11.57 C28.5053399,11.2551524 28.8127877,10.9610719 29.14,10.69 C29.473819,10.4105004 29.8281478,10.1564534 30.2,9.93 C31.68,9.07666667 32.42,9.49666667 32.42,11.19 L32.4,14.7 Z M30.89,13.15 L30.89,12.74 L29.95,13.43 C29.4982079,13.6957579 29.2064203,14.1671072 29.17,14.69 C29.17,14.9 29.23,15.03 29.36,15.09 C29.5346026,15.143417 29.7242276,15.1099538 29.87,15 C30.1845935,14.8096929 30.4406387,14.5363473 30.61,14.21 C30.7929436,13.8866279 30.8893835,13.521534 30.89,13.15 Z" id="Shape"></path>
                    <path d="M35.29,12.33 L35.29,13 L33.69,13.92 L33.69,5.1 L35.29,4.17 L35.29,8 C35.6239873,7.16917417 36.2165434,6.46792427 36.98,6 C37.65,5.62 38.17,5.58 38.53,5.9 C38.9551647,6.4170063 39.1502804,7.08545838 39.07,7.75 C39.0800958,8.70675548 38.864245,9.65238753 38.44,10.51 C38.0756178,11.2935846 37.4830834,11.9488579 36.74,12.39 C36.1,12.7 35.62,12.7 35.29,12.33 Z M35.29,9.85 L35.29,10.46 C35.2631495,10.7516297 35.3654886,11.040372 35.57,11.25 C35.7965809,11.4030331 36.0934191,11.4030331 36.32,11.25 C36.696915,11.0118282 36.9904615,10.662368 37.16,10.25 C37.3778549,9.76298803 37.4837845,9.23333987 37.47,8.7 C37.5160324,8.34249613 37.4149866,7.98161856 37.19,7.7 C37.01,7.53 36.74,7.54 36.4,7.7 C36.0558945,7.912277 35.7786187,8.21728045 35.6,8.58 C35.3766605,8.96644249 35.2561555,9.40370365 35.25,9.85 L35.29,9.85 Z" id="Shape"></path>
                    <polygon id="Shape" points="41.74 9.3 40.14 10.23 40.14 1.4 41.74 0.47"></polygon>
                    <path d="M47.78,3.36 L44.39,5.36 C44.44,6.19 44.92,6.36 45.81,5.83 C46.3960433,5.4904815 46.9092084,5.03848844 47.32,4.5 L47.32,5.83 C46.7892224,6.44095875 46.1565152,6.95524475 45.45,7.35 C44.61,7.83 43.96,7.94 43.45,7.68 C42.94,7.42 42.76,6.8 42.76,5.85 C42.7573977,4.86984603 43.0162975,3.90673871 43.51,3.06 C43.942641,2.25993544 44.5813733,1.5901297 45.36,1.12 C46.11,0.69 46.7,0.61 47.11,0.88 C47.5949675,1.3242627 47.8305157,1.97856336 47.74,2.63 L47.78,3.36 Z M46.29,3.09 C46.29,2.24 45.99,1.98 45.38,2.33 C45.0970352,2.51664859 44.8691573,2.77560081 44.72,3.08 C44.5363454,3.42900534 44.417746,3.80852321 44.37,4.2 L46.29,3.09 Z" id="Shape"></path>
                </g>
            </g>
        </g>
    </g>
</svg>