<svg xmlns="http://www.w3.org/2000/svg" viewBox="0 0 403.5 190.75">
  <title>4-docker-container-lifecycle</title>
  <g id="Shapes">
    <rect width="403.5" height="190.75" fill="#fff"/>
    <line x1="201.85" y1="124.22" x2="201.85" y2="106.5" fill="none" stroke="#3c3c41" stroke-miterlimit="10"/>
    <g>
      <rect y="82.55" width="65" height="26.18" fill="#fff"/>
      <rect y="82.55" width="65" height="26.18" fill="#0078d4" opacity="0.4"/>
    </g>
    <g>
      <rect x="338.5" y="82.55" width="65" height="26.18" fill="#fff"/>
      <rect x="338.5" y="82.55" width="65" height="26.18" fill="#ffb900" opacity="0.4"/>
    </g>
    <g>
      <rect x="169.35" y="165.75" width="65" height="25" fill="#fff"/>
      <rect x="169.35" y="165.75" width="65" height="25" fill="#d83b01" opacity="0.4"/>
    </g>
    <g>
      <line x1="292.79" y1="95.64" x2="333.12" y2="95.64" fill="none" stroke="#3c3c41" stroke-miterlimit="10"/>
      <polygon points="332.02 99.39 338.5 95.64 332.02 91.91 332.02 99.39" fill="#3c3c41"/>
    </g>
    <path d="M201,127.12a1,1,0,0,1,.4.08,1,1,0,0,1,.35.22l4.11,4.12a3.77,3.77,0,0,1,.83,1.23,3.83,3.83,0,0,1,.28,1.46,3.59,3.59,0,0,1-.63,2.09,3.67,3.67,0,0,1-.7.82,4.7,4.7,0,0,1-3,1.14h-5a1.08,1.08,0,0,1-.43-.1,1,1,0,0,1-.36-.25,1.11,1.11,0,0,1-.23-.36,1.08,1.08,0,0,1-.09-.44,1,1,0,0,1,.09-.43,1.28,1.28,0,0,1,.23-.37,1.36,1.36,0,0,1,.36-.25,1.07,1.07,0,0,1,.43-.09h1.5a.19.19,0,0,0,.12,0,.14.14,0,0,0,.06-.11.15.15,0,0,0,0-.07l0-.05-4-4a1.07,1.07,0,0,1-.23-1.16,1,1,0,0,1,.22-.33,1,1,0,0,1,.34-.23.91.91,0,0,1,.41-.08h0l-.18-.2a1.43,1.43,0,0,1-.14-.2.85.85,0,0,1-.09-.22,1.12,1.12,0,0,1,0-.27,1,1,0,0,1,.08-.41,1,1,0,0,1,.22-.33,1,1,0,0,1,.34-.23,1.15,1.15,0,0,1,.41-.08,1.06,1.06,0,0,1,.45.09,1.14,1.14,0,0,1,.36.27v0a1.16,1.16,0,0,1,.08-.42,1.13,1.13,0,0,1,.23-.34,1.09,1.09,0,0,1,.33-.23,1.16,1.16,0,0,1,.42-.08,1.1,1.1,0,0,1,.4.08.89.89,0,0,1,.35.23l.63.63v0a1,1,0,0,1,.08-.42,1.11,1.11,0,0,1,.22-.34,1.13,1.13,0,0,1,.34-.23A1.16,1.16,0,0,1,201,127.12ZM202.58,138a4.06,4.06,0,0,0,1-.13,4.29,4.29,0,0,0,1-.36,4.24,4.24,0,0,0,.84-.56,3.94,3.94,0,0,0,.66-.75,3.82,3.82,0,0,0,.44-.91,3.6,3.6,0,0,0,.15-1.05,3.64,3.64,0,0,0-.26-1.35,3.5,3.5,0,0,0-.76-1.14l-4.12-4.11a.74.74,0,0,0-.54-.23.73.73,0,0,0-.3.06.85.85,0,0,0-.25.17.72.72,0,0,0-.16.25.59.59,0,0,0-.07.29.76.76,0,0,0,.23.55l1.85,1.85a.15.15,0,0,1,0,.2.13.13,0,0,1-.2,0l-3-3a.78.78,0,0,0-.55-.23.77.77,0,0,0-.3.06,1,1,0,0,0-.24.17.74.74,0,0,0-.17.25.78.78,0,0,0,.16.84l2.67,2.67a.12.12,0,0,1,0,.1.14.14,0,0,1-.14.14.12.12,0,0,1-.1,0l-3.24-3.24a.74.74,0,0,0-.25-.17,1,1,0,0,0-.3-.05.8.8,0,0,0-.3.06.78.78,0,0,0-.24.16.74.74,0,0,0-.17.25.73.73,0,0,0-.06.3.8.8,0,0,0,.06.3.7.7,0,0,0,.17.25l3.24,3.23a.18.18,0,0,1,0,.11.18.18,0,0,1,0,.1.21.21,0,0,1-.11,0,.18.18,0,0,1-.1,0l-2.59-2.59a.7.7,0,0,0-.54-.23.73.73,0,0,0-.3.06.74.74,0,0,0-.25.17,1,1,0,0,0-.17.24.8.8,0,0,0-.06.3.78.78,0,0,0,.23.55l4,4a.42.42,0,0,1,.13.31.39.39,0,0,1-.14.32.47.47,0,0,1-.32.12h-1.5a.68.68,0,0,0-.32.07.83.83,0,0,0-.26.19.75.75,0,0,0-.18.28.87.87,0,0,0-.06.32.92.92,0,0,0,.06.33.8.8,0,0,0,.18.27.83.83,0,0,0,.26.19.88.88,0,0,0,.32.07Z" fill="#1e1e1e"/>
    <path d="M283.36,90a1.1,1.1,0,0,1,.4.08.93.93,0,0,1,.35.23l4.12,4.11a3.68,3.68,0,0,1,.82,1.24,3.8,3.8,0,0,1,.29,1.46,3.68,3.68,0,0,1-.17,1.11,3.82,3.82,0,0,1-.46,1,3.9,3.9,0,0,1-.71.81,4.13,4.13,0,0,1-.89.61,4.75,4.75,0,0,1-1,.39,4.22,4.22,0,0,1-1.11.14h-5a1.12,1.12,0,0,1-.44-.09,1.48,1.48,0,0,1-.35-.25,1.41,1.41,0,0,1-.24-.36,1.12,1.12,0,0,1,0-.88,1.13,1.13,0,0,1,.24-.36,1.24,1.24,0,0,1,.35-.25,1.12,1.12,0,0,1,.44-.09h1.49a.24.24,0,0,0,.13,0,.11.11,0,0,0,.06-.11.14.14,0,0,0,0-.06.1.1,0,0,0,0,0l-4-4a1,1,0,0,1-.23-.35,1.1,1.1,0,0,1-.08-.4,1.11,1.11,0,0,1,.08-.41,1.13,1.13,0,0,1,.23-.34,1.06,1.06,0,0,1,.33-.22,1,1,0,0,1,.42-.09h0a1.62,1.62,0,0,1-.18-.2.62.62,0,0,1-.14-.19,1.47,1.47,0,0,1-.1-.22,1.14,1.14,0,0,1,.05-.68,1.13,1.13,0,0,1,.23-.34,1.11,1.11,0,0,1,.34-.22,1,1,0,0,1,.41-.09,1.05,1.05,0,0,1,.44.1,1.29,1.29,0,0,1,.37.27v0a1,1,0,0,1,.08-.41,1.11,1.11,0,0,1,.22-.34,1,1,0,0,1,.76-.31,1,1,0,0,1,.75.3l.62.63v0a1.07,1.07,0,0,1,.08-.41,1,1,0,0,1,.23-.34,1,1,0,0,1,.34-.23A1,1,0,0,1,283.36,90Zm1.6,10.87a4.46,4.46,0,0,0,1-.12,5.36,5.36,0,0,0,1-.36,4.36,4.36,0,0,0,.83-.57,3.67,3.67,0,0,0,.67-.75,3.62,3.62,0,0,0,.43-.91,3.24,3.24,0,0,0,.16-1,3.46,3.46,0,0,0-.27-1.35,3.35,3.35,0,0,0-.76-1.14l-4.11-4.12a.75.75,0,0,0-.55-.22.8.8,0,0,0-.3.06.78.78,0,0,0-.24.16.85.85,0,0,0-.17.25.73.73,0,0,0-.06.3.74.74,0,0,0,.23.54l1.84,1.86a.12.12,0,0,1,0,.1.16.16,0,0,1,0,.1.12.12,0,0,1-.1,0,.16.16,0,0,1-.1,0l-3-3a.7.7,0,0,0-.54-.23.73.73,0,0,0-.3.06.74.74,0,0,0-.25.17.72.72,0,0,0-.23.54.74.74,0,0,0,.23.54l2.67,2.67a.21.21,0,0,1,0,.11.18.18,0,0,1,0,.1.15.15,0,0,1-.11,0,.13.13,0,0,1-.1,0l-3.23-3.24a.7.7,0,0,0-.25-.17.79.79,0,0,0-.3,0,.73.73,0,0,0-.3,0,.74.74,0,0,0-.25.17.78.78,0,0,0-.16.24.81.81,0,0,0-.06.31.93.93,0,0,0,0,.29.74.74,0,0,0,.17.25l3.24,3.24a.13.13,0,0,1,0,.1.12.12,0,0,1,0,.1.13.13,0,0,1-.1,0,.12.12,0,0,1-.1,0L279,93.31a.78.78,0,0,0-.55-.23.66.66,0,0,0-.3.07.78.78,0,0,0-.24.16.85.85,0,0,0-.17.25.73.73,0,0,0-.06.3.7.7,0,0,0,.23.54l4,4a.42.42,0,0,1,.13.31.4.4,0,0,1-.14.31.44.44,0,0,1-.33.13H280a.72.72,0,0,0-.33.07.79.79,0,0,0-.26.19,1,1,0,0,0-.17.27.78.78,0,0,0-.07.33.71.71,0,0,0,.07.32.88.88,0,0,0,.17.28.85.85,0,0,0,.27.18.68.68,0,0,0,.32.07Z" fill="#1e1e1e"/>
    <path d="M111.32,93.09a4.73,4.73,0,0,0-.56,1.18,4.81,4.81,0,0,0-.19,1.3,4.35,4.35,0,0,0,.15,1.14,4.45,4.45,0,0,0,.43,1.06l-.65.37a5.12,5.12,0,0,1-.5-1.24,5,5,0,0,1,.07-2.9,5.14,5.14,0,0,1,.7-1.43h-1v-.75h2.25v2.25h-.75Zm3.75,7a4.35,4.35,0,0,0,1.14-.15,4.52,4.52,0,0,0,1.07-.43l.37.65a5.66,5.66,0,0,1-1.25.51,5.33,5.33,0,0,1-1.33.17,5.2,5.2,0,0,1-1.57-.24,5.93,5.93,0,0,1-1.43-.7v.94h-.75V98.57h2.25v.75h-1a4.73,4.73,0,0,0,1.18.56A4.4,4.4,0,0,0,115.07,100.07Zm0-9a4.41,4.41,0,0,0-2.23.6l-.37-.65a5.32,5.32,0,0,1,1.26-.52,5,5,0,0,1,1.34-.18,5.26,5.26,0,0,1,1.58.24,5.37,5.37,0,0,1,1.42.7v-.94h.75v2.25h-2.25v-.75h1a4.48,4.48,0,0,0-2.49-.75Zm5.25,4.5a5.2,5.2,0,0,1-.24,1.57,5.14,5.14,0,0,1-.7,1.43h.94v.75h-2.25V97.07h.75v1a4,4,0,0,0,.56-1.18,4.4,4.4,0,0,0,.19-1.3,4.81,4.81,0,0,0-.14-1.14,4.1,4.1,0,0,0-.44-1.06l.65-.37a4.77,4.77,0,0,1,.51,1.24A5,5,0,0,1,120.32,95.57Z" fill="#1e1e1e"/>
    <g>
      <line x1="201.85" y1="141.63" x2="201.85" y2="160.37" fill="none" stroke="#3c3c41" stroke-miterlimit="10"/>
      <polygon points="198.11 159.28 201.85 165.75 205.59 159.28 198.11 159.28" fill="#3c3c41"/>
    </g>
    <line x1="218.34" y1="43.36" x2="218.34" y2="23.64" fill="none" stroke="#3c3c41" stroke-miterlimit="10"/>
    <g>
      <line x1="218.34" y1="59.77" x2="218.34" y2="77.17" fill="none" stroke="#3c3c41" stroke-miterlimit="10"/>
      <polygon points="214.6 76.08 218.34 82.55 222.08 76.08 214.6 76.08" fill="#3c3c41"/>
    </g>
    <line x1="184.05" y1="60.68" x2="184.05" y2="82.89" fill="none" stroke="#3c3c41" stroke-miterlimit="10"/>
    <g>
      <line x1="184.05" y1="44.27" x2="184.05" y2="30.38" fill="none" stroke="#3c3c41" stroke-miterlimit="10"/>
      <polygon points="187.79 31.48 184.05 25 180.31 31.48 187.79 31.48" fill="#3c3c41"/>
    </g>
    <path d="M216.62,46.11l8,5-8,5Zm1,1.8V54.3l5.11-3.2Z" fill="#1e1e1e"/>
    <g>
      <path d="M173.78,131.36a15.22,15.22,0,1,1-19-9.11" fill="none" stroke="#3c3c41" stroke-miterlimit="10"/>
      <polygon points="170.9 134.21 171.03 126.73 177.44 130.58 170.9 134.21" fill="#3c3c41"/>
    </g>
    <line x1="233.5" y1="95.64" x2="273.5" y2="95.64" fill="none" stroke="#3c3c41" stroke-miterlimit="10"/>
    <line x1="64.97" y1="95.64" x2="104.97" y2="95.64" fill="none" stroke="#3c3c41" stroke-miterlimit="10"/>
    <g>
      <rect x="169.35" width="65" height="25" fill="#fff"/>
      <rect x="169.35" width="65" height="25" fill="#3c3c41" opacity="0.15"/>
    </g>
    <g>
      <rect x="169.35" y="82.55" width="65" height="26.18" fill="#fff"/>
      <rect x="169.35" y="82.55" width="65" height="26.18" fill="#107c10" opacity="0.4"/>
    </g>
    <g>
      <line x1="124.14" y1="95.64" x2="163.96" y2="95.64" fill="none" stroke="#3c3c41" stroke-miterlimit="10"/>
      <polygon points="162.87 99.39 169.35 95.64 162.87 91.91 162.87 99.39" fill="#3c3c41"/>
    </g>
  </g>
  <g id="Text">
    <g>
      <path d="M187.08,99.5h-1.17l-1.41-2.36a5.44,5.44,0,0,0-.37-.56,2.15,2.15,0,0,0-.37-.37,1.49,1.49,0,0,0-.41-.22,1.9,1.9,0,0,0-.5-.06H182V99.5h-1V91.1h2.51a3.29,3.29,0,0,1,1,.14,2.38,2.38,0,0,1,.81.41,2.06,2.06,0,0,1,.54.7,2.33,2.33,0,0,1,.19,1,2.28,2.28,0,0,1-.13.8,2.08,2.08,0,0,1-.37.65,2.14,2.14,0,0,1-.59.49,3.12,3.12,0,0,1-.77.32v0a1.88,1.88,0,0,1,.37.21,2.65,2.65,0,0,1,.29.29,4,4,0,0,1,.28.37l.31.48ZM182,92V95h1.34a1.87,1.87,0,0,0,.68-.12,1.46,1.46,0,0,0,.54-.32,1.19,1.19,0,0,0,.36-.51,1.6,1.6,0,0,0,.13-.67,1.28,1.28,0,0,0-.44-1,1.83,1.83,0,0,0-1.26-.38Z" fill="#1e1e1e"/>
      <path d="M192.81,99.5h-1v-1h0A2,2,0,0,1,190,99.64c-1.43,0-2.14-.85-2.14-2.55V93.5h.95v3.43c0,1.27.49,1.9,1.46,1.9a1.44,1.44,0,0,0,1.15-.52,1.92,1.92,0,0,0,.46-1.35V93.5h1Z" fill="#1e1e1e"/>
      <path d="M199.6,99.5h-1V96.08c0-1.28-.46-1.91-1.39-1.91a1.5,1.5,0,0,0-1.19.54,2,2,0,0,0-.47,1.37V99.5h-1v-6h1v1h0a2.16,2.16,0,0,1,2-1.14,1.81,1.81,0,0,1,1.5.64,2.79,2.79,0,0,1,.52,1.83Z" fill="#1e1e1e"/>
      <path d="M206.33,99.5h-1V96.08c0-1.28-.47-1.91-1.4-1.91a1.52,1.52,0,0,0-1.19.54,2,2,0,0,0-.47,1.37V99.5h-1v-6h1v1h0a2.17,2.17,0,0,1,2-1.14,1.83,1.83,0,0,1,1.51.64,2.79,2.79,0,0,1,.52,1.83Z" fill="#1e1e1e"/>
      <path d="M208.55,92a.62.62,0,0,1-.44-.18.59.59,0,0,1-.18-.44.61.61,0,0,1,.18-.45.62.62,0,0,1,.44-.18.61.61,0,0,1,.45.18.58.58,0,0,1,.19.45.56.56,0,0,1-.19.43A.58.58,0,0,1,208.55,92ZM209,99.5h-1v-6h1Z" fill="#1e1e1e"/>
      <path d="M215.83,99.5h-1V96.08c0-1.28-.47-1.91-1.4-1.91a1.52,1.52,0,0,0-1.19.54,2,2,0,0,0-.47,1.37V99.5h-1v-6h1v1h0a2.17,2.17,0,0,1,2-1.14,1.83,1.83,0,0,1,1.51.64,2.79,2.79,0,0,1,.52,1.83Z" fill="#1e1e1e"/>
      <path d="M222.76,99q0,3.3-3.16,3.3a4.28,4.28,0,0,1-1.95-.42v-1a4,4,0,0,0,1.94.56c1.47,0,2.21-.78,2.21-2.35v-.66h0a2.43,2.43,0,0,1-3.87.35,3.22,3.22,0,0,1-.68-2.15,3.73,3.73,0,0,1,.74-2.43,2.46,2.46,0,0,1,2-.9,2,2,0,0,1,1.8,1h0V93.5h1Zm-1-2.23V95.9a1.72,1.72,0,0,0-.48-1.22,1.62,1.62,0,0,0-1.21-.51,1.64,1.64,0,0,0-1.39.65,2.85,2.85,0,0,0-.51,1.81,2.48,2.48,0,0,0,.49,1.6,1.56,1.56,0,0,0,1.28.6,1.65,1.65,0,0,0,1.31-.57A2.14,2.14,0,0,0,221.8,96.79Z" fill="#1e1e1e"/>
    </g>
    <g>
      <path d="M18.82,99.15a4.89,4.89,0,0,1-2.32.49,3.74,3.74,0,0,1-2.87-1.15,4.26,4.26,0,0,1-1.08-3,4.5,4.5,0,0,1,1.21-3.26A4.12,4.12,0,0,1,16.84,91a4.92,4.92,0,0,1,2,.34v1a4.05,4.05,0,0,0-2-.5,3.07,3.07,0,0,0-2.35,1,3.66,3.66,0,0,0-.9,2.59,3.44,3.44,0,0,0,.84,2.44,2.87,2.87,0,0,0,2.21.92,4.11,4.11,0,0,0,2.19-.57Z" fill="#1e1e1e"/>
      <path d="M23.29,94.47a1.18,1.18,0,0,0-.73-.19,1.2,1.2,0,0,0-1,.58,2.64,2.64,0,0,0-.42,1.58V99.5h-1v-6h1v1.24h0a2,2,0,0,1,.62-1,1.43,1.43,0,0,1,.95-.36,1.41,1.41,0,0,1,.57.09Z" fill="#1e1e1e"/>
      <path d="M29.17,96.74H24.93a2.3,2.3,0,0,0,.54,1.55,1.88,1.88,0,0,0,1.42.54,2.89,2.89,0,0,0,1.86-.67v.91a3.47,3.47,0,0,1-2.09.57,2.53,2.53,0,0,1-2-.82,3.35,3.35,0,0,1-.72-2.3,3.28,3.28,0,0,1,.79-2.28,2.54,2.54,0,0,1,2-.88,2.24,2.24,0,0,1,1.82.76,3.18,3.18,0,0,1,.65,2.12Zm-1-.81a1.91,1.91,0,0,0-.4-1.3,1.36,1.36,0,0,0-1.1-.46,1.56,1.56,0,0,0-1.15.48,2.25,2.25,0,0,0-.59,1.28Z" fill="#1e1e1e"/>
      <path d="M34.87,99.5h-1v-.94h0A2,2,0,0,1,32,99.64a2,2,0,0,1-1.4-.47,1.65,1.65,0,0,1-.51-1.26c0-1.12.66-1.78,2-2l1.8-.25c0-1-.41-1.53-1.24-1.53a2.94,2.94,0,0,0-2,.74v-1a3.76,3.76,0,0,1,2-.56c1.41,0,2.12.75,2.12,2.24Zm-1-3-1.45.2a2.48,2.48,0,0,0-1,.34,1,1,0,0,0-.34.84.9.9,0,0,0,.32.71,1.18,1.18,0,0,0,.83.28,1.51,1.51,0,0,0,1.18-.5,1.8,1.8,0,0,0,.47-1.27Z" fill="#1e1e1e"/>
      <path d="M39.39,99.44a1.82,1.82,0,0,1-.9.19c-1.05,0-1.58-.59-1.58-1.76V94.32h-1V93.5h1V92l1-.32V93.5h1.52v.82H37.87V97.7a1.37,1.37,0,0,0,.21.86.83.83,0,0,0,.68.26,1.05,1.05,0,0,0,.63-.2Z" fill="#1e1e1e"/>
      <path d="M45.39,96.74H41.15a2.3,2.3,0,0,0,.54,1.55,1.88,1.88,0,0,0,1.42.54A2.89,2.89,0,0,0,45,98.16v.91a3.47,3.47,0,0,1-2.09.57,2.53,2.53,0,0,1-2-.82,3.35,3.35,0,0,1-.72-2.3A3.28,3.28,0,0,1,41,94.24a2.54,2.54,0,0,1,2-.88,2.26,2.26,0,0,1,1.83.76,3.23,3.23,0,0,1,.64,2.12Zm-1-.81a2,2,0,0,0-.41-1.3,1.35,1.35,0,0,0-1.09-.46,1.57,1.57,0,0,0-1.16.48,2.18,2.18,0,0,0-.58,1.28Z" fill="#1e1e1e"/>
      <path d="M52,99.5h-1v-1h0A2.21,2.21,0,0,1,49,99.64a2.24,2.24,0,0,1-1.81-.81,3.28,3.28,0,0,1-.67-2.19,3.57,3.57,0,0,1,.75-2.38,2.46,2.46,0,0,1,2-.9,1.91,1.91,0,0,1,1.8,1h0V90.62h1Zm-1-2.71V95.9a1.7,1.7,0,0,0-.49-1.23,1.61,1.61,0,0,0-1.21-.5,1.67,1.67,0,0,0-1.39.64,2.87,2.87,0,0,0-.5,1.78A2.54,2.54,0,0,0,48,98.23a1.73,1.73,0,0,0,2.6,0A2.11,2.11,0,0,0,51.07,96.79Z" fill="#1e1e1e"/>
    </g>
    <g>
      <path d="M356.94,99.5h-1.17l-1.41-2.36c-.13-.21-.25-.4-.37-.56a2.18,2.18,0,0,0-.38-.37,1.25,1.25,0,0,0-.41-.22,1.83,1.83,0,0,0-.49-.06h-.81V99.5h-1V91.1h2.5a3.31,3.31,0,0,1,1,.14,2.38,2.38,0,0,1,.81.41,1.92,1.92,0,0,1,.53.7,2.33,2.33,0,0,1,.2,1,2.53,2.53,0,0,1-.13.8,2.1,2.1,0,0,1-.38.65,2,2,0,0,1-.59.49,2.83,2.83,0,0,1-.77.32v0a1.63,1.63,0,0,1,.37.21,4,4,0,0,1,.3.29,4,4,0,0,1,.27.37c.1.14.2.3.31.48Zm-5-7.51V95h1.34a1.91,1.91,0,0,0,.68-.12,1.46,1.46,0,0,0,.54-.32,1.38,1.38,0,0,0,.36-.51,1.78,1.78,0,0,0,.13-.67,1.32,1.32,0,0,0-.44-1,1.83,1.83,0,0,0-1.26-.38Z" fill="#1e1e1e"/>
      <path d="M362.62,96.74h-4.24a2.21,2.21,0,0,0,.54,1.55,1.85,1.85,0,0,0,1.42.54,2.93,2.93,0,0,0,1.86-.67v.91a3.52,3.52,0,0,1-2.09.57,2.52,2.52,0,0,1-2-.82,3.36,3.36,0,0,1-.73-2.3,3.29,3.29,0,0,1,.8-2.28,2.53,2.53,0,0,1,2-.88,2.25,2.25,0,0,1,1.82.76,3.18,3.18,0,0,1,.65,2.12Zm-1-.81a2,2,0,0,0-.4-1.3,1.36,1.36,0,0,0-1.1-.46,1.55,1.55,0,0,0-1.15.48,2.19,2.19,0,0,0-.59,1.28Z" fill="#1e1e1e"/>
      <path d="M372.59,99.5h-1V96.05a2.65,2.65,0,0,0-.31-1.44,1.18,1.18,0,0,0-1-.44,1.3,1.3,0,0,0-1.05.56,2.14,2.14,0,0,0-.43,1.35V99.5h-1V95.94c0-1.18-.46-1.77-1.37-1.77a1.24,1.24,0,0,0-1,.53,2.2,2.2,0,0,0-.41,1.38V99.5h-1v-6h1v1h0a2,2,0,0,1,1.87-1.09,1.73,1.73,0,0,1,1.07.34,1.81,1.81,0,0,1,.63.9,2.12,2.12,0,0,1,2-1.24c1.32,0,2,.81,2,2.44Z" fill="#1e1e1e"/>
      <path d="M376.89,99.64a2.76,2.76,0,0,1-2.12-.84,3.11,3.11,0,0,1-.8-2.23,3.25,3.25,0,0,1,.83-2.36,3,3,0,0,1,2.23-.85,2.69,2.69,0,0,1,2.1.83,3.77,3.77,0,0,1-.06,4.59A2.87,2.87,0,0,1,376.89,99.64Zm.07-5.47a1.8,1.8,0,0,0-1.46.63,2.59,2.59,0,0,0-.54,1.74,2.46,2.46,0,0,0,.54,1.68,1.85,1.85,0,0,0,1.46.61,1.75,1.75,0,0,0,1.43-.6,3.23,3.23,0,0,0,0-3.45A1.73,1.73,0,0,0,377,94.17Z" fill="#1e1e1e"/>
      <path d="M386,93.5l-2.39,6h-.94l-2.27-6h1.05L383,97.86a3.75,3.75,0,0,1,.22.84h0a3.94,3.94,0,0,1,.19-.82L385,93.5Z" fill="#1e1e1e"/>
      <path d="M391.71,96.74h-4.24a2.3,2.3,0,0,0,.54,1.55,1.87,1.87,0,0,0,1.42.54,2.93,2.93,0,0,0,1.86-.67v.91a3.5,3.5,0,0,1-2.09.57,2.52,2.52,0,0,1-2-.82,3.36,3.36,0,0,1-.73-2.3,3.29,3.29,0,0,1,.8-2.28,2.53,2.53,0,0,1,2-.88,2.25,2.25,0,0,1,1.82.76,3.18,3.18,0,0,1,.65,2.12Zm-1-.81a2,2,0,0,0-.4-1.3,1.36,1.36,0,0,0-1.1-.46,1.55,1.55,0,0,0-1.15.48,2.25,2.25,0,0,0-.59,1.28Z" fill="#1e1e1e"/>
    </g>
    <g>
      <path d="M180.34,181.91v-1.16a1.91,1.91,0,0,0,.48.32,5,5,0,0,0,.58.24c.21.06.41.11.62.15a4.13,4.13,0,0,0,.58,0,2.2,2.2,0,0,0,1.35-.34,1.14,1.14,0,0,0,.45-1,1.15,1.15,0,0,0-.15-.59,1.76,1.76,0,0,0-.41-.46,4.57,4.57,0,0,0-.63-.4l-.77-.4c-.29-.15-.57-.3-.82-.45a3.17,3.17,0,0,1-.66-.5,2.28,2.28,0,0,1-.45-.63,2.15,2.15,0,0,1,.09-1.82,2.24,2.24,0,0,1,.67-.7,3,3,0,0,1,.93-.41,4.29,4.29,0,0,1,1.07-.13,4.08,4.08,0,0,1,1.81.3v1.11a3.24,3.24,0,0,0-1.91-.52,2.79,2.79,0,0,0-.64.07,1.75,1.75,0,0,0-.58.22,1.27,1.27,0,0,0-.41.39,1.1,1.1,0,0,0-.16.59,1.18,1.18,0,0,0,.12.55,1.31,1.31,0,0,0,.36.43,3.51,3.51,0,0,0,.57.38l.78.39c.3.15.58.31.85.47a4,4,0,0,1,.71.55,2.53,2.53,0,0,1,.48.66,1.84,1.84,0,0,1,.18.83,2.09,2.09,0,0,1-.24,1.05,1.93,1.93,0,0,1-.66.7,2.8,2.8,0,0,1-.95.39,5.24,5.24,0,0,1-1.14.12l-.49,0-.6-.09a3.41,3.41,0,0,1-.57-.16A1.65,1.65,0,0,1,180.34,181.91Z" fill="#1e1e1e"/>
      <path d="M189.45,182.19a1.82,1.82,0,0,1-.9.19c-1.05,0-1.58-.58-1.58-1.76v-3.55h-1v-.82h1v-1.46l1-.31v1.77h1.52v.82h-1.52v3.38a1.35,1.35,0,0,0,.21.86.8.8,0,0,0,.68.26,1,1,0,0,0,.63-.2Z" fill="#1e1e1e"/>
      <path d="M193.1,182.39a2.79,2.79,0,0,1-2.12-.84,3.1,3.1,0,0,1-.79-2.23A3.24,3.24,0,0,1,191,177a3,3,0,0,1,2.24-.85,2.69,2.69,0,0,1,2.09.83,3.27,3.27,0,0,1,.75,2.29,3.23,3.23,0,0,1-.81,2.3A2.87,2.87,0,0,1,193.1,182.39Zm.07-5.47a1.83,1.83,0,0,0-1.46.63,2.59,2.59,0,0,0-.54,1.74,2.41,2.41,0,0,0,.55,1.68,1.84,1.84,0,0,0,1.45.61,1.77,1.77,0,0,0,1.44-.6,2.63,2.63,0,0,0,.5-1.72,2.68,2.68,0,0,0-.5-1.73A1.75,1.75,0,0,0,193.17,176.92Z" fill="#1e1e1e"/>
      <path d="M198.56,181.39h0V185h-1v-8.76h1v1.06h0a2.26,2.26,0,0,1,2.07-1.2,2.18,2.18,0,0,1,1.81.81,3.28,3.28,0,0,1,.65,2.16,3.72,3.72,0,0,1-.73,2.41,2.45,2.45,0,0,1-2,.9A2,2,0,0,1,198.56,181.39Zm0-2.42v.83a1.82,1.82,0,0,0,.49,1.27,1.73,1.73,0,0,0,2.59-.15,3.09,3.09,0,0,0,.5-1.86,2.47,2.47,0,0,0-.46-1.57,1.54,1.54,0,0,0-1.26-.57,1.7,1.7,0,0,0-1.35.58A2.16,2.16,0,0,0,198.53,179Z" fill="#1e1e1e"/>
      <path d="M205.56,181.39h0V185h-1v-8.76h1v1.06h0a2.26,2.26,0,0,1,2.07-1.2,2.18,2.18,0,0,1,1.81.81,3.28,3.28,0,0,1,.65,2.16,3.72,3.72,0,0,1-.73,2.41,2.44,2.44,0,0,1-2,.9A2,2,0,0,1,205.56,181.39Zm0-2.42v.83a1.81,1.81,0,0,0,.48,1.27,1.73,1.73,0,0,0,2.59-.15,3.09,3.09,0,0,0,.5-1.86,2.41,2.41,0,0,0-.46-1.57,1.54,1.54,0,0,0-1.26-.57,1.68,1.68,0,0,0-1.34.58A2.16,2.16,0,0,0,205.54,179Z" fill="#1e1e1e"/>
      <path d="M216.45,179.49h-4.23a2.23,2.23,0,0,0,.53,1.55,1.88,1.88,0,0,0,1.42.54,3,3,0,0,0,1.87-.66v.9a3.53,3.53,0,0,1-2.1.57,2.53,2.53,0,0,1-2-.81,3.34,3.34,0,0,1-.73-2.3A3.29,3.29,0,0,1,212,177a2.58,2.58,0,0,1,2-.88,2.29,2.29,0,0,1,1.83.76,3.19,3.19,0,0,1,.64,2.12Zm-1-.81a2,2,0,0,0-.4-1.3,1.37,1.37,0,0,0-1.1-.46,1.54,1.54,0,0,0-1.16.49,2.18,2.18,0,0,0-.58,1.27Z" fill="#1e1e1e"/>
      <path d="M223.09,182.25h-1v-1h0a2.2,2.2,0,0,1-2.06,1.16,2.27,2.27,0,0,1-1.81-.8,3.32,3.32,0,0,1-.67-2.2,3.59,3.59,0,0,1,.75-2.38,2.46,2.46,0,0,1,2-.9,1.93,1.93,0,0,1,1.8,1h0v-3.71h1Zm-1-2.71v-.89a1.73,1.73,0,0,0-.48-1.23,1.64,1.64,0,0,0-1.22-.5,1.7,1.7,0,0,0-1.39.64,2.88,2.88,0,0,0-.5,1.79A2.53,2.53,0,0,0,219,181a1.6,1.6,0,0,0,1.3.6,1.65,1.65,0,0,0,1.31-.58A2.16,2.16,0,0,0,222.13,179.54Z" fill="#1e1e1e"/>
    </g>
    <g>
      <path d="M105.79,55v-8.4h2.32c3,0,4.45,1.36,4.45,4.09a4.15,4.15,0,0,1-1.24,3.13A4.55,4.55,0,0,1,108,55Zm1-7.51v6.62H108a3.55,3.55,0,0,0,2.57-.89,3.28,3.28,0,0,0,.92-2.5c0-2.16-1.14-3.23-3.43-3.23Z" fill="#1e1e1e"/>
      <path d="M116.57,55.16a2.79,2.79,0,0,1-2.12-.84,3.11,3.11,0,0,1-.8-2.23,3.23,3.23,0,0,1,.83-2.36,3,3,0,0,1,2.23-.85,2.66,2.66,0,0,1,2.1.83,3.77,3.77,0,0,1-.06,4.59A2.87,2.87,0,0,1,116.57,55.16Zm.07-5.47a1.83,1.83,0,0,0-1.46.63,2.58,2.58,0,0,0-.54,1.73,2.47,2.47,0,0,0,.54,1.69,1.86,1.86,0,0,0,1.46.61,1.79,1.79,0,0,0,1.44-.6,3.23,3.23,0,0,0,0-3.45A1.76,1.76,0,0,0,116.64,49.69Z" fill="#1e1e1e"/>
      <path d="M125.19,54.74a3.1,3.1,0,0,1-1.64.42,2.76,2.76,0,0,1-2.08-.83,3.06,3.06,0,0,1-.78-2.17,3.3,3.3,0,0,1,.85-2.38,3,3,0,0,1,2.26-.9,3.24,3.24,0,0,1,1.4.29v1a2.4,2.4,0,0,0-1.43-.47,1.92,1.92,0,0,0-1.51.66,2.5,2.5,0,0,0-.59,1.73,2.36,2.36,0,0,0,.55,1.66,1.91,1.91,0,0,0,1.49.61,2.41,2.41,0,0,0,1.48-.52Z" fill="#1e1e1e"/>
      <path d="M131.45,55H130.1l-2.64-2.88h0V55h-1V46.14h1v5.63h0L130,49h1.25l-2.78,2.89Z" fill="#1e1e1e"/>
      <path d="M137,52.26h-4.24a2.3,2.3,0,0,0,.54,1.55,1.88,1.88,0,0,0,1.42.54,2.89,2.89,0,0,0,1.86-.67v.91a3.47,3.47,0,0,1-2.09.57,2.53,2.53,0,0,1-2-.82,3.35,3.35,0,0,1-.72-2.3,3.28,3.28,0,0,1,.79-2.28,2.54,2.54,0,0,1,2-.88,2.22,2.22,0,0,1,1.82.76,3.18,3.18,0,0,1,.65,2.12Zm-1-.81a1.91,1.91,0,0,0-.4-1.3,1.36,1.36,0,0,0-1.1-.46,1.56,1.56,0,0,0-1.15.48,2.25,2.25,0,0,0-.59,1.28Z" fill="#1e1e1e"/>
      <path d="M141.55,50a1.18,1.18,0,0,0-.73-.19,1.2,1.2,0,0,0-1,.58,2.64,2.64,0,0,0-.42,1.58V55h-1V49h1v1.24h0a2,2,0,0,1,.62-1,1.43,1.43,0,0,1,.95-.36,1.41,1.41,0,0,1,.57.09Z" fill="#1e1e1e"/>
      <path d="M146.87,54.15h0v3.63h-1V49h1v1h0a2.27,2.27,0,0,1,2.07-1.19,2.21,2.21,0,0,1,1.81.8,3.37,3.37,0,0,1,.65,2.16,3.69,3.69,0,0,1-.73,2.41,2.44,2.44,0,0,1-2,.91A2,2,0,0,1,146.87,54.15Zm0-2.42v.84a1.73,1.73,0,0,0,.49,1.26,1.71,1.71,0,0,0,2.59-.15,3,3,0,0,0,.5-1.85,2.39,2.39,0,0,0-.47-1.57,1.51,1.51,0,0,0-1.25-.57,1.7,1.7,0,0,0-1.35.58A2.15,2.15,0,0,0,146.84,51.73Z" fill="#1e1e1e"/>
      <path d="M157.18,55h-1v-.94h0a2.2,2.2,0,0,1-3.25.61,1.65,1.65,0,0,1-.51-1.26c0-1.13.66-1.78,2-2l1.8-.25q0-1.53-1.23-1.53a2.91,2.91,0,0,0-2,.74v-1a3.76,3.76,0,0,1,2-.56c1.41,0,2.11.75,2.11,2.24Zm-1-3-1.45.2a2.54,2.54,0,0,0-1,.33,1,1,0,0,0-.34.85.89.89,0,0,0,.31.71,1.2,1.2,0,0,0,.84.28,1.56,1.56,0,0,0,1.18-.5,1.79,1.79,0,0,0,.46-1.27Z" fill="#1e1e1e"/>
      <path d="M163.81,55h-1v-1h0A2,2,0,0,1,161,55.16c-1.43,0-2.15-.85-2.15-2.55V49h1v3.43c0,1.27.48,1.9,1.45,1.9a1.47,1.47,0,0,0,1.16-.52,2,2,0,0,0,.45-1.35V49h1Z" fill="#1e1e1e"/>
      <path d="M165.33,54.8v-1a2.82,2.82,0,0,0,1.73.58c.84,0,1.27-.28,1.27-.84a.76.76,0,0,0-.11-.41,1.07,1.07,0,0,0-.3-.3,2.44,2.44,0,0,0-.43-.23l-.54-.21c-.26-.11-.49-.21-.7-.32a2.47,2.47,0,0,1-.5-.36,1.35,1.35,0,0,1-.3-.46,1.66,1.66,0,0,1-.11-.61,1.39,1.39,0,0,1,.2-.74,1.78,1.78,0,0,1,.51-.55,2.26,2.26,0,0,1,.74-.33,3.56,3.56,0,0,1,2.24.16v1a2.68,2.68,0,0,0-1.52-.43,1.88,1.88,0,0,0-.49.06,1.4,1.4,0,0,0-.37.17.88.88,0,0,0-.24.27.77.77,0,0,0-.08.34.87.87,0,0,0,.08.39,1,1,0,0,0,.25.29,2.11,2.11,0,0,0,.4.22l.53.21c.27.11.51.21.72.32a2.82,2.82,0,0,1,.54.36,1.41,1.41,0,0,1,.34.47,1.46,1.46,0,0,1,.12.62,1.51,1.51,0,0,1-.2.78,1.58,1.58,0,0,1-.52.54,2.26,2.26,0,0,1-.76.32,3.24,3.24,0,0,1-.89.11A3.39,3.39,0,0,1,165.33,54.8Z" fill="#1e1e1e"/>
      <path d="M175.59,52.26h-4.24a2.3,2.3,0,0,0,.54,1.55,1.87,1.87,0,0,0,1.42.54,2.91,2.91,0,0,0,1.86-.67v.91a3.47,3.47,0,0,1-2.09.57,2.53,2.53,0,0,1-2-.82,3.35,3.35,0,0,1-.72-2.3,3.28,3.28,0,0,1,.79-2.28,2.54,2.54,0,0,1,2-.88,2.24,2.24,0,0,1,1.82.76,3.18,3.18,0,0,1,.65,2.12Zm-1-.81a1.91,1.91,0,0,0-.4-1.3,1.36,1.36,0,0,0-1.1-.46,1.56,1.56,0,0,0-1.15.48,2.25,2.25,0,0,0-.59,1.28Z" fill="#1e1e1e"/>
    </g>
    <g>
      <path d="M230.45,55v-8.4h2.32q4.44,0,4.44,4.09A4.14,4.14,0,0,1,236,53.84,4.59,4.59,0,0,1,232.67,55Zm1-7.51v6.62h1.26a3.57,3.57,0,0,0,2.57-.89,3.31,3.31,0,0,0,.92-2.5c0-2.16-1.15-3.23-3.44-3.23Z" fill="#1e1e1e"/>
      <path d="M241.23,55.16a2.79,2.79,0,0,1-2.13-.84,3.1,3.1,0,0,1-.79-2.23,3.24,3.24,0,0,1,.82-2.36,3,3,0,0,1,2.24-.85,2.66,2.66,0,0,1,2.09.83,3.77,3.77,0,0,1-.06,4.59A2.85,2.85,0,0,1,241.23,55.16Zm.07-5.47a1.84,1.84,0,0,0-1.47.63,2.59,2.59,0,0,0-.54,1.74,2.41,2.41,0,0,0,.55,1.68,1.85,1.85,0,0,0,1.46.61,1.75,1.75,0,0,0,1.43-.6,3.23,3.23,0,0,0,0-3.45A1.73,1.73,0,0,0,241.3,49.69Z" fill="#1e1e1e"/>
      <path d="M249.84,54.74a3.1,3.1,0,0,1-1.64.42,2.72,2.72,0,0,1-2.07-.83,3,3,0,0,1-.79-2.17,3.3,3.3,0,0,1,.85-2.38,3,3,0,0,1,2.27-.9,3.23,3.23,0,0,1,1.39.29v1a2.38,2.38,0,0,0-1.43-.47,2,2,0,0,0-1.51.66,2.5,2.5,0,0,0-.59,1.73,2.36,2.36,0,0,0,.56,1.66,1.89,1.89,0,0,0,1.48.61,2.39,2.39,0,0,0,1.48-.52Z" fill="#1e1e1e"/>
      <path d="M256.11,55h-1.35l-2.65-2.88h0V55h-1V46.14h1v5.63h0L254.63,49h1.26l-2.78,2.89Z" fill="#1e1e1e"/>
      <path d="M261.62,52.26h-4.23a2.21,2.21,0,0,0,.54,1.55,1.85,1.85,0,0,0,1.41.54,2.94,2.94,0,0,0,1.87-.67v.91a3.52,3.52,0,0,1-2.09.57,2.52,2.52,0,0,1-2-.82,3.83,3.83,0,0,1,.06-4.58,2.55,2.55,0,0,1,2-.88,2.25,2.25,0,0,1,1.82.76,3.18,3.18,0,0,1,.64,2.12Zm-1-.81a2,2,0,0,0-.4-1.3,1.37,1.37,0,0,0-1.1-.46,1.59,1.59,0,0,0-1.16.48,2.24,2.24,0,0,0-.58,1.28Z" fill="#1e1e1e"/>
      <path d="M266.21,50a1.2,1.2,0,0,0-.73-.19,1.23,1.23,0,0,0-1,.58A2.64,2.64,0,0,0,264,52V55h-1V49h1v1.24h0a2.12,2.12,0,0,1,.63-1,1.4,1.4,0,0,1,.94-.36,1.5,1.5,0,0,1,.58.09Z" fill="#1e1e1e"/>
      <path d="M275.39,55h-1v-1h0a2,2,0,0,1-1.85,1.09c-1.43,0-2.14-.85-2.14-2.55V49h.95v3.43c0,1.27.49,1.9,1.45,1.9a1.46,1.46,0,0,0,1.16-.52,2,2,0,0,0,.46-1.35V49h1Z" fill="#1e1e1e"/>
      <path d="M282.18,55h-1V51.6c0-1.28-.46-1.91-1.39-1.91a1.5,1.5,0,0,0-1.19.54,2,2,0,0,0-.48,1.37V55h-1V49h1v1h0a2.16,2.16,0,0,1,2-1.14,1.82,1.82,0,0,1,1.5.64,2.79,2.79,0,0,1,.52,1.83Z" fill="#1e1e1e"/>
      <path d="M284.91,54.15h0v3.63h-1V49h1v1h0A2.29,2.29,0,0,1,287,48.88a2.2,2.2,0,0,1,1.81.81,3.32,3.32,0,0,1,.65,2.15,3.74,3.74,0,0,1-.74,2.42,2.42,2.42,0,0,1-2,.9A2,2,0,0,1,284.91,54.15Zm0-2.42v.84a1.77,1.77,0,0,0,.48,1.26,1.59,1.59,0,0,0,1.23.52,1.6,1.6,0,0,0,1.37-.67,3,3,0,0,0,.49-1.85,2.41,2.41,0,0,0-.46-1.57,1.53,1.53,0,0,0-1.25-.57,1.7,1.7,0,0,0-1.35.58A2.15,2.15,0,0,0,284.89,51.73Z" fill="#1e1e1e"/>
      <path d="M295.23,55h-1v-.94h0a2,2,0,0,1-1.84,1.08,2,2,0,0,1-1.4-.47,1.65,1.65,0,0,1-.51-1.26c0-1.12.66-1.78,2-2l1.8-.25c0-1-.41-1.53-1.24-1.53a2.94,2.94,0,0,0-2,.74v-1a3.76,3.76,0,0,1,2-.56c1.41,0,2.12.75,2.12,2.24Zm-1-3-1.45.2a2.48,2.48,0,0,0-1,.34,1,1,0,0,0-.34.84.9.9,0,0,0,.32.71,1.18,1.18,0,0,0,.83.28,1.51,1.51,0,0,0,1.18-.5,1.8,1.8,0,0,0,.47-1.27Z" fill="#1e1e1e"/>
      <path d="M301.86,55h-1v-1h0A2,2,0,0,1,299,55.16c-1.43,0-2.14-.85-2.14-2.55V49h.95v3.43c0,1.27.48,1.9,1.45,1.9a1.46,1.46,0,0,0,1.16-.52,2,2,0,0,0,.45-1.35V49h1Z" fill="#1e1e1e"/>
      <path d="M303.38,54.8v-1a2.82,2.82,0,0,0,1.73.58q1.26,0,1.26-.84a.76.76,0,0,0-.11-.41,1,1,0,0,0-.29-.29,2.19,2.19,0,0,0-.43-.24l-.54-.21a6.76,6.76,0,0,1-.7-.32,2.22,2.22,0,0,1-.5-.36,1.38,1.38,0,0,1-.31-.46,1.63,1.63,0,0,1-.1-.61,1.38,1.38,0,0,1,.19-.74,1.7,1.7,0,0,1,.52-.55,2.43,2.43,0,0,1,.73-.33,3.49,3.49,0,0,1,.86-.11,3.41,3.41,0,0,1,1.39.27v1a2.7,2.7,0,0,0-1.52-.43,1.83,1.83,0,0,0-.49.06,1.26,1.26,0,0,0-.37.17.76.76,0,0,0-.24.27.67.67,0,0,0-.09.34.75.75,0,0,0,.09.39.84.84,0,0,0,.25.29,2.11,2.11,0,0,0,.4.22l.53.22a6.85,6.85,0,0,1,.71.31,2.82,2.82,0,0,1,.54.36,1.37,1.37,0,0,1,.47,1.09,1.51,1.51,0,0,1-.2.78,1.61,1.61,0,0,1-.53.54,2.44,2.44,0,0,1-.75.33,3.82,3.82,0,0,1-.9.1A3.37,3.37,0,0,1,303.38,54.8Z" fill="#1e1e1e"/>
      <path d="M313.63,52.26H309.4a2.21,2.21,0,0,0,.54,1.55,1.85,1.85,0,0,0,1.41.54,2.94,2.94,0,0,0,1.87-.67v.91a3.52,3.52,0,0,1-2.09.57,2.52,2.52,0,0,1-2-.82,3.81,3.81,0,0,1,.07-4.58,2.51,2.51,0,0,1,2-.88,2.25,2.25,0,0,1,1.82.76,3.18,3.18,0,0,1,.64,2.12Zm-1-.81a2,2,0,0,0-.4-1.3,1.37,1.37,0,0,0-1.1-.46,1.55,1.55,0,0,0-1.15.48,2.19,2.19,0,0,0-.59,1.28Z" fill="#1e1e1e"/>
    </g>
    <g>
      <path d="M64.11,145.47v-8.4h2.32q4.44,0,4.44,4.1a4.12,4.12,0,0,1-1.23,3.12,4.59,4.59,0,0,1-3.31,1.18Zm1-7.51v6.62h1.26a3.56,3.56,0,0,0,2.57-.88,3.34,3.34,0,0,0,.92-2.51q0-3.23-3.44-3.23Z" fill="#1e1e1e"/>
      <path d="M74.89,145.61a2.79,2.79,0,0,1-2.13-.84,3.1,3.1,0,0,1-.79-2.23,3.26,3.26,0,0,1,.82-2.36,3,3,0,0,1,2.24-.85,2.69,2.69,0,0,1,2.09.83,3.28,3.28,0,0,1,.76,2.29,3.23,3.23,0,0,1-.82,2.3A2.81,2.81,0,0,1,74.89,145.61Zm.07-5.47a1.84,1.84,0,0,0-1.47.63,2.59,2.59,0,0,0-.54,1.74,2.41,2.41,0,0,0,.55,1.68,1.85,1.85,0,0,0,1.46.62,1.76,1.76,0,0,0,1.43-.61,2.63,2.63,0,0,0,.5-1.72,2.68,2.68,0,0,0-.5-1.73A1.73,1.73,0,0,0,75,140.14Z" fill="#1e1e1e"/>
      <path d="M83.5,145.2a3.1,3.1,0,0,1-1.64.41,2.68,2.68,0,0,1-2.07-.83,3,3,0,0,1-.79-2.17,3.32,3.32,0,0,1,.85-2.38,3,3,0,0,1,2.27-.9,3.09,3.09,0,0,1,1.39.3v1a2.45,2.45,0,0,0-1.43-.47,2,2,0,0,0-1.51.66,2.52,2.52,0,0,0-.59,1.73,2.41,2.41,0,0,0,.56,1.67,1.92,1.92,0,0,0,1.48.61,2.4,2.4,0,0,0,1.48-.53Z" fill="#1e1e1e"/>
      <path d="M89.77,145.47H88.42l-2.65-2.88h0v2.88h-1v-8.88h1v5.63h0l2.52-2.75h1.26l-2.78,2.9Z" fill="#1e1e1e"/>
      <path d="M95.28,142.71H91.05a2.19,2.19,0,0,0,.54,1.55,1.85,1.85,0,0,0,1.41.55,3,3,0,0,0,1.87-.67v.9a3.52,3.52,0,0,1-2.09.57,2.54,2.54,0,0,1-2-.81,3.85,3.85,0,0,1,.06-4.59,2.58,2.58,0,0,1,2-.88,2.28,2.28,0,0,1,1.82.76,3.19,3.19,0,0,1,.64,2.12Zm-1-.81a2,2,0,0,0-.4-1.3,1.4,1.4,0,0,0-1.1-.46,1.56,1.56,0,0,0-1.16.49,2.21,2.21,0,0,0-.58,1.27Z" fill="#1e1e1e"/>
      <path d="M99.87,140.45a1.18,1.18,0,0,0-.73-.2,1.25,1.25,0,0,0-1,.58,2.67,2.67,0,0,0-.41,1.58v3.06h-1v-6h1v1.24h0a2.17,2.17,0,0,1,.63-1,1.44,1.44,0,0,1,.94-.35,1.75,1.75,0,0,1,.58.08Z" fill="#1e1e1e"/>
      <path d="M107.32,140.45a1.14,1.14,0,0,0-.72-.2,1.24,1.24,0,0,0-1,.58,2.67,2.67,0,0,0-.41,1.58v3.06h-1v-6h1v1.24h0a2.17,2.17,0,0,1,.63-1,1.44,1.44,0,0,1,.94-.35,1.65,1.65,0,0,1,.57.08Z" fill="#1e1e1e"/>
      <path d="M113.2,142.71H109a2.19,2.19,0,0,0,.54,1.55,1.85,1.85,0,0,0,1.41.55,3,3,0,0,0,1.87-.67v.9a3.52,3.52,0,0,1-2.09.57,2.54,2.54,0,0,1-2-.81,3.85,3.85,0,0,1,.06-4.59,2.58,2.58,0,0,1,2-.88,2.28,2.28,0,0,1,1.82.76,3.19,3.19,0,0,1,.64,2.12Zm-1-.81a2,2,0,0,0-.4-1.3,1.4,1.4,0,0,0-1.1-.46,1.56,1.56,0,0,0-1.16.49,2.21,2.21,0,0,0-.58,1.27Z" fill="#1e1e1e"/>
      <path d="M114.28,145.26v-1a2.88,2.88,0,0,0,1.73.58c.84,0,1.26-.29,1.26-.85a.7.7,0,0,0-.11-.41,1,1,0,0,0-.29-.29,2.18,2.18,0,0,0-.43-.23l-.54-.22a5.16,5.16,0,0,1-.7-.32,1.74,1.74,0,0,1-.5-.36,1.29,1.29,0,0,1-.31-.46,1.57,1.57,0,0,1-.1-.6,1.44,1.44,0,0,1,.19-.75,1.7,1.7,0,0,1,.52-.55,2.71,2.71,0,0,1,.73-.33,3.49,3.49,0,0,1,.86-.11,3.41,3.41,0,0,1,1.39.27v1a2.78,2.78,0,0,0-1.52-.43,1.88,1.88,0,0,0-.49.06,1.06,1.06,0,0,0-.37.18.85.85,0,0,0-.24.26.69.69,0,0,0-.09.34.82.82,0,0,0,.09.4.94.94,0,0,0,.25.28,2.11,2.11,0,0,0,.4.22l.53.22a6.85,6.85,0,0,1,.71.31,2.82,2.82,0,0,1,.54.36,1.45,1.45,0,0,1,.35.47,1.54,1.54,0,0,1,.12.63,1.5,1.5,0,0,1-.2.77,1.82,1.82,0,0,1-.52.55,2.6,2.6,0,0,1-.76.32,3.76,3.76,0,0,1-.9.1A3.49,3.49,0,0,1,114.28,145.26Z" fill="#1e1e1e"/>
      <path d="M122.56,145.41a1.78,1.78,0,0,1-.89.19c-1.06,0-1.58-.58-1.58-1.76v-3.55h-1v-.82h1V138l1-.31v1.77h1.51v.82h-1.51v3.38a1.49,1.49,0,0,0,.2.87.83.83,0,0,0,.68.25,1,1,0,0,0,.63-.2Z" fill="#1e1e1e"/>
      <path d="M128.24,145.47h-1v-.93h0a2,2,0,0,1-1.85,1.07,2,2,0,0,1-1.4-.47,1.65,1.65,0,0,1-.51-1.26c0-1.12.66-1.77,2-2l1.8-.25c0-1-.41-1.53-1.24-1.53a3,3,0,0,0-2,.74v-1a3.68,3.68,0,0,1,2-.57c1.41,0,2.11.75,2.11,2.24Zm-1-3-1.45.2a2.25,2.25,0,0,0-1,.33,1,1,0,0,0-.34.84.92.92,0,0,0,.31.72,1.24,1.24,0,0,0,.83.28,1.52,1.52,0,0,0,1.18-.51,1.73,1.73,0,0,0,.47-1.26Z" fill="#1e1e1e"/>
      <path d="M133.11,140.45a1.14,1.14,0,0,0-.72-.2,1.24,1.24,0,0,0-1,.58,2.67,2.67,0,0,0-.41,1.58v3.06h-1v-6h1v1.24h0a2.09,2.09,0,0,1,.63-1,1.44,1.44,0,0,1,.94-.35,1.65,1.65,0,0,1,.57.08Z" fill="#1e1e1e"/>
      <path d="M137.34,145.41a1.82,1.82,0,0,1-.9.19c-1.05,0-1.58-.58-1.58-1.76v-3.55h-1v-.82h1V138l1-.31v1.77h1.51v.82h-1.51v3.38a1.41,1.41,0,0,0,.2.87.82.82,0,0,0,.68.25,1,1,0,0,0,.63-.2Z" fill="#1e1e1e"/>
    </g>
    <g>
      <path d="M87.2,112v-8.4h2.32q4.44,0,4.44,4.09a4.14,4.14,0,0,1-1.23,3.13,4.55,4.55,0,0,1-3.3,1.18Zm1-7.51v6.62h1.25a3.55,3.55,0,0,0,2.57-.89,3.28,3.28,0,0,0,.92-2.5c0-2.16-1.14-3.23-3.43-3.23Z" fill="#1e1e1e"/>
      <path d="M98,112.14a2.79,2.79,0,0,1-2.12-.84,3.11,3.11,0,0,1-.8-2.23,3.25,3.25,0,0,1,.83-2.36,3,3,0,0,1,2.23-.85,2.66,2.66,0,0,1,2.1.83,3.77,3.77,0,0,1-.06,4.59A2.87,2.87,0,0,1,98,112.14Zm.07-5.47a1.83,1.83,0,0,0-1.46.63,2.59,2.59,0,0,0-.54,1.74,2.46,2.46,0,0,0,.54,1.68,1.86,1.86,0,0,0,1.46.61,1.79,1.79,0,0,0,1.44-.6,3.23,3.23,0,0,0,0-3.45A1.76,1.76,0,0,0,98.05,106.67Z" fill="#1e1e1e"/>
      <path d="M106.6,111.72a3.13,3.13,0,0,1-1.64.42,2.76,2.76,0,0,1-2.08-.83,3.06,3.06,0,0,1-.78-2.17,3.3,3.3,0,0,1,.85-2.38,3,3,0,0,1,2.26-.9,3.24,3.24,0,0,1,1.4.29v1a2.4,2.4,0,0,0-1.43-.47,1.92,1.92,0,0,0-1.51.66,2.5,2.5,0,0,0-.59,1.73,2.36,2.36,0,0,0,.55,1.66,1.91,1.91,0,0,0,1.49.61,2.43,2.43,0,0,0,1.48-.52Z" fill="#1e1e1e"/>
      <path d="M112.86,112h-1.35l-2.64-2.88h0V112h-1v-8.88h1v5.63h0l2.51-2.75h1.26l-2.78,2.89Z" fill="#1e1e1e"/>
      <path d="M118.38,109.24h-4.24a2.3,2.3,0,0,0,.54,1.55,1.88,1.88,0,0,0,1.42.54,2.89,2.89,0,0,0,1.86-.67v.91a3.47,3.47,0,0,1-2.09.57,2.53,2.53,0,0,1-2-.82,3.35,3.35,0,0,1-.72-2.3,3.28,3.28,0,0,1,.79-2.28,2.54,2.54,0,0,1,2-.88,2.24,2.24,0,0,1,1.82.76,3.18,3.18,0,0,1,.65,2.12Zm-1-.81a1.91,1.91,0,0,0-.4-1.3,1.36,1.36,0,0,0-1.1-.46,1.56,1.56,0,0,0-1.15.48,2.25,2.25,0,0,0-.59,1.28Z" fill="#1e1e1e"/>
      <path d="M123,107a1.18,1.18,0,0,0-.73-.19,1.2,1.2,0,0,0-1,.58,2.64,2.64,0,0,0-.42,1.58V112h-1v-6h1v1.24h0a2,2,0,0,1,.62-1,1.43,1.43,0,0,1,1-.36,1.41,1.41,0,0,1,.57.09Z" fill="#1e1e1e"/>
      <path d="M130.42,107a1.18,1.18,0,0,0-.73-.19,1.2,1.2,0,0,0-1,.58,2.64,2.64,0,0,0-.42,1.58V112h-1v-6h1v1.24h0a2,2,0,0,1,.62-1,1.43,1.43,0,0,1,.95-.36,1.41,1.41,0,0,1,.57.09Z" fill="#1e1e1e"/>
      <path d="M136.41,112h-1v-1h0a2,2,0,0,1-1.85,1.09c-1.43,0-2.15-.85-2.15-2.55V106h1v3.43c0,1.27.48,1.9,1.45,1.9a1.47,1.47,0,0,0,1.16-.52,2,2,0,0,0,.45-1.35V106h1Z" fill="#1e1e1e"/>
      <path d="M143.21,112h-1v-3.42c0-1.28-.47-1.91-1.4-1.91a1.5,1.5,0,0,0-1.19.54,2,2,0,0,0-.47,1.37V112h-1v-6h1v1h0a2.17,2.17,0,0,1,2-1.14,1.83,1.83,0,0,1,1.51.64,2.85,2.85,0,0,1,.52,1.83Z" fill="#1e1e1e"/>
    </g>
    <g>
      <path d="M210,137.6v-8.4h2.32q4.44,0,4.44,4.1a4.12,4.12,0,0,1-1.23,3.12,4.55,4.55,0,0,1-3.3,1.18Zm1-7.51v6.62h1.25a3.55,3.55,0,0,0,2.57-.88,3.3,3.3,0,0,0,.92-2.51q0-3.23-3.43-3.23Z" fill="#1e1e1e"/>
      <path d="M220.73,137.74a2.79,2.79,0,0,1-2.12-.84,3.11,3.11,0,0,1-.8-2.23,3.26,3.26,0,0,1,.83-2.36,3,3,0,0,1,2.23-.85,2.7,2.7,0,0,1,2.1.83,3.27,3.27,0,0,1,.75,2.29,3.23,3.23,0,0,1-.81,2.3A2.83,2.83,0,0,1,220.73,137.74Zm.07-5.47a1.83,1.83,0,0,0-1.46.63,2.59,2.59,0,0,0-.54,1.74,2.46,2.46,0,0,0,.54,1.68,1.87,1.87,0,0,0,1.46.62,1.76,1.76,0,0,0,1.43-.61,2.57,2.57,0,0,0,.51-1.71,2.65,2.65,0,0,0-.51-1.74A1.73,1.73,0,0,0,220.8,132.27Z" fill="#1e1e1e"/>
      <path d="M229.35,137.33a3.13,3.13,0,0,1-1.65.41,2.71,2.71,0,0,1-2.07-.83,3.06,3.06,0,0,1-.78-2.17,3.36,3.36,0,0,1,.84-2.38,3,3,0,0,1,2.27-.9,3.13,3.13,0,0,1,1.4.3v1a2.47,2.47,0,0,0-1.43-.47,1.92,1.92,0,0,0-1.51.66,2.52,2.52,0,0,0-.59,1.73,2.39,2.39,0,0,0,.55,1.67,1.94,1.94,0,0,0,1.49.61,2.44,2.44,0,0,0,1.48-.53Z" fill="#1e1e1e"/>
      <path d="M235.61,137.6h-1.35l-2.65-2.88h0v2.88h-1v-8.88h1v5.63h0l2.52-2.75h1.26l-2.78,2.9Z" fill="#1e1e1e"/>
      <path d="M241.13,134.84h-4.24a2.28,2.28,0,0,0,.54,1.55,1.87,1.87,0,0,0,1.42.55,3,3,0,0,0,1.86-.67v.9a3.47,3.47,0,0,1-2.09.57,2.56,2.56,0,0,1-2-.81,3.37,3.37,0,0,1-.72-2.3,3.29,3.29,0,0,1,.79-2.29,2.58,2.58,0,0,1,2-.88,2.27,2.27,0,0,1,1.82.76,3.2,3.2,0,0,1,.65,2.12Zm-1-.81a1.91,1.91,0,0,0-.4-1.3,1.39,1.39,0,0,0-1.1-.46,1.54,1.54,0,0,0-1.15.49,2.22,2.22,0,0,0-.59,1.27Z" fill="#1e1e1e"/>
      <path d="M245.71,132.58a1.18,1.18,0,0,0-.73-.2,1.22,1.22,0,0,0-1,.58,2.67,2.67,0,0,0-.42,1.58v3.06h-1v-6h1v1.24h0a2.08,2.08,0,0,1,.62-1,1.47,1.47,0,0,1,.95-.35,1.65,1.65,0,0,1,.57.08Z" fill="#1e1e1e"/>
      <path d="M249.68,137.39v-1a2.88,2.88,0,0,0,1.73.58c.84,0,1.26-.29,1.26-.85a.7.7,0,0,0-.11-.41,1,1,0,0,0-.29-.29,2.18,2.18,0,0,0-.43-.23l-.54-.22a5.16,5.16,0,0,1-.7-.32,1.74,1.74,0,0,1-.5-.36,1.29,1.29,0,0,1-.31-.46,1.57,1.57,0,0,1-.1-.6,1.44,1.44,0,0,1,.19-.75,1.58,1.58,0,0,1,.52-.54,2.45,2.45,0,0,1,.73-.34,3.49,3.49,0,0,1,.86-.11,3.41,3.41,0,0,1,1.39.27v1a2.71,2.71,0,0,0-1.52-.44,1.88,1.88,0,0,0-.49.06,1.06,1.06,0,0,0-.37.18.74.74,0,0,0-.24.26.7.7,0,0,0-.09.35.8.8,0,0,0,.09.39.82.82,0,0,0,.25.28,1.67,1.67,0,0,0,.4.22l.53.22a6.85,6.85,0,0,1,.71.31,2.44,2.44,0,0,1,.54.37,1.41,1.41,0,0,1,.35.46,1.54,1.54,0,0,1,.12.63,1.5,1.5,0,0,1-.2.77,1.82,1.82,0,0,1-.52.55,2.6,2.6,0,0,1-.76.32,3.76,3.76,0,0,1-.9.1A3.37,3.37,0,0,1,249.68,137.39Z" fill="#1e1e1e"/>
      <path d="M258,137.54a1.8,1.8,0,0,1-.9.19c-1.05,0-1.57-.58-1.57-1.76v-3.55h-1v-.82h1v-1.46l1-.31v1.77H258v.82h-1.51v3.38a1.49,1.49,0,0,0,.2.87.83.83,0,0,0,.68.25,1,1,0,0,0,.63-.2Z" fill="#1e1e1e"/>
      <path d="M261.62,137.74a2.77,2.77,0,0,1-2.12-.84,3.11,3.11,0,0,1-.8-2.23,3.26,3.26,0,0,1,.83-2.36,3,3,0,0,1,2.23-.85,2.71,2.71,0,0,1,2.1.83,3.27,3.27,0,0,1,.75,2.29,3.23,3.23,0,0,1-.81,2.3A2.83,2.83,0,0,1,261.62,137.74Zm.07-5.47a1.81,1.81,0,0,0-1.46.63,2.59,2.59,0,0,0-.54,1.74,2.46,2.46,0,0,0,.54,1.68,1.87,1.87,0,0,0,1.46.62,1.76,1.76,0,0,0,1.43-.61,2.57,2.57,0,0,0,.5-1.71,2.65,2.65,0,0,0-.5-1.74A1.73,1.73,0,0,0,261.69,132.27Z" fill="#1e1e1e"/>
      <path d="M267.07,136.74h0v3.62h-1V131.6h1v1.06h0a2.29,2.29,0,0,1,2.08-1.2,2.19,2.19,0,0,1,1.81.81,3.37,3.37,0,0,1,.65,2.16,3.71,3.71,0,0,1-.73,2.41,2.46,2.46,0,0,1-2,.9A2,2,0,0,1,267.07,136.74Zm0-2.42v.83a1.81,1.81,0,0,0,.48,1.27,1.65,1.65,0,0,0,1.23.52,1.63,1.63,0,0,0,1.37-.67,3.09,3.09,0,0,0,.5-1.86,2.41,2.41,0,0,0-.47-1.57,1.52,1.52,0,0,0-1.25-.57,1.73,1.73,0,0,0-1.35.58A2.16,2.16,0,0,0,267.05,134.32Z" fill="#1e1e1e"/>
    </g>
    <g>
      <path d="M252.78,112v-8.4h2.32q4.44,0,4.44,4.09a4.14,4.14,0,0,1-1.23,3.13A4.59,4.59,0,0,1,255,112Zm1-7.51v6.62H255a3.55,3.55,0,0,0,2.57-.89,3.31,3.31,0,0,0,.92-2.5c0-2.16-1.15-3.23-3.43-3.23Z" fill="#1e1e1e"/>
      <path d="M263.56,112.14a2.79,2.79,0,0,1-2.13-.84,3.1,3.1,0,0,1-.79-2.23,3.25,3.25,0,0,1,.83-2.36,3,3,0,0,1,2.23-.85,2.66,2.66,0,0,1,2.09.83,3.28,3.28,0,0,1,.76,2.29,3.21,3.21,0,0,1-.82,2.3A2.85,2.85,0,0,1,263.56,112.14Zm.07-5.47a1.84,1.84,0,0,0-1.47.63,2.59,2.59,0,0,0-.54,1.74,2.46,2.46,0,0,0,.55,1.68,1.85,1.85,0,0,0,1.46.61,1.75,1.75,0,0,0,1.43-.6,3.23,3.23,0,0,0,0-3.45A1.73,1.73,0,0,0,263.63,106.67Z" fill="#1e1e1e"/>
      <path d="M272.17,111.72a3.1,3.1,0,0,1-1.64.42,2.72,2.72,0,0,1-2.07-.83,3,3,0,0,1-.79-2.17,3.3,3.3,0,0,1,.85-2.38,3,3,0,0,1,2.27-.9,3.2,3.2,0,0,1,1.39.29v1a2.38,2.38,0,0,0-1.43-.47,2,2,0,0,0-1.51.66,2.5,2.5,0,0,0-.58,1.73,2.36,2.36,0,0,0,.55,1.66,1.89,1.89,0,0,0,1.48.61,2.39,2.39,0,0,0,1.48-.52Z" fill="#1e1e1e"/>
      <path d="M278.44,112h-1.35l-2.65-2.88h0V112h-1v-8.88h1v5.63h0L277,106h1.26l-2.78,2.89Z" fill="#1e1e1e"/>
      <path d="M284,109.24h-4.23a2.21,2.21,0,0,0,.54,1.55,1.85,1.85,0,0,0,1.41.54,2.94,2.94,0,0,0,1.87-.67v.91a3.52,3.52,0,0,1-2.09.57,2.52,2.52,0,0,1-2-.82,3.81,3.81,0,0,1,.07-4.58,2.51,2.51,0,0,1,2-.88,2.25,2.25,0,0,1,1.82.76,3.18,3.18,0,0,1,.64,2.12Zm-1-.81a2,2,0,0,0-.4-1.3,1.37,1.37,0,0,0-1.1-.46,1.55,1.55,0,0,0-1.15.48,2.19,2.19,0,0,0-.59,1.28Z" fill="#1e1e1e"/>
      <path d="M288.54,107a1.18,1.18,0,0,0-.73-.19,1.23,1.23,0,0,0-1,.58,2.72,2.72,0,0,0-.41,1.58V112h-1v-6h1v1.24h0a2.12,2.12,0,0,1,.63-1,1.4,1.4,0,0,1,.94-.36,1.5,1.5,0,0,1,.58.09Z" fill="#1e1e1e"/>
      <path d="M292.5,111.78v-1a2.84,2.84,0,0,0,1.73.58c.85,0,1.27-.28,1.27-.84a.76.76,0,0,0-.11-.41,1,1,0,0,0-.29-.29,2.28,2.28,0,0,0-.44-.24l-.53-.21a6.76,6.76,0,0,1-.7-.32,2.29,2.29,0,0,1-.51-.36,1.52,1.52,0,0,1-.3-.46,1.62,1.62,0,0,1-.11-.61,1.39,1.39,0,0,1,.2-.74,1.78,1.78,0,0,1,.51-.55A2.49,2.49,0,0,1,294,106a3.41,3.41,0,0,1,.85-.11,3.46,3.46,0,0,1,1.4.27v1a2.74,2.74,0,0,0-1.53-.43,1.75,1.75,0,0,0-.48.06,1.33,1.33,0,0,0-.38.17,1,1,0,0,0-.24.27.77.77,0,0,0-.08.34.87.87,0,0,0,.08.39,1,1,0,0,0,.25.29,2.48,2.48,0,0,0,.4.22l.53.22a6.21,6.21,0,0,1,.72.31,2.82,2.82,0,0,1,.54.36,1.41,1.41,0,0,1,.34.47,1.46,1.46,0,0,1,.12.62,1.5,1.5,0,0,1-.19.78,1.71,1.71,0,0,1-.53.54,2.5,2.5,0,0,1-.76.33,3.68,3.68,0,0,1-.89.1A3.41,3.41,0,0,1,292.5,111.78Z" fill="#1e1e1e"/>
      <path d="M300.79,111.94a1.82,1.82,0,0,1-.9.19c-1.05,0-1.58-.59-1.58-1.76v-3.55h-1V106h1v-1.46l1-.32V106h1.51v.82h-1.51v3.38a1.38,1.38,0,0,0,.2.86.83.83,0,0,0,.68.26,1.05,1.05,0,0,0,.63-.2Z" fill="#1e1e1e"/>
      <path d="M304.45,112.14a2.79,2.79,0,0,1-2.13-.84,3.1,3.1,0,0,1-.79-2.23,3.24,3.24,0,0,1,.82-2.36,3,3,0,0,1,2.24-.85,2.66,2.66,0,0,1,2.09.83,3.77,3.77,0,0,1-.06,4.59A2.85,2.85,0,0,1,304.45,112.14Zm.07-5.47a1.84,1.84,0,0,0-1.47.63,2.59,2.59,0,0,0-.54,1.74,2.41,2.41,0,0,0,.55,1.68,1.85,1.85,0,0,0,1.46.61,1.75,1.75,0,0,0,1.43-.6,3.23,3.23,0,0,0,0-3.45A1.73,1.73,0,0,0,304.52,106.67Z" fill="#1e1e1e"/>
      <path d="M309.9,111.13h0v3.63h-1V106h1v1h0a2.27,2.27,0,0,1,2.07-1.19,2.21,2.21,0,0,1,1.82.81,3.32,3.32,0,0,1,.65,2.15,3.74,3.74,0,0,1-.74,2.42,2.44,2.44,0,0,1-2,.9A2,2,0,0,1,309.9,111.13Zm0-2.42v.84a1.77,1.77,0,0,0,.48,1.26,1.59,1.59,0,0,0,1.23.52,1.6,1.6,0,0,0,1.37-.67,3,3,0,0,0,.49-1.85,2.41,2.41,0,0,0-.46-1.57,1.54,1.54,0,0,0-1.26-.57,1.69,1.69,0,0,0-1.34.58A2.15,2.15,0,0,0,309.88,108.71Z" fill="#1e1e1e"/>
    </g>
    <g>
      <path d="M185.05,12.32V15.5h-1V7.1h2.31a3.09,3.09,0,0,1,2.09.65,2.37,2.37,0,0,1,.74,1.86,2.55,2.55,0,0,1-.83,2,3.12,3.12,0,0,1-2.22.76Zm0-4.33v3.44h1a2.32,2.32,0,0,0,1.56-.46,1.65,1.65,0,0,0,.54-1.32c0-1.11-.66-1.66-2-1.66Z" fill="#1e1e1e"/>
      <path d="M194.71,15.5h-1v-.94h0a2,2,0,0,1-1.84,1.08,2,2,0,0,1-1.4-.47,1.65,1.65,0,0,1-.51-1.26c0-1.12.66-1.78,2-2l1.8-.25c0-1-.41-1.53-1.24-1.53a2.94,2.94,0,0,0-2,.74v-1a3.76,3.76,0,0,1,2-.56c1.41,0,2.12.75,2.12,2.24Zm-1-3-1.45.2a2.48,2.48,0,0,0-1,.34,1,1,0,0,0-.34.84.9.9,0,0,0,.32.71,1.18,1.18,0,0,0,.83.28,1.51,1.51,0,0,0,1.18-.5,1.8,1.8,0,0,0,.47-1.27Z" fill="#1e1e1e"/>
      <path d="M201.34,15.5h-1v-.95h0a2,2,0,0,1-1.85,1.09c-1.43,0-2.14-.85-2.14-2.55V9.5h.95v3.43c0,1.27.48,1.9,1.45,1.9a1.46,1.46,0,0,0,1.16-.52,2,2,0,0,0,.46-1.35V9.5h1Z" fill="#1e1e1e"/>
      <path d="M202.86,15.28v-1a2.82,2.82,0,0,0,1.73.58q1.26,0,1.26-.84a.76.76,0,0,0-.11-.41,1,1,0,0,0-.29-.29,2.19,2.19,0,0,0-.43-.24l-.54-.21a6.76,6.76,0,0,1-.7-.32,2.22,2.22,0,0,1-.5-.36,1.38,1.38,0,0,1-.31-.46,1.63,1.63,0,0,1-.1-.61,1.38,1.38,0,0,1,.19-.74,1.7,1.7,0,0,1,.52-.55,2.43,2.43,0,0,1,.73-.33,3.49,3.49,0,0,1,.86-.11,3.41,3.41,0,0,1,1.39.27v1a2.7,2.7,0,0,0-1.52-.43,1.83,1.83,0,0,0-.49.06,1.26,1.26,0,0,0-.37.17.76.76,0,0,0-.24.27.67.67,0,0,0-.09.34.75.75,0,0,0,.09.39.84.84,0,0,0,.25.29,2.11,2.11,0,0,0,.4.22l.53.22a6.85,6.85,0,0,1,.71.31,2.82,2.82,0,0,1,.54.36,1.37,1.37,0,0,1,.47,1.09,1.51,1.51,0,0,1-.2.78,1.61,1.61,0,0,1-.53.54,2.44,2.44,0,0,1-.75.33,3.82,3.82,0,0,1-.9.1A3.37,3.37,0,0,1,202.86,15.28Z" fill="#1e1e1e"/>
      <path d="M213.11,12.74h-4.23a2.21,2.21,0,0,0,.54,1.55,1.85,1.85,0,0,0,1.41.54,2.94,2.94,0,0,0,1.87-.67v.91a3.52,3.52,0,0,1-2.09.57,2.52,2.52,0,0,1-2-.82,3.31,3.31,0,0,1-.73-2.3,3.29,3.29,0,0,1,.8-2.28,2.53,2.53,0,0,1,2-.88,2.25,2.25,0,0,1,1.82.76,3.18,3.18,0,0,1,.64,2.12Zm-1-.81a2,2,0,0,0-.4-1.3,1.37,1.37,0,0,0-1.1-.46,1.55,1.55,0,0,0-1.15.48,2.19,2.19,0,0,0-.59,1.28Z" fill="#1e1e1e"/>
      <path d="M219.75,15.5h-1v-1h0a2.42,2.42,0,0,1-3.87.35,3.23,3.23,0,0,1-.68-2.19,3.57,3.57,0,0,1,.75-2.38,2.48,2.48,0,0,1,2-.9,1.93,1.93,0,0,1,1.8,1h0V6.62h1Zm-1-2.71V11.9a1.73,1.73,0,0,0-.48-1.23,1.78,1.78,0,0,0-2.6.14,2.81,2.81,0,0,0-.51,1.78,2.49,2.49,0,0,0,.49,1.64,1.57,1.57,0,0,0,1.29.6,1.65,1.65,0,0,0,1.31-.58A2.16,2.16,0,0,0,218.79,12.79Z" fill="#1e1e1e"/>
    </g>
    <path d="M181.61,47.68h.75v9h-.75Zm4.5,0v9h-.75v-9Z" fill="#1e1e1e"/>
    <path d="M59.3,141.08a5.6,5.6,0,0,1-.22,1.59,5.89,5.89,0,0,1-.62,1.46,6.44,6.44,0,0,1-1,1.24,6,6,0,0,1-1.29,1H57.8v.75h-3v-3h.75v1.72a5.13,5.13,0,0,0,1.24-.82,5.28,5.28,0,0,0,1.54-2.43,5.1,5.1,0,0,0,0-2.86,5,5,0,0,0-.53-1.26,5.27,5.27,0,0,0-.82-1.06,5.33,5.33,0,0,0-1.07-.82,5.19,5.19,0,0,0-4-.53,5,5,0,0,0-1.26.53,5.27,5.27,0,0,0-1.06.82,4.93,4.93,0,0,0-.82,1.06,5,5,0,0,0-.53,1.26,4.91,4.91,0,0,0-.19,1.39,5,5,0,0,0,.28,1.69,5.27,5.27,0,0,0,2,2.64,5.07,5.07,0,0,0,1.56.73l-.2.72a5.69,5.69,0,0,1-1.22-.5,5.57,5.57,0,0,1-1.07-.72,6,6,0,0,1-.88-.93,5.87,5.87,0,0,1-1.23-3.63,5.9,5.9,0,0,1,.82-3,6.05,6.05,0,0,1,.94-1.21,5.78,5.78,0,0,1,1.21-.94,6.29,6.29,0,0,1,1.43-.61,6.11,6.11,0,0,1,1.6-.21,6,6,0,0,1,1.59.21,6.29,6.29,0,0,1,1.43.61,5.84,5.84,0,0,1,1.22.94,6.44,6.44,0,0,1,.94,1.21,5.92,5.92,0,0,1,.6,1.44A5.6,5.6,0,0,1,59.3,141.08Zm-3,0-4.5,2.59v-5.19Zm-3.75,1.3,2.25-1.3-2.25-1.3Z" fill="#1e1e1e"/>
  </g>
</svg>
