<svg xmlns="http://www.w3.org/2000/svg" viewBox="0 0 355 124.83">
  <title>app-overview</title>
  <g id="Shapes">
    <rect width="355" height="124.83" fill="#fff"/>
    <g>
      <line x1="2.68" y1="62.06" x2="124.62" y2="62.06" fill="none" stroke="#3c3c41" stroke-miterlimit="10"/>
      <path d="M2.82,64.88a2.82,2.82,0,1,1,2.82-2.82A2.82,2.82,0,0,1,2.82,64.88Z" fill="#3c3c41"/>
      <polygon points="123.52 65.81 130 62.06 123.52 58.33 123.52 65.81" fill="#3c3c41"/>
    </g>
    <g>
      <rect x="14.35" y="29.83" width="95.94" height="95" fill="#fff"/>
      <rect x="14.35" y="29.83" width="95.94" height="95" fill="#3c3c41" opacity="0.08"/>
    </g>
    <g>
      <rect x="19.11" y="94.83" width="86.43" height="25" fill="#fff"/>
      <rect x="19.11" y="94.83" width="86.43" height="25" fill="#3c3c41" opacity="0.35"/>
    </g>
    <g>
      <rect x="130.29" y="29.83" width="95" height="95" fill="#fff"/>
      <rect x="130.29" y="29.83" width="95" height="95" fill="#3c3c41" opacity="0.08"/>
    </g>
    <g>
      <rect x="135.17" y="94.83" width="85.24" height="25" fill="#fff"/>
      <rect x="135.17" y="94.83" width="85.24" height="25" fill="#3c3c41" opacity="0.35"/>
    </g>
    <g>
      <rect x="245" y="29.83" width="110" height="95" fill="#fff"/>
      <rect x="245" y="29.83" width="110" height="95" fill="#3c3c41" opacity="0.2"/>
    </g>
    <g>
      <rect x="249.88" y="94.83" width="100.24" height="25" fill="#fff"/>
      <rect x="249.88" y="94.83" width="100.24" height="25" fill="#3c3c41" opacity="0.35"/>
    </g>
    <path d="M64.47,55.79a9.4,9.4,0,0,1,5.16.79A3.88,3.88,0,0,1,71.53,60a.38.38,0,0,1-.41.28H69.63a.39.39,0,0,1-.37-.39,2.31,2.31,0,0,0-1.1-1.58,6.34,6.34,0,0,0-3-.44,4,4,0,0,0-2.17.54,1.36,1.36,0,0,0-.45,1.52c.16.39.61.51,1,.63,2.09.54,4.3.49,6.35,1.22a3,3,0,0,1,2,1.74A3.74,3.74,0,0,1,71.19,67a5,5,0,0,1-2.69,1.45,12.52,12.52,0,0,1-4,.18,6.46,6.46,0,0,1-3.57-1.35,3.73,3.73,0,0,1-1.2-2.95.33.33,0,0,1,.36-.3h1.53a.35.35,0,0,1,.36.33v0A2.31,2.31,0,0,0,62.79,66a6.55,6.55,0,0,0,3.5.64A4.7,4.7,0,0,0,69.16,66a1.59,1.59,0,0,0,.43-1.51c-.12-.45-.58-.65-1-.79-2.06-.64-4.3-.41-6.34-1.15a3.11,3.11,0,0,1-1.95-1.7A3.48,3.48,0,0,1,61,57.2a5.62,5.62,0,0,1,3.49-1.39ZM61,46.4a2.69,2.69,0,0,1,2.61,0l12,6.76a2.47,2.47,0,0,1,1.25,2.12V68.84A2.49,2.49,0,0,1,75.51,71L63.58,77.74a2.62,2.62,0,0,1-2.65-.07L57.36,75.6a2.27,2.27,0,0,1-.7-.49c.16-.21.43-.24.65-.33a9.16,9.16,0,0,0,1.42-.66.32.32,0,0,1,.36,0c1,.58,2,1.19,3.06,1.77.21.11.43,0,.61-.15l11.72-6.61a.38.38,0,0,0,.21-.38V55.35a.42.42,0,0,0-.25-.43L62.55,48.23a.43.43,0,0,0-.46,0L50.2,54.93a.42.42,0,0,0-.25.42V68.77a.4.4,0,0,0,.22.38l3.18,1.79a2.42,2.42,0,0,0,2,.27,1.53,1.53,0,0,0,1-1.42V56.44a.34.34,0,0,1,.32-.35H58.2a.34.34,0,0,1,.34.36.06.06,0,0,1,0,0V69.92A3.4,3.4,0,0,1,56.94,73a4.89,4.89,0,0,1-4.38-.11c-1.17-.58-2.27-1.27-3.42-1.89a2.49,2.49,0,0,1-1.34-2.16V55.28a2.45,2.45,0,0,1,1.28-2.15L61,46.39Z" fill="#8cc84b"/>
    <path d="M179.94,55.79a9.37,9.37,0,0,1,5.16.79A3.88,3.88,0,0,1,187,60a.37.37,0,0,1-.4.28h-1.5a.39.39,0,0,1-.37-.39,2.31,2.31,0,0,0-1.1-1.58,6.34,6.34,0,0,0-3-.44,4,4,0,0,0-2.16.54,1.35,1.35,0,0,0-.46,1.52c.17.39.61.51,1,.63,2.09.54,4.3.49,6.35,1.22a3,3,0,0,1,2,1.74,3.74,3.74,0,0,1-.64,3.57A5,5,0,0,1,184,68.49a12.59,12.59,0,0,1-4.06.18,6.46,6.46,0,0,1-3.57-1.35,3.73,3.73,0,0,1-1.2-2.95.34.34,0,0,1,.37-.3H177a.35.35,0,0,1,.36.33v0a2.31,2.31,0,0,0,.86,1.62,6.55,6.55,0,0,0,3.5.64,4.7,4.7,0,0,0,2.87-.71,1.56,1.56,0,0,0,.43-1.51c-.11-.45-.58-.65-1-.79-2.06-.64-4.3-.41-6.34-1.15a3.11,3.11,0,0,1-1.95-1.7,3.48,3.48,0,0,1,.69-3.62A5.62,5.62,0,0,1,180,55.81Zm-3.45-9.39a2.69,2.69,0,0,1,2.61,0l12,6.76a2.45,2.45,0,0,1,1.25,2.12V68.84A2.49,2.49,0,0,1,191,71l-11.93,6.73a2.62,2.62,0,0,1-2.65-.07l-3.57-2.07a2.27,2.27,0,0,1-.7-.49c.16-.21.43-.24.66-.33a9.05,9.05,0,0,0,1.41-.66.32.32,0,0,1,.36,0c1,.58,2,1.19,3.06,1.77.21.11.43,0,.62-.15L190,69.15a.38.38,0,0,0,.21-.38V55.35a.41.41,0,0,0-.25-.43Q184,51.59,178,48.23a.44.44,0,0,0-.47,0l-11.89,6.7a.43.43,0,0,0-.25.42V68.77a.4.4,0,0,0,.22.38l3.18,1.79a2.42,2.42,0,0,0,2,.27,1.53,1.53,0,0,0,1-1.42V56.44a.34.34,0,0,1,.32-.35h1.57a.34.34,0,0,1,.34.36V69.92a3.43,3.43,0,0,1-1.6,3.08,4.89,4.89,0,0,1-4.38-.11c-1.17-.58-2.27-1.27-3.42-1.89a2.49,2.49,0,0,1-1.34-2.16V55.28a2.45,2.45,0,0,1,1.28-2.15q6-3.36,11.94-6.74Z" fill="#8cc84b"/>
    <g>
      <path d="M338.89,59.85c-.08,0-.16.19-.16.29,0,.65,0,2.37,0,3.54,0,0,.05.1.1.1.24,0,.82,0,1.33,0a3.65,3.65,0,0,0,1.33-.19,1.75,1.75,0,0,0,.86-1.63c0-1.57-1.1-2.17-2.74-2.17a2.43,2.43,0,0,0-.69,0Zm4.19,7.26c0-1.61-1.18-2.5-3.33-2.5-.09,0-.78,0-.94,0s-.11,0-.11.1c0,1.15,0,3,0,3.7a1.21,1.21,0,0,0,.54.88,3.76,3.76,0,0,0,1.41.19,2.21,2.21,0,0,0,2.4-2.38ZM335.58,59c.16,0,.65,0,1.9,0s2.13,0,3.28,0c1.41,0,3.36.5,3.36,2.62a2.54,2.54,0,0,1-1.69,2.27s0,0,0,.06c1.37.35,2.57,1.19,2.57,2.78a3.41,3.41,0,0,1-2.39,3.17,7.82,7.82,0,0,1-3,.5c-.83,0-3-.1-4.29-.06-.13,0,.12-.64.23-.73a3.57,3.57,0,0,0,.83-.13c.44-.12.49-.25.55-.91s0-2.59,0-4c0-2,0-3.3,0-4s-.19-.67-.55-.76l-1.1-.17c-.08-.08.19-.63.29-.7Zm-9.37,10.11a3.34,3.34,0,0,0,1.84.43,3.59,3.59,0,0,0,2.59-.92,4.94,4.94,0,0,0,1.47-3.9,4.64,4.64,0,0,0-2.13-4.2,5.69,5.69,0,0,0-3.06-.72,2.57,2.57,0,0,0-.9.11.52.52,0,0,0-.17.26c0,.33,0,2.83,0,4.29s0,3.62,0,3.87a1,1,0,0,0,.36.78ZM322.52,59c.31,0,1.5,0,2.07,0,1,0,1.75,0,3.68,0a6,6,0,0,1,4,1.27,5.28,5.28,0,0,1,1.8,4.16,5.46,5.46,0,0,1-2.24,4.68,7.58,7.58,0,0,1-4.66,1.31c-1.11,0-3,0-4.58-.05h0c-.08-.14.13-.71.26-.73a2.75,2.75,0,0,0,.75-.14c.34-.13.4-.31.45-.91.05-1.12,0-2.47,0-4,0-1.09,0-3.21,0-3.9s-.29-.71-.78-.81c-.25,0-.57-.11-1-.16-.07-.11.22-.62.3-.72Z" fill="#8e714e" fill-rule="evenodd"/>
      <path d="M302.87,69.69a3.08,3.08,0,0,1-1.05-.28.46.46,0,0,1-.13-.26c0-.56,0-2.19,0-3.28a3.84,3.84,0,0,0-.52-2.17,2.23,2.23,0,0,0-1.89-1,4.39,4.39,0,0,0-2.47,1.17s-.14.13-.13,0,0-.53.05-.78a.42.42,0,0,0-.11-.34,10.87,10.87,0,0,1-2.52.65c-.39.08-.49.46-.08.59h0a3.44,3.44,0,0,1,.95.42.48.48,0,0,1,.15.45c0,1.22,0,3.09,0,4.11,0,.41-.13.55-.42.62l0,0a5.88,5.88,0,0,1-.68.13.93.93,0,0,0,0,.73c.17,0,1.12,0,1.9,0,1.07,0,1.62,0,1.9,0a1.1,1.1,0,0,0,.08-.73,3,3,0,0,1-.75-.11c-.29-.07-.37-.21-.39-.55,0-.86,0-2.68,0-3.92a.82.82,0,0,1,.19-.6,2.51,2.51,0,0,1,1.51-.55,1.68,1.68,0,0,1,1.12.37,1.62,1.62,0,0,1,.52,1c.08.7.05,2.08.05,3.28,0,.65-.05.81-.29.89a3.39,3.39,0,0,1-.75.15,1,1,0,0,0,0,.73c.47,0,1,0,1.84,0,1,0,1.65,0,1.91,0a1,1,0,0,0,.05-.7Zm4.5-6.2c-.86,0-1.39.66-1.39,1.7s.47,2.27,1.8,2.27a1.22,1.22,0,0,0,.84-.32,2.14,2.14,0,0,0,.52-1.49c0-1.35-.66-2.16-1.77-2.16Zm-.11,7.17a1.41,1.41,0,0,0-.7.18c-.68.44-1,.86-1,1.37a1.45,1.45,0,0,0,.57,1.17,2.92,2.92,0,0,0,1.95.6c1.65,0,2.38-.9,2.38-1.77a1.22,1.22,0,0,0-.94-1.25,6.37,6.37,0,0,0-2.27-.3Zm.11,4.23a3.54,3.54,0,0,1-2.32-.69,2.12,2.12,0,0,1-.86-1.6,1.27,1.27,0,0,1,.32-.82,9.33,9.33,0,0,1,1.5-1.2.06.06,0,0,0,.05-.06.11.11,0,0,0-.07-.08,1.55,1.55,0,0,1-1.05-1v0c0-.1-.05-.19.09-.29l.46-.29a6.78,6.78,0,0,0,.74-.49.11.11,0,0,0,0-.1s0-.06-.07-.08a2.37,2.37,0,0,1-1.7-2.48,2.46,2.46,0,0,1,1-2.05,4.73,4.73,0,0,1,2.34-.8h0a5.07,5.07,0,0,1,1.79.39,2.88,2.88,0,0,0,1.06.17,1.38,1.38,0,0,0,1.13-.43.94.94,0,0,1,.07.33,1.3,1.3,0,0,1-.21.75,1,1,0,0,1-.72.3H311a3.9,3.9,0,0,1-.42-.06l-.07,0a.19.19,0,0,0,0,.12l0,0a6.1,6.1,0,0,1,.09.7,2.62,2.62,0,0,1-1.1,2.35,3.67,3.67,0,0,1-1.9.73l-.23,0h-.23c-.13,0-.45.2-.45.48s.15.53.84.58c.15,0,.3,0,.46,0a14.46,14.46,0,0,1,2.61.33,1.81,1.81,0,0,1,1.22,1.73,3.57,3.57,0,0,1-2.29,3,5.35,5.35,0,0,1-2.16.47Zm9.26-11.32a1.54,1.54,0,0,0-.88.24,2.52,2.52,0,0,0-1,2.31c0,2.12,1.08,3.62,2.6,3.62a1.64,1.64,0,0,0,1.12-.39,2.89,2.89,0,0,0,.72-2.26c0-2.11-1.06-3.52-2.6-3.52Zm.29,6.95c-2.76,0-3.75-2-3.75-3.93a3.53,3.53,0,0,1,1.61-3.09,4.88,4.88,0,0,1,2.48-.73,3.48,3.48,0,0,1,3.59,3.69,3.77,3.77,0,0,1-1.7,3.36,4.52,4.52,0,0,1-2.23.7ZM288,63.57a1.54,1.54,0,0,0-.88.24,2.52,2.52,0,0,0-1,2.31c0,2.12,1.07,3.62,2.59,3.62a1.63,1.63,0,0,0,1.12-.39,2.86,2.86,0,0,0,.72-2.26c0-2.11-1-3.52-2.6-3.52Zm.29,6.95c-2.76,0-3.75-2-3.75-3.93a3.53,3.53,0,0,1,1.61-3.09,4.88,4.88,0,0,1,2.48-.73,3.48,3.48,0,0,1,3.59,3.69,3.77,3.77,0,0,1-1.7,3.36,4.39,4.39,0,0,1-2.23.7Zm-18.56-.16a.83.83,0,0,1,0-.38.47.47,0,0,1,0-.24,6.2,6.2,0,0,0,.72-.15c.32-.08.45-.26.47-.66.05-1,.05-2.83,0-4.11v0a.49.49,0,0,0-.18-.45,3.67,3.67,0,0,0-1-.42c-.15,0-.25-.13-.23-.23s.1-.21.31-.24a11.62,11.62,0,0,0,2.48-.64.44.44,0,0,1,.08.26v.18a5.49,5.49,0,0,0,0,.6.13.13,0,0,0,.13.12.18.18,0,0,0,.1,0,4.58,4.58,0,0,1,2.47-1.1A2.09,2.09,0,0,1,277,64a.14.14,0,0,0,.12.07.14.14,0,0,0,.1-.05,4.9,4.9,0,0,1,2.54-1.17c1.52,0,2.41,1.12,2.41,3,0,.54,0,1.23,0,1.87s0,1.09,0,1.46a.51.51,0,0,0,.29.39,3.78,3.78,0,0,0,.94.23h0a1.38,1.38,0,0,1-.1.61h-.41c-.31,0-.74,0-1.23,0-1,0-1.53,0-2,0a1.56,1.56,0,0,1,0-.61,5.17,5.17,0,0,0,.62-.15c.32-.1.4-.24.42-.67s.06-2.93,0-3.57A1.61,1.61,0,0,0,278.92,64a2.88,2.88,0,0,0-1.66.63.35.35,0,0,0-.06.16v0a8.09,8.09,0,0,1,.06,1.33v1.06c0,.73,0,1.41,0,1.93a.47.47,0,0,0,.39.5l.25,0,.52.12a.88.88,0,0,1,0,.45c0,.1,0,.15-.07.16-.55,0-1.12,0-1.94,0l-1,0h-.73a.94.94,0,0,1-.05-.32.49.49,0,0,1,.07-.29.85.85,0,0,1,.23,0l.52-.09c.27-.08.37-.23.38-.59a28.7,28.7,0,0,0,0-3.72,1.53,1.53,0,0,0-1.59-1.41,3,3,0,0,0-1.66.63.55.55,0,0,0-.15.38v1c0,1.16,0,2.63,0,3.26a.51.51,0,0,0,.46.5,3.1,3.1,0,0,0,.37.07l.29.05a1.31,1.31,0,0,1-.05.61h-.58c-.34,0-.78,0-1.27,0s-1,0-1.3,0a4.23,4.23,0,0,0-.6,0Z" fill="#442d22" fill-rule="evenodd"/>
      <g>
        <path d="M261.17,74.25,260.5,74s.08-3.4-1.13-3.64c-.82-.94.13-39.95,3.05-.13a2.37,2.37,0,0,0-1.19,1.36,12.76,12.76,0,0,0-.06,2.63Z" fill="#fff" fill-rule="evenodd"/>
        <path d="M261.17,74.25,260.5,74s.08-3.4-1.13-3.64c-.82-.94.13-39.95,3.05-.13a2.37,2.37,0,0,0-1.19,1.36,12.76,12.76,0,0,0-.06,2.63Z" fill="#a6a385" fill-rule="evenodd"/>
        <path d="M261.53,71A11.78,11.78,0,0,0,266,59.17c-1.31-5.8-4.42-7.7-4.76-8.43a8.45,8.45,0,0,1-.73-1.43l.25,16.12s-.51,4.94.78,5.54" fill="#fff" fill-rule="evenodd"/>
        <path d="M261.53,71A11.78,11.78,0,0,0,266,59.17c-1.31-5.8-4.42-7.7-4.76-8.43a8.45,8.45,0,0,1-.73-1.43l.25,16.12s-.51,4.94.78,5.54" fill="#499d4a" fill-rule="evenodd"/>
        <path d="M260.16,71.18s-5.47-3.73-5.15-10.31a13.85,13.85,0,0,1,4.92-10.39,1.51,1.51,0,0,0,.54-1.24c.34.73.28,10.93.33,12.13.14,4.63-.26,8.94-.64,9.81Z" fill="#fff" fill-rule="evenodd"/>
        <path d="M260.16,71.18s-5.47-3.73-5.15-10.31a13.85,13.85,0,0,1,4.92-10.39,1.51,1.51,0,0,0,.54-1.24c.34.73.28,10.93.33,12.13.14,4.63-.26,8.94-.64,9.81Z" fill="#58aa50" fill-rule="evenodd"/>
      </g>
    </g>
    <g>
      <line x1="177.79" y1="29.83" x2="177.79" y2="17.51" fill="none" stroke="#3c3c41" stroke-miterlimit="10"/>
      <path d="M180.61,17.65a2.82,2.82,0,1,0-2.82,2.82A2.82,2.82,0,0,0,180.61,17.65Z" fill="#3c3c41"/>
    </g>
    <g>
      <line x1="225" y1="62.06" x2="239.65" y2="62.06" fill="none" stroke="#5e9624" stroke-miterlimit="10"/>
      <polygon points="238.55 65.81 245.03 62.06 238.55 58.33 238.55 65.81" fill="#5e9624"/>
    </g>
  </g>
  <g id="Text">
    <g>
      <path d="M145.35,3.48a4.06,4.06,0,0,0-.87-.35,3.49,3.49,0,0,0-1-.13,2.6,2.6,0,0,0-1.08.22,2.11,2.11,0,0,0-.8.61,2.69,2.69,0,0,0-.5,1A4.07,4.07,0,0,0,140.94,6a4.86,4.86,0,0,0,.14,1.26,2.46,2.46,0,0,0,.44,1,1.93,1.93,0,0,0,.76.59,2.7,2.7,0,0,0,1.12.2h.24l.26,0,.24-.05.22-.06V6.42h-1.57V5.56h2.6V9.47a3.86,3.86,0,0,1-.51.2,4.77,4.77,0,0,1-.54.15,5.43,5.43,0,0,1-.56.09l-.53,0a3.93,3.93,0,0,1-1.41-.24A3,3,0,0,1,140.76,9a3.3,3.3,0,0,1-.68-1.21,5.57,5.57,0,0,1-.23-1.67,5,5,0,0,1,.26-1.69,3.65,3.65,0,0,1,.74-1.26A3.08,3.08,0,0,1,142,2.34a3.94,3.94,0,0,1,1.48-.27,5.18,5.18,0,0,1,1,.09,3.44,3.44,0,0,1,.89.29Z"/>
      <path d="M151.38,9.83H147V2.17h4.35v.88h-3.31V5.42h3.18V6.3h-3.18V8.94h3.31Z"/>
      <path d="M158.21,3.06h-2.27V9.83h-1.05V3.06h-2.27V2.17h5.59Z"/>
      <path d="M171.22,1.55l-4,9.54h-1l4-9.54Z"/>
      <path d="M177.43,9.83h-1V6.07a1.65,1.65,0,0,0-.25-1,.86.86,0,0,0-.73-.34,1.23,1.23,0,0,0-.39.06,1.19,1.19,0,0,0-.37.19,2.65,2.65,0,0,0-.42.37c-.15.16-.33.35-.53.59v3.9h-1V1.55h1V4l0,.92a3.58,3.58,0,0,1,.47-.48,2.55,2.55,0,0,1,.46-.32,2.27,2.27,0,0,1,.47-.18,2.73,2.73,0,0,1,.5-.05,1.72,1.72,0,0,1,1.36.54A2.33,2.33,0,0,1,177.43,6Z"/>
      <path d="M184.23,6.58c0,.14,0,.26,0,.36s0,.19,0,.28h-4.13a1.8,1.8,0,0,0,.5,1.38,2,2,0,0,0,1.45.48,4.52,4.52,0,0,0,.52,0l.5-.05.46-.08.4-.1v.84a6.76,6.76,0,0,1-.94.19,7.64,7.64,0,0,1-1.08.07,3.68,3.68,0,0,1-1.31-.2,2.26,2.26,0,0,1-.89-.6,2.35,2.35,0,0,1-.51-1A4.22,4.22,0,0,1,179,6.9a3.83,3.83,0,0,1,.18-1.18,3,3,0,0,1,.52-1,2.47,2.47,0,0,1,.84-.66,2.44,2.44,0,0,1,1.13-.25,3.07,3.07,0,0,1,1.09.19,2.28,2.28,0,0,1,.8.55,2.36,2.36,0,0,1,.49.86A3.69,3.69,0,0,1,184.23,6.58Zm-1.06-.15a2.1,2.1,0,0,0-.08-.72,1.57,1.57,0,0,0-.29-.56,1.39,1.39,0,0,0-.49-.36,1.59,1.59,0,0,0-.68-.13,1.54,1.54,0,0,0-.61.12,1.4,1.4,0,0,0-.47.37,1.79,1.79,0,0,0-.32.56,2.36,2.36,0,0,0-.15.72Z"/>
      <path d="M189.46,9.83l0-.79a3.24,3.24,0,0,1-1,.68,2.87,2.87,0,0,1-1.9.09,1.64,1.64,0,0,1-.59-.36,1.31,1.31,0,0,1-.34-.53,2,2,0,0,1-.11-.66,1.66,1.66,0,0,1,.66-1.39,3.22,3.22,0,0,1,1.95-.5h1.22V5.86A1.11,1.11,0,0,0,189,5a1.43,1.43,0,0,0-1-.31,4.6,4.6,0,0,0-1,.11,6.39,6.39,0,0,0-1,.32V4.22a3.62,3.62,0,0,1,.43-.14,4.05,4.05,0,0,1,.5-.12,4.85,4.85,0,0,1,.55-.09l.58,0A3.63,3.63,0,0,1,189,4a2,2,0,0,1,.72.36,1.49,1.49,0,0,1,.45.6,2,2,0,0,1,.16.85V9.83Zm-.11-2.68h-1.3a2.59,2.59,0,0,0-.66.08,1.34,1.34,0,0,0-.45.21,1.06,1.06,0,0,0-.26.34,1.23,1.23,0,0,0-.08.44,1.14,1.14,0,0,0,.05.33.77.77,0,0,0,.17.27.74.74,0,0,0,.31.19,1.18,1.18,0,0,0,.45.07,2,2,0,0,0,.81-.21,4,4,0,0,0,1-.68Z"/>
      <path d="M194,2.39h-1.74V1.55H195V9h1.75v.85H192V9H194Z"/>
      <path d="M202.45,9.75a4.21,4.21,0,0,1-.71.12,6.28,6.28,0,0,1-.75,0,2.42,2.42,0,0,1-1.66-.5,2,2,0,0,1-.54-1.54V4.8h-1.65V4h1.65V2.33l1-.26V4h2.64V4.8h-2.64v3a1.23,1.23,0,0,0,.34,1,1.38,1.38,0,0,0,1,.31,4.45,4.45,0,0,0,.61,0,6.19,6.19,0,0,0,.7-.14Z"/>
      <path d="M208.77,9.83h-1V6.07a1.65,1.65,0,0,0-.26-1,.85.85,0,0,0-.73-.34,1.21,1.21,0,0,0-.38.06A1.19,1.19,0,0,0,206,5a2.65,2.65,0,0,0-.42.37c-.16.16-.33.35-.53.59v3.9h-1V1.55h1V4l0,.92a3.62,3.62,0,0,1,.48-.48,2.25,2.25,0,0,1,.46-.32,2.07,2.07,0,0,1,.47-.18,2.73,2.73,0,0,1,.5-.05,1.73,1.73,0,0,1,1.36.54A2.33,2.33,0,0,1,208.77,6Z"/>
      <path d="M215.11,9.83h-4.74V9.1l3.32-4.3h-3.24V4h4.47v.79L211.65,9h3.46Z"/>
    </g>
    <g>
      <path d="M35.35,105.8a1.14,1.14,0,0,0-.72-.19,1.23,1.23,0,0,0-1,.58,2.64,2.64,0,0,0-.41,1.58v3.06h-1v-6h1v1.24h0a2.07,2.07,0,0,1,.63-1,1.54,1.54,0,0,1,1.51-.27Z" fill="#1e1e1e"/>
      <path d="M40.66,110.83h-1v-.94h0a2.2,2.2,0,0,1-3.25.61,1.68,1.68,0,0,1-.5-1.26c0-1.13.66-1.78,2-2l1.8-.25c0-1-.42-1.53-1.24-1.53a2.94,2.94,0,0,0-2,.74v-1a3.76,3.76,0,0,1,2-.56c1.41,0,2.12.74,2.12,2.24Zm-1-3-1.45.2a2.59,2.59,0,0,0-1,.33,1,1,0,0,0-.34.85.9.9,0,0,0,.32.71,1.16,1.16,0,0,0,.83.28,1.55,1.55,0,0,0,1.18-.5,1.8,1.8,0,0,0,.47-1.27Z" fill="#1e1e1e"/>
      <path d="M45.17,110.77a1.76,1.76,0,0,1-.89.19c-1.05,0-1.58-.59-1.58-1.76v-3.55h-1v-.82h1v-1.47l1-.31v1.78h1.51v.82H43.66V109a1.37,1.37,0,0,0,.21.86.81.81,0,0,0,.68.26,1,1,0,0,0,.62-.2Z" fill="#1e1e1e"/>
      <path d="M46.86,103.31a.6.6,0,0,1-.44-.18.61.61,0,0,1-.18-.45.59.59,0,0,1,.18-.44.6.6,0,0,1,.44-.18.61.61,0,0,1,.45.18.63.63,0,0,1-.45,1.07Zm.47,7.52h-1v-6h1Z" fill="#1e1e1e"/>
      <path d="M54.14,110.83h-1v-3.42c0-1.28-.46-1.91-1.39-1.91a1.5,1.5,0,0,0-1.19.54,2,2,0,0,0-.47,1.37v3.42h-1v-6h1v1h0a2.16,2.16,0,0,1,2-1.14,1.83,1.83,0,0,1,1.5.63,2.84,2.84,0,0,1,.53,1.84Z" fill="#1e1e1e"/>
      <path d="M61.07,110.35q0,3.3-3.17,3.3a4.23,4.23,0,0,1-1.94-.42v-1a3.92,3.92,0,0,0,1.93.56c1.48,0,2.22-.78,2.22-2.35v-.66h0a2.42,2.42,0,0,1-3.86.35,3.17,3.17,0,0,1-.68-2.15,3.73,3.73,0,0,1,.73-2.43,2.46,2.46,0,0,1,2-.9,2,2,0,0,1,1.8,1h0v-.83h1Zm-1-2.23v-.89a1.67,1.67,0,0,0-.49-1.22,1.58,1.58,0,0,0-1.2-.51,1.69,1.69,0,0,0-1.4.64,3,3,0,0,0-.5,1.82,2.48,2.48,0,0,0,.48,1.6,1.57,1.57,0,0,0,1.28.6,1.69,1.69,0,0,0,1.32-.57A2.16,2.16,0,0,0,60.11,108.12Z" fill="#1e1e1e"/>
      <path d="M62.59,110.61v-1a2.82,2.82,0,0,0,1.73.58q1.26,0,1.26-.84a.68.68,0,0,0-.11-.41,1.17,1.17,0,0,0-.29-.3,2.86,2.86,0,0,0-.43-.23l-.54-.21c-.26-.11-.5-.21-.7-.32a2.22,2.22,0,0,1-.5-.36,1.38,1.38,0,0,1-.31-.46,1.66,1.66,0,0,1-.1-.61,1.38,1.38,0,0,1,.19-.74,1.7,1.7,0,0,1,.52-.55,2.21,2.21,0,0,1,.73-.33,3.49,3.49,0,0,1,.86-.11,3.41,3.41,0,0,1,1.39.27v1a2.7,2.7,0,0,0-1.52-.43,1.88,1.88,0,0,0-.49.06,1.26,1.26,0,0,0-.37.17.88.88,0,0,0-.24.27.67.67,0,0,0-.09.34.75.75,0,0,0,.09.39.83.83,0,0,0,.25.28,1.68,1.68,0,0,0,.4.23l.53.21c.27.11.5.21.71.32a2.3,2.3,0,0,1,.54.36,1.37,1.37,0,0,1,.47,1.09,1.51,1.51,0,0,1-.2.78,1.68,1.68,0,0,1-.52.54,2.26,2.26,0,0,1-.76.32,3.76,3.76,0,0,1-.9.11A3.37,3.37,0,0,1,62.59,110.61Z" fill="#1e1e1e"/>
      <path d="M70.84,107.86h-3.2v-.75h3.2Z" fill="#1e1e1e"/>
      <path d="M80,104.83l-1.8,6h-1L76,106.53a2.26,2.26,0,0,1-.09-.55h0a2.44,2.44,0,0,1-.12.54l-1.34,4.31h-1l-1.82-6h1l1.24,4.51a2.38,2.38,0,0,1,.08.54h0a2.91,2.91,0,0,1,.1-.55l1.39-4.5h.88l1.24,4.52a3.36,3.36,0,0,1,.09.54h0a2.61,2.61,0,0,1,.1-.54l1.22-4.52Z" fill="#1e1e1e"/>
      <path d="M85.86,108.07H81.62a2.3,2.3,0,0,0,.54,1.55,1.87,1.87,0,0,0,1.42.54,2.93,2.93,0,0,0,1.86-.67v.91a3.5,3.5,0,0,1-2.09.57,2.52,2.52,0,0,1-2-.82,3.36,3.36,0,0,1-.73-2.3,3.29,3.29,0,0,1,.8-2.28,2.53,2.53,0,0,1,2-.88,2.25,2.25,0,0,1,1.82.76,3.18,3.18,0,0,1,.65,2.12Zm-1-.82a2,2,0,0,0-.4-1.29,1.36,1.36,0,0,0-1.1-.46,1.55,1.55,0,0,0-1.15.48,2.25,2.25,0,0,0-.59,1.27Z" fill="#1e1e1e"/>
      <path d="M88.29,110h0v.87h-1V102h1v3.93h0a2.3,2.3,0,0,1,2.08-1.19,2.23,2.23,0,0,1,1.81.8,3.37,3.37,0,0,1,.65,2.16,3.74,3.74,0,0,1-.73,2.41,2.44,2.44,0,0,1-2,.91A2,2,0,0,1,88.29,110Zm0-2.42v.84a1.77,1.77,0,0,0,.48,1.26,1.73,1.73,0,0,0,2.6-.15,3,3,0,0,0,.49-1.85,2.39,2.39,0,0,0-.46-1.57,1.53,1.53,0,0,0-1.25-.57,1.7,1.7,0,0,0-1.35.58A2.15,2.15,0,0,0,88.27,107.54Z" fill="#1e1e1e"/>
    </g>
    <g>
      <path d="M153.85,105.8a1.18,1.18,0,0,0-.73-.19,1.23,1.23,0,0,0-1,.58,2.72,2.72,0,0,0-.41,1.58v3.06h-1v-6h1v1.24h0a2,2,0,0,1,.62-1,1.43,1.43,0,0,1,.95-.36,1.41,1.41,0,0,1,.57.09Z" fill="#1e1e1e"/>
      <path d="M159.15,110.83h-1v-.94h0a2,2,0,0,1-1.85,1.08,2,2,0,0,1-1.4-.47,1.65,1.65,0,0,1-.51-1.26c0-1.13.66-1.78,2-2l1.8-.25q0-1.53-1.23-1.53a2.91,2.91,0,0,0-2,.74v-1a3.76,3.76,0,0,1,2-.56c1.41,0,2.11.74,2.11,2.24Zm-1-3-1.45.2a2.54,2.54,0,0,0-1,.33,1,1,0,0,0-.34.85.89.89,0,0,0,.31.71,1.19,1.19,0,0,0,.83.28,1.57,1.57,0,0,0,1.19-.5,1.79,1.79,0,0,0,.46-1.27Z" fill="#1e1e1e"/>
      <path d="M163.67,110.77a1.82,1.82,0,0,1-.9.19c-1.05,0-1.57-.59-1.57-1.76v-3.55h-1v-.82h1v-1.47l1-.31v1.78h1.51v.82h-1.51V109a1.45,1.45,0,0,0,.2.86.84.84,0,0,0,.68.26,1.05,1.05,0,0,0,.63-.2Z" fill="#1e1e1e"/>
      <path d="M165.35,103.31a.63.63,0,0,1-.62-.63.56.56,0,0,1,.19-.44.58.58,0,0,1,.43-.18.61.61,0,0,1,.45.18.6.6,0,0,1,0,.88A.58.58,0,0,1,165.35,103.31Zm.47,7.52h-1v-6h1Z" fill="#1e1e1e"/>
      <path d="M172.63,110.83h-1v-3.42c0-1.28-.46-1.91-1.39-1.91a1.52,1.52,0,0,0-1.2.54,2,2,0,0,0-.47,1.37v3.42h-1v-6h1v1h0a2.17,2.17,0,0,1,2-1.14,1.85,1.85,0,0,1,1.51.63,2.84,2.84,0,0,1,.52,1.84Z" fill="#1e1e1e"/>
      <path d="M179.56,110.35q0,3.3-3.16,3.3a4.31,4.31,0,0,1-2-.42v-1a4,4,0,0,0,1.94.56c1.47,0,2.21-.78,2.21-2.35v-.66h0a2.25,2.25,0,0,1-2.06,1.15,2.28,2.28,0,0,1-1.81-.8A3.22,3.22,0,0,1,174,108a3.73,3.73,0,0,1,.74-2.43,2.46,2.46,0,0,1,2-.9,2,2,0,0,1,1.8,1h0v-.83h1Zm-1-2.23v-.89a1.71,1.71,0,0,0-.48-1.22,1.6,1.6,0,0,0-1.21-.51,1.67,1.67,0,0,0-1.39.64A2.9,2.9,0,0,0,175,108a2.48,2.48,0,0,0,.48,1.6,1.56,1.56,0,0,0,1.28.6,1.65,1.65,0,0,0,1.31-.57A2.16,2.16,0,0,0,178.6,108.12Z" fill="#1e1e1e"/>
      <path d="M181.08,110.61v-1a2.84,2.84,0,0,0,1.73.58c.85,0,1.27-.28,1.27-.84a.76.76,0,0,0-.11-.41,1.17,1.17,0,0,0-.29-.3,3,3,0,0,0-.44-.23l-.53-.21a6.76,6.76,0,0,1-.7-.32,2.29,2.29,0,0,1-.51-.36,1.52,1.52,0,0,1-.3-.46,1.66,1.66,0,0,1-.11-.61,1.39,1.39,0,0,1,.2-.74,1.78,1.78,0,0,1,.51-.55,2.26,2.26,0,0,1,.74-.33,3.41,3.41,0,0,1,.85-.11,3.46,3.46,0,0,1,1.4.27v1a2.74,2.74,0,0,0-1.53-.43,1.75,1.75,0,0,0-.48.06,1.33,1.33,0,0,0-.38.17.88.88,0,0,0-.24.27.77.77,0,0,0-.08.34.87.87,0,0,0,.08.39.83.83,0,0,0,.25.28,1.91,1.91,0,0,0,.4.23l.53.21c.27.11.51.21.72.32a2.82,2.82,0,0,1,.54.36,1.41,1.41,0,0,1,.34.47,1.46,1.46,0,0,1,.12.62,1.5,1.5,0,0,1-.19.78,1.71,1.71,0,0,1-.53.54,2.26,2.26,0,0,1-.76.32,3.68,3.68,0,0,1-.89.11A3.41,3.41,0,0,1,181.08,110.61Z" fill="#1e1e1e"/>
      <path d="M189.33,107.86h-3.2v-.75h3.2Z" fill="#1e1e1e"/>
      <path d="M195.17,110.83h-1v-.94h0a2.2,2.2,0,0,1-3.25.61,1.65,1.65,0,0,1-.51-1.26c0-1.13.66-1.78,2-2l1.79-.25q0-1.53-1.23-1.53a2.91,2.91,0,0,0-2,.74v-1a3.76,3.76,0,0,1,2-.56c1.41,0,2.11.74,2.11,2.24Zm-1-3-1.44.2a2.59,2.59,0,0,0-1,.33,1,1,0,0,0-.34.85.89.89,0,0,0,.31.71,1.2,1.2,0,0,0,.84.28,1.56,1.56,0,0,0,1.18-.5,1.79,1.79,0,0,0,.46-1.27Z" fill="#1e1e1e"/>
      <path d="M197.9,110h0v3.63h-1v-8.76h1v1h0a2.3,2.3,0,0,1,2.08-1.19,2.23,2.23,0,0,1,1.81.8,3.37,3.37,0,0,1,.65,2.16,3.74,3.74,0,0,1-.73,2.41,2.44,2.44,0,0,1-2,.91A2,2,0,0,1,197.9,110Zm0-2.42v.84a1.77,1.77,0,0,0,.48,1.26,1.59,1.59,0,0,0,1.23.52,1.6,1.6,0,0,0,1.37-.67,3,3,0,0,0,.49-1.85,2.39,2.39,0,0,0-.46-1.57,1.53,1.53,0,0,0-1.25-.57,1.7,1.7,0,0,0-1.35.58A2.15,2.15,0,0,0,197.88,107.54Z" fill="#1e1e1e"/>
      <path d="M204.4,103.31a.6.6,0,0,1-.44-.18.61.61,0,0,1-.18-.45.59.59,0,0,1,.18-.44.6.6,0,0,1,.44-.18.64.64,0,0,1,.45.18.63.63,0,0,1,0,.88A.61.61,0,0,1,204.4,103.31Zm.47,7.52h-1v-6h1Z" fill="#1e1e1e"/>
    </g>
    <g>
      <path d="M282.84,110.83h-1v-3.45a2.66,2.66,0,0,0-.3-1.44,1.19,1.19,0,0,0-1-.44,1.25,1.25,0,0,0-1,.56,2.12,2.12,0,0,0-.43,1.35v3.42h-1v-3.56c0-1.18-.45-1.77-1.36-1.77a1.24,1.24,0,0,0-1,.53,2.14,2.14,0,0,0-.41,1.38v3.42h-1v-6h1v1h0a2,2,0,0,1,1.86-1.09,1.76,1.76,0,0,1,1.08.34,1.73,1.73,0,0,1,.62.9,2.14,2.14,0,0,1,2-1.24c1.32,0,2,.81,2,2.44Z" fill="#1e1e1e"/>
      <path d="M287.15,111a2.79,2.79,0,0,1-2.13-.84,3.1,3.1,0,0,1-.79-2.23,3.23,3.23,0,0,1,.82-2.36,3,3,0,0,1,2.24-.85,2.68,2.68,0,0,1,2.09.82,3.32,3.32,0,0,1,.75,2.3,3.25,3.25,0,0,1-.81,2.3A2.85,2.85,0,0,1,287.15,111Zm.07-5.47a1.84,1.84,0,0,0-1.47.63,2.58,2.58,0,0,0-.54,1.73,2.42,2.42,0,0,0,.55,1.69,1.85,1.85,0,0,0,1.46.61,1.77,1.77,0,0,0,1.43-.6,3.23,3.23,0,0,0,0-3.45A1.74,1.74,0,0,0,287.22,105.5Z" fill="#1e1e1e"/>
      <path d="M296.6,110.83h-1v-3.42c0-1.28-.46-1.91-1.39-1.91a1.5,1.5,0,0,0-1.19.54,2,2,0,0,0-.47,1.37v3.42h-1v-6h1v1h0a2.16,2.16,0,0,1,2-1.14,1.83,1.83,0,0,1,1.5.63,2.84,2.84,0,0,1,.53,1.84Z" fill="#1e1e1e"/>
      <path d="M303.53,110.35q0,3.3-3.17,3.3a4.23,4.23,0,0,1-1.94-.42v-1a3.92,3.92,0,0,0,1.93.56c1.48,0,2.22-.78,2.22-2.35v-.66h0a2.42,2.42,0,0,1-3.86.35A3.17,3.17,0,0,1,298,108a3.73,3.73,0,0,1,.73-2.43,2.46,2.46,0,0,1,2-.9,2,2,0,0,1,1.8,1h0v-.83h1Zm-1-2.23v-.89a1.67,1.67,0,0,0-.49-1.22,1.58,1.58,0,0,0-1.2-.51,1.69,1.69,0,0,0-1.4.64A3,3,0,0,0,299,108a2.48,2.48,0,0,0,.48,1.6,1.57,1.57,0,0,0,1.28.6,1.69,1.69,0,0,0,1.32-.57A2.16,2.16,0,0,0,302.57,108.12Z" fill="#1e1e1e"/>
      <path d="M307.91,111a2.79,2.79,0,0,1-2.13-.84,3.1,3.1,0,0,1-.79-2.23,3.23,3.23,0,0,1,.83-2.36,3,3,0,0,1,2.23-.85,2.68,2.68,0,0,1,2.09.82,3.32,3.32,0,0,1,.76,2.3,3.21,3.21,0,0,1-.82,2.3A2.85,2.85,0,0,1,307.91,111Zm.07-5.47a1.84,1.84,0,0,0-1.47.63,2.58,2.58,0,0,0-.54,1.73,2.47,2.47,0,0,0,.55,1.69,1.85,1.85,0,0,0,1.46.61,1.75,1.75,0,0,0,1.43-.6,3.23,3.23,0,0,0,0-3.45A1.73,1.73,0,0,0,308,105.5Z" fill="#1e1e1e"/>
      <path d="M312.51,110.83v-8.4h2.32c3,0,4.45,1.36,4.45,4.09a4.15,4.15,0,0,1-1.24,3.13,4.55,4.55,0,0,1-3.3,1.18Zm1-7.51v6.62h1.25a3.55,3.55,0,0,0,2.57-.89,3.28,3.28,0,0,0,.92-2.5c0-2.16-1.14-3.23-3.43-3.23Z" fill="#1e1e1e"/>
      <path d="M320.87,110.83v-8.4h2.39A2.59,2.59,0,0,1,325,103a1.72,1.72,0,0,1,.64,1.39,2,2,0,0,1-.39,1.24,2.11,2.11,0,0,1-1.06.75v0a2.14,2.14,0,0,1,1.36.65,2,2,0,0,1,.5,1.41,2.17,2.17,0,0,1-.77,1.74,2.84,2.84,0,0,1-1.95.67Zm1-7.51V106h1a1.89,1.89,0,0,0,1.27-.39,1.36,1.36,0,0,0,.47-1.1c0-.81-.54-1.22-1.61-1.22Zm0,3.6v3h1.33a2,2,0,0,0,1.35-.41,1.44,1.44,0,0,0,.47-1.13c0-1-.67-1.48-2-1.48Z" fill="#1e1e1e"/>
    </g>
  </g>
</svg>
