<svg xmlns="http://www.w3.org/2000/svg" overflow="hidden" viewBox="0 0 1153 674">
  <defs>
    <clipPath id="a">
      <path d="M59 23h1153v674H59z"/>
    </clipPath>
    <clipPath id="b">
      <path d="M557 127h96v96h-96z"/>
    </clipPath>
    <clipPath id="c">
      <path d="M557 127h96v96h-96z"/>
    </clipPath>
    <clipPath id="d">
      <path d="M557 127h96v96h-96z"/>
    </clipPath>
    <clipPath id="e">
      <path d="M557 438h96v96h-96z"/>
    </clipPath>
    <clipPath id="f">
      <path d="M557 438h96v96h-96z"/>
    </clipPath>
    <clipPath id="g">
      <path d="M557 438h96v96h-96z"/>
    </clipPath>
    <clipPath id="i">
      <path d="M557 281h96v96h-96z"/>
    </clipPath>
    <clipPath id="j">
      <path d="M557 281h96v96h-96z"/>
    </clipPath>
    <clipPath id="k">
      <path d="M557 281h96v96h-96z"/>
    </clipPath>
    <clipPath id="m">
      <path d="M636.835 321.16c4.2 17.582-6.648 35.24-24.23 39.441-17.582 4.2-35.239-6.648-39.44-24.23-4.2-17.582 6.648-35.24 24.229-39.44 17.582-4.201 35.24 6.647 39.44 24.229z"/>
    </clipPath>
    <clipPath id="n">
      <path d="M951 517h96v96h-96z"/>
    </clipPath>
    <clipPath id="o">
      <path d="M951 517h96v96h-96z"/>
    </clipPath>
    <clipPath id="p">
      <path d="M951 517h96v96h-96z"/>
    </clipPath>
    <linearGradient id="h" x1="605.667" x2="605.667" y1="527.904" y2="442.791" gradientUnits="userSpaceOnUse" spreadMethod="pad">
      <stop offset="0" stop-color="#FEA11B"/>
      <stop offset=".284" stop-color="#FEA51A"/>
      <stop offset=".547" stop-color="#FEB018"/>
      <stop offset=".8" stop-color="#FFC314"/>
      <stop offset="1" stop-color="#FFD70F"/>
    </linearGradient>
    <linearGradient id="q" x1="999" x2="999" y1="521.32" y2="630.493" gradientUnits="userSpaceOnUse" spreadMethod="pad">
      <stop offset="0" stop-color="#FFD70F"/>
      <stop offset=".34" stop-color="#EEB309"/>
      <stop offset=".77" stop-color="#DC8C03"/>
      <stop offset="1" stop-color="#D57D01"/>
    </linearGradient>
    <radialGradient id="l" cx="-105.006" cy="-10.409" r="5.954" gradientTransform="matrix(5.52533 0 0 5.47733 1184.94 385.768)" gradientUnits="userSpaceOnUse" spreadMethod="pad">
      <stop offset="0" stop-color="#5EA0EF"/>
      <stop offset=".183" stop-color="#5EA0EF"/>
      <stop offset="1" stop-color="#0078D4"/>
    </radialGradient>
  </defs>
  <g clip-path="url(#a)" transform="translate(-59 -23)">
    <path fill="#FFF" d="M60 24h1152v672H60z"/>
    <path fill="#44546A" fill-rule="evenodd" d="M220.455 99.915c-2.651 0-4.8 2.117-4.8 4.728 0 2.611 2.149 4.728 4.8 4.728s4.8-2.117 4.8-4.728c0-2.611-2.149-4.728-4.8-4.728zm7.054-9.161l-1.472.6-.396.08-.323.214-.991.404-.149.353-.062.041a4.677 4.677 0 00-1.406 3.344c0 2.611 2.149 4.728 4.8 4.728s4.8-2.117 4.8-4.728a4.677 4.677 0 00-1.406-3.344l-.066-.043-.148-.35-.985-.403-.327-.217-.4-.08zm-46.449-1.416c-5.302 0-9.6 4.233-9.6 9.456a9.353 9.353 0 002.812 6.687l.166.111.198.289a9.043 9.043 0 006.364 2.596 9.043 9.043 0 006.364-2.596l.098-.143.386-.257a9.357 9.357 0 002.812-6.687c0-5.223-4.298-9.456-9.6-9.456zm-.797-13.318c3.508-.174 6.256.829 9.125 1.872 3.222 1.169 6.875 2.499 12.616 2.499 5.737 0 9.386-1.33 12.607-2.5 3.829-1.39 7.459-2.702 12.927-1.263 10.684 2.823 15.42 13.003 19.602 28.513 4.634 17.208 3.58 29.559-2.745 32.237a7.683 7.683 0 01-3.034.619c-5.783 0-11.461-6.301-15.777-11.099l-1.211-1.362c-4.328-4.918-11.205-7.161-22.369-7.161-9.326 0-18.049 2.247-22.376 7.161l-1.208 1.362c-5.077 5.635-12.03 13.357-18.814 10.48-6.33-2.681-7.38-15.033-2.738-32.24 4.175-15.507 8.914-25.687 19.601-28.51a18.391 18.391 0 013.794-.608zM220.455 363.915c-2.651 0-4.8 2.117-4.8 4.728 0 2.611 2.149 4.728 4.8 4.728s4.8-2.117 4.8-4.728c0-2.611-2.149-4.728-4.8-4.728zm7.054-9.161l-1.472.6-.396.079-.323.215-.991.404-.149.353-.062.041a4.678 4.678 0 00-1.406 3.344c0 2.611 2.149 4.728 4.8 4.728s4.8-2.117 4.8-4.728a4.678 4.678 0 00-1.406-3.344l-.066-.044-.148-.35-.985-.402-.327-.217-.4-.08zm-46.449-1.416c-5.302 0-9.6 4.233-9.6 9.456a9.353 9.353 0 002.812 6.687l.166.111.198.289a9.043 9.043 0 006.364 2.596 9.043 9.043 0 006.364-2.596l.098-.143.386-.257a9.357 9.357 0 002.812-6.687c0-5.223-4.298-9.456-9.6-9.456zm-.797-13.318c3.508-.174 6.256.829 9.125 1.872 3.222 1.169 6.875 2.499 12.616 2.499 5.737 0 9.386-1.33 12.607-2.499 3.829-1.391 7.459-2.703 12.927-1.264 10.684 2.823 15.42 13.003 19.602 28.513 4.634 17.208 3.58 29.559-2.745 32.237a7.683 7.683 0 01-3.034.619c-5.783 0-11.461-6.301-15.777-11.099l-1.211-1.362c-4.328-4.918-11.205-7.161-22.369-7.161-9.326 0-18.049 2.247-22.376 7.161l-1.208 1.362c-5.077 5.635-12.03 13.357-18.814 10.48-6.33-2.681-7.38-15.033-2.738-32.24 4.175-15.507 8.914-25.687 19.601-28.51a18.357 18.357 0 013.794-.608zM220.455 455.3a4.803 4.803 0 00-4.8 4.805 4.802 4.802 0 004.8 4.804c2.651 0 4.8-2.151 4.8-4.804a4.803 4.803 0 00-4.8-4.805zm7.054-9.308l-1.472.61-.396.08-.323.218-.991.411-.149.358-.062.043a4.788 4.788 0 00-1.406 3.397 4.802 4.802 0 004.8 4.804c2.651 0 4.8-2.151 4.8-4.804a4.788 4.788 0 00-1.406-3.397l-.066-.045-.148-.356-.985-.408-.327-.221-.4-.081zm-46.449-1.439c-5.302 0-9.6 4.302-9.6 9.609a9.578 9.578 0 002.812 6.794l.166.113.198.293a8.966 8.966 0 006.364 2.639 8.966 8.966 0 006.364-2.639l.098-.145.386-.261a9.583 9.583 0 002.812-6.794c0-5.307-4.298-9.609-9.6-9.609zm-.797-13.533c3.508-.177 6.256.842 9.125 1.902 3.222 1.188 6.875 2.539 12.616 2.539 5.737 0 9.386-1.351 12.607-2.539 3.829-1.413 7.459-2.746 12.927-1.284 10.684 2.868 15.42 13.213 19.602 28.973 4.634 17.485 3.58 30.036-2.745 32.757a7.576 7.576 0 01-3.034.629c-5.783 0-11.461-6.403-15.777-11.278l-1.211-1.384c-4.328-4.997-11.205-7.277-22.369-7.277-9.326 0-18.049 2.284-22.376 7.277l-1.208 1.384c-5.077 5.726-12.03 13.573-18.814 10.649-6.33-2.725-7.38-15.276-2.738-32.76 4.175-15.757 8.914-26.102 19.601-28.97a18.149 18.149 0 013.794-.618zM220.455 546.3a4.803 4.803 0 00-4.8 4.805 4.802 4.802 0 004.8 4.804c2.651 0 4.8-2.151 4.8-4.804a4.803 4.803 0 00-4.8-4.805zm7.054-9.308l-1.472.61-.396.08-.323.218-.991.411-.149.358-.062.043a4.788 4.788 0 00-1.406 3.397 4.802 4.802 0 004.8 4.804c2.651 0 4.8-2.151 4.8-4.804a4.788 4.788 0 00-1.406-3.397l-.066-.045-.148-.356-.985-.408-.327-.221-.4-.081zm-46.449-1.439c-5.302 0-9.6 4.302-9.6 9.609a9.578 9.578 0 002.812 6.794l.166.113.198.293a8.966 8.966 0 006.364 2.639 8.966 8.966 0 006.364-2.639l.098-.145.386-.261a9.583 9.583 0 002.812-6.794c0-5.307-4.298-9.609-9.6-9.609zm-.797-13.533c3.508-.177 6.256.842 9.125 1.902 3.222 1.188 6.875 2.539 12.616 2.539 5.737 0 9.386-1.351 12.607-2.539 3.829-1.413 7.459-2.746 12.927-1.284 10.684 2.868 15.42 13.213 19.602 28.973 4.634 17.485 3.58 30.036-2.745 32.757a7.576 7.576 0 01-3.034.629c-5.783 0-11.461-6.403-15.777-11.278l-1.211-1.384c-4.328-4.997-11.205-7.277-22.369-7.277-9.326 0-18.049 2.284-22.376 7.277l-1.208 1.384c-5.077 5.726-12.03 13.573-18.814 10.649-6.33-2.725-7.38-15.276-2.738-32.76 4.175-15.757 8.914-26.102 19.601-28.97a18.149 18.149 0 013.794-.618z"/>
    <path fill="#44546A" d="M204.167 119v34.667h-4.334V119zm0 47.667v34.666h-4.334v-34.666zm0 47.666V249h-4.334v-34.667zm0 47.667v34.667h-4.334V262zm0 47.667v15.273h-4.334v-15.273zm8.666 13.106L202 344.44l-10.833-21.667z"/>
    <path fill="none" stroke="#44546A" stroke-dasharray="34.667 13" stroke-miterlimit="8" stroke-width="4.333" d="M202 383v52.773M202 474v52.773"/>
    <path fill="none" stroke="#44546A" stroke-miterlimit="8" stroke-width="2" d="M295 84l113.579 133.333M295 577.333L408.579 444"/>
    <path fill="#44546A" fill-rule="evenodd" d="M417.667 371.015v9.583h9.666v-9.583zm0-18.385v9.583h9.666v-9.583zM408 273h29v115h-29zM450.667 371.015v9.583h9.666v-9.583zm0-18.385v9.583h9.666v-9.583zM441 273h29v115h-29zM483.333 371.015v9.583h9.334v-9.583zm0-18.385v9.583h9.334v-9.583zM474 273h28v115h-28z"/>
    <g clip-path="url(#b)">
      <g clip-path="url(#c)">
        <g clip-path="url(#d)">
          <path fill="#FF3621" d="M563.16 153.293v2.731L605 179.629l37.365-21.104v8.534L605 188.285l-39.733-22.576-2.107 1.174v16.33L605 206.76l37.365-21.024v8.459L605 215.432l-39.733-22.581-2.107 1.173v2.768L605 220.333l41.84-23.541v-16.347l-2.133-1.162L605 201.859l-37.376-21.238v-8.416L605 193.208l41.84-23.541v-16.118l-2.133-1.168L605 174.963l-35.456-20.15L605 134.787l29.205 16.501 2.555-1.435v-2.25L605 129.667z"/>
        </g>
      </g>
    </g>
    <g clip-path="url(#e)">
      <g clip-path="url(#f)">
        <g clip-path="url(#g)">
          <path fill="#50E6FF" d="M586.549 507.894l-3.126 3.134a1.424 1.424 0 01-2.014.003l-23.218-23.153a2.843 2.843 0 01-.006-4.02l3.141-3.149 25.235 25.163c.557.556.558 1.457.003 2.014z"/>
          <path fill="#1490DF" d="M582.938 460.959l3.146 3.137c.557.556.558 1.457.003 2.014l-24.791 24.861-3.15-3.14a2.844 2.844 0 01-.006-4.021l22.792-22.855a1.424 1.424 0 012.006.004z"/>
          <path fill="#50E6FF" d="M648.678 480.73l3.137 3.146a2.842 2.842 0 01-.006 4.02l-23.218 23.153a1.424 1.424 0 01-2.014-.003l-3.122-3.131a1.423 1.423 0 01.003-2.013l25.231-25.16z"/>
          <path fill="#1490DF" d="M651.837 487.817l-3.146 3.137-24.791-24.861a1.424 1.424 0 01.003-2.014l3.146-3.137a1.423 1.423 0 012.014.003l22.791 22.856a2.842 2.842 0 01-.006 4.02z"/>
          <path fill="url(#h)" d="M602.115 490.8h-19.142a1.029 1.029 0 01-1.066-.965c0-.139.033-.276.096-.4l22.949-45.408a1.1 1.1 0 01.992-.566h22.64a1.03 1.03 0 011.067.966.881.881 0 01-.187.533l-26.949 35.525h26.282a1.03 1.03 0 011.067.966.936.936 0 01-.277.65l-43.675 45.435c-.411.245-3.328 2.667-1.899-1.008z"/>
        </g>
      </g>
    </g>
    <g clip-path="url(#i)">
      <g clip-path="url(#j)">
        <g clip-path="url(#k)">
          <path fill="#50E6FF" d="M572.755 309.085a.933.933 0 01-.939-.928v-.01c-.009-5.914-4.801-10.706-10.715-10.715a.938.938 0 01-.938-.933c0-.519.42-.939.938-.939 5.916-.009 10.709-4.804 10.715-10.72a.934.934 0 01.928-.939h.011a.933.933 0 01.938.928v.011c.009 5.914 4.801 10.706 10.715 10.715a.934.934 0 01.939.928v.01a.934.934 0 01-.928.939h-.011c-5.915.006-10.709 4.8-10.715 10.715a.943.943 0 01-.938.938zM640.259 374.099a.752.752 0 01-.752-.752 8.581 8.581 0 00-8.571-8.571.752.752 0 01-.752-.747c0-.415.337-.752.752-.752a8.577 8.577 0 008.571-8.57.752.752 0 111.504 0 8.575 8.575 0 008.57 8.57.752.752 0 110 1.504 8.581 8.581 0 00-8.57 8.571.753.753 0 01-.752.747z"/>
          <path fill="url(#l)" d="M636.835 321.16c4.2 17.582-6.648 35.24-24.23 39.441-17.582 4.2-35.239-6.648-39.44-24.23-4.2-17.582 6.648-35.24 24.229-39.44 17.582-4.201 35.24 6.647 39.44 24.229z"/>
          <g fill="#F2F2F2" clip-path="url(#m)">
            <path d="M587.448 350.947a8.737 8.737 0 10.027-17.467c.025-.248.038-.497.037-.747a8.805 8.805 0 00-8.859-8.725h-6.549a33.34 33.34 0 008.507 26.939zM637.24 322.68c0-.08 0-.16-.037-.235a31.884 31.884 0 00-7.499-15.36 9.786 9.786 0 00-1.541-.48c-5.116-1.459-10.446 1.505-11.905 6.62a9.633 9.633 0 00-.362 2.25c-.354-.041-.71-.064-1.067-.07a9.264 9.264 0 00-3.098 17.995c.919.36 1.898.541 2.885.533h10.827a71.73 71.73 0 0011.797-11.253z"/>
          </g>
          <path fill="#50E6FF" d="M648.685 301.437c-3.354-5.584-11.2-7.76-22.16-6.128a77.858 77.858 0 00-11.104 2.411 34.434 34.434 0 018.15 4.091c1.285-.283 2.576-.619 3.813-.806a39.969 39.969 0 015.883-.474 11.671 11.671 0 0110.448 3.866c2.042 3.403.32 9.222-4.726 16a89.182 89.182 0 01-25.328 21.606 89.396 89.396 0 01-31.061 12.064c-8.341 1.248-14.304 0-16.347-3.392-2.042-3.392-.32-9.227 4.726-15.974.624-.837.778-1.248 1.488-2.09a33.342 33.342 0 01.138-8.694 61.751 61.751 0 00-6.24 7.318c-6.608 8.837-8.4 16.784-5.05 22.368a16.88 16.88 0 0015.466 6.661 45.028 45.028 0 006.672-.533 95.225 95.225 0 0033.168-12.8 94.984 94.984 0 0026.992-23.104c6.63-8.859 8.422-16.8 5.072-22.39z"/>
        </g>
      </g>
    </g>
    <path fill="#FFF" stroke="#44546A" stroke-miterlimit="8" stroke-width="3" d="M666.5 314.5h170v30h-170z"/>
    <text fill="#44546A" font-family="Cascadia Code,Cascadia Code_MSFontService,sans-serif" font-size="16" font-weight="400" transform="translate(680.238 334)">
      Azure Cosmos DB
    </text>
    <path fill="#FFF" stroke="#44546A" stroke-miterlimit="8" stroke-width="3" d="M661.5 468.5h171v29h-171z"/>
    <text fill="#44546A" font-family="Cascadia Code,Cascadia Code_MSFontService,sans-serif" font-size="16" font-weight="400" transform="translate(675.526 488)">
      Azure Functions
    </text>
    <path fill="#FFF" stroke="#44546A" stroke-miterlimit="8" stroke-width="3" d="M661.5 161.5h180v29h-180z"/>
    <text fill="#44546A" font-family="Cascadia Code,Cascadia Code_MSFontService,sans-serif" font-size="16" font-weight="400" transform="translate(675.526 181)">
      Azure Databricks
    </text>
    <g clip-path="url(#n)">
      <g clip-path="url(#o)">
        <g clip-path="url(#p)">
          <path fill="url(#q)" d="M1044.33 530.333v57.76a3.09 3.09 0 01-3.09 3.094h-24.16a.75.75 0 00-.75.746v9.334c0 .824-.68 1.487-1.5 1.48a1.507 1.507 0 01-.9-.307l-14.503-11.093h-42.614a3.094 3.094 0 01-3.146-3.04V530.333a3.092 3.092 0 013.093-3.093H1041.19a3.094 3.094 0 013.14 3.04v.053z"/>
          <path fill="#FFE452" d="M961.933 565l16 13.44a1.546 1.546 0 002.507-1.173V571.4h63.79v-9.067h-81.337a1.547 1.547 0 00-.96 2.667z"/>
          <path fill="#FFF" d="M1037.61 551.453l-16.58-13.44a1.556 1.556 0 00-2.18.252c-.2.263-.32.586-.33.922v5.866h-64.853v9.28h82.983c.85.11 1.63-.488 1.74-1.335a1.55 1.55 0 00-.78-1.545z"/>
        </g>
      </g>
    </g>
    <path fill="#FFF" stroke="#44546A" stroke-miterlimit="8" stroke-width="3" d="M881.5 615.5h236v29h-236z"/>
    <text fill="#44546A" font-family="Cascadia Code,Cascadia Code_MSFontService,sans-serif" font-size="16" font-weight="400" transform="translate(896.335 635)">
      Azure Notification Hub
    </text>
    <path fill="#44546A" d="M502.5 327.833h26.667v3.334H502.5zm36.667 0h9.91v3.334h-9.91zm8.243-6.666l10 8.333-10 8.333zM607.167 281.558v-26.667h-3.334v26.667zm0-36.667v-13.057h-3.334v13.057zm6.666-11.39l-8.333-10-8.333 10zM607.167 377.5v26.667h-3.334V377.5zm0 36.667v15.802h-3.334v-15.802zm6.666 14.135l-8.333 10-8.333-10zM603.833 534.5v26.667h3.334V534.5zm6.85 33.15h26.668v-3.334h-26.667zm36.668 0h26.666v-3.334H647.35zm36.666 0h26.667v-3.334h-26.667zm36.667 0h26.666v-3.334h-26.666zm36.666 0h26.667v-3.334H757.35zm36.667 0h26.667v-3.334h-26.667zm36.667 0h26.666v-3.334h-26.666zm36.666 0h26.667v-3.334H867.35zm36.667 0h26.667v-3.334h-26.667zm36.667 0h2.176v-3.334h-2.176zm.509 6.666l10-8.333-10-8.333z"/>
    <path fill="#44546A" fill-rule="evenodd" d="M1040.82 367.179c-1.371 0-2.498 1.125-2.498 2.53 0 1.39 1.127 2.531 2.499 2.531 1.371 0 2.498-1.14 2.498-2.53s-1.11-2.531-2.498-2.531zm-23.054-64.13v7.015c0 1.425 1.14 2.58 2.548 2.58h40.372c1.407 0 2.548-1.155 2.548-2.58v-7.016zm17.975-8.313a1.242 1.242 0 000 2.48h9.846c.67 0 1.208-.562 1.208-1.24 0-.678-.555-1.24-1.225-1.24zM1021.796 286h37.408c3.2 0 5.796 2.63 5.796 5.872v82.24c0 3.258-2.596 5.888-5.796 5.888h-37.408c-3.2 0-5.796-2.63-5.796-5.872v-82.256c0-3.242 2.596-5.872 5.796-5.872z"/>
    <path fill="#44546A" d="M997.833 517.812v-26.666h3.337v26.666zm0-36.666v-26.667h3.337v26.667zm10.347-29.656h26.66v3.333h-26.66zm31.04-2.287v-26.667h3.34v26.667zm0-36.667v-15.703h3.34v15.703zm-6.66-14.036l8.33-10 8.33 10z"/>
  </g>
</svg>