<svg xmlns="http://www.w3.org/2000/svg" xmlns:xlink="http://www.w3.org/1999/xlink" viewBox="0 0 750.5 285.5">
  <defs>
    <linearGradient id="Blue_Gradient" data-name="Blue Gradient" x1="375.25" y1="62.267" x2="375.25" y2="0.25" gradientUnits="userSpaceOnUse">
      <stop offset="0" stop-color="#0078d4"/>
      <stop offset="0.16" stop-color="#1380da"/>
      <stop offset="0.53" stop-color="#3c91e5"/>
      <stop offset="0.82" stop-color="#559cec"/>
      <stop offset="1" stop-color="#5ea0ef"/>
    </linearGradient>
    <linearGradient id="New_Gradient_Swatch" data-name="New Gradient Swatch" x1="365.516" y1="89.625" x2="365.516" y2="147.928" gradientUnits="userSpaceOnUse">
      <stop offset="0" stop-color="#b3b3b3"/>
      <stop offset="0.38" stop-color="#999"/>
      <stop offset="0.76" stop-color="#767676"/>
      <stop offset="1" stop-color="#767676"/>
    </linearGradient>
    <linearGradient id="New_Gradient_Swatch-2" x1="101.858" y1="84.767" x2="101.858" y2="117.157" xlink:href="#New_Gradient_Swatch"/>
    <linearGradient id="New_Gradient_Swatch-3" x1="101.858" y1="120.396" x2="101.858" y2="152.787" xlink:href="#New_Gradient_Swatch"/>
    <linearGradient id="New_Gradient_Swatch-4" x1="365.516" y1="230.248" x2="365.516" y2="234.248" xlink:href="#New_Gradient_Swatch"/>
    <linearGradient id="New_Gradient_Swatch-5" x1="-140.071" y1="43.664" x2="-140.071" y2="76.055" gradientTransform="translate(-38.213 273.322) rotate(180)" xlink:href="#New_Gradient_Swatch"/>
    <linearGradient id="New_Gradient_Swatch-6" x1="-140.071" y1="175.64" x2="-140.071" y2="208.03" gradientTransform="matrix(-1, 0, 0, 1, -38.213, 59.2)" xlink:href="#New_Gradient_Swatch"/>
  </defs>
  <g id="Shapes">
    <g>
      <rect x="0.25" y="0.25" width="750" height="285" fill="#fff"/>
      <rect x="0.25" y="0.25" width="750" height="285" fill="#50e6ff" opacity="0.05"/>
      <rect x="0.25" y="0.25" width="750" height="285" fill="none" stroke="#0072c6" stroke-miterlimit="10" stroke-width="0.5" opacity="0.4"/>
    </g>
    <g>
      <rect x="0.25" y="0.25" width="750" height="62.017" fill="#fff"/>
      <rect x="0.25" y="0.25" width="750" height="62.017" opacity="0.25" fill="url(#Blue_Gradient)"/>
    </g>
    <path d="M411.826,147.928c-8.387,0-11.333-13.181-14.744-28.444-1.7-7.589-5.227-23.38-8.424-23.38s-6.719,15.79-8.414,23.378c-3.41,15.264-6.354,28.446-14.738,28.446s-11.33-13.181-14.74-28.445c-1.7-7.588-5.224-23.379-8.418-23.379s-6.72,15.791-8.414,23.379c-3.41,15.264-6.354,28.445-14.737,28.445s-11.33-13.181-14.74-28.444c-1.7-7.589-5.224-23.38-8.418-23.38a3.24,3.24,0,0,1,0-6.479c8.384,0,11.33,13.183,14.74,28.446,1.7,7.589,5.224,23.379,8.418,23.379s6.719-15.791,8.414-23.379c3.409-15.264,6.354-28.446,14.737-28.446s11.33,13.182,14.74,28.446c1.7,7.588,5.224,23.379,8.418,23.379s6.721-15.791,8.416-23.38c3.409-15.263,6.353-28.445,14.736-28.445s11.334,13.182,14.745,28.445c1.7,7.589,5.226,23.38,8.423,23.38s6.727-15.79,8.423-23.379c3.412-15.263,6.358-28.446,14.745-28.446a3.24,3.24,0,0,1,0,6.479c-3.2,0-6.727,15.791-8.423,23.38C423.159,134.747,420.213,147.928,411.826,147.928Z" fill="url(#New_Gradient_Swatch)"/>
    <g>
      <path d="M148.168,117.157c-7.891,0-11.423-7.9-14.54-14.873-2.981-6.668-5.192-11.039-8.627-11.039s-5.64,4.371-8.619,11.038c-3.115,6.972-6.645,14.874-14.533,14.874s-11.421-7.9-14.537-14.873c-2.98-6.668-5.19-11.039-8.623-11.039s-5.64,4.371-8.618,11.038c-3.115,6.972-6.645,14.874-14.533,14.874s-11.42-7.9-14.536-14.874c-2.979-6.667-5.189-11.038-8.621-11.038a3.239,3.239,0,1,1,0-6.478c7.89,0,11.421,7.9,14.536,14.874,2.979,6.668,5.189,11.038,8.621,11.038s5.64-4.37,8.618-11.038c3.115-6.972,6.645-14.874,14.533-14.874s11.422,7.9,14.538,14.874c2.98,6.668,5.189,11.038,8.622,11.038s5.64-4.37,8.618-11.038c3.115-6.972,6.645-14.874,14.534-14.874s11.424,7.9,14.541,14.874c2.981,6.668,5.192,11.038,8.626,11.038s5.646-4.37,8.628-11.039c3.116-6.972,6.648-14.873,14.54-14.873a3.239,3.239,0,0,1,0,6.478c-3.435,0-5.646,4.371-8.627,11.038C159.593,109.255,156.06,117.157,148.168,117.157Z" fill="url(#New_Gradient_Swatch-2)"/>
      <path d="M148.168,152.787c-7.891,0-11.423-7.9-14.54-14.873-2.981-6.669-5.192-11.04-8.627-11.04s-5.64,4.371-8.619,11.039c-3.115,6.971-6.645,14.874-14.533,14.874s-11.421-7.9-14.537-14.873c-2.98-6.669-5.19-11.04-8.623-11.04s-5.64,4.371-8.618,11.039c-3.115,6.971-6.645,14.874-14.533,14.874s-11.42-7.9-14.536-14.874c-2.979-6.668-5.189-11.039-8.621-11.039a3.239,3.239,0,0,1,0-6.478c7.89,0,11.421,7.9,14.536,14.874,2.979,6.668,5.189,11.039,8.621,11.039s5.64-4.371,8.618-11.039C67.271,128.3,70.8,120.4,78.689,120.4s11.422,7.9,14.538,14.874c2.98,6.668,5.189,11.039,8.622,11.039s5.64-4.371,8.618-11.038C113.582,128.3,117.112,120.4,125,120.4s11.424,7.9,14.541,14.874c2.981,6.668,5.192,11.039,8.626,11.039s5.646-4.371,8.628-11.04c3.116-6.971,6.648-14.873,14.54-14.873a3.239,3.239,0,0,1,0,6.478c-3.435,0-5.646,4.371-8.627,11.039C159.593,144.884,156.06,152.787,148.168,152.787Z" fill="url(#New_Gradient_Swatch-3)"/>
    </g>
    <polygon points="253.972 118.777 231.033 105.531 231.033 115.456 213.062 115.456 213.062 122.097 231.033 122.097 231.033 132.023 253.972 118.777" fill="#3c3c41"/>
    <polygon points="253.972 232.248 231.033 219.002 231.033 228.928 213.062 228.928 213.062 235.569 231.033 235.569 231.033 245.494 253.972 232.248" fill="#3c3c41"/>
    <line x1="296.039" y1="232.248" x2="434.994" y2="232.248" fill="none" stroke-linecap="round" stroke-miterlimit="10" stroke-width="4" stroke="url(#New_Gradient_Swatch-4)"/>
    <g>
      <path d="M55.549,197.267c7.891,0,11.423,7.9,14.54,14.873,2.981,6.669,5.192,11.039,8.627,11.039s5.64-4.37,8.619-11.038c3.115-6.972,6.645-14.874,14.533-14.874s11.421,7.9,14.537,14.873c2.98,6.669,5.19,11.039,8.623,11.039s5.639-4.37,8.617-11.038c3.115-6.972,6.645-14.874,14.533-14.874s11.421,7.9,14.537,14.874c2.978,6.668,5.189,11.038,8.621,11.038a3.239,3.239,0,0,1,0,6.478c-7.89,0-11.421-7.9-14.536-14.874-2.979-6.667-5.19-11.038-8.622-11.038s-5.639,4.371-8.618,11.038c-3.114,6.972-6.644,14.874-14.532,14.874s-11.423-7.9-14.538-14.874c-2.98-6.667-5.189-11.038-8.622-11.038s-5.64,4.371-8.618,11.038c-3.115,6.972-6.645,14.874-14.534,14.874s-11.424-7.9-14.541-14.874c-2.981-6.667-5.192-11.038-8.626-11.038s-5.646,4.371-8.628,11.039c-3.116,6.972-6.649,14.873-14.54,14.873a3.239,3.239,0,1,1,0-6.478c3.435,0,5.646-4.37,8.627-11.038C44.124,205.169,47.657,197.267,55.549,197.267Z" fill="url(#New_Gradient_Swatch-5)"/>
      <path d="M55.549,267.23c7.891,0,11.423-7.9,14.54-14.873,2.981-6.669,5.192-11.039,8.627-11.039s5.64,4.37,8.619,11.038c3.115,6.972,6.645,14.874,14.533,14.874s11.421-7.9,14.537-14.873c2.98-6.669,5.19-11.039,8.623-11.039s5.639,4.37,8.617,11.038c3.115,6.972,6.645,14.874,14.533,14.874s11.421-7.9,14.537-14.874c2.978-6.668,5.189-11.038,8.621-11.038a3.239,3.239,0,0,0,0-6.478c-7.89,0-11.421,7.9-14.536,14.873-2.979,6.668-5.19,11.039-8.622,11.039s-5.639-4.371-8.618-11.039c-3.114-6.971-6.644-14.873-14.532-14.873s-11.423,7.9-14.538,14.873c-2.98,6.668-5.189,11.039-8.622,11.039s-5.64-4.371-8.618-11.038c-3.115-6.972-6.645-14.874-14.534-14.874s-11.424,7.9-14.541,14.873c-2.981,6.668-5.192,11.039-8.626,11.039s-5.646-4.371-8.628-11.039c-3.116-6.972-6.649-14.873-14.54-14.873a3.239,3.239,0,1,0,0,6.478c3.435,0,5.646,4.37,8.627,11.038C44.124,259.328,47.657,267.23,55.549,267.23Z" fill="url(#New_Gradient_Swatch-6)"/>
    </g>
    <line x1="0.25" y1="170.586" x2="750.25" y2="170.586" fill="none" stroke="#0072c6" stroke-miterlimit="10" stroke-opacity="0.4" stroke-width="0.5"/>
  </g>
  <g id="Text">
    <g>
      <path d="M91.327,26.316a6.518,6.518,0,0,1-4.9-1.958,7.034,7.034,0,0,1-1.894-5.1,7.533,7.533,0,0,1,1.924-5.371,6.658,6.658,0,0,1,5.1-2.05A6.356,6.356,0,0,1,96.4,13.8a7.238,7.238,0,0,1,1.85,5.175A7.416,7.416,0,0,1,96.332,24.3,6.59,6.59,0,0,1,91.327,26.316Zm.136-11.768a3.176,3.176,0,0,0-2.636,1.246,5.183,5.183,0,0,0-.977,3.295,5.089,5.089,0,0,0,.977,3.291,3.127,3.127,0,0,0,2.558,1.211,3.162,3.162,0,0,0,2.588-1.176,5.041,5.041,0,0,0,.957-3.267A5.46,5.46,0,0,0,94,15.759,3.024,3.024,0,0,0,91.463,14.548Z" fill="#1e1e1e"/>
      <path d="M109.846,26.072H106.77V24.548h-.049a3.488,3.488,0,0,1-3.056,1.768q-3.477,0-3.477-4.209V16.072h3.076v5.762q0,2.119,1.68,2.119a1.661,1.661,0,0,0,1.328-.581,2.344,2.344,0,0,0,.5-1.577V16.072h3.076Z" fill="#1e1e1e"/>
      <path d="M118.861,18.855a2.675,2.675,0,0,0-1.3-.3,1.87,1.87,0,0,0-1.572.738,3.212,3.212,0,0,0-.567,2.007v4.775h-3.086v-10h3.086v1.855h.039A2.671,2.671,0,0,1,118.1,15.9a2,2,0,0,1,.762.117Z" fill="#1e1e1e"/>
      <path d="M135.6,26.072h-3.086V24.7h-.039a3.459,3.459,0,0,1-3.1,1.621,3.791,3.791,0,0,1-3.017-1.323,5.475,5.475,0,0,1-1.143-3.7,5.962,5.962,0,0,1,1.26-3.975,4.109,4.109,0,0,1,3.3-1.494,2.808,2.808,0,0,1,2.695,1.386h.039V11.267H135.6Zm-3.027-4.863v-.752a2.362,2.362,0,0,0-.567-1.621,2,2,0,0,0-3.076.161,3.741,3.741,0,0,0-.576,2.212,3.238,3.238,0,0,0,.557,2.031,1.976,1.976,0,0,0,3.071-.039A3.138,3.138,0,0,0,132.572,21.209Z" fill="#1e1e1e"/>
      <path d="M146.492,26.072h-2.92V24.636h-.039a3.259,3.259,0,0,1-2.979,1.68,3.117,3.117,0,0,1-2.29-.825,2.955,2.955,0,0,1-.835-2.2q0-2.912,3.447-3.36l2.715-.361q0-1.641-1.777-1.641a6.069,6.069,0,0,0-3.4,1.065V16.668a7.617,7.617,0,0,1,1.763-.586,9.278,9.278,0,0,1,2.036-.254q4.278,0,4.278,4.267Zm-2.9-4.063v-.673l-1.816.234q-1.5.2-1.5,1.357a1.124,1.124,0,0,0,.366.865,1.409,1.409,0,0,0,.991.337,1.828,1.828,0,0,0,1.416-.6A2.166,2.166,0,0,0,143.591,22.009Z" fill="#1e1e1e"/>
      <path d="M150.415,14.49a1.8,1.8,0,0,1-1.279-.464,1.5,1.5,0,0,1-.5-1.138,1.442,1.442,0,0,1,.5-1.133,2.091,2.091,0,0,1,2.564,0,1.448,1.448,0,0,1,.493,1.133,1.49,1.49,0,0,1-.493,1.153A1.836,1.836,0,0,1,150.415,14.49Zm1.524,11.582h-3.086v-10h3.086Z" fill="#1e1e1e"/>
      <path d="M157.524,26.072h-3.086v-14.8h3.086Z" fill="#1e1e1e"/>
      <path d="M169.667,16.072l-4.062,10.8q-1.465,3.9-4.414,3.9a5.664,5.664,0,0,1-1.846-.254V28.054a2.587,2.587,0,0,0,1.338.362,1.671,1.671,0,0,0,1.66-1.123l.528-1.241-4.063-9.98h3.418l1.865,6.084a8.006,8.006,0,0,1,.274,1.338h.039a9.26,9.26,0,0,1,.322-1.319l1.885-6.1Z" fill="#1e1e1e"/>
      <path d="M185.41,21.951h-6.524q.158,2.178,2.744,2.178a5.356,5.356,0,0,0,2.9-.782v2.227a7.62,7.62,0,0,1-3.6.742,5.071,5.071,0,0,1-3.76-1.343,5.075,5.075,0,0,1-1.337-3.745,5.349,5.349,0,0,1,1.445-3.945,4.815,4.815,0,0,1,3.555-1.455,4.366,4.366,0,0,1,3.383,1.3,5,5,0,0,1,1.2,3.525Zm-2.862-1.895q0-2.148-1.738-2.148a1.659,1.659,0,0,0-1.284.615,2.792,2.792,0,0,0-.659,1.533Z" fill="#1e1e1e"/>
      <path d="M196.748,16.072l-3.3,4.844,3.281,5.156h-3.555l-1.445-2.695q-.176-.323-.42-.909h-.039a6.353,6.353,0,0,1-.4.879l-1.455,2.725h-3.545l3.379-4.981-3.174-5.019h3.574l1.426,2.8a6.2,6.2,0,0,1,.4.937h.039a6.673,6.673,0,0,1,.42-.957l1.455-2.783Z" fill="#1e1e1e"/>
      <path d="M201.223,24.91h-.039v5.762H198.1v-14.6h3.086v1.5h.039a3.927,3.927,0,0,1,6.216-.415,5.675,5.675,0,0,1,1.059,3.628,6.151,6.151,0,0,1-1.235,4.013,4.028,4.028,0,0,1-3.286,1.514A3.116,3.116,0,0,1,201.223,24.91Zm-.088-4.1v.8a2.547,2.547,0,0,0,.547,1.689,1.778,1.778,0,0,0,1.436.655,1.89,1.89,0,0,0,1.635-.816,3.932,3.932,0,0,0,.581-2.309q0-2.637-2.05-2.637a1.924,1.924,0,0,0-1.548.718A2.857,2.857,0,0,0,201.135,20.808Z" fill="#1e1e1e"/>
      <path d="M219.519,21.951H213q.156,2.178,2.744,2.178a5.355,5.355,0,0,0,2.9-.782v2.227a7.619,7.619,0,0,1-3.6.742,5.068,5.068,0,0,1-3.76-1.343,5.072,5.072,0,0,1-1.338-3.745,5.349,5.349,0,0,1,1.445-3.945,4.817,4.817,0,0,1,3.555-1.455,4.368,4.368,0,0,1,3.384,1.3,5,5,0,0,1,1.2,3.525Zm-2.861-1.895q0-2.148-1.739-2.148a1.66,1.66,0,0,0-1.284.615,2.792,2.792,0,0,0-.659,1.533Z" fill="#1e1e1e"/>
      <path d="M227.958,18.855a2.671,2.671,0,0,0-1.3-.3,1.872,1.872,0,0,0-1.573.738,3.212,3.212,0,0,0-.566,2.007v4.775h-3.086v-10h3.086v1.855h.039A2.669,2.669,0,0,1,227.2,15.9a1.987,1.987,0,0,1,.761.117Z" fill="#1e1e1e"/>
      <path d="M230.9,14.49a1.8,1.8,0,0,1-1.28-.464,1.5,1.5,0,0,1-.5-1.138,1.442,1.442,0,0,1,.5-1.133,2.091,2.091,0,0,1,2.564,0,1.448,1.448,0,0,1,.493,1.133,1.49,1.49,0,0,1-.493,1.153A1.836,1.836,0,0,1,230.9,14.49Zm1.523,11.582H229.34v-10h3.086Z" fill="#1e1e1e"/>
      <path d="M243.91,21.951h-6.524q.158,2.178,2.744,2.178a5.356,5.356,0,0,0,2.9-.782v2.227a7.62,7.62,0,0,1-3.6.742,5.071,5.071,0,0,1-3.76-1.343,5.075,5.075,0,0,1-1.337-3.745,5.349,5.349,0,0,1,1.445-3.945,4.815,4.815,0,0,1,3.555-1.455,4.366,4.366,0,0,1,3.383,1.3,5,5,0,0,1,1.2,3.525Zm-2.862-1.895q0-2.148-1.738-2.148a1.659,1.659,0,0,0-1.284.615,2.792,2.792,0,0,0-.659,1.533Z" fill="#1e1e1e"/>
      <path d="M255.484,26.072h-3.076V20.515q0-2.325-1.66-2.324a1.647,1.647,0,0,0-1.319.615,2.344,2.344,0,0,0-.517,1.563v5.7h-3.086v-10h3.086v1.582h.039a3.534,3.534,0,0,1,3.213-1.826q3.32,0,3.32,4.121Z" fill="#1e1e1e"/>
      <path d="M265.469,25.711a6.106,6.106,0,0,1-3.017.605,5.107,5.107,0,0,1-3.731-1.4,4.825,4.825,0,0,1-1.426-3.6,5.315,5.315,0,0,1,1.529-4.019,5.649,5.649,0,0,1,4.087-1.469,5.235,5.235,0,0,1,2.558.469v2.617a3.516,3.516,0,0,0-2.158-.723,2.843,2.843,0,0,0-2.1.776,2.9,2.9,0,0,0-.777,2.144,2.849,2.849,0,0,0,.742,2.085,2.726,2.726,0,0,0,2.041.757,4.069,4.069,0,0,0,2.256-.723Z" fill="#1e1e1e"/>
      <path d="M276.457,21.951h-6.523q.157,2.178,2.744,2.178a5.356,5.356,0,0,0,2.9-.782v2.227a7.62,7.62,0,0,1-3.6.742,5.071,5.071,0,0,1-3.76-1.343,5.076,5.076,0,0,1-1.338-3.745,5.349,5.349,0,0,1,1.446-3.945,4.815,4.815,0,0,1,3.554-1.455,4.368,4.368,0,0,1,3.384,1.3,5,5,0,0,1,1.2,3.525ZM273.6,20.056q0-2.148-1.738-2.148a1.659,1.659,0,0,0-1.284.615,2.785,2.785,0,0,0-.659,1.533Z" fill="#1e1e1e"/>
      <path d="M288.577,26.316a5.377,5.377,0,0,1-3.931-1.4,5.081,5.081,0,0,1-1.431-3.8,5.082,5.082,0,0,1,1.485-3.882,5.607,5.607,0,0,1,4.013-1.4,5.315,5.315,0,0,1,3.907,1.4,4.983,4.983,0,0,1,1.416,3.706,5.291,5.291,0,0,1-1.46,3.936A5.435,5.435,0,0,1,288.577,26.316Zm.078-8.125a2.057,2.057,0,0,0-1.7.752,3.313,3.313,0,0,0-.606,2.129q0,2.881,2.324,2.881,2.217,0,2.217-2.959Q290.891,18.192,288.655,18.191Z" fill="#1e1e1e"/>
      <path d="M302.433,13.63a3.122,3.122,0,0,0-1.143-.234q-1.484,0-1.484,1.611v1.065h2.285v2.275h-2.285v7.725H296.73V18.347h-1.68V16.072h1.68v-1.24a3.6,3.6,0,0,1,1.113-2.754,4.244,4.244,0,0,1,3.028-1.045,5.322,5.322,0,0,1,1.562.2Z" fill="#1e1e1e"/>
      <path d="M317.414,26.072h-2.92V24.636h-.039a3.26,3.26,0,0,1-2.979,1.68,3.117,3.117,0,0,1-2.29-.825,2.955,2.955,0,0,1-.835-2.2q0-2.912,3.447-3.36l2.715-.361q0-1.641-1.777-1.641a6.067,6.067,0,0,0-3.4,1.065V16.668a7.617,7.617,0,0,1,1.763-.586,9.278,9.278,0,0,1,2.036-.254q4.278,0,4.278,4.267Zm-2.9-4.063v-.673l-1.816.234q-1.5.2-1.5,1.357a1.124,1.124,0,0,0,.366.865,1.409,1.409,0,0,0,.991.337,1.828,1.828,0,0,0,1.416-.6A2.166,2.166,0,0,0,314.513,22.009Z" fill="#1e1e1e"/>
      <path d="M335.682,26.072h-3.076v-5.7q0-2.178-1.6-2.178a1.472,1.472,0,0,0-1.24.654,2.691,2.691,0,0,0-.478,1.631v5.6H326.2V20.31q0-2.119-1.573-2.119a1.5,1.5,0,0,0-1.264.625,2.749,2.749,0,0,0-.474,1.7v5.557H319.8v-10h3.086v1.562h.039a3.792,3.792,0,0,1,3.233-1.806,2.879,2.879,0,0,1,2.9,1.865,3.7,3.7,0,0,1,3.359-1.865q3.262,0,3.262,4.023Z" fill="#1e1e1e"/>
      <path d="M341.2,24.91h-.039v5.762h-3.086v-14.6h3.086v1.5h.039a3.927,3.927,0,0,1,6.216-.415,5.675,5.675,0,0,1,1.059,3.628,6.151,6.151,0,0,1-1.235,4.013,4.028,4.028,0,0,1-3.286,1.514A3.116,3.116,0,0,1,341.2,24.91Zm-.088-4.1v.8a2.542,2.542,0,0,0,.547,1.689,1.777,1.777,0,0,0,1.435.655,1.893,1.893,0,0,0,1.636-.816,3.932,3.932,0,0,0,.581-2.309q0-2.637-2.051-2.637a1.925,1.925,0,0,0-1.548.718A2.862,2.862,0,0,0,341.108,20.808Z" fill="#1e1e1e"/>
      <path d="M353.559,26.072h-3.086v-14.8h3.086Z" fill="#1e1e1e"/>
      <path d="M357.622,14.49a1.8,1.8,0,0,1-1.28-.464,1.5,1.5,0,0,1-.5-1.138,1.442,1.442,0,0,1,.5-1.133,2.091,2.091,0,0,1,2.564,0,1.448,1.448,0,0,1,.493,1.133,1.49,1.49,0,0,1-.493,1.153A1.836,1.836,0,0,1,357.622,14.49Zm1.523,11.582h-3.086v-10h3.086Z" fill="#1e1e1e"/>
      <path d="M367.589,25.955a4.558,4.558,0,0,1-2.06.361q-3.263,0-3.262-3.389v-4.58h-1.621V16.072h1.621V13.914l3.076-.879v3.037h2.246v2.275h-2.246V22.39q0,1.563,1.24,1.563a2.1,2.1,0,0,0,1.006-.283Z" fill="#1e1e1e"/>
      <path d="M378.936,26.072H375.86V24.548h-.049a3.489,3.489,0,0,1-3.057,1.768q-3.476,0-3.476-4.209V16.072h3.076v5.762q0,2.119,1.68,2.119a1.663,1.663,0,0,0,1.328-.581,2.344,2.344,0,0,0,.5-1.577V16.072h3.076Z" fill="#1e1e1e"/>
      <path d="M391.309,26.072h-3.086V24.7h-.039a3.459,3.459,0,0,1-3.1,1.621,3.789,3.789,0,0,1-3.017-1.323,5.475,5.475,0,0,1-1.143-3.7,5.962,5.962,0,0,1,1.26-3.975,4.109,4.109,0,0,1,3.3-1.494,2.808,2.808,0,0,1,2.7,1.386h.039V11.267h3.086Zm-3.027-4.863v-.752a2.362,2.362,0,0,0-.567-1.621,2,2,0,0,0-3.076.161,3.741,3.741,0,0,0-.576,2.212,3.232,3.232,0,0,0,.557,2.031,1.976,1.976,0,0,0,3.071-.039A3.138,3.138,0,0,0,388.282,21.209Z" fill="#1e1e1e"/>
      <path d="M402.849,21.951h-6.523q.156,2.178,2.744,2.178a5.355,5.355,0,0,0,2.9-.782v2.227a7.619,7.619,0,0,1-3.6.742,5.068,5.068,0,0,1-3.76-1.343,5.072,5.072,0,0,1-1.338-3.745,5.349,5.349,0,0,1,1.445-3.945,4.817,4.817,0,0,1,3.555-1.455,4.368,4.368,0,0,1,3.384,1.3,5,5,0,0,1,1.2,3.525Zm-2.861-1.895q0-2.148-1.739-2.148a1.66,1.66,0,0,0-1.284.615,2.792,2.792,0,0,0-.659,1.533Z" fill="#1e1e1e"/>
      <path d="M404.226,25.808v-2.5a6.581,6.581,0,0,0,1.519.684,5.053,5.053,0,0,0,1.43.224,3.079,3.079,0,0,0,1.294-.224.726.726,0,0,0,.474-.684.63.63,0,0,0-.215-.488,2.018,2.018,0,0,0-.552-.342,6.307,6.307,0,0,0-.737-.264q-.4-.117-.772-.263a7.324,7.324,0,0,1-1.049-.484,3.036,3.036,0,0,1-.762-.6,2.368,2.368,0,0,1-.469-.791,3.169,3.169,0,0,1-.161-1.065,2.741,2.741,0,0,1,.366-1.445,2.994,2.994,0,0,1,.977-.991,4.479,4.479,0,0,1,1.4-.567,7.318,7.318,0,0,1,1.636-.18,9.138,9.138,0,0,1,1.348.1,10.149,10.149,0,0,1,1.347.3v2.383a4.88,4.88,0,0,0-1.255-.513,5.285,5.285,0,0,0-1.313-.171,2.883,2.883,0,0,0-.571.054,1.911,1.911,0,0,0-.474.156.877.877,0,0,0-.322.264.605.605,0,0,0-.117.366.676.676,0,0,0,.175.469,1.562,1.562,0,0,0,.459.337,4.491,4.491,0,0,0,.63.254c.232.075.461.151.689.229a9.115,9.115,0,0,1,1.113.469,3.56,3.56,0,0,1,.855.6,2.339,2.339,0,0,1,.546.8,3.2,3.2,0,0,1-.195,2.612,3.082,3.082,0,0,1-1.025,1.025,4.636,4.636,0,0,1-1.475.576,8.209,8.209,0,0,1-1.733.181A8.926,8.926,0,0,1,404.226,25.808Z" fill="#1e1e1e"/>
      <path d="M425.115,29.255H422.6a12.252,12.252,0,0,1-3.154-8.544,13.039,13.039,0,0,1,3.154-8.643h2.5a14.039,14.039,0,0,0-2.959,8.643A13.568,13.568,0,0,0,425.115,29.255Z" fill="#1e1e1e"/>
      <path d="M429.59,26.072H426.5v-14.8h3.086Z" fill="#1e1e1e"/>
      <path d="M433.652,14.49a1.8,1.8,0,0,1-1.279-.464,1.493,1.493,0,0,1-.5-1.138,1.44,1.44,0,0,1,.5-1.133,2.09,2.09,0,0,1,2.563,0,1.448,1.448,0,0,1,.493,1.133,1.49,1.49,0,0,1-.493,1.153A1.836,1.836,0,0,1,433.652,14.49Zm1.523,11.582h-3.086v-10h3.086Z" fill="#1e1e1e"/>
      <path d="M447.705,26.072H444l-3.193-4.961h-.039v4.961h-3.086v-14.8h3.086v9.424h.039l2.979-4.619h3.662l-3.584,4.7Z" fill="#1e1e1e"/>
      <path d="M457.515,21.951h-6.523q.156,2.178,2.744,2.178a5.355,5.355,0,0,0,2.9-.782v2.227a7.619,7.619,0,0,1-3.6.742,5.069,5.069,0,0,1-3.76-1.343,5.072,5.072,0,0,1-1.338-3.745,5.349,5.349,0,0,1,1.445-3.945,4.817,4.817,0,0,1,3.555-1.455,4.368,4.368,0,0,1,3.384,1.3,5,5,0,0,1,1.2,3.525Zm-2.861-1.895q0-2.148-1.739-2.148a1.66,1.66,0,0,0-1.284.615,2.792,2.792,0,0,0-.659,1.533Z" fill="#1e1e1e"/>
      <path d="M470.914,25.955a4.566,4.566,0,0,1-2.061.361q-3.262,0-3.262-3.389v-4.58H463.97V16.072h1.621V13.914l3.076-.879v3.037h2.247v2.275h-2.247V22.39q0,1.563,1.241,1.563a2.1,2.1,0,0,0,1.006-.283Z" fill="#1e1e1e"/>
      <path d="M482.408,26.072h-3.076V20.388q0-2.2-1.6-2.2a1.64,1.64,0,0,0-1.328.615,2.371,2.371,0,0,0-.508,1.563v5.7h-3.086v-14.8h3.086v6.289h.039a3.506,3.506,0,0,1,3.076-1.728q3.4,0,3.4,4.1Z" fill="#1e1e1e"/>
      <path d="M489.581,26.316a5.377,5.377,0,0,1-3.931-1.4,5.081,5.081,0,0,1-1.431-3.8,5.082,5.082,0,0,1,1.485-3.882,5.607,5.607,0,0,1,4.013-1.4,5.311,5.311,0,0,1,3.906,1.4,4.98,4.98,0,0,1,1.417,3.706,5.291,5.291,0,0,1-1.46,3.936A5.435,5.435,0,0,1,489.581,26.316Zm.078-8.125a2.06,2.06,0,0,0-1.7.752,3.319,3.319,0,0,0-.605,2.129q0,2.881,2.324,2.881,2.217,0,2.217-2.959Q491.9,18.192,489.659,18.191Z" fill="#1e1e1e"/>
      <path d="M496.415,25.808v-2.5a6.581,6.581,0,0,0,1.519.684,5.06,5.06,0,0,0,1.431.224,3.082,3.082,0,0,0,1.294-.224.727.727,0,0,0,.473-.684.63.63,0,0,0-.215-.488,2.011,2.011,0,0,0-.551-.342,6.392,6.392,0,0,0-.738-.264c-.266-.078-.524-.166-.771-.263a7.339,7.339,0,0,1-1.05-.484,3.036,3.036,0,0,1-.762-.6,2.349,2.349,0,0,1-.468-.791,3.143,3.143,0,0,1-.162-1.065,2.741,2.741,0,0,1,.367-1.445,2.991,2.991,0,0,1,.976-.991,4.475,4.475,0,0,1,1.4-.567,7.3,7.3,0,0,1,1.635-.18,9.127,9.127,0,0,1,1.348.1,10.2,10.2,0,0,1,1.348.3v2.383a4.909,4.909,0,0,0-1.255-.513,5.293,5.293,0,0,0-1.314-.171,2.89,2.89,0,0,0-.571.054,1.89,1.89,0,0,0-.473.156.88.88,0,0,0-.323.264.605.605,0,0,0-.117.366.677.677,0,0,0,.176.469,1.536,1.536,0,0,0,.459.337,4.395,4.395,0,0,0,.63.254c.231.075.461.151.688.229a9.115,9.115,0,0,1,1.113.469,3.521,3.521,0,0,1,.855.6,2.342,2.342,0,0,1,.547.8,3.209,3.209,0,0,1-.195,2.612,3.075,3.075,0,0,1-1.026,1.025,4.64,4.64,0,0,1-1.474.576,8.212,8.212,0,0,1-1.734.181A8.93,8.93,0,0,1,496.415,25.808Z" fill="#1e1e1e"/>
      <path d="M514.88,21.951h-6.523q.156,2.178,2.744,2.178a5.353,5.353,0,0,0,2.9-.782v2.227a7.616,7.616,0,0,1-3.6.742,5.071,5.071,0,0,1-3.76-1.343,5.076,5.076,0,0,1-1.338-3.745,5.349,5.349,0,0,1,1.446-3.945,4.813,4.813,0,0,1,3.554-1.455,4.368,4.368,0,0,1,3.384,1.3,5,5,0,0,1,1.2,3.525Zm-2.861-1.895q0-2.148-1.738-2.148a1.659,1.659,0,0,0-1.284.615,2.786,2.786,0,0,0-.66,1.533Z" fill="#1e1e1e"/>
      <path d="M527,26.316a5.375,5.375,0,0,1-3.93-1.4,5.081,5.081,0,0,1-1.431-3.8,5.082,5.082,0,0,1,1.485-3.882,5.607,5.607,0,0,1,4.013-1.4,5.311,5.311,0,0,1,3.906,1.4,4.979,4.979,0,0,1,1.416,3.706A5.287,5.287,0,0,1,531,24.871,5.432,5.432,0,0,1,527,26.316Zm.079-8.125a2.06,2.06,0,0,0-1.7.752,3.319,3.319,0,0,0-.605,2.129q0,2.881,2.324,2.881,2.217,0,2.217-2.959Q529.314,18.192,527.078,18.191Z" fill="#1e1e1e"/>
      <path d="M540.856,13.63a3.126,3.126,0,0,0-1.143-.234q-1.483,0-1.484,1.611v1.065h2.285v2.275h-2.285v7.725h-3.076V18.347h-1.68V16.072h1.68v-1.24a3.6,3.6,0,0,1,1.113-2.754,4.243,4.243,0,0,1,3.027-1.045,5.33,5.33,0,0,1,1.563.2Z" fill="#1e1e1e"/>
      <path d="M562,16.072l-2.88,10h-3.243L554.4,20.213a5.954,5.954,0,0,1-.166-1.28h-.059a7.659,7.659,0,0,1-.2,1.24l-1.582,5.9h-3.2l-2.823-10h3.145L550.9,22.6a8.409,8.409,0,0,1,.146,1.114h.059a6.1,6.1,0,0,1,.176-1.153L553,16.072h2.939l1.543,6.523a10.334,10.334,0,0,1,.137,1.133h.068a11.292,11.292,0,0,1,.156-1.133l1.3-6.523Z" fill="#1e1e1e"/>
      <path d="M571.587,26.072h-2.92V24.636h-.039a3.259,3.259,0,0,1-2.978,1.68,3.115,3.115,0,0,1-2.29-.825,2.955,2.955,0,0,1-.835-2.2q0-2.912,3.447-3.36l2.715-.361q0-1.641-1.777-1.641a6.064,6.064,0,0,0-3.4,1.065V16.668a7.617,7.617,0,0,1,1.763-.586,9.278,9.278,0,0,1,2.036-.254q4.278,0,4.277,4.267Zm-2.9-4.063v-.673l-1.816.234q-1.5.2-1.5,1.357a1.124,1.124,0,0,0,.366.865,1.409,1.409,0,0,0,.991.337,1.828,1.828,0,0,0,1.416-.6A2.171,2.171,0,0,0,568.687,22.009Z" fill="#1e1e1e"/>
      <path d="M579.878,25.955a4.558,4.558,0,0,1-2.06.361q-3.262,0-3.262-3.389v-4.58h-1.621V16.072h1.621V13.914l3.076-.879v3.037h2.246v2.275h-2.246V22.39q0,1.563,1.241,1.563a2.1,2.1,0,0,0,1-.283Z" fill="#1e1e1e"/>
      <path d="M590.537,21.951h-6.524q.158,2.178,2.744,2.178a5.356,5.356,0,0,0,2.9-.782v2.227a7.62,7.62,0,0,1-3.6.742,5.071,5.071,0,0,1-3.76-1.343,5.075,5.075,0,0,1-1.337-3.745,5.349,5.349,0,0,1,1.445-3.945,4.815,4.815,0,0,1,3.555-1.455,4.366,4.366,0,0,1,3.383,1.3,5,5,0,0,1,1.2,3.525Zm-2.862-1.895q0-2.148-1.738-2.148a1.659,1.659,0,0,0-1.284.615,2.785,2.785,0,0,0-.659,1.533Z" fill="#1e1e1e"/>
      <path d="M598.976,18.855a2.675,2.675,0,0,0-1.3-.3,1.87,1.87,0,0,0-1.572.738,3.212,3.212,0,0,0-.566,2.007v4.775h-3.086v-10h3.086v1.855h.039a2.669,2.669,0,0,1,2.636-2.031,1.992,1.992,0,0,1,.762.117Z" fill="#1e1e1e"/>
      <path d="M620.412,16.072l-2.881,10h-3.242l-1.475-5.859a5.954,5.954,0,0,1-.166-1.28h-.059a7.659,7.659,0,0,1-.2,1.24l-1.582,5.9h-3.2l-2.822-10h3.144l1.377,6.523a8.562,8.562,0,0,1,.147,1.114h.058a6.1,6.1,0,0,1,.176-1.153l1.719-6.484h2.939L615.89,22.6a10.334,10.334,0,0,1,.137,1.133h.068a11.292,11.292,0,0,1,.156-1.133l1.3-6.523Z" fill="#1e1e1e"/>
      <path d="M630,26.072h-2.919V24.636h-.04a3.258,3.258,0,0,1-2.978,1.68,3.117,3.117,0,0,1-2.29-.825,2.955,2.955,0,0,1-.835-2.2q0-2.912,3.447-3.36l2.715-.361q0-1.641-1.777-1.641a6.064,6.064,0,0,0-3.4,1.065V16.668a7.617,7.617,0,0,1,1.763-.586,9.278,9.278,0,0,1,2.036-.254Q630,15.828,630,20.1Zm-2.9-4.063v-.673l-1.816.234q-1.5.2-1.5,1.357a1.124,1.124,0,0,0,.366.865,1.409,1.409,0,0,0,.991.337,1.828,1.828,0,0,0,1.416-.6A2.171,2.171,0,0,0,627.1,22.009Z" fill="#1e1e1e"/>
      <path d="M641.654,16.072l-3.721,10h-3.516l-3.544-10h3.3l1.739,6.162a8.966,8.966,0,0,1,.341,1.777h.039a10.059,10.059,0,0,1,.362-1.718l1.777-6.221Z" fill="#1e1e1e"/>
      <path d="M651.6,21.951h-6.523q.156,2.178,2.744,2.178a5.355,5.355,0,0,0,2.9-.782v2.227a7.619,7.619,0,0,1-3.6.742,5.069,5.069,0,0,1-3.76-1.343,5.072,5.072,0,0,1-1.338-3.745,5.349,5.349,0,0,1,1.445-3.945,4.817,4.817,0,0,1,3.555-1.455,4.368,4.368,0,0,1,3.384,1.3,5,5,0,0,1,1.2,3.525Zm-2.861-1.895q0-2.148-1.739-2.148a1.66,1.66,0,0,0-1.284.615,2.792,2.792,0,0,0-.659,1.533Z" fill="#1e1e1e"/>
      <path d="M652.976,25.808v-2.5a6.581,6.581,0,0,0,1.519.684,5.053,5.053,0,0,0,1.43.224,3.079,3.079,0,0,0,1.294-.224.726.726,0,0,0,.474-.684.63.63,0,0,0-.215-.488,2.018,2.018,0,0,0-.552-.342,6.307,6.307,0,0,0-.737-.264q-.4-.117-.772-.263a7.324,7.324,0,0,1-1.049-.484,3.036,3.036,0,0,1-.762-.6,2.368,2.368,0,0,1-.469-.791,3.169,3.169,0,0,1-.161-1.065,2.741,2.741,0,0,1,.366-1.445,2.994,2.994,0,0,1,.977-.991,4.479,4.479,0,0,1,1.4-.567,7.318,7.318,0,0,1,1.636-.18,9.138,9.138,0,0,1,1.348.1,10.149,10.149,0,0,1,1.347.3v2.383a4.88,4.88,0,0,0-1.255-.513,5.285,5.285,0,0,0-1.313-.171,2.883,2.883,0,0,0-.571.054,1.911,1.911,0,0,0-.474.156.877.877,0,0,0-.322.264.605.605,0,0,0-.117.366.676.676,0,0,0,.175.469,1.562,1.562,0,0,0,.459.337,4.491,4.491,0,0,0,.63.254c.232.075.461.151.689.229a9.115,9.115,0,0,1,1.113.469,3.56,3.56,0,0,1,.855.6,2.339,2.339,0,0,1,.546.8,3.2,3.2,0,0,1-.2,2.612,3.082,3.082,0,0,1-1.025,1.025,4.636,4.636,0,0,1-1.475.576,8.209,8.209,0,0,1-1.733.181A8.926,8.926,0,0,1,652.976,25.808Z" fill="#1e1e1e"/>
      <path d="M665.492,23.611l-1.436,4.941h-2.4l1-4.941Z" fill="#1e1e1e"/>
      <path d="M179.67,50.072h-3.086v-14.8h3.086Z" fill="#1e1e1e"/>
      <path d="M183.733,38.49a1.8,1.8,0,0,1-1.279-.464,1.5,1.5,0,0,1-.5-1.138,1.442,1.442,0,0,1,.5-1.133,2.09,2.09,0,0,1,2.563,0,1.448,1.448,0,0,1,.493,1.133,1.49,1.49,0,0,1-.493,1.153A1.836,1.836,0,0,1,183.733,38.49Zm1.523,11.582H182.17v-10h3.086Z" fill="#1e1e1e"/>
      <path d="M197.6,48.929a5.659,5.659,0,0,1-1.611,4.312,6.533,6.533,0,0,1-4.668,1.528,7.4,7.4,0,0,1-3.2-.576V51.6a6.132,6.132,0,0,0,3.115.9,3.36,3.36,0,0,0,2.422-.825,2.961,2.961,0,0,0,.859-2.242v-.791h-.039a3.445,3.445,0,0,1-3.115,1.68,3.745,3.745,0,0,1-3.037-1.348,5.461,5.461,0,0,1-1.123-3.613,6.089,6.089,0,0,1,1.25-4.033,4.08,4.08,0,0,1,3.291-1.494,3.037,3.037,0,0,1,2.734,1.406h.039V40.072H197.6Zm-3.047-3.662v-.791a2.431,2.431,0,0,0-.561-1.616,1.817,1.817,0,0,0-1.46-.669,1.889,1.889,0,0,0-1.612.8,3.771,3.771,0,0,0-.586,2.256,3.178,3.178,0,0,0,.557,1.977,1.812,1.812,0,0,0,1.524.728,1.886,1.886,0,0,0,1.547-.738A3.019,3.019,0,0,0,194.553,45.267Z" fill="#1e1e1e"/>
      <path d="M209.68,50.072H206.6V44.388q0-2.2-1.6-2.2a1.641,1.641,0,0,0-1.328.615,2.371,2.371,0,0,0-.508,1.563v5.7h-3.085v-14.8h3.085v6.289h.04a3.5,3.5,0,0,1,3.076-1.728q3.4,0,3.4,4.1Z" fill="#1e1e1e"/>
      <path d="M218,49.955a4.558,4.558,0,0,1-2.06.361q-3.263,0-3.262-3.389v-4.58h-1.621V40.072h1.621V37.914l3.076-.879v3.037H218v2.275h-2.246V46.39q0,1.563,1.241,1.563a2.1,2.1,0,0,0,1-.283Z" fill="#1e1e1e"/>
      <path d="M239.739,40.072l-2.881,10h-3.242l-1.475-5.859a5.954,5.954,0,0,1-.166-1.28h-.059a7.55,7.55,0,0,1-.195,1.24l-1.582,5.9h-3.2l-2.822-10h3.144l1.377,6.523a8.392,8.392,0,0,1,.147,1.114h.058a6.181,6.181,0,0,1,.176-1.153l1.719-6.484h2.939l1.543,6.523a10.334,10.334,0,0,1,.137,1.133h.068a11.3,11.3,0,0,1,.157-1.133l1.3-6.523Z" fill="#1e1e1e"/>
      <path d="M249.328,50.072h-2.92V48.636h-.039a3.259,3.259,0,0,1-2.979,1.68,3.117,3.117,0,0,1-2.29-.825,2.955,2.955,0,0,1-.835-2.2q0-2.912,3.447-3.36l2.715-.361q0-1.641-1.777-1.641a6.067,6.067,0,0,0-3.4,1.065V40.668a7.617,7.617,0,0,1,1.763-.586,9.278,9.278,0,0,1,2.036-.254q4.278,0,4.278,4.267Zm-2.9-4.063v-.673l-1.816.234q-1.5.2-1.5,1.357a1.124,1.124,0,0,0,.366.865,1.409,1.409,0,0,0,.991.337,1.828,1.828,0,0,0,1.416-.6A2.166,2.166,0,0,0,246.427,46.009Z" fill="#1e1e1e"/>
      <path d="M260.981,40.072l-3.721,10h-3.515l-3.545-10h3.3l1.739,6.162a9.05,9.05,0,0,1,.342,1.777h.039a10.043,10.043,0,0,1,.361-1.718l1.777-6.221Z" fill="#1e1e1e"/>
      <path d="M270.925,45.951H264.4q.156,2.178,2.744,2.178a5.353,5.353,0,0,0,2.9-.782v2.227a7.616,7.616,0,0,1-3.6.742,4.655,4.655,0,0,1-5.1-5.088,5.353,5.353,0,0,1,1.445-3.945,4.817,4.817,0,0,1,3.555-1.455,4.368,4.368,0,0,1,3.384,1.3,5,5,0,0,1,1.2,3.525Zm-2.861-1.9q0-2.148-1.738-2.148a1.662,1.662,0,0,0-1.285.615,2.792,2.792,0,0,0-.659,1.533Z" fill="#1e1e1e"/>
      <path d="M272.3,49.808v-2.5a6.581,6.581,0,0,0,1.519.684,5.059,5.059,0,0,0,1.43.224,3.079,3.079,0,0,0,1.294-.224.726.726,0,0,0,.474-.684.63.63,0,0,0-.215-.488,2,2,0,0,0-.552-.342,6.307,6.307,0,0,0-.737-.264q-.4-.117-.771-.263a7.339,7.339,0,0,1-1.05-.484,3.036,3.036,0,0,1-.762-.6,2.368,2.368,0,0,1-.469-.791,3.169,3.169,0,0,1-.161-1.065,2.741,2.741,0,0,1,.366-1.445,3,3,0,0,1,.977-.991,4.479,4.479,0,0,1,1.4-.567,7.318,7.318,0,0,1,1.636-.18,9.127,9.127,0,0,1,1.348.1,10.149,10.149,0,0,1,1.347.3v2.383a4.888,4.888,0,0,0-1.254-.513,5.3,5.3,0,0,0-1.314-.171,2.89,2.89,0,0,0-.571.054,1.911,1.911,0,0,0-.474.156.877.877,0,0,0-.322.264.605.605,0,0,0-.117.366.672.672,0,0,0,.176.469,1.536,1.536,0,0,0,.459.337,4.428,4.428,0,0,0,.629.254c.232.075.461.151.689.229a9.115,9.115,0,0,1,1.113.469,3.56,3.56,0,0,1,.855.6,2.342,2.342,0,0,1,.547.8,3.2,3.2,0,0,1-.2,2.612,3.072,3.072,0,0,1-1.025,1.025,4.636,4.636,0,0,1-1.475.576,8.2,8.2,0,0,1-1.733.181A8.926,8.926,0,0,1,272.3,49.808Z" fill="#1e1e1e"/>
      <path d="M284.818,47.611l-1.436,4.941h-2.4l1-4.941Z" fill="#1e1e1e"/>
      <path d="M292.181,49.808v-2.5a6.581,6.581,0,0,0,1.519.684,5.059,5.059,0,0,0,1.43.224,3.079,3.079,0,0,0,1.294-.224.726.726,0,0,0,.474-.684.63.63,0,0,0-.215-.488,2,2,0,0,0-.552-.342,6.307,6.307,0,0,0-.737-.264q-.4-.117-.771-.263a7.289,7.289,0,0,1-1.05-.484,3.036,3.036,0,0,1-.762-.6,2.368,2.368,0,0,1-.469-.791,3.169,3.169,0,0,1-.161-1.065,2.741,2.741,0,0,1,.366-1.445,2.994,2.994,0,0,1,.977-.991,4.479,4.479,0,0,1,1.4-.567,7.318,7.318,0,0,1,1.636-.18,9.138,9.138,0,0,1,1.348.1,10.149,10.149,0,0,1,1.347.3v2.383A4.888,4.888,0,0,0,298,42.1a5.3,5.3,0,0,0-1.314-.171,2.883,2.883,0,0,0-.571.054,1.911,1.911,0,0,0-.474.156.877.877,0,0,0-.322.264.605.605,0,0,0-.117.366.676.676,0,0,0,.175.469,1.562,1.562,0,0,0,.459.337,4.491,4.491,0,0,0,.63.254c.232.075.461.151.689.229a9.115,9.115,0,0,1,1.113.469,3.56,3.56,0,0,1,.855.6,2.325,2.325,0,0,1,.546.8,3.2,3.2,0,0,1-.195,2.612,3.072,3.072,0,0,1-1.025,1.025,4.636,4.636,0,0,1-1.475.576,8.2,8.2,0,0,1-1.733.181A8.926,8.926,0,0,1,292.181,49.808Z" fill="#1e1e1e"/>
      <path d="M306.42,50.316a5.375,5.375,0,0,1-3.93-1.4,5.081,5.081,0,0,1-1.431-3.8,5.085,5.085,0,0,1,1.484-3.882,5.611,5.611,0,0,1,4.014-1.4,5.311,5.311,0,0,1,3.906,1.4,4.979,4.979,0,0,1,1.416,3.706,5.287,5.287,0,0,1-1.46,3.936A5.432,5.432,0,0,1,306.42,50.316Zm.078-8.125a2.059,2.059,0,0,0-1.7.752,3.319,3.319,0,0,0-.6,2.129q0,2.882,2.324,2.881,2.217,0,2.217-2.959Q308.735,42.192,306.5,42.191Z" fill="#1e1e1e"/>
      <path d="M323.319,50.072h-3.076V48.548h-.049a3.489,3.489,0,0,1-3.057,1.768q-3.476,0-3.476-4.209V40.072h3.076v5.762q0,2.119,1.679,2.119a1.663,1.663,0,0,0,1.329-.581,2.344,2.344,0,0,0,.5-1.577V40.072h3.076Z" fill="#1e1e1e"/>
      <path d="M335.469,50.072h-3.076V44.515q0-2.325-1.66-2.324a1.645,1.645,0,0,0-1.318.615,2.345,2.345,0,0,0-.518,1.563v5.7h-3.086v-10H328.9v1.582h.039a3.535,3.535,0,0,1,3.213-1.826q3.321,0,3.32,4.121Z" fill="#1e1e1e"/>
      <path d="M347.7,50.072H344.61V48.7h-.039a3.461,3.461,0,0,1-3.1,1.621,3.793,3.793,0,0,1-3.018-1.323,5.48,5.48,0,0,1-1.142-3.7,5.962,5.962,0,0,1,1.26-3.975,4.109,4.109,0,0,1,3.3-1.494,2.809,2.809,0,0,1,2.7,1.386h.039V35.267H347.7Zm-3.028-4.863v-.752a2.361,2.361,0,0,0-.566-1.621,2,2,0,0,0-3.076.161,3.741,3.741,0,0,0-.576,2.212,3.238,3.238,0,0,0,.556,2.031,1.977,1.977,0,0,0,3.072-.039A3.138,3.138,0,0,0,344.668,45.209Z" fill="#1e1e1e"/>
      <path d="M370.293,40.072l-2.88,10H364.17L362.7,44.213a5.892,5.892,0,0,1-.166-1.28h-.059a7.659,7.659,0,0,1-.195,1.24l-1.582,5.9h-3.2l-2.823-10h3.145L359.19,46.6a8.409,8.409,0,0,1,.146,1.114h.059a6.1,6.1,0,0,1,.176-1.153l1.719-6.484h2.939l1.543,6.523a10.334,10.334,0,0,1,.137,1.133h.068a11.292,11.292,0,0,1,.156-1.133l1.3-6.523Z" fill="#1e1e1e"/>
      <path d="M379.882,50.072h-2.92V48.636h-.039a3.259,3.259,0,0,1-2.978,1.68,3.115,3.115,0,0,1-2.29-.825,2.955,2.955,0,0,1-.835-2.2q0-2.912,3.447-3.36l2.715-.361q0-1.641-1.777-1.641a6.064,6.064,0,0,0-3.4,1.065V40.668a7.617,7.617,0,0,1,1.763-.586,9.278,9.278,0,0,1,2.036-.254q4.278,0,4.277,4.267Zm-2.9-4.063v-.673l-1.817.234q-1.5.2-1.5,1.357a1.124,1.124,0,0,0,.366.865,1.409,1.409,0,0,0,.991.337,1.828,1.828,0,0,0,1.416-.6A2.171,2.171,0,0,0,376.982,46.009Z" fill="#1e1e1e"/>
      <path d="M391.536,40.072l-3.721,10H384.3l-3.545-10h3.3l1.738,6.162a8.9,8.9,0,0,1,.342,1.777h.039a10.059,10.059,0,0,1,.362-1.718l1.777-6.221Z" fill="#1e1e1e"/>
      <path d="M401.48,45.951h-6.523q.156,2.178,2.744,2.178a5.355,5.355,0,0,0,2.9-.782v2.227a7.619,7.619,0,0,1-3.6.742,4.655,4.655,0,0,1-5.1-5.088,5.349,5.349,0,0,1,1.445-3.945,4.817,4.817,0,0,1,3.555-1.455,4.368,4.368,0,0,1,3.384,1.3,5,5,0,0,1,1.2,3.525Zm-2.861-1.9q0-2.148-1.739-2.148a1.659,1.659,0,0,0-1.284.615,2.792,2.792,0,0,0-.659,1.533Z" fill="#1e1e1e"/>
      <path d="M402.858,49.808v-2.5a6.593,6.593,0,0,0,1.518.684,5.065,5.065,0,0,0,1.431.224,3.079,3.079,0,0,0,1.294-.224.728.728,0,0,0,.474-.684.633.633,0,0,0-.215-.488,2.018,2.018,0,0,0-.552-.342,6.442,6.442,0,0,0-.737-.264c-.267-.078-.525-.166-.772-.263a7.391,7.391,0,0,1-1.05-.484,3.048,3.048,0,0,1-.761-.6,2.352,2.352,0,0,1-.469-.791,3.169,3.169,0,0,1-.161-1.065,2.741,2.741,0,0,1,.366-1.445,2.985,2.985,0,0,1,.977-.991,4.479,4.479,0,0,1,1.4-.567,7.311,7.311,0,0,1,1.636-.18,9.148,9.148,0,0,1,1.348.1,10.149,10.149,0,0,1,1.347.3v2.383a4.88,4.88,0,0,0-1.255-.513,5.285,5.285,0,0,0-1.313-.171,2.883,2.883,0,0,0-.571.054,1.911,1.911,0,0,0-.474.156.877.877,0,0,0-.322.264.606.606,0,0,0-.118.366.677.677,0,0,0,.176.469,1.549,1.549,0,0,0,.459.337,4.491,4.491,0,0,0,.63.254c.232.075.461.151.689.229a9.115,9.115,0,0,1,1.113.469,3.534,3.534,0,0,1,.854.6,2.328,2.328,0,0,1,.547.8,3.2,3.2,0,0,1-.195,2.612,3.082,3.082,0,0,1-1.025,1.025,4.636,4.636,0,0,1-1.475.576,8.209,8.209,0,0,1-1.733.181A8.922,8.922,0,0,1,402.858,49.808Z" fill="#1e1e1e"/>
      <path d="M415.373,47.611l-1.436,4.941h-2.4l1-4.941Z" fill="#1e1e1e"/>
      <path d="M432.374,45.951h-6.523q.158,2.178,2.744,2.178a5.356,5.356,0,0,0,2.9-.782v2.227a7.62,7.62,0,0,1-3.6.742,4.655,4.655,0,0,1-5.1-5.088,5.349,5.349,0,0,1,1.446-3.945,4.815,4.815,0,0,1,3.554-1.455,4.368,4.368,0,0,1,3.384,1.3,5,5,0,0,1,1.2,3.525Zm-2.861-1.9q0-2.148-1.738-2.148a1.659,1.659,0,0,0-1.284.615,2.785,2.785,0,0,0-.659,1.533Z" fill="#1e1e1e"/>
      <path d="M440.291,49.955a4.558,4.558,0,0,1-2.06.361q-3.263,0-3.262-3.389v-4.58h-1.621V40.072h1.621V37.914l3.076-.879v3.037h2.246v2.275h-2.246V46.39q0,1.563,1.241,1.563a2.1,2.1,0,0,0,1-.283Z" fill="#1e1e1e"/>
      <path d="M449.522,49.711a6.107,6.107,0,0,1-3.018.605,5.106,5.106,0,0,1-3.73-1.4,4.825,4.825,0,0,1-1.426-3.6,5.318,5.318,0,0,1,1.528-4.019,5.651,5.651,0,0,1,4.087-1.469,5.237,5.237,0,0,1,2.559.469v2.617a3.518,3.518,0,0,0-2.158-.723,2.847,2.847,0,0,0-2.1.776,2.9,2.9,0,0,0-.776,2.144,2.849,2.849,0,0,0,.742,2.085,2.726,2.726,0,0,0,2.041.757,4.069,4.069,0,0,0,2.256-.723Z" fill="#1e1e1e"/>
      <path d="M453.188,50.316a1.8,1.8,0,0,1-1.27-.469,1.506,1.506,0,0,1-.507-1.152,1.447,1.447,0,0,1,.522-1.152,1.929,1.929,0,0,1,1.3-.45,1.861,1.861,0,0,1,1.294.454,1.573,1.573,0,0,1-.01,2.315A1.935,1.935,0,0,1,453.188,50.316Z" fill="#1e1e1e"/>
      <path d="M457.9,53.255h-2.5a13.493,13.493,0,0,0,2.988-8.544,14,14,0,0,0-2.988-8.643h2.519a13.034,13.034,0,0,1,3.164,8.643A12.274,12.274,0,0,1,457.9,53.255Z" fill="#1e1e1e"/>
      <path d="M479.027,50.072h-3.076V44.388q0-2.2-1.6-2.2a1.64,1.64,0,0,0-1.328.615,2.371,2.371,0,0,0-.508,1.563v5.7h-3.086v-14.8h3.086v6.289h.039a3.506,3.506,0,0,1,3.076-1.728q3.4,0,3.4,4.1Z" fill="#1e1e1e"/>
      <path d="M489.8,50.072h-2.92V48.636h-.039a3.259,3.259,0,0,1-2.978,1.68,3.115,3.115,0,0,1-2.29-.825,2.955,2.955,0,0,1-.835-2.2q0-2.912,3.447-3.36l2.715-.361q0-1.641-1.777-1.641a6.064,6.064,0,0,0-3.4,1.065V40.668a7.617,7.617,0,0,1,1.763-.586,9.278,9.278,0,0,1,2.036-.254q4.276,0,4.277,4.267Zm-2.9-4.063v-.673l-1.817.234q-1.5.2-1.5,1.357a1.124,1.124,0,0,0,.366.865,1.409,1.409,0,0,0,.991.337,1.828,1.828,0,0,0,1.416-.6A2.171,2.171,0,0,0,486.9,46.009Z" fill="#1e1e1e"/>
      <path d="M491.728,49.808v-2.5a6.581,6.581,0,0,0,1.519.684,5.053,5.053,0,0,0,1.43.224,3.079,3.079,0,0,0,1.294-.224.726.726,0,0,0,.474-.684.633.633,0,0,0-.215-.488,2.018,2.018,0,0,0-.552-.342,6.374,6.374,0,0,0-.737-.264c-.267-.078-.525-.166-.772-.263a7.324,7.324,0,0,1-1.049-.484,3.036,3.036,0,0,1-.762-.6,2.368,2.368,0,0,1-.469-.791,3.169,3.169,0,0,1-.161-1.065,2.741,2.741,0,0,1,.366-1.445,2.994,2.994,0,0,1,.977-.991,4.479,4.479,0,0,1,1.4-.567,7.318,7.318,0,0,1,1.636-.18,9.138,9.138,0,0,1,1.348.1,10.149,10.149,0,0,1,1.347.3v2.383a4.88,4.88,0,0,0-1.255-.513,5.285,5.285,0,0,0-1.313-.171,2.883,2.883,0,0,0-.571.054,1.911,1.911,0,0,0-.474.156.877.877,0,0,0-.322.264.605.605,0,0,0-.117.366.676.676,0,0,0,.175.469,1.562,1.562,0,0,0,.459.337,4.491,4.491,0,0,0,.63.254c.232.075.461.151.689.229a9.115,9.115,0,0,1,1.113.469,3.534,3.534,0,0,1,.854.6,2.328,2.328,0,0,1,.547.8,3.2,3.2,0,0,1-.2,2.612,3.082,3.082,0,0,1-1.025,1.025,4.636,4.636,0,0,1-1.475.576,8.209,8.209,0,0,1-1.733.181A8.922,8.922,0,0,1,491.728,49.808Z" fill="#1e1e1e"/>
      <path d="M512.744,49.955a4.563,4.563,0,0,1-2.061.361q-3.263,0-3.262-3.389v-4.58H505.8V40.072h1.621V37.914l3.077-.879v3.037h2.246v2.275H510.5V46.39q0,1.563,1.24,1.563a2.1,2.1,0,0,0,1.006-.283Z" fill="#1e1e1e"/>
      <path d="M519.184,50.316a5.377,5.377,0,0,1-3.931-1.4,5.08,5.08,0,0,1-1.43-3.8,5.085,5.085,0,0,1,1.484-3.882,5.608,5.608,0,0,1,4.014-1.4,5.311,5.311,0,0,1,3.906,1.4,4.983,4.983,0,0,1,1.416,3.706,5.287,5.287,0,0,1-1.46,3.936A5.435,5.435,0,0,1,519.184,50.316Zm.078-8.125a2.058,2.058,0,0,0-1.7.752,3.319,3.319,0,0,0-.606,2.129q0,2.882,2.325,2.881,2.215,0,2.216-2.959Q521.5,42.192,519.262,42.191Z" fill="#1e1e1e"/>
      <path d="M529.686,50.072H526.6v-14.8h3.086Z" fill="#1e1e1e"/>
      <path d="M542.069,50.072h-3.086V48.7h-.039a3.461,3.461,0,0,1-3.1,1.621,3.789,3.789,0,0,1-3.017-1.323,5.475,5.475,0,0,1-1.143-3.7,5.962,5.962,0,0,1,1.26-3.975,4.109,4.109,0,0,1,3.3-1.494,2.809,2.809,0,0,1,2.7,1.386h.039V35.267h3.086Zm-3.028-4.863v-.752a2.361,2.361,0,0,0-.566-1.621A2,2,0,0,0,535.4,43a3.741,3.741,0,0,0-.576,2.212,3.238,3.238,0,0,0,.556,2.031,1.977,1.977,0,0,0,3.072-.039A3.138,3.138,0,0,0,539.041,45.209Z" fill="#1e1e1e"/>
      <path d="M559.686,50.072H556.61V48.548h-.049a3.489,3.489,0,0,1-3.057,1.768q-3.476,0-3.476-4.209V40.072H553.1v5.762q0,2.119,1.68,2.119a1.663,1.663,0,0,0,1.328-.581,2.344,2.344,0,0,0,.5-1.577V40.072h3.076Z" fill="#1e1e1e"/>
      <path d="M561.746,49.808v-2.5a6.556,6.556,0,0,0,1.518.684,5.065,5.065,0,0,0,1.431.224,3.082,3.082,0,0,0,1.294-.224.727.727,0,0,0,.473-.684.632.632,0,0,0-.214-.488,2.033,2.033,0,0,0-.552-.342,6.392,6.392,0,0,0-.738-.264c-.266-.078-.524-.166-.771-.263a7.391,7.391,0,0,1-1.05-.484,3.054,3.054,0,0,1-.762-.6,2.349,2.349,0,0,1-.468-.791,3.144,3.144,0,0,1-.161-1.065,2.741,2.741,0,0,1,.366-1.445,2.991,2.991,0,0,1,.976-.991,4.485,4.485,0,0,1,1.4-.567,7.3,7.3,0,0,1,1.636-.18,9.124,9.124,0,0,1,1.347.1,10.2,10.2,0,0,1,1.348.3v2.383a4.909,4.909,0,0,0-1.255-.513,5.291,5.291,0,0,0-1.313-.171,2.893,2.893,0,0,0-.572.054,1.9,1.9,0,0,0-.473.156.88.88,0,0,0-.323.264.605.605,0,0,0-.117.366.677.677,0,0,0,.176.469,1.536,1.536,0,0,0,.459.337,4.395,4.395,0,0,0,.63.254c.231.075.461.151.688.229a9.132,9.132,0,0,1,1.114.469,3.534,3.534,0,0,1,.854.6,2.342,2.342,0,0,1,.547.8,3.209,3.209,0,0,1-.2,2.612,3.075,3.075,0,0,1-1.026,1.025,4.64,4.64,0,0,1-1.474.576,8.212,8.212,0,0,1-1.734.181A8.92,8.92,0,0,1,561.746,49.808Z" fill="#1e1e1e"/>
      <path d="M572.47,43.168A1.811,1.811,0,0,1,571.2,42.7a1.493,1.493,0,0,1-.508-1.148,1.453,1.453,0,0,1,.522-1.152,1.928,1.928,0,0,1,1.3-.449,1.856,1.856,0,0,1,1.294.454,1.566,1.566,0,0,1-.01,2.309A1.947,1.947,0,0,1,572.47,43.168Zm0,7.148a1.8,1.8,0,0,1-1.269-.469,1.5,1.5,0,0,1-.508-1.152,1.45,1.45,0,0,1,.522-1.152,1.929,1.929,0,0,1,1.3-.45,1.861,1.861,0,0,1,1.294.454,1.573,1.573,0,0,1-.01,2.315A1.935,1.935,0,0,1,572.47,50.316Z" fill="#1e1e1e"/>
    </g>
    <g>
      <path d="M480.74,114.572h-1.817l-1.484-3.926H471.5l-1.4,3.926h-1.826l5.371-14h1.7Zm-3.838-5.4-2.2-5.967a5.624,5.624,0,0,1-.215-.938h-.039a5.263,5.263,0,0,1-.225.938l-2.178,5.967Z" fill="#1e1e1e"/>
      <path d="M496.785,114.572h-1.6V108.83a4.332,4.332,0,0,0-.513-2.4,1.942,1.942,0,0,0-1.723-.742,2.134,2.134,0,0,0-1.743.938,3.584,3.584,0,0,0-.718,2.246v5.7h-1.6v-5.938q0-2.948-2.275-2.949a2.109,2.109,0,0,0-1.738.884,3.65,3.65,0,0,0-.684,2.3v5.7h-1.6v-10h1.6v1.582h.039a3.4,3.4,0,0,1,3.106-1.816,2.888,2.888,0,0,1,2.832,2.07,3.567,3.567,0,0,1,3.32-2.07q3.3,0,3.3,4.072Z" fill="#1e1e1e"/>
      <path d="M501.453,113.127h-.039v6.045h-1.6v-14.6h1.6v1.758h.039a3.787,3.787,0,0,1,3.457-1.992,3.66,3.66,0,0,1,3.017,1.342,5.562,5.562,0,0,1,1.084,3.6,6.194,6.194,0,0,1-1.221,4.018,4.061,4.061,0,0,1-3.339,1.509A3.344,3.344,0,0,1,501.453,113.127Zm-.039-4.034v1.4a2.971,2.971,0,0,0,.805,2.1,2.873,2.873,0,0,0,4.326-.249,5.107,5.107,0,0,0,.826-3.095,4.03,4.03,0,0,0-.772-2.618,2.555,2.555,0,0,0-2.09-.947,2.839,2.839,0,0,0-2.246.972A3.568,3.568,0,0,0,501.414,109.093Z" fill="#1e1e1e"/>
      <path d="M513.171,114.572h-1.6V99.767h1.6Z" fill="#1e1e1e"/>
      <path d="M517.234,102.033a1.02,1.02,0,0,1-.733-.293.987.987,0,0,1-.3-.742,1.025,1.025,0,0,1,1.035-1.045,1.032,1.032,0,0,1,.747.3,1.042,1.042,0,0,1,0,1.479A1.025,1.025,0,0,1,517.234,102.033Zm.781,12.539h-1.6v-10h1.6Z" fill="#1e1e1e"/>
      <path d="M525.9,114.474a3.093,3.093,0,0,1-1.494.313q-2.627,0-2.627-2.93v-5.918h-1.719v-1.367h1.719V102.13l1.6-.517v2.959h2.52v1.367h-2.52v5.635a2.338,2.338,0,0,0,.342,1.435,1.363,1.363,0,0,0,1.133.43,1.681,1.681,0,0,0,1.045-.332Z" fill="#1e1e1e"/>
      <path d="M536.121,114.572h-1.6V112.99h-.039a3.288,3.288,0,0,1-3.086,1.816q-3.575,0-3.574-4.258v-5.976h1.592V110.3q0,3.163,2.421,3.164a2.448,2.448,0,0,0,1.929-.865,3.3,3.3,0,0,0,.757-2.26v-5.762h1.6Z" fill="#1e1e1e"/>
      <path d="M547.888,114.572h-1.6v-1.7h-.039a4.037,4.037,0,0,1-6.451.591,5.512,5.512,0,0,1-1.128-3.658,5.994,5.994,0,0,1,1.25-3.974,4.123,4.123,0,0,1,3.33-1.494,3.206,3.206,0,0,1,3,1.621h.039V99.767h1.6Zm-1.6-4.522v-1.474a2.86,2.86,0,0,0-.8-2.051,2.686,2.686,0,0,0-2.031-.84,2.767,2.767,0,0,0-2.305,1.074,4.707,4.707,0,0,0-.84,2.969,4.236,4.236,0,0,0,.806,2.73,2.632,2.632,0,0,0,2.163,1,2.739,2.739,0,0,0,2.173-.967A3.606,3.606,0,0,0,546.287,110.05Z" fill="#1e1e1e"/>
      <path d="M559.167,109.972h-7.06a3.737,3.737,0,0,0,.9,2.578,3.1,3.1,0,0,0,2.364.909,4.909,4.909,0,0,0,3.105-1.114v1.5a5.8,5.8,0,0,1-3.486.957,4.226,4.226,0,0,1-3.33-1.362,5.572,5.572,0,0,1-1.211-3.833,5.47,5.47,0,0,1,1.323-3.8,4.245,4.245,0,0,1,3.286-1.469,3.756,3.756,0,0,1,3.037,1.269,5.3,5.3,0,0,1,1.074,3.525Zm-1.64-1.357a3.262,3.262,0,0,0-.669-2.158,2.278,2.278,0,0,0-1.831-.772,2.589,2.589,0,0,0-1.924.811,3.682,3.682,0,0,0-.977,2.119Z" fill="#1e1e1e"/>
      <path d="M560.984,114.211v-1.719a4.743,4.743,0,0,0,2.881.967q2.109,0,2.109-1.407a1.214,1.214,0,0,0-.181-.678,1.8,1.8,0,0,0-.488-.494,3.766,3.766,0,0,0-.723-.385c-.276-.115-.574-.233-.893-.357a11.391,11.391,0,0,1-1.167-.532,3.555,3.555,0,0,1-.84-.6,2.273,2.273,0,0,1-.508-.767,2.71,2.71,0,0,1-.171-1.006,2.386,2.386,0,0,1,.323-1.245,2.849,2.849,0,0,1,.859-.908,4.02,4.02,0,0,1,1.226-.552,5.42,5.42,0,0,1,1.421-.185,5.728,5.728,0,0,1,2.324.449v1.621a4.529,4.529,0,0,0-2.539-.723,2.944,2.944,0,0,0-.811.1,1.973,1.973,0,0,0-.62.288,1.318,1.318,0,0,0-.4.444,1.165,1.165,0,0,0-.142.571,1.365,1.365,0,0,0,.142.655,1.416,1.416,0,0,0,.415.468,3.152,3.152,0,0,0,.664.372q.39.165.888.361a12.6,12.6,0,0,1,1.192.522,4.073,4.073,0,0,1,.9.606,2.373,2.373,0,0,1,.572.776,2.514,2.514,0,0,1,.2,1.045,2.472,2.472,0,0,1-.327,1.289,2.815,2.815,0,0,1-.874.908,3.981,3.981,0,0,1-1.26.537,6.188,6.188,0,0,1-1.494.176A5.674,5.674,0,0,1,560.984,114.211Z" fill="#1e1e1e"/>
      <path d="M582.371,114.113a5.209,5.209,0,0,1-2.735.693,4.529,4.529,0,0,1-3.452-1.391,5.043,5.043,0,0,1-1.313-3.609,5.538,5.538,0,0,1,1.416-3.969,4.955,4.955,0,0,1,3.779-1.5,5.268,5.268,0,0,1,2.324.488v1.64a4.076,4.076,0,0,0-2.383-.781,3.217,3.217,0,0,0-2.514,1.1,4.165,4.165,0,0,0-.982,2.886,3.971,3.971,0,0,0,.923,2.773,3.181,3.181,0,0,0,2.476,1.016,4.014,4.014,0,0,0,2.461-.87Z" fill="#1e1e1e"/>
      <path d="M591.951,114.572h-1.6v-1.563h-.039a3.35,3.35,0,0,1-3.076,1.8,3.285,3.285,0,0,1-2.339-.791,2.74,2.74,0,0,1-.845-2.1q0-2.8,3.3-3.262l3-.42q0-2.549-2.06-2.549a4.919,4.919,0,0,0-3.262,1.231v-1.641a6.2,6.2,0,0,1,3.4-.937q3.526,0,3.526,3.73Zm-1.6-5.059-2.412.332a3.927,3.927,0,0,0-1.68.552,1.59,1.59,0,0,0-.566,1.4,1.528,1.528,0,0,0,.522,1.2,2.023,2.023,0,0,0,1.392.464,2.574,2.574,0,0,0,1.968-.835,2.988,2.988,0,0,0,.776-2.115Z" fill="#1e1e1e"/>
      <path d="M603.269,114.572h-1.6v-5.7q0-3.183-2.324-3.184a2.518,2.518,0,0,0-1.987.9,3.347,3.347,0,0,0-.786,2.28v5.7h-1.6v-10h1.6v1.66h.039a3.607,3.607,0,0,1,3.281-1.894,3.06,3.06,0,0,1,2.51,1.059,4.722,4.722,0,0,1,.869,3.062Z" fill="#1e1e1e"/>
      <path d="M618.923,114.572h-1.6v-1.563h-.039a3.351,3.351,0,0,1-3.076,1.8,3.283,3.283,0,0,1-2.339-.791,2.736,2.736,0,0,1-.845-2.1q0-2.8,3.3-3.262l3-.42q0-2.549-2.061-2.549A4.921,4.921,0,0,0,612,106.916v-1.641a6.2,6.2,0,0,1,3.4-.937q3.525,0,3.525,3.73Zm-1.6-5.059-2.412.332a3.922,3.922,0,0,0-1.68.552,1.59,1.59,0,0,0-.566,1.4,1.525,1.525,0,0,0,.522,1.2,2.021,2.021,0,0,0,1.392.464,2.571,2.571,0,0,0,1.967-.835,2.984,2.984,0,0,0,.777-2.115Z" fill="#1e1e1e"/>
      <path d="M630.476,114.572h-1.6v-1.7h-.039a3.7,3.7,0,0,1-3.437,1.933,3.735,3.735,0,0,1-3.013-1.342,5.512,5.512,0,0,1-1.128-3.658,5.994,5.994,0,0,1,1.25-3.974,4.123,4.123,0,0,1,3.33-1.494,3.2,3.2,0,0,1,3,1.621h.039V99.767h1.6Zm-1.6-4.522v-1.474a2.859,2.859,0,0,0-.8-2.051,2.686,2.686,0,0,0-2.032-.84,2.767,2.767,0,0,0-2.3,1.074,4.707,4.707,0,0,0-.84,2.969,4.23,4.23,0,0,0,.806,2.73,2.632,2.632,0,0,0,2.163,1,2.739,2.739,0,0,0,2.173-.967A3.605,3.605,0,0,0,628.874,110.05Z" fill="#1e1e1e"/>
      <path d="M642.253,114.572h-1.6v-1.7h-.039a4.036,4.036,0,0,1-6.45.591,5.512,5.512,0,0,1-1.128-3.658,5.994,5.994,0,0,1,1.25-3.974,4.122,4.122,0,0,1,3.33-1.494,3.2,3.2,0,0,1,3,1.621h.039V99.767h1.6Zm-1.6-4.522v-1.474a2.86,2.86,0,0,0-.8-2.051,2.686,2.686,0,0,0-2.031-.84,2.769,2.769,0,0,0-2.305,1.074,4.713,4.713,0,0,0-.84,2.969,4.236,4.236,0,0,0,.806,2.73,2.634,2.634,0,0,0,2.163,1,2.738,2.738,0,0,0,2.173-.967A3.606,3.606,0,0,0,640.652,110.05Z" fill="#1e1e1e"/>
      <path d="M659.06,114.572h-1.6V112.99h-.039a3.288,3.288,0,0,1-3.086,1.816q-3.573,0-3.574-4.258v-5.976h1.592V110.3q0,3.163,2.422,3.164a2.45,2.45,0,0,0,1.929-.865,3.3,3.3,0,0,0,.756-2.26v-5.762h1.6Z" fill="#1e1e1e"/>
      <path d="M663.933,113.127h-.039v6.045h-1.6v-14.6h1.6v1.758h.039a3.787,3.787,0,0,1,3.457-1.992,3.663,3.663,0,0,1,3.018,1.342,5.568,5.568,0,0,1,1.084,3.6,6.2,6.2,0,0,1-1.221,4.018,4.064,4.064,0,0,1-3.34,1.509A3.344,3.344,0,0,1,663.933,113.127Zm-.039-4.034v1.4a2.972,2.972,0,0,0,.806,2.1,2.873,2.873,0,0,0,4.326-.249,5.107,5.107,0,0,0,.825-3.095,4.036,4.036,0,0,0-.771-2.618,2.555,2.555,0,0,0-2.09-.947,2.836,2.836,0,0,0-2.246.972A3.563,3.563,0,0,0,663.894,109.093Z" fill="#1e1e1e"/>
      <path d="M689.353,107.306h-9.18v-1.289h9.18Zm0,4.16h-9.18v-1.289h9.18Z" fill="#1e1e1e"/>
      <path d="M476.5,138.113a5.2,5.2,0,0,1-2.734.693,4.529,4.529,0,0,1-3.452-1.391A5.044,5.044,0,0,1,469,133.806a5.542,5.542,0,0,1,1.416-3.969,4.959,4.959,0,0,1,3.78-1.5,5.268,5.268,0,0,1,2.324.488v1.64a4.076,4.076,0,0,0-2.383-.781,3.22,3.22,0,0,0-2.515,1.1,4.169,4.169,0,0,0-.981,2.886,3.971,3.971,0,0,0,.923,2.773,3.18,3.18,0,0,0,2.475,1.016,4.01,4.01,0,0,0,2.461-.87Z" fill="#1e1e1e"/>
      <path d="M483.1,138.806a4.639,4.639,0,0,1-3.54-1.4,5.193,5.193,0,0,1-1.323-3.716,5.405,5.405,0,0,1,1.377-3.935,4.946,4.946,0,0,1,3.72-1.416,4.489,4.489,0,0,1,3.492,1.376,5.463,5.463,0,0,1,1.254,3.819,5.375,5.375,0,0,1-1.352,3.833A4.739,4.739,0,0,1,483.1,138.806Zm.117-9.121a3.045,3.045,0,0,0-2.441,1.05,4.311,4.311,0,0,0-.9,2.895,4.075,4.075,0,0,0,.909,2.8,3.085,3.085,0,0,0,2.431,1.026,2.928,2.928,0,0,0,2.388-1.006,4.364,4.364,0,0,0,.835-2.862,4.436,4.436,0,0,0-.835-2.89A2.917,2.917,0,0,0,483.22,129.685Z" fill="#1e1e1e"/>
      <path d="M498.943,138.572h-1.6v-5.7q0-3.183-2.324-3.184a2.518,2.518,0,0,0-1.987.9,3.342,3.342,0,0,0-.786,2.28v5.7h-1.6v-10h1.6v1.66h.039a3.607,3.607,0,0,1,3.281-1.894,3.06,3.06,0,0,1,2.51,1.059,4.722,4.722,0,0,1,.869,3.062Z" fill="#1e1e1e"/>
      <path d="M501.355,138.211v-1.719a4.743,4.743,0,0,0,2.881.967q2.109,0,2.109-1.407a1.222,1.222,0,0,0-.18-.678,1.82,1.82,0,0,0-.489-.494,3.786,3.786,0,0,0-.722-.385c-.277-.115-.575-.233-.894-.357a11.391,11.391,0,0,1-1.167-.532,3.555,3.555,0,0,1-.84-.6,2.288,2.288,0,0,1-.508-.767,2.71,2.71,0,0,1-.171-1.006,2.386,2.386,0,0,1,.323-1.245,2.86,2.86,0,0,1,.859-.908,4.031,4.031,0,0,1,1.226-.552,5.42,5.42,0,0,1,1.421-.185,5.728,5.728,0,0,1,2.324.449v1.621a4.529,4.529,0,0,0-2.539-.723,2.944,2.944,0,0,0-.811.1,1.973,1.973,0,0,0-.62.288,1.318,1.318,0,0,0-.4.444,1.165,1.165,0,0,0-.142.571,1.365,1.365,0,0,0,.142.655,1.416,1.416,0,0,0,.415.468,3.152,3.152,0,0,0,.664.372c.261.11.556.231.888.361a12.6,12.6,0,0,1,1.192.522,4.073,4.073,0,0,1,.9.606,2.373,2.373,0,0,1,.572.776,2.514,2.514,0,0,1,.2,1.045,2.472,2.472,0,0,1-.327,1.289,2.815,2.815,0,0,1-.874.908,3.981,3.981,0,0,1-1.26.537,6.188,6.188,0,0,1-1.494.176A5.674,5.674,0,0,1,501.355,138.211Z" fill="#1e1e1e"/>
      <path d="M515.085,138.474a3.093,3.093,0,0,1-1.494.313q-2.627,0-2.627-2.93v-5.918h-1.718v-1.367h1.718V126.13l1.6-.517v2.959h2.519v1.367h-2.519v5.635a2.331,2.331,0,0,0,.342,1.435,1.36,1.36,0,0,0,1.132.43,1.679,1.679,0,0,0,1.045-.332Z" fill="#1e1e1e"/>
      <path d="M522.439,130.193a1.958,1.958,0,0,0-1.211-.322,2.043,2.043,0,0,0-1.714.967,4.467,4.467,0,0,0-.688,2.636v5.1h-1.6v-10h1.6v2.06h.039a3.478,3.478,0,0,1,1.045-1.645,2.381,2.381,0,0,1,1.572-.591,2.618,2.618,0,0,1,.957.137Z" fill="#1e1e1e"/>
      <path d="M532.263,138.572h-1.6V136.99h-.039a3.29,3.29,0,0,1-3.086,1.816q-3.575,0-3.575-4.258v-5.976h1.592v5.723q0,3.164,2.422,3.164a2.45,2.45,0,0,0,1.929-.865,3.3,3.3,0,0,0,.757-2.26v-5.762h1.6Z" fill="#1e1e1e"/>
      <path d="M542.312,138.113a5.208,5.208,0,0,1-2.734.693,4.531,4.531,0,0,1-3.453-1.391,5.043,5.043,0,0,1-1.313-3.609,5.542,5.542,0,0,1,1.416-3.969,4.955,4.955,0,0,1,3.779-1.5,5.272,5.272,0,0,1,2.325.488v1.64a4.081,4.081,0,0,0-2.383-.781,3.218,3.218,0,0,0-2.515,1.1,4.169,4.169,0,0,0-.981,2.886,3.97,3.97,0,0,0,.922,2.773,3.184,3.184,0,0,0,2.476,1.016,4.014,4.014,0,0,0,2.461-.87Z" fill="#1e1e1e"/>
      <path d="M549.373,138.474a3.1,3.1,0,0,1-1.5.313q-2.627,0-2.627-2.93v-5.918h-1.718v-1.367h1.718V126.13l1.6-.517v2.959h2.52v1.367h-2.52v5.635a2.331,2.331,0,0,0,.342,1.435,1.361,1.361,0,0,0,1.133.43,1.681,1.681,0,0,0,1.045-.332Z" fill="#1e1e1e"/>
      <path d="M552.332,126.033a1.017,1.017,0,0,1-.733-.293.988.988,0,0,1-.3-.742,1.026,1.026,0,0,1,1.036-1.045,1.036,1.036,0,0,1,.747.3,1.044,1.044,0,0,1,0,1.479A1.028,1.028,0,0,1,552.332,126.033Zm.781,12.539h-1.6v-10h1.6Z" fill="#1e1e1e"/>
      <path d="M564.216,128.572l-3.984,10H558.66l-3.789-10h1.757l2.539,7.266a6.54,6.54,0,0,1,.352,1.4h.039a6.537,6.537,0,0,1,.313-1.357l2.656-7.305Z" fill="#1e1e1e"/>
      <path d="M573.972,133.972h-7.06a3.737,3.737,0,0,0,.9,2.578,3.1,3.1,0,0,0,2.363.909,4.914,4.914,0,0,0,3.106-1.114v1.5a5.805,5.805,0,0,1-3.487.957,4.228,4.228,0,0,1-3.33-1.362,5.577,5.577,0,0,1-1.211-3.833,5.47,5.47,0,0,1,1.324-3.8,4.244,4.244,0,0,1,3.286-1.469,3.758,3.758,0,0,1,3.037,1.269,5.3,5.3,0,0,1,1.074,3.525Zm-1.64-1.357a3.262,3.262,0,0,0-.669-2.158,2.278,2.278,0,0,0-1.831-.772,2.589,2.589,0,0,0-1.924.811,3.676,3.676,0,0,0-.977,2.119Z" fill="#1e1e1e"/>
      <path d="M582.693,126.033a1.02,1.02,0,0,1-.733-.293.987.987,0,0,1-.3-.742,1.025,1.025,0,0,1,1.035-1.045,1.032,1.032,0,0,1,.747.3,1.042,1.042,0,0,1,0,1.479A1.025,1.025,0,0,1,582.693,126.033Zm.781,12.539h-1.6v-10h1.6Z" fill="#1e1e1e"/>
      <path d="M595.017,138.572h-1.6v-5.7q0-3.183-2.324-3.184a2.518,2.518,0,0,0-1.987.9,3.347,3.347,0,0,0-.786,2.28v5.7h-1.6v-10h1.6v1.66h.039a3.608,3.608,0,0,1,3.281-1.894,3.06,3.06,0,0,1,2.51,1.059,4.722,4.722,0,0,1,.869,3.062Z" fill="#1e1e1e"/>
      <path d="M602.673,138.474a3.093,3.093,0,0,1-1.494.313q-2.626,0-2.627-2.93v-5.918h-1.719v-1.367h1.719V126.13l1.6-.517v2.959h2.519v1.367h-2.519v5.635a2.331,2.331,0,0,0,.342,1.435,1.36,1.36,0,0,0,1.132.43,1.679,1.679,0,0,0,1.045-.332Z" fill="#1e1e1e"/>
      <path d="M612.849,133.972h-7.06a3.737,3.737,0,0,0,.9,2.578,3.1,3.1,0,0,0,2.363.909,4.914,4.914,0,0,0,3.106-1.114v1.5a5.805,5.805,0,0,1-3.487.957,4.228,4.228,0,0,1-3.33-1.362,5.577,5.577,0,0,1-1.211-3.833,5.47,5.47,0,0,1,1.324-3.8,4.242,4.242,0,0,1,3.286-1.469,3.758,3.758,0,0,1,3.037,1.269,5.3,5.3,0,0,1,1.074,3.525Zm-1.641-1.357a3.256,3.256,0,0,0-.668-2.158,2.279,2.279,0,0,0-1.832-.772,2.588,2.588,0,0,0-1.923.811,3.676,3.676,0,0,0-.977,2.119Z" fill="#1e1e1e"/>
      <path d="M620.486,130.193a1.958,1.958,0,0,0-1.211-.322,2.043,2.043,0,0,0-1.714.967,4.467,4.467,0,0,0-.688,2.636v5.1h-1.6v-10h1.6v2.06h.039a3.478,3.478,0,0,1,1.045-1.645,2.381,2.381,0,0,1,1.572-.591,2.618,2.618,0,0,1,.957.137Z" fill="#1e1e1e"/>
      <path d="M627.165,125.173a2.138,2.138,0,0,0-1.064-.263q-1.68,0-1.68,2.119v1.543h2.344v1.367h-2.344v8.633H622.83v-8.633h-1.709v-1.367h1.709v-1.621a3.369,3.369,0,0,1,.908-2.486,3.067,3.067,0,0,1,2.265-.913,3.137,3.137,0,0,1,1.162.176Z" fill="#1e1e1e"/>
      <path d="M636.521,133.972H629.46a3.742,3.742,0,0,0,.9,2.578,3.1,3.1,0,0,0,2.363.909,4.914,4.914,0,0,0,3.106-1.114v1.5a5.805,5.805,0,0,1-3.487.957,4.228,4.228,0,0,1-3.33-1.362,5.577,5.577,0,0,1-1.211-3.833,5.474,5.474,0,0,1,1.323-3.8,4.246,4.246,0,0,1,3.287-1.469,3.758,3.758,0,0,1,3.037,1.269,5.3,5.3,0,0,1,1.074,3.525Zm-1.641-1.357a3.256,3.256,0,0,0-.669-2.158,2.276,2.276,0,0,0-1.831-.772,2.587,2.587,0,0,0-1.923.811,3.676,3.676,0,0,0-.977,2.119Z" fill="#1e1e1e"/>
      <path d="M644.158,130.193a1.96,1.96,0,0,0-1.211-.322,2.043,2.043,0,0,0-1.714.967,4.467,4.467,0,0,0-.689,2.636v5.1h-1.6v-10h1.6v2.06h.039a3.493,3.493,0,0,1,1.045-1.645,2.385,2.385,0,0,1,1.573-.591,2.618,2.618,0,0,1,.957.137Z" fill="#1e1e1e"/>
      <path d="M653.933,133.972h-7.06a3.737,3.737,0,0,0,.9,2.578,3.1,3.1,0,0,0,2.363.909,4.914,4.914,0,0,0,3.106-1.114v1.5a5.805,5.805,0,0,1-3.487.957,4.228,4.228,0,0,1-3.33-1.362,5.577,5.577,0,0,1-1.211-3.833,5.47,5.47,0,0,1,1.324-3.8,4.242,4.242,0,0,1,3.286-1.469,3.758,3.758,0,0,1,3.037,1.269,5.3,5.3,0,0,1,1.074,3.525Zm-1.641-1.357a3.251,3.251,0,0,0-.669-2.158,2.276,2.276,0,0,0-1.831-.772,2.588,2.588,0,0,0-1.923.811,3.676,3.676,0,0,0-.977,2.119Z" fill="#1e1e1e"/>
      <path d="M664.656,138.572h-1.6v-5.7q0-3.183-2.324-3.184a2.518,2.518,0,0,0-1.987.9,3.342,3.342,0,0,0-.786,2.28v5.7h-1.6v-10h1.6v1.66H658a3.606,3.606,0,0,1,3.281-1.894,3.061,3.061,0,0,1,2.51,1.059,4.722,4.722,0,0,1,.869,3.062Z" fill="#1e1e1e"/>
      <path d="M674.49,138.113a5.209,5.209,0,0,1-2.735.693,4.531,4.531,0,0,1-3.452-1.391,5.043,5.043,0,0,1-1.313-3.609,5.538,5.538,0,0,1,1.416-3.969,4.955,4.955,0,0,1,3.779-1.5,5.268,5.268,0,0,1,2.324.488v1.64a4.076,4.076,0,0,0-2.383-.781,3.217,3.217,0,0,0-2.514,1.1,4.165,4.165,0,0,0-.982,2.886,3.971,3.971,0,0,0,.923,2.773,3.182,3.182,0,0,0,2.476,1.016,4.014,4.014,0,0,0,2.461-.87Z" fill="#1e1e1e"/>
      <path d="M684.949,133.972h-7.061a3.737,3.737,0,0,0,.9,2.578,3.1,3.1,0,0,0,2.363.909,4.909,4.909,0,0,0,3.105-1.114v1.5a5.8,5.8,0,0,1-3.486.957,4.228,4.228,0,0,1-3.33-1.362,5.572,5.572,0,0,1-1.211-3.833,5.47,5.47,0,0,1,1.323-3.8,4.245,4.245,0,0,1,3.286-1.469,3.755,3.755,0,0,1,3.037,1.269,5.3,5.3,0,0,1,1.075,3.525Zm-1.641-1.357a3.256,3.256,0,0,0-.669-2.158,2.277,2.277,0,0,0-1.831-.772,2.591,2.591,0,0,0-1.924.811,3.682,3.682,0,0,0-.976,2.119Z" fill="#1e1e1e"/>
    </g>
    <g>
      <path d="M480.74,219.572h-1.817l-1.484-3.926H471.5l-1.4,3.926h-1.826l5.371-14h1.7Zm-3.838-5.4-2.2-5.967a5.624,5.624,0,0,1-.215-.938h-.039a5.263,5.263,0,0,1-.225.938l-2.178,5.967Z" fill="#1e1e1e"/>
      <path d="M496.785,219.572h-1.6V213.83a4.332,4.332,0,0,0-.513-2.4,1.942,1.942,0,0,0-1.723-.742,2.134,2.134,0,0,0-1.743.938,3.584,3.584,0,0,0-.718,2.246v5.7h-1.6v-5.938q0-2.947-2.275-2.949a2.109,2.109,0,0,0-1.738.884,3.65,3.65,0,0,0-.684,2.3v5.7h-1.6v-10h1.6v1.582h.039a3.4,3.4,0,0,1,3.106-1.816,2.888,2.888,0,0,1,2.832,2.07,3.567,3.567,0,0,1,3.32-2.07q3.3,0,3.3,4.072Z" fill="#1e1e1e"/>
      <path d="M501.453,218.127h-.039v6.045h-1.6v-14.6h1.6v1.758h.039a3.787,3.787,0,0,1,3.457-1.992,3.66,3.66,0,0,1,3.017,1.342,5.562,5.562,0,0,1,1.084,3.6,6.194,6.194,0,0,1-1.221,4.018,4.061,4.061,0,0,1-3.339,1.509A3.344,3.344,0,0,1,501.453,218.127Zm-.039-4.034v1.4a2.971,2.971,0,0,0,.805,2.1,2.873,2.873,0,0,0,4.326-.249,5.107,5.107,0,0,0,.826-3.095,4.03,4.03,0,0,0-.772-2.618,2.555,2.555,0,0,0-2.09-.947,2.839,2.839,0,0,0-2.246.972A3.568,3.568,0,0,0,501.414,214.093Z" fill="#1e1e1e"/>
      <path d="M513.171,219.572h-1.6V204.767h1.6Z" fill="#1e1e1e"/>
      <path d="M517.234,207.033a1.02,1.02,0,0,1-.733-.293.987.987,0,0,1-.3-.742,1.025,1.025,0,0,1,1.035-1.045,1.032,1.032,0,0,1,.747.3,1.042,1.042,0,0,1,0,1.479A1.025,1.025,0,0,1,517.234,207.033Zm.781,12.539h-1.6v-10h1.6Z" fill="#1e1e1e"/>
      <path d="M525.9,219.474a3.093,3.093,0,0,1-1.494.313q-2.627,0-2.627-2.93v-5.918h-1.719v-1.367h1.719V207.13l1.6-.517v2.959h2.52v1.367h-2.52v5.635a2.338,2.338,0,0,0,.342,1.435,1.363,1.363,0,0,0,1.133.43,1.681,1.681,0,0,0,1.045-.332Z" fill="#1e1e1e"/>
      <path d="M536.121,219.572h-1.6V217.99h-.039a3.288,3.288,0,0,1-3.086,1.816q-3.575,0-3.574-4.258v-5.976h1.592V215.3q0,3.164,2.421,3.164a2.448,2.448,0,0,0,1.929-.865,3.3,3.3,0,0,0,.757-2.26v-5.762h1.6Z" fill="#1e1e1e"/>
      <path d="M547.888,219.572h-1.6v-1.7h-.039a4.037,4.037,0,0,1-6.451.591,5.512,5.512,0,0,1-1.128-3.658,5.994,5.994,0,0,1,1.25-3.974,4.123,4.123,0,0,1,3.33-1.494,3.206,3.206,0,0,1,3,1.621h.039v-6.192h1.6Zm-1.6-4.522v-1.474a2.86,2.86,0,0,0-.8-2.051,2.686,2.686,0,0,0-2.031-.84,2.767,2.767,0,0,0-2.305,1.074,4.707,4.707,0,0,0-.84,2.969,4.236,4.236,0,0,0,.806,2.73,2.632,2.632,0,0,0,2.163,1,2.739,2.739,0,0,0,2.173-.967A3.606,3.606,0,0,0,546.287,215.05Z" fill="#1e1e1e"/>
      <path d="M559.167,214.972h-7.06a3.737,3.737,0,0,0,.9,2.578,3.1,3.1,0,0,0,2.364.909,4.909,4.909,0,0,0,3.105-1.114v1.5a5.8,5.8,0,0,1-3.486.957,4.226,4.226,0,0,1-3.33-1.362,5.572,5.572,0,0,1-1.211-3.833,5.47,5.47,0,0,1,1.323-3.8,4.245,4.245,0,0,1,3.286-1.469,3.756,3.756,0,0,1,3.037,1.269,5.3,5.3,0,0,1,1.074,3.525Zm-1.64-1.357a3.262,3.262,0,0,0-.669-2.158,2.278,2.278,0,0,0-1.831-.772,2.589,2.589,0,0,0-1.924.811,3.682,3.682,0,0,0-.977,2.119Z" fill="#1e1e1e"/>
      <path d="M560.984,219.211v-1.719a4.743,4.743,0,0,0,2.881.967q2.109,0,2.109-1.407a1.214,1.214,0,0,0-.181-.678,1.8,1.8,0,0,0-.488-.494,3.766,3.766,0,0,0-.723-.385c-.276-.115-.574-.233-.893-.357a11.391,11.391,0,0,1-1.167-.532,3.555,3.555,0,0,1-.84-.6,2.273,2.273,0,0,1-.508-.767,2.71,2.71,0,0,1-.171-1.006,2.386,2.386,0,0,1,.323-1.245,2.849,2.849,0,0,1,.859-.908,4.02,4.02,0,0,1,1.226-.552,5.42,5.42,0,0,1,1.421-.185,5.728,5.728,0,0,1,2.324.449v1.621a4.529,4.529,0,0,0-2.539-.723,2.944,2.944,0,0,0-.811.1,1.973,1.973,0,0,0-.62.288,1.318,1.318,0,0,0-.4.444,1.165,1.165,0,0,0-.142.571,1.365,1.365,0,0,0,.142.655,1.416,1.416,0,0,0,.415.468,3.152,3.152,0,0,0,.664.372q.39.165.888.361a12.6,12.6,0,0,1,1.192.522,4.073,4.073,0,0,1,.9.606,2.373,2.373,0,0,1,.572.776,2.514,2.514,0,0,1,.2,1.045,2.472,2.472,0,0,1-.327,1.289,2.815,2.815,0,0,1-.874.908,3.981,3.981,0,0,1-1.26.537,6.188,6.188,0,0,1-1.494.176A5.674,5.674,0,0,1,560.984,219.211Z" fill="#1e1e1e"/>
      <path d="M582.371,219.113a5.209,5.209,0,0,1-2.735.693,4.529,4.529,0,0,1-3.452-1.391,5.043,5.043,0,0,1-1.313-3.609,5.538,5.538,0,0,1,1.416-3.969,4.955,4.955,0,0,1,3.779-1.5,5.268,5.268,0,0,1,2.324.488v1.64a4.076,4.076,0,0,0-2.383-.781,3.217,3.217,0,0,0-2.514,1.1,4.165,4.165,0,0,0-.982,2.886,3.971,3.971,0,0,0,.923,2.773,3.181,3.181,0,0,0,2.476,1.016,4.014,4.014,0,0,0,2.461-.87Z" fill="#1e1e1e"/>
      <path d="M591.951,219.572h-1.6v-1.563h-.039a3.35,3.35,0,0,1-3.076,1.8,3.285,3.285,0,0,1-2.339-.791,2.74,2.74,0,0,1-.845-2.1q0-2.8,3.3-3.262l3-.42q0-2.549-2.06-2.549a4.919,4.919,0,0,0-3.262,1.231v-1.641a6.2,6.2,0,0,1,3.4-.937q3.526,0,3.526,3.73Zm-1.6-5.059-2.412.332a3.927,3.927,0,0,0-1.68.552,1.59,1.59,0,0,0-.566,1.4,1.528,1.528,0,0,0,.522,1.2,2.023,2.023,0,0,0,1.392.464,2.574,2.574,0,0,0,1.968-.835,2.988,2.988,0,0,0,.776-2.115Z" fill="#1e1e1e"/>
      <path d="M603.269,219.572h-1.6v-5.7q0-3.183-2.324-3.184a2.518,2.518,0,0,0-1.987.9,3.347,3.347,0,0,0-.786,2.28v5.7h-1.6v-10h1.6v1.66h.039a3.607,3.607,0,0,1,3.281-1.894,3.06,3.06,0,0,1,2.51,1.059,4.722,4.722,0,0,1,.869,3.062Z" fill="#1e1e1e"/>
      <path d="M618.582,219.113a5.209,5.209,0,0,1-2.735.693,4.529,4.529,0,0,1-3.452-1.391,5.043,5.043,0,0,1-1.313-3.609,5.538,5.538,0,0,1,1.416-3.969,4.955,4.955,0,0,1,3.779-1.5,5.268,5.268,0,0,1,2.324.488v1.64a4.076,4.076,0,0,0-2.383-.781,3.217,3.217,0,0,0-2.514,1.1,4.165,4.165,0,0,0-.982,2.886,3.971,3.971,0,0,0,.923,2.773,3.181,3.181,0,0,0,2.476,1.016,4.014,4.014,0,0,0,2.461-.87Z" fill="#1e1e1e"/>
      <path d="M628.162,219.572h-1.6v-1.563h-.039a3.35,3.35,0,0,1-3.076,1.8,3.285,3.285,0,0,1-2.339-.791,2.736,2.736,0,0,1-.845-2.1q0-2.8,3.3-3.262l3-.42q0-2.549-2.061-2.549a4.917,4.917,0,0,0-3.261,1.231v-1.641a6.2,6.2,0,0,1,3.4-.937q3.526,0,3.526,3.73Zm-1.6-5.059-2.412.332a3.927,3.927,0,0,0-1.68.552,1.59,1.59,0,0,0-.566,1.4,1.528,1.528,0,0,0,.522,1.2,2.023,2.023,0,0,0,1.392.464,2.574,2.574,0,0,0,1.968-.835,2.988,2.988,0,0,0,.776-2.115Z" fill="#1e1e1e"/>
      <path d="M639.48,219.572h-1.6v-5.7q0-3.183-2.324-3.184a2.518,2.518,0,0,0-1.987.9,3.342,3.342,0,0,0-.786,2.28v5.7h-1.6v-10h1.6v1.66h.039a3.607,3.607,0,0,1,3.281-1.894,3.06,3.06,0,0,1,2.51,1.059,4.722,4.722,0,0,1,.869,3.062Z" fill="#1e1e1e"/>
      <path d="M649.314,219.113a5.208,5.208,0,0,1-2.734.693,4.531,4.531,0,0,1-3.453-1.391,5.043,5.043,0,0,1-1.313-3.609,5.542,5.542,0,0,1,1.416-3.969,4.955,4.955,0,0,1,3.779-1.5,5.265,5.265,0,0,1,2.324.488v1.64a4.076,4.076,0,0,0-2.382-.781,3.218,3.218,0,0,0-2.515,1.1,4.169,4.169,0,0,0-.981,2.886,3.97,3.97,0,0,0,.922,2.773,3.184,3.184,0,0,0,2.476,1.016,4.014,4.014,0,0,0,2.461-.87Z" fill="#1e1e1e"/>
      <path d="M659.773,214.972h-7.061a3.742,3.742,0,0,0,.9,2.578,3.1,3.1,0,0,0,2.363.909,4.914,4.914,0,0,0,3.106-1.114v1.5a5.805,5.805,0,0,1-3.487.957,4.228,4.228,0,0,1-3.33-1.362,5.577,5.577,0,0,1-1.211-3.833,5.474,5.474,0,0,1,1.323-3.8,4.246,4.246,0,0,1,3.287-1.469,3.758,3.758,0,0,1,3.037,1.269,5.3,5.3,0,0,1,1.074,3.525Zm-1.641-1.357a3.256,3.256,0,0,0-.669-2.158,2.276,2.276,0,0,0-1.831-.772,2.591,2.591,0,0,0-1.924.811,3.682,3.682,0,0,0-.976,2.119Z" fill="#1e1e1e"/>
      <path d="M663.8,219.572h-1.6V204.767h1.6Z" fill="#1e1e1e"/>
      <path d="M676.7,219.806a4.639,4.639,0,0,1-3.54-1.4,5.193,5.193,0,0,1-1.324-3.716,5.405,5.405,0,0,1,1.377-3.935,4.948,4.948,0,0,1,3.721-1.416,4.488,4.488,0,0,1,3.491,1.376,5.459,5.459,0,0,1,1.255,3.819,5.375,5.375,0,0,1-1.352,3.833A4.742,4.742,0,0,1,676.7,219.806Zm.117-9.121a3.045,3.045,0,0,0-2.441,1.05,4.311,4.311,0,0,0-.9,2.895,4.079,4.079,0,0,0,.908,2.8,3.087,3.087,0,0,0,2.432,1.026,2.928,2.928,0,0,0,2.388-1.006,4.369,4.369,0,0,0,.835-2.862,4.441,4.441,0,0,0-.835-2.89A2.917,2.917,0,0,0,676.814,210.685Z" fill="#1e1e1e"/>
      <path d="M692.322,219.572h-1.6V217.99h-.039a3.288,3.288,0,0,1-3.086,1.816q-3.575,0-3.574-4.258v-5.976h1.592V215.3q0,3.164,2.422,3.164a2.448,2.448,0,0,0,1.928-.865,3.3,3.3,0,0,0,.757-2.26v-5.762h1.6Z" fill="#1e1e1e"/>
      <path d="M700.193,219.474a3.093,3.093,0,0,1-1.494.313q-2.626,0-2.627-2.93v-5.918h-1.719v-1.367h1.719V207.13l1.6-.517v2.959h2.52v1.367h-2.52v5.635a2.338,2.338,0,0,0,.342,1.435,1.363,1.363,0,0,0,1.133.43,1.681,1.681,0,0,0,1.045-.332Z" fill="#1e1e1e"/>
      <path d="M717.634,212.306h-9.179v-1.289h9.179Zm0,4.16h-9.179v-1.289h9.179Z" fill="#1e1e1e"/>
      <path d="M478.22,243.572h-1.6v-1.7h-.039a4.037,4.037,0,0,1-6.451.591A5.512,5.512,0,0,1,469,238.806a5.994,5.994,0,0,1,1.25-3.974,4.124,4.124,0,0,1,3.331-1.494,3.2,3.2,0,0,1,3,1.621h.039v-6.192h1.6Zm-1.6-4.522v-1.474a2.86,2.86,0,0,0-.8-2.051,2.686,2.686,0,0,0-2.031-.84,2.767,2.767,0,0,0-2.3,1.074,4.707,4.707,0,0,0-.84,2.969,4.236,4.236,0,0,0,.806,2.73,2.634,2.634,0,0,0,2.163,1,2.739,2.739,0,0,0,2.173-.967A3.606,3.606,0,0,0,476.619,239.05Z" fill="#1e1e1e"/>
      <path d="M489.5,238.972h-7.06a3.737,3.737,0,0,0,.9,2.578,3.1,3.1,0,0,0,2.364.909,4.909,4.909,0,0,0,3.1-1.114v1.5a5.8,5.8,0,0,1-3.486.957,4.226,4.226,0,0,1-3.33-1.362,5.572,5.572,0,0,1-1.211-3.833,5.47,5.47,0,0,1,1.323-3.8,4.245,4.245,0,0,1,3.286-1.469,3.756,3.756,0,0,1,3.037,1.269,5.3,5.3,0,0,1,1.074,3.525Zm-1.64-1.357a3.262,3.262,0,0,0-.669-2.158,2.278,2.278,0,0,0-1.831-.772,2.589,2.589,0,0,0-1.924.811,3.682,3.682,0,0,0-.977,2.119Z" fill="#1e1e1e"/>
      <path d="M491.316,243.211v-1.719a4.743,4.743,0,0,0,2.881.967q2.109,0,2.109-1.407a1.214,1.214,0,0,0-.181-.678,1.8,1.8,0,0,0-.488-.494,3.786,3.786,0,0,0-.722-.385c-.277-.115-.575-.233-.894-.357a11.391,11.391,0,0,1-1.167-.532,3.555,3.555,0,0,1-.84-.6,2.288,2.288,0,0,1-.508-.767,2.71,2.71,0,0,1-.171-1.006,2.386,2.386,0,0,1,.323-1.245,2.86,2.86,0,0,1,.859-.908,4.02,4.02,0,0,1,1.226-.552,5.42,5.42,0,0,1,1.421-.185,5.728,5.728,0,0,1,2.324.449v1.621a4.529,4.529,0,0,0-2.539-.723,2.944,2.944,0,0,0-.811.1,1.973,1.973,0,0,0-.62.288,1.318,1.318,0,0,0-.4.444,1.165,1.165,0,0,0-.142.571,1.365,1.365,0,0,0,.142.655,1.416,1.416,0,0,0,.415.468,3.152,3.152,0,0,0,.664.372q.39.165.888.361a12.6,12.6,0,0,1,1.192.522,4.073,4.073,0,0,1,.9.606,2.373,2.373,0,0,1,.572.776,2.514,2.514,0,0,1,.2,1.045,2.472,2.472,0,0,1-.327,1.289,2.815,2.815,0,0,1-.874.908,3.981,3.981,0,0,1-1.26.537,6.188,6.188,0,0,1-1.494.176A5.674,5.674,0,0,1,491.316,243.211Z" fill="#1e1e1e"/>
      <path d="M505.046,243.474a3.093,3.093,0,0,1-1.494.313q-2.627,0-2.627-2.93v-5.918h-1.718v-1.367h1.718V231.13l1.6-.517v2.959h2.519v1.367h-2.519v5.635a2.331,2.331,0,0,0,.342,1.435,1.36,1.36,0,0,0,1.132.43,1.679,1.679,0,0,0,1.045-.332Z" fill="#1e1e1e"/>
      <path d="M512.4,235.193a1.958,1.958,0,0,0-1.211-.322,2.043,2.043,0,0,0-1.714.967,4.467,4.467,0,0,0-.688,2.636v5.1h-1.6v-10h1.6v2.06h.039a3.478,3.478,0,0,1,1.045-1.645,2.381,2.381,0,0,1,1.572-.591,2.618,2.618,0,0,1,.957.137Z" fill="#1e1e1e"/>
      <path d="M522.224,243.572h-1.6V241.99h-.04a3.287,3.287,0,0,1-3.085,1.816q-3.575,0-3.575-4.258v-5.976h1.592V239.3q0,3.164,2.422,3.164a2.45,2.45,0,0,0,1.929-.865,3.3,3.3,0,0,0,.757-2.26v-5.762h1.6Z" fill="#1e1e1e"/>
      <path d="M532.273,243.113a5.208,5.208,0,0,1-2.734.693,4.531,4.531,0,0,1-3.453-1.391,5.043,5.043,0,0,1-1.313-3.609,5.542,5.542,0,0,1,1.416-3.969,4.955,4.955,0,0,1,3.779-1.5,5.265,5.265,0,0,1,2.324.488v1.64a4.076,4.076,0,0,0-2.382-.781,3.218,3.218,0,0,0-2.515,1.1,4.169,4.169,0,0,0-.981,2.886,3.97,3.97,0,0,0,.922,2.773,3.184,3.184,0,0,0,2.476,1.016,4.014,4.014,0,0,0,2.461-.87Z" fill="#1e1e1e"/>
      <path d="M539.333,243.474a3.09,3.09,0,0,1-1.494.313q-2.627,0-2.627-2.93v-5.918h-1.718v-1.367h1.718V231.13l1.6-.517v2.959h2.519v1.367h-2.519v5.635a2.331,2.331,0,0,0,.342,1.435,1.361,1.361,0,0,0,1.133.43,1.678,1.678,0,0,0,1.044-.332Z" fill="#1e1e1e"/>
      <path d="M542.292,231.033a1.016,1.016,0,0,1-.732-.293.988.988,0,0,1-.3-.742,1.026,1.026,0,0,1,1.035-1.045,1.036,1.036,0,0,1,.748.3,1.044,1.044,0,0,1,0,1.479A1.029,1.029,0,0,1,542.292,231.033Zm.782,12.539h-1.6v-10h1.6Z" fill="#1e1e1e"/>
      <path d="M554.177,233.572l-3.984,10h-1.572l-3.789-10h1.757l2.539,7.266a6.54,6.54,0,0,1,.352,1.4h.039a6.537,6.537,0,0,1,.313-1.357l2.656-7.305Z" fill="#1e1e1e"/>
      <path d="M563.933,238.972h-7.06a3.737,3.737,0,0,0,.9,2.578,3.1,3.1,0,0,0,2.363.909,4.914,4.914,0,0,0,3.106-1.114v1.5a5.805,5.805,0,0,1-3.487.957,4.228,4.228,0,0,1-3.33-1.362,5.577,5.577,0,0,1-1.211-3.833,5.47,5.47,0,0,1,1.324-3.8,4.242,4.242,0,0,1,3.286-1.469,3.758,3.758,0,0,1,3.037,1.269,5.3,5.3,0,0,1,1.074,3.525Zm-1.641-1.357a3.251,3.251,0,0,0-.669-2.158,2.276,2.276,0,0,0-1.831-.772,2.588,2.588,0,0,0-1.923.811,3.676,3.676,0,0,0-.977,2.119Z" fill="#1e1e1e"/>
      <path d="M572.654,231.033a1.018,1.018,0,0,1-.733-.293.987.987,0,0,1-.3-.742,1.025,1.025,0,0,1,1.035-1.045,1.032,1.032,0,0,1,.747.3,1.044,1.044,0,0,1,0,1.479A1.025,1.025,0,0,1,572.654,231.033Zm.781,12.539h-1.6v-10h1.6Z" fill="#1e1e1e"/>
      <path d="M584.978,243.572h-1.6v-5.7q0-3.183-2.324-3.184a2.518,2.518,0,0,0-1.987.9,3.342,3.342,0,0,0-.786,2.28v5.7h-1.6v-10h1.6v1.66h.039a3.607,3.607,0,0,1,3.281-1.894,3.06,3.06,0,0,1,2.51,1.059,4.722,4.722,0,0,1,.869,3.062Z" fill="#1e1e1e"/>
      <path d="M592.634,243.474a3.093,3.093,0,0,1-1.494.313q-2.626,0-2.627-2.93v-5.918h-1.719v-1.367h1.719V231.13l1.6-.517v2.959h2.519v1.367h-2.519v5.635a2.331,2.331,0,0,0,.342,1.435,1.36,1.36,0,0,0,1.132.43,1.679,1.679,0,0,0,1.045-.332Z" fill="#1e1e1e"/>
      <path d="M602.81,238.972h-7.061a3.742,3.742,0,0,0,.9,2.578,3.1,3.1,0,0,0,2.363.909,4.914,4.914,0,0,0,3.106-1.114v1.5a5.805,5.805,0,0,1-3.487.957,4.228,4.228,0,0,1-3.33-1.362,5.577,5.577,0,0,1-1.211-3.833,5.47,5.47,0,0,1,1.324-3.8,4.242,4.242,0,0,1,3.286-1.469,3.758,3.758,0,0,1,3.037,1.269,5.3,5.3,0,0,1,1.074,3.525Zm-1.641-1.357a3.251,3.251,0,0,0-.669-2.158,2.276,2.276,0,0,0-1.831-.772,2.588,2.588,0,0,0-1.923.811,3.676,3.676,0,0,0-.977,2.119Z" fill="#1e1e1e"/>
      <path d="M610.447,235.193a1.96,1.96,0,0,0-1.211-.322,2.043,2.043,0,0,0-1.714.967,4.467,4.467,0,0,0-.689,2.636v5.1h-1.6v-10h1.6v2.06h.04a3.484,3.484,0,0,1,1.044-1.645,2.385,2.385,0,0,1,1.573-.591,2.618,2.618,0,0,1,.957.137Z" fill="#1e1e1e"/>
      <path d="M617.126,230.173a2.138,2.138,0,0,0-1.064-.263q-1.68,0-1.68,2.119v1.543h2.344v1.367h-2.344v8.633H612.79v-8.633h-1.708v-1.367h1.708v-1.621a3.369,3.369,0,0,1,.909-2.486,3.067,3.067,0,0,1,2.265-.913,3.137,3.137,0,0,1,1.162.176Z" fill="#1e1e1e"/>
      <path d="M626.482,238.972h-7.061a3.742,3.742,0,0,0,.9,2.578,3.1,3.1,0,0,0,2.363.909,4.914,4.914,0,0,0,3.106-1.114v1.5a5.805,5.805,0,0,1-3.487.957,4.228,4.228,0,0,1-3.33-1.362,5.577,5.577,0,0,1-1.211-3.833,5.474,5.474,0,0,1,1.323-3.8,4.246,4.246,0,0,1,3.287-1.469,3.758,3.758,0,0,1,3.037,1.269,5.3,5.3,0,0,1,1.074,3.525Zm-1.641-1.357a3.256,3.256,0,0,0-.669-2.158,2.276,2.276,0,0,0-1.831-.772,2.591,2.591,0,0,0-1.924.811,3.682,3.682,0,0,0-.976,2.119Z" fill="#1e1e1e"/>
      <path d="M634.119,235.193a1.96,1.96,0,0,0-1.211-.322,2.043,2.043,0,0,0-1.714.967,4.467,4.467,0,0,0-.689,2.636v5.1h-1.6v-10h1.6v2.06h.039a3.493,3.493,0,0,1,1.045-1.645,2.384,2.384,0,0,1,1.573-.591,2.618,2.618,0,0,1,.957.137Z" fill="#1e1e1e"/>
      <path d="M643.894,238.972h-7.061a3.742,3.742,0,0,0,.9,2.578,3.1,3.1,0,0,0,2.363.909,4.914,4.914,0,0,0,3.106-1.114v1.5a5.805,5.805,0,0,1-3.487.957,4.228,4.228,0,0,1-3.33-1.362,5.577,5.577,0,0,1-1.211-3.833,5.47,5.47,0,0,1,1.324-3.8,4.242,4.242,0,0,1,3.286-1.469,3.758,3.758,0,0,1,3.037,1.269,5.3,5.3,0,0,1,1.074,3.525Zm-1.641-1.357a3.251,3.251,0,0,0-.669-2.158,2.276,2.276,0,0,0-1.831-.772,2.587,2.587,0,0,0-1.923.811,3.676,3.676,0,0,0-.977,2.119Z" fill="#1e1e1e"/>
      <path d="M654.617,243.572h-1.6v-5.7q0-3.183-2.324-3.184a2.518,2.518,0,0,0-1.987.9,3.343,3.343,0,0,0-.787,2.28v5.7h-1.6v-10h1.6v1.66h.04a3.606,3.606,0,0,1,3.281-1.894,3.061,3.061,0,0,1,2.51,1.059,4.722,4.722,0,0,1,.869,3.062Z" fill="#1e1e1e"/>
      <path d="M664.451,243.113a5.209,5.209,0,0,1-2.735.693,4.529,4.529,0,0,1-3.452-1.391,5.043,5.043,0,0,1-1.313-3.609,5.538,5.538,0,0,1,1.416-3.969,4.955,4.955,0,0,1,3.779-1.5,5.268,5.268,0,0,1,2.324.488v1.64a4.076,4.076,0,0,0-2.383-.781,3.217,3.217,0,0,0-2.514,1.1,4.165,4.165,0,0,0-.982,2.886,3.971,3.971,0,0,0,.923,2.773,3.182,3.182,0,0,0,2.476,1.016,4.014,4.014,0,0,0,2.461-.87Z" fill="#1e1e1e"/>
      <path d="M674.91,238.972h-7.061a3.733,3.733,0,0,0,.9,2.578,3.1,3.1,0,0,0,2.363.909,4.909,4.909,0,0,0,3.105-1.114v1.5a5.8,5.8,0,0,1-3.486.957,4.226,4.226,0,0,1-3.33-1.362,5.572,5.572,0,0,1-1.211-3.833,5.47,5.47,0,0,1,1.323-3.8,4.245,4.245,0,0,1,3.286-1.469,3.755,3.755,0,0,1,3.037,1.269,5.3,5.3,0,0,1,1.075,3.525Zm-1.641-1.357a3.256,3.256,0,0,0-.669-2.158,2.277,2.277,0,0,0-1.831-.772,2.591,2.591,0,0,0-1.924.811,3.682,3.682,0,0,0-.976,2.119Z" fill="#1e1e1e"/>
    </g>
  </g>
</svg>
