<?xml version="1.0" encoding="UTF-8"?>
<svg width="100px" height="100px" viewBox="0 0 100 100" version="1.1" xmlns="http://www.w3.org/2000/svg" xmlns:xlink="http://www.w3.org/1999/xlink">
    <!-- Generator: Sketch 55.1 (78136) - https://sketchapp.com -->
    <title>NA/enable-automatic-updates-in-a-web-application-using-azure-functions-and-signalr</title>
    <desc>Created with Sketch.</desc>
    <defs>
        <rect id="path-1" x="0" y="0" width="96" height="96" rx="48"></rect>
        <filter x="-7.8%" y="-9.3%" width="115.7%" height="118.6%" filterUnits="objectBoundingBox" id="filter-3">
            <feOffset dx="0" dy="2" in="SourceAlpha" result="shadowOffsetOuter1"></feOffset>
            <feColorMatrix values="0 0 0 0 0   0 0 0 0 0   0 0 0 0 0  0 0 0 0.0964956975 0" type="matrix" in="shadowOffsetOuter1" result="shadowMatrixOuter1"></feColorMatrix>
            <feMerge>
                <feMergeNode in="shadowMatrixOuter1"></feMergeNode>
                <feMergeNode in="SourceGraphic"></feMergeNode>
            </feMerge>
        </filter>
        <filter x="-16.7%" y="-14.7%" width="133.3%" height="129.3%" filterUnits="objectBoundingBox" id="filter-4">
            <feOffset dx="0" dy="2" in="SourceAlpha" result="shadowOffsetOuter1"></feOffset>
            <feColorMatrix values="0 0 0 0 0   0 0 0 0 0   0 0 0 0 0  0 0 0 0.1 0" type="matrix" in="shadowOffsetOuter1" result="shadowMatrixOuter1"></feColorMatrix>
            <feMerge>
                <feMergeNode in="shadowMatrixOuter1"></feMergeNode>
                <feMergeNode in="SourceGraphic"></feMergeNode>
            </feMerge>
        </filter>
    </defs>
    <g id="Badges" stroke="none" stroke-width="1" fill="none" fill-rule="evenodd">
        <g id="N/A-26" transform="translate(-50.000000, -260.000000)">
            <g id="NA/enable-automatic-updates-in-a-web-application-using-azure-functions-and-signalr" transform="translate(50.000000, 260.000000)">
                <g id="Mask" transform="translate(2.000000, 2.000000)">
                    <mask id="mask-2" fill="white">
                        <use xlink:href="#path-1"></use>
                    </mask>
                    <use id="BG" fill="#55A2FF" xlink:href="#path-1"></use>
                    <g id="Code" filter="url(#filter-3)" mask="url(#mask-2)">
                        <g transform="translate(22.921624, 13.927101)">
                            <path d="M47.0219548,1.56739849 L3.13479699,1.56739849 C2.27037672,1.56739849 1.56739849,2.27037672 1.56739849,3.13479699 L1.56739849,39.1849623 C1.56739849,40.0485989 2.27037672,40.7523608 3.13479699,40.7523608 L47.0219548,40.7523608 C47.8855914,40.7523608 48.5893533,40.0485989 48.5893533,39.1849623 L48.5893533,3.13479699 C48.5893533,2.27037672 47.8855914,1.56739849 47.0219548,1.56739849" id="Fill-1523" fill="#182A37"></path>
                            <path d="M47.0219548,0 L3.13479699,0 C1.41065864,0 0,1.41065864 0,3.13479699 L0,39.1849623 C0,40.9091007 1.41065864,42.3197593 3.13479699,42.3197593 L47.0219548,42.3197593 C48.7460931,42.3197593 50.1567518,40.9091007 50.1567518,39.1849623 L50.1567518,3.13479699 C50.1567518,1.41065864 48.7460931,0 47.0219548,0 Z M47.0219548,1.56739849 C47.8855914,1.56739849 48.5893533,2.27037672 48.5893533,3.13479699 L48.5893533,39.1849623 C48.5893533,40.0485989 47.8855914,40.7523608 47.0219548,40.7523608 L3.13479699,40.7523608 C2.27037672,40.7523608 1.56739849,40.0485989 1.56739849,39.1849623 L1.56739849,3.13479699 C1.56739849,2.27037672 2.27037672,1.56739849 3.13479699,1.56739849 L47.0219548,1.56739849 L47.0219548,1.56739849 Z" id="Fill-1524" fill="#384B58"></path>
                            <polygon id="Fill-1525" fill="#384B58" points="8.62069171 40.7523608 10.1880902 40.7523608 10.1880902 1.56739849 8.62069171 1.56739849"></polygon>
                            <path d="M7.05329322,14.8902857 C7.05329322,15.7554897 6.3510987,16.4576842 5.48589473,16.4576842 C4.61990706,16.4576842 3.91849623,15.7554897 3.91849623,14.8902857 C3.91849623,14.024298 4.61990706,13.3228872 5.48589473,13.3228872 C6.3510987,13.3228872 7.05329322,14.024298 7.05329322,14.8902857" id="Fill-1526" fill="#E1E4E1"></path>
                            <path d="M7.05329322,20.3761804 C7.05329322,21.2413844 6.3510987,21.9435789 5.48589473,21.9435789 C4.61990706,21.9435789 3.91849623,21.2413844 3.91849623,20.3761804 C3.91849623,19.5101927 4.61990706,18.8087819 5.48589473,18.8087819 C6.3510987,18.8087819 7.05329322,19.5101927 7.05329322,20.3761804" id="Fill-1527" fill="#E1E4E1"></path>
                            <path d="M7.05329322,25.8620751 C7.05329322,26.7272791 6.3510987,27.4294736 5.48589473,27.4294736 C4.61990706,27.4294736 3.91849623,26.7272791 3.91849623,25.8620751 C3.91849623,24.9960875 4.61990706,24.2946767 5.48589473,24.2946767 C6.3510987,24.2946767 7.05329322,24.9960875 7.05329322,25.8620751" id="Fill-1528" fill="#E1E4E1"></path>
                            <path d="M7.05329322,31.3479699 C7.05329322,32.2131738 6.3510987,32.9153684 5.48589473,32.9153684 C4.61990706,32.9153684 3.91849623,32.2131738 3.91849623,31.3479699 C3.91849623,30.4819822 4.61990706,29.7805714 5.48589473,29.7805714 C6.3510987,29.7805714 7.05329322,30.4819822 7.05329322,31.3479699" id="Fill-1529" fill="#E1E4E1"></path>
                            <path d="M7.05329322,36.8338646 C7.05329322,37.6990686 6.3510987,38.4012631 5.48589473,38.4012631 C4.61990706,38.4012631 3.91849623,37.6990686 3.91849623,36.8338646 C3.91849623,35.9678769 4.61990706,35.2664661 5.48589473,35.2664661 C6.3510987,35.2664661 7.05329322,35.9678769 7.05329322,36.8338646" id="Fill-1530" fill="#E1E4E1"></path>
                            <path d="M21.9435789,37.6175638 L13.3228872,37.6175638 C12.8895015,37.6175638 12.5391879,37.2672503 12.5391879,36.8338646 C12.5391879,36.4004789 12.8895015,36.0501654 13.3228872,36.0501654 L21.9435789,36.0501654 C22.3769646,36.0501654 22.7272782,36.4004789 22.7272782,36.8338646 C22.7272782,37.2672503 22.3769646,37.6175638 21.9435789,37.6175638" id="Fill-1531" fill="#FFFFFE"></path>
                            <path d="M29.7805714,37.6175638 L25.0783759,37.6175638 C24.6449902,37.6175638 24.2946767,37.2672503 24.2946767,36.8338646 C24.2946767,36.4004789 24.6449902,36.0501654 25.0783759,36.0501654 L29.7805714,36.0501654 C30.2139571,36.0501654 30.5642706,36.4004789 30.5642706,36.8338646 C30.5642706,37.2672503 30.2139571,37.6175638 29.7805714,37.6175638" id="Fill-1532" fill="#55B7D9"></path>
                            <path d="M16.4576842,32.1316691 L13.3228872,32.1316691 C12.8895015,32.1316691 12.5391879,31.7813556 12.5391879,31.3479699 C12.5391879,30.9145842 12.8895015,30.5642706 13.3228872,30.5642706 L16.4576842,30.5642706 C16.8910699,30.5642706 17.2413834,30.9145842 17.2413834,31.3479699 C17.2413834,31.7813556 16.8910699,32.1316691 16.4576842,32.1316691" id="Fill-1533" fill="#EFB252"></path>
                            <path d="M21.9435789,26.6457744 L13.3228872,26.6457744 C12.8895015,26.6457744 12.5391879,26.2954608 12.5391879,25.8620751 C12.5391879,25.4286895 12.8895015,25.0783759 13.3228872,25.0783759 L21.9435789,25.0783759 C22.3769646,25.0783759 22.7272782,25.4286895 22.7272782,25.8620751 C22.7272782,26.2954608 22.3769646,26.6457744 21.9435789,26.6457744" id="Fill-1534" fill="#FFFFFE"></path>
                            <path d="M33.6990676,26.6457744 L25.0783759,26.6457744 C24.6449902,26.6457744 24.2946767,26.2954608 24.2946767,25.8620751 C24.2946767,25.4286895 24.6449902,25.0783759 25.0783759,25.0783759 L33.6990676,25.0783759 C34.1324533,25.0783759 34.4827669,25.4286895 34.4827669,25.8620751 C34.4827669,26.2954608 34.1324533,26.6457744 33.6990676,26.6457744" id="Fill-1535" fill="#FFFFFE"></path>
                            <path d="M39.1849623,26.6457744 L36.8338646,26.6457744 C36.4004789,26.6457744 36.0501654,26.2954608 36.0501654,25.8620751 C36.0501654,25.4286895 36.4004789,25.0783759 36.8338646,25.0783759 L39.1849623,25.0783759 C39.618348,25.0783759 39.9686616,25.4286895 39.9686616,25.8620751 C39.9686616,26.2954608 39.618348,26.6457744 39.1849623,26.6457744" id="Fill-1536" fill="#DF5142"></path>
                            <path d="M28.2131729,32.1316691 L19.5924812,32.1316691 C19.1590955,32.1316691 18.8087819,31.7813556 18.8087819,31.3479699 C18.8087819,30.9145842 19.1590955,30.5642706 19.5924812,30.5642706 L28.2131729,30.5642706 C28.6465586,30.5642706 28.9968721,30.9145842 28.9968721,31.3479699 C28.9968721,31.7813556 28.6465586,32.1316691 28.2131729,32.1316691" id="Fill-1537" fill="#DF5142"></path>
                            <path d="M28.2131729,21.1598797 L25.0783759,21.1598797 C24.6449902,21.1598797 24.2946767,20.8095661 24.2946767,20.3761804 C24.2946767,19.9427947 24.6449902,19.5924812 25.0783759,19.5924812 L28.2131729,19.5924812 C28.6465586,19.5924812 28.9968721,19.9427947 28.9968721,20.3761804 C28.9968721,20.8095661 28.6465586,21.1598797 28.2131729,21.1598797" id="Fill-1538" fill="#EFB252"></path>
                            <path d="M21.9435789,21.1598797 L13.3228872,21.1598797 C12.8895015,21.1598797 12.5391879,20.8095661 12.5391879,20.3761804 C12.5391879,19.9427947 12.8895015,19.5924812 13.3228872,19.5924812 L21.9435789,19.5924812 C22.3769646,19.5924812 22.7272782,19.9427947 22.7272782,20.3761804 C22.7272782,20.8095661 22.3769646,21.1598797 21.9435789,21.1598797" id="Fill-1539" fill="#55B7D9"></path>
                            <path d="M21.9435789,15.6739849 L13.3228872,15.6739849 C12.8895015,15.6739849 12.5391879,15.3236714 12.5391879,14.8902857 C12.5391879,14.4569 12.8895015,14.1065864 13.3228872,14.1065864 L21.9435789,14.1065864 C22.3769646,14.1065864 22.7272782,14.4569 22.7272782,14.8902857 C22.7272782,15.3236714 22.3769646,15.6739849 21.9435789,15.6739849" id="Fill-1540" fill="#FFFFFE"></path>
                            <path d="M13.3228872,10.1880902 C13.1222602,10.1880902 12.9216332,10.1112877 12.7688118,9.95846633 C12.4623854,9.65203992 12.4623854,9.156742 12.7688118,8.85031559 L14.5658342,7.05329322 L12.7688118,5.25627085 C12.4623854,4.94984444 12.4623854,4.45454652 12.7688118,4.14812011 C13.0752382,3.84169371 13.5705362,3.84169371 13.8769626,4.14812011 L16.2280603,6.49921785 C16.5344867,6.80564426 16.5344867,7.30094218 16.2280603,7.60736859 L13.8769626,9.95846633 C13.7241412,10.1112877 13.5235142,10.1880902 13.3228872,10.1880902" id="Fill-1541" fill="#697D85"></path>
                            <path d="M21.1598797,10.1880902 L18.0250827,10.1880902 C17.591697,10.1880902 17.2413834,9.83777664 17.2413834,9.40439096 C17.2413834,8.97100528 17.591697,8.62069171 18.0250827,8.62069171 L21.1598797,8.62069171 C21.5932653,8.62069171 21.9435789,8.97100528 21.9435789,9.40439096 C21.9435789,9.83777664 21.5932653,10.1880902 21.1598797,10.1880902" id="Fill-1542" fill="#697D85"></path>
                        </g>
                    </g>
                    <g id="Group-37" mask="url(#mask-2)">
                        <g transform="translate(18.000000, 39.072899)">
                            <path d="M52.1014949,17.1428624 C52.1108021,17.0125621 52.1201092,16.885054 52.1201092,16.7528923 C52.1201092,12.1263018 48.3693228,8.37644613 43.7436631,8.37644613 C42.4406604,8.37644613 41.2121149,8.68358248 40.1045626,9.21595217 C38.1593657,3.84478877 33.0329807,0 26.9907708,0 C20.2319095,0 14.5964227,4.80342649 13.3083115,11.1825556 C13.2152398,11.1806941 13.1240296,11.1685948 13.0300273,11.1685948 C5.83372937,11.1685948 0,17.0023242 0,24.1986221 C0,31.3949201 5.83372937,37.2286494 13.0300273,37.2286494 L14.9379956,37.2286494 C14.920312,36.9187209 14.8914598,36.6125153 14.8914598,36.2979332 C14.8914598,27.5603692 21.9751411,20.4757572 30.7136358,20.4757572 C39.4530612,20.4757572 46.5358118,27.5603692 46.5358118,36.2979332 C46.5358118,36.6125153 46.5078903,36.9187209 46.489276,37.2286494 L49.3279605,37.2286494 C54.9867152,37.2286494 59.5658391,32.644872 59.5658391,26.9907708 C59.5658391,22.2990303 56.4014039,18.3537242 52.1014949,17.1428624" id="Fill-17" fill="#FCFCFC"></path>
                            <path d="M50.0353049,16.7882595 C50.7426492,16.8375874 51.4406864,16.9567191 52.1014949,17.1428624 C52.1108021,17.0125621 52.1201092,16.885054 52.1201092,16.7528923 C52.1201092,13.9644664 50.7519564,11.5008605 48.6578448,9.97820877 C49.6630184,11.3593917 50.2586768,13.0532952 50.2586768,14.8914598 C50.2586768,15.5448226 50.1749123,16.1777096 50.0353049,16.7882595" id="Fill-18" fill="#C5CCCD" opacity="0.587844122"></path>
                            <path d="M36.2979332,20.4757572 C37.2658781,20.4757572 38.1965943,20.6488704 39.0621604,20.9522839 C40.2534772,18.8944703 40.9515144,16.510906 40.9515144,13.9607435 C40.9515144,9.39278825 38.7457169,5.34975693 35.3560484,2.8033173 C37.1076563,5.13569219 38.1593657,8.02649682 38.1593657,11.1685948 C38.1593657,14.8653997 36.7167555,18.2150475 34.3648356,20.7084363 C34.986554,20.5613831 35.6315404,20.4757572 36.2979332,20.4757572" id="Fill-19" fill="#C5CCCD" opacity="0.587844122"></path>
                            <path d="M23.2213701,22.3613883 C24.015271,21.9341895 24.8538464,21.5814481 25.7212739,21.2919953 C25.0120681,18.1992253 23.2083401,15.5262083 20.7317042,13.7047966 C22.4916886,16.0995295 23.4559106,19.1094658 23.2213701,22.3613883" id="Fill-20" fill="#C5CCCD" opacity="0.587844122"></path>
                            <path d="M44.6743793,28.8568569 C44.6743793,28.8549955 44.6743793,28.8540648 44.6743793,28.8522033 C44.6743793,26.0637775 43.3062265,23.6001716 41.2121149,22.0775198 C42.0404524,23.2185779 42.5802678,24.5737008 42.7477967,26.0451632 C43.4830626,26.9088678 44.1345639,27.8479605 44.6743793,28.8568569" id="Fill-21" fill="#C5CCCD" opacity="0.587844122"></path>
                            <path d="M14.8914598,36.2979332 C14.8914598,35.3337112 14.9919771,34.3936878 15.1567139,33.4760016 C14.2371663,33.8529417 13.2682907,34.1284337 12.2612557,34.2820018 C8.60167945,34.8395009 5.19246588,33.8520109 2.53620174,31.900299 C4.90859743,35.1261615 8.7189497,37.2286494 13.0300273,37.2286494 L14.9379956,37.2286494 C14.920312,36.9187209 14.8914598,36.6125153 14.8914598,36.2979332" id="Fill-22" fill="#C5CCCD" opacity="0.587844122"></path>
                            <path d="M55.033251,18.4914702 C56.4386326,20.5837203 57.0994411,23.2223008 56.6154686,26.0237567 C55.9360458,29.9392799 52.9298323,33.1595581 49.0766671,34.1200572 C48.1738724,34.3462213 47.2803848,34.4392929 46.4148187,34.429055 C46.489276,35.0433277 46.5358118,35.6641155 46.5358118,36.2979332 C46.5358118,36.6125153 46.5078903,36.9187209 46.489276,37.2286494 L49.0022098,37.2286494 C54.5678929,37.2286494 59.3610815,32.9250176 59.5565319,27.3630573 C59.6868322,23.6699753 57.8626284,20.3938542 55.033251,18.4914702" id="Fill-23" fill="#C5CCCD" opacity="0.587844122"></path>
                        </g>
                    </g>
                    <g id="bell" filter="url(#filter-4)" mask="url(#mask-2)">
                        <g transform="translate(36.000000, 63.000000)">
                            <path d="M11.9482285,26.7164211 C13.6603759,26.7164211 15.0468811,25.3274526 15.0468811,23.6177684 L8.84951271,23.6177684 C8.84951271,25.3274526 10.236018,26.7164211 11.9481653,26.7164211 L11.9482285,26.7164211 Z" id="Fill-1" fill="#F5F0E4"></path>
                            <path d="M23.640018,22.3198737 L20.8817864,19.2458526 L20.8817864,12.4690105 C20.8817864,12.4690105 21.5207548,4.39174737 14.2281022,3.01237895 L14.2281022,2.27715789 C14.225639,1.01892632 13.2067127,-5.1159077e-13 11.9484811,-5.1159077e-13 C10.6902496,-5.1159077e-13 9.67132323,1.01892632 9.66886008,2.27715789 L9.66886008,3.01237895 C2.38864955,4.39395789 3.01517587,12.4690105 3.01517587,12.4690105 L3.01517587,19.2458526 L0.256944287,22.3198737 C0.00529797115,22.5690505 -0.0687104499,22.94652 0.0669779712,23.2746316 C0.202666392,23.6027558 0.523394813,23.8173916 0.878683234,23.8173916 L23.0186832,23.8173916 C23.3739464,23.8173916 23.6946622,23.6027558 23.8303885,23.2746316 C23.9660769,22.9465074 23.8920685,22.5690316 23.6404222,22.3198737 L23.640018,22.3198737 Z" id="Fill-2" fill="#F2BE53"></path>
                            <path d="M11.9482285,23.8168211 L11.9482285,1.27897692e-13 C13.1826381,0.0273616342 14.1739012,1.03557431 14.1763307,2.27658745 L14.1763307,3.0118085 C21.4689833,4.39117693 20.8300149,12.4684401 20.8300149,12.4684401 L20.8300149,19.2452822 L23.5882465,22.3193032 L23.5886507,22.3193032 C23.840297,22.5684611 23.9143054,22.9459369 23.778617,23.2740611 C23.6428907,23.6021853 23.3221749,23.8168211 22.9669117,23.8168211 L11.9482285,23.8168211 Z" id="Combined-Shape" fill="#EFB252"></path>
                            <path d="M11.9486897,3.00744255 C12.49572,3.00744255 13.2429347,3.00744255 14.1903338,3.00744255 C14.1903338,2.77570776 14.1903338,2.52059533 14.1903338,2.24210526 C14.1903338,1.00382472 13.186509,4.06785716e-13 11.9482285,4.06785716e-13 C10.709948,4.06785716e-13 9.70612323,1.00382472 9.70612323,2.24210526 C9.70612323,2.67758052 9.70612323,2.93269295 9.70612323,3.00744255 C10.8111225,3.00744255 11.5586446,3.00744255 11.9486897,3.00744255 Z" id="Oval" fill="#CE9843"></path>
                        </g>
                    </g>
                </g>
                <g id="Azure-Border" stroke="#0078D4" stroke-width="4">
                    <rect x="2" y="2" width="96" height="96" rx="48"></rect>
                </g>
            </g>
        </g>
    </g>
</svg>