<?xml version="1.0" encoding="UTF-8" standalone="no"?>
<!-- Generator: Adobe Illustrator 28.1.0, SVG Export Plug-In . SVG Version: 6.00 Build 0)  -->

<svg
   version="1.1"
   x="0px"
   y="0px"
   viewBox="0 0 500 255.55555"
   enable-background="new 0 0 594 303.6"
   xml:space="preserve"
   id="svg124"
   sodipodi:docname="reprovisioning-state-3.svg"
   width="500"
   height="255.55556"
   inkscape:version="1.3 (0e150ed6c4, 2023-07-21)"
   xmlns:inkscape="http://www.inkscape.org/namespaces/inkscape"
   xmlns:sodipodi="http://sodipodi.sourceforge.net/DTD/sodipodi-0.dtd"
   xmlns:xlink="http://www.w3.org/1999/xlink"
   xmlns="http://www.w3.org/2000/svg"
   xmlns:svg="http://www.w3.org/2000/svg"><defs
   id="defs124" /><sodipodi:namedview
   id="namedview124"
   pagecolor="#ffffff"
   bordercolor="#000000"
   borderopacity="0.25"
   inkscape:showpageshadow="2"
   inkscape:pageopacity="0.0"
   inkscape:pagecheckerboard="0"
   inkscape:deskcolor="#d1d1d1"
   inkscape:zoom="2.9191919"
   inkscape:cx="297"
   inkscape:cy="151.92561"
   inkscape:window-width="2304"
   inkscape:window-height="1430"
   inkscape:window-x="-11"
   inkscape:window-y="-11"
   inkscape:window-maximized="1"
   inkscape:current-layer="svg124" />&#10;<symbol
   id="New_Symbol_41"
   viewBox="-10.5 -10.403 21 20.403">&#10;	<circle
   fill="#505150"
   cx="0"
   cy="0"
   r="10"
   id="circle1" />&#10;	<text
   transform="matrix(1,0,0,-1,-2.8169,-4.4282)"
   fill="#ffffff"
   font-family="SegoeUI-Semibold"
   font-size="14px"
   id="text1">1</text>&#10;	<rect
   x="-10.5"
   y="-10"
   display="none"
   fill="none"
   width="21"
   height="20"
   id="rect1" />&#10;</symbol>&#10;<symbol
   id="New_Symbol_42"
   viewBox="-10.5 -10.403 21 20.403">&#10;	<circle
   fill="#505150"
   cx="0"
   cy="0"
   r="10"
   id="circle2" />&#10;	<text
   transform="matrix(1,0,0,-1,-3.8867,-4.4282)"
   fill="#ffffff"
   font-family="SegoeUI-Semibold"
   font-size="14px"
   id="text2">2</text>&#10;	<rect
   x="-10.5"
   y="-10"
   display="none"
   fill="none"
   width="21"
   height="20"
   id="rect2" />&#10;</symbol>&#10;<symbol
   id="PIPELINE"
   viewBox="-32 -12.266 64 24.531">&#10;	<linearGradient
   id="SVGID_1_"
   gradientUnits="userSpaceOnUse"
   x1="0"
   y1="-12.2655"
   x2="1.502093e-15"
   y2="12.2655">&#10;		<stop
   offset="0"
   style="stop-color:#1B89B2"
   id="stop2" />&#10;		<stop
   offset="1"
   style="stop-color:#51C8E8"
   id="stop3" />&#10;	</linearGradient>&#10;	<path
   fill="url(#SVGID_1_)"
   d="m 26.096,12.266 h -51.448 v 0 0 C -29.08,12.265 -32,6.878 -32,0 c 0,-6.878 2.92,-12.265 6.648,-12.265 v 0 0 H 26.096 C 29.356,-12.266 32,-6.363 32,0 32,6.363 29.356,12.266 26.096,12.266 Z"
   id="path3"
   style="fill:url(#SVGID_1_)" />&#10;	<g
   id="g5">&#10;		&#10;			<linearGradient
   id="SVGID_00000150078891813013885780000009864577932256386700_"
   gradientUnits="userSpaceOnUse"
   x1="-31.461"
   y1="-6.1135998"
   x2="-19.233801"
   y2="6.1135998">&#10;			<stop
   offset="0"
   style="stop-color:#B3B4B4"
   id="stop4" />&#10;			<stop
   offset="1"
   style="stop-color:#4F4F4F"
   id="stop5" />&#10;		</linearGradient>&#10;		<ellipse
   fill="url(#SVGID_00000150078891813013885780000009864577932256386700_)"
   cx="-25.347"
   cy="0"
   rx="5.5749998"
   ry="10.879"
   id="ellipse5"
   style="fill:url(#SVGID_00000150078891813013885780000009864577932256386700_)" />&#10;	</g>&#10;</symbol>&#10;<g
   id="Shapes"
   transform="scale(0.84175084)">&#10;	<rect
   fill="#ffffff"
   width="594"
   height="303.60001"
   id="rect5"
   x="0"
   y="0" />&#10;	<g
   id="Wrench_tool_x28_s_x29_">&#10;	</g>&#10;	<g
   id="user2">&#10;	</g>&#10;	<g
   id="user2_1_">&#10;	</g>&#10;	<g
   id="user2_4_">&#10;	</g>&#10;	<g
   id="user2_3_">&#10;	</g>&#10;	<g
   id="user2_2_">&#10;	</g>&#10;	<g
   id="Internet_2">&#10;	</g>&#10;	<g
   id="Enterprise">&#10;	</g>&#10;	<g
   id="Tunnel__x28_stackable_x29_">&#10;	</g>&#10;	<g
   id="New_Symbol">&#10;	</g>&#10;	<g
   id="New_Symbol_1">&#10;	</g>&#10;	<g
   id="Files">&#10;	</g>&#10;	<g
   id="BlobBlock">&#10;	</g>&#10;	<g
   id="E_x5F_Enterprise">&#10;	</g>&#10;	<g
   id="E_x5F_AD_FS">&#10;	</g>&#10;	<g
   id="C_x5F_Azure_Active_Directory">&#10;	</g>&#10;	<g
   id="g8">&#10;		<g
   opacity="0.23"
   id="g6">&#10;			<rect
   x="421.22101"
   y="147.862"
   width="160.57899"
   height="140.8"
   id="rect6" />&#10;		</g>&#10;		<g
   id="g7">&#10;			<rect
   x="420.22101"
   y="146.862"
   fill="#c6e3f3"
   width="160.57899"
   height="140.8"
   id="rect7" />&#10;		</g>&#10;	</g>&#10;	<g
   id="g12">&#10;		<g
   opacity="0.23"
   id="g9">&#10;			<rect
   x="433.31"
   y="209.46201"
   width="136.39999"
   height="66.304001"
   id="rect8" />&#10;			<rect
   x="433.31"
   y="209.46201"
   width="136.39999"
   height="66.304001"
   id="rect9" />&#10;		</g>&#10;		<g
   id="g11">&#10;			<rect
   x="432.31"
   y="208.46201"
   fill="#ffffff"
   width="136.39999"
   height="66.304001"
   id="rect10" />&#10;			<rect
   x="432.31"
   y="208.46201"
   fill="#e9f5c6"
   width="136.39999"
   height="66.304001"
   id="rect11" />&#10;		</g>&#10;	</g>&#10;	<g
   id="g19">&#10;		&#10;			<circle
   id="fa3a22e9-e4e8-46a1-bc09-f9532747c739_00000127755709932700520420000011499001701895177908_"
   fill="#ffffff"
   cx="464.51501"
   cy="177.479"
   r="3.464" />&#10;		&#10;			<circle
   id="eb214416-6791-4934-ac0c-35afaa829f6e_00000032628408903351546340000003142238938691398568_"
   fill="#ffffff"
   cx="470.31799"
   cy="187.784"
   r="2.7260001" />&#10;		&#10;			<circle
   id="a4424413-b91f-48da-aedd-39e3a978b430_00000130620248302005872050000014483318950596609713_"
   fill="#ffffff"
   cx="459.53799"
   cy="185.92"
   r="2.339" />&#10;		&#10;			<circle
   id="f7ecfc1a-3268-471b-9464-57023bfc9cc4_00000183248153609811982280000006707620760858095529_"
   fill="#ffffff"
   cx="457.85001"
   cy="168.10699"
   r="2.902" />&#10;		&#10;			<circle
   id="b4388938-ad80-41b4-b729-5c21e3eab320_00000160874415388560323710000006427111802017887640_"
   fill="#ffffff"
   cx="450.077"
   cy="178.798"
   r="2.339" />&#10;		<polygon
   fill="#949494"
   points="464.989,176.969 458.36,167.544 457.147,168.423 463.02,176.776 450.007,177.849 450.13,179.361 463.02,178.288 458.747,185.393 460.03,186.166 464.427,178.851 469.649,187.978 470.951,187.239 465.095,176.987 464.515,177.321 "
   id="polygon12" />&#10;		<g
   id="g13">&#10;			<path
   fill="#949494"
   d="m 475.294,164.801 v 0 c 0,-0.709 -0.575,-1.284 -1.284,-1.284 v 0 h -6.682 c -0.35,0 -0.633,0.283 -0.633,0.633 v 2.479 c 0,0.35 0.283,0.633 0.633,0.633 h 4.132 v 4.045 c 0.009,0.355 0.295,0.641 0.651,0.651 h 2.462 c 0.355,-0.009 0.641,-0.295 0.651,-0.651 v -6.506 z"
   id="path12" />&#10;			<path
   fill="#949494"
   d="m 453.26,189.666 h -4.203 v -4.045 c -0.009,-0.355 -0.295,-0.641 -0.651,-0.651 h -2.462 c -0.355,0.009 -0.641,0.295 -0.651,0.651 v 6.506 0 c 0.01,0.702 0.582,1.266 1.284,1.266 h 6.682 c 0.35,0 0.633,-0.283 0.633,-0.633 v 0 -2.462 c 10e-4,-0.349 -0.282,-0.632 -0.632,-0.632 z"
   id="path13" />&#10;		</g>&#10;		&#10;			<linearGradient
   id="SVGID_00000143582211745281825940000013423246891232463501_"
   gradientUnits="userSpaceOnUse"
   x1="-103.471"
   y1="-1482.115"
   x2="-103.9633"
   y2="-1434.7938"
   gradientTransform="matrix(1,0,0,-1,564,-1286.4)">&#10;			<stop
   offset="0"
   style="stop-color:#198AB3"
   id="stop13" />&#10;			<stop
   offset="0"
   style="stop-color:#198AB3"
   id="stop14" />&#10;			<stop
   offset="0.09"
   style="stop-color:#22A5CB"
   id="stop15" />&#10;			<stop
   offset="0.19"
   style="stop-color:#29BADE"
   id="stop16" />&#10;			<stop
   offset="0.29"
   style="stop-color:#2EC9EB"
   id="stop17" />&#10;			<stop
   offset="0.42"
   style="stop-color:#31D1F3"
   id="stop18" />&#10;			<stop
   offset="0.62"
   style="stop-color:#32D4F5"
   id="stop19" />&#10;		</linearGradient>&#10;		<path
   fill="url(#SVGID_00000143582211745281825940000013423246891232463501_)"
   d="m 464.515,174.05 c 1.942,10e-4 3.517,1.576 3.516,3.518 -0.001,1.942 -1.576,3.517 -3.518,3.516 -1.942,-0.001 -3.516,-1.576 -3.516,-3.518 0,-0.029 0,-0.058 10e-4,-0.087 0.047,-1.907 1.608,-3.429 3.517,-3.429 z m -9.496,-5.943 c -0.009,1.612 1.29,2.927 2.902,2.936 1.612,0.009 2.927,-1.29 2.936,-2.902 0.009,-1.612 -1.29,-2.927 -2.902,-2.936 -0.029,0 -0.058,0 -0.087,10e-4 -1.582,0.028 -2.85,1.319 -2.849,2.901 z m -7.28,10.674 c 0,1.292 1.047,2.339 2.339,2.339 1.292,0 2.339,-1.047 2.339,-2.339 0,-1.292 -1.047,-2.339 -2.339,-2.339 -1.292,0 -2.339,1.047 -2.339,2.339 z m 9.46,7.122 c -0.01,1.301 1.037,2.364 2.339,2.374 1.302,0.01 2.364,-1.037 2.374,-2.339 0.01,-1.302 -1.037,-2.364 -2.339,-2.374 -0.006,0 -0.012,0 -0.018,0 -1.292,-0.01 -2.347,1.029 -2.356,2.321 0,0.006 0,0.012 0,0.018 z m 10.411,1.881 c -0.01,1.505 1.203,2.733 2.708,2.743 1.505,0.01 2.733,-1.203 2.743,-2.708 0.01,-1.505 -1.203,-2.733 -2.708,-2.743 -0.006,0 -0.012,0 -0.018,0 -1.486,-0.019 -2.706,1.169 -2.725,2.655 0,0.018 -0.001,0.036 0,0.053 z"
   id="path19"
   style="fill:url(#SVGID_00000143582211745281825940000013423246891232463501_)" />&#10;	</g>&#10;	<g
   id="g24">&#10;		<g
   opacity="0.24"
   id="g21">&#10;			<path
   d="m 368.421,152.129 c 0,1.65 -1.35,3 -3,3 H 210.842 c -1.65,0 -3,-1.35 -3,-3 v -134.8 c 0,-1.65 1.35,-3 3,-3 h 154.579 c 1.65,0 3,1.35 3,3 z"
   id="path20" />&#10;			<path
   d="m 368.421,152.129 c 0,1.65 -1.35,3 -3,3 H 210.842 c -1.65,0 -3,-1.35 -3,-3 v -134.8 c 0,-1.65 1.35,-3 3,-3 h 154.579 c 1.65,0 3,1.35 3,3 z"
   id="path21" />&#10;		</g>&#10;		<g
   id="g23">&#10;			<path
   fill="#ffffff"
   d="m 367.421,151.129 c 0,1.65 -1.35,3 -3,3 H 209.842 c -1.65,0 -3,-1.35 -3,-3 v -134.8 c 0,-1.65 1.35,-3 3,-3 h 154.579 c 1.65,0 3,1.35 3,3 z"
   id="path22" />&#10;			<path
   fill="#9dd6c9"
   d="m 367.421,151.129 c 0,1.65 -1.35,3 -3,3 H 209.842 c -1.65,0 -3,-1.35 -3,-3 v -134.8 c 0,-1.65 1.35,-3 3,-3 h 154.579 c 1.65,0 3,1.35 3,3 z"
   id="path23" />&#10;		</g>&#10;	</g>&#10;	<g
   id="g28">&#10;		<g
   opacity="0.23"
   id="g25">&#10;			<rect
   x="219.649"
   y="75.929001"
   width="136.39999"
   height="66.304001"
   id="rect24" />&#10;			<rect
   x="219.649"
   y="75.929001"
   width="136.39999"
   height="66.304001"
   id="rect25" />&#10;		</g>&#10;		<g
   id="g27">&#10;			<rect
   x="218.649"
   y="74.929001"
   fill="#ffffff"
   width="136.39999"
   height="66.304001"
   id="rect26" />&#10;			<rect
   x="218.649"
   y="74.929001"
   fill="#e9f5c6"
   width="136.39999"
   height="66.304001"
   id="rect27" />&#10;		</g>&#10;	</g>&#10;	<g
   id="g31">&#10;		<g
   opacity="0.23"
   id="g29">&#10;			<rect
   x="421.22101"
   y="13.266"
   width="160.57899"
   height="66"
   id="rect28" />&#10;		</g>&#10;		<g
   id="g30">&#10;			<rect
   x="420.22101"
   y="12.266"
   fill="#c6e3f3"
   width="160.57899"
   height="66"
   id="rect29" />&#10;		</g>&#10;	</g>&#10;	<g
   id="g38">&#10;		&#10;			<circle
   id="fa3a22e9-e4e8-46a1-bc09-f9532747c739_00000069379965617025799570000005020982556144822169_"
   fill="#ffffff"
   cx="461.44101"
   cy="44.290001"
   r="3.464" />&#10;		&#10;			<circle
   id="eb214416-6791-4934-ac0c-35afaa829f6e_00000003799276105751284980000001827765838019094155_"
   fill="#ffffff"
   cx="467.24399"
   cy="54.595001"
   r="2.7260001" />&#10;		&#10;			<circle
   id="a4424413-b91f-48da-aedd-39e3a978b430_00000121277867666869854810000012716348477809912720_"
   fill="#ffffff"
   cx="456.465"
   cy="52.73"
   r="2.339" />&#10;		&#10;			<circle
   id="f7ecfc1a-3268-471b-9464-57023bfc9cc4_00000166672662850981831060000004822159399328453542_"
   fill="#ffffff"
   cx="454.77701"
   cy="34.917"
   r="2.902" />&#10;		&#10;			<circle
   id="b4388938-ad80-41b4-b729-5c21e3eab320_00000045609860229868909570000007668996537264607121_"
   fill="#ffffff"
   cx="447.004"
   cy="45.609001"
   r="2.339" />&#10;		<polygon
   fill="#949494"
   points="461.916,43.78 455.287,34.354 454.073,35.233 459.947,43.586 446.934,44.659 447.057,46.171 459.947,45.099 455.673,52.203 456.957,52.977 461.353,45.661 466.576,54.788 467.877,54.049 462.022,43.797 461.441,44.131 "
   id="polygon31" />&#10;		<g
   id="g32">&#10;			<path
   fill="#949494"
   d="m 472.221,31.611 v 0 c 0,-0.709 -0.575,-1.284 -1.284,-1.284 v 0 h -6.682 c -0.35,0 -0.633,0.283 -0.633,0.633 v 2.479 c 0,0.35 0.283,0.633 0.633,0.633 h 4.132 v 4.045 c 0.009,0.355 0.295,0.641 0.651,0.651 h 2.462 c 0.355,-0.009 0.641,-0.295 0.651,-0.651 v -6.506 z"
   id="path31" />&#10;			<path
   fill="#949494"
   d="m 450.187,56.476 h -4.203 v -4.045 c -0.009,-0.355 -0.295,-0.641 -0.651,-0.651 h -2.462 c -0.355,0.009 -0.641,0.295 -0.651,0.651 v 6.506 0 c 0.01,0.702 0.582,1.266 1.284,1.266 h 6.682 c 0.35,0 0.633,-0.283 0.633,-0.633 v 0 -2.462 c 10e-4,-0.348 -0.282,-0.632 -0.632,-0.632 z"
   id="path32" />&#10;		</g>&#10;		&#10;			<linearGradient
   id="SVGID_00000047041211465694004670000008737135965054312608_"
   gradientUnits="userSpaceOnUse"
   x1="-106.5443"
   y1="-1348.9253"
   x2="-107.0367"
   y2="-1301.604"
   gradientTransform="matrix(1,0,0,-1,564,-1286.4)">&#10;			<stop
   offset="0"
   style="stop-color:#198AB3"
   id="stop32" />&#10;			<stop
   offset="0"
   style="stop-color:#198AB3"
   id="stop33" />&#10;			<stop
   offset="0.09"
   style="stop-color:#22A5CB"
   id="stop34" />&#10;			<stop
   offset="0.19"
   style="stop-color:#29BADE"
   id="stop35" />&#10;			<stop
   offset="0.29"
   style="stop-color:#2EC9EB"
   id="stop36" />&#10;			<stop
   offset="0.42"
   style="stop-color:#31D1F3"
   id="stop37" />&#10;			<stop
   offset="0.62"
   style="stop-color:#32D4F5"
   id="stop38" />&#10;		</linearGradient>&#10;		<path
   fill="url(#SVGID_00000047041211465694004670000008737135965054312608_)"
   d="m 461.441,40.861 c 1.942,0.001 3.517,1.576 3.516,3.518 -10e-4,1.942 -1.576,3.517 -3.518,3.516 -1.942,-0.001 -3.517,-1.576 -3.516,-3.518 0,-0.029 0,-0.058 10e-4,-0.087 0.048,-1.908 1.609,-3.43 3.517,-3.429 z m -9.496,-5.944 c -0.009,1.612 1.29,2.927 2.902,2.936 1.612,0.009 2.927,-1.29 2.936,-2.902 0.009,-1.612 -1.29,-2.927 -2.902,-2.936 -0.029,0 -0.058,0 -0.087,10e-4 -1.582,0.028 -2.849,1.319 -2.849,2.901 z m -7.28,10.674 c 0,1.292 1.047,2.339 2.339,2.339 1.292,0 2.339,-1.047 2.339,-2.339 0,-1.292 -1.047,-2.339 -2.339,-2.339 -1.292,0 -2.339,1.047 -2.339,2.339 z m 9.461,7.122 c -0.01,1.301 1.037,2.364 2.339,2.374 1.301,0.01 2.364,-1.037 2.374,-2.339 0.01,-1.301 -1.037,-2.364 -2.339,-2.374 -0.006,0 -0.012,0 -0.018,0 -1.292,-0.01 -2.347,1.03 -2.356,2.321 0,0.006 0,0.012 0,0.018 z m 10.41,1.882 c -0.01,1.505 1.203,2.733 2.708,2.743 1.505,0.01 2.733,-1.203 2.743,-2.708 0.01,-1.505 -1.203,-2.733 -2.708,-2.743 -0.006,0 -0.012,0 -0.018,0 -1.486,-0.019 -2.706,1.169 -2.726,2.655 10e-4,0.017 10e-4,0.035 10e-4,0.053 z"
   id="path38"
   style="fill:url(#SVGID_00000047041211465694004670000008737135965054312608_)" />&#10;	</g>&#10;	<g
   id="g42">&#10;		<g
   opacity="0.23"
   id="g39">&#10;			<rect
   x="14.2"
   y="14.329"
   width="116.621"
   height="49.987"
   id="rect38" />&#10;			<rect
   x="14.2"
   y="14.329"
   width="116.621"
   height="49.987"
   id="rect39" />&#10;		</g>&#10;		<g
   id="g41">&#10;			<rect
   x="13.2"
   y="13.329"
   fill="#ffffff"
   width="116.621"
   height="49.987"
   id="rect40" />&#10;			<rect
   x="13.2"
   y="13.329"
   fill="#d3ec8e"
   width="116.621"
   height="49.987"
   id="rect41" />&#10;		</g>&#10;	</g>&#10;	<g
   id="g45">&#10;		<g
   id="g44">&#10;			<line
   fill="none"
   stroke="#3c3c41"
   stroke-miterlimit="10"
   x1="129.821"
   y1="39.729"
   x2="202.239"
   y2="39.729"
   id="line42" />&#10;			<g
   id="g43">&#10;				<polygon
   fill="#3c3c41"
   points="201.145,43.469 207.621,39.729 201.145,35.989 "
   id="polygon42" />&#10;			</g>&#10;		</g>&#10;	</g>&#10;	<g
   id="g48">&#10;		<g
   id="g47">&#10;			<path
   fill="none"
   stroke="#3c3c41"
   stroke-miterlimit="10"
   d="m 72.621,63.316 v 148.946 c 0,2.75 2.25,5 5,5 h 337.312"
   id="path45" />&#10;			<g
   id="g46">&#10;				<polygon
   fill="#3c3c41"
   points="413.839,221.002 420.315,217.262 413.839,213.522 "
   id="polygon45" />&#10;			</g>&#10;		</g>&#10;	</g>&#10;	&#10;		<use
   xlink:href="#New_Symbol_41"
   width="21"
   height="20.403"
   x="-10.5"
   y="-10.403"
   transform="matrix(1,0,0,-1,163.821,38.5665)"
   overflow="visible"
   id="use48" />&#10;	&#10;		<use
   xlink:href="#New_Symbol_42"
   width="21"
   height="20.403"
   x="-10.5"
   y="-10.403"
   transform="matrix(1,0,0,-1,163.821,217.0605)"
   overflow="visible"
   id="use49" />&#10;	<circle
   fill="none"
   stroke="#f65567"
   stroke-width="4"
   stroke-miterlimit="10"
   cx="522.45898"
   cy="253.414"
   r="15.4"
   id="circle49" />&#10;</g>&#10;<g
   id="Text"
   transform="scale(0.84175084)">&#10;	<g
   id="g55">&#10;		<path
   fill="#2f2f2f"
   d="m 490.32,186.462 h -2.208 v -9.803 h 2.208 z"
   id="path49" />&#10;		<path
   fill="#2f2f2f"
   d="m 495.635,186.633 c -1.167,0 -2.084,-0.327 -2.751,-0.98 -0.667,-0.654 -1.001,-1.542 -1.001,-2.663 0,-1.157 0.346,-2.063 1.039,-2.717 0.693,-0.654 1.629,-0.981 2.81,-0.981 1.162,0 2.074,0.327 2.734,0.981 0.661,0.653 0.991,1.519 0.991,2.594 0,1.162 -0.341,2.081 -1.022,2.755 -0.682,0.674 -1.615,1.011 -2.8,1.011 z m 0.055,-5.687 c -0.51,0 -0.907,0.176 -1.189,0.526 -0.283,0.352 -0.424,0.848 -0.424,1.49 0,1.345 0.542,2.017 1.627,2.017 1.035,0 1.552,-0.69 1.552,-2.071 -10e-4,-1.308 -0.523,-1.962 -1.566,-1.962 z"
   id="path50" />&#10;		<path
   fill="#2f2f2f"
   d="m 506.914,178.457 h -2.796 v 8.005 h -2.215 v -8.005 h -2.782 v -1.798 h 7.793 z"
   id="path51" />&#10;		<path
   fill="#2f2f2f"
   d="m 520.579,186.462 h -2.215 v -3.992 h -4.061 v 3.992 h -2.208 v -9.803 h 2.208 v 3.91 h 4.061 v -3.91 h 2.215 z"
   id="path52" />&#10;		<path
   fill="#2f2f2f"
   d="m 529.22,186.462 h -2.153 v -1.066 h -0.034 c -0.533,0.825 -1.247,1.237 -2.14,1.237 -1.623,0 -2.434,-0.981 -2.434,-2.946 v -4.225 h 2.153 v 4.033 c 0,0.989 0.392,1.483 1.176,1.483 0.387,0 0.697,-0.136 0.93,-0.406 0.232,-0.271 0.349,-0.64 0.349,-1.104 v -4.006 h 2.153 z"
   id="path53" />&#10;		<path
   fill="#2f2f2f"
   d="m 533.176,185.649 h -0.027 v 0.813 h -2.16 v -10.363 h 2.16 v 4.416 h 0.027 c 0.533,-0.815 1.292,-1.224 2.276,-1.224 0.902,0 1.597,0.311 2.085,0.93 0.488,0.62 0.731,1.468 0.731,2.543 0,1.167 -0.285,2.104 -0.854,2.81 -0.57,0.707 -1.331,1.06 -2.283,1.06 -0.861,-10e-4 -1.513,-0.329 -1.955,-0.985 z m -0.062,-2.953 v 0.718 c 0,0.451 0.13,0.825 0.39,1.121 0.26,0.297 0.592,0.444 0.998,0.444 0.492,0 0.874,-0.19 1.145,-0.57 0.271,-0.381 0.407,-0.92 0.407,-1.617 0,-0.578 -0.124,-1.031 -0.373,-1.356 -0.249,-0.326 -0.603,-0.489 -1.063,-0.489 -0.433,0 -0.792,0.162 -1.077,0.485 -0.284,0.323 -0.427,0.744 -0.427,1.264 z"
   id="path54" />&#10;		<path
   fill="#2f2f2f"
   d="m 543.744,186.462 v -9.803 h 3.568 c 1.094,0 1.935,0.201 2.522,0.602 0.588,0.401 0.882,0.967 0.882,1.695 0,0.529 -0.179,0.991 -0.537,1.388 -0.358,0.397 -0.814,0.673 -1.371,0.827 v 0.027 c 0.697,0.087 1.254,0.345 1.671,0.772 0.417,0.429 0.625,0.95 0.625,1.565 0,0.898 -0.321,1.61 -0.964,2.137 -0.643,0.527 -1.52,0.789 -2.632,0.789 h -3.764 z m 2.208,-8.176 v 2.324 h 0.971 c 0.456,0 0.814,-0.11 1.077,-0.331 0.262,-0.222 0.393,-0.525 0.393,-0.913 0,-0.72 -0.538,-1.08 -1.613,-1.08 z m 0,3.965 v 2.584 h 1.196 c 0.51,0 0.91,-0.118 1.2,-0.355 0.29,-0.236 0.434,-0.561 0.434,-0.971 0,-0.392 -0.143,-0.699 -0.427,-0.923 -0.285,-0.223 -0.683,-0.335 -1.193,-0.335 z"
   id="path55" />&#10;	</g>&#10;	<g
   id="g62">&#10;		<path
   fill="#2f2f2f"
   d="m 489.886,52.097 h -2.208 v -9.803 h 2.208 z"
   id="path56" />&#10;		<path
   fill="#2f2f2f"
   d="m 495.201,52.268 c -1.167,0 -2.084,-0.327 -2.751,-0.981 -0.667,-0.653 -1.001,-1.541 -1.001,-2.662 0,-1.158 0.346,-2.063 1.039,-2.718 0.693,-0.653 1.629,-0.98 2.81,-0.98 1.162,0 2.074,0.327 2.734,0.98 0.661,0.654 0.991,1.519 0.991,2.595 0,1.162 -0.341,2.08 -1.022,2.755 -0.682,0.673 -1.615,1.011 -2.8,1.011 z m 0.054,-5.688 c -0.51,0 -0.907,0.175 -1.189,0.526 -0.283,0.351 -0.424,0.848 -0.424,1.49 0,1.344 0.542,2.017 1.627,2.017 1.035,0 1.552,-0.69 1.552,-2.071 0,-1.308 -0.522,-1.962 -1.566,-1.962 z"
   id="path57" />&#10;		<path
   fill="#2f2f2f"
   d="m 506.48,44.092 h -2.796 v 8.005 h -2.215 v -8.005 h -2.782 v -1.798 h 7.793 z"
   id="path58" />&#10;		<path
   fill="#2f2f2f"
   d="m 520.145,52.097 h -2.215 v -3.992 h -4.061 v 3.992 h -2.208 v -9.803 h 2.208 v 3.91 h 4.061 v -3.91 h 2.215 z"
   id="path59" />&#10;		<path
   fill="#2f2f2f"
   d="m 528.786,52.097 h -2.153 V 51.03 h -0.034 c -0.533,0.824 -1.247,1.237 -2.14,1.237 -1.623,0 -2.434,-0.982 -2.434,-2.946 v -4.225 h 2.153 v 4.033 c 0,0.988 0.392,1.483 1.176,1.483 0.387,0 0.697,-0.136 0.93,-0.407 0.232,-0.271 0.349,-0.639 0.349,-1.104 v -4.006 h 2.153 z"
   id="path60" />&#10;		<path
   fill="#2f2f2f"
   d="m 532.742,51.283 h -0.027 v 0.813 h -2.16 V 41.734 h 2.16 v 4.416 h 0.027 c 0.533,-0.816 1.292,-1.224 2.276,-1.224 0.902,0 1.597,0.31 2.085,0.93 0.488,0.619 0.731,1.467 0.731,2.543 0,1.166 -0.285,2.103 -0.854,2.81 -0.57,0.706 -1.331,1.06 -2.283,1.06 -0.861,-10e-4 -1.513,-0.329 -1.955,-0.986 z M 532.68,48.33 v 0.718 c 0,0.451 0.13,0.824 0.39,1.121 0.26,0.296 0.592,0.444 0.998,0.444 0.492,0 0.874,-0.19 1.145,-0.571 0.271,-0.38 0.407,-0.919 0.407,-1.616 0,-0.579 -0.124,-1.031 -0.373,-1.357 -0.249,-0.325 -0.603,-0.488 -1.063,-0.488 -0.433,0 -0.792,0.161 -1.077,0.485 -0.284,0.323 -0.427,0.745 -0.427,1.264 z"
   id="path61" />&#10;		<path
   fill="#2f2f2f"
   d="m 551.93,52.097 h -2.406 l -0.697,-2.181 h -3.486 l -0.69,2.181 h -2.393 l 3.568,-9.803 h 2.618 z m -3.609,-3.876 -1.053,-3.295 c -0.078,-0.246 -0.132,-0.54 -0.164,-0.882 h -0.055 c -0.023,0.287 -0.08,0.571 -0.171,0.854 l -1.066,3.322 h 2.509 z"
   id="path62" />&#10;	</g>&#10;	<g
   id="g69">&#10;		<path
   fill="#2f2f2f"
   d="m 473.657,234.863 v -9.803 h 3.473 c 3.482,0 5.223,1.593 5.223,4.778 0,1.526 -0.475,2.745 -1.425,3.657 -0.95,0.911 -2.216,1.367 -3.797,1.367 h -3.474 z m 2.208,-8.005 v 6.214 h 1.094 c 0.957,0 1.708,-0.287 2.252,-0.861 0.544,-0.574 0.817,-1.356 0.817,-2.345 0,-0.935 -0.27,-1.669 -0.81,-2.205 -0.54,-0.535 -1.298,-0.803 -2.273,-0.803 z"
   id="path63" />&#10;		<path
   fill="#2f2f2f"
   d="m 490.05,231.978 h -4.566 c 0.073,1.016 0.713,1.524 1.921,1.524 0.77,0 1.447,-0.183 2.03,-0.547 v 1.559 c -0.647,0.346 -1.488,0.52 -2.522,0.52 -1.13,0 -2.007,-0.313 -2.632,-0.94 -0.625,-0.626 -0.937,-1.5 -0.937,-2.621 0,-1.162 0.337,-2.083 1.012,-2.762 0.674,-0.68 1.504,-1.019 2.488,-1.019 1.021,0 1.811,0.303 2.369,0.909 0.558,0.605 0.837,1.429 0.837,2.468 z m -2.003,-1.326 c 0,-1.003 -0.406,-1.504 -1.217,-1.504 -0.346,0 -0.646,0.144 -0.899,0.431 -0.253,0.287 -0.407,0.645 -0.461,1.073 z"
   id="path64" />&#10;		<path
   fill="#2f2f2f"
   d="m 497.909,227.863 -2.604,7 h -2.461 l -2.481,-7 h 2.311 l 1.217,4.313 c 0.137,0.487 0.216,0.902 0.239,1.244 h 0.027 c 0.032,-0.324 0.116,-0.725 0.253,-1.203 l 1.244,-4.354 z"
   id="path65" />&#10;		<path
   fill="#2f2f2f"
   d="m 499.955,226.755 c -0.365,0 -0.663,-0.108 -0.896,-0.325 -0.232,-0.216 -0.349,-0.481 -0.349,-0.796 0,-0.324 0.116,-0.588 0.349,-0.793 0.233,-0.205 0.531,-0.308 0.896,-0.308 0.369,0 0.669,0.103 0.899,0.308 0.23,0.205 0.345,0.469 0.345,0.793 0,0.328 -0.115,0.597 -0.345,0.807 -0.23,0.209 -0.53,0.314 -0.899,0.314 z m 1.067,8.108 h -2.16 v -7 h 2.16 z"
   id="path66" />&#10;		<path
   fill="#2f2f2f"
   d="m 508.101,234.61 c -0.488,0.282 -1.192,0.424 -2.112,0.424 -1.076,0 -1.946,-0.326 -2.611,-0.978 -0.666,-0.652 -0.998,-1.493 -0.998,-2.522 0,-1.189 0.356,-2.127 1.07,-2.813 0.713,-0.686 1.667,-1.028 2.861,-1.028 0.825,0 1.422,0.109 1.791,0.328 v 1.832 c -0.451,-0.338 -0.955,-0.506 -1.511,-0.506 -0.62,0 -1.111,0.181 -1.473,0.543 -0.362,0.362 -0.543,0.862 -0.543,1.501 0,0.619 0.173,1.106 0.52,1.459 0.346,0.354 0.823,0.53 1.429,0.53 0.538,0 1.064,-0.169 1.579,-0.506 v 1.736 z"
   id="path67" />&#10;		<path
   fill="#2f2f2f"
   d="m 515.817,231.978 h -4.566 c 0.073,1.016 0.713,1.524 1.921,1.524 0.77,0 1.447,-0.183 2.03,-0.547 v 1.559 c -0.647,0.346 -1.488,0.52 -2.522,0.52 -1.13,0 -2.007,-0.313 -2.632,-0.94 -0.625,-0.626 -0.937,-1.5 -0.937,-2.621 0,-1.162 0.337,-2.083 1.012,-2.762 0.674,-0.68 1.504,-1.019 2.488,-1.019 1.021,0 1.811,0.303 2.369,0.909 0.558,0.605 0.837,1.429 0.837,2.468 z m -2.003,-1.326 c 0,-1.003 -0.406,-1.504 -1.217,-1.504 -0.346,0 -0.646,0.144 -0.899,0.431 -0.253,0.287 -0.407,0.645 -0.461,1.073 z"
   id="path68" />&#10;		<path
   fill="#2f2f2f"
   d="m 525.742,224.841 v 10.021 h -2.153 v -7.588 c -0.119,0.104 -0.259,0.204 -0.42,0.297 -0.162,0.094 -0.334,0.178 -0.516,0.253 -0.182,0.075 -0.372,0.14 -0.567,0.191 -0.196,0.053 -0.39,0.09 -0.581,0.113 v -1.818 c 0.561,-0.164 1.089,-0.374 1.586,-0.629 0.497,-0.256 0.946,-0.536 1.347,-0.841 h 1.304 z"
   id="path69" />&#10;	</g>&#10;	<g
   id="g77">&#10;		<path
   fill="#2f2f2f"
   d="m 476.405,259.09 h -1.764 c -1.472,-1.622 -2.208,-3.616 -2.208,-5.981 0,-2.283 0.736,-4.3 2.208,-6.05 h 1.75 c -1.381,1.832 -2.071,3.849 -2.071,6.05 0,2.201 0.695,4.195 2.085,5.981 z"
   id="path70" />&#10;		<path
   fill="#2f2f2f"
   d="m 481.204,256.779 c -0.319,0.169 -0.8,0.253 -1.442,0.253 -1.522,0 -2.283,-0.79 -2.283,-2.372 v -3.206 h -1.135 v -1.593 h 1.135 v -1.511 l 2.153,-0.615 v 2.126 h 1.572 v 1.593 h -1.572 v 2.83 c 0,0.729 0.29,1.094 0.868,1.094 0.228,0 0.462,-0.065 0.704,-0.198 z"
   id="path71" />&#10;		<path
   fill="#2f2f2f"
   d="m 492.839,249.862 -2.017,7 h -2.27 l -1.032,-4.102 c -0.068,-0.273 -0.107,-0.571 -0.116,-0.896 h -0.041 c -0.032,0.355 -0.078,0.646 -0.137,0.868 l -1.107,4.129 h -2.242 l -1.976,-7 h 2.201 l 0.964,4.566 c 0.045,0.215 0.08,0.475 0.103,0.779 h 0.041 c 0.023,-0.318 0.064,-0.588 0.123,-0.807 l 1.203,-4.539 h 2.058 l 1.08,4.566 c 0.027,0.114 0.059,0.379 0.096,0.793 h 0.048 c 0.023,-0.264 0.059,-0.528 0.109,-0.793 l 0.909,-4.566 h 2.003 z"
   id="path72" />&#10;		<path
   fill="#2f2f2f"
   d="m 494.934,248.754 c -0.365,0 -0.663,-0.108 -0.896,-0.324 -0.232,-0.217 -0.349,-0.482 -0.349,-0.797 0,-0.323 0.116,-0.588 0.349,-0.793 0.233,-0.205 0.531,-0.308 0.896,-0.308 0.369,0 0.669,0.103 0.899,0.308 0.23,0.205 0.345,0.47 0.345,0.793 0,0.328 -0.115,0.598 -0.345,0.807 -0.23,0.21 -0.53,0.314 -0.899,0.314 z m 1.067,8.108 h -2.16 v -7 h 2.16 z"
   id="path73" />&#10;		<path
   fill="#2f2f2f"
   d="m 504.544,256.862 h -2.153 v -3.89 c 0,-1.084 -0.387,-1.627 -1.162,-1.627 -0.374,0 -0.681,0.144 -0.923,0.431 -0.242,0.287 -0.362,0.652 -0.362,1.094 v 3.992 h -2.16 v -7 h 2.16 v 1.107 h 0.027 c 0.515,-0.852 1.265,-1.278 2.249,-1.278 1.549,0 2.324,0.962 2.324,2.885 z"
   id="path74" />&#10;		<path
   fill="#2f2f2f"
   d="m 506.653,259.09 h -1.75 c 1.395,-1.777 2.092,-3.77 2.092,-5.981 0,-2.191 -0.697,-4.208 -2.092,-6.05 h 1.764 c 1.477,1.755 2.215,3.771 2.215,6.05 0,2.347 -0.743,4.34 -2.229,5.981 z"
   id="path75" />&#10;		<path
   fill="#2f2f2f"
   d="m 521.385,249.862 -2.604,7 h -2.461 l -2.481,-7 h 2.311 l 1.217,4.313 c 0.137,0.488 0.216,0.902 0.239,1.244 h 0.027 c 0.032,-0.323 0.116,-0.725 0.253,-1.203 l 1.244,-4.354 z"
   id="path76" />&#10;		<path
   fill="#2f2f2f"
   d="m 524.17,255.071 h 4.156 v 1.791 h -6.521 v -0.738 c 0,-0.501 0.084,-0.951 0.253,-1.35 0.168,-0.399 0.38,-0.757 0.636,-1.073 0.255,-0.317 0.534,-0.598 0.837,-0.841 0.303,-0.244 0.591,-0.464 0.865,-0.66 0.287,-0.205 0.539,-0.4 0.755,-0.588 0.216,-0.187 0.399,-0.372 0.547,-0.557 0.148,-0.185 0.259,-0.372 0.332,-0.561 0.073,-0.189 0.109,-0.391 0.109,-0.605 0,-0.419 -0.119,-0.735 -0.355,-0.95 -0.237,-0.214 -0.599,-0.321 -1.087,-0.321 -0.843,0 -1.65,0.335 -2.42,1.005 v -1.9 c 0.852,-0.551 1.814,-0.827 2.885,-0.827 0.497,0 0.942,0.065 1.336,0.195 0.394,0.13 0.728,0.315 1.001,0.557 0.273,0.242 0.482,0.534 0.625,0.879 0.144,0.344 0.215,0.728 0.215,1.151 0,0.451 -0.069,0.853 -0.208,1.203 -0.139,0.352 -0.324,0.67 -0.554,0.957 -0.23,0.287 -0.496,0.551 -0.796,0.79 -0.3,0.239 -0.613,0.471 -0.937,0.693 -0.219,0.155 -0.43,0.309 -0.632,0.462 -0.203,0.152 -0.382,0.303 -0.537,0.451 -0.155,0.147 -0.278,0.293 -0.369,0.434 -0.091,0.141 -0.136,0.276 -0.136,0.403 z"
   id="path77" />&#10;	</g>&#10;	<g
   id="g102">&#10;		<rect
   x="213.42101"
   y="32.228001"
   fill="none"
   width="149.60001"
   height="33.901001"
   id="rect77" />&#10;		<path
   fill="#2f2f2f"
   d="m 224.385,44.13 v -9.803 h 3.473 c 3.482,0 5.223,1.593 5.223,4.778 0,1.527 -0.475,2.746 -1.425,3.657 -0.95,0.912 -2.216,1.367 -3.797,1.367 h -3.474 z m 2.208,-8.005 v 6.214 h 1.094 c 0.957,0 1.708,-0.287 2.252,-0.861 0.544,-0.574 0.817,-1.355 0.817,-2.345 0,-0.934 -0.27,-1.669 -0.81,-2.204 -0.54,-0.536 -1.298,-0.804 -2.273,-0.804 z"
   id="path78" />&#10;		<path
   fill="#2f2f2f"
   d="m 240.778,41.245 h -4.566 c 0.073,1.017 0.713,1.524 1.921,1.524 0.77,0 1.447,-0.182 2.03,-0.547 v 1.559 c -0.647,0.347 -1.488,0.52 -2.522,0.52 -1.13,0 -2.007,-0.313 -2.632,-0.939 -0.625,-0.627 -0.937,-1.501 -0.937,-2.622 0,-1.162 0.337,-2.082 1.012,-2.762 0.674,-0.679 1.504,-1.019 2.488,-1.019 1.021,0 1.811,0.304 2.369,0.909 0.558,0.606 0.837,1.429 0.837,2.468 z m -2.003,-1.326 c 0,-1.002 -0.406,-1.504 -1.217,-1.504 -0.346,0 -0.646,0.144 -0.899,0.431 -0.253,0.287 -0.407,0.646 -0.461,1.073 z"
   id="path79" />&#10;		<path
   fill="#2f2f2f"
   d="m 248.637,37.13 -2.604,7 h -2.461 l -2.481,-7 h 2.311 l 1.217,4.313 c 0.137,0.488 0.216,0.902 0.239,1.244 h 0.027 c 0.032,-0.323 0.116,-0.725 0.253,-1.203 l 1.244,-4.354 z"
   id="path80" />&#10;		<path
   fill="#2f2f2f"
   d="m 250.683,36.023 c -0.365,0 -0.663,-0.108 -0.896,-0.324 -0.232,-0.217 -0.349,-0.482 -0.349,-0.797 0,-0.323 0.116,-0.588 0.349,-0.793 0.233,-0.205 0.531,-0.308 0.896,-0.308 0.369,0 0.669,0.103 0.899,0.308 0.23,0.205 0.345,0.47 0.345,0.793 0,0.328 -0.115,0.598 -0.345,0.807 -0.23,0.209 -0.53,0.314 -0.899,0.314 z m 1.067,8.107 h -2.16 v -7 h 2.16 z"
   id="path81" />&#10;		<path
   fill="#2f2f2f"
   d="m 258.829,43.877 c -0.488,0.283 -1.192,0.424 -2.112,0.424 -1.076,0 -1.946,-0.325 -2.611,-0.978 -0.666,-0.651 -0.998,-1.492 -0.998,-2.522 0,-1.189 0.356,-2.127 1.07,-2.812 0.713,-0.687 1.667,-1.029 2.861,-1.029 0.825,0 1.422,0.109 1.791,0.328 v 1.832 c -0.451,-0.337 -0.955,-0.506 -1.511,-0.506 -0.62,0 -1.111,0.182 -1.473,0.544 -0.362,0.362 -0.543,0.862 -0.543,1.5 0,0.62 0.173,1.106 0.52,1.46 0.346,0.353 0.823,0.529 1.429,0.529 0.538,0 1.064,-0.168 1.579,-0.506 v 1.736 z"
   id="path82" />&#10;		<path
   fill="#2f2f2f"
   d="m 266.545,41.245 h -4.566 c 0.073,1.017 0.713,1.524 1.921,1.524 0.77,0 1.447,-0.182 2.03,-0.547 v 1.559 c -0.647,0.347 -1.488,0.52 -2.522,0.52 -1.13,0 -2.007,-0.313 -2.632,-0.939 -0.625,-0.627 -0.937,-1.501 -0.937,-2.622 0,-1.162 0.337,-2.082 1.012,-2.762 0.674,-0.679 1.504,-1.019 2.488,-1.019 1.021,0 1.811,0.304 2.369,0.909 0.558,0.606 0.837,1.429 0.837,2.468 z m -2.003,-1.326 c 0,-1.002 -0.406,-1.504 -1.217,-1.504 -0.346,0 -0.646,0.144 -0.899,0.431 -0.253,0.287 -0.407,0.646 -0.461,1.073 z"
   id="path83" />&#10;		<path
   fill="#2f2f2f"
   d="m 274.112,40.753 v 3.377 h -2.208 v -9.803 h 3.459 c 2.47,0 3.705,1.042 3.705,3.124 0,0.984 -0.354,1.781 -1.063,2.39 -0.709,0.609 -1.655,0.912 -2.84,0.912 z m 0,-4.73 v 3.056 h 0.868 c 1.176,0 1.764,-0.515 1.764,-1.545 0,-1.007 -0.588,-1.511 -1.764,-1.511 z"
   id="path84" />&#10;		<path
   fill="#2f2f2f"
   d="m 284.737,39.078 c -0.26,-0.141 -0.563,-0.212 -0.909,-0.212 -0.469,0 -0.836,0.172 -1.101,0.517 -0.264,0.344 -0.396,0.812 -0.396,1.404 v 3.343 h -2.16 v -7 h 2.16 v 1.299 h 0.027 c 0.342,-0.947 0.957,-1.422 1.846,-1.422 0.228,0 0.406,0.027 0.533,0.082 z"
   id="path85" />&#10;		<path
   fill="#2f2f2f"
   d="m 289.164,44.301 c -1.167,0 -2.084,-0.327 -2.751,-0.98 -0.667,-0.654 -1.001,-1.542 -1.001,-2.663 0,-1.157 0.346,-2.063 1.039,-2.717 0.693,-0.654 1.629,-0.981 2.81,-0.981 1.162,0 2.074,0.327 2.734,0.981 0.661,0.653 0.991,1.519 0.991,2.594 0,1.162 -0.341,2.081 -1.022,2.755 -0.682,0.674 -1.615,1.011 -2.8,1.011 z m 0.054,-5.688 c -0.51,0 -0.907,0.176 -1.189,0.526 -0.283,0.352 -0.424,0.848 -0.424,1.49 0,1.345 0.542,2.017 1.627,2.017 1.035,0 1.552,-0.69 1.552,-2.071 0,-1.307 -0.522,-1.962 -1.566,-1.962 z"
   id="path86" />&#10;		<path
   fill="#2f2f2f"
   d="m 300.853,37.13 -2.604,7 h -2.461 l -2.481,-7 h 2.311 l 1.217,4.313 c 0.137,0.488 0.216,0.902 0.239,1.244 h 0.027 c 0.032,-0.323 0.116,-0.725 0.253,-1.203 l 1.244,-4.354 z"
   id="path87" />&#10;		<path
   fill="#2f2f2f"
   d="m 302.899,36.023 c -0.365,0 -0.663,-0.108 -0.896,-0.324 -0.232,-0.217 -0.349,-0.482 -0.349,-0.797 0,-0.323 0.116,-0.588 0.349,-0.793 0.233,-0.205 0.531,-0.308 0.896,-0.308 0.369,0 0.669,0.103 0.899,0.308 0.23,0.205 0.345,0.47 0.345,0.793 0,0.328 -0.115,0.598 -0.345,0.807 -0.231,0.209 -0.53,0.314 -0.899,0.314 z m 1.066,8.107 h -2.16 v -7 h 2.16 z"
   id="path88" />&#10;		<path
   fill="#2f2f2f"
   d="m 305.404,43.946 v -1.75 c 0.355,0.215 0.71,0.374 1.063,0.479 0.353,0.105 0.687,0.157 1.001,0.157 0.383,0 0.685,-0.052 0.906,-0.157 0.221,-0.104 0.332,-0.264 0.332,-0.479 0,-0.137 -0.05,-0.25 -0.15,-0.342 -0.1,-0.091 -0.229,-0.171 -0.386,-0.239 -0.157,-0.068 -0.329,-0.13 -0.516,-0.185 -0.187,-0.055 -0.367,-0.116 -0.54,-0.185 -0.278,-0.104 -0.523,-0.218 -0.735,-0.338 -0.212,-0.121 -0.39,-0.261 -0.533,-0.421 -0.144,-0.159 -0.253,-0.344 -0.328,-0.554 -0.075,-0.209 -0.113,-0.458 -0.113,-0.745 0,-0.392 0.085,-0.729 0.256,-1.012 0.171,-0.282 0.399,-0.514 0.684,-0.693 0.285,-0.181 0.611,-0.312 0.978,-0.396 0.367,-0.085 0.749,-0.127 1.145,-0.127 0.31,0 0.625,0.024 0.943,0.072 0.318,0.048 0.633,0.117 0.943,0.208 v 1.668 c -0.273,-0.159 -0.566,-0.279 -0.878,-0.358 -0.312,-0.08 -0.619,-0.12 -0.919,-0.12 -0.141,0 -0.274,0.013 -0.4,0.038 -0.125,0.024 -0.236,0.062 -0.332,0.109 -0.096,0.047 -0.171,0.109 -0.226,0.185 -0.055,0.076 -0.082,0.16 -0.082,0.256 0,0.128 0.041,0.237 0.123,0.328 0.082,0.092 0.189,0.17 0.321,0.236 0.132,0.065 0.279,0.125 0.441,0.178 0.162,0.052 0.322,0.105 0.482,0.16 0.287,0.101 0.547,0.21 0.779,0.328 0.232,0.119 0.432,0.258 0.598,0.417 0.167,0.16 0.294,0.347 0.383,0.561 0.089,0.215 0.133,0.47 0.133,0.766 0,0.415 -0.09,0.77 -0.27,1.063 -0.18,0.293 -0.419,0.533 -0.718,0.718 -0.299,0.185 -0.643,0.318 -1.032,0.403 -0.39,0.084 -0.794,0.126 -1.213,0.126 -0.77,0 -1.484,-0.118 -2.14,-0.355 z"
   id="path89" />&#10;		<path
   fill="#2f2f2f"
   d="m 313.143,36.023 c -0.365,0 -0.663,-0.108 -0.896,-0.324 -0.232,-0.217 -0.349,-0.482 -0.349,-0.797 0,-0.323 0.116,-0.588 0.349,-0.793 0.233,-0.205 0.531,-0.308 0.896,-0.308 0.369,0 0.669,0.103 0.899,0.308 0.23,0.205 0.345,0.47 0.345,0.793 0,0.328 -0.115,0.598 -0.345,0.807 -0.23,0.209 -0.53,0.314 -0.899,0.314 z m 1.066,8.107 h -2.16 v -7 h 2.16 z"
   id="path90" />&#10;		<path
   fill="#2f2f2f"
   d="m 319.32,44.301 c -1.167,0 -2.084,-0.327 -2.751,-0.98 -0.667,-0.654 -1.001,-1.542 -1.001,-2.663 0,-1.157 0.346,-2.063 1.039,-2.717 0.693,-0.654 1.629,-0.981 2.81,-0.981 1.162,0 2.074,0.327 2.734,0.981 0.661,0.653 0.991,1.519 0.991,2.594 0,1.162 -0.341,2.081 -1.022,2.755 -0.682,0.674 -1.615,1.011 -2.8,1.011 z m 0.055,-5.688 c -0.51,0 -0.907,0.176 -1.189,0.526 -0.283,0.352 -0.424,0.848 -0.424,1.49 0,1.345 0.542,2.017 1.627,2.017 1.035,0 1.552,-0.69 1.552,-2.071 -10e-4,-1.307 -0.523,-1.962 -1.566,-1.962 z"
   id="path91" />&#10;		<path
   fill="#2f2f2f"
   d="m 331.282,44.13 h -2.153 v -3.89 c 0,-1.084 -0.387,-1.627 -1.162,-1.627 -0.374,0 -0.681,0.144 -0.923,0.431 -0.242,0.287 -0.362,0.652 -0.362,1.094 v 3.992 h -2.16 v -7 h 2.16 v 1.107 h 0.027 c 0.515,-0.852 1.265,-1.278 2.249,-1.278 1.549,0 2.324,0.962 2.324,2.885 z"
   id="path92" />&#10;		<path
   fill="#2f2f2f"
   d="m 334.054,36.023 c -0.365,0 -0.663,-0.108 -0.896,-0.324 -0.232,-0.217 -0.349,-0.482 -0.349,-0.797 0,-0.323 0.116,-0.588 0.349,-0.793 0.233,-0.205 0.531,-0.308 0.896,-0.308 0.369,0 0.669,0.103 0.899,0.308 0.23,0.205 0.345,0.47 0.345,0.793 0,0.328 -0.115,0.598 -0.345,0.807 -0.23,0.209 -0.53,0.314 -0.899,0.314 z m 1.067,8.107 h -2.16 v -7 h 2.16 z"
   id="path93" />&#10;		<path
   fill="#2f2f2f"
   d="m 343.663,44.13 h -2.153 v -3.89 c 0,-1.084 -0.387,-1.627 -1.162,-1.627 -0.374,0 -0.681,0.144 -0.923,0.431 -0.242,0.287 -0.362,0.652 -0.362,1.094 v 3.992 h -2.16 v -7 h 2.16 v 1.107 h 0.027 c 0.515,-0.852 1.265,-1.278 2.249,-1.278 1.549,0 2.324,0.962 2.324,2.885 z"
   id="path94" />&#10;		<path
   fill="#2f2f2f"
   d="m 352.282,43.33 c 0,1.299 -0.376,2.305 -1.128,3.019 -0.752,0.713 -1.841,1.069 -3.268,1.069 -0.943,0 -1.69,-0.134 -2.242,-0.403 v -1.818 c 0.72,0.42 1.447,0.629 2.181,0.629 0.729,0 1.294,-0.192 1.695,-0.577 0.401,-0.386 0.602,-0.908 0.602,-1.569 v -0.554 h -0.027 c -0.492,0.784 -1.219,1.176 -2.181,1.176 -0.894,0 -1.602,-0.314 -2.126,-0.943 -0.524,-0.629 -0.786,-1.472 -0.786,-2.529 0,-1.185 0.292,-2.126 0.875,-2.823 0.583,-0.697 1.352,-1.046 2.304,-1.046 0.853,0 1.49,0.328 1.914,0.984 h 0.027 V 37.13 h 2.16 z m -2.132,-2.563 v -0.554 c 0,-0.441 -0.131,-0.819 -0.394,-1.131 -0.262,-0.312 -0.603,-0.469 -1.021,-0.469 -0.479,0 -0.854,0.188 -1.128,0.561 -0.273,0.374 -0.41,0.9 -0.41,1.579 0,0.584 0.13,1.045 0.39,1.385 0.26,0.339 0.615,0.509 1.066,0.509 0.446,0 0.808,-0.172 1.084,-0.516 0.275,-0.345 0.413,-0.799 0.413,-1.364 z"
   id="path95" />&#10;		<path
   fill="#2f2f2f"
   d="m 265.211,60.554 v -2.188 c 0.396,0.333 0.827,0.582 1.292,0.749 0.465,0.166 0.934,0.249 1.408,0.249 0.278,0 0.521,-0.024 0.728,-0.075 0.208,-0.05 0.38,-0.119 0.52,-0.208 0.14,-0.089 0.243,-0.194 0.311,-0.314 0.068,-0.121 0.103,-0.252 0.103,-0.394 0,-0.191 -0.055,-0.362 -0.164,-0.513 -0.109,-0.151 -0.259,-0.289 -0.448,-0.417 -0.189,-0.127 -0.414,-0.25 -0.673,-0.369 -0.26,-0.118 -0.54,-0.239 -0.841,-0.362 -0.766,-0.318 -1.336,-0.708 -1.712,-1.169 -0.376,-0.46 -0.564,-1.016 -0.564,-1.668 0,-0.51 0.103,-0.949 0.308,-1.315 0.205,-0.367 0.484,-0.669 0.837,-0.906 0.353,-0.236 0.762,-0.411 1.227,-0.522 0.465,-0.112 0.957,-0.168 1.477,-0.168 0.51,0 0.963,0.031 1.357,0.093 0.394,0.062 0.758,0.156 1.09,0.283 v 2.044 c -0.164,-0.113 -0.343,-0.214 -0.537,-0.301 -0.194,-0.086 -0.393,-0.158 -0.598,-0.215 -0.205,-0.058 -0.409,-0.1 -0.612,-0.127 -0.203,-0.027 -0.396,-0.041 -0.578,-0.041 -0.25,0 -0.479,0.024 -0.684,0.072 -0.205,0.048 -0.378,0.115 -0.52,0.201 -0.141,0.087 -0.25,0.19 -0.328,0.312 -0.078,0.12 -0.116,0.256 -0.116,0.406 0,0.164 0.043,0.312 0.13,0.441 0.087,0.129 0.209,0.253 0.369,0.369 0.16,0.116 0.353,0.229 0.581,0.342 0.228,0.111 0.485,0.227 0.772,0.345 0.392,0.164 0.744,0.339 1.056,0.523 0.312,0.184 0.58,0.393 0.803,0.625 0.223,0.232 0.394,0.498 0.513,0.797 0.119,0.298 0.178,0.646 0.178,1.042 0,0.547 -0.104,1.006 -0.311,1.378 -0.208,0.371 -0.489,0.672 -0.844,0.902 -0.355,0.229 -0.769,0.396 -1.241,0.495 -0.472,0.101 -0.97,0.15 -1.494,0.15 -0.538,0 -1.049,-0.045 -1.535,-0.137 -0.484,-0.09 -0.905,-0.226 -1.26,-0.409 z"
   id="path96" />&#10;		<path
   fill="#2f2f2f"
   d="m 279.587,58.045 h -4.566 c 0.073,1.017 0.713,1.524 1.921,1.524 0.77,0 1.447,-0.182 2.03,-0.547 v 1.559 c -0.647,0.347 -1.488,0.52 -2.522,0.52 -1.13,0 -2.007,-0.313 -2.632,-0.939 -0.625,-0.627 -0.937,-1.501 -0.937,-2.622 0,-1.162 0.337,-2.082 1.012,-2.762 0.674,-0.679 1.504,-1.019 2.488,-1.019 1.021,0 1.811,0.304 2.369,0.909 0.558,0.606 0.837,1.429 0.837,2.468 z m -2.003,-1.326 c 0,-1.002 -0.406,-1.504 -1.217,-1.504 -0.346,0 -0.646,0.144 -0.899,0.431 -0.253,0.287 -0.407,0.646 -0.461,1.073 z"
   id="path97" />&#10;		<path
   fill="#2f2f2f"
   d="m 285.518,55.878 c -0.26,-0.141 -0.563,-0.212 -0.909,-0.212 -0.469,0 -0.836,0.172 -1.101,0.517 -0.264,0.344 -0.396,0.812 -0.396,1.404 v 3.343 h -2.16 v -7 h 2.16 v 1.299 h 0.027 c 0.342,-0.947 0.957,-1.422 1.846,-1.422 0.228,0 0.406,0.027 0.533,0.082 z"
   id="path98" />&#10;		<path
   fill="#2f2f2f"
   d="m 293.617,53.93 -2.604,7 h -2.461 l -2.481,-7 h 2.311 l 1.217,4.313 c 0.137,0.488 0.216,0.902 0.239,1.244 h 0.027 c 0.032,-0.323 0.116,-0.725 0.253,-1.203 l 1.244,-4.354 z"
   id="path99" />&#10;		<path
   fill="#2f2f2f"
   d="m 295.663,52.822 c -0.365,0 -0.663,-0.108 -0.896,-0.324 -0.232,-0.217 -0.349,-0.482 -0.349,-0.797 0,-0.323 0.116,-0.588 0.349,-0.793 0.233,-0.205 0.531,-0.308 0.896,-0.308 0.369,0 0.669,0.103 0.899,0.308 0.23,0.205 0.345,0.47 0.345,0.793 0,0.328 -0.115,0.598 -0.345,0.807 -0.23,0.21 -0.53,0.314 -0.899,0.314 z m 1.066,8.108 h -2.16 v -7 h 2.16 z"
   id="path100" />&#10;		<path
   fill="#2f2f2f"
   d="m 303.809,60.677 c -0.488,0.283 -1.192,0.424 -2.112,0.424 -1.076,0 -1.946,-0.325 -2.611,-0.978 -0.666,-0.651 -0.998,-1.492 -0.998,-2.522 0,-1.189 0.356,-2.127 1.07,-2.812 0.713,-0.687 1.667,-1.029 2.861,-1.029 0.825,0 1.422,0.109 1.791,0.328 v 1.832 c -0.451,-0.337 -0.955,-0.506 -1.511,-0.506 -0.62,0 -1.111,0.182 -1.473,0.544 -0.362,0.362 -0.543,0.862 -0.543,1.5 0,0.62 0.173,1.106 0.52,1.46 0.346,0.353 0.823,0.529 1.429,0.529 0.538,0 1.064,-0.168 1.579,-0.506 v 1.736 z"
   id="path101" />&#10;		<path
   fill="#2f2f2f"
   d="m 311.524,58.045 h -4.566 c 0.073,1.017 0.713,1.524 1.921,1.524 0.77,0 1.447,-0.182 2.03,-0.547 v 1.559 c -0.647,0.347 -1.488,0.52 -2.522,0.52 -1.13,0 -2.007,-0.313 -2.632,-0.939 -0.625,-0.627 -0.937,-1.501 -0.937,-2.622 0,-1.162 0.337,-2.082 1.012,-2.762 0.674,-0.679 1.504,-1.019 2.488,-1.019 1.021,0 1.811,0.304 2.369,0.909 0.558,0.606 0.837,1.429 0.837,2.468 z m -2.003,-1.326 c 0,-1.002 -0.406,-1.504 -1.217,-1.504 -0.346,0 -0.646,0.144 -0.899,0.431 -0.253,0.287 -0.407,0.646 -0.461,1.073 z"
   id="path102" />&#10;	</g>&#10;	<g
   id="g109">&#10;		<path
   fill="#2f2f2f"
   d="m 260.184,101.329 v -9.803 h 3.473 c 3.482,0 5.223,1.593 5.223,4.778 0,1.527 -0.475,2.746 -1.425,3.657 -0.95,0.912 -2.216,1.367 -3.797,1.367 h -3.474 z m 2.208,-8.005 v 6.214 h 1.094 c 0.957,0 1.708,-0.287 2.252,-0.861 0.544,-0.574 0.817,-1.355 0.817,-2.345 0,-0.934 -0.27,-1.669 -0.81,-2.204 -0.54,-0.536 -1.298,-0.804 -2.273,-0.804 z"
   id="path103" />&#10;		<path
   fill="#2f2f2f"
   d="m 276.577,98.445 h -4.566 c 0.073,1.017 0.713,1.524 1.921,1.524 0.77,0 1.447,-0.182 2.03,-0.547 v 1.559 c -0.647,0.347 -1.488,0.52 -2.522,0.52 -1.13,0 -2.007,-0.313 -2.632,-0.939 -0.625,-0.627 -0.937,-1.501 -0.937,-2.622 0,-1.162 0.337,-2.082 1.012,-2.762 0.674,-0.679 1.504,-1.019 2.488,-1.019 1.021,0 1.811,0.304 2.369,0.909 0.558,0.606 0.837,1.429 0.837,2.468 z m -2.003,-1.327 c 0,-1.002 -0.406,-1.504 -1.217,-1.504 -0.346,0 -0.646,0.144 -0.899,0.431 -0.253,0.287 -0.407,0.646 -0.461,1.073 z"
   id="path104" />&#10;		<path
   fill="#2f2f2f"
   d="m 284.436,94.329 -2.604,7 h -2.461 l -2.481,-7 h 2.311 l 1.217,4.313 c 0.137,0.488 0.216,0.902 0.239,1.244 h 0.027 c 0.032,-0.323 0.116,-0.725 0.253,-1.203 l 1.244,-4.354 z"
   id="path105" />&#10;		<path
   fill="#2f2f2f"
   d="m 286.482,93.222 c -0.365,0 -0.663,-0.108 -0.896,-0.324 -0.232,-0.217 -0.349,-0.482 -0.349,-0.797 0,-0.323 0.116,-0.588 0.349,-0.793 0.233,-0.205 0.531,-0.308 0.896,-0.308 0.369,0 0.669,0.103 0.899,0.308 0.23,0.205 0.345,0.47 0.345,0.793 0,0.328 -0.115,0.598 -0.345,0.807 -0.23,0.209 -0.53,0.314 -0.899,0.314 z m 1.066,8.107 h -2.16 v -7 h 2.16 z"
   id="path106" />&#10;		<path
   fill="#2f2f2f"
   d="m 294.628,101.076 c -0.488,0.283 -1.192,0.424 -2.112,0.424 -1.076,0 -1.946,-0.325 -2.611,-0.978 -0.666,-0.651 -0.998,-1.492 -0.998,-2.522 0,-1.189 0.356,-2.127 1.07,-2.812 0.713,-0.687 1.667,-1.029 2.861,-1.029 0.825,0 1.422,0.109 1.791,0.328 v 1.832 c -0.451,-0.337 -0.955,-0.506 -1.511,-0.506 -0.62,0 -1.111,0.182 -1.473,0.544 -0.362,0.362 -0.543,0.862 -0.543,1.5 0,0.62 0.173,1.106 0.52,1.46 0.346,0.353 0.823,0.529 1.429,0.529 0.538,0 1.064,-0.168 1.579,-0.506 v 1.736 z"
   id="path107" />&#10;		<path
   fill="#2f2f2f"
   d="m 302.343,98.445 h -4.566 c 0.073,1.017 0.713,1.524 1.921,1.524 0.77,0 1.447,-0.182 2.03,-0.547 v 1.559 c -0.647,0.347 -1.488,0.52 -2.522,0.52 -1.13,0 -2.007,-0.313 -2.632,-0.939 -0.625,-0.627 -0.937,-1.501 -0.937,-2.622 0,-1.162 0.337,-2.082 1.012,-2.762 0.674,-0.679 1.504,-1.019 2.488,-1.019 1.021,0 1.811,0.304 2.369,0.909 0.558,0.606 0.837,1.429 0.837,2.468 z m -2.003,-1.327 c 0,-1.002 -0.406,-1.504 -1.217,-1.504 -0.346,0 -0.646,0.144 -0.899,0.431 -0.253,0.287 -0.407,0.646 -0.461,1.073 z"
   id="path108" />&#10;		<path
   fill="#2f2f2f"
   d="m 312.269,91.308 v 10.021 h -2.153 v -7.588 c -0.119,0.105 -0.259,0.204 -0.42,0.298 -0.162,0.093 -0.334,0.178 -0.516,0.253 -0.182,0.075 -0.372,0.139 -0.567,0.191 -0.196,0.052 -0.39,0.09 -0.581,0.112 v -1.818 c 0.561,-0.164 1.089,-0.373 1.586,-0.629 0.497,-0.255 0.946,-0.535 1.347,-0.841 h 1.304 z"
   id="path109" />&#10;	</g>&#10;	<g
   id="g117">&#10;		<path
   fill="#2f2f2f"
   d="m 262.97,125.558 h -1.764 c -1.472,-1.623 -2.208,-3.616 -2.208,-5.981 0,-2.283 0.736,-4.3 2.208,-6.05 h 1.75 c -1.381,1.832 -2.071,3.849 -2.071,6.05 0,2.201 0.696,4.194 2.085,5.981 z"
   id="path110" />&#10;		<path
   fill="#2f2f2f"
   d="m 267.769,123.247 c -0.318,0.168 -0.8,0.253 -1.442,0.253 -1.521,0 -2.283,-0.79 -2.283,-2.372 v -3.206 h -1.135 v -1.593 h 1.135 v -1.511 l 2.153,-0.615 v 2.126 h 1.572 v 1.593 h -1.572 v 2.83 c 0,0.729 0.29,1.094 0.868,1.094 0.229,0 0.463,-0.065 0.704,-0.198 z"
   id="path111" />&#10;		<path
   fill="#2f2f2f"
   d="m 279.404,116.329 -2.017,7 h -2.27 l -1.032,-4.102 c -0.068,-0.273 -0.106,-0.572 -0.116,-0.896 h -0.041 c -0.031,0.355 -0.077,0.646 -0.137,0.868 l -1.107,4.129 h -2.242 l -1.976,-7 h 2.201 l 0.964,4.566 c 0.046,0.215 0.08,0.475 0.103,0.779 h 0.041 c 0.023,-0.318 0.064,-0.588 0.123,-0.807 l 1.203,-4.539 h 2.058 l 1.08,4.566 c 0.027,0.113 0.06,0.379 0.096,0.793 h 0.048 c 0.023,-0.264 0.06,-0.529 0.109,-0.793 l 0.909,-4.566 h 2.003 z"
   id="path112" />&#10;		<path
   fill="#2f2f2f"
   d="m 281.5,115.222 c -0.365,0 -0.663,-0.108 -0.896,-0.324 -0.232,-0.217 -0.349,-0.482 -0.349,-0.797 0,-0.324 0.116,-0.588 0.349,-0.793 0.233,-0.205 0.53,-0.308 0.896,-0.308 0.369,0 0.669,0.103 0.898,0.308 0.23,0.205 0.346,0.469 0.346,0.793 0,0.328 -0.115,0.598 -0.346,0.807 -0.229,0.208 -0.529,0.314 -0.898,0.314 z m 1.066,8.107 h -2.16 v -7 h 2.16 z"
   id="path113" />&#10;		<path
   fill="#2f2f2f"
   d="m 291.109,123.329 h -2.153 v -3.89 c 0,-1.085 -0.388,-1.627 -1.162,-1.627 -0.374,0 -0.682,0.144 -0.923,0.431 -0.242,0.287 -0.362,0.652 -0.362,1.094 v 3.992 h -2.16 v -7 h 2.16 v 1.107 h 0.027 c 0.515,-0.852 1.265,-1.278 2.249,-1.278 1.549,0 2.324,0.962 2.324,2.885 z"
   id="path114" />&#10;		<path
   fill="#2f2f2f"
   d="m 293.218,125.558 h -1.75 c 1.395,-1.777 2.092,-3.771 2.092,-5.981 0,-2.192 -0.697,-4.208 -2.092,-6.05 h 1.764 c 1.477,1.754 2.215,3.771 2.215,6.05 0,2.346 -0.742,4.34 -2.229,5.981 z"
   id="path115" />&#10;		<path
   fill="#2f2f2f"
   d="m 307.95,116.329 -2.604,7 h -2.461 l -2.481,-7 h 2.311 l 1.217,4.313 c 0.137,0.487 0.217,0.902 0.239,1.244 h 0.027 c 0.032,-0.323 0.116,-0.725 0.253,-1.203 l 1.244,-4.354 z"
   id="path116" />&#10;		<path
   fill="#2f2f2f"
   d="m 313.414,113.308 v 10.021 h -2.153 v -7.588 c -0.119,0.105 -0.259,0.204 -0.421,0.297 -0.161,0.094 -0.334,0.178 -0.516,0.254 -0.183,0.074 -0.372,0.139 -0.567,0.191 -0.196,0.052 -0.39,0.09 -0.581,0.112 v -1.818 c 0.561,-0.164 1.089,-0.374 1.586,-0.629 0.496,-0.255 0.945,-0.536 1.347,-0.841 h 1.305 z"
   id="path117" />&#10;	</g>&#10;	<g
   id="g124">&#10;		<path
   fill="#2f2f2f"
   d="m 44.846,44.129 v -9.803 h 3.473 c 3.482,0 5.223,1.593 5.223,4.778 0,1.527 -0.475,2.746 -1.425,3.657 -0.95,0.912 -2.216,1.367 -3.797,1.367 h -3.474 z m 2.208,-8.005 v 6.214 h 1.094 c 0.957,0 1.708,-0.287 2.252,-0.861 0.544,-0.574 0.817,-1.355 0.817,-2.345 0,-0.934 -0.27,-1.669 -0.81,-2.204 -0.54,-0.536 -1.298,-0.804 -2.273,-0.804 z"
   id="path118" />&#10;		<path
   fill="#2f2f2f"
   d="m 61.238,41.244 h -4.566 c 0.073,1.017 0.713,1.524 1.921,1.524 0.77,0 1.447,-0.182 2.03,-0.547 v 1.559 c -0.647,0.347 -1.488,0.52 -2.522,0.52 -1.13,0 -2.007,-0.313 -2.632,-0.939 -0.625,-0.627 -0.937,-1.501 -0.937,-2.622 0,-1.162 0.337,-2.082 1.012,-2.762 0.674,-0.679 1.504,-1.019 2.488,-1.019 1.021,0 1.811,0.304 2.369,0.909 0.558,0.606 0.837,1.429 0.837,2.468 z m -2.003,-1.326 c 0,-1.002 -0.406,-1.504 -1.217,-1.504 -0.346,0 -0.646,0.144 -0.899,0.431 -0.253,0.287 -0.407,0.646 -0.461,1.073 z"
   id="path119" />&#10;		<path
   fill="#2f2f2f"
   d="m 69.097,37.129 -2.604,7 h -2.461 l -2.481,-7 h 2.311 l 1.217,4.313 c 0.137,0.488 0.216,0.902 0.239,1.244 h 0.027 c 0.032,-0.323 0.116,-0.725 0.253,-1.203 l 1.244,-4.354 z"
   id="path120" />&#10;		<path
   fill="#2f2f2f"
   d="m 71.144,36.022 c -0.365,0 -0.663,-0.108 -0.896,-0.324 -0.232,-0.217 -0.349,-0.482 -0.349,-0.797 0,-0.323 0.116,-0.588 0.349,-0.793 0.233,-0.205 0.531,-0.308 0.896,-0.308 0.369,0 0.669,0.103 0.899,0.308 0.23,0.205 0.345,0.47 0.345,0.793 0,0.328 -0.115,0.598 -0.345,0.807 -0.23,0.209 -0.53,0.314 -0.899,0.314 z m 1.066,8.107 h -2.16 v -7 h 2.16 z"
   id="path121" />&#10;		<path
   fill="#2f2f2f"
   d="m 79.29,43.876 c -0.488,0.283 -1.192,0.424 -2.112,0.424 -1.076,0 -1.946,-0.325 -2.611,-0.978 -0.666,-0.651 -0.998,-1.492 -0.998,-2.522 0,-1.189 0.356,-2.127 1.07,-2.812 0.713,-0.687 1.667,-1.029 2.861,-1.029 0.825,0 1.422,0.109 1.791,0.328 v 1.832 c -0.451,-0.337 -0.955,-0.506 -1.511,-0.506 -0.62,0 -1.111,0.182 -1.473,0.544 -0.362,0.362 -0.543,0.862 -0.543,1.5 0,0.62 0.173,1.106 0.52,1.46 0.346,0.353 0.823,0.529 1.429,0.529 0.538,0 1.064,-0.168 1.579,-0.506 v 1.736 z"
   id="path122" />&#10;		<path
   fill="#2f2f2f"
   d="m 87.005,41.244 h -4.566 c 0.073,1.017 0.713,1.524 1.921,1.524 0.77,0 1.447,-0.182 2.03,-0.547 v 1.559 c -0.647,0.347 -1.488,0.52 -2.522,0.52 -1.13,0 -2.007,-0.313 -2.632,-0.939 -0.625,-0.627 -0.937,-1.501 -0.937,-2.622 0,-1.162 0.337,-2.082 1.012,-2.762 0.674,-0.679 1.504,-1.019 2.488,-1.019 1.021,0 1.811,0.304 2.369,0.909 0.558,0.606 0.837,1.429 0.837,2.468 z m -2.003,-1.326 c 0,-1.002 -0.406,-1.504 -1.217,-1.504 -0.346,0 -0.646,0.144 -0.899,0.431 -0.253,0.287 -0.407,0.646 -0.461,1.073 z"
   id="path123" />&#10;		<path
   fill="#2f2f2f"
   d="m 96.931,34.108 v 10.021 h -2.153 v -7.588 c -0.119,0.105 -0.259,0.204 -0.42,0.298 -0.162,0.093 -0.334,0.178 -0.516,0.253 -0.182,0.075 -0.372,0.139 -0.567,0.191 -0.196,0.052 -0.39,0.09 -0.581,0.112 v -1.818 c 0.561,-0.164 1.089,-0.373 1.586,-0.629 0.497,-0.255 0.946,-0.535 1.347,-0.841 h 1.304 z"
   id="path124" />&#10;	</g>&#10;</g>&#10;<g
   id="Layer_1"
   transform="scale(0.84175084)">&#10;</g>&#10;</svg>
