<svg width="103" height="103" viewBox="0 0 103 103" fill="none" xmlns="http://www.w3.org/2000/svg">
<path d="M51.861 98.182C26.011 98.182 5.05103 77.232 5.05103 51.372C5.05103 25.512 26.011 4.56201 51.861 4.56201C77.711 4.56201 98.671 25.522 98.671 51.372C98.671 77.222 77.711 98.182 51.861 98.182Z" fill="url(#paint0_linear)"/>
<path fill-rule="evenodd" clip-rule="evenodd" d="M97.7611 51.3722C97.7611 76.7222 77.2111 97.2722 51.8611 97.2722C26.5111 97.2722 5.96107 76.7222 5.96107 51.3722C5.96107 26.0222 26.5111 5.47218 51.8611 5.47218C77.2111 5.47218 97.7611 26.0222 97.7611 51.3722ZM51.8611 1.73218C79.2811 1.73218 101.501 23.9522 101.501 51.3722C101.501 78.7922 79.2711 101.012 51.8611 101.012C24.4411 101.012 2.22107 78.7822 2.22107 51.3722C2.22107 23.9522 24.4411 1.73218 51.8611 1.73218Z" fill="#F2F1F0"/>
<path fill-rule="evenodd" clip-rule="evenodd" d="M94.9511 51.372C94.9511 75.172 75.6611 94.462 51.8611 94.462C28.0611 94.462 8.77113 75.172 8.77113 51.372C8.77113 27.572 28.0611 8.28199 51.8611 8.28199C75.6611 8.28199 94.9511 27.572 94.9511 51.372ZM51.8611 4.54199C77.7211 4.54199 98.6911 25.512 98.6911 51.372C98.6911 77.232 77.7211 98.202 51.8611 98.202C26.0011 98.202 5.03113 77.232 5.03113 51.372C5.03113 25.512 25.9911 4.54199 51.8611 4.54199Z" fill="url(#paint1_linear)"/>
<g opacity="0.15">
<path opacity="0.15" d="M37.301 61.0822V57.7722C38.501 58.5022 39.771 58.8722 41.131 58.8722C42.151 58.8722 42.951 58.6322 43.521 58.1422C44.101 57.6522 44.391 56.9922 44.391 56.1622C44.391 54.4222 43.161 53.5522 40.701 53.5522C39.791 53.5522 38.751 53.6222 37.571 53.7622L38.231 43.9622H47.521V47.1222H41.181L40.931 50.6322C41.561 50.5822 42.101 50.5622 42.561 50.5622C44.371 50.5622 45.781 51.0322 46.801 51.9822C47.821 52.9322 48.331 54.2022 48.331 55.8022C48.331 57.5722 47.721 59.0222 46.511 60.1422C45.301 61.2622 43.641 61.8222 41.561 61.8222C39.871 61.8422 38.461 61.5922 37.301 61.0822Z" fill="#1F1D20"/>
<path opacity="0.15" d="M66.411 60.3621C64.691 61.3521 62.571 61.8421 60.021 61.8421C57.191 61.8421 54.971 61.0621 53.341 59.5021C51.711 57.9321 50.901 55.7821 50.901 53.0421C50.901 50.2821 51.791 48.0321 53.571 46.2921C55.341 44.5321 57.711 43.6721 60.671 43.6721C62.531 43.6721 64.171 43.9321 65.591 44.4521V48.1621C64.241 47.3821 62.581 46.9821 60.621 46.9821C58.981 46.9821 57.641 47.5221 56.611 48.5821C55.581 49.6421 55.061 51.0721 55.061 52.8521C55.061 54.6621 55.521 56.0521 56.451 57.0421C57.371 58.0321 58.631 58.5221 60.201 58.5221C61.151 58.5221 61.901 58.3921 62.451 58.1221V54.6921H58.941V51.5221H66.411V60.3621Z" fill="#1F1D20"/>
</g>
<g opacity="0.15">
<path opacity="0.15" d="M88.2611 47.5921C88.2611 46.8021 87.6111 46.1521 86.8211 46.1521C86.3011 46.1521 83.0711 45.8721 81.3411 44.5221C81.3411 44.5221 81.3511 44.5021 81.3411 44.5221C80.6811 42.1321 79.7311 39.9021 78.5411 37.7921C78.2411 35.7821 80.3111 34.3321 81.2611 32.7621C81.4311 32.4921 81.5211 32.3321 81.5811 32.2221C81.7611 31.7121 81.6611 31.1221 81.2611 30.7221C81.2611 30.7221 79.6711 28.4421 78.0311 26.8221C76.4011 25.2021 73.9211 23.3921 73.9211 23.3921C73.3611 22.8321 72.4411 22.8321 71.8811 23.3921C71.5111 23.7521 69.0511 25.7821 66.8411 26.1021C66.8111 26.1021 66.8111 26.1021 66.8111 26.1021C64.7611 24.9421 62.4511 23.9821 60.1311 23.3221H60.1011C58.4711 22.1221 58.9011 19.6221 58.4711 17.8421C58.4711 17.0521 57.8211 16.4021 57.0311 16.4021C57.0311 16.4021 54.2911 15.9221 51.9811 15.9221C49.6711 15.9221 46.6511 16.4021 46.6511 16.4021C45.8611 16.4021 45.2111 17.0521 45.2111 17.8421C45.2111 18.3621 44.9311 21.5921 43.5811 23.3221C41.2911 23.9721 38.8811 24.9821 36.8511 26.1221C34.8411 26.4221 33.3911 24.3521 31.8211 23.4021C31.5511 23.2321 31.3911 23.1421 31.2811 23.0821C30.7711 22.9021 30.1811 23.0021 29.7811 23.4021C29.7811 23.4021 27.5011 24.9921 25.8811 26.6321C24.2611 28.2621 22.4511 30.7421 22.4511 30.7421C21.8911 31.3021 21.8911 32.2221 22.4511 32.7821C22.8111 33.1421 24.9011 35.6421 25.1711 37.8121V37.8321C24.0411 39.8721 23.0411 42.2621 22.3911 44.5521C22.3911 44.5521 22.4211 44.5121 22.3911 44.5521C20.9911 46.2521 18.6911 45.7521 16.9111 46.1821C16.1211 46.1821 15.4711 46.8321 15.4711 47.6221C15.4711 47.6221 14.9911 50.3621 14.9911 52.6721C14.9911 54.9821 15.4711 58.0021 15.4711 58.0021C15.4711 58.7921 16.1211 59.4421 16.9111 59.4421C17.4311 59.4421 20.6611 59.7221 22.3911 61.0721C22.4311 61.0521 22.4111 61.1021 22.4111 61.1021C23.0811 63.4021 24.0211 65.7021 25.1811 67.7321C25.1611 67.7621 25.1811 67.7321 25.1911 67.8021C25.3911 69.8921 23.4211 71.2621 22.4711 72.8321C22.3011 73.1021 22.2111 73.2621 22.1511 73.3721C21.9711 73.8821 22.0711 74.4721 22.4711 74.8721C22.4711 74.8721 24.0611 77.1521 25.7011 78.7721C27.3311 80.4021 29.8111 82.2021 29.8111 82.2021C30.3711 82.7621 31.2911 82.7621 31.8511 82.2021C32.2111 81.8421 34.7111 79.7521 36.8811 79.4821C36.8811 79.4821 36.8711 79.4921 36.9111 79.5021C39.0011 80.6621 41.1711 81.5821 43.5311 82.2321C43.5511 82.2421 43.6211 82.2621 43.6211 82.2621C45.2511 83.4621 44.8211 85.9621 45.2511 87.7421C45.3411 88.5421 45.7811 89.0521 46.6911 89.1821C46.6911 89.1821 49.4311 89.6621 51.7411 89.6621C54.0511 89.6621 57.0711 89.1921 57.0711 89.1921C57.8611 89.0521 58.5111 88.5421 58.5111 87.7521C58.5111 87.2321 58.7911 84.0021 60.1411 82.2721C60.1411 82.2721 60.2011 82.2221 60.2611 82.1721C62.6711 81.4921 64.5011 80.7521 66.6211 79.5321C66.7311 79.4921 66.6111 79.5021 66.8611 79.4621C68.8711 79.1621 70.3211 81.2321 71.8911 82.1821C72.1611 82.3521 72.3211 82.4421 72.4311 82.5021C72.9411 82.6821 73.5311 82.5821 73.9311 82.1821C73.9311 82.1821 76.2111 80.5921 77.8311 78.9521C79.4611 77.3221 81.2611 74.8421 81.2611 74.8421C81.8211 74.2821 81.8211 73.3621 81.2611 72.8021C80.9011 72.4421 78.8111 69.9421 78.5411 67.7721C78.5111 67.5421 78.5311 67.5221 78.5611 67.4621C79.7711 65.3221 80.5411 63.7521 81.2011 61.3321C81.2011 61.3321 81.1711 61.2521 81.3311 61.0521C82.5311 59.4221 85.0311 59.8521 86.8111 59.4221C87.6011 59.4221 88.2511 58.7721 88.2511 57.9821C88.2511 57.9821 88.7311 55.2421 88.7311 52.9321C88.7311 50.6221 88.2611 47.5921 88.2611 47.5921ZM73.1811 52.7221C73.1811 64.5521 63.5911 74.1521 51.7511 74.1521C39.9111 74.1521 30.3211 64.5621 30.3211 52.7221C30.3211 40.8921 39.9111 31.2921 51.7511 31.2921C63.5911 31.2921 73.1811 40.8921 73.1811 52.7221Z" fill="#1F1D20"/>
<path opacity="0.15" d="M72.461 82.5222C72.451 82.5222 72.451 82.5122 72.441 82.5122C72.451 82.5122 72.461 82.5222 72.461 82.5222Z" fill="#1F1D20"/>
<path opacity="0.15" d="M72.4411 82.5121C72.2311 82.3821 71.9011 82.1921 71.9011 82.1921C72.0511 82.3421 72.2411 82.4421 72.4411 82.5121Z" fill="#1F1D20"/>
<path opacity="0.15" d="M72.4611 82.5222C72.6411 82.6322 72.6011 82.6122 72.4611 82.5222V82.5222Z" fill="#1F1D20"/>
<path opacity="0.15" d="M31.2911 23.072C31.5011 23.202 31.8311 23.392 31.8311 23.392C31.6811 23.252 31.4911 23.142 31.2911 23.072Z" fill="#1F1D20"/>
<path opacity="0.15" d="M31.2711 23.062C31.2811 23.062 31.2811 23.072 31.2911 23.072C31.2811 23.072 31.2711 23.062 31.2711 23.062Z" fill="#1F1D20"/>
<path opacity="0.15" d="M31.2711 23.062C31.0911 22.962 31.1311 22.972 31.2711 23.062V23.062Z" fill="#1F1D20"/>
<path opacity="0.15" d="M22.1411 73.3821C22.0311 73.5721 22.0511 73.5321 22.1411 73.3821V73.3821Z" fill="#1F1D20"/>
<path opacity="0.15" d="M22.1411 73.3821C22.1411 73.3721 22.1511 73.3721 22.1511 73.3621C22.1511 73.3721 22.1411 73.3821 22.1411 73.3821Z" fill="#1F1D20"/>
<path opacity="0.15" d="M22.1511 73.362C22.2811 73.152 22.4711 72.822 22.4711 72.822C22.3211 72.982 22.2111 73.172 22.1511 73.362Z" fill="#1F1D20"/>
<path opacity="0.15" d="M81.5811 32.2222C81.4511 32.4322 81.2611 32.7622 81.2611 32.7622C81.4111 32.6022 81.5211 32.4222 81.5811 32.2222Z" fill="#1F1D20"/>
<path opacity="0.15" d="M81.5911 32.2021C81.5911 32.2121 81.5811 32.2121 81.5811 32.2221C81.5811 32.2121 81.5911 32.2021 81.5911 32.2021Z" fill="#1F1D20"/>
<path opacity="0.15" d="M81.5911 32.2021C81.7011 32.0221 81.6811 32.0521 81.5911 32.2021V32.2021Z" fill="#1F1D20"/>
</g>
<path d="M37.301 59.712V56.402C38.501 57.132 39.771 57.502 41.131 57.502C42.151 57.502 42.951 57.262 43.521 56.772C44.101 56.282 44.391 55.622 44.391 54.792C44.391 53.052 43.161 52.182 40.701 52.182C39.791 52.182 38.751 52.252 37.571 52.392L38.231 42.592H47.521V45.752H41.181L40.931 49.262C41.561 49.212 42.101 49.192 42.561 49.192C44.371 49.192 45.781 49.662 46.801 50.612C47.821 51.562 48.331 52.832 48.331 54.432C48.331 56.202 47.721 57.652 46.511 58.772C45.301 59.892 43.641 60.452 41.561 60.452C39.871 60.472 38.461 60.222 37.301 59.712Z" fill="#F2F1F0"/>
<path d="M66.411 59.002C64.691 59.992 62.571 60.482 60.021 60.482C57.191 60.482 54.971 59.702 53.341 58.142C51.711 56.572 50.901 54.422 50.901 51.682C50.901 48.922 51.791 46.672 53.571 44.932C55.341 43.172 57.711 42.312 60.671 42.312C62.531 42.312 64.171 42.572 65.591 43.092V46.802C64.241 46.022 62.581 45.622 60.621 45.622C58.981 45.622 57.641 46.162 56.611 47.222C55.581 48.282 55.061 49.712 55.061 51.492C55.061 53.302 55.521 54.692 56.451 55.682C57.371 56.672 58.631 57.162 60.201 57.162C61.151 57.162 61.901 57.032 62.451 56.762V53.332H58.941V50.162H66.411V59.002Z" fill="#F2F1F0"/>
<path d="M88.2611 46.172C88.2611 45.382 87.6111 44.732 86.8211 44.732C86.3011 44.732 83.0711 44.452 81.3411 43.102C81.3411 43.102 81.3511 43.082 81.3411 43.102C80.6811 40.712 79.7311 38.482 78.5411 36.372C78.2411 34.362 80.3111 32.912 81.2611 31.342C81.4311 31.072 81.5211 30.912 81.5811 30.802C81.7611 30.292 81.6611 29.702 81.2611 29.302C81.2611 29.302 79.6711 27.022 78.0311 25.402C76.4011 23.782 73.9211 21.972 73.9211 21.972C73.3611 21.412 72.4411 21.412 71.8811 21.972C71.5111 22.332 69.0511 24.362 66.8411 24.682C66.8111 24.682 66.8111 24.682 66.8111 24.682C64.7611 23.522 62.4511 22.562 60.1311 21.902H60.1011C58.4711 20.702 58.9011 18.202 58.4711 16.422C58.4711 15.632 57.8211 14.982 57.0311 14.982C57.0311 14.982 54.2911 14.502 51.9811 14.502C49.6711 14.502 46.6511 14.982 46.6511 14.982C45.8611 14.982 45.2111 15.632 45.2111 16.422C45.2111 16.942 44.9311 20.172 43.5811 21.902C41.2911 22.552 38.8811 23.562 36.8511 24.702C34.8411 25.002 33.3911 22.932 31.8211 21.982C31.5511 21.812 31.3911 21.722 31.2811 21.662C30.7711 21.482 30.1811 21.582 29.7811 21.982C29.7811 21.982 27.5011 23.572 25.8811 25.212C24.2611 26.842 22.4511 29.322 22.4511 29.322C21.8911 29.882 21.8911 30.802 22.4511 31.362C22.8111 31.722 24.9011 34.222 25.1711 36.392V36.412C24.0411 38.452 23.0411 40.842 22.3911 43.132C22.3911 43.132 22.4211 43.092 22.3911 43.132C20.9911 44.832 18.6911 44.332 16.9111 44.762C16.1211 44.762 15.4711 45.412 15.4711 46.202C15.4711 46.202 14.9911 48.942 14.9911 51.252C14.9911 53.562 15.4711 56.582 15.4711 56.582C15.4711 57.372 16.1211 58.022 16.9111 58.022C17.4311 58.022 20.6611 58.302 22.3911 59.652C22.4311 59.632 22.4111 59.682 22.4111 59.682C23.0811 61.982 24.0211 64.282 25.1811 66.312C25.1611 66.342 25.1811 66.312 25.1911 66.382C25.3911 68.472 23.4211 69.842 22.4711 71.412C22.3011 71.682 22.2111 71.842 22.1511 71.952C21.9711 72.462 22.0711 73.052 22.4711 73.452C22.4711 73.452 24.0611 75.732 25.7011 77.352C27.3311 78.982 29.8111 80.782 29.8111 80.782C30.3711 81.342 31.2911 81.342 31.8511 80.782C32.2111 80.422 34.7111 78.332 36.8811 78.062C36.8811 78.062 36.8711 78.072 36.9111 78.082C39.0011 79.242 41.1711 80.162 43.5311 80.812C43.5511 80.822 43.6211 80.842 43.6211 80.842C45.2511 82.042 44.8211 84.542 45.2511 86.322C45.3411 87.122 45.7811 87.632 46.6911 87.762C46.6911 87.762 49.4311 88.242 51.7411 88.242C54.0511 88.242 57.0711 87.772 57.0711 87.772C57.8611 87.632 58.5111 87.122 58.5111 86.332C58.5111 85.812 58.7911 82.582 60.1411 80.852C60.1411 80.852 60.2011 80.802 60.2611 80.752C62.6711 80.072 64.5011 79.3319 66.6211 78.1119C66.7311 78.0719 66.6111 78.082 66.8611 78.042C68.8711 77.742 70.3211 79.812 71.8911 80.762C72.1611 80.932 72.3211 81.022 72.4311 81.082C72.9411 81.262 73.5311 81.162 73.9311 80.762C73.9311 80.762 76.2111 79.172 77.8311 77.532C79.4611 75.902 81.2611 73.422 81.2611 73.422C81.8211 72.862 81.8211 71.942 81.2611 71.382C80.9011 71.022 78.8111 68.522 78.5411 66.352C78.5111 66.122 78.5311 66.102 78.5611 66.042C79.7711 63.902 80.5411 62.332 81.2011 59.912C81.2011 59.912 81.1711 59.832 81.3311 59.632C82.5311 58.002 85.0311 58.432 86.8111 58.002C87.6011 58.002 88.2511 57.352 88.2511 56.562C88.2511 56.562 88.7311 53.822 88.7311 51.512C88.7311 49.202 88.2611 46.172 88.2611 46.172ZM73.1811 51.302C73.1811 63.132 63.5911 72.732 51.7511 72.732C39.9111 72.732 30.3211 63.142 30.3211 51.302C30.3211 39.472 39.9111 29.872 51.7511 29.872C63.5911 29.872 73.1811 39.472 73.1811 51.302Z" fill="#182A37"/>
<path d="M72.461 81.102C72.451 81.102 72.451 81.092 72.441 81.092C72.451 81.092 72.461 81.102 72.461 81.102Z" fill="#F2F1F0"/>
<path d="M72.4411 81.092C72.2311 80.962 71.9011 80.772 71.9011 80.772C72.0511 80.922 72.2411 81.032 72.4411 81.092Z" fill="#F2F1F0"/>
<path d="M72.4611 81.1021C72.6411 81.2121 72.6011 81.1921 72.4611 81.1021V81.1021Z" fill="#F2F1F0"/>
<path d="M31.2911 21.6619C31.5011 21.7919 31.8311 21.9819 31.8311 21.9819C31.6811 21.8319 31.4911 21.7219 31.2911 21.6619Z" fill="#F2F1F0"/>
<path d="M31.2711 21.6519C31.2811 21.6519 31.2811 21.6619 31.2911 21.6619C31.2811 21.6619 31.2711 21.6519 31.2711 21.6519Z" fill="#F2F1F0"/>
<path d="M31.2711 21.6518C31.0911 21.5418 31.1311 21.5618 31.2711 21.6518V21.6518Z" fill="#F2F1F0"/>
<path d="M22.1411 71.9719C22.0311 72.1519 22.0511 72.1119 22.1411 71.9719V71.9719Z" fill="#F2F1F0"/>
<path d="M22.1411 71.9719C22.1411 71.9619 22.1511 71.9619 22.1511 71.9519C22.1511 71.9619 22.1411 71.9719 22.1411 71.9719Z" fill="#F2F1F0"/>
<path d="M22.1511 71.9519C22.2811 71.7419 22.4711 71.4119 22.4711 71.4119C22.3211 71.5619 22.2111 71.7519 22.1511 71.9519Z" fill="#F2F1F0"/>
<path d="M81.5811 30.802C81.4511 31.012 81.2611 31.342 81.2611 31.342C81.4111 31.192 81.5211 31.002 81.5811 30.802Z" fill="#F2F1F0"/>
<path d="M81.5911 30.782C81.5911 30.792 81.5811 30.792 81.5811 30.802C81.5811 30.792 81.5911 30.782 81.5911 30.782Z" fill="#F2F1F0"/>
<path d="M81.5911 30.7818C81.7011 30.6018 81.6811 30.6418 81.5911 30.7818V30.7818Z" fill="#F2F1F0"/>
<defs>
<linearGradient id="paint0_linear" x1="50.0911" y1="-13.4175" x2="54.0731" y2="132.353" gradientUnits="userSpaceOnUse">
<stop stop-color="#00ABDE"/>
<stop offset="1" stop-color="#007ED8"/>
</linearGradient>
<linearGradient id="paint1_linear" x1="3.29433" y1="-20.253" x2="98.8223" y2="120.628" gradientUnits="userSpaceOnUse">
<stop stop-color="#007ED8"/>
<stop offset="0.7065" stop-color="#002D4C"/>
</linearGradient>
</defs>
</svg>
