<svg width="180" height="190" viewBox="0 0 180 190" fill="none" xmlns="http://www.w3.org/2000/svg">
<path d="M89.9998 189C93.0598 189 96.0698 188.15 98.7298 186.53L160.7 148.87C166.24 145.5 169.67 139.17 169.67 132.33V57.6201C169.67 50.8001 166.24 44.4601 160.7 41.0801L98.7298 3.42006C93.3998 0.180064 86.5798 0.200064 81.2798 3.42006L19.3098 41.1001C13.7698 44.4701 10.3198 50.8001 10.3198 57.6401V132.34C10.3198 138.1 12.7698 143.52 16.8698 147.09V147.12L81.2798 186.55C83.9198 188.15 86.9398 189 89.9998 189ZM90.6498 7.95006C92.5998 7.95006 95.0798 9.16006 96.7898 10.2101L157.55 47.4001C161.3 49.6801 163.42 56.2801 163.42 61.0301L162.79 132.33C162.79 137.08 159.59 141.35 155.84 143.63L95.4398 180.01C92.0098 182.1 89.2198 182.1 85.7798 180.01L24.5698 143.54C20.8198 141.26 17.7998 137.06 17.7998 132.33V58.6901C17.7998 53.9501 20.5298 49.0601 24.2998 46.7701L84.8798 10.2101C86.5798 9.17006 88.6998 7.95006 90.6498 7.95006Z" fill="#F2F1F0"/>
<path fill-rule="evenodd" clip-rule="evenodd" d="M97.8998 11.53C95.4498 10.03 92.7298 9.28003 89.9998 9.28003C87.2698 9.28003 84.5498 10.04 82.0998 11.53L25.9698 45.86C20.9498 48.93 17.8398 54.68 17.8398 60.93V129.03C17.8398 135.26 20.9398 141.03 25.9698 144.1L82.0998 178.43C84.5498 179.93 87.2698 180.68 89.9998 180.68C92.7298 180.68 95.4498 179.94 97.8998 178.43L154.03 144.1C159.05 141.03 162.16 135.26 162.16 129.03V60.93C162.16 54.7 159.06 48.95 154.03 45.86L97.8998 11.53Z" fill="url(#paint0_linear)"/>
<path fill-rule="evenodd" clip-rule="evenodd" d="M89.9998 10.75C91.6798 10.75 93.5698 11.62 95.6298 12.87L154.1 48.41C157.75 50.63 160.16 54.9 160.16 59.73V130.21C160.16 135.03 157.75 139.31 154.1 141.53L95.6398 177.07C93.6798 178.26 91.7598 179.01 90.0098 179.01C88.2598 179.01 86.3398 178.26 84.3798 177.07L25.8998 141.54C23.8898 140.31 22.4398 139.11 21.4598 137.5C20.4798 135.9 19.8398 133.68 19.8398 130.22V59.74C19.8398 54.91 22.2498 50.64 25.8998 48.42L84.3598 12.88C86.4498 11.63 88.3098 10.75 89.9998 10.75ZM97.7098 180.5L156.17 144.96C161.09 141.97 164.15 136.35 164.15 130.22V59.74C164.15 53.61 161.09 47.99 156.17 45L97.7098 9.46C95.5998 8.18 92.8898 6.75 89.9998 6.75C87.0998 6.75 84.3899 8.19 82.2999 9.45H82.2898L23.8198 45C18.8998 47.99 15.8398 53.61 15.8398 59.74V130.22C15.8398 134.18 16.5798 137.17 18.0398 139.58C19.4998 141.98 21.5598 143.58 23.8198 144.95L82.2798 180.49C84.4998 181.84 87.1698 183.02 89.9898 183.02C92.8098 183.02 95.4898 181.85 97.7098 180.5Z" fill="url(#paint1_linear)"/>
<path d="M89.9998 189C93.0598 189 96.0698 188.15 98.7298 186.53L160.7 148.87C166.24 145.5 169.67 139.17 169.67 132.33V57.6201C169.67 50.8001 166.24 44.4601 160.7 41.0801L98.7298 3.42006C93.3998 0.180064 86.5798 0.200064 81.2798 3.42006L19.3098 41.1001C13.7698 44.4701 10.3198 50.8001 10.3198 57.6401V132.34C10.3198 138.1 12.7698 143.52 16.8698 147.09V147.12L81.2798 186.55C83.9198 188.15 86.9398 189 89.9998 189ZM90.6498 7.95006C92.5998 7.95006 95.0798 9.16006 96.7898 10.2101L157.55 47.4001C161.3 49.6801 163.42 56.2801 163.42 61.0301L162.79 132.33C162.79 137.08 159.59 141.35 155.84 143.63L95.4398 180.01C92.0098 182.1 89.2198 182.1 85.7798 180.01L24.5698 143.54C20.8198 141.26 17.7998 137.06 17.7998 132.33V58.6901C17.7998 53.9501 20.5298 49.0601 24.2998 46.7701L84.8798 10.2101C86.5798 9.17006 88.6998 7.95006 90.6498 7.95006Z" fill="#F2F1F0"/>
<path fill-rule="evenodd" clip-rule="evenodd" d="M97.8998 11.53C95.4498 10.03 92.7298 9.28003 89.9998 9.28003C87.2698 9.28003 84.5498 10.04 82.0998 11.53L25.9698 45.86C20.9498 48.93 17.8398 54.68 17.8398 60.93V129.03C17.8398 135.26 20.9398 141.03 25.9698 144.1L82.0998 178.43C84.5498 179.93 87.2698 180.68 89.9998 180.68C92.7298 180.68 95.4498 179.94 97.8998 178.43L154.03 144.1C159.05 141.03 162.16 135.26 162.16 129.03V60.93C162.16 54.7 159.06 48.95 154.03 45.86L97.8998 11.53Z" fill="url(#paint2_linear)"/>
<path fill-rule="evenodd" clip-rule="evenodd" d="M89.9998 10.75C91.6798 10.75 93.5698 11.62 95.6298 12.87L154.1 48.41C157.75 50.63 160.16 54.9 160.16 59.73V130.21C160.16 135.03 157.75 139.31 154.1 141.53L95.6398 177.07C93.6798 178.26 91.7598 179.01 90.0098 179.01C88.2598 179.01 86.3398 178.26 84.3798 177.07L25.8998 141.54C23.8898 140.31 22.4398 139.11 21.4598 137.5C20.4798 135.9 19.8398 133.68 19.8398 130.22V59.74C19.8398 54.91 22.2498 50.64 25.8998 48.42L84.3598 12.88C86.4498 11.63 88.3098 10.75 89.9998 10.75ZM97.7098 180.5L156.17 144.96C161.09 141.97 164.15 136.35 164.15 130.22V59.74C164.15 53.61 161.09 47.99 156.17 45L97.7098 9.46C95.5998 8.18 92.8898 6.75 89.9998 6.75C87.0998 6.75 84.3899 8.19 82.2999 9.45H82.2898L23.8198 45C18.8998 47.99 15.8398 53.61 15.8398 59.74V130.22C15.8398 134.18 16.5798 137.17 18.0398 139.58C19.4998 141.98 21.5598 143.58 23.8198 144.95L82.2798 180.49C84.4998 181.84 87.1698 183.02 89.9898 183.02C92.8098 183.02 95.4898 181.85 97.7098 180.5Z" fill="#002D4C"/>
<path opacity="0.15" fill-rule="evenodd" clip-rule="evenodd" d="M90.08 155.702C89.536 155.703 88.999 155.58 88.5099 155.342C56.5899 139.342 42.96 119.552 42.96 89.3417V61.4218C42.96 60.4961 43.3276 59.6085 43.9821 58.9539C44.6366 58.2994 45.5243 57.9317 46.45 57.9317C66.54 57.9317 79.96 53.7617 87.45 45.1617C87.7867 44.8014 88.1939 44.5141 88.6464 44.3177C89.0988 44.1213 89.5868 44.02 90.08 44.02C90.5732 44.02 91.0611 44.1213 91.5135 44.3177C91.9659 44.5141 92.3732 44.8014 92.71 45.1617C100.21 53.7617 113.61 57.9317 133.71 57.9317C134.635 57.9344 135.521 58.3029 136.175 58.9568C136.829 59.6108 137.197 60.497 137.2 61.4218V89.3717C137.2 119.562 123.57 139.292 91.65 155.372C91.1597 155.603 90.6219 155.716 90.08 155.702Z" fill="#1F1D20"/>
<path fill-rule="evenodd" clip-rule="evenodd" d="M49.9399 61.8517V86.3317C49.9399 113.332 61.6 130.552 90.08 145.262C118.55 130.552 130.21 113.372 130.21 86.3317V61.8517C111.88 61.3917 98.67 57.3217 90.08 49.4317C81.51 57.3217 68.2899 61.4117 49.9399 61.8517ZM90.08 152.692C89.5353 152.689 88.9983 152.563 88.5099 152.322C56.5899 136.272 42.96 116.532 42.96 86.3217V58.4117C42.96 57.4861 43.3276 56.5984 43.9821 55.9439C44.6366 55.2894 45.5243 54.9218 46.45 54.9218C66.54 54.9218 79.96 50.7418 87.45 42.1418C87.7867 41.7814 88.1939 41.4942 88.6464 41.2978C89.0988 41.1014 89.5868 41 90.08 41C90.5732 41 91.0611 41.1014 91.5135 41.2978C91.9659 41.4942 92.3732 41.7814 92.71 42.1418C100.21 50.7418 113.61 54.9218 133.71 54.9218C134.635 54.9244 135.521 55.2929 136.175 55.9468C136.829 56.6008 137.197 57.4869 137.2 58.4117V86.3517C137.2 116.542 123.57 136.272 91.65 152.352C91.1604 152.586 90.6227 152.703 90.08 152.692V152.692Z" fill="#556670"/>
<path fill-rule="evenodd" clip-rule="evenodd" d="M90.0602 46.9116C81.3402 56.9116 65.9602 60.2416 48.4502 60.2416V86.8716C48.4502 114.322 60.6102 132.002 90.0602 146.792C119.51 132.002 131.68 114.322 131.68 86.8716V60.2216C114.16 60.2216 98.8002 56.9116 90.0602 46.9116Z" fill="#243A5E"/>
<path fill-rule="evenodd" clip-rule="evenodd" d="M90.0801 46.9116V146.802C119.53 132.002 131.69 114.322 131.69 86.8716V60.2216C114.16 60.2216 98.8001 56.9116 90.0801 46.9116Z" fill="#092D4C"/>
<path opacity="0.15" d="M155.08 94.1717L138.51 78.0017V85.5017H100.22V102.002H138.51V110.392C138.51 110.468 138.533 110.543 138.575 110.606C138.617 110.67 138.677 110.72 138.747 110.749C138.818 110.779 138.895 110.788 138.97 110.774C139.045 110.76 139.115 110.725 139.17 110.672L155.04 95.1517C155.173 95.0262 155.253 94.8532 155.26 94.6699C155.267 94.4866 155.203 94.3077 155.08 94.1717Z" fill="#1F1D20"/>
<path d="M155.08 90.2716L139.2 74.7516C139.143 74.7 139.074 74.6656 138.998 74.6525C138.923 74.6393 138.846 74.648 138.775 74.6774C138.705 74.7069 138.644 74.7559 138.601 74.8186C138.557 74.8814 138.533 74.9553 138.53 75.0316V81.6116H100.22V98.1216H138.51V106.502C138.508 106.579 138.529 106.655 138.571 106.72C138.612 106.785 138.672 106.836 138.743 106.867C138.813 106.898 138.892 106.908 138.968 106.894C139.044 106.881 139.114 106.845 139.17 106.792L155.04 91.2716C155.109 91.2091 155.165 91.1335 155.204 91.0491C155.244 90.9646 155.266 90.8732 155.27 90.78C155.274 90.6869 155.259 90.5939 155.226 90.5066C155.194 90.4193 155.144 90.3394 155.08 90.2716V90.2716Z" fill="#F2F2F3"/>
<path opacity="0.15" d="M94.96 94.1717L78.43 89.3717V85.5017H31V102.002H78.43V99.0017C78.4283 99.0801 78.4502 99.1572 78.4929 99.2229C78.5356 99.2886 78.5972 99.3399 78.6696 99.3702C78.7419 99.4004 78.8216 99.4081 78.8984 99.3923C78.9752 99.3766 79.0455 99.338 79.1 99.2817L94.96 95.1317C95.0824 95.0018 95.1505 94.8301 95.1505 94.6517C95.1505 94.4733 95.0824 94.3016 94.96 94.1717V94.1717Z" fill="#1F1D20"/>
<path d="M94.96 90.2718L79.08 86.1218C79.0237 86.0702 78.9538 86.0358 78.8786 86.0227C78.8034 86.0095 78.726 86.0182 78.6555 86.0476C78.5851 86.0771 78.5245 86.1261 78.481 86.1888C78.4375 86.2516 78.4129 86.3255 78.41 86.4018V81.6118H31V98.1218H78.43V95.1218C78.431 95.199 78.4543 95.2742 78.4971 95.3384C78.5398 95.4027 78.6003 95.4532 78.6711 95.4838C78.7419 95.5145 78.8201 95.524 78.8962 95.5112C78.9723 95.4985 79.0431 95.4639 79.1 95.4118L94.96 91.2618C95.025 91.1968 95.0766 91.1197 95.1118 91.0347C95.1469 90.9498 95.165 90.8588 95.165 90.7668C95.165 90.6749 95.1469 90.5839 95.1118 90.4989C95.0766 90.414 95.025 90.3368 94.96 90.2718V90.2718Z" fill="#F2F2F3"/>
<path opacity="0.15" d="M90.03 118.312C103.61 118.312 114.63 112.742 114.63 105.882C114.63 99.0217 103.61 93.5017 90.03 93.5017C76.45 93.5017 65.4199 99.0617 65.4199 105.922C65.4199 112.782 76.44 118.312 90.03 118.312Z" fill="#1F1D20"/>
<path d="M115.05 87.8817L114.93 105.402C114.93 109.122 112.47 110.262 107.73 113.022C98.0697 118.602 82.2797 118.602 72.4997 113.022C67.6397 110.082 65.1797 108.882 65.1797 105.162L65.2997 87.8817C65.2997 91.6017 67.7597 85.1217 72.6197 87.8817C82.3997 93.4617 98.1897 93.4617 107.85 87.8817C112.71 85.1817 115.05 91.5017 115.05 87.8817Z" fill="url(#paint3_linear)"/>
<path d="M90.3301 107.562L46.3301 89.2018V88.0618L90.3301 70.8418L134.25 88.0618V89.2018L90.3301 107.562Z" fill="url(#paint4_linear)"/>
<path d="M90.3301 106.422L46.3301 88.0616L90.3301 69.7017L134.25 88.0616L90.3301 106.422Z" fill="url(#paint5_linear)"/>
<path d="M60.2601 93.8817L55.1602 91.7817L82.1602 80.5017L87.3301 82.5017L60.2601 93.8817Z" fill="url(#paint6_linear)"/>
<path d="M60.2601 93.8818L55.1602 91.8818L55.2202 104.122L57.6801 103.282L60.3201 106.162L60.2601 93.8818Z" fill="url(#paint7_linear)"/>
<defs>
<linearGradient id="paint0_linear" x1="89.9997" y1="9.28023" x2="89.9997" y2="180.68" gradientUnits="userSpaceOnUse">
<stop stop-color="#00ABDE"/>
<stop offset="1" stop-color="#007ED8"/>
</linearGradient>
<linearGradient id="paint1_linear" x1="36.1193" y1="4.0713" x2="202.797" y2="286.402" gradientUnits="userSpaceOnUse">
<stop stop-color="#007ED8"/>
<stop offset="0.7065" stop-color="#002D4C"/>
</linearGradient>
<linearGradient id="paint2_linear" x1="87.5948" y1="-12.1722" x2="92.6971" y2="215.166" gradientUnits="userSpaceOnUse">
<stop stop-color="#007ED8"/>
<stop offset="0.7065" stop-color="#002D4C"/>
</linearGradient>
<linearGradient id="paint3_linear" x1="65.1797" y1="102.192" x2="115.05" y2="102.192" gradientUnits="userSpaceOnUse">
<stop stop-color="#4FC2EB"/>
<stop offset="0.58" stop-color="#2E76BC"/>
</linearGradient>
<linearGradient id="paint4_linear" x1="51.3601" y1="82.8418" x2="119.73" y2="94.0018" gradientUnits="userSpaceOnUse">
<stop offset="0.04" stop-color="white"/>
<stop offset="0.49" stop-color="#4FC1EA"/>
<stop offset="0.85" stop-color="#2E76BC"/>
</linearGradient>
<linearGradient id="paint5_linear" x1="34575.1" y1="28475.2" x2="34621" y2="24618.1" gradientUnits="userSpaceOnUse">
<stop offset="0.04" stop-color="white"/>
<stop offset="0.49" stop-color="#4FC1EA"/>
<stop offset="0.85" stop-color="#2E76BC"/>
</linearGradient>
<linearGradient id="paint6_linear" x1="12109.6" y1="9974.21" x2="12111.4" y2="9494.64" gradientUnits="userSpaceOnUse">
<stop stop-color="#2E7BBF"/>
<stop offset="0.71" stop-color="#092D4C"/>
</linearGradient>
<linearGradient id="paint7_linear" x1="1918.43" y1="10649.2" x2="1931.46" y2="10137.7" gradientUnits="userSpaceOnUse">
<stop stop-color="#2E7BBF"/>
<stop offset="0.71" stop-color="#092D4C"/>
</linearGradient>
</defs>
</svg>
