<svg width="102" height="102" viewBox="0 0 102 102" fill="none" xmlns="http://www.w3.org/2000/svg">
<path d="M50.9999 97.8099C38.5852 97.8099 26.6788 92.8782 17.9003 84.0996C9.12169 75.321 4.18994 63.4147 4.18994 50.9999C4.18994 44.8528 5.40069 38.7657 7.75311 33.0865C10.1055 27.4072 13.5536 22.247 17.9003 17.9003C22.247 13.5536 27.4073 10.1055 33.0865 7.75311C38.7658 5.40069 44.8528 4.18994 50.9999 4.18994C57.1471 4.18994 63.2341 5.40069 68.9133 7.75311C74.5926 10.1055 79.7529 13.5536 84.0996 17.9003C88.4463 22.247 91.8943 27.4072 94.2468 33.0865C96.5992 38.7657 97.8099 44.8528 97.8099 50.9999C97.8099 63.4147 92.8782 75.321 84.0996 84.0996C75.321 92.8782 63.4147 97.8099 50.9999 97.8099V97.8099Z" fill="url(#paint0_linear)"/>
<path fill-rule="evenodd" clip-rule="evenodd" d="M96.8499 50.9999C96.8499 63.1733 92.014 74.8481 83.4061 83.4561C74.7981 92.064 63.1233 96.8998 50.9499 96.8998C38.7765 96.8998 27.1016 92.064 18.4937 83.4561C9.88573 74.8481 5.04987 63.1733 5.04987 50.9999C5.04987 38.8264 9.88573 27.1516 18.4937 18.5436C27.1016 9.93572 38.7765 5.09985 50.9499 5.09985C63.1233 5.09985 74.7981 9.93572 83.4061 18.5436C92.014 27.1516 96.8499 38.8264 96.8499 50.9999V50.9999ZM50.9999 1.35986C57.5191 1.35855 63.9747 2.64163 69.9979 5.1358C76.0211 7.62998 81.4938 11.2864 86.1036 15.8962C90.7133 20.5059 94.3698 25.9787 96.864 32.0019C99.3581 38.0251 100.641 44.4807 100.64 50.9999C100.632 64.16 95.3985 76.7784 86.09 86.0812C76.7816 95.3841 64.16 100.61 50.9999 100.61C37.8345 100.61 25.2084 95.3799 15.8991 86.0706C6.5898 76.7613 1.35986 64.1352 1.35986 50.9698C1.36517 37.8089 6.59778 25.189 15.9068 15.8856C25.2158 6.58217 37.8389 1.35721 50.9999 1.35986V1.35986Z" fill="#F2F1F0"/>
<path fill-rule="evenodd" clip-rule="evenodd" d="M93.9999 50.9999C94 62.4125 89.4725 73.359 81.411 81.4374C73.3495 89.5157 62.4125 94.0661 50.9999 94.0899C39.5718 94.0899 28.6116 89.5501 20.5307 81.4692C12.4498 73.3882 7.90991 62.4281 7.90991 50.9999C7.90991 39.5718 12.4498 28.6116 20.5307 20.5307C28.6116 12.4498 39.5718 7.90991 50.9999 7.90991C62.4125 7.93375 73.3495 12.4841 81.411 20.5624C89.4725 28.6408 94 39.5873 93.9999 50.9999V50.9999ZM50.9999 4.16992C63.42 4.16992 75.3314 9.10378 84.1138 17.8861C92.8961 26.6684 97.83 38.5799 97.83 50.9999C97.83 63.42 92.8961 75.3314 84.1138 84.1137C75.3314 92.896 63.42 97.8299 50.9999 97.8299C38.5799 97.8299 26.6684 92.896 17.8861 84.1137C9.10378 75.3314 4.16992 63.42 4.16992 50.9999C4.16992 38.5799 9.10378 26.6684 17.8861 17.8861C26.6684 9.10378 38.5799 4.16992 50.9999 4.16992V4.16992Z" fill="#092D4C"/>
<path opacity="0.15" d="M74.3496 22.2998L27.5696 21.9198C27.3303 21.9171 27.0928 21.962 26.8708 22.0518C26.6489 22.1416 26.447 22.2745 26.2768 22.4428C26.1066 22.6111 25.9715 22.8115 25.8793 23.0325C25.7871 23.2534 25.7396 23.4904 25.7396 23.7298L25.2296 84.7298C25.2269 84.97 25.2721 85.2083 25.3625 85.4309C25.4529 85.6535 25.5868 85.8558 25.7562 86.0262C25.9256 86.1965 26.1272 86.3314 26.3492 86.423C26.5713 86.5146 26.8094 86.5611 27.0496 86.5598L73.8196 86.9498C74.0607 86.9538 74.3001 86.9096 74.5239 86.8198C74.7476 86.73 74.9511 86.5964 75.1225 86.4269C75.2939 86.2573 75.4297 86.0552 75.522 85.8325C75.6142 85.6098 75.661 85.3709 75.6596 85.1298L76.1596 24.1298C76.1545 23.6495 75.9628 23.19 75.625 22.8484C75.2873 22.5069 74.8298 22.3102 74.3496 22.2998V22.2998Z" fill="#1F1D20"/>
<path d="M74.3597 20.3698L27.5798 19.9798C27.3399 19.9784 27.1022 20.0246 26.8802 20.1154C26.6582 20.2063 26.4564 20.3402 26.2864 20.5093C26.1163 20.6784 25.9813 20.8795 25.8892 21.101C25.7971 21.3224 25.7498 21.5599 25.7498 21.7998L25.2297 82.7998C25.2257 83.0408 25.2699 83.2803 25.3597 83.504C25.4495 83.7277 25.5832 83.9312 25.7527 84.1026C25.9222 84.274 26.1242 84.4099 26.347 84.5021C26.5697 84.5943 26.8087 84.6412 27.0497 84.6398L73.8198 85.0197C74.06 85.0237 74.2985 84.9799 74.5216 84.8907C74.7447 84.8015 74.9478 84.6688 75.1191 84.5003C75.2903 84.3319 75.4263 84.131 75.5192 83.9095C75.612 83.6879 75.6598 83.45 75.6597 83.2097L76.1597 22.2097C76.1624 21.9707 76.1179 21.7336 76.0289 21.5117C75.9398 21.2899 75.808 21.0878 75.6409 20.917C75.4737 20.7461 75.2746 20.6098 75.0548 20.516C74.8349 20.4221 74.5988 20.3724 74.3597 20.3698Z" fill="#F2F2F3"/>
<path fill-rule="evenodd" clip-rule="evenodd" d="M53.4197 13.2798C54.0632 13.639 54.5968 14.1668 54.9632 14.8063C55.3297 15.4457 55.5151 16.1729 55.4997 16.9098V17.2698C55.4997 17.4098 55.4997 17.5298 55.4997 17.6698H58.3697C58.7891 17.6685 59.2016 17.7767 59.5664 17.9836C59.9312 18.1906 60.2356 18.4891 60.4497 18.8498C60.7192 19.266 60.8715 19.7471 60.8908 20.2426C60.91 20.7381 60.7955 21.2296 60.5591 21.6654C60.3228 22.1013 59.9733 22.4655 59.5476 22.7196C59.1218 22.9738 58.6355 23.1086 58.1397 23.1098L43.6297 23.0098C43.2093 23.0101 42.7962 22.9004 42.4313 22.6916C42.0664 22.4829 41.7625 22.1823 41.5497 21.8198C41.2797 21.4029 41.1273 20.9208 41.1084 20.4245C41.0896 19.9282 41.205 19.4359 41.4426 18.9997C41.6802 18.5635 42.031 18.1995 42.4582 17.9461C42.8853 17.6927 43.373 17.5592 43.8697 17.5598H46.5396C46.5396 17.4298 46.5396 17.3098 46.5396 17.1698V17.0498C46.5635 16.2575 46.794 15.4851 47.2082 14.8092C47.6224 14.1334 48.2059 13.5774 48.9011 13.1965C49.5963 12.8156 50.3789 12.6229 51.1715 12.6375C51.964 12.6521 52.739 12.8735 53.4197 13.2798Z" fill="#243A5E"/>
<path d="M51.0002 19.2298C51.244 19.2325 51.4859 19.1869 51.712 19.0957C51.9381 19.0046 52.144 18.8696 52.3177 18.6986C52.4915 18.5276 52.6298 18.324 52.7246 18.0994C52.8194 17.8748 52.8689 17.6337 52.8702 17.3899C52.8728 17.1461 52.8272 16.9041 52.7361 16.678C52.6449 16.4519 52.51 16.2461 52.339 16.0723C52.168 15.8985 51.9644 15.7602 51.7397 15.6654C51.5151 15.5706 51.274 15.5211 51.0302 15.5198C50.5386 15.5171 50.0659 15.7092 49.7155 16.054C49.3651 16.3988 49.1654 16.8683 49.1602 17.3598C49.1601 17.8506 49.353 18.3218 49.6973 18.6716C50.0415 19.0214 50.5094 19.222 51.0002 19.2298V19.2298Z" fill="#F2F2F3"/>
<path d="M71.83 86.6098C73.0009 86.6111 74.1606 86.3816 75.2427 85.9344C76.3249 85.4873 77.3083 84.8312 78.1367 84.0037C78.9651 83.1762 79.6223 82.1935 80.0707 81.1118C80.5191 80.0302 80.7499 78.8707 80.7499 77.6998C80.7473 75.3349 79.8067 73.0676 78.1344 71.3953C76.4621 69.7231 74.1949 68.7824 71.83 68.7798C69.466 68.7824 67.1997 69.7234 65.529 71.3959C63.8583 73.0685 62.9199 75.3358 62.9199 77.6998C62.9199 80.0629 63.8587 82.3292 65.5296 84.0001C67.2006 85.6711 69.4669 86.6098 71.83 86.6098Z" fill="url(#paint1_linear)"/>
<path d="M76.6799 73.1699L69.33 80.5399L67.1299 78.3299L65.6699 79.8099L69.34 83.4899L78.1599 74.64L76.6799 73.1699Z" fill="#FAF9F8"/>
<path opacity="0.15" fill-rule="evenodd" clip-rule="evenodd" d="M50.9995 76.6998C50.8162 76.6995 50.6351 76.6585 50.4695 76.5798C39.8195 71.2398 35.2695 64.5798 35.2695 54.5798V45.2598C35.2688 45.1059 35.2985 44.9533 35.3568 44.8109C35.4152 44.6685 35.501 44.539 35.6095 44.4298C35.7168 44.3216 35.8447 44.2359 35.9854 44.1775C36.1262 44.1191 36.2771 44.0893 36.4295 44.0898C43.1395 44.0898 47.6195 42.6998 50.1195 39.8298C50.2306 39.7082 50.3672 39.6126 50.5195 39.5498C50.6702 39.4814 50.8341 39.4473 50.9995 39.4498C51.1648 39.4492 51.3283 39.4832 51.4795 39.5498C51.6305 39.615 51.7666 39.7102 51.8795 39.8298C54.3795 42.6998 58.8795 44.0898 65.5595 44.0898C65.8669 44.091 66.1615 44.2132 66.3795 44.4298C66.5969 44.6523 66.722 44.9489 66.7295 45.2598V54.6098C66.7295 64.6798 62.1795 71.2698 51.5195 76.6098C51.3541 76.6748 51.1772 76.7054 50.9995 76.6998V76.6998Z" fill="#1F1D20"/>
<path fill-rule="evenodd" clip-rule="evenodd" d="M37.6396 45.3698V53.5398C37.6396 62.5398 41.5296 68.2998 51.0396 73.2098C60.5396 68.2998 64.4296 62.5698 64.4296 53.5398V45.3698C58.3096 45.2198 53.8996 43.8598 51.0396 41.2198C48.1796 43.8598 43.7596 45.2198 37.6396 45.3698ZM51.0396 75.6898C50.8562 75.6895 50.6752 75.6485 50.5096 75.5698C39.8596 70.2098 35.3096 63.5698 35.3096 53.5698V44.2498C35.3091 44.0974 35.3389 43.9464 35.3973 43.8057C35.4557 43.6649 35.5414 43.5372 35.6496 43.4298C35.7569 43.3216 35.8847 43.2359 36.0255 43.1775C36.1662 43.1191 36.3172 43.0893 36.4695 43.0898C43.1795 43.0898 47.6596 41.6898 50.1596 38.8198C50.2734 38.7013 50.4093 38.6062 50.5596 38.5398C50.7102 38.4714 50.8741 38.4373 51.0396 38.4398C51.2048 38.4392 51.3684 38.4732 51.5196 38.5398C51.6685 38.6086 51.8039 38.7035 51.9196 38.8198C54.4196 41.6898 58.9196 43.0898 65.5996 43.0898C65.7521 43.0882 65.9034 43.1175 66.0444 43.1759C66.1853 43.2343 66.3129 43.3207 66.4196 43.4298C66.6372 43.6481 66.7626 43.9417 66.7696 44.2498V53.5798C66.7696 63.6598 62.2196 70.2398 51.5596 75.5798C51.3876 75.6701 51.193 75.7083 50.9996 75.6898H51.0396Z" fill="#566770"/>
<path fill-rule="evenodd" clip-rule="evenodd" d="M50.9994 40.3799C48.0894 43.7199 42.9994 44.8298 37.1094 44.8298V53.7198C37.1094 62.8798 41.1694 68.7898 50.9994 73.7198C60.8294 68.7898 64.8894 62.8798 64.8894 53.7198V44.8298C59.0794 44.8298 53.9994 43.7199 50.9994 40.3799Z" fill="#243A5E"/>
<path fill-rule="evenodd" clip-rule="evenodd" d="M51 40.3799V73.7299C60.83 68.7899 64.89 62.8799 64.89 53.7299V44.8398C59.08 44.8298 54 43.7199 51 40.3799Z" fill="#0B2D4C"/>
<path opacity="0.15" d="M51.0001 64.2199C55.5301 64.2199 59.2101 62.3599 59.2101 60.0699C59.2101 57.7799 55.5301 55.9399 51.0001 55.9399C46.4701 55.9399 42.79 57.7899 42.79 60.0799C42.79 62.3699 46.4801 64.2199 51.0001 64.2199Z" fill="#1F1D20"/>
<path d="M59.3695 54.0599V59.9098C59.3695 61.1498 58.5495 61.5299 56.9695 62.4499C55.1451 63.3671 53.1315 63.8448 51.0895 63.8448C49.0476 63.8448 47.0339 63.3671 45.2095 62.4499C43.5895 61.4499 42.7695 61.0698 42.7695 59.8298V54.0599C42.7695 55.2999 43.5895 53.1399 45.2095 54.0599C47.0339 54.9771 49.0476 55.4548 51.0895 55.4548C53.1315 55.4548 55.1451 54.9771 56.9695 54.0599C58.5895 53.1599 59.3695 55.2699 59.3695 54.0599Z" fill="url(#paint2_linear)"/>
<path d="M51.1197 60.6099L36.4297 54.4799V54.0999L51.1197 48.3499L65.7797 54.0999V54.4799L51.1197 60.6099Z" fill="url(#paint3_linear)"/>
<path d="M51.1197 60.2498L36.4297 54.1198L51.1197 47.9897L65.7797 54.1198L51.1197 60.2498Z" fill="url(#paint4_linear)"/>
<path d="M41.0799 56.0599L39.3799 55.3599L48.3799 51.5999L50.1099 52.2599L41.0799 56.0599Z" fill="url(#paint5_linear)"/>
<path d="M41.0799 56.0599L39.3799 55.3899V59.4799L40.1999 59.1999L41.0799 60.1999V56.0599Z" fill="url(#paint6_linear)"/>
<path d="M42.5598 27.4197H31.3497C31.1163 27.4197 30.8925 27.5125 30.7275 27.6775C30.5624 27.8425 30.4697 28.0664 30.4697 28.2997C30.4697 28.5331 30.5624 28.757 30.7275 28.922C30.8925 29.087 31.1163 29.1797 31.3497 29.1797H42.5598C42.7931 29.1797 43.017 29.087 43.182 28.922C43.347 28.757 43.4398 28.5331 43.4398 28.2997C43.4411 28.1838 43.4192 28.0688 43.3755 27.9614C43.3317 27.8541 43.267 27.7565 43.185 27.6745C43.103 27.5925 43.0054 27.5278 42.8981 27.484C42.7907 27.4403 42.6757 27.4184 42.5598 27.4197V27.4197Z" fill="#74CFEB"/>
<path d="M42.5598 31.2498H31.3497C31.1163 31.2498 30.8925 31.3425 30.7275 31.5076C30.5624 31.6726 30.4697 31.8964 30.4697 32.1298C30.4697 32.3632 30.5624 32.587 30.7275 32.7521C30.8925 32.9171 31.1163 33.0098 31.3497 33.0098H42.5598C42.7931 33.0098 43.017 32.9171 43.182 32.7521C43.347 32.587 43.4398 32.3632 43.4398 32.1298C43.4411 32.0139 43.4192 31.8988 43.3755 31.7914C43.3317 31.6841 43.267 31.5866 43.185 31.5046C43.103 31.4226 43.0054 31.3578 42.8981 31.3141C42.7907 31.2703 42.6757 31.2485 42.5598 31.2498V31.2498Z" fill="#35AFE4"/>
<path fill-rule="evenodd" clip-rule="evenodd" d="M31.3498 35.3799H36.9498C37.1832 35.3799 37.407 35.4727 37.5721 35.6377C37.7371 35.8027 37.8298 36.0266 37.8298 36.2599C37.8298 36.4933 37.7371 36.7172 37.5721 36.8822C37.407 37.0472 37.1832 37.14 36.9498 37.14H31.3498C31.1164 37.14 30.8926 37.0472 30.7275 36.8822C30.5625 36.7172 30.4698 36.4933 30.4698 36.2599C30.4684 36.144 30.4903 36.0289 30.5341 35.9216C30.5778 35.8142 30.6426 35.7167 30.7245 35.6347C30.8065 35.5527 30.9041 35.4879 31.0115 35.4442C31.1188 35.4004 31.2339 35.3786 31.3498 35.3799Z" fill="#175A98"/>
<defs>
<linearGradient id="paint0_linear" x1="46.8099" y1="-67.5601" x2="54.3699" y2="149.01" gradientUnits="userSpaceOnUse">
<stop stop-color="#2E7BBF"/>
<stop offset="0.71" stop-color="#092D4C"/>
</linearGradient>
<linearGradient id="paint1_linear" x1="68.1999" y1="64.7198" x2="80.9599" y2="110.36" gradientUnits="userSpaceOnUse">
<stop stop-color="#51C2EB"/>
<stop offset="0.58" stop-color="#2E77BC"/>
</linearGradient>
<linearGradient id="paint2_linear" x1="-15017.9" y1="-1225.56" x2="-14741.7" y2="-1225.56" gradientUnits="userSpaceOnUse">
<stop stop-color="#51C2EB"/>
<stop offset="0.58" stop-color="#2E77BC"/>
</linearGradient>
<linearGradient id="paint3_linear" x1="38.1097" y1="52.3799" x2="60.9297" y2="56.0999" gradientUnits="userSpaceOnUse">
<stop offset="0.04" stop-color="white"/>
<stop offset="0.49" stop-color="#50C1EA"/>
<stop offset="0.85" stop-color="#2E77BC"/>
</linearGradient>
<linearGradient id="paint4_linear" x1="-29607.1" y1="-113610" x2="-29528.6" y2="-97824" gradientUnits="userSpaceOnUse">
<stop offset="0.04" stop-color="white"/>
<stop offset="0.49" stop-color="#50C1EA"/>
<stop offset="0.85" stop-color="#2E77BC"/>
</linearGradient>
<linearGradient id="paint5_linear" x1="32.4099" y1="3338.94" x2="33.0199" y2="3178.86" gradientUnits="userSpaceOnUse">
<stop stop-color="#2E7BBF"/>
<stop offset="0.71" stop-color="#0B2D4C"/>
</linearGradient>
<linearGradient id="paint6_linear" x1="-1658.93" y1="-16494.2" x2="-1600.13" y2="-15676.6" gradientUnits="userSpaceOnUse">
<stop stop-color="#2E7BBF"/>
<stop offset="0.71" stop-color="#0B2D4C"/>
</linearGradient>
</defs>
</svg>
