<svg width="100" height="100" viewBox="0 0 100 100" fill="none" xmlns="http://www.w3.org/2000/svg">
<g clip-path="url(#clip0_367_7833)">
<path d="M49.6401 96.4499C40.382 96.4499 31.3317 93.7045 23.6339 88.561C15.936 83.4174 9.93624 76.1067 6.3933 67.5533C2.85036 58.9999 1.92337 49.588 3.72954 40.5077C5.53571 31.4275 9.99394 23.0867 16.5404 16.5402C23.0869 9.99372 31.4277 5.5355 40.5079 3.72933C49.5882 1.92315 59.0001 2.85015 67.5535 6.39308C76.1069 9.93602 83.4176 15.9358 88.5612 23.6336C93.7047 31.3315 96.4501 40.3817 96.4501 49.6399C96.4505 55.7872 95.24 61.8744 92.8878 67.5538C90.5355 73.2332 87.0875 78.3937 82.7407 82.7405C78.3939 87.0873 73.2335 90.5353 67.554 92.8876C61.8746 95.2398 55.7874 96.4503 49.6401 96.4499V96.4499Z" fill="url(#paint0_linear_367_7833)"/>
<path fill-rule="evenodd" clip-rule="evenodd" d="M95.54 49.6399C95.54 58.718 92.848 67.5923 87.8045 75.1406C82.7609 82.6888 75.5923 88.5719 67.2052 92.046C58.818 95.52 49.5891 96.429 40.6854 94.6579C31.7816 92.8869 23.603 88.5153 17.1838 82.0961C10.7646 75.6769 6.39302 67.4983 4.62196 58.5945C2.85089 49.6908 3.75987 40.4618 7.23393 32.0747C10.708 23.6876 16.5911 16.519 24.1393 11.4754C31.6875 6.43187 40.5618 3.73988 49.64 3.73988C55.6677 3.73986 61.6363 4.92708 67.2052 7.23377C72.774 9.54045 77.834 12.9214 82.0963 17.1836C86.3585 21.4458 89.7394 26.5058 92.0461 32.0747C94.3528 37.6435 95.54 43.6122 95.54 49.6399V49.6399ZM49.64 -0.000106449C59.4579 -0.000106449 69.0552 2.91123 77.2185 8.36574C85.3818 13.8203 91.7442 21.573 95.5014 30.6435C99.2585 39.714 100.242 49.695 98.3262 59.3242C96.4108 68.9534 91.6831 77.7984 84.7408 84.7407C77.7985 91.683 68.9535 96.4107 59.3243 98.3261C49.6951 100.241 39.7141 99.2584 30.6436 95.5013C21.5731 91.7441 13.8204 85.3816 8.36584 77.2184C2.91133 69.0551 -1.61629e-06 59.4577 3.61524e-07 49.6399C-0.000786426 43.1208 1.28265 36.6655 3.77702 30.6425C6.27138 24.6196 9.92781 19.147 14.5375 14.5374C19.1471 9.9277 24.6197 6.27127 30.6427 3.77691C36.6656 1.28254 43.121 -0.000894549 49.64 -0.000106449V-0.000106449Z" fill="#F2F1F0"/>
<path fill-rule="evenodd" clip-rule="evenodd" d="M92.7296 49.64C92.7296 58.1624 90.2024 66.4934 85.4676 73.5795C80.7328 80.6656 74.0031 86.1886 66.1294 89.45C58.2557 92.7113 49.5918 93.5647 41.2331 91.902C32.8745 90.2394 25.1966 86.1355 19.1703 80.1092C13.1441 74.083 9.04017 66.4051 7.37753 58.0464C5.7149 49.6878 6.56822 41.0238 9.8296 33.1502C13.091 25.2765 18.6139 18.5468 25.7 13.812C32.7862 9.07718 41.1172 6.55 49.6396 6.55C55.2983 6.54965 60.9017 7.66397 66.1298 9.82933C71.3579 11.9947 76.1082 15.1687 80.1096 19.17C84.1109 23.1713 87.2849 27.9217 89.4502 33.1498C91.6156 38.3778 92.7299 43.9812 92.7296 49.64ZM49.6396 2.81C58.9017 2.81 67.9558 5.55653 75.6569 10.7023C83.3581 15.848 89.3604 23.1619 92.9049 31.7189C96.4493 40.276 97.3767 49.6919 95.5697 58.7761C93.7628 67.8602 89.3027 76.2045 82.7534 82.7538C76.2041 89.3031 67.8598 93.7632 58.7757 95.5702C49.6915 97.3771 40.2756 96.4497 31.7185 92.9053C23.1614 89.3608 15.8476 83.3585 10.7018 75.6574C5.5561 67.9562 2.80957 58.9021 2.80957 49.64C2.81076 37.2203 7.74501 25.3096 16.5271 16.5275C25.3091 7.74544 37.2198 2.81119 49.6396 2.81V2.81Z" fill="#0078D4"/>
<path fill-rule="evenodd" clip-rule="evenodd" d="M92.7296 49.6399C92.7296 58.1623 90.2024 66.4933 85.4676 73.5794C80.7328 80.6655 74.0031 86.1885 66.1294 89.4499C58.2557 92.7112 49.5918 93.5646 41.2331 91.9019C32.8745 90.2393 25.1966 86.1354 19.1703 80.1091C13.1441 74.0829 9.04017 66.405 7.37753 58.0463C5.7149 49.6877 6.56822 41.0237 9.8296 33.1501C13.091 25.2764 18.6139 18.5467 25.7001 13.8119C32.7862 9.07708 41.1172 6.5499 49.6396 6.5499C55.2983 6.54956 60.9017 7.66388 66.1298 9.82923C71.3579 11.9946 76.1082 15.1686 80.1096 19.1699C84.1109 23.1712 87.2849 27.9216 89.4502 33.1497C91.6156 38.3777 92.7299 43.9811 92.7296 49.6399V49.6399ZM49.6396 2.8099C58.9017 2.8099 67.9558 5.55643 75.6569 10.7022C83.3581 15.8479 89.3604 23.1618 92.9048 31.7188C96.4493 40.2759 97.3767 49.6918 95.5697 58.776C93.7628 67.8601 89.3027 76.2044 82.7534 82.7537C76.2041 89.303 67.8598 93.7631 58.7757 95.5701C49.6915 97.377 40.2756 96.4496 31.7185 92.9052C23.1614 89.3607 15.8476 83.3584 10.7018 75.6573C5.5561 67.9561 2.80957 58.902 2.80957 49.6399C2.81075 37.2202 7.74499 25.3095 16.5271 16.5274C25.3091 7.7453 37.2198 2.81105 49.6396 2.80986V2.8099Z" fill="#0078D4"/>
<path d="M67.2801 64.915L32 64.9157C31.3292 64.9182 30.6869 65.187 30.2143 65.6631C29.7417 66.1392 29.4776 66.7835 29.48 67.4543V73.8008C29.4776 74.4716 29.7417 75.1159 30.2143 75.592C30.6869 76.0681 31.3292 76.337 32 76.3395H67.2801C67.951 76.3368 68.5934 76.0678 69.0659 75.5916C69.5385 75.1154 69.8026 74.4711 69.8001 73.8002V67.4536C69.8026 66.7828 69.5385 66.1385 69.0659 65.6625C68.5933 65.1864 67.951 64.9175 67.2801 64.915Z" fill="url(#paint1_linear_367_7833)"/>
<path fill-rule="evenodd" clip-rule="evenodd" d="M38.6696 71.4925C38.4333 71.2535 38.3008 70.9311 38.3008 70.595C38.3008 70.259 38.4333 69.9366 38.6696 69.6976C38.7861 69.5799 38.9249 69.4865 39.0778 69.4227C39.2307 69.359 39.3947 69.3261 39.5604 69.3261C39.7261 69.3261 39.8901 69.359 40.043 69.4227C40.1959 69.4865 40.3347 69.5799 40.4513 69.6976C40.6877 69.9365 40.8203 70.259 40.8203 70.595C40.8203 70.9311 40.6877 71.2536 40.4513 71.4925C40.3347 71.6102 40.196 71.7037 40.0431 71.7675C39.8901 71.8314 39.7261 71.8642 39.5604 71.8642C39.3947 71.8642 39.2307 71.8314 39.0778 71.7675C38.9248 71.7037 38.7861 71.6102 38.6696 71.4925V71.4925Z" fill="#0078D4"/>
<path fill-rule="evenodd" clip-rule="evenodd" d="M34.8937 71.504C34.6576 71.265 34.5251 70.9425 34.5251 70.6065C34.5251 70.2706 34.6576 69.9481 34.8937 69.7091C35.0103 69.5914 35.1491 69.498 35.3021 69.4342C35.4551 69.3705 35.6191 69.3376 35.7848 69.3376C35.9505 69.3376 36.1146 69.3705 36.2676 69.4342C36.4205 69.498 36.5593 69.5914 36.676 69.7091C36.9121 69.9481 37.0445 70.2706 37.0445 70.6065C37.0445 70.9425 36.9121 71.265 36.676 71.504C36.5594 71.6217 36.4206 71.7152 36.2676 71.779C36.1147 71.8428 35.9506 71.8757 35.7848 71.8757C35.6191 71.8757 35.455 71.8428 35.3021 71.779C35.1491 71.7152 35.0103 71.6217 34.8937 71.504V71.504Z" fill="#0078D4"/>
<path fill-rule="evenodd" clip-rule="evenodd" d="M49.64 67.4541V73.8007C49.6407 73.9668 49.6086 74.1313 49.5456 74.285C49.4827 74.4387 49.39 74.5785 49.273 74.6964C49.156 74.8143 49.0169 74.9079 48.8637 74.972C48.7105 75.0362 48.5461 75.0694 48.38 75.07H29.8296C30.0474 75.4541 30.3629 75.7737 30.744 75.9966C31.1251 76.2195 31.5584 76.3377 32 76.3393H67.2801C67.951 76.3366 68.5933 76.0677 69.0659 75.5915C69.5384 75.1153 69.8025 74.471 69.8001 73.8001V67.4535C69.7978 67.0072 69.6774 66.5695 69.4511 66.1849H50.9C50.7339 66.1854 50.5695 66.2187 50.4163 66.2828C50.2631 66.3469 50.124 66.4406 50.007 66.5584C49.89 66.6763 49.7974 66.8161 49.7344 66.9698C49.6714 67.1235 49.6394 67.288 49.64 67.4541V67.4541Z" fill="url(#paint2_linear_367_7833)"/>
<path d="M67.2801 53.4911H32C31.3292 53.4936 30.6869 53.7625 30.2143 54.2386C29.7417 54.7147 29.4776 55.359 29.48 56.0298V62.3763C29.4776 63.0471 29.7417 63.6914 30.2143 64.1675C30.6869 64.6435 31.3292 64.9124 32 64.9149H67.2801C67.951 64.9122 68.5934 64.6432 69.0659 64.1671C69.5385 63.6909 69.8026 63.0465 69.8001 62.3756V56.0291C69.8013 55.697 69.7371 55.3679 69.6111 55.0606C69.4851 54.7533 69.2998 54.4739 69.0658 54.2382C68.8318 54.0025 68.5537 53.8152 68.2473 53.6871C67.9409 53.5589 67.6123 53.4923 67.2801 53.4911V53.4911Z" fill="url(#paint3_linear_367_7833)"/>
<path fill-rule="evenodd" clip-rule="evenodd" d="M38.6696 60.0682C38.4333 59.8292 38.3008 59.5068 38.3008 59.1708C38.3008 58.8348 38.4333 58.5123 38.6696 58.2734C38.7861 58.1557 38.9249 58.0622 39.0778 57.9985C39.2307 57.9347 39.3947 57.9019 39.5604 57.9019C39.7261 57.9019 39.8901 57.9347 40.043 57.9985C40.1959 58.0622 40.3347 58.1557 40.4513 58.2734C40.6877 58.5122 40.8203 58.8347 40.8203 59.1708C40.8203 59.5068 40.6877 59.8293 40.4513 60.0682C40.3347 60.1859 40.196 60.2794 40.0431 60.3433C39.8901 60.4071 39.7261 60.4399 39.5604 60.4399C39.3947 60.4399 39.2307 60.4071 39.0778 60.3433C38.9248 60.2794 38.7861 60.1859 38.6696 60.0682V60.0682Z" fill="#0078D4"/>
<path fill-rule="evenodd" clip-rule="evenodd" d="M34.8937 60.0797C34.6576 59.8407 34.5251 59.5182 34.5251 59.1823C34.5251 58.8463 34.6576 58.5239 34.8937 58.2849C35.0103 58.1671 35.1491 58.0737 35.3021 58.0099C35.455 57.9462 35.6191 57.9133 35.7848 57.9133C35.9506 57.9133 36.1146 57.9462 36.2676 58.0099C36.4205 58.0737 36.5593 58.1671 36.676 58.2849C36.9121 58.5239 37.0445 58.8463 37.0445 59.1823C37.0445 59.5182 36.9121 59.8407 36.676 60.0797C36.5594 60.1975 36.4206 60.2909 36.2676 60.3548C36.1147 60.4186 35.9506 60.4514 35.7848 60.4514C35.6191 60.4514 35.455 60.4186 35.3021 60.3548C35.1491 60.2909 35.0103 60.1975 34.8937 60.0797V60.0797Z" fill="#0078D4"/>
<path fill-rule="evenodd" clip-rule="evenodd" d="M49.64 56.0299V62.3764C49.6407 62.5425 49.6086 62.7071 49.5456 62.8608C49.4827 63.0145 49.39 63.1543 49.273 63.2722C49.156 63.39 49.0169 63.4837 48.8637 63.5478C48.7105 63.6119 48.5461 63.6452 48.38 63.6458H29.8296C30.0474 64.0298 30.3629 64.3495 30.744 64.5724C31.1252 64.7953 31.5584 64.9135 32 64.9151H67.2801C67.951 64.9124 68.5933 64.6434 69.0659 64.1672C69.5385 63.691 69.8026 63.0467 69.8001 62.3758V56.0292C69.7978 55.5829 69.6774 55.1452 69.4511 54.7606H50.9C50.7339 54.7611 50.5695 54.7944 50.4163 54.8585C50.2631 54.9226 50.124 55.0163 50.007 55.1342C49.89 55.252 49.7974 55.3918 49.7344 55.5455C49.6714 55.6992 49.6394 55.8638 49.64 56.0299V56.0299Z" fill="url(#paint4_linear_367_7833)"/>
<path d="M67.2801 42.0672H32C31.3292 42.0697 30.6868 42.3386 30.2143 42.8147C29.7417 43.2908 29.4776 43.9351 29.48 44.6059V50.9524C29.4776 51.6232 29.7417 52.2675 30.2143 52.7436C30.6869 53.2197 31.3292 53.4885 32 53.4911H67.2801C67.951 53.4884 68.5934 53.2194 69.0659 52.7432C69.5385 52.267 69.8026 51.6226 69.8001 50.9518V44.6052C69.8013 44.2731 69.7371 43.944 69.6111 43.6367C69.4851 43.3294 69.2998 43.05 69.0658 42.8143C68.8318 42.5786 68.5537 42.3913 68.2473 42.2632C67.9409 42.135 67.6123 42.0684 67.2801 42.0672V42.0672Z" fill="url(#paint5_linear_367_7833)"/>
<path fill-rule="evenodd" clip-rule="evenodd" d="M38.6696 48.6443C38.4333 48.4053 38.3008 48.0829 38.3008 47.7469C38.3008 47.4109 38.4333 47.0884 38.6696 46.8495C38.7861 46.7318 38.9249 46.6383 39.0778 46.5746C39.2307 46.5108 39.3947 46.478 39.5604 46.478C39.7261 46.478 39.8901 46.5108 40.043 46.5746C40.1959 46.6383 40.3347 46.7318 40.4513 46.8495C40.6877 47.0883 40.8203 47.4108 40.8203 47.7469C40.8203 48.0829 40.6877 48.4054 40.4513 48.6443C40.3347 48.762 40.196 48.8556 40.0431 48.9194C39.8901 48.9832 39.7261 49.016 39.5604 49.016C39.3947 49.016 39.2307 48.9832 39.0778 48.9194C38.9248 48.8556 38.7861 48.762 38.6696 48.6443V48.6443Z" fill="#0078D4"/>
<path fill-rule="evenodd" clip-rule="evenodd" d="M34.8937 48.6557C34.6576 48.4167 34.5251 48.0943 34.5251 47.7583C34.5251 47.4224 34.6576 47.0999 34.8937 46.8609C35.0103 46.7432 35.1491 46.6498 35.3021 46.586C35.4551 46.5223 35.6191 46.4894 35.7848 46.4894C35.9505 46.4894 36.1146 46.5223 36.2676 46.586C36.4205 46.6498 36.5593 46.7432 36.676 46.8609C36.9121 47.0999 37.0445 47.4224 37.0445 47.7583C37.0445 48.0943 36.9121 48.4167 36.676 48.6557C36.5594 48.7735 36.4206 48.867 36.2676 48.9308C36.1147 48.9946 35.9506 49.0275 35.7848 49.0275C35.6191 49.0275 35.455 48.9946 35.3021 48.9308C35.1491 48.867 35.0103 48.7735 34.8937 48.6557V48.6557Z" fill="#0078D4"/>
<path fill-rule="evenodd" clip-rule="evenodd" d="M49.64 44.6059V50.9525C49.6407 51.1186 49.6086 51.2832 49.5456 51.4369C49.4826 51.5905 49.39 51.7303 49.273 51.8482C49.156 51.9661 49.0169 52.0597 48.8637 52.1238C48.7105 52.1879 48.5461 52.2212 48.38 52.2218H29.8296C30.0474 52.6058 30.3629 52.9255 30.744 53.1484C31.1251 53.3713 31.5584 53.4896 32 53.4911H67.2801C67.951 53.4885 68.5933 53.2195 69.0659 52.7433C69.5385 52.2671 69.8025 51.6228 69.8001 50.9519V44.6053C69.7978 44.159 69.6774 43.7213 69.4511 43.3366H50.9C50.7339 43.3372 50.5695 43.3705 50.4163 43.4346C50.2631 43.4987 50.124 43.5924 50.007 43.7103C49.89 43.8281 49.7974 43.9679 49.7344 44.1216C49.6714 44.2753 49.6394 44.4399 49.64 44.6059V44.6059Z" fill="url(#paint6_linear_367_7833)"/>
<path d="M67.2801 30.6434H32C31.3292 30.6459 30.6869 30.9148 30.2143 31.3909C29.7417 31.867 29.4776 32.5113 29.48 33.1821V39.5286C29.4776 40.1994 29.7417 40.8437 30.2143 41.3198C30.6869 41.7959 31.3292 42.0647 32 42.0673H67.2801C67.951 42.0646 68.5934 41.7956 69.0659 41.3194C69.5385 40.8432 69.8026 40.1988 69.8001 39.528V33.1814C69.8013 32.8493 69.7371 32.5202 69.6111 32.2129C69.4851 31.9056 69.2998 31.6262 69.0658 31.3905C68.8318 31.1548 68.5537 30.9675 68.2473 30.8394C67.9409 30.7112 67.6123 30.6446 67.2801 30.6434V30.6434Z" fill="url(#paint7_linear_367_7833)"/>
<path fill-rule="evenodd" clip-rule="evenodd" d="M38.6696 37.2204C38.4333 36.9814 38.3008 36.659 38.3008 36.323C38.3008 35.987 38.4333 35.6645 38.6696 35.4256C38.7861 35.3079 38.9249 35.2144 39.0778 35.1507C39.2307 35.0869 39.3947 35.0541 39.5604 35.0541C39.7261 35.0541 39.8901 35.0869 40.043 35.1507C40.1959 35.2144 40.3347 35.3079 40.4513 35.4256C40.6877 35.6644 40.8203 35.9869 40.8203 36.323C40.8203 36.659 40.6877 36.9815 40.4513 37.2204C40.3347 37.3381 40.196 37.4316 40.0431 37.4955C39.8901 37.5593 39.7261 37.5921 39.5604 37.5921C39.3947 37.5921 39.2307 37.5593 39.0778 37.4955C38.9248 37.4316 38.7861 37.3381 38.6696 37.2204V37.2204Z" fill="#0078D4"/>
<path fill-rule="evenodd" clip-rule="evenodd" d="M34.8937 37.2319C34.6576 36.9929 34.5251 36.6705 34.5251 36.3345C34.5251 35.9985 34.6576 35.6761 34.8937 35.4371C35.0103 35.3194 35.1491 35.2259 35.3021 35.1622C35.4551 35.0984 35.6191 35.0656 35.7848 35.0656C35.9505 35.0656 36.1146 35.0984 36.2676 35.1622C36.4205 35.2259 36.5593 35.3194 36.676 35.4371C36.9121 35.6761 37.0445 35.9985 37.0445 36.3345C37.0445 36.6705 36.9121 36.9929 36.676 37.2319C36.5594 37.3497 36.4206 37.4432 36.2676 37.507C36.1147 37.5708 35.9506 37.6036 35.7848 37.6036C35.6191 37.6036 35.455 37.5708 35.3021 37.507C35.1491 37.4432 35.0103 37.3497 34.8937 37.2319Z" fill="#0078D4"/>
<path fill-rule="evenodd" clip-rule="evenodd" d="M49.64 33.1822V39.5287C49.6407 39.6948 49.6086 39.8594 49.5456 40.0131C49.4826 40.1668 49.39 40.3065 49.273 40.4244C49.156 40.5423 49.0169 40.6359 48.8637 40.7C48.7105 40.7641 48.5461 40.7974 48.38 40.798H29.8296C30.0474 41.182 30.3629 41.5017 30.744 41.7246C31.1251 41.9475 31.5584 42.0658 32 42.0673H67.2801C67.951 42.0647 68.5933 41.7957 69.0659 41.3195C69.5385 40.8433 69.8026 40.1989 69.8001 39.5281V33.1815C69.7978 32.7352 69.6774 32.2975 69.4511 31.9128H50.9C50.7339 31.9134 50.5695 31.9467 50.4163 32.0108C50.2631 32.0749 50.124 32.1686 50.007 32.2865C49.89 32.4043 49.7974 32.5441 49.7344 32.6978C49.6714 32.8515 49.6394 33.0161 49.64 33.1822V33.1822Z" fill="url(#paint8_linear_367_7833)"/>
<path fill-rule="evenodd" clip-rule="evenodd" d="M64.7603 69.3582H57.2004C56.8653 69.3606 56.5449 69.4955 56.3089 69.7333C56.0729 69.971 55.9404 70.2925 55.9404 70.6275C55.9404 70.9625 56.0729 71.2839 56.3089 71.5217C56.5449 71.7595 56.8653 71.8943 57.2004 71.8968H64.7603C65.0954 71.8943 65.4158 71.7595 65.6518 71.5217C65.8878 71.2839 66.0203 70.9625 66.0203 70.6275C66.0203 70.2925 65.8878 69.971 65.6518 69.7333C65.4158 69.4955 65.0954 69.3606 64.7603 69.3582V69.3582Z" fill="#9CEBFF"/>
<path fill-rule="evenodd" clip-rule="evenodd" d="M64.7603 57.9339H57.2004C56.8653 57.9364 56.5449 58.0712 56.3089 58.309C56.0729 58.5468 55.9404 58.8682 55.9404 59.2032C55.9404 59.5382 56.0729 59.8597 56.3089 60.0974C56.5449 60.3352 56.8653 60.47 57.2004 60.4725H64.7603C65.0954 60.47 65.4158 60.3352 65.6518 60.0974C65.8878 59.8597 66.0203 59.5382 66.0203 59.2032C66.0203 58.8682 65.8878 58.5468 65.6518 58.309C65.4158 58.0712 65.0954 57.9364 64.7603 57.9339V57.9339Z" fill="#9CEBFF"/>
<path fill-rule="evenodd" clip-rule="evenodd" d="M64.7606 46.51H57.2006C56.8654 46.5123 56.5448 46.647 56.3086 46.8848C56.0725 47.1226 55.9399 47.4442 55.9399 47.7793C55.9399 48.1144 56.0725 48.436 56.3086 48.6738C56.5448 48.9115 56.8654 49.0463 57.2006 49.0486H64.7606C65.0957 49.0463 65.4163 48.9115 65.6525 48.6738C65.8886 48.436 66.0212 48.1144 66.0212 47.7793C66.0212 47.4442 65.8886 47.1226 65.6525 46.8848C65.4163 46.647 65.0957 46.5123 64.7606 46.51V46.51Z" fill="#9CEBFF"/>
<path fill-rule="evenodd" clip-rule="evenodd" d="M64.7606 35.0861H57.2006C56.8654 35.0884 56.5448 35.2231 56.3086 35.4609C56.0725 35.6987 55.9399 36.0203 55.9399 36.3554C55.9399 36.6905 56.0725 37.0121 56.3086 37.2499C56.5448 37.4877 56.8654 37.6224 57.2006 37.6247H64.7606C65.0957 37.6224 65.4163 37.4877 65.6525 37.2499C65.8886 37.0121 66.0212 36.6905 66.0212 36.3554C66.0212 36.0203 65.8886 35.6987 65.6525 35.4609C65.4163 35.2231 65.0957 35.0884 64.7606 35.0861Z" fill="#9CEBFF"/>
<path fill-rule="evenodd" clip-rule="evenodd" d="M39.9826 71.0208C39.7881 71.2166 39.5341 71.3425 39.2605 71.3787C38.9868 71.415 38.7088 71.3597 38.47 71.2213C38.5629 71.3923 38.6947 71.5391 38.8549 71.6497C39.015 71.7603 39.1989 71.8317 39.3918 71.8581C39.5846 71.8845 39.781 71.8651 39.9649 71.8016C40.1489 71.738 40.3153 71.6321 40.4508 71.4923C40.6872 71.2534 40.8198 70.931 40.8198 70.5949C40.8198 70.2588 40.6872 69.9363 40.4508 69.6975C40.3705 69.6189 40.28 69.5515 40.1818 69.4969C40.319 69.738 40.3739 70.0172 40.3379 70.2923C40.302 70.5673 40.1772 70.8231 39.9826 71.0208V71.0208Z" fill="#003067"/>
<path fill-rule="evenodd" clip-rule="evenodd" d="M36.2075 71.0324C36.0129 71.2283 35.759 71.3542 35.4853 71.3904C35.2117 71.4267 34.9337 71.3713 34.6948 71.233C34.7878 71.404 34.9197 71.5508 35.0798 71.6615C35.24 71.7722 35.424 71.8436 35.6169 71.87C35.8098 71.8963 36.0062 71.877 36.1902 71.8134C36.3742 71.7498 36.5407 71.6438 36.6762 71.504C36.8161 71.3672 36.9221 71.1997 36.9858 71.0147C37.0494 70.8297 37.0689 70.6324 37.0427 70.4385C37.0165 70.2447 36.9453 70.0596 36.8349 69.8981C36.7244 69.7367 36.5777 69.6033 36.4065 69.5086C36.5441 69.7495 36.5991 70.0289 36.5632 70.304C36.5273 70.5791 36.4023 70.8349 36.2075 71.0324V71.0324Z" fill="#003067"/>
<path fill-rule="evenodd" clip-rule="evenodd" d="M39.9826 59.5965C39.788 59.7921 39.534 59.9179 39.2604 59.9542C38.9868 59.9905 38.7089 59.9352 38.47 59.797C38.5629 59.9681 38.6947 60.1148 38.8549 60.2254C39.015 60.3361 39.1989 60.4075 39.3918 60.4338C39.5846 60.4602 39.781 60.4409 39.9649 60.3773C40.1489 60.3138 40.3153 60.2078 40.4508 60.068C40.6872 59.8292 40.8198 59.5067 40.8198 59.1706C40.8198 58.8345 40.6872 58.5121 40.4508 58.2732C40.3706 58.1944 40.2801 58.127 40.1818 58.0727C40.319 58.3137 40.3739 58.5929 40.3379 58.868C40.302 59.143 40.1772 59.3988 39.9826 59.5965V59.5965Z" fill="#003067"/>
<path fill-rule="evenodd" clip-rule="evenodd" d="M36.2075 59.6081C36.0129 59.804 35.759 59.9299 35.4853 59.9662C35.2117 60.0024 34.9337 59.9471 34.6948 59.8087C34.7878 59.9798 34.9197 60.1266 35.0798 60.2372C35.24 60.3479 35.424 60.4193 35.6169 60.4457C35.8098 60.4721 36.0062 60.4527 36.1902 60.3891C36.3742 60.3255 36.5407 60.2195 36.6762 60.0797C36.8161 59.943 36.9221 59.7754 36.9858 59.5904C37.0494 59.4054 37.0689 59.2081 37.0427 59.0143C37.0165 58.8204 36.9453 58.6353 36.8349 58.4739C36.7244 58.3124 36.5777 58.179 36.4065 58.0843C36.5441 58.3253 36.5991 58.6046 36.5632 58.8797C36.5272 59.1548 36.4023 59.4106 36.2075 59.6081Z" fill="#003067"/>
<path fill-rule="evenodd" clip-rule="evenodd" d="M39.9826 48.1725C39.788 48.3682 39.534 48.494 39.2604 48.5303C38.9868 48.5666 38.7089 48.5113 38.47 48.3731C38.5629 48.5441 38.6947 48.6909 38.8549 48.8015C39.015 48.9122 39.1989 48.9836 39.3918 49.0099C39.5846 49.0363 39.781 49.0169 39.9649 48.9534C40.1489 48.8898 40.3153 48.7839 40.4508 48.6441C40.6872 48.4053 40.8198 48.0828 40.8198 47.7467C40.8198 47.4106 40.6872 47.0882 40.4508 46.8493C40.3706 46.7705 40.2801 46.7031 40.1818 46.6488C40.319 46.8898 40.3739 47.169 40.3379 47.4441C40.302 47.7191 40.1772 47.9749 39.9826 48.1725V48.1725Z" fill="#003067"/>
<path fill-rule="evenodd" clip-rule="evenodd" d="M36.2075 48.1842C36.0129 48.38 35.759 48.5059 35.4853 48.5422C35.2117 48.5785 34.9337 48.5231 34.6948 48.3847C34.7878 48.5558 34.9197 48.7026 35.0799 48.8133C35.24 48.9239 35.424 48.9953 35.6169 49.0217C35.8098 49.0481 36.0062 49.0287 36.1902 48.9652C36.3743 48.9016 36.5407 48.7956 36.6762 48.6557C36.8161 48.519 36.9221 48.3515 36.9858 48.1665C37.0494 47.9815 37.0689 47.7842 37.0427 47.5903C37.0165 47.3964 36.9453 47.2114 36.8349 47.0499C36.7244 46.8885 36.5777 46.7551 36.4065 46.6604C36.5441 46.9013 36.5991 47.1806 36.5632 47.4558C36.5272 47.7309 36.4023 47.9867 36.2075 48.1842Z" fill="#003067"/>
<path fill-rule="evenodd" clip-rule="evenodd" d="M39.9826 36.7486C39.788 36.9443 39.534 37.0701 39.2604 37.1064C38.9868 37.1427 38.7089 37.0874 38.47 36.9492C38.5629 37.1202 38.6947 37.267 38.8549 37.3776C39.015 37.4883 39.1989 37.5597 39.3918 37.586C39.5846 37.6124 39.781 37.5931 39.9649 37.5295C40.1489 37.4659 40.3153 37.36 40.4508 37.2202C40.6872 36.9813 40.8198 36.6589 40.8198 36.3228C40.8198 35.9867 40.6872 35.6642 40.4508 35.4254C40.3706 35.3466 40.2801 35.2791 40.1818 35.2248C40.319 35.4659 40.3739 35.7451 40.3379 36.0202C40.302 36.2952 40.1772 36.551 39.9826 36.7486Z" fill="#003067"/>
<path fill-rule="evenodd" clip-rule="evenodd" d="M36.2075 36.7603C36.0129 36.9561 35.759 37.082 35.4853 37.1183C35.2117 37.1546 34.9337 37.0992 34.6948 36.9608C34.7878 37.1319 34.9197 37.2787 35.0799 37.3894C35.24 37.5 35.424 37.5714 35.6169 37.5978C35.8098 37.6242 36.0062 37.6048 36.1902 37.5412C36.3743 37.4777 36.5407 37.3717 36.6762 37.2318C36.8161 37.0951 36.9221 36.9276 36.9858 36.7426C37.0494 36.5576 37.0689 36.3603 37.0427 36.1664C37.0165 35.9725 36.9453 35.7875 36.8349 35.626C36.7244 35.4646 36.5777 35.3312 36.4065 35.2365C36.5441 35.4774 36.5991 35.7567 36.5632 36.0319C36.5272 36.307 36.4023 36.5628 36.2075 36.7603V36.7603Z" fill="#003067"/>
<path fill-rule="evenodd" clip-rule="evenodd" d="M57.2005 69.9928H64.7605C65.04 69.9941 65.3111 70.0884 65.5311 70.2607C65.7512 70.4331 65.9076 70.6738 65.9757 70.9448C66.0271 70.7582 66.0345 70.5622 65.9974 70.3722C65.9603 70.1822 65.8798 70.0034 65.7621 69.8498C65.6444 69.6961 65.4927 69.5717 65.319 69.4865C65.1452 69.4012 64.954 69.3573 64.7605 69.3582H57.2005C57.0069 69.3573 56.8158 69.4013 56.6421 69.4866C56.4683 69.5719 56.3167 69.6962 56.199 69.8499C56.0813 70.0035 56.0008 70.1823 55.9637 70.3723C55.9266 70.5622 55.934 70.7582 55.9852 70.9448C56.0534 70.6738 56.2098 70.4331 56.4298 70.2607C56.6499 70.0884 56.921 69.9941 57.2005 69.9928V69.9928Z" fill="#50E6FF"/>
<path fill-rule="evenodd" clip-rule="evenodd" d="M57.2004 58.5686H64.7604C65.0399 58.5698 65.3111 58.6641 65.5311 58.8365C65.7511 59.0088 65.9075 59.2495 65.9757 59.5206C66.027 59.3339 66.0344 59.1379 65.9974 58.9479C65.9603 58.758 65.8798 58.5791 65.7621 58.4255C65.6444 58.2718 65.4927 58.1475 65.3189 58.0622C65.1452 57.9769 64.954 57.933 64.7605 57.9339H57.2005C57.0069 57.933 56.8158 57.977 56.6421 58.0623C56.4683 58.1476 56.3167 58.2719 56.199 58.4256C56.0813 58.5792 56.0008 58.758 55.9637 58.948C55.9266 59.1379 55.934 59.3339 55.9852 59.5206C56.0534 59.2495 56.2098 59.0088 56.4298 58.8365C56.6498 58.6641 56.921 58.5699 57.2004 58.5686V58.5686Z" fill="#50E6FF"/>
<path fill-rule="evenodd" clip-rule="evenodd" d="M57.2005 47.1446H64.7605C65.04 47.1459 65.3111 47.2402 65.5311 47.4125C65.7512 47.5849 65.9076 47.8256 65.9757 48.0966C66.0271 47.91 66.0345 47.714 65.9974 47.524C65.9603 47.334 65.8798 47.1552 65.7621 47.0015C65.6444 46.8479 65.4927 46.7235 65.319 46.6383C65.1452 46.553 64.954 46.5091 64.7605 46.51H57.2005C57.0069 46.5091 56.8158 46.5531 56.6421 46.6384C56.4683 46.7237 56.3167 46.848 56.199 47.0017C56.0813 47.1553 56.0008 47.3341 55.9637 47.5241C55.9266 47.714 55.934 47.91 55.9852 48.0966C56.0534 47.8256 56.2098 47.5849 56.4298 47.4125C56.6499 47.2402 56.921 47.1459 57.2005 47.1446V47.1446Z" fill="#50E6FF"/>
<path fill-rule="evenodd" clip-rule="evenodd" d="M57.2005 35.7207H64.7605C65.04 35.722 65.3111 35.8163 65.5311 35.9886C65.7512 36.161 65.9076 36.4017 65.9757 36.6727C66.0271 36.4861 66.0345 36.2901 65.9974 36.1001C65.9603 35.9101 65.8798 35.7313 65.7621 35.5776C65.6444 35.424 65.4927 35.2996 65.319 35.2144C65.1452 35.1291 64.954 35.0852 64.7605 35.0861H57.2005C57.0069 35.0852 56.8158 35.1292 56.6421 35.2145C56.4683 35.2998 56.3167 35.4241 56.199 35.5777C56.0813 35.7314 56.0008 35.9102 55.9637 36.1002C55.9266 36.2901 55.934 36.4861 55.9852 36.6727C56.0534 36.4017 56.2098 36.161 56.4298 35.9886C56.6499 35.8163 56.921 35.722 57.2005 35.7207V35.7207Z" fill="#50E6FF"/>
<path opacity="0.2" d="M67.5058 30.6434H31.7733C31.7666 30.8427 31.7476 31.0391 31.7476 31.2397C31.7455 33.2794 32.0954 35.3042 32.782 37.225C32.3139 38.126 32.0858 39.1323 32.1197 40.1471C32.1535 41.1618 32.4482 42.1507 32.9752 43.0185C33.5023 43.8863 34.244 44.6037 35.1289 45.1015C36.0137 45.5994 37.0119 45.8609 38.0272 45.8609C38.4127 45.861 38.7971 45.8221 39.1748 45.7449C42.2198 47.947 45.8818 49.1323 49.6396 49.1322C53.3974 49.1321 57.0594 47.9466 60.1043 45.7444C60.4823 45.8221 60.8671 45.8611 61.253 45.861C62.2687 45.8625 63.2677 45.602 64.1533 45.1046C65.0389 44.6072 65.7812 43.8896 66.3084 43.0214C66.8356 42.1532 67.1298 41.1636 67.1627 40.1484C67.1955 39.1332 66.9659 38.1267 66.4959 37.2262C67.1833 35.3052 67.5336 33.2799 67.5315 31.2397C67.5315 31.0391 67.5125 30.8426 67.5058 30.6434Z" fill="#003067"/>
<path d="M49.6394 46.7912C58.2281 46.7912 65.1907 39.8286 65.1907 31.2399C65.1907 22.6511 58.2281 15.6886 49.6394 15.6886C41.0507 15.6886 34.0881 22.6511 34.0881 31.2399C34.0881 39.8286 41.0507 46.7912 49.6394 46.7912Z" fill="url(#paint9_linear_367_7833)"/>
<path d="M49.2918 41.7434C47.5116 40.6457 41.6973 36.7176 41.6973 32.129V26.2616L42.3211 26.2232C43.8606 26.229 45.3636 25.7545 46.6206 24.8657C47.4878 24.2167 48.5586 23.8994 49.6394 23.971C50.7179 23.9042 51.7855 24.2197 52.6545 24.862C53.9123 25.7524 55.4166 26.2282 56.9576 26.2232L57.5796 26.2616V32.129C57.5796 36.7175 51.7653 40.6474 49.9833 41.7433L49.6393 41.9556L49.2918 41.7434Z" fill="url(#paint10_linear_367_7833)"/>
<path d="M49.6393 40.9677C46.1888 38.8252 42.5388 35.4003 42.5388 32.129V27.052C44.1696 27.024 45.7542 26.5064 47.0871 25.5664C47.8153 25.008 48.7246 24.7395 49.6393 24.8126C50.5524 24.7473 51.4582 25.0144 52.1898 25.5646C53.5234 26.5045 55.1085 27.0227 56.7399 27.052V32.129C56.7399 35.4003 53.0899 38.8252 49.6393 40.9677Z" fill="#50E6FF"/>
<path d="M61.2478 42.3251C62.5634 42.3251 63.6299 41.2586 63.6299 39.943C63.6299 38.6274 62.5634 37.5609 61.2478 37.5609C59.9322 37.5609 58.8657 38.6274 58.8657 39.943C58.8657 41.2586 59.9322 42.3251 61.2478 42.3251Z" fill="white"/>
<path d="M61.248 37.5609C61.7184 37.5609 62.1783 37.7004 62.5694 37.9617C62.9605 38.2231 63.2654 38.5945 63.4454 39.0291C63.6254 39.4637 63.6725 39.942 63.5807 40.4033C63.489 40.8647 63.2624 41.2885 62.9298 41.6211C62.5972 41.9538 62.1734 42.1803 61.712 42.272C61.2507 42.3638 60.7724 42.3167 60.3378 42.1367C59.9032 41.9567 59.5318 41.6518 59.2704 41.2607C59.0091 40.8696 58.8696 40.4097 58.8696 39.9393C58.8696 39.627 58.9311 39.3177 59.0506 39.0291C59.1701 38.7406 59.3453 38.4784 59.5662 38.2575C59.7871 38.0367 60.0493 37.8615 60.3378 37.7419C60.6264 37.6224 60.9357 37.5609 61.248 37.5609V37.5609ZM61.248 36.3699C60.5409 36.3702 59.8498 36.5803 59.2621 36.9734C58.6744 37.3665 58.2165 37.9251 57.9462 38.5785C57.676 39.2319 57.6056 39.9507 57.7439 40.6441C57.8822 41.3375 58.223 41.9744 58.7232 42.4741C59.2234 42.9738 59.8606 43.314 60.5542 43.4516C61.2477 43.5891 61.9665 43.518 62.6196 43.247C63.2727 42.9761 63.8308 42.5176 64.2233 41.9295C64.6159 41.3414 64.8252 40.6501 64.8248 39.943V39.943C64.8233 38.9958 64.4464 38.0878 63.7767 37.418C63.1069 36.7483 62.1989 36.3713 61.2517 36.3699H61.248Z" fill="#B3B3B3"/>
<path d="M38.0308 42.3251C39.3464 42.3251 40.4129 41.2586 40.4129 39.943C40.4129 38.6274 39.3464 37.5609 38.0308 37.5609C36.7152 37.5609 35.6487 38.6274 35.6487 39.943C35.6487 41.2586 36.7152 42.3251 38.0308 42.3251Z" fill="white"/>
<path d="M38.0307 37.5609C38.5011 37.5609 38.961 37.7004 39.3521 37.9617C39.7432 38.2231 40.0481 38.5945 40.2281 39.0291C40.4081 39.4637 40.4552 39.942 40.3635 40.4033C40.2717 40.8647 40.0452 41.2885 39.7125 41.6211C39.3799 41.9538 38.9561 42.1803 38.4947 42.272C38.0334 42.3638 37.5551 42.3167 37.1205 42.1367C36.6859 41.9567 36.3145 41.6518 36.0531 41.2607C35.7918 40.8696 35.6523 40.4097 35.6523 39.9393C35.6523 39.627 35.7138 39.3177 35.8333 39.0291C35.9529 38.7406 36.1281 38.4784 36.3489 38.2575C36.5698 38.0367 36.832 37.8615 37.1205 37.7419C37.4091 37.6224 37.7184 37.5609 38.0307 37.5609V37.5609ZM38.0307 36.3699C37.3237 36.3695 36.6324 36.5788 36.0442 36.9714C35.4561 37.3639 34.9976 37.922 34.7267 38.5751C34.4558 39.2282 34.3846 39.947 34.5222 40.6405C34.6598 41.3341 34.9999 41.9713 35.4997 42.4715C35.9994 42.9717 36.6362 43.3125 37.3296 43.4508C38.023 43.5891 38.7419 43.5187 39.3953 43.2485C40.0487 42.9782 40.6072 42.5203 41.0004 41.9325C41.3935 41.3448 41.6035 40.6538 41.6039 39.9467V39.943C41.6029 38.9956 41.2261 38.0874 40.5562 37.4175C39.8864 36.7476 38.9781 36.3709 38.0307 36.3699Z" fill="#B3B3B3"/>
<path d="M49.6394 20.4528C50.955 20.4528 52.0215 19.3863 52.0215 18.0707C52.0215 16.7551 50.955 15.6886 49.6394 15.6886C48.3238 15.6886 47.2573 16.7551 47.2573 18.0707C47.2573 19.3863 48.3238 20.4528 49.6394 20.4528Z" fill="white"/>
<path d="M49.6394 15.6886C50.1098 15.6886 50.5696 15.8281 50.9608 16.0894C51.3519 16.3508 51.6567 16.7222 51.8368 17.1568C52.0168 17.5914 52.0639 18.0697 51.9721 18.531C51.8803 18.9924 51.6538 19.4162 51.3212 19.7488C50.9885 20.0815 50.5647 20.308 50.1034 20.3998C49.642 20.4915 49.1638 20.4444 48.7292 20.2644C48.2946 20.0844 47.9231 19.7795 47.6618 19.3884C47.4004 18.9973 47.2609 18.5374 47.2609 18.067C47.2609 17.4362 47.5115 16.8312 47.9576 16.3852C48.4036 15.9391 49.0086 15.6886 49.6394 15.6886V15.6886ZM49.6394 14.4957C48.9323 14.4953 48.241 14.7046 47.6529 15.0971C47.0648 15.4897 46.6063 16.0478 46.3353 16.7009C46.0644 17.354 45.9933 18.0728 46.1308 18.7663C46.2684 19.4599 46.6086 20.0971 47.1083 20.5973C47.608 21.0975 48.2449 21.4383 48.9383 21.5766C49.6317 21.7149 50.3505 21.6445 51.0039 21.3742C51.6573 21.104 52.2159 20.6461 52.609 20.0583C53.0021 19.4706 53.2121 18.7796 53.2125 18.0725V18.0707C53.2115 17.1231 52.8348 16.2147 52.165 15.5445C51.4952 14.8743 50.5869 14.4972 49.6394 14.4957V14.4957Z" fill="#B3B3B3"/>
<path opacity="0.2" d="M63.5582 69.5085H35.7188C35.0198 69.5085 34.4531 70.0751 34.4531 70.7741V80.0633C34.4531 80.7623 35.0198 81.3289 35.7188 81.3289H63.5582C64.2572 81.3289 64.8239 80.7623 64.8239 80.0633V70.7741C64.8239 70.0751 64.2572 69.5085 63.5582 69.5085Z" fill="#003067"/>
<path d="M63.5582 68.7207H35.7188C35.0198 68.7207 34.4531 69.2874 34.4531 69.9864V79.2756C34.4531 79.9746 35.0198 80.5412 35.7188 80.5412H63.5582C64.2572 80.5412 64.8239 79.9746 64.8239 79.2756V69.9864C64.8239 69.2874 64.2572 68.7207 63.5582 68.7207Z" fill="url(#paint11_linear_367_7833)"/>
<path fill-rule="evenodd" clip-rule="evenodd" d="M41.1794 77.9194C40.5452 77.9194 39.9252 77.7313 39.3979 77.379C38.8707 77.0267 38.4597 76.5259 38.217 75.94C37.9743 75.3541 37.9108 74.7094 38.0345 74.0874C38.1582 73.4654 38.4636 72.8941 38.912 72.4457C39.3605 71.9972 39.9318 71.6918 40.5538 71.5681C41.1758 71.4444 41.8205 71.5079 42.4064 71.7506C42.9923 71.9933 43.4931 72.4043 43.8454 72.9316C44.1977 73.4589 44.3858 74.0788 44.3857 74.713C44.3857 75.5634 44.0479 76.3789 43.4466 76.9802C42.8453 77.5815 42.0297 77.9193 41.1794 77.9194V77.9194Z" fill="#0078D4"/>
<path fill-rule="evenodd" clip-rule="evenodd" d="M42.6524 73.8236C42.5771 73.7484 42.4751 73.7061 42.3688 73.7061C42.2624 73.7061 42.1604 73.7484 42.0852 73.8236L40.7632 75.1446L40.2857 74.6716C40.2745 74.6551 40.2619 74.6395 40.248 74.6252C40.1733 74.5501 40.072 74.5077 39.9661 74.5071C39.8602 74.5065 39.7584 74.5479 39.683 74.6221C39.6075 74.6963 39.5645 74.7974 39.5633 74.9033C39.5621 75.0091 39.6028 75.1112 39.6766 75.1871L39.6718 75.1919L40.4808 75.9936C40.5561 76.0687 40.6581 76.1109 40.7645 76.1109C40.8708 76.1109 40.9729 76.0687 41.0481 75.9936L42.6511 74.3912L42.6523 74.3902C42.6896 74.353 42.7191 74.3089 42.7393 74.2603C42.7594 74.2116 42.7698 74.1595 42.7698 74.1069C42.7698 74.0543 42.7594 74.0022 42.7393 73.9535C42.7191 73.9049 42.6896 73.8608 42.6524 73.8236V73.8236Z" fill="white"/>
<path fill-rule="evenodd" clip-rule="evenodd" d="M49.6401 77.9752C49.0059 77.9752 48.3859 77.7871 47.8586 77.4348C47.3314 77.0825 46.9204 76.5817 46.6777 75.9958C46.435 75.4099 46.3715 74.7652 46.4952 74.1432C46.6189 73.5212 46.9243 72.9499 47.3727 72.5015C47.8212 72.053 48.3925 71.7477 49.0145 71.6239C49.6365 71.5002 50.2812 71.5637 50.8671 71.8064C51.453 72.0491 51.9537 72.4601 52.3061 72.9874C52.6584 73.5147 52.8464 74.1346 52.8464 74.7688C52.8464 75.6192 52.5086 76.4347 51.9073 77.036C51.306 77.6373 50.4904 77.9752 49.6401 77.9752V77.9752Z" fill="#E8E8E8"/>
<path d="M50.2214 74.7688C50.2214 74.8863 50.1865 75.0011 50.1213 75.0988C50.056 75.1965 49.9632 75.2727 49.8546 75.3177C49.7461 75.3626 49.6266 75.3744 49.5113 75.3515C49.3961 75.3285 49.2902 75.272 49.2071 75.1889C49.1241 75.1058 49.0675 74.9999 49.0446 74.8847C49.0216 74.7694 49.0334 74.65 49.0784 74.5414C49.1233 74.4328 49.1995 74.3401 49.2972 74.2748C49.3949 74.2095 49.5097 74.1746 49.6273 74.1746C49.7848 74.1748 49.9358 74.2375 50.0471 74.3489C50.1585 74.4602 50.2212 74.6112 50.2214 74.7688ZM51.3194 74.4488L51.0431 74.3873C51.0145 74.3769 50.9912 74.3557 50.9782 74.3282L50.9749 74.3193L50.8987 74.134L50.8943 74.1245C50.8839 74.0961 50.8853 74.0647 50.8981 74.0373L51.0501 73.7985C51.0812 73.7468 51.0944 73.6863 51.0878 73.6264C51.0813 73.5664 51.0552 73.5102 51.0137 73.4665L50.9296 73.3824C50.8855 73.3416 50.8294 73.316 50.7696 73.3095C50.7098 73.3029 50.6495 73.3157 50.5976 73.346L50.3587 73.4979C50.3435 73.5055 50.3266 73.5092 50.3096 73.5086C50.2966 73.5091 50.2836 73.5068 50.2716 73.5018L50.262 73.4974L50.0768 73.4211L50.0679 73.4179C50.0404 73.4049 50.0191 73.3815 50.0087 73.3529L49.9473 73.0767C49.9328 73.0181 49.8994 72.966 49.8523 72.9282C49.8052 72.8904 49.747 72.8692 49.6867 72.8676H49.5679C49.5076 72.8691 49.4494 72.8904 49.4023 72.9282C49.3553 72.9659 49.3219 73.0181 49.3073 73.0766L49.2459 73.353C49.2354 73.3815 49.2142 73.4048 49.1867 73.4179L49.1777 73.4211L48.9925 73.4974L48.9829 73.5018C48.9709 73.5068 48.958 73.5091 48.9449 73.5086C48.9279 73.5092 48.911 73.5055 48.8957 73.4979L48.657 73.346C48.605 73.3158 48.5447 73.3029 48.4849 73.3095C48.4252 73.3161 48.3691 73.3416 48.3249 73.3825L48.2409 73.4665C48.1993 73.5102 48.1732 73.5664 48.1666 73.6264C48.1601 73.6864 48.1733 73.7469 48.2044 73.7986L48.3564 74.0374C48.3692 74.0647 48.3705 74.0961 48.3602 74.1244L48.3558 74.134L48.2796 74.3193L48.2763 74.3282C48.2633 74.3557 48.24 74.377 48.2114 74.3874L47.9351 74.4487C47.8766 74.4633 47.8244 74.4967 47.7866 74.5438C47.7489 74.5909 47.7276 74.649 47.7261 74.7094V74.8282C47.7276 74.8885 47.7489 74.9467 47.7866 74.9937C47.8244 75.0408 47.8765 75.0742 47.9351 75.0888L48.2114 75.1501C48.24 75.1606 48.2633 75.1819 48.2763 75.2094L48.2795 75.2183L48.3558 75.4035L48.3602 75.413C48.3705 75.4415 48.3691 75.4728 48.3564 75.5002L48.2045 75.739C48.1733 75.7907 48.1601 75.8512 48.1666 75.9112C48.1732 75.9712 48.1993 76.0273 48.2409 76.0711L48.3249 76.1552C48.3691 76.196 48.4252 76.2215 48.485 76.2281C48.5448 76.2346 48.6051 76.2218 48.6571 76.1916L48.8957 76.0396C48.911 76.032 48.9279 76.0284 48.945 76.029C48.958 76.0284 48.971 76.0308 48.983 76.0358L48.9925 76.0402L49.1777 76.1165L49.1867 76.1197C49.2142 76.1327 49.2354 76.1561 49.2459 76.1846L49.3073 76.4609C49.3219 76.5195 49.3553 76.5716 49.4023 76.6094C49.4494 76.6472 49.5076 76.6684 49.5679 76.67H49.6867C49.7471 76.6684 49.8052 76.6471 49.8523 76.6094C49.8994 76.5716 49.9327 76.5194 49.9473 76.4609L50.0087 76.1846C50.0192 76.156 50.0404 76.1327 50.0679 76.1197L50.0768 76.1165L50.262 76.0402L50.2716 76.0358C50.2836 76.0308 50.2965 76.0285 50.3095 76.029C50.3265 76.0284 50.3434 76.032 50.3587 76.0396L50.5975 76.1915C50.6495 76.2218 50.7098 76.2346 50.7696 76.2281C50.8294 76.2216 50.8855 76.196 50.9296 76.1552L51.0136 76.0712C51.0552 76.0274 51.0813 75.9712 51.0879 75.9112C51.0945 75.8512 51.0812 75.7907 51.0501 75.739L50.8981 75.5002C50.8918 75.4866 50.8882 75.472 50.8875 75.457C50.8869 75.4421 50.8892 75.4272 50.8943 75.4131L50.8987 75.4036L50.9749 75.2183L50.9782 75.2094C50.9912 75.1819 51.0146 75.1606 51.0432 75.1501L51.3193 75.0888C51.3779 75.0742 51.4301 75.0408 51.4679 74.9938C51.5056 74.9467 51.5269 74.8885 51.5285 74.8282V74.7094C51.5269 74.649 51.5057 74.5909 51.4679 74.5438C51.4301 74.4967 51.3779 74.4633 51.3194 74.4488V74.4488Z" fill="white"/>
<path opacity="0.2" d="M50.2214 74.7688C50.2214 74.8863 50.1866 75.0011 50.1213 75.0988C50.056 75.1965 49.9632 75.2727 49.8547 75.3177C49.7461 75.3626 49.6267 75.3744 49.5114 75.3515C49.3962 75.3285 49.2903 75.272 49.2072 75.1889C49.1241 75.1058 49.0675 74.9999 49.0446 74.8847C49.0217 74.7694 49.0335 74.65 49.0784 74.5414C49.1234 74.4328 49.1995 74.3401 49.2972 74.2748C49.3949 74.2095 49.5098 74.1746 49.6273 74.1746C49.7848 74.1748 49.9358 74.2375 50.0472 74.3489C50.1586 74.4602 50.2213 74.6112 50.2214 74.7688Z" fill="white"/>
<path fill-rule="evenodd" clip-rule="evenodd" d="M58.0753 78.031C57.4412 78.031 56.8212 77.8429 56.2939 77.4906C55.7666 77.1383 55.3557 76.6375 55.113 76.0516C54.8703 75.4657 54.8068 74.821 54.9305 74.199C55.0542 73.5771 55.3596 73.0057 55.808 72.5573C56.2565 72.1089 56.8278 71.8035 57.4498 71.6798C58.0718 71.556 58.7165 71.6195 59.3024 71.8622C59.8883 72.1049 60.3891 72.5159 60.7414 73.0432C61.0937 73.5705 61.2817 74.1904 61.2817 74.8246C61.2817 75.675 60.9439 76.4905 60.3426 77.0919C59.7413 77.6932 58.9257 78.031 58.0753 78.031V78.031Z" fill="#E8E8E8"/>
<path d="M58.6567 74.8246C58.6567 74.9421 58.6218 75.057 58.5565 75.1547C58.4913 75.2524 58.3985 75.3285 58.2899 75.3735C58.1813 75.4184 58.0619 75.4302 57.9466 75.4073C57.8314 75.3844 57.7255 75.3278 57.6424 75.2447C57.5594 75.1616 57.5028 75.0557 57.4798 74.9405C57.4569 74.8252 57.4687 74.7058 57.5137 74.5972C57.5586 74.4887 57.6348 74.3959 57.7325 74.3306C57.8302 74.2653 57.945 74.2305 58.0625 74.2305C58.2201 74.2307 58.3711 74.2933 58.4824 74.4047C58.5938 74.5161 58.6565 74.6671 58.6567 74.8246ZM59.7547 74.5046L59.4784 74.4432C59.4498 74.4327 59.4265 74.4115 59.4135 74.384L59.4102 74.3751L59.334 74.1898L59.3296 74.1803C59.3192 74.1519 59.3206 74.1206 59.3334 74.0932L59.4854 73.8543C59.5165 73.8026 59.5297 73.7421 59.5232 73.6822C59.5166 73.6222 59.4905 73.566 59.449 73.5223L59.3649 73.4382C59.3207 73.3974 59.2646 73.3718 59.2049 73.3652C59.1451 73.3587 59.0848 73.3715 59.0328 73.4018L58.7939 73.5537C58.7787 73.5613 58.7618 73.565 58.7448 73.5644C58.7318 73.5649 58.7188 73.5625 58.7068 73.5576L58.6972 73.5532L58.5121 73.4769L58.5031 73.4737C58.4756 73.4606 58.4544 73.4373 58.444 73.4087L58.3826 73.1325C58.368 73.0739 58.3346 73.0217 58.2875 72.984C58.2405 72.9462 58.1823 72.9249 58.122 72.9234H58.0031C57.9428 72.9249 57.8847 72.9462 57.8376 72.9839C57.7905 73.0217 57.7571 73.0738 57.7426 73.1324L57.6811 73.4088C57.6707 73.4373 57.6494 73.4606 57.6219 73.4737L57.6129 73.4769L57.4278 73.5532L57.4182 73.5576C57.4062 73.5625 57.3932 73.5649 57.3802 73.5644C57.3632 73.5649 57.3463 73.5613 57.331 73.5537L57.0922 73.4018C57.0403 73.3716 56.98 73.3587 56.9202 73.3653C56.8605 73.3719 56.8044 73.3974 56.7602 73.4383L56.6762 73.5223C56.6346 73.566 56.6085 73.6222 56.6019 73.6822C56.5954 73.7422 56.6086 73.8027 56.6397 73.8544L56.7917 74.0931C56.8044 74.1205 56.8058 74.1518 56.7955 74.1802L56.7911 74.1898L56.7149 74.3751L56.7116 74.384C56.6986 74.4115 56.6752 74.4328 56.6466 74.4432L56.3704 74.5045C56.3119 74.5191 56.2597 74.5525 56.222 74.5996C56.1842 74.6467 56.1629 74.7048 56.1614 74.7652V74.884C56.1629 74.9443 56.1842 75.0025 56.2219 75.0495C56.2597 75.0966 56.3118 75.13 56.3704 75.1446L56.6467 75.2059C56.6753 75.2164 56.6986 75.2377 56.7116 75.2652L56.7148 75.2741L56.7911 75.4593L56.7955 75.4688C56.8058 75.4973 56.8044 75.5286 56.7917 75.556L56.6397 75.7948C56.6086 75.8465 56.5953 75.907 56.6019 75.967C56.6085 76.027 56.6346 76.0831 56.6762 76.1269L56.7602 76.2109C56.8044 76.2518 56.8605 76.2773 56.9203 76.2839C56.9801 76.2904 57.0404 76.2776 57.0923 76.2474L57.331 76.0955C57.3463 76.0878 57.3632 76.0842 57.3803 76.0848C57.3933 76.0842 57.4062 76.0866 57.4183 76.0916L57.4278 76.096L57.613 76.1723L57.622 76.1755C57.6495 76.1885 57.6707 76.2118 57.6812 76.2404L57.7426 76.5167C57.7572 76.5753 57.7906 76.6274 57.8376 76.6652C57.8847 76.703 57.9429 76.7242 58.0032 76.7258H58.122C58.1823 76.7242 58.2405 76.7029 58.2875 76.6652C58.3346 76.6274 58.368 76.5752 58.3826 76.5167L58.444 76.2404C58.4544 76.2118 58.4757 76.1885 58.5032 76.1755L58.5121 76.1723L58.6973 76.096L58.7068 76.0916C58.7188 76.0866 58.7318 76.0843 58.7447 76.0848C58.7618 76.0842 58.7787 76.0878 58.7939 76.0955L59.0328 76.2473C59.0847 76.2776 59.145 76.2904 59.2048 76.2839C59.2646 76.2774 59.3207 76.2518 59.3649 76.2109L59.4489 76.1269C59.4905 76.0832 59.5165 76.027 59.5231 75.967C59.5297 75.907 59.5164 75.8465 59.4854 75.7948L59.3334 75.556C59.327 75.5424 59.3234 75.5278 59.3228 75.5128C59.3221 75.4979 59.3244 75.483 59.3296 75.4689L59.334 75.4594L59.4102 75.2741L59.4134 75.2652C59.4265 75.2376 59.4498 75.2164 59.4784 75.2059L59.7546 75.1446C59.8132 75.13 59.8653 75.0966 59.9031 75.0496C59.9409 75.0025 59.9622 74.9443 59.9637 74.884V74.7652C59.9622 74.7048 59.9409 74.6467 59.9031 74.5996C59.8654 74.5525 59.8132 74.5192 59.7547 74.5046H59.7547Z" fill="white"/>
<path opacity="0.2" d="M58.6567 74.8246C58.6567 74.9421 58.6219 75.057 58.5566 75.1547C58.4913 75.2524 58.3985 75.3285 58.29 75.3735C58.1814 75.4184 58.062 75.4302 57.9467 75.4073C57.8315 75.3844 57.7256 75.3278 57.6425 75.2447C57.5594 75.1616 57.5028 75.0557 57.4799 74.9405C57.457 74.8252 57.4688 74.7058 57.5137 74.5972C57.5587 74.4887 57.6348 74.3959 57.7326 74.3306C57.8303 74.2653 57.9451 74.2305 58.0626 74.2305C58.2201 74.2307 58.3711 74.2933 58.4825 74.4047C58.5939 74.5161 58.6566 74.6671 58.6567 74.8246Z" fill="white"/>
</g>
<defs>
<linearGradient id="paint0_linear_367_7833" x1="47.8698" y1="-15.1532" x2="51.8525" y2="130.615" gradientUnits="userSpaceOnUse">
<stop stop-color="#00ABDE"/>
<stop offset="1" stop-color="#007ED8"/>
</linearGradient>
<linearGradient id="paint1_linear_367_7833" x1="49.6401" y1="64.915" x2="49.6401" y2="76.3599" gradientUnits="userSpaceOnUse">
<stop stop-color="#005BA1"/>
<stop offset="0.26" stop-color="#00589D"/>
<stop offset="0.53" stop-color="#004F90"/>
<stop offset="0.8" stop-color="#003F7C"/>
<stop offset="1" stop-color="#003067"/>
</linearGradient>
<linearGradient id="paint2_linear_367_7833" x1="49.8148" y1="66.1849" x2="49.8148" y2="76.3393" gradientUnits="userSpaceOnUse">
<stop stop-color="#008BF1"/>
<stop offset="0.22" stop-color="#0086EC"/>
<stop offset="0.49" stop-color="#0078DD"/>
<stop offset="0.79" stop-color="#0061C4"/>
<stop offset="1" stop-color="#004DAE"/>
</linearGradient>
<linearGradient id="paint3_linear_367_7833" x1="49.6401" y1="53.4911" x2="49.6401" y2="64.9354" gradientUnits="userSpaceOnUse">
<stop stop-color="#005BA1"/>
<stop offset="0.26" stop-color="#00589D"/>
<stop offset="0.53" stop-color="#004F90"/>
<stop offset="0.8" stop-color="#003F7C"/>
<stop offset="1" stop-color="#003067"/>
</linearGradient>
<linearGradient id="paint4_linear_367_7833" x1="49.8148" y1="54.7606" x2="49.8148" y2="64.9151" gradientUnits="userSpaceOnUse">
<stop stop-color="#008BF1"/>
<stop offset="0.22" stop-color="#0086EC"/>
<stop offset="0.49" stop-color="#0078DD"/>
<stop offset="0.79" stop-color="#0061C4"/>
<stop offset="1" stop-color="#004DAE"/>
</linearGradient>
<linearGradient id="paint5_linear_367_7833" x1="49.6401" y1="42.0672" x2="49.6401" y2="53.5115" gradientUnits="userSpaceOnUse">
<stop stop-color="#005BA1"/>
<stop offset="0.26" stop-color="#00589D"/>
<stop offset="0.53" stop-color="#004F90"/>
<stop offset="0.8" stop-color="#003F7C"/>
<stop offset="1" stop-color="#003067"/>
</linearGradient>
<linearGradient id="paint6_linear_367_7833" x1="49.8148" y1="43.3366" x2="49.8148" y2="53.4912" gradientUnits="userSpaceOnUse">
<stop stop-color="#008BF1"/>
<stop offset="0.22" stop-color="#0086EC"/>
<stop offset="0.49" stop-color="#0078DD"/>
<stop offset="0.79" stop-color="#0061C4"/>
<stop offset="1" stop-color="#004DAE"/>
</linearGradient>
<linearGradient id="paint7_linear_367_7833" x1="49.6401" y1="30.6434" x2="49.6401" y2="42.0877" gradientUnits="userSpaceOnUse">
<stop stop-color="#005BA1"/>
<stop offset="0.26" stop-color="#00589D"/>
<stop offset="0.53" stop-color="#004F90"/>
<stop offset="0.8" stop-color="#003F7C"/>
<stop offset="1" stop-color="#003067"/>
</linearGradient>
<linearGradient id="paint8_linear_367_7833" x1="49.8148" y1="31.9128" x2="49.8148" y2="42.0674" gradientUnits="userSpaceOnUse">
<stop stop-color="#008BF1"/>
<stop offset="0.22" stop-color="#0086EC"/>
<stop offset="0.49" stop-color="#0078DD"/>
<stop offset="0.79" stop-color="#0061C4"/>
<stop offset="1" stop-color="#004DAE"/>
</linearGradient>
<linearGradient id="paint9_linear_367_7833" x1="49.6394" y1="46.7912" x2="49.6394" y2="15.6886" gradientUnits="userSpaceOnUse">
<stop stop-color="#198AB3"/>
<stop offset="0.442" stop-color="#28B7DB"/>
<stop offset="0.775" stop-color="#32D4F5"/>
</linearGradient>
<linearGradient id="paint10_linear_367_7833" x1="2842.35" y1="-2234.86" x2="2854.34" y2="-2244.58" gradientUnits="userSpaceOnUse">
<stop stop-color="white" stop-opacity="0.9"/>
<stop offset="1" stop-color="white" stop-opacity="0.8"/>
</linearGradient>
<linearGradient id="paint11_linear_367_7833" x1="49.6385" y1="80.117" x2="49.6385" y2="68.9782" gradientUnits="userSpaceOnUse">
<stop stop-color="#F2F2F2"/>
<stop offset="0.44" stop-color="#FBFBFB"/>
<stop offset="1" stop-color="white"/>
</linearGradient>
<clipPath id="clip0_367_7833">
<rect width="99.2799" height="99.28" fill="white"/>
</clipPath>
</defs>
</svg>
