<svg width="100" height="100" viewBox="0 0 100 100" fill="none" xmlns="http://www.w3.org/2000/svg">
<g clip-path="url(#clip0)">
<path d="M49.6396 96.4501C40.3815 96.4501 31.3312 93.7047 23.6334 88.5612C15.9355 83.4176 9.93575 76.1069 6.39281 67.5535C2.84987 59.0001 1.92288 49.5882 3.72905 40.5079C5.53523 31.4277 9.99345 23.0869 16.5399 16.5404C23.0864 9.99393 31.4272 5.53571 40.5074 3.72954C49.5877 1.92337 58.9996 2.85036 67.553 6.3933C76.1064 9.93624 83.4172 15.936 88.5607 23.6339C93.7042 31.3317 96.4496 40.382 96.4496 49.6401C96.45 55.7874 95.2395 61.8746 92.8873 67.554C90.535 73.2335 87.087 78.3939 82.7402 82.7407C78.3934 87.0875 73.233 90.5355 67.5535 92.8878C61.8741 95.24 55.7869 96.4505 49.6396 96.4501V96.4501Z" fill="url(#paint0_linear)"/>
<path fill-rule="evenodd" clip-rule="evenodd" d="M95.5402 49.711C95.5402 58.7892 92.8483 67.6635 87.8047 75.2117C82.7611 82.7599 75.5925 88.6431 67.2054 92.1171C58.8183 95.5912 49.5893 96.5001 40.6856 94.7291C31.7819 92.958 23.6033 88.5865 17.184 82.1672C10.7648 75.748 6.39326 67.5694 4.6222 58.6657C2.85114 49.762 3.76011 40.533 7.23417 32.1459C10.7082 23.7587 16.5914 16.5901 24.1396 11.5466C31.6878 6.50303 40.5621 3.81105 49.6402 3.81105C55.6679 3.81102 61.6366 4.99825 67.2054 7.30493C72.7743 9.61161 77.8343 12.9926 82.0965 17.2548C86.3587 21.517 89.7397 26.577 92.0464 32.1459C94.353 37.7147 95.5403 43.6834 95.5402 49.711V49.711ZM49.6402 0.0710453C59.4581 0.0710453 69.0555 2.98238 77.2188 8.43689C85.382 13.8914 91.7445 21.6441 95.5016 30.7146C99.2588 39.7852 100.242 49.7661 98.3264 59.3953C96.4111 69.0245 91.6833 77.8696 84.741 84.8118C77.7987 91.7541 68.9537 96.4819 59.3245 98.3972C49.6953 100.313 39.7144 99.3296 30.6438 95.5724C21.5733 91.8153 13.8206 85.4528 8.36609 77.2896C2.91158 69.1263 0.000244503 59.5289 0.000244503 49.711C-0.000543598 43.192 1.2829 36.7367 3.77726 30.7137C6.27162 24.6907 9.92805 19.2182 14.5377 14.6085C19.1474 9.99885 24.62 6.34242 30.6429 3.84806C36.6659 1.3537 43.1212 0.0702572 49.6402 0.0710453V0.0710453Z" fill="#F2F1F0"/>
<path fill-rule="evenodd" clip-rule="evenodd" d="M92.7303 49.6403C92.7303 58.1627 90.2031 66.4937 85.4683 73.5799C80.7335 80.666 74.0038 86.1889 66.1301 89.4503C58.2565 92.7117 49.5925 93.565 41.2339 91.9024C32.8752 90.2397 25.1973 86.1358 19.1711 80.1096C13.1448 74.0833 9.0409 66.4054 7.37827 58.0468C5.71563 49.6881 6.56895 41.0242 9.83033 33.1505C13.0917 25.2768 18.6147 18.5471 25.7008 13.8123C32.7869 9.07752 41.1179 6.55033 49.6403 6.55033C55.2991 6.54999 60.9025 7.66431 66.1305 9.82966C71.3586 11.995 76.109 15.169 80.1103 19.1703C84.1116 23.1717 87.2856 27.922 89.451 33.1501C91.6163 38.3782 92.7306 43.9816 92.7303 49.6403V49.6403ZM49.6403 2.81033C58.9024 2.81033 67.9565 5.55686 75.6577 10.7026C83.3588 15.8484 89.3611 23.1622 92.9056 31.7193C96.45 40.2763 97.3774 49.6923 95.5705 58.7764C93.7635 67.8605 89.3034 76.2048 82.7541 82.7541C76.2048 89.3034 67.8605 93.7636 58.7764 95.5705C49.6923 97.3775 40.2763 96.4501 31.7192 92.9056C23.1622 89.3612 15.8483 83.3588 10.7026 75.6577C5.55683 67.9565 2.8103 58.9024 2.8103 49.6403C2.81149 37.2206 7.74573 25.3099 16.5278 16.5278C25.3099 7.74574 37.2206 2.8115 49.6403 2.8103V2.81033Z" fill="#0078D4"/>
<path opacity="0.2" d="M68.0631 27.606H31.0365C30.8467 27.6056 30.6588 27.6428 30.4835 27.7152C30.3082 27.7877 30.1489 27.8941 30.0147 28.0282C29.8806 28.1624 29.7742 28.3217 29.7018 28.497C29.6293 28.6723 29.5922 28.8602 29.5925 29.05V77.3702C29.5922 77.5599 29.6294 77.7478 29.7018 77.9232C29.7743 78.0985 29.8806 78.2578 30.0148 78.3919C30.1489 78.526 30.3082 78.6324 30.4835 78.7048C30.6589 78.7773 30.8468 78.8144 31.0365 78.8141H68.0631C68.2528 78.8144 68.4407 78.7773 68.616 78.7048C68.7914 78.6324 68.9507 78.526 69.0848 78.3919C69.2189 78.2578 69.3253 78.0985 69.3977 77.9232C69.4702 77.7478 69.5073 77.5599 69.507 77.3702V29.0499C69.5048 28.6677 69.3519 28.3017 69.0816 28.0314C68.8113 27.7611 68.4454 27.6082 68.0631 27.606V27.606Z" fill="#003067"/>
<path d="M68.0631 25.8135H31.0365C30.8467 25.8132 30.6588 25.8503 30.4835 25.9228C30.3082 25.9952 30.1489 26.1016 30.0147 26.2357C29.8806 26.3699 29.7742 26.5292 29.7018 26.7045C29.6293 26.8799 29.5922 27.0678 29.5925 27.2575V75.5778C29.5922 75.7675 29.6294 75.9554 29.7018 76.1307C29.7743 76.306 29.8806 76.4653 30.0148 76.5995C30.1489 76.7336 30.3082 76.8399 30.4835 76.9124C30.6588 76.9849 30.8468 77.022 31.0365 77.0217H68.0631C68.2528 77.022 68.4407 76.9849 68.616 76.9124C68.7914 76.8399 68.9507 76.7336 69.0848 76.5995C69.219 76.4653 69.3253 76.306 69.3978 76.1307C69.4702 75.9554 69.5073 75.7675 69.507 75.5778V27.2574C69.5048 26.8752 69.3519 26.5092 69.0816 26.2389C68.8113 25.9686 68.4454 25.8158 68.0631 25.8135V25.8135Z" fill="white"/>
<path fill-rule="evenodd" clip-rule="evenodd" d="M52.0339 19.161C52.7099 19.5324 53.2724 20.0803 53.6614 20.7463C54.0504 21.4123 54.2513 22.1715 54.2427 22.9427V23.3295C54.2427 23.467 54.2341 23.6045 54.2256 23.7421H57.2423C57.6832 23.7376 58.1175 23.8488 58.502 24.0644C58.8866 24.28 59.2079 24.5927 59.434 24.9711C59.7194 25.4064 59.8823 25.9104 59.9056 26.4304C59.9289 26.9503 59.8117 27.4669 59.5663 27.9259C59.321 28.385 58.9566 28.7694 58.5113 29.0389C58.0661 29.3085 57.5565 29.4531 57.036 29.4576H41.8575C41.4167 29.4621 40.9824 29.3509 40.5978 29.1353C40.2133 28.9196 39.892 28.607 39.6659 28.2286C39.3805 27.7933 39.2176 27.2892 39.1943 26.7693C39.171 26.2494 39.2882 25.7327 39.5335 25.2737C39.7789 24.8147 40.1433 24.4303 40.5886 24.1607C41.0338 23.8912 41.5434 23.7466 42.0639 23.7421H44.8658C44.8572 23.6045 44.8486 23.4671 44.8486 23.3295V23.2092C44.8533 22.3718 45.0794 21.5505 45.504 20.8287C45.9285 20.1069 46.5364 19.5102 47.266 19.0992C47.9956 18.6881 48.8209 18.4773 49.6583 18.4882C50.4956 18.4991 51.3152 18.7312 52.0339 19.161V19.161Z" fill="#1F56A3"/>
<path d="M49.5496 24.3263C49.9168 24.3263 50.2757 24.2174 50.581 24.0134C50.8863 23.8094 51.1243 23.5195 51.2648 23.1802C51.4053 22.841 51.4421 22.4677 51.3704 22.1076C51.2988 21.7475 51.122 21.4167 50.8623 21.157C50.6027 20.8974 50.2719 20.7206 49.9118 20.649C49.5517 20.5773 49.1784 20.6141 48.8392 20.7546C48.4999 20.8951 48.21 21.1331 48.006 21.4384C47.802 21.7437 47.6931 22.1026 47.6931 22.4698C47.6931 22.9621 47.8887 23.4343 48.2369 23.7825C48.585 24.1307 49.0572 24.3263 49.5496 24.3263V24.3263Z" fill="#F9F9F9"/>
<path fill-rule="evenodd" clip-rule="evenodd" d="M39.612 68.2476C38.7029 68.2476 37.8142 67.978 37.0583 67.473C36.3024 66.9679 35.7132 66.25 35.3653 65.4101C35.0174 64.5702 34.9263 63.6459 35.1037 62.7543C35.2811 61.8626 35.7189 61.0436 36.3617 60.4007C37.0045 59.7579 37.8236 59.3201 38.7152 59.1428C39.6069 58.9654 40.5311 59.0564 41.371 59.4044C42.211 59.7523 42.9288 60.3414 43.4339 61.0973C43.939 61.8533 44.2086 62.742 44.2085 63.6511C44.2085 64.8702 43.7242 66.0393 42.8622 66.9013C42.0002 67.7633 40.8311 68.2476 39.612 68.2476Z" fill="#72C472"/>
<path fill-rule="evenodd" clip-rule="evenodd" d="M41.7236 62.3761C41.6157 62.2683 41.4695 62.2078 41.317 62.2078C41.1646 62.2078 41.0183 62.2683 40.9105 62.3761L39.0153 64.2699L38.3307 63.5919C38.3147 63.5682 38.2966 63.5459 38.2767 63.5253C38.1696 63.418 38.0244 63.3574 37.8728 63.3566C37.7212 63.3559 37.5754 63.4152 37.4673 63.5215C37.3592 63.6278 37.2975 63.7726 37.2957 63.9242C37.2939 64.0758 37.3521 64.222 37.4576 64.3309L37.4507 64.3378L38.6105 65.487C38.7184 65.5947 38.8647 65.6552 39.0172 65.6552C39.1697 65.6552 39.3159 65.5947 39.4238 65.487L41.7218 63.19L41.7236 63.1886C41.777 63.1353 41.8193 63.0719 41.8482 63.0022C41.8771 62.9325 41.892 62.8578 41.892 62.7823C41.892 62.7069 41.8771 62.6322 41.8482 62.5624C41.8193 62.4927 41.777 62.4294 41.7236 62.3761V62.3761Z" fill="white"/>
<path d="M35.2859 53.8684H63.994" stroke="#F2F2F2" stroke-width="1.25128" stroke-miterlimit="10" stroke-linecap="round"/>
<path d="M49.6695 60.1047H62.3609C62.818 60.1047 63.2564 60.2863 63.5797 60.6096C63.903 60.9329 64.0846 61.3713 64.0846 61.8284V61.8284C64.0846 62.2856 63.903 62.724 63.5797 63.0473C63.2564 63.3706 62.818 63.5522 62.3609 63.5522H49.6695C49.2124 63.5522 48.7739 63.3706 48.4507 63.0473C48.1274 62.724 47.9458 62.2856 47.9458 61.8284V61.8284C47.9458 61.3713 48.1274 60.9329 48.4507 60.6096C48.7739 60.2863 49.2124 60.1047 49.6695 60.1047V60.1047Z" fill="#E8E8E8"/>
<path d="M49.6695 66.9998H58.0516C58.5087 66.9998 58.9472 67.1814 59.2704 67.5046C59.5937 67.8279 59.7753 68.2663 59.7753 68.7235V68.7235C59.7753 69.1806 59.5937 69.6191 59.2704 69.9423C58.9472 70.2656 58.5087 70.4472 58.0516 70.4472H49.6695C49.2124 70.4472 48.7739 70.2656 48.4507 69.9423C48.1274 69.6191 47.9458 69.1806 47.9458 68.7235V68.7235C47.9458 68.2663 48.1274 67.8279 48.4507 67.5046C48.7739 67.1814 49.2124 66.9998 49.6695 66.9998V66.9998Z" fill="#E8E8E8"/>
<path opacity="0.2" d="M59.3459 62.3054C59.3467 63.9906 59.6956 65.6575 60.3709 67.2014L59.444 70.7646C59.3292 71.2035 59.3166 71.6628 59.407 72.1074C59.4974 72.5519 59.6885 72.9698 59.9656 73.3289C60.2427 73.6881 60.5985 73.979 61.0055 74.1792C61.4125 74.3795 61.86 74.4838 62.3137 74.4841C62.5663 74.4839 62.8178 74.4517 63.0623 74.3882L66.6322 73.4586C67.5524 73.8554 68.5179 74.1373 69.507 74.2979V50.3108C66.6699 50.7887 64.0933 52.2552 62.2336 54.4505C60.3739 56.6458 59.351 59.4283 59.3459 62.3054Z" fill="#003067"/>
<path d="M35.2859 34.1235H63.994" stroke="#F2F2F2" stroke-width="1.25128" stroke-miterlimit="10" stroke-linecap="round"/>
<path d="M35.2859 37.4146H63.994" stroke="#F2F2F2" stroke-width="1.25128" stroke-miterlimit="10" stroke-linecap="round"/>
<path d="M35.2859 40.7053H63.994" stroke="#F2F2F2" stroke-width="1.25128" stroke-miterlimit="10" stroke-linecap="round"/>
<path d="M35.2859 43.9961H63.994" stroke="#F2F2F2" stroke-width="1.25128" stroke-miterlimit="10" stroke-linecap="round"/>
<path d="M35.2859 47.2869H63.994" stroke="#F2F2F2" stroke-width="1.25128" stroke-miterlimit="10" stroke-linecap="round"/>
<path d="M35.2859 50.5776H63.994" stroke="#F2F2F2" stroke-width="1.25128" stroke-miterlimit="10" stroke-linecap="round"/>
<path opacity="0.2" d="M35.8785 41.6013L39.4485 42.5304C39.9491 42.6612 40.4752 42.6587 40.9746 42.5232C41.474 42.3878 41.9292 42.1241 42.2952 41.7583C42.6612 41.3926 42.9251 40.9375 43.0609 40.4382C43.1966 39.9389 43.1994 39.4127 43.0689 38.912L42.1398 35.3442C42.8157 33.8004 43.1651 32.1335 43.1658 30.4482C43.1658 28.1155 42.4911 25.8326 41.2228 23.8748C40.7698 24.0149 40.3587 24.2654 40.0265 24.6038C39.6943 24.9422 39.4515 25.3579 39.3198 25.8135H31.0365C30.8468 25.8132 30.6589 25.8503 30.4836 25.9228C30.3082 25.9952 30.1489 26.1015 30.0148 26.2357C29.8806 26.3698 29.7743 26.5291 29.7018 26.7045C29.6294 26.8798 29.5922 27.0677 29.5925 27.2574V42.5377C31.7339 42.7965 33.9055 42.473 35.8785 41.6013H35.8785Z" fill="#003067"/>
<path d="M38.708 51.513L45.453 44.768L50.261 49.576L59.878 39.959" stroke="#0078D4" stroke-width="1.25128" stroke-miterlimit="10" stroke-linecap="round"/>
<path d="M59.8779 42.5037C61.2832 42.5037 62.4225 41.3645 62.4225 39.9591C62.4225 38.5538 61.2832 37.4146 59.8779 37.4146C58.4725 37.4146 57.3333 38.5538 57.3333 39.9591C57.3333 41.3645 58.4725 42.5037 59.8779 42.5037Z" fill="white" stroke="#0078D4" stroke-width="1.25128" stroke-miterlimit="10" stroke-linecap="round"/>
<path d="M38.7085 53.8212C39.7304 53.8212 40.5588 52.9928 40.5588 51.9709C40.5588 50.949 39.7304 50.1206 38.7085 50.1206C37.6866 50.1206 36.8582 50.949 36.8582 51.9709C36.8582 52.9928 37.6866 53.8212 38.7085 53.8212Z" fill="white" stroke="#0078D4" stroke-width="1.25128" stroke-miterlimit="10" stroke-linecap="round"/>
<path d="M45.4924 46.5283C46.4248 46.5283 47.1806 45.7724 47.1806 44.8401C47.1806 43.9077 46.4248 43.1519 45.4924 43.1519C44.56 43.1519 43.8042 43.9077 43.8042 44.8401C43.8042 45.7724 44.56 46.5283 45.4924 46.5283Z" fill="white" stroke="#0078D4" stroke-width="1.25128" stroke-miterlimit="10" stroke-linecap="round"/>
<path d="M50.3027 50.9165C51.2351 50.9165 51.9909 50.1606 51.9909 49.2282C51.9909 48.2959 51.2351 47.54 50.3027 47.54C49.3703 47.54 48.6145 48.2959 48.6145 49.2282C48.6145 50.1606 49.3703 50.9165 50.3027 50.9165Z" fill="white" stroke="#0078D4" stroke-width="1.25128" stroke-miterlimit="10" stroke-linecap="round"/>
<path d="M71.5216 52.2417C73.0476 52.2423 74.5535 52.59 75.9254 53.2584C77.2972 53.9268 78.4991 54.8984 79.4401 56.0998C80.3812 57.3012 81.0366 58.7008 81.357 60.1928C81.6773 61.6849 81.6542 63.2302 81.2893 64.712C80.9243 66.1937 80.2272 67.5731 79.2507 68.7458C78.2741 69.9184 77.0436 70.8536 75.6523 71.4806C74.261 72.1076 72.7454 72.41 71.22 72.3649C69.6947 72.3198 68.1995 71.9284 66.8477 71.2203L62.53 72.3444C62.3856 72.382 62.234 72.3812 62.0901 72.3421C61.9462 72.303 61.815 72.227 61.7095 72.1215C61.604 72.0161 61.528 71.8849 61.4889 71.741C61.4497 71.5971 61.4489 71.4454 61.4865 71.3011L62.61 66.9853C61.8052 65.4513 61.4099 63.7355 61.4624 62.004C61.5148 60.2725 62.0132 58.5838 62.9093 57.1012C63.8054 55.6186 65.0689 54.3924 66.5776 53.5411C68.0864 52.6898 69.7892 52.2423 71.5216 52.2417V52.2417ZM72.7812 63.3119H68.2508L68.1484 63.3187C67.9676 63.3435 67.802 63.4329 67.682 63.5704C67.5621 63.7079 67.496 63.8842 67.496 64.0666C67.496 64.2491 67.5621 64.4254 67.682 64.5629C67.802 64.7004 67.9676 64.7898 68.1484 64.8146L68.2508 64.8214H72.7812L72.8837 64.8146C73.0645 64.7898 73.2301 64.7004 73.35 64.5629C73.4699 64.4254 73.536 64.2491 73.536 64.0666C73.536 63.8842 73.4699 63.7079 73.35 63.5704C73.2301 63.4329 73.0645 63.3435 72.8837 63.3187L72.7812 63.3119ZM74.7922 59.7895H68.2508L68.1484 59.7964C67.9676 59.8212 67.802 59.9106 67.682 60.0481C67.5621 60.1856 67.496 60.3619 67.496 60.5443C67.496 60.7268 67.5621 60.9031 67.682 61.0406C67.802 61.1781 67.9676 61.2675 68.1484 61.2923L68.2508 61.2991H74.7923L74.8947 61.2923C75.0755 61.2675 75.2411 61.178 75.3611 61.0406C75.481 60.9031 75.5471 60.7268 75.5471 60.5443C75.5471 60.3619 75.481 60.1856 75.3611 60.0481C75.2411 59.9106 75.0755 59.8212 74.8947 59.7964L74.7922 59.7895Z" fill="url(#paint1_linear)"/>
<path d="M72.7813 63.3119H68.2509L68.1485 63.3187C67.9677 63.3435 67.802 63.4329 67.6821 63.5704C67.5622 63.7079 67.4961 63.8842 67.4961 64.0667C67.4961 64.2491 67.5622 64.4254 67.6821 64.5629C67.802 64.7004 67.9677 64.7898 68.1485 64.8146L68.2509 64.8214H72.7813L72.8838 64.8146C73.0645 64.7898 73.2302 64.7004 73.3501 64.5629C73.47 64.4254 73.5361 64.2491 73.5361 64.0667C73.5361 63.8842 73.47 63.7079 73.3501 63.5704C73.2302 63.4329 73.0645 63.3435 72.8838 63.3187L72.7813 63.3119ZM74.7923 59.7896H68.2509L68.1485 59.7964C67.9677 59.8212 67.802 59.9106 67.6821 60.0481C67.5622 60.1856 67.4961 60.3619 67.4961 60.5444C67.4961 60.7268 67.5622 60.9031 67.6821 61.0406C67.802 61.1781 67.9677 61.2675 68.1485 61.2923L68.2509 61.2991H74.7924L74.8948 61.2923C75.0756 61.2675 75.2412 61.1781 75.3611 61.0406C75.481 60.9031 75.5471 60.7268 75.5471 60.5444C75.5471 60.3619 75.481 60.1856 75.3611 60.0481C75.2412 59.9107 75.0756 59.8212 74.8948 59.7964L74.7923 59.7896Z" fill="#0078D4"/>
<path d="M41.0536 30.4486C41.056 32.079 40.6605 33.6854 39.9014 35.1284L41.0249 39.4442C41.0625 39.5885 41.0617 39.7401 41.0225 39.884C40.9834 40.028 40.9074 40.1591 40.8019 40.2646C40.6965 40.37 40.5653 40.4461 40.4213 40.4852C40.2774 40.5243 40.1258 40.5251 39.9815 40.4875L35.6637 39.3634C33.7171 40.3844 31.4897 40.7401 29.3219 40.3761C27.154 40.0121 25.165 38.9485 23.6585 37.3477C22.1521 35.7468 21.2112 33.6969 20.9794 31.511C20.7477 29.3251 21.2379 27.1234 22.3753 25.2423C23.5126 23.3612 25.2344 21.9042 27.2777 21.0938C29.3211 20.2834 31.5735 20.1642 33.691 20.7544C35.8084 21.3446 37.6744 22.6117 39.0039 24.3622C40.3334 26.1128 41.0533 28.2504 41.0536 30.4486V30.4486Z" fill="url(#paint2_linear)"/>
<path d="M32.2496 31.4549H27.7192L27.6167 31.4618C27.436 31.4866 27.2703 31.576 27.1504 31.7135C27.0304 31.851 26.9644 32.0273 26.9644 32.2097C26.9644 32.3922 27.0304 32.5685 27.1504 32.706C27.2703 32.8435 27.436 32.9329 27.6167 32.9577L27.7192 32.9645H32.2496L32.352 32.9577C32.5328 32.9329 32.6984 32.8434 32.8183 32.7059C32.9383 32.5684 33.0043 32.3922 33.0043 32.2097C33.0043 32.0273 32.9383 31.851 32.8183 31.7135C32.6984 31.576 32.5328 31.4866 32.352 31.4618L32.2496 31.4549ZM34.2606 27.9326H27.7192L27.6167 27.9395C27.436 27.9643 27.2703 28.0537 27.1504 28.1912C27.0304 28.3287 26.9644 28.505 26.9644 28.6874C26.9644 28.8699 27.0304 29.0462 27.1504 29.1837C27.2703 29.3211 27.436 29.4106 27.6167 29.4353L27.7192 29.4422H34.2606L34.3631 29.4353C34.5438 29.4105 34.7095 29.3211 34.8294 29.1836C34.9493 29.0461 35.0154 28.8699 35.0154 28.6874C35.0154 28.505 34.9493 28.3287 34.8294 28.1912C34.7095 28.0537 34.5438 27.9643 34.3631 27.9395L34.2606 27.9326Z" fill="#9CEBFF"/>
</g>
<defs>
<linearGradient id="paint0_linear" x1="47.8693" y1="-15.153" x2="51.8521" y2="130.615" gradientUnits="userSpaceOnUse">
<stop stop-color="#00ABDE"/>
<stop offset="1" stop-color="#007ED8"/>
</linearGradient>
<linearGradient id="paint1_linear" x1="71.5216" y1="72.3723" x2="71.5216" y2="52.2056" gradientUnits="userSpaceOnUse">
<stop stop-color="#003067"/>
<stop offset="0.2" stop-color="#003F7C"/>
<stop offset="0.47" stop-color="#004F90"/>
<stop offset="0.74" stop-color="#00589D"/>
<stop offset="1" stop-color="#005BA1"/>
</linearGradient>
<linearGradient id="paint2_linear" x1="30.9899" y1="40.5153" x2="30.9899" y2="20.3848" gradientUnits="userSpaceOnUse">
<stop stop-color="#004DAE"/>
<stop offset="0.21" stop-color="#0061C4"/>
<stop offset="0.51" stop-color="#0078DD"/>
<stop offset="0.78" stop-color="#0086EC"/>
<stop offset="1" stop-color="#008BF1"/>
</linearGradient>
<clipPath id="clip0">
<rect width="99.2799" height="99.28" fill="white"/>
</clipPath>
</defs>
</svg>
