<svg width="204" height="204" viewBox="0 0 204 204" fill="none" xmlns="http://www.w3.org/2000/svg">
<path d="M102 195.62C50.3 195.62 8.38 153.72 8.38 102C8.38 50.2799 50.3 8.37988 102 8.37988C153.7 8.37988 195.62 50.2999 195.62 102C195.62 153.7 153.7 195.62 102 195.62Z" fill="url(#paint0_linear)"/>
<path fill-rule="evenodd" clip-rule="evenodd" d="M193.8 102C193.8 152.7 152.7 193.8 102 193.8C51.3 193.8 10.2 152.7 10.2 102C10.2 51.3002 51.3 10.2002 102 10.2002C152.7 10.2002 193.8 51.3002 193.8 102ZM102 2.72021C156.84 2.72021 201.28 47.1602 201.28 102C201.28 156.84 156.82 201.28 102 201.28C47.16 201.28 2.72 156.82 2.72 102C2.72 47.1602 47.16 2.72021 102 2.72021Z" fill="#F2F1F0"/>
<path fill-rule="evenodd" clip-rule="evenodd" d="M188.18 102C188.18 149.6 149.6 188.18 102 188.18C54.4 188.18 15.82 149.6 15.82 102C15.82 54.3998 54.4 15.8198 102 15.8198C149.6 15.8198 188.18 54.3998 188.18 102ZM102 8.33984C153.72 8.33984 195.66 50.2798 195.66 102C195.66 153.72 153.72 195.66 102 195.66C50.28 195.66 8.34 153.72 8.34 102C8.34 50.2798 50.26 8.33984 102 8.33984Z" fill="url(#paint1_linear)"/>
<path d="M112.96 98.2197H89.92V99.4197H112.96V98.2197Z" fill="#F2F2F2"/>
<path d="M89.84 123.48H54.96V122.28H89.24V75.66H54.96V74.46H89.84C90.18 74.46 90.44 74.72 90.44 75.06V122.88C90.44 123.22 90.18 123.48 89.84 123.48Z" fill="#F2F2F2"/>
<path opacity="0.15" d="M81.8199 66.5596H31.4399V96.0396C31.4399 96.9396 32.1799 97.6396 33.0399 97.6396H80.1999C81.0999 97.6396 81.7999 96.8996 81.7999 96.0396L81.8199 66.5596Z" fill="#1F1D20"/>
<path d="M81.8199 64.6597H31.4399V94.1397C31.4399 95.0397 32.1799 95.7397 33.0399 95.7397H80.1999C81.0999 95.7397 81.7999 94.9997 81.7999 94.1397L81.8199 64.6597Z" fill="#9CEBFF"/>
<path d="M80.0999 60.2998H33.1599C32.1999 60.2998 31.4399 61.0598 31.4399 62.0198V65.6998H81.8199V62.0198C81.8199 61.0598 81.0599 60.2998 80.0999 60.2998Z" fill="white"/>
<path opacity="0.15" d="M81.8199 111.64H31.4399V141.12C31.4399 142.02 32.1799 142.72 33.0399 142.72H80.1999C81.0999 142.72 81.7999 141.98 81.7999 141.12L81.8199 111.64Z" fill="#1F1D20"/>
<path d="M81.8199 109.72H31.4399V139.2C31.4399 140.1 32.1799 140.8 33.0399 140.8H80.1999C81.0999 140.8 81.7999 140.06 81.7999 139.2L81.8199 109.72Z" fill="#9CEBFF"/>
<path d="M80.0999 105.38H33.1599C32.1999 105.38 31.4399 106.14 31.4399 107.1V110.78H81.8199V107.1C81.8199 106.14 81.0599 105.38 80.0999 105.38Z" fill="white"/>
<path d="M69.58 80.9401C69.46 78.1001 67.34 75.72 64.54 75.34C64.4 71.28 61.02 68.1 57 68.2C53.8 68.14 50.9199 70.1401 49.7999 73.1601C46.3999 73.5801 43.8 76.4401 43.7 79.9001C43.84 83.8201 47.1 86.88 51 86.74H51.6399H63.4399C63.5399 86.76 63.6599 86.76 63.7599 86.74C66.9199 86.74 69.5 84.1601 69.58 80.9401Z" fill="url(#paint2_linear)"/>
<path d="M57.14 80.3799H56.02V89.3799H57.14V80.3799Z" fill="#B3B3B3"/>
<path d="M56.58 80.6801C58.24 80.6801 59.58 79.3201 59.58 77.6601C59.58 76.0001 58.24 74.6401 56.58 74.6401C54.92 74.6401 53.58 76.0001 53.58 77.6601C53.6 79.3401 54.94 80.6801 56.58 80.6801Z" fill="#F2F2F2"/>
<path d="M54.9199 88.6201H58.2599C58.8399 88.6201 59.2999 89.1001 59.2999 89.6801V93.0601C59.2999 93.6401 58.8199 94.1201 58.2599 94.1201H54.9199C54.3399 94.1201 53.8799 93.6401 53.8799 93.0601V89.6801C53.8599 89.1001 54.3399 88.6201 54.9199 88.6201Z" fill="url(#paint3_linear)"/>
<path d="M72.5601 130.06C72.5201 128.36 71.8801 126.74 70.7401 125.48C69.6001 124.22 68.0401 123.42 66.3601 123.2C66.2601 120.82 65.2201 118.6 63.4801 116.98C61.7401 115.36 59.4401 114.5 57.0601 114.56C55.1401 114.52 53.2601 115.08 51.6601 116.14C50.0601 117.22 48.8401 118.74 48.1601 120.54C46.1201 120.78 44.2601 121.76 42.8801 123.28C41.5001 124.8 40.7401 126.76 40.6801 128.8C40.7601 131.1 41.7601 133.26 43.4401 134.82C45.1201 136.38 47.3601 137.22 49.6401 137.14H50.4201H64.9401C65.0601 137.16 65.2001 137.16 65.3201 137.14C67.2001 137.12 69 136.38 70.34 135.06C71.74 133.74 72.5201 131.94 72.5601 130.06Z" fill="url(#paint4_linear)"/>
<path d="M50.3001 128.32H48.7401C48.6401 127.86 48.3601 127.46 47.9801 127.18C47.6001 126.9 47.1201 126.78 46.6401 126.84C46.1601 126.9 45.7401 127.12 45.4201 127.48C45.1001 127.84 44.9401 128.3 44.9401 128.76C44.9401 129.24 45.1201 129.7 45.4201 130.04C45.7401 130.4 46.1801 130.62 46.6401 130.68C47.1201 130.74 47.5801 130.62 47.9801 130.34C48.3601 130.06 48.6401 129.66 48.7401 129.2H50.3001C50.4001 129.2 50.4801 129.24 50.5601 129.3C50.6201 129.36 50.6601 129.46 50.6601 129.56V137.16H51.5201V129.56C51.5201 129.24 51.4001 128.92 51.1601 128.7C50.9201 128.48 50.6201 128.32 50.3001 128.32ZM46.8401 129.88C46.6201 129.88 46.4001 129.82 46.2201 129.68C46.0401 129.56 45.8801 129.38 45.8001 129.18C45.7201 128.98 45.7001 128.74 45.7401 128.52C45.7801 128.3 45.9001 128.1 46.0401 127.94C46.2001 127.78 46.4001 127.68 46.6201 127.64C46.8401 127.6 47.0601 127.62 47.2801 127.7C47.4801 127.78 47.6601 127.94 47.7801 128.12C47.9001 128.3 47.9801 128.52 47.9801 128.74C47.9801 129.04 47.8601 129.32 47.6401 129.54C47.4401 129.76 47.1401 129.88 46.8401 129.88Z" fill="#9CEBFF"/>
<path d="M56.5201 128.7V126.94C56.5201 126.62 56.3801 126.3 56.1601 126.06C55.9201 125.82 55.6201 125.7 55.2801 125.7H52.5401C52.4401 125.7 52.3601 125.66 52.2801 125.6C52.2201 125.54 52.1801 125.44 52.1801 125.34V115.94L51.7801 116.16L51.3201 116.4V125.24C51.3201 125.56 51.4401 125.88 51.6801 126.1C51.9001 126.32 52.2201 126.46 52.5401 126.46H55.2801C55.3201 126.46 55.3801 126.46 55.4201 126.48C55.4601 126.5 55.5001 126.52 55.5401 126.56C55.5801 126.6 55.6001 126.64 55.6201 126.68C55.6401 126.72 55.6401 126.78 55.6401 126.82V128.58C55.2201 128.68 54.8201 128.92 54.5601 129.26C54.2801 129.6 54.1401 130.02 54.1401 130.46C54.1401 130.82 54.2401 131.18 54.4401 131.48C54.6401 131.78 54.9001 132.04 55.2401 132.2C55.5601 132.36 55.9401 132.42 56.3001 132.38C56.6601 132.34 57.0001 132.2 57.2801 131.98C57.5601 131.76 57.7801 131.46 57.9001 131.12C58.0201 130.78 58.0401 130.4 57.9601 130.06C57.8801 129.7 57.7001 129.38 57.4401 129.12C57.1801 128.86 56.8601 128.68 56.5001 128.6V128.7H56.5201ZM56.0801 131.7C55.8601 131.7 55.6401 131.64 55.4601 131.5C55.2801 131.38 55.1201 131.2 55.0401 131C54.9601 130.8 54.9401 130.56 54.9801 130.34C55.0201 130.12 55.1401 129.92 55.2801 129.76C55.4401 129.6 55.6401 129.5 55.8601 129.46C56.0801 129.42 56.3001 129.44 56.5201 129.52C56.7201 129.6 56.9001 129.76 57.0201 129.94C57.1401 130.12 57.2201 130.34 57.2201 130.56C57.2201 130.7 57.2001 130.86 57.1401 131C57.0801 131.14 57.0001 131.26 56.9001 131.36C56.8001 131.46 56.6601 131.54 56.5401 131.6C56.3801 131.68 56.2401 131.7 56.0801 131.7Z" fill="#F2F2F2"/>
<path d="M66.4201 124.96C65.9401 124.96 65.5001 125.14 65.1401 125.46C64.7801 125.78 64.5601 126.2 64.5001 126.68C64.4401 127.14 64.5601 127.62 64.8401 128C65.1201 128.38 65.5201 128.66 65.9801 128.78V129.14C65.9801 129.18 65.9801 129.24 65.9601 129.28C65.9401 129.32 65.9201 129.36 65.8801 129.4C65.8401 129.44 65.8001 129.46 65.7601 129.48C65.7201 129.5 65.6601 129.5 65.6201 129.5H62.0801V123.28C62.0801 123.12 62.0401 122.96 61.9801 122.82C61.9201 122.68 61.8201 122.54 61.7201 122.42C61.6001 122.3 61.4801 122.22 61.3201 122.16C61.1801 122.1 61.0201 122.06 60.8601 122.06H59.0401C58.9401 121.64 58.7001 121.24 58.3601 120.98C58.0201 120.7 57.6001 120.56 57.1601 120.56C56.8001 120.56 56.4401 120.66 56.1401 120.86C55.8401 121.06 55.5801 121.32 55.4201 121.66C55.2601 121.98 55.2001 122.36 55.2401 122.72C55.2801 123.08 55.4201 123.42 55.6401 123.7C55.8601 123.98 56.1601 124.2 56.5001 124.32C56.8401 124.44 57.2201 124.46 57.5601 124.38C57.9201 124.3 58.2401 124.12 58.5001 123.86C58.7601 123.6 58.9401 123.28 59.0201 122.92H60.9201C61.0201 122.92 61.1001 122.96 61.1801 123.02C61.2401 123.08 61.2801 123.18 61.2801 123.28V137.16H62.1401V130.38H65.6801C66.0001 130.38 66.3201 130.24 66.5601 130.02C66.8001 129.78 66.9201 129.48 66.9201 129.14V128.78C67.3401 128.68 67.7201 128.44 68.0001 128.1C68.2801 127.76 68.4201 127.34 68.4201 126.9C68.4201 126.64 68.3601 126.38 68.2601 126.14C68.1601 125.9 68.0201 125.68 67.8201 125.5C67.6401 125.32 67.4201 125.18 67.1601 125.08C66.9401 125 66.6801 124.96 66.4201 124.96ZM57.1401 123.6C56.9201 123.6 56.7001 123.54 56.5201 123.4C56.3401 123.28 56.1801 123.1 56.1001 122.9C56.0201 122.7 56.0001 122.46 56.0401 122.24C56.0801 122.02 56.2001 121.82 56.3401 121.66C56.5001 121.5 56.7001 121.4 56.9201 121.36C57.1401 121.32 57.3601 121.34 57.5801 121.42C57.7801 121.5 57.9601 121.66 58.0801 121.84C58.2001 122.02 58.2801 122.24 58.2801 122.46C58.2801 122.6 58.2601 122.76 58.2001 122.9C58.1401 123.04 58.0601 123.16 57.9601 123.26C57.8601 123.36 57.7201 123.44 57.6001 123.5C57.4401 123.58 57.3001 123.6 57.1401 123.6ZM66.4201 128.04C66.2001 128.04 65.9801 127.98 65.7801 127.86C65.6001 127.74 65.4401 127.56 65.3601 127.36C65.2801 127.16 65.2401 126.92 65.2801 126.7C65.3201 126.48 65.4201 126.28 65.5801 126.12C65.7401 125.96 65.9401 125.86 66.1601 125.8C66.3801 125.76 66.6001 125.78 66.8201 125.86C67.0201 125.94 67.2001 126.1 67.3401 126.28C67.4601 126.46 67.5401 126.68 67.5401 126.92C67.5401 127.22 67.4201 127.5 67.2201 127.72C67.0001 127.9 66.7201 128.02 66.4201 128.04Z" fill="#9CEBFF"/>
<path opacity="0.15" d="M169.14 64.4399H97.6V145.34H169.16V64.4399H169.14Z" fill="#1F1D20"/>
<path d="M169.14 60.1401H97.6V141.04H169.16V60.1401H169.14Z" fill="#F2F1F0"/>
<path d="M163.48 67.3403H103.3V127.44H163.46V67.3403H163.48Z" fill="#50E6FF"/>
<path d="M103.24 107.62V128.32H163.46V115.66V115.8L153.92 106.2L144.4 115.8L119.22 91.2402L103.2 107.28L103.24 107.62Z" fill="#0078D4"/>
<path d="M155.48 82.3399C155.48 86.6799 151.98 90.1799 147.64 90.1799C143.3 90.1799 139.8 86.6599 139.8 82.3399C139.8 77.9999 143.26 74.4399 147.56 74.4399C151.92 74.4399 155.48 77.9599 155.48 82.3399Z" fill="#0078D4"/>
<path d="M162.18 147.98C171 147.98 178.16 140.82 178.16 132C178.16 123.18 171 116.02 162.18 116.02C153.36 116.02 146.2 123.18 146.2 132C146.22 140.82 153.36 147.98 162.18 147.98Z" fill="#002D4C"/>
<path d="M170.86 123.88L157.68 137.1L153.74 133.14L151.12 135.8L157.7 142.4L173.5 126.54L170.86 123.88Z" fill="#FAF9F8"/>
<defs>
<linearGradient id="paint0_linear" x1="98.461" y1="-27.5793" x2="106.425" y2="263.962" gradientUnits="userSpaceOnUse">
<stop stop-color="#00ABDE"/>
<stop offset="1" stop-color="#007ED8"/>
</linearGradient>
<linearGradient id="paint1_linear" x1="4.86679" y1="-41.2492" x2="195.922" y2="240.513" gradientUnits="userSpaceOnUse">
<stop stop-color="#007ED8"/>
<stop offset="0.7065" stop-color="#002D4C"/>
</linearGradient>
<linearGradient id="paint2_linear" x1="56.6304" y1="86.7677" x2="56.6304" y2="68.2188" gradientUnits="userSpaceOnUse">
<stop stop-color="#198AB3"/>
<stop offset="0.44" stop-color="#28B7DB"/>
<stop offset="0.78" stop-color="#32D4F5"/>
</linearGradient>
<linearGradient id="paint3_linear" x1="56.5871" y1="93.9717" x2="56.5871" y2="89.9777" gradientUnits="userSpaceOnUse">
<stop stop-color="#198AB3"/>
<stop offset="0.44" stop-color="#28B7DB"/>
<stop offset="0.78" stop-color="#32D4F5"/>
</linearGradient>
<linearGradient id="paint4_linear" x1="56.6305" y1="143.78" x2="56.6305" y2="109.412" gradientUnits="userSpaceOnUse">
<stop stop-color="#0078D4"/>
<stop offset="0.16" stop-color="#1380DA"/>
<stop offset="0.53" stop-color="#3C91E5"/>
<stop offset="0.82" stop-color="#559CEC"/>
<stop offset="1" stop-color="#5EA0EF"/>
</linearGradient>
</defs>
</svg>
