<svg width="103" height="103" viewBox="0 0 103 103" fill="none" xmlns="http://www.w3.org/2000/svg">
<path d="M51.0375 97.8558C25.1875 97.8558 4.22754 76.9058 4.22754 51.0458C4.22754 25.1858 25.1875 4.23584 51.0375 4.23584C76.8875 4.23584 97.8475 25.1958 97.8475 51.0458C97.8475 76.8958 76.8875 97.8558 51.0375 97.8558Z" fill="url(#paint0_linear)"/>
<path fill-rule="evenodd" clip-rule="evenodd" d="M96.9375 51.046C96.9375 76.396 76.3875 96.946 51.0375 96.946C25.6875 96.946 5.13746 76.396 5.13746 51.046C5.13746 25.696 25.6875 5.14601 51.0375 5.14601C76.3875 5.14601 96.9375 25.696 96.9375 51.046ZM51.0375 1.40601C78.4575 1.40601 100.677 23.626 100.677 51.046C100.677 78.466 78.4475 100.686 51.0375 100.686C23.6175 100.686 1.39746 78.456 1.39746 51.046C1.39746 23.626 23.6175 1.40601 51.0375 1.40601Z" fill="#F2F1F0"/>
<path fill-rule="evenodd" clip-rule="evenodd" d="M94.127 51.0458C94.127 74.8458 74.837 94.1358 51.037 94.1358C27.237 94.1358 7.94703 74.8458 7.94703 51.0458C7.94703 27.2458 27.237 7.95582 51.037 7.95582C74.837 7.95582 94.127 27.2458 94.127 51.0458ZM51.037 4.21582C76.897 4.21582 97.867 25.1858 97.867 51.0458C97.867 76.9058 76.897 97.8758 51.037 97.8758C25.177 97.8758 4.20703 76.9058 4.20703 51.0458C4.20703 25.1858 25.167 4.21582 51.037 4.21582Z" fill="url(#paint1_linear)"/>
<path opacity="0.15" d="M73.0877 21.9758H29.3877C28.4477 21.9758 27.6777 22.7358 27.6777 23.6858V80.7058C27.6777 81.6458 28.4377 82.4158 29.3877 82.4158H73.0877C74.0277 82.4158 74.7977 81.6558 74.7977 80.7058V23.6758C74.7777 22.7358 74.0177 21.9758 73.0877 21.9758Z" fill="#1F1D20"/>
<path d="M73.0877 19.8657H29.3877C28.4477 19.8657 27.6777 20.6257 27.6777 21.5757V78.5957C27.6777 79.5357 28.4377 80.3057 29.3877 80.3057H73.0877C74.0277 80.3057 74.7977 79.5457 74.7977 78.5957V21.5757C74.7777 20.6257 74.0177 19.8657 73.0877 19.8657Z" fill="#F2F2F2"/>
<path opacity="0.2" d="M36.6774 55.1959H66.8474C68.6874 55.1959 70.1774 53.6959 70.1774 51.8659V33.3859C70.1774 31.5459 68.6774 30.0559 66.8474 30.0559H36.6474C34.8074 30.0559 33.3174 31.5559 33.3174 33.3859V51.8559C33.3274 53.7159 34.8374 55.1959 36.6774 55.1959Z" fill="#1F1D20"/>
<path d="M36.6774 54.4159H66.8474C68.6874 54.4159 70.1774 52.9159 70.1774 51.0859V32.5859C70.1774 30.7459 68.6774 29.2559 66.8474 29.2559H36.6474C34.8074 29.2559 33.3174 30.7559 33.3174 32.5859V51.0459C33.3274 52.9159 34.8374 54.4159 36.6774 54.4159Z" fill="white"/>
<path d="M51.8973 35.8058V33.7158C51.8973 33.0158 51.3373 32.4558 50.6373 32.4558H45.4373C44.7373 32.4558 44.1773 33.0158 44.1773 33.7158V35.8058H38.6573C38.4273 35.8058 38.2373 35.9958 38.2373 36.2258V48.1258C38.2373 48.3558 38.4273 48.5458 38.6573 48.5458H57.4673C57.6973 48.5458 57.8873 48.3558 57.8873 48.1258V36.2258C57.8873 35.9958 57.6973 35.8058 57.4673 35.8058H51.8973V35.8058ZM45.9073 33.5758H50.2073C50.5173 33.5758 50.7673 33.8258 50.7673 34.1358V35.8058H45.3573V34.1358C45.3473 33.8258 45.5973 33.5758 45.9073 33.5758Z" fill="url(#paint2_linear)"/>
<path d="M51.4073 41.3258H48.8073V38.4458H47.2973V41.3258H44.6973V42.8358H47.2973V45.4358H48.8073V42.8358H51.4073V41.3258Z" fill="white"/>
<path d="M65.8577 47.3558V45.2458H64.7977V43.6658C64.7977 43.4458 64.7577 43.2358 64.6777 43.0458C64.5977 42.8558 64.4777 42.6858 64.3377 42.5458C64.1977 42.4058 64.0277 42.2858 63.8377 42.2058C63.6477 42.1258 63.4377 42.0858 63.2177 42.0858H59.5277V40.3658C59.6877 40.2758 59.8177 40.1458 59.9077 39.9758C59.9977 39.8058 60.0477 39.6358 60.0477 39.4458C60.0477 39.2958 60.0177 39.1558 59.9677 39.0358C59.9077 38.9058 59.8377 38.7958 59.7377 38.7058C59.6377 38.6058 59.5277 38.5358 59.4077 38.4758C59.2777 38.4258 59.1477 38.3958 58.9977 38.3958C58.8477 38.3958 58.7077 38.4258 58.5877 38.4758C58.4577 38.5258 58.3477 38.6058 58.2577 38.7058C58.1577 38.8058 58.0877 38.9158 58.0277 39.0358C57.9777 39.1658 57.9477 39.2958 57.9477 39.4458C57.9477 39.6358 57.9977 39.8058 58.0877 39.9758C58.1877 40.1358 58.3077 40.2658 58.4677 40.3658V42.0858H54.7777C54.5577 42.0858 54.3477 42.1258 54.1577 42.2058C53.9677 42.2858 53.7977 42.4058 53.6577 42.5458C53.5177 42.6858 53.3977 42.8558 53.3177 43.0458C53.2377 43.2358 53.1977 43.4458 53.1977 43.6658V45.2458H52.1377V47.3558H53.1977V49.9958C53.1977 50.2158 53.2377 50.4258 53.3177 50.6158C53.3977 50.8058 53.5177 50.9758 53.6577 51.1158C53.7977 51.2558 53.9677 51.3758 54.1577 51.4558C54.3477 51.5358 54.5577 51.5758 54.7777 51.5758H57.4177H61.0377H63.2177C63.4377 51.5758 63.6477 51.5358 63.8377 51.4558C64.0277 51.3758 64.1977 51.2558 64.3377 51.1158C64.4777 50.9758 64.5977 50.8058 64.6777 50.6158C64.7577 50.4258 64.7977 50.2158 64.7977 49.9958V47.3558H65.8577Z" fill="#0D3868"/>
<path d="M57.3276 46.2658H56.2676V45.2058H57.3276V46.2658Z" fill="#50E6FF"/>
<path d="M61.5473 46.2658H60.4873V45.2058H61.5473V46.2658Z" fill="#50E6FF"/>
<path d="M56.6375 47.4358C56.9375 47.7358 57.2875 47.9658 57.6775 48.1358C58.0675 48.2958 58.4775 48.3758 58.9075 48.3758C59.3375 48.3758 59.7475 48.2958 60.1375 48.1358C60.5275 47.9758 60.8775 47.7458 61.1775 47.4358L61.9175 48.1858C61.5175 48.5858 61.0575 48.8958 60.5375 49.1058C60.0175 49.3158 59.4775 49.4258 58.9075 49.4258C58.3375 49.4258 57.7975 49.3158 57.2775 49.1058C56.7575 48.8958 56.2975 48.5858 55.8975 48.1858L56.6375 47.4358Z" fill="#50E6FF"/>
<path fill-rule="evenodd" clip-rule="evenodd" d="M54.1865 12.016C55.8265 12.886 56.7965 14.636 56.7965 16.486V16.936C56.7965 17.106 56.7865 17.256 56.7665 17.426H60.3165C61.3765 17.426 62.3665 17.956 62.8965 18.876C64.3965 21.496 62.5465 24.176 60.0665 24.176H42.1565C41.0965 24.176 40.1065 23.646 39.5765 22.726C38.0765 20.106 39.9265 17.426 42.4065 17.426H45.7165C45.7065 17.266 45.7065 17.106 45.7065 16.936V16.796C45.6965 12.786 49.9465 9.77604 54.1865 12.016Z" fill="#0D3868"/>
<path d="M51.2373 19.3857C52.4973 19.3857 53.5273 18.3657 53.5273 17.0957C53.5273 15.8357 52.5073 14.8057 51.2373 14.8057C49.9773 14.8057 48.9473 15.8257 48.9473 17.0957C48.9473 18.3657 49.9773 19.3857 51.2373 19.3857Z" fill="#F2F2F2"/>
<path d="M50.1169 59.0059H36.4069C35.8069 59.0059 35.3369 59.4959 35.3369 60.0759C35.3369 60.6759 35.8269 61.1459 36.4069 61.1459H50.1169C50.7169 61.1459 51.1869 60.6559 51.1869 60.0759C51.1869 59.4959 50.7169 59.0059 50.1169 59.0059Z" fill="#50E6FF"/>
<path d="M50.1169 63.6858H36.4069C35.8069 63.6858 35.3369 64.1758 35.3369 64.7558C35.3369 65.3558 35.8269 65.8258 36.4069 65.8258H50.1169C50.7169 65.8258 51.1869 65.3358 51.1869 64.7558C51.1869 64.1958 50.7169 63.6858 50.1169 63.6858Z" fill="#32B0E7"/>
<path fill-rule="evenodd" clip-rule="evenodd" d="M36.4065 68.7458H43.2565C43.8565 68.7458 44.3265 69.2358 44.3265 69.8158C44.3265 70.4158 43.8365 70.8858 43.2565 70.8858H36.4065C35.8065 70.8858 35.3365 70.3958 35.3365 69.8158C35.3165 69.2358 35.8065 68.7458 36.4065 68.7458Z" fill="#185A97"/>
<path d="M69.6377 83.2359C74.3077 83.2359 78.0977 79.4559 78.0977 74.7759C78.0977 70.1059 74.3177 66.3159 69.6377 66.3159C64.9677 66.3159 61.1777 70.0959 61.1777 74.7759C61.1977 79.4459 64.9777 83.2359 69.6377 83.2359Z" fill="#0D3868"/>
<path d="M74.2466 70.4858L67.2866 77.4858L65.1966 75.3858L63.8066 76.7858L67.2866 80.2758L75.6566 71.8858L74.2466 70.4858Z" fill="#FAF9F8"/>
<defs>
<linearGradient id="paint0_linear" x1="49.268" y1="-13.7482" x2="53.251" y2="132.02" gradientUnits="userSpaceOnUse">
<stop stop-color="#00ABDE"/>
<stop offset="1" stop-color="#007ED8"/>
</linearGradient>
<linearGradient id="paint1_linear" x1="51.037" y1="-2.44588" x2="51.037" y2="99.3178" gradientUnits="userSpaceOnUse">
<stop stop-color="#007ED8"/>
<stop offset="0.7065" stop-color="#002D4C"/>
</linearGradient>
<linearGradient id="paint2_linear" x1="46.9291" y1="17.5282" x2="48.9144" y2="60.9219" gradientUnits="userSpaceOnUse">
<stop offset="0.0435" stop-color="white"/>
<stop offset="0.4857" stop-color="#4DC1EA"/>
<stop offset="0.8452" stop-color="#0078D4"/>
</linearGradient>
</defs>
</svg>
