<svg width="103" height="103" viewBox="0 0 103 103" fill="none" xmlns="http://www.w3.org/2000/svg">
<path d="M51.4418 98.3221C25.5918 98.3221 4.63184 77.3722 4.63184 51.5121C4.63184 25.6521 25.5918 4.70215 51.4418 4.70215C77.2918 4.70215 98.2518 25.6621 98.2518 51.5121C98.2518 77.3622 77.2918 98.3221 51.4418 98.3221Z" fill="url(#paint0_linear)"/>
<path fill-rule="evenodd" clip-rule="evenodd" d="M97.3419 51.5121C97.3419 76.8621 76.7919 97.4121 51.4419 97.4121C26.0919 97.4121 5.54188 76.8621 5.54188 51.5121C5.54188 26.1621 26.0919 5.61207 51.4419 5.61207C76.7919 5.61207 97.3419 26.1621 97.3419 51.5121ZM51.4419 1.87207C78.8619 1.87207 101.082 24.0921 101.082 51.5121C101.082 78.9321 78.8519 101.152 51.4419 101.152C24.0219 101.152 1.80188 78.9221 1.80188 51.5121C1.80188 24.0921 24.0219 1.87207 51.4419 1.87207Z" fill="#F2F1F0"/>
<path fill-rule="evenodd" clip-rule="evenodd" d="M94.5319 51.5116C94.5319 75.3116 75.2419 94.6016 51.4419 94.6016C27.6419 94.6016 8.35194 75.3116 8.35194 51.5116C8.35194 27.7116 27.6419 8.42164 51.4419 8.42164C75.2419 8.42164 94.5319 27.7116 94.5319 51.5116ZM51.4419 4.68164C77.3019 4.68164 98.2719 25.6516 98.2719 51.5116C98.2719 77.3716 77.3019 98.3416 51.4419 98.3416C25.5819 98.3416 4.61194 77.3716 4.61194 51.5116C4.61194 25.6516 25.5719 4.68164 51.4419 4.68164Z" fill="url(#paint1_linear)"/>
<path fill-rule="evenodd" clip-rule="evenodd" d="M57.5618 38.0209L55.4918 37.5609L55.8618 35.9209L57.9318 36.3809L57.5618 38.0209ZM60.8618 38.7509L58.8018 38.2909L59.1718 36.6509L61.2318 37.1009L60.8618 38.7509ZM64.1718 39.4709L62.1118 39.0109L62.4818 37.3709L64.5418 37.8309L64.1718 39.4709ZM67.4718 40.2009L65.4018 39.7509L65.7718 38.1109L67.8418 38.5709L67.4718 40.2009ZM70.7718 40.9309L68.7018 40.4809L69.0718 38.8409L71.1418 39.2909L70.7718 40.9309ZM74.0818 41.6609L72.0218 41.2009L72.3918 39.5609L74.4418 40.0209L74.0818 41.6609Z" fill="#006DD6"/>
<path fill-rule="evenodd" clip-rule="evenodd" d="M76.2318 40.761L75.5418 38.781L72.5218 30.051L70.8718 25.291L72.4718 24.751L74.5318 30.701L77.5518 39.431L77.8218 40.221L76.2318 40.761Z" fill="#006DD6"/>
<path fill-rule="evenodd" clip-rule="evenodd" d="M79.2318 47.921L78.2719 46.051L79.7818 45.291L80.7419 47.161L79.2318 47.921ZM80.7719 50.911L79.8119 49.041L81.3218 48.281L82.2818 50.151L80.7719 50.911ZM82.3119 53.901L81.3519 52.031L82.8618 51.271L83.8218 53.141L82.3119 53.901Z" fill="#006DD6"/>
<path fill-rule="evenodd" clip-rule="evenodd" d="M69.8118 54.0211L69.1018 52.6011L76.2118 40.9111L76.9218 42.3311L69.8118 54.0211Z" fill="#006DD6"/>
<path fill-rule="evenodd" clip-rule="evenodd" d="M75.2318 25.3318L73.5018 19.7218C73.4818 19.6518 73.4418 19.6018 73.3918 19.5518C73.3818 19.5818 73.3718 19.6218 73.3518 19.6618L69.1118 27.5618C69.1018 27.5718 69.1018 27.5718 69.0918 27.5818C69.1518 27.5918 69.2218 27.5918 69.2818 27.5718L74.9418 25.8518C75.1718 25.7818 75.3018 25.5518 75.2318 25.3318Z" fill="#89C402"/>
<path fill-rule="evenodd" clip-rule="evenodd" d="M73.3518 19.6613C73.3718 19.6213 73.3818 19.5813 73.3918 19.5513C73.2818 19.4413 73.1318 19.3913 72.9718 19.4413L67.3118 21.1613C67.0918 21.2313 66.9618 21.4613 67.0318 21.6813L68.7618 27.3013C68.8118 27.4613 68.9518 27.5613 69.1018 27.5913C69.1118 27.5813 69.1118 27.5813 69.1218 27.5713L73.3518 19.6613Z" fill="#ADD458"/>
<path fill-rule="evenodd" clip-rule="evenodd" d="M80.3918 36.7109C80.3818 36.7309 80.3718 36.7509 80.3518 36.7709L72.2818 44.7709C72.2618 44.7909 72.2418 44.8009 72.2218 44.8109C72.2818 44.8409 72.3418 44.8609 72.4018 44.8609H80.0218C80.2518 44.8609 80.4418 44.6709 80.4418 44.4409V36.8909C80.4418 36.8309 80.4218 36.7709 80.3918 36.7109Z" fill="#89C402"/>
<path fill-rule="evenodd" clip-rule="evenodd" d="M80.3518 36.7717C80.3718 36.7517 80.3818 36.7317 80.3918 36.7117C80.3218 36.5717 80.1818 36.4717 80.0118 36.4717H72.3918C72.1618 36.4717 71.9718 36.6617 71.9718 36.8917V44.4417C71.9718 44.6117 72.0718 44.7417 72.2118 44.8117C72.2318 44.8017 72.2518 44.7917 72.2718 44.7717L80.3518 36.7717Z" fill="#ADD458"/>
<path fill-rule="evenodd" clip-rule="evenodd" d="M65.9219 55.1113C65.8919 55.1213 65.8519 55.1113 65.8019 55.1013C65.8319 55.1713 65.8719 55.2313 65.9419 55.2713L68.7519 57.1513C68.9419 57.2813 69.2119 57.2313 69.3419 57.0413L71.2319 54.2613C71.2719 54.2013 71.2919 54.1413 71.2919 54.0713C71.2819 54.0713 71.2719 54.0813 71.2619 54.0813L65.9219 55.1113Z" fill="#89C402"/>
<path fill-rule="evenodd" clip-rule="evenodd" d="M71.1218 53.6809L68.3118 51.8009C68.1218 51.6709 67.8518 51.7209 67.7218 51.9109L65.8318 54.6909C65.7418 54.8209 65.7418 54.9709 65.8018 55.1009C65.8418 55.1109 65.8918 55.1209 65.9218 55.1109L71.2618 54.0809C71.2718 54.0809 71.2818 54.0709 71.2918 54.0709C71.3218 53.9209 71.2618 53.7709 71.1218 53.6809Z" fill="#ADD458"/>
<path fill-rule="evenodd" clip-rule="evenodd" d="M89.4519 58.151L86.7619 52.921C86.7219 52.841 86.6619 52.791 86.5919 52.751C86.6019 52.811 86.6019 52.861 86.5919 52.891L83.8019 61.401C83.8019 61.411 83.7919 61.421 83.7919 61.431C83.8619 61.431 83.9319 61.421 83.9919 61.391L89.2719 58.721C89.4819 58.601 89.5619 58.351 89.4519 58.151Z" fill="#89C402"/>
<path fill-rule="evenodd" clip-rule="evenodd" d="M86.5918 52.881C86.6018 52.851 86.6018 52.801 86.5918 52.741C86.4718 52.671 86.3218 52.661 86.1918 52.721L80.9118 55.391C80.7018 55.491 80.6218 55.751 80.7318 55.951L83.4218 61.181C83.4918 61.321 83.6418 61.401 83.7918 61.401C83.7918 61.391 83.8018 61.391 83.8018 61.381L86.5918 52.881Z" fill="#ADD458"/>
<path fill-rule="evenodd" clip-rule="evenodd" d="M51.5419 38.1713C51.5419 38.1913 51.5419 38.2013 51.5419 38.2213L51.5619 38.1113L51.5419 38.1713Z" fill="#89C402"/>
<path fill-rule="evenodd" clip-rule="evenodd" d="M51.7719 38.5514C51.7319 38.5714 51.7019 38.5814 51.6619 38.5914C51.7119 38.6314 51.7619 38.6714 51.8319 38.6914L56.7319 39.9914C56.9619 40.0514 57.1919 39.9214 57.2519 39.6914L58.5619 34.8314C58.5819 34.7714 58.5819 34.7114 58.5619 34.6514C58.5519 34.6614 58.5519 34.6714 58.5319 34.6714L51.7719 38.5514Z" fill="#89C402"/>
<path fill-rule="evenodd" clip-rule="evenodd" d="M51.5318 38.2314L51.5118 38.3614C51.4618 38.5414 51.5318 38.6214 51.6618 38.5914C51.5618 38.5014 51.5118 38.3614 51.5318 38.2314Z" fill="white"/>
<path fill-rule="evenodd" clip-rule="evenodd" d="M58.2718 34.3214L53.3718 33.0214C53.1518 32.9614 52.9118 33.0914 52.8518 33.3214L51.5518 38.1314L51.5318 38.2414C51.5118 38.3814 51.5618 38.5114 51.6618 38.6014C51.6918 38.5914 51.7318 38.5814 51.7718 38.5614L58.5518 34.6814C58.5618 34.6714 58.5718 34.6614 58.5818 34.6614C58.5518 34.4914 58.4318 34.3614 58.2718 34.3214Z" fill="#ADD458"/>
<path d="M62.3818 25.7012H42.3918C40.9918 25.7012 39.8618 26.8312 39.8618 28.2312V65.3112C39.8618 66.7112 40.9918 67.8412 42.3918 67.8412H62.3818C63.7818 67.8412 64.9118 66.7112 64.9118 65.3112V28.2312C64.9118 26.8412 63.7818 25.7012 62.3818 25.7012Z" fill="url(#paint2_linear)"/>
<path d="M61.6019 39.0508H56.5419V44.9508H61.6019V39.0508V39.0508Z" fill="white"/>
<path d="M48.1219 48.3213H43.0619V54.2213H48.1219V48.3213Z" fill="white"/>
<path d="M48.1718 29.7812H43.1118V35.6812H48.1718V29.7812Z" fill="white"/>
<path d="M54.9218 29.7812H49.8618V35.6812H54.9218V29.7812Z" fill="white"/>
<path d="M61.6618 29.7812H56.6018V35.6812H61.6618V29.7812Z" fill="white"/>
<path d="M48.1718 39.0508H43.1118V44.9508H48.1718V39.0508Z" fill="white"/>
<path d="M54.9218 39.0508H49.8618V44.9508H54.9218V39.0508Z" fill="white"/>
<path d="M54.9218 48.3213H49.8618V54.2213H54.9218V48.3213Z" fill="white"/>
<path d="M61.6019 48.3213H56.5419V54.2213H61.6019V48.3213V48.3213Z" fill="white"/>
<path d="M35.4919 56.0811C34.9719 56.0811 34.4619 56.2311 34.0319 56.5211C33.6019 56.8011 33.2519 57.2111 33.0519 57.6811H17.3419C16.0719 57.6811 14.8419 57.1711 13.9419 56.2711C13.0419 55.3711 12.5319 54.1511 12.5319 52.8711C12.5319 51.5911 13.0419 50.3711 13.9419 49.4711C14.8419 48.5711 16.0619 48.0611 17.3419 48.0611H19.5719C19.6619 47.5111 19.8219 46.9811 20.0519 46.4811C20.1319 46.2911 20.2319 46.1111 20.3319 45.9311C20.8619 45.0111 21.6119 44.2411 22.5219 43.6811C23.4219 43.1211 24.4519 42.8011 25.5219 42.7411C26.5819 42.6811 27.6419 42.8911 28.6019 43.3411C29.5619 43.7911 30.4019 44.4811 31.0319 45.3311C31.7019 45.0211 32.4019 44.7811 33.1319 44.6211C32.3019 43.2811 31.1119 42.2011 29.7019 41.5011C28.2919 40.8011 26.7119 40.5011 25.1519 40.6311C23.5819 40.7711 22.0819 41.3311 20.8119 42.2711C19.5419 43.2111 18.5619 44.4811 17.9719 45.9411L17.9619 45.9711L17.9719 45.9411H17.3419C15.5019 45.9411 13.7319 46.6711 12.4319 47.9711C11.1319 49.2711 10.4019 51.0411 10.4019 52.8811C10.4019 54.7211 11.1319 56.4911 12.4319 57.7911C13.7319 59.0911 15.5019 59.8211 17.3419 59.8211H33.0419C33.2319 60.2611 33.5419 60.6411 33.9319 60.9211C34.3219 61.2011 34.7819 61.3711 35.2619 61.4111C35.7419 61.4511 36.2219 61.3611 36.6519 61.1511C37.0819 60.9411 37.4519 60.6211 37.7119 60.2111C37.9719 59.8111 38.1219 59.3411 38.1419 58.8611C38.1619 58.3811 38.0519 57.9011 37.8219 57.4811C37.5919 57.0611 37.2519 56.7011 36.8419 56.4611C36.4419 56.2111 35.9719 56.0811 35.4919 56.0811Z" fill="url(#paint3_linear)"/>
<path d="M44.1019 50.7715C43.2219 48.9915 41.8119 47.5315 40.0619 46.5915C38.3119 45.6515 36.3219 45.2715 34.3419 45.5115C32.3719 45.7515 30.5219 46.5915 29.0519 47.9215C27.5819 49.2515 26.5519 51.0115 26.1219 52.9515C25.0519 53.0515 24.0119 53.3915 23.0819 53.9315C22.1519 54.4715 21.3519 55.2115 20.7319 56.1015H32.1719C32.7219 55.4115 33.4819 54.9115 34.3319 54.6615C35.1819 54.4215 36.0919 54.4415 36.9219 54.7415C37.7519 55.0315 38.4819 55.5815 38.9919 56.3015C39.5019 57.0215 39.7819 57.8815 39.7819 58.7715C39.7819 59.6515 39.5119 60.5215 38.9919 61.2415C38.4819 61.9615 37.7519 62.5115 36.9219 62.8015C36.0919 63.0915 35.1819 63.1215 34.3319 62.8815C33.4819 62.6415 32.7319 62.1315 32.1719 61.4415H19.4419C19.6919 63.2215 20.5819 64.8515 21.9419 66.0315C23.3019 67.2115 25.0419 67.8615 26.8419 67.8615H44.0319C46.2819 67.8515 48.4419 66.9515 50.0319 65.3615C51.6219 63.7715 52.5219 61.6115 52.5319 59.3615C52.5419 57.1115 51.6619 54.9415 50.0819 53.3415C48.5019 51.7215 46.3519 50.8015 44.1019 50.7715Z" fill="url(#paint4_linear)"/>
<path d="M65.8419 77.4319C73.5019 77.4319 79.7019 71.2219 79.7019 63.5719C79.7019 55.9219 73.4919 49.7119 65.8419 49.7119C58.1819 49.7119 51.9819 55.9219 51.9819 63.5719C51.9819 71.2219 58.1919 77.4319 65.8419 77.4319Z" fill="#002D4C"/>
<path d="M73.382 56.5117L61.952 67.9817L58.532 64.5417L56.252 66.8417L61.962 72.5617L75.6819 58.8017L73.382 56.5117Z" fill="#FAF9F8"/>
<defs>
<linearGradient id="paint0_linear" x1="49.6719" y1="-13.2773" x2="53.6539" y2="132.493" gradientUnits="userSpaceOnUse">
<stop stop-color="#00ABDE"/>
<stop offset="1" stop-color="#007ED8"/>
</linearGradient>
<linearGradient id="paint1_linear" x1="2.87514" y1="-20.1131" x2="98.4031" y2="120.769" gradientUnits="userSpaceOnUse">
<stop stop-color="#007ED8"/>
<stop offset="0.7065" stop-color="#002D4C"/>
</linearGradient>
<linearGradient id="paint2_linear" x1="51.9876" y1="69.0791" x2="52.6991" y2="29.5939" gradientUnits="userSpaceOnUse">
<stop stop-color="#1988D9"/>
<stop offset="0.22" stop-color="#218DDC"/>
<stop offset="0.56" stop-color="#379CE5"/>
<stop offset="0.9" stop-color="#54AEF0"/>
</linearGradient>
<linearGradient id="paint3_linear" x1="10.4006" y1="51.0104" x2="38.156" y2="51.0104" gradientUnits="userSpaceOnUse">
<stop offset="0.09" stop-color="#32BEDD"/>
<stop offset="0.21" stop-color="#3BCAE7"/>
<stop offset="0.42" stop-color="#47DAF5"/>
<stop offset="0.66" stop-color="#4EE3FD"/>
<stop offset="1" stop-color="#50E6FF"/>
</linearGradient>
<linearGradient id="paint4_linear" x1="35.6398" y1="52.8591" x2="36.3512" y2="68.1552" gradientUnits="userSpaceOnUse">
<stop offset="0.22" stop-color="#32D4F5"/>
<stop offset="1" stop-color="#198AB3"/>
</linearGradient>
</defs>
</svg>
