<svg width="103" height="102" viewBox="0 0 103 102" fill="none" xmlns="http://www.w3.org/2000/svg">
<path d="M51.447 97.8099C25.597 97.8099 4.63702 76.8599 4.63702 50.9999C4.63702 25.1399 25.597 4.18994 51.447 4.18994C77.297 4.18994 98.257 25.1499 98.257 50.9999C98.257 76.8499 77.297 97.8099 51.447 97.8099Z" fill="url(#paint0_linear)"/>
<path fill-rule="evenodd" clip-rule="evenodd" d="M97.347 51.0001C97.347 76.3501 76.797 96.9001 51.447 96.9001C26.097 96.9001 5.54701 76.3501 5.54701 51.0001C5.54701 25.6501 26.097 5.10011 51.447 5.10011C76.797 5.10011 97.347 25.6501 97.347 51.0001ZM51.447 1.36011C78.867 1.36011 101.087 23.5801 101.087 51.0001C101.087 78.4201 78.857 100.64 51.447 100.64C24.027 100.64 1.80701 78.4101 1.80701 51.0001C1.80701 23.5801 24.027 1.36011 51.447 1.36011Z" fill="#F2F1F0"/>
<path fill-rule="evenodd" clip-rule="evenodd" d="M94.537 50.9999C94.537 74.7999 75.247 94.0899 51.447 94.0899C27.647 94.0899 8.35703 74.7999 8.35703 50.9999C8.35703 27.1999 27.647 7.90992 51.447 7.90992C75.247 7.90992 94.537 27.1999 94.537 50.9999ZM51.447 4.16992C77.307 4.16992 98.277 25.1399 98.277 50.9999C98.277 76.8599 77.307 97.8299 51.447 97.8299C25.587 97.8299 4.61703 76.8599 4.61703 50.9999C4.61703 25.1399 25.577 4.16992 51.447 4.16992Z" fill="url(#paint1_linear)"/>
<path d="M22.857 72.86H79.567C80.887 72.86 81.937 71.8 81.937 70.49V27.9C81.937 26.58 80.877 25.53 79.567 25.53H22.857C21.537 25.53 20.487 26.59 20.487 27.9V70.48C20.487 71.79 21.547 72.86 22.857 72.86Z" fill="url(#paint2_linear)"/>
<path d="M20.487 31.0101H81.917V27.0701C81.917 25.7101 80.807 24.6001 79.447 24.6001H22.957C21.597 24.6001 20.487 25.7101 20.487 27.0701V31.0101V31.0101Z" fill="#50E6FF"/>
<path d="M24.317 29.4901C25.167 29.4901 25.877 28.8001 25.877 27.9301C25.877 27.0601 25.177 26.3701 24.317 26.3701C23.457 26.3701 22.757 27.0701 22.757 27.9301C22.747 28.7901 23.457 29.4901 24.317 29.4901Z" fill="#0078D4"/>
<path d="M74.037 80.73C80.517 80.73 85.767 75.48 85.767 69C85.767 62.52 80.517 57.27 74.037 57.27C67.557 57.27 62.307 62.52 62.307 69C62.307 75.48 67.557 80.73 74.037 80.73Z" fill="#002D4C"/>
<path d="M74.347 63.9199C75.317 63.9199 76.097 63.1399 76.097 62.1699C76.097 61.1999 75.317 60.4199 74.347 60.4199C73.377 60.4199 72.597 61.1999 72.597 62.1699C72.597 63.1399 73.377 63.9199 74.347 63.9199Z" fill="white"/>
<path d="M81.897 65.42C81.897 64.88 81.467 64.46 80.937 64.46C80.857 64.46 80.777 64.48 80.707 64.49C80.707 64.49 76.737 65.01 74.477 65.01C72.497 65.01 68.977 64.77 68.087 64.55C67.957 64.49 67.707 64.5 67.557 64.5C67.017 64.5 66.707 64.88 66.707 65.42C66.707 65.9 67.057 66.3 67.517 66.37C67.727 66.43 69.907 66.39 72.347 66.63C72.347 67.67 72.347 69.53 72.347 70.14C72.347 70.93 71.247 74.77 70.897 75.74C70.807 75.92 70.757 76.06 70.757 76.24C70.757 76.78 71.187 77.2 71.717 77.2C72.097 77.2 72.417 76.99 72.577 76.67C72.607 76.63 73.267 75.73 73.677 73.85C73.887 72.88 74.047 71.34 74.047 71.34H74.597C74.597 71.34 74.807 73.14 75.017 73.99C75.227 74.83 76.067 76.63 76.067 76.63C76.217 76.98 76.577 77.21 76.967 77.21C77.507 77.21 77.927 76.78 77.927 76.25C77.927 76.09 77.887 75.94 77.817 75.81C77.647 75.43 77.047 74 76.887 72.92C76.707 71.67 76.597 71.26 76.597 70.17C76.597 69.43 76.597 67.68 76.597 66.65C79.127 66.4 81.257 66.34 81.257 66.34V66.33C81.617 66.2 81.897 65.85 81.897 65.42Z" fill="white"/>
<path d="M54.437 47.24H47.897V53.79H54.447V47.24H54.437Z" fill="white"/>
<path d="M60.987 40.76L58.677 43.07L66.147 50.54L58.597 58.09L60.907 60.4L70.767 50.54L60.987 40.76Z" fill="#50E6FF"/>
<path d="M41.127 60.41L43.437 58.1L35.967 50.63L43.517 43.08L41.207 40.77L31.337 50.63L41.127 60.41Z" fill="#50E6FF"/>
<defs>
<linearGradient id="paint0_linear" x1="49.6771" y1="-13.7897" x2="53.6591" y2="131.98" gradientUnits="userSpaceOnUse">
<stop stop-color="#00ABDE"/>
<stop offset="1" stop-color="#007ED8"/>
</linearGradient>
<linearGradient id="paint1_linear" x1="2.87974" y1="-20.6246" x2="98.4067" y2="120.257" gradientUnits="userSpaceOnUse">
<stop stop-color="#007ED8"/>
<stop offset="0.7065" stop-color="#002D4C"/>
</linearGradient>
<linearGradient id="paint2_linear" x1="4.9833" y1="9.03153" x2="155.944" y2="140.179" gradientUnits="userSpaceOnUse">
<stop stop-color="#007ED8"/>
<stop offset="0.7065" stop-color="#002D4C"/>
</linearGradient>
</defs>
</svg>
