<?xml version="1.0" encoding="UTF-8"?>
<svg width="107px" height="107px" viewBox="0 0 107 107" version="1.1" xmlns="http://www.w3.org/2000/svg" xmlns:xlink="http://www.w3.org/1999/xlink">
    <!-- Generator: Sketch 61.2 (89653) - https://sketch.com -->
    <title>Cloud computing basics for developers/Economics-of-the-cloud</title>
    <desc>Created with Sketch.</desc>
    <defs>
        <rect id="path-1" x="0" y="0" width="100" height="100" rx="50"></rect>
        <filter x="-5.4%" y="-8.5%" width="110.8%" height="117.0%" filterUnits="objectBoundingBox" id="filter-3">
            <feOffset dx="0" dy="2" in="SourceAlpha" result="shadowOffsetOuter1"></feOffset>
            <feColorMatrix values="0 0 0 0 0   0 0 0 0 0   0 0 0 0 0  0 0 0 0.0964956975 0" type="matrix" in="shadowOffsetOuter1" result="shadowMatrixOuter1"></feColorMatrix>
            <feMerge>
                <feMergeNode in="shadowMatrixOuter1"></feMergeNode>
                <feMergeNode in="SourceGraphic"></feMergeNode>
            </feMerge>
        </filter>
        <rect id="path-4" x="0" y="0" width="50" height="36.3636364" rx="8"></rect>
        <linearGradient x1="50%" y1="0%" x2="50%" y2="100%" id="linearGradient-6">
            <stop stop-color="#62B0FF" offset="0%"></stop>
            <stop stop-color="#519DFF" offset="100%"></stop>
        </linearGradient>
        <linearGradient x1="50%" y1="0%" x2="50%" y2="100%" id="linearGradient-7">
            <stop stop-color="#62B0FF" offset="0%"></stop>
            <stop stop-color="#519DFF" offset="100%"></stop>
        </linearGradient>
        <linearGradient x1="50%" y1="0%" x2="50%" y2="100%" id="linearGradient-8">
            <stop stop-color="#62B0FF" offset="0%"></stop>
            <stop stop-color="#519DFF" offset="100%"></stop>
        </linearGradient>
        <linearGradient x1="50%" y1="0%" x2="50%" y2="100%" id="linearGradient-9">
            <stop stop-color="#62B0FF" offset="0%"></stop>
            <stop stop-color="#519DFF" offset="100%"></stop>
        </linearGradient>
        <linearGradient x1="50%" y1="0%" x2="50%" y2="100%" id="linearGradient-10">
            <stop stop-color="#62B0FF" offset="0%"></stop>
            <stop stop-color="#519DFF" offset="100%"></stop>
        </linearGradient>
        <linearGradient x1="50%" y1="0%" x2="50%" y2="100%" id="linearGradient-11">
            <stop stop-color="#62B0FF" offset="0%"></stop>
            <stop stop-color="#519DFF" offset="100%"></stop>
        </linearGradient>
        <linearGradient x1="78.4210223%" y1="-7.24023438%" x2="15.5786468%" y2="110.793945%" id="linearGradient-12">
            <stop stop-color="#FFFFFF" offset="0%"></stop>
            <stop stop-color="#000000" stop-opacity="0.5" offset="100%"></stop>
        </linearGradient>
        <rect id="path-13" x="-3" y="-3" width="106" height="106" rx="53"></rect>
        <filter x="-0.5%" y="-0.5%" width="101.9%" height="101.9%" filterUnits="objectBoundingBox" id="filter-14">
            <feOffset dx="1" dy="1" in="SourceAlpha" result="shadowOffsetOuter1"></feOffset>
            <feMorphology radius="4" operator="erode" in="SourceAlpha" result="shadowInner"></feMorphology>
            <feOffset dx="1" dy="1" in="shadowInner" result="shadowInner"></feOffset>
            <feComposite in="shadowOffsetOuter1" in2="shadowInner" operator="out" result="shadowOffsetOuter1"></feComposite>
            <feColorMatrix values="0 0 0 0 0   0 0 0 0 0   0 0 0 0 0  0 0 0 0.15 0" type="matrix" in="shadowOffsetOuter1"></feColorMatrix>
        </filter>
    </defs>
    <g id="Badges" stroke="none" stroke-width="1" fill="none" fill-rule="evenodd">
        <g id="Cloud-computing-basics-for-developers" transform="translate(-47.000000, -857.000000)">
            <g id="Cloud-computing-basics-for-developers/Economics-of-the-cloud" transform="translate(50.000000, 860.000000)">
                <g id="Mask" transform="translate(2.000000, 2.000000)">
                    <g id="Circle-" transform="translate(-2.000000, -0.000000)">
                        <mask id="mask-2" fill="white">
                            <use xlink:href="#path-1"></use>
                        </mask>
                        <g id="BG"></g>
                        <g id="Color/Blue" mask="url(#mask-2)" fill="#55A2FF" fill-rule="evenodd">
                            <rect id="Rectangle" x="0" y="0" width="100" height="100"></rect>
                        </g>
                    </g>
                    <g id="One-Cloud" filter="url(#filter-3)" transform="translate(11.000000, 21.000000)">
                        <path d="M16.1875,14.1 C16.3042812,14.1 16.4175938,14.115275 16.5332187,14.117625 C18.1334687,6.064175 25.1345625,0 33.53125,0 C41.037625,0 47.410875,4.853925 49.825125,11.63485 C51.194125,10.96275 52.7226875,10.575 54.34375,10.575 C60.0914688,10.575 64.75,15.309075 64.75,21.15 C64.75,21.31685 64.7326563,21.477825 64.7257188,21.642325 C70.0745313,23.171 74,28.151825 74,34.075 C74,41.213125 68.3054688,47 61.28125,47 L16.1875,47 C7.247375,47 0,39.6351 0,30.55 C0,21.4649 7.247375,14.1 16.1875,14.1" id="Fill-11" fill="#FFFFFF"></path>
                        <path d="M62.5909702,21.5545596 C63.4133298,21.6165238 64.2098898,21.766173 64.9774254,22 C64.9838753,21.8363211 65,21.6761496 65,21.5101325 C65,18.0074045 63.4197796,14.9127046 61,13 C62.1588283,14.7349961 62.8500403,16.8628215 62.8500403,19.1718628 C62.8500403,19.9925955 62.7543671,20.7876072 62.5909702,21.5545596" id="Fill-12" fill="#C4CBCD"></path>
                        <path d="M60.8508317,47 C68.6717764,47 73.7460969,41.6945203 73.991743,34.8377844 C74.1551209,30.2849852 71.8805764,26.2462117 68.3592617,23.9009693 C70.1123875,26.480277 70.9292769,29.7330959 70.3267485,33.1867062 C69.4843676,38.013729 65.744057,41.9836597 60.9435283,43.1677547 C58.2611185,43.8297923 55.6934208,43.6129377 53.4188763,42.7914144 C54.6969316,41.0783778 55.4605204,38.9672008 55.4605204,36.6735905 C55.4605204,33.2360435 53.7572192,30.1989318 51.1489667,28.32182 C52.7213339,30.4651236 53.4953511,33.2199802 52.9889955,36.1687438 C52.2613267,40.4117507 48.8095345,43.8309397 44.5257898,44.5526409 C43.6359017,44.7018002 42.7633944,44.7385163 41.9198547,44.6754105 C38.6140598,44.4252819 35.887619,42.0215232 34.9676046,38.8673788 C34.7520848,38.1261721 34.6037702,37.3666073 34.6037702,36.6735905 C34.6037702,36.257092 34.6338966,35.8486251 34.6848798,35.4458952 C34.8888124,33.7408902 35.5087214,32.1632443 36.4472752,30.8173689 C35.1147606,31.347458 33.7069299,31.7306825 32.236529,31.9211474 C32.2562271,31.5941444 32.2863535,31.2694362 32.2863535,30.9366963 C32.2863535,25.6220376 29.6688313,20.9246686 25.6527482,18 C28.0825596,21.2746192 29.3119492,25.4774679 28.6178829,29.9889614 C27.5669344,36.8227498 22.0086104,42.326726 15.1073435,43.3673986 C10.5513023,44.0546785 6.30695362,42.8373096 3,40.4312562 C5.95354758,44.4080712 10.6972996,47 16.0644366,47 L45.0321453,47 L60.8508317,47 Z" id="Fill-13" fill="#E6E6E6"></path>
                        <path d="M45.6413735,25.422359 C46.9665112,25.422359 48.2344214,25.6322051 49.4183976,26 C51.0500212,23.5055385 52,20.6162051 52,17.5249231 C52,11.9876923 48.9885545,7.08676923 44.3543875,4 C46.7490462,6.82728205 48.1848241,10.3314872 48.1848241,14.1403077 C48.1848241,18.6215385 46.2072912,22.6819487 43,25.7044103 C43.8495125,25.5261538 44.7308181,25.422359 45.6413735,25.422359" id="Fill-14" fill="#E6E6E6"></path>
                    </g>
                    <g id="Data" transform="translate(23.000000, 31.000000)">
                        <mask id="mask-5" fill="white">
                            <use xlink:href="#path-4"></use>
                        </mask>
                        <g id="Rectangle-10" fill-rule="nonzero"></g>
                        <g id="Group-8" mask="url(#mask-5)" fill-rule="nonzero">
                            <g transform="translate(0.000000, 4.545455)">
                                <path d="M4.43921458,11.2080293 C6.49094064,11.2080293 8.13146873,13.0569373 8.13146873,15.2978828 C8.13146873,17.5377967 6.49211213,19.3842308 4.43921458,19.3842308 C2.38608218,19.3842308 0.745120261,17.5374907 0.745120261,15.2978828 C0.745120261,13.0565721 2.38599102,11.2080293 4.43921458,11.2080293 Z M4.43921458,17.3508091 C5.3015455,17.3508091 6.0514334,16.4498389 6.0514334,15.2996805 C6.0514334,14.1464702 5.30186019,13.2450464 4.43921458,13.2450464 C3.57549888,13.2450464 2.82515559,14.1472871 2.82515559,15.2996805 C2.82515559,16.4501248 3.57524224,17.3508091 4.43921458,17.3508091 Z" id="Fill-1" fill="url(#linearGradient-6)"></path>
                                <path d="M12.0862582,11.2080293 C12.6554504,11.2080293 13.1262758,11.657708 13.1262758,12.225639 L13.1262758,18.3666211 C13.1262758,18.9343049 12.6539172,19.3842308 12.0862582,19.3842308 C11.5185991,19.3842308 11.0462405,18.9343049 11.0462405,18.3666211 L11.0462405,12.225639 C11.0462405,11.6579551 11.5185991,11.2080293 12.0862582,11.2080293 Z" id="Fill-2" fill="url(#linearGradient-7)"></path>
                                <path d="M19.7333018,11.2080293 C21.7865253,11.2080293 23.4273961,13.0565721 23.4273961,15.2978828 C23.4273961,17.5374907 21.7864342,19.3842308 19.7333018,19.3842308 C17.6789067,19.3842308 16.0392075,17.5381616 16.0392075,15.2978828 C16.0392075,13.0565721 17.6800782,11.2080293 19.7333018,11.2080293 Z M19.7333018,17.3508091 C20.5972741,17.3508091 21.3473607,16.4501248 21.3473607,15.2996805 C21.3473607,14.146184 20.5975891,13.2450464 19.7333018,13.2450464 C18.8695861,13.2450464 18.1192428,14.1472871 18.1192428,15.2996805 C18.1192428,16.449306 18.8704484,17.3508091 19.7333018,17.3508091 Z" id="Fill-3" fill="url(#linearGradient-8)"></path>
                                <path d="M27.3822327,19.3860285 C26.8130405,19.3860285 26.342215,18.9363498 26.342215,18.3684188 L26.342215,12.2274367 C26.342215,11.6597528 26.8145737,11.209827 27.3822327,11.209827 C27.9498917,11.209827 28.4222504,11.6597528 28.4222504,12.2274367 L28.4222504,18.3684188 C28.4222504,18.9361027 27.9498917,19.3860285 27.3822327,19.3860285 Z" id="Fill-4" fill="url(#linearGradient-7)"></path>
                                <path d="M32.3751997,11.2080293 C32.9443919,11.2080293 33.4152173,11.657708 33.4152173,12.225639 L33.4152173,18.3666211 C33.4152173,18.9343049 32.9428587,19.3842308 32.3751997,19.3842308 C31.8075406,19.3842308 31.335182,18.9343049 31.335182,18.3666211 L31.335182,12.225639 C31.335182,11.6579551 31.8075406,11.2080293 32.3751997,11.2080293 Z" id="Fill-5" fill="url(#linearGradient-7)"></path>
                                <path d="M37.3700539,11.2080293 C37.9392462,11.2080293 38.4100716,11.657708 38.4100716,12.225639 L38.4100716,18.3666211 C38.4100716,18.9343049 37.937713,19.3842308 37.3700539,19.3842308 C36.8023949,19.3842308 36.3300363,18.9343049 36.3300363,18.3666211 L36.3300363,12.225639 C36.3300363,11.6579551 36.8023949,11.2080293 37.3700539,11.2080293 Z" id="Fill-6" fill="url(#linearGradient-7)"></path>
                                <path d="M45.0189849,19.3860285 C42.9656822,19.3860285 41.3227605,17.5372002 41.3248885,15.2996805 C41.3248885,13.0583698 42.9657613,11.209827 45.0189849,11.209827 C47.0734712,11.209827 48.7130792,13.0576981 48.7130792,15.2996805 C48.7130792,17.5392884 47.0721173,19.3860285 45.0189849,19.3860285 Z M45.0189849,13.2432486 C44.1540601,13.2432486 43.4034559,14.14485 43.4049237,15.2978828 C43.4049237,16.4483271 44.1550126,17.3490114 45.0189849,17.3490114 C45.8835296,17.3490114 46.6330439,16.44943 46.6330439,15.2978828 C46.6330439,14.1452056 45.8821536,13.2432486 45.0189849,13.2432486 Z" id="Fill-7" fill="url(#linearGradient-9)"></path>
                                <path d="M45.0189849,22.1048569 C47.070287,22.1048569 48.7109496,23.9531672 48.7130792,26.1947104 C48.7130792,28.4345771 47.0719186,30.2828111 45.0189849,30.2828111 C42.9660511,30.2828111 41.3248906,28.4345771 41.3248906,26.1947104 C41.3248906,23.9533997 42.9657613,22.1048569 45.0189849,22.1048569 Z M45.0189849,28.2476368 C45.8813734,28.2476368 46.6315729,27.3463995 46.6330439,26.1947554 C46.6330439,25.0420782 45.8821536,24.1401212 45.0189849,24.1401212 C44.1552692,24.1401212 43.4049259,25.0423619 43.4049259,26.1947554 C43.4049259,27.3467258 44.154855,28.2476368 45.0189849,28.2476368 Z" id="Fill-8" fill="url(#linearGradient-10)"></path>
                                <path d="M37.3700539,22.1048569 C37.9392462,22.1048569 38.4100716,22.5545356 38.4100716,23.1224666 L38.4100716,29.2634487 C38.4100716,29.8311326 37.937713,30.2810584 37.3700539,30.2810584 C36.8023949,30.2810584 36.3300363,29.8311326 36.3300363,29.2634487 L36.3300363,23.1224666 C36.3300363,22.5547827 36.8023949,22.1048569 37.3700539,22.1048569 Z" id="Fill-9" fill="url(#linearGradient-7)"></path>
                                <path d="M29.7230103,22.1048569 C31.7755752,22.1048569 33.4149745,23.9524946 33.4171047,26.1947104 C33.4171047,28.4345771 31.7759441,30.2828111 29.7230103,30.2828111 C27.6700766,30.2828111 26.028916,28.4345771 26.028916,26.1947104 C26.028916,23.9533997 27.6697868,22.1048569 29.7230103,22.1048569 Z M29.7230103,28.2476368 C30.5853988,28.2476368 31.3355983,27.3463995 31.3370693,26.1947554 C31.3370693,25.0420782 30.5861791,24.1401212 29.7230103,24.1401212 C28.8592947,24.1401212 28.1089514,25.0423619 28.1089514,26.1947554 C28.1089514,27.3467258 28.8588804,28.2476368 29.7230103,28.2476368 Z" id="Fill-10" fill="url(#linearGradient-10)"></path>
                                <path d="M23.1140971,29.2652464 C23.1140971,29.8331774 22.6432716,30.2828561 22.0740794,30.2828561 C21.5064204,30.2828561 21.0340617,29.8329303 21.0340617,29.2652464 L21.0340617,23.1242643 C21.0340617,22.5565804 21.5064204,22.1066546 22.0740794,22.1066546 C22.6417384,22.1066546 23.1140971,22.5565804 23.1140971,23.1242643 L23.1140971,29.2652464 Z" id="Fill-11" fill="url(#linearGradient-7)"></path>
                                <path d="M17.0811125,30.2828561 C16.5119202,30.2828561 16.0410948,29.8331774 16.0410948,29.2652464 L16.0410948,23.1242643 C16.0410948,22.5565804 16.5134534,22.1066546 17.0811125,22.1066546 C17.6487715,22.1066546 18.1211301,22.5565804 18.1211301,23.1242643 L18.1211301,29.2652464 C18.1211301,29.8329303 17.6487715,30.2828561 17.0811125,30.2828561 Z" id="Fill-12" fill="url(#linearGradient-7)"></path>
                                <path d="M12.0862582,22.1048569 C12.6554504,22.1048569 13.1262758,22.5545356 13.1262758,23.1224666 L13.1262758,29.2634487 C13.1262758,29.8311326 12.6539172,30.2810584 12.0862582,30.2810584 C11.5185991,30.2810584 11.0462405,29.8311326 11.0462405,29.2634487 L11.0462405,23.1224666 C11.0462405,22.5547827 11.5185991,22.1048569 12.0862582,22.1048569 Z" id="Fill-13" fill="url(#linearGradient-7)"></path>
                                <path d="M4.43921458,22.1048569 C6.49094064,22.1048569 8.13146873,23.9537649 8.13146873,26.1947104 C8.13146873,28.4348835 6.49191381,30.2828111 4.43921458,30.2828111 C2.38628081,30.2828111 0.745120261,28.4345771 0.745120261,26.1947104 C0.745120261,23.9533997 2.38599102,22.1048569 4.43921458,22.1048569 Z M4.43921458,28.2476368 C5.30170295,28.2476368 6.0514334,27.3464397 6.0514334,26.1947554 C6.0514334,25.0415451 5.30186019,24.1401212 4.43921458,24.1401212 C3.57549888,24.1401212 2.82515559,25.0423619 2.82515559,26.1947554 C2.82515559,27.3467258 3.57508465,28.2476368 4.43921458,28.2476368 Z" id="Fill-14" fill="url(#linearGradient-11)"></path>
                                <path d="M45.0189849,0.340909091 C47.070287,0.340909091 48.7109496,2.18921936 48.7130792,4.43076259 C48.7130792,6.67062928 47.0719186,8.51886331 45.0189849,8.51886331 C42.9660511,8.51886331 41.3248906,6.67062928 41.3248906,4.43076259 C41.3248906,2.18945186 42.9657613,0.340909091 45.0189849,0.340909091 Z M45.0189849,6.48368892 C45.8813734,6.48368892 46.6315729,5.58245172 46.6330439,4.43080753 C46.6330439,3.27813035 45.8821536,2.37617337 45.0189849,2.37617337 C44.1552692,2.37617337 43.4049259,3.2784141 43.4049259,4.43080753 C43.4049259,5.58277796 44.154855,6.48368892 45.0189849,6.48368892 Z" id="Fill-8" fill="url(#linearGradient-10)"></path>
                                <path d="M37.3700539,0.340909091 C37.9392462,0.340909091 38.4100716,0.790587758 38.4100716,1.35851876 L38.4100716,7.49950088 C38.4100716,8.06718473 37.937713,8.51711054 37.3700539,8.51711054 C36.8023949,8.51711054 36.3300363,8.06718473 36.3300363,7.49950088 L36.3300363,1.35851876 C36.3300363,0.790834906 36.8023949,0.340909091 37.3700539,0.340909091 Z" id="Fill-9" fill="url(#linearGradient-7)"></path>
                                <path d="M29.7230103,0.340909091 C31.7755752,0.340909091 33.4149745,2.18854682 33.4171047,4.43076259 C33.4171047,6.67062928 31.7759441,8.51886331 29.7230103,8.51886331 C27.6700766,8.51886331 26.028916,6.67062928 26.028916,4.43076259 C26.028916,2.18945186 27.6697868,0.340909091 29.7230103,0.340909091 Z M29.7230103,6.48368892 C30.5853988,6.48368892 31.3355983,5.58245172 31.3370693,4.43080753 C31.3370693,3.27813035 30.5861791,2.37617337 29.7230103,2.37617337 C28.8592947,2.37617337 28.1089514,3.2784141 28.1089514,4.43080753 C28.1089514,5.58277796 28.8588804,6.48368892 29.7230103,6.48368892 Z" id="Fill-10" fill="url(#linearGradient-10)"></path>
                                <path d="M23.1140971,7.49950088 C23.1140971,8.06743188 22.6432716,8.51711054 22.0740794,8.51711054 C21.5064204,8.51711054 21.0340617,8.06718473 21.0340617,7.49950088 L21.0340617,1.35851876 C21.0340617,0.790834906 21.5064204,0.340909091 22.0740794,0.340909091 C22.6417384,0.340909091 23.1140971,0.790834906 23.1140971,1.35851876 L23.1140971,7.49950088 Z" id="Fill-11" fill="url(#linearGradient-7)"></path>
                                <path d="M17.0811125,8.51711054 C16.5119202,8.51711054 16.0410948,8.06743188 16.0410948,7.49950088 L16.0410948,1.35851876 C16.0410948,0.790834906 16.5134534,0.340909091 17.0811125,0.340909091 C17.6487715,0.340909091 18.1211301,0.790834906 18.1211301,1.35851876 L18.1211301,7.49950088 C18.1211301,8.06718473 17.6487715,8.51711054 17.0811125,8.51711054 Z" id="Fill-12" fill="url(#linearGradient-7)"></path>
                                <path d="M12.0862582,0.340909091 C12.6554504,0.340909091 13.1262758,0.790587758 13.1262758,1.35851876 L13.1262758,7.49950088 C13.1262758,8.06718473 12.6539172,8.51711054 12.0862582,8.51711054 C11.5185991,8.51711054 11.0462405,8.06718473 11.0462405,7.49950088 L11.0462405,1.35851876 C11.0462405,0.790834906 11.5185991,0.340909091 12.0862582,0.340909091 Z" id="Fill-13" fill="url(#linearGradient-7)"></path>
                                <path d="M4.43921458,0.340909091 C6.49094064,0.340909091 8.13146873,2.18981712 8.13146873,4.43076259 C8.13146873,6.6709357 6.49191381,8.51886331 4.43921458,8.51886331 C2.38628081,8.51886331 0.745120261,6.67062928 0.745120261,4.43076259 C0.745120261,2.18945186 2.38599102,0.340909091 4.43921458,0.340909091 Z M4.43921458,6.48368892 C5.30170295,6.48368892 6.0514334,5.58249191 6.0514334,4.43080753 C6.0514334,3.27759726 5.30186019,2.37617337 4.43921458,2.37617337 C3.57549888,2.37617337 2.82515559,3.2784141 2.82515559,4.43080753 C2.82515559,5.58277796 3.57508465,6.48368892 4.43921458,6.48368892 Z" id="Fill-14" fill="url(#linearGradient-11)"></path>
                                <path d="M4.43921458,33.00528 C6.49065093,33.00528 8.13146873,34.8538792 8.13146873,37.0933807 C8.13146873,39.3335538 6.49191381,41.1814814 4.43921458,41.1814814 C2.38628081,41.1814814 0.745120261,39.3332474 0.745120261,37.0933807 C0.745120261,34.853514 2.38628081,33.00528 4.43921458,33.00528 Z M4.43921458,39.1462621 C5.30170295,39.1462621 6.0514334,38.2450651 6.0514334,37.0933807 C6.0514334,35.9416963 5.30170295,35.0404993 4.43921458,35.0404993 C3.57508465,35.0404993 2.82515559,35.9414102 2.82515559,37.0933807 C2.82515559,38.2453511 3.57508465,39.1462621 4.43921458,39.1462621 Z" id="Fill-15" fill="url(#linearGradient-6)"></path>
                                <path d="M12.0862582,33.00528 C12.6554504,33.00528 13.1262758,33.4549586 13.1262758,34.0228896 L13.1262758,40.1638717 C13.1262758,40.7315556 12.6539172,41.1814814 12.0862582,41.1814814 C11.5185991,41.1814814 11.0462405,40.7315556 11.0462405,40.1638717 L11.0462405,34.0228896 C11.0462405,33.4552058 11.5185991,33.00528 12.0862582,33.00528 Z" id="Fill-16" fill="url(#linearGradient-7)"></path>
                                <path d="M19.7333018,33.00528 C21.7862355,33.00528 23.4273961,34.853514 23.4273961,37.0933807 C23.4273961,39.3332474 21.7862355,41.1814814 19.7333018,41.1814814 C17.6791052,41.1814814 16.0392075,39.3339188 16.0392075,37.0933807 C16.0392075,34.853514 17.680368,33.00528 19.7333018,33.00528 Z M19.7333018,39.1462621 C20.5974317,39.1462621 21.3473607,38.2453511 21.3473607,37.0933807 C21.3473607,35.9414102 20.5974317,35.0404993 19.7333018,35.0404993 C18.8691718,35.0404993 18.1192428,35.9414102 18.1192428,37.0933807 C18.1192428,38.2445321 18.8702906,39.1462621 19.7333018,39.1462621 Z" id="Fill-17" fill="url(#linearGradient-8)"></path>
                                <path d="M27.3822327,33.00528 C27.9498917,33.00528 28.4222504,33.4552058 28.4222504,34.0228896 L28.4222504,40.1638717 C28.4222504,40.7315556 27.9498917,41.1814814 27.3822327,41.1814814 C26.8145737,41.1814814 26.342215,40.7315556 26.342215,40.1638717 L26.342215,34.0228896 C26.342215,33.4552058 26.8145737,33.00528 27.3822327,33.00528 Z" id="Fill-18" fill="url(#linearGradient-7)"></path>
                                <path d="M32.3751997,33.00528 C32.9443919,33.00528 33.4152173,33.4549586 33.4152173,34.0228896 L33.4152173,40.1638717 C33.4152173,40.7315556 32.9428587,41.1814814 32.3751997,41.1814814 C31.8075406,41.1814814 31.335182,40.7315556 31.335182,40.1638717 L31.335182,34.0228896 C31.335182,33.4552058 31.8075406,33.00528 32.3751997,33.00528 Z" id="Fill-19" fill="url(#linearGradient-7)"></path>
                                <path d="M37.3700539,33.00528 C37.9392462,33.00528 38.4100716,33.4549586 38.4100716,34.0228896 L38.4100716,40.1638717 C38.4100716,40.7315556 37.937713,41.1814814 37.3700539,41.1814814 C36.8023949,41.1814814 36.3300363,40.7315556 36.3300363,40.1638717 L36.3300363,34.0228896 C36.3300363,33.4552058 36.8023949,33.00528 37.3700539,33.00528 Z" id="Fill-20" fill="url(#linearGradient-7)"></path>
                                <path d="M45.0189849,33.00528 C47.0699971,33.00528 48.7109491,34.8532811 48.7130792,37.0933807 C48.7130792,39.3332474 47.0719186,41.1814814 45.0189849,41.1814814 C42.9660511,41.1814814 41.3248906,39.3332474 41.3248906,37.0933807 C41.3248906,34.853514 42.9660511,33.00528 45.0189849,33.00528 Z M45.0189849,39.1462621 C45.8813734,39.1462621 46.6315729,38.2450249 46.6330439,37.0933807 C46.6330439,35.9422293 45.881996,35.0404993 45.0189849,35.0404993 C44.154855,35.0404993 43.4049259,35.9414102 43.4049259,37.0933807 C43.4049259,38.2453511 44.154855,39.1462621 45.0189849,39.1462621 Z" id="Fill-21" fill="url(#linearGradient-8)"></path>
                            </g>
                        </g>
                    </g>
                    <g id="Group-6" transform="translate(35.000000, 38.000000)">
                        <circle id="Oval" fill="#FFFFFF" cx="10.4" cy="16.64" r="9.36"></circle>
                        <g id="Group-2">
                            <g id="Group-7">
                                <path d="M26,8.53125 L26.0008125,6.11690625 C26.0004062,6.13315625 25.9979687,6.149 25.9971562,6.16484375 C25.9979687,6.14128125 26.001625,6.11771875 26.001625,6.09375 L26,6.09375 L26.0008125,3.67940625 C25.9699375,5.68790625 21.9817812,7.3125 17.0645312,7.3125 C12.1285937,7.3125 8.12703125,5.67571875 8.12703125,3.65625 L8.12621875,6.09375 C8.12621875,6.0978125 8.12703125,6.10146875 8.12703125,6.10553125 L8.12703125,6.534125 C8.39475,6.5138125 8.6645,6.5 8.9375,6.5 C14.7708437,6.5 19.5,11.2291562 19.5,17.0625 C19.5,18.8069375 19.0746562,20.450625 18.3259375,21.9005312 C22.663875,21.6494687 26.001625,20.1252187 26.001625,18.28125 L26,18.28125 L26.0008125,15.8669062 C26.0004062,15.8831562 25.9979687,15.899 25.9971562,15.9148437 C25.9979687,15.8912812 26.001625,15.8677187 26.001625,15.84375 L26,15.84375 L26.0008125,13.4294062 C26.0004062,13.4456562 25.9979687,13.4615 25.9971562,13.4773437 C25.9979687,13.4537812 26.001625,13.4302187 26.001625,13.40625 L26,13.40625 L26.0008125,10.9919062 C26.0004062,11.0081562 25.9979687,11.024 25.9971562,11.0398437 C25.9979687,11.0162812 26.001625,10.9927187 26.001625,10.96875 L26,10.96875 L26.0008125,8.55440625 C26.0004062,8.57065625 25.9979687,8.5865 25.9971562,8.60234375 C25.9979687,8.57878125 26.001625,8.55521875 26.001625,8.53125 L26,8.53125" id="Fill-400" fill="#EFB252"></path>
                                <path d="M26,3.65625 C26,5.67571875 21.9984375,7.3125 17.0625,7.3125 C12.1265625,7.3125 8.125,5.67571875 8.125,3.65625 C8.125,1.63678125 12.1265625,0 17.0625,0 C21.9984375,0 26,1.63678125 26,3.65625" id="Fill-401" fill="#F7CB64"></path>
                                <path d="M17.0645312,5.6875 C13.2506562,5.6875 10.1590937,4.77790625 10.1590937,3.65625 C10.1590937,2.53459375 13.2506562,1.625 17.0645312,1.625 C20.8784062,1.625 23.9699687,2.53459375 23.9699687,3.65625 C23.9699687,4.77790625 20.8784062,5.6875 17.0645312,5.6875 Z M17.0645312,0.8125 C12.5779062,0.8125 8.94034375,2.0856875 8.94034375,3.65625 C8.94034375,5.2268125 12.5779062,6.5 17.0645312,6.5 C21.5515625,6.5 25.1887187,5.2268125 25.1887187,3.65625 C25.1887187,2.0856875 21.5515625,0.8125 17.0645312,0.8125 L17.0645312,0.8125 Z" id="Fill-402" fill="#F2BE53"></path>
                                <path d="M8.9350625,9.74959375 C12.9699375,9.7508125 16.248375,13.02275 16.2491875,17.0625 C16.2491875,21.1018437 12.9752187,24.3737812 8.93628125,24.375 C4.89775,24.3737812 1.625,21.1018437 1.62296875,17.0625 C1.6225625,13.0223437 4.89734375,9.7491875 8.9350625,9.74959375 Z M8.93871875,26.0000008 C13.8750625,26.0008125 17.875,21.9996562 17.875,17.0629062 C17.8754062,12.1277812 13.8754687,8.1225625 8.939125,8.12459298 C4.002375,8.1225625 0,12.1277812 0,17.0629062 C0,21.9964062 4.002375,26.0020312 8.93871875,26.0000008 L8.93871875,26.0000008 Z" id="Fill-404" fill="#EFB252"></path>
                                <path d="M8.9350625,9.7491875 C12.9699375,9.75040625 16.248375,13.0223437 16.2491875,17.0620937 C16.2491875,21.1018437 12.9752187,24.3737812 8.93628125,24.3745937 C4.89775,24.3737812 1.625,21.1018437 1.62296875,17.0620937 C1.6225625,13.0219375 4.89734375,9.7491875 8.9350625,9.7491875" id="Fill-405" fill="#F7CB64"></path>
                                <path d="M6.88471875,24.0772187 L12.228125,10.5405625 C11.2372812,10.0388437 10.1205,9.74959375 8.9350625,9.7491875 C8.77784375,9.7491875 8.623875,9.763 8.4686875,9.77275 L3.615625,22.0675 C4.496375,23.0035 5.617625,23.707125 6.88471875,24.0772187" id="Fill-406" fill="#F2BE53"></path>
                                <path d="M13.8263125,11.63825 L8.80140625,24.3680938 C8.8465,24.3689063 8.89078125,24.3745938 8.93628125,24.375 C12.9752188,24.3737813 16.2491875,21.1018438 16.2491875,17.0625 C16.2487813,14.9069375 15.3095313,12.9764375 13.8263125,11.63825" id="Fill-407" fill="#F2BE53"></path>
                                <path d="M26,4.0625 L26,3.68753125 C25.9589687,5.692375 21.9752812,7.3125 17.0645312,7.3125 C17.0645312,7.3125 17.064125,7.3125 17.0637187,7.3125 C12.1281875,7.3125 8.12703125,5.6753125 8.12703125,3.65625 L8.126625,5.68953125 C8.12703125,5.9743125 8.21559375,6.24975 8.3663125,6.51584375 C8.555625,6.5056875 8.74575,6.5 8.9375,6.5 C11.7117812,6.5 14.235,7.57128125 16.12,9.32059375 C16.1878437,9.3234375 16.2540625,9.329125 16.3223125,9.33115625 C16.7269375,9.34496875 17.0637187,8.97853125 17.0637187,8.51865625 C17.0637187,8.08153125 17.3688125,7.71996875 17.753125,7.7081875 C22.3559375,7.564375 25.9833437,5.99421875 26.0008125,4.07590625 L26.0008125,4.0625 L26,4.0625" id="Fill-409" fill="#F2BE53"></path>
                                <path d="M8.1924375,6.52925 C8.151,6.38625 8.12703125,6.24121875 8.12703125,6.09375 L8.12703125,6.534125 C8.1485625,6.5325 8.1705,6.53046875 8.1924375,6.52925" id="Fill-410" fill="#F2BE53"></path>
                                <path d="M26,6.5 L26,6.12503125 C25.9589688,8.129875 21.9752813,9.75 17.0645313,9.75 C17.0645313,9.75 17.064125,9.75 17.0637188,9.75 C16.8910625,9.75 16.719625,9.7475625 16.549,9.7435 C16.7769063,9.98034375 16.9938438,10.2273437 17.199,10.4849062 C17.3237188,10.28625 17.5231875,10.1525937 17.753125,10.1456875 C22.3559375,10.001875 25.9833438,8.43171875 26.0008125,6.51340625 L26.0008125,6.5 L26,6.5" id="Fill-411" fill="#F2BE53"></path>
                                <path d="M26,8.9375 L26,8.56253125 C25.9622188,10.3975625 22.6204063,11.909625 18.2889688,12.1525625 C18.3572188,12.2821562 18.4238438,12.4129687 18.4868125,12.5458125 C22.7349688,12.267125 25.9845625,10.7660312 26.0008125,8.95090625 L26.0008125,8.9375 L26,8.9375" id="Fill-412" fill="#F2BE53"></path>
                                <path d="M26,11.375 L26,11.0000312 C25.9650625,12.7054687 23.0754062,14.1322187 19.1900312,14.5201875 C19.2225312,14.651 19.2538125,14.782625 19.2810312,14.9154687 C23.1330937,14.5124687 25.985375,13.0885625 26.0008125,11.3884062 L26.0008125,11.375 L26,11.375" id="Fill-413" fill="#F2BE53"></path>
                                <path d="M26,13.8125 L26,13.4375312 C25.965875,15.097875 23.226125,16.4933437 19.4963438,16.924375 C19.4971563,16.9706875 19.5,17.0161875 19.5,17.0625 C19.5,17.1522812 19.4955313,17.24125 19.4930938,17.330625 C23.2379063,16.8987812 25.9857813,15.4947812 26.0008125,13.8259062 L26.0008125,13.8125 L26,13.8125" id="Fill-414" fill="#F2BE53"></path>
                                <path d="M26,16.25 L26,15.8750312 C25.9650625,17.5735625 23.1001875,18.9954375 19.2395938,19.3903125 C19.2083125,19.52925 19.1754063,19.6669687 19.1388438,19.8034687 C23.062,19.4211875 25.985375,17.9842812 26.0008125,16.2634062 L26.0008125,16.25 L26,16.25" id="Fill-415" fill="#F2BE53"></path>
                            </g>
                        </g>
                    </g>
                </g>
                <g id="Azure-Border">
                    <path d="M50,0 C74.5263677,-4.50542066e-15 94.9281966,17.6592499 99.1842495,40.9565123 L94.2027317,73.3905473 C85.8096395,89.2186645 69.1638777,100 50,100 C30.9551233,100 14.3971863,89.3521454 5.95457608,73.6848234 L0.0261464987,48.3675131 C0.887696267,21.508872 22.932015,4.97230817e-15 50,0 Z" id="Combined-Shape" fill="url(#linearGradient-12)" fill-rule="evenodd" opacity="0.400000006" style="mix-blend-mode: overlay;"></path>
                    <g>
                        <use fill="black" fill-opacity="1" filter="url(#filter-14)" xlink:href="#path-13"></use>
                        <rect stroke="#F2F1F0" stroke-width="4" stroke-linejoin="square" x="-1" y="-1" width="102" height="102" rx="51"></rect>
                    </g>
                    <rect stroke="#0078D4" stroke-width="4" x="2" y="2" width="96" height="96" rx="48"></rect>
                </g>
            </g>
        </g>
    </g>
</svg>