<?xml version="1.0" encoding="UTF-8"?>
<svg width="107px" height="107px" viewBox="0 0 107 107" version="1.1" xmlns="http://www.w3.org/2000/svg" xmlns:xlink="http://www.w3.org/1999/xlink">
    <!-- Generator: Sketch 62 (91390) - https://sketch.com -->
    <title>Virtualization - Sharing cloud resources/storage-and-network-virtualization</title>
    <desc>Created with Sketch.</desc>
    <defs>
        <rect id="path-1" x="0" y="0" width="100" height="100" rx="50"></rect>
        <filter x="-5.5%" y="-11.4%" width="111.0%" height="120.5%" filterUnits="objectBoundingBox" id="filter-3">
            <feOffset dx="0" dy="2" in="SourceAlpha" result="shadowOffsetOuter1"></feOffset>
            <feColorMatrix values="0 0 0 0 0   0 0 0 0 0   0 0 0 0 0  0 0 0 0.0964956975 0" type="matrix" in="shadowOffsetOuter1" result="shadowMatrixOuter1"></feColorMatrix>
            <feMerge>
                <feMergeNode in="shadowMatrixOuter1"></feMergeNode>
                <feMergeNode in="SourceGraphic"></feMergeNode>
            </feMerge>
        </filter>
        <rect id="path-4" x="0" y="0" width="40" height="29.0909091" rx="8"></rect>
        <linearGradient x1="50%" y1="0%" x2="50%" y2="100%" id="linearGradient-6">
            <stop stop-color="#62B0FF" offset="0%"></stop>
            <stop stop-color="#519DFF" offset="100%"></stop>
        </linearGradient>
        <linearGradient x1="50%" y1="0%" x2="50%" y2="100%" id="linearGradient-7">
            <stop stop-color="#62B0FF" offset="0%"></stop>
            <stop stop-color="#519DFF" offset="100%"></stop>
        </linearGradient>
        <linearGradient x1="50%" y1="0%" x2="50%" y2="100%" id="linearGradient-8">
            <stop stop-color="#62B0FF" offset="0%"></stop>
            <stop stop-color="#519DFF" offset="100%"></stop>
        </linearGradient>
        <linearGradient x1="50%" y1="0%" x2="50%" y2="100%" id="linearGradient-9">
            <stop stop-color="#62B0FF" offset="0%"></stop>
            <stop stop-color="#519DFF" offset="100%"></stop>
        </linearGradient>
        <linearGradient x1="50%" y1="0%" x2="50%" y2="100%" id="linearGradient-10">
            <stop stop-color="#62B0FF" offset="0%"></stop>
            <stop stop-color="#519DFF" offset="100%"></stop>
        </linearGradient>
        <linearGradient x1="50%" y1="0%" x2="50%" y2="100%" id="linearGradient-11">
            <stop stop-color="#62B0FF" offset="0%"></stop>
            <stop stop-color="#519DFF" offset="100%"></stop>
        </linearGradient>
        <filter x="-11.4%" y="-13.2%" width="122.9%" height="123.7%" filterUnits="objectBoundingBox" id="filter-12">
            <feOffset dx="0" dy="2" in="SourceAlpha" result="shadowOffsetOuter1"></feOffset>
            <feColorMatrix values="0 0 0 0 0   0 0 0 0 0   0 0 0 0 0  0 0 0 0.099071558 0" type="matrix" in="shadowOffsetOuter1" result="shadowMatrixOuter1"></feColorMatrix>
            <feMerge>
                <feMergeNode in="shadowMatrixOuter1"></feMergeNode>
                <feMergeNode in="SourceGraphic"></feMergeNode>
            </feMerge>
        </filter>
        <filter x="-17.4%" y="-12.9%" width="134.8%" height="125.8%" filterUnits="objectBoundingBox" id="filter-13">
            <feOffset dx="0" dy="2" in="SourceAlpha" result="shadowOffsetOuter1"></feOffset>
            <feColorMatrix values="0 0 0 0 0   0 0 0 0 0   0 0 0 0 0  0 0 0 0.0983355978 0" type="matrix" in="shadowOffsetOuter1" result="shadowMatrixOuter1"></feColorMatrix>
            <feMerge>
                <feMergeNode in="shadowMatrixOuter1"></feMergeNode>
                <feMergeNode in="SourceGraphic"></feMergeNode>
            </feMerge>
        </filter>
        <linearGradient x1="76.7275556%" y1="-4.05946744%" x2="15.5786468%" y2="110.793945%" id="linearGradient-14">
            <stop stop-color="#FFFFFF" offset="0%"></stop>
            <stop stop-color="#000000" stop-opacity="0.5" offset="100%"></stop>
        </linearGradient>
        <rect id="path-15" x="-3" y="-3" width="106" height="106" rx="53"></rect>
        <filter x="-0.5%" y="-0.5%" width="101.9%" height="101.9%" filterUnits="objectBoundingBox" id="filter-16">
            <feOffset dx="1" dy="1" in="SourceAlpha" result="shadowOffsetOuter1"></feOffset>
            <feMorphology radius="4" operator="erode" in="SourceAlpha" result="shadowInner"></feMorphology>
            <feOffset dx="1" dy="1" in="shadowInner" result="shadowInner"></feOffset>
            <feComposite in="shadowOffsetOuter1" in2="shadowInner" operator="out" result="shadowOffsetOuter1"></feComposite>
            <feColorMatrix values="0 0 0 0 0   0 0 0 0 0   0 0 0 0 0  0 0 0 0.15 0" type="matrix" in="shadowOffsetOuter1"></feColorMatrix>
        </filter>
    </defs>
    <g id="Badges" stroke="none" stroke-width="1" fill="none" fill-rule="evenodd">
        <g id="Virtualization---Sharing-cloud-resources-2" transform="translate(-47.000000, -257.000000)">
            <g id="Virtualization---Sharing-cloud-resources/storage-and-network-virtualization" transform="translate(50.000000, 260.000000)">
                <g id="Mask" transform="translate(2.000000, 2.000000)">
                    <g id="Circle-" transform="translate(-2.000000, 0.000000)">
                        <mask id="mask-2" fill="white">
                            <use xlink:href="#path-1"></use>
                        </mask>
                        <g id="BG"></g>
                        <g id="Color/Blue" mask="url(#mask-2)" fill="#55A2FF" fill-rule="evenodd">
                            <rect id="Rectangle" x="0" y="0" width="100" height="100"></rect>
                        </g>
                    </g>
                    <g id="Group-3" transform="translate(12.000000, 12.000000)">
                        <g id="Group">
                            <g id="Cloud" filter="url(#filter-3)">
                                <path d="M15.96875,13.1730114 C16.0839531,13.1730114 16.1957344,13.1873114 16.3097969,13.1895114 C17.8884219,5.65011136 24.7949063,-0.0269886364 33.078125,-0.0269886364 C40.4830625,-0.0269886364 46.7701875,4.51711136 49.1518125,10.8652114 C50.5023125,10.2360114 52.0102188,9.87301136 53.609375,9.87301136 C59.2794219,9.87301136 63.875,14.3049114 63.875,19.7730114 C63.875,19.9292114 63.8578906,20.0799114 63.8510469,20.2339114 C69.1275781,21.6650114 73,26.3279114 73,31.8730114 C73,38.5555114 67.3824219,43.9730114 60.453125,43.9730114 L15.96875,43.9730114 C7.1494375,43.9730114 0,37.0782114 0,28.5730114 C0,20.0678114 7.1494375,13.1730114 15.96875,13.1730114" id="Fill-11" fill="#FFFFFF"></path>
                                <path d="M63.999749,19.9730114 C64.0057868,19.8264365 63.9009031,19.3891668 63.9009031,19.240498 C63.9009031,16.1037966 62.2651883,13.685843 60,11.9730114 C61.0847947,13.5267046 62.2686267,15.6612074 62.2686267,17.7289595 C62.2686267,18.4639276 62.1991006,18.8867079 62.1618066,19.4277056 C62.8822958,19.5913387 63.2812486,19.7636187 63.999749,19.9730114 Z" id="Fill-12" fill="#C4CBCD"></path>
                                <path d="M60.0359577,43.9730114 C67.7467383,43.9730114 72.749583,38.8504792 72.9917691,32.2301825 C73.1528456,27.8343763 70.9370182,24.2546357 67.465304,21.9902638 C69.1937356,24.4806297 69.9724401,27.3015178 69.3783989,30.6360381 C68.5478835,35.2966118 64.8602581,39.1296484 60.1273486,40.2729125 C57.4827226,40.9121212 54.9511929,40.7027443 52.7086872,39.9095494 C53.9687401,38.2555831 54.7215732,36.2172052 54.7215732,34.002685 C54.7215732,30.6836741 53.0422642,27.7512903 50.470751,25.9389065 C52.0209702,28.0083032 52.7840847,30.6681647 52.2848616,33.5152468 C51.5674425,37.6119431 48.1642716,40.913229 43.9408667,41.610044 C43.0635134,41.7540598 42.203296,41.7895099 41.3716382,41.7285801 C38.112408,41.4870766 35.4243713,39.1662062 34.517316,36.1208254 C34.304832,35.4051775 34.1586065,34.6718046 34.1586065,34.002685 C34.1586065,33.6005485 34.1883085,33.2061667 34.2385736,32.8173239 C34.4396337,31.1711123 35.0508107,29.6478679 35.9761442,28.3484021 C34.6623992,28.8602122 33.2743989,29.230222 31.8247097,29.4141192 C31.8441303,29.0983922 31.8738324,28.7848808 31.8738324,28.4636147 C31.8738324,23.3322201 29.2931801,18.7968294 25.3336666,15.9730114 C27.7292522,19.1347126 28.9413249,23.1926355 28.257035,27.5485603 C27.22089,34.1467008 21.7408594,39.4608848 14.9368022,40.4656721 C10.4449363,41.1292527 6.26037261,39.953862 3,37.630776 C5.91194456,41.4704594 10.5888771,43.9730114 15.8804139,43.9730114 L44.4400898,43.9730114 L60.0359577,43.9730114 Z" id="Fill-13" fill="#E6E6E6"></path>
                                <path d="M47.6490651,23.9730114 C49.0851163,21.5346927 49.5981623,18.5875503 49.9212272,15.6886831 C50.5268972,10.253995 47.5689318,5.99030664 43.4902329,2.97301136 C45.5978591,5.73665975 46.5633522,8.65714994 46.5633522,12.3802453 C46.5633522,16.7606169 44.8228536,20.7296395 42,23.6840745 C42.7476868,23.5098301 43.523356,23.4083713 44.3247688,23.4083713 C45.4910707,23.4083713 46.6070046,23.6134945 47.6490651,23.9730114 Z" id="Fill-14" fill="#E6E6E6"></path>
                            </g>
                            <g id="Microsoft" transform="translate(19.000000, 10.000000)" fill="#FFFFFF" fill-rule="nonzero">
                                <ellipse id="Oval" cx="18" cy="17.4730114" rx="18" ry="17.5"></ellipse>
                            </g>
                        </g>
                        <g id="Data" opacity="0.637067522" transform="translate(16.000000, 8.000000)">
                            <mask id="mask-5" fill="white">
                                <use xlink:href="#path-4"></use>
                            </mask>
                            <g id="Rectangle-10" fill-rule="nonzero"></g>
                            <g id="Group-8" mask="url(#mask-5)" fill-rule="nonzero">
                                <g transform="translate(0.000000, 3.636364)">
                                    <path d="M3.55137166,8.96642345 C5.19275252,8.96642345 6.50517498,10.4455499 6.50517498,12.2383062 C6.50517498,14.0302374 5.19368971,15.5073846 3.55137166,15.5073846 C1.90886575,15.5073846 0.596096209,14.0299926 0.596096209,12.2383062 C0.596096209,10.4452577 1.90879281,8.96642345 3.55137166,8.96642345 Z M3.55137166,13.8806473 C4.2412364,13.8806473 4.84114672,13.1598712 4.84114672,12.2397444 C4.84114672,11.3171762 4.24148815,10.5960371 3.55137166,10.5960371 C2.8603991,10.5960371 2.26012448,11.3178297 2.26012448,12.2397444 C2.26012448,13.1600998 2.8601938,13.8806473 3.55137166,13.8806473 Z" id="Fill-1" fill="url(#linearGradient-6)"></path>
                                    <path d="M9.66900654,8.96642345 C10.1243603,8.96642345 10.5010207,9.32616638 10.5010207,9.78051118 L10.5010207,14.6932969 C10.5010207,15.147444 10.1231338,15.5073846 9.66900654,15.5073846 C9.21487932,15.5073846 8.8369924,15.147444 8.8369924,14.6932969 L8.8369924,9.78051118 C8.8369924,9.3263641 9.21487932,8.96642345 9.66900654,8.96642345 Z" id="Fill-2" fill="url(#linearGradient-7)"></path>
                                    <path d="M15.7866414,8.96642345 C17.4292203,8.96642345 18.7419169,10.4452577 18.7419169,12.2383062 C18.7419169,14.0299926 17.4291473,15.5073846 15.7866414,15.5073846 C14.1431254,15.5073846 12.831366,14.0305293 12.831366,12.2383062 C12.831366,10.4452577 14.1440626,8.96642345 15.7866414,8.96642345 Z M15.7866414,13.8806473 C16.4778193,13.8806473 17.0778886,13.1600998 17.0778886,12.2397444 C17.0778886,11.3169472 16.4780713,10.5960371 15.7866414,10.5960371 C15.0956689,10.5960371 14.4953942,11.3178297 14.4953942,12.2397444 C14.4953942,13.1594448 15.0963587,13.8806473 15.7866414,13.8806473 Z" id="Fill-3" fill="url(#linearGradient-8)"></path>
                                    <path d="M21.9057862,15.5088228 C21.4504324,15.5088228 21.073772,15.1490798 21.073772,14.694735 L21.073772,9.78194935 C21.073772,9.32780227 21.4516589,8.96786162 21.9057862,8.96786162 C22.3599134,8.96786162 22.7378003,9.32780227 22.7378003,9.78194935 L22.7378003,14.694735 C22.7378003,15.1488821 22.3599134,15.5088228 21.9057862,15.5088228 Z" id="Fill-4" fill="url(#linearGradient-7)"></path>
                                    <path d="M25.9001597,8.96642345 C26.3555135,8.96642345 26.7321739,9.32616638 26.7321739,9.78051118 L26.7321739,14.6932969 C26.7321739,15.147444 26.3542869,15.5073846 25.9001597,15.5073846 C25.4460325,15.5073846 25.0681456,15.147444 25.0681456,14.6932969 L25.0681456,9.78051118 C25.0681456,9.3263641 25.4460325,8.96642345 25.9001597,8.96642345 Z" id="Fill-5" fill="url(#linearGradient-7)"></path>
                                    <path d="M29.8960432,8.96642345 C30.3513969,8.96642345 30.7280573,9.32616638 30.7280573,9.78051118 L30.7280573,14.6932969 C30.7280573,15.147444 30.3501704,15.5073846 29.8960432,15.5073846 C29.4419159,15.5073846 29.064029,15.147444 29.064029,14.6932969 L29.064029,9.78051118 C29.064029,9.3263641 29.4419159,8.96642345 29.8960432,8.96642345 Z" id="Fill-6" fill="url(#linearGradient-7)"></path>
                                    <path d="M36.0151879,15.5088228 C34.3725457,15.5088228 33.0582084,14.0297601 33.0599108,12.2397444 C33.0599108,10.4466958 34.3726091,8.96786162 36.0151879,8.96786162 C37.658777,8.96786162 38.9704634,10.4461585 38.9704634,12.2397444 C38.9704634,14.0314307 37.6576938,15.5088228 36.0151879,15.5088228 Z M36.0151879,10.5945989 C35.3232481,10.5945989 34.7227647,11.31588 34.723939,12.2383062 C34.723939,13.1586617 35.32401,13.8792091 36.0151879,13.8792091 C36.7068237,13.8792091 37.3064351,13.159544 37.3064351,12.2383062 C37.3064351,11.3161645 36.7057229,10.5945989 36.0151879,10.5945989 Z" id="Fill-7" fill="url(#linearGradient-9)"></path>
                                    <path d="M36.0151879,17.6838855 C37.6562296,17.6838855 38.9687597,19.1625338 38.9704634,20.9557683 C38.9704634,22.7476617 37.6575349,24.2262489 36.0151879,24.2262489 C34.3728409,24.2262489 33.0599125,22.7476617 33.0599125,20.9557683 C33.0599125,19.1627198 34.3726091,17.6838855 36.0151879,17.6838855 Z M36.0151879,22.5981094 C36.7050987,22.5981094 37.3052583,21.8771196 37.3064351,20.9558043 C37.3064351,20.0336625 36.7057229,19.312097 36.0151879,19.312097 C35.3242153,19.312097 34.7239407,20.0338895 34.7239407,20.9558043 C34.7239407,21.8773806 35.323884,22.5981094 36.0151879,22.5981094 Z" id="Fill-8" fill="url(#linearGradient-10)"></path>
                                    <path d="M29.8960432,17.6838855 C30.3513969,17.6838855 30.7280573,18.0436285 30.7280573,18.4979733 L30.7280573,23.410759 C30.7280573,23.864906 30.3501704,24.2248467 29.8960432,24.2248467 C29.4419159,24.2248467 29.064029,23.864906 29.064029,23.410759 L29.064029,18.4979733 C29.064029,18.0438262 29.4419159,17.6838855 29.8960432,17.6838855 Z" id="Fill-9" fill="url(#linearGradient-7)"></path>
                                    <path d="M23.7784083,17.6838855 C25.4204602,17.6838855 26.7319796,19.1619957 26.7336837,20.9557683 C26.7336837,22.7476617 25.4207553,24.2262489 23.7784083,24.2262489 C22.1360613,24.2262489 20.8231328,22.7476617 20.8231328,20.9557683 C20.8231328,19.1627198 22.1358294,17.6838855 23.7784083,17.6838855 Z M23.7784083,22.5981094 C24.4683191,22.5981094 25.0684787,21.8771196 25.0696555,20.9558043 C25.0696555,20.0336625 24.4689433,19.312097 23.7784083,19.312097 C23.0874357,19.312097 22.4871611,20.0338895 22.4871611,20.9558043 C22.4871611,21.8773806 23.0871043,22.5981094 23.7784083,22.5981094 Z" id="Fill-10" fill="url(#linearGradient-10)"></path>
                                    <path d="M18.4912777,23.4121971 C18.4912777,23.8665419 18.1146173,24.2262849 17.6592635,24.2262849 C17.2051363,24.2262849 16.8272494,23.8663442 16.8272494,23.4121971 L16.8272494,18.4994114 C16.8272494,18.0452644 17.2051363,17.6853237 17.6592635,17.6853237 C18.1133907,17.6853237 18.4912777,18.0452644 18.4912777,18.4994114 L18.4912777,23.4121971 Z" id="Fill-11" fill="url(#linearGradient-7)"></path>
                                    <path d="M13.66489,24.2262849 C13.2095362,24.2262849 12.8328758,23.8665419 12.8328758,23.4121971 L12.8328758,18.4994114 C12.8328758,18.0452644 13.2107628,17.6853237 13.66489,17.6853237 C14.1190172,17.6853237 14.4969041,18.0452644 14.4969041,18.4994114 L14.4969041,23.4121971 C14.4969041,23.8663442 14.1190172,24.2262849 13.66489,24.2262849 Z" id="Fill-12" fill="url(#linearGradient-7)"></path>
                                    <path d="M9.66900654,17.6838855 C10.1243603,17.6838855 10.5010207,18.0436285 10.5010207,18.4979733 L10.5010207,23.410759 C10.5010207,23.864906 10.1231338,24.2248467 9.66900654,24.2248467 C9.21487932,24.2248467 8.8369924,23.864906 8.8369924,23.410759 L8.8369924,18.4979733 C8.8369924,18.0438262 9.21487932,17.6838855 9.66900654,17.6838855 Z" id="Fill-13" fill="url(#linearGradient-7)"></path>
                                    <path d="M3.55137166,17.6838855 C5.19275252,17.6838855 6.50517498,19.163012 6.50517498,20.9557683 C6.50517498,22.7479068 5.19353104,24.2262489 3.55137166,24.2262489 C1.90902465,24.2262489 0.596096209,22.7476617 0.596096209,20.9557683 C0.596096209,19.1627198 1.90879281,17.6838855 3.55137166,17.6838855 Z M3.55137166,22.5981094 C4.24136236,22.5981094 4.84114672,21.8771518 4.84114672,20.9558043 C4.84114672,20.0332361 4.24148815,19.312097 3.55137166,19.312097 C2.8603991,19.312097 2.26012448,20.0338895 2.26012448,20.9558043 C2.26012448,21.8773806 2.86006772,22.5981094 3.55137166,22.5981094 Z" id="Fill-14" fill="url(#linearGradient-11)"></path>
                                    <path d="M36.0151879,0.272727273 C37.6562296,0.272727273 38.9687597,1.75137549 38.9704634,3.54461007 C38.9704634,5.33650342 37.6575349,6.81509065 36.0151879,6.81509065 C34.3728409,6.81509065 33.0599125,5.33650342 33.0599125,3.54461007 C33.0599125,1.75156149 34.3726091,0.272727273 36.0151879,0.272727273 Z M36.0151879,5.18695114 C36.7050987,5.18695114 37.3052583,4.46596138 37.3064351,3.54464602 C37.3064351,2.62250428 36.7057229,1.90093869 36.0151879,1.90093869 C35.3242153,1.90093869 34.7239407,2.62273128 34.7239407,3.54464602 C34.7239407,4.46622237 35.323884,5.18695114 36.0151879,5.18695114 Z" id="Fill-8" fill="url(#linearGradient-10)"></path>
                                    <path d="M29.8960432,0.272727273 C30.3513969,0.272727273 30.7280573,0.632470206 30.7280573,1.08681501 L30.7280573,5.9996007 C30.7280573,6.45374778 30.3501704,6.81368843 29.8960432,6.81368843 C29.4419159,6.81368843 29.064029,6.45374778 29.064029,5.9996007 L29.064029,1.08681501 C29.064029,0.632667925 29.4419159,0.272727273 29.8960432,0.272727273 Z" id="Fill-9" fill="url(#linearGradient-7)"></path>
                                    <path d="M23.7784083,0.272727273 C25.4204602,0.272727273 26.7319796,1.75083746 26.7336837,3.54461007 C26.7336837,5.33650342 25.4207553,6.81509065 23.7784083,6.81509065 C22.1360613,6.81509065 20.8231328,5.33650342 20.8231328,3.54461007 C20.8231328,1.75156149 22.1358294,0.272727273 23.7784083,0.272727273 Z M23.7784083,5.18695114 C24.4683191,5.18695114 25.0684787,4.46596138 25.0696555,3.54464602 C25.0696555,2.62250428 24.4689433,1.90093869 23.7784083,1.90093869 C23.0874357,1.90093869 22.4871611,2.62273128 22.4871611,3.54464602 C22.4871611,4.46622237 23.0871043,5.18695114 23.7784083,5.18695114 Z" id="Fill-10" fill="url(#linearGradient-10)"></path>
                                    <path d="M18.4912777,5.9996007 C18.4912777,6.4539455 18.1146173,6.81368843 17.6592635,6.81368843 C17.2051363,6.81368843 16.8272494,6.45374778 16.8272494,5.9996007 L16.8272494,1.08681501 C16.8272494,0.632667925 17.2051363,0.272727273 17.6592635,0.272727273 C18.1133907,0.272727273 18.4912777,0.632667925 18.4912777,1.08681501 L18.4912777,5.9996007 Z" id="Fill-11" fill="url(#linearGradient-7)"></path>
                                    <path d="M13.66489,6.81368843 C13.2095362,6.81368843 12.8328758,6.4539455 12.8328758,5.9996007 L12.8328758,1.08681501 C12.8328758,0.632667925 13.2107628,0.272727273 13.66489,0.272727273 C14.1190172,0.272727273 14.4969041,0.632667925 14.4969041,1.08681501 L14.4969041,5.9996007 C14.4969041,6.45374778 14.1190172,6.81368843 13.66489,6.81368843 Z" id="Fill-12" fill="url(#linearGradient-7)"></path>
                                    <path d="M9.66900654,0.272727273 C10.1243603,0.272727273 10.5010207,0.632470206 10.5010207,1.08681501 L10.5010207,5.9996007 C10.5010207,6.45374778 10.1231338,6.81368843 9.66900654,6.81368843 C9.21487932,6.81368843 8.8369924,6.45374778 8.8369924,5.9996007 L8.8369924,1.08681501 C8.8369924,0.632667925 9.21487932,0.272727273 9.66900654,0.272727273 Z" id="Fill-13" fill="url(#linearGradient-7)"></path>
                                    <path d="M3.55137166,0.272727273 C5.19275252,0.272727273 6.50517498,1.7518537 6.50517498,3.54461007 C6.50517498,5.33674856 5.19353104,6.81509065 3.55137166,6.81509065 C1.90902465,6.81509065 0.596096209,5.33650342 0.596096209,3.54461007 C0.596096209,1.75156149 1.90879281,0.272727273 3.55137166,0.272727273 Z M3.55137166,5.18695114 C4.24136236,5.18695114 4.84114672,4.46599353 4.84114672,3.54464602 C4.84114672,2.6220778 4.24148815,1.90093869 3.55137166,1.90093869 C2.8603991,1.90093869 2.26012448,2.62273128 2.26012448,3.54464602 C2.26012448,4.46622237 2.86006772,5.18695114 3.55137166,5.18695114 Z" id="Fill-14" fill="url(#linearGradient-11)"></path>
                                    <path d="M3.55137166,26.404224 C5.19252074,26.404224 6.50517498,27.8831033 6.50517498,29.6747045 C6.50517498,31.466843 5.19353104,32.9451851 3.55137166,32.9451851 C1.90902465,32.9451851 0.596096209,31.4665979 0.596096209,29.6747045 C0.596096209,27.8828112 1.90902465,26.404224 3.55137166,26.404224 Z M3.55137166,31.3170097 C4.24136236,31.3170097 4.84114672,30.596052 4.84114672,29.6747045 C4.84114672,28.753357 4.24136236,28.0323994 3.55137166,28.0323994 C2.86006772,28.0323994 2.26012448,28.7531282 2.26012448,29.6747045 C2.26012448,30.5962809 2.86006772,31.3170097 3.55137166,31.3170097 Z" id="Fill-15" fill="url(#linearGradient-6)"></path>
                                    <path d="M9.66900654,26.404224 C10.1243603,26.404224 10.5010207,26.7639669 10.5010207,27.2183117 L10.5010207,32.1310974 C10.5010207,32.5852445 10.1231338,32.9451851 9.66900654,32.9451851 C9.21487932,32.9451851 8.8369924,32.5852445 8.8369924,32.1310974 L8.8369924,27.2183117 C8.8369924,26.7641646 9.21487932,26.404224 9.66900654,26.404224 Z" id="Fill-16" fill="url(#linearGradient-7)"></path>
                                    <path d="M15.7866414,26.404224 C17.4289884,26.404224 18.7419169,27.8828112 18.7419169,29.6747045 C18.7419169,31.4665979 17.4289884,32.9451851 15.7866414,32.9451851 C14.1432841,32.9451851 12.831366,31.467135 12.831366,29.6747045 C12.831366,27.8828112 14.1442944,26.404224 15.7866414,26.404224 Z M15.7866414,31.3170097 C16.4779454,31.3170097 17.0778886,30.5962809 17.0778886,29.6747045 C17.0778886,28.7531282 16.4779454,28.0323994 15.7866414,28.0323994 C15.0953375,28.0323994 14.4953942,28.7531282 14.4953942,29.6747045 C14.4953942,30.5956256 15.0962325,31.3170097 15.7866414,31.3170097 Z" id="Fill-17" fill="url(#linearGradient-8)"></path>
                                    <path d="M21.9057862,26.404224 C22.3599134,26.404224 22.7378003,26.7641646 22.7378003,27.2183117 L22.7378003,32.1310974 C22.7378003,32.5852445 22.3599134,32.9451851 21.9057862,32.9451851 C21.4516589,32.9451851 21.073772,32.5852445 21.073772,32.1310974 L21.073772,27.2183117 C21.073772,26.7641646 21.4516589,26.404224 21.9057862,26.404224 Z" id="Fill-18" fill="url(#linearGradient-7)"></path>
                                    <path d="M25.9001597,26.404224 C26.3555135,26.404224 26.7321739,26.7639669 26.7321739,27.2183117 L26.7321739,32.1310974 C26.7321739,32.5852445 26.3542869,32.9451851 25.9001597,32.9451851 C25.4460325,32.9451851 25.0681456,32.5852445 25.0681456,32.1310974 L25.0681456,27.2183117 C25.0681456,26.7641646 25.4460325,26.404224 25.9001597,26.404224 Z" id="Fill-19" fill="url(#linearGradient-7)"></path>
                                    <path d="M29.8960432,26.404224 C30.3513969,26.404224 30.7280573,26.7639669 30.7280573,27.2183117 L30.7280573,32.1310974 C30.7280573,32.5852445 30.3501704,32.9451851 29.8960432,32.9451851 C29.4419159,32.9451851 29.064029,32.5852445 29.064029,32.1310974 L29.064029,27.2183117 C29.064029,26.7641646 29.4419159,26.404224 29.8960432,26.404224 Z" id="Fill-20" fill="url(#linearGradient-7)"></path>
                                    <path d="M36.0151879,26.404224 C37.6559977,26.404224 38.9687593,27.8826248 38.9704634,29.6747045 C38.9704634,31.4665979 37.6575349,32.9451851 36.0151879,32.9451851 C34.3728409,32.9451851 33.0599125,31.4665979 33.0599125,29.6747045 C33.0599125,27.8828112 34.3728409,26.404224 36.0151879,26.404224 Z M36.0151879,31.3170097 C36.7050987,31.3170097 37.3052583,30.5960199 37.3064351,29.6747045 C37.3064351,28.7537834 36.7055968,28.0323994 36.0151879,28.0323994 C35.323884,28.0323994 34.7239407,28.7531282 34.7239407,29.6747045 C34.7239407,30.5962809 35.323884,31.3170097 36.0151879,31.3170097 Z" id="Fill-21" fill="url(#linearGradient-8)"></path>
                                </g>
                            </g>
                        </g>
                    </g>
                    <g id="Group-2" transform="translate(31.000000, 29.000000)">
                        <g id="Database-Gear" transform="translate(0.000000, 23.000000)">
                            <g id="Database" filter="url(#filter-12)">
                                <path d="M34.7804878,30.6700665 C34.7804878,34.6875993 26.9947307,37.9423503 17.3902439,37.9423503 C7.78648171,37.9423503 0,34.6875993 0,30.6700665 C0,26.6525337 7.78648171,23.3977827 17.3902439,23.3977827 C26.9947307,23.3977827 34.7804878,26.6525337 34.7804878,30.6700665" id="Shadow" fill-opacity="0.102807971" fill="#000000"></path>
                                <g id="Lower" transform="translate(5.058980, 17.706430)">
                                    <path d="M12.6474501,9.42686216 C5.90603209,9.42686216 0.440264929,7.3060521 0.440264929,4.68821008 L0.440264929,11.0064129 C0.440264929,13.6242549 5.90603209,15.7450649 12.6474501,15.7450649 C19.3893768,15.7450649 24.8546353,13.6242549 24.8546353,11.0064129 L24.8546353,4.68821008 C24.8546353,7.3060521 19.3893768,9.42686216 12.6474501,9.42686216" id="Fill-101" fill="#E1E4E1"></path>
                                    <path d="M12.6474501,11.5155547 L12.6474501,13.6200427 C12.6474501,14.2176394 12.1667922,14.6936107 11.5900027,14.6746561 C5.34348431,14.4666819 0.440264929,12.4327471 0.440264929,9.95337906 L0.440264929,11.0064129 C0.440264929,13.6242549 5.90603209,15.7450649 12.6474501,15.7450649 C19.3893768,15.7450649 24.8546353,13.6242549 24.8546353,11.0064129 L24.8546353,5.74124388 C24.8546353,8.23114228 19.9112339,10.2713953 13.6270767,10.464627 C13.0808052,10.4814755 12.6474501,10.949549 12.6474501,11.5155547" id="Fill-106" fill="#D3DAD8"></path>
                                    <path d="M24.7890022,4.74279379 C24.7890022,7.36292387 19.3531282,9.48558758 12.6474501,9.48558758 C5.94227796,9.48558758 0.505898004,7.36292387 0.505898004,4.74279379 C0.505898004,2.12266371 5.94227796,0 12.6474501,0 C19.3531282,0 24.7890022,2.12266371 24.7890022,4.74279379" id="Fill-100" stroke="#E1E4E1" stroke-width="0.25" fill="#BAC0C2"></path>
                                </g>
                                <g id="Mid" transform="translate(5.058980, 8.853215)">
                                    <path d="M12.6474501,9.43468539 C5.90603209,9.43468539 0.440264929,7.31387533 0.440264929,4.69603332 L0.440264929,11.0142361 C0.440264929,13.6320781 5.90603209,15.7528882 12.6474501,15.7528882 C19.3893768,15.7528882 24.8546353,13.6320781 24.8546353,11.0142361 L24.8546353,4.69603332 C24.8546353,7.31387533 19.3893768,9.43468539 12.6474501,9.43468539" id="Fill-102" fill="#E1E4E1"></path>
                                    <path d="M12.6474501,11.5233779 L12.6474501,13.627866 C12.6474501,14.2254626 12.1667922,14.7014339 11.5900027,14.6824793 C5.34348431,14.4745051 0.440264929,12.4405704 0.440264929,9.96120229 L0.440264929,11.0142361 C0.440264929,13.6320781 5.90603209,15.7528882 12.6474501,15.7528882 C19.3893768,15.7528882 24.8546353,13.6320781 24.8546353,11.0142361 L24.8546353,5.74906711 C24.8546353,8.23896552 19.9112339,10.2792185 13.6270767,10.4724502 C13.0808052,10.4892987 12.6474501,10.9573723 12.6474501,11.5233779" id="Fill-107" fill="#D3DAD8"></path>
                                    <path d="M24.7890022,4.74279379 C24.7890022,7.36292387 19.3531282,9.48558758 12.6474501,9.48558758 C5.94227796,9.48558758 0.505898004,7.36292387 0.505898004,4.74279379 C0.505898004,2.12266371 5.94227796,0 12.6474501,0 C19.3531282,0 24.7890022,2.12266371 24.7890022,4.74279379" id="Fill-103" stroke="#E1E4E1" stroke-width="0.25" fill="#BAC0C2"></path>
                                </g>
                                <g id="Top" transform="translate(5.058980, 0.000000)">
                                    <path d="M12.6474501,9.44250863 C5.90603209,9.44250863 0.440264929,7.32169857 0.440264929,4.70385655 L0.440264929,11.0220593 C0.440264929,13.6399013 5.90603209,15.7607114 12.6474501,15.7607114 C19.3893768,15.7607114 24.8546353,13.6399013 24.8546353,11.0220593 L24.8546353,4.70385655 C24.8546353,7.32169857 19.3893768,9.44250863 12.6474501,9.44250863" id="Fill-104" fill="#E1E4E1"></path>
                                    <path d="M12.6474501,11.5312012 L12.6474501,13.6356892 C12.6474501,14.2332859 12.1667922,14.7092572 11.5900027,14.6903025 C5.34348431,14.4823284 0.440264929,12.4483936 0.440264929,9.96902553 L0.440264929,11.0220593 C0.440264929,13.6399013 5.90603209,15.7607114 12.6474501,15.7607114 C19.3893768,15.7607114 24.8546353,13.6399013 24.8546353,11.0220593 L24.8546353,5.75689035 C24.8546353,8.24678875 19.9112339,10.2870417 13.6270767,10.4802734 C13.0808052,10.497122 12.6474501,10.9651955 12.6474501,11.5312012" id="Fill-108" fill="#D3DAD8"></path>
                                    <path d="M24.3083188,4.74279379 C24.3083188,7.36292387 19.0876507,9.48558758 12.6474501,9.48558758 C6.2077354,9.48558758 0.986581458,7.36292387 0.986581458,4.74279379 C0.986581458,2.12266371 6.2077354,0 12.6474501,0 C19.0876507,0 24.3083188,2.12266371 24.3083188,4.74279379" id="Fill-105" stroke="#E1E4E1" fill="#C4CBCD"></path>
                                </g>
                            </g>
                        </g>
                        <g id="Network-Router" filter="url(#filter-13)" transform="translate(6.000000, 0.000000)">
                            <path d="M21.2652439,27.4085366 L12.7591463,27.4085366 L12.7591463,21.2652439 L9.92378049,21.2652439 L9.92378049,27.4085366 L1.41768293,27.4085366 C0.895503049,27.4085366 0.472560976,27.8319512 0.472560976,28.3536585 C0.472560976,28.8753659 0.895503049,29.2987805 1.41768293,29.2987805 L21.2652439,29.2987805 C21.7869512,29.2987805 22.2103659,28.8753659 22.2103659,28.3536585 C22.2103659,27.8319512 21.7869512,27.4085366 21.2652439,27.4085366" id="Fill-1258" fill="#182A37"></path>
                            <path d="M15.1219512,10.3963415 C14.860625,10.3963415 14.6493902,10.1851067 14.6493902,9.92378049 L14.6493902,5.19817073 C14.6493902,4.93684451 14.860625,4.72560976 15.1219512,4.72560976 C15.3832774,4.72560976 15.5945122,4.93684451 15.5945122,5.19817073 L15.5945122,9.92378049 C15.5945122,10.1851067 15.3832774,10.3963415 15.1219512,10.3963415" id="Fill-1259" fill="#30404D"></path>
                            <path d="M9.92330793,9.92378049 C9.71065549,9.92378049 9.49753049,9.85289634 9.32126524,9.70640244 C7.88137195,8.5141311 7.08841463,6.91262195 7.08841463,5.19817073 C7.08841463,3.48371951 7.88137195,1.88221037 9.32126524,0.689939024 C9.72199695,0.356310976 10.3183689,0.413490854 10.6515244,0.814695122 C10.9842073,1.21637195 10.9289177,1.8127439 10.5262957,2.14542683 C9.52824695,2.97240854 8.97865854,4.05693598 8.97865854,5.19817073 C8.97865854,6.33987805 9.52871951,7.42393293 10.5262957,8.25091463 C10.9289177,8.58359756 10.9842073,9.17949695 10.6515244,9.58164634 C10.4643902,9.80705793 10.1950305,9.92378049 9.92330793,9.92378049" id="Fill-1260" fill="#30404D"></path>
                            <path d="M12.2861128,8.03353659 C12.0734604,8.03353659 11.8603354,7.96265244 11.6840701,7.81615854 C10.8533079,7.12858232 10.3963415,6.19858232 10.3963415,5.19817073 C10.3963415,4.19775915 10.8533079,3.26775915 11.6840701,2.58018293 C12.0852744,2.24702744 12.6816463,2.3032622 13.0143293,2.70541159 C13.3470122,3.10708841 13.2917226,3.7029878 12.8891006,4.03567073 C12.5006555,4.35795732 12.2865854,4.77097561 12.2865854,5.19817073 C12.2865854,5.62536585 12.5006555,6.03838415 12.8891006,6.36067073 C13.2917226,6.69335366 13.3470122,7.28925305 13.0143293,7.69092988 C12.8271951,7.91681402 12.5578354,8.03353659 12.2861128,8.03353659" id="Fill-1261" fill="#30404D"></path>
                            <path d="M19.8480335,9.92330793 C19.576311,9.92330793 19.3064787,9.80658537 19.1198171,9.58117378 C18.7871341,9.17949695 18.8424238,8.583125 19.2450457,8.25044207 C20.2430945,7.42346037 20.7926829,6.33893293 20.7926829,5.19769817 C20.7926829,4.05599085 20.242622,2.97193598 19.2450457,2.14495427 C18.8424238,1.81227134 18.7871341,1.21637195 19.1198171,0.814222561 C19.4529726,0.412545732 20.048872,0.355838415 20.4500762,0.689466463 C21.8899695,1.8817378 22.6829268,3.48324695 22.6829268,5.19769817 C22.6829268,6.91214939 21.8899695,8.51365854 20.4500762,9.70592988 C20.273811,9.85242378 20.060686,9.92330793 19.8480335,9.92330793" id="Fill-1262" fill="#30404D"></path>
                            <path d="M17.9577896,8.03306402 C17.6860671,8.03306402 17.4162348,7.91634146 17.2295732,7.69045732 C16.8968902,7.28878049 16.9521799,6.6928811 17.3548018,6.36019817 C17.743247,6.03791159 17.9573171,5.62489329 17.9573171,5.19769817 C17.9573171,4.77050305 17.743247,4.35748476 17.3548018,4.03519817 C16.9521799,3.70251524 16.8968902,3.10661585 17.2295732,2.70493902 C17.5622561,2.30278963 18.1576829,2.24655488 18.5598323,2.57971037 C19.3905945,3.26728659 19.847561,4.19728659 19.847561,5.19769817 C19.847561,6.19810976 19.3905945,7.12810976 18.5598323,7.81568598 C18.3835671,7.96217988 18.1704421,8.03306402 17.9577896,8.03306402" id="Fill-1263" fill="#30404D"></path>
                            <polygon id="Fill-1264" fill="#546670" points="0 19.375 22.6829268 19.375 22.6829268 13.7042683 0 13.7042683"></polygon>
                            <path d="M0,19.375 C0,20.4146341 0.851082317,21.2647713 1.8902439,21.2647713 L20.7926829,21.2647713 C21.8318445,21.2647713 22.6829268,20.4146341 22.6829268,19.375 L0,19.375" id="Fill-1265" fill="#E1E4E1"></path>
                            <path d="M22.6829268,13.7037957 C22.6829268,12.6641616 21.8318445,11.8140244 20.7926829,11.8140244 L1.8902439,11.8140244 C0.851082317,11.8140244 0,12.6641616 0,13.7037957 L22.6829268,13.7037957" id="Fill-1266" fill="#E1E4E1"></path>
                            <path d="M1.8902439,16.5396341 C1.8902439,16.0179268 2.31365854,15.5945122 2.83536585,15.5945122 C3.35754573,15.5945122 3.7804878,16.0179268 3.7804878,16.5396341 C3.7804878,17.0613415 3.35754573,17.4847561 2.83536585,17.4847561 C2.31365854,17.4847561 1.8902439,17.0613415 1.8902439,16.5396341" id="Fill-1267" fill="#EFB252"></path>
                            <path d="M4.72560976,16.5396341 C4.72560976,16.0179268 5.14902439,15.5945122 5.67073171,15.5945122 C6.19291159,15.5945122 6.61585366,16.0179268 6.61585366,16.5396341 C6.61585366,17.0613415 6.19291159,17.4847561 5.67073171,17.4847561 C5.14902439,17.4847561 4.72560976,17.0613415 4.72560976,16.5396341" id="Fill-1268" fill="#EFB252"></path>
                            <path d="M7.56097561,16.5396341 C7.56097561,16.0179268 7.98439024,15.5945122 8.50609756,15.5945122 C9.02827744,15.5945122 9.45121951,16.0179268 9.45121951,16.5396341 C9.45121951,17.0613415 9.02827744,17.4847561 8.50609756,17.4847561 C7.98439024,17.4847561 7.56097561,17.0613415 7.56097561,16.5396341" id="Fill-1269" fill="#7CB65A"></path>
                            <path d="M3.15292683,16.8571951 C2.84481707,17.1648323 2.37887195,17.2120884 2.01783537,17.0060518 C2.05894817,17.0778811 2.10620427,17.146875 2.16716463,17.2083079 C2.5357622,17.5769055 3.13496951,17.5769055 3.50403963,17.2083079 C3.8726372,16.8392378 3.8726372,16.240503 3.50403963,15.8714329 C3.44260671,15.8104726 3.3736128,15.7632165 3.30178354,15.7221037 C3.50782012,16.0831402 3.46056402,16.5490854 3.15292683,16.8571951" id="Fill-1270" fill="#D8A34B"></path>
                            <path d="M5.98829268,16.8571951 C5.68018293,17.1648323 5.2142378,17.2120884 4.85320122,17.0060518 C4.89431402,17.0778811 4.94157012,17.146875 5.00253049,17.2083079 C5.37112805,17.5769055 5.97033537,17.5769055 6.33940549,17.2083079 C6.70800305,16.8392378 6.70800305,16.240503 6.33940549,15.8714329 C6.27797256,15.8104726 6.20897866,15.7632165 6.13714939,15.7221037 C6.34318598,16.0831402 6.29592988,16.5490854 5.98829268,16.8571951" id="Fill-1271" fill="#D8A34B"></path>
                            <path d="M8.82365854,16.8571951 C8.51554878,17.1648323 8.04960366,17.2120884 7.68856707,17.0060518 C7.72967988,17.0778811 7.77693598,17.146875 7.83789634,17.2083079 C8.2064939,17.5769055 8.80570122,17.5769055 9.17477134,17.2083079 C9.5433689,16.8392378 9.5433689,16.240503 9.17477134,15.8714329 C9.11333841,15.8104726 9.04434451,15.7632165 8.97251524,15.7221037 C9.17855183,16.0831402 9.13129573,16.5490854 8.82365854,16.8571951" id="Fill-1272" fill="#69994E"></path>
                            <path d="M9.92378049,21.2652439 L9.92378049,21.7378049 L10.8689024,21.7378049 C11.1297561,21.7378049 11.3414634,21.9495122 11.3414634,22.2103659 L11.3414634,25.9908537 L12.7591463,25.9908537 L12.7591463,21.2652439 L9.92378049,21.2652439" id="Fill-1273" fill="#12202B"></path>
                            <path d="M0.472560976,28.3536585 C0.472560976,28.8753659 0.89597561,29.2987805 1.41768293,29.2987805 L21.2652439,29.2987805 C21.7869512,29.2987805 22.2103659,28.8753659 22.2103659,28.3536585 L22.2103659,28.353186 L0.472560976,28.353186 L0.472560976,28.3536585" id="Fill-1274" fill="#12202B"></path>
                            <path d="M15.1219512,30.2439024 C15.1219512,30.503811 14.9092988,30.7164634 14.6493902,30.7164634 L8.03353659,30.7164634 C7.77362805,30.7164634 7.56097561,30.503811 7.56097561,30.2439024 L7.56097561,26.4634146 C7.56097561,26.2035061 7.77362805,25.9908537 8.03353659,25.9908537 L14.6493902,25.9908537 C14.9092988,25.9908537 15.1219512,26.2035061 15.1219512,26.4634146 L15.1219512,30.2439024" id="Fill-1275" fill="#30404D"></path>
                            <path d="M14.6493902,25.9908537 L11.3414634,25.9908537 L11.3414634,28.825747 C11.3414634,29.3479268 10.9185213,29.7708689 10.3963415,29.7708689 L7.56097561,29.7708689 L7.56097561,30.2439024 C7.56097561,30.503811 7.77362805,30.7164634 8.03353659,30.7164634 L14.6493902,30.7164634 C14.9092988,30.7164634 15.1219512,30.503811 15.1219512,30.2439024 L15.1219512,26.4634146 C15.1219512,26.2035061 14.9092988,25.9908537 14.6493902,25.9908537" id="Fill-1276" fill="#182A37"></path>
                            <polygon id="Fill-1277" fill="#30404D" points="11.3414634 19.375 22.6829268 19.375 22.6829268 13.7042683 11.3414634 13.7042683"></polygon>
                            <path d="M11.3414634,21.2647713 L20.7926829,21.2647713 C21.8318445,21.2647713 22.6829268,20.4146341 22.6829268,19.375 L11.3414634,19.375 L11.3414634,21.2647713" id="Fill-1278" fill="#C6D0D0"></path>
                            <path d="M11.3414634,11.814497 L20.7926829,11.814497 C21.8318445,11.814497 22.6829268,12.6646341 22.6829268,13.7042683 L11.3414634,13.7042683 L11.3414634,11.814497" id="Fill-1279" fill="#C6D0D0"></path>
                            <path d="M16.0670732,9.92378049 C16.0670732,9.75082317 15.6757927,9.11806402 15.5945122,8.97865854 L14.6493902,8.97865854 C14.5681098,9.11806402 14.1768293,9.75082317 14.1768293,9.92378049 L14.1768293,11.8140244 L16.0670732,11.8140244 L16.0670732,9.92378049" id="Fill-1280" fill="#30404D"></path>
                            <path d="M15.1219512,5.67073171 L15.1219512,8.97865854 L15.5945122,8.97865854 L15.5945122,5.19817073 C15.3336585,5.19817073 15.1219512,5.40987805 15.1219512,5.67073171" id="Fill-1281" fill="#182A37"></path>
                            <path d="M15.868125,9.45121951 L15.5945122,9.45121951 C15.3336585,9.45121951 15.1219512,9.66292683 15.1219512,9.92378049 L15.1219512,10.8689024 C15.1219512,11.1297561 14.9102439,11.3414634 14.6493902,11.3414634 L14.1768293,11.3414634 L14.1768293,11.8140244 L16.0670732,11.8140244 L16.0670732,9.92378049 C16.0670732,9.83919207 15.9730335,9.64449695 15.868125,9.45121951" id="Fill-1282" fill="#182A37"></path>
                            <path d="M11.3414634,13.2317073 L0.0675762195,13.2317073 C0.0278810976,13.3833994 0,13.5398171 0,13.7037957 L11.3414634,13.7037957 L11.3414634,13.2317073" id="Fill-1283" fill="#C6D0D0"></path>
                            <path d="M22.6153506,19.847561 C22.6550457,19.6953963 22.6829268,19.5389787 22.6829268,19.375 L11.3414634,19.375 L11.3414634,19.847561 L22.6153506,19.847561" id="Fill-1284" fill="#E1E4E1"></path>
                        </g>
                    </g>
                </g>
                <g id="Azure-Border">
                    <path d="M50,0 C74.5263677,-4.50542066e-15 94.9281966,17.6592499 99.1842495,40.9565123 L94.2027317,73.3905473 C85.8096395,89.2186645 69.1638777,100 50,100 C30.9551233,100 14.3971863,89.3521454 5.95457608,73.6848234 L0.0261464987,48.3675131 C0.887696267,21.508872 22.932015,4.97230817e-15 50,0 Z" id="Combined-Shape" fill="url(#linearGradient-14)" fill-rule="evenodd" opacity="0.400000006" style="mix-blend-mode: overlay;"></path>
                    <g>
                        <use fill="black" fill-opacity="1" filter="url(#filter-16)" xlink:href="#path-15"></use>
                        <rect stroke="#F2F1F0" stroke-width="4" stroke-linejoin="square" x="-1" y="-1" width="102" height="102" rx="51"></rect>
                    </g>
                    <rect stroke="#0078D4" stroke-width="4" x="2" y="2" width="96" height="96" rx="48"></rect>
                </g>
            </g>
        </g>
    </g>
</svg>